<svg width="128" height="128" viewBox="0 0 128 128" fill="none" xmlns="http://www.w3.org/2000/svg">
<path fill-rule="evenodd" clip-rule="evenodd" d="M45.8319 2.20704C26.4959 4.24704 9.44887 19.141 2.00787 40.457C-0.285131 47.086 -0.28513 47.801 2.05087 42.703C7.19887 31.43 14.1639 23.422 23.5549 17.863C31.0349 13.426 38.3049 11.641 47.1289 12.051C54.2689 12.355 59.5889 13.887 65.6449 17.254L69.8439 19.598L75.5979 16.945C78.7109 15.469 81.3079 14.09 81.3079 13.887C81.3079 13.684 79.7069 12.305 77.7579 10.879C68.7179 4.34804 56.7339 1.08604 45.8319 2.20704Z" fill="#16358C"/>
<path fill-rule="evenodd" clip-rule="evenodd" d="M89.7378 11.328C87.0228 12.645 84.6088 13.863 84.3518 13.965C84.1318 14.066 85.3399 15.691 87.0659 17.617C103.828 35.988 108.656 65.875 98.7859 90.285C91.6758 107.895 79.5229 119.461 62.5898 124.891C59.9598 125.703 62.4138 125.5 66.8118 124.488C90.6838 119.008 108.785 97.086 112.793 68.668C113.695 62.375 113.48 50.297 112.359 44.258C110.121 32.285 105.551 21.883 98.2688 12.137C96.8478 10.262 95.4688 8.73796 95.1678 8.78896C94.9058 8.78896 92.4528 9.95696 89.7378 11.329V11.328Z" fill="#0081AE"/>
<path fill-rule="evenodd" clip-rule="evenodd" d="M76.4022 17.496C73.4652 18.914 71.0902 20.23 71.0902 20.383C71.0902 20.586 72.1292 21.547 73.3792 22.559C80.9412 28.684 88.0662 40.176 91.0892 51.266C94.1992 62.453 94.0272 76.426 90.6602 87.359C85.2152 105.23 72.8632 118.547 57.2702 123.457C53.0352 124.824 54.2462 125.027 59.4732 123.914C75.8432 120.367 89.8362 108.117 97.1372 91.004C101.027 81.894 102.625 73.793 102.668 63.414C102.668 50 99.4262 38.102 92.8202 27.418C90.2272 23.118 83.1452 14.762 82.2342 14.863C81.9342 14.863 79.2972 16.078 76.4022 17.496Z" fill="#16358C"/>
<path fill-rule="evenodd" clip-rule="evenodd" d="M39.1802 28.004C39.1802 35.437 39.2232 35.789 40.0432 35.789C40.8242 35.789 40.9102 35.437 40.9102 32.574C40.9102 30.766 41.1252 29.156 41.3872 28.957C42.1212 28.453 44.0272 30.312 45.6292 33.176C46.7112 35.136 47.3632 35.789 48.1412 35.789H49.2232L48.2272 33.879C47.7072 32.875 46.7542 31.219 46.1052 30.262L44.8952 28.453L45.9342 27.098C47.3162 25.188 47.2302 23.48 45.7142 21.672C44.5902 20.367 44.1562 20.215 41.8202 20.215H39.1802V28.004ZM44.2902 22.828C44.5902 23.18 44.8092 23.883 44.8092 24.484C44.8092 25.992 43.9842 26.746 42.3392 26.746C40.9532 26.746 40.9102 26.696 40.9102 24.484C40.9102 22.277 40.9532 22.227 42.3402 22.227C43.1172 22.227 43.9842 22.477 44.2902 22.828ZM54.1952 21.809C51.0202 23.168 49.5392 25.633 49.5392 29.559C49.5392 33.989 52.1492 36.961 56.5472 37.562C58.4182 37.816 58.8952 37.715 59.3752 36.961C60.3322 35.449 60.1132 35.148 58.2852 35.5C55.8482 35.953 52.8012 34.293 51.8912 32.027C50.9302 29.711 51.3672 26.941 53.0202 25.031C54.9772 22.766 58.5902 23.066 61.1562 25.734C62.0702 26.742 62.0702 26.742 62.3752 25.684C62.7232 24.324 62.4182 23.82 60.4612 22.664C58.1562 21.254 56.1092 21.004 54.1952 21.809ZM27.3952 23.063C27.3092 23.422 27.0042 26.41 26.7462 29.66C26.5316 32.3593 26.2869 35.0561 26.0122 37.75C25.7972 39.707 25.8402 39.965 26.6172 39.965C27.5232 39.965 28.0392 38.316 28.0392 35.585C28.0392 34.656 28.4732 34.348 30.7582 33.575L33.4342 32.648L34.7702 34.504C35.5472 35.586 36.4962 36.359 37.0592 36.359C37.6172 36.359 37.9652 36.152 37.8792 35.895C37.7892 35.585 35.7622 32.492 33.3052 28.937C29.1172 22.855 27.8252 21.567 27.3952 23.062V23.063ZM31.9222 30.743C31.9222 30.945 31.4492 31.258 30.8872 31.41C30.3282 31.566 29.5512 31.875 29.1602 32.031C28.6022 32.285 28.4732 31.977 28.4732 30.637C28.4732 29.66 28.6022 28.32 28.7732 27.648C29.0312 26.359 29.0312 26.359 30.5002 28.371C31.2772 29.453 31.9222 30.535 31.9222 30.742V30.743ZM63.6372 31.695C61.0122 38.165 60.8402 38.719 61.5702 39.325C62.2582 39.883 62.4772 39.629 63.5502 37.051C64.2422 35.434 64.8872 34.071 64.9302 33.969C65.0162 33.867 66.5232 34.574 68.3322 35.586L71.6482 37.356L70.3132 40.386C69.0632 43.371 69.0632 43.469 69.8832 43.976C70.6562 44.43 70.8712 44.129 72.3792 40.59C75.8242 32.453 76.5592 30.277 75.8672 29.773C74.8792 29.066 74.7502 29.168 73.7572 32.098C73.2422 33.664 72.6372 35.031 72.4222 35.18C71.9492 35.535 66.0082 31.945 66.0082 31.34C66.0082 31.035 66.5232 29.621 67.1252 28.207C68.0312 26.133 68.1172 25.578 67.6412 25.223C67.3402 24.973 66.9532 24.77 66.7812 24.77C66.6092 24.77 65.1872 27.902 63.6372 31.695ZM12.6482 30.418C12.4302 31.133 13.6952 47.121 14.0432 47.528C14.1292 47.633 14.5202 47.426 14.9142 47.02C15.4342 46.508 15.5662 45.793 15.3482 43.953L15.0862 41.555L17.5662 39.969L20.0512 38.387L21.9652 39.969C23.5752 41.348 23.9652 41.449 24.4882 40.891C24.9682 40.277 24.2272 39.406 19.4382 34.914C16.3052 32.054 13.5632 29.704 13.3442 29.704C13.0862 29.704 12.7812 30.012 12.6482 30.418ZM16.4382 34.914C17.3522 35.781 18.1332 36.699 18.1332 36.906C18.1332 37.57 15.4332 39 15.0862 38.539C14.7382 38.133 14.2582 33.277 14.5622 33.277C14.6522 33.277 15.4772 33.992 16.4382 34.914ZM25.1682 54.305C15.5472 62.809 9.29321 75.515 8.77321 87.77C8.30121 98.352 11.7502 105.844 18.5232 108.832C22.1052 110.398 27.3672 110.047 30.5592 108.02C38.7542 102.805 40.7812 89.945 34.6562 81.945C32.6722 79.363 30.6452 77.848 28.2732 77.188C25.9412 76.48 21.7582 76.832 19.4732 77.848C18.2662 78.352 17.2732 78.758 17.2732 78.656C17.2732 77.946 19.0432 73.949 20.5932 71.062C22.7932 67.113 26.5032 62.656 29.6532 60.125C30.7732 59.215 31.7662 58.453 31.8522 58.355C31.9802 58.254 28.0122 52.075 27.7972 52.075C27.7542 52.075 26.5472 53.09 25.1682 54.305ZM26.8912 85.188C32.2422 87.82 32.8442 96.578 28.0112 100.781C25.5112 103.008 21.1132 102.551 18.5662 99.871C16.3672 97.488 15.4612 94.707 15.6332 90.555L15.7622 87.262L18.0942 85.844C20.7662 84.277 24.5202 83.973 26.8912 85.188ZM53.6642 69.504C43.0352 84.668 41.4372 87.137 41.4372 88.648V90.359L51.7192 90.461L61.9612 90.613L62.1332 108.746L65.4182 108.898L68.6562 109.051L68.7422 99.832L68.8722 90.613L71.3792 90.461L73.8392 90.309V83.359L71.3792 83.207L68.8712 83.055L68.7422 67.539L68.6562 52.074H67.2302C65.9342 52.074 65.1132 53.133 53.6642 69.504ZM62.1332 75.246C62.2192 81.293 62.1332 82.856 61.6562 83.055C61.3132 83.207 58.7622 83.258 55.9962 83.207L50.9412 83.055L56.2152 75.398C59.1522 71.168 61.6562 67.691 61.7852 67.691C61.9182 67.691 62.0472 71.117 62.1332 75.246Z" fill="#1A1516"/>
<path fill-rule="evenodd" clip-rule="evenodd" d="M109.852 1.047C109.852 1.488 108.832 1.762 108.805 1.328C108.797 1.223 108.75 1.308 108.695 1.52C108.617 1.84 108.535 1.895 108.141 1.867C107.777 1.844 107.664 1.898 107.609 2.133C107.57 2.316 107.391 2.469 107.145 2.527C106.925 2.578 106.68 2.715 106.602 2.828C106.414 3.09 105.882 3.102 105.75 2.848C105.684 2.723 105.625 2.785 105.574 3.039C105.527 3.285 105.367 3.461 105.117 3.551C104.907 3.625 104.543 3.797 104.312 3.926C103.984 4.117 103.863 4.129 103.738 3.98C103.516 3.723 103.368 3.75 103.461 4.04C103.571 4.371 103.266 4.559 102.887 4.39C102.434 4.188 102.336 4.219 102.336 4.55C102.336 4.96 101.895 5.223 101.559 5.012C101.336 4.875 101.297 4.895 101.297 5.16C101.297 5.406 101.215 5.469 100.875 5.469C100.609 5.469 100.363 5.582 100.227 5.769C99.9768 6.113 99.4878 6.168 99.2418 5.887C99.1128 5.734 99.0978 5.75 99.1718 5.977C99.2888 6.344 99.0038 6.555 98.5428 6.441C98.2768 6.375 98.1868 6.414 98.1868 6.59C98.1868 7.04 97.2468 7.352 97.1048 6.95C97.0698 6.844 97.0348 6.914 97.0308 7.105C97.0198 7.527 96.6838 7.703 96.3548 7.465C96.0268 7.227 96.0308 7.227 96.0848 7.785C96.1248 8.187 96.4878 8.711 97.9378 10.453C100.293 13.285 103.074 17.262 104.281 19.516C104.387 19.715 104.629 20.136 104.816 20.453C105.437 21.512 106.375 23.253 106.703 23.969C106.879 24.359 107.172 24.984 107.348 25.359C108.438 27.664 109.875 31.258 110.594 33.484C110.704 33.82 110.844 34.23 110.906 34.394C111.145 35.031 111.805 37.43 112.328 39.559C112.468 40.145 112.641 40.829 112.703 41.079C113.933 45.895 114.593 52.797 114.48 59.679C114.375 66.191 113.937 69.949 112.52 76.523C112.3 77.543 110.86 82.664 110.574 83.445C110.48 83.695 110.301 84.211 110.172 84.585C109.609 86.215 108.109 89.871 107.465 91.191C107.219 91.691 106.863 92.437 106.675 92.848C106.035 94.23 104.488 97 103.027 99.378C98.8708 106.137 92.2848 113.043 85.5858 117.664C83.0938 119.383 81.4058 120.355 77.4758 122.336C77.2418 122.453 76.9378 122.551 76.7958 122.551C76.6558 122.551 76.5388 122.613 76.5388 122.687C76.5388 122.91 75.7578 123.059 75.5938 122.867C75.3828 122.621 75.2458 122.664 75.2458 122.98C75.2458 123.324 74.7108 123.64 74.4528 123.45C74.1758 123.242 73.9488 123.281 73.9488 123.54C73.9488 123.89 73.3948 124.137 73.0658 123.93C72.6798 123.691 72.5228 123.727 72.5228 124.05C72.5228 124.21 72.4298 124.379 72.3158 124.43C71.9878 124.578 71.2258 124.54 71.2258 124.371C71.2258 124.289 71.1718 124.219 71.1088 124.219C71.0428 124.219 71.0188 124.352 71.0548 124.508C71.1408 124.887 70.7348 125.039 69.9998 124.91C69.5118 124.828 69.4368 124.852 69.3748 125.125C69.3278 125.34 69.1908 125.441 68.9368 125.453C68.4768 125.477 68.5508 125.48 67.8238 125.355C67.2658 125.258 67.2068 125.277 67.2068 125.551C67.2068 125.992 65.7968 126.285 65.5858 125.891C65.4298 125.594 64.7618 125.707 64.8318 126.02C64.9218 126.43 64.3478 126.523 62.5158 126.402C61.0198 126.301 60.9878 126.305 60.9878 126.622C60.9878 127.258 61.3478 127.309 64.8048 127.188L68.1798 127.098C69.1248 127.281 70.0588 127.258 70.0588 127.055C70.0588 126.91 70.2338 126.797 70.5468 126.742C71.9728 126.492 72.2378 126.477 72.3198 126.637C72.4728 126.926 73.2618 126.836 73.3318 126.52C73.4258 126.11 74.8588 125.836 75.0508 126.195C75.2068 126.492 75.7458 126.371 75.6708 126.051C75.5938 125.691 76.2608 125.496 77.0658 125.645C77.4688 125.723 77.5778 125.691 77.5778 125.52C77.5778 125.223 78.5898 124.887 78.7848 125.121C79.0148 125.391 79.3908 125.313 79.3908 124.996C79.3908 124.828 79.5108 124.672 79.6838 124.621C80.1368 124.477 80.6878 124.508 80.6878 124.676C80.6878 124.758 80.7418 124.828 80.8048 124.828C80.8708 124.828 80.8948 124.691 80.8588 124.531C80.7768 124.176 81.2538 123.981 81.8588 124.121C82.1448 124.188 82.2418 124.156 82.2418 123.992C82.2418 123.719 82.7768 123.547 83.2148 123.676C83.4768 123.75 83.5388 123.715 83.5388 123.476C83.5388 123.125 84.2578 122.871 84.4888 123.141C84.6988 123.395 84.8358 123.344 84.8358 123.016C84.8358 122.648 84.9878 122.531 85.4798 122.516C85.6868 122.508 85.8948 122.402 85.9338 122.281C85.9878 122.109 86.1328 122.078 86.5238 122.152C86.9798 122.238 87.0388 122.215 87.0388 121.945C87.0388 121.629 87.5308 121.383 87.8708 121.535C87.9808 121.585 88.0778 121.492 88.1208 121.301C88.1798 121.035 88.2608 121 88.6518 121.074C89.0548 121.152 89.1128 121.125 89.1128 120.852C89.1128 120.578 89.1678 120.555 89.5658 120.641C89.9728 120.731 90.0198 120.707 90.0198 120.414C90.0198 120.121 90.0698 120.098 90.4648 120.184C90.8588 120.27 90.9148 120.242 90.9528 119.934C90.9798 119.699 91.0978 119.57 91.3158 119.535C91.4958 119.508 91.6908 119.383 91.7498 119.262C91.8238 119.105 91.9728 119.066 92.2338 119.137C92.5628 119.219 92.6138 119.187 92.6138 118.898C92.6138 118.605 92.6638 118.578 93.0468 118.66C93.4338 118.746 93.4768 118.723 93.4648 118.414C93.4568 118.133 93.5198 118.074 93.8008 118.098C94.0428 118.113 94.1638 118.035 94.2108 117.832C94.2498 117.641 94.3868 117.539 94.5978 117.539C94.7728 117.539 94.9488 117.441 94.9878 117.329C95.0698 117.079 95.7968 116.625 96.1178 116.625C96.2418 116.625 96.3708 116.492 96.4098 116.325C96.4498 116.156 96.5858 116.02 96.7188 116.02C96.8518 116.02 97.0308 115.883 97.1208 115.715C97.2108 115.547 97.3628 115.41 97.4608 115.41C97.5588 115.41 97.7148 115.305 97.8048 115.172C97.8978 115.043 98.0818 114.969 98.2108 115.008C98.3708 115.058 98.4448 114.996 98.4448 114.816C98.4448 114.668 98.5778 114.469 98.7378 114.371C98.8978 114.273 99.2028 114.059 99.4178 113.895C99.6328 113.727 99.8908 113.547 99.9918 113.488C100.141 113.39 100.279 113.275 100.402 113.145C100.937 112.582 101.07 112.5 101.309 112.575C101.504 112.633 101.559 112.57 101.559 112.285C101.559 112.082 101.605 111.918 101.668 111.918C101.766 111.918 101.957 111.754 102.555 111.164C102.654 111.074 102.781 111.019 102.915 111.008C103.023 111.008 103.113 110.906 103.113 110.781C103.113 110.652 103.227 110.551 103.371 110.551C103.516 110.551 103.633 110.473 103.633 110.371C103.633 110.129 104.285 109.336 104.484 109.336C104.57 109.336 104.676 109.234 104.714 109.109C104.758 108.984 104.871 108.883 104.973 108.883C105.074 108.883 105.191 108.781 105.234 108.653C105.274 108.527 105.398 108.426 105.508 108.426C105.618 108.426 105.707 108.324 105.707 108.199C105.707 108.074 105.793 107.973 105.902 107.973C106.012 107.973 106.137 107.867 106.176 107.743C106.219 107.617 106.391 107.516 106.559 107.516C106.762 107.516 106.839 107.446 106.797 107.312C106.711 107.043 107.074 106.699 107.324 106.809C107.516 106.895 107.578 106.746 107.527 106.316C107.477 105.902 109.074 104.203 109.613 104.094C109.918 104.035 110.113 103.91 110.113 103.781C110.113 103.664 110.199 103.566 110.309 103.566C110.441 103.566 110.5 103.41 110.5 103.062C110.5 102.699 110.613 102.426 110.887 102.113C111.097 101.867 111.273 101.617 111.277 101.555C111.277 101.492 111.383 101.316 111.504 101.16C111.629 101.008 111.949 100.598 112.214 100.25C112.48 99.902 112.785 99.617 112.894 99.617C113.02 99.617 113.094 99.48 113.094 99.238C113.094 99.031 113.152 98.859 113.223 98.859C113.293 98.859 113.355 98.773 113.359 98.668C113.367 98.328 113.929 97.688 114.324 97.57C114.539 97.508 114.641 97.426 114.551 97.387C114.359 97.301 114.332 96.887 114.52 96.887C114.59 96.887 114.648 96.75 114.648 96.582C114.648 96.414 114.707 96.277 114.781 96.277C114.855 96.277 114.969 96.105 115.039 95.898C115.113 95.66 115.262 95.52 115.434 95.52C115.637 95.52 115.684 95.45 115.629 95.234C115.607 95.1518 115.606 95.0655 115.626 94.9829C115.647 94.9004 115.688 94.8244 115.746 94.762C115.856 94.656 115.946 94.484 115.946 94.379C115.946 94.269 116.027 94.149 116.125 94.102C116.227 94.059 116.441 93.711 116.602 93.328C116.793 92.883 116.984 92.633 117.137 92.633C117.312 92.633 117.371 92.516 117.371 92.18C117.371 91.926 117.426 91.723 117.492 91.723C117.559 91.723 117.632 91.57 117.652 91.379C117.68 91.168 117.801 91.019 117.972 90.992C118.18 90.957 118.234 90.867 118.184 90.645C118.152 90.4499 118.195 90.2501 118.304 90.085C118.406 89.941 118.633 89.465 118.804 89.027C118.977 88.59 119.16 88.23 119.214 88.23C119.27 88.23 119.316 88.129 119.316 88C119.316 87.875 119.426 87.64 119.562 87.484C119.699 87.32 119.832 87.031 119.855 86.836C119.887 86.598 120 86.465 120.211 86.43C120.43 86.395 120.473 86.344 120.355 86.258C120.125 86.09 120.297 85.344 120.562 85.344C120.711 85.344 120.75 85.25 120.699 85.027C120.656 84.832 120.727 84.602 120.879 84.422C121.019 84.262 121.129 83.969 121.129 83.77C121.129 83.57 121.211 83.328 121.309 83.234C121.406 83.137 121.523 82.855 121.566 82.609C121.621 82.281 121.715 82.156 121.91 82.156C122.148 82.156 122.168 82.094 122.094 81.613C122.02 81.148 122.043 81.063 122.274 80.993C122.496 80.922 122.531 80.828 122.469 80.465C122.418 80.18 122.461 79.93 122.586 79.758C122.696 79.618 122.82 79.242 122.871 78.93C122.938 78.496 123.02 78.36 123.215 78.36C123.43 78.36 123.449 78.309 123.34 78.066C123.164 77.687 123.379 76.992 123.664 76.992C123.828 76.992 123.855 76.895 123.789 76.539C123.672 75.929 123.816 75.473 124.121 75.473C124.402 75.473 124.441 75.316 124.227 75.063C124.012 74.809 124.219 73.933 124.516 73.843C124.703 73.785 124.73 73.719 124.625 73.566C124.406 73.258 124.613 72.262 124.918 72.168C125.128 72.102 125.156 72.004 125.086 71.566C124.957 70.766 125.117 70.113 125.422 70.207C125.703 70.293 125.777 69.738 125.52 69.441C125.297 69.18 125.5 68.168 125.797 68.078C126.007 68.012 126.031 67.898 125.965 67.273C125.867 66.297 126.008 65.449 126.27 65.449C126.422 65.449 126.45 65.367 126.379 65.109C126.125 64.191 126.375 62.203 126.73 62.313C126.969 62.387 126.98 62.34 126.898 61.605C126.695 59.781 126.844 57.402 127.164 57.402C127.324 57.402 127.352 56.562 127.352 51.707C127.352 46.867 127.324 46.012 127.168 46.012C126.848 46.012 126.523 43.125 126.816 42.91C127.098 42.707 127 41.172 126.711 41.258C126.379 41.359 126.25 40.59 126.363 39.18C126.433 38.262 126.418 38.145 126.203 38.078C125.926 37.992 125.703 36.645 125.926 36.387C126.148 36.125 126.074 35.687 125.809 35.687C125.508 35.687 125.281 34.559 125.523 34.277C125.762 33.997 125.695 33.562 125.41 33.562C125.098 33.562 124.957 33.016 125.074 32.27C125.141 31.855 125.117 31.738 124.964 31.738C124.707 31.738 124.422 30.555 124.621 30.32C124.832 30.074 124.789 29.918 124.511 29.918C124.215 29.918 124 29.074 124.227 28.808C124.461 28.535 124.391 28.27 124.078 28.218C123.828 28.176 123.789 28.082 123.797 27.535C123.805 27.062 123.754 26.883 123.59 26.835C123.34 26.758 123.16 25.969 123.344 25.746C123.535 25.52 123.484 25.359 123.219 25.359C122.961 25.359 122.816 25.082 122.816 24.579C122.804 24.3808 122.732 24.191 122.609 24.035C122.484 23.891 122.426 23.625 122.457 23.371C122.497 23.063 122.445 22.934 122.273 22.879C122.145 22.839 122.039 22.679 122.035 22.527C122.035 22.375 121.918 22.043 121.777 21.793C121.637 21.543 121.52 21.191 121.52 21.012C121.513 20.8199 121.44 20.636 121.313 20.492C121.183 20.367 121.129 20.132 121.16 19.863C121.195 19.586 121.156 19.438 121.047 19.438C120.805 19.438 120.605 18.934 120.747 18.672C120.832 18.508 120.789 18.43 120.574 18.367C120.394 18.317 120.27 18.148 120.242 17.914C120.219 17.707 120.117 17.484 120.016 17.418C119.914 17.352 119.832 17.128 119.832 16.926C119.832 16.719 119.777 16.551 119.703 16.551C119.633 16.551 119.395 16.109 119.176 15.571C118.961 15.027 118.73 14.551 118.672 14.504C118.609 14.461 118.59 14.301 118.625 14.144C118.668 13.949 118.605 13.836 118.418 13.777C118.234 13.723 118.148 13.574 118.148 13.301C118.148 13.086 118.074 12.906 117.988 12.902C117.734 12.891 117.254 11.902 117.332 11.551" fill="#44AC3C"/>
</svg>
