<svg width="128" height="128" viewBox="0 0 128 128" fill="none" xmlns="http://www.w3.org/2000/svg">
<path fill-rule="evenodd" clip-rule="evenodd" d="M0 64C0 115.617 12.383 128 64 128C115.617 128 128 115.617 128 64C128 12.383 115.617 0 64 0C12.383 0 0 12.383 0 64ZM25.808 77.295L45.883 31.674C49.27 23.984 55.788 19.813 64 19.813C72.212 19.813 78.729 23.983 82.118 31.673L102.192 77.295C103.104 79.511 103.886 82.379 103.886 84.855C103.886 96.195 95.935 104.146 84.594 104.146C80.732 104.146 77.664 103.161 74.559 102.163C71.377 101.141 68.156 100.106 64 100.106C59.892 100.106 56.592 101.15 53.347 102.177C50.209 103.17 47.122 104.146 43.406 104.146C32.066 104.146 24.114 96.196 24.114 84.856C24.114 82.379 24.897 79.511 25.809 77.295H25.808ZM64 39.625L44.187 84.465C50.053 81.727 56.831 80.424 64 80.424C70.909 80.424 77.947 81.727 83.552 84.464L64 39.626V39.625Z" fill="#5A45FF"/>
</svg>
