<svg width="128" height="128" viewBox="0 0 128 128" fill="none" xmlns="http://www.w3.org/2000/svg">
<path fill-rule="evenodd" clip-rule="evenodd" d="M0 63.626C0 79.454 3.797 83.252 19.626 83.252C35.454 83.252 39.252 79.454 39.252 63.626C39.252 47.797 35.454 44 19.626 44C3.797 44 0 47.797 0 63.626ZM7.914 67.703L14.07 53.713C15.11 51.355 17.108 50.076 19.626 50.076C22.144 50.076 24.142 51.355 25.182 53.713L31.337 67.703C31.617 68.383 31.857 69.262 31.857 70.021C31.857 73.499 29.419 75.937 25.941 75.937C24.757 75.937 23.816 75.635 22.864 75.329C21.888 75.015 20.9 74.698 19.626 74.698C18.366 74.698 17.354 75.018 16.359 75.333C15.397 75.637 14.45 75.937 13.31 75.937C9.833 75.937 7.395 73.499 7.395 70.021C7.395 69.261 7.635 68.382 7.915 67.703H7.914ZM19.626 56.15L13.55 69.9C15.349 69.06 17.427 68.661 19.626 68.661C21.744 68.661 23.903 69.061 25.621 69.901L19.626 56.151V56.15ZM112.178 53.603C110.815 53.603 109.831 54.568 109.831 55.913C109.831 57.256 110.815 58.221 112.178 58.221C113.54 58.221 114.525 57.256 114.525 55.912C114.525 54.568 113.54 53.603 112.178 53.603ZM69.253 73.44C65.619 73.44 62.989 70.753 62.989 66.55C62.989 62.273 65.619 59.586 69.253 59.586C70.938 59.586 72.187 60.154 72.925 61.27V54.21H76.71V73.137H72.925V71.793C72.205 72.891 70.957 73.44 69.253 73.44ZM66.85 66.55C66.85 64.204 68.118 62.67 70.048 62.67C71.998 62.67 73.247 64.185 73.247 66.532C73.247 68.841 71.997 70.336 70.048 70.336C68.118 70.336 66.85 68.841 66.85 66.551V66.55ZM82.653 66.513C82.653 64.185 83.921 62.69 85.813 62.69C87.725 62.69 88.993 64.185 88.993 66.513C88.993 68.841 87.725 70.336 85.813 70.336C83.921 70.336 82.653 68.841 82.653 66.513ZM124.366 69.522C124.366 70.222 123.836 70.639 122.492 70.639C120.978 70.639 120.032 69.844 120.032 68.879H116.247C116.341 71.49 118.821 73.439 122.417 73.439C125.823 73.439 128 71.926 128 69.239C128 67.232 126.713 65.831 124.158 65.32L121.414 64.771C120.581 64.601 120.089 64.185 120.089 63.636C120.089 62.822 120.922 62.386 121.981 62.386C123.495 62.386 124.082 63.087 124.082 63.92H127.678C127.583 61.46 125.653 59.586 122.057 59.586C118.707 59.586 116.436 61.27 116.436 63.826C116.436 66.134 117.931 67.176 120.165 67.648L122.89 68.235C123.779 68.425 124.366 68.803 124.366 69.522ZM110.304 59.889H114.089V73.137H110.304V59.888V59.889ZM98.721 59.889V61.27C99.686 60.154 100.973 59.586 102.563 59.586C105.535 59.586 107.465 61.516 107.465 64.506V73.136H103.68V65.3C103.68 63.692 102.771 62.727 101.201 62.727C99.63 62.727 98.721 63.692 98.721 65.301V73.136H94.936V59.888H98.721V59.889ZM85.814 59.586C81.782 59.586 78.792 62.5 78.792 66.513C78.792 70.525 81.782 73.44 85.814 73.44C89.864 73.44 92.854 70.525 92.854 66.513C92.854 62.5 89.864 59.586 85.814 59.586ZM54.244 62.671C52.314 62.671 51.046 64.204 51.046 66.551C51.046 68.841 52.314 70.336 54.245 70.336C56.195 70.336 57.443 68.841 57.443 66.532C57.443 64.185 56.194 62.671 54.245 62.671H54.244ZM47.185 66.551C47.185 70.753 49.816 73.44 53.431 73.44C55.153 73.44 56.383 72.89 57.121 71.793V73.137H60.907V59.888H57.122V61.269C56.365 60.153 55.115 59.585 53.431 59.585C49.816 59.585 47.185 62.272 47.185 66.55V66.551Z" fill="black"/>
</svg>
