<svg width="128" height="128" viewBox="0 0 128 128" fill="none" xmlns="http://www.w3.org/2000/svg">
<path d="M6.5 6.5H121.5V121.5H6.5V6.5Z" fill="#1F0740"/>
<path d="M0 0V128H128V0H0ZM121.5 121.5H6.5V6.5H121.5V121.5Z" fill="#D490C5"/>
<path d="M103.5 59.2C103.5 59.2 102.9 44.6 86.9999 44.6C70.9999 44.6 69.6999 66.6 69.6999 66.6V71.3C69.6999 71.3 72.4999 89.6 85.9999 89.6C99.4999 89.6 100.8 87 100.8 87V78.9C100.8 78.9 81.4999 88.1 79.5999 68.9H103.6V59.2H103.5ZM94.4999 61.6H79.4999C79.4999 61.6 79.4999 53.3 86.9999 52.4C95.1999 52.4 94.4999 61.6 94.4999 61.6ZM50.4999 29.9H38.3999V33.7L22.3999 88.6H31.7999L36.1999 72.5H52.9999L57.4999 88.6H67.7999L50.4999 29.9ZM38.1999 63.1L44.5999 38.6L50.9999 63.1H38.1999Z" fill="#D490C5"/>
</svg>
