<svg width="128" height="128" viewBox="0 0 128 128" fill="none" xmlns="http://www.w3.org/2000/svg">
<path d="M87.0002 52.4C79.5002 53.3 79.5002 61.5999 79.5002 61.5999H94.4002C94.5002 61.5999 95.2002 52.4 87.0002 52.4ZM38.2002 63.0999H51.0002L44.6002 38.7L38.2002 63.0999Z" fill="#1F0740"/>
<path d="M0 0V128H128V0H0ZM57.5 88.6L53 72.5H36.2L31.8 88.6H22.4L38.4 33.7V29.9H50.6L67.9 88.6H57.5ZM103.5 69H79.5C81.4 88.2 100.7 79 100.7 79V87C100.7 87 99.4 89.6 85.9 89.6C72.4 89.6 69.6 71.3 69.6 71.3V66.6C69.6 66.6 70.9 44.6 86.9 44.6C102.9 44.6 103.4 59.2 103.4 59.2V69H103.5Z" fill="#1F0740"/>
</svg>
