<svg width="128" height="128" viewBox="0 0 128 128" fill="none" xmlns="http://www.w3.org/2000/svg">
<path d="M38.0891 77.4662L26.6891 82.3622L37.2481 86.8762L49.4891 82.3622L38.0891 77.4662ZM20.9511 83.5862L20.5691 105.62L37.2481 112.965V90.0892L20.9511 83.5862ZM55.2271 83.5862L40.1541 89.3251V110.9L55.2271 104.779V83.5862ZM73.2061 15.0352L61.7301 19.9312L72.3651 24.4462L84.6061 19.9312L73.2061 15.0352ZM57.2921 21.5382V43.5722L71.5231 47.7042L71.9821 27.6582L57.2921 21.5382ZM89.1201 22.7622L75.6541 28.5002V50.1522L89.1201 44.0312V22.7622ZM19.3061 46.0472L7.90713 50.9442L18.4651 55.4582L30.7061 50.9442L19.3061 46.0472ZM2.16813 52.1682L1.78613 74.2022L18.4651 81.5471V58.6712L2.16813 52.1682ZM36.4431 52.1682L21.3721 57.9062V79.4802L36.4431 73.3602V52.1682ZM56.0301 45.2312L44.6301 50.1282L55.1881 54.6422L67.4291 50.1282L56.0301 45.2312ZM38.8931 51.3522L38.5101 73.3872L55.1891 80.7322V57.8552L38.8931 51.3522ZM73.1681 51.3522L58.0961 57.0902V78.6662L73.1681 72.5452V51.3522ZM109.076 15.0352L97.6771 19.9312L108.236 24.4462L120.477 19.9312L109.076 15.0352ZM91.9391 21.1562L91.5571 43.1902L108.236 50.5342V27.6582L91.9391 21.1562ZM126.214 21.1562L111.143 26.8942V48.4692L126.214 42.3492V21.1562Z" fill="#F7A80D"/>
</svg>
