<svg width="128" height="128" viewBox="0 0 128 128" fill="none" xmlns="http://www.w3.org/2000/svg">
<path d="M44.634 57.3611C42.035 57.3611 39.135 58.3621 38.527 61.6571C38.463 62.0081 38.694 62.1741 38.918 62.2241L41.581 62.5441C41.827 62.5301 41.995 62.2641 42.042 62.0111C42.27 60.8771 43.202 60.3421 44.243 60.3421C44.806 60.3421 45.436 60.5351 45.77 61.0521C46.151 61.6281 46.124 62.4111 46.124 63.0761V63.4671C44.542 63.6491 42.458 63.7591 40.977 64.4251C39.268 65.1851 38.065 66.7321 38.065 69.0051C38.065 71.9181 39.85 73.3711 42.148 73.3711C44.088 73.3711 45.161 72.9151 46.657 71.3491C47.154 72.0871 47.313 72.4221 48.219 73.1951C48.3197 73.252 48.4356 73.2758 48.5505 73.2631C48.6654 73.2503 48.7734 73.2017 48.859 73.1241V73.1591C49.404 72.6621 50.394 71.7581 50.953 71.2781C51.175 71.0911 51.127 70.7851 50.953 70.5321C50.453 69.8251 49.924 69.2561 49.924 67.9401V63.5741C49.924 61.7241 50.08 60.0181 48.752 58.7461C47.706 57.7151 45.961 57.3611 44.634 57.3611ZM80.42 57.3611C77.82 57.3611 74.9221 58.3621 74.314 61.6571C74.25 62.0081 74.48 62.1741 74.704 62.2241L77.368 62.5441C77.614 62.5301 77.7831 62.2641 77.829 62.0111C78.058 60.8771 78.99 60.3421 80.03 60.3421C80.594 60.3421 81.223 60.5351 81.556 61.0521C81.937 61.6281 81.875 62.4111 81.875 63.0761V63.4671C80.293 63.6491 78.245 63.7591 76.763 64.4251C75.052 65.1851 73.853 66.7321 73.853 69.0051C73.853 71.9181 75.638 73.3711 77.935 73.3711C79.873 73.3711 80.946 72.9151 82.444 71.3491C82.939 72.0871 83.1001 72.4221 84.007 73.1951C84.1075 73.2521 84.2233 73.2759 84.3381 73.2632C84.4528 73.2504 84.5606 73.2018 84.646 73.1241V73.1591C85.192 72.6621 86.183 71.7581 86.741 71.2781C86.963 71.0911 86.912 70.7851 86.741 70.5321C86.241 69.8251 85.711 69.2561 85.711 67.9401V63.5741C85.711 61.7241 85.831 60.0181 84.505 58.7461C83.455 57.7151 81.746 57.3611 80.42 57.3611ZM60.29 57.5031C58.61 57.5031 57.366 58.3511 56.705 60.1661H56.669V58.2841C56.6604 58.1553 56.6054 58.034 56.5142 57.9426C56.423 57.8513 56.3018 57.796 56.173 57.7871H53.616C53.4753 57.7889 53.3407 57.8457 53.2412 57.9452C53.1416 58.0448 53.0849 58.1793 53.083 58.3201V72.6981C53.0957 72.8258 53.1522 72.9452 53.243 73.0358C53.3338 73.1265 53.4533 73.1828 53.581 73.1951H56.314C56.4549 73.1938 56.5896 73.1372 56.6891 73.0375C56.7887 72.9378 56.845 72.803 56.846 72.6621V65.0291C56.846 63.3651 56.766 61.0891 58.728 61.0891C60.665 61.0891 60.396 63.4281 60.396 65.0291V72.6621C60.396 72.9331 60.618 73.1771 60.894 73.1951H63.627C63.917 73.1951 64.159 72.9521 64.159 72.6621V65.0291C64.159 64.2131 64.126 63.0231 64.407 62.2961C64.688 61.5691 65.378 61.0891 66.041 61.0891C66.83 61.0891 67.435 61.3641 67.639 62.3311C67.765 62.9061 67.71 64.4251 67.71 65.0291V72.6621C67.71 72.9331 67.932 73.1771 68.206 73.1951H70.94C71.23 73.1951 71.472 72.9521 71.472 72.6621V63.5741C71.472 62.0291 71.626 60.2761 70.762 59.0651C69.997 57.9771 68.747 57.5021 67.602 57.5021C65.997 57.5021 64.501 58.3501 63.839 60.1651C63.075 58.3511 61.997 57.5031 60.29 57.5031ZM106.762 57.5031C102.813 57.5031 100.62 60.9761 100.62 65.4561C100.62 69.9041 102.787 73.4781 106.762 73.4781C110.585 73.4781 113.011 69.9861 113.011 65.5971C113.011 61.0601 110.813 57.5031 106.762 57.5031ZM122.347 57.5031C120.46 57.5031 119.381 58.4461 118.619 60.4141H118.584V58.2131C118.535 57.9911 118.326 57.8361 118.087 57.8231H115.566C115.436 57.8202 115.309 57.8657 115.211 57.9509C115.112 58.0361 115.049 58.1549 115.033 58.2841V72.6621C115.033 72.9331 115.258 73.1771 115.53 73.1951H118.229C118.369 73.1928 118.504 73.1358 118.603 73.0363C118.702 72.9368 118.758 72.8026 118.76 72.6621V64.9231C118.76 63.9531 118.843 63.0681 119.223 62.1901C119.529 61.4931 120.122 61.0531 120.785 61.0531C122.668 61.0531 122.488 63.3481 122.488 64.9231V72.7341C122.506 72.8561 122.566 72.9683 122.656 73.0522C122.747 73.1361 122.863 73.1869 122.986 73.1961H125.719C125.849 73.1962 125.974 73.1495 126.071 73.0646C126.169 72.9797 126.233 72.8623 126.251 72.7341V63.6811C126.251 62.2891 126.254 60.3571 125.541 59.2071C124.777 57.9661 123.566 57.5031 122.347 57.5031ZM89.544 57.7521C89.266 57.7521 89.047 57.9721 89.046 58.2841V60.3431C89.047 60.6531 89.259 60.8741 89.544 60.8761H94.23L88.869 68.7921C88.5431 69.3031 88.515 69.8811 88.515 70.2131V72.3081C88.515 72.6101 88.843 72.9381 89.154 72.7691C92.21 71.1011 95.871 71.2491 98.633 72.7341C98.969 72.9171 99.308 72.5741 99.308 72.2721V70.0701C99.3002 69.908 99.2503 69.7507 99.1631 69.6137C99.076 69.4768 98.9546 69.3649 98.811 69.2891C97.243 68.3881 95.423 68.1111 93.7 68.1531L98.35 61.3381C98.78 60.7251 99.0201 60.3571 99.024 60.0591V58.2851C99.024 57.9791 98.815 57.7531 98.528 57.7531H89.544V57.7521ZM106.762 60.4501C107.627 60.4501 108.266 60.8361 108.573 61.8341C108.927 62.9861 108.964 64.4221 108.964 65.6331C108.964 67.4791 108.878 70.5321 106.763 70.5321C104.624 70.5321 104.633 66.7521 104.633 64.9941C104.632 63.2411 104.75 60.4501 106.762 60.4501ZM46.089 65.7041V66.3081C46.089 67.4001 46.129 68.3181 45.592 69.2891C45.158 70.0791 44.476 70.5681 43.711 70.5681C42.666 70.5681 42.043 69.7191 42.043 68.5081C42.042 66.1211 44.117 65.7041 46.089 65.7041ZM81.875 65.7041V66.3081C81.875 67.4001 81.915 68.3181 81.379 69.2891C80.944 70.0791 80.267 70.5681 79.497 70.5681C78.4501 70.5681 77.828 69.7191 77.828 68.5081C77.828 66.1211 79.901 65.7041 81.875 65.7041ZM99.59 73.6561V75.7161H100.976V73.6561H99.59ZM59.438 74.0121V88.6741H60.716V87.3601C60.988 87.8811 61.298 88.2701 61.674 88.5311C62.05 88.7931 62.48 88.9221 62.951 88.9221C63.89 88.9221 64.701 88.4431 65.401 87.4671C66.102 86.4901 66.466 85.0751 66.466 83.2781C66.466 82.1001 66.315 81.1241 66.004 80.2971C65.693 79.4711 65.279 78.8561 64.762 78.4501C64.243 78.0441 63.655 77.8111 63.023 77.8111C62.571 77.8111 62.149 77.9291 61.779 78.1651C61.411 78.4011 61.113 78.7871 60.821 79.2661V74.0121H59.438ZM72.573 77.4551C71.611 77.4551 70.845 77.7401 70.302 78.3071C69.759 78.8741 69.487 79.6031 69.487 80.5091C69.487 81.0341 69.602 81.4811 69.805 81.8931C70.007 82.3061 70.295 82.6411 70.657 82.8871C71.021 83.1331 71.747 83.4571 72.823 83.8101C73.568 84.0501 74.013 84.2541 74.208 84.4141C74.489 84.6471 74.635 84.9521 74.635 85.3731C74.635 85.8591 74.465 86.2651 74.137 86.5801C73.809 86.8971 73.351 87.0411 72.752 87.0411C72.152 87.0411 71.658 86.8731 71.297 86.5091C70.935 86.1451 70.74 85.5911 70.657 84.8411L69.273 85.1241C69.5861 87.4021 70.722 88.5341 72.681 88.5321C73.726 88.5321 74.525 88.2371 75.13 87.6091C75.734 86.9811 76.054 86.1381 76.054 85.1241C76.054 84.5761 75.956 84.1021 75.77 83.7051C75.5986 83.3315 75.3282 83.0119 74.988 82.7811C74.652 82.5521 73.899 82.2451 72.752 81.8581C71.918 81.5661 71.431 81.3521 71.262 81.2181C70.9781 80.9941 70.835 80.6881 70.835 80.2961C70.835 79.8961 70.968 79.5571 71.262 79.3011C71.556 79.0461 72.009 78.9111 72.611 78.9111C73.669 78.9111 74.261 79.4921 74.385 80.6501L75.735 80.4371C75.641 79.7051 75.482 79.1251 75.239 78.7321C74.9781 78.3216 74.6098 77.9903 74.174 77.7741C73.7091 77.5421 73.182 77.4551 72.573 77.4551ZM81.059 77.4551C79.95 77.4551 79.013 77.9121 78.289 78.8751C77.566 79.8381 77.226 81.2331 77.226 83.0641C77.226 84.8281 77.5741 86.2101 78.289 87.1471C79.007 88.0811 79.935 88.5311 81.095 88.5311C82.016 88.5311 82.78 88.2551 83.402 87.6791C84.026 87.1041 84.479 86.2561 84.715 85.1221L83.295 84.8741C82.888 86.3251 82.135 87.0371 81.095 87.0391C80.431 87.0391 79.889 86.7581 79.426 86.1521C78.9621 85.5451 78.7001 84.6451 78.646 83.4541H84.751V82.9571C84.751 81.1651 84.394 79.8201 83.686 78.8741C82.977 77.9291 82.117 77.4551 81.059 77.4551ZM89.473 77.4551C89.142 77.4551 88.852 77.5671 88.585 77.8101C88.318 78.0521 88.018 78.5541 87.697 79.3001V77.6671H86.454V88.2821H87.839V82.7441C87.839 81.9721 87.913 81.2281 88.088 80.5431C88.188 80.1491 88.3771 79.8401 88.62 79.6201C88.8641 79.3991 89.143 79.3001 89.436 79.3001C89.762 79.3001 90.086 79.4311 90.43 79.6911L90.892 78.0231C90.41 77.6371 89.937 77.4551 89.473 77.4551ZM106.442 77.4551C105.346 77.4551 104.443 77.9171 103.743 78.8401C103.047 79.7631 102.68 81.1491 102.68 82.9931C102.68 84.8241 103.052 86.2111 103.743 87.1471C104.436 88.0811 105.302 88.5311 106.371 88.5311C107.255 88.5311 108.013 88.2031 108.643 87.5371C109.273 86.8721 109.657 85.8911 109.815 84.6261L108.465 84.4131C108.364 85.3181 108.129 85.9701 107.755 86.4011C107.382 86.8311 106.932 87.0401 106.406 87.0401C105.736 87.0401 105.165 86.7271 104.736 86.0821C104.309 85.4361 104.098 84.4021 104.098 82.9581C104.098 81.5581 104.325 80.5481 104.772 79.9051C105.22 79.2611 105.793 78.9111 106.476 78.9111C106.933 78.9111 107.323 79.0881 107.648 79.4421C107.975 79.7981 108.191 80.3601 108.322 81.0761L109.673 80.7931C109.511 79.6741 109.152 78.8311 108.571 78.2721C107.991 77.7121 107.287 77.4551 106.442 77.4551ZM114.359 77.4551C113.249 77.4551 112.313 77.9121 111.589 78.8751C110.866 79.8381 110.524 81.2331 110.524 83.0641C110.524 84.8281 110.873 86.2101 111.589 87.1471C112.308 88.0811 113.235 88.5311 114.394 88.5311C115.312 88.5311 116.079 88.2551 116.702 87.6791C117.324 87.1041 117.777 86.2561 118.016 85.1221L116.596 84.8741C116.186 86.3251 115.468 87.0371 114.43 87.0391C113.766 87.0391 113.189 86.7581 112.726 86.1521C112.263 85.5451 112.001 84.6451 111.945 83.4541H118.051V82.9571C118.051 81.1651 117.694 79.8201 116.986 78.8741C116.28 77.9291 115.418 77.4551 114.359 77.4551ZM122.561 77.4551C121.595 77.4551 120.832 77.7401 120.289 78.3071C119.744 78.8731 119.472 79.6031 119.472 80.5091C119.472 81.0341 119.554 81.4811 119.756 81.8931C119.956 82.3061 120.245 82.6411 120.609 82.8871C120.97 83.1331 121.699 83.4571 122.775 83.8101C123.518 84.0501 124.001 84.2541 124.195 84.4141C124.476 84.6471 124.621 84.9521 124.621 85.3731C124.621 85.8591 124.453 86.2651 124.124 86.5801C123.798 86.8971 123.339 87.0411 122.74 87.0411C122.138 87.0411 121.646 86.8731 121.284 86.5091C120.923 86.1451 120.689 85.5911 120.609 84.8411L119.225 85.1241C119.538 87.4021 120.671 88.5341 122.632 88.5321C123.679 88.5321 124.513 88.2371 125.117 87.6091C125.721 86.9811 126.039 86.1381 126.039 85.1241C126.039 84.5761 125.943 84.1021 125.757 83.7051C125.573 83.3291 125.291 83.0098 124.94 82.7811C124.604 82.5521 123.886 82.2451 122.74 81.8581C121.905 81.5661 121.383 81.3521 121.213 81.2181C120.93 80.9941 120.787 80.6881 120.787 80.2961C120.787 79.8961 120.954 79.5571 121.249 79.3011C121.543 79.0461 121.999 78.9111 122.599 78.9111C123.657 78.9111 124.248 79.4921 124.373 80.6501L125.722 80.4371C125.628 79.7051 125.47 79.1251 125.225 78.7321C124.965 78.3216 124.597 77.9903 124.161 77.7741C123.698 77.5421 123.167 77.4551 122.561 77.4551ZM90.893 77.6681L93.983 88.2831H95.296L98.385 77.6681H96.965L95.154 84.1651C94.935 84.9501 94.7411 85.6291 94.621 86.1881C94.471 85.4831 94.325 84.7421 94.125 84.0221L92.35 77.6681H90.893ZM99.59 77.6681V88.2831H100.976V77.6681H99.59ZM54.077 77.8111C52.979 77.8111 52.096 78.3031 51.38 79.2661C50.663 80.2291 50.278 81.6241 50.278 83.4551C50.278 85.2201 50.633 86.5681 51.343 87.5021C52.052 88.4371 53 88.9221 54.149 88.9221C55.06 88.9221 55.804 88.6101 56.42 88.0341C57.036 87.4591 57.462 86.6111 57.699 85.4781L56.314 85.2651C55.91 86.7161 55.178 87.4281 54.149 87.4301C53.49 87.4301 52.939 87.1491 52.48 86.5421C52.02 85.9361 51.753 85.0361 51.699 83.8451H57.734L57.77 83.3481C57.77 81.5561 57.406 80.1761 56.705 79.2291C56.004 78.2841 55.124 77.8111 54.077 77.8111ZM38.493 78.0591L40.978 88.6741H42.433L44.067 80.5091L44.351 82.3191L45.664 88.6741H47.084L49.605 78.0591H48.292L46.906 84.2001L46.444 86.2601L46.018 84.2001L44.811 78.0581H43.391L42.113 84.2711L41.687 86.4721L41.191 84.2001L39.912 78.0581H38.493V78.0591ZM81.023 78.9111C81.7131 78.9111 82.281 79.2441 82.727 79.9051C83.033 80.3571 83.233 81.0451 83.294 81.9641H78.714C78.758 81.0321 79.021 80.3141 79.461 79.7631C79.901 79.2131 80.404 78.9111 81.023 78.9111ZM114.323 78.9111C115.011 78.9111 115.581 79.2441 116.027 79.9051C116.335 80.3571 116.533 81.0451 116.596 81.9641H112.015C112.059 81.0321 112.323 80.3141 112.761 79.7631C113.198 79.2131 113.704 78.9111 114.323 78.9111ZM54.077 79.3011C54.759 79.3011 55.307 79.6351 55.747 80.2961C56.051 80.7481 56.252 81.4361 56.314 82.3551H51.804C51.847 81.4231 52.079 80.6681 52.515 80.1191C52.949 79.5671 53.463 79.3011 54.077 79.3011ZM62.882 79.3011C63.497 79.3011 64.022 79.6431 64.445 80.2961C64.868 80.9481 65.049 81.9551 65.049 83.3491C65.049 84.7061 64.849 85.7191 64.409 86.4021C63.97 87.0861 63.449 87.4311 62.883 87.4311C62.467 87.4311 62.089 87.2911 61.747 87.0051C61.403 86.7191 61.152 86.3091 60.965 85.7631C60.779 85.2171 60.682 84.3761 60.682 83.2781C60.682 81.9841 60.913 81.0151 61.356 80.3311C61.799 79.6471 62.316 79.3011 62.882 79.3011ZM18.594 68.0481L13.304 70.3191L18.203 72.4141L23.884 70.3191L18.594 68.0481ZM10.642 70.8871L10.464 81.1131L18.204 84.5211V73.9051L10.642 70.8871ZM26.546 70.8871L19.552 73.5501V83.5621L26.546 80.7221V70.8871ZM34.889 39.0781L29.563 41.3491L34.498 43.4441L40.179 41.3491L34.889 39.0781ZM27.504 42.0961V52.3201L34.108 54.2371L34.321 44.9351L27.504 42.0961ZM42.273 42.6631L36.024 45.3261V55.3731L42.273 52.5331V42.6631ZM9.87705 53.4681L4.58705 55.7401L9.48605 57.8351L15.166 55.7401L9.87705 53.4681ZM1.92605 56.3091L1.74805 66.5331L9.48705 69.9411V59.3261L1.92605 56.3091ZM17.83 56.3091L10.836 58.9711V68.9831L17.83 66.1431V56.3091ZM26.918 53.0911L21.628 55.3621L26.527 57.4561L32.207 55.3621L26.918 53.0911ZM18.966 55.9301L18.789 66.1551L26.528 69.5631V58.9481L18.966 55.9301ZM34.871 55.9301L27.877 58.5931V68.6051L34.871 65.7641V55.9301ZM51.533 39.0781L46.244 41.3491L51.143 43.4441L56.824 41.3491L51.533 39.0781ZM43.581 41.9181L43.403 52.1431L51.143 55.5501V44.9361L43.581 41.9181ZM59.485 41.9181L52.491 44.5811V54.5921L59.485 51.7521V41.9181Z" fill="#F7A80D"/>
</svg>
