<svg width="128" height="128" viewBox="0 0 128 128" fill="none" xmlns="http://www.w3.org/2000/svg">
<path d="M44.6339 57.3613C42.0349 57.3613 39.1349 58.3623 38.5269 61.6573C38.4629 62.0083 38.6939 62.1743 38.9179 62.2243L41.5809 62.5443C41.8269 62.5303 41.9949 62.2643 42.0419 62.0113C42.2699 60.8773 43.2019 60.3423 44.2429 60.3423C44.8059 60.3423 45.4359 60.5353 45.7699 61.0523C46.1509 61.6283 46.1239 62.4113 46.1239 63.0763V63.4673C44.5419 63.6493 42.4579 63.7593 40.9769 64.4253C39.2679 65.1853 38.0649 66.7323 38.0649 69.0053C38.0649 71.9183 39.8499 73.3713 42.1479 73.3713C44.0879 73.3713 45.1609 72.9153 46.6569 71.3493C47.1539 72.0873 47.3129 72.4223 48.2189 73.1953C48.3196 73.2522 48.4355 73.276 48.5504 73.2633C48.6653 73.2505 48.7733 73.2019 48.8589 73.1243V73.1593C49.4039 72.6623 50.3939 71.7583 50.9529 71.2783C51.1749 71.0913 51.1269 70.7853 50.9529 70.5323C50.4529 69.8253 49.9239 69.2563 49.9239 67.9403V63.5743C49.9239 61.7243 50.0799 60.0183 48.7519 58.7463C47.7059 57.7153 45.9609 57.3613 44.6339 57.3613ZM80.4199 57.3613C77.8199 57.3613 74.9219 58.3623 74.3139 61.6573C74.2499 62.0083 74.4799 62.1743 74.7039 62.2243L77.3679 62.5443C77.6139 62.5303 77.7829 62.2643 77.8289 62.0113C78.0579 60.8773 78.9899 60.3423 80.0299 60.3423C80.5939 60.3423 81.2229 60.5353 81.5559 61.0523C81.9369 61.6283 81.8749 62.4113 81.8749 63.0763V63.4673C80.2929 63.6493 78.2449 63.7593 76.7629 64.4253C75.0519 65.1853 73.8529 66.7323 73.8529 69.0053C73.8529 71.9183 75.6379 73.3713 77.9349 73.3713C79.8729 73.3713 80.9459 72.9153 82.4439 71.3493C82.9389 72.0873 83.0999 72.4223 84.0069 73.1953C84.1074 73.2523 84.2232 73.2761 84.3379 73.2634C84.4527 73.2506 84.5605 73.202 84.6459 73.1243V73.1593C85.1919 72.6623 86.1829 71.7583 86.7409 71.2783C86.9629 71.0913 86.9119 70.7853 86.7409 70.5323C86.2409 69.8253 85.7109 69.2563 85.7109 67.9403V63.5743C85.7109 61.7243 85.8309 60.0183 84.5049 58.7463C83.4549 57.7153 81.7459 57.3613 80.4199 57.3613ZM60.2899 57.5033C58.6099 57.5033 57.3659 58.3513 56.7049 60.1663H56.6689V58.2843C56.6603 58.1555 56.6053 58.0342 56.5141 57.9428C56.4229 57.8515 56.3017 57.7962 56.1729 57.7873H53.6159C53.4751 57.7891 53.3406 57.8459 53.2411 57.9454C53.1415 58.045 53.0848 58.1795 53.0829 58.3203V72.6983C53.0955 72.826 53.1521 72.9454 53.2429 73.036C53.3337 73.1267 53.4532 73.183 53.5809 73.1953H56.3139C56.4548 73.194 56.5895 73.1374 56.689 73.0377C56.7885 72.938 56.8449 72.8032 56.8459 72.6623V65.0293C56.8459 63.3653 56.7659 61.0893 58.7279 61.0893C60.6649 61.0893 60.3959 63.4283 60.3959 65.0293V72.6623C60.3959 72.9333 60.6179 73.1773 60.8939 73.1953H63.6269C63.9169 73.1953 64.1589 72.9523 64.1589 72.6623V65.0293C64.1589 64.2133 64.1259 63.0233 64.4069 62.2963C64.6879 61.5693 65.3779 61.0893 66.0409 61.0893C66.8299 61.0893 67.4349 61.3643 67.6389 62.3313C67.7649 62.9063 67.7099 64.4253 67.7099 65.0293V72.6623C67.7099 72.9333 67.9319 73.1773 68.2059 73.1953H70.9399C71.2299 73.1953 71.4719 72.9523 71.4719 72.6623V63.5743C71.4719 62.0293 71.6259 60.2763 70.7619 59.0653C69.9969 57.9773 68.7469 57.5023 67.6019 57.5023C65.9969 57.5023 64.5009 58.3503 63.8389 60.1653C63.0749 58.3513 61.9969 57.5033 60.2899 57.5033ZM106.762 57.5033C102.813 57.5033 100.62 60.9763 100.62 65.4563C100.62 69.9043 102.787 73.4783 106.762 73.4783C110.585 73.4783 113.011 69.9863 113.011 65.5973C113.011 61.0603 110.813 57.5033 106.762 57.5033ZM122.347 57.5033C120.46 57.5033 119.381 58.4463 118.619 60.4143H118.584V58.2133C118.535 57.9913 118.326 57.8363 118.087 57.8233H115.566C115.436 57.8204 115.309 57.8659 115.211 57.9511C115.112 58.0363 115.049 58.1551 115.033 58.2843V72.6623C115.033 72.9333 115.258 73.1773 115.53 73.1953H118.229C118.369 73.193 118.503 73.136 118.603 73.0365C118.702 72.937 118.758 72.8028 118.76 72.6623V64.9233C118.76 63.9533 118.843 63.0683 119.223 62.1903C119.529 61.4933 120.122 61.0533 120.785 61.0533C122.668 61.0533 122.488 63.3483 122.488 64.9233V72.7343C122.506 72.8563 122.566 72.9685 122.656 73.0524C122.747 73.1363 122.863 73.1871 122.986 73.1963H125.719C125.848 73.1964 125.974 73.1497 126.071 73.0648C126.169 72.9799 126.233 72.8625 126.251 72.7343V63.6813C126.251 62.2893 126.254 60.3573 125.541 59.2073C124.777 57.9663 123.566 57.5033 122.347 57.5033ZM89.5439 57.7523C89.2659 57.7523 89.0469 57.9723 89.0459 58.2843V60.3433C89.0469 60.6533 89.2589 60.8743 89.5439 60.8763H94.2299L88.8689 68.7923C88.5429 69.3033 88.5149 69.8813 88.5149 70.2133V72.3083C88.5149 72.6103 88.8429 72.9383 89.1539 72.7693C92.2099 71.1013 95.8709 71.2493 98.6329 72.7343C98.9689 72.9173 99.3079 72.5743 99.3079 72.2723V70.0703C99.3001 69.9082 99.2502 69.7509 99.163 69.6139C99.0759 69.477 98.9545 69.3651 98.8109 69.2893C97.2429 68.3883 95.4229 68.1113 93.6999 68.1533L98.3499 61.3383C98.7799 60.7253 99.0199 60.3573 99.0239 60.0593V58.2853C99.0239 57.9793 98.8149 57.7533 98.5279 57.7533H89.5439V57.7523ZM106.762 60.4503C107.627 60.4503 108.266 60.8363 108.573 61.8343C108.927 62.9863 108.964 64.4223 108.964 65.6333C108.964 67.4793 108.878 70.5323 106.763 70.5323C104.624 70.5323 104.633 66.7523 104.633 64.9943C104.632 63.2413 104.75 60.4503 106.762 60.4503ZM46.0889 65.7043V66.3083C46.0889 67.4003 46.1289 68.3183 45.5919 69.2893C45.1579 70.0793 44.4759 70.5683 43.7109 70.5683C42.6659 70.5683 42.0429 69.7193 42.0429 68.5083C42.0419 66.1213 44.1169 65.7043 46.0889 65.7043ZM81.8749 65.7043V66.3083C81.8749 67.4003 81.9149 68.3183 81.3789 69.2893C80.9439 70.0793 80.2669 70.5683 79.4969 70.5683C78.4499 70.5683 77.8279 69.7193 77.8279 68.5083C77.8279 66.1213 79.9009 65.7043 81.8749 65.7043Z" fill="#201C1D"/>
<path d="M99.5902 73.6562V75.7163H100.976V73.6562H99.5902ZM59.4382 74.0123V88.6743H60.7162V87.3603C60.9882 87.8813 61.2982 88.2703 61.6742 88.5312C62.0502 88.7933 62.4802 88.9222 62.9512 88.9222C63.8902 88.9222 64.7012 88.4433 65.4012 87.4673C66.1022 86.4903 66.4662 85.0753 66.4662 83.2783C66.4662 82.1003 66.3152 81.1242 66.0042 80.2972C65.6932 79.4712 65.2792 78.8562 64.7622 78.4502C64.2432 78.0442 63.6552 77.8112 63.0232 77.8112C62.5712 77.8112 62.1492 77.9293 61.7792 78.1653C61.4112 78.4013 61.1132 78.7873 60.8212 79.2663V74.0123H59.4382ZM72.5732 77.4553C71.6112 77.4553 70.8452 77.7403 70.3022 78.3073C69.7592 78.8743 69.4872 79.6033 69.4872 80.5093C69.4872 81.0343 69.6022 81.4812 69.8052 81.8932C70.0072 82.3062 70.2952 82.6413 70.6572 82.8873C71.0212 83.1333 71.7472 83.4572 72.8232 83.8102C73.5682 84.0502 74.0132 84.2543 74.2082 84.4143C74.4892 84.6473 74.6352 84.9523 74.6352 85.3733C74.6352 85.8593 74.4652 86.2653 74.1372 86.5803C73.8092 86.8973 73.3512 87.0413 72.7522 87.0413C72.1522 87.0413 71.6582 86.8733 71.2972 86.5093C70.9352 86.1453 70.7402 85.5913 70.6572 84.8413L69.2732 85.1243C69.5862 87.4023 70.7222 88.5342 72.6812 88.5322C73.7262 88.5322 74.5252 88.2373 75.1302 87.6093C75.7342 86.9813 76.0542 86.1383 76.0542 85.1243C76.0542 84.5763 75.9562 84.1023 75.7702 83.7053C75.5988 83.3316 75.3283 83.0121 74.9882 82.7812C74.6522 82.5522 73.8992 82.2453 72.7522 81.8583C71.9182 81.5663 71.4312 81.3523 71.2622 81.2183C70.9782 80.9943 70.8352 80.6882 70.8352 80.2962C70.8352 79.8962 70.9682 79.5573 71.2622 79.3013C71.5562 79.0463 72.0092 78.9113 72.6112 78.9113C73.6692 78.9113 74.2612 79.4923 74.3852 80.6503L75.7352 80.4372C75.6412 79.7052 75.4822 79.1253 75.2392 78.7323C74.9782 78.3217 74.6099 77.9904 74.1742 77.7743C73.7092 77.5423 73.1822 77.4553 72.5732 77.4553ZM81.0592 77.4553C79.9502 77.4553 79.0132 77.9123 78.2892 78.8753C77.5662 79.8383 77.2262 81.2333 77.2262 83.0643C77.2262 84.8283 77.5742 86.2103 78.2892 87.1473C79.0072 88.0813 79.9352 88.5312 81.0952 88.5312C82.0162 88.5312 82.7802 88.2553 83.4022 87.6793C84.0262 87.1043 84.4792 86.2563 84.7152 85.1223L83.2952 84.8743C82.8882 86.3253 82.1352 87.0373 81.0952 87.0393C80.4312 87.0393 79.8892 86.7583 79.4262 86.1523C78.9622 85.5453 78.7002 84.6453 78.6462 83.4543H84.7512V82.9573C84.7512 81.1653 84.3942 79.8203 83.6862 78.8743C82.9772 77.9293 82.1172 77.4553 81.0592 77.4553ZM89.4732 77.4553C89.1422 77.4553 88.8522 77.5672 88.5852 77.8102C88.3182 78.0522 88.0182 78.5543 87.6972 79.3003V77.6673H86.4542V88.2822H87.8392V82.7443C87.8392 81.9723 87.9132 81.2283 88.0882 80.5433C88.1882 80.1493 88.3772 79.8403 88.6202 79.6203C88.8642 79.3993 89.1432 79.3003 89.4362 79.3003C89.7622 79.3003 90.0862 79.4313 90.4302 79.6913L90.8922 78.0233C90.4102 77.6373 89.9372 77.4553 89.4732 77.4553ZM106.442 77.4553C105.346 77.4553 104.443 77.9172 103.743 78.8402C103.047 79.7632 102.68 81.1492 102.68 82.9932C102.68 84.8242 103.052 86.2113 103.743 87.1473C104.436 88.0813 105.302 88.5312 106.371 88.5312C107.255 88.5312 108.013 88.2033 108.643 87.5373C109.273 86.8723 109.657 85.8913 109.815 84.6263L108.465 84.4133C108.364 85.3183 108.129 85.9703 107.755 86.4013C107.382 86.8313 106.932 87.0403 106.406 87.0403C105.736 87.0403 105.165 86.7273 104.736 86.0823C104.309 85.4363 104.098 84.4023 104.098 82.9583C104.098 81.5583 104.325 80.5483 104.772 79.9053C105.22 79.2613 105.793 78.9113 106.476 78.9113C106.933 78.9113 107.323 79.0883 107.648 79.4423C107.975 79.7983 108.191 80.3602 108.322 81.0762L109.673 80.7933C109.511 79.6743 109.152 78.8313 108.571 78.2723C107.991 77.7123 107.287 77.4553 106.442 77.4553ZM114.359 77.4553C113.249 77.4553 112.313 77.9123 111.589 78.8753C110.866 79.8383 110.524 81.2333 110.524 83.0643C110.524 84.8283 110.873 86.2103 111.589 87.1473C112.308 88.0813 113.235 88.5312 114.394 88.5312C115.312 88.5312 116.079 88.2553 116.702 87.6793C117.324 87.1043 117.777 86.2563 118.016 85.1223L116.596 84.8743C116.186 86.3253 115.468 87.0373 114.43 87.0393C113.766 87.0393 113.189 86.7583 112.726 86.1523C112.263 85.5453 112.001 84.6453 111.945 83.4543H118.051V82.9573C118.051 81.1653 117.694 79.8203 116.986 78.8743C116.28 77.9293 115.418 77.4553 114.359 77.4553ZM122.561 77.4553C121.595 77.4553 120.832 77.7403 120.289 78.3073C119.744 78.8733 119.472 79.6033 119.472 80.5093C119.472 81.0343 119.554 81.4812 119.756 81.8932C119.956 82.3062 120.245 82.6413 120.609 82.8873C120.97 83.1333 121.699 83.4572 122.775 83.8102C123.518 84.0502 124.001 84.2543 124.195 84.4143C124.476 84.6473 124.621 84.9523 124.621 85.3733C124.621 85.8593 124.453 86.2653 124.124 86.5803C123.798 86.8973 123.339 87.0413 122.74 87.0413C122.138 87.0413 121.646 86.8733 121.284 86.5093C120.923 86.1453 120.689 85.5913 120.609 84.8413L119.225 85.1243C119.538 87.4023 120.671 88.5342 122.632 88.5322C123.679 88.5322 124.513 88.2373 125.117 87.6093C125.721 86.9813 126.039 86.1383 126.039 85.1243C126.039 84.5763 125.943 84.1023 125.757 83.7053C125.573 83.3292 125.291 83.01 124.94 82.7812C124.604 82.5522 123.886 82.2453 122.74 81.8583C121.905 81.5663 121.383 81.3523 121.213 81.2183C120.93 80.9943 120.787 80.6882 120.787 80.2962C120.787 79.8962 120.954 79.5573 121.249 79.3013C121.543 79.0463 121.999 78.9113 122.599 78.9113C123.657 78.9113 124.248 79.4923 124.373 80.6503L125.722 80.4372C125.628 79.7052 125.47 79.1253 125.225 78.7323C124.965 78.3217 124.597 77.9904 124.161 77.7743C123.698 77.5423 123.167 77.4553 122.561 77.4553ZM90.8932 77.6683L93.9832 88.2832H95.2962L98.3852 77.6683H96.9652L95.1542 84.1653C94.9352 84.9503 94.7412 85.6293 94.6212 86.1883C94.4712 85.4833 94.3252 84.7423 94.1252 84.0223L92.3502 77.6683H90.8932ZM99.5902 77.6683V88.2832H100.976V77.6683H99.5902ZM54.0772 77.8112C52.9792 77.8112 52.0962 78.3033 51.3802 79.2663C50.6632 80.2293 50.2782 81.6243 50.2782 83.4553C50.2782 85.2203 50.6332 86.5683 51.3432 87.5023C52.0522 88.4373 53.0002 88.9222 54.1492 88.9222C55.0602 88.9222 55.8042 88.6102 56.4202 88.0342C57.0362 87.4592 57.4622 86.6112 57.6992 85.4782L56.3142 85.2653C55.9102 86.7163 55.1782 87.4283 54.1492 87.4303C53.4902 87.4303 52.9392 87.1493 52.4802 86.5423C52.0202 85.9363 51.7532 85.0363 51.6992 83.8453H57.7342L57.7702 83.3483C57.7702 81.5563 57.4062 80.1762 56.7052 79.2292C56.0042 78.2842 55.1242 77.8112 54.0772 77.8112ZM38.4932 78.0592L40.9782 88.6743H42.4332L44.0672 80.5093L44.3512 82.3193L45.6642 88.6743H47.0842L49.6052 78.0592H48.2922L46.9062 84.2002L46.4442 86.2603L46.0182 84.2002L44.8112 78.0583H43.3912L42.1132 84.2713L41.6872 86.4723L41.1912 84.2002L39.9122 78.0583H38.4932V78.0592ZM81.0232 78.9113C81.7132 78.9113 82.2812 79.2443 82.7272 79.9053C83.0332 80.3573 83.2332 81.0452 83.2942 81.9642H78.7142C78.7582 81.0322 79.0212 80.3143 79.4612 79.7633C79.9012 79.2133 80.4042 78.9113 81.0232 78.9113ZM114.323 78.9113C115.011 78.9113 115.581 79.2443 116.027 79.9053C116.335 80.3573 116.533 81.0452 116.596 81.9642H112.015C112.059 81.0322 112.323 80.3143 112.761 79.7633C113.198 79.2133 113.704 78.9113 114.323 78.9113ZM54.0772 79.3013C54.7592 79.3013 55.3072 79.6352 55.7472 80.2962C56.0512 80.7482 56.2522 81.4363 56.3142 82.3553H51.8042C51.8472 81.4233 52.0792 80.6683 52.5152 80.1193C52.9492 79.5673 53.4632 79.3013 54.0772 79.3013ZM62.8822 79.3013C63.4972 79.3013 64.0222 79.6432 64.4452 80.2962C64.8682 80.9482 65.0492 81.9553 65.0492 83.3493C65.0492 84.7063 64.8492 85.7193 64.4092 86.4023C63.9702 87.0863 63.4492 87.4313 62.8832 87.4313C62.4672 87.4313 62.0892 87.2912 61.7472 87.0052C61.4032 86.7192 61.1522 86.3093 60.9652 85.7633C60.7792 85.2173 60.6822 84.3763 60.6822 83.2783C60.6822 81.9843 60.9132 81.0153 61.3562 80.3313C61.7992 79.6473 62.3162 79.3013 62.8822 79.3013Z" fill="black"/>
<path d="M18.594 68.0481L13.304 70.3191L18.203 72.4141L23.884 70.3191L18.594 68.0481ZM10.642 70.8871L10.464 81.1131L18.204 84.5211V73.9051L10.642 70.8871ZM26.546 70.8871L19.552 73.5501V83.5621L26.546 80.7221V70.8871ZM34.889 39.0781L29.563 41.3491L34.498 43.4441L40.179 41.3491L34.889 39.0781ZM27.504 42.0961V52.3201L34.108 54.2371L34.321 44.9351L27.504 42.0961ZM42.273 42.6631L36.024 45.3261V55.3731L42.273 52.5331V42.6631ZM9.87705 53.4681L4.58705 55.7401L9.48605 57.8351L15.166 55.7401L9.87705 53.4681ZM1.92605 56.3091L1.74805 66.5331L9.48705 69.9411V59.3261L1.92605 56.3091ZM17.83 56.3091L10.836 58.9711V68.9831L17.83 66.1431V56.3091ZM26.918 53.0911L21.628 55.3621L26.527 57.4561L32.207 55.3621L26.918 53.0911ZM18.966 55.9301L18.789 66.1551L26.528 69.5631V58.9481L18.966 55.9301ZM34.871 55.9301L27.877 58.5931V68.6051L34.871 65.7641V55.9301ZM51.533 39.0781L46.244 41.3491L51.143 43.4441L56.824 41.3491L51.533 39.0781ZM43.581 41.9181L43.403 52.1431L51.143 55.5501V44.9361L43.581 41.9181ZM59.485 41.9181L52.491 44.5811V54.5921L59.485 51.7521V41.9181Z" fill="#F7A80D"/>
</svg>
