<svg width="128" height="128" viewBox="0 0 128 128" fill="none" xmlns="http://www.w3.org/2000/svg">
<path d="M59.3002 127.602C48.0942 126.527 38.0472 123.199 30.0122 117.902L28.3242 116.789L27.9182 113.656C27.4682 110.168 26.9962 104.621 27.0002 102.796V101.606L32.2422 101.563C35.1252 101.539 38.3592 101.43 39.4302 101.313C41.1292 101.133 41.4652 101.164 42.0822 101.551C47.7972 105.137 56.5272 107.516 63.9532 107.508C75.8522 107.5 86.3672 103.113 94.8552 94.6182C98.6092 90.8592 100.672 88.0352 102.925 83.5582C109.113 71.2852 109.246 57.2422 103.297 44.9572C97.4072 32.7972 85.9222 23.8632 72.7972 21.2382C69.4142 20.5582 64.7542 20.1992 61.9692 20.3982L59.6992 20.5632L60.2732 19.7502C60.5932 19.3052 62.6992 17.0502 64.9572 14.7422L69.0632 10.5472L67.3752 8.9772C64.9882 6.7502 61.6912 4.0002 59.2192 2.1682L57.1022 0.602197L57.8982 0.414197C59.4732 0.043197 68.6642 0.156197 71.9532 0.586197C98.9772 4.1172 120.547 23.7462 126.403 50.1412C128.32 58.7702 128.359 68.3282 126.52 77.2582C124.195 88.5282 118.285 99.6412 110.078 108.168C99.4366 119.218 85.1807 126.078 69.9062 127.5C67.3592 127.738 61.3122 127.793 59.3012 127.602H59.3002ZM19.3132 109.258C15.6912 105.641 10.7972 99.7662 11.1292 99.4342C11.1912 99.3712 12.5592 99.5902 14.1642 99.9142C16.6022 100.41 22.0862 101.242 22.9142 101.242C23.0392 101.242 23.1442 102.277 23.1482 103.594C23.1522 105.75 23.3782 108.84 23.7662 112.031C23.8752 112.93 23.8362 113.297 23.6362 113.297C23.4802 113.297 21.5312 111.48 19.3132 109.257V109.258ZM27.0002 96.3362C27.0002 94.3952 27.5042 88.6132 27.6912 88.4102C27.7812 88.3162 28.5432 89.1482 29.3872 90.2622C30.2272 91.3792 32.1332 93.4922 33.6212 94.9572L36.3242 97.6292H27.0002V96.3362ZM22.0552 97.2232C18.0232 96.7272 9.83519 95.1532 9.18419 94.7502C8.98419 94.6252 9.22319 93.6562 10.0242 91.3402C11.0822 88.2932 13.5782 82.3052 13.9692 81.8872C14.0662 81.7852 15.3832 82.3442 16.8952 83.1332C18.4102 83.9222 20.6052 84.9772 21.7812 85.4842L23.9142 86.3982L23.7662 87.5002C23.4262 90.0702 23.1522 93.5472 23.1482 95.3982C23.1452 96.4922 23.0582 97.3712 22.9612 97.3522C22.8592 97.3322 22.4532 97.2732 22.0552 97.2222V97.2232ZM4.52719 86.8522C3.21146 83.3897 2.18071 79.8255 1.44519 76.1952C0.700188 72.5002 0.723187 72.4732 3.02019 74.2852C4.08219 75.1252 6.11719 76.6052 7.54019 77.5702C8.96019 78.5402 10.1252 79.3712 10.1252 79.4142C10.1252 79.4612 9.68019 80.4612 9.13719 81.6332C8.40589 83.2515 7.71402 84.8873 7.06219 86.5392C6.46519 88.0622 5.89819 89.3992 5.79719 89.5042C5.69919 89.6092 5.12919 88.4142 4.52719 86.8522ZM21.8672 80.6172C20.0162 79.7662 16.6572 78.0512 16.1992 77.7272C16.1052 77.6602 18.5822 73.5782 19.8442 71.7232L20.8322 70.2662L21.0042 70.9922C22.1092 75.6172 22.7742 77.9692 23.4612 79.6802C23.9112 80.8002 24.2662 81.7152 24.2542 81.7152C24.2382 81.7112 23.1642 81.2192 21.8672 80.6172ZM9.25019 73.3802C6.64819 71.5632 2.30019 68.1422 2.02719 67.7002C1.77019 67.2822 10.6292 58.6962 11.3202 58.6962C11.4342 58.6962 12.3952 59.8362 13.4532 61.2282C14.5162 62.6222 15.9332 64.3922 16.6092 65.1612C17.2852 65.9312 17.8392 66.6112 17.8392 66.6732C17.8392 66.7352 16.9892 68.0602 15.9452 69.6142C14.9062 71.1652 13.6992 73.0642 13.2702 73.8252C12.8402 74.5872 12.3522 75.2122 12.1802 75.2122C12.0122 75.2122 10.6912 74.3882 9.25019 73.3802ZM0.242188 61.8242C0.277188 58.7972 1.29719 51.9022 2.29719 47.9412C3.28919 44.0202 3.09419 44.0472 4.89519 47.6092C5.76219 49.3322 6.95319 51.5432 7.53519 52.5272L8.59419 54.3092L6.76619 55.8752C5.76219 56.7352 3.88319 58.4802 2.59019 59.7502C1.29719 61.0232 0.242188 61.9572 0.242188 61.8242ZM19.6222 61.0312C17.7192 58.7612 15.4452 55.6092 15.5662 55.4142C15.7302 55.1482 18.5392 53.2422 20.8242 51.8442C22.3552 50.9062 22.4732 50.8712 22.3202 51.3872C21.7582 53.3122 20.9602 57.3592 20.7382 59.4072C20.5942 60.7232 20.4532 61.8282 20.4222 61.8592C20.3912 61.8912 20.0322 61.5162 19.6222 61.0312ZM11.2582 48.9612C8.75819 44.6052 5.87119 38.3752 6.20719 38.0662C6.74719 37.5622 15.9102 34.9962 18.6172 34.5902L19.6722 34.4302L20.2032 37.6452C20.4932 39.4152 20.9802 41.8982 21.2892 43.1682L21.8482 45.4802L19.8682 46.6052C18.7782 47.2272 16.6912 48.5312 15.2342 49.5042L12.5862 51.2742L11.2582 48.9612ZM26.0632 38.9842C25.8099 37.6333 25.5739 36.2792 25.3552 34.9222L25.1522 33.5622L26.3822 33.4182C27.0622 33.3402 28.9142 33.2032 30.5002 33.1182L33.3872 32.9652L32.3982 34.0202C30.7662 35.7622 28.9102 38.1022 27.7032 39.9502L26.5662 41.6872L26.0632 38.9842ZM9.90319 30.1682C11.5512 27.3752 16.7582 20.7462 18.5232 19.1882L19.0432 18.7272V28.8592L16.9332 29.2692C15.0982 29.6252 11.1762 30.5822 9.78119 31.0122C9.35519 31.1452 9.36319 31.0742 9.90219 30.1682H9.90319ZM24.6332 21.9922C24.6762 18.6682 24.7732 15.8872 24.8522 15.8092C25.1222 15.5352 36.4062 17.7812 36.8322 18.1912C36.8722 18.2312 36.5322 19.4922 36.0782 21.0002C35.6212 22.5122 35.0582 24.5702 34.8242 25.5742L34.3982 27.4102L31.0002 27.5602C29.1292 27.6422 26.9142 27.7822 26.0782 27.8722L24.5552 28.0362L24.6332 21.9922ZM40.7382 26.9342C40.7382 26.8242 41.6952 23.3672 42.2032 21.6482L42.6802 20.0392L45.6252 21.2502C49.5272 22.8552 49.4382 22.7972 48.5662 23.1602C46.5312 24.0162 43.1762 25.6402 42.1452 26.2772C41.0512 26.9492 40.7382 27.0942 40.7382 26.9342ZM51.5862 17.2462C50.7232 16.8132 48.8632 15.9922 47.4532 15.4222L44.8872 14.3872L45.1372 13.6722C45.4532 12.7662 48.9842 5.6872 49.6452 4.6322L50.1412 3.8402L51.6482 4.8552C53.6212 6.1912 57.2462 8.9022 58.4412 9.9412L59.3912 10.7662L56.8712 13.6412C55.4882 15.2192 54.0862 16.8552 53.7542 17.2732L53.1522 18.0392L51.5862 17.2462ZM35.7962 11.6682C34.2365 11.2699 32.6703 10.8975 31.0982 10.5512L29.5282 10.2272L31.6522 8.9652C32.9195 8.21974 34.2066 7.50848 35.5122 6.8322C37.3672 5.8952 42.9612 3.5902 43.0822 3.7112C43.1222 3.7502 42.6922 4.6952 42.1222 5.8092C41.5552 6.9222 40.6642 8.8092 40.1452 10.0042C39.6252 11.1952 39.1412 12.2382 39.0662 12.3162C38.9922 12.3952 37.5202 12.1022 35.7962 11.6682Z" fill="#3EB049"/>
</svg>
