<svg width="128" height="128" viewBox="0 0 128 128" fill="none" xmlns="http://www.w3.org/2000/svg">
<path d="M24.4732 90.6288C21.9302 87.8358 19.8242 85.5508 19.7892 85.5508C19.7542 85.5508 19.7272 87.7378 19.7272 90.4058C19.7272 94.7188 19.7152 95.2728 19.6092 95.3748C19.4412 95.5428 17.2342 95.5428 17.0662 95.3748C16.9612 95.2698 16.9492 94.4608 16.9492 87.5588C16.9492 80.0188 16.9532 79.8588 17.0892 79.7848C17.1682 79.7418 17.3752 79.7068 17.5512 79.7068H17.8672L22.4692 84.6018C25.0002 87.2928 27.0942 89.4958 27.1252 89.4958C27.1522 89.4958 27.1802 87.3948 27.1802 84.8238V80.1558L27.3402 80.0388C27.5782 79.8748 29.6292 79.8748 29.8632 80.0388L30.0272 80.1558V87.8088C30.0272 95.1328 30.0232 95.4728 29.8952 95.5858C29.8132 95.6598 29.6332 95.7068 29.4302 95.7068H29.0982L24.4732 90.6288ZM54.3872 95.6018C52.8485 95.3678 51.4121 94.688 50.2554 93.6466C49.0988 92.6051 48.2727 91.2476 47.8792 89.7418C47.6492 88.8548 47.5742 87.4688 47.7032 86.5658C48.0116 84.4772 49.13 82.5941 50.8162 81.3238C51.4612 80.8318 52.7582 80.1988 53.5162 79.9998C55.3912 79.5118 57.3792 79.6718 59.0202 80.4408C60.0432 80.9208 61.1522 81.7768 61.1522 82.0898C61.1522 82.3398 59.6642 83.8708 59.4222 83.8708C59.3242 83.8708 59.0742 83.7338 58.8672 83.5708C57.9142 82.8128 56.7302 82.4408 55.4612 82.5038C54.1172 82.5658 53.2032 82.9768 52.2232 83.9608C51.1022 85.0858 50.5472 86.7658 50.7702 88.3548C50.9452 89.5938 51.3832 90.4648 52.2772 91.3668C53.2422 92.3398 54.3322 92.7888 55.7192 92.7968C56.8832 92.8008 57.7582 92.5118 58.7972 91.7888C59.0512 91.6128 59.3322 91.4688 59.4222 91.4688C59.6642 91.4688 61.1522 92.9918 61.1522 93.2388C61.1522 93.5588 60.1482 94.3788 59.1252 94.8948C57.7462 95.5898 55.9962 95.8518 54.3872 95.6018ZM69.4692 95.5938C67.8361 95.3335 66.3254 94.5683 65.1492 93.4058C62.0822 90.3708 62.0122 85.3558 64.9892 82.1988C68.0822 78.9218 73.3202 78.8948 76.4692 82.1368C77.1642 82.8548 77.5702 83.4408 77.9962 84.3398C78.9532 86.3628 78.9922 88.7698 78.1062 90.9018C77.7732 91.6948 77.0662 92.7338 76.4182 93.3748C74.5942 95.1838 72.0432 95.9958 69.4682 95.5938H69.4692ZM72.0392 92.6758C73.8122 92.2188 75.2502 90.7808 75.7392 88.9838C75.9342 88.2698 75.9142 87.0588 75.6992 86.3548C75.4102 85.4178 75.0662 84.8518 74.3392 84.1248C73.2732 83.0548 72.2032 82.5978 70.7582 82.5978C70.1252 82.5978 69.8402 82.6328 69.4062 82.7658C67.7862 83.2658 66.5432 84.4338 65.9572 86.0078C65.6642 86.7928 65.5942 87.9998 65.7852 88.8708C66.2352 90.8868 67.9692 92.4688 70.1022 92.8128C70.4922 92.8748 71.5592 92.8008 72.0392 92.6758ZM89.2272 90.5898L84.5672 85.4768L84.5472 90.3468C84.5312 94.7568 84.5162 95.2338 84.4102 95.3548C84.3002 95.4728 84.1562 95.4878 83.1292 95.4878C82.0702 95.4878 81.9612 95.4768 81.8292 95.3438C81.6842 95.1988 81.6792 95.0978 81.6792 87.5978C81.6792 80.0978 81.6842 79.9998 81.8292 79.8548C81.9342 79.7458 82.0662 79.7068 82.3202 79.7108H82.6682L87.2662 84.6048C89.7932 87.2968 91.8912 89.4958 91.9222 89.4958C91.9572 89.4958 91.9802 87.3978 91.9802 84.8318C91.9802 80.4058 91.9882 80.1638 92.1172 80.0468C92.2272 79.9448 92.4302 79.9258 93.3952 79.9258C94.4412 79.9258 94.5512 79.9368 94.6842 80.0738C94.8282 80.2188 94.8322 80.3158 94.8322 87.8158C94.8322 95.3158 94.8282 95.4178 94.6842 95.5618C94.5822 95.6638 94.4412 95.7068 94.2112 95.7068H93.8832L89.2272 90.5898ZM0.219219 95.3438C0.141219 95.2618 0.0742188 95.1678 0.0742188 95.1288C0.0742188 95.0388 6.98422 80.0938 7.12522 79.8788C7.26522 79.6638 7.73522 79.6368 7.90622 79.8358C8.04622 79.9998 14.9022 94.9878 14.9022 95.1358C14.9022 95.1958 14.8442 95.3008 14.7702 95.3668C14.6602 95.4688 14.4572 95.4878 13.5002 95.4878C12.4842 95.4878 12.3482 95.4728 12.1842 95.3438C12.0702 95.2578 11.7892 94.7228 11.4262 93.9218L10.8482 92.6408L7.49622 92.6608L4.14522 92.6758L3.55122 93.9798C3.11322 94.9408 2.91122 95.3088 2.77722 95.3828C2.64522 95.4568 2.28522 95.4838 1.48022 95.4838C0.460219 95.4878 0.352219 95.4768 0.219219 95.3438ZM9.71922 90.1638C9.71922 90.0348 7.52722 85.2968 7.47322 85.3088C7.41822 85.3158 5.26622 90.0548 5.26222 90.1718C5.26222 90.2028 6.26222 90.2268 7.48822 90.2268C8.71522 90.2268 9.71822 90.1988 9.71822 90.1638H9.71922ZM32.1992 95.4098C32.1292 95.3668 32.0742 95.2498 32.0742 95.1448C32.0742 94.9098 38.9772 79.9298 39.1442 79.8008C39.2772 79.6948 39.6602 79.6798 39.8042 79.7698C39.9412 79.8598 46.8322 94.9448 46.8322 95.1558C46.832 95.207 46.8191 95.2574 46.7947 95.3024C46.7703 95.3474 46.7351 95.3857 46.6922 95.4138C46.6092 95.4568 46.0592 95.4878 45.4142 95.4878C44.3442 95.4878 44.2742 95.4798 44.0982 95.3238C43.9962 95.2298 43.6682 94.6088 43.3522 93.8978L42.7852 92.6408H36.1172L35.5002 93.9688C35.0402 94.9728 34.8402 95.3238 34.7032 95.3948C34.4772 95.5078 32.3912 95.5198 32.1992 95.4098ZM41.6412 90.1368C41.6412 89.9918 39.4962 85.3168 39.4262 85.3088C39.3792 85.3008 37.1872 90.0978 37.1872 90.2068C37.1872 90.2188 38.1912 90.2268 39.4142 90.2268C41.1482 90.2268 41.6442 90.2068 41.6412 90.1368ZM99.0432 95.3788C98.9332 95.2688 98.9222 94.6168 98.9222 87.7068C98.9222 80.7848 98.9342 80.1478 99.0432 80.0348C99.1532 79.9248 99.4652 79.9178 102.422 79.9488C105.926 79.9838 106.027 79.9918 107.18 80.4058C109.398 81.2028 111.168 82.9838 111.918 85.1758C112.23 86.0858 112.316 86.6358 112.312 87.7458C112.312 88.9218 112.16 89.6798 111.711 90.7578C110.911 92.6838 109.113 94.3588 107.113 95.0428C106.003 95.4218 105.879 95.4328 102.422 95.4688C99.4692 95.4958 99.1522 95.4888 99.0432 95.3788ZM105.445 92.6678C105.735 92.6048 106.254 92.4178 106.594 92.2578C107.094 92.0198 107.328 91.8478 107.804 91.3678C108.461 90.7068 108.75 90.2498 109.051 89.3868C109.242 88.8468 109.258 88.7228 109.254 87.7068C109.254 86.7148 109.234 86.5548 109.059 86.0268C108.551 84.5158 107.547 83.4688 106.055 82.8978L105.461 82.6718L103.578 82.6448L101.699 82.6208V92.7848H103.309C104.512 92.7848 105.055 92.7578 105.445 92.6678ZM113.235 95.3358C113.152 95.2498 113.098 95.1288 113.113 95.0628C113.183 94.8158 120.066 79.9608 120.172 79.8358C120.238 79.7578 120.382 79.7068 120.547 79.7068C120.715 79.7068 120.859 79.7568 120.93 79.8358C121.066 79.9998 127.926 94.9958 127.926 95.1408C127.926 95.1988 127.867 95.3008 127.793 95.3668C127.68 95.4688 127.477 95.4878 126.523 95.4878C125.508 95.4878 125.371 95.4728 125.207 95.3438C125.094 95.2578 124.809 94.7228 124.449 93.9218L123.871 92.6408L120.516 92.6608L117.16 92.6758L116.566 93.9798C116.136 94.9338 115.926 95.3118 115.796 95.3828C115.668 95.4568 115.301 95.4838 114.504 95.4838C113.469 95.4878 113.379 95.4768 113.234 95.3358H113.235ZM122.738 90.1638C122.738 90.0388 120.551 85.2968 120.496 85.3038C120.441 85.3118 118.289 90.0538 118.286 90.1718C118.286 90.2028 119.286 90.2268 120.512 90.2268C121.738 90.2268 122.738 90.1988 122.738 90.1638ZM62.6842 70.9638C59.2892 70.6408 56.2422 69.6328 53.8092 68.0268L53.2972 67.6908L53.1762 66.7378C53.0392 65.6838 52.8952 63.9998 52.8952 63.4488V63.0858L54.4852 63.0738C55.3592 63.0658 56.3402 63.0348 56.6652 62.9998C57.1802 62.9448 57.2812 62.9528 57.4652 63.0698C59.1992 64.1558 61.8442 64.8788 64.0942 64.8748C67.6992 64.8748 70.8912 63.5428 73.4612 60.9688C74.5982 59.8318 75.2232 58.9768 75.9062 57.6168C77.7812 53.8978 77.8242 49.6408 76.0202 45.9178C74.2342 42.2298 70.7542 39.5228 66.7772 38.7298C65.7502 38.5228 64.3402 38.4138 63.4922 38.4768L62.8052 38.5228L62.9802 38.2768C63.0782 38.1448 63.7152 37.4608 64.3982 36.7618L65.6452 35.4878L65.1332 35.0118C64.3439 34.2832 63.5185 33.5947 62.6602 32.9488L62.0202 32.4768L62.2622 32.4178C62.7382 32.3048 65.5232 32.3398 66.5202 32.4678C74.7102 33.5388 81.2462 39.4878 83.0232 47.4878C83.6022 50.1048 83.6172 52.9998 83.0592 55.7068C82.3552 59.1248 80.5632 62.4918 78.0742 65.0778C74.8488 68.4263 70.5277 70.5045 65.8982 70.9338C65.1282 71.0078 63.2972 71.0238 62.6842 70.9638ZM50.5662 65.4058C49.4692 64.3088 47.9842 62.5308 48.0862 62.4298C48.1062 62.4098 48.5202 62.4768 49.0042 62.5738C49.7462 62.7268 51.4062 62.9768 51.6562 62.9768C51.6962 62.9768 51.7262 63.2888 51.7262 63.6908C51.7302 64.3438 51.7962 65.2808 51.9142 66.2458C51.9492 66.5198 51.9372 66.6288 51.8752 66.6288C51.8282 66.6288 51.2382 66.0788 50.5662 65.4058ZM52.8952 61.4878C52.8952 60.9018 53.0472 59.1478 53.1052 59.0898C53.1332 59.0588 53.3632 59.3118 53.6172 59.6478C53.8752 59.9878 54.4532 60.6278 54.9022 61.0738L55.7222 61.8828H52.8952V61.4878ZM51.3982 61.7578C50.1762 61.6088 47.6912 61.1328 47.4962 61.0078C47.4342 60.9728 47.5082 60.6798 47.7502 59.9768C48.0702 59.0508 48.8282 57.2378 48.9452 57.1088C48.9772 57.0788 49.3752 57.2498 49.8322 57.4888C50.2932 57.7268 50.9572 58.0468 51.3122 58.1988L51.9612 58.4768L51.9142 58.8128C51.8122 59.5898 51.7302 60.6448 51.7272 61.2068C51.7272 61.5348 51.7032 61.8048 51.6722 61.7968C51.6412 61.7928 51.5202 61.7728 51.3982 61.7568V61.7578ZM46.0862 58.6128C45.6867 57.5646 45.373 56.4857 45.1482 55.3868C44.9262 54.2658 44.9302 54.2568 45.6282 54.8088C45.9492 55.0628 46.5662 55.5078 46.9962 55.8048C47.4302 56.0978 47.7812 56.3478 47.7812 56.3628C47.7812 56.3748 47.6452 56.6798 47.4812 57.0348C47.2605 57.5252 47.0505 58.0203 46.8512 58.5198C46.6712 58.9838 46.5002 59.3868 46.4692 59.4178C46.4412 59.4488 46.2662 59.0898 46.0862 58.6128ZM51.3402 56.7268C50.7772 56.4688 49.7622 55.9488 49.6212 55.8518C49.5942 55.8278 50.3442 54.5938 50.7272 54.0318L51.0272 53.5898L51.0782 53.8088C51.4142 55.2108 51.6132 55.9218 51.8242 56.4408C51.9572 56.7808 52.0662 57.0588 52.0632 57.0588C52.0592 57.0588 51.7342 56.9058 51.3402 56.7268ZM47.5162 54.5308C46.7262 53.9808 45.4102 52.9448 45.3282 52.8128C45.2502 52.6828 47.9342 50.0818 48.1452 50.0818C48.1752 50.0818 48.4692 50.4258 48.7892 50.8478C49.1132 51.2698 49.5432 51.8078 49.7462 52.0388C49.9532 52.2728 50.1172 52.4798 50.1172 52.4998C50.1172 52.5198 49.8592 52.9178 49.5472 53.3898C49.2632 53.8073 48.9921 54.2335 48.7342 54.6678C48.6052 54.8978 48.4572 55.0858 48.4022 55.0858C48.3522 55.0858 47.9532 54.8358 47.5162 54.5308ZM44.7862 51.0308C44.7962 50.1128 45.1062 48.0228 45.4102 46.8208C45.7102 45.6328 45.6482 45.6408 46.1952 46.7228C46.4612 47.2428 46.8202 47.9138 46.9962 48.2108L47.3162 48.7538L46.7622 49.2268C46.3308 49.6082 45.9087 50 45.4962 50.4018C45.1062 50.7848 44.7862 51.0698 44.7862 51.0318V51.0308ZM50.6602 50.7888C50.0822 50.1018 49.3952 49.1488 49.4302 49.0858C49.4802 49.0078 50.3322 48.4298 51.0232 48.0038C51.4882 47.7228 51.5232 47.7108 51.4772 47.8668C51.2665 48.6659 51.1062 49.4775 50.9972 50.2968C50.9532 50.6948 50.9102 51.0308 50.9022 51.0388C50.8912 51.0508 50.7822 50.9368 50.6602 50.7888ZM48.1252 47.1288C47.3672 45.8128 46.4922 43.9218 46.5942 43.8288C46.7582 43.6758 49.5352 42.8988 50.3552 42.7728L50.6752 42.7268L50.8352 43.7028C50.9222 44.2378 51.0702 44.9928 51.1652 45.3748L51.3352 46.0748L50.7352 46.4178C50.2573 46.6962 49.7881 46.9894 49.3282 47.2968L48.5282 47.8318L48.1252 47.1288ZM52.6132 44.1088C52.534 43.6988 52.4623 43.2874 52.3982 42.8748L52.3362 42.4648L52.7072 42.4218C52.9142 42.3978 53.4772 42.3548 53.9572 42.3278L54.8322 42.2808L54.5322 42.6008C54.0102 43.1604 53.5343 43.7614 53.1092 44.3978L52.7662 44.9258L52.6132 44.1088ZM47.7152 41.4338C48.2152 40.5898 49.7892 38.5818 50.3282 38.1048L50.4842 37.9688V41.0388L49.8442 41.1638C49.1154 41.3132 48.3923 41.489 47.6762 41.6908C47.5462 41.7308 47.5512 41.7108 47.7152 41.4338ZM52.1802 38.9568C52.1912 37.9488 52.2192 37.1048 52.2422 37.0818C52.3282 36.9998 55.7462 37.6838 55.8752 37.8048C55.8872 37.8158 55.7852 38.1988 55.6452 38.6558C55.5088 39.1154 55.3821 39.5778 55.2652 40.0428L55.1372 40.5978L54.1092 40.6448C53.6112 40.6638 53.1137 40.6948 52.6172 40.7378L52.1572 40.7888L52.1802 38.9568ZM57.0592 40.4568C57.0592 40.4218 57.3522 39.3748 57.5042 38.8548L57.6482 38.3668L58.5392 38.7338C59.7232 39.2188 59.6952 39.2038 59.4342 39.3118C58.8162 39.5698 57.7972 40.0618 57.4842 40.2578C57.1562 40.4608 57.0592 40.5038 57.0592 40.4568ZM60.3482 37.5198C59.9362 37.3216 59.518 37.1365 59.0942 36.9648L58.3162 36.6518L58.3952 36.4368C58.4882 36.1598 59.5592 34.0158 59.7582 33.6948L59.9102 33.4568L60.3672 33.7658C60.9652 34.1678 62.0632 34.9878 62.4262 35.3048L62.7112 35.5548L61.9492 36.4248C61.5312 36.9058 61.1052 37.4018 61.0042 37.5268L60.8202 37.7568L60.3482 37.5198ZM55.5632 35.8278C55.0897 35.7068 54.6143 35.5935 54.1372 35.4878L53.6602 35.3908L54.3052 35.0108C54.6602 34.8008 55.1882 34.5078 55.4772 34.3628C56.0392 34.0778 57.7342 33.3788 57.7702 33.4178C57.7812 33.4298 57.6522 33.7148 57.4802 34.0508C57.3092 34.3908 57.0402 34.9608 56.8792 35.3238C56.7232 35.6878 56.5742 35.9998 56.5512 36.0238C56.5312 36.0508 56.0862 35.9608 55.5622 35.8278H55.5632Z" fill="#3EB049"/>
</svg>
