<svg width="128" height="128" viewBox="0 0 128 128" fill="none" xmlns="http://www.w3.org/2000/svg">
<path d="M7.60008 49.9998C9.00008 49.9998 10.4001 50.5998 11.3001 51.7998V50.2998H13.8001V61.7998H12.1001C11.7001 61.7998 11.3001 61.4998 11.3001 60.9998V60.1998C10.4001 61.2998 9.00008 61.9998 7.60008 61.8998C4.50008 61.7998 2.00008 59.1998 2.00008 55.9998V55.8998C1.90008 52.7998 4.30008 50.0998 7.60008 49.9998ZM8.00008 52.2998C6.10008 52.2998 4.50008 53.8998 4.60008 55.7998V55.9998C4.40008 57.8998 5.90008 59.5998 7.80008 59.6998C9.70008 59.8998 11.4001 58.3998 11.5001 56.4998V55.9998C11.6001 54.0998 10.2001 52.4998 8.30008 52.2998H8.00008ZM16.6001 50.1998H19.1001V51.6998C19.9001 50.4998 21.2001 49.7998 22.6001 49.8998C25.3001 49.8998 27.0001 51.7998 27.0001 54.6998V61.5998H25.3001C24.9001 61.5998 24.5001 61.2998 24.5001 60.7998V55.0998C24.5001 53.2998 23.6001 52.1998 22.1001 52.1998C20.4001 52.1998 19.1001 53.4998 19.1001 55.9998V61.6998H17.4001C17.0001 61.6998 16.6001 61.2998 16.6001 60.8998V50.1998ZM34.6001 49.8998C36.0001 49.8998 37.4001 50.4998 38.3001 51.5998V44.2998H40.8001V61.5998H39.2001C38.8001 61.5998 38.4001 61.2998 38.4001 60.7998V59.9998C37.5001 61.0998 36.1001 61.7998 34.7001 61.7998C31.5001 61.6998 29.1001 58.9998 29.2001 55.8998V55.7998C29.0001 52.7998 31.4001 50.0998 34.6001 49.8998ZM35.1001 52.1998C33.2001 52.1998 31.6001 53.7998 31.7001 55.6998V55.8998C31.5001 57.7998 33.0001 59.4998 34.9001 59.5998C36.8001 59.7998 38.5001 58.2998 38.6001 56.3998V55.8998C38.7001 53.9998 37.3001 52.3998 35.4001 52.1998H35.1001ZM43.8001 50.0998H46.3001V52.1998C46.7001 50.8998 48.0001 49.9998 49.3001 49.9998C49.6001 49.9998 50.0001 49.9998 50.3001 50.0998V52.6998C49.9001 52.5998 49.5001 52.4998 49.0001 52.4998C47.6001 52.4998 46.2001 53.6998 46.2001 55.9998V61.5998H44.4001C44.0001 61.5998 43.6001 61.2998 43.6001 60.7998L43.8001 50.0998ZM57.2001 61.9998C53.9001 61.9998 51.3001 59.2998 51.3001 55.9998C51.3001 52.6998 54.0001 50.0998 57.3001 50.0998C60.6001 50.0998 63.2001 52.7998 63.2001 56.0998C63.2001 59.2998 60.5001 61.9998 57.3001 61.9998H57.2001ZM57.2001 59.5998C59.1001 59.5998 60.7001 58.0998 60.7001 56.0998V55.9998C60.7001 54.0998 59.1001 52.4998 57.2001 52.4998C55.3001 52.4998 53.7001 54.0998 53.7001 55.9998C53.6001 57.8998 55.1001 59.4998 57.0001 59.5998H57.2001ZM66.5001 47.6998C65.6001 47.6998 64.8001 46.8998 64.8001 45.9998C64.8001 45.0998 65.6001 44.2998 66.5001 44.2998C67.4001 44.2998 68.2001 45.0998 68.2001 45.9998C68.2001 46.8998 67.5001 47.6998 66.5001 47.6998ZM65.3001 50.1998H67.8001V61.6998H66.1001C65.9001 61.6998 65.7001 61.5998 65.5001 61.4998C65.4001 61.2998 65.3001 61.0998 65.3001 60.8998V50.1998ZM75.5001 49.9998C77.0001 49.9998 78.4001 50.5998 79.3001 51.7998V44.3998H81.8001V61.6998H80.0001C79.6001 61.6998 79.2001 61.3998 79.2001 60.8998V60.0998C78.3001 61.1998 77.0001 61.8998 75.5001 61.8998C72.3001 61.7998 69.8001 59.1998 69.9001 55.9998V55.8998C69.7001 52.7998 72.2001 50.0998 75.5001 49.9998C75.4001 49.8998 75.4001 49.8998 75.5001 49.9998ZM75.9001 52.1998C74.0001 52.1998 72.5001 53.7998 72.5001 55.6998V55.8998C72.3001 57.7998 73.8001 59.4998 75.7001 59.5998C77.6001 59.6998 79.3001 58.2998 79.4001 56.3998V55.8998C79.5001 53.9998 78.1001 52.3998 76.2001 52.1998H75.9001ZM29.8001 79.6998V74.0998H27.4001V71.7998H29.8001V68.5998H32.3001V71.7998H35.6001V74.0998H32.3001V79.2998C32.3001 80.7998 32.9001 81.2998 34.3001 81.2998C34.8001 81.2998 35.2001 81.1998 35.7001 81.0998V83.3998C35.1001 83.5998 34.4001 83.6998 33.8001 83.6998C31.8001 83.8998 30.0001 82.4998 29.8001 80.4998C29.7001 80.0998 29.7001 79.8998 29.8001 79.6998ZM69.5001 77.5998C69.5001 74.1998 72.2001 71.4998 75.6001 71.4998C79.0001 71.4998 81.7001 74.1998 81.7001 77.5998C81.7001 80.9998 79.0001 83.6998 75.6001 83.6998C72.3001 83.6998 69.5001 81.0998 69.5001 77.7998V77.5998ZM79.1001 77.5998C79.0001 75.5998 77.4001 73.9998 75.4001 74.0998C73.4001 74.1998 71.8001 75.7998 71.9001 77.7998C72.0001 79.7998 73.6001 81.3998 75.6001 81.2998C77.5001 81.1998 79.0001 79.6998 79.1001 77.7998V77.5998ZM19.8001 79.8998C20.0001 80.9998 21.1001 81.7998 22.2001 81.5998C23.3001 81.5998 24.1001 81.0998 24.1001 80.3998C24.1001 79.6998 23.6001 79.1998 22.4001 78.8998L20.5001 78.3998C18.8001 78.0998 17.5001 76.5998 17.5001 74.8998C17.5001 72.8998 19.2001 71.5998 21.8001 71.5998C24.4001 71.5998 26.0001 72.9998 26.3001 75.0998H23.8001C23.6001 74.1998 22.8001 73.5998 21.9001 73.6998C20.9001 73.6998 20.2001 74.0998 20.2001 74.8998C20.2001 75.6998 20.7001 75.9998 21.8001 76.2998L23.8001 76.7998C25.9001 77.2998 26.9001 78.4998 26.9001 80.2998C26.9001 82.4998 25.0001 83.6998 22.3001 83.6998C21.0001 83.6998 19.8001 83.3998 18.8001 82.5998C17.9001 81.9998 17.3001 80.9998 17.3001 79.8998H19.8001ZM45.2001 81.7998C44.5001 82.9998 43.2001 83.6998 41.8001 83.5998C39.1001 83.5998 37.5001 81.6998 37.5001 78.6998V71.6998H40.1001V78.1998C40.1001 80.0998 40.9001 81.1998 42.4001 81.1998C44.1001 81.1998 45.2001 79.7998 45.2001 77.3998V71.6998H47.8001V83.2998H45.2001V81.7998ZM59.2001 81.7998C58.3001 82.8998 57.0001 83.5998 55.6001 83.5998C52.4001 83.4998 49.9001 80.8998 50.0001 77.7998V77.5998C49.8001 74.4998 52.3001 71.7998 55.4001 71.5998H55.6001C57.0001 71.5998 58.4001 72.1998 59.3001 73.3998V66.0998H61.8001V83.3998H59.2001V81.7998ZM53.5001 80.1998C54.1001 80.8998 55.0001 81.2998 56.0001 81.2998C56.9001 81.2998 57.8001 80.8998 58.5001 80.1998C59.8001 78.6998 59.8001 76.3998 58.5001 74.8998C57.9001 74.1998 57.0001 73.7998 56.0001 73.7998C55.1001 73.7998 54.1001 74.0998 53.5001 74.8998C52.2001 76.4998 52.2001 78.6998 53.5001 80.1998ZM65.9001 65.8998C66.8001 65.9998 67.5001 66.7998 67.5001 67.6998C67.4001 68.4998 66.8001 69.1998 65.9001 69.2998C65.3001 69.2998 64.7001 68.9998 64.4001 68.4998C64.1001 67.9998 64.1001 67.2998 64.4001 66.7998C64.7001 66.2998 65.3001 65.8998 65.9001 65.8998ZM67.2001 71.7998V83.3998H64.7001V71.7998H67.2001Z" fill="black"/>
<path d="M105.7 49.2998H96.8002C95.0002 49.2998 93.5002 50.7998 93.5002 52.5998C93.4002 54.3998 94.8002 55.7998 96.6002 55.8998H105.8L105.7 49.2998Z" fill="#073042"/>
<path d="M125.9 78.4H96.6999C94.8999 78.4 93.3999 76.9 93.3999 75.1V52.5C93.3999 54.3 94.7999 55.8 96.6999 55.8H121.1C121.1 55.8 125.9 55.4 125.9 59V78.4Z" fill="#4285F4"/>
<path d="M112.3 66.7998C113.6 65.7998 113.9 63.9998 112.9 62.6998C112.4 61.9998 111.5 61.5998 110.6 61.4998H111.2V59.6998C111.2 59.4998 111.1 59.2998 110.9 59.1998C110.6 58.9998 110.3 59.0998 110.1 59.3998C110 59.4998 110 59.5998 110 59.6998V61.5998C108.4 61.7998 107.3 63.3998 107.5 64.9998C107.6 65.7998 108 66.4998 108.7 66.8998L103.3 78.3998H106.8L109.3 73.0998C109.6 72.4998 110.4 72.1998 111 72.4998C111.3 72.5998 111.5 72.7998 111.6 73.0998L114.2 78.3998H117.8L112.3 66.7998ZM110.5 66.2998C109.5 66.2998 108.7 65.4998 108.7 64.4998C108.7 63.4998 109.5 62.6998 110.5 62.6998C111 62.6998 111.4 62.8998 111.7 63.1998C112.4 63.8998 112.4 65.0998 111.7 65.7998C111.5 66.0998 111 66.2998 110.5 66.2998Z" fill="#3870B2"/>
<path d="M103.7 50.9004H116.2V53.2004H103.7V50.9004Z" fill="white"/>
<path d="M109.5 62.6998C110.5 62.6998 111.3 63.4998 111.3 64.4998C111.3 65.4998 110.5 66.2998 109.5 66.2998C108.5 66.2998 107.7 65.4998 107.7 64.4998C107.7 63.9998 107.9 63.5998 108.2 63.1998C108.6 62.8998 109 62.6998 109.5 62.6998ZM110.2 61.5998V59.6998C110.2 59.4998 110.1 59.2998 109.9 59.1998C109.6 58.9998 109.3 59.0998 109.1 59.3998C109 59.4998 109 59.5998 109 59.6998V61.5998C107.4 61.7998 106.3 63.3998 106.5 64.9998C106.6 65.7998 107 66.4998 107.7 66.8998L100.9 81.3998C100.6 81.8998 100.7 82.4998 101 82.9998C101.5 83.6998 102.5 83.8998 103.2 83.3998C103.4 83.1998 103.6 82.9998 103.8 82.6998L108.3 72.9998C108.6 72.3998 109.4 72.0998 110 72.3998C110.3 72.4998 110.5 72.6998 110.6 72.9998L115.2 82.5998C115.6 83.3998 116.5 83.6998 117.3 83.2998C118.1 82.8998 118.4 81.9998 118 81.1998L111 66.6998C112.3 65.6998 112.5 63.7998 111.5 62.4998C111.4 62.1998 110.9 61.7998 110.2 61.5998Z" fill="#073042"/>
<path d="M114.4 52.8998C113.9 52.8998 113.5 52.4998 113.5 52.0998C113.5 51.8998 113.6 51.5998 113.8 51.4998C114.1 51.1998 114.7 51.1998 115 51.4998C115.2 51.6998 115.2 51.8998 115.3 52.0998C115.2 52.4998 114.9 52.8998 114.4 52.8998ZM105 52.8998C104.5 52.8998 104.1 52.4998 104.1 52.0998C104.1 51.8998 104.2 51.5998 104.4 51.4998C104.7 51.0998 105.2 51.0998 105.6 51.3998C106 51.6998 106 52.2998 105.7 52.5998L105.6 52.6998C105.4 52.7998 105.2 52.8998 105 52.8998ZM114.7 47.7998L116.4 44.8998C116.5 44.6998 116.4 44.4998 116.3 44.3998C116.2 44.2998 116 44.3998 115.9 44.4998L114.1 47.4998C111.3 46.2998 108.1 46.2998 105.4 47.4998L103.7 44.4998C103.6 44.3998 103.5 44.2998 103.4 44.2998C103.3 44.2998 103.2 44.3998 103.1 44.4998C103 44.5998 103 44.6998 103.1 44.8998L104.8 47.7998C101.8 49.3998 99.9001 52.4998 99.6001 55.7998H120C119.6 52.3998 117.7 49.3998 114.7 47.7998Z" fill="#3DDC84"/>
<path d="M123 62.0996H121.7C121.6 62.0996 121.6 62.1996 121.6 62.2996V83.4996C121.6 83.5996 121.7 83.6996 121.8 83.6996H123.2C124.8 83.6996 126.1 82.3996 126.1 80.7996V59.0996C126 60.7996 124.7 62.0996 123 62.0996Z" fill="#073042"/>
</svg>
