<svg width="128" height="128" viewBox="0 0 128 128" fill="none" xmlns="http://www.w3.org/2000/svg">
<path d="M21.0122 91.1246C15.4742 91.1276 10.9742 86.6216 10.9732 81.0846L10.9712 50.3456C10.9692 44.8136 15.4682 40.3086 20.9992 40.3076C23.6882 40.3056 26.2062 41.3486 28.1042 43.2446C30.0022 45.1406 31.0462 47.6626 31.0482 50.3436L31.0452 81.0836C31.0521 82.4015 30.7965 83.7075 30.2933 84.9255C29.7901 86.1435 29.0493 87.249 28.1142 88.1776C27.1847 89.1149 26.0782 89.858 24.859 90.3639C23.6398 90.8699 22.3322 91.1284 21.0122 91.1246ZM21.0042 43.0046C16.9512 43.0026 13.6662 46.2956 13.6652 50.3456L13.6702 81.0816C13.6699 83.0293 14.443 84.8974 15.8196 86.2753C17.1962 87.6531 19.0635 88.428 21.0112 88.4296C21.9757 88.4298 22.9307 88.2398 23.8217 87.8705C24.7127 87.5012 25.5222 86.9599 26.2038 86.2775C26.8854 85.5952 27.4258 84.7851 27.7941 83.8937C28.1624 83.0024 28.3514 82.0471 28.3502 81.0826V50.3416C28.3481 48.3948 27.5732 46.5285 26.1957 45.1527C24.8183 43.777 22.951 43.0044 21.0042 43.0046Z" fill="white"/>
<path d="M99.7421 44.5268L97.0441 44.5258L30.9251 44.5348L28.2261 44.5358L28.2241 41.8368C28.2181 30.7568 34.2541 20.4518 44.1411 14.3638L40.2971 7.34684C39.8271 6.52484 39.7091 5.48384 39.9831 4.53184C40.122 4.05703 40.3539 3.61457 40.6653 3.2302C40.9767 2.84582 41.3615 2.52719 41.7971 2.29284C42.3357 1.99627 42.9413 1.84239 43.5561 1.84584C44.9181 1.84584 46.1651 2.58484 46.8231 3.77884L50.8461 11.1078C55.0421 9.5722 59.477 8.79182 63.9451 8.80284C68.5511 8.80084 72.9681 9.57984 77.1491 11.1138L81.1661 3.77284C81.486 3.18717 81.958 2.6986 82.5322 2.35859C83.1065 2.01859 83.7618 1.83972 84.4291 1.84084C85.0433 1.8389 85.6484 1.9894 86.1901 2.27884C86.6265 2.5131 87.0116 2.83247 87.3224 3.21807C87.6333 3.60366 87.8638 4.04767 88.0001 4.52384C88.1375 4.9934 88.1801 5.48559 88.1256 5.97178C88.071 6.45796 87.9202 6.92844 87.6821 7.35584L83.8401 14.3688C93.7111 20.4698 99.7401 30.7668 99.7391 41.8278L99.7421 44.5268ZM80.1961 15.4028L85.3191 6.04784C85.3923 5.93032 85.4407 5.79912 85.4615 5.66226C85.4823 5.5254 85.4749 5.38574 85.4399 5.25181C85.4049 5.11788 85.343 4.99247 85.258 4.88326C85.1729 4.77404 85.0665 4.6833 84.9452 4.61657C84.8239 4.54984 84.6903 4.50852 84.5526 4.49514C84.4148 4.48175 84.2757 4.49658 84.1439 4.53871C84.012 4.58085 83.8901 4.64941 83.7856 4.74021C83.6811 4.83101 83.5962 4.94215 83.5361 5.06684L78.3601 14.5168C74.0061 12.5828 69.1311 11.4958 63.9781 11.5008C58.8361 11.4958 53.9701 12.5788 49.6291 14.5058L44.4481 5.07684C44.3849 4.959 44.2989 4.8549 44.195 4.77061C44.0912 4.68631 43.9717 4.62349 43.8434 4.58581C43.715 4.54812 43.5805 4.53632 43.4476 4.55109C43.3147 4.56586 43.186 4.6069 43.0691 4.67184C42.5721 4.93784 42.3891 5.56284 42.6661 6.05084L47.7911 15.3988C37.7211 20.5928 30.9171 30.4828 30.9231 41.8378L97.0411 41.8298C97.0441 30.4788 90.2521 20.6088 80.1961 15.4028ZM48.9401 29.8598C48.2048 29.8594 47.4998 29.567 46.9801 29.0467C46.4604 28.5265 46.1687 27.8212 46.1691 27.0858C46.1695 26.3505 46.462 25.6455 46.9822 25.1258C47.5025 24.6062 48.2078 24.3144 48.9431 24.3148C49.6785 24.3162 50.3834 24.6088 50.9035 25.1287C51.4236 25.6486 51.7165 26.3534 51.7181 27.0888C51.7171 27.8246 51.4238 28.5299 50.9029 29.0495C50.3819 29.5692 49.6759 29.8606 48.9401 29.8598ZM79.0471 29.8538C78.683 29.8545 78.3223 29.7833 77.9858 29.6443C77.6492 29.5053 77.3434 29.3012 77.0859 29.0438C76.8284 28.7863 76.6242 28.4806 76.4851 28.1441C76.3459 27.8076 76.2746 27.447 76.2751 27.0828C76.2778 26.3477 76.5706 25.6434 77.0899 25.1232C77.6092 24.6029 78.313 24.3088 79.0481 24.3048C79.7822 24.3109 80.4843 24.606 81.0022 25.1262C81.5202 25.6464 81.8123 26.3498 81.8151 27.0838C81.8153 27.4475 81.7438 27.8076 81.6047 28.1436C81.4657 28.4796 81.2618 28.7849 81.0048 29.0421C80.7478 29.2993 80.4426 29.5034 80.1067 29.6427C79.7708 29.782 79.4108 29.8537 79.0471 29.8538ZM51.7111 126.159C46.1781 126.158 41.6751 121.658 41.6741 116.121L41.6721 102.554L39.0341 102.557C37.6505 102.562 36.2796 102.292 35.0011 101.763C33.7226 101.234 32.5618 100.456 31.5861 99.4748C30.6036 98.4993 29.8251 97.338 29.2958 96.0586C28.7665 94.7793 28.497 93.4074 28.5031 92.0228L28.4931 44.3958V41.6948H31.1921L96.8151 41.6848L99.5151 41.6828V44.3818L99.5221 92.0148C99.5231 97.8238 94.7971 102.551 88.9901 102.55L86.3361 102.552L86.3391 116.114C86.3391 121.648 81.8371 126.153 76.3061 126.153C74.9873 126.159 73.6804 125.903 72.4617 125.398C71.2431 124.894 70.137 124.152 69.2081 123.216C68.2712 122.287 67.5281 121.182 67.0222 119.964C66.5163 118.746 66.2576 117.439 66.2611 116.12V102.552H61.7501V116.117C61.7481 121.652 57.2471 126.16 51.7111 126.159Z" fill="white"/>
<path d="M31.2049 92.0219C31.2026 93.0512 31.4036 94.0708 31.7963 95.0222C32.189 95.9737 32.7656 96.8382 33.4932 97.5663C34.2207 98.2944 35.0848 98.8717 36.036 99.2652C36.9871 99.6586 38.0066 99.8603 39.0359 99.8589H44.3689L44.3749 116.123C44.3739 120.173 47.6639 123.464 51.7099 123.465C52.6742 123.464 53.629 123.274 54.5197 122.904C55.4104 122.535 56.2196 121.993 56.901 121.311C57.5824 120.629 58.1227 119.819 58.4911 118.927C58.8595 118.036 59.0487 117.081 59.0479 116.117L59.0489 99.8579L68.9579 99.8549L68.9569 116.118C68.9609 120.169 72.2549 123.464 76.2999 123.456C80.3559 123.459 83.6439 120.164 83.6429 116.112L83.6379 99.8529L88.9909 99.8519C93.3099 99.8529 96.8229 96.3439 96.8229 92.0149L96.8139 44.3799L31.1929 44.3919L31.2049 92.0219ZM106.996 91.1119C101.46 91.1129 96.9569 86.6139 96.9579 81.0759L96.9499 50.3379C96.9519 44.8009 101.448 40.2969 106.981 40.2969C112.521 40.2959 117.027 44.7989 117.026 50.3349L117.029 81.0709C117.03 86.6049 112.531 91.1129 106.996 91.1119ZM106.986 42.9959C102.933 42.9919 99.6489 46.2829 99.6489 50.3379L99.6519 81.0749C99.6513 82.0391 99.8409 82.994 100.21 83.8849C100.579 84.7757 101.119 85.5852 101.801 86.2669C102.483 86.9486 103.293 87.4892 104.184 87.8578C105.075 88.2264 106.03 88.4157 106.994 88.4149C107.958 88.4149 108.913 88.2249 109.803 87.8558C110.694 87.4867 111.503 86.9458 112.184 86.2639C112.866 85.5819 113.406 84.7724 113.775 83.8815C114.143 82.9907 114.333 82.0359 114.332 81.0719L114.324 50.3359C114.325 49.372 114.135 48.4174 113.767 47.5267C113.398 46.636 112.858 45.8266 112.176 45.145C111.495 44.4633 110.686 43.9226 109.795 43.5538C108.904 43.1851 107.95 42.9955 106.986 42.9959Z" fill="white"/>
<path d="M21.004 43.0052C16.951 43.0032 13.666 46.2962 13.665 50.3462L13.67 81.0822C13.6694 82.0466 13.8588 83.0016 14.2276 83.8928C14.5963 84.7839 15.137 85.5936 15.8189 86.2756C16.5008 86.9575 17.3104 87.4984 18.2015 87.8673C19.0926 88.2361 20.0476 88.4257 21.012 88.4252C21.9763 88.4262 22.9313 88.237 23.8223 87.8684C24.7134 87.4997 25.5229 86.9589 26.2046 86.2769C26.8862 85.5948 27.4266 84.785 27.7948 83.8938C28.1629 83.0025 28.3516 82.0474 28.35 81.0832V50.3422C28.3479 48.3954 27.573 46.529 26.1956 45.1533C24.8181 43.7775 22.9508 43.0049 21.004 43.0052ZM80.196 15.4032L85.319 6.04817C85.4495 5.81085 85.4806 5.53147 85.4054 5.27128C85.3303 5.01109 85.155 4.79132 84.918 4.66017C84.6806 4.53176 84.402 4.50249 84.1431 4.57874C83.8842 4.65499 83.666 4.83058 83.536 5.06717L78.361 14.5202C74.007 12.5822 69.134 11.4962 63.978 11.5012C58.836 11.4962 53.965 12.5792 49.629 14.5062L44.448 5.07717C44.3848 4.95947 44.2988 4.85549 44.1951 4.77126C44.0914 4.68702 43.972 4.62421 43.8438 4.58644C43.7156 4.54868 43.5813 4.53673 43.4484 4.55127C43.3156 4.56581 43.187 4.60656 43.07 4.67117C42.952 4.73428 42.8476 4.82031 42.7632 4.92422C42.6788 5.02813 42.6159 5.14784 42.5783 5.27634C42.5407 5.40484 42.529 5.53955 42.5441 5.67259C42.5592 5.80563 42.6006 5.93433 42.666 6.05117L47.791 15.4002C37.721 20.5932 30.917 30.4832 30.923 41.8382L97.041 41.8302C97.044 30.4792 90.252 20.6092 80.196 15.4032ZM48.94 29.8602C48.2047 29.8598 47.4997 29.5673 46.98 29.0471C46.4604 28.5268 46.1686 27.8215 46.169 27.0862C46.1694 26.3509 46.4619 25.6458 46.9821 25.1262C47.5024 24.6065 48.2077 24.3148 48.943 24.3152C49.6784 24.3165 50.3833 24.6091 50.9034 25.1291C51.4235 25.649 51.7164 26.3538 51.718 27.0892C51.717 27.825 51.4237 28.5302 50.9028 29.0499C50.3818 29.5695 49.6758 29.861 48.94 29.8602ZM79.047 29.8542C78.683 29.8544 78.3225 29.7829 77.9862 29.6438C77.6498 29.5046 77.3442 29.3006 77.0867 29.0432C76.8293 28.7859 76.6251 28.4803 76.4858 28.144C76.3465 27.8077 76.2749 27.4472 76.275 27.0832C76.279 26.3485 76.5722 25.6449 77.0913 25.1249C77.6103 24.6049 78.3133 24.3104 79.048 24.3052C79.7821 24.3112 80.4842 24.6063 81.0022 25.1265C81.5201 25.6467 81.8122 26.3501 81.815 27.0842C81.8154 27.4479 81.7441 27.8081 81.6052 28.1442C81.4662 28.4803 81.2624 28.7858 81.0053 29.043C80.7482 29.3003 80.4429 29.5044 80.1069 29.6435C79.7709 29.7827 79.4107 29.8543 79.047 29.8542ZM31.193 44.3922L31.204 92.0272C31.2029 93.056 31.4046 94.0749 31.7978 95.0256C32.191 95.9763 32.7679 96.8401 33.4954 97.5675C34.2229 98.2949 35.0868 98.8717 36.0375 99.2648C36.9883 99.6578 38.0072 99.8595 39.036 99.8582L44.369 99.8602L44.375 116.124C44.374 120.174 47.666 123.466 51.71 123.466C55.766 123.466 59.052 120.171 59.053 116.119L59.049 99.8592L68.958 99.8562L68.962 116.119C68.962 120.166 72.255 123.465 76.3 123.457C80.356 123.46 83.644 120.165 83.643 116.113L83.638 99.8542L88.99 99.8502C90.0189 99.8503 91.0378 99.6478 91.9884 99.2542C92.9391 98.8605 93.8029 98.2835 94.5305 97.5561C95.2581 96.8286 95.8354 95.965 96.2292 95.0144C96.6231 94.0639 96.8259 93.0451 96.826 92.0162L96.817 44.3812L31.193 44.3922ZM114.327 50.3352C114.327 49.3712 114.137 48.4166 113.768 47.526C113.4 46.6354 112.859 45.8263 112.177 45.1447C111.495 44.4632 110.686 43.9226 109.795 43.554C108.905 43.1853 107.95 42.9958 106.986 42.9962C102.933 42.9922 99.649 46.2832 99.649 50.3382L99.655 81.0762C99.6544 82.0401 99.8438 82.9948 100.212 83.8855C100.581 84.7762 101.121 85.5855 101.803 86.2671C102.485 86.9487 103.294 87.4893 104.185 87.8579C105.075 88.2264 106.03 88.4158 106.994 88.4152C107.958 88.4153 108.913 88.2254 109.803 87.8564C110.694 87.4874 111.503 86.9464 112.185 86.2644C112.866 85.5825 113.407 84.7729 113.775 83.882C114.144 82.9911 114.333 82.0363 114.332 81.0722L114.327 50.3352Z" fill="#A4C439"/>
</svg>
