<svg width="128" height="128" viewBox="0 0 128 128" fill="none" xmlns="http://www.w3.org/2000/svg">
<path d="M51.3002 17.7002H23.2002C17.6002 17.7002 13.0002 22.3002 13.0002 28.0002C12.8002 33.5002 17.2002 38.1002 22.7002 38.3002H51.6002L51.3002 17.7002Z" fill="#073042"/>
<path d="M115 109.3H23.2C17.5 109.3 13 104.7 13 99.0004V27.9004C13 33.6004 17.6 38.2004 23.2 38.3004H100.1C100.1 38.3004 115.1 37.0004 115.1 48.3004V109.3H115Z" fill="#4285F4"/>
<path d="M72.1998 72.8997C76.2998 69.7997 77.0998 63.9997 73.9998 59.9997C72.2998 57.7997 69.6998 56.3997 66.8998 56.2997H67.1998C67.6998 56.1997 68.2998 56.1997 68.7998 56.2997V50.5997C68.7998 49.8997 68.4998 49.2997 67.8998 48.9997C66.9998 48.4997 65.8998 48.7997 65.3998 49.6997C65.1998 49.9997 65.0998 50.2997 65.1998 50.6997V56.4997C60.1998 57.2997 56.6998 61.9997 57.4998 67.0997V67.1997C57.8998 69.5997 59.1998 71.7997 61.1998 73.1997L44.2998 109.4H55.2998L63.0998 92.7997C63.9998 90.7997 66.3998 89.8997 68.4998 90.8997C69.2998 91.2997 69.9998 91.9997 70.3998 92.7997L78.4998 109.4H89.6998L72.1998 72.8997ZM66.4998 71.2997C63.2998 71.2997 60.7998 68.6997 60.7998 65.4997C60.7998 62.2997 63.3998 59.7997 66.5998 59.8997C68.0998 59.8997 69.3998 60.4997 70.4998 61.4997C72.7998 63.6997 72.7998 67.2997 70.5998 69.5997C69.5998 70.5997 68.0998 71.2997 66.4998 71.2997Z" fill="#3870B2"/>
<path d="M45.2002 22.7002H84.6002V29.9002H45.2002V22.7002Z" fill="white"/>
<path d="M63.4998 59.8C66.5998 59.8 69.1998 62.4 69.0998 65.6C69.0998 68.7 66.4998 71.3 63.2998 71.2C60.1998 71.2 57.6998 68.6 57.6998 65.5C57.6998 64 58.2998 62.6 59.3998 61.5C60.4998 60.4 61.9998 59.8 63.4998 59.8ZM65.6998 56.5V50.5C65.6998 49.8 65.3998 49.2 64.7998 48.9C63.8998 48.4 62.7998 48.7 62.2998 49.6C62.0998 49.9 61.9998 50.2 62.0998 50.6V56.4C57.0998 57.2 53.5998 61.9 54.3998 67V67.1C54.7998 69.5 56.0998 71.7 58.0998 73.1L36.7998 118.8C35.9998 120.4 36.0998 122.4 37.1998 123.9C38.7998 126.2 41.8998 126.8 44.1998 125.2C44.9998 124.7 45.5998 123.9 45.9998 123.1L60.1998 92.7C61.0998 90.7 63.4998 89.8 65.5998 90.8C66.3998 91.2001 67.0998 91.9 67.4998 92.7L81.9998 122.8C83.1998 125.3 86.1998 126.3 88.6998 125.1C91.1998 123.9 92.1998 120.9 90.9998 118.4L69.0998 72.9C73.0998 69.7 73.7998 63.8 70.5998 59.8C69.3998 58.2 67.6998 57.1 65.6998 56.5Z" fill="#073042"/>
<path d="M78.7999 29.1C77.2999 29.1 76.0999 28 76.0999 26.5C76.0999 25.8 76.3999 25 76.8999 24.5C77.9999 23.5 79.5999 23.5 80.6999 24.5C81.1999 25 81.4999 25.7 81.4999 26.4C81.3999 27.9 80.2999 29 78.7999 29.1ZM49.1999 29C47.6999 29 46.4999 27.8 46.4999 26.4C46.4999 25.7 46.7999 25 47.2999 24.5C48.1999 23.4 49.8999 23.2 50.9999 24.1H51.0999C52.1999 25.1 52.2999 26.8 51.2999 27.9L50.9999 28.3C50.4999 28.8 49.7999 29.1 49.0999 29.1M79.5999 12.9L84.8999 3.7C85.1999 3.2 84.9999 2.6 84.5999 2.2C84.0999 2 83.5999 2.1 83.2999 2.5L77.7999 12C68.9999 8.1 58.9999 8.1 50.2999 12L44.8999 2.6C44.6999 2.3 44.2999 2 43.8999 2C43.4999 2 43.0999 2.2 42.8999 2.6C42.6999 2.9 42.6999 3.4 42.8999 3.7L48.2999 12.9C38.8999 18 32.7999 27.6 31.8999 38.2H96.0999C95.2999 27.5 89.0999 18 79.6999 12.9" fill="#3DDC84"/>
<path d="M105.6 58.0998H101.4C101.2 58.1998 101 58.3998 101 58.6998V125.2C101 125.5 101.2 125.7 101.5 125.7H105.9C111 125.7 115.1 121.5 115.1 116.5V48.7998C115.1 53.8998 111 57.9998 105.9 57.9998H105.6V58.0998Z" fill="#073042"/>
</svg>
