<svg width="128" height="128" viewBox="0 0 128 128" fill="none" xmlns="http://www.w3.org/2000/svg">
<path d="M21.005 43.0032C16.952 43.0012 13.667 46.2942 13.666 50.3442L13.671 81.0802C13.6704 82.0446 13.8598 82.9997 14.2285 83.8908C14.5973 84.7819 15.138 85.5916 15.8199 86.2736C16.5018 86.9556 17.3114 87.4965 18.2025 87.8653C19.0936 88.2342 20.0486 88.4237 21.013 88.4232C21.9773 88.4243 22.9323 88.235 23.8233 87.8664C24.7143 87.4978 25.5239 86.9569 26.2055 86.2749C26.8872 85.5929 27.4276 84.783 27.7957 83.8918C28.1639 83.0006 28.3526 82.0455 28.351 81.0812V50.3402C28.3489 48.3934 27.574 46.5271 26.1965 45.1513C24.8191 43.7756 22.9518 43.0029 21.005 43.0032ZM80.198 15.4012L85.321 6.04621C85.4515 5.8089 85.4826 5.52951 85.4074 5.26932C85.3323 5.00913 85.157 4.78937 84.92 4.65821C84.6826 4.52981 84.404 4.50054 84.1451 4.57679C83.8862 4.65304 83.6679 4.82862 83.538 5.06521L78.363 14.5182C74.009 12.5802 69.136 11.4942 63.98 11.4992C58.838 11.4942 53.967 12.5772 49.631 14.5042L44.45 5.07521C44.3868 4.95752 44.3008 4.85354 44.1971 4.7693C44.0934 4.68507 43.974 4.62225 43.8458 4.58449C43.7176 4.54673 43.5832 4.53477 43.4504 4.54932C43.3176 4.56386 43.189 4.60461 43.072 4.66921C42.9539 4.73233 42.8496 4.81836 42.7652 4.92227C42.6807 5.02618 42.6179 5.14589 42.5803 5.27439C42.5426 5.40289 42.531 5.5376 42.5461 5.67064C42.5612 5.80368 42.6026 5.93238 42.668 6.04921L47.793 15.3982C37.723 20.5912 30.919 30.4812 30.925 41.8362L97.043 41.8282C97.045 30.4772 90.253 20.6072 80.198 15.4012ZM48.942 29.8582C48.2067 29.8578 47.5017 29.5653 46.982 29.0451C46.4623 28.5249 46.1706 27.8195 46.171 27.0842C46.1714 26.3489 46.4639 25.6439 46.9841 25.1242C47.5043 24.6045 48.2097 24.3128 48.945 24.3132C49.6804 24.3145 50.3853 24.6072 50.9054 25.1271C51.4255 25.647 51.7184 26.3518 51.72 27.0872C51.7187 27.8229 51.4254 28.528 50.9045 29.0476C50.3836 29.5672 49.6777 29.8587 48.942 29.8582ZM79.048 29.8532C78.684 29.8535 78.3235 29.782 77.9871 29.6428C77.6508 29.5037 77.3451 29.2996 77.0877 29.0423C76.8302 28.7849 76.626 28.4793 76.4868 28.143C76.3475 27.8067 76.2759 27.4462 76.276 27.0822C76.2799 26.3475 76.5732 25.644 77.0922 25.124C77.6113 24.604 78.3143 24.3095 79.049 24.3042C79.7831 24.3103 80.4852 24.6054 81.0031 25.1256C81.5211 25.6458 81.8131 26.3491 81.816 27.0832C81.8164 27.4469 81.7451 27.8071 81.6062 28.1433C81.4672 28.4794 81.2634 28.7848 81.0063 29.0421C80.7492 29.2993 80.4439 29.5034 80.1079 29.6426C79.7719 29.7818 79.4117 29.8533 79.048 29.8532ZM31.195 44.3902L31.206 92.0252C31.2048 93.054 31.4066 94.0729 31.7998 95.0236C32.193 95.9743 32.7699 96.8381 33.4974 97.5656C34.2249 98.293 35.0888 98.8698 36.0395 99.2628C36.9903 99.6559 38.0092 99.8575 39.038 99.8562L44.371 99.8582L44.377 116.122C44.376 120.172 47.668 123.464 51.712 123.464C55.768 123.464 59.054 120.169 59.055 116.117L59.051 99.8572L68.96 99.8542L68.964 116.117C68.964 120.164 72.257 123.463 76.302 123.455C80.358 123.458 83.646 120.163 83.645 116.111L83.64 99.8522L88.992 99.8482C90.0209 99.8483 91.0398 99.6458 91.9904 99.2522C92.9411 98.8586 93.8049 98.2816 94.5325 97.5541C95.2601 96.8266 95.8374 95.963 96.2312 95.0125C96.6251 94.0619 96.8279 93.0431 96.828 92.0142L96.819 44.3792L31.195 44.3902ZM114.329 50.3332C114.329 49.3692 114.139 48.4147 113.77 47.5241C113.402 46.6335 112.861 45.8243 112.179 45.1428C111.497 44.4612 110.688 43.9207 109.797 43.552C108.907 43.1834 107.952 42.9938 106.988 42.9942C102.935 42.9902 99.651 46.2812 99.651 50.3362L99.657 81.0742C99.6564 82.0382 99.8457 82.9928 100.214 83.8835C100.583 84.7742 101.123 85.5835 101.805 86.2651C102.487 86.9468 103.296 87.4873 104.187 87.8559C105.077 88.2245 106.032 88.4139 106.996 88.4132C107.96 88.4133 108.915 88.2235 109.805 87.8544C110.696 87.4854 111.505 86.9444 112.187 86.2625C112.868 85.5805 113.409 84.771 113.777 83.88C114.146 82.9891 114.335 82.0343 114.334 81.0702L114.329 50.3332Z" fill="#A4C439"/>
</svg>
