<svg width="128" height="128" viewBox="0 0 128 128" fill="none" xmlns="http://www.w3.org/2000/svg">
<path d="M13.699 108.645H21.746V126.066H18.254V112.04L15.138 112.052H14.389C12.649 112.052 11.682 112.125 11.489 112.27C10.45 112.552 9.57203 113.152 8.85503 114.07C8.08303 115.174 7.69603 116.273 7.69603 117.368C7.69603 118.721 8.21903 119.966 9.26603 121.101C9.96703 121.769 10.571 122.172 11.079 122.309C11.586 122.567 12.46 122.696 13.7 122.696H16.129V126.067H13.218C11.059 126.067 9.23503 125.499 7.74403 124.363C6.66503 123.509 5.94403 122.736 5.58203 122.044C4.68003 120.61 4.22803 119.144 4.22803 117.646V117.139C4.22803 115.045 5.01303 113.124 6.58403 111.376C7.53403 110.45 8.31203 109.866 8.91503 109.624C9.35103 109.382 9.95003 109.153 10.716 108.936C11.4 108.741 12.395 108.645 13.699 108.645ZM39.324 112.124C39.67 112.591 39.92 112.99 40.073 113.32C40.299 113.715 40.511 114.246 40.714 114.915C40.955 115.721 41.076 116.816 41.076 118.201V126.066H37.584V117.826C37.584 115.055 36.332 113.203 33.827 112.269C33.255 112.108 32.752 112.023 32.316 112.015C31.881 112.023 31.382 112.108 30.818 112.269C28.313 113.203 27.061 115.056 27.061 117.826V126.066H23.557V118.201C23.557 116.816 23.678 115.721 23.919 114.915C24.12 114.247 24.334 113.715 24.56 113.32C24.713 112.982 24.966 112.583 25.321 112.124C27.198 109.82 29.53 108.668 32.316 108.668C35.104 108.668 37.439 109.82 39.324 112.124ZM49.122 108.657C51.467 108.657 52.811 108.709 53.158 108.814C54.108 108.927 55.179 109.326 56.371 110.01C57.023 110.413 57.717 111.029 58.449 111.858C59.754 113.477 60.406 115.317 60.406 117.379C60.4128 118.555 60.1744 119.719 59.706 120.798C58.788 122.884 57.277 124.39 55.176 125.317C54.201 125.817 52.703 126.066 50.682 126.066H43.276L42.889 125.993V122.683H51.056C51.926 122.683 52.598 122.606 53.074 122.454C54.339 122.027 55.264 121.391 55.852 120.545C56.569 119.474 56.927 118.431 56.927 117.416C56.927 116.393 56.617 115.386 55.997 114.395C55.61 113.823 55.184 113.389 54.717 113.09C53.863 112.389 52.643 112.039 51.056 112.039H42.889V108.656H49.122V108.657ZM62.219 108.657H73.407C75.38 108.657 76.927 109.249 78.046 110.433C78.546 110.9 78.892 111.351 79.085 111.786C79.521 112.656 79.737 113.506 79.737 114.335V114.83C79.737 116.103 79.185 117.347 78.083 118.563C77.374 119.239 76.729 119.674 76.149 119.868C77.615 121.431 78.348 123.496 78.348 126.066H74.832V125.8C74.832 123.899 74.062 122.389 72.524 121.269C71.646 120.649 70.498 120.339 69.081 120.339H62.219V116.98H73.624C74.872 116.98 75.718 116.364 76.161 115.132C76.209 114.882 76.241 114.673 76.257 114.504C76.257 113.819 75.972 113.199 75.4 112.644C74.909 112.257 74.385 112.064 73.83 112.064C73.83 112.032 73.661 112.016 73.322 112.016H62.219V108.657ZM90.26 108.668H90.38C93.055 108.668 95.338 109.764 97.231 111.954C98.456 113.597 99.067 115.385 99.067 117.318V117.439C99.067 120.113 97.948 122.384 95.709 124.252C94.082 125.46 92.298 126.065 90.357 126.065H90.236C87.578 126.065 85.302 124.978 83.41 122.803C82.75 121.877 82.287 121.027 82.02 120.254C81.7149 119.338 81.556 118.38 81.549 117.415V117.294C81.549 114.668 82.632 112.421 84.799 110.552C86.265 109.505 87.602 108.917 88.81 108.788C89.18 108.709 89.663 108.668 90.26 108.668ZM85.028 117.343C85.028 118.857 85.62 120.186 86.804 121.33C87.859 122.232 88.966 122.683 90.126 122.683H90.464C91.399 122.683 92.349 122.365 93.316 121.728C94.314 120.995 94.991 120.061 95.345 118.925C95.457 118.627 95.538 118.115 95.586 117.391C95.586 115.909 95.011 114.6 93.858 113.464C92.779 112.506 91.595 112.026 90.306 112.026C88.8 112.026 87.463 112.654 86.295 113.911C85.804 114.556 85.493 115.103 85.364 115.554C85.141 116.183 85.028 116.779 85.028 117.343ZM100.879 108.668H104.37V126.065H100.879V108.668ZM112.489 108.657C114.833 108.657 116.177 108.709 116.524 108.814C117.474 108.927 118.545 109.326 119.737 110.01C120.389 110.413 121.083 111.029 121.815 111.858C123.12 113.477 123.772 115.317 123.772 117.379C123.779 118.555 123.54 119.719 123.072 120.798C122.154 122.884 120.643 124.39 118.542 125.317C117.567 125.817 116.069 126.066 114.048 126.066H106.642L106.255 125.993V122.683H114.422C115.292 122.683 115.964 122.606 116.44 122.454C117.705 122.027 118.63 121.391 119.218 120.545C119.935 119.474 120.293 118.431 120.293 117.416C120.293 116.393 119.983 115.386 119.363 114.395C118.976 113.823 118.55 113.389 118.083 113.09C117.229 112.389 116.009 112.039 114.422 112.039H106.255V108.656H112.489V108.657ZM29.19 76.8346C24.706 76.8366 21.062 73.1886 21.061 68.7046L21.06 43.8136C21.059 39.3346 24.702 35.6866 29.181 35.6856C30.2496 35.6813 31.3083 35.8892 32.2959 36.2973C33.2834 36.7053 34.1802 37.3053 34.934 38.0626C35.6918 38.8156 36.2927 39.7115 36.7019 40.6983C37.1111 41.6851 37.3205 42.7433 37.318 43.8116L37.316 68.7036C37.3216 69.7706 37.1146 70.8281 36.7072 71.8143C36.2998 72.8005 35.7001 73.6956 34.943 74.4476C34.1902 75.207 33.2939 75.8091 32.3063 76.2189C31.3186 76.6287 30.2593 76.838 29.19 76.8346ZM29.184 37.8706C27.6078 37.8711 26.0964 38.4976 24.9819 39.6122C23.8675 40.7268 23.2413 42.2384 23.241 43.8146L23.245 68.7036C23.245 69.4841 23.3986 70.257 23.6973 70.9781C23.9959 71.6992 24.4336 72.3545 24.9855 72.9064C25.5373 73.4584 26.1925 73.8963 26.9136 74.195C27.6347 74.4937 28.4075 74.6475 29.188 74.6476C29.9685 74.6477 30.7414 74.494 31.4625 74.1954C32.1837 73.8968 32.8389 73.459 33.3909 72.9072C33.9428 72.3553 34.3807 71.7001 34.6794 70.979C34.9782 70.258 35.132 69.4851 35.132 68.7046V43.8116C35.1304 42.2352 34.503 40.724 33.3877 39.61C32.2724 38.496 30.7604 37.8703 29.184 37.8706Z" fill="white"/>
<path d="M92.9418 39.1041L90.7558 39.1031L37.2158 39.1101L35.0298 39.1111L35.0288 36.9251C35.0238 27.9531 39.9118 19.6091 47.9178 14.6791L44.8058 8.99707C44.6136 8.64934 44.4924 8.26684 44.4495 7.87183C44.4065 7.47683 44.4426 7.07723 44.5555 6.6963C44.6685 6.31537 44.8562 5.96073 45.1076 5.65303C45.359 5.34534 45.6691 5.09074 46.0198 4.90407C46.4559 4.664 46.9461 4.53939 47.4438 4.54207C48.5468 4.54207 49.5568 5.14107 50.0888 6.10707L53.3468 12.0421C56.7445 10.7985 60.3357 10.1667 63.9538 10.1761C67.6828 10.1751 71.2608 10.8051 74.6448 12.0471L77.8978 6.10307C78.1567 5.62879 78.5388 5.23317 79.0038 4.95791C79.4688 4.68265 79.9995 4.53795 80.5398 4.53907C81.0358 4.53807 81.5298 4.65907 81.9658 4.89307C82.3194 5.08302 82.6313 5.34183 82.8832 5.65423C83.1352 5.96664 83.3221 6.32631 83.4328 6.71207C83.5446 7.09221 83.5793 7.49084 83.535 7.88458C83.4907 8.27833 83.3683 8.65927 83.1748 9.00507L80.0648 14.6831C88.0578 19.6231 92.9398 27.9621 92.9388 36.9181L92.9418 39.1041ZM77.1148 15.5201L81.2628 7.94407C81.3216 7.84891 81.3604 7.74279 81.3769 7.63216C81.3933 7.52154 81.3872 7.40872 81.3587 7.30056C81.3302 7.1924 81.28 7.09116 81.2112 7.00299C81.1424 6.91483 81.0564 6.84157 80.9584 6.78768C80.8604 6.73379 80.7524 6.70039 80.6411 6.68951C80.5298 6.67863 80.4174 6.6905 80.3108 6.7244C80.2043 6.75829 80.1057 6.81351 80.0211 6.88668C79.9365 6.95986 79.8677 7.04947 79.8188 7.15007L75.6278 14.8021C71.9601 13.1802 67.9921 12.3482 63.9818 12.3601C59.981 12.3475 56.0222 13.1768 52.3628 14.7941L48.1688 7.15907C48.1175 7.06369 48.0478 6.97945 47.9637 6.91122C47.8796 6.843 47.7828 6.79216 47.6789 6.76165C47.5749 6.73113 47.466 6.72156 47.3584 6.73348C47.2507 6.74539 47.1465 6.77857 47.0518 6.83107C46.9563 6.88225 46.872 6.95193 46.8037 7.03605C46.7354 7.12017 46.6846 7.21704 46.6542 7.32102C46.6237 7.425 46.6143 7.53399 46.6264 7.64165C46.6385 7.74931 46.672 7.85347 46.7248 7.94807L50.8738 15.5171C42.7198 19.7231 37.2108 27.7311 37.2158 36.9261L90.7548 36.9201C90.7568 27.7271 85.2578 19.7361 77.1148 15.5201ZM51.8058 27.2271C51.2104 27.2267 50.6395 26.9898 50.2188 26.5685C49.7981 26.1472 49.5619 25.576 49.5623 24.9806C49.5627 24.3852 49.7996 23.8143 50.2209 23.3936C50.6422 22.9728 51.2134 22.7367 51.8088 22.7371C52.4043 22.7384 52.9749 22.9756 53.3959 23.3967C53.8168 23.8179 54.0538 24.3886 54.0548 24.9841C54.0535 25.5796 53.8159 26.1502 53.3943 26.5708C52.9726 26.9913 52.4013 27.2273 51.8058 27.2271ZM76.1848 27.2221C75.8899 27.2227 75.5977 27.1651 75.3251 27.0526C75.0525 26.9401 74.8048 26.7748 74.5962 26.5663C74.3877 26.3579 74.2223 26.1102 74.1096 25.8377C73.997 25.5651 73.9393 25.273 73.9398 24.9781C73.9422 24.3829 74.1793 23.8128 74.5997 23.3914C75.02 22.9701 75.5897 22.7318 76.1848 22.7281C76.7792 22.7328 77.3477 22.9717 77.767 23.3929C78.1864 23.8141 78.4227 24.3837 78.4248 24.9781C78.4252 25.2725 78.3676 25.5642 78.2552 25.8364C78.1428 26.1085 77.9779 26.3559 77.7699 26.5643C77.5618 26.7727 77.3148 26.938 77.0428 27.0509C76.7708 27.1638 76.4793 27.2219 76.1848 27.2221ZM54.0488 105.205C49.5688 105.204 45.9228 101.56 45.9218 97.0771L45.9198 86.0901L43.7838 86.0921C42.6633 86.0963 41.5532 85.8778 40.5178 85.4493C39.4825 85.0209 38.5426 84.3909 37.7528 83.5961C36.9571 82.8062 36.3266 81.866 35.8979 80.83C35.4692 79.7941 35.2509 78.6832 35.2558 77.5621L35.2478 38.9961V36.8081H37.4338L90.5718 36.8001L92.7588 36.7991V38.9851L92.7648 77.5561C92.7648 82.2601 88.9388 86.0881 84.2358 86.0871L82.0878 86.0881L82.0898 97.0691C82.0898 101.55 78.4438 105.198 73.9658 105.198C72.8979 105.203 71.8396 104.995 70.8528 104.587C69.8659 104.179 68.9702 103.578 68.2178 102.82C67.4592 102.068 66.8576 101.173 66.448 100.187C66.0384 99.2002 65.829 98.1422 65.8318 97.0741V86.0881H62.1788V97.0731C62.1768 101.555 58.5308 105.206 54.0488 105.205Z" fill="white"/>
<path d="M37.4441 77.5627C37.4423 78.3962 37.605 79.2218 37.9229 79.9923C38.2409 80.7627 38.7078 81.4628 39.2969 82.0524C39.886 82.642 40.5858 83.1094 41.356 83.428C42.1261 83.7466 42.9516 83.9099 43.7851 83.9087H48.1031L48.1081 97.0777C48.1089 98.6533 48.7348 100.164 49.8485 101.279C50.9621 102.393 52.4725 103.021 54.0481 103.023C54.8289 103.022 55.6019 102.868 56.3231 102.569C57.0442 102.269 57.6994 101.831 58.251 101.278C58.8027 100.726 59.2402 100.07 59.5384 99.3484C59.8366 98.6268 59.9898 97.8535 59.9891 97.0727V83.9077L68.0131 83.9057L68.0121 97.0737C68.0329 98.6372 68.6687 100.13 69.7819 101.228C70.8951 102.326 72.396 102.941 73.9596 102.941C75.5232 102.94 77.0237 102.324 78.1361 101.225C79.2485 100.126 79.8834 98.6332 79.9031 97.0697L79.8991 83.9037L84.2331 83.9027C85.9157 83.9019 87.529 83.233 88.7185 82.043C89.9079 80.853 90.5761 79.2393 90.5761 77.5567L90.5691 38.9837L37.4331 38.9927L37.4441 77.5627ZM98.8161 76.8247C94.3331 76.8257 90.6861 73.1827 90.6871 68.6987L90.6811 43.8087C90.6821 39.3247 94.3231 35.6777 98.8031 35.6777C103.289 35.6767 106.938 39.3237 106.938 43.8057L106.94 68.6947C106.941 73.1757 103.298 76.8257 98.8161 76.8247ZM98.8091 37.8627C98.0285 37.8626 97.2556 38.0163 96.5345 38.3151C95.8134 38.6138 95.1582 39.0518 94.6065 39.6039C94.0547 40.1561 93.6172 40.8115 93.3189 41.5328C93.0206 42.2541 92.8674 43.0272 92.8681 43.8077L92.8701 68.6967C92.8697 69.4775 93.0232 70.2506 93.3219 70.9719C93.6205 71.6933 94.0584 72.3487 94.6106 72.9007C95.1627 73.4526 95.8183 73.8903 96.5397 74.1887C97.2612 74.4871 98.0344 74.6404 98.8151 74.6397C99.5957 74.6399 100.369 74.4861 101.09 74.1873C101.811 73.8885 102.466 73.4504 103.018 72.8982C103.57 72.346 104.007 71.6904 104.306 70.9689C104.604 70.2475 104.757 69.4744 104.756 68.6937L104.75 43.8047C104.75 43.0244 104.597 42.2517 104.298 41.5307C104 40.8098 103.562 40.1547 103.011 39.6029C102.459 39.0511 101.804 38.6134 101.083 38.3148C100.362 38.0162 99.5894 37.8626 98.8091 37.8627Z" fill="white"/>
<path d="M29.1842 37.8714C27.608 37.8719 26.0966 38.4984 24.9821 39.613C23.8677 40.7276 23.2415 42.2392 23.2412 43.8154L23.2452 68.7044C23.2447 69.4853 23.3981 70.2587 23.6967 70.9802C23.9952 71.7018 24.4331 72.3575 24.9852 72.9097C25.5374 73.4619 26.1929 73.8999 26.9145 74.1986C27.636 74.4973 28.4093 74.6508 29.1902 74.6504C29.971 74.6512 30.7443 74.498 31.4657 74.1994C32.1872 73.9009 32.8427 73.463 33.3947 72.9108C33.9466 72.3585 34.3842 71.7028 34.6824 70.9812C34.9805 70.2596 35.1334 69.4862 35.1322 68.7054V43.8124C35.1306 42.236 34.5032 40.7248 33.3879 39.6108C32.2726 38.4968 30.7606 37.8712 29.1842 37.8714ZM77.1152 15.5204L81.2632 7.94442C81.3687 7.75217 81.3938 7.52596 81.3328 7.3153C81.2719 7.10464 81.13 6.92669 80.9382 6.82042C80.746 6.71635 80.5203 6.69264 80.3106 6.75448C80.1009 6.81632 79.9242 6.95867 79.8192 7.15042L75.6292 14.8054C71.9624 13.1805 67.9939 12.3477 63.9832 12.3614C59.9823 12.3485 56.0235 13.1778 52.3642 14.7954L48.1702 7.16042C48.1188 7.06528 48.0491 6.98125 47.9651 6.91316C47.8811 6.84508 47.7844 6.79428 47.6807 6.7637C47.5769 6.73313 47.4682 6.72337 47.3607 6.73499C47.2532 6.74661 47.149 6.77938 47.0542 6.83142C46.9586 6.88251 46.8742 6.95213 46.8058 7.03621C46.7374 7.12029 46.6865 7.21715 46.656 7.32113C46.6254 7.42512 46.6159 7.53414 46.628 7.64184C46.64 7.74954 46.6734 7.85376 46.7262 7.94842L50.8752 15.5184C42.7212 19.7244 37.2122 27.7324 37.2172 36.9274L90.7562 36.9214C90.7572 27.7274 85.2582 19.7364 77.1152 15.5204ZM51.8062 27.2274C51.2108 27.227 50.6399 26.9901 50.2192 26.5688C49.7985 26.1475 49.5623 25.5763 49.5627 24.9809C49.5631 24.3855 49.8 23.8146 50.2213 23.3939C50.6426 22.9732 51.2138 22.737 51.8092 22.7374C52.4047 22.7387 52.9753 22.9759 53.3963 23.3971C53.8172 23.8182 54.0542 24.389 54.0552 24.9844C54.0539 25.5799 53.8163 26.1506 53.3947 26.5711C52.973 26.9916 52.4017 27.2277 51.8062 27.2274ZM76.1852 27.2224C75.8904 27.2227 75.5984 27.1648 75.326 27.0522C75.0536 26.9395 74.806 26.7742 74.5975 26.5658C74.389 26.3574 74.2236 26.1099 74.1109 25.8375C73.9981 25.5652 73.9401 25.2732 73.9402 24.9784C73.9436 24.3836 74.1811 23.814 74.6012 23.3929C75.0214 22.9719 75.5904 22.7331 76.1852 22.7284C76.7796 22.7332 77.3481 22.972 77.7674 23.3933C78.1868 23.8145 78.4231 24.3841 78.4252 24.9784C78.4257 25.2729 78.3682 25.5646 78.2559 25.8369C78.1435 26.1091 77.9786 26.3565 77.7705 26.5649C77.5625 26.7734 77.3154 26.9387 77.0434 27.0515C76.7713 27.1643 76.4797 27.2224 76.1852 27.2224ZM37.4352 38.9934L37.4432 77.5654C37.4423 78.3985 37.6057 79.2235 37.9241 79.9933C38.2425 80.7631 38.7096 81.4626 39.2987 82.0516C39.8879 82.6406 40.5874 83.1076 41.3572 83.4259C42.1271 83.7442 42.9522 83.9075 43.7852 83.9064L48.1032 83.9074L48.1082 97.0764C48.109 98.652 48.7349 100.163 49.8486 101.278C50.9622 102.392 52.4726 103.019 54.0482 103.021C55.6252 103.02 57.1372 102.393 58.2519 101.277C59.3666 100.162 59.9929 98.6494 59.9932 97.0724L59.9902 83.9084L68.0142 83.9064L68.0172 97.0744C68.0172 100.351 70.6842 103.022 73.9592 103.016C75.536 103.016 77.0481 102.39 78.163 101.275C79.2779 100.159 79.9042 98.6472 79.9042 97.0704L79.9002 83.9044L84.2342 83.9014C85.9168 83.9014 87.5306 83.2331 88.7205 82.0434C89.9103 80.8537 90.5789 79.24 90.5792 77.5574L90.5722 38.9854L37.4352 38.9934ZM104.752 43.8064C104.752 43.0259 104.599 42.253 104.3 41.5318C104.002 40.8107 103.564 40.1554 103.012 39.6035C102.46 39.0516 101.805 38.6138 101.084 38.3153C100.363 38.0167 99.5897 37.8632 98.8092 37.8634C98.0287 37.8633 97.2557 38.017 96.5346 38.3158C95.8135 38.6145 95.1583 39.0525 94.6066 39.6046C94.0548 40.1567 93.6173 40.8122 93.319 41.5335C93.0208 42.2548 92.8676 43.0279 92.8682 43.8084L92.8732 68.6984C92.8726 69.4789 93.0258 70.2519 93.3242 70.9731C93.6226 71.6943 94.0602 72.3496 94.6121 72.9015C95.164 73.4534 95.8193 73.8911 96.5405 74.1895C97.2617 74.4878 98.0347 74.6411 98.8152 74.6404C99.5959 74.6405 100.369 74.4868 101.09 74.188C101.811 73.8892 102.466 73.4511 103.018 72.8989C103.57 72.3466 104.007 71.6911 104.306 70.9696C104.604 70.2482 104.757 69.4751 104.756 68.6944L104.752 43.8064Z" fill="#A4C439"/>
</svg>
