<svg width="128" height="128" viewBox="0 0 128 128" fill="none" xmlns="http://www.w3.org/2000/svg">
<path d="M25.1001 17.7002L38.5001 17.8002C33.6001 22.7002 30.7001 29.0002 29.7001 36.1002L24.6001 36.0002C19.1001 35.8002 14.8001 31.7002 14.9001 26.7002C14.9001 21.6002 19.4001 17.7002 25.1001 17.7002ZM65.3002 94.9002C66.2002 97.1002 72.2001 109.3 72.2001 109.3H55.1001C55.1001 109.3 60.6001 97.8002 61.8001 94.9002C62.8001 92.7002 64.3002 92.6002 65.3002 94.9002Z" fill="#4285F4"/>
<path d="M114.9 47.9003C113.8 52.2003 109.4 55.4003 104 55.4003H98.9999C98.6999 55.5003 98.4999 55.7003 98.5999 56.0003V109.3H89.4999L71.9999 73.1003C73.7999 71.1003 74.8999 68.4003 74.8999 65.5003C74.8999 60.7003 72.0999 56.4003 67.8999 54.7003V49.8003C67.8999 47.7003 66.0999 46.2003 63.9999 46.2003H63.7999C61.6999 46.2003 59.8999 48.0003 59.8999 50.1003V54.7003C55.2999 56.2003 51.8999 60.5003 51.8999 65.7003C51.8999 68.7003 53.0999 71.5003 54.9999 73.5003L37.9999 109.4H23.0999C17.3999 109.4 12.8999 104.8 12.8999 99.1003V29.7003C12.8999 29.7003 12.8999 29.1003 12.9999 29.7003C13.7999 34.5003 17.9999 38.2003 23.0999 38.3003H99.9999C99.8999 38.3003 114.6 37.0003 114.9 47.9003Z" fill="#4285F4"/>
<path d="M63.3001 59.8C66.4001 59.8 69.0001 62.4 68.9001 65.6C68.9001 68.7 66.3001 71.3 63.1001 71.2C60.0001 71.2 57.5001 68.6 57.5001 65.5C57.5001 64 58.1001 62.6 59.2001 61.5C60.4001 60.4 61.8001 59.8 63.3001 59.8ZM65.6001 56.5V50.5C65.6001 49.8 65.3001 49.2 64.7001 48.9C63.8001 48.4 62.7001 48.7 62.2001 49.6C62.0001 49.9 61.9001 50.2 62.0001 50.6V56.4C57.0001 57.2 53.5001 61.9 54.3001 67V67.1C54.7001 69.5 56.0001 71.7 58.0001 73.1L36.7001 118.8C35.9001 120.4 36.0001 122.4 37.1001 123.9C38.7001 126.2 41.8001 126.8 44.1001 125.2C44.9001 124.7 45.5001 123.9 45.9001 123.1L60.0001 92.5C60.9001 90.5 63.3001 89.6 65.4001 90.6C66.2001 91 66.9001 91.7 67.3001 92.5L81.8001 122.8C83.0001 125.3 86.0001 126.3 88.5001 125.1C91.0001 123.9 92.0001 120.9 90.8001 118.4L69.0001 72.9C73.0001 69.7 73.7001 63.8 70.5001 59.8C69.3001 58.2 67.6001 57.1 65.6001 56.5ZM79.6001 12.9H79.5001L84.8001 3.7C85.1001 3.2 84.9001 2.6 84.5001 2.2C84.0001 2 83.5001 2.1 83.2001 2.5L77.6001 12C68.9001 8.1 58.9001 8.1 50.1001 12L44.7001 2.6C44.5001 2.3 44.1001 2 43.7001 2C43.3001 2 42.9001 2.2 42.7001 2.6C42.5001 3 42.5001 3.4 42.7001 3.7L48.1001 12.9C39.3001 17.8 33.5001 26.2 32.1001 36H95.9001C94.4001 26.2 88.4001 17.8 79.6001 12.9ZM51.2001 28L50.8001 28.4C50.3001 28.9 49.6001 29.2 48.9001 29.2H49.0001C47.5001 29.2 46.3001 28 46.3001 26.6V26.5C46.3001 25.8 46.6001 25.1 47.1001 24.6C48.0001 23.5 49.7001 23.3 50.8001 24.2C52.1001 25.1 52.2001 26.8 51.2001 28ZM78.6001 29C77.1001 29.1 75.9001 27.9 75.9001 26.4V26.3C75.9001 25.6 76.2001 24.9 76.7001 24.4C77.7001 23.4 79.4001 23.4 80.5001 24.4C81.0001 24.9 81.3001 25.6 81.3001 26.3C81.3001 27.9 80.1001 29 78.6001 29ZM105.7 58H101.5C101.3 58.1 101.1 58.3 101.1 58.6V125.1C101.1 125.4 101.3 125.6 101.6 125.6H106C111.1 125.6 115.2 121.4 115.2 116.4C115.2 116.4 115.1 55.3 115.2 53C115.3 50.6 114.7 52.3 114.5 52.8C113 56 109.7 58.1 105.9 58.1H105.7V58Z" fill="#4285F4"/>
<path d="M63.3001 68.6998C65.0674 68.6998 66.5001 67.2671 66.5001 65.4998C66.5001 63.7325 65.0674 62.2998 63.3001 62.2998C61.5328 62.2998 60.1001 63.7325 60.1001 65.4998C60.1001 67.2671 61.5328 68.6998 63.3001 68.6998Z" fill="#4285F4"/>
</svg>
