<svg width="128" height="128" viewBox="0 0 128 128" fill="none" xmlns="http://www.w3.org/2000/svg">
<path d="M13.699 107.138H21.746V124.559H18.254V110.533L15.138 110.545H14.389C12.649 110.545 11.682 110.618 11.489 110.763C10.45 111.045 9.57203 111.645 8.85503 112.563C8.08303 113.667 7.69603 114.766 7.69603 115.862C7.69603 117.215 8.21903 118.46 9.26603 119.595C9.96703 120.263 10.571 120.666 11.079 120.803C11.586 121.061 12.46 121.19 13.7 121.19H16.129V124.56H13.218C11.059 124.56 9.23503 123.993 7.74403 122.857C6.66503 122.003 5.94403 121.23 5.58203 120.538C4.68003 119.104 4.22803 117.638 4.22803 116.14V115.633C4.22803 113.538 5.01303 111.617 6.58403 109.87C7.53403 108.943 8.31203 108.359 8.91503 108.118C9.35103 107.876 9.95003 107.646 10.716 107.43C11.4 107.234 12.395 107.138 13.699 107.138ZM39.324 110.617C39.67 111.084 39.92 111.482 40.073 111.812C40.299 112.208 40.511 112.739 40.714 113.407C40.955 114.213 41.076 115.308 41.076 116.693V124.558H37.584V116.319C37.584 113.548 36.332 111.696 33.827 110.761C33.255 110.6 32.752 110.516 32.316 110.507C31.881 110.516 31.382 110.6 30.818 110.761C28.313 111.696 27.061 113.548 27.061 116.319V124.558H23.557V116.693C23.557 115.308 23.678 114.213 23.919 113.407C24.12 112.739 24.334 112.208 24.56 111.812C24.713 111.474 24.966 111.076 25.321 110.617C27.198 108.313 29.53 107.161 32.316 107.161C35.104 107.161 37.439 108.313 39.324 110.617ZM49.122 107.149C51.467 107.149 52.811 107.202 53.158 107.306C54.108 107.419 55.179 107.818 56.371 108.502C57.023 108.904 57.717 109.521 58.449 110.35C59.754 111.969 60.406 113.81 60.406 115.871C60.4128 117.047 60.1744 118.211 59.706 119.29C58.788 121.376 57.277 122.883 55.176 123.809C54.201 124.309 52.703 124.558 50.682 124.558H43.276L42.889 124.486V121.175H51.056C51.926 121.175 52.598 121.099 53.074 120.946C54.339 120.519 55.264 119.883 55.852 119.037C56.569 117.967 56.927 116.923 56.927 115.908C56.927 114.886 56.617 113.879 55.997 112.887C55.61 112.316 55.184 111.881 54.717 111.582C53.863 110.882 52.643 110.531 51.056 110.531H42.889V107.148H49.122V107.149ZM62.219 107.149H73.407C75.38 107.149 76.927 107.741 78.046 108.925C78.546 109.392 78.892 109.843 79.085 110.278C79.521 111.148 79.737 111.998 79.737 112.828V113.323C79.737 114.595 79.185 115.84 78.083 117.056C77.374 117.732 76.729 118.167 76.149 118.361C77.615 119.924 78.348 121.989 78.348 124.558H74.832V124.292C74.832 122.392 74.062 120.881 72.524 119.762C71.646 119.142 70.498 118.831 69.081 118.831H62.219V115.473H73.624C74.872 115.473 75.718 114.857 76.161 113.624C76.2028 113.416 76.2348 113.207 76.257 112.996C76.257 112.311 75.972 111.691 75.4 111.136C74.909 110.749 74.385 110.556 73.83 110.556C73.83 110.524 73.661 110.507 73.322 110.507H62.219V107.149ZM90.26 107.161H90.38C93.055 107.161 95.338 108.257 97.231 110.447C98.456 112.091 99.067 113.879 99.067 115.811V115.932C99.067 118.606 97.948 120.877 95.709 122.745C94.082 123.954 92.298 124.558 90.357 124.558H90.236C87.578 124.558 85.302 123.471 83.41 121.296C82.75 120.37 82.287 119.52 82.02 118.747C81.7148 117.831 81.5559 116.872 81.549 115.907V115.787C81.549 113.161 82.632 110.914 84.799 109.045C86.265 107.998 87.602 107.41 88.81 107.281C89.18 107.202 89.663 107.161 90.26 107.161ZM85.028 115.836C85.028 117.351 85.62 118.68 86.804 119.823C87.859 120.724 88.966 121.176 90.126 121.176H90.464C91.399 121.176 92.349 120.858 93.316 120.222C94.314 119.489 94.991 118.555 95.345 117.419C95.457 117.121 95.538 116.609 95.586 115.885C95.586 114.403 95.011 113.094 93.858 111.958C92.779 110.999 91.595 110.52 90.306 110.52C88.8 110.52 87.463 111.148 86.295 112.405C85.804 113.05 85.493 113.596 85.364 114.048C85.141 114.676 85.028 115.272 85.028 115.836ZM100.879 107.161H104.37V124.558H100.879V107.161ZM112.489 107.149C114.833 107.149 116.177 107.202 116.524 107.306C117.474 107.419 118.545 107.818 119.737 108.502C120.389 108.904 121.083 109.521 121.815 110.35C123.12 111.969 123.772 113.81 123.772 115.871C123.779 117.047 123.54 118.211 123.072 119.29C122.154 121.376 120.643 122.883 118.542 123.809C117.567 124.309 116.069 124.558 114.048 124.558H106.642L106.255 124.486V121.175H114.422C115.292 121.175 115.964 121.099 116.44 120.946C117.705 120.519 118.63 119.883 119.218 119.037C119.935 117.967 120.293 116.923 120.293 115.908C120.293 114.886 119.983 113.879 119.363 112.887C118.976 112.316 118.55 111.881 118.083 111.582C117.229 110.882 116.009 110.531 114.422 110.531H106.255V107.148H112.489V107.149ZM29.184 36.3629C27.6081 36.3634 26.0969 36.9897 24.9826 38.1042C23.8684 39.2186 23.2423 40.7299 23.242 42.3059L23.246 67.1949C23.247 70.4859 25.908 73.1419 29.191 73.1419C32.474 73.1419 35.135 70.4859 35.132 67.1969V42.3049C35.1307 40.7283 34.5034 39.2168 33.3881 38.1026C32.2727 36.9884 30.7606 36.3626 29.184 36.3629ZM77.115 14.0119L81.263 6.43788C81.3686 6.24549 81.3936 6.01912 81.3327 5.80829C81.2718 5.59747 81.1299 5.41934 80.938 5.31288C80.7457 5.20934 80.5202 5.18593 80.3107 5.24772C80.1011 5.30952 79.9244 5.45153 79.819 5.64288L75.629 13.2969C71.9618 11.6732 67.9936 10.8408 63.983 10.8539C59.9821 10.841 56.0233 11.6703 52.364 13.2879L48.17 5.65288C48.1187 5.55765 48.049 5.47353 47.9651 5.40534C47.8811 5.33715 47.7845 5.28626 47.6807 5.25559C47.577 5.22491 47.4682 5.21507 47.3606 5.22661C47.2531 5.23816 47.1489 5.27088 47.054 5.32288C46.9585 5.37406 46.8742 5.44374 46.8059 5.52786C46.7376 5.61198 46.6868 5.70885 46.6564 5.81283C46.6259 5.91681 46.6165 6.0258 46.6286 6.13346C46.6408 6.24112 46.6742 6.34528 46.727 6.43988L50.876 14.0099C42.722 18.2149 37.213 26.2249 37.218 35.4179L90.757 35.4119C90.757 26.2189 85.258 18.2289 77.115 14.0119ZM51.806 25.7189C51.2106 25.7185 50.6398 25.4816 50.219 25.0603C49.7983 24.639 49.5621 24.0678 49.5625 23.4724C49.5629 22.877 49.7998 22.3061 50.2211 21.8854C50.6424 21.4646 51.2136 21.2285 51.809 21.2289C52.4045 21.2307 52.975 21.4682 53.3959 21.8895C53.8167 22.3107 54.0537 22.8814 54.055 23.4769C54.054 24.0724 53.8165 24.6431 53.3947 25.0635C52.973 25.4839 52.4015 25.7197 51.806 25.7189ZM76.185 25.7149C75.8902 25.7151 75.5983 25.6573 75.3258 25.5446C75.0534 25.432 74.8058 25.2667 74.5973 25.0583C74.3888 24.8499 74.2235 24.6024 74.1107 24.33C73.9979 24.0576 73.9399 23.7657 73.94 23.4709C73.9434 22.8761 74.1809 22.3065 74.601 21.8854C75.0212 21.4643 75.5902 21.2256 76.185 21.2209C76.7796 21.2261 77.3481 21.4655 77.7674 21.887C78.1867 22.3085 78.423 22.8783 78.425 23.4729C78.4253 23.7672 78.3675 24.0587 78.2551 24.3307C78.1426 24.6027 77.9777 24.8499 77.7697 25.0581C77.5616 25.2663 77.3146 25.4315 77.0427 25.5442C76.7708 25.6569 76.4794 25.7149 76.185 25.7149ZM37.435 37.4859L37.444 76.0579C37.4431 76.8909 37.6065 77.7159 37.9249 78.4856C38.2434 79.2554 38.7105 79.9548 39.2996 80.5437C39.8887 81.1326 40.5883 81.5996 41.3581 81.9177C42.128 82.2359 42.953 82.3991 43.786 82.3979L48.104 82.3999L48.11 95.5699C48.1106 97.1454 48.7362 98.6563 49.8497 99.7709C50.9632 100.886 52.4735 101.513 54.049 101.515C55.626 101.514 57.138 100.886 58.2527 99.7708C59.3675 98.6553 59.9938 97.1429 59.994 95.5659L59.99 82.3999L68.014 82.3979L68.017 95.5659C68.017 98.8429 70.684 101.513 73.959 101.507C75.5357 101.507 77.0479 100.881 78.1628 99.7656C79.2777 98.6507 79.904 97.1386 79.904 95.5619L79.9 82.3959L84.234 82.3919C85.0672 82.392 85.8923 82.228 86.6621 81.9093C87.4319 81.5905 88.1314 81.1232 88.7206 80.5341C89.3098 79.945 89.7771 79.2456 90.096 78.4759C90.4149 77.7061 90.579 76.8811 90.579 76.0479L90.572 37.4759L37.435 37.4859ZM104.752 42.2989C104.752 41.5183 104.599 40.7453 104.3 40.0241C104.002 39.3029 103.564 38.6476 103.012 38.0957C102.46 37.5437 101.805 37.106 101.084 36.8075C100.363 36.5089 99.5896 36.3555 98.809 36.3559C98.0285 36.3559 97.2556 36.5097 96.5346 36.8085C95.8135 37.1073 95.1584 37.5453 94.6067 38.0974C94.055 38.6495 93.6174 39.3049 93.3191 40.0261C93.0208 40.7474 92.8675 41.5204 92.868 42.3009L92.873 67.1919C92.8725 67.9723 93.0258 68.7452 93.3243 69.4663C93.6227 70.1874 94.0604 70.8425 94.6123 71.3943C95.1642 71.9461 95.8194 72.3837 96.5406 72.682C97.2617 72.9803 98.0346 73.1335 98.815 73.1329C99.5956 73.1331 100.369 72.9795 101.09 72.6808C101.811 72.3821 102.466 71.9441 103.018 71.392C103.57 70.8398 104.007 70.1843 104.305 69.4629C104.604 68.7416 104.757 67.9685 104.756 67.1879L104.752 42.2989Z" fill="#A4C439"/>
</svg>
