<svg width="128" height="128" viewBox="0 0 128 128" fill="none" xmlns="http://www.w3.org/2000/svg">
<path d="M63.8102 1.02637L4.55322 21.8804L13.9162 99.5174L63.8732 126.974L114.087 99.1464L123.447 21.5114L63.8102 1.02637Z" fill="#B3B3B3"/>
<path d="M117.536 25.9979L63.6719 7.62891V120.414L108.813 95.4309L117.536 25.9979Z" fill="#A6120D"/>
<path d="M11.2012 26.329L19.2272 95.763L63.6712 120.414V7.62695L11.2012 26.329Z" fill="#DD1B16"/>
<path d="M78.4992 67.6696L63.6722 74.6036H48.0442L40.6972 92.9776L27.0342 93.2316L63.6722 11.7236L78.4992 67.6696ZM77.0652 64.1786L63.7702 37.8576L52.8642 63.7256H63.6712L77.0652 64.1786Z" fill="#F2F2F2"/>
<path d="M63.6709 11.7236L63.7689 37.8576L76.1439 63.7456H63.6979L63.6709 74.5866L80.8799 74.6036L88.9219 93.2336L101.996 93.4756L63.6709 11.7236Z" fill="#B3B3B3"/>
</svg>
