<svg width="128" height="128" viewBox="0 0 128 128" fill="none" xmlns="http://www.w3.org/2000/svg">
<path d="M33.4268 71.2804V58.3184H35.1038L43.0358 68.7604V58.3184H44.6208V71.2804H42.9438L35.0138 60.7474V71.2804H33.4268ZM57.4908 70.7724C56.4458 71.1714 55.3188 71.3714 54.1098 71.3714C49.4158 71.3714 47.0678 69.1204 47.0678 64.6184C47.0678 60.3584 49.3338 58.2274 53.8648 58.2274C55.1658 58.2274 56.3738 58.4094 57.4908 58.7724V60.2224C56.3911 59.8025 55.2239 59.5873 54.0468 59.5874C50.5128 59.5874 48.7458 61.2654 48.7458 64.6174C48.7458 68.2124 50.4838 70.0114 53.9658 70.0114C54.5218 70.0114 55.1378 69.9384 55.8158 69.7924V65.3884H57.4918V70.7724H57.4908ZM60.1658 66.2774V58.3194H61.8418V66.2774C61.8418 68.7664 63.0808 70.0124 65.5588 70.0124C68.0358 70.0124 69.2748 68.7664 69.2748 66.2774V58.3194H70.9518V66.2774C70.9518 69.6734 69.1538 71.3724 65.5588 71.3724C61.9638 71.3724 60.1658 69.6744 60.1658 66.2774ZM75.6188 58.3184V69.9214H82.3998V71.2804H73.9428V58.3184H75.6188ZM84.8188 71.2804H83.0788L89.5228 56.6094L95.9678 71.2804H94.1098L92.4328 67.2014H88.1458L88.6078 65.8434H91.8718L89.4508 59.9694L84.8188 71.2804ZM97.7348 71.2804V58.3184H103.264C105.73 58.3184 106.962 59.3554 106.962 61.4274C106.962 63.1144 105.757 64.3624 103.346 65.1704L107.796 71.2794H105.584L101.461 65.4514V64.3554C103.938 63.9614 105.176 63.0094 105.176 61.5004C105.176 60.3044 104.488 59.7054 103.111 59.7054H99.4118V71.2804H97.7348ZM114.078 58.3184V67.5464C114.078 70.0354 112.613 71.2804 109.682 71.2804V69.9214C111.495 69.9214 112.402 69.1284 112.402 67.5464V58.3184H114.078ZM117.069 70.8274V69.2864C118.429 69.7694 119.897 70.0124 121.474 70.0124C123.704 70.0124 124.82 69.1974 124.82 67.5634C124.82 66.1764 123.997 65.4794 122.353 65.4794H120.685C117.972 65.4794 116.615 64.3024 116.615 61.9454C116.615 59.4674 118.353 58.2284 121.829 58.2284C123.339 58.2284 124.744 58.4114 126.043 58.7734V60.3144C124.743 59.8304 123.339 59.5874 121.829 59.5874C119.472 59.5874 118.294 60.3734 118.294 61.9444C118.294 63.3344 119.091 64.0284 120.686 64.0284H122.354C125.115 64.0284 126.497 65.2084 126.497 67.5624C126.497 70.1014 124.823 71.3714 121.476 71.3714C119.897 71.3714 118.43 71.1894 117.069 70.8274Z" fill="#CCCCCC"/>
<path d="M33.8521 70.8556V57.8956H35.528L43.459 68.3366V57.8956H45.0461V70.8556H43.369L35.438 60.3226V70.8556H33.8521ZM57.916 70.3486C56.871 70.7476 55.744 70.9476 54.535 70.9476C49.841 70.9476 47.4921 68.6976 47.4921 64.1956C47.4921 59.9346 49.7591 57.8036 54.291 57.8036C55.59 57.8036 56.799 57.9866 57.916 58.3486V59.7986C56.8164 59.3787 55.6492 59.1635 54.472 59.1636C50.938 59.1636 49.17 60.8416 49.17 64.1936C49.17 67.7896 50.91 69.5876 54.391 69.5876C54.947 69.5876 55.5641 69.5156 56.2411 69.3696V64.9646H57.917V70.3486H57.916ZM60.59 65.8536V57.8946H62.266V65.8526C62.266 68.3416 63.5051 69.5876 65.9831 69.5876C68.4611 69.5876 69.7 68.3416 69.7 65.8526V57.8946H71.376V65.8526C71.376 69.2496 69.5791 70.9476 65.9831 70.9476C62.3871 70.9476 60.59 69.2496 60.59 65.8536ZM76.043 57.8946V69.4966H82.823V70.8556H74.367V57.8946H76.043ZM85.2441 70.8556H83.503L89.948 56.1846L96.393 70.8556H94.533L92.8561 66.7766H88.57L89.033 65.4176H92.295L89.875 59.5436L85.2441 70.8556ZM98.159 70.8556V57.8956H103.688C106.154 57.8956 107.385 58.9316 107.385 61.0036C107.385 62.6896 106.181 63.9386 103.77 64.7466L108.22 70.8556H106.008L101.885 65.0286V63.9306C104.362 63.5366 105.601 62.5856 105.601 61.0756C105.601 59.8796 104.912 59.2816 103.534 59.2816H99.836V70.8556H98.159Z" fill="black"/>
<path d="M114.502 57.8947V67.1227C114.502 69.6127 113.037 70.8567 110.106 70.8567V69.4977C111.919 69.4977 112.826 68.7047 112.826 67.1227V57.8947H114.502ZM117.493 70.4027V68.8617C118.853 69.3437 120.32 69.5877 121.898 69.5877C124.127 69.5877 125.243 68.7717 125.243 67.1397C125.243 65.7507 124.421 65.0557 122.777 65.0557H121.109C118.396 65.0557 117.039 63.8767 117.039 61.5207C117.039 59.0427 118.776 57.8037 122.252 57.8037C123.763 57.8037 125.167 57.9867 126.467 58.3477V59.8897C125.167 59.4057 123.763 59.1627 122.252 59.1627C119.896 59.1627 118.717 59.9487 118.717 61.5197C118.717 62.9087 119.514 63.6037 121.11 63.6037H122.778C125.539 63.6037 126.921 64.7827 126.921 67.1387C126.921 69.6767 125.247 70.9467 121.899 70.9467C120.321 70.9467 118.853 70.7647 117.493 70.4027Z" fill="#A6120D"/>
<path d="M16.2181 47.9131L1.08008 53.2401L3.47208 73.0731L16.2341 80.0871L29.0621 72.9791L31.4531 53.1461L16.2181 47.9131Z" fill="#B3B3B3"/>
<path d="M29.9421 54.2916L16.1831 49.5996V78.4106L27.7141 72.0286L29.9421 54.2916Z" fill="#A6120D"/>
<path d="M2.77783 54.3766L4.82883 72.1136L16.1828 78.4106V49.5996L2.77783 54.3766Z" fill="#DD1B16"/>
<path d="M19.9712 64.9385L16.1832 66.7095H12.1902L10.3132 71.4035L6.82324 71.4675L16.1822 50.6465L19.9712 64.9385ZM19.6042 64.0465L16.2082 57.3225L13.4222 63.9305H16.1832L19.6042 64.0465Z" fill="#F2F2F2"/>
<path d="M16.1831 50.6465L16.2071 57.3225L19.3691 63.9365H16.1891L16.1831 66.7055L20.5781 66.7095L22.6331 71.4685L25.9731 71.5305L16.1831 50.6465Z" fill="#B3B3B3"/>
</svg>
