<svg width="128" height="128" viewBox="0 0 128 128" fill="none" xmlns="http://www.w3.org/2000/svg">
<path d="M33.8521 70.8561V57.8961H35.5281L43.4591 68.3371V57.8961H45.0461V70.8561H43.3691L35.4381 60.3231V70.8561H33.8521ZM57.9161 70.3491C56.8711 70.7481 55.7441 70.9481 54.5351 70.9481C49.8411 70.9481 47.4921 68.6981 47.4921 64.1961C47.4921 59.9351 49.7591 57.8041 54.2911 57.8041C55.5901 57.8041 56.7991 57.9871 57.9161 58.3491V59.7991C56.8164 59.3792 55.6492 59.164 54.4721 59.1641C50.9381 59.1641 49.1701 60.8421 49.1701 64.1941C49.1701 67.7901 50.9101 69.5881 54.3911 69.5881C54.9471 69.5881 55.5641 69.5161 56.2411 69.3701V64.9651H57.9171V70.3491H57.9161ZM60.5901 65.8541V57.8951H62.2661V65.8531C62.2661 68.3421 63.5051 69.5881 65.9831 69.5881C68.4611 69.5881 69.7001 68.3421 69.7001 65.8531V57.8951H71.3761V65.8531C71.3761 69.2501 69.5791 70.9481 65.9831 70.9481C62.3871 70.9481 60.5901 69.2501 60.5901 65.8541ZM76.0431 57.8951V69.4971H82.8231V70.8561H74.3671V57.8951H76.0431ZM85.2441 70.8561H83.5031L89.9481 56.1851L96.3931 70.8561H94.5331L92.8561 66.7771H88.5701L89.0331 65.4181H92.2951L89.8751 59.5441L85.2441 70.8561ZM98.1591 70.8561V57.8961H103.688C106.154 57.8961 107.385 58.9321 107.385 61.0041C107.385 62.6901 106.181 63.9391 103.77 64.7471L108.22 70.8561H106.008L101.885 65.0291V63.9311C104.362 63.5371 105.601 62.5861 105.601 61.0761C105.601 59.8801 104.912 59.2821 103.534 59.2821H99.8361V70.8561H98.1591ZM114.502 57.8951V67.1231C114.502 69.6131 113.037 70.8571 110.106 70.8571V69.4981C111.919 69.4981 112.826 68.7051 112.826 67.1231V57.8951H114.502ZM117.493 70.4031V68.8621C118.853 69.3441 120.32 69.5881 121.898 69.5881C124.127 69.5881 125.243 68.7721 125.243 67.1401C125.243 65.7511 124.421 65.0561 122.777 65.0561H121.109C118.396 65.0561 117.039 63.8771 117.039 61.5211C117.039 59.0431 118.776 57.8041 122.252 57.8041C123.763 57.8041 125.167 57.9871 126.467 58.3481V59.8901C125.167 59.4061 123.763 59.1631 122.252 59.1631C119.896 59.1631 118.717 59.9491 118.717 61.5201C118.717 62.9091 119.514 63.6041 121.11 63.6041H122.778C125.539 63.6041 126.921 64.7831 126.921 67.1391C126.921 69.6771 125.247 70.9471 121.899 70.9471C120.321 70.9471 118.853 70.7651 117.493 70.4031ZM16.1831 64.0001H19.3691L16.2081 57.3901L13.4221 64.0001H16.1831ZM16.2181 47.9131L1.08008 53.2401L3.47208 73.0731L16.2351 80.0871L29.0621 72.9791L31.4541 53.1471L16.2181 47.9131ZM12.1901 67.0001L10.3131 71.5491L6.82308 71.4681L16.1821 50.6471L25.9721 71.5491L22.6321 71.5051L20.5771 66.7831L16.1901 66.8521" fill="#C4473A"/>
</svg>
