<svg width="128" height="128" viewBox="0 0 128 128" fill="none" xmlns="http://www.w3.org/2000/svg">
<path d="M64 2C29.8 2 2 29.8 2 64C2 98.2 29.8 126 64 126C98.2 126 126 98.2 126 64C126 29.8 98.2 2 64 2ZM89.4 94.8C88.2 94.8 87.3 94.3 86 93.3L54 67.5L43.3 94.3H34L61.1 29.2C61.8 27.5 63.3 26.6 65 26.6C66.7 26.6 68.1 27.5 68.8 29.2L93.5 88.6C93.8 89.3 93.9 90 93.9 90.4C94 93 91.9 94.8 89.4 94.8Z" fill="#1A1918"/>
<path d="M64.9998 39.9004L81.0998 79.5004L56.7998 60.4004L64.9998 39.9004Z" fill="#1A1918"/>
</svg>
