<svg width="128" height="128" viewBox="0 0 128 128" fill="none" xmlns="http://www.w3.org/2000/svg">
<path d="M40.0999 125.86C39.8999 125.86 39.6999 125.76 39.4999 125.56L32.5999 116.56V125.76H30.9999V114.46C30.9999 113.96 31.3999 113.66 31.7999 113.66C31.9999 113.66 32.2999 113.76 32.3999 113.96L39.2999 122.96V113.76H40.8999V125.06C40.8999 125.56 40.4999 125.86 40.0999 125.86ZM52.9999 125.96C51.3999 125.96 49.7999 125.66 48.2999 125.06L48.6999 123.76C50.0999 124.26 51.5999 124.56 53.0999 124.56C55.0999 124.56 56.0999 123.86 56.0999 122.86C56.0999 121.96 55.2999 121.46 52.4999 120.16C49.6999 118.86 48.6999 118.06 48.6999 116.36C48.6999 114.36 50.2999 113.46 53.1999 113.46C54.3999 113.46 56.2999 113.76 57.3999 114.06L57.1999 115.36C55.9999 115.06 54.4999 114.86 53.2999 114.86C51.1999 114.86 50.3999 115.26 50.3999 116.26C50.3999 117.26 50.9999 117.66 53.8999 118.96C56.9999 120.36 57.7999 121.06 57.7999 122.56C57.6999 124.96 55.5999 125.96 52.9999 125.96ZM65.0999 113.76H66.6999V125.76H65.0999V113.76ZM81.9999 119.46C82.8999 118.86 83.4999 117.96 83.4999 116.96C83.4999 115.06 81.9999 113.86 79.5999 113.86H75.5999C75.0999 113.86 74.7999 114.26 74.7999 114.66V125.06C74.7999 125.56 75.1999 125.86 75.5999 125.86H80.3999C82.6999 125.86 84.1999 124.36 84.1999 122.36C84.2999 120.96 83.3999 119.86 81.9999 119.46ZM76.4999 115.16H79.6999C81.0999 115.16 81.8999 115.86 81.8999 117.06C81.8999 118.26 80.9999 119.06 79.6999 119.06H76.4999V115.16ZM80.4999 124.46H76.4999V120.36H80.4999C81.7999 120.36 82.6999 121.26 82.6999 122.36C82.6999 123.56 81.7999 124.46 80.4999 124.46ZM92.0999 125.76C91.6999 125.76 91.2999 125.36 91.2999 124.96V113.76H92.8999V124.36H99.2999V125.86L92.0999 125.76ZM110.4 125.96C107.1 125.96 105.1 124.76 105.1 122.26C105.1 121.06 105.8 119.96 107 119.46C106 118.76 105.4 117.86 105.4 116.86C105.4 114.66 107.1 113.56 110.4 113.56C111.5 113.56 113 113.66 114.3 113.96L114.1 115.26C112.7 115.06 111.5 114.96 110.3 114.96C108.2 114.96 107.1 115.56 107.1 116.96C107.1 118.06 108.1 118.96 109.5 118.96H112.3C112.7 118.96 113 119.26 113 119.66C113 120.06 112.7 120.36 112.3 120.36H109.3C107.7 120.36 106.7 121.16 106.7 122.36C106.7 124.16 108.3 124.66 110.3 124.66C111.4 124.66 112.9 124.56 114.1 124.26L114.3 125.56C113.3 125.76 111.7 125.96 110.4 125.96ZM23.9999 124.76L19.5999 114.06C19.4999 113.76 19.1999 113.56 18.8999 113.56C18.5999 113.56 18.2999 113.76 18.1999 114.06L13.3999 125.76H14.9999L16.8999 120.96L22.5999 125.56C22.7999 125.76 22.9999 125.86 23.1999 125.86C23.5999 125.86 23.9999 125.56 23.9999 125.06C24.0999 125.06 24.0999 124.86 23.9999 124.76ZM17.4999 119.66L18.8999 115.96L21.6999 123.06L17.4999 119.66ZM64.0999 2C36.2999 2 13.6999 24.6 13.6999 52.4C13.6999 80.2 36.2999 102.8 64.0999 102.8C91.8999 102.8 114.5 80.2 114.5 52.4C114.5 24.6 91.8999 2 64.0999 2ZM84.7999 77.5C83.7999 77.5 83.0999 77.1 81.9999 76.3L55.9999 55.3L47.2999 77.1H39.7999L61.7999 24.1C62.3999 22.7 63.5999 22 64.9999 22C66.3999 22 67.4999 22.7 68.0999 24.1L88.1999 72.4C88.3999 73 88.5999 73.5 88.5999 73.9C88.4999 76 86.6999 77.5 84.7999 77.5Z" fill="#1A1918"/>
<path d="M64.8998 32.7998L77.9998 64.9998L58.2998 49.4998L64.8998 32.7998Z" fill="#1A1918"/>
</svg>
