<svg width="128" height="128" viewBox="0 0 128 128" fill="none" xmlns="http://www.w3.org/2000/svg">
<path d="M40.0999 125.86C39.8999 125.86 39.6999 125.76 39.4999 125.56L32.5999 116.56V125.76H30.9999V114.46C30.9999 113.96 31.3999 113.66 31.7999 113.66C31.9999 113.66 32.2999 113.76 32.3999 113.96L39.2999 122.96V113.76H40.8999V125.06C40.8999 125.56 40.4999 125.86 40.0999 125.86ZM52.9999 125.96C51.3999 125.96 49.7999 125.66 48.2999 125.06L48.6999 123.76C50.0999 124.26 51.5999 124.56 53.0999 124.56C55.0999 124.56 56.0999 123.86 56.0999 122.86C56.0999 121.96 55.2999 121.46 52.4999 120.16C49.6999 118.86 48.6999 118.06 48.6999 116.36C48.6999 114.36 50.2999 113.46 53.1999 113.46C54.3999 113.46 56.2999 113.76 57.3999 114.06L57.1999 115.36C55.9999 115.06 54.4999 114.86 53.2999 114.86C51.1999 114.86 50.3999 115.26 50.3999 116.26C50.3999 117.26 50.9999 117.66 53.8999 118.96C56.9999 120.36 57.7999 121.06 57.7999 122.56C57.6999 124.96 55.5999 125.96 52.9999 125.96ZM65.0999 113.76H66.6999V125.76H65.0999V113.76ZM80.4999 120.36H76.4999V124.46H80.4999C81.8999 124.46 82.6999 123.56 82.6999 122.36C82.6999 121.26 81.7999 120.36 80.4999 120.36ZM79.6999 115.16H76.4999V118.96H79.6999C80.9999 118.96 81.8999 118.16 81.8999 116.96C81.8999 115.86 81.0999 115.16 79.6999 115.16ZM80.4999 125.76H75.6999C75.1999 125.76 74.8999 125.36 74.8999 124.96V114.56C74.8999 114.16 75.2999 113.76 75.6999 113.76H79.6999C82.1999 113.76 83.5999 114.96 83.5999 116.86C83.5999 117.86 82.9999 118.86 82.0999 119.36C83.4999 119.76 84.3999 120.96 84.3999 122.26C84.2999 124.26 82.6999 125.76 80.4999 125.76ZM92.0999 125.76C91.6999 125.76 91.2999 125.36 91.2999 124.96V113.76H92.8999V124.36H99.2999V125.86L92.0999 125.76ZM110.4 125.96C107.1 125.96 105.1 124.76 105.1 122.26C105.1 121.06 105.8 119.96 107 119.46C106 118.76 105.4 117.86 105.4 116.86C105.4 114.66 107.1 113.56 110.4 113.56C111.5 113.56 113 113.66 114.3 113.96L114.1 115.26C112.7 115.06 111.5 114.96 110.3 114.96C108.2 114.96 107.1 115.56 107.1 116.96C107.1 118.06 108.1 118.96 109.5 118.96H112.3C112.7 118.96 113 119.26 113 119.66C113 120.06 112.7 120.36 112.3 120.36H109.3C107.7 120.36 106.7 121.16 106.7 122.36C106.7 124.16 108.3 124.66 110.3 124.66C111.4 124.66 112.9 124.56 114.1 124.26L114.3 125.56C113.3 125.76 111.7 125.96 110.4 125.96ZM18.9999 116.06L21.7999 123.16L17.4999 119.76L18.9999 116.06ZM23.9999 124.76L19.5999 114.06C19.4999 113.76 19.1999 113.56 18.8999 113.56C18.5999 113.56 18.2999 113.76 18.1999 114.06L13.3999 125.76H14.9999L16.8999 120.96L22.5999 125.56C22.7999 125.76 22.9999 125.86 23.1999 125.86C23.5999 125.86 23.9999 125.56 23.9999 125.06C24.0999 125.06 24.0999 124.86 23.9999 124.76ZM114.5 52.4C114.5 80.2 91.8999 102.8 64.0999 102.8C36.2999 102.8 13.6999 80.2 13.6999 52.4C13.6999 24.6 36.2999 2 64.0999 2C91.8999 2 114.5 24.6 114.5 52.4Z" fill="#1A1918"/>
<path d="M64.8998 32.8L77.9998 65L58.2998 49.5L64.8998 32.8ZM88.0998 72.4L68.0998 24.1C67.4998 22.7 66.3998 22 64.9998 22C63.5998 22 62.3998 22.7 61.7998 24.1L39.7998 77.1H47.2998L55.9998 55.2L81.9998 76.2C82.9998 77 83.7998 77.4 84.7998 77.4C86.7998 77.4 88.4998 75.9 88.4998 73.8C88.4998 73.5 88.2998 73 88.0998 72.4Z" fill="white"/>
</svg>
