<svg width="128" height="128" viewBox="0 0 128 128" fill="none" xmlns="http://www.w3.org/2000/svg">
<path d="M126 64C126 98.2 98.2 126 64 126C29.8 126 2 98.2 2 64C2 29.8 29.8 2 64 2C98.2 2 126 29.8 126 64Z" fill="#1A1918"/>
<path d="M65 39.8996L81 79.4996L56.9 60.3996L65 39.8996ZM93.5 88.5996L68.9 29.1996C68.2 27.4996 66.8 26.5996 65.1 26.5996C63.4 26.5996 61.9 27.4996 61.2 29.1996L34 94.2996H43.3L54 67.4996L86 93.3996C87.3 94.3996 88.2 94.8996 89.4 94.8996C91.8 94.8996 93.9 93.0996 93.9 90.4996C94 89.9996 93.8 89.2996 93.5 88.5996Z" fill="white"/>
</svg>
