<svg width="128" height="128" viewBox="0 0 128 128" fill="none" xmlns="http://www.w3.org/2000/svg">
<path d="M86.7581 70.8897C81.7661 70.8897 77.2931 73.0977 74.2301 76.5697L66.3791 71.0227C67.2428 68.6786 67.6869 66.2008 67.6911 63.7027C67.6911 61.1717 67.2311 58.7527 66.4211 56.4997L74.2581 51.0117C77.3201 54.4687 81.7811 56.6637 86.7581 56.6637C95.9651 56.6637 103.461 49.1837 103.461 39.9917C103.461 30.7967 95.9651 23.3197 86.7581 23.3197C77.5471 23.3197 70.0511 30.7967 70.0511 39.9917C70.0511 41.6367 70.3011 43.2217 70.7501 44.7267L62.9101 50.2147C59.5648 46.0729 54.8065 43.3141 49.5501 42.4687V33.0387C57.1171 31.4527 62.8201 24.7457 62.8201 16.7267C62.8201 7.52969 55.3241 0.0546875 46.1171 0.0546875C36.9071 0.0546875 29.4101 7.53069 29.4101 16.7267C29.4101 24.6367 34.9651 31.2657 42.3791 32.9647V42.5117C32.2621 44.2847 24.5391 53.1017 24.5391 63.7027C24.5391 74.3547 32.3361 83.2027 42.5311 84.9137V94.9997C35.0391 96.6397 29.4111 103.309 29.4111 111.273C29.4111 120.469 36.9061 127.945 46.1171 127.945C55.3241 127.945 62.8201 120.469 62.8201 111.273C62.8201 103.309 57.1911 96.6407 49.7031 94.9997V84.9137C54.8596 84.0461 59.5261 81.3367 62.8361 77.2887L70.7381 82.8747C70.284 84.396 70.0526 85.9751 70.0511 87.5627C70.0511 96.7577 77.5471 104.234 86.7581 104.234C95.9651 104.234 103.461 96.7577 103.461 87.5627C103.461 78.3667 95.9651 70.8907 86.7581 70.8907V70.8897ZM86.7581 31.9057C91.2231 31.9057 94.8551 35.5357 94.8551 39.9917C94.8551 44.4447 91.2231 48.0737 86.7581 48.0737C82.2891 48.0737 78.6561 44.4447 78.6561 39.9917C78.6561 35.5347 82.2891 31.9057 86.7581 31.9057ZM38.0161 16.7257C38.0161 12.2697 41.6481 8.64469 46.1171 8.64469C50.5821 8.64469 54.2151 12.2697 54.2151 16.7267C54.2151 21.1837 50.5821 24.8087 46.1171 24.8087C41.6481 24.8087 38.0161 21.1837 38.0161 16.7267V16.7257ZM54.2151 111.273C54.2151 115.73 50.5821 119.355 46.1171 119.355C41.6481 119.355 38.0161 115.73 38.0161 111.273C38.0161 106.816 41.6481 103.191 46.1171 103.191C50.5821 103.191 54.2151 106.816 54.2151 111.273ZM46.1131 74.9767C39.8871 74.9767 34.8201 69.9177 34.8201 63.7027C34.8201 57.4837 39.8871 52.4257 46.1131 52.4257C52.3431 52.4257 57.4101 57.4837 57.4101 63.7027C57.4101 69.9177 52.3441 74.9767 46.1131 74.9767ZM86.7581 95.6447C82.2891 95.6447 78.6561 92.0197 78.6561 87.5627C78.6561 83.1047 82.2891 79.4797 86.7581 79.4797C91.2231 79.4797 94.8551 83.1047 94.8551 87.5617C94.8551 92.0197 91.2231 95.6447 86.7581 95.6447Z" fill="#231F20"/>
</svg>
