<svg width="128" height="128" viewBox="0 0 128 128" fill="none" xmlns="http://www.w3.org/2000/svg">
<path d="M127.6 75.9L127.3 75.4L127.1 75.3V74.9L127 74.5L126.8 74.2L126.4 74H126.3L126.2 73.8L125.9 73.6L125.6 73.4L125.2 73.3H125L124.6 72.9L124.1 72.6L123.5 72.3L122.9 72.1H122.7L122.2 71.5L121.6 71.1L121 70.8L120.4 70.6H120.3L119.7 70.2L118.9 69.9L118.4 69.8L117.9 69.4L117.4 69.2L116.9 69.1L116.4 69H115.9L115.3 69.1H115.2L114.8 68.5L114.2 68.1L113.4 67.9H112.5L111.5 68.1L111.1 68.2L110.3 67.9L109.5 67.7H106.9L105.9 67.3L105 67L104.1 66.9H103.5L102.7 66.1L101.8 65.5L101 65.1L100.2 64.9H99.3998L98.9998 65.2L98.4998 64.8L97.8998 64.5L97.1998 64.4L96.5998 64.5L95.8998 64.2L95.1998 64H94.1998L93.0998 63.6L91.8998 63.3L90.7998 63.2H90.5998L89.3998 62.5L88.1998 62.2H87.0998H87.1998L85.4998 61.8L84.3998 61.7H83.8998L83.1998 61L82.3998 60.5L81.4998 60.3L80.5998 60.4L79.9998 60.6L79.1998 60.5H77.3998V60.3L75.9998 60L74.5998 59.8L73.2998 59.7L72.7998 59.8V59.7L71.7998 59.6L70.7998 59.5H70.6998L69.5998 59L68.4998 58.7L67.4998 58.6H66.6998L65.5998 58.2L64.6998 58H63.6998L62.5998 57.2L61.6998 56.9L60.9998 56.8L60.1998 56.4L58.9998 56.2H57.8998L56.7998 55.7L55.7998 55.5H55.1998L53.9998 54.9L52.9998 54.6L51.9998 54.5L51.6998 54.6H51.7998L50.3998 53.8L49.2998 53.4L48.2998 53.3H48.1998L47.4998 52.8L46.8998 52.5L46.2998 52.3L45.5998 52.2L44.8998 52.3L44.0998 51.7L43.3998 51.4L42.4998 51.3H41.6998L40.7998 51.5L40.5998 51.6L39.5998 51.1L38.5998 50.8H37.6998L36.8998 50.3L36.1998 50H35.3998L34.6998 50.1L33.9998 50.3H33.8998L33.1998 49.6L32.5998 49.2L31.8998 49.1L31.1998 49.2L30.5998 49.5L30.3998 49.4L30.0998 49.2L29.7998 49.1L29.4998 49H28.7998L28.4998 49.1L27.9998 49.4L27.8998 49.5L26.9998 49.3H26.1998L25.4998 49.5L24.8998 50L24.4998 50.5L24.1998 51.2L23.8998 52L23.6998 52.8L23.5998 53.6L23.4998 55.2L23.5998 57V57.3C23.0998 57.1 22.5998 56.9 21.9998 56.7V56.3L22.0998 55.7L22.1998 54.4L22.2998 53.2L22.1998 52L22.0998 51.4L21.9998 50.9L21.8998 50.4L21.6998 49.9L21.4998 49.5L21.1998 49.1L20.8998 48.7L20.2998 48.2L20.4998 49.1L20.5998 49.7L20.6998 50.3L20.7998 50.8L20.8998 51.4L20.9998 51.9V52V51.9L20.8998 51.6L20.7998 51.3L20.5998 50.7L20.2998 49.7L20.1998 49.4L19.9998 48.1V47.7L20.0998 47L20.1998 46.7L20.3998 46H20.1998L19.6998 46.6L19.3998 47.3L19.0998 48L18.9998 48.6V50L19.0998 50.7L19.1998 51.4L19.0998 51.3L18.7998 50.9L18.4998 50.5L18.2998 50L18.0998 49.5L17.8998 49L17.7998 48.3L17.6998 47.3L16.9998 47.9L16.6998 48.5L16.4998 49.1V49.7L16.5998 50.3L16.7998 50.9L17.0998 51.5L17.1998 51.7L16.9998 51.9L16.3998 51.8L16.2998 52L16.6998 52.2L17.0998 52.5L18.0998 53.3L18.3998 53.6L18.8998 54.2L19.3998 54.7L19.8998 55.2L20.2998 55.6L20.5998 56L20.7998 56.2C15.0998 53.9 9.0998 51.2 1.6998 47.7L1.2998 47.5L1.4998 47.9C2.4998 49.6 5.39981 51.3 7.89981 52.9C9.0998 53.6 10.1998 54.3 10.9998 54.9C13.3998 56.2 16.5998 57.6 19.3998 58.7H19.1998L17.1998 59.1L15.7998 59.4L14.3998 59.9L13.6998 60.2L12.9998 60.4L12.3998 60.8L11.8998 61.2L11.3998 61.7L10.9998 62.2L10.6998 62.8L10.4998 63.5L10.6998 63.6L10.8998 63.4L11.3998 62.9L11.5998 62.7L12.1998 62.3L12.4998 62.1L12.7998 61.9L13.3998 61.6L13.7998 61.5L14.0998 61.4L14.7998 61.2L15.4998 61.1L16.0998 60.9L17.3998 60.2L17.9998 59.8L18.5998 59.4L19.0998 59.1L19.4998 58.9L19.7998 58.8L20.3998 59L17.9998 60.2L16.6998 61L15.9998 61.5L15.3998 62L14.7998 62.5L14.2998 63.1L13.9998 63.6L13.7998 64.2L13.6998 64.8L13.7998 65.5L14.1998 66.4L14.6998 65.4L15.0998 64.8L15.4998 64.3L15.8998 63.9L16.2998 63.6L17.1998 63L17.5998 62.8L17.4998 63.2L17.2998 64V64.9L17.3998 65.9L17.6998 67H17.8998L18.0998 65.9L18.3998 64.9L18.5998 64.4L18.9998 63.5L19.4998 62.6L20.2998 61.2L21.3998 59.4C21.7998 59.6 22.1998 59.7 22.5998 59.8L22.4998 60L21.7998 61.4L21.3998 62L21.0998 62.7L20.9998 63.4L20.7998 64.1L20.6998 64.8V65.5L20.7998 66.1L21.0998 66.7L21.5998 67.2L22.2998 67.6L23.0998 67.9L23.3998 68.5L23.7998 69L24.1998 69.4L24.5998 69.7L24.9998 69.9L25.3998 70H26.3998V70.1L26.7998 70.7L27.3998 71.2L28.0998 71.5H28.8998L29.6998 71.3L29.8998 71.5L30.4998 72.1L31.0998 72.5L31.7998 72.8L32.5998 72.9H33.1998L33.7998 73.3L34.4998 73.6L35.2998 73.8L35.8998 74.3L36.6998 74.7L37.6998 74.9L38.7998 75H38.9998L39.6998 75.6L40.4998 76L41.1998 76.3L41.9998 76.4L42.8998 76.2L43.2998 76.4L43.8998 76.7L44.4998 76.8H45.0998L45.6998 76.7L45.9998 76.9L46.9998 77.2L48.0998 77.3L49.3998 77.2L49.7998 77.4L50.6998 77.7L51.6998 77.8L53.0998 77.7H53.1998L54.0998 78L55.0998 78.1L56.1998 78L56.5998 78.3L57.5998 78.7L58.5998 78.8L59.6998 78.7V78.6L60.2998 78.8H61.2998L62.3998 78.6L63.0998 78.8H63.8998L64.6998 78.7L65.7998 78.9L66.0998 79.1L67.0998 79.4L68.0998 79.6L69.1998 79.7L70.2998 79.6V79.5L70.8998 79.7L71.7998 79.8L72.6998 79.9V79.8L73.2998 80L74.4998 80.4L75.7998 80.7L77.1998 80.4V80.3H77.3998L78.2998 80.5L79.0998 80.6H79.9998L80.0998 80.7L80.8998 81.3L81.6998 81.7H82.9998L83.7998 81.3L84.4998 80.7L85.3998 80.8L86.4998 80.7H87.6998V80.8L87.9998 81L89.0998 81.2L90.1998 81.1L91.2998 80.6H92.2998L93.4998 80.7L94.4998 80.6L95.0998 80.7H96.4998L97.3998 80.6L97.8998 80.8L98.4998 80.9L99.0998 80.8L99.6998 80.5L99.7998 80.6L100.6 80.7H103.1L103.9 80.4L105 80H106.6L107.4 79.9L107.9 80.1L108.7 80.3L109.5 80.4L110.3 80.3L111.2 80.1L111.4 80.2L112.3 80.6L113.1 80.9H113.9L114.5 80.6L115 80.1L115.3 80.2L115.8 80.3L116.3 80.4H116.8L117.3 80.3L117.8 80.1L118.5 80.2L119.3 80.1L120 79.8H120.7L121.3 79.7L121.9 79.4L122.4 79L122.5 78.9L123.1 79L123.7 78.9L124.2 79H125.1L125.5 78.7L125.8 78.5L125.9 78.3H126L126.3 78.2L126.6 78L126.8 77.5L126.9 76.9H127.1L127.4 76.8L127.5 76.5L127.6 76.6V75.9ZM20.5998 59.6L20.7998 59.1L21.0998 59.2L20.8998 59.4L20.5998 59.6ZM21.1998 52.8L21.2998 53.3L21.3998 53.8L21.4998 54.3L21.7998 55.9L21.9998 56.6L21.5998 56.4H21.6998L21.4998 56.3L20.9998 55.9V53.5L21.0998 52.7L21.1998 52.8Z" fill="#303284"/>
</svg>
