<svg width="128" height="128" viewBox="0 0 128 128" fill="none" xmlns="http://www.w3.org/2000/svg">
<path d="M126.1 72.2002L125.8 71.7002L125.6 71.6002V71.2002L125.5 70.8002L125.3 70.5002L124.9 70.3002L124.8 70.2002L124.5 69.9002L124.2 69.7002L123.8 69.6002H123.7L123.3 69.3002L122.8 69.0002L122.2 68.7002L121.6 68.5002H121.5L121 68.0002L120.4 67.6002L119.8 67.3002L119.2 67.1002H119.1L118.5 66.7002L117.7 66.4002L117.3 66.3002L116.8 66.0002L116.3 65.8002L115.8 65.7002L115.3 65.6002H114.8L114.2 65.7002L113.9 65.2002L113.2 64.8002L112.3 64.6002H111.4L110.4 64.8002L110.1 64.9002L109.4 64.6002L108.6 64.4002L107.8 64.3002H107L106.2 64.4002H106.1L105.2 64.1002L104.3 63.8002L103.4 63.7002H102.8L102 62.9002L101.1 62.3002L100.3 61.9002L99.5002 61.7002H98.7002L98.2002 61.8002L97.7002 61.4002L96.7002 61.0002L96.0002 60.9002L95.4002 61.0002L94.7002 60.7002L94.0002 60.6002L93.3002 60.5002H93.0002L92.0002 60.1002L90.8002 59.8002L89.7002 59.7002H89.5002L88.4002 59.0002L87.2002 58.7002H86.4002L84.6002 58.3002L83.5002 58.2002H83.0002L82.4002 57.6002L81.6002 57.1002L80.7002 57.0002L79.8002 57.1002L79.2002 57.3002L78.4002 57.2002H76.9002H77.0002V57.1002L75.3002 56.8002L73.8002 56.6002L72.5002 56.5002H72.0002L71.0002 56.4002L70.0002 56.3002H69.9002L68.8002 55.9002L67.7002 55.6002L66.7002 55.5002H65.9002L65.0002 54.8002L64.1002 54.6002L63.2002 54.5002H63.0002L61.9002 53.8002L61.0002 53.5002L60.3002 53.4002L59.5002 53.0002L58.4002 52.7002H57.4002L56.3002 52.2002L55.3002 52.0002H54.8002L53.7002 51.4002L52.7002 51.1002L51.7002 51.0002H51.5002L50.0002 50.3002L49.0002 50.0002L47.9002 49.9002H47.8002L47.1002 49.4002L46.5002 49.1002L45.9002 49.0002L45.2002 48.9002L44.6002 49.0002L43.9002 48.5002L43.2002 48.2002L42.2002 48.0002H41.4002L40.5002 48.2002L40.4002 48.3002L39.4002 47.9002L38.4002 47.6002H37.5002L36.6002 47.0002L35.9002 46.7002L35.1002 46.6002L34.4002 46.7002L33.7002 47.0002L33.1002 46.4002L32.4002 46.0002L31.6002 45.9002L31.0002 46.0002L30.4002 46.3002L30.0002 46.0002L29.7002 45.8002L29.4002 45.7002L29.0002 45.6002H28.5002L28.2002 45.7002L27.7002 46.0002L27.6002 46.1002L26.8002 46.0002H26.0002L25.3002 46.2002L24.7002 46.7002L24.3002 47.2002L24.0002 48.0002L23.8002 48.8002L23.6002 49.6002L23.5002 50.4002L23.4002 52.0002L23.7002 53.3002L24.0002 54.0002V54.1002C23.0002 53.9002 22.9002 53.8002 22.4002 53.6002L22.3002 53.0002V52.4002L22.4002 49.9002V49.3002L22.3002 48.1002L22.2002 47.6002L22.0002 47.1002L21.8002 46.6002L21.6002 46.1002L21.3002 45.7002L21.0002 45.3002L20.2002 44.6002V44.5002L20.3002 43.8002L20.4002 43.5002L20.6002 42.9002L20.2002 42.7002L19.7002 43.3002L19.3002 44.0002L19.0002 44.7002L18.9002 45.4002L18.8002 46.0002V46.7002L18.9002 47.4002L19.0002 47.7002L18.9002 47.5002L18.6002 47.1002L18.2002 46.2002L18.0002 45.7002L17.9002 45.1002L17.8002 43.9002L16.9002 44.7002L16.6002 45.3002L16.4002 46.0002V46.6002L16.5002 47.2002L16.7002 47.8002L17.0002 48.4002H16.9002L16.3002 48.3002L16.2002 48.7002L16.6002 48.9002L18.0002 49.9002L18.3002 50.2002L20.5002 52.7002L20.6002 52.8002C15.0002 50.6002 9.0002 47.9002 1.7002 44.4002C3.2002 46.9002 8.7002 49.5002 11.0002 51.2002C13.3002 52.4002 16.5002 53.8002 19.3002 54.9002L17.0002 55.4002L15.6002 55.7002L14.2002 56.2002L13.5002 56.5002L13.0002 57.0002L12.4002 57.4002L11.9002 57.8002L11.4002 58.3002L11.0002 58.8002L10.7002 59.4002L10.5002 60.1002L10.9002 60.3002L11.1002 60.1002L11.8002 59.4002L12.7002 58.8002L13.6002 58.3002L14.0002 58.2002L14.3002 58.1002L15.7002 57.8002L16.3002 57.6002L18.8002 56.1002L19.3002 55.8002L19.7002 55.6002L20.0002 55.5002L19.9002 55.3002C20.1002 55.4002 20.3002 55.4002 20.4002 55.5002L20.3002 55.6002L18.0002 56.8002L16.7002 57.6002L15.5002 58.5002L14.8002 59.0002L14.3002 59.6002L14.0002 60.2002L13.8002 60.8002L13.7002 61.5002L13.8002 62.2002L14.2002 63.3002L14.8002 62.1002L15.2002 61.5002L15.6002 61.0002L16.0002 60.6002L16.4002 60.3002L17.4002 59.7002V59.8002L17.3002 60.6002V61.5002L17.4002 62.5002L17.7002 63.6002H18.1002L18.2002 63.1002L18.6002 61.6002L18.8002 61.1002L19.4002 59.7002L20.4002 57.9002L21.6002 56.0002C21.9002 56.1002 22.3002 56.2002 22.6002 56.4002L21.7002 58.1002L21.4002 58.7002L21.0002 59.2002L20.8002 59.9002L20.6002 60.6002L20.5002 61.3002V62.0002L20.6002 62.6002L20.9002 63.2002L21.4002 63.8002L22.2002 64.3002L22.9002 64.5002L23.1002 65.0002L23.5002 65.5002L23.9002 65.9002L24.3002 66.2002L24.7002 66.4002L25.1002 66.7002L26.0002 67.0002H26.2002V66.9002L26.6002 67.4002L27.2002 67.8002L28.0002 68.0002H28.8002L29.5002 67.8002L29.6002 68.0002L30.2002 68.6002L30.8002 69.0002L31.4002 69.3002L32.2002 69.4002H32.8002L33.4002 69.8002L34.1002 70.1002L34.9002 70.3002L35.5002 70.8002L36.3002 71.2002L37.3002 71.4002L38.4002 71.5002L38.5002 71.6002L39.2002 72.2002L40.0002 72.6002L40.7002 72.9002L41.6002 73.0002L42.4002 72.8002L42.8002 73.0002L43.4002 73.3002L44.0002 73.4002H44.6002L45.2002 73.3002L45.5002 73.5002L46.5002 73.8002L47.6002 73.9002L48.9002 73.8002L49.2002 74.0002L50.1002 74.3002L51.1002 74.4002L52.5002 74.3002L53.4002 74.6002L54.4002 74.7002L55.5002 74.6002L55.9002 74.9002L56.9002 75.3002L58.0002 75.4002L59.1002 75.3002V75.2002L59.7002 75.3002H60.7002L61.8002 75.1002L62.4002 75.3002L63.2002 75.5002L64.0002 75.6002H65.0002L65.2002 75.7002L66.2002 76.0002L67.2002 76.2002L68.3002 76.3002L69.4002 76.2002V76.1002L70.0002 76.3002L70.9002 76.4002L71.8002 76.5002V76.4002L72.4002 76.6002L73.6002 76.8002L74.9002 76.9002L76.3002 76.8002L77.0002 77.0002L77.9002 77.2002L78.7002 77.3002H79.6002L79.7002 77.4002L80.5002 77.8002L81.3002 78.0002H82.1002L82.9002 77.8002L83.6002 77.3002L84.5002 77.7002L85.6002 78.0002H86.8002V77.8002H87.1002L88.2002 77.9002L89.3002 77.8002L90.4002 77.4002L91.4002 77.5002H92.6002L93.5002 77.3002L94.1002 77.4002H94.8002L96.3002 77.2002L96.8002 77.4002L97.4002 77.5002L98.0002 77.4002L98.5002 77.1002H98.6002L99.4002 77.5002L100.2 77.8002H101L101.9 77.5002L102.7 77.0002L103.6 76.4002H104.3L105.2 76.3002L106 76.2002L106.5 76.4002L107.3 76.5002L108.1 76.6002L108.9 76.5002L109.7 76.3002L109.9 76.4002L110.8 76.6002L111.6 76.7002H112.4L113.1 76.6002L113.6 76.2002L113.9 76.3002L114.4 76.5002L114.9 76.6002H115.4L115.9 76.5002L116.3 76.3002L117 76.4002L117.8 76.3002L118.5 76.0002H119.2L119.8 75.9002L120.4 75.6002L120.9 75.2002H121.5L122.1 75.1002L122.6 74.9002L123.2 74.6002H123.9L124.2 74.5002L124.3 74.4002L124.6 74.3002L124.9 74.1002L125.1 73.8002L125.2 73.5002H125.4L125.8 73.1002L125.9 72.8002H126L126.1 72.2002ZM17.2002 56.5002L16.0002 57.2002L15.5002 57.4002L14.8002 57.5002L13.4002 58.0002L12.4002 58.5002L11.5002 59.1002L11.4002 59.2002L11.8002 58.5002L12.2002 58.0002L12.7002 57.6002L13.2002 57.2002L13.8002 56.9002L14.4002 56.6002L15.7002 56.2002L18.3002 55.6002L17.2002 56.5002ZM122.2 73.9002L123.1 74.4002L123.5 74.6002L123.6 74.8002L123.5 75.0002H123.2L122.9 74.8002L122.8 74.7002L122.4 74.6002L121.4 74.2002L121.1 74.1002L120.4 73.7002L120.1 73.4002L120 73.3002L119.8 73.2002L119.2 72.6002L119.1 72.5002L120.3 72.6002L120.6 72.9002L121 73.2002L121.6 73.6002L121.9 73.8002L122.2 73.9002ZM120.5 70.4002L121 70.2002L121.8 70.0002L122.8 69.9002H123.2L123.7 70.0002L124 70.1002L124.3 70.2002H123.6L123.1 70.3002H123L122.7 70.4002L122 70.6002L121.6 70.8002L121 71.1002L120.7 71.2002L120.6 71.3002H120.5L119.2 71.1002L119.3 71.0002L119.7 70.6002L120 70.4002L120.4 70.2002L120.5 70.4002ZM125.6 72.6002L125.1 72.5002L123.7 72.2002L124.7 72.0002H125.2L125.5 72.1002L125.7 72.4002L125.6 72.6002ZM125.2 71.5002H124.7L124.3 71.6002L122.8 72.0002L122.7 72.1002L121.2 71.8002L121.4 71.7002L123 71.0002L123.4 70.9002L123.9 70.8002H124.8L125 70.9002L125.1 71.1002L125.2 71.4002V71.5002ZM122.4 69.4002L122.6 69.5002H121.6L120.9 69.7002H120.8L120.3 69.9002H120.2L119.9 70.0002L119.4 70.2002L119 70.5002L118.7 70.8002L118.5 71.1002L117.7 71.0002H117.3L116.5 70.9002H116.2L115.8 70.8002L115.9 70.6002L116.2 70.2002L116.6 69.8002L117 69.5002L117.5 69.2002L118 69.0002L118.2 68.9002L118.9 68.7002L119.3 68.6002H120.2L121 68.7002L121.4 68.8002L122 69.0002L122.4 69.4002ZM120.5 68.3002H119.6L119 68.4002L118.4 68.5002L118.1 68.6002H117.9L117.5 68.7002L116.7 69.1002L116.4 69.3002L116.2 69.4002L116.1 69.5002L115.8 69.9002L115.7 70.0002L115.4 70.5002L115.2 70.8002L113 70.5002L112.5 70.4002H112.4L113 70.0002L113.1 69.9002L114.8 68.8002L115.5 68.3002L116.7 67.7002L117.3 67.5002L117.9 67.4002L118.5 67.3002H119.1L119.6 67.4002L120.1 67.7002L120.5 68.3002ZM118 67.0002L117.5 67.1002L117 67.2002L116.5 67.4002L115.5 67.9002L114.6 68.5002L113.9 69.0002L113.4 69.3002L112.3 70.1002L111.9 70.4002L111.6 70.6002L109.1 70.3002L109.2 70.2002L111 68.9002L111.6 68.5002L112.9 67.8002L113.6 67.5002L114.3 67.2002L115 67.0002H115.7L116.4 67.1002H116.9L117.6 67.0002L118.3 67.2002L118 67.0002ZM114.6 66.0002H116.2H116L115.1 66.3002L114.2 66.6002L113.4 66.9002L112.6 67.3002L111.1 68.2002L109.3 69.4002L108.5 70.1002L107.1 69.9002L106.5 69.8002L107.9 69.1002L109 68.5002L109.9 68.0002L112.1 66.9002L112.6 66.7002L113.1 66.5002L114.1 66.2002L114.6 66.0002ZM111.3 65.0002H112.1L112.8 65.1002L113.3 65.4002L113.5 65.7002L113.2 65.8002L112.7 66.0002L112 66.3002L111.5 66.6002L110.6 67.0002L107.9 68.5002L106.7 69.1002L105.5 69.7002L104.6 69.6002L103 69.5002L102.3 69.4002L104.4 68.0002L106.3 66.9002L107.4 66.4002L108.4 65.9002L109.5 65.5002L110.4 65.2002L110.8 65.1002L111.3 65.0002ZM106.8 64.7002H107.6L108.4 64.8002L109.1 65.0002L109.2 65.1002L108.4 65.4002L106.3 66.4002L104.1 67.6002L102.3 68.7002L101.6 69.2002L101.5 69.3002L98.5002 69.0002L98.7002 68.8002L99.2002 68.3002L100.5 67.3002L102 66.3002L103.5 65.5002L104.3 65.2002L105.1 65.0002L105.9 64.8002L106.8 64.7002ZM103.8 64.2002L104.7 64.4002L104.9 64.5002L104.1 64.8002L103.4 65.1002L102.7 65.4002L102 65.8002L101.4 66.2002L100.3 67.0002L99.0002 68.1002L98.9002 68.2002L98.6002 68.5002L98.0002 69.0002L94.3002 68.5002L94.4002 68.4002L95.2002 67.4002L95.8002 66.8002L96.4002 66.2002L97.0002 65.7002L97.7002 65.3002L98.4002 64.9002L99.1002 64.6002L99.6002 64.4002L100.5 64.2002L101.4 64.1002H102.9L103.8 64.2002ZM98.3002 62.0002H99.0002L99.8002 62.2002L100.6 62.6002L101.4 63.2002L101.8 63.6002H101.3L100.5 63.7002L99.7002 63.9002L99.5002 64.0002H99.4002L98.9002 64.2002L98.3002 64.4002L97.7002 64.7002L97.2002 65.0002L96.6002 65.4002L96.0002 65.9002L95.4002 66.4002L94.8002 67.0002L94.2002 67.7002L94.1002 68.0002L93.7002 68.5002L91.8002 68.2002L90.9002 68.1002L92.6002 66.0002L93.8002 64.7002L94.5002 64.1002L95.0002 63.7002L96.0002 63.0002L96.6002 62.7002L97.2002 62.4002L97.8002 62.2002L98.3002 62.0002ZM97.1002 61.6002L97.3002 61.8002L96.7002 62.0002L96.0002 62.4002L95.2002 62.9002L94.5002 63.5002L93.8002 64.2002L93.7002 64.3002L93.5002 64.5002L93.0002 65.1002L92.5002 65.6002L92.0002 66.2002L90.4002 68.0002L88.0002 67.7002L88.1002 67.6002L89.1002 66.7002L91.0002 64.8002L91.4002 64.4002L92.5002 63.4002L93.0002 63.0002L93.5002 62.6002L94.0002 62.2002L95.1002 61.6002L95.6002 61.4002L96.2002 61.3002H96.8002L97.1002 61.6002ZM93.9002 61.0002L94.6002 61.2002L94.8002 61.3002L94.6002 61.4002L93.9002 61.8002L93.7002 61.9002L93.0002 62.3002L92.6002 62.6002L92.3002 62.8002L91.9002 63.1002L91.4002 63.5002L91.0002 64.1002L90.7002 64.4002L90.1002 65.0002L88.8002 66.4002L87.7002 67.5002L87.2002 67.9002L85.0002 67.4002L84.1002 67.3002L85.6002 65.4002L86.4002 64.5002L87.2002 63.7002L88.0002 63.0002L88.5002 62.6002L89.1002 62.2002L89.8002 61.8002H89.9002L90.5002 61.5002L90.6002 61.4002L90.8002 61.3002L91.4002 61.1002L92.1002 61.0002L92.7002 60.9002L93.3002 61.0002V60.9002H93.4002L93.9002 61.0002ZM91.8002 60.5002L91.1002 60.7002L90.7002 60.9002H90.6002L90.5002 61.0002H90.3002L89.9002 61.2002L89.7002 61.3002L89.3002 61.5002L88.6002 62.0002L88.4002 62.1002L88.3002 62.2002L87.6002 62.8002L86.3002 64.0002L84.6002 65.8002L83.6002 67.1002L79.8002 66.7002L79.5002 66.6002H79.2002L79.6002 66.3002L80.3002 65.7002L81.6002 64.6002L82.3002 63.9002L82.7002 63.5002L84.3002 62.1002L85.1002 61.5002L85.9002 61.0002L86.1002 60.9002L86.8002 60.6002L87.6002 60.3002L88.5002 60.0002L89.0002 59.9002H89.8002L90.9002 60.0002L91.8002 60.5002ZM88.2002 59.5002L88.7002 59.8002H88.6002L87.6002 60.0002L86.6002 60.4002L85.7002 60.9002H85.6002L85.1002 61.2002L84.5002 61.6002L83.9002 62.0002L83.4002 62.5002L82.2002 63.6002L80.8002 64.9002L79.2002 66.2002L78.5002 66.7002H77.6002L77.0002 66.6002L76.4002 66.5002L75.4002 66.3002L75.7002 66.2002L76.3002 65.8002L76.9002 65.3002L77.9002 64.4002L80.9002 61.8002L81.9002 61.0002L83.0002 60.3002L84.1002 59.7002L85.2002 59.3002L86.3002 59.1002H87.3002L88.2002 59.5002ZM83.5002 58.7002L84.6002 58.8002L85.0002 58.9002L84.6002 59.0002L83.6002 59.5002L82.6002 60.0002L81.7002 60.6002L80.8002 61.2002L80.0002 61.9002L78.5002 63.2002L76.9002 64.6002L76.8002 64.7002L76.1002 65.3002L75.4002 65.8002L74.9002 66.0002H74.0002L72.8002 65.9002H71.9002L73.2002 65.0002L74.8002 63.6002L76.4002 62.1002L78.0002 60.8002L78.8002 60.2002L79.7002 59.7002L80.6002 59.3002L81.5002 59.0002L82.2002 58.9002L83.5002 58.7002ZM81.4002 57.6002L82.1002 57.8002L82.4002 58.0002L81.4002 58.4002V58.5002H81.3002L80.5002 58.8002L79.7002 59.1002L79.0002 59.5002L78.3002 59.9002L77.0002 60.9002L73.7002 63.9002L72.2002 65.1002L71.5002 65.6002H70.3002L68.9002 65.5002L69.0002 65.4002L69.4002 65.1002L70.4002 64.3002L71.4002 63.5002L74.2002 61.1002L75.5002 60.0002L77.0002 59.0002L77.7002 58.5002L78.5002 58.1002L79.2002 57.7002L79.9002 57.5002L80.7002 57.4002L81.4002 57.6002ZM76.7002 57.5002H78.5002L78.0002 57.7002L77.1002 58.3002L76.1002 59.0002L75.4002 59.6002L75.3002 59.7002L74.6002 60.3002L71.2002 63.2002L70.0002 64.2002L68.9002 65.0002L68.4002 65.3002H68.3002L66.5002 65.0002H66.0002L66.4002 64.2002L67.0002 63.2002L67.7002 62.3002L68.4002 61.5002L69.2002 60.7002L70.1002 60.0002L71.0002 59.4002L71.6002 59.0002L73.0002 58.3002L73.8002 58.0002L74.0002 57.9002L74.7002 57.7002L75.6002 57.5002H76.7002ZM72.5002 56.8002L73.7002 56.9002L75.0002 57.0002L75.5002 57.1002L74.6002 57.4002L74.0002 57.6002L73.7002 57.7002L72.7002 58.1002L71.7002 58.6002L71.4002 58.8002L71.3002 58.9002L70.6002 59.3002L69.9002 59.8002L69.2002 60.3002L68.5002 60.9002L67.9002 61.5002L67.4002 62.0002L66.9002 62.7002L66.4002 63.4002L65.9002 64.2002L65.5002 64.9002H65.1002L64.4002 64.7002H64.0002L63.6002 64.6002H63.4002L63.8002 63.8002L64.2002 63.1002L65.0002 61.7002L65.3002 61.2002L65.9002 60.4002L66.5002 59.6002L67.2002 58.9002L67.9002 58.3002L68.7002 57.8002L69.3002 57.5002L70.1002 57.2002L71.0002 57.0002L71.6002 56.9002L72.5002 56.8002ZM70.6002 56.6002L70.3002 56.7002L69.3002 57.1002L69.1002 57.2002L68.4002 57.5002L67.8002 57.9002L67.2002 58.3002L66.7002 58.7002L66.2002 59.2002L65.8002 59.7002L64.9002 61.0002L64.4002 61.9002L63.9002 62.8002L63.6002 63.5002L63.0002 64.4002L61.3002 64.1002H61.0002L61.2002 63.4002L61.8002 62.0002L62.2002 61.3002L62.6002 60.7002L63.1002 60.1002L63.6002 59.5002L64.2002 59.0002L64.8002 58.5002L65.5002 58.1002L66.2002 57.7002L66.9002 57.4002L67.7002 57.1002L68.5002 56.9002L69.3002 56.8002H70.4002L70.6002 56.6002ZM67.7002 55.8002L68.7002 56.1002L68.9002 56.2002L68.2002 56.3002L67.3002 56.5002L66.4002 56.8002L65.6002 57.2002L64.8002 57.7002L64.0002 58.2002L63.3002 58.8002L62.7002 59.5002L62.0002 60.3002L61.5002 61.2002L61.0002 62.1002L60.6002 63.1002L60.4002 63.8002L57.9002 63.4002L58.2002 62.6002L58.6002 61.6002L59.1002 60.6002L59.7002 59.7002L60.3002 58.9002L60.9002 58.2002L61.6002 57.5002L62.3002 56.9002L62.9002 56.5002H63.0002L63.8002 56.1002L64.5002 55.9002L64.8002 55.8002L65.7002 55.7002H66.7002L67.7002 55.8002ZM64.8002 55.3002L64.9002 55.4002H64.7002L63.8002 55.7002L63.0002 56.0002L62.8002 56.1002L62.1002 56.5002L61.4002 57.0002L60.8002 57.5002L59.8002 58.6002L59.4002 59.2002L59.0002 59.8002L58.4002 61.0002L57.8002 62.4002L57.4002 63.3002L55.8002 63.0002L55.0002 62.8002L55.2002 62.4002L55.5002 61.7002L56.1002 60.4002L56.9002 59.1002L57.0002 58.9002L57.5002 58.3002L58.1002 57.6002L58.8002 56.9002L59.5002 56.3002L60.2002 55.8002L60.9002 55.4002L61.6002 55.2002L62.4002 55.0002L63.2002 54.9002L64.0002 55.0002L64.8002 55.3002ZM61.7002 54.2002L62.2002 54.5002L61.2002 54.8002L60.5002 55.1002L59.8002 55.5002L59.1002 56.0002L58.5002 56.5002L58.0002 57.0002L57.5002 57.6002L57.0002 58.2002L56.7002 58.7002L56.5002 58.9002L55.9002 59.8002L54.9002 61.9002L54.6002 62.8002L53.0002 62.2002L54.3002 59.6002L55.1002 58.2002L55.9002 57.0002L56.4002 56.3002L57.0002 55.7002L57.6002 55.1002L58.2002 54.6002L58.8002 54.2002L59.4002 54.0002L60.0002 53.9002H60.7002V53.8002H61.1002L61.7002 54.2002ZM59.3002 53.4002L59.5002 53.5002L59.2002 53.6002L58.4002 54.0002L57.6002 54.5002L56.9002 55.1002L56.2002 55.9002L55.6002 56.7002L55.0002 57.6002L54.6002 58.0002L54.4002 58.3002L53.1002 60.5002L52.3002 62.1002L49.7002 61.6002L49.9002 61.1002L50.2002 60.5002L51.1002 58.9002L51.7002 58.0002L52.2002 57.3002L52.6002 56.7002L53.7002 55.5002L54.3002 54.9002L54.9002 54.4002L55.5002 54.0002L55.9002 53.7002L56.4002 53.5002L57.3002 53.2002H58.3002L59.3002 53.4002ZM56.6002 52.9002L56.0002 53.2002L55.8002 53.3002L55.4002 53.5002L54.5002 54.2002L53.6002 55.0002L52.8002 55.9002L52.0002 56.8002L51.9002 57.0002L51.8002 57.1002L50.8002 58.5002L50.4002 59.2002L49.7002 60.5002L49.4002 61.1002L49.3002 61.5002L47.3002 61.0002L47.7002 60.1002L48.7002 58.1002L49.2002 57.2002L50.1002 55.7002L50.6002 55.0002L50.8002 54.7002L51.5002 54.0002L52.2002 53.4002L52.9002 52.9002L53.6002 52.6002L54.4002 52.4002H55.3002L56.2002 52.6002L56.6002 52.9002ZM51.6002 51.5002H52.5002L53.4002 51.8002L53.9002 52.0002L53.4002 52.1002L52.9002 52.3002L52.4002 52.5002L51.9002 53.0002L51.4002 53.4002L51.0002 53.8002L50.5002 54.3002L50.2002 54.8002L49.8002 55.3002L49.2002 56.2002L48.7002 57.0002L47.7002 58.8002L47.0002 59.9002L46.7002 60.9002L44.2002 60.4002L44.8002 59.1002L45.2002 58.3002L46.1002 56.4002L46.6002 55.5002L47.2002 54.6002L47.8002 53.8002L48.5002 53.1002L49.2002 52.5002L49.9002 52.1002L50.0002 52.0002L50.7002 51.7002L51.6002 51.5002ZM49.8002 50.8002L50.6002 51.2002L49.9002 51.6002H49.8002L49.7002 51.7002L49.6002 51.8002L49.0002 52.1002L48.4002 52.6002L47.9002 53.1002L47.0002 54.2002L46.6002 54.8002L45.5002 56.7002L44.0002 59.6002L43.7002 60.2002L43.1002 60.1002L41.5002 59.7002H41.4002L43.5002 54.5002L44.0002 53.6002L44.3002 53.1002L44.6002 52.7002L45.0002 52.1002L45.5002 51.6002L45.9002 51.2002L46.4002 50.9002L47.1002 50.6002L47.9002 50.5002L48.8002 50.6002L49.8002 50.8002ZM45.8002 49.4002L46.4002 49.6002L46.9002 49.8002L47.0002 49.9002L46.2002 50.3002L45.6002 50.7002L45.5002 50.8002L45.3002 50.9002L44.7002 51.6002L44.1002 52.4002L43.9002 52.8002L43.8002 53.0002L43.4002 53.7002L42.3002 55.9002L40.8002 59.4002L37.9002 58.5002L37.2002 58.4002L37.8002 56.9002L38.8002 54.9002L39.6002 53.5002L40.1002 52.8002L40.6002 52.1002L41.2002 51.5002L41.8002 50.9002L42.4002 50.4002L43.0002 50.0002L43.5002 49.7002L43.9002 49.5002L44.6002 49.3002L45.2002 49.2002L45.8002 49.4002ZM41.4002 48.5002H42.2002L43.0002 48.6002L43.7002 48.9002L44.0002 49.1002L43.6002 49.3002L43.4002 49.4002L43.0002 49.5002L42.2002 49.9002L41.4002 50.5002L40.6002 51.2002L40.0002 52.0002L39.3002 53.0002L38.6002 54.1002L37.9002 55.4002L37.3002 56.9002L37.0002 57.8002L36.8002 58.3002L34.3002 57.6002L34.4002 56.6002L34.6002 55.8002L34.9002 54.8002L35.1002 54.3002L35.6002 53.3002L36.2002 52.3002L36.8002 51.4002L37.5002 50.6002L38.3002 49.9002L39.1002 49.3002L39.8002 48.9002L40.9002 48.5002H41.4002ZM39.2002 48.3002L39.7002 48.5002L39.6002 48.6002L39.3002 48.7002L38.4002 49.2002L37.6002 49.8002L36.9002 50.5002L36.3002 51.2002L35.6002 52.0002L35.2002 52.8002L34.8002 53.6002L34.5002 54.4002L34.4002 54.7002L34.2002 55.3002L34.1002 55.7002V55.8002L34.0002 56.4002L33.9002 56.9002L33.8002 57.3002V57.5002L33.4002 57.4002L32.5002 57.0002L31.9002 56.8002L32.1002 56.3002L32.4002 55.4002L32.7002 54.5002L33.4002 52.7002L34.0002 51.3002L34.3002 50.7002L34.7002 50.1002L35.1002 49.5002L35.5002 49.0002L35.9002 48.6002L36.2002 48.4002L36.7002 48.2002L37.4002 48.1002H38.2002L39.2002 48.3002ZM34.5002 47.2002L35.1002 47.1002L35.8002 47.2002L36.4002 47.4002L36.7002 47.6002L36.1002 47.9002L36.0002 48.0002H35.9002L35.3002 48.5002L34.7002 49.1002L34.2002 49.8002L33.8002 50.6002L33.7002 51.0002L33.4002 51.7002L31.9002 55.3002L31.7002 56.0002L31.5002 56.5002L31.0002 56.4002L30.7002 56.3002L29.9002 56.0002L29.1002 55.8002L29.2002 55.0002L29.4002 54.0002L29.7002 53.0002L30.0002 52.0002L30.4002 51.1002L30.8002 50.4002L31.5002 49.4002L32.3002 48.5002L33.2002 47.7002H33.3002L33.9002 47.4002L34.5002 47.2002ZM31.1002 46.4002L31.7002 46.3002L32.3002 46.4002L32.8002 46.7002L33.3002 47.2002L33.0002 47.4002H32.9002L32.2002 47.9002L31.6002 48.5002L31.0002 49.2002L30.5002 50.0002L30.3002 50.3002L30.0002 50.7002L29.7002 51.3002L29.2002 52.5002L28.8002 53.8002L28.5002 55.2002L28.4002 55.7002L27.7002 55.5002L26.4002 55.0002L26.5002 54.5002V54.3002L27.0002 52.4002L27.2002 51.8002L27.6002 50.7002L28.1002 49.7002L28.4002 49.2002L29.0002 48.3002L29.4002 47.9002L30.1002 47.1002L30.5002 46.8002L31.1002 46.4002ZM28.4002 46.2002L28.7002 46.1002H29.2002L29.5002 46.2002L29.8002 46.3002L30.0002 46.5002L29.6002 46.8002L29.0002 47.4002L28.5002 48.2002L28.0002 49.1002L27.5002 50.0002L27.1002 50.9002L26.7002 51.9002L26.4002 52.8002L26.2002 53.7002L26.1002 54.3002L26.0002 54.7002H25.7002L25.2002 54.5002H25.1002L25.2002 53.9002L25.5002 52.5002L25.8002 51.3002L26.2002 50.0002L26.6002 48.9002L27.0002 48.0002L27.4002 47.3002L27.8002 46.8002L28.1002 46.5002L28.4002 46.2002ZM23.9002 50.4002L24.0002 49.6002L24.2002 48.9002L24.4002 48.2002L24.7002 47.6002L25.0002 47.0002L25.5002 46.6002L26.1002 46.4002H26.8002L27.3002 46.5002L27.0002 46.9002L26.7002 47.3002L26.2002 48.3002L25.6002 50.0002L25.0002 52.4002L24.6002 54.2002L24.0002 54.0002L23.9002 52.0002V50.4002ZM18.6002 50.0002L18.1002 49.3002L18.3002 49.4002L18.7002 49.6002L19.4002 50.1002L19.7002 50.4002L20.2002 51.1002L20.3002 51.4002L20.5002 52.0002L20.1002 51.5002L19.2002 50.5002L18.6002 50.0002ZM21.4002 53.0002V51.7002L21.7002 53.4002L21.5002 53.3002L21.4002 53.0002ZM21.3002 46.4002L21.5002 46.8002L21.7002 47.3002L21.8002 47.8002L21.9002 48.3002L22.0002 50.0002L21.9002 52.2002L21.5002 50.0002L21.4002 49.5002L21.3002 48.0002L21.2002 47.4002L21.0002 46.4002L20.9002 45.9002L21.3002 46.4002ZM20.5002 45.9002L20.6002 46.5002L20.7002 47.1002L20.8002 47.7002L20.7002 47.4002L20.4002 46.4002L20.3002 45.7002V44.9002L20.5002 45.9002ZM19.2002 47.4002L19.0002 46.7002V46.0002L19.2002 45.4002L19.4002 44.8002L19.7002 44.2002L19.8002 44.0002V45.0002L19.9002 46.1002L20.0002 46.5002L20.3002 47.5002L20.5002 48.1002L20.6002 48.3002L20.7002 48.6002L20.8002 49.2002L20.9002 50.3002V50.8002L20.8002 50.6002L20.6002 50.0002L20.4002 49.5002L19.8002 48.7002L19.6002 48.6002L19.2002 47.4002ZM16.9002 47.1002L16.8002 46.6002V46.0002L16.9002 45.5002L17.2002 45.0002L17.3002 44.9002V45.2002L17.4002 45.9002L17.6002 46.5002L18.1002 47.5002L18.4002 47.9002L19.1002 48.8002V48.9002L19.3002 49.6002L19.4002 49.8002L19.0002 49.3002L18.5002 49.0002L18.0002 48.8002L17.6002 48.6002L17.4002 48.2002L17.1002 47.6002L16.9002 47.1002ZM16.0002 59.9002L15.6002 60.3002L15.2002 60.7002L14.8002 61.2002L14.4002 61.8002L14.3002 62.1002L14.2002 62.0002L14.1002 61.4002L14.2002 60.9002L14.4002 60.4002L14.7002 59.9002L15.1002 59.4002L15.6002 58.9002L16.8002 58.0002L18.1002 57.2002L20.1002 56.1002L20.0002 56.4002L19.2002 56.9002L18.8002 57.2002L18.4002 57.6002L18.0002 58.0002L17.7002 58.5002L17.5002 59.0002L16.0002 59.9002ZM19.5002 57.2002L19.0002 57.9002L18.3002 58.5002L18.4002 58.3002L18.7002 57.9002L19.1002 57.5002L19.5002 57.2002ZM20.2002 57.1002L19.1002 59.0002L18.2002 60.9002L17.7002 62.4002V62.5002L17.5002 61.5002V60.7002L17.6002 60.0002L17.8002 59.4002L18.4002 59.0002L19.3002 58.3002L20.2002 57.1002L20.4002 56.7002L20.5002 56.6002L20.2002 57.1002ZM20.8002 55.9002L20.9002 55.6002H21.0002L20.8002 55.9002ZM21.9002 63.5002L21.5002 63.0002L21.2002 62.5002L21.0002 62.0002V61.4002L21.1002 60.8002L21.3002 60.1002L21.8002 58.8002L22.1002 58.2002L22.4002 57.7002L22.9002 56.7002L23.3002 56.8002L23.5002 56.9002L23.4002 57.5002V57.6002L23.0002 58.2002L22.7002 59.6002L22.6002 60.8002V61.9002L22.7002 62.9002L22.9002 63.7002L23.0002 63.9002L22.6002 63.8002L21.9002 63.5002ZM25.4002 66.2002L25.1002 66.0002L24.8002 65.8002L24.5002 65.6002L24.2002 65.3002L23.9002 64.9002L23.8002 64.6002L23.6002 64.0002L23.2002 63.0002L23.1002 62.5002V61.5002L23.3002 59.4002L23.4002 58.9002L23.5002 58.4002L23.6002 58.1002L23.7002 57.8002L23.9002 57.0002L25.7002 57.6002L25.4002 58.6002L25.2002 59.8002L25.1002 61.0002V61.6002L25.2002 62.8002L25.4002 64.1002L25.5002 64.4002L25.8002 65.4002L26.0002 66.0002L25.4002 66.2002ZM29.2002 67.5002L28.7002 67.6002H28.1002L27.5002 67.4002L27.1002 67.0002L26.7002 66.5002L26.3002 65.8002L26.1002 65.0002L25.9002 64.2002V64.1002L25.8002 63.2002L25.7002 62.3002V61.3002L25.8002 59.5002L25.9002 58.7002L26.1002 58.0002L26.2002 57.6002L28.1002 58.3002L28.0002 58.7002L27.7002 60.0002L27.6002 61.3002V62.5002L27.7002 63.1002L27.9002 64.3002L28.2002 65.5002L28.7002 66.6002L29.1002 67.3002L29.2002 67.5002ZM32.4002 69.0002L31.7002 68.9002L31.1002 68.6002L30.5002 68.2002L30.0002 67.8002L29.6002 67.2002L29.5002 67.0002L29.2002 66.4002L28.8002 65.6002L28.5002 64.7002L28.3002 63.8002L28.2002 62.9002L28.1002 62.0002V61.1002L28.2002 60.2002L28.4002 59.3002L28.6002 58.7002L30.9002 59.4002L31.0002 63.6002L31.1002 64.2002V64.8002L31.2002 65.6002L31.3002 66.4002L31.5002 67.1002L31.7002 67.8002L32.0002 68.4002L32.3002 68.9002L32.5002 69.1002L32.4002 69.0002ZM33.8002 69.4002L33.7002 69.3002H33.9002L33.0002 68.8002L32.8002 68.6002L32.4002 68.1002L32.2002 67.6002L32.0002 67.1002L31.8002 66.4002L31.6002 65.0002L31.5002 64.0002V62.8002L31.4002 60.0002V59.4002L31.9002 59.6002L32.2002 59.7002L33.2002 60.0002V61.7002L33.0002 63.9002V64.3002L33.2002 65.3002L33.4002 66.2002L33.5002 66.8002V67.1002L33.7002 68.0002V68.2002L33.9002 68.8002L34.2002 69.4002L34.4002 69.7002L33.8002 69.4002ZM37.6002 70.9002L36.7002 70.7002L35.9002 70.4002L35.4002 70.0002L35.2002 69.8002L34.8002 69.3002L34.4002 68.6002L34.2002 68.0002L33.9002 66.9002L33.8002 66.2002V64.0002L33.9002 62.5002V61.6002L33.7002 60.3002L35.4002 60.8002L35.2002 61.7002L35.1002 62.8002V64.2002L35.2002 65.0002L35.3002 65.9002L35.6002 66.8002L35.9002 67.7002L36.2002 68.2002L36.3002 68.4002L36.8002 69.4002L37.4002 70.3002L38.0002 71.1002L38.1002 71.2002L37.6002 70.9002ZM41.7002 72.3002H41.0002L40.3002 72.0002L39.6002 71.6002L39.0002 71.2002L38.8002 71.0002L38.0002 70.1002L37.3002 69.2002L36.7002 68.2002L36.5002 67.8002L36.2002 67.0002L35.9002 65.9002L35.7002 64.8002L35.6002 63.7002V62.6002L35.7002 61.5002L35.8002 60.8002L38.0002 61.5002V62.9002L38.1002 64.3002L38.4002 65.9002L38.6002 66.7002L38.9002 67.5002L39.0002 67.6002L39.1002 67.9002L39.5002 68.9002L39.6002 69.1002L39.8002 69.4002L40.0002 69.8002L40.3002 70.2002L40.5002 70.6002L41.1002 71.3002L41.7002 71.9002L42.0002 72.1002L41.7002 72.3002ZM44.8002 72.8002H44.3002L43.7002 72.7002L43.1002 72.5002L42.5002 72.1002L42.0002 71.7002L41.5002 71.2002L40.9002 70.5002L40.7002 70.2002L40.5002 69.8002L40.2002 69.3002L40.0002 68.8002L39.5002 67.6002L39.3002 67.0002L39.2002 66.5002L39.0002 65.4002L38.8002 64.1002L38.7002 62.7002V61.5002L39.3002 61.7002L39.9002 61.9002L40.5002 62.1002L41.1002 62.3002L42.2002 62.6002H42.4002L42.6002 65.2002L42.7002 65.7002V65.8002L42.9002 67.7002L43.0002 68.7002L43.2002 69.6002L43.5002 70.5002L43.9002 71.3002L44.4002 72.0002L44.8002 72.3002L44.9002 72.4002L44.8002 72.8002ZM46.8002 73.3002L45.9002 73.0002L45.2002 72.6002L45.0002 72.3002L44.7002 71.9002L44.3002 71.4002L44.0002 70.9002L43.8002 70.3002L43.6002 69.6002L43.4002 68.9002L43.3002 68.2002L43.1002 66.7002L43.0002 66.0002V64.8002L42.9002 63.1002V62.7002L43.3002 62.8002L43.6002 62.9002L45.2002 63.3002L45.4002 65.4002L45.5002 66.1002L45.6002 66.8002L45.7002 67.5002L46.0002 68.8002L46.2002 69.4002L46.4002 70.0002L46.5002 70.2002L46.9002 71.1002L47.4002 71.9002L48.0002 72.6002L48.5002 73.1002H47.8002L46.8002 73.3002ZM51.4002 74.0002L50.5002 73.9002L49.7002 73.6002L49.2002 73.3002L48.8002 72.9002L48.3002 72.4002L47.9002 71.8002L47.5002 71.2002L47.0002 70.2002L46.7002 69.4002V69.3002L46.5002 68.4002L46.3002 67.5002L46.0002 65.6002L45.8002 63.6002L46.6002 63.8002L46.9002 63.9002L47.2002 64.0002H47.5002L47.9002 64.1002H48.1002L48.0002 65.0002L48.2002 66.1002V66.2002L48.3002 66.5002L48.6002 67.9002L48.8002 68.7002L49.1002 69.5002L49.2002 69.8002V69.9002L49.3002 70.2002V70.3002L49.5002 70.8002L49.8002 71.5002L50.1002 72.1002L50.8002 73.0002L51.2002 73.4002L51.6002 73.7002L51.8002 73.9002L51.4002 74.0002ZM54.7002 74.4002L53.8002 74.3002L53.0002 74.0002L52.2002 73.6002L51.6002 73.0002L51.0002 72.3002L50.5002 71.5002L50.1002 70.7002L50.0002 70.4002L49.7002 69.7002L49.4002 69.0002L49.1002 68.0002L48.7002 66.5002L48.6002 66.1002L48.4002 64.9002L48.3002 64.3002L50.5002 64.9002V65.3002L50.7002 66.5002L51.1002 67.9002L51.7002 69.4002L52.0002 70.2002L52.2002 70.6002L52.4002 71.0002L53.0002 72.0002L53.6002 73.0002L54.1002 73.6002L54.3002 73.9002L54.4002 74.0002L54.5002 74.1002L55.0002 74.5002L54.7002 74.4002ZM58.2002 75.1002L57.3002 75.0002L56.4002 74.7002L55.6002 74.2002L55.0002 73.6002L54.7002 73.2002L53.7002 72.0002L52.9002 70.7002L52.7002 70.3002L52.4002 69.7002L52.0002 68.7002L51.7002 67.7002L51.4002 66.8002L51.1002 65.0002V64.9002L52.8002 65.3002L53.8002 65.5002L54.4002 67.8002L54.9002 69.4002L55.1002 70.1002L55.5002 71.0002L55.9002 71.9002L56.1002 72.3002L56.2002 72.5002L56.6002 73.2002L57.0002 73.8002L57.5002 74.4002L58.0002 74.9002L58.3002 75.1002H58.2002ZM60.9002 75.0002H60.0002L59.3002 74.9002L58.6002 74.6002L57.9002 74.0002L57.3002 73.4002L56.8002 72.6002L56.6002 72.2002L56.3002 71.6002L56.0002 70.8002L55.4002 69.2002L54.9002 67.4002L54.5002 65.6002L56.0002 66.0002L56.1002 66.5002L56.2002 67.2002L56.5002 68.5002L56.7002 69.2002L56.9002 69.9002L57.2002 70.5002L57.5002 71.0002L57.8002 71.6002V71.8002L58.2002 72.4002L58.3002 72.6002L58.7002 73.2002L59.3002 73.8002L59.9002 74.4002L60.1002 74.5002L60.7002 74.9002L60.9002 75.0002ZM63.5002 75.3002L62.7002 75.1002L62.0002 74.8002L61.3002 74.4002L60.9002 74.1002L60.8002 74.0002L60.3002 73.6002L59.8002 73.1002L59.4002 72.6002L59.0002 72.3002L58.9002 72.2002L58.4002 71.5002L58.1002 70.9002L58.0002 70.6002L57.6002 69.8002L57.3002 68.9002L57.0002 67.9002L56.7002 66.9002L56.6002 66.2002L58.1002 66.5002L58.5002 66.6002L58.8002 66.7002L59.0002 66.8002L59.2002 67.6002V67.8002L59.4002 68.8002L59.7002 69.8002L59.8002 70.0002L59.9002 70.3002L60.4002 71.5002L61.1002 72.7002L61.5002 73.3002L62.0002 73.9002L62.6002 74.4002L63.0002 74.8002L63.8002 75.4002L64.1002 75.6002L64.3002 75.7002L63.5002 75.3002ZM68.6002 76.0002L67.6002 75.9002L66.6002 75.7002L65.7002 75.4002L64.8002 75.0002L64.3002 74.7002L63.5002 74.1002L62.8002 73.6002L62.5002 73.3002L62.0002 72.8002L61.4002 72.0002L60.9002 71.2002L60.5002 70.3002L60.2002 69.5002L59.6002 67.5002L59.5002 67.1002L59.4002 66.7002L61.7002 67.1002L61.8002 67.7002V68.1002L61.9002 68.4002L62.0002 68.6002L62.1002 68.8002L62.2002 69.0002H62.0002V69.1002L62.4002 69.8002L62.9002 70.7002L63.4002 71.5002L64.0002 72.3002L64.6002 73.0002L65.3002 73.7002L66.0002 74.3002L66.8002 74.8002L67.6002 75.3002L67.9002 75.5002H68.0002L68.6002 75.8002V76.0002ZM69.5002 75.8002L68.6002 75.5002L68.1002 75.3002L67.4002 74.9002L66.7002 74.5002L66.1002 74.0002L65.5002 73.5002L64.9002 73.0002L63.9002 71.8002L63.7002 71.0002L63.3002 70.3002L63.0002 69.6002L62.7002 69.0002L62.6002 68.5002L62.4002 68.0002V67.8002L62.3002 67.2002L64.2002 67.5002L64.9002 69.2002L65.3002 70.1002L65.8002 70.9002L66.2002 71.7002L66.5002 72.3002L67.3002 73.4002L68.3002 74.4002L68.6002 74.6002L68.9002 74.9002L69.7002 75.5002L70.6002 76.0002L70.9002 76.1002L70.4002 76.0002L69.5002 75.8002ZM75.3002 76.5002L74.0002 76.4002L72.9002 76.2002L71.9002 75.9002L71.4002 75.7002L70.6002 75.3002L69.9002 74.9002L69.3002 74.4002L69.0002 74.2002L68.6002 73.8002L67.9002 73.1002L67.3002 72.3002L66.8002 71.5002L66.4002 71.0002L64.7002 67.5002L66.2002 67.7002L67.1002 67.8002L67.5002 68.7002L67.8002 69.3002L68.7002 70.8002L69.7002 72.1002L70.2002 72.7002L70.8002 73.3002L71.4002 73.8002L72.7002 74.8002L73.4002 75.3002L74.1002 75.7002L74.6002 75.9002L75.1002 76.2002L75.4002 76.3002L75.6002 76.4002L75.3002 76.5002ZM77.9002 76.7002L77.1002 76.5002L76.2002 76.2002L75.6002 76.0002L74.8002 75.6002L74.5002 75.4002L73.6002 74.9002L72.7002 74.3002L71.9002 73.6002L71.1002 72.9002L70.3002 72.1002L69.6002 71.3002L69.0002 70.5002L68.4002 69.6002L67.9002 68.7002L67.8002 68.6002L67.6002 68.0002L69.4002 68.2002L70.0002 68.3002L71.1002 69.2002L72.2002 70.2002L73.3002 71.4002L75.0002 73.3002L77.1002 75.4002L77.2002 75.5002L77.3002 75.6002L77.5002 75.8002L78.8002 76.9002L78.9002 77.0002L77.9002 76.7002ZM82.7002 77.6002L82.0002 78.0002H81.3002L80.6002 77.6002L79.8002 77.1002L79.0002 76.5002L78.2002 75.8002L77.4002 75.1002V75.0002L74.0002 71.3002L72.2002 69.4002L71.3002 68.5002L70.9002 68.2002H71.3002L73.4002 68.6002L74.8002 69.8002L76.8002 71.8002L78.5002 73.6002L79.2002 74.3002L80.0002 75.0002L80.8002 75.6002L81.6002 76.2002L82.0002 76.4002L82.4002 76.6002L83.0002 76.9002L83.1002 77.0002L82.7002 77.6002ZM84.6002 77.1002L83.6002 76.8002L82.7002 76.4002L82.2002 76.2002L82.0002 76.1002L81.4002 75.7002L80.8002 75.3002L79.6002 74.2002L77.3002 71.9002L75.9002 70.4002L75.2002 69.6002L74.4002 68.9002L74.2002 68.7002L76.0002 68.9002H76.1002L76.4002 69.0002L76.7002 69.1002H76.8002L77.3002 69.4002L77.9002 70.0002L78.6002 70.7002L81.0002 73.4002L81.9002 74.3002L82.9002 75.2002L83.9002 76.1002L84.9002 76.8002L85.7002 77.2002L84.6002 77.1002ZM89.2002 77.4002L88.2002 77.5002L87.2002 77.3002L86.6002 77.0002L85.9002 76.6002L85.0002 76.0002L84.1002 75.4002L83.3002 74.7002L82.5002 74.0002L81.8002 73.3002L80.5002 72.0002L79.9002 71.3002L78.8002 70.0002L78.3002 69.5002L77.8002 69.1002L77.6002 69.0002L79.3002 69.2002H80.1002L80.8002 69.8002L81.5002 70.5002L84.3002 73.6002L85.0002 74.3002L85.1002 74.4002L86.2002 75.4002L86.3002 75.5002L86.5002 75.6002L87.4002 76.2002L88.3002 76.7002L89.3002 77.1002L89.6002 77.2002L89.2002 77.4002ZM91.4002 77.1002L90.4002 77.0002L89.9002 76.9002L89.4002 76.7002L88.6002 76.3002L87.8002 76.0002L87.1002 75.6002L86.6002 75.2002L85.3002 74.1002L85.0002 73.8002L84.0002 72.7002L82.3002 70.7002L81.7002 70.1002L80.8002 69.3002H81.3002L81.9002 69.4002L83.2002 69.5002L83.5002 69.7002L84.5002 69.9002H84.8002L85.0002 69.8002L85.7002 70.8002L86.5002 71.8002L87.2002 72.7002L87.9002 73.6002L89.2002 75.0002L89.9002 75.6002L90.6002 76.1002L91.0002 76.4002L91.1002 76.5002L91.2002 76.6002L91.7002 76.9002L92.1002 77.1002H91.4002ZM94.7002 77.1002H94.1002L93.8002 77.0002V76.9002H93.4002L92.9002 76.8002L92.3002 76.6002L91.7002 76.3002L91.5002 76.1002L91.0002 75.7002L90.4002 75.2002L89.0002 74.0002L88.4002 73.4002L86.8002 71.4002L86.4002 70.8002L85.7002 69.7002L88.0002 70.0002H89.0002L89.4002 70.4002L91.1002 72.3002L91.5002 72.8002L91.9002 73.3002L92.3002 73.8002L94.0002 75.7002L95.5002 77.0002L94.7002 77.1002ZM98.2002 77.0002L98.0002 77.1002L97.5002 77.2002L97.0002 77.1002L96.4002 76.9002L95.8002 76.5002L95.2002 76.0002L94.6002 75.4002L94.0002 74.7002L92.7002 73.3002L90.9002 71.1002L90.4002 70.5002L89.9002 69.9002L92.2002 70.1002L94.5002 73.1002L94.7002 73.4002L94.8002 73.5002L94.9002 73.7002L95.0002 73.8002L95.9002 74.9002L97.3002 76.2002L98.0002 76.7002L98.2002 77.0002ZM102.6 76.7002L101.8 77.1002L101 77.3002H100.3L99.6002 77.2002L98.9002 77.0002L98.5002 76.8002L97.7002 76.2002L96.3002 74.9002L95.2002 73.7002L95.0002 73.4002L94.8002 73.1002L92.8002 70.1002L94.0002 70.0002H94.2002L94.9002 70.3002L95.4002 71.1002L96.5002 72.6002L97.1002 73.2002L97.5002 73.6002L97.8002 73.9002L98.1002 74.2002L98.3002 74.4002L98.5002 74.6002L99.0002 75.0002L99.2002 75.1002L99.5002 75.3002L100.4 75.8002L100.6 75.9002L101.7 76.3002L102.2 76.5002L102.7 76.6002H102.9L102.6 76.7002ZM103.6 76.1002L102.8 76.0002L102.1 75.8002L101.4 75.6002L100.7 75.3002L99.6002 74.6002L98.7002 74.0002L98.3002 73.7002L98.0002 73.4002L97.5002 72.9002L97.0002 72.3002L95.9002 70.9002L95.7002 70.5002L98.8002 70.8002L99.7002 71.9002L100.9 73.1002L101.5 73.7002L102.2 74.2002L103.6 75.2002L104.4 75.7002L105.1 76.1002L105.3 76.2002L104.5 76.3002L103.6 76.1002ZM108.2 76.4002L107.5 76.3002L106.8 76.2002L106.6 76.1002L105.7 75.7002L105 75.4002L103.7 74.6002L103.1 74.2002L101.4 72.8002L100.9 72.3002L99.5002 70.8002H100.6L101.9 70.9002H102L102.4 71.3002L102.5 71.4002L102.9 71.8002L103.5 72.3002L104.2 72.9002L106 74.2002L107 74.9002L107.9 75.5002L108.4 75.8002L109 76.2002L108.2 76.4002ZM113 76.7002L112.5 77.0002H111.8L111 76.7002L110.1 76.3002L109.2 75.8002L108.3 75.3002L107.4 74.7002L102.7 71.1002L105.4 71.3002L106.1 71.7002L106.5 71.9002L109.9 74.3002L110.4 74.6002L111.6 75.4002L112.5 76.0002L112.9 76.3002L113.1 76.5002L113 76.7002ZM115 76.5002L114.6 76.4002L114.1 76.3002L113.6 76.1002L113.1 75.8002L112.9 75.7002L110.2 73.9002L108.5 72.8002L108.2 72.6002L107.5 72.2002L106.8 71.7002L106.4 71.2002L106.5 71.0002H107L108.4 71.3002L108.7 71.6002L110.3 73.1002L111.6 74.2002L113.1 75.2002L113.9 75.7002L114.7 76.1002L115.1 76.2002H115.2L115.5 76.3002L115 76.5002ZM117.1 76.3002H116.3L115.7 76.1002L115.3 76.0002L114.8 75.8002L114.2 75.5002L112.9 74.7002L111.1 73.4002L109.7 72.2002L109.4 71.9002L109.3 71.8002L110.4 71.9002L112.1 72.0002L114.2 73.9002L115.8 75.2002L116.6 75.7002L117.5 76.1002L117.7 76.2002L117.1 76.3002ZM119.8 75.8002L119.3 75.9002H118.8L118.3 75.8002L117.8 75.6002L117.3 75.4002L116.7 75.1002L116.2 74.7002L115.1 73.8002L113 71.9002L114 72.0002L115.2 72.1002L115.3 72.3002L115.6 72.8002L115.7 73.0002L116.1 73.4002L116.5 73.8002L117 74.2002L117.5 74.5002L117.7 74.6002L117.8 74.7002L118 74.8002L118.1 74.9002L118.3 75.0002L118.7 75.2002L119.1 75.3002L120 75.5002H120.3L119.8 75.8002ZM122.2 75.0002H119.9L118.7 74.7002L118.3 74.5002L118.1 74.4002L117.8 74.3002L117.3 74.0002H117.2L116.3 73.2002L116.1 72.9002L116 72.7002L115.8 72.4002L115.7 72.3002L116.4 72.4002L118.3 72.5002L118.5 72.8002L118.8 73.2002L119.2 73.6002L119.4 73.8002L119.5 73.9002L120 74.3002L120.3 74.5002L121.2 74.9002L121.4 75.0002L122.3 75.3002L122.2 75.0002ZM124.9 74.0002L124.8 74.2002L124.7 74.3002H124.5L123.9 74.1002L123.2 73.8002L122.2 73.2002L121.2 72.5002L122.6 72.7002L124.2 73.5002L124.4 73.6002L124.6 73.7002L124.8 73.8002L124.9 73.9002H125L124.9 74.0002ZM125.5 73.3002L125.4 73.4002H125.1L124.4 73.2002L123.8 72.9002L125 73.0002H125.1L125.6 73.1002L125.5 73.3002Z" fill="#303284"/>
</svg>
