<svg width="128" height="128" viewBox="0 0 128 128" fill="none" xmlns="http://www.w3.org/2000/svg">
<path d="M15.885 41.2026C15.577 40.8859 15.2083 40.6345 14.8009 40.4634C14.3935 40.2922 13.9559 40.2049 13.514 40.2066C13.0744 40.2047 12.6389 40.2919 12.2339 40.4631C11.829 40.6343 11.463 40.8859 11.158 41.2026H11.143C10.515 41.8455 10.1654 42.7099 10.17 43.6086C10.17 44.5586 10.541 45.4056 11.143 46.0116L11.158 46.0266C11.4638 46.3418 11.8301 46.5919 12.235 46.7619C12.6399 46.9319 13.0749 47.0182 13.514 47.0156C13.9551 47.0175 14.3921 46.931 14.7992 46.7611C15.2063 46.5913 15.5752 46.3415 15.884 46.0266L15.893 46.0116C16.5228 45.3711 16.8724 44.5068 16.865 43.6086C16.865 42.6676 16.495 41.8116 15.893 41.2026H15.885ZM13.514 87.7926C14.447 87.7926 15.284 87.4056 15.884 86.8006L15.893 86.7846C16.5204 86.1462 16.8698 85.2856 16.865 84.3906C16.865 83.4406 16.495 82.5896 15.893 81.9766H15.885C15.5776 81.659 15.209 81.407 14.8015 81.2356C14.394 81.0643 13.9561 80.9772 13.514 80.9796C13.0741 80.9766 12.6383 81.0635 12.2331 81.2349C11.828 81.4064 11.4622 81.6588 11.158 81.9766H11.143C10.5142 82.6222 10.1646 83.4894 10.17 84.3906C10.17 85.3276 10.541 86.1796 11.143 86.7846L11.158 86.8006C11.4647 87.1148 11.8311 87.3644 12.2358 87.5348C12.6404 87.7052 13.075 87.7928 13.514 87.7926ZM31.736 77.4796C32.1641 77.3662 32.565 77.1676 32.9146 76.8958C33.2642 76.624 33.5555 76.2845 33.771 75.8976L33.834 75.7806C34.227 75.0209 34.3218 74.1417 34.1 73.3156C33.99 72.8836 33.7952 72.4777 33.5268 72.1217C33.2585 71.7656 32.922 71.4665 32.537 71.2416L32.4901 71.2106C31.7338 70.7837 30.8391 70.674 30.0021 70.9056C29.5732 71.0186 29.1717 71.2174 28.822 71.49C28.4722 71.7626 28.1813 72.1034 27.967 72.4916C27.5218 73.2734 27.4004 74.1985 27.6288 75.0688C27.8572 75.939 28.4172 76.6852 29.189 77.1476H29.1931C29.9941 77.6176 30.896 77.7026 31.736 77.4796ZM16.9431 60.5116C16.4965 60.054 15.9631 59.69 15.3741 59.4411C14.7852 59.1921 14.1525 59.0631 13.513 59.0616C12.8744 59.0633 12.2425 59.1924 11.6544 59.4414C11.0663 59.6904 10.5338 60.0542 10.088 60.5116C9.17902 61.4429 8.67259 62.6942 8.67805 63.9956C8.67805 65.3586 9.21705 66.5896 10.088 67.4916C10.5353 67.9468 11.0687 68.3084 11.6572 68.5552C12.2457 68.802 12.8774 68.9291 13.5155 68.9291C14.1537 68.9291 14.7854 68.802 15.3739 68.5552C15.9624 68.3084 16.4958 67.9468 16.9431 67.4916C17.8526 66.5555 18.3601 65.3008 18.357 63.9956C18.3631 62.6934 17.8549 61.4414 16.9431 60.5116ZM15.013 54.7106C16.9283 55.0362 18.6905 55.9621 20.045 57.3546H20.057C20.267 57.5696 20.475 57.8086 20.666 58.0466L24.0061 56.0816C23.5664 54.7282 23.5282 53.2763 23.896 51.9016C24.1367 50.9753 24.5577 50.1055 25.1349 49.3421C25.7122 48.5787 26.4343 47.9366 27.26 47.4526L27.314 47.4136C28.1252 46.9427 29.022 46.6376 29.9521 46.5162C30.8822 46.3949 31.8272 46.4596 32.732 46.7066C33.6525 46.9602 34.5137 47.3935 35.266 47.9815C36.0183 48.5695 36.6467 49.3006 37.1151 50.1326V50.1366C38.071 51.8272 38.3304 53.8239 37.8381 55.7026C37.5982 56.6302 37.1777 57.5014 36.6006 58.2662C36.0235 59.031 35.3012 59.6744 34.475 60.1596L34.0181 60.4336H33.9711C32.4231 61.1815 30.657 61.3449 28.998 60.8936C27.6448 60.5241 26.4294 59.7663 25.5021 58.7136L22.17 60.6756C22.9615 62.8223 22.9615 65.1809 22.17 67.3276L25.5021 69.2846C26.426 68.2274 27.6425 67.4677 28.998 67.1016C29.9133 66.8468 30.8708 66.7809 31.8124 66.9078C32.7539 67.0346 33.6599 67.3517 34.475 67.8396L34.584 67.8946V67.8976C36.1978 68.8887 37.3643 70.467 37.8381 72.3006C38.3293 74.1768 38.0699 76.1706 37.1151 77.8586L37.0531 77.9836L37.049 77.9726C36.0935 79.5943 34.5482 80.7838 32.736 81.2926C31.8202 81.5393 30.8644 81.6014 29.9244 81.4754C28.9843 81.3494 28.0786 81.0378 27.26 80.5586V80.5426C25.5937 79.5618 24.384 77.9606 23.896 76.0896C23.5283 74.7176 23.5665 73.2684 24.0061 71.9176L20.666 69.9566C20.4741 70.1932 20.2705 70.4202 20.056 70.6366L20.045 70.6476C18.6913 72.0382 16.9285 72.9597 15.014 73.2776V77.2026C16.4 77.4996 17.643 78.2026 18.615 79.1946L18.623 79.2026C19.9812 80.5872 20.7393 82.4511 20.733 84.3906C20.7366 86.3246 19.9786 88.1822 18.623 89.5616L18.615 89.5856C17.303 90.9096 15.502 91.7336 13.514 91.7336C12.565 91.7311 11.6259 91.5399 10.7514 91.1711C9.87687 90.8023 9.0844 90.2634 8.42005 89.5856H8.41205V89.5616C7.05602 88.1824 6.29733 86.3248 6.30005 84.3906C6.30005 82.3666 7.10805 80.5266 8.41305 79.2026V79.1946H8.42105C9.39895 78.192 10.6502 77.4992 12.019 77.2026V73.2766C10.1055 72.9591 8.3437 72.0379 6.99105 70.6476L6.98005 70.6366C5.23987 68.8649 4.26614 66.48 4.26905 63.9966C4.2661 61.5129 5.23939 59.1274 6.97905 57.3546H6.99105C8.34467 55.9629 10.1053 55.0371 12.019 54.7106V50.7996C10.6523 50.4951 9.40284 49.802 8.42105 48.8036H8.41305V48.7916C7.05575 47.4083 6.29681 45.5467 6.30005 43.6086C6.30005 41.5976 7.10805 39.7536 8.41305 38.4256L8.42105 38.4216C9.08391 37.7413 9.87593 37.2002 10.7507 36.83C11.6254 36.4598 12.5652 36.2679 13.515 36.2656C15.503 36.2656 17.304 37.0896 18.616 38.4216V38.4256H18.6241C19.9793 39.8101 20.737 41.6712 20.734 43.6086C20.7387 45.5466 19.9808 47.4087 18.6241 48.7926L18.616 48.8046C17.6336 49.8037 16.3829 50.4969 15.015 50.8006V54.7106H15.013ZM33.771 52.1006L33.744 52.0616C33.3017 51.3044 32.5812 50.7497 31.736 50.5156C31.3103 50.3991 30.8656 50.3692 30.4281 50.4276C29.9906 50.486 29.5693 50.6316 29.189 50.8556H29.1931C28.8085 51.08 28.4725 51.3785 28.2043 51.7339C27.9362 52.0892 27.7413 52.4943 27.6311 52.9256C27.4004 53.7984 27.521 54.7268 27.967 55.5116L27.982 55.5316C28.4431 56.3316 29.1821 56.8716 30.0021 57.0856C30.4249 57.2063 30.8679 57.2391 31.3039 57.182C31.7399 57.1249 32.1596 56.9791 32.537 56.7536L32.5801 56.7336C33.332 56.275 33.8769 55.5427 34.1 54.6906C34.3316 53.8174 34.2136 52.8882 33.771 52.1006ZM48.5881 53.2496H52.314V64.8276L57.689 58.7776H62.159L55.669 65.7846L62.1861 74.6676H57.916L52.314 66.7336V74.6676H48.5881V53.2496ZM66.486 66.7926C66.486 68.7616 67.876 71.6286 71.236 71.6286C73.311 71.6286 74.678 70.5266 75.389 69.0816C75.759 68.3816 75.928 67.6316 75.986 66.8546C76.0157 66.0869 75.8686 65.3225 75.556 64.6206C74.904 63.1206 73.456 61.8156 71.209 61.8156C68.193 61.8156 66.486 64.3046 66.486 66.7656V66.7926ZM79.682 74.6676H75.955V72.3826C74.9631 74.2296 72.885 75.1556 70.693 75.1556C65.689 75.1556 62.76 71.1906 62.76 66.7066C62.76 61.7026 66.314 58.2886 70.693 58.2886C73.537 58.2886 75.271 59.8196 75.955 61.0976V58.7776H79.682V74.6676ZM83.9 61.7026H81.97V58.7766H83.9V57.8826C83.9 53.1596 87.432 52.8786 90.104 52.8476V55.7656C89.166 55.7656 87.631 55.7656 87.631 57.9996V58.7766H90.104V61.7026H87.63V74.6676H83.9V61.7026ZM92.639 53.2496H96.365V64.8276L101.74 58.7776H106.205L99.721 65.7846L106.232 74.6676H101.967L96.365 66.7336V74.6676H92.64V53.2496M110.533 66.7926C110.533 68.7616 111.928 71.6286 115.283 71.6286C117.357 71.6286 118.725 70.5266 119.436 69.0816C119.806 68.3816 119.979 67.6316 120.033 66.8546C120.063 66.0869 119.916 65.3225 119.603 64.6206C118.951 63.1206 117.502 61.8156 115.256 61.8156C112.244 61.8156 110.533 64.3046 110.533 66.7656V66.7926ZM123.733 74.6676H120.006V72.3826C119.01 74.2296 116.936 75.1556 114.744 75.1556C109.736 75.1556 106.811 71.1906 106.811 66.7066C106.811 61.7026 110.365 58.2886 114.744 58.2886C117.588 58.2886 119.322 59.8196 120.006 61.0976V58.7776H123.732V74.6676" fill="#231F20"/>
</svg>
