<svg width="128" height="128" viewBox="0 0 128 128" fill="none" xmlns="http://www.w3.org/2000/svg">
<path d="M20.7727 39.7415C20.0072 40.195 18.7333 41.479 17.2192 43.3412L18.6118 45.9828C19.592 44.5798 20.5862 43.3128 21.589 42.2329C21.6681 42.1479 21.7048 42.1082 21.7048 42.1082C21.6681 42.1479 21.6257 42.1932 21.589 42.2329C21.2642 42.5901 20.2783 43.7465 18.7926 46.0366C20.2247 45.9658 22.4223 45.671 24.2159 45.3649C24.7526 42.3633 23.6934 40.9915 23.6934 40.9915C23.6934 40.9915 22.3488 38.809 20.7727 39.7415Z" fill="black"/>
<path d="M16.0865 61.9316C15.9085 61.9628 15.7277 61.9968 15.5385 62.028C15.5385 62.028 15.5356 62.028 15.5356 62.0308C15.6317 62.0167 15.7249 62.0025 15.8181 61.9883C15.9057 61.9685 15.9961 61.9515 16.0865 61.9316Z" fill="black"/>
<path opacity="0.35" d="M16.0865 61.9316C15.9085 61.9628 15.7277 61.9968 15.5385 62.028C15.5385 62.028 15.5356 62.028 15.5356 62.0308C15.6317 62.0167 15.7249 62.0025 15.8181 61.9883C15.9057 61.9685 15.9961 61.9515 16.0865 61.9316Z" fill="black"/>
<path d="M16.5526 59.6214C16.5526 59.6214 16.5526 59.6243 16.5526 59.6214C16.5498 59.6214 16.5498 59.6214 16.5498 59.6243C16.5781 59.6214 16.6091 59.6158 16.6374 59.6101C16.756 59.5931 16.8718 59.5733 16.9848 59.5449C16.8436 59.5704 16.7023 59.5959 16.5526 59.6214Z" fill="black"/>
<path opacity="0.35" d="M16.5526 59.6214C16.5526 59.6214 16.5526 59.6243 16.5526 59.6214C16.5498 59.6214 16.5498 59.6214 16.5498 59.6243C16.5781 59.6214 16.6091 59.6158 16.6374 59.6101C16.756 59.5931 16.8718 59.5733 16.9848 59.5449C16.8436 59.5704 16.7023 59.5959 16.5526 59.6214Z" fill="black"/>
<path d="M14.4991 52.8104C14.9228 52.014 15.3522 51.2374 15.7843 50.4835C16.2335 49.6955 16.6911 48.9359 17.1515 48.199C17.1769 48.1565 17.208 48.1111 17.2334 48.0686C17.6882 47.3458 18.1486 46.6486 18.609 45.9854L17.2165 43.3438C17.1119 43.4713 17.0074 43.6017 16.9001 43.7377C16.4962 44.2422 16.0809 44.7808 15.6516 45.3561C15.1686 46.0024 14.6743 46.6939 14.1686 47.4195C13.7054 48.0884 13.2309 48.7885 12.7563 49.5169C12.3524 50.1348 11.9513 50.7697 11.5502 51.4216C11.5361 51.4443 11.5219 51.4698 11.5078 51.4953L13.3241 55.0949C13.7082 54.3155 14.1037 53.553 14.4991 52.8104Z" fill="black"/>
<path d="M6.22821 73.0819C5.98811 73.7423 5.74519 74.4197 5.50509 75.1084C5.50227 75.1169 5.49944 75.1282 5.49379 75.1367C5.4599 75.2331 5.42318 75.3323 5.39211 75.4287C5.22828 75.8935 5.08704 76.313 4.76221 77.2625C5.29607 77.5063 5.72542 78.1525 6.13217 78.8837C6.0898 78.127 5.77908 77.4156 5.18308 76.8657C7.81849 76.9847 10.0895 76.3158 11.2646 74.3828C11.3691 74.2099 11.4651 74.0314 11.5527 73.8358C11.0188 74.516 10.355 74.8023 9.10936 74.7343C9.10653 74.7343 9.10371 74.7371 9.10088 74.7371C9.10371 74.7371 9.10653 74.7343 9.10936 74.7343C10.9454 73.9095 11.8634 73.1187 12.6797 71.8092C12.8718 71.4975 13.0611 71.1602 13.2531 70.7832C11.6487 72.4356 9.79293 72.9061 7.83544 72.549L6.36661 72.7106C6.31859 72.8353 6.27622 72.9571 6.22821 73.0819Z" fill="black"/>
<path d="M6.915 69.7859C7.23136 68.9639 7.55902 68.1306 7.89233 67.2917C8.21434 66.4867 8.542 65.6761 8.88096 64.8655C9.21992 64.0549 9.56453 63.2357 9.91479 62.4195C10.2707 61.589 10.6379 60.7614 11.0136 59.9366C11.3836 59.1203 11.7565 58.3097 12.1378 57.5104C12.2734 57.2213 12.4146 56.9322 12.553 56.6459C12.7931 56.1499 13.036 55.6567 13.2818 55.1692C13.2959 55.1437 13.3072 55.1154 13.3213 55.0898L11.5051 51.4902C11.4768 51.5384 11.4458 51.5894 11.4147 51.6348C10.991 52.3292 10.5701 53.0378 10.1577 53.7605C9.73966 54.4918 9.33008 55.2372 8.92898 55.994C8.59285 56.6317 8.26236 57.2723 7.93753 57.9242C7.87256 58.0546 7.81042 58.1878 7.74545 58.3182C7.35 59.1373 6.99409 59.9224 6.66925 60.6848C6.30205 61.5436 5.98004 62.3656 5.70039 63.145C5.51397 63.6581 5.34731 64.1512 5.19196 64.6274C5.06485 65.0327 4.94621 65.4409 4.82757 65.8462C4.55641 66.7985 4.32196 67.7508 4.12988 68.6975L5.95461 72.3113C6.19471 71.6651 6.44328 71.0075 6.6975 70.3443C6.77377 70.1544 6.84156 69.9673 6.915 69.7859Z" fill="black"/>
<path d="M4.10988 68.8191C3.88108 69.9756 3.71725 71.1263 3.63534 72.2714C3.63251 72.3111 3.62969 72.3507 3.62686 72.3904C3.05628 71.4749 1.53379 70.5821 1.53662 70.5906C2.62976 72.1778 3.45738 73.7537 3.57884 75.3013C2.99414 75.4203 2.19476 75.2474 1.2711 74.9073C2.23431 75.7973 2.95742 76.041 3.24271 76.1091C2.35577 76.1658 1.43493 76.7751 0.505614 77.4781C1.86428 76.9225 2.96307 76.7014 3.74832 76.88C2.49982 80.4229 1.25132 84.3343 0 88.4895C0.384154 88.3761 0.612951 88.1153 0.740061 87.7667C0.963209 87.0156 2.44051 82.0782 4.75955 75.5961C4.82734 75.4118 4.89231 75.2248 4.9601 75.0405C4.97705 74.9867 4.99682 74.9356 5.0166 74.8875C5.25952 74.2072 5.51656 73.5128 5.77643 72.8042C5.83575 72.6427 5.89507 72.4811 5.95721 72.3196C5.95721 72.3167 5.96003 72.3139 5.96003 72.311L4.13248 68.6973C4.12683 68.7341 4.11835 68.7766 4.10988 68.8191Z" fill="black"/>
<path d="M13.6035 55.3895C13.5498 55.4972 13.499 55.6049 13.4453 55.7126C13.2871 56.0386 13.1289 56.3702 12.9651 56.7103C12.79 57.0788 12.6148 57.4529 12.4369 57.8384C12.3465 58.0311 12.2561 58.2267 12.1657 58.4251C11.8946 59.0175 11.6206 59.6297 11.3409 60.2617C10.9991 61.0355 10.6461 61.8433 10.293 62.6823C9.95684 63.4816 9.60941 64.3064 9.2648 65.1623C8.93432 65.9729 8.60101 66.8119 8.26205 67.6735C7.95981 68.4417 7.65474 69.2353 7.34968 70.0487C7.33556 70.0856 7.32143 70.1281 7.30731 70.1649C7.00225 70.9727 6.69436 71.8032 6.38647 72.6535C6.38082 72.6733 6.37235 72.6903 6.3667 72.713L7.83552 72.5514C7.80728 72.5458 7.7762 72.5429 7.74796 72.5373C9.50207 72.319 11.8381 71.0011 13.3436 69.377C14.0385 68.6287 14.6684 67.7444 15.2503 66.7099C15.6824 65.9418 16.092 65.0858 16.4818 64.142C16.8208 63.3172 17.1456 62.4215 17.4591 61.455C17.0552 61.6676 16.5948 61.8263 16.0864 61.934C15.996 61.9538 15.9056 61.9709 15.8124 61.9879C15.7191 62.0049 15.6259 62.019 15.5299 62.0304C15.5299 62.0304 15.5327 62.0304 15.5327 62.0275C17.171 61.3955 18.202 60.1767 18.9506 58.683C18.5212 58.9778 17.8207 59.3633 16.9818 59.5475C16.8688 59.573 16.753 59.5928 16.6343 59.6127C16.6061 59.6155 16.575 59.6212 16.5468 59.6269H16.5496C16.5496 59.6269 16.5496 59.6269 16.5524 59.6269C17.123 59.3888 17.6004 59.1195 18.0156 58.8049C18.106 58.7369 18.1936 58.6688 18.2726 58.5952C18.3998 58.4846 18.5184 58.3684 18.637 58.2494C18.7105 58.17 18.7811 58.0906 18.8517 58.0084C19.0155 57.8129 19.1681 57.6031 19.3093 57.3764C19.3517 57.3055 19.3969 57.2375 19.4364 57.1638C19.4929 57.0589 19.5437 56.9541 19.5946 56.8549C19.8234 56.3957 20.007 55.9819 20.151 55.6219C20.2245 55.4405 20.2866 55.2761 20.3431 55.1174C20.3657 55.0551 20.3855 54.9955 20.4053 54.936C20.4646 54.7631 20.5098 54.6101 20.5465 54.474C20.603 54.27 20.6369 54.1084 20.6538 53.9922C20.5973 54.0347 20.5352 54.0801 20.4618 54.1226C19.9674 54.4202 19.12 54.6866 18.4365 54.8141L19.7838 54.6668L18.4365 54.8141C18.428 54.817 18.4167 54.817 18.4054 54.8198C18.3348 54.8312 18.2698 54.8425 18.1992 54.851C18.2105 54.8453 18.2218 54.8397 18.2331 54.834L13.6204 55.3413C13.6204 55.3527 13.612 55.3725 13.6035 55.3895Z" fill="black"/>
<path d="M18.7956 46.0359C18.386 46.668 17.9397 47.385 17.4539 48.1985C17.4285 48.2382 17.4002 48.2864 17.3776 48.326C16.9624 49.029 16.5217 49.7999 16.0528 50.6474C15.6517 51.3786 15.2337 52.1609 14.7987 53.0027C14.4202 53.7368 14.0304 54.5162 13.6265 55.341L18.2391 54.8337C19.5837 54.213 20.1825 53.6546 20.7644 52.8412C20.9169 52.6172 21.0751 52.3848 21.2276 52.1411C21.7022 51.3985 22.1654 50.5822 22.5806 49.7687C22.9817 48.9836 23.3348 48.207 23.606 47.5041C23.7783 47.0591 23.9167 46.6453 24.0127 46.2797C24.0975 45.9594 24.1624 45.6533 24.2133 45.3613C22.4253 45.6703 20.2249 45.965 18.7956 46.0359Z" fill="black"/>
<path d="M15.8123 61.9824C15.719 61.9994 15.6258 62.0136 15.5298 62.0249C15.6258 62.0164 15.7219 61.9994 15.8123 61.9824Z" fill="black"/>
<path opacity="0.35" d="M15.8123 61.9824C15.719 61.9994 15.6258 62.0136 15.5298 62.0249C15.6258 62.0164 15.7219 61.9994 15.8123 61.9824Z" fill="black"/>
<path d="M15.8123 61.9824C15.719 61.9994 15.6258 62.0136 15.5298 62.0249C15.6258 62.0164 15.7219 61.9994 15.8123 61.9824Z" fill="black"/>
<path d="M16.5498 59.6245C16.5781 59.6217 16.6091 59.616 16.6374 59.6104C16.6091 59.6132 16.5809 59.6217 16.5498 59.6245Z" fill="black"/>
<path opacity="0.35" d="M16.5498 59.6245C16.5781 59.6217 16.6091 59.616 16.6374 59.6104C16.6091 59.6132 16.5809 59.6217 16.5498 59.6245Z" fill="black"/>
<path d="M16.5498 59.6245C16.5781 59.6217 16.6091 59.616 16.6374 59.6104C16.6091 59.6132 16.5809 59.6217 16.5498 59.6245Z" fill="black"/>
<path d="M16.5498 59.6246C16.5534 59.6211 16.5534 59.6246 16.5498 59.6246C16.5534 59.6211 16.5534 59.6246 16.5498 59.6246Z" fill="black"/>
<path opacity="0.35" d="M16.5498 59.6246C16.5534 59.6211 16.5534 59.6246 16.5498 59.6246C16.5534 59.6211 16.5534 59.6246 16.5498 59.6246Z" fill="black"/>
<path d="M16.5498 59.6246C16.5534 59.6211 16.5534 59.6246 16.5498 59.6246C16.5534 59.6211 16.5534 59.6246 16.5498 59.6246Z" fill="black"/>
<path d="M82.6304 72.5694C82.3473 72.5184 81.2786 72.2437 81.1114 72.1789C80.7195 72.027 79.3735 71.3352 79.2154 71.2044C79.0041 71.0295 78.977 71.0085 78.5921 70.7207C78.2108 70.4355 77.3928 69.6147 77.1088 69.2322C76.9874 69.0687 76.8547 68.8942 76.8139 68.8445C76.7732 68.7948 76.7048 68.7111 76.6621 68.6586C76.5723 68.5483 75.8136 67.262 75.8136 67.22C75.8136 67.2046 75.7347 67.0154 75.6382 66.7995C75.5418 66.5836 75.4049 66.2397 75.334 66.0352C75.2632 65.8308 75.1765 65.5965 75.1415 65.5148C75.0632 65.3317 74.8492 64.3203 74.7719 63.7676C74.6901 63.183 74.6927 61.5787 74.7762 61.0538C74.9961 59.6712 75.1696 59.0804 75.6728 58.0006C75.7502 57.8344 75.8136 57.6587 75.8136 57.6103C75.8136 57.5619 75.847 57.5222 75.8877 57.5222C75.9285 57.5222 75.9618 57.479 75.9618 57.4262C75.9618 57.3734 76.1677 57.0171 76.4193 56.6345C76.8275 56.0139 77.757 54.9835 78.3699 54.4723C79.0041 53.9433 80.2584 53.2538 81.0075 53.0224C81.2277 52.9545 81.4912 52.8699 81.5931 52.8346C81.9696 52.704 82.693 52.609 83.6307 52.5671C84.8392 52.513 86.1072 52.6714 87.002 52.988C87.6712 53.2248 88.2825 53.5081 88.3234 53.6003C88.337 53.631 88.3805 53.6561 88.4201 53.6561C88.5763 53.6561 89.4175 54.2955 89.9225 54.7982C90.5069 55.3799 90.8895 55.8894 91.1926 56.4896C91.3824 56.8656 91.3847 56.8839 91.2521 56.9757C91.1763 57.0282 91.0793 57.0973 91.0366 57.1294C90.9939 57.1614 90.872 57.2379 90.7658 57.2992C90.6596 57.3605 90.4191 57.5061 90.2313 57.6228C89.8487 57.8605 89.7028 57.843 89.5903 57.5461C89.2761 56.7169 87.835 55.3563 86.8538 54.9625C85.7733 54.5288 85.118 54.3994 84.0061 54.4001C82.8279 54.4014 82.0702 54.5462 81.1284 54.9517C80.8067 55.0902 80.1203 55.5016 79.9762 55.6423C79.9223 55.6949 79.8555 55.7379 79.8277 55.7379C79.749 55.7379 78.9249 56.5539 78.5624 56.9908C78.17 57.4639 77.4882 58.6804 77.3272 59.1951C77.2632 59.3996 77.1816 59.6338 77.1458 59.7155C76.8311 60.4351 76.6456 62.1782 76.7602 63.3401C76.8387 64.1353 77.0035 64.9681 77.1465 65.2917C77.1826 65.3735 77.2343 65.5241 77.2613 65.6263C77.3807 66.0771 78.0784 67.3816 78.444 67.8377C78.8092 68.2931 79.4754 68.996 79.7777 69.2449C80.1241 69.5301 81.2485 70.2354 81.3584 70.2364C81.3856 70.2364 81.4939 70.2819 81.5991 70.337C81.7043 70.3921 82.0877 70.5173 82.4512 70.6152C83.0068 70.765 83.2713 70.7919 84.1123 70.7843C85.5195 70.7716 86.4124 70.5279 87.5948 69.8339C88.3695 69.3791 89.4396 68.3293 89.8176 67.6531C89.9603 67.398 90.1103 67.1888 90.151 67.1882C90.3082 67.1861 91.7441 67.97 91.7441 68.058C91.7441 68.1621 91.3125 68.9886 91.228 69.0463C91.198 69.0668 91.1351 69.1567 91.0882 69.2462C90.9113 69.5834 90.1002 70.3793 89.336 70.9655C88.9305 71.2766 87.8571 71.8236 87.1131 72.0983C86.1247 72.4633 85.5252 72.5612 84.1493 72.5823C83.4158 72.5935 82.7323 72.5878 82.6304 72.5694ZM23.5024 72.4654C23.5024 72.424 23.5346 72.332 23.5739 72.261C23.6133 72.1899 23.7151 71.9646 23.8003 71.7601C23.8854 71.5556 23.9845 71.3214 24.0203 71.2396C24.0562 71.1579 24.2894 70.6058 24.5384 70.0129C24.7875 69.42 25.0216 68.8679 25.0586 68.7861C25.0956 68.7043 25.2122 68.42 25.3178 68.1542C25.4233 67.8884 25.5397 67.604 25.5764 67.5222C25.6131 67.4404 25.714 67.2062 25.8007 67.0018C25.8874 66.7973 26.0059 66.5246 26.0641 66.3957C26.1223 66.2669 26.1699 66.1396 26.1699 66.1129C26.1699 66.0707 26.3119 65.728 26.5411 65.2174C26.5778 65.1356 26.6941 64.8512 26.7997 64.5854C26.9052 64.3196 27.0219 64.0352 27.059 63.9534C27.0961 63.8717 27.2128 63.5873 27.3183 63.3215C27.4239 63.0557 27.5402 62.7713 27.5769 62.6895C27.6136 62.6077 27.714 62.3735 27.8 62.1691C27.8859 61.9646 27.9856 61.7304 28.0215 61.6486C28.0574 61.5668 28.2407 61.1319 28.4289 60.6821C28.617 60.2323 28.8009 59.7973 28.8375 59.7155C28.8741 59.6338 29.0407 59.2323 29.2078 58.8234C29.3748 58.4144 29.5414 58.0129 29.5778 57.9312C29.6142 57.8494 29.7606 57.4981 29.9032 57.1505C30.7017 55.2032 30.8847 54.7629 31.0618 54.3624C31.098 54.2806 31.2146 53.9962 31.3209 53.7304C31.4272 53.4646 31.5789 53.105 31.658 52.9312L31.8019 52.6152H32.6074H33.4129L33.5786 53.0055C33.7846 53.4911 34.0112 54.018 34.0981 54.2137C34.3503 54.782 34.4685 55.0667 34.4685 55.1059C34.4685 55.1474 34.6107 55.4841 34.8814 56.0837C34.9396 56.2125 34.9872 56.3398 34.9872 56.3666C34.9872 56.4086 35.1018 56.6855 35.3577 57.262C35.6099 57.8303 35.7281 58.115 35.7281 58.1542C35.7281 58.1791 35.7972 58.3566 35.8817 58.5486C35.9661 58.7406 36.0851 59.0148 36.146 59.1579C36.207 59.301 36.2864 59.485 36.3226 59.5668C36.3588 59.6486 36.4747 59.933 36.5802 60.1988C36.6858 60.4646 36.8019 60.749 36.8382 60.8308C36.8746 60.9126 37.1086 61.4646 37.3582 62.0575C37.6079 62.6505 37.8419 63.2025 37.8782 63.2843C37.9146 63.3661 37.9987 63.5668 38.065 63.7304C38.7464 65.4095 39.017 66.0696 39.1011 66.2583C39.1558 66.381 39.3379 66.8159 39.5057 67.2248C39.6735 67.6337 39.8406 68.0352 39.8771 68.117C39.9136 68.1988 40.0138 68.433 40.0998 68.6374C40.1857 68.8419 40.2861 69.0761 40.3228 69.1579C40.3595 69.2397 40.4758 69.524 40.5814 69.7898C40.6869 70.0557 40.8034 70.34 40.8401 70.4218C41.199 71.2196 41.6558 72.3454 41.6558 72.4322C41.6558 72.5224 41.4744 72.5408 40.5864 72.5408C39.5418 72.5408 39.5158 72.5369 39.4661 72.3735C39.4207 72.224 39.2483 71.8043 39.0617 71.3884C39.025 71.3066 38.908 71.0222 38.8018 70.7564C38.6207 70.3034 38.4742 69.9531 38.3198 69.604C38.2836 69.5222 38.1677 69.2378 38.0621 68.972C37.9566 68.7062 37.8402 68.4218 37.8035 68.34C37.5788 67.8393 37.4323 67.4872 37.4323 67.4478C37.4323 67.4229 37.3704 67.2622 37.2947 67.0906C37.2189 66.9191 37.1108 66.67 37.0543 66.5371L36.9516 66.2954H32.5701H28.1887L28.0392 66.6486C27.957 66.8428 27.7986 67.236 27.6871 67.5222C27.5756 67.8084 27.422 68.183 27.3458 68.3545C27.2696 68.5261 27.2072 68.6868 27.2072 68.7118C27.2072 68.7512 27.0607 69.1032 26.836 69.604C26.7993 69.6858 26.6829 69.9701 26.5774 70.2359C26.4719 70.5017 26.3545 70.7861 26.3165 70.8679C26.2786 70.9497 26.1271 71.3177 25.9798 71.6858C25.8326 72.0538 25.6948 72.3967 25.6737 72.4478C25.625 72.5659 23.5024 72.583 23.5024 72.4654ZM36.4691 64.6557C36.4691 64.5847 36.3599 64.3173 36.0562 63.6448C35.998 63.516 35.9504 63.3872 35.9504 63.3586C35.9504 63.3301 35.902 63.2014 35.8428 63.0725C35.7836 62.9436 35.5495 62.3698 35.3227 61.7973C35.0958 61.2248 34.8793 60.6895 34.8415 60.6077C34.8038 60.5259 34.6196 60.0576 34.4323 59.5668C34.245 59.0761 34.0621 58.6077 34.0258 58.5259C33.9896 58.4442 33.91 58.2602 33.8491 58.117C33.7881 57.9739 33.6692 57.6997 33.5847 57.5077C33.5003 57.3157 33.431 57.1317 33.4307 57.0988C33.4307 57.0659 33.3872 56.9553 33.3346 56.8531C33.282 56.7509 33.1588 56.4498 33.0607 56.1839C32.9627 55.9182 32.8394 55.617 32.7868 55.5148C32.7342 55.4126 32.6909 55.2871 32.6907 55.236C32.6894 55.0797 32.5551 55.1327 32.5018 55.3104C32.4741 55.4024 32.4074 55.578 32.3536 55.7007C32.2997 55.8234 32.1183 56.2583 31.9505 56.6672C31.7826 57.0761 31.5483 57.6449 31.4297 57.9312C31.3112 58.2174 30.6818 59.7397 30.0311 61.3141C29.3804 62.8884 28.7951 64.302 28.7305 64.4553L28.613 64.7341H32.541C35.2466 64.7341 36.4691 64.7097 36.4691 64.6557ZM43.7304 62.578V52.6152L47.8612 52.6164C52.1755 52.6177 52.9568 52.6575 53.6486 52.9163C54.1369 53.0989 54.8936 53.4752 55.032 53.6042C55.0849 53.6536 55.2395 53.777 55.3755 53.8784C56.3315 54.5917 57.2446 56.016 57.5931 57.337C57.9305 58.6162 57.7925 60.3576 57.2576 61.5712C56.4898 63.3133 55.1975 64.519 53.5661 65.0154C53.239 65.115 52.5885 65.1381 49.4543 65.1616L45.731 65.1896V68.8655V72.5414H44.7307H43.7304V62.5787V62.578ZM52.5239 63.3154C53.8906 63.1257 54.9984 62.0807 55.5519 60.459C55.7423 59.9011 55.7856 58.3612 55.6283 57.7423C55.4146 56.9015 55.0229 56.2033 54.4413 55.6263C54.1527 55.3401 53.817 55.0558 53.6953 54.9945C53.5735 54.9332 53.4573 54.8651 53.4369 54.843C53.4165 54.821 53.2498 54.7381 53.0664 54.6589C52.7551 54.5243 52.5012 54.5132 49.232 54.491L45.731 54.4671V58.9315V63.3958H48.8376C50.6593 63.3958 52.184 63.3626 52.5239 63.3154ZM56.6734 72.485C56.6555 72.4543 56.7687 72.1281 56.9249 71.7601C57.081 71.3921 57.4965 70.3884 57.8482 69.5296C58.1999 68.6709 58.5326 67.8679 58.5876 67.7453C58.6426 67.6226 58.8255 67.1876 58.994 66.7787C59.2891 66.0626 59.4493 65.6818 59.5881 65.3661C59.6241 65.2843 59.7908 64.8828 59.9586 64.4739C60.1264 64.065 60.3077 63.63 60.3615 63.5074C60.4154 63.3847 60.6313 62.8661 60.8413 62.3549C61.0512 61.8438 61.3196 61.1914 61.4375 60.9051C61.689 60.2949 62.5301 58.2955 62.626 58.0799C62.6624 57.9981 62.7785 57.7137 62.884 57.4479C62.9896 57.1821 63.1059 56.8977 63.1426 56.8159C63.1793 56.7341 63.2803 56.4999 63.367 56.2955C63.4536 56.091 63.5721 55.8183 63.6303 55.6894C63.6885 55.5606 63.7361 55.4333 63.7361 55.4066C63.7361 55.3646 63.8507 55.0876 64.1066 54.5111C64.2538 54.1795 64.4652 53.6687 64.6297 53.2472C64.7254 53.0018 64.8344 52.7593 64.8718 52.7081C64.9189 52.6438 65.1848 52.6152 65.7368 52.6152H66.5338L66.6304 52.8568C66.8248 53.3425 67.6758 55.3697 67.8868 55.8494C67.9227 55.9312 68.0888 56.3327 68.2559 56.7416C68.423 57.1505 68.5904 57.552 68.6279 57.6338C68.6654 57.7155 68.9486 58.4014 69.2573 59.1579C69.5659 59.9144 69.8485 60.6003 69.8851 60.6821C69.9217 60.7639 70.125 61.249 70.3369 61.7601C70.8377 62.9683 71.3583 64.2117 71.4419 64.3995C71.4782 64.4813 71.5783 64.7155 71.6643 64.92C71.7503 65.1244 71.8506 65.3586 71.8873 65.4404C71.924 65.5222 72.041 65.8066 72.1472 66.0724C72.3283 66.5254 72.4748 66.8757 72.6292 67.2248C72.6654 67.3066 72.7819 67.591 72.8882 67.8568C72.9944 68.1226 73.1293 68.4455 73.1879 68.5743C73.2465 68.7032 73.2944 68.8316 73.2944 68.8597C73.2944 68.8878 73.3944 69.1276 73.5167 69.3927C73.6389 69.6577 73.739 69.8923 73.739 69.9139C73.739 69.9355 73.7869 70.0587 73.8455 70.1875C73.9041 70.3164 74.0389 70.6393 74.1452 70.9051C74.2514 71.1709 74.3684 71.4553 74.4051 71.5371C74.6617 72.1089 74.7763 72.3945 74.7763 72.4623C74.7763 72.5818 72.7416 72.568 72.6454 72.4478C72.6046 72.3967 72.2797 71.6356 71.9236 70.7564C71.5674 69.8772 71.2321 69.0575 71.1784 68.9348C71.1247 68.8122 70.9939 68.4943 70.8876 68.2285C70.7814 67.9627 70.6644 67.6783 70.6277 67.5965C70.5272 67.3727 70.2921 66.8098 70.1849 66.5365L70.0899 66.2943L65.6818 66.3134L61.2738 66.3326L60.8351 67.4107C60.5938 68.0036 60.3643 68.5662 60.325 68.6609C60.2858 68.7555 60.2536 68.8494 60.2536 68.8694C60.2536 68.9012 60.0928 69.284 59.8824 69.7527C59.8457 69.8345 59.7288 70.1188 59.6225 70.3846C59.5163 70.6504 59.3856 70.9683 59.3321 71.091C59.2786 71.2136 59.1241 71.59 58.9887 71.9274L58.7426 72.5408H57.7242C57.1641 72.5408 56.6912 72.5157 56.6734 72.485ZM69.5896 64.6947C69.5896 64.658 69.3345 64.0208 69.1142 63.5074C69.0616 63.3847 68.9402 63.0668 68.8445 62.801C68.7487 62.5352 68.6274 62.2341 68.5748 62.1319C68.5222 62.0297 68.4789 61.9191 68.4787 61.8862C68.4774 61.8344 68.3477 61.5157 68.107 60.9795C68.0703 60.8977 67.9533 60.6133 67.8471 60.3475C67.7408 60.0817 67.6102 59.7639 67.5568 59.6412C67.5034 59.5185 67.3984 59.2509 67.3235 59.0464C67.2486 58.8419 67.1445 58.591 67.0922 58.4888C67.04 58.3866 66.997 58.2745 66.9968 58.2398C66.9968 58.2051 66.9481 58.0713 66.8892 57.9424C66.8303 57.8135 66.6595 57.3903 66.5096 57.0018C66.3598 56.6133 66.1793 56.1617 66.1086 55.9981C66.0379 55.8345 65.9338 55.5919 65.8773 55.4589C65.7491 55.1573 65.665 55.1815 65.5388 55.5562C65.4845 55.7174 65.4086 55.9163 65.3701 55.9981C65.3317 56.0799 65.2299 56.3141 65.1439 56.5185C65.058 56.723 64.9576 56.9572 64.9208 57.039C64.8605 57.1729 64.0544 59.1063 63.0607 61.4999C62.857 61.9906 62.6606 62.459 62.6242 62.5408C62.5878 62.6226 62.4219 63.0241 62.2555 63.433C62.0891 63.8419 61.904 64.2864 61.8443 64.4206C61.7845 64.5549 61.7355 64.6804 61.7355 64.6995C61.7355 64.7185 63.5027 64.7341 65.6626 64.7341C67.8225 64.7341 69.5896 64.7164 69.5896 64.6947ZM94.4466 72.4501C94.4267 72.3977 94.419 67.9218 94.4295 62.5036L94.4486 52.6524H95.4118H96.375L96.3941 57.0575L96.4133 61.4627H102.229H108.045V57.039V52.6152H109.045H110.046V62.578V72.5408H109.045H108.045V67.8939V63.2471H102.229H96.4132L96.3941 67.8753L96.375 72.5036L95.4288 72.5244C94.7129 72.5402 94.4739 72.5222 94.4466 72.4501ZM114.417 62.578V52.6152H120.938H127.458V53.5446V54.4739H121.938H116.418V57.9683V61.4627H121.234H126.05V62.3549V63.2471H121.234H116.418V66.9646V70.682H122.049H127.68V71.6114V72.5408H121.049H114.417V62.578Z" fill="black"/>
<path d="M22.9336 81.0708V74.9033H23.9712V77.5768H27.0224V74.9033H28.06V81.0708H27.0224V78.5473H23.9712V81.0708H22.9336Z" fill="black"/>
<path d="M32.0902 75.8562V81.0708H31.0526V75.8562H29.1885V74.9033H33.9544V75.8562H32.0902Z" fill="black"/>
<path d="M37.3973 75.8562V81.0708H36.3597V75.8562H34.4956V74.9033H39.2615V75.8562H37.3973Z" fill="black"/>
<path d="M42.4932 74.9033C43.4252 74.9033 44.1052 75.0827 44.5332 75.4415C44.9611 75.8004 45.1751 76.3533 45.1751 77.1003C45.1751 77.8474 44.9552 78.3944 44.5156 78.7414C44.0818 79.0885 43.4135 79.262 42.5108 79.262H41.4204V81.0708H40.3828V74.9033H42.4932ZM42.6251 78.3179C43.1995 78.3179 43.5894 78.2091 43.7945 77.9915C44.0056 77.7679 44.1111 77.4444 44.1111 77.0209C44.1111 76.5915 43.9792 76.2886 43.7154 76.1121C43.4516 75.9356 43.0383 75.8474 42.4756 75.8474H41.4204V78.3179H42.6251Z" fill="black"/>
<path d="M50.6529 75.7156C50.354 75.7156 50.1078 75.7774 49.9143 75.9009C49.7209 76.0245 49.6241 76.2127 49.6241 76.4656C49.6241 76.7127 49.7209 76.9038 49.9143 77.0391C50.1078 77.1685 50.5181 77.3097 51.1454 77.4627C51.7785 77.6156 52.2533 77.8303 52.5698 78.1068C52.8923 78.3832 53.0535 78.792 53.0535 79.3332C53.0535 79.8685 52.8512 80.3037 52.4467 80.639C52.0423 80.9743 51.5117 81.142 50.8552 81.142C49.8938 81.142 49.0409 80.8096 48.2964 80.1449L48.9471 79.3597C49.5685 79.9008 50.2133 80.1714 50.8816 80.1714C51.2157 80.1714 51.4795 80.1008 51.6729 79.9596C51.8723 79.8126 51.9719 79.6214 51.9719 79.3861C51.9719 79.145 51.8781 78.9597 51.6905 78.8303C51.5088 78.695 51.1923 78.5744 50.7409 78.4685C50.2895 78.3567 49.9466 78.2567 49.7121 78.1685C49.4776 78.0744 49.2695 77.9538 49.0878 77.8068C48.7243 77.5303 48.5426 77.1068 48.5426 76.5362C48.5426 75.9656 48.7478 75.5274 49.1581 75.2215C49.5743 74.9098 50.0873 74.7539 50.6969 74.7539C51.0897 74.7539 51.4795 74.8186 51.8664 74.948C52.2533 75.0774 52.5874 75.2598 52.8688 75.4951L52.3148 76.2803C52.1331 76.1156 51.8869 75.9803 51.5762 75.8745C51.2655 75.7686 50.9578 75.7156 50.6529 75.7156Z" fill="black"/>
<path d="M58.6622 74.9033V75.8827H55.3823V77.515H58.328V78.4415H55.3823V80.0914H58.7677V81.0708H54.3447V74.9033H58.6622Z" fill="black"/>
<path d="M65.0052 76.9062C65.0052 77.9238 64.5626 78.565 63.6774 78.8297L65.2866 81.0708H63.9676L62.4992 78.9973H61.1362V81.0708H60.0986V74.9033H62.3848C63.3228 74.9033 63.994 75.0621 64.3985 75.3798C64.803 75.6974 65.0052 76.2062 65.0052 76.9062ZM62.4288 78.0532C63.015 78.0532 63.4136 77.9621 63.6247 77.7797C63.8357 77.5974 63.9412 77.3062 63.9412 76.9062C63.9412 76.5003 63.8328 76.2239 63.6159 76.0768C63.399 75.9239 63.0121 75.8474 62.4552 75.8474H61.1362V78.0532H62.4288Z" fill="black"/>
<path d="M69.2234 81.0708H68.0627L65.5918 74.9033H66.7525L68.643 79.5091L70.5335 74.9033H71.6942L69.2234 81.0708Z" fill="black"/>
<path d="M76.8843 74.9033V75.8827H73.6045V77.515H76.5502V78.4415H73.6045V80.0914H76.9898V81.0708H72.5669V74.9033H76.8843Z" fill="black"/>
<path d="M83.2269 76.9062C83.2269 77.9238 82.7843 78.565 81.8991 78.8297L83.5083 81.0708H82.1893L80.7208 78.9973H79.3579V81.0708H78.3203V74.9033H80.6065C81.5445 74.9033 82.2157 75.0621 82.6202 75.3798C83.0246 75.6974 83.2269 76.2062 83.2269 76.9062ZM80.6505 78.0532C81.2367 78.0532 81.6353 77.9621 81.8464 77.7797C82.0574 77.5974 82.1629 77.3062 82.1629 76.9062C82.1629 76.5003 82.0545 76.2239 81.8376 76.0768C81.6207 75.9239 81.2338 75.8474 80.6769 75.8474H79.3579V78.0532H80.6505Z" fill="black"/>
<path d="M89.2407 74.9033C90.1728 74.9033 90.8528 75.0827 91.2807 75.4415C91.7087 75.8004 91.9226 76.3533 91.9226 77.1003C91.9226 77.8474 91.7028 78.3944 91.2631 78.7414C90.8294 79.0885 90.1611 79.262 89.2583 79.262H88.168V81.0708H87.1304V74.9033H89.2407ZM89.3726 78.3179C89.9471 78.3179 90.3369 78.2091 90.5421 77.9915C90.7531 77.7679 90.8587 77.4444 90.8587 77.0209C90.8587 76.5915 90.7268 76.2886 90.463 76.1121C90.1992 75.9356 89.7859 75.8474 89.2231 75.8474H88.168V78.3179H89.3726Z" fill="black"/>
<path d="M98.0477 76.9062C98.0477 77.9238 97.6051 78.565 96.7199 78.8297L98.3291 81.0708H97.0101L95.5416 78.9973H94.1787V81.0708H93.1411V74.9033H95.4273C96.3653 74.9033 97.0365 75.0621 97.441 75.3798C97.8454 75.6974 98.0477 76.2062 98.0477 76.9062ZM95.4713 78.0532C96.0575 78.0532 96.4561 77.9621 96.6672 77.7797C96.8782 77.5974 96.9837 77.3062 96.9837 76.9062C96.9837 76.5003 96.8753 76.2239 96.6584 76.0768C96.4415 75.9239 96.0546 75.8474 95.4977 75.8474H94.1787V78.0532H95.4713Z" fill="black"/>
<path d="M103.926 76.3597C103.51 75.9245 102.997 75.7068 102.387 75.7068C101.778 75.7068 101.262 75.9245 100.84 76.3597C100.423 76.795 100.215 77.3244 100.215 77.9479C100.215 78.5656 100.423 79.092 100.84 79.5273C101.262 79.9626 101.778 80.1802 102.387 80.1802C102.997 80.1802 103.51 79.9626 103.926 79.5273C104.348 79.092 104.559 78.5656 104.559 77.9479C104.559 77.3244 104.348 76.795 103.926 76.3597ZM104.691 80.2243C104.07 80.8302 103.302 81.1331 102.387 81.1331C101.473 81.1331 100.705 80.8302 100.083 80.2243C99.4621 79.6126 99.1514 78.8538 99.1514 77.9479C99.1514 77.0362 99.4621 76.2774 100.083 75.6715C100.705 75.0598 101.473 74.7539 102.387 74.7539C103.302 74.7539 104.07 75.0598 104.691 75.6715C105.312 76.2774 105.623 77.0362 105.623 77.9479C105.623 78.8538 105.312 79.6126 104.691 80.2243Z" fill="black"/>
<path d="M106.946 75.8386V74.9033H109.935V78.9708C109.935 79.6885 109.754 80.2267 109.39 80.5855C109.027 80.9443 108.561 81.1237 107.992 81.1237C107.277 81.1237 106.667 80.8708 106.163 80.3649L106.752 79.5444C107.151 79.9267 107.541 80.1179 107.922 80.1179C108.191 80.1179 108.42 80.0267 108.608 79.8444C108.801 79.662 108.898 79.3885 108.898 79.0238V75.8386H106.946Z" fill="black"/>
<path d="M115.904 74.9033V75.8827H112.624V77.515H115.57V78.4415H112.624V80.0914H116.009V81.0708H111.586V74.9033H115.904Z" fill="black"/>
<path d="M120.145 80.1273C120.502 80.1273 120.81 80.0685 121.068 79.9508C121.326 79.8273 121.595 79.6332 121.877 79.3685L122.545 80.0567C121.894 80.7802 121.103 81.142 120.171 81.142C119.245 81.142 118.474 80.842 117.858 80.242C117.249 79.642 116.944 78.8832 116.944 77.9656C116.944 77.048 117.255 76.2833 117.876 75.6715C118.503 75.0598 119.292 74.7539 120.241 74.7539C121.197 74.7539 121.994 75.1068 122.633 75.8127L121.974 76.5362C121.68 76.2539 121.402 76.0568 121.138 75.9451C120.88 75.8333 120.575 75.7774 120.224 75.7774C119.602 75.7774 119.081 75.9803 118.659 76.3862C118.236 76.7862 118.025 77.3009 118.025 77.9303C118.025 78.5538 118.234 79.0773 118.65 79.5008C119.072 79.9185 119.57 80.1273 120.145 80.1273Z" fill="black"/>
<path d="M126.136 75.8562V81.0708H125.098V75.8562H123.234V74.9033H128V75.8562H126.136Z" fill="black"/>
</svg>
