<svg width="128" height="128" viewBox="0 0 128 128" fill="none" xmlns="http://www.w3.org/2000/svg">
<path d="M14.7998 71L7.39981 91H12.5998L13.9998 87H21.4998L22.8998 91H28.2998L20.8998 71H14.7998ZM15.2998 83L17.7998 75.8L20.2998 83H15.2998ZM40.7998 75.2C39.7998 75.2 38.9998 75.4 38.1998 75.8C37.3998 76.2 36.9998 76.7 35.9998 77.2V76H30.9998V96H35.9998V90.1C35.9998 90.4 37.0998 90.7 37.6998 90.9C38.2998 91.1 38.9998 91.2 39.7998 91.2C40.6998 91.2 41.5998 91 42.3998 90.7C43.1998 90.4 43.8998 89.8 44.5998 89.1C45.1998 88.4 45.6998 87.6 46.0998 86.6C46.4998 85.6 46.6998 84.4 46.6998 83.2C46.6998 80.8 46.1998 78.9 45.0998 77.5C43.9998 76.1 42.6998 75.2 40.7998 75.2ZM40.7998 86.6C40.1998 87.4 39.1998 87.7 37.8998 87.7C37.4998 87.7 37.2998 87.7 36.8998 87.6C36.4998 87.6 35.9998 87.5 35.9998 87.4V79.8C35.9998 79.5 36.7998 79.3 37.2998 79.2C37.7998 79.1 38.1998 79 38.6998 79C39.7998 79 40.5998 79.3 41.0998 80C41.5998 80.7 41.7998 81.7 41.7998 83.2C41.6998 84.7 41.3998 85.8 40.7998 86.6ZM62.2998 76.5C61.0998 75.6 59.0998 75.2 56.3998 75.2C55.1998 75.2 53.8998 75.3 52.6998 75.5C51.4998 75.7 50.9998 75.9 49.9998 76V80H50.8998C51.2998 80 51.9998 79.5 52.8998 79.2C53.7998 78.9 54.6998 78.7 55.4998 78.7C56.7998 78.7 57.5998 78.8 58.2998 79.1C58.9998 79.4 58.9998 80 58.9998 80.8V80.9C57.9998 81 56.3998 81.1 55.0998 81.3C53.7998 81.5 52.7998 81.8 51.8998 82.2C50.9998 82.6 50.2998 83.2 49.8998 83.9C49.3998 84.6 49.1998 85.5 49.1998 86.6C49.1998 88 49.6998 89.1 50.6998 90C51.6998 90.9 52.8998 91.3 54.2998 91.3C54.8998 91.3 55.4998 91.2 55.9998 91.1C56.4998 91 56.9998 90.8 57.4998 90.6C57.7998 90.4 57.9998 90.2 58.3998 89.9C58.7998 89.6 59.0998 89.4 59.0998 89.2V91H64.0998V80.5C63.9998 78.7 63.4998 77.4 62.2998 76.5ZM58.9998 86.9C58.9998 87.2 58.3998 87.5 57.8998 87.7C57.3998 87.9 56.9998 88 56.4998 88C55.8998 88 55.4998 88 55.1998 87.9C54.8998 87.8 54.6998 87.7 54.4998 87.5C54.2998 87.3 54.1998 87.1 54.0998 86.9C53.9998 86.7 53.9998 86.4 53.9998 86.1C53.9998 85.6 54.0998 85.2 54.3998 84.9C54.6998 84.6 54.9998 84.4 55.4998 84.2C55.8998 84.1 56.1998 84 56.9998 83.9L58.8998 83.7V86.9H58.9998ZM76.4998 75.2C75.2998 75.2 74.1998 75.3 73.1998 75.6C72.0998 75.9 71.1998 76.4 70.3998 77C69.5998 77.7 68.8998 78.5 68.3998 79.6C67.8998 80.7 67.6998 81.9 67.6998 83.3C67.6998 84.6 67.8998 85.8 68.3998 86.8C68.8998 87.8 69.4998 88.6 70.2998 89.3C71.0998 90 72.0998 90.4 73.1998 90.8C74.2998 91.1 75.4998 91.3 76.7998 91.3C77.7998 91.3 78.7998 91.2 79.5998 91C80.3998 90.8 81.0998 90.5 82.0998 90.1V86H81.2998C81.0998 86 80.8998 86.4 80.6998 86.6C80.4998 86.8 80.1998 87 79.8998 87.2C79.5998 87.4 79.1998 87.5 78.6998 87.7C78.1998 87.8 77.6998 87.9 76.9998 87.9C75.6998 87.9 74.6998 87.5 73.9998 86.8C73.2998 86.1 72.8998 84.9 72.8998 83.5C72.8998 82.1 73.1998 81 73.8998 80.1C74.5998 79.3 75.5998 78.9 76.8998 78.9C77.4998 78.9 77.9998 79 78.3998 79.1C78.7998 79.2 79.1998 79.4 79.5998 79.6C79.9998 79.8 80.2998 80.2 80.5998 80.4C80.8998 80.6 81.0998 80.2 81.2998 81.2H81.9998V76.7C80.9998 76.3 80.3998 76 79.4998 75.8C78.5998 75.4 77.5998 75.2 76.4998 75.2ZM95.0998 75.2C94.0998 75.2 93.2998 75.4 92.4998 75.7C91.6998 76.1 90.9998 76.6 89.9998 77.3V70H84.9998V91H89.9998V80.1C90.9998 79.8 90.9998 79.6 91.4998 79.4C91.9998 79.3 92.3998 79.2 92.7998 79.2C93.3998 79.2 93.8998 79.3 94.2998 79.4C94.5998 79.6 94.8998 79.8 95.0998 80.1C95.2998 80.4 95.0998 80.8 95.1998 81.4C95.2998 82 95.0998 82.6 95.0998 83.2V91H100.1V81C100.1 79.1 99.7998 77.7 98.8998 76.7C97.8998 75.7 96.7998 75.2 95.0998 75.2ZM112.4 75.2C109.7 75.2 107.6 75.9 106.1 77.4C104.6 78.9 103.8 80.9 103.8 83.4C103.8 85.9 104.6 87.9 106.2 89.3C107.8 90.7 110.2 91.4 113.2 91.4C114.4 91.4 115.7 91.3 116.7 91.1C117.7 90.9 118.1 90.6 120.1 90.1V86.1H119.1C118.5 87.1 117.8 87 116.8 87.3C115.8 87.7 114.8 87.9 113.8 87.9C112.2 87.9 110.9 87.5 110.1 86.9C109.3 86.3 108.8 85.1 108.7 84.1H120V82.6C120 80.3 119.3 78.5 118 77.2C116.8 75.8 114.8 75.2 112.4 75.2ZM108.6 81C108.7 80 109 79.3 109.6 78.8C110.2 78.3 111 78.1 111.9 78.1C112.9 78.1 113.7 78.2 114.1 78.8C114.6 79.3 114.8 80 114.9 81H108.6ZM127.3 58.4L127.1 58.3V57.9L127 57.5L126.8 57.2L126.4 57H126.3L126.2 56.8L125.9 56.6L125.6 56.4L125.2 56.3H125L124.6 55.9L124.1 55.6L123.5 55.3L122.9 55.1H122.7L122.2 54.5L121.6 54.1L121 53.8L120.4 53.6H120.3L119.7 53.2L118.9 52.9L118.4 52.8L117.9 52.4L117.4 52.2L116.9 52.1L116.4 52H115.9L115.3 52.1H115.2L114.8 51.5L114.2 51.1L113.4 50.9H112.5L111.5 51.1L111.1 51.2L110.3 50.9L109.5 50.7H106.9L105.9 50.3L105 50L104.1 49.9H103.5L102.7 49.1L101.8 48.5L101 48.1L100.2 47.9H99.3998L98.9998 48.2L98.4998 47.8L97.8998 47.5L97.1998 47.4L96.5998 47.5L95.8998 47.2L95.1998 47H94.1998L93.0998 46.6L91.8998 46.3L90.7998 46.2H90.5998L89.3998 45.5L88.1998 45.2H87.0998H87.1998L85.4998 44.8L84.3998 44.7H83.8998L83.1998 44L82.3998 43.5L81.4998 43.3L80.5998 43.4L79.9998 43.6L79.1998 43.5H77.3998V43.3L75.9998 43L74.5998 42.8L73.2998 42.7L72.7998 42.8V42.7L71.7998 42.6L70.7998 42.5H70.6998L69.5998 42L68.4998 41.7L67.4998 41.6H66.6998L65.5998 41.2L64.6998 41H63.6998L62.5998 40.2L61.6998 39.9L60.9998 39.8L60.1998 39.4L58.9998 39.2H57.8998L56.7998 38.7L55.7998 38.5H55.1998L53.9998 37.9L52.9998 37.6L51.9998 37.5L51.6998 37.6H51.7998L50.3998 36.8L49.2998 36.4L48.2998 36.3H48.1998L47.4998 35.8L46.8998 35.5L46.2998 35.3L45.5998 35.2L44.8998 35.3L44.0998 34.7L43.3998 34.4L42.4998 34.3H41.6998L40.7998 34.5L40.5998 34.6L39.5998 34.1L38.5998 33.8H37.6998L36.8998 33.3L36.1998 33H35.3998L34.6998 33.1L33.9998 33.3H33.8998L33.1998 32.6L32.5998 32.2L31.8998 32.1L31.1998 32.2L30.5998 32.5L30.3998 32.4L30.0998 32.2L29.7998 32.1L29.4998 32H28.7998L28.4998 32.1L27.9998 32.4L27.8998 32.5L26.9998 32.3H26.1998L25.4998 32.5L24.8998 33L24.4998 33.5L24.1998 34.2L23.8998 35L23.6998 35.8L23.5998 36.6L23.4998 38.2L23.5998 40V40.3C23.0998 40.1 22.5998 39.9 21.9998 39.7V39.3L22.0998 38.7L22.1998 37.4L22.2998 36.2L22.1998 35L22.0998 34.4L21.9998 33.9L21.8998 33.4L21.6998 32.9L21.4998 32.5L21.1998 32.1L20.8998 31.7L20.2998 31.2L20.4998 32.1L20.5998 32.7L20.6998 33.3L20.7998 33.8L20.8998 34.4L20.9998 34.9V35V34.9L20.8998 34.6L20.7998 34.3L20.5998 33.7L20.2998 32.7L20.1998 32.4L19.9998 31.1V30.7L20.0998 30L20.1998 29.7L20.3998 29H20.1998L19.6998 29.6L19.3998 30.3L19.0998 31L18.9998 31.6V33L19.0998 33.7L19.1998 34.4L19.0998 34.3L18.7998 33.9L18.4998 33.5L18.2998 33L18.0998 32.5L17.8998 32L17.7998 31.3L17.6998 30.3L16.9998 30.9L16.6998 31.5L16.4998 32.1V32.7L16.5998 33.3L16.7998 33.9L17.0998 34.5L17.1998 34.7L16.9998 34.9L16.3998 34.8L16.2998 35L16.6998 35.2L17.0998 35.5L18.0998 36.3L18.3998 36.6L18.8998 37.2L19.3998 37.7L19.8998 38.2L20.2998 38.6L20.5998 39L20.7998 39.2C15.0998 36.9 9.0998 34.2 1.6998 30.7L1.2998 30.5L1.4998 30.9C2.4998 32.6 5.39981 34.3 7.89981 35.9C9.0998 36.6 10.1998 37.3 10.9998 37.9C13.3998 39.2 16.5998 40.6 19.3998 41.7H19.1998L17.1998 42.1L15.7998 42.4L14.3998 42.9L13.6998 43.2L12.9998 43.4L12.3998 43.8L11.8998 44.2L11.3998 44.7L10.9998 45.2L10.6998 45.8L10.4998 46.5L10.6998 46.6L10.8998 46.4L11.3998 45.9L11.5998 45.7L12.1998 45.3L12.4998 45.1L12.7998 44.9L13.3998 44.6L13.7998 44.5L14.0998 44.4L14.7998 44.2L15.4998 44.1L16.0998 43.9L17.3998 43.2L17.9998 42.8L18.5998 42.4L19.0998 42.1L19.4998 41.9L19.7998 41.8L20.3998 42L17.9998 43.2L16.6998 44L15.9998 44.5L15.3998 45L14.7998 45.5L14.2998 46.1L13.9998 46.6L13.7998 47.2L13.6998 47.8L13.7998 48.5L14.1998 49.4L14.6998 48.4L15.0998 47.8L15.4998 47.3L15.8998 46.9L16.2998 46.6L17.1998 46L17.5998 45.8L17.4998 46.2L17.2998 47V47.9L17.3998 48.9L17.6998 50H17.8998L18.0998 48.9L18.3998 47.9L18.5998 47.4L18.9998 46.5L19.4998 45.6L20.2998 44.2L21.3998 42.4C21.7998 42.6 22.1998 42.7 22.5998 42.8L22.4998 43L21.7998 44.4L21.3998 45L21.0998 45.7L20.9998 46.4L20.7998 47.1L20.6998 47.8V48.5L20.7998 49.1L21.0998 49.7L21.5998 50.2L22.2998 50.6L23.0998 50.9L23.3998 51.5L23.7998 52L24.1998 52.4L24.5998 52.7L24.9998 52.9L25.3998 53H26.3998V53.1L26.7998 53.7L27.3998 54.2L28.0998 54.5H28.8998L29.6998 54.3L29.8998 54.5L30.4998 55.1L31.0998 55.5L31.7998 55.8L32.5998 55.9H33.1998L33.7998 56.3L34.4998 56.6L35.2998 56.8L35.8998 57.3L36.6998 57.7L37.6998 57.9L38.7998 58H38.9998L39.6998 58.6L40.4998 59L41.1998 59.3L41.9998 59.4L42.8998 59.2L43.2998 59.4L43.8998 59.7L44.4998 59.8H45.0998L45.6998 59.7L45.9998 59.9L46.9998 60.2L48.0998 60.3L49.3998 60.2L49.7998 60.4L50.6998 60.7L51.6998 60.8L53.0998 60.7H53.1998L54.0998 61L55.0998 61.1L56.1998 61L56.5998 61.3L57.5998 61.7L58.5998 61.8L59.6998 61.7V61.6L60.2998 61.8H61.2998L62.3998 61.6L63.0998 61.8H63.8998L64.6998 61.7L65.7998 61.9L66.0998 62.1L67.0998 62.4L68.0998 62.6L69.1998 62.7L70.2998 62.6V62.5L70.8998 62.7L71.7998 62.8L72.6998 62.9V62.8L73.2998 63L74.4998 63.4L75.7998 63.7L77.1998 63.4V63.3H77.3998L78.2998 63.5L79.0998 63.6H79.9998L80.0998 63.7L80.8998 64.3L81.6998 64.7H82.9998L83.7998 64.3L84.4998 63.7L85.3998 63.8L86.4998 63.7H87.6998V63.8L87.9998 64L89.0998 64.2L90.1998 64.1L91.2998 63.6H92.2998L93.4998 63.7L94.4998 63.6L95.0998 63.7H96.4998L97.3998 63.6L97.8998 63.8L98.4998 63.9L99.0998 63.8L99.6998 63.5L99.7998 63.6L100.6 63.7H103.1L103.9 63.4L105 63H106.6L107.4 62.9L107.9 63.1L108.7 63.3L109.5 63.4L110.3 63.3L111.2 63.1L111.4 63.2L112.3 63.6L113.1 63.9H113.9L114.5 63.6L115 63.1L115.3 63.2L115.8 63.3L116.3 63.4H116.8L117.3 63.3L117.8 63.1L118.5 63.2L119.3 63.1L120 62.8H120.7L121.3 62.7L121.9 62.4L122.4 62L122.5 61.9L123.1 62L123.7 61.9L124.2 62H125.1L125.5 61.7L125.8 61.5L125.9 61.3H126L126.3 61.2L126.6 61L126.8 60.5L126.9 59.9H127.1L127.4 59.8L127.5 59.5L127.6 59.6V58.8L127.3 58.4ZM20.8998 42.4L20.5998 42.6L20.7998 42.1L21.0998 42.2L20.8998 42.4ZM21.3998 39.5L21.1998 39.3L20.9998 38.9V36.5L21.0998 35.7L21.1998 35.8L21.2998 36.3L21.3998 36.8L21.4998 37.3L21.7998 38.9L21.9998 39.6C21.6998 39.6 21.4998 39.5 21.3998 39.5Z" fill="#303284"/>
</svg>
