<svg width="128" height="128" viewBox="0 0 128 128" fill="none" xmlns="http://www.w3.org/2000/svg">
<path d="M23.9998 41.3V41.2V41.3ZM125.8 59L125.6 58.9V58.5L125.5 58.1L125.3 57.8L124.9 57.6L124.8 57.5L124.5 57.2L124.2 57L123.8 56.9H123.7L123.3 56.6L122.8 56.3L122.2 56L121.6 55.8H121.5L121 55.3L120.4 54.9L119.8 54.6L119.2 54.4H119.1L118.5 54L117.7 53.7L117.3 53.6L116.8 53.3L116.3 53.1H116.2L115.7 53L115.2 52.9H114.7L114 53L113.7 52.5L113 52L112.1 51.8H111.2L110.2 52L109.9 52.1L109.2 51.8L108.4 51.6L107.6 51.5H106.8L106 51.6H105.9L105 51.3L104.1 51L103.2 50.9H102.6L101.8 50.1L100.9 49.5L100.1 49.1L99.2998 48.9H98.4998L97.9998 49L97.4998 48.6L96.7998 48.3L95.9998 48.2L95.4998 48.3L94.7998 48L93.9998 47.9L93.2998 47.8H92.9998L91.9998 47.4L90.7998 47H89.4998L88.3998 46.4L87.1998 46.1H86.3998L84.5998 45.7L83.4998 45.6H82.9998L82.3998 45L81.5998 44.5L80.6998 44.3L79.7998 44.4L79.1998 44.6L78.3998 44.5H76.9998V44.4L75.2998 44.1L73.7998 43.9L72.4998 43.8H71.9998L70.9998 43.7L69.9998 43.6H69.8998L68.8998 43L67.7998 42.7L66.7998 42.6H65.9998L64.9998 42.1L64.0998 41.9L63.1998 41.8H62.9998L61.8998 41.1L60.9998 40.8L60.2998 40.7L59.4998 40.3L58.3998 40H57.3998L56.2998 39.5L55.2998 39.3H54.7998L53.6998 38.7L52.6998 38.4L51.6998 38.3H51.4998L49.9998 37.6L48.9998 37.2L47.8998 37.1H47.7998L47.0998 36.6L46.4998 36.3L45.8998 36.1L45.1998 36L44.5998 36.1L43.8998 35.6L43.1998 35.3L42.2998 35.2H41.4998L40.5998 35.4L40.4998 35.5L39.4998 35.1L38.4998 34.8H37.5998L36.7998 34.3L35.8998 34L35.0998 33.9L34.3998 34L33.6998 34.2L33.0998 33.6L32.4998 33.2L31.6998 33.1L30.9998 33.3L30.3998 33.6L29.9998 33.3L29.6998 33.1L29.3998 33L28.9998 32.9H28.4998L28.1998 33L27.6998 33.3L27.5998 33.4L26.6998 33.2H25.8998L25.1998 33.4L24.6998 34L24.2998 34.5L23.9998 35.3L23.6998 36L23.4998 36.8L23.3998 37.6L23.2998 39.2L23.5998 40.5L23.8998 41.2L23.7998 39.2L23.8998 37.7L23.9998 36.9L24.1998 36.2L24.3998 35.5L24.6998 34.9L25.0998 34.4L25.5998 34L26.1998 33.8H26.8998L27.3998 33.9L27.0998 34.3L26.7998 34.7L26.2998 35.7L25.6998 37.4L24.9998 39.7L24.5998 41.5L23.9998 41.3V41.4C22.9998 41.2 22.8998 41.1 22.3998 40.9L22.2998 40.3V39.7L22.3998 37.2V36.6L22.2998 35.4L22.1998 34.9L21.9998 34.4L21.7998 33.9L21.5998 33.4L21.3998 33L21.0998 32.6L20.1998 32V31.9L20.2998 31.2L20.3998 30.9L20.5998 30.3L20.0998 30L19.5998 30.6L19.2998 31.3L18.9998 32L18.8998 32.7L18.7998 33.4V34.1L18.8998 34.8L18.9998 35L18.8998 34.8L18.5998 34.4L18.1998 33.5L17.9998 33L17.8998 32.4L17.7998 31.2L16.8998 32L16.5998 32.6L16.3998 33.3V33.9L16.4998 34.5L16.6998 35.1L16.9998 35.7H16.8998L16.2998 35.6L16.1998 36L16.5998 36.2L17.9998 37.2L18.2998 37.5L20.4998 40L20.5998 40.1C15.0998 38 9.0998 35.3 1.7998 31.9C3.2998 34.4 8.7998 37 11.0998 38.7C13.3998 39.9 16.5998 41.3 19.3998 42.4L17.0998 42.9L15.6998 43.2L14.2998 43.7L13.5998 44L12.9998 44.2L12.3998 44.6L11.8998 45L11.3998 45.5L10.9998 46L10.6998 46.6L10.4998 47.3L10.8998 47.5L11.0998 47.3L11.7998 46.6L12.6998 46L13.5998 45.5L13.9998 45.4L14.2998 45.3L15.6998 45L16.2998 44.8L18.7998 43.3L19.2998 43L19.6998 42.8L19.9998 42.7L19.8998 42.5C20.0998 42.6 20.2998 42.6 20.3998 42.7L20.2998 42.8L17.8998 44L16.5998 44.8L15.3998 45.7L14.7998 46.2L14.2998 46.8L13.9998 47.4L13.7998 48L13.6998 48.7L13.7998 49.4L14.1998 50.5L14.7998 49.3L15.1998 48.7L15.5998 48.2L15.9998 47.8L16.3998 47.5L17.3998 46.9V47L17.2998 47.8V48.7L17.3998 49.7L17.6998 50.8H18.0998L18.1998 50.3L18.5998 48.8L18.7998 48.3L19.3998 46.9L20.3998 45.1L21.5998 43.2C21.8998 43.3 22.2998 43.4 22.5998 43.6L21.6998 45.3L21.3998 45.9L20.9998 46.5L20.7998 47.2L20.5998 47.9L20.4998 48.6V49.3L20.5998 49.9L20.8998 50.5L21.3998 51.1L22.1998 51.6L22.8998 51.8L23.0998 52.3L23.4998 52.8L23.8998 53.2L24.2998 53.5L24.6998 53.7L25.0998 53.9L25.9998 54H26.1998L26.5998 54.6L27.1998 55.1L27.8998 55.4H28.6998L29.3998 55.2L29.4998 55.4L30.0998 56L30.6998 56.4L31.2998 56.7L32.0998 56.8H32.6998L33.2998 57.2L33.9998 57.5L34.7998 57.7L35.3998 58.2L36.1998 58.6L37.1998 58.8L38.2998 58.9L38.3998 59L39.0998 59.6L39.8998 60L40.5998 60.3L41.4998 60.4L42.2998 60.2L42.6998 60.4L43.2998 60.7L43.8998 60.8H44.4998L45.0998 60.7L45.3998 60.9L46.3998 61.2L47.4998 61.3L48.7998 61.2L49.0998 61.4L49.9998 61.7L50.9998 61.8L52.3998 61.7L53.2998 62L54.2998 62.1L55.3998 62L55.7998 62.3L56.7998 62.7L57.8998 62.8L58.9998 62.7V62.6L59.5998 62.7H60.5998L61.6998 62.5L62.2998 62.7L63.0998 62.9L63.8998 63H64.8998L65.0998 63.1L66.0998 63.4L67.0998 63.6L68.1998 63.7L69.2998 63.6V63.5L69.8998 63.7L70.7998 63.8L71.6998 63.9V63.8L72.2998 64L73.4998 64.1L74.7998 64L76.1998 64.1L76.3998 64.2L77.2998 64.4L78.0998 64.5H78.9998L79.0998 64.6L79.8998 64.9L80.6998 65H80.7998L80.0998 64.7L79.2998 64.3L78.4998 63.8L77.6998 63.1L76.8998 62.4L76.7998 62.3L73.9998 58.6L72.1998 56.7L71.2998 55.8L70.8998 55.5H71.2998L73.3998 55.9L74.7998 57.1L76.7998 59.1L78.4998 60.9L79.1998 61.6L79.9998 62.3L80.7998 62.9L81.5998 63.5L81.9998 63.7L82.3998 63.9L82.9998 64.2L83.0998 64.3L82.7998 64.5L81.9998 65L82.7998 64.9L83.4998 64.5L84.3998 64.8L85.4998 65H86.6998L86.9998 65.1L88.0998 65.3L89.1998 65.2L90.2998 64.8L91.2998 64.9H92.4998L93.3998 64.8L93.9998 64.9H94.6998L96.1998 64.7L96.6998 64.9L97.2998 65L97.8998 64.9L98.3998 64.6H98.4998L99.2998 64.9L100.1 65H100.9L101.8 64.8L102.6 64.4L103.5 63.8H104.2L105.1 63.7L105.9 63.6L106.4 63.8L107.2 63.9L108 64L108.8 63.9L109.6 63.7L110 64L110.9 64.1L111.7 64H111.8L111 63.9L110.1 63.6L109.2 63.1L108.3 62.6L107.4 62L102.7 58.4L105.4 58.6L106.1 59L106.5 59.2L109.9 61.6L110.4 61.9L111.6 62.7L112.5 63.3L112.9 63.6L113.1 63.7L112.9 63.9L112.4 64L113.1 64.1L113.6 63.8L113.9 64L114.4 64.2L114.9 64.3H115.4L115.9 64.2L116.3 64.1L117 64.2L117.8 64.1L118.5 63.8H119.2L119.8 63.7L120.4 63.4L120.9 63H121.5L122.1 62.9L122.6 62.6L123.2 62.2H123.1L122.8 62.1L122.7 62L122.3 61.9L121.3 61.6L121 61.5L120.3 61.1L120 60.9L119.9 60.8L119.7 60.7L119.1 60.1L119 60L120.2 60.1L120.5 60.4L120.9 60.7L121.5 61.1L122 61L122.2 61.2L123.1 61.7L123.5 61.9L123.6 62L123.5 62.1L123.9 62.2H124.2L124.3 62.1L124.6 62L124.9 61.8L125.1 61.4L125.2 61H125.4L125.8 60.7L125.9 60.4H126V59.4L125.8 59ZM17.1998 43.8L15.9998 44.5L15.4998 44.7L14.7998 44.8L13.3998 45.2L12.3998 45.7L11.4998 46.3L11.3998 46.4L11.7998 45.7L12.1998 45.2L12.6998 44.8L13.1998 44.4L13.7998 44.1L14.3998 43.8L15.6998 43.4L18.2998 42.8L17.1998 43.8ZM15.9998 47.2L15.5998 47.6L15.1998 48L14.7998 48.5L14.3998 49.1L14.2998 49.4L14.1998 49.3L14.0998 48.7L14.1998 48.2L14.3998 47.7L14.6998 47.2L15.0998 46.7L15.5998 46.2L16.7998 45.3L18.0998 44.5L20.0998 43.4L19.9998 43.7L19.1998 44.2L18.7998 44.5L18.3998 44.9L17.9998 45.3L17.6998 45.8L17.4998 46.3L15.9998 47.2ZM19.4998 44.5L18.9998 45.2L18.2998 45.8L18.3998 45.6L18.6998 45.2L19.0998 44.8L19.4998 44.5ZM20.1998 44.3L19.0998 46.2L18.1998 48.1L17.6998 49.6V49.7L17.4998 48.7V47.9L17.5998 47.2L17.7998 46.6L18.3998 46.2L19.2998 45.5L20.1998 44.3L20.3998 43.9L20.4998 43.8L20.1998 44.3ZM20.4998 33.1L20.5998 33.7L20.6998 34.3L20.7998 34.9L20.6998 34.6L20.3998 33.6L20.2998 32.9V32.1L20.4998 33.1ZM17.5998 35.9L17.3998 35.5L17.0998 34.9L16.8998 34.3L16.7998 33.8V33.2L16.8998 32.7L17.1998 32.2L17.2998 32.1V32.4L17.3998 33.1L17.5998 33.7L18.0998 34.7L18.3998 35.1L19.0998 36V36.1L19.2998 36.8L19.3998 37L18.9998 36.5L18.5998 36.2L18.0998 36L17.5998 35.9ZM20.0998 38.8L19.1998 37.8L18.5998 37.2L18.0998 36.5L18.2998 36.6L18.6998 36.8L19.3998 37.3L19.6998 37.6L20.1998 38.3L20.2998 38.6L20.4998 39.2L20.0998 38.8ZM20.5998 37.3L20.3998 36.8L19.7998 36L19.5998 35.9L19.2998 34.8L18.9998 34V33.3L19.1998 32.7L19.3998 32.1L19.6998 31.5L19.7998 31.3V32.3L19.8998 33.4L19.9998 33.8L20.2998 34.8L20.4998 35.4L20.5998 35.6L20.6998 35.9L20.7998 36.5L20.8998 37.6V38.1L20.7998 37.9L20.5998 37.3ZM20.7998 43.2L20.8998 42.9H20.9998L20.7998 43.2ZM21.4998 40.6L21.3998 40.3H21.4998V39L21.7998 40.7C21.5998 40.7 21.4998 40.6 21.4998 40.6ZM21.8998 39.4L21.5998 37.3L21.4998 36.8L21.2998 35.3L21.1998 34.7L20.9998 33.6L20.8998 33.1L21.2998 33.6L21.4998 34L21.6998 34.5L21.7998 35L21.8998 35.5L21.9998 37.2L21.8998 39.4ZM121 56.2L121.4 56.3L122 56.5L122.5 56.7L122.7 56.8H121.7L121 57H120.9L120.4 57.2H120.3L120 57.3L119.5 57.5L119 58L118.7 58.3L118.5 58.6L117.7 58.5H117.3L116.5 58.4H116.2L115.8 58.3L115.9 58.1L116.2 57.7L116.6 57.3L117 57L117.5 56.7L118 56.5L118.2 56.4L118.9 56.2L119.3 56.1H120.2L121 56.2ZM118.5 54.8H119.1L119.6 54.9L120.1 55.2L120.6 55.6L120.7 55.7H119.7L119.1 55.8L118.5 55.9L118.2 56H118L117.6 56.1L116.8 56.5L116.5 56.7L116.3 56.8L116.2 56.9L115.9 57.3L115.8 57.4L115.5 57.9L115.3 58.2L113.1 57.9L112.6 57.8H112.5L113.1 57.4L113.2 57.3L114.9 56.2L115.6 55.7L116.8 55.1L117.4 54.9L118 54.8H118.5ZM115.7 54.1L116.4 54H116.9L117.6 54.1L118.3 54.3H118.1L117.6 54.4L117.1 54.5L116.6 54.7L115.6 55.2L114.7 55.8L114 56.3L113.5 56.6L112.4 57.4L112 57.7L111.7 57.9L109.2 57.6L109.3 57.5L111.1 56.2L111.7 55.8L113 55L113.7 54.7L114.4 54.4L115.1 54.2L115.7 54.1ZM106 52.1L106.8 52H107.6L108.4 52.1L109.1 52.3L109.2 52.4L108.4 52.7L106.3 53.7L104.1 54.9L102.3 56L101.6 56.5L101.5 56.6L98.4998 56.3L98.6998 56.1L99.1998 55.6L100.5 54.6L102 53.6L103.5 52.8L104.3 52.5L105.1 52.3L106 52.1ZM102.6 51.4H103L103.8 51.5L104.7 51.7L104.9 51.8L104.1 52.1L103.4 52.4L102.7 52.7L102 53.1L101.4 53.5L100.3 54.3L98.9998 55.4L98.8998 55.5L98.5998 55.8L97.9998 56.1V56L94.2998 55.7H94.3998L95.1998 54.7L95.7998 54.1L96.3998 53.5L96.9998 53L97.6998 52.6L98.3998 52.2L99.0998 51.9L99.5998 51.7L100.5 51.5L101.4 51.4H102.6ZM97.7998 49.4L98.2998 49.3H98.9998L99.7998 49.5L100.6 49.9L101.4 50.5L101.8 50.9H101.3L100.5 51L99.6998 51.2L99.4998 51.3H99.3998L98.8998 51.5L98.2998 51.7L97.6998 52L97.1998 52.3L96.5998 52.7L95.9998 53.2L95.3998 53.7L94.7998 54.3L94.1998 55L94.0998 55.2L93.6998 55.7L91.7998 55.4L90.8998 55.3L92.5998 53.2L93.7998 51.9L94.4998 51.3L94.9998 50.9L95.9998 50.2L96.5998 49.9L97.1998 49.6L97.7998 49.4ZM95.3998 48.8L95.9998 48.7H96.5998L97.0998 48.9L97.2998 49.1L96.6998 49.3L95.9998 49.7L95.1998 50.2L94.4998 50.8L93.7998 51.5L93.6998 51.6L93.4998 51.8L92.9998 52.4L92.2998 53L91.7998 53.6L90.1998 55.4L87.7998 55.1L87.9998 55L88.9998 54.1L90.8998 52.2L91.2998 51.8L92.3998 50.8L92.8998 50.4L93.3998 50L93.8998 49.6L94.9998 49L95.3998 48.8ZM92.5998 48.2L93.1998 48.3V48.2H93.2998L93.8998 48.3L94.5998 48.5L94.7998 48.6L94.5998 48.7L93.8998 49.1L93.6998 49.2L92.9998 49.6L92.5998 50L92.2998 50.2L91.8998 50.5L91.3998 50.9L90.9998 51.4L90.6998 51.7L90.0998 52.3L88.7998 53.7L87.6998 54.8L87.1998 55L84.9998 54.7L84.0998 54.6L85.5998 52.7L86.3998 51.8L87.1998 51L87.9998 50.3L88.4998 49.9L89.0998 49.5L89.7998 49.1H89.8998L90.4998 48.8L90.5998 48.7L90.7998 48.6L91.3998 48.4L92.0998 48.3L92.5998 48.2ZM89.6998 47.4L90.7998 47.5L91.8998 47.8L91.1998 48L90.7998 48.2H90.6998L90.5998 48.3H90.4998L90.3998 48.4L89.9998 48.6L89.7998 48.7L89.3998 48.9L88.6998 49.4L88.4998 49.5L88.3998 49.6L87.6998 50.2L86.3998 51.4L84.6998 53.2L83.6998 54.5L79.8998 54.1L79.5998 54H79.2998L79.6998 53.7L80.3998 53.1L81.6998 52L82.3998 51.3L82.7998 50.9L84.3998 49.5L85.1998 48.9L85.9998 48.4L86.1998 48.3L86.8998 48L87.6998 47.7L88.5998 47.4L89.0998 47.3L89.6998 47.4ZM86.0998 46.5H87.0998L88.1998 46.7L88.6998 47H88.5998L87.5998 47.2L86.5998 47.6L85.6998 48.1H85.5998L85.0998 48.4L84.4998 48.8L83.8998 49.2L83.3998 49.7L82.1998 50.8L80.7998 52.1L79.1998 53.4L78.3998 54H77.4998L76.8998 53.9L76.2998 53.8L75.2998 53.6L75.5998 53.5L76.1998 53.1L76.7998 52.6L77.7998 51.7L80.7998 49.1L81.7998 48.3L82.8998 47.6L83.9998 47L85.0998 46.6L86.0998 46.5ZM76.6998 44.8H78.4998L77.9998 45L77.0998 45.6L76.0998 46.3L75.3998 46.9L75.1998 47L74.4998 47.6L71.0998 50.5L69.8998 51.5L68.7998 52.3L68.2998 52.6H68.1998L66.5998 52.2L66.1998 52.1H66.0998L66.4998 51.3L67.0998 50.3L67.7998 49.4L68.4998 48.6L69.2998 47.8L70.1998 47.1L71.0998 46.5L71.6998 46.1L73.0998 45.4L73.8998 45.1L74.0998 45L74.7998 44.8L75.6998 44.6L76.6998 44.8ZM71.5998 44.2L72.5998 44.1L73.7998 44.2L75.0998 44.4L75.5998 44.5L74.6998 44.8L73.9998 44.9L73.7998 45L72.7998 45.4L71.7998 45.9L71.4998 46L71.3998 46.1L70.6998 46.5L69.8998 47L69.1998 47.5L68.5998 48L67.9998 48.6L67.3998 49.3L66.7998 50L66.2998 50.7L65.7998 51.5L65.3998 52.2H64.9998L64.3998 52H63.9998L63.5998 51.9H63.3998L63.7998 51.1L64.1998 50.4L64.9998 49L65.2998 48.5L65.8998 47.7L66.4998 46.9L67.1998 46.2L67.8998 45.6L68.6998 45.1L69.2998 44.8L70.0998 44.5L70.9998 44.2H71.5998ZM69.7998 43.9H70.5998L70.2998 44L69.2998 44.4L69.0998 44.5L68.3998 44.8L67.7998 45.2L67.1998 45.6L66.5998 46L66.0998 46.5L65.6998 47L64.8998 48.3L64.3998 49.2L63.8998 50.1L63.5998 50.8L62.9998 51.7L61.2998 51.4H60.9998L61.1998 50.7L61.7998 49.3L62.1998 48.6L62.5998 48L63.0998 47.4L63.5998 46.8L64.1998 46.3L64.7998 45.8L65.4998 45.4L66.1998 45L66.8998 44.7L67.6998 44.4L68.4998 44.2L69.2998 44.1L69.7998 43.9ZM66.6998 43L67.6998 43.1L68.6998 43.4L68.8998 43.5L68.1998 43.6L67.2998 43.8L66.3998 44.1L65.5998 44.5L64.7998 45L63.9998 45.5L63.2998 46.1L62.6998 46.8L61.9998 47.6L61.4998 48.5L60.9998 49.4L60.5998 50.4L60.3998 51.1L57.8998 50.7L58.1998 49.9L58.5998 48.9L59.0998 47.9L59.6998 47L60.2998 46.2L60.8998 45.5L61.5998 44.8L62.2998 44.2L62.8998 43.8H62.9998L63.7998 43.4L64.4998 43.2L64.7998 43.1L65.6998 43H66.6998ZM63.1998 42.3L63.9998 42.4L64.7998 42.6L64.8998 42.7H64.6998L63.7998 43L62.9998 43.3L62.7998 43.4L62.0998 43.8L61.3998 44.3L60.7998 44.8L59.7998 45.9L59.3998 46.5L58.9998 47.1L58.3998 48.3L57.7998 49.7L57.3998 50.6L55.7998 50.2L54.9998 50.1L55.1998 49.7L55.4998 49L56.0998 47.7L56.8998 46.4L56.9998 46.2L57.4998 45.6L58.0998 44.9L58.7998 44.2L59.4998 43.6L60.1998 43.1L60.8998 42.7L61.5998 42.5L62.3998 42.3H63.1998ZM60.4998 41.3V41.2H60.8998L61.6998 41.5L62.1998 41.8L61.1998 42.1L60.4998 42.4L59.7998 42.8L59.1998 43.2L58.5998 43.7L57.9998 44.3L57.4998 44.9L56.9998 45.5L56.6998 46L56.4998 46.2L55.8998 47L54.8998 49.1L54.4998 50L52.9998 49.5L54.2998 46.9L55.0998 45.5L55.8998 44.3L56.3998 43.6L56.9998 43L57.5998 42.4L57.9998 42L58.5998 41.6L59.1998 41.4L59.7998 41.3H60.4998ZM57.3998 40.5H58.3998L59.2998 40.7L59.4998 40.8L59.1998 40.9L58.3998 41.3L57.5998 41.8L56.8998 42.4L56.1998 43.2L55.4998 44L54.8998 44.9L54.6998 45.3L54.4998 45.6L53.1998 47.8L52.3998 49.4L49.7998 48.9L49.9998 48.4L50.2998 47.8L51.1998 46.2L51.7998 45.3L52.2998 44.6L52.6998 44L53.7998 42.8L54.3998 42.2L54.9998 41.7L55.5998 41.3L55.9998 41L56.4998 40.8L57.3998 40.5ZM55.1998 39.8L56.0998 40L56.5998 40.2L55.9998 40.5L55.7998 40.6L55.3998 40.8L54.4998 41.5L53.5998 42.3L52.7998 43.2L51.9998 44.1L51.8998 44.3L51.7998 44.4L50.7998 45.8L50.3998 46.5L49.6998 47.8L49.3998 48.4L49.2998 48.8L47.1998 48.3L47.5998 47.4L48.5998 45.4L49.0998 44.5L49.9998 43L50.4998 42.3L50.6998 42L51.3998 41.3L52.0998 40.7L52.7998 40.2L53.4998 39.9L54.2998 39.7L55.1998 39.8ZM51.5998 38.8H52.4998L53.3998 39.1L53.8998 39.3L53.3998 39.4L52.8998 39.6L52.3998 39.8L51.8998 40.1L51.3998 40.5L50.9998 41.1L50.4998 41.6L50.1998 42L49.7998 42.5L49.1998 43.4L48.6998 44.3L47.6998 46.1L46.9998 47.2L46.6998 48.2L44.1998 47.7L44.7998 46.4L45.1998 45.6L46.0998 43.7L46.5998 42.8L47.1998 41.9L47.7998 41.1L48.4998 40.4L49.1998 39.8L49.8998 39.4L49.9998 39.3L50.6998 39L51.5998 38.8ZM47.0998 37.8L47.8998 37.7L48.7998 37.8L49.7998 38.1L50.5998 38.5L49.8998 38.9H49.7998L49.6998 39H49.5998L48.9998 39.4L48.3998 39.9L47.8998 40.4L46.9998 41.5L46.4998 42L45.3998 43.9L43.9998 46.9L43.6998 47.5L43.0998 47.4L41.4998 47H41.3998L43.4998 41.8L43.9998 40.9L44.2998 40.4L44.5998 40L44.9998 39.4L45.4998 38.9L45.8998 38.5L46.3998 38.2L47.0998 37.8ZM45.1998 36.7H45.7998L46.3998 36.9L46.8998 37.1L46.9998 37.2L46.1998 37.6L45.5998 38L45.4998 38.1L45.2998 38.2L44.6998 38.9L44.0998 39.7L43.8998 40.1L43.6998 40.3L43.3998 41L42.2998 43.2L40.7998 46.7L37.8998 45.8L37.1998 45.7L37.7998 44.2L38.7998 42.2L39.5998 40.8L40.0998 40.1L40.5998 39.4L41.1998 38.8L41.7998 38.2L42.3998 37.7L43.0998 37.3L43.5998 37L43.9998 36.8L44.6998 36.6L45.1998 36.7ZM40.8998 35.9L41.3998 35.8H42.1998L42.9998 35.9L43.6998 36.2L43.9998 36.4L43.5998 36.6L43.3998 36.7H42.9998L42.1998 37.1L41.3998 37.7L40.5998 38.4L39.9998 39.3L39.2998 40.3L38.5998 41.4L37.8998 42.7L37.2998 44.2L36.9998 45.1L36.7998 45.6L34.2998 44.9L34.3998 43.9L34.5998 43.1L34.8998 42.1L35.0998 41.6L35.5998 40.6L36.1998 39.6L36.7998 38.7L37.4998 37.9L38.2998 37.2L39.0998 36.6L39.7998 36.2L40.8998 35.9ZM37.4998 35.3H38.2998L39.1998 35.5L39.6998 35.7L39.5998 35.8L39.1998 36L38.2998 36.5L37.4998 37.1L36.7998 37.8L36.1998 38.5L35.5998 39.3L35.1998 40.1L34.7998 40.9L34.4998 41.7L34.3998 42L34.1998 42.6L34.0998 43V43.1L33.9998 43.7L33.8998 44.2L33.7998 44.6V44.8L33.3998 44.7L32.4998 44.4L31.8998 44.2L32.0998 43.7L32.3998 42.8L32.6998 41.9L33.3998 40.1L33.9998 38.7L34.2998 38.1L34.6998 37.5L35.0998 36.9L35.4998 36.4L35.8998 36L36.1998 35.8L36.6998 35.6L37.4998 35.3ZM33.8998 34.7L34.5998 34.5L35.1998 34.4L35.8998 34.5L36.4998 34.7L36.7998 34.9L36.1998 35.2L35.9998 35.3H35.8998L35.2998 35.8L34.6998 36.4L34.1998 37.1L33.7998 38L33.6998 38.4L33.2998 39L31.7998 42.6L31.5998 43.3L31.3998 43.8L30.9998 43.7L30.6998 43.6L29.9998 43.3L29.1998 43.1L29.2998 42.3L29.4998 41.3L29.7998 40.3L30.1998 39.4L30.5998 38.5L30.9998 37.8L31.6998 36.8L32.4998 35.9L33.3998 35.1H33.4998L33.8998 34.7ZM30.4998 34L31.0998 33.7L31.6998 33.6L32.2998 33.7L32.7998 34L33.2998 34.5L32.9998 34.6H32.8998L32.1998 35.1L31.5998 35.7L30.9998 36.4L30.3998 37.2L30.1998 37.5L30.0998 38L29.7998 38.6L29.2998 39.8L28.8998 41.1L28.5998 42.5L28.4998 43L27.7998 42.8L26.4998 42.3L26.5998 41.8V41.6L27.0998 39.7L27.2998 39.1L27.6998 38L28.1998 37L28.4998 36.5L29.0998 35.6L29.4998 35.2L30.1998 34.4L30.4998 34ZM25.1998 41.1L25.4998 39.7L25.7998 38.5L26.1998 37.2L26.5998 36.1L26.9998 35.2L27.3998 34.5L27.7998 34L28.0998 33.7L28.4998 33.5L28.7998 33.4H29.2998L29.5998 33.5L29.8998 33.6L30.0998 33.8L29.6998 34.1L29.0998 34.7L28.5998 35.5L27.9998 36.4L27.4998 37.3L27.0998 38.2L26.6998 39.2L26.3998 40L26.1998 40.9L26.0998 41.5L25.9998 42H25.6998L25.1998 41.8H25.0998L25.1998 41.1ZM22.9998 45.5L22.7998 47L22.6998 48.2V49.3L22.7998 50.3L22.9998 51.1L23.0998 51.3L22.6998 51.2L21.9998 50.8L21.5998 50.3L21.2998 49.8L20.9998 49.3V48.7L21.0998 48.1L21.2998 47.4L21.7998 46.1L22.0998 45.5L22.3998 45L22.8998 44L23.2998 44.1L23.4998 44.2L23.3998 44.8V44.9L22.9998 45.5ZM25.3998 53.4L24.9998 53.3L24.6998 53.1L24.3998 52.9L24.0998 52.6L23.7998 52.2L23.6998 51.9L23.4998 51.3L23.2998 50.4L23.1998 49.9V48.9L23.3998 46.8L23.4998 46.3L23.5998 45.8L23.6998 45.5L23.7998 45.2L23.9998 44.4L25.7998 45L25.4998 46L25.2998 47.2L25.1998 48.4V49L25.2998 50.2L25.4998 51.5L25.5998 51.8L25.8998 52.8L26.0998 53.4H25.3998ZM28.6998 54.9H28.0998L27.4998 54.7L26.9998 54.3L26.5998 53.8L26.1998 53.1L25.8998 52.3L25.6998 51.5V51.4L25.5998 50.5L25.4998 49.6V48.6L25.5998 46.8L25.6998 46L25.8998 45.3L25.9998 44.9L27.8998 45.6L27.7998 46L27.5998 47.2L27.4998 48.5V49.7L27.5998 50.3L27.7998 51.5L28.0998 52.7L28.5998 53.8L28.9998 54.5V54.6L28.6998 54.9ZM32.3998 56.3L31.6998 56.2L31.0998 55.9L30.4998 55.5L29.9998 55L29.5998 54.4L29.4998 54.2L29.1998 53.6L28.7998 52.8L28.4998 52L28.2998 51.1L28.1998 50.2L28.0998 49.3V48.4L28.1998 47.5L28.3998 46.6L28.5998 46L30.8998 46.7L30.9998 50.9L31.0998 51.5V52.1L31.1998 52.9L31.2998 53.7L31.4998 54.4L31.6998 55.1L31.9998 55.7L32.2998 56.2L32.4998 56.4L32.3998 56.3ZM33.7998 56.7L33.6998 56.6H33.8998L32.9998 56.1L32.7998 55.9L32.3998 55.4L32.1998 54.9L31.9998 54.4L31.7998 53.7L31.5998 52.2L31.4998 51.2V50L31.3998 47.2V46.6L31.8998 46.8L32.1998 46.9L33.1998 47.2V48.9L32.9998 51.1V51.5L33.1998 52.5L33.3998 53.4L33.4998 54V54.3L33.6998 55.2V55.4L33.8998 56L34.1998 56.6L34.3998 56.9L33.7998 56.7ZM37.5998 58.2L36.6998 58L35.8998 57.7L35.3998 57.3L35.1998 57.1L34.7998 56.6L34.3998 55.9L34.0998 55.2L33.7998 54.1L33.6998 53.4V51.2L33.7998 49.7V48.8L33.5998 47.5L35.2998 48L35.0998 48.9L34.9998 50V51.4L35.0998 52.2L35.1998 53.1L35.4998 54L35.7998 54.9L36.0998 55.4L36.1998 55.6L36.6998 56.6L37.2998 57.5L37.8998 58.3L37.9998 58.4L37.5998 58.2ZM41.6998 59.6H40.9998L40.2998 59.4L39.5998 59L38.9998 58.4L38.7998 58.2L37.9998 57.4L37.2998 56.5L36.6998 55.5L36.5998 55L36.2998 54.2L35.9998 53.1L35.7998 52L35.4998 51V49.9L35.5998 48.8L35.6998 48.1L37.8998 48.8V50.2L37.9998 51.6L38.2998 53.2L38.4998 54L38.7998 54.8L38.9998 55L39.0998 55.3L39.4998 56.3L39.5998 56.5L39.7998 56.8L39.9998 57.2L40.2998 57.6L40.4998 58L41.0998 58.7L41.6998 59.3L41.9998 59.5L41.6998 59.6ZM44.7998 60.1H44.2998L43.6998 60L43.0998 59.8L42.4998 59.4L41.9998 58.9L41.4998 58.4L40.8998 57.7L40.6998 57.4L40.4998 57L40.1998 56.5L39.9998 56.1L39.4998 54.9L39.2998 54.4L39.1998 53.9L38.9998 52.8L38.7998 51.5L38.6998 50.1V48.9L39.2998 49.1L39.8998 49.3L40.4998 49.5L41.0998 49.7L42.1998 50H42.3998L42.5998 52.6L42.6998 53.1V53.2L42.8998 55.1L42.9998 56.1L43.1998 57L43.4998 57.9L43.8998 58.7L44.3998 59.4L44.7998 59.7L44.8998 59.8L44.7998 60.1ZM47.7998 60.7L46.7998 60.6L45.8998 60.3L45.1998 59.9L44.9998 59.6L44.6998 59.2L44.2998 58.7L43.9998 58.2L43.7998 57.6L43.5998 56.9L43.3998 56.2L43.2998 55.5L43.0998 54L42.9998 53.3V52.1L42.8998 50.4V50L43.2998 50.1L43.5998 50.2L45.1998 50.6L45.3998 52.7L45.4998 53.4L45.5998 54.1L45.6998 54.8L45.9998 56.1L46.1998 56.7L46.3998 57.3L46.4998 57.5L46.8998 58.4L47.3998 59.2L47.9998 59.9L48.4998 60.4L47.7998 60.7ZM51.3998 61.3L50.4998 61.2L49.6998 60.9L49.1998 60.6L48.7998 60.2L48.2998 59.7L47.8998 59.1L47.4998 58.5L46.9998 57.5L46.6998 56.7V56.6L46.4998 55.7L46.2998 54.8L45.9998 52.9L45.7998 50.9L46.5998 51.1L46.8998 51.2L47.1998 51.3H47.4998L47.8998 51.4H48.0998L48.1998 52.3L48.3998 53.4V53.5L48.4998 53.8L48.7998 55.2L48.9998 56L49.2998 56.8L49.3998 57.1V57.2L49.4998 57.5V57.6L49.6998 58.1L49.9998 58.8L50.2998 59.4L50.9998 60.3L51.3998 60.7L51.7998 61L51.9998 61.2L51.3998 61.3ZM54.6998 61.7L53.7998 61.6L52.9998 61.3L52.1998 60.9L51.5998 60.3L50.9998 59.6L50.4998 58.8L50.0998 58L49.9998 57.7L49.5998 57L49.2998 56.2L48.9998 55.3L48.5998 53.8L48.4998 53.4L48.2998 52.2L48.1998 51.6L50.3998 52.2V52.6L50.5998 53.8L50.9998 55.2L51.5998 56.7L51.8998 57.5L52.0998 57.9L52.2998 58.3L52.8998 59.3L53.4998 60.3L53.9998 60.9L54.1998 61.2L54.2998 61.3L54.3998 61.4L54.8998 61.8L54.6998 61.7ZM58.1998 62.4L57.2998 62.3L56.3998 62L55.5998 61.5L54.9998 60.9L54.6998 60.5L53.8998 59.3L53.0998 58L52.8998 57.6L52.4998 57L52.0998 56L51.7998 55L51.4998 54.1L51.0998 52.3V52.2L52.7998 52.6L53.7998 52.8L54.3998 55.1L54.8998 56.7L55.0998 57.4L55.4998 58.3L55.8998 59.2L56.0998 59.6L56.1998 59.8L56.5998 60.5L56.9998 61.1L57.4998 61.7L57.9998 62.2L58.2998 62.4H58.1998ZM60.8998 62H59.2998L58.5998 61.7L57.9998 61.2L57.3998 60.6L56.8998 59.8L56.6998 59.4L56.3998 58.8L56.0998 58L55.4998 56.4L54.9998 54.6L54.3998 53L56.0998 53.3L56.1998 53.8L56.2998 54.5L56.5998 55.8L56.7998 56.5L56.9998 57.2L57.2998 57.8L57.5998 58.3L57.8998 58.9V59.1L58.2998 59.7L58.3998 59.9L58.7998 60.5L59.3998 61.1L59.9998 61.7L60.1998 61.8L60.8998 62ZM63.4998 62.6L62.6998 62.4L61.9998 62.1L61.2998 61.7L60.8998 61.4L60.7998 61.3L60.2998 60.9L59.7998 60.4L59.3998 59.9L58.9998 59.6L58.8998 59.5L58.3998 58.8L58.0998 58.2L57.9998 57.9L57.4998 57L57.1998 56.1L56.8998 55.1L56.5998 54.1L56.4998 53.4L57.9998 53.7L58.3998 53.8L58.6998 53.9L58.8998 54L59.0998 54.8V55L59.2998 56L59.5998 57L59.6998 57.2L59.7998 57.5L60.2998 58.7L60.9998 59.9L61.3998 60.5L61.8998 61.1L62.4998 61.6L62.8998 62L63.6998 62.6L63.9998 62.8L64.1998 62.9L63.4998 62.6ZM68.5998 63.3L67.5998 63.2L66.5998 63L65.6998 62.7L64.7998 62.3L64.2998 62L63.4998 61.4L62.7998 60.9L62.4998 60.6L61.9998 60.1L61.3998 59.3L60.8998 58.5L60.4998 57.6L60.1998 56.8L59.5998 54.8L59.4998 54.4L59.3998 54L61.6998 54.4L61.7998 55V55.4L61.8998 55.7L61.9998 55.9L62.0998 56H61.9998V56.4L62.3998 57.1L62.8998 58L63.3998 58.8L63.9998 59.6L64.5998 60.3L65.2998 61L65.9998 61.6L66.7998 62.1L67.5998 62.6L67.8998 62.8H67.9998L68.5998 63.1V63.3ZM70.3998 63.3L69.4998 63.1L68.5998 62.8L68.0998 62.6L67.3998 62.2L66.6998 61.8L66.0998 61.3L65.4998 60.8L64.8998 60.3L63.8998 59.1L63.4998 58.5L63.0998 57.8L62.9998 56.9L62.6998 56.2L62.5998 55.7L62.4998 55.2V55L62.3998 54.4L64.2998 54.7L64.9998 56.4L65.3998 57.3L65.8998 58.1L66.2998 58.9L66.5998 59.5L67.3998 60.6L68.3998 61.6L68.6998 61.8L68.9998 62.1L69.7998 62.7L70.6998 63.2L70.9998 63.3H70.3998ZM75.2998 63.8L73.9998 63.7L72.8998 63.5L71.8998 63.2L71.2998 63L70.4998 62.6L69.7998 62.2L69.1998 61.7L68.9998 61.5L68.5998 61.1L67.8998 60.4L67.2998 59.6L66.7998 58.8L66.4998 58.3L64.7998 54.8L66.2998 55L67.1998 55.1L67.5998 56L67.8998 56.6L68.7998 58.1L69.7998 59.4L70.2998 60L70.8998 60.6L71.4998 61.1L72.7998 62.1L73.4998 62.6L74.1998 63L74.6998 63.2L75.1998 63.5L75.4998 63.6L75.6998 63.7L75.2998 63.8ZM71.0998 56.3L72.1998 57.3L73.2998 58.5L74.9998 60.4L77.0998 62.5L77.1998 62.6L77.2998 62.7L77.4998 62.9L78.7998 64L78.8998 64.1L77.8998 64L77.0998 63.8L76.1998 63.5L75.5998 63.3L74.7998 62.9L74.4998 62.7L73.5998 62.2L72.6998 61.6L71.8998 60.9L71.0998 60.2L70.2998 59.4L69.5998 58.6L68.9998 57.7L68.3998 56.8L67.8998 55.9L67.7998 55.8L67.5998 55.2L69.3998 55.4L69.9998 55.5L71.0998 56.3ZM70.2998 52.9L68.8998 52.8L68.9998 52.7L69.3998 52.4L70.3998 51.6L71.3998 50.8L74.1998 48.4L75.4998 47.3L76.9998 46.2L77.6998 45.7L78.4998 45.3L79.1998 44.9L79.8998 44.7L80.6998 44.6L81.3998 44.8L82.0998 44.9H82.3998L81.3998 45.4V45.6L81.2998 45.7L80.4998 46L79.6998 46.3L78.9998 46.8L78.2998 47.2L76.9998 48.2L73.6998 51.2L72.1998 52.4L71.4998 52.9H70.2998ZM72.7998 53.1L72.3998 53.2H71.8998L73.1998 52.3L74.7998 50.9L76.3998 49.4L77.9998 48.1L78.7998 47.5L79.6998 47L80.5998 46.6L81.4998 46.3L82.1998 46.2L83.4998 46.1L84.5998 46.2L84.9998 46.3L84.5998 46.4L83.5998 46.9L82.5998 47.4L81.6998 48L80.7998 48.6L79.9998 49.3L78.4998 50.6L76.8998 52L76.7998 52.1L76.0998 52.7L75.3998 53.2L74.8998 53.4L74.6998 53.2L74.2998 53H73.9998L72.7998 53.1ZM84.5998 64.4L83.5998 64.1L82.6998 63.7L82.1998 63.5L81.9998 63.4L81.3998 63L80.7998 62.6L79.5998 61.5L77.2998 59.2L75.8998 57.7L75.1998 56.9L74.3998 56.2L74.1998 56L75.9998 56.2H76.0998L76.3998 56.3L76.6998 56.4H76.7998L77.2998 56.7L77.8998 57.3L78.5998 58L80.9998 60.7L81.8998 61.6L82.8998 62.5L83.8998 63.4L84.8998 64.1L85.6998 64.5L84.5998 64.4ZM89.1998 64.7L88.1998 64.8L87.1998 64.6L86.5998 64.3L85.8998 64L84.9998 63.4L84.0998 62.8L83.2998 62.1L82.4998 61.4L81.7998 60.7L80.4998 59.3L79.8998 58.6L78.7998 57.4L78.2998 56.9L77.7998 56.5L77.5998 56.4L79.2998 56.6H80.0998L80.7998 57.2L81.4998 57.9L84.2998 61L84.9998 61.7L85.0998 61.8L86.1998 62.8L86.2998 62.9L86.4998 63L87.3998 63.6L88.2998 64.1L89.2998 64.5L89.5998 64.6L89.1998 64.7ZM91.3998 64.4L90.3998 64.3L89.8998 64.2L89.3998 64L88.5998 63.6L87.8998 63.2L87.1998 62.8L86.6998 62.4L85.3998 61.3L85.0998 61L84.0998 59.9L82.3998 57.9L81.7998 57.3L80.8998 56.5H81.3998L81.9998 56.6L83.2998 56.7L83.5998 56.8L84.5998 56.9H85.0998L85.7998 58L86.5998 59L87.2998 60L87.9998 60.9L89.2998 62.3L89.9998 62.9L90.6998 63.4L91.0998 63.7L91.1998 63.8L91.2998 63.9L91.7998 64.2L92.1998 64.4H91.3998ZM94.6998 64.4H94.0998L93.7998 64.3V64.2H93.3998L92.8998 64.1L92.2998 63.9L91.6998 63.6L91.4998 63.4L90.8998 63L90.2998 62.5L88.9998 61.3L88.3998 60.7L86.7998 58.7L86.3998 58.1L85.6998 56.9L87.9998 57H88.9998L89.3998 57.5L91.0998 59.5L91.4998 60.1L91.8998 60.6L92.2998 61.1L93.9998 63L95.4998 64.3L94.6998 64.4ZM97.9998 64.4L97.4998 64.5L96.9998 64.4L96.3998 64.2L95.7998 63.8L95.1998 63.3L94.5998 62.7L93.9998 62L92.6998 60.6L90.8998 58.4L90.3998 57.8L89.8998 57.2L92.1998 57.4L94.4998 60.4L94.6998 60.7L94.7998 60.8L94.8998 61L94.9998 61.1L95.8998 62.2L97.2998 63.5L97.9998 64L98.1998 64.1L97.9998 64.4ZM102.6 64L101.8 64.4L101 64.6H100.3L99.5998 64.5L98.8998 64.3L98.4998 64.1L97.6998 63.5L96.2998 62.2L95.1998 61L94.9998 60.7L94.7998 60.4L92.7998 57.3L93.9998 57H94.1998L94.8998 57.4L95.3998 58.3L96.4998 59.8L97.0998 60.4L97.4998 60.8L97.7998 61.1L98.0998 61.4L98.2998 61.6L98.4998 61.8L98.9998 62.2L99.1998 62.3L99.4998 62.5L100.4 63L100.6 63.1L101.7 63.5L102.2 63.7L102.7 63.8H102.9L102.6 64ZM104.5 63.4L103.7 63.3L102.9 63.2L102.2 63L101.5 62.8L100.8 62.5L99.6998 61.8L98.8998 61.2L98.4998 60.9L97.9998 60.7L97.4998 60.2L96.9998 59.6L95.8998 58.2L95.6998 57.8L98.7998 58.1L99.6998 59.2L100.9 60.4L101.5 61L102.2 61.5L103.6 62.5L104.4 63L105.1 63.4L105.3 63.5L104.5 63.4ZM102.9 59.2L103.5 59.7L104.2 60.3L106 61.6L107 62.3L107.9 62.9L108.4 63.2L109 63.6L108.2 63.7L107.5 63.6L106.8 63.5L106.6 63.4L105.7 63L105 62.7L103.7 61.9L103.1 61.5L101.4 60.1L100.9 59.6L99.4998 58.1H100.6L101.9 58.2H102L102.4 58.6L102.5 58.7L102.9 59.2ZM105.4 57.1L104.5 57L102.9 56.9L102.2 56.8L104.3 55.4L106.2 54.3L107.3 53.8L108.3 53.3L109.4 52.9L110.3 52.6L110.7 52.5L111.3 52.4H112.1L112.8 52.5L113.3 52.8L113.5 53.1L113.2 53.2L112.7 53.4L112 53.7L111.5 54L110.6 54.4L107.9 55.9L106.7 56.5L105.4 57.1ZM107.9 56.4L109 55.8L109.9 55.3L112.1 54.2L112.6 54L113.1 53.8L114.1 53.5L114.6 53.4H115.4L115.2 53.5L114.3 53.9L113.5 54.3L112.7 54.7L111.2 55.6L109.4 56.8L108.6 57.5L107.2 57.3L106.6 57.2L107.9 56.4ZM115 63.8L114.6 63.7L114.1 63.6L113.6 63.4L113.1 63.1L112.9 63L110.2 61.2L108.5 60.1L108.2 59.9L107.5 59.5L106.8 59L106.4 58.4L106.5 58H107L108.4 58.5L108.7 58.9L110.3 60.5L111.6 61.6L113.1 62.7L113.9 63.2L114.7 63.6L115.1 63.7H115.2L115.5 63.8H115ZM117.1 63.5H116.3L115.7 63.3L115.3 63.2L114.8 63L114.2 62.7L112.9 61.9L111.1 60.6L109.7 59.4L109.4 59.1L109.3 59L110.4 59.1L112.1 59.2L114.2 61.1L115.8 62.4L116.6 62.9L117.5 63.3L117.7 63.4L117.1 63.5ZM119.8 63L119.3 63.1H118.8L118.3 63L117.8 62.8L117.3 62.6L116.7 62.3L116 62L114.9 61.1L112.8 59.2L113.9 59.3L115.1 59.4L115.2 59.6L115.5 60.1L115.6 60.3L116 60.7L116.4 61.1L116.9 61.5L117.4 61.8L117.6 61.9L117.7 62L117.9 62.1L118 62.2L118.2 62.3L118.6 62.5L119 62.6L119.9 62.8H120.2L119.8 63ZM119.3 60.6L119.5 60.8L119.6 60.9L120.1 61.3L120.4 61.5L121.3 61.9L121.5 62L122.4 62.2H122.2L121.7 62.1H121.1L120.8 62.3L120.3 62.4H119.9L118.7 62.1L118.3 61.9L118.1 61.8L117.8 61.7L117.3 61.4H117.2L116.3 60.6L116.1 60.3L116 60.1L115.8 59.8L115.7 59.7L116.4 59.8L118.3 59.9L118.5 60.2L118.8 60.6H119.3ZM120.8 58.7L120.5 58.8L120.4 58.9H120.3L119 58.7L119.1 58.6L119.5 58.2L119.8 58L120.2 57.8L120.4 57.7L120.9 57.5L121.7 57.3L122.7 57.2H123.1L123.6 57.3L123.9 57.4L124.2 57.5H123.5L123 57.6H122.9L122.6 57.7L121.9 57.9L121.5 58.1L120.8 58.7ZM121.3 58.9L123 58.3L123.4 58.2L123.9 58.1H124.8L125 58.2L125.1 58.4L125.2 58.7V58.9H124.7L124.3 59L122.8 59.4L122.7 59.5L121.2 59.2L121.3 58.9ZM124.9 61.3L124.8 61.5L124.7 61.6H124.5L123.9 61.4L123.2 61.1L122.2 60.5L121.2 59.8L122.6 60L124.2 60.8L124.4 60.9L124.6 61L124.8 61.1L124.9 61.2H125L124.9 61.3ZM125.5 60.6L125.4 60.7H125.1L124.4 60.5L123.8 60.2L125 60.3H125.1L125.6 60.4L125.5 60.6ZM125.6 59.9L125.1 59.8L123.7 59.5L124.7 59.3H125.2L125.5 59.4L125.7 59.7L125.6 59.9ZM14.7998 71L7.39981 91H12.5998L13.9998 87H21.4998L22.8998 91H28.2998L20.8998 71H14.7998ZM15.2998 83L17.7998 75.8L20.2998 83H15.2998ZM40.7998 75.2C39.7998 75.2 38.9998 75.4 38.1998 75.8C37.3998 76.2 36.9998 76.7 35.9998 77.2V76H30.9998V96H35.9998V90.1C35.9998 90.4 37.0998 90.7 37.6998 90.9C38.2998 91.1 38.9998 91.2 39.7998 91.2C40.6998 91.2 41.5998 91 42.3998 90.7C43.1998 90.4 43.8998 89.8 44.5998 89.1C45.1998 88.4 45.6998 87.6 46.0998 86.6C46.4998 85.6 46.6998 84.4 46.6998 83.2C46.6998 80.8 46.1998 78.9 45.0998 77.5C43.9998 76.1 42.6998 75.2 40.7998 75.2ZM40.7998 86.6C40.1998 87.4 39.1998 87.7 37.8998 87.7C37.4998 87.7 37.2998 87.7 36.8998 87.6C36.4998 87.6 35.9998 87.5 35.9998 87.4V79.8C35.9998 79.5 36.7998 79.3 37.2998 79.2C37.7998 79.1 38.1998 79 38.6998 79C39.7998 79 40.5998 79.3 41.0998 80C41.5998 80.7 41.7998 81.7 41.7998 83.2C41.6998 84.7 41.3998 85.8 40.7998 86.6ZM62.2998 76.5C61.0998 75.6 59.0998 75.2 56.3998 75.2C55.1998 75.2 53.8998 75.3 52.6998 75.5C51.4998 75.7 50.9998 75.9 49.9998 76V80H50.8998C51.2998 80 51.9998 79.5 52.8998 79.2C53.7998 78.9 54.6998 78.7 55.4998 78.7C56.7998 78.7 57.5998 78.8 58.2998 79.1C58.9998 79.4 58.9998 80 58.9998 80.8V80.9C57.9998 81 56.3998 81.1 55.0998 81.3C53.7998 81.5 52.7998 81.8 51.8998 82.2C50.9998 82.6 50.2998 83.2 49.8998 83.9C49.3998 84.6 49.1998 85.5 49.1998 86.6C49.1998 88 49.6998 89.1 50.6998 90C51.6998 90.9 52.8998 91.3 54.2998 91.3C54.8998 91.3 55.4998 91.2 55.9998 91.1C56.4998 91 56.9998 90.8 57.4998 90.6C57.7998 90.4 57.9998 90.2 58.3998 89.9C58.7998 89.6 59.0998 89.4 59.0998 89.2V91H64.0998V80.5C63.9998 78.7 63.4998 77.4 62.2998 76.5ZM58.9998 86.9C58.9998 87.2 58.3998 87.5 57.8998 87.7C57.3998 87.9 56.9998 88 56.4998 88C55.8998 88 55.4998 88 55.1998 87.9C54.8998 87.8 54.6998 87.7 54.4998 87.5C54.2998 87.3 54.1998 87.1 54.0998 86.9C53.9998 86.7 53.9998 86.4 53.9998 86.1C53.9998 85.6 54.0998 85.2 54.3998 84.9C54.6998 84.6 54.9998 84.4 55.4998 84.2C55.8998 84.1 56.1998 84 56.9998 83.9L58.8998 83.7V86.9H58.9998ZM76.4998 75.2C75.2998 75.2 74.1998 75.3 73.1998 75.6C72.0998 75.9 71.1998 76.4 70.3998 77C69.5998 77.7 68.8998 78.5 68.3998 79.6C67.8998 80.7 67.6998 81.9 67.6998 83.3C67.6998 84.6 67.8998 85.8 68.3998 86.8C68.8998 87.8 69.4998 88.6 70.2998 89.3C71.0998 90 72.0998 90.4 73.1998 90.8C74.2998 91.1 75.4998 91.3 76.7998 91.3C77.7998 91.3 78.7998 91.2 79.5998 91C80.3998 90.8 81.0998 90.5 82.0998 90.1V86H81.2998C81.0998 86 80.8998 86.4 80.6998 86.6C80.4998 86.8 80.1998 87 79.8998 87.2C79.5998 87.4 79.1998 87.5 78.6998 87.7C78.1998 87.8 77.6998 87.9 76.9998 87.9C75.6998 87.9 74.6998 87.5 73.9998 86.8C73.2998 86.1 72.8998 84.9 72.8998 83.5C72.8998 82.1 73.1998 81 73.8998 80.1C74.5998 79.3 75.5998 78.9 76.8998 78.9C77.4998 78.9 77.9998 79 78.3998 79.1C78.7998 79.2 79.1998 79.4 79.5998 79.6C79.9998 79.8 80.2998 80.2 80.5998 80.4C80.8998 80.6 81.0998 80.2 81.2998 81.2H81.9998V76.7C80.9998 76.3 80.3998 76 79.4998 75.8C78.5998 75.4 77.5998 75.2 76.4998 75.2ZM95.0998 75.2C94.0998 75.2 93.2998 75.4 92.4998 75.7C91.6998 76.1 90.9998 76.6 89.9998 77.3V70H84.9998V91H89.9998V80.1C90.9998 79.8 90.9998 79.6 91.4998 79.4C91.9998 79.3 92.3998 79.2 92.7998 79.2C93.3998 79.2 93.8998 79.3 94.2998 79.4C94.5998 79.6 94.8998 79.8 95.0998 80.1C95.2998 80.4 95.0998 80.8 95.1998 81.4C95.2998 82 95.0998 82.6 95.0998 83.2V91H100.1V81C100.1 79.1 99.7998 77.7 98.8998 76.7C97.8998 75.7 96.7998 75.2 95.0998 75.2ZM112.4 75.2C109.7 75.2 107.6 75.9 106.1 77.4C104.6 78.9 103.8 80.9 103.8 83.4C103.8 85.9 104.6 87.9 106.2 89.3C107.8 90.7 110.2 91.4 113.2 91.4C114.4 91.4 115.7 91.3 116.7 91.1C117.7 90.9 118.1 90.6 120.1 90.1V86.1H119.1C118.5 87.1 117.8 87 116.8 87.3C115.8 87.7 114.8 87.9 113.8 87.9C112.2 87.9 110.9 87.5 110.1 86.9C109.3 86.3 108.8 85.1 108.7 84.1H120V82.6C120 80.3 119.3 78.5 118 77.2C116.8 75.8 114.8 75.2 112.4 75.2ZM108.6 81C108.7 80 109 79.3 109.6 78.8C110.2 78.3 111 78.1 111.9 78.1C112.9 78.1 113.7 78.2 114.1 78.8C114.6 79.3 114.8 80 114.9 81H108.6Z" fill="#303284"/>
</svg>
