<svg width="128" height="128" viewBox="0 0 128 128" fill="none" xmlns="http://www.w3.org/2000/svg">
<path d="M125.477 111.872L67.7188 11.8336C67.3425 11.1806 66.8008 10.6383 66.1483 10.2612C65.4958 9.88408 64.7555 9.68555 64.0018 9.68555C63.2482 9.68555 62.5078 9.88408 61.8553 10.2612C61.2028 10.6383 60.6611 11.1806 60.2848 11.8336L2.52281 111.872C1.75281 113.2 1.75281 114.682 2.52281 116.013C3.29181 117.341 4.70781 118 6.24081 118H121.762C123.296 118 124.707 117.341 125.477 116.013C126.247 114.682 126.247 113.2 125.477 111.872ZM88.7288 103.797L88.8838 99.4606L72.2178 102.405L71.4598 101.706L71.6748 95.9996H71.2398C71.2398 95.9996 66.6728 103.553 56.5578 103.553C49.0548 103.553 41.9858 100.553 41.9858 88.3766C41.9858 76.0826 51.2278 71.9996 60.9078 71.9996H70.9998V66.9476C70.9998 62.0526 67.7478 59.2266 61.6568 59.2266C54.8048 59.2266 46.6508 60.3136 46.6508 60.3136L45.9998 59.5516V51.2866C45.9998 51.2866 54.7508 50.2006 63.7838 50.2006C72.0488 50.2006 81.9998 52.3756 81.9998 64.5556V92.5826L87.6248 91.5266L86.0698 87.4696L99.9768 93.5636L88.7288 103.797ZM52.5338 87.5596C52.5338 93.2146 56.4368 94.4386 60.2418 94.4386C63.8318 94.4386 67.9998 93.4846 70.9998 89.0256V79.9996H63.7378C56.3378 79.9996 52.5338 81.6856 52.5338 87.5596Z" fill="#AC162C"/>
</svg>
