<svg width="128" height="128" viewBox="0 0 128 128" fill="none" xmlns="http://www.w3.org/2000/svg">
<path d="M108.722 86.3254L66.0891 12.4834C65.8121 12.0006 65.4125 11.5994 64.9308 11.3204C64.4491 11.0414 63.9023 10.8945 63.3456 10.8945C62.7889 10.8945 62.2421 11.0414 61.7604 11.3204C61.2787 11.5994 60.8791 12.0006 60.6021 12.4834L17.9661 86.3254C17.6871 86.8002 17.54 87.3408 17.54 87.8914C17.54 88.4421 17.6871 88.9827 17.9661 89.4574C18.5331 90.4374 19.5781 91.0004 20.7101 91.0004H105.98C107.112 91.0004 108.154 90.4374 108.722 89.4574C109.001 88.9827 109.148 88.4421 109.148 87.8914C109.148 87.3408 109.001 86.8002 108.722 86.3254ZM81.5971 80.3634L81.7111 77.1634L69.4091 79.3364L68.8491 79.0174L69.0091 75.0004H68.6881C68.6881 75.0004 65.3171 80.3794 57.8511 80.3794C52.3131 80.3794 47.0951 78.1194 47.0951 69.1314C47.0951 60.0594 53.9161 57.0004 61.0621 57.0004H69.0001V53.1644C69.0001 49.5524 66.3551 47.4644 61.8591 47.4644C56.8011 47.4644 50.6311 48.2674 50.6311 48.2674L50.0001 47.7054V41.6044C50.0001 41.6044 56.6741 40.8024 63.3401 40.8024C69.4421 40.8024 77.0001 42.4084 77.0001 51.3984V72.0864L80.9671 71.3074L79.7271 68.3134L89.9461 72.8114L81.5971 80.3634ZM54.8801 68.4794C54.8801 72.6524 58.0061 73.5064 60.8151 73.5064C63.4651 73.5064 66.0011 72.7524 69.0011 69.4614V63.0004H63.1511C57.6881 63.0004 54.8801 64.1444 54.8801 68.4794Z" fill="#AC162C"/>
<path d="M10.8192 112.77H8.55224L8.37424 112.592L8.42324 111.241H8.32224C8.32224 111.241 7.25324 113.025 4.88424 113.025C3.12524 113.025 1.46924 112.314 1.46924 109.458C1.46924 106.58 3.63524 105.61 5.90324 105.61H8.37524V104.465C8.37524 103.319 7.55924 102.656 6.13324 102.656C4.52724 102.656 2.59224 102.911 2.59224 102.911L2.41224 102.734V100.796C2.41224 100.796 4.45124 100.542 6.56624 100.542C8.50224 100.542 10.8202 101.052 10.8202 103.904V112.77H10.8192ZM8.37424 107.55H6.56524C4.83324 107.55 3.94124 107.93 3.94124 109.307C3.94124 110.633 4.90824 110.912 5.79924 110.912C6.64024 110.912 7.55724 110.684 8.37324 109.637V107.55H8.37424ZM14.2852 100.796H16.5782L16.7552 100.975L16.7042 102.326H16.8062C16.8062 102.326 17.8522 100.542 20.2212 100.542C22.1582 100.542 23.5072 101.282 23.5072 104.135V109.332C23.5072 112.187 21.0612 113.026 18.9462 113.026C18.0792 113.026 17.4182 112.975 16.7552 112.924V117.103H14.2852V100.796ZM16.7552 110.758C17.5251 110.84 18.3004 110.858 19.0732 110.811C20.1432 110.707 21.0602 110.275 21.0602 108.748V104.289C21.0602 102.989 20.4242 102.657 19.4812 102.657C18.6152 102.657 17.7232 103.013 16.7542 104.208V110.758H16.7552ZM26.6412 100.796H28.9342L29.1122 100.975L29.0602 102.326H29.1632C29.1632 102.326 30.2082 100.542 32.5762 100.542C34.5142 100.542 35.8642 101.282 35.8642 104.135V109.332C35.8642 112.187 33.4172 113.026 31.3022 113.026C30.4372 113.026 29.7732 112.975 29.1122 112.924V117.103H26.6412V100.796ZM29.1112 110.758C29.7722 110.835 30.7422 110.862 31.4282 110.811C32.4982 110.707 33.4152 110.275 33.4152 108.748V104.289C33.4152 102.989 32.7782 102.657 31.8362 102.657C30.9702 102.657 30.0792 103.013 29.1102 104.208V110.758H29.1112ZM46.8182 103.013C46.8182 103.013 45.3672 102.759 43.7592 102.759C42.3332 102.759 41.1352 102.964 41.1352 104.797V108.798C41.1352 110.634 42.3332 110.836 43.7592 110.836C45.3662 110.836 46.8182 110.58 46.8182 110.58L46.9972 110.759V112.771C46.9972 112.771 45.2892 113.027 43.1752 113.027C41.0592 113.027 38.6662 112.365 38.6662 109.51V104.083C38.6662 101.231 41.0592 100.542 43.1752 100.542C45.2892 100.542 46.9972 100.796 46.9972 100.796V102.836L46.8182 103.013ZM58.2322 107.55H51.8372V108.797C51.8372 110.633 53.0342 110.835 54.4612 110.835C56.0652 110.835 57.6722 110.579 57.6722 110.579L57.8472 110.758V112.77C57.8472 112.77 55.9902 113.026 53.8742 113.026C51.7612 113.026 49.3642 112.364 49.3642 109.509V104.339C49.3642 101.358 51.7862 100.542 54.0532 100.542C56.3192 100.542 58.7142 101.282 58.7142 104.339C58.7142 105.639 58.5092 107.14 58.4852 107.294L58.2322 107.55ZM51.8382 104.159V105.611H56.0412C56.0922 105.306 56.1692 104.745 56.1442 104.186C56.0922 103.039 55.2762 102.657 54.0552 102.657C52.7542 102.657 51.8382 103.115 51.8382 104.159ZM64.0652 95.9561V112.77H61.5932V95.9561H64.0652ZM76.0392 107.55H69.6462V108.797C69.6462 110.633 70.8442 110.835 72.2682 110.835C73.8732 110.835 75.4792 110.579 75.4792 110.579L75.6562 110.758V112.77C75.6562 112.77 73.7982 113.026 71.6822 113.026C69.5662 113.026 67.1712 112.364 67.1712 109.509V104.339C67.1712 101.358 69.5912 100.542 71.8592 100.542C74.1302 100.542 76.5242 101.282 76.5242 104.339C76.5242 105.639 76.3202 107.14 76.2952 107.294L76.0392 107.55ZM69.6462 104.159V105.611H73.8472C73.8982 105.306 73.9752 104.745 73.9482 104.186C73.8982 103.039 73.0842 102.657 71.8592 102.657C70.5632 102.657 69.6462 103.115 69.6462 104.159ZM85.5922 103.013C84.5482 103.013 83.2482 103.013 81.8742 104.289V112.77H79.4012V100.796H81.6962L81.8742 100.975L81.8222 102.326H81.9252C81.7702 102.326 83.2232 100.391 85.7702 100.542V102.836L85.5922 103.013ZM96.6502 112.77H94.3802L94.2022 112.592L94.2552 111.241H94.1512C94.1512 111.241 93.0822 113.025 90.7132 113.025C88.9552 113.025 87.2992 112.314 87.2992 109.458C87.2992 106.58 89.4652 105.61 91.7332 105.61H94.2022V104.465C94.2022 103.319 93.3872 102.656 91.9602 102.656C90.3562 102.656 88.4202 102.911 88.4202 102.911L88.2432 102.734V100.796C88.2432 100.796 90.2802 100.542 92.3942 100.542C94.3292 100.542 96.6502 101.052 96.6502 103.904V112.77ZM94.2022 107.55H92.3942C90.6632 107.55 89.7722 107.93 89.7722 109.307C89.7722 110.633 90.7362 110.912 91.6292 110.912C92.4712 110.912 93.3862 110.684 94.2012 109.637V107.55H94.2022ZM100.291 102.758H99.0202V100.796H100.291V98.2481H102.764V100.796H105.643V102.758H102.764V109.559C102.764 110.529 103.273 110.912 104.141 110.912C104.98 110.912 105.719 110.811 105.719 110.811L105.9 110.988V112.77C105.9 112.77 105.006 113.026 103.658 113.026C101.491 113.026 100.292 111.828 100.292 109.559V102.758H100.291ZM117.033 109.256C117.033 112.337 114.634 113.026 112.37 113.026C110.1 113.026 107.68 112.236 107.68 109.256V104.339C107.68 101.358 110.101 100.542 112.37 100.542C114.634 100.542 117.033 101.256 117.033 104.339V109.256ZM114.585 104.669C114.585 103.319 113.744 102.657 112.37 102.657C110.864 102.657 110.153 103.344 110.153 104.669V108.924C110.153 110.324 110.966 110.912 112.37 110.912C113.87 110.912 114.585 110.248 114.585 108.924V104.669ZM126.354 103.013C125.31 103.013 124.012 103.013 122.634 104.289V112.77H120.164V100.796H122.457L122.634 100.975L122.583 102.326H122.685C122.534 102.326 123.987 100.391 126.531 100.542V102.836L126.354 103.013Z" fill="#555759"/>
</svg>
