<svg width="128" height="128" viewBox="0 0 128 128" fill="none" xmlns="http://www.w3.org/2000/svg">
<path d="M108.722 86.3244L66.0892 12.4824C65.8116 12.0003 65.4118 11.5999 64.9302 11.3215C64.4485 11.0431 63.9021 10.8965 63.3457 10.8965C62.7894 10.8965 62.2429 11.0431 61.7613 11.3215C61.2797 11.5999 60.8799 12.0003 60.6022 12.4824L17.9662 86.3244C17.6873 86.7993 17.5402 87.3401 17.5402 87.8909C17.5402 88.4417 17.6873 88.9824 17.9662 89.4574C18.5332 90.4374 19.5782 91.0004 20.7102 91.0004H105.98C107.112 91.0004 108.154 90.4374 108.722 89.4574C109.001 88.9824 109.148 88.4417 109.148 87.8909C109.148 87.3401 109.001 86.7993 108.722 86.3244ZM81.5972 80.3634L81.7112 77.1634L69.4092 79.3364L68.8492 79.0174L69.0092 75.0004H68.6882C68.6882 75.0004 65.3172 80.3794 57.8512 80.3794C52.3132 80.3794 47.0952 78.1194 47.0952 69.1324C47.0952 60.0594 53.9162 57.0004 61.0622 57.0004H69.0002V53.1644C69.0002 49.5524 66.3552 47.4654 61.8592 47.4654C56.8012 47.4654 50.6312 48.2684 50.6312 48.2684L50.0002 47.7054V41.6044C50.0002 41.6044 56.6742 40.8024 63.3402 40.8024C69.4422 40.8024 77.0002 42.4074 77.0002 51.3984V72.0864L80.9672 71.3074L79.7272 68.3134L89.9462 72.8114L81.5972 80.3634ZM54.8802 68.4794C54.8802 72.6524 58.0062 73.5054 60.8152 73.5054C63.4652 73.5054 66.0012 72.7514 69.0012 69.4604V63.0004H63.1512C57.6882 63.0004 54.8802 64.1444 54.8802 68.4794ZM10.8192 112.77H8.55224L8.37424 112.592L8.42324 111.242H8.32224C8.32224 111.242 7.25324 113.025 4.88424 113.025C3.12524 113.025 1.46924 112.314 1.46924 109.459C1.46924 106.58 3.63524 105.611 5.90324 105.611H8.37524V104.465C8.37524 103.319 7.55924 102.655 6.13324 102.655C4.52724 102.655 2.59224 102.911 2.59224 102.911L2.41224 102.733V100.795C2.41224 100.795 4.45124 100.54 6.56624 100.54C8.50224 100.54 10.8202 101.051 10.8202 103.902V112.77H10.8192ZM8.37424 107.55H6.56524C4.83324 107.55 3.94124 107.93 3.94124 109.307C3.94124 110.633 4.90824 110.912 5.79924 110.912C6.64024 110.912 7.55724 110.683 8.37324 109.637V107.55H8.37424ZM14.2852 100.797H16.5782L16.7552 100.975L16.7042 102.327H16.8062C16.8062 102.327 17.8522 100.543 20.2212 100.543C22.1582 100.543 23.5072 101.282 23.5072 104.136V109.333C23.5072 112.188 21.0612 113.026 18.9462 113.026C18.0792 113.026 17.4182 112.975 16.7552 112.924V117.104H14.2852V100.797ZM16.7552 110.758C17.5251 110.84 18.3004 110.858 19.0732 110.811C20.1432 110.707 21.0602 110.275 21.0602 108.748V104.289C21.0602 102.988 20.4242 102.656 19.4812 102.656C18.6152 102.656 17.7232 103.012 16.7542 104.208V110.758H16.7552ZM26.6412 100.797H28.9342L29.1122 100.975L29.0602 102.327H29.1632C29.1632 102.327 30.2082 100.543 32.5762 100.543C34.5142 100.543 35.8642 101.282 35.8642 104.136V109.333C35.8642 112.188 33.4172 113.026 31.3022 113.026C30.4372 113.026 29.7732 112.975 29.1122 112.924V117.104H26.6412V100.797ZM29.1112 110.758C29.7722 110.835 30.7422 110.862 31.4282 110.811C32.4982 110.707 33.4152 110.275 33.4152 108.748V104.289C33.4152 102.988 32.7782 102.656 31.8362 102.656C30.9702 102.656 30.0792 103.012 29.1102 104.208V110.758H29.1112ZM46.8182 103.013C46.8182 103.013 45.3672 102.758 43.7592 102.758C42.3332 102.758 41.1352 102.963 41.1352 104.796V108.797C41.1352 110.633 42.3332 110.835 43.7592 110.835C45.3662 110.835 46.8182 110.579 46.8182 110.579L46.9972 110.758V112.77C46.9972 112.77 45.2892 113.026 43.1752 113.026C41.0592 113.026 38.6662 112.364 38.6662 109.51V104.082C38.6662 101.23 41.0592 100.542 43.1752 100.542C45.2892 100.542 46.9972 100.797 46.9972 100.797V102.836L46.8182 103.013ZM58.2322 107.55H51.8372V108.797C51.8372 110.633 53.0342 110.835 54.4612 110.835C56.0652 110.835 57.6722 110.579 57.6722 110.579L57.8472 110.758V112.77C57.8472 112.77 55.9902 113.026 53.8742 113.026C51.7612 113.026 49.3642 112.364 49.3642 109.51V104.339C49.3642 101.358 51.7862 100.542 54.0532 100.542C56.3192 100.542 58.7142 101.281 58.7142 104.339C58.7142 105.639 58.5092 107.141 58.4852 107.294L58.2322 107.55ZM51.8382 104.158V105.611H56.0412C56.1233 105.141 56.1578 104.663 56.1442 104.185C56.0922 103.039 55.2762 102.656 54.0552 102.656C52.7542 102.656 51.8382 103.115 51.8382 104.158ZM64.0652 95.9564V112.769H61.5932V95.9564H64.0652ZM76.0392 107.55H69.6462V108.797C69.6462 110.633 70.8442 110.835 72.2682 110.835C73.8732 110.835 75.4792 110.579 75.4792 110.579L75.6562 110.758V112.77C75.6562 112.77 73.7982 113.026 71.6822 113.026C69.5662 113.026 67.1712 112.364 67.1712 109.51V104.339C67.1712 101.358 69.5912 100.542 71.8592 100.542C74.1302 100.542 76.5242 101.281 76.5242 104.339C76.5242 105.639 76.3202 107.141 76.2952 107.294L76.0392 107.55ZM69.6462 104.158V105.611H73.8472C73.8982 105.306 73.9752 104.745 73.9482 104.185C73.8982 103.039 73.0842 102.656 71.8592 102.656C70.5632 102.656 69.6462 103.115 69.6462 104.158ZM85.5922 103.013C84.5482 103.013 83.2482 103.013 81.8742 104.289V112.769H79.4012V100.796H81.6962L81.8742 100.974L81.8222 102.326H81.9252C81.7702 102.326 83.2232 100.39 85.7702 100.542V102.836L85.5922 103.013ZM96.6502 112.77H94.3802L94.2022 112.592L94.2552 111.242H94.1512C94.1512 111.242 93.0822 113.025 90.7132 113.025C88.9552 113.025 87.2992 112.314 87.2992 109.459C87.2992 106.58 89.4652 105.611 91.7332 105.611H94.2022V104.465C94.2022 103.319 93.3872 102.655 91.9602 102.655C90.3562 102.655 88.4202 102.911 88.4202 102.911L88.2432 102.733V100.795C88.2432 100.795 90.2802 100.54 92.3942 100.54C94.3292 100.54 96.6502 101.051 96.6502 103.902V112.77ZM94.2022 107.55H92.3942C90.6632 107.55 89.7722 107.93 89.7722 109.307C89.7722 110.633 90.7362 110.912 91.6292 110.912C92.4712 110.912 93.3862 110.683 94.2012 109.637V107.55H94.2022ZM100.291 102.758H99.0202V100.797H100.291V98.2484H102.764V100.797H105.643V102.758H102.764V109.559C102.764 110.53 103.273 110.913 104.141 110.913C104.98 110.913 105.719 110.811 105.719 110.811L105.9 110.989V112.77C105.9 112.77 105.006 113.026 103.658 113.026C101.491 113.026 100.292 111.829 100.292 109.559V102.758H100.291ZM117.033 109.256C117.033 112.336 114.634 113.026 112.37 113.026C110.1 113.026 107.68 112.237 107.68 109.256V104.339C107.68 101.358 110.101 100.542 112.37 100.542C114.634 100.542 117.033 101.256 117.033 104.339V109.256ZM114.585 104.669C114.585 103.319 113.744 102.656 112.37 102.656C110.864 102.656 110.153 103.344 110.153 104.669V108.924C110.153 110.324 110.966 110.912 112.37 110.912C113.87 110.912 114.585 110.248 114.585 108.924V104.669ZM126.354 103.013C125.31 103.013 124.012 103.013 122.634 104.289V112.769H120.164V100.796H122.457L122.634 100.974L122.583 102.326H122.685C122.534 102.326 123.987 100.39 126.531 100.542V102.836L126.354 103.013Z" fill="#AC162C"/>
</svg>
