<svg width="128" height="128" viewBox="0 0 128 128" fill="none" xmlns="http://www.w3.org/2000/svg">
<path d="M97.9052 67.8848C98.0792 86.6848 114.399 92.9418 114.579 93.0218C114.441 93.4618 111.972 101.938 105.982 110.691C100.804 118.259 95.4292 125.799 86.9641 125.957C78.6461 126.109 75.9712 121.023 66.4602 121.023C56.9522 121.023 53.9812 125.799 46.1062 126.109C37.9342 126.419 31.7112 117.924 26.4902 110.385C15.8222 94.9608 7.66916 66.7998 18.6162 47.7908C24.0542 38.3508 33.7742 32.3738 44.3232 32.2198C52.3472 32.0668 59.9212 37.6178 64.8262 37.6178C69.7282 37.6178 78.9322 30.9418 88.6082 31.9218C92.6592 32.0908 104.029 33.5578 111.33 44.2458C110.743 44.6108 97.7642 52.1668 97.9052 67.8848ZM82.2722 21.7188C86.6102 16.4678 89.5302 9.15581 88.7342 1.88281C82.4802 2.13381 74.9182 6.04981 70.4332 11.2988C66.4132 15.9458 62.8932 23.3858 63.8422 30.5148C70.8132 31.0548 77.9332 26.9728 82.2722 21.7188Z" fill="black"/>
</svg>
