<svg width="128" height="128" viewBox="0 0 128 128" fill="none" xmlns="http://www.w3.org/2000/svg">
<path d="M46.6011 65.2589L46.6241 56.9569L47.4441 56.9339L48.2641 56.9109L48.2881 58.1209L48.3111 59.3329L48.5331 58.9499C49.1851 57.8229 50.4031 57.0329 51.8221 56.8339C54.6581 56.4429 56.9731 57.8919 57.7321 60.5369C58.0541 61.6709 58.0391 63.7099 57.6861 64.8069C57.3181 65.9719 56.6661 66.8919 55.7461 67.5199C55.2181 67.8879 54.9341 68.0259 54.2901 68.2329C53.6311 68.4399 51.7301 68.4399 51.0701 68.2329C49.9971 67.8879 49.1701 67.2669 48.5711 66.3469L48.3111 65.9409L48.2881 69.7509L48.2721 73.5529H46.5861L46.6011 65.2589ZM53.5931 66.7689C54.1294 66.6141 54.6209 66.3329 55.0261 65.9489C55.3481 65.6419 55.8621 64.9749 55.8621 64.8529C55.8621 64.8219 55.9151 64.6919 55.9771 64.5609C56.1771 64.1239 56.3221 63.2889 56.3221 62.6059C56.3141 60.5829 55.2871 58.9879 53.6771 58.4819C53.3241 58.3749 52.9871 58.3359 52.2591 58.3359C51.1931 58.3359 50.8791 58.4209 50.1121 58.8959C48.3421 59.9999 47.7361 62.6679 48.7631 64.8299C49.2531 65.8569 50.3811 66.6919 51.5691 66.8919C52.0671 66.9759 53.0941 66.9149 53.5931 66.7689ZM60.4771 65.2589L60.5001 56.9569L61.3281 56.9339L62.1481 56.9109V59.4099L62.3861 58.9959C63.1291 57.7079 64.4401 56.9179 66.0661 56.8029C67.8661 56.6649 69.2621 57.1559 70.3581 58.3059C70.8341 58.8039 71.2931 59.5779 71.5621 60.3299C71.8531 61.1349 71.9681 62.9129 71.7991 63.8479C71.7071 64.3619 71.4391 65.2669 71.3471 65.3889C71.3171 65.4349 71.2631 65.5499 71.2321 65.6579C71.0791 66.1559 70.2431 67.1289 69.5841 67.5739C69.0781 67.9109 68.2881 68.2409 67.6831 68.3479C67.0851 68.4629 65.3531 68.3869 64.9081 68.2259C64.4711 68.0719 63.7421 67.6959 63.5201 67.5199C62.9991 67.0909 62.5241 66.5309 62.2781 66.0799C62.1631 65.8639 62.1561 66.1249 62.1481 69.7049V73.5529H60.4611L60.4771 65.2589ZM67.4761 66.7609C68.8021 66.3399 69.6531 65.4279 70.0521 64.0089C70.2201 63.4109 70.1971 61.6709 70.0131 61.0959C69.8601 60.6209 69.4921 59.8849 69.3231 59.7159C69.2701 59.6629 69.1391 59.5089 69.0321 59.3859C68.7941 59.1029 68.0821 58.6359 67.7751 58.5589C67.6584 58.5309 67.547 58.4843 67.4451 58.4209C67.3761 58.3669 66.9241 58.3359 66.2191 58.3359H65.0991L64.4481 58.6579C63.7421 59.0029 63.4741 59.2179 63.0601 59.7549C62.6231 60.3149 62.3861 60.8739 62.2551 61.6249C62.0561 62.7669 62.1941 63.9329 62.6391 64.8219C63.1831 65.9019 64.2021 66.6539 65.4441 66.8839C65.9271 66.9759 67.0161 66.9139 67.4761 66.7609ZM10.0041 64.9979C9.98107 64.9749 9.98807 64.8299 10.0271 64.6759C10.1421 64.2159 10.3261 63.4419 10.4791 62.7829C10.5561 62.4449 10.6711 61.9469 10.7391 61.6709C10.8011 61.3949 10.8931 61.0199 10.9391 60.8279C10.9874 60.6043 11.041 60.3819 11.1001 60.1609L11.1921 59.8309H11.5981C11.8281 59.8309 12.0121 59.8539 12.0121 59.8929C11.9343 60.2838 11.8449 60.6723 11.7441 61.0579C11.6831 61.3339 11.5601 61.8479 11.4761 62.2079C11.3921 62.5679 11.2761 63.0659 11.2151 63.3189C11.1541 63.5719 11.0551 64.0019 10.9931 64.2779C10.8161 65.0439 10.8161 65.0439 10.4101 65.0439C10.2101 65.0439 10.0271 65.0289 10.0041 64.9979ZM8.53207 63.1279L8.01807 62.5829L8.49407 62.0539L8.96907 61.5179H9.49007C9.78207 61.5179 10.0201 61.5409 10.0201 61.5789C10.0201 61.6089 9.87307 61.7939 9.69707 61.9849C9.09207 62.6289 9.09907 62.5369 9.59007 63.0429C9.82807 63.2959 10.0201 63.5339 10.0201 63.5799C10.0201 63.6339 9.82807 63.6639 9.53607 63.6639H9.04607L8.53207 63.1279ZM11.9361 63.5799C11.9361 63.5339 12.1271 63.2959 12.3651 63.0429C12.8551 62.5369 12.8631 62.6219 12.2651 61.9849C12.0811 61.7859 11.9351 61.6099 11.9351 61.5789C11.9351 61.5409 12.1731 61.5179 12.4651 61.5179H12.9851L13.4611 62.0539C13.9211 62.5679 13.9291 62.5909 13.7981 62.7289C13.7221 62.8059 13.4921 63.0509 13.2931 63.2659L12.9171 63.6639H12.4271C12.1271 63.6639 11.9361 63.6339 11.9361 63.5799ZM36.4291 68.3709C35.9243 68.2561 35.4352 68.0811 34.9721 67.8499C34.3891 67.5589 34.4051 67.5659 33.7381 66.9069C33.2781 66.4549 33.1091 66.2169 32.8411 65.6419C32.3271 64.5619 32.2121 64.0019 32.2201 62.5919C32.2201 61.1719 32.3351 60.5899 32.8331 59.5479C33.0931 59.0109 33.2931 58.7279 33.6921 58.3209C34.3201 57.6929 34.4511 57.5929 35.0491 57.3009C36.5741 56.5579 38.7441 56.6109 40.1241 57.4239C40.8211 57.8309 41.3341 58.3589 41.7491 59.0799L41.9861 59.4859V56.9179H43.5961L43.5811 62.6139L43.5581 68.3019L42.7761 68.3249L41.9861 68.3479L41.9791 67.0219C41.9711 65.7719 41.9711 65.7119 41.8561 65.9639C41.4571 66.8759 40.3541 67.7959 39.1501 68.2339C38.8131 68.3559 36.7891 68.4559 36.4291 68.3709ZM39.1501 66.7459C39.8631 66.5009 40.2231 66.2779 40.6751 65.8179C41.2201 65.2579 41.2201 65.2579 41.5111 64.6459C41.6571 64.3309 41.8021 63.8479 41.8791 63.3809C41.9941 62.7369 41.9941 62.5449 41.9091 62.0159C41.6571 60.4139 40.9441 59.3179 39.7861 58.7579C39.4951 58.6119 39.1961 58.4669 39.1121 58.4279C38.8741 58.3059 37.4021 58.2679 36.9191 58.3679C36.2291 58.5129 35.5931 58.8579 35.1101 59.3559C34.4431 60.0309 34.3431 60.1919 34.0751 61.0429C33.8221 61.8169 33.8301 63.3959 34.0831 64.2009C34.5501 65.6499 35.6081 66.6009 37.0801 66.8839C37.6011 66.9839 38.6671 66.9139 39.1501 66.7459ZM118.416 68.3709C117.312 68.1719 116.063 67.5429 115.404 66.8459C115.044 66.4699 114.491 65.6579 114.315 65.2359C113.962 64.3929 113.863 63.8179 113.863 62.5139C113.863 61.4179 113.886 61.1649 114.039 60.6359C114.645 58.5359 116.048 57.2099 118.133 56.7569C119.873 56.3889 121.751 56.7109 123.07 57.6159C123.507 57.9149 124.22 58.6359 124.28 58.8419C124.312 58.9189 124.358 58.9879 124.396 58.9879C124.426 58.9879 124.473 59.0489 124.503 59.1259C124.526 59.1959 124.58 59.3099 124.618 59.3709C124.718 59.5249 124.886 59.9309 125.048 60.4059C125.193 60.8359 125.285 62.3069 125.208 62.8519L125.155 63.2039H116.883V63.4039C116.883 63.7029 117.098 64.3849 117.32 64.7759C117.68 65.4279 118.562 65.8869 119.459 65.8869C120.594 65.8869 121.529 65.2669 121.789 64.3389L121.874 64.0479H123.422C124.404 64.0479 125.009 64.0779 125.055 64.1239C125.147 64.2159 125.017 64.8299 124.818 65.2509C124.769 65.3436 124.73 65.4416 124.703 65.5429C124.703 65.6579 124.135 66.4389 123.798 66.7929C123.208 67.4049 122.418 67.8809 121.475 68.1949C121.076 68.3249 120.755 68.3639 119.796 68.3789C119.145 68.3939 118.524 68.3869 118.416 68.3709ZM122.073 61.1649C121.989 60.3219 121.513 59.7009 120.647 59.3179C120.019 59.0339 119.068 59.0489 118.455 59.3329C117.68 59.7009 117.251 60.2069 116.998 61.0269C116.784 61.7329 116.538 61.6709 119.498 61.6709H122.119L122.073 61.1649ZM75.9851 68.2499C75.9621 68.1959 75.8471 67.7509 75.7171 67.2679C75.5941 66.7849 75.3791 65.9879 75.2491 65.5049C75.0065 64.6119 74.7688 63.7175 74.5361 62.8219C74.4005 62.2917 74.2601 61.7626 74.1151 61.2349C73.9894 60.8022 73.8694 60.3678 73.7551 59.9319C73.3171 58.2759 73.0111 57.1029 72.9801 56.9419L72.9421 56.7659H76.0771L76.1691 57.2489C76.2151 57.5089 76.2991 57.9469 76.3611 58.2219C76.5601 59.1269 76.7131 59.8629 76.8281 60.4839C76.8981 60.8209 76.9971 61.3039 77.0511 61.5569C77.1121 61.8099 77.2111 62.2929 77.2881 62.6299C77.4341 63.3429 77.5721 63.9799 77.7181 64.6159C77.8331 65.1299 77.7941 65.1759 78.0931 64.1259C78.4691 62.7989 78.7301 61.9019 79.0901 60.6369C79.5041 59.1969 79.8721 57.9009 80.0481 57.2869C80.0881 57.1385 80.1369 56.9926 80.1941 56.8499C80.2321 56.7969 80.7761 56.7659 81.8501 56.7659H83.4521L83.5361 57.0959C83.5901 57.2719 83.7431 57.8319 83.8961 58.3369C84.2951 59.6939 84.3331 59.8249 84.7631 61.3269C85.1461 62.6459 85.2381 62.9599 85.4911 63.8189L85.7131 64.5929C85.7751 64.8069 85.8431 64.9989 85.8591 65.0149C85.8741 65.0379 85.9511 64.7619 86.0121 64.4169C86.0821 64.0639 86.1891 63.5579 86.2501 63.2819C86.3041 63.0059 86.4101 62.5079 86.4881 62.1699C86.5561 61.8329 86.6641 61.3349 86.7251 61.0589C86.9321 60.0699 87.1551 59.0189 87.2551 58.5289C87.4231 57.6629 87.5991 56.9039 87.6451 56.8349C87.6681 56.7969 88.3271 56.7659 89.1091 56.7659H90.5351L90.4811 57.0879C90.4511 57.2719 90.3811 57.5939 90.3211 57.8009C90.1483 58.3994 89.9819 58.9998 89.8221 59.6019C89.7841 59.7479 89.6841 60.1159 89.6001 60.4069C89.5161 60.7069 89.3091 61.4959 89.1251 62.1699C88.9481 62.8449 88.7031 63.7799 88.5731 64.2399C88.4501 64.7079 88.2281 65.5359 88.0821 66.0799C87.9361 66.6319 87.7601 67.2679 87.6991 67.4979C87.6381 67.7279 87.5691 68.0119 87.5451 68.1349L87.5071 68.3419H84.0881L84.0041 68.0199C83.9651 67.8359 83.8741 67.4979 83.8041 67.2679C83.7341 67.0379 83.6131 66.6239 83.5361 66.3479C83.4591 66.0719 83.3361 65.6659 83.2761 65.4519C82.9711 64.4355 82.6695 63.4182 82.3711 62.3999C82.2871 62.1099 82.1711 61.7259 82.1181 61.5569C82.0651 61.3879 81.9801 61.0899 81.9181 60.8899C81.8651 60.6829 81.7961 60.5219 81.7651 60.5219C81.7191 60.5219 81.5971 60.9059 81.3131 61.9019C81.2361 62.1779 81.0681 62.7449 80.9301 63.1669C80.6691 63.9869 80.6151 64.1639 80.2471 65.4669C80.1091 65.9339 79.9711 66.3709 79.9331 66.4399C79.8871 66.5169 79.8561 66.6169 79.8561 66.6699C79.8561 66.7229 79.7411 67.1229 79.6111 67.5519L79.3581 68.3419H77.6871C76.4221 68.3419 76.0081 68.3189 75.9851 68.2499ZM91.9451 68.2879C91.9151 68.2649 91.8921 65.6579 91.8921 62.4999V56.7659H94.9581V58.5829L95.6021 57.9539C96.5071 57.0729 97.5341 56.6129 98.6071 56.6129H99.0211L99.0061 58.2449L98.9831 59.8709L98.0931 59.9169C97.6111 59.9469 97.0971 59.9929 96.9591 60.0239C96.2391 60.1769 95.5951 60.6529 95.3031 61.2279C94.9971 61.8409 94.9581 62.3389 94.9581 65.3979V68.3419H93.4781C92.6581 68.3419 91.9681 68.3189 91.9461 68.2879H91.9451ZM100.516 68.1729C100.493 68.0729 100.486 65.4829 100.493 62.3999L100.516 56.8039H103.583V68.3039L102.073 68.3259L100.555 68.3419L100.516 68.1729ZM109.677 68.2189C108.458 67.9809 107.615 67.4289 107.224 66.6089C106.802 65.7119 106.764 65.3369 106.764 62.2389V59.3719H105.154L105.17 58.0919L105.193 56.8039L105.983 56.7809L106.764 56.7579V53.9299L108.32 53.9449L109.869 53.9679L109.892 55.3629L109.907 56.7659H112.36V59.3719H109.907V62.1169C109.907 65.0609 109.915 65.0839 110.313 65.3829C110.497 65.5129 110.673 65.5429 111.463 65.5819L112.399 65.6199V68.3029L111.325 68.3189C110.651 68.3259 110.037 68.2879 109.677 68.2189ZM101.321 55.1869C100.547 54.9489 100.095 54.1829 100.217 53.3239C100.294 52.7409 100.685 52.2739 101.275 52.0509C101.697 51.8909 102.685 51.9289 103.046 52.1129C103.468 52.3349 103.774 52.7259 103.897 53.1929C104.004 53.5929 103.997 53.6769 103.882 54.0679C103.598 55.0559 102.479 55.5479 101.322 55.1869H101.321Z" fill="black"/>
<path d="M10.3512 54.4117C8.72368 54.5577 7.17502 55.1789 5.89775 56.198C4.62047 57.2172 3.67092 58.5892 3.16716 60.1437C2.86716 61.0617 2.76416 61.7197 2.76416 62.7507C2.76416 63.7807 2.86716 64.4387 3.16716 65.3567C4.76216 70.2247 10.2782 72.5217 14.8622 70.2297L15.2892 70.0137L15.7212 70.2297C17.5445 71.1444 19.6393 71.3615 21.6115 70.8399C23.5837 70.3184 25.2973 69.0942 26.4302 67.3977C27.0432 66.4847 27.5152 65.3017 27.7162 64.1787C27.7892 63.7467 27.8142 63.4027 27.8142 62.7507C27.8142 61.7197 27.7112 61.0617 27.4112 60.1437C25.8172 55.2757 20.3002 52.9787 15.7212 55.2707L15.2892 55.4867L14.8622 55.2707C13.8968 54.7907 12.8494 54.4975 11.7752 54.4067C11.1222 54.3527 10.9892 54.3527 10.3512 54.4117ZM12.4522 56.1927C12.9332 56.2867 13.8612 56.6497 14.4252 56.9687C15.1962 57.4007 16.0692 58.2107 16.6042 58.9857C16.8942 59.4077 17.2822 60.2027 17.5032 60.8357C17.8172 61.7197 17.8172 63.7807 17.5032 64.6637C17.1192 65.7437 16.6342 66.5837 15.9812 67.2757C15.2062 68.0997 14.4842 68.5857 13.4042 69.0077C12.7172 69.2777 12.3052 69.3657 11.4952 69.4057C10.5042 69.4547 9.61016 69.3367 8.90916 69.0567C8.77504 68.9982 8.63704 68.9491 8.49616 68.9097C8.39416 68.8857 7.51016 68.3937 7.21116 68.1927C6.89216 67.9767 6.10716 67.2067 5.80216 66.8087C5.7018 66.6832 5.60833 66.5523 5.52216 66.4167C5.52216 66.4017 5.40916 66.1957 5.27216 65.9597C5.03116 65.5427 4.86916 65.2047 4.90916 65.2047C4.91916 65.2047 4.86516 65.0477 4.78616 64.8557C4.54616 64.2817 4.47216 63.7757 4.47216 62.7507C4.47216 61.7247 4.54616 61.2187 4.78616 60.6447C4.86516 60.4527 4.91916 60.2957 4.90916 60.2957C4.86916 60.2957 5.03116 59.9577 5.27216 59.5407C5.40916 59.3047 5.52216 59.0987 5.52216 59.0837C5.52216 59.0687 5.65016 58.8927 5.80216 58.6907C6.10716 58.2937 6.89216 57.5227 7.21116 57.3077C7.50516 57.1067 8.39416 56.6147 8.49616 56.5907C8.65311 56.5455 8.80735 56.4914 8.95816 56.4287C9.40416 56.2517 9.69416 56.1837 10.2102 56.1247C10.7402 56.0657 11.9862 56.1047 12.4522 56.1927ZM46.9932 39.3067L46.9832 39.3487L46.9652 39.4257L46.9502 39.4917L46.9632 39.4927H46.9752L46.9812 39.4687L46.9972 39.3987L47.0132 39.3327L47.0192 39.3087C47.0192 39.3067 47.0162 39.3057 47.0072 39.3057L46.9932 39.3067ZM46.8962 39.3857L46.8792 39.4047L46.8842 39.4097L46.9002 39.4277L46.9122 39.4407H46.9452L46.9292 39.4237C46.9234 39.4177 46.9181 39.4113 46.9132 39.4047L46.9282 39.3867C46.9336 39.381 46.9386 39.375 46.9432 39.3687L46.9282 39.3677H46.9122L46.8962 39.3857ZM47.0232 39.3687L47.0302 39.3767C47.0442 39.3907 47.0542 39.4027 47.0532 39.4047C47.0532 39.4067 47.0462 39.4147 47.0372 39.4237L47.0232 39.4407H47.0392L47.0562 39.4397L47.0722 39.4237L47.0872 39.4047C47.0826 39.3977 47.0772 39.3913 47.0712 39.3857L47.0542 39.3677H47.0392L47.0232 39.3687Z" fill="black"/>
</svg>
