<svg width="128" height="128" viewBox="0 0 128 128" fill="none" xmlns="http://www.w3.org/2000/svg">
<path d="M40.1618 23.7676C24.1208 25.1886 10.4958 36.0646 5.47279 51.4426C4.02779 55.8736 3.52979 59.0496 3.52979 64.0256C3.52979 69.0016 4.02779 72.1766 5.47279 76.6076C13.1738 100.113 39.8068 111.203 61.9388 100.137L63.9998 99.0936L66.0848 100.137C84.3068 109.26 106.462 103.43 117.788 86.4646C120.75 82.0576 123.025 76.3466 123.996 70.9206C124.352 68.8356 124.47 67.1766 124.47 64.0256C124.47 59.0496 123.973 55.8736 122.527 51.4426C114.826 27.9376 88.1928 16.8486 66.0848 27.9136L63.9998 28.9566L61.9388 27.9136C57.2777 25.5974 52.2211 24.1826 47.0348 23.7436C43.8828 23.4826 43.2428 23.4826 40.1618 23.7676ZM50.3038 32.3686C52.6258 32.8186 57.1048 34.5716 59.8288 36.1126C63.5498 38.1976 67.7668 42.1076 70.3498 45.8516C71.7478 47.8886 73.6198 51.7276 74.6858 54.7846C76.2028 59.0496 76.2028 69.0016 74.6858 73.2656C72.8378 78.4796 70.4918 82.5316 67.3408 85.8726C63.5968 89.8536 60.1138 92.1986 54.9008 94.2366C51.5838 95.5396 49.5938 95.9666 45.6838 96.1556C40.8968 96.3926 36.5838 95.8246 33.1958 94.4736C32.3428 94.1176 31.4658 93.8106 31.2058 93.7626C30.7078 93.6446 26.4428 91.2746 24.9978 90.3026C23.4578 89.2606 19.6668 85.5406 18.1968 83.6206C17.4628 82.6496 16.8468 81.7966 16.8468 81.7256C16.8468 81.6546 16.3018 80.6586 15.6378 79.5216C14.4768 77.5076 13.6948 75.8726 13.8848 75.8726C13.9318 75.8726 13.6718 75.1146 13.2928 74.1906C12.1318 71.4186 11.7758 68.9776 11.7758 64.0256C11.7758 59.0726 12.1318 56.6316 13.2928 53.8596C13.6718 52.9356 13.9318 52.1776 13.8848 52.1776C13.6948 52.1776 14.4768 50.5426 15.6378 48.5286C16.3018 47.3916 16.8468 46.3966 16.8468 46.3246C16.8468 46.2536 17.4628 45.4006 18.1968 44.4296C19.6668 42.5096 23.4578 38.7896 24.9978 37.7476C26.4198 36.7756 30.7078 34.4056 31.2058 34.2876C31.4658 34.2406 32.4618 33.8846 33.4328 33.5056C35.5888 32.6526 36.9868 32.3216 39.4758 32.0366C42.0348 31.7526 48.0528 31.9426 50.3038 32.3686Z" fill="#F02E65"/>
<path d="M44.9729 49.7373C44.9249 49.8563 44.3089 52.2733 43.6459 55.1403C42.9579 58.0073 41.8689 62.5333 41.2529 65.2103C40.0679 70.1153 39.3569 73.3383 39.3569 73.7643C39.3569 73.8823 40.0919 73.9783 40.9919 73.9783H42.6269L43.3609 70.7073C43.7879 68.9303 44.7359 64.8553 45.4939 61.6563C46.2529 58.4573 47.1759 54.5713 47.5319 53.0073C47.8869 51.4433 48.2429 50.0223 48.3139 49.8563C48.3849 49.6433 47.9819 49.5723 46.7499 49.5723C45.8259 49.5723 45.0199 49.6433 44.9729 49.7373ZM32.2479 59.9973L30.0679 62.3673L30.7079 63.1253C31.0629 63.5513 32.0349 64.6183 32.8639 65.4953L34.3809 67.1063H38.6939L36.6559 64.9023C35.5419 63.7183 34.6179 62.5803 34.6179 62.4383C34.6179 62.2723 35.4709 61.2063 36.5139 60.0693C37.5559 58.9083 38.4089 57.9123 38.4089 57.7943C38.4089 57.6993 37.5089 57.6283 36.4189 57.6283H34.4519L32.2479 59.9973ZM48.8349 57.7703C48.8349 57.8413 49.2379 58.2913 49.7349 58.7893C51.5839 60.6373 52.8869 62.2013 52.8159 62.5093C52.7689 62.6753 51.8679 63.7883 50.7779 64.9493L48.8119 67.1063H51.0149L53.2189 67.0823L55.2319 64.8793C56.3469 63.6473 57.2469 62.5563 57.2469 62.4143C57.2469 62.2963 56.2989 61.1823 55.1139 59.9273L52.9819 57.6283H50.9199C49.7589 57.6283 48.8349 57.6993 48.8349 57.7703Z" fill="#F02E65"/>
</svg>
