<svg width="128" height="128" viewBox="0 0 128 128" fill="none" xmlns="http://www.w3.org/2000/svg">
<path fill-rule="evenodd" clip-rule="evenodd" d="M0.315918 55.5042V45.9492C0.538918 45.8242 0.479918 45.5942 0.522918 45.4022C3.53092 32.3162 11.7339 24.4502 24.6679 21.3102C25.8009 21.0362 26.9879 21.0632 28.0899 20.6572H34.4599C34.6049 20.9312 34.8749 20.8212 35.0899 20.8452C41.5119 21.5322 47.2929 23.8022 52.4059 27.7592C56.7699 31.1292 60.2459 35.3062 63.3439 39.8172C63.7269 40.3762 63.9099 40.3922 64.2969 39.8212C66.0699 37.2112 68.0039 34.7242 70.1569 32.4112C75.5069 26.6732 81.8629 22.7162 89.6679 21.2672C90.8399 21.0472 92.0509 21.0602 93.1879 20.6572H99.3779C99.5079 20.8872 99.7379 20.8142 99.9339 20.8372C101.777 21.0442 103.598 21.3842 105.387 21.8992C118.836 25.7632 128.32 38.0832 127.523 52.0322C126.855 63.6772 120.961 72.0642 110.743 77.4502C105.586 80.1692 99.9929 80.9392 94.2189 80.8252C86.5939 80.6772 79.9649 78.0552 74.2499 73.0522C70.2849 69.5832 67.1679 65.4122 64.3049 61.0362C63.8789 60.3842 63.7149 60.4662 63.3319 61.0562C61.5199 63.8452 59.5739 66.5482 57.3719 69.0562C53.5039 73.4622 49.0349 77.0562 43.4419 79.0162C36.5269 81.4382 29.4769 81.5322 22.4879 79.5562C12.4139 76.7072 5.46792 70.3002 1.72292 60.4802C1.10492 58.8632 0.847918 57.1452 0.315918 55.5042ZM95.4529 70.1882C97.6989 70.2462 99.9099 70.0982 102.043 69.4572C109.863 67.1252 115.148 62.1642 116.621 54.0272C118.09 45.9222 114.953 39.4342 108.231 34.8012C100.738 29.6332 89.8159 30.1412 82.1759 35.8242C77.1019 39.5982 73.6519 44.7342 70.3009 49.9572C70.1049 50.2572 70.1559 50.4882 70.3279 50.7622C73.0159 55.0622 75.7069 59.3592 79.1909 63.0862C83.5979 67.8012 88.8949 70.4802 95.4529 70.1882ZM32.1059 70.1882C37.8399 70.4262 42.7259 68.5002 46.8709 64.6452C51.1949 60.6212 54.2539 55.6412 57.3589 50.6992C57.5469 50.4022 57.4889 50.1682 57.3089 49.8912C54.6639 45.7702 51.9529 41.6882 48.3749 38.2892C41.4919 31.7462 33.3829 29.5472 24.3349 32.4372C16.7779 34.8552 11.9999 40.2342 10.8839 48.2202C9.84092 55.6652 12.7389 61.6772 18.6959 66.1612C22.6609 69.1492 27.2279 70.3252 32.1059 70.1892V70.1882ZM17.4959 106.941C15.1289 106.941 15.1289 106.941 14.4919 104.703C13.9839 102.922 13.9839 102.922 12.1289 102.922C10.6519 102.922 9.17892 102.949 7.70692 102.91C7.15992 102.895 6.92992 103.078 6.80092 103.602C6.57792 104.516 6.23792 105.402 6.01592 106.316C5.89092 106.824 5.63292 106.965 5.14492 106.949C4.17357 106.914 3.20127 106.914 2.22992 106.949C1.56992 106.977 1.50792 106.766 1.68792 106.179C3.15992 101.429 4.60492 96.6722 6.05792 91.9142C6.55792 90.2852 7.08192 88.6602 7.55092 87.0202C7.69892 86.4922 7.90192 86.2462 8.49992 86.2662C10.0039 86.3122 11.5079 86.2962 13.0079 86.2732C13.4679 86.2662 13.6719 86.4142 13.8079 86.8672C15.7719 93.3122 17.7479 99.7542 19.7379 106.191C19.9139 106.761 19.8279 107.004 19.1759 106.949C18.6209 106.902 18.0589 106.941 17.4959 106.941ZM10.6289 91.2812L10.4449 91.2932C9.66792 93.9652 8.88692 96.6332 8.10892 99.3052C8.24592 99.3442 8.30092 99.3752 8.35892 99.3752C9.30092 99.3832 10.2419 99.3912 11.1839 99.3912C12.9879 99.3952 12.9919 99.3912 12.4959 97.6912C11.8749 95.5552 11.2499 93.4142 10.6289 91.2812ZM127.68 99.1952C127.383 100.137 127.145 101.098 126.785 102.015C124.551 107.695 116.563 109.219 112.73 104.699C111.426 103.16 110.852 101.313 110.633 99.3522C110.328 96.6092 110.336 93.8872 111.367 91.2542C112.824 87.5592 115.977 85.6412 120.121 85.9542C123.898 86.2382 126.411 88.4922 127.309 92.3872C127.426 92.8872 127.367 93.4342 127.679 93.8872L127.68 99.1952ZM115.062 96.5852C115.066 98.0942 115.148 99.5942 115.684 101.023C116.09 102.129 116.77 102.965 117.977 103.277C120.133 103.836 121.902 102.949 122.559 100.805C123.402 98.0352 123.363 95.2152 122.566 92.4412C122.051 90.6332 120.961 89.8402 119.25 89.8092C117.422 89.7732 116.29 90.5552 115.633 92.3162C115.121 93.6962 115.07 95.1412 115.063 96.5862L115.062 96.5852ZM38.9879 96.5822C38.9879 93.4572 39.0079 90.3362 38.9729 87.2112C38.9649 86.5082 39.1089 86.2272 39.8829 86.2612C42.3829 86.3632 44.8949 86.1052 47.3869 86.4112C52.1209 86.9922 54.5619 89.4652 55.0939 94.2612C55.3549 96.5902 55.2699 98.9142 54.4339 101.152C53.1169 104.664 50.3669 106.282 46.8319 106.77C44.4339 107.098 42.0079 106.887 39.5899 106.941C38.9409 106.957 38.9879 106.555 38.9879 106.129V96.5822ZM43.3359 96.5662V101.332C43.3359 103.372 43.3359 103.372 45.4139 103.285C47.9919 103.175 49.6369 101.852 50.2459 99.3322C50.7339 97.3242 50.6839 95.3012 50.1839 93.3052C49.6839 91.3202 48.3709 90.2112 46.3199 89.9802C45.5939 89.8982 44.8519 89.9262 44.1209 89.8602C43.4999 89.8002 43.3119 90.0402 43.3239 90.6562C43.3589 92.6252 43.3359 94.5982 43.3359 96.5662ZM57.0739 93.9652C57.0739 91.6372 57.0859 89.3092 57.0629 86.9772C57.0589 86.4612 57.1829 86.2382 57.7459 86.2662C58.7189 86.3092 59.6959 86.3162 60.6639 86.2622C61.3159 86.2272 61.4409 86.4922 61.4369 87.0782C61.4179 91.0002 61.4259 94.9222 61.4339 98.8442C61.4339 99.5202 61.4539 100.199 61.5239 100.871C61.7109 102.719 62.8039 103.652 64.8119 103.711C66.8239 103.773 67.9609 102.902 68.2339 101.039C68.3299 100.369 68.3769 99.6932 68.3749 99.0162C68.3909 95.0942 68.3979 91.1722 68.3629 87.2542C68.3589 86.5162 68.4879 86.1842 69.3159 86.2582C70.2229 86.3402 71.1449 86.2972 72.0549 86.2702C72.5349 86.2542 72.7379 86.3832 72.7349 86.9022C72.7029 91.3822 72.7809 95.8672 72.6519 100.344C72.5429 104.234 70.0079 106.754 66.1089 107.188C64.4449 107.375 62.8089 107.281 61.2189 106.754C58.6679 105.902 57.2109 103.852 57.1129 100.859C57.0429 98.5632 57.1019 96.2622 57.1019 93.9652H57.0739ZM31.8129 97.1452C33.3279 98.3632 33.9299 100.051 34.7269 101.617C35.4969 103.137 36.2269 104.68 36.9999 106.199C37.2619 106.719 37.3129 106.973 36.5739 106.945C35.3386 106.906 34.1023 106.906 32.8669 106.945C32.3669 106.961 32.1449 106.754 31.9529 106.32C31.0899 104.355 30.1879 102.406 29.3049 100.45C28.8199 99.3752 28.0509 98.7192 26.8439 98.5502C26.1289 98.4532 25.9409 98.6802 25.9539 99.3872C25.9959 101.625 25.9449 103.863 25.9839 106.102C25.9959 106.758 25.8239 106.988 25.1519 106.949C24.2109 106.891 23.2659 106.914 22.3239 106.941C21.8239 106.953 21.5779 106.84 21.5779 106.266C21.5979 99.8122 21.5899 93.3632 21.5939 86.9102C21.5939 86.6292 21.5199 86.2662 21.9839 86.2812C25.1289 86.3832 28.2969 85.9492 31.4099 86.6482C35.6869 87.6092 36.2269 91.2232 35.4569 93.8952C34.9529 95.6482 33.5969 96.6052 31.8119 97.1452H31.8129ZM25.9729 92.4342V94.6412C25.9729 94.8832 25.9649 95.1332 26.3129 95.1332C27.5159 95.1452 28.7339 95.2302 29.8519 94.6372C30.8629 94.0972 31.2819 93.2112 31.1319 91.9732C31.0119 90.9612 30.4529 90.3322 29.3279 90.0782C28.6957 89.9358 28.05 89.861 27.4019 89.8552C25.6319 89.8352 26.0159 89.6912 25.9719 91.1992C25.9609 91.6092 25.9719 92.0232 25.9719 92.4342H25.9729ZM97.3089 93.4452V105.723C97.3089 106.933 97.3089 106.933 96.0549 106.933C95.4369 106.933 94.8159 106.891 94.1989 106.945C93.5079 107.008 93.2929 106.765 93.3009 106.063C93.3319 102.437 93.3159 98.8132 93.3159 95.1872C93.3159 92.4772 93.3359 89.7662 93.3049 87.0552C93.2969 86.4372 93.4729 86.2382 94.0939 86.2622C95.3009 86.3092 96.5119 86.3122 97.7189 86.2582C98.3199 86.2342 98.6019 86.4492 98.8439 86.9772C100.73 91.0672 102.644 95.1412 104.554 99.2192C104.602 99.3162 104.668 99.4102 104.864 99.7342V98.6802C104.864 94.8202 104.879 90.9602 104.848 87.1022C104.844 86.4532 104.992 86.2112 105.672 86.2622C106.523 86.3242 107.379 86.2972 108.234 86.2702C108.714 86.2502 108.906 86.3872 108.906 86.9062C108.892 93.3612 108.892 99.8162 108.906 106.27C108.906 106.758 108.762 106.95 108.254 106.941C106.927 106.913 105.6 106.915 104.274 106.945C103.73 106.961 103.59 106.629 103.41 106.242C101.538 102.18 99.6578 98.1212 97.7699 94.0662C97.6759 93.8672 97.6639 93.6022 97.3089 93.4462V93.4452ZM82.9689 86.2772C85.0039 86.2772 87.0349 86.2972 89.0699 86.2622C89.6449 86.2542 89.8549 86.4222 89.8159 87.0082C89.7729 87.7132 89.7729 88.4202 89.8159 89.1252C89.8519 89.6882 89.6249 89.8322 89.1019 89.8162C88.0389 89.7812 86.9799 89.8242 85.9179 89.7962C85.4219 89.7812 85.1839 89.8792 85.1839 90.4612C85.2069 94.5272 85.2039 98.5942 85.1879 102.661C85.1839 103.203 85.3549 103.387 85.8949 103.367C86.9529 103.34 88.0149 103.391 89.0749 103.347C89.6749 103.328 89.8439 103.559 89.8159 104.121C89.7769 104.855 89.7859 105.594 89.8119 106.328C89.8319 106.801 89.6369 106.938 89.1919 106.938C85.0659 106.926 80.9419 106.926 76.8119 106.938C76.3199 106.941 76.1219 106.785 76.1409 106.281C76.1688 105.545 76.1675 104.808 76.1369 104.071C76.1129 103.539 76.2889 103.336 76.8399 103.351C77.9299 103.383 79.0199 103.344 80.1099 103.363C80.6099 103.375 80.7699 103.188 80.7659 102.691C80.7539 98.5982 80.7539 94.5002 80.7659 90.4022C80.7659 89.9422 80.6019 89.7892 80.1479 89.7972C79.0579 89.8202 77.9649 89.7732 76.8779 89.8172C76.2809 89.8402 76.0899 89.6212 76.1409 89.0552C76.2269 88.1562 75.7659 87.0122 76.3399 86.4222C76.8399 85.9102 77.9649 86.2932 78.8159 86.2772C80.1959 86.2622 81.5859 86.2772 82.9689 86.2772ZM124.852 24.4772C124.719 24.6762 124.672 24.7422 124.629 24.8092C124.387 25.1722 124.574 25.9062 123.965 25.8952C123.425 25.8832 123.562 25.2112 123.371 24.8442C123.321 24.7462 123.261 24.6562 123.094 24.3832C123.094 24.8872 123.102 25.1722 123.094 25.4612C123.086 25.6562 123.129 25.9022 122.82 25.9182C122.508 25.9342 122.527 25.6842 122.523 25.4882C122.516 24.8082 122.516 24.1332 122.52 23.4572C122.52 23.2272 122.484 22.9612 122.844 22.9532C123.114 22.9492 123.348 22.9382 123.461 23.2892C123.605 23.7192 123.656 24.1992 123.988 24.6132C124.305 24.2112 124.359 23.7462 124.48 23.3202C124.582 22.9732 124.797 22.9502 125.078 22.9502C125.434 22.9532 125.418 23.2032 125.422 23.4382C125.426 24.1182 125.426 24.7932 125.418 25.4732C125.414 25.6642 125.441 25.9182 125.137 25.9222C124.832 25.9222 124.855 25.6802 124.852 25.4802C124.844 25.1912 124.852 24.9062 124.852 24.4772ZM121.14 22.9452C121.227 22.9452 121.32 22.9302 121.402 22.9452C121.727 23.0082 122.23 22.7582 122.336 23.1452C122.48 23.6882 121.91 23.4152 121.668 23.5312C121.426 23.6482 121.473 23.8632 121.468 24.0592C121.457 24.5272 121.461 24.9962 121.461 25.4652C121.461 25.7232 121.411 25.9382 121.078 25.9252C120.773 25.9152 120.785 25.6912 120.785 25.4882C120.775 25.0492 120.775 24.6112 120.781 24.1722C120.793 23.7972 120.797 23.4452 120.258 23.4962C120.07 23.5122 119.906 23.4572 119.906 23.2192C119.906 22.8912 120.16 22.9572 120.348 22.9492C120.613 22.9372 120.875 22.9452 121.141 22.9452H121.14Z" fill="black"/>
<path fill-rule="evenodd" clip-rule="evenodd" d="M95.016 41.129C95.781 41.129 96.551 41.152 97.316 41.121C97.816 41.101 97.976 41.277 97.969 41.781C97.941 43.195 97.989 44.609 97.945 46.023C97.922 46.664 98.078 46.898 98.765 46.871C100.148 46.816 101.535 46.875 102.918 46.848C103.453 46.836 103.73 46.941 103.715 47.563C103.682 49.0951 103.681 50.6278 103.711 52.16C103.723 52.715 103.511 52.86 102.984 52.852C101.57 52.82 100.156 52.867 98.742 52.828C98.141 52.808 97.922 52.961 97.942 53.602C97.988 55.016 97.934 56.43 97.969 57.844C97.984 58.437 97.839 58.68 97.195 58.66C95.6929 58.6215 94.1902 58.6202 92.688 58.656C92.105 58.672 91.926 58.484 91.941 57.902C91.981 56.43 91.934 54.957 91.965 53.484C91.973 52.984 91.82 52.82 91.316 52.832C89.902 52.859 88.484 52.801 87.074 52.859C86.348 52.887 86.18 52.625 86.195 51.953C86.238 50.57 86.262 49.183 86.191 47.801C86.148 46.984 86.453 46.809 87.203 46.84C88.559 46.898 89.914 46.832 91.27 46.867C91.809 46.883 91.98 46.719 91.965 46.168C91.93 44.758 91.98 43.34 91.941 41.926C91.926 41.328 92.074 41.074 92.715 41.117C93.48 41.168 94.246 41.129 95.015 41.129H95.016ZM31.977 47.543C35.215 47.543 38.457 47.566 41.695 47.523C42.453 47.512 42.648 47.746 42.602 48.465C42.538 49.3752 42.538 50.2887 42.602 51.199C42.656 51.957 42.453 52.203 41.648 52.195C37.348 52.152 33.047 52.172 28.75 52.172C26.57 52.172 24.39 52.141 22.215 52.192C21.453 52.211 21.258 51.957 21.301 51.242C21.359 50.305 21.351 49.355 21.301 48.414C21.266 47.738 21.461 47.516 22.171 47.524C25.438 47.566 28.711 47.543 31.977 47.543Z" fill="black"/>
</svg>
