<svg width="128" height="128" viewBox="0 0 128 128" fill="none" xmlns="http://www.w3.org/2000/svg">
<path fill-rule="evenodd" clip-rule="evenodd" d="M0.299805 66.5002V56.9002C0.499805 56.8002 0.499805 56.6002 0.499805 56.4002C3.4998 43.3002 11.6998 35.4002 24.6998 32.3002C25.7998 32.0002 26.9998 32.1002 28.0998 31.7002H34.4998C34.5998 31.9002 34.8998 31.8002 35.0998 31.8002C41.4998 32.5002 47.2998 34.8002 52.3998 38.8002C56.7998 42.1002 60.1998 46.3002 63.2998 50.8002C63.6998 51.4002 63.8998 51.4002 64.2998 50.8002C66.0998 48.2002 67.9998 45.7002 70.1998 43.4002C75.4998 37.7002 81.8998 33.7002 89.6998 32.3002C90.7998 32.0002 92.0998 32.1002 93.1998 31.7002H99.3998C99.4998 31.9002 99.6998 31.8002 99.8998 31.8002C101.8 32.0002 103.6 32.4002 105.4 32.9002C118.8 36.8002 128.3 49.1002 127.5 63.0002C126.9 74.7002 121 83.1002 110.7 88.4002C105.6 91.2002 99.9998 91.9002 94.1998 91.8002C86.5998 91.7002 79.9998 89.1002 74.2998 84.1002C70.2998 80.6002 67.1998 76.4002 64.2998 72.0002C63.8998 71.4002 63.6998 71.5002 63.2998 72.1002C61.4998 74.8002 59.5998 77.5002 57.3998 80.1002C53.4998 84.5002 48.9998 88.1002 43.3998 90.0002C36.4998 92.4002 29.4998 92.5002 22.4998 90.6002C12.3998 87.7002 5.4998 81.3002 1.6998 71.5002C1.0998 69.9002 0.799805 68.1002 0.299805 66.5002ZM32.0998 81.2002C37.7998 81.4002 42.6998 79.5002 46.8998 75.6002C51.1998 71.6002 54.2998 66.6002 57.3998 61.7002C57.4998 61.4002 57.4998 61.2002 57.2998 60.9002C54.6998 56.8002 51.9998 52.7002 48.3998 49.3002C41.4998 42.7002 33.3998 40.5002 24.2998 43.4002C16.7998 45.9002 11.9998 51.2002 10.8998 59.2002C9.7998 66.7002 12.6998 72.7002 18.6998 77.2002C22.6998 80.1002 27.1998 81.3002 32.0998 81.2002ZM95.4998 81.2002C97.6998 81.2002 99.8998 81.1002 102 80.5002C109.9 78.1002 115.1 73.2002 116.6 65.0002C118.1 56.9002 115 50.4002 108.2 45.8002C100.7 40.6002 89.7998 41.1002 82.1998 46.8002C77.0998 50.6002 73.6998 55.7002 70.2998 61.0002C70.0998 61.3002 70.1998 61.5002 70.2998 61.8002C72.9998 66.1002 75.6998 70.4002 79.1998 74.1002C83.5998 78.8002 88.8998 81.5002 95.4998 81.2002Z" fill="#00979C"/>
<path fill-rule="evenodd" clip-rule="evenodd" d="M31.9998 58.5C35.1998 58.5 38.4998 58.6 41.6998 58.5C42.4998 58.5 42.5998 58.7 42.5998 59.5C42.4998 60.4 42.4998 61.3 42.5998 62.2C42.6998 63 42.4998 63.2 41.5998 63.2H28.7998C26.5998 63.2 24.3998 63.1 22.1998 63.2C21.4998 63.2 21.2998 63 21.2998 62.2C21.3998 61.3 21.3998 60.4 21.2998 59.4C21.2998 58.7 21.4998 58.5 22.1998 58.5C25.3998 58.6 28.6998 58.5 31.9998 58.5ZM94.9998 52.1C95.7998 52.1 96.5998 52.2 97.2998 52.1C97.7998 52.1 97.9998 52.3 97.9998 52.8C97.8998 54.2 97.9998 55.6 97.8998 57C97.8998 57.7 98.0998 57.9 98.7998 57.9C100.1 57.8 101.5 57.9 102.9 57.8C103.5 57.8 103.7 57.9 103.7 58.6V63.2C103.7 63.7 103.5 63.9 103 63.9C101.6 63.8 100.2 63.9 98.6998 63.8C98.0998 63.8 97.8998 64 97.8998 64.6C97.9998 66 97.8998 67.4 97.9998 68.8C97.9998 69.4 97.7998 69.7 97.1998 69.7C95.6998 69.6 94.1998 69.6 92.6998 69.7C92.0998 69.7 91.8998 69.5 91.8998 68.9C91.9998 67.4 91.8998 66 91.9998 64.5C91.9998 64 91.7998 63.8 91.2998 63.8C89.8998 63.9 88.4998 63.8 87.0998 63.9C86.2998 63.9 86.1998 63.6 86.1998 63C86.1998 61.6 86.2998 60.2 86.1998 58.8C86.0998 58 86.4998 57.8 87.1998 57.8C88.5998 57.9 89.8998 57.8 91.2998 57.9C91.7998 57.9 91.9998 57.7 91.9998 57.2C91.8998 55.8 91.9998 54.3 91.8998 52.9C91.8998 52.3 92.0998 52.1 92.6998 52.1C93.4998 52.2 94.1998 52.1 94.9998 52.1ZM124.852 24.477C124.719 24.676 124.672 24.742 124.629 24.809C124.387 25.172 124.574 25.906 123.965 25.895C123.425 25.883 123.562 25.211 123.371 24.844C123.321 24.746 123.261 24.656 123.094 24.383C123.094 24.887 123.102 25.172 123.094 25.461C123.086 25.656 123.129 25.902 122.82 25.918C122.508 25.934 122.527 25.684 122.523 25.488C122.516 24.808 122.516 24.133 122.52 23.457C122.52 23.227 122.484 22.961 122.844 22.953C123.114 22.949 123.348 22.938 123.461 23.289C123.605 23.719 123.656 24.199 123.988 24.613C124.305 24.211 124.359 23.746 124.48 23.32C124.582 22.973 124.797 22.95 125.078 22.95C125.434 22.953 125.418 23.203 125.422 23.438C125.426 24.118 125.426 24.793 125.418 25.473C125.414 25.664 125.441 25.918 125.137 25.922C124.832 25.922 124.855 25.68 124.852 25.48C124.844 25.191 124.852 24.906 124.852 24.477ZM121.14 22.945C121.227 22.945 121.32 22.93 121.402 22.945C121.727 23.008 122.23 22.758 122.336 23.145C122.48 23.688 121.91 23.415 121.668 23.531C121.426 23.648 121.473 23.863 121.468 24.059C121.457 24.527 121.461 24.996 121.461 25.465C121.461 25.723 121.411 25.938 121.078 25.925C120.773 25.915 120.785 25.691 120.785 25.488C120.776 25.0494 120.774 24.6107 120.781 24.172C120.793 23.797 120.797 23.445 120.258 23.496C120.07 23.512 119.906 23.457 119.906 23.219C119.906 22.891 120.16 22.957 120.348 22.949C120.613 22.937 120.875 22.945 121.141 22.945H121.14Z" fill="#00979C"/>
</svg>
