<svg width="128" height="128" viewBox="0 0 128 128" fill="none" xmlns="http://www.w3.org/2000/svg">
<path d="M73.2809 94.3867C68.4059 93.1797 63.4449 95.1757 60.8789 99.3707C59.6466 101.401 59.0968 103.772 59.3098 106.138C59.5229 108.503 60.4877 110.738 62.0629 112.516C65.4799 116.316 70.6479 117.363 75.2849 115.196C75.7299 114.988 76.1089 114.527 76.6909 114.726C76.8159 117.117 76.4999 118.43 75.4769 119.766C72.6909 123.414 67.5469 123.039 64.9259 118.992C63.8979 117.402 62.7259 116.972 61.4099 117.699C60.0199 118.477 59.7579 119.844 60.7189 121.508C62.0461 123.835 64.1618 125.611 66.6839 126.516C67.1369 126.684 67.0779 126.684 67.7699 126.946C68.5589 127.254 70.9919 127.332 72.1209 127.125C72.6095 127.023 73.0901 126.886 73.5589 126.715C78.2579 125.312 81.5549 121.172 81.6679 116.265C81.7539 112.434 81.7699 108.602 81.6599 104.77C81.5727 102.366 80.7092 100.055 79.1987 98.1835C77.6881 96.3117 75.6119 94.9796 73.2809 94.3867ZM64.1449 105.176C64.1301 103.929 64.4855 102.706 65.1661 101.661C65.8466 100.617 66.8218 99.7976 67.9681 99.3074C69.1145 98.8173 70.3805 98.6782 71.6059 98.9078C72.8313 99.1374 73.9611 99.7254 74.8522 100.597C75.7433 101.469 76.3557 102.586 76.612 103.806C76.8682 105.026 76.7567 106.295 76.2916 107.452C75.8265 108.608 75.0286 109.601 73.9991 110.304C72.9696 111.007 71.7546 111.389 70.5079 111.402C69.6809 111.413 68.86 111.26 68.0923 110.952C67.3247 110.644 66.6254 110.188 66.0349 109.609C65.4434 109.031 64.9719 108.342 64.6475 107.581C64.3232 106.82 64.1524 106.003 64.1449 105.176ZM105.527 101.867C103.84 96.6447 98.6409 93.3237 93.3169 94.1087C87.7809 94.9217 83.7029 99.4997 83.6019 105.008C83.5119 110.406 87.3979 115.09 92.8399 116.133C98.1169 117.148 103.516 114.039 105.39 108.93C105.574 108.418 106.02 107.332 106.074 106.543C106.172 105.458 106.125 104.365 105.934 103.293C105.823 102.811 105.688 102.335 105.527 101.867ZM94.7699 111.402C93.1169 111.38 91.5403 110.702 90.3869 109.518C89.2334 108.334 88.5976 106.74 88.6194 105.087C88.6411 103.434 89.3186 101.858 90.5028 100.704C91.687 99.5507 93.2809 98.915 94.9339 98.9367C96.5796 98.948 98.1542 99.6093 99.3146 100.776C100.475 101.944 101.127 103.522 101.129 105.168C101.122 105.995 100.952 106.813 100.628 107.574C100.304 108.336 99.8331 109.026 99.2419 109.605C98.6519 110.184 97.953 110.642 97.1854 110.95C96.4179 111.258 95.597 111.412 94.7699 111.402ZM44.0549 102.785C42.5849 96.3047 36.2459 92.6477 29.9609 94.6167C23.6479 96.5967 20.3789 103.449 22.8669 109.492C25.2699 115.344 32.5509 118.023 38.2849 115.16C38.9609 114.82 39.4689 114.328 40.1209 115.344C40.6989 116.234 41.7029 116.527 42.7929 116.086C43.8549 115.656 44.3159 114.852 44.3089 113.738C44.3009 112.148 44.3089 110.558 44.3089 108.563C44.2069 106.903 44.5159 104.82 44.0549 102.785ZM33.2029 111.402C29.6249 111.355 26.8129 108.57 26.9139 105.168C27.0079 101.789 29.9539 98.9527 33.3549 98.9677C36.7809 98.9837 39.4999 101.859 39.4529 105.406C39.4139 108.898 36.7579 111.449 33.2029 111.402Z" fill="black"/>
<path d="M59.98 96.2969C59.86 94.6909 58.508 93.8709 56.41 94.1019C53.991 94.3434 51.7163 95.3653 49.9292 97.0134C48.1422 98.6615 46.94 100.846 46.504 103.238C46.137 105.16 46.418 107.118 46.336 108.73C46.336 110.465 46.328 111.879 46.336 113.293C46.352 115.234 47.211 116.309 48.746 116.324C50.281 116.348 51.219 115.258 51.242 113.348C51.266 110.645 51.219 107.934 51.258 105.23C51.305 101.852 53.645 99.1639 56.984 99.0229C58.969 98.9409 60.082 97.6249 59.98 96.2969Z" fill="#010101"/>
<path d="M65.5269 1.31252C67.0893 1.44526 68.6428 1.66696 70.1799 1.97652C76.1869 3.35152 81.3439 6.31952 85.8599 10.4405C90.0159 14.2375 92.7229 18.9335 94.2189 24.3355C94.5389 25.4835 94.9919 26.3395 96.3159 26.5695C97.0509 26.6945 97.1679 27.4445 97.1719 28.1095C97.1839 30.4215 97.1799 32.7375 97.1799 35.0495C97.1799 36.4955 97.1759 37.9405 97.1719 39.3865C97.1679 40.6565 96.7579 41.0965 95.5079 41.0775C94.7499 41.0655 94.4569 41.5075 94.2699 42.1245C93.75 43.8753 93.0902 45.5815 92.2969 47.2265C89.3709 53.2465 84.8399 57.7375 79.0969 61.0775C78.8199 61.2375 78.5429 61.3945 78.2619 61.5465C77.3589 62.0385 77.3399 62.0695 77.7069 63.0305C77.909 63.5589 78.228 64.0348 78.64 64.4225C79.0519 64.8103 79.5463 65.0998 80.0859 65.2695C81.0459 65.6165 82.0629 65.7495 83.0429 66.0225C83.3429 66.0815 83.6329 66.1945 83.8909 66.3545C83.6559 66.6515 83.3319 66.5975 83.0619 66.6515C81.7729 66.9095 80.5119 67.3085 79.1719 67.2575C78.6416 67.2744 78.1125 67.1975 77.6089 67.0305C77.1989 66.8665 77.0629 67.0075 76.9769 67.4205C76.7809 68.5077 76.6802 69.6099 76.6759 70.7145C76.6209 72.9215 76.4259 75.1165 76.2729 77.3155C76.1249 79.4525 76.2109 79.6475 78.2729 80.3315C79.2809 80.6635 80.2849 80.9995 81.2849 81.3515C81.5349 81.4415 81.8249 81.4915 81.9729 81.7695C81.8319 81.9725 81.6249 81.8975 81.4489 81.8975C79.6879 81.9055 77.9259 81.9135 76.1599 81.8975C74.2849 81.8825 73.2729 80.8905 73.1369 79.0275C72.9369 76.2965 72.7069 73.5695 72.4879 70.8435C72.4616 70.6989 72.4293 70.5554 72.3909 70.4135C72.1089 72.0425 72.1609 73.5585 72.0939 75.0615C72.0079 76.9485 72.0629 78.8435 72.0659 80.7295C72.0659 81.6945 72.3749 82.1165 73.2659 82.4565C74.5509 82.9445 75.8119 83.5155 77.2539 83.3945C77.7579 83.3545 78.2379 83.6165 78.6949 83.8585C78.8049 83.9175 78.9529 83.9765 78.9409 84.1165C78.9259 84.2725 78.7609 84.2845 78.6409 84.2845C76.2849 84.2105 73.9259 84.5115 71.5779 84.1795C70.4259 84.0195 69.6719 83.3355 69.3199 82.2065C68.9799 81.1205 68.9139 79.9965 68.8319 78.8745C68.6679 76.6325 68.5509 74.3905 68.4139 72.1445C68.4234 72.0334 68.4092 71.9216 68.3721 71.8164C68.335 71.7112 68.276 71.6151 68.1989 71.5345C68.0819 71.7455 68.0389 71.9875 68.0859 72.2265C68.0819 75.6445 68.0779 79.0615 68.0819 82.4835C68.0819 83.8745 68.5229 84.5425 69.8519 85.0195C71.5699 85.6325 73.3439 86.0855 75.1129 86.5345C75.5079 86.6325 75.9179 86.7025 75.9799 87.2185H69.3519C69.1639 87.1835 68.9799 87.1405 68.7929 87.1125C66.2809 86.7525 65.2109 85.7805 64.7029 83.3825C64.6209 82.9875 64.5429 82.5925 64.4649 82.1985L63.6559 78.2495C63.4057 78.6778 63.2299 79.1455 63.1359 79.6325C62.8399 81.0625 62.5979 82.5025 62.2699 83.9255C61.8629 85.6905 60.6759 86.6595 58.9339 86.9955L57.7539 87.2185H51.1249C51.3319 86.6045 51.8979 86.5585 52.3979 86.4255C54.0979 85.9725 55.8319 85.6285 57.4729 84.9645C57.8636 84.8223 58.2051 84.5707 58.4565 84.2396C58.708 83.9085 58.8588 83.512 58.8909 83.0975C59.0979 81.5425 58.8979 80.0035 58.8439 78.4605C58.7897 78.0754 58.6952 77.6969 58.5619 77.3315C58.4126 77.5517 58.3252 77.808 58.3089 78.0735C58.2149 79.1325 58.1329 80.1875 58.0389 81.2455C57.9059 82.7925 57.0619 83.8085 55.6089 84.1445C55.176 84.2459 54.7335 84.3009 54.2889 84.3085C52.2929 84.3155 50.2969 84.3005 48.3009 84.2885C48.1249 84.2885 47.9059 84.3585 47.7699 84.0585C48.4064 83.685 49.1171 83.4556 49.8519 83.3865C50.9903 83.2501 52.1152 83.0186 53.2149 82.6945C54.7149 82.2885 55.0819 81.8045 55.0429 80.2375C54.9609 76.9055 54.7189 73.5775 54.8009 70.2455C54.8159 69.5895 54.8009 68.9295 54.8009 68.2725C54.7056 68.7272 54.6455 69.1886 54.6209 69.6525C54.5109 72.7885 54.2699 75.9175 53.9569 79.0425C53.7699 80.8785 52.8979 81.7185 51.0779 81.9255C49.4839 82.1055 47.8979 81.9295 46.3119 81.8475C45.9259 81.8275 45.4719 81.8945 45.1019 81.6205C45.2539 81.3865 45.4769 81.3745 45.6719 81.3125C46.9649 80.8975 48.2659 80.5075 49.5549 80.0815C50.4379 79.7885 50.8129 79.2375 50.8279 78.3155C50.8376 78.0395 50.8336 77.7632 50.8159 77.4875C50.6169 74.9255 50.5229 72.3625 50.4409 69.7965C50.4247 69.2233 50.383 68.6511 50.3159 68.0815C50.2299 67.4095 49.8479 67.0545 49.2619 67.1595C47.4529 67.4875 45.7149 67.1395 43.9879 66.6635C43.7779 66.6045 43.5119 66.6365 43.3519 66.3515C43.6728 66.1895 44.0169 66.0786 44.3719 66.0225C45.2849 65.8395 46.1879 65.5925 47.0659 65.2805C47.6189 65.0839 48.1253 64.7753 48.5536 64.374C48.9818 63.9728 49.3227 63.4875 49.5549 62.9485C49.8749 62.2225 49.7539 61.8155 49.1519 61.5265C44.0779 59.0815 40.1599 55.3355 37.0159 50.7265C35.1991 48.0506 33.8405 45.0908 32.9959 41.9685C32.7539 41.0855 32.4369 40.8945 31.6249 41.0345C30.5269 41.2295 30.1909 41.0585 29.7109 40.0585V27.5695C30.2229 26.4795 30.4449 26.3475 31.6209 26.3895C32.4609 26.4215 32.5039 26.3705 32.7269 25.5195C34.1449 20.1245 36.5969 15.2805 40.4999 11.2495C45.1909 6.39452 51.0039 3.56952 57.5039 2.03952C59.1409 1.65152 60.8039 1.49952 62.4689 1.31152L65.5269 1.31252ZM94.0699 33.3395C94.085 32.2183 94.0275 31.0973 93.8979 29.9835C93.8097 29.203 93.69 28.4264 93.5389 27.6555C91.4019 17.0505 85.1519 9.68752 75.4609 5.22252C69.9019 2.65952 63.9729 2.22952 58.0039 3.39452C46.3749 5.65552 38.6879 12.6365 34.5979 23.6245C33.0349 27.8245 32.8239 32.2345 33.2729 36.6875C33.5859 40.0327 34.4878 43.2963 35.9369 46.3275C38.0309 50.6755 41.1049 54.2295 44.8089 57.2775C46.0306 58.3012 47.377 59.166 48.8159 59.8515C49.6559 60.2495 49.6989 60.2265 49.6959 59.3275C49.7189 58.7535 49.7069 58.1835 49.6599 57.6085C49.2149 53.9605 49.1519 50.2885 49.0589 46.6205C49.071 46.3705 49.0163 46.1217 48.9003 45.8999C48.7843 45.6781 48.6112 45.4912 48.3989 45.3585C47.0229 44.4015 45.8439 43.2385 45.1019 41.7145C43.4059 38.2415 43.7699 33.2615 48.0119 30.2065C48.4999 29.8545 48.7889 29.5225 48.7189 28.8705C48.69 28.3405 48.7279 27.809 48.8319 27.2885C49.4649 23.0385 51.5079 19.6365 54.9919 17.1205C57.4339 15.3625 60.1559 14.3585 63.1759 14.3205C64.9059 14.3005 66.5899 14.7145 68.2419 15.1945C73.9959 16.8705 78.4299 22.6085 78.4219 28.4295C78.3719 29.2265 78.7299 29.9915 79.3789 30.4525C81.0389 31.7805 82.3199 33.4255 82.7579 35.5585C83.5429 39.4135 82.4609 42.6515 79.2539 44.9885C78.3009 45.6785 78.0119 46.4375 78.0589 47.4835C78.0659 47.6515 78.0629 47.8235 78.0549 47.9915L77.8319 53.1445C77.7419 55.2375 77.3399 57.3155 77.4139 59.4215C77.4409 60.2185 77.4339 60.2295 78.1329 59.8785C81.4276 58.2227 84.3441 55.9031 86.6989 53.0655C91.4259 47.4215 94.1249 40.9995 94.0699 33.3395ZM53.1249 44.6325C54.3485 44.65 55.5549 44.3431 56.6213 43.743C57.6877 43.1428 58.5761 42.2709 59.1961 41.2159C59.8161 40.161 60.1456 38.9606 60.151 37.7369C60.1564 36.5132 59.8376 35.31 59.2269 34.2495C58.616 33.1896 57.7353 32.3103 56.6744 31.701C55.6136 31.0918 54.4103 30.7742 53.1869 30.7805C49.2699 30.7655 46.1909 33.7185 46.1799 37.5105C46.1639 41.6205 49.0859 44.6165 53.1249 44.6325ZM73.8629 44.6325C77.8089 44.6405 80.7929 41.6825 80.7929 37.7695C80.7929 33.8625 77.7659 30.7925 73.9219 30.7995C70.1129 30.8085 66.9769 33.8975 66.9649 37.6555C66.9569 41.6085 69.9369 44.6285 73.8629 44.6325ZM68.5979 51.5655C67.8519 52.0225 67.1409 52.5545 66.3439 52.9365C64.4259 53.8585 62.5389 53.8585 60.6879 52.7655C60.1249 52.4295 59.5859 52.0455 59.0279 51.7025C58.8589 51.5975 58.6989 51.3315 58.4879 51.4765C58.3319 51.5895 58.4569 51.8315 58.4879 52.0195C58.6209 52.6635 58.7179 53.3115 58.7809 53.9645C58.8789 55.9875 59.8319 57.5145 61.4409 58.6555C62.2419 59.2725 63.2729 59.5155 64.2699 59.3195C66.2929 58.8975 67.9379 57.1205 68.2929 54.9595C68.4489 54.0075 68.3089 53.0155 68.6829 52.0855C68.7221 52.0002 68.7349 51.9052 68.7197 51.8126C68.7046 51.7199 68.6622 51.6339 68.5979 51.5655Z" fill="black"/>
<path d="M37.1678 33.9534C37.1248 30.0084 37.6798 26.5984 39.1018 23.3554C41.3668 18.1914 44.9798 14.2154 49.7698 11.2774C50.031 11.1296 50.3338 11.0729 50.6308 11.1162C50.9277 11.1595 51.2017 11.3003 51.4098 11.5164C51.6288 11.7304 51.5398 11.9374 51.4498 12.1564C51.0943 12.9371 50.4892 13.5774 49.7298 13.9764C45.8668 16.2664 43.1838 19.6024 41.2968 23.6024C39.6947 26.9297 38.9341 30.5995 39.0818 34.2894C39.2818 38.9734 40.6518 43.2974 43.4218 47.1334C43.7378 47.5084 43.9528 47.9574 44.0428 48.4374C44.0778 48.7274 44.2498 49.0394 43.9328 49.2544C43.6328 49.4734 43.2458 49.5274 42.8978 49.4024C42.5581 49.2713 42.2665 49.0397 42.0618 48.7384C39.4838 45.2384 37.7888 41.3834 37.3008 37.0234C37.1678 35.8554 37.2808 34.6874 37.1678 33.9534ZM52.4918 9.68844C52.4878 9.5087 52.52 9.32998 52.5866 9.16297C52.6531 8.99596 52.7527 8.84407 52.8792 8.71638C53.0058 8.58869 53.1568 8.48782 53.3232 8.41979C53.4896 8.35177 53.6681 8.31797 53.8478 8.32044C54.6048 8.32444 55.3128 9.12944 55.3358 10.0164C55.3478 10.5084 54.2298 11.4104 53.6288 11.3954C52.9568 11.3754 52.4918 10.6804 52.4918 9.68844ZM50.8278 36.4654C50.8078 35.8871 51.0178 35.3243 51.4117 34.9004C51.8057 34.4764 52.3515 34.2258 52.9298 34.2034C54.2898 34.1954 55.3278 35.1724 55.3438 36.4694C55.3548 37.7424 54.3748 38.6954 53.0538 38.6914C51.6908 38.6874 50.8318 37.8284 50.8278 36.4654ZM74.0818 38.6914C72.7148 38.6844 71.8438 37.7814 71.8588 36.3834C71.8749 35.8168 72.103 35.2769 72.4979 34.8703C72.8928 34.4637 73.4259 34.22 73.9918 34.1874C74.3003 34.1808 74.607 34.2351 74.8945 34.3472C75.1819 34.4594 75.4444 34.6271 75.6669 34.8409C75.8894 35.0546 76.0675 35.3102 76.191 35.5929C76.3146 35.8756 76.3811 36.18 76.3868 36.4884C76.3908 37.7544 75.3978 38.6994 74.0818 38.6914Z" fill="black"/>
</svg>
