<svg width="128" height="128" viewBox="0 0 128 128" fill="none" xmlns="http://www.w3.org/2000/svg">
<path d="M73.2809 94.3867C68.4059 93.1797 63.4449 95.1757 60.8789 99.3707C59.6466 101.401 59.0968 103.772 59.3098 106.138C59.5229 108.503 60.4877 110.738 62.0629 112.516C65.4799 116.316 70.6479 117.363 75.2849 115.196C75.7299 114.988 76.1089 114.527 76.6909 114.726C76.8159 117.117 76.4999 118.43 75.4769 119.766C72.6909 123.414 67.5469 123.039 64.9259 118.992C63.8979 117.402 62.7259 116.972 61.4099 117.699C60.0199 118.477 59.7579 119.844 60.7189 121.508C62.0461 123.835 64.1618 125.611 66.6839 126.516C67.1369 126.684 67.0779 126.684 67.7699 126.946C68.5589 127.254 70.9919 127.332 72.1209 127.125C72.6095 127.023 73.0901 126.886 73.5589 126.715C78.2579 125.312 81.5549 121.172 81.6679 116.265C81.7539 112.434 81.7699 108.602 81.6599 104.77C81.5727 102.366 80.7092 100.055 79.1987 98.1835C77.6881 96.3117 75.6119 94.9796 73.2809 94.3867ZM64.1449 105.176C64.1301 103.929 64.4855 102.706 65.1661 101.661C65.8466 100.617 66.8218 99.7976 67.9681 99.3074C69.1145 98.8173 70.3805 98.6782 71.6059 98.9078C72.8313 99.1374 73.9611 99.7254 74.8522 100.597C75.7433 101.469 76.3557 102.586 76.612 103.806C76.8682 105.026 76.7567 106.295 76.2916 107.452C75.8265 108.608 75.0286 109.601 73.9991 110.304C72.9696 111.007 71.7546 111.389 70.5079 111.402C69.6809 111.413 68.86 111.26 68.0923 110.952C67.3247 110.644 66.6254 110.188 66.0349 109.609C65.4434 109.031 64.9719 108.342 64.6475 107.581C64.3232 106.82 64.1524 106.003 64.1449 105.176ZM105.527 101.867C103.84 96.6447 98.6409 93.3237 93.3169 94.1087C87.7809 94.9217 83.7029 99.4997 83.6019 105.008C83.5119 110.406 87.3979 115.09 92.8399 116.133C98.1169 117.148 103.516 114.039 105.39 108.93C105.574 108.418 106.02 107.332 106.074 106.543C106.172 105.458 106.125 104.365 105.934 103.293C105.823 102.811 105.688 102.335 105.527 101.867ZM94.7699 111.402C93.1169 111.38 91.5403 110.702 90.3869 109.518C89.2334 108.334 88.5976 106.74 88.6194 105.087C88.6411 103.434 89.3186 101.858 90.5028 100.704C91.687 99.5507 93.2809 98.915 94.9339 98.9367C96.5796 98.948 98.1542 99.6093 99.3146 100.776C100.475 101.944 101.127 103.522 101.129 105.168C101.122 105.995 100.952 106.813 100.628 107.574C100.304 108.336 99.8331 109.026 99.2419 109.605C98.6519 110.184 97.953 110.642 97.1854 110.95C96.4179 111.258 95.597 111.412 94.7699 111.402ZM44.0549 102.785C42.5849 96.3047 36.2459 92.6477 29.9609 94.6167C23.6479 96.5967 20.3789 103.449 22.8669 109.492C25.2699 115.344 32.5509 118.023 38.2849 115.16C38.9609 114.82 39.4689 114.328 40.1209 115.344C40.6989 116.234 41.7029 116.527 42.7929 116.086C43.8549 115.656 44.3159 114.852 44.3089 113.738C44.3009 112.148 44.3089 110.558 44.3089 108.563C44.2069 106.903 44.5159 104.82 44.0549 102.785ZM33.2029 111.402C29.6249 111.355 26.8129 108.57 26.9139 105.168C27.0079 101.789 29.9539 98.9527 33.3549 98.9677C36.7809 98.9837 39.4999 101.859 39.4529 105.406C39.4139 108.898 36.7579 111.449 33.2029 111.402Z" fill="black"/>
<path d="M59.98 96.2969C59.86 94.6909 58.508 93.8709 56.41 94.1019C53.991 94.3434 51.7163 95.3653 49.9292 97.0134C48.1422 98.6615 46.94 100.846 46.504 103.238C46.137 105.16 46.418 107.118 46.336 108.73C46.336 110.465 46.328 111.879 46.336 113.293C46.352 115.234 47.211 116.309 48.746 116.324C50.281 116.348 51.219 115.258 51.242 113.348C51.266 110.645 51.219 107.934 51.258 105.23C51.305 101.852 53.645 99.1639 56.984 99.0229C58.969 98.9409 60.082 97.6249 59.98 96.2969Z" fill="#010101"/>
<path d="M58.5229 71.2703C58.5309 71.2703 58.5349 71.2903 58.5349 71.3363L58.5589 72.2703C58.6049 72.0273 58.6489 71.7903 58.6989 71.5433C58.6639 71.0903 58.3049 71.3203 58.5229 71.2703ZM78.0939 45.7583C78.0859 45.7663 78.0739 45.7663 78.0659 45.7733C78.0739 45.7813 78.0859 45.7893 78.0939 45.7933C78.0859 45.7893 78.0939 45.7733 78.0939 45.7583ZM65.7659 14.4453V14.4493H65.7889C65.7809 14.4493 65.7729 14.4453 65.7659 14.4453Z" fill="#FEFEFE"/>
<path d="M76.2462 77.3318C76.3442 76.2498 76.2892 75.1558 76.4262 74.0818C76.7232 71.7148 76.4372 69.3008 77.0592 66.9648C77.3632 65.7538 76.3872 64.3398 77.6412 63.2768L77.3282 62.2498C76.9772 61.6678 77.1562 61.1018 77.3632 60.5348C77.3402 58.4608 77.3632 56.3868 77.7382 54.3348C77.8482 51.4848 77.9682 48.6368 78.0822 45.7808C78.0742 45.7728 78.0592 45.7658 78.0512 45.7578C71.9572 48.5548 66.2112 44.6368 65.2342 39.9378C64.5942 36.8518 64.9382 33.9338 67.3482 31.5778C67.7502 31.1838 68.0942 30.7268 68.4652 30.2928C69.4492 24.3948 68.7622 18.9798 63.7232 14.7578C64.4732 14.3238 65.1532 14.5698 65.7662 14.4568V14.4488C59.5822 12.8988 52.0782 17.1288 49.5942 23.5888C48.821 25.4976 48.4716 27.5517 48.5702 29.6088C54.7032 26.7658 60.2002 30.1598 61.7152 35.3288C63.2892 40.7068 59.0982 46.3988 53.5232 46.4798C51.9277 46.4883 50.3404 46.2526 48.8162 45.7808C48.9302 48.7498 49.0432 51.7188 49.1602 54.6878C49.3752 56.6328 49.6102 58.5738 49.5122 60.5348C49.5272 60.9958 49.5392 61.4608 49.5552 61.9218C49.5392 62.2268 49.5272 62.5348 49.5122 62.8478C49.9652 64.7108 50.0622 66.6278 50.2032 68.5388C50.1908 68.4902 50.1818 68.4407 50.1762 68.3908C50.1842 68.4408 50.1992 68.4838 50.2032 68.5388C50.3552 71.7808 50.4452 75.0348 50.6762 78.2808C50.7732 79.6208 50.2862 80.2928 49.0462 80.6368C47.5862 81.0468 46.1482 81.5388 44.6992 82.0038C46.6092 82.2418 48.5352 82.3278 50.4572 82.2538C52.5232 82.2108 53.4652 81.2928 53.6642 79.2418C53.7932 77.9368 53.9062 76.6318 54.0242 75.3238C54.1602 72.9608 54.2932 70.5898 54.4262 68.2268H54.7192V74.9768C54.7542 75.9968 54.7692 77.0268 54.8362 78.0468C55.1362 82.8168 55.2772 82.7848 50.5272 83.7468C50.4177 83.7817 50.3119 83.8273 50.2112 83.8828C50.4962 84.0658 50.7772 84.2528 51.0632 84.4488C51.1062 84.4558 51.1472 84.4719 51.1834 84.4961C51.2196 84.5202 51.2502 84.5518 51.2732 84.5888C52.4062 84.5978 53.5472 84.6948 54.6642 84.5888C56.7042 84.3988 57.6642 83.3088 57.8122 81.2848C57.9022 79.9878 58.0352 78.6908 58.1482 77.3908C57.9682 75.6678 58.2302 73.9768 58.5512 72.2808C58.5432 71.9688 58.5352 71.6638 58.5312 71.3508C58.5312 71.3048 58.5162 71.2768 58.5162 71.2808C58.2962 71.3358 58.6562 71.1048 58.6962 71.5588C58.7302 71.3588 58.7772 71.1558 58.8132 70.9528V78.7728C58.8362 79.6908 58.8632 80.6018 58.8792 81.5158C58.9182 84.8358 58.7072 85.1358 55.5472 86.0818C54.6722 86.3438 53.7622 86.4998 52.8982 86.7888C52.2702 87.0078 51.4732 86.8868 50.8832 87.6248C53.4572 87.5308 55.8672 87.8198 58.2622 87.4338C60.7382 87.0308 61.7222 86.0308 62.2302 83.6138C62.6022 81.8398 62.7582 80.0118 63.4382 78.2108C63.5162 78.3358 63.5782 78.4648 63.6332 78.6008C63.9772 80.2768 64.3162 81.9648 64.6452 83.6448C65.1092 85.9918 66.0632 86.9918 68.4492 87.4098C70.9182 87.8358 73.4182 87.5428 75.9772 87.6048C75.6092 86.9768 75.0352 87.0818 74.5742 86.9488C72.9842 86.4838 71.3672 86.0888 69.8092 85.5508C68.6762 85.1558 67.8592 84.4338 67.8752 83.0388C67.9152 79.2188 67.8912 75.4018 67.8912 71.5818H68.3512C68.5162 73.9768 68.7112 76.3628 68.8402 78.7578C69.1292 84.2928 69.7852 84.8948 75.3442 84.5898C75.6562 84.0658 76.4262 84.4798 76.7142 83.9178C75.3792 83.9098 74.2142 83.2698 72.9922 82.8588C72.6631 82.7449 72.3809 82.5253 72.1895 82.2343C71.9982 81.9433 71.9084 81.5971 71.9342 81.2498C71.9922 77.3238 71.8442 73.3868 72.3752 69.4768C72.6952 72.7618 72.9492 76.0508 73.2032 79.3318C73.3202 80.8668 74.0162 82.0698 75.6252 82.1718C77.8052 82.3238 79.9882 82.2108 82.1752 82.2108C81.0394 81.6836 79.8625 81.2498 78.6562 80.9138C75.9842 80.0538 76.0002 80.0468 76.2462 77.3318ZM59.4462 21.3668C59.4418 21.8919 59.2312 22.3942 58.8599 22.7655C58.4886 23.1368 57.9863 23.3474 57.4612 23.3518C56.2932 23.3718 55.4112 22.6988 55.3912 21.1798C55.5162 20.0738 56.1372 19.3198 57.4492 19.2928C58.8442 19.2698 59.4692 20.2108 59.4452 21.3668H59.4462ZM68.4142 53.9918C68.4222 57.0118 66.1092 59.6478 63.4692 59.6408C60.9772 59.6328 58.4342 56.6908 58.5232 53.9178C58.3872 53.0978 58.2462 52.2698 58.0592 51.1208C59.8442 52.3358 61.3392 53.5818 63.3482 53.6288C65.3982 53.6638 67.0122 52.6128 68.6882 51.3828C69.0472 52.3668 68.1452 53.1328 68.4142 53.9928V53.9918Z" fill="#FE733E"/>
<path d="M49.5202 60.5272C49.3712 60.4732 49.2272 60.4072 49.0862 60.3552C47.0432 59.5202 45.2732 58.2382 43.6332 56.8132C37.7112 51.6952 33.8012 45.2892 32.8552 37.5162C31.7812 28.6842 33.7582 20.5312 39.6482 13.5272C45.0282 7.14121 51.8832 3.41821 60.0662 2.56321C69.1602 1.61321 77.3282 4.15621 84.2032 10.4372C89.9412 15.6762 93.2892 22.1642 94.1482 29.7932C94.8782 36.2932 93.7072 42.5742 90.3682 48.2772C87.3282 53.4612 83.2852 57.6682 77.8202 60.3322C77.6682 60.4062 77.5202 60.4802 77.3712 60.5512C77.1642 61.1172 76.9772 61.6842 77.3362 62.2662C77.4492 62.1412 77.5822 62.0272 77.7232 61.9302C85.9802 57.5592 91.7072 51.0632 94.3872 42.0202C94.6172 41.2542 94.9772 40.8712 95.8322 40.9602C96.9962 41.0822 97.3092 40.3052 97.3092 39.3362C97.3162 35.6132 97.3202 31.8952 97.3162 28.1762C97.3162 27.3792 97.1252 26.4962 96.2962 26.4062C94.7732 26.2302 94.5862 25.1172 94.2812 24.0362C92.4922 17.7422 89.0472 12.5042 83.9302 8.48421C73.4102 0.227209 61.8632 -1.26579 49.7502 4.31321C40.7462 8.45321 35.0122 15.6372 32.4142 25.2502C32.2502 25.8482 32.3242 26.5592 31.3092 26.3482C29.8632 26.0512 29.3202 26.9022 29.3122 28.1842C29.2892 31.9062 29.3052 35.6212 29.3052 39.3442C29.3052 40.5822 29.9302 41.2382 31.1252 40.9452C32.2192 40.6752 32.4802 41.2232 32.7072 42.0592C33.6763 45.5953 35.2978 48.919 37.4882 51.8592C40.6952 56.2072 44.6022 59.6992 49.5702 61.9222C49.5552 61.4612 49.5402 60.9882 49.5202 60.5272Z" fill="#B5D2F3"/>
<path d="M49.5269 62.8398C48.4219 65.9338 45.4839 65.8598 42.9839 66.6368C44.8639 67.1208 46.7739 67.6798 48.6519 67.3588C49.7729 67.1638 49.9879 67.5658 50.1519 68.2298C50.1679 68.2848 50.1759 68.3358 50.1919 68.3898C50.1989 68.4338 50.2109 68.4838 50.2189 68.5398C50.0789 66.6208 49.9799 64.7098 49.5269 62.8398Z" fill="#FE684B"/>
<path d="M77.0591 66.9732C79.4451 68.0552 81.6991 66.9652 84.0041 66.6532C81.7501 65.6952 78.8321 66.1872 77.6481 63.2852C76.3871 64.3482 77.3631 65.7622 77.0581 66.9732H77.0591Z" fill="#FE6446"/>
<path d="M47.4302 84.5743H51.2772C51.2112 84.5313 51.1372 84.4843 51.0702 84.4343C50.7852 84.2463 50.5042 84.0633 50.2192 83.8673C49.3752 83.8203 48.5862 84.0073 47.4292 84.5743H47.4302ZM75.3442 84.5743H79.0862C78.3282 84.1373 77.5822 83.7623 76.7152 83.9023C76.4252 84.4723 75.6482 84.0553 75.3442 84.5743Z" fill="#FE733E"/>
<path d="M77.8281 60.3238C83.2931 57.6678 87.3281 53.4608 90.3711 48.2698C93.7151 42.5658 94.8871 36.2848 94.1561 29.7898C93.2961 22.1478 89.9571 15.6598 84.2111 10.4298C77.3361 4.15581 69.1681 1.60481 60.0741 2.56281C51.8981 3.40981 45.0351 7.14081 39.6561 13.5268C33.7581 20.5308 31.7891 28.6838 32.8631 37.5158C33.8091 45.2958 37.7191 51.6958 43.6411 56.8128C45.2891 58.2378 47.0591 59.5268 49.0941 60.3548C49.2341 60.4148 49.3751 60.4728 49.5271 60.5268C49.6211 58.5668 49.3911 56.6248 49.1761 54.6798L48.7261 54.3598C47.2151 53.2618 45.9141 51.9098 44.6091 50.5818C44.2151 50.1798 43.7231 49.8358 43.7231 49.1798C42.8431 49.8158 42.2071 49.3748 41.6951 48.6758C38.8281 44.7658 37.0981 40.4298 36.8671 35.5548C36.6601 31.2418 37.0471 27.0508 38.8591 23.0148C41.1641 17.8908 44.7071 13.9728 49.4651 11.0618C50.2731 10.5698 50.7351 11.0118 51.2931 11.3788C51.5589 11.3672 51.8194 11.3 52.0576 11.1815C52.2958 11.063 52.5065 10.8958 52.6761 10.6908L52.6061 10.5348C52.1291 9.52681 52.1061 8.38681 53.2541 8.11681C54.4101 7.84381 55.0661 8.78081 55.0741 9.99681C63.7071 7.16381 71.7301 8.31281 78.9771 13.8398C84.3911 17.9728 87.4921 23.5158 88.4411 30.2728C89.6641 38.9608 86.7271 46.1678 80.6681 52.2618C79.9529 52.9942 79.1342 53.6178 78.2381 54.1128C78.0826 54.1931 77.9252 54.2698 77.7661 54.3428C77.3951 56.3948 77.3711 58.4688 77.3951 60.5428C77.5271 60.4728 77.6681 60.3978 77.8281 60.3238Z" fill="#E2F5FC"/>
<path d="M80.6519 52.2699C86.7029 46.1759 89.6409 38.9689 88.4259 30.2809C87.4799 23.5159 84.3749 17.9729 78.9609 13.8479C71.7189 8.31992 63.6839 7.17992 55.0629 10.0039C55.0469 10.0119 55.0309 10.0269 55.0159 10.0349C54.3359 10.4689 53.8089 11.3979 52.8319 10.8159C52.7723 10.7833 52.7148 10.7469 52.6599 10.7069C52.3199 11.1209 51.8159 11.3749 51.2769 11.3909C51.2569 11.4809 51.2269 11.5619 51.1949 11.6519C50.5779 13.3909 48.7189 13.8479 47.4769 14.8909C44.0969 17.7189 41.5899 21.1049 40.1129 25.2069C37.7429 31.8169 38.2269 38.2889 41.4029 44.5429C41.9315 45.5563 42.5426 46.5246 43.2299 47.4379C43.6049 47.9339 43.7769 48.5549 43.7069 49.1719V49.1949C43.7069 49.8439 44.1989 50.1949 44.5939 50.5979C45.9099 51.9259 47.1989 53.2779 48.7139 54.3709C48.8639 54.4769 49.0119 54.5899 49.1599 54.6949C49.0469 51.7269 48.9339 48.7579 48.8159 45.7889C48.8089 45.7889 48.8089 45.7809 48.8009 45.7809C46.2229 44.0859 44.3279 41.9209 43.9999 38.6989C43.5899 34.7269 45.2579 31.7849 48.5119 29.6449C48.5269 29.6369 48.5429 29.6209 48.5549 29.6169C48.4559 27.5599 48.805 25.5058 49.5779 23.5969C52.0619 17.1449 59.5659 12.9069 65.7499 14.4569C65.7579 14.4569 65.7659 14.4609 65.7729 14.4649C69.8749 15.1289 73.2459 16.9999 75.6639 20.4409C77.5939 23.1909 78.5939 26.2309 78.3869 29.6169C80.7149 31.3829 82.5939 33.4569 82.8979 36.5229C83.3079 40.6479 81.5469 43.6599 78.0819 45.7659V45.8009C77.9689 48.6519 77.8479 51.4999 77.7379 54.3589C77.8972 54.2872 78.0537 54.2091 78.2069 54.1249C79.113 53.6369 79.9378 53.0111 80.6519 52.2699Z" fill="#CDECF6"/>
<path d="M70.6048 29.2812C73.1648 28.0202 75.6478 28.6992 78.1168 29.5112C78.2068 29.5392 78.3048 29.5712 78.3948 29.6012C78.6018 26.2072 77.6018 23.1712 75.6718 20.4262C73.2538 16.9882 69.8818 15.1132 65.7818 14.4492H65.7578C65.1448 14.5702 64.4678 14.3162 63.7148 14.7502C68.7578 18.9732 69.4488 24.3872 68.4568 30.2852C68.6128 30.2112 68.7618 30.1452 68.9218 30.0702C69.4958 29.8092 70.0548 29.5552 70.6048 29.2812Z" fill="#FE6B3C"/>
<path d="M82.914 36.5159C82.609 33.4489 80.727 31.3749 78.402 29.6089C78.3102 29.5771 78.2179 29.5471 78.125 29.5189C75.648 28.7069 73.172 28.0269 70.613 29.2889C70.063 29.5619 69.496 29.8239 68.933 30.0859C68.777 30.1599 68.629 30.2259 68.473 30.3009C68.102 30.7269 67.758 31.1909 67.355 31.5859C64.937 33.9409 64.602 36.8589 65.242 39.9459C66.219 44.6519 71.965 48.5699 78.066 45.7809C78.074 45.7729 78.086 45.7729 78.094 45.7659C81.563 43.6519 83.332 40.6329 82.914 36.5159ZM73.793 44.7579C72.5483 44.7476 71.3284 44.4091 70.2564 43.7767C69.1843 43.1443 68.298 42.2403 67.687 41.1559C67.0773 40.0714 66.7642 38.8454 66.7793 37.6014C66.7944 36.3573 67.1372 35.1393 67.773 34.0699C68.4097 33.0007 69.3169 32.1182 70.4032 31.5113C71.4896 30.9044 72.7167 30.5945 73.961 30.6129C77.93 30.6449 80.969 33.7699 80.938 37.7849C80.906 41.7649 77.805 44.7969 73.793 44.7579Z" fill="#FE6142"/>
<path d="M48.5199 29.6295C45.2659 31.7695 43.5979 34.7115 44.0079 38.6875C44.3359 41.9105 46.2299 44.0705 48.8079 45.7665C48.8159 45.7665 48.8159 45.7735 48.8239 45.7735C50.3479 46.2465 51.9379 46.4805 53.5309 46.4735C59.0979 46.3915 63.2969 40.7075 61.7229 35.3205C60.2069 30.1525 54.7029 26.7585 48.5779 29.6025C48.5576 29.6092 48.5382 29.6182 48.5199 29.6295ZM52.9649 44.7585C48.8979 44.7735 45.7499 41.6565 45.7649 37.6135C45.7729 33.6455 48.8709 30.5705 52.8589 30.5475C54.1154 30.5241 55.3556 30.8342 56.4532 31.4461C57.5508 32.058 58.4666 32.9498 59.1074 34.0309C59.7481 35.1119 60.091 36.3434 60.1009 37.6C60.1108 38.8566 59.7875 40.0934 59.1639 41.1845C58.5391 42.2755 57.636 43.1812 56.5468 43.8091C55.4575 44.4369 54.2212 44.7646 52.9639 44.7585H52.9649Z" fill="#FE6143"/>
<path d="M59.4598 54.574C59.1868 54.297 58.9838 53.926 58.5228 53.918C58.4328 56.691 60.9688 59.633 63.4688 59.641C66.1168 59.648 68.4218 57.011 68.4138 53.992C67.4138 54.508 66.7808 55.566 65.6288 55.879C63.3388 56.508 61.2388 56.348 59.4608 54.574H59.4598Z" fill="#070909"/>
<path d="M68.6881 51.3831C67.0121 52.6131 65.4061 53.6641 63.3481 53.6291C61.3361 53.5891 59.8441 52.3361 58.0581 51.1211C58.2541 52.2701 58.3871 53.0901 58.5231 53.9181C58.9841 53.9341 59.1871 54.2971 59.4611 54.5741C61.2311 56.3481 63.3401 56.5081 65.6291 55.8791C66.7811 55.5661 67.4141 54.5161 68.4141 53.9921C68.1441 53.1321 69.0471 52.3671 68.6871 51.3821L68.6881 51.3831Z" fill="#FDFCFB"/>
<path d="M57.4501 19.2998C56.1291 19.3198 55.5081 20.0738 55.3901 21.1868C55.4101 22.7068 56.2931 23.3708 57.4601 23.3548C57.9848 23.3517 58.4871 23.1422 58.8585 22.7717C59.23 22.4012 59.4407 21.8994 59.4451 21.3748C59.4691 20.2108 58.8441 19.2698 57.4491 19.3008L57.4501 19.2998Z" fill="#FEA777"/>
<path d="M43.7072 49.168C43.777 48.549 43.6063 47.9267 43.2302 47.43C42.5439 46.5158 41.9326 45.5476 41.4022 44.535C38.2272 38.285 37.7342 31.809 40.1132 25.199C41.5902 21.098 44.0982 17.711 47.4772 14.883C48.7192 13.84 50.5782 13.391 51.1952 11.645C51.2301 11.5616 51.2576 11.4753 51.2772 11.387C50.7192 11.02 50.2572 10.578 49.4532 11.07C44.6912 13.98 41.1482 17.898 38.8432 23.023C37.0312 27.059 36.6452 31.25 36.8522 35.563C37.0902 40.43 38.8162 44.773 41.6802 48.68C42.1952 49.383 42.8362 49.824 43.7072 49.188V49.168Z" fill="#FDFEFE"/>
<path d="M55.0082 10.0349C55.0232 10.0269 55.0392 10.0119 55.0552 10.0039C55.0392 8.78891 54.3912 7.84791 53.2352 8.12491C52.0852 8.40191 52.1052 9.54291 52.5852 10.5429L52.6522 10.6989C52.7072 10.7389 52.7622 10.7769 52.8242 10.8129C53.8012 11.3979 54.3282 10.4609 55.0082 10.0349Z" fill="#FBFDFE"/>
<path d="M80.9378 37.7901C80.9678 33.7851 77.9298 30.6601 73.9608 30.6211C72.7164 30.6018 71.4889 30.9113 70.4024 31.5183C69.3158 32.1253 68.4088 33.0083 67.7728 34.0781C67.1371 35.1476 66.7946 36.3657 66.7797 37.6097C66.7647 38.8538 67.078 40.0797 67.6878 41.1641C68.2988 42.2484 69.1849 43.1523 70.2568 43.7847C71.3286 44.4171 72.5483 44.7556 73.7928 44.7661C77.8048 44.7961 80.9058 41.7661 80.9368 37.7891L80.9378 37.7901ZM74.1408 38.5661C72.8008 38.5901 72.0158 37.8281 71.8948 36.5081C71.8588 35.9021 72.0778 35.3081 72.4998 34.8711C72.7077 34.6547 72.9587 34.4841 73.2365 34.3705C73.5143 34.2568 73.8128 34.2025 74.1128 34.2111C75.4258 34.3091 76.1638 35.0741 76.3198 36.4491C76.1398 37.6721 75.5158 38.5431 74.1398 38.5661H74.1408ZM52.8598 30.5551C51.9277 30.5446 51.0028 30.72 50.1392 31.071C49.2755 31.422 48.4906 31.9417 47.8301 32.5995C47.1696 33.2574 46.6469 34.0403 46.2924 34.9025C45.938 35.7647 45.759 36.6889 45.7658 37.6211C45.7578 41.6641 48.8978 44.7811 52.9648 44.7661C53.8979 44.7592 54.8205 44.5685 55.6799 44.205C56.5394 43.8415 57.3188 43.3122 57.9736 42.6475C58.6285 41.9828 59.1461 41.1956 59.4967 40.3308C59.8474 39.4661 60.0243 38.5407 60.0173 37.6076C60.0104 36.6745 59.8197 35.7519 59.4562 34.8925C59.0926 34.0331 58.5634 33.2537 57.8987 32.5988C57.234 31.9439 56.4467 31.4264 55.582 31.0757C54.7173 30.7251 53.7919 30.5482 52.8588 30.5551H52.8598ZM52.8668 38.5661C51.5388 38.5821 50.7418 37.8201 50.6368 36.4841C50.6213 36.1844 50.6685 35.8848 50.7752 35.6043C50.882 35.3238 51.046 35.0687 51.2568 34.8551C51.4683 34.6413 51.7223 34.4742 52.0023 34.3647C52.2824 34.2551 52.5824 34.2055 52.8828 34.2191C54.1798 34.3291 54.9408 35.0821 55.0628 36.4571C54.8978 37.7151 54.2108 38.5511 52.8668 38.5671V38.5661Z" fill="#FEFEFE"/>
<path d="M74.113 34.2099C73.8126 34.201 73.5137 34.2549 73.2353 34.368C72.9568 34.4811 72.7051 34.6511 72.496 34.8669C72.2875 35.0836 72.1264 35.3414 72.023 35.6237C71.9195 35.906 71.8759 36.2068 71.895 36.5069C72.015 37.8359 72.801 38.5899 74.141 38.5669C75.508 38.5429 76.141 37.6719 76.321 36.4489C76.164 35.0739 75.426 34.3089 74.113 34.2109V34.2099Z" fill="#090B0B"/>
<path d="M52.8832 34.219C52.5829 34.2055 52.2831 34.2551 52.0032 34.3647C51.7233 34.4742 51.4695 34.6412 51.2582 34.855C51.047 35.0685 50.8827 35.3238 50.7758 35.6045C50.6689 35.8851 50.6217 36.185 50.6372 36.485C50.7422 37.82 51.5392 38.582 52.8672 38.566C54.2112 38.551 54.8982 37.715 55.0632 36.457C54.9332 35.074 54.1722 34.324 52.8832 34.219Z" fill="#090C0C"/>
</svg>
