<svg width="128" height="128" viewBox="0 0 128 128" fill="none" xmlns="http://www.w3.org/2000/svg">
<path d="M66.8282 2.13281C69.0822 2.32381 71.3282 2.64781 73.5472 3.09781C82.2272 5.07781 89.6762 9.36781 96.1992 15.3198C102.203 20.7998 106.109 27.5858 108.273 35.3898C108.73 37.0468 109.387 38.2848 111.301 38.6128C112.363 38.7968 112.535 39.8788 112.539 40.8398C112.555 44.1838 112.547 47.5268 112.547 50.8708C112.547 52.9568 112.543 55.0428 112.539 57.1288C112.531 58.9648 111.937 59.6018 110.133 59.5738C109.039 59.5588 108.613 60.1948 108.348 61.0818C107.599 63.612 106.645 66.0771 105.496 68.4528C101.27 77.1528 94.7232 83.6408 86.4262 88.4648C86.0312 88.6948 85.6292 88.9178 85.2232 89.1408C83.9222 89.8508 83.8912 89.8948 84.4222 91.2848C84.7138 92.0478 85.174 92.735 85.7685 93.2952C86.363 93.8554 87.0763 94.274 87.8552 94.5198C89.2462 95.0198 90.7112 95.2098 92.1292 95.6048C92.5622 95.6868 92.9802 95.8518 93.3552 96.0848C93.0122 96.5148 92.5472 96.4378 92.1562 96.5148C90.2962 96.8908 88.4732 97.4648 86.5392 97.3908C85.7719 97.4127 85.0066 97.3013 84.2772 97.0618C83.6872 96.8278 83.4882 97.0268 83.3672 97.6288C83.0844 99.1978 82.9395 100.789 82.9342 102.383C82.8552 105.57 82.5702 108.743 82.3522 111.918C82.1372 115.004 82.2582 115.285 85.2382 116.273C86.6912 116.753 88.1482 117.238 89.5902 117.75C89.9502 117.875 90.3672 117.95 90.5862 118.352C90.3792 118.645 90.0782 118.535 89.8282 118.535C87.2812 118.547 84.7342 118.559 82.1882 118.539C79.4772 118.516 78.0202 117.082 77.8202 114.387C77.5312 110.445 77.2002 106.507 76.8792 102.57C76.8465 102.359 76.8021 102.151 76.7462 101.945C76.3362 104.301 76.4062 106.488 76.3132 108.665C76.1872 111.387 76.2702 114.121 76.2732 116.852C76.2732 118.246 76.7152 118.855 78.0032 119.344C79.8632 120.047 81.6832 120.871 83.7662 120.699C84.4962 120.641 85.1912 121.019 85.8482 121.367C86.0082 121.453 86.2232 121.535 86.2032 121.742C86.1802 121.969 85.9452 121.988 85.7702 121.98C82.3672 121.875 78.9572 122.312 75.5702 121.832C73.9022 121.598 72.8132 120.613 72.3052 118.98C71.8162 117.41 71.7192 115.785 71.6022 114.172C71.3632 110.934 71.1952 107.688 71.0002 104.449C71.0117 104.288 70.9898 104.127 70.936 103.975C70.8821 103.823 70.7974 103.683 70.6872 103.566C70.5162 103.871 70.4572 104.223 70.5232 104.562C70.5162 109.504 70.5162 114.442 70.5202 119.382C70.5202 121.391 71.1522 122.359 73.0742 123.043C75.5592 123.933 78.1172 124.586 80.6722 125.23C81.2422 125.375 81.8362 125.473 81.9262 126.223H72.3522C72.0822 126.172 71.8162 126.109 71.5472 126.07C67.9182 125.55 66.3712 124.14 65.6372 120.68C65.5162 120.11 65.4102 119.54 65.2932 118.973C64.9032 117.07 64.5162 115.168 64.1252 113.266C63.7659 113.885 63.5124 114.559 63.3752 115.262C62.9452 117.328 62.5942 119.41 62.1212 121.465C61.5352 124.012 59.8242 125.41 57.3012 125.898C56.7342 126.008 56.1642 126.113 55.5982 126.223H46.0232C46.3202 125.336 47.1412 125.266 47.8632 125.074C50.3202 124.422 52.8242 123.926 55.1912 122.969C55.7563 122.763 56.2503 122.399 56.614 121.921C56.9777 121.442 57.1958 120.868 57.2422 120.269C57.5432 118.023 57.2502 115.801 57.1722 113.57C57.0975 113.014 56.9627 112.468 56.7702 111.941C56.5524 112.257 56.4251 112.627 56.4022 113.011C56.2662 114.539 56.1482 116.066 56.0162 117.594C55.8162 119.828 54.6062 121.297 52.5042 121.777C51.8783 121.927 51.2378 122.007 50.5942 122.016C47.7112 122.031 44.8282 122.008 41.9412 121.988C41.6912 121.988 41.3792 122.09 41.1802 121.656C42.1001 121.116 43.1267 120.785 44.1882 120.684C45.8317 120.489 47.4558 120.156 49.0432 119.688C51.2112 119.098 51.7382 118.402 51.6832 116.137C51.5662 111.324 51.2192 106.52 51.3322 101.703C51.3552 100.753 51.3362 99.8048 51.3362 98.8548C51.1962 99.5118 51.1092 100.18 51.0742 100.848C50.9182 105.378 50.5662 109.898 50.1142 114.41C49.8482 117.063 48.5822 118.277 45.9612 118.574C43.6522 118.836 41.3672 118.578 39.0742 118.464C38.5122 118.438 37.8642 118.527 37.3202 118.133C37.5432 117.797 37.8672 117.777 38.1482 117.688C40.0162 117.094 41.8982 116.528 43.7582 115.91C45.0312 115.488 45.5742 114.691 45.5982 113.36C45.6052 112.96 45.6092 112.563 45.5782 112.164C45.2892 108.464 45.1522 104.762 45.0392 101.054C45.015 100.227 44.9536 99.4026 44.8552 98.5818C44.7352 97.6088 44.1802 97.0938 43.3322 97.2498C40.7192 97.7188 38.2112 97.2188 35.7192 96.5308C35.4102 96.4448 35.0272 96.4878 34.7972 96.0778C35.2622 95.8478 35.7542 95.6878 36.2662 95.6088C37.5884 95.3394 38.8907 94.9806 40.1642 94.5348C40.9618 94.2494 41.6923 93.8033 42.3105 93.2241C42.9287 92.645 43.4214 91.9451 43.7582 91.1678C44.2152 90.1178 44.0432 89.5278 43.1762 89.1088C35.8482 85.5788 30.1872 80.1678 25.6482 73.5118C23.0237 69.645 21.0597 65.3692 19.8362 60.8588C19.4882 59.5858 19.0312 59.3048 17.8592 59.5118C16.2732 59.7928 15.7852 59.5428 15.0942 58.1018V40.0588C15.8362 38.4918 16.1522 38.2928 17.8522 38.3588C19.0662 38.4058 19.1292 38.3318 19.4532 37.1018C21.5002 29.3088 25.0432 22.3118 30.6762 16.4878C37.4532 9.47681 45.8482 5.39481 55.2422 3.17981C57.6022 2.62481 60.0082 2.40181 62.4102 2.13281H66.8282ZM108.058 48.3978C108.079 46.7771 107.995 45.1568 107.808 43.5468C107.68 42.4206 107.508 41.2998 107.293 40.1868C104.203 24.8668 95.1762 14.2338 81.1802 7.78081C73.1482 4.08181 64.5822 3.46081 55.9602 5.14081C39.1652 8.40981 28.0602 18.4918 22.1532 34.3628C19.8962 40.4258 19.5952 46.8008 20.2392 53.2298C20.6902 58.0638 21.9929 62.7798 24.0872 67.1598C27.1142 73.4338 31.5562 78.5698 36.8992 82.9728C38.6665 84.4515 40.6128 85.702 42.6922 86.6948C43.9072 87.2618 43.9662 87.2298 43.9622 85.9378C43.9932 85.1088 43.9742 84.2778 43.9122 83.4528C43.2622 78.1798 43.1722 72.8788 43.0402 67.5818C43.0581 67.221 42.9791 66.8621 42.8115 66.5421C42.644 66.2221 42.3939 65.9527 42.0872 65.7618C40.0992 64.3748 38.3992 62.6948 37.3212 60.4918C34.8762 55.4798 35.3992 48.2818 41.5282 43.8718C42.2312 43.3628 42.6532 42.8818 42.5522 41.9418C42.5089 41.1759 42.564 40.4077 42.7162 39.6558C43.6262 33.5198 46.5762 28.6018 51.6142 24.9688C55.1382 22.4288 59.0712 20.9798 63.4342 20.9258C65.9312 20.8948 68.3642 21.4958 70.7472 22.1878C79.0642 24.6048 85.4622 32.8948 85.4542 41.3048C85.4174 41.8697 85.5255 42.4346 85.7682 42.946C86.011 43.4573 86.3803 43.8982 86.8412 44.2268C89.2352 46.1408 91.0872 48.5158 91.7162 51.6018C92.8532 57.1678 91.2902 61.8478 86.6572 65.2188C85.2782 66.2188 84.8642 67.3128 84.9312 68.8238C84.9422 69.0698 84.9352 69.3158 84.9232 69.5628C84.8172 72.0388 84.7122 74.5198 84.6032 76.9998C84.4702 80.0268 83.8962 83.0268 84.0012 86.0738C84.0412 87.2228 84.0282 87.2378 85.0362 86.7298C89.7943 84.3384 94.0073 80.9902 97.4112 76.8948C104.235 68.7348 108.134 59.4568 108.06 48.3978H108.058ZM48.9182 64.7068C50.6849 64.7315 52.4266 64.2879 53.9663 63.4213C55.5059 62.5547 56.7887 61.2959 57.6842 59.7728C58.5781 58.2484 59.0529 56.5147 59.0605 54.7476C59.068 52.9805 58.6081 51.2428 57.7272 49.7108C56.8446 48.1793 55.5722 46.9088 54.0393 46.0285C52.5065 45.1482 50.7679 44.6894 49.0002 44.6988C43.3442 44.6758 38.9022 48.9448 38.8792 54.4218C38.8552 60.3548 43.0822 64.6838 48.9182 64.7068ZM78.8712 64.7068C84.5662 64.7188 88.8792 60.4448 88.8752 54.7968C88.8752 49.1518 84.5082 44.7188 78.9532 44.7298C73.4492 44.7378 68.9222 49.2028 68.9062 54.6288C68.8912 60.3388 73.1992 64.6988 78.8712 64.7068ZM71.2612 74.7228C70.1842 75.3828 69.1612 76.1528 68.0082 76.7068C65.2342 78.0348 62.5082 78.0348 59.8402 76.4568C59.0232 75.9728 58.2502 75.4178 57.4412 74.9178C57.1992 74.7698 56.9652 74.3828 56.6642 74.5978C56.4372 74.7538 56.6172 75.1088 56.6602 75.3778C56.8522 76.3048 56.9962 77.2458 57.0862 78.1908C57.2232 81.1088 58.5982 83.3158 60.9262 84.9608C61.4994 85.4031 62.1605 85.7176 62.8653 85.8832C63.5701 86.0488 64.3021 86.0616 65.0122 85.9208C67.9342 85.3118 70.3122 82.7458 70.8242 79.6248C71.0472 78.2498 70.8482 76.8158 71.3872 75.4768C71.4442 75.353 71.4628 75.215 71.4405 75.0806C71.4182 74.9462 71.3561 74.8216 71.2622 74.7228H71.2612Z" fill="black"/>
<path d="M25.867 49.281C25.801 43.586 26.605 38.656 28.66 33.973C31.93 26.512 37.152 20.77 44.062 16.527C44.4404 16.3138 44.8788 16.232 45.3086 16.2942C45.7385 16.3564 46.1356 16.5593 46.438 16.871C46.75 17.184 46.625 17.484 46.492 17.797C45.9775 18.9236 45.1058 19.8491 44.012 20.43C38.43 23.734 34.555 28.55 31.828 34.332C29.5128 39.1368 28.413 44.4367 28.625 49.766C28.915 56.531 30.898 62.781 34.898 68.316C35.3546 68.8569 35.663 69.5071 35.793 70.203C35.848 70.621 36.098 71.074 35.637 71.383C35.4244 71.5372 35.1775 71.6373 34.9176 71.6747C34.6576 71.7122 34.3925 71.6858 34.145 71.598C33.6533 71.4097 33.2308 71.0758 32.934 70.641C29.211 65.582 26.766 60.011 26.054 53.715C25.864 52.031 26.031 50.344 25.867 49.281ZM48 14.234C47.9945 13.9742 48.0412 13.7159 48.1372 13.4744C48.2332 13.2329 48.3766 13.0131 48.559 12.828C48.742 12.6439 48.9599 12.4982 49.2 12.3997C49.4401 12.3011 49.6975 12.2516 49.957 12.254C51.051 12.262 52.07 13.426 52.105 14.707C52.121 15.414 50.508 16.723 49.645 16.695C48.672 16.672 48 15.665 48 14.235V14.234ZM45.594 52.91C45.5651 52.0745 45.8681 51.2615 46.4368 50.6488C47.0055 50.036 47.7937 49.6733 48.629 49.64C50.594 49.633 52.098 51.043 52.117 52.918C52.137 54.754 50.719 56.133 48.813 56.125C46.843 56.121 45.602 54.879 45.593 52.91H45.594ZM79.188 56.125C77.211 56.113 75.953 54.809 75.977 52.789C76.0001 51.971 76.3291 51.1915 76.899 50.6042C77.4688 50.017 78.2381 49.6647 79.055 49.617C79.9548 49.6009 80.8242 49.9422 81.4727 50.566C82.1213 51.1898 82.4961 52.0453 82.515 52.945C82.52 54.77 81.09 56.137 79.187 56.125H79.188Z" fill="black"/>
</svg>
