<svg width="128" height="128" viewBox="0 0 128 128" fill="none" xmlns="http://www.w3.org/2000/svg">
<path d="M44.0351 89.5938C44.0351 89.5938 43.1881 92.1437 41.9101 93.4177C41.5373 93.8338 41.0782 94.1635 40.565 94.3841C40.0517 94.6046 39.4965 94.7106 38.9381 94.6947C36.8414 95.2576 34.7102 95.6832 32.5581 95.9688C32.5581 95.9688 35.5351 96.3947 38.9381 96.8197C40.2111 96.8197 40.2111 96.8198 41.0621 97.2458C43.1881 97.2458 44.0351 95.9688 44.0351 95.9688V89.5938ZM83.1451 89.5938C83.1451 89.5938 83.9961 92.1437 85.2701 93.4177C85.644 93.8336 86.1038 94.1631 86.6176 94.3836C87.1315 94.6041 87.6872 94.7103 88.2461 94.6947C90.3411 95.2578 92.4706 95.6834 94.6211 95.9688C94.6211 95.9688 91.6481 96.3947 87.8211 96.8197C86.5471 96.8197 86.5471 96.8198 85.6951 97.2458C83.1451 97.2458 82.7191 95.9688 82.7191 95.9688L83.1451 89.5938Z" fill="#E9654B"/>
<path d="M109.926 47.5076C109.926 72.8626 89.371 93.4176 64.016 93.4176C38.66 93.4176 18.106 72.8626 18.106 47.5076C18.106 22.1556 38.66 1.60156 64.016 1.60156C89.371 1.60156 109.926 22.1556 109.926 47.5076Z" fill="#B6CFEA"/>
<path d="M108.227 47.5078C108.227 71.9258 88.4341 91.7178 64.0161 91.7178C39.6021 91.7178 19.8091 71.9258 19.8091 47.5078C19.8091 23.0938 39.6021 3.2998 64.0161 3.2998C88.4341 3.2998 108.226 23.0928 108.226 47.5068L108.227 47.5078Z" fill="#E6F5F8"/>
<path d="M100.148 48.3596C100.148 68.3156 83.9728 84.4916 64.0158 84.4916C44.0618 84.4916 27.8828 68.3156 27.8828 48.3586C27.8828 28.4056 44.0628 12.2266 64.0158 12.2266C83.9728 12.2266 100.148 28.4066 100.148 48.3586V48.3596Z" fill="#D0E8F0"/>
<path d="M42.7619 65.3633C42.7619 65.3633 45.7379 113.398 45.7379 114.25C45.7379 114.672 46.1639 115.523 44.0349 116.375C41.9099 117.223 35.1089 118.925 35.1089 118.925H45.3119C49.9879 118.925 49.9879 115.098 49.9879 114.25C49.9879 113.398 51.2619 95.1213 51.2619 95.1213C51.2619 95.1213 51.6869 116.801 51.6869 117.648C51.6869 118.5 51.2619 119.773 48.2889 120.625C46.1639 121.051 39.7849 122.325 39.7849 122.325H49.5629C55.5159 122.325 55.5159 118.5 55.5159 118.5L56.7889 99.3713C56.7889 99.3713 57.2149 118.5 57.2149 120.625C57.2149 122.325 55.9409 123.602 51.2619 124.449C48.2889 125.301 44.4609 126.152 44.4609 126.152H55.5159C61.0389 125.727 61.8909 121.898 61.8909 121.898L71.2419 74.2893L42.7619 65.3633Z" fill="#EE794B"/>
<path d="M85.27 65.3635C85.27 65.3635 82.297 113.398 82.297 114.25C82.297 114.672 81.871 115.523 83.997 116.375C86.121 117.223 92.922 118.925 92.922 118.925H82.719C78.043 118.925 78.043 115.098 78.043 114.25C78.043 113.398 76.77 95.1215 76.77 95.1215C76.77 95.1215 76.344 116.801 76.344 117.648C76.344 118.5 76.77 119.773 79.746 120.625L88.246 122.325H78.47C72.52 122.325 72.52 118.5 72.52 118.5L71.243 99.3715C71.243 99.3715 70.817 118.5 70.817 120.625C70.817 122.325 72.095 123.602 76.771 124.449C79.747 125.301 83.571 126.152 83.571 126.152H72.52C66.992 125.727 66.14 121.898 66.14 121.898L56.79 74.2905L85.27 65.3635ZM85.695 41.9845C85.695 53.8875 75.918 63.2385 64.441 63.2385C52.965 63.2385 43.187 53.4615 43.187 41.9845C43.187 30.5085 52.965 20.7305 64.441 20.7305C75.918 20.7305 85.695 30.0825 85.695 41.9845Z" fill="#EE794B"/>
<path d="M102.273 53.4599C102.273 74.3549 85.3359 91.2929 64.4409 91.2929C43.5469 91.2929 26.6089 74.3549 26.6089 53.4609C26.6089 32.5659 43.5469 15.6289 64.4409 15.6289C85.3359 15.6289 102.273 32.5659 102.273 53.4609V53.4599Z" fill="#EE794B"/>
<path d="M84.4219 65.3626C84.4219 65.3626 86.9719 42.8316 83.5699 34.3316C77.1949 19.4526 62.3159 20.7296 62.3159 20.7296C62.3159 20.7296 70.8159 24.1286 71.2419 36.8826C71.6679 45.8086 71.2419 58.9876 71.2419 58.9876L84.4219 65.3626Z" fill="#E34E3B"/>
<path d="M58.488 30.5077C58.4878 30.8983 58.4107 31.285 58.2611 31.6457C58.1114 32.0065 57.8922 32.3342 57.6159 32.6102C57.3396 32.8862 57.0117 33.1051 56.6508 33.2544C56.2899 33.4037 55.9031 33.4804 55.5125 33.4802C55.122 33.48 54.7353 33.4029 54.3746 33.2533C54.0138 33.1036 53.6861 32.8844 53.41 32.6081C53.134 32.3318 52.9151 32.0038 52.7658 31.6429C52.6166 31.282 52.5398 30.8953 52.54 30.5047C52.5404 29.716 52.8541 28.9597 53.4122 28.4022C53.9702 27.8448 54.7268 27.5318 55.5155 27.5322C56.3043 27.5326 57.0606 27.8463 57.618 28.4044C58.1755 28.9624 58.4884 29.719 58.488 30.5077Z" fill="#FBDFC3"/>
<path d="M71.6678 73.8626C71.6678 81.0896 68.2658 85.7696 64.0158 85.7696C59.7658 85.7696 56.3628 80.2416 56.3628 73.0156C56.3628 73.0156 59.7658 79.8156 64.4408 79.8156C69.1168 79.8156 71.6678 73.8626 71.6678 73.8626Z" fill="#010101"/>
<path d="M71.6681 73.8634C71.6681 78.5434 68.2661 81.0904 64.0161 81.0904C59.7661 81.0904 56.7891 77.6914 56.7891 73.4414C56.7891 73.4414 60.1911 77.6914 64.8671 77.6914C69.5431 77.6914 71.6681 73.8634 71.6681 73.8634Z" fill="white"/>
<path d="M92.0699 53.887C92.0699 61.164 86.1719 67.062 78.8949 67.062C71.6169 67.062 65.7149 61.164 65.7149 53.887C65.7149 46.609 71.6169 40.707 78.8949 40.707C86.1719 40.707 92.0699 46.609 92.0699 53.887ZM62.3159 53.887C62.3159 61.164 56.4139 67.062 49.1359 67.062C41.8589 67.062 35.9609 61.164 35.9609 53.887C35.9609 46.609 41.8589 40.707 49.1369 40.707C56.4139 40.707 62.3169 46.609 62.3169 53.887H62.3159Z" fill="#E9654B"/>
<path d="M89.0979 53.8866C89.0979 59.5196 84.5279 64.0896 78.8949 64.0896C73.2619 64.0896 68.6909 59.5196 68.6909 53.8866C68.6909 48.2496 73.2609 43.6836 78.8949 43.6836C84.5269 43.6836 89.0979 48.2496 89.0979 53.8866ZM58.4879 53.8866C58.4879 59.5196 53.9219 64.0896 48.2889 64.0896C42.6519 64.0896 38.0859 59.5196 38.0859 53.8866C38.0857 52.5466 38.3494 51.2198 38.8621 49.9818C39.3747 48.7438 40.1263 47.6189 41.0737 46.6714C42.0212 45.7239 43.1461 44.9724 44.3841 44.4597C45.6221 43.9471 46.949 43.6833 48.2889 43.6836C53.9219 43.6836 58.4889 48.2496 58.4889 53.8866H58.4879Z" fill="white"/>
<path d="M51.262 52.6097C51.2622 53.0004 51.1855 53.3873 51.0361 53.7483C50.8868 54.1094 50.6678 54.4374 50.3917 54.7138C50.1156 54.9902 49.7877 55.2095 49.4269 55.3592C49.066 55.5089 48.6792 55.586 48.2885 55.5862C47.8978 55.5864 47.5109 55.5097 47.1499 55.3604C46.7889 55.211 46.4608 54.9921 46.1844 54.7159C45.908 54.4398 45.6887 54.112 45.539 53.7511C45.3894 53.3902 45.3122 53.0034 45.312 52.6127C45.3115 51.8237 45.6244 51.0668 46.182 50.5085C46.7395 49.9502 47.496 49.6363 48.285 49.6357C49.074 49.6352 49.8309 49.9481 50.3892 50.5057C50.9475 51.0632 51.2615 51.8197 51.262 52.6087V52.6097ZM81.871 52.6097C81.8783 53.0051 81.8068 53.3979 81.6606 53.7653C81.5143 54.1327 81.2964 54.4672 81.0194 54.7494C80.7425 55.0316 80.412 55.2558 80.0474 55.4088C79.6829 55.5619 79.2914 55.6407 78.896 55.6408C78.5006 55.6409 78.1092 55.5621 77.7445 55.4092C77.3799 55.2563 77.0494 55.0322 76.7723 54.7501C76.4953 54.468 76.2772 54.1335 76.1308 53.7662C75.9845 53.3989 75.9128 53.0061 75.92 52.6107C75.934 51.831 76.2536 51.088 76.8098 50.5414C77.3661 49.9949 78.1147 49.6885 78.8945 49.6883C79.6744 49.688 80.4231 49.9939 80.9798 50.54C81.5364 51.0862 81.8565 51.829 81.871 52.6087V52.6097Z" fill="#010101"/>
<path d="M17.2578 58.9884C16.9742 59.0059 16.6901 58.963 16.4243 58.8624C16.1585 58.7618 15.9172 58.6059 15.7162 58.4049C15.5153 58.204 15.3594 57.9626 15.2588 57.6969C15.1582 57.4311 15.1153 57.147 15.1328 56.8634V39.8604C15.1151 39.5766 15.1578 39.2924 15.2581 39.0264C15.3584 38.7604 15.5141 38.5187 15.7148 38.3174C15.9162 38.1167 16.1578 37.961 16.4238 37.8607C16.6898 37.7603 16.9741 37.7176 17.2578 37.7354C17.5414 37.7178 17.8256 37.7608 18.0913 37.8613C18.3571 37.9619 18.5985 38.1178 18.7994 38.3188C19.0003 38.5197 19.1563 38.7611 19.2568 39.0268C19.3574 39.2926 19.4004 39.5767 19.3828 39.8604V56.8644C19.4178 57.4344 19.2028 57.9974 18.7968 58.4044C18.5961 58.6052 18.355 58.7612 18.0896 58.8621C17.8241 58.9629 17.5403 59.0063 17.2568 58.9894L17.2578 58.9884ZM109.926 58.9884C109.642 59.0055 109.358 58.9621 109.093 58.861C108.827 58.76 108.586 58.6037 108.386 58.4024C108.185 58.2017 108.029 57.9609 107.928 57.6956C107.827 57.4303 107.784 57.1467 107.801 56.8634V39.8604C107.784 39.5764 107.827 39.292 107.928 39.026C108.029 38.76 108.186 38.5185 108.387 38.3174C108.587 38.1168 108.828 37.9611 109.094 37.8608C109.359 37.7604 109.643 37.7177 109.926 37.7354C110.209 37.7177 110.493 37.7604 110.758 37.8608C111.023 37.9611 111.264 38.1168 111.465 38.3174C111.875 38.7244 112.085 39.2874 112.051 39.8604V56.8644C112.069 57.148 112.025 57.4321 111.924 57.6977C111.823 57.9633 111.667 58.2042 111.465 58.4044C111.264 58.6055 111.023 58.7617 110.758 58.8625C110.492 58.9634 110.208 59.0066 109.925 58.9894L109.926 58.9884Z" fill="#B6CFEA"/>
<path d="M51.6878 13.5039C51.6878 14.0675 51.4639 14.608 51.0654 15.0065C50.6668 15.405 50.1263 15.6289 49.5628 15.6289C48.9992 15.6289 48.4587 15.405 48.0602 15.0065C47.6616 14.608 47.4378 14.0675 47.4378 13.5039C47.4378 12.9403 47.6616 12.3998 48.0602 12.0013C48.4587 11.6028 48.9992 11.3789 49.5628 11.3789C50.1263 11.3789 50.6668 11.6028 51.0654 12.0013C51.4639 12.3998 51.6878 12.9403 51.6878 13.5039ZM34.2618 70.8899C34.0305 70.9191 33.7957 70.8961 33.5745 70.8225C33.3533 70.749 33.1515 70.6268 32.9838 70.4649C27.8828 64.0899 25.3318 56.0119 25.3318 47.9339C25.309 41.218 27.0696 34.6165 30.4338 28.8039C33.844 23.2713 38.5019 18.6137 44.0348 15.2039C44.3899 15.0446 44.7859 15 45.1677 15.0761C45.5494 15.1523 45.8979 15.3455 46.1648 15.6289C46.3225 15.9837 46.3661 16.3787 46.2896 16.7594C46.2132 17.1401 46.0203 17.4876 45.7378 17.7539C40.4645 20.7333 36.074 25.0556 33.0125 30.2817C29.9511 35.5078 28.3278 41.4512 28.3078 47.5079C28.2959 55.0686 30.8431 62.4109 35.5348 68.3399C35.9608 68.7659 35.9608 70.0399 35.1088 70.4649C34.6838 70.8909 34.6838 70.8909 34.2618 70.8909V70.8899Z" fill="white"/>
<path d="M83.1448 90.8667V87.4697C77.1948 90.8677 70.8158 94.2697 63.1678 94.2697C54.6638 94.2697 49.1368 90.4457 43.6128 87.4697L44.0348 90.8677C44.0348 90.8677 50.4148 97.6727 63.5898 97.6727C75.9178 97.2467 83.1448 90.8677 83.1448 90.8677V90.8667Z" fill="#E9654B"/>
</svg>
