<svg width="128" height="128" viewBox="0 0 128 128" fill="none" xmlns="http://www.w3.org/2000/svg">
<path d="M120.85 62.1234L121.05 61.9917C122.695 61.1429 122.517 58.6684 121.331 57.7724C120.473 57.1261 119.498 56.9335 118.463 56.9099C116.935 56.8975 115.408 56.9223 113.892 56.8975C113.553 56.8975 113.446 56.9807 113.456 57.3411C113.48 58.2111 113.468 58.2111 114.302 58.3925C114.502 58.4298 114.619 58.4882 114.619 58.738V65.9463C114.619 66.1613 114.549 66.257 114.338 66.2918C114.045 66.3514 113.645 66.2545 113.504 66.5192C113.374 66.7578 113.467 67.1157 113.455 67.4264V67.4637C113.406 67.7123 113.537 67.7744 113.773 67.7744L118.979 67.762C119.92 67.7496 120.858 67.5942 121.612 66.9728C123.293 65.6107 122.905 62.9934 120.848 62.0961L120.85 62.1234ZM116.994 58.6212C117.676 58.6585 118.358 58.5491 119.04 58.7169C119.712 58.8723 120.086 59.3383 120.098 60.0219C120.11 60.7265 119.734 61.2547 119.076 61.384C118.371 61.5393 117.666 61.4337 116.95 61.456C116.774 61.456 116.785 61.3243 116.785 61.205V58.8872C116.773 58.7194 116.809 58.6386 116.996 58.6386L116.994 58.6212ZM119.346 66.0184C118.558 66.1613 117.748 66.0556 116.949 66.0805C116.773 66.0805 116.784 65.9488 116.784 65.8295V63.2233C116.784 63.0319 116.842 62.9747 117.028 62.9747L119.228 63.012C120.028 63.1077 120.45 63.6334 120.487 64.4823C120.511 65.3895 120.157 65.8928 119.346 66.0358V66.0184ZM108.461 56.9236C106.992 56.9236 105.511 56.936 104.042 56.9111C103.678 56.9111 103.536 56.9832 103.561 57.3896C103.597 58.2384 103.573 58.2496 104.406 58.405C104.618 58.4423 104.712 58.5118 104.712 58.7753V65.9836C104.712 66.1986 104.641 66.2818 104.431 66.3291C103.575 66.4968 103.573 66.508 103.575 67.4041C103.575 67.7024 103.634 67.8229 103.963 67.8105L106.407 67.7981H108.533C110.684 67.7608 112.318 66.4596 112.801 64.3431C113.025 63.3488 112.918 62.3707 112.906 61.379C112.894 58.7977 111.026 56.9335 108.475 56.9211L108.461 56.9236ZM110.682 63.8683C110.552 65.1012 109.704 66.1638 108.262 66.1054C107.922 66.0869 107.581 66.0869 107.24 66.1054C106.972 66.1178 106.876 66.0457 106.876 65.7599L106.889 62.3546L106.876 58.9841C106.876 58.6983 106.958 58.6138 107.24 58.6386C107.58 58.6635 107.922 58.6386 108.262 58.6386C109.589 58.6511 110.566 59.5086 110.706 60.8757C110.792 61.8736 110.787 62.8641 110.694 63.8758L110.682 63.8683Z" fill="black"/>
<path d="M94.5931 59.8185C94.6175 59.6147 94.5222 59.5451 94.3242 59.5451H91.8801C91.6454 59.5451 91.5501 59.6396 91.5159 59.8682L91.4095 60.6077C91.3044 60.6201 91.269 60.558 91.2336 60.5133C90.152 59.043 87.6724 59.401 86.8499 61.1347C86.0739 62.7503 86.0153 64.3983 86.6055 66.0711C86.9453 67.0653 87.6394 67.7563 88.6855 67.9353C89.6387 68.1142 90.5186 67.9725 91.2592 67.1088V67.8483C91.1651 68.9121 90.5993 69.4142 89.5434 69.4017C89.2257 69.4017 88.9324 69.306 88.6146 69.2588C88.2505 69.1967 87.8631 68.8027 87.593 69.0674C87.3583 69.2949 87.3693 69.7845 87.263 70.1549C87.1921 70.3935 87.2752 70.5253 87.4976 70.6085C88.5193 71.0273 89.5654 71.1702 90.6592 71.0025C92.023 70.7986 93.1034 69.7597 93.327 68.3976C93.492 67.4655 93.3881 66.5334 93.3979 65.5988V61.4876C93.3979 61.2962 93.3735 61.1173 93.6448 61.0812C94.5735 60.9023 94.5735 60.8898 94.5491 59.9217C94.5857 59.872 94.5857 59.8496 94.5857 59.826L94.5931 59.8185ZM90.8327 66.0101C89.8917 66.5943 88.8224 66.214 88.5658 65.1377C88.3213 64.0739 88.3213 62.9877 88.8004 61.9686C89.035 61.4789 89.4603 61.285 89.9638 61.2975C90.504 61.3099 90.9623 61.5125 91.247 62.0146C91.2959 62.0978 91.2837 62.2184 91.2959 62.3253V63.8067L91.3081 65.2048C91.3326 65.5988 91.1321 65.8262 90.8376 66.0064L90.8327 66.0101ZM61.0505 66.4265C60.7694 66.4389 60.6509 66.3072 60.5568 66.0325L57.548 57.2236C57.4771 57.0086 57.383 56.9253 57.1606 56.9377H55.5389C55.3153 56.9377 55.2212 57.0098 55.1393 57.2236L53.729 61.2999L52.0841 66.0922C52.0352 66.2475 51.99 66.378 51.7908 66.4153C51.2042 66.511 51.2164 66.5222 51.2164 67.1088C51.2164 67.2157 51.2286 67.3238 51.2164 67.4319C51.1797 67.7302 51.2873 67.8259 51.5806 67.8023L53.9881 67.7898C54.868 67.7898 54.8435 67.7898 54.8802 66.8826C54.8924 66.5471 54.8093 66.3681 54.4561 66.3917C54.2325 66.4041 54.1384 66.3196 54.2215 66.081L54.7739 64.3721C54.8228 64.2044 54.9144 64.1447 55.0916 64.1447H57.5725C57.7729 64.1447 57.8413 64.2168 57.9 64.3958L58.4524 66.1046C58.5012 66.2475 58.511 66.3905 58.3118 66.378C57.7936 66.3407 57.7374 66.6266 57.7717 67.0491C57.7839 67.1983 57.7839 67.3449 57.7717 67.4916C57.7472 67.719 57.8535 67.7898 58.0772 67.7898H60.558C61.4623 67.7898 61.4501 67.7898 61.4623 66.8702C61.4746 66.547 61.3695 66.3917 61.0505 66.4166V66.4265ZM57.0665 62.5552H55.6061C55.4179 62.5552 55.3617 62.493 55.4057 62.3066L56.2612 59.5936C56.2978 59.5936 56.3198 59.5936 56.3553 59.5812L57.2107 62.3427C57.2816 62.5341 57.2107 62.5937 57.0347 62.5813L57.0665 62.5552ZM85.073 66.3917C84.5109 66.3196 84.5206 66.296 84.5109 65.6982C84.4864 64.4057 84.605 63.1045 84.429 61.8145C84.1821 59.9503 82.4529 59.0405 80.7872 59.8421C80.3631 60.046 80.06 60.4039 79.7289 60.7146C79.6005 60.5232 79.6238 60.3206 79.6238 60.1429C79.636 59.8098 79.5064 59.7116 79.1777 59.7241H76.813C76.483 59.7116 76.3889 59.8073 76.3889 60.1429C76.4011 61.0153 76.3889 61.0129 77.2138 61.1943C77.4607 61.244 77.578 61.326 77.578 61.6131V65.9281C77.578 66.1667 77.5193 66.2985 77.2602 66.3345C76.5331 66.4774 76.5331 66.4899 76.5331 67.2542C76.5331 67.3263 76.5453 67.3859 76.5331 67.458C76.4964 67.7066 76.604 67.8035 76.8631 67.7911H79.7777C80.5782 67.7911 80.5538 67.7911 80.5904 66.9646C80.6026 66.5707 80.4963 66.3432 80.0967 66.3432C79.779 66.3432 79.7325 66.1754 79.7325 65.8772L79.7447 62.2308C79.7447 62.1115 79.7325 61.9922 79.7936 61.8853C80.0173 61.4789 80.8043 61.1806 81.3823 61.3012C81.9689 61.4205 82.2745 61.7548 82.3356 62.365C82.4529 63.573 82.36 64.791 82.3942 66.0114C82.4064 66.25 82.2769 66.2972 82.0887 66.3345C81.441 66.4899 81.441 66.4899 81.441 67.1833C81.441 67.279 81.4532 67.3747 81.441 67.4568C81.4043 67.7053 81.5229 67.8023 81.7685 67.8023H84.6832C85.5387 67.8023 85.5289 67.8023 85.5631 66.9298C85.5631 66.5595 85.447 66.4153 85.0938 66.3805L85.073 66.3917ZM75.6703 66.4389C75.2829 66.4762 75.2585 66.2351 75.2585 65.9368V62.2905C75.2462 61.4205 74.8943 60.6748 74.1672 60.1876C73.2384 59.5414 72.191 59.483 71.1364 59.6383C70.3518 59.7626 69.6039 60.0447 68.9366 60.4983C68.713 60.6537 68.6922 60.7966 68.8547 61.0129L69.5269 61.8828C69.6564 62.0618 69.7273 62.0506 69.8911 61.9201C70.2885 61.6117 70.7384 61.3804 71.2182 61.2378C72.3462 60.9047 73.0514 61.4416 73.0758 62.5999C73.088 62.9703 72.9939 63.056 72.6395 63.0436C71.5458 62.9939 70.4887 63.1157 69.511 63.665C68.1117 64.4542 68.2645 66.3432 69.0051 67.1424C69.9461 68.1577 71.7572 68.2298 72.8485 67.2853C72.9414 67.202 73.0135 67.0703 73.176 67.0466C73.2127 67.1548 73.2701 67.2617 73.2811 67.3822C73.33 67.7178 73.4926 67.8259 73.8213 67.7886C74.1855 67.7513 74.5851 67.7762 74.9615 67.7762C75.9954 67.7762 75.9954 67.7762 75.9489 66.7248C75.9367 66.5085 75.8549 66.4016 75.6557 66.4141L75.6703 66.4389ZM72.7312 65.9729C72.2485 66.2711 71.7535 66.4513 71.2036 66.2836C70.8394 66.1767 70.6512 65.9132 70.6292 65.5068C70.6048 65.0408 70.8638 64.5996 71.2402 64.4306C71.3454 64.3808 71.4639 64.3585 71.58 64.3237C71.8195 64.2702 72.0639 64.2491 72.3084 64.2615C73.0722 64.2615 73.0599 64.2615 73.0722 64.9786C73.0599 65.349 73.121 65.7181 72.708 65.9729H72.7312ZM98.7078 59.5787C97.0507 59.5787 95.7455 60.4511 95.253 61.9213C94.8888 62.9491 94.8534 64.013 95.1003 65.078C95.2762 65.8797 95.6404 66.5719 96.2637 67.1225C97.1094 67.8619 98.0968 68.0173 99.1784 67.9489C100.542 67.8532 101.519 67.1473 102.093 65.8921C102.505 64.9973 102.539 64.0279 102.457 63.0709C102.257 60.9308 100.823 59.5812 98.7176 59.5812L98.7078 59.5787ZM99.8358 65.7454C99.2615 66.547 97.9318 66.4501 97.4833 65.5665C97.19 65.0047 97.0959 64.4069 97.1191 63.8328C97.1069 63.2114 97.168 62.6496 97.4246 62.1115C97.9062 61.1073 99.2578 60.9768 99.8688 61.8841C100.48 62.7689 100.455 64.8606 99.8102 65.743L99.8358 65.7454ZM67.7023 59.6135C66.9752 59.4345 66.2334 59.7328 65.7873 60.3529C65.7054 60.4722 65.67 60.6263 65.5062 60.6984C65.4386 60.5118 65.4107 60.3127 65.4243 60.1143C65.4488 59.816 65.3193 59.744 65.037 59.744H62.7578C62.3936 59.7315 62.2286 59.8061 62.2518 60.2336C62.2885 61.0477 62.264 61.0601 63.0523 61.2279C63.2759 61.2776 63.392 61.3472 63.3798 61.5982V65.948C63.3798 66.1966 63.3089 66.2935 63.0621 66.342C62.3349 66.4737 62.3569 66.4849 62.3569 67.2119C62.3569 67.7737 62.3569 67.7836 62.8971 67.7836H65.6126C66.611 67.7836 66.611 67.7836 66.5902 66.7794C66.5902 66.5309 66.5193 66.4091 66.2603 66.4091C66.1429 66.4091 66.0256 66.3494 65.8961 66.3494C65.615 66.337 65.5319 66.2065 65.5319 65.9182L65.5441 62.7491C65.5441 62.1277 65.8496 61.7548 66.4607 61.6852C66.7662 61.6479 67.0962 61.6728 67.4017 61.6728C67.5422 61.6728 67.6461 61.6852 67.6828 61.4814L67.86 59.8558C67.8966 59.7005 67.8477 59.6408 67.695 59.6073L67.7023 59.6135Z" fill="black"/>
<path d="M46.5233 62.6108C45.7313 59.9264 43.9654 57.8633 42.3682 55.6512C39.3618 51.5213 35.4573 49.2383 31.8582 49.2135C24.9718 49.0892 20.1189 52.2708 18.034 57.2892C17.9463 57.5654 17.783 57.8104 17.5633 57.9957C17.3437 58.1811 17.0767 58.2989 16.7936 58.3356C14.4985 58.8725 12.2034 59.4081 10.0648 60.508C8.61294 61.2599 7.13666 61.9571 6.21277 63.4037C5.05179 65.2282 5.18255 67.1595 5.63106 69.1703C6.79204 74.1602 9.78614 77.246 14.7063 78.372C17.7395 79.0431 20.6945 78.9636 23.4649 77.3529C25.2064 76.3587 26.6057 74.9394 27.9867 73.5002C28.3288 73.1249 28.5928 73.0441 29.0413 73.2591L31.5747 74.5206C34.2657 75.8877 37.0105 77.0149 40.0951 76.826C45.0018 76.5302 47.9311 73.1759 47.6146 68.2941C47.5095 66.3628 47.061 64.4726 46.5061 62.6071L46.5233 62.6108ZM28.3472 69.3965C25.3922 71.4099 22.3345 73.1523 18.7966 73.8768C17.66 74.1179 16.5296 74.1975 15.7634 74.1453C12.9159 74.1453 10.5133 73.8495 8.40397 72.3743C5.92313 70.6033 4.86848 66.7394 6.29465 64.0314C6.74315 63.1465 7.50696 62.5027 8.35264 61.9932C11.2808 60.1439 14.5523 59.2839 17.8763 58.5879C21.3312 57.836 24.8422 57.0319 28.4547 57.0593C30.1962 57.0593 31.7519 57.7577 32.8603 59.1795C33.838 60.467 33.5471 61.9161 33.0718 63.2857C32.1969 65.7938 30.5383 67.9414 28.3496 69.4003L28.3472 69.3965ZM46.3118 71.5963C45.2034 74.4137 42.857 75.352 40.1916 75.7534C37.3442 76.1822 34.9941 74.8164 32.5683 73.6606C31.7764 73.2852 31.0113 72.7906 30.195 72.4799C29.4825 72.2115 29.3762 71.943 29.9579 71.4322C30.8549 70.2764 31.7519 69.1268 32.4632 67.8368C33.3333 65.9316 33.8612 63.9195 33.8612 61.8005C33.8612 58.527 32.1466 57.0779 28.902 56.7051C28.269 56.6255 27.609 56.6777 26.9626 56.6777C24.7726 56.8393 22.5838 57.1748 20.4207 57.5899C19.9722 57.5626 19.4186 58.087 19.1278 57.6173C18.9163 57.2693 19.4431 56.8405 19.6814 56.4615C21.2652 53.6714 23.6385 51.9538 26.6204 50.9869C29.232 50.1543 31.8179 49.9678 34.5077 50.6912C36.7246 51.2827 38.306 52.6486 39.7578 54.2866C41.5518 56.2999 43.1894 58.3928 44.5068 60.7243C45.7998 63.0048 46.4463 65.4469 46.6455 68.0481C46.698 69.2561 46.8043 70.4367 46.3302 71.5901L46.3118 71.5963Z" fill="black"/>
<path d="M44.4927 60.7331C43.1485 58.3991 41.5109 56.2802 39.7437 54.2954C38.2919 52.6599 36.7105 51.2903 34.4936 50.7C31.8026 49.9755 29.2167 50.1631 26.6063 50.9958C23.6244 51.9354 21.2511 53.6802 19.6673 56.4703C19.4559 56.8469 18.9035 57.2757 19.1137 57.6261C19.4046 58.0822 19.9692 57.5727 20.4067 57.5988C20.9346 55.8551 22.0956 54.5664 23.5597 53.628C26.1053 51.9378 28.9674 51.2394 32.0287 51.2941C34.9837 51.3736 37.3057 52.6897 39.2573 54.8609C40.6823 56.4442 41.9215 58.214 43.1375 59.9564C45.0622 62.7179 46.1193 65.7789 45.9079 69.2127C45.7491 71.6536 44.6418 73.4793 42.2954 74.3641C40.3707 75.0874 38.4153 75.249 36.4759 74.3915L33.0443 72.9958C32.0177 72.4987 30.8274 72.3521 29.9841 71.4945C29.378 71.9916 29.4953 72.2713 30.2212 72.5422C31.04 72.8628 31.8051 73.3475 32.5945 73.7229C35.0216 74.8787 37.3973 76.2457 40.2179 75.8157C42.882 75.4143 45.2284 74.4487 46.3381 71.6573C46.7866 70.5015 46.7084 69.3234 46.629 68.1439C46.4701 65.4595 45.8102 63.0199 44.5196 60.7406L44.4927 60.7331ZM33.0418 63.2833C33.5306 61.9163 33.8056 60.4659 32.8304 59.1771C31.722 57.728 30.1907 57.0569 28.4248 57.0569C24.8355 57.0296 21.3281 57.8337 17.8195 58.5856C14.4954 59.3101 11.2239 60.1416 8.29581 61.9908C7.44035 62.5277 6.68754 63.1715 6.23781 64.029C4.83974 66.7383 5.86753 70.6009 8.34714 72.3719C10.4565 73.8732 12.8688 74.1429 15.7065 74.1429C16.4703 74.1964 17.6313 74.0882 18.7397 73.8745C22.2752 73.1512 25.3353 71.4063 28.2903 69.3942C30.5055 67.9583 32.1789 65.8037 33.0394 63.2796L33.0418 63.2833ZM26.9473 69.5881C24.442 71.1167 21.9086 72.5932 18.9817 73.13C16.6084 73.5588 14.1789 73.693 11.8044 73.0766C9.03394 72.4055 6.89774 69.8702 6.79386 66.962C6.74009 65.3787 7.50634 64.1036 8.6942 63.0721C10.5273 61.4887 12.732 60.6586 15.0515 60.1478C15.104 60.1478 15.1737 60.2273 15.2629 60.272C17.2024 58.7434 19.418 58.4476 21.8047 58.6365C22.0162 58.1394 22.516 58.2885 22.8863 58.1804C24.9174 57.6833 26.9742 57.4559 29.0065 57.8846C32.8316 58.6614 33.3082 60.8363 32.0666 63.9992C31.0889 66.5469 29.1654 68.2247 26.9497 69.5918L26.9473 69.5881ZM33.4647 67.6555C35.9699 67.8171 37.7383 65.4284 37.7383 63.3654C37.7383 60.5069 36.2351 58.429 34.072 56.7935C33.0418 56.054 31.8821 55.5333 30.6172 55.9881C29.5357 56.3647 28.481 56.6045 27.3457 56.525C27.2235 56.525 27.0817 56.6319 26.9497 56.6493C27.6096 56.6493 28.2427 56.5946 28.8892 56.6766C32.1338 57.0532 33.8606 58.5011 33.8606 61.7746C33.8606 63.8948 33.3327 65.9044 32.4625 67.8109C32.7534 67.622 33.0956 67.622 33.4647 67.6493V67.6555Z" fill="black"/>
<path d="M12.2039 65.7747C12.1257 66.4732 12.309 67.0361 12.9677 67.44C15.341 68.9165 17.8744 69.774 20.6986 69.4534C22.7835 69.2123 24.7364 68.5412 26.3446 67.1194C27.8478 65.8045 28.1387 64.169 27.1366 62.4788C25.8961 60.4133 24.1302 59.1257 21.8083 58.6572C19.4594 58.4708 17.2181 58.7641 15.2664 60.2927C13.5775 61.7418 12.4556 63.524 12.2063 65.7672L12.2039 65.7747Z" fill="black"/>
</svg>
