<svg width="128" height="128" viewBox="0 0 128 128" fill="none" xmlns="http://www.w3.org/2000/svg">
<path d="M115.025 60.3618C112.911 53.2782 108.197 47.8343 103.933 41.9969C95.908 31.0992 85.4852 25.0749 75.8779 25.0093C57.4953 24.6813 44.541 33.0767 38.9756 46.3192C38.7414 47.048 38.3056 47.6947 37.7193 48.1837C37.1329 48.6727 36.4202 48.9837 35.6645 49.0805C29.538 50.4972 23.4115 51.9107 17.7027 54.813C13.8271 56.7971 9.88636 58.6368 7.42011 62.4541C4.321 67.2684 4.67006 72.3647 5.8673 77.6708C8.96641 90.8379 16.9589 98.9808 30.0926 101.952C38.1894 103.723 46.0775 103.513 53.4729 99.2628C58.1216 96.6392 61.8569 92.8941 65.5432 89.0965C66.4566 88.1061 67.1613 87.8929 68.3585 88.4603L75.1211 91.7889C82.3045 95.3963 89.6315 98.3708 97.8653 97.8723C110.963 97.0918 118.783 88.2405 117.938 75.3588C117.657 70.2625 116.46 65.2745 114.979 60.352L115.025 60.3618ZM66.5056 78.2677C58.6175 83.5804 50.4554 88.1782 41.0112 90.0902C37.9774 90.7264 34.9598 90.9363 32.9144 90.7985C25.3134 90.7985 18.8999 90.018 13.2693 86.1253C6.64696 81.4521 3.83167 71.2562 7.63869 64.1103C8.83592 61.7753 10.8748 60.0765 13.1323 58.732C20.9486 53.8521 29.6815 51.5827 38.5548 49.7462C47.7771 47.7622 57.1495 45.6404 66.7926 45.7125C71.4413 45.7125 75.5941 47.5556 78.553 51.3073C81.1627 54.7048 80.3863 58.5286 79.1173 62.1426C76.7819 68.7609 72.3545 74.4281 66.5121 78.2776L66.5056 78.2677ZM114.46 84.0724C111.501 91.5069 105.238 93.9829 98.123 95.0422C90.5221 96.1736 84.2488 92.5694 77.7733 89.5195C75.6594 88.5291 73.6172 87.2239 71.438 86.4041C69.5362 85.6957 69.2523 84.9873 70.8052 83.6395C73.1996 80.5896 75.5941 77.5561 77.4927 74.152C79.8154 69.1246 81.2247 63.8151 81.2247 58.2237C81.2247 49.5856 76.6478 45.7617 67.9866 44.7779C66.2968 44.568 64.5352 44.7057 62.8094 44.7057C56.9635 45.132 51.1209 46.0175 45.3468 47.1128C44.1495 47.0407 42.6717 48.4246 41.8953 47.185C41.331 46.2667 42.737 45.1353 43.3731 44.1351C47.6009 36.7727 53.9362 32.2405 61.896 29.689C68.8674 27.4918 75.7703 26.9999 82.9504 28.9085C88.8681 30.4696 93.0894 34.0737 96.965 38.396C101.754 43.7087 106.125 49.2314 109.642 55.3836C113.093 61.4015 114.819 67.8456 115.351 74.7095C115.491 77.8971 115.775 81.0126 114.509 84.056L114.46 84.0724Z" fill="#577138"/>
<path d="M87.76 91.4389C92.9287 93.7524 98.1659 93.2963 103.302 91.3661C109.562 89.013 112.509 84.1613 112.929 77.667C113.493 68.5353 110.65 60.4017 105.546 53.0514L95.2053 39.501C90.0366 33.7966 83.8159 30.2206 75.9407 30.0157C67.7854 29.8041 60.1935 31.7276 53.3703 36.2224C49.5727 38.7144 46.4102 42.145 45 46.7819L62.4343 44.356C62.7599 44.2106 63.1377 43.9264 63.4895 44.0255C66.5184 44.237 69.3259 43.5959 72.2083 42.5978C75.5824 41.3848 78.7481 42.7432 81.4156 44.7394C87.1803 49.0888 91.1863 54.5883 91.1863 62.2162C91.1863 67.7091 86.4768 74.0579 79.7969 73.625C78.8849 73.5589 77.8981 73.4828 77.0513 74.1273C75.2209 77.624 72.7652 80.6184 70.3746 83.6854C72.6545 86.0385 75.7909 86.3955 78.5299 87.6514C81.4839 89.2245 84.7181 90.1499 87.7372 91.4323L87.76 91.4389Z" fill="#DCDF72"/>
<path d="M110.116 55.795C106.517 49.6067 102.132 43.9885 97.4005 38.7261C93.5131 34.3896 89.2789 30.7584 83.3431 29.1932C76.1377 27.2721 69.2138 27.7697 62.2243 29.9774C54.2402 32.4686 47.8856 37.095 43.6448 44.4926C43.0787 45.4911 41.5997 46.6279 42.1625 47.5571C42.9413 48.7665 44.453 47.4154 45.6245 47.4846C47.0381 42.8615 50.1467 39.4444 54.0668 36.9566C60.8828 32.4751 68.5462 30.6233 76.7431 30.7683C84.6553 30.9791 90.8725 34.4687 96.0982 40.2254C99.9136 44.4234 103.232 49.1158 106.487 53.7356C111.641 61.0574 114.472 69.1735 113.905 78.278C113.48 84.7497 110.515 89.5903 104.233 91.9365C99.0791 93.8542 93.8436 94.2826 88.6506 92.009L79.4623 88.3085C76.7137 86.9904 73.5265 86.6016 71.2687 84.3279C69.6457 85.646 69.9598 86.3874 71.9035 87.1058C74.0959 87.9559 76.1443 89.241 78.2581 90.2362C84.7567 93.3007 91.1179 96.9253 98.6701 95.7852C105.804 94.7209 112.086 92.1605 115.057 84.7596C116.258 81.6951 116.049 78.5713 115.836 75.4442C115.411 68.3266 113.644 61.8582 110.188 55.8148L110.116 55.795ZM79.4558 62.5567C80.7646 58.932 81.5009 55.0866 78.8897 51.6695C75.9218 47.8274 71.8217 46.048 67.0934 46.048C57.4829 45.9755 48.0917 48.1074 38.6972 50.101C29.7969 52.0221 21.0372 54.2266 13.197 59.1298C10.9065 60.5533 8.89076 62.2602 7.68659 64.5339C3.9432 71.7173 6.69513 81.9587 13.3344 86.6543C18.9822 90.6349 25.4416 91.3499 33.0396 91.3499C35.0847 91.4916 38.1933 91.2049 41.1612 90.6382C50.6277 88.7204 58.8213 84.094 66.7335 78.7591C72.6647 74.952 77.1454 69.2392 79.4492 62.5469L79.4558 62.5567ZM63.1373 79.2731C56.4293 83.3262 49.646 87.2409 41.8091 88.6644C35.4545 89.8012 28.9493 90.1571 22.5915 88.5227C15.1734 86.7433 9.45359 80.0211 9.17545 72.3105C9.03147 68.1124 11.0831 64.7315 14.2637 61.9966C19.172 57.7985 25.0751 55.5974 31.2857 54.243C31.4264 54.243 31.6129 54.4539 31.8518 54.5725C37.0448 50.5195 42.9773 49.7352 49.3679 50.2361C49.934 48.918 51.2723 49.3135 52.2638 49.0268C57.7022 47.7087 63.2093 47.1057 68.651 48.2425C78.8929 50.302 80.1691 56.0686 76.8445 64.4548C74.2268 71.2099 69.0764 75.6583 63.1439 79.283L63.1373 79.2731ZM80.588 74.1492C87.296 74.5775 92.0308 68.2442 92.0308 62.7742C92.0308 55.1954 88.006 49.6858 82.2142 45.3494C79.4558 43.3888 76.3504 42.0081 72.9637 43.2141C70.0678 44.2125 67.2439 44.8485 64.204 44.6376C63.8768 44.6376 63.4972 44.921 63.1439 44.9671C64.9108 44.9671 66.6058 44.8222 68.3368 45.0396C77.0245 46.0381 81.6481 49.877 81.6481 58.5564C81.6481 64.178 80.2345 69.5063 77.9047 74.561C78.6835 74.0602 79.5998 74.0602 80.588 74.1327V74.1492Z" fill="#A2B24F"/>
<path d="M68.3846 47.6047C63.0436 46.4382 57.5678 47.0975 52.3008 48.4093C51.3277 48.6257 50.0141 48.2639 49.4585 49.6502C55.5606 50.891 60.272 54.3937 63.4612 60.0468C66.0947 64.645 65.4042 69.0977 61.38 72.6715C57.1503 76.5394 52.0888 78.3651 46.5424 79.021C39.1556 79.8933 32.4691 77.5605 26.2257 73.5438C24.4914 72.4484 23.9776 70.9877 24.2184 69.0132C24.9089 62.8091 27.8925 57.9911 32.2603 54.0522C32.0548 53.9069 31.8428 53.7142 31.7047 53.7142C25.6027 55.0666 19.8217 57.3656 14.9979 61.6697C11.8762 64.4421 9.90105 67.9415 10.0038 72.2523C10.28 80.0286 15.9614 86.9935 23.1714 88.8868C29.4791 90.4962 35.7931 90.1953 42.0333 89.0322C49.6576 87.5716 56.3828 83.555 62.9023 79.3963C68.7282 75.6772 73.8218 71.1467 76.3493 64.361C79.6766 55.638 78.4305 49.7618 68.3781 47.6452L68.3846 47.6047Z" fill="#DCDF72"/>
<path d="M23.0456 68.7031C22.8342 70.6232 23.3298 72.1709 25.1104 73.2812C31.526 77.34 38.3744 79.6975 46.009 78.816C51.6449 78.1532 56.9241 76.3083 61.2717 72.3998C65.3351 68.7851 66.1214 64.289 63.4124 59.6426C60.0592 53.9644 55.2855 50.4249 49.0087 49.1368C42.6592 48.6244 36.6003 49.4306 31.3245 53.6329C26.7589 57.6166 23.7262 62.5159 23.0523 68.6826L23.0456 68.7031Z" fill="#5E3108"/>
</svg>
