<svg width="128" height="128" viewBox="0 0 128 128" fill="none" xmlns="http://www.w3.org/2000/svg">
<path fill-rule="evenodd" clip-rule="evenodd" d="M38.6222 66.9791C37.8162 68.6531 37.1142 70.0681 36.4472 71.5011C33.1092 78.6781 30.3442 86.0541 28.9172 93.8681C28.1232 98.2141 27.6892 102.592 28.8242 106.955C29.7992 110.704 31.8282 112.629 35.2992 112.788C36.8182 112.859 38.4072 112.537 39.8862 112.12C43.8022 111.011 47.2092 108.869 50.5042 106.549C51.3042 105.985 52.1222 105.633 53.1202 106.004C54.8882 106.662 55.5282 109.006 54.0372 110.119C48.6562 114.128 42.9612 117.585 35.9882 117.799C30.2772 117.975 26.1432 114.912 24.3212 109.468C22.9612 105.406 22.8812 101.228 23.3802 97.0361C24.8622 84.5581 29.6782 73.2211 35.4612 62.2311C35.9582 61.2871 35.9882 60.5371 35.6362 59.5281C34.1922 55.3811 32.8492 51.1981 31.5302 47.0091C31.2802 46.2151 31.0242 45.9891 30.1622 46.1781C24.4962 47.4241 18.9142 48.9451 13.8882 51.9221C11.9472 53.0721 10.0852 54.5001 8.53322 56.1301C5.95222 58.8401 5.90322 61.8391 8.01222 64.9331C9.85222 67.6341 12.4452 69.4811 15.1812 71.1501C16.0372 71.6741 16.9402 72.1201 17.8022 72.6341C19.0552 73.3831 19.4842 74.8351 18.8412 76.0431C18.1962 77.2521 16.7492 77.7311 15.4352 77.0551C11.5912 75.0791 8.00622 72.7341 5.13122 69.4441C3.36922 67.4281 2.07822 65.1621 1.65122 62.4761C1.11922 59.1261 2.07922 56.1741 4.09122 53.5221C6.16622 50.7891 8.89122 48.8391 11.8662 47.2191C17.1422 44.3461 22.8272 42.6301 28.6672 41.3651C29.0672 41.2781 29.4632 41.1701 30.0052 41.0351C29.7302 39.4771 29.4352 37.9651 29.1992 36.4421C28.2422 30.2481 27.8012 24.0491 29.3222 17.8751C29.9242 15.4331 30.8692 13.1251 32.5132 11.1801C35.8692 7.21313 40.1852 6.33013 45.0252 7.51213C49.8092 8.68113 53.8262 11.3301 57.5722 14.4131C58.6322 15.2851 58.6612 16.8601 57.7962 17.8751C56.9132 18.9101 55.5402 19.0451 54.3382 18.2261C52.4502 16.9411 50.6142 15.5681 48.6522 14.4071C46.4042 13.0781 43.9902 12.1351 41.3002 12.1221C39.0782 12.1111 37.3512 13.0151 36.0852 14.8151C34.4812 17.0981 33.9082 19.7321 33.6052 22.4331C32.9642 28.1461 33.7252 33.7621 34.8382 39.3511C34.9572 39.9451 35.1852 40.1551 35.8102 40.0921C40.3202 39.6421 44.8312 39.1931 49.3482 38.8161C50.3302 38.7351 50.9712 38.3801 51.5802 37.6101C57.4502 30.1951 63.8852 23.3291 71.4552 17.6001C75.6722 14.4091 80.1282 11.6271 85.2552 10.1081C88.4672 9.15713 91.7182 8.80513 94.9532 9.94213C98.9932 11.3621 101.251 14.4321 102.415 18.3941C103.649 22.6001 103.456 26.8881 102.955 31.1751C102.818 32.2734 102.642 33.3664 102.427 34.4521C102.146 35.9301 101.05 36.7131 99.5742 36.5411C98.2322 36.3851 97.3562 35.3061 97.4972 33.8081C97.6922 31.7421 98.1632 29.6871 98.1842 27.6251C98.2092 25.1851 98.1572 22.6821 97.6492 20.3121C96.5902 15.3841 93.1812 13.4511 88.1382 14.5631C84.3552 15.3961 81.0002 17.1761 77.8062 19.2811C71.2452 23.6051 65.6442 29.0121 60.4442 34.8581C59.4772 35.9451 58.5472 37.0661 57.6072 38.1761C57.5502 38.2421 57.5542 38.3601 57.4822 38.6411H58.8432C72.2342 38.7761 85.4282 40.3681 98.3222 44.0791C104.462 45.8471 110.389 48.1511 115.843 51.5441C118.745 53.3491 121.409 55.4381 123.516 58.1641C127.813 63.7241 127.452 69.9661 122.509 74.9451C119.171 78.3081 115.06 80.4321 110.681 82.0821C109.442 82.5471 108.078 81.8641 107.604 80.6771C107.083 79.3731 107.648 78.0241 108.974 77.3811C110.996 76.4011 113.099 75.5521 115.011 74.3881C116.609 73.4196 118.071 72.243 119.358 70.8891C122.035 68.0401 122.134 64.9261 119.864 61.7381C118.164 59.3501 115.88 57.6041 113.424 56.0781C107.364 52.3121 100.714 49.9791 93.8672 48.1581C86.7292 46.2591 79.4772 44.9341 72.1122 44.4101C66.2432 43.9931 60.3532 43.8731 54.4732 43.5941C53.6242 43.5531 53.0442 43.8041 52.5722 44.5321C49.1252 49.8481 45.6392 55.1391 42.2102 60.4671C41.9602 60.8551 41.8542 61.5531 42.0252 61.9641C47.8302 75.7781 55.1822 88.6721 64.9252 100.119C69.0272 104.936 73.4882 109.391 78.9052 112.762C81.4472 114.343 84.1002 115.662 87.1772 115.867C89.9652 116.055 91.9992 114.888 93.3832 112.522C94.6872 110.293 95.2102 107.827 95.4442 105.293C96.2002 97.1161 94.5832 89.2291 92.4392 81.4231C90.2432 73.4271 87.1352 65.7691 83.5742 58.2871C83.2872 57.6851 83.0522 56.9701 83.0832 56.3221C83.1402 55.1431 84.0702 54.3041 85.2332 54.1221C86.2552 53.9621 87.3312 54.5241 87.8422 55.6201C89.1162 58.3481 90.4092 61.0711 91.5762 63.8461C95.1782 72.4171 98.0782 81.2111 99.6102 90.4091C100.679 96.8291 101.19 103.272 99.7062 109.703C99.3685 111.151 98.8865 112.561 98.2672 113.913C95.7402 119.437 90.6162 121.933 84.6792 120.635C79.8522 119.578 75.7782 117.056 71.9772 114.043C64.9862 108.502 59.3142 101.746 54.1842 94.5081C48.3362 86.2631 43.3972 77.4951 39.2592 68.2741C39.1042 67.9311 38.9262 67.5981 38.6222 66.9791ZM36.0942 45.0291L39.2902 55.1931C41.8152 51.3391 44.1692 47.7471 46.7012 43.8801L36.0942 45.0291ZM64.4682 71.2671C60.4512 71.2621 57.1822 68.0061 57.1902 64.0181C57.1972 59.9661 60.4622 56.7371 64.5462 56.7381C68.5602 56.7401 71.8222 59.9931 71.8252 63.9931C71.8272 68.0401 68.5582 71.2721 64.4682 71.2671Z" fill="#67595D"/>
</svg>
