<svg width="128" height="128" viewBox="0 0 128 128" fill="none" xmlns="http://www.w3.org/2000/svg">
<path d="M49.6601 53.23H50.8001L58.9901 74.8H58.0001L55.2101 67.45H45.1601L42.3401 74.8H41.3501L49.6601 53.23ZM54.8501 66.55L50.2301 54.4L45.5201 66.55H54.8501ZM67.8401 54.16H61.1201V53.23H75.5801V54.16H68.8591V74.8H67.8391V54.16H67.8401ZM82.7191 56.11C84.4001 53.87 86.8291 52.75 90.0091 52.75C93.2091 52.75 95.6501 53.86 97.3291 56.08C98.8291 58.101 99.5791 60.75 99.5791 64.031C99.5791 67.33 98.8291 69.97 97.3291 71.951C95.6491 74.15 93.2091 75.251 90.0091 75.251C86.8091 75.251 84.3791 74.15 82.7191 71.951C81.2191 69.971 80.4691 67.33 80.4691 64.031C80.4691 60.77 81.2191 58.13 82.7191 56.11ZM83.4691 71.26C84.9491 73.341 87.1291 74.38 90.0091 74.38C92.9091 74.38 95.0991 73.341 96.5791 71.26C97.8791 69.441 98.5291 67.031 98.5291 64.031C98.5291 61.051 97.8691 58.641 96.5491 56.801C95.0491 54.701 92.8691 53.651 90.0091 53.651C87.1491 53.651 84.9691 54.701 83.4691 56.801C82.1691 58.641 81.5201 61.051 81.5201 64.031C81.5201 67.011 82.1691 69.42 83.4691 71.26ZM106.6 53.23H108.04L115.899 68.409L123.46 53.23H124.87V74.8H123.97V54.49L116.17 69.64H115.569L107.5 54.49V74.8H106.6V53.23Z" fill="#67595D"/>
<path fill-rule="evenodd" clip-rule="evenodd" d="M13.217 64.7838L12.645 65.9748C11.765 67.8648 11.038 69.8078 10.661 71.8658C10.453 73.0098 10.339 74.1628 10.638 75.3118C10.895 76.2988 11.428 76.8058 12.342 76.8478C12.742 76.8668 13.162 76.7818 13.551 76.6718C14.581 76.3798 15.48 75.8158 16.347 75.2048C16.557 75.0558 16.774 74.9628 17.036 75.0608C17.501 75.2338 17.67 75.8508 17.277 76.1438C15.859 77.2008 14.36 78.1108 12.523 78.1658C11.019 78.2128 9.93096 77.4058 9.45196 75.9728C9.09296 74.9028 9.07196 73.8018 9.20296 72.6988C9.59396 69.4128 10.863 66.4278 12.386 63.5328C12.517 63.2838 12.524 63.0868 12.432 62.8218C12.0542 61.7286 11.6938 60.6295 11.351 59.5248C11.284 59.3148 11.216 59.2558 10.99 59.3058C9.49896 59.6338 8.02896 60.0348 6.70396 60.8178C6.18618 61.1215 5.71216 61.4942 5.29496 61.9258C4.61496 62.6398 4.60196 63.4288 5.15696 64.2448C5.64096 64.9558 6.32496 65.4418 7.04496 65.8828L7.73496 66.2738C8.06496 66.4698 8.17796 66.8538 8.00896 67.1708C7.96847 67.2479 7.91295 67.3162 7.84568 67.3716C7.7784 67.4269 7.70073 67.4683 7.61723 67.4932C7.53374 67.518 7.44611 67.526 7.3595 67.5165C7.2729 67.5069 7.18907 67.4802 7.11296 67.4378C6.09896 66.9178 5.15496 66.2998 4.39796 65.4328C3.93496 64.9028 3.59396 64.3048 3.48096 63.5978C3.34096 62.7158 3.59396 61.9378 4.12396 61.2408C4.67096 60.5198 5.38896 60.0068 6.17196 59.5808C7.56196 58.8238 9.05996 58.3728 10.597 58.0388L10.95 57.9518C10.878 57.5408 10.8 57.1428 10.737 56.7418C10.486 55.1118 10.37 53.4788 10.769 51.8528C10.928 51.2088 11.177 50.6018 11.61 50.0888C12.494 49.0448 13.631 48.8118 14.905 49.1228C16.166 49.4318 17.223 50.1288 18.211 50.9408C18.489 51.1708 18.497 51.5858 18.27 51.8528C18.037 52.1248 17.675 52.1608 17.358 51.9448C16.862 51.6068 16.378 51.2448 15.861 50.9398C15.269 50.5898 14.633 50.3408 13.926 50.3378C13.34 50.3358 12.884 50.5728 12.552 51.0468C12.129 51.6478 11.979 52.3418 11.899 53.0528C11.731 54.5578 11.93 56.0368 12.223 57.5088C12.254 57.6648 12.315 57.7208 12.48 57.7038C13.667 57.5848 14.856 57.4678 16.044 57.3688C16.1598 57.3641 16.2731 57.3329 16.375 57.2776C16.4769 57.2223 16.5648 57.1444 16.632 57.0498C18.178 55.0968 19.873 53.2888 21.866 51.7798C22.977 50.9398 24.149 50.2068 25.501 49.8058C26.347 49.5558 27.203 49.4628 28.055 49.7628C29.118 50.1368 29.713 50.9458 30.02 51.9898C30.345 53.0968 30.294 54.2268 30.163 55.3558C30.129 55.6448 30.078 55.9328 30.024 56.2188C29.95 56.6078 29.66 56.8138 29.272 56.7688C28.918 56.7278 28.688 56.4438 28.726 56.0488C28.777 55.5058 28.901 54.9648 28.906 54.4218C28.913 53.7778 28.899 53.1198 28.765 52.4958C28.487 51.1978 27.588 50.6888 26.26 50.9808C25.264 51.2008 24.38 51.6688 23.539 52.2238C21.811 53.3628 20.336 54.7868 18.967 56.3268C18.712 56.6128 18.467 56.9078 18.22 57.2008L18.186 57.3238H18.545C22.072 57.3588 25.547 57.7788 28.942 58.7558C30.558 59.2218 32.12 59.8288 33.555 60.7218C34.32 61.1968 35.021 61.7468 35.576 62.4658C36.707 63.9288 36.612 65.5738 35.31 66.8838C34.431 67.7698 33.349 68.3288 32.195 68.7638C32.0382 68.8189 31.8661 68.8111 31.7149 68.7422C31.5637 68.6732 31.4451 68.5483 31.384 68.3938C31.247 68.0498 31.396 67.6958 31.745 67.5258C32.278 67.2678 32.831 67.0458 33.335 66.7378C33.756 66.4828 34.141 66.1727 34.48 65.8158C35.185 65.0658 35.211 64.2458 34.613 63.4068C34.166 62.7788 33.565 62.3178 32.918 61.9158C31.322 60.9238 29.57 60.3098 27.768 59.8308C25.888 59.3308 23.979 58.9818 22.039 58.8438C20.493 58.7338 18.941 58.7018 17.393 58.6288C17.169 58.6188 17.017 58.6848 16.893 58.8758C15.985 60.2758 15.067 61.6698 14.164 63.0728C14.1288 63.1316 14.1063 63.1971 14.0977 63.2651C14.0891 63.3331 14.0946 63.4021 14.114 63.4678C15.643 67.1058 17.58 70.5008 20.145 73.5148C21.225 74.7848 22.401 75.9568 23.828 76.8448C24.497 77.2618 25.195 77.6098 26.006 77.6618C26.74 77.7128 27.276 77.4048 27.64 76.7818C27.985 76.1948 28.121 75.5458 28.184 74.8778C28.382 72.7258 27.956 70.6478 27.392 68.5918C26.813 66.4868 25.996 64.4688 25.058 62.4988C24.983 62.3408 24.919 62.1518 24.928 61.9808C24.943 61.6698 25.188 61.4498 25.494 61.4008C25.764 61.3588 26.046 61.5058 26.181 61.7958C26.517 62.5138 26.858 63.2318 27.164 63.9628C28.113 66.2198 28.877 68.5358 29.28 70.9578C29.561 72.6478 29.696 74.3458 29.305 76.0388C29.2162 76.4199 29.0892 76.7912 28.926 77.1468C28.26 78.6018 26.91 79.2588 25.347 78.9178C24.076 78.6398 23.003 77.9748 22.002 77.1818C20.161 75.7228 18.667 73.9438 17.316 72.0368C15.783 69.8678 14.4663 67.5537 13.385 65.1278L13.217 64.7838ZM12.551 59.0028L13.394 61.6798L15.345 58.7008L12.551 59.0028ZM20.023 65.9128C19.5159 65.9136 19.0294 65.7131 18.6701 65.3553C18.3108 64.9976 18.1083 64.5118 18.107 64.0048C18.1071 63.7514 18.1574 63.5005 18.255 63.2667C18.3527 63.0329 18.4957 62.8207 18.6758 62.6425C18.8559 62.4642 19.0695 62.3234 19.3044 62.2282C19.5392 62.133 19.7906 62.0853 20.044 62.0878C20.5514 62.0881 21.0381 62.2894 21.3974 62.6478C21.7567 63.0062 21.9594 63.4923 21.961 63.9998C21.9608 64.2531 21.9105 64.5039 21.8127 64.7375C21.715 64.9712 21.5718 65.1832 21.3915 65.3611C21.2113 65.5391 20.9975 65.6794 20.7626 65.7741C20.5276 65.8689 20.2762 65.916 20.023 65.9128Z" fill="#67595D"/>
</svg>
