<svg width="128" height="128" viewBox="0 0 128 128" fill="none" xmlns="http://www.w3.org/2000/svg">
<path d="M90.6051 76.1738C87.8871 75.9998 86.3061 74.4538 85.8881 71.5608C85.7761 70.7908 85.7761 70.7708 85.7641 65.7748L85.7541 60.9388H88.1581L88.1681 65.6168C88.1761 69.8328 88.1811 70.3268 88.2221 70.6228C88.3851 71.8268 88.7121 72.6358 89.2661 73.2168C89.7101 73.6818 90.2311 73.9538 90.9501 74.0988C91.2901 74.1668 92.2561 74.1668 92.5661 74.0988C93.2612 73.9569 93.8982 73.6113 94.3961 73.1058C94.9841 72.5188 95.4191 71.6858 95.6301 70.7438L95.7011 70.4258L95.7091 65.7088L95.7171 60.9918H98.1721V75.8228H95.7421V74.6458C95.7421 73.8468 95.7331 73.4728 95.7151 73.4788C95.6597 73.5431 95.6129 73.6144 95.5761 73.6908C95.1327 74.4777 94.4821 75.1279 93.6951 75.5708C92.7791 76.0758 91.8591 76.2548 90.6041 76.1738H90.6051ZM118.188 76.1618C117.199 76.0797 116.242 75.7678 115.394 75.2508C113.654 74.1758 112.624 72.4028 112.322 69.9638C112.218 69.1208 112.205 67.9868 112.292 67.2698C112.487 65.6668 113.117 64.0938 114.015 62.9708C114.245 62.6828 114.767 62.1618 115.055 61.9318C115.831 61.312 116.74 60.8789 117.71 60.6658C118.274 60.5428 119.265 60.4858 119.864 60.5408C121.366 60.6798 122.744 61.3868 123.68 62.4988C124.632 63.6288 125.154 65.2088 125.221 67.1538C125.231 67.4588 125.234 67.9938 125.227 68.3418L125.213 68.9748L119.949 68.9818L114.686 68.9878V69.2228C114.696 69.9868 114.857 70.7413 115.16 71.4428C115.419 72.0398 115.865 72.6918 116.23 73.0068C116.979 73.6538 117.914 74.0482 118.9 74.1338C119.271 74.1688 120.219 74.1318 120.643 74.0668C121.833 73.8895 122.961 73.4247 123.93 72.7128C124.04 72.6308 124.144 72.5538 124.163 72.5428C124.19 72.5258 124.196 72.7388 124.195 73.6378V74.7538L123.945 74.9078C122.871 75.5645 121.668 75.9811 120.418 76.1288C120.038 76.1758 118.643 76.1968 118.188 76.1618ZM122.77 66.7478C122.77 65.5508 122.265 64.2218 121.55 63.5378C121.041 63.0498 120.391 62.7348 119.692 62.6378C119.345 62.5838 118.615 62.6038 118.249 62.6778C117.502 62.82 116.816 63.1842 116.28 63.7228C115.691 64.3073 115.245 65.0207 114.978 65.8068C114.878 66.0948 114.762 66.5668 114.726 66.8308L114.709 66.9558H122.769L122.77 66.7478ZM51.3651 75.7898L55.3371 65.3658L59.2981 54.9758H61.8441L61.9491 55.2458C62.2721 56.0718 69.8791 75.7998 69.8791 75.8108C69.8791 75.8168 69.2691 75.8228 68.5251 75.8228H67.1711L66.0751 72.9068L64.9781 69.9908H56.1501L56.1121 70.0898C56.0911 70.1438 55.6221 71.4558 55.0711 73.0048L54.0681 75.8218H52.7121C51.6381 75.8218 51.3571 75.8158 51.3661 75.7898H51.3651ZM64.1721 67.7658C64.1721 67.7608 63.4351 65.7628 62.5321 63.3258C60.8461 58.7658 60.7521 58.4918 60.6181 57.7588C60.5561 57.4158 60.5241 57.4068 60.4881 57.7188C60.4349 58.0585 60.3577 58.394 60.2571 58.7228C60.2131 58.8608 59.4531 60.9428 58.5691 63.3508C58.0278 64.8157 57.4915 66.2824 56.9601 67.7508C56.9601 67.7638 58.5831 67.7738 60.5661 67.7738C62.5501 67.7738 64.1721 67.7698 64.1721 67.7658ZM70.6981 75.4428V75.0628L75.0961 69.0238L79.4951 62.9838L75.5121 62.9708L71.5301 62.9578L71.5231 61.9478L71.5161 60.9388H83.0361V61.6208L78.6361 67.6938C76.2181 71.0338 74.2381 73.7718 74.2381 73.7778C74.2381 73.7848 76.1941 73.7908 78.5841 73.7908H82.9301V75.8228H70.6981V75.4428ZM102.973 75.8048C102.963 75.7948 102.955 72.4468 102.955 68.3638V60.9388H105.36V62.4688C105.36 63.3118 105.37 64.0008 105.382 64.0008C105.395 64.0008 105.453 63.8628 105.512 63.6938C105.791 62.9091 106.251 62.2012 106.855 61.6278C107.375 61.1236 108.039 60.794 108.755 60.6848C108.96 60.6518 109.135 60.6448 109.547 60.6558C110.065 60.6698 110.335 60.7078 110.65 60.8098L110.75 60.8428V63.3348L110.465 63.1928C109.973 62.9439 109.423 62.8337 108.873 62.8738C108.486 62.8938 108.232 62.9438 107.923 63.0598C107.294 63.2915 106.761 63.7265 106.407 64.2958C105.868 65.1747 105.526 66.1594 105.402 67.1828C105.382 67.3598 105.371 68.7978 105.366 71.6328L105.359 75.8228H104.175C103.524 75.8228 102.983 75.8148 102.973 75.8048ZM16.8871 44.5908C17.2916 44.5909 17.6859 44.7178 18.0146 44.9537C18.3432 45.1896 18.5896 45.5226 18.7191 45.9058L30.4651 80.7078C30.5632 80.9988 30.5906 81.3089 30.5451 81.6126C30.4996 81.9162 30.3824 82.2047 30.2033 82.4541C30.0241 82.7035 29.7882 82.9066 29.515 83.0467C29.2418 83.1868 28.9391 83.2599 28.6321 83.2598H42.1681C42.6309 83.2586 43.078 83.0917 43.4285 82.7895C43.779 82.4872 44.0098 82.0695 44.0791 81.6118C44.1245 81.3084 44.0971 80.9985 43.9991 80.7078L32.2541 45.9058C32.1247 45.5225 31.8784 45.1894 31.5497 44.9535C31.221 44.7176 30.8266 44.5907 30.4221 44.5908H16.8871ZM16.4501 44.7408C16.0451 44.7411 15.6503 44.8682 15.3213 45.1045C14.9923 45.3407 14.7457 45.6741 14.6161 46.0578L2.87006 80.8578C2.77193 81.1485 2.74442 81.4584 2.78984 81.7618C2.83525 82.0652 2.95227 82.3535 3.13121 82.6027C3.31016 82.8519 3.54588 83.0549 3.81887 83.1949C4.09185 83.3349 4.39426 83.4079 4.70106 83.4078H14.1521C14.5572 83.408 14.9521 83.2811 15.2813 83.0451C15.6105 82.809 15.8573 82.4756 15.9871 82.0918L18.2831 75.3168L13.8961 71.1118C13.8161 71.0318 13.4531 70.3668 13.7761 69.8038C14.1381 69.2608 14.7421 69.2608 14.7421 69.2608H20.3961L23.3641 60.7088L18.2891 45.7848C18.2761 45.7118 17.9911 45.3368 17.5431 45.0388C17.0951 44.7388 16.4491 44.7408 16.4491 44.7408H16.4501ZM14.8541 69.5148C14.6751 69.5147 14.5002 69.5684 14.3522 69.6691C14.2042 69.7698 14.09 69.9127 14.0244 70.0792C13.9588 70.2457 13.9448 70.4281 13.9844 70.6027C14.0239 70.7772 14.1151 70.9358 14.2461 71.0578L26.6201 82.6078C26.9801 82.9438 27.4381 83.1408 27.9301 83.1408C27.9301 83.1408 28.3501 83.1698 28.6031 83.1298C29.1971 83.0358 29.7561 82.5508 29.9411 82.3468C30.4171 81.7128 30.2011 80.7268 30.2011 80.7268L26.4551 69.5138L14.8541 69.5148Z" fill="#474747"/>
</svg>
