<svg width="128" height="128" viewBox="0 0 128 128" fill="none" xmlns="http://www.w3.org/2000/svg">
<path d="M43.9831 4.65339C45.22 4.65361 46.4257 5.04182 47.4303 5.76335C48.4349 6.48488 49.1879 7.50338 49.5831 8.67539L85.4931 115.071C85.7935 115.961 85.8776 116.909 85.7386 117.837C85.5997 118.766 85.2416 119.648 84.694 120.41C84.1464 121.173 83.425 121.794 82.5897 122.222C81.7543 122.651 80.8289 122.874 79.8901 122.873H121.27C122.208 122.872 123.133 122.648 123.967 122.22C124.802 121.791 125.523 121.17 126.07 120.408C126.618 119.646 126.976 118.764 127.115 117.835C127.253 116.906 127.169 115.958 126.868 115.068L90.9611 8.67239C90.5659 7.49997 89.8126 6.48116 88.8076 5.75958C87.8026 5.038 86.5964 4.65004 85.3591 4.65039L43.9831 4.65339ZM42.6471 5.13139C41.408 5.13136 40.2001 5.52015 39.1937 6.24297C38.1872 6.96578 37.4329 7.98619 37.0371 9.16039L1.13214 115.55C0.83205 116.439 0.747984 117.387 0.886891 118.315C1.0258 119.243 1.38369 120.125 1.93094 120.887C2.4782 121.649 3.1991 122.27 4.03399 122.699C4.86889 123.127 5.79377 123.35 6.73214 123.35H35.6251C36.8641 123.35 38.0711 122.94 39.0771 122.237C40.0834 121.515 40.8378 120.495 41.2341 119.321L48.2531 98.6114L34.8421 85.7544C34.5961 85.4814 33.4891 83.4804 34.4731 81.7524C35.5811 80.0934 37.4281 80.0934 37.4281 80.0934H54.7131L63.7871 53.9484L48.2741 8.32139C48.2321 8.11639 47.3601 6.95639 45.9931 6.04139C44.6231 5.12639 42.6481 5.13239 42.6481 5.13239L42.6471 5.13139ZM37.7671 80.8714C37.2197 80.8706 36.6847 81.0347 36.2319 81.3424C35.7791 81.6501 35.4296 82.087 35.2288 82.5963C35.028 83.1056 34.9853 83.6636 35.1063 84.1975C35.2273 84.7314 35.5064 85.2164 35.9071 85.5894L73.7371 120.899C74.8381 121.929 76.2391 122.53 77.7441 122.53C77.7441 122.53 79.0261 122.598 79.7991 122.497C81.6161 122.224 83.3241 120.729 83.8891 120.107C85.3461 118.168 84.6831 115.157 84.6831 115.157L73.2331 80.8774L37.7671 80.8714Z" fill="#474747"/>
</svg>
