<svg width="128" height="128" viewBox="0 0 128 128" fill="none" xmlns="http://www.w3.org/2000/svg">
<path d="M90.7172 76.2929C87.9872 76.1179 86.4002 74.5649 85.9802 71.6599C85.8682 70.8869 85.8682 70.8669 85.8562 65.8499L85.8452 60.9939H88.2612L88.2702 65.6909C88.2792 69.9239 88.2842 70.4209 88.3252 70.7179C88.4892 71.9269 88.8162 72.7399 89.3742 73.3229C89.8202 73.7899 90.3422 74.0629 91.0652 74.2079C91.4052 74.2769 92.3762 74.2769 92.6872 74.2079C93.3852 74.0657 94.025 73.719 94.5252 73.2119C95.1162 72.6219 95.5532 71.7849 95.7652 70.8389L95.8352 70.5199L95.8432 65.7839L95.8512 61.0459H98.3182V75.9399H95.8772V74.7579C95.8772 73.9559 95.8682 73.5799 95.8492 73.5859C95.7938 73.6505 95.7471 73.7221 95.7102 73.7989C95.2652 74.5895 94.6118 75.2429 93.8212 75.6879C92.9012 76.1929 91.9782 76.3729 90.7172 76.2929ZM118.417 76.2809C117.423 76.1982 116.462 75.8845 115.61 75.3649C113.862 74.2849 112.828 72.5049 112.526 70.0569C112.421 69.2089 112.408 68.0709 112.496 67.3509C112.691 65.7409 113.324 64.1609 114.226 63.0339C114.456 62.7439 114.981 62.2209 115.27 61.9899C116.05 61.3676 116.962 60.9328 117.936 60.7189C118.502 60.5959 119.498 60.5379 120.099 60.5929C121.609 60.7329 122.991 61.4429 123.931 62.5599C124.887 63.6949 125.411 65.2809 125.479 67.2339C125.49 67.6315 125.492 68.0292 125.484 68.4269L125.471 69.0629L120.185 69.0689L114.899 69.0759V69.3119C114.899 70.0289 115.073 70.8459 115.375 71.5419C115.635 72.1409 116.084 72.7949 116.45 73.1119C117.202 73.7614 118.14 74.1575 119.13 74.2439C119.504 74.2789 120.456 74.2419 120.881 74.1769C122.096 73.9899 123.251 73.5139 124.182 72.8169C124.292 72.7339 124.397 72.6569 124.416 72.6459C124.443 72.6289 124.45 72.8429 124.449 73.7459V74.8659L124.198 75.0209C123.12 75.6804 121.912 76.0986 120.656 76.2469C120.274 76.2939 118.873 76.3149 118.416 76.2809H118.417ZM123.017 66.8259C123.017 65.6249 122.51 64.2899 121.793 63.6029C121.282 63.1125 120.628 62.7962 119.926 62.6989C119.578 62.6449 118.845 62.6659 118.478 62.7389C117.728 62.8817 117.039 63.2477 116.501 63.7889C115.909 64.3754 115.461 65.0916 115.192 65.8809C115.092 66.1709 114.976 66.6459 114.939 66.9099L114.922 67.0359H123.017V66.8259ZM51.3122 75.9059L55.3012 65.4389L59.2792 55.0049H61.8352L61.9412 55.2749C62.2652 56.1059 69.9042 75.9169 69.9042 75.9269C69.9042 75.9339 69.2922 75.9389 68.5442 75.9389H67.1842L66.0842 73.0109L64.9822 70.0829H56.1162L56.0782 70.1829C56.0572 70.2369 55.5862 71.5549 55.0322 73.1099L54.0262 75.9389H52.6632C51.5852 75.9389 51.3032 75.9329 51.3122 75.9059ZM64.1732 67.8489C64.1732 67.8439 63.4332 65.8379 62.5272 63.3889C60.8332 58.8109 60.7382 58.5349 60.6042 57.7999C60.5412 57.4559 60.5092 57.4459 60.4722 57.7599C60.4194 58.1006 60.3425 58.4371 60.2422 58.7669C60.1972 58.9059 59.4342 60.9969 58.5462 63.4149C58.0032 64.8865 57.4648 66.3598 56.9312 67.8349C56.9312 67.8469 58.5612 67.8569 60.5522 67.8569C62.5442 67.8569 64.1732 67.8529 64.1732 67.8489ZM70.7262 75.5589V75.1769L75.1432 69.1119L79.5602 63.0469L75.5602 63.0339L71.5622 63.0209L71.5552 62.0069L71.5482 60.9939H83.1162V61.6779L78.6992 67.7759C76.2692 71.1299 74.2812 73.8799 74.2812 73.8859C74.2812 73.8929 76.2452 73.8989 78.6452 73.8989H83.0102V75.9389H70.7262V75.5589ZM103.137 75.9219C103.127 75.9119 103.12 72.5489 103.12 68.4489V60.9929H105.534V62.5299C105.534 63.3759 105.544 64.0669 105.556 64.0669C105.569 64.0669 105.628 63.9289 105.687 63.7599C105.967 62.9716 106.429 62.2606 107.036 61.6849C107.558 61.1788 108.225 60.8478 108.943 60.7379C109.15 60.7049 109.325 60.6979 109.739 60.7089C110.259 60.7229 110.53 60.7609 110.846 60.8639L110.946 60.8959V63.3999L110.661 63.2579C110.167 63.0076 109.614 62.8969 109.062 62.9379C108.673 62.9579 108.418 63.0079 108.107 63.1239C107.476 63.3567 106.941 63.7934 106.586 64.3649C106.045 65.2477 105.701 66.2369 105.576 67.2649C105.556 67.4419 105.545 68.8869 105.54 71.7339L105.533 75.9409H104.344C103.69 75.9409 103.147 75.9329 103.137 75.9229V75.9219Z" fill="#0089D6"/>
<path d="M16.2553 44.5768H28.4552L15.7909 82.0998C15.6608 82.4855 15.413 82.8206 15.0824 83.058C14.7518 83.2954 14.355 83.4231 13.9479 83.423H4.45376C4.14541 83.423 3.84151 83.3495 3.56715 83.2088C3.29279 83.0681 3.05585 82.8641 2.8759 82.6137C2.69599 82.3633 2.57833 82.0736 2.53265 81.7687C2.48697 81.4637 2.51459 81.1523 2.61322 80.8601L14.4124 45.8998C14.5425 45.5141 14.7903 45.1789 15.1209 44.9415C15.4516 44.704 15.8483 44.5763 16.2553 44.5762V44.5768Z" fill="url(#paint0_linear_3_6750)"/>
<path d="M33.9828 69.7451H14.6378C14.4579 69.7447 14.282 69.7985 14.1332 69.8995C13.9843 70.0006 13.8693 70.1441 13.8033 70.3114C13.7372 70.4788 13.7231 70.6621 13.7628 70.8376C13.8025 71.0131 13.8941 71.1725 14.0258 71.2951L26.4568 82.8981C26.819 83.2357 27.2957 83.4233 27.7908 83.4231H38.7448L33.9828 69.7451Z" fill="#0078D4"/>
<path d="M16.2555 44.5762C15.844 44.5746 15.4428 44.7047 15.1105 44.9473C14.7782 45.19 14.5322 45.5325 14.4084 45.925L2.62806 80.8278C2.52289 81.121 2.48988 81.4352 2.53183 81.7439C2.57377 82.0525 2.68943 82.3465 2.86903 82.6011C3.04863 82.8556 3.28688 83.0631 3.56363 83.2061C3.84039 83.349 4.1475 83.4233 4.459 83.4225H14.1985C14.5612 83.3577 14.9002 83.1978 15.1809 82.9591C15.4616 82.7203 15.6739 82.4114 15.7961 82.0638L18.1452 75.1403L26.5368 82.967C26.8884 83.2579 27.3294 83.4187 27.7857 83.4225H38.6994L33.9128 69.744L19.9594 69.7473L28.4994 44.5762H16.2555Z" fill="url(#paint1_linear_3_6750)"/>
<path d="M31.8377 45.8974C31.7077 45.5122 31.4602 45.1776 31.13 44.9405C30.7998 44.7035 30.4036 44.5761 29.9971 44.5762H16.4009C16.8073 44.5762 17.2034 44.7037 17.5335 44.9407C17.8637 45.1777 18.1111 45.5123 18.2411 45.8974L30.0406 80.8592C30.1394 81.1514 30.1672 81.463 30.1216 81.768C30.076 82.0731 29.9584 82.3629 29.7786 82.6135C29.5987 82.8641 29.3617 83.0682 29.0873 83.209C28.8129 83.3498 28.5088 83.4231 28.2004 83.423H41.7972C42.1056 83.4228 42.4094 83.3492 42.6837 83.2084C42.9579 83.0675 43.1947 82.8634 43.3745 82.6129C43.5543 82.3624 43.6719 82.0727 43.7175 81.7678C43.7632 81.4628 43.7357 81.1514 43.6372 80.8592L31.8377 45.8974Z" fill="url(#paint2_linear_3_6750)"/>
<defs>
<linearGradient id="paint0_linear_3_6750" x1="20.702" y1="47.4554" x2="8.03229" y2="84.8843" gradientUnits="userSpaceOnUse">
<stop stop-color="#114A8B"/>
<stop offset="1" stop-color="#0669BC"/>
</linearGradient>
<linearGradient id="paint1_linear_3_6750" x1="24.6597" y1="64.8977" x2="21.7291" y2="65.8887" gradientUnits="userSpaceOnUse">
<stop stop-opacity="0.3"/>
<stop offset="0.071" stop-opacity="0.2"/>
<stop offset="0.321" stop-opacity="0.1"/>
<stop offset="0.623" stop-opacity="0.05"/>
<stop offset="1" stop-opacity="0"/>
</linearGradient>
<linearGradient id="paint2_linear_3_6750" x1="23.0479" y1="46.363" x2="36.9554" y2="83.4149" gradientUnits="userSpaceOnUse">
<stop stop-color="#3CCBF4"/>
<stop offset="1" stop-color="#2892DF"/>
</linearGradient>
</defs>
</svg>
