<svg width="128" height="128" viewBox="0 0 128 128" fill="none" xmlns="http://www.w3.org/2000/svg">
<path d="M90.1799 50.4996V50.6496H90.4899C90.4927 50.5019 90.5232 50.356 90.5799 50.2196V49.9496C90.4499 49.9496 90.3199 50.1596 90.1999 50.5296L90.1799 50.4996ZM87.2399 43.4196V43.1496H86.7999V43.4196H87.2399ZM78.6999 59.4196C78.0562 58.3177 77.2656 57.3084 76.3499 56.4196C76.3499 56.0996 76.8499 55.6296 77.9399 54.9996L80.9999 52.3396C81.8466 51.0515 82.292 49.5411 82.2799 47.9996V47.5396C82.1599 46.1596 81.1599 45.0496 79.2799 44.1996C78.1599 43.4463 76.1599 43.0296 73.2799 42.9496C70.0396 43.3734 66.8732 44.2416 63.8699 45.5296C62.7032 46.3596 61.4914 47.1241 60.2399 47.8196V48.0496C60.3705 48.0245 60.4937 47.9698 60.5999 47.8896C60.6313 47.8819 60.6641 47.8815 60.6957 47.8886C60.7272 47.8956 60.7568 47.9099 60.7819 47.9302C60.8071 47.9505 60.8272 47.9764 60.8407 48.0058C60.8543 48.0352 60.8608 48.0673 60.8599 48.0996L60.9999 47.9996H61.1099V48.0996C60.3574 48.8697 59.5107 49.5417 58.5899 50.0996L58.7199 50.3396H58.6099L58.3299 50.2396C58.3299 50.3196 58.2199 50.3796 57.9899 50.3996V50.4996L58.2599 50.8396C58.1251 50.8362 57.9925 50.8056 57.8699 50.7496C57.4198 50.8125 57.0077 51.0363 56.7099 51.3796L56.8699 50.6896C57.3834 48.5475 57.7708 46.3771 58.0299 44.1896L57.9999 43.9996C57.5864 43.7255 57.2185 43.388 56.9099 42.9996C56.9207 42.8365 56.9207 42.6728 56.9099 42.5096V42.4096H56.7999C55.5665 44.2563 53.1965 47.4063 49.6899 51.8596C47.0232 55.0263 45.6432 56.7863 45.5499 57.1396C44.4599 58.2696 43.9399 58.9496 43.9899 59.1396C43.6999 59.3296 43.5799 59.5096 43.6299 59.7196C43.6135 59.7257 43.596 59.7282 43.5786 59.7269C43.5611 59.7255 43.5442 59.7204 43.5289 59.7118C43.5137 59.7033 43.5005 59.6915 43.4903 59.6773C43.4801 59.6631 43.4731 59.6468 43.4699 59.6296C43.2416 60.0014 42.9391 60.3221 42.5812 60.5716C42.2233 60.8211 41.8177 60.9941 41.3899 61.0796L40.3899 61.2996C40.3584 61.3043 40.3283 61.3155 40.3014 61.3324C40.2745 61.3493 40.2513 61.3716 40.2335 61.3979C40.2156 61.4243 40.2034 61.454 40.1976 61.4853C40.1919 61.5165 40.1926 61.5487 40.1999 61.5796V61.6996L40.5599 61.6196V61.7196L39.7399 62.0396L38.2899 62.3796H37.5299C37.4199 62.4896 38.1399 62.3796 37.8599 62.4396L36.8599 62.6596C36.2799 62.7896 35.9699 62.7396 35.8599 62.5096H35.7499C35.7679 62.5886 35.7679 62.6706 35.7499 62.7496L35.6899 62.5196L34.9299 62.6996C34.9765 62.4263 33.9999 61.1929 31.9999 58.9996C31.9999 58.5696 32.6699 57.9496 34.1199 57.1396L38.1999 53.5496C39.1132 52.3763 39.6566 50.4929 39.8299 47.8996L39.7699 47.2896C39.6099 45.4596 38.2899 43.9896 35.7699 42.8496C34.2999 41.8496 31.6499 41.3196 27.8299 41.2396C23.5676 41.7976 19.4001 42.9278 15.4399 44.5996C13.9076 45.6937 12.3114 46.6955 10.6599 47.5996V47.9196C10.8314 47.8904 10.9948 47.8257 11.1399 47.7296C11.1798 47.7189 11.2217 47.7175 11.2623 47.7255C11.3029 47.7335 11.341 47.7508 11.3739 47.7759C11.4068 47.801 11.4334 47.8334 11.4518 47.8704C11.4701 47.9075 11.4798 47.9483 11.4799 47.9896L11.7999 47.8096H11.9999V47.9996C10.9889 48.9903 9.86832 49.8626 8.65988 50.5996L8.83988 50.8796H8.69988L8.35988 50.7596C8.35988 50.8496 8.20988 50.9196 7.87988 50.9496V51.1196L8.24988 51.5296C8.0784 51.5281 7.90875 51.4942 7.74988 51.4296C7.30451 51.5237 6.88463 51.7127 6.51881 51.9836C6.15299 52.2545 5.8498 52.601 5.62988 52.9996L5.80988 53.2796C6.11784 52.9439 6.4753 52.6573 6.86988 52.4296V52.8896C6.70028 52.9253 6.53797 52.9895 6.38988 53.0796L6.76988 53.6596C7.49333 52.8942 8.30966 52.2224 9.19988 51.6596C9.63988 51.7696 9.86988 51.9096 9.87988 52.0596H10.2199C12.3831 50.4071 14.7925 49.1046 17.3599 48.1996V48.5196C16.9199 49.1863 16.6232 49.5196 16.4699 49.5196C16.4806 49.736 16.5613 49.9431 16.6999 50.1096C16.7399 50.5096 15.6699 53.2096 13.4899 58.2096C8.60988 69.7363 4.48988 78.2796 1.12988 83.8396C1.16101 84.003 1.22945 84.157 1.32988 84.2896C1.88852 84.1982 2.4227 83.9941 2.89988 83.6896H3.07988V84.0096H3.38988L3.70988 83.8296C3.70988 83.9196 3.81988 83.9696 4.03988 83.9496V84.2696C3.99856 84.7813 3.81881 85.2722 3.51988 85.6896C3.04248 86.3938 2.69062 87.1754 2.47988 87.9996V88.1496H2.78988C4.00779 86.8273 5.0375 85.3433 5.84988 83.7396C8.95372 82.9116 11.9683 81.7795 14.8499 80.3596C16.5591 80.312 18.2129 79.7432 19.5899 78.7296V78.5596L18.8099 78.7896H18.6299V78.6196C19.751 78.5429 20.8377 78.2001 21.7999 77.6196C24.7732 75.3263 27.0199 73.7029 28.5399 72.7496C31.6599 70.4563 33.6865 68.2229 34.6199 66.0496L35.1399 65.9296C35.3897 65.9434 35.6401 65.9434 35.8899 65.9296C35.8899 65.8496 35.8899 65.7996 35.9899 65.7796C36.6899 65.7096 36.3499 65.7796 36.7999 65.7196L37.9699 65.4496H38.1699L38.0799 65.5096C38.2219 65.5369 38.3678 65.5369 38.5099 65.5096L38.5899 65.8496L33.2499 74.3396L31.9999 75.7096L31.4199 77.6496H31.5299L32.1099 77.4096L31.9199 78.1596L31.9799 78.3796L32.1399 78.5796C32.0699 78.5796 32.0399 78.6496 32.0599 78.7296V78.8496L32.2999 78.7896C32.6532 78.4829 32.8032 78.2029 32.7499 77.9496C32.9978 78.0135 33.255 78.0338 33.5099 78.0096V78.1296C33.2799 78.1896 33.1599 78.3696 33.1399 78.6896V78.8096H33.2699C35.2099 76.6896 39.9599 69.4596 43.7699 64.5396C43.6499 64.0063 45.6499 63.2663 49.7699 62.3196H49.8999C50.0466 62.9863 49.7132 64.5429 48.8999 66.9896C48.5815 67.7769 48.3436 68.5944 48.1899 69.4296C47.7875 70.4733 47.4796 71.5509 47.2699 72.6496L45.8999 77.3396C44.9471 79.8215 44.2241 82.3856 43.7399 84.9996C43.8719 84.9727 44.0079 84.9727 44.1399 84.9996L44.3499 84.8196C44.3531 84.8368 44.3601 84.8531 44.3703 84.8673C44.3805 84.8815 44.3937 84.8933 44.4089 84.9018C44.4242 84.9104 44.4411 84.9155 44.4586 84.9169C44.476 84.9182 44.4935 84.9157 44.5099 84.9096L44.4299 84.5696H45.0599C45.2499 84.5696 45.3999 84.2896 45.5399 83.8596C45.5399 83.2196 45.6399 82.8596 45.9299 82.7996C46.0774 82.0006 46.3191 81.2218 46.6499 80.4796C46.8035 79.5809 47.0759 78.7066 47.4599 77.8796C48.0099 75.8796 48.4599 74.8796 48.6699 74.8196L48.7299 75.0596L48.3299 76.0596C47.8094 78.5595 47.1007 81.0165 46.2099 83.4096L46.4199 84.2996H46.5499C48.2832 80.5729 50.7765 73.1929 54.0299 62.1596C54.0772 61.7186 54.2253 61.2944 54.4629 60.9198C54.7005 60.5452 55.0211 60.2304 55.3999 59.9996L55.2099 59.7996V59.6996C55.5147 59.6525 55.7919 59.4961 55.9899 59.2596C55.9899 59.1796 55.6499 59.0496 54.9899 58.8896L56.6099 51.8896C56.789 51.6968 56.9984 51.5347 57.2299 51.4096V51.7596C57.0992 51.7847 56.9761 51.8395 56.8699 51.9196L57.1799 52.3596C57.7235 51.779 58.3345 51.2654 58.9999 50.8296C59.3399 50.9196 59.4999 51.0396 59.5199 51.1496H59.7599C61.4065 49.9016 63.2388 48.9196 65.1899 48.2396V48.4696C64.8632 48.9629 64.6399 49.2129 64.5199 49.2196C64.5331 49.3795 64.5845 49.5338 64.6699 49.6696C64.0278 51.7824 63.2221 53.842 62.2599 55.8296C59.5395 62.5437 56.3862 69.0741 52.8199 75.3796C52.8508 75.5041 52.9088 75.6202 52.9899 75.7196C53.4115 75.652 53.8138 75.4952 54.1699 75.2596H54.2799V75.4896H54.5399L54.7699 75.3696C54.7699 75.4363 54.8532 75.4629 55.0199 75.4496V75.6996C54.9852 76.0827 54.8469 76.4491 54.6199 76.7596C54.2233 77.3067 53.9348 77.9244 53.7699 78.5796V78.6996H54.0099C54.9348 77.6959 55.7156 76.5684 56.3299 75.3496C58.674 74.7181 60.9513 73.8608 63.1299 72.7896C64.4349 72.7558 65.6982 72.323 66.7499 71.5496V71.4296L66.1399 71.6096H66.0099V71.4896C66.8597 71.4274 67.6825 71.1634 68.4099 70.7196C70.6599 68.9896 72.4099 67.7196 73.5299 67.0196C77.1299 64.3996 78.7999 61.8896 78.5999 59.4696L78.6999 59.4196ZM78.0799 59.5796L78.1599 60.5196C78.0499 60.7496 77.9299 60.8696 77.8199 60.8796L77.6799 59.2796C77.9399 59.3696 78.0699 59.4696 78.0799 59.5796ZM7.51988 51.9996H7.35988V51.7096L7.99988 51.6596V51.8096C7.8318 51.8399 7.67179 51.9046 7.52988 51.9996H7.51988ZM4.37988 83.3996C4.07036 83.2442 3.72578 83.1718 3.37988 83.1896V82.7296C3.37988 82.5496 3.45988 82.4296 3.68988 82.3896C3.91988 82.3496 4.01988 82.5196 4.02988 82.8196C4.29283 82.4577 4.59095 82.1228 4.91988 81.8196L5.25988 81.9596C5.14988 82.8896 4.85988 83.3696 4.39988 83.3996H4.37988ZM37.9299 48.2996C37.7699 48.2996 37.4499 47.8196 36.9999 46.8496V46.5596C37.2999 46.5596 37.6099 47.0196 37.9299 48.0096V48.2996ZM37.4799 44.8196L37.3499 45.1296L32.7899 43.2296C35.8299 43.3296 37.3932 43.8596 37.4799 44.8196ZM18.2499 61.3496L17.6099 61.4096V61.1196L18.2499 61.0596V61.3496ZM17.7299 51.4296H17.8899V51.8896C17.7399 51.8896 17.5499 52.1196 17.2999 52.5496V52.2296C17.5899 51.8896 17.7399 51.6196 17.7199 51.4396L17.7299 51.4296ZM16.3799 54.6196L16.4399 55.2296H16.2799L16.2199 54.6196H16.3799ZM15.6699 55.7596H15.9799C15.9799 56.2596 15.8099 56.5296 15.5599 56.5496H15.3999C15.5612 56.3238 15.6549 56.0567 15.6699 55.7796V55.7596ZM15.1399 57.3396H15.3199V57.4896L15.0299 57.9696H14.7199V57.8196C14.7826 57.8244 14.8455 57.8144 14.9036 57.7903C14.9616 57.7662 15.0132 57.7288 15.0541 57.6811C15.095 57.6334 15.1241 57.5767 15.139 57.5156C15.1539 57.4545 15.1542 57.3908 15.1399 57.3296V57.3396ZM14.6199 58.7696L14.5299 59.5296H14.3699L14.2999 58.7796H14.6199V58.7696ZM9.37988 73.6196C9.16988 74.6196 8.94988 75.1896 8.71988 75.2096V75.0596C8.70324 74.7828 8.75577 74.5063 8.87274 74.2549C8.98971 74.0035 9.16744 73.7851 9.38988 73.6196H9.37988ZM8.37988 75.6996V75.8496C8.39118 75.8912 8.39233 75.935 8.38326 75.9771C8.37418 76.0193 8.35514 76.0587 8.32772 76.0919C8.30031 76.1252 8.26531 76.1515 8.22567 76.1685C8.18603 76.1855 8.1429 76.1927 8.09988 76.1896V75.9996C8.09988 75.8196 8.19322 75.7063 8.37988 75.6596V75.6996ZM8.14988 79.9996H8.62988V80.1696C8.45841 80.1989 8.29492 80.2636 8.14988 80.3596H7.83988C7.83988 80.1996 7.91988 80.0796 8.11988 80.0196L8.14988 79.9996ZM21.9399 75.7396C20.246 76.4736 18.6366 77.3889 17.1399 78.4696C14.1932 79.4896 12.7332 80.1296 12.7599 80.3896C10.9935 81.0442 9.26718 81.8022 7.58988 82.6596C7.29305 82.6552 7.0016 82.5797 6.73988 82.4396C6.72118 82.1777 6.77816 81.9159 6.90404 81.6854C7.02992 81.4549 7.21939 81.2655 7.44988 81.1396C7.89714 81.1017 8.3469 81.1737 8.75988 81.3496C9.57202 80.9856 10.4199 80.7074 11.2899 80.5196V80.1996L10.2899 80.2796C11.1731 79.7442 12.1163 79.3146 13.0999 78.9996H13.5799V79.1496C12.7499 79.2196 12.2899 79.4696 12.1899 79.8996C12.1899 80.0996 12.3199 80.1796 12.5299 80.1596C13.1499 79.7696 13.4599 79.5396 13.4499 79.4696C14.6299 79.2429 17.8999 77.5329 23.2599 74.3396V74.6296C23.2599 74.7696 22.8099 75.1596 21.8899 75.8296L21.9399 75.7396ZM13.7199 78.4396C14.4764 78.379 15.186 78.049 15.7199 77.5096C15.9399 77.5096 16.0599 77.5796 16.0699 77.7696C15.2887 77.9771 14.5483 78.3152 13.8799 78.7696H13.7199V78.4596V78.4396ZM26.9999 68.2696L22.8899 71.5296C21.3164 72.6455 19.6656 73.648 17.9499 74.5296C13.0832 77.1963 10.0599 78.5863 8.87988 78.6996H8.69988C8.84655 78.1529 11.0132 73.7163 15.1999 65.3896C18.2018 64.9065 21.1291 64.0394 23.9099 62.8096L24.9099 62.7296C25.697 62.589 26.5051 62.6189 27.2797 62.8173C28.0543 63.0157 28.7773 63.378 29.3999 63.8796L29.4599 64.4896C28.7199 66.6196 27.8999 67.8696 27.0199 68.2396L26.9999 68.2696ZM18.9999 63.7496L19.6599 63.6896V63.8396L18.9999 63.8996V63.7496ZM28.2899 62.1796H28.7699C29.2199 62.3896 29.4499 62.5796 29.4699 62.7496V62.8996C29.2301 62.9028 28.9937 62.8425 28.7847 62.7248C28.5757 62.6071 28.4015 62.4363 28.2799 62.2296L28.2899 62.1796ZM29.5999 54.6996C28.5062 55.7075 27.2979 56.5835 25.9999 57.3096C25.3699 57.3696 22.9999 58.3096 18.9299 60.0696C18.729 59.9942 18.5124 59.9702 18.2999 59.9996V59.7096C18.322 58.9047 18.5986 58.1275 19.0899 57.4896C19.4099 55.8096 19.7499 54.8496 20.0899 54.6196L23.4899 46.9696C23.4499 46.4963 24.1765 46.1329 25.6699 45.8796H26.1499V46.3196C27.6099 46.0996 28.5299 45.9696 28.8799 45.9396C31.5799 45.7096 32.9899 46.2596 33.0999 47.5696H33.4099L33.3399 46.7996H33.6799C34.0004 46.9172 34.2878 47.1104 34.5176 47.3628C34.7474 47.6153 34.9129 47.9195 34.9999 48.2496C34.9686 48.8453 34.7236 49.4099 34.3099 49.8396C34.0999 49.8396 33.9799 49.7096 33.9699 49.4096H33.6299L33.5599 50.3396C32.1932 52.3863 31.1932 53.4396 30.5599 53.4996C29.9999 54.2696 29.6599 54.6596 29.5599 54.6596L29.5999 54.6996ZM31.6899 60.0596C31.4984 59.9065 31.2645 59.8158 31.0199 59.7996V59.3396H31.3299L32.0099 59.7396C32.0212 59.7812 32.0223 59.825 32.0133 59.8671C32.0042 59.9093 31.9851 59.9487 31.9577 59.982C31.9303 60.0152 31.8953 60.0415 31.8557 60.0585C31.816 60.0755 31.7729 60.0827 31.7299 60.0796L31.6899 60.0596ZM33.8499 62.6196C34.1499 62.7396 34.3299 62.8696 34.3599 62.9896H34.1199L33.8999 63.1696L33.8399 62.5496L33.8499 62.6196ZM33.9999 63.8996V63.7796L34.3899 63.6896V63.8096L33.9999 63.8996ZM34.9399 64.9996C35.3399 64.9296 35.5399 64.9096 36.2799 64.7396V64.8596L34.8599 65.1896C34.8631 65.1263 34.8631 65.0629 34.8599 64.9996H34.9399ZM36.3199 65.5896C35.8403 65.5998 35.3636 65.667 34.8999 65.7896V65.6696L36.0899 65.2896L36.6599 65.1596L36.7199 65.3796C36.4599 65.4396 36.6499 65.4396 36.3499 65.5896H36.3199ZM37.5799 65.2896C37.5464 65.2986 37.5114 65.3008 37.4771 65.296C37.4427 65.2913 37.4097 65.2797 37.3799 65.262C37.35 65.2443 37.3241 65.2208 37.3035 65.1929C37.2829 65.165 37.268 65.1333 37.2599 65.0996L37.6199 65.0196C37.6521 65.007 37.6868 65.0021 37.7212 65.0053C37.7557 65.0086 37.7889 65.02 37.8181 65.0385C37.8473 65.057 37.8718 65.0821 37.8895 65.1119C37.9071 65.1416 37.9176 65.1751 37.9199 65.2096L37.5799 65.2896ZM40.9999 61.5696V61.4496L41.5899 61.3096L41.6499 61.5296H41.0299L40.9999 61.5696ZM44.6399 83.9096C44.6649 83.7876 44.6649 83.6617 44.6399 83.5396H44.7699C44.8 83.527 44.8326 83.5215 44.8651 83.5237C44.8977 83.5258 44.9293 83.5356 44.9574 83.5521C44.9856 83.5686 45.0095 83.5914 45.0273 83.6187C45.045 83.6461 45.0562 83.6772 45.0599 83.7096V83.8296L44.5799 83.9396L44.6399 83.9096ZM47.1899 62.5296H46.9299C46.5859 62.6729 46.2315 62.7899 45.8699 62.8796L45.6299 62.9396C45.5984 62.9503 45.565 62.9543 45.5319 62.9514C45.4988 62.9485 45.4667 62.9387 45.4375 62.9227C45.4084 62.9067 45.3829 62.8849 45.3626 62.8585C45.3424 62.8322 45.3278 62.8019 45.3199 62.7696L46.9999 62.3396L47.5599 62.0796L47.7499 62.2896C47.5393 62.319 47.3397 62.4016 47.1699 62.5296H47.1899ZM48.4999 62.1096V61.9896C48.6238 61.9502 48.7345 61.8776 48.8199 61.7796L49.9999 61.5096V61.6296C49.4771 61.7456 48.9652 61.9061 48.4699 62.1096H48.4999ZM48.6899 59.6596C48.5636 59.706 48.4479 59.7774 48.3499 59.8696C48.3499 59.7896 48.1599 59.7896 47.8499 59.8696C47.7899 59.6396 48.6899 59.3096 50.5399 58.8696L50.7999 58.8096L50.8599 59.0296C49.5599 59.4096 48.8599 59.6296 48.6899 59.6496V59.6596ZM51.9499 56.1396C51.8199 57.6196 51.2999 58.4596 50.3799 58.6696V58.5496L49.5599 58.8696L49.1999 58.9496C49.0365 58.9963 48.8633 58.9963 48.6999 58.9496L48.6299 58.6196C49.7147 56.9115 50.9036 55.2717 52.1899 53.7096H52.4699C52.5058 54.5334 52.3411 55.3536 51.9899 56.0996L51.9499 56.1396ZM57.7199 51.1996H57.5999V50.9696H58.0799V51.0896C57.9541 51.1245 57.8332 51.1748 57.7199 51.2396V51.1996ZM55.3399 75.0596C55.1091 74.9383 54.8504 74.8797 54.5899 74.8896V74.5396C54.5899 74.4196 54.6632 74.3363 54.8099 74.2896C54.9699 74.2896 55.0599 74.3796 55.0799 74.6296C55.2702 74.346 55.4953 74.0873 55.7499 73.8596L55.9999 73.9996C55.9099 74.7096 55.6899 75.0796 55.3599 75.1096L55.3399 75.0596ZM80.8099 48.4196C80.6899 48.4196 80.4599 48.0596 80.0899 47.2996V47.0696C80.3199 47.0696 80.5699 47.4096 80.8099 48.1596V48.4196ZM80.4699 45.7596L80.3599 45.9996L76.9099 44.5596C79.2099 44.6296 80.3999 45.0396 80.4699 45.7596ZM65.8599 58.2996H65.3799V58.0696H65.8599V58.2996ZM65.4599 50.7596H65.5899V51.1096C65.4699 51.1096 65.3199 51.2763 65.1399 51.6096V51.3796C65.3085 51.2126 65.4175 50.9947 65.4499 50.7596H65.4599ZM64.4599 53.1796V53.6396H64.3299V53.1796H64.4599ZM63.9099 54.0496H64.1499C64.1499 54.4429 64.0465 54.6463 63.8399 54.6596H63.6999C63.8181 54.477 63.887 54.2668 63.8999 54.0496H63.9099ZM63.5199 55.2396H63.6299V55.3596L63.4199 55.7296H63.1799V55.6096C63.4299 55.6096 63.5399 55.4596 63.5199 55.2296V55.2396ZM63.1299 56.3196L63.0499 56.9196H62.9399V56.3296H63.1799L63.1299 56.3196ZM59.1299 67.6196C58.9699 68.3996 58.8032 68.7996 58.6299 68.8196V68.7196C58.6216 68.509 58.6636 68.2994 58.7522 68.1081C58.8409 67.9169 58.9738 67.7494 59.1399 67.6196H59.1299ZM58.3999 69.1996V69.2996C58.4099 69.3325 58.4116 69.3674 58.4049 69.4011C58.3983 69.4349 58.3834 69.4665 58.3617 69.4931C58.34 69.5198 58.312 69.5407 58.2803 69.554C58.2486 69.5674 58.2141 69.5727 58.1799 69.5696V69.4496C58.1799 69.3296 58.2532 69.2463 58.3999 69.1996ZM58.1899 72.4796H58.5599V72.5996C58.4324 72.6241 58.3104 72.6715 58.1999 72.7396H57.9599C57.9599 72.6063 58.0332 72.5229 58.1799 72.4896L58.1899 72.4796ZM68.6499 69.2496C67.3697 69.8172 66.1474 70.507 64.9999 71.3096C62.7599 72.0896 61.6599 72.5796 61.6699 72.7696C60.3364 73.2639 59.0341 73.8383 57.7699 74.4896C57.5455 74.48 57.3264 74.4184 57.1299 74.3096C57.1077 74.1078 57.1476 73.9041 57.244 73.7254C57.3405 73.5468 57.489 73.4018 57.6699 73.3096C58.0105 73.2774 58.3537 73.3289 58.6699 73.4596C59.2924 73.1931 59.9386 72.9855 60.5999 72.8396V72.6096L59.8499 72.6796C60.5212 72.2629 61.2395 71.9272 61.9899 71.6796H62.3599V71.7796C61.7299 71.8396 61.3599 72.0196 61.2999 72.3596C61.2989 72.3919 61.3055 72.4241 61.319 72.4535C61.3325 72.4828 61.3527 72.5087 61.3778 72.529C61.403 72.5494 61.4325 72.5636 61.4641 72.5706C61.4957 72.5777 61.5285 72.5773 61.5599 72.5696C62.0299 72.2596 62.2499 72.0896 62.2499 72.0296C63.1432 71.8696 65.6232 70.5696 69.6899 68.1296V68.3596C69.6899 68.4496 69.3499 68.7496 68.6899 69.2596L68.6499 69.2496ZM62.4099 71.2496C63 71.2275 63.5633 70.9973 63.9999 70.5996C64.1599 70.5996 64.2499 70.6596 64.2599 70.8096C63.6735 70.96 63.1137 71.1995 62.5999 71.5196H62.4699V71.2996L62.4099 71.2496ZM72.4899 63.5096L69.3899 66.0096C68.1911 66.8674 66.9311 67.6361 65.6199 68.3096C61.9332 70.3096 59.6365 71.3629 58.7299 71.4696H58.5999C58.7132 71.0496 60.3632 67.6829 63.5499 61.3696C65.8291 60.9859 68.0503 60.3138 70.1599 59.3696L70.9099 59.2996C71.5073 59.1936 72.1205 59.2182 72.7075 59.3719C73.2944 59.5255 73.8411 59.8045 74.3099 60.1896V60.6496C73.7399 62.2496 73.1299 63.1896 72.4599 63.4796L72.4899 63.5096ZM66.3999 60.1296H66.8799V60.2496H66.3999V60.1296ZM73.4499 58.9296H73.8199C74.1599 59.0996 74.3399 59.2496 74.3499 59.3696V59.4696C74.166 59.4766 73.9837 59.4327 73.8231 59.3427C73.6626 59.2527 73.5299 59.1201 73.4399 58.9596L73.4499 58.9296ZM74.4499 53.2596C73.6443 54.0278 72.7516 54.699 71.7899 55.2596C69.9467 55.807 68.1509 56.5026 66.4199 57.3396C66.263 57.2833 66.0963 57.2595 65.9299 57.2696V57.0396C65.9448 56.4284 66.1511 55.8373 66.5199 55.3496C66.7599 54.0596 67.0299 53.3496 67.3099 53.1796L69.9099 47.3696C69.9099 47.0296 70.4299 46.7496 71.5499 46.5296H71.9199V46.8796C73.0199 46.6996 73.7099 46.5963 73.9899 46.5696C75.9899 46.3896 77.1099 46.7996 77.1999 47.8096H77.4399V47.2496H77.6799C77.9353 47.3415 78.1621 47.4989 78.3376 47.706C78.5131 47.913 78.6311 48.1626 78.6799 48.4296C78.6644 48.8811 78.491 49.3128 78.1899 49.6496C78.0299 49.6496 77.9399 49.5596 77.9199 49.3096H77.6799L77.6099 50.0096C76.6099 51.5796 75.8199 52.3996 75.3499 52.4296C74.9299 52.9996 74.6699 53.2896 74.5499 53.2996L74.4499 53.2596ZM75.5399 57.1396V56.7896H75.7799L76.2999 57.1096C76.3042 57.1409 76.3017 57.1728 76.2926 57.203C76.2835 57.2333 76.268 57.2612 76.2471 57.285C76.2262 57.3087 76.2005 57.3276 76.1716 57.3405C76.1428 57.3534 76.1115 57.3599 76.0799 57.3596C75.9318 57.2468 75.7552 57.1775 75.5699 57.1596L75.5399 57.1396ZM32.1499 79.7596L31.9099 79.8196L31.6999 79.9996C31.7036 80.032 31.7147 80.0631 31.7325 80.0905C31.7503 80.1178 31.7742 80.1407 31.8024 80.1572C31.8305 80.1737 31.8621 80.1834 31.8946 80.1855C31.9272 80.1877 31.9598 80.1822 31.9899 80.1696C32.1499 80.1696 32.2099 80.0396 32.1799 79.8896V79.7696L32.1499 79.7596ZM31.2299 77.9196V78.0396C31.3899 78.0396 31.4499 77.9096 31.4199 77.7596V77.6396C31.3877 77.6427 31.3567 77.6529 31.3289 77.6694C31.3011 77.6859 31.2773 77.7083 31.2592 77.735C31.2411 77.7618 31.229 77.7922 31.224 77.8241C31.2189 77.856 31.2209 77.8886 31.2299 77.9196ZM37.8299 65.5296L38.0099 65.4196H37.9199C37.8923 65.4267 37.8686 65.4442 37.8537 65.4685C37.8387 65.4927 37.8338 65.5218 37.8399 65.5496L37.8299 65.5296ZM37.8299 62.3196L38.1099 62.2496L37.9999 61.9996L37.7199 62.0696L37.7799 62.3096L37.8299 62.3196ZM103.68 71.7296L103.05 71.6596L102.94 71.8996V71.9996L106.71 71.6796V71.4496L103.71 71.7096L103.68 71.7296ZM107.13 71.4396V71.6696V71.4396ZM122.96 69.3696V69.5996L123.37 69.6696V69.4396L122.96 69.3696ZM122.38 69.3696C121.148 69.7127 119.878 69.9041 118.6 69.9396V70.1696H119L119.31 70.0496C122.11 69.7396 122.44 69.8496 122.41 69.5396V69.4296L122.38 69.3696ZM105.38 65.2496L105.13 65.1696C104.989 65.4892 104.888 65.8251 104.83 66.1696V66.2696C105.03 66.2696 105.2 65.9296 105.37 65.2696L105.38 65.2496ZM101.97 63.4096V63.2896H101.84L101.61 63.4396L101.74 63.6596C101.92 63.6596 102 63.5596 101.98 63.3996L101.97 63.4096ZM109.38 71.0696V70.8396H109.31V71.0696H109.38ZM124.75 67.5996H124.93C125.03 67.5996 125.08 67.5096 125.07 67.3596L124.97 67.1396C124.46 67.1368 123.957 67.2641 123.51 67.5096V67.3896L122.74 67.4596C122.74 67.2296 122.66 67.1096 122.55 67.1196H122.15C121.68 67.1196 121.46 67.1196 121.23 67.3196C121.23 67.2396 121.23 67.1996 121.15 67.1996H120.7L120.44 67.3496C120.44 67.2696 120.44 67.2296 120.36 67.2296L120.2 67.3696V67.2496H119.43V67.4796L119.75 67.5596H120.05C120.152 67.6197 120.272 67.6443 120.39 67.6296L120.65 67.4996V67.5996C119.841 67.81 119.019 67.967 118.19 68.0696C118.119 68.0104 118.032 67.9753 117.94 67.9696C117.914 67.9683 117.888 67.9619 117.864 67.9506C117.84 67.9394 117.819 67.9235 117.801 67.904C117.784 67.8845 117.77 67.8617 117.761 67.8369C117.752 67.8122 117.749 67.7859 117.75 67.7596L118.27 67.6896C118.385 67.7262 118.502 67.7562 118.62 67.7796C119.04 67.5696 119.06 67.4896 119.28 67.4696V67.2396C118.402 67.4009 117.512 67.4846 116.62 67.4896H116.54V67.2596C118.85 66.9796 118.08 67.1396 118.87 66.9196C118.87 66.9996 118.87 67.0396 118.95 67.0396C119.035 66.9515 119.148 66.895 119.27 66.8796H119.43C120.296 66.9185 121.163 66.8241 122 66.5996V66.6996L122.26 66.5696H122.5C122.5 66.3396 122.84 66.2996 122.96 66.2896V66.0396C120.15 66.6096 119.41 66.4496 118.63 66.6696V66.5696C118.302 66.6454 117.965 66.6724 117.63 66.6496C117.54 66.6767 117.461 66.7287 117.4 66.7996C117.4 66.7196 117.4 66.6796 117.31 66.6796L114.92 67.0696C114.92 66.9996 114.92 66.9696 114.83 66.9796C113.995 67.224 113.137 67.3782 112.27 67.4396C112.158 67.4599 112.053 67.5043 111.96 67.5696C111.96 67.4996 111.96 67.4696 111.83 67.4796L110.83 67.5596L110.15 67.7296C110.15 67.6596 110.15 67.6296 110.02 67.6396C109.693 67.7342 109.358 67.7978 109.02 67.8296C108.85 67.8296 109.1 67.8296 109.02 67.7296L108.81 67.8496H107.65C105.85 68.0696 106.05 68.0996 105.85 68.1096H105.18C105.183 68.1239 105.183 68.1387 105.179 68.1529C105.176 68.1671 105.169 68.1802 105.159 68.191C105.149 68.2019 105.137 68.2101 105.123 68.2151C105.109 68.2201 105.094 68.2216 105.08 68.2196C104.32 68.1196 103.92 67.9996 103.92 67.8596C104.02 67.1329 104.197 66.7596 104.45 66.7396H104.58L104.47 66.9796H104.6C104.84 66.8496 104.95 66.7296 104.94 66.6196V66.3696H104.7V66.1396C104.677 65.9795 104.702 65.8163 104.77 65.6696L105.32 64.7796V65.0096H105.58V64.7796L105.43 64.5696C105.559 64.4381 105.721 64.3446 105.9 64.2996V64.1796H105.55V63.8296C106 63.0232 106.337 62.1583 106.55 61.2596L106.8 61.3596C106.96 61.3596 107.03 61.2596 107.02 61.0896H106.78V60.9896C106.763 60.821 106.794 60.651 106.87 60.4996C107.041 60.3469 107.176 60.1585 107.266 59.9476C107.356 59.7368 107.398 59.5087 107.39 59.2796C107.46 59.2796 107.5 59.2796 107.51 59.3896C107.84 59.1996 108.09 58.7096 108.27 57.8896C109.242 55.8681 110.067 53.7794 110.74 51.6396C112.79 46.1196 112.74 45.5396 112.99 44.2296H112.75C112.768 44.395 112.737 44.5621 112.66 44.7096C112.537 44.6536 112.405 44.623 112.27 44.6196V44.5196C112.28 43.8981 112.494 43.2972 112.88 42.8096H112.99L113.2 43.6096H113.44C113.48 43.2723 113.543 42.9381 113.63 42.6096C113.63 42.4896 113.53 42.4096 113.34 42.3996L113.11 42.5496V41.2496H112.99C112.828 41.1208 112.716 40.941 112.67 40.7396L111.34 40.8696C111.315 40.725 111.264 40.5861 111.19 40.4596C111.19 40.3396 111.48 40.2196 112.09 40.0996L112.36 40.1996L112.61 40.0496C112.61 40.1296 112.67 40.1696 112.76 40.1596L113.01 40.0096C113.01 40.0896 113.07 40.1296 113.16 40.1196H113.28V39.8496H111.82L111.57 40.0196V39.8696C105.317 40.3829 101.767 40.6796 100.92 40.7596H99.5999C99.5999 40.8596 99.5199 40.9196 99.3299 40.9396L99.0599 40.8196L97.9999 40.9996C97.6406 41.0318 97.2792 41.0318 96.9199 40.9996C96.7738 41.116 96.5961 41.1857 96.4099 41.1996L99.0599 40.9996C98.8676 41.1301 98.6421 41.2029 98.4099 41.2096C98.2282 41.2343 98.0433 41.2029 97.8799 41.1196C97.2246 41.3214 96.5564 41.4784 95.8799 41.5896L95.6099 41.4896L91.2499 42.1596C91.0654 42.0753 90.8611 42.0441 90.6599 42.0696C90.267 42.1211 89.8791 42.2047 89.4999 42.3196L87.3899 43.1996L87.5499 43.4596C87.7031 43.4321 87.8493 43.3743 87.9799 43.2896L88.7299 43.3596L88.6399 44.0596C88.3438 44.1649 88.0789 44.3427 87.8692 44.5768C87.6596 44.8109 87.512 45.0938 87.4399 45.3996C86.4399 45.8596 85.8899 46.1796 85.8899 46.3996V46.5196H86.0499L86.3299 46.3696L86.6599 46.7596V47.2996C86.6599 47.4663 84.9232 51.1329 81.4499 58.2996C78.4499 65.1996 76.8499 68.9696 76.6999 69.6496C75.6999 69.9396 75.0699 70.3596 74.8899 70.9196C74.8899 71.0996 75.2199 71.2196 75.8099 71.2596V71.5296L75.5399 71.9796V72.5196C75.5399 72.7996 76.2932 73.0129 77.7999 73.1596C77.7999 73.0696 77.7999 73.0096 77.9399 72.9996C77.9297 73.6753 77.8357 74.3471 77.6599 74.9996H77.9999C78.4518 74.5184 78.7571 73.9182 78.8799 73.2696H78.9999C79.1499 73.2696 79.3099 73.4296 79.4899 73.7896C79.3032 73.8629 78.6366 75.3463 77.4899 78.2396L77.6499 78.4996H77.8099C79.1766 75.0329 80.0366 73.1163 80.3899 72.7496C82.1899 72.5896 85.2999 72.2563 89.7199 71.7496L89.9999 71.5796C89.9989 71.6006 90.0029 71.6216 90.0118 71.6407C90.0207 71.6598 90.034 71.6764 90.0508 71.6892C90.0675 71.702 90.0871 71.7106 90.1078 71.7141C90.1286 71.7177 90.1499 71.7161 90.1699 71.7096H90.4599L90.7399 71.5396C90.7389 71.5606 90.7429 71.5816 90.7518 71.6007C90.7607 71.6198 90.774 71.6364 90.7908 71.6492C90.8075 71.662 90.8271 71.6706 90.8478 71.6741C90.8686 71.6777 90.8899 71.6761 90.9099 71.6696L94.2599 71.3796C95.1499 71.3096 95.5599 71.0396 95.5299 70.5796C95.5299 70.4596 96.0399 70.3196 97.0999 70.1696C97.2568 70.1678 97.4128 70.195 97.5599 70.2496C97.5599 70.1696 98.0799 70.0796 99.1399 69.9896C99.1399 69.4296 99.3399 69.1296 99.6599 69.0996V68.8296C99.3191 68.869 98.9837 68.9461 98.6599 69.0596C98.2121 69.054 97.7662 69.0004 97.3299 68.8996C97.1986 68.983 97.0527 69.0406 96.8999 69.0696L94.5099 68.9996L94.2299 69.1496C94.2299 69.0629 94.1732 69.0263 94.0599 69.0396H93.9299L93.6299 69.1896C93.6299 69.1096 93.3799 69.0396 92.8899 68.9796L92.5899 69.1596H92.0099V69.0096C95.0099 68.6829 96.4899 68.2763 96.4499 67.7896C96.4895 67.7801 96.5308 67.7801 96.5704 67.7895C96.6101 67.7989 96.647 67.8175 96.6781 67.8437C96.7093 67.87 96.7338 67.9032 96.7497 67.9407C96.7657 67.9782 96.7726 68.019 96.7699 68.0596L97.6499 67.8396V67.5696L90.4699 67.7696C90.4699 67.8596 90.4699 67.9196 90.3299 67.9296L89.4499 67.8596C89.248 67.8715 89.0536 67.9409 88.8899 68.0596L88.5399 67.9996C87.8638 68.0416 87.1937 68.1522 86.5399 68.3296C85.8743 68.2772 85.2055 68.2772 84.5399 68.3296L82.9299 68.4696L82.1799 68.3896C82.1799 67.9096 83.0699 65.5796 84.9699 61.3896C85.2513 60.3934 85.7812 59.4849 86.5099 58.7496C86.6695 58.7518 86.8266 58.7894 86.9699 58.8596L87.9999 58.4696L88.5899 58.5596C89.7724 58.4301 90.9325 58.1443 92.0399 57.7096C92.2919 57.6737 92.5489 57.6977 92.7899 57.7796L93.6699 57.5696L96.2799 57.3496C97.5095 57.2329 98.7231 56.9848 99.8999 56.6096V56.3396C99.4199 56.3396 99.1599 56.3396 99.1499 56.1096C99.1499 55.7496 98.7699 55.5996 98.0899 55.6496V55.3796L98.8099 55.1696L100.69 55.0096V54.7396H99.5299V54.4496L100.26 54.3796C100.46 54.3796 100.54 54.2696 100.52 54.0796C99.5199 54.0796 99.0499 54.0796 99.0399 53.9296C92.2199 54.2629 88.7999 54.3263 88.7799 54.1196C88.6252 54.1532 88.4789 54.2178 88.3499 54.3096L88.0599 53.9996C89.8665 50.1596 90.9266 48.2263 91.2399 48.1996C91.2216 48.4531 91.1464 48.6992 91.0199 48.9196V48.9996H91.3099C92.0299 47.2896 92.6299 46.3996 93.1399 46.3596C95.2799 46.1696 92.8399 46.0296 97.4299 45.3596C97.5557 45.4288 97.6963 45.4666 97.8399 45.4696C99.6399 45.1029 102.147 44.7229 105.36 44.3296V44.0596L103.65 44.2196V43.9496C103.836 43.9357 104.014 43.866 104.16 43.7496V43.8996C104.302 43.8656 104.435 43.8007 104.55 43.7096C104.78 43.6714 105.015 43.6991 105.23 43.7896C105.702 43.6575 106.183 43.5606 106.67 43.4996L107.74 43.3996C108 43.2296 108.12 43.0796 108.11 42.9396V42.8196C107.795 42.8436 107.479 42.8234 107.17 42.7596C107.166 42.7241 107.169 42.6881 107.178 42.6538C107.188 42.6194 107.205 42.5874 107.227 42.5595C107.25 42.5316 107.277 42.5084 107.309 42.4912C107.34 42.4741 107.374 42.4633 107.41 42.4596L109.41 42.2696L110.32 42.0396C110.32 42.1396 110.38 42.1796 110.45 42.1796C110.592 42.1456 110.725 42.0807 110.84 41.9896H110.99C110.828 42.342 110.695 42.7064 110.59 43.0796H110.33C110.316 42.9104 110.265 42.7464 110.18 42.5996H110C107.58 49.3496 106.5 52.4896 104.26 57.6696C103.85 58.9896 103.51 59.7296 103.21 59.8896C103.209 59.9219 103.215 59.9541 103.229 59.9835C103.243 60.0128 103.263 60.0387 103.288 60.059C103.313 60.0794 103.343 60.0936 103.374 60.1006C103.406 60.1077 103.438 60.1073 103.47 60.0996C103.521 60.7752 103.361 61.45 103.01 62.0296C102.01 65.0296 101.29 66.6396 100.93 66.9396L101.16 68.3496C101.164 68.3809 101.162 68.4128 101.153 68.443C101.143 68.4733 101.128 68.5012 101.107 68.525C101.086 68.5487 101.06 68.5676 101.032 68.5805C101.003 68.5934 100.971 68.5999 100.94 68.5996H100.7C100.7 68.2096 100.52 68.0196 100.27 68.0496H100.14C99.8044 68.5781 99.561 69.1597 99.4199 69.7696H99.6599C99.7988 69.7008 99.9151 69.5935 99.9948 69.4606C100.075 69.3276 100.115 69.1746 100.11 69.0196H100.59L100.87 69.1196C100.681 69.364 100.573 69.661 100.56 69.9696L100.69 70.1896L100.37 70.9396V71.0596C100.693 71.0465 101.012 71.1377 101.28 71.3196C101.542 71.2734 101.79 71.1636 102 70.9996H105.12L106.02 70.6896C106.764 70.706 107.508 70.6826 108.25 70.6196H108.64L108.85 70.4796V70.5996C109.463 70.5299 110.084 70.5535 110.69 70.6696V70.7896H110.14V71.0196C110.3 71.0091 110.454 70.9498 110.58 70.8496C110.72 70.8496 110.8 70.9196 110.81 71.0796C110.554 71.1067 110.302 71.1637 110.06 71.2496L109.82 71.1696C109.44 71.2696 109.52 71.2996 109.26 71.3196L108.88 71.2496C108.883 71.263 108.883 71.2769 108.88 71.2902C108.877 71.3036 108.87 71.316 108.862 71.3266C108.853 71.3372 108.842 71.3457 108.83 71.3514C108.817 71.3572 108.804 71.36 108.79 71.3596C108.788 71.3894 108.793 71.4193 108.804 71.447C108.815 71.4747 108.833 71.4995 108.855 71.5196C108.877 71.5398 108.903 71.5547 108.932 71.5634C108.96 71.572 108.99 71.5741 109.02 71.5696H109.41L111.41 71.3896L112.18 71.2196C112.18 71.2896 112.18 71.3196 112.28 71.3096L112.65 71.1696L113.35 71.1096C113.89 71.1096 113.88 71.0296 115.06 70.8396C115.06 70.7696 115.06 70.7396 115.13 70.7296V70.8296C115.919 70.7339 116.701 70.5835 117.47 70.3796V70.4396C117.95 70.3296 117.68 70.3596 117.81 70.2596C117.81 70.3396 117.81 70.3796 117.89 70.3796H118.23V70.1296H117.39C117.139 70.1765 116.885 70.1966 116.63 70.1896L114.92 70.2796V70.1596L115.92 70.0296H116.26L116.46 69.8896V69.9996C117.8 69.8896 118.28 70.2196 124.46 68.8996C124.8 68.8996 124.77 68.5896 124.98 68.0096C124.865 68.0195 124.751 67.9951 124.65 67.9396C124.069 68.0806 123.477 68.1677 122.88 68.1996C122.8 68.1996 122.73 68.1296 122.7 67.9896V67.8896H123.7C124.054 67.8519 124.396 67.7358 124.7 67.5496C124.7 67.6296 124.5 67.6796 124.62 67.6696L124.75 67.5996ZM78.8699 68.3396H78.4299C78.5764 67.6457 78.8117 66.9735 79.1299 66.3396H79.4199C79.3286 67.0282 79.1435 67.7011 78.8699 68.3396ZM79.3999 66.2196V66.0996C79.3999 65.9496 79.4799 65.8496 79.6899 65.7996V65.9996C79.6899 66.1796 79.6099 66.2796 79.3999 66.2996V66.2196ZM85.2199 70.7196V70.8396L84.4899 70.9096V70.7896L85.2199 70.7196ZM84.3399 70.6496C84.3399 70.7996 84.1299 70.9696 83.6399 71.1296L82.7499 71.0596H82.4599V70.7896L84.3699 70.6096L84.3399 70.6496ZM90.2299 43.5396H89.7899V43.3896C89.7899 43.2396 89.8599 43.1396 90.0499 43.0896H90.2099L90.5099 43.2096C90.5159 43.2478 90.5133 43.2869 90.5023 43.3239C90.4913 43.361 90.4722 43.3951 90.4463 43.4239C90.4204 43.4526 90.3885 43.4752 90.3528 43.4901C90.3171 43.5049 90.2785 43.5116 90.2399 43.5096L90.2299 43.5396ZM96.8899 42.2396H96.9999V42.5096H96.5999C96.5957 42.4741 96.5986 42.4381 96.6085 42.4038C96.6183 42.3694 96.6349 42.3374 96.6572 42.3095C96.6795 42.2816 96.7072 42.2584 96.7385 42.2412C96.7699 42.2241 96.8043 42.2133 96.8399 42.2096L96.8899 42.2396ZM95.2099 42.8296L94.5499 42.7596V42.6396C95.124 42.6013 95.6915 42.4939 96.2399 42.3196C96.2399 42.4196 96.3399 42.4596 96.5099 42.4396V42.7096H96.2499C96.0682 42.7343 95.8833 42.7029 95.7199 42.6196C95.5677 42.7232 95.3927 42.7884 95.2099 42.8096V42.8296ZM95.9999 45.2896V45.1696L97.0699 45.0696V45.1896L95.9999 45.2896ZM97.1499 44.3596V44.1996H97.6699V44.3496H97.1499V44.3596ZM97.2699 42.5296H97.1299L97.2499 42.2396L98.4399 42.1296V42.2796C98.0405 42.3265 97.6458 42.4068 97.2599 42.5196L97.2699 42.5296ZM97.8799 45.0996V44.8296H98.3999C98.5799 44.8296 98.6732 44.9129 98.6799 45.0796L97.8999 45.1496L97.8799 45.0996ZM101.04 40.7996L100.37 40.9896H100.25C99.8344 41.031 99.416 41.0344 98.9999 40.9996C99.8699 40.9396 100.7 40.8796 101 40.8296L101.04 40.7996ZM100.32 43.7996V43.9196L99.3999 43.9996V43.8796L100.32 43.7996ZM101.83 44.5196C101.83 44.4096 101.64 44.3296 101.28 44.2996L100.36 44.5596H99.6499C99.4899 44.4496 99.4099 44.3696 99.3999 44.3196H100.22L102.06 44.0196H103V44.1696C102.599 44.2043 102.203 44.2849 101.82 44.4096L101.83 44.5196ZM111.32 41.9996H111.53C111.849 41.6818 112.226 41.4273 112.64 41.2496C112.435 42.4657 111.891 43.5991 111.07 44.5196L110.55 44.1996C110.857 43.4783 111.115 42.7365 111.32 41.9796V41.9996ZM109.72 44.7496H109.85C109.67 45.0896 109.51 45.2596 109.38 45.2696V44.9196C109.511 44.8975 109.635 44.8425 109.74 44.7596L109.72 44.7496ZM108.72 47.2196C108.8 46.5917 109.049 45.9973 109.44 45.4996V45.6196C109.31 46.5496 109.1 47.0496 108.83 47.0796V47.6696C108.647 47.8796 108.535 48.1421 108.51 48.4196H108.38L108.31 47.6096C108.46 47.6096 108.58 47.4596 108.66 47.2196H108.72ZM108.32 48.5596C108.281 48.9047 108.19 49.242 108.05 49.5596H107.92V49.2096C108.1 48.7996 108.25 48.5896 108.35 48.5896L108.32 48.5596ZM100.8 70.3796V70.2796H101.04V70.6296C100.91 70.6296 100.82 70.5596 100.78 70.3996L100.8 70.3796ZM111.54 70.6596C111.54 70.5796 111.54 70.5396 111.41 70.5496L110.8 70.6096V70.4896H110.86L112.29 70.3696V70.4896C112.027 70.4697 111.765 70.5327 111.54 70.6696V70.6596ZM110.82 70.3596C110.88 70.3596 110.82 70.4196 110.82 70.4296C110.82 70.4396 110.75 70.4296 110.82 70.3596ZM110.89 68.6796L110.09 68.7496V68.6296L110.82 68.5596L111.45 68.3996C111.45 68.4696 111.45 68.4996 111.58 68.4896C112.33 68.3596 112.26 68.3196 112.58 68.2896C112.7 68.2896 112.78 68.3596 112.79 68.4996L110.86 68.6696L110.89 68.6796ZM113.69 68.4396C113.43 68.3869 113.165 68.3667 112.9 68.3796V68.2796L113.62 68.2096V68.3096C113.55 68.3096 113.82 68.3096 113.69 68.4296V68.4396ZM113.75 68.3096V68.2096H114.14V68.3096H113.75ZM114.62 68.2396V68.1396C114.724 68.1124 114.82 68.061 114.9 67.9896C114.938 67.984 114.977 67.9864 115.015 67.9967C115.052 68.007 115.087 68.0249 115.117 68.0494C115.147 68.0738 115.172 68.1042 115.189 68.1387C115.207 68.1732 115.218 68.2109 115.22 68.2496L114.62 68.2396ZM115.73 68.0996V67.9996H116.21V68.1196H115.73V68.0996ZM116.39 68.0396C116.39 67.8996 116.39 67.8196 116.56 67.7996L116.72 68.0096C116.717 67.9978 116.716 67.9855 116.718 67.9734C116.72 67.9614 116.725 67.9499 116.731 67.9396C116.738 67.9293 116.746 67.9205 116.756 67.9136C116.767 67.9067 116.778 67.902 116.79 67.8996L116.91 68.1196L116.39 68.0496V68.0396ZM125.7 66.8796C125.77 66.8796 125.81 66.7896 125.63 66.7596C125.45 66.7296 125.72 66.8796 125.54 66.8896V66.9996L125.64 66.9296L125.54 67.0096L125.34 67.2596L125.73 67.1196V66.8896L125.7 66.8796ZM126.38 67.4096H126.31V67.6396H126.86C126.86 67.4896 126.49 67.4396 126.37 67.4396L126.38 67.4096Z" fill="#000305"/>
</svg>
