<svg width="128" height="128" viewBox="0 0 128 128" fill="none" xmlns="http://www.w3.org/2000/svg">
<path d="M87.4398 43.7902V43.5202H86.9998V43.7902H87.4398ZM90.3798 50.8702V51.0002H90.6898C90.6927 50.8525 90.7232 50.7066 90.7798 50.5702V50.3002C90.6498 50.3002 90.5199 50.5102 90.3998 50.8802L90.3798 50.8702ZM78.8998 59.7902C78.2563 58.6882 77.4657 57.6789 76.5499 56.7902C76.5499 56.4702 77.0499 56.0002 78.1398 55.3702L81.2498 52.6602C82.0732 51.375 82.5009 49.8763 82.4799 48.3502V47.8902C82.3598 46.5102 81.3598 45.4002 79.4799 44.5502C78.3598 43.7969 76.3598 43.3802 73.4799 43.3002C70.2128 43.7368 67.0223 44.6253 63.9998 45.9402C62.8333 46.7703 61.6214 47.5348 60.3698 48.2302V48.4602C60.5006 48.4354 60.6238 48.3807 60.7298 48.3002C60.7613 48.2925 60.794 48.2921 60.8256 48.2992C60.8572 48.3062 60.8867 48.3204 60.9119 48.3408C60.937 48.3611 60.9572 48.387 60.9707 48.4164C60.9842 48.4457 60.9908 48.4779 60.9898 48.5102L61.2198 48.3902H61.3298V48.4902C60.5743 49.261 59.7242 49.933 58.7998 50.4902L58.9298 50.7302H58.8198L58.5398 50.6302C58.5398 50.7102 58.4298 50.7702 58.1998 50.7902V50.8902L58.4698 51.2302C58.3351 51.2268 58.2025 51.1962 58.0798 51.1402C57.6297 51.2031 57.2176 51.4269 56.9198 51.7702L57.0798 51.0802C57.5933 48.9381 57.9806 46.7677 58.2398 44.5802V44.4602C57.8083 44.1744 57.4265 43.8197 57.1098 43.4102C57.1206 43.247 57.1206 43.0833 57.1098 42.9202V42.8202H56.9998C55.7732 44.6669 53.4032 47.8169 49.8898 52.2702C47.2232 55.4369 45.8432 57.1969 45.7498 57.5502C44.6598 58.6802 44.1398 59.3602 44.1898 59.5502C43.8998 59.7402 43.7798 59.9202 43.8298 60.1302C43.8135 60.1363 43.7959 60.1388 43.7785 60.1375C43.7611 60.1361 43.7441 60.131 43.7289 60.1224C43.7137 60.1138 43.7005 60.102 43.6903 60.0878C43.6801 60.0736 43.6731 60.0574 43.6698 60.0402C43.4416 60.412 43.139 60.7327 42.7811 60.9822C42.4232 61.2317 42.0177 61.4047 41.5898 61.4902L40.5898 61.7102C40.5584 61.7149 40.5283 61.726 40.5013 61.743C40.4744 61.7599 40.4513 61.7822 40.4334 61.8085C40.4156 61.8348 40.4034 61.8646 40.3976 61.8958C40.3918 61.9271 40.3926 61.9592 40.3998 61.9902V62.1102L40.7598 62.0302V62.1302L39.9398 62.4502L38.4898 62.7902H37.7298C37.6198 62.9002 38.3398 62.7902 38.0598 62.8502L37.0598 63.0702C36.4798 63.2002 36.1698 63.1502 36.0598 62.9202H35.9498C35.9675 62.9992 35.9675 63.0812 35.9498 63.1602L36.0698 63.0002L35.3098 63.1802C35.2565 62.8269 34.2265 61.5402 32.2198 59.3202C32.2198 58.8902 32.8898 58.2702 34.3398 57.4602L38.4198 53.8702C39.3332 52.6969 39.8765 50.8135 40.0498 48.2202L39.9998 47.6302C39.8398 45.8002 38.5198 44.3302 35.9998 43.1902C34.5298 42.1902 31.8798 41.6602 28.0598 41.5802C23.8016 42.1593 19.6408 43.3097 15.6898 45.0002C14.1575 46.0943 12.5614 47.096 10.9098 48.0002V48.3202C11.0813 48.2909 11.2448 48.2262 11.3898 48.1302C11.4298 48.1195 11.4717 48.1181 11.5122 48.1261C11.5528 48.1341 11.591 48.1514 11.6239 48.1765C11.6567 48.2016 11.6834 48.2339 11.7017 48.271C11.7201 48.3081 11.7297 48.3488 11.7298 48.3902L12.0498 48.2102H12.2098V48.3602C11.1988 49.3509 10.0783 50.2232 8.86984 50.9602L9.04984 51.2402H8.89984L8.55984 51.1202C8.55984 51.2102 8.40984 51.2802 8.07984 51.3102V51.4802L8.44984 51.8902C8.27836 51.8887 8.10871 51.8548 7.94984 51.7902C7.50267 51.883 7.08083 52.0713 6.7132 52.3423C6.34557 52.6133 6.04083 52.9605 5.81984 53.3602L5.99984 53.6402C6.3078 53.3045 6.66526 53.0179 7.05984 52.7902V53.2502C6.89024 53.2859 6.72793 53.3501 6.57984 53.4402L6.99984 54.0002C7.72322 53.2347 8.53956 52.5629 9.42984 52.0002C9.86984 52.1102 10.0998 52.2502 10.1098 52.4002H10.4498C12.6131 50.7477 15.0224 49.4451 17.5898 48.5402V48.8602C17.1498 49.5269 16.8532 49.8602 16.6998 49.8602C16.7106 50.0766 16.7913 50.2836 16.9298 50.4502C16.9698 50.8502 15.8998 53.5502 13.7198 58.5502C8.81984 70.1035 4.69318 78.6569 1.33984 84.2102C1.37062 84.3737 1.4391 84.5278 1.53984 84.6602C2.09855 84.5691 2.63278 84.3649 3.10984 84.0602H3.28984V84.3802H3.59984L3.91984 84.2002C3.91984 84.2902 4.02984 84.3402 4.24984 84.3202V84.6402C4.20998 85.1274 4.04461 85.5959 3.76984 86.0002C3.26857 86.7288 2.90273 87.5418 2.68984 88.4002V88.5502H2.99984C4.21785 87.228 5.24757 85.744 6.05984 84.1402C9.16374 83.3124 12.1784 82.1802 15.0598 80.7602C16.769 80.7126 18.4228 80.1438 19.7998 79.1302V78.9602L19.0198 79.1902H18.8398V79.0202C19.961 78.9435 21.0477 78.6007 22.0098 78.0202C24.9832 75.7269 27.2298 74.1035 28.7498 73.1502C31.8698 70.8569 33.8932 68.6235 34.8198 66.4502L35.3398 66.3302C35.5897 66.344 35.84 66.344 36.0898 66.3302C36.0898 66.2502 36.0898 66.2002 36.1898 66.1802C36.8898 66.1102 36.5498 66.1802 36.9998 66.1202L38.1698 65.8502C38.0998 65.8502 38.0698 65.9102 38.0898 65.9802L38.2698 65.8702H38.1798H38.3798L38.2898 65.9302C38.4319 65.9572 38.5778 65.9572 38.7198 65.9302L38.7998 66.2702L33.3798 74.6002L32.1998 76.0802L31.6198 78.0002H31.7298L32.3098 77.7602L32.1198 78.5102L32.1798 78.7302L32.3398 78.9302C32.2698 78.9302 32.2398 79.0002 32.2598 79.0802V79.2002L32.4998 79.1402C32.8532 78.8335 33.0032 78.5535 32.9498 78.3002C33.1978 78.3641 33.4549 78.3844 33.7098 78.3602V78.4802C33.4798 78.5402 33.3598 78.7202 33.3398 79.0402V79.1602H33.4698C35.4098 77.0402 40.1598 69.8102 43.9698 64.8902C43.8498 64.3569 45.8498 63.6169 49.9698 62.6702H50.0998C50.2465 63.3369 49.9132 64.8935 49.0998 67.3402C48.7814 68.1275 48.5435 68.945 48.3898 69.7802C47.9876 70.8239 47.6797 71.9015 47.4698 73.0002L46.0198 77.7602C45.0642 80.2583 44.3412 82.8392 43.8598 85.4702C43.9916 85.4415 44.1281 85.4415 44.2598 85.4702L44.4598 85.2902C44.4631 85.3074 44.4701 85.3236 44.4803 85.3378C44.4905 85.352 44.5037 85.3638 44.5189 85.3724C44.5341 85.381 44.5511 85.3861 44.5685 85.3875C44.5859 85.3888 44.6035 85.3863 44.6198 85.3802L44.6298 85.0002H45.2598C45.4498 85.0002 45.5998 84.7202 45.7398 84.2902C45.7398 83.6502 45.8398 83.2902 46.1298 83.2302C46.2773 82.4311 46.519 81.6524 46.8498 80.9102C47.0035 80.0115 47.2758 79.1371 47.6598 78.3102C48.2098 76.3102 48.6598 75.3102 48.8698 75.2502L48.9298 75.4902L48.5298 76.4902C48.0093 78.9901 47.3006 81.4471 46.4098 83.8402L46.6198 84.7302H46.7498C48.4832 81.0035 50.9765 73.6235 54.2298 62.5902C54.2657 62.1316 54.4106 61.6882 54.6524 61.2969C54.8941 60.9055 55.2258 60.5775 55.6198 60.3402L55.4298 60.1402V60.0402C55.7346 59.9931 56.0119 59.8367 56.2098 59.6002C56.2098 59.5202 55.8698 59.3902 55.2098 59.2302L56.8298 52.2302C57.0088 52.0373 57.2183 51.8751 57.4498 51.7502V52.1002C57.3191 52.125 57.1958 52.1797 57.0898 52.2602L57.3998 52.7002C57.9443 52.105 58.5588 51.5778 59.2298 51.1302C59.5698 51.2202 59.7298 51.3402 59.7498 51.4502H59.9898C61.6365 50.2021 63.4688 49.2202 65.4198 48.5402V48.7702C65.0932 49.2635 64.8698 49.5135 64.7498 49.5202C64.763 49.6801 64.8145 49.8344 64.8998 49.9702C64.258 52.0831 63.4523 54.1427 62.4898 56.1302C59.7694 62.8442 56.6161 69.3746 53.0498 75.6802C53.0808 75.8047 53.1388 75.9208 53.2198 76.0202C53.6414 75.9526 54.0437 75.7957 54.3998 75.5602H54.5098V75.7902H54.7698L54.9998 75.6702C54.9998 75.7369 55.0832 75.7635 55.2498 75.7502V76.0002C55.2156 76.3834 55.0773 76.7499 54.8498 77.0602C54.4533 77.6073 54.1648 78.225 53.9998 78.8802V79.0002H54.2398C55.1647 77.9965 55.9456 76.869 56.5598 75.6502C58.904 75.0187 61.1813 74.1614 63.3598 73.0902C64.6648 73.0563 65.9282 72.6236 66.9799 71.8502V71.7302L66.3699 71.9102H66.2398V71.7902C67.0897 71.7279 67.9124 71.464 68.6398 71.0202C70.8898 69.2902 72.6398 68.0202 73.7598 67.3202C77.3598 64.7002 79.0298 62.1902 78.8298 59.7702L78.8998 59.7902ZM78.2898 59.9502L78.3699 60.8902C78.2598 61.1202 78.1398 61.2402 78.0298 61.2502L77.8898 59.6502C78.1498 59.7402 78.2798 59.8402 78.2898 59.9502ZM7.72984 52.3702H7.56984V52.0802L8.18984 52.0002V52.1502C8.02176 52.1805 7.86175 52.2452 7.71984 52.3402L7.72984 52.3702ZM4.58984 83.7802C4.28032 83.6248 3.93574 83.5524 3.58984 83.5702V83.1102C3.58984 82.9302 3.66984 82.8102 3.89984 82.7702C4.12984 82.7302 4.22984 82.9002 4.23984 83.2002C4.50285 82.8384 4.80096 82.5034 5.12984 82.2002L5.46984 82.3402C5.35984 83.2702 5.06984 83.7502 4.60984 83.7802H4.58984ZM38.1398 48.6802C37.9798 48.6802 37.6598 48.2002 37.2098 47.2302V46.9402C37.5098 46.9402 37.8198 47.4002 38.1398 48.3902V48.6802ZM37.6998 45.2002L37.5698 45.5102L32.9998 43.6102C36.0398 43.7102 37.6032 44.2402 37.6898 45.2002H37.6998ZM18.4598 61.7202L17.8198 61.7802V61.4902L18.4598 61.4302V61.7202ZM17.9398 51.8002H18.0998V52.2602C17.9498 52.2602 17.7598 52.4902 17.5098 52.9202V52.6002C17.7998 52.2602 17.9498 51.9902 17.9298 51.8102L17.9398 51.8002ZM16.5798 55.0002L16.6398 55.6102H16.4798L16.4198 55.0002H16.5798ZM15.8698 56.1402H16.1798C16.1798 56.6402 16.0098 56.9102 15.7598 56.9302H15.5998C15.7612 56.7044 15.8549 56.4373 15.8698 56.1602V56.1402ZM15.3398 57.7202H15.5198V57.8702L15.2298 58.3502H14.9198V58.2002C14.9825 58.205 15.0454 58.195 15.1035 58.1709C15.1616 58.1468 15.2132 58.1094 15.2541 58.0617C15.295 58.014 15.3241 57.9573 15.339 57.8962C15.3539 57.8351 15.3542 57.7714 15.3398 57.7102V57.7202ZM14.8198 59.1502L14.7298 59.9102H14.5698L14.4998 59.1602H14.8198V59.1502ZM9.58984 74.0002C9.37984 75.0002 9.15984 75.5702 8.92984 75.5902V75.4402C8.91206 75.1643 8.96305 74.8883 9.07825 74.637C9.19344 74.3856 9.36923 74.1668 9.58984 74.0002ZM8.58984 76.0802V76.2302C8.60114 76.2718 8.60229 76.3155 8.59322 76.3577C8.58415 76.3999 8.5651 76.4392 8.53769 76.4725C8.51027 76.5058 8.47528 76.5321 8.43563 76.5491C8.39599 76.5661 8.35286 76.5733 8.30984 76.5702V76.4202C8.30984 76.2402 8.40318 76.1269 8.58984 76.0802ZM8.30984 80.3902H8.78984V80.5602C8.61837 80.5894 8.45488 80.6542 8.30984 80.7502H7.99984C7.99984 80.5902 8.07984 80.4702 8.27984 80.4102L8.30984 80.3902ZM22.0998 76.1302C20.4059 76.8641 18.7965 77.7795 17.2998 78.8602C14.3865 79.8802 12.9532 80.5169 12.9998 80.7702C11.2242 81.4108 9.48788 82.1554 7.79984 83.0002C7.50301 82.9957 7.21156 82.9203 6.94984 82.7802C6.93114 82.5182 6.98813 82.2564 7.114 82.026C7.23988 81.7955 7.42935 81.606 7.65984 81.4802C8.10628 81.4391 8.55601 81.5077 8.96984 81.6802C9.782 81.3163 10.6299 81.0381 11.4998 80.8502V80.5302L10.4998 80.6102C11.3784 80.065 12.3183 79.6253 13.2998 79.3002H13.7798V79.4502C12.9498 79.5202 12.4898 79.7702 12.3898 80.2002C12.3898 80.4002 12.5198 80.4802 12.7298 80.4602C13.3498 80.0702 13.6598 79.8402 13.6498 79.7702C14.8365 79.5435 18.1065 77.8335 23.4598 74.6402V74.9302C23.4598 75.0702 23.0098 75.4602 22.0898 76.1302H22.0998ZM13.8798 78.8302C14.6363 78.7696 15.346 78.4396 15.8798 77.9002C16.0998 77.9002 16.2198 77.9702 16.2298 78.1602C15.4486 78.3675 14.7082 78.7056 14.0398 79.1602H13.8798V78.8502V78.8302ZM27.1898 68.6402L23.0798 71.9002C21.5072 73.012 19.86 74.0144 18.1498 74.9002C13.2832 77.5669 10.2598 78.9569 9.07984 79.0702H8.89984C9.04651 78.5235 11.2132 74.0869 15.3998 65.7602C18.4018 65.2773 21.3292 64.4102 24.1098 63.1802L25.1098 63.1002C25.897 62.9596 26.7051 62.9895 27.4796 63.1879C28.2542 63.3863 28.9772 63.7485 29.5998 64.2502L29.6598 64.8602C28.9132 67.0002 28.0965 68.2535 27.2098 68.6202L27.1898 68.6402ZM19.1898 64.1202L19.8498 64.0602V64.2102L19.1898 64.2702V64.1202ZM28.4798 62.5502H28.9598C29.4098 62.7602 29.6398 62.9502 29.6598 63.1202V63.2702C29.42 63.2734 29.1836 63.2131 28.9746 63.0954C28.7657 62.9777 28.5915 62.8069 28.4698 62.6002L28.4798 62.5502ZM29.7898 55.0702C28.7216 56.0765 27.5404 56.9557 26.2698 57.6902C25.6398 57.7502 23.2698 58.6902 19.1998 60.4502C18.9964 60.3579 18.7724 60.3199 18.5498 60.3402V60.0502C18.572 59.2453 18.8485 58.4681 19.3398 57.8302C19.6598 56.1502 19.9998 55.1902 20.3398 54.9602L23.7398 47.3102C23.6998 46.8369 24.4265 46.4735 25.9198 46.2202H26.3998V46.6602C27.8598 46.4402 28.7798 46.3102 29.1298 46.2802C31.8298 46.0502 33.2398 46.6002 33.3498 47.9102H33.6598L33.5898 47.1402L33.9998 47.0002C34.3298 47.1361 34.62 47.3531 34.8438 47.631C35.0676 47.9089 35.2175 48.2389 35.2798 48.5902C35.2486 49.1859 35.0036 49.7504 34.5898 50.1802C34.3898 50.1802 34.2598 50.0502 34.2498 49.7502H33.9098L33.8398 50.6802C32.4732 52.7269 31.4732 53.7802 30.8398 53.8402C30.2798 54.6102 29.9398 55.0002 29.8398 55.0002L29.7898 55.0702ZM31.8798 60.4302C31.6883 60.2771 31.4545 60.1864 31.2098 60.1702V59.7102H31.5198L32.1998 60.1102C32.2111 60.1518 32.2123 60.1955 32.2032 60.2377C32.1941 60.2799 32.1751 60.3192 32.1477 60.3525C32.1203 60.3858 32.0853 60.4121 32.0456 60.4291C32.006 60.446 31.9629 60.4533 31.9198 60.4502L31.8798 60.4302ZM33.9998 63.0002C34.2998 63.1202 34.4798 63.2502 34.5098 63.3702H34.2698L34.0498 63.5502L33.9998 63.0002ZM34.2098 64.2902V64.1702L34.5998 64.0802V64.2002L34.2098 64.2902ZM35.1498 65.3402C35.5498 65.2702 35.7498 65.2502 36.4898 65.0802V65.2002L35.0698 65.5302C35.0732 65.4669 35.0732 65.4035 35.0698 65.3402H35.1498ZM36.5298 65.9302C36.0503 65.9404 35.5736 66.0076 35.1098 66.1302V66.0102L36.2898 65.6302L36.8598 65.5002L36.9198 65.7202C36.6698 65.7802 36.8498 65.7802 36.5598 65.9302H36.5298ZM37.7898 65.6302C37.7563 65.6392 37.7214 65.6414 37.687 65.6366C37.6527 65.6319 37.6196 65.6203 37.5898 65.6026C37.56 65.5849 37.534 65.5614 37.5134 65.5335C37.4928 65.5056 37.478 65.4739 37.4698 65.4402L37.8298 65.3602C37.862 65.3475 37.8968 65.3426 37.9312 65.3459C37.9656 65.3492 37.9988 65.3606 38.028 65.3791C38.0573 65.3976 38.0817 65.4227 38.0994 65.4525C38.1171 65.4822 38.1275 65.5157 38.1298 65.5502L37.7898 65.6302ZM41.1998 61.9602V61.8402L41.7898 61.7002L41.8498 61.9202H41.2298L41.1998 61.9602ZM44.8398 84.3002C44.8649 84.1781 44.8649 84.0523 44.8398 83.9302H44.9698C44.9999 83.9176 45.0325 83.9121 45.0651 83.9143C45.0976 83.9164 45.1292 83.9261 45.1574 83.9426C45.1855 83.9591 45.2094 83.982 45.2272 84.0093C45.245 84.0367 45.2562 84.0678 45.2598 84.1002V84.2202L44.7798 84.3302L44.8398 84.3002ZM47.3998 62.9102H47.1398C46.7958 63.0534 46.4415 63.1704 46.0798 63.2602L45.8398 63.3202C45.8084 63.3309 45.775 63.3349 45.7419 63.3319C45.7088 63.329 45.6766 63.3193 45.6475 63.3033C45.6184 63.2873 45.5928 63.2655 45.5726 63.2391C45.5523 63.2127 45.5378 63.1825 45.5298 63.1502L47.2398 62.7602L47.7998 62.5002L47.9898 62.7102C47.7791 62.7391 47.5794 62.8218 47.4098 62.9502L47.3998 62.9102ZM48.7098 62.4902V62.3702C48.8337 62.3308 48.9444 62.2582 49.0298 62.1602L50.2398 61.8802V62.0002C49.7171 62.1162 49.2052 62.2768 48.7098 62.4802V62.4902ZM48.8998 60.0002C48.7735 60.0466 48.6579 60.118 48.5598 60.2102C48.5598 60.1302 48.3698 60.1302 48.0598 60.2102C47.9998 59.9802 48.8998 59.6502 50.7498 59.2102L51.0098 59.1502L51.0698 59.3702C49.7698 59.7502 49.0698 59.9702 48.8998 59.9902V60.0002ZM52.1598 56.4802C51.9998 58.0002 51.5098 58.8302 50.5798 59.0002V58.8802L49.7598 59.2002L49.3998 59.2802C49.2364 59.3264 49.0633 59.3264 48.8998 59.2802L48.7898 59.0002C49.8745 57.292 51.0635 55.6522 52.3498 54.0902H52.6298C52.6658 54.914 52.5011 55.7342 52.1498 56.4802H52.1598ZM57.9298 51.5402H57.8198V51.3102H58.2998V51.4302C58.1741 51.465 58.0531 51.5154 57.9398 51.5802L57.9298 51.5402ZM55.5498 75.4402C55.3189 75.3193 55.0604 75.2607 54.7998 75.2702V74.9202C54.7998 74.8002 54.8732 74.7169 55.0198 74.6702C55.1798 74.6702 55.2698 74.7602 55.2898 75.0102C55.4801 74.7265 55.7052 74.4678 55.9598 74.2402L56.2098 74.3402C56.1198 75.0502 55.8998 75.4202 55.5698 75.4502L55.5498 75.4402ZM80.9998 48.7902C80.8798 48.7902 80.6498 48.4302 80.2798 47.6702V47.4402C80.5098 47.4402 80.7598 47.7802 80.9998 48.5302V48.7902ZM80.6599 46.1302L80.5499 46.3702L77.0998 44.9302C79.3998 45.0002 80.5899 45.4102 80.6599 46.1302ZM66.0698 58.6702H65.5898V58.4402H66.0698V58.6602V58.6702ZM65.6698 51.1302H65.7999V51.4802C65.6798 51.4802 65.5298 51.6469 65.3498 51.9802V51.7502C65.5185 51.5832 65.6274 51.3653 65.6599 51.1302H65.6698ZM64.6698 53.5502V54.0102H64.5398V53.5502H64.6698ZM64.1198 54.4202H64.3598C64.3598 54.8135 64.2565 55.0202 64.0498 55.0402H63.9198C64.0381 54.8575 64.107 54.6474 64.1198 54.4302V54.4202ZM63.7298 55.6102H63.8398V55.7302L63.6298 56.1002H63.3898V56.0002C63.6398 56.0002 63.7498 55.8502 63.7298 55.6202V55.6102ZM63.3398 56.6902L63.2598 57.2902H63.1498V56.7002H63.3898L63.3398 56.6902ZM59.3398 67.9902C59.1798 68.7702 59.0132 69.1702 58.8398 69.1902V69.0902C58.8316 68.8795 58.8735 68.6699 58.9622 68.4787C59.0509 68.2874 59.1837 68.12 59.3498 67.9902H59.3398ZM58.5998 69.5602V69.6602C58.6098 69.6931 58.6115 69.728 58.6049 69.7617C58.5982 69.7955 58.5834 69.827 58.5617 69.8537C58.5399 69.8804 58.512 69.9013 58.4803 69.9146C58.4486 69.928 58.4141 69.9333 58.3798 69.9302V69.8102C58.3798 69.6902 58.4532 69.6069 58.5998 69.5602ZM58.3898 72.8402H58.7598V72.9602C58.6323 72.9846 58.5104 73.0321 58.3998 73.1002H58.1598C58.1598 72.9669 58.2332 72.8835 58.3798 72.8502L58.3898 72.8402ZM68.8498 69.6102C67.5697 70.1778 66.3474 70.8676 65.1998 71.6702C62.9598 72.4502 61.8598 72.9402 61.8698 73.1302C60.5462 73.6322 59.2538 74.2132 57.9998 74.8702C57.7754 74.8606 57.5564 74.799 57.3598 74.6902C57.3377 74.4884 57.3775 74.2847 57.474 74.106C57.5704 73.9274 57.719 73.7824 57.8998 73.6902C58.2404 73.658 58.5837 73.7095 58.8998 73.8402C59.5224 73.5736 60.1685 73.366 60.8298 73.2202V72.9902L60.0698 73.0502C60.7412 72.6335 61.4595 72.2978 62.2098 72.0502H62.5798V72.1502C61.9498 72.2102 61.5798 72.3902 61.5198 72.7302C61.5189 72.7625 61.5255 72.7947 61.539 72.824C61.5525 72.8534 61.5726 72.8793 61.5978 72.8996C61.623 72.92 61.6525 72.9342 61.6841 72.9412C61.7157 72.9483 61.7484 72.9479 61.7798 72.9402C62.2498 72.6302 62.4698 72.4602 62.4698 72.4002C63.3632 72.2402 65.8432 70.9402 69.9099 68.5002V68.7302C69.9099 68.8302 69.5699 69.1302 68.9099 69.6402L68.8498 69.6102ZM62.6098 71.6102C63.1924 71.5652 63.7409 71.3175 64.1598 70.9102C64.1913 70.9025 64.224 70.9021 64.2556 70.9092C64.2872 70.9162 64.3167 70.9304 64.3419 70.9508C64.3671 70.9711 64.3872 70.997 64.4007 71.0263C64.4142 71.0557 64.4208 71.0879 64.4198 71.1202C63.8335 71.2707 63.2737 71.5102 62.7598 71.8302H62.6298V71.6102H62.6098ZM72.6998 63.9302L69.5998 66.4302C68.4011 67.288 67.1411 68.0568 65.8298 68.7302C62.1432 70.7302 59.8465 71.7835 58.9398 71.8902H58.8098C58.9232 71.4702 60.5732 68.1035 63.7598 61.7902C66.0391 61.4064 68.2602 60.7344 70.3699 59.7902L71.1199 59.7202C71.7172 59.6142 72.3305 59.6388 72.9174 59.7925C73.5044 59.9461 74.051 60.2251 74.5198 60.6102V61.0702C73.9498 62.6702 73.3398 63.6102 72.6698 63.9002L72.6998 63.9302ZM66.6098 60.5002H67.0898V60.6202H66.6098V60.5002ZM73.6599 59.3002H74.0298C74.3698 59.4702 74.5498 59.6202 74.5598 59.7402V59.8402C74.3759 59.8472 74.1936 59.8032 74.0331 59.7133C73.8725 59.6233 73.7399 59.4907 73.6498 59.3302L73.6599 59.3002ZM74.6599 53.6302C73.8543 54.3984 72.9615 55.0696 71.9998 55.6302C70.1567 56.1776 68.3608 56.8732 66.6298 57.7102C66.473 57.6536 66.3062 57.6298 66.1398 57.6402V57.4102C66.1554 56.7991 66.3617 56.2082 66.7299 55.7202C66.9698 54.4302 67.2398 53.7202 67.5198 53.5502L70.1199 47.7402C70.1199 47.4002 70.6398 47.1202 71.7598 46.9002H72.1298V47.2502C73.2298 47.0702 73.9198 46.9669 74.1998 46.9402C76.1998 46.7602 77.3199 47.1702 77.4099 48.1802H77.6498V47.6202H77.8898C78.1453 47.7121 78.3721 47.8695 78.5476 48.0765C78.723 48.2836 78.8411 48.5332 78.8898 48.8002C78.8398 49.2591 78.6269 49.6848 78.2898 50.0002C78.1298 50.0002 78.0398 49.9102 78.0198 49.6602H77.7798L77.7098 50.3602C76.7098 51.9302 75.9198 52.7502 75.4498 52.7802C75.0298 53.3502 74.7699 53.6402 74.6498 53.6502L74.6599 53.6302ZM75.7498 57.5102V57.1602H75.9898L76.5098 57.4802C76.5142 57.5115 76.5117 57.5434 76.5026 57.5736C76.4935 57.6039 76.4779 57.6318 76.4571 57.6555C76.4362 57.6793 76.4104 57.6982 76.3816 57.7111C76.3527 57.724 76.3214 57.7305 76.2898 57.7302C76.1418 57.6174 75.9651 57.5481 75.7798 57.5302L75.7498 57.5102ZM32.3598 80.1302L32.1198 80.1902L31.9098 80.3702C31.9135 80.4026 31.9247 80.4337 31.9425 80.4611C31.9603 80.4884 31.9842 80.5113 32.0123 80.5278C32.0405 80.5443 32.0721 80.554 32.1046 80.5561C32.1372 80.5583 32.1698 80.5528 32.1998 80.5402C32.3598 80.5402 32.4198 80.4102 32.3898 80.2602V80.1402L32.3598 80.1302ZM31.4398 78.2902V78.4102C31.5998 78.4102 31.6598 78.2802 31.6298 78.1302V78.0102C31.5977 78.0133 31.5666 78.0235 31.5389 78.04C31.5111 78.0565 31.4873 78.0789 31.4692 78.1056C31.451 78.1324 31.439 78.1627 31.4339 78.1946C31.4289 78.2265 31.4309 78.2592 31.4398 78.2902ZM37.9998 62.6902L38.2798 62.6202L38.2198 62.3802L37.9398 62.4502L37.9998 62.6902ZM122.55 69.7902C121.318 70.1332 120.048 70.3246 118.77 70.3602V70.5902H119.17L119.48 70.4702C122.28 70.1602 122.61 70.2702 122.58 69.9602V69.8502L122.55 69.7902ZM107.3 71.7902V72.0202V71.7902ZM105.55 65.6502L105.3 65.5702C105.159 65.8898 105.058 66.2257 105 66.5702V66.6702C105.2 66.6702 105.37 66.3302 105.54 65.6702L105.55 65.6502ZM123.13 69.7202V69.9502L123.54 70.0202V69.7902L123.13 69.7202ZM103.84 72.1002L103.21 72.0302L103.1 72.2702V72.3902L106.87 72.0702V71.8402L103.87 72.1002H103.84ZM102.13 63.8402V63.7202H102L101.77 63.8702L101.9 64.0902C102.08 64.0902 102.16 63.9902 102.14 63.8302L102.13 63.8402ZM124.91 68.0002H125.09C125.19 68.0002 125.24 67.9102 125.23 67.7602L125.13 67.5402C124.62 67.5374 124.117 67.6647 123.67 67.9102V67.8002L122.9 67.8702C122.9 67.6402 122.82 67.5202 122.71 67.5302H122.31C121.84 67.5302 121.62 67.5302 121.39 67.7302C121.39 67.6502 121.39 67.6102 121.31 67.6102H120.86L120.6 67.7602C120.6 67.6802 120.6 67.6402 120.52 67.6402L120.36 67.7802V67.6602H119.59V67.8902L119.91 67.9702H120.21C120.312 68.0303 120.432 68.0549 120.55 68.0402L120.81 67.9102V68.0002C120.001 68.2106 119.179 68.3676 118.35 68.4702C118.28 68.4103 118.192 68.3752 118.1 68.3702C118.074 68.3689 118.048 68.3625 118.024 68.3512C118 68.34 117.979 68.3241 117.961 68.3046C117.944 68.2851 117.93 68.2623 117.921 68.2375C117.912 68.2127 117.909 68.1865 117.91 68.1602L118.43 68.0902C118.545 68.1266 118.662 68.1567 118.78 68.1802C119.2 67.9702 119.22 67.8902 119.44 67.8702V67.6402C118.562 67.8016 117.672 67.8853 116.78 67.8902H116.7V67.6602C119.01 67.3802 118.24 67.5402 119.03 67.3202C119.03 67.4002 119.03 67.4402 119.11 67.4402C119.195 67.3521 119.308 67.2956 119.43 67.2802H119.59C120.496 67.3079 121.401 67.1897 122.27 66.9302V67.0302L122.53 66.9002H122.77C122.77 66.6702 123.11 66.6302 123.23 66.6202V66.3702C120.42 66.9402 119.68 66.7802 118.9 67.0002V66.9002C118.572 66.976 118.235 67.003 117.9 66.9802C117.81 67.0073 117.731 67.0593 117.67 67.1302C117.67 67.0502 117.67 67.0102 117.58 67.0102L115.19 67.4002C115.19 67.3302 115.19 67.3002 115.1 67.3102C114.265 67.5545 113.407 67.7087 112.54 67.7702C112.428 67.7905 112.323 67.8348 112.23 67.9002C112.23 67.8302 112.23 67.8002 112.1 67.8102L111.1 67.8902L110.42 68.0602C110.42 67.9902 110.42 67.9602 110.29 67.9702C109.963 68.0647 109.628 68.1283 109.29 68.1602C109.12 68.1602 109.37 68.1602 109.29 68.0602L109.08 68.1802H107.92C106.12 68.4002 106.32 68.4302 106.12 68.4402H105.45C105.453 68.4544 105.453 68.4693 105.449 68.4835C105.446 68.4977 105.439 68.5108 105.429 68.5216C105.419 68.5324 105.407 68.5407 105.393 68.5457C105.379 68.5507 105.364 68.5522 105.35 68.5502C104.59 68.4502 104.19 68.3302 104.19 68.1902C104.29 67.4635 104.467 67.0902 104.72 67.0702H104.85L104.74 67.3102H104.87C105.11 67.1802 105.22 67.0602 105.21 66.9502V66.7002H104.97V66.4702C104.947 66.3101 104.972 66.1469 105.04 66.0002L105.59 65.1102V65.3402H105.85V65.1102L105.7 64.9002C105.829 64.7686 105.991 64.6752 106.17 64.6302V64.5102H105.82V64.1602C106.27 63.3538 106.607 62.4889 106.82 61.5902L107.07 61.6902C107.23 61.6902 107.3 61.5902 107.29 61.4202H107.05V61.3202C107.033 61.1516 107.064 60.9816 107.14 60.8302C107.311 60.6775 107.446 60.4891 107.536 60.2782C107.626 60.0673 107.668 59.8393 107.66 59.6102C107.73 59.6102 107.77 59.6102 107.78 59.7202C108.11 59.5302 108.36 59.0402 108.54 58.2202C109.442 56.203 110.201 54.1245 110.81 52.0002C112.81 46.4802 112.81 45.9002 113.06 44.5902H112.82C112.838 44.7556 112.807 44.9226 112.73 45.0702C112.607 45.0142 112.475 44.9836 112.34 44.9802V44.8802C112.35 44.2587 112.564 43.6577 112.95 43.1702H113L113.21 43.9702H113.45C113.49 43.6329 113.553 43.2987 113.64 42.9702C113.64 42.8502 113.54 42.7702 113.35 42.7602L113.12 42.9102V41.6102H113C112.838 41.4814 112.726 41.3016 112.68 41.1002L111.35 41.2302C111.325 41.0857 111.274 40.9468 111.2 40.8202C111.2 40.7002 111.49 40.5802 112.1 40.4602L112.37 40.5602L112.62 40.4102C112.62 40.4902 112.68 40.5302 112.77 40.5202L113.02 40.3702C113.02 40.4502 113.08 40.4902 113.17 40.4802H113.29V40.2102H111.83L111.58 40.3802V40.2002C105.327 40.7135 101.777 41.0102 100.93 41.0902H99.6098C99.6098 41.1902 99.5298 41.2502 99.3398 41.2702L99.0698 41.1502L98.1599 41.3802C97.8006 41.4122 97.4391 41.4122 97.0798 41.3802C96.9338 41.4966 96.7561 41.5662 96.5698 41.5802L99.2398 41.4102C99.0476 41.5407 98.8221 41.6135 98.5898 41.6202C98.4081 41.6449 98.2232 41.6135 98.0598 41.5302C97.4046 41.732 96.7364 41.889 96.0598 42.0002L95.7898 41.9002L91.4298 42.5702C91.2454 42.4859 91.0411 42.4547 90.8398 42.4802C90.447 42.5317 90.059 42.6153 89.6798 42.7302L87.5698 43.6102L87.7299 43.8702C87.8831 43.843 88.0294 43.7851 88.1599 43.7002L88.9099 43.7702L88.8198 44.4702C88.5238 44.5755 88.2588 44.7533 88.0492 44.9874C87.8396 45.2214 87.6919 45.5043 87.6199 45.8102C86.6199 46.2702 86.0698 46.5902 86.0698 46.8102V46.9302H86.2299L86.5098 46.7802L86.8398 47.1702V47.7102C86.8398 47.8769 85.1032 51.5435 81.6298 58.7102C78.6298 65.6102 77.0298 69.3802 76.8798 70.0602C75.8798 70.3502 75.2498 70.7702 75.0698 71.3302C75.0698 71.5102 75.3998 71.6302 75.9898 71.6702V71.9402L75.7198 72.3902V72.9302C75.7198 73.2102 76.4732 73.4235 77.9799 73.5702C77.9799 73.4802 77.9799 73.4202 78.1199 73.4102C78.1099 74.0859 78.0158 74.7577 77.8398 75.4102H77.9998C78.5294 74.8932 78.8798 74.2205 78.9998 73.4902H79.1298C79.2798 73.4902 79.4398 73.6502 79.6199 74.0102C79.4332 74.0835 78.7665 75.5669 77.6199 78.4602L77.7798 78.7202H77.9998C79.3665 75.2535 80.2265 73.3369 80.5798 72.9702C82.3799 72.8102 85.4899 72.4769 89.9099 71.9702L90.1898 71.8002C90.1888 71.8212 90.1929 71.8422 90.2018 71.8613C90.2106 71.8804 90.224 71.897 90.2407 71.9098C90.2574 71.9226 90.277 71.9311 90.2978 71.9347C90.3185 71.9382 90.3398 71.9367 90.3598 71.9302H90.6498L90.9298 71.7602C90.9288 71.7812 90.9329 71.8022 90.9418 71.8213C90.9506 71.8404 90.964 71.857 90.9807 71.8698C90.9974 71.8826 91.017 71.8911 91.0378 71.8947C91.0585 71.8982 91.0798 71.8967 91.0998 71.8902L94.4498 71.6002C95.3398 71.5302 95.7498 71.2602 95.7198 70.8002C95.7198 70.6802 96.2299 70.5402 97.2898 70.3902C97.4468 70.3884 97.6027 70.4156 97.7498 70.4702C97.7498 70.3902 98.2699 70.3002 99.3298 70.2102C99.3298 69.6502 99.5398 69.3502 99.8498 69.3202V69.0502C99.509 69.0896 99.1736 69.1667 98.8498 69.2802C98.4021 69.2745 97.9562 69.2209 97.5198 69.1202C97.3885 69.2035 97.2426 69.2612 97.0898 69.2902L94.7598 69.3602L94.4799 69.5102C94.4799 69.4235 94.4232 69.3869 94.3098 69.4002H94.1798L93.8798 69.5502C93.8798 69.4702 93.6298 69.4002 93.1398 69.3402L92.8398 69.5202H92.2598V69.3702C95.2598 69.0435 96.7398 68.6369 96.6998 68.1502C96.7395 68.1407 96.7808 68.1407 96.8204 68.1501C96.8601 68.1595 96.8969 68.1781 96.9281 68.2043C96.9592 68.2306 96.9837 68.2638 96.9997 68.3013C97.0156 68.3388 97.0225 68.3795 97.0198 68.4202L97.8998 68.2002V67.9302L90.7198 68.1302C90.7198 68.2202 90.7198 68.2802 90.5798 68.2902L89.6998 68.2202C89.4979 68.2321 89.3036 68.3015 89.1398 68.4202L88.8098 68.3002C88.1337 68.3422 87.4636 68.4527 86.8098 68.6302C86.1442 68.5777 85.4755 68.5777 84.8098 68.6302L83.1998 68.7702L82.4498 68.6902C82.4498 68.2102 83.3398 65.8802 85.2398 61.6902C85.5212 60.6939 86.0512 59.7855 86.7798 59.0502C86.9394 59.0524 87.0965 59.09 87.2398 59.1602L88.3898 58.7702L88.9799 58.8602C90.1624 58.7307 91.3225 58.4448 92.4298 58.0102C92.6819 57.9739 92.9389 57.9979 93.1798 58.0802L94.0598 57.8702L96.6698 57.6502C97.8995 57.5335 99.1131 57.2854 100.29 56.9102V56.6402C99.8098 56.6402 99.5499 56.6402 99.5398 56.4102C99.5398 56.0502 99.1599 55.9002 98.4799 55.9502V55.6802L99.1998 55.4702L101.08 55.3102V55.0402H99.9198V54.7502L100.65 54.6802C100.85 54.6802 100.93 54.5702 100.91 54.3802C99.9099 54.3802 99.4398 54.3802 99.4298 54.2302C92.6098 54.5635 89.1898 54.6269 89.1698 54.4202C89.0151 54.4538 88.8689 54.5184 88.7398 54.6102L88.5598 54.3302C90.3665 50.4902 91.4265 48.5569 91.7398 48.5302C91.7214 48.785 91.6426 49.0318 91.5098 49.2502V49.3702H91.7999C92.5199 47.6602 93.1198 46.7702 93.6298 46.7302C95.7698 46.5402 93.3298 46.4002 97.9198 45.7302C98.0458 45.799 98.1864 45.8367 98.3298 45.8402C100.13 45.4802 102.637 45.1002 105.85 44.7002V44.4302L104.14 44.5902V44.3202C104.326 44.3062 104.504 44.2366 104.65 44.1202V44.2702C104.792 44.2362 104.925 44.1713 105.04 44.0802C105.27 44.0414 105.505 44.0692 105.72 44.1602C106.189 44.0286 106.667 43.9316 107.15 43.8702L108.22 43.7702C108.48 43.6002 108.6 43.4502 108.59 43.3102V43.1902C108.275 43.2142 107.959 43.194 107.65 43.1302C107.646 43.0947 107.649 43.0587 107.658 43.0244C107.668 42.99 107.685 42.958 107.707 42.9301C107.729 42.9021 107.757 42.879 107.788 42.8618C107.82 42.8447 107.854 42.8339 107.89 42.8302L109.89 42.6402L110.8 42.4102C110.8 42.5102 110.86 42.5502 110.93 42.5502C111.072 42.5162 111.205 42.4513 111.32 42.3602H111.47C111.308 42.7125 111.175 43.077 111.07 43.4502H110.81C110.796 43.281 110.745 43.117 110.66 42.9702H110.53C108.11 49.7202 107.03 52.8602 104.79 58.0402C104.38 59.3602 104.04 60.1002 103.74 60.2602C103.739 60.2925 103.745 60.3246 103.759 60.354C103.773 60.3834 103.793 60.4093 103.818 60.4296C103.843 60.45 103.872 60.4642 103.904 60.4712C103.936 60.4783 103.968 60.4779 104 60.4702C104.051 61.1458 103.891 61.8205 103.54 62.4002C102.54 65.4002 101.82 67.0102 101.46 67.3102L101.69 68.7202C101.694 68.7515 101.692 68.7834 101.683 68.8136C101.673 68.8439 101.658 68.8718 101.637 68.8955C101.616 68.9193 101.59 68.9382 101.562 68.9511C101.533 68.964 101.501 68.9705 101.47 68.9702H101.23C101.23 68.5802 101.05 68.3902 100.8 68.4202H100.67C100.334 68.9487 100.091 69.5303 99.9498 70.1402H100.19C100.329 70.0714 100.445 69.9641 100.525 69.8312C100.605 69.6982 100.644 69.5452 100.64 69.3902H101.12L101.4 69.4902C101.211 69.7349 101.103 70.0317 101.09 70.3402L101.22 70.5602L100.9 71.3102V71.4302C101.223 71.4171 101.542 71.5083 101.81 71.6902C102.078 71.6531 102.332 71.55 102.55 71.3902H105.67L106.57 71.0802C107.214 71.0831 107.858 71.0565 108.5 71.0002H108.89L109.1 70.8602V70.9802C109.73 70.8877 110.371 70.8945 111 71.0002V71.1202H110.45V71.3502C110.61 71.3397 110.764 71.2803 110.89 71.1802C111.03 71.1802 111.11 71.2502 111.12 71.4102C110.864 71.4373 110.612 71.4943 110.37 71.5802L110.13 71.5002C109.75 71.6002 109.83 71.6302 109.57 71.6502L109.19 71.5802C109.193 71.5936 109.193 71.6075 109.19 71.6208C109.187 71.6341 109.18 71.6466 109.172 71.6572C109.163 71.6678 109.152 71.6763 109.14 71.682C109.127 71.6877 109.114 71.6905 109.1 71.6902C109.098 71.72 109.103 71.7499 109.114 71.7776C109.125 71.8052 109.143 71.8301 109.165 71.8502C109.187 71.8704 109.213 71.8853 109.242 71.8939C109.27 71.9026 109.3 71.9047 109.33 71.9002H109.72L111.72 71.7202L112.49 71.5502C112.49 71.6202 112.49 71.6502 112.59 71.6402L112.96 71.5002L113.66 71.4402C114.2 71.4402 114.19 71.3602 115.36 71.1702C115.36 71.1002 115.36 71.0702 115.43 71.0602V71.1602C116.219 71.0645 117.001 70.9141 117.77 70.7102V70.7702C118.25 70.6602 117.98 70.6902 118.11 70.5902C118.11 70.6702 118.11 70.7102 118.19 70.7102H118.53V70.4602H117.69C117.439 70.5071 117.185 70.5272 116.93 70.5202L115.22 70.6102V70.4902L116.22 70.3602H116.56L116.76 70.2202V70.3402C118.1 70.2302 118.58 70.5602 124.76 69.2402C125.1 69.2402 125.07 68.9302 125.28 68.3502C125.165 68.3601 125.05 68.3357 124.95 68.2802C124.369 68.4212 123.777 68.5082 123.18 68.5402C123.1 68.5402 123.03 68.4702 123 68.3302V68.2302H124C124.354 68.1925 124.696 68.0764 125 67.8902C125 67.9702 124.81 68.0202 124.93 68.0102L124.91 68.0002ZM78.9998 68.7702H78.5598C78.7065 68.0763 78.9417 67.4041 79.2598 66.7702H79.5499C79.4585 67.4588 79.2735 68.1317 78.9998 68.7702ZM79.5298 66.6502V66.5302C79.5298 66.3802 79.6098 66.2802 79.8198 66.2302V66.3502C79.8198 66.5302 79.7398 66.6302 79.5298 66.6502ZM85.3498 71.1502V71.2702L84.6199 71.3402V71.2202L85.3498 71.1502ZM84.4698 71.0802C84.4698 71.2302 84.2598 71.4002 83.7698 71.5602L82.8798 71.4902H82.5898V71.2202L84.4998 71.0402L84.4698 71.0802ZM90.3998 44.0002H89.9998V43.8502C89.9998 43.7002 90.0698 43.6002 90.2598 43.5502H90.4198L90.7198 43.6702C90.7258 43.7084 90.7233 43.7474 90.7122 43.7845C90.7012 43.8216 90.6821 43.8557 90.6562 43.8845C90.6304 43.9132 90.5984 43.9358 90.5627 43.9506C90.527 43.9655 90.4885 43.9722 90.4498 43.9702L90.3998 44.0002ZM97.0598 42.7002H97.1998V42.9702H96.7999C96.7957 42.9347 96.7986 42.8987 96.8084 42.8644C96.8183 42.83 96.8348 42.798 96.8572 42.7701C96.8795 42.7421 96.9071 42.719 96.9385 42.7018C96.9699 42.6847 97.0043 42.6739 97.0398 42.6702L97.0598 42.7002ZM95.3798 43.2902L94.7198 43.2202V43.0002C95.294 42.9618 95.8614 42.8544 96.4099 42.6802C96.4099 42.7802 96.5098 42.8202 96.6798 42.8002V43.0702H96.4198C96.2381 43.0949 96.0532 43.0635 95.8898 42.9802C95.7377 43.0838 95.5627 43.149 95.3798 43.1702V43.2902ZM96.2098 45.7002V45.5802L97.2798 45.4802V45.6002L96.2098 45.7002ZM97.3598 44.7702V44.6202H97.8798V44.7702H97.3598ZM97.4799 42.9402H97.3398L97.4598 42.6502L98.6498 42.5402V42.6902C98.2505 42.737 97.8558 42.8173 97.4698 42.9302L97.4799 42.9402ZM98.0898 45.5102V45.2402H98.6098C98.7898 45.2402 98.8832 45.3235 98.8898 45.4902L98.1098 45.5602L98.0898 45.5102ZM101.25 41.2102L100.58 41.4002H100.46C100.057 41.4359 99.6524 41.4359 99.2498 41.4002C100.12 41.3402 100.95 41.2802 101.25 41.2302V41.2102ZM100.53 44.2102V44.3302L99.6098 44.4102V44.2902L100.53 44.2102ZM102.04 44.9302C102.04 44.8202 101.85 44.7402 101.49 44.7102L100.57 44.9702H99.8598C99.6998 44.8602 99.6199 44.7802 99.6098 44.7302H100.43L102.27 44.4302H103.21V44.5802C102.809 44.615 102.413 44.6955 102.03 44.8202L102.04 44.9302ZM111.53 42.4802H111.74C112.059 42.1626 112.436 41.9081 112.85 41.7302C112.645 42.9463 112.101 44.0797 111.28 45.0002L110.76 44.6802C111.067 43.9588 111.324 43.217 111.53 42.4602V42.4802ZM109.93 45.2302H110.06C109.88 45.5702 109.72 45.7402 109.59 45.7502V45.4002C109.721 45.3777 109.845 45.3227 109.95 45.2402L109.93 45.2302ZM108.93 47.7002C109.01 47.0723 109.259 46.4779 109.65 45.9802V46.0002C109.52 46.9302 109.31 47.4302 109.04 47.4602V48.0502C108.857 48.2602 108.745 48.5227 108.72 48.8002H108.59L108.52 47.9902C108.67 47.9902 108.79 47.8402 108.87 47.6002L108.93 47.7002ZM108.53 49.0402C108.491 49.3854 108.4 49.7226 108.26 50.0402H108.13V49.6902C108.31 49.2802 108.46 49.0702 108.56 49.0702L108.53 49.0402ZM101 70.8002V70.7002H101.24V71.0502C101.11 71.0502 101.02 70.9802 100.98 70.8202L101 70.8002ZM111.74 71.0802C111.74 71.0002 111.74 70.9602 111.61 70.9702L111 71.0002V70.9002L112.43 70.7802V70.9002C112.167 70.8803 111.905 70.9433 111.68 71.0802H111.74ZM111.02 70.7802C111.08 70.7802 111.02 70.8402 111.02 70.8502C111.02 70.8602 110.95 70.8502 111.02 70.7802ZM111.09 69.1002L110.29 69.1702V69.0002H111L111.63 68.8402C111.63 68.9102 111.63 68.9402 111.76 68.9302C112.51 68.8002 112.44 68.7602 112.76 68.7302C112.88 68.7302 112.96 68.8002 112.97 68.9402L111.04 69.1102L111.09 69.1002ZM113.89 68.8602C113.63 68.8074 113.365 68.7873 113.1 68.8002V68.7002L113.82 68.6302V68.7302C113.75 68.7302 114.02 68.7302 113.89 68.8502V68.8602ZM113.95 68.7302V68.6302H114.34V68.7302H113.95ZM114.82 68.6602V68.5602C114.924 68.533 115.02 68.4816 115.1 68.4102C115.138 68.4046 115.177 68.407 115.215 68.4173C115.252 68.4276 115.287 68.4455 115.317 68.4699C115.347 68.4944 115.372 68.5248 115.389 68.5593C115.407 68.5937 115.417 68.6315 115.42 68.6702L114.82 68.6602ZM115.93 68.5202V68.4002H116.41V68.5202H115.93ZM116.59 68.4602C116.59 68.3202 116.59 68.2402 116.76 68.2202L116.92 68.4302C116.917 68.4184 116.916 68.406 116.918 68.394C116.92 68.382 116.925 68.3705 116.931 68.3602C116.938 68.3499 116.946 68.3411 116.956 68.3342C116.967 68.3273 116.978 68.3225 116.99 68.3202L117.11 68.5402L116.59 68.4702V68.4602ZM109.59 71.4602V71.2302H109.52V71.4602H109.59ZM125.96 67.2202C126.03 67.2202 126.07 67.1302 125.89 67.1002C125.71 67.0702 125.98 67.2202 125.8 67.2302V67.3102L125.9 67.2402L125.8 67.3202L125.6 67.5702L125.99 67.4302V67.2002L125.96 67.2202ZM126.64 67.7502H126.57V67.9802H127.12C127.12 67.8302 126.75 67.7802 126.63 67.7802L126.64 67.7502Z" fill="black"/>
<path d="M89.9999 50.1303V50.2803H90.3099C90.3127 50.1326 90.3433 49.9867 90.3999 49.8503V49.5803C90.2699 49.5803 90.1399 49.7903 90.0199 50.1603L89.9999 50.1303ZM86.9999 43.0003V42.7303H86.5599V43.0003H86.9999ZM78.4799 59.0003C77.8363 57.8983 77.0457 56.8891 76.1299 56.0003C76.1299 55.6803 76.6299 55.2103 77.7199 54.5803L80.8399 52.0003C81.6633 50.7151 82.091 49.2164 82.0699 47.6903V47.2303C81.9499 45.8503 80.9499 44.7403 79.0699 43.8903C77.9499 43.1369 75.9499 42.7203 73.0699 42.6403C69.8297 43.0641 66.6632 43.9322 63.6599 45.2203C62.4933 46.0503 61.2814 46.8148 60.0299 47.5103V47.7403C60.1606 47.7152 60.2837 47.6604 60.3899 47.5803C60.4213 47.5726 60.4541 47.5722 60.4857 47.5792C60.5173 47.5863 60.5468 47.6005 60.572 47.6208C60.5971 47.6412 60.6173 47.667 60.6308 47.6964C60.6443 47.7258 60.6509 47.7579 60.6499 47.7903L60.8799 47.6703H60.9899V47.7703C60.2375 48.5404 59.3908 49.2123 58.4699 49.7703L58.5999 50.0103H58.4899L58.2099 49.9103C58.2099 49.9903 58.0999 50.0503 57.8699 50.0703V50.1703L58.1399 50.5103C58.0052 50.5069 57.8725 50.4762 57.7499 50.4203C57.2998 50.4832 56.8877 50.707 56.5899 51.0503L56.7499 50.3603C57.2635 48.2182 57.6508 46.0478 57.9099 43.8603V43.7403C57.4783 43.4545 57.0966 43.0997 56.7799 42.6903C56.7907 42.5271 56.7907 42.3634 56.7799 42.2003V42.1003H56.6699C55.4366 43.9469 53.0666 47.0969 49.5599 51.5503C46.8933 54.7169 45.5133 56.4769 45.4199 56.8303C44.3299 57.9603 43.8099 58.6403 43.8599 58.8303C43.5699 59.0203 43.4499 59.2003 43.4999 59.4103C43.4835 59.4164 43.466 59.4189 43.4486 59.4175C43.4312 59.4162 43.4142 59.4111 43.399 59.4025C43.3837 59.3939 43.3706 59.3821 43.3604 59.3679C43.3502 59.3537 43.3432 59.3375 43.3399 59.3203C43.1117 59.6921 42.8091 60.0128 42.4512 60.2623C42.0933 60.5118 41.6877 60.6847 41.2599 60.7703L40.2599 60.9903C40.2285 60.995 40.1983 61.0061 40.1714 61.0231C40.1445 61.04 40.1214 61.0623 40.1035 61.0886C40.0857 61.1149 40.0735 61.1447 40.0677 61.1759C40.0619 61.2072 40.0627 61.2393 40.0699 61.2703V61.3903L40.4299 61.3103V61.4103L39.6099 61.7303L38.1599 62.0703H37.3999C37.2899 62.1803 38.0099 62.0703 37.7299 62.1303L36.7299 62.3503C36.1499 62.4803 35.8399 62.4303 35.7299 62.2003H35.6199C35.6379 62.2793 35.6379 62.3613 35.6199 62.4403L35.5599 62.2103L34.7999 62.3903C34.7466 62.0369 33.7166 60.7503 31.7099 58.5303C31.7099 58.1003 32.3799 57.4803 33.8299 56.6703L37.9999 53.1403C38.9133 51.9669 39.4566 50.0836 39.6299 47.4903L39.5699 46.8803C39.4099 45.0503 38.0899 43.5803 35.5699 42.4403C34.0999 41.4403 31.4499 40.9103 27.6299 40.8303C23.3774 41.3941 19.2201 42.5276 15.2699 44.2003C13.7376 45.2943 12.1414 46.2961 10.4899 47.2003V47.5203C10.6614 47.491 10.8249 47.4263 10.9699 47.3303C11.0099 47.3196 11.0517 47.3181 11.0923 47.3262C11.1329 47.3342 11.1711 47.3514 11.2039 47.3766C11.2368 47.4017 11.2634 47.434 11.2818 47.4711C11.3002 47.5081 11.3098 47.5489 11.3099 47.5903L11.6299 47.4103H11.7899V47.5603C10.7789 48.5509 9.65836 49.4232 8.44992 50.1603L8.62992 50.4403H8.48992L8.14992 50.3203C8.14992 50.4103 7.99992 50.4803 7.66992 50.5103V50.6803L8.03992 51.0903C7.86844 51.0888 7.69879 51.0548 7.53992 50.9903C7.09275 51.0831 6.6709 51.2714 6.30327 51.5424C5.93564 51.8134 5.63091 52.1606 5.40992 52.5603L5.58992 52.8403C5.90164 52.5073 6.26249 52.224 6.65992 52.0003V52.4603C6.49031 52.496 6.328 52.5602 6.17992 52.6503L6.55992 53.2303C7.28337 52.4649 8.0997 51.793 8.98992 51.2303C9.42992 51.3403 9.65992 51.4803 9.66992 51.6303H10.0099C12.1732 49.9778 14.5825 48.6752 17.1499 47.7703V48.0903C16.7099 48.7569 16.4133 49.0903 16.2599 49.0903C16.2707 49.3067 16.3514 49.5137 16.4899 49.6803C16.5299 50.0803 15.4599 52.7803 13.2799 57.7803C8.42659 69.3469 4.30659 77.9103 0.919922 83.4703C0.951045 83.6337 1.01949 83.7877 1.11992 83.9203C1.67855 83.8289 2.21274 83.6248 2.68992 83.3203H2.86992V83.6403H3.17992L3.49992 83.4603C3.49992 83.5503 3.60992 83.6003 3.82992 83.5803V83.9003C3.7886 84.412 3.60885 84.9029 3.30992 85.3203C2.80884 86.049 2.44301 86.862 2.22992 87.7203V87.8703H2.53992C3.75783 86.548 4.78753 85.064 5.59992 83.4603C8.70376 82.6323 11.7184 81.5001 14.5999 80.0803C16.3091 80.0326 17.9629 79.4639 19.3399 78.4503V78.2803L18.5599 78.5103H18.3799V78.3403C19.501 78.2636 20.5877 77.9208 21.5499 77.3403C24.5233 75.0469 26.7699 73.4236 28.2899 72.4703C31.4099 70.1769 33.4366 67.9436 34.3699 65.7703L34.8899 65.6503C35.1397 65.6641 35.3901 65.6641 35.6399 65.6503C35.6399 65.5703 35.6399 65.5203 35.7399 65.5003C36.4399 65.4303 36.0999 65.5003 36.5499 65.4403L37.6899 65.0003H37.8899L37.7999 65.0603C37.942 65.0875 38.0879 65.0875 38.2299 65.0603L38.3099 65.4003L32.9999 73.8503L31.8199 75.3303L31.2399 77.2703H31.3499L31.9299 77.0303L31.7399 77.7803L31.7999 78.0003L31.9599 78.2003C31.8899 78.2003 31.8599 78.2703 31.8799 78.3503V78.4703L32.1199 78.4103C32.4733 78.1036 32.6233 77.8236 32.5699 77.5703C32.8179 77.6341 33.075 77.6544 33.3299 77.6303V77.7503C33.0999 77.8103 32.9799 77.9903 32.9599 78.3103V78.4303H33.0899C35.0299 76.3103 39.7799 69.0803 43.5899 64.1603C43.4699 63.6269 45.4699 62.8869 49.5899 61.9403H49.7199C49.8666 62.6069 49.5333 64.1636 48.7199 66.6103C48.4252 67.3836 48.2074 68.1842 48.0699 69.0003C47.6675 70.0439 47.3596 71.1216 47.1499 72.2203L45.6899 77.0003C44.7342 79.4983 44.0111 82.0793 43.5299 84.7103C43.6619 84.6833 43.798 84.6833 43.9299 84.7103L44.1399 84.5303C44.1432 84.5475 44.1502 84.5637 44.1604 84.5779C44.1706 84.5921 44.1838 84.6039 44.199 84.6125C44.2142 84.6211 44.2312 84.6262 44.2486 84.6275C44.266 84.6289 44.2835 84.6264 44.2999 84.6203L44.2199 84.2803H44.8499C45.0399 84.2803 45.1899 84.0003 45.3299 83.5703C45.3299 82.9303 45.4299 82.5703 45.7199 82.5103C45.8675 81.7112 46.1092 80.9325 46.4399 80.1903C46.5935 79.2916 46.8659 78.4172 47.2499 77.5903C47.7999 75.5903 48.2499 74.5903 48.4599 74.5303L48.5199 74.7703L48.1199 75.7703C47.6004 78.277 46.8917 80.7407 45.9999 83.1403L46.2099 84.0303H46.3399C48.0733 80.3036 50.5666 72.9236 53.8199 61.8903C53.8558 61.4317 54.0007 60.9883 54.2424 60.5969C54.4842 60.2056 54.8159 59.8776 55.2099 59.6403L55.0199 59.4403V59.3403C55.3247 59.2932 55.602 59.1368 55.7999 58.9003C55.7999 58.8203 55.4599 58.6903 54.7999 58.5303L56.4199 51.5303C56.599 51.3375 56.8084 51.1754 57.0399 51.0503V51.4003C56.9093 51.4254 56.7861 51.4801 56.6799 51.5603L56.9999 52.0003C57.5444 51.405 58.1588 50.8779 58.8299 50.4303C59.1699 50.5203 59.3299 50.6403 59.3499 50.7503H59.5899C61.2311 49.5076 63.0565 48.5291 64.9999 47.8503V48.0803C64.6733 48.5736 64.4499 48.8236 64.3299 48.8303C64.3431 48.9901 64.3946 49.1445 64.4799 49.2803C63.8379 51.3931 63.0321 53.4527 62.0699 55.4403C59.3597 62.157 56.2164 68.6907 52.6599 75.0003C52.6908 75.1248 52.7489 75.2409 52.8299 75.3403C53.248 75.2713 53.6468 75.1145 53.9999 74.8803H54.1099V75.1103H54.3699L54.5999 74.9903C54.5999 75.0569 54.6833 75.0836 54.8499 75.0703V75.3203C54.8152 75.7034 54.677 76.0698 54.4499 76.3803C54.0534 76.9273 53.7649 77.5451 53.5999 78.2003V78.3203H53.8399C54.7648 77.3166 55.5456 76.1891 56.1599 74.9703C58.5195 74.3251 60.8104 73.451 62.9999 72.3603C64.3049 72.3264 65.5683 71.8937 66.6199 71.1203V71.0003L66.0099 71.1803H65.8999V71.0603C66.7498 70.998 67.5725 70.7341 68.2999 70.2903C70.5499 68.5603 72.2999 67.2903 73.4199 66.5903C76.9999 64.0003 78.6799 61.4603 78.4799 59.0003ZM77.8599 59.1603L77.9399 60.1003C77.8299 60.3303 77.7099 60.4503 77.5999 60.4603L77.4599 58.8603C77.7199 58.9503 77.8499 59.0503 77.8599 59.1603ZM7.30992 51.6203H7.14992V51.3303L7.78992 51.2703V51.4203C7.62184 51.4506 7.46183 51.5153 7.31992 51.6103L7.30992 51.6203ZM4.16992 83.0003C3.86039 82.8449 3.51582 82.7725 3.16992 82.7903V82.3303C3.16992 82.1503 3.24992 82.0303 3.47992 81.9903C3.70992 81.9503 3.80992 82.1203 3.81992 82.4203C4.08287 82.0584 4.38099 81.7234 4.70992 81.4203L5.04992 81.5603C4.93992 82.4903 4.64992 82.9703 4.18992 83.0003H4.16992ZM37.7199 47.9003C37.5599 47.9003 37.2399 47.4203 36.7899 46.4503V46.1603C37.0899 46.1603 37.3999 46.6203 37.7199 47.6103V47.9003ZM37.2699 44.4203L37.1399 44.7303L32.5799 42.8303C35.6199 42.9303 37.1833 43.4603 37.2699 44.4203ZM17.9999 61.0003L17.3599 61.0603V60.7703L17.9999 60.7103V61.0003ZM17.4799 51.0803H17.6399V51.5403C17.4899 51.5403 17.2999 51.7703 17.0499 52.2003V51.8803C17.3399 51.5403 17.4899 51.2703 17.4699 51.0903L17.4799 51.0803ZM16.1299 54.2703L16.1899 54.8803H16.0299L15.9999 54.2503L16.1299 54.2703ZM15.4199 55.4103H15.7299C15.7299 55.9103 15.5599 56.1803 15.3099 56.2003H15.1499C15.3113 55.9745 15.4049 55.7074 15.4199 55.4303V55.4103ZM14.9199 57.0003H15.0999V57.1503L14.8099 57.6303H14.4999V57.4803C14.5626 57.4851 14.6255 57.475 14.6836 57.451C14.7417 57.4269 14.7932 57.3895 14.8342 57.3418C14.8751 57.294 14.9041 57.2373 14.919 57.1763C14.9339 57.1152 14.9342 57.0515 14.9199 56.9903V57.0003ZM14.3999 58.4303L14.3099 59.1903H14.1499L14.0799 58.4403H14.3999V58.4303ZM9.16992 73.2503C8.95992 74.2503 8.73992 74.8203 8.50992 74.8403V74.6903C8.49328 74.4135 8.54581 74.1369 8.66278 73.8855C8.77975 73.6341 8.95748 73.4158 9.17992 73.2503H9.16992ZM8.16992 75.3303V75.4803C8.18121 75.5219 8.18237 75.5656 8.1733 75.6078C8.16422 75.65 8.14518 75.6893 8.11776 75.7226C8.09035 75.7559 8.05535 75.7822 8.01571 75.7991C7.97607 75.8161 7.93294 75.8234 7.88992 75.8203V75.6703C7.88992 75.4903 7.98326 75.3769 8.16992 75.3303ZM7.88992 79.6403H8.36992V79.8103C8.19844 79.8395 8.03496 79.9042 7.88992 80.0003H7.57992C7.57992 79.8403 7.65992 79.7203 7.85992 79.6603L7.88992 79.6403ZM21.6799 75.3803C19.986 76.1143 18.3766 77.0296 16.8799 78.1103C13.9666 79.1369 12.5233 79.7669 12.5499 80.0003C10.7829 80.6646 9.05653 81.4326 7.37992 82.3003C7.08309 82.2958 6.79164 82.2204 6.52992 82.0803C6.51122 81.8183 6.5682 81.5565 6.69408 81.326C6.81996 81.0956 7.00943 80.9061 7.23992 80.7803C7.688 80.7455 8.13779 80.821 8.54992 81.0003C9.36205 80.6363 10.21 80.3581 11.0799 80.1703V79.8503L10.0799 79.9303C10.9586 79.3852 11.8984 78.9455 12.8799 78.6203H13.3599V78.7703C12.5299 78.8403 12.0699 79.0903 11.9699 79.5203C11.9699 79.7203 12.0999 79.8003 12.3099 79.7803C12.9299 79.3903 13.2399 79.1603 13.2299 79.0903C14.4099 78.8636 17.6799 77.1536 23.0399 73.9603V74.2503C23.0399 74.3903 22.5899 74.7803 21.6699 75.4503L21.6799 75.3803ZM13.4599 78.0803C14.2164 78.0197 14.9261 77.6897 15.4599 77.1503C15.6799 77.1503 15.7999 77.2203 15.8099 77.4103C15.0288 77.6178 14.2883 77.9559 13.6199 78.4103H13.4599V78.1003V78.0803ZM26.7699 67.9003L22.6599 71.1603C21.0865 72.2761 19.4356 73.2787 17.7199 74.1603C12.8533 76.8269 9.82992 78.2169 8.64992 78.3303H8.46992C8.61659 77.7836 10.7833 73.3469 14.9699 65.0203C17.9718 64.5371 20.8992 63.67 23.6799 62.4403L24.6799 62.3603C25.467 62.2197 26.2752 62.2496 27.0497 62.448C27.8243 62.6464 28.5473 63.0086 29.1699 63.5103L29.2299 64.1203C28.4899 66.2503 27.6699 67.5003 26.7899 67.8703L26.7699 67.9003ZM18.7699 63.3803L19.4299 63.3203V63.4703L18.7699 63.5303V63.3803ZM27.9999 61.8103H28.4799C28.9299 62.0203 29.1599 62.2103 29.1799 62.3803V62.5303C28.9368 62.5267 28.6992 62.458 28.4916 62.3314C28.2841 62.2047 28.1143 62.0248 27.9999 61.8103ZM29.3099 54.3303C28.2417 55.3366 27.0605 56.2158 25.7899 56.9503C25.1599 57.0103 22.7899 57.9503 18.7199 59.7103C18.5164 59.6179 18.2925 59.58 18.0699 59.6003V59.3103C18.0921 58.5054 18.3686 57.7282 18.8599 57.0903C19.1799 55.4103 19.5199 54.4503 19.8599 54.2203L23.2599 46.5703C23.2199 46.0969 23.9466 45.7336 25.4399 45.4803H25.9199V45.9203C27.3799 45.7003 28.2999 45.5703 28.6499 45.5403C31.3499 45.3103 32.7599 45.8603 32.8699 47.1703H33.1799L33.1099 46.4003H33.4499C33.7798 46.5362 34.0701 46.7531 34.2939 47.0311C34.5176 47.309 34.6676 47.6389 34.7299 47.9903C34.6986 48.586 34.4537 49.1505 34.0399 49.5803C33.8299 49.5803 33.7099 49.4503 33.6999 49.1503H33.3599L33.2899 50.0803C31.9233 52.1269 30.9233 53.1803 30.2899 53.2403C29.7299 54.0103 29.3899 54.4003 29.2899 54.4003L29.3099 54.3303ZM31.3999 59.6903C31.2084 59.5372 30.9746 59.4465 30.7299 59.4303V58.9703H31.0399L31.7199 59.3703C31.7312 59.4119 31.7324 59.4556 31.7233 59.4978C31.7142 59.5399 31.6952 59.5793 31.6678 59.6126C31.6403 59.6459 31.6054 59.6721 31.5657 59.6891C31.5261 59.7061 31.4829 59.7134 31.4399 59.7103L31.3999 59.6903ZM33.5599 62.2503C33.8599 62.3703 34.0399 62.5003 34.0699 62.6203H33.8299L33.6099 62.8003L33.5499 62.1803L33.5599 62.2503ZM33.7599 63.5403V63.4203L34.1499 63.3303V63.4503L33.7599 63.5403ZM34.6999 64.5903C35.0999 64.5203 35.2999 64.5003 36.0399 64.3303V64.4503L34.6199 64.7803C34.6231 64.717 34.6231 64.6536 34.6199 64.5903H34.6999ZM36.0799 65.1803C35.6003 65.1905 35.1237 65.2576 34.6599 65.3803V65.2603L35.8499 64.8803L36.4199 64.7503L36.4799 64.9703C36.2199 65.0303 36.4099 65.0303 36.1099 65.1803H36.0799ZM37.3399 64.8803C37.3064 64.8892 37.2715 64.8914 37.2371 64.8867C37.2028 64.882 37.1697 64.8704 37.1399 64.8527C37.1101 64.835 37.0841 64.8115 37.0635 64.7836C37.0429 64.7557 37.0281 64.724 37.0199 64.6903L37.3799 64.6103C37.4121 64.5976 37.4468 64.5927 37.4813 64.596C37.5157 64.5993 37.5489 64.6106 37.5781 64.6292C37.6074 64.6477 37.6318 64.6728 37.6495 64.7025C37.6672 64.7323 37.6776 64.7658 37.6799 64.8003L37.3399 64.8803ZM40.7499 61.2103V61.0903L41.3399 60.9503L41.3999 61.1703H40.7799L40.7499 61.2103ZM44.3899 83.5503C44.415 83.4282 44.415 83.3023 44.3899 83.1803H44.5199C44.55 83.1676 44.5826 83.1622 44.6152 83.1643C44.6477 83.1665 44.6793 83.1762 44.7075 83.1927C44.7356 83.2092 44.7595 83.232 44.7773 83.2594C44.7951 83.2867 44.8063 83.3179 44.8099 83.3503V83.4703L44.3299 83.5803L44.3899 83.5503ZM46.9999 62.1603H46.7399C46.3959 62.3035 46.0416 62.4205 45.6799 62.5103L45.4399 62.5703C45.4084 62.5809 45.3751 62.5849 45.342 62.582C45.3089 62.5791 45.2767 62.5694 45.2476 62.5534C45.2184 62.5374 45.1929 62.5155 45.1727 62.4892C45.1524 62.4628 45.1379 62.4326 45.1299 62.4003L46.8099 62.0003L47.3699 61.7403L47.5599 61.9503C47.3493 61.9796 47.1497 62.0622 46.9799 62.1903L46.9999 62.1603ZM48.3099 61.7403V61.6203C48.4338 61.5809 48.5445 61.5082 48.6299 61.4103L49.8399 61.1303V61.2503C49.3171 61.3662 48.8053 61.5268 48.3099 61.7303V61.7403ZM48.4999 59.2903C48.3736 59.3367 48.258 59.4081 48.1599 59.5003C48.1599 59.4203 47.9699 59.4203 47.6599 59.5003C47.5999 59.2703 48.4999 58.9403 50.3499 58.5003L50.6099 58.4403L50.6699 58.6603C49.3699 59.0403 48.6699 59.2603 48.4999 59.2803V59.2903ZM51.7599 55.7703C51.6299 57.2503 51.1099 58.0903 50.1899 58.3003V58.1803L49.3699 58.5003L49.0099 58.5803C48.8465 58.627 48.6733 58.627 48.5099 58.5803L48.4399 58.2503C49.5247 56.5421 50.7137 54.9024 51.9999 53.3403H52.2799C52.3159 54.1641 52.1511 54.9842 51.7999 55.7303L51.7599 55.7703ZM57.5299 50.8303H57.4199V50.6003H57.8999V50.7203C57.7742 50.7551 57.6532 50.8055 57.5399 50.8703L57.5299 50.8303ZM55.1299 74.6903C54.8991 74.569 54.6405 74.5103 54.3799 74.5203V74.1703C54.3799 74.0503 54.4533 73.9669 54.5999 73.9203C54.7599 73.9203 54.8499 74.0103 54.8699 74.2603C55.0602 73.9766 55.2853 73.718 55.5399 73.4903L55.7899 73.5903C55.6999 74.3003 55.4799 74.6703 55.1499 74.7003L55.1299 74.6903ZM80.5999 48.0003C80.4799 48.0003 80.2499 47.6403 79.8799 46.8803V46.6503C80.1099 46.6503 80.3599 46.9903 80.5999 47.7403V48.0003ZM80.2599 45.3403L80.1499 45.5803L76.6999 44.1403C78.9999 44.2103 80.1899 44.6203 80.2599 45.3403ZM65.6499 57.9303H65.1699V57.7003H65.6499V57.9303ZM65.2499 50.3903H65.3799V50.7403C65.2599 50.7403 65.1099 50.9069 64.9299 51.2403V51.0103C65.0986 50.8433 65.2075 50.6254 65.2399 50.3903H65.2499ZM64.2499 52.8103V53.2703H64.1199V52.8103H64.2499ZM63.6999 53.6803H63.9399C63.9399 54.0736 63.8366 54.2769 63.6299 54.2903H63.4999C63.6181 54.1076 63.687 53.8975 63.6999 53.6803ZM63.3099 54.8703H63.4199V55.0003L63.2099 55.3703H62.9699V55.2503C63.2199 55.2503 63.3299 55.1003 63.3099 54.8703ZM62.8999 56.0003L62.8199 56.6003H62.6999V56.0103H62.9399L62.8999 56.0003ZM58.8999 67.3003C58.7399 68.0803 58.5733 68.4803 58.3999 68.5003V68.4003C58.3917 68.1896 58.4336 67.98 58.5223 67.7888C58.611 67.5975 58.7438 67.4301 58.9099 67.3003H58.8999ZM58.1599 68.8703V68.9703C58.1699 69.0032 58.1716 69.0381 58.165 69.0718C58.1583 69.1055 58.1435 69.1371 58.1217 69.1638C58.1 69.1905 58.0721 69.2114 58.0404 69.2247C58.0087 69.238 57.9742 69.2434 57.9399 69.2403V69.1203C57.9399 69.0003 58.0133 68.9169 58.1599 68.8703ZM57.9999 72.1103H58.3699V72.2303C58.2424 72.2547 58.1204 72.3022 58.0099 72.3703H57.7699C57.7699 72.2369 57.8433 72.1536 57.9899 72.1203L57.9999 72.1103ZM68.4599 68.8803C67.1798 69.4478 65.9574 70.1377 64.8099 70.9403C62.5699 71.7203 61.4699 72.2103 61.4799 72.4003C60.1465 72.8946 58.8441 73.469 57.5799 74.1203C57.3555 74.1107 57.1364 74.049 56.9399 73.9403C56.9178 73.7385 56.9576 73.5347 57.0541 73.3561C57.1505 73.1775 57.299 73.0324 57.4799 72.9403C57.8205 72.9081 58.1638 72.9596 58.4799 73.0903C59.1025 72.8237 59.7486 72.6161 60.4099 72.4703V72.2403L59.6599 72.3103C60.3312 71.8936 61.0496 71.5579 61.7999 71.3103H62.1699V71.4103C61.5399 71.4703 61.1699 71.6503 61.1099 71.9903C61.109 72.0226 61.1155 72.0547 61.1291 72.0841C61.1426 72.1135 61.1627 72.1394 61.1879 72.1597C61.2131 72.18 61.2426 72.1943 61.2742 72.2013C61.3057 72.2083 61.3385 72.208 61.3699 72.2003C61.8399 71.8903 62.0599 71.7203 62.0599 71.6603C62.9533 71.5003 65.4333 70.2003 69.4999 67.7603V67.9903C69.4999 68.0803 69.1599 68.3803 68.4999 68.8903L68.4599 68.8803ZM62.2199 70.8803C62.8025 70.8353 63.3509 70.5876 63.7699 70.1803C63.9299 70.1803 64.0199 70.2403 64.0299 70.3903C63.4435 70.5407 62.8837 70.7801 62.3699 71.1003H62.2399V70.8803H62.2199ZM72.2999 63.1403L69.1999 65.6403C67.9966 66.5195 66.7298 67.3083 65.4099 68.0003C61.7233 70.0003 59.4266 71.0536 58.5199 71.1603H58.3899C58.5033 70.7403 60.1533 67.3736 63.3399 61.0603C65.6191 60.6765 67.8403 60.0045 69.9499 59.0603L70.6999 59.0003C71.2973 58.8942 71.9106 58.9189 72.4975 59.0725C73.0844 59.2262 73.6311 59.5052 74.0999 59.8903V60.3503C73.5699 62.0003 72.9999 62.9003 72.2799 63.1803L72.2999 63.1403ZM66.2099 59.7103H66.6899V59.8303H66.2099V59.7103ZM73.2599 58.5103H73.6299C73.9699 58.6803 74.1499 58.8303 74.1599 58.9503V59.0503C73.976 59.0572 73.7937 59.0133 73.6332 58.9233C73.4726 58.8334 73.34 58.7008 73.2499 58.5403L73.2599 58.5103ZM74.2599 52.8403C73.4544 53.6085 72.5616 54.2797 71.5999 54.8403C69.7441 55.412 67.9381 56.1344 66.1999 57.0003C66.043 56.944 65.8763 56.9202 65.7099 56.9303V56.7003C65.714 56.089 65.9099 55.4943 66.2699 55.0003C66.5099 53.7103 66.7799 53.0003 67.0599 52.8303L69.6699 47.0003C69.6699 46.6603 70.1899 46.3803 71.3099 46.1603H71.6799V46.5103C72.7799 46.3303 73.4699 46.2269 73.7499 46.2003C75.7499 46.0203 76.8699 46.4303 76.9599 47.4403H77.1999V46.8803H77.4399C77.6953 46.9722 77.9221 47.1295 78.0976 47.3366C78.2731 47.5437 78.3912 47.7932 78.4399 48.0603C78.4244 48.5118 78.251 48.9435 77.9499 49.2803C77.7899 49.2803 77.6999 49.1903 77.6799 48.9403H77.4399L77.3699 49.6403C76.2499 51.1603 75.4999 52.0003 74.9999 52.0003C74.5799 52.5703 74.3199 52.8603 74.1999 52.8703L74.2599 52.8403ZM75.3499 56.7203V56.3703H75.5899L76.1099 56.6903C76.1142 56.7216 76.1117 56.7534 76.1026 56.7837C76.0935 56.814 76.078 56.8419 76.0571 56.8656C76.0363 56.8893 76.0105 56.9083 75.9817 56.9212C75.9528 56.9341 75.9215 56.9406 75.8899 56.9403C75.7419 56.8274 75.5652 56.7582 75.3799 56.7403L75.3499 56.7203ZM31.9399 79.3903L31.6999 79.4503L31.4899 79.6303C31.4936 79.6627 31.5048 79.6938 31.5225 79.7212C31.5403 79.7485 31.5642 79.7713 31.5924 79.7878C31.6205 79.8043 31.6521 79.814 31.6847 79.8162C31.7172 79.8184 31.7498 79.8129 31.7799 79.8003C31.9399 79.8003 31.9999 79.6703 31.9699 79.5203V79.4003L31.9399 79.3903ZM30.9999 77.5503V77.6703C31.1599 77.6703 31.2199 77.5403 31.1899 77.3903V77.2703C31.1578 77.2734 31.1267 77.2836 31.0989 77.3001C31.0712 77.3166 31.0474 77.339 31.0292 77.3657C31.0111 77.3924 30.9991 77.4228 30.994 77.4547C30.9889 77.4866 30.991 77.5192 30.9999 77.5503ZM37.5999 65.1603L37.7799 65.0503H37.6899C37.6624 65.0574 37.6386 65.0749 37.6237 65.0991C37.6088 65.1234 37.6038 65.1525 37.6099 65.1803L37.5999 65.1603ZM37.5999 61.9503L37.8799 61.8803L37.8199 61.6403L37.5399 61.7103L37.5999 61.9503ZM103.45 71.3603L102.82 71.2903L102.71 71.5303V71.6503L106.48 71.3303V71.1003L103.48 71.3603H103.45ZM106.9 71.0703V71.3003V71.0703ZM122.7 69.0003V69.2303L123.11 69.3003V69.0703L122.7 69.0003ZM122.12 69.0003C120.888 69.3433 119.618 69.5348 118.34 69.5703V69.8003H118.74L119.05 69.6803C121.85 69.3703 122.18 69.4803 122.15 69.1703V69.0003H122.12ZM105.12 64.8803L104.87 64.8003C104.729 65.1198 104.628 65.4558 104.57 65.8003V65.9003C104.77 65.9003 104.94 65.5603 105.11 64.9003L105.12 64.8803ZM101.71 63.0403V63.0003H101.58L101.35 63.1503L101.48 63.3703C101.66 63.3703 101.74 63.2703 101.72 63.1103L101.71 63.0403ZM109.12 70.7003V70.4703H109V70.7003H109.12ZM124.49 67.2303H124.67C124.77 67.2303 124.82 67.1403 124.81 66.9903L124.71 66.7703C124.2 66.7674 123.697 66.8948 123.25 67.1403V67.0203L122.48 67.0903C122.48 66.8603 122.4 66.7403 122.29 66.7503H121.89C121.42 66.7503 121.2 66.7503 120.97 66.9503C120.97 66.8703 120.97 66.8303 120.89 66.8303H120.44L120.18 66.9803C120.18 66.9003 120.18 66.8603 120.1 66.8603L119.94 67.0003H119.17V67.2303L119.49 67.3103H119.79C119.892 67.3704 120.012 67.395 120.13 67.3803L120.39 67.2503V67.3503C119.581 67.5606 118.759 67.7177 117.93 67.8203C117.859 67.761 117.772 67.726 117.68 67.7203C117.654 67.719 117.628 67.7125 117.604 67.7013C117.58 67.69 117.559 67.6742 117.541 67.6547C117.524 67.6352 117.51 67.6124 117.501 67.5876C117.492 67.5628 117.489 67.5365 117.49 67.5103L118.01 67.4403C118.125 67.4769 118.242 67.5069 118.36 67.5303C118.78 67.3203 118.8 67.2403 119.02 67.2203V66.9903C118.142 67.1516 117.252 67.2352 116.36 67.2403H116.28V67.0103C118.59 66.7303 117.82 66.8903 118.61 66.6703C118.61 66.7503 118.61 66.7903 118.69 66.7903C118.775 66.7021 118.888 66.6457 119.01 66.6303H119.17C120.076 66.658 120.981 66.5398 121.85 66.2803V66.3803L122.11 66.2503H122.35C122.35 66.0203 122.69 65.9803 122.81 65.9703V65.7203C120 66.2903 119.26 66.1303 118.48 66.3503V66.2503C118.152 66.3261 117.815 66.3531 117.48 66.3303C117.391 66.3573 117.311 66.4094 117.25 66.4803C117.25 66.4003 117.25 66.3603 117.16 66.3603L114.77 66.7503C114.77 66.6803 114.77 66.6503 114.68 66.6603C113.845 66.9046 112.987 67.0588 112.12 67.1203C112.008 67.1406 111.903 67.1849 111.81 67.2503C111.81 67.1803 111.81 67.1503 111.68 67.1603L110.68 67.2403L110 67.4103C110 67.3403 110 67.3103 109.87 67.3203C109.543 67.4149 109.208 67.4785 108.87 67.5103C108.7 67.5103 108.95 67.5103 108.87 67.4103L108.66 67.5303H107.5C105.7 67.7503 105.9 67.7803 105.7 67.7903H105.03C105.033 67.8045 105.033 67.8194 105.03 67.8336C105.026 67.8478 105.019 67.8608 105.009 67.8717C104.999 67.8825 104.987 67.8908 104.973 67.8958C104.959 67.9008 104.944 67.9023 104.93 67.9003C104.17 67.8003 103.77 67.6803 103.77 67.5403C103.87 66.8136 104.047 66.4403 104.3 66.4203H104.43L104.32 66.6603H104.45C104.69 66.5303 104.8 66.4103 104.79 66.3003V66.0503H104.55V65.8203C104.528 65.6601 104.552 65.4969 104.62 65.3503L105.17 64.4603V64.6903H105.43V64.4603L105.28 64.2503C105.409 64.1187 105.571 64.0253 105.75 63.9803V63.8603H105.4V63.5103C105.85 62.7039 106.187 61.839 106.4 60.9403L106.65 61.0403C106.81 61.0403 106.88 60.9403 106.87 60.7703H106.63V60.6703C106.613 60.5017 106.644 60.3317 106.72 60.1803C106.891 60.0276 107.026 59.8391 107.116 59.6283C107.206 59.4174 107.248 59.1893 107.24 58.9603C107.31 58.9603 107.35 58.9603 107.36 59.0703C107.69 58.8803 107.94 58.3903 108.12 57.5703C109.092 55.5487 109.917 53.46 110.59 51.3203C112.64 45.8003 112.59 45.2203 112.84 43.9103H112.6C112.618 44.0757 112.587 44.2427 112.51 44.3903C112.387 44.3343 112.255 44.3037 112.12 44.3003V44.2003C112.13 43.5788 112.344 42.9778 112.73 42.4903H112.84L113.05 43.2903H113.29C113.33 42.9529 113.393 42.6188 113.48 42.2903C113.48 42.1703 113.38 42.0903 113.19 42.0803L112.96 42.2303V40.9303H112.84C112.678 40.8015 112.566 40.6217 112.52 40.4203L111.19 40.5503C111.165 40.4057 111.114 40.2668 111.04 40.1403C111.04 40.0203 111.33 39.9003 111.94 39.7803L112.21 39.8803L112.46 39.7303C112.46 39.8103 112.52 39.8503 112.61 39.8403L112.86 39.6903C112.86 39.7703 112.92 39.8103 113.01 39.8003H113.13V39.5303H111.67L111.42 39.7003V39.5503C105.167 40.0636 101.617 40.3603 100.77 40.4403H99.4499C99.4499 40.5403 99.3699 40.6003 99.1799 40.6203L98.9099 40.5003L97.9999 40.7303C97.6406 40.7624 97.2792 40.7624 96.9199 40.7303C96.7739 40.8466 96.5962 40.9163 96.4099 40.9303L99.0799 40.7603C98.8877 40.8907 98.6622 40.9636 98.4299 40.9703C98.2482 40.995 98.0633 40.9636 97.8999 40.8803C97.2447 41.082 96.5765 41.239 95.8999 41.3503L95.6299 41.2503L91.2699 41.9203C91.0855 41.836 90.8811 41.8048 90.6799 41.8303C90.2871 41.8817 89.8991 41.9653 89.5199 42.0803L87.4099 42.9603L87.5699 43.2203C87.7231 43.1928 87.8693 43.135 87.9999 43.0503L88.7499 43.1203L88.6599 43.8203C88.3417 43.8782 88.0438 44.0172 87.7951 44.224C87.5463 44.4307 87.3551 44.6981 87.2399 45.0003C86.2399 45.4603 85.6899 45.7803 85.6899 46.0003V46.1203H85.8499L86.1299 45.9703L86.4599 46.3603V46.9003C86.4599 47.0669 84.7233 50.7336 81.2499 57.9003C78.2499 64.8003 76.6499 68.5703 76.4999 69.2503C75.4999 69.5403 74.8699 69.9603 74.6899 70.5203C74.6899 70.7003 75.0199 70.8203 75.6099 70.8603V71.1303L75.3399 71.5803V72.1203C75.3399 72.4003 76.0933 72.6136 77.5999 72.7603C77.5999 72.6703 77.5999 72.6103 77.7399 72.6003C77.7298 73.276 77.6357 73.9478 77.4599 74.6003H77.6199C78.0719 74.1191 78.3771 73.5189 78.4999 72.8703H78.6299C78.7799 72.8703 78.9399 73.0303 79.1199 73.3903C78.9333 73.4636 78.2666 74.9469 77.1199 77.8403L77.2799 78.1003H77.4399C78.8066 74.6336 79.6666 72.7169 80.0199 72.3503C81.8199 72.1903 84.9299 71.8569 89.3499 71.3503L89.6299 71.1803C89.6289 71.2013 89.633 71.2223 89.6418 71.2414C89.6507 71.2605 89.6641 71.2771 89.6808 71.2899C89.6975 71.3027 89.7171 71.3112 89.7378 71.3148C89.7586 71.3183 89.7799 71.3168 89.7999 71.3103H90.0899L90.3699 71.1403C90.3689 71.1613 90.373 71.1823 90.3819 71.2014C90.3907 71.2204 90.4041 71.2371 90.4208 71.2499C90.4375 71.2627 90.4571 71.2712 90.4779 71.2748C90.4986 71.2783 90.5199 71.2768 90.5399 71.2703L93.9999 70.8703C94.8899 70.8003 95.2999 70.5303 95.2699 70.0703C95.2699 69.9503 95.7799 69.8103 96.8399 69.6603C96.9969 69.6585 97.1528 69.6856 97.2999 69.7403C97.2999 69.6603 97.8199 69.5703 98.8799 69.4803C98.8799 68.9203 99.0799 68.6203 99.3999 68.5903V68.3203C99.0591 68.3597 98.7237 68.4368 98.3999 68.5503C97.9521 68.5447 97.5063 68.491 97.0699 68.3903C96.9386 68.4736 96.7927 68.5313 96.6399 68.5603L94.3099 68.6303L94.0299 68.7803C94.0299 68.6936 93.9733 68.6569 93.8599 68.6703H93.7299L93.4299 68.8203C93.4299 68.7403 93.1799 68.6703 92.6899 68.6103L92.3899 68.7903H91.8099V68.7003C94.8099 68.3736 96.2899 67.9669 96.2499 67.4803C96.2896 67.4708 96.3308 67.4707 96.3705 67.4801C96.4101 67.4895 96.447 67.5081 96.4782 67.5344C96.5093 67.5607 96.5338 67.5939 96.5498 67.6314C96.5657 67.6689 96.5726 67.7096 96.5699 67.7503L97.4499 67.5303V67.2603L90.2699 67.4603C90.2699 67.5503 90.2699 67.6103 90.1299 67.6203L89.2499 67.5503C89.048 67.5621 88.8537 67.6315 88.6899 67.7503L88.3599 67.6303C87.6838 67.6722 87.0137 67.7828 86.3599 67.9603C85.6943 67.9078 85.0256 67.9078 84.3599 67.9603L82.7499 68.1003L81.8999 68.0003C81.8999 67.5203 82.7899 65.1903 84.6899 61.0003C84.9713 60.004 85.5012 59.0956 86.2299 58.3603C86.3895 58.3625 86.5466 58.4001 86.6899 58.4703L87.8399 58.0803L88.4299 58.1703C89.6124 58.0408 90.7726 57.7549 91.8799 57.3203C92.132 57.2844 92.3889 57.3083 92.6299 57.3903L93.5099 57.1803L96.0899 57.0003C97.3195 56.8835 98.5331 56.6355 99.7099 56.2603V55.9903C99.2299 55.9903 98.9699 55.9903 98.9599 55.7603C98.9599 55.4003 98.5799 55.2503 97.8999 55.3003V55.0303L98.6199 54.8203L100.5 54.6603V54.3903H99.3399V54.1003L100.07 54.0303C100.27 54.0303 100.35 53.9203 100.33 53.7303C99.3299 53.7303 98.8599 53.7303 98.8499 53.5803C92.0299 53.9136 88.6099 53.9769 88.5899 53.7703C88.4352 53.8039 88.2889 53.8685 88.1599 53.9603L87.9799 53.6803C89.7866 49.8403 90.8466 47.9069 91.1599 47.8803C91.1417 48.1338 91.0665 48.3799 90.9399 48.6003V48.7203H91.2299C91.9499 47.0103 92.5499 46.1203 93.0599 46.0803C95.1999 45.8903 92.7599 45.7503 97.3499 45.0803C97.4757 45.1495 97.6164 45.1872 97.7599 45.1903C99.5599 44.8236 102.067 44.4436 105.28 44.0503V43.7803L103.57 43.9403V43.6703C103.756 43.6563 103.934 43.5866 104.08 43.4703V43.6203C104.222 43.5862 104.355 43.5214 104.47 43.4303C104.7 43.392 104.935 43.4198 105.15 43.5103C105.622 43.3782 106.103 43.2812 106.59 43.2203L107.66 43.1203C107.92 42.9503 108.04 42.8003 108.03 42.6603V42.5403C107.715 42.5642 107.399 42.544 107.09 42.4803C107.086 42.4448 107.089 42.4088 107.099 42.3745C107.108 42.3401 107.125 42.308 107.147 42.2801C107.17 42.2522 107.197 42.229 107.229 42.2119C107.26 42.1947 107.294 42.184 107.33 42.1803L109.33 41.9903L110.24 41.7603C110.24 41.8603 110.3 41.9003 110.37 41.9003C110.512 41.8662 110.645 41.8014 110.76 41.7103H110.91C110.748 42.0626 110.615 42.4271 110.51 42.8003H110.25C110.236 42.6311 110.185 42.4671 110.1 42.3203H109.97C107.55 49.0703 106.47 52.2103 104.23 57.3903C103.82 58.7103 103.48 59.4503 103.18 59.6103C103.179 59.6426 103.186 59.6747 103.199 59.7041C103.213 59.7335 103.233 59.7594 103.258 59.7797C103.283 59.8 103.313 59.8143 103.344 59.8213C103.376 59.8283 103.409 59.828 103.44 59.8203C103.492 60.4958 103.331 61.1706 102.98 61.7503C101.98 64.7503 101.26 66.3603 100.9 66.6603L101 68.0003C101.004 68.0316 101.002 68.0634 100.993 68.0937C100.984 68.124 100.968 68.1519 100.947 68.1756C100.926 68.1993 100.901 68.2183 100.872 68.2312C100.843 68.2441 100.812 68.2506 100.78 68.2503H100.54C100.54 67.8603 100.36 67.6703 100.11 67.7003H99.9799C99.6445 68.2288 99.401 68.8104 99.2599 69.4203H99.4999C99.6388 69.3514 99.7551 69.2442 99.8349 69.1112C99.9146 68.9783 99.9546 68.8252 99.9499 68.6703H100.43L100.71 68.7703C100.521 69.0146 100.413 69.3117 100.4 69.6203L100.53 69.8403L100.21 70.5903V70.7103C100.533 70.6972 100.852 70.7883 101.12 70.9703C101.388 70.9332 101.642 70.8301 101.86 70.6703H104.98L105.88 70.3603C106.624 70.3767 107.368 70.3533 108.11 70.2903H108.5L108.71 70.1503V70.2703C109.323 70.2005 109.944 70.2241 110.55 70.3403V70.4603H110V70.6903C110.16 70.6797 110.314 70.6204 110.44 70.5203C110.58 70.5203 110.66 70.5903 110.67 70.7503C110.414 70.7773 110.162 70.8344 109.92 70.9203L109.68 70.8403C109.3 70.9403 109.38 70.9703 109.12 70.9903L108.74 70.9203C108.743 70.9336 108.743 70.9475 108.74 70.9609C108.737 70.9742 108.731 70.9867 108.722 70.9973C108.713 71.0079 108.702 71.0164 108.69 71.0221C108.677 71.0278 108.664 71.0306 108.65 71.0303C108.648 71.0601 108.653 71.0899 108.664 71.1176C108.675 71.1453 108.693 71.1702 108.715 71.1903C108.737 71.2104 108.763 71.2254 108.792 71.234C108.82 71.2427 108.85 71.2448 108.88 71.2403H109.27L111.27 71.0603L112.04 70.8903C112.04 70.9603 112.04 70.9903 112.14 70.9803L112.51 70.8403L113.21 70.7803C113.75 70.7803 113.74 70.7003 114.92 70.5103C114.92 70.4403 114.92 70.4103 114.99 70.4003V70.5003C115.804 70.3914 116.61 70.2243 117.4 70.0003V70.0603C117.88 69.9503 117.61 69.9803 117.74 69.8803C117.74 69.9603 117.74 70.0003 117.82 70.0003H118.16V69.7503H117.32C117.069 69.7972 116.815 69.8173 116.56 69.8103L114.85 69.9003V69.7803L115.85 69.6503H116.19L116.39 69.5103V69.6303C117.73 69.5203 118.21 69.8503 124.39 68.5303C124.73 68.5303 124.7 68.2203 124.91 67.6403C124.795 67.6502 124.681 67.6258 124.58 67.5703C123.999 67.7113 123.407 67.7983 122.81 67.8303C122.73 67.8303 122.66 67.7603 122.63 67.6203V67.5203H123.63C123.984 67.4826 124.326 67.3665 124.63 67.1803C124.63 67.2603 124.43 67.3103 124.55 67.3003L124.49 67.2303ZM78.6099 68.0003H78.1699C78.3164 67.3063 78.5517 66.6341 78.8699 66.0003H79.1599C79.0686 66.6889 78.8836 67.3618 78.6099 68.0003ZM79.1399 65.8803V65.7603C79.1399 65.6103 79.2199 65.5103 79.4299 65.4603V65.5803C79.4299 65.7603 79.3499 65.8603 79.1399 65.8803ZM84.9999 70.4003V70.5203L84.2699 70.5903V70.4703L84.9999 70.4003ZM84.1199 70.3303C84.1199 70.4803 83.9099 70.6503 83.4199 70.8103L82.5299 70.7403H82.2399V70.4703L84.1499 70.2903L84.1199 70.3303ZM89.9999 43.2203H89.5599V43.0703C89.5599 42.9203 89.6299 42.8203 89.8199 42.7703H89.9799L90.2799 42.8903C90.2859 42.9285 90.2833 42.9675 90.2723 43.0046C90.2613 43.0417 90.2422 43.0758 90.2163 43.1045C90.1905 43.1333 90.1585 43.1559 90.1228 43.1707C90.0871 43.1855 90.0485 43.1922 90.0099 43.1903L89.9999 43.2203ZM96.6599 41.9203H96.7999V42.1903H96.3999C96.3958 42.1548 96.3987 42.1188 96.4085 42.0845C96.4184 42.0501 96.4349 42.018 96.4572 41.9901C96.4796 41.9622 96.5072 41.939 96.5386 41.9219C96.5699 41.9047 96.6044 41.894 96.6399 41.8903L96.6599 41.9203ZM94.9999 42.5003L94.3399 42.4303V42.3003C94.9032 42.2661 95.4604 42.1654 95.9999 42.0003C95.9999 42.1003 96.0999 42.1403 96.2699 42.1203V42.3903H96.0099C95.8282 42.415 95.6433 42.3836 95.4799 42.3003C95.3278 42.4039 95.1528 42.469 94.9699 42.4903L94.9999 42.5003ZM95.8299 44.9103V44.7903L96.8999 44.6903V44.8103L95.8299 44.9103ZM96.9399 44.0003V43.8503H97.4599V44.0003H96.9399ZM97.0599 42.1703H96.9199L97.0399 41.8803L98.2299 41.7703V41.9203C97.8306 41.9672 97.4359 42.0475 97.0499 42.1603L97.0599 42.1703ZM97.6699 44.7403V44.4703H98.1899C98.3699 44.4703 98.4633 44.5536 98.4699 44.7203L97.6899 44.7903L97.6699 44.7403ZM100.83 40.4403L100.16 40.6303H99.9999C99.5974 40.666 99.1925 40.666 98.7899 40.6303C99.6599 40.5703 100.49 40.5103 100.79 40.4603L100.83 40.4403ZM100.11 43.4403V43.5603L99.1899 43.6403V43.5203L100.11 43.4403ZM101.62 44.1603C101.62 44.0503 101.43 43.9703 101.07 43.9403L100.15 44.2003H99.4399C99.2799 44.0903 99.1999 44.0103 99.1899 43.9603H100.01L101.85 43.6603H102.79V43.8103C102.389 43.845 101.993 43.9255 101.61 44.0503L101.62 44.1603ZM111.11 41.7103H111.32C111.639 41.3925 112.016 41.138 112.43 40.9603C112.225 42.1763 111.681 43.3098 110.86 44.2303L110.34 43.9103C110.647 43.1889 110.905 42.4471 111.11 41.6903V41.7103ZM109.51 44.4603H109.64C109.46 44.8003 109.3 44.9703 109.17 44.9803V44.6303C109.302 44.6082 109.425 44.5532 109.53 44.4703L109.51 44.4603ZM108.51 46.9303C108.59 46.3024 108.839 45.708 109.23 45.2103V45.3303C109.1 46.2603 108.89 46.7603 108.62 46.7903V47.3803C108.437 47.5902 108.325 47.8528 108.3 48.1303H108.17L108.1 47.3203C108.25 47.3203 108.37 47.1703 108.45 46.9303H108.51ZM108.11 48.2703C108.071 48.6154 107.98 48.9526 107.84 49.2703H107.71V48.9203C107.89 48.5103 108.04 48.3003 108.14 48.3003L108.11 48.2703ZM100.59 70.0903V69.9903H100.83V70.3403C100.7 70.3403 100.61 70.2703 100.57 70.1103L100.59 70.0903ZM111.33 70.3703C111.33 70.2903 111.33 70.2503 111.2 70.2603L110.59 70.3203V70.2003H110.65L112 70.0003V70.1203C111.737 70.1004 111.475 70.1634 111.25 70.3003L111.33 70.3703ZM110.61 70.0703C110.67 70.0703 110.61 70.1303 110.61 70.1403C110.61 70.1503 110.54 70.1403 110.61 70.0703ZM110.68 68.3903L109.88 68.4603V68.3003L110.61 68.2303L111.24 68.0703C111.24 68.1403 111.24 68.1703 111.37 68.1603C112.12 68.0303 112.05 67.9903 112.37 67.9603C112.49 67.9603 112.57 68.0303 112.58 68.1703L110.65 68.3403L110.68 68.3903ZM113.48 68.1503C113.22 68.0975 112.955 68.0774 112.69 68.0903V68.0003L113.41 67.9303V68.0003C113.34 68.0003 113.61 68.0003 113.48 68.1203V68.1503ZM113.54 68.0203V67.9203H113.93V68.0203H113.54ZM114.41 67.9503V67.8503C114.514 67.8231 114.61 67.7717 114.69 67.7003C114.728 67.6947 114.767 67.6971 114.805 67.7074C114.842 67.7176 114.877 67.7356 114.907 67.76C114.937 67.7845 114.962 67.8149 114.979 67.8493C114.997 67.8838 115.008 67.9216 115.01 67.9603L114.41 67.9503ZM115.52 67.8103V67.6903H116V67.8103H115.52ZM116.18 67.7503C116.18 67.6103 116.18 67.5303 116.35 67.5103L116.51 67.7203C116.507 67.7084 116.506 67.6961 116.508 67.6841C116.51 67.6721 116.515 67.6606 116.521 67.6503C116.528 67.64 116.536 67.6311 116.547 67.6243C116.557 67.6174 116.568 67.6126 116.58 67.6103L116.7 67.8303L116.18 67.7603V67.7503ZM125.52 66.5503C125.59 66.5503 125.63 66.4603 125.45 66.4303C125.27 66.4003 125.54 66.5503 125.36 66.5603V66.6403L125.46 66.5703L125.36 66.6503L125.16 66.9003L125.55 66.7603V66.5303L125.52 66.5503ZM126.2 67.0803H126.13V67.3103H126.68C126.68 67.1603 126.31 67.1103 126.19 67.1103L126.2 67.0803Z" fill="#F9DC3E"/>
</svg>
