<svg width="128" height="128" viewBox="0 0 128 128" fill="none" xmlns="http://www.w3.org/2000/svg">
<path d="M14.646 2.70117V69.0062L63.999 97.1382V78.0152L30.982 59.1952V29.6332L63.999 48.4542V30.8342L14.646 2.70117Z" fill="#002A41"/>
<path d="M113.353 2.70117V69.0062L64 97.1382V78.0152L97.016 59.1952V29.6332L64 48.4542V30.8342L113.353 2.70117ZM14.646 125.303V58.9982L63.999 30.8642V49.9892L30.982 68.8082V96.8672L63.999 78.0472V97.1712L14.646 125.304V125.303Z" fill="#0071B5"/>
<path d="M113.353 125.303V58.9983L64 30.8643V49.9893L97.016 68.8083V96.8673L64 78.0473V97.1713L113.353 125.304V125.303Z" fill="#002A41"/>
</svg>
