<svg width="128" height="128" viewBox="0 0 128 128" fill="none" xmlns="http://www.w3.org/2000/svg">
<path d="M22.5791 2.50195V58.149L63.9991 81.759V65.71L36.2891 49.915V25.105L63.9991 40.9V26.113L22.5791 2.50195Z" fill="#002A41"/>
<path d="M105.42 2.50195V58.149L64.0001 81.759V65.71L91.7091 49.915V25.105L64.0001 40.9V26.113L105.42 2.50195ZM22.5791 105.397V49.749L63.9991 26.138V42.189L36.2891 57.983V81.531L63.9991 65.736V81.785L22.5791 105.396V105.397Z" fill="#0071B5"/>
<path d="M105.42 105.397V49.7487L64.0002 26.1377V42.1887L91.7092 57.9827V81.5307L64.0002 65.7357V81.7847L105.42 105.396V105.397ZM11.9112 111.622H15.3012C16.8932 111.622 18.0452 111.86 18.7562 112.336C19.4672 112.812 19.8232 113.564 19.8232 114.593C19.8232 115.304 19.6242 115.891 19.2272 116.353C18.8302 116.815 18.2522 117.115 17.4922 117.251V117.333C19.3142 117.645 20.2242 118.603 20.2242 120.206C20.2242 121.278 19.8622 122.116 19.1372 122.717C18.4112 123.319 17.3992 123.62 16.0962 123.62H11.9102V111.622H11.9112ZM13.3072 116.759H15.6052C16.5902 116.759 17.2982 116.604 17.7312 116.295C18.1632 115.986 18.3792 115.465 18.3792 114.732C18.3792 114.059 18.1382 113.574 17.6562 113.275C17.1752 112.977 16.4092 112.828 15.3582 112.828H13.3062V116.759H13.3072ZM13.3072 117.941V122.43H15.8102C16.7792 122.43 17.5072 122.242 17.9982 121.868C18.4872 121.493 18.7322 120.906 18.7322 120.107C18.7322 119.363 18.4822 118.816 17.9812 118.466C17.4802 118.116 16.7182 117.941 15.6962 117.941H13.3072ZM30.3442 123.62L28.8512 119.804H24.0412L22.5642 123.62H21.1522L25.8962 111.573H27.0692L31.7892 123.62H30.3442ZM28.4162 118.548L27.0202 114.83C26.8079 114.261 26.6213 113.684 26.4612 113.099C26.3412 113.624 26.1692 114.202 25.9442 114.83L24.5332 118.548H28.4162ZM38.5752 112.697C37.2572 112.697 36.2162 113.136 35.4532 114.014C34.6892 114.892 34.3072 116.095 34.3072 117.621C34.3072 119.191 34.6752 120.404 35.4112 121.261C36.1462 122.117 37.1952 122.545 38.5572 122.545C39.3952 122.545 40.3492 122.395 41.4212 122.094V123.317C40.5902 123.629 39.5642 123.785 38.3442 123.785C36.5762 123.785 35.2132 123.249 34.2532 122.177C33.2922 121.105 32.8132 119.581 32.8132 117.606C32.8132 116.37 33.0432 115.286 33.5062 114.356C33.9423 113.454 34.6399 112.705 35.5082 112.206C36.3812 111.703 37.4082 111.451 38.5902 111.451C39.8482 111.451 40.9482 111.681 41.8892 112.14L41.2982 113.338C40.3922 112.91 39.4832 112.697 38.5752 112.697ZM52.7072 123.62H51.0662L46.6912 117.801L45.4362 118.917V123.62H44.0402V111.621H45.4362V117.571L50.8762 111.621H52.5252L47.7002 116.832L52.7072 123.62ZM54.3562 111.622H57.7462C59.3382 111.622 60.4902 111.86 61.2012 112.336C61.9122 112.812 62.2682 113.564 62.2682 114.593C62.2682 115.304 62.0692 115.891 61.6722 116.353C61.2752 116.815 60.6972 117.115 59.9372 117.251V117.333C61.7592 117.645 62.6692 118.603 62.6692 120.206C62.6692 121.278 62.3072 122.116 61.5822 122.717C60.8562 123.319 59.8442 123.62 58.5412 123.62H54.3552V111.622H54.3562ZM55.7522 116.759H58.0502C59.0352 116.759 59.7432 116.604 60.1762 116.295C60.6082 115.986 60.8242 115.465 60.8242 114.732C60.8242 114.059 60.5832 113.574 60.1012 113.275C59.6202 112.977 58.8542 112.828 57.8032 112.828H55.7512V116.759H55.7522ZM55.7522 117.941V122.43H58.2552C59.2242 122.43 59.9522 122.242 60.4432 121.868C60.9322 121.493 61.1772 120.906 61.1772 120.107C61.1772 119.363 60.9272 118.816 60.4262 118.466C59.9252 118.116 59.1632 117.941 58.1412 117.941H55.7522ZM75.6622 117.605C75.6622 119.525 75.1772 121.036 74.2052 122.135C73.2342 123.235 71.8842 123.784 70.1552 123.784C68.3872 123.784 67.0242 123.244 66.0642 122.163C65.1032 121.082 64.6242 119.557 64.6242 117.587C64.6242 115.634 65.1052 114.12 66.0682 113.045C67.0312 111.97 68.3982 111.432 70.1722 111.432C71.8952 111.432 73.2412 111.979 74.2092 113.073C75.1782 114.169 75.6622 115.679 75.6622 117.605ZM66.1012 117.605C66.1012 119.23 66.4482 120.462 67.1392 121.302C67.8312 122.142 68.8372 122.562 70.1562 122.562C71.4852 122.562 72.4892 122.144 73.1682 121.306C73.8472 120.469 74.1862 119.235 74.1862 117.605C74.1862 115.991 73.8482 114.767 73.1722 113.933C72.4962 113.099 71.4962 112.682 70.1732 112.682C68.8432 112.682 67.8322 113.102 67.1402 113.942C66.4472 114.78 66.1012 116.002 66.1012 117.605ZM87.7092 123.62H86.1172L79.5602 113.55H79.4942C79.5782 114.631 79.6222 115.715 79.6262 116.8V123.62H78.3372V111.621H79.9132L86.4542 121.65H86.5191C86.4905 121.175 86.4658 120.701 86.4452 120.226C86.4117 119.653 86.398 119.08 86.4042 118.507V111.621H87.7092V123.62ZM97.6972 123.62H91.0092V111.621H97.6972V112.86H92.4042V116.726H97.3772V117.957H92.4042V122.372H97.6972V123.62ZM99.9542 122.75C99.9542 122.384 100.037 122.106 100.204 121.917C100.371 121.729 100.61 121.634 100.922 121.634C101.239 121.634 101.487 121.728 101.665 121.917C101.843 122.106 101.932 122.384 101.932 122.75C101.932 123.106 101.841 123.379 101.661 123.571C101.48 123.762 101.234 123.858 100.922 123.858C100.644 123.858 100.412 123.772 100.229 123.6C100.046 123.428 99.9542 123.144 99.9542 122.75ZM103.081 126.78C102.566 126.78 102.162 126.706 101.866 126.558V125.368C102.255 125.477 102.66 125.532 103.081 125.532C103.623 125.532 104.034 125.368 104.316 125.04C104.597 124.711 104.738 124.238 104.738 123.62V111.621H106.134V123.505C106.134 124.544 105.871 125.35 105.346 125.922C104.821 126.494 104.065 126.78 103.081 126.78ZM116.089 120.428C116.089 121.484 115.705 122.307 114.94 122.898C114.175 123.489 113.134 123.784 111.822 123.784C110.399 123.784 109.304 123.601 108.539 123.234V121.888C109.058 122.104 109.596 122.269 110.147 122.38C110.727 122.501 111.301 122.561 111.871 122.561C112.801 122.561 113.501 122.384 113.972 122.032C114.443 121.679 114.678 121.188 114.678 120.559C114.678 120.143 114.595 119.803 114.428 119.537C114.261 119.272 113.982 119.027 113.591 118.803C113.199 118.579 112.605 118.324 111.806 118.04C110.69 117.641 109.892 117.167 109.413 116.62C108.934 116.073 108.695 115.359 108.695 114.478C108.695 113.554 109.042 112.818 109.737 112.27C110.431 111.723 111.351 111.449 112.495 111.449C113.687 111.449 114.784 111.668 115.786 112.106L115.35 113.321C114.36 112.905 113.397 112.697 112.461 112.697C111.723 112.697 111.146 112.856 110.73 113.173C110.314 113.49 110.106 113.931 110.106 114.494C110.106 114.91 110.183 115.25 110.335 115.516C110.488 115.781 110.747 116.025 111.111 116.246C111.474 116.468 112.031 116.713 112.781 116.981C114.039 117.43 114.905 117.911 115.379 118.425C115.852 118.94 116.089 119.607 116.089 120.428Z" fill="#002A41"/>
</svg>
