<svg width="128" height="128" viewBox="0 0 128 128" fill="none" xmlns="http://www.w3.org/2000/svg">
<path d="M63.5002 27.652L23.0002 4.5V105.395L63.5002 82.243L104 105.395V4.5L63.5002 27.652ZM44.5002 54.946L64.7332 43.414L84.9642 54.946L64.7332 66.48L44.5002 54.946ZM37.0002 26.663L51.4742 34.913L37.0002 43.165V26.663ZM37.0002 66.73L50.3892 74.361L37.0002 81.993V66.73ZM91.0002 81.993L77.6102 74.361L91.0002 66.73V81.993ZM76.5252 34.913L91.0002 26.663V43.164L76.5252 34.913ZM11.9112 110.622H15.3012C16.8932 110.622 18.0452 110.86 18.7562 111.336C19.4672 111.812 19.8232 112.564 19.8232 113.593C19.8232 114.304 19.6242 114.891 19.2272 115.353C18.8302 115.815 18.2522 116.115 17.4922 116.251V116.333C19.3142 116.645 20.2242 117.603 20.2242 119.206C20.2242 120.278 19.8622 121.116 19.1372 121.717C18.4112 122.319 17.3992 122.62 16.0962 122.62H11.9102V110.622H11.9112ZM13.3072 115.759H15.6052C16.5902 115.759 17.2982 115.604 17.7312 115.295C18.1632 114.986 18.3792 114.465 18.3792 113.732C18.3792 113.059 18.1382 112.574 17.6562 112.275C17.1752 111.977 16.4092 111.828 15.3582 111.828H13.3062V115.759H13.3072ZM13.3072 116.941V121.43H15.8102C16.7792 121.43 17.5072 121.242 17.9982 120.868C18.4872 120.493 18.7322 119.906 18.7322 119.107C18.7322 118.363 18.4822 117.816 17.9812 117.466C17.4802 117.116 16.7182 116.941 15.6962 116.941H13.3072ZM30.3442 122.62L28.8512 118.804H24.0412L22.5642 122.62H21.1522L25.8962 110.573H27.0692L31.7892 122.62H30.3442ZM28.4162 117.548L27.0202 113.83C26.8079 113.262 26.6213 112.684 26.4612 112.099C26.3412 112.624 26.1692 113.202 25.9442 113.83L24.5332 117.548H28.4162ZM38.5752 111.697C37.2572 111.697 36.2162 112.136 35.4532 113.014C34.6892 113.892 34.3072 115.095 34.3072 116.621C34.3072 118.191 34.6752 119.404 35.4112 120.261C36.1462 121.117 37.1952 121.545 38.5572 121.545C39.3952 121.545 40.3492 121.395 41.4212 121.094V122.317C40.5902 122.629 39.5642 122.785 38.3442 122.785C36.5762 122.785 35.2132 122.249 34.2532 121.177C33.2922 120.105 32.8132 118.581 32.8132 116.606C32.8132 115.37 33.0432 114.286 33.5062 113.356C33.9423 112.454 34.6399 111.705 35.5082 111.206C36.3812 110.703 37.4082 110.451 38.5902 110.451C39.8482 110.451 40.9482 110.681 41.8892 111.14L41.2982 112.338C40.3922 111.91 39.4832 111.697 38.5752 111.697ZM52.7072 122.62H51.0662L46.6912 116.801L45.4362 117.917V122.62H44.0402V110.621H45.4362V116.571L50.8762 110.621H52.5252L47.7002 115.832L52.7072 122.62ZM54.3562 110.622H57.7462C59.3382 110.622 60.4902 110.86 61.2012 111.336C61.9122 111.812 62.2682 112.564 62.2682 113.593C62.2682 114.304 62.0692 114.891 61.6722 115.353C61.2752 115.815 60.6972 116.115 59.9372 116.251V116.333C61.7592 116.645 62.6692 117.603 62.6692 119.206C62.6692 120.278 62.3072 121.116 61.5822 121.717C60.8562 122.319 59.8442 122.62 58.5412 122.62H54.3552V110.622H54.3562ZM55.7522 115.759H58.0502C59.0352 115.759 59.7432 115.604 60.1762 115.295C60.6082 114.986 60.8242 114.465 60.8242 113.732C60.8242 113.059 60.5832 112.574 60.1012 112.275C59.6202 111.977 58.8542 111.828 57.8032 111.828H55.7512V115.759H55.7522ZM55.7522 116.941V121.43H58.2552C59.2242 121.43 59.9522 121.242 60.4432 120.868C60.9322 120.493 61.1772 119.906 61.1772 119.107C61.1772 118.363 60.9272 117.816 60.4262 117.466C59.9252 117.116 59.1632 116.941 58.1412 116.941H55.7522ZM75.6622 116.604C75.6622 118.524 75.1772 120.035 74.2052 121.134C73.2342 122.234 71.8842 122.783 70.1552 122.783C68.3872 122.783 67.0242 122.243 66.0642 121.162C65.1032 120.081 64.6242 118.556 64.6242 116.586C64.6242 114.633 65.1052 113.119 66.0682 112.044C67.0312 110.969 68.3982 110.431 70.1722 110.431C71.8952 110.431 73.2412 110.978 74.2092 112.072C75.1782 113.169 75.6622 114.679 75.6622 116.604ZM66.1012 116.604C66.1012 118.229 66.4482 119.461 67.1392 120.301C67.8312 121.141 68.8372 121.561 70.1562 121.561C71.4852 121.561 72.4892 121.143 73.1682 120.305C73.8472 119.468 74.1862 118.234 74.1862 116.604C74.1862 114.99 73.8482 113.766 73.1722 112.932C72.4962 112.098 71.4962 111.681 70.1732 111.681C68.8432 111.681 67.8322 112.101 67.1402 112.941C66.4472 113.78 66.1012 115.001 66.1012 116.604ZM87.7092 122.62H86.1172L79.5602 112.55H79.4942C79.5782 113.631 79.6222 114.715 79.6262 115.8V122.62H78.3372V110.621H79.9132L86.4542 120.65H86.5191C86.4905 120.176 86.4658 119.701 86.4452 119.226C86.4117 118.654 86.398 118.08 86.4042 117.507V110.621H87.7092V122.62ZM97.6972 122.62H91.0092V110.621H97.6972V111.86H92.4042V115.726H97.3772V116.957H92.4042V121.372H97.6972V122.62ZM99.9542 121.75C99.9542 121.384 100.037 121.106 100.204 120.917C100.371 120.729 100.61 120.634 100.922 120.634C101.239 120.634 101.487 120.728 101.665 120.917C101.843 121.106 101.932 121.384 101.932 121.75C101.932 122.106 101.841 122.379 101.661 122.571C101.48 122.762 101.234 122.858 100.922 122.858C100.644 122.858 100.412 122.772 100.229 122.6C100.046 122.428 99.9542 122.144 99.9542 121.75ZM103.081 125.78C102.566 125.78 102.162 125.706 101.866 125.558V124.368C102.255 124.477 102.66 124.532 103.081 124.532C103.623 124.532 104.034 124.368 104.316 124.04C104.597 123.711 104.738 123.238 104.738 122.62V110.621H106.134V122.505C106.134 123.544 105.871 124.35 105.346 124.922C104.821 125.494 104.065 125.78 103.081 125.78ZM116.089 119.428C116.089 120.484 115.705 121.307 114.94 121.898C114.175 122.489 113.134 122.784 111.822 122.784C110.399 122.784 109.304 122.601 108.539 122.234V120.888C109.058 121.104 109.596 121.269 110.147 121.38C110.727 121.501 111.301 121.561 111.871 121.561C112.801 121.561 113.501 121.384 113.972 121.032C114.443 120.679 114.678 120.188 114.678 119.559C114.678 119.143 114.595 118.803 114.428 118.537C114.261 118.272 113.982 118.027 113.591 117.803C113.199 117.579 112.605 117.324 111.806 117.04C110.69 116.641 109.892 116.167 109.413 115.62C108.934 115.073 108.695 114.359 108.695 113.478C108.695 112.554 109.042 111.818 109.737 111.27C110.431 110.723 111.351 110.449 112.495 110.449C113.687 110.449 114.784 110.668 115.786 111.106L115.35 112.321C114.36 111.905 113.397 111.697 112.461 111.697C111.723 111.697 111.146 111.856 110.73 112.173C110.314 112.49 110.106 112.931 110.106 113.494C110.106 113.91 110.183 114.25 110.335 114.516C110.488 114.781 110.747 115.025 111.111 115.246C111.474 115.468 112.031 115.713 112.781 115.981C114.039 116.43 114.905 116.911 115.379 117.425C115.852 117.939 116.089 118.607 116.089 119.428Z" fill="#002A41"/>
</svg>
