<svg width="128" height="128" viewBox="0 0 128 128" fill="none" xmlns="http://www.w3.org/2000/svg">
<path d="M104.133 70.633H84.1332C82.8982 70.633 81.6682 71.593 81.5312 72.824C80.4342 80.77 73.5862 86.934 65.3672 86.934L70.7112 111.59C90.1612 108.988 105.363 93.098 106.734 73.371C106.871 71.867 105.637 70.633 104.133 70.633ZM69.7462 69.95L98.5122 45.293C99.7462 44.195 99.7462 42.414 98.5122 41.32L69.7462 16.664C68.1022 15.156 65.5002 16.391 65.5002 18.582V67.895C65.3632 70.223 67.9652 71.457 69.7462 69.949V69.95Z" fill="#2684FF"/>
<path d="M24.2729 75.9768C26.8799 96.2468 44.2729 112 65.3669 112V86.9338C56.3279 86.9338 48.9299 79.6718 48.9299 70.6328L24.2729 75.9768Z" fill="url(#paint0_linear_3_7465)"/>
<path d="M24 70.2228V70.6328H49.066C49.066 61.5928 56.465 54.3318 65.504 54.3318L60.16 29.6758C39.89 32.2798 24.137 49.4018 24 70.2228Z" fill="url(#paint1_linear_3_7465)"/>
<defs>
<linearGradient id="paint0_linear_3_7465" x1="44.8679" y1="29.9438" x2="44.8679" y2="86.4278" gradientUnits="userSpaceOnUse">
<stop stop-color="#0052CC"/>
<stop offset="1" stop-color="#2684FF"/>
</linearGradient>
<linearGradient id="paint1_linear_3_7465" x1="44.672" y1="29.9438" x2="44.672" y2="86.4278" gradientUnits="userSpaceOnUse">
<stop stop-color="#0052CC"/>
<stop offset="1" stop-color="#2684FF"/>
</linearGradient>
</defs>
</svg>
