<svg width="128" height="128" viewBox="0 0 128 128" fill="none" xmlns="http://www.w3.org/2000/svg">
<path d="M103.71 58.5119H83.376C82.122 58.5119 80.868 59.4879 80.728 60.7419C79.614 68.8199 72.646 75.0899 64.29 75.0899L69.724 100.164C89.504 97.5199 104.966 81.3589 106.36 61.2969C106.501 59.7659 105.247 58.5119 103.712 58.5119H103.71ZM68.742 57.8159L97.996 32.7379C99.25 31.6249 99.25 29.8129 97.996 28.6989L68.742 3.62486C67.07 2.08986 64.422 3.34386 64.422 5.57486V55.7269C64.285 58.0939 66.93 59.3469 68.742 57.8169V57.8159Z" fill="#2684FF"/>
<path d="M22.4961 63.9447C25.1411 84.5617 42.8361 100.582 64.2891 100.582V75.0897C55.0941 75.0897 47.5701 67.7067 47.5701 58.5117L22.4961 63.9447Z" fill="url(#paint0_linear_3_6754)"/>
<path d="M22.2149 58.0944V58.5124H47.7099C47.7099 49.3164 55.2329 41.9344 64.4249 41.9344L58.9909 16.8594C38.3739 19.5044 22.3539 36.9184 22.2139 58.0944H22.2149Z" fill="url(#paint1_linear_3_6754)"/>
<path d="M11.3711 104.098H19.4411C23.3751 104.098 25.2771 106.031 25.2771 109.133C25.2771 111.469 24.2111 112.903 22.0431 113.403C24.8751 113.867 26.3131 115.433 26.3131 118.168C26.3131 121.238 24.2431 123.371 19.9101 123.371H11.3711V104.098ZM14.0391 106.602V112.336H19.1091C21.6091 112.336 22.6451 111.199 22.6451 109.332C22.6451 107.465 21.5431 106.566 19.1091 106.566H14.0391V106.602ZM14.0391 114.703V120.703H20.0431C22.5741 120.703 23.7111 119.805 23.7111 117.871C23.7111 115.801 22.6091 114.703 19.9771 114.703H14.0391ZM39.2811 120.734C38.3481 122.668 36.5821 123.668 34.3131 123.668C30.4141 123.668 28.4451 120.368 28.4451 116.035C28.4451 111.898 30.5121 108.398 34.6131 108.398C36.7461 108.398 38.4141 109.368 39.2811 111.266V108.699H41.8161V123.371H39.2811V120.734ZM35.0161 121.301C37.2811 121.301 39.2811 119.867 39.2811 116.601V115.434C39.2811 112.168 37.4491 110.734 35.2811 110.734C32.4451 110.734 30.9811 112.602 30.9811 116C30.9811 119.535 32.3791 121.3 35.0161 121.3V121.301ZM58.0901 123.371H55.5551V114.5C55.5551 111.867 54.4881 110.7 52.0851 110.7C49.7541 110.7 48.1171 112.266 48.1171 115.234V123.402H45.5861V108.734H48.1171V111.133C49.0511 109.398 50.7851 108.433 52.7541 108.433C55.2541 108.433 56.9571 109.699 57.6881 112C58.5231 109.734 60.4881 108.434 62.9261 108.434C66.2261 108.434 68.0271 110.668 68.0271 114.801V123.402H65.4921V115.234C65.4921 112.199 64.4261 110.699 62.0231 110.699C59.6911 110.699 58.0551 112.266 58.0551 115.234V123.371H58.0901ZM74.0941 120.77V123.336H71.5631V102.53H74.0931V111.3C75.0271 109.366 76.7971 108.366 79.0631 108.366C82.9651 108.366 84.9331 111.667 84.9331 116.003C84.9331 120.136 82.8631 123.636 78.7661 123.636C76.6291 123.671 74.9611 122.702 74.0941 120.769V120.77ZM78.3641 110.734C76.0981 110.734 74.0941 112.168 74.0941 115.434V116.602C74.0941 119.872 75.9301 121.305 78.0981 121.305C80.9301 121.305 82.3981 119.437 82.3981 116.035C82.3981 112.5 81.0001 110.735 78.3631 110.735L78.3641 110.734ZM86.9651 116C86.9651 111.602 89.5351 108.398 93.9371 108.398C98.3051 108.398 100.871 111.602 100.871 116C100.871 120.402 98.3051 123.668 93.9381 123.668C89.5661 123.668 86.9651 120.402 86.9651 116ZM89.4341 116C89.4341 118.8 90.8011 121.3 93.9691 121.3C97.0701 121.3 98.4381 118.77 98.4381 116C98.4381 113.234 97.1051 110.734 93.9681 110.734C90.8361 110.734 89.4341 113.199 89.4341 116ZM102.941 116C102.941 111.602 105.508 108.398 109.911 108.398C114.277 108.398 116.844 111.602 116.844 116C116.844 120.402 114.277 123.668 109.91 123.668C105.508 123.668 102.941 120.402 102.941 116ZM105.406 116C105.406 118.8 106.773 121.3 109.941 121.3C113.043 121.3 114.411 118.77 114.411 116C114.411 113.234 113.078 110.734 109.941 110.734C106.773 110.734 105.406 113.199 105.406 116Z" fill="#253858"/>
<defs>
<linearGradient id="paint0_linear_3_6754" x1="43.4395" y1="17.1289" x2="43.4395" y2="74.5752" gradientUnits="userSpaceOnUse">
<stop stop-color="#0052CC"/>
<stop offset="1" stop-color="#2684FF"/>
</linearGradient>
<linearGradient id="paint1_linear_3_6754" x1="43.24" y1="17.1295" x2="43.24" y2="74.5759" gradientUnits="userSpaceOnUse">
<stop stop-color="#0052CC"/>
<stop offset="1" stop-color="#2684FF"/>
</linearGradient>
</defs>
</svg>
