<svg width="128" height="128" viewBox="0 0 128 128" fill="none" xmlns="http://www.w3.org/2000/svg">
<path d="M109.01 28.6402L71.2802 6.24023C69.0302 4.91023 66.5102 4.24023 64.0002 4.24023C61.4902 4.24023 58.9702 4.91023 56.7202 6.25023L18.9802 28.6502C14.4802 31.3202 11.7002 36.2602 11.7002 41.6102V86.4102C11.7002 91.7602 14.4702 96.7002 18.9802 99.3702L56.7102 121.77C58.9602 123.11 61.4702 123.77 63.9902 123.77C66.5002 123.77 69.0202 123.1 71.2702 121.77L109.01 99.3702C113.51 96.7002 116.29 91.7502 116.29 86.4102V41.6002C116.29 36.2602 113.52 31.3102 109.01 28.6402ZM79.7902 98.5902L79.8502 101.81C79.8502 102.2 79.6002 102.64 79.3002 102.8L77.3902 103.9C77.0902 104.05 76.8302 103.87 76.8302 103.48L76.8002 100.31C75.1702 100.99 73.5102 101.15 72.4602 100.73C72.2602 100.65 72.1702 100.36 72.2502 100.02L72.9402 97.1102C73.0002 96.8802 73.1202 96.6502 73.2802 96.5102C73.3402 96.4502 73.4002 96.4102 73.4602 96.3802C73.5702 96.3202 73.6802 96.3102 73.7702 96.3502C74.9102 96.7302 76.3602 96.5502 77.7602 95.8502C79.5402 94.9502 80.7302 93.1302 80.7102 91.3302C80.6902 89.6902 79.8102 89.0202 77.6602 89.0002C74.9202 89.0102 72.3602 88.4702 72.3202 84.4302C72.2902 81.1102 74.0102 77.6502 76.7502 75.4702L76.7202 72.2202C76.7202 71.8202 76.9602 71.3802 77.2702 71.2202L79.1202 70.0402C79.4202 69.8902 79.6802 70.0802 79.6802 70.4702L79.7102 73.7202C81.0702 73.1802 82.2502 73.0302 83.3202 73.2802C83.5502 73.3402 83.6602 73.6602 83.5602 74.0302L82.8402 76.9102C82.7802 77.1302 82.6602 77.3502 82.5102 77.4902C82.4544 77.5464 82.3904 77.5936 82.3202 77.6302C82.2202 77.6802 82.1302 77.6902 82.0402 77.6802C81.5502 77.5702 80.3902 77.3202 78.5602 78.2402C76.6402 79.2102 75.9702 80.8802 75.9802 82.1202C76.0002 83.6002 76.7502 84.0502 79.3702 84.0902C82.8602 84.1502 84.3602 85.6702 84.4002 89.1802C84.4502 92.6202 82.6102 96.3302 79.7902 98.5902ZM106.13 38.0902L70.4302 60.1402C65.9802 62.7402 62.7002 65.6602 62.6902 71.0302V115.02C62.6902 118.23 63.9902 120.31 65.9802 120.92C65.3302 121.03 64.6602 121.11 64.0002 121.11C61.9102 121.11 59.8502 120.54 58.0402 119.47L20.3102 97.0702C16.6202 94.8802 14.3302 90.7902 14.3302 86.4002V41.6002C14.3302 37.2102 16.6202 33.1202 20.3102 30.9302L58.0502 8.53023C59.8602 7.46023 61.9202 6.89023 64.0102 6.89023C66.1002 6.89023 68.1602 7.46023 69.9702 8.53023L107.71 30.9302C110.82 32.7802 112.92 35.9702 113.51 39.5602C112.24 36.8902 109.42 36.1702 106.13 38.0902Z" fill="#293138"/>
<path d="M99.12 90.7301L89.72 96.3501C89.47 96.5001 89.29 96.6601 89.29 96.9601V99.4201C89.29 99.7201 89.49 99.8501 89.74 99.7001L99.28 93.9001C99.53 93.7501 99.57 93.4801 99.57 93.1801V91.0101C99.57 90.7101 99.37 90.5901 99.12 90.7301Z" fill="#4FA847"/>
</svg>
