<svg width="128" height="128" viewBox="0 0 128 128" fill="none" xmlns="http://www.w3.org/2000/svg">
<path d="M48.5302 48.2606C48.5302 41.1006 43.6602 41.1006 43.6602 41.1006H23.6602V56.4506H42.4202C45.6602 56.4506 48.5302 55.4106 48.5302 48.2606ZM43.6602 67.0606H23.6602V85.4406H42.7602C45.6302 85.3606 50.9402 84.4406 50.9402 76.5006C50.9102 67.0006 43.6602 67.0606 43.6602 67.0606ZM94.9302 56.4506C84.3002 56.4506 82.8202 67.0506 82.8202 67.0506H105.42C105.42 67.0506 105.56 56.4506 94.9302 56.4506Z" fill="#1D1D1B"/>
<path d="M111.25 2.16016H16.7502C12.8806 2.16016 9.16962 3.69731 6.43347 6.43347C3.69731 9.16962 2.16016 12.8806 2.16016 16.7502V111.24C2.16016 115.11 3.69731 118.821 6.43347 121.557C9.16962 124.293 12.8806 125.83 16.7502 125.83H111.24C115.11 125.83 118.821 124.293 121.557 121.557C124.293 118.821 125.83 115.11 125.83 111.24V16.7502C125.83 12.8824 124.294 9.17287 121.56 6.437C118.826 3.70113 115.118 2.16281 111.25 2.16016ZM79.8602 32.9202H108.24V41.4002H79.8602V32.9202ZM65.5102 77.3602C65.5102 98.3602 43.6602 97.6702 43.6602 97.6702H7.86016V28.8702H43.6602C54.5402 28.8702 63.1302 34.8702 63.1302 47.1902C63.1302 59.5102 52.6302 60.2802 52.6302 60.2802C66.4702 60.2802 65.5102 77.3602 65.5102 77.3602ZM118.6 76.2402H83.0002C83.0002 89.0201 95.1102 88.2402 95.1102 88.2402C106.54 88.2402 106.11 80.8401 106.11 80.8401H118.2C118.2 100.48 94.6602 99.1301 94.6602 99.1301C66.4102 99.1301 68.2302 72.8302 68.2302 72.8302C68.2302 72.8302 68.2302 46.4002 94.6602 46.4002C122.51 46.3802 118.61 76.2402 118.61 76.2402H118.6Z" fill="#1D1D1B"/>
</svg>
