<svg width="128" height="128" viewBox="0 0 128 128" fill="none" xmlns="http://www.w3.org/2000/svg">
<path d="M12.7001 52.5004C13.687 52.48 14.6723 52.591 15.6301 52.8304C16.4406 52.9764 17.215 53.2787 17.9101 53.7204C18.5598 54.1282 19.0692 54.7249 19.3701 55.4304C19.711 56.254 19.8779 57.1392 19.8601 58.0304C19.8996 59.0467 19.5967 60.0468 19.0001 60.8704C18.4112 61.6773 17.6266 62.3209 16.7201 62.7404C17.9671 63.0563 19.0619 63.8039 19.8101 64.8504C20.5114 65.9119 20.8804 67.1583 20.8701 68.4304C20.8857 69.4445 20.663 70.4481 20.2201 71.3604C19.8009 72.1669 19.1853 72.8547 18.4301 73.3604C17.6342 73.8848 16.755 74.2703 15.8301 74.5004C14.8739 74.7565 13.8898 74.8942 12.9001 74.9104H2.06006V52.5004H12.7001ZM12.0501 61.6004C12.8283 61.637 13.5982 61.4271 14.2501 61.0004C14.5337 60.755 14.7551 60.4457 14.8959 60.098C15.0367 59.7503 15.093 59.3741 15.0601 59.0004C15.0748 58.5549 14.9929 58.1114 14.8201 57.7004C14.6449 57.376 14.3945 57.0983 14.0901 56.8904C13.7527 56.6745 13.3855 56.5094 13.0001 56.4004C12.5704 56.3308 12.135 56.304 11.7001 56.3204H7.00006V61.6004H12.0501ZM12.2901 71.1904C12.7585 71.1728 13.2241 71.1091 13.6801 71.0004C14.0914 70.9228 14.4807 70.7555 14.8201 70.5104C15.1493 70.2737 15.4253 69.9705 15.6301 69.6204C15.8438 69.1719 15.9694 68.6864 16.0001 68.1904C16.033 67.7223 15.9602 67.2527 15.7871 66.8165C15.614 66.3803 15.345 65.9886 15.0001 65.6704C14.2346 65.1535 13.3227 64.8975 12.4001 64.9404H7.00006V71.2004L12.2901 71.1904ZM28.0001 71.1104C28.3975 71.4634 28.8613 71.7337 29.3644 71.9054C29.8675 72.0771 30.3997 72.1468 30.9301 72.1104C31.7621 72.1192 32.5798 71.894 33.2901 71.4604C33.8221 71.1019 34.2362 70.5939 34.4801 70.0004H38.4801C38.0007 71.6969 36.9698 73.1853 35.5501 74.2304C34.1369 75.1058 32.5022 75.557 30.8401 75.5304C29.6463 75.5336 28.4626 75.3131 27.3501 74.8804C26.3493 74.5068 25.4562 73.892 24.7501 73.0904C23.9945 72.3448 23.4346 71.4243 23.1201 70.4104C22.7147 69.2927 22.5214 68.1091 22.5501 66.9204C22.5278 65.7583 22.7211 64.6021 23.1201 63.5104C23.5131 62.4919 24.0931 61.5558 24.8301 60.7504C25.5734 59.992 26.4563 59.3842 27.4301 58.9604C28.5146 58.5274 29.6723 58.3068 30.8401 58.3104C32.1086 58.2698 33.3671 58.5483 34.5001 59.1204C35.503 59.6168 36.3633 60.3601 37.0001 61.2804C37.6631 62.2175 38.1572 63.2632 38.4601 64.3704C38.639 65.5548 38.6926 66.7548 38.6201 67.9504H26.8401C26.8205 69.1113 27.234 70.2379 28.0001 71.1104ZM33.1201 62.5804C32.4297 61.964 31.5244 61.6443 30.6001 61.6904C29.9791 61.6815 29.3652 61.8221 28.8101 62.1004C28.3822 62.3301 27.9967 62.6311 27.6701 62.9904C27.3702 63.3048 27.1717 63.7019 27.1001 64.1304C27.0129 64.4778 26.9593 64.8328 26.9401 65.1904H34.2501C34.174 64.2151 33.7685 63.2947 33.1001 62.5804H33.1201ZM45.0001 52.5004V61.0004C45.4995 60.1184 46.2665 59.418 47.1901 59.0004C47.9984 58.5953 48.8861 58.3733 49.7901 58.3504C50.79 58.3115 51.7872 58.4783 52.7201 58.8404C53.4265 59.1371 54.0434 59.6127 54.5101 60.2204C54.9504 60.8541 55.2536 61.5728 55.4001 62.3304C55.5854 63.2088 55.6859 64.1029 55.7001 65.0004V75.0004H51.2301V65.8304C51.2923 64.7898 51.0675 63.752 50.5801 62.8304C50.3369 62.4841 50.0058 62.2089 49.6208 62.0331C49.2359 61.8573 48.811 61.7874 48.3901 61.8304C47.904 61.7917 47.4156 61.8673 46.9641 62.0514C46.5126 62.2355 46.1105 62.5229 45.7901 62.8904C45.1576 63.975 44.8813 65.2306 45.0001 66.4804V75.0004H40.5001V52.5004H45.0001ZM58.9501 61.1104C59.4214 60.4222 60.031 59.8398 60.7401 59.4004C61.499 58.9718 62.3234 58.6712 63.1801 58.5104C64.0644 58.3503 64.9613 58.27 65.8601 58.2704C66.6701 58.2704 67.4901 58.3504 68.3801 58.4304C69.1725 58.5107 69.9444 58.7307 70.6601 59.0804C71.3301 59.4005 71.9158 59.8731 72.3701 60.4604C72.8179 61.1635 73.0379 61.9877 73.0001 62.8204V71.3504C73.0099 72.0564 73.0634 72.7611 73.1601 73.4604C73.2248 74.0134 73.4239 74.5421 73.7401 75.0004H69.1901C69.032 74.7818 68.9197 74.5335 68.8601 74.2704C68.7935 74.0059 68.7665 73.7329 68.7801 73.4604C68.0756 74.1683 67.2113 74.6965 66.2601 75.0004C65.3123 75.2962 64.3226 75.4347 63.3301 75.4104C62.5866 75.4259 61.8459 75.3143 61.1401 75.0804C60.4922 74.9005 59.8846 74.5984 59.3501 74.1904C58.839 73.7692 58.4232 73.2443 58.1301 72.6504C57.8548 71.9533 57.7157 71.2099 57.7201 70.4604C57.6901 69.6714 57.8586 68.8875 58.2101 68.1804C58.5257 67.6244 58.939 67.1298 59.4301 66.7204C59.9782 66.3539 60.5829 66.0802 61.2201 65.9104C61.8766 65.7285 62.5449 65.5915 63.2201 65.5004L65.2201 65.2604C65.8867 65.1804 66.4567 65.1004 66.9301 65.0204C67.3644 64.8965 67.7763 64.7041 68.1501 64.4504C68.3036 64.3238 68.422 64.1597 68.4938 63.9741C68.5656 63.7884 68.5884 63.5874 68.5601 63.3904C68.5865 62.9956 68.5034 62.6011 68.3201 62.2504C68.146 61.995 67.9255 61.7745 67.6701 61.6004C67.3935 61.4425 67.0928 61.331 66.7801 61.2704C66.4044 61.2003 66.0219 61.1734 65.6401 61.1904C64.9268 61.1359 64.2174 61.338 63.6401 61.7604C63.1093 62.2427 62.7896 62.9144 62.7501 63.6304H58.2201C58.2273 62.7393 58.4798 61.8674 58.9501 61.1104ZM67.8101 67.4504C67.5701 67.5304 67.2401 67.6104 66.9201 67.6904C66.6001 67.7704 66.2701 67.7704 65.8601 67.8504C65.4501 67.9304 65.1301 67.9304 64.8001 68.0104L63.8001 68.2504C63.501 68.32 63.2232 68.4607 62.9901 68.6604C62.7588 68.8371 62.565 69.058 62.4201 69.3104C62.2172 69.6243 62.1322 69.9998 62.1801 70.3704C62.1568 70.7204 62.2405 71.0691 62.4201 71.3704C62.57 71.6166 62.7672 71.8306 63.0001 72.0004C63.2767 72.1584 63.5773 72.2699 63.8901 72.3304C64.2387 72.4009 64.5948 72.4278 64.9501 72.4104C65.6562 72.4373 66.3586 72.2969 67.0001 72.0004C67.4078 71.7297 67.7495 71.3709 68.0001 70.9504C68.2443 70.5882 68.386 70.1667 68.4101 69.7304C68.4726 69.4009 68.4995 69.0657 68.4901 68.7304V67.0004C68.2829 67.178 68.0545 67.3292 67.8101 67.4504ZM79.7501 58.6804V61.0004H79.8301C80.3295 60.1184 81.0965 59.418 82.0201 59.0004C82.8848 58.5939 83.8248 58.3725 84.7801 58.3504C85.78 58.3115 86.7772 58.4783 87.7101 58.8404C88.429 59.1152 89.0514 59.5951 89.5001 60.2204C89.9451 60.8652 90.2828 61.5778 90.5001 62.3304C90.6586 63.2114 90.7322 64.1054 90.7201 65.0004V75.0004H86.2501V65.8304C86.3123 64.7898 86.0875 63.752 85.6001 62.8304C85.349 62.4666 85.0052 62.1764 84.6044 61.9901C84.2035 61.8037 83.7601 61.7279 83.3201 61.7704C82.8097 61.7512 82.3019 61.8526 81.838 62.0663C81.3741 62.28 80.9672 62.6 80.6501 63.0004C80.0127 64.0799 79.7295 65.3318 79.8401 66.5804V75.1104H75.3601V58.6804H79.7501ZM100.72 61.6004C100.087 61.5765 99.4624 61.7475 98.9301 62.0904C98.4251 62.4197 98.0066 62.8656 97.7101 63.3904C97.3965 63.9187 97.1766 64.4972 97.0601 65.1004C96.9237 65.724 96.8699 66.3628 96.9001 67.0004C96.9129 67.6 96.9664 68.1981 97.0601 68.7904C97.1762 69.3686 97.3965 69.9209 97.7101 70.4204C98.0019 70.9013 98.39 71.3167 98.8501 71.6404C99.3824 71.9833 100.007 72.1544 100.64 72.1304C101.562 72.162 102.462 71.8441 103.16 71.2404C103.798 70.5829 104.175 69.7155 104.22 68.8004H108.53C108.367 70.7299 107.464 72.5216 106.01 73.8004C104.483 74.9878 102.583 75.5939 100.65 75.5104C99.5082 75.5144 98.3766 75.2935 97.3201 74.8604C96.3398 74.4853 95.4527 73.9019 94.7201 73.1504C93.9718 72.3784 93.3868 71.4636 93.0001 70.4604C92.6016 69.3964 92.4081 68.2665 92.4301 67.1304C92.4001 65.9384 92.5935 64.7513 93.0001 63.6304C93.3652 62.5921 93.9176 61.6295 94.6301 60.7904C95.3702 60.0078 96.2526 59.3732 97.2301 58.9204C98.3426 58.4878 99.5264 58.2673 100.72 58.2704C101.654 58.2815 102.583 58.4194 103.48 58.6804C104.331 58.91 105.131 59.2967 105.84 59.8204C106.578 60.3225 107.169 61.013 107.55 61.8204C107.983 62.6795 108.232 63.6196 108.28 64.5804H103.89C103.913 64.1664 103.846 63.7523 103.692 63.3673C103.538 62.9822 103.302 62.6354 103 62.3514C102.698 62.0674 102.337 61.853 101.943 61.7233C101.549 61.5935 101.132 61.5516 100.72 61.6004ZM25.9501 54.0404H35.0501V56.2304H25.9501V54.0404ZM115.27 71.1104C116.079 71.8139 117.13 72.1728 118.2 72.1104C119.032 72.1192 119.85 71.894 120.56 71.4604C121.1 71.1049 121.521 70.5966 121.77 70.0004H125.67C125.191 71.6969 124.16 73.1853 122.74 74.2304C121.315 75.1009 119.669 75.5418 118 75.5004C116.806 75.5036 115.623 75.2831 114.51 74.8504C113.528 74.448 112.643 73.8413 111.914 73.0706C111.185 72.2999 110.628 71.3829 110.28 70.3804C109.875 69.2627 109.681 68.0791 109.71 66.8904C109.688 65.7283 109.881 64.5721 110.28 63.4804C110.675 62.4576 111.258 61.518 112 60.7104C112.743 59.952 113.626 59.3442 114.6 58.9204C115.687 58.4951 116.843 58.2747 118.01 58.2704C119.254 58.2196 120.489 58.4991 121.59 59.0804C122.604 59.5824 123.472 60.3365 124.11 61.2704C124.773 62.2075 125.267 63.2532 125.57 64.3604C125.889 65.5526 126 66.7905 125.9 68.0204H114.13C114.117 69.1557 114.523 70.2559 115.27 71.1104ZM120.47 62.5804C119.78 61.964 118.874 61.6443 117.95 61.6904C117.329 61.6815 116.715 61.8221 116.16 62.1004C115.71 62.3089 115.314 62.6166 115 63.0004C114.731 63.3352 114.536 63.724 114.43 64.1404C114.343 64.4878 114.289 64.8428 114.27 65.2004H121.58C121.432 64.2496 121.039 63.3536 120.44 62.6004L120.47 62.5804Z" fill="#0071E0"/>
</svg>
