<svg width="128" height="128" viewBox="0 0 128 128" fill="none" xmlns="http://www.w3.org/2000/svg">
<path d="M19.0822 20C17.1642 20 15.7272 21.758 16.0432 23.516L28.9932 102.805C29.3132 104.883 31.0702 106.32 33.1482 106.32H95.8082C97.2502 106.32 98.5282 105.2 98.8482 103.762L111.957 23.676C112.273 21.758 110.836 20.16 108.918 20.16L19.0822 20ZM74.0702 77.227H54.0902L48.8122 48.934H79.0272L74.0702 77.227Z" fill="#2684FF"/>
<path d="M107.64 48.9336H78.8678L74.0698 77.2266H54.0898L30.5898 105.199C30.5898 105.199 31.7098 106.16 33.3088 106.16H95.9688C97.4098 106.16 98.6878 105.04 99.0078 103.602L107.64 48.9336Z" fill="url(#paint0_linear_3_6757)"/>
<defs>
<linearGradient id="paint0_linear_3_6757" x1="114.372" y1="56.9036" x2="66.6878" y2="94.1276" gradientUnits="userSpaceOnUse">
<stop offset="0.176" stop-color="#0052CC"/>
<stop offset="1" stop-color="#2684FF"/>
</linearGradient>
</defs>
</svg>
