<svg width="128" height="128" viewBox="0 0 128 128" fill="none" xmlns="http://www.w3.org/2000/svg">
<path d="M19.3358 11.3242C17.4178 11.3242 15.9798 13.0822 16.3008 14.8402L29.2458 94.1252C29.5658 96.2032 31.3238 97.6452 33.4018 97.6452H96.0658C97.5038 97.6452 98.7808 96.5232 99.1018 95.0852L112.21 15.0002C112.53 13.0822 111.089 11.4842 109.17 11.4842L19.3358 11.3242ZM74.3238 68.5512H54.3438L49.0698 40.2582H79.2808L74.3238 68.5512Z" fill="#2684FF"/>
<path d="M107.895 40.2578H79.1201L74.3241 68.5498H54.3441L30.8481 96.5228C30.8481 96.5228 31.9651 97.4838 33.5631 97.4838H96.2271C97.6641 97.4838 98.9411 96.3638 99.2621 94.9258L107.895 40.2578Z" fill="url(#paint0_linear_3_6855)"/>
<path d="M3.52295 102.59H11.8909C15.9689 102.59 17.9369 104.531 17.9369 107.637C17.9369 109.977 16.832 111.414 14.5859 111.918C17.523 112.383 19.0079 113.957 19.0079 116.695C19.0079 119.77 16.8679 121.91 12.3749 121.91H3.52295V102.59ZM6.28895 110.848H11.5429C14.1369 110.848 15.2069 109.711 15.2069 107.84C15.2069 105.969 14.0669 105.062 11.5429 105.062H6.28895V110.848ZM6.28895 113.218V119.234H12.5119C15.1369 119.234 16.3119 118.332 16.3119 116.394C16.3119 114.324 15.1719 113.219 12.4419 113.219L6.28895 113.218ZM23.5039 101.555C24.5739 101.555 25.3359 102.191 25.3359 103.328C25.3359 104.43 24.5739 105.098 23.5039 105.098C22.4299 105.098 21.6719 104.461 21.6719 103.328C21.6719 102.191 22.4299 101.555 23.5039 101.555ZM22.1519 107.203H24.7819V121.91H22.1519V107.203ZM34.7339 119.535C35.3549 119.535 35.91 119.402 36.394 119.335V121.777C35.945 121.91 35.4259 122.012 34.6329 122.012C31.3829 122.012 29.7929 120.172 29.7929 117.43V109.543H27.3399V107.203H29.7929V104.093H32.3519V107.203H36.395V109.543H32.3519V117.332C32.3519 118.632 33.1449 119.535 34.7339 119.535ZM42.34 119.305V121.875H39.7099V101.055H42.34V109.844C43.305 107.906 45.1369 106.902 47.4879 106.902C51.5309 106.902 53.57 110.211 53.57 114.559C53.57 118.703 51.43 122.211 47.1759 122.211C44.965 122.211 43.2729 121.242 42.34 119.305ZM46.797 109.277C44.445 109.277 42.375 110.715 42.375 113.988V115.16C42.375 118.434 44.2729 119.871 46.52 119.871C49.457 119.871 50.9799 118 50.9799 114.59C50.945 111.016 49.492 109.277 46.797 109.277ZM56.2999 107.203H58.93V116.093C58.93 118.734 60.035 119.906 62.5229 119.906C64.9409 119.906 66.637 118.332 66.637 115.359V107.203H69.2619V121.91H66.637V119.504C65.6679 121.242 63.871 122.211 61.832 122.211C58.34 122.211 56.3359 119.871 56.3359 115.828V107.203H56.2999ZM83.9179 121.508C83.0199 121.977 81.602 122.176 80.2179 122.176C74.7929 122.176 72.2699 119.004 72.2699 114.488C72.2699 110.043 74.7929 106.871 80.2189 106.871C81.602 106.871 82.6369 107.035 83.8479 107.571V109.911C82.8779 109.477 81.8439 109.207 80.4259 109.207C76.4839 109.207 74.8629 111.617 74.8629 114.488C74.8629 117.363 76.52 119.77 80.4959 119.77C82.0509 119.77 83.02 119.57 83.9529 119.234V121.508H83.9179ZM86.8899 121.91V101.055H89.5159V114.09L96.0459 107.203H99.4689L92.3159 114.422L99.7809 121.91H96.2199L89.5169 115.023V121.91H86.8899ZM108.422 122.21C102.719 122.21 100.23 119.035 100.23 114.523C100.23 110.078 102.79 106.903 107.418 106.903C112.121 106.903 113.984 110.043 113.984 114.523V115.66H102.891C103.273 118.168 104.93 119.77 108.523 119.77C110.289 119.77 111.773 119.438 113.156 118.969V121.309C111.914 121.977 109.976 122.211 108.422 122.211V122.21ZM102.855 113.488H111.359C111.223 110.746 109.941 109.207 107.316 109.207C104.551 109.207 103.133 110.945 102.856 113.488H102.855ZM123.11 119.535C123.734 119.535 124.285 119.402 124.77 119.335V121.777C124.32 121.91 123.8 122.012 123.008 122.012C119.758 122.012 118.168 120.172 118.168 117.43V109.543H115.715V107.203H118.168V104.093H120.727V107.203H124.77V109.543H120.727V117.332C120.727 118.632 121.52 119.535 123.109 119.535H123.11Z" fill="#253858"/>
<defs>
<linearGradient id="paint0_linear_3_6855" x1="114.627" y1="48.2278" x2="66.9431" y2="85.4518" gradientUnits="userSpaceOnUse">
<stop offset="0.176" stop-color="#0052CC"/>
<stop offset="1" stop-color="#2684FF"/>
</linearGradient>
</defs>
</svg>
