<svg width="128" height="128" viewBox="0 0 128 128" fill="none" xmlns="http://www.w3.org/2000/svg">
<path d="M66.332 70.0321C66.572 65.7901 68.659 62.0451 71.817 59.3981C74.911 56.7961 79.065 55.2051 83.626 55.2051C88.163 55.2051 92.316 56.7951 95.406 59.3981C98.569 62.0451 100.643 65.7901 100.891 70.0321C101.131 74.3821 99.368 78.4421 96.286 81.4491C93.128 84.4991 88.659 86.4261 83.626 86.4261C78.589 86.4261 74.1 84.5111 70.962 81.4491C67.868 78.4431 66.109 74.4051 66.356 70.0521L66.332 70.0321Z" fill="#235785"/>
<path d="M39.2448 79.0021C39.2728 80.6621 39.8088 83.8921 40.6048 86.4061C42.2868 91.7421 45.1418 96.6791 49.0948 101.005C53.1568 105.47 58.1688 109.06 63.9448 111.615C70.0178 114.285 76.6098 115.652 83.4498 115.652C90.2898 115.643 96.8818 114.252 102.954 111.55C108.73 108.968 113.744 105.382 117.804 100.893C121.778 96.5191 124.624 91.5861 126.295 86.2461C127.132 83.5937 127.667 80.8554 127.89 78.0831C128.098 75.3931 128.01 72.6781 127.627 69.9631C126.877 64.7318 125.031 59.7178 122.21 55.2491C119.636 51.0991 116.294 47.4891 112.32 44.4361L112.332 44.4321L72.3768 13.9261C72.3408 13.8981 72.3088 13.8701 72.2728 13.8461C69.6538 11.8441 65.2288 11.8521 62.3628 13.8541C59.4488 15.8851 59.1128 19.2391 61.7068 21.3501L61.6948 21.3581L78.3768 34.8421L27.5878 34.8931H27.5198C23.3228 34.8971 19.2808 37.6321 18.4898 41.1061C17.6698 44.6271 20.5248 47.5661 24.9018 47.5661L24.8938 47.5821L50.6298 47.5341L4.57979 82.5241C4.52379 82.5681 4.45979 82.6121 4.40379 82.6561C0.0687943 85.9501 -1.33021 91.4461 1.39979 94.9001C4.17779 98.4221 10.0658 98.4461 14.4468 94.9201L39.5048 74.5101C39.5048 74.5101 39.1368 77.2681 39.1688 78.9071L39.2448 79.0021ZM103.805 88.2211C98.6368 93.4491 91.3888 96.4311 83.5778 96.4311C75.7468 96.4431 68.4988 93.5131 63.3298 88.2891C60.8038 85.7301 58.9528 82.8161 57.8018 79.6981C56.6766 76.63 56.2426 73.3513 56.5308 70.0961C56.8044 66.9201 57.7514 63.8387 59.3088 61.0571C60.8158 58.3431 62.8988 55.8771 65.4488 53.7901C70.4818 49.7321 76.8688 47.5101 83.5488 47.5101C90.2578 47.5021 96.6458 49.6841 101.679 53.7461C104.229 55.8211 106.304 58.2751 107.819 60.9891C109.379 63.7705 110.325 66.8541 110.593 70.0321C110.877 73.2859 110.443 76.5624 109.322 79.6301C108.175 82.7721 106.32 85.6861 103.789 88.2451L103.805 88.2211Z" fill="#E87500"/>
</svg>
