<svg width="128" height="128" viewBox="0 0 128 128" fill="none" xmlns="http://www.w3.org/2000/svg">
<path d="M20.7402 65.9618C20.8152 64.6658 21.4672 63.5208 22.4472 62.7118C23.4072 61.9158 24.7032 61.4268 26.1142 61.4268C27.5242 61.4268 28.8202 61.9158 29.7812 62.7118C30.7612 63.5208 31.4122 64.6658 31.4882 65.9618C31.5582 67.2938 31.0132 68.5318 30.0492 69.4508C29.0692 70.3838 27.6752 70.9708 26.1142 70.9708C24.5542 70.9708 23.1542 70.3838 22.1742 69.4508C21.2142 68.5328 20.6652 67.2938 20.7402 65.9618Z" fill="#235785"/>
<path d="M12.1862 68.5908C12.1982 69.0988 12.3642 70.0828 12.6092 70.8568C13.1515 72.5223 14.0539 74.0481 15.2522 75.3258C16.5162 76.6928 18.0732 77.7908 19.8712 78.5718C21.7869 79.3941 23.8515 79.8128 25.9362 79.8018C28.0225 79.8051 30.0872 79.3782 32.0012 78.5478C33.7502 77.7939 35.3235 76.6848 36.6212 75.2908C37.8492 73.9548 38.7342 72.4428 39.2602 70.8138C39.5202 69.9898 39.6862 69.1538 39.7532 68.3138C39.9421 65.8542 39.322 63.4003 37.9872 61.3258C37.1708 60.0463 36.1309 58.9241 34.9172 58.0128H34.9212L22.4912 48.6808C22.4792 48.6728 22.4712 48.6608 22.4592 48.6578C21.6412 48.0438 20.2702 48.0438 19.3732 48.6578C18.4682 49.2778 18.3662 50.3058 19.1722 50.9548H19.1682L24.3522 55.0798L8.55117 55.0948H8.53117C7.22317 55.0948 5.96717 55.9348 5.72117 56.9938C5.46517 58.0718 6.35017 58.9658 7.70917 58.9698V58.9778L15.7192 58.9618L1.42617 69.6898C1.40598 69.7004 1.38718 69.7135 1.37017 69.7288C0.0231719 70.7368 -0.415828 72.4158 0.434172 73.4788C1.29517 74.5568 3.12917 74.5608 4.49217 73.4828L12.2922 67.2448C12.2922 67.2448 12.1772 68.0848 12.1852 68.5918L12.1862 68.5908ZM32.2302 71.4108C30.6222 73.0128 28.3742 73.9188 25.9362 73.9268C23.4982 73.9308 21.2502 73.0288 19.6422 71.4308C18.8874 70.6878 18.3011 69.7912 17.9232 68.8018C17.5747 67.8644 17.4411 66.8607 17.5322 65.8648C17.6162 64.8914 17.91 63.9478 18.3932 63.0988C18.8798 62.2413 19.5281 61.4864 20.3022 60.8758C21.8662 59.6298 23.8542 58.9548 25.9362 58.9548C28.0182 58.9508 30.0062 59.6188 31.5662 60.8608C32.3411 61.4684 32.9908 62.2206 33.4792 63.0758C33.9572 63.9228 34.2532 64.8558 34.3402 65.8408C34.4317 66.836 34.2966 67.8391 33.9452 68.7748C33.5719 69.768 32.9867 70.6678 32.2302 71.4118V71.4108Z" fill="#E87500"/>
<path d="M105.897 65.9425C106.019 64.6295 107.055 63.8025 108.635 63.8025C110.215 63.8025 111.251 64.6295 111.373 65.9425H105.897ZM111.211 69.1725C110.804 70.1455 109.852 70.7195 108.552 70.7195C106.932 70.7195 105.838 69.7275 105.794 68.1615H115.127V67.6995C115.127 63.7815 112.772 61.5745 108.552 61.5745C104.459 61.5745 101.982 63.8005 101.982 67.2895C101.982 70.7965 104.498 73.0195 108.552 73.0195C110.99 73.0195 112.875 72.2035 114.04 70.7695L111.211 69.1725ZM64.4922 65.9465C64.6152 64.6375 65.6502 63.8095 67.2342 63.8095C68.8142 63.8095 69.8462 64.6375 69.9682 65.9465H64.4922ZM69.8062 69.1805C69.4032 70.1535 68.4472 70.7275 67.1472 70.7275C65.5272 70.7275 64.4332 69.7355 64.3892 68.1685H73.7192V67.7115C73.7192 63.7865 71.3672 61.5825 67.1472 61.5825C63.0502 61.5825 60.5802 63.8095 60.5802 67.2975C60.5802 70.8055 63.0932 73.0245 67.1472 73.0245C69.5812 73.0245 71.4702 72.2115 72.6392 70.7785L69.8062 69.1805ZM56.3802 59.2075H59.7432V72.6695H56.3802V59.2075ZM74.5562 62.7865H77.9382V63.5865C79.1392 62.3365 80.5782 61.7045 82.1982 61.7045C84.0662 61.7045 85.4812 62.3365 86.2122 63.4115C86.8242 64.3015 86.8642 65.3715 86.8642 66.7815V72.6685H83.4742V67.4975C83.4742 65.3485 83.0312 64.3605 81.1072 64.3605C79.1592 64.3605 77.9382 65.4935 77.9382 67.3995V72.6695H74.5562V62.7865ZM97.7652 67.4575C97.7652 69.3015 96.5052 70.5085 94.5572 70.5085C92.6092 70.5085 91.3482 69.3405 91.3482 67.4775C91.3482 65.5875 92.5892 64.4225 94.5572 64.4225C96.5052 64.4225 97.7652 65.6105 97.7652 67.4575ZM97.7652 63.2315C96.9082 62.3365 95.6712 61.8445 93.9482 61.8445C90.2382 61.8445 87.7022 64.0825 87.7022 67.4385C87.7022 70.7275 90.2182 73.0285 93.8892 73.0285C95.5722 73.0285 96.8052 72.6105 97.7652 71.6765V72.6685H101.151V58.3525L97.7652 59.2075V63.2315ZM48.6872 64.4225C50.6552 64.4225 51.8922 65.5905 51.8922 67.4815C51.8922 69.3445 50.6352 70.5085 48.6872 70.5085C46.7392 70.5085 45.4832 69.3015 45.4832 67.4585C45.4832 65.6105 46.7392 64.4225 48.6872 64.4225ZM45.4832 59.2075L42.0972 58.3565V72.6725H45.4832V71.6805C46.4352 72.6145 47.6722 73.0285 49.3592 73.0285C53.0292 73.0285 55.5432 70.7275 55.5432 67.4385C55.5432 64.0825 53.0062 61.8445 49.2962 61.8445C47.5732 61.8445 46.3362 62.3365 45.4832 63.2345V59.2075ZM115.96 72.6725V62.7865H119.347V63.3995C120.362 62.2045 121.433 61.6095 122.654 61.6095C122.899 61.6095 123.204 61.6495 123.606 61.6885V64.5045C123.282 64.4655 122.919 64.4655 122.532 64.4655C120.564 64.4655 119.347 65.7355 119.347 67.8915V72.6725H115.96Z" fill="#235785"/>
<path d="M126.498 60.8274H126.624C126.707 60.8274 126.77 60.8084 126.814 60.7654C126.835 60.7423 126.852 60.7152 126.863 60.6857C126.874 60.6562 126.879 60.6248 126.877 60.5934C126.877 60.5114 126.853 60.4534 126.814 60.4214C126.77 60.3904 126.703 60.3744 126.608 60.3744H126.497L126.498 60.8274ZM127.209 60.5944C127.209 60.7824 127.118 60.9144 126.94 60.9844L127.367 61.6574H126.987L126.656 61.0784H126.498V61.6574H126.166V60.1254H126.624C126.822 60.1254 126.972 60.1684 127.066 60.2504C127.161 60.3254 127.209 60.4384 127.209 60.5944ZM125.36 60.8904C125.36 60.6655 125.42 60.4446 125.534 60.2498C125.647 60.055 125.811 59.8932 126.007 59.7804C126.211 59.6683 126.439 59.6095 126.672 59.6094C126.913 59.6094 127.134 59.6674 127.335 59.7814C127.533 59.8984 127.691 60.0544 127.81 60.2494C127.936 60.4494 127.999 60.6634 127.999 60.8904C127.999 61.1204 127.94 61.3354 127.825 61.5304C127.702 61.7234 127.534 61.8846 127.335 62.0004C127.133 62.1174 126.913 62.1714 126.672 62.1714C126.427 62.1714 126.206 62.1174 126.007 61.9994C125.806 61.8864 125.649 61.7304 125.534 61.5314C125.417 61.3377 125.357 61.1158 125.36 60.8904ZM125.581 60.8904C125.581 61.0904 125.628 61.2734 125.723 61.4374C125.818 61.5934 125.949 61.7264 126.118 61.8274C126.297 61.9214 126.482 61.9684 126.672 61.9684C126.865 61.9697 127.056 61.9215 127.225 61.8284C127.394 61.7354 127.535 61.6006 127.636 61.4374C127.731 61.2734 127.777 61.0894 127.777 60.8904C127.777 60.7024 127.723 60.5274 127.62 60.3594C127.526 60.1967 127.39 60.062 127.225 59.9694C127.062 59.8686 126.874 59.8138 126.682 59.8108C126.49 59.8078 126.3 59.8568 126.134 59.9524C125.965 60.0457 125.824 60.1804 125.723 60.3434C125.628 60.5114 125.581 60.6954 125.581 60.8904Z" fill="#216191"/>
</svg>
