<svg width="128" height="128" viewBox="0 0 128 128" fill="none" xmlns="http://www.w3.org/2000/svg">
<path d="M27.2349 2.05078C20.0579 2.05078 14.7489 8.33478 14.9859 15.1498C15.2139 21.6958 14.9179 30.1758 12.7829 37.0898C10.6429 44.0258 7.02286 48.4088 1.10986 48.9728V55.3598C7.02286 55.9228 10.6429 60.3068 12.7829 67.2428C14.9179 74.1568 15.2129 82.6368 14.9859 89.1828C14.7479 95.9978 20.0579 102.281 27.2349 102.281H100.775C107.952 102.281 113.261 95.9968 113.024 89.1828C112.796 82.6368 113.092 74.1568 115.226 67.2428C117.366 60.3078 120.977 55.9238 126.89 55.3598V48.9728C120.977 48.4098 117.367 44.0258 115.226 37.0898C113.092 30.1758 112.796 21.6958 113.024 15.1498C113.261 8.33478 107.952 2.05078 100.774 2.05078H27.2349ZM85.3489 63.7368C85.3489 73.1208 78.3469 78.8098 66.7279 78.8098H45.3059C45.1756 78.8098 45.0508 78.758 44.9587 78.666C44.8666 78.5739 44.8149 78.449 44.8149 78.3188V25.9928C44.8147 25.9282 44.8273 25.8643 44.852 25.8046C44.8766 25.7449 44.9127 25.6906 44.9583 25.6449C45.0039 25.5992 45.0581 25.563 45.1177 25.5383C45.1774 25.5135 45.2413 25.5008 45.3059 25.5008H66.6149C76.3039 25.5008 82.6619 30.7468 82.6619 38.8008C82.6619 44.4538 78.3849 49.5138 72.9349 50.4008V50.6968C80.3529 51.5098 85.3489 56.6448 85.3489 63.7368ZM64.5709 32.2618H53.2929V48.1838H62.7929C70.1349 48.1838 74.1839 45.2288 74.1839 39.9458C74.1839 34.9958 70.7029 32.2618 64.5709 32.2618ZM53.2929 54.5018V72.0498H64.9879C72.6329 72.0498 76.6829 68.9838 76.6829 63.2198C76.6829 57.4568 72.5199 54.5018 64.4959 54.5018H53.2929Z" fill="#7952B3"/>
<path d="M11.3979 121.43V103.692H16.4449C17.9783 103.692 19.1946 104.068 20.0939 104.818C20.9926 105.568 21.4419 106.545 21.4419 107.749C21.4419 108.756 21.1699 109.63 20.6259 110.372C20.0813 111.114 19.3306 111.642 18.374 111.955V112.005C19.57 112.145 20.5266 112.599 21.2439 113.365C21.9613 114.124 22.3199 115.114 22.3199 116.334C22.3199 117.852 21.7759 119.08 20.6879 120.02C19.5993 120.96 18.226 121.43 16.568 121.43H11.3979ZM13.4759 105.572V111.299H15.6039C16.7419 111.299 17.6366 111.027 18.2879 110.483C18.9393 109.93 19.2649 109.155 19.2649 108.157C19.2649 106.434 18.1309 105.572 15.8629 105.572H13.4759ZM13.4759 113.167V119.55H16.2959C17.5166 119.55 18.4609 119.262 19.1289 118.684C19.8049 118.107 20.1429 117.315 20.1429 116.309C20.1429 114.215 18.7163 113.167 15.8629 113.167H13.4759ZM30.9419 121.73C29.0699 121.73 27.5733 121.141 26.4519 119.961C25.3386 118.774 24.7819 117.203 24.7819 115.248C24.7819 113.121 25.3633 111.459 26.5259 110.263C27.6886 109.068 29.2596 108.47 31.2389 108.47C33.1269 108.47 34.5989 109.052 35.6549 110.214C36.7183 111.377 37.25 112.989 37.25 115.05C37.25 117.071 36.6769 118.692 35.5309 119.912C34.3929 121.124 32.8633 121.73 30.9419 121.73ZM31.09 110.177C29.7873 110.177 28.7566 110.623 27.9979 111.513C27.2393 112.395 26.86 113.616 26.86 115.174C26.86 116.676 27.2433 117.859 28.0099 118.724C28.7766 119.591 29.8033 120.024 31.09 120.024C32.4013 120.024 33.4076 119.599 34.109 118.749C34.8176 117.9 35.172 116.692 35.172 115.125C35.172 113.542 34.8176 112.321 34.109 111.463C33.4076 110.606 32.4013 110.177 31.09 110.177ZM45.7859 121.73C43.9139 121.73 42.4173 121.141 41.296 119.961C40.1826 118.774 39.6259 117.203 39.6259 115.248C39.6259 113.121 40.2073 111.459 41.3699 110.263C42.5326 109.068 44.1036 108.47 46.083 108.47C47.971 108.47 49.443 109.052 50.499 110.214C51.563 111.377 52.095 112.989 52.095 115.05C52.095 117.071 51.5216 118.692 50.375 119.912C49.2369 121.124 47.7073 121.73 45.7859 121.73ZM45.9339 110.177C44.6313 110.177 43.6006 110.623 42.8419 111.513C42.0833 112.395 41.7039 113.616 41.7039 115.174C41.7039 116.676 42.0873 117.859 42.854 118.724C43.6206 119.591 44.6473 120.024 45.9339 120.024C47.2453 120.024 48.2516 119.599 48.9529 118.749C49.6616 117.9 50.0159 116.692 50.0159 115.125C50.0159 113.542 49.6616 112.321 48.9529 111.463C48.2516 110.606 47.2453 110.177 45.9339 110.177ZM61.2109 121.31C60.7329 121.574 60.102 121.706 59.318 121.706C57.1 121.706 55.991 120.469 55.991 117.995V110.499H53.8139V108.767H55.991V105.675L58.02 105.019V108.767H61.2109V110.499H58.02V117.636C58.02 118.486 58.1643 119.092 58.4529 119.455C58.7409 119.818 59.219 119.999 59.887 119.999C60.3983 119.999 60.8396 119.859 61.2109 119.579V121.31ZM63.153 120.97V118.793C64.2576 119.609 65.474 120.017 66.802 120.017C68.5833 120.017 69.4739 119.424 69.4739 118.237C69.4739 117.899 69.3956 117.614 69.2389 117.383C69.0903 117.144 68.884 116.934 68.62 116.752C68.3646 116.571 68.0596 116.41 67.705 116.27C67.3583 116.122 66.983 115.969 66.579 115.812C66.019 115.59 65.5243 115.367 65.095 115.144C64.675 114.914 64.3203 114.658 64.0309 114.377C63.7509 114.089 63.5366 113.763 63.388 113.4C63.248 113.038 63.178 112.613 63.178 112.126C63.178 111.533 63.3139 111.009 63.5859 110.555C63.8579 110.093 64.2206 109.71 64.674 109.405C65.1273 109.092 65.643 108.857 66.221 108.699C66.8063 108.543 67.4083 108.464 68.027 108.464C69.1236 108.464 70.1049 108.654 70.971 109.034V111.087C70.039 110.477 68.9666 110.171 67.7539 110.171C67.3746 110.171 67.0326 110.217 66.7279 110.307C66.4226 110.39 66.1586 110.51 65.9359 110.667C65.7213 110.823 65.5523 111.013 65.429 111.235C65.3136 111.45 65.2559 111.689 65.2559 111.953C65.2559 112.283 65.3136 112.559 65.429 112.781C65.5523 113.004 65.7296 113.202 65.9609 113.375C66.1916 113.549 66.472 113.705 66.802 113.845C67.132 113.985 67.5073 114.138 67.928 114.303C68.488 114.517 68.9909 114.74 69.4369 114.971C69.8823 115.194 70.2616 115.45 70.5749 115.738C70.8883 116.018 71.1273 116.344 71.292 116.715C71.4653 117.086 71.552 117.527 71.552 118.038C71.552 118.665 71.412 119.209 71.132 119.671C70.8593 120.133 70.492 120.517 70.0299 120.821C69.5686 121.127 69.0369 121.354 68.4349 121.502C67.8329 121.651 67.202 121.725 66.542 121.725C65.2393 121.725 64.1093 121.474 63.152 120.97H63.153ZM80.5439 121.31C80.0659 121.574 79.4349 121.706 78.6509 121.706C76.4329 121.706 75.3239 120.469 75.3239 117.995V110.499H73.147V108.767H75.3239V105.675L77.3529 105.019V108.767H80.5439V110.499H77.3529V117.636C77.3529 118.486 77.4973 119.092 77.7859 119.455C78.074 119.818 78.5519 119.999 79.2199 119.999C79.7313 119.999 80.1726 119.859 80.5439 119.579V121.31ZM89.8589 110.82C89.5043 110.548 88.9929 110.412 88.3249 110.412C87.4589 110.412 86.7333 110.82 86.1479 111.636C85.5706 112.453 85.2819 113.566 85.2819 114.976V121.433H83.2539V108.767H85.2819V111.377H85.3319C85.6206 110.487 86.0616 109.794 86.6549 109.299C87.2483 108.796 87.9123 108.544 88.6469 108.544C89.1743 108.544 89.5783 108.602 89.8589 108.718V110.82ZM101.13 121.43H99.1009V119.45H99.0509C98.1689 120.968 96.8706 121.727 95.1559 121.727C93.8939 121.727 92.9039 121.393 92.1859 120.725C91.4773 120.057 91.1229 119.171 91.1229 118.065C91.1229 115.699 92.5163 114.322 95.3029 113.935L99.1009 113.402C99.1009 111.25 98.2309 110.174 96.4909 110.174C94.9656 110.174 93.5886 110.694 92.3599 111.732V109.654C93.6053 108.863 95.0403 108.467 96.6649 108.467C99.6416 108.467 101.13 110.042 101.13 113.192V121.43ZM99.1009 115.023L96.0459 115.443C95.1059 115.575 94.3966 115.81 93.9179 116.148C93.4399 116.478 93.2009 117.068 93.2009 117.917C93.2009 118.536 93.4196 119.043 93.8569 119.439C94.3023 119.826 94.8919 120.019 95.6259 120.019C96.6319 120.019 97.4606 119.669 98.1119 118.969C98.7719 118.26 99.1019 117.365 99.1019 116.284L99.1009 115.023ZM107.03 119.6H106.98V127.257H104.952V108.764H106.981V110.99H107.03C108.028 109.308 109.488 108.467 111.409 108.467C113.042 108.467 114.316 109.036 115.231 110.174C116.146 111.304 116.604 112.821 116.604 114.726C116.604 116.846 116.089 118.544 115.058 119.822C114.027 121.092 112.617 121.727 110.828 121.727C109.187 121.727 107.921 121.018 107.03 119.599V119.6ZM106.98 114.491V116.261C106.98 117.308 107.318 118.198 107.995 118.932C108.68 119.658 109.545 120.021 110.592 120.021C111.821 120.021 112.782 119.551 113.475 118.611C114.175 117.671 114.525 116.364 114.525 114.689C114.525 113.279 114.2 112.174 113.549 111.374C112.898 110.574 112.015 110.174 110.902 110.174C109.722 110.174 108.774 110.587 108.057 111.411C107.339 112.228 106.98 113.255 106.98 114.491Z" fill="#7952B3"/>
</svg>
