<svg width="128" height="129" viewBox="0 0 128 129" fill="none" xmlns="http://www.w3.org/2000/svg">
<path d="M14.9849 15.1498C14.7479 8.33478 20.0569 2.05078 27.2339 2.05078H100.774C107.951 2.05078 113.26 8.33478 113.023 15.1498C112.795 21.6958 113.091 30.1758 115.225 37.0898C117.366 44.0258 120.976 48.4088 126.889 48.9728V55.3598C120.976 55.9228 117.366 60.3068 115.225 67.2428C113.091 74.1568 112.795 82.6368 113.023 89.1828C113.26 95.9978 107.951 102.281 100.774 102.281H27.2339C20.0569 102.281 14.7479 95.9968 14.9849 89.1828C15.2129 82.6368 14.9169 74.1568 12.7819 67.2428C10.6419 60.3078 7.02189 55.9238 1.10889 55.3598V48.9728C7.02189 48.4098 10.6419 44.0258 12.7819 37.0898C14.9169 30.1758 15.2119 21.6958 14.9849 15.1498Z" fill="url(#paint0_linear_3_7492)"/>
<g filter="url(#filter0_d_3_7492)">
<path d="M67.1097 79.1744C78.7286 79.1744 85.7302 73.4854 85.7302 64.102C85.7302 57.009 80.7344 51.874 73.3165 51.0611V50.7656C78.7665 49.879 83.0432 44.8179 83.0432 39.1658C83.0432 31.1123 76.685 25.8662 66.9962 25.8662H45.1963V79.1744H67.1097ZM53.674 32.6268H64.9525C71.0837 32.6268 74.5654 35.3605 74.5654 40.3108C74.5654 45.5937 70.516 48.549 63.1737 48.549H53.674V32.6268ZM53.674 72.4139V54.8661H64.8766C72.9001 54.8661 77.0633 57.8214 77.0633 63.5846C77.0633 69.3475 73.0138 72.4139 65.3687 72.4139H53.674Z" fill="url(#paint1_linear_3_7492)"/>
<path d="M67.1097 79.1744C78.7286 79.1744 85.7302 73.4854 85.7302 64.102C85.7302 57.009 80.7344 51.874 73.3165 51.0611V50.7656C78.7665 49.879 83.0432 44.8179 83.0432 39.1658C83.0432 31.1123 76.685 25.8662 66.9962 25.8662H45.1963V79.1744H67.1097ZM53.674 32.6268H64.9525C71.0837 32.6268 74.5654 35.3605 74.5654 40.3108C74.5654 45.5937 70.516 48.549 63.1737 48.549H53.674V32.6268ZM53.674 72.4139V54.8661H64.8766C72.9001 54.8661 77.0633 57.8214 77.0633 63.5846C77.0633 69.3475 73.0138 72.4139 65.3687 72.4139H53.674Z" stroke="white" stroke-width="0.24566"/>
</g>
<path d="M11.3987 123.098V105.36H16.4455C17.9794 105.36 19.1957 105.735 20.0946 106.485C20.9934 107.236 21.4429 108.213 21.4429 109.417C21.4429 110.423 21.1707 111.297 20.6265 112.039C20.0822 112.781 19.3318 113.309 18.3752 113.623V113.672C19.5709 113.812 20.5275 114.266 21.245 115.033C21.9624 115.791 22.3211 116.781 22.3211 118.001C22.3211 119.519 21.7769 120.747 20.6883 121.688C19.5998 122.628 18.2268 123.098 16.5692 123.098H11.3987ZM13.4768 107.24V112.967H15.6044C16.7424 112.967 17.6371 112.695 18.2886 112.151C18.9401 111.598 19.2658 110.823 19.2658 109.825C19.2658 108.102 18.1319 107.24 15.8642 107.24H13.4768ZM13.4768 114.835V121.217H16.2971C17.5176 121.217 18.4618 120.929 19.1298 120.352C19.806 119.774 20.1441 118.983 20.1441 117.977C20.1441 115.882 18.7174 114.835 15.8642 114.835H13.4768ZM30.9427 123.395C29.0708 123.395 27.5741 122.805 26.4526 121.626C25.3393 120.438 24.7827 118.867 24.7827 116.913C24.7827 114.785 25.364 113.124 26.5268 111.928C27.6895 110.732 29.2605 110.134 31.2396 110.134C33.128 110.134 34.6 110.716 35.6556 111.878C36.7194 113.041 37.2513 114.653 37.2513 116.715C37.2513 118.735 36.6781 120.356 35.5319 121.576C34.3939 122.788 32.8642 123.395 30.9427 123.395ZM31.0912 111.841C29.7882 111.841 28.7574 112.287 27.9988 113.177C27.2401 114.06 26.8608 115.28 26.8608 116.839C26.8608 118.339 27.2442 119.523 28.0111 120.389C28.7781 121.255 29.8047 121.688 31.0912 121.688C32.4024 121.688 33.4084 121.263 34.1094 120.413C34.8186 119.564 35.1732 118.356 35.1732 116.789C35.1732 115.206 34.8186 113.985 34.1094 113.128C33.4084 112.27 32.4024 111.841 31.0912 111.841ZM45.7863 123.395C43.9144 123.395 42.4176 122.805 41.2961 121.626C40.1829 120.438 39.6262 118.867 39.6262 116.913C39.6262 114.785 40.2076 113.124 41.3703 111.928C42.5331 110.732 44.104 110.134 46.0832 110.134C47.9716 110.134 49.4436 110.716 50.4991 111.878C51.5629 113.041 52.0948 114.653 52.0948 116.715C52.0948 118.735 51.5217 120.356 50.3754 121.576C49.2374 122.788 47.7077 123.395 45.7863 123.395ZM45.9347 111.841C44.6318 111.841 43.601 112.287 42.8423 113.177C42.0837 114.06 41.7043 115.28 41.7043 116.839C41.7043 118.339 42.0878 119.523 42.8547 120.389C43.6216 121.255 44.6483 121.688 45.9347 121.688C47.2459 121.688 48.252 121.263 48.9529 120.413C49.6621 119.564 50.0167 118.356 50.0167 116.789C50.0167 115.206 49.6621 113.985 48.9529 113.128C48.252 112.27 47.2459 111.841 45.9347 111.841ZM61.2112 122.974C60.7329 123.238 60.1021 123.37 59.3187 123.37C57.1004 123.37 55.9912 122.133 55.9912 119.659V112.163H53.8142V110.431H55.9912V107.339L58.0199 106.683V110.431H61.2112V112.163H58.0199V119.3C58.0199 120.15 58.1642 120.756 58.4528 121.119C58.7414 121.481 59.2197 121.663 59.8877 121.663C60.399 121.663 60.8401 121.523 61.2112 121.242V122.974ZM63.1533 122.64V120.463C64.2583 121.279 65.4746 121.688 66.8023 121.688C68.5835 121.688 69.4741 121.094 69.4741 119.906C69.4741 119.568 69.3958 119.284 69.2391 119.053C69.0907 118.814 68.8845 118.603 68.6206 118.422C68.365 118.241 68.0599 118.08 67.7053 117.94C67.3589 117.791 66.9837 117.639 66.5796 117.482C66.0189 117.259 65.5241 117.037 65.0953 116.814C64.6747 116.583 64.3201 116.327 64.0315 116.047C63.7511 115.758 63.5367 115.433 63.3883 115.07C63.2481 114.707 63.178 114.282 63.178 113.796C63.178 113.202 63.3141 112.678 63.5862 112.225C63.8583 111.763 64.2212 111.379 64.6747 111.074C65.1283 110.761 65.6437 110.526 66.2209 110.369C66.8064 110.213 67.4084 110.134 68.0269 110.134C69.1237 110.134 70.105 110.324 70.9709 110.703V112.757C70.039 112.146 68.967 111.841 67.7548 111.841C67.3754 111.841 67.0332 111.887 66.7281 111.977C66.423 112.06 66.1591 112.179 65.9364 112.336C65.722 112.493 65.553 112.682 65.4293 112.905C65.3138 113.119 65.2561 113.359 65.2561 113.623C65.2561 113.952 65.3138 114.229 65.4293 114.451C65.553 114.674 65.7303 114.872 65.9612 115.045C66.1921 115.218 66.4724 115.375 66.8023 115.515C67.1322 115.655 67.5074 115.808 67.9279 115.973C68.4887 116.187 68.9917 116.41 69.437 116.641C69.8823 116.863 70.2617 117.119 70.575 117.408C70.8884 117.688 71.1275 118.014 71.2925 118.385C71.4656 118.756 71.5522 119.197 71.5522 119.708C71.5522 120.335 71.412 120.879 71.1317 121.341C70.8595 121.803 70.4926 122.186 70.0308 122.492C69.569 122.797 69.0371 123.023 68.4351 123.172C67.8331 123.32 67.2023 123.395 66.5425 123.395C65.2396 123.395 64.1098 123.143 63.1533 122.64ZM80.5573 122.974C80.079 123.238 79.4482 123.37 78.6648 123.37C76.4465 123.37 75.3373 122.133 75.3373 119.659V112.163H73.1603V110.431H75.3373V107.339L77.366 106.683V110.431H80.5573V112.163H77.366V119.3C77.366 120.15 77.5103 120.756 77.7989 121.119C78.0875 121.481 78.5658 121.663 79.2338 121.663C79.7451 121.663 80.1862 121.523 80.5573 121.242V122.974ZM89.8717 112.485C89.5171 112.212 89.0058 112.076 88.3378 112.076C87.472 112.076 86.7463 112.485 86.1608 113.301C85.5835 114.117 85.2949 115.231 85.2949 116.641V123.098H83.2663V110.431H85.2949V113.041H85.3444C85.633 112.151 86.0742 111.458 86.6679 110.963C87.2617 110.46 87.9255 110.209 88.6594 110.209C89.1872 110.209 89.5913 110.266 89.8717 110.382V112.485ZM101.14 123.098H99.1118V121.119H99.0623C98.1799 122.636 96.8811 123.395 95.1659 123.395C93.9042 123.395 92.9146 123.061 92.1972 122.393C91.488 121.725 91.1334 120.838 91.1334 119.733C91.1334 117.366 92.527 115.989 95.3143 115.602L99.1118 115.07C99.1118 112.917 98.2418 111.841 96.5018 111.841C94.9762 111.841 93.599 112.361 92.3703 113.4V111.322C93.6155 110.53 95.0504 110.134 96.675 110.134C99.6519 110.134 101.14 111.709 101.14 114.859V123.098ZM99.1118 116.69L96.0565 117.111C95.1164 117.243 94.4072 117.478 93.9289 117.816C93.4506 118.146 93.2115 118.735 93.2115 119.585C93.2115 120.203 93.43 120.71 93.8671 121.106C94.3124 121.494 94.902 121.688 95.6359 121.688C96.642 121.688 97.4707 121.337 98.1222 120.636C98.7819 119.927 99.1118 119.032 99.1118 117.952V116.69ZM107.041 121.267H106.991V128.924H104.963V110.431H106.991V112.658H107.041C108.039 110.975 109.498 110.134 111.42 110.134C113.052 110.134 114.326 110.703 115.242 111.841C116.157 112.971 116.615 114.488 116.615 116.393C116.615 118.513 116.099 120.211 115.069 121.49C114.038 122.76 112.628 123.395 110.838 123.395C109.197 123.395 107.931 122.685 107.041 121.267ZM106.991 116.158V117.927C106.991 118.974 107.329 119.865 108.006 120.599C108.69 121.325 109.556 121.688 110.603 121.688C111.832 121.688 112.793 121.217 113.485 120.277C114.186 119.337 114.537 118.03 114.537 116.356C114.537 114.946 114.211 113.841 113.559 113.041C112.908 112.241 112.026 111.841 110.912 111.841C109.733 111.841 108.785 112.254 108.067 113.078C107.35 113.895 106.991 114.921 106.991 116.158Z" fill="#7952B3"/>
<defs>
<filter id="filter0_d_3_7492" x="41.1427" y="22.7952" width="48.6409" height="61.4148" filterUnits="userSpaceOnUse" color-interpolation-filters="sRGB">
<feFlood flood-opacity="0" result="BackgroundImageFix"/>
<feColorMatrix in="SourceAlpha" type="matrix" values="0 0 0 0 0 0 0 0 0 0 0 0 0 0 0 0 0 0 127 0" result="hardAlpha"/>
<feOffset dy="0.98264"/>
<feGaussianBlur stdDeviation="1.96528"/>
<feColorMatrix type="matrix" values="0 0 0 0 0 0 0 0 0 0 0 0 0 0 0 0 0 0 0.15 0"/>
<feBlend mode="normal" in2="BackgroundImageFix" result="effect1_dropShadow_3_7492"/>
<feBlend mode="normal" in="SourceGraphic" in2="effect1_dropShadow_3_7492" result="shape"/>
</filter>
<linearGradient id="paint0_linear_3_7492" x1="19.7995" y1="4.70342" x2="129.708" y2="91.9501" gradientUnits="userSpaceOnUse">
<stop stop-color="#9013FE"/>
<stop offset="1" stop-color="#6610F2"/>
</linearGradient>
<linearGradient id="paint1_linear_3_7492" x1="49.0315" y1="29.3742" x2="73.5975" y2="70.9227" gradientUnits="userSpaceOnUse">
<stop stop-color="white"/>
<stop offset="1" stop-color="#F1E5FC"/>
</linearGradient>
</defs>
</svg>
