<svg width="128" height="128" viewBox="0 0 128 128" fill="none" xmlns="http://www.w3.org/2000/svg">
<path fill-rule="evenodd" clip-rule="evenodd" d="M21.199 114.812C21.678 114.402 22.075 113.897 22.392 113.298C22.707 112.699 22.866 112.109 22.866 111.527C22.866 111.279 22.845 111.029 22.803 110.777C22.761 110.525 22.674 110.242 22.546 109.931C22.4162 109.618 22.2504 109.32 22.052 109.045C21.8179 108.734 21.5415 108.458 21.231 108.223C20.8663 107.943 20.4674 107.71 20.044 107.531C19.599 107.338 19.054 106.741 18.408 106.621C17.762 106.5 17.05 106 16.271 106H9V125H15.771C16.789 125 17.723 124.98 18.575 124.826C19.426 124.672 20.141 124.502 20.724 124.259C21.305 124.015 21.818 123.737 22.263 123.394C22.707 123.052 23.06 122.714 23.322 122.367C23.583 122.021 23.795 121.659 23.958 121.275C24.102 120.948 24.2116 120.607 24.285 120.257C24.4043 119.634 24.3964 118.994 24.2618 118.374C24.1273 117.754 23.8688 117.168 23.502 116.651C22.9324 115.824 22.1312 115.185 21.199 114.812ZM12 109H15.541C16.31 109 16.96 109.374 17.491 109.52C18.02 109.666 18.408 110.012 18.652 110.26C18.896 110.509 19.063 110.825 19.159 111.061C19.253 111.297 19.3 111.587 19.3 111.862L19.287 112.163C19.167 113.317 17.942 114.067 16.163 114.393C15.427 114.52 14 114.615 12 114.658V109ZM20.896 120.489C20.7496 120.753 20.5541 120.986 20.32 121.177C20.0499 121.379 19.7481 121.535 19.427 121.638C19.0959 121.756 18.7575 121.853 18.414 121.927C18.0494 121.999 17.6807 122.048 17.31 122.075C16.883 122.109 16.546 122.059 16.303 122.064L15.424 122.001H12V116.853C15 116.759 15.403 116.712 15.469 116.712C17.122 116.712 18.569 116.964 19.54 117.47C20.51 117.974 21.064 118.667 21.064 119.548C21.064 119.897 21.055 120.211 20.896 120.489ZM43.319 107.78C41.874 107.053 40.221 106.69 38.366 106.69C36.493 106.69 34.829 107.068 33.376 107.825C31.9441 108.56 30.7577 109.697 29.962 111.096C29.141 112.521 28.731 114.169 28.731 116.042C28.731 117.547 28.995 118.899 29.52 120.097C30.045 121.294 30.755 122.267 31.65 123.016C32.5477 123.767 33.5763 124.345 34.684 124.722C35.814 125.112 37.007 125.306 38.263 125.306C40.172 125.306 41.861 124.908 43.331 124.113C44.7719 123.347 45.9616 122.182 46.758 120.758C47.571 119.317 47.977 117.664 47.977 115.799C47.977 113.961 47.562 112.345 46.732 110.955C45.9258 109.588 44.7401 108.485 43.319 107.78ZM44.114 118.879C43.746 119.718 43.259 120.38 42.651 120.868C41.4647 121.828 39.9832 122.349 38.457 122.343C36.625 122.343 35.099 121.744 33.875 120.547C32.652 119.35 32.041 117.762 32.041 115.786C32.041 114.957 32.16 114.198 32.399 113.509C32.638 112.821 32.96 112.241 33.362 111.77C33.7629 111.301 34.2371 110.9 34.766 110.583C35.2875 110.268 35.8517 110.031 36.441 109.877C37.0282 109.727 37.6319 109.651 38.238 109.652C38.854 109.652 39.459 109.728 40.052 109.877C40.648 110.027 41.224 110.268 41.784 110.602C42.344 110.936 42.837 111.342 43.26 111.821C43.685 112.3 44.024 112.901 44.281 113.623C44.538 114.346 44.666 115.144 44.666 116.016C44.666 117.087 44.482 118.041 44.114 118.879ZM71.701 120.012L67.363 106H64.387L59.113 120.012L54.918 106H51.505L57.522 125H60.614L65.772 111.053L70.161 125H73.253L80.246 106H76.833L71.701 120.012ZM84 125H97V122H87V117H96V114H87V110H97V106H84V125ZM113.066 117.436C113.736 117.24 114.368 116.929 114.932 116.518C115.459 116.132 115.874 115.735 116.177 115.248C116.474 114.784 116.699 114.277 116.845 113.746C116.988 113.207 117.06 112.652 117.057 112.095C117.057 111.42 116.975 110.815 116.813 110.272C116.65 109.729 116.444 109.282 116.191 108.927C115.938 108.572 115.622 108.261 115.241 107.996C114.899 107.752 114.528 107.55 114.137 107.394C113.742 107.247 113.334 107.137 112.919 107.068C112.46 106.987 112.071 106.495 111.75 106.474C111.43 106.453 111.077 106 110.692 106H103V125H106V118H109.257L114.363 125H118.571L113.066 117.436ZM111.72 114.806C111.3 114.913 110.895 114.948 110.501 114.984C110.106 115.017 109.654 115 109.141 115H106V110H109.744C112.37 110 113.683 110.775 113.683 112.476C113.683 112.93 113.594 113.286 113.418 113.619C113.262 113.919 113.033 114.175 112.752 114.364C112.483 114.552 112.139 114.698 111.72 114.806ZM107.465 69.194C109.399 68.13 110.71 66.567 110.298 64.092C112.277 63.921 114.099 63.431 115.637 62.196C116.883 61.196 117.421 59.893 117.844 58.359C117.944 58.0174 117.997 57.6638 118.001 57.308V54.287C118.001 53.828 117.943 53.373 117.834 52.908C117.341 50.793 116.31 49.224 114.346 48.211C110.672 46.315 106.775 45.295 102.786 44.385C94.337 42.455 85.799 41.237 77.198 40.228C76.202 40.112 75.222 39.978 74.228 39.854C74.56 37.078 75.548 36.151 78.883 35.459C79.229 36.258 79.545 37.094 79.956 37.878C80.107 38.168 80.488 38.53 80.769 38.535C85.743 38.605 90.441 37.75 94.251 34.199C97.229 31.423 98.549 27.819 99.28 23.937C99.545 22.525 99.8 21.11 100.009 19.69C100.662 15.272 102.97 11.738 105.913 8.537C106.058 8.381 106.185 8.211 106.398 7.954C104.058 7.228 101.748 7.148 99.465 7.564C90.728 9.164 84.141 13.76 80.047 21.745L79.906 21.896C78.417 21.52 76.917 21.181 75.449 20.738C75.179 20.657 74.97 20.176 74.85 19.839C72.449 13.024 68.3 7.715 61.534 4.838C59.519 3.98 57.267 3.725 55.127 3.16L54.81 3H48.333C46.911 3 45.485 3.467 44.07 3.762C27.132 7.308 13.89 20.583 10.79 37.681C7.478 55.943 12.49 71.994 24.518 85.958C26.3254 88.0683 28.5399 89.7923 31.029 91.027C35.678 93.331 40.722 91.665 43.099 87.033L43.297 86.702C44.315 89.36 45.406 91.935 46.282 94.584C47.136 97.16 50.216 98.336 52.096 98.213C52.45 98.189 52.886 98.434 53.141 98.241C54.824 96.965 56.152 99 57.615 99H59.991C61.668 98 63.261 97.62 64.358 96.111C64.492 95.925 65.087 95.915 65.463 95.955C67.61 96.178 69.605 95.695 71.408 94.49C72.916 93.482 73.862 92.074 74.057 90.251C75.965 89.692 77.149 88.237 77.212 85.993C77.247 84.777 77.137 83.408 76.616 82.343C75.029 79.095 73.211 75.956 71.481 72.777L71.34 72.469L71.677 72.6C74.217 73.839 76.89 74.391 79.716 74.154C81.517 74.006 82.597 73.427 83.502 72.043C85.733 73.619 88.241 74.364 90.974 74.171C93.694 73.979 96.249 73.397 97.715 70.685C99.647 70.685 101.629 70.864 103.558 70.623C104.906 70.456 106.259 69.859 107.465 69.194ZM51.315 32.687C50.5672 32.6896 49.8264 32.5435 49.1356 32.2572C48.4448 31.9709 47.8178 31.5502 47.2911 31.0194C46.7644 30.4887 46.3484 29.8585 46.0673 29.1656C45.7863 28.4726 45.6458 27.7307 45.654 26.983C45.683 23.826 48.254 21.261 51.363 21.284C54.522 21.311 57.009 23.841 57.007 27.028C57.004 30.209 54.506 32.693 51.315 32.687ZM68.662 37.258C67.94 35.531 67.379 33.723 67.636 31.751C67.503 28.785 68.53 26.184 70.264 23.855C70.49 23.552 71.228 23.509 71.714 23.543C77.262 23.931 82.087 26.177 86.516 29.403C87.436 30.073 88.311 30.806 89.099 31.667C87.365 31.294 85.637 30.887 83.894 30.559C81.272 30.063 78.675 30.162 76.207 31.264C73.541 32.455 70.756 32.413 67.943 32.219C69.474 33.594 71.328 33.519 73.154 33.243C74.7 33.012 76.213 32.562 77.805 32.195L77.891 33.098L68.662 37.258Z" fill="#EF5734"/>
</svg>
