<svg width="128" height="128" viewBox="0 0 128 128" fill="none" xmlns="http://www.w3.org/2000/svg">
<path d="M114.438 46.4439C113.308 45.9899 112.178 45.4739 110.998 45.2179C104.301 43.7689 97.61 42.2579 90.872 41.0279C85.944 40.1279 80.943 39.6249 75.976 38.9439C76.482 35.4859 76.943 35.0549 80.653 34.4799C82.545 37.7489 82.545 37.7489 86.45 37.2909C94.459 36.3529 99.58 31.7379 101.033 23.5219C102.109 17.4319 103.369 11.5479 107.981 6.99987C108.037 6.94587 107.944 6.74187 107.922 6.61287C99.442 4.00987 88.54 9.85687 81.751 20.7169C78.647 20.3049 76.668 19.3049 75.285 16.0419C71.582 7.29887 64.754 2.02987 55.049 1.67087C37.485 1.02187 21.512 11.2129 14.636 27.4289C7.815 43.5189 9.996 59.1849 17.73 74.3539C20.873 80.5189 24.886 86.0819 30.834 89.9119C35.929 93.1929 40.628 92.1529 44.04 87.1419C44.182 86.9339 44.442 86.8069 44.755 86.5549L46.277 90.5429C46.792 91.8929 47.255 93.2659 47.831 94.5889C49.004 97.2789 52.143 98.5649 54.872 97.6509C55.574 97.4159 56.478 97.3909 57.182 97.6129C60.222 98.5689 63.007 98.5969 65.445 96.1329C65.833 95.7399 66.656 95.6139 67.268 95.6349C71.452 95.7669 73.767 94.3939 75.564 90.6359C75.715 90.3179 75.947 89.9999 76.221 89.7829C79.024 87.5729 79.712 85.2719 78.304 82.0429C77.454 80.0959 76.393 78.2379 75.395 76.3579C74.678 75.0059 73.909 73.6849 72.959 71.9869C77.595 73.5169 81.732 75.0969 85.553 71.6169C86.339 72.0229 86.997 72.4109 87.693 72.7139C91.523 74.3809 96.639 73.8309 98.82 71.2719C99.722 70.2109 100.535 70.1369 101.743 70.2309C106.514 70.5959 112.09 69.0849 112.873 63.4149C117.943 62.3859 120.258 60.1419 120.674 55.8509C121.124 51.1899 119.277 48.3889 114.438 46.4439ZM84.892 34.4149C84.387 34.4239 83.677 33.5089 83.397 32.8719C83.022 32.0209 82.974 31.0259 82.628 29.3089L86.65 30.8649C88.486 29.5029 90.352 31.6039 93.002 31.8359C90.208 33.7659 87.602 34.3669 84.892 34.4149ZM101.956 9.30887L95.875 30.1689C93.376 28.0789 91.58 26.5769 89.362 24.7249L96.765 13.3049C92.651 15.8189 90.26 19.6759 88.001 23.9079L84.686 22.0589C87.148 15.4599 95.58 9.40587 101.956 9.30887ZM74.032 21.9909C79.635 22.3039 84.421 24.6819 88.781 28.0429C89.071 28.2669 89.118 28.8029 89.522 29.7979C84.436 28.0599 80.106 28.6749 75.777 30.3039C74.51 30.7819 72.969 30.5309 71.553 30.6139L71.577 31.2679L79.553 30.7759L79.626 31.3489C76.861 32.6179 74.096 33.8869 71.333 35.1569C69.187 32.2129 70.043 25.1049 72.303 22.7329C72.707 22.3079 73.463 21.9599 74.032 21.9909ZM86.543 50.6999L86.454 51.2959L112.363 56.3959C111.348 59.1449 109.278 59.9969 104.229 59.9089C104.036 64.6109 101.853 65.8569 94.75 65.3219C93.308 69.5949 89.473 70.5229 82.918 68.1459C79.41 71.9609 75.433 70.5829 71.333 68.9789C70.522 75.3189 67.593 80.2689 62.027 83.4239C56.853 86.3599 51.303 86.0369 45.778 84.8319C23.498 79.9749 10.676 58.2709 16.604 35.5629C21.042 18.5679 34.906 7.00987 51.985 6.06587C60.24 5.60887 67.58 9.90887 71.029 17.3509C71.359 18.0629 71.387 19.3699 70.95 19.9139C66.343 25.6489 66.259 31.7989 69.25 38.1459C69.938 39.6059 69.715 40.4619 68.839 41.5669C64.893 46.5419 59.618 49.4239 53.699 51.3219L52.899 51.5619C59.751 51.4179 66.312 50.3209 71.106 44.8849C72.364 43.4589 73.555 43.0769 75.243 43.3459C84.489 44.8209 93.744 46.2329 102.977 47.7729C105.354 48.1689 107.683 48.8889 110.001 49.5729C111.79 50.0999 113.003 51.2559 113.33 53.4609L86.543 50.6999ZM58.722 26.2939C58.718 23.1719 56.079 20.5999 52.988 20.7039C50.099 20.8009 47.449 23.6029 47.555 26.4499C47.666 29.4819 50.221 31.9209 53.237 31.8739C54.7018 31.8533 56.0994 31.2559 57.1263 30.2111C58.1532 29.1664 58.7266 27.7588 58.722 26.2939ZM49.857 23.7439C49.861 21.7709 51.783 21.5079 53.425 21.5819C54.892 21.6469 56.658 22.0119 56.566 23.7859C56.462 25.7909 54.531 25.8749 52.462 26.4699C51.543 25.5619 49.856 24.6509 49.857 23.7439ZM18.935 115.605C19.425 115.185 19.833 114.667 20.158 114.054C20.483 113.441 20.644 112.836 20.644 112.24C20.644 111.986 20.623 111.73 20.579 111.471C20.535 111.212 20.447 110.923 20.316 110.604C20.1832 110.283 20.0131 109.978 19.809 109.697C19.5692 109.378 19.2862 109.095 18.968 108.855C18.594 108.568 18.185 108.33 17.751 108.146C17.296 107.949 16.736 107.548 16.075 107.425C15.414 107.302 14.684 107 13.888 107H7V126H13.375C14.417 126 15.374 126.001 16.247 125.843C17.118 125.686 17.852 125.521 18.448 125.272C19.044 125.022 19.57 124.742 20.025 124.392C20.481 124.041 20.842 123.7 21.109 123.344C21.3716 122.999 21.5903 122.623 21.76 122.225C21.927 121.83 22.037 121.486 22.096 121.183C22.2178 120.545 22.2095 119.889 22.0715 119.255C21.9335 118.62 21.6687 118.02 21.293 117.491C20.71 116.644 19.8897 115.987 18.935 115.605ZM10 110H13.138C13.927 110 14.593 110.208 15.136 110.359C15.68 110.507 16.075 110.776 16.325 111.029C16.575 111.284 16.748 111.565 16.845 111.806C16.942 112.047 16.99 112.325 16.99 112.606L16.977 112.902C16.854 114.085 15.844 114.847 14.022 115.181C13.266 115.312 12.001 115.404 10.001 115.448V110H10ZM18.626 121.422C18.463 121.707 18.267 121.942 18.034 122.126C17.802 122.31 17.497 122.467 17.12 122.599C16.743 122.73 16.397 122.829 16.082 122.895C15.767 122.961 15.39 123.011 14.952 123.046C14.514 123.081 14.169 123.045 13.92 123.049L13.02 123H10V117.695C12 117.599 13.24 117.55 13.311 117.55C15.002 117.55 16.364 117.809 17.358 118.326C18.353 118.843 18.86 119.553 18.86 120.455C18.859 120.815 18.787 121.138 18.626 121.422ZM41.597 108.402C40.116 107.657 38.424 107.285 36.523 107.285C34.604 107.285 32.899 107.673 31.41 108.448C29.9433 109.202 28.7281 110.366 27.913 111.8C27.072 113.26 26.651 114.948 26.651 116.867C26.651 118.409 26.921 119.794 27.46 121.021C27.998 122.248 28.726 123.245 29.642 124.011C30.558 124.777 31.594 125.361 32.751 125.759C33.907 126.158 35.13 126.358 36.418 126.358C38.372 126.358 40.103 125.95 41.61 125.135C43.0862 124.35 44.3048 123.156 45.12 121.697C45.952 120.22 46.368 118.527 46.368 116.617C46.368 114.733 45.943 113.079 45.094 111.654C44.2673 110.255 43.0526 109.125 41.597 108.402ZM42.411 119.772C42.034 120.631 41.535 121.31 40.912 121.81C40.3051 122.301 39.618 122.683 38.881 122.94C38.1522 123.194 37.3857 123.322 36.614 123.321C34.739 123.321 33.175 122.708 31.922 121.481C30.668 120.254 30.042 118.628 30.042 116.604C30.042 115.754 30.164 114.977 30.41 114.271C30.655 113.566 30.983 112.972 31.395 112.49C31.8059 112.01 32.2919 111.599 32.834 111.274C33.3682 110.951 33.9462 110.708 34.55 110.551C35.146 110.398 35.759 110.321 36.39 110.321C37.021 110.321 37.641 110.398 38.25 110.551C38.858 110.704 39.45 110.951 40.024 111.293C40.597 111.635 41.102 112.051 41.536 112.542C41.97 113.033 42.318 113.648 42.581 114.389C42.844 115.13 42.976 115.947 42.976 116.84C42.977 117.937 42.788 118.914 42.411 119.772ZM70.672 121.354L66.229 107H63.18L57.777 121.354L53.479 107H49.982L56.147 126H59.315L64.6 111.712L69.095 126H72.263L79.427 107H75.931L70.672 121.354ZM84 126H97V123H87V118H96V115H87V111H97V107H84V126ZM114.963 117.458C115.471 117.093 115.904 116.633 116.238 116.104C116.549 115.604 116.777 115.079 116.922 114.54C117.069 113.984 117.142 113.41 117.139 112.835C117.139 112.144 117.055 111.518 116.889 110.961C116.723 110.404 116.51 109.943 116.252 109.58C115.985 109.208 115.656 108.885 115.278 108.626C114.927 108.376 114.548 108.168 114.148 108.008C113.784 107.868 113.368 107.756 112.899 107.673C112.43 107.59 112.032 107.297 111.703 107.275C111.375 107.254 111.014 107 110.619 107H103V126H106V119H109.146L114.378 126H118.689L113.05 118.272C113.787 118.054 114.425 117.852 114.963 117.458ZM111.67 115.6C111.241 115.709 110.825 115.847 110.422 115.883C110.019 115.917 109.554 116.001 109.028 116.001H106V111.001H109.646C112.335 111.001 113.681 111.633 113.681 113.376C113.681 113.841 113.591 114.124 113.411 114.465C113.231 114.806 113.004 114.995 112.727 115.187C112.452 115.379 112.1 115.489 111.67 115.6Z" fill="#EF5734"/>
</svg>
