<svg width="128" height="128" viewBox="0 0 128 128" fill="none" xmlns="http://www.w3.org/2000/svg">
<path d="M118.852 60.078C117.58 59.566 116.307 58.986 114.978 58.698C107.436 57.065 99.9042 55.365 92.3172 53.979C86.7672 52.965 81.1362 52.398 75.5442 51.632C76.1142 47.738 76.6332 47.253 80.8102 46.606C82.9412 50.287 82.9412 50.287 87.3382 49.771C96.3562 48.713 102.122 43.519 103.757 34.267C104.971 27.41 106.388 20.785 111.581 15.663C111.644 15.602 111.54 15.373 111.516 15.227C101.967 12.296 89.6912 18.88 82.0462 31.108C78.5502 30.644 76.3222 29.518 74.7662 25.844C70.5962 15.998 62.9082 10.067 51.9802 9.66197C32.2002 8.92997 14.2152 20.407 6.47316 38.667C-1.20784 56.783 1.24916 74.424 9.95616 91.504C13.4952 98.445 18.0152 104.709 24.7132 109.023C30.4492 112.717 35.7412 111.546 39.5832 105.904C39.7412 105.67 40.0362 105.526 40.3882 105.244L42.1022 109.734C42.6822 111.254 43.2042 112.799 43.8522 114.289C45.1712 117.319 48.7062 118.767 51.7802 117.737C52.5702 117.472 53.5892 117.445 54.3812 117.694C57.8042 118.77 60.9412 118.802 63.6852 116.026C64.1222 115.585 65.0482 115.443 65.7382 115.465C70.4502 115.614 73.0562 114.069 75.0792 109.837C75.2512 109.479 75.5112 109.121 75.8202 108.877C78.9762 106.389 79.7522 103.797 78.1652 100.161C77.2082 97.968 76.0142 95.877 74.8902 93.76C74.0822 92.239 73.2162 90.75 72.1472 88.839C77.3672 90.562 82.0272 92.34 86.3292 88.422C87.2142 88.879 87.9552 89.316 88.7382 89.656C93.0512 91.533 98.8112 90.914 101.266 88.032C102.283 86.838 103.198 86.755 104.557 86.859C109.929 87.271 116.207 85.57 117.09 79.184C122.799 78.026 125.405 75.497 125.873 70.666C126.379 65.421 124.3 62.267 118.852 60.078ZM85.5812 46.533C85.0132 46.543 84.2142 45.512 83.8982 44.796C83.4752 43.837 83.4212 42.717 83.0332 40.784L87.5622 42.535C89.6292 41.002 91.7302 43.368 94.7122 43.629C91.5672 45.8 88.6332 46.479 85.5812 46.533ZM104.796 18.262L97.9482 41.751C95.1352 39.397 93.1122 37.706 90.6162 35.62L98.9512 22.762C94.3182 25.591 91.6272 29.935 89.0832 34.7L85.3512 32.618C88.1232 25.189 97.6172 18.372 104.796 18.262ZM73.3542 32.543C79.6622 32.894 85.0522 35.573 89.9622 39.357C90.2882 39.608 90.3402 40.212 90.7962 41.333C85.0692 39.376 80.1922 40.068 75.3182 41.903C73.8922 42.44 72.1572 42.157 70.5632 42.251L70.5902 42.987L79.5692 42.433L79.6522 43.078L70.3142 47.367C67.8972 44.052 68.8612 36.048 71.4062 33.377C71.8612 32.899 72.7122 32.507 73.3542 32.543ZM87.4402 64.87L87.3402 65.541L116.514 71.282C115.371 74.378 113.04 75.337 107.356 75.238C107.138 80.533 104.68 81.936 96.6822 81.333C95.0592 86.146 90.7412 87.19 83.3602 84.513C79.4102 88.81 74.9312 87.257 70.3152 85.452C69.4022 92.59 66.1032 98.164 59.8372 101.717C54.0102 105.023 47.7622 104.66 41.5402 103.303C16.4522 97.833 2.01616 73.396 8.69016 47.826C13.6852 28.689 29.2952 15.674 48.5282 14.611C57.8222 14.097 66.0882 18.938 69.9712 27.317C70.3432 28.119 70.3742 29.59 69.8812 30.204C64.6932 36.663 64.5992 43.587 67.9672 50.734C68.7412 52.378 68.4902 53.342 67.5042 54.587C63.0622 60.189 57.1212 63.434 50.4572 65.57L49.5562 65.841C57.2722 65.679 64.6602 64.444 70.0572 58.323C71.4742 56.718 72.8152 56.288 74.7162 56.59C85.1262 58.25 95.5472 59.84 105.945 61.575C108.621 62.021 111.245 62.831 113.855 63.6C115.869 64.194 117.234 65.496 117.603 67.978L87.4402 64.87ZM56.1142 37.387C56.1092 33.872 53.1382 30.976 49.6572 31.093C46.4052 31.202 43.4202 34.358 43.5392 37.564C43.6652 40.978 46.5412 43.723 49.9362 43.671C51.5858 43.6478 53.1598 42.975 54.3164 41.7985C55.4731 40.622 56.1191 39.0368 56.1142 37.387ZM46.1332 34.516C46.1382 32.295 48.3022 31.998 50.1512 32.082C51.8032 32.156 53.7922 32.565 53.6882 34.563C53.5702 36.821 51.3962 36.916 49.0672 37.584C48.0302 36.563 46.1322 35.538 46.1332 34.516Z" fill="#EF5734"/>
</svg>
