<svg width="128" height="128" viewBox="0 0 128 128" fill="none" xmlns="http://www.w3.org/2000/svg">
<path fill-rule="evenodd" clip-rule="evenodd" d="M124.797 65.6361C124.238 63.2401 123.063 61.466 120.841 60.32C116.68 58.173 112.264 57.018 107.75 55.987C98.184 53.801 88.515 52.423 78.777 51.281C77.65 51.149 76.54 50.999 75.414 50.857C75.79 47.714 76.909 46.6651 80.685 45.882C81.076 46.787 81.4341 47.733 81.899 48.621C82.071 48.949 82.502 49.359 82.818 49.364C88.45 49.443 93.769 48.4761 98.083 44.4561C101.454 41.312 102.95 37.2321 103.776 32.8371C104.076 31.2391 104.364 29.638 104.601 28.029C105.34 23.027 107.954 19.027 111.286 15.403C111.449 15.226 111.594 15.034 111.835 14.742C109.186 13.92 106.57 13.829 103.986 14.302C94.094 16.112 86.637 21.317 82.004 30.357L81.844 30.5271C80.1581 30.101 78.46 29.717 76.798 29.216C76.494 29.1241 76.2551 28.58 76.12 28.198C73.402 20.483 68.704 14.473 61.045 11.215C58.764 10.243 56.215 10.389 53.791 9.75005C53.659 9.71505 53.55 10 53.431 10H46.099C44.49 10 42.874 10.096 41.273 10.432C22.097 14.445 7.10504 29.256 3.59604 48.614C-0.152957 69.289 5.52004 87.3521 19.137 103.162C21.184 105.539 23.656 107.433 26.507 108.847C31.771 111.455 37.482 109.542 40.173 104.298L40.398 103.909C41.549 106.918 42.786 109.828 43.778 112.826C44.744 115.743 48.231 117.072 50.36 116.931C50.761 116.905 51.255 117.269 51.542 117.051C53.449 115.606 54.952 118 56.609 118H59.297C61.195 117 62.998 116.347 64.24 114.639C64.392 114.428 65.067 114.37 65.492 114.414C67.924 114.667 70.18 114.1 72.222 112.735C73.93 111.592 75.001 109.989 75.221 107.924C77.382 107.292 78.722 105.638 78.794 103.097C78.834 101.72 78.71 100.167 78.12 98.962C76.3231 95.284 74.264 91.73 72.307 88.13L72.147 87.782L72.53 87.932C75.406 89.333 78.43 89.956 81.63 89.69C83.669 89.521 84.892 88.8671 85.918 87.299C88.443 89.082 91.282 89.927 94.376 89.708C97.455 89.491 100.349 88.832 102.007 85.762C104.195 85.762 106.439 85.965 108.622 85.693C110.144 85.504 111.676 84.827 113.043 84.074C115.232 82.869 116.717 81.1001 116.249 78.299C118.491 78.105 120.553 77.551 122.294 76.153C123.703 75.021 124.329 73.546 124.807 71.807C124.918 71.4 125 71.0141 125 70.6191V67.198C125 66.677 124.92 66.1641 124.797 65.6361ZM49.475 42.744C48.6286 42.747 47.7899 42.5817 47.0079 42.2576C46.2259 41.9336 45.5162 41.4573 44.9199 40.8564C44.3236 40.2556 43.8528 39.5422 43.5347 38.7578C43.2166 37.9733 43.0576 37.1335 43.067 36.287C43.099 32.712 46.009 29.808 49.53 29.835C53.106 29.864 55.922 32.7301 55.919 36.3371C55.914 39.9391 53.088 42.751 49.475 42.744ZM69.113 47.919C68.296 45.963 67.661 43.9181 67.952 41.6851C67.801 38.3261 68.9641 35.382 70.926 32.746C71.182 32.404 72.018 32.3541 72.569 32.3931C78.85 32.8321 84.313 35.375 89.327 39.0271C90.368 39.7861 91.359 40.615 92.251 41.59C90.287 41.1691 88.331 40.708 86.358 40.335C83.389 39.773 80.45 39.886 77.655 41.134C74.636 42.482 71.485 42.4351 68.3 42.2141C70.035 43.772 72.133 43.6861 74.201 43.3741C75.95 43.112 77.662 42.604 79.466 42.187L79.563 43.209L69.113 47.919Z" fill="#EF5734"/>
</svg>
