<svg width="128" height="128" viewBox="0 0 128 128" fill="none" xmlns="http://www.w3.org/2000/svg">
<path d="M20.033 115.859C20.523 115.438 20.93 114.921 21.256 114.307C21.579 113.694 21.741 113.089 21.741 112.494C21.741 112.239 21.72 111.983 21.676 111.724C21.6201 111.426 21.5319 111.135 21.413 110.857C21.2802 110.536 21.1104 110.231 20.907 109.95C20.6671 109.631 20.3836 109.348 20.065 109.109C19.711 108.833 19.304 108.596 18.849 108.399C18.394 108.202 17.834 108.176 17.173 108.053C16.512 107.93 15.782 108 14.985 108H8V126H14.473C15.516 126 16.473 126.128 17.345 125.97C18.217 125.813 18.95 125.712 19.547 125.462C20.143 125.214 20.668 124.964 21.124 124.613C21.579 124.263 21.94 123.938 22.208 123.582C22.476 123.228 22.692 122.866 22.858 122.471C23.025 122.076 23.136 121.734 23.194 121.431C23.3154 120.793 23.307 120.138 23.1692 119.504C23.0314 118.871 22.767 118.271 22.392 117.742C21.8088 116.895 20.988 116.24 20.033 115.859ZM11 111H14.236C15.024 111 15.69 110.836 16.234 110.984C16.777 111.132 17.173 111.215 17.422 111.469C17.673 111.724 17.846 111.911 17.943 112.152C18.039 112.392 18.088 112.623 18.088 112.904L18.074 113.178C17.951 114.362 16.891 115.111 15.069 115.444C14.315 115.575 13 115.656 11 115.7V111ZM19.724 121.674C19.562 121.959 19.365 122.194 19.133 122.378C18.901 122.562 18.596 122.719 18.219 122.851C17.842 122.983 17.496 123.081 17.181 123.147C16.8078 123.22 16.4304 123.271 16.051 123.298C15.613 123.333 15.268 123.171 15.019 123.175C14.769 123.179 14.468 122.999 14.118 122.999H11V117.948C13 117.851 14.29 117.803 14.36 117.803C16.051 117.803 17.438 118.061 18.432 118.578C19.427 119.095 19.946 119.805 19.946 120.707C19.945 121.068 19.886 121.39 19.724 121.674ZM42.694 108.655C41.213 107.91 39.522 107.538 37.62 107.538C35.701 107.538 33.997 107.926 32.508 108.701C31.018 109.477 29.853 110.595 29.011 112.054C28.169 113.513 27.749 115.201 27.749 117.121C27.749 118.663 28.019 120.048 28.558 121.274C29.096 122.501 29.824 123.498 30.74 124.264C31.6593 125.033 32.7131 125.626 33.848 126.012C35.005 126.411 36.228 126.611 37.515 126.611C39.47 126.611 41.201 126.204 42.708 125.388C44.1843 124.603 45.4028 123.41 46.217 121.95C47.05 120.473 47.466 118.78 47.466 116.87C47.466 114.986 47.041 113.332 46.191 111.908C45.3654 110.507 44.1504 109.377 42.694 108.655ZM43.509 120.025C43.132 120.884 42.633 121.563 42.011 122.063C40.7934 123.043 39.2764 123.577 37.713 123.575C35.837 123.575 34.274 122.962 33.02 121.734C31.767 120.507 31.141 118.881 31.141 116.858C31.141 116.007 31.263 115.23 31.509 114.524C31.754 113.819 32.082 113.225 32.494 112.743C32.9048 112.263 33.3904 111.852 33.932 111.527C34.481 111.199 35.052 110.958 35.648 110.804C36.244 110.65 36.858 110.574 37.489 110.574C38.12 110.574 38.74 110.651 39.348 110.804C39.957 110.957 40.548 111.205 41.123 111.547C41.6885 111.882 42.1986 112.303 42.635 112.795C43.069 113.286 43.416 113.901 43.679 114.643C43.943 115.383 44.075 116.2 44.075 117.094C44.075 118.189 43.886 119.167 43.509 120.025ZM71.771 122.354L67.327 108H64.277L58.875 122.354L54.577 108H51.081L57.245 126H60.414L65.697 111.712L70.193 126H73.36L80.524 108H77.028L71.771 122.354ZM85 126H98V123H88V118H97V115H88V111H98V108H85V126ZM116.062 117.71C116.57 117.344 117.002 116.885 117.336 116.356C117.648 115.856 117.875 115.332 118.02 114.793C118.165 114.254 118.238 113.684 118.238 113.087C118.238 112.396 118.154 111.77 117.988 111.213C117.821 110.656 117.609 110.195 117.35 109.832C117.091 109.469 116.767 109.15 116.377 108.878C116.026 108.627 115.646 108.42 115.246 108.261C114.842 108.109 114.424 107.997 113.998 107.925C113.528 107.842 113.13 107.924 112.802 107.9C112.473 107.879 112.112 108 111.717 108H104V126H107V119H110.245L115.476 126H119.788L114.149 118.398C114.885 118.18 115.522 118.105 116.062 117.71ZM112.769 115.852C112.339 115.961 111.923 115.973 111.521 116.008C111.117 116.043 110.653 116 110.127 116H107V111H110.745C113.434 111 114.78 111.758 114.78 113.502C114.78 113.967 114.689 114.311 114.51 114.654C114.33 114.995 114.103 115.215 113.826 115.407C113.549 115.599 113.198 115.743 112.769 115.852ZM48.079 1.38867H54.642C54.749 1.46067 54.847 1.56767 54.964 1.59867C57.134 2.17067 59.415 2.47667 61.457 3.34567C68.312 6.26167 72.517 11.6407 74.949 18.5457C75.07 18.8877 75.284 19.3737 75.555 19.4567C77.043 19.9047 78.563 20.2487 80.072 20.6297L80.216 20.4777C84.363 12.3867 91.037 7.72867 99.89 6.10867C102.203 5.68567 104.544 5.76767 106.915 6.50367L106.424 7.09567C103.442 10.3387 101.103 13.9187 100.442 18.3967C100.223 19.8356 99.9766 21.2702 99.703 22.6997C98.964 26.6337 97.626 30.2857 94.608 33.0977C90.748 36.6967 85.988 37.5617 80.947 37.4917C80.664 37.4877 80.28 37.1207 80.126 36.8267C79.71 36.0317 79.394 35.1837 79.044 34.3757C75.664 35.0747 74.671 36.0157 74.334 38.8277C75.342 38.9537 76.349 39.0887 77.358 39.2067C86.074 40.2277 94.756 41.4627 103.318 43.4187C107.359 44.3417 111.371 45.3747 115.095 47.2967C117.083 48.3227 118.253 49.9117 118.753 52.0547C118.863 52.5277 119.031 52.9877 119.172 53.4517V56.5147C119.033 56.8687 118.862 57.2137 118.762 57.5777C118.334 59.1347 117.537 60.4537 116.276 61.4677C114.717 62.7197 112.873 63.2147 110.867 63.3897C111.285 65.8967 109.956 67.4807 107.996 68.5587C106.773 69.2317 105.403 69.8377 104.041 70.0067C102.086 70.2507 100.077 70.0697 98.119 70.0697C96.635 72.8177 94.045 73.4077 91.289 73.6017C88.52 73.7967 85.979 73.0407 83.719 71.4457C82.801 72.8477 81.706 73.4327 79.882 73.5847C77.019 73.8227 74.312 73.2657 71.737 72.0117L71.394 71.8747L71.538 72.1857C73.29 75.4077 75.133 78.5837 76.741 81.8747C77.268 82.9527 77.38 84.3337 77.345 85.5657C77.281 87.8387 76.08 89.2997 74.147 89.8667C73.951 91.7147 72.991 93.1097 71.462 94.1327C69.635 95.3547 67.615 95.7827 65.438 95.5577C65.058 95.5177 64.455 95.4117 64.318 95.6007C63.207 97.1287 61.593 97.7707 59.893 98.2967H57.487C56.005 97.9147 54.659 96.4657 52.953 97.7587C52.695 97.9537 52.255 97.9397 51.894 97.9627C49.989 98.0887 46.868 96.8967 46.003 94.2847C45.115 91.6007 44.009 88.9897 42.979 86.2977L42.777 86.6327C40.369 91.3257 35.257 93.0117 30.547 90.6767C28.025 89.4226 25.7814 87.6735 23.95 85.5337C11.761 71.3817 6.684 55.1057 10.039 36.6017C13.18 19.2757 26.598 5.80167 43.76 2.20867C45.193 1.90967 46.639 1.66167 48.079 1.38867ZM68.861 30.2657C71.526 30.4507 74.164 30.4907 76.689 29.3627C79.027 28.3177 81.487 28.2237 83.971 28.6937C85.622 29.0067 87.259 29.3917 88.902 29.7447C88.156 28.9297 87.327 28.2347 86.456 27.5997C82.261 24.5437 77.689 22.4157 72.434 22.0477C71.973 22.0157 71.273 22.0567 71.059 22.3437C69.417 24.5497 68.444 27.0127 68.571 29.8237C68.327 31.6917 68.859 33.4037 69.543 35.0407L78.286 31.0997L78.205 30.2437C76.695 30.5937 75.263 31.0177 73.799 31.2377C72.067 31.4987 70.313 31.5697 68.861 30.2657ZM95.733 12.9457L95.891 13.1157C92.423 16.4877 90.071 20.6087 87.939 24.8207L93.666 29.6667C95.364 27.4277 96.062 24.8777 96.654 22.2777C97.695 17.7107 97.915 12.8537 101.408 9.10167C94.859 8.82367 85.106 15.6647 82.973 21.9637L86.342 23.8297C86.526 23.4857 86.674 23.1607 86.863 22.8617C87.951 21.1417 88.949 19.3537 90.168 17.7307C91.657 15.7487 93.404 13.9887 95.733 12.9457ZM83.554 50.4197C85.573 50.6197 87.592 50.8157 89.61 51.0217C95.966 51.6677 102.322 52.3197 108.678 52.9667C109.589 53.0607 110.501 53.1427 111.598 53.2477C111.078 51.6117 110.398 50.3987 108.924 49.8947C107.553 49.4267 106.138 49.0827 104.743 48.6847C99.218 47.5817 93.718 46.3217 88.16 45.4197C82.743 44.5407 77.266 44.0227 71.813 43.3757C71.476 43.3357 71.003 43.4597 70.771 43.6887C69.737 44.7067 68.767 45.7907 67.774 46.8507C62.259 50.8547 55.921 51.9137 49.31 51.9967C50.976 51.4037 52.685 50.9307 54.335 50.3037C59.606 48.3027 64.252 45.4227 67.602 40.7337C68.107 40.0277 68.203 39.4977 67.752 38.6877C66.2056 35.9417 65.418 32.8337 65.47 29.6827C65.527 25.8697 66.837 22.4867 69.443 19.6557C69.892 19.1687 69.98 18.7327 69.698 18.1017C67.921 14.1237 65.221 10.9677 61.477 8.72367C56.881 5.96967 51.865 5.73367 46.767 6.49167C35.321 8.19367 26.484 14.0627 20.291 23.7717C14.597 32.6977 12.766 42.5287 14.248 52.9687C14.703 56.1747 15.514 59.3167 17.008 62.2337C17.336 62.9987 17.604 63.7967 18.003 64.5227C24.972 77.1767 35.622 84.1927 50.063 85.2687C58.554 85.9017 65.878 81.0477 68.518 73.1767C69.119 71.3867 69.734 69.5717 68.802 67.6897C70.689 69.3437 72.943 70.0137 75.395 70.2487C77.874 70.4857 79.908 69.6097 80.98 67.6727C81.269 67.7757 81.579 67.8607 81.869 67.9907C83.877 68.8927 85.98 69.1747 88.161 69.0017C90.983 68.7777 92.307 67.5367 92.595 64.8697C93.997 65.0007 95.403 65.2717 96.799 65.2327C100.837 65.1177 102.772 62.8577 101.903 59.6027C103.492 59.5267 105.126 59.5737 106.718 59.3367C108.368 59.0927 109.702 58.1887 110.787 56.5397L95.368 53.4997L79.955 50.5457L79.976 50.4197H83.554ZM80.995 29.6187C81.384 31.1607 81.707 32.4037 82.006 33.6527C82.164 34.3097 82.566 34.4777 83.201 34.4237C85.646 34.2197 88.005 33.7087 90.195 32.5617C90.494 32.4047 90.775 32.2127 91.359 31.8587L85.329 30.2477L84.535 31.7077L84.357 31.6647V30.0847L80.995 29.6187Z" fill="#543828"/>
<path fill-rule="evenodd" clip-rule="evenodd" d="M17.009 62.2339C15.515 59.3169 14.704 56.1749 14.249 52.9689C12.767 42.5289 14.598 32.6979 20.292 23.7719C26.484 14.0629 35.321 8.19392 46.768 6.49192C51.866 5.73392 56.882 5.97092 61.478 8.72392C65.222 10.9679 67.921 14.1239 69.699 18.1019C69.981 18.7329 69.893 19.1679 69.444 19.6559C66.839 22.4869 65.528 25.8699 65.471 29.6829C65.4195 32.8339 66.2071 35.9418 67.753 38.6879C68.203 39.4979 68.107 40.0279 67.603 40.7339C64.253 45.4229 59.607 48.3029 54.336 50.3039C52.686 50.9309 50.977 51.4049 49.311 51.9969C55.922 51.9139 62.26 50.8549 67.775 46.8509C66.612 48.8159 65.63 50.9179 64.256 52.7219C57.681 61.3539 48.782 65.3809 37.579 62.2359C36.438 61.9159 35.461 61.7749 34.472 62.6199C34.052 62.9779 33.431 63.1369 32.875 63.2959C27.461 64.8469 22.167 64.5299 17.009 62.2339ZM51.528 16.6769C46.112 16.6849 41.946 20.8939 41.953 26.3499C41.96 31.5919 46.349 35.9529 51.595 35.9269C56.896 35.9009 61.195 31.5289 61.186 26.1709C61.177 20.8779 56.895 16.6689 51.528 16.6769Z" fill="#E95927"/>
<path fill-rule="evenodd" clip-rule="evenodd" d="M17.0088 62.2336C22.1668 64.5296 27.4608 64.8466 32.8748 63.2966C33.4308 63.1376 34.0518 62.9796 34.4718 62.6206C35.4608 61.7756 36.4388 61.9166 37.5788 62.2366C48.7818 65.3826 57.6808 61.3546 64.2558 52.7226C65.6298 50.9186 66.6108 48.8166 67.7748 46.8516C68.7678 45.7906 69.7378 44.7066 70.7718 43.6896C71.0038 43.4606 71.4768 43.3366 71.8138 43.3766C77.2668 44.0226 82.7438 44.5416 88.1608 45.4206C93.7188 46.3216 99.2188 47.5826 104.743 48.6856C104.535 48.7406 104.331 48.8306 104.12 48.8456C97.2658 49.3746 90.4098 49.8966 83.5548 50.4196H79.9778L79.9568 50.5456L95.3698 53.4996C95.1738 54.1286 95.1658 54.9706 94.7438 55.3436C93.8958 56.0906 92.8888 56.8516 91.8258 57.1076C90.5768 57.4096 89.1998 57.1816 87.8788 57.1826L87.8408 57.1116L87.8998 57.1686C88.1208 58.5016 87.9428 59.7516 86.8368 60.6336C86.0798 61.2376 85.2468 61.8056 84.3578 62.1646C82.0448 63.0966 79.7168 63.1146 77.4888 61.7966C76.9088 64.2146 75.0418 64.8436 73.0638 65.1966C71.0428 65.5576 69.1108 65.2166 67.4318 63.8416L67.2258 64.0516L68.8048 67.6906C69.7368 69.5726 69.1208 71.3876 68.5208 73.1776C65.8808 81.0486 58.5568 85.9026 50.0658 85.2696C35.6258 84.1936 24.9748 77.1776 18.0058 64.5236C17.6038 63.7966 17.3368 62.9986 17.0088 62.2336ZM67.2298 63.5866L67.1848 63.6536L67.2508 63.6646L67.2298 63.5866Z" fill="#FBCD00"/>
<path fill-rule="evenodd" clip-rule="evenodd" d="M87.8761 57.183C89.1981 57.182 90.5751 57.41 91.8241 57.108C92.8871 56.852 93.8941 56.091 94.7421 55.344C95.1641 54.971 95.1721 54.129 95.3681 53.5L110.787 56.54C109.702 58.188 108.368 59.093 106.718 59.337C105.125 59.573 103.491 59.526 101.903 59.603C102.772 62.858 100.838 65.118 96.7991 65.233C95.4031 65.272 93.9971 65.001 92.5951 64.87C92.3081 67.537 90.9841 68.778 88.1611 69.002C85.9801 69.175 83.8771 68.894 81.8691 67.991C81.5791 67.86 81.2691 67.775 80.9801 67.673C79.9081 69.611 77.8741 70.486 75.3951 70.249C72.9431 70.015 70.6891 69.345 68.8021 67.69L67.2231 64.051L67.4291 63.841C69.1081 65.216 71.0401 65.558 73.0611 65.196C75.0391 64.842 76.9061 64.214 77.4861 61.796C79.7151 63.114 82.0431 63.096 84.3551 62.164C85.2451 61.805 86.0781 61.236 86.8341 60.633C87.9391 59.751 88.1171 58.501 87.8971 57.168L87.8761 57.183Z" fill="#3DAF00"/>
<path fill-rule="evenodd" clip-rule="evenodd" d="M95.7331 12.946C93.4041 13.989 91.6571 15.749 90.1691 17.732C88.9501 19.355 87.9521 21.143 86.8641 22.863C86.6751 23.162 86.5261 23.487 86.3431 23.831L82.9741 21.965C85.1071 15.666 94.8601 8.82398 101.409 9.10298C97.9161 12.855 97.6961 17.711 96.6551 22.279C96.0631 24.879 95.3651 27.428 93.6671 29.668L87.9401 24.822C90.0721 20.61 92.4241 16.489 95.8921 13.117L96.0691 12.822L95.7331 12.946Z" fill="#25A7F0"/>
<path fill-rule="evenodd" clip-rule="evenodd" d="M68.5702 29.8252C68.4432 27.0132 69.4172 24.5512 71.0582 22.3452C71.2722 22.0582 71.9722 22.0172 72.4332 22.0492C77.6892 22.4172 82.2602 24.5452 86.4552 27.6012C87.3262 28.2362 88.1552 28.9302 88.9012 29.7462C87.2582 29.3932 85.6222 29.0082 83.9702 28.6952C81.4862 28.2252 79.0262 28.3192 76.6882 29.3642C74.1632 30.4922 71.5252 30.4522 68.8602 30.2672L68.5702 29.8252Z" fill="#CBCBCA"/>
<path fill-rule="evenodd" clip-rule="evenodd" d="M83.5542 50.4195C90.4092 49.8965 97.2652 49.3745 104.119 48.8455C104.33 48.8295 104.534 48.7405 104.742 48.6855C106.138 49.0835 107.553 49.4275 108.924 49.8955C110.398 50.3995 111.078 51.6125 111.598 53.2485C110.501 53.1435 109.589 53.0605 108.678 52.9675C102.322 52.3205 95.9662 51.6685 89.6102 51.0225C87.5922 50.8155 85.5722 50.6205 83.5542 50.4195Z" fill="#3EAE00"/>
<path fill-rule="evenodd" clip-rule="evenodd" d="M80.9951 29.6191L84.3571 30.0851V31.6651L84.5351 31.7081L85.3291 30.2481L91.3591 31.8591C90.7751 32.2131 90.4941 32.4051 90.1951 32.5621C88.0051 33.7091 85.6461 34.2201 83.2011 34.4241C82.5651 34.4781 82.1641 34.3101 82.0061 33.6531C81.7071 32.4041 81.3841 31.1611 80.9951 29.6191Z" fill="#25A5EC"/>
<path fill-rule="evenodd" clip-rule="evenodd" d="M68.57 29.8252L68.861 30.2662C70.312 31.5702 72.067 31.4982 73.798 31.2382C75.262 31.0182 76.694 30.5932 78.204 30.2442L78.285 31.1002L69.542 35.0412C68.858 33.4052 68.326 31.6932 68.57 29.8252Z" fill="#C9C8C7"/>
<path fill-rule="evenodd" clip-rule="evenodd" d="M51.5282 16.6768C56.8942 16.6688 61.1762 20.8778 61.1852 26.1708C61.1942 31.5278 56.8952 35.8998 51.5942 35.9268C46.3492 35.9518 41.9592 31.5918 41.9522 26.3498C41.9462 20.8938 46.1122 16.6848 51.5282 16.6768ZM57.3012 26.2788C57.3042 23.0498 54.7842 20.4858 51.5842 20.4608C48.4332 20.4358 45.8282 23.0348 45.7992 26.2338C45.7908 26.9914 45.9331 27.7432 46.2179 28.4453C46.5026 29.1475 46.9241 29.786 47.4579 30.3239C47.9916 30.8617 48.6269 31.288 49.3269 31.5781C50.0268 31.8683 50.7775 32.0163 51.5352 32.0138C54.7692 32.0198 57.2982 29.5028 57.3012 26.2788Z" fill="#FBCB00"/>
<path fill-rule="evenodd" clip-rule="evenodd" d="M87.897 57.1683L87.838 57.1113L87.876 57.1823L87.897 57.1683ZM67.23 63.5873L67.252 63.6663L67.186 63.6553L67.23 63.5873Z" fill="#3DAF00"/>
<path fill-rule="evenodd" clip-rule="evenodd" d="M95.7329 12.9463L96.0679 12.8213L95.8909 13.1163L95.7329 12.9463Z" fill="#543828"/>
<path fill-rule="evenodd" clip-rule="evenodd" d="M57.3012 26.2791C57.2982 29.5041 54.7692 32.0201 51.5352 32.0141C50.7775 32.0168 50.0267 31.8688 49.3267 31.5788C48.6267 31.2887 47.9913 30.8624 47.4576 30.3245C46.9238 29.7867 46.5024 29.1481 46.2177 28.4459C45.9329 27.7436 45.7907 26.9918 45.7992 26.2341C45.8282 23.0351 48.4332 20.4351 51.5842 20.4611C54.7842 20.4861 57.3042 23.0501 57.3012 26.2791ZM51.5242 26.0611C52.4722 25.6881 53.4442 25.4611 54.2362 24.9541C55.2222 24.3221 55.1402 23.1221 54.2142 22.3941C52.8842 21.3491 50.1992 21.3521 48.8952 22.3991C47.9742 23.1371 47.9002 24.3331 48.8832 24.9691C49.6442 25.4631 50.5812 25.6851 51.5242 26.0611Z" fill="#553928"/>
<path fill-rule="evenodd" clip-rule="evenodd" d="M51.5242 26.0613C50.5812 25.6853 49.6432 25.4633 48.8822 24.9693C47.8992 24.3323 47.9732 23.1373 48.8942 22.3993C50.1992 21.3523 52.8832 21.3493 54.2132 22.3943C55.1402 23.1223 55.2222 24.3223 54.2352 24.9543C53.4442 25.4613 52.4732 25.6883 51.5242 26.0613Z" fill="white"/>
</svg>
