<svg width="128" height="128" viewBox="0 0 128 128" fill="none" xmlns="http://www.w3.org/2000/svg">
<path d="M46.101 9.86426H53.433C53.553 9.94426 53.662 10.0633 53.793 10.0983C56.217 10.7373 58.766 11.0783 61.048 12.0493C68.707 15.3083 73.404 21.3183 76.122 29.0323C76.257 29.4153 76.496 29.9583 76.801 30.0503C78.462 30.5523 80.16 30.9363 81.847 31.3613L82.006 31.1913C86.641 22.1513 94.097 16.9473 103.988 15.1373C106.573 14.6643 109.187 14.7553 111.837 15.5773C111.597 15.8693 111.451 16.0603 111.289 16.2373C107.956 19.8623 105.344 23.8613 104.604 28.8643C104.36 30.4718 104.085 32.0745 103.778 33.6713C102.952 38.0673 101.458 42.1483 98.086 45.2903C93.773 49.3113 88.454 50.2773 82.823 50.1993C82.506 50.1943 82.077 49.7843 81.905 49.4563C81.44 48.5673 81.086 47.6213 80.696 46.7173C76.919 47.4993 75.81 48.5493 75.433 51.6923C76.559 51.8343 77.684 51.9843 78.812 52.1163C88.55 53.2573 98.251 54.6373 107.818 56.8223C112.333 57.8523 116.815 59.0083 120.976 61.1543C123.198 62.3003 124.504 64.0763 125.063 66.4703C125.186 66.9983 125.374 67.5123 125.532 68.0323V71.4543C125.378 71.8503 125.186 72.2353 125.074 72.6423C124.595 74.3803 123.705 75.8553 122.296 76.9873C120.555 78.3863 118.493 78.9403 116.252 79.1343C116.719 81.9353 115.234 83.7043 113.045 84.9093C111.679 85.6613 110.148 86.3383 108.625 86.5273C106.44 86.8003 104.197 86.5973 102.01 86.5973C100.351 89.6673 97.457 90.3263 94.378 90.5433C91.284 90.7623 88.445 89.9173 85.92 88.1343C84.894 89.7013 83.671 90.3553 81.632 90.5243C78.433 90.7913 75.408 90.1673 72.532 88.7663L72.149 88.6143L72.309 88.9613C74.266 92.5603 76.326 96.1093 78.122 99.7863C78.712 100.991 78.836 102.533 78.797 103.911C78.724 106.451 77.384 108.084 75.223 108.716C75.004 110.78 73.932 112.34 72.224 113.483C70.182 114.847 67.926 115.328 65.494 115.075C65.069 115.031 64.395 114.913 64.242 115.124C63 116.831 61.197 117.548 59.299 118.136H56.611C54.954 117.709 53.451 116.09 51.545 117.534C51.257 117.753 50.765 117.736 50.362 117.763C48.233 117.904 44.746 116.572 43.781 113.654C42.788 110.657 41.552 107.738 40.4 104.729L40.175 105.104C37.484 110.348 31.774 112.231 26.509 109.623C23.6914 108.222 21.1848 106.268 19.139 103.877C5.522 88.0663 -0.151004 69.8823 3.598 49.2063C7.108 29.8493 22.099 14.7943 41.275 10.7803C42.877 10.4453 44.492 10.1683 46.101 9.86426ZM69.321 42.1283C72.299 42.3343 75.245 42.3783 78.067 41.1183C80.679 39.9513 83.428 39.8473 86.204 40.3713C88.049 40.7203 89.877 41.1513 91.713 41.5453C90.88 40.6343 89.953 39.8583 88.98 39.1493C84.292 35.7363 79.185 33.3583 73.313 32.9473C72.797 32.9123 72.016 32.9573 71.777 33.2773C69.942 35.7423 68.855 38.4953 68.997 41.6353C68.725 43.7233 69.319 45.6343 70.083 47.4633L79.852 43.0603L79.761 42.1043C78.074 42.4943 76.474 42.9683 74.838 43.2133C72.903 43.5043 70.942 43.5853 69.321 42.1283ZM99.344 22.7763L99.522 22.9653C95.647 26.7333 93.019 31.3373 90.636 36.0433L97.034 41.4573C98.931 38.9553 99.711 36.1053 100.373 33.2023C101.536 28.0983 101.782 22.6733 105.685 18.4803C98.368 18.1683 87.471 25.8133 85.089 32.8503L88.853 34.9363C89.058 34.5523 89.224 34.1883 89.435 33.8543C90.651 31.9333 91.766 29.9353 93.127 28.1223C94.791 25.9073 96.743 23.9413 99.344 22.7763ZM85.736 64.6463C87.992 64.8703 90.248 65.0873 92.503 65.3173L113.808 67.4923C114.826 67.5963 115.845 67.6883 117.072 67.8063C116.491 65.9773 115.73 64.6223 114.084 64.0603C112.552 63.5373 110.972 63.1533 109.412 62.7083C103.239 61.4763 97.095 60.0673 90.885 59.0603C84.832 58.0793 78.714 57.4983 72.62 56.7773C72.244 56.7323 71.716 56.8713 71.457 57.1263C70.301 58.2643 69.218 59.4753 68.107 60.6593C61.945 65.1333 54.865 66.3153 47.477 66.4083C49.339 65.7463 51.248 65.2173 53.092 64.5163C58.981 62.2813 64.173 59.0623 67.915 53.8243C68.479 53.0343 68.586 52.4413 68.082 51.5383C66.347 48.4253 65.48 45.0313 65.533 41.4763C65.596 37.2143 67.06 33.4353 69.971 30.2733C70.474 29.7273 70.572 29.2413 70.257 28.5363C68.271 24.0933 65.255 20.5663 61.071 18.0593C55.936 14.9813 50.332 14.7173 44.635 15.5643C31.846 17.4663 21.973 24.0243 15.054 34.8723C8.693 44.8453 6.646 55.8293 8.302 67.4943C8.811 71.0763 9.716 74.5863 11.385 77.8453C11.753 78.7003 12.051 79.5923 12.498 80.4043C20.283 94.5433 32.183 102.381 48.317 103.583C57.803 104.29 65.988 98.8683 68.936 90.0743C69.608 88.0733 70.295 86.0453 69.254 83.9423C71.361 85.7913 73.881 86.5393 76.619 86.8003C79.39 87.0663 81.661 86.0863 82.859 83.9223C83.182 84.0363 83.529 84.1323 83.853 84.2773C86.096 85.2863 88.446 85.6003 90.882 85.4073C94.035 85.1573 95.516 83.7703 95.836 80.7913C97.402 80.9363 98.973 81.2403 100.532 81.1953C105.045 81.0673 107.206 78.5433 106.235 74.9063C108.009 74.8203 109.836 74.8733 111.615 74.6093C113.459 74.3363 114.949 73.3263 116.162 71.4843L98.934 68.0873L81.712 64.7873L81.735 64.6463H85.736ZM82.877 41.4043C83.311 43.1283 83.673 44.5163 84.007 45.9123C84.184 46.6463 84.632 46.8333 85.342 46.7743C88.074 46.5453 90.709 45.9743 93.156 44.6923C93.49 44.5173 93.804 44.3033 94.457 43.9083L87.72 42.1063L86.833 43.7373L86.634 43.6903V41.9243L82.877 41.4043Z" fill="#543828"/>
<path fill-rule="evenodd" clip-rule="evenodd" d="M11.3852 77.8451C9.7162 74.5862 8.8112 71.0762 8.3022 67.4942C6.6462 55.8292 8.6932 44.8451 15.0542 34.8722C21.9732 24.0242 31.8462 17.4671 44.6352 15.5641C50.3312 14.7171 55.9362 14.9811 61.0712 18.0591C65.2552 20.5661 68.2702 24.0921 70.2572 28.5361C70.5712 29.2411 70.4742 29.7271 69.9712 30.2731C67.0612 33.4352 65.5972 37.2141 65.5332 41.4762C65.4802 45.0312 66.3462 48.4241 68.0822 51.5381C68.5862 52.4411 68.4792 53.0341 67.9152 53.8242C64.1732 59.0621 58.9802 62.2811 53.0922 64.5161C51.2482 65.2161 49.3392 65.7451 47.4772 66.4081C54.8652 66.3151 61.9452 65.1331 68.1072 60.6591C66.8082 62.8541 65.7112 65.2042 64.1752 67.2201C56.8292 76.8642 46.8872 81.3642 34.3702 77.8491C33.0962 77.4921 32.0032 77.3341 30.8972 78.2791C30.4272 78.6781 29.7342 78.8551 29.1132 79.0341C23.0642 80.7661 17.1502 80.4101 11.3852 77.8451ZM49.9552 26.9451C43.9032 26.9541 39.2492 31.6561 39.2572 37.7531C39.2652 43.6091 44.1692 48.4821 50.0282 48.4531C55.9512 48.4231 60.7552 43.5382 60.7452 37.5532C60.7352 31.6402 55.9512 26.9361 49.9552 26.9451Z" fill="#E95927"/>
<path fill-rule="evenodd" clip-rule="evenodd" d="M11.3848 77.845C17.1498 80.41 23.0638 80.766 29.1128 79.033C29.7338 78.854 30.4268 78.678 30.8968 78.278C32.0018 77.334 33.0948 77.491 34.3698 77.848C46.8868 81.363 56.8288 76.863 64.1748 67.219C65.7098 65.203 66.8078 62.854 68.1068 60.658C69.2168 59.473 70.2998 58.262 71.4568 57.125C71.7158 56.87 72.2438 56.731 72.6198 56.776C78.7138 57.498 84.8318 58.078 90.8848 59.059C97.0948 60.067 103.239 61.475 109.412 62.706C109.18 62.768 108.951 62.867 108.716 62.886C101.057 63.477 93.3978 64.06 85.7368 64.645H81.7398L81.7168 64.786C87.4568 65.887 93.1968 66.986 98.9378 68.086C98.7198 68.789 98.7098 69.731 98.2388 70.147C97.2928 70.982 96.1658 71.832 94.9788 72.118C93.5828 72.455 92.0438 72.201 90.5688 72.203L90.5268 72.122L90.5908 72.186C90.8378 73.674 90.6398 75.071 89.4028 76.057C88.5578 76.731 87.6278 77.367 86.6328 77.767C84.0498 78.809 81.4468 78.829 78.9578 77.356C78.3098 80.057 76.2228 80.76 74.0138 81.156C71.7568 81.559 69.5968 81.177 67.7218 79.641L67.4928 79.875L69.2558 83.94C70.2978 86.043 69.6098 88.071 68.9388 90.072C65.9908 98.866 57.8058 104.288 48.3198 103.581C32.1848 102.379 20.2858 94.541 12.5008 80.402C12.0508 79.592 11.7528 78.7 11.3848 77.845ZM67.4978 79.357L67.4478 79.433L67.5228 79.445L67.4978 79.357Z" fill="#FBCD00"/>
<path fill-rule="evenodd" clip-rule="evenodd" d="M90.5662 72.2029C92.0432 72.2009 93.5822 72.4549 94.9772 72.1179C96.1642 71.8319 97.2902 70.9819 98.2372 70.1469C98.7092 69.7309 98.7182 68.7899 98.9362 68.0859L116.165 71.4829C114.952 73.3249 113.462 74.3349 111.618 74.6079C109.839 74.8719 108.013 74.8189 106.238 74.9049C107.209 78.5419 105.048 81.0659 100.535 81.1939C98.9752 81.2389 97.4052 80.9339 95.8392 80.7899C95.5192 83.7689 94.0382 85.1559 90.8852 85.4059C88.4482 85.5989 86.0992 85.2849 83.8562 84.2759C83.5322 84.1299 83.1852 84.0349 82.8622 83.9209C81.6642 86.0849 79.3922 87.0649 76.6222 86.7989C73.8842 86.5369 71.3642 85.7889 69.2572 83.9409L67.4932 79.8759L67.7222 79.6419C69.5972 81.1779 71.7572 81.5599 74.0142 81.1569C76.2232 80.7609 78.3102 80.0579 78.9582 77.3569C81.4472 78.8299 84.0502 78.8099 86.6332 77.7679C87.6272 77.3679 88.5582 76.7319 89.4032 76.0579C90.6392 75.0719 90.8382 73.6749 90.5912 72.1869L90.5662 72.2029Z" fill="#3DAF00"/>
<path fill-rule="evenodd" clip-rule="evenodd" d="M99.3439 22.7759C96.7419 23.9409 94.7899 25.9069 93.1269 28.1229C91.7659 29.9359 90.6499 31.9349 89.4349 33.8549C89.2239 34.1889 89.0579 34.5529 88.8529 34.9369L85.0889 32.8509C87.4709 25.8139 98.3669 18.1689 105.685 18.4809C101.783 22.6729 101.537 28.0989 100.373 33.2029C99.7109 36.1059 98.9319 38.9559 97.0339 41.4579L90.6359 36.0439C93.0189 31.3379 95.6469 26.7329 99.5219 22.9659L99.7179 22.6369L99.3439 22.7759Z" fill="#25A7F0"/>
<path fill-rule="evenodd" clip-rule="evenodd" d="M68.9958 41.6355C68.8538 38.4945 69.9408 35.7415 71.7758 33.2775C72.0148 32.9575 72.7968 32.9125 73.3118 32.9475C79.1838 33.3585 84.2908 35.7365 88.9788 39.1495C89.9528 39.8595 90.8788 40.6345 91.7118 41.5455C89.8758 41.1515 88.0478 40.7205 86.2028 40.3715C83.4278 39.8475 80.6788 39.9515 78.0658 41.1185C75.2438 42.3785 72.2968 42.3345 69.3198 42.1285L68.9958 41.6355Z" fill="#CBCBCA"/>
<path fill-rule="evenodd" clip-rule="evenodd" d="M85.7358 64.646C93.3958 64.061 101.055 63.478 108.715 62.887C108.95 62.868 109.179 62.769 109.411 62.707C110.971 63.152 112.551 63.536 114.083 64.06C115.729 64.623 116.49 65.977 117.071 67.806C115.844 67.688 114.825 67.595 113.807 67.492L92.5018 65.317C90.2478 65.088 87.9918 64.87 85.7358 64.646Z" fill="#3EAE00"/>
<path fill-rule="evenodd" clip-rule="evenodd" d="M82.877 41.4043L86.634 41.9253V43.6913L86.833 43.7383L87.72 42.1073L94.457 43.9093C93.805 44.3053 93.49 44.5183 93.156 44.6933C90.709 45.9753 88.074 46.5473 85.342 46.7753C84.632 46.8343 84.184 46.6473 84.007 45.9133C83.673 44.5173 83.311 43.1283 82.877 41.4043Z" fill="#25A5EC"/>
<path fill-rule="evenodd" clip-rule="evenodd" d="M68.9961 41.6348L69.3211 42.1278C70.9421 43.5848 72.9031 43.5038 74.8371 43.2128C76.4731 42.9678 78.0731 42.4928 79.7601 42.1038L79.8511 43.0598L70.0821 47.4628C69.3181 45.6338 68.7231 43.7228 68.9961 41.6348Z" fill="#C9C8C7"/>
<path fill-rule="evenodd" clip-rule="evenodd" d="M49.9548 26.9453C55.9508 26.9353 60.7348 31.6393 60.7448 37.5523C60.7548 43.5373 55.9508 48.4223 50.0278 48.4523C44.1688 48.4803 39.2638 43.6083 39.2568 37.7523C39.2488 31.6563 43.9028 26.9543 49.9548 26.9453ZM56.4048 37.6733C56.4078 34.0663 53.5918 31.2013 50.0158 31.1723C46.4948 31.1443 43.5848 34.0483 43.5528 37.6233C43.5434 38.4698 43.7024 39.3097 44.0205 40.0942C44.3385 40.8787 44.8094 41.5922 45.4056 42.1931C46.0019 42.794 46.7117 43.2704 47.4937 43.5945C48.2757 43.9187 49.1143 44.0842 49.9608 44.0813C53.5748 44.0873 56.4018 41.2753 56.4048 37.6733Z" fill="#FBCB00"/>
<path fill-rule="evenodd" clip-rule="evenodd" d="M90.5892 72.187L90.5252 72.123L90.5672 72.204L90.5892 72.187ZM67.4982 79.357L67.5232 79.445L67.4482 79.434L67.4982 79.357Z" fill="#3DAF00"/>
<path fill-rule="evenodd" clip-rule="evenodd" d="M99.3442 22.7757L99.7182 22.6357L99.5222 22.9647L99.3442 22.7757Z" fill="#543828"/>
<path fill-rule="evenodd" clip-rule="evenodd" d="M56.4051 37.6731C56.4021 41.2761 53.5751 44.0871 49.9621 44.0811C49.1156 44.0839 48.2769 43.9184 47.4949 43.5943C46.7129 43.2701 46.0032 42.7937 45.4069 42.1928C44.8106 41.5919 44.3398 40.8785 44.0217 40.094C43.7036 39.3095 43.5447 38.4696 43.5541 37.6231C43.5861 34.0481 46.4961 31.1441 50.0171 31.1721C53.5921 31.2011 56.4081 34.0651 56.4051 37.6731ZM49.9511 37.4301C51.0101 37.0131 52.0961 36.7601 52.9801 36.1931C54.0831 35.4861 53.9911 34.1461 52.9561 33.3331C51.4701 32.1661 48.4701 32.1691 47.0121 33.3391C45.9851 34.1641 45.9021 35.4991 46.9991 36.2111C47.8481 36.7621 48.8961 37.0091 49.9511 37.4301Z" fill="#553928"/>
<path fill-rule="evenodd" clip-rule="evenodd" d="M49.9512 37.4304C48.8962 37.0094 47.8482 36.7624 46.9992 36.2104C45.9012 35.4984 45.9842 34.1634 47.0122 33.3384C48.4702 32.1684 51.4702 32.1654 52.9562 33.3324C53.9912 34.1454 54.0832 35.4854 52.9802 36.1924C52.0952 36.7604 51.0092 37.0134 49.9512 37.4304Z" fill="white"/>
</svg>
