<svg width="128" height="128" viewBox="0 0 128 128" fill="none" xmlns="http://www.w3.org/2000/svg">
<path d="M17.7302 61.5098L30.2202 64.6098C32.3902 63.7598 33.7002 62.6798 33.7002 61.5098V56.5098C33.7002 53.7598 26.5502 51.5098 17.7002 51.5098C8.85019 51.5098 1.7002 53.7398 1.7002 56.5098V61.5098C1.7002 64.2598 8.85019 66.5098 17.7002 66.5098V61.5098H17.7302Z" fill="#D43D44"/>
<path d="M30.23 69.6L17.74 66.5V71.5L30.23 74.61C32.4 73.76 33.71 72.68 33.71 71.5V66.5C33.71 67.67 32.4 68.75 30.23 69.6ZM1.77002 66.5V71.5C1.77002 74.25 8.92002 76.5 17.77 76.5V71.5C8.92002 71.48 1.77002 69.25 1.77002 66.5ZM47.42 71C46.5212 71.015 45.6286 70.8486 44.7955 70.5109C43.9624 70.1732 43.206 69.6711 42.5713 69.0345C41.9365 68.3979 41.4366 67.64 41.1014 66.8059C40.7661 65.9718 40.6024 65.0788 40.62 64.18C40.6049 63.2712 40.7737 62.3687 41.1164 61.5268C41.4591 60.685 41.9685 59.9211 42.614 59.2812C43.2595 58.6413 44.0278 58.1386 44.8726 57.8032C45.7175 57.4679 46.6214 57.307 47.53 57.33C48.4919 57.277 49.4541 57.4277 50.3537 57.7724C51.2532 58.1171 52.0698 58.6478 52.75 59.33L50.9 61.5C50.0107 60.5745 48.7931 60.0357 47.51 60C46.9843 60.0114 46.4662 60.1281 45.9863 60.3433C45.5065 60.5586 45.0748 60.8679 44.7167 61.253C44.3587 61.6382 44.0815 62.0912 43.9017 62.5854C43.7219 63.0796 43.6431 63.6048 43.67 64.13C43.639 64.6576 43.7147 65.1861 43.8926 65.6838C44.0705 66.1815 44.347 66.6382 44.7055 67.0265C45.0639 67.4149 45.4971 67.727 45.979 67.9441C46.4609 68.1611 46.9816 68.2788 47.51 68.29C48.1641 68.2905 48.8113 68.1567 49.4116 67.897C50.0119 67.6373 50.5526 67.2571 51 66.78L52.86 68.65C52.1913 69.4291 51.3538 70.0457 50.4112 70.4529C49.4687 70.86 48.4457 71.0472 47.42 71ZM60.82 70.8V69.7C60.4366 70.1307 59.9623 70.4707 59.4313 70.6956C58.9004 70.9204 58.3261 71.0244 57.75 71C55.84 71 54.27 69.9 54.27 67.89C54.27 65.67 55.95 64.65 58.36 64.65C59.2049 64.6432 60.0445 64.7854 60.84 65.07V64.9C60.84 63.71 60.1 63.04 58.66 63.04C57.7 63.0415 56.7493 63.2282 55.86 63.59L55.14 61.39C56.3746 60.8228 57.7216 60.5424 59.08 60.57C62.22 60.57 63.6 62.2 63.6 64.95V70.8H60.82ZM60.88 66.71C60.2887 66.4473 59.6469 66.3175 59 66.33C57.77 66.33 57 66.82 57 67.73C57 68.51 57.64 68.96 58.57 68.96C59.91 68.96 60.82 68.23 60.82 67.18L60.88 66.71ZM72.61 70.8L70 66.65L69 67.71V70.8H66.08V57H69V64.37L72.37 60.68H75.81L71.95 64.68L75.95 70.83H72.61V70.8ZM86.24 66.73H79.18C79.2666 67.3139 79.5699 67.8438 80.0294 68.2144C80.4889 68.585 81.071 68.769 81.66 68.73C82.1167 68.741 82.5708 68.6579 82.994 68.4858C83.4172 68.3138 83.8005 68.0565 84.12 67.73L85.77 69.19C85.0668 70.0207 84.1274 70.6177 83.0767 70.9016C82.026 71.1854 80.9138 71.1427 79.8879 70.779C78.8621 70.4154 77.9713 69.7481 77.3339 68.8658C76.6966 67.9835 76.3429 66.9281 76.32 65.84C76.2891 65.1619 76.3952 64.4846 76.6319 63.8484C76.8687 63.2122 77.2313 62.6303 77.698 62.1375C78.1647 61.6446 78.726 61.2509 79.3483 60.9798C79.9707 60.7088 80.6413 60.566 81.32 60.56C84.71 60.56 86.26 63.19 86.26 66.07C86.27 66.29 86.26 66.46 86.24 66.73ZM81.34 62.73C80.768 62.7446 80.2228 62.9757 79.8145 63.3766C79.4062 63.7775 79.1652 64.3183 79.14 64.89H83.48C83.4671 64.3266 83.2355 63.7904 82.8342 63.3947C82.4329 62.9991 81.8935 62.775 81.33 62.77L81.34 62.73ZM93.85 66.82H91.63V70.82H88.72V57.54H94.13C97.29 57.54 99.2 59.41 99.2 62.12C99.2 65.23 96.82 66.82 93.85 66.82ZM96.25 62.18C96.25 60.87 95.34 60.18 93.88 60.18H91.63V64.23H93.94C94.2261 64.2666 94.5166 64.2425 94.7927 64.1591C95.0687 64.0758 95.3241 63.9352 95.5421 63.7464C95.7601 63.5577 95.9359 63.325 96.0579 63.0637C96.1798 62.8024 96.2453 62.5183 96.25 62.23V62.18ZM109.65 70.8V65.47H104.27V70.8H101.36V57.54H104.27V62.78H109.65V57.54H112.57V70.8H109.65ZM120.88 66.82H118.67V70.82H115.75V57.54H121.16C124.32 57.54 126.23 59.41 126.23 62.12C126.23 65.23 123.85 66.82 120.88 66.82ZM123.28 62.18C123.28 60.87 122.37 60.18 120.91 60.18H118.66V64.23H121C121.286 64.2666 121.577 64.2425 121.853 64.1591C122.129 64.0758 122.384 63.9352 122.602 63.7464C122.82 63.5577 122.996 63.325 123.118 63.0637C123.24 62.8024 123.305 62.5183 123.31 62.23L123.28 62.18Z" fill="#D43D44"/>
</svg>
