<svg width="128" height="128" viewBox="0 0 128 128" fill="none" xmlns="http://www.w3.org/2000/svg">
<path d="M2 73.6904V93.0004C2 103.69 29.75 112.35 64 112.35V93.0004C29.75 93.0004 2 84.3604 2 73.6904ZM64 54.3404L112.5 66.3404C120.94 63.0404 126.01 58.8404 126.01 54.3404V35.0004C126.01 24.3204 98.25 15.6504 64.01 15.6504C29.77 15.6504 2 24.2904 2 35.0004V54.3404C2 65.0004 29.75 73.6904 64 73.6904V54.3404ZM112.49 85.7404L64 73.6904V93.0004L112.5 105.05C120.93 101.78 126 97.5904 126 93.0004V73.6904C126 78.2404 120.93 82.4304 112.49 85.7404Z" fill="#D43D44"/>
</svg>
