<svg width="128" height="128" viewBox="0 0 128 128" fill="none" xmlns="http://www.w3.org/2000/svg">
<path d="M17.7302 61.5098L30.2202 64.6098C32.3902 63.7598 33.7002 62.6798 33.7002 61.5098V56.5098C33.7002 53.7598 26.5502 51.5098 17.7002 51.5098C8.85019 51.5098 1.7002 53.7398 1.7002 56.5098V61.5098C1.7002 64.2598 8.85019 66.5098 17.7002 66.5098V61.5098H17.7302Z" fill="#D43D44"/>
<path d="M30.23 69.6L17.74 66.5V71.5L30.23 74.61C32.4 73.76 33.71 72.68 33.71 71.5V66.5C33.71 67.67 32.4 68.75 30.23 69.6ZM1.77002 66.5V71.5C1.77002 74.25 8.92002 76.5 17.77 76.5V71.5C8.92002 71.48 1.77002 69.25 1.77002 66.5Z" fill="#D43D44"/>
<path d="M47.4199 71C46.5211 71.015 45.6285 70.8486 44.7954 70.5109C43.9624 70.1732 43.2059 69.6711 42.5712 69.0345C41.9365 68.3979 41.4366 67.64 41.1013 66.8059C40.7661 65.9718 40.6023 65.0788 40.6199 64.18C40.6048 63.2712 40.7737 62.3687 41.1163 61.5268C41.459 60.685 41.9684 59.9211 42.6139 59.2812C43.2594 58.6413 44.0277 58.1386 44.8725 57.8032C45.7174 57.4679 46.6213 57.307 47.5299 57.33C48.4918 57.277 49.454 57.4277 50.3536 57.7724C51.2531 58.1171 52.0697 58.6478 52.7499 59.33L50.8999 61.5C50.0106 60.5745 48.793 60.0357 47.5099 60C46.9842 60.0114 46.4661 60.1281 45.9863 60.3433C45.5065 60.5586 45.0747 60.8679 44.7167 61.253C44.3586 61.6382 44.0814 62.0912 43.9016 62.5854C43.7218 63.0796 43.643 63.6048 43.6699 64.13C43.6389 64.6576 43.7146 65.1861 43.8925 65.6838C44.0704 66.1815 44.3469 66.6382 44.7054 67.0265C45.0639 67.4149 45.497 67.727 45.9789 67.9441C46.4608 68.1611 46.9815 68.2788 47.5099 68.29C48.164 68.2905 48.8112 68.1567 49.4116 67.897C50.0119 67.6373 50.5525 67.2571 50.9999 66.78L52.8599 68.65C52.1912 69.4291 51.3537 70.0457 50.4112 70.4529C49.4686 70.86 48.4456 71.0472 47.4199 71ZM60.8199 70.8V69.7C60.4365 70.1307 59.9622 70.4707 59.4313 70.6956C58.9003 70.9204 58.326 71.0244 57.7499 71C55.8399 71 54.2699 69.9 54.2699 67.89C54.2699 65.67 55.9499 64.65 58.3599 64.65C59.2049 64.6432 60.0444 64.7854 60.8399 65.07V64.9C60.8399 63.71 60.0999 63.04 58.6599 63.04C57.6999 63.0415 56.7492 63.2282 55.8599 63.59L55.1399 61.39C56.3745 60.8228 57.7215 60.5424 59.0799 60.57C62.2199 60.57 63.5999 62.2 63.5999 64.95V70.8H60.8199ZM60.8799 66.71C60.2886 66.4473 59.6469 66.3175 58.9999 66.33C57.7699 66.33 56.9999 66.82 56.9999 67.73C56.9999 68.51 57.6399 68.96 58.5699 68.96C59.9099 68.96 60.8199 68.23 60.8199 67.18L60.8799 66.71ZM72.6099 70.8L69.9999 66.65L68.9999 67.71V70.8H66.0799V57H68.9999V64.37L72.3699 60.68H75.8099L71.9499 64.68L75.9499 70.83H72.6099V70.8ZM86.2399 66.73H79.1799C79.2666 67.3139 79.5698 67.8438 80.0293 68.2144C80.4888 68.585 81.0709 68.769 81.6599 68.73C82.1166 68.741 82.5707 68.6579 82.9939 68.4858C83.4171 68.3138 83.8004 68.0565 84.1199 67.73L85.7699 69.19C85.0668 70.0207 84.1274 70.6177 83.0766 70.9016C82.0259 71.1854 80.9137 71.1427 79.8878 70.779C78.862 70.4154 77.9712 69.7481 77.3339 68.8658C76.6965 67.9835 76.3429 66.9281 76.3199 65.84C76.289 65.1619 76.3951 64.4846 76.6318 63.8484C76.8686 63.2122 77.2312 62.6303 77.6979 62.1375C78.1646 61.6446 78.7259 61.2509 79.3483 60.9798C79.9706 60.7088 80.6412 60.566 81.3199 60.56C84.7099 60.56 86.2599 63.19 86.2599 66.07C86.2699 66.29 86.2599 66.46 86.2399 66.73ZM81.3399 62.73C80.7679 62.7446 80.2227 62.9757 79.8144 63.3766C79.4061 63.7775 79.1651 64.3183 79.1399 64.89H83.4799C83.467 64.3266 83.2354 63.7904 82.8341 63.3947C82.4329 62.9991 81.8934 62.775 81.3299 62.77L81.3399 62.73Z" fill="#414143"/>
<path d="M93.8502 66.82H91.6302V70.82H88.7202V57.54H94.1302C97.2902 57.54 99.2002 59.41 99.2002 62.12C99.2002 65.23 96.8202 66.82 93.8502 66.82ZM96.2502 62.18C96.2502 60.87 95.3402 60.18 93.8802 60.18H91.6302V64.23H93.9402C94.2263 64.2667 94.5168 64.2425 94.7929 64.1592C95.0689 64.0758 95.3243 63.9352 95.5423 63.7465C95.7603 63.5577 95.9361 63.3251 96.0581 63.0638C96.18 62.8025 96.2455 62.5184 96.2502 62.23V62.18ZM109.65 70.8V65.47H104.27V70.8H101.36V57.54H104.27V62.78H109.65V57.54H112.57V70.8H109.65ZM120.88 66.82H118.67V70.82H115.75V57.54H121.16C124.32 57.54 126.23 59.41 126.23 62.12C126.23 65.23 123.85 66.82 120.88 66.82ZM123.28 62.18C123.28 60.87 122.37 60.18 120.91 60.18H118.66V64.23H121C121.286 64.2667 121.577 64.2425 121.853 64.1592C122.129 64.0758 122.384 63.9352 122.602 63.7465C122.82 63.5577 122.996 63.3251 123.118 63.0638C123.24 62.8025 123.306 62.5184 123.31 62.23L123.28 62.18Z" fill="#D43D44"/>
</svg>
