<svg width="128" height="128" viewBox="0 0 128 128" fill="none" xmlns="http://www.w3.org/2000/svg">
<path d="M59.3899 0.151524C58.9059 0.202524 57.3949 0.381524 56.0619 0.538524C50.6879 1.15152 44.5939 2.76552 39.2459 5.01852C19.8909 13.1055 5.32391 30.8485 1.30491 51.1995C0.358906 56.0395 0.128906 58.4175 0.128906 63.9995C0.128906 71.1945 0.843906 76.1595 2.73891 82.4335C8.93391 102.964 25.0619 119.066 45.6449 125.285C51.8399 127.156 56.8319 127.871 63.9999 127.871C71.1949 127.871 76.1599 127.156 82.4339 125.261C102.964 119.066 119.066 102.938 125.285 82.3545C127.156 76.1595 127.871 71.1675 127.871 63.9995C127.871 60.9525 127.719 57.4725 127.539 56.1905C125.465 41.3945 119.371 28.9525 109.211 18.7885C99.0699 8.70252 86.6799 2.58552 72.1899 0.511524C70.1939 0.229524 60.9519 -0.0284762 59.3899 0.151524ZM38.5269 40.4715C39.8869 40.8815 40.5229 41.2655 41.4449 42.1865C43.2379 44.0065 43.6479 45.0035 43.6479 47.7415C43.6479 49.7925 43.5699 50.1755 42.9569 51.2495C41.7769 53.2455 39.0389 55.0895 37.1449 55.1395C35.8119 55.1675 35.8669 54.5775 37.3249 53.0425C39.2699 51.0195 39.5509 50.2525 39.5509 47.2295C39.5269 44.3125 39.1679 43.3155 37.8119 42.4955C36.6839 41.8045 35.4569 41.8555 33.6639 42.6985C29.0039 44.9285 23.9609 52.3515 21.9919 59.9565C19.3789 70.0935 24.0119 78.2065 31.6409 76.8235C33.8669 76.4135 38.0659 74.2655 39.8869 72.5735C41.3949 71.1945 41.3949 71.1675 41.5469 69.4535C41.8829 65.8665 44.4139 62.2845 47.7969 60.6205C49.3549 59.8505 49.7419 59.7765 51.8399 59.7765C53.8359 59.7765 54.2969 59.8785 55.2699 60.4135C58.3669 62.1835 57.7269 66.3035 54.3749 66.3035C52.4299 66.3035 51.4299 65.3035 52.8399 64.7695C54.2229 64.2575 53.7069 62.3355 52.0979 61.9015C50.2029 61.4135 48.0509 62.6945 46.6949 65.1515C45.0549 68.1215 44.9799 71.6555 46.5389 73.2655C48.0509 74.8785 49.9449 73.6015 51.4059 69.9365C52.1719 68.0695 53.2729 67.0695 54.5549 67.0695C55.6799 67.0695 55.8869 67.7615 55.3979 69.8625C54.6799 73.1125 55.1679 73.9565 57.1909 72.9605C57.8549 72.6515 58.9569 71.9375 59.6209 71.4255L60.8749 70.4255L61.7229 65.9955C62.6449 61.0305 62.9999 60.3625 64.8949 60.0075C66.7149 59.6715 67.1249 60.5695 66.4569 63.4095L66.0969 64.9995L67.4299 63.6395C70.5779 60.4135 74.4449 58.8275 75.7769 60.1595C76.4919 60.8745 76.4139 61.7725 75.3909 64.9445C74.9059 66.4565 74.2379 68.8395 73.9339 70.1945C73.4729 72.2415 73.4449 72.7295 73.7039 73.0625C74.5239 74.0345 77.0309 73.0345 79.2579 70.8585L80.5629 69.5815L80.7189 66.7375C80.8709 63.4605 81.1759 62.2845 82.0469 61.2335C82.8669 60.2615 84.3519 59.5465 85.1449 59.7495C85.9379 59.9565 85.9379 60.7225 85.2229 62.9765C84.2229 66.0735 84.3279 73.2145 85.3519 73.2145C85.7619 73.2145 87.8589 71.0145 89.1919 69.1715L90.1879 67.8115L89.3949 66.9955C88.0119 65.5355 87.6799 64.5895 87.6799 62.2065C87.6799 60.4685 87.8089 59.8275 88.2419 58.9795C88.9609 57.6515 90.0859 56.6795 91.4179 56.2925C92.8239 55.8585 94.5659 56.5735 95.2809 57.8545C95.9999 59.1595 95.8209 62.0775 94.8979 64.0775L94.2339 65.5345H95.1289C96.3589 65.5345 96.8439 65.2295 99.0469 63.1555C100.199 62.0545 101.531 61.1055 102.527 60.6445C106.445 58.8045 111.055 59.7495 111.82 62.5655C112.46 64.8195 111.055 66.4055 108.594 66.2255C106.828 66.0975 106.496 65.6355 107.52 64.7695C109.363 63.2295 107.52 61.2615 104.883 61.9765C103.449 62.3625 101.836 63.9725 100.993 65.8435C99.3009 69.5815 100.199 73.9835 102.629 73.9835C103.602 73.9835 105.32 72.0625 105.984 70.1945C106.777 68.0425 108.441 66.6875 109.695 67.1745C110.387 67.4295 110.438 68.1205 110.004 70.2965C109.516 72.6795 109.441 74.9065 109.824 75.9295C109.977 76.3115 110.438 77.0305 110.875 77.5155C111.691 78.4365 111.719 78.7695 111.027 79.2065C110.695 79.4365 110.257 79.3355 109.184 78.7465C107.699 77.9765 106.418 76.5935 105.957 75.2885L105.676 74.5225L104.652 75.2885C104.062 75.6985 103.141 76.1595 102.605 76.3115C100.48 76.8745 97.8669 75.4175 96.6409 72.9605C96.1519 72.0105 95.9999 69.2225 96.3589 68.1475C96.5629 67.5575 96.5629 67.5575 95.7419 67.9675C95.3089 68.1985 94.3869 68.4525 93.6719 68.5305C92.4919 68.6605 92.3119 68.7885 91.1369 70.2725C89.4729 72.3425 86.5269 75.1365 85.3239 75.7265C82.7659 77.0035 81.9219 76.6445 81.2539 74.0065L80.7929 72.2415L79.6909 73.2145C78.2849 74.4445 75.4689 75.9295 73.8549 76.2885C72.3199 76.6205 70.6799 76.1325 70.0149 75.1085C69.0199 73.5735 69.3519 70.3235 70.9369 65.9445C72.1129 62.6945 71.2699 62.6445 68.3009 65.7415C66.0979 68.0695 65.1519 69.7335 64.5389 72.3195C63.8989 75.0075 63.1289 75.9795 61.3909 76.3895C60.3399 76.6205 59.8509 75.9795 60.0589 74.5735L60.2109 73.4445L59.2379 74.1125C57.8549 75.0585 56.1129 75.9295 54.9099 76.2615C53.7069 76.5935 52.1209 76.2375 51.7379 75.5695C51.0469 74.3945 51.0469 74.3945 49.9729 75.2375C47.6409 77.1325 44.3129 76.5935 42.6249 74.0855L42.0849 73.2925L40.3979 74.8545C35.5309 79.3085 29.4409 81.3045 24.9339 79.9215C19.1989 78.1835 16.0269 73.2655 16.0779 66.1755C16.1019 59.0585 19.2499 51.5585 24.5509 46.0035C27.5469 42.8785 30.3629 41.0345 33.2309 40.3435C35.3009 39.8315 36.5589 39.8585 38.5269 40.4725V40.4715Z" fill="#00C4CC"/>
<path d="M90.4181 58.6755C89.8551 59.2375 90.0621 61.4915 90.7781 62.9255C91.1371 63.6675 91.5201 64.2575 91.6481 64.2575C91.7501 64.2575 91.9801 63.6675 92.1601 62.9485C92.8001 60.2885 91.6481 57.4445 90.4181 58.6755Z" fill="#00C4CC"/>
</svg>
