<svg width="128" height="128" viewBox="0 0 128 128" fill="none" xmlns="http://www.w3.org/2000/svg">
<path d="M55.7892 71.1208H49.0862C48.4043 71.1192 47.7258 71.0233 47.0702 70.8358C45.7812 70.4298 44.7612 69.5038 44.0112 68.0588C43.3312 66.7428 42.9912 65.2108 42.9912 63.4608C42.9912 61.7738 43.2922 60.2808 43.9012 58.9878C44.5652 57.5468 45.5142 56.5778 46.7412 56.0508C47.6674 55.6545 48.6638 55.4487 49.6712 55.4458H55.7452V58.4458H49.4332C48.4062 58.4458 47.6602 59.0238 47.1992 60.1688C46.8362 61.0668 46.6562 62.2428 46.6562 63.6888C46.6562 64.9158 46.8862 65.9508 47.3512 66.7978C47.8862 67.8018 48.6362 68.3058 49.6052 68.3058L55.7892 68.2828V71.1228M66.9532 71.1928H61.6602C60.3712 71.1928 59.2502 70.6268 58.2972 69.4898C57.3562 68.3418 56.8872 67.0168 56.8872 65.5288C56.8872 63.8998 57.3992 62.4938 58.4262 61.3178C59.4692 60.1188 60.6252 59.5248 61.8992 59.5248H66.9302V61.9198H63.2432C62.7822 61.9198 62.3842 61.9628 62.0522 62.0568C61.7322 62.1308 61.4352 62.2868 61.1612 62.5258C60.6532 62.9748 60.4032 63.5768 60.4032 64.3388H66.9072V66.7608H60.4232C60.4232 67.1158 60.4582 67.4288 60.5322 67.6748C60.6182 67.9168 60.7862 68.1668 61.0322 68.4168C61.2782 68.6548 61.5672 68.8188 61.8992 68.9088C62.3132 68.9917 62.735 69.0296 63.1572 69.0218H66.9542V71.1938M79.3212 71.1238H76.3052V63.4868C76.3079 63.3077 76.2634 63.1311 76.1762 62.9748C76.0813 62.7965 75.9557 62.6364 75.8052 62.5018C75.5317 62.2563 75.1767 62.1212 74.8092 62.1228H71.8602V71.1228H68.8442V59.5228H74.6142C75.6412 59.5228 76.3872 59.5818 76.8482 59.7028C77.5712 59.8828 78.1492 60.2728 78.5822 60.8908C79.0654 61.5796 79.3233 62.4013 79.3202 63.2428V71.1218M87.9802 61.9418H85.0502V67.2078C85.0502 67.6808 85.2102 68.0788 85.5272 68.3918C85.8902 68.7048 86.3672 68.8648 86.9612 68.8648H87.8522V71.1228H85.0512C84.6471 71.1288 84.2465 71.0479 83.8764 70.8855C83.5063 70.7231 83.1754 70.4831 82.9062 70.1818C82.5739 69.8415 82.3402 69.4174 82.2302 68.9548C82.1214 68.4319 82.0705 67.8987 82.0782 67.3648V61.9428H80.1722V59.5248H82.0782V55.4468H85.0512V59.5248H87.9812V61.9428M105.68 63.2668C105.68 66.3098 104.864 68.4858 103.231 69.8058C101.899 70.8648 99.9612 71.3958 97.4182 71.3958C94.5982 71.3958 92.5162 70.7868 91.1682 69.5558C89.6952 68.2158 88.9572 66.0558 88.9572 63.0868C88.9572 60.6528 89.6132 58.7548 90.9302 57.3998C92.3642 55.9158 94.5042 55.1768 97.3522 55.1768C100.489 55.1768 102.704 55.8838 103.989 57.3098C105.118 58.5598 105.68 60.5478 105.68 63.2668ZM101.821 63.1768C101.821 61.6378 101.466 60.4108 100.759 59.5008C99.9622 58.4808 98.7822 57.9778 97.2242 57.9778C95.6892 57.9778 94.5332 58.5208 93.7512 59.6148C93.1032 60.5248 92.7742 61.7128 92.7742 63.1778C92.7742 64.8658 93.0362 66.1078 93.5552 66.9118C94.2782 68.0368 95.6182 68.5918 97.5712 68.5918C99.2192 68.5918 100.376 68.0528 101.04 66.9588C101.56 66.1068 101.821 64.8498 101.821 63.1778M123.044 66.2678C123.044 67.6348 122.603 68.7948 121.72 69.7408C120.837 70.6868 119.72 71.1468 118.361 71.1468L107.623 71.1238V68.3078H116.475C117.065 68.3078 117.565 68.1668 117.971 67.8778C118.432 67.5498 118.662 67.1048 118.662 66.5378C118.662 65.2058 117.752 64.5418 115.932 64.5418H111.463C110.174 64.5418 109.049 64.1358 108.08 63.3148C107.111 62.4868 106.627 61.4438 106.627 60.1698C106.627 58.7718 107.096 57.6308 108.037 56.7678C108.99 55.8848 110.24 55.4478 111.787 55.4478H122.049V58.1388H113C112.594 58.1388 112.184 58.3148 111.766 58.6738C111.36 59.0178 111.157 59.4238 111.157 59.9078C111.153 60.1635 111.203 60.4171 111.304 60.6521C111.405 60.887 111.555 61.0979 111.743 61.2708C112.149 61.6338 112.634 61.8058 113.196 61.8058H118.122C119.653 61.8058 120.852 62.2198 121.72 63.0398C122.603 63.8448 123.044 64.9228 123.044 66.2668" fill="black"/>
<path fill-rule="evenodd" clip-rule="evenodd" d="M18.8832 62.2032L20.0822 63.3792L18.8832 64.5552H10.4342V68.4772L5.28223 63.3792L10.4342 58.3672V62.2032H18.8832Z" fill="#912178"/>
<path fill-rule="evenodd" clip-rule="evenodd" d="M22.7072 60.8203L21.5162 62.0003L20.3212 60.8203V52.4843H16.3442L21.5162 47.4062L26.5942 52.4843H22.7072V60.8203Z" fill="#EEA623"/>
<path fill-rule="evenodd" clip-rule="evenodd" d="M24.1092 64.5944L22.9102 63.4144L24.1092 62.2384H32.5542V58.3164L37.7062 63.4144L32.5542 68.4304V64.5944H24.1092Z" fill="#232375"/>
<path fill-rule="evenodd" clip-rule="evenodd" d="M20.285 65.973L21.476 64.793L22.671 65.973V74.309H26.644L21.476 79.387L16.394 74.309H20.285V65.973Z" fill="#9CCC28"/>
<path d="M10.1328 52.1885H20.3948V62.3135H10.1328V52.1885Z" fill="#9CCC28"/>
<path d="M9.76611 51.8271V62.6761H20.7611V51.8271H9.76611ZM10.4991 52.5501H20.0281V61.9521H10.4991V52.5501Z" fill="white"/>
<path d="M22.5942 52.1885H32.8602V62.3135H22.5942V52.1885Z" fill="#912178"/>
<path d="M22.2271 51.8271V62.6761H33.2261V51.8271H22.2271ZM22.9601 52.5501H32.4931V61.9521H22.9601V52.5501Z" fill="white"/>
<path d="M22.5942 64.4814H32.8602V74.6064H22.5942V64.4814Z" fill="#EEA623"/>
<path d="M22.2271 64.1201V74.9681H33.2261V64.1201H22.2271ZM22.9601 64.8431H32.4931V74.2451H22.9601V64.8431Z" fill="white"/>
<path d="M10.1328 64.4814H20.3948V74.6064H10.1328V64.4814Z" fill="#232375"/>
<path d="M9.76611 64.1201V74.9681H20.7611V64.1201H9.76611ZM10.4991 64.8431H20.0281V74.2451H10.4991V64.8431Z" fill="white"/>
<path d="M4.90723 63.3992L5.16623 63.6552L12.6832 71.0712L20.4592 63.3992L12.6832 55.7282L4.90723 63.3992ZM5.94423 63.3992L12.6832 56.7502L19.4222 63.3992L12.6832 70.0482L5.94423 63.3992ZM13.7202 54.7042L13.9792 54.9602L21.4962 62.3762L29.2722 54.7042L21.4962 47.0322L13.7202 54.7042ZM14.7572 54.7042L21.4972 48.0552L28.2362 54.7042L21.4972 61.3532L14.7572 54.7042ZM30.3092 55.7272L22.5332 63.3942L22.7922 63.6502L30.3092 71.0702L38.0852 63.3942L30.3092 55.7272ZM30.3092 56.7502L37.0492 63.3952L30.3102 70.0472L23.5702 63.3942L30.3092 56.7502ZM13.7202 72.0902L13.9792 72.3462L21.4962 79.7622L29.2722 72.0902L21.4962 64.4222L13.7202 72.0902ZM14.7572 72.0902L21.4962 65.4452L28.2362 72.0902L21.4962 78.7392L14.7572 72.0902Z" fill="white"/>
</svg>
