<svg width="128" height="128" viewBox="0 0 128 128" fill="none" xmlns="http://www.w3.org/2000/svg">
<path d="M55.7891 71.121H49.0861C48.4042 71.1195 47.7258 71.0236 47.0701 70.836C45.7811 70.43 44.7611 69.504 44.0111 68.059C43.3311 66.743 42.9911 65.211 42.9911 63.461C42.9911 61.774 43.2921 60.281 43.9011 58.988C44.5651 57.547 45.5141 56.578 46.7411 56.051C47.6673 55.6547 48.6637 55.449 49.6711 55.446H55.7451V58.446H49.4331C48.4061 58.446 47.6601 59.024 47.1991 60.169C46.8361 61.067 46.6561 62.243 46.6561 63.689C46.6561 64.916 46.8861 65.951 47.3511 66.798C47.8861 67.802 48.6361 68.306 49.6051 68.306L55.7891 68.283V71.123M66.9531 71.193H61.6601C60.3711 71.193 59.2501 70.627 58.2971 69.49C57.3561 68.342 56.8871 67.017 56.8871 65.529C56.8871 63.9 57.3991 62.494 58.4261 61.318C59.4691 60.119 60.6251 59.525 61.8991 59.525H66.9301V61.92H63.2431C62.7821 61.92 62.3841 61.963 62.0521 62.057C61.7321 62.131 61.4351 62.287 61.1611 62.526C60.6531 62.975 60.4031 63.577 60.4031 64.339H66.9071V66.761H60.4231C60.4231 67.116 60.4581 67.429 60.5321 67.675C60.6181 67.917 60.7861 68.167 61.0321 68.417C61.2781 68.655 61.5671 68.819 61.8991 68.909C62.3131 68.992 62.7349 69.0299 63.1571 69.022H66.9541V71.194M79.3211 71.124H76.3051V63.487C76.3078 63.308 76.2633 63.1314 76.1761 62.975C76.0812 62.7968 75.9556 62.6367 75.8051 62.502C75.5316 62.2566 75.1766 62.1215 74.8091 62.123H71.8601V71.123H68.8441V59.523H74.6141C75.6411 59.523 76.3871 59.582 76.8481 59.703C77.5711 59.883 78.1491 60.273 78.5821 60.891C79.0653 61.5799 79.3232 62.4016 79.3201 63.243V71.122M87.9801 61.942H85.0501V67.208C85.0501 67.681 85.2101 68.079 85.5271 68.392C85.8901 68.705 86.3671 68.865 86.9611 68.865H87.8521V71.123H85.0511C84.647 71.129 84.2464 71.0481 83.8763 70.8858C83.5062 70.7234 83.1754 70.4834 82.9061 70.182C82.5738 69.8418 82.3401 69.4177 82.2301 68.955C82.1214 68.4322 82.0704 67.899 82.0781 67.365V61.943H80.1721V59.525H82.0781V55.447H85.0511V59.525H87.9811V61.943M105.68 63.267C105.68 66.31 104.864 68.486 103.231 69.806C101.899 70.865 99.9611 71.396 97.4181 71.396C94.5981 71.396 92.5161 70.787 91.1681 69.556C89.6951 68.216 88.9571 66.056 88.9571 63.087C88.9571 60.653 89.6131 58.755 90.9301 57.4C92.3641 55.916 94.5041 55.177 97.3521 55.177C100.489 55.177 102.704 55.884 103.989 57.31C105.118 58.56 105.68 60.548 105.68 63.267ZM101.821 63.177C101.821 61.638 101.466 60.411 100.759 59.501C99.9621 58.481 98.7821 57.978 97.2241 57.978C95.6891 57.978 94.5331 58.521 93.7511 59.615C93.1031 60.525 92.7741 61.713 92.7741 63.178C92.7741 64.866 93.0361 66.108 93.5551 66.912C94.2781 68.037 95.6181 68.592 97.5711 68.592C99.2191 68.592 100.376 68.053 101.04 66.959C101.56 66.107 101.821 64.85 101.821 63.178M123.044 66.268C123.044 67.635 122.603 68.795 121.72 69.741C120.837 70.687 119.72 71.147 118.361 71.147L107.623 71.124V68.308H116.475C117.065 68.308 117.565 68.167 117.971 67.878C118.432 67.55 118.662 67.105 118.662 66.538C118.662 65.206 117.752 64.542 115.932 64.542H111.463C110.174 64.542 109.049 64.136 108.08 63.315C107.111 62.487 106.627 61.444 106.627 60.17C106.627 58.772 107.096 57.631 108.037 56.768C108.99 55.885 110.24 55.448 111.787 55.448H122.049V58.139H113C112.594 58.139 112.184 58.315 111.766 58.674C111.36 59.018 111.157 59.424 111.157 59.908C111.153 60.1637 111.203 60.4174 111.304 60.6523C111.405 60.8873 111.555 61.0981 111.743 61.271C112.149 61.634 112.634 61.806 113.196 61.806H118.122C119.653 61.806 120.852 62.22 121.72 63.04C122.603 63.845 123.044 64.923 123.044 66.267M21.2231 47.874L17.8171 51.291H20.0961V60.274L21.2231 61.406L22.3381 60.288V51.35H24.6881L21.2231 47.874ZM9.81712 52.026V58.11L12.3181 55.654L18.2541 61.488H19.3621V60.58L13.4461 54.64L16.0531 52.026H9.81712ZM17.0871 52.026L14.4821 54.64L19.3621 59.538V52.026H17.0871ZM23.0721 52.084V59.55L27.9641 54.64L25.4191 52.084H23.0721ZM26.6871 52.318L29.0001 54.64L23.0731 60.59V61.546H24.1351L30.0331 55.625L32.5811 58.18V52.318H26.6871ZM30.0321 56.664L25.1691 61.546H32.5791V59.22L30.0321 56.664ZM12.3191 56.683L9.81712 59.14V61.487H17.2091L12.3191 56.683ZM9.08412 59.86L5.47412 63.407L9.08412 66.955V64.477H18.0771L19.1651 63.407L17.9541 62.219H9.08412V59.86ZM33.3141 59.955L33.3121 62.279H24.4401L23.2931 63.429L24.3351 64.476H33.2521V66.966L36.7761 63.429L33.3141 59.955ZM9.81812 65.208V67.675L12.3181 70.134L17.3311 65.208H9.81812ZM18.3761 65.208L12.3171 71.16L9.81712 68.704V74.728H15.8121L13.2361 72.197L19.3611 66.18V65.208H18.3761ZM23.0331 65.208V66.318L28.7591 71.94L29.0191 72.198L26.6951 74.481H32.5151V68.741L30.2911 70.976L30.0311 71.233L24.0291 65.208H23.0331ZM25.0631 65.208L30.0311 70.194L32.5151 67.702V65.208H25.0631ZM21.1281 65.473L20.0971 66.487V75.462H17.6051L21.1281 78.922L24.6521 75.462H22.3001V66.625L21.1281 65.473ZM19.3621 67.209L14.2831 72.197L16.8601 74.728H19.3621V67.209ZM23.0331 67.345V74.73H25.3971L27.9741 72.197L23.0331 67.345Z" fill="black"/>
</svg>
