<svg width="128" height="128" viewBox="0 0 128 128" fill="none" xmlns="http://www.w3.org/2000/svg">
<path d="M59.0328 64.192L31.7278 90.852L4.42578 64.192L31.7278 37.541L59.0328 64.192Z" fill="#932279"/>
<path d="M64.7202 58.736L37.8242 31.91L64.7202 5.08398L91.6102 31.91L64.7202 58.736Z" fill="#EFA724"/>
<path d="M91.6749 96.5631L64.3679 123.224L37.0679 96.5631L64.3699 69.9131L91.6749 96.5631Z" fill="#9CCD2A"/>
<path d="M97.3618 91.1081L70.4658 64.2771L97.3608 37.4561L124.256 64.2771L97.3618 91.1081Z" fill="#262577"/>
<path d="M70.0659 69.4844H106.527V105.885H70.0659V69.4844Z" fill="#EFA724"/>
<path d="M70.2158 22.4541H106.793V58.6851H70.2158V22.4541Z" fill="#932279"/>
<path d="M21.1001 69.4844H59.1841V107.237H21.1001V69.4844Z" fill="#262577"/>
<path d="M21.1001 20.9277H59.1841V58.4657H21.1001V20.9277Z" fill="#9CCD2A"/>
<path d="M64.7219 0.463867L48.2679 17.2269H19.7389V45.6219L2.48291 62.8369L19.7389 80.0659V108.215H47.4359L64.3659 125.116L81.3009 108.215H109.284V80.1479L126.174 62.9189L109.514 45.9459V17.4539H81.3919L64.7219 0.463867ZM64.7169 4.36387L77.5579 17.4529H68.8479V51.0979L64.7179 55.3039L60.5429 51.0469V17.2269H52.0979L64.7169 4.36387ZM22.4569 19.9969H45.5639L35.9029 29.8379L57.8229 52.1939V55.6119H53.7179L31.7229 33.6529L22.4579 42.8999L22.4569 19.9969ZM49.3939 19.9969H57.8239V48.2739L39.7429 29.8359L49.3939 19.9969ZM71.5709 20.2119H80.2659L89.6969 29.8379L71.5689 48.3199L71.5709 20.2119ZM84.0999 20.2119H106.797V43.1629L97.3609 33.5429L75.5049 55.8339H71.5709V52.2349L93.5319 29.8369L84.0999 20.2119ZM97.3609 37.4569L106.797 47.0719V55.8329H79.3389L97.3609 37.4569ZM31.7279 37.5239L49.8449 55.6129H22.4569V46.7799L31.7279 37.5239ZM19.7399 49.4869V58.3649H52.6039L57.0939 62.8369L53.0639 66.8639H19.7389V76.1919L6.36391 62.8369L19.7399 49.4869ZM109.516 49.8449L122.341 62.9189L109.284 76.2339V66.8599H76.2459L72.3859 62.9199L76.6349 58.5909H109.513L109.516 49.8449ZM60.5419 54.9619L64.7169 59.2089L68.8469 55.0079V58.5889H72.8019L68.5529 62.9179L72.4129 66.8579H68.7129V71.0799L64.3669 66.7409L60.5479 70.5579V66.8639H56.9399L60.9699 62.8369L60.0039 61.8809L56.4799 58.3649H60.5449L60.5419 54.9619ZM22.4619 69.6179H50.2999L31.7279 88.1609L22.4629 78.9049L22.4619 69.6179ZM54.1739 69.6179H57.8239V73.2769L35.1269 95.9279L44.6729 105.455H22.4619V82.7769L31.7229 92.0239L54.1739 69.6179ZM71.4299 69.6179H75.1189L97.3599 92.2979L98.3209 91.3309L106.561 82.9179V105.464H84.0599L93.6109 95.9309L92.6449 94.9589L71.4299 73.7949V69.6179ZM78.9489 69.6179H106.562V79.0079L97.3609 88.3869L78.9489 69.6179ZM64.3719 70.6159L68.7119 74.9509V108.218H77.4279L64.3729 121.246L51.3179 108.218H60.5489V74.4309L64.3719 70.6159ZM57.8249 77.1499V105.457H48.5549L39.0089 95.9299L57.8249 77.1499ZM71.4309 77.6619L89.7369 95.9299L80.1859 105.463H71.4299L71.4309 77.6619Z" fill="white"/>
</svg>
