<svg width="128" height="128" viewBox="0 0 128 128" fill="none" xmlns="http://www.w3.org/2000/svg">
<path d="M64.6328 5.72266L52.0128 18.5857H60.4568V52.4037L64.6328 56.6617L68.7628 52.4547V18.8107H77.4728L64.6328 5.72266ZM22.3698 21.3547L22.3718 44.2577L31.6378 35.0117L53.6328 56.9697H57.7378V53.5517L35.8178 31.1937L45.4778 21.3537H22.3718L22.3698 21.3547ZM49.3078 21.3547L39.6578 31.1927L57.7378 49.6327V21.3547H49.3078ZM71.4848 21.5697L71.4828 49.6777L89.6098 31.1947L80.1798 21.5697H71.4848ZM84.8798 22.4527L93.4458 31.1947L71.4858 53.5937V57.1907H75.4188L97.2738 34.9007L106.712 44.5207V22.4527H84.8798ZM97.2738 38.8137L79.2538 57.1907H106.713V48.4297L97.2748 38.8137H97.2738ZM31.6418 38.8827L22.3698 48.1387V56.9707H49.7598L31.6428 38.8827H31.6418ZM19.6538 50.8457L6.27979 64.1957L19.6538 77.5497V68.2217H52.9798L57.0098 64.1937L52.5198 59.7217H19.6548V50.8447L19.6538 50.8457ZM109.432 51.2027L109.428 59.9487H76.5498L72.2998 64.2767L76.1598 68.2187H109.198V77.5917L122.255 64.2767L109.431 51.2027H109.432ZM22.3768 70.9767L22.3788 80.2637L31.6428 89.5197L50.2148 70.9767H22.3768ZM54.0898 70.9767L31.6388 93.3827L22.3768 84.1347V106.812H44.5868L35.0428 97.2847L57.7378 74.6347V70.9767H54.0898ZM71.3458 70.9767V75.1517L92.5598 96.3157L93.5238 97.2887L84.9138 105.885H106.476V84.2747L98.2358 92.6887L97.2738 93.6557L75.0318 70.9757H71.3448L71.3458 70.9767ZM78.8628 70.9767L97.2748 89.7437L106.477 80.3647V70.9767H78.8628ZM64.2868 71.9747L60.4648 75.7887V109.576H51.2318L64.2868 122.604L77.3438 109.576H68.6268V76.3097L64.2868 71.9757V71.9747ZM57.7398 78.5077L38.9238 97.2877L48.4708 106.814H57.7408V78.5077H57.7398ZM71.3458 79.0197V106.82H80.1018L89.6518 97.2867L71.3458 79.0197Z" fill="black"/>
</svg>
