<svg width="128" height="128" viewBox="0 0 128 128" fill="none" xmlns="http://www.w3.org/2000/svg">
<path d="M40.4201 90.4601C39.4566 90.2182 38.5189 89.8833 37.6201 89.4601C35.5701 92.6801 30.8201 100.83 30.1401 108.21H42.4401C40.9164 102.421 40.236 96.4432 40.4201 90.4601ZM80.2801 83.9201C77.8148 89.4444 75.9021 95.1991 74.5701 101.1C74.0401 103.48 75.6501 105.85 75.3501 108.21H90.8201C86.7401 96.9501 85.8201 80.5701 83.7101 74.0201C83.6601 73.9301 80.3401 84.0001 80.2801 83.9201Z" fill="#AB710A"/>
<path d="M124.32 45.1899C120.8 40.1899 112.77 35.9899 110.9 30.2799C110.42 28.8199 110.34 25.8199 111.26 24.4199C112.18 23.0199 110.72 23.4199 110.72 23.4199C108.72 24.1899 107.86 21.9899 107.86 21.9899C107.56 21.2199 107.97 18.8699 106.25 20.1499C103.15 22.4799 104.17 28.1499 104.75 30.4299C105.807 34.3214 107.838 37.8797 110.65 40.7699C111.65 41.6999 117.95 48.6299 117.09 52.1799C117.059 52.7892 116.834 53.3725 116.447 53.8442C116.06 54.3158 115.532 54.6508 114.94 54.7999C110.35 55.7199 108.86 50.0899 108.86 50.0899C105.42 35.3999 99.86 30.2599 99.86 30.2599C90.8435 29.9324 81.8213 30.7252 73 32.6199C38.63 31.3299 12.77 41.8899 12.77 41.8899C5.21002 52.7399 0.77002 72.8899 0.77002 72.8899C0.77002 72.8899 0.77002 72.9899 0.84002 72.9999C0.891243 73.0052 0.942939 72.9959 0.989008 72.9728C1.03508 72.9498 1.0736 72.9141 1.10002 72.8699C3.93449 69.3161 7.14294 66.0775 10.67 63.2099C9.95002 91.2099 16.29 108.21 16.29 108.21H28.29C29.14 98.1199 37.06 86.9999 37.06 86.9999C41.52 90.3799 51.6 89.3799 51.6 89.3799C53.38 96.1199 57 108.2 57 108.2H71.46C72.7112 98.9708 75.3652 89.9872 79.33 81.5599C79.33 81.5599 82.91 73.4399 83 70.9999C83.23 66.7499 87.25 65.4899 89.43 65.4899C91.61 65.4899 101.53 71.0299 108.94 70.6599C121.85 70.0099 126.94 64.0399 127.19 57.2299C127.39 52.5499 126.29 47.9999 124.32 45.1899ZM82.83 59.6199C82.7649 59.8113 82.6741 59.9929 82.56 60.1599C82.4296 60.3547 82.2549 60.5158 82.05 60.6299C81.8259 60.7488 81.5734 60.8042 81.32 60.7899C81.0935 60.7748 80.8708 60.7242 80.66 60.6399C79.9576 60.319 79.3204 59.8715 78.78 59.3199C78.51 59.0699 78.26 58.8099 78.02 58.5599L77.32 57.8299C76.8842 57.4612 76.3818 57.1795 75.84 56.9999C75.25 56.7899 74.61 56.6199 73.94 56.4599C73.27 56.2999 72.6 56.1299 71.87 55.8899C71.6721 55.8254 71.4783 55.7486 71.29 55.6599L71 55.5499C70.865 55.4722 70.7378 55.3818 70.62 55.2799C70.3925 55.0823 70.2028 54.8451 70.06 54.5799C69.935 54.3464 69.8408 54.0976 69.78 53.8399C69.6875 53.4064 69.6539 52.9623 69.68 52.5199C69.6974 52.1307 69.7408 51.7432 69.81 51.3599C69.9472 50.6387 70.1309 49.9272 70.36 49.2299C70.58 48.5632 70.8233 47.8965 71.09 47.2299C71.22 46.8999 71.35 46.5799 71.5 46.2299C71.6556 45.8876 71.8292 45.5538 72.02 45.2299C72.7737 43.9733 73.7656 42.8761 74.94 41.9999C75.5107 41.5704 76.1161 41.1891 76.75 40.8599C77.3869 40.524 78.0572 40.2559 78.75 40.0599C77.625 40.8448 76.5918 41.7539 75.67 42.7699C74.7728 43.7231 74.0335 44.8135 73.48 45.9999C73.3504 46.2901 73.2369 46.5872 73.14 46.8899L72.83 47.8899C72.63 48.5399 72.43 49.1899 72.27 49.8399C72.0989 50.4686 71.962 51.1062 71.86 51.7499C71.8126 52.0479 71.7826 52.3484 71.77 52.6499C71.7567 52.9014 71.7768 53.1536 71.83 53.3999C71.8487 53.5265 71.9044 53.6447 71.99 53.7399L72.13 53.8199L72.52 53.9799C73.1 54.1999 73.77 54.3699 74.44 54.5799C75.138 54.788 75.8226 55.0384 76.49 55.3299C77.2527 55.6417 77.936 56.12 78.49 56.7299C78.74 57.0399 78.92 57.3099 79.13 57.5899L79.74 58.3999C79.94 58.6599 80.15 58.9099 80.37 59.1399C80.569 59.3596 80.794 59.5544 81.04 59.7199C81.1251 59.7877 81.2229 59.8377 81.3277 59.8669C81.4325 59.8961 81.5421 59.9039 81.65 59.8899C81.9014 59.796 82.1108 59.615 82.24 59.3799C82.4174 59.0994 82.5648 58.8011 82.68 58.4899C82.81 58.1699 82.91 57.8399 83.02 57.4899C83.0863 58.2055 83.0219 58.9272 82.83 59.6199ZM95.61 50.6999C95.4664 51.1342 95.1904 51.5126 94.8208 51.782C94.4511 52.0515 94.0064 52.1984 93.5489 52.2022C93.0915 52.206 92.6444 52.0665 92.2703 51.8032C91.8962 51.54 91.614 51.1662 91.4632 50.7343C91.3124 50.3024 91.3006 49.8342 91.4295 49.3953C91.5583 48.9564 91.8214 48.5689 92.1818 48.2871C92.5421 48.0053 92.9816 47.8435 93.4387 47.8242C93.8957 47.805 94.3473 47.9294 94.73 48.1799C95.1749 48.4037 95.5154 48.7917 95.6796 49.2619C95.8438 49.7321 95.8188 50.2477 95.61 50.6999Z" fill="#E3A835"/>
<path opacity="0.45" d="M124.32 45.1899C120.8 40.1899 112.77 35.9899 110.9 30.2799C110.42 28.8199 110.34 25.8199 111.26 24.4199C112.18 23.0199 110.72 23.4199 110.72 23.4199C108.72 24.1899 107.86 21.9899 107.86 21.9899C107.56 21.2199 107.97 18.8699 106.25 20.1499C103.15 22.4799 104.17 28.1499 104.75 30.4299C105.807 34.3214 107.838 37.8797 110.65 40.7699C111.65 41.6999 117.95 48.6299 117.09 52.1799C117.059 52.7892 116.834 53.3725 116.447 53.8442C116.06 54.3158 115.532 54.6508 114.94 54.7999C110.35 55.7199 108.86 50.0899 108.86 50.0899C105.42 35.3999 99.86 30.2599 99.86 30.2599C90.8435 29.9324 81.8213 30.7252 73 32.6199C38.63 31.3299 12.77 41.8899 12.77 41.8899C5.21002 52.7399 0.77002 72.8899 0.77002 72.8899C0.77002 72.8899 0.77002 72.9899 0.84002 72.9999C0.891243 73.0052 0.942939 72.9959 0.989008 72.9728C1.03508 72.9498 1.0736 72.9141 1.10002 72.8699C3.93449 69.3161 7.14294 66.0775 10.67 63.2099C9.95002 91.2099 16.29 108.21 16.29 108.21H28.29C29.14 98.1199 37.06 86.9999 37.06 86.9999C41.52 90.3799 51.6 89.3799 51.6 89.3799C53.38 96.1199 57 108.2 57 108.2H71.46C72.7112 98.9708 75.3652 89.9872 79.33 81.5599C79.33 81.5599 82.91 73.4399 83 70.9999C83.23 66.7499 87.25 65.4899 89.43 65.4899C91.61 65.4899 101.53 71.0299 108.94 70.6599C121.85 70.0099 126.94 64.0399 127.19 57.2299C127.39 52.5499 126.29 47.9999 124.32 45.1899ZM82.83 59.6199C82.7649 59.8113 82.6741 59.9929 82.56 60.1599C82.4296 60.3547 82.2549 60.5158 82.05 60.6299C81.8259 60.7488 81.5734 60.8042 81.32 60.7899C81.0935 60.7748 80.8708 60.7242 80.66 60.6399C79.9576 60.319 79.3204 59.8715 78.78 59.3199C78.51 59.0699 78.26 58.8099 78.02 58.5599L77.32 57.8299C76.8842 57.4612 76.3818 57.1795 75.84 56.9999C75.25 56.7899 74.61 56.6199 73.94 56.4599C73.27 56.2999 72.6 56.1299 71.87 55.8899C71.6721 55.8254 71.4783 55.7486 71.29 55.6599L71 55.5499C70.865 55.4722 70.7378 55.3818 70.62 55.2799C70.3925 55.0823 70.2028 54.8451 70.06 54.5799C69.935 54.3464 69.8408 54.0976 69.78 53.8399C69.6875 53.4064 69.6539 52.9623 69.68 52.5199C69.6974 52.1307 69.7408 51.7432 69.81 51.3599C69.9472 50.6387 70.1309 49.9272 70.36 49.2299C70.58 48.5632 70.8233 47.8965 71.09 47.2299C71.22 46.8999 71.35 46.5799 71.5 46.2299C71.6556 45.8876 71.8292 45.5538 72.02 45.2299C72.7737 43.9733 73.7656 42.8761 74.94 41.9999C75.5107 41.5704 76.1161 41.1891 76.75 40.8599C77.3869 40.524 78.0572 40.2559 78.75 40.0599C77.625 40.8448 76.5918 41.7539 75.67 42.7699C74.7728 43.7231 74.0335 44.8135 73.48 45.9999C73.3504 46.2901 73.2369 46.5872 73.14 46.8899L72.83 47.8899C72.63 48.5399 72.43 49.1899 72.27 49.8399C72.0989 50.4686 71.962 51.1062 71.86 51.7499C71.8126 52.0479 71.7826 52.3484 71.77 52.6499C71.7567 52.9014 71.7768 53.1536 71.83 53.3999C71.8487 53.5265 71.9044 53.6447 71.99 53.7399L72.13 53.8199L72.52 53.9799C73.1 54.1999 73.77 54.3699 74.44 54.5799C75.138 54.788 75.8226 55.0384 76.49 55.3299C77.2527 55.6417 77.936 56.12 78.49 56.7299C78.74 57.0399 78.92 57.3099 79.13 57.5899L79.74 58.3999C79.94 58.6599 80.15 58.9099 80.37 59.1399C80.569 59.3596 80.794 59.5544 81.04 59.7199C81.1251 59.7877 81.2229 59.8377 81.3277 59.8669C81.4325 59.8961 81.5421 59.9039 81.65 59.8899C81.9014 59.796 82.1108 59.615 82.24 59.3799C82.4174 59.0994 82.5648 58.8011 82.68 58.4899C82.81 58.1699 82.91 57.8399 83.02 57.4899C83.0863 58.2055 83.0219 58.9272 82.83 59.6199ZM95.61 50.6999C95.4664 51.1342 95.1904 51.5126 94.8208 51.782C94.4511 52.0515 94.0064 52.1984 93.5489 52.2022C93.0915 52.206 92.6444 52.0665 92.2703 51.8032C91.8962 51.54 91.614 51.1662 91.4632 50.7343C91.3124 50.3024 91.3006 49.8342 91.4295 49.3953C91.5583 48.9564 91.8214 48.5689 92.1818 48.2871C92.5421 48.0053 92.9816 47.8435 93.4387 47.8242C93.8957 47.805 94.3473 47.9294 94.73 48.1799C95.1749 48.4037 95.5154 48.7917 95.6796 49.2619C95.8438 49.7321 95.8188 50.2477 95.61 50.6999Z" fill="url(#paint0_radial_3_7091)"/>
<defs>
<radialGradient id="paint0_radial_3_7091" cx="0" cy="0" r="1" gradientUnits="userSpaceOnUse" gradientTransform="translate(93.44 34.4999) scale(69.83 69.83)">
<stop stop-color="white"/>
<stop offset="1" stop-color="#AB710A"/>
</radialGradient>
</defs>
</svg>
