<svg width="128" height="128" viewBox="0 0 128 128" fill="none" xmlns="http://www.w3.org/2000/svg">
<path d="M18.3999 70.9999C18.0248 70.9053 17.6598 70.7747 17.3099 70.6099C16.5099 71.8699 14.6499 75.0599 14.3799 77.9399H19.1899C18.5943 75.6766 18.3282 73.3392 18.3999 70.9999ZM33.9999 68.4299C33.0333 70.5905 32.283 72.8415 31.7599 75.1499C31.5499 76.0799 32.1799 77.0099 32.0599 77.9299H38.1099C36.5199 73.5299 36.1099 67.1199 35.3299 64.5599C35.3099 64.5199 33.9999 68.4599 33.9999 68.4299Z" fill="#AB710A"/>
<path d="M51.2199 53.2698C49.8399 51.2698 46.6999 49.6698 45.9699 47.4398C45.7412 46.6843 45.7908 45.8718 46.1099 45.1498C46.4399 44.6498 45.8999 44.7698 45.8999 44.7698C45.1199 45.0698 44.7799 44.2098 44.7799 44.2098C44.6599 43.9098 44.7799 42.9898 44.1499 43.4898C42.9399 44.3998 43.3399 46.6098 43.5599 47.4898C43.9812 48.9962 44.7757 50.372 45.8699 51.4898C46.2399 51.8598 48.7299 54.5598 48.3899 55.9598C48.3735 56.1939 48.2834 56.4167 48.1325 56.5964C47.9816 56.7761 47.7776 56.9033 47.5499 56.9598C45.7499 57.3198 45.1699 55.1198 45.1699 55.1198C43.8199 49.3698 41.6499 47.3598 41.6499 47.3598C38.1224 47.2271 34.5921 47.5328 31.1399 48.2698C23.1163 47.9828 15.1128 49.2493 7.56988 51.9998C4.56988 56.2398 2.87988 64.1198 2.87988 64.1198C2.89537 64.1277 2.9125 64.1318 2.92988 64.1318C2.94727 64.1318 2.9644 64.1277 2.97988 64.1198C4.08747 62.7294 5.34135 61.4621 6.71988 60.3398C6.47988 71.2598 8.99988 77.9298 8.99988 77.9298H13.6999C14.0299 73.9898 17.1299 69.6198 17.1299 69.6198C18.8799 70.9398 22.8199 70.5498 22.8199 70.5498C23.5099 73.1998 24.9299 77.9198 24.9299 77.9198H30.5899C31.0799 74.3099 32.1186 70.796 33.6699 67.4998C34.2825 66.1755 34.768 64.7959 35.1199 63.3798C35.1784 62.7653 35.4723 62.1973 35.9402 61.7947C36.408 61.392 37.0135 61.186 37.6299 61.2198C38.4799 61.2198 42.3599 63.3898 45.2599 63.2198C50.3099 62.9698 52.2599 60.6298 52.3999 57.9698C52.496 56.3194 52.0842 54.6791 51.2199 53.2698ZM34.9999 58.9198C34.973 58.9945 34.936 59.0652 34.8899 59.1298C34.8382 59.2047 34.7697 59.2663 34.6899 59.3098C34.6007 59.3564 34.5003 59.3772 34.3999 59.3698C34.3106 59.3638 34.2228 59.3435 34.1399 59.3098C33.8632 59.1837 33.6123 59.0074 33.3999 58.7898L33.0999 58.4898L32.8299 58.1998C32.6579 58.0607 32.4611 57.9556 32.2499 57.8898C32.0199 57.8098 31.7699 57.7398 31.5099 57.6798C31.2499 57.6198 30.9899 57.5498 30.6999 57.4598L30.4799 57.3698L30.3599 57.3098L30.2099 57.2098C30.1204 57.1304 30.0459 57.0356 29.9899 56.9298C29.9407 56.8384 29.9037 56.7409 29.8799 56.6398C29.8573 56.4706 29.8573 56.2991 29.8799 56.1298C29.8861 55.9755 29.9028 55.8218 29.9299 55.6698C29.9852 55.3887 30.0587 55.1114 30.1499 54.8398C30.2365 54.5731 30.3332 54.3131 30.4399 54.0598L30.5999 53.6698C30.6597 53.5364 30.7264 53.4062 30.7999 53.2798C31.0805 52.7862 31.4541 52.3515 31.8999 51.9998C32.1235 51.8301 32.361 51.6796 32.6099 51.5498C32.8551 51.42 33.1132 51.3162 33.3799 51.2398C32.938 51.5466 32.5321 51.9021 32.1699 52.2998C31.8207 52.6751 31.5337 53.1039 31.3199 53.5698C31.2702 53.684 31.2268 53.8008 31.1899 53.9198L31.0699 54.2998C30.9899 54.5498 30.9199 54.8098 30.8499 55.0598C30.7829 55.3067 30.7295 55.5571 30.6899 55.8098C30.6832 55.9264 30.6832 56.0432 30.6899 56.1598C30.6772 56.2561 30.6772 56.3536 30.6899 56.4498C30.6968 56.4981 30.7176 56.5433 30.7499 56.5798H30.8099L30.9599 56.6398C31.1899 56.7198 31.4499 56.7898 31.7099 56.8798C31.9822 56.9602 32.2493 57.057 32.5099 57.1698C32.8112 57.2914 33.0813 57.4794 33.2999 57.7198C33.3999 57.8398 33.4699 57.9498 33.5499 58.0598L33.7899 58.3798L34.0399 58.6698C34.1169 58.7567 34.2042 58.834 34.2999 58.8998C34.3331 58.927 34.3715 58.9472 34.4128 58.9592C34.454 58.9712 34.4972 58.9748 34.5399 58.9698C34.6379 58.9327 34.7195 58.8617 34.7699 58.7698C34.8386 58.6594 34.8956 58.5421 34.9399 58.4198C34.9899 58.2998 35.0299 58.1698 35.0699 58.0298C35.1044 58.3282 35.0806 58.6305 34.9999 58.9198ZM39.9999 55.4298C39.9412 55.5991 39.8311 55.7459 39.685 55.8496C39.5389 55.9533 39.364 56.0088 39.1848 56.0083C39.0056 56.0078 38.831 55.9513 38.6855 55.8467C38.54 55.7422 38.4307 55.5948 38.373 55.4251C38.3153 55.2555 38.3121 55.072 38.3638 54.9004C38.4154 54.7288 38.5194 54.5777 38.6611 54.468C38.8028 54.3584 38.9753 54.2958 39.1544 54.2889C39.3334 54.2821 39.5102 54.3313 39.6599 54.4298C39.837 54.518 39.9721 54.6725 40.0358 54.8598C40.0994 55.0471 40.0865 55.252 39.9999 55.4298Z" fill="#E3A835"/>
<path opacity="0.45" d="M51.2199 53.2698C49.8399 51.2698 46.6999 49.6698 45.9699 47.4398C45.7412 46.6843 45.7908 45.8718 46.1099 45.1498C46.4399 44.6498 45.8999 44.7698 45.8999 44.7698C45.1199 45.0698 44.7799 44.2098 44.7799 44.2098C44.6599 43.9098 44.7799 42.9898 44.1499 43.4898C42.9399 44.3998 43.3399 46.6098 43.5599 47.4898C43.9812 48.9962 44.7757 50.372 45.8699 51.4898C46.2399 51.8598 48.7299 54.5598 48.3899 55.9598C48.3735 56.1939 48.2834 56.4167 48.1325 56.5964C47.9816 56.7761 47.7776 56.9033 47.5499 56.9598C45.7499 57.3198 45.1699 55.1198 45.1699 55.1198C43.8199 49.3698 41.6499 47.3598 41.6499 47.3598C38.1224 47.2271 34.5921 47.5328 31.1399 48.2698C23.1163 47.9828 15.1128 49.2493 7.56988 51.9998C4.56988 56.2398 2.87988 64.1198 2.87988 64.1198C2.89537 64.1277 2.9125 64.1318 2.92988 64.1318C2.94727 64.1318 2.9644 64.1277 2.97988 64.1198C4.08747 62.7294 5.34135 61.4621 6.71988 60.3398C6.47988 71.2598 8.99988 77.9298 8.99988 77.9298H13.6999C14.0299 73.9898 17.1299 69.6198 17.1299 69.6198C18.8799 70.9398 22.8199 70.5498 22.8199 70.5498C23.5099 73.1998 24.9299 77.9198 24.9299 77.9198H30.5899C31.0799 74.3099 32.1186 70.796 33.6699 67.4998C34.2825 66.1755 34.768 64.7959 35.1199 63.3798C35.1784 62.7653 35.4723 62.1973 35.9402 61.7947C36.408 61.392 37.0135 61.186 37.6299 61.2198C38.4799 61.2198 42.3599 63.3898 45.2599 63.2198C50.3099 62.9698 52.2599 60.6298 52.3999 57.9698C52.496 56.3194 52.0842 54.6791 51.2199 53.2698ZM34.9999 58.9198C34.973 58.9945 34.936 59.0652 34.8899 59.1298C34.8382 59.2047 34.7697 59.2663 34.6899 59.3098C34.6007 59.3564 34.5003 59.3772 34.3999 59.3698C34.3106 59.3638 34.2228 59.3435 34.1399 59.3098C33.8632 59.1837 33.6123 59.0074 33.3999 58.7898L33.0999 58.4898L32.8299 58.1998C32.6579 58.0607 32.4611 57.9556 32.2499 57.8898C32.0199 57.8098 31.7699 57.7398 31.5099 57.6798C31.2499 57.6198 30.9899 57.5498 30.6999 57.4598L30.4799 57.3698L30.3599 57.3098L30.2099 57.2098C30.1204 57.1304 30.0459 57.0356 29.9899 56.9298C29.9407 56.8384 29.9037 56.7409 29.8799 56.6398C29.8573 56.4706 29.8573 56.2991 29.8799 56.1298C29.8861 55.9755 29.9028 55.8218 29.9299 55.6698C29.9852 55.3887 30.0587 55.1114 30.1499 54.8398C30.2365 54.5731 30.3332 54.3131 30.4399 54.0598L30.5999 53.6698C30.6597 53.5364 30.7264 53.4062 30.7999 53.2798C31.0805 52.7862 31.4541 52.3515 31.8999 51.9998C32.1235 51.8301 32.361 51.6796 32.6099 51.5498C32.8551 51.42 33.1132 51.3162 33.3799 51.2398C32.938 51.5466 32.5321 51.9021 32.1699 52.2998C31.8207 52.6751 31.5337 53.1039 31.3199 53.5698C31.2702 53.684 31.2268 53.8008 31.1899 53.9198L31.0699 54.2998C30.9899 54.5498 30.9199 54.8098 30.8499 55.0598C30.7829 55.3067 30.7295 55.5571 30.6899 55.8098C30.6832 55.9264 30.6832 56.0432 30.6899 56.1598C30.6772 56.2561 30.6772 56.3536 30.6899 56.4498C30.6968 56.4981 30.7176 56.5433 30.7499 56.5798H30.8099L30.9599 56.6398C31.1899 56.7198 31.4499 56.7898 31.7099 56.8798C31.9822 56.9602 32.2493 57.057 32.5099 57.1698C32.8112 57.2914 33.0813 57.4794 33.2999 57.7198C33.3999 57.8398 33.4699 57.9498 33.5499 58.0598L33.7899 58.3798L34.0399 58.6698C34.1169 58.7567 34.2042 58.834 34.2999 58.8998C34.3331 58.927 34.3715 58.9472 34.4128 58.9592C34.454 58.9712 34.4972 58.9748 34.5399 58.9698C34.6379 58.9327 34.7195 58.8617 34.7699 58.7698C34.8386 58.6594 34.8956 58.5421 34.9399 58.4198C34.9899 58.2998 35.0299 58.1698 35.0699 58.0298C35.1044 58.3282 35.0806 58.6305 34.9999 58.9198ZM39.9999 55.4298C39.9412 55.5991 39.8311 55.7459 39.685 55.8496C39.5389 55.9533 39.364 56.0088 39.1848 56.0083C39.0056 56.0078 38.831 55.9513 38.6855 55.8467C38.54 55.7422 38.4307 55.5948 38.373 55.4251C38.3153 55.2555 38.3121 55.072 38.3638 54.9004C38.4154 54.7288 38.5194 54.5777 38.6611 54.468C38.8028 54.3584 38.9753 54.2958 39.1544 54.2889C39.3334 54.2821 39.5102 54.3313 39.6599 54.4298C39.837 54.518 39.9721 54.6725 40.0358 54.8598C40.0994 55.0471 40.0865 55.252 39.9999 55.4298Z" fill="url(#paint0_radial_3_7253)"/>
<path d="M118.41 61.43C117.389 61.4562 116.384 61.6875 115.455 62.1101C114.525 62.5327 113.69 63.138 113 63.89L110.54 61.77H109.4V65.34C108.636 64.1446 107.583 63.1608 106.339 62.4793C105.094 61.7979 103.699 61.4407 102.28 61.4407C100.861 61.4407 99.4652 61.7979 98.2209 62.4793C96.9766 63.1608 95.9239 64.1446 95.1599 65.34V57L90.8798 53.29H89.7098V61.81H86.4799L82.6599 69.32L78.8198 61.81H72.9998L74.2598 64.29C73.4866 63.3955 72.5279 62.6799 71.4504 62.1929C70.3729 61.7059 69.2023 61.4593 68.0198 61.47C62.7298 61.47 59.1598 65.25 59.1598 69.9C59.1606 70.3995 59.2041 70.898 59.2898 71.39C57.9133 72.1779 56.3559 72.5948 54.7698 72.6C54.1969 72.6213 53.6257 72.5236 53.0924 72.3132C52.5591 72.1027 52.0752 71.784 51.6711 71.3772C51.2671 70.9703 50.9518 70.4842 50.745 69.9494C50.5383 69.4147 50.4446 68.8428 50.4698 68.27C50.4464 67.6958 50.5411 67.1229 50.748 66.5868C50.9548 66.0506 51.2696 65.5626 51.6726 65.153C52.0757 64.7434 52.5585 64.4208 53.0913 64.2053C53.624 63.9898 54.1953 63.8859 54.7698 63.9C57.2498 63.9 58.3598 64.9 59.7698 65.38V59.9C58.1381 58.7117 56.1576 58.0995 54.1398 58.16C53.6687 58.1596 53.1979 58.1863 52.7298 58.24C52.5998 59.95 51.5298 63.39 45.1598 63.71H44.6098C43.9083 65.1097 43.5453 66.6545 43.5498 68.22C43.5498 73.74 47.9598 78.29 54.1398 78.29C56.1678 78.3453 58.154 77.7067 59.7698 76.48V73.13C61.0198 76.13 64.0398 78.13 68.3798 78.13C69.6799 78.1362 70.9683 77.8839 72.17 77.3877C73.3717 76.8916 74.4628 76.1616 75.3798 75.24L73.3198 72.87C72.2603 73.7753 70.903 74.2562 69.5098 74.22C66.5098 74.22 64.6499 72.68 64.7999 70.5H75.9998C76.1845 69.4687 76.1573 68.4105 75.9198 67.39L79.7398 75L74.8198 84.69H80.4498L89.7098 66.52V77.83H95.1599V74.28C95.9239 75.4755 96.9766 76.4593 98.2209 77.1407C99.4652 77.8222 100.861 78.1794 102.28 78.1794C103.699 78.1794 105.094 77.8222 106.339 77.1407C107.583 76.4593 108.636 75.4755 109.4 74.28V77.85H114.88V67.43C115.126 66.8955 115.521 66.4433 116.018 66.1276C116.514 65.8119 117.091 65.6461 117.68 65.65C119.03 65.65 119.68 66.48 119.68 69V77.83H125.16V67.49C125.12 64.35 123.21 61.43 118.41 61.43ZM65.0698 67.34C65.2594 66.673 65.6483 66.0798 66.1845 65.6401C66.7208 65.2004 67.3786 64.9352 68.0698 64.88C68.4077 64.8486 68.7483 64.8895 69.0691 64.9999C69.3899 65.1104 69.6836 65.2878 69.9305 65.5205C70.1774 65.7533 70.3719 66.0359 70.5011 66.3496C70.6303 66.6633 70.6912 67.0009 70.6798 67.34H65.0698ZM102.26 74.2C100.81 74.2 99.5798 72.2 99.5798 69.8C99.5798 67.4 100.81 65.4 102.26 65.4C103.71 65.4 104.97 67.4 104.97 69.8C104.97 72.2 103.74 74.2 102.26 74.2Z" fill="url(#paint1_radial_3_7253)"/>
<defs>
<radialGradient id="paint0_radial_3_7253" cx="0" cy="0" r="1" gradientUnits="userSpaceOnUse" gradientTransform="translate(39.1399 49.0998) scale(27.32 27.32)">
<stop stop-color="white"/>
<stop offset="1" stop-color="#AB710A"/>
</radialGradient>
<radialGradient id="paint1_radial_3_7253" cx="0" cy="0" r="1" gradientUnits="userSpaceOnUse" gradientTransform="translate(46.3498 54.91) scale(14.18)">
<stop stop-color="#D5D5D5"/>
<stop offset="1" stop-color="#141006"/>
</radialGradient>
</defs>
</svg>
