<svg width="128" height="128" viewBox="0 0 128 128" fill="none" xmlns="http://www.w3.org/2000/svg">
<path d="M63.6242 87.1078C76.1246 87.1078 86.2582 76.9743 86.2582 64.4738C86.2582 51.9734 76.1246 41.8398 63.6242 41.8398C51.1238 41.8398 40.9902 51.9734 40.9902 64.4738C40.9902 76.9743 51.1238 87.1078 63.6242 87.1078Z" fill="#CE4E4E"/>
<path d="M64.0001 37.0002H118.186C108.242 17.0002 87.5461 3.36719 63.6241 3.36719C44.2571 3.36719 27.0051 12.5402 15.8601 26.6382L36.9831 62.3862C38.0151 48.4802 48.0001 37.0702 64.0001 37.0002ZM120.126 41.0002H78.2941C85.6971 47.0002 90.5931 54.8842 90.5931 64.3692C90.5931 69.0322 89.4101 73.0002 87.3251 78.0002H87.3401L59.5831 125.511C60.9181 125.598 62.2651 125.489 63.6231 125.489C97.2321 125.489 124.478 97.7432 124.478 64.1342C124.479 56.1342 122.932 49.0002 120.126 41.0002ZM63.6241 91.4452C51.9521 91.4452 42.0131 84.0312 38.2561 73.6562L13.0701 30.5852C6.56509 40.2712 2.76709 51.9302 2.76709 64.4742C2.76709 95.1062 25.4011 120.446 54.8561 124.698L75.8521 88.5192C72.0651 90.4485 67.8742 91.4513 63.6241 91.4452Z" fill="#CE4E4E"/>
</svg>
