<svg width="128" height="128" viewBox="0 0 128 128" fill="none" xmlns="http://www.w3.org/2000/svg">
<path d="M64.4989 70.1706C74.7476 70.1706 83.0559 61.8624 83.0559 51.6136C83.0559 41.3649 74.7476 33.0566 64.4989 33.0566C54.2501 33.0566 45.9419 41.3649 45.9419 51.6136C45.9419 61.8624 54.2501 70.1706 64.4989 70.1706Z" fill="#CE4E4E"/>
<path d="M63.9999 29.9997H109.23C101.077 12.9997 84.1109 1.97168 64.4989 1.97168C48.6229 1.97168 34.4779 9.26368 25.3409 20.8197L42.2539 50.2637C43.1019 38.8647 51.9999 29.9997 63.9999 29.9997ZM57.3119 100.987L74.5239 71.3267C71.4192 72.9083 67.9833 73.7302 64.4989 73.7247C54.9299 73.7247 46.7809 67.6467 43.7029 59.1407L23.0549 23.8307C17.5344 32.043 14.5933 41.7173 14.6089 51.6127C14.6079 76.7267 33.1639 97.5017 57.3119 100.987ZM110.821 32.9997H76.5269C82.5959 36.9997 86.6099 43.8087 86.6099 51.5837C86.6099 55.4077 85.6389 59.0187 83.9309 62.1577L83.9429 62.1737L61.1879 101.388C62.2819 101.459 63.3849 101.502 64.4989 101.502C92.0529 101.502 114.39 79.1377 114.39 51.5837C114.39 45.0247 113.123 39.9997 110.821 32.9997ZM23.6489 124.822C22.8669 125.196 21.1289 125.775 18.9169 125.775C13.9449 125.775 10.7109 122.404 10.7109 117.365C10.7109 112.291 14.1839 108.579 19.5639 108.579C21.3349 108.579 22.9009 109.022 23.7179 109.465L23.0369 111.746C22.3219 111.372 21.1979 110.962 19.5629 110.962C15.7829 110.962 13.7399 113.79 13.7399 117.194C13.7399 121.007 16.1919 123.356 19.4609 123.356C20.7298 123.37 21.9859 123.102 23.1389 122.573L23.6489 124.822ZM27.1569 101.225H30.1529V111.542H30.2209C30.727 110.644 31.4692 109.902 32.3669 109.396C33.2991 108.86 34.3557 108.578 35.4309 108.579C37.6439 108.579 41.1849 109.941 41.1849 115.594V125.4H38.1889V115.934C38.1889 113.279 37.2019 111.066 34.3749 111.066C32.4349 111.066 30.9369 112.427 30.3569 114.027C30.1869 114.47 30.1529 114.913 30.1529 115.458V125.4H27.1569V101.225ZM46.0549 114.062C46.0549 112.121 46.0209 110.452 45.9189 108.92H48.5409L48.6769 112.189H48.7789C49.5289 109.977 51.3679 108.579 53.3769 108.579C53.6839 108.579 53.9209 108.614 54.1929 108.648V111.475C53.8859 111.407 53.5809 111.407 53.1719 111.407C51.0609 111.407 49.5629 112.973 49.1529 115.22C49.0859 115.63 49.0509 116.139 49.0509 116.616V125.4H46.0539V114.062H46.0549ZM71.7639 117.024C71.7639 123.118 67.5069 125.775 63.5569 125.775C59.1309 125.775 55.6579 122.506 55.6579 117.296C55.6579 111.814 59.3019 108.579 63.8309 108.579C68.5629 108.58 71.7639 112.019 71.7639 117.024ZM58.7229 117.195C58.7229 120.803 60.7659 123.527 63.6939 123.527C66.5539 123.527 68.6989 120.838 68.6989 117.126C68.6989 114.334 67.3029 110.826 63.7619 110.826C60.2539 110.828 58.7229 114.095 58.7229 117.195ZM75.5429 113.381C75.5379 111.893 75.4926 110.405 75.4069 108.92H78.0279L78.1649 111.61H78.2679C79.1879 110.044 80.7199 108.579 83.4779 108.579C85.6899 108.579 87.3929 109.941 88.1079 111.882H88.1759C88.6338 111.037 89.2736 110.304 90.0489 109.737C91.0359 108.987 92.0919 108.578 93.6579 108.578C95.8709 108.578 99.1049 110.009 99.1049 115.729V125.399H96.1779V116.103C96.1779 112.903 94.9849 111.03 92.6019 111.03C90.8659 111.03 89.5719 112.29 89.0269 113.719C88.8732 114.204 88.793 114.709 88.7889 115.218V125.4H85.8599V115.525C85.8599 112.903 84.7019 111.03 82.4219 111.03C80.5829 111.03 79.1869 112.528 78.7099 114.026C78.5399 114.435 78.4719 114.98 78.4719 115.491V125.399H75.5429V113.381ZM105.609 117.705C105.677 121.757 108.231 123.426 111.261 123.426C113.407 123.426 114.734 123.051 115.824 122.575L116.369 124.721C115.314 125.197 113.475 125.776 110.853 125.776C105.78 125.776 102.749 122.405 102.749 117.434C102.749 112.462 105.677 108.581 110.478 108.581C115.893 108.581 117.289 113.28 117.289 116.31C117.289 116.924 117.255 117.366 117.186 117.706H105.609V117.705ZM114.395 115.56C114.429 113.688 113.612 110.724 110.241 110.724C107.177 110.724 105.883 113.483 105.644 115.56H114.395Z" fill="#CE4E4E"/>
</svg>
