<svg width="128" height="128" viewBox="0 0 128 128" fill="none" xmlns="http://www.w3.org/2000/svg">
<path d="M23.6489 125.01C22.8669 125.384 21.1289 125.963 18.9169 125.963C13.9449 125.963 10.7109 122.592 10.7109 117.553C10.7109 112.479 14.1839 108.767 19.5639 108.767C21.3349 108.767 22.9009 109.21 23.7179 109.653L23.0369 111.934C22.3219 111.56 21.1979 111.15 19.5629 111.15C15.7829 111.15 13.7399 113.978 13.7399 117.382C13.7399 121.195 16.1919 123.544 19.4609 123.544C20.7298 123.558 21.9859 123.291 23.1389 122.761L23.6489 125.01ZM27.1569 101.413H30.1529V111.73H30.2209C30.727 110.832 31.4692 110.09 32.3669 109.584C33.2991 109.048 34.3557 108.766 35.4309 108.767C37.6439 108.767 41.1849 110.129 41.1849 115.782V125.588H38.1889V116.122C38.1889 113.467 37.2019 111.254 34.3749 111.254C32.4349 111.254 30.9369 112.615 30.3569 114.215C30.1869 114.658 30.1529 115.101 30.1529 115.646V125.588H27.1569V101.413ZM46.0549 114.249C46.0549 112.308 46.0209 110.639 45.9189 109.107H48.5409L48.6769 112.376H48.7789C49.5289 110.164 51.3679 108.766 53.3769 108.766C53.6839 108.766 53.9209 108.801 54.1929 108.835V111.662C53.8859 111.594 53.5809 111.594 53.1719 111.594C51.0609 111.594 49.5629 113.16 49.1529 115.407C49.0859 115.817 49.0509 116.326 49.0509 116.803V125.587H46.0539V114.249H46.0549ZM71.7639 117.212C71.7639 123.306 67.5069 125.963 63.5569 125.963C59.1309 125.963 55.6579 122.694 55.6579 117.484C55.6579 112.002 59.3019 108.767 63.8309 108.767C68.5629 108.767 71.7639 112.206 71.7639 117.212ZM58.7229 117.383C58.7229 120.991 60.7659 123.715 63.6939 123.715C66.5539 123.715 68.6989 121.026 68.6989 117.314C68.6989 114.522 67.3029 111.014 63.7619 111.014C60.2539 111.015 58.7229 114.283 58.7229 117.383ZM75.5429 113.568C75.5379 112.08 75.4926 110.593 75.4069 109.107H78.0279L78.1649 111.797H78.2679C79.1879 110.231 80.7199 108.766 83.4779 108.766C85.6899 108.766 87.3929 110.128 88.1079 112.069H88.1759C88.6338 111.224 89.2736 110.492 90.0489 109.924C91.0359 109.174 92.0919 108.765 93.6579 108.765C95.8709 108.765 99.1049 110.196 99.1049 115.916V125.586H96.1779V116.29C96.1779 113.09 94.9849 111.217 92.6019 111.217C90.8659 111.217 89.5719 112.477 89.0269 113.906C88.8732 114.391 88.793 114.896 88.7889 115.405V125.586H85.8599V115.711C85.8599 113.089 84.7019 111.216 82.4219 111.216C80.5829 111.216 79.1869 112.714 78.7099 114.212C78.5399 114.621 78.4719 115.166 78.4719 115.677V125.585H75.5429V113.568ZM105.609 117.892C105.677 121.944 108.231 123.613 111.261 123.613C113.407 123.613 114.734 123.238 115.824 122.762L116.369 124.908C115.314 125.384 113.475 125.963 110.853 125.963C105.78 125.963 102.749 122.592 102.749 117.621C102.749 112.649 105.677 108.768 110.478 108.768C115.893 108.768 117.289 113.467 117.289 116.497C117.289 117.111 117.255 117.553 117.186 117.893H105.609V117.892ZM114.395 115.748C114.429 113.876 113.612 110.912 110.241 110.912C107.177 110.912 105.883 113.671 105.644 115.748H114.395Z" fill="#77787A"/>
<path d="M64.1141 96.032C89.8158 96.032 110.651 75.1967 110.651 49.495C110.651 23.7933 89.8158 2.95801 64.1141 2.95801C38.4125 2.95801 17.5771 23.7933 17.5771 49.495C17.5771 75.1967 38.4125 96.032 64.1141 96.032Z" fill="white"/>
<path d="M93.729 57.9558C93.729 41.5998 80.469 28.3408 64.115 28.3408C47.759 28.3408 34.5 41.5998 34.5 57.9558H42.961C42.961 46.2728 52.432 36.8028 64.113 36.8028C75.796 36.8028 85.266 46.2728 85.266 57.9558" fill="black" fill-opacity="0.1"/>
<path d="M66.2289 71.4938C75.1079 71.4938 82.3059 64.2959 82.3059 55.4168C82.3059 46.5378 75.1079 39.3398 66.2289 39.3398C57.3498 39.3398 50.1519 46.5378 50.1519 55.4168C50.1519 64.2959 57.3498 71.4938 66.2289 71.4938Z" fill="black" fill-opacity="0.1"/>
<path d="M64.1141 66.8404C73.694 66.8404 81.4601 59.0744 81.4601 49.4944C81.4601 39.9145 73.694 32.1484 64.1141 32.1484C54.5341 32.1484 46.7681 39.9145 46.7681 49.4944C46.7681 59.0744 54.5341 66.8404 64.1141 66.8404Z" fill="url(#paint0_linear_3_6770)"/>
<path d="M106.421 28.3412C94.773 4.9082 66.334 -4.6478 42.9 6.9992C35.5928 10.6306 29.3474 16.0878 24.769 22.8422L43.807 55.8422C40.3 44.6982 46.493 32.8212 57.637 29.3152C59.5967 28.6986 61.6358 28.3708 63.69 28.3422" fill="url(#paint1_linear_3_6770)"/>
<path d="M24.7699 22.8408C10.1979 44.5778 16.0059 74.0118 37.7439 88.5838C44.4692 93.0915 52.2371 95.8013 60.3069 96.4548L80.1899 62.6098C72.7549 71.6218 59.4229 72.8998 50.4119 65.4638C47.3512 62.9394 45.0626 59.6046 43.8079 55.8408" fill="url(#paint2_linear_3_6770)"/>
<path d="M60.3071 96.4548C86.4011 98.4278 109.154 78.8728 111.126 52.7788C111.763 44.359 110.138 35.9219 106.42 28.3408H63.6901C75.3731 28.3948 84.8001 37.9078 84.7461 49.5918C84.7251 54.3184 83.121 58.9016 80.1901 62.6098" fill="url(#paint3_linear_3_6770)"/>
<path d="M24.77 22.8413L43.808 55.8413C42.3974 51.0951 42.6965 46.0046 44.653 41.4563L25.615 21.5723" fill="url(#paint4_linear_3_6770)"/>
<path d="M60.307 96.4554L80.19 62.6104C77.0525 66.3513 72.7179 68.8922 67.921 69.8024L59.46 96.4554" fill="url(#paint5_linear_3_6770)"/>
<path d="M106.421 28.3408H63.6899C66.8673 28.3554 70.0006 29.0855 72.8571 30.4771C75.7136 31.8686 78.22 33.8858 80.1899 36.3788L107.266 29.6098" fill="url(#paint6_linear_3_6770)"/>
<defs>
<linearGradient id="paint0_linear_3_6770" x1="64.0801" y1="32.1254" x2="64.0801" y2="66.8114" gradientUnits="userSpaceOnUse">
<stop stop-color="#81B4E0"/>
<stop offset="1" stop-color="#0C5A94"/>
</linearGradient>
<linearGradient id="paint1_linear_3_6770" x1="65.595" y1="2.1102" x2="65.595" y2="40.6102" gradientUnits="userSpaceOnUse">
<stop stop-color="#F06B59"/>
<stop offset="1" stop-color="#DF2227"/>
</linearGradient>
<linearGradient id="paint2_linear_3_6770" x1="28.2689" y1="83.1748" x2="47.7289" y2="51.0218" gradientUnits="userSpaceOnUse">
<stop stop-color="#388B41"/>
<stop offset="1" stop-color="#4CB749"/>
</linearGradient>
<linearGradient id="paint3_linear_3_6770" x1="93.4611" y1="86.5938" x2="72.7311" y2="36.6728" gradientUnits="userSpaceOnUse">
<stop stop-color="#E4B022"/>
<stop offset="0.3" stop-color="#FCD209"/>
</linearGradient>
<linearGradient id="paint4_linear_3_6770" x1="34.711" y1="54.5713" x2="34.711" y2="20.7263" gradientUnits="userSpaceOnUse">
<stop stop-opacity="0.15"/>
<stop offset="0.3" stop-opacity="0.06"/>
<stop offset="1" stop-opacity="0.03"/>
</linearGradient>
<linearGradient id="paint5_linear_3_6770" x1="81.427" y1="65.5014" x2="58.159" y2="89.1924" gradientUnits="userSpaceOnUse">
<stop stop-opacity="0.15"/>
<stop offset="0.3" stop-opacity="0.06"/>
<stop offset="1" stop-opacity="0.03"/>
</linearGradient>
<linearGradient id="paint6_linear_3_6770" x1="81.0899" y1="72.3158" x2="84.4739" y2="38.8958" gradientUnits="userSpaceOnUse">
<stop stop-opacity="0.15"/>
<stop offset="0.3" stop-opacity="0.06"/>
<stop offset="1" stop-opacity="0.03"/>
</linearGradient>
</defs>
</svg>
