<svg width="128" height="128" viewBox="0 0 128 128" fill="none" xmlns="http://www.w3.org/2000/svg">
<path d="M20.48 110.078H18.047C17.9631 110.076 17.8797 110.092 17.8028 110.126C17.7259 110.16 17.6573 110.21 17.602 110.273C16.192 112.383 13.762 113.727 11.07 113.727C6.719 113.727 3.137 110.207 3.137 105.793C3.13104 104.75 3.33212 103.715 3.72862 102.75C4.12511 101.784 4.70915 100.907 5.44692 100.169C6.18469 99.4305 7.06155 98.8459 8.02675 98.4488C8.99195 98.0517 10.0263 97.85 11.07 97.8553C13.824 97.8553 16.191 99.2653 17.602 101.312C17.6574 101.375 17.7261 101.425 17.803 101.458C17.8799 101.491 17.9633 101.507 18.047 101.504H20.48C20.8 101.504 20.992 101.246 20.992 100.992C20.992 100.93 20.992 100.801 20.93 100.734C19.137 97.1523 15.36 94.6563 11.07 94.6563C4.93 94.6563 0 99.5863 0 105.726C0 111.871 4.93 116.801 11.07 116.801C15.426 116.801 19.137 114.305 20.93 110.719C20.992 110.656 20.992 110.594 20.992 110.465C20.992 110.335 20.801 110.078 20.48 110.078ZM27.84 91.1373C27.8348 91.6958 27.6104 92.2299 27.2152 92.6246C26.8199 93.0192 26.2855 93.2429 25.727 93.2473C25.1687 93.2431 24.6344 93.0195 24.2396 92.6247C23.8448 92.2299 23.6212 91.6956 23.617 91.1373C23.6212 90.5786 23.8447 90.0439 24.2394 89.6485C24.6341 89.253 25.1683 89.0285 25.727 89.0233C26.0054 89.0202 26.2817 89.0728 26.5395 89.1779C26.7973 89.2831 27.0315 89.4387 27.2283 89.6357C27.4252 89.8326 27.5807 90.0669 27.6857 90.3247C27.7908 90.5826 27.8432 90.8589 27.84 91.1373ZM27.328 115.902V95.3603H24.191V115.903C24.191 116.223 24.449 116.415 24.703 116.415H26.816C27.136 116.415 27.328 116.161 27.328 115.903V115.902ZM41.023 94.8483C37.824 94.9773 35.266 96.5123 33.664 98.8783V95.9383C33.6649 95.8708 33.6523 95.8038 33.6269 95.7412C33.6015 95.6787 33.5639 95.6219 33.5161 95.5742C33.4684 95.5264 33.4116 95.4887 33.349 95.4633C33.2865 95.4379 33.2195 95.4253 33.152 95.4263H31.04C30.9725 95.4251 30.9055 95.4375 30.8429 95.4627C30.7803 95.4879 30.7234 95.5255 30.6756 95.5732C30.6278 95.6209 30.5901 95.6777 30.5648 95.7402C30.5394 95.8028 30.5269 95.8698 30.528 95.9373V115.969C30.528 116.289 30.786 116.48 31.04 116.48H33.153C33.473 116.48 33.665 116.223 33.665 115.969V105.922C33.665 101.762 36.931 98.3053 41.025 98.0473C41.345 98.0473 41.536 97.7933 41.536 97.5353V95.3603C41.603 95.0403 41.345 94.8493 41.024 94.8493L41.023 94.8483ZM62.078 110.078H59.648C59.5635 110.077 59.4797 110.093 59.4022 110.127C59.3247 110.16 59.2554 110.21 59.199 110.273C57.793 112.383 55.359 113.727 52.672 113.727C48.32 113.727 44.734 110.207 44.734 105.793C44.7286 104.749 44.9302 103.715 45.3272 102.749C45.7242 101.784 46.3087 100.906 47.0469 100.168C47.7851 99.43 48.6623 98.8455 49.6278 98.4485C50.5934 98.0515 51.628 97.8499 52.672 97.8553C55.426 97.8553 57.793 99.2653 59.199 101.312C59.2556 101.375 59.3251 101.425 59.4028 101.458C59.4806 101.491 59.5645 101.507 59.649 101.504H62.079C62.399 101.504 62.594 101.246 62.594 100.992C62.594 100.93 62.594 100.801 62.527 100.734C60.734 97.1523 56.961 94.6563 52.672 94.6563C46.527 94.6563 41.602 99.5863 41.602 105.726C41.5967 107.182 41.8794 108.624 42.4338 109.97C42.9882 111.315 43.8033 112.538 44.8322 113.568C45.8612 114.597 47.0836 115.413 48.4291 115.968C49.7746 116.523 51.2165 116.806 52.672 116.801C57.023 116.801 60.734 114.305 62.527 110.719C62.594 110.656 62.594 110.594 62.594 110.465C62.594 110.335 62.336 110.078 62.078 110.078ZM68.414 88.5123H66.304C66.2367 88.5115 66.1699 88.5241 66.1075 88.5495C66.0451 88.5749 65.9885 88.6125 65.9409 88.6602C65.8933 88.7078 65.8557 88.7644 65.8303 88.8268C65.8049 88.8892 65.7922 88.956 65.793 89.0233V115.903C65.793 116.223 66.047 116.414 66.305 116.414H68.415C68.735 116.414 68.93 116.16 68.93 115.902V89.0233C68.9307 88.9556 68.9178 88.8884 68.892 88.8258C68.8663 88.7631 68.8282 88.7063 68.7801 88.6587C68.732 88.611 68.6748 88.5735 68.6119 88.5484C68.549 88.5232 68.4817 88.5109 68.414 88.5123ZM83.137 94.7853C81.6815 94.78 80.2394 95.0627 78.8937 95.6171C77.548 96.1715 76.3252 96.9866 75.2958 98.0155C74.2664 99.0445 73.4507 100.267 72.8957 101.612C72.3407 102.958 72.0574 104.4 72.062 105.855C72.062 112 76.992 116.93 83.137 116.93C87.488 116.93 91.199 114.434 92.992 110.848C93.055 110.785 93.055 110.718 93.055 110.594C93.0563 110.526 93.044 110.459 93.0188 110.396C92.9936 110.333 92.956 110.276 92.9083 110.228C92.8605 110.18 92.8036 110.142 92.7408 110.116C92.6781 110.09 92.6108 110.077 92.543 110.078H90.113C90.0285 110.077 89.9447 110.093 89.8672 110.127C89.7897 110.16 89.7204 110.21 89.664 110.273C88.258 112.383 85.824 113.727 83.137 113.727C79.105 113.727 75.84 110.719 75.328 106.879H93.695C93.7626 106.881 93.8297 106.868 93.8924 106.843C93.955 106.818 94.012 106.78 94.0598 106.732C94.1075 106.684 94.1452 106.627 94.1705 106.565C94.1958 106.502 94.2082 106.435 94.207 106.367V105.793C94.207 99.7773 89.281 94.7853 83.137 94.7853ZM75.52 103.809C76.414 100.48 79.488 97.9843 83.137 97.9843C86.785 97.9843 89.855 100.414 90.754 103.809H75.52ZM124.863 87.9383C124.032 87.9393 123.236 88.2695 122.648 88.8566C122.06 89.4436 121.729 90.2396 121.727 91.0703C121.727 92.8003 123.137 94.2073 124.863 94.2073C125.695 94.2065 126.492 93.8757 127.08 93.2876C127.668 92.6995 127.999 91.902 128 91.0703C128 89.4063 126.594 87.9383 124.863 87.9383ZM127.488 95.3593V115.902C127.488 116.222 127.23 116.414 126.977 116.414H122.754C122.686 116.416 122.619 116.403 122.556 116.378C122.493 116.353 122.436 116.315 122.388 116.268C122.339 116.22 122.301 116.163 122.276 116.1C122.25 116.037 122.237 115.97 122.238 115.902V95.3603L127.488 95.3593ZM108.48 116.929C113.664 116.929 117.953 113.406 119.23 108.609V108.48C119.231 108.413 119.219 108.346 119.193 108.283C119.168 108.221 119.13 108.164 119.083 108.117C119.035 108.069 118.978 108.031 118.916 108.006C118.853 107.981 118.786 107.968 118.719 107.969H114.239C114.141 107.97 114.045 108.002 113.965 108.059C113.886 108.116 113.825 108.197 113.793 108.289C112.895 110.273 110.848 111.679 108.543 111.679C105.343 111.679 102.719 109.055 102.719 105.855C102.719 102.656 105.344 100.031 108.543 100.031C110.91 100.031 112.895 101.441 113.793 103.426C113.826 103.518 113.886 103.598 113.965 103.655C114.045 103.711 114.14 103.742 114.238 103.742H118.718C119.039 103.742 119.23 103.488 119.23 103.23V103.105C118.016 98.3053 113.664 94.7853 108.48 94.7853C107.025 94.7801 105.583 95.0629 104.237 95.6174C102.891 96.1718 101.669 96.987 100.639 98.0159C99.6101 99.0448 98.7945 100.267 98.2396 101.613C97.6847 102.958 97.4014 104.4 97.406 105.855C97.406 112 102.336 116.93 108.48 116.93V116.929ZM55.488 44.7353C55.488 40.3213 59.07 36.7353 63.488 36.7353C67.902 36.7353 71.488 40.3213 71.488 44.7353C71.488 49.1533 67.902 52.7353 63.488 52.7353C59.07 52.8023 55.488 49.1533 55.488 44.7353ZM63.488 11.0713C47.742 11.0713 34.558 21.8253 30.848 36.4153C30.848 36.5443 30.785 36.6103 30.785 36.7353C30.785 37.6343 31.488 38.3373 32.383 38.3373H45.953C46.593 38.3373 47.168 37.9543 47.426 37.3763C50.238 31.2983 56.32 27.0713 63.488 27.0713C73.215 27.0713 81.152 35.0093 81.152 44.7353C81.152 54.4653 73.215 62.3993 63.488 62.3993C56.383 62.3993 50.238 58.1773 47.426 52.0993C47.2994 51.814 47.093 51.5715 46.8316 51.401C46.5702 51.2305 46.2651 51.1392 45.953 51.1383H32.383C31.488 51.1383 30.785 51.8413 30.785 52.7353C30.785 52.8653 30.785 52.9313 30.848 53.0553C34.558 67.6493 47.742 78.3993 63.488 78.3993C82.113 78.3993 97.215 63.2983 97.215 44.6733C97.215 26.1143 82.113 11.0713 63.488 11.0713Z" fill="#343434"/>
</svg>
