<svg width="128" height="128" viewBox="0 0 128 128" fill="none" xmlns="http://www.w3.org/2000/svg">
<path d="M47.8089 64C47.8089 55.55 54.6559 48.77 63.0389 48.77C71.4259 48.77 78.2729 55.617 78.2729 64C78.2729 72.383 71.4259 79.23 63.0399 79.23C54.6569 79.23 47.8099 72.383 47.8099 64H47.8089ZM63.0389 0C33.1519 0 8.12994 20.48 1.02294 48.129C0.960937 48.32 0.960938 48.512 0.960938 48.769C0.960938 49.5832 1.28438 50.3641 1.86012 50.9398C2.43586 51.5156 3.21672 51.839 4.03094 51.839H29.8239C31.0389 51.839 32.1289 51.137 32.5739 50.047C37.8869 38.527 49.5349 30.465 63.0389 30.465C81.5349 30.465 96.5739 45.504 96.5739 64C96.5739 82.496 81.5349 97.535 63.0389 97.535C49.5349 97.535 37.8869 89.535 32.5739 77.953C32.0629 76.93 31.0389 76.16 29.8239 76.16H4.03094C3.21672 76.16 2.43586 76.4834 1.86012 77.0592C1.28438 77.6349 0.960938 78.4158 0.960938 79.23C0.960938 79.426 1.02294 79.617 1.02294 79.871C8.06294 107.52 33.1529 128 63.0399 128C98.3679 128 127.04 99.328 127.04 64C127.04 28.672 98.3679 0 63.0399 0H63.0389Z" fill="#343434"/>
</svg>
