<svg width="128" height="128" viewBox="0 0 128 128" fill="none" xmlns="http://www.w3.org/2000/svg">
<path d="M35.5628 79.7485C31.7328 79.7485 28.8388 78.6305 26.8488 76.3935C24.8588 74.1565 23.8638 70.9535 23.8638 66.7815C23.8638 62.5195 24.8888 59.2545 26.9698 56.9575C29.0498 54.6605 32.0348 53.5115 35.9848 53.5115C38.6378 53.5115 41.0498 53.9955 43.1608 54.9925L41.5328 59.3155C39.2708 58.4385 37.4018 57.9855 35.9248 57.9855C31.5528 57.9855 29.3818 60.8875 29.3818 66.6905C29.3818 69.5315 29.9248 71.6475 31.0098 73.0985C32.0948 74.5185 33.6928 75.2445 35.8038 75.2445C38.1858 75.2445 40.4468 74.6405 42.5878 73.4615V78.1465C41.6228 78.7205 40.5978 79.1135 39.5128 79.3565C38.4268 79.6275 37.1008 79.7485 35.5628 79.7485ZM57.3918 79.2955H52.0248V43.6885H57.3918V79.2955ZM65.9848 90.5395C64.3868 90.5395 63.0298 90.3585 61.9748 89.9655V85.7035C63.0072 85.9815 64.0715 86.1237 65.1408 86.1265C67.4318 86.1265 68.5778 84.8265 68.5778 82.2265V53.9665H73.9448V82.5905C73.9448 85.1905 73.2508 87.1855 71.8948 88.5155C70.5078 89.8755 68.5478 90.5405 65.9848 90.5405V90.5395ZM68.2458 47.2855C68.2458 46.3175 68.5178 45.5925 69.0298 45.0785C69.5428 44.5645 70.2958 44.2925 71.2908 44.2925C72.2258 44.2925 72.9798 44.5645 73.4918 45.0785C74.0048 45.5925 74.2758 46.3485 74.2758 47.2855C74.2758 48.1915 74.0048 48.9175 73.4918 49.4615C72.9798 49.9755 72.2258 50.2475 71.2918 50.2475C70.3268 50.2475 69.5718 49.9755 69.0298 49.4615C68.4868 48.9175 68.2458 48.1915 68.2458 47.2855ZM102.046 72.1015C102.046 74.5795 101.141 76.4535 99.3618 77.7835C97.5518 79.1135 94.9898 79.7485 91.6428 79.7485C88.2658 79.7485 85.5828 79.2345 83.5328 78.2075V73.5525C86.4868 74.9125 89.2608 75.6075 91.8238 75.6075C95.1108 75.6075 96.7688 74.6105 96.7688 72.6155C96.7688 71.9805 96.5878 71.4355 96.2258 71.0135C95.8638 70.5895 95.2608 70.1365 94.4168 69.6835C93.5728 69.2295 92.4268 68.7155 90.9198 68.1415C88.0248 67.0235 86.0348 65.8745 85.0098 64.7565C83.9848 63.6375 83.4718 62.1565 83.4718 60.3735C83.4718 58.1965 84.3468 56.5345 86.0948 55.3255C87.8448 54.1155 90.1958 53.5425 93.2108 53.5425C96.1658 53.5425 98.9698 54.1465 101.623 55.3555L99.8738 59.4055C97.1608 58.2875 94.8688 57.7135 92.9998 57.7135C90.1658 57.7135 88.7488 58.5295 88.7488 60.1315C88.7488 60.9175 89.1108 61.5815 89.8638 62.1565C90.5878 62.7005 92.2158 63.4565 94.6878 64.4235C96.7678 65.2395 98.2758 65.9655 99.2408 66.6305C100.176 67.2955 100.869 68.0805 101.351 68.9575C101.804 69.8045 102.045 70.8615 102.045 72.1015H102.046Z" fill="#96CA4B"/>
<path d="M58.176 117.864C30.678 115.416 9.03 92.1713 9.03 63.9703C9.03 35.7683 30.678 12.5543 58.176 10.1063V4.03027C27.332 6.51027 3 32.4433 3 64.0003C3 95.5573 27.332 121.491 58.176 123.97V117.864ZM67.824 4.03027V10.1063C95.322 12.5543 116.97 35.7983 116.97 64.0003C116.97 92.2023 95.322 115.446 67.824 117.894V123.97C98.668 121.49 123 95.5573 123 64.0003C123 32.4433 98.668 6.50927 67.824 4.03027Z" fill="#96CA4B"/>
<path d="M61.176 0.780297L57.936 1.0403C25.552 3.6423 0 30.9003 0 64.0003C0 97.1003 25.552 124.358 57.936 126.96L61.176 127.22V115.12L58.441 114.875C32.476 112.563 12.03 90.6363 12.03 63.9713C12.03 37.3043 32.474 15.4063 58.442 13.0943L61.177 12.8523V0.779297L61.176 0.780297ZM64.824 0.780297V12.8523L67.559 13.0943C93.524 15.4053 113.97 37.3343 113.97 64.0003C113.97 90.6673 93.523 112.595 67.558 114.906L64.823 115.148V127.221L68.063 126.961C100.448 124.357 126 97.0993 126 64.0003C126 30.9003 100.448 3.6423 68.064 1.0403L64.824 0.780297ZM55.176 7.4373V7.4943C27.469 11.3333 6.029 35.1803 6.029 63.9713C6.029 92.7613 27.467 116.634 55.176 120.475V120.563C27.436 116.716 6 92.8923 6 64.0003C6 35.1083 27.435 11.2843 55.176 7.4373ZM70.824 7.4373C98.564 11.2843 120 35.1083 120 64.0003C120 92.8923 98.565 116.716 70.824 120.563V120.506C98.533 116.666 119.971 92.7903 119.971 64.0003C119.971 35.2103 98.533 11.3353 70.824 7.4943V7.4383V7.4373Z" fill="#96CA4B"/>
</svg>
