<svg width="128" height="128" viewBox="0 0 128 128" fill="none" xmlns="http://www.w3.org/2000/svg">
<path d="M64 0C28.712 0 0 28.6 0 63.751C0 98.906 28.712 127.504 64 127.504C99.288 127.504 128 98.906 128 63.751C128 28.6 99.288 0 64 0Z" fill="white"/>
<path d="M61.659 64.898C61.025 66.266 60.4026 67.6394 59.792 69.018C57.47 74.259 54.898 80.638 53.958 84.724C53.621 86.179 53.412 87.982 53.416 89.982C53.416 90.772 53.459 91.604 53.526 92.451C56.9007 93.6851 60.4657 94.318 64.059 94.321C67.3358 94.3153 70.5908 93.7866 73.701 92.755C72.9746 92.1037 72.3021 91.3947 71.69 90.635C67.58 85.414 65.287 77.763 61.659 64.898ZM46.485 38.96C38.635 44.47 33.499 53.56 33.48 63.86C33.499 74.005 38.481 82.976 46.133 88.51C48.01 80.721 52.715 73.59 59.77 59.296C59.3149 58.0478 58.8382 56.8076 58.34 55.576C56.385 50.692 53.564 45.02 51.046 42.452C49.763 41.11 48.206 39.95 46.485 38.96Z" fill="#91DC47"/>
<path d="M90.6969 98.7984C86.6469 98.2924 83.3049 97.6824 80.3799 96.6544C75.3063 99.1648 69.7207 100.468 64.0599 100.461C43.7669 100.461 27.3179 84.0784 27.3149 63.8594C27.3149 52.8894 32.1669 43.0544 39.8429 36.3474C37.7899 35.8524 35.649 35.5644 33.4629 35.5684C22.681 35.6694 11.3009 41.6124 6.56295 57.6634C6.11995 60.0004 6.22595 61.7664 6.22595 63.8604C6.22595 95.6784 32.1209 121.473 64.0609 121.473C83.6219 121.473 100.902 111.791 111.366 96.9844C105.706 98.3894 100.263 99.0614 95.6029 99.0754C93.8559 99.0754 92.2159 98.9824 90.6969 98.7984Z" fill="#63B132"/>
<path d="M79.829 87.6345C80.186 87.8105 80.996 88.0985 82.122 88.4175C89.701 82.8755 94.626 73.9485 94.645 63.8595H94.642C94.614 47.0395 80.949 33.4295 64.06 33.3975C60.7972 33.403 57.556 33.9276 54.458 34.9515C60.668 42.0015 63.654 52.0785 66.542 63.0995L66.547 63.1125C66.552 63.1215 67.471 66.1725 69.048 70.2225C70.614 74.2645 72.845 79.2705 75.278 82.9185C76.875 85.3625 78.632 87.1185 79.829 87.6345Z" fill="#90B4FE"/>
<path d="M17.0571 30.3111C22.5201 26.9031 28.0971 25.6741 32.9651 25.7181C39.6871 25.7381 44.9731 27.8141 47.5091 29.2341C48.1211 29.5861 48.7031 29.9641 49.2731 30.3541C53.9339 28.3083 58.9691 27.254 64.0591 27.2581C84.3541 27.2611 100.806 43.6441 100.809 63.8591C100.806 74.0511 96.6211 83.2671 89.8751 89.9031C91.6098 90.1004 93.3543 90.1972 95.1001 90.1931C101.506 90.1971 108.429 88.7891 113.62 84.4401C117.004 81.6001 119.84 77.4421 121.412 71.2071C121.719 68.7991 121.896 66.3511 121.896 63.8601C121.896 32.0431 96.0041 6.24609 64.0611 6.24609C44.6891 6.24609 27.5531 15.7461 17.0571 30.3111Z" fill="#5881D8"/>
</svg>
