<svg width="128" height="128" viewBox="0 0 128 128" fill="none" xmlns="http://www.w3.org/2000/svg">
<path d="M60.9519 0.265625C27.3769 0.265625 0.0649414 28.7696 0.0649414 63.8056C0.0649414 98.8416 27.3829 127.346 60.9519 127.346C94.5279 127.346 121.845 98.8406 121.845 63.8056C121.845 28.7706 94.5279 0.265625 60.9519 0.265625ZM60.9519 6.38263C91.3419 6.38263 115.977 32.0946 115.977 63.8056C115.977 66.2876 115.81 68.7296 115.517 71.1266C114.022 77.3406 111.323 81.4846 108.105 84.3166C103.164 88.6526 96.5809 90.0546 90.4849 90.0496C88.823 90.0531 87.1623 89.9566 85.5119 89.7606C97.5059 77.3996 99.3359 57.8656 89.8639 43.3146C80.3899 28.7626 62.3149 23.3376 46.8819 30.4156C46.3379 30.0207 45.7774 29.6491 45.2019 29.3016C42.7919 27.8886 37.7629 25.8196 31.3649 25.7966C26.0039 25.7746 20.7499 27.3646 16.2319 30.3766C26.5539 15.3166 43.2099 6.38563 60.9519 6.39363V6.38263ZM51.3409 84.5996C52.2349 80.5296 54.6839 74.1686 56.8889 68.9446C57.5119 67.4636 58.1189 66.0726 58.6659 64.8406C62.1169 77.6626 64.3009 85.2896 68.2119 90.4906C68.7923 91.2451 69.432 91.952 70.1249 92.6046C67.1754 93.6316 64.0751 94.1588 60.9519 94.1646C57.5256 94.1592 54.1291 93.5289 50.9289 92.3046C50.8639 91.4876 50.8289 90.6666 50.8259 89.8456C50.8085 88.0855 50.9812 86.3287 51.3409 84.6056V84.5996ZM43.8969 88.3696C36.3419 82.6666 31.8659 73.5296 31.8569 63.7996C31.8649 53.9196 36.4819 44.6616 44.2319 38.9866C45.8689 39.9706 47.3529 41.1296 48.5719 42.4636C50.9669 45.0236 53.6489 50.6776 55.5119 55.5456C56.0219 56.8576 56.4769 58.1126 56.8719 59.2546C50.1599 73.5016 45.6849 80.6076 43.8979 88.3696H43.8969ZM65.6989 70.1436C64.1979 66.1066 63.3249 63.0646 63.3199 63.0596L63.3149 63.0476C60.5679 52.0636 57.7229 42.0226 51.8179 34.9956C54.7554 33.9753 57.8423 33.4515 60.9519 33.4456C77.0119 33.4676 90.0259 47.0476 90.0469 63.8056C90.0399 73.4786 85.6149 82.5696 78.1329 88.2796C77.3859 88.0765 76.6557 87.8157 75.9489 87.4996C74.8119 86.9856 73.1369 85.2326 71.6199 82.8016C69.3069 79.1666 67.1829 74.1796 65.6929 70.1486L65.6989 70.1436ZM60.9519 121.224C30.5619 121.224 5.92694 95.5166 5.92694 63.7996C5.92694 61.7136 6.04094 59.6556 6.24694 57.6266C10.7549 41.6266 21.5849 35.7066 31.8419 35.6066C33.9219 35.5996 35.9589 35.8886 37.9099 36.3806C24.7279 48.4616 22.1699 68.8676 31.9309 84.0806C41.6929 99.2936 60.7479 104.599 76.4749 96.4836C79.2549 97.5066 82.4349 98.1166 86.2869 98.6206C87.7339 98.8066 89.2939 98.8976 90.9519 98.8976C96.0177 98.8212 101.055 98.1202 105.949 96.8106C95.6589 112.119 78.8609 121.228 60.9419 121.218L60.9519 121.224Z" fill="#5881D8"/>
</svg>
