<svg width="128" height="128" viewBox="0 0 128 128" fill="none" xmlns="http://www.w3.org/2000/svg">
<path d="M35.5628 79.7485C31.7328 79.7485 28.8388 78.6305 26.8488 76.3935C24.8588 74.1565 23.8638 70.9535 23.8638 66.7815C23.8638 62.5195 24.8888 59.2545 26.9698 56.9575C29.0498 54.6605 32.0348 53.5115 35.9848 53.5115C38.6378 53.5115 41.0498 53.9955 43.1608 54.9925L41.5328 59.3155C39.2708 58.4385 37.4018 57.9855 35.9248 57.9855C31.5528 57.9855 29.3818 60.8875 29.3818 66.6905C29.3818 69.5315 29.9248 71.6475 31.0098 73.0985C32.0948 74.5185 33.6928 75.2445 35.8038 75.2445C38.1858 75.2445 40.4468 74.6405 42.5878 73.4615V78.1465C41.6228 78.7205 40.5978 79.1135 39.5128 79.3565C38.4268 79.6275 37.1008 79.7485 35.5628 79.7485ZM57.3918 79.2955H52.0248V43.6885H57.3918V79.2955Z" fill="#96CA4B"/>
<path d="M65.9851 90.539C64.3871 90.539 63.0301 90.358 61.9751 89.965V85.703C63.0076 85.981 64.0719 86.1232 65.1411 86.126C67.4321 86.126 68.5781 84.826 68.5781 82.226V53.966H73.9451V82.59C73.9451 85.19 73.2511 87.185 71.8951 88.515C70.5081 89.875 68.5481 90.54 65.9851 90.54V90.539ZM68.2461 47.285C68.2461 46.317 68.5181 45.592 69.0301 45.078C69.5431 44.564 70.2961 44.292 71.2911 44.292C72.2261 44.292 72.9801 44.564 73.4921 45.078C74.0051 45.592 74.2761 46.348 74.2761 47.285C74.2761 48.191 74.0051 48.917 73.4921 49.461C72.9801 49.975 72.2261 50.247 71.2921 50.247C70.3271 50.247 69.5721 49.975 69.0301 49.461C68.4871 48.917 68.2461 48.191 68.2461 47.285ZM102.046 72.101C102.046 74.579 101.141 76.453 99.3621 77.783C97.5521 79.113 94.9901 79.748 91.6431 79.748C88.2661 79.748 85.5831 79.234 83.5331 78.207V73.552C86.4871 74.912 89.2611 75.607 91.8241 75.607C95.1111 75.607 96.7691 74.61 96.7691 72.615C96.7691 71.98 96.5881 71.435 96.2261 71.013C95.8641 70.589 95.2611 70.136 94.4171 69.683C93.5731 69.229 92.4271 68.715 90.9201 68.141C88.0251 67.023 86.0351 65.874 85.0101 64.756C83.9851 63.637 83.4721 62.156 83.4721 60.373C83.4721 58.196 84.3471 56.534 86.0951 55.325C87.8451 54.115 90.1961 53.542 93.2111 53.542C96.1661 53.542 98.9701 54.146 101.623 55.355L99.8741 59.405C97.1611 58.287 94.8691 57.713 93.0001 57.713C90.1661 57.713 88.7491 58.529 88.7491 60.131C88.7491 60.917 89.1111 61.581 89.8641 62.156C90.5881 62.7 92.2161 63.456 94.6881 64.423C96.7681 65.239 98.2761 65.965 99.2411 66.63C100.176 67.295 100.869 68.08 101.351 68.957C101.804 69.804 102.045 70.861 102.045 72.101H102.046Z" fill="#5F7FBF"/>
<path d="M58.176 117.864C30.678 115.416 9.03 92.1713 9.03 63.9703C9.03 35.7683 30.678 12.5543 58.176 10.1063V4.03027C27.332 6.51027 3 32.4433 3 64.0003C3 95.5573 27.332 121.491 58.176 123.97V117.864Z" fill="#96CA4B" stroke="#96CA4B" stroke-width="6"/>
<path d="M67.8242 4.03027V10.1063C95.3222 12.5543 116.97 35.7983 116.97 64.0003C116.97 92.2023 95.3222 115.446 67.8242 117.894V123.97C98.6682 121.49 123 95.5573 123 64.0003C123 32.4433 98.6682 6.50927 67.8242 4.03027Z" fill="#5F7FBF" stroke="#5F7FBF" stroke-width="6"/>
</svg>
