<svg width="128" height="128" viewBox="0 0 128 128" fill="none" xmlns="http://www.w3.org/2000/svg">
<path d="M0.100098 80.0998L18.5001 64.4998L16.9001 46.7998L0.100098 80.0998Z" fill="#064F8C"/>
<path d="M10.8 72.0996L0 81.1996H33.4L10.8 72.0996Z" fill="#249847"/>
<path d="M17.7002 47.4004L20.2002 75.1004L34.5002 80.9004L17.7002 47.4004Z" fill="#BE2128"/>
<path d="M43.1001 66.5C42.6001 68.2 42.9001 70.1 43.9001 71.6C45.0001 73 46.6001 73.7 48.4001 73.6C49.3001 73.6 50.1001 73.5 51.0001 73.3C51.7001 73.2 52.3001 73 53.0001 72.7L52.5001 76C51.7001 76.2 51.0001 76.4 50.2001 76.5C49.3001 76.6 48.5001 76.7 47.6001 76.7C44.2001 76.7 41.7001 75.8 40.2001 74C38.7001 72.2 38.3001 69.8 39.0001 66.6C39.6001 63.6 41.1001 60.9 43.5001 58.9C45.9001 57 48.9001 55.9 52.0001 56C52.9001 56 53.8001 56.1 54.7001 56.3C55.3001 56.4 56.0001 56.6 56.6001 56.9L55.5001 60.4C55.0001 60 54.3001 59.8 53.7001 59.6C53.0001 59.4 52.2001 59.3 51.5001 59.3C49.5001 59.3 47.6001 60 46.2001 61.3C44.5001 62.7 43.5001 64.5 43.1001 66.5ZM75.4001 56.4H81.8001L77.6001 76.3H73.8001L77.3001 59.8L68.4001 76.3H64.6001L62.7001 59.7L59.2001 76.3H55.4001L59.6001 56.4H66.0001L67.5001 71.5L75.4001 56.4ZM91.1001 74C90.4001 74.9 89.5001 75.7 88.5001 76.2C87.7001 76.6 86.8001 76.8 85.9001 76.8C84.6001 76.9 83.4001 76.5 82.5001 75.6C81.8001 74.8 81.5001 73.7 81.7001 72.6C82.0001 71 82.9001 69.7 84.3001 68.8C86.0001 67.8 88.0001 67.4 90.0001 67.5H92.4001L92.5001 67.2C92.7001 66.2 92.6001 65.4 92.1001 65C91.4001 64.5 90.6001 64.3 89.8001 64.3C89.0001 64.3 88.1001 64.5 87.3001 64.8C86.5001 65 85.7001 65.4 85.0001 66L85.6001 62.7C86.4001 62.4 87.3001 62.1 88.2001 61.9C89.1001 61.7 90.1001 61.5 91.0001 61.5C93.2001 61.5 94.7001 62 95.5001 63C96.3001 64.1 96.5001 65.7 96.0001 67.9L95.1001 71.8L94.5001 75.1C94.4001 76.1 94.3001 76.5 94.3001 76.5H90.9001V75.8C90.8001 75.2 90.9001 74.6 91.1001 74ZM91.8001 69.9L91.9001 69.6H90.2001C89.1001 69.6 88.0001 69.8 87.0001 70.3C86.3001 70.6 85.8001 71.3 85.7001 72C85.6001 72.5 85.7001 73 86.0001 73.4C86.5001 73.8 87.1001 73.9 87.7001 73.9C88.8001 73.9 89.8001 73.5 90.6001 72.7C91.1001 71.8 91.5001 70.9 91.8001 69.9ZM102.2 55H106L103.3 67.7L109.2 61.7H113.8L107 68.3L111.5 76.4H106.6L103.2 69.2L101.7 76.4H97.9001L102.2 55ZM125.5 75.6C124.7 76 123.9 76.3 123.1 76.4C122.2 76.6 121.3 76.7 120.3 76.7C117.7 76.7 115.9 76 114.9 74.7C113.9 73.4 113.6 71.5 114.1 69C114.5 66.9 115.5 64.9 117.1 63.5C118.6 62.1 120.5 61.4 122.5 61.4C125 61.4 126.6 62.2 127.3 63.7C128.1 65.2 128.2 67.4 127.5 70.3H117.4C117.3 71.1 117.5 72 117.9 72.7C118.6 73.7 119.7 74.2 120.9 74C121.9 74 122.9 73.8 123.9 73.4C124.6 73.2 125.3 72.8 126 72.4L125.5 75.6ZM117.9 67.6H124.5C124.8 66.7 124.6 65.8 124.1 65C123.6 64.4 122.8 64.1 122 64.1C120.9 64.1 119.9 64.5 119.2 65.3C118.7 66.1 118.3 66.8 117.9 67.6Z" fill="#172C36"/>
<path d="M11.2998 71.6004L19.3998 74.8004L18.5998 65.4004L11.2998 71.6004Z" fill="#CDCDCE"/>
</svg>
