<svg width="128" height="128" viewBox="0 0 128 128" fill="none" xmlns="http://www.w3.org/2000/svg">
<path d="M0.1 80.0998L18.5 64.4998L16.9 46.7998L0.1 80.0998ZM10.8 72.0998L0 81.1998H33.4L10.8 72.0998ZM17.7 47.3998L20.2 75.0998L34.5 80.8998L17.7 47.3998ZM43.1 66.4998C42.6 68.1998 42.9 70.0998 43.9 71.5998C45 72.9998 46.6 73.6998 48.4 73.5998C49.3 73.5998 50.1 73.4998 51 73.2998C51.7 73.1998 52.3 72.9998 53 72.6998L52.5 75.9998C51.7 76.1998 51 76.3998 50.2 76.4998C49.3 76.5998 48.5 76.6998 47.6 76.6998C44.2 76.6998 41.7 75.7998 40.2 73.9998C38.7 72.1998 38.3 69.7998 39 66.5998C39.6 63.5998 41.1 60.8998 43.5 58.8998C45.9 56.9998 48.9 55.8998 52 55.9998C52.9 55.9998 53.8 56.0998 54.7 56.2998C55.3 56.3998 56 56.5998 56.6 56.8998L55.5 60.3998C55 59.9998 54.3 59.7998 53.7 59.5998C53 59.3998 52.2 59.2998 51.5 59.2998C49.5 59.2998 47.6 59.9998 46.2 61.2998C44.5 62.6998 43.5 64.4998 43.1 66.4998ZM75.4 56.3998H81.8L77.6 76.2998H73.8L77.3 59.7998L68.4 76.2998H64.6L62.7 59.6998L59.2 76.2998H55.4L59.6 56.3998H66L67.5 71.4998L75.4 56.3998ZM91.1 73.9998C90.4 74.8998 89.5 75.6998 88.5 76.1998C87.7 76.5998 86.8 76.7998 85.9 76.7998C84.6 76.8998 83.4 76.4998 82.5 75.5998C81.8 74.7998 81.5 73.6998 81.7 72.5998C82 70.9998 82.9 69.6998 84.3 68.7998C86 67.7998 88 67.3998 90 67.4998H92.4L92.5 67.1998C92.7 66.1998 92.6 65.3998 92.1 64.9998C91.4 64.4998 90.6 64.2998 89.8 64.2998C89 64.2998 88.1 64.4998 87.3 64.7998C86.5 64.9998 85.7 65.3998 85 65.9998L85.6 62.6998C86.4 62.3998 87.3 62.0998 88.2 61.8998C89.1 61.6998 90.1 61.4998 91 61.4998C93.2 61.4998 94.7 61.9998 95.5 62.9998C96.3 64.0998 96.5 65.6998 96 67.8998L95.1 71.7998L94.5 75.0998C94.4 76.0998 94.3 76.4998 94.3 76.4998H90.9V75.7998C90.8 75.1998 90.9 74.5998 91.1 73.9998ZM91.8 69.8998L91.9 69.5998H90.2C89.1 69.5998 88 69.7998 87 70.2998C86.3 70.5998 85.8 71.2998 85.7 71.9998C85.6 72.4998 85.7 72.9998 86 73.3998C86.5 73.7998 87.1 73.8998 87.7 73.8998C88.8 73.8998 89.8 73.4998 90.6 72.6998C91.1 71.7998 91.5 70.8998 91.8 69.8998ZM102.2 54.9998H106L103.3 67.6998L109.2 61.6998H113.8L107 68.2998L111.5 76.3998H106.6L103.2 69.1998L101.7 76.3998H97.9L102.2 54.9998ZM125.5 75.5998C124.7 75.9998 123.9 76.2998 123.1 76.3998C122.2 76.5998 121.3 76.6998 120.3 76.6998C117.7 76.6998 115.9 75.9998 114.9 74.6998C113.9 73.3998 113.6 71.4998 114.1 68.9998C114.5 66.8998 115.5 64.8998 117.1 63.4998C118.6 62.0998 120.5 61.3998 122.5 61.3998C125 61.3998 126.6 62.1998 127.3 63.6998C128.1 65.1998 128.2 67.3998 127.5 70.2998H117.4C117.3 71.0998 117.5 71.9998 117.9 72.6998C118.6 73.6998 119.7 74.1998 120.9 73.9998C121.9 73.9998 122.9 73.7998 123.9 73.3998C124.6 73.1998 125.3 72.7998 126 72.3998L125.5 75.5998ZM117.9 67.5998H124.5C124.8 66.6998 124.6 65.7998 124.1 64.9998C123.6 64.3998 122.8 64.0998 122 64.0998C120.9 64.0998 119.9 64.4998 119.2 65.2998C118.7 66.0998 118.3 66.7998 117.9 67.5998ZM11.3 71.5998L19.4 74.7998L18.6 65.3998L11.3 71.5998Z" fill="#172C36"/>
</svg>
