<svg width="128" height="128" viewBox="0 0 128 128" fill="none" xmlns="http://www.w3.org/2000/svg">
<g clip-path="url(#clip0_13_25)">
<path d="M78.059 36.6772C73.4563 37.7476 68.7457 38.2845 64.0201 38.2771C59.2948 38.282 54.5844 37.7452 49.9813 36.6772C53.7449 30.7095 58.4916 25.4219 64.0201 21.0385C69.5445 25.4263 74.2905 30.7132 78.059 36.6772ZM120.376 2.28006C114.619 0.760996 108.69 -0.00532934 102.737 0.000244891C88.9557 -0.0129834 75.4808 4.06569 64.0201 11.7193C52.5616 4.06129 39.0853 -0.0178014 25.3033 0.000244891C19.3098 -0.0157378 13.3399 0.750674 7.54476 2.28006C5.11708 2.88795 2.72661 3.6358 0.385343 4.51988C0.343022 4.5703 0.319824 4.63403 0.319824 4.69986C0.319824 4.76569 0.343022 4.82942 0.385343 4.87985C1.38381 7.0284 2.49184 9.12432 3.70507 11.1593C3.75202 11.192 3.80785 11.2095 3.86506 11.2095C3.92226 11.2095 3.9781 11.192 4.02505 11.1593C6.39466 10.3008 8.81181 9.57969 11.2645 8.99951C27.1068 5.39482 43.7301 8.09126 57.6207 16.5189C51.6106 21.6003 46.4995 27.6579 42.5019 34.4374C41.702 35.7173 41.022 37.0372 40.3021 38.4371C39.5821 39.837 39.4222 40.237 38.9822 41.1969C38.5422 42.1568 37.7423 44.0766 37.2223 45.5165C32.4676 58.2972 31.5587 72.1903 34.6079 85.4814C37.657 98.7726 44.5308 110.88 54.3809 120.31C55.4208 121.31 56.5008 122.27 57.6207 123.23C58.7406 124.19 59.3805 124.71 60.3004 125.39C61.2204 126.07 62.6603 127.15 63.8602 127.95C63.9071 127.982 63.9629 128 64.0201 128C64.0774 128 64.1332 127.982 64.1801 127.95C65.38 127.11 66.5799 126.27 67.7398 125.39C68.8997 124.51 69.5397 123.99 70.4196 123.23C71.2995 122.47 72.6194 121.31 73.6593 120.31C80.4654 113.792 85.8808 105.962 89.5791 97.2942C93.2773 88.626 95.1818 79.2987 95.1776 69.8745C95.192 61.5599 93.7154 53.31 90.818 45.5165C90.258 44.0366 89.658 42.5968 89.0181 41.1569C88.3782 39.717 88.1382 39.277 87.6982 38.3971C87.2582 37.5172 86.2983 35.7573 85.4984 34.3974C81.4952 27.6219 76.3849 21.5652 70.3796 16.4789C84.3031 8.09548 100.941 5.45629 116.776 9.1195C119.229 9.69741 121.646 10.4186 124.015 11.2793C124.062 11.312 124.118 11.3295 124.175 11.3295C124.232 11.3295 124.288 11.312 124.335 11.2793C125.508 9.25282 126.602 7.17299 127.615 5.03983C127.657 4.98941 127.68 4.92568 127.68 4.85985C127.68 4.79402 127.657 4.73029 127.615 4.67986C125.249 3.74424 122.832 2.94303 120.376 2.28006Z" fill="#151F34"/>
<path d="M87.6583 69.8747C87.6824 85.779 81.5972 101.085 70.6596 112.631C68.7565 106.574 67.7855 100.262 67.7799 93.9128C67.7516 78.0077 73.8374 62.7002 84.7785 51.1562C86.6841 57.2131 87.6551 63.5251 87.6583 69.8747Z" fill="#348540"/>
<path d="M60.3806 93.9128C60.3818 100.263 59.4107 106.575 57.5008 112.631C49.8766 104.576 44.5466 94.6275 42.064 83.8178C39.5813 73.008 40.0364 61.7308 43.382 51.1562C54.3231 62.7002 60.4089 78.0077 60.3806 93.9128Z" fill="#7DBC42"/>
</g>
<defs>
<clipPath id="clip0_13_25">
<rect width="128" height="128" fill="white"/>
</clipPath>
</defs>
</svg>
