<svg width="128" height="128" viewBox="0 0 128 128" fill="none" xmlns="http://www.w3.org/2000/svg">
<path fill-rule="evenodd" clip-rule="evenodd" d="M39.6712 71.5336C38.5006 72.2485 36.5161 72.6252 34.7104 72.6252C29.7703 72.6252 27.7456 69.7479 27.7456 65.1452C27.7456 60.9178 30.1866 57.7635 35.1274 57.7635C36.7745 57.7635 38.5401 58.1805 39.6318 58.8938V62.7832L37.4484 62.6044L37.132 60.6609C37.0918 60.4621 37.0128 60.363 36.814 60.3035C36.3776 60.1642 35.703 60.0652 35.0477 60.0652C32.5278 60.0652 30.9208 61.7704 30.9208 65.1452C30.9208 68.657 32.4488 70.363 34.9092 70.363C35.5645 70.363 36.3776 70.264 36.8929 70.1053C37.1312 70.0458 37.1908 69.9862 37.2504 69.6883L37.5482 67.8438H39.6712V71.5336ZM48.1052 67.1684C48.1052 64.8272 47.3903 63.9932 46.1013 63.9932C44.7907 63.9932 43.918 64.8079 43.918 67.1878C43.918 69.5893 44.6924 70.5417 46.0216 70.5417C47.3114 70.5417 48.1052 69.6481 48.1052 67.1684ZM40.783 67.2876C40.783 63.9932 42.5099 61.8509 46.1408 61.8509C49.8112 61.8509 51.2402 64.0334 51.2402 67.0694C51.2402 70.4427 49.5334 72.6245 45.8824 72.6245C42.2515 72.6245 40.783 70.4025 40.783 67.2876ZM61.3407 71.6535C60.4277 72.209 59.0188 72.6252 57.5705 72.6252C53.979 72.6252 52.372 70.3838 52.372 67.3665C52.372 63.6566 54.6343 61.8509 57.8088 61.8509C59.3562 61.8509 60.7256 62.2872 61.3407 62.6849V65.7998L59.2176 65.7L58.9794 64.3901C58.9593 64.2516 58.9198 64.1332 58.7411 64.0729C58.5028 63.9932 58.126 63.9344 57.7291 63.9344C56.5391 63.9344 55.5271 64.7476 55.5271 67.0694C55.5271 69.6489 56.6776 70.3831 58.0865 70.3831C59.0791 70.3831 59.9712 70.0651 60.567 69.8075L61.3407 71.6535ZM69.9727 72.387L67.4528 67.3278L66.3812 68.4984V70.2841C66.3812 70.6013 66.4013 70.6415 66.6992 70.681L67.8899 70.8195V72.387H62.0756V70.8195L63.0682 70.681C63.3453 70.6415 63.3847 70.5812 63.3847 70.2841V59.8068C63.3847 59.5886 63.3252 59.4493 63.1271 59.3898L62.0362 59.0137L62.2543 57.4053H66.3812V65.8787L70.0129 62.0489H72.751V63.6172L71.7189 63.8153C71.4605 63.8547 71.4017 63.9143 71.223 64.1131L69.8141 65.6009L72.3533 70.3429C72.4926 70.6214 72.6318 70.6609 72.9491 70.7003L73.8225 70.8396V72.387H69.9727ZM74.7362 72.387V70.78L75.6291 70.6609C75.9068 70.6214 75.9463 70.5618 75.9463 70.264V64.4504C75.9463 64.2315 75.8867 64.093 75.6879 64.0334L74.6171 63.6566L74.8345 62.0489H78.3269L78.5652 63.6365H78.6844C79.3397 62.6238 80.2124 61.8509 81.482 61.8509C81.9385 61.8509 82.8515 61.9305 83.2089 62.0296V65.6411L80.8275 65.5615L80.6294 64.5093C80.59 64.3306 80.5296 64.2918 80.371 64.2918C79.855 64.2918 79.2392 64.7275 78.9428 64.9858V70.2438C78.9428 70.5618 78.9629 70.6214 79.26 70.6415L81.2244 70.8001V72.387H74.7362ZM91.4239 67.1684C91.4239 64.8272 90.709 63.9932 89.4208 63.9932C88.1102 63.9932 87.2375 64.8079 87.2375 67.1878C87.2375 69.5893 88.0112 70.5417 89.3404 70.5417C90.6301 70.5417 91.4239 69.6481 91.4239 67.1684ZM84.1025 67.2876C84.1025 63.9932 85.8286 61.8509 89.4595 61.8509C93.1307 61.8509 94.5589 64.0334 94.5589 67.0694C94.5589 70.4427 92.8529 72.6245 89.2019 72.6245C85.5709 72.6245 84.1025 70.4025 84.1025 67.2876ZM101.386 68.1208L100.036 68.2199C98.8652 68.2996 98.449 68.5974 98.449 69.3905C98.449 70.185 98.9256 70.4821 99.5801 70.4821C100.255 70.4821 100.929 70.1053 101.386 69.768V68.1208ZM101.921 72.3877L101.722 71.3154L101.623 71.296C100.87 72.0295 99.878 72.6252 98.2896 72.6252C95.7898 72.6252 95.3929 70.9185 95.3929 69.6883C95.3929 67.7038 96.6231 66.7916 99.1035 66.633L101.386 66.4744V65.3827C101.386 64.4504 101.286 63.8153 100.056 63.8153C99.1035 63.8153 98.6076 63.9545 98.6076 65.1452L95.8099 64.9062C95.8099 62.2276 98.2502 61.8509 100.076 61.8509C103.092 61.8509 104.303 62.6648 104.303 65.4423V70.264C104.303 70.5812 104.322 70.6214 104.62 70.6609L105.573 70.8195V72.387H101.921V72.3877ZM114.978 71.6535C114.066 72.209 112.657 72.6252 111.209 72.6252C107.616 72.6252 106.009 70.3838 106.009 67.3665C106.009 63.6566 108.272 61.8509 111.447 61.8509C112.994 61.8509 114.364 62.2872 114.978 62.6849V65.7998L112.856 65.7L112.618 64.3901C112.597 64.2516 112.558 64.1332 112.379 64.0729C112.141 63.9932 111.763 63.9344 111.366 63.9344C110.177 63.9344 109.165 64.7476 109.165 67.0694C109.165 69.6489 110.316 70.3831 111.725 70.3831C112.717 70.3831 113.609 70.0651 114.204 69.8075L114.979 71.6535" fill="#151F34"/>
<mask id="mask0_13_53" style="mask-type:alpha" maskUnits="userSpaceOnUse" x="0" y="51" width="128" height="26">
<path d="M64 51.3408H0V76.659H128V51.3408H64Z" fill="white"/>
</mask>
<g mask="url(#mask0_13_53)">
<path fill-rule="evenodd" clip-rule="evenodd" d="M123.694 72.387V65.9182C123.694 65.3224 123.635 64.2315 122.643 64.2315C121.909 64.2315 121.075 64.6091 120.579 64.9665V70.2841C120.579 70.6013 120.599 70.6415 120.896 70.681L121.849 70.8195V72.387H116.372V70.8195L117.266 70.681C117.543 70.6415 117.582 70.5812 117.582 70.2841V59.8068C117.582 59.5886 117.523 59.4493 117.325 59.3898L116.233 59.0137L116.452 57.4053H120.538V63.0215L120.638 63.0408C121.531 62.3073 122.563 61.8509 123.813 61.8509C125.916 61.8509 126.69 63.0013 126.69 65.0648V70.2841C126.69 70.6013 126.71 70.6415 127.008 70.681L128 70.8195V72.387H123.694" fill="#151F34"/>
<path fill-rule="evenodd" clip-rule="evenodd" d="M15.2057 58.9144C14.3495 59.1135 13.4732 59.2135 12.5942 59.2123C11.6969 59.2123 10.8204 59.111 9.97898 58.9144C10.68 57.8025 11.5642 56.8173 12.5942 56.0006C13.6224 56.8183 14.5055 57.8034 15.2065 58.9144H15.2057ZM23.1065 52.5134C22.0275 52.2276 20.9157 52.0839 19.7995 52.086C17.2341 52.0824 14.7254 52.8405 12.5912 54.2641C10.4575 52.8396 7.9485 52.0815 5.38298 52.086C4.23994 52.086 3.12891 52.2319 2.07523 52.5134C1.63512 52.6271 1.20179 52.7656 0.777297 52.9282C0.770825 52.9308 0.764941 52.9346 0.759995 52.9396C0.755049 52.9445 0.75114 52.9503 0.748502 52.9568C0.745863 52.9633 0.744547 52.9702 0.744633 52.9772C0.744718 52.9841 0.746204 52.991 0.749 52.9974C0.933674 53.398 1.1392 53.786 1.36036 54.1613C1.37228 54.1822 1.39759 54.1911 1.41993 54.1829C2.68946 53.7207 4.03046 53.4858 5.38149 53.4889C7.58194 53.4889 9.64016 54.104 11.3983 55.1644C10.2804 56.1106 9.32981 57.2384 8.58648 58.5004C8.19573 59.1561 7.86547 59.846 7.59981 60.5616C7.05989 62.0125 6.78399 63.5484 6.78516 65.0965C6.78516 68.7811 8.3266 72.1127 10.7966 74.4837C10.9887 74.6728 11.1883 74.8508 11.3983 75.025C11.5621 75.1665 11.7259 75.299 11.8972 75.4271C12.1124 75.5984 12.3366 75.7555 12.5622 75.9059C12.5706 75.9117 12.5806 75.9148 12.5909 75.9148C12.6011 75.9148 12.6111 75.9117 12.6195 75.9059C12.8444 75.7518 13.0663 75.5947 13.2815 75.4271C13.4558 75.299 13.6196 75.1665 13.7834 75.025C13.9897 74.8508 14.1967 74.6691 14.3888 74.4837C16.8551 72.1127 18.3973 68.7774 18.3973 65.0973C18.3987 63.2546 18.0067 61.4327 17.2475 59.7537C17.17 59.5801 17.0891 59.408 17.0048 59.2376C16.8753 58.988 16.7387 58.7422 16.5952 58.5004C15.8508 57.2392 14.9004 56.1116 13.7834 55.1644C15.5982 54.067 17.6788 53.4875 19.7995 53.4889C21.1505 53.4858 22.4915 53.7207 23.761 54.1829C23.7841 54.1904 23.8094 54.1814 23.8213 54.1606C24.0431 53.7829 24.2468 53.395 24.432 52.9982C24.4349 52.9917 24.4365 52.9848 24.4366 52.9777C24.4368 52.9707 24.4355 52.9636 24.4328 52.9571C24.4302 52.9506 24.4262 52.9446 24.4212 52.9396C24.4162 52.9347 24.4102 52.9308 24.4037 52.9282C23.9792 52.7688 23.5473 52.6258 23.1065 52.5134Z" fill="#151F34"/>
<path fill-rule="evenodd" clip-rule="evenodd" d="M16.9946 65.0978C16.9946 68.1762 15.7905 70.9768 13.8261 73.0567C13.4727 71.9282 13.293 70.7526 13.293 69.5702C13.293 66.4918 14.4971 63.6859 16.4615 61.6113C16.807 62.7127 16.9946 63.884 16.9946 65.0978Z" fill="#348540"/>
<path fill-rule="evenodd" clip-rule="evenodd" d="M11.8892 69.5702C11.8892 70.7817 11.703 71.9531 11.356 73.0567C9.31899 70.9077 8.18477 68.0588 8.1875 65.0978C8.1875 63.884 8.37739 62.7127 8.72514 61.6113C10.7617 63.7602 11.8945 66.6096 11.8892 69.5702Z" fill="#7DBC42"/>
</g>
</svg>
