<svg width="128" height="128" viewBox="0 0 128 128" fill="none" xmlns="http://www.w3.org/2000/svg">
<path d="M16.3992 120.213C14.2432 120.213 13.6162 118.958 13.6162 117.077C13.6162 116.45 13.6952 115.743 13.7922 114.998C14.2642 111.745 15.4172 109.884 18.2002 109.884C20.0822 109.884 21.0002 110.726 21.0002 112.255V113H22.8672C22.8882 113 22.8882 112.314 22.8882 112.158C22.8882 109.924 21.5352 107.805 18.2032 107.805C13.6752 107.805 11.8132 110.265 11.1272 115.087C11.0264 115.714 10.9739 116.348 10.9702 116.983C10.9702 119.825 12.0882 122.41 16.0862 122.41C19.1242 122.41 20.9282 120.929 21.9862 119.106L20.2022 117.905C19.0462 119.728 17.7912 120.213 16.3992 120.213ZM28.6502 111.236C25.0232 111.236 23.4562 113.097 22.9272 116.801C22.8672 117.234 22.8282 117.684 22.8282 118.095C22.8282 120.486 23.9452 122.388 27.0412 122.388C30.6682 122.388 32.2562 120.447 32.7852 116.801C32.8442 116.331 32.8832 115.9 32.8832 115.469C32.8842 113.039 31.7282 111.236 28.6502 111.236ZM30.1592 116.802C29.7672 119.488 28.9252 120.311 27.3362 120.311C26.0632 120.311 25.4362 119.782 25.4362 118.194C25.4362 117.802 25.4762 117.332 25.5542 116.802C25.9462 114.137 26.7302 113.314 28.3372 113.314C29.6312 113.314 30.2772 113.843 30.2772 115.45C30.2772 115.842 30.2372 116.293 30.1592 116.802ZM42.0002 108L41.3932 111.598C41.3542 111.911 41.3742 111.807 41.4922 112.101C40.9242 111.67 39.9042 111.385 39.2182 111.385C35.9642 111.385 34.1422 112.858 33.5542 116.974C33.4762 117.464 33.4562 117.877 33.4562 118.288C33.4562 121.288 35.2202 122.406 37.5912 122.406C38.5922 122.406 39.5712 122.427 40.3352 121.781L40.5302 123H42.4122L44.6072 108H42.0002ZM40.1382 119.742C39.4521 120.156 38.6677 120.379 37.8662 120.389C36.4352 120.389 36.0432 119.644 36.0432 118.449C36.0432 117.998 36.1022 117.47 36.1812 116.9C36.6312 113.784 37.6312 113.234 38.9252 113.234C39.7672 113.234 40.4132 113.372 41.0222 113.706L40.1382 119.742ZM50.3312 111.236C46.7432 111.236 45.0592 112.94 44.4902 116.801C44.4302 117.272 44.3912 117.723 44.3912 118.154C44.3912 120.8 45.7442 122.388 48.7222 122.388C51.0352 122.388 52.7612 121.427 53.6822 119.663L51.7022 118.859C51.1342 119.721 50.3702 120.309 49.0172 120.309C47.5672 120.309 46.9792 119.919 46.9792 118.625C46.9792 118.37 46.9992 117.999 47.0382 117.999H54.1132C54.2122 116.999 54.3282 116.292 54.3282 115.706C54.3282 113.747 53.5842 111.236 50.3312 111.236ZM51.6832 116H47.3712C47.8032 115 48.5272 113.452 50.0172 113.452C51.1732 113.452 51.7422 114.128 51.7422 115.284C51.7412 115.48 51.7232 116 51.6832 116ZM61.8712 111L62.1062 109H56.5782L56.3442 111H57.7942L56.2272 121H54.7752L54.5412 123H60.0682L60.3042 121H58.8532L60.4202 111H61.8712ZM73.1032 114L73.8092 112H71.9082L70.5372 112.283C69.7722 111.794 68.7332 111.427 67.7542 111.427C64.9502 111.427 62.5602 112.781 62.5602 115.859C62.5602 116.722 62.8732 117.419 63.2452 117.89C62.6582 118.203 62.1482 118.727 62.1482 119.434C62.1482 119.747 62.2652 120.068 62.5012 120.361C61.3242 121.068 60.6012 122.239 60.6012 123.61C60.6012 126.257 63.3642 126.822 65.4812 126.822C68.1462 126.822 71.3222 126.213 71.3222 122.822C71.3222 121.666 70.5972 120.763 68.5002 120.371L64.7172 119.664C64.2862 119.585 64.1882 119.448 64.1882 119.252C64.1882 118.958 64.3662 118.802 64.6592 118.802L64.9142 118.841C65.4242 118.958 66.0122 119.018 66.6192 119.018C69.3442 119.018 71.7742 117.841 71.7742 114.784C71.7742 114.352 71.6962 114.06 71.5002 113.589C71.8332 113.746 72.2652 114.001 72.4402 114.001H73.1032V114ZM67.7142 122.113C68.4582 122.251 68.7122 122.525 68.7122 123.015C68.7122 124.603 67.0072 124.799 65.7732 124.799C63.8912 124.799 63.1862 124.349 63.1862 123.348C63.1862 122.466 63.4402 122.055 64.0292 121.427L67.7142 122.113ZM66.9092 116.979C65.7722 116.979 65.1452 116.568 65.1452 115.587C65.1452 114.137 65.9882 113.294 67.4582 113.294C68.6342 113.294 69.2032 113.784 69.2032 114.743C69.2032 116.194 68.3792 116.979 66.9092 116.979ZM80.0662 111.236C78.9682 111.236 77.9892 111.775 76.7732 112.734L76.5972 112H74.4402L72.9312 123H75.5382L76.6752 114.658C77.4402 114.188 78.3802 113.505 79.1842 113.505C80.1632 113.505 80.5172 113.978 80.5172 114.879C80.5172 115.095 80.4962 115.734 80.4572 115.969L79.4982 123H82.1052L83.0642 115.912C83.1042 115.58 83.1432 115.034 83.1432 114.721C83.1442 112.857 82.2612 111.236 80.0662 111.236ZM88.0952 120.244L88.1152 119.975L89.2512 112H84.9192L84.6462 114H86.5462C86.3892 114 86.2912 114.175 86.2722 114.333L85.4882 119.644C85.4507 119.976 85.4313 120.311 85.4302 120.646C85.4302 122.018 86.1742 123 87.7022 123H89.0352L89.3292 121H88.4872C88.1922 121 88.0952 120.479 88.0952 120.244ZM89.7802 108H87.2322C87.0752 108 87.0752 107.423 87.0562 107.619L86.7022 110.437C86.6822 110.614 86.6822 111 86.8392 111H89.3882C89.5452 111 89.5452 110.315 89.5642 110.137L89.9182 107.962C89.9382 107.766 89.9382 108 89.7802 108ZM95.0962 120.311C94.4502 120.311 94.1362 120.036 94.1362 119.449L94.1562 119.409L94.9792 114H97.9582L98.8592 112H95.2532L95.8602 107.599L93.1172 108.476L92.6262 112H91.0392L90.7652 114H92.6072C92.4312 115 92.2542 114.351 92.2352 114.548L91.5292 119.291C91.4902 119.507 91.4902 119.664 91.4902 119.859C91.4902 121.721 92.8622 122.418 94.5102 122.418C96.0382 122.418 97.2732 121.972 98.2342 121.167L97.0182 119.671C96.4092 120.043 95.9982 120.311 95.0962 120.311ZM104.661 111.236C101.074 111.236 99.3892 112.94 98.8202 116.801C98.7612 117.272 98.7222 117.723 98.7222 118.154C98.7222 120.8 100.074 122.388 103.053 122.388C105.366 122.388 107.092 121.427 108.012 119.663L106.033 118.859C105.465 119.721 104.7 120.309 103.347 120.309C101.898 120.309 101.309 119.919 101.309 118.625C101.309 118.37 101.33 117.999 101.369 117.999H108.444C108.542 116.999 108.66 116.292 108.66 115.706C108.66 113.747 107.915 111.236 104.661 111.236ZM106.014 116H101.702C102.133 115 102.857 113.452 104.348 113.452C105.504 113.452 106.073 114.128 106.073 115.284C106.072 115.48 106.053 116 106.014 116ZM115.873 111.236C114.932 111.236 114.05 111.775 113.168 112.616L113.011 112H110.856L109.346 123H111.973L113.129 114.482C113.815 114.071 114.599 113.72 115.344 113.72C115.815 113.72 116.265 113.645 116.696 113.704L117.031 111.431C116.637 111.353 116.245 111.236 115.873 111.236ZM49.3102 100.121C43.3772 97.5566 37.8252 91.0386 37.8122 84.3696C37.7962 77.0986 42.4042 70.9256 48.1352 66.8686C47.4462 69.4716 47.0702 71.8526 48.7772 74.1806C49.5662 75.2452 50.6445 76.0606 51.8838 76.5297C53.1231 76.9988 54.471 77.1019 55.7672 76.8266C61.8992 75.4846 62.1802 68.7436 58.5452 64.8166C54.9512 60.9276 51.4742 56.5346 52.8422 50.8946C53.5272 48.0676 55.2632 45.4196 57.4622 43.5266C55.7722 47.9686 60.5752 52.3496 63.7402 54.5316C69.2302 58.3176 75.2532 61.1786 80.3012 65.6166C85.6112 70.2806 89.5322 76.5876 88.7402 83.9016C87.8822 91.8296 81.5822 97.3436 74.5162 100.128C89.4482 96.8316 104.877 85.2426 105.193 68.6816C105.455 55.0576 96.1092 44.5726 84.5312 38.5696L83.9262 38.2396C84.2442 39.0106 84.3482 39.6666 84.3362 40.2536C84.4437 39.8153 84.5087 39.3675 84.5302 38.9166C84.5275 39.4621 84.4562 40.005 84.3182 40.5326L84.3362 40.2536C84.1644 40.977 83.8748 41.6672 83.4792 42.2966L83.6492 42.1136C81.3392 45.9446 75.0862 46.7766 71.9972 42.8096C67.0312 36.4286 72.1012 29.5486 72.8102 22.7916C73.6982 14.3226 68.3872 6.10164 61.8022 1.18164C65.4292 7.04864 60.6512 14.8106 56.8282 19.1496C53.1212 23.3566 48.6132 26.8686 44.5212 30.6906C40.1252 34.7956 35.8992 39.1196 32.2862 43.9376C25.0602 53.5806 20.6362 65.7086 23.8872 77.7396C27.1362 89.7616 37.5502 97.4146 49.3102 100.121Z" fill="#EE4323"/>
</svg>
