<svg width="128" height="128" viewBox="0 0 128 128" fill="none" xmlns="http://www.w3.org/2000/svg">
<path d="M17.9559 59.1321C19.1379 59.1321 20.2219 59.5591 21.0629 60.2661L22.2079 58.9011C21.0183 57.8981 19.512 57.3487 17.9559 57.3501C14.3059 57.3501 11.3359 60.3201 11.3359 63.9701C11.3359 67.6191 14.3059 70.5881 17.9559 70.5881C19.512 70.5895 21.0182 70.0401 22.2079 69.0371L21.0629 67.6721C20.1936 68.4051 19.093 68.8068 17.9559 68.8061C16.6734 68.8048 15.4438 68.2948 14.5368 67.388C13.6298 66.4812 13.1195 65.2517 13.1179 63.9691C13.1195 62.6866 13.6298 61.4571 14.5368 60.5503C15.4438 59.6435 16.6734 59.1335 17.9559 59.1321ZM54.5979 68.4241H51.9249V59.5141H54.5979C55.7792 59.5152 56.9119 59.9849 57.7473 60.8201C58.5827 61.6553 59.0526 62.7878 59.0539 63.9691C59.0526 65.1504 58.5827 66.283 57.7473 67.1182C56.9119 67.9534 55.7792 68.4231 54.5979 68.4241ZM54.5979 57.7321H51.0339C50.7979 57.7321 50.5715 57.8259 50.4046 57.9928C50.2377 58.1597 50.1439 58.3861 50.1439 58.6221V69.3151C50.1439 69.8071 50.5419 70.2071 51.0339 70.2071H54.5979C56.2519 70.2055 57.8376 69.5478 59.0071 68.3783C60.1766 67.2088 60.8344 65.6231 60.8359 63.9691C60.8341 62.3154 60.1762 60.7299 59.0068 59.5606C57.8373 58.3913 56.2517 57.7337 54.5979 57.7321ZM65.6599 58.6231V69.3161C65.6599 69.8081 66.0599 70.2061 66.5519 70.2061H73.9769V68.4251H67.4429V64.8601H71.6009V63.0781H67.4429V59.5141H73.9769V57.7321H66.5519C66.3158 57.7321 66.0893 57.8259 65.9223 57.9927C65.7552 58.1596 65.6612 58.386 65.6609 58.6221L65.6599 58.6231ZM92.6339 58.6231V69.3161C92.6339 69.8081 93.0329 70.2061 93.5239 70.2061H100.95V68.4251H94.4159V64.8601H98.5739V63.0781H94.4159V59.5141H100.95V57.7321H93.5249C93.2888 57.7321 93.0623 57.8259 92.8953 57.9927C92.7282 58.1596 92.6342 58.386 92.6339 58.6221V58.6231ZM84.1529 63.0781H81.1829V59.5141H84.1529C85.1359 59.5141 85.9349 60.3141 85.9349 61.2961C85.9349 62.2791 85.1359 63.0781 84.1529 63.0781ZM84.1529 57.7321H80.2919C80.0559 57.7321 79.8295 57.8259 79.6626 57.9928C79.4957 58.1597 79.4019 58.3861 79.4019 58.6221V70.2071H81.1829V64.8601H84.1529C85.098 64.8593 86.0042 64.4836 86.6725 63.8154C87.3409 63.1473 87.7169 62.2412 87.7179 61.2961C87.7169 60.3511 87.3409 59.445 86.6725 58.7768C86.0042 58.1086 85.098 57.7329 84.1529 57.7321ZM114.882 57.7321V66.8541L107.547 58.0521C107.43 57.9107 107.272 57.8089 107.095 57.7606C106.918 57.7122 106.731 57.7198 106.558 57.7822C106.386 57.8446 106.237 57.9588 106.132 58.1091C106.026 58.2595 105.97 58.4387 105.971 58.6221V70.2071H107.753V61.0841L115.088 69.8861C115.206 70.0259 115.363 70.1261 115.54 70.1734C115.716 70.2207 115.903 70.2128 116.075 70.1506C116.246 70.0885 116.395 69.9752 116.5 69.826C116.606 69.6767 116.663 69.4988 116.664 69.3161V57.7321H114.882ZM39.9479 62.9861L36.4069 60.6181V56.8081L42.8069 61.0741L39.9479 62.9861ZM41.4179 63.9691L43.4609 62.6021V65.3361L41.4169 63.9691H41.4179ZM36.4069 67.3201L39.9479 64.9521L42.8069 66.8641L36.4069 71.1311V67.3211V67.3201ZM31.2319 64.9521L34.7729 67.3201V71.1301L28.3729 66.8641L31.2309 64.9521H31.2319ZM29.7619 63.9691L27.7189 65.3361V62.6021L29.7619 63.9691ZM34.7729 60.6181L31.2309 62.9861L28.3729 61.0741L34.7729 56.8071V60.6171V60.6181ZM35.5899 65.9011L32.6999 63.9701L35.5899 62.0381L38.4799 63.9701L35.5899 65.9021V65.9011ZM45.0799 60.9311C45.0759 60.9081 45.0729 60.8851 45.0659 60.8621L45.0539 60.8221C45.0469 60.8021 45.0409 60.7821 45.0329 60.7631L45.0139 60.7231C45.0057 60.7048 44.9967 60.6868 44.9869 60.6691L44.9629 60.6311C44.914 60.5546 44.8525 60.487 44.7809 60.4311L44.7439 60.4041L44.7309 60.3941L36.0429 54.6021C35.9088 54.5126 35.7512 54.4648 35.5899 54.4648C35.4287 54.4648 35.2711 54.5126 35.1369 54.6021L26.4489 60.3941L26.4349 60.4041L26.3979 60.4321C26.3545 60.4667 26.3143 60.5052 26.2779 60.5471C26.2558 60.574 26.2351 60.6021 26.2159 60.6311L26.1929 60.6691C26.1826 60.687 26.1733 60.7053 26.1649 60.7241C26.1589 60.7371 26.1519 60.7501 26.1469 60.7641C26.1392 60.7835 26.1322 60.8032 26.1259 60.8231C26.1209 60.8361 26.1159 60.8491 26.1129 60.8631C26.1074 60.8856 26.1027 60.9083 26.0989 60.9311L26.0919 60.9661C26.0872 61.0016 26.0849 61.0374 26.0849 61.0731V66.8651C26.0849 66.9011 26.0879 66.9361 26.0919 66.9721L26.0989 67.0071C26.1028 67.03 26.1074 67.0526 26.1129 67.0751L26.1259 67.1151L26.1469 67.1751C26.1519 67.1891 26.1589 67.2011 26.1649 67.2151C26.1793 67.2469 26.1964 67.2773 26.2159 67.3061C26.2644 67.3829 26.326 67.4506 26.3979 67.5061C26.4099 67.5161 26.4219 67.5261 26.4349 67.5341L26.4489 67.5441L35.1369 73.3361C35.271 73.4259 35.4286 73.4738 35.5899 73.4738C35.7512 73.4738 35.9089 73.4259 36.0429 73.3361L44.7309 67.5441L44.7439 67.5341L44.7809 67.5061C44.7971 67.4937 44.8128 67.4807 44.8279 67.4671L44.8599 67.4361C44.9246 67.3723 44.9768 67.297 45.0139 67.2141L45.0329 67.1751C45.0405 67.1554 45.0472 67.1354 45.0529 67.1151L45.0669 67.0751C45.0727 67.0527 45.0773 67.03 45.0809 67.0071C45.0829 66.9951 45.0859 66.9841 45.0869 66.9721C45.0919 66.9367 45.0946 66.9009 45.0949 66.8651V61.0731C45.0946 61.0373 45.0919 61.0016 45.0869 60.9661L45.0809 60.9311H45.0799Z" fill="#231F20"/>
</svg>
