<svg width="128" height="128" viewBox="0 0 128 128" fill="none" xmlns="http://www.w3.org/2000/svg">
<path d="M125.571 39.9263L67.071 0.926254C65.074 -0.303746 62.943 -0.313746 60.929 0.926254L2.429 39.9263C0.929 40.9263 0 42.7123 0 44.4973V83.4973C0 85.2833 0.929 87.0693 2.429 88.0683L60.929 127.074C62.925 128.303 65.057 128.314 67.071 127.074L125.571 88.0683C127.071 87.0693 128 85.2833 128 83.4983V44.4983C128 42.7123 127.071 40.9263 125.571 39.9263ZM69.501 15.7823L112.571 44.4973L93.357 57.3553L69.5 41.4253V15.7843L69.501 15.7823ZM58.5 15.7823V41.4263L34.642 57.3543L15.428 44.4983L58.5 15.7823ZM11 54.7823L24.786 63.9973L11 73.2122V54.7823ZM58.5 112.212L15.428 83.4973L34.642 70.6403L58.5 86.5693V112.212ZM64 76.9973L44.572 63.9973L64 50.9973L83.428 63.9973L64 76.9973ZM69.5 112.212V86.5693L93.357 70.6403L112.571 83.4973L69.501 112.212H69.5ZM117 73.2122L103.214 63.9973L117 54.7833V73.2122Z" fill="black"/>
</svg>
