<svg width="128" height="128" viewBox="0 0 128 128" fill="none" xmlns="http://www.w3.org/2000/svg">
<path d="M64.0468 6.44336C28.7728 6.46336 0.0587852 32.6464 0.0297852 64.8034C3.55279 67.2004 5.64079 68.2794 8.43979 69.4514C14.1698 65.8934 20.8108 64.0104 27.6438 64.0104C29.6828 64.0104 31.7408 64.1824 33.7608 64.5184C40.1308 65.5724 51.2878 71.4904 55.9128 75.4394C56.9839 73.274 58.248 71.2097 59.6898 69.2714C60.2918 68.4714 60.9288 67.6894 61.5928 66.9284C55.7688 62.4434 43.3268 56.1384 35.6898 54.8734C33.0265 54.4316 30.3314 54.2095 27.6318 54.2094C22.1078 54.2014 16.6318 55.1394 11.4868 56.9714C15.6668 33.6394 37.9088 16.2644 64.0928 16.2444C78.2878 16.2444 91.6278 21.2794 101.659 30.4204C109.667 37.7134 114.784 46.8344 116.554 56.8934C111.39 55.0574 105.948 54.1154 100.354 54.0964L99.5688 54.0924C98.0285 54.1101 96.4901 54.2026 94.9588 54.3694C94.6748 54.3964 94.3888 54.4394 94.1088 54.4754C93.4168 54.5614 92.7328 54.6554 92.0538 54.7684C91.7488 54.8144 91.4518 54.8694 91.1508 54.9244C90.4638 55.0534 89.7758 55.1974 89.0968 55.3544C88.8508 55.4084 88.6038 55.4634 88.3618 55.5214C87.5068 55.7324 86.6548 55.9674 85.8148 56.2254C85.7648 56.2404 85.7138 56.2524 85.6628 56.2684C83.7773 56.8559 81.9313 57.563 80.1358 58.3854C80.0878 58.4095 80.0395 58.4328 79.9908 58.4554C79.1588 58.8384 78.3388 59.2484 77.5338 59.6854L77.3338 59.7914C73.0928 62.1114 69.3238 65.0764 66.1868 68.5644L65.7958 68.9984C65.1078 69.7834 64.4358 70.5884 63.8078 71.4284C63.1616 72.3029 62.5491 73.2019 61.9718 74.1234C61.5091 74.853 61.0712 75.5981 60.6588 76.3574C59.7611 78.0094 58.9857 79.725 58.3388 81.4904V81.4984C56.7694 85.7717 56.0052 90.2987 56.0848 94.8504C56.0888 95.0304 56.0888 95.2134 56.0928 95.3934C56.1038 95.7484 56.1238 96.1034 56.1468 96.4594C56.1828 97.0414 56.2288 97.6234 56.2918 98.2054C56.3308 98.5684 56.3778 98.9354 56.4288 99.3034C56.4588 99.5334 56.4868 99.7684 56.5258 100.002C56.6198 100.612 56.7288 101.221 56.8538 101.826C58.4078 109.314 62.2418 116.061 67.7668 121.556C69.7768 118.519 69.8868 117.884 71.9218 112.111C66.9878 106.786 66.8738 101.781 66.8738 94.3814C66.8738 78.2794 80.6828 64.9084 98.3078 63.9394L99.4208 63.9004C106.565 63.7364 113.604 65.6584 119.581 69.3654L123.599 66.7654L127.987 64.7364C127.999 49.1504 121.351 34.5024 109.265 23.4904C97.2028 12.4984 81.1598 6.44336 64.0458 6.44336H64.0468Z" fill="#E0225C"/>
</svg>
