<svg width="128" height="128" viewBox="0 0 128 128" fill="none" xmlns="http://www.w3.org/2000/svg">
<path d="M89.708 48.8678L88.95 48.4538C89.349 49.4178 89.479 50.2398 89.465 50.9748C89.6141 50.3699 89.6973 49.7506 89.713 49.1278C89.7246 49.8804 89.6327 50.6311 89.44 51.3588L89.465 50.9738C89.2492 51.8794 88.8864 52.7435 88.391 53.5318L88.626 53.2818C85.746 58.1008 77.889 59.1538 74.014 54.1768C67.794 46.1868 74.142 37.5728 75.031 29.1118C76.142 18.5078 69.493 8.21276 61.248 2.05176C65.789 9.39776 59.806 19.1178 55.019 24.5498C50.377 29.8188 44.733 34.2168 39.609 39.0008C34.106 44.1438 28.812 49.5558 24.29 55.5888C15.241 67.6628 9.70002 82.8488 13.772 97.9138C17.84 112.97 30.88 122.553 45.606 125.941C38.177 122.729 31.225 114.568 31.209 106.218C31.19 97.1118 36.959 89.3828 44.136 84.3038C43.273 87.5628 42.802 90.5438 44.939 93.4588C46.927 96.1698 50.407 97.4858 53.692 96.7708C61.371 95.0918 61.722 86.6508 57.171 81.7328C52.67 76.8648 48.316 71.3618 50.028 64.2998C50.886 60.7598 53.06 57.4458 55.815 55.0738C53.697 60.6368 59.712 66.1227 63.674 68.8528C70.55 73.5938 78.09 77.1778 84.412 82.7338C91.06 88.5738 95.971 96.4698 94.979 105.63C93.903 115.557 86.015 122.462 77.168 125.947C95.864 121.819 115.186 107.308 115.579 86.5708C115.908 69.5128 104.206 56.3838 89.708 48.8678Z" fill="#EE4323"/>
</svg>
