<svg width="128" height="128" viewBox="0 0 128 128" fill="none" xmlns="http://www.w3.org/2000/svg">
<path d="M50.2998 29.6002C61.9998 28.6002 65.2998 21.1002 78.9998 19.8002C85.6998 19.2002 89.9998 20.6002 90.3998 22.9002C90.7998 25.1002 87.4998 26.6002 83.3998 26.9002C77.7998 27.5002 75.3998 25.4002 74.9998 23.5002C70.8998 23.9002 70.1998 25.7002 70.3998 27.0002C70.7998 29.4002 75.8998 31.7002 84.4998 30.9002C94.2998 30.1002 97.4998 26.3002 96.6998 22.4002C95.6998 17.4002 88.1998 13.2002 74.6998 14.4002C57.3998 16.0002 57.4998 23.9002 45.7998 24.9002C40.9998 25.3002 38.2998 24.2002 37.7998 22.3002C37.4998 20.4002 39.7998 19.5002 42.5998 19.3002C45.1998 19.1002 48.2998 19.5002 49.7998 20.3002C50.8998 19.7002 51.2998 19.2002 51.0998 18.5002C50.6998 16.7002 47.0998 15.9002 42.5998 16.3002C33.8998 17.1002 33.8998 21.0002 34.1998 22.7002C35.2998 27.4002 41.9998 30.4002 50.2998 29.6002ZM108.9 49.4002C98.0998 51.9002 84.2998 53.5002 67.6998 53.5002C50.7998 53.5002 36.9998 51.7002 26.1998 49.4002C16.5998 46.9002 11.3998 44.2002 9.59982 41.4002C10.4998 47.7002 12.0998 53.8002 14.1998 59.6002C11.7998 61.1002 9.49982 63.1002 7.49982 65.6002C3.69982 70.4002 1.99982 76.0002 2.29982 81.5002C2.59982 87.0002 5.29982 91.5002 9.59982 95.0002C14.0998 98.5002 18.8998 99.5002 24.3998 98.5002C26.4998 98.2002 28.8998 97.0002 30.9998 96.4002C26.4998 96.4002 22.6998 94.9002 18.8998 91.9002C14.7998 88.9002 11.8998 84.6002 11.2998 79.5002C10.2998 74.7002 11.2998 70.2002 13.9998 66.3002C14.5998 65.5002 15.1998 64.9002 15.8998 64.3002C17.3998 68.1002 19.1998 71.7002 21.0998 75.2002C25.1998 81.5002 29.3998 87.0002 33.4998 92.9002C35.2998 96.4002 36.4998 99.9002 37.2998 103.3C39.9998 107.1 43.8998 109.8 48.6998 111.2C54.5998 113.3 60.7998 114.1 67.0998 114.1H67.7998C74.0998 114.1 80.6998 113.1 86.7998 111.1C91.2998 109.6 95.0998 107.1 97.8998 103.1H98.1998C98.8998 100.1 99.9998 96.3002 101.7 92.8002C105.8 86.9002 110 81.4002 114.1 75.1002C119.6 65.1002 123.4 53.7002 125.5 41.5002C123.4 44.5002 118.2 47.3002 108.9 49.4002ZM26.1998 40.7002C36.9998 43.4002 50.7998 44.8002 67.3998 44.8002C84.2998 44.8002 97.7998 43.3002 108.6 40.7002C120 38.0002 125.5 34.4002 125.5 31.1002C125.5 28.6002 123 26.3002 118.5 24.5002C119.5 25.2002 120.3 26.3002 120.3 27.5002C120.3 31.0002 115.1 33.8002 104.7 36.1002C95.0998 38.2002 82.6998 39.7002 67.6998 39.7002C53.1998 39.7002 40.2998 38.2002 30.9998 36.2002C20.9998 33.7002 15.6998 31.0002 15.6998 27.6002C15.6998 26.1002 16.3998 24.9002 18.3998 23.5002C12.0998 26.0002 8.79982 28.0002 8.79982 31.1002C9.09982 34.6002 14.6998 38.1002 26.1998 40.7002Z" fill="#28334C"/>
</svg>
