<svg width="128" height="128" viewBox="0 0 128 128" fill="none" xmlns="http://www.w3.org/2000/svg">
<path d="M113.7 105.8C112.3 105.8 111.3 106.3 110.5 107L110.9 104.9L107.1 105.1L105 114.9C104.6 115.9 103.6 117.1 102.6 117.1C101.9 117.1 101.5 116.8 101.5 116C101.5 115.8 101.5 115.4 101.6 115.1L103.6 105.9H99.5998L97.7998 114.6C97.6998 115.3 97.5998 115.8 97.5998 116.4C97.5998 118.7 98.8998 119.6 100.5 119.6C101.5 119.6 103.1 119.3 104.5 117.6L102.7 126.2L106.8 125.2L108.2 118.6C108.5 119.1 109.2 119.6 110.5 119.6C115.7 119.6 117.1 113.7 117.1 110C117 106.9 115.6 105.8 113.7 105.8ZM109.5 117.3C108.9 117.3 108.6 117 108.5 116.7L110.1 109.1C110.6 108.3 111.4 107.8 112 107.8C112.5 107.8 113.3 107.9 113.3 110C113.3 112.6 112.4 117.3 109.5 117.3ZM123.5 106C124 103 124.4 101.7 124.4 101.7L120.4 102.3L119.6 106H118.7L118.5 107H119.4L117.7 115.1C117.6 115.6 117.5 116.1 117.5 116.5C117.5 118.3 118.3 119.6 120.2 119.6C121.1 119.6 122.3 119.3 123.1 116.9C122.9 117 122.6 117 122.4 117C121.7 117 121.5 116.6 121.5 116L121.6 115.1L123.3 106.9H124.9L125.1 105.9H123.5V106ZM100.2 102.3C100.2 103.5 101.1 104.4 102.3 104.4C103.5 104.4 104.4 103.5 104.4 102.3C104.4 101.1 103.4 100.2 102.3 100.2C101.2 100.2 100.2 101.1 100.2 102.3ZM61.7998 108.3C61.7998 107 61.1998 105.7 58.7998 105.7C53.3998 105.7 51.5998 111.9 51.4998 115.1C50.2998 116.4 48.9998 117.4 47.0998 117.4C45.7998 117.4 45.1998 117 45.1998 115.1C45.1998 114.8 45.1998 114.4 45.2998 114C48.4998 113.8 51.4998 111.4 51.4998 108.3C51.4998 107 50.8998 105.7 48.4998 105.7C42.8998 105.7 41.1998 112.2 41.1998 115.3C41.1998 118.4 42.8998 119.6 45.3998 119.6C48.1998 119.6 50.0998 118.1 51.5998 116.3C51.9998 118.6 53.4998 119.6 55.6998 119.6C57.8998 119.6 59.7998 118.7 60.3998 115.6C59.4998 116.3 58.1998 117 57.1998 117C56.2998 117 55.4998 116.4 55.4998 114.7C55.4998 114.5 55.4998 114.2 55.5998 113.9C58.7998 113.8 61.7998 111.5 61.7998 108.3ZM58.9998 107.2C59.4998 107.2 59.6998 107.6 59.6998 108.3C59.6998 110.6 57.8998 112.7 55.6998 112.8C56.2998 110.2 57.6998 107.2 58.9998 107.2ZM48.5998 107.2C49.0998 107.2 49.2998 107.6 49.2998 108.3C49.2998 110.6 47.4998 112.6 45.3998 112.8C45.8998 110 47.2998 107.2 48.5998 107.2ZM72.9998 104.6C73.3998 105 73.6998 105.2 74.2998 105.2C75.5998 105.2 76.4998 104 76.4998 102.4C76.4998 99.3996 73.3998 99.1996 72.0998 99.1996C68.5998 99.1996 65.7998 101.2 65.7998 104.1C65.7998 108.1 71.2998 109.7 71.2998 114.4C71.2998 116.7 69.9998 118 68.0998 118C66.3998 118 65.4998 116.7 65.4998 115.4C65.4998 113.6 67.1998 112.9 68.6998 112.9C68.5998 111.5 67.1998 111.1 66.2998 111.1C64.3998 111.1 62.2998 112.6 62.2998 115.5C62.2998 118.8 64.9998 120.2 68.0998 120.2C72.0998 120.2 75.6998 118 75.6998 113.4C75.6998 107.6 69.5998 107 69.5998 103C69.5998 101.4 70.5998 100.6 72.0998 100.6C73.5998 100.6 74.0998 101.5 74.0998 102.4C74.2998 103.2 73.7998 104.1 72.9998 104.6ZM42.7998 106H39.9998L40.4998 103.7C40.8998 101.9 41.7998 101.6 42.2998 101.6C42.7998 101.6 43.2998 101.8 43.2998 102.4C43.2998 102.6 43.2998 103 43.1998 103H44.4998C44.5998 103 44.5998 102.5 44.5998 102C44.5998 100.2 42.9998 99.0996 41.3998 99.0996C40.1998 99.0996 38.7998 99.4996 37.6998 100.8C37.1998 99.7996 35.9998 99.0996 34.7998 99.0996C32.9998 99.0996 30.6998 99.8996 29.8998 103.7L28.6998 109.4C27.8998 109.7 27.1998 109.9 26.4998 109.9C26.3998 109.9 26.2998 109.9 26.1998 109.8C26.1998 107 25.0998 105.5 22.6998 105.4C17.1998 105.4 15.3998 111.6 15.2998 114.8C14.0998 116.2 12.2998 117 10.3998 117C7.7998 117 7.1998 115.2 7.1998 112.8C7.1998 107.3 9.8998 100.2 12.7998 100.2C13.9998 100.2 14.4998 101 14.4998 101.9C14.4998 102.9 13.8998 104 13.1998 104.4C13.6998 105 14.2998 105.1 14.7998 105.1C16.1998 105.1 16.6998 104.1 16.6998 102.6C16.6998 99.9996 14.6998 98.9996 12.1998 98.9996C5.0998 98.9996 2.7998 108.2 2.7998 113.1C2.7998 118 4.6998 119.7 8.6998 119.7C10.7998 119.7 13.6998 118.7 15.4998 116.3C15.8998 118.4 17.5998 119.3 19.6998 119.3C22.9998 119.3 25.6998 116.2 26.1998 111.2C26.9998 111.1 27.7998 110.9 28.4998 110.6L26.6998 119.1C24.0998 119.9 21.9998 120.7 21.9998 123.2C21.9998 125 23.5998 126.1 25.1998 126.1C26.3998 126.1 27.7998 125.8 28.8998 124.4C29.2998 125.4 30.2998 126.1 31.7998 126.1C33.5998 126.1 35.8998 125.4 36.6998 121.5L39.7998 106.9H42.4998L42.7998 106ZM23.9998 111.5C23.5998 114.7 22.1998 117.2 20.8998 117.1C19.8998 117.1 19.4998 116.7 19.4998 114.9C19.4998 112.2 21.0998 107.3 23.0998 107.3C23.7998 107.3 24.0998 107.7 24.0998 108.9C23.5998 109.1 23.2998 109.6 23.2998 110.4C23.2998 110.9 23.3998 111.4 23.9998 111.5ZM26.3998 121.8C25.9998 123.4 25.3998 123.9 24.7998 123.9C24.1998 123.9 23.6998 123.4 23.6998 123C23.6998 121.5 24.9998 120.8 26.6998 120.2L26.3998 121.8ZM32.7998 121.8C32.3998 123.4 31.7998 123.9 31.1998 123.9C30.4998 123.9 29.8998 123.8 29.5998 123.4C29.7998 122.9 29.9998 122.4 30.0998 121.7L30.5998 119.2L33.3998 118.7L32.7998 121.8ZM33.5998 118L30.7998 118.5L33.1998 107H35.8998L33.5998 118ZM36.6998 103.1L36.0998 106H33.3998L33.8998 103.8C34.2998 102 35.1998 101.7 35.6998 101.7C36.2998 101.7 36.6998 102 36.6998 102.6C36.7998 102.7 36.7998 102.9 36.6998 103.1ZM98.0998 108C98.0998 106.9 97.3998 105.9 96.1998 105.9C94.8998 105.9 93.7998 106.8 92.8998 107.6L93.2998 105.9L89.3998 106L87.5998 114.6C86.2998 116.1 84.8998 117.3 82.7998 117.3C81.4998 117.3 80.7998 116.9 80.7998 115C80.7998 112 82.5998 107 84.2998 107C84.7998 107 84.9998 107.4 84.9998 108.1C84.9998 108.6 84.8998 109.1 84.6998 109.7C84.9998 109.9 85.2998 110 85.5998 110C86.3998 110 86.9998 109.3 86.9998 108C86.9998 106.8 86.3998 105.5 83.9998 105.5C78.4998 105.5 76.6998 112 76.6998 115.1C76.6998 118.2 78.3998 119.4 80.8998 119.4C83.5998 119.4 85.4998 118.2 86.9998 116.5L86.2998 119.8H90.1998L92.2998 109.3C92.9998 108.7 93.4998 108.2 94.2998 108.2C95.0998 108.2 94.3998 109.9 95.8998 109.9C97.4998 110.1 98.0998 108.9 98.0998 108ZM52.2998 17.9996C62.2998 17.0996 65.1998 10.6996 76.8998 9.69964C82.6998 9.19964 86.2998 10.3996 86.6998 12.3996C87.0998 14.2996 84.1998 15.5996 80.7998 15.8996C75.9998 16.3996 73.9998 14.6996 73.5998 12.9996C69.9998 13.3996 69.4998 14.8996 69.6998 15.9996C70.0998 17.9996 74.3998 19.9996 81.7998 19.3996C90.0998 18.6996 92.8998 15.4996 92.2998 12.0996C91.3998 7.79964 84.9998 4.19964 73.4998 5.29964C58.6998 6.59964 58.7998 13.4996 48.6998 14.2996C44.5998 14.6996 42.2998 13.6996 41.8998 12.0996C41.5998 10.4996 43.5998 9.69964 45.9998 9.49964C48.1998 9.29964 50.8998 9.69964 52.0998 10.3996C53.0998 9.89964 53.2998 9.39964 53.2998 8.89964C52.8998 7.39964 49.7998 6.69964 45.9998 6.99964C38.4998 7.69964 38.4998 10.9996 38.7998 12.4996C39.3998 15.9996 45.1998 18.5996 52.2998 17.9996ZM31.5998 27.4996C40.7998 29.7996 52.5998 31.0996 66.7998 31.0996C81.2998 31.0996 92.7998 29.8996 102 27.4996C111.8 25.1996 116.5 22.0996 116.5 19.1996C116.5 17.0996 114.4 15.0996 110.6 13.4996C111.5 14.0996 112.1 14.9996 112.1 16.0996C112.1 19.0996 107.7 21.4996 98.7998 23.4996C90.4998 25.2996 79.9998 26.5996 67.0998 26.5996C54.6998 26.5996 43.6998 25.3996 35.6998 23.5996C27.1998 21.4996 22.5998 19.1996 22.5998 16.1996C22.5998 14.9996 23.1998 13.8996 24.8998 12.5996C19.4998 14.6996 16.5998 16.3996 16.5998 19.0996C16.9998 22.1996 21.7998 25.1996 31.5998 27.4996ZM17.4998 73.8996C21.2998 76.8996 25.4998 77.6996 30.1998 76.8996C31.9998 76.5996 33.9998 75.6996 35.8998 75.0996C32.0998 75.0996 28.7998 73.8996 25.4998 71.2996C21.8998 68.6996 19.5998 65.0996 18.9998 60.5996C18.0998 56.4996 18.9998 52.5996 21.2998 49.2996L22.8998 47.4996C24.1998 50.6996 25.6998 53.8996 27.2998 56.7996C30.8998 62.1996 34.3998 66.8996 37.9998 71.9996C39.4998 74.9996 40.5998 77.8996 41.2998 80.8996C43.5998 84.1996 46.9998 86.3996 51.0998 87.5996C56.1998 89.3996 61.4998 89.9996 66.7998 89.9996H67.3998C72.7998 89.9996 78.3998 89.2996 83.5998 87.5996C87.3998 86.3996 90.6998 83.9996 93.0998 80.9996H93.3998C93.9998 77.9996 94.8998 74.9996 96.3998 71.9996C99.9998 66.8996 103.5 62.1996 107.1 56.7996C111.8 48.2996 115.1 38.4996 116.9 27.9996C115 30.6996 110.6 32.9996 102.6 34.7996C93.3998 36.8996 81.5998 38.2996 67.3998 38.2996C52.8998 38.2996 41.0998 36.7996 31.8998 34.6996C23.5998 32.5996 19.1998 30.2996 17.6998 27.8996C18.4998 33.2996 19.7998 38.4996 21.5998 43.4996C19.4998 44.7996 17.5998 46.4996 15.8998 48.5996C12.5998 52.6996 11.1998 57.4996 11.4998 62.1996C11.7998 66.8996 13.8998 70.8996 17.4998 73.8996Z" fill="#28334C"/>
</svg>
