<svg width="128" height="128" viewBox="0 0 128 128" fill="none" xmlns="http://www.w3.org/2000/svg">
<path d="M68.7898 127.38C67.3819 126.405 65.8893 125.558 64.3298 124.85C64.0119 124.704 63.6754 124.603 63.3298 124.55C63.0298 124.55 61.4498 124.21 59.8098 123.86C56.2398 123.11 50.6898 121.99 47.0498 121.3C43.1098 120.55 41.7598 120.46 32.8098 120.3C25.9698 120.22 25.1998 120.2 24.9898 120.02C24.7798 119.84 24.8398 119.5 25.0698 119.46C25.2998 119.42 28.9698 119.02 32.3998 118.66C33.1198 118.58 34.9998 118.55 38.0298 118.56C40.4537 118.469 42.881 118.566 45.2898 118.85C46.7798 119.02 48.5498 119.2 49.2198 119.26C49.6798 119.297 50.1372 119.36 50.5898 119.45C50.7298 119.45 50.7398 119.45 50.6898 119.21C50.6511 119.026 50.5688 118.855 50.4498 118.71C49.6708 118.159 48.7906 117.769 47.8598 117.56C47.2398 117.39 45.6798 116.95 44.3898 116.56C39.7398 115.22 34.0198 113.76 32.1498 113.45C31.0198 113.26 28.8198 112.99 28.3598 112.99C28.2198 112.99 28.1198 112.99 28.1298 113.07C28.1398 113.15 29.1998 113.97 30.4598 114.97C31.7198 115.97 32.7798 116.82 32.7898 116.88C32.7998 116.94 32.3598 116.96 31.7898 116.69C31.4498 116.54 30.6298 116.11 29.9598 115.69C28.3659 114.759 26.7123 113.934 25.0098 113.22C24.0998 112.89 23.8898 112.7 24.0098 112.28L24.0798 112.03H25.8798C26.8798 112.03 28.3098 112.03 29.0798 112.13C30.8498 112.25 33.7098 112.48 34.1298 112.54L39.1798 113.47C39.3353 113.498 39.4944 113.498 39.6498 113.47C39.7411 113.143 39.7411 112.797 39.6498 112.47C39.3402 112.166 39.0057 111.888 38.6498 111.64C37.8098 110.99 37.7898 110.96 37.8198 110.64C37.905 110.295 38.0257 109.96 38.1798 109.64C38.4698 109.01 38.4998 108.9 38.3898 108.74C38.2798 108.58 36.0998 106.96 33.4598 105.01C30.8198 103.06 27.4598 100.61 26.0698 99.5499L22.9998 97.4199C22.7659 97.3015 22.5736 97.1146 22.4485 96.8842C22.3234 96.6537 22.2716 96.3906 22.2998 96.1299C22.304 95.5558 22.0895 95.0016 21.6998 94.5799C21.0994 94.2507 20.4659 93.9859 19.8098 93.7899C19.1777 93.5982 18.5702 93.3331 17.9998 92.9999C17.8198 92.7799 17.7898 91.7999 17.9198 89.6699C17.9198 89.0199 17.9198 87.3599 17.8598 85.7899C17.7398 82.6499 17.6098 78.4199 17.4798 72.3399C17.3898 68.6099 17.3998 68.0899 17.4798 67.7899C17.6121 67.4697 17.6121 67.1101 17.4798 66.7899C17.4198 66.6899 17.0798 66.1999 16.7098 65.6999C16.4411 65.3409 16.2036 64.9595 15.9998 64.5599C16.0641 63.7642 16.1743 62.9729 16.3298 62.1899C16.5164 61.4537 16.6203 60.6991 16.6398 59.9399C15.5226 59.6783 14.3905 59.4846 13.2498 59.3599C13.0595 59.3562 12.8776 59.2813 12.7398 59.1499C12.6952 58.8918 12.6952 58.628 12.7398 58.3699C12.7398 58.0199 13.0198 55.4399 13.2698 52.6399C13.8098 46.6399 13.7898 46.8099 13.9598 46.7499C14.1298 46.6899 19.0698 47.9199 19.5198 48.0899C19.7298 48.1699 19.7998 47.9799 20.0398 46.7799C20.2381 45.7619 20.5088 44.7594 20.8498 43.7799C21.0698 43.1999 21.0598 43.1599 20.4298 41.7799C20.1598 41.1799 19.6498 40.0299 19.2998 39.1999C18.9498 38.3699 18.6298 37.6799 18.5998 37.6399C18.5698 37.5999 18.3898 37.6399 18.2198 37.7399C17.3298 38.3099 17.2198 38.3099 17.0098 37.6899C16.9298 37.4599 16.7398 36.9999 16.6098 36.6899C16.1898 35.7799 16.2398 35.6899 17.1398 35.1999C17.3898 35.0799 17.6098 34.9099 17.6098 34.8499C17.6098 34.7899 17.2198 33.5799 16.7498 32.1699C14.9778 27.0007 13.4987 21.7357 12.3198 16.3999C11.9998 14.5499 11.9898 14.1899 12.2198 13.3299C12.2752 13.0405 12.3729 12.7608 12.5098 12.4999C13.0092 12.3672 13.54 12.4242 13.9998 12.6599C14.8198 13.0699 15.1698 13.5799 17.8998 18.3599C18.9998 20.3099 19.9998 21.8799 19.9998 21.8699C20.8954 20.7046 21.7138 19.482 22.4498 18.2099C23.3302 16.7443 24.3056 15.338 25.3698 13.9999C26.3698 12.6699 26.5298 12.5399 27.2498 12.2999L27.8198 12.1099L28.4998 12.5299C28.8259 12.7282 29.1309 12.9594 29.4098 13.2199L29.8798 13.6499L30.7198 13.4199C32.1198 13.0399 35.4398 11.9099 37.0498 11.2799C38.8506 10.5616 40.613 9.7505 42.3298 8.8499C42.9178 8.53401 43.5258 8.25676 44.1498 8.0199C44.8698 7.8899 45.3598 8.4599 45.2598 9.2799C45.1735 9.85259 44.9544 10.3971 44.6198 10.8699C44.3698 11.2399 41.6898 13.7699 40.2498 14.9999C39.884 15.299 39.549 15.634 39.2498 15.9999C39.601 17.686 40.1065 19.3363 40.7598 20.9299C40.8998 21.2599 41.0798 21.5299 41.1498 21.5299C41.2198 21.5299 44.5398 19.5299 48.5598 16.9999C60.2198 9.7099 61.6698 8.8199 61.8698 8.8199C62.2821 9.04093 62.6093 9.39269 62.7998 9.8199C62.7998 9.9399 61.3598 10.8799 52.2498 16.8199C50.7398 17.8199 49.4398 18.6499 49.3698 18.7199C49.2998 18.7899 49.2798 18.8499 49.5898 18.8499C49.9031 18.833 50.2156 18.8935 50.4999 19.026C50.7842 19.1586 51.0314 19.3591 51.2198 19.6099C51.5192 19.8396 51.7641 20.1326 51.9369 20.468C52.1098 20.8034 52.2064 21.1728 52.2198 21.5499C52.2198 22.3699 52.0098 22.7099 51.0598 23.5499C50.5898 23.9599 49.5298 25.0299 48.6898 25.9299C47.8132 26.8046 47.0322 27.77 46.3598 28.8099C45.2522 30.5376 44.2504 32.3309 43.3598 34.1799C41.3598 38.1799 40.8398 39.1799 40.2398 39.7699C39.1829 40.6976 37.9844 41.4504 36.6898 41.9999C36.2543 42.2053 35.8419 42.4567 35.4598 42.7499C35.3326 42.9563 35.2764 43.1986 35.2998 43.4399C35.2952 43.7479 35.2271 44.0516 35.0997 44.332C34.9724 44.6125 34.7886 44.8637 34.5598 45.0699C34.0398 45.5999 33.8698 46.0699 33.2198 48.6699C32.6598 50.9099 32.6098 51.2099 32.7998 51.3599C32.9898 51.5099 34.4698 51.8499 36.3698 52.3599C38.2698 52.8699 39.9098 53.2699 39.9998 53.3599C40.0456 53.3803 40.0854 53.4122 40.1152 53.4525C40.145 53.4928 40.1638 53.5401 40.1698 53.5899C40.1698 53.6799 39.9398 54.5299 39.6698 55.5099C38.9798 57.9899 38.6698 59.1099 38.3198 60.9299C38.1298 61.7899 37.9398 62.5799 37.8998 62.6699C37.8598 62.7599 37.7298 62.8399 36.8998 62.7699C36.5249 62.7585 36.1509 62.7251 35.7798 62.6699C35.5598 62.6099 35.5698 62.7899 35.8898 64.8399C36.2098 66.8899 36.1998 66.9999 36.2898 66.9999C36.516 66.6867 36.7103 66.3517 36.8698 65.9999C38.16 63.2502 39.8444 60.7033 41.8698 58.4399C43.1498 57.0099 46.4098 53.7399 47.1498 53.1299C48.8757 51.8428 50.7169 50.718 52.6498 49.7699C52.8798 49.6799 53.3498 49.4299 53.7198 49.2299C54.7819 48.6447 55.9292 48.2297 57.1198 47.9999C59.7011 47.5171 62.346 47.4799 64.9398 47.8899C67.5721 48.4031 70.0398 49.5495 72.1298 51.2299C72.9791 51.7731 73.691 52.5056 74.2098 53.3699C74.4352 53.7289 74.6966 54.0639 74.9898 54.3699C75.0898 54.4399 75.3698 54.3699 75.9898 54.2599C77.8416 53.8275 79.7681 53.8275 81.6199 54.2599C82.8807 54.4706 84.0734 54.9779 85.0998 55.7399C86.7362 56.6205 88.1623 57.8453 89.2798 59.3299C91.8798 62.4899 92.8998 64.1099 93.6298 66.2499C93.7898 66.7299 93.9499 67.0499 93.9698 66.9699C94.1698 66.4399 94.5698 65.1999 94.5698 65.0899C94.2935 64.51 93.9795 63.9488 93.6298 63.4099C93.1198 62.5699 92.6798 61.7899 92.6298 61.6799C92.5798 61.5699 92.7598 61.2099 93.2598 60.4199C93.6398 59.8299 94.0698 59.1899 94.2598 58.9999C94.4499 58.8099 94.5298 58.6499 94.3798 58.3499C94.2298 58.0499 94.1898 58.0399 94.1398 58.0399C93.9221 58.1106 93.7112 58.201 93.5098 58.3099C92.8699 58.6299 92.5098 58.6499 92.2698 58.3799C92.1698 58.2699 90.7798 55.7999 89.1698 52.9099C86.8498 48.7299 86.2798 47.6199 86.3598 47.4999C86.4398 47.3799 87.7799 46.9099 91.4799 45.8099C92.2122 45.622 92.9279 45.3745 93.6199 45.0699C93.7699 44.9199 93.7498 44.8199 93.1798 42.8899C92.2898 39.8899 92.4598 40.1499 91.4898 39.6999C90.5198 39.2499 90.1698 38.8899 89.9498 38.1099C89.9087 37.8931 89.8199 37.6882 89.6898 37.5099C89.0075 37.1958 88.2979 36.9448 87.5698 36.7599C86.9721 36.5784 86.3845 36.3648 85.8098 36.1199C83.7199 35.1621 81.7662 33.9314 79.9998 32.4599C79.378 31.8421 78.6216 31.3766 77.7898 31.0999C75.5836 30.1603 73.3148 29.3751 70.9998 28.7499C70.553 28.6325 70.1124 28.4923 69.6798 28.3299C69.1098 28.0399 69.0298 27.5799 69.3498 26.4899C69.4377 26.1079 69.636 25.7602 69.9198 25.4899C70.3798 25.0299 70.6798 24.9299 73.0298 24.3999C74.649 23.9807 76.3021 23.7063 77.9698 23.5799C79.2398 23.5199 79.2198 23.5299 78.7898 22.7499C78.3598 21.9699 78.0098 21.5899 75.7898 19.4099C73.8319 17.4087 71.689 15.5973 69.3898 13.9999C68.3898 13.2799 67.9698 12.8499 67.7998 12.2599C67.6804 11.837 67.7155 11.3853 67.8987 10.9859C68.082 10.5865 68.4014 10.2653 68.7998 10.0799C69.2951 9.79769 69.8605 9.66241 70.4298 9.6899C71.6098 9.6899 72.0598 9.9599 75.5098 12.2399C79.3998 14.8099 79.5098 14.8699 79.5098 14.8399C79.5098 14.8099 77.8398 13.1299 75.7398 11.0699C70.9998 6.3499 71.3198 6.7099 70.9998 5.9999C70.7563 5.53558 70.6456 5.01309 70.6798 4.4899V3.5499L71.1198 3.1099C71.4598 2.7699 71.6298 2.6599 71.8398 2.6599C72.2898 2.6599 72.5098 2.4099 72.5798 1.7999C72.5778 1.45066 72.6886 1.11009 72.8958 0.828965C73.1031 0.547843 73.3956 0.341221 73.7298 0.239901C74.9499 0.199052 76.1701 0.316701 77.3598 0.589901C77.8598 0.739901 80.7398 2.2499 82.5898 3.2999C85.8018 5.14142 88.8175 7.30597 91.5898 9.7599C92.1598 10.2999 92.3399 10.4299 92.2898 10.2599C92.1498 9.7699 90.6598 6.1599 89.9598 4.6299C88.9598 2.4699 88.9598 1.8399 89.6398 0.829901C89.7938 0.582029 90.0204 0.38761 90.2888 0.273095C90.5572 0.158581 90.8544 0.129532 91.1398 0.189901C92.0531 0.290771 92.8971 0.725201 93.5098 1.4099C95.4162 3.98966 97.0895 6.73379 98.5098 9.6099C101.14 14.5199 102.32 18.6099 103.07 25.5399C103.337 26.9238 103.337 28.346 103.07 29.7299C102.939 30.0669 102.887 30.4297 102.92 30.7899C103.01 31.4699 105.31 37.8399 106.23 39.9599C106.66 40.9599 106.81 41.1899 107.01 41.1899C107.21 41.1899 108.9 40.6599 111.01 40.0099C116.09 38.4399 115.78 38.5299 115.9 38.6499C116.02 38.7699 115.21 49.5299 115.06 49.8799C114.91 50.2299 114.84 50.1699 112.96 50.8799C112.42 51.0699 111.96 51.2499 111.9 51.2799C112.069 51.6082 112.292 51.9057 112.56 52.1599C113.435 53.1157 114.26 54.1171 115.03 55.1599C115.2 55.4999 115.14 55.6999 114.73 56.1599C114.32 56.6199 114.37 56.6099 114.73 57.6799C114.953 58.2522 115.016 58.8747 114.91 59.4799C114.91 60.0999 114.83 60.8799 114.8 61.2099C114.771 62.0654 114.935 62.9164 115.28 63.6999C115.581 64.6561 115.546 65.6865 115.18 66.6199C114.704 68.3393 114.074 70.0127 113.3 71.6199C112.37 73.6999 112.1 74.3499 111.05 77.0199C110.055 79.292 109.382 81.6918 109.05 84.1499C108.85 85.2899 108.5 86.9699 108.28 87.8799C107.994 89.0553 107.784 90.2477 107.65 91.4499C107.552 92.7519 107.328 94.0414 106.98 95.2999C106.89 95.5599 106.38 96.7699 105.85 97.9699C105.444 98.8447 105.109 99.751 104.85 100.68C104.85 100.96 104.72 101.97 104.66 102.92C104.559 103.532 104.559 104.157 104.66 104.77C105.497 104.772 106.33 104.647 107.13 104.4L109.56 103.93C109.78 103.93 109.56 104.22 108.93 104.67C107.811 105.514 106.773 106.462 105.83 107.5C103.72 109.78 103.14 110.33 103.14 109.98C103.566 109.027 104.064 108.107 104.63 107.23L105.24 106.29C105.36 106.1 105.29 106.13 99.2398 108.73C93.6598 111.12 90.4899 112.6 86.6898 114.59C85.0798 115.44 84.7698 115.59 84.7698 115.8C84.7698 116.14 85.0398 118.57 85.0898 118.61C85.1398 118.65 86.3898 118.02 87.9398 117.25C91.4499 115.5 96.9398 113 99.3298 112.07C101.16 111.36 107.75 109.16 108.58 108.98C109.234 108.816 109.906 108.732 110.58 108.73C109.829 109.323 109.018 109.836 108.16 110.26C107.95 110.32 107.82 110.39 107.88 110.43C107.94 110.47 107.56 110.81 106.94 111.27C106.32 111.73 105.87 112.1 105.84 112.15C105.815 112.175 105.786 112.196 105.753 112.21C105.72 112.223 105.685 112.23 105.65 112.23C105.53 112.23 105.53 112.23 105.65 112.09C105.709 112.021 105.79 111.975 105.88 111.96C105.96 111.96 106.01 111.96 106.01 111.88C106.14 111.67 106.302 111.481 106.49 111.32C106.76 111.04 106.84 110.92 106.69 111.03C106.477 111.191 106.276 111.368 106.09 111.56C105.913 111.754 105.719 111.931 105.51 112.09C105.36 112.19 105.31 112.27 105.37 112.31C105.43 112.35 105.37 112.44 105.29 112.55C105.21 112.66 105.08 112.7 105.01 112.55C104.94 112.4 104.92 112.43 104.96 112.55C105 112.67 104.82 112.87 104.59 113.12C104.36 113.37 104.22 113.54 104.28 113.54C104.34 113.54 104.89 113.44 105.5 113.33C106.11 113.22 107.16 113.04 107.86 112.96C110.45 112.67 110.86 112.65 110.86 112.8C110.354 112.999 109.832 113.153 109.3 113.26C101.062 115.258 92.9778 117.845 85.1098 121C82.0199 122.33 78.5098 124.16 78.5598 124.42C78.5598 124.5 78.5598 124.56 78.4998 124.56C77.9633 124.885 77.4608 125.264 76.9998 125.69C76.7032 125.942 76.3891 126.172 76.0598 126.38C75.7298 126.57 75.2298 126.89 74.9298 127.09C74.725 127.233 74.5033 127.351 74.2698 127.44C74.1144 127.485 73.9637 127.546 73.8198 127.62C73.361 127.793 72.8665 127.852 72.3798 127.79C71.5698 127.79 71.2898 127.79 71.3798 127.68C71.8366 127.04 72.3522 126.444 72.9198 125.9C73.3002 125.514 73.7565 125.211 74.2598 125.01C74.6694 124.845 75.07 124.658 75.4598 124.45C75.9998 124.14 80.7299 121.27 80.9799 121.09C81.2299 120.91 80.9098 120.89 79.5198 120.33C78.1298 119.77 77.8698 119.69 77.7398 119.79C76.3626 120.889 75.0504 122.068 73.8098 123.32C72.9198 124.2 71.8098 125.26 71.3198 125.65C70.4298 126.38 70.3198 126.53 70.3198 127.06C70.3218 127.234 70.2913 127.407 70.2298 127.57C70.1598 127.78 70.1098 127.8 69.7198 127.79C69.548 127.788 69.3789 127.747 69.2249 127.671C69.0709 127.595 68.9359 127.485 68.8298 127.35L68.7898 127.38ZM70.7898 123.31C71.6998 122.48 73.3698 121.1 74.9698 119.85C75.4998 119.44 75.9098 119.07 75.8598 119.03C75.3972 118.803 74.9232 118.599 74.4398 118.42L72.0998 117.42L71.0998 117.01L70.5798 117.2C70.1006 117.377 69.5824 117.422 69.0798 117.33C68.5398 117.33 67.9398 117.25 67.7398 117.22C67.5398 117.19 67.1898 117.22 66.1998 117.67C65.5598 117.93 63.9898 118.53 62.7198 118.99C61.4498 119.45 60.3998 119.86 60.3998 119.88C60.7775 120.056 61.1732 120.19 61.5798 120.28C64.1903 121.18 66.7085 122.329 69.0998 123.71C69.3112 123.849 69.5398 123.96 69.7798 124.04C70.1477 123.831 70.4843 123.572 70.7798 123.27L70.7898 123.31ZM62.6698 122.77C62.6698 122.7 62.6698 122.64 62.5798 122.64C62.4898 122.64 62.4898 122.7 62.4898 122.77C62.4898 122.84 62.4898 122.91 62.5798 122.91C62.6698 122.91 62.7098 122.85 62.7098 122.77H62.6698ZM60.9998 122C60.3798 121.69 59.6398 121.34 59.3498 121.23C58.8498 121.04 58.8198 121.04 58.4398 121.23C57.6098 121.55 57.6698 121.58 59.8398 122.12C60.9498 122.39 61.9198 122.62 61.9898 122.62C61.6823 122.379 61.3505 122.172 60.9998 122ZM55.4098 121.33C55.5881 121.042 55.8228 120.794 56.0998 120.6C57.1016 119.845 58.1654 119.176 59.2798 118.6C59.6498 118.44 60.5098 118.03 61.1798 117.7C62.3475 117.071 63.5864 116.584 64.8698 116.25C65.3398 116.14 65.7898 116.03 65.8698 116C66.1398 115.91 65.3398 115.8 64.0598 115.74C63.1102 115.688 62.1577 115.742 61.2198 115.9C60.3803 116.034 59.5294 116.085 58.6798 116.05C57.6198 115.99 57.2998 115.9 57.3398 115.65C57.3798 115.4 57.5998 115.44 58.3398 115.25C59.8088 114.844 61.3117 114.573 62.8298 114.44C63.5298 114.44 63.5998 114.01 62.8998 114C61.8438 113.621 60.8367 113.117 59.8998 112.5C58.8248 111.754 57.9157 110.794 57.2298 109.68C56.7345 108.823 56.1441 108.025 55.4698 107.3C55.3798 107.3 55.3098 107.37 55.1998 107.75C55.0898 108.13 54.8698 108.75 54.6398 109.36C54.3715 109.908 54.228 110.509 54.2198 111.12C54.1912 111.501 54.26 111.883 54.4198 112.23C54.7798 113.04 54.7398 113.14 53.5698 114.47L52.5098 115.66L52.5698 116.31C52.5461 116.784 52.7116 117.248 53.0298 117.6C53.1498 117.7 53.1698 117.98 53.1698 119.36C53.1698 121.23 53.1698 121.36 53.8798 121.52C54.8798 121.85 55.0398 121.82 55.3398 121.31L55.4098 121.33ZM82.5098 119.26C83.035 118.995 83.4365 118.536 83.6298 117.98C83.6993 117.743 83.7174 117.493 83.6829 117.248C83.6485 117.003 83.5622 116.769 83.4298 116.56C83.1751 116.067 83.1144 115.496 83.2598 114.96C83.3608 114.631 83.5018 114.315 83.6798 114.02C83.8073 113.833 83.9114 113.632 83.9898 113.42C83.9898 113.26 81.9899 108.42 81.9099 108.3C81.8298 108.18 81.5598 108.45 80.8498 109.45C80.1192 110.44 79.2844 111.348 78.3598 112.16C77.8067 112.527 77.2324 112.861 76.6398 113.16C75.9282 113.446 75.256 113.823 74.6398 114.28C74.9307 114.331 75.2247 114.361 75.5198 114.37C77.2608 114.442 78.9807 114.779 80.6199 115.37C81.4598 115.73 81.7098 115.92 81.8298 116.37C81.9499 116.82 81.9398 117.47 81.8298 117.47C81.7198 117.47 81.0398 117.24 80.2098 116.97C79.3798 116.7 77.5598 116.2 76.2098 115.85C73.0098 115.07 73.0298 115.07 72.8898 115.25C72.8029 115.356 72.7553 115.488 72.7553 115.625C72.7553 115.762 72.8029 115.894 72.8898 116C72.9898 116.07 74.3298 116.53 75.8898 117C77.7081 117.496 79.4606 118.208 81.1098 119.12C81.3593 119.286 81.6324 119.414 81.9198 119.5C82.1513 119.456 82.372 119.368 82.5698 119.24L82.5098 119.26ZM50.7898 115.91C51.0698 114.91 51.0698 114.91 51.5798 114.59C52.6898 113.87 52.8498 113.68 52.9398 112.99C52.9218 112.065 52.7771 111.146 52.5098 110.26C52.2198 109.26 52.3398 108.8 53.1398 107.46C53.9398 106.12 54.0198 105.78 53.7898 105.37C53.3818 104.843 52.9338 104.348 52.4498 103.89C51.8203 103.138 51.0357 102.531 50.1498 102.11C48.5798 101.28 48.5598 101.27 48.4898 101.46C48.3115 101.763 48.1179 102.057 47.9098 102.34C47.7106 102.575 47.5518 102.842 47.4398 103.13C47.4398 103.13 47.4398 103.24 47.2898 103.29C47.1398 103.34 47.1298 103.43 47.1598 103.48C47.1898 103.53 47.1598 103.56 47.1598 103.56C47.1598 103.56 47.0498 103.63 47.0198 103.73C46.9629 103.848 46.8677 103.943 46.7498 104C46.5975 104.093 46.4757 104.228 46.3998 104.39C45.7237 105.32 44.9493 106.175 44.0898 106.94C43.9098 106.94 43.9298 106.55 44.0898 105.41L44.3298 104.08C44.3898 103.75 44.4498 102.8 44.4998 101.86C44.6307 100.184 44.5025 98.4972 44.1198 96.8599L43.9098 96.1899L42.5598 95.5299C41.8098 95.1599 41.1898 94.8299 41.1598 94.7999C41.0003 94.6579 40.8334 94.5244 40.6598 94.3999C40.2012 94.0354 39.7701 93.6377 39.3698 93.2099C38.8298 92.6299 38.5498 92.3999 38.5498 92.5099C38.5541 92.6129 38.5928 92.7115 38.6598 92.7899C38.7198 92.8699 38.7298 92.8899 38.6598 92.8699C38.5898 92.8499 38.6598 93.8699 38.8698 94.3799C38.9683 94.6714 39.1575 94.9238 39.4098 95.0999C39.8398 95.4199 39.8898 95.5599 39.5798 95.7099C38.8898 96.0099 36.8698 94.3899 35.5798 92.4899C34.8983 91.6345 34.5093 90.5829 34.4698 89.4899C34.2298 88.0299 34.2198 87.9399 34.1498 87.3699C34.1347 87.1581 34.1046 86.9475 34.0598 86.7399C33.8385 85.171 33.8385 83.5788 34.0598 82.0099L34.1198 81.6499L33.7798 81.9599C33.0967 82.7723 32.5001 83.6537 31.9998 84.5899C31.7498 85.0099 31.4498 85.5199 31.3098 85.7199C30.9621 86.2549 30.645 86.8091 30.3598 87.3799C29.9338 88.3745 29.4428 89.3399 28.8898 90.2699C28.7798 90.2699 28.7798 90.2699 28.8898 88.2699C29.0298 85.6699 29.0298 85.6699 29.4198 84.6899C29.5985 84.2455 29.7521 83.7915 29.8798 83.3299C29.9291 83.0917 30.0063 82.86 30.1098 82.6399C30.21 82.4333 30.2839 82.2149 30.3298 81.9899C30.631 80.9603 31.0156 79.957 31.4798 78.9899C31.8698 78.1699 32.4298 76.9299 32.8198 76.0599C33.3583 74.7096 34.0928 73.446 34.9998 72.3099C35.1898 72.0599 35.1898 72.0199 35.0898 71.3099C34.9944 70.4043 34.8408 69.5058 34.6298 68.6199C34.5746 68.4904 34.5473 68.3507 34.5498 68.2099C34.5498 68.0099 34.4298 67.2799 34.3098 66.5899C34.1898 65.8999 33.9698 64.6799 33.8398 63.8799C33.7726 63.35 33.6554 62.8277 33.4898 62.3199C33.2627 62.2057 33.0139 62.141 32.7598 62.1299L31.8298 61.9999L31.1098 61.8899C30.9344 61.874 30.7605 61.8439 30.5898 61.7999C29.9548 61.6774 29.314 61.5872 28.6698 61.5299C28.3334 61.5036 27.9992 61.4534 27.6698 61.3799L27.0798 61.2799C25.8898 61.1299 24.4098 60.9399 24.0798 60.8599C23.7498 60.7799 23.4398 60.7599 23.0798 60.7299L22.2298 60.6299L21.5898 60.5399C21.3698 60.5399 21.0898 60.4799 20.9598 60.4499C20.6498 60.3999 19.6098 60.2899 19.3398 60.2899C19.0698 60.2899 19.0998 60.3399 18.9698 60.7699C18.8898 61.0399 18.7098 61.7699 18.5698 62.4099C18.2998 63.6999 18.3198 63.9499 18.7298 64.5499C19.5698 65.8099 19.6798 66.3299 19.6798 69.1599C19.6798 70.3799 19.7498 72.6699 19.8298 74.2499C19.9098 75.8299 19.9898 77.7099 20.0198 78.3999C20.0498 79.0899 20.0898 79.8299 20.1098 80.0199C20.1298 80.2099 20.1598 81.0999 20.1898 81.9599C20.2598 83.7799 20.3098 84.6799 20.3898 85.2899C20.4095 85.551 20.3926 85.8135 20.3398 86.0699C20.2769 86.347 20.2302 86.6274 20.1998 86.9099L20.1098 87.5399C20.0426 88.068 19.9323 88.5898 19.7798 89.0999C19.6061 89.7184 19.5787 90.3689 19.6998 90.9999L19.8198 91.4199L20.8198 91.9099C21.3798 92.1799 21.8198 92.3899 21.8898 92.3899C22.3947 92.0327 22.8665 91.6311 23.2998 91.1899C23.8498 90.6399 24.1498 90.4799 24.3798 90.5999C24.6098 90.7199 24.5798 90.9399 24.1898 91.7799C23.959 92.2875 23.7586 92.8084 23.5898 93.3399L23.3498 94.1499L23.9198 94.9899C24.1097 95.3103 24.3344 95.6088 24.5898 95.8799C24.6598 95.8799 24.7298 96.0199 24.7598 96.1199C25.1964 96.7774 25.7823 97.3223 26.4698 97.7099C26.8998 98.0099 27.2798 98.2499 27.2998 98.2499C27.3198 98.2499 27.6098 98.4599 27.9698 98.6999C28.1945 98.8835 28.4435 99.0349 28.7098 99.1499C28.8607 99.2102 28.9945 99.3063 29.0998 99.4299C29.3758 99.6554 29.678 99.8468 29.9998 99.9999C30.3198 100.2 30.7498 100.48 30.9498 100.63C31.1498 100.78 31.4498 101 31.6198 101.11C31.9401 101.308 32.2414 101.536 32.5198 101.79C32.6098 101.86 33.0798 102.23 33.5998 102.6C34.1198 102.97 34.7198 103.42 34.9398 103.6L35.9398 104.32C36.2598 104.54 36.6398 104.84 36.7998 104.98C37.0883 105.223 37.3923 105.447 37.7098 105.65C37.9595 105.802 38.1999 105.969 38.4298 106.15C38.6112 106.319 38.8089 106.47 39.0198 106.6C39.587 106.946 40.1079 107.362 40.5698 107.84C40.823 108.301 40.884 108.844 40.7398 109.35C40.6704 109.713 40.6236 110.081 40.5998 110.45C40.554 110.669 40.5668 110.896 40.6371 111.109C40.7073 111.321 40.8325 111.511 40.9998 111.66C41.1837 111.846 41.3267 112.068 41.4197 112.313C41.5127 112.557 41.5536 112.819 41.5398 113.08C41.5398 114.08 41.5398 114.08 42.9798 114.41C44.0498 114.65 44.4798 114.76 45.2798 114.97L46.4998 115.29C46.7598 115.343 47.0168 115.41 47.2698 115.49C47.3698 115.49 47.9298 115.74 48.5298 115.95L50.0198 116.48C50.1736 116.557 50.3392 116.608 50.5098 116.63C50.6583 116.391 50.7601 116.127 50.8098 115.85L50.7898 115.91ZM71.2798 115.71C71.7898 115.46 71.4798 114.56 70.9298 114.71C70.7998 114.71 70.0298 114.79 69.2298 114.82C67.6798 114.82 67.5098 114.92 67.6198 115.29C67.7298 115.66 67.9698 115.67 68.6198 115.81C69.4921 115.926 70.3777 115.896 71.2398 115.72L71.2798 115.71ZM67.8998 113.35C67.9898 113.35 68.5798 113.22 69.1998 113.12C70.4853 112.941 71.7533 112.654 72.9898 112.26C76.9898 110.96 79.2198 109.42 81.0598 106.66C81.9408 105.275 82.7195 103.828 83.3898 102.33C83.7415 101.572 83.9484 100.754 83.9998 99.9199C83.6904 100.008 83.3865 100.115 83.0898 100.24C82.6696 100.405 82.2342 100.529 81.7898 100.61C81.3699 100.61 81.2999 100.61 81.0798 100.42C80.6698 100.02 80.7898 99.8399 81.6698 99.5499C83.065 99.1129 84.356 98.395 85.4635 97.4406C86.571 96.4862 87.4716 95.3153 88.1098 93.9999C88.2947 93.6046 88.5086 93.2235 88.7498 92.8599C88.9867 92.7134 89.2616 92.6404 89.5398 92.6499C90.1113 92.6822 90.6808 92.5577 91.1866 92.2898C91.6925 92.0219 92.1154 91.6208 92.4099 91.1299C93.01 90.3238 93.4822 89.43 93.8098 88.4799C94.3598 87.1699 94.4198 86.6199 94.0298 86.4799C93.6254 86.3373 93.1843 86.3373 92.7798 86.4799C92.6498 86.5799 92.5998 86.7299 92.5798 87.1599C92.5628 87.5013 92.4954 87.8382 92.3798 88.1599C92.2798 88.3799 92.2098 88.5899 92.2398 88.6199C92.2698 88.6499 92.2399 88.7199 92.1199 88.7899C91.9998 88.8599 92.0098 88.8999 92.1199 88.8599C92.2299 88.8199 92.2399 88.8599 92.1199 88.9199C92.0469 88.9929 91.9921 89.0819 91.9598 89.1799C91.9102 89.2953 91.8349 89.3978 91.7398 89.4799C91.6558 89.5368 91.5899 89.6166 91.5499 89.7099C91.5499 89.8299 91.3398 90.0799 91.2698 90.0099C91.1998 89.9399 91.1699 90.2599 90.9799 90.4499L90.6298 90.7899L90.5698 90.4999C90.4888 89.8896 90.6425 89.2713 90.9998 88.7699C91.1814 88.4841 91.3133 88.1697 91.3898 87.8399C91.1664 87.1642 90.6896 86.6014 90.0598 86.2699C89.7363 86.1644 89.3998 86.1039 89.0598 86.0899C87.7426 85.8996 86.4616 85.5119 85.2598 84.9399C84.2582 84.5444 83.3106 84.0236 82.4398 83.3899L80.9498 82.3899C79.3868 81.373 77.9026 80.2398 76.5098 78.9999C75.5127 77.9943 74.6672 76.849 73.9998 75.5999C73.8398 75.1699 73.7398 75.1099 73.6498 75.3899C73.6498 75.4899 73.5498 75.5499 73.4998 75.5299C73.4498 75.5099 73.4998 75.5299 73.4998 75.6299V75.7199C73.4998 75.6799 73.4098 75.7199 73.4998 75.8099C73.5898 75.8999 73.4998 75.9399 73.4998 75.8999C73.4998 75.8599 73.4098 75.8999 73.4498 75.9899C73.4898 76.0799 73.4498 76.1199 73.4498 76.0799C73.4498 76.0399 73.3598 76.0799 73.4498 76.1699C73.5398 76.2599 73.4498 76.2999 73.4498 76.2599C73.4498 76.2199 73.3598 76.2599 73.4498 76.3499C73.5398 76.4399 73.4498 76.4799 73.3898 76.4299C73.2898 76.4299 73.3298 76.3799 73.3898 76.4299C73.4898 76.4299 73.2198 76.9299 73.1198 76.8299C73.0198 76.7299 73.1198 76.8299 73.1198 76.8899C73.1198 76.9499 72.6898 77.7399 72.5798 77.6399C72.6798 77.8499 71.4798 79.0799 70.3498 79.9099C68.7457 80.9915 66.8641 81.5886 64.9298 81.6299H64.4198L65.0798 81.0699L65.9698 80.2999C66.0898 80.1799 66.4798 79.8599 66.8198 79.5799C67.4959 79.0854 68.0869 78.4842 68.5698 77.7999C68.5698 77.7999 68.3098 77.7999 67.9898 78.0399C67.1698 78.5299 64.6698 79.8099 63.7098 80.2099C62.4432 80.7258 61.1307 81.1209 59.7898 81.3899C56.5481 81.8634 53.2835 82.1638 50.0098 82.2899C48.9563 82.2409 47.9026 82.3832 46.8998 82.7099C44.433 83.3502 42.1227 84.4867 40.1098 86.0499C39.8752 86.2138 39.6916 86.4405 39.5802 86.7041C39.4687 86.9677 39.4339 87.2574 39.4798 87.5399C40.2081 89.7968 41.3027 91.9184 42.7198 93.8199C42.8226 94.0002 42.9669 94.1533 43.1409 94.2663C43.3149 94.3794 43.5134 94.4492 43.7198 94.4699C43.7698 94.4699 43.7998 94.4699 43.7798 94.5499C43.7598 94.6299 43.7798 94.6199 43.9198 94.6299C44.5972 94.6451 45.2696 94.7494 45.9198 94.9399C46.3842 95.4951 46.7251 96.1428 46.9198 96.8399C46.9198 96.8399 46.9198 96.9099 46.9198 96.8399C46.9198 96.7699 47.0998 96.9299 47.1998 97.0899C47.3529 97.3295 47.5198 97.5599 47.6998 97.7799C47.8233 97.9127 47.9186 98.0692 47.9798 98.2399C47.9798 98.2399 48.0398 98.3999 48.1598 98.4999C48.2798 98.5999 48.3798 98.6799 48.3798 98.6499C48.929 99.0222 49.4535 99.4297 49.9498 99.8699C50.0098 99.8699 50.5398 100.26 51.1298 100.64C52.1281 101.242 53.0512 101.96 53.8798 102.78C54.0232 102.943 54.192 103.081 54.3798 103.19C54.9418 103.676 55.4482 104.223 55.8898 104.82C56.1648 105.213 56.462 105.59 56.7798 105.95C57.2698 106.54 57.8998 107.34 58.1598 107.72C58.3014 107.963 58.4764 108.185 58.6798 108.38C58.6798 108.38 58.9598 108.78 59.3198 109.6C59.647 110.296 60.1678 110.882 60.8198 111.29C61.1498 111.52 61.4698 111.76 61.5298 111.82C61.9533 112.077 62.3907 112.311 62.8398 112.52C63.675 112.989 64.6042 113.266 65.5598 113.33C66.464 113.356 67.3688 113.329 68.2698 113.25L67.8998 113.35ZM86.5698 112.84C87.0698 112.62 87.5698 112.38 88.5698 111.92C88.9398 111.74 89.5098 111.5 89.8298 111.38C90.4298 111.15 91.3898 110.75 92.0698 110.44L93.1599 109.96C93.5299 109.81 94.1599 109.54 94.4698 109.37C94.7042 109.247 94.9484 109.143 95.1998 109.06C95.5413 108.944 95.8753 108.807 96.1998 108.65L97.5499 108.02C97.8434 107.884 98.1438 107.764 98.4498 107.66C98.6819 107.581 98.9062 107.48 99.1199 107.36C99.6642 107.063 100.237 106.822 100.83 106.64C101.471 106.436 102.096 106.185 102.7 105.89C102.78 105.83 102.81 105.47 102.81 104.7C102.81 104.1 102.81 103.22 102.9 102.7C102.99 102.18 103.02 101.38 103.05 100.81C103.027 100.279 103.133 99.7504 103.36 99.2699C103.49 98.9999 103.7 98.5499 103.81 98.2699C103.92 97.9899 104.35 97.0599 104.81 96.1999C105.462 95.0244 105.867 93.7278 106 92.3899C106.016 92.1484 106.046 91.908 106.09 91.6699C106.09 91.5699 106.15 91.2399 106.18 90.9399C106.194 90.6882 106.224 90.4377 106.27 90.1899C106.27 90.0599 106.35 89.6599 106.4 89.2899C106.45 88.9199 106.51 88.4999 106.53 88.3699C106.55 88.2399 106.59 87.9499 106.63 87.6999C106.71 87.0899 107.17 84.7999 107.44 83.6999C107.44 83.4499 107.85 81.7799 107.98 81.1699C108.05 80.8499 108.2 80.2399 108.33 79.8299C108.426 79.5679 108.493 79.2963 108.53 79.0199C108.859 77.4376 109.401 75.9071 110.14 74.4699C110.576 73.5838 110.967 72.6759 111.31 71.7499C111.403 71.5136 111.516 71.286 111.65 71.0699C111.872 70.6439 112.073 70.2066 112.25 69.7599C112.425 69.3009 112.636 68.8563 112.88 68.4299C113.361 67.4486 113.659 66.388 113.76 65.2999C113.76 65.1799 113.86 64.8699 113.93 64.6099C114.083 64.2143 114.083 63.7755 113.93 63.3799C112.595 62.4702 111.167 61.7058 109.67 61.0999C109.02 60.8899 108.73 60.6799 108.88 60.4999C109.116 60.2901 109.406 60.1516 109.718 60.1002C110.029 60.0489 110.349 60.0869 110.64 60.2099C110.81 60.2799 110.97 60.3199 111 60.2899C111.341 60.3477 111.676 60.4381 112 60.5599C112.56 60.7399 113 60.8799 113.09 60.8799C113.18 60.8799 113.17 60.7999 113.17 60.7099C113.201 60.4598 113.251 60.2124 113.32 59.9699C113.415 59.6713 113.428 59.3529 113.36 59.0472C113.291 58.7415 113.143 58.4595 112.93 58.2299C112.679 57.9126 112.536 57.524 112.52 57.1199V56.8399C112.595 56.6102 112.706 56.394 112.85 56.1999C112.971 56.0382 113.075 55.8638 113.16 55.6799C112.11 54.4885 110.984 53.3662 109.79 52.3199C109.606 52.2507 109.41 52.2229 109.215 52.2385C109.019 52.254 108.83 52.3126 108.66 52.4099C108.24 52.6299 105.99 53.5399 105.18 53.8099C104.531 54.0166 103.894 54.2569 103.27 54.5299C103.162 54.5862 103.048 54.6298 102.93 54.6599C102.86 54.6599 99.5298 55.8899 98.0598 56.4599L96.8298 56.9099C96.3399 57.0699 96.2598 57.1999 96.3798 57.6699C96.5898 58.5199 96.5499 58.6699 95.7898 59.8199C95.4099 60.3799 95.0298 60.9399 94.9298 61.0599C94.8325 61.198 94.777 61.3611 94.7698 61.5299C95.052 62.4224 95.4887 63.2584 96.0598 63.9999C96.2986 64.298 96.4816 64.6368 96.5998 64.9999C96.8398 65.7499 96.8798 65.9999 96.7798 65.9099C96.6798 65.8199 96.6698 66.0799 96.6798 66.3999V66.4699C96.6798 66.4399 96.2998 66.8799 95.9898 67.8099C95.3198 69.8999 95.1398 71.0799 95.4298 71.6299C95.8148 72.5787 96.129 73.5547 96.3699 74.5499C96.6921 75.485 96.8774 76.4618 96.9198 77.4499C96.9198 78.0299 97.0798 78.3199 97.3798 78.3199C97.6298 78.3643 97.8745 78.4346 98.1098 78.5299L99.4898 79.0499C99.9357 79.21 100.367 79.4073 100.78 79.6399C100.98 79.7767 101.19 79.8971 101.41 79.9999C101.637 80.1363 101.852 80.2936 102.05 80.4699C102.32 80.6999 102.66 80.9699 102.79 81.0699C103.558 81.8217 104.261 82.638 104.89 83.5099C105.44 84.2899 105.36 84.3999 104.52 84.0099C103.261 83.4076 101.908 83.0254 100.52 82.8799L97.6298 82.7899C95.6298 82.7299 95.4398 82.7299 95.6298 82.8699C97.0733 83.9453 98.4125 85.1539 99.6298 86.4799C99.8498 86.7599 100.1 87.0599 100.17 87.1399C100.576 87.6729 100.944 88.2343 101.27 88.8199C101.42 89.1199 101.86 90.4699 102.14 91.4399C102.388 92.425 102.559 93.4281 102.65 94.4399C102.65 95.0799 102.65 95.1499 102.56 95.1199C102.47 95.0899 102.08 94.5499 101.56 93.1199C101.443 92.8208 101.299 92.5329 101.13 92.2599C100.961 92.0057 100.808 91.7419 100.67 91.4699C100.016 90.4344 99.1872 89.5207 98.2198 88.7699C97.9998 88.6399 97.5199 88.3199 97.1498 88.0799C96.9217 87.901 96.6646 87.7624 96.3898 87.6699C96.2698 87.6699 96.1298 88.3999 96.1798 88.7399V88.9499C96.1798 88.9299 96.0898 89.1799 96.0598 89.5099C96.0298 89.8399 95.9198 90.5099 95.8198 90.9699C95.5245 93.0393 95.4341 95.1328 95.5499 97.2199C95.6098 98.2199 95.6699 99.2199 95.6898 99.3699C95.7098 99.5199 95.7898 100.1 95.8598 100.74C95.894 101.157 95.9575 101.572 96.0499 101.98C96.0947 102.201 96.1215 102.425 96.1298 102.65C96.1344 102.887 96.1714 103.123 96.2398 103.35C96.2398 103.41 96.2398 103.35 96.1298 103.35C96.0393 103.265 95.9795 103.152 95.9598 103.03C95.9599 102.992 95.9455 102.955 95.9195 102.927C95.8935 102.899 95.8579 102.882 95.8198 102.88C95.7498 102.88 95.6798 102.88 95.6698 102.8C95.6598 102.72 95.4599 102.53 95.2299 102.26C94.6862 101.696 94.2851 101.01 94.0598 100.26C93.9498 99.8899 93.7898 99.4399 93.7198 99.2599C93.6092 98.9148 93.5322 98.5598 93.4898 98.1999C93.4198 97.7899 93.3598 97.3699 93.3298 97.1999C93.2999 97.0299 93.2598 96.3699 93.2299 95.6299C93.2295 95.1681 93.1961 94.7069 93.1298 94.2499C93.0258 94.4697 92.9647 94.7072 92.9498 94.9499C92.8798 95.3299 92.7498 95.9499 92.6498 96.4099C92.5499 96.8699 92.4598 97.2799 92.4398 97.4099C92.4199 97.5399 92.3798 97.7799 92.3498 97.9499C92.2151 99.5704 92.2151 101.199 92.3498 102.82C92.507 104.147 92.7745 105.458 93.1498 106.74C93.2598 106.92 93.2798 107.01 93.1498 107.08C93.0199 107.15 92.6498 106.81 92.0499 105.83C91.7898 105.39 91.4198 104.83 91.2398 104.53C90.9617 104.043 90.7306 103.531 90.5499 103C90.3399 102.43 90.0998 101.77 89.9998 101.51C89.7823 100.999 89.6538 100.454 89.6199 99.8999C89.6176 99.7237 89.5906 99.5487 89.5398 99.3799C89.4697 99.1179 89.4229 98.8502 89.3998 98.5799C89.3813 98.3077 89.3446 98.0371 89.2898 97.7699C89.2353 97.2852 89.2119 96.7976 89.2198 96.3099C89.2383 95.875 89.2115 95.4393 89.1398 95.0099C89.1398 95.0099 88.9798 95.0099 88.8498 95.1599C88.7198 95.3099 88.5499 95.6099 88.7898 95.4199C88.9298 95.3099 89.0298 95.2299 88.7898 95.4199C88.6498 95.5299 88.6298 95.5499 88.5898 95.5299C88.5498 95.5099 88.2598 95.9099 88.2198 96.0899C88.1798 96.2699 88.1398 96.2199 88.0499 96.2799C88.0051 96.3068 87.9667 96.343 87.9373 96.3862C87.908 96.4294 87.8884 96.4784 87.8798 96.5299C87.4797 97.1188 86.9866 97.6389 86.4198 98.0699C86.2219 98.2232 86.0641 98.4223 85.9598 98.6499C85.8598 99.0899 84.9598 101.58 84.7898 101.98C84.6898 102.21 84.4498 102.77 84.2698 103.24C84.0898 103.71 83.7798 104.41 83.5998 104.78C83.2398 105.52 83.2398 105.63 83.5998 106.53C83.9212 107.379 84.1786 108.252 84.3699 109.14C84.3747 109.274 84.42 109.403 84.4998 109.51C84.6803 109.917 84.8373 110.335 84.9698 110.76C85.0975 111.216 85.2787 111.656 85.5098 112.07C85.6188 112.21 85.7064 112.365 85.7698 112.53C85.7847 112.614 85.8225 112.692 85.879 112.755C85.9354 112.819 86.0084 112.865 86.0898 112.89C86.2624 112.843 86.4298 112.78 86.5898 112.7L86.5698 112.84ZM46.4198 102.1C46.7037 101.584 46.9348 101.042 47.1098 100.48C46.8707 100.029 46.528 99.642 46.1098 99.3499C45.9298 99.2499 45.6298 99.4299 45.5798 99.6699C45.5298 99.9099 45.4898 100.54 45.4398 101.36C45.3898 102.18 45.3098 103 45.2698 103.19C45.2298 103.38 45.1898 103.52 45.4698 103.52C45.7498 103.52 45.7698 103.52 46.4698 102.1H46.4198ZM90.9998 98.5399C91.2219 97.5495 91.3922 96.5481 91.5098 95.5399C91.5227 95.2699 91.5629 95.0018 91.6298 94.7399C91.9098 93.9999 91.5398 93.7399 90.7498 94.2099C89.9598 94.6799 89.8898 94.7499 89.9698 95.8699C90.0199 96.7699 90.3298 99.1899 90.4298 99.6499C90.4298 99.8399 90.5098 99.8099 90.7098 99.3899C90.8285 99.118 90.9255 98.8371 90.9998 98.5499V98.5399ZM37.6398 85.7399C38.0592 84.65 38.8344 83.7338 39.8398 83.1399C40.8398 82.4999 41.8998 82.2399 44.8398 81.9299C45.5598 81.8599 46.4898 81.7599 46.9098 81.6999C47.3298 81.6399 48.9098 81.5099 50.4698 81.3899C53.1548 81.2238 55.8267 80.8898 58.4698 80.3899C62.0698 79.6699 63.7198 78.9299 67.7098 76.2299C69.104 75.3566 70.3497 74.2662 71.3998 72.9999C72.6271 71.6698 73.4704 70.0316 73.8398 68.2599C74.0368 67.584 74.0368 66.8659 73.8398 66.1899C72.9668 64.5321 71.7039 63.1113 70.1598 62.0499C68.2411 60.7389 66.0002 59.978 63.6798 59.8499C61.3909 59.7609 59.0984 59.8344 56.8198 60.0699C52.2496 60.9052 47.96 62.8679 44.3398 65.7799C42.5628 67.1815 40.8916 68.7123 39.3398 70.3599C37.7998 71.9099 37.6898 72.0599 35.6998 75.2399C35.3898 75.7599 34.8898 76.5399 34.5998 76.9999C34.1113 77.6643 33.7425 78.4088 33.5098 79.1999C33.4298 79.5099 33.3698 79.7799 33.3698 79.8099C33.8877 79.4949 34.3734 79.1298 34.8198 78.7199C35.8427 77.9281 36.9787 77.2943 38.1898 76.8399C41.0102 75.7035 43.995 75.0282 47.0298 74.8399C49.5189 74.6564 51.9897 74.2786 54.4198 73.7099C60.2998 72.4199 62.3498 71.5199 65.5398 68.8099C66.1298 68.3199 66.3998 68.1299 66.4798 68.1999C66.5443 68.5301 66.5443 68.8697 66.4798 69.1999C66.5034 69.6772 66.4035 70.1525 66.1898 70.5799C65.8508 71.2265 65.3928 71.8032 64.8398 72.2799C62.9547 73.5706 60.9241 74.6346 58.7898 75.4499C58.0798 75.7399 55.2998 76.6699 54.5098 76.8899L53.6898 77.1199C53.4698 77.1899 52.7798 77.3399 52.1598 77.4799L49.3698 78.0699C46.8298 78.6299 46.1898 78.7799 44.7698 79.0699C41.8498 79.6899 39.7698 80.5699 38.5598 81.7299C37.6663 82.5697 37.049 83.6613 36.7898 84.8599C36.753 85.4638 36.8628 86.0676 37.1098 86.6199C37.3228 86.3356 37.5008 86.0267 37.6398 85.6999V85.7399ZM92.6998 84.4099C93.2498 84.3499 94.0098 84.2599 94.3699 84.1999L95.0398 84.0799L94.0398 83.5599C93.3537 83.1405 92.5903 82.8633 91.7949 82.7447C90.9995 82.6262 90.1885 82.6688 89.4099 82.8699C88.5465 83.0642 87.6544 83.0948 86.7798 82.9599C86.3293 82.898 85.8743 82.8745 85.4198 82.8899H84.6098L85.8298 83.5099C86.4604 83.9302 87.193 84.1721 87.9498 84.2099C88.4398 84.2099 89.1299 84.3199 89.4698 84.3699C90.5539 84.4755 91.6458 84.4755 92.7299 84.3699L92.6998 84.4099ZM88.8598 81.2099C91.977 80.8657 95.1227 80.8657 98.2398 81.2099L99.5598 81.3599C99.0279 80.8837 98.428 80.4894 97.7798 80.1899C96.8111 79.8632 95.8012 79.6747 94.7798 79.6299C92.0698 79.2699 89.2398 78.8399 88.9198 78.7199C88.7258 78.6656 88.5288 78.6222 88.3298 78.5899C86.8287 78.3392 85.4073 77.7398 84.1798 76.8399L83.6398 76.3899C82.2598 75.2699 78.5598 71.9999 77.3098 70.7999C76.6139 70.1472 76.0176 69.3958 75.5398 68.5699C75.3298 68.1699 75.0198 68.0199 74.8298 68.2199C74.5336 68.8867 74.3122 69.5843 74.1698 70.2999C73.9618 71.4077 74.02 72.5491 74.3398 73.6299C74.7713 74.7263 75.494 75.6841 76.4298 76.3999C77.8067 77.6408 79.3732 78.6536 81.0698 79.3999L82.0698 79.8399C83.4497 80.4025 84.8663 80.8702 86.3098 81.2399C87.1289 81.3986 87.9708 81.3986 88.7898 81.2399L88.8598 81.2099ZM37.1398 80.5899C38.9176 79.2607 40.966 78.3389 43.1398 77.8899C43.9198 77.7399 44.3498 77.6599 47.7798 77.0499C50.1466 76.6932 52.4856 76.1719 54.7798 75.4899C54.8398 75.4899 55.2998 75.2499 55.8298 75.0399C56.8998 74.5999 56.9998 74.5399 56.5498 74.6199L54.2498 74.9899L51.7298 75.3899C51.4298 75.3899 49.7898 75.6399 48.0698 75.8499C46.3498 76.0599 44.8898 76.2599 44.8098 76.2999C44.6736 76.3562 44.5272 76.3834 44.3798 76.3799C42.8487 76.5162 41.3513 76.9083 39.9498 77.5399C37.4898 78.6599 36.7298 79.0799 36.5198 79.4099C36.301 79.8561 36.2242 80.3587 36.2998 80.8499C36.3798 81.0599 36.7398 80.9499 37.1998 80.5899H37.1398ZM95.2198 78.3099C95.3334 78.2278 95.4254 78.1194 95.4881 77.994C95.5508 77.8687 95.5823 77.73 95.5798 77.5899C95.5798 77.4999 95.5198 77.3099 95.4998 77.1899C95.3646 76.8942 95.1896 76.6184 94.9799 76.3699C94.6367 75.9042 94.3355 75.4089 94.0798 74.8899C93.5593 73.7365 92.8304 72.6889 91.9298 71.7999C90.0828 70.0324 88.074 68.4421 85.9298 67.0499C85.4698 66.8499 84.6498 66.5799 82.7898 66.0499C82.4682 65.9694 82.1538 65.8624 81.8498 65.7299C82.3408 65.8031 82.8256 65.9134 83.2999 66.0599L84.0698 66.2699C86.6292 67.0271 89.0796 68.1128 91.3598 69.4999C91.4934 69.5862 91.6457 69.6394 91.804 69.655C91.9622 69.6707 92.1219 69.6483 92.2698 69.5899C92.4198 69.4899 92.4498 69.5299 91.2698 67.9999L90.4198 66.9199L88.5398 65.7699C87.3661 65.1459 86.2602 64.4019 85.2398 63.5499C84.7092 63.0712 84.054 62.7522 83.3498 62.6299C81.9545 62.2443 80.5044 62.0956 79.0598 62.1899C78.2552 62.1433 77.4479 62.1768 76.6498 62.2899C76.5286 62.354 76.4261 62.4485 76.3524 62.5643C76.2788 62.68 76.2365 62.8129 76.2299 62.9499C76.2299 63.0199 76.2298 63.0899 76.1398 63.0899C76.0498 63.0899 76.0498 63.4499 76.0498 64.0899C76.0498 65.0899 76.0498 65.5899 75.8598 65.5899C75.7494 66.05 75.7494 66.5298 75.8598 66.9899C75.946 67.1038 76.0104 67.2326 76.0498 67.3699C76.1698 67.7499 76.4099 68.0399 76.4099 67.8299C76.4099 67.7699 76.5198 67.9499 76.6698 68.2499C77.0898 69.1699 79.2998 71.0899 83.2098 73.9599C83.5698 74.2099 84.1398 74.6399 84.5098 74.9099C85.2872 75.4427 86.1226 75.8856 86.9998 76.2299L88.7999 76.9199C91.2699 77.9199 94.4998 78.5799 95.2098 78.3099H95.2198ZM38.3098 68.5799C38.2498 68.8399 38.2598 68.8399 38.4198 68.7099L38.8498 68.3499C39.3298 67.9599 40.0998 67.2499 41.7098 65.7199C42.3818 65.0708 43.0895 64.4598 43.8298 63.8899L46.0698 62.4499C47.44 61.6338 48.8748 60.9314 50.3598 60.3499C51.9474 59.6517 53.6345 59.2063 55.3598 59.0299L57.6998 58.6099C59.912 58.254 62.1694 58.2878 64.3698 58.7099C66.078 58.9299 67.7237 59.4945 69.2071 60.3694C70.6906 61.2444 71.9809 62.4114 72.9998 63.7999C73.7698 64.7199 73.9298 64.7999 74.1398 64.7099C74.6398 64.3799 75.0098 61.2399 74.7198 59.7099C74.3914 57.2523 73.251 54.975 71.4798 53.2399C70.3652 52.1907 69.0974 51.3174 67.7198 50.6499C63.8998 48.6499 61.6198 48.5299 56.8598 49.8499C55.3087 50.1875 53.809 50.7289 52.3998 51.4599C50.9024 52.3818 49.4691 53.4042 48.1098 54.5199C48.1098 54.5199 47.5498 55.0399 46.8998 55.5999C46.2498 56.1599 45.5798 56.8299 45.3998 56.9999C45.0598 57.3799 43.5198 59.3499 43.0998 59.9499C42.9598 60.1699 42.2698 61.0499 41.5798 61.9499C39.1798 64.9499 37.9798 67.0299 37.5198 68.9499C37.4498 69.2199 37.4598 69.2199 37.9098 68.7699C38.3598 68.3199 38.3698 68.3299 38.3098 68.5899V68.5799ZM90.7198 64.5799C90.3799 64.2199 89.4398 63.0499 88.6298 61.9799C87.7665 60.6612 86.7231 59.4697 85.5298 58.4399C85.1498 58.1399 84.7698 57.8199 84.6798 57.7299C83.8956 57.2997 83.0631 56.964 82.1998 56.7299C81.7018 56.5805 81.2195 56.3829 80.7598 56.1399C80.4 55.9402 80.0215 55.7761 79.6298 55.6499C78.8018 55.4802 77.9479 55.4802 77.1199 55.6499L76.2898 55.8199C76.1836 55.8628 76.0855 55.9237 75.9998 55.9999C75.8098 56.1699 75.8098 56.3299 75.9998 57.4199C75.9998 57.6699 76.1098 58.5799 76.1398 59.4199C76.1398 60.7199 76.2299 61.0199 76.3598 61.1799C76.4898 61.3399 76.5499 61.3799 79.4398 61.3799C83.5298 61.3799 84.0999 61.4999 86.9099 62.9199C87.7299 63.3399 88.6798 63.9199 89.0198 64.0899C89.7076 64.5441 90.4459 64.9166 91.2198 65.1999C91.2898 65.1999 91.0698 64.9099 90.7498 64.5599L90.7198 64.5799ZM36.7198 60.6999C36.9903 60.0138 37.2207 59.3127 37.4098 58.5999C37.7298 57.5099 38.1098 56.2299 38.2598 55.7599C38.3722 55.4364 38.446 55.1007 38.4798 54.7599C38.4798 54.6199 38.0198 54.4999 33.1798 53.2399C30.9498 52.6699 26.1798 51.4099 22.5198 50.4399C18.8598 49.4699 15.8398 48.6899 15.7398 48.6899C15.6544 48.689 15.572 48.7213 15.5098 48.7799C15.5098 48.8399 15.3198 50.1799 15.1498 51.7799C14.9798 53.3799 14.7798 55.3299 14.6898 56.1099C14.5498 57.3599 14.5398 57.5499 14.6898 57.6599C14.8398 57.7699 17.1798 58.1199 23.1098 58.9299L33.7998 60.4099C36.5498 60.8099 36.6298 60.8099 36.7498 60.6599L36.7198 60.6999ZM96.7698 55.2999L106.37 51.9799C110.07 50.6999 113.19 49.6099 113.28 49.5499C113.65 49.3499 113.67 49.2399 114.02 44.6699C114.11 43.3599 114.22 42.1299 114.25 41.9499C114.28 41.7699 114.25 41.6099 114.09 41.6099C113.93 41.6099 108.36 43.2199 101.62 45.1999C91.7498 48.0799 89.3498 48.8099 89.3298 48.9399C89.4061 49.2933 89.5413 49.6314 89.7299 49.9399C90.6699 51.5999 93.1298 55.9399 93.2498 56.1599C93.2908 56.2229 93.3473 56.2744 93.4138 56.3094C93.4803 56.3444 93.5547 56.3618 93.6298 56.3599C93.7698 56.3599 95.1898 55.8999 96.7698 55.3599V55.2999ZM30.9998 50.8499C31.0685 50.7806 31.1079 50.6875 31.1098 50.5899C31.1098 50.5199 31.4898 49.1899 31.9598 47.6499L32.8098 44.8299L33.2598 44.3799C33.7795 43.8413 34.0791 43.128 34.0998 42.3799C34.1137 41.827 34.229 41.2812 34.4398 40.7699C34.6886 40.5818 34.9568 40.4209 35.2398 40.2899C36.6671 39.5877 37.9574 38.6361 39.0498 37.4799C39.5556 37.0219 40.0269 36.5273 40.4598 35.9999C41.6253 33.5023 42.9932 31.1043 44.5498 28.8299C45.6774 27.0484 46.9878 25.3894 48.4598 23.8799C48.9359 23.4157 49.374 22.9141 49.7698 22.3799C50.2898 21.3799 50.1998 20.5599 49.5098 20.1399C48.8198 19.7199 48.6798 19.8699 47.4498 20.6999C45.8659 21.7256 44.1924 22.6058 42.4498 23.3299C39.8398 24.4899 39.2698 24.8399 38.8698 25.5099C38.7234 25.7597 38.5172 25.9693 38.2698 26.1199C37.5063 26.5069 36.6914 26.7831 35.8498 26.9399C35.6623 26.9432 35.4765 26.977 35.2998 27.0399L32.4098 28.7999C28.5598 31.2099 26.4998 32.4899 24.2098 33.8999C22.3498 35.0399 22.0798 35.2099 21.6398 35.4899L20.7198 36.0699C20.3898 36.2799 20.2398 36.4299 20.2398 36.5599C20.9947 38.4279 21.8699 40.2451 22.8598 41.9999C23.0567 42.3101 23.2082 42.6469 23.3098 42.9999C23.2797 43.1813 23.2001 43.3508 23.0798 43.4899C22.4738 44.4576 22.0312 45.5184 21.7698 46.6299C21.6198 47.2399 21.4598 47.8899 21.3998 48.0799C21.3398 48.2699 21.3198 48.4499 21.3998 48.5099C21.7201 48.6491 22.0558 48.7499 22.3998 48.8099C24.1198 49.2099 30.2398 50.8099 30.3998 50.8099C30.498 50.869 30.6103 50.9002 30.7248 50.9002C30.8394 50.9002 30.9517 50.869 31.0498 50.8099L30.9998 50.8499ZM98.1599 43.9999C99.2198 43.6699 101.16 43.1099 102.37 42.7399C103.58 42.3699 104.75 42.0199 104.84 41.9699C104.886 41.9411 104.925 41.9015 104.953 41.8545C104.981 41.8075 104.997 41.7545 105 41.6999C105 41.3499 102.8 35.7799 101.49 32.8499C101.254 32.3569 101.07 31.8408 100.94 31.3099C100.985 30.9672 101.072 30.6313 101.2 30.3099C101.71 28.9999 101.77 28.4799 101.71 25.8199C101.74 24.5648 101.629 23.3103 101.38 22.0799C101.24 21.3399 100.98 20.1999 100.81 19.5599L100.26 17.4899C99.9398 16.0799 99.6599 15.3899 97.9799 11.7399C96.9231 9.45258 95.6928 7.24948 94.2999 5.1499C93.8998 4.4799 93.4798 3.7699 93.3898 3.5699C93.1751 3.14937 92.8774 2.77666 92.5148 2.47419C92.1522 2.17172 91.7321 1.94576 91.2798 1.8099C90.9898 1.8099 90.6599 2.2699 90.6599 2.6999C90.8632 3.40671 91.124 4.09568 91.4398 4.7599C93.1999 8.8099 93.4398 9.2899 93.6798 10.1599C94.0499 11.3045 94.3209 12.4789 94.4898 13.6699C94.5498 14.1399 94.4899 14.2499 94.3699 14.4399L94.1898 14.6599L93.6998 14.1199C93.4337 13.7052 93.0332 13.3944 92.5654 13.2397C92.0976 13.0849 91.5908 13.0956 91.1298 13.2699C91.0079 13.3208 90.877 13.347 90.7449 13.347C90.6127 13.347 90.4818 13.3208 90.3598 13.2699C89.8098 13.0699 89.8098 12.8199 90.3598 12.4499C90.9099 12.0799 91.0698 11.8099 90.7498 11.3399C89.9995 10.2134 89.0219 9.2563 87.8798 8.5299C84.8323 6.31012 81.585 4.37847 78.1798 2.7599C76.3699 1.8499 76.0598 1.7599 75.6598 1.7599C75.0898 1.7599 74.8498 1.9699 74.8498 2.4799C74.8498 2.7699 74.9298 2.9099 75.2898 3.3199C75.8287 3.83161 76.451 4.24759 77.1298 4.5499C77.8798 4.9699 78.6898 5.4299 78.9099 5.5499C79.9899 6.2799 84.8399 10.1499 86.1599 11.3299C87.0817 12.1113 87.8985 13.0088 88.5898 13.9999C88.5898 14.2499 88.1998 14.4799 87.8898 14.3999C87.4654 14.1445 87.0784 13.8316 86.7398 13.4699C86.1198 12.8499 84.4698 11.5499 81.3498 9.2099C78.8798 7.3499 76.5199 5.5999 76.1199 5.3099C75.3274 4.71995 74.4554 4.24523 73.5298 3.8999C73.2698 3.8999 72.8398 4.3699 72.7898 4.7099C72.6898 5.3499 73.3498 6.2299 74.8598 7.5299C75.9998 8.5199 84.5798 17.9999 84.9398 18.6799C85.0271 18.8708 85.065 19.0806 85.0499 19.2899C85.0499 19.8799 84.6698 19.7799 82.4498 18.4999C81.3798 17.8899 80.2398 17.2199 79.8898 17.0299C78.8098 16.4099 76.9799 15.2599 75.6598 14.3699L73.6598 13.0099C72.6492 12.3663 71.5813 11.8174 70.4698 11.3699C70.1998 11.3699 69.9098 11.7399 69.9098 12.0799C69.9098 12.4199 70.0598 12.7299 70.7298 13.2699C71.0498 13.5299 72.0398 14.3699 72.9298 15.1399L75.9998 17.8199C77.8476 19.3398 79.5032 21.0793 80.9298 22.9999C81.2898 23.4599 81.4198 23.5599 81.7798 23.6499C82.3298 23.7799 82.5499 23.7399 83.5798 23.2099C84.4672 22.6946 85.485 22.4479 86.5098 22.4999C87.2798 22.4999 87.3699 22.5499 87.3699 22.6999C87.3699 22.8499 87.1398 23.0099 86.6298 23.3299C85.8098 23.8399 84.7498 24.5299 83.7198 25.1999C83.0899 25.5999 83.0098 25.6399 82.5898 25.5999C82.2728 25.5614 81.9587 25.5013 81.6498 25.4199C80.4598 25.0799 75.6498 25.4199 72.0898 26.1399C71.6911 26.2233 71.3197 26.4055 71.0098 26.6699C70.9261 26.8145 70.8717 26.9742 70.8498 27.1399C70.7798 27.6899 71.0298 27.9299 71.8498 28.0599C72.2098 28.1299 73.4398 28.3799 74.5798 28.6299C75.7198 28.8799 76.9398 29.1299 77.2798 29.1899C77.8398 29.2899 78.0798 29.4199 79.3998 30.2599C80.2198 30.7899 81.5798 31.7099 82.3998 32.3099C83.486 33.2188 84.7445 33.8991 86.0998 34.3099L89.6599 35.1399C90.7198 35.3599 90.9998 35.6199 91.6599 37.0199C92.1599 38.0199 92.3398 38.2099 92.8398 38.1799C93.3398 38.1499 93.4098 38.1799 93.5598 38.4699C93.7098 38.7599 94.7699 41.7199 95.2299 43.1999C95.4398 43.8899 95.6299 44.4899 95.6498 44.5299C95.6698 44.5699 96.2898 44.5299 98.1199 43.9999H98.1599ZM25.7598 30.4299C29.2498 28.4299 32.3198 26.7499 32.5898 26.6099C33.5898 26.1099 33.5898 26.2399 31.7698 25.0299C30.8698 24.4399 29.7698 23.6799 29.3598 23.3499C29.1175 23.1171 28.8322 22.9337 28.5198 22.8099C28.4237 23.0621 28.3533 23.3235 28.3098 23.5899C28.1498 24.3899 28.0198 24.5899 27.7298 24.4899C27.3389 24.2433 27.0565 23.8572 26.9398 23.4099C26.9398 23.3099 27.1998 22.6299 27.4698 21.8799C27.8798 20.7299 27.9898 20.5199 28.1498 20.4999C28.3098 20.4799 28.5798 20.6899 29.2298 21.3099C30.5429 22.624 32.0589 23.718 33.7198 24.5499C34.9498 25.1399 35.5598 25.0999 36.4298 24.4099L36.6998 24.1899L36.5298 23.7299C36.3798 23.3099 36.0298 22.9299 33.3598 20.2699C30.6898 17.6099 30.2998 17.1599 29.7498 16.3299C28.6498 14.6199 28.2998 14.3299 27.5498 14.3299C27.3054 14.339 27.0689 14.4197 26.8698 14.5619C26.6707 14.7041 26.5178 14.9016 26.4298 15.1299C26.3098 15.3699 25.6898 16.3499 25.0598 17.3199C24.4298 18.2899 23.6298 19.5299 23.3098 20.0499L22.2098 21.8499C21.6874 22.5043 21.3153 23.2656 21.1198 24.0799C21.2213 24.5929 21.3894 25.0905 21.6198 25.5599C22.2298 26.9699 22.4198 27.6599 22.2198 27.7799C22.1482 27.8271 22.0655 27.8547 21.9798 27.8599C21.7498 27.8599 20.4898 25.6999 18.3798 21.6599C17.4309 19.7071 16.3587 17.8166 15.1698 15.9999C14.4698 14.9199 14.3698 14.8299 14.0698 14.9399C13.7698 15.0499 13.7398 15.2899 14.0198 16.9399C14.4398 19.4799 15.3398 22.5799 17.9598 30.6699C19.0498 33.9999 18.9998 33.9999 19.2598 33.9999C19.5198 33.9999 22.2598 32.3999 25.7598 30.4299ZM38.2998 23.4299C38.7988 23.1576 39.2798 22.8536 39.7398 22.5199C39.9198 22.3799 39.8798 22.2199 39.1098 20.0699C38.2698 17.6899 38.1098 17.2899 37.9098 17.2299C37.7098 17.1699 36.9098 17.5399 36.1498 18.1699C35.7817 18.467 35.3978 18.7441 34.9998 18.9999C34.8052 19.1113 34.6351 19.261 34.4998 19.4399C34.9637 20.085 35.4645 20.7028 35.9998 21.2899C36.8498 22.2899 37.6298 23.1599 37.7298 23.2899C37.8298 23.4199 37.9398 23.5799 38.2998 23.3899V23.4299ZM34.5998 17.6999C36.0772 16.9913 37.4284 16.0454 38.5998 14.8999C39.7498 13.8999 39.7798 13.8999 40.5998 13.1699C42.9298 11.1699 43.0298 11.0099 43.0298 10.3599C43.0298 9.9599 42.8698 9.6599 42.6598 9.6599C42.4274 9.74724 42.2059 9.86134 41.9998 9.9999C41.1098 10.5099 38.1698 12.0999 37.3398 12.5199C36.6698 12.8499 32.0698 14.7199 31.3398 14.9599C31.0898 15.0399 31.0298 15.0999 31.0698 15.2199C31.7819 16.2791 32.5742 17.2821 33.4398 18.2199C33.4398 18.2199 33.9998 17.9999 34.5998 17.6999Z" fill="black"/>
<path d="M39.6599 94.0002L39.3999 93.7002L39.6999 93.9602C39.9699 94.2102 40.0299 94.2902 39.9599 94.2902C39.8899 94.2902 39.8199 94.1502 39.6599 94.0002ZM61.6199 109.55C61.298 109.171 61.0962 108.704 61.0399 108.21C61.0569 107.3 61.2085 106.396 61.4899 105.53C61.7497 105.015 62.1617 104.593 62.6699 104.32C63.5965 103.906 64.5566 103.572 65.5399 103.32C66.7149 103.042 67.926 102.948 69.1299 103.04C69.6782 103.117 70.2037 103.31 70.6711 103.607C71.1385 103.903 71.537 104.297 71.8399 104.76C72.0099 105.04 72.0099 105.04 71.7799 105.14C71.5499 105.24 71.4599 105.21 70.9399 104.96C70.1381 104.62 69.2805 104.43 68.4099 104.4L67.4099 104.31L66.0899 104.8C65.178 105.098 64.3051 105.504 63.4899 106.01C63.0141 106.515 62.6706 107.13 62.4899 107.8C62.0499 109.47 61.9099 109.73 61.5799 109.54L61.6199 109.55ZM65.6999 101.81C65.4438 101.727 65.1987 101.612 64.9699 101.47C64.5239 101.09 63.9557 100.884 63.3699 100.89C62.8374 100.87 62.3101 101.001 61.8499 101.27C61.3545 101.523 60.826 101.705 60.2799 101.81C59.5844 101.916 58.8742 101.767 58.2799 101.39C58.1399 101.25 58.0499 101.11 58.0799 101.07C58.2641 100.882 58.465 100.712 58.6799 100.56L59.2399 100.13H60.0499C60.6355 100.177 61.2192 100.018 61.6999 99.6802C62.1309 99.3659 62.6573 99.2104 63.1899 99.2402C64.005 99.2726 64.7933 99.54 65.4599 100.01C66.4599 100.65 66.9399 100.65 67.6999 100.07C67.8941 99.913 68.1244 99.8065 68.3699 99.7602C71.0099 99.4802 71.9299 99.3102 72.5599 99.0002C72.6937 98.9267 72.8344 98.8664 72.9799 98.8202C73.1599 98.8202 73.7099 99.7602 73.7099 100.06C73.7099 100.36 73.7099 100.38 73.3299 100.55C73.131 100.671 72.9027 100.735 72.6699 100.735C72.4371 100.735 72.2088 100.671 72.0099 100.55C71.8299 100.39 71.7599 100.38 71.1799 100.48C70.054 100.721 68.9501 101.056 67.8799 101.48C67.5514 101.665 67.189 101.781 66.8144 101.823C66.4398 101.864 66.0607 101.829 65.6999 101.72V101.81Z" fill="black"/>
<path d="M66.0697 99.5597C65.2873 99.2653 64.5971 98.7684 64.0697 98.1197C63.1297 97.1197 62.8297 96.9897 62.0697 96.8897C61.8097 96.8897 61.6097 96.7797 61.6097 96.7197C61.8364 96.2139 62.1789 95.7685 62.6097 95.4197C62.8752 95.1967 63.0958 94.9252 63.2597 94.6197C63.4697 94.2297 63.4897 94.0897 63.4797 93.1097C63.5036 91.8525 63.2367 90.6067 62.6997 89.4697C62.5784 89.0982 62.3543 88.7686 62.0535 88.519C61.7526 88.2695 61.3873 88.1103 60.9997 88.0597L57.9997 87.6097C56.5897 87.3897 54.9997 87.1697 54.4897 87.0997C52.8046 86.972 51.1105 87.0357 49.4397 87.2897L48.4397 87.4697C48.1397 87.4697 49.5897 85.9497 50.6497 85.1497L51.1597 84.7597L52.6297 84.8597C55.0197 85.0197 57.2197 85.2497 59.9997 85.6297C60.7205 85.7479 61.4493 85.8114 62.1797 85.8197C63.0497 85.7097 63.6297 85.2397 64.4897 83.8897C65.3497 82.5397 65.4297 82.5297 65.7797 82.8897C65.9497 83.0597 65.9697 83.1497 65.9297 83.5497C65.8556 84.2441 65.6628 84.9206 65.3597 85.5497C65.0757 86.1184 64.6652 86.6144 64.1597 86.9997L63.3497 87.7997L63.6197 88.1397C64.0473 88.6859 64.3849 89.2969 64.6197 89.9497C65.221 91.4693 65.3534 93.1342 64.9997 94.7297C64.5797 95.8997 64.5297 95.7297 65.4397 96.5997C65.9997 97.1597 66.2997 97.3897 66.4397 97.3897C66.5797 97.3897 67.1197 97.0797 67.8797 96.1697C69.0697 94.7297 69.8797 94.1697 70.5997 94.1697C70.7241 94.1642 70.8481 94.1885 70.9612 94.2407C71.0742 94.2929 71.1732 94.3714 71.2497 94.4697C71.6297 94.8497 71.5797 94.9897 71.0397 95.1997C70.4997 95.4097 70.0397 95.8297 69.1797 97.2797C68.7297 97.9697 68.2597 98.6897 68.1097 98.8697C67.865 99.1494 67.5526 99.3616 67.2024 99.4859C66.8522 99.6102 66.476 99.6425 66.1097 99.5797L66.0697 99.5597ZM43.7197 92.6297C43.6017 92.4585 43.498 92.2779 43.4097 92.0897C43.1593 91.5574 42.7413 91.1218 42.2197 90.8497C41.6359 90.5409 41.1585 90.0635 40.8497 89.4797C40.6425 89.1334 40.5449 88.7325 40.5697 88.3297C40.5697 87.6297 40.6997 87.3297 41.1197 87.1097C41.3497 86.9897 41.3697 86.9997 41.6197 87.2897C41.9634 87.6731 42.1952 88.1435 42.2897 88.6497C42.4251 89.323 42.7762 89.9338 43.2897 90.3897C43.5302 90.5985 43.7174 90.8616 43.8357 91.1573C43.9539 91.453 43.9999 91.7727 43.9697 92.0897C43.9697 92.5897 43.8997 92.7497 43.7297 92.6297H43.7197ZM78.9297 91.9997C78.1634 91.9617 77.4196 91.7276 76.7697 91.3197C76.4289 91.1653 76.0631 91.0738 75.6897 91.0497C75.1539 91.0107 74.634 90.85 74.1697 90.5797C73.3397 90.1597 73.0797 89.8597 73.0797 89.3397C73.0687 89.1241 73.0386 88.91 72.9897 88.6997C72.8897 88.3397 72.7997 88.2897 71.8597 88.0297C71.0574 87.8006 70.3251 87.3743 69.7297 86.7897C69.2687 86.3169 68.9177 85.7483 68.7016 85.1243C68.4856 84.5003 68.4098 83.8363 68.4797 83.1797C68.4797 82.2497 68.5897 82.1197 69.0297 82.5397C69.4177 82.9238 69.6643 83.4277 69.7297 83.9697C70.1897 85.6297 70.5497 85.8597 73.5797 86.3097L75.0197 86.4997C75.3197 86.4997 75.6897 86.5697 75.8297 86.5897C77.4948 86.6934 79.1647 86.6934 80.8297 86.5897L82.4097 86.4497C82.4897 86.4497 82.8197 86.3897 83.1497 86.3597C83.6997 86.2897 83.7597 86.3597 83.9397 86.4997L84.1397 86.7197L83.6597 86.9297C82.1919 87.4981 80.6928 87.9822 79.1697 88.3797C78.0193 88.6826 76.8141 88.7134 75.6497 88.4697C74.2697 88.2197 74.1697 88.2597 74.4897 88.8497C74.9169 89.433 75.5143 89.8697 76.1997 90.0997C76.756 90.2868 77.3476 90.345 77.9297 90.2697C79.2835 90.2832 80.6317 90.0944 81.9297 89.7097L83.3697 88.9997C83.8079 88.7365 84.2785 88.5314 84.7697 88.3897C85.0097 88.3897 84.9697 88.4497 84.1197 89.2797C83.1453 90.2283 82.1025 91.104 80.9997 91.8997C80.5497 92.1997 80.4897 92.1997 78.9097 92.0297L78.9297 91.9997Z" fill="black"/>
<path d="M54.3998 91.6702C54.1135 91.5863 53.8407 91.4617 53.5898 91.3002C52.1498 90.3002 51.8298 90.2202 50.3398 90.5802C50.1498 90.6402 50.0298 90.5802 49.7598 90.3302C49.4898 90.0802 49.4098 90.0202 49.5798 89.8302C49.8549 89.6374 50.1586 89.4889 50.4798 89.3902C51.5127 89.0959 52.6034 89.0684 53.6498 89.3102C55.1372 89.5462 56.6524 89.5462 58.1398 89.3102C58.8298 89.2002 59.5198 89.1202 59.6598 89.1202C60.2979 89.1412 60.919 89.331 61.4598 89.6702C61.8398 90.0302 61.7398 90.1602 60.9698 90.2302C60.6098 90.2302 60.2198 90.3102 60.0998 90.3302L59.0998 90.4602C58.5137 90.4942 57.9505 90.6993 57.4798 91.0502C57.0465 91.3758 56.5468 91.602 56.0162 91.7126C55.4856 91.8232 54.9371 91.8156 54.4098 91.6902L54.3998 91.6702ZM18.1098 56.2002C17.6593 55.884 17.3116 55.4424 17.1098 54.9302C16.9724 54.475 16.9546 53.9921 17.0579 53.528C17.1612 53.0639 17.3823 52.6342 17.6998 52.2802C18.0525 52.0412 18.4688 51.9134 18.8948 51.9134C19.3209 51.9134 19.7371 52.0412 20.0898 52.2802C20.439 52.7242 20.6665 53.2515 20.7498 53.8102C20.8007 54.2463 20.735 54.688 20.5593 55.0904C20.3836 55.4927 20.1043 55.8412 19.7498 56.1002C19.4994 56.2485 19.2173 56.3349 18.9269 56.3522C18.6365 56.3696 18.3461 56.3175 18.0798 56.2002H18.1098ZM111 46.6202C110.803 46.4617 110.642 46.2628 110.528 46.0368C110.414 45.8108 110.35 45.5631 110.34 45.3102C110.379 44.9019 110.561 44.5205 110.853 44.2333C111.146 43.946 111.531 43.7714 111.94 43.7402C112.316 43.7607 112.671 43.9171 112.94 44.1802C113.165 44.6139 113.235 45.1112 113.14 45.5902C112.987 46.0478 112.675 46.4349 112.26 46.6802C112.051 46.7673 111.825 46.807 111.598 46.7966C111.372 46.7863 111.15 46.726 110.95 46.6202H111Z" fill="black"/>
</svg>
