<svg width="128" height="128" viewBox="0 0 128 128" fill="none" xmlns="http://www.w3.org/2000/svg">
<path d="M45.7001 127.39C45.6113 127.314 45.5389 127.221 45.4873 127.116C45.4357 127.011 45.4061 126.897 45.4001 126.78C45.3401 126.29 45.4801 126.03 46.2501 125.12C47.7022 123.329 49.0159 121.431 50.1801 119.44C51.5701 117.27 52.3101 116.5 53.0101 116.5C53.4201 116.5 53.6901 116.76 53.8301 117.26C53.919 118.481 53.8822 119.707 53.7201 120.92C53.6301 121.55 53.6301 121.79 53.7201 121.85C53.8101 121.91 54.0601 121.63 54.6101 120.96C58.1501 116.55 58.7601 116.02 59.6801 116.58C60.3401 116.98 60.3801 118.1 59.8601 120.74C59.659 121.542 59.5549 122.364 59.5501 123.19C59.5501 123.89 59.5501 123.92 59.9001 124.3C60.0404 124.429 60.1484 124.588 60.2156 124.766C60.2827 124.944 60.3071 125.135 60.2866 125.324C60.2662 125.512 60.2015 125.694 60.0979 125.853C59.9942 126.012 59.8546 126.145 59.6901 126.24C59.4013 126.442 59.0642 126.565 58.713 126.594C58.3618 126.624 58.0089 126.561 57.6901 126.41C57.1401 126.06 57.0501 125.35 57.1901 122.56C57.2451 122.038 57.2451 121.512 57.1901 120.99C56.7513 121.401 56.3528 121.853 56.0001 122.34C55.0592 123.68 53.9077 124.859 52.5901 125.83C51.9701 126.13 51.5101 126.09 51.1801 125.71C50.8501 125.33 50.6901 124.6 50.8601 123.07C50.8909 122.815 50.9076 122.558 50.9101 122.3C50.9101 122.3 50.4101 122.94 49.8101 123.76C47.7301 126.62 47.1101 127.42 46.8901 127.52C46.6926 127.612 46.4738 127.649 46.2571 127.626C46.0404 127.603 45.834 127.522 45.6601 127.39H45.7001ZM39.7501 126.77C39.2013 126.559 38.7589 126.138 38.5201 125.6C38.3537 125.17 38.2722 124.712 38.2801 124.25C38.2084 122.977 38.4125 121.703 38.8785 120.515C39.3445 119.328 40.0614 118.255 40.9801 117.37C41.3775 116.879 41.8881 116.492 42.468 116.241C43.048 115.99 43.68 115.883 44.3101 115.93H45.0701L45.2101 115.68C45.4101 115.32 45.6901 115.25 46.2101 115.43C46.6787 115.701 47.082 116.072 47.3913 116.516C47.7007 116.96 47.9085 117.467 48.0001 118C47.9888 120.018 47.3337 121.98 46.1301 123.6C44.4501 125.82 41.5501 127.27 39.7401 126.78L39.7501 126.77ZM42.7501 124.33C43.4794 123.874 44.106 123.271 44.5901 122.56C45.2354 121.543 45.5819 120.365 45.5901 119.16C45.4601 118.44 44.7201 118.03 43.7301 118.16C42.7401 118.29 41.9801 118.94 41.2801 120.35C40.6701 121.58 40.2801 123.61 40.5501 124.14C40.8201 124.67 41.8301 124.82 42.7201 124.38L42.7501 124.33Z" fill="black"/>
<path d="M70.7701 126.8C69.4368 126.453 68.9168 125.147 69.2101 122.88C69.3075 121.866 69.5923 120.88 70.0501 119.97C70.7486 118.284 72.0397 116.911 73.6801 116.11C74.0101 116.01 79.4201 112.83 79.6801 112.58C78.7612 112.116 77.8085 111.721 76.8301 111.4C75.4241 112.421 74.1152 113.569 72.9201 114.83C71.9201 115.77 70.9201 116.83 70.5301 117.07C69.8801 117.59 69.7901 117.75 69.7901 118.35C69.5592 119.432 68.9175 120.382 68.0001 121C67.0932 121.677 66.0791 122.198 65.0001 122.54C64.2201 122.86 63.5301 123.15 63.4801 123.2C63.3496 123.583 63.2591 123.979 63.2101 124.38C63.174 124.872 63.0379 125.352 62.8101 125.79C62.5906 126.101 62.257 126.312 61.8823 126.378C61.5076 126.443 61.1221 126.358 60.8101 126.14C60.3901 125.74 60.4001 125.53 60.9801 123.7C61.9201 120.7 62.4201 119.21 62.9201 117.92C63.4201 116.63 63.4501 116.62 63.7501 116.42C64.0501 116.22 64.0501 116.18 64.0201 116.14C63.8101 115.95 60.5601 115.22 54.0801 113.93C46.7001 112.45 45.4301 112.24 43.3301 112.13C42.3301 112.08 41.3901 112.02 41.3301 111.99C41.2701 111.96 38.2801 111.91 34.7201 111.87C31.1601 111.83 28.1301 111.77 27.9901 111.73C27.8501 111.69 27.7401 111.61 27.7101 111.37V111.08L30.5801 110.76L34.4101 110.35C35.0701 110.28 36.8201 110.25 39.9301 110.25C41.9954 110.174 44.0635 110.237 46.1201 110.44L49.5501 110.8C50.2011 110.846 50.8489 110.929 51.4901 111.05C51.7101 111.16 51.7101 111.15 51.6401 110.82C51.5951 110.642 51.5017 110.479 51.3701 110.35C50.779 109.976 50.1352 109.693 49.4601 109.51C43.4601 107.74 36.7701 105.96 34.4601 105.51C33.253 105.297 32.0341 105.156 30.8101 105.09C30.7601 105.15 30.6201 105.03 33.0001 106.92C33.6974 107.485 34.365 108.086 35.0001 108.72C35.0001 109.06 34.0001 108.72 32.3201 107.72C30.9092 106.884 29.4424 106.145 27.9301 105.51C27.5491 105.373 27.1782 105.209 26.8201 105.02C26.7623 104.909 26.7321 104.785 26.7321 104.66C26.7321 104.535 26.7623 104.411 26.8201 104.3C26.9901 104.04 34.6501 104.46 37.0301 104.88C37.5201 104.96 38.6601 105.17 39.5701 105.35C41.3901 105.69 41.3801 105.69 41.3801 105.16C41.3801 104.82 41.2101 104.61 40.3001 103.89C40.0189 103.696 39.7693 103.46 39.5601 103.19C39.6215 102.874 39.7258 102.568 39.8701 102.28C40.0046 102.002 40.1182 101.715 40.2101 101.42C40.2101 101.23 39.8201 100.93 34.7701 97.2201C32.0001 95.1901 29.0001 93.0001 28.1501 92.3201L26.0001 90.7101C25.7656 90.5608 25.5563 90.3752 25.3801 90.1601C25.3176 89.9041 25.2775 89.6431 25.2601 89.3801C25.2674 89.0768 25.1978 88.7766 25.058 88.5073C24.9181 88.2381 24.7125 88.0086 24.4601 87.8401C24.3213 87.7506 24.1695 87.6832 24.0101 87.6401C23.0749 87.3602 22.1567 87.0263 21.2601 86.6401C21.1601 86.5401 21.1401 86.1801 21.1901 84.0201C21.2401 82.2201 21.1901 80.6601 21.1301 78.5401C21.0001 75.7401 20.8901 71.9701 20.7701 66.0701C20.7201 63.7301 20.7201 63.4701 20.8701 63.0701C20.9472 62.8661 20.978 62.6475 20.9601 62.4301C20.7408 62.019 20.4866 61.6276 20.2001 61.2601C19.5701 60.4201 19.4901 60.2601 19.4901 59.9501C19.4901 59.6401 19.6401 58.7701 19.8201 57.7501C20.1601 55.9401 20.1601 55.7501 19.9001 55.7501C19.6401 55.7501 16.5201 55.2401 16.4601 55.1901C16.4001 55.1401 16.4601 53.8301 16.6701 52.0201C16.8801 50.2101 17.0701 47.7701 17.1901 46.3601C17.2483 45.4474 17.3618 44.5391 17.5301 43.6401C17.6301 43.5101 17.8501 43.5501 20.2401 44.1501C21.1213 44.3986 22.0161 44.5956 22.9201 44.7401C23.0485 44.3825 23.1455 44.0145 23.2101 43.6401C23.3934 42.7065 23.644 41.7875 23.9601 40.8901C24.0287 40.7346 24.0726 40.5692 24.0901 40.4001C23.8048 39.5386 23.4709 38.6939 23.0901 37.8701C22.5301 36.6001 22.0901 35.4701 22.0101 35.3701C21.9001 35.1201 21.7601 35.1301 21.3701 35.4301C20.9801 35.7301 20.7401 35.7401 20.5901 35.5601C20.4836 35.3812 20.3996 35.1897 20.3401 34.9901C20.2458 34.714 20.1356 34.4436 20.0101 34.1801C19.8959 33.9795 19.8405 33.7508 19.8501 33.5201C19.8501 33.2301 19.9101 33.1801 20.4001 32.9301C20.7101 32.7701 20.9201 32.6001 20.9201 32.5201C20.9201 32.4401 20.5801 31.3701 20.1701 30.1201C18.5684 25.4241 17.2132 20.6476 16.1101 15.8101C15.8231 14.7546 15.7651 13.6499 15.9401 12.5701C15.9966 12.3274 16.0736 12.0899 16.1701 11.8601C16.3001 11.6901 17.2201 11.7301 17.6101 11.9101C18.3701 12.2501 18.7301 12.7601 21.1601 17.0201C22.2301 18.8901 23.1601 20.4401 23.1601 20.4801C24.0793 19.327 24.8958 18.0957 25.6001 16.8001C26.6877 15.0523 27.9257 13.4027 29.3001 11.8701C29.5243 11.7403 29.7672 11.6459 30.0201 11.5901C30.4601 11.4901 30.4701 11.4901 31.0201 11.8101C31.3486 12.0224 31.6626 12.2562 31.9601 12.5101L32.3801 12.8701L32.8001 12.7701C33.7301 12.5401 37.6001 11.2401 38.9801 10.6801C40.6869 10 42.3559 9.22891 43.9801 8.37012C45.7201 7.50012 46.1801 7.44012 46.5201 8.08012C46.6193 8.43385 46.6403 8.80494 46.5816 9.16759C46.5229 9.53024 46.3859 9.87576 46.1801 10.1801C44.8688 11.6106 43.4587 12.9472 41.9601 14.1801C41.1401 14.8701 41.0501 14.9701 41.0401 15.1801C41.0301 15.3901 41.8801 18.1801 42.1601 18.9401C42.2701 19.2301 42.4401 19.6301 42.5401 19.8201L42.7201 20.1701L42.9601 20.0501C43.1001 19.9701 46.2601 18.0501 49.9601 15.7001C60.1501 9.39012 61.8801 8.33012 62.0001 8.33012C62.3704 8.59575 62.6805 8.9365 62.9101 9.33012C62.9101 9.33012 62.8401 9.45012 62.7601 9.53012C62.6801 9.61012 56.9201 13.3701 52.7601 16.0601C51.4601 16.9001 50.4001 17.6001 50.4001 17.6401C50.4001 17.6801 50.5601 17.7001 50.7801 17.7001C51.0855 17.7162 51.3831 17.8021 51.6501 17.9512C51.917 18.1003 52.1463 18.3086 52.3201 18.5601C52.5677 18.7781 52.7615 19.0504 52.8863 19.3558C53.0112 19.6611 53.0639 19.9911 53.0401 20.3201C52.9801 21.0101 52.7101 21.4301 51.8801 22.1701C50.3296 23.5948 48.9198 25.1654 47.6701 26.8601C46.6532 28.4509 45.7251 30.0967 44.8901 31.7901C43.0701 35.4501 42.4201 36.6201 41.9501 37.1301C40.9673 37.9818 39.8658 38.6858 38.6801 39.2201C38.2929 39.4081 37.9187 39.6219 37.5601 39.8601C37.4301 39.9801 37.3801 40.2101 37.3401 40.6801C37.2947 41.1772 37.0792 41.6434 36.7301 42.0001C36.1501 42.5901 36.0101 43.0001 35.1201 46.7301C34.9101 47.6501 34.9001 47.7301 35.0201 47.8201C35.1401 47.9101 36.5901 48.2701 38.3301 48.7101C40.0701 49.1501 41.5701 49.5201 41.6801 49.5701C41.7422 49.5957 41.7942 49.6407 41.8285 49.6984C41.8627 49.7561 41.8774 49.8234 41.8701 49.8901C41.8701 50.0101 41.6101 51.0701 41.2801 52.2301C40.7601 54.1001 40.5201 55.0901 39.9801 57.6001C39.7901 58.4901 39.7401 58.5101 38.5901 58.4001C38.2595 58.3483 37.9246 58.3282 37.5901 58.3401C37.5901 58.3401 37.6801 59.2401 37.8401 60.2801C38.0001 61.3201 38.1401 62.2001 38.1401 62.2801C38.1401 62.3601 38.3001 62.2801 38.8101 61.2101C39.6576 59.4281 40.6616 57.7247 41.8101 56.1201C43.718 53.7949 45.79 51.6093 48.0101 49.5801C49.6385 48.2934 51.4103 47.1995 53.2901 46.3201C53.5677 46.2337 53.8384 46.1268 54.1001 46.0001C54.7303 45.6275 55.4015 45.3289 56.1001 45.1101C58.3562 44.5556 60.6784 44.3167 63.0001 44.4001C65.5417 44.5841 67.9965 45.4023 70.1401 46.7801C71.6055 47.574 72.8392 48.7354 73.7201 50.1501C74.1101 50.7201 74.2401 50.7601 74.9501 50.5801C75.9282 50.3231 76.9401 50.2185 77.9501 50.2701C79.1332 50.3404 80.3059 50.5314 81.4501 50.8401C82.7719 51.4657 84.0366 52.2052 85.2301 53.0501C86.8952 54.6054 88.3842 56.3392 89.6701 58.2201C90.3756 59.2954 90.9592 60.4458 91.4101 61.6501L91.6601 62.3901L91.8201 61.9401C91.9101 61.7001 92.0501 61.2901 92.1301 61.0601L92.2701 60.6201L91.3501 59.0801C91.0025 58.5383 90.6918 57.9737 90.4201 57.3901C90.7474 56.6542 91.1602 55.9594 91.6501 55.3201C91.9801 54.8401 92.0901 54.6101 92.0601 54.4901C91.9501 54.0801 91.9001 54.0701 91.2301 54.3901C90.5601 54.7101 90.2301 54.7401 89.8901 54.1501C89.2101 53.0601 84.5601 44.5701 84.5601 44.4001C84.5643 44.3497 84.58 44.301 84.606 44.2577C84.632 44.2143 84.6676 44.1775 84.7101 44.1501C84.8401 44.0901 89.0501 42.7901 90.7101 42.3001C90.9486 42.2473 91.1735 42.1451 91.3701 42.0001C91.3786 41.8068 91.3515 41.6136 91.2901 41.4301C90.4301 38.4301 90.2101 37.7401 90.1301 37.6001C89.8695 37.3716 89.5719 37.189 89.2501 37.0601C88.3701 36.6401 88.0001 36.2601 87.9001 35.6601C87.8001 35.0601 87.6101 34.9801 86.5001 34.6601C84.8019 34.1968 83.1811 33.4859 81.6901 32.5501C80.6102 31.952 79.6035 31.2305 78.6901 30.4001C77.8601 29.6501 77.6901 29.5801 75.6901 28.7701C73.9886 28.0906 72.2529 27.4998 70.4901 27.0001C70.0247 26.8864 69.5671 26.7428 69.1201 26.5701C68.9341 26.4487 68.7937 26.2687 68.7213 26.0587C68.6489 25.8486 68.6485 25.6204 68.7201 25.4101C68.9501 24.2901 69.3101 23.7401 70.0101 23.4101C70.3601 23.2501 73.1601 22.6101 74.7401 22.3101C75.2301 22.2201 76.1201 22.1201 76.7401 22.0801C77.133 22.0687 77.5243 22.0253 77.9101 21.9501C77.8343 21.707 77.7267 21.475 77.5901 21.2601C76.9778 20.3574 76.2481 19.5402 75.4201 18.8301C73.5058 16.8228 71.4028 15.0045 69.1401 13.4001C68.6876 13.1013 68.2596 12.7669 67.8601 12.4001C67.6927 12.2224 67.5651 12.011 67.4857 11.7801C67.4063 11.5492 67.3769 11.304 67.3997 11.0609C67.4224 10.8178 67.4966 10.5823 67.6173 10.3701C67.7381 10.1579 67.9027 9.97379 68.1001 9.83012C68.3697 9.59127 68.6889 9.41533 69.0348 9.31502C69.3807 9.21471 69.7446 9.19254 70.1001 9.25012C71.2201 9.34012 71.5901 9.53012 74.8101 11.6601C76.4501 12.7501 77.8801 13.6601 77.9901 13.7401C78.1001 13.8201 76.5101 12.1701 74.4401 10.1201C70.2701 6.00012 70.3001 6.00012 70.1201 4.83012C70.0259 4.53379 70.0114 4.21787 70.0782 3.91417C70.1449 3.61046 70.2904 3.32969 70.5001 3.10012C70.6824 2.8906 70.9282 2.74658 71.2001 2.69012C71.6501 2.61012 71.7601 2.49012 71.8601 1.80012C71.9103 1.52024 72.0048 1.25017 72.1401 1.00012C72.2938 0.818687 72.4832 0.670882 72.6966 0.565928C72.9099 0.460974 73.1426 0.401125 73.3801 0.390117C74.4605 0.427461 75.5351 0.564713 76.5901 0.800117C77.0901 1.00012 79.4301 2.24012 81.1401 3.21012C84.0681 4.86332 86.8249 6.80281 89.3701 9.00012C89.6135 9.25903 89.893 9.48134 90.2001 9.66012C89.6801 8.31012 88.6101 5.75012 88.0601 4.52012C87.3701 3.00012 87.3401 2.90012 87.3401 2.34012C87.3308 2.02605 87.3905 1.71377 87.5149 1.42524C87.6393 1.13672 87.8254 0.878959 88.0601 0.670117L88.4001 0.370117H89.0901C90.3701 0.440117 91.3301 1.11012 92.3401 2.66012C93.6201 4.60012 96.0701 8.91012 97.0001 10.8501C98.9153 15.0291 100.051 19.5229 100.35 24.1101C100.588 25.3253 100.588 26.575 100.35 27.7901C100.05 28.5901 100.06 28.6101 102.06 34.1901C102.53 35.6391 103.139 37.0391 103.88 38.3701C103.95 38.3701 105.72 37.8801 107.82 37.2301C109.92 36.5801 111.82 36.0301 111.96 36.0101H112.27V36.4501C112.27 36.7001 112.1 39.0601 111.9 41.7001C111.56 46.1201 111.52 46.5201 111.36 46.7001C110.887 46.9668 110.388 47.1846 109.87 47.3501C109.421 47.4987 108.98 47.6723 108.55 47.8701C108.55 47.8701 108.97 48.4001 109.48 48.9901C110.238 49.779 110.909 50.6474 111.48 51.5801C111.55 51.8401 111.48 52.0801 111.09 52.4901C110.7 52.9001 110.82 52.8201 110.92 53.0601C111.411 54.1867 111.534 55.4397 111.27 56.6401C111.147 57.1055 111.147 57.5948 111.27 58.0601C111.368 58.4698 111.488 58.8738 111.63 59.2701C111.777 59.6422 111.849 60.04 111.84 60.4401C111.62 62.258 111.096 64.0259 110.29 65.6701C108.92 68.7801 108.57 69.6001 107.68 71.8801C106.775 74.0024 106.141 76.2298 105.79 78.5101C105.6 79.5701 105.28 81.1301 105.08 81.9801C104.834 82.9676 104.65 83.9695 104.53 84.9801C104.18 88.0901 104.16 88.2001 102.68 91.5201C101.933 92.908 101.586 94.4766 101.68 96.0501C101.68 97.2601 101.68 97.4901 101.75 97.4901C101.82 97.4901 102.83 97.2801 104 97.0401C105.88 96.6401 106.15 96.6001 106.26 96.7101C106.37 96.8201 106.36 96.8501 106.18 96.9701C104.707 98.0168 103.364 99.2354 102.18 100.6C101.618 101.257 100.999 101.863 100.33 102.41H100.14C100.61 101.305 101.189 100.249 101.87 99.2601C102.03 99.0301 102.13 98.8601 102.1 98.8601C102.07 98.8601 100.53 99.4701 97.5901 100.74C96.0801 101.4 94.0001 102.29 92.9901 102.74C90.7201 103.74 83.5501 107.25 83.2301 107.58C83.2495 108.5 83.323 109.419 83.4501 110.33C83.9562 110.114 84.4503 109.87 84.9301 109.6C86.7601 108.66 89.4301 107.4 92.3701 106.08C94.7864 104.937 97.2673 103.935 99.8001 103.08L103.06 101.95C104.031 101.594 105.037 101.339 106.06 101.19C106.87 101.05 107.06 101.04 107.21 101.12C107.36 101.2 107.43 101.36 107.21 101.3C106.99 101.24 106.86 101.38 106.52 101.62C106.068 101.988 105.57 102.297 105.04 102.54C104.9 102.54 104.78 102.66 104.78 102.7C104.521 102.965 104.236 103.202 103.93 103.41C103.45 103.76 102.93 104.14 102.83 104.25C102.73 104.36 102.44 104.5 102.44 104.36C102.44 104.22 102.44 104.3 102.36 104.36C102.351 104.369 102.344 104.379 102.34 104.39C102.335 104.401 102.332 104.413 102.332 104.425C102.332 104.437 102.335 104.449 102.34 104.46C102.344 104.472 102.351 104.482 102.36 104.49C102.36 104.49 102.16 104.82 101.84 105.12C101.52 105.42 101.34 105.65 101.43 105.62C103.401 105.179 105.411 104.941 107.43 104.91C107.67 104.99 107.55 105.04 105.76 105.49C93.7601 108.56 84.0701 111.95 78.4701 115.11L77.5701 115.62L78.0701 116.2C78.3216 116.482 78.5459 116.786 78.7401 117.11C79.4001 118.41 78.6301 121.53 77.1501 123.49C76.4157 124.404 75.5456 125.2 74.5701 125.85C73.463 126.568 72.1577 126.918 70.8401 126.85L70.7701 126.8ZM73.2801 124.57C74.0056 124.354 74.6476 123.921 75.1201 123.33C76.2801 122.09 77.1201 119.69 76.6501 118.77C76.3501 118.16 74.8701 117.91 74.0301 118.35C72.8801 118.93 71.6701 121.46 71.6201 123.35C71.6201 123.92 71.6201 124.01 71.8101 124.21C72.0354 124.447 72.329 124.608 72.6501 124.67C72.8622 124.651 73.0727 124.618 73.2801 124.57ZM64.7601 120.82C66.2901 120.18 67.5501 119.08 67.5501 118.38C67.5501 117.68 66.0601 117.28 65.3801 118.01C64.9104 118.681 64.5524 119.424 64.3201 120.21C64.1601 120.67 64.0301 121.06 64.0301 121.07C64.0301 121.08 64.1101 121.07 64.7601 120.82ZM70.4801 114.52C71.3201 113.76 72.8701 112.52 74.3501 111.32C74.6685 111.116 74.9493 110.859 75.1801 110.56C74.7509 110.346 74.3102 110.156 73.8601 109.99L71.6901 109.1L70.7801 108.72L70.3001 108.89C69.8567 109.057 69.3768 109.102 68.9101 109.02L67.6601 108.92C67.3801 108.92 67.1501 108.92 66.2401 109.33C65.6501 109.57 64.2401 110.13 63.0101 110.56C61.7801 110.99 60.8501 111.36 60.8501 111.39C61.205 111.546 61.5731 111.67 61.9501 111.76C64.3782 112.594 66.722 113.655 68.9501 114.93C69.1436 115.064 69.356 115.168 69.5801 115.24C69.9233 115.051 70.2339 114.808 70.5001 114.52H70.4801ZM62.9401 114C62.9401 113.93 62.9401 113.88 62.8601 113.88C62.7801 113.88 62.7801 113.88 62.7801 114C62.7801 114.12 62.7801 114.13 62.8601 114.13C62.9401 114.13 62.9401 114.1 62.9401 114ZM61.3501 113.25C60.7801 112.96 60.0901 112.64 59.8201 112.53C59.3601 112.35 59.3301 112.35 58.9801 112.53C58.2101 112.82 58.2701 112.85 60.2801 113.35C61.2801 113.61 62.2101 113.82 62.2801 113.82C61.9993 113.602 61.6897 113.424 61.3601 113.29L61.3501 113.25ZM56.1701 112.62C56.3375 112.357 56.555 112.129 56.8101 111.95C57.7538 111.249 58.7577 110.634 59.8101 110.11C60.1501 109.96 60.9401 109.58 61.5601 109.27C62.6521 108.711 63.8069 108.285 65.0001 108C65.4401 107.9 65.8501 107.8 65.9201 107.77C66.1701 107.69 65.4401 107.58 64.2501 107.53C63.3676 107.481 62.4825 107.528 61.6101 107.67C60.8303 107.797 60.0395 107.844 59.2501 107.81C58.2501 107.81 57.9701 107.68 58.0101 107.45C58.0501 107.22 58.2501 107.24 59.0101 107.07C60.3726 106.701 61.7644 106.45 63.1701 106.32C63.8201 106.32 63.8801 105.92 63.2401 105.91C62.2658 105.556 61.3361 105.09 60.4701 104.52C59.4732 103.829 58.629 102.941 57.9901 101.91C57.5347 101.113 56.9876 100.371 56.3601 99.7001C56.2801 99.7001 56.2101 99.7701 56.1101 100.12C56.0101 100.47 55.8001 101.05 55.5901 101.61C55.3429 102.119 55.2098 102.675 55.2001 103.24C55.1809 103.583 55.2426 103.925 55.3801 104.24C55.7201 104.99 55.6901 105.08 54.6001 106.32L53.6001 107.42L53.6501 108.03C53.6377 108.247 53.6694 108.465 53.7433 108.669C53.8172 108.874 53.9318 109.061 54.0801 109.22C54.1901 109.31 54.2101 109.57 54.2101 110.85C54.2101 112.59 54.2101 112.66 54.8601 112.85C55.8001 113.15 55.9401 113.13 56.2201 112.65L56.1701 112.62ZM81.3101 110.7C81.7847 110.452 82.1437 110.029 82.3101 109.52C82.3767 109.3 82.3951 109.068 82.364 108.84C82.333 108.613 82.2532 108.394 82.1301 108.2C81.8857 107.743 81.8283 107.209 81.9701 106.71C82.065 106.406 82.1959 106.114 82.3601 105.84C82.4808 105.667 82.5783 105.479 82.6501 105.28C82.6501 105.13 80.8101 100.63 80.7101 100.53C80.6101 100.43 80.4001 100.67 79.7101 101.6C79.0318 102.517 78.2574 103.358 77.4001 104.11C76.8867 104.447 76.3523 104.751 75.8001 105.02C75.1416 105.276 74.517 105.612 73.9401 106.02C74.21 106.076 74.4846 106.106 74.7601 106.11C76.3793 106.194 77.9754 106.532 79.4901 107.11C80.2701 107.43 80.4901 107.62 80.6101 108C80.7301 108.38 80.7201 109 80.6101 109C80.5001 109 79.8801 108.79 79.1201 108.54C78.3601 108.29 76.6601 107.82 75.3601 107.54C72.3601 106.81 72.4201 106.81 72.2801 106.98C72.1996 107.077 72.1555 107.199 72.1555 107.325C72.1555 107.451 72.1996 107.573 72.2801 107.67C72.3801 107.74 73.6101 108.16 75.0401 108.67C76.7266 109.144 78.3512 109.815 79.8801 110.67C80.1127 110.821 80.3652 110.939 80.6301 111.02C80.8442 110.976 81.0478 110.891 81.2301 110.77L81.3101 110.7ZM51.8801 107.59C52.1401 106.67 52.1401 106.68 52.6201 106.37C53.6201 105.7 53.7901 105.53 53.8801 104.89C53.86 104.033 53.7255 103.182 53.4801 102.36C53.2101 101.46 53.3201 101 54.0701 99.7501C54.8201 98.5001 54.8801 98.2001 54.6701 97.8101C54.2871 97.3239 53.8693 96.866 53.4201 96.4401C52.8332 95.7474 52.1076 95.1853 51.2901 94.7901C49.8401 94.0201 49.8201 94.0201 49.7501 94.1901C49.5889 94.4699 49.412 94.7404 49.2201 95.0001C49.0351 95.2237 48.8835 95.473 48.7701 95.7401C48.7701 95.7401 48.7701 95.8401 48.6401 95.8901C48.5101 95.9401 48.4901 96.0101 48.5101 96.0701C48.5301 96.1301 48.5101 96.1401 48.5101 96.1401C48.5101 96.1401 48.4101 96.2101 48.3801 96.2901C48.3293 96.4006 48.2406 96.4893 48.1301 96.5401C47.9874 96.627 47.8755 96.7564 47.8101 96.9101C47.18 97.7745 46.4592 98.569 45.6601 99.2801C45.5001 99.2801 45.5201 98.9101 45.6601 97.8601C45.7301 97.4501 45.8301 96.8601 45.8801 96.6201C45.9301 96.3801 45.9901 95.4301 46.0401 94.5601C46.1558 93.0312 46.0378 91.4935 45.6901 90.0001L45.5001 89.3801L44.2501 88.7601C43.805 88.5566 43.3711 88.3297 42.9501 88.0801C42.8013 87.9502 42.6443 87.8299 42.4801 87.7201C42.0579 87.3785 41.6603 87.0075 41.2901 86.6101C40.7801 86.0801 40.5201 85.8601 40.5201 85.9701C40.5265 86.0667 40.5652 86.1583 40.6301 86.2301C40.6301 86.2901 40.6901 86.3201 40.6301 86.2901C40.5701 86.2601 40.6301 87.1901 40.8201 87.7001C40.9143 87.9721 41.093 88.2069 41.3301 88.3701C41.7301 88.6601 41.7701 88.8001 41.4801 88.9301C40.8401 89.2101 38.9701 87.7101 37.7801 85.9301C37.1619 85.1398 36.8116 84.173 36.7801 83.1701C36.5601 81.8201 36.5501 81.7301 36.4901 81.1701C36.4901 80.9201 36.4201 80.6501 36.4001 80.5801C36.189 79.1244 36.189 77.6458 36.4001 76.1901L36.4601 75.8501L36.1401 76.1501C35.4983 76.8945 34.9384 77.7059 34.4701 78.5701C34.2401 78.9701 33.9601 79.4301 33.8301 79.6301C33.5015 80.1224 33.2074 80.637 32.9501 81.1701C32.5525 82.0892 32.0948 82.9811 31.5801 83.8401C31.4801 83.8401 31.4801 83.8401 31.5801 82.0401C31.7201 79.6301 31.7201 79.6301 32.0801 78.7201C32.2601 78.2401 32.4501 77.7201 32.5001 77.4501C32.5503 77.2295 32.624 77.0149 32.7201 76.8101C32.8092 76.6183 32.8762 76.417 32.9201 76.2101C33.2014 75.2515 33.5627 74.3183 34.0001 73.4201C34.3601 72.6501 34.8801 71.5101 35.2401 70.7001C35.7317 69.4448 36.4056 68.2689 37.2401 67.2101C37.4201 66.9801 37.4201 66.9401 37.3301 66.2901C37.2467 65.4509 37.103 64.6187 36.9001 63.8001C36.8572 63.6778 36.8336 63.5496 36.8301 63.4201C36.8301 63.2401 36.7201 62.5601 36.6101 61.9101C36.5001 61.2601 36.2901 60.1401 36.1701 59.4001C36.0927 58.9225 35.9688 58.4536 35.8001 58.0001C35.5906 57.8866 35.3582 57.8217 35.1201 57.8101L34.2901 57.7001C34.1601 57.7001 33.8601 57.6301 33.6201 57.6001C33.4611 57.5841 33.3038 57.554 33.1501 57.5101C33.1501 57.5101 32.6501 57.4201 31.3601 57.2601C31.0233 57.2432 30.6886 57.1963 30.3601 57.1201C30.1819 57.0803 30.0016 57.0502 29.8201 57.0301C28.7101 56.8901 27.3401 56.7101 27.0601 56.6401C26.7801 56.5701 26.4601 56.5501 26.1401 56.5201L25.3401 56.4201L24.7601 56.3401L24.1701 56.2601C23.8801 56.2601 22.9201 56.1101 22.6701 56.1101C22.4201 56.1101 22.4401 56.1101 22.3201 56.5601C22.2501 56.8101 22.0801 57.5001 21.9501 58.0801C21.7001 59.2801 21.7201 59.5001 22.1001 60.0801C22.8801 61.2501 22.9801 61.7301 22.9801 64.3601C22.9801 65.4901 23.0401 67.6101 23.1201 69.0801C23.2001 70.5501 23.2701 72.2901 23.2901 72.9301C23.3101 73.5701 23.3601 74.2501 23.3801 74.4401C23.4001 74.6301 23.3801 75.4401 23.4501 76.2401C23.5201 77.9201 23.5701 78.7601 23.6401 79.3201C23.6598 79.5646 23.6429 79.8106 23.5901 80.0501C23.5901 80.2301 23.4901 80.5801 23.4601 80.8301C23.4301 81.0801 23.3901 81.3401 23.3801 81.4201C23.3185 81.9073 23.2182 82.3888 23.0801 82.8601C22.9301 83.3972 22.9028 83.9611 23.0001 84.5101L23.1101 84.8901L24.1101 85.3501C24.6401 85.6001 25.1101 85.8001 25.1101 85.8001C25.578 85.4649 26.0163 85.0902 26.4201 84.6801C26.9201 84.1701 27.2101 84.0201 27.4201 84.1301C27.6301 84.2401 27.6101 84.4501 27.2401 85.2301C27.0257 85.7011 26.842 86.1854 26.6901 86.6801L26.4601 87.4301L26.9901 88.2101C27.1657 88.5082 27.3773 88.7836 27.6201 89.0301C27.6801 89.0301 27.7401 89.1601 27.7701 89.2601C28.1741 89.8709 28.7195 90.3752 29.3601 90.7301C29.7601 91.0101 30.1101 91.2401 30.1301 91.2401L30.7501 91.6501C30.9587 91.8226 31.1911 91.9641 31.4401 92.0701C31.5792 92.1268 31.7026 92.2159 31.8001 92.3301C32.0416 92.5545 32.3064 92.7523 32.5901 92.9201L33.4701 93.5001C33.6501 93.6401 33.9301 93.8501 34.0901 93.9501C34.3842 94.1407 34.6648 94.3512 34.9301 94.5801C35.0001 94.6501 35.4501 94.9901 35.9301 95.3301L37.1801 96.2601L38.1101 96.9301C38.3845 97.1187 38.6483 97.3223 38.9001 97.5401C39.1701 97.7645 39.454 97.9716 39.7501 98.1601C39.9844 98.3006 40.2083 98.4576 40.4201 98.6301C40.5891 98.7807 40.7697 98.9178 40.9601 99.0401C41.4871 99.3606 41.971 99.7471 42.4001 100.19C42.518 100.401 42.5928 100.634 42.6203 100.874C42.6477 101.114 42.6273 101.358 42.5601 101.59C42.5002 101.921 42.4568 102.255 42.4301 102.59C42.3883 102.794 42.4004 103.006 42.4653 103.204C42.5302 103.402 42.6456 103.58 42.8001 103.72C42.9718 103.89 43.1053 104.095 43.1915 104.321C43.2777 104.547 43.3147 104.789 43.3001 105.03C43.3001 106.03 43.3001 106.03 44.6401 106.27C45.6401 106.49 46.0301 106.59 46.7801 106.79L47.9101 107.08C48.1514 107.129 48.3887 107.196 48.6201 107.28L49.7901 107.69C50.3401 107.89 50.9601 108.1 51.1701 108.19C51.3151 108.261 51.4704 108.308 51.6301 108.33C51.763 108.105 51.8544 107.858 51.9001 107.6L51.8801 107.59ZM70.8801 107.41C70.9776 107.349 71.0516 107.257 71.0902 107.149C71.1288 107.04 71.1296 106.922 71.0925 106.813C71.0555 106.704 70.9827 106.611 70.8861 106.549C70.7894 106.487 70.6746 106.459 70.5601 106.47C70.0355 106.531 69.5082 106.564 68.9801 106.57C67.5401 106.62 67.3801 106.67 67.4901 107.02C67.6001 107.37 67.8101 107.37 68.4901 107.49C69.2953 107.604 70.1142 107.577 70.9101 107.41H70.8801ZM67.7401 105.22C67.8401 105.22 68.3801 105.1 68.9601 105.01C70.1499 104.839 71.3237 104.571 72.4701 104.21C76.2001 103 78.2501 101.58 79.9601 99.0201C80.777 97.7414 81.499 96.4045 82.1201 95.0201C82.4296 94.3242 82.6157 93.5798 82.6701 92.8201C82.3813 92.9076 82.0975 93.0111 81.8201 93.1301C81.431 93.2789 81.0294 93.3927 80.6201 93.4701C80.2301 93.4701 80.1601 93.4701 79.9601 93.2901C79.5801 92.9201 79.6901 92.7601 80.5001 92.4801C81.799 92.0801 83.0018 91.4174 84.0339 90.5332C85.066 89.649 85.9055 88.5622 86.5001 87.3401C86.6743 86.9747 86.8714 86.6207 87.0901 86.2801C87.3117 86.1517 87.564 86.086 87.8201 86.0901C88.3514 86.1207 88.8809 86.0055 89.3515 85.757C89.8221 85.5085 90.2158 85.1361 90.4901 84.6801C91.0406 83.9312 91.4786 83.1058 91.7901 82.2301C92.3001 81.0101 92.3601 80.4901 92.0001 80.3601C91.6213 80.2283 91.209 80.2283 90.8301 80.3601C90.7101 80.4601 90.6701 80.6001 90.6501 81.0001C90.6337 81.3049 90.5696 81.6052 90.4601 81.8901C90.3847 82.0217 90.3403 82.1688 90.3301 82.3201C90.3301 82.3201 90.3301 82.4101 90.2201 82.4801C90.1101 82.5501 90.1201 82.5801 90.2201 82.5501C90.3201 82.5201 90.3201 82.5501 90.2201 82.6101C90.1458 82.6678 90.0929 82.7488 90.0701 82.8401C90.0222 82.9482 89.9504 83.0439 89.8601 83.1201C89.7855 83.1762 89.7241 83.2478 89.6801 83.3301C89.6801 83.4401 89.4901 83.6801 89.4201 83.6101C89.3501 83.5401 89.3301 83.8501 89.1601 84.0101L88.8301 84.3301L88.7701 84.0601C88.7043 83.4775 88.8615 82.8915 89.2101 82.4201C89.3788 82.1551 89.5037 81.8648 89.5801 81.5601C89.3738 80.9324 88.9282 80.4114 88.3401 80.1101C88.0474 80.0067 87.7404 79.9494 87.4301 79.9401C86.2082 79.7548 85.0193 79.3944 83.9001 78.8701C82.9702 78.5012 82.09 78.0175 81.2801 77.4301L79.9001 76.4801C78.4475 75.5365 77.064 74.4905 75.7601 73.3501C74.846 72.4138 74.0683 71.3534 73.4501 70.2001C73.3001 69.8101 73.2101 69.7501 73.1301 70.0101C73.1301 70.1001 73.0401 70.1601 72.9901 70.1401C72.9401 70.1201 72.9901 70.1401 72.9901 70.2301V70.3101C72.9901 70.2701 72.9001 70.3101 72.9901 70.3901C73.0801 70.4701 72.9901 70.5201 72.9901 70.4801C72.9901 70.4401 72.9101 70.4801 72.9901 70.5601C73.0701 70.6401 72.9901 70.6901 72.9901 70.6501C72.9901 70.6101 72.9101 70.6501 72.9901 70.7301C73.0701 70.8101 72.9901 70.8501 72.9901 70.8101C72.9901 70.7701 72.9001 70.8101 72.9901 70.9001C73.0801 70.9901 72.9901 71.0201 72.9301 70.9701C72.8401 70.9701 72.8701 70.9201 72.9301 70.9701C73.0201 70.9701 72.7801 71.4301 72.6901 71.3301C72.6001 71.2301 72.6901 71.3301 72.6901 71.3901C72.6901 71.4501 72.3001 72.1801 72.2001 72.0901C72.3001 72.2901 71.2001 73.4301 70.1401 74.2001C68.6573 75.1935 66.9242 75.7481 65.1401 75.8001H64.6701L65.2801 75.2901L66.1001 74.5701L66.9001 73.9001C67.3295 73.4273 67.699 72.9033 68.0001 72.3401C68.0001 72.3401 67.7601 72.3401 67.4601 72.5501C66.6901 73.0101 64.3801 74.1901 63.4601 74.5501C62.2835 75.0288 61.0649 75.3971 59.8201 75.6501C56.81 76.0847 53.7792 76.3618 50.7401 76.4801C49.7645 76.437 48.7891 76.569 47.8601 76.8701C45.5948 77.4858 43.4763 78.5502 41.6301 80.0001C41.4146 80.1557 41.2463 80.3679 41.1439 80.6132C41.0415 80.8586 41.0091 81.1275 41.0501 81.3901C41.7214 83.4827 42.7352 85.4494 44.0501 87.2101C44.1405 87.3783 44.2707 87.5219 44.4293 87.6282C44.5879 87.7345 44.7702 87.8004 44.9601 87.8201C44.9688 87.8194 44.9775 87.8209 44.9853 87.8245C44.9932 87.8282 45 87.8338 45.0051 87.8409C45.0101 87.8479 45.0132 87.8562 45.0141 87.8648C45.015 87.8735 45.0136 87.8822 45.0101 87.8901C45.0101 87.8901 45.0101 87.9601 45.1401 87.9701C45.7764 87.9803 46.4085 88.0745 47.0201 88.2501C47.4368 88.7657 47.7431 89.3613 47.9201 90.0001C47.9201 90.0001 47.9201 90.0601 47.9201 90.0001C47.9201 89.9401 48.0901 90.0701 48.1801 90.2301C48.3221 90.4514 48.4756 90.665 48.6401 90.8701C48.8001 91.0701 48.9201 91.2601 48.9001 91.3001C48.8801 91.3401 48.9601 91.4401 49.0701 91.5401C49.1801 91.6401 49.2801 91.7101 49.2801 91.6701C49.7842 92.0194 50.2683 92.3967 50.7301 92.8001C50.7801 92.8001 51.2801 93.1701 51.8301 93.5201C52.7511 94.0909 53.6063 94.7616 54.3801 95.5201C54.5097 95.6758 54.6654 95.8077 54.8401 95.9101C55.3583 96.3625 55.8306 96.865 56.2501 97.4101C56.4953 97.7844 56.7694 98.1388 57.0701 98.4701C57.5301 99.0101 58.0701 99.7601 58.3501 100.11C58.4797 100.336 58.6414 100.541 58.8301 100.72C58.8301 100.72 59.0901 101.1 59.4301 101.86C59.7336 102.5 60.212 103.041 60.8101 103.42L61.4801 103.91C61.8689 104.156 62.2731 104.376 62.6901 104.57C63.464 105.003 64.3252 105.256 65.2101 105.31C66.0474 105.339 66.8857 105.316 67.7201 105.24L67.7401 105.22ZM85.0701 104.75C85.5401 104.55 86.0701 104.32 86.9501 103.9C87.2901 103.73 87.8201 103.5 88.1201 103.39C88.6801 103.18 89.5701 102.81 90.2101 102.52C90.4101 102.42 90.8701 102.23 91.2101 102.08C91.5501 101.93 92.1001 101.69 92.4301 101.53C92.6482 101.414 92.8757 101.317 93.1101 101.24C93.4218 101.134 93.7258 101.007 94.0201 100.86L95.2801 100.27C95.5504 100.145 95.8275 100.035 96.1101 99.9401C96.3257 99.8679 96.5334 99.7741 96.7301 99.6601C97.2424 99.3922 97.778 99.1713 98.3301 99.0001C98.9249 98.8185 99.5036 98.5877 100.06 98.3101C100.14 98.2501 100.17 97.9201 100.17 97.2001C100.17 96.6501 100.17 95.8301 100.25 95.4001C100.33 94.9701 100.36 94.1701 100.39 93.6401C100.37 93.1513 100.466 92.6648 100.67 92.2201C100.8 91.9701 100.99 91.5501 101.09 91.3001C101.19 91.0501 101.59 90.1801 101.98 89.3701C102.579 88.2729 102.946 87.0647 103.06 85.8201C103.075 85.5955 103.102 85.3719 103.14 85.1501C103.178 84.9283 103.205 84.7047 103.22 84.4801C103.22 84.2001 103.28 83.8901 103.31 83.7801C103.34 83.6701 103.38 83.2801 103.43 82.9401C103.48 82.6001 103.53 82.2101 103.55 82.1001C103.57 81.9901 103.61 81.7001 103.64 81.4701C103.72 80.9101 104.14 78.7801 104.39 77.7501C104.45 77.5201 104.78 75.9601 104.9 75.4001C104.96 75.1001 105.11 74.5401 105.22 74.1601C105.306 73.913 105.37 73.6586 105.41 73.4001C105.714 71.9358 106.215 70.5196 106.9 69.1901C107.316 68.3757 107.683 67.5376 108 66.6801C108.095 66.4643 108.202 66.254 108.32 66.0501C108.536 65.6574 108.723 65.2497 108.88 64.8301C109.049 64.4091 109.243 63.9984 109.46 63.6001C109.91 62.6925 110.189 61.7092 110.28 60.7001C110.28 60.5801 110.37 60.3001 110.44 60.0601C110.59 59.6949 110.59 59.2853 110.44 58.9201C109.19 58.0665 107.848 57.3554 106.44 56.8001C105.84 56.6101 105.57 56.4101 105.71 56.2401C105.93 56.0491 106.199 55.9227 106.487 55.8751C106.775 55.8274 107.07 55.8603 107.34 55.9701C107.441 56.0265 107.555 56.0542 107.67 56.0501C108.012 56.0946 108.348 56.1785 108.67 56.3001C109.19 56.4701 109.67 56.6001 109.67 56.6001C109.67 56.6001 109.74 56.5301 109.74 56.4401C109.766 56.2105 109.81 55.9832 109.87 55.7601C109.961 55.4826 109.975 55.1858 109.912 54.9009C109.848 54.6159 109.71 54.3532 109.51 54.1401C109.286 53.8524 109.154 53.504 109.13 53.1401V52.8801C109.192 52.6663 109.294 52.4662 109.43 52.2901C109.546 52.139 109.643 51.9745 109.72 51.8001C108.743 50.6961 107.697 49.654 106.59 48.6801C106.426 48.6239 106.253 48.6029 106.081 48.6184C105.908 48.6339 105.741 48.6856 105.59 48.7701C105.19 48.9801 103.1 49.7701 102.36 50.0601C101.62 50.3501 101.02 50.5401 100.58 50.7301C100.482 50.7844 100.378 50.8279 100.27 50.8601C100.2 50.8601 97.1101 52.0001 95.7501 52.5201C95.2901 52.7001 94.7501 52.8901 94.6001 52.9401C94.1501 53.0901 94.0801 53.2101 94.1901 53.6501C94.3801 54.4401 94.3401 54.6501 93.6401 55.6501C93.2901 56.1701 92.9401 56.6501 92.8501 56.8001C92.7577 56.9287 92.7055 57.0818 92.7001 57.2401C92.9524 58.0583 93.3449 58.8264 93.8601 59.5101C94.0759 59.7858 94.2417 60.0972 94.3501 60.4301C94.5801 61.1301 94.6201 61.3301 94.5301 61.2801C94.4401 61.2301 94.4201 61.4401 94.4301 61.7301V61.7901C94.4301 61.7601 94.0801 62.1801 93.8001 63.0401C93.1701 64.9801 93.0001 66.0401 93.2701 66.5801C93.6286 67.461 93.9228 68.3667 94.1501 69.2901C94.4454 70.1584 94.6171 71.064 94.6601 71.9801C94.6601 72.5201 94.8001 72.7901 95.0901 72.7901C95.3205 72.8304 95.5453 72.8976 95.7601 72.9901L97.0401 73.4601C97.4538 73.6158 97.855 73.8031 98.2401 74.0201C98.4247 74.1504 98.6225 74.261 98.8301 74.3501C99.0382 74.4808 99.2355 74.628 99.4201 74.7901C99.6701 75.0001 99.9801 75.2501 100.11 75.3401C100.799 76.0317 101.431 76.7774 102 77.5701C102.51 78.2901 102.44 78.3901 101.66 78.0301C100.507 77.4816 99.2697 77.1333 98.0001 77.0001C97.6501 77.0001 96.4501 76.9401 95.3201 76.9201C93.4401 76.8601 93.3201 76.8701 93.4401 76.9901C94.7806 77.9899 96.0259 79.1113 97.1601 80.3401L97.6601 80.9601C98.0331 81.4501 98.3674 81.9683 98.6601 82.5101C98.8001 82.7901 99.2101 84.0401 99.4701 84.9401C99.7056 85.8687 99.8628 86.8153 99.9401 87.7701C99.9901 88.3601 99.9401 88.4201 99.8601 88.3901C99.7801 88.3601 99.4101 87.8701 98.8601 86.5501C98.7481 86.2715 98.6109 86.0037 98.4501 85.7501C98.2952 85.5122 98.155 85.2651 98.0301 85.0101C97.4221 84.0499 96.6504 83.2037 95.7501 82.5101L94.7501 81.8701C94.5349 81.7069 94.2953 81.5787 94.0401 81.4901C93.8767 81.7964 93.8105 82.1452 93.8501 82.4901V82.6801C93.8501 82.6601 93.7601 82.8901 93.7301 83.2001C93.7001 83.5101 93.6001 84.1101 93.5101 84.5501C93.2384 86.4707 93.1547 88.4132 93.2601 90.3501C93.2601 91.3501 93.3701 92.2301 93.3901 92.3501C93.4101 92.4701 93.4801 93.0401 93.5501 93.6301C93.5836 94.0165 93.6404 94.4005 93.7201 94.7801C93.7704 94.983 93.7972 95.1911 93.8001 95.4001C93.8345 95.6095 93.9021 95.812 94.0001 96.0001C94.0001 96.0601 94.0001 96.0001 93.9001 96.0001C93.8154 95.9244 93.759 95.8222 93.7401 95.7101C93.7415 95.6917 93.7392 95.6732 93.7334 95.6557C93.7276 95.6382 93.7184 95.622 93.7063 95.6081C93.6942 95.5942 93.6795 95.5827 93.663 95.5745C93.6465 95.5663 93.6285 95.5614 93.6101 95.5601C93.5401 95.5601 93.4801 95.5601 93.4701 95.5001C93.3281 95.3203 93.1708 95.153 93.0001 95.0001C92.5001 94.4922 92.1296 93.8714 91.9201 93.1901C91.8101 92.8501 91.6701 92.4301 91.6001 92.2701C91.5018 91.9428 91.4283 91.6085 91.3801 91.2701C91.3801 90.8901 91.2701 90.5001 91.2401 90.3901C91.2101 90.2801 91.1801 89.6201 91.1501 88.9301C91.1561 88.5013 91.1226 88.0728 91.0501 87.6501C90.9583 87.856 90.9008 88.0756 90.8801 88.3001C90.8201 88.6501 90.7001 89.3001 90.6101 89.6601C90.5201 90.0201 90.4301 90.4601 90.4101 90.5801C90.3901 90.7001 90.4101 90.9201 90.3301 91.0801C90.2054 92.5809 90.2054 94.0894 90.3301 95.5901C90.4733 96.8222 90.7208 98.0399 91.0701 99.2301C91.1701 99.3901 91.1901 99.4801 91.1201 99.5401C91.0501 99.6001 90.6501 99.2901 90.1201 98.3901C89.8801 97.9801 89.5401 97.4401 89.3701 97.1801C89.1085 96.7287 88.8908 96.2532 88.7201 95.7601C88.5301 95.2401 88.3101 94.6201 88.2101 94.3801C88.0167 93.9012 87.8986 93.3952 87.8601 92.8801C87.8595 92.7176 87.8359 92.556 87.7901 92.4001C87.7301 92.1567 87.6866 91.9094 87.6601 91.6601C87.6469 91.4072 87.6101 91.1561 87.5501 90.9101V89.5601C87.5636 89.1551 87.5368 88.7498 87.4701 88.3501C87.4701 88.3501 87.3201 88.3501 87.2001 88.4801C87.0801 88.6101 86.9201 88.9001 87.1401 88.7301C87.2801 88.6301 87.3601 88.5601 87.1401 88.7301C87.0001 88.8301 87.0001 88.8601 86.9501 88.8401C86.9001 88.8201 86.6501 89.1901 86.6101 89.3601C86.5701 89.5301 86.5401 89.4801 86.4501 89.5401C86.4078 89.5638 86.3713 89.5968 86.3436 89.6367C86.3159 89.6765 86.2976 89.7222 86.2901 89.7701C85.9156 90.3098 85.4602 90.7888 84.9401 91.1901C84.7583 91.3398 84.6115 91.5275 84.5101 91.7401C84.4201 92.1401 83.6101 94.4501 83.4301 94.8201C83.3401 95.0301 83.1101 95.5601 82.9501 95.9901C82.7901 96.4201 82.5001 97.0701 82.3301 97.4201C81.9901 98.1101 81.9901 98.2101 82.3301 99.0501C82.6278 99.8342 82.8651 100.64 83.0401 101.46C83.0465 101.586 83.0881 101.707 83.1601 101.81C83.3304 102.186 83.4741 102.574 83.5901 102.97C83.7072 103.394 83.8786 103.8 84.1001 104.18C84.2025 104.31 84.2835 104.455 84.3401 104.61C84.4001 104.8 84.5201 104.94 84.6401 104.94C84.798 104.897 84.9519 104.84 85.1001 104.77L85.0701 104.75ZM103.37 103.57C103.66 103.28 103.77 103.13 103.63 103.23C103.31 103.468 103.032 103.759 102.81 104.09C103.01 103.932 103.198 103.758 103.37 103.57ZM47.8301 94.8501C48.093 94.3727 48.3074 93.8702 48.4701 93.3501C48.2248 92.9391 47.8811 92.5955 47.4701 92.3501C47.3101 92.2601 47.0301 92.4201 46.9901 92.6501C46.9501 92.8801 46.9001 93.4501 46.8501 94.2101C46.8263 94.7792 46.7729 95.3466 46.6901 95.9101C46.6201 96.2201 46.6201 96.2201 46.8901 96.2201C47.1601 96.2201 47.1601 96.2201 47.8001 94.9001L47.8301 94.8501ZM89.2101 91.5401C89.4209 90.6234 89.5778 89.6952 89.6801 88.7601C89.6915 88.5031 89.7318 88.2481 89.8001 88.0001C90.0601 87.3201 89.7101 87.1201 88.9801 87.5101C88.2501 87.9001 88.1801 88.0101 88.2501 89.0501C88.2501 89.8901 88.5801 92.1301 88.6801 92.5501C88.6801 92.7301 88.7501 92.7101 88.9401 92.3101C89.0522 92.0583 89.1425 91.7973 89.2101 91.5301V91.5401ZM39.6901 79.6701C40.0638 78.663 40.7691 77.813 41.6901 77.2601C42.5901 76.6701 43.6101 76.4301 46.3501 76.1401L48.2701 75.9301C48.6701 75.8801 50.1501 75.7501 51.5801 75.6301C54.076 75.4918 56.5608 75.1979 59.0201 74.7501C62.3701 74.0801 63.8901 73.3901 67.6001 70.8801C68.8769 70.0632 70.0174 69.0508 70.9801 67.8801C72.1152 66.6432 72.8959 65.1232 73.2401 63.4801C73.4165 62.8523 73.4165 62.188 73.2401 61.5601C72.434 60.0209 71.2633 58.7025 69.8301 57.7201C68.0474 56.524 65.974 55.8329 63.8301 55.7201C61.708 55.6403 59.583 55.7071 57.4701 55.9201C53.2304 56.6995 49.2511 58.5208 45.8901 61.2201C44.2329 62.5185 42.6752 63.9392 41.2301 65.4701C39.7901 66.8701 39.6801 67.0001 37.8401 70.0001C37.5501 70.4801 37.0901 71.2001 36.8401 71.6301C36.3961 72.2355 36.058 72.9117 35.8401 73.6301C35.7601 73.9201 35.7001 74.1701 35.7001 74.2001C36.1795 73.9084 36.6314 73.5737 37.0501 73.2001C37.9988 72.4616 39.0542 71.8716 40.1801 71.4501C42.7971 70.401 45.5658 69.7798 48.3801 69.6101C50.6887 69.4501 52.9819 69.1158 55.2401 68.6101C60.6901 67.4101 62.6001 66.6101 65.5501 64.0601C66.1001 63.6001 66.3501 63.4301 66.4201 63.4901C66.4813 63.7937 66.4813 64.1065 66.4201 64.4101C66.4458 64.8532 66.3526 65.2951 66.1501 65.6901C65.8354 66.2871 65.4114 66.8196 64.9001 67.2601C63.1511 68.4554 61.2683 69.4421 59.2901 70.2001C58.6201 70.4701 56.0501 71.3301 55.2901 71.5401L54.5401 71.7501C54.3301 71.8201 53.6901 71.9601 53.1201 72.0901C52.5501 72.2201 51.3801 72.4501 50.5201 72.6401L46.2601 73.5701C44.1743 73.8679 42.2025 74.7055 40.5401 76.0001C39.7122 76.7878 39.1377 77.8044 38.8901 78.9201C38.8601 79.4795 38.9629 80.0381 39.1901 80.5501C39.3883 80.283 39.556 79.9945 39.6901 79.6901V79.6701ZM90.7701 78.4401C91.2801 78.4401 91.9801 78.3001 92.3201 78.2401L92.9301 78.1301L91.9301 77.6501C91.3034 77.2622 90.6049 77.0047 89.8764 76.893C89.1478 76.7813 88.4043 76.8178 87.6901 77.0001C86.8893 77.1819 86.0611 77.209 85.2501 77.0801C84.8361 77.0213 84.4182 76.9946 84.0001 77.0001H83.2501L84.3901 77.5701C84.9842 77.9668 85.6763 78.1917 86.3901 78.2201L87.8101 78.3701C88.8079 78.4645 89.8123 78.4645 90.8101 78.3701L90.7701 78.4401ZM87.2001 75.4401C90.091 75.1156 93.0092 75.1156 95.9001 75.4401C96.5701 75.5301 97.1301 75.5901 97.1301 75.5801C96.6388 75.1375 96.0823 74.7733 95.4801 74.5001C94.5923 74.202 93.6661 74.0336 92.7301 74.0001C90.2101 73.6701 87.5901 73.2601 87.2901 73.1601C87.1107 73.1018 86.9267 73.0583 86.7401 73.0301C85.3484 72.7963 84.0303 72.2416 82.8901 71.4101L82.3901 70.9901C81.1101 69.9901 77.6801 66.9101 76.5101 65.8001C75.8696 65.1937 75.3175 64.5003 74.8701 63.7401C74.6801 63.3701 74.4001 63.2301 74.2101 63.4101C73.9385 64.0298 73.734 64.6768 73.6001 65.3401C73.4094 66.3683 73.4642 67.4271 73.7601 68.4301C74.1605 69.4475 74.8314 70.3362 75.7001 71.0001C76.9778 72.1426 78.4293 73.0743 80.0001 73.7601L81.0001 74.1701C82.2776 74.6963 83.5909 75.1307 84.9301 75.4701C85.6896 75.6184 86.4706 75.6184 87.2301 75.4701L87.2001 75.4401ZM39.2001 74.8701C40.8356 73.6355 42.7241 72.7783 44.7301 72.3601L49.0401 71.5801C51.2273 71.2445 53.3889 70.76 55.5101 70.1301L56.5101 69.7101C57.5101 69.3001 57.6001 69.2501 57.1801 69.3201L55.0001 69.6901L52.6601 70.0701L49.2701 70.5001C47.6801 70.6801 46.2701 70.8701 46.2701 70.9101C46.1445 70.9664 46.0078 70.9937 45.8701 70.9901C44.4504 71.1174 43.0617 71.479 41.7601 72.0601C39.4801 73.0601 38.7601 73.4901 38.5801 73.8001C38.374 74.2145 38.3006 74.6825 38.3701 75.1401C38.4601 75.3301 38.7901 75.2301 39.2201 74.9001L39.2001 74.8701ZM93.1001 72.7801C93.208 72.7054 93.2955 72.6051 93.3549 72.4881C93.4142 72.3711 93.4435 72.2412 93.4401 72.1101C93.4401 72.0301 93.4401 71.8501 93.3601 71.7301C93.2403 71.4566 93.0783 71.2035 92.8801 70.9801C92.5628 70.5458 92.285 70.084 92.0501 69.6001C91.562 68.5336 90.8844 67.5645 90.0501 66.7401C88.3366 65.0978 86.4717 63.6212 84.4801 62.3301C84.0601 62.1501 83.3001 61.9001 81.5701 61.3301C81.2726 61.2533 80.9817 61.153 80.7001 61.0301C81.1567 61.1021 81.6078 61.2057 82.0501 61.3401L82.7601 61.5301C85.1331 62.2351 87.4052 63.2434 89.5201 64.5301C89.6436 64.6095 89.7843 64.6582 89.9304 64.6721C90.0765 64.686 90.2239 64.6648 90.3601 64.6101C90.5101 64.5201 90.5301 64.5501 89.4401 63.1401L88.6501 62.1401L86.9201 61.1001C85.8279 60.5117 84.802 59.8076 83.8601 59.0001C83.3651 58.555 82.7555 58.2571 82.1001 58.1401C80.7991 57.7808 79.447 57.6422 78.1001 57.7301C77.3556 57.6955 76.6095 57.7257 75.8701 57.8201C75.7586 57.8838 75.664 57.9733 75.5944 58.0812C75.5248 58.1892 75.4821 58.3123 75.4701 58.4401C75.4701 58.5101 75.4701 58.5701 75.3901 58.5701C75.3101 58.5701 75.3101 58.9001 75.3101 59.5101C75.3101 60.5101 75.3101 60.9101 75.1301 60.9101C75.03 61.3377 75.03 61.7826 75.1301 62.2101C75.2176 62.3104 75.2794 62.4306 75.3101 62.5601C75.4201 62.9101 75.6401 63.1801 75.6401 62.9901C75.6401 62.8001 75.7501 63.1001 75.8801 63.3801C76.2801 64.2301 78.3301 66.0101 81.9601 68.6701L83.1601 69.5501C83.8792 70.0573 84.6543 70.4801 85.4701 70.8101L87.1401 71.4501C89.4301 72.3401 92.4301 72.9901 93.0801 72.7401L93.1001 72.7801ZM40.3101 63.7801C40.2501 64.0301 40.2601 64.0301 40.4101 63.9001L40.8101 63.5701C41.2501 63.2101 41.9601 62.5701 43.4601 61.1301C44.0908 60.5225 44.7588 59.9547 45.4601 59.4301L47.5401 58.1001C48.8152 57.3228 50.1532 56.6538 51.5401 56.1001C53.0299 55.4485 54.6123 55.0335 56.2301 54.8701C56.9001 54.7601 57.8801 54.5801 58.4001 54.4801C60.4531 54.1508 62.5476 54.1812 64.5901 54.5701C66.1729 54.777 67.6975 55.3017 69.0723 56.1129C70.4471 56.924 71.6437 58.0047 72.5901 59.2901C73.3101 60.1501 73.4501 60.2901 73.5901 60.1401C74.0601 59.8401 74.4101 56.9201 74.1401 55.5401C73.8303 53.2637 72.7754 51.1539 71.1401 49.5401C70.1047 48.5658 68.9281 47.7533 67.6501 47.1301C64.1001 45.3101 61.9801 45.1301 57.5701 46.3901C56.1303 46.7016 54.7382 47.2026 53.4301 47.8801C52.0319 48.7356 50.6953 49.6879 49.4301 50.7301L48.3001 51.7301C47.7101 52.2601 47.0901 52.8301 46.9201 53.0201C46.6001 53.3701 45.1801 55.1901 44.7901 55.7501C44.6601 55.9501 44.0201 56.7501 43.3801 57.5801C41.1501 60.3801 40.0401 62.3001 39.6101 64.0701C39.5501 64.3101 39.6101 64.3101 39.9801 63.9001C40.3501 63.4901 40.4101 63.4901 40.3501 63.7301L40.3101 63.7801ZM88.9301 60.0001C88.6201 59.6701 87.7501 58.5801 87.0001 57.5901C86.1963 56.369 85.2271 55.2651 84.1201 54.3101L83.3201 53.6501C82.6004 53.2247 81.8313 52.8889 81.0301 52.6501C80.5677 52.5077 80.1192 52.3236 79.6901 52.1001C79.3692 51.924 79.0348 51.7735 78.6901 51.6501C77.9183 51.4903 77.1219 51.4903 76.3501 51.6501L75.5801 51.8001C75.4644 51.8467 75.3564 51.9108 75.2601 51.9901C75.0901 52.1501 75.0901 52.3001 75.2601 53.3101C75.2601 53.5401 75.3701 54.3801 75.4001 55.1801C75.4501 56.3801 75.4801 56.6601 75.6001 56.8101C75.7201 56.9601 75.7801 56.9901 78.4601 56.9901C82.2601 56.9901 82.7801 57.1001 85.3801 58.4201C86.1501 58.8101 87.0301 59.3001 87.3801 59.5101C88.0088 59.9146 88.6793 60.2499 89.3801 60.5101C89.4301 60.6201 89.2301 60.3401 88.9301 60.0001ZM38.8301 56.4001C39.0762 55.7647 39.2898 55.1172 39.4701 54.4601C39.7701 53.4601 40.1201 52.2601 40.2601 51.8201C40.3578 51.5307 40.4281 51.2327 40.4701 50.9301C40.4701 50.7901 40.0401 50.6901 35.5501 49.5201C33.4801 48.9901 29.0301 47.8201 25.6601 46.9201C22.2901 46.0201 19.4601 45.3001 19.3701 45.3001C19.2893 45.298 19.2107 45.3266 19.1501 45.3801C19.1501 45.3801 18.9701 46.6801 18.8201 48.1701C18.6701 49.6601 18.4701 51.4501 18.3901 52.1701C18.2601 53.3301 18.2601 53.5101 18.3901 53.6101C18.5201 53.7101 20.7001 54.0401 26.2101 54.7901L36.1201 56.1601C38.6701 56.5301 38.7501 56.5301 38.8601 56.3901L38.8301 56.4001ZM94.5401 51.4001L103.45 48.3101C106.88 47.1201 109.77 46.1101 109.87 46.0601C110.21 45.8801 110.23 45.7701 110.54 41.5301C110.64 40.3101 110.74 39.1701 110.76 39.0101C110.78 38.8501 110.76 38.6901 110.61 38.6901C110.46 38.6901 105.3 40.2001 99.0001 42.0001C89.8501 44.6801 87.6201 45.3501 87.6001 45.4701C87.6737 45.7836 87.8024 46.0816 87.9801 46.3501C88.8501 47.9001 91.1301 51.9401 91.2401 52.1201C91.2765 52.1792 91.3283 52.2272 91.39 52.259C91.4517 52.2907 91.5209 52.3049 91.5901 52.3001C91.7601 52.3301 93.0801 51.9201 94.5401 51.4101V51.4001ZM33.5401 47.2901C33.6014 47.2248 33.6369 47.1396 33.6401 47.0501C33.6401 46.9901 34.0001 45.7501 34.4301 44.3201L35.2201 41.7101L35.6401 41.2901C36.1128 40.8034 36.3873 40.1582 36.4101 39.4801C36.4301 38.9699 36.5454 38.4679 36.7501 38.0001C36.9829 37.8232 37.2344 37.6723 37.5001 37.5501C38.8106 36.8918 39.9953 36.0084 41.0001 34.9401C41.4625 34.4996 41.8873 34.0213 42.2701 33.5101C43.3548 31.1943 44.6257 28.9703 46.0701 26.8601C47.1136 25.2055 48.3305 23.6668 49.7001 22.2701C50.1387 21.8387 50.5433 21.374 50.9101 20.8801C51.3901 19.9401 51.3001 19.1901 50.6701 18.8001C50.0401 18.4101 49.9001 18.5501 48.7601 19.3201C47.2783 20.2693 45.7156 21.0858 44.0901 21.7601C41.6701 22.8401 41.1401 23.1601 40.7701 23.7601C40.634 23.9913 40.4413 24.184 40.2101 24.3201C39.5048 24.6842 38.7502 24.9436 37.9701 25.0901C37.7962 25.0901 37.6236 25.1206 37.4601 25.1801L34.8101 26.8301C31.2301 29.0601 29.3201 30.2501 27.1901 31.5501L24.8101 33.0301L23.9601 33.5701C23.6501 33.7601 23.5101 33.9001 23.5101 34.0201C24.2262 35.7734 25.058 37.4772 26.0001 39.1201C26.181 39.4064 26.3223 39.7159 26.4201 40.0401C26.3891 40.2054 26.3168 40.3602 26.2101 40.4901C25.6471 41.3893 25.2381 42.3762 25.0001 43.4101C24.8601 43.9701 24.7101 44.5701 24.6501 44.7501C24.5901 44.9301 24.5901 45.0901 24.6501 45.1501C24.9452 45.2758 25.254 45.3664 25.5701 45.4201C27.1601 45.8001 32.8401 47.2401 33.0001 47.3201C33.0918 47.3768 33.1974 47.4068 33.3051 47.4068C33.4129 47.4068 33.5185 47.3768 33.6101 47.3201L33.5401 47.2901ZM95.8101 40.9001L99.7201 39.7301C100.9 39.3801 101.92 39.0601 102.01 39.0201C102.053 38.9911 102.089 38.9526 102.115 38.9076C102.141 38.8625 102.157 38.812 102.16 38.7601C102.16 38.4401 100.16 33.2801 98.9001 30.5501C98.6871 30.0934 98.5163 29.618 98.3901 29.1301C98.4322 28.8169 98.5163 28.5109 98.6401 28.2201C99.1101 27.0001 99.1601 26.5201 99.1101 24.0501C99.1334 22.8856 99.0294 21.7221 98.8001 20.5801C98.6701 19.8901 98.4301 18.8401 98.2701 18.2401C98.1101 17.6401 97.8801 16.7801 97.7701 16.3201C97.4701 15.0101 97.2101 14.3701 95.6501 10.9901C94.6666 8.87486 93.5268 6.83588 92.2401 4.89012C91.8601 4.27012 91.4801 3.61012 91.3801 3.43012C91.1781 3.03449 90.896 2.68524 90.5517 2.40462C90.2074 2.12399 89.8084 1.91812 89.3801 1.80012C89.1101 1.80012 88.8101 2.22012 88.8101 2.62012C88.9963 3.27579 89.2371 3.9147 89.5301 4.53012C91.1701 8.29012 91.3501 8.73012 91.6101 9.53012C91.9531 10.5933 92.2041 11.684 92.3601 12.7901C92.3601 13.2201 92.3601 13.3201 92.2501 13.5001L92.0801 13.7101L91.6301 13.2101C91.3825 12.8246 91.01 12.5358 90.575 12.392C90.1399 12.2482 89.6687 12.2581 89.2401 12.4201C89.1277 12.4671 89.007 12.4914 88.8851 12.4914C88.7632 12.4914 88.6426 12.4671 88.5301 12.4201C88.0101 12.2401 88.0101 12.0101 88.5301 11.6701C89.0501 11.3301 89.1901 11.0701 88.8901 10.6701C88.2277 9.61494 87.3565 8.70634 86.3301 8.00012C83.502 5.94235 80.4891 4.15135 77.3301 2.65012C75.6501 1.80012 75.3301 1.65012 75.0001 1.65012C74.4701 1.65012 74.2501 1.85012 74.2501 2.31012C74.2501 2.59012 74.3101 2.72012 74.6601 3.09012C75.1518 3.57402 75.728 3.96379 76.3601 4.24012C77.0601 4.62012 77.8001 5.05012 78.0101 5.24012C79.0101 5.92012 83.5201 9.51012 84.7401 10.6001C85.598 11.3326 86.3577 12.1729 87.0001 13.1001C87.0001 13.3301 86.6401 13.5501 86.3601 13.4801C85.9668 13.2384 85.607 12.9459 85.2901 12.6101C84.7101 12.0401 83.1801 10.8301 80.2901 8.66012C77.9401 6.94012 75.7601 5.31012 75.3801 5.00012C74.6493 4.46877 73.8484 4.04136 73.0001 3.73012C72.7601 3.73012 72.3601 4.17012 72.3201 4.48012C72.2201 5.08012 72.8401 5.90012 74.2401 7.10012C75.3301 8.03012 83.2401 16.8101 83.5901 17.4501C83.6691 17.6292 83.7034 17.8248 83.6901 18.0201C83.6901 18.5601 83.3301 18.4701 81.2801 17.2801L78.9001 15.9201C77.9001 15.3501 76.2101 14.2801 74.9801 13.4501L73.1101 12.2001C72.1601 11.5975 71.1557 11.0852 70.1101 10.6701C69.8501 10.6701 69.5901 11.0201 69.5901 11.3401C69.5901 11.6601 69.7201 11.9401 70.3401 12.4301C70.6401 12.6701 71.5601 13.4301 72.3401 14.1701L75.1801 16.6601C76.8936 18.0602 78.4284 19.6655 79.7501 21.4401C80.0901 21.8701 80.2001 21.9601 80.5401 22.0401C81.0501 22.1701 81.2501 22.1301 82.2001 21.6401C83.0508 21.1575 84.0243 20.935 85.0001 21.0001C85.7101 21.0001 85.7901 21.0001 85.7901 21.1801C85.7901 21.3601 85.5801 21.4801 85.1101 21.7701C84.3501 22.2501 83.3601 22.8801 82.4101 23.5001C81.8201 23.8801 81.7401 23.9101 81.4101 23.8801C81.1137 23.8409 80.8198 23.7842 80.5301 23.7101C79.4301 23.3901 74.9501 23.7101 71.6601 24.3801C71.2886 24.45 70.943 24.6194 70.6601 24.8701C70.5737 25.0017 70.5221 25.1531 70.5101 25.3101C70.4401 25.8201 70.6801 26.0401 71.4201 26.1601C71.7501 26.2201 72.9001 26.4501 73.9501 26.6901L76.4601 27.2101C76.9801 27.3001 77.2101 27.4201 78.4601 28.2101C79.2201 28.7001 80.4601 29.5501 81.2601 30.1101C82.2667 30.9477 83.434 31.5704 84.6901 31.9401C87.0001 32.4901 87.5901 32.6201 88.0001 32.7101C89.0001 32.9201 89.2401 33.1701 89.8701 34.4601C90.3301 35.4601 90.5001 35.5701 90.9701 35.5401C91.4401 35.5101 91.4901 35.5401 91.6401 35.8101C91.7901 36.0801 92.7601 38.8101 93.1801 40.1901C93.3801 40.8401 93.5501 41.3901 93.5801 41.4301C93.6101 41.4701 94.1701 41.4301 95.8701 40.9401L95.8101 40.9001ZM28.6601 28.3601L35.0001 24.8101C35.8901 24.3501 36.0001 24.4701 34.2401 23.3501C33.4101 22.8001 32.3901 22.0901 32.0001 21.7801C31.7733 21.5667 31.5088 21.3971 31.2201 21.2801C31.1283 21.5141 31.0548 21.7548 31.0001 22.0001C30.8501 22.7401 30.7301 22.9301 30.4601 22.8401C30.0984 22.6119 29.8373 22.2542 29.7301 21.8401C29.7301 21.7501 29.9701 21.1101 30.2201 20.4201C30.6001 19.3601 30.7001 19.1701 30.8501 19.1401C31.0001 19.1101 31.2501 19.3201 31.8501 19.8901C33.0679 21.1101 34.4763 22.1234 36.0201 22.8901C37.1601 23.4401 37.7301 23.4101 38.5301 22.7601L38.7801 22.5601L38.6201 22.1301C38.4901 21.7401 38.1601 21.3901 35.6801 18.9201C34.4416 17.8242 33.3221 16.6008 32.3401 15.2701C31.3401 13.6801 30.9901 13.3801 30.3401 13.4201C30.12 13.4346 29.9087 13.512 29.7314 13.6432C29.5541 13.7744 29.4183 13.9539 29.3401 14.1601C29.2301 14.3801 28.6601 15.2901 28.0701 16.1601C27.4801 17.0301 26.7501 18.2101 26.4501 18.7001L25.4501 20.3601C24.9737 20.9713 24.6328 21.677 24.4501 22.4301C24.546 22.9086 24.704 23.3726 24.9201 23.8101C25.4801 25.1201 25.6601 25.7501 25.4701 25.8701C25.4072 25.911 25.3349 25.9351 25.2601 25.9401C25.0401 25.9401 23.8701 23.9401 21.9101 20.1901C21.0288 18.3717 20.0266 16.6144 18.9101 14.9301C18.2701 13.9301 18.1801 13.8401 17.9101 13.9301C17.6401 14.0201 17.6001 14.2501 17.8601 15.7801C18.2501 18.1401 19.0801 21.0101 21.5201 28.5201C22.5201 31.6301 22.5201 31.6101 22.7201 31.6101C22.9201 31.6101 25.5101 30.1201 28.7201 28.3001L28.6601 28.3601ZM40.3001 21.8301C40.7607 21.5821 41.2049 21.3049 41.6301 21.0001C41.8001 20.8701 41.7601 20.7201 41.0501 18.7301C40.2701 16.5201 40.1101 16.1501 39.9301 16.0901C39.7501 16.0301 39.0201 16.3801 38.3001 16.9701C37.9595 17.2546 37.6022 17.5184 37.2301 17.7601C37.0479 17.8644 36.8882 18.0038 36.7601 18.1701C37.2059 18.7716 37.6833 19.3491 38.1901 19.9001C38.9801 20.7901 39.7001 21.6301 39.8001 21.7601C39.9001 21.8901 39.9601 22.0201 40.3001 21.8501V21.8301ZM36.8601 16.5501C38.2262 15.9058 39.4791 15.0447 40.5701 14.0001C41.6301 13.1001 41.6601 13.0801 42.4501 12.3901C44.6101 10.5101 44.7101 10.3901 44.7101 9.79012C44.7101 9.41012 44.5601 9.13012 44.3601 9.13012C44.1358 9.21736 43.9213 9.32797 43.7201 9.46012C42.8901 9.94012 40.1601 11.4101 39.3901 11.8001C38.7801 12.1001 34.5101 13.8001 33.8201 14.0601C33.5801 14.1401 33.5201 14.2001 33.5601 14.3001C34.2267 15.2525 34.962 16.1549 35.7601 17.0001C35.7601 17.0001 36.2901 16.7801 36.8601 16.5201V16.5501ZM78.5901 14.0001C78.5901 14.0001 78.5301 13.9001 78.4601 13.8701C78.3901 13.8401 78.2901 13.8701 78.4001 14.0101C78.5101 14.1501 78.5901 14.0001 78.5901 14.0001Z" fill="black"/>
<path d="M41.5603 87.29L41.3203 87L41.6003 87.24C41.6957 87.3248 41.7828 87.4186 41.8603 87.52C41.8603 87.6 41.8003 87.54 41.5603 87.29ZM61.9303 101.77C61.6389 101.412 61.4552 100.978 61.4003 100.52C61.4078 99.664 61.546 98.8142 61.8103 98C62.0474 97.5192 62.4284 97.1243 62.9003 96.87C63.7656 96.5089 64.6584 96.218 65.5703 96C66.6603 95.7423 67.7835 95.6546 68.9003 95.74C69.4082 95.8141 69.8949 95.9939 70.3289 96.2677C70.763 96.5416 71.1348 96.9035 71.4203 97.33C71.5703 97.59 71.5703 97.59 71.3603 97.69C71.1503 97.79 71.0603 97.75 70.5803 97.53C69.8399 97.1991 69.0411 97.019 68.2303 97L67.3003 96.9L66.0803 97.36C65.2313 97.6383 64.4187 98.0176 63.6603 98.49C63.2354 98.9629 62.9332 99.5329 62.7803 100.15C62.3703 101.7 62.2403 101.94 61.9303 101.76V101.77ZM65.7203 94.9C65.4832 94.817 65.2554 94.7098 65.0403 94.58C64.6281 94.2162 64.1 94.0107 63.5503 94C63.0596 93.9905 62.5756 94.115 62.1503 94.36C61.6885 94.5919 61.1973 94.7601 60.6903 94.86C60.0453 94.9619 59.3856 94.8192 58.8403 94.46C58.7003 94.34 58.6203 94.21 58.6403 94.17C58.6603 94.13 58.9203 93.92 59.2003 93.7L59.7203 93.3H60.4803C61.016 93.3569 61.5544 93.2222 62.0003 92.92C62.3992 92.6281 62.8868 92.4832 63.3803 92.51C64.1377 92.5452 64.8694 92.7949 65.4903 93.23C66.4003 93.82 66.8603 93.83 67.5603 93.23C67.7517 93.1023 67.9714 93.0233 68.2003 93C69.523 92.9697 70.8326 92.73 72.0803 92.29C72.2028 92.2199 72.3339 92.1661 72.4703 92.13C72.6403 92.13 73.1503 93 73.1503 93.27C73.1503 93.54 73.1003 93.58 72.8003 93.73C72.6144 93.841 72.4019 93.8996 72.1853 93.8996C71.9688 93.8996 71.7563 93.841 71.5703 93.73C71.4003 93.58 71.3403 93.57 70.8003 93.66C69.7553 93.9112 68.732 94.2456 67.7403 94.66C67.4402 94.8326 67.108 94.9421 66.7641 94.9816C66.4201 95.0212 66.0718 94.99 65.7403 94.89L65.7203 94.9Z" fill="black"/>
<path d="M66.0601 92.4999C65.3512 92.2119 64.7256 91.7513 64.2401 91.1599C63.3701 90.2799 63.0901 90.1599 62.3701 90.0099C62.1201 90.0099 61.9401 89.9099 61.9401 89.8499C62.1456 89.387 62.4533 88.9767 62.8401 88.6499C63.0868 88.4424 63.2935 88.1916 63.4501 87.9099C63.6401 87.5499 63.6601 87.4199 63.6501 86.5099C63.6714 85.343 63.4251 84.1868 62.9301 83.1299C62.8089 82.7878 62.5969 82.4852 62.3168 82.2544C62.0367 82.0236 61.6991 81.8734 61.3401 81.8199C61.1001 81.8199 59.8201 81.6099 58.5101 81.4099C57.2001 81.2099 55.7301 80.9999 55.2501 80.9399C53.6855 80.8159 52.1117 80.8729 50.5601 81.1099L49.6201 81.2799C49.3401 81.2799 50.6901 79.8699 51.6701 79.1199L52.1401 78.7599L53.5101 78.8499C55.7201 78.9999 57.7701 79.2199 60.3401 79.5699C61.002 79.6745 61.6702 79.7346 62.3401 79.7499C63.1501 79.6499 63.6801 79.1999 64.4801 77.9599C65.2801 76.7199 65.3601 76.6999 65.6801 77.0199C65.8301 77.1699 65.8501 77.2599 65.8201 77.6299C65.7522 78.2822 65.5729 78.9181 65.2901 79.5099C65.0561 80.0256 64.7153 80.4858 64.2901 80.8599L63.5401 81.5999L63.7901 81.9199C64.1835 82.4279 64.494 82.9949 64.7101 83.5999C65.2377 85.0061 65.3386 86.5367 65.0001 87.9999C64.6101 89.0899 64.5701 88.9199 65.4101 89.7399C65.9201 90.2499 66.2101 90.4699 66.3501 90.4699C66.6401 90.4699 66.9901 90.1899 67.6901 89.3399C68.7901 87.9999 69.5201 87.4699 70.2201 87.4599C70.335 87.4568 70.449 87.4804 70.5532 87.529C70.6573 87.5776 70.7487 87.6498 70.8201 87.7399C71.1701 88.0999 71.1301 88.2299 70.6301 88.4199C70.1301 88.6099 69.7401 89.0099 68.8901 90.3499C68.4801 90.9899 68.0401 91.6599 67.8901 91.8299C67.6578 92.0923 67.362 92.2907 67.0312 92.4063C66.7003 92.5218 66.3453 92.5506 66.0001 92.4899L66.0601 92.4999ZM45.3301 86.0599C45.2103 85.9078 45.1127 85.7394 45.0401 85.5599C44.8055 85.069 44.4201 84.6661 43.9401 84.4099C43.3967 84.1279 42.9506 83.6889 42.6601 83.1499C42.4701 82.8232 42.383 82.4468 42.4101 82.0699C42.4101 81.4199 42.5201 81.1499 42.9101 80.9399C43.1301 80.8299 43.1401 80.8399 43.3801 81.1099C43.6955 81.4671 43.9096 81.9021 44.0001 82.3699C44.1196 82.9995 44.4429 83.5722 44.9201 83.9999C45.1446 84.1904 45.3187 84.4334 45.4268 84.7072C45.5349 84.9811 45.5739 85.2774 45.5401 85.5699C45.5401 86.0399 45.5401 86.1799 45.3301 86.0699V86.0599ZM78.0001 85.4999C77.291 85.4698 76.6019 85.2562 76.0001 84.8799C75.6833 84.7406 75.3452 84.6561 75.0001 84.6299C74.5074 84.585 74.03 84.435 73.6001 84.1899C72.8301 83.7999 72.6001 83.5199 72.6001 83.0399C72.5925 82.8378 72.5657 82.6369 72.5201 82.4399C72.4301 82.1099 72.3501 82.0699 71.5201 81.8199C70.7705 81.6085 70.084 81.2172 69.5201 80.6799C69.0958 80.2371 68.7731 79.707 68.5745 79.1268C68.3759 78.5465 68.3061 77.9299 68.3701 77.3199C68.3701 76.4599 68.4701 76.3199 68.8801 76.7299C69.2356 77.0908 69.4638 77.5577 69.5301 78.0599C69.9601 79.5999 70.2801 79.8099 73.0901 80.2299L74.4301 80.3999L75.1901 80.4899C76.7178 80.5982 78.2505 80.6149 79.7801 80.5399C80.5101 80.4799 81.1701 80.4199 81.2401 80.3999L81.9301 80.3199C82.4401 80.2599 82.5001 80.3199 82.6601 80.4499L82.8501 80.6499L82.4101 80.8499C81.0479 81.3787 79.6554 81.8262 78.2401 82.1899C77.1752 82.4728 76.059 82.5036 74.9801 82.2799C73.6901 82.0499 73.6001 82.0799 73.9001 82.6299C74.2949 83.1699 74.8466 83.575 75.4801 83.7899C75.9653 83.9702 76.4842 84.0419 77.0001 83.9999C78.2423 84.0065 79.4787 83.8314 80.6701 83.4799L82.1001 82.7299C82.506 82.4851 82.9434 82.2967 83.4001 82.1699C83.6201 82.1699 83.5901 82.1699 82.8001 82.9899C81.9026 83.8773 80.9399 84.6962 79.9201 85.4399C79.5201 85.6599 79.4601 85.6599 78.0001 85.4999Z" fill="black"/>
<path d="M55.2299 85.1801C54.9684 85.0978 54.7194 84.9801 54.4899 84.8301C53.1499 83.9001 52.8499 83.8301 51.4899 84.1701C51.3099 84.1701 51.1999 84.1701 50.9499 83.9301C50.6999 83.6901 50.6199 83.6401 50.7799 83.4601C51.0383 83.2856 51.3215 83.1507 51.6199 83.0601C52.5721 82.791 53.5774 82.7703 54.5399 83.0001C55.9178 83.2204 57.322 83.2204 58.6999 83.0001C59.3499 82.9001 59.9799 82.8301 60.1199 82.8301C60.7086 82.8503 61.2814 83.0263 61.7799 83.3401C62.1399 83.6701 62.0399 83.8001 61.3299 83.8601L60.5199 83.9501C60.3999 83.9501 59.9799 84.0301 59.5899 84.0701C59.045 84.1086 58.5219 84.2992 58.0799 84.6201C57.6761 84.9195 57.2124 85.1281 56.7205 85.2317C56.2286 85.3352 55.7201 85.3313 55.2299 85.2201V85.1801ZM21.5699 52.2701C21.1488 51.9762 20.8223 51.5662 20.6299 51.0901C20.5032 50.668 20.4862 50.2206 20.5807 49.7901C20.6752 49.3596 20.878 48.9604 21.1699 48.6301C21.4986 48.4109 21.8848 48.2938 22.2799 48.2938C22.675 48.2938 23.0612 48.4109 23.3899 48.6301C23.7137 49.0421 23.9241 49.5317 23.9999 50.0501C24.0515 50.4511 23.9974 50.8585 23.8431 51.2321C23.6887 51.6058 23.4394 51.9325 23.1199 52.1801C22.8854 52.312 22.6239 52.3886 22.3553 52.4042C22.0867 52.4198 21.8181 52.3739 21.5699 52.2701ZM107.72 43.3801C107.537 43.232 107.388 43.0465 107.283 42.8361C107.178 42.6257 107.119 42.3952 107.11 42.1601C107.147 41.7813 107.317 41.4278 107.589 41.1624C107.862 40.8969 108.22 40.7367 108.6 40.7101C108.786 40.7071 108.97 40.7419 109.142 40.8124C109.314 40.8829 109.47 40.9876 109.6 41.1201C109.808 41.5197 109.875 41.9778 109.79 42.4201C109.652 42.8414 109.363 43.1973 108.98 43.4201C108.781 43.5102 108.564 43.5534 108.345 43.5465C108.127 43.5395 107.913 43.4826 107.72 43.3801ZM103.82 126.56C102.571 125.717 101.489 124.649 100.63 123.41C99.9399 122.56 99.3599 121.85 99.3299 121.85C99.0572 122.604 98.889 123.391 98.8299 124.19C98.6099 125.67 98.4599 126.04 97.9399 126.34C97.6693 126.513 97.3501 126.594 97.0299 126.57C96.5599 126.57 96.4599 126.57 96.2599 126.35C96.0599 126.13 96.0399 126.06 96.0499 125.68C96.0499 125.04 98.0499 117.02 98.3199 116.63C98.4348 116.406 98.6077 116.218 98.8206 116.084C99.0335 115.95 99.2785 115.877 99.5299 115.87C99.7613 115.876 99.9905 115.916 100.21 115.99C100.46 116.1 100.49 116.09 100.97 115.75C101.247 115.55 101.554 115.395 101.88 115.29C102.398 115.095 102.971 115.101 103.485 115.306C103.999 115.511 104.418 115.902 104.66 116.4C104.866 117.261 104.866 118.159 104.66 119.02C104.393 119.793 103.902 120.468 103.25 120.96C102.92 121.2 102.67 121.45 102.67 121.53C103.175 122.357 103.787 123.114 104.49 123.78C105.1 124.35 105.41 124.53 105.73 124.53C106.51 124.53 106.89 125.73 106.28 126.3C106.113 126.492 105.905 126.642 105.671 126.741C105.437 126.84 105.183 126.884 104.93 126.87C104.534 126.88 104.144 126.772 103.81 126.56H103.82ZM100.45 120.36C101.16 119.915 101.778 119.338 102.27 118.66C102.371 118.513 102.426 118.339 102.426 118.16C102.426 117.982 102.371 117.807 102.27 117.66C102.15 117.54 102.01 117.52 101.64 117.55C100.57 117.64 99.8899 118.63 99.5499 120.55L99.4999 120.87L99.7399 120.77L100.46 120.38L100.45 120.36ZM87.4799 126.45C87.307 126.385 87.1532 126.278 87.0326 126.138C86.912 125.999 86.8285 125.831 86.7899 125.65C86.7899 125.41 88.2899 120.05 88.5399 119.43C88.7186 118.844 89.1161 118.35 89.6499 118.05C89.9268 117.941 90.1544 117.735 90.2899 117.47C90.4272 117.206 90.6244 116.978 90.8659 116.805C91.1073 116.631 91.3861 116.516 91.6799 116.47C92.5819 116.322 93.4975 116.275 94.4099 116.33C96.7699 116.33 97.1299 116.4 97.2199 116.77C97.2122 116.986 97.1539 117.197 97.0497 117.387C96.9455 117.576 96.7983 117.738 96.6199 117.86C95.3363 118.394 93.9474 118.627 92.5599 118.54H91.6199C91.4801 118.55 91.3477 118.606 91.2441 118.701C91.1406 118.795 91.0722 118.922 91.0499 119.06C91.0069 119.28 90.9328 119.492 90.8299 119.69C90.7415 119.847 90.687 120.021 90.6699 120.2C91.0558 120.235 91.444 120.235 91.8299 120.2C93.4899 120.05 94.1699 120.06 94.3399 120.2C94.4253 120.371 94.4697 120.559 94.4697 120.75C94.4697 120.941 94.4253 121.129 94.3399 121.3C93.9799 122 92.7899 122.38 90.9199 122.39C90.2599 122.39 90.1699 122.39 89.9899 122.58C89.8099 122.77 89.6199 123.43 89.7099 123.52C90.0446 123.509 90.3785 123.479 90.7099 123.43C91.3985 123.331 92.095 123.297 92.7899 123.33C93.9499 123.38 94.4199 123.49 94.5799 123.79C94.7217 124.2 94.6965 124.649 94.5099 125.04C94.2499 125.47 93.9799 125.56 92.7699 125.6C91.4724 125.658 90.185 125.856 88.9299 126.19C88.2599 126.35 87.6999 126.49 87.6999 126.48L87.4199 126.4L87.4799 126.45ZM82.6899 126.29C81.0806 126.005 79.6089 125.201 78.4999 124C78.3471 123.764 78.2593 123.492 78.2452 123.211C78.2312 122.93 78.2914 122.65 78.4199 122.4C78.6299 121.99 78.7999 121.9 79.3599 121.9C79.9199 121.9 80.1399 122.05 80.2799 122.5C80.8818 123.471 81.8225 124.184 82.9199 124.5C83.2699 124.58 83.6799 124.4 83.7399 124.15C83.7999 123.9 83.7399 123.81 82.2299 121.87C81.1699 120.49 80.8099 119.77 80.7799 118.97C80.7242 118.626 80.7877 118.273 80.9599 117.97C81.3311 117.351 81.8588 116.841 82.4899 116.49C82.9935 116.241 83.5479 116.111 84.1099 116.111C84.6719 116.111 85.2263 116.241 85.7299 116.49C86.0695 116.657 86.3829 116.872 86.6599 117.13C86.9599 117.43 86.9999 117.52 86.9899 117.87C86.9899 118.62 86.4899 119.09 85.9899 118.87C85.7636 118.776 85.5461 118.662 85.3399 118.53C85.0465 118.299 84.6877 118.165 84.3144 118.149C83.9411 118.133 83.5722 118.235 83.2599 118.44C83.1904 118.47 83.1278 118.514 83.0758 118.569C83.0238 118.624 82.9835 118.689 82.9574 118.76C82.9312 118.831 82.9197 118.907 82.9236 118.983C82.9274 119.058 82.9466 119.132 82.9799 119.2C83.4005 119.893 83.8613 120.561 84.3599 121.2C85.0699 122.2 85.7699 123.2 85.9199 123.46C86.0726 123.771 86.152 124.113 86.152 124.46C86.152 124.807 86.0726 125.149 85.9199 125.46C85.4099 126.46 84.3999 126.77 82.6999 126.46L82.6899 126.29ZM29.8399 126.13C29.4314 125.83 29.1135 125.422 28.9212 124.953C28.729 124.484 28.6697 123.971 28.7499 123.47C29.0543 121.465 29.886 119.578 31.1599 118C32.9999 115.78 35.5299 115 37.2799 116.25C37.5199 116.41 37.5499 116.48 37.5499 116.78C37.5272 117.12 37.3871 117.441 37.1536 117.69C36.9202 117.938 36.6078 118.097 36.2699 118.14C36.0612 118.121 35.8579 118.063 35.6699 117.97C35.314 117.825 34.9238 117.786 34.546 117.857C34.1683 117.928 33.819 118.106 33.5399 118.37C32.6065 119.202 31.9388 120.291 31.6199 121.5C31.2899 122.5 31.2599 122.76 31.4499 123.22C31.5699 123.52 31.5699 123.52 31.9799 123.47C32.7339 123.276 33.4753 123.035 34.1999 122.75C36.1499 122.02 36.6799 121.92 36.9499 122.22C37.0492 122.379 37.1019 122.563 37.1019 122.75C37.1019 122.938 37.0492 123.121 36.9499 123.28C36.4999 124.28 34.4299 125.39 31.8399 126.04C30.6299 126.34 30.2699 126.37 29.8399 126.18V126.13Z" fill="black"/>
</svg>
