<svg width="128" height="130" viewBox="0 0 128 130" fill="none" xmlns="http://www.w3.org/2000/svg">
<path d="M45.3398 128.9C44.8098 128.41 45.1298 127.14 46.0698 125.99C46.6298 125.32 47.9598 123.43 49.0098 121.79C51.3598 118.14 52.2398 117.27 53.0798 117.79C53.5698 118.1 53.6698 118.63 53.5998 120.56L53.4998 123L54.4998 121.78C56.3898 119.32 58.1698 117.57 58.7698 117.57C60.0998 117.57 60.3098 118.45 59.7698 121.64C59.3798 123.98 59.3798 124.79 59.6998 125.31C60.6098 126.78 59.8398 128.08 58.0498 128.08C56.9298 128.08 56.5098 126.85 56.7898 124.44L57.0398 122.3L56.2298 123.3C54.3798 125.79 52.6298 127.3 51.6398 127.3C50.6498 127.3 50.5598 127.12 50.2398 125.06C50.1698 124.6 49.6798 125.06 48.4898 126.74C46.9998 129 45.9998 129.6 45.3398 128.9Z" fill="black"/>
<path d="M38.47 127.53C37.77 126.65 37.7 126.23 37.84 124.53C37.9806 122.268 38.9405 120.135 40.54 118.53C41.54 117.53 42.08 117.2 43.02 117.2C43.5821 117.232 44.1414 117.1 44.63 116.82C45.34 116.12 46.81 116.82 47.44 118.04C49.12 121.62 45.13 127.71 40.64 128.31C39.42 128.51 39.14 128.41 38.47 127.53ZM43.13 125C44.2381 123.875 44.9023 122.387 45 120.81C44.93 120.07 44.68 119.81 43.91 119.75C42.34 119.58 40.91 121.19 40.34 123.82C39.94 125.88 41.38 126.51 43.13 125Z" fill="black"/>
<path d="M69.9999 127.57C68.9999 126.57 69.0499 123.4 70.1399 121.09C71.0799 118.99 72.4499 117.83 76.4399 115.52C78.1199 114.52 79.3499 113.7 79.2099 113.52C79.0699 113.34 78.5099 113.13 77.9799 112.89C77.0699 112.5 76.8599 112.64 73.7099 115.55C71.2599 117.79 70.3099 118.95 69.9999 119.93C69.5799 121.4 67.8299 122.83 65.3399 123.81C63.9399 124.34 63.7299 124.58 63.3399 125.92C62.9499 127.46 62.1099 128.09 60.9899 127.63C60.2199 127.35 60.3999 126.06 61.8999 121.54C62.4286 120.108 62.8727 118.645 63.2299 117.16C63.1599 117.09 59.0999 116.25 54.2299 115.23L45.2999 113.41L36.4699 113.24C29.5299 113.13 27.6099 112.99 27.6099 112.64C27.6099 112.05 28.4799 111.87 33.9099 111.38C38.8703 111.005 43.8548 111.088 48.7999 111.63C50.6199 111.8 51.1399 111.77 50.8599 111.45C50.1299 110.64 33.9099 106.37 32.2999 106.58C31.4999 106.69 31.5999 106.79 33.4199 108.23C34.6099 109.17 35.2399 109.87 34.9599 109.94C34.2999 110.19 26.5599 106.09 26.5599 105.5C26.5599 105.08 27.2899 105.04 31.2199 105.22C33.6475 105.339 36.0673 105.583 38.4699 105.95C39.3838 106.186 40.3262 106.294 41.2699 106.27C41.3699 106.2 40.9899 105.71 40.4599 105.27C39.6599 104.57 39.5199 104.27 39.6899 103.27C39.8999 102.11 39.8999 102.11 32.5499 96.7204C28.1699 93.5303 25.1599 91.0804 25.1599 90.7204C25.1599 89.7204 24.2799 88.9004 22.6699 88.3004L21.1299 87.7104L20.9199 82.1404C20.7799 79.0603 20.6699 73.4903 20.6399 69.7803C20.6399 63.4403 20.5699 62.9504 19.8299 62.0004C19.0899 61.0504 19.0999 60.7803 19.4499 59.0004C19.8699 56.7304 19.7299 56.4504 17.9399 56.4504C16.1499 56.4504 15.9999 56.1203 16.5799 50.0004C16.8999 46.9203 17.1799 44.3204 17.2799 44.2504C18.8248 44.3714 20.3512 44.6666 21.8299 45.1304C22.4599 45.3104 22.6399 45.0604 23.1699 43.1304L23.7599 40.9203L22.6699 38.5004C21.7999 36.5704 21.4799 36.1504 20.9599 36.3304C19.8699 36.6404 18.9599 34.0204 20.0099 33.4604C20.4299 33.2104 20.2599 32.3404 19.0099 28.2404C15.2599 16.2404 14.6999 12.0604 16.7699 11.9904C17.4999 11.9904 19.0399 13.8404 20.6199 16.6504C23.2499 21.2704 22.9299 21.1304 24.6199 18.4004C28.3299 12.4004 29.5199 11.4004 31.2399 12.4804C31.7101 12.7914 32.2489 12.9836 32.8099 13.0404C33.8099 13.0404 39.8099 10.8004 42.7199 9.29035C45.6299 7.78035 46.7199 7.86035 46.5799 9.54035C46.5799 10.5904 46.1599 11.1104 43.8099 13.2804L41.1099 15.8104L41.7399 17.9404C41.9369 18.7624 42.2753 19.5441 42.7399 20.2504C46.043 18.5341 49.2571 16.6517 52.3699 14.6104C57.4799 11.4304 61.9299 8.87035 62.2499 8.91035C62.4134 8.96177 62.5561 9.06435 62.6569 9.20298C62.7577 9.3416 62.8113 9.50895 62.8099 9.68035C62.8099 10.1704 61.1299 11.4304 56.8099 14.2304C53.4799 16.3704 50.9599 18.2304 51.1999 18.2304C51.6337 18.4586 52.0369 18.7408 52.3999 19.0704C53.7299 20.2904 53.3999 21.3804 50.8499 24.0704C47.9999 27.0004 46.8399 28.8004 44.2799 34.0004C42.2799 38.0004 41.7599 38.5504 38.8899 40.0004C37.8099 40.5303 37.3799 41.0004 37.3799 41.5103C37.3547 42.0145 37.157 42.4947 36.8199 42.8703C36.1199 43.6404 34.8199 48.1304 35.2099 48.4804C36.3603 48.8788 37.5321 49.2127 38.7199 49.4804C39.8354 49.6582 40.9198 49.995 41.9399 50.4804C41.9399 50.9704 39.8399 58.9203 39.6299 59.2803C39.5199 59.4503 39.0699 59.4904 38.5799 59.3804C37.8799 59.2004 37.7399 59.2803 37.7699 59.9804C37.8152 60.5473 37.9089 61.1093 38.0499 61.6604C38.2599 62.3904 38.4399 62.2203 39.6299 60.0103C41.9134 56.363 44.6934 53.0513 47.8899 50.1703C49.4005 49.0969 50.9806 48.1248 52.6199 47.2603C54.5864 46.0643 56.8056 45.3452 59.0999 45.1604C60.8753 44.8769 62.6844 44.8769 64.4599 45.1604C67.4599 45.7204 71.3199 47.7204 72.9299 49.5004L74.2699 51.0004H77.6299C80.5299 51.0004 81.2299 51.1404 82.7799 52.0004C83.7842 52.5397 84.7439 53.1583 85.6499 53.8503C87.8417 55.9253 89.6852 58.3395 91.1099 61.0004C91.7099 62.2603 91.9899 62.6104 92.1099 62.1604C92.0551 61.3649 91.8044 60.5953 91.3799 59.9203L90.4699 58.2704L91.1699 56.9403C91.5499 56.1703 91.8999 55.4304 91.9699 55.2904C92.0399 55.1504 91.7598 55.1504 91.3399 55.4004C90.9199 55.6504 90.4298 55.6804 90.3399 55.5004C89.6098 54.7704 84.6999 45.5004 84.8399 45.1003C85.8847 44.4775 87.0174 44.0157 88.1999 43.7304C89.3267 43.4936 90.4053 43.0676 91.3899 42.4704C91.27 41.82 91.1063 41.1786 90.8999 40.5504C90.4551 39.2356 89.6557 38.0693 88.5899 37.1804C87.9424 36.4801 87.1859 35.8892 86.3499 35.4304C85.5799 35.4304 81.0599 33.0904 79.4099 31.8304C77.2099 30.1104 76.4099 29.7204 72.2299 28.4304C68.7999 27.3404 68.6299 27.2404 68.6299 26.3304C68.6299 24.5104 69.5399 23.9104 73.5299 23.1804C75.5299 22.7904 77.3499 22.4004 77.5299 22.3704C78.0199 22.1904 74.3499 18.3704 71.5299 16.1404C67.3599 12.8104 67.2599 12.7404 67.2599 11.8604C67.2599 10.5704 68.4499 9.73035 70.1299 9.76035C71.554 9.97805 72.8919 10.5796 73.9999 11.5004L76.4899 13.1404L73.2099 9.82035C70.1699 6.70035 69.9999 6.38035 69.9999 5.00035C69.9999 3.62035 70.1399 3.49035 70.8699 3.21035C71.0989 3.14924 71.3047 3.02164 71.4614 2.84367C71.618 2.6657 71.7184 2.44532 71.7499 2.21035C71.7499 1.21035 72.8999 0.700353 74.9699 0.980353C77.0399 1.26035 82.7799 4.27035 86.8099 7.32035C87.6354 7.99171 88.5266 8.57802 89.4699 9.07035C89.2214 7.95215 88.8316 6.87013 88.3099 5.85035C87.0798 3.00035 86.9999 2.74035 87.4999 1.87035C87.6883 1.58211 87.9383 1.33923 88.2319 1.15919C88.5255 0.979154 88.8553 0.86643 89.1977 0.829134C89.54 0.791838 89.8864 0.830897 90.2119 0.943501C90.5373 1.05611 90.8337 1.23945 91.0799 1.48035C92.8599 2.88035 97.6599 11.6704 98.9599 15.9104C100.051 20.0036 100.639 24.2147 100.71 28.4504C100.64 30.4504 100.85 31.2904 102.11 34.5804C102.603 35.9996 103.201 37.3801 103.9 38.7104C104.07 38.8904 105.9 38.5004 108.17 37.7704C109.523 37.2627 110.934 36.9268 112.37 36.7704C112.65 37.0904 111.88 47.0403 111.53 47.6003C111.16 47.9212 110.711 48.1386 110.23 48.2304C109.64 48.3703 109.23 48.5804 109.23 48.6804C109.618 49.3987 110.088 50.0698 110.63 50.6804C111.63 51.8004 112 52.6104 111.83 52.9604C111.716 53.2506 111.655 53.5587 111.65 53.8703C111.65 54.0803 111.76 55.4104 111.83 56.8703C111.9 58.3303 112.07 60.1303 112.21 60.8703C112.49 62.4804 112 63.9804 108.88 71.4804C106.936 76.4579 105.62 81.6578 104.96 86.9604C104.651 88.7866 104.135 90.5716 103.42 92.2803C102.703 93.6734 102.297 95.2053 102.23 96.7703C102.23 98.2403 102.33 98.5503 102.75 98.3803C104.055 98.0358 105.4 97.8709 106.75 97.8904C105.853 98.9455 104.894 99.9472 103.88 100.89L101 103.75L103 103.08C105.42 102.28 107.87 101.82 107.87 102.24C107.87 102.42 107.28 102.84 106.58 103.24C105 104.05 101.46 106.78 102.44 106.43C103.596 106.196 104.771 106.069 105.95 106.05C109.24 105.87 109.38 105.8 99.9499 108.46C93.4495 110.153 87.1089 112.408 80.9999 115.2C77.9999 116.71 77.9999 116.78 78.5199 117.41C79.0399 118.04 79.3199 119.3 78.9399 121.54C78.7299 122.77 78.7599 123.01 79.2499 123.01C79.9309 123.26 80.5343 123.684 80.9999 124.24C81.5127 124.826 82.1824 125.253 82.9299 125.47C83.8099 125.47 83.7699 125.36 81.7399 122.47C80.2299 120.41 80.1999 119.39 81.5299 118.03C83.5299 116.03 87.8699 117.22 86.9599 119.6C86.8795 119.75 86.7645 119.878 86.6243 119.974C86.4841 120.07 86.3229 120.131 86.1543 120.151C85.9857 120.172 85.8146 120.152 85.6555 120.092C85.4964 120.033 85.3538 119.936 85.2399 119.81C84.9338 119.591 84.5666 119.472 84.1899 119.472C83.8131 119.472 83.4459 119.591 83.1399 119.81C83.4266 120.729 83.9036 121.578 84.5399 122.3C86.4299 124.89 86.6399 126.47 85.2099 127.38C84.4399 127.9 84.0899 127.94 82.5499 127.55C80.2999 127.06 78.4799 125.94 78.1999 124.92C78.0299 124.22 77.9199 124.29 76.3799 125.77C75.0229 127.17 73.2107 128.039 71.2699 128.22C70.7859 128.127 70.3445 127.882 70.0099 127.52L69.9999 127.57ZM74.5499 124.66C76.0199 123.19 76.8999 120.91 76.2299 120.14C75.7099 119.47 74.0599 119.58 73.3899 120.31C72.0299 121.82 71.2199 125.31 72.1999 125.74C72.9999 126.09 73.1799 126 74.5099 124.66H74.5499ZM65.8999 121.26C67.2699 120.26 67.5799 119.44 66.6699 119.09C65.9699 118.84 64.8799 119.82 64.4299 121.09C63.9799 122.36 64.1799 122.38 65.8599 121.26H65.8999ZM72.0299 114.26C72.8698 113.558 73.6647 112.803 74.4099 112C74.4799 111.9 73.7699 111.48 72.8599 111.13C70.4799 110.13 67.6099 110.25 64.2799 111.48C63.3286 111.775 62.413 112.174 61.5499 112.67C62.3551 113.155 63.2143 113.545 64.1099 113.83C65.3401 114.285 66.5336 114.833 67.6799 115.47C68.1328 115.8 68.6457 116.038 69.1899 116.17C70.2251 115.675 71.1739 115.017 71.9999 114.22L72.0299 114.26ZM88.7299 109.11C91.0499 107.99 94.6199 106.42 96.7299 105.61C98.9699 104.73 100.51 103.93 100.51 103.61C100.64 103.017 100.889 102.456 101.24 101.96C101.63 101.3 101.87 100.77 101.73 100.77C97.474 102.394 93.3021 104.229 89.2299 106.27C84.1499 108.72 83.6999 109.04 83.6999 109.88C83.6999 110.72 84.0099 111.38 84.3599 111.17C84.3899 111.14 86.3799 110.16 88.6899 109.07L88.7299 109.11ZM85.1599 56.6104C84.6478 56.0616 84.0701 55.578 83.4399 55.1703C82.8499 54.7504 83.0599 55.0303 83.9699 55.8703C85.6799 57.4504 86.2099 57.7604 85.1599 56.6104ZM101.58 126.16C100.858 125.357 100.086 124.599 99.2699 123.89C99.0666 124.406 98.9387 124.948 98.8899 125.5C98.8312 126.233 98.6272 126.947 98.2899 127.6C97.7299 128.27 96.2899 128.2 95.9799 127.49C96.0465 125.925 96.3051 124.373 96.7499 122.87C98.0499 117.41 98.4299 116.71 99.9399 117.09C100.36 117.2 100.81 117.09 100.94 116.92C101.36 116.29 103.78 116.46 104.41 117.16C105.41 118.32 104.93 121.23 103.41 122.45C102.92 122.87 102.92 122.98 103.41 123.78C103.95 124.46 104.602 125.042 105.34 125.5C106.81 126.44 107.09 127.5 106.01 128.09C104.57 128.83 103.77 128.48 101.52 126.16H101.58ZM101.41 120.63C102.28 119.82 102.41 118.98 101.69 118.98C100.97 118.98 99.6899 120.63 99.6899 121.33C99.6899 122.03 100.22 121.68 101.41 120.63Z" fill="black"/>
<path d="M87.1898 127.7C86.6298 127.49 86.4198 127.18 86.5598 126.79C87.1622 124.441 87.8967 122.127 88.7598 119.86C89.2118 119.388 89.6927 118.944 90.1998 118.53C91.2898 117.65 91.6398 117.53 94.3298 117.53C97.0198 117.53 97.3298 117.6 97.3298 118.2C97.3298 119.2 96.4498 119.7 93.7498 119.95C91.7498 120.12 91.1998 120.3 91.0898 120.79C90.9798 121.28 91.2298 121.39 92.7398 121.39C94.2498 121.39 94.5198 121.46 94.5198 122.23C94.5198 123.31 94.0698 123.59 91.9298 123.84C89.7898 124.09 89.3798 124.75 91.5498 124.61C94.0698 124.4 94.9398 124.75 94.7998 125.83C94.6998 126.74 94.5598 126.83 92.0398 127.2C90.5698 127.41 89.0998 127.69 88.7098 127.79C88.2052 127.91 87.6767 127.878 87.1898 127.7ZM28.6598 127.11C27.3298 124.59 29.7098 119.02 32.8698 117.41C34.7598 116.41 37.3798 116.92 37.3798 118.28C37.3798 119.16 36.2298 119.75 35.1398 119.47C33.8498 119.16 32.8698 119.89 31.9198 121.89C30.5198 124.89 30.7998 125.11 34.2998 123.82C36.7198 122.94 37.4598 123.22 36.7498 124.76C36.2298 125.88 33.0098 127.46 30.6998 127.67C29.2898 127.81 28.9998 127.7 28.6598 127.11Z" fill="black"/>
<path d="M49.6102 109C48.9102 108.76 47.1902 108.27 45.7902 107.92C44.1802 107.53 43.2002 107.11 43.0902 106.76C42.912 106.195 42.6913 105.643 42.4302 105.11C42.0812 104.408 41.9689 103.612 42.1102 102.84L42.3202 101.61L37.8402 98.2804C35.3902 96.4304 32.0602 94.0104 30.4902 92.9304C27.6102 90.9304 26.1802 89.4204 26.1802 88.4104C26.2772 87.7941 26.452 87.1927 26.7002 86.6204C27.3702 85.0804 26.7702 84.8704 25.4802 86.2404C24.7102 87.0404 24.6402 87.0404 23.6202 86.5504C22.6002 86.0604 22.5302 85.9604 23.1302 80.8104C23.1302 80.5304 23.0602 77.8104 22.9202 74.8104C22.7802 71.8104 22.5702 67.7404 22.4602 65.7404C22.5042 64.1808 22.2671 62.626 21.7602 61.1504C20.9902 59.8604 21.5202 57.1504 22.5002 57.1504C23.9702 57.2204 34.0902 58.8004 34.7602 59.0404C35.4302 59.2804 35.5602 59.8504 35.9502 62.2704C36.1902 63.8404 36.5802 65.8404 36.7502 66.6404C36.9388 67.0779 36.9929 67.5616 36.9057 68.03C36.8184 68.4984 36.5937 68.9301 36.2602 69.2704C34.1602 72.1404 31.0802 80.7204 31.1202 83.5604V85.4904L31.6502 84.2604C32.3802 82.5104 35.3602 77.6104 35.7102 77.6104C35.8502 77.6104 35.8802 78.1304 35.7802 78.7604C35.4302 80.4804 36.4802 86.1904 37.3202 87.3804C38.3202 88.7404 40.0902 90.2104 40.7502 90.2104C41.2402 90.2104 41.2402 90.1404 40.7502 89.5804C40.3979 89.1958 40.1895 88.7012 40.1602 88.1804C40.1602 87.4504 40.1602 87.4504 41.0002 88.2904C41.788 88.9674 42.6582 89.5419 43.5902 90.0004C45.2402 90.8404 45.3802 91.0004 45.5902 92.5304C45.7845 95.0346 45.6433 97.5536 45.1702 100.02C44.9302 100.9 44.9302 100.9 46.0502 99.8504C46.9071 99.02 47.69 98.1166 48.3902 97.1504L49.6202 95.5004L50.6202 96.1304C51.8102 96.8704 54.4402 99.2504 54.4402 99.6004C54.2591 100.111 54.0102 100.596 53.7002 101.04C53.1102 102.04 53.0402 102.54 53.2502 104.57C53.4602 106.78 53.4202 106.99 52.7202 107.38C52.2285 107.669 51.8455 108.112 51.6302 108.64C51.2502 109.58 51.2102 109.58 49.5002 108.95L49.6102 109Z" fill="#6A5439"/>
<path d="M63.0003 106.17C61.2258 105.452 59.7459 104.155 58.8003 102.49C56.7434 99.4853 54.1983 96.8456 51.2703 94.6804C49.2703 93.3104 47.4203 91.4204 47.0703 90.3004C46.9729 90.0519 46.8164 89.8309 46.6142 89.6567C46.4121 89.4824 46.1704 89.3601 45.9103 89.3004C45.3513 89.1858 44.8001 89.0354 44.2603 88.8504C43.3903 88.5004 41.0103 84.5404 40.7303 82.9604C40.4803 81.6004 40.8303 81.0404 42.9003 79.8504C45.6003 78.2404 47.9003 77.6804 53.3703 77.2604C59.7103 76.7704 61.9503 76.2604 65.3103 74.4904C66.1096 73.9835 66.9885 73.615 67.9103 73.4004C67.4144 74.1187 66.8106 74.7562 66.1203 75.2904C64.1903 77.0504 64.3303 77.1904 67.1703 76.2904C69.4636 75.4777 71.3643 73.8271 72.4903 71.6704L73.0003 70.6504L74.1603 72.4404C76.1603 75.5204 82.8803 80.0004 86.7303 80.8404C87.5742 80.9775 88.3712 81.321 89.0503 81.8404C89.5703 82.4304 89.6103 82.6804 89.2203 83.5904C89.023 83.9803 88.9267 84.4136 88.9403 84.8504C89.1903 85.1004 90.3103 83.3104 90.5903 82.2604C90.8703 81.2104 91.2903 81.0004 91.9903 81.4504C92.4103 81.7304 92.4103 82.0104 91.8503 83.4504C91.0103 85.6304 89.2603 87.4504 87.9203 87.4504C87.1203 87.4504 86.7703 87.7704 86.0003 89.2004C84.8472 91.136 83.0906 92.6396 81.0003 93.4804C79.7803 93.9004 79.3903 94.4804 80.3003 94.4804C80.7925 94.4212 81.2759 94.3037 81.7403 94.1304C82.6503 93.7804 82.7403 93.8104 82.4803 94.7204C81.6528 97.2852 80.3313 99.6632 78.5903 101.72C76.7303 103.82 73.3703 105.46 69.4803 106.2C66.1203 106.87 64.5803 106.83 63.0003 106.2V106.17ZM62.3003 101.96C62.3003 100.56 63.3003 99.4404 65.4203 98.6704C67.2803 97.9704 67.7703 97.9304 69.1003 98.2804C71.2003 98.8104 71.3703 98.7804 70.3903 97.9704C69.4103 97.1604 66.3903 97.0604 63.8803 97.9004C62.3403 98.4204 62.0603 98.6704 61.6703 99.9004C61.1803 101.33 61.3903 103.05 61.9503 102.7C62.0484 102.613 62.1262 102.505 62.178 102.384C62.2298 102.263 62.2545 102.132 62.2503 102L62.3003 101.96ZM61.6703 95.6204C63.2503 95.0604 63.3903 95.0604 64.7503 95.6904C66.1103 96.3204 66.2203 96.3204 68.4303 95.5504C69.4 95.1411 70.4488 94.9532 71.5003 95.0004C72.4103 95.2104 73.0703 94.6804 72.5003 94.1204C72.2203 93.8404 68.0603 94.4704 66.6903 95.0304C66.4282 95.0815 66.1582 95.0767 65.898 95.0164C65.6378 94.9561 65.3933 94.8416 65.1803 94.6804C64.2403 94.0504 63.0103 94.0904 60.3903 94.7904C58.7403 95.2404 58.3903 95.4904 59.0903 95.9104C59.7903 96.3304 59.7303 96.3204 61.6203 95.6204H61.6703ZM68.6103 91.4904C69.0771 90.7503 69.6693 90.0972 70.3603 89.5604C70.407 89.5633 70.4538 89.5563 70.4976 89.5397C70.5414 89.5232 70.5812 89.4975 70.6143 89.4644C70.6474 89.4313 70.6731 89.3915 70.6896 89.3477C70.7062 89.3039 70.7132 89.2571 70.7103 89.2104C70.7103 88.4104 69.4103 88.9704 68.0503 90.3004C66.8903 91.4204 66.4003 91.7004 65.8003 91.4904C65.5663 91.3883 65.3547 91.241 65.1777 91.057C65.0006 90.873 64.8617 90.6558 64.7688 90.418C64.6759 90.1802 64.6309 89.9263 64.6363 89.6711C64.6417 89.4158 64.6974 89.1641 64.8003 88.9304C65.2203 87.8504 64.8003 85.4704 63.9903 84.0004C63.3303 82.8404 63.3303 82.8004 63.9903 82.0704C64.8153 81.2507 65.3161 80.1603 65.4003 79.0004C65.4003 78.2604 65.2603 78.3304 64.0003 79.7304C62.7403 81.1304 62.5303 81.2404 61.1303 81.0304C58.5403 80.6404 53.7103 80.1204 52.7303 80.1204C51.9397 80.2247 51.2016 80.5744 50.6203 81.1204L49.5003 82.1204L52.1303 82.0004C55.2103 81.7904 61.4503 82.7404 62.2903 83.5104C62.9203 84.0704 63.6503 86.5104 63.6503 87.9904C63.5521 88.6921 63.2495 89.3494 62.7803 89.8804C61.9403 90.8804 61.9403 90.9704 62.5303 91.1504C63.1412 91.484 63.6976 91.9089 64.1803 92.4104C65.7503 94.0004 66.8403 93.8004 68.5603 91.4904H68.6103ZM44.6103 85.4304C44.1787 84.8281 43.8132 84.181 43.5203 83.5004C42.8903 81.9604 42.3003 81.8204 42.3003 83.1904C42.4288 84.055 42.8922 84.8344 43.5903 85.3604C44.8803 86.5904 45.6903 86.6204 44.6003 85.4304H44.6103ZM81.3103 85.1504C82.0332 84.6346 82.7031 84.0484 83.3103 83.4004C82.7309 83.5573 82.1758 83.7928 81.6603 84.1004C80.4667 84.6635 79.1905 85.0315 77.8803 85.1904C76.1303 85.3604 75.6003 85.2904 74.6603 84.7004C74.0203 84.2804 73.5003 83.8204 73.5003 83.6404C73.5003 83.4604 74.5003 83.3304 75.7103 83.3304C77.6303 83.3304 81.2703 82.5204 81.9803 81.8904C82.1503 81.7504 80.7803 81.7204 78.9803 81.7904C75.5103 81.9304 70.8503 81.4004 70.0503 80.7404C69.6395 80.2413 69.3027 79.6856 69.0503 79.0904C68.4603 77.6604 68.0503 78.1504 68.3903 79.9004C68.5484 80.6152 68.8995 81.2729 69.4056 81.8019C69.9117 82.3309 70.5532 82.7108 71.2603 82.9004C71.9203 83.0804 72.2603 83.4304 72.3803 83.9004C72.5203 84.7104 74.0603 85.7204 75.1803 85.7204C75.5392 85.7182 75.8894 85.8303 76.1803 86.0404C76.9932 86.4957 77.9086 86.7365 78.8403 86.7404C79.7778 86.3882 80.6349 85.8509 81.3603 85.1604L81.3103 85.1504ZM57.7103 85.7104C58.4761 85.3261 59.3071 85.0887 60.1603 85.0104C61.3203 85.0104 61.6003 84.4904 60.5803 84.2404C59.7644 84.1484 58.9396 84.172 58.1303 84.3104C56.9295 84.4204 55.7211 84.4204 54.5203 84.3104C52.5203 84.0704 51.1603 84.2104 50.8403 84.7004C50.7403 84.8704 51.1903 85.0104 51.8403 85.0104C52.6238 85.056 53.3835 85.2966 54.0503 85.7104C55.3503 86.5904 56.0003 86.5904 57.7003 85.7104H57.7103Z" fill="#6A5439"/>
<path d="M83.8602 105.43C83.3743 104.332 82.9437 103.211 82.5702 102.07L81.8002 99.7199L83.0602 96.5999C83.7602 94.8899 84.3202 93.3799 84.3202 93.2799C84.7051 92.698 85.1621 92.1671 85.6802 91.6999L87.0002 90.3699L87.3902 92.8899C87.7402 95.5199 89.9502 100.77 90.6502 100.77C90.8602 100.77 90.9602 100.56 90.8602 100.32C90.595 99.3019 90.3847 98.2704 90.2302 97.2299C89.8803 95.5108 89.8803 93.7389 90.2302 92.0199L90.7202 89.3899L91.0002 91.2799C91.3102 93.6599 92.1902 95.9399 93.1002 96.7799C93.8302 97.4399 93.8302 97.4399 93.6202 95.8699C93.0277 91.8159 93.1564 87.6891 94.0002 83.6799C94.2102 82.8699 94.2102 82.8699 95.2602 83.4999C96.9666 84.8719 98.3122 86.6397 99.1802 88.6499C99.5302 89.3899 99.8802 89.9099 99.9902 89.8399C100.27 89.5299 99.1802 84.8399 98.5202 83.5399C97.6805 82.3013 96.7044 81.1608 95.6102 80.1399L93.2502 77.8999L96.1502 78.1799C97.6226 78.27 99.0809 78.5181 100.5 78.9199C101.008 79.1432 101.556 79.2623 102.11 79.2699C102.35 79.0199 100.57 76.9899 99.1102 75.8699C98.3546 75.2873 97.5195 74.8158 96.6302 74.4699C94.8702 73.9099 94.4502 73.4699 94.4502 72.4699C94.3096 71.3529 94.0652 70.2515 93.7202 69.1799L93.0002 66.7999L93.8002 64.3099L94.6102 61.8299L93.6002 59.9999L92.6002 58.1499L93.5102 56.9199C93.9915 56.3538 94.2942 55.6579 94.3802 54.9199C94.2802 54.2099 94.7302 53.9199 98.4802 52.5699C100.79 51.7299 103.42 50.7099 104.33 50.3299C104.991 50.0172 105.685 49.7823 106.4 49.6299C107.069 49.9914 107.663 50.4767 108.15 51.0599C109.37 52.3599 109.48 52.6399 109.3 53.8299C109.16 54.6399 109.23 55.2299 109.48 55.3699C109.9 55.6499 110 57.6799 109.62 57.6799C109.075 57.5942 108.536 57.4672 108.01 57.2999C107.386 57.1061 106.726 57.0582 106.08 57.1599C105.63 57.3299 106.08 57.6799 107.59 58.4499C108.493 58.8456 109.334 59.3675 110.09 59.9999C110.62 60.6299 109.92 63.7199 108.73 66.2399C105.82 72.2399 104.53 76.6399 103.3 84.8699C103.065 87.2038 102.461 89.4855 101.51 91.6299C100.666 93.2296 100.201 95.0019 100.15 96.8099C99.9002 99.8099 99.9002 99.8099 98.8502 100.14C98.2902 100.32 97.0302 100.84 96.0502 101.3C94.5802 101.96 91.9502 103.12 85.4702 105.89C84.3902 106.38 84.3202 106.34 83.8602 105.43ZM46.4902 95.7299C46.4902 93.6599 46.9502 93.0299 47.8202 93.8699C48.3102 94.3999 48.3102 94.5699 47.7202 95.8699C46.7702 97.9299 46.4902 97.8999 46.4902 95.7299Z" fill="#6A5439"/>
<path d="M88.3803 93.0001C87.7103 89.7101 87.9603 88.4801 89.2903 88.4801C90.0303 88.4801 90.0303 88.4101 89.4303 91.2201C88.8703 93.7701 88.6203 94.1901 88.3803 93.0001ZM38.7603 80.3501C38.7603 78.6401 40.2003 76.8201 42.3403 75.7601C44.768 74.8657 47.2624 74.1635 49.8003 73.6601C60.4403 71.3501 66.4303 68.4101 66.4303 65.5001V64.6301L64.7903 65.8501C63.7754 66.5757 62.7204 67.2434 61.6303 67.8501C59.5703 68.8501 53.7203 70.2401 49.3103 70.7301C43.2503 71.3201 39.1803 72.6501 36.7003 74.7301L35.5103 75.7301L35.7503 74.7301C36.1703 72.9801 40.3403 67.0601 42.4803 65.1001C49.4103 58.7301 54.8003 56.4901 62.5803 56.7301C66.4303 56.8401 66.7103 56.9101 68.8803 58.1001C74.3503 61.1001 74.8803 65.2101 70.4603 69.6901C67.8732 72.1086 64.8401 74.0005 61.5303 75.2601C59.6403 75.8501 58.3803 76.0301 47.9803 77.1201C42.6203 77.7101 41.1503 78.2701 40.0603 80.1201C39.1103 81.7901 38.7603 81.8601 38.7603 80.3501ZM85.8903 79.4401C84.9468 79.2207 84.0562 78.8162 83.2703 78.2501C83.2703 78.2501 84.8803 78.1501 86.8403 78.1101C89.4003 78.1101 90.7603 78.2201 91.6403 78.6001C92.7603 79.0601 92.8303 79.1601 92.2003 79.4101C90.1134 79.7733 87.9804 79.7834 85.8903 79.4401Z" fill="#6A5439"/>
<path d="M83.6503 76.3996C78.7503 75.0596 74.1603 71.8096 73.4203 69.1796C73.0403 67.7096 73.5603 64.3496 74.1603 64.3496C74.3403 64.3496 74.7903 64.7996 75.1603 65.3496C77.8727 68.2405 80.8639 70.8565 84.0903 73.1596C86.875 74.1445 89.776 74.763 92.7203 74.9996C94.7203 75.2096 96.9303 75.9396 96.9303 76.3996C95.3907 76.532 93.8444 76.5688 92.3003 76.5096C89.7503 76.5096 87.1903 76.5796 86.5903 76.6796C85.6015 76.7571 84.6067 76.6624 83.6503 76.3996ZM38.1603 75.6596C38.2303 74.8196 38.6503 74.4996 40.6803 73.5196C42.7103 72.5396 43.9003 72.2596 48.5603 71.6696C51.5603 71.3196 54.7903 70.8596 55.7003 70.6696C56.6103 70.4796 57.2803 70.4896 57.1003 70.6696C56.4403 71.2296 54.4103 71.7896 48.7003 72.9096C43.7003 73.9096 42.2503 74.3096 40.3603 75.3596L38.0503 76.6296L38.1603 75.6596Z" fill="#6A5439"/>
<path d="M89.4003 73.6599C85.1603 72.5799 81.5903 70.4799 77.5203 66.7599C75.1103 64.5599 74.6903 63.5399 75.0703 60.9499L75.3903 58.9499L77.6603 58.8399C80.9203 58.6999 82.5003 59.1899 85.6603 61.4299C91.0203 65.2499 92.1403 67.1799 87.6603 64.8699L85.2103 63.6099L86.7903 64.9699C87.6603 65.7099 88.7103 66.6899 89.1703 67.1799C90.4003 68.4699 93.1703 72.7499 93.2303 73.4099C93.2903 74.0699 91.7403 74.2599 89.4003 73.6599ZM39.8403 64.6999C39.8403 63.9299 41.9703 60.1799 44.0703 57.2399C48.8003 50.5799 55.2103 46.7599 61.7303 46.6899C63.4123 46.5724 65.0918 46.9514 66.5603 47.7799C70.0603 49.4599 71.5603 50.7199 72.7903 53.3499C73.6076 54.7616 74.0258 56.3688 74.0003 57.9999C74.0003 61.5699 73.6503 61.6799 70.9203 59.1199C69.6604 57.753 68.048 56.7599 66.2603 56.2499C60.6903 54.5399 52.3603 55.8999 46.7503 59.4699C45.299 60.4839 43.9191 61.5965 42.6203 62.7999C40.1503 65.0799 39.8403 65.3299 39.8403 64.6999Z" fill="#6A5439"/>
<path d="M85.6501 59.9C82.7401 58.32 82.5001 58.29 78.9601 58.11L75.3201 57.94L75.0701 55.63C74.9001 53.7 74.9701 53.24 75.4601 52.89C77.1401 51.63 81.0201 53.21 84.8401 56.71C87.1501 58.85 89.5001 61.54 88.9801 61.51C87.8418 61.0341 86.7301 60.4967 85.6501 59.9ZM28.1401 56.26C22.7501 55.52 18.2301 54.79 18.1401 54.65C18.0252 53.2683 18.0823 51.8776 18.3101 50.51C18.5901 47.61 18.8401 46.66 19.2201 46.59C19.8901 46.45 39.5401 51.59 39.9201 51.98C40.3001 52.37 38.7301 57.45 38.2801 57.55C38.0501 57.59 33.5001 57 28.1401 56.26ZM22.8501 53C23.2248 52.5678 23.4433 52.0223 23.4705 51.451C23.4977 50.8797 23.332 50.3158 23.0001 49.85C22.8447 49.6721 22.6514 49.5314 22.4344 49.4381C22.2174 49.3448 21.9822 49.3013 21.7462 49.3109C21.5102 49.3205 21.2793 49.3829 21.0706 49.4935C20.8619 49.6041 20.6806 49.7601 20.5401 49.95C20.2788 50.416 20.1595 50.9483 20.1968 51.4814C20.2341 52.0144 20.4264 52.5249 20.7501 52.95C21.4501 53.63 22.0001 53.63 22.8501 53ZM90.0001 51.14C88.0001 47.64 87.4401 46.55 87.7601 46.38C88.5601 45.89 110.07 39.83 110.45 39.97C110.576 40.0135 110.681 40.1018 110.746 40.2181C110.81 40.3343 110.83 40.4703 110.8 40.6C110.614 41.6789 110.487 42.7672 110.42 43.86C110.397 44.8757 110.243 45.8841 109.96 46.86C109.82 47.01 105.8 48.48 100.96 50.16C96.1201 51.84 92.0001 53.31 91.7801 53.38C91.5601 53.45 90.7601 52.47 90.0001 51.14ZM109.54 43.72C110.07 42.72 109.61 41.93 108.54 41.93C107.47 41.93 107 42.67 107.32 43.72C107.54 44.59 109 44.59 109.53 43.72H109.54ZM28.3501 47.43L24.0001 46.31L24.2101 45.08C24.4123 44.1522 24.7175 43.2499 25.1201 42.39L25.8201 40.95L24.4301 38C23.2001 35.62 23.0601 35.06 23.4301 34.68C24.5101 33.59 37.4301 25.85 38.5201 25.68C39.2799 25.5049 39.9739 25.1163 40.5201 24.56C41.6529 23.6534 42.9003 22.9002 44.2301 22.32C45.6138 21.7204 46.9509 21.0185 48.2301 20.22C49.6301 19.22 50.8201 19.41 50.9601 20.6C51.0301 21.3 50.5801 22.11 48.9601 23.93C47.0301 26.14 45.1401 28.93 42.1601 34.23C41.3362 35.6818 40.1424 36.8894 38.7001 37.73C36.8001 38.99 36.3101 39.48 36.3101 40.18C36.2556 40.802 36.0534 41.402 35.7201 41.93C35.0815 43.0827 34.575 44.3037 34.2101 45.57C33.958 46.5867 33.5498 47.5583 33.0001 48.45C31.4328 48.1945 29.8805 47.854 28.3501 47.43ZM93.1101 41.86C91.6001 37.66 91.1801 36.68 90.7601 36.68C90.3401 36.68 89.8901 36.08 89.4301 35.35C88.6601 34.12 88.3401 33.95 86.3501 33.53C83.6201 32.97 83.4401 32.86 79.8701 30.44C78.0363 29.0415 75.8801 28.1268 73.6001 27.78C72.3764 27.583 71.1854 27.2196 70.0601 26.7C69.6801 25.37 71.8101 24.77 77.5901 24.59C81.7601 24.49 81.9701 24.42 83.7201 23.3C85.1901 22.35 85.4001 22.11 84.7201 22.04C84.032 22.0439 83.3517 22.1867 82.7201 22.46C80.6501 23.33 79.9501 23.19 78.8701 21.58C77.3732 19.8782 75.7448 18.2967 74.0001 16.85C69.6601 13.11 69.0001 12.3 69.4801 11.78C69.9601 11.26 71.8601 12.27 74.8401 14.26C76.9101 15.66 82.8401 19.17 83.0701 19.17C84.0701 19.17 78.0701 11.99 73.7501 7.91999C72.1101 6.37999 71.5801 5.11999 72.3901 4.62999C72.9501 4.27999 74.7401 5.39999 80.5101 9.73999C85.9401 13.84 87.8701 14.96 85.8401 12.83C82.7767 9.98592 79.4858 7.39729 76.0001 5.08999C74.2501 4.08999 73.5801 3.29999 74.0001 2.66999C74.0845 2.56653 74.1914 2.48386 74.3128 2.42837C74.4342 2.37288 74.5667 2.34606 74.7001 2.34999C75.5801 2.34999 81.2101 5.34999 84.5801 7.56999C87.9501 9.78999 89.3801 11.36 88.8101 12.2C88.2401 13.04 88.4601 13.25 89.3101 13.04C89.6361 12.9857 89.9703 13.0081 90.2862 13.1053C90.6021 13.2025 90.891 13.3718 91.1301 13.6L92.1301 14.4L91.9201 12.62C91.51 10.7048 90.8999 8.83789 90.1001 7.04999C88.4801 3.29999 88.4501 2.48999 89.7801 2.76999C91.3901 3.05999 96.7801 13.21 98.1901 18.47C99.3101 22.67 99.5901 26.52 98.9601 28.62C98.4701 30.16 98.5001 30.27 99.7301 33.18C101.41 37.06 102.35 39.76 102.14 40.01C101.93 40.26 94.0001 42.63 93.6301 42.63C93.4901 42.63 93.2801 42.28 93.1101 41.86ZM21.8701 32.58C21.5901 32.09 19.2101 24.58 18.1201 20.71C17.0001 16.64 16.8301 15 17.5301 15C18.0501 15 19.1401 16.75 21.9701 22C23.1701 24.2 24.2901 26.17 24.4601 26.38C24.9901 26.9 24.8501 25.99 24.1801 24.66L23.6201 23.43L25.1301 20.88C27.8601 16.25 29.3301 14.29 30.0301 14.29C30.4201 14.29 31.3301 15.1 32.2401 16.29C33.4619 17.7576 34.7569 19.1627 36.1201 20.5C38.5101 22.74 38.8201 23.5 37.6701 24.21C36.8601 24.7 34.5801 23.61 32.3101 21.62L30.6301 20.15L30.1701 20.99C29.6101 21.99 29.5401 23.23 30.0301 23.54C30.2101 23.65 30.4501 23.37 30.5901 22.88L30.8001 22L33.2201 23.61C34.0547 24.1052 34.8385 24.6813 35.5601 25.33C35.3501 25.51 22.2901 32.83 22.1501 32.83C22.0885 32.8103 22.0317 32.7779 21.9835 32.7348C21.9352 32.6918 21.8966 32.639 21.8701 32.58ZM37.8801 21.06L36.1901 19.06L37.2401 18.22C39.5601 16.33 39.7701 16.4 40.8901 19.73L41.5901 21.79L40.8201 22.39C40.5212 22.6502 40.1839 22.8627 39.8201 23.02C39.0995 22.4443 38.4484 21.7865 37.8801 21.06ZM34.2401 16.68C33.6101 15.87 33.2401 15.14 33.4401 14.96C34.3801 14.433 35.3637 13.988 36.3801 13.63C37.8101 13.04 40.2301 11.92 41.7401 11.11L44.4301 9.63999V10.55C44.4301 11.22 43.7301 12.02 41.5601 13.91C40.1495 15.1713 38.6227 16.2963 37.0001 17.27L35.3501 18.12L34.2401 16.68Z" fill="#6A5439"/>
<path d="M54.3403 114.359C53.966 113.698 53.7728 112.949 53.7803 112.189C53.6981 111.351 53.5577 110.519 53.3603 109.699C53.1803 109.319 53.4603 108.699 54.1603 107.919C54.5161 107.63 54.786 107.249 54.9411 106.817C55.0962 106.385 55.1305 105.919 55.0403 105.469C54.8303 104.239 55.5603 101.329 56.1203 101.229C56.3003 101.229 57.0303 102.029 57.7703 103.119C58.6457 104.428 59.8218 105.508 61.2003 106.269C61.9793 106.636 62.6897 107.133 63.3003 107.739C63.3003 107.879 62.8803 107.989 62.3603 108.019C61.4375 108.102 60.5239 108.266 59.6303 108.509L57.8703 108.999H60.8703C62.5203 108.999 64.3403 108.999 64.8703 109.069H65.9203L65.0403 109.459C60.9103 111.179 58.3503 112.459 57.0903 113.459C55.6303 114.639 55.0003 114.849 54.3403 114.359ZM78.7103 111.629C77.5187 111.041 76.2771 110.559 75.0003 110.189C72.3303 109.389 71.1803 108.649 72.0003 108.299C72.4603 108.129 78.0003 109.389 79.7803 110.049C80.2003 110.229 80.3703 110.119 80.3703 109.739C80.3703 108.969 78.3103 108.129 75.9303 107.879C75.2142 107.858 74.5101 107.691 73.8603 107.389C73.7903 107.219 74.4603 106.729 75.4003 106.239C76.6468 105.509 77.779 104.6 78.7603 103.539C79.6703 102.539 80.5103 101.859 80.6903 102.029C81.1052 102.788 81.4693 103.573 81.7803 104.379C82.4403 106.059 82.5103 106.549 82.1603 107.289C81.9323 108.023 81.8741 108.8 81.9903 109.559C82.1064 109.909 82.1315 110.283 82.0633 110.645C81.995 111.007 81.8357 111.346 81.6003 111.629C80.9203 112.499 80.2903 112.499 78.7103 111.629ZM68.1403 108.929C67.5803 108.829 67.1403 108.549 67.1403 108.269C67.1403 107.989 67.6303 107.779 69.0603 107.779C70.4903 107.779 70.9903 107.879 70.9903 108.299C70.9929 108.366 70.9824 108.433 70.9592 108.496C70.936 108.559 70.9007 108.617 70.8551 108.666C70.8096 108.715 70.7549 108.755 70.694 108.783C70.6331 108.811 70.5672 108.827 70.5003 108.829C70.2203 108.829 69.8003 108.899 69.5003 108.929C69.0494 108.997 68.5911 108.997 68.1403 108.929Z" fill="#55514C"/>
<path d="M63.0002 106.17C61.0849 105.366 59.5035 103.929 58.5202 102.1C56.6526 99.1851 54.2218 96.6726 51.3702 94.7099C49.3102 93.3799 47.4502 91.4599 47.0702 90.2999C46.9783 90.048 46.8235 89.8239 46.6204 89.6488C46.4174 89.4738 46.1729 89.3536 45.9102 89.2999C45.3902 89.1999 44.7202 89.0199 44.4402 88.9499C43.2102 88.6399 40.2402 82.8599 40.6902 81.6699C41.0102 80.8299 43.8802 79.1498 46.3302 78.3399C48.6936 77.7335 51.1129 77.3716 53.5502 77.2599C59.5502 76.7999 61.7802 76.2598 65.1402 74.6299C65.9729 74.1394 66.8675 73.7627 67.8002 73.5099C67.3057 74.2153 66.6974 74.8337 66.0002 75.3399C64.0002 77.0599 64.2202 77.2699 67.0002 76.4299C69.1233 75.7629 70.9275 74.3394 72.0702 72.4299C72.3319 71.9159 72.6689 71.444 73.0702 71.0299C73.5281 71.5004 73.9185 72.0321 74.2302 72.6099C75.9102 75.4099 82.9502 80.0699 86.7302 80.8699C88.9402 81.3299 89.8502 82.2399 89.2902 83.4999C88.7302 84.7599 88.7602 85.2899 89.4302 84.6599C89.8561 84.0689 90.193 83.4186 90.4302 82.7299C90.9202 81.2599 91.2302 81.0499 91.9702 81.4999C92.3902 81.7799 92.3502 82.0599 91.8602 83.3599C90.8602 85.8499 89.6902 87.1099 88.1502 87.3599C87.1502 87.5399 86.7102 87.8199 86.4002 88.5899C85.0555 90.6491 83.2116 92.3347 81.0402 93.4899C79.2902 94.1199 79.3902 94.6099 81.1802 94.3299C82.5802 94.0899 82.6202 94.1199 82.3702 94.8899C81.5072 97.3493 80.2398 99.6476 78.6202 101.69C76.9102 103.69 73.1602 105.5 69.5202 106.24C66.1502 106.91 64.5202 106.91 62.9302 106.24L63.0002 106.17ZM62.4802 101.51C63.0402 98.8499 67.5902 97.2699 70.4802 98.7399C71.3602 99.1999 71.2202 98.4599 70.3102 97.8299C69.4002 97.1999 65.7502 97.1299 63.7202 97.8999C63.2556 98.023 62.8292 98.2604 62.4799 98.5905C62.1306 98.9207 61.8694 99.333 61.7202 99.7899C61.2302 101.09 61.4102 103.08 62.0002 102.7C62.2265 102.338 62.3731 101.933 62.4302 101.51H62.4802ZM61.7402 95.6599C63.2802 95.1299 63.4902 95.1299 64.7402 95.7299C65.9902 96.3299 66.1702 96.3199 68.3502 95.5499C69.3189 95.1253 70.3745 94.9368 71.4302 94.9999C72.3702 95.2499 73.0702 94.6498 72.5102 94.0899C72.2302 93.8099 68.0702 94.4399 66.7002 94.9999C66.4385 95.0606 66.1664 95.0607 65.9046 95C65.6429 94.9394 65.3985 94.8196 65.1902 94.6499C64.6715 94.3094 64.0726 94.1109 63.4532 94.074C62.8339 94.0372 62.2157 94.1633 61.6602 94.4399C61.1533 94.6713 60.6069 94.8037 60.0502 94.8299C59.8166 94.8231 59.584 94.863 59.3659 94.9471C59.1479 95.0312 58.9488 95.1579 58.7802 95.3199C58.3602 95.8099 58.5402 95.9099 59.8402 96.1899C60.4685 96.0565 61.0867 95.8794 61.6902 95.6599H61.7402ZM68.4302 91.8399C68.839 91.0796 69.3848 90.4016 70.0402 89.8399C70.9202 89.3099 70.8802 88.8399 70.0402 88.8399C69.2518 89.1025 68.5568 89.5889 68.0402 90.2399C66.5702 91.8199 66.1802 91.9299 65.4102 91.0499C65.0302 90.5899 64.8502 89.6799 64.8902 87.8999C64.9785 86.5728 64.6686 85.2497 64.0002 84.0999C63.2302 82.8399 63.2302 82.7999 63.8902 82.0999C64.7586 81.2881 65.2964 80.184 65.4002 78.9999C65.4002 78.2599 65.2602 78.3298 64.0002 79.6999C62.7402 81.0699 62.5302 81.1999 61.3102 81.0299C59.2402 80.7099 53.7802 80.1199 52.7302 80.1199C51.9396 80.2241 51.2016 80.5739 50.6202 81.1199L49.5002 82.1199L52.1302 81.9999C55.2102 81.7899 61.4502 82.7399 62.2902 83.5099C62.9202 84.0699 63.6502 86.5098 63.6502 87.9899C63.552 88.6916 63.2494 89.3489 62.7802 89.8799C61.9402 90.8799 61.9402 90.9699 62.5302 91.1399C63.1387 91.4812 63.6945 91.909 64.1802 92.4099C64.4419 92.7206 64.7678 92.9709 65.1355 93.1435C65.5032 93.3162 65.904 93.407 66.3102 93.4099C67.3002 93.4199 67.5802 93.2099 68.3802 91.8399H68.4302ZM44.6302 85.4299C44.1978 84.8493 43.8447 84.2137 43.5802 83.5399C42.9202 81.9299 42.2902 81.8199 42.2902 83.2599C42.2834 83.5798 42.3492 83.8972 42.4825 84.1882C42.6159 84.4791 42.8134 84.7361 43.0602 84.9399C43.4402 85.2599 44.0602 85.7799 44.3502 86.0599C45.0902 86.7598 45.3402 86.1999 44.6302 85.4299ZM80.6302 85.7499C81.3907 85.239 82.0976 84.6527 82.7402 83.9999C83.4402 83.2299 83.4102 83.2299 81.7402 84.1099C79.3202 85.3299 76.5202 85.6099 74.9502 84.8099C72.9502 83.8099 73.1902 83.3699 75.6802 83.3999C77.6802 83.3999 81.2502 82.5999 81.9902 81.9299C82.1602 81.7899 80.7902 81.7599 78.9902 81.8299C75.2402 81.9999 70.7902 81.4099 69.9902 80.6399C69.5947 80.189 69.3195 79.6455 69.1902 79.0599C68.8702 77.4499 68.1402 77.7999 68.3802 79.4799C68.4569 80.2664 68.7689 81.0116 69.2755 81.6181C69.7821 82.2247 70.4599 82.6644 71.2202 82.8799C71.9502 83.0899 72.3402 83.3998 72.4102 83.8799C72.5502 84.8799 73.2102 85.3799 74.8302 85.7999C75.5602 85.9799 76.6502 86.2599 77.2102 86.4299C78.8502 86.8699 79.2402 86.7999 80.6702 85.7499H80.6302ZM57.3802 85.8499C58.2414 85.4663 59.1491 85.1973 60.0802 85.0499C61.4802 84.8399 61.6202 84.7699 60.9902 84.4199C60.0788 84.1457 59.1144 84.0976 58.1802 84.2799C56.8496 84.401 55.5108 84.401 54.1802 84.2799C53.2472 84.1336 52.294 84.1812 51.3802 84.4199C50.4702 84.8099 50.4702 84.8099 51.8702 85.0499C52.6773 85.1622 53.4531 85.4378 54.1502 85.8599C55.2502 86.5499 56.0002 86.5499 57.4202 85.8499H57.3802ZM28.1002 56.2199C22.7102 55.4499 18.1902 54.7499 18.1002 54.6099C17.7102 54.2199 18.6202 46.7299 19.0402 46.6099C19.4602 46.4899 39.5002 51.6099 39.8502 51.9999C40.2002 52.3899 38.5502 57.7499 38.1702 57.6799C38.0002 57.6199 33.5002 56.9999 28.1002 56.2199ZM23.1002 52.7499C23.4557 52.3252 23.6421 51.7843 23.6236 51.2307C23.6052 50.6772 23.3832 50.1499 23.0002 49.7499C22.6748 49.4781 22.2642 49.3293 21.8402 49.3293C21.4162 49.3293 21.0057 49.4781 20.6802 49.7499C20.3948 50.2443 20.2563 50.8099 20.2811 51.3803C20.3059 51.9506 20.4929 52.5021 20.8202 52.9699C21.5202 53.6999 22.1802 53.6299 23.0602 52.7499H23.1002ZM90.0002 51.1399C88.0002 47.6399 87.4402 46.5499 87.7602 46.3799C88.0802 46.2099 109.86 39.8299 110.31 39.8299C110.76 39.8299 110.42 46.4499 109.96 46.8999C109.82 47.0499 105.87 48.4799 101.14 50.1299C96.4102 51.7799 92.3102 53.1299 91.9602 53.3099C91.6102 53.4899 91.0802 52.9999 90.0002 51.1399ZM109.72 43.3299C109.779 43.1431 109.796 42.9458 109.771 42.7517C109.747 42.5575 109.68 42.371 109.577 42.2048C109.473 42.0387 109.335 41.8969 109.172 41.789C109.008 41.6811 108.824 41.6098 108.63 41.5799C108.252 41.6734 107.907 41.8709 107.635 42.1501C107.363 42.4293 107.174 42.7791 107.09 43.1599C107.162 43.5456 107.359 43.8969 107.65 44.1599C108.31 44.8399 109.36 44.4199 109.71 43.3299H109.72ZM28.3502 47.4299L24.0002 46.3099L24.2102 45.1199C24.4398 44.1966 24.7441 43.2937 25.1202 42.4199L25.8202 40.9499L24.6002 38.4599C24.0382 37.4724 23.6143 36.4125 23.3402 35.3099C23.3402 34.7899 25.0502 33.5599 30.2002 30.3699C32.8143 28.6668 35.5293 27.124 38.3302 25.7499C39.1306 25.5136 39.8708 25.1078 40.5002 24.5599C41.7202 23.3999 49.8502 19.4099 50.5002 19.6599C51.5002 20.0399 51.0602 21.5799 49.2402 23.5799C46.7958 26.4882 44.6641 29.6456 42.8802 32.9999C41.562 35.2556 39.7115 37.1542 37.4902 38.5299C37.1294 38.6856 36.8198 38.9399 36.5969 39.2636C36.374 39.5872 36.247 39.9672 36.2302 40.3599C36.1415 41.0079 35.9129 41.629 35.5602 42.1799C34.9949 43.2477 34.5489 44.3744 34.2302 45.5399C33.9663 46.5653 33.5518 47.546 33.0002 48.4499C31.4329 48.1943 29.8806 47.8538 28.3502 47.4299ZM93.0702 41.7599C92.9002 41.2699 92.7202 40.7599 92.7202 40.7599C92.7202 39.9499 91.1502 36.7599 90.7202 36.7599C90.2902 36.7599 89.8502 36.1599 89.3902 35.4299C88.6502 34.2399 88.3402 34.0599 85.8902 33.4299C83.7411 32.9249 81.7299 31.9517 80.0002 30.5799C77.1002 28.5799 76.4002 28.3099 73.5202 27.7499C72.3377 27.5998 71.1905 27.2445 70.1302 26.6999C69.6402 25.3699 71.7002 24.7699 77.5502 24.5899C81.7202 24.4899 81.9302 24.4199 83.6802 23.2999C85.1502 22.3499 85.3602 22.1099 84.6802 22.0399C83.9921 22.0438 83.3118 22.1866 82.6802 22.4599C80.6802 23.3299 79.9802 23.1599 78.7602 21.4599C77.1826 19.6983 75.4852 18.0477 73.6802 16.5199C69.8602 13.2299 68.8802 12.0799 69.5502 11.6599C69.9702 11.4099 72.2802 12.5699 74.9102 14.3499C76.9102 15.7199 82.7902 19.1899 83.0702 19.1899C84.0702 19.1899 80.3002 14.5999 74.5602 8.70986C72.1402 6.25986 71.5602 5.13986 72.3502 4.64986C72.8844 4.60208 73.42 4.72459 73.8802 4.99986C77.7315 7.57442 81.4434 10.3517 85.0002 13.3199C85.1469 13.4953 85.3284 13.6383 85.5332 13.7399C85.7381 13.8415 85.9618 13.8993 86.1902 13.9099C86.8602 13.9099 86.8202 13.8399 85.8802 12.8299C82.8522 9.98268 79.5833 7.40304 76.1102 5.11986C74.2702 4.10986 73.6002 3.29986 74.0002 2.66986C74.4002 2.03986 75.1602 2.31986 78.1002 3.78986C81.7402 5.60986 86.4002 8.68986 87.9702 10.3099C88.9702 11.3099 89.1002 11.6699 88.8502 12.1999C88.3202 13.1399 88.4302 13.3199 89.3402 13.0699C89.6616 13.0098 89.9929 13.0294 90.3049 13.127C90.617 13.2247 90.9004 13.3973 91.1302 13.6299L92.1302 14.3999L91.9202 12.6199C91.5312 10.7124 90.9308 8.85432 90.1302 7.07986C89.4927 5.78461 89.0223 4.41364 88.7302 2.99986C89.0502 2.46986 90.1302 2.64986 90.7302 3.31986C92.7015 6.14777 94.4341 9.13473 95.9102 12.2499C98.6502 18.0599 100.05 25.4899 98.9102 28.5299L98.3902 30.0399L100.28 34.6299C101.004 36.2596 101.635 37.9289 102.17 39.6299C102.17 39.9799 99.7502 40.8599 94.0402 42.4999C93.6002 42.6299 93.3202 42.3899 93.0702 41.7599ZM21.8702 32.5799C21.5502 32.0499 18.4002 21.7599 17.7402 19.1999C16.9702 16.1999 16.9002 14.9599 17.5302 14.9599C18.1602 14.9599 20.3602 18.7499 22.4302 22.8399C24.3602 26.6599 25.5802 27.8399 24.2202 24.5899L23.6902 23.2999L25.5102 20.2499C29.7502 13.3199 29.9202 13.2499 32.1002 16.1199C33.3159 17.618 34.6181 19.0437 36.0002 20.3899C36.9596 21.2261 37.7977 22.1921 38.4902 23.2599C38.4902 23.5399 38.1002 23.8899 37.6502 24.0999C36.6502 24.5899 34.5302 23.5799 32.3202 21.5499C31.4802 20.7799 30.6402 20.2499 30.4702 20.3599C29.9002 20.7099 29.5902 23.0199 30.0102 23.4399C30.4302 23.8599 30.4702 23.5399 30.6102 22.9099L30.8002 21.9999L33.2202 23.6099C34.0508 24.0814 34.8257 24.645 35.5302 25.2899C35.3502 25.4699 22.2902 32.7899 22.1502 32.7899C22.0329 32.7595 21.9322 32.684 21.8702 32.5799ZM38.1602 21.2999C37.5676 20.6738 37.0476 19.9827 36.6102 19.2399C36.5402 19.0599 37.1402 18.3999 37.8802 17.7999C39.5202 16.4699 39.7302 16.6099 40.8802 19.6599L41.6502 21.7599L40.8502 22.3899C40.5513 22.6501 40.214 22.8626 39.8502 23.0199C39.2256 22.5102 38.6588 21.9334 38.1602 21.2999ZM34.1002 16.4999C33.5802 15.7999 33.3002 15.1399 33.4402 14.9599C34.3802 14.4329 35.3638 13.9879 36.3802 13.6299C37.8102 13.0399 40.2302 11.9199 41.7402 11.1099L44.4302 9.63986V10.5499C44.4302 11.9499 37.4302 17.6999 35.6402 17.7699C35.3302 17.7699 34.6302 17.1999 34.1002 16.4999Z" fill="#55514C"/>
<path d="M46.7001 95.6197C46.9801 93.6197 47.0201 93.5597 47.7001 94.1197C48.1901 94.4697 48.1601 94.7097 47.5601 95.8997C47.3471 96.4103 47.0382 96.8753 46.6501 97.2697C46.545 96.7227 46.5621 96.1593 46.7001 95.6197ZM88.4101 92.3997C88.1301 91.1097 88.1001 88.8597 88.3101 88.8597C88.5652 88.8087 88.8136 88.7281 89.0501 88.6197C89.6101 88.4397 89.6401 88.6197 89.4001 90.2997C89.296 91.1664 89.1187 92.0228 88.8701 92.8597C88.6601 93.4197 88.5901 93.3497 88.4101 92.3997ZM38.4301 79.9997C38.4301 78.4997 39.6901 76.8897 41.5501 75.8997C43.8064 75.1172 46.1113 74.4825 48.4501 73.9997C55.4501 72.4297 57.1001 71.9397 60.4501 70.4297C64.0601 68.7797 65.3201 67.7697 65.8101 66.0897C66.0093 65.5814 66.0747 65.0305 66.0001 64.4897C65.8901 64.3497 65.0901 64.8397 64.2501 65.5397C63.1612 66.3545 61.9996 67.0675 60.7801 67.6697C58.3301 68.7897 52.3701 70.1297 47.5701 70.6697C43.2701 71.1297 39.1701 72.3497 37.0001 73.8197C36.1601 74.3797 35.4201 74.6997 35.3501 74.5197C35.7768 73.3742 36.3553 72.2912 37.0701 71.2997C41.0001 64.9997 47.4301 59.7897 53.6301 57.8297C55.954 57.1168 58.381 56.799 60.8101 56.8897C64.9101 56.8197 65.3701 56.8897 67.1501 57.7297C70.3401 59.2297 72.7601 61.7297 72.7601 63.5397C72.5997 65.3867 71.8615 67.1362 70.6501 68.5397C68.3165 71.031 65.5391 73.0657 62.4601 74.5397C60.5701 75.3797 56.1201 76.1897 50.5201 76.6497C41.9401 77.3497 40.8801 77.6497 39.2401 80.1497L38.4301 81.2997V79.9997ZM86.9401 79.4097C86.0996 79.324 85.2751 79.1221 84.4901 78.8097C83.9001 78.4297 84.1801 78.3597 86.2401 78.2897C89.6801 78.1797 90.8701 78.2897 91.7101 78.7397C92.0901 78.9497 92.3701 79.1597 92.3001 79.1997C92.0001 79.4797 88.4801 79.6197 86.9401 79.4097ZM82.5301 75.8697C77.6301 74.1497 74.0501 71.4197 73.6001 69.0797C73.3901 67.8797 73.6701 64.6997 74.0201 64.6997C74.7319 65.2656 75.4005 65.884 76.0201 66.5497C79.0201 69.5497 82.9501 72.8197 84.4901 73.4897C85.7901 74.0797 89.2601 74.7797 93.8101 75.3797C94.5752 75.4322 95.321 75.6434 96.0001 75.9997C96.4601 76.3497 95.3401 76.4197 90.5101 76.4597C85.3301 76.5397 84.1401 76.4297 82.5301 75.8697Z" fill="#895730"/>
<path d="M38.0903 75.7997C38.0903 74.2197 42.2203 72.6097 48.2403 71.9097C50.8303 71.5997 53.6003 71.2497 54.3703 71.1397C57.4203 70.7896 54.0903 71.6997 48.5603 72.7497C44.3203 73.5597 42.3203 74.1196 40.7503 74.9597C39.5603 75.5896 38.5103 76.1097 38.3703 76.1797C38.2303 76.2497 38.0903 76.0797 38.0903 75.7997ZM90.6203 73.7696C86.9403 73.0696 84.1103 71.6996 80.2503 68.7696C75.6003 65.2396 74.7903 64.0497 75.1103 61.0996C75.2803 59.1796 75.3203 59.0997 76.5103 58.9997C78.8203 58.7197 82.6403 59.3496 83.7603 60.1896C84.3503 60.6096 85.7603 61.5597 86.7603 62.2997C88.6503 63.5196 90.4103 65.2997 90.0903 65.6197C89.3829 65.4851 88.7054 65.2243 88.0903 64.8496C87.2027 64.3946 86.2914 63.9874 85.3603 63.6297C84.5203 63.3097 84.5503 63.3797 85.6403 64.2197C89.1103 66.8797 92.9903 71.7897 92.9903 73.5397C93.0703 74.2197 92.9303 74.2196 90.6203 73.7696ZM39.8403 64.5197C39.8403 63.8597 42.0103 60.2097 43.9303 57.5897C46.2922 54.3646 49.2114 51.5876 52.5503 49.3897C55.6252 47.6958 59.0903 46.8373 62.6003 46.8997C64.666 47.0925 66.6569 47.771 68.4104 48.8797C70.1639 49.9885 71.6305 51.4961 72.6903 53.2796C73.4603 54.7896 73.6003 55.5196 73.6303 57.9396C73.6913 58.9824 73.6106 60.0286 73.3903 61.0497C73.2503 61.1897 72.3903 60.4896 71.5303 59.5096C69.5303 57.2396 67.0503 56.0496 63.3703 55.5096C56.3703 54.5096 47.1603 57.7497 41.9403 63.0797C40.5403 64.5497 39.8403 64.9996 39.8403 64.5096V64.5197Z" fill="#895730"/>
<path d="M86.77 60.28C84.4056 58.6577 81.5739 57.8566 78.71 58C77.6208 58.0712 76.5269 57.9904 75.46 57.76C75.2588 56.9219 75.1647 56.0617 75.18 55.2L75 53L76.82 52.9C79.82 52.72 83.4 54.9 87.08 59.13C89 61.26 88.87 61.79 86.77 60.28Z" fill="#895730"/>
<path d="M54.2698 114C53.948 113.425 53.8019 112.768 53.8498 112.11C53.8632 111.303 53.745 110.499 53.4998 109.73C53.2198 108.96 53.3198 108.64 54.1998 107.66C54.5626 107.354 54.8305 106.95 54.9722 106.497C55.1139 106.043 55.1235 105.559 54.9998 105.1C54.9153 104.108 55.0839 103.11 55.4898 102.2L56.1598 100.66L57.7298 102.86C58.5915 104.259 59.8145 105.399 61.2698 106.16C63.4798 107.35 63.7898 107.77 62.4598 107.77C61.1298 107.77 58.0498 108.54 58.2598 108.85C59.556 109.059 60.874 109.096 62.1798 108.96L65.9298 108.78L63.1298 110C59.8398 111.36 57.1298 112.87 56.3698 113.82C56.2573 113.988 56.1084 114.129 55.9341 114.232C55.7599 114.335 55.5647 114.397 55.3631 114.415C55.1614 114.432 54.9585 114.404 54.7693 114.332C54.58 114.26 54.4093 114.147 54.2698 114ZM79.1698 111.77C77.9454 111.12 76.6546 110.604 75.3198 110.23C73.3198 109.6 72.1998 109.04 72.1298 108.69C72.0598 108.34 72.1298 108.13 72.2998 108.13C72.4698 108.13 78.1198 109.6 79.6898 110.05C80.2498 110.26 80.4598 110.16 80.4598 109.74C80.4598 108.97 78.8498 108.23 76.2598 107.81C75.0698 107.6 74.0198 107.39 73.9498 107.36C74.508 106.882 75.135 106.491 75.8098 106.2C77.0688 105.561 78.1612 104.636 78.9998 103.5C79.4193 102.87 79.9279 102.304 80.5098 101.82C81.0282 102.561 81.4295 103.377 81.6998 104.24C82.5098 106.24 82.5798 106.76 82.2298 107.39C81.9606 108.081 81.898 108.835 82.0498 109.56C82.4298 111.87 80.9998 113 79.1698 111.77ZM68.2398 108.83C68.0393 108.798 67.8474 108.725 67.6756 108.617C67.5038 108.509 67.3556 108.367 67.2398 108.2C67.1698 107.92 67.6898 107.78 69.0598 107.78C70.4298 107.78 71.0598 107.92 71.0598 108.27C70.9998 108.83 69.4698 109.14 68.2398 108.83Z" fill="#7B7870"/>
<path d="M64 106.45C62.444 105.945 61.0054 105.133 59.7701 104.06C59.2833 103.421 58.8358 102.753 58.43 102.06C56.6339 99.2208 54.2879 96.7694 51.53 94.8502C49.6435 93.6701 48.0854 92.0329 47 90.0902C46.836 89.8652 46.6267 89.6769 46.3856 89.5374C46.1445 89.3979 45.8769 89.3103 45.6 89.2802C44.16 89.1102 43.15 88.0202 41.71 85.2202C40.27 82.4202 40.35 81.5102 42.55 80.1102C45.15 78.4602 47.95 77.7602 53.69 77.3402C59.79 76.8902 61.64 76.4702 65.0401 74.7102C65.9271 74.2147 66.8536 73.7933 67.81 73.4502C67.95 73.4502 67.1801 74.2902 66.1201 75.2402L64.18 77.0002L65.68 76.7902C67.0675 76.5748 68.3866 76.0423 69.5348 75.2341C70.683 74.4259 71.6292 73.3637 72.3001 72.1302L73 71.0002L74.4401 72.8902C76.9201 76.0702 83.72 80.4202 87.08 80.9802C87.8144 81.0794 88.5068 81.3806 89.08 81.8502C89.64 82.4802 89.64 82.6202 89.08 83.7502C88.76 84.4102 88.65 84.9702 88.83 84.9702C89.32 84.9702 90.58 82.8302 90.58 82.0602C90.58 81.6102 90.79 81.4302 91.39 81.5402C92.3 81.6802 92.26 82.3402 91.21 84.5402C90.44 86.1502 88.83 87.4102 87.5 87.4102C87.2407 87.4061 86.9879 87.4913 86.7839 87.6516C86.58 87.8118 86.4374 88.0373 86.38 88.2902C85.1902 90.3999 83.4109 92.1167 81.26 93.2302C79.34 93.9603 79.26 94.5902 81.09 94.2302C82.46 94.0202 82.49 94.0202 82.21 94.9602C81.3385 97.3863 80.0861 99.6581 78.5 101.69C76.2901 104.1 71.6001 106 66.7601 106.42C65.8457 106.556 64.9171 106.566 64 106.45ZM62.39 101.68C62.67 100.25 63.3901 99.5102 65.5801 98.6802C67.2867 98.073 69.1582 98.1229 70.8301 98.8202C71.3901 99.0302 71.36 98.8902 70.59 98.0802C69.82 97.2702 69.3601 97.0802 67.7901 97.0802C65.7901 97.0802 62.5301 98.0202 61.9001 98.8002C61.5824 99.321 61.3811 99.9044 61.3101 100.51C61 102.8 62 103.89 62.39 101.68ZM61.9001 95.6802C62.3154 95.4059 62.8022 95.2596 63.3 95.2596C63.7979 95.2596 64.2847 95.4059 64.7 95.6802C66.03 96.2802 66.14 96.2802 68.45 95.5802C69.503 95.2162 70.5989 94.991 71.71 94.9102C72.2701 94.9102 72.62 94.7702 72.71 94.3502C72.8 93.9302 72.64 93.7602 70.96 93.9702C69.858 94.1248 68.7685 94.3588 67.7 94.6702C66.44 95.0902 66.16 95.0502 64.7901 94.3902C63.4201 93.7302 63.18 93.6902 62.0601 94.2502C61.431 94.5518 60.7542 94.7413 60.0601 94.8102C59.0601 94.8102 58.17 95.6802 58.87 95.9602C59.57 96.2402 60.4701 96.2202 61.9001 95.6602V95.6802ZM67.2301 93.3702C67.842 92.7237 68.3911 92.0206 68.8701 91.2702C69.2268 90.6126 69.7174 90.0369 70.31 89.5802C70.3568 89.5832 70.4036 89.5761 70.4474 89.5596C70.4912 89.543 70.5309 89.5173 70.564 89.4842C70.5971 89.4511 70.6228 89.4114 70.6394 89.3676C70.6559 89.3238 70.663 89.277 70.6601 89.2302C70.6601 88.3903 69.08 88.9902 67.89 90.2802C67.4409 90.8569 66.8796 91.3365 66.24 91.6902C65.33 91.6902 64.88 90.4602 64.88 88.0402C64.9543 86.6898 64.6896 85.3423 64.1101 84.1202L63.34 82.6502L64 82.0002C64.7975 81.3177 65.3286 80.3758 65.5 79.3402C65.82 78.0102 65.05 78.0402 64.14 79.4402C63.23 80.8402 62.46 81.1202 58.71 80.6002C56.9561 80.3533 55.1903 80.1998 53.42 80.1402C51.74 80.1402 51.35 80.2502 50.55 81.1402L49.64 82.0802L53.39 82.1502C55.466 82.1923 57.5371 82.3694 59.59 82.6802C61.69 83.0602 62.07 83.2702 62.59 84.1902C63.0046 85.0146 63.288 85.8985 63.43 86.8102C63.5678 87.3129 63.5787 87.8418 63.4618 88.3497C63.3449 88.8576 63.1037 89.3285 62.76 89.7202C62 90.8602 62 91.0002 62.53 91.2102C63.2316 91.5909 63.8804 92.0616 64.46 92.6102C65.8601 93.8702 66.3801 94.0002 67.2301 93.3502V93.3702ZM45.09 86.2702C45.0436 85.8913 44.871 85.5391 44.6 85.2702C44.1609 84.7305 43.8068 84.1269 43.55 83.4802C43.02 82.1802 42.4601 81.8702 42.18 82.6702C41.9 83.4702 42.6401 84.7802 43.7901 85.7902C45.1301 86.9002 45.09 86.9002 45.09 86.2702ZM80.67 85.7502C81.4166 85.2372 82.11 84.651 82.74 84.0002C83.41 83.2302 83.41 83.2302 81.62 84.1402C79.2001 85.3302 75.4201 85.4402 74.2301 84.3502C73.0401 83.2602 73.23 83.1902 75 83.4402C76.7701 83.6902 80.67 82.8802 81.76 82.0402C82.29 81.6502 81.9401 81.6202 79.4101 81.7902C76.0501 82.0002 71.25 81.4402 70.1 80.6702C69.6015 80.2942 69.2624 79.7445 69.1501 79.1302C68.84 77.6602 68.21 77.7702 68.21 79.2402C68.2967 80.0829 68.6264 80.8821 69.1591 81.5408C69.6917 82.1995 70.4042 82.6891 71.21 82.9502C71.98 83.1902 72.4401 83.5802 72.5101 84.1102C72.6101 84.8802 73.3101 85.3302 75.9401 86.2102C78.2201 87.0002 79.13 86.8702 80.67 85.7502ZM57.35 85.8902C58.1913 85.5064 59.084 85.247 60 85.1202C61.5401 84.9102 62.17 84.3502 61 84.2802C57.8801 84.1002 52.1001 84.1702 51.3301 84.4502C50.1001 84.8402 50.73 85.4502 52.1301 85.1502C52.8209 85.0877 53.5099 85.2877 54.0601 85.7102C54.5109 86.1007 55.0787 86.3303 55.6743 86.3629C56.2698 86.3955 56.8593 86.2292 57.35 85.8902ZM27.05 56.0502C24.0455 55.7141 21.0636 55.1999 18.12 54.5102C18.1166 51.8613 18.3745 49.2185 18.89 46.6202C19.1 46.4102 39.45 51.6202 39.8 51.9502C39.98 52.0902 39.28 55.1402 38.8 56.5702C38.37 57.5902 37.91 57.5502 27.05 56.0502ZM23.38 52.3702C23.5983 52.0959 23.7171 51.7558 23.7171 51.4052C23.7171 51.0547 23.5983 50.7145 23.38 50.4402C22.32 48.5902 20.22 49.1102 20.22 51.2502C20.22 53.3902 22.32 54.2202 23.38 52.3702ZM89.33 49.9202C88.6153 48.8588 88.0814 47.6863 87.75 46.4502C88.17 46.0602 110.3 39.7602 110.51 39.9702C110.591 41.1618 110.545 42.3587 110.37 43.5402L110.06 46.9402L101.13 50.0002C96.22 51.7202 91.99 53.1202 91.67 53.1202C91.35 53.1202 90.3801 51.8102 89.33 49.9202ZM109.25 44.1402C110.44 43.0502 109.64 41.2702 108.17 41.7602C107.928 41.848 107.712 41.9955 107.542 42.1888C107.373 42.3822 107.254 42.6153 107.198 42.8666C107.143 43.1178 107.151 43.3791 107.223 43.6262C107.295 43.8733 107.428 44.0982 107.61 44.2802C108.45 44.8402 108.48 44.8402 109.25 44.1402ZM28.63 47.3602L24.25 46.2402L24.36 45.2402C24.5427 44.3257 24.8244 43.4338 25.2 42.5802L25.9 40.9402L24.64 38.4102C24.094 37.4292 23.6708 36.3847 23.38 35.3002C23.38 34.5602 36.23 26.4402 38.3 25.8802C39.1033 25.6244 39.8501 25.2171 40.5 24.6802C41.83 23.4602 49.85 19.4002 50.5 19.6802C51.5801 20.1402 51.06 21.6802 49.1 23.8102C46.6962 26.4965 44.6585 29.4892 43.0401 32.7102C41.7859 35.0592 39.9378 37.0384 37.68 38.4502C37.2683 38.6355 36.9106 38.9229 36.6411 39.2852C36.3716 39.6474 36.1991 40.0726 36.14 40.5202C36.0232 41.1843 35.7713 41.8174 35.4001 42.3802C34.8469 43.3675 34.4362 44.428 34.18 45.5302C33.9412 46.4947 33.6062 47.4327 33.18 48.3302C31.634 48.1649 30.1092 47.8398 28.63 47.3602ZM92.76 40.7402C92.37 39.6902 91.9501 38.3902 91.76 37.9002C91.6848 37.6397 91.5573 37.3972 91.3854 37.1875C91.2135 36.9778 91.0007 36.8052 90.76 36.6802C90.1401 36.3089 89.6214 35.7902 89.25 35.1702C88.62 34.0902 88.25 33.8802 85.96 33.3902C83.8104 32.8663 81.794 31.899 80.0401 30.5502C77.0401 28.5502 76.29 28.2402 73.59 27.7102C70.59 27.1202 69.81 26.6302 70.59 25.7102C71.08 25.1202 78.1601 24.2702 80.1201 24.5902C81.4501 24.8002 81.8 24.6902 83.55 23.5002C85.3 22.3102 85.44 22.1702 84.55 22.0702C83.8593 22.0471 83.1731 22.1912 82.55 22.4902C80.87 23.3602 80.2001 23.1902 78.8001 21.4402C77.8601 20.3202 70.2901 13.3802 69.6601 13.1002C69.6601 13.1002 69.56 12.7502 69.49 12.4002C69.31 11.2802 70.0101 11.4002 72.3601 12.8902C78.0301 16.3902 82.83 19.2002 83.22 19.2002C83.61 19.2002 83.43 18.8502 82.97 18.2002C82.29 17.0002 75.18 9.00024 73.32 7.33024C71.25 5.40024 71.8801 3.83024 74.1601 5.19024C75.8101 6.19024 83.62 12.0902 84.91 13.3202C86.4901 14.7902 87.15 14.1902 85.65 12.6202C82.6741 9.78944 79.4438 7.23867 76 5.00024C74.07 4.00024 73.48 2.90024 74.57 2.55024C75.66 2.20024 85.35 7.66024 87.84 10.1502C88.96 11.2702 89.17 12.1502 88.47 12.8502C88.08 13.2302 88.22 13.3002 89.14 13.1302C89.4865 13.0229 89.8557 13.0118 90.208 13.0981C90.5603 13.1844 90.8824 13.3649 91.14 13.6202C91.63 13.9702 92.14 14.1402 92.22 13.9702C92.54 13.4802 91.52 10.0802 90.02 6.61024C89.4255 5.47221 88.9914 4.25735 88.73 3.00024C89.05 2.47024 90.1301 2.65024 90.66 3.32024C92.7542 6.4025 94.6128 9.63835 96.22 13.0002C98.61 18.2902 99.73 24.9402 98.85 28.4102C98.4 30.0902 98.43 30.1902 99.85 33.6602C101.46 37.4402 102.3 39.7602 102.09 39.9702C102.09 39.9702 100.27 40.6002 98.09 41.1902L93.82 42.4902C93.61 42.5902 93.12 41.8202 92.7 40.7002L92.76 40.7402ZM20.43 28.0002C17.43 18.8202 16.55 14.9302 17.43 14.9302C18.02 14.9302 18.16 15.1802 21.49 21.2402C24.12 26.0402 25.06 27.4402 24.57 25.7902C23.77 23.1302 23.91 22.6402 26.57 18.4402C28.32 15.7402 29.41 14.3702 29.9 14.3002C30.39 14.2302 30.99 14.6902 32 16.0502C33.249 17.5725 34.5845 19.0215 36 20.3902C36.9594 21.2265 37.7975 22.1925 38.4901 23.2602C38.4901 23.5102 38.17 23.8602 37.75 24.0702C36.84 24.5902 34.63 23.5402 32.39 21.5802C31.52 20.8102 30.64 20.2502 30.47 20.3902C29.9 20.7102 29.59 23.0202 30.04 23.4702C30.26 23.6802 30.43 23.7202 30.43 23.5402C30.4676 23.2386 30.5774 22.9504 30.75 22.7002C30.99 22.3502 31.52 22.5602 33.23 23.7002C34.42 24.5002 35.23 25.3102 35.09 25.4502C34.9501 25.5902 22.37 32.8102 22.16 32.8102C22.16 32.8102 21.36 30.6302 20.48 28.0102L20.43 28.0002ZM38.16 21.2702C37.5483 20.6352 37.048 19.9016 36.68 19.1002C36.68 18.5402 38.9601 16.9602 39.5201 17.1002C40.08 17.2402 41.5201 21.4102 41.2701 21.8702C41.0092 22.1668 40.6889 22.4053 40.3301 22.5702C39.7001 22.9102 39.4501 22.7402 38.16 21.2702ZM34.1301 16.4702C33.6 15.7302 33.32 15.0702 33.46 14.9302C34.2244 14.554 35.0089 14.2202 35.8101 13.9302C37.0001 13.4602 39.2801 12.3702 41 11.5002C44 9.88024 44.67 9.78024 44.2901 11.0402C44.0401 11.7802 39.42 15.8002 37.42 17.0402C35.7 18.0502 35.18 18.0002 34.1301 16.4702Z" fill="#7B7870"/>
<path d="M54.2698 114C53.948 113.425 53.8019 112.768 53.8498 112.11C53.8566 111.315 53.7488 110.524 53.5298 109.76C53.2898 109.1 53.3898 108.76 54.1298 107.76C54.481 107.349 54.7453 106.872 54.9069 106.356C55.0685 105.841 55.1239 105.298 55.0698 104.76C55.1119 103.738 55.3005 102.728 55.6298 101.76L56.1898 100.54L57.4898 102.54C58.6798 104.43 61.8298 106.99 62.9498 106.99C63.0411 106.995 63.1273 107.033 63.192 107.098C63.2566 107.163 63.295 107.249 63.2998 107.34C63.2998 107.55 62.9198 107.69 62.4298 107.69C60.9898 107.69 58.0498 108.42 58.2198 108.69C59.5387 108.936 60.887 108.983 62.2198 108.83L65.9698 108.69L64.1498 109.35C61.4365 110.38 58.8684 111.759 56.5098 113.45C55.5098 114.45 54.9398 114.45 54.3098 113.87L54.2698 114ZM79.2698 111.8C78.0154 111.155 76.7029 110.629 75.3498 110.23C73.1398 109.49 72.0598 108.93 72.0598 108.58C72.0598 107.99 72.6898 108.09 77.2798 109.42C78.2889 109.756 79.3318 109.981 80.3898 110.09C80.7398 109.7 80.0798 108.79 79.2398 108.48C78.1968 108.153 77.1304 107.905 76.0498 107.74L73.6998 107.32L75.6998 106.32C76.9715 105.619 78.0928 104.674 78.9998 103.54C79.4306 102.898 79.949 102.319 80.5398 101.82C81.0287 102.574 81.4186 103.387 81.6998 104.24C82.5098 106.24 82.5798 106.76 82.2298 107.39C81.9619 108.07 81.8993 108.814 82.0498 109.53C82.2298 110.61 82.1598 111 81.5598 111.59C80.7098 112.43 80.1798 112.5 79.2698 111.8Z" fill="#96918A"/>
<path d="M63.5498 106.24C61.5434 105.614 59.8425 104.263 58.7798 102.45C57.6598 100.18 54.1598 96.4497 51.3598 94.6397C49.8834 93.7504 48.6257 92.5405 47.6798 91.0997C46.7698 89.6997 46.2498 89.2097 45.6798 89.2097C44.3498 89.2097 43.1198 87.9497 41.7598 85.1497C40.5698 82.7997 40.4998 82.4497 40.9198 81.6797C41.5098 80.5597 46.3098 78.1097 48.3398 77.8697C49.1798 77.7597 52.0198 77.5197 54.6798 77.3097C60.0798 76.8497 62.1398 76.3097 65.2598 74.7097C68.3798 73.1097 68.2598 73.2097 66.1298 75.1697C64.3898 76.7497 64.2798 76.9197 64.9998 76.9997C67.5198 76.9997 71.0598 74.7197 72.3498 72.1997L72.9998 70.8997L73.7398 72.0897C75.9498 75.6597 84.3898 81.1597 87.6398 81.1597C87.9315 81.1805 88.2141 81.2703 88.4645 81.4215C88.7148 81.5727 88.9257 81.7812 89.0798 82.0297C89.5698 82.7997 89.5698 82.9397 89.0798 83.6797C88.7801 84.0626 88.587 84.518 88.5198 84.9997C88.5198 85.9097 90.6198 83.3197 90.6198 82.3697C90.6198 81.7397 90.7998 81.4997 91.3198 81.4997C92.3198 81.4997 92.1998 82.7197 90.9698 84.9297C90.0298 86.5397 89.7098 86.8197 88.3098 87.1697C87.8169 87.2301 87.3491 87.4215 86.9552 87.724C86.5612 88.0265 86.2555 88.429 86.0698 88.8897C84.8187 90.8784 83.0152 92.4595 80.8798 93.4397C79.6898 93.9697 79.3798 94.2097 79.7598 94.4397C80.1786 94.5988 80.6411 94.5988 81.0598 94.4397C82.2198 94.0197 82.2198 94.0197 82.2198 94.8597C82.2198 96.0497 79.6898 100.5 78.1498 102.08C76.3298 103.86 74.6498 104.77 71.2898 105.65C67.6098 106.62 65.1198 106.83 63.5498 106.24ZM62.5498 101.51C63.0398 99.8997 63.3598 99.6197 65.5498 98.7797C66.3385 98.4361 67.1896 98.2588 68.0498 98.2588C68.9101 98.2588 69.7612 98.4361 70.5498 98.7797C71.8498 99.1997 71.1498 98.0797 69.7098 97.4097C68.4198 96.7797 66.7098 96.8897 63.9298 97.6597C63.2426 97.7813 62.6142 98.1249 62.1409 98.6379C61.6677 99.1508 61.3757 99.8049 61.3098 100.5C60.9198 103 61.8698 103.71 62.5298 101.51H62.5498ZM61.9998 95.6897C63.1898 95.1997 63.3998 95.1997 64.3798 95.6897C65.8198 96.3897 66.5498 96.3597 68.7598 95.5197C69.6811 95.1064 70.6963 94.9475 71.6998 95.0597C72.6998 95.2397 72.7498 95.1997 72.6998 94.4297C72.6298 93.9097 72.3798 93.6297 72.0698 93.6997C71.7598 93.7697 70.5998 93.9797 69.4398 94.1497C68.5863 94.2744 67.7526 94.5097 66.9598 94.8497C66.6398 95.0997 66.0798 94.9897 65.0998 94.4997C63.4198 93.6297 62.9998 93.5897 61.6998 94.2897C61.1533 94.5705 60.5604 94.7501 59.9498 94.8197C58.9998 94.8197 58.1598 95.7297 58.8298 95.9697C59.883 96.2893 61.019 96.189 61.9998 95.6897ZM67.1198 93.4197C67.7519 92.8965 68.2751 92.2544 68.6598 91.5297C69.0123 90.79 69.5715 90.1682 70.2698 89.7397C70.6498 89.5997 70.8998 89.3497 70.7898 89.1797C70.3398 88.4797 69.1098 88.9297 67.7898 90.2597C67.2995 90.8069 66.7339 91.2817 66.1098 91.6697C65.2998 91.6697 64.8498 90.3697 64.8498 87.8497C64.9127 86.4811 64.6737 85.1155 64.1498 83.8497C63.5198 82.5197 63.5198 82.5197 64.2498 81.7497C65.0127 80.8616 65.5207 79.7834 65.7198 78.6297C65.7198 77.9697 64.8098 78.3497 64.1498 79.3697C63.1498 80.8397 62.2898 81.0097 58.6098 80.5197C56.8298 80.3097 54.5198 80.0997 53.4298 80.0997C51.7098 80.0997 51.4298 80.1697 50.4298 81.0997L49.4298 82.1897L51.5298 81.9397C53.6698 81.7297 60.7098 82.5397 61.8998 83.1997C62.5298 83.5197 63.0498 84.8897 63.4398 87.0597C63.5534 87.469 63.5508 87.9018 63.4325 88.3097C63.3142 88.7176 63.0848 89.0846 62.7698 89.3697C61.7198 90.5897 61.6198 91.2297 62.4198 91.2297C63.1487 91.482 63.8092 91.8996 64.3498 92.4497C65.8598 93.8697 66.1398 93.9397 67.1598 93.4197H67.1198ZM44.4898 84.9097C44.0582 84.3845 43.6953 83.8066 43.4098 83.1897C42.9498 82.0997 42.4598 81.9297 42.1498 82.7297C41.8398 83.5297 42.2898 84.3797 43.6498 85.6097C44.6498 86.4497 44.9498 86.6097 45.0198 86.1697C45.0189 85.9351 44.9716 85.703 44.8806 85.4868C44.7897 85.2705 44.6569 85.0744 44.4898 84.9097ZM81.5898 85.0097L83.4398 83.2597L81.5098 84.1397C78.9598 85.2897 75.3898 85.3597 74.2298 84.3097C73.9263 84.0493 73.6663 83.7421 73.4598 83.3997C74.0327 83.3194 74.6154 83.3431 75.1798 83.4697C76.6602 83.6196 78.1552 83.428 79.5498 82.9097C80.5517 82.6544 81.5188 82.2783 82.4298 81.7897C82.5298 81.6097 81.2998 81.5797 79.5198 81.7197C76.4984 81.8967 73.4673 81.6374 70.5198 80.9497C69.8932 80.4848 69.4084 79.8546 69.1198 79.1297L68.3898 77.4797L68.2498 78.8497C68.1098 80.5597 68.9098 81.7897 70.9098 82.7297C71.7098 83.1197 72.3398 83.7297 72.3798 83.9997C72.3798 84.7997 72.9698 85.2197 75.1798 85.9997C78.5398 87.1497 79.4498 86.9997 81.5898 84.9997V85.0097ZM58.0798 85.7097C58.8779 85.336 59.7332 85.0993 60.6098 85.0097C61.5198 85.0097 61.9698 84.3497 61.1298 84.2797C57.7979 84.0941 54.4574 84.1275 51.1298 84.3797C50.0498 84.7697 50.5398 85.4697 51.6898 85.2197C52.3911 85.1027 53.1102 85.2681 53.6898 85.6797C54.9998 86.5497 56.2298 86.5897 58.0798 85.7097ZM27.4698 55.9997L18.4698 54.7397V53.7397C18.5669 51.3516 18.8478 48.9746 19.3098 46.6297C21.1248 46.905 22.9165 47.3161 24.6698 47.8597C27.5098 48.6297 32.1698 49.8597 35.0398 50.5497C39.0398 51.5997 40.1898 52.0197 40.1898 52.4797C40.0341 53.4119 39.7862 54.3264 39.4498 55.2097C38.5398 57.7997 39.7298 57.6897 27.4698 55.9997ZM23.1998 52.7897C23.7298 52.1897 23.7998 51.8397 23.5198 50.7897C23.2398 49.7397 23.0598 49.4897 22.1098 49.3897C20.8198 49.2497 20.1098 49.9797 20.1098 51.3897C20.1198 53.3797 21.9398 54.1897 23.1998 52.7897ZM89.3298 49.8797C88.0998 47.7097 87.6398 46.5897 87.9198 46.4497C88.7598 45.9997 110.3 39.7997 110.48 39.9997C110.55 41.1914 110.503 42.3871 110.34 43.5697L110.06 46.9297L101.13 49.9997C96.2198 51.6997 91.9998 53.0997 91.6698 53.0997C91.3398 53.0997 90.3798 51.7397 89.3298 49.8797ZM109.25 44.1397C110.58 42.9497 109.57 41.1397 107.96 41.8597C107.74 41.9637 107.548 42.1183 107.399 42.3109C107.251 42.5034 107.15 42.7284 107.105 42.9674C107.06 43.2064 107.073 43.4526 107.141 43.6859C107.21 43.9192 107.333 44.133 107.5 44.3097C108.06 44.8697 108.48 44.8397 109.25 44.1397ZM27.9298 47.2197C24.2498 46.2697 24.2498 46.2197 24.3598 45.2197C24.5415 44.2952 24.8232 43.3932 25.1998 42.5297L25.9298 40.8097L24.5998 38.1097C24.0548 37.136 23.6539 36.0885 23.4098 34.9997C23.6598 34.3697 36.7498 26.3497 38.4098 25.8897C39.2011 25.6817 39.9248 25.2716 40.5098 24.6997C41.6565 23.8055 42.9135 23.0628 44.2498 22.4897C46.0098 21.6497 47.9698 20.5997 48.6998 20.1797C49.2327 19.8067 49.8694 19.6108 50.5198 19.6197C51.6098 20.0397 51.1498 21.5097 49.1898 23.6197C46.6401 26.6194 44.4207 29.8849 42.5698 33.3597C41.5073 35.3899 39.878 37.0679 37.8798 38.1897C37.4639 38.3886 37.0973 38.6775 36.8068 39.0355C36.5162 39.3935 36.3089 39.8117 36.1998 40.2597C36.0105 41.0336 35.7144 41.7774 35.3198 42.4697C34.7588 43.5592 34.3163 44.7058 33.9998 45.8897C33.2498 48.6897 33.4298 48.6597 27.9298 47.2197ZM93.4598 42.1397C93.0221 41.2334 92.6479 40.2978 92.3398 39.3397C91.8098 37.7597 91.3398 36.8497 90.8698 36.7497C90.3998 36.6497 89.8698 35.9797 89.5698 35.2397C88.9398 34.0497 88.6898 33.8797 86.8698 33.5297C84.1689 32.9843 81.636 31.8053 79.4798 30.0897C77.8138 28.7973 75.8316 27.9754 73.7398 27.7097C70.5198 27.0497 69.6798 26.4497 70.7998 25.6497C71.5698 25.0897 78.6098 24.3097 80.2498 24.5897C81.3698 24.7997 81.7998 24.6597 83.5498 23.5097C85.2998 22.3597 85.4398 22.1397 84.7398 22.0397C83.8647 22.0552 82.9988 22.2209 82.1798 22.5297L80.4298 23.1597L78.5398 21.0597C76.8308 19.2375 75.0284 17.5051 73.1398 15.8697C70.8998 13.9497 69.6098 12.5797 69.6098 12.1297C69.6098 11.4997 69.6798 11.4997 70.7998 11.9497C71.9858 12.5403 73.1316 13.2084 74.2298 13.9497C77.4198 16.1197 82.6398 19.1697 83.1598 19.1697C83.2659 19.1767 83.3708 19.1451 83.4554 19.0808C83.5399 19.0165 83.5983 18.9237 83.6198 18.8197C83.6198 18.3997 78.9598 13.1097 74.7898 8.81966C73.7135 7.81921 72.7933 6.66302 72.0598 5.38966C72.0598 4.64966 73.2098 4.64966 74.4398 5.38966C76.1898 6.50966 84.8398 13.0997 85.3298 13.6597C85.8198 14.2197 86.7698 14.4597 86.7698 13.9697C86.7698 13.0997 79.3098 6.82966 76.2998 5.14966C74.4398 4.09966 73.8098 3.25966 74.4098 2.65966C75.0098 2.05966 84.1798 6.96966 87.4098 9.86966C88.7398 11.0697 89.3398 12.4997 88.4998 12.4997C88.4093 12.5066 88.3242 12.5457 88.26 12.6099C88.1958 12.6741 88.1567 12.7591 88.1498 12.8497C88.1498 13.0597 88.7398 13.1997 89.5198 13.1997C90.1594 13.1391 90.7976 13.3291 91.2998 13.7297C92.1098 14.6697 92.4198 13.7297 91.9698 11.9397C91.4849 10.2964 90.8936 8.68629 90.1998 7.11966C88.7998 3.82966 88.5898 2.69966 89.3298 2.69966C90.0698 2.69966 90.8998 3.54966 92.8998 6.90966C95.2862 10.7321 97.0925 14.8873 98.2598 19.2397C99.0998 22.6297 99.2598 27.2397 98.7098 29.0797C98.5338 29.5004 98.4681 29.9591 98.5188 30.4123C98.5696 30.8655 98.7351 31.2983 98.9998 31.6697C99.9998 33.6697 102.36 39.7997 102.18 39.9397C102 40.0797 100.18 40.6397 97.9098 41.2997C94.9998 42.1397 93.6698 42.4197 93.4598 42.1397ZM20.2198 27.3297C15.8098 13.4897 16.3398 11.2197 21.5498 21.4397C23.4498 25.1197 24.5498 26.9397 24.8498 26.6597C24.9898 26.5597 24.8498 25.7497 24.4998 24.8697C23.8998 23.2997 23.8998 23.2997 24.9198 21.5097C27.2298 17.3397 29.3998 14.2597 30.0298 14.2597C30.6376 14.4534 31.1511 14.8671 31.4698 15.4197C32.7016 16.9323 34.0099 18.3809 35.3898 19.7597C37.0998 21.5497 38.3898 23.1897 38.3898 23.3997C38.2985 23.5701 38.1734 23.7201 38.0221 23.8405C37.8708 23.9608 37.6964 24.049 37.5098 24.0997C36.5998 24.4197 34.7398 23.5097 32.4298 21.5797C31.859 21.0671 31.2394 20.6116 30.5798 20.2197C30.1898 20.2197 29.3498 22.6297 29.5798 23.1597C29.8898 23.9297 30.4598 23.8597 30.6698 23.0197C30.7698 22.6297 30.9098 22.3197 31.0198 22.3197C31.5398 22.3197 35.3198 25.2297 35.0798 25.4397C34.8398 25.6497 25.7998 30.7897 22.2898 32.7197C21.4254 30.9949 20.7321 29.1896 20.2198 27.3297ZM38.1898 21.2697C37.5878 20.6836 37.0787 20.0092 36.6798 19.2697C36.6798 18.7797 38.6798 17.0897 39.3098 17.0897C39.9398 17.0897 41.3098 20.7397 41.1698 21.5797C41.01 21.9732 40.7255 22.3035 40.3598 22.5197C39.7298 22.9097 39.5198 22.8097 38.1898 21.2697ZM34.2298 16.5697C33.8853 16.141 33.6149 15.6576 33.4298 15.1397C34.1845 14.6385 35.0105 14.2542 35.8798 13.9997C37.1698 13.4697 39.5598 12.3497 41.1298 11.5097C45.6498 9.12966 45.5798 10.3197 40.9898 14.2797C38.1198 16.7297 36.4398 17.8197 35.5598 17.8197C35.3198 17.7697 34.7198 17.2397 34.2298 16.5697Z" fill="#96918A"/>
<path d="M54.4799 114.049C54.0199 113.799 53.8499 113.239 53.8099 112.049C53.8191 111.257 53.7249 110.467 53.5299 109.699C53.3199 109.209 53.5299 108.699 54.1599 107.879C54.8587 107.041 55.2157 105.97 55.1599 104.879C55.1698 103.858 55.3454 102.845 55.6799 101.879L56.2099 100.689L57.4999 102.689C58.5211 104.476 60.0976 105.881 61.9899 106.689C63.5999 107.429 63.7399 107.849 62.3399 107.849C60.7599 107.849 57.7499 108.619 57.9599 108.969C59.2548 109.193 60.5753 109.226 61.8799 109.069C64.8799 108.929 65.4499 108.969 64.7499 109.279C59.6399 111.629 57.4299 112.779 56.5899 113.589C55.4599 114.539 55.3499 114.569 54.4799 114.049ZM79.4099 111.799C78.0783 111.197 76.7126 110.673 75.3199 110.229C73.2499 109.529 72.0599 108.929 72.0599 108.619C72.0599 108.309 72.0599 108.129 72.1599 108.129C72.2599 108.129 74.0199 108.619 76.2299 109.179C77.582 109.616 78.9764 109.907 80.3899 110.049C80.7399 109.699 80.0799 108.789 79.1699 108.439C78.1162 108.107 77.0401 107.85 75.9499 107.669L73.6999 107.319L75.6999 106.319C77.003 105.678 78.1343 104.736 78.9999 103.569C79.4359 102.925 79.9649 102.349 80.5699 101.859C81.0736 102.59 81.4646 103.392 81.7299 104.239C82.4999 106.239 82.5699 106.829 82.2599 107.459C81.9811 108.123 81.9079 108.854 82.0499 109.559C82.2199 110.649 82.1199 111.069 81.5499 111.629C80.6699 112.469 80.5699 112.469 79.4099 111.799ZM67.3999 108.579C66.7999 108.019 67.2999 107.779 69.0799 107.779C70.5499 107.779 71.0099 107.879 71.0099 108.299C71.0099 108.719 70.5899 108.829 69.3299 108.829C68.6762 108.883 68.0186 108.797 67.3999 108.579Z" fill="#BFBEBE"/>
<path d="M61.6901 105.32C60.457 104.687 59.4532 103.683 58.8201 102.45C56.9055 99.3463 54.3647 96.6761 51.3601 94.6097C49.8658 93.6785 48.5791 92.4497 47.5801 90.9997C46.7701 89.7097 46.2801 89.2497 45.6501 89.2497C44.3501 89.2497 43.1301 88.0297 41.8001 85.3297C41.29 84.4152 40.8681 83.4542 40.5401 82.4597C40.5401 81.7197 42.3901 80.2197 44.3901 79.3097C46.8401 78.1897 48.6601 77.8397 54.5501 77.3097C60.1201 76.8897 61.8701 76.4697 65.4001 74.7097L68.0001 73.4197L66.1001 75.1697C64.3901 76.7097 64.2801 76.9197 65.0001 76.9997C67.5201 76.9997 71.0601 74.7197 72.3501 72.1597L73.0001 70.8597L73.5601 71.8597C75.2501 75.1197 84.2801 81.1097 87.4701 81.1097C88.0014 81.1815 88.4939 81.4278 88.8701 81.8097C89.5401 82.4697 89.5401 82.5797 89.0501 83.5597C88.4501 84.7197 88.3801 85.3097 88.8301 85.3097C89.2801 85.3097 90.6201 83.0697 90.6201 82.1897C90.6201 81.6997 90.8301 81.4597 91.3201 81.4597C92.1601 81.4597 92.2001 82.0897 91.4601 83.8397C90.7201 85.5897 89.2901 87.0597 88.1001 87.0597C87.3301 87.0597 86.9401 87.3797 86.2101 88.5697C85.0994 90.5378 83.4095 92.116 81.3701 93.0897C79.9401 93.8197 79.4501 94.2097 79.7601 94.4197C79.966 94.5061 80.1869 94.5506 80.4101 94.5506C80.6333 94.5506 80.8543 94.5061 81.0601 94.4197C82.1801 93.9997 82.2201 93.9997 82.2201 94.7697C82.2201 95.9297 79.7601 100.34 78.2201 101.92C75.5901 104.58 70.7201 106.37 65.8901 106.37C64.4119 106.502 62.9322 106.132 61.6901 105.32ZM62.6001 101.4C63.3001 99.3997 65.4001 98.2497 68.2101 98.3997C69.0711 98.4679 69.9244 98.6118 70.7601 98.8297C71.7601 99.2797 71.4301 98.3297 70.2401 97.5997C68.8401 96.7597 67.3301 96.7197 64.6301 97.4597C62.1801 98.1597 61.2001 99.2097 61.2001 101.1C61.2001 103.36 61.9001 103.5 62.6001 101.4ZM62.0001 95.6897C63.1901 95.1997 63.4001 95.1997 64.3801 95.6897C64.9929 96.0268 65.6808 96.2035 66.3801 96.2035C67.0794 96.2035 67.7674 96.0268 68.3801 95.6897C69.2987 95.3436 70.2688 95.1543 71.2501 95.1297C72.6101 95.1297 72.7501 95.1297 72.6501 94.3897C72.5801 93.9397 72.3301 93.6597 72.0201 93.7597C71.7101 93.8597 70.8601 93.9397 70.0901 94.0397C69.1804 94.1421 68.2807 94.3193 67.4001 94.5697C67.0083 94.7155 66.5883 94.7696 66.1723 94.728C65.7563 94.6864 65.3553 94.5502 65.0001 94.3297C63.4901 93.6297 62.9001 93.6297 61.6001 94.3297C61.1595 94.599 60.6448 94.7216 60.1301 94.6797C59.5401 94.4697 58.3101 95.4197 58.6201 95.8697C58.9301 96.3197 60.6201 96.3297 62.0901 95.7297L62.0001 95.6897ZM68.5201 91.8797C69.0876 91.0472 69.7598 90.291 70.5201 89.6297C70.9701 89.3497 71.0101 89.2797 70.5201 88.8997C69.8501 88.3397 68.9801 88.7897 67.7501 90.2597C66.7501 91.3497 65.6501 91.6297 65.1601 90.8897C64.9326 89.8797 64.8385 88.8442 64.8801 87.8097C64.9267 86.484 64.6986 85.163 64.2101 83.9297C63.5801 82.6597 63.5801 82.6597 64.4601 81.7197C65.3401 80.7797 66.0001 78.9997 65.5401 78.3197C65.4001 78.0797 64.8401 78.4597 64.0401 79.4397L62.7401 80.9097L58.5401 80.5297C56.2601 80.2797 53.8101 80.0697 53.1101 80.0397C52.4347 80.0434 51.7707 80.2143 51.1774 80.5371C50.5841 80.8599 50.08 81.3246 49.7101 81.8897C49.4001 82.3797 49.5701 82.4197 51.1501 82.1397C52.2764 81.9783 53.4182 81.9548 54.5501 82.0697C56.9369 82.3088 59.31 82.6692 61.6601 83.1497C63.2301 83.5697 63.9301 88.5497 62.6001 89.7397C61.8001 90.4697 61.6901 91.3197 62.3901 91.3197C63.0906 91.5881 63.725 92.0042 64.2501 92.5397C66.1401 94.2597 66.8401 94.1497 68.5601 91.8797H68.5201ZM45.2001 86.1297C44.9578 85.625 44.6873 85.1342 44.3901 84.6597C44.0523 84.1537 43.7483 83.6259 43.4801 83.0797C42.9501 82.1397 42.1501 82.2097 42.0101 83.1497C41.9401 83.7097 42.3601 84.4197 43.4101 85.4697C44.9201 86.9997 45.5801 87.2497 45.2001 86.1297ZM81.4101 84.8997C83.8301 82.7897 83.9301 82.1297 81.5901 83.5997C80.4467 84.2119 79.167 84.525 77.8701 84.5097C75.6001 84.6497 75.2501 84.5797 74.3701 83.8397L73.3701 82.9997H75.7601C77.2534 82.9822 78.7372 82.7601 80.1701 82.3397C83.1701 81.3397 83.1101 80.9397 79.9901 81.2197C77.2601 81.4597 71.2701 80.8997 70.1501 80.3097C69.7399 79.9805 69.4599 79.5162 69.3601 78.9997C69.2699 78.4703 69.0423 77.9737 68.7001 77.5597C68.2801 77.2497 68.2101 77.4197 68.2101 78.7197C68.2101 80.5697 69.1501 81.7997 71.1501 82.6397C71.9501 82.9897 72.4101 83.4097 72.4101 83.8297C72.4101 84.4997 72.9301 84.8297 75.5601 85.7597C78.1901 86.6897 79.5201 86.5097 81.4101 84.8997ZM57.6301 85.8997C58.4174 85.5668 59.239 85.322 60.0801 85.1697C60.8901 85.0297 61.5501 84.7797 61.5501 84.6097C61.5501 84.1897 61.7301 84.2197 56.4701 84.1497C51.9201 84.0797 50.1001 84.3297 50.5201 84.9897C50.9819 85.2704 51.5224 85.3933 52.0601 85.3397C52.7611 85.343 53.4496 85.5254 54.0601 85.8697C54.5988 86.1897 55.212 86.3628 55.8384 86.3715C56.4649 86.3803 57.0827 86.2245 57.6301 85.9197V85.8997ZM34.0001 56.8497C32.4601 56.6097 28.3201 56.0497 24.8201 55.5897L18.4101 54.7497V53.8697C18.5793 51.4164 18.8731 48.9733 19.2901 46.5497C19.2901 46.5497 21.7001 47.0797 24.5801 47.8497L35.0001 50.5497C38.0001 51.3197 40.1501 52.0497 40.1501 52.2997C39.9777 53.2243 39.7438 54.1363 39.4501 55.0297C38.6101 57.6597 38.8901 57.5897 34.0001 56.8497ZM23.0801 52.8497C24.3701 51.6597 23.6401 49.2497 21.9501 49.2497C20.2601 49.2497 19.3601 51.4197 20.6201 53.0297C20.9744 53.3249 21.4274 53.4746 21.8877 53.4486C22.3481 53.4226 22.7814 53.2229 23.1001 52.8897L23.0801 52.8497ZM90.8301 52.3697C90.5901 51.9097 89.7101 50.4797 88.9401 49.1097C87.6801 46.9797 87.6101 46.6197 88.1001 46.3797C89.2201 45.8897 110.34 39.8297 110.48 39.9697C110.551 41.1273 110.514 42.289 110.37 43.4397C110.2 46.0597 110.02 46.8297 109.57 47.0097C108.06 47.6397 91.8801 53.1397 91.6401 53.1397C91.4001 53.1397 91.1101 52.7897 90.8301 52.3697ZM109.36 44.1697C109.522 44.0075 109.646 43.8112 109.723 43.595C109.799 43.3788 109.826 43.1482 109.803 42.9201C109.779 42.6921 109.704 42.4722 109.584 42.2766C109.464 42.0811 109.302 41.9147 109.11 41.7897C107.82 40.9897 106.45 43.0197 107.43 44.2397C108 44.8697 108.66 44.8697 109.36 44.1697ZM29.3301 47.4997C27.8901 47.1197 26.1401 46.6597 25.4101 46.4997L24.1501 46.1797L24.6001 44.4997C24.8501 43.5897 25.2701 42.3697 25.4801 41.8097C25.8601 40.8597 25.7901 40.5097 24.6401 38.2297C24.1218 37.274 23.6997 36.269 23.3801 35.2297C23.3801 34.6297 36.0901 26.7497 38.5401 25.8397C39.345 25.615 40.0808 25.1921 40.6801 24.6097C40.7801 24.2997 42.5001 23.3197 44.4601 22.3697C46.0122 21.6563 47.5274 20.8653 49.0001 19.9997C49.9101 19.4097 50.0001 19.4097 50.5801 19.9997C51.3501 20.7397 51.2401 20.9097 47.8801 25.0797C46.3978 26.9973 45.0607 29.023 43.8801 31.1397C41.8201 34.9597 40.0701 37.0197 37.9701 38.1397C36.7001 38.8097 36.3501 39.1397 36.1801 40.2097C36.0205 40.9475 35.7472 41.6559 35.3701 42.3097C34.8444 43.3802 34.4128 44.4944 34.0801 45.6397C33.1801 48.4797 33.1501 48.4797 29.3301 47.4997ZM92.9301 40.8097C92.6201 39.9697 92.1601 38.6697 91.9301 37.8997C91.7001 37.1297 91.1901 36.4697 90.7401 36.3997C90.4543 36.2776 90.1956 36.0997 89.9793 35.8765C89.763 35.6533 89.5933 35.3893 89.4801 35.0997C88.9501 34.0197 88.7001 33.8797 86.2501 33.3497C84.0544 32.8355 81.9903 31.8681 80.1901 30.5097C77.3901 28.6897 76.3101 28.1997 74.1901 27.7497C72.7501 27.4297 71.2801 27.1197 70.9701 27.0097C70.0601 26.7297 70.2001 25.8597 71.2101 25.4697C74.2118 24.8225 77.2807 24.5405 80.3501 24.6297C81.2601 24.7997 81.9001 24.6297 83.4401 23.6797C84.1832 23.3033 84.859 22.8066 85.4401 22.2097C85.4401 21.7897 83.0901 22.1097 81.6901 22.6997L80.5701 23.1597L78.3301 20.7097C76.5959 18.8882 74.7702 17.1559 72.8601 15.5197C71.6564 14.5985 70.5862 13.5149 69.6801 12.2997C69.6801 11.4597 70.8301 11.7797 72.8301 13.1097C73.8301 13.8097 76.5401 15.4497 78.7501 16.7797C84.4201 20.1497 84.9801 20.0097 81.5501 16.0097C80.3901 14.6497 77.7701 11.8097 75.7701 9.70974C72.0601 5.81974 71.4601 4.80974 72.9301 4.80974C73.6701 4.80974 85.0201 12.9297 85.5801 13.8797C85.8901 14.3697 86.8401 14.3697 86.8401 13.8797C86.8401 13.0097 79.5501 6.87974 76.2301 4.98974C74.4401 3.98974 73.9101 3.19974 74.5101 2.59974C75.1101 1.99974 85.5401 7.81974 88.0001 10.3797C88.8801 11.3197 89.0001 11.5697 88.6001 12.1597C88.0001 13.1597 88.0401 13.2097 89.3401 13.2097C90.0186 13.2216 90.6816 13.415 91.2601 13.7697C91.7201 14.0897 92.1701 14.2597 92.2601 14.1597C92.6101 13.7697 91.6301 10.1597 90.2601 7.00974C88.7501 3.54974 88.5801 2.69974 89.3201 2.69974C90.0601 2.69974 90.8201 3.54974 92.9201 7.07974C95.2796 10.7857 97.0538 14.8332 98.1801 19.0797C99.0501 22.5097 99.0901 23.6297 98.6301 30.0797C99.0123 31.8808 99.5995 33.6322 100.38 35.2997C101.086 36.7584 101.603 38.3008 101.92 39.8897C99.3474 40.8944 96.6991 41.6936 94.0001 42.2797C93.7001 42.2797 93.2501 41.6497 92.9301 40.8097ZM21.8701 32.2297C21.5201 31.6697 18.1201 20.2897 17.6001 17.9797C16.9301 15.1697 17.2801 14.3297 18.4401 15.9797C18.8201 16.5397 20.2901 19.1397 21.6601 21.6897C23.0301 24.2397 24.2901 26.5297 24.4601 26.6897C25.0601 27.3597 25.1601 26.5897 24.6401 25.3297C24.3609 24.7274 24.1722 24.0872 24.0801 23.4297C25.6491 20.3074 27.4369 17.2999 29.4301 14.4297C29.8901 14.0097 31.0801 14.8097 31.9901 16.1797C33.1225 17.6712 34.3768 19.066 35.7401 20.3497C37.2401 21.8197 38.4401 23.2497 38.3701 23.4997C37.9101 24.8597 34.9001 23.8497 32.0601 21.3297C30.3801 19.8897 30.3801 19.8897 30.0601 20.6997C29.4301 22.4097 29.3601 22.8997 29.6401 23.3897C29.9201 23.8797 30.7301 23.5997 30.7301 22.8697C30.7301 22.5897 30.8001 22.3797 30.9101 22.3797C32.3414 23.2075 33.682 24.1828 34.9101 25.2897C34.9801 25.5997 22.9101 32.5397 22.3301 32.5397C22.2329 32.5335 22.139 32.5014 22.0582 32.447C21.9774 32.3925 21.9125 32.3175 21.8701 32.2297ZM38.1201 21.0597C37.5611 20.4793 37.0773 19.8309 36.6801 19.1297C37.3988 18.2308 38.3255 17.5204 39.3801 17.0597C39.9801 17.0597 41.3801 21.2997 40.9901 21.9297C40.3601 22.9997 39.5901 22.6997 38.1201 21.0597ZM34.3001 16.5697C33.8501 15.9097 33.5701 15.2097 33.6701 15.0297C34.2371 14.621 34.8648 14.3038 35.5301 14.0897C36.4401 13.7397 38.7201 12.6897 40.5301 11.7797C41.6875 11.1411 42.8793 10.5669 44.1001 10.0597C45.8901 10.0597 38.3601 16.9897 35.9101 17.5897C35.2801 17.7297 35.0001 17.5497 34.3001 16.5697Z" fill="#BFBEBE"/>
<path d="M54.6898 114.15C54.3091 113.619 54.0998 112.984 54.0898 112.33C53.9991 111.483 53.8588 110.641 53.6698 109.81C53.4598 109.04 53.6698 108.62 54.3698 107.71C54.6754 107.445 54.9051 107.104 55.0351 106.72C55.1652 106.337 55.1909 105.927 55.1098 105.53C55.0216 104.583 55.141 103.627 55.4598 102.73L56.0498 100.98L56.7898 101.98C58.8498 104.67 60.0098 105.76 61.5898 106.57L63.3398 107.41L62.1798 107.65C56.5098 108.74 56.3698 109.37 61.8298 109.09C65.2598 108.88 65.4698 108.91 64.3498 109.37C60.8898 110.73 57.7298 112.37 56.6798 113.37C55.4598 114.56 55.2798 114.63 54.6798 114.21L54.6898 114.15ZM79.0598 111.56C77.7364 110.965 76.381 110.444 74.9998 110C73.3798 109.48 72.0898 108.85 72.0898 108.64C72.0898 108.15 74.9998 108.71 78.4998 109.9C80.4198 110.53 80.4998 110.53 80.4998 109.9C80.4998 108.9 79.5898 108.4 76.7198 107.77L74.0198 107.17L75.7098 106.37C76.9476 105.674 78.0597 104.775 78.9998 103.71L80.6098 101.86L81.3798 103.78C82.0449 105.262 82.2671 106.905 82.0198 108.51C82.0184 109.558 81.9112 110.604 81.6998 111.63C81.3398 112.22 80.2198 112.19 79.0598 111.56ZM67.7498 108.62C67.1598 107.99 67.6098 107.74 69.1898 107.85C70.0998 107.92 70.8298 108.13 70.8298 108.3C70.8298 108.72 68.1398 109 67.7498 108.62ZM62.4298 105.64C60.8187 104.91 59.506 103.65 58.7098 102.07C56.7491 99.2006 54.3223 96.6792 51.5298 94.6102C49.7333 93.4964 48.2419 91.9535 47.1898 90.1202C46.9798 89.5302 46.5298 89.2502 45.4798 89.0702C43.9298 88.8302 43.3698 88.2302 41.7998 85.1202C40.5398 82.6302 40.6098 81.7502 42.1098 80.6002C44.8375 78.9276 47.9206 77.9205 51.1098 77.6602C56.8498 77.6602 62.3498 76.5402 65.7098 74.6602L67.2898 73.7802L65.5698 75.3602C64.5698 76.2002 63.8898 76.9702 63.9998 77.0802C64.6352 77.1148 65.2723 77.0541 65.8898 76.9002C68.318 76.4296 70.4669 75.0304 71.8798 73.0002L72.9998 71.4202L74.2998 73.1002C76.6498 76.1502 83.6498 80.6302 86.7698 81.1002C88.7698 81.3802 89.3998 82.2202 88.8698 83.8402C88.0598 86.3202 89.4298 85.6902 90.5198 83.1002C91.1098 81.6302 92.0198 81.0002 92.0198 82.1002C92.0198 83.9602 89.6098 87.2102 88.2398 87.2102C86.8698 87.2102 86.7298 87.4602 85.6098 89.3802C84.4313 91.2686 82.679 92.7299 80.6098 93.5502C79.9798 93.7602 79.4498 94.0802 79.4498 94.2502C79.4498 94.8102 80.3298 94.9502 81.3098 94.6002C82.5698 94.1102 82.5398 94.5302 81.0298 97.6002C78.7498 102.33 75.5998 104.74 70.0998 105.9C66.6298 106.64 64.0998 106.57 62.4698 105.69L62.4298 105.64ZM62.5998 101.44C62.9498 100.21 63.2298 99.9002 64.8098 99.1602C65.5799 98.7243 66.4345 98.4586 67.316 98.3809C68.1974 98.3033 69.0853 98.4156 69.9198 98.7102C71.3598 99.2302 71.7098 98.8502 70.7298 97.8602C70.0598 97.2302 69.5398 97.0902 67.5798 97.0902C64.9098 97.0902 62.0798 98.0002 61.5198 99.0902C61.0731 100.303 61.024 101.627 61.3798 102.87C61.7598 103.47 62.2198 102.94 62.5998 101.44ZM67.9998 95.8702C69.0836 95.4885 70.2136 95.2531 71.3598 95.1702C72.8698 95.1702 73.3598 94.6402 72.6598 93.9102C72.3098 93.5202 71.8898 93.4902 70.9798 93.7702C70.2145 93.9862 69.4248 94.1038 68.6298 94.1202C68.1596 94.0827 67.6906 94.2061 67.2998 94.4702C66.9898 94.9902 65.7898 94.8902 64.8498 94.2602C63.9098 93.6302 63.8498 93.7002 60.5398 94.4002C58.7198 94.7802 58.0498 95.3402 58.6098 95.9002C58.9998 96.2902 60.2298 96.2202 62.7798 95.6902C63.4951 95.5304 64.2444 95.6446 64.8798 96.0102C65.2227 96.1792 65.5565 96.3661 65.8798 96.5702L67.9498 95.8702H67.9998ZM67.8998 92.6802C68.3498 92.0902 69.2298 91.0302 69.8198 90.3702C70.4098 89.7102 70.8698 89.0002 70.8198 88.8302C70.4298 88.2002 69.5898 88.5502 68.0898 89.9102C66.3998 91.4602 66.0898 91.5602 65.3198 90.7902C64.9298 90.4002 64.8298 89.7902 64.9698 88.2302C65.1681 86.9654 64.9726 85.6701 64.4098 84.5202L63.6698 82.8402L64.5498 81.8402C65.4198 80.8402 66.0498 78.5502 65.5498 78.1002C65.4398 77.9602 64.7098 78.5502 64.0098 79.3902L62.6798 80.9302L58.8598 80.5102C56.7598 80.3002 54.3398 80.0202 53.4698 79.9202C52.9524 79.7938 52.4103 79.8118 51.9025 79.9723C51.3946 80.1328 50.9406 80.4295 50.5898 80.8302C50.0786 81.2001 49.6296 81.649 49.2598 82.1602C50.1429 82.3767 51.059 82.4242 51.9598 82.3002C54.7998 82.1202 60.5398 82.7902 61.6298 83.3002C62.4998 83.7602 63.2698 85.6802 63.2698 87.4702C63.3152 88.407 62.9881 89.3238 62.3598 90.0202C61.4898 91.0202 61.4498 91.1102 62.0798 91.2502C62.8146 91.5683 63.4907 92.0078 64.0798 92.5502C65.7498 94.0802 66.8398 94.1202 67.9298 92.6802H67.8998ZM45.4398 86.6202C45.3172 86.1179 45.0773 85.6518 44.7398 85.2602C44.2654 84.6554 43.8875 83.9807 43.6198 83.2602C43.1998 82.0002 42.1798 82.0002 41.9998 83.1902C41.9298 83.7502 42.3498 84.4502 43.3998 85.5002C44.9998 87.1502 45.4398 87.3902 45.4398 86.6202ZM58.7498 85.5002C59.0298 85.5002 59.8698 85.2902 60.6098 85.1902C61.6098 85.0102 61.8698 84.8702 61.6098 84.5202C61.1298 84.0002 51.9998 83.8602 50.9998 84.3802C49.9998 84.9002 50.2998 85.3802 51.6998 85.3802C52.6274 85.434 53.535 85.672 54.3698 86.0802C55.6298 86.7102 55.7998 86.7102 56.9898 86.2202C57.5624 85.9473 58.15 85.7069 58.7498 85.5002ZM81.7498 85.1202C83.8798 83.2902 83.7498 82.8002 81.4298 84.0002C79.3598 85.0002 75.8298 85.2902 74.6398 84.5202C73.4498 83.7502 73.5498 83.4302 75.5098 83.5202C77.2298 83.6602 82.5098 82.3602 82.5098 81.8402C80.6944 81.5219 78.8524 81.3812 77.0098 81.4202C74.882 81.4764 72.7548 81.2885 70.6698 80.8602C70.0768 80.4024 69.5976 79.8138 69.2698 79.1402C68.5298 77.5702 67.9398 77.6402 68.0398 79.2802C68.0635 80.0664 68.3231 80.8273 68.785 81.464C69.247 82.1007 69.8897 82.5837 70.6298 82.8502C70.9993 82.9714 71.3395 83.1683 71.6288 83.4283C71.918 83.6882 72.15 84.0056 72.3098 84.3602C72.5598 85.0602 73.0798 85.4102 74.6998 85.9702C75.8564 86.3567 77.0548 86.6051 78.2698 86.7102C79.6898 86.7602 80.0798 86.5502 81.7998 85.1202H81.7498ZM27.6798 56.0002C22.5998 55.2602 18.3998 54.6002 18.2598 54.4902C18.2101 53.11 18.2804 51.7282 18.4698 50.3602C18.8598 47.0702 18.9998 46.5002 19.4698 46.6402C19.7798 46.7502 24.3698 47.9402 29.6598 49.3402C34.9498 50.7402 39.4298 51.9702 39.5698 52.1102C39.7098 52.2502 39.5698 53.4702 39.1198 54.8802C38.4498 56.9802 38.2398 57.3602 37.6098 57.3302C37.2098 57.2702 32.7298 56.6802 27.6798 56.0002ZM23.3798 52.8402C24.2898 51.0602 23.0998 48.6802 21.5198 49.1302C21.1553 49.2283 20.8218 49.4177 20.5509 49.6805C20.2799 49.9433 20.0805 50.2709 19.9714 50.6322C19.8623 50.9936 19.8471 51.3768 19.9273 51.7456C20.0075 52.1145 20.1805 52.4568 20.4298 52.7402C21.1298 53.7002 22.8498 53.7702 23.3798 52.8202V52.8402ZM89.5698 50.0002C88.8758 48.9676 88.321 47.8479 87.9198 46.6702C88.1298 46.4302 110.37 39.8802 110.48 40.0202C110.504 42.2587 110.255 44.4917 109.74 46.6702C109.43 47.0602 92.3698 53.1902 91.5998 53.1902C90.8268 52.1913 90.1473 51.1235 89.5698 50.0002ZM109.5 44.2902C109.778 43.8428 109.888 43.3111 109.81 42.7902C109.67 41.4902 108.13 41.2102 107.33 42.3702C106.21 43.8902 108.31 45.7102 109.5 44.2402V44.2902ZM28.5198 47.1902C27.1663 46.8767 25.831 46.4894 24.5198 46.0302C24.3098 45.7802 24.7998 43.7902 25.5198 42.0302C25.9398 41.0302 25.8698 40.7002 24.6498 38.1002C24.1257 37.1023 23.758 36.0298 23.5598 34.9202C23.9798 34.2502 37.3198 26.2702 38.6898 25.8502C39.4196 25.6844 40.0883 25.3171 40.6198 24.7902C41.9531 23.7572 43.3989 22.8783 44.9298 22.1702C47.0498 21.0902 48.9998 20.0002 49.3598 19.8002C49.4301 19.7212 49.5164 19.658 49.6129 19.6147C49.7094 19.5715 49.814 19.5491 49.9198 19.5491C50.0255 19.5491 50.1301 19.5715 50.2266 19.6147C50.3231 19.658 50.4094 19.7212 50.4798 19.8002C51.3598 20.5402 51.1498 21.1002 49.3298 23.1302C46.8642 25.9908 44.7399 29.1285 42.9998 32.4802C42.147 34.3532 40.8027 35.9601 39.1098 37.1302C37.8898 38.0402 36.6598 38.9502 36.4498 39.1302C36.1346 39.515 35.9742 40.0035 35.9998 40.5002C36.0094 41.0248 35.8241 41.5343 35.4798 41.9302C34.8431 42.9716 34.3709 44.1049 34.0798 45.2902C33.5898 46.9402 32.9898 48.2902 32.7498 48.2002C32.5098 48.1102 30.6098 47.7502 28.5398 47.2002L28.5198 47.1902ZM92.5098 39.4402C91.7798 37.3802 91.2898 36.5002 90.7298 36.2902C90.1686 36.0013 89.7057 35.5523 89.3998 35.0002C88.8698 33.9502 88.3998 33.7102 84.7398 32.9002C83.087 32.3095 81.5278 31.4844 80.1098 30.4502C78.2631 28.9706 76.0715 27.9832 73.7398 27.5802C72.6055 27.3608 71.4838 27.0804 70.3798 26.7402C70.2698 26.6702 70.3098 26.3902 70.3798 26.1102C70.6598 25.4102 71.9198 25.1602 77.2798 24.9102C81.8698 24.7002 82.0498 24.6702 83.8298 23.5102C84.8298 22.8502 85.6198 22.1502 85.4798 21.9702C85.2298 21.5502 83.4798 21.8702 82.0798 22.6002C80.6798 23.3302 80.0798 22.9902 78.8598 21.2702C77.259 19.4882 75.5383 17.8176 73.7098 16.2702C69.9998 13.0002 68.9998 11.8102 69.9998 11.8102C70.5898 11.8102 72.1698 12.7202 75.8798 15.1002C80.9598 18.4002 83.1998 19.5902 83.4798 19.1702C83.6198 18.9602 83.4798 18.3602 83.0998 17.8402C82.2198 16.5702 76.2298 10.0002 73.9998 7.7502C71.9998 5.8902 71.7598 5.2602 72.5998 4.9502C73.4398 4.6402 74.1698 5.1902 80.4398 9.9502C83.5998 12.3002 86.3298 14.2602 86.4998 14.2602C88.2898 14.2602 82.0198 8.4802 76.6598 5.2602C74.1898 3.7902 73.4898 2.7002 74.9298 2.7002C75.9298 2.7002 81.7298 5.8202 85.1598 8.2002C88.0998 10.2702 89.2198 11.6002 88.5498 12.2702C87.8798 12.9402 88.1298 13.2102 89.3598 13.2102C89.9417 13.1948 90.5108 13.3822 90.9698 13.7402C91.2254 14.0337 91.5827 14.2195 91.9698 14.2602C92.8498 14.2602 92.2198 11.4302 90.4698 7.3302C89.8357 5.99472 89.3009 4.61431 88.8698 3.2002C88.8698 2.4602 89.7098 2.6002 90.5198 3.5102C92.658 6.52238 94.519 9.72213 96.0798 13.0702C98.4998 18.3602 99.6598 25.5802 98.6398 28.9402C98.2898 30.0902 98.3598 30.5102 99.3798 32.8602C101.58 38.0102 102.18 39.8602 101.72 40.0102C100.53 40.4602 94.2298 42.2802 93.9098 42.2802C93.5898 42.2802 92.9998 41.0002 92.5098 39.4402ZM20.2598 27.0002C15.8798 13.0902 16.2598 11.6202 21.5498 21.6402C22.7498 23.8402 23.9398 25.9802 24.2198 26.3702C25.0598 27.4902 25.2198 26.7502 24.5698 24.8902L23.9998 23.1202L26.4898 19.1202C29.8498 13.7202 29.8498 13.7202 31.4298 15.6802C32.1298 16.5602 33.9798 18.5902 35.5898 20.2002C36.6418 21.1875 37.6055 22.2649 38.4698 23.4202C38.4698 23.6002 38.0498 23.8402 37.5598 23.9502C36.3598 24.2602 34.7898 23.4902 32.5598 21.4602C31.5598 20.5902 30.5598 19.9602 30.4198 20.0602C29.778 20.9814 29.4581 22.0887 29.5098 23.2102C29.7898 23.9802 30.6998 23.8402 30.8398 23.0402C30.9498 22.4102 31.1598 22.4802 33.1498 23.8102C33.8925 24.2512 34.5952 24.7565 35.2498 25.3202C34.9698 25.5602 23.0998 32.1402 22.6098 32.3202C22.1198 32.5002 21.7298 31.5602 20.2598 27.0002ZM38.0498 20.8802L36.5398 19.1002L37.7698 18.1002C38.233 17.661 38.7808 17.3207 39.3798 17.1002C39.5898 17.1002 40.1198 18.1602 40.5698 19.4502C41.3098 21.6902 41.3098 21.8002 40.6798 22.2502C39.7698 22.8802 39.6998 22.8402 38.0498 20.8802ZM34.3698 16.5402C33.8498 15.8002 33.5698 15.1702 33.7398 15.0002C34.6377 14.5352 35.5627 14.1245 36.5098 13.7702C38.2032 13.0931 39.853 12.3116 41.4498 11.4302C45.5498 9.1802 45.2698 10.4802 40.7798 14.1902C38.2998 16.2902 36.1198 17.7702 35.4898 17.7702C35.0647 17.4104 34.6883 16.997 34.3698 16.5402Z" fill="#F4E4CC"/>
<path d="M54.8301 114.15C54.3401 114.05 54.2001 113.66 54.2001 112.33C54.2001 111.33 54.0601 110.51 53.8501 110.4C53.2201 110.02 53.5001 108.62 54.3701 107.78C55.0701 107.11 55.2101 106.66 55.1801 105.18C55.1737 104.159 55.3393 103.145 55.6701 102.18L56.1601 100.95L56.8601 101.95C58.0237 103.83 59.6218 105.405 61.5201 106.54L63.1301 107.35L61.0301 107.77C58.0301 108.36 57.6601 108.47 57.9101 108.89C58.0501 109.1 59.4101 109.17 61.6901 109.03C64.4601 108.85 65.0501 108.89 64.3501 109.2C59.4801 111.41 57.6601 112.39 56.6101 113.27C56.1279 113.747 55.5026 114.052 54.8301 114.14V114.15ZM79.3401 111.7C78.0169 111.024 76.6344 110.472 75.2101 110.05C71.9901 109.05 70.9701 108.23 73.3901 108.62C74.8194 108.881 76.2345 109.215 77.6301 109.62C79.2001 110.08 80.5701 110.36 80.6301 110.18C81.2601 109.18 78.8801 107.87 75.8001 107.52L74.0401 107.31L75.6201 106.51C76.7963 105.823 77.873 104.978 78.8201 104C79.3434 103.347 79.9295 102.748 80.5701 102.21C80.9565 102.785 81.2627 103.411 81.4801 104.07C82.1101 105.64 82.1801 106.28 81.9401 108.66C81.7301 110.86 81.5501 111.49 80.9401 111.88C80.3301 112.27 80.1501 112.22 79.3401 111.7ZM67.7201 108.51C67.6101 108.34 68.1701 108.13 69.0101 108.06C70.6201 107.88 71.1101 107.99 70.8301 108.51C70.5501 109.03 68.0001 108.93 67.7201 108.51ZM27.6801 55.9996C22.6801 55.2596 18.4001 54.5997 18.2601 54.4897C18.2104 53.1095 18.2807 51.7276 18.4701 50.3596C18.8601 47.0696 19.0001 46.4996 19.4701 46.6396C19.7801 46.7496 24.3701 47.9796 29.6601 49.3396C34.9501 50.6996 39.4301 51.9696 39.5701 52.1096C39.7101 52.2497 39.5701 53.4697 39.1201 54.8797C38.4501 56.9797 38.2401 57.3597 37.6101 57.3297C37.2101 57.2697 32.7301 56.6796 27.6801 55.9996ZM23.3801 52.8396C23.7019 52.3214 23.8395 51.7097 23.7705 51.1036C23.7015 50.4975 23.4301 49.9323 23.0001 49.4996C21.9401 48.7596 21.4501 48.7996 20.6101 49.6396C20.2011 50.0399 19.9593 50.5804 19.9333 51.1521C19.9073 51.7237 20.0991 52.2839 20.4701 52.7197C21.1301 53.6996 22.8501 53.7696 23.3801 52.8196V52.8396ZM89.5701 49.9996C88.9175 48.9435 88.3651 47.8286 87.9201 46.6696C87.9901 46.5696 92.4101 45.2396 97.6601 43.6696L108.94 40.3797L110.58 39.8896L110.37 42.8896C110.311 44.0817 110.147 45.2663 109.88 46.4296C109.67 46.8096 92.5101 53.1196 91.6401 53.1196C90.8502 52.1495 90.1569 51.1045 89.5701 49.9996ZM109.5 44.2896C109.778 43.8423 109.888 43.3106 109.81 42.7896C109.67 41.4596 108.1 41.2097 107.29 42.3997C106.59 43.3997 106.59 43.5597 107.29 44.2197C107.427 44.3767 107.597 44.503 107.786 44.5901C107.976 44.6772 108.182 44.7232 108.391 44.7251C108.599 44.727 108.806 44.6847 108.997 44.6011C109.188 44.5174 109.36 44.3942 109.5 44.2397V44.2896Z" fill="white"/>
</svg>
