<svg width="128" height="128" viewBox="0 0 128 128" fill="none" xmlns="http://www.w3.org/2000/svg">
<path d="M19.492 86.2266C18.4573 87.859 17.4415 89.5035 16.445 91.1596C15.578 92.6096 16.012 94.4956 17.461 95.3666L37.324 107.555C38.774 108.425 40.656 107.988 41.527 106.539C42.4595 104.874 43.426 103.229 44.426 101.605C52.258 88.6946 60.23 90.1446 74.437 96.9646L94.157 106.246C95.75 106.973 97.492 106.246 98.215 104.796L107.641 83.4726C108.363 82.0196 107.641 80.1366 106.187 79.4096C101.984 77.5226 93.723 73.6046 86.473 69.9796C59.653 57.0656 36.887 57.9366 19.493 86.2266H19.492Z" fill="url(#paint0_linear_3_7118)"/>
<path d="M108.508 37.7729C109.543 36.1404 110.558 34.496 111.555 32.8399C112.425 31.3899 111.988 29.5039 110.539 28.6329L90.676 16.4449C89.226 15.5749 87.344 16.0119 86.473 17.4609C85.542 19.1261 84.5754 20.7711 83.574 22.3949C75.742 35.3049 67.77 33.8549 53.563 27.0349L33.843 17.7539C32.25 17.0269 30.512 17.7539 29.785 19.2039L20.363 40.5269C19.637 41.9799 20.363 43.8669 21.813 44.5899C26.016 46.4769 34.281 50.3949 41.527 54.0199C68.352 66.7899 91.113 66.0619 108.507 37.7729H108.508Z" fill="url(#paint1_linear_3_7118)"/>
<defs>
<linearGradient id="paint0_linear_3_7118" x1="107.164" y1="113.868" x2="47.168" y2="79.4196" gradientUnits="userSpaceOnUse">
<stop stop-color="#0052CC"/>
<stop offset="0.918" stop-color="#2380FB"/>
<stop offset="1" stop-color="#2684FF"/>
</linearGradient>
<linearGradient id="paint1_linear_3_7118" x1="20.836" y1="10.0919" x2="80.832" y2="44.5439" gradientUnits="userSpaceOnUse">
<stop stop-color="#0052CC"/>
<stop offset="0.918" stop-color="#2380FB"/>
<stop offset="1" stop-color="#2684FF"/>
</linearGradient>
</defs>
</svg>
