<svg width="128" height="128" viewBox="0 0 128 128" fill="none" xmlns="http://www.w3.org/2000/svg">
<path d="M23.6291 74.8748C22.6928 76.3539 21.7734 77.8437 20.8711 79.3438C20.0861 80.6558 20.4771 82.3668 21.7931 83.1558L39.7811 94.1908C41.0941 94.9808 42.8011 94.5858 43.5901 93.2728C44.4324 91.7644 45.3076 90.2747 46.2151 88.8048C53.3051 77.1088 60.5271 78.4248 73.3981 84.5978L91.2581 93.0078C92.6991 93.6678 94.2781 93.0078 94.9341 91.6948L103.469 72.3788C104.125 71.0658 103.469 69.3588 102.156 68.6988C98.3481 66.9918 90.8631 63.4448 84.2961 60.1598C60.0041 48.4648 39.3861 49.2538 23.6291 74.8748Z" fill="url(#paint0_linear_3_6807)"/>
<path d="M104.258 30.988C105.194 29.5102 106.114 28.0218 107.016 26.523C107.801 25.207 107.406 23.5 106.094 22.711L88.105 11.67C86.793 10.886 85.085 11.28 84.297 12.593C83.4539 14.1012 82.5787 15.5912 81.672 17.062C74.578 28.752 67.359 27.44 54.488 21.265L36.628 12.855C35.188 12.198 33.609 12.855 32.953 14.171L24.418 33.483C23.762 34.8 24.418 36.507 25.73 37.163C29.54 38.874 37.023 42.421 43.59 45.706C67.883 57.27 88.5 56.613 104.258 30.988Z" fill="url(#paint1_linear_3_6807)"/>
<path d="M14.9532 117.824C13.8752 118.543 12.1682 118.84 10.3712 118.84C4.67624 118.84 1.46924 115.434 1.46924 109.96C1.46924 104.7 4.67624 101.023 10.3392 101.023C12.0192 101.023 13.7272 101.352 14.9532 102.219V104.519C13.7272 103.742 12.3482 103.324 10.3402 103.324C6.26224 103.324 3.86724 106.016 3.86724 109.992C3.86724 113.969 6.38324 116.598 10.4882 116.598C12.3162 116.598 13.7272 116.18 14.9842 115.555V117.825L14.9532 117.824ZM16.6022 111.996C16.6022 108.046 18.9102 105.18 22.8672 105.18C26.7932 105.18 29.1022 108.047 29.1022 111.996C29.1022 115.941 26.7932 118.871 22.8672 118.871C18.9412 118.84 16.6022 115.941 16.6022 111.996ZM18.8202 111.996C18.8202 114.508 20.0502 116.75 22.8982 116.75C25.6842 116.75 26.9142 114.477 26.9142 111.996C26.9142 109.512 25.7142 107.27 22.8982 107.27C20.0512 107.27 18.8202 109.484 18.8202 111.996ZM42.9502 118.602H40.6722V110.648C40.6722 108.289 39.7112 107.242 37.5552 107.242C35.4532 107.242 33.9882 108.648 33.9882 111.309V118.633H31.7072V105.477H33.9882V107.629C34.8242 106.074 36.3832 105.207 38.1522 105.207C41.1802 105.207 42.9182 107.301 42.9182 110.918V118.602H42.9502ZM52.6882 105.45V107.54H49.2702V118.602H47.0552V107.539H44.9252V105.449H47.0552V104.012C47.0552 101.562 48.4342 99.918 51.2502 99.918C51.9382 99.918 52.3872 100.035 52.7772 100.125V102.219C52.3872 102.129 51.8792 102.098 51.3402 102.098C49.9302 102.098 49.2422 102.906 49.2422 104.102V105.449L52.6882 105.45ZM58.6522 118.66C56.4962 118.66 55.1172 117.645 55.1172 115.223V99.945H57.3952V114.953C57.3952 116.153 58.1722 116.57 59.1652 116.57C59.4022 116.57 59.5512 116.57 59.8202 116.54V118.574C59.6132 118.633 59.2232 118.66 58.6522 118.66ZM61.7382 105.45H64.0162V113.398C64.0162 115.762 64.9762 116.808 67.1332 116.808C69.2302 116.808 70.6992 115.402 70.6992 112.742V105.449H72.9802V118.602H70.7002V116.449C69.8602 118.004 68.3002 118.871 66.5352 118.871C63.5082 118.871 61.7702 116.777 61.7702 113.161V105.449L61.7382 105.45ZM82.6882 118.84C77.7422 118.84 75.5862 116 75.5862 111.965C75.5862 107.988 77.8052 105.148 81.8202 105.148C85.8952 105.148 87.5162 107.961 87.5162 111.965V112.98H77.8952C78.2232 115.223 79.6602 116.66 82.7772 116.66C84.3092 116.66 85.5972 116.36 86.7972 115.941V118.035C85.6872 118.633 84.0072 118.84 82.6872 118.84H82.6882ZM77.8322 111.066H85.2072C85.0862 108.617 83.9772 107.242 81.6992 107.242C79.3012 107.242 78.0742 108.766 77.8322 111.066ZM101.39 118.602H99.1132V110.648C99.1132 108.289 98.1532 107.242 95.9962 107.242C93.8982 107.242 92.4302 108.648 92.4302 111.309V118.633H90.1522V105.477H92.4302V107.629C93.2702 106.074 94.8282 105.207 96.5942 105.207C99.6212 105.207 101.359 107.301 101.359 110.918V118.602H101.39ZM113.887 118.242C113.109 118.66 111.879 118.84 110.68 118.84C105.977 118.84 103.79 116 103.79 111.965C103.79 107.988 105.977 105.148 110.68 105.148C111.879 105.148 112.777 105.297 113.828 105.778V107.871C112.988 107.481 112.09 107.242 110.859 107.242C107.445 107.242 106.035 109.395 106.035 111.965C106.035 114.535 107.477 116.687 110.922 116.687C112.27 116.687 113.109 116.507 113.918 116.211V118.242H113.887ZM122.758 118.84C117.816 118.84 115.656 116 115.656 111.965C115.656 107.988 117.875 105.148 121.891 105.148C125.965 105.148 127.586 107.961 127.586 111.965V112.98H117.965C118.293 115.223 119.735 116.66 122.852 116.66C124.379 116.66 125.668 116.36 126.867 115.941V118.035C125.757 118.633 124.109 118.84 122.757 118.84H122.758ZM117.934 111.066H125.309C125.188 108.617 124.079 107.242 121.801 107.242C119.375 107.242 118.176 108.766 117.934 111.066Z" fill="#253858"/>
<defs>
<linearGradient id="paint0_linear_3_6807" x1="103.037" y1="99.9109" x2="48.6974" y2="68.7105" gradientUnits="userSpaceOnUse">
<stop stop-color="#0052CC"/>
<stop offset="0.918" stop-color="#2380FB"/>
<stop offset="1" stop-color="#2684FF"/>
</linearGradient>
<linearGradient id="paint1_linear_3_6807" x1="24.8477" y1="5.91857" x2="79.1876" y2="37.1226" gradientUnits="userSpaceOnUse">
<stop stop-color="#0052CC"/>
<stop offset="0.918" stop-color="#2380FB"/>
<stop offset="1" stop-color="#2684FF"/>
</linearGradient>
</defs>
</svg>
