<svg width="128" height="128" viewBox="0 0 128 128" fill="none" xmlns="http://www.w3.org/2000/svg">
<path d="M101.4 77.2004C101.4 82.2004 98.7 84.7004 93.8 84.9004H33.9C29 84.9004 26.3 82.4004 26.3 77.2004C26.3 72.2004 29 69.7004 33.9 69.5004H94.1C99 69.7004 101.4 72.2004 101.4 77.2004ZM94.1 88.7004H33.9C29 88.7004 26.3 91.1004 26.3 96.4004C26.3 101.4 29 103.8 33.9 104.1H94.1C99 104.1 101.7 101.6 101.7 96.4004C101.4 91.1004 99 88.7004 94.1 88.7004ZM112.7 46.6004C107.8 46.6004 105.1 49.1004 105.1 54.0004V96.1004C105.1 101.1 107.8 103.6 112.7 103.8C120.1 103.6 124 96.1004 124 80.9004V62.0004C124 51.8004 120.1 46.8004 112.7 46.6004ZM15.3 46.6004C7.9 46.8004 4 51.8004 4 62.0004V80.9004C4 96.1004 7.9 103.6 15.3 103.8C20.2 103.8 22.9 101.4 22.9 96.1004V54.3004C22.7 49.3004 20.2 46.8004 15.3 46.6004ZM112.7 42.8004C112.7 30.1004 106.1 24.1004 94.1 23.9004H33.9C21.7 24.1004 15.3 30.4004 15.3 42.8004C22.7 42.8004 26.6 46.8004 26.6 54.3004C26.6 61.8004 30.5 65.7004 37.9 65.7004H90.4C97.7 65.7004 101.7 61.8004 101.7 54.3004C101.4 46.6004 105.6 43.1004 112.7 42.8004Z" fill="#E42528"/>
</svg>
