<svg width="128" height="128" viewBox="0 0 128 128" fill="none" xmlns="http://www.w3.org/2000/svg">
<path d="M57.9004 63.2197C54.7104 63.2197 53.1904 65.4197 53.1904 68.7797C53.1904 72.1397 54.7104 74.3297 57.9004 74.3297C61.0904 74.3297 62.5404 72.0697 62.5404 68.7797C62.5404 65.4897 61.0804 63.2197 57.9004 63.2197ZM57.9004 72.8497C55.8004 72.8497 55.1604 71.1697 55.1604 68.7797C55.1604 66.1897 55.8604 64.7097 57.9004 64.7097C59.9404 64.7097 60.6304 66.1897 60.6304 68.7797C60.6304 71.1697 59.9204 72.8497 57.9004 72.8497Z" fill="#444444"/>
<path d="M73.9202 63.3496H72.0002V71.8796C71.7502 72.0696 71.4902 72.1996 71.1802 72.3896C70.5289 72.7205 69.8107 72.8983 69.0802 72.9096C67.5502 72.9096 67.0802 71.9096 67.0802 69.5496V63.4196H65.2102V69.6196C65.2102 72.9096 66.3002 74.3996 68.6502 74.3996C69.5893 74.4184 70.5146 74.1724 71.3202 73.6896C71.6876 73.5049 72.0248 73.2656 72.3202 72.9796L72.5702 74.3296L73.9702 74.1996V63.3496H73.9202ZM76.6002 68.8396C76.6002 72.9096 78.8902 74.3296 81.1102 74.3296C81.8411 74.3264 82.5693 74.2392 83.2802 74.0696C83.558 73.9977 83.8318 73.9109 84.1002 73.8096L84.3002 72.3296C84.0402 72.3896 83.7202 72.5196 83.4002 72.5896C82.7461 72.7546 82.0748 72.8419 81.4002 72.8496C79.5502 72.8496 78.5302 71.6196 78.5302 68.8496C78.5302 66.0796 79.5302 64.7196 81.4002 64.7196C82.0748 64.7274 82.7461 64.8146 83.4002 64.9796C83.7202 65.0396 83.9802 65.1696 84.3002 65.2396L84.1702 63.8096C83.9071 63.6865 83.6275 63.6023 83.3402 63.5596C82.6335 63.3853 81.9081 63.298 81.1802 63.2996C78.9002 63.2196 76.6002 64.5096 76.6002 68.8396ZM86.7802 74.3296H88.7002V65.9996C89.6152 65.4332 90.636 65.0589 91.7002 64.8996C92.9702 64.8996 93.6102 65.6096 93.6102 68.4496V74.3296H95.5202V68.3296C95.5202 64.8396 94.5202 63.4796 92.2102 63.4796C90.9113 63.4284 89.6405 63.8674 88.6502 64.7096V59.2796L86.7402 59.4796V74.3296H86.7802ZM108 60.5096C106.616 59.575 104.955 59.1411 103.29 59.2796H99.0002V74.2796H103.7C108.86 74.2796 110.07 71.1796 110.07 66.4596C110.08 63.2196 109.24 61.5396 108 60.5096ZM103.1 72.8496H101V60.8496H103.8C107.23 60.8496 108.19 62.7296 108.19 66.5996C108.17 71.4296 107.09 72.8496 103.08 72.8496H103.1ZM121.59 66.7096C121.071 66.4425 120.509 66.2666 119.93 66.1896C120.663 66.1095 121.338 65.7561 121.822 65.2001C122.306 64.6441 122.562 63.9263 122.54 63.1896C122.54 60.3496 121.14 59.2496 117.32 59.2496H113.25V74.2696H118.09C121.52 74.2696 123.24 72.9096 123.24 69.9396C123.286 69.3019 123.157 68.6636 122.866 68.0942C122.575 67.5248 122.134 67.0459 121.59 66.7096ZM115.1 60.8296H117.1C119.71 60.8296 120.73 61.2896 120.73 63.1596C120.73 64.7696 119.9 65.6796 117.54 65.6796H115.1V60.8296ZM117.58 72.8296H115.1V66.9996H117.58C120.19 66.9996 121.4 67.6496 121.4 69.9996C121.4 72.3496 120.13 72.8496 117.59 72.8496L117.58 72.8296ZM46.9402 74.3296C47.9285 74.3137 48.913 74.2032 49.8802 73.9996C50.2466 73.8726 50.6207 73.769 51.0002 73.6896L51.1902 72.0696L50.0502 72.4596C49.117 72.7088 48.1561 72.8398 47.1902 72.8496C44.4502 72.8496 43.1102 71.0396 43.1102 66.5796C43.1102 61.9296 44.7002 60.4496 47.3802 60.4496C48.2983 60.4691 49.2125 60.5763 50.1102 60.7696C50.5602 60.8296 50.8802 61.0296 51.2602 61.0896L51.0702 59.4096C50.7502 59.2796 50.3702 59.2196 49.9902 59.0896C49.0451 58.8973 48.0845 58.7902 47.1202 58.7696C43.6202 58.7696 41.0102 60.6396 41.0102 66.4496C41.0102 69.4496 41.6502 71.4496 42.7302 72.6496C43.2636 73.2241 43.9181 73.6728 44.6462 73.9634C45.3743 74.2539 46.1579 74.379 46.9402 74.3296ZM30.0002 67.4196C30.0285 67.6892 29.9962 67.9617 29.9057 68.2172C29.8152 68.4727 29.6688 68.7048 29.4771 68.8965C29.2854 69.0882 29.0534 69.2346 28.7978 69.3251C28.5423 69.4156 28.2698 69.4479 28.0002 69.4196H12.5202C12.2482 69.4601 11.9706 69.4363 11.7094 69.3501C11.4483 69.2639 11.211 69.1178 11.0165 68.9233C10.8221 68.7289 10.6759 68.4916 10.5897 68.2304C10.5035 67.9693 10.4797 67.6916 10.5202 67.4196C10.4919 67.15 10.5242 66.8775 10.6147 66.622C10.7052 66.3665 10.8517 66.1344 11.0434 65.9427C11.235 65.7511 11.4671 65.6046 11.7226 65.5141C11.9781 65.4236 12.2506 65.3913 12.5202 65.4196H28.1102C28.3732 65.3994 28.6374 65.4382 28.8835 65.5332C29.1295 65.6282 29.3512 65.777 29.5324 65.9687C29.7135 66.1604 29.8496 66.3902 29.9305 66.6412C30.0115 66.8922 30.0353 67.1582 30.0002 67.4196ZM28.0902 70.4196H12.5202C12.2486 70.3813 11.9719 70.4066 11.7117 70.4935C11.4516 70.5805 11.2152 70.7267 11.0213 70.9207C10.8273 71.1146 10.6811 71.351 10.5942 71.6111C10.5072 71.8712 10.4819 72.148 10.5202 72.4196C10.4919 72.6892 10.5242 72.9617 10.6147 73.2172C10.7052 73.4727 10.8517 73.7048 11.0434 73.8965C11.235 74.0882 11.4671 74.2346 11.7226 74.3251C11.9781 74.4156 12.2506 74.4479 12.5202 74.4196H28.1102C28.3818 74.4579 28.6586 74.4326 28.9187 74.3457C29.1789 74.2587 29.4152 74.1125 29.6092 73.9186C29.8031 73.7246 29.9494 73.4883 30.0363 73.2281C30.1233 72.968 30.1486 72.6912 30.1102 72.4196C30.0002 70.9996 29.3902 70.3896 28.1102 70.3896L28.0902 70.4196ZM32.9302 59.5096C32.6641 59.4673 32.3918 59.4875 32.1347 59.5684C31.8777 59.6493 31.643 59.7889 31.4491 59.976C31.2552 60.1631 31.1074 60.3927 31.0173 60.6467C30.9273 60.9007 30.8975 61.1721 30.9302 61.4396V72.3296C30.9019 72.5992 30.9342 72.8717 31.0247 73.1272C31.1152 73.3827 31.2617 73.6148 31.4534 73.8065C31.645 73.9982 31.8771 74.1446 32.1326 74.2351C32.3881 74.3256 32.6606 74.3579 32.9302 74.3296C34.8402 74.2696 35.8602 72.3296 35.8602 68.3896V63.4796C35.8802 60.8296 34.8602 59.5396 32.9502 59.4796L32.9302 59.5096ZM7.67023 59.5096C5.76023 59.5696 4.74023 60.8596 4.74023 63.5096V68.4196C4.74023 72.3596 5.74023 74.2996 7.67023 74.3596C7.94222 74.4001 8.21992 74.3763 8.48105 74.2901C8.74218 74.2039 8.97949 74.0578 9.17393 73.8633C9.36838 73.6689 9.51456 73.4316 9.60074 73.1704C9.68693 72.9093 9.71073 72.6316 9.67023 72.3596V61.4796C9.69266 61.213 9.65699 60.9447 9.5657 60.6933C9.47441 60.4418 9.32966 60.2131 9.14145 60.023C8.95323 59.8329 8.72602 59.6859 8.47548 59.592C8.22494 59.4982 7.95703 59.4599 7.69023 59.4796L7.67023 59.5096ZM32.9302 58.5096C32.9302 55.2096 31.2102 53.6596 28.0902 53.5996H12.5202C9.34023 53.6596 7.69023 55.2796 7.69023 58.5096C8.09252 58.4605 8.50072 58.5049 8.88298 58.6396C9.26523 58.7742 9.6112 58.9954 9.89387 59.2858C10.1765 59.5762 10.3883 59.928 10.5125 60.3138C10.6368 60.6995 10.6702 61.1088 10.6102 61.5096C10.552 61.911 10.587 62.3204 10.7126 62.706C10.8381 63.0917 11.0508 63.4432 11.3342 63.7334C11.6176 64.0235 11.964 64.2445 12.3466 64.3791C12.7292 64.5137 13.1376 64.5584 13.5402 64.5096H27.1602C27.5629 64.5584 27.9713 64.5137 28.3539 64.3791C28.7365 64.2445 29.0829 64.0235 29.3663 63.7334C29.6496 63.4432 29.8624 63.0917 29.9879 62.706C30.1135 62.3204 30.1485 61.911 30.0902 61.5096C30.0202 59.5096 31.0902 58.5996 32.9502 58.5096H32.9302Z" fill="#444444"/>
</svg>
