<svg width="128" height="128" viewBox="0 0 128 128" fill="none" xmlns="http://www.w3.org/2000/svg">
<path d="M57.8999 63.2197C54.7099 63.2197 53.1899 65.4197 53.1899 68.7797C53.1899 72.1397 54.7099 74.3297 57.8999 74.3297C61.0899 74.3297 62.5399 72.0697 62.5399 68.7797C62.5399 65.4897 61.0799 63.2197 57.8999 63.2197ZM57.8999 72.8497C55.7999 72.8497 55.1599 71.1697 55.1599 68.7797C55.1599 66.1897 55.8599 64.7097 57.8999 64.7097C59.9399 64.7097 60.6299 66.1897 60.6299 68.7797C60.6299 71.1697 59.9199 72.8497 57.8999 72.8497Z" fill="#444444"/>
<path d="M73.9198 63.3495H71.9998V71.8795C71.7498 72.0695 71.4898 72.1995 71.1798 72.3895C70.5285 72.7204 69.8102 72.8983 69.0798 72.9095C67.5498 72.9095 67.0798 71.9095 67.0798 69.5495V63.4195H65.2098V69.6195C65.2098 72.9095 66.2998 74.3995 68.6498 74.3995C69.5888 74.4183 70.5141 74.1723 71.3198 73.6895C71.6871 73.5049 72.0243 73.2655 72.3198 72.9795L72.5698 74.3295L73.9698 74.1995V63.3495H73.9198ZM76.5998 68.8395C76.5998 72.9095 78.8898 74.3295 81.1098 74.3295C81.8407 74.3264 82.5688 74.2391 83.2798 74.0695C83.5576 73.9976 83.8313 73.9108 84.0998 73.8095L84.2998 72.3295C84.0398 72.3895 83.7198 72.5195 83.3998 72.5895C82.7456 72.7545 82.0743 72.8418 81.3998 72.8495C79.5498 72.8495 78.5298 71.6195 78.5298 68.8495C78.5298 66.0795 79.5298 64.7195 81.3998 64.7195C82.0743 64.7273 82.7456 64.8145 83.3998 64.9795C83.7198 65.0395 83.9798 65.1695 84.2998 65.2395L84.1698 63.8095C83.9067 63.6865 83.6271 63.6022 83.3398 63.5595C82.633 63.3853 81.9077 63.2979 81.1798 63.2995C78.8998 63.2195 76.5998 64.5095 76.5998 68.8395ZM86.7798 74.3295H88.6998V65.9995C89.6148 65.4331 90.6355 65.0588 91.6998 64.8995C92.9698 64.8995 93.6098 65.6095 93.6098 68.4495V74.3295H95.5198V68.3295C95.5198 64.8395 94.5198 63.4795 92.2098 63.4795C90.9108 63.4283 89.6401 63.8673 88.6498 64.7095V59.2795L86.7398 59.4795V74.3295H86.7798ZM108 60.5095C106.616 59.5749 104.954 59.141 103.29 59.2795H98.9998V74.2795H103.7C108.86 74.2795 110.07 71.1795 110.07 66.4595C110.08 63.2195 109.24 61.5395 108 60.5095ZM103.1 72.8495H101V60.8495H103.8C107.23 60.8495 108.19 62.7295 108.19 66.5995C108.17 71.4295 107.09 72.8495 103.08 72.8495H103.1ZM121.59 66.7095C121.07 66.4424 120.509 66.2665 119.93 66.1895C120.662 66.1094 121.338 65.7561 121.822 65.2001C122.305 64.6441 122.562 63.9262 122.54 63.1895C122.54 60.3495 121.14 59.2495 117.32 59.2495H113.25V74.2695H118.09C121.52 74.2695 123.24 72.9095 123.24 69.9395C123.286 69.3018 123.157 68.6635 122.866 68.0941C122.575 67.5247 122.134 67.0458 121.59 66.7095ZM115.1 60.8295H117.1C119.71 60.8295 120.73 61.2895 120.73 63.1595C120.73 64.7695 119.9 65.6795 117.54 65.6795H115.1V60.8295ZM117.58 72.8295H115.1V66.9995H117.58C120.19 66.9995 121.4 67.6495 121.4 69.9995C121.4 72.3495 120.13 72.8495 117.59 72.8495L117.58 72.8295ZM46.9398 74.3295C47.9281 74.3136 48.9126 74.2031 49.8798 73.9995C50.2461 73.8725 50.6202 73.769 50.9998 73.6895L51.1898 72.0695L50.0498 72.4595C49.1165 72.7087 48.1557 72.8397 47.1898 72.8495C44.4498 72.8495 43.1098 71.0395 43.1098 66.5795C43.1098 61.9295 44.6998 60.4495 47.3798 60.4495C48.2979 60.469 49.212 60.5762 50.1098 60.7695C50.5598 60.8295 50.8798 61.0295 51.2598 61.0895L51.0698 59.4095C50.7498 59.2795 50.3698 59.2195 49.9898 59.0895C49.0446 58.8972 48.0841 58.7901 47.1198 58.7695C43.6198 58.7695 41.0098 60.6395 41.0098 66.4495C41.0098 69.4495 41.6498 71.4495 42.7298 72.6495C43.2632 73.224 43.9176 73.6727 44.6457 73.9633C45.3738 74.2538 46.1574 74.3789 46.9398 74.3295Z" fill="#444444"/>
<path d="M30.0002 67.4196C30.0285 67.6892 29.9962 67.9617 29.9057 68.2172C29.8152 68.4727 29.6688 68.7048 29.4771 68.8965C29.2854 69.0882 29.0534 69.2346 28.7978 69.3251C28.5423 69.4156 28.2698 69.4479 28.0002 69.4196H12.5202C12.2482 69.4601 11.9706 69.4363 11.7094 69.3501C11.4483 69.2639 11.211 69.1178 11.0165 68.9233C10.8221 68.7289 10.6759 68.4916 10.5897 68.2304C10.5035 67.9693 10.4797 67.6916 10.5202 67.4196C10.4919 67.15 10.5242 66.8775 10.6147 66.622C10.7052 66.3665 10.8517 66.1344 11.0434 65.9427C11.235 65.7511 11.4671 65.6046 11.7226 65.5141C11.9781 65.4236 12.2506 65.3913 12.5202 65.4196H28.1102C28.3732 65.3994 28.6374 65.4382 28.8835 65.5332C29.1295 65.6282 29.3512 65.777 29.5324 65.9687C29.7135 66.1604 29.8496 66.3902 29.9305 66.6412C30.0115 66.8922 30.0353 67.1582 30.0002 67.4196ZM28.0902 70.4196H12.5202C12.2486 70.3813 11.9719 70.4066 11.7117 70.4935C11.4516 70.5805 11.2152 70.7267 11.0213 70.9207C10.8273 71.1146 10.6811 71.351 10.5942 71.6111C10.5072 71.8712 10.4819 72.148 10.5202 72.4196C10.4919 72.6892 10.5242 72.9617 10.6147 73.2172C10.7052 73.4727 10.8517 73.7048 11.0434 73.8965C11.235 74.0882 11.4671 74.2346 11.7226 74.3251C11.9781 74.4156 12.2506 74.4479 12.5202 74.4196H28.1102C28.3818 74.4579 28.6586 74.4326 28.9187 74.3457C29.1789 74.2587 29.4152 74.1125 29.6092 73.9186C29.8031 73.7246 29.9494 73.4883 30.0363 73.2281C30.1233 72.968 30.1486 72.6912 30.1102 72.4196C30.0002 70.9996 29.3902 70.3896 28.1102 70.3896L28.0902 70.4196ZM32.9302 59.5096C32.6641 59.4673 32.3918 59.4875 32.1347 59.5684C31.8777 59.6493 31.643 59.7889 31.4491 59.976C31.2552 60.1631 31.1074 60.3927 31.0173 60.6467C30.9273 60.9007 30.8975 61.1721 30.9302 61.4396V72.3296C30.9019 72.5992 30.9342 72.8717 31.0247 73.1272C31.1152 73.3827 31.2617 73.6148 31.4534 73.8065C31.645 73.9982 31.8771 74.1446 32.1326 74.2351C32.3881 74.3256 32.6606 74.3579 32.9302 74.3296C34.8402 74.2696 35.8602 72.3296 35.8602 68.3896V63.4796C35.8802 60.8296 34.8602 59.5396 32.9502 59.4796L32.9302 59.5096ZM7.67023 59.5096C5.76023 59.5696 4.74023 60.8596 4.74023 63.5096V68.4196C4.74023 72.3596 5.74023 74.2996 7.67023 74.3596C7.94222 74.4001 8.21992 74.3763 8.48105 74.2901C8.74218 74.2039 8.97949 74.0578 9.17393 73.8633C9.36838 73.6689 9.51456 73.4316 9.60074 73.1704C9.68693 72.9093 9.71073 72.6316 9.67023 72.3596V61.4796C9.69266 61.213 9.65699 60.9447 9.5657 60.6933C9.47441 60.4418 9.32966 60.2131 9.14145 60.023C8.95323 59.8329 8.72602 59.6859 8.47548 59.592C8.22494 59.4982 7.95703 59.4599 7.69023 59.4796L7.67023 59.5096ZM32.9302 58.5096C32.9302 55.2096 31.2102 53.6596 28.0902 53.5996H12.5202C9.34023 53.6596 7.69023 55.2796 7.69023 58.5096C8.09252 58.4605 8.50072 58.5049 8.88298 58.6396C9.26523 58.7742 9.6112 58.9954 9.89387 59.2858C10.1765 59.5762 10.3883 59.928 10.5125 60.3138C10.6368 60.6995 10.6702 61.1088 10.6102 61.5096C10.552 61.911 10.587 62.3204 10.7126 62.706C10.8381 63.0917 11.0508 63.4432 11.3342 63.7334C11.6176 64.0235 11.964 64.2445 12.3466 64.3791C12.7292 64.5137 13.1376 64.5584 13.5402 64.5096H27.1602C27.5629 64.5584 27.9713 64.5137 28.3539 64.3791C28.7365 64.2445 29.0829 64.0235 29.3663 63.7334C29.6496 63.4432 29.8624 63.0917 29.9879 62.706C30.1135 62.3204 30.1485 61.911 30.0902 61.5096C30.0202 59.5096 31.0902 58.5996 32.9502 58.5096H32.9302Z" fill="#E42528"/>
</svg>
