<svg width="178" height="132" viewBox="0 0 178 132" fill="none" xmlns="http://www.w3.org/2000/svg">
<path fill-rule="evenodd" clip-rule="evenodd" d="M150.781 102.7L121.984 131.285C121.867 131.402 121.695 131.457 121.578 131.402L82.2422 120.918C82.0702 120.859 81.9532 120.746 81.9532 120.628L71.3552 81.5581C71.2972 81.3871 71.3552 81.2731 71.4732 81.1561L100.27 52.5701C100.383 52.4531 100.559 52.3981 100.672 52.4531L140.012 62.9371C140.184 62.9971 140.297 63.1091 140.297 63.2271L150.84 102.297C150.953 102.469 150.895 102.586 150.781 102.699V102.7ZM112.191 71.5901L73.5432 81.8441C73.4882 81.8441 73.4302 81.9611 73.4882 82.0161L101.766 110.09C101.824 110.145 101.938 110.145 101.938 110.031L112.305 71.6481C112.363 71.6481 112.25 71.5311 112.191 71.5901Z" fill="black"/>
<path d="M66.9961 32.934L67.3561 35.727C65.6761 36.262 63.5741 36.5 60.9961 36.5C57.8751 36.5 55.7191 35.727 54.4571 34.121C53.1991 32.52 52.5391 29.785 52.5391 25.921C52.5391 22.059 53.1371 19.27 54.4571 17.723C55.7191 16.117 57.8751 15.348 60.9971 15.348C63.2771 15.348 65.2541 15.582 66.9341 16L66.5741 18.852C64.7174 18.7295 62.857 18.6695 60.9961 18.672C59.2581 18.672 58.1171 19.207 57.4571 20.219C56.8551 21.289 56.4971 23.187 56.4971 25.98C56.4971 28.773 56.7971 30.734 57.4571 31.746C58.1171 32.816 59.2571 33.289 60.9971 33.289C63.5161 33.23 65.5551 33.113 66.9971 32.934H66.9961ZM84.2111 29.727L86.0711 36.141H82.0511L80.3711 29.785C80.0111 28.535 79.1711 27.941 77.9731 27.941H74.2531V36.141H70.5351V15.645C72.3351 15.465 74.8551 15.406 78.0941 15.406C80.7341 15.406 82.5941 15.82 83.6721 16.711C84.7502 17.605 85.2931 19.148 85.2931 21.406C85.2931 23.012 84.9931 24.199 84.3911 25.031C83.7931 25.863 82.7731 26.398 81.3911 26.574V26.754C81.9921 26.875 82.5311 27.23 83.0741 27.704C83.6721 28.121 84.0311 28.832 84.2111 29.727ZM80.7931 24.141C81.2731 23.664 81.5121 22.832 81.5121 21.586C81.5121 20.336 81.2731 19.504 80.7931 19.031C80.3131 18.613 79.4141 18.375 78.0311 18.375H74.3131V24.852H78.0311C79.4141 24.852 80.3131 24.617 80.7931 24.141ZM138.503 15.645H122.003V18.793H128.305V36.141H132.082V18.793H138.504L138.503 15.645ZM150.141 16.594L156.379 36.082H152.48L150.8 30.262H143.121L141.441 36.082H137.601L143.781 16.594C143.961 15.941 144.441 15.582 145.161 15.582H148.821C149.481 15.645 149.961 15.942 150.141 16.594ZM149.898 27.289L147.801 20.219C147.5 19.149 147.379 18.555 147.321 18.496H146.539L146.059 20.219L144.019 27.289H149.898ZM171.438 33.051H164.238C163.578 33.051 163.098 32.934 162.859 32.695C162.617 32.457 162.438 31.985 162.438 31.391V15.645H158.656V31.922C158.656 34.777 160.219 36.203 163.336 36.203C166.879 36.203 169.578 36.082 171.555 35.965L171.438 33.051ZM96.5701 23.605C96.4501 23.902 96.1481 24.735 95.7301 26.102H95.4881C95.0701 24.793 94.7701 23.961 94.6481 23.605L90.8711 15.645H86.9111L93.6911 29.191V36.203H97.4691V29.191L104.25 15.645H100.348L96.5701 23.605ZM115.766 24.793L111.809 23.547C110.906 23.25 110.309 22.953 110.008 22.594C109.648 22.238 109.528 21.644 109.528 20.812C109.528 19.801 109.766 19.148 110.246 18.852C110.726 18.613 111.629 18.437 113.008 18.437C114.805 18.437 116.906 18.497 119.184 18.555L119.426 15.941C117.625 15.465 115.465 15.227 112.946 15.227C110.309 15.227 108.449 15.582 107.426 16.297C106.348 17.012 105.867 18.497 105.867 20.754C105.867 22.297 106.168 23.605 106.828 24.554C107.488 25.508 108.508 26.219 110.008 26.695L114.207 28.004C115.047 28.238 115.645 28.535 115.945 28.894C116.246 29.25 116.425 29.844 116.425 30.734C116.425 31.746 116.188 32.457 115.765 32.754C115.285 33.051 114.387 33.23 113.008 33.23C112.105 33.23 109.945 33.172 106.468 33.113L106.227 35.843C108.449 36.262 110.668 36.5 112.945 36.5C115.707 36.5 117.625 36.082 118.645 35.309C119.727 34.539 120.265 32.992 120.265 30.734C120.265 29.191 119.965 27.883 119.305 26.934C118.465 25.98 117.387 25.27 115.765 24.793H115.766ZM41.7381 26.457L36.2811 6.25397C36.2811 6.19497 36.2231 6.13697 36.1011 6.07797L15.6451 0.667969C15.5851 0.667969 15.4651 0.667969 15.4061 0.729969L0.406143 15.523C0.348143 15.582 0.348145 15.645 0.348145 15.762L5.80515 35.965C5.80515 36.023 5.86714 36.082 5.98814 36.141L26.4411 41.551C26.5041 41.551 26.6211 41.551 26.6841 41.488L41.6801 26.695C41.7381 26.575 41.8001 26.515 41.7381 26.457ZM21.7031 10.594L16.3051 30.437C16.3051 30.497 16.2461 30.497 16.1841 30.437L1.54715 15.941C1.48815 15.883 1.54715 15.883 1.54715 15.821L21.6451 10.473C21.6451 10.535 21.7031 10.535 21.7031 10.593V10.594Z" fill="black"/>
</svg>
