<svg width="128" height="128" viewBox="0 0 128 128" fill="none" xmlns="http://www.w3.org/2000/svg">
<path fill-rule="evenodd" clip-rule="evenodd" d="M126.887 81.2031L80.8952 126.86C80.7112 127.044 80.4342 127.134 80.2502 127.044L17.4222 110.302C17.1452 110.208 16.9612 110.024 16.9612 109.841L0.0352309 47.4371C-0.0547691 47.1641 0.0352309 46.9801 0.219231 46.7971L46.2152 1.14013C46.3982 0.956129 46.6752 0.866129 46.8592 0.956129L109.684 17.6981C109.961 17.7921 110.144 17.9761 110.144 18.1591L126.98 80.5621C127.164 80.8351 127.07 81.0191 126.887 81.2021V81.2031ZM65.2542 31.5161L3.53023 47.8951C3.43623 47.8951 3.34723 48.0781 3.43623 48.1721L48.6042 93.0041C48.6942 93.0981 48.8822 93.0981 48.8822 92.9141L65.4372 31.6101C65.5312 31.6101 65.3472 31.4271 65.2542 31.5171V31.5161Z" fill="black"/>
</svg>
