<svg width="128" height="128" viewBox="0 0 128 128" fill="none" xmlns="http://www.w3.org/2000/svg">
<path d="M117.5 33.5002L117.8 33.3002C117.2 32.2002 116.3 31.2002 115.4 30.7002L67.1 2.9002C66.3 2.4002 65.2 2.2002 64 2.2002C62.8 2.2002 61.7 2.5002 60.9 2.9002L12.9 30.8002C11.2 31.8002 10 34.3002 10 36.2002V91.9002C10 93.0002 10.2 94.2002 10.9 95.3002L10.7 95.4002C11.2 96.2002 11.9 96.9002 12.6 97.3002L60.8 125.2C61.6 125.7 62.7 125.9 63.9 125.9C65.1 125.9 66.2 125.6 67 125.2L115 97.3002C116.7 96.3002 117.9 93.8002 117.9 91.9002V36.1002C118 35.3002 117.9 34.4002 117.5 33.5002ZM64 103.5C42.2 103.5 24.5 85.8002 24.5 64.0002C24.5 42.2002 42.2 24.5002 64 24.5002C78.7 24.5002 91.5 32.6002 98.3 44.5002L85.3 52.0002C81.1 44.5002 73.1 39.5002 64 39.5002C50.5 39.5002 39.5 50.5002 39.5 64.0002C39.5 77.5002 50.5 88.5002 64 88.5002C73.1 88.5002 81.1 83.5002 85.3 76.1002L98.2 83.7002C91.4 95.5002 78.6 103.5 64 103.5ZM115 62.0002H111.8L110.9 66.0002H115V71.0002H110L108.8 77.0002H103.9L105.1 71.0002H101.3L100.1 77.0002H95.3L96.5 71.0002H94V66.0002H97.5L98.4 62.0002H94V57.0002H99.3L100.5 51.0002H105.4L104.2 57.0002H108L109.2 51.0002H114L112.8 57.0002H115V62.0002ZM102.3 66.0002H106.1L107 62.0002H103.2L102.3 66.0002Z" fill="#68217A"/>
</svg>
