<svg width="128" height="128" viewBox="0 0 128 128" fill="none" xmlns="http://www.w3.org/2000/svg">
<path d="M109 50.0002H104.2L103 56.0002H99.2L100.4 50.0002H95.5L94.3 56.0002H89V61.0002H93.4L92.5 65.0002H89V70.0002H91.5L90.3 76.0002H95.1L96.3 70.0002H100.1L98.9 76.0002H103.8L105 70.0002H110V65.0002H105.9L106.8 61.0002H110V56.0002H107.8L109 50.0002ZM101.1 65.0002H97.3L98.2 61.0002H102L101.1 65.0002ZM116.5 32.3002C115.9 31.2002 115.1 30.2002 114.2 29.7002L66.1 1.9002C65.3 1.4002 64.2 1.2002 63 1.2002C61.8 1.2002 60.7 1.5002 59.9 1.9002L11.4 29.7002C9.7 30.7002 8 33.2002 8 35.1002V90.8002C8 91.9002 8.7 93.1002 9.4 94.2002L9.5 94.3002C10 95.1002 10.8 95.8002 11.5 96.2002L59.8 124.1C60.6 124.6 61.8 124.8 63 124.8C64.2 124.8 65.3 124.5 66.1 124.1L113.6 96.2002C115.3 95.2002 116 92.7002 116 90.8002V35.1002C116 34.3002 116.4 33.3002 116 32.5002L116.5 32.3002ZM112.3 34.4002C112.3 34.7002 112 34.9002 112 35.1002V90.8002C112 91.6002 111.8 92.5002 111.6 92.8002L64 120.6C63.9 120.7 63.5 120.8 62.9 120.8C62.3 120.8 61.9 120.7 61.8 120.6L13.6 92.8002C13.6 92.8002 13.5 92.7002 13.4 92.7002L12.8 92.1002C12.4 91.4002 13 91.0002 12 90.9002V35.2002C13 34.7002 12.9 33.5002 13.4 33.3002L61.7 5.4002C61.8 5.4002 62.3 5.2002 62.9 5.2002C63.5 5.2002 63.9 5.3002 64 5.4002L112 33.1002L112.4 34.0002C112.5 34.1002 112.3 34.3002 112.3 34.4002ZM63 87.5002C49.5 87.5002 38.5 76.5002 38.5 63.0002C38.5 49.5002 49.5 38.5002 63 38.5002C72.1 38.5002 80.1 43.5002 84.3 51.0002L97.3 43.5002C90.5 31.6002 77.7 23.5002 63 23.5002C41.2 23.5002 23.5 41.2002 23.5 63.0002C23.5 84.8002 41.2 102.5 63 102.5C77.6 102.5 90.4 94.5002 97.2 82.7002L84.3 75.1002C80.1 82.5002 72.1 87.5002 63 87.5002Z" fill="#68217A"/>
</svg>
