<svg width="128" height="128" viewBox="0 0 128 128" fill="none" xmlns="http://www.w3.org/2000/svg">
<path d="M89.2342 5.85603H81.8502L89.5292 14.189V18.156H73.7132V13.511H81.3912L73.7132 5.17803V1.20703H89.2342V5.85603ZM70.5772 5.85603H63.1932L70.8722 14.189V18.156H55.0552V13.511H62.7342L55.0552 5.17803V1.20703H70.5772V5.85603ZM52.1032 6.04603H44.1352V13.317H52.1032V18.156H38.4712V1.20703H52.1032V6.04603Z" fill="#131313"/>
<path d="M27.6131 116.706L19.5161 25.8926H108.483L100.379 116.691L63.9451 126.793L27.6131 116.706Z" fill="#1572B6"/>
<path d="M64.001 119.072L93.44 110.91L100.366 33.3193H64.001V119.072Z" fill="#33A9DC"/>
<path d="M64 66.2198H78.738L79.757 54.8148H64V43.6768H91.929L91.662 46.6648L88.925 77.3568H64V66.2198Z" fill="white"/>
<path d="M64.0671 95.1458L64.0181 95.1598L51.6141 91.8098L50.8201 82.9268H39.6411L41.2021 100.415L64.0161 106.748L64.0681 106.733V95.1458H64.0671Z" fill="#EBEBEB"/>
<path d="M77.7918 76.8857L76.4498 91.8017L64.0278 95.1547V106.743L86.8608 100.415L87.0288 98.5327L88.9668 76.8857H77.7918Z" fill="white"/>
<path d="M64.0392 43.6768V54.8138H37.1362L36.9122 52.3108L36.4052 46.6648L36.1382 43.6768H64.0392ZM64.0002 66.2208V77.3588H51.7532L51.5302 74.8558L51.0222 69.2088L50.7552 66.2208H64.0002Z" fill="#EBEBEB"/>
</svg>
