<svg width="128" height="128" viewBox="0 0 128 128" fill="none" xmlns="http://www.w3.org/2000/svg">
<path d="M19.6699 26L27.7389 116.493L63.9449 126.543L100.252 116.48L108.33 26H19.6699ZM88.8799 76.488L86.5299 98.38L86.5389 100.255L63.9999 106.55V106.551L63.9819 106.566L41.2629 100.341L39.7259 83H50.8669L51.6569 91.766L64.0039 95.061L63.9999 95.076V95.044L76.3939 91.549L77.7019 77H51.7949L51.5729 74.645L51.0669 68.998L50.8019 66H78.6879L79.7019 55H37.2289L37.0059 52.411L36.4999 46.381L36.2349 43H91.8319L91.5649 46.334L88.8799 76.488ZM88.9999 14.374L81.8509 6H88.9999V1H72.9999V5.363L81.3899 13H72.9999V18H88.9999V14.374ZM69.9999 14.374L63.1929 6H69.9999V1H54.9999V5.363L62.7329 13H54.9999V18H69.9999V14.374ZM51.9999 13H43.9999V6H51.9999V1H37.9999V18H51.9999V13Z" fill="#1572B6"/>
</svg>
