<svg width="128" height="128" viewBox="0 0 128 128" fill="none" xmlns="http://www.w3.org/2000/svg">
<path d="M111.207 66.5037C110.568 66.4998 109.939 66.6724 109.392 67.0025C108.844 67.3326 108.398 67.8074 108.102 68.3747C108.102 68.0937 108.242 67.7377 108.242 67.4917V66.9647H105.773V79.2767H108.243V72.1837C108.243 70.2107 109.336 68.9377 111.243 68.9377H111.734V66.4677H111.207V66.5037ZM11.2191 71.0197C10.9131 70.4641 10.4633 70.0009 9.91688 69.6786C9.37047 69.3563 8.7475 69.1868 8.11313 69.1877C5.96113 69.1877 4.23413 70.9487 4.23413 73.1017C4.23254 73.6118 4.33181 74.1171 4.52621 74.5887C4.72061 75.0603 5.00632 75.4888 5.3669 75.8495C5.72748 76.2103 6.15582 76.4962 6.62729 76.6909C7.09876 76.8855 7.60406 76.985 8.11413 76.9837C9.38713 77.0197 10.5861 76.3127 11.2191 75.2187L13.4771 76.5587C12.8868 77.4446 12.0902 78.174 11.156 78.6843C10.2217 79.1947 9.17755 79.4707 8.11313 79.4887C4.62113 79.6987 1.66013 77.0187 1.44513 73.5267C1.23513 70.0307 3.91813 67.0697 7.41013 66.8587H8.11313C9.1844 66.8383 10.2425 67.0973 11.1831 67.6104C12.1237 68.1235 12.9144 68.8729 13.4771 69.7847L11.2191 71.0197ZM15.6291 67.1397H18.1681V73.8437C18.0981 75.4297 19.3361 76.7737 20.9221 76.8087H21.0621C22.6871 76.7727 23.9571 75.4287 23.9571 73.8087V67.1047H26.4971V74.0197C26.5671 76.9497 24.2381 79.3477 21.3091 79.4177H21.0271C19.6284 79.468 18.2668 78.961 17.2416 78.0081C16.2163 77.0553 15.6112 75.7344 15.5591 74.3357V67.1397H15.6291ZM38.5631 71.0197C38.2562 70.4648 37.8063 70.0022 37.2601 69.68C36.7138 69.3578 36.0913 69.1878 35.4571 69.1877C33.3051 69.1877 31.5781 70.9487 31.5781 73.1017C31.5765 73.6117 31.6758 74.117 31.8701 74.5885C32.0645 75.06 32.3501 75.4884 32.7105 75.8492C33.071 76.2099 33.4992 76.4959 33.9706 76.6906C34.442 76.8853 34.9471 76.9849 35.4571 76.9837C36.7271 77.0197 37.9261 76.3127 38.5621 75.2187L40.8201 76.5587C40.2298 77.4444 39.4335 78.1738 38.4994 78.6841C37.5653 79.1944 36.5214 79.4705 35.4571 79.4887C31.9651 79.6987 29.0001 77.0187 28.7891 73.5267C28.5791 70.0307 31.2581 67.0697 34.7501 66.8587H35.4571C36.5282 66.8384 37.5861 67.0976 38.5266 67.6107C39.467 68.1238 40.2575 68.8731 40.8201 69.7847L38.5631 71.0197ZM42.9731 67.1397H45.5121V73.8437C45.4421 75.4297 46.6761 76.7737 48.2661 76.8087H48.4061C50.0271 76.7727 51.2961 75.4287 51.2961 73.8087V67.1047H53.8401V74.0197C53.8425 74.7385 53.7027 75.4507 53.4286 76.1153C53.1546 76.7798 52.7519 77.3836 52.2435 77.8918C51.7352 78.4001 51.1314 78.8027 50.4668 79.0766C49.8022 79.3505 49.0899 79.4902 48.3711 79.4877C47.6523 79.4902 46.9401 79.3505 46.2755 79.0766C45.6109 78.8027 45.0071 78.4001 44.4987 77.8918C43.9904 77.3836 43.5876 76.7798 43.3136 76.1153C43.0396 75.4507 42.8997 74.7385 42.9021 74.0197L42.9731 67.1397ZM57.0861 71.6207C57.0861 68.5507 59.0631 66.8237 61.4611 66.8237C62.1994 66.7721 62.9358 66.9468 63.5723 67.3245C64.2087 67.7022 64.7148 68.265 65.0231 68.9377C65.6211 67.5277 67.0701 66.6797 68.6211 66.8237C70.9841 66.8237 72.9961 68.5857 72.9961 71.6207V79.1007H70.5271V71.6207C70.5965 71.0974 70.4578 70.5677 70.1409 70.1455C69.824 69.7232 69.354 69.4422 68.8321 69.3627C68.7271 69.3627 68.6221 69.3277 68.5511 69.3277C67.3161 69.3277 66.4341 70.0657 66.4341 71.9377V79.0307H63.8941V71.9017C63.8941 70.0317 63.0121 69.2927 61.7771 69.2927C60.6841 69.2927 59.7661 70.1757 59.7661 71.2697C59.7661 71.3747 59.7661 71.4797 59.8011 71.5497V79.0307H57.0861V71.6207ZM76.2421 63.5777H78.7821V68.6207C79.7341 67.4567 81.1841 66.7887 82.6641 66.8587C83.4936 66.8577 84.3151 67.0202 85.0817 67.3371C85.8483 67.6539 86.5448 68.1188 87.1315 68.7052C87.7182 69.2916 88.1834 69.9879 88.5006 70.7544C88.8178 71.5208 88.9808 72.3422 88.9801 73.1717C88.9807 74.0013 88.8176 74.8228 88.5004 75.5894C88.1832 76.3559 87.718 77.0524 87.1314 77.639C86.5448 78.2256 85.8483 78.6908 85.0818 79.008C84.3152 79.3252 83.4937 79.4882 82.6641 79.4877C81.9234 79.5222 81.185 79.3802 80.5099 79.0733C79.8348 78.7664 79.2422 78.3035 78.7811 77.7227V79.2067H76.2421V63.5777ZM82.4881 69.2577C81.456 69.2216 80.4512 69.5937 79.6916 70.2934C78.9319 70.9931 78.4787 71.9641 78.4301 72.9957C78.3945 74.0278 78.7668 75.0324 79.4664 75.7921C80.166 76.5518 81.1366 77.0054 82.1681 77.0547C84.3201 77.1597 86.1211 75.4647 86.2271 73.3117V73.1717C86.3321 71.1247 84.7471 69.3977 82.6991 69.2927C82.6291 69.2577 82.5591 69.2577 82.4891 69.2577H82.4881ZM102.703 76.4877C101.398 78.2887 99.3521 79.3477 97.1291 79.4177C93.6721 79.5577 90.7421 76.8437 90.6021 73.3867C90.4611 69.9257 93.1761 66.9997 96.6371 66.8587H97.1291C100.691 66.9997 103.48 69.9957 103.339 73.5627V74.0197H93.4611C93.5769 74.9003 94.0097 75.7084 94.6784 76.2929C95.3472 76.8773 96.206 77.1979 97.0941 77.1947C97.7764 77.1749 98.4446 76.9955 99.045 76.6707C99.6453 76.346 100.161 75.885 100.551 75.3247L102.703 76.4877ZM100.34 71.8677C99.9881 70.2107 98.5041 69.0467 96.8121 69.0467C95.1521 69.0467 93.7421 70.2467 93.4261 71.8667L100.34 71.8677ZM122.707 49.5697L122.25 49.3237L121.754 49.0737H121.578L121.156 48.8977C120.344 48.6177 119.496 48.5117 118.652 48.5117C114.203 48.5117 110.57 52.1447 110.57 56.5897C110.57 60.4367 113.324 63.7897 117.098 64.4917V66.8237C121.934 66.0817 126.199 62.2697 126.52 57.2267C126.766 54.1567 125.285 51.2267 122.707 49.5697ZM116.747 51.5467C116.887 51.527 117.03 51.546 117.16 51.6017C117.29 51.6574 117.402 51.7477 117.484 51.8627C118.121 52.5697 118.156 53.5927 117.629 54.3667C116.922 54.2267 116.32 53.6987 116.039 53.0267C115.943 52.8289 115.895 52.6108 115.899 52.3907C115.914 52.1713 116.008 51.9648 116.164 51.8096C116.32 51.6544 116.527 51.561 116.746 51.5467H116.747ZM114.313 53.9447H114.453C114.699 53.9447 114.945 54.0147 115.156 54.1207C115.481 54.2544 115.771 54.4605 116.004 54.7232C116.236 54.9859 116.406 55.2984 116.5 55.6367C116.199 55.8435 115.85 55.9715 115.486 56.009C115.123 56.0466 114.756 55.9925 114.418 55.8517C114.209 55.7471 114.008 55.6282 113.816 55.4957C113.43 55.2497 113.324 54.7227 113.57 54.3317C113.781 54.0507 114.063 53.8747 114.313 53.9447ZM115.156 58.9177C114.946 59.0227 114.699 59.0977 114.453 59.0977C113.957 59.1327 113.535 58.8127 113.5 58.3197C113.482 58.1824 113.498 58.0427 113.547 57.9132C113.596 57.7837 113.676 57.6684 113.781 57.5777C113.957 57.4377 114.133 57.2967 114.383 57.2267C114.629 57.1207 114.91 57.0507 115.191 57.0507C115.652 57.0507 116.074 57.1557 116.465 57.4017C116.397 57.7275 116.248 58.0308 116.032 58.2835C115.815 58.5363 115.538 58.7304 115.227 58.8477L115.156 58.9177ZM117.875 60.5077C117.77 60.7177 117.665 60.8947 117.523 61.1047C117.353 61.2804 117.121 61.3825 116.876 61.3892C116.632 61.396 116.395 61.3068 116.215 61.1407C116.038 60.9633 115.937 60.7235 115.934 60.4727C115.934 60.2617 116.004 60.0467 116.074 59.8357C116.209 59.4928 116.429 59.1898 116.713 58.9553C116.997 58.7209 117.337 58.5627 117.699 58.4957C118.086 59.0977 118.156 59.8357 117.875 60.4727V60.5077ZM119.215 52.4647C119.32 52.2497 119.425 52.0747 119.566 51.8627C119.746 51.6527 120.027 51.5117 120.344 51.5467C120.584 51.5656 120.808 51.6741 120.972 51.8507C121.135 52.0273 121.227 52.259 121.227 52.4997C121.227 52.7097 121.157 52.9567 121.086 53.1327C120.946 53.4587 120.727 53.7451 120.45 53.9666C120.173 54.1881 119.845 54.3379 119.496 54.4027C119.039 53.8047 118.934 53.0267 119.286 52.3547L119.215 52.4647ZM119.672 60.9997C119.039 60.2967 119.004 59.2727 119.532 58.4957C120.238 58.6357 120.84 59.1327 121.156 59.7657C121.262 59.9757 121.296 60.1907 121.296 60.4017C121.191 60.9297 120.696 61.3197 120.133 61.2107C119.965 61.1763 119.808 61.1041 119.672 60.9997ZM122.637 58.9177C122.392 58.9136 122.152 58.8534 121.934 58.7417C121.609 58.6088 121.319 58.4031 121.086 58.1404C120.853 57.8778 120.683 57.5652 120.59 57.2267C120.98 56.9797 121.402 56.8397 121.86 56.8747C122.145 56.8747 122.39 56.9447 122.672 57.0507C122.882 57.1557 123.062 57.2607 123.273 57.4017C123.364 57.4683 123.441 57.5524 123.5 57.6491C123.558 57.7458 123.596 57.8531 123.613 57.9648C123.629 58.0765 123.623 58.1904 123.595 58.2997C123.567 58.4091 123.517 58.5117 123.449 58.6017C123.273 58.8477 122.989 58.9877 122.707 58.9527L122.637 58.9177Z" fill="#00A818"/>
</svg>
