<svg width="128" height="128" viewBox="0 0 128 128" fill="none" xmlns="http://www.w3.org/2000/svg">
<path d="M92.2002 8.30039C91.2002 7.70039 90.2002 7.10039 89.2002 6.60039L85.9002 5.10039C85.5002 5.00039 85.2002 4.80039 84.8002 4.70039C83.8002 4.30039 82.9002 3.90039 81.9002 3.60039C76.5002 1.80039 70.8002 0.900391 64.8002 0.900391C34.3002 0.900391 9.7002 25.6004 9.7002 56.1004C9.7002 83.0004 28.9002 105.3 54.2002 110.3V126.1C87.1002 121.1 116.3 94.9004 118.5 60.5004C119.8 39.7004 109.5 18.5004 92.2002 8.30039ZM51.6002 21.6004C53.4002 21.4004 55.4002 22.1004 56.7002 23.7004C57.7002 24.7004 58.3002 26.0004 59.0002 27.4004C61.0002 32.1004 60.3002 37.2004 57.6002 40.9004C52.9002 39.9004 48.6002 36.9004 46.6002 32.2004C45.9002 30.9004 45.5002 29.1004 45.5002 27.8004C45.6002 24.4004 48.5002 21.9004 51.6002 21.6004ZM35.1002 37.9004H36.2002C37.9002 37.9004 39.2002 38.3004 40.9002 39.0004C45.6002 41.0004 49.0002 45.0004 50.0002 49.4004C46.0002 52.1004 40.5002 52.8004 35.8002 50.8004C34.5002 50.1004 33.2002 49.4004 31.8002 48.4004C27.4002 44.8004 29.8002 38.1004 35.1002 37.9004ZM36.2002 72.6004C30.1002 72.9004 27.2002 65.9004 31.6002 62.2004C32.6002 61.2004 33.9002 60.5004 35.6002 59.8004C37.4002 59.0004 39.2002 58.7004 41.1002 58.6004C44.2002 58.5004 47.2002 59.4004 49.7002 61.1004C49.0002 65.5004 45.7002 69.5004 41.0002 71.5004C39.5002 72.3004 37.8002 72.6004 36.2002 72.6004ZM59.4002 82.4004C58.7002 83.7004 58.1002 85.1004 57.1002 86.4004C53.7002 90.8004 45.9002 87.7004 46.3002 82.0004C46.3002 80.7004 46.7002 79.0004 47.4002 77.7004C49.4002 73.0004 53.4002 70.0004 58.1002 69.0004C60.7002 73.0004 61.4002 78.1004 59.4002 82.4004ZM68.5002 27.4004C69.2002 26.1004 69.8002 24.7004 70.8002 23.4004C72.2002 21.8004 74.2002 21.1004 76.1002 21.3004C79.2002 21.6004 82.2002 24.1004 82.0002 27.7004C82.0002 29.0004 81.6002 30.8004 80.9002 32.1004C78.9002 36.8004 74.9002 39.8004 70.2002 40.8004C67.2002 37.2004 66.5002 32.2004 68.5002 27.4004ZM71.5002 86.4004C70.5002 85.4004 69.9002 84.1004 69.2002 82.7004C67.2002 78.0004 67.9002 72.9004 70.6002 69.2004C75.3002 70.2004 79.6002 73.2004 81.6002 77.9004C82.3002 79.2004 82.7002 81.0004 82.7002 82.3004C82.9002 87.5004 75.2002 90.5004 71.5002 86.4004ZM92.1002 72.3004C90.4002 72.3004 89.1002 71.9004 87.4002 71.2004C82.7002 69.2004 79.3002 65.2004 78.3002 60.8004C80.8002 59.1004 83.9002 58.2004 87.0002 58.3004C88.8002 58.3004 90.7002 58.7004 92.5002 59.5004C93.8002 60.2004 95.1002 60.8004 96.5002 61.8004C101.1 65.2004 98.1002 72.7004 92.1002 72.3004Z" fill="#00A818"/>
</svg>
