<svg width="128" height="128" viewBox="0 0 128 128" fill="none" xmlns="http://www.w3.org/2000/svg">
<path d="M126.334 90.5904C126.389 90.0424 126.431 89.4933 126.462 88.9434C126.5 88.2884 87.0939 50.9004 87.0939 50.9004H86.1519C86.1519 50.9004 126.092 93.0304 126.334 90.5904Z" fill="url(#paint0_linear_3_6790)"/>
<path d="M42.2601 77.6199C42.1543 77.8555 42.0449 78.0895 41.9321 78.3218C40.6761 80.9418 59.5171 99.3599 61.0321 97.1219C61.1021 97.0239 61.1721 96.9198 61.2401 96.8218C61.3171 96.7038 61.3921 96.5919 61.4681 96.4739C62.6811 94.6339 42.7981 76.4239 42.2611 77.6199H42.2601Z" fill="url(#paint1_linear_3_6790)"/>
<path d="M68.8861 103.52C68.8331 103.638 68.4531 104.28 68.1061 104.618C68.0481 104.735 86.5001 123.035 86.5001 123.035H88.1601C88.1621 123.035 70.8401 104.295 68.8861 103.521V103.52Z" fill="url(#paint2_linear_3_6790)"/>
<path d="M126.488 88.6105C125.625 107.74 109.798 123.035 90.4642 123.035H87.8502L68.5402 104.013C70.1373 101.776 71.5999 99.4449 72.9202 97.0335H90.4642C96.0142 97.0335 100.528 92.5195 100.528 86.9685C100.528 81.4185 96.0132 76.9045 90.4642 76.9045H80.0822C80.892 72.6507 81.3018 68.3306 81.3062 64.0005C81.3062 59.5205 80.8662 55.1485 80.0462 50.9005H86.4962L126.376 90.1955C126.422 89.6678 126.459 89.1394 126.488 88.6105ZM11.9622 4.77246H1.47217V30.7755H11.9622C30.2822 30.7755 45.1922 45.6785 45.1922 64.0005C45.1922 68.9845 44.0792 73.7165 42.1042 77.9645L61.2402 96.8205C67.7434 87.1112 71.2105 75.6864 71.2002 64.0005C71.2002 31.3425 44.6262 4.77246 11.9642 4.77246H11.9622Z" fill="url(#paint3_linear_3_6790)"/>
<path d="M90.4638 4.77153H47.9858C58.3872 11.124 66.9442 20.0889 72.8058 30.7745H90.4638C96.0138 30.7745 100.528 35.2875 100.528 40.8385C100.528 46.3885 96.0128 50.8985 90.4638 50.8985H86.4958L126.376 90.1945C126.474 89.1213 126.525 88.0443 126.528 86.9665C126.528 78.2005 123.382 70.1595 118.16 63.9005C123.383 57.6445 126.528 49.6005 126.528 40.8375C126.528 20.9505 110.351 4.76953 90.4638 4.76953V4.77153Z" fill="url(#paint4_linear_3_6790)"/>
<path d="M87.8502 123.035H48.2902C56.2441 118.112 63.1299 111.644 68.5402 104.013L87.8502 123.035ZM61.2402 96.8198L42.1062 77.9648C36.8192 89.3268 25.2992 97.2288 11.9632 97.2288H1.47217V123.229H11.9622C32.4922 123.229 50.6102 112.729 61.2422 96.8218L61.2402 96.8198Z" fill="url(#paint5_linear_3_6790)"/>
<defs>
<linearGradient id="paint0_linear_3_6790" x1="53.0427" y1="13.8064" x2="127.158" y2="93.8322" gradientUnits="userSpaceOnUse">
<stop stop-color="#F9A03C"/>
<stop offset="1" stop-color="#F7974E"/>
</linearGradient>
<linearGradient id="paint1_linear_3_6790" x1="-9.02046" y1="28.3958" x2="61.4081" y2="96.7038" gradientUnits="userSpaceOnUse">
<stop stop-color="#F9A03C"/>
<stop offset="1" stop-color="#F7974E"/>
</linearGradient>
<linearGradient id="paint2_linear_3_6790" x1="23.1707" y1="52.5651" x2="84.8153" y2="125.197" gradientUnits="userSpaceOnUse">
<stop stop-color="#F9A03C"/>
<stop offset="1" stop-color="#F7974E"/>
</linearGradient>
<linearGradient id="paint3_linear_3_6790" x1="17.2461" y1="1.38825" x2="100.097" y2="116.906" gradientUnits="userSpaceOnUse">
<stop stop-color="#F26D58"/>
<stop offset="1" stop-color="#F9A03C"/>
</linearGradient>
<linearGradient id="paint4_linear_3_6790" x1="60.0169" y1="8.78338" x2="145.997" y2="60.7107" gradientUnits="userSpaceOnUse">
<stop stop-color="#B84E51"/>
<stop offset="1" stop-color="#F68E48"/>
</linearGradient>
<linearGradient id="paint5_linear_3_6790" x1="42.1204" y1="88.6235" x2="43.2867" y2="144.728" gradientUnits="userSpaceOnUse">
<stop stop-color="#F9A03C"/>
<stop offset="1" stop-color="#F7974E"/>
</linearGradient>
</defs>
</svg>
