<svg width="128" height="128" viewBox="0 0 128 128" fill="none" xmlns="http://www.w3.org/2000/svg">
<path d="M118.16 63.966C123.383 57.71 126.528 49.749 126.528 40.986C126.528 21.097 110.352 5 90.4638 5H47.9858C58.3608 12 66.9518 21 72.8058 31H90.4638C96.0138 31 100.528 35.45 100.528 41C100.528 46.55 96.0128 51 90.4638 51H80.0468C80.8668 56 81.3068 59.62 81.3068 64.098C81.3068 68.508 80.8738 73 80.0828 77H90.4648C96.0148 77 100.529 81.95 100.529 87.5C100.529 93.05 96.0128 98 90.4638 98H72.9198C71.6048 100 70.1298 102.74 68.5398 104.98C63.1368 112.59 56.2528 119 48.2898 124H90.4628C109.798 124 125.623 108.254 126.487 89.124C126.47 89.434 126.444 89.514 126.421 89.822C126.483 88.974 126.528 88.009 126.528 87.144C126.526 78.378 123.38 70.224 118.158 63.966H118.16Z" fill="url(#paint0_linear_3_7213)"/>
<path d="M61.03 97.543L61.033 97.363C61.103 97.263 61.171 97.071 61.24 96.973C61.317 96.855 61.392 96.698 61.468 96.581C61.47 96.579 61.468 96.551 61.471 96.547C67.611 87.217 71.198 76.137 71.198 64.157C71.197 31.5 44.624 5 11.962 5H1V31H11.962C30.282 31 45.192 45.823 45.192 64.144C45.192 69.128 44.079 73.819 42.104 78.068C42.098 78.081 42.091 78.428 42.084 78.442C36.79 89.782 25.283 98 11.963 98H1V124H11.962C32.358 124 50.372 113.278 61.03 97.543Z" fill="url(#paint1_linear_3_7213)"/>
<defs>
<linearGradient id="paint0_linear_3_7213" x1="85.2398" y1="97.604" x2="91.0528" y2="-49.515" gradientUnits="userSpaceOnUse">
<stop stop-color="#F9A03C"/>
<stop offset="1" stop-color="#F7974E"/>
</linearGradient>
<linearGradient id="paint1_linear_3_7213" x1="33.627" y1="97.714" x2="39.382" y2="-47.925" gradientUnits="userSpaceOnUse">
<stop stop-color="#F9A03C"/>
<stop offset="1" stop-color="#F7974E"/>
</linearGradient>
</defs>
</svg>
