<svg width="128" height="128" viewBox="0 0 128 128" fill="none" xmlns="http://www.w3.org/2000/svg">
<path d="M35.1999 34.8996L26.8999 26.5996V86.2996L26.9999 89.0996C26.9999 90.3996 27.1999 91.8996 27.6999 93.3996L93.2999 116.5L109.6 109.3L35.1999 34.8996Z" fill="#00C4B3"/>
<path d="M109.6 109.3L93.2999 116.5L27.8999 93.4004C29.1999 98.2004 31.8999 103.5 34.8999 106.6L56.1999 127.8L103.8 127.9L109.6 109.3Z" fill="#22D3C5"/>
<path d="M1.69989 65.1C-0.400115 67.3 0.699885 72 3.99989 75.5L18.6999 90.3L27.8999 93.6C27.5999 92.1 27.1999 90.6 27.1999 89.3L27.0999 86.5L26.8999 26.7M109.6 109.3L116.8 92.9L93.7999 27.3C92.2999 27 90.7999 26.7 89.4999 26.6L86.5999 26.5L26.9999 26.6" fill="#0075C9"/>
<path d="M93.6001 27.2998C93.8001 27.2998 93.8001 27.2998 93.6001 27.2998C93.8001 27.2998 93.8001 27.2998 93.6001 27.2998ZM109.6 109.3L127.3 103.5V54.7998L106.9 34.2998C103.9 31.2998 98.6001 28.4998 93.7001 27.2998L116.8 92.8998" fill="#00A8E1"/>
<path d="M90.4999 18.2003L75.6999 3.50032C72.2999 0.10032 67.6999 -0.89968 65.2999 1.20032L26.8999 26.6003H86.3999L89.2999 26.7003C90.5999 26.7003 92.0999 26.9003 93.5999 27.4003L90.4999 18.2003Z" fill="#00C4B3"/>
</svg>
