<svg width="128" height="128" viewBox="0 0 128 128" fill="none" xmlns="http://www.w3.org/2000/svg">
<path d="M65.3002 55.4002C68.1002 58.0002 69.5002 61.5002 69.5002 66.0002C69.5002 70.5002 68.1002 74.1002 65.4002 76.8002C62.7002 79.4002 58.5002 80.8002 53.0002 80.8002H43.2002V51.7002H53.3002C58.5002 51.7002 62.5002 52.9002 65.3002 55.4002ZM60.5002 72.7002C62.1002 71.2002 62.9002 69.0002 62.9002 66.1002C62.9002 63.2002 62.1002 61.0002 60.5002 59.4002C58.9002 57.9002 56.4002 57.0002 53.1002 57.0002H49.3002V75.0002H53.5002C56.6002 75.0002 58.9002 74.2002 60.5002 72.7002ZM92.6002 80.8002H86.8002V78.0002C85.1002 80.0002 83.2002 81.0002 80.8002 81.0002C78.4002 81.0002 76.4002 80.3002 74.8002 78.9002C73.2002 77.5002 72.4002 75.7002 72.4002 73.4002C72.4002 71.1002 73.2002 69.4002 74.9002 68.3002C76.6002 67.2002 78.9002 66.6002 81.8002 66.6002H86.4002V66.4002C86.4002 64.0002 85.2002 62.8002 82.6002 62.8002C81.5002 62.8002 80.4002 63.0002 79.2002 63.4002C78.0002 63.8002 77.0002 64.4002 76.1002 65.0002L73.3002 60.9002C76.3002 58.7002 79.6002 57.7002 83.4002 57.7002C86.1002 57.7002 88.3002 58.4002 90.0002 59.8002C91.7002 61.2002 92.5002 63.3002 92.5002 66.3002V80.8002H92.6002ZM86.3002 72.2002V71.3002H82.4002C79.9002 71.3002 78.6002 72.0002 78.6002 73.5002C78.6002 74.3002 78.9002 74.9002 79.5002 75.3002C80.1002 75.7002 80.9002 75.9002 82.1002 75.9002C83.2002 75.9002 84.2002 75.6002 85.0002 74.9002C85.9002 74.2002 86.3002 73.3002 86.3002 72.2002ZM109.1 63.8002C107.2 63.8002 105.7 64.4002 104.8 65.8002C103.9 67.1002 103.3 68.9002 103.3 71.1002V80.9002H97.1002V58.4002H103.3V61.3002C104.1 60.4002 105.3 59.6002 106.5 59.0002C107.7 58.4002 109.1 58.0002 110.4 58.0002V63.9002L109.1 63.8002ZM120.4 62.9002V72.8002C120.4 73.7002 120.6 74.3002 121.1 74.8002C121.5 75.3002 122.1 75.5002 122.7 75.5002C123.9 75.5002 124.9 75.0002 125.7 73.9002L128 78.3002C126.1 80.1002 124 81.0002 121.9 81.0002C119.7 81.0002 117.9 80.3002 116.4 78.9002C114.9 77.5002 114.2 75.5002 114.2 73.1002V51.7002H120.4V58.0002H127L123.6 63.0002L120.4 62.9002Z" fill="#231F20"/>
<path d="M9.3001 56.2996L7.1001 54.0996V70.4996C7.1001 70.7996 7.2001 71.1996 7.3001 71.5996L24.6001 77.6996L28.9001 75.7996L9.3001 56.2996Z" fill="#00C4B3"/>
<path d="M28.8998 75.9002L24.5998 77.8002L7.2998 71.7002C7.5998 73.0002 8.2998 74.4002 9.0998 75.2002L14.6998 80.8002H27.1998L28.8998 75.9002Z" fill="#22D3C5"/>
<path d="M0.500144 64.1996C-0.0998562 64.7996 0.200144 65.9996 1.10014 66.9996L5.00014 70.8996L7.40014 71.7996C7.30014 71.3996 7.20014 70.9996 7.20014 70.6996V69.9996L7.10014 54.0996" fill="#0075C9"/>
<path d="M28.9001 75.8996L30.8001 71.5996L24.7001 54.2996C24.3001 54.1996 23.9001 54.0996 23.6001 54.0996H7.1001" fill="#0075C9"/>
<path d="M28.9002 75.8998L33.6002 74.3998V61.4998L28.2002 56.0998C27.4002 55.2998 26.0002 54.5998 24.7002 54.2998L30.8002 71.5998" fill="#00A8E1"/>
<path d="M23.9001 51.9L19.9001 48C19.0001 47.1 17.8001 46.8 17.2001 47.4L7.1001 54.1H23.6001C23.9001 54.1 24.3001 54.2 24.7001 54.3L23.9001 51.9Z" fill="#00C4B3"/>
</svg>
