<svg width="128" height="128" viewBox="0 0 128 128" fill="none" xmlns="http://www.w3.org/2000/svg">
<path d="M86.5999 25.0003L89.5999 25.1003C90.6999 25.2003 91.7999 25.4003 92.9999 25.6003L90.4999 18.2003L75.6999 3.50032C72.2999 0.10032 67.6999 -0.89968 65.2999 1.20032L29.1999 25.1003L86.5999 25.0003ZM92.6999 28.6003C91.4999 28.4003 90.3999 28.2003 89.3999 28.1003L86.4999 28.0003L30.4999 28.1003L109.1 106.7L115.2 92.9003L92.6999 28.6003ZM28.8999 92.2003L93.1999 114.9L107 108.8L28.3999 30.2003V86.3003L28.4999 89.0003C28.4999 89.9003 28.5999 91.0003 28.8999 92.2003Z" fill="#00A8E1"/>
<path d="M106.9 34.3008C104.3 31.7008 99.8999 29.2008 95.5999 27.8008L118.4 93.0008L111.5 108.701L127.3 103.501V54.8008L106.9 34.3008ZM93.3999 118.101L28.3999 95.2008C29.7999 99.5008 32.1999 103.901 34.8999 106.601L56.1999 127.801L103.8 127.901L109.1 111.201L93.3999 118.101ZM25.4999 89.1008L25.3999 86.4008V28.9008L1.69989 65.1008C-0.400115 67.3008 0.699885 72.0008 3.99989 75.5008L18.6999 90.3008L25.9999 92.9008C25.6999 91.6008 25.4999 90.4008 25.4999 89.1008Z" fill="#00A8E1"/>
</svg>
