<svg width="128" height="128" viewBox="0 0 128 128" fill="none" xmlns="http://www.w3.org/2000/svg">
<path d="M65.3001 55.3999C68.1001 57.9999 69.5001 61.4999 69.5001 65.9999C69.5001 70.4999 68.1001 74.0999 65.4001 76.7999C62.7001 79.3999 58.5001 80.7999 53.0001 80.7999H43.2001V51.6999H53.3001C58.5001 51.6999 62.5001 52.8999 65.3001 55.3999ZM60.5001 72.6999C62.1001 71.1999 62.9001 68.9999 62.9001 66.0999C62.9001 63.1999 62.1001 60.9999 60.5001 59.3999C58.9001 57.8999 56.4001 56.9999 53.1001 56.9999H49.3001V74.9999H53.5001C56.6001 74.9999 58.9001 74.1999 60.5001 72.6999ZM92.6001 80.7999H86.8001V77.9999C85.1001 79.9999 83.2001 80.9999 80.8001 80.9999C78.4001 80.9999 76.4001 80.2999 74.8001 78.8999C73.2001 77.4999 72.4001 75.6999 72.4001 73.3999C72.4001 71.0999 73.2001 69.3999 74.9001 68.2999C76.6001 67.1999 78.9001 66.5999 81.8001 66.5999H86.4001V66.3999C86.4001 63.9999 85.2001 62.7999 82.6001 62.7999C81.5001 62.7999 80.4001 62.9999 79.2001 63.3999C78.0001 63.7999 77.0001 64.3999 76.1001 64.9999L73.3001 60.8999C76.3001 58.6999 79.6001 57.6999 83.4001 57.6999C86.1001 57.6999 88.3001 58.3999 90.0001 59.7999C91.7001 61.1999 92.5001 63.2999 92.5001 66.2999V80.7999H92.6001ZM86.3001 72.1999V71.2999H82.4001C79.9001 71.2999 78.6001 71.9999 78.6001 73.4999C78.6001 74.2999 78.9001 74.8999 79.5001 75.2999C80.1001 75.6999 80.9001 75.8999 82.1001 75.8999C83.2001 75.8999 84.2001 75.5999 85.0001 74.8999C85.9001 74.1999 86.3001 73.2999 86.3001 72.1999ZM109.1 63.7999C107.2 63.7999 105.7 64.3999 104.8 65.7999C103.9 67.0999 103.3 68.8999 103.3 71.0999V80.8999H97.1001V58.3999H103.3V61.2999C104.1 60.3999 105.3 59.5999 106.5 58.9999C107.7 58.3999 109.1 57.9999 110.4 57.9999V63.8999L109.1 63.7999ZM120.4 62.8999V72.7999C120.4 73.6999 120.6 74.2999 121.1 74.7999C121.5 75.2999 122.1 75.4999 122.7 75.4999C123.9 75.4999 124.9 74.9999 125.7 73.8999L128 78.2999C126.1 80.0999 124 80.9999 121.9 80.9999C119.7 80.9999 117.9 80.2999 116.4 78.8999C114.9 77.4999 114.2 75.4999 114.2 73.0999V51.6999H120.4V57.9999H127L123.6 62.9999L120.4 62.8999ZM23.1001 76.4999L25.9001 75.1999L7.1001 56.3999V70.2999C7.1001 70.3999 7.1001 70.5999 7.2001 70.7999L23.1001 76.4999ZM22.7001 55.3999C22.5001 55.3999 22.3001 55.2999 22.1001 55.2999H8.2001L27.0001 74.0999L28.3001 71.1999L22.7001 55.3999ZM21.5001 53.7999H22.3001C22.7001 53.7999 23.1001 53.8999 23.5001 53.9999H23.6001L23.0001 52.4999L19.2001 48.6999C18.3001 47.7999 17.1001 47.5999 16.5001 48.0999L8.0001 53.7999H21.5001Z" fill="#00A8E1"/>
<path d="M27.2001 56.6004C26.5001 55.9004 25.3001 55.2004 24.1001 54.9004L29.9001 71.3004L28.2001 75.2004L28.6001 75.6004L32.5001 74.3004V61.9004L27.2001 56.6004ZM5.70008 70.3004V56.2004L0.300084 64.4004C-0.199916 65.0004 8.36849e-05 66.2004 0.900084 67.1004L4.60008 71.0004L5.80008 71.4004C5.70008 71.0004 5.70008 70.7004 5.70008 70.3004ZM23.2001 78.1004L22.9001 78.0004L7.20008 72.4004C7.60008 73.4004 8.10008 74.5004 8.80008 75.1004L14.3001 80.5004H26.5001L27.9001 75.9004L23.2001 78.1004Z" fill="#00A8E1"/>
</svg>
