<svg width="128" height="128" viewBox="0 0 128 128" fill="none" xmlns="http://www.w3.org/2000/svg">
<path d="M69.6869 42.9274C68.3979 42.9454 69.9299 43.5904 71.6129 43.8504C72.0799 43.4864 72.4989 43.1204 72.8759 42.7634C71.8279 43.0204 70.7619 43.0254 69.6869 42.9274ZM76.6039 41.2034C77.3749 40.1424 77.9339 38.9824 78.1309 37.7844C77.9569 38.6384 77.4949 39.3754 77.0569 40.1564C74.6479 41.6744 76.8289 39.2564 77.0549 38.3334C74.4659 41.5984 76.6989 40.2914 76.6039 41.2034ZM79.1609 34.5544C79.3179 32.2334 78.7039 32.9684 78.4979 33.8534C78.7379 33.9784 78.9289 35.4904 79.1609 34.5544ZM64.7949 2.81943C65.4839 2.94243 66.2829 3.03643 66.1679 3.20243C66.9239 3.03543 67.0939 2.88443 64.7949 2.81943ZM66.1689 3.20243L65.6859 3.30343L66.1369 3.26043L66.1689 3.20243ZM87.6289 35.4354C87.7059 37.5204 87.0199 38.5334 86.3999 40.3254L85.2849 40.8804C84.3729 42.6524 85.3759 42.0054 84.7219 43.4144C83.2969 44.6804 80.4029 47.3734 79.4759 47.6204C78.7989 47.6064 79.9339 46.8224 80.0829 46.5154C78.1769 47.8234 78.5529 48.4794 75.6379 49.2754L75.5529 49.0844C68.3649 52.4674 58.3799 45.7654 58.5099 36.6214C58.4349 37.2024 58.2919 37.0564 58.1329 37.2894C57.7629 32.5854 60.3059 27.8614 64.5969 25.9284C68.7919 23.8534 73.7119 24.7034 76.7159 27.5084C75.0669 25.3454 71.7779 23.0534 67.8869 23.2654C64.0719 23.3284 60.5019 25.7514 59.3119 28.3844C57.3579 29.6134 57.1299 33.1264 56.2789 33.7704C55.1329 42.1914 58.4339 45.8294 64.0199 50.1094C64.8959 50.7014 64.2659 50.7924 64.3839 51.2434C62.5279 50.3754 60.8299 49.0634 59.4329 47.4574C60.1749 48.5414 60.9739 49.5964 62.0089 50.4244C60.2579 49.8334 57.9209 46.1844 57.2389 46.0364C60.2549 51.4364 69.4729 55.5064 74.3029 53.4864C72.0669 53.5694 69.2299 53.5324 66.7199 52.6044C65.6629 52.0624 64.2319 50.9394 64.4879 50.7304C71.0769 53.1904 77.8819 52.5924 83.5829 48.0224C85.0339 46.8924 86.6179 44.9704 87.0759 44.9444C86.3879 45.9824 87.1939 45.4434 86.6639 46.3594C88.1069 44.0284 86.0359 45.4094 88.1569 42.3354L88.9409 43.4144C88.6469 41.4774 91.3439 39.1294 91.0699 36.0694C91.6879 35.1334 91.7579 37.0774 91.1029 39.2294C92.0129 36.8414 91.3439 36.4584 91.5769 34.4864C91.8279 35.1494 92.1619 35.8534 92.3319 36.5524C91.7389 34.2444 92.9389 32.6674 93.2369 31.3254C92.9419 31.1964 92.3219 32.3454 92.1779 29.6204C92.1989 28.4354 92.5079 28.9994 92.6259 28.7084C92.3959 28.5744 91.7849 27.6664 91.4149 25.9264C91.6819 25.5164 92.1329 26.9864 92.4989 27.0464C92.2629 25.6634 91.8579 24.6084 91.8409 23.5454C90.7719 21.3114 91.4629 23.8444 90.5969 22.5864C89.4569 19.0364 91.5399 21.7624 91.6819 20.1504C93.4069 22.6484 94.3879 26.5224 94.8419 28.1274C94.4959 26.1714 93.9399 24.2754 93.2589 22.4414C93.7849 22.6634 92.4139 18.4184 93.9419 21.2294C92.3129 15.2364 86.9709 9.63643 82.0569 7.01043C82.6579 7.56043 83.4149 8.25043 83.1449 8.35943C80.6999 6.90543 81.1279 6.79043 80.7789 6.17643C78.7899 5.36643 78.6569 6.24343 77.3409 6.17843C73.5879 4.18643 72.8649 4.39743 69.4109 3.15243L69.5669 3.88743C67.0809 3.05943 66.6709 4.19943 63.9839 3.88843C63.8209 3.76243 64.8449 3.42643 65.6889 3.30543C63.2859 3.62143 63.3969 2.82943 61.0449 3.39143C61.6229 2.98443 62.2369 2.71443 62.8559 2.36943C60.8969 2.48843 58.1759 3.51043 59.0149 2.57943C55.8189 4.00743 50.1399 6.00943 46.9519 8.99743L46.8519 8.32843C45.3929 10.0804 40.4849 13.5624 40.0929 15.8344L39.7019 15.9254C38.9439 17.2114 38.4519 18.6694 37.8489 19.9924C36.8559 21.6864 36.3919 20.6444 36.5339 20.9104C34.5799 24.8724 33.6069 28.2024 32.7689 30.9334C33.3659 31.8264 32.7839 36.3104 33.0079 39.8994C32.0289 57.6274 45.4489 74.8374 60.1199 78.8094C62.2699 79.5804 65.4679 79.5534 68.1869 79.6284C64.9789 78.7104 64.5649 79.1434 61.4369 78.0534C59.1829 76.9904 58.6889 75.7774 57.0909 74.3904L57.7239 75.5074C54.5909 74.3994 55.9019 74.1354 53.3529 73.3284L54.0289 72.4484C53.0129 72.3714 51.3399 70.7374 50.8819 69.8314L49.7709 69.8754C48.4369 68.2304 47.7249 67.0424 47.7779 66.1224L47.4189 66.7624C47.0139 66.0644 42.5089 60.5854 44.8449 61.8614C44.4109 61.4654 43.8339 61.2164 43.2089 60.0794L43.6839 59.5364C42.5619 58.0894 41.6159 56.2354 41.6879 55.6164C42.2879 56.4264 42.7039 56.5784 43.1159 56.7174C40.2759 49.6724 40.1169 56.3294 37.9679 49.5464L38.4219 49.5114C38.0729 48.9844 37.8599 48.4154 37.5809 47.8544L37.7789 45.8834C35.7359 43.5224 37.2079 35.8344 37.5039 31.6194C37.7069 29.9054 39.2099 28.0804 40.3519 25.2194L39.6569 25.0994C40.9869 22.7804 47.2519 15.7824 50.1549 16.1414C51.5599 14.3744 49.8749 16.1334 49.5999 15.6904C52.6879 12.4944 53.6589 13.4324 55.7429 12.8574C57.9889 11.5244 53.8149 13.3784 54.8789 12.3494C58.7649 11.3584 57.6319 10.0934 62.6999 9.59043C63.2349 9.89443 61.4589 10.0604 61.0139 10.4544C64.2489 8.87043 71.2549 9.23143 75.8089 11.3334C81.0859 13.8024 87.0199 21.0954 87.2549 27.9584L87.5219 28.0294C87.3879 30.7584 87.9399 33.9144 86.9809 36.8114L87.6289 35.4354ZM55.6119 44.6974L55.4299 45.6004C56.2779 46.7524 56.9509 47.9994 58.0329 48.8964C57.2539 47.3804 56.6759 46.7524 55.6119 44.6974ZM57.6139 44.6204C57.1659 44.1234 56.9019 43.5254 56.6019 42.9314C56.8869 43.9764 57.4699 44.8744 58.0119 45.7894L57.6139 44.6204ZM93.0649 36.9144L92.8759 37.3904C92.5266 39.8878 91.7674 42.3104 90.6289 44.5604C91.8989 42.1724 92.7179 39.5604 93.0649 36.9144ZM65.0519 2.20043C65.9229 1.88243 67.1949 2.02543 68.1199 1.81543C66.9139 1.91743 65.7139 1.97643 64.5289 2.12843L65.0519 2.20043ZM34.4439 18.4754C34.6449 20.3344 33.0459 21.0574 34.7979 19.8294C35.7379 17.7124 34.4329 19.2464 34.4439 18.4754ZM32.3839 27.0824C32.7879 25.8434 32.8619 25.0984 33.0149 24.3804C31.8989 25.8084 32.5009 26.1124 32.3839 27.0824Z" fill="#A80030"/>
<path d="M28.6721 110.113C28.6332 110.154 28.6331 116.59 28.5521 118.27C28.4731 119.628 28.3531 122.547 25.4741 122.547C22.5151 122.547 21.7951 119.148 21.5561 117.67C21.2761 116.031 21.2761 114.67 21.2761 114.071C21.2761 112.152 21.3961 106.792 25.9151 106.792C27.2741 106.792 28.0341 107.193 28.6341 107.512L28.6721 110.113ZM17.0771 114.832C17.0771 126.107 23.0751 126.107 23.9541 126.107C26.4331 126.107 28.0331 124.747 28.7121 122.389L28.7931 125.947C29.5531 125.906 30.3121 125.826 31.5521 125.826C31.9911 125.826 32.3502 125.826 32.6712 125.867C32.9911 125.867 33.3111 125.906 33.6712 125.947C33.0311 124.668 32.5511 121.789 32.5511 115.55C32.5511 109.473 32.5511 99.197 33.0711 96.078C31.6331 96.759 30.3921 97.199 27.6741 97.438C28.7531 98.598 28.7531 99.198 28.7531 104.474C27.9941 104.236 27.0341 103.955 25.3951 103.955C18.2361 103.955 17.0771 110.192 17.0771 114.832ZM38.7612 112.791C38.8022 109.473 39.4821 106.513 42.3211 106.513C45.4401 106.513 45.6771 109.951 45.5981 112.791H38.7612ZM49.5561 113.192C49.5561 108.513 48.6382 103.915 42.7192 103.915C34.5642 103.915 34.5641 112.953 34.5641 114.871C34.5641 122.987 38.2021 126.185 44.3201 126.185C47.0371 126.185 48.3581 125.788 49.0781 125.586C49.0381 124.147 49.2371 123.227 49.4791 121.988C48.6381 122.509 47.5581 123.188 45.1601 123.188C38.9221 123.188 38.8421 117.508 38.8421 115.55H49.4801L49.5561 113.192ZM62.5641 114.911C62.5641 118.629 61.8842 123.627 57.2472 123.627C56.6062 123.627 55.8081 123.506 55.2881 123.387C55.2081 121.948 55.2081 119.468 55.2081 116.59C55.2081 113.15 55.5671 111.354 55.8491 110.472C56.6881 107.635 58.5671 107.595 58.9251 107.595C61.9641 107.595 62.5641 111.793 62.5641 114.911ZM51.0901 119.27C51.0901 122.229 51.0901 123.908 50.6111 125.187C52.2501 125.826 54.2882 126.185 56.7281 126.185C58.2882 126.185 62.8052 126.185 65.2442 121.188C66.4042 118.869 66.8041 115.75 66.8041 113.391C66.8041 111.951 66.6441 108.794 65.4851 106.793C64.3671 104.916 62.5671 103.955 60.6491 103.955C56.8091 103.955 55.6911 107.154 55.0911 108.794C55.0911 106.755 55.1301 99.637 55.4482 95.999C52.8502 97.199 51.2501 97.398 49.5322 97.558C51.0911 98.197 51.0911 100.838 51.0911 109.435V119.27M74.4891 125.947C73.6881 125.826 73.1282 125.746 71.9682 125.746C70.6912 125.746 69.8101 125.827 68.8911 125.947C69.2901 125.187 69.4511 124.826 69.5711 122.228C69.7311 118.668 69.7711 109.152 69.4911 107.153C69.2911 105.632 68.9322 105.393 68.3731 104.994C71.6502 104.674 72.5701 104.434 74.0901 103.715C73.7711 105.473 73.7291 106.356 73.7291 109.032C73.6481 122.829 73.6081 124.307 74.4891 125.947ZM87.2932 114.629C87.2141 117.149 87.1731 118.909 86.4931 120.307C85.6521 122.107 84.2532 122.626 83.2151 122.626C80.8131 122.626 80.2951 120.627 80.2951 118.669C80.2951 114.91 83.6542 114.628 85.1721 114.628H87.2932V114.629ZM76.2961 119.549C76.2961 122.069 77.0561 124.587 79.2971 125.667C80.2951 126.107 81.2952 126.107 81.6161 126.107C85.2952 126.107 86.5341 123.387 87.2941 121.708C87.2541 123.467 87.2942 124.546 87.4142 125.947C88.1332 125.906 88.8521 125.826 90.0542 125.826C90.7332 125.826 91.3722 125.906 92.0522 125.947C91.6122 125.268 91.3721 124.866 91.2511 123.307C91.1721 121.788 91.1721 120.269 91.1721 118.149L91.2121 109.993C91.2121 106.953 90.4111 103.954 84.4131 103.954C80.4561 103.954 78.1381 105.154 76.9771 105.754C77.4571 106.634 77.8582 107.391 78.2172 109.114C79.7782 107.754 81.8171 107.034 83.8941 107.034C87.2151 107.034 87.2151 109.233 87.2151 112.351C86.4551 112.311 85.8141 112.232 84.7341 112.232C79.6551 112.233 76.2961 114.19 76.2961 119.549ZM110.323 121.988C110.364 123.348 110.364 124.787 110.923 125.947C110.043 125.867 109.523 125.747 107.886 125.747C106.925 125.747 106.406 125.828 105.645 125.947C105.804 125.428 105.886 125.227 105.965 124.546C106.086 123.629 106.165 120.548 106.165 119.468V115.15C106.165 113.271 106.165 110.551 106.043 109.591C105.964 108.913 105.766 107.073 103.444 107.073C101.166 107.073 100.406 108.752 100.126 110.112C99.8081 111.511 99.8082 113.031 99.8082 118.948C99.8462 124.066 99.8462 124.545 100.246 125.946C99.5662 125.866 98.7262 125.787 97.5282 125.787C96.5672 125.787 95.9271 125.826 95.1301 125.946C95.4091 125.305 95.5692 124.985 95.6492 122.747C95.7312 120.548 95.8902 109.751 95.5282 107.193C95.3292 105.633 94.9281 105.274 94.4901 104.874C97.7291 104.713 98.7671 104.193 99.7681 103.675V107.912C100.247 106.671 101.247 103.912 105.246 103.912C110.245 103.912 110.283 107.551 110.324 109.948V121.988" fill="black"/>
<path d="M74.8271 98.0561L71.5141 101.366L68.2041 98.0561L71.5141 94.7461L74.8271 98.0561Z" fill="#A80030"/>
</svg>
