<svg width="128" height="128" viewBox="0 0 128 128" fill="none" xmlns="http://www.w3.org/2000/svg">
<path d="M73.7758 67.5308C71.7108 67.5588 74.1668 68.5938 76.8628 69.0098C77.565 68.4626 78.2401 67.8816 78.8858 67.2688C77.2068 67.6788 75.4988 67.6878 73.7758 67.5308ZM84.8618 64.7678C86.0908 63.0708 86.9888 61.2118 87.3038 59.2898C87.0278 60.6588 86.2848 61.8428 85.5838 63.0908C81.7238 65.5218 85.2208 61.6478 85.5818 60.1748C81.4318 65.3998 85.0118 63.3078 84.8618 64.7678ZM88.9548 54.1198C89.2038 50.3998 88.2218 51.5758 87.8918 52.9948C88.2758 53.1958 88.5818 55.6168 88.9548 54.1198ZM65.9438 3.28278C67.0458 3.48078 68.3248 3.63278 68.1458 3.89478C69.3518 3.63178 69.6258 3.38878 65.9438 3.28278ZM68.1458 3.89578L67.3668 4.05678L68.0918 3.99278L68.1458 3.89578ZM102.518 55.5298C102.641 58.8698 101.54 60.4908 100.549 63.3588L98.7628 64.2508C97.3028 67.0888 98.9048 66.0528 97.8598 68.3098C95.5788 70.3368 90.9388 74.6548 89.4538 75.0478C88.3698 75.0248 90.1878 73.7698 90.4258 73.2768C87.3738 75.3748 87.9768 76.4238 83.3078 77.6988L83.1718 77.3938C71.6558 82.8108 55.6618 72.0758 55.8728 57.4278C55.7498 58.3588 55.5238 58.1248 55.2678 58.5018C54.6738 50.9648 58.7488 43.3948 65.6208 40.3058C72.3428 36.9768 80.2228 38.3428 85.0378 42.8298C82.3938 39.3648 77.1288 35.6928 70.8898 36.0368C64.7788 36.1338 59.0618 40.0168 57.1548 44.2328C54.0228 46.2048 53.6598 51.8328 52.2958 52.8608C50.4608 66.3518 55.7488 72.1788 64.6938 79.0358C66.1008 79.9848 65.0898 80.1288 65.2808 80.8508C62.3088 79.4588 59.5868 77.3578 57.3498 74.7858C58.5358 76.5248 59.8178 78.2148 61.4748 79.5418C58.6718 78.5928 54.9288 72.7518 53.8348 72.5138C58.6668 81.1628 73.4338 87.6828 81.1678 84.4488C77.5888 84.5798 73.0438 84.5218 69.0228 83.0358C67.3348 82.1668 65.0388 80.3668 65.4488 80.0288C76.0018 83.9728 86.9048 83.0168 96.0348 75.6958C98.3578 73.8858 100.896 70.8088 101.629 70.7658C100.524 72.4268 101.817 71.5658 100.969 73.0318C103.285 69.2988 99.9638 71.5108 103.363 66.5838L104.619 68.3128C104.152 65.2148 108.467 61.4518 108.029 56.5508C109.019 55.0518 109.133 58.1628 108.083 61.6118C109.54 57.7868 108.467 57.1718 108.842 54.0148C109.246 55.0768 109.777 56.2028 110.05 57.3228C109.1 53.6268 111.025 51.0968 111.5 48.9498C111.033 48.7418 110.036 50.5838 109.808 46.2178C109.842 44.3218 110.336 45.2248 110.526 44.7578C110.153 44.5428 109.177 43.0898 108.582 40.3018C109.013 39.6468 109.733 41.9998 110.321 42.0968C109.943 39.8798 109.293 38.1898 109.268 36.4878C107.555 32.9088 108.662 36.9658 107.272 34.9518C105.449 29.2648 108.785 33.6318 109.01 31.0488C111.773 35.0518 113.349 41.2568 114.072 43.8258C113.52 40.6928 112.629 37.6578 111.54 34.7208C112.379 35.0748 110.188 28.2748 112.631 32.7778C110.022 23.1778 101.465 14.2088 93.5928 9.99978C94.5548 10.8808 95.7718 11.9888 95.3358 12.1618C91.4208 9.83078 92.1088 9.64878 91.5488 8.66378C88.3588 7.36678 88.1498 8.76778 86.0378 8.66678C80.0258 5.47878 78.8668 5.81678 73.3348 3.81878L73.5868 4.99578C69.6028 3.66878 68.9458 5.49878 64.6418 4.99978C64.3788 4.79478 66.0208 4.25978 67.3718 4.06278C63.5218 4.57078 63.7018 3.30378 59.9338 4.20278C60.8628 3.55178 61.8428 3.12078 62.8338 2.56578C59.6948 2.75678 55.3388 4.39378 56.6828 2.90478C51.5618 5.19078 42.4648 8.39778 37.3608 13.1848L37.1998 12.1118C34.8608 14.9208 26.9998 20.4988 26.3738 24.1338L25.7488 24.2798C24.5308 26.3398 23.7448 28.6758 22.7788 30.7968C21.1868 33.5098 20.4448 31.8408 20.6718 32.2658C17.5398 38.6148 15.9848 43.9488 14.6418 48.3228C15.5998 49.7548 14.6638 56.9368 15.0268 62.6868C13.4548 91.0808 34.9548 118.649 58.4568 125.016C61.9018 126.246 67.0238 126.2 71.3808 126.327C66.2398 124.856 65.5748 125.549 60.5678 123.802C56.9538 122.101 56.1628 120.158 53.6038 117.938L54.6178 119.728C49.5988 117.953 51.6998 117.53 47.6158 116.237L48.6988 114.825C47.0718 114.702 44.3898 112.085 43.6568 110.634L41.8778 110.704C39.7398 108.066 38.6008 106.166 38.6838 104.693L38.1088 105.717C37.4568 104.598 30.2438 95.8238 33.9858 97.8668C33.2898 97.2298 32.3658 96.8318 31.3638 95.0108L32.1258 94.1398C30.3238 91.8238 28.8108 88.8528 28.9258 87.8638C29.8858 89.1618 30.5528 89.4038 31.2128 89.6268C26.6648 78.3418 26.4098 89.0048 22.9648 78.1398L23.6938 78.0808C23.1348 77.2388 22.7958 76.3248 22.3468 75.4288L22.6628 72.2678C19.3888 68.4818 21.7468 56.1698 22.2198 49.4168C22.5478 46.6708 24.9528 43.7478 26.7828 39.1648L25.6688 38.9728C27.7998 35.2558 37.8358 24.0448 42.4838 24.6218C44.7348 21.7928 42.0378 24.6108 41.5978 23.8988C46.5428 18.7798 48.0978 20.2818 51.4358 19.3618C55.0358 17.2248 48.3468 20.1948 50.0528 18.5468C56.2758 16.9578 54.4628 14.9338 62.5808 14.1268C63.4378 14.6138 60.5938 14.8788 59.8798 15.5118C65.0648 12.9758 76.2878 13.5528 83.5768 16.9198C92.0348 20.8718 101.538 32.5578 101.913 43.5508L102.34 43.6648C102.124 48.0348 103.009 53.0888 101.475 57.7308L102.518 55.5298ZM51.2328 70.3658L50.9428 71.8138C52.2998 73.6588 53.3778 75.6568 55.1098 77.0968C53.8638 74.6628 52.9368 73.6568 51.2328 70.3658ZM54.4408 70.2398C53.7228 69.4448 53.2968 68.4888 52.8208 67.5358C53.2768 69.2108 54.2088 70.6498 55.0758 72.1138L54.4408 70.2398ZM111.226 57.8968L110.922 58.6588C110.362 62.6597 109.146 66.5408 107.323 70.1458C109.346 66.3291 110.668 62.1804 111.226 57.8968ZM66.3528 2.29278C67.7488 1.77978 69.7858 2.01178 71.2668 1.67578C69.3368 1.83778 67.4148 1.93478 65.5168 2.17878L66.3528 2.29278ZM17.3258 28.3618C17.6478 31.3408 15.0838 32.4968 17.8928 30.5328C19.3988 27.1428 17.3048 29.5978 17.3258 28.3618ZM14.0248 42.1498C14.6708 40.1638 14.7888 38.9698 15.0358 37.8218C13.2478 40.1068 14.2128 40.5948 14.0248 42.1498Z" fill="#A80030"/>
</svg>
