<svg width="128" height="128" viewBox="0 0 128 128" fill="none" xmlns="http://www.w3.org/2000/svg">
<path d="M71.4389 43.9613C71.9029 43.5993 72.3189 43.2353 72.6929 42.8813C71.6529 43.1363 70.5929 43.1413 69.5249 43.0443C68.2439 43.0623 69.7669 43.7033 71.4389 43.9613ZM76.3979 41.3313C77.1629 40.2763 77.7199 39.1253 77.9159 37.9343C77.7439 38.7823 77.2839 39.5143 76.8499 40.2893C74.4549 41.7983 76.6229 39.3943 76.8479 38.4783C74.2739 41.7233 76.4919 40.4243 76.3979 41.3313ZM78.9389 34.7253C79.0939 32.4183 78.4849 33.1503 78.2799 34.0283C78.5189 34.1523 78.7079 35.6543 78.9389 34.7253ZM64.6659 3.19429C65.3499 3.31629 66.1449 3.41029 66.0299 3.57429C66.7799 3.40829 66.9499 3.25929 64.6659 3.19429ZM65.9989 3.63229L66.0299 3.57429L65.5499 3.67529L65.9989 3.63229ZM64.3339 50.8683L64.3529 50.8083L64.3339 50.8683ZM64.2549 51.3063C62.4109 50.4443 60.7239 49.1403 59.3349 47.5453C60.0729 48.6213 60.8679 49.6693 61.8959 50.4923C60.1559 49.9053 57.8339 46.2803 57.1569 46.1333C60.1539 51.4983 69.3119 55.5423 74.1109 53.5353C71.8899 53.6183 69.0709 53.5813 66.5779 52.6583C65.6149 52.1643 64.3439 51.1883 64.3339 50.8683C64.2869 50.9933 64.2059 51.1183 64.2549 51.3063ZM91.8719 29.8223C91.8929 28.6443 92.1999 29.2053 92.3169 28.9163C92.0879 28.7823 91.4809 27.8813 91.1139 26.1513C91.3789 25.7443 91.8269 27.2053 92.1899 27.2633C91.9559 25.8893 91.5539 24.8413 91.5369 23.7843C90.4739 21.5643 91.1609 24.0813 90.2999 22.8313C89.1679 19.3053 91.2379 22.0133 91.3789 20.4113C93.0909 22.8923 94.0669 26.7423 94.5189 28.3373C94.1749 26.3943 93.6229 24.5103 92.9459 22.6873C93.4679 22.9093 92.1069 18.6913 93.6239 21.4833C92.0049 15.5293 86.6989 9.96529 81.8159 7.35629C82.4129 7.90229 83.1659 8.58729 82.8969 8.69629C80.4679 7.25129 80.8939 7.13729 80.5459 6.52729C78.5689 5.72129 78.4379 6.59229 77.1299 6.52929C73.4009 4.55029 72.6819 4.75929 69.2499 3.52229L69.4059 4.25229C66.9359 3.43029 66.5289 4.56229 63.8599 4.25329C63.6969 4.12729 64.7149 3.79429 65.5539 3.67429C63.1649 3.98829 63.2769 3.20129 60.9399 3.76029C61.5149 3.35629 62.1259 3.08729 62.7379 2.74429C60.7919 2.86229 58.0889 3.87829 58.9229 2.95329C55.7469 4.37229 50.1059 6.36129 46.9389 9.33029L46.8389 8.66529C45.3889 10.4063 40.5129 13.8663 40.1239 16.1233L39.7359 16.2133C38.9829 17.4913 38.4939 18.9403 37.8949 20.2543C36.9069 21.9373 36.4469 20.9023 36.5879 21.1663C34.6459 25.1033 33.6799 28.4103 32.8489 31.1253C33.4409 32.0123 32.8619 36.4673 33.0859 40.0323C32.1119 57.6453 45.4469 74.7453 60.0229 78.6923C62.1599 79.4583 65.3359 79.4303 68.0379 79.5053C64.8499 78.5933 64.4389 79.0233 61.3319 77.9403C59.0919 76.8843 58.6009 75.6793 57.0139 74.3013L57.6429 75.4113C54.5319 74.3093 55.8329 74.0483 53.2999 73.2463L53.9709 72.3723C52.9619 72.2953 51.2989 70.6723 50.8439 69.7713L49.7399 69.8153C48.4149 68.1803 47.7069 67.0003 47.7599 66.0863L47.4039 66.7223C47.0009 66.0293 42.5249 60.5853 44.8459 61.8523C44.4149 61.4593 43.8419 61.2113 43.2199 60.0813L43.6929 59.5423C42.5779 58.1043 41.6369 56.2623 41.7099 55.6473C42.3049 56.4513 42.7179 56.6023 43.1279 56.7413C40.3059 49.7413 40.1489 56.3553 38.0119 49.6153L38.4639 49.5803C38.1179 49.0573 37.9059 48.4913 37.6279 47.9343L37.8259 45.9753C35.7959 43.6293 37.2589 35.9923 37.5529 31.8043C37.7539 30.1013 39.2479 28.2873 40.3819 25.4453L39.6909 25.3263C41.0129 23.0223 47.2369 16.0683 50.1209 16.4253C51.5169 14.6713 49.8429 16.4173 49.5699 15.9783C52.6379 12.8033 53.6029 13.7353 55.6729 13.1633C57.9049 11.8393 53.7569 13.6823 54.8149 12.6593C58.6759 11.6743 57.5499 10.4173 62.5859 9.91729C63.1179 10.2193 61.3539 10.3843 60.9109 10.7763C64.1259 9.20229 71.0869 9.56129 75.6109 11.6493C80.8549 14.1013 86.7499 21.3483 86.9839 28.1673L87.2489 28.2373C87.1159 30.9483 87.6639 34.0843 86.7109 36.9633L87.3549 35.5993C87.4319 37.6703 86.7509 38.6773 86.1349 40.4563L85.0269 41.0083C84.1209 42.7693 85.1169 42.1263 84.4679 43.5263C83.0519 44.7843 80.1759 47.4613 79.2549 47.7063C78.5829 47.6923 79.7109 46.9133 79.8589 46.6083C77.9649 47.9083 78.3389 48.5593 75.4419 49.3503L75.3579 49.1603C68.2159 52.5223 58.2959 45.8633 58.4249 36.7783C58.3499 37.3543 58.2089 37.2113 58.0509 37.4423C57.6829 32.7693 60.2089 28.0753 64.4729 26.1553C68.6419 24.0923 73.5289 24.9373 76.5139 27.7243C74.8749 25.5753 71.6089 23.2973 67.7409 23.5083C63.9509 23.5703 60.4049 25.9773 59.2219 28.5933C57.2799 29.8153 57.0549 33.3053 56.2089 33.9453C55.0689 42.3123 58.3499 45.9263 63.8999 50.1793C64.3479 50.4823 64.3989 50.6533 64.3589 50.8083L64.3659 50.7963C70.9119 53.2393 77.6729 52.6463 83.3369 48.1063C84.7779 46.9843 86.3529 45.0743 86.8079 45.0473C86.1229 46.0793 86.9259 45.5433 86.3989 46.4533C87.8339 44.1373 85.7749 45.5103 87.8829 42.4543L88.6619 43.5253C88.3699 41.6013 91.0489 39.2683 90.7769 36.2273C91.3909 35.2983 91.4619 37.2293 90.8099 39.3673C91.7149 36.9953 91.0499 36.6143 91.2809 34.6553C91.5299 35.3143 91.8619 36.0123 92.0309 36.7083C91.4419 34.4153 92.6339 32.8483 92.9299 31.5153C92.6299 31.3873 92.0139 32.5293 91.8719 29.8223ZM55.3609 45.6993C56.2029 46.8443 56.8719 48.0833 57.9459 48.9743C57.1729 47.4673 56.5989 46.8433 55.5419 44.8013L55.3609 45.6993ZM57.5309 44.7253C57.0859 44.2323 56.8229 43.6373 56.5259 43.0473C56.8099 44.0853 57.3879 44.9783 57.9259 45.8873L57.5309 44.7253ZM90.3329 44.6663C91.5871 42.2986 92.4067 39.7252 92.7529 37.0683L92.5649 37.5413C92.2186 40.0231 91.4644 42.4305 90.3329 44.6663ZM67.9689 2.19629C66.7699 2.29729 65.5779 2.35629 64.4009 2.50829L64.9199 2.57929C65.7859 2.26329 67.0479 2.40529 67.9689 2.19629ZM34.5179 18.8403L34.5109 18.7493L34.5179 18.8403ZM34.8609 20.0953C35.7519 18.0893 34.6149 19.3803 34.5169 18.8403C34.6569 20.6193 33.1499 21.2943 34.8609 20.0953ZM32.4629 27.3013C32.8649 26.0703 32.9369 25.3293 33.0899 24.6163C31.9819 26.0343 32.5799 26.3373 32.4629 27.3013ZM33.1449 95.8523C31.7159 96.5293 30.4829 96.9653 27.7819 97.2043C28.8539 98.3553 28.8539 98.9523 28.8539 104.194C28.1009 103.957 27.1459 103.678 25.5169 103.678C18.4059 103.678 17.2539 109.875 17.2539 114.486C17.2539 125.688 23.2129 125.688 24.0869 125.688C26.5499 125.688 28.1399 124.336 28.8149 121.994L28.8949 125.529C29.6499 125.488 30.4039 125.409 31.6359 125.409C32.0729 125.409 32.4289 125.409 32.7479 125.45C33.0659 125.45 33.3829 125.488 33.7419 125.529C33.1059 124.258 32.6289 121.398 32.6289 115.199C32.6289 109.16 32.6289 98.9513 33.1449 95.8523ZM28.6559 117.901C28.5779 119.25 28.4579 122.15 25.5979 122.15C22.6579 122.15 21.9419 118.773 21.7049 117.304C21.4269 115.676 21.4269 114.324 21.4269 113.729C21.4269 111.823 21.5459 106.498 26.0349 106.498C27.3869 106.498 28.1409 106.896 28.7359 107.213L28.7759 109.796C28.7349 109.837 28.7349 116.231 28.6559 117.901ZM42.7319 103.638C34.6279 103.638 34.6279 112.618 34.6279 114.524C34.6279 122.587 38.2429 125.765 44.3209 125.765C47.0209 125.765 48.3329 125.37 49.0489 125.17C49.0089 123.74 49.2069 122.826 49.4469 121.595C48.6109 122.113 47.5389 122.688 45.1549 122.688C38.9579 122.688 38.8769 117 38.8769 115H49.4459L49.5229 112.757C49.5239 108.109 48.6109 103.638 42.7319 103.638ZM45.5919 113H38.7989C38.8399 110 39.5159 106.763 42.3349 106.763C45.4349 106.763 45.6699 110 45.5919 113ZM60.5439 103.678C56.7299 103.678 55.6179 106.857 55.0229 108.486C55.0229 106.46 55.0619 99.3883 55.3779 95.7733C52.7969 96.9653 51.1819 97.1633 49.4759 97.3223C51.0239 97.9563 50.9999 100.58 50.9999 109.122V119H51.0479C51.0479 122 51.0479 123.555 50.5719 124.826C52.1999 125.461 54.2249 125.792 56.6499 125.792C58.1989 125.792 62.6879 125.778 65.1109 120.813C66.2629 118.508 66.6599 115.403 66.6599 113.059C66.6599 111.628 66.5009 108.487 65.3489 106.501C64.2379 104.635 62.4499 103.678 60.5439 103.678ZM57.1659 123.224C56.5299 123.224 55.7359 123.104 55.2209 122.985C55.1409 121.555 55.1409 119.091 55.1409 116.232C55.1409 112.814 55.4979 111.03 55.7769 110.154C56.6099 107.334 58.4779 107.296 58.8349 107.296C61.8549 107.296 62.4499 111.467 62.4499 114.565C62.4489 118.258 61.7739 123.224 57.1659 123.224ZM73.5409 108.723C73.5409 106.063 73.5829 105.186 73.8989 103.439C72.3899 104.155 71.4769 104.393 68.2199 104.71C68.7759 105.107 69.1329 105.344 69.3309 106.856C69.6089 108.842 69.5679 118.297 69.4099 121.834C69.2909 124.415 69.1319 124.774 68.7349 125.529C69.6479 125.41 70.5239 125.329 71.7929 125.329C72.9449 125.329 73.5019 125.409 74.2979 125.529C73.4219 123.898 73.4609 122.431 73.5409 108.723ZM90.8719 117.78L90.9129 109.676C90.9129 106.655 90.1169 103.677 84.1579 103.677C80.2259 103.677 77.9219 104.868 76.7699 105.465C77.2479 106.339 77.6449 107.091 78.0019 108.803C79.5519 107.452 81.5779 106.737 83.6419 106.737C86.9419 106.737 86.9419 108.922 86.9419 112.019C86.1869 111.98 85.5499 111.901 84.4769 111.901C79.4299 111.903 76.0929 113.846 76.0929 119.172C76.0929 121.676 76.8479 124.177 79.0739 125.25C80.0669 125.688 81.0589 125.688 81.3779 125.688C85.0329 125.688 86.2639 122.985 87.0199 121.317C86.9799 123.065 87.0199 124.136 87.1389 125.529C87.8539 125.488 88.5689 125.409 89.7629 125.409C90.4379 125.409 91.0729 125.488 91.7479 125.529C91.3109 124.854 91.0729 124.455 90.9529 122.906C90.8719 121.396 90.8719 119.887 90.8719 117.78ZM86.2229 119.783C85.3889 121.571 83.9979 122.159 82.9659 122.159C80.5799 122.159 80.0659 120.066 80.0659 118.12C80.0659 114.386 83.4039 113.999 84.9119 113.999H87.0189C86.9399 117 86.8989 118.393 86.2229 119.783ZM110 121.595V109.634C110 107.252 109.665 103.637 104.698 103.637C100.724 103.637 99.9999 106.377 98.9999 107.611V103.401C97.9999 103.917 97.1809 104.433 93.9629 104.593C94.3979 104.989 94.8989 105.346 95.0969 106.897C95.4569 109.438 95.3499 120.165 95.2689 122.35C95.1899 124.574 95.0569 124.892 94.7789 125.529C95.5719 125.409 96.2199 125.371 97.1749 125.371C98.3669 125.371 99.2069 125.45 99.8809 125.529C99.4849 124.136 99.4869 123.662 99.4489 118.577C99.4489 112.697 99.4499 111.187 99.7669 109.797C100.045 108.446 100.801 106.778 103.065 106.778C105.372 106.778 105.685 108.606 105.763 109.279C105.885 110.232 106 112.935 106 114.802V119.091C106 120.164 105.805 123.225 105.685 124.136C105.607 124.813 105.467 125.013 105.309 125.529C106.066 125.411 106.553 125.33 107.507 125.33C109.133 125.33 109.685 125.45 110.56 125.529C110.005 124.376 110 122.946 110 121.595ZM71.3419 101.1L68.0529 97.8113L71.3429 94.5223L74.6319 97.8113L71.3419 101.1Z" fill="#A80030"/>
</svg>
