<svg width="128" height="128" viewBox="0 0 128 128" fill="none" xmlns="http://www.w3.org/2000/svg">
<path d="M59.0162 13.3279C58.7772 13.3519 58.0162 13.4409 57.3282 13.5039C47.5512 14.5269 37.9222 18.6679 30.0702 25.2419C28.6212 26.4449 25.3202 29.7459 24.1172 31.1949C17.6172 38.9609 13.8172 47.6749 12.4142 57.9879C12.1022 60.2779 12.1022 68.0039 12.4142 70.2929C13.8162 80.6049 17.6172 89.3199 24.1172 97.0859C25.3202 98.5359 28.6212 101.836 30.0702 103.039C37.8362 109.539 46.5502 113.339 56.8632 114.742C59.1532 115.055 66.8792 115.055 69.1682 114.742C79.4802 113.34 88.1952 109.539 95.9612 103.039C97.4112 101.836 100.711 98.5349 101.914 97.0859C108.414 89.3199 112.214 80.6059 113.614 70.2929C113.93 68.0029 113.93 60.2769 113.614 57.9879C112.214 47.6759 108.414 38.9609 101.914 31.1949C100.711 29.7459 97.4102 26.4449 95.9612 25.2419C88.2232 18.7659 79.4182 14.9179 69.2422 13.5549C68.1412 13.4019 66.5432 13.3399 63.5782 13.3159C61.3162 13.2889 59.2502 13.3049 59.0162 13.3279ZM59.6412 18.7299C59.6412 20.1909 59.7382 23.3669 59.8792 26.3829C59.9532 27.8549 60.0392 29.9689 60.0792 31.0699C60.2152 34.9729 60.6292 45.2099 60.6912 46.1249L60.7542 47.0349L60.1912 46.9729C59.8792 46.9489 59.5902 46.8749 59.5392 46.8359C59.5042 46.7859 59.4142 45.9219 59.3632 44.9099C59.1412 40.4599 58.4032 23.1909 58.3282 20.6679L58.2502 17.8909L58.6022 17.8439C58.7892 17.8159 59.1022 17.7809 59.3012 17.7659L59.6412 17.7539V18.7299ZM71.6052 18.4299C71.6172 18.4409 71.6562 22.2189 71.6912 26.8199C71.7422 31.4339 71.8052 35.5699 71.8442 36.0199C71.8792 36.4839 71.8672 36.8829 71.8042 36.9099C71.7542 36.9449 71.4412 36.9449 71.1292 36.9099L70.5552 36.8599L70.4692 33.2189C70.4284 31.5651 70.3818 29.9114 70.3292 28.2579C70.2302 26.0429 70.1412 18.5309 70.2192 18.3439C70.2662 18.2039 70.4062 18.1909 70.9292 18.2809C71.2932 18.3549 71.5942 18.4179 71.6052 18.4299ZM42.6842 22.6169C42.7622 22.7299 43.3482 29.6209 44.0742 38.6329C44.3132 41.6989 44.5472 44.4999 44.5862 44.8479C44.6482 45.4839 44.6362 45.5119 44.2342 45.7619C44.0122 45.8979 43.7852 46.0119 43.7342 46.0119C43.6992 46.0119 43.6252 45.6869 43.5862 45.2849C43.4102 43.6599 42.7342 35.8089 42.2622 30.1329C41.9842 26.7929 41.7342 23.8049 41.6992 23.4799C41.6372 22.9299 41.6492 22.8789 41.9732 22.7069C42.3712 22.4919 42.5982 22.4569 42.6832 22.6169H42.6842ZM77.1052 25.1329C77.4572 25.2579 77.4922 25.3199 77.5702 26.0309C77.6952 27.2809 77.6562 33.2579 77.5202 33.2579C77.1562 33.2579 76.4062 32.8319 76.3442 32.5939C76.3042 32.4449 76.2702 30.6719 76.2702 28.6559C76.2702 24.5939 76.2192 24.8319 77.1052 25.1329ZM54.0122 25.7189C54.0122 26.0549 54.1022 27.9179 54.1992 29.8829C54.3012 31.8429 54.4142 34.3319 54.4652 35.4099C54.5512 37.5859 54.5752 37.5079 53.7382 37.5589C53.3242 37.5699 53.3242 37.5699 53.3012 36.9449C53.2772 36.5979 53.2152 35.5079 53.1372 34.5079C53.0742 33.5079 52.9262 31.3439 52.8242 29.6949C52.7561 28.4803 52.6691 27.2668 52.5632 26.0549C52.4882 25.4299 52.5002 25.4059 52.8362 25.2809C53.0392 25.2069 53.3862 25.1449 53.6132 25.1449C54.0122 25.1329 54.0122 25.1329 54.0122 25.7189ZM88.6952 27.4339L89.1212 27.6049L89.2112 29.2809C89.2462 30.1949 89.2732 32.1709 89.2462 33.6609L89.2112 36.3829L88.6842 36.1209L88.1602 35.8709L88.1212 31.7189C88.0982 29.4339 88.1092 27.4959 88.1332 27.4059C88.1832 27.2189 88.1832 27.2189 88.6952 27.4339ZM65.8672 29.0699C65.9412 29.1449 66.1172 35.2069 66.1292 38.2849L66.1412 40.1369L65.5552 40.0469C65.2152 40.0069 64.9412 39.9729 64.9302 39.9609C64.8902 39.9339 64.5162 30.6709 64.5162 29.7699V28.8439L65.1522 28.9179C65.5162 28.9679 65.8282 29.0309 65.8672 29.0699ZM94.6602 29.9569C94.8132 30.1329 94.8362 32.8709 94.8752 47.9729C94.9102 65.3159 94.9102 65.7659 94.6872 65.7659C94.5275 65.7561 94.3743 65.699 94.2472 65.6019C94.0592 65.4649 94.0352 63.9529 93.9732 49.1369C93.9222 40.1599 93.8592 32.0069 93.8242 31.0199L93.7462 29.2189L94.1092 29.4799C94.3242 29.6329 94.5632 29.8439 94.6602 29.9569ZM83.4452 32.5199C83.5082 32.5699 83.5702 33.2809 83.5822 34.0979C83.6452 36.8589 83.6562 53.8009 83.5942 53.8519C83.5702 53.8749 83.3442 53.8119 83.0942 53.7149L82.6442 53.5269V32.2569L82.9962 32.3319C83.1842 32.3819 83.3832 32.4569 83.4462 32.5199H83.4452ZM48.9382 33.2189C48.9732 33.5589 49.0352 34.3199 49.0742 34.9449C49.1142 35.5589 49.1992 36.9609 49.2742 38.0469C49.4262 40.2469 49.3982 40.3869 48.6872 40.3869C48.3132 40.3869 48.2622 40.3469 48.2112 39.9729C48.0862 39.2339 47.6482 33.0819 47.7112 32.9839C47.7732 32.8939 48.4262 32.6719 48.7232 32.6439C48.8012 32.6329 48.8982 32.8939 48.9382 33.2189ZM28.2582 36.4099C28.3952 37.7339 28.6682 40.5119 28.8712 42.5739C29.0822 44.6369 29.2582 46.3869 29.2582 46.4609C29.2582 46.6129 28.2932 47.0859 28.1952 46.9879C28.1332 46.9259 26.8832 35.8589 26.8832 35.3589C26.8832 35.0589 27.8432 33.7969 27.9692 33.9339C28.0082 33.9569 28.1332 35.0699 28.2582 36.4099ZM77.2812 37.7229L77.6452 37.9329L77.6562 40.6369C77.6682 42.1089 77.6962 43.7619 77.6962 44.2969C77.7192 45.4219 77.5822 45.6089 76.9062 45.3749L76.5202 45.2349V44.1599C76.5202 43.5629 76.4802 41.8239 76.4302 40.2849L76.3552 37.5079H76.6452C76.7932 37.5079 77.0822 37.6089 77.2812 37.7229ZM33.7462 42.5739C33.9732 44.9729 34.3322 49.0239 34.5702 51.5739L34.9962 56.2039L34.5082 56.6869L34.0352 57.1759L33.9452 56.1869C33.8952 55.6369 33.6452 53.0899 33.3832 50.5119C33.1005 47.7457 32.8259 44.9787 32.5592 42.2109L32.2072 38.6089L32.6952 38.1599C33.1332 37.7459 33.1842 37.7339 33.2702 37.9599C33.3202 38.0859 33.5312 40.1599 33.7462 42.5739ZM24.3832 44.0859C24.6562 46.5509 25.3832 53.1019 26.0082 58.6409C26.6332 64.1799 27.2182 69.5159 27.3322 70.5159C27.4342 71.5159 27.6052 73.0309 27.7072 73.8949C27.8832 75.3549 27.8832 75.4569 27.6842 75.6049C27.3832 75.8319 27.2582 75.8049 27.2582 75.5429C27.2582 75.4299 27.1452 74.4799 27.0082 73.4569C26.7812 71.7419 26.4062 68.8399 25.5702 62.3279C25.3125 60.3916 25.0625 58.4542 24.8202 56.5159C24.5702 54.6249 24.2072 51.8129 24.0042 50.2619C23.8042 48.7109 23.4692 46.0619 23.2542 44.3479C23.0312 42.6479 22.8942 41.1369 22.9302 40.9729C23.0202 40.6369 23.7542 39.4609 23.8322 39.5349C23.8552 39.5699 24.1052 41.6089 24.3822 44.0849L24.3832 44.0859ZM20.5552 49.4729C20.7422 50.9769 21.0942 53.7149 21.3322 55.5739C21.5662 57.4259 21.8672 59.7379 22.0042 60.7039L22.2422 62.4539L21.9802 62.6799C21.8322 62.8049 21.6802 62.8519 21.6292 62.8049C21.5822 62.7539 21.4802 62.2539 21.4062 61.7029C21.0684 59.3253 20.7221 56.949 20.3672 54.5739L19.4802 48.4489L19.7662 47.5979C19.9182 47.1369 20.0782 46.7619 20.1172 46.7619C20.1682 46.7619 20.3552 47.9879 20.5552 49.4719V49.4729ZM89.1952 47.8359C89.3712 48.0119 89.3982 48.7859 89.3982 54.5269V61.0159H89.0472C88.2852 61.0159 88.2972 61.2029 88.2472 54.1019L88.2112 47.6369H88.6092C88.8202 47.6369 89.0982 47.7229 89.1952 47.8359ZM61.8282 50.0739C64.6522 50.4999 67.1182 51.2889 69.5552 52.5389C71.1292 53.3519 71.8792 53.9139 73.6292 55.5889C76.2302 58.0789 77.8322 60.2539 79.3322 63.3289C81.5202 67.8049 82.3722 71.7659 83.4452 82.3949C83.9342 87.1599 84.5702 95.7969 84.7072 99.3349C84.7472 100.363 84.8322 102.051 84.9102 103.085C85.0472 105.289 85.2072 104.988 83.2702 105.925C80.5822 107.227 77.9922 108.125 74.5822 108.965C70.4062 109.988 67.7032 110.312 63.5782 110.328L60.5782 110.34L60.6022 108.902C60.6022 108.113 60.6762 106.277 60.7542 104.84C61.1292 97.8749 61.0512 89.0859 60.5662 84.2069C60.2892 81.4069 59.7542 78.0069 59.4532 77.2569C59.3912 77.0939 59.6762 76.9569 60.9142 76.5309C63.1802 75.7419 65.1412 74.7539 65.4412 74.2699C65.9812 73.3439 65.0162 72.0159 63.7892 72.0159C63.5792 72.0159 62.9412 72.2419 62.3522 72.5039C59.5512 73.7929 53.9382 75.3039 50.6992 75.6439C48.4612 75.8829 44.9842 75.7419 42.5742 75.3039C41.2622 75.0659 38.9102 74.1799 36.9452 73.1679C34.6842 71.9919 33.2972 70.4299 32.8832 68.5779C32.6562 67.5779 32.7192 65.5779 33.0082 64.4529C33.3202 63.2149 34.1952 61.4139 34.9962 60.3629C38.5592 55.6759 45.9102 51.6129 53.4492 50.1879C55.8522 49.7379 59.2502 49.6879 61.8292 50.0739H61.8282ZM100.398 50.4609C100.848 50.6479 100.898 50.6989 100.898 51.1249C100.926 54.5389 100.848 62.3399 100.785 62.6649C100.773 62.7769 100.125 62.7889 99.8482 62.6909C99.6762 62.6289 99.6482 61.9529 99.6482 56.4369C99.6482 52.4879 99.6992 50.2619 99.7732 50.2619C99.8362 50.2619 100.125 50.3519 100.398 50.4609ZM105.863 57.3279L106.313 57.5159L106.227 67.8669C106.125 81.0589 106.113 81.4449 105.637 82.5819C104.863 84.4449 104.902 84.8199 104.977 76.6449C105 72.5549 105.062 68.4179 105.09 67.4529C105.113 66.4929 105.137 63.7769 105.152 61.4139C105.152 58.5619 105.187 57.1409 105.277 57.1409C105.352 57.1409 105.613 57.2269 105.863 57.3279ZM30.6722 60.4409C30.7462 61.4529 30.7192 61.5509 30.3552 62.3509L29.9572 63.2029L29.8092 61.9529C29.5702 59.9529 29.5702 59.8629 30.0432 59.5659C30.2582 59.4139 30.4842 59.3159 30.5202 59.3399C30.5592 59.3629 30.6332 59.8629 30.6722 60.4409ZM22.9422 67.9809C23.0552 69.0039 23.9302 75.8049 24.3822 79.1449C25.0552 84.3089 25.1052 85.0469 24.8052 84.7349C24.7702 84.6949 24.4802 82.9569 24.1802 80.8709C22.2302 67.3909 22.2422 67.4809 22.4062 67.3789C22.7422 67.1519 22.8562 67.2769 22.9412 67.9799L22.9422 67.9809ZM31.9452 73.7069C32.0202 74.0199 32.3832 77.4069 32.3832 77.8199C32.3832 78.1679 31.9332 78.4959 31.7342 78.2929C31.6722 78.2299 31.5082 77.1679 31.3832 75.9449C31.2462 74.7069 31.1092 73.4179 31.0702 73.0819L30.9962 72.4569L31.4342 72.9569C31.6842 73.2299 31.9062 73.5669 31.9452 73.7069ZM42.0352 78.4179C42.1722 78.5429 42.2622 79.0429 42.3712 80.3949C42.5592 82.8319 42.5862 82.6449 42.0742 82.6449C41.5472 82.6449 41.5592 82.6839 41.3872 80.4799C41.2112 78.2419 41.2112 78.2699 41.5472 78.2699C41.7112 78.2699 41.9222 78.3439 42.0352 78.4179ZM51.9382 78.6049C51.9612 78.7299 52.0232 79.4799 52.0742 80.2699C52.1142 81.0589 52.2272 82.8319 52.3242 84.2069C52.6762 89.2569 52.6882 89.8979 52.4772 89.8979C52.2382 89.8979 52.2112 89.7109 51.9372 86.1449C51.8154 84.422 51.6774 82.7002 51.5232 80.9799C51.4142 79.6209 51.3362 78.4799 51.3752 78.4569C51.5122 78.3049 51.8752 78.4179 51.9382 78.6049ZM28.4342 81.0079C28.5082 81.1209 28.9802 85.1209 29.5702 90.5859C29.7462 92.2339 29.9182 93.8239 29.9572 94.1209L30.0202 94.6609L29.7072 94.4609C29.4692 94.2969 29.3832 94.1369 29.3832 93.8479C29.3832 93.0579 28.8432 87.8709 28.4332 84.6949C28.1952 82.8949 28.0082 81.3089 28.0082 81.1559C28.0082 80.8949 28.3082 80.7929 28.4342 81.0079ZM100.586 86.2339L100.5 91.4609L100.187 91.9209C99.4732 92.9729 99.5122 93.1709 99.5512 87.3209L99.5742 81.9569L100.035 81.4799C100.285 81.2299 100.535 81.0199 100.585 81.0199C100.625 81.0199 100.625 83.3709 100.585 86.2339H100.586ZM89.0232 94.5239C89.0862 101.789 89.0702 102.352 88.8712 102.574C88.7462 102.711 88.6332 102.801 88.5982 102.762C88.5082 102.664 88.3832 86.8199 88.4842 86.7339C88.5352 86.6839 88.6602 86.6599 88.7742 86.6719C88.9342 86.7069 88.9732 87.5979 89.0242 94.5229L89.0232 94.5239ZM48.1882 89.5469C48.2732 90.3199 48.5862 94.0349 48.7112 95.7849C48.7852 96.9609 48.7852 96.9999 48.5112 97.0849C48.3632 97.1369 48.1872 97.1249 48.1372 97.0629C48.0512 96.9729 47.7732 94.1989 47.4372 89.9219L47.3472 88.8979H47.7382C48.0982 88.8979 48.1252 88.9219 48.1882 89.5469ZM38.3592 93.9219C38.4452 94.0119 38.5082 94.3239 38.5082 94.6369C38.5082 94.9609 38.6602 96.6479 38.8202 98.3979C39.2972 103.188 39.3362 103.836 39.1212 103.711C38.7972 103.523 38.5082 103.238 38.5712 103.164C38.5982 103.114 38.5472 102.488 38.4452 101.774C38.3442 100.9 38.2609 100.025 38.1952 99.1479C38.1482 98.4259 38.0352 97.0979 37.9342 96.2109C37.6952 94.0229 37.7112 93.7729 37.9842 93.7729C38.1228 93.7769 38.2556 93.8297 38.3592 93.9219ZM44.2732 102.336C44.3132 102.613 44.3872 103.636 44.4372 104.613C44.5232 106.488 44.4842 106.625 43.9732 106.238C43.8242 106.125 43.7232 105.652 43.5742 104.227C43.3132 101.648 43.2972 101.75 43.7852 101.801C44.1482 101.836 44.1992 101.887 44.2732 102.336Z" fill="black"/>
<path d="M39.8088 56.0634C38.5078 56.6254 38.4098 58.3914 39.6328 59.0164C40.5228 59.4654 41.4218 59.2504 41.8868 58.4764C42.7618 57.0514 41.3358 55.4024 39.8088 56.0634ZM48.2848 57.2664C47.0848 58.0004 47.0848 59.7774 48.2848 60.5164C49.4728 61.2264 51.0118 60.2894 51.0118 58.8634C51.0118 57.4884 49.4368 56.5634 48.2848 57.2664Z" fill="black"/>
</svg>
