<svg width="128" height="128" viewBox="0 0 128 128" fill="none" xmlns="http://www.w3.org/2000/svg">
<path fill-rule="evenodd" clip-rule="evenodd" d="M60.3482 0.026637C60.1022 0.050637 59.3132 0.144637 58.5982 0.210637C48.4652 1.26964 38.4922 5.55864 30.3552 12.3696C28.8552 13.6196 25.4302 17.0376 24.1842 18.5416C17.4542 26.5886 13.5122 35.6156 12.0592 46.2996C11.7342 48.6746 11.7342 56.6786 12.0592 59.0536C13.5122 69.7366 17.4532 78.7686 24.1842 86.8146C25.4302 88.3186 28.8552 91.7366 30.3552 92.9826C38.3982 99.7216 47.4342 103.655 58.1172 105.113C60.4882 105.433 68.4972 105.433 70.8672 105.113C81.5552 103.655 90.5862 99.7216 98.6332 92.9826C100.133 91.7366 103.555 88.3146 104.801 86.8146C111.531 78.7686 115.473 69.7366 116.921 59.0536C117.25 56.6786 117.25 48.6736 116.921 46.2996C115.473 35.6156 111.531 26.5886 104.801 18.5416C103.555 17.0376 100.133 13.6196 98.6332 12.3696C90.6092 5.66364 81.4932 1.67564 70.9452 0.260637C69.8012 0.100637 68.1482 0.042637 65.0782 0.015637C62.7342 -0.016363 60.5902 0.00763699 60.3482 0.026637ZM60.9962 5.62464C60.9962 7.13664 61.0942 10.4296 61.2422 13.5546C61.3202 15.0816 61.4062 17.2696 61.4492 18.4096C61.5942 22.4526 62.0192 33.0616 62.0862 34.0116L62.1482 34.9526L61.5662 34.8906C61.2422 34.8666 60.9462 34.7886 60.8862 34.7496C60.8522 34.6946 60.7582 33.8046 60.7072 32.7496C60.4772 28.1396 59.7112 10.2456 59.6372 7.63664L59.5512 4.75664L59.9182 4.70664C60.1132 4.67564 60.4382 4.64064 60.6412 4.62464L60.9962 4.61264V5.62464ZM73.3952 5.31164C73.4022 5.32764 73.4452 9.23764 73.4802 14.0076C73.5402 18.7886 73.6022 23.0736 73.6402 23.5426C73.6762 24.0196 73.6682 24.4376 73.6022 24.4606C73.5472 24.4956 73.2272 24.4956 72.9022 24.4606L72.3052 24.4106L72.2192 20.6406C72.1602 18.5546 72.0982 16.2456 72.0702 15.4956C71.9732 13.2026 71.8792 5.42164 71.9572 5.22564C72.0072 5.08164 72.1522 5.06564 72.6912 5.15964C73.0712 5.23364 73.3832 5.29964 73.3952 5.31164ZM43.4252 9.65164C43.5082 9.76564 44.1132 16.9096 44.8632 26.2496C45.1132 29.4256 45.3552 32.3276 45.3982 32.6876C45.4612 33.3436 45.4492 33.3746 45.0352 33.6326C44.8012 33.7766 44.5662 33.8946 44.5152 33.8946C44.4772 33.8946 44.4022 33.5546 44.3592 33.1406C44.1762 31.4526 43.4772 23.3206 42.9892 17.4376C42.8002 15.1401 42.6045 12.8431 42.4022 10.5466C42.3402 9.97664 42.3522 9.92564 42.6922 9.74664C43.1022 9.52664 43.3362 9.48364 43.4262 9.65164H43.4252ZM79.0942 12.2576C79.4572 12.3866 79.4922 12.4526 79.5742 13.1876C79.7042 14.4836 79.6642 20.6796 79.5242 20.6796C79.1442 20.6796 78.3672 20.2376 78.3042 19.9916C78.2622 19.8396 78.2302 17.9996 78.2302 15.9056C78.2302 11.6986 78.1722 11.9456 79.0942 12.2576ZM55.1642 12.8676C55.1642 13.2146 55.2582 15.1446 55.3552 17.1796C55.4652 19.2096 55.5822 21.7896 55.6332 22.9096C55.7192 25.1636 55.7462 25.0816 54.8792 25.1366C54.4532 25.1446 54.4532 25.1446 54.4262 24.4966C54.3982 24.1366 54.3402 23.0066 54.2542 21.9766C54.1882 20.9366 54.0392 18.6946 53.9342 16.9876C53.8282 15.2726 53.6992 13.5776 53.6602 13.2146C53.5822 12.5656 53.5982 12.5426 53.9452 12.4146C54.1522 12.3346 54.5122 12.2696 54.7502 12.2696C55.1642 12.2576 55.1642 12.2576 55.1642 12.8666V12.8676ZM91.1052 14.6446L91.5432 14.8246L91.6412 16.5586C91.6762 17.5036 91.6992 19.5546 91.6762 21.0976L91.6412 23.9176L91.0902 23.6446L90.5502 23.3866L90.5082 19.0816C90.4842 16.7146 90.4922 14.7106 90.5202 14.6126C90.5702 14.4216 90.5702 14.4216 91.1052 14.6446ZM67.4502 16.3396C67.5282 16.4136 67.7082 22.6996 67.7242 25.8826L67.7312 27.8046L67.1262 27.7146C66.7742 27.6716 66.4892 27.6366 66.4782 27.6206C66.4382 27.5976 66.0482 17.9996 66.0482 17.0626V16.1016L66.7042 16.1796C67.0872 16.2296 67.4112 16.2966 67.4502 16.3396ZM97.2862 17.2576C97.4422 17.4376 97.4662 20.2776 97.5092 35.9256C97.5442 53.8976 97.5442 54.3626 97.3142 54.3626C97.147 54.3537 96.9868 54.2925 96.8562 54.1876C96.6612 54.0506 96.6382 52.4836 96.5712 37.1326C96.5212 27.8316 96.4542 19.3786 96.4192 18.3586L96.3372 16.4916L96.7122 16.7656C96.9212 16.9078 97.1137 17.0728 97.2862 17.2576ZM85.6662 19.9136C85.7282 19.9636 85.7942 20.6986 85.8022 21.5466C85.8722 24.4096 85.8802 41.9646 85.8172 42.0156C85.7942 42.0426 85.5562 41.9756 85.3022 41.8746L84.8332 41.6796V19.6396L85.1962 19.7186C85.3922 19.7686 85.5992 19.8476 85.6662 19.9136ZM49.9032 20.6406C49.9432 20.9876 50.0092 21.7806 50.0482 22.4256C50.0912 23.0656 50.1772 24.5116 50.2552 25.6356C50.4152 27.9176 50.3842 28.0626 49.6492 28.0626C49.2592 28.0626 49.2082 28.0226 49.1532 27.6366C49.0212 26.8706 48.5672 20.4966 48.6382 20.3906C48.6962 20.3006 49.3762 20.0706 49.6852 20.0426C49.7672 20.0306 49.8652 20.3006 49.9032 20.6406ZM28.4812 23.9406C28.6182 25.3156 28.9032 28.1986 29.1112 30.3276C29.3332 32.4646 29.5132 34.2806 29.5132 34.3546C29.5132 34.5146 28.5172 35.0036 28.4112 34.9056C28.3452 34.8396 27.0512 23.3706 27.0512 22.8556C27.0512 22.5456 28.0482 21.2336 28.1772 21.3786C28.2202 21.4056 28.3452 22.5546 28.4812 23.9406ZM79.2782 25.3046L79.6532 25.5196L79.6652 28.3236C79.6812 29.8516 79.7052 31.5616 79.7052 32.1166C79.7312 33.2846 79.5872 33.4726 78.8882 33.2296L78.4852 33.0896V31.9726C78.4852 31.3546 78.4462 29.5546 78.3952 27.9606L78.3172 25.0816H78.6142C78.7712 25.0816 79.0672 25.1866 79.2782 25.3046ZM34.1602 30.3276C34.3982 32.8156 34.7732 37.0116 35.0162 39.6596L35.4612 44.4526L34.9532 44.9566L34.4652 45.4606L34.3672 44.4376C34.3172 43.8676 34.0592 41.2266 33.7852 38.5546C33.4936 35.6881 33.2099 32.8207 32.9342 29.9526L32.5662 26.2226L33.0702 25.7576C33.5272 25.3316 33.5822 25.3156 33.6682 25.5506C33.7182 25.6796 33.9412 27.8316 34.1602 30.3276ZM24.4602 31.8976C24.7422 34.4486 25.5002 41.2416 26.1452 46.9796C26.7932 52.7186 27.3982 58.2496 27.5202 59.2846C27.6212 60.3196 27.8002 61.8906 27.9022 62.7846C28.0902 64.3006 28.0902 64.4016 27.8822 64.5586C27.5702 64.7926 27.4422 64.7616 27.4422 64.4916C27.4422 64.3786 27.3242 63.3906 27.1802 62.3316C26.9502 60.5546 26.5592 57.5506 25.6882 50.7966C25.4222 48.791 25.1642 46.7843 24.9142 44.7766C24.6562 42.8196 24.2812 39.9066 24.0702 38.2966C23.8602 36.6906 23.5162 33.9446 23.2902 32.1676C23.0592 30.4056 22.9182 28.8436 22.9572 28.6756C23.0472 28.3236 23.8092 27.1086 23.8912 27.1836C23.9182 27.2186 24.1712 29.3316 24.4612 31.8976H24.4602ZM20.4962 37.4796C20.6912 39.0396 21.0552 41.8746 21.3012 43.7996C21.5432 45.7226 21.8552 48.1166 21.9962 49.1166L22.2422 50.9336L21.9692 51.1636C21.8202 51.2926 21.6602 51.3436 21.6092 51.2926C21.5592 51.2426 21.4572 50.7226 21.3792 50.1526C21.3012 49.5816 20.8162 46.2496 20.3012 42.7616L19.3792 36.4176L19.6762 35.5386C19.8362 35.0616 20.0002 34.6716 20.0432 34.6716C20.0932 34.6716 20.2892 35.9376 20.4962 37.4796ZM91.6172 35.7846C91.8052 35.9646 91.8282 36.7646 91.8282 42.7146V49.4406H91.4682C90.6802 49.4406 90.6882 49.6326 90.6372 42.2726L90.6022 35.5776H91.0122C91.2342 35.5776 91.5202 35.6676 91.6172 35.7846ZM63.2622 38.1016C66.1922 38.5426 68.7422 39.3626 71.2662 40.6556C72.9022 41.4996 73.6762 42.0776 75.4922 43.8156C78.1872 46.3946 79.8482 48.6516 81.3982 51.8356C83.6642 56.4756 84.5512 60.5816 85.6642 71.5896C86.1682 76.5266 86.8282 85.4796 86.9692 89.1476C87.0082 90.2106 87.0982 91.9566 87.1792 93.0306C87.3242 95.3116 87.4892 95.0036 85.4772 95.9766C82.6952 97.3236 80.0122 98.2496 76.4772 99.1246C72.1522 100.184 69.3522 100.52 65.0782 100.539L61.9682 100.551L61.9922 99.0586C61.9922 98.2416 62.0702 96.3386 62.1482 94.8516C62.5392 87.6316 62.4572 78.5266 61.9572 73.4716C61.6682 70.5696 61.1132 67.0426 60.8012 66.2696C60.7382 66.0976 61.0312 65.9596 62.3162 65.5196C64.6642 64.7026 66.6962 63.6756 67.0082 63.1756C67.5662 62.2146 66.5662 60.8396 65.2932 60.8396C65.0782 60.8396 64.4142 61.0736 63.8092 61.3396C60.9062 62.6836 55.0892 64.2456 51.7342 64.5976C49.4102 64.8476 45.8092 64.7026 43.3122 64.2456C41.9492 63.9956 39.5162 63.0816 37.4802 62.0356C35.1372 60.8116 33.7002 59.1956 33.2662 57.2766C33.0312 56.2376 33.0982 54.1676 33.3952 53.0036C33.7192 51.7186 34.6292 49.8516 35.4612 48.7656C39.1482 43.9096 46.7702 39.6956 54.5782 38.2226C57.0702 37.7526 60.5902 37.7026 63.2622 38.1016ZM103.23 38.5036C103.7 38.6986 103.75 38.7496 103.75 39.1906C103.773 42.7266 103.7 50.8116 103.629 51.1476C103.621 51.2656 102.949 51.2776 102.66 51.1716C102.48 51.1126 102.453 50.4136 102.453 44.6946C102.453 40.6046 102.503 38.2966 102.582 38.2966C102.648 38.2966 102.949 38.3906 103.23 38.5036ZM108.89 45.6206L109.36 45.8156L109.266 56.5386C109.164 70.2106 109.148 70.6086 108.656 71.7846C107.856 73.7186 107.895 74.1046 107.973 65.6366C107.996 61.3976 108.066 57.1086 108.09 56.1086C108.117 55.1126 108.14 52.3046 108.156 49.8516C108.156 46.8976 108.196 45.4256 108.286 45.4256C108.363 45.4256 108.633 45.5156 108.891 45.6206H108.89ZM30.9772 48.8476C31.0552 49.8946 31.0272 49.9916 30.6522 50.8236L30.2342 51.7066L30.0822 50.4136C29.8362 48.3356 29.8362 48.2456 30.3282 47.9366C30.5512 47.7806 30.7812 47.6796 30.8202 47.7066C30.8632 47.7266 30.9412 48.2466 30.9772 48.8466V48.8476ZM22.9652 56.6556C23.0852 57.7186 23.9922 64.7616 24.4612 68.2256C25.1612 73.5736 25.2112 74.3396 24.8982 74.0156C24.8632 73.9756 24.5632 72.1756 24.2502 70.0156C22.2302 56.0426 22.2422 56.1356 22.4102 56.0356C22.7622 55.7956 22.8792 55.9256 22.9652 56.6556ZM32.2972 62.5896C32.3752 62.9136 32.7502 66.4216 32.7502 66.8546C32.7502 67.2146 32.2852 67.5546 32.0822 67.3436C32.0162 67.2766 31.8442 66.1756 31.7152 64.9056C31.5702 63.6286 31.4302 62.2926 31.3912 61.9406L31.3162 61.2966L31.7662 61.8126C32.0232 62.0976 32.2542 62.4446 32.2962 62.5896H32.2972ZM42.7542 67.4726C42.8942 67.6016 42.9882 68.1166 43.1022 69.5196C43.2972 72.0426 43.3202 71.8516 42.7932 71.8516C42.2462 71.8516 42.2582 71.8946 42.0822 69.6086C41.8982 67.2926 41.8982 67.3156 42.2462 67.3156C42.4182 67.3156 42.6332 67.3946 42.7542 67.4726ZM53.0122 67.6636C53.0392 67.7926 53.1052 68.5696 53.1562 69.3936C53.1962 70.2106 53.3162 72.0426 53.4142 73.4726C53.7772 78.7026 53.7932 79.3626 53.5702 79.3626C53.3242 79.3626 53.3002 79.1756 53.0122 75.4796C52.8886 73.6946 52.7465 71.9108 52.5862 70.1286C52.4732 68.7186 52.3912 67.5386 52.4342 67.5116C52.5702 67.3516 52.9492 67.4716 53.0122 67.6636ZM28.6602 70.1556C28.7342 70.2696 29.2232 74.4176 29.8362 80.0776C30.0202 81.7886 30.1962 83.4336 30.2342 83.7416L30.3012 84.3046L29.9812 84.0976C29.7342 83.9256 29.6452 83.7576 29.6452 83.4606C29.6452 82.6446 29.0852 77.2696 28.6602 73.9766C28.4102 72.1086 28.2192 70.4646 28.2192 70.3086C28.2192 70.0386 28.5312 69.9336 28.6602 70.1556ZM103.426 75.5656L103.332 80.9876L103.008 81.4606C102.27 82.5546 102.308 82.7606 102.352 76.6986L102.379 71.1406L102.855 70.6446C103.113 70.3826 103.367 70.1676 103.425 70.1676C103.465 70.1676 103.465 72.6046 103.425 75.5656H103.426ZM91.4402 84.1596C91.5032 91.6836 91.4872 92.2696 91.2842 92.5036C91.1552 92.6406 91.0382 92.7376 91.0032 92.6986C90.9092 92.5936 90.7802 76.1786 90.8822 76.0856C90.9322 76.0356 91.0622 76.0116 91.1872 76.0266C91.3512 76.0616 91.3902 76.9836 91.4402 84.1596ZM49.1302 79.0036C49.2162 79.8006 49.5402 83.6556 49.6692 85.4686C49.7512 86.6876 49.7512 86.7266 49.4622 86.8156C49.3102 86.8666 49.1302 86.8556 49.0792 86.7886C48.9852 86.6986 48.6962 83.8236 48.3532 79.3906L48.2552 78.3316H48.6612C49.0362 78.3316 49.0642 78.3586 49.1302 79.0036ZM38.9462 83.5346C39.0322 83.6286 39.0992 83.9526 39.0992 84.2766C39.0992 84.6086 39.2592 86.3626 39.4232 88.1756C39.9152 93.1406 39.9582 93.8086 39.7312 93.6796C39.3962 93.4836 39.0992 93.1906 39.1612 93.1126C39.1922 93.0626 39.1412 92.4096 39.0322 91.6716C38.9305 90.7669 38.8445 89.8604 38.7742 88.9526C38.7242 88.2026 38.6062 86.8236 38.5042 85.9096C38.2592 83.6396 38.2742 83.3826 38.5562 83.3826C38.6997 83.3874 38.8373 83.441 38.9462 83.5346ZM45.0762 92.2576C45.1142 92.5426 45.1882 93.6016 45.2392 94.6126C45.3332 96.5546 45.2902 96.6986 44.7632 96.3006C44.6062 96.1796 44.5052 95.6866 44.3532 94.2146C44.0792 91.5426 44.0632 91.6476 44.5672 91.6986C44.9422 91.7386 44.9972 91.7886 45.0752 92.2576H45.0762Z" fill="black"/>
<path fill-rule="evenodd" clip-rule="evenodd" d="M39.4838 44.4917C38.1208 45.1797 38.0238 47.3277 39.3008 48.0937C40.2338 48.6407 41.1708 48.3747 41.6558 47.4337C42.5738 45.6947 41.0818 43.6837 39.4838 44.4917ZM48.3478 45.9607C47.0938 46.8507 47.0938 49.0197 48.3478 49.9207C49.5938 50.7847 51.1988 49.6447 51.1988 47.9057C51.1988 46.2297 49.5548 45.1017 48.3478 45.9607ZM9.62879 99.0857V119.52H12.7228C16.2378 119.52 18.9218 118.648 20.7808 116.902C22.6478 115.148 23.5858 112.598 23.5858 109.262C23.5858 105.953 22.6558 103.437 20.8008 101.703C18.9408 99.9567 16.2538 99.0857 12.7228 99.0857H9.62879ZM0.988793 92.5627H10.0818C15.1598 92.5627 18.9528 92.9327 21.4448 93.6637C23.9368 94.3867 26.0658 95.6087 27.8438 97.3397C29.4218 98.8517 30.5898 100.594 31.3518 102.574C32.1088 104.543 32.4958 106.77 32.4958 109.262C32.4958 111.793 32.1088 114.055 31.3518 116.032C30.5898 118.016 29.4218 119.758 27.8438 121.266C26.0538 123 23.9018 124.23 21.3828 124.961C18.8748 125.684 15.1088 126.039 10.0818 126.039H0.987793L0.988793 92.5627ZM63.0198 113.64V115.945H44.5038C44.6948 117.844 45.3668 119.27 46.5118 120.215C47.6718 121.172 49.2818 121.641 51.3478 121.641C53.0118 121.641 54.7148 121.391 56.4648 120.887C58.2108 120.387 59.9998 119.625 61.8318 118.605V124.848C60.0104 125.545 58.1325 126.085 56.2188 126.461C54.372 126.833 52.4928 127.021 50.6088 127.023C46.1288 127.023 42.6488 125.867 40.1638 123.547C37.6758 121.219 36.4368 117.949 36.4368 113.742C36.4368 109.609 37.6478 106.363 40.0818 104.004C42.5228 101.629 45.8818 100.441 50.1598 100.441C54.0498 100.441 57.1638 101.645 59.4958 104.043C61.8438 106.433 63.0198 109.633 63.0198 113.641V113.64ZM54.8668 110.957C54.8668 109.422 54.4298 108.187 53.5588 107.25C52.6838 106.3 51.5348 105.824 50.1168 105.824C48.5858 105.824 47.3438 106.266 46.3908 107.144C45.4338 108.024 44.8318 109.297 44.5858 110.957H54.8668ZM94.5308 110.82V126.04H86.3548V114.379C86.3548 112.227 86.3048 110.75 86.2068 109.934C86.1088 109.105 85.9338 108.5 85.6798 108.114C85.3762 107.593 84.9304 107.17 84.3948 106.894C83.8478 106.602 83.2228 106.457 82.5198 106.457C80.8198 106.457 79.4878 107.109 78.5198 108.402C77.5468 109.684 77.0628 111.461 77.0628 113.738V126.039H68.9298V101.039H77.0618V104.699C78.2968 103.242 79.6018 102.168 80.9838 101.473C82.3588 100.789 83.8788 100.441 85.5538 100.441C88.4878 100.441 90.7188 101.328 92.2338 103.109C93.7618 104.875 94.5308 107.445 94.5308 110.82ZM113.273 106.223C111.5 106.223 110.145 106.871 109.207 108.172C108.277 109.461 107.817 111.312 107.817 113.742C107.817 116.164 108.277 118.016 109.207 119.316C110.145 120.606 111.5 121.242 113.273 121.242C115.016 121.242 116.348 120.605 117.277 119.316C118.199 118.016 118.664 116.164 118.664 113.742C118.664 111.312 118.199 109.461 117.277 108.172C116.347 106.872 115.016 106.222 113.273 106.222V106.223ZM113.273 100.441C117.586 100.441 120.953 101.625 123.375 103.981C125.809 106.328 127.023 109.586 127.023 113.742C127.023 117.891 125.809 121.148 123.375 123.508C120.953 125.852 117.585 127.023 113.273 127.023C108.941 127.023 105.555 125.852 103.105 123.508C100.672 121.148 99.4568 117.891 99.4568 113.742C99.4568 109.586 100.672 106.328 103.105 103.98C105.555 101.625 108.941 100.441 113.273 100.441Z" fill="black"/>
</svg>
