<svg width="128" height="128" viewBox="0 0 128 128" fill="none" xmlns="http://www.w3.org/2000/svg">
<path d="M4.20898 7.33008L14.484 95.4531L63.83 120.631H64.13L113.545 95.4531L123.79 7.33008H4.20898ZM5.33198 8.33008H122.668L112.615 94.8071L63.98 119.586L15.416 94.8061L5.33198 8.33008ZM59.68 36.9671L55.764 38.7251L21.77 54.4531C21.2917 54.6632 20.8792 54.999 20.5764 55.4248C20.2735 55.8505 20.0916 56.3503 20.05 56.8711V62.7321L20.053 62.7561C20.101 63.2772 20.2883 63.7758 20.5951 64.1998C20.9019 64.6238 21.317 64.9575 21.797 65.1661C21.799 65.1661 21.799 65.1691 21.801 65.1701L55.424 80.6951L57.902 81.7831L59.342 79.1031L64.795 68.5681L73.762 50.8611L93.844 59.8111L71.689 69.7321L70.348 70.3111L70.061 72.1911V78.4411L70.393 82.3261L73.465 80.8931L106.197 65.1501C106.715 64.9281 107.033 64.4771 107.157 64.0301C107.28 63.5821 107.27 63.1301 107.27 62.6901L107.26 56.8901C107.26 56.4551 107.26 56.0041 107.135 55.5621C107.07 55.3205 106.955 55.0955 106.797 54.9019C106.638 54.7083 106.441 54.5506 106.217 54.4391H106.215L73.72 38.9511L71.464 37.8181L70.11 40.5481L63.901 53.1981L56.065 68.7711L35.69 59.7901L58.063 49.8971L59.981 49.0381L59.681 47.3561V36.9671H59.68ZM58.68 38.5121V47.4451L58.86 48.4431L57.656 48.9831L33.211 59.7901L56.533 70.0671L64.797 53.6421L71.007 40.9891L71.914 39.1631L73.279 39.8491L105.783 55.3411C106.018 55.4541 106.099 55.5791 106.172 55.8351C106.244 56.0911 106.26 56.4651 106.26 56.8901L106.27 62.6901C106.27 63.1301 106.26 63.5131 106.191 63.7631C106.122 64.0131 106.055 64.1211 105.803 64.2291L105.793 64.2331L73.035 79.9871L71.268 80.8131L71.061 78.3971V72.2671L71.252 71.0091L72.092 70.6471L96.295 59.8071L73.299 49.5601L63.904 68.1101L58.457 78.6361L57.459 80.4961L55.836 79.7821L22.203 64.2521L22.199 64.2511C21.8834 64.1144 21.6104 63.8955 21.4085 63.6172C21.2065 63.3389 21.083 63.0114 21.051 62.6691V56.9421C21.0783 56.6028 21.1968 56.2773 21.3939 55.9998C21.5911 55.7224 21.8596 55.5034 22.171 55.3661L22.176 55.3641L56.178 39.6341L58.68 38.5111V38.5121Z" fill="#60BE86"/>
</svg>
