<svg width="128" height="128" viewBox="0 0 128 128" fill="none" xmlns="http://www.w3.org/2000/svg">
<path d="M64.0001 26.7695H11.6611L20.6561 103.868L63.9541 125.947H64.0071L107.367 103.868L116.336 26.7695H64.0001ZM101.792 75.2195C101.792 75.9955 101.792 76.6935 101.112 76.9855L72.1731 90.8945L70.0351 91.8925L69.7961 89.1105V83.6435L70.0081 82.2575L70.9711 81.8425L91.4541 72.6755L72.4211 64.1975L64.3091 80.2085L59.4931 89.5085L58.4151 91.5125L56.6041 90.7175L26.8871 77.0025C26.5346 76.8503 26.2296 76.606 26.0042 76.2952C25.7788 75.9844 25.6413 75.6188 25.6061 75.2365V70.1145C25.6358 69.7343 25.768 69.3691 25.9889 69.058C26.2097 68.7469 26.5108 68.5013 26.8601 68.3475L56.9041 54.4565L59.7401 53.1845V61.7155L59.9521 62.8985L58.5741 63.5175L37.8881 72.6575L57.1961 81.1625L64.3091 67.0325L69.7961 55.8605L70.7951 53.8465L72.3941 54.6505L101.112 68.3305C101.757 68.6395 101.784 69.3375 101.784 70.0965L101.792 75.2195Z" fill="#60BE86"/>
<path d="M33.527 1.8418C32.477 1.8418 31.456 1.9518 30.463 2.1718C29.5021 2.38155 28.5624 2.67914 27.656 3.0608C26.778 3.4238 25.97 3.8468 25.234 4.3338C24.509 4.8118 23.878 5.3128 23.344 5.8378C22.819 6.3538 22.409 6.8798 22.114 7.4138C21.817 7.9388 21.668 8.4308 21.668 8.8888C21.668 9.6148 22.079 9.9788 22.9 9.9788C23.34 9.9788 23.722 9.8718 24.047 9.6618C24.372 9.4518 24.672 9.1798 24.949 8.8458C25.236 8.5118 25.522 8.1358 25.809 7.7148C26.105 7.2948 26.442 6.8748 26.824 6.4548C27.1999 6.11657 27.6136 5.82295 28.057 5.5798C28.5644 5.29408 29.0965 5.05477 29.647 4.8648C30.219 4.6648 30.817 4.5068 31.437 4.3928C32.0547 4.26924 32.683 4.20627 33.313 4.2048C33.981 4.2048 34.564 4.3148 35.061 4.5348C35.557 4.7548 35.962 5.0598 36.277 5.4508C36.602 5.8428 36.841 6.3068 36.994 6.8418C37.156 7.3768 37.238 7.9578 37.238 8.5878C37.238 9.3328 37.099 10.1268 36.822 10.9668C36.555 11.8068 36.172 12.6468 35.676 13.4868C35.1651 14.3503 34.5702 15.1612 33.9 15.9078C33.2092 16.6849 32.442 17.3904 31.61 18.0138C30.7788 18.634 29.8797 19.1574 28.93 19.5738C27.9846 19.9916 26.9793 20.2575 25.951 20.3618C26.371 19.7888 26.801 19.1688 27.241 18.4998C27.689 17.8218 28.123 17.1348 28.543 16.4378C28.973 15.7408 29.383 15.0488 29.775 14.3618C30.176 13.6638 30.545 13.0138 30.879 12.4118C31.223 11.8108 31.523 11.2658 31.781 10.7798L32.426 9.6058C32.588 9.3288 32.717 9.0378 32.813 8.7328C32.908 8.4268 32.955 8.1348 32.955 7.8578C32.955 7.5138 32.865 7.2188 32.684 6.9708C32.502 6.7228 32.195 6.5978 31.766 6.5978C31.67 6.5978 31.533 6.6218 31.352 6.6698C31.1282 6.72556 30.9151 6.81744 30.721 6.9418C30.491 7.0848 30.238 7.2848 29.961 7.5428C29.694 7.8008 29.421 8.1448 29.145 8.5738L23.258 20.2758C23.105 20.4958 22.982 20.7348 22.887 20.9918C22.7911 21.2487 22.742 21.5206 22.742 21.7948C22.742 22.1478 22.852 22.4428 23.072 22.6818C23.292 22.9298 23.592 23.0548 23.975 23.0548C25.732 23.0548 27.365 22.8448 28.873 22.4238C30.391 22.0038 31.77 21.4368 33.012 20.7208C34.2186 20.0379 35.3307 19.2001 36.32 18.2288C37.2453 17.3323 38.0586 16.327 38.742 15.2348C39.3768 14.2348 39.8772 13.1555 40.23 12.0248C40.574 10.9368 40.746 9.8978 40.746 8.9048C40.7542 7.95992 40.6045 7.02031 40.303 6.1248C40.0311 5.29011 39.576 4.5268 38.971 3.8908C38.379 3.2508 37.63 2.7498 36.723 2.3868C35.816 2.0238 34.75 1.8418 33.527 1.8418ZM67.602 8.1448C67.267 8.1448 66.977 8.2058 66.729 8.3298C66.489 8.4538 66.289 8.6118 66.127 8.8028C65.9647 8.99317 65.8384 9.21136 65.754 9.4468C65.678 9.6768 65.641 9.9018 65.641 10.1208C65.669 10.4268 65.802 10.6738 66.041 10.8648C66.28 11.0468 66.695 11.1388 67.287 11.1388C67.602 11.1388 67.874 11.0758 68.104 10.9508C68.333 10.8268 68.519 10.6758 68.662 10.4938C68.805 10.3038 68.91 10.0968 68.977 9.8768C69.053 9.6568 69.092 9.4568 69.092 9.2758C69.092 8.9508 68.982 8.6848 68.762 8.4748C68.542 8.2548 68.155 8.1448 67.602 8.1448ZM47.078 12.0848C46.324 12.0848 45.612 12.1928 44.943 12.4118C44.3017 12.6236 43.6906 12.9177 43.125 13.2868C42.5755 13.6458 42.0707 14.0687 41.621 14.5468C41.181 15.0148 40.809 15.4968 40.504 15.9938C40.198 16.4908 39.964 16.9858 39.801 17.4828C39.6487 17.9159 39.567 18.3707 39.559 18.8298C39.559 19.3648 39.639 19.8748 39.801 20.3618C39.963 20.8488 40.198 21.2778 40.504 21.6508C40.819 22.0228 41.196 22.3198 41.634 22.5388C42.084 22.7588 42.595 22.8688 43.168 22.8688C43.836 22.8688 44.514 22.7768 45.201 22.5958C45.889 22.4238 46.548 22.2058 47.178 21.9378C47.7954 21.6813 48.3977 21.3899 48.982 21.0648C49.485 20.7798 49.93 20.5098 50.322 20.2548C50.34 20.6298 50.404 20.9678 50.516 21.2638C50.659 21.6168 50.846 21.9138 51.074 22.1528C51.304 22.3908 51.569 22.5668 51.875 22.6818C52.181 22.8058 52.502 22.8688 52.835 22.8688C53.523 22.8688 54.182 22.6548 54.813 22.2248C55.453 21.7948 56.087 21.1648 56.717 20.3348C57.147 20.6018 57.494 20.7878 57.762 20.8928C58.029 20.9978 58.307 21.0488 58.594 21.0488C59.463 21.0488 60.254 20.8978 60.971 20.5918C61.075 20.5458 61.181 20.4948 61.285 20.4438C61.289 21.2718 61.51 21.8838 61.945 22.2808C62.395 22.6728 63.004 22.8688 63.777 22.8688C64.3321 22.8666 64.8817 22.7594 65.397 22.5528C65.954 22.3314 66.4868 22.0533 66.987 21.7228C67.399 21.4498 67.803 21.1478 68.199 20.8188C68.225 20.9108 68.255 21.0018 68.289 21.0918C68.423 21.4448 68.619 21.7558 68.877 22.0238C69.135 22.2808 69.45 22.4858 69.822 22.6388C70.204 22.7918 70.638 22.8688 71.125 22.8688C71.765 22.8688 72.415 22.7688 73.075 22.5688C73.7291 22.3796 74.366 22.1354 74.979 21.8388C75.578 21.5537 76.1568 21.2276 76.711 20.8628C76.942 20.7088 77.156 20.5618 77.363 20.4158C77.415 20.7218 77.508 20.9958 77.643 21.2358C77.863 21.6278 78.13 21.9468 78.445 22.1958C78.77 22.4338 79.108 22.6058 79.461 22.7108C79.814 22.8158 80.125 22.8688 80.393 22.8688C81.0659 22.8731 81.736 22.7812 82.383 22.5958C82.9956 22.4315 83.5835 22.186 84.131 21.8658C84.6696 21.5548 85.1652 21.1746 85.605 20.7348C86.045 20.2948 86.437 19.8078 86.781 19.2738C87.02 19.4458 87.253 19.5698 87.482 19.6468C87.722 19.7228 87.965 19.7598 88.212 19.7598C88.576 19.7598 88.938 19.6598 89.301 19.4598C89.6736 19.2519 90.0244 19.007 90.348 18.7288L90.365 18.7128C90.202 19.0658 90.045 19.4098 89.902 19.7328C89.692 20.2098 89.52 20.6298 89.387 20.9928C89.253 21.3548 89.187 21.6168 89.187 21.7788C89.187 22.0848 89.282 22.3428 89.473 22.5528C89.663 22.7628 89.928 22.8688 90.262 22.8688C90.586 22.8688 90.852 22.7628 91.062 22.5528C91.282 22.3528 91.479 22.1008 91.65 21.7948C91.822 21.4798 91.984 21.1448 92.137 20.7908C92.299 20.4278 92.477 20.0908 92.668 19.7758C92.974 19.3078 93.326 18.7778 93.727 18.1858C94.127 17.5938 94.567 17.0358 95.045 16.5098C95.4967 15.9972 96.0118 15.5442 96.578 15.1618C97.132 14.7988 97.713 14.6188 98.324 14.6188C98.487 14.6188 98.607 14.6708 98.684 14.7758C98.7706 14.8749 98.8164 15.0032 98.812 15.1348C98.812 15.2968 98.749 15.5058 98.625 15.7638C98.501 16.0218 98.343 16.3178 98.152 16.6528C97.971 16.9768 97.77 17.3248 97.551 17.6968C97.331 18.0598 97.122 18.4288 96.921 18.8008C96.731 19.1728 96.563 19.5358 96.42 19.8888C96.2957 20.2003 96.2186 20.5286 96.191 20.8628L96.162 21.0778V21.2638C96.162 21.7698 96.277 22.1668 96.506 22.4538C96.745 22.7298 97.117 22.8688 97.623 22.8688C97.795 22.8688 97.981 22.8488 98.182 22.8108C98.4141 22.767 98.6435 22.7095 98.869 22.6388C99.595 22.4288 100.225 22.2058 100.759 21.9668C101.279 21.7306 101.785 21.4669 102.277 21.1768C102.755 20.8908 103.219 20.5868 103.668 20.2618C104.126 19.9368 104.628 19.5788 105.172 19.1878C105.572 18.8728 105.864 18.5328 106.045 18.1698C106.235 17.8068 106.332 17.4778 106.332 17.1818C106.339 17.0124 106.288 16.8458 106.188 16.7088C106.147 16.6485 106.091 16.5998 106.026 16.5673C105.961 16.5349 105.889 16.5199 105.816 16.5238C105.743 16.5252 105.67 16.5398 105.602 16.5668C105.517 16.6 105.44 16.6481 105.372 16.7088C105.094 16.9668 104.746 17.2588 104.326 17.5838C103.916 17.8988 103.461 18.2188 102.965 18.5438C102.468 18.8578 101.949 19.1588 101.405 19.4458C100.896 19.72 100.369 19.9592 99.828 20.1618C99.734 20.2332 99.6275 20.2864 99.514 20.3188C99.428 20.3288 99.352 20.3338 99.285 20.3338C99.18 20.3338 99.102 20.3058 99.055 20.2478C99.0084 20.1917 98.9836 20.1207 98.985 20.0478C98.9815 19.8547 99.0471 19.6668 99.17 19.5178C99.265 19.3458 99.394 19.1308 99.557 18.8728C99.729 18.6058 99.915 18.3128 100.115 17.9978C100.315 17.6828 100.516 17.3498 100.717 16.9958C100.927 16.6328 101.113 16.2658 101.275 15.8928C101.447 15.5198 101.586 15.1478 101.691 14.7758C101.793 14.4264 101.845 14.0647 101.848 13.7008C101.848 13.1188 101.676 12.7098 101.332 12.4708C100.998 12.2228 100.578 12.0978 100.072 12.0978C99.623 12.0978 99.147 12.1688 98.641 12.3128C98.1393 12.4578 97.6506 12.6445 97.18 12.8708C96.7265 13.082 96.2945 13.3365 95.89 13.6308C95.5 13.9078 95.198 14.1808 94.988 14.4468C95.1174 14.1788 95.1858 13.8854 95.188 13.5878C95.188 13.2628 95.098 13.0198 94.916 12.8578C94.8355 12.7765 94.7397 12.7118 94.6342 12.6675C94.5286 12.6233 94.4154 12.6002 94.301 12.5998C94.024 12.5998 93.741 12.6998 93.455 12.8998C93.169 13.1008 92.929 13.4058 92.738 13.8168C92.671 13.9638 92.592 14.1298 92.508 14.3048C92.4549 14.3205 92.4068 14.3494 92.368 14.3888C92.2124 14.5676 92.0547 14.7447 91.895 14.9198C91.4693 15.3871 91.0193 15.8317 90.547 16.2518C90.289 16.4818 90.031 16.6858 89.773 16.8668C89.516 17.0488 89.263 17.1968 89.016 17.3108C88.776 17.4248 88.556 17.4828 88.356 17.4828C88.2195 17.4843 88.0839 17.4605 87.956 17.4128C87.8263 17.3612 87.7122 17.2767 87.625 17.1678C87.778 16.7678 87.892 16.3848 87.969 16.0218C88.045 15.6488 88.084 15.3198 88.084 15.0328C88.084 14.4798 87.965 14.0168 87.727 13.6448C87.5098 13.2761 87.2104 12.9626 86.852 12.7288C86.4973 12.4984 86.1046 12.3328 85.692 12.2398C85.312 12.1484 84.9228 12.1008 84.532 12.0978C83.691 12.0978 82.928 12.2368 82.24 12.5138C81.5737 12.7684 80.954 13.1313 80.406 13.5878C79.872 14.0278 79.409 14.5278 79.018 15.0918C78.6475 15.6249 78.3262 16.1906 78.058 16.7818C77.8703 17.2047 77.7132 17.6404 77.588 18.0858C77.522 18.1278 77.484 18.1548 77.414 18.1988C77.051 18.4288 76.644 18.6718 76.195 18.9288C75.747 19.1878 75.28 19.4268 74.793 19.6468C74.316 19.8668 73.833 20.0468 73.346 20.1898C72.9003 20.3268 72.4372 20.3992 71.971 20.4048C71.57 20.4048 71.251 20.3098 71.011 20.1188C70.783 19.9288 70.668 19.6638 70.668 19.3298C70.668 19.1008 70.725 18.8248 70.84 18.4998C70.964 18.1758 71.126 17.8418 71.326 17.4978C71.536 17.1448 71.77 16.8008 72.027 16.4668C72.285 16.1228 72.549 15.8168 72.817 15.5488C73.093 15.2818 73.365 15.0668 73.633 14.9048C73.91 14.7328 74.157 14.6468 74.377 14.6468C74.567 14.6468 74.687 14.7098 74.734 14.8338C74.782 14.9488 74.807 15.0918 74.807 15.2638C74.807 15.4168 74.803 15.5778 74.793 15.7498V16.1228C74.793 16.2658 74.816 16.3668 74.863 16.4238C74.921 16.4808 75.045 16.5098 75.236 16.5098C75.59 16.5098 75.886 16.4038 76.125 16.1938C76.364 15.9838 76.558 15.7218 76.711 15.4058C76.864 15.0908 76.974 14.7578 77.041 14.4048C77.108 14.0418 77.141 13.7118 77.141 13.4158C77.1462 13.2028 77.1017 12.9916 77.011 12.7988C76.9429 12.6367 76.8293 12.4977 76.684 12.3988C76.539 12.2887 76.3724 12.2106 76.195 12.1698C76.0036 12.1206 75.8066 12.0964 75.609 12.0978C74.989 12.0978 74.373 12.2308 73.762 12.4978C73.1382 12.7785 72.5512 13.1345 72.014 13.5578C71.46 13.9978 70.944 14.4988 70.467 15.0628C70.0071 15.6018 69.5905 16.1762 69.221 16.7808C68.9301 17.2566 68.6812 17.7569 68.477 18.2758C68.427 18.3218 68.383 18.3668 68.332 18.4138C68.084 18.6528 67.818 18.8918 67.532 19.1308C67.245 19.3608 66.952 19.5648 66.656 19.7458C66.36 19.9278 66.066 20.0758 65.77 20.1898C65.5062 20.2997 65.2237 20.3581 64.938 20.3618C64.698 20.3618 64.513 20.3248 64.378 20.2478C64.255 20.1618 64.193 19.9898 64.193 19.7328C64.193 19.4928 64.236 19.2298 64.323 18.9428C64.418 18.6568 64.528 18.3668 64.653 18.0708C64.7828 17.7805 64.9206 17.4937 65.066 17.2108C65.282 16.7793 65.4924 16.3449 65.697 15.9078L65.898 15.4778L66.141 14.9898C66.227 14.8188 66.337 14.6098 66.471 14.3618C66.5166 14.2824 66.5458 14.1947 66.557 14.1038C66.5759 14.0186 66.5903 13.9325 66.6 13.8458C66.6 13.4828 66.467 13.1858 66.2 12.9568C65.9478 12.7207 65.6133 12.5926 65.268 12.5998C65.048 12.5998 64.833 12.6568 64.623 12.7718C64.413 12.8858 64.227 13.0768 64.064 13.3438L63.578 14.3458C63.444 14.6128 63.316 14.8768 63.191 15.1348C63.077 15.3928 62.995 15.5828 62.947 15.7068C62.814 16.0408 62.652 16.3948 62.461 16.7668C62.297 17.0798 62.141 17.4068 61.991 17.7478C61.6719 17.943 61.3409 18.118 61 18.2718C60.6429 18.4223 60.2735 18.5417 59.896 18.6288C59.5488 18.7128 59.1931 18.7561 58.836 18.7578C58.511 18.7578 58.274 18.6578 58.121 18.4578C58.474 17.8558 58.798 17.3398 59.094 16.9098C59.399 16.4708 59.664 16.0738 59.883 15.7198C60.103 15.3578 60.274 15.0098 60.398 14.6758C60.532 14.3418 60.598 13.9738 60.598 13.5718C60.598 13.2188 60.518 12.9178 60.355 12.6698C60.193 12.4118 59.915 12.2828 59.523 12.2828C59.294 12.2828 59.071 12.3978 58.852 12.6268C58.632 12.8468 58.407 13.1428 58.178 13.5158C57.958 13.8788 57.729 14.2938 57.49 14.7618C57.261 15.2198 57.018 15.6888 56.76 16.1658C56.512 16.6438 56.243 17.1098 55.957 17.5688C55.7018 17.9894 55.4046 18.3831 55.07 18.7438C54.707 19.2308 54.372 19.6118 54.066 19.8888C53.761 20.1658 53.485 20.3048 53.236 20.3048C53.179 20.3048 53.126 20.2718 53.078 20.2048C53.0289 20.1242 52.9909 20.0375 52.965 19.9468C52.9365 19.8425 52.9124 19.7371 52.893 19.6308C52.876 19.5414 52.866 19.4508 52.863 19.3598C52.863 18.9298 52.921 18.4568 53.035 17.9418C53.159 17.4158 53.309 16.8818 53.48 16.3378C53.652 15.7938 53.832 15.2538 54.023 14.7188C54.224 14.1748 54.396 13.6728 54.539 13.2148C54.5795 13.1303 54.5997 13.0375 54.598 12.9438C54.598 12.8217 54.5626 12.7022 54.496 12.5998C54.4281 12.493 54.3405 12.4 54.238 12.3258C54.13 12.2482 54.0091 12.1903 53.881 12.1548C53.762 12.1086 53.6356 12.0849 53.508 12.0848C53.231 12.0848 52.944 12.1748 52.648 12.3548C52.362 12.5278 52.125 12.8138 51.934 13.2148C51.829 13.5298 51.685 13.9548 51.504 14.4898C51.332 15.0248 51.154 15.6058 50.973 16.2368C50.7958 16.8548 50.6433 17.4796 50.516 18.1098C50.299 18.2388 50.054 18.3798 49.756 18.5428C49.383 18.7528 48.964 18.9778 48.496 19.2168C48.028 19.4468 47.546 19.6608 47.049 19.8618C46.562 20.0618 46.065 20.2278 45.559 20.3618C45.1007 20.4812 44.6295 20.544 44.156 20.5488C43.746 20.5488 43.416 20.4708 43.168 20.3188C43.0509 20.2473 42.9506 20.1514 42.8738 20.0377C42.797 19.924 42.7456 19.7951 42.723 19.6598C44.021 19.1828 45.102 18.7098 45.961 18.2418C46.83 17.7648 47.521 17.3018 48.037 16.8538C48.553 16.3948 48.915 15.9448 49.125 15.5058C49.335 15.0658 49.441 14.6468 49.441 14.2458C49.441 13.5678 49.245 13.0378 48.854 12.6558C48.462 12.2748 47.871 12.0838 47.078 12.0838V12.0848ZM46.305 14.0448H46.434C46.472 14.0448 46.514 14.0508 46.563 14.0608C46.6771 14.0793 46.7822 14.134 46.863 14.2168C46.9105 14.2602 46.948 14.3135 46.9727 14.3729C46.9974 14.4324 47.0087 14.4965 47.006 14.5608C47.006 14.7328 46.924 14.9388 46.762 15.1778C46.599 15.4078 46.305 15.6548 45.875 15.9218C45.7052 16.028 45.5378 16.138 45.373 16.2518C45.143 16.4138 44.872 16.5948 44.557 16.7948C44.242 16.9948 43.902 17.2058 43.539 17.4258C43.186 17.6458 42.842 17.8418 42.508 18.0138C42.565 17.8318 42.647 17.6068 42.752 17.3398C42.867 17.0728 43.006 16.7958 43.168 16.5098C43.33 16.2138 43.51 15.9168 43.711 15.6208C43.9145 15.3325 44.1504 15.0685 44.414 14.8338C44.6742 14.5994 44.9686 14.4058 45.287 14.2598C45.6068 14.1155 45.9541 14.0422 46.305 14.0448ZM83.787 14.6188C84.083 14.6188 84.317 14.6768 84.488 14.7908C84.66 14.8958 84.789 15.0328 84.875 15.2048C84.97 15.3768 85.028 15.5688 85.047 15.7798C85.1504 16.4669 85.0668 17.1692 84.805 17.8128C84.6189 18.2818 84.3575 18.7172 84.031 19.1018C83.7133 19.4683 83.3356 19.778 82.914 20.0178C82.504 20.2468 82.078 20.3618 81.639 20.3618C81.352 20.3618 81.123 20.2998 80.951 20.1758C80.7836 20.0562 80.6466 19.899 80.551 19.7168C80.4649 19.5255 80.407 19.3227 80.379 19.1148C80.3517 18.9156 80.3374 18.7148 80.336 18.5138C80.336 18.0268 80.43 17.5538 80.621 17.0958C80.812 16.6278 81.066 16.2128 81.381 15.8498C81.6914 15.4892 82.0652 15.1886 82.484 14.9628C82.904 14.7328 83.338 14.6188 83.787 14.6188Z" fill="#60BE86"/>
</svg>
