<svg width="128" height="128" viewBox="0 0 128 128" fill="none" xmlns="http://www.w3.org/2000/svg">
<path d="M64 7.83008H4.77002L14.95 95.1301L63.95 120.13H64.01L113.08 95.1301L123.23 7.83008H64ZM106.77 62.6901C106.77 63.5701 106.77 64.3601 106 64.6901L73.25 80.4401L70.83 81.5701L70.56 78.4201V72.2301L70.8 70.6601L71.89 70.1901L95.07 59.8101L73.53 50.2101L64.35 68.3401L58.9 78.8701L57.68 81.1401L55.63 80.2401L22 64.7101C21.601 64.5377 21.2558 64.261 21.0006 63.909C20.7455 63.5571 20.5898 63.1429 20.55 62.7101V56.9101C20.5839 56.4795 20.7338 56.0662 20.9839 55.714C21.2339 55.3619 21.5747 55.084 21.97 54.9101L55.97 39.1801L59.18 37.7401V47.4001L59.42 48.7401L57.86 49.4401L34.45 59.7901L56.3 69.4201L64.35 53.4201L70.56 40.7701L71.69 38.4901L73.5 39.4001L106 54.8901C106.73 55.2401 106.76 56.0301 106.76 56.8901L106.77 62.6901Z" fill="#60BE86"/>
</svg>
