<svg width="128" height="128" viewBox="0 0 128 128" fill="none" xmlns="http://www.w3.org/2000/svg">
<path d="M4.91992 8L15.0899 95.05L63.9999 119.95V8H4.91992Z" fill="#558D6C"/>
<path d="M64 8V119.95L64.05 120L112.98 95.09L123.08 8H64Z" fill="#5AA579"/>
<path d="M18.8398 22.1104L25.3298 87.2904L63.9998 105.97V22.1104H18.8398Z" fill="#60BE86"/>
<path d="M64 22.1104V105.97L64.05 106.02L102.74 87.2604L109.16 22.1104H64Z" fill="#65D693"/>
<path d="M105.72 54.8995L73.14 39.4195L71.31 38.5195L70.19 40.7995L64 53.4095V68.2995L73.15 50.2195L94.65 59.7895L71.56 70.1595L70.69 70.6295V81.5095L73 80.3795L105.78 64.6895C106.112 64.4827 106.376 64.183 106.54 63.8275C106.703 63.472 106.759 63.0763 106.7 62.6895V56.9095C106.755 56.515 106.692 56.1129 106.517 55.7548C106.343 55.3967 106.065 55.0988 105.72 54.8995Z" fill="#5AA579"/>
<path d="M56.0002 69.3898L34.2102 59.7898L57.5102 49.4198L59.2702 48.7198V37.7598L55.8702 39.1998L21.9402 54.8898C21.5623 55.0716 21.2424 55.3549 21.0163 55.7081C20.7903 56.0613 20.667 56.4705 20.6602 56.8898V62.6598C20.6587 63.0758 20.7741 63.484 20.9934 63.8376C21.2126 64.1912 21.5268 64.4761 21.9002 64.6598L55.3402 80.1798L57.3402 81.0798L58.5502 78.8198L64.0002 68.2998V53.4098L56.0002 69.3898Z" fill="#558D6C"/>
</svg>
