<svg width="128" height="128" viewBox="0 0 128 128" fill="none" xmlns="http://www.w3.org/2000/svg">
<path d="M11.6631 26.7695L20.6571 103.908L63.8511 125.947H64.1151L107.369 103.907L116.337 26.7695H64.0001H11.6631ZM12.6461 27.6455H115.354L106.554 103.342L63.9831 125.032L21.4731 103.342L12.6461 27.6455ZM60.2181 52.7115L56.7901 54.2515L27.0341 68.0185C26.6157 68.2028 26.2549 68.4969 25.9902 68.8696C25.7254 69.2423 25.5664 69.6798 25.5301 70.1355V75.2655L25.5311 75.2855C25.5732 75.7418 25.7372 76.1783 26.0058 76.5495C26.2744 76.9207 26.6379 77.2129 27.0581 77.3955L27.0611 77.3995L56.4931 90.9895L58.6631 91.9415L59.9231 89.5955L64.6961 80.3745L72.5451 64.8745L90.1231 72.7085L70.7311 81.3935L69.5561 81.8995L69.3061 83.5455V89.0155L69.5961 92.4165L72.2851 91.1615L100.937 77.3815C101.39 77.1875 101.668 76.7925 101.777 76.4015C101.884 76.0095 101.876 75.6135 101.876 75.2285L101.866 70.1525C101.866 69.7705 101.866 69.3765 101.757 68.9895C101.701 68.7781 101.6 68.5811 101.461 68.4116C101.323 68.2422 101.15 68.1041 100.954 68.0065H100.952L72.5101 54.4485L70.5351 53.4575L69.3501 55.8475L63.9161 66.9195L57.0561 80.5515L39.2201 72.6895L58.8041 64.0295L60.4831 63.2775L60.2191 61.8055L60.2181 52.7115ZM59.3431 54.0645V61.8845L59.5001 62.7575L58.4471 63.2295L37.0491 72.6905L57.4641 81.6875L64.6981 67.3085L70.1341 56.2335L70.9271 54.6355L72.1231 55.2355L100.574 68.7955C100.78 68.8955 100.851 69.0055 100.914 69.2285C100.978 69.4525 100.992 69.7805 100.992 70.1525L101 75.2295C101 75.6145 100.993 75.9495 100.932 76.1685C100.872 76.3875 100.812 76.4825 100.592 76.5765L100.583 76.5805L71.9101 90.3695L70.3631 91.0925L70.1811 88.9775V83.6115L70.3491 82.5105L71.0841 82.1935L92.2701 72.7055L72.1401 63.7355L63.9171 79.9735L59.1491 89.1865L58.2751 90.8135L56.8551 90.1895L27.4151 76.5965L27.4111 76.5945C27.1348 76.4749 26.8958 76.2832 26.719 76.0396C26.5422 75.7959 26.4342 75.5093 26.4061 75.2095V70.1995C26.4561 69.5935 26.8311 69.0645 27.3871 68.8195L27.3911 68.8175L57.1541 55.0475L59.3431 54.0645Z" fill="#60BE86"/>
<path d="M33.527 1.34182C32.4603 1.33985 31.3967 1.45453 30.355 1.68382C29.335 1.90882 28.372 2.21382 27.465 2.59782C26.559 2.97182 25.724 3.41182 24.959 3.91782V3.91582C24.2548 4.37221 23.5967 4.89601 22.994 5.47982C22.441 6.02282 22.001 6.58482 21.678 7.16782V7.16982L21.676 7.17182C21.351 7.74882 21.168 8.32282 21.168 8.88882C21.168 9.34582 21.315 9.78882 21.644 10.0798C21.974 10.3708 22.416 10.4788 22.9 10.4788C23.42 10.4788 23.908 10.3478 24.318 10.0818C24.69 9.84182 25.028 9.53182 25.334 9.16382C25.63 8.81782 25.924 8.42982 26.217 8.00182L26.223 7.99582C26.499 7.60482 26.814 7.21182 27.172 6.81582C27.482 6.53382 27.856 6.26482 28.301 6.01582H28.305C28.763 5.75582 29.265 5.52982 29.813 5.33782C30.3718 5.14293 30.9448 4.99148 31.527 4.88482L31.531 4.88282H31.533C32.1191 4.76571 32.7153 4.70609 33.313 4.70482C33.926 4.70482 34.437 4.80582 34.857 4.99182C35.289 5.18282 35.625 5.43782 35.889 5.76582L35.891 5.76782L35.893 5.76982C36.17 6.10382 36.378 6.50282 36.513 6.97882V6.98182L36.516 6.98582C36.6684 7.506 36.7432 8.04581 36.738 8.58782C36.738 9.26982 36.611 10.0118 36.348 10.8108L36.346 10.8128V10.8148C36.091 11.6148 35.726 12.4208 35.246 13.2328H35.244V13.2348C34.775 14.0348 34.204 14.8158 33.527 15.5758C32.8579 16.3275 32.1148 17.01 31.309 17.6128C30.5089 18.2106 29.6433 18.7152 28.729 19.1168C28.215 19.3428 27.664 19.4098 27.129 19.5388C27.306 19.2808 27.479 19.0488 27.659 18.7758H27.656C28.1082 18.0928 28.546 17.4003 28.969 16.6988L28.971 16.6948C29.402 15.9948 29.815 15.3028 30.209 14.6108V14.6088C30.609 13.9128 30.978 13.2618 31.313 12.6598L31.316 12.6538C31.659 12.0538 31.959 11.5088 32.219 11.0188L32.223 11.0138L32.857 9.85682L32.859 9.85082C33.039 9.54382 33.183 9.22082 33.289 8.88082C33.398 8.53282 33.455 8.19082 33.455 7.85682C33.4612 7.43417 33.3326 7.02052 33.088 6.67582C32.795 6.27482 32.292 6.09782 31.766 6.09782C31.59 6.09782 31.433 6.13282 31.24 6.18382C30.983 6.23882 30.73 6.35082 30.463 6.51182L30.459 6.51582L30.455 6.51682C30.189 6.68382 29.915 6.90382 29.621 7.17682L29.617 7.17982L29.613 7.18382C29.2751 7.52159 28.9771 7.89705 28.725 8.30282L28.709 8.32582L22.811 20.0508L22.848 19.9908C22.6697 20.2469 22.5252 20.5248 22.418 20.8178C22.303 21.1298 22.242 21.4578 22.242 21.7948C22.242 22.2508 22.403 22.6878 22.703 23.0148C23.018 23.3678 23.486 23.5548 23.975 23.5548C25.771 23.5548 27.45 23.3388 29.005 22.9058C30.56 22.4758 31.979 21.8928 33.26 21.1538C34.5036 20.45 35.65 19.5867 36.67 18.5858L36.672 18.5838C37.6247 17.6602 38.4621 16.6247 39.166 15.4998L39.168 15.4978C39.8247 14.4628 40.3424 13.3459 40.708 12.1758C41.064 11.0458 41.246 9.95482 41.246 8.90382C41.2541 7.90416 41.0952 6.91017 40.776 5.96282C40.48 5.06128 39.9875 4.23674 39.334 3.54882C38.688 2.85182 37.874 2.30782 36.908 1.92182C35.929 1.52982 34.799 1.34182 33.528 1.34182H33.527ZM33.527 2.34182C34.7 2.34182 35.702 2.51682 36.537 2.85182C37.385 3.19082 38.066 3.64882 38.604 4.22982L38.606 4.23182L38.609 4.23582C39.1634 4.81846 39.5803 5.51793 39.829 6.28282L39.83 6.28482V6.28682C40.1137 7.12983 40.2543 8.01439 40.246 8.90382C40.246 9.83982 40.085 10.8278 39.754 11.8748V11.8768L39.752 11.8788C39.4118 12.9674 38.9297 14.0063 38.318 14.9688V14.9708H38.316C37.6544 16.0287 36.8669 17.0025 35.971 17.8708L35.969 17.8728C35.0105 18.8139 33.933 19.6254 32.764 20.2868H32.762C31.56 20.9798 30.222 21.5318 28.74 21.9418H28.738C27.278 22.3478 25.691 22.5548 23.974 22.5548C23.701 22.5548 23.572 22.4908 23.447 22.3498L23.443 22.3478L23.439 22.3438C23.302 22.1938 23.242 22.0438 23.242 21.7948C23.242 21.5768 23.28 21.3698 23.355 21.1658C23.437 20.9448 23.541 20.7438 23.668 20.5608L23.689 20.5308L29.574 8.83182C29.832 8.43382 30.082 8.12082 30.308 7.90182C30.5149 7.70535 30.7391 7.52796 30.978 7.37182C31.185 7.24682 31.352 7.18182 31.455 7.15982L31.467 7.15582L31.478 7.15382C31.5721 7.12792 31.668 7.1092 31.765 7.09782C32.098 7.09782 32.209 7.16982 32.279 7.26582C32.396 7.42582 32.455 7.60082 32.455 7.85782C32.455 8.07782 32.418 8.32082 32.335 8.58382C32.2518 8.85294 32.1374 9.11138 31.994 9.35382L31.99 9.35982L31.988 9.36482L31.344 10.5388L31.342 10.5428L31.34 10.5448C31.0503 11.0896 30.7519 11.6296 30.445 12.1648L30.443 12.1658L30.441 12.1698C30.108 12.7688 29.741 13.4158 29.341 14.1108V14.1128C28.9449 14.8075 28.5369 15.4953 28.117 16.1758L28.115 16.1778V16.1798C27.6991 16.8705 27.2687 17.5523 26.824 18.2248H26.822C26.4134 18.8496 25.9889 19.4638 25.549 20.0668L24.883 20.9728L26.002 20.8598C27.0821 20.7496 28.138 20.4699 29.131 20.0308C30.1151 19.5991 31.0468 19.0566 31.908 18.4138H31.91C32.7686 17.7703 33.5602 17.0419 34.273 16.2398C34.9644 15.4688 35.578 14.6314 36.105 13.7398L36.107 13.7378C36.6007 12.9137 36.9999 12.0365 37.297 11.1228C37.587 10.2408 37.738 9.39482 37.738 8.58782C37.738 7.91782 37.651 7.28982 37.474 6.70482L37.472 6.70282C37.3138 6.12956 37.038 5.59554 36.662 5.13482C36.2876 4.67539 35.8081 4.31284 35.264 4.07782C34.691 3.82482 34.036 3.70482 33.312 3.70482C32.658 3.70482 32.002 3.77182 31.342 3.90182C30.699 4.02182 30.077 4.18382 29.48 4.39182C28.9014 4.59202 28.3422 4.84404 27.809 5.14482H27.812C27.306 5.42782 26.862 5.74082 26.486 6.08482L26.469 6.10182L26.455 6.11882C26.06 6.55282 25.709 6.98882 25.4 7.42782L25.398 7.42982L25.394 7.43382C25.117 7.83982 24.844 8.20082 24.57 8.51982L24.566 8.52282L24.564 8.52682C24.316 8.82682 24.053 9.06282 23.775 9.24182C23.536 9.39682 23.259 9.47882 22.9 9.47882C22.564 9.47882 22.388 9.40382 22.307 9.33182C22.225 9.25982 22.167 9.15682 22.167 8.88882C22.167 8.53882 22.283 8.13182 22.549 7.65982V7.65782L22.551 7.65582C22.819 7.17082 23.197 6.68282 23.693 6.19582C24.2505 5.65684 24.859 5.17324 25.51 4.75182V4.74982C26.2479 4.26636 27.0309 3.85544 27.848 3.52282L27.85 3.52082H27.852C28.7297 3.15154 29.6395 2.86366 30.57 2.66082C31.541 2.44675 32.5326 2.33945 33.527 2.34082V2.34182ZM67.602 7.64482C67.2231 7.63761 66.8477 7.71911 66.506 7.88282L66.502 7.88482L66.498 7.88682C65.9294 8.17686 65.4944 8.6746 65.283 9.27682L65.281 9.28282L65.279 9.28882C65.1885 9.55693 65.1419 9.83787 65.141 10.1208V10.1448L65.143 10.1678C65.183 10.5918 65.396 10.9898 65.728 11.2558L65.734 11.2598L65.738 11.2638C66.135 11.5638 66.643 11.6388 67.288 11.6388C67.6545 11.6453 68.0168 11.56 68.342 11.3908C68.621 11.2388 68.865 11.0448 69.055 10.8048L69.059 10.7988L69.062 10.7948C69.238 10.5608 69.367 10.3028 69.452 10.0308C69.539 9.77582 69.592 9.52482 69.592 9.27482C69.5928 9.05964 69.5505 8.84647 69.4675 8.64791C69.3846 8.44936 69.2626 8.26945 69.109 8.11882C68.742 7.75482 68.219 7.64482 67.602 7.64482ZM67.602 8.64482C68.089 8.64482 68.337 8.75682 68.408 8.82782L68.412 8.83182L68.416 8.83582C68.544 8.95782 68.592 9.06382 68.592 9.27582C68.592 9.38582 68.567 9.53282 68.504 9.71282L68.502 9.72282L68.498 9.72982C68.4479 9.89484 68.3694 10.0498 68.266 10.1878C68.169 10.3078 68.042 10.4158 67.866 10.5118C67.719 10.5908 67.536 10.6388 67.287 10.6388C66.75 10.6388 66.433 10.5308 66.35 10.4688C66.2894 10.4248 66.2396 10.3677 66.2043 10.3017C66.169 10.2357 66.149 10.1626 66.146 10.0878C66.15 9.93682 66.172 9.77982 66.226 9.61282C66.2898 9.43509 66.3853 9.27042 66.508 9.12682C66.625 8.98882 66.771 8.87382 66.955 8.77682C67.122 8.69382 67.33 8.64482 67.602 8.64482ZM47.078 11.5838C46.276 11.5838 45.509 11.6998 44.788 11.9368H44.785C44.1031 12.1626 43.4533 12.4759 42.852 12.8688C42.266 13.2528 41.732 13.6988 41.256 14.2048C40.796 14.6948 40.403 15.2048 40.078 15.7318C39.7654 16.2317 39.5129 16.7667 39.326 17.3258C39.1568 17.8096 39.0667 18.3174 39.059 18.8298C39.059 19.4148 39.146 19.9798 39.326 20.5198C39.506 21.0598 39.772 21.5458 40.117 21.9668L40.119 21.9708L40.123 21.9728C40.4794 22.3949 40.9184 22.7397 41.413 22.9858L41.414 22.9878C41.938 23.2448 42.531 23.3688 43.168 23.3688C43.88 23.3688 44.598 23.2708 45.322 23.0798C46.0218 22.906 46.7072 22.6783 47.372 22.3988C48.0069 22.1347 48.6262 21.8345 49.227 21.4998H49.229C49.507 21.3428 49.728 21.1998 49.973 21.0498C50.004 21.1778 50.003 21.3218 50.049 21.4408L50.051 21.4448L50.053 21.4508C50.216 21.8538 50.434 22.2078 50.713 22.4978C50.989 22.7848 51.322 23.0038 51.692 23.1448C52.054 23.2908 52.44 23.3688 52.836 23.3688C53.628 23.3688 54.394 23.1158 55.094 22.6388C55.686 22.2408 56.248 21.6238 56.804 20.9448C57.078 21.1018 57.36 21.2718 57.578 21.3578C57.904 21.4858 58.248 21.5488 58.594 21.5488C59.422 21.5488 60.178 21.3698 60.893 21.1038C60.996 21.7188 61.193 22.2718 61.608 22.6508L61.614 22.6538L61.617 22.6578C62.173 23.1428 62.919 23.3688 63.777 23.3688C64.387 23.3688 64.992 23.2488 65.58 23.0178C66.1686 22.7839 66.7315 22.49 67.26 22.1408H67.262C67.52 21.9708 67.767 21.7688 68.018 21.5778C68.162 21.8578 68.298 22.1438 68.518 22.3708L68.52 22.3728L68.524 22.3768C68.832 22.6848 69.207 22.9268 69.634 23.1018H69.635L69.637 23.1038C70.086 23.2838 70.585 23.3688 71.125 23.3688C71.815 23.3688 72.514 23.2608 73.213 23.0488L73.221 23.0468C73.8987 22.8499 74.5587 22.5963 75.194 22.2888L75.198 22.2868C75.8168 21.9932 76.4146 21.6571 76.987 21.2808L76.989 21.2788C77.032 21.2508 77.068 21.2238 77.109 21.1948C77.149 21.2868 77.159 21.3948 77.207 21.4808C77.455 21.9218 77.767 22.2958 78.137 22.5878L78.143 22.5938L78.149 22.5978C78.5018 22.8613 78.8977 23.0616 79.319 23.1898C79.705 23.3038 80.059 23.3698 80.393 23.3698C81.14 23.3698 81.848 23.2718 82.514 23.0778H82.516C83.1695 22.9018 83.7967 22.6395 84.381 22.2978C84.9578 21.9651 85.4887 21.5583 85.96 21.0878C86.316 20.7318 86.616 20.3178 86.913 19.9018C87.05 19.9748 87.183 20.0738 87.325 20.1218H87.329L87.331 20.1228C87.619 20.2148 87.916 20.2598 88.213 20.2598C88.573 20.2598 88.921 20.1218 89.264 19.9728C89.141 20.2658 89.01 20.5718 88.919 20.8188C88.776 21.2048 88.689 21.4828 88.689 21.7788C88.689 22.1878 88.831 22.5888 89.104 22.8888C89.393 23.2058 89.822 23.3688 90.262 23.3688C90.694 23.3688 91.112 23.2048 91.411 22.9088C91.6805 22.6568 91.9087 22.3639 92.087 22.0408L92.089 22.0368L92.091 22.0348C92.27 21.7068 92.437 21.3598 92.594 20.9958L92.596 20.9898C92.75 20.6478 92.917 20.3308 93.096 20.0348C93.399 19.5728 93.746 19.0508 94.141 18.4668C94.529 17.8938 94.953 17.3528 95.415 16.8458L95.417 16.8438H95.419C95.8423 16.3625 96.3252 15.9371 96.856 15.5778C97.334 15.2658 97.806 15.1248 98.313 15.1228V15.1348C98.313 15.1668 98.282 15.3248 98.175 15.5468C98.0333 15.8377 97.8815 16.1235 97.72 16.4038L97.718 16.4058V16.4078C97.538 16.7278 97.338 17.0738 97.12 17.4428C96.897 17.8128 96.686 18.1878 96.483 18.5648L96.479 18.5678L96.477 18.5718C96.281 18.9558 96.107 19.3318 95.957 19.7018L95.956 19.7068L95.954 19.7108C95.806 20.1008 95.717 20.4748 95.694 20.8318L95.696 20.8008L95.669 21.0078L95.663 21.0428V21.2628C95.663 21.8448 95.797 22.3668 96.116 22.7658L96.122 22.7738L96.128 22.7788C96.48 23.1888 97.026 23.3688 97.624 23.3688C97.835 23.3688 98.052 23.3438 98.276 23.3008C98.506 23.2588 98.749 23.1988 99.009 23.1188C99.6757 22.932 100.329 22.6998 100.964 22.4238L100.966 22.4218H100.968C101.503 22.1785 102.025 21.9067 102.532 21.6078H102.536C103.024 21.3148 103.498 21.0018 103.958 20.6698L103.962 20.6658C104.42 20.3408 104.92 19.9848 105.464 19.5938L105.474 19.5878L105.482 19.5798C105.927 19.2298 106.271 18.8358 106.492 18.3948C106.706 17.9848 106.833 17.5828 106.833 17.1818C106.833 16.9108 106.753 16.6388 106.589 16.4198C106.499 16.3 106.382 16.2021 106.249 16.1336C106.115 16.065 105.968 16.0275 105.818 16.0238C105.68 16.0238 105.548 16.0518 105.428 16.0978C105.287 16.1508 105.158 16.2308 105.042 16.3318L105.036 16.3378L105.032 16.3438C104.77 16.5878 104.432 16.8698 104.021 17.1878C103.59 17.5165 103.147 17.829 102.693 18.1248C102.21 18.4308 101.703 18.7228 101.173 19.0018L101.171 19.0038H101.169C100.68 19.2678 100.175 19.4983 99.655 19.6938L99.645 19.6968C99.731 19.5468 99.836 19.3668 99.978 19.1428L99.982 19.1388C100.154 18.8708 100.339 18.5788 100.538 18.2658C100.743 17.9438 100.948 17.6058 101.151 17.2458L101.153 17.2418C101.37 16.8678 101.561 16.4868 101.73 16.1018C101.909 15.7167 102.057 15.3182 102.173 14.9098C102.289 14.4978 102.349 14.0948 102.349 13.7008C102.349 13.0218 102.117 12.4118 101.62 12.0648C101.191 11.7498 100.657 11.5978 100.073 11.5978C99.542 11.603 99.0143 11.6818 98.505 11.8318H98.503C97.9759 11.9842 97.4625 12.1802 96.968 12.4178C96.475 12.6498 96.02 12.9178 95.603 13.2228L95.601 13.2248L95.597 13.2268C95.581 13.2378 95.575 13.2508 95.56 13.2618C95.502 12.9808 95.464 12.6838 95.253 12.4918C94.996 12.2518 94.653 12.0998 94.302 12.0998C93.904 12.0998 93.518 12.2458 93.169 12.4898C92.795 12.7528 92.505 13.1358 92.286 13.6058V13.6078L92.284 13.6098C92.234 13.7198 92.171 13.8478 92.108 13.9788C92.078 14.0018 92.041 14.0088 92.015 14.0358L92.003 14.0468L91.991 14.0608C91.87 14.2008 91.715 14.3768 91.526 14.5838H91.524C91.1109 15.0381 90.6743 15.4703 90.216 15.8788C89.971 16.0968 89.729 16.2888 89.487 16.4588C89.2728 16.612 89.0452 16.7456 88.807 16.8578H88.804L88.8 16.8598C88.6625 16.9323 88.5111 16.9742 88.356 16.9828C88.296 16.9828 88.256 16.9678 88.21 16.9568C88.303 16.6768 88.404 16.3928 88.46 16.1248V16.1208C88.541 15.7248 88.585 15.3648 88.585 15.0338C88.585 14.4108 88.449 13.8478 88.151 13.3808C87.8946 12.95 87.5434 12.5834 87.124 12.3088C86.7208 12.0476 86.2746 11.8597 85.806 11.7538C85.3886 11.6534 84.9612 11.6011 84.532 11.5978C83.637 11.5978 82.806 11.7478 82.054 12.0508C81.3413 12.3245 80.6782 12.713 80.091 13.2008V13.2038C79.525 13.6671 79.0259 14.2066 78.608 14.8068L78.606 14.8088C78.2192 15.3666 77.8838 15.9584 77.604 16.5768L77.602 16.5788V16.5808C77.4364 16.9641 77.2944 17.3572 77.177 17.7578L77.145 17.7778C76.7503 18.0257 76.3505 18.2654 75.946 18.4968C75.511 18.7468 75.061 18.9788 74.589 19.1918H74.585C74.129 19.4018 73.67 19.5728 73.205 19.7098C72.757 19.8418 72.345 19.9048 71.971 19.9048C71.651 19.9048 71.462 19.8348 71.331 19.7308C71.215 19.6338 71.169 19.5478 71.169 19.3308C71.169 19.1858 71.209 18.9588 71.309 18.6718C71.422 18.3778 71.571 18.0718 71.759 17.7508C71.958 17.4158 72.179 17.0888 72.425 16.7718L72.427 16.7698L72.429 16.7678C72.672 16.4428 72.919 16.1558 73.165 15.9078L73.167 15.9068L73.171 15.9028C73.424 15.6588 73.667 15.4698 73.893 15.3328L73.895 15.3298H73.897C74.0163 15.2487 74.1529 15.1966 74.296 15.1778C74.3 15.2108 74.308 15.2188 74.308 15.2638C74.308 15.4078 74.303 15.5608 74.294 15.7228V16.1228C74.294 16.3188 74.298 16.5258 74.48 16.7448L74.495 16.7618L74.511 16.7778C74.766 17.0328 74.996 17.0098 75.237 17.0098C75.691 17.0098 76.126 16.8598 76.457 16.5688C76.748 16.3108 76.983 15.9918 77.161 15.6248C77.3346 15.2673 77.4601 14.8883 77.534 14.4978V14.4938C77.606 14.1068 77.642 13.7488 77.642 13.4158C77.642 13.1208 77.587 12.8398 77.462 12.5858C77.3557 12.3486 77.187 12.1447 76.974 11.9958C76.7784 11.8487 76.5548 11.7432 76.317 11.6858C76.086 11.6264 75.8484 11.5969 75.61 11.5978C74.9041 11.6012 74.2067 11.7514 73.562 12.0388V12.0408H73.56C72.8991 12.3382 72.2772 12.7153 71.708 13.1638L71.706 13.1658H71.704C71.124 13.6258 70.584 14.1508 70.087 14.7388C69.6097 15.2982 69.1774 15.8944 68.794 16.5218C68.516 16.9842 68.2756 17.468 68.075 17.9688C68.0479 17.9951 68.0206 18.0211 67.993 18.0468L67.989 18.0508L67.987 18.0528C67.747 18.2828 67.489 18.5158 67.212 18.7468C66.9516 18.9546 66.6787 19.1463 66.395 19.3208C66.123 19.4878 65.856 19.6208 65.591 19.7228L65.587 19.7248H65.585C65.349 19.8198 65.135 19.8618 64.938 19.8618C64.8461 19.867 64.7542 19.853 64.668 19.8208C64.7 19.8508 64.694 19.8818 64.694 19.7328C64.694 19.5558 64.726 19.3408 64.8 19.0938L64.802 19.0878C64.892 18.8198 64.996 18.5458 65.114 18.2638C65.243 17.9788 65.374 17.7058 65.511 17.4418L65.513 17.4378L65.515 17.4338C65.659 17.1458 65.789 16.8828 65.905 16.6408V16.6388C66 16.4388 66.083 16.2668 66.151 16.1208V16.1188L66.351 15.6958L66.589 15.2128C66.669 15.0508 66.778 14.8468 66.909 14.6028L66.911 14.5978C66.985 14.4638 67.036 14.3148 67.054 14.1578C67.071 14.0728 67.087 13.9868 67.097 13.9008L67.101 13.8728V13.8458C67.1015 13.6073 67.0508 13.3714 66.9525 13.154C66.8542 12.9367 66.7105 12.7429 66.531 12.5858C66.2448 12.3243 65.8838 12.1592 65.4988 12.1136C65.1139 12.068 64.7243 12.1444 64.385 12.3318C64.078 12.4988 63.833 12.7618 63.638 13.0838L63.626 13.1038L63.616 13.1248L63.13 14.1268C62.996 14.3958 62.866 14.6598 62.741 14.9178L62.739 14.9238L62.735 14.9318C62.619 15.1918 62.536 15.3848 62.481 15.5278C62.354 15.8438 62.201 16.1808 62.017 16.5388C61.874 16.8088 61.743 17.0948 61.612 17.3828C61.341 17.5428 61.069 17.6928 60.796 17.8148C60.4687 17.9532 60.1301 18.0629 59.784 18.1428H59.782C59.4732 18.2176 59.1567 18.2562 58.839 18.2578C59.069 17.8788 59.304 17.4868 59.505 17.1958L59.507 17.1938C59.815 16.7498 60.082 16.3468 60.307 15.9838L60.31 15.9828L60.312 15.9808C60.5307 15.6236 60.7162 15.247 60.866 14.8558C61.024 14.4578 61.099 14.0258 61.099 13.5718C61.099 13.1458 60.996 12.7418 60.776 12.4018C60.516 11.9918 60.024 11.7828 59.524 11.7828C59.13 11.7828 58.774 11.9898 58.495 12.2788C58.2111 12.5743 57.9621 12.9015 57.753 13.2538L57.751 13.2558C57.524 13.6318 57.289 14.0588 57.046 14.5358L57.044 14.5368V14.5388C56.8103 15.0059 56.5693 15.4693 56.321 15.9288L56.319 15.9318L56.317 15.9358C56.075 16.4008 55.814 16.8558 55.534 17.3028V17.3048L55.532 17.3068C55.295 17.6984 55.0189 18.065 54.708 18.4008L54.688 18.4218L54.671 18.4458C54.392 18.8319 54.0772 19.1908 53.731 19.5178C53.571 19.6638 53.51 19.6618 53.421 19.6978C53.409 19.6478 53.396 19.5978 53.387 19.5488L53.385 19.5408C53.3747 19.4809 53.3677 19.4205 53.364 19.3598C53.364 18.9748 53.416 18.5378 53.524 18.0508C53.644 17.5408 53.79 17.0208 53.958 16.4888C54.128 15.9508 54.305 15.4188 54.493 14.8928L54.495 14.8868C54.697 14.3388 54.871 13.8298 55.016 13.3638L54.987 13.4378C55.0698 13.2627 55.107 13.0693 55.0949 12.8759C55.0828 12.6825 55.022 12.4953 54.918 12.3318C54.7158 12.0135 54.4019 11.7824 54.038 11.6838C53.8685 11.6197 53.6891 11.5858 53.508 11.5838C53.123 11.5838 52.743 11.7118 52.388 11.9298C51.997 12.1648 51.702 12.5388 51.482 12.9998L51.469 13.0268L51.459 13.0568C51.354 13.3708 51.212 13.7958 51.031 14.3298L51.029 14.3338L51.027 14.3378C50.854 14.8778 50.675 15.4618 50.492 16.0978C50.3349 16.6538 50.1975 17.2152 50.08 17.7808C49.908 17.8808 49.738 17.9828 49.515 18.1048H49.512L49.51 18.1068C49.144 18.3138 48.732 18.5358 48.27 18.7718C47.815 18.9938 47.345 19.2028 46.861 19.3978H46.859C46.393 19.5898 45.917 19.7478 45.431 19.8768C45.0145 19.9857 44.5864 20.0435 44.156 20.0488C43.812 20.0488 43.582 19.9818 43.437 19.8948C43.437 19.8938 43.437 19.8928 43.435 19.8928C44.476 19.4888 45.455 19.0868 46.199 18.6818H46.201V18.6798C47.091 18.1898 47.811 17.7128 48.365 17.2298L48.367 17.2278L48.369 17.2258C48.919 16.7368 49.327 16.2418 49.576 15.7208C49.811 15.2288 49.941 14.7348 49.941 14.2458C49.941 13.4708 49.701 12.7838 49.203 12.2988C48.691 11.7988 47.951 11.5838 47.078 11.5838ZM47.078 12.5838C47.791 12.5838 48.233 12.7498 48.504 13.0138C48.79 13.2928 48.941 13.6638 48.941 14.2458C48.941 14.5588 48.859 14.9038 48.674 15.2908C48.503 15.6478 48.186 16.0528 47.705 16.4808C47.228 16.8948 46.566 17.3398 45.721 17.8048C44.892 18.2548 43.832 18.7198 42.551 19.1908L42.158 19.3338L42.23 19.7438C42.3 20.1498 42.55 20.5118 42.895 20.7358L42.9 20.7398L42.906 20.7438C43.258 20.9608 43.683 21.0488 44.156 21.0488C44.6704 21.0436 45.1822 20.9755 45.68 20.8458H45.686C46.2136 20.7062 46.7314 20.5318 47.236 20.3238C47.737 20.1222 48.2306 19.9027 48.716 19.6658L48.719 19.6638L48.723 19.6618C49.194 19.4218 49.618 19.1938 49.996 18.9798L50.002 18.9778C50.302 18.8138 50.552 18.6698 50.772 18.5378L50.962 18.4258L51.006 18.2088C51.134 17.5788 51.283 16.9668 51.453 16.3748C51.633 15.7498 51.81 15.1718 51.981 14.6418L52.393 13.4198C52.553 13.0898 52.728 12.8918 52.906 12.7848L52.908 12.7828L52.91 12.7808C53.147 12.6358 53.34 12.5838 53.508 12.5838C53.572 12.5838 53.633 12.5938 53.701 12.6208L53.723 12.6288L53.744 12.6348C53.8159 12.654 53.8837 12.6862 53.944 12.7298C53.999 12.7698 54.041 12.8138 54.074 12.8668C54.095 12.8988 54.098 12.9118 54.098 12.9428C54.098 12.9828 54.092 12.9928 54.092 12.9918L54.074 13.0268L54.063 13.0668C53.923 13.5148 53.753 14.0068 53.555 14.5448L53.553 14.5488V14.5508C53.3599 15.0927 53.1768 15.6381 53.004 16.1868C52.829 16.7418 52.676 17.2868 52.549 17.8258L52.547 17.8298V17.8318C52.4303 18.3326 52.3686 18.8446 52.363 19.3588C52.363 19.4768 52.377 19.5848 52.399 19.7128L52.401 19.7168V19.7208C52.423 19.8408 52.451 19.9608 52.483 20.0778L52.485 20.0838L52.487 20.0918C52.525 20.2218 52.579 20.3488 52.655 20.4708L52.662 20.4818L52.672 20.4958C52.777 20.6428 52.989 20.8048 53.237 20.8048C53.672 20.8048 54.047 20.5808 54.403 20.2598C54.735 19.9578 55.08 19.5578 55.448 19.0678C55.783 18.7098 56.095 18.2978 56.381 17.8338L56.383 17.8298C56.673 17.3648 56.947 16.8898 57.2 16.4038L57.203 16.3958C57.461 15.9178 57.706 15.4478 57.936 14.9878L57.938 14.9838C58.171 14.5278 58.393 14.1258 58.604 13.7768L58.606 13.7748C58.82 13.4278 59.025 13.1608 59.206 12.9798L59.209 12.9758L59.213 12.9728C59.373 12.8048 59.461 12.7828 59.523 12.7828C59.806 12.7828 59.867 12.8318 59.933 12.9348L59.936 12.9388L59.938 12.9428C60.04 13.0998 60.098 13.2938 60.098 13.5728C60.098 13.9188 60.042 14.2208 59.934 14.4898L59.932 14.4958L59.93 14.5018C59.8023 14.8358 59.6432 15.1569 59.455 15.4608C59.242 15.8028 58.985 16.1928 58.684 16.6248L58.682 16.6268C58.376 17.0698 58.047 17.5938 57.69 18.2028L57.52 18.4928L57.723 18.7598C57.978 19.0948 58.409 19.2578 58.836 19.2578C59.221 19.2578 59.613 19.2088 60.01 19.1148C60.41 19.0228 60.805 18.8958 61.194 18.7318L61.2 18.7298L61.206 18.7278C61.5651 18.5658 61.9138 18.3814 62.25 18.1758L62.385 18.0938L62.447 17.9488C62.594 17.6178 62.747 17.2998 62.904 16.9998V16.9978L62.906 16.9958C63.104 16.6108 63.272 16.2428 63.412 15.8918V15.8888L63.414 15.8868C63.454 15.7808 63.535 15.5928 63.649 15.3368C63.769 15.0858 63.895 14.8278 64.025 14.5678L64.027 14.5658V14.5638L64.497 13.5988C64.624 13.3908 64.75 13.2728 64.863 13.2108C64.9858 13.1386 65.1255 13.1 65.268 13.0988C65.522 13.0988 65.688 13.1648 65.86 13.3238L65.867 13.3298L65.873 13.3358C66.038 13.4758 66.093 13.6038 66.096 13.8358C66.0892 13.8888 66.0802 13.9416 66.069 13.9938L66.063 14.0208L66.061 14.0488C66.0563 14.0738 66.0468 14.0975 66.033 14.1188L66.031 14.1208V14.1248C65.897 14.3748 65.784 14.5868 65.693 14.7668L65.447 15.2618L65.244 15.6968C65.179 15.8368 65.097 16.0078 65.002 16.2088C64.889 16.4438 64.762 16.7038 64.619 16.9888C64.473 17.2718 64.333 17.5648 64.197 17.8648L64.193 17.8708L64.191 17.8768C64.063 18.1828 63.948 18.4848 63.848 18.7848L63.846 18.7928L63.844 18.7988C63.747 19.1218 63.694 19.4338 63.694 19.7318C63.694 20.0698 63.776 20.4388 64.094 20.6578L64.111 20.6718L64.131 20.6818C64.378 20.8218 64.647 20.8618 64.937 20.8618C65.274 20.8618 65.614 20.7888 65.949 20.6558L65.955 20.6538C66.2897 20.5223 66.612 20.361 66.918 20.1718C67.232 19.9798 67.541 19.7638 67.844 19.5218L67.848 19.5178L67.852 19.5158C68.145 19.2708 68.417 19.0258 68.672 18.7808L68.678 18.7748C68.735 18.7218 68.781 18.6748 68.82 18.6388L68.902 18.5618L68.942 18.4568C69.122 17.9938 69.356 17.5228 69.648 17.0408C69.987 16.4828 70.386 15.9308 70.848 15.3868C71.304 14.8478 71.794 14.3698 72.32 13.9528L72.324 13.9508C72.8279 13.5541 73.3783 13.2203 73.963 12.9568C74.4804 12.723 75.0412 12.6003 75.609 12.5968C75.78 12.5968 75.931 12.6178 76.069 12.6538H76.074C76.1829 12.6776 76.2855 12.7243 76.375 12.7908L76.391 12.8028L76.406 12.8138C76.4742 12.8592 76.5264 12.925 76.555 13.0018L76.559 13.0118L76.565 13.0218C76.6202 13.1456 76.6462 13.2804 76.641 13.4158C76.641 13.6748 76.611 13.9758 76.549 14.3138C76.49 14.6238 76.395 14.9128 76.262 15.1868C76.1505 15.4266 75.9917 15.6412 75.795 15.8178C75.663 15.9348 75.504 15.9778 75.293 15.9898V15.7498C75.302 15.5798 75.307 15.4168 75.307 15.2638C75.307 15.0458 75.277 14.8418 75.197 14.6478C75.1271 14.4793 75.0019 14.3397 74.842 14.2518C74.6982 14.1784 74.5384 14.1419 74.377 14.1458C74.028 14.1458 73.699 14.2758 73.373 14.4758C73.0462 14.6793 72.743 14.9185 72.469 15.1888L72.467 15.1908L72.463 15.1948C72.177 15.4818 71.897 15.8048 71.627 16.1658C71.358 16.5148 71.116 16.8728 70.897 17.2418L70.894 17.2438V17.2458C70.6914 17.5898 70.5172 17.9496 70.373 18.3218L70.371 18.3278L70.369 18.3338C70.242 18.6938 70.168 19.0178 70.168 19.3298C70.168 19.7788 70.351 20.2198 70.691 20.5038L70.695 20.5058L70.699 20.5098C71.045 20.7868 71.491 20.9048 71.971 20.9048C72.456 20.9048 72.961 20.8248 73.486 20.6698C73.996 20.5198 74.502 20.3318 75.002 20.1018H74.998C75.492 19.8796 75.975 19.6333 76.445 19.3638C76.899 19.1028 77.311 18.8548 77.681 18.6208H77.683C77.758 18.5728 77.797 18.5448 77.857 18.5058L78.017 18.4048L78.07 18.2208C78.181 17.8208 78.328 17.4088 78.514 16.9868L78.516 16.9848V16.9828C78.76 16.4408 79.063 15.9058 79.428 15.3768L79.43 15.3748C79.795 14.8498 80.224 14.3848 80.723 13.9748L80.727 13.9728L80.729 13.9708C81.2349 13.5498 81.8069 13.2153 82.422 12.9808L82.424 12.9778L82.428 12.9758C83.05 12.7258 83.746 12.5978 84.531 12.5978C84.851 12.5978 85.2 12.6378 85.578 12.7258H85.58V12.7278C85.9355 12.8076 86.2741 12.9498 86.58 13.1478C86.87 13.3358 87.104 13.5808 87.297 13.9018L87.301 13.9078L87.305 13.9138C87.483 14.1918 87.585 14.5508 87.585 15.0338C87.585 15.2738 87.55 15.5738 87.479 15.9218C87.409 16.2548 87.303 16.6118 87.159 16.9898L87.053 17.2638L87.24 17.4878C87.382 17.6578 87.565 17.7978 87.776 17.8788C87.962 17.9508 88.16 17.9818 88.356 17.9818C88.649 17.9818 88.939 17.8998 89.225 17.7638C89.505 17.6338 89.782 17.4718 90.061 17.2748C90.3457 17.0738 90.6188 16.8568 90.879 16.6248C91.365 16.1928 91.828 15.7355 92.266 15.2548H92.264C92.438 15.0638 92.577 14.9078 92.697 14.7698L92.863 14.7198L92.959 14.5218C93.0387 14.3563 93.1167 14.19 93.193 14.0228C93.356 13.6748 93.545 13.4488 93.743 13.3108C93.966 13.1538 94.145 13.0998 94.301 13.0998C94.405 13.0998 94.467 13.1198 94.572 13.2198L94.578 13.2248L94.582 13.2308C94.64 13.2818 94.688 13.3558 94.688 13.5878C94.6855 13.8117 94.6336 14.0323 94.536 14.2338L95.381 14.7558C95.55 14.5408 95.816 14.2958 96.18 14.0388L96.184 14.0368L96.186 14.0348C96.5645 13.7599 96.9687 13.5221 97.393 13.3248L97.395 13.3218H97.397C97.8414 13.1071 98.303 12.9298 98.777 12.7918C99.247 12.6598 99.677 12.5978 100.073 12.5978C100.496 12.5978 100.796 12.6958 101.033 12.8728L101.041 12.8768L101.047 12.8808C101.235 13.0108 101.348 13.2168 101.348 13.7008C101.348 13.9948 101.305 14.3078 101.211 14.6408C101.109 14.9981 100.979 15.3469 100.823 15.6838L100.819 15.6868L100.817 15.6928C100.659 16.0536 100.481 16.4052 100.284 16.7458V16.7478L100.282 16.7498C100.085 17.0958 99.889 17.4228 99.694 17.7298C99.494 18.0458 99.308 18.3378 99.137 18.6038L99.135 18.6058L99.133 18.6078C98.9937 18.8269 98.8603 19.0496 98.733 19.2758L98.782 19.2028C98.59 19.4423 98.4853 19.7399 98.485 20.0468C98.485 20.2218 98.548 20.4218 98.67 20.5688C98.836 20.7678 99.09 20.8338 99.285 20.8338C99.383 20.8338 99.474 20.8248 99.569 20.8138L99.596 20.8128L99.623 20.8068C99.81 20.7648 99.958 20.6798 100.113 20.5718L100.003 20.6308C100.564 20.4205 101.11 20.1726 101.637 19.8888C102.181 19.6025 102.714 19.2943 103.233 18.9648L103.237 18.9628L103.239 18.9608C103.744 18.6308 104.209 18.3048 104.631 17.9808H104.633C105.006 17.6954 105.366 17.3928 105.711 17.0738L105.701 17.0858C105.724 17.0649 105.75 17.048 105.778 17.0358L105.795 17.0288C105.815 17.0558 105.832 17.0858 105.832 17.1818C105.832 17.3688 105.767 17.6238 105.602 17.9368L105.6 17.9408L105.598 17.9468C105.457 18.2298 105.219 18.5118 104.865 18.7908C104.865 18.7918 104.865 18.7938 104.863 18.7948C104.328 19.1798 103.831 19.5338 103.379 19.8528L103.377 19.8548L103.375 19.8568C102.939 20.1728 102.485 20.4688 102.02 20.7478H102.024C101.572 21.0158 101.082 21.2708 100.553 21.5118C99.961 21.7681 99.3522 21.984 98.731 22.1578L98.727 22.1598H98.723C98.5159 22.2248 98.3052 22.2775 98.092 22.3178H98.09L98.088 22.3198C97.9349 22.3509 97.7792 22.3676 97.623 22.3698C97.213 22.3698 97.02 22.2698 96.895 22.1298C96.758 21.9548 96.662 21.6888 96.662 21.2638V21.1078L96.688 20.9258L96.69 20.9098V20.8948C96.7148 20.611 96.7812 20.3324 96.887 20.0678V20.0658C97.023 19.7318 97.184 19.3868 97.367 19.0288C97.563 18.6658 97.766 18.3088 97.979 17.9568L97.981 17.9528L97.983 17.9508C98.203 17.5778 98.403 17.2278 98.586 16.9008L98.588 16.8968C98.782 16.5568 98.946 16.2508 99.076 15.9808C99.217 15.6878 99.313 15.4268 99.313 15.1348C99.313 14.9018 99.221 14.6578 99.065 14.4708C98.9748 14.3617 98.8618 14.2737 98.734 14.2128C98.6061 14.152 98.4665 14.1199 98.325 14.1188C97.615 14.1188 96.929 14.3348 96.305 14.7438H96.303L96.301 14.7458C95.701 15.1511 95.155 15.631 94.676 16.1738L94.674 16.1758L94.672 16.1778C94.1783 16.7202 93.7238 17.297 93.312 17.9038C92.91 18.4988 92.557 19.0318 92.25 19.5018L92.244 19.5098L92.24 19.5158C92.039 19.8488 91.85 20.2048 91.68 20.5858V20.5898L91.678 20.5918C91.53 20.9328 91.374 21.2548 91.211 21.5548C91.062 21.8178 90.898 22.0248 90.725 22.1838L90.717 22.1918L90.709 22.1988C90.589 22.3188 90.477 22.3688 90.262 22.3688C90.034 22.3688 89.935 22.3188 89.842 22.2168C89.732 22.0968 89.687 21.9818 89.687 21.7798C89.687 21.7518 89.73 21.5058 89.855 21.1658C89.985 20.8158 90.152 20.4038 90.359 19.9338C90.499 19.6158 90.655 19.2748 90.819 18.9238L90.039 18.3338L90.021 18.3498C89.711 18.6148 89.391 18.8378 89.059 19.0218C88.8472 19.1471 88.611 19.2253 88.3663 19.2512C88.1216 19.2771 87.8743 19.25 87.641 19.1718L87.635 19.1698C87.4343 19.0971 87.2456 18.995 87.075 18.8668L86.646 18.5608L86.361 19.0038C86.0414 19.5013 85.6692 19.9629 85.251 20.3808C84.8422 20.7893 84.3816 21.1423 83.881 21.4308L83.879 21.4338H83.877C83.3681 21.732 82.8216 21.9608 82.252 22.1138L82.246 22.1158H82.242C81.6405 22.288 81.0176 22.3732 80.392 22.3688C80.192 22.3688 79.924 22.3278 79.603 22.2328C79.2949 22.1381 79.0056 21.9905 78.748 21.7968C78.4737 21.5753 78.246 21.3017 78.078 20.9918C77.9663 20.7862 77.8909 20.563 77.855 20.3318L77.722 19.5528L77.076 20.0078C76.871 20.1518 76.66 20.2958 76.433 20.4478C75.92 20.7868 75.363 21.1008 74.763 21.3868H74.761L74.759 21.3888C74.1719 21.6733 73.5617 21.9075 72.935 22.0888L72.931 22.0898H72.927C72.3435 22.272 71.7362 22.3663 71.125 22.3698C70.692 22.3698 70.325 22.2998 70.009 22.1738H70.007C69.7184 22.0596 69.4556 21.889 69.234 21.6718C69.0243 21.4547 68.8616 21.1966 68.756 20.9138C68.7274 20.8391 68.7023 20.763 68.681 20.6858L68.477 19.9378L67.879 20.4338C67.497 20.7518 67.107 21.0428 66.711 21.3038C66.2398 21.6158 65.7378 21.8785 65.213 22.0878C64.731 22.2778 64.256 22.3688 63.777 22.3688C63.092 22.3688 62.623 22.2018 62.281 21.9058C61.975 21.6248 61.789 21.1788 61.785 20.4408L61.781 19.6458L61.066 19.9938C60.963 20.0438 60.866 20.0928 60.776 20.1328H60.773L60.769 20.1348C60.122 20.4098 59.402 20.5488 58.594 20.5488C58.367 20.5488 58.154 20.5088 57.945 20.4278C57.6097 20.2818 57.287 20.1085 56.98 19.9098L56.594 19.6678L56.318 20.0308C55.712 20.8308 55.112 21.4198 54.533 21.8088V21.8108H54.531C53.971 22.1928 53.419 22.3688 52.836 22.3688C52.5707 22.3696 52.3078 22.3187 52.062 22.2188L52.057 22.2168L52.051 22.2128C51.817 22.1269 51.6062 21.988 51.435 21.8068C51.2392 21.5954 51.0855 21.3487 50.982 21.0798C50.8849 20.8065 50.8309 20.5197 50.822 20.2298L50.779 19.3598L50.049 19.8338C49.666 20.0838 49.231 20.3478 48.736 20.6288C48.191 20.9338 47.607 21.2158 46.984 21.4768H46.982C46.377 21.7328 45.743 21.9448 45.08 22.1108H45.074C44.4525 22.2788 43.8118 22.3656 43.168 22.3688C42.659 22.3688 42.228 22.2728 41.855 22.0888C41.4851 21.9057 41.1567 21.6487 40.89 21.3338L40.888 21.3318C40.6158 20.9965 40.408 20.6137 40.275 20.2028C40.1286 19.76 40.0553 19.2962 40.058 18.8298C40.0663 18.4241 40.1396 18.0224 40.275 17.6398V17.6388C40.424 17.1838 40.642 16.7228 40.929 16.2558C41.2343 15.7657 41.5884 15.3077 41.986 14.8888C42.408 14.4398 42.876 14.0468 43.398 13.7048C43.9272 13.3597 44.499 13.0848 45.099 12.8868C45.7382 12.6808 46.4064 12.5785 47.078 12.5838ZM46.305 13.5438C45.8827 13.5418 45.465 13.6305 45.08 13.8038C44.716 13.9711 44.3795 14.1927 44.082 14.4608C43.7898 14.7206 43.5281 15.0128 43.302 15.3318L43.301 15.3358L43.297 15.3398C43.087 15.6498 42.9 15.9598 42.73 16.2698C42.5684 16.5526 42.4225 16.844 42.293 17.1428L42.289 17.1498L42.287 17.1558C42.179 17.4298 42.094 17.6648 42.031 17.8628L41.67 19.0078L42.736 18.4588C43.084 18.2798 43.439 18.0748 43.803 17.8488C44.167 17.6288 44.507 17.4188 44.824 17.2168C45.141 17.0148 45.417 16.8338 45.654 16.6658L45.662 16.6598C45.892 16.5038 46.06 16.3948 46.132 16.3518L46.135 16.3478L46.139 16.3458C46.599 16.0588 46.941 15.7898 47.169 15.4658L47.172 15.4628L47.176 15.4588C47.37 15.1738 47.506 14.8908 47.506 14.5598C47.5046 14.4279 47.4768 14.2977 47.4245 14.1766C47.3721 14.0556 47.2961 13.9462 47.201 13.8548C47.0497 13.7073 46.8585 13.6075 46.651 13.5678C46.5796 13.5527 46.5069 13.545 46.434 13.5448L46.305 13.5438ZM83.787 14.1188C83.255 14.1188 82.733 14.2578 82.248 14.5208C81.7759 14.7757 81.3543 15.1146 81.004 15.5208C80.6487 15.9324 80.3636 16.3997 80.16 16.9038C79.9461 17.4136 79.836 17.961 79.836 18.5138C79.836 18.7208 79.852 18.9428 79.883 19.1798V19.1838C79.918 19.4398 79.99 19.6868 80.096 19.9218L80.102 19.9358L80.107 19.9488C80.238 20.1968 80.427 20.4148 80.658 20.5818C80.938 20.7838 81.281 20.8618 81.638 20.8618C82.165 20.8618 82.681 20.7218 83.158 20.4548L83.16 20.4528C83.63 20.1868 84.048 19.8428 84.408 19.4298L84.41 19.4278L84.412 19.4258C84.772 19.0018 85.06 18.5228 85.27 17.9978C85.561 17.2778 85.6552 16.4933 85.543 15.7248C85.519 15.4628 85.4421 15.2083 85.317 14.9768C85.1882 14.7272 84.9935 14.5176 84.754 14.3708C84.474 14.1878 84.144 14.1188 83.787 14.1188ZM46.305 14.5448H46.434C46.419 14.5448 46.434 14.5448 46.464 14.5508L46.473 14.5528L46.48 14.5548C46.495 14.5568 46.496 14.5588 46.504 14.5668C46.4741 14.6838 46.4218 14.7938 46.35 14.8908C46.254 15.0248 46.009 15.2478 45.617 15.4918C45.5 15.5618 45.333 15.6738 45.092 15.8378L45.088 15.8418L45.084 15.8438C44.864 15.9988 44.6 16.1758 44.289 16.3738C44.068 16.5138 43.818 16.6658 43.572 16.8168L43.604 16.7558L43.606 16.7538V16.7498C43.759 16.4698 43.93 16.1898 44.119 15.9098L44.123 15.9058L44.125 15.9018C44.3053 15.6476 44.5136 15.4145 44.746 15.2068C44.979 14.9988 45.227 14.8368 45.494 14.7148C45.744 14.6018 46.008 14.5448 46.304 14.5448H46.305ZM83.787 15.1188C84.019 15.1188 84.149 15.1658 84.211 15.2068L84.219 15.2128L84.229 15.2168C84.3153 15.2647 84.3848 15.338 84.428 15.4268L84.434 15.4368L84.438 15.4468C84.5011 15.5632 84.5386 15.6918 84.548 15.8238L84.551 15.8378L84.553 15.8498C84.644 16.4505 84.5704 17.0647 84.34 17.6268C84.168 18.0558 83.94 18.4348 83.65 18.7748V18.7768C83.3711 19.0981 83.0398 19.3696 82.67 19.5798C82.3569 19.7623 82.0013 19.8592 81.639 19.8608C81.424 19.8608 81.309 19.8158 81.244 19.7698C81.1416 19.6971 81.058 19.6012 81 19.4898C80.9383 19.3496 80.8962 19.2015 80.875 19.0498V19.0468C80.849 18.8468 80.835 18.6668 80.835 18.5138C80.835 18.0908 80.915 17.6868 81.082 17.2868H81.084V17.2848C81.246 16.8811 81.4737 16.5071 81.758 16.1778C82.045 15.8478 82.365 15.5948 82.721 15.4038L82.723 15.4018H82.725C83.0487 15.2177 83.4145 15.1202 83.787 15.1188Z" fill="#60BE86"/>
</svg>
