<svg width="128" height="128" viewBox="0 0 128 128" fill="none" xmlns="http://www.w3.org/2000/svg">
<path d="M17.5732 85.916C16.1862 84.946 14.3612 84.422 12.3182 84.422H7.86523V98.993H12.3182C14.3612 98.993 16.1132 98.47 17.5732 97.424C18.3762 96.826 18.9602 96.079 19.3982 95.108C19.8362 94.136 20.0552 92.941 20.0552 91.67C20.0552 90.4 19.8352 89.204 19.3982 88.308C18.9602 87.187 18.3762 86.44 17.5732 85.916ZM10.4932 86.888H11.8802C13.4132 86.888 14.7262 87.187 15.7482 87.859C16.8432 88.532 17.3542 89.802 17.3542 91.67C17.3542 93.538 16.7702 94.884 15.7482 95.63C14.7992 96.229 13.5582 96.602 11.9532 96.602H10.4932V86.888ZM23.1932 84.198C22.7552 84.198 22.3902 84.348 22.0982 84.646C21.7332 84.946 21.5882 85.319 21.5882 85.767C21.5882 86.215 21.7332 86.589 22.0252 86.887C22.3172 87.187 22.6822 87.337 23.1202 87.337C23.5582 87.337 23.9232 87.187 24.2152 86.887C24.5072 86.589 24.6532 86.215 24.6532 85.767C24.6532 85.319 24.5072 84.945 24.2152 84.647C23.9962 84.347 23.6312 84.197 23.1932 84.197V84.198ZM21.8802 88.68H24.4352V98.92H21.8802V88.68ZM33.5592 89.577C32.8292 88.904 31.9532 88.457 31.0042 88.457C29.6172 88.457 28.4502 88.979 27.5742 89.951C26.6982 90.922 26.1872 92.118 26.1872 93.612C26.1872 95.032 26.6252 96.302 27.5012 97.274C28.3772 98.245 29.5442 98.694 30.9312 98.694C31.8812 98.694 32.7562 98.394 33.4132 97.872V98.096C33.4132 98.918 33.1932 99.59 32.7562 100.039C32.3182 100.487 31.7342 100.711 30.9312 100.711C29.7632 100.711 29.0332 100.263 28.1582 98.992L26.4062 100.712L26.4792 100.786C26.8442 101.309 27.4282 101.832 28.1582 102.355C28.8882 102.878 29.8362 103.102 30.9312 103.102C32.4642 103.102 33.6312 102.654 34.5082 101.682C35.3842 100.712 35.8952 99.515 35.8952 97.946V88.68H33.4132V89.577H33.5592ZM32.9022 95.63C32.4642 96.153 31.8802 96.377 31.1502 96.377C30.4202 96.377 29.8362 96.153 29.3982 95.63C28.9602 95.107 28.7422 94.434 28.7422 93.612C28.7422 92.79 28.9602 92.118 29.3982 91.595C29.8362 91.072 30.4202 90.847 31.1502 90.847C31.8802 90.847 32.4642 91.072 32.9022 91.595C33.3402 92.118 33.5592 92.79 33.5592 93.612C33.5592 94.434 33.3392 95.107 32.9022 95.63ZM38.2302 88.68H40.7852V98.92H38.2302V88.68ZM39.4712 84.197C39.0332 84.197 38.6682 84.347 38.3762 84.645C38.0842 84.945 37.9382 85.318 37.9382 85.766C37.9382 86.214 38.0842 86.588 38.3762 86.886C38.6682 87.186 39.0332 87.336 39.4712 87.336C39.9092 87.336 40.2742 87.186 40.5662 86.886C40.8582 86.588 41.0042 86.214 41.0042 85.766C41.0042 85.318 40.8582 84.944 40.5662 84.646C40.425 84.4991 40.2546 84.3832 40.0661 84.3057C39.8776 84.2282 39.675 84.1909 39.4712 84.196V84.197ZM46.2592 85.915H43.7772V88.68H42.3172V90.997H43.7772V95.257C43.7772 96.601 44.0692 97.573 44.5802 98.096C45.0912 98.619 46.0402 98.918 47.2812 98.918C47.7192 98.918 48.0842 98.918 48.5212 98.843H48.6682V96.526L47.7922 96.601C47.2082 96.601 46.7702 96.526 46.6242 96.302C46.4052 96.078 46.3322 95.63 46.3322 94.957V91.072H48.6682V88.755H46.3302V85.915H46.2572H46.2592ZM60.4192 84.421H62.9742V98.992H60.4192V84.422V84.421ZM88.4472 95.331C88.0752 95.7701 87.6597 96.1704 87.2072 96.526C86.813 96.7714 86.3576 96.901 85.8932 96.9C85.1632 96.9 84.5792 96.601 84.0682 96.078C83.5582 95.48 83.3382 94.808 83.3382 93.911C83.3382 93.014 83.5582 92.341 84.0682 91.744C84.5782 91.146 85.1632 90.922 85.8932 90.922C86.6962 90.922 87.5722 91.445 88.3012 92.342L89.9812 90.698C88.8852 89.278 87.4992 88.606 85.8202 88.606C84.4332 88.606 83.2652 89.129 82.2432 90.175C81.2942 91.221 80.7832 92.491 80.7832 93.985C80.7832 95.48 81.2942 96.825 82.2432 97.797C83.1932 98.843 84.4332 99.366 85.8202 99.366C87.6452 99.366 89.1042 98.544 90.1262 97.05L88.4472 95.33V95.331ZM98.7392 90.175C98.3742 89.652 97.8632 89.278 97.2792 88.979C96.6952 88.68 95.9652 88.531 95.1632 88.531C93.7762 88.531 92.6082 89.054 91.7322 90.101C90.9292 91.146 90.4922 92.417 90.4922 93.911C90.4922 95.481 90.9292 96.751 91.8782 97.722C92.8272 98.694 93.9952 99.217 95.5282 99.217C97.2062 99.217 98.5932 98.544 99.6882 97.124L99.7612 97.05L98.0822 95.406C97.9362 95.63 97.7172 95.779 97.4982 96.003C97.2792 96.228 96.9882 96.452 96.7682 96.526C96.4032 96.751 95.9652 96.826 95.5282 96.826C94.7982 96.826 94.2872 96.601 93.7762 96.228C93.3382 95.854 93.1192 95.331 93.0462 94.658H99.7612V93.687C99.7612 93.014 99.6882 92.342 99.4692 91.744C99.3962 91.221 99.1042 90.624 98.7392 90.174V90.175ZM93.2652 92.566C93.4112 92.043 93.6302 91.669 93.9222 91.37C94.2872 90.997 94.7252 90.847 95.2352 90.847C95.8192 90.847 96.3302 90.997 96.6222 91.37C96.9142 91.67 97.0602 92.118 97.1332 92.566H93.2652ZM108.447 89.502C107.717 88.83 106.622 88.531 105.308 88.531C104.505 88.531 103.702 88.755 102.972 89.054C102.316 89.428 101.659 89.951 101.294 90.698L102.899 92.268C103.556 91.146 104.286 90.773 105.309 90.773C105.819 90.773 106.257 90.923 106.622 91.221C106.987 91.52 107.132 91.894 107.132 92.341V92.865C106.546 92.6626 105.929 92.5615 105.308 92.566C104.068 92.566 103.045 92.865 102.243 93.463C101.44 94.061 101.075 94.957 101.075 96.003C101.075 96.975 101.367 97.723 102.024 98.32C102.68 98.918 103.484 99.142 104.432 99.142C105.382 99.142 106.257 98.768 107.132 98.096V98.918H109.615V92.342C109.615 91.146 109.25 90.175 108.447 89.502ZM103.994 95.032C104.286 94.808 104.651 94.733 105.162 94.733C105.746 94.733 106.403 94.883 107.06 95.107V96.078C106.476 96.601 105.746 96.9 104.87 96.9C104.432 96.9 104.067 96.825 103.848 96.601C103.629 96.377 103.483 96.153 103.483 95.854C103.556 95.48 103.703 95.256 103.994 95.032ZM119.322 89.652C118.592 88.83 117.643 88.456 116.402 88.456C115.381 88.456 114.578 88.755 113.994 89.353V88.755H111.512V98.992H114.067V93.313C114.067 92.566 114.213 91.893 114.577 91.445C114.943 90.997 115.454 90.773 116.037 90.773C116.622 90.773 117.06 90.997 117.351 91.37C117.643 91.744 117.862 92.342 117.862 93.014V98.992H120.417V93.014C120.344 91.594 119.979 90.474 119.322 89.652ZM57.2812 89.502C56.5512 88.83 55.4562 88.531 54.1422 88.531C53.3392 88.531 52.5362 88.755 51.8062 89.054C51.1492 89.428 50.4932 89.951 50.1282 90.698L51.7332 92.268C52.3902 91.146 53.1202 90.773 54.1432 90.773C54.6532 90.773 55.0912 90.923 55.4562 91.221C55.8212 91.52 55.9662 91.894 55.9662 92.341V92.865C55.3796 92.6626 54.7628 92.5615 54.1422 92.566C52.9022 92.566 51.8792 92.865 51.0762 93.463C50.2742 94.061 49.9092 94.957 49.9092 96.003C49.9092 96.975 50.2012 97.723 50.8582 98.32C51.5142 98.918 52.3182 99.142 53.2662 99.142C54.2162 99.142 55.0912 98.768 55.9662 98.096V98.918H58.4482V92.342C58.4482 91.146 58.0112 90.175 57.2812 89.502ZM52.7552 95.032C53.0472 94.808 53.4122 94.733 53.9232 94.733C54.5072 94.733 55.1632 94.883 55.8212 95.107V96.078C55.2372 96.601 54.5072 96.9 53.6312 96.9C53.1932 96.9 52.8282 96.825 52.6092 96.601C52.3902 96.377 52.2442 96.153 52.2442 95.854C52.3902 95.48 52.5362 95.256 52.7552 95.032ZM72.0982 99.217C68.0832 99.217 64.7982 95.854 64.7982 91.744C64.7982 87.634 68.0832 84.272 72.0982 84.272C76.1122 84.272 79.3972 87.634 79.3972 91.744C79.3972 95.854 76.1122 99.217 72.0972 99.217H72.0982ZM72.0982 86.812C69.4702 86.812 67.3532 88.979 67.3532 91.669C67.3532 94.359 69.4702 96.526 72.0982 96.526C74.7252 96.526 76.8422 94.359 76.8422 91.669C76.8422 88.979 74.7252 86.812 72.0982 86.812ZM63.4372 68.866V60.003C72.7302 60.003 79.8992 50.737 76.3142 40.934C74.9872 37.309 72.1992 34.354 68.4812 33.011C58.9232 29.52 49.7622 36.771 49.7622 46.037H41.0002C41.0002 31.266 55.2052 19.583 70.7382 24.417C77.5092 26.566 82.8202 31.937 84.9442 38.786C89.7242 54.497 78.1732 68.866 63.4372 68.866Z" fill="black"/>
<path d="M63.5703 60.0034H54.8073V51.2744H63.5693V60.0034H63.5703ZM54.8073 66.8514H48.1703V60.0034H54.8083V66.8514H54.8073ZM48.1693 60.0034H42.5933V54.3634H48.1693V60.0034Z" fill="black"/>
</svg>
