<svg width="128" height="128" viewBox="0 0 128 128" fill="none" xmlns="http://www.w3.org/2000/svg">
<path fill-rule="evenodd" clip-rule="evenodd" d="M21.6019 38.4725C21.5469 38.5275 21.5039 47.2025 21.5039 57.7535V76.9415L30.3679 76.8985C40.7859 76.8485 41.6919 76.7505 44.7509 75.3245L45.4029 75.0195L45.4849 74.1175C45.8639 70.0435 49.1919 66.7895 53.1059 66.6725C54.0079 66.6445 53.9579 66.6955 54.5859 65.1255C55.9259 61.7575 56.2269 56.0475 55.2899 51.9025C53.6099 44.4995 48.3479 39.7815 40.5129 38.6485C39.3329 38.4805 21.7549 38.3165 21.6029 38.4725M61.6969 56.9415V75.4885L61.3879 76.6875C59.8799 82.5665 52.9039 84.8005 48.2939 80.8785C48.0989 80.7105 47.6569 80.2505 47.3139 79.8485L46.6889 79.1215L45.9689 79.4455C44.4039 80.1525 40.8879 81.1525 39.9779 81.1525C38.7709 81.1525 41.3249 85.1285 43.8329 87.1525C46.9819 89.6955 49.5479 90.5545 53.9539 90.5505C62.0599 90.5395 67.3559 86.6285 69.5519 79.0385C70.2789 76.5235 70.2789 76.4765 70.2439 56.6405L70.2079 38.4645L61.6969 38.3945V56.9415ZM92.9939 38.4885C83.7909 38.9655 77.5059 44.6955 77.5059 52.6095C77.5059 58.9415 80.4709 62.8435 87.6819 66.0115C88.5609 66.3985 90.0019 67.0315 90.8809 67.4215C92.9079 68.3165 93.3149 68.4915 94.3379 68.9295C100.822 71.6955 102.275 73.0545 102.275 76.3705C102.275 84.2965 89.7669 85.3205 81.1659 78.0935C80.6459 77.6565 80.1819 77.3435 80.1309 77.4025L76.2249 82.0315C76.0149 82.2815 75.7129 82.6285 75.5529 82.7965C75.1199 83.2695 75.1739 83.3705 76.4329 84.4415C85.1779 91.8825 98.6389 92.7655 106.307 86.4015C111.518 82.0775 112.842 73.8865 109.237 68.2655C107.823 66.0585 104.811 63.6515 102.147 62.5975C101.901 62.4995 101.635 62.3745 101.561 62.3155C101.483 62.2575 101.194 62.1285 100.921 62.0265C100.386 61.8201 99.8564 61.6027 99.3309 61.3745C98.2559 60.9095 97.4709 60.5775 96.0339 59.9845C95.6309 59.8155 94.8659 59.4955 94.3379 59.2685C93.8674 59.0681 93.3937 58.8754 92.9169 58.6905C88.6349 57.0975 86.4629 55.0225 86.3029 52.3665C85.9199 46.0815 94.9519 43.9685 102.658 48.5465C102.904 48.6945 103.548 49.1475 104.096 49.5585C104.639 49.9685 105.126 50.3005 105.182 50.2965C105.272 50.2885 108.467 46.4015 109.354 45.2185L109.713 44.7415L109.096 44.1915C107.924 43.1405 105.971 41.7495 104.866 41.1755C103.979 40.7145 103.725 40.5895 103.143 40.3315C100.146 38.9915 96.3929 38.3115 92.9949 38.4875M38.3269 46.7265C43.2479 47.4095 45.9549 50.9645 46.1699 57.0235C46.3849 63.1875 43.6469 67.4415 38.7879 68.4965C37.5339 68.7695 31.6819 69.0035 30.9199 68.8125L30.5959 68.7305V57.7465C30.5959 51.7065 30.6309 46.7235 30.6779 46.6765C30.8179 46.5395 37.2719 46.5825 38.3269 46.7265ZM51.9469 70.0005C46.6969 72.1175 47.9669 79.6995 53.5689 79.6765C58.9749 79.6525 60.5329 72.5115 55.6429 70.1685C54.7249 69.7265 52.8339 69.6405 51.9479 70.0005" fill="white"/>
</svg>
