<svg width="128" height="128" viewBox="0 0 128 128" fill="none" xmlns="http://www.w3.org/2000/svg">
<path d="M0.5 52.8318V70.9228L3.528 70.9158C6.176 70.9078 6.598 70.9048 6.879 70.8748C7.817 70.7778 8.465 70.6498 9.203 70.4188C10.093 70.1452 10.9275 69.7162 11.668 69.1518C12.0483 68.8454 12.4026 68.5079 12.727 68.1428C13.5 67.2128 14.012 66.1848 14.348 64.8888C14.84 63.0018 14.828 60.5058 14.328 58.6338C13.461 55.4098 11.102 53.4518 7.485 52.9508C6.676 52.8428 6.766 52.8458 3.52 52.8348L0.5 52.8318ZM3.848 55.4248H4.715C5.864 55.4248 6.345 55.4578 6.965 55.5748C9.161 55.9928 10.528 57.3228 11.043 59.5348C11.313 60.6848 11.352 62.3218 11.137 63.5808C10.985 64.4968 10.692 65.3218 10.293 65.9648C10.0024 66.4132 9.64573 66.8151 9.235 67.1568C8.43 67.7848 7.407 68.1578 6.141 68.2768C5.946 68.2968 5.469 68.3148 4.841 68.3228L3.848 68.3328V55.4258V55.4248ZM18.453 61.8738V52.8318H21.801V70.9188H18.453V61.8738ZM31.403 71.2368C29.4069 71.122 27.4911 70.4114 25.903 69.1968C25.583 68.9498 25.219 68.6289 25.219 68.5919C25.219 68.5799 25.649 68.0838 26.172 67.4888L27.122 66.4128L27.203 66.4768C27.575 66.7798 27.673 66.8579 27.817 66.9669C28.828 67.6989 29.965 68.1838 31.121 68.3788C31.504 68.4418 32.254 68.4688 32.661 68.4268C33.528 68.3448 34.215 68.0838 34.672 67.6688C34.883 67.4748 35.004 67.3208 35.122 67.0818C35.485 66.3538 35.395 65.4488 34.907 64.8668C34.567 64.4628 33.969 64.1118 32.856 63.6598C31.6307 63.1568 30.4107 62.6411 29.196 62.1128C27.414 61.2458 26.395 60.0318 26.098 58.4248C26.0394 57.984 26.026 57.5384 26.058 57.0948C26.211 55.6528 27.063 54.3708 28.407 53.5378C29.277 52.9998 30.247 52.6748 31.422 52.5398C32.0302 52.4881 32.6416 52.4867 33.25 52.5358C34.793 52.7228 36.196 53.2608 37.387 54.1318C37.774 54.4198 38.168 54.7598 38.153 54.8008C38.149 54.8108 37.763 55.2708 37.293 55.8278L36.442 56.8368L36.368 56.7768C36.2544 56.6877 36.1383 56.6017 36.02 56.5188C35.102 55.8508 34.18 55.4728 33.106 55.3308C32.739 55.2828 31.976 55.2828 31.649 55.3308C30.907 55.4398 30.375 55.6668 29.985 56.0408C29.8091 56.2024 29.6678 56.398 29.5699 56.6158C29.4719 56.8336 29.4192 57.0691 29.415 57.3078C29.387 57.8348 29.547 58.2718 29.915 58.6488C30.285 59.0338 30.855 59.3478 31.981 59.7918C32.649 60.0578 34.832 60.9398 35.129 61.0668C36.106 61.4808 36.805 61.9188 37.387 62.4828C38.297 63.3648 38.735 64.4478 38.735 65.8338C38.739 66.7238 38.575 67.4068 38.18 68.1508C37.9186 68.6491 37.5708 69.097 37.153 69.4738C36.083 70.4738 34.606 71.0688 32.813 71.2178C32.3437 71.2505 31.873 71.2572 31.403 71.2378V71.2368ZM49.118 71.2368C47.024 71.1208 45.164 70.3468 43.774 69.0138C42.567 67.8558 41.739 66.2898 41.356 64.4478C41.0721 63.0124 41.0339 61.5391 41.243 60.0908C41.516 58.2638 42.231 56.6238 43.305 55.3648C43.539 55.0878 44.047 54.5948 44.328 54.3628C45.465 53.4368 46.84 52.8348 48.36 52.6028C48.895 52.5208 49.149 52.5028 49.77 52.5028C50.371 52.5028 50.567 52.5178 51.028 52.5928C52.493 52.8348 53.942 53.5788 55.036 54.6428L55.18 54.7818L55.118 54.8528C55.086 54.8898 54.672 55.3388 54.2 55.8468L53.34 56.7768L53.13 56.5938C52.278 55.8618 51.48 55.4768 50.512 55.3308C50.08 55.2861 49.6447 55.2824 49.212 55.3198C48.129 55.4618 47.239 55.8728 46.485 56.5748C45.137 57.8308 44.45 59.8708 44.555 62.3028C44.61 63.6108 44.848 64.6798 45.285 65.6028C45.911 66.9178 46.895 67.8148 48.153 68.2178C48.664 68.3818 49.121 68.4458 49.735 68.4458C50.688 68.4458 51.469 68.2558 52.243 67.8288C52.7232 67.5476 53.1654 67.2062 53.559 66.8129C53.605 66.7605 53.6574 66.7141 53.715 66.6749C54.3348 67.3189 54.9455 67.9716 55.547 68.6329C55.547 68.6729 54.68 69.4768 54.427 69.6718C52.907 70.8298 51.153 71.3488 49.117 71.2368H49.118ZM65.036 52.5028C64.309 52.5028 64.047 52.5208 63.469 52.6108C59.559 53.2388 57.051 56.2508 56.711 60.7378C56.653 61.5108 56.664 62.4148 56.743 63.1998C56.938 65.1318 57.571 66.8768 58.563 68.1958C59.746 69.7758 61.457 70.7958 63.477 71.1288C63.777 71.1768 64.317 71.2369 64.587 71.2449C67.645 71.3598 70.149 70.1459 71.715 67.7849C71.942 67.4449 72.317 66.7268 72.481 66.3348C73.047 64.9368 73.301 63.5548 73.301 61.8178C73.305 60.9098 73.262 60.3528 73.137 59.6128C72.489 55.7608 70.11 53.2128 66.606 52.6228C66.028 52.5248 65.746 52.5028 65.036 52.5028ZM65.004 55.2858C65.063 55.2858 65.121 55.2898 65.18 55.2898C66.203 55.3308 67.078 55.6558 67.828 56.2728C68.098 56.4968 68.25 56.6528 68.481 56.9488C69.336 58.0328 69.786 59.4588 69.868 61.3208C69.961 63.5138 69.453 65.4708 68.461 66.7528C67.754 67.6648 66.868 68.1989 65.743 68.3969C65.52 68.4389 64.683 68.4528 64.453 68.4268C62.899 68.2258 61.719 67.3468 60.95 65.8228C60.442 64.8218 60.18 63.6928 60.121 62.2658C59.996 59.3558 60.907 57.0308 62.586 55.9658C63.3101 55.512 64.1495 55.2759 65.004 55.2858ZM77.036 52.8318V70.9188H80.383V63.8388L81.809 63.8458L83.239 63.8498L85.266 67.3848L87.289 70.9188H89.169C90.949 70.9188 91.043 70.9188 91.024 70.8858C91.012 70.8668 90.004 69.1668 88.778 67.1118C88.035 65.8672 87.2953 64.6205 86.559 63.3718C86.6409 63.3361 86.7244 63.3037 86.809 63.2748C88.739 62.5568 89.911 61.2048 90.231 59.3178C90.301 58.8878 90.321 58.5818 90.309 58.0058C90.289 57.2258 90.215 56.7658 90 56.1528C89.383 54.3898 87.786 53.2988 85.325 52.9508C84.524 52.8388 84.727 52.8428 80.731 52.8348L77.036 52.8318ZM80.383 55.4018L82.133 55.4098C84.028 55.4168 84.113 55.4198 84.703 55.5368C85.192 55.6298 85.649 55.7978 85.973 56.0068C86.286 56.2058 86.59 56.5488 86.75 56.8888C87.055 57.5238 87.09 58.5368 86.84 59.2918C86.7166 59.6857 86.4934 60.0409 86.192 60.3228C85.618 60.8728 84.805 61.1748 83.657 61.2678C83.504 61.2798 82.754 61.2868 81.887 61.2868H80.383V55.4018ZM94.223 52.8318V70.9228L97.25 70.9158C100.508 70.9078 100.434 70.9079 101.223 70.7999C101.999 70.6946 102.761 70.5 103.493 70.2198C103.852 70.0788 103.953 70.0258 103.938 69.9898C103.917 69.9297 103.901 69.8682 103.888 69.8058C103.813 69.5328 103.793 69.3388 103.808 68.9878C103.821 68.6248 103.856 68.4458 103.969 68.1398C104.332 67.1498 105.231 66.4318 106.317 66.2598C106.657 66.2078 107.125 66.2228 107.516 66.3048C107.59 66.3198 107.578 66.3388 107.75 65.9048C108.313 64.4548 108.543 62.5198 108.383 60.5998C108.086 57.0458 106.403 54.6208 103.457 53.5118C102.73 53.2405 101.974 53.0536 101.204 52.9548C100.399 52.8428 100.489 52.8458 97.239 52.8388L94.223 52.8318ZM97.567 55.4248H98.434C99.586 55.4248 100.063 55.4578 100.684 55.5748C102.884 55.9928 104.25 57.3228 104.766 59.5348C105.032 60.6848 105.071 62.3218 104.86 63.5808C104.707 64.4968 104.414 65.3218 104.012 65.9648C103.762 66.3688 103.312 66.8768 102.954 67.1568C102.153 67.7848 101.125 68.1578 99.864 68.2768C99.664 68.2968 99.192 68.3148 98.559 68.3228L97.567 68.3328V55.4258V55.4248Z" fill="#2A2C3E" stroke="black"/>
<path d="M109.399 69.0996C109.399 70.4816 108.231 71.5996 106.793 71.5996C105.352 71.5996 104.184 70.4816 104.184 69.0996C104.184 67.7166 105.352 66.5996 106.794 66.5996C108.231 66.5996 109.399 67.7166 109.399 69.0996Z" fill="#2A2C3E" stroke="black"/>
<path d="M106.43 74.4883C105.222 74.3898 104.073 73.9212 103.141 73.1463C102.567 72.6723 102.078 72.0483 101.813 71.4503C101.7 71.1923 101.692 71.1323 101.766 71.1253C101.934 71.1063 102.555 70.9833 102.871 70.9083C103.293 70.8083 103.493 70.7443 103.871 70.5833C104.125 70.4833 104.141 70.4753 104.164 70.5133C104.469 71.0203 104.926 71.4313 105.469 71.6893C105.919 71.8993 106.293 71.9813 106.793 71.9813C107.273 71.9813 107.661 71.8983 108.075 71.7083C108.441 71.5469 108.771 71.3117 109.042 71.0173C109.314 70.7229 109.522 70.3756 109.653 69.9973C109.703 69.8583 109.809 69.3653 109.848 69.1043C109.907 68.6893 109.911 68.3043 109.911 62.2103V55.9403H113.153V62.2883C113.153 66.4693 113.145 68.7343 113.129 68.9173C113.039 70.1123 112.672 71.2113 112.071 72.0973C111.856 72.4173 111.606 72.7118 111.325 72.9753C110.407 73.8493 109.215 74.3533 107.801 74.4693C107.431 74.4993 106.691 74.5103 106.431 74.4883H106.43ZM120.032 74.4703C117.872 74.3053 115.832 73.4573 114.242 72.0633L114.004 71.8533L114.102 71.7423C114.157 71.6783 114.59 71.1893 115.059 70.6543L115.919 69.6833L116.149 69.8773C117.289 70.8273 118.645 71.4543 120.012 71.6633C120.411 71.7233 121.274 71.7273 121.652 71.6713C122.817 71.4993 123.562 71.0543 123.926 70.3183C124.047 70.0753 124.106 69.8183 124.121 69.4923C124.157 68.4573 123.703 67.8593 122.43 67.2623C122.215 67.1613 121.895 67.0193 121.723 66.9523C120.483 66.44 119.247 65.918 118.016 65.3863C116.25 64.5383 115.184 63.2753 114.911 61.7163C114.399 58.7913 116.575 56.3063 120.043 55.8543C120.889 55.7491 121.746 55.7694 122.586 55.9143C124.168 56.1943 125.606 56.8823 126.782 57.9323L126.934 58.0663L126.11 59.0463C125.657 59.5793 125.266 60.0393 125.246 60.0583C125.207 60.0953 125.207 60.0953 125.098 60.0093C124.545 59.5686 123.931 59.2114 123.274 58.9493C122.601 58.6891 121.885 58.5595 121.164 58.5673C120.578 58.5673 120.223 58.6123 119.801 58.7393C118.969 58.9933 118.441 59.4823 118.251 60.1813C118.18 60.4433 118.172 60.8543 118.231 61.0963C118.387 61.7433 118.851 62.2063 119.801 62.6623C120.118 62.8153 120.301 62.8943 120.903 63.1323C123.513 64.1643 124.513 64.5943 125.032 64.9043C126.492 65.7823 127.242 66.8543 127.462 68.3863C127.508 68.7003 127.512 69.4853 127.473 69.7653C127.309 70.9053 126.825 71.8573 126.004 72.6453C124.894 73.7223 123.379 74.3273 121.457 74.4693C120.982 74.4935 120.507 74.4935 120.032 74.4693V74.4703Z" fill="#2A2C3E" stroke="black"/>
</svg>
