<svg width="128" height="128" viewBox="0 0 128 128" fill="none" xmlns="http://www.w3.org/2000/svg">
<path d="M0.5 50.3633V70.0993L3.528 70.0913C6.176 70.0833 6.598 70.0793 6.879 70.0463C7.817 69.9403 8.465 69.8023 9.203 69.5493C10.1031 69.2451 10.9389 68.7765 11.668 68.1673C12.0509 67.8306 12.4051 67.4627 12.727 67.0673C13.5 66.0523 14.012 64.9313 14.348 63.5173C14.84 61.4573 14.828 58.7353 14.328 56.6933C13.461 53.1753 11.102 51.0393 7.485 50.4933C6.676 50.3753 6.766 50.3793 3.52 50.3673L0.5 50.3633ZM3.848 53.1923H4.715C5.864 53.1923 6.345 53.2283 6.965 53.3553C9.161 53.8113 10.528 55.2623 11.043 57.6753C11.313 58.9313 11.352 60.7163 11.137 62.0903C10.985 63.0883 10.692 63.9903 10.293 64.6903C10.0069 65.1739 9.65034 65.612 9.235 65.9903C8.43 66.6753 7.407 67.0833 6.141 67.2133C5.946 67.2333 5.469 67.2543 4.841 67.2633L3.848 67.2743V53.1913V53.1923ZM18.453 60.2273V50.3633H21.801V70.0953H18.453V60.2273ZM31.403 70.4423C29.3792 70.3057 27.4521 69.5258 25.903 68.2163C25.583 67.9473 25.219 67.5963 25.219 67.5563C25.219 67.5433 25.649 67.0013 26.172 66.3533L27.122 65.1793L27.203 65.2493C27.575 65.5793 27.673 65.6643 27.817 65.7833C28.828 66.5813 29.965 67.1113 31.121 67.3233C31.504 67.3933 32.254 67.4213 32.661 67.3763C33.528 67.2863 34.215 67.0013 34.672 66.5493C34.883 66.3373 35.004 66.1693 35.122 65.9093C35.485 65.1143 35.395 64.1283 34.907 63.4923C34.567 63.0523 33.969 62.6683 32.856 62.1753C31.989 61.7923 29.446 60.6183 29.196 60.4883C27.414 59.5423 26.395 58.2183 26.098 56.4653C26.0394 55.984 26.026 55.4982 26.058 55.0143C26.211 53.4403 27.063 52.0423 28.407 51.1343C29.277 50.5463 30.247 50.1923 31.422 50.0443C31.848 49.9883 32.828 49.9883 33.25 50.0413C34.7626 50.2306 36.1939 50.8326 37.387 51.7813C37.774 52.0953 38.168 52.4663 38.153 52.5113C38.149 52.5233 37.763 53.0243 37.293 53.6313L36.442 54.7323L36.368 54.6673C36.2546 54.5704 36.1386 54.4767 36.02 54.3863C35.102 53.6563 34.18 53.2453 33.106 53.0903C32.739 53.0373 31.976 53.0373 31.649 53.0903C30.907 53.2083 30.375 53.4563 29.985 53.8643C29.621 54.2443 29.438 54.6793 29.415 55.2463C29.387 55.8213 29.547 56.2983 29.915 56.7093C30.285 57.1293 30.855 57.4713 31.981 57.9563C32.649 58.2463 34.832 59.2083 35.129 59.3463C36.106 59.7993 36.805 60.2763 37.387 60.8913C38.297 61.8533 38.735 63.0353 38.735 64.5483C38.739 65.5183 38.575 66.2643 38.18 67.0753C37.9234 67.6119 37.5759 68.1001 37.153 68.5183C36.083 69.6103 34.606 70.2583 32.813 70.4213C32.45 70.4543 31.739 70.4663 31.403 70.4413V70.4423ZM49.118 70.4423C47.024 70.3153 45.164 69.4723 43.774 68.0163C42.567 66.7533 41.739 65.0453 41.356 63.0363C41.0721 61.4674 41.034 59.8639 41.243 58.2833C41.516 56.2893 42.231 54.5003 43.305 53.1263C43.539 52.8253 44.047 52.2863 44.328 52.0343C45.4621 51.0239 46.8608 50.3579 48.36 50.1143C48.895 50.0243 49.149 50.0043 49.77 50.0043C50.371 50.0043 50.567 50.0203 51.028 50.1023C52.493 50.3673 53.942 51.1783 55.036 52.3403L55.18 52.4903L55.118 52.5683C55.086 52.6083 54.672 53.0983 54.2 53.6523L53.34 54.6673L53.13 54.4673C52.278 53.6683 51.48 53.2493 50.512 53.0903C50.227 53.0403 49.504 53.0373 49.212 53.0773C48.129 53.2323 47.239 53.6813 46.485 54.4473C45.137 55.8173 44.45 58.0423 44.555 60.6963C44.61 62.1223 44.848 63.2883 45.285 64.2953C45.911 65.7303 46.895 66.7083 48.153 67.1483C48.664 67.3283 49.121 67.3973 49.735 67.3973C50.688 67.3973 51.469 67.1893 52.243 66.7243C52.649 66.4803 53.196 66.0193 53.559 65.6153C53.6044 65.5589 53.6569 65.5085 53.715 65.4653C53.743 65.4773 55.547 67.5803 55.547 67.6003C55.547 67.6453 54.68 68.5223 54.427 68.7343C52.907 69.9973 51.153 70.5643 49.117 70.4423H49.118ZM65.036 50.0043C64.309 50.0043 64.047 50.0243 63.469 50.1223C59.559 50.8073 57.051 54.0923 56.711 58.9883C56.653 59.8313 56.664 60.8183 56.743 61.6743C56.938 63.7813 57.571 65.6843 58.563 67.1243C59.746 68.8483 61.457 69.9613 63.477 70.3243C63.777 70.3763 64.317 70.4423 64.587 70.4503C67.645 70.5763 70.149 69.2513 71.715 66.6753C72.0065 66.1667 72.2625 65.6384 72.481 65.0943C73.047 63.5693 73.301 62.0613 73.301 60.1663C73.305 59.1763 73.262 58.5683 73.137 57.7613C72.489 53.5583 70.11 50.7783 66.606 50.1343C66.028 50.0283 65.746 50.0043 65.036 50.0043ZM65.004 53.0413C65.063 53.0413 65.121 53.0453 65.18 53.0453C66.203 53.0903 67.078 53.4453 67.828 54.1173C68.098 54.3613 68.25 54.5333 68.481 54.8553C69.336 56.0373 69.786 57.5943 69.868 59.6243C69.961 62.0163 69.453 64.1523 68.461 65.5503C67.754 66.5453 66.868 67.1283 65.743 67.3443C65.52 67.3893 64.683 67.4043 64.453 67.3763C62.899 67.1563 61.719 66.1983 60.95 64.5363C60.442 63.4433 60.18 62.2123 60.121 60.6553C59.996 57.4803 60.907 54.9453 62.586 53.7833C63.2961 53.2924 64.1407 53.0332 65.004 53.0413ZM77.036 50.3633V70.0953H80.383V62.3713L81.809 62.3793L83.239 62.3833L85.266 66.2393L87.289 70.0953H89.169C90.949 70.0953 91.043 70.0953 91.024 70.0583C91.012 70.0383 90.004 68.1833 88.778 65.9423C88.0349 64.5842 87.2952 63.2242 86.559 61.8623C86.563 61.8573 86.672 61.8083 86.809 61.7553C88.739 60.9733 89.911 59.4973 90.231 57.4393C90.301 56.9703 90.321 56.6363 90.309 56.0093C90.289 55.1563 90.215 54.6553 90 53.9863C89.383 52.0623 87.786 50.8723 85.325 50.4933C84.524 50.3713 84.727 50.3753 80.731 50.3673L77.036 50.3633ZM80.383 53.1673L82.133 53.1753C84.028 53.1833 84.113 53.1873 84.703 53.3143C85.192 53.4163 85.649 53.5993 85.973 53.8273C86.286 54.0433 86.59 54.4183 86.75 54.7893C87.055 55.4823 87.09 56.5873 86.84 57.4103C86.7206 57.8333 86.4979 58.2199 86.192 58.5353C85.618 59.1353 84.805 59.4653 83.657 59.5673C83.504 59.5793 82.754 59.5873 81.887 59.5873H80.383V53.1673ZM94.223 50.3633V70.0993L97.25 70.0913C100.508 70.0833 100.434 70.0833 101.223 69.9653C102.003 69.8498 102.766 69.6375 103.493 69.3333C103.852 69.1783 103.953 69.1213 103.938 69.0803C103.917 69.0148 103.901 68.948 103.888 68.8803C103.813 68.5833 103.793 68.3703 103.808 67.9883C103.821 67.5923 103.856 67.3973 103.969 67.0623C104.332 65.9823 105.231 65.2003 106.317 65.0123C106.657 64.9553 107.125 64.9723 107.516 65.0623C107.59 65.0773 107.578 65.0983 107.75 64.6253C108.313 63.0433 108.543 60.9323 108.383 58.8373C108.086 54.9613 106.403 52.3153 103.457 51.1053C102.734 50.8103 101.977 50.6061 101.203 50.4973C100.399 50.3753 100.489 50.3793 97.239 50.3713L94.223 50.3633ZM97.567 53.1923H98.434C99.586 53.1923 100.063 53.2283 100.684 53.3553C102.884 53.8113 104.25 55.2623 104.766 57.6753C105.032 58.9313 105.071 60.7163 104.86 62.0903C104.707 63.0883 104.414 63.9903 104.012 64.6903C103.762 65.1303 103.312 65.6853 102.953 65.9903C102.153 66.6753 101.125 67.0833 99.863 67.2133C99.664 67.2333 99.192 67.2543 98.559 67.2633L97.567 67.2743V53.1913V53.1923Z" fill="#3D3F42" stroke="black"/>
<path d="M109.399 68.1108C109.399 69.6188 108.231 70.8378 106.793 70.8378C105.352 70.8378 104.183 69.6188 104.183 68.1108C104.183 66.6028 105.352 65.3838 106.793 65.3838C108.231 65.3838 109.399 66.6028 109.399 68.1108Z" fill="#499A6C" stroke="black"/>
<path d="M106.43 73.9883C105.243 73.8903 104.07 73.3683 103.141 72.5243C102.567 72.0073 102.078 71.3263 101.813 70.6743C101.7 70.3933 101.692 70.3273 101.766 70.3193C101.934 70.2993 102.555 70.1643 102.871 70.0833C103.293 69.9733 103.493 69.9033 103.871 69.7283C104.125 69.6183 104.141 69.6103 104.164 69.6513C104.462 70.1988 104.917 70.6456 105.469 70.9353C105.919 71.1633 106.293 71.2533 106.793 71.2533C107.273 71.2533 107.661 71.1633 108.075 70.9553C108.836 70.5763 109.375 69.9363 109.653 69.0883C109.703 68.9383 109.809 68.3993 109.848 68.1143C109.907 67.6623 109.911 67.2423 109.911 60.5943V53.7543H113.153V60.6793C113.153 65.2403 113.145 67.7113 113.129 67.9103C113.039 69.2153 112.672 70.4133 112.071 71.3803C111.836 71.7543 111.629 72.0193 111.325 72.3373C110.407 73.2913 109.215 73.8413 107.801 73.9673C107.431 74.0003 106.691 74.0123 106.431 73.9873L106.43 73.9883ZM120.032 73.9673C117.858 73.7818 115.814 72.8551 114.242 71.3423L114.004 71.1143L114.102 70.9923C114.157 70.9223 114.59 70.3893 115.059 69.8063L115.919 68.7463L116.149 68.9583C117.289 69.9933 118.645 70.6783 120.012 70.9063C120.411 70.9713 121.274 70.9763 121.652 70.9143C122.817 70.7273 123.562 70.2423 123.926 69.4393C124.047 69.1743 124.106 68.8933 124.121 68.5383C124.157 67.4083 123.704 66.7573 122.431 66.1053C122.215 65.9953 121.895 65.8403 121.723 65.7663C120.483 65.2073 119.247 64.6379 118.016 64.0583C116.25 63.1333 115.184 61.7553 114.911 60.0563C114.399 56.8643 116.575 54.1533 120.043 53.6603C120.889 53.5454 121.747 53.5674 122.586 53.7253C124.171 54.0303 125.63 54.7963 126.782 55.9273L126.934 56.0733L126.11 57.1413C125.657 57.7243 125.266 58.2263 125.246 58.2463C125.207 58.2863 125.207 58.2863 125.098 58.1933C124.552 57.7166 123.937 57.3261 123.274 57.0353C122.607 56.7532 121.888 56.6119 121.164 56.6203C120.578 56.6203 120.223 56.6683 119.801 56.8073C118.969 57.0843 118.441 57.6183 118.251 58.3803C118.18 58.6663 118.172 59.1143 118.231 59.3793C118.387 60.0843 118.851 60.5893 119.801 61.0873C120.118 61.2543 120.301 61.3403 120.903 61.6013C123.513 62.7263 124.513 63.1943 125.032 63.5333C126.492 64.4903 127.242 65.6603 127.462 67.3313C127.508 67.6743 127.512 68.5303 127.473 68.8363C127.309 70.0793 126.825 71.1183 126.004 71.9783C124.894 73.1523 123.379 73.8123 121.457 73.9683C121.145 73.9963 120.348 73.9923 120.032 73.9683V73.9673Z" fill="#33B5E5" stroke="black"/>
</svg>
