<svg width="128" height="128" viewBox="0 0 128 128" fill="none" xmlns="http://www.w3.org/2000/svg">
<path fill-rule="evenodd" clip-rule="evenodd" d="M21.6019 38.4726C21.5469 38.5266 21.5039 47.2026 21.5039 57.7526V76.9406L30.3669 76.8976C40.7849 76.8476 41.6909 76.7495 44.7499 75.3236L45.4019 75.0196L45.4839 74.1166C45.8639 70.0426 49.1909 66.7886 53.1049 66.6716C54.0079 66.6446 53.9569 66.6946 54.5849 65.1246C55.9249 61.7576 56.2269 56.0466 55.2889 51.9016C53.6089 44.4996 48.3479 39.7816 40.5119 38.6476C39.3319 38.4796 21.7539 38.3156 21.6019 38.4726ZM61.6949 56.9396V75.4866L61.3869 76.6866C59.8789 82.5645 52.9019 84.7996 48.2929 80.8766C48.0979 80.7096 47.6559 80.2486 47.3129 79.8466L46.6869 79.1196L45.9689 79.4436C44.4019 80.1506 40.8869 81.1506 39.9769 81.1506C38.7699 81.1506 41.3239 85.1276 43.8319 87.1506C46.9799 89.6936 49.5469 90.5536 53.9529 90.5496C62.0589 90.5376 67.3549 86.6276 69.5509 79.0376C70.2769 76.5216 70.2769 76.4756 70.2419 56.6396L70.2069 38.4636L65.9529 38.4286L61.6949 38.3936V56.9396ZM92.9919 38.4866C83.7889 38.9636 77.5039 44.6936 77.5039 52.6076C77.5039 58.9396 80.4689 62.8426 87.6799 66.0106C88.5589 66.3966 89.9999 67.0306 90.8789 67.4206C92.9059 68.3146 93.3119 68.4906 94.3359 68.9286C100.82 71.6936 102.273 73.0536 102.273 76.3696C102.273 84.2956 89.7659 85.3196 81.1639 78.0926C80.6439 77.6546 80.1799 77.3426 80.1289 77.4006L76.2229 82.0306C76.0119 82.2806 75.7109 82.6276 75.5509 82.7956C75.1169 83.2686 75.1709 83.3696 76.4299 84.4396C85.1759 91.8816 98.6369 92.7646 106.305 86.4006C111.515 82.0766 112.84 73.8856 109.235 68.2646C107.82 66.0576 104.809 63.6506 102.145 62.5966C101.898 62.4986 101.633 62.3736 101.559 62.3146C101.48 62.2566 101.191 62.1276 100.918 62.0256C100.383 61.8191 99.8534 61.6017 99.3279 61.3736C98.2539 60.9086 97.4679 60.5766 96.0309 59.9836C95.6289 59.8146 94.8629 59.4946 94.3359 59.2686C93.8651 59.0678 93.391 58.8748 92.9139 58.6896C88.6329 57.0966 86.4609 55.0216 86.3009 52.3656C85.9179 46.0806 94.9489 43.9676 102.656 48.5456C102.902 48.6936 103.546 49.1466 104.094 49.5576C104.637 49.9676 105.125 50.2996 105.18 50.2956C105.27 50.2876 108.465 46.4006 109.352 45.2176L109.711 44.7406L109.094 44.1906C107.922 43.1396 105.969 41.7486 104.864 41.1746C103.977 40.7136 103.723 40.5886 103.141 40.3306C100.145 38.9906 96.3909 38.3106 92.9919 38.4866ZM38.3239 46.7256C43.2459 47.4086 45.9539 50.9636 46.1679 57.0216C46.3829 63.1856 43.6449 67.4396 38.7849 68.4946C37.5309 68.7686 31.6799 69.0026 30.9179 68.8116L30.5939 68.7285V57.7456C30.5939 51.7066 30.6289 46.7226 30.6759 46.6756C30.8159 46.5386 37.2699 46.5816 38.3239 46.7256ZM51.9449 69.9996C46.6949 72.1166 47.9649 79.6996 53.5659 79.6756C58.9729 79.6516 60.5309 72.5116 55.6409 70.1676C54.7229 69.7266 52.8319 69.6406 51.9449 69.9996Z" fill="#FAFBFB"/>
<path fill-rule="evenodd" clip-rule="evenodd" d="M0 63.938V127.871H127.871V0H0V63.938ZM39.742 38.402C42.942 38.703 46.613 39.961 48.622 41.442C50.508 42.832 52.062 44.406 53.004 45.887C53.84 47.199 53.984 47.449 54.074 47.747C54.129 47.922 54.242 48.18 54.328 48.32C54.586 48.734 55.297 51.012 55.5 52.074C55.605 52.614 55.754 53.344 55.828 53.695C56.004 54.523 56.008 60.281 55.832 61.121C55.758 61.473 55.605 62.191 55.496 62.719C55.281 63.754 54.691 65.48 54.27 66.305C54.031 66.777 53.973 66.816 53.469 66.816C52.555 66.82 51.316 67.07 50.598 67.398C50.223 67.57 49.883 67.711 49.844 67.711C49.668 67.711 47.894 69.164 47.539 69.594C46.473 70.902 45.832 72.464 45.711 74.051C45.664 74.641 45.598 75.141 45.566 75.164C45.391 75.293 43.469 76.039 42.687 76.285C40.317 77.027 39.187 77.102 29.922 77.152L21.375 77.195V38.273H29.855C34.66 38.273 38.945 38.328 39.742 38.403M70.398 56.863C70.395 75.871 70.359 77.391 69.902 78.469C69.828 78.641 69.68 79.137 69.57 79.566C69.465 80 69.29 80.52 69.184 80.719C69.078 80.922 68.992 81.141 68.992 81.203C68.992 81.343 68.109 83.191 67.949 83.383C67.887 83.457 67.589 83.895 67.293 84.352C64.605 88.484 59.941 90.734 53.965 90.789C51.73 90.809 49.066 90.422 48.449 89.989C48.379 89.941 48.063 89.805 47.742 89.687C44.132 88.347 40.032 84.266 39.477 81.457C39.398 81.059 39.398 81.059 40.082 80.973C40.977 80.859 43.348 80.289 43.84 80.074C44.05 79.98 44.453 79.828 44.734 79.738C45.016 79.648 45.535 79.441 45.887 79.278C46.66 78.918 46.934 78.902 47.031 79.207C47.207 79.766 48.961 81.305 50.023 81.836C54.883 84.258 60.633 81.141 61.441 75.648C61.5 75.262 61.551 66.691 61.559 56.609L61.566 38.273H70.398V56.863ZM96.785 38.406C97.515 38.476 98.313 38.602 98.559 38.68C98.801 38.758 99.434 38.926 99.965 39.047C102.578 39.66 105.543 41.125 107.961 43C108.895 43.727 109.824 44.61 109.824 44.773C109.824 44.887 109.008 46.012 108.672 46.367C108.566 46.477 108.324 46.757 108.137 46.997C107.949 47.23 107.328 47.997 106.754 48.695C106.372 49.1591 105.995 49.6281 105.625 50.102C105.277 50.641 105.133 50.605 104.012 49.742C103.122 49.051 101 47.742 100.777 47.742C100.747 47.742 100.422 47.605 100.055 47.434C98.004 46.473 92.473 45.918 91.328 46.563C91.188 46.641 90.754 46.805 90.368 46.926C86.558 48.102 85.152 52.773 87.789 55.492C88.617 56.348 91.984 58.367 92.579 58.367C92.625 58.367 92.969 58.504 93.339 58.672C93.711 58.84 94.16 59.02 94.336 59.07C94.512 59.121 94.77 59.234 94.91 59.32C95.055 59.41 95.398 59.555 95.68 59.645C95.96 59.73 96.309 59.875 96.45 59.961C96.59 60.051 96.934 60.195 97.215 60.289C97.496 60.379 97.93 60.559 98.175 60.691C98.418 60.821 98.665 60.93 98.715 60.93C98.765 60.93 99.125 61.07 99.508 61.246C99.895 61.426 100.238 61.566 100.281 61.566C100.434 61.566 103.594 63.074 104.121 63.398C106.43 64.816 108.261 66.406 109.176 67.778C109.723 68.598 110.465 69.988 110.465 70.199C110.465 70.289 110.551 70.539 110.66 70.754C110.855 71.144 111.125 72.309 111.36 73.793C111.512 74.73 111.516 76.809 111.371 77.503C110.938 79.57 110.785 80.148 110.469 80.949C108.152 86.773 102.145 90.434 94.273 90.816C92.223 90.918 87.375 90.414 86.766 90.036C86.703 90 86.234 89.852 85.726 89.711C84.305 89.321 81.207 87.984 80.063 87.266C77.871 85.886 76.734 85.043 75.551 83.914C74.902 83.297 74.898 83.25 75.395 82.704C75.9889 82.031 76.5733 81.3496 77.148 80.66C80.316 76.906 80.27 76.95 80.566 77.332C80.641 77.426 81.106 77.824 81.602 78.219C82.391 78.848 82.949 79.246 84.098 80C84.727 80.414 87.137 81.54 87.816 81.742C88.199 81.855 88.57 81.992 88.641 82.043C88.711 82.098 89.285 82.238 89.921 82.355C90.555 82.473 91.309 82.629 91.594 82.703C93.594 83.215 98.109 82.367 99.695 81.18C102.699 78.926 102.957 74.39 100.199 72.176C99.082 71.281 96.621 69.949 95.359 69.566C95.0963 69.4724 94.8406 69.3601 94.594 69.23C94.348 69.098 94.105 68.992 94.051 68.992C93.965 68.992 93.363 68.73 91.84 68.035C91.629 67.938 90.965 67.648 90.367 67.395C89.8264 67.1633 89.2887 66.925 88.754 66.68C88.464 66.543 88.184 66.434 88.129 66.434C88.074 66.434 87.312 66.086 86.437 65.66C83.23 64.105 81.395 62.64 79.387 60.04C77.473 57.555 76.657 52.559 77.617 49.215C79.757 41.765 87.379 37.465 96.785 38.406ZM30.848 57.734V68.621L34.398 68.574C40.191 68.5 42.262 67.66 44.211 64.602C46.309 61.316 46.664 55.43 44.988 51.879C44.813 51.516 44.672 51.156 44.672 51.079C44.672 51.004 44.622 50.945 44.559 50.945C44.496 50.945 44.375 50.77 44.285 50.555C44.063 50.015 42.523 48.492 41.773 48.07C39.941 47.04 38.793 46.848 34.41 46.848H30.848V57.734ZM55.07 69.774C61.102 71.812 59.191 80.609 52.879 79.864C47.848 79.27 46.829 71.871 51.519 70.008C51.73 69.926 52.019 69.808 52.16 69.75C52.934 69.434 54.086 69.441 55.07 69.773" fill="#0C0C14"/>
<path fill-rule="evenodd" clip-rule="evenodd" d="M21.434 38.5594C21.402 38.6494 21.391 47.3324 21.406 57.8554L21.441 76.9924L21.504 57.6954C21.539 47.0824 21.551 38.3984 21.531 38.3984C21.511 38.3984 21.469 38.4734 21.434 38.5584M37.664 38.4924C37.93 38.5204 38.359 38.5204 38.625 38.4924C38.887 38.4654 38.672 38.4424 38.145 38.4424C37.617 38.4424 37.398 38.4654 37.665 38.4924M61.629 57.0234C61.629 67.3014 61.645 71.5274 61.664 66.4104C61.684 61.2934 61.684 52.8834 61.664 47.7234C61.644 42.5594 61.629 46.7464 61.629 57.0234ZM70.239 50.0784C70.258 56.5044 70.285 64.6994 70.305 68.2894C70.325 71.8794 70.352 66.6214 70.371 56.6094C70.387 46.5944 70.355 38.3994 70.305 38.3994C70.25 38.3994 70.223 43.6564 70.238 50.0794M92.641 38.4924C92.871 38.5204 93.219 38.5204 93.411 38.4924C93.601 38.4614 93.414 38.4384 92.992 38.4424C92.57 38.4424 92.414 38.4654 92.641 38.4924ZM94.945 38.4924C95.172 38.5204 95.547 38.5204 95.777 38.4924C96.004 38.4654 95.817 38.4424 95.359 38.4424C94.902 38.4424 94.715 38.4654 94.945 38.4924ZM81.148 43.3604L80.32 44.2244L81.184 43.3964C81.66 42.9424 82.047 42.5524 82.047 42.5324C82.047 42.4394 81.918 42.5604 81.148 43.3604ZM93.152 46.1734C93.309 46.2004 93.57 46.2004 93.727 46.1734C93.887 46.1424 93.757 46.1144 93.441 46.1144C93.125 46.1144 92.992 46.1424 93.152 46.1734ZM94.816 46.1734C94.973 46.2004 95.234 46.2004 95.391 46.1734C95.551 46.1424 95.421 46.1144 95.105 46.1144C94.789 46.1144 94.656 46.1424 94.816 46.1734ZM30.652 46.7554C30.617 46.8414 30.605 51.8374 30.622 57.8564L30.656 68.8024L30.719 57.6964C30.754 51.5914 30.769 46.5954 30.746 46.5954C30.726 46.5954 30.684 46.6654 30.652 46.7554ZM86.301 51.4584C86.301 51.7044 86.328 51.8064 86.359 51.6814C86.3904 51.5331 86.3904 51.3798 86.359 51.2314C86.329 51.1114 86.301 51.2114 86.301 51.4584ZM77.359 52.6734C77.359 53.3764 77.379 53.6494 77.406 53.2784C77.434 52.9034 77.434 52.3294 77.406 51.9984C77.379 51.6654 77.359 51.9704 77.359 52.6734ZM86.301 52.7354C86.301 52.9814 86.328 53.0834 86.359 52.9624C86.3904 52.8141 86.3904 52.6608 86.359 52.5124C86.329 52.3924 86.301 52.4894 86.301 52.7354ZM87.801 55.7124C88.117 56.0484 88.391 56.3224 88.411 56.3224C88.508 56.3224 88.406 56.2084 87.84 55.6774L87.23 55.1074L87.8 55.7124M46.133 57.5364C46.133 58.5954 46.153 59.0094 46.176 58.4584C46.199 57.9114 46.199 57.0484 46.176 56.5404C46.152 56.0324 46.133 56.4814 46.133 57.5364ZM55.855 57.4074C55.855 58.1854 55.879 58.4854 55.902 58.0754C55.93 57.6694 55.93 57.0364 55.902 56.6694C55.875 56.3024 55.855 56.6344 55.855 57.4074ZM32.297 68.8324C33.125 68.8554 34.453 68.8554 35.238 68.8324C36.028 68.8094 35.348 68.7894 33.727 68.7934C32.109 68.7934 31.465 68.8094 32.297 68.8324ZM53.407 69.7194C53.5543 69.7544 53.7077 69.7544 53.855 69.7194C53.98 69.6884 53.879 69.6604 53.633 69.6604C53.387 69.6604 53.285 69.6884 53.406 69.7194M45.438 74.4574C45.402 74.8244 45.422 75.0784 45.48 75.0204C45.54 74.9604 45.566 74.6604 45.543 74.3524L45.5 73.7934L45.437 74.4574M111.273 75.6484C111.273 76.1764 111.297 76.3914 111.324 76.1284C111.351 75.809 111.351 75.4879 111.324 75.1684C111.297 74.9024 111.274 75.1214 111.274 75.6484M70.172 75.6484C70.172 75.8954 70.199 75.9964 70.23 75.8714C70.2652 75.7252 70.2652 75.5727 70.23 75.4264C70.2 75.3014 70.172 75.4024 70.172 75.6484ZM25.449 77.0234C27.582 77.0434 31.039 77.0434 33.129 77.0234C35.219 77.0034 33.473 76.9884 29.246 76.9884C25.023 76.9884 23.316 77.0044 25.449 77.0234ZM57.019 78.3674L56.512 78.9104L57.055 78.4064C57.563 77.9344 57.66 77.8244 57.563 77.8244C57.543 77.8244 57.297 78.0704 57.02 78.3674M75.137 83.2814C75.137 83.3514 75.324 83.5784 75.551 83.7854L75.969 84.1604L75.586 83.7104C75.4415 83.5482 75.3021 83.3814 75.168 83.2104C75.152 83.1844 75.137 83.2154 75.137 83.2814ZM42.492 86.0474C43.02 86.6134 43.137 86.7154 43.137 86.6174C43.137 86.5974 42.863 86.3244 42.527 86.0124L41.922 85.4424L42.492 86.0474ZM65.406 86.3364C65.098 86.6524 64.871 86.9104 64.906 86.9104C64.941 86.9104 65.226 86.6524 65.536 86.3364C65.848 86.0204 66.074 85.7624 66.039 85.7624C66.004 85.7624 65.719 86.0204 65.406 86.3364ZM53.152 90.7104C53.3 90.7457 53.4541 90.7457 53.602 90.7104C53.722 90.6794 53.622 90.6514 53.375 90.6514C53.129 90.6514 53.027 90.6794 53.152 90.7104ZM93.023 90.7144C93.183 90.7454 93.441 90.7454 93.602 90.7144C93.758 90.6834 93.629 90.6594 93.312 90.6594C92.996 90.6594 92.867 90.6834 93.023 90.7144Z" fill="#94949C"/>
<path fill-rule="evenodd" clip-rule="evenodd" d="M37.4058 38.3598C37.5308 38.3898 37.7338 38.3898 37.8558 38.3598C37.9798 38.3278 37.8788 38.2998 37.6328 38.2998C37.3868 38.2998 37.2848 38.3278 37.4058 38.3598ZM30.8048 46.6878C30.7698 46.7418 31.6168 46.7698 32.6838 46.7498C36.2188 46.6908 36.5778 46.6448 33.7038 46.6168C32.1408 46.6048 30.8358 46.6368 30.8038 46.6868M77.2188 52.6718C77.2228 53.0228 77.2458 53.1518 77.2768 52.9568C77.3048 52.7618 77.3048 52.4768 77.2728 52.3198C77.2428 52.1598 77.2188 52.3198 77.2188 52.6718ZM54.4958 90.7148C54.6558 90.7458 54.8858 90.7418 55.0078 90.7108C55.1328 90.6798 54.9998 90.6558 54.7178 90.6558C54.4378 90.6558 54.3398 90.6838 54.4958 90.7148Z" fill="#616169"/>
<path fill-rule="evenodd" clip-rule="evenodd" d="M25.4502 38.3668C27.6562 38.3868 31.2272 38.3868 33.3872 38.3668C35.5472 38.3468 33.7422 38.3318 29.3752 38.3318C25.0122 38.3318 23.2462 38.3478 25.4492 38.3668M63.7692 38.3668C64.9412 38.3908 66.9022 38.3908 68.1212 38.3668C69.3402 38.3468 68.3792 38.3278 65.9842 38.3278C63.5902 38.3278 62.5942 38.3478 63.7702 38.3678M93.9842 38.3588C94.1052 38.3908 94.3092 38.3908 94.4342 38.3588C94.5542 38.3288 94.4542 38.3008 94.2072 38.3008C93.9612 38.3008 93.8592 38.3278 93.9842 38.3588ZM102.176 76.4798C102.176 76.7618 102.203 76.8628 102.234 76.7028C102.266 76.5428 102.266 76.3128 102.23 76.1908C102.2 76.0658 102.176 76.1988 102.176 76.4808M93.0902 82.9058C93.2812 82.9368 93.5982 82.9368 93.7932 82.9058C93.9842 82.8788 93.8282 82.8558 93.4412 82.8558C93.0552 82.8558 92.8952 82.8788 93.0902 82.9058Z" fill="#74747C"/>
<path fill-rule="evenodd" clip-rule="evenodd" d="M81.1478 43.2296L80.4488 43.9686L81.1838 43.2686C81.5898 42.8826 81.9218 42.5505 81.9218 42.5305C81.9218 42.4375 81.7968 42.5465 81.1478 43.2305M30.7808 57.7595L30.7848 68.6695L36.4798 68.6786L30.8478 68.6005L30.8158 57.7256L30.7808 46.8456V57.7606M55.9728 57.3425C55.9728 57.7285 55.9998 57.8896 56.0268 57.6936C56.058 57.4603 56.058 57.2238 56.0268 56.9906C55.9998 56.7956 55.9728 56.9555 55.9728 57.3425ZM111.391 75.6466C111.391 75.8936 111.414 75.9946 111.449 75.8696C111.48 75.7229 111.48 75.5712 111.449 75.4246C111.414 75.2996 111.391 75.4006 111.391 75.6466ZM53.2808 82.7766C53.4018 82.8065 53.6048 82.8065 53.7268 82.7766C53.8518 82.7406 53.7498 82.7166 53.5038 82.7166C53.2578 82.7166 53.1558 82.7406 53.2808 82.7766ZM42.2378 85.9296C42.2378 85.9496 42.4258 86.1366 42.6558 86.3436L43.0698 86.7186L42.6948 86.3046C42.3438 85.9175 42.2378 85.8275 42.2378 85.9296ZM55.3278 90.7095C55.4757 90.7448 55.6298 90.7448 55.7778 90.7095C55.8978 90.6796 55.7968 90.6516 55.5508 90.6516C55.3048 90.6516 55.2028 90.6796 55.3278 90.7105" fill="#444454"/>
<path fill-rule="evenodd" clip-rule="evenodd" d="M50.9381 43.4264C51.2541 43.7584 51.5281 44.0314 51.5471 44.0314C51.6451 44.0314 51.5431 43.9184 50.9771 43.3874L50.3671 42.8174L50.9371 43.4264M93.9841 46.2964C94.1051 46.3284 94.3091 46.3284 94.4341 46.2964C94.5541 46.2664 94.4541 46.2384 94.2071 46.2384C93.9611 46.2384 93.8591 46.2664 93.9841 46.2974M32.4221 46.8174C33.3241 46.8364 34.7661 46.8364 35.6251 46.8174C36.4801 46.7934 35.7421 46.7734 33.9851 46.7734C32.2231 46.7774 31.5231 46.7934 32.4221 46.8164M55.9691 58.5604C55.9691 58.8404 55.9961 58.9424 56.0271 58.7824C56.0572 58.6132 56.0558 58.44 56.0231 58.2714C55.9931 58.1494 55.9651 58.2784 55.9691 58.5604ZM25.4401 77.1524C27.7101 77.1724 31.4251 77.1724 33.6941 77.1524C35.9641 77.1324 34.1081 77.1174 29.5651 77.1174C25.0261 77.1174 23.1671 77.1334 25.4401 77.1524ZM59.0651 80.4144L58.5581 80.9614L59.1041 80.4534C59.6081 79.9844 59.7061 79.8714 59.6081 79.8714C59.5881 79.8714 59.3431 80.1174 59.0651 80.4144ZM52.5111 82.6484C52.6361 82.6804 52.8351 82.6804 52.9601 82.6484C53.0811 82.6184 52.9801 82.5904 52.7331 82.5904C52.4871 82.5904 52.3901 82.6174 52.5111 82.6484ZM54.1751 82.6484C54.3001 82.6804 54.4991 82.6804 54.6241 82.6484C54.7451 82.6184 54.6441 82.5904 54.3971 82.5904C54.1511 82.5904 54.0541 82.6174 54.1751 82.6484ZM92.0611 90.8404C92.1871 90.8714 92.3901 90.8714 92.5111 90.8404C92.6361 90.8094 92.5341 90.7814 92.2881 90.7814C92.0421 90.7814 91.9401 90.8094 92.0611 90.8404Z" fill="#2C2C34"/>
<path fill-rule="evenodd" clip-rule="evenodd" d="M53.4061 69.5942C53.5311 69.6252 53.7341 69.6252 53.8561 69.5942C53.9801 69.5592 53.8791 69.5352 53.6331 69.5352C53.3871 69.5352 53.2851 69.5592 53.4061 69.5942ZM53.1521 90.8401C53.2731 90.8711 53.4771 90.8711 53.6021 90.8401C53.7221 90.8091 53.6221 90.7812 53.3751 90.7812C53.1291 90.7812 53.0271 90.8091 53.1521 90.8401ZM92.9611 90.8442C93.1561 90.8752 93.4451 90.8712 93.6011 90.8442C93.7581 90.8132 93.6011 90.7892 93.2461 90.7892C92.8951 90.7892 92.7661 90.8122 92.9611 90.8442Z" fill="#353A44"/>
</svg>
