<svg width="128" height="128" viewBox="0 0 128 128" fill="none" xmlns="http://www.w3.org/2000/svg">
<path d="M15.091 41.6396H22.091V74.0426C18.501 74.7246 15.864 74.9977 13.001 74.9977C4.455 74.9977 0 71.1336 0 63.7236C0 56.5876 4.728 51.9516 12.046 51.9516C13.182 51.9516 14.046 52.0416 15.091 52.3146V41.6396ZM15.091 57.9496C14.273 57.6777 13.591 57.5867 12.728 57.5867C9.182 57.5867 7.137 59.7687 7.137 63.5867C7.137 67.3137 9.091 69.3596 12.682 69.3596C13.455 69.3596 14.092 69.3137 15.092 69.1777L15.091 57.9496Z" fill="#092E20"/>
<path d="M33.2268 52.4498V68.6778C33.2268 74.2678 32.8178 76.9498 31.5908 79.2678C30.4538 81.4968 28.9538 82.9048 25.8628 84.4508L19.3628 81.3598C22.4538 79.9048 23.9528 78.6328 24.9078 76.6778C25.9078 74.6778 26.2278 72.3598 26.2278 66.2678V52.4498H33.2268ZM26.2268 41.6768H33.2268V48.8588H26.2268V41.6768ZM37.4558 54.0408C40.5458 52.5868 43.5008 51.9508 46.7288 51.9508C50.3188 51.9508 52.6828 52.9048 53.7288 54.7688C54.3188 55.8138 54.5008 57.1778 54.5008 60.0868V74.3138C51.3648 74.7688 47.4108 75.0868 44.5008 75.0868C38.6378 75.0868 36.0008 73.0408 36.0008 68.4958C36.0008 63.5858 39.5008 61.3138 48.0918 60.5858V59.0408C48.0918 57.7678 47.4558 57.3138 45.6828 57.3138C43.0928 57.3138 40.1828 58.0408 37.4548 59.4508V54.0408H37.4558ZM48.4098 65.1778C43.7738 65.6318 42.2738 66.3598 42.2738 68.1778C42.2738 69.5408 43.1378 70.1778 45.0468 70.1778C46.0918 70.1778 47.0468 70.0878 48.4098 69.8598V65.1778ZM57.9118 53.5408C62.0478 52.4508 65.4568 51.9508 68.9118 51.9508C72.5028 51.9508 75.0938 52.7678 76.6398 54.3598C78.0948 55.8598 78.5488 57.4948 78.5488 60.9958V74.7228H71.5488V61.2698C71.5488 58.5878 70.6388 57.5878 68.1388 57.5878C67.1848 57.5878 66.3218 57.6778 64.9118 58.0878V74.7238H57.9118V53.5408ZM81.2688 78.5408C83.7238 79.8138 86.1778 80.4048 88.7688 80.4048C93.3588 80.4048 95.3138 78.5408 95.3138 74.0858V73.9498C93.9508 74.6318 92.5868 74.9048 90.7688 74.9048C84.6318 74.9048 80.7228 70.8588 80.7228 64.4498C80.7228 56.4948 86.4958 51.9948 96.7228 51.9948C99.7228 51.9948 102.496 52.3128 105.86 52.9948L103.463 58.0448C101.599 57.6808 103.313 57.9948 101.905 57.8588V58.5868L101.995 61.5408L102.041 65.3588C102.087 66.3138 102.087 67.2688 102.132 68.2228V70.1328C102.132 76.1328 101.632 78.9498 100.132 81.2678C97.9498 84.6778 94.1778 86.3598 88.8138 86.3598C86.0858 86.3598 83.7238 85.9498 81.2678 84.9958V78.5398L81.2688 78.5408ZM95.1788 57.6308H94.4508C93.0878 57.5858 91.4968 57.9488 90.4048 58.6308C88.7238 59.5858 87.8598 61.3128 87.8598 63.7678C87.8598 67.2678 89.5868 69.2678 92.6778 69.2678C93.6328 69.2678 94.4058 69.0858 95.3138 68.8138V66.4038C95.3138 65.5868 95.2688 64.6768 95.2688 63.7228L95.2238 60.4958L95.1778 58.1768V57.6318L95.1788 57.6308ZM116.727 51.8598C123.727 51.8598 128 56.2688 128 63.4048C128 70.7238 123.546 75.3148 116.454 75.3148C109.454 75.3148 105.136 70.9048 105.136 63.8148C105.136 56.4498 109.591 51.8588 116.727 51.8588V51.8598ZM116.59 69.6778C119.272 69.6778 120.864 67.4498 120.864 63.5868C120.864 59.7688 119.318 57.4958 116.637 57.4958C113.863 57.4958 112.272 59.7238 112.272 63.5858C112.272 67.4508 113.863 69.6778 116.59 69.6778Z" fill="#092E20"/>
</svg>
