<svg width="128" height="128" viewBox="0 0 128 128" fill="none" xmlns="http://www.w3.org/2000/svg">
<path d="M124.8 52.1C120.5 49.6 114.8 49.3 110 50.7C109.4 45.5 106 41 102 37.8L100.4 36.5L99.0002 38.1C96.3002 41.2 95.5002 46.4 95.9002 50.4C96.2002 53.3 97.1002 56.3 98.9002 58.7C97.5002 59.5 96.0002 60.6 94.6002 61.1C91.8002 62.1 88.7002 63.1 85.7002 63.1H79.0002V49H66.0002V24H51.0002V36H26.0002V49H13.0002V63H1.80019L1.60019 64.5C1.10019 70.9 1.90019 77.1 4.60019 83L5.70019 85.2L5.80019 85.4C13.7002 98.8 27.5002 104.4 42.6002 104.4C71.8002 104.4 95.9002 91.3 106.9 63.8C114.3 64.2 121.9 62 125.5 54.9L126.4 53.1L124.8 52.1ZM28.0002 39H38.0002V50H28.0002V39ZM41.1002 83.2C41.1002 84.9 39.7002 86.3 38.0002 86.3C36.3002 86.3 34.9002 84.9 34.9002 83.2C34.9002 81.5 36.3002 80.1 38.0002 80.1C39.7002 80.2 41.1002 81.5 41.1002 83.2ZM28.0002 52H38.0002V63H28.0002V52ZM15.0002 52H26.0002V63H15.0002V52ZM42.7002 102.2C26.9002 102.1 18.4002 96.8 11.4002 89.8C13.5002 89.9 15.5002 90 17.3002 90C18.9002 90 20.5002 90 22.0002 89.9C25.9002 89.7 29.3002 89.2 32.1002 88.4C34.4002 93.7 38.6002 98.6 46.1002 102.2H42.7002ZM51.0002 63H40.0002V52H51.0002V63ZM51.0002 50H40.0002V39H51.0002V50ZM64.0002 63H53.0002V52H64.0002V63ZM64.0002 50H53.0002V39H64.0002V50ZM64.0002 37H53.0002V26H64.0002V37ZM77.0002 63H66.0002V52H77.0002V63ZM38.8002 81.2C38.6002 81.1 38.3002 81 38.0002 81C36.8002 81 35.8002 82 35.8002 83.2C35.8002 84.4 36.8002 85.4 38.0002 85.4C39.2002 85.4 40.2002 84.4 40.2002 83.2C40.2002 82.9 40.1002 82.6 40.0002 82.4C39.8002 82.7 39.6002 82.9 39.2002 82.9C38.7002 82.9 38.3002 82.5 38.3002 82C38.4002 81.6 38.6002 81.3 38.8002 81.2Z" fill="#019BC6"/>
</svg>
