<svg width="128" height="128" viewBox="0 0 128 128" fill="none" xmlns="http://www.w3.org/2000/svg">
<path fill-rule="evenodd" clip-rule="evenodd" d="M20.0001 96.8996V88.7996C20.0001 87.6996 20.7001 86.8996 21.8001 86.8996H22.1001C23.2001 86.8996 23.9001 87.7996 23.9001 88.7996V105.8C23.9001 109.9 21.9001 113.2 18.3001 115.3C16.6001 116.3 14.8001 116.8 12.9001 116.8H12.1001C8.0001 116.8 4.7001 114.8 2.6001 111.2C1.6001 109.5 1.1001 107.7 1.1001 105.8V105C1.1001 100.9 3.1001 97.5996 6.7001 95.4996C8.4001 94.4996 10.2001 93.9996 12.1001 93.9996H12.9001C15.6001 94.0996 18.0001 95.0996 20.0001 96.8996ZM4.9001 105.4C4.9001 108.4 6.4001 110.6 9.0001 112.1C10.1001 112.7 11.2001 113 12.4001 113C15.3001 113 17.5001 111.6 19.0001 109.1C19.7001 107.9 20.0001 106.7 20.0001 105.3C20.0001 102.7 18.8001 100.7 16.7001 99.1996C15.4001 98.2996 14.0001 97.7996 12.5001 97.7996C9.3001 97.7996 7.0001 99.3996 5.6001 102.3C5.1001 103.3 4.9001 104.4 4.9001 105.4ZM37.1001 94.0996H37.6001C42.0001 94.0996 45.4001 96.1996 47.5001 100.1C48.4001 101.6 48.8001 103.3 48.8001 105.1V105.9C48.8001 110 46.8001 113.3 43.2001 115.4C41.5001 116.4 39.7001 116.9 37.8001 116.9H37.0001C32.9001 116.9 29.6001 114.9 27.5001 111.3C26.5001 109.6 26.0001 107.8 26.0001 105.9V105.1C26.0001 101 28.1001 97.6996 31.6001 95.5996C33.3001 94.4996 35.2001 94.0996 37.1001 94.0996ZM29.9001 105.4C29.9001 108.3 31.3001 110.4 33.8001 111.9C35.0001 112.6 36.2001 112.9 37.6001 112.9C40.5001 112.9 42.6001 111.4 44.1001 109C44.8001 107.8 45.1001 106.6 45.1001 105.2C45.1001 102.5 43.8001 100.4 41.6001 98.8996C40.4001 98.0996 39.0001 97.6996 37.6001 97.6996C34.4001 97.6996 32.1001 99.2996 30.7001 102.2C30.1001 103.3 29.9001 104.4 29.9001 105.4ZM64.7001 98.1996C64.1001 97.8996 63.0001 97.7996 62.4001 97.7996C59.2001 97.6996 56.9001 99.4996 55.5001 102.3C55.0001 103.3 54.8001 104.3 54.8001 105.4C54.8001 108.7 56.5001 111 59.4001 112.4C60.5001 112.9 61.8001 113 63.0001 113C64.0001 113 65.5001 112.4 66.4001 111.9L66.6001 111.8H67.4001C68.3001 112 68.9001 112.5 68.9001 113.5V113.9C68.9001 116.2 64.6001 116.8 63.0001 116.9C57.3001 117.3 53.0001 114.2 51.4001 108.7C51.1001 107.8 51.0001 106.8 51.0001 105.8V105C51.0001 100.9 53.1001 97.5996 56.6001 95.4996C58.3001 94.4996 60.1001 93.9996 62.0001 93.9996H62.8001C64.8001 93.9996 66.7001 94.5996 68.4001 95.6996L68.5001 95.7996L68.6001 95.8996C68.8001 96.1996 68.9001 96.4996 68.9001 96.8996V97.2996C68.9001 98.2996 68.2001 98.7996 67.3001 98.9996H67.0001C66.5001 98.9996 65.2001 98.3996 64.7001 98.1996ZM77.1001 100.8C78.6001 99.2996 80.1001 97.7996 81.6001 96.3996C82.0001 95.9996 83.6001 94.2996 84.2001 94.2996H85.0001C85.9001 94.4996 86.5001 94.9996 86.5001 95.9996V96.3996C86.5001 96.9996 85.8001 97.7996 85.3001 98.1996L82.6001 100.9L78.0001 105.6C80.0001 107.6 82.0001 109.6 83.9001 111.6L85.5001 113.3C85.7001 113.5 86.0001 113.7 86.1001 114C86.3001 114.3 86.4001 114.6 86.4001 114.9V115.4C86.2001 116.3 85.6001 117 84.7001 117H84.4001C83.8001 117 83.1001 116.3 82.6001 115.9C81.7001 115.1 80.8001 114.2 80.0001 113.3L77.1001 110.4V115C77.1001 116.1 76.4001 116.9 75.3001 116.9H75.0001C73.9001 116.9 73.2001 116 73.2001 115V88.8996C73.2001 87.7996 73.9001 86.9996 75.0001 86.9996H75.3001C76.4001 86.9996 77.1001 87.7996 77.1001 88.8996V100.8ZM124.7 94.1996H125.1C126.2 94.1996 127 94.9996 127 96.0996C127 97.6996 125.5 98.0996 124.2 98.0996C122.5 98.0996 120.8 99.0996 119.7 100.3C118.2 101.8 117.6 103.6 117.6 105.7V114.9C117.6 116 116.9 116.8 115.8 116.8H115.5C114.4 116.8 113.7 115.9 113.7 114.9V105.1C113.7 101.3 115.5 98.2996 118.6 96.0996C120.4 94.8996 122.5 94.1996 124.7 94.1996ZM97.6001 112.5C99.0001 113 100.6 112.9 102 112.7C102.7 112.4 104.6 111.6 105.3 111.7H105.5C105.9 111.9 106.3 112.2 106.5 112.6C107 113.6 106.8 114.6 105.8 115.2L105.5 115.4C101.9 117.5 98.0001 117.2 94.4001 115.2C92.7001 114.3 91.4001 112.9 90.4001 111.2L90.2001 110.8C87.9001 106.8 88.2001 102.5 90.8001 98.6996C91.7001 97.3996 92.9001 96.3996 94.3001 95.5996L94.8001 95.2996C98.2001 93.2996 101.9 93.4996 105.4 95.1996C107.3 96.0996 108.8 97.4996 109.9 99.2996L110.1 99.5996C110.9 100.9 109.9 102.1 108.9 102.9C107.7 103.8 106.5 104.9 105.4 105.9C102.7 108.1 100.1 110.3 97.6001 112.5ZM94.3001 110.2L102.8 102.9C103.8 102.1 104.8 101.2 105.8 100.3C105 99.2996 103.7 98.5996 102.7 98.1996C100.5 97.3996 98.3001 97.5996 96.3001 98.7996C93.7001 100.3 92.5001 102.8 92.6001 105.8C92.6001 107 93.0001 108.1 93.6001 109.2C93.8001 109.6 94.0001 109.9 94.3001 110.2ZM73.7001 33.6996H85.0001V45.1996H90.7001C93.3001 45.1996 96.0001 44.6996 98.5001 43.8996C99.7001 43.4996 101.1 42.8996 102.3 42.1996C100.7 40.0996 99.9001 37.4996 99.7001 34.8996C99.4001 31.3996 100.1 26.7996 102.5 24.0996L103.7 22.6996L105.1 23.7996C108.7 26.6996 111.6 30.5996 112.2 35.1996C116.5 33.8996 121.5 34.1996 125.3 36.3996L126.8 37.2996L126 38.8996C122.8 45.0996 116.1 47.0996 109.6 46.6996C99.8001 70.9996 78.6001 82.4996 52.8001 82.4996C39.5001 82.4996 27.3001 77.4996 20.3001 65.6996L20.2001 65.4996L19.2001 63.3996C16.8001 58.1996 16.1001 52.4996 16.6001 46.7996L16.8001 45.0996H26.4001V33.6996H37.7001V22.3996H60.2001V11.0996H73.7001V33.6996Z" fill="#3A4D54"/>
<path d="M110.2 37.9002C111 32.0002 106.6 27.4002 103.8 25.2002C100.7 28.8002 100.2 38.4002 105.1 42.4002C102.3 44.8002 96.5998 47.1002 90.5998 47.1002H18.3998C17.7998 53.3002 18.8998 59.0002 21.3998 63.9002L22.1998 65.4002C22.6998 66.3002 23.2998 67.1002 23.8998 68.0002C26.8998 68.2002 29.5998 68.3002 32.0998 68.2002C36.9998 68.1002 40.9998 67.5002 44.0998 66.5002C44.5998 66.3002 44.9998 66.6002 45.1998 67.0002C45.3998 67.5002 45.0998 67.9002 44.6998 68.1002C44.2998 68.2002 43.8998 68.4002 43.3998 68.5002C40.9998 69.2002 38.3998 69.6002 35.0998 69.8002H34.4998C33.1998 69.9002 31.7998 69.9002 30.2998 69.9002C28.6998 69.9002 27.1998 69.9002 25.3998 69.8002C31.3998 76.6002 40.7998 80.6002 52.5998 80.6002C77.5998 80.6002 98.7998 69.5002 108.1 44.7002C114.8 45.4002 121.2 43.7002 124.1 38.0002C119.6 35.4002 113.6 36.2002 110.2 37.9002Z" fill="#00AADA"/>
<path d="M110.2 37.9002C111 32.0002 106.6 27.4002 103.8 25.2002C100.7 28.8002 100.2 38.4002 105.1 42.4002C102.3 44.8002 96.5999 47.1002 90.5999 47.1002H22.5999C22.2999 56.6002 25.7999 63.8002 32.0999 68.1002C36.9999 68.0002 40.9999 67.4002 44.0999 66.4002C44.5999 66.2002 44.9999 66.5002 45.1999 66.9002C45.3999 67.4002 45.0999 67.8002 44.6999 68.0002C44.2999 68.1002 43.8999 68.3002 43.3999 68.4002C40.9999 69.1002 38.1999 69.6002 34.8999 69.8002L34.7999 69.7002C43.2999 74.1002 55.5999 74.0002 69.7999 68.6002C85.5999 62.5002 100.4 50.9002 110.7 37.7002C110.5 37.8002 110.4 37.9002 110.2 37.9002Z" fill="#28B8EB"/>
<path d="M18.5 54.5996C18.9 57.8996 19.9 60.9996 21.4 63.8996L22.2 65.3996C22.7 66.2996 23.3 67.0996 23.9 67.9996C26.9 68.1996 29.6 68.2996 32.1 68.1996C37 68.0996 41 67.4996 44.1 66.4996C44.6 66.2996 45 66.5996 45.2 66.9996C45.4 67.4996 45.1 67.8996 44.7 68.0996C44.3 68.1996 43.9 68.3996 43.4 68.4996C41 69.1996 38.2 69.6996 34.9 69.8996H34.5C33.2 69.9996 31.8 69.9996 30.4 69.9996C28.8 69.9996 27.2 69.9996 25.5 69.8996C31.5 76.6996 41 80.6996 52.8 80.6996C74.2 80.6996 92.8 72.5996 103.6 54.6996H18.5V54.5996Z" fill="#028BB8"/>
<path d="M23.2998 54.5996C24.5998 60.3996 27.5998 64.9996 32.0998 68.0996C36.9998 67.9996 40.9998 67.3996 44.0998 66.3996C44.5998 66.1996 44.9998 66.4996 45.1998 66.8996C45.3998 67.3996 45.0998 67.7996 44.6998 67.9996C44.2998 68.0996 43.8998 68.2996 43.3998 68.3996C40.9998 69.0996 38.1998 69.5996 34.7998 69.7996C43.2998 74.1996 55.5998 74.0996 69.6998 68.6996C78.1998 65.3996 86.4998 60.4996 93.8998 54.5996H23.2998Z" fill="#019BC6"/>
<path fill-rule="evenodd" clip-rule="evenodd" d="M28.2002 35.4998H38.0002V45.2998H28.2002V35.4998ZM29.0002 36.3998H29.8002V44.4998H29.0002V36.3998ZM30.5002 36.3998H31.3002V44.4998H30.5002V36.3998ZM32.0002 36.3998H32.8002V44.4998H32.0002V36.3998ZM33.4002 36.3998H34.2002V44.4998H33.4002V36.3998ZM34.9002 36.3998H35.7002V44.4998H34.9002V36.3998ZM36.4002 36.3998H37.2002V44.4998H36.4002V36.3998ZM39.5002 24.2998H49.3002V33.9998H39.5002V24.2998ZM40.3002 25.0998H41.1002V33.1998H40.3002V25.0998ZM41.8002 25.0998H42.6002V33.1998H41.8002V25.0998ZM43.2002 25.0998H44.0002V33.1998H43.2002V25.0998ZM44.7002 25.0998H45.5002V33.1998H44.7002V25.0998ZM46.2002 25.0998H47.0002V33.1998H46.2002V25.0998ZM47.7002 25.0998H48.5002V33.1998H47.7002V25.0998Z" fill="#00ACD3"/>
<path fill-rule="evenodd" clip-rule="evenodd" d="M39.5 35.5H49.3V45.3H39.5V35.5ZM40.3 36.4H41.1V44.5H40.3V36.4ZM41.8 36.4H42.6V44.5H41.8V36.4ZM43.2 36.4H44V44.5H43.2V36.4ZM44.7 36.4H45.5V44.5H44.7V36.4ZM46.2 36.4H47V44.5H46.2V36.4ZM47.7 36.4H48.5V44.5H47.7V36.4Z" fill="#23C2EE"/>
<path fill-rule="evenodd" clip-rule="evenodd" d="M50.7998 35.5H60.5998V45.3H50.7998V35.5ZM51.5998 36.4H52.3998V44.5H51.5998V36.4ZM52.9998 36.4H53.7998V44.5H52.9998V36.4ZM54.4998 36.4H55.2998V44.5H54.4998V36.4ZM55.9998 36.4H56.7998V44.5H55.9998V36.4ZM57.4998 36.4H58.2998V44.5H57.4998V36.4ZM58.8998 36.4H59.6998V44.5H58.8998V36.4Z" fill="#00ACD3"/>
<path fill-rule="evenodd" clip-rule="evenodd" d="M50.7998 24.2998H60.5998V33.9998H50.7998V24.2998ZM51.5998 25.0998H52.3998V33.1998H51.5998V25.0998ZM52.9998 25.0998H53.7998V33.1998H52.9998V25.0998ZM54.4998 25.0998H55.2998V33.1998H54.4998V25.0998ZM55.9998 25.0998H56.7998V33.1998H55.9998V25.0998ZM57.4998 25.0998H58.2998V33.1998H57.4998V25.0998ZM58.8998 25.0998H59.6998V33.1998H58.8998V25.0998ZM61.9998 35.4998H71.7998V45.2998H61.9998V35.4998ZM62.8998 36.3998H63.6998V44.4998H62.8998V36.3998ZM64.2998 36.3998H65.0998V44.4998H64.2998V36.3998ZM65.7998 36.3998H66.5998V44.4998H65.7998V36.3998ZM67.2998 36.3998H68.0998V44.4998H67.2998V36.3998ZM68.6998 36.3998H69.4998V44.4998H68.6998V36.3998ZM70.1998 36.3998H70.9998V44.4998H70.1998V36.3998Z" fill="#23C2EE"/>
<path fill-rule="evenodd" clip-rule="evenodd" d="M62 24.2998H71.8V33.9998H62V24.2998ZM62.9 25.0998H63.7V33.1998H62.9V25.0998ZM64.3 25.0998H65.1V33.1998H64.3V25.0998ZM65.8 25.0998H66.6V33.1998H65.8V25.0998ZM67.3 25.0998H68.1V33.1998H67.3V25.0998ZM68.7 25.0998H69.5V33.1998H68.7V25.0998ZM70.2 25.0998H71V33.1998H70.2V25.0998Z" fill="#00ACD3"/>
<path fill-rule="evenodd" clip-rule="evenodd" d="M62 13H71.8V22.8H62V13ZM62.9 13.8H63.7V22H62.9V13.8ZM64.3 13.8H65.1V22H64.3V13.8ZM65.8 13.8H66.6V22H65.8V13.8ZM67.3 13.8H68.1V22H67.3V13.8ZM68.7 13.8H69.5V22H68.7V13.8ZM70.2 13.8H71V22H70.2V13.8Z" fill="#23C2EE"/>
<path fill-rule="evenodd" clip-rule="evenodd" d="M73.2998 35.5H83.0998V45.3H73.2998V35.5ZM74.0998 36.4H74.8998V44.5H74.0998V36.4ZM75.5998 36.4H76.3998V44.5H75.5998V36.4ZM77.0998 36.4H77.8998V44.5H77.0998V36.4ZM78.4998 36.4H79.2998V44.5H78.4998V36.4ZM79.9998 36.4H80.7998V44.5H79.9998V36.4ZM81.4998 36.4H82.2998V44.5H81.4998V36.4Z" fill="#00ACD3"/>
<path fill-rule="evenodd" clip-rule="evenodd" d="M48.5999 61.2002C50.0999 61.2002 51.2999 62.4002 51.2999 63.9002C51.2999 65.4002 50.0999 66.6002 48.5999 66.6002C47.0999 66.6002 45.8999 65.4002 45.8999 63.9002C45.9999 62.4002 47.1999 61.2002 48.5999 61.2002Z" fill="#D4EEF1"/>
<path fill-rule="evenodd" clip-rule="evenodd" d="M48.6 61.9004C48.8 61.9004 49.1 61.9004 49.3 62.0004C49.1 62.1004 48.9 62.4004 48.9 62.7004C48.9 63.1004 49.3 63.5004 49.7 63.5004C50 63.5004 50.3 63.3004 50.4 63.1004C50.5 63.3004 50.5 63.6004 50.5 63.8004C50.5 64.9004 49.6 65.7004 48.6 65.7004C47.5 65.7004 46.7 64.8004 46.7 63.8004C46.7 62.8004 47.6 61.9004 48.6 61.9004ZM1 55.6004H126.3C123.6 54.9004 117.7 54.0004 118.6 50.4004C113.6 56.1004 101.7 54.4004 98.6 51.6004C95.2 56.5004 75.6 54.6004 74.3 50.8004C70.1 55.8004 57 55.8004 52.8 50.8004C51.4 54.6004 31.8 56.5004 28.5 51.6004C25.5 54.4004 13.5 56.1004 8.5 50.4004C9.6 53.9004 3.7 54.9004 1 55.6004Z" fill="#3A4D54"/>
<path d="M55.8002 80.6004C49.1002 77.4004 45.5002 73.1004 43.4002 68.4004C40.9002 69.1004 37.9002 69.6004 34.5002 69.8004C33.2002 69.9004 31.8002 69.9004 30.4002 69.9004C28.7002 69.9004 27.0002 69.9004 25.2002 69.8004C31.3002 75.9004 38.9002 80.6004 52.8002 80.7004C53.8002 80.6004 54.8002 80.6004 55.8002 80.6004Z" fill="#BFDBE0"/>
<path d="M45.9 72.7004C45 71.4004 44.1 69.9004 43.4 68.4004C40.9 69.1004 37.9 69.6004 34.5 69.8004C36.9 71.1004 40.3 72.3004 45.9 72.7004Z" fill="#D4EEF1"/>
</svg>
