<svg width="129" height="128" viewBox="0 0 129 128" fill="none" xmlns="http://www.w3.org/2000/svg">
<path d="M89.1999 86.7999C95.1999 79.4999 97.9999 71.0999 97.6999 61.5999C97.5999 59.1999 97.1999 56.8999 96.5999 54.5999C94.9999 48.4999 91.7999 43.2999 87.6999 38.6999C84.3999 34.9999 80.9999 31.3999 77.6999 27.7999L58.6999 6.99993C57.3999 5.59993 56.0999 4.29993 54.6999 3.09993C51.9999 0.999926 48.9999 0.599926 45.7999 1.59993C44.8999 1.89993 43.9999 2.29993 43.1999 2.79993C42.5999 3.09993 42.0999 3.59993 41.6999 4.09993C39.9999 6.19993 39.5999 8.69993 39.8999 11.1999C40.0999 13.2999 41.1999 15.0999 42.5999 16.6999C45.3999 19.6999 48.0999 22.6999 50.8999 25.7999L53.2999 28.4999C53.1999 28.5999 53.1999 28.6999 53.0999 28.6999L52.4999 28.9999C46.7999 31.6999 41.4999 35.0999 36.9999 39.4999C33.9999 42.3999 31.2999 45.5999 29.4999 49.3999C26.6999 55.3999 25.8999 61.6999 26.3999 68.2999C26.5999 71.0999 27.2999 73.6999 28.1999 76.2999C29.7999 80.4999 32.2999 84.1999 35.3999 87.4999C41.8999 94.4999 49.8999 98.1999 59.3999 98.7999C61.1999 98.8999 63.0999 98.7999 64.9999 98.6999C67.4999 98.5999 69.8999 98.0999 72.2999 97.4999C79.1999 95.7999 84.7999 92.1999 89.1999 86.7999ZM83.7999 65.4999C82.6999 68.3999 80.8999 70.7999 78.6999 72.8999L64.8999 85.8999C63.8999 86.7999 62.8999 87.7999 61.7999 88.4999C58.8999 90.4999 54.1999 89.0999 52.8999 85.3999C52.4999 84.0999 52.6999 82.7999 53.2999 81.5999C54.1999 79.7999 55.3999 78.2999 56.7999 76.8999C58.8999 74.6999 61.0999 72.5999 63.1999 70.4999C63.2999 70.3999 63.4999 70.1999 63.5999 69.9999H55.9999L50.3999 70.0999C47.9999 70.0999 45.5999 69.9999 43.0999 69.8999C42.1999 69.8999 41.2999 69.7999 40.4999 69.6999C38.0999 69.1999 36.7999 67.5999 36.2999 65.1999C35.7999 62.7999 36.3999 60.4999 38.1999 58.6999C39.1999 57.6999 40.3999 57.2999 41.6999 57.1999C43.8999 57.0999 46.0999 57.1999 48.2999 57.1999H63.5999C62.8999 56.3999 62.0999 55.5999 61.1999 54.7999C58.9999 52.5999 56.7999 50.4999 54.6999 48.2999C53.3999 46.8999 52.4999 45.2999 52.3999 43.3999C52.3999 42.4999 52.5999 41.5999 53.0999 40.7999C54.2999 38.7999 56.1999 37.7999 58.4999 37.6999C60.6999 37.5999 62.4999 38.4999 63.9999 39.8999C66.4999 42.1999 68.7999 44.6999 71.1999 47.0999C73.6999 49.5999 76.1999 52.0999 78.6999 54.6999C80.2999 56.2999 81.7999 58.0999 82.8999 60.0999C83.4999 61.1999 83.9999 62.3999 83.9999 63.5999C84.0999 64.2999 83.9999 64.8999 83.7999 65.4999ZM14.9999 110.4C13.9999 108.8 12.1999 108.1 10.3999 108.1C8.3999 108.1 6.7999 108.8 5.3999 110.3C4.0999 111.8 3.3999 113.9 3.3999 116.8C3.3999 119.6 4.0999 121.7 5.4999 123.3C6.8999 124.9 8.4999 125.6 10.4999 125.6C11.3999 125.6 12.4999 125.4 13.3999 124.9C14.2999 124.4 14.9999 123.7 15.9999 122.8V125.1H19.9999V102.1H14.9999V110.4ZM14.3999 120.7C13.6999 121.6 12.7999 122 11.7999 122C10.4999 122 9.4999 121.4 8.7999 120.3C8.2999 119.5 8.0999 118.2 8.0999 116.4C8.0999 114.7 8.4999 113.5 9.1999 112.6C9.8999 111.8 10.7999 111.3 11.7999 111.3C12.8999 111.3 13.7999 111.7 14.4999 112.6C15.1999 113.4 15.4999 114.8 15.4999 116.8C15.4999 118.6 15.0999 119.9 14.3999 120.7ZM31.8999 108C30.2999 108 28.7999 108.4 27.3999 109.1C26.0999 109.8 24.9999 110.9 24.2999 112.3C23.5999 113.7 23.1999 115.1 23.1999 116.6C23.1999 118.5 23.5999 120.2 24.2999 121.5C24.9999 122.8 26.0999 123.9 27.4999 124.6C28.8999 125.3 30.3999 125.6 31.8999 125.6C34.3999 125.6 36.3999 124.8 38.0999 123.1C39.6999 121.4 40.5999 119.3 40.5999 116.8C40.5999 114.3 39.7999 112.2 38.1999 110.6C36.4999 108.8 34.3999 108 31.8999 108ZM34.7999 120.6C33.9999 121.5 32.9999 121.9 31.8999 121.9C30.6999 121.9 29.7999 121.5 28.9999 120.6C28.1999 119.7 27.7999 118.4 27.7999 116.8C27.7999 115.2 28.1999 113.9 28.9999 113C29.7999 112.1 30.7999 111.7 31.8999 111.7C33.0999 111.7 33.9999 112.1 34.7999 113C35.5999 113.9 35.9999 115.1 35.9999 116.8C35.9999 118.4 35.5999 119.7 34.7999 120.6ZM53.3999 121.2C52.8999 121.7 52.1999 121.9 51.2999 121.9C50.1999 121.9 49.2999 121.5 48.5999 120.7C47.8999 119.9 47.5999 118.5 47.5999 116.5C47.5999 114.7 47.8999 113.4 48.5999 112.7C49.2999 111.9 50.0999 111.6 51.1999 111.6C51.9999 111.6 52.6999 111.8 53.1999 112.3C53.6999 112.8 54.0999 113.4 54.1999 114.3L58.5999 113.5C58.0999 111.7 57.1999 110.4 55.9999 109.5C54.7999 108.6 53.1999 108.2 51.0999 108.2C48.5999 108.2 46.5999 109 45.1999 110.5C43.6999 112 42.9999 114.2 42.9999 117C42.9999 119.7 43.6999 121.9 45.1999 123.4C46.6999 124.9 48.5999 125.7 51.0999 125.7C53.2999 125.7 54.9999 125.2 56.2999 124.2C57.5999 123.2 58.4999 121.7 58.8999 119.7L54.4999 119C54.2999 119.9 53.8999 120.7 53.3999 121.2ZM67.8999 121.9C67.5999 121.9 67.3999 121.8 67.0999 121.7C66.8999 121.6 66.8999 121.4 66.8999 121.1C66.7999 120.9 66.9999 120.1 66.9999 118.7V112H69.9999V108H66.9999V102.5L61.9999 105.1V108H59.9999V112H61.9999V119.3C61.9999 120.9 62.1999 121.9 62.1999 122.4C62.2999 123.1 62.5999 123.7 62.8999 124.1C63.1999 124.5 63.6999 124.9 64.2999 125.1C64.8999 125.4 65.6999 125.5 66.4999 125.5C67.7999 125.5 68.9999 125.3 69.9999 124.8L69.5999 121.4C68.8999 121.7 68.2999 121.9 67.8999 121.9ZM78.7999 108.6C78.1999 109 76.9999 109.7 76.9999 110.8V108H72.9999V125H76.9999V120C76.9999 117.1 77.0999 115.3 77.3999 114.4C77.6999 113.5 77.9999 112.9 78.3999 112.5C78.7999 112.2 79.3999 112 79.9999 112C80.5999 112 81.2999 112.2 82.0999 112.7L83.4999 108.8C82.5999 108.2 81.6999 108 80.5999 108C79.8999 108 79.2999 108.2 78.7999 108.6ZM84.9999 108H89.9999V125H84.9999V108ZM84.9999 102H89.9999V106H84.9999V102ZM108.5 109.9C108.1 109.4 107.5 108.9 106.7 108.5C105.9 108.1 104.8 108 103.8 108C101.6 108 99.9999 108.9 97.9999 110.8V108H93.9999V125H98.9999V117.6C98.9999 115.7 98.9999 114.4 99.1999 113.7C99.3999 113 99.7999 112.4 100.4 112C101 111.6 101.7 111.4 102.4 111.4C103 111.4 103.5 111.5 103.9 111.8C104.3 112.1 104.5 112.5 104.7 113C104.9 113.5 104.9 114.7 104.9 116.5V124.9H109.9V114.7C109.9 113.4 109.6 112.4 109.5 111.7C109.4 111.1 108.9 110.5 108.5 109.9ZM122.8 121.7C122.3 122.1 121.7 122.3 121 122.3C120 122.3 119.1 121.9 118.4 121.2C117.7 120.5 117.4 119.1 117.3 118.1H128.4C128.5 115.1 127.8 112.2 126.3 110.6C124.9 109 122.9 108.1 120.4 108.1C118.2 108.1 116.3 108.9 114.9 110.5C113.4 112.1 112.7 114.3 112.7 117C112.7 119.3 113.3 121.3 114.4 122.8C115.8 124.7 118 125.7 120.9 125.7C122.7 125.7 124.3 125.3 125.5 124.4C126.7 123.6 127.6 122.3 128.2 120.7L123.8 120C123.6 120.7 123.2 121.3 122.8 121.7ZM118.4 112.3C119 111.6 119.8 111.3 120.8 111.3C121.7 111.3 122.5 111.5 123.1 112.2C123.7 112.9 124.1 114 124.1 115H117.5C117.4 114 117.8 113 118.4 112.3Z" fill="#F56D39"/>
</svg>
