<svg width="128" height="128" viewBox="0 0 128 128" fill="none" xmlns="http://www.w3.org/2000/svg">
<path d="M55.4001 28.0001C54.6001 27.1001 53.8001 26.2001 53.0001 25.4001L44.7001 16.4001C43.3001 14.8001 42.2001 13.0001 42.0001 10.9001C41.7001 8.30012 42.0001 5.90012 43.8001 3.80012C44.2001 3.30012 44.8001 2.90012 45.3001 2.50012C46.1 2.00012 47.0001 1.60012 47.9001 1.30012C51.1001 0.300121 54.1001 0.700121 56.7001 2.80012C58.1001 4.00012 59.4001 5.30012 60.7001 6.70012C67.0001 13.5001 73.3001 20.4001 79.6001 27.3001C82.9001 30.9001 86.3001 34.5001 89.5001 38.2001C93.6001 42.8001 96.7001 48.0001 98.3001 54.0001C98.9001 56.3001 99.3001 58.6001 99.4001 60.9001C99.8001 70.3001 97.0001 78.7001 91.0001 86.0001C86.6001 91.4001 81.0001 94.9001 74.3001 96.7001C71.9001 97.3001 69.5001 97.7001 67.0001 97.9001C65.2001 98.0001 63.3001 98.1001 61.5001 98.0001C52.1001 97.5001 44.1001 93.7001 37.6001 86.8001C34.5001 83.5001 32.1001 79.9001 30.4001 75.7001C29.4001 73.1001 28.8001 70.5001 28.6001 67.8001C28.1001 61.3001 28.9001 55.0001 31.7001 49.1001C33.5001 45.3001 36.1001 42.1001 39.1001 39.2001C43.6001 34.8001 48.8001 31.4001 54.5001 28.7001L55.1 28.4001C55.3001 28.2001 55.3001 28.1001 55.4001 28.0001ZM65.7001 69.4001C65.5 69.6001 65.4001 69.7001 65.3001 69.9001L58.9001 76.2001C57.5001 77.6001 56.3001 79.1001 55.5001 80.9001C54.9001 82.1001 54.7001 83.4001 55.1 84.7001C56.4 88.4001 61.0001 89.8001 63.9001 87.8001C65.0001 87.0001 66.0001 86.1001 67.0001 85.2001L80.7001 72.3001C82.9001 70.2001 84.7001 67.8001 85.7001 64.9001C85.9001 64.3001 86.0001 63.7001 86.0001 63.1001C86.0001 61.8001 85.5001 60.7001 84.9001 59.6001C83.8001 57.6001 82.3 55.9001 80.7001 54.2001L73.2001 46.7001C70.8 44.3001 68.5001 41.9001 66.0001 39.6001C64.5001 38.2001 62.7001 37.3001 60.6001 37.4001C58.3001 37.5001 56.4001 38.5001 55.2001 40.5001C54.7001 41.3001 54.5001 42.2001 54.5001 43.1001C54.6001 45.0001 55.5001 46.7001 56.8001 48.0001C58.9001 50.2001 61.1001 52.3001 63.3001 54.4001C64.1001 55.2001 64.9001 56.1001 65.6001 56.8001H50.4001C48.2001 56.8001 46.0001 56.7001 43.9001 56.8001C42.6001 56.9001 41.4001 57.3001 40.4001 58.3001C38.6001 60.1001 38.1001 62.3001 38.5001 64.8001C38.9001 67.1001 40.3001 68.7001 42.7001 69.2001C43.5001 69.4001 44.4001 69.4001 45.3001 69.4001C47.7001 69.5001 50.1001 69.6001 52.5001 69.6001L58.1 69.5001H62.5001C63.5001 69.4001 64.5 69.4001 65.7001 69.4001Z" fill="#F56D39"/>
<path d="M65.6999 69.3996H58.0999L52.4999 69.4996C50.0999 69.4996 47.6999 69.3996 45.2999 69.2996C44.3999 69.2996 43.5999 69.1996 42.6999 69.0996C40.2999 68.5996 38.9999 66.9996 38.4999 64.6996C37.9999 62.2996 38.5999 59.9996 40.3999 58.1996C41.3999 57.2996 42.5999 56.7996 43.8999 56.6996C46.0999 56.5996 48.1999 56.6996 50.3999 56.6996H65.5999C64.8999 55.8996 64.0999 55.0996 63.2999 54.2996C61.0999 52.0996 58.8999 50.0996 56.7999 47.8996C55.4999 46.4996 54.5999 44.8996 54.4999 42.9996C54.4999 42.0996 54.6999 41.1996 55.1999 40.3996C56.3999 38.3996 58.2999 37.4996 60.5999 37.2996C62.7999 37.1996 64.4999 38.0996 65.9999 39.4996C68.3999 41.7996 70.7999 44.1996 73.1999 46.5996L80.6999 54.0996C82.2999 55.6996 83.7999 57.4996 84.8999 59.4996C85.4999 60.5996 85.9999 61.6996 85.9999 62.9996C85.9999 63.5996 85.8999 64.1996 85.6999 64.7996C84.5999 67.6996 82.8999 70.0996 80.6999 72.1996C76.1999 76.4996 71.5999 80.7996 66.9999 85.0996C65.9999 85.9996 64.9999 86.8996 63.8999 87.6996C60.9999 89.6996 56.2999 88.2996 55.0999 84.5996C54.6999 83.2996 54.8999 81.9996 55.4999 80.7996C56.3999 78.9996 57.5999 77.4996 58.8999 76.0996L65.2999 69.7996C65.3999 69.6996 65.4999 69.4996 65.6999 69.3996Z" fill="white"/>
<path d="M17.9 125.2H13.8V122.7C13.1 123.7 12.3 124.4 11.4 124.8C10.5 125.3 9.5 125.5 8.6 125.5C6.7 125.5 5 124.7 3.6 123.2C2.2 121.6 1.5 119.5 1.5 116.7C1.5 113.9 2.2 111.7 3.5 110.2C4.8 108.7 6.5 108 8.6 108C10.5 108 12.1 108.8 13.5 110.3V102H17.9V125.2ZM6 116.4C6 118.2 6.2 119.5 6.7 120.3C7.4 121.5 8.4 122 9.7 122C10.7 122 11.6 121.6 12.3 120.7C13 119.8 13.4 118.5 13.4 116.8C13.4 114.9 13.1 113.5 12.4 112.6C11.7 111.8 10.8 111.3 9.7 111.3C8.6 111.3 7.8 111.7 7.1 112.6C6.4 113.5 6 114.8 6 116.4ZM21.2 116.6C21.2 115.1 21.6 113.7 22.3 112.3C23 110.9 24.1 109.9 25.4 109.1C26.7 108.4 28.2 108 29.9 108C32.4 108 34.5 108.8 36.1 110.5C37.7 112.1 38.5 114.2 38.5 116.7C38.5 119.2 37.7 121.3 36 123C34.4 124.7 32.3 125.5 29.8 125.5C28.3 125.5 26.8 125.2 25.4 124.5C24 123.8 22.9 122.8 22.2 121.4C21.6 120.1 21.2 118.5 21.2 116.6ZM25.8 116.8C25.8 118.5 26.2 119.7 27 120.6C27.8 121.5 28.8 121.9 29.9 121.9C31.1 121.9 32 121.5 32.8 120.6C33.6 119.7 34 118.4 34 116.7C34 115.1 33.6 113.8 32.8 112.9C32 112 31 111.6 29.9 111.6C28.7 111.6 27.8 112 27 112.9C26.2 113.9 25.8 115.1 25.8 116.8ZM56.6 113.4L52.2 114.2C52.1 113.3 51.7 112.7 51.2 112.2C50.7 111.7 50 111.5 49.2 111.5C48.1 111.5 47.2 111.9 46.6 112.6C45.9 113.4 45.6 114.6 45.6 116.4C45.6 118.4 45.9 119.8 46.6 120.6C47.3 121.4 48.2 121.8 49.3 121.8C50.1 121.8 50.8 121.6 51.4 121.1C51.9 120.6 52.3 119.8 52.5 118.6L56.9 119.3C56.4 121.3 55.6 122.8 54.3 123.8C53 124.8 51.3 125.3 49.1 125.3C46.6 125.3 44.7 124.5 43.2 123C41.7 121.5 41 119.3 41 116.6C41 113.8 41.7 111.7 43.2 110.1C44.7 108.6 46.6 107.8 49.1 107.8C51.1 107.8 52.8 108.2 54 109.1C55.3 110.2 56.1 111.6 56.6 113.4ZM67.7 108.4V111.9H64.7V118.7C64.7 120.1 64.7 120.9 64.8 121.1C64.9 121.3 65 121.5 65.2 121.7C65.4 121.8 65.7 121.9 66 121.9C66.4 121.9 67 121.8 67.8 121.5L68.2 124.9C67.2 125.3 66 125.6 64.7 125.6C63.9 125.6 63.2 125.5 62.5 125.2C61.9 124.9 61.4 124.6 61.1 124.2C60.8 123.8 60.6 123.2 60.5 122.5C60.4 122 60.4 120.9 60.4 119.4V112.1H58.4V108.6H60.4V105.3L64.9 102.7V108.6H67.7V108.4ZM75 125.2H70.6V108.4H74.7V110.8C75.4 109.7 76 108.9 76.6 108.6C77.2 108.3 77.8 108.1 78.5 108.1C79.5 108.1 80.5 108.4 81.4 108.9L80 112.8C79.3 112.3 78.6 112.1 77.9 112.1C77.3 112.1 76.8 112.3 76.3 112.6C75.9 112.9 75.5 113.6 75.3 114.5C75.1 115.4 75 117.1 75 120V125.2ZM83.4 106.1V102H87.8V106.1H83.4ZM83.4 125.2V108.4H87.8V125.2H83.4ZM107.6 125.2H103.2V116.6C103.2 114.8 103.1 113.6 102.9 113.1C102.7 112.6 102.4 112.2 102 111.9C101.6 111.6 101.1 111.5 100.5 111.5C99.7 111.5 99 111.7 98.4 112.1C97.8 112.5 97.4 113.1 97.1 113.8C96.9 114.5 96.8 115.8 96.8 117.7V125.3H92.4V108.5H96.5V111C98 109.1 99.8 108.2 102 108.2C103 108.2 103.9 108.4 104.7 108.7C105.5 109.1 106.1 109.5 106.5 110.1C106.9 110.6 107.2 111.3 107.4 112C107.6 112.7 107.6 113.7 107.6 115V125.2ZM121.8 119.8L126.2 120.5C125.6 122.1 124.7 123.4 123.5 124.2C122.3 125 120.7 125.5 118.9 125.5C116 125.5 113.8 124.5 112.4 122.6C111.3 121.1 110.7 119.1 110.7 116.8C110.7 114 111.4 111.8 112.9 110.3C114.4 108.7 116.2 107.9 118.4 107.9C120.9 107.9 122.9 108.7 124.3 110.4C125.7 112 126.4 114.6 126.4 118H115.3C115.3 119.3 115.7 120.3 116.4 121.1C117.1 121.8 117.9 122.2 119 122.2C119.7 122.2 120.3 122 120.8 121.6C121.2 121.3 121.6 120.7 121.8 119.8ZM122.1 115.4C122.1 114.1 121.7 113.1 121.1 112.5C120.5 111.9 119.7 111.5 118.8 111.5C117.8 111.5 117 111.9 116.4 112.6C115.8 113.3 115.5 114.3 115.5 115.5H122.1V115.4Z" fill="#141414"/>
</svg>
