<svg width="128" height="128" viewBox="0 0 128 128" fill="none" xmlns="http://www.w3.org/2000/svg">
<path d="M52.8001 36.3002C51.7001 35.1002 50.7001 34.0002 49.7001 32.9002C46.1001 29.0002 42.5001 25.1002 39.0001 21.2002C37.1001 19.2002 35.8001 16.8002 35.5001 14.1002C35.1001 10.8002 35.6001 7.5002 37.8001 4.9002C38.3001 4.2002 39.1001 3.7002 39.8001 3.2002C40.9001 2.6002 42.0001 2.0002 43.2001 1.6002C47.3001 0.300203 51.3001 0.800203 54.7001 3.6002C56.6001 5.1002 58.2001 6.9002 59.9001 8.7002L84.5001 35.5002C88.8001 40.2002 93.2001 44.8002 97.4001 49.7002C102.7 55.7002 106.8 62.5002 108.9 70.3002C109.7 73.3002 110.2 76.2002 110.3 79.3002C110.8 91.6002 107.1 102.4 99.4001 111.9C93.7001 118.9 86.4001 123.5 77.6001 125.8C74.5001 126.6 71.3001 127.2 68.1001 127.3C65.7001 127.4 63.3001 127.5 60.9001 127.4C48.6001 126.7 38.2001 121.9 29.8001 112.8C25.8001 108.5 22.6001 103.8 20.5001 98.3002C19.2001 95.0002 18.4001 91.5002 18.1001 88.0002C17.5001 79.5002 18.5001 71.3002 22.2001 63.6002C24.5001 58.6002 28.0001 54.5002 31.9001 50.7002C37.8001 45.0002 44.6001 40.5002 52.0001 37.1002C52.3001 37.0002 52.5001 36.9002 52.8001 36.7002C52.6001 36.5002 52.7001 36.4002 52.8001 36.3002ZM66.2001 90.1002L65.6001 90.7002C62.8001 93.5002 60.0001 96.2002 57.3001 99.0002C55.5001 100.8 53.9001 102.8 52.8001 105.1C52.0001 106.7 51.7001 108.3 52.3001 110C53.9001 114.8 60.0001 116.6 63.8001 114C65.2001 113 66.6001 111.8 67.8001 110.6C73.8001 105 79.7001 99.4002 85.6001 93.8002C88.5001 91.1002 90.8001 87.9002 92.2001 84.2002C92.5001 83.5002 92.6001 82.6002 92.6001 81.8002C92.6001 80.2002 91.9001 78.7002 91.1001 77.2002C89.7001 74.6002 87.7001 72.3002 85.6001 70.2002L75.9001 60.4002C72.8001 57.3002 69.8001 54.1002 66.6001 51.1002C64.7001 49.3002 62.3001 48.1002 59.5001 48.2002C56.5001 48.4002 54.1001 49.6002 52.5001 52.2002C51.9001 53.2002 51.5001 54.4002 51.6001 55.6002C51.7001 58.1002 52.9001 60.2002 54.6001 62.0002C57.4001 64.9002 60.2001 67.6002 63.1001 70.4002C64.2001 71.5002 65.2001 72.6002 66.1001 73.6002H46.3001C43.5001 73.6002 40.6001 73.5002 37.8001 73.7002C36.1001 73.8002 34.5001 74.4002 33.2001 75.6002C30.8001 77.9002 30.1001 80.8002 30.7001 84.0002C31.3001 87.0002 33.0001 89.1002 36.1001 89.8002C37.2001 90.0002 38.3001 90.1002 39.5001 90.1002L48.9001 90.4002C51.3001 90.4002 53.7001 90.3002 56.2001 90.3002H61.9001C63.3001 90.1002 64.7001 90.1002 66.2001 90.1002Z" fill="#F56D39"/>
<path d="M66.2002 90.1002H56.3002C53.9002 90.1002 51.5002 90.2002 49.0002 90.2002C45.9002 90.2002 42.7002 90.1002 39.6002 89.9002C38.5002 89.9002 37.3002 89.8002 36.2002 89.6002C33.1002 88.9002 31.3002 86.8002 30.8002 83.8002C30.2002 80.6002 30.9002 77.7002 33.3002 75.4002C34.6002 74.2002 36.2002 73.6002 37.9002 73.5002C40.7002 73.4002 43.6002 73.4002 46.4002 73.4002H66.2002C65.2002 72.4002 64.2002 71.3002 63.2002 70.2002C60.4002 67.4002 57.5002 64.7002 54.7002 61.8002C53.0002 60.0002 51.9002 57.9002 51.7002 55.4002C51.6002 54.2002 52.0002 53.1002 52.6002 52.0002C54.2002 49.4002 56.6002 48.2002 59.6002 48.0002C62.4002 47.8002 64.7002 49.0002 66.7002 50.9002C69.9002 53.9002 72.9002 57.1002 76.0002 60.2002C79.3002 63.5002 82.5002 66.7002 85.7002 70.0002C87.8002 72.1002 89.7002 74.4002 91.2002 77.0002C92.0002 78.4002 92.6002 79.9002 92.7002 81.6002C92.7002 82.4002 92.6002 83.2002 92.3002 84.0002C90.9002 87.7002 88.6002 90.9002 85.7002 93.6002L67.9002 110.4C66.6002 111.6 65.3002 112.8 63.9002 113.8C60.2002 116.4 54.1002 114.6 52.4002 109.8C51.8002 108.2 52.1002 106.5 52.9002 104.9C54.0002 102.6 55.6002 100.6 57.4002 98.8002C60.1002 96.0002 62.9002 93.3002 65.7002 90.5002L66.2002 90.1002Z" fill="white"/>
</svg>
