<svg width="128" height="128" viewBox="0 0 128 128" fill="none" xmlns="http://www.w3.org/2000/svg">
<path d="M100.5 61.2002C100.4 58.9002 99.9999 56.5002 99.3999 54.0002C97.8999 48.2002 94.8999 42.9002 90.3999 37.8002C88.1999 35.3002 85.7999 32.7002 83.5999 30.3002L80.5999 27.0002L75.8999 21.9002C71.2999 16.8002 66.5999 11.8002 61.8999 6.70024C60.6999 5.40024 59.2999 3.90024 57.7999 2.70024C54.8999 0.400241 51.3999 -0.19976 47.6999 1.00024C46.5999 1.30024 45.6999 1.90024 44.7999 2.30024C44.0999 2.70024 43.3999 3.30024 42.8999 3.90024C41.0999 6.00024 40.3999 8.70024 40.7999 12.0002C40.9999 14.2002 41.9999 16.3002 43.8999 18.3002L50.5999 25.6002L53.0999 28.4002C47.4999 31.1002 42.5999 34.5002 38.4999 38.5002C34.8999 41.9002 32.4999 45.2002 30.8999 48.7002C28.1999 54.4002 27.1999 60.7002 27.6999 68.0002C27.8999 70.7002 28.4999 73.5002 29.5999 76.3002C31.1999 80.4002 33.5999 84.1003 36.9999 87.8002C43.5999 94.9002 51.8999 98.8002 61.5999 99.3002L63.4999 99.4002C64.7999 99.4002 65.9999 99.3002 67.1999 99.3002C69.4999 99.2002 71.9999 98.8002 74.6999 98.1002C81.5999 96.3002 87.4999 92.6002 91.9999 87.1002C97.8999 79.6002 100.8 70.9002 100.5 61.2002ZM89.4999 85.1002C85.3999 90.1002 80.0999 93.5002 73.7999 95.1002C71.2999 95.7002 68.9999 96.1002 66.8999 96.2002C65.0999 96.3002 63.3999 96.4002 61.5999 96.3002C52.6999 95.8002 45.0999 92.2002 39.0999 85.7002C35.9999 82.3002 33.7999 78.9002 32.2999 75.2002C31.2999 72.7002 30.7999 70.2002 30.5999 67.8002C30.0999 61.0002 31.0999 55.2002 33.4999 50.0002C34.9999 46.8002 37.1999 43.9002 40.4999 40.7002C44.6999 36.6002 49.5999 33.3002 55.2999 30.6002L55.8999 30.3002C56.1999 30.2002 56.2999 30.0002 56.4999 29.8002L57.4999 28.8002L52.6999 23.6002L45.9999 16.3002C44.5999 14.8002 43.8999 13.3002 43.6999 11.7002C43.3999 9.20024 43.8999 7.30024 45.0999 5.80024C45.3999 5.50024 45.7999 5.10024 46.1999 4.90024C46.8999 4.50024 47.6999 4.10024 48.3999 3.80024C49.3999 3.50024 50.2999 3.40024 51.0999 3.40024C52.7999 3.40024 54.2999 3.90024 55.5999 5.10024C56.9999 6.20024 58.1999 7.50024 59.3999 8.80024L73.3999 24.0002L78.0999 29.1002L81.0999 32.4002C83.2999 34.8002 85.6999 37.3002 87.8999 39.8002C92.0999 44.6002 94.8999 49.5002 96.2999 54.8002C96.8999 57.1002 97.1999 59.2002 97.2999 61.3002C97.7999 70.3002 95.0999 78.2002 89.4999 85.1002ZM81.4999 53.5002L75.2999 47.2002L74.0999 46.0002L72.1999 44.1002C70.4999 42.4002 68.7999 40.6002 66.9999 38.9002C64.9999 37.0002 62.8999 36.2002 60.4999 36.3002C57.5999 36.5002 55.3999 37.7002 53.9999 40.0002C53.3999 41.0002 52.9999 42.2002 53.0999 43.4002C53.1999 45.5002 54.0999 47.5002 55.7999 49.2002L59.9999 53.4002C60.6999 54.1002 61.3999 54.8002 62.0999 55.4002H46.9999C45.8999 55.4002 44.8999 55.4002 44.0999 55.5002C42.3999 55.6002 40.7999 56.2002 39.6999 57.4002C37.5999 59.4002 36.7999 62.1002 37.3999 65.1002C37.9999 68.1002 39.7999 70.1002 42.6999 70.7002C43.6999 70.9002 44.6999 70.9002 45.4999 71.0002C47.8999 71.1002 50.2999 71.2002 52.6999 71.2002H62.0999L57.8999 75.4002C56.1999 77.1002 54.9999 78.7002 54.1999 80.4002C53.3999 82.1002 53.1999 83.7002 53.7999 85.2002C54.7999 88.1002 57.6999 90.1002 60.8999 90.1002C62.2999 90.1002 63.6999 89.7002 64.7999 88.9002C65.9999 88.1002 67.0999 87.1002 67.9999 86.2002L81.4999 73.5002C83.9999 71.1002 85.7999 68.5002 86.7999 65.7002C87.0999 65.0002 87.1999 64.1002 87.1999 63.3002C87.1999 61.6002 86.4999 60.2002 85.8999 59.2002C84.5999 56.8002 82.8999 54.9002 81.4999 53.5002ZM83.9999 64.6002C83.0999 67.0002 81.5999 69.2002 79.3999 71.3002C74.8999 75.6003 70.3999 79.8002 65.8999 84.0002C64.9999 84.9002 63.9999 85.8002 62.9999 86.5002C62.3999 86.9002 61.6999 87.1002 60.7999 87.1002C59.1999 87.1002 57.1999 86.2002 56.4999 84.2002C56.1999 83.4002 56.2999 82.6002 56.7999 81.6002C57.4999 80.2002 58.4999 78.9002 59.8999 77.4002C61.2999 75.9002 62.7999 74.5002 64.1999 73.1002L66.1999 71.2002L66.4999 70.8002L69.0999 68.0002H63.6999L61.9999 68.1002C60.6999 68.1002 59.3999 68.1002 58.0999 68.2002C57.3999 68.2002 56.7999 68.2002 56.0999 68.3002L53.1999 68.4002H52.5999C50.1999 68.4002 47.8999 68.3002 45.4999 68.2002C44.7999 68.2002 43.8999 68.1002 43.1999 68.0002C41.5999 67.7002 40.5999 66.6003 40.2999 64.8002C39.8999 62.7002 40.3999 61.1002 41.6999 59.8002C42.4999 59.0002 43.4999 58.8002 44.1999 58.8002C44.9999 58.8002 45.8999 58.7002 46.8999 58.7002L48.6999 58.9002C49.2999 58.9002 49.8999 59.1002 50.5999 59.1002L69.0999 58.9002L65.9999 55.4002L64.3999 53.6002L62.0999 51.4002C60.6999 50.1002 59.2999 48.7002 57.9999 47.3002C56.8999 46.1002 56.1999 44.8002 56.1999 43.4002C56.1999 42.8002 56.2999 42.2002 56.6999 41.7002C57.5999 40.2002 58.8999 39.5002 60.7999 39.4002C62.2999 39.3002 63.6999 39.9002 64.9999 41.2002C66.6999 42.9002 68.4999 44.6002 70.0999 46.3002L71.9999 48.2002L73.1999 49.4002C75.2999 51.5002 77.3999 53.6002 79.3999 55.7002C80.5999 57.0002 82.1999 58.6002 83.2999 60.7002C83.8999 61.8002 84.1999 62.7002 84.1999 63.5002C84.1999 63.8002 84.0999 64.2002 83.9999 64.6002ZM12.9999 110.4C11.9999 108.8 10.1999 108.1 8.3999 108.1C6.3999 108.1 4.7999 108.8 3.3999 110.3C2.0999 111.8 1.3999 113.9 1.3999 116.8C1.3999 119.6 2.0999 121.7 3.4999 123.3C4.8999 124.9 6.4999 125.6 8.4999 125.6C9.3999 125.6 10.4999 125.4 11.3999 124.9C12.2999 124.4 12.9999 123.7 13.9999 122.8V125.1H17.9999V102.1H12.9999V110.4ZM12.3999 120.7C11.6999 121.6 10.7999 122 9.7999 122C8.4999 122 7.4999 121.4 6.7999 120.3C6.2999 119.5 6.0999 118.2 6.0999 116.4C6.0999 114.7 6.4999 113.5 7.1999 112.6C7.8999 111.8 8.7999 111.3 9.7999 111.3C10.8999 111.3 11.7999 111.7 12.4999 112.6C13.1999 113.4 13.4999 114.8 13.4999 116.8C13.4999 118.6 13.0999 119.9 12.3999 120.7ZM29.8999 108C28.2999 108 26.7999 108.4 25.3999 109.1C24.0999 109.8 22.9999 110.9 22.2999 112.3C21.5999 113.7 21.1999 115.1 21.1999 116.6C21.1999 118.5 21.5999 120.2 22.2999 121.5C22.9999 122.8 24.0999 123.9 25.4999 124.6C26.8999 125.3 28.3999 125.6 29.8999 125.6C32.3999 125.6 34.3999 124.8 36.0999 123.1C37.6999 121.4 38.5999 119.3 38.5999 116.8C38.5999 114.3 37.7999 112.2 36.1999 110.6C34.4999 108.8 32.3999 108 29.8999 108ZM32.7999 120.6C31.9999 121.5 30.9999 121.9 29.8999 121.9C28.6999 121.9 27.7999 121.5 26.9999 120.6C26.1999 119.7 25.7999 118.4 25.7999 116.8C25.7999 115.2 26.1999 113.9 26.9999 113C27.7999 112.1 28.7999 111.7 29.8999 111.7C31.0999 111.7 31.9999 112.1 32.7999 113C33.5999 113.9 33.9999 115.1 33.9999 116.8C33.9999 118.4 33.5999 119.7 32.7999 120.6ZM51.3999 121.2C50.8999 121.7 50.1999 121.9 49.2999 121.9C48.1999 121.9 47.2999 121.5 46.5999 120.7C45.8999 119.9 45.5999 118.5 45.5999 116.5C45.5999 114.7 45.8999 113.4 46.5999 112.7C47.2999 111.9 48.0999 111.6 49.1999 111.6C49.9999 111.6 50.6999 111.8 51.1999 112.3C51.6999 112.8 52.0999 113.4 52.1999 114.3L56.5999 113.5C56.0999 111.7 55.1999 110.4 53.9999 109.5C52.7999 108.6 51.1999 108.2 49.0999 108.2C46.5999 108.2 44.5999 109 43.1999 110.5C41.6999 112 40.9999 114.2 40.9999 117C40.9999 119.7 41.6999 121.9 43.1999 123.4C44.6999 124.9 46.5999 125.7 49.0999 125.7C51.2999 125.7 52.9999 125.2 54.2999 124.2C55.5999 123.2 56.4999 121.7 56.8999 119.7L52.4999 119C52.2999 119.9 51.8999 120.7 51.3999 121.2ZM65.8999 121.9C65.5999 121.9 65.3999 121.8 65.0999 121.7C64.8999 121.6 64.8999 121.4 64.8999 121.1C64.7999 120.9 64.9999 120.1 64.9999 118.7V112H67.9999V108H64.9999V102.5L59.9999 105.1V108H57.9999V112H59.9999V119.3C59.9999 120.9 60.1999 121.9 60.1999 122.4C60.2999 123.1 60.5999 123.7 60.8999 124.1C61.1999 124.5 61.6999 124.9 62.2999 125.1C62.8999 125.4 63.6999 125.5 64.4999 125.5C65.7999 125.5 66.9999 125.3 67.9999 124.8L67.5999 121.4C66.8999 121.7 66.2999 121.9 65.8999 121.9ZM76.7999 108.6C76.1999 109 74.9999 109.7 74.9999 110.8V108H70.9999V125H74.9999V120C74.9999 117.1 75.0999 115.3 75.3999 114.4C75.6999 113.5 75.9999 112.9 76.3999 112.5C76.7999 112.2 77.3999 112 77.9999 112C78.5999 112 79.2999 112.2 80.0999 112.7L81.4999 108.8C80.5999 108.2 79.6999 108 78.5999 108C77.8999 108 77.2999 108.2 76.7999 108.6ZM82.9999 102H87.9999V106H82.9999V102ZM82.9999 108H87.9999V125H82.9999V108ZM106.5 109.9C106.1 109.4 105.5 108.9 104.7 108.5C103.9 108.1 102.8 108 101.8 108C99.5999 108 97.9999 108.9 95.9999 110.8V108H91.9999V125H96.9999V117.6C96.9999 115.7 96.9999 114.4 97.1999 113.7C97.3999 113 97.7999 112.4 98.3999 112C98.9999 111.6 99.6999 111.4 100.4 111.4C101 111.4 101.5 111.5 101.9 111.8C102.3 112.1 102.5 112.5 102.7 113C102.9 113.5 102.9 114.7 102.9 116.5V124.9H107.9V114.7C107.9 113.4 107.6 112.4 107.5 111.7C107.4 111.1 106.9 110.5 106.5 109.9ZM120.8 121.7C120.3 122.1 119.7 122.3 119 122.3C118 122.3 117.1 121.9 116.4 121.2C115.7 120.5 115.4 119.1 115.3 118.1H126.4C126.5 115.1 125.8 112.2 124.3 110.6C122.9 109 120.9 108.1 118.4 108.1C116.2 108.1 114.3 108.9 112.9 110.5C111.4 112.1 110.7 114.3 110.7 117C110.7 119.3 111.3 121.3 112.4 122.8C113.8 124.7 116 125.7 118.9 125.7C120.7 125.7 122.3 125.3 123.5 124.4C124.7 123.6 125.6 122.3 126.2 120.7L121.8 120C121.6 120.7 121.2 121.3 120.8 121.7ZM116.4 112.3C117 111.6 117.8 111.3 118.8 111.3C119.7 111.3 120.5 111.5 121.1 112.2C121.7 112.9 122.1 114 122.1 115H115.5C115.4 114 115.8 113 116.4 112.3Z" fill="#F56D39"/>
</svg>
