<svg width="128" height="128" viewBox="0 0 128 128" fill="none" xmlns="http://www.w3.org/2000/svg">
<path d="M110.1 78.4998C110 75.5998 109.5 72.5998 108.7 69.4998C106.7 62.1998 103 55.4998 97.3001 48.8998C94.5001 45.6998 91.5001 42.3998 88.6001 39.2998C87.3001 37.8998 86.0001 36.4998 84.8001 35.0998L78.7001 28.4998L61.0001 9.1998C59.4001 7.4998 57.7001 5.6998 55.8001 4.0998C52.2001 1.2998 47.9001 0.599805 43.3001 1.9998C42.0001 2.3998 40.8001 3.0998 39.7001 3.6998C38.8001 4.1998 38.0001 4.8998 37.4001 5.5998C35.2001 8.1998 34.4001 11.4998 34.8001 15.6998C35.1001 18.4998 36.3001 20.9998 38.6001 23.4998L46.7001 32.3998L50.8001 36.7998C43.5001 40.2998 37.1001 44.6998 31.7001 49.8998C27.2001 54.2998 24.1001 58.2998 22.0001 62.7998C18.6001 69.9998 17.3001 77.9998 17.9001 87.1998C18.1001 90.5998 19.0001 94.0998 20.3001 97.5998C22.3001 102.8 25.3001 107.5 29.6001 112.1C38.0001 121.1 48.4001 126 60.7001 126.7C61.5001 126.7 62.2001 126.8 63.1001 126.8C64.7001 126.8 66.3001 126.7 67.8001 126.6C70.7001 126.4 73.8001 126 77.2001 125.1C86.0001 122.9 93.3001 118.2 99.1001 111.2C106.9 101.7 110.6 90.7998 110.1 78.4998ZM96.9001 109.2C91.6001 115.7 84.7001 120.1 76.6001 122.1C73.4001 122.9 70.5001 123.4 67.7001 123.5C65.5001 123.6 63.2001 123.7 60.9001 123.6C49.4001 122.9 39.6001 118.4 31.8001 109.9C27.8001 105.6 24.9001 101.1 23.1001 96.2998C21.9001 93.0998 21.1001 89.7998 20.9001 86.6998C20.3001 77.9998 21.5001 70.4998 24.7001 63.7998C26.6001 59.6998 29.5001 55.8998 33.7001 51.7998C39.1001 46.5998 45.3001 42.2998 52.8001 38.8998L53.6001 38.4998C53.9001 38.3998 54.1001 38.1998 54.2001 37.9998L55.1001 36.9998L48.8001 30.1998L40.7001 21.2998C38.9001 19.2998 37.9001 17.2998 37.7001 15.1998C37.4001 11.9998 38.0001 9.4998 39.6001 7.4998C40.0001 6.9998 40.6001 6.5998 41.2001 6.1998C42.1001 5.6998 43.1001 5.0998 44.2001 4.7998C45.5001 4.3998 46.7001 4.1998 47.8001 4.1998C50.0001 4.2998 52.0001 4.9998 53.9001 6.4998C55.7001 7.8998 57.3001 9.5998 58.8001 11.2998L76.5001 30.5998L82.6001 37.1998L86.5001 41.3998C89.4001 44.4998 92.3001 47.6998 95.2001 50.8998C100.6 57.0998 104.2 63.3998 106 70.2998C106.8 73.1998 107.2 75.9998 107.3 78.6998C107.6 90.0998 104.2 100.4 96.9001 109.2ZM86.0001 68.8998C83.4001 66.1998 80.8001 63.5998 78.1001 60.9998L76.5001 59.3998C75.7001 58.5998 74.9001 57.7998 74.1001 56.8998C72.0001 54.6998 69.7001 52.4998 67.5001 50.2998C65.1001 47.9998 62.5001 46.8998 59.6001 47.0998C56.1001 47.2998 53.4001 48.7998 51.6001 51.6998C50.8001 52.9998 50.4001 54.3998 50.5001 55.7998C50.6001 58.3998 51.7001 60.7998 53.8001 62.8998C55.5001 64.6998 57.4001 66.4998 59.1001 68.1998L62.0001 70.9998L62.5001 71.4998H42.2001C40.8001 71.4998 39.6001 71.4998 38.5001 71.5998C36.4001 71.6998 34.5001 72.4998 33.1001 73.8998C30.6001 76.3998 29.6001 79.6998 30.3001 83.3998C31.0001 86.9998 33.3001 89.3998 36.7001 90.1998C37.9001 90.4998 39.1001 90.4998 40.2001 90.4998L49.4001 90.7998H50.2001C51.4001 90.7998 52.7001 90.7998 53.9001 90.6998H62.4001L62.0001 91.1998C60.1001 92.9998 58.3001 94.8998 56.4001 96.7998C54.3001 98.9998 52.8001 101 51.8001 103.1C50.8001 105.2 50.6001 107.1 51.3001 109C52.5001 112.6 56.0001 115 60.0001 115C61.7001 115 63.4001 114.5 64.7001 113.6C66.2001 112.6 67.5001 111.3 68.8001 110.2C74.7001 104.7 80.5001 99.1998 86.1001 93.8998C89.3001 90.8998 91.5001 87.6998 92.8001 84.0998C93.1001 83.1998 93.3001 82.1998 93.3001 81.2998C93.2001 79.2998 92.4001 77.4998 91.7001 76.1998C89.9001 73.0998 87.8001 70.6998 86.0001 68.8998ZM89.9001 82.8998C88.7001 86.0998 86.8001 88.8998 83.9001 91.5998C78.3001 96.8998 72.5001 102.4 66.7001 107.9C65.5001 109 64.3001 110.1 63.0001 111.1C62.2001 111.7 61.1001 112 60.0001 112C57.8001 112 55.1001 110.7 54.1001 108C53.7001 106.9 53.9001 105.7 54.5001 104.4C55.4001 102.6 56.7001 100.8 58.6001 98.8998C60.4001 96.9998 62.3001 95.1998 64.2001 93.3998L66.7001 90.8998L67.1001 90.4998L69.7001 87.7998H54.1001L50.4001 87.8998H49.6001C46.6001 87.8998 43.6001 87.7998 40.5001 87.5998C39.5001 87.5998 38.5001 87.4998 37.5001 87.2998C35.2001 86.7998 33.9001 85.3998 33.4001 82.8998C32.9001 80.0998 33.5001 77.8998 35.4001 76.0998C36.5001 74.9998 37.9001 74.6998 38.9001 74.6998C39.9001 74.5998 41.0001 74.5998 42.4001 74.5998H69.6001L66.3001 71.1998L64.2001 68.9998C63.2001 67.9998 62.3001 67.0998 61.3001 66.1998L56.0001 60.9998C54.5001 59.3998 53.6001 57.5998 53.6001 55.7998C53.6001 54.9998 53.8001 54.1998 54.2001 53.3998C55.4001 51.3998 57.3001 50.3998 59.8001 50.1998C61.9001 50.0998 63.7001 50.8998 65.5001 52.5998C67.7001 54.6998 69.9001 56.8998 72.1001 59.0998C72.9001 59.8998 73.7001 60.6998 74.5001 61.5998L76.1001 63.1998C78.7001 65.7998 81.3001 68.4998 84.0001 71.0998C85.6001 72.6998 87.6001 74.8998 89.0001 77.4998C89.8001 78.9998 90.2001 80.0998 90.2001 81.1998C90.2001 81.7998 90.1001 82.3998 89.9001 82.8998Z" fill="#F56D39"/>
</svg>
