<svg width="128" height="128" viewBox="0 0 128 128" fill="none" xmlns="http://www.w3.org/2000/svg">
<path d="M112.3 79.0995C112.2 75.9995 111.7 72.9995 110.9 70.0995C108.8 62.2995 104.7 55.4995 99.3999 49.4995C95.1999 44.6996 90.7999 40.0995 86.4999 35.2995L61.8999 8.49955C60.2999 6.69955 58.5999 4.99955 56.6999 3.39955C53.2999 0.599548 49.3999 0.199548 45.1999 1.39955C43.9999 1.79955 42.8999 2.39955 41.7999 2.99955C41.0999 3.39955 40.3999 3.99955 39.7999 4.69955C37.4999 7.39955 37.0999 10.5995 37.4999 13.8995C37.7999 16.6995 39.1999 18.9995 40.9999 20.9995C44.5999 24.8995 48.1999 28.7995 51.6999 32.6995L54.7999 36.0995L54.5999 36.2995L53.7999 36.6996C46.3999 40.1996 39.5999 44.5995 33.6999 50.2995C29.7999 54.0995 26.3999 58.1996 23.9999 63.1996C20.2999 70.9995 19.2999 79.1995 19.8999 87.5995C20.1999 91.1995 20.9999 94.5995 22.2999 97.8996C24.3999 103.4 27.5999 108.1 31.5999 112.4C39.9999 121.4 50.3999 126.3 62.6999 127C65.0999 127.1 67.4999 127 69.8999 126.9C73.0999 126.7 76.1999 126.2 79.3999 125.4C88.1999 123.2 95.4999 118.5 101.2 111.5C109.2 102.2 112.8 91.2995 112.3 79.0995ZM94.3999 84.0995C92.9999 87.7995 90.6999 90.9995 87.7999 93.6995C81.8999 99.2995 75.9999 104.9 69.9999 110.5C68.6999 111.7 67.3999 112.9 65.9999 113.9C62.2999 116.5 56.1999 114.7 54.4999 109.9C53.8999 108.3 54.1999 106.6 54.9999 105C56.0999 102.7 57.6999 100.7 59.4999 98.8996C62.1999 96.0995 64.9999 93.3996 67.7999 90.5995L68.3999 89.9995H58.4999C56.0999 89.9995 53.6999 90.0995 51.1999 90.0995C48.0999 90.0995 44.8999 89.9995 41.7999 89.7996C40.6999 89.7996 39.4999 89.6995 38.3999 89.4995C35.2999 88.7996 33.4999 86.6995 32.9999 83.6995C32.3999 80.4995 33.0999 77.5996 35.4999 75.2996C36.7999 74.0996 38.3999 73.4995 40.0999 73.3996C42.8999 73.2996 45.7999 73.2996 48.5999 73.2996H68.3999C67.3999 72.2996 66.3999 71.1995 65.3999 70.0995C62.5999 67.2995 59.6999 64.5996 56.8999 61.6996C55.1999 59.8996 54.0999 57.7995 53.8999 55.2995C53.7999 54.0995 54.1999 52.9995 54.7999 51.8996C56.3999 49.2996 58.7999 48.0996 61.7999 47.8996C64.5999 47.6996 66.8999 48.8995 68.8999 50.7995C72.0999 53.7995 75.0999 56.9995 78.1999 60.0995C81.4999 63.3995 84.6999 66.5995 87.8999 69.8996C89.9999 71.9995 91.8999 74.2996 93.3999 76.8996C94.1999 78.2996 94.7999 79.7996 94.8999 81.4995C94.7999 82.4995 94.6999 83.3996 94.3999 84.0995Z" fill="#F56D39"/>
</svg>
