<svg width="128" height="128" viewBox="0 0 128 128" fill="none" xmlns="http://www.w3.org/2000/svg">
<path fill-rule="evenodd" clip-rule="evenodd" d="M82.1082 78.4322C82.5872 77.2002 83.1302 75.9872 83.5352 74.7312C85.8232 67.6342 88.0892 60.5312 90.3402 53.4222C91.2052 50.6912 92.1532 48.0022 93.8552 45.6552C96.5472 41.9462 100.297 40.0032 104.735 39.3242C106.483 39.0644 108.248 38.9288 110.015 38.9182C115.282 38.8682 120.551 38.9032 125.819 38.9082C126.099 38.9082 126.379 38.9372 126.776 38.9602C126.647 39.2642 126.577 39.4852 126.465 39.6842C124.51 43.1782 122.593 46.6932 120.58 50.1522C117.075 56.1742 113.564 62.1942 109.949 68.1502C107.63 71.9692 105.115 75.6702 102.262 79.1242C100.157 81.6722 97.9412 84.1082 95.1162 85.8942C93.1912 87.1112 91.1352 87.8232 88.8012 87.8112C80.5232 87.7662 72.2452 87.7992 63.9672 87.7872C61.5062 87.7832 59.3992 86.8462 57.6112 85.1842C55.0482 82.8032 53.5182 79.7722 52.2662 76.5762C49.9822 70.7412 48.7032 64.6252 47.2352 58.5622C46.5472 55.7242 45.7652 52.9082 45.0202 50.0842C44.9722 49.9012 44.8782 49.7302 44.7702 49.4672L44.1932 50.0092C40.9652 53.2162 38.1222 56.7502 35.5782 60.5072C34.8852 61.5312 34.6522 62.8812 34.2652 64.0982C32.8412 68.5682 31.5432 73.0812 30.0012 77.5092C28.5242 81.7512 25.8762 85.1252 21.7372 87.1192C19.3372 88.2826 16.7147 88.9153 14.0482 88.9742C10.0682 89.0622 6.0862 89.0722 2.1052 89.1082C1.1532 89.1172 1.1092 89.0392 1.3572 88.1182C3.0642 81.7802 5.2272 75.6042 7.9372 69.6262C10.7312 63.4592 14.0222 57.5782 18.1682 52.2072C20.9912 48.5502 24.1092 45.1762 28.0112 42.6252C29.9902 41.3322 32.0942 40.3102 34.4882 40.0412C34.8822 39.9962 35.2812 39.9682 35.6772 39.9682C44.1552 39.9642 52.6332 40.0502 61.1102 39.9292C65.6572 39.8642 68.9492 41.7842 71.4142 45.4442C72.9472 47.7202 74.0442 50.2052 74.9672 52.7722C76.8282 57.9502 77.9852 63.3192 79.2922 68.6502C80.0402 71.7012 80.8732 74.7312 81.6712 77.7702C81.7312 77.9982 81.8282 78.2162 81.9092 78.4382L82.1082 78.4322Z" fill="#1384C8"/>
</svg>
