<svg width="128" height="128" viewBox="0 0 128 128" fill="none" xmlns="http://www.w3.org/2000/svg">
<path d="M40.3352 78.1884H38.6502V68.5384C38.6502 67.7764 38.7002 66.8484 38.7902 65.7534H38.7522C38.5942 66.3934 38.4492 66.8574 38.3222 67.1444L33.4202 78.1884H32.5992L27.6882 67.2244C27.5502 66.9184 27.4052 66.4254 27.2582 65.7534H27.2222C27.2742 66.3294 27.3032 67.2624 27.3032 68.5574V78.1884H25.6772V63.8174H27.9022L32.3112 73.8384C32.6432 74.5924 32.8582 75.1664 32.9622 75.5584H33.0312C33.2434 74.9645 33.4728 74.3769 33.7192 73.7964L38.2242 63.8174H40.3342V78.1884H40.3352ZM45.5232 78.1884H43.8842V67.9254H45.5232V78.1884ZM45.8062 64.2464C45.8062 64.5494 45.7002 64.8014 45.4892 65.0094C45.3899 65.1108 45.2709 65.1907 45.1395 65.2444C45.0081 65.298 44.8671 65.3242 44.7252 65.3214C44.5854 65.3236 44.4466 65.2981 44.3166 65.2465C44.1867 65.1948 44.0683 65.118 43.9682 65.0204C43.8646 64.9205 43.7833 64.8 43.7293 64.6667C43.6754 64.5333 43.6501 64.3901 43.6552 64.2464C43.6552 63.9504 43.7592 63.6974 43.9682 63.4924C44.1772 63.2874 44.4322 63.1874 44.7252 63.1874C45.0252 63.1874 45.2822 63.2864 45.4892 63.4924C45.7002 63.6974 45.8062 63.9504 45.8062 64.2464ZM55.7642 77.7134C54.9782 78.1964 54.0382 78.4354 52.9522 78.4354C51.4802 78.4354 50.2972 77.9474 49.3912 76.9714C48.5122 76.0244 48.0702 74.8024 48.0702 73.3044C48.0702 71.6234 48.5502 70.2624 49.5202 69.2274C50.4842 68.1914 51.7812 67.6744 53.4122 67.6744C54.3042 67.6744 55.0952 67.8484 55.7872 68.1954V69.8824C55.0212 69.3444 54.2112 69.0774 53.3422 69.0774C52.2972 69.0774 51.4462 69.4424 50.7872 70.1704C50.1002 70.9154 49.7532 71.9124 49.7532 73.1554C49.7532 74.3494 50.0702 75.2954 50.7012 75.9924C51.3342 76.6864 52.1772 77.0344 53.2392 77.0344C54.1362 77.0344 54.9772 76.7394 55.7632 76.1524V77.7134H55.7642ZM63.6042 69.5904C63.3152 69.3674 62.8982 69.2594 62.3492 69.2594C61.6812 69.2594 61.1202 69.5574 60.6662 70.1604C60.1502 70.8334 59.8952 71.7644 59.8952 72.9554V78.1874H58.2512V67.9254H59.8952V70.0414H59.9342C60.1752 69.2924 60.5482 68.7164 61.0462 68.3084C61.4886 67.9436 62.0448 67.7451 62.6182 67.7474C63.0562 67.7474 63.3802 67.7944 63.6022 67.8874L63.6042 69.5904ZM72.7582 73.0754C72.7582 71.7624 72.4622 70.7584 71.8682 70.0694C71.2932 69.4074 70.4882 69.0774 69.4522 69.0774C68.4312 69.0774 67.6112 69.4114 66.9992 70.0804C66.3522 70.7954 66.0282 71.8054 66.0282 73.1154C66.0282 74.3434 66.3362 75.3074 66.9582 75.9944C67.5762 76.6864 68.4082 77.0334 69.4522 77.0334C70.5322 77.0334 71.3592 76.6814 71.9262 75.9824C72.4812 75.2984 72.7582 74.3304 72.7582 73.0754ZM74.4432 73.0184C74.4432 74.6534 73.9812 75.9674 73.0612 76.9524C72.1372 77.9414 70.8942 78.4354 69.3312 78.4354C67.7912 78.4354 66.5642 77.9414 65.6662 76.9524C64.7852 75.9994 64.3432 74.7414 64.3432 73.1764C64.3432 71.3904 64.8432 70.0144 65.8462 69.0374C66.7752 68.1314 68.0162 67.6744 69.5722 67.6744C71.1022 67.6744 72.2982 68.1514 73.1592 69.0964C74.0122 70.0464 74.4432 71.3544 74.4432 73.0184ZM82.5892 75.4424C82.5892 76.2824 82.2762 76.9784 81.6472 77.5334C80.9602 78.1344 80.0172 78.4344 78.8312 78.4344C77.8602 78.4344 77.0092 78.2314 76.2862 77.8164V76.0504C77.0902 76.7044 77.9782 77.0334 78.9532 77.0334C80.2542 77.0334 80.9052 76.5544 80.9052 75.5994C80.9107 75.4127 80.8749 75.227 80.8004 75.0557C80.7259 74.8844 80.6145 74.7317 80.4742 74.6084C80.1852 74.3464 79.6232 74.0324 78.7892 73.6654C77.9302 73.2894 77.3172 72.9034 76.9562 72.5024C76.5222 72.0264 76.3042 71.4094 76.3042 70.6484C76.3042 69.7964 76.6452 69.0874 77.3182 68.5234C77.9932 67.9564 78.8602 67.6734 79.9242 67.6734C80.7392 67.6734 81.4702 67.8324 82.1182 68.1544V69.8084C81.4412 69.3204 80.6672 69.0764 79.7892 69.0764C79.2452 69.0764 78.8082 69.2124 78.4822 69.4754C78.1532 69.7454 77.9882 70.0894 77.9882 70.5094C77.9882 70.9644 78.1262 71.3174 78.4002 71.5704C78.6442 71.8034 79.1612 72.0894 79.9412 72.4224C80.8172 72.7894 81.4502 73.1704 81.8362 73.5594C82.3362 74.0534 82.5892 74.6804 82.5892 75.4424ZM92.6292 73.0754C92.6292 71.7624 92.3322 70.7584 91.7372 70.0694C91.1622 69.4074 90.3562 69.0774 89.3222 69.0774C88.3012 69.0774 87.4812 69.4114 86.8662 70.0804C86.2202 70.7954 85.8972 71.8054 85.8972 73.1154C85.8972 74.3434 86.2062 75.3074 86.8212 75.9944C87.4472 76.6864 88.2802 77.0334 89.3222 77.0334C90.4042 77.0334 91.2282 76.6814 91.7962 75.9824C92.3512 75.2984 92.6292 74.3304 92.6292 73.0754ZM94.3172 73.0184C94.3172 74.6534 93.8512 75.9674 92.9292 76.9524C92.0092 77.9414 90.7662 78.4354 89.2022 78.4354C87.6602 78.4354 86.4342 77.9414 85.5352 76.9524C84.6542 75.9994 84.2122 74.7414 84.2122 73.1764C84.2122 71.3904 84.7162 70.0144 85.7142 69.0374C86.6422 68.1314 87.8852 67.6744 89.4422 67.6744C90.9732 67.6744 92.1672 68.1514 93.0262 69.0964C93.8812 70.0464 94.3172 71.3544 94.3172 73.0184ZM101.555 64.4384C101.221 64.2554 100.845 64.1624 100.464 64.1684C99.3142 64.1684 98.7432 64.8924 98.7432 66.3434V67.9254H101.148V69.3174H98.7432V78.1884H97.0982V69.3174H95.3532V67.9254H97.0982V66.2614C97.0982 65.1324 97.4442 64.2454 98.1482 63.6074C98.7512 63.0524 99.4882 62.7764 100.365 62.7764C100.873 62.7764 101.267 62.8374 101.554 62.9544V64.4384H101.555ZM108.039 78.0854C107.651 78.3074 107.135 78.4184 106.496 78.4184C104.705 78.4184 103.809 77.4084 103.809 75.3894V69.3194H102.048V67.9254H103.809V65.4214L105.455 64.8884V67.9254H108.038V69.3194H105.455V75.1104C105.455 75.7984 105.567 76.2904 105.803 76.5754C106.04 76.8704 106.428 77.0144 106.976 77.0144C107.385 77.0144 107.739 76.9054 108.039 76.6834V78.0854ZM19.2372 118.242C19.2372 119.047 18.9512 119.742 18.3702 120.329C18.0994 120.613 17.7729 120.838 17.4112 120.989C17.0494 121.14 16.6603 121.215 16.2682 121.209C15.8839 121.215 15.5027 121.139 15.1494 120.988C14.7962 120.836 14.4789 120.612 14.2182 120.329C13.9467 120.055 13.7326 119.729 13.5882 119.37C13.4438 119.012 13.3721 118.629 13.3772 118.242C13.3772 117.415 13.6562 116.717 14.2182 116.139C14.4803 115.86 14.7982 115.638 15.1513 115.489C15.5044 115.339 15.8849 115.266 16.2682 115.272C17.0912 115.272 17.7922 115.564 18.3702 116.15C18.9512 116.738 19.2372 117.436 19.2372 118.242ZM56.0182 120.606H50.6602L31.2122 90.5724C30.7445 89.8236 30.3497 89.0316 30.0332 88.2074H29.8732C30.0122 89.0114 30.0822 90.7384 30.0822 93.3824V120.606H25.6662V82.9264H31.3982L50.2632 112.486C51.0142 113.659 51.5282 114.499 51.7882 115.005H51.8922C51.7172 113.922 51.6262 112.073 51.6262 109.465V82.9264H56.0162V120.606H56.0182ZM84.3322 120.606H64.3612V82.9264H83.4652V86.9194H68.7752V99.4534H82.3872V103.448H68.7742V116.612H84.3322V120.606ZM114.623 86.9194H103.769V120.607H99.3542V86.9194H88.4792V82.9244H114.623V86.9194Z" fill="#1384C8"/>
<path fill-rule="evenodd" clip-rule="evenodd" d="M82.1082 46.3296C82.5872 45.0976 83.1302 43.8846 83.5352 42.6286C85.8232 35.5316 88.0892 28.4286 90.3402 21.3196C91.2052 18.5886 92.1532 15.8996 93.8552 13.5526C96.5472 9.84363 100.297 7.90063 104.735 7.22163C106.483 6.96189 108.248 6.82622 110.015 6.81563C115.282 6.76563 120.551 6.80063 125.819 6.80563C126.099 6.80563 126.379 6.83463 126.776 6.85763C126.647 7.16163 126.577 7.38263 126.465 7.58163C124.51 11.0756 122.593 14.5906 120.58 18.0496C117.075 24.0716 113.564 30.0916 109.949 36.0476C107.63 39.8666 105.115 43.5676 102.262 47.0216C100.157 49.5696 97.9412 52.0056 95.1162 53.7916C93.1912 55.0086 91.1352 55.7206 88.8012 55.7086C80.5232 55.6636 72.2452 55.6966 63.9672 55.6846C61.5062 55.6806 59.3992 54.7436 57.6112 53.0816C55.0482 50.7006 53.5182 47.6696 52.2662 44.4736C49.9822 38.6386 48.7032 32.5226 47.2352 26.4596C46.5472 23.6216 45.7652 20.8056 45.0202 17.9816C44.9722 17.7986 44.8782 17.6276 44.7702 17.3646L44.1932 17.9066C40.9652 21.1136 38.1222 24.6476 35.5782 28.4046C34.8852 29.4286 34.6522 30.7786 34.2652 31.9956C32.8412 36.4656 31.5432 40.9786 30.0012 45.4066C28.5242 49.6486 25.8762 53.0226 21.7372 55.0166C19.3372 56.1801 16.7147 56.8128 14.0482 56.8716C10.0682 56.9596 6.0862 56.9696 2.1052 57.0056C1.1532 57.0146 1.1092 56.9366 1.3572 56.0156C3.0642 49.6776 5.2272 43.5016 7.9372 37.5236C10.7312 31.3566 14.0222 25.4756 18.1682 20.1046C20.9912 16.4476 24.1092 13.0736 28.0112 10.5226C29.9902 9.22963 32.0942 8.20763 34.4882 7.93863C34.8822 7.89363 35.2812 7.86563 35.6772 7.86563C44.1552 7.86163 52.6332 7.94763 61.1102 7.82663C65.6572 7.76163 68.9492 9.68163 71.4142 13.3416C72.9472 15.6176 74.0442 18.1026 74.9672 20.6696C76.8282 25.8476 77.9852 31.2166 79.2922 36.5476C80.0402 39.5986 80.8732 42.6286 81.6712 45.6676C81.7312 45.8956 81.8282 46.1136 81.9092 46.3356L82.1082 46.3296Z" fill="#1384C8"/>
</svg>
