<svg width="128" height="128" viewBox="0 0 128 128" fill="none" xmlns="http://www.w3.org/2000/svg">
<path d="M30.762 77.9071H29.022V67.9441C29.022 67.1571 29.073 66.1991 29.166 65.0691H29.127C28.963 65.7301 28.814 66.2091 28.683 66.5051L23.622 77.9071H22.774L17.703 66.5881C17.561 66.2721 17.411 65.7631 17.26 65.0691H17.222C17.276 65.6631 17.306 66.6271 17.306 67.9641V77.9071H15.627V63.0701H17.923L22.475 73.4171C22.818 74.1961 23.04 74.7891 23.148 75.1931H23.219C23.517 74.3821 23.753 73.7731 23.93 73.3731L28.581 63.0701H30.76V77.9071H30.762ZM36.118 77.9071H34.426V67.3121H36.118V77.9071ZM36.41 63.5131C36.41 63.8261 36.3 64.0861 36.082 64.3001C35.9795 64.4046 35.8568 64.4871 35.7212 64.5425C35.5857 64.5978 35.4403 64.6249 35.294 64.6221C34.991 64.6221 34.728 64.5181 34.512 64.3111C34.296 64.1031 34.19 63.8381 34.19 63.5121C34.19 63.2061 34.296 62.9451 34.512 62.7331C34.728 62.5211 34.991 62.4191 35.294 62.4191C35.604 62.4191 35.869 62.5221 36.082 62.7331C36.3 62.9461 36.41 63.2071 36.41 63.5131ZM46.691 77.4171C45.879 77.9161 44.91 78.1631 43.789 78.1631C42.269 78.1631 41.047 77.6591 40.113 76.6521C39.205 75.6741 38.749 74.4121 38.749 72.8661C38.749 71.1301 39.245 69.7251 40.246 68.6571C41.242 67.5881 42.58 67.0541 44.264 67.0541C45.184 67.0541 46.001 67.2341 46.716 67.5921V69.3331C45.925 68.7781 45.089 68.5021 44.191 68.5021C43.112 68.5021 42.234 68.8791 41.554 69.6301C40.845 70.4001 40.486 71.4281 40.486 72.7121C40.486 73.9441 40.814 74.9211 41.465 75.6411C42.118 76.3581 42.988 76.7171 44.086 76.7171C45.012 76.7171 45.88 76.4121 46.692 75.8061V77.4171H46.691ZM54.786 69.0311C54.487 68.8011 54.057 68.6901 53.49 68.6901C52.801 68.6901 52.221 68.9981 51.753 69.6201C51.221 70.3141 50.957 71.2761 50.957 72.5061V77.9071H49.26V67.3111H50.957V69.4961H50.998C51.247 68.7231 51.632 68.1281 52.146 67.7061C52.6026 67.3291 53.1768 67.1239 53.769 67.1261C54.221 67.1261 54.556 67.1751 54.785 67.2711V69.0301L54.786 69.0311ZM64.237 72.6281C64.237 71.2721 63.931 70.2351 63.319 69.5251C62.725 68.8421 61.894 68.5011 60.824 68.5011C59.77 68.5011 58.924 68.8461 58.291 69.5371C57.623 70.2761 57.289 71.3181 57.289 72.6711C57.289 73.9391 57.606 74.9341 58.249 75.6441C58.887 76.3581 59.746 76.7161 60.824 76.7161C61.939 76.7161 62.793 76.3521 63.378 75.6311C63.951 74.9231 64.237 73.9241 64.237 72.6281ZM65.976 72.5691C65.976 74.2571 65.499 75.6141 64.549 76.6301C63.595 77.6511 62.312 78.1611 60.697 78.1611C59.107 78.1611 57.841 77.6511 56.913 76.6301C56.003 75.6471 55.547 74.3471 55.547 72.7321C55.547 70.8881 56.063 69.4681 57.099 68.4591C58.057 67.5231 59.339 67.0521 60.945 67.0521C62.525 67.0521 63.759 67.5451 64.649 68.5211C65.531 69.5011 65.976 70.8511 65.976 72.5691ZM74.387 75.0731C74.387 75.9411 74.064 76.6581 73.414 77.2321C72.705 77.8521 71.731 78.1621 70.506 78.1621C69.504 78.1621 68.625 77.9521 67.878 77.5241V75.7001C68.708 76.3751 69.626 76.7151 70.632 76.7151C71.975 76.7151 72.648 76.2201 72.648 75.2351C72.6537 75.0423 72.6168 74.8507 72.5398 74.6738C72.4629 74.497 72.3479 74.3393 72.203 74.2121C71.905 73.9411 71.325 73.6181 70.464 73.2381C69.577 72.8501 68.944 72.4511 68.571 72.0381C68.123 71.5471 67.898 70.9091 67.898 70.1231C67.898 69.2441 68.25 68.5121 68.944 67.9291C69.641 67.3441 70.536 67.0521 71.635 67.0521C72.477 67.0521 73.231 67.2161 73.901 67.5491V69.2561C73.202 68.7521 72.403 68.5011 71.496 68.5011C70.934 68.5011 70.483 68.6411 70.147 68.9131C69.9847 69.0391 69.8541 69.2013 69.7656 69.3867C69.677 69.5721 69.633 69.7756 69.637 69.9811C69.637 70.4501 69.779 70.8151 70.062 71.0771C70.314 71.3181 70.848 71.6131 71.653 71.9561C72.557 72.3351 73.211 72.7281 73.609 73.1301C74.126 73.6381 74.387 74.2861 74.387 75.0731ZM84.753 72.6281C84.753 71.2721 84.446 70.2351 83.833 69.5251C83.239 68.8421 82.407 68.5011 81.339 68.5011C80.284 68.5011 79.439 68.8461 78.803 69.5371C78.136 70.2761 77.803 71.3181 77.803 72.6711C77.803 73.9391 78.122 74.9341 78.757 75.6441C79.403 76.3581 80.263 76.7161 81.339 76.7161C82.456 76.7161 83.307 76.3521 83.893 75.6311C84.465 74.9231 84.753 73.9241 84.753 72.6281ZM86.495 72.5691C86.495 74.2571 86.014 75.6141 85.062 76.6301C84.112 77.6511 82.829 78.1611 81.214 78.1611C79.622 78.1611 78.357 77.6511 77.428 76.6301C76.519 75.6471 76.062 74.3471 76.062 72.7321C76.062 70.8881 76.583 69.4681 77.613 68.4591C78.571 67.5231 79.854 67.0521 81.462 67.0521C83.043 67.0521 84.275 67.5451 85.162 68.5211C86.045 69.5011 86.495 70.8511 86.495 72.5691ZM93.968 63.7111C93.6229 63.5228 93.235 63.427 92.842 63.4331C91.654 63.4331 91.065 64.1801 91.065 65.6781V67.3111H93.548V68.7491H91.065V77.9071H89.367V68.7491H87.565V67.3111H89.367V65.5941C89.367 64.4281 89.724 63.5131 90.451 62.8541C91.073 62.2811 91.834 61.9971 92.74 61.9971C93.264 61.9971 93.672 62.0601 93.968 62.1811V63.7111ZM100.662 77.8011C100.262 78.0301 99.728 78.1441 99.069 78.1441C97.219 78.1441 96.295 77.1021 96.295 75.0161V68.7501H94.477V67.3111H96.295V64.7261C96.837 64.5551 97.4 64.3691 97.995 64.1761V67.3111H100.662V68.7501H97.995V74.7291C97.995 75.4391 98.111 75.9471 98.354 76.2421C98.599 76.5471 99 76.6961 99.565 76.6961C99.988 76.6961 100.353 76.5831 100.662 76.3541V77.8011ZM8.97798 119.262C8.97798 120.093 8.68298 120.81 8.08298 121.417C7.80339 121.71 7.46632 121.942 7.09291 122.098C6.71949 122.255 6.31779 122.332 5.91298 122.326C5.5162 122.332 5.12268 122.254 4.75807 122.097C4.39347 121.941 4.06599 121.709 3.79698 121.417C3.5167 121.133 3.29563 120.797 3.14661 120.427C2.9976 120.057 2.92362 119.661 2.92898 119.262C2.92898 118.408 3.21798 117.687 3.79698 117.091C4.06749 116.802 4.39556 116.573 4.76002 116.419C5.12449 116.264 5.51725 116.188 5.91298 116.195C6.76298 116.195 7.48698 116.496 8.08298 117.102C8.68298 117.709 8.97798 118.429 8.97798 119.262ZM46.953 121.702H41.421L21.342 90.6941C20.859 89.9209 20.4515 89.1032 20.125 88.2521H19.96C20.104 89.0831 20.176 90.8651 20.176 93.5951V121.702H15.617V82.7991H21.535L41.013 113.319C41.788 114.53 42.319 115.398 42.588 115.92H42.696C42.516 114.801 42.422 112.893 42.422 110.2V82.8001H46.954V121.702H46.953ZM76.186 121.702H55.567V82.7991H75.291V86.9221H60.123V99.8631H74.177V103.987H60.123V117.578H76.186V121.702ZM107.46 86.9221H96.254V121.703H91.696V86.9221H80.468V82.7971H107.46V86.9221Z" fill="black"/>
<path d="M45.4072 15.6037C49.8062 29.0557 51.4712 53.0527 64.3352 53.0527C65.3142 53.0527 66.3042 52.9577 67.2972 52.7677C55.6042 50.0407 54.2182 26.3057 47.0832 14.0137C46.5144 14.5328 45.9556 15.0629 45.4072 15.6037Z" fill="url(#paint0_linear_3_6810)"/>
<path d="M47.083 14.0144C54.218 26.3064 55.604 50.0414 67.297 52.7684C68.2355 52.5912 69.1589 52.3418 70.059 52.0224C59.563 46.8794 56.662 23.8304 48.559 12.7334C48.068 13.1434 47.575 13.5704 47.083 14.0144Z" fill="url(#paint1_linear_3_6810)"/>
<path d="M57.3638 6.70417C56.3868 6.70417 55.3948 6.80017 54.3998 6.98917C51.7968 7.48017 49.1528 8.60017 46.4868 10.2972C47.243 11.0521 47.9363 11.8675 48.5598 12.7352C51.2708 10.4862 53.9638 8.82417 56.6468 7.82417C57.6264 7.45821 58.6358 7.17783 59.6638 6.98617C58.912 6.79592 58.1393 6.70118 57.3638 6.70417Z" fill="#14559A"/>
<path d="M78.2511 47.2816C79.3695 46.3882 80.4466 45.4442 81.4791 44.4526C77.0091 31.0636 75.4091 6.72363 62.4561 6.72363C61.5301 6.72363 60.5951 6.80963 59.6641 6.98263C71.4621 9.91663 72.9731 35.5876 78.2511 47.2816Z" fill="url(#paint2_linear_3_6810)"/>
<path d="M59.6638 6.98419C58.9116 6.79472 58.1385 6.70031 57.3628 6.70319L62.4568 6.72219C61.5298 6.72219 60.5958 6.80819 59.6638 6.98419Z" fill="#3092C4"/>
<path d="M78.0261 50.1259C77.5102 49.6273 77.0228 49.1001 76.5661 48.5469C74.3871 50.0899 72.2151 51.2599 70.0591 52.0219C70.8261 52.3969 71.6311 52.6749 72.4851 52.8479C73.1653 52.9862 73.8579 53.0549 74.5521 53.0529C76.9731 53.0529 78.8861 52.7669 80.5151 51.9849C79.6181 51.4999 78.7951 50.8729 78.0261 50.1259Z" fill="#1969BC"/>
<path d="M56.646 7.8254C67.215 13.3534 68.133 38.3854 76.566 48.5484C77.131 48.1504 77.691 47.7284 78.25 47.2834C72.971 35.5884 71.462 9.9154 59.665 6.9834C58.6363 7.17678 57.6263 7.45849 56.646 7.8254Z" fill="url(#paint3_linear_3_6810)"/>
<path d="M48.5591 12.7342C56.6621 23.8312 59.5631 46.8802 70.0591 52.0232C72.2171 51.2612 74.3871 50.0912 76.5661 48.5482C68.1331 38.3852 67.2141 13.3532 56.6461 7.8252C53.9631 8.8232 51.2701 10.4852 48.5591 12.7342Z" fill="url(#paint4_linear_3_6810)"/>
<path d="M40.2219 15.2797C38.9509 18.1517 37.6539 21.9257 36.0859 26.8537C39.2039 22.4587 42.3139 18.6727 45.4059 15.6037C45.0156 14.3813 44.5562 13.1821 44.0299 12.0117C42.7027 13.0317 41.4315 14.1227 40.2219 15.2797Z" fill="url(#paint5_linear_3_6810)"/>
<path d="M45.1572 11.1836C44.7842 11.4506 44.4082 11.7236 44.0322 12.0116C44.5584 13.1818 45.0175 14.3811 45.4072 15.6036C45.9569 15.0638 46.516 14.5338 47.0842 14.0136C46.5142 13.023 45.87 12.077 45.1572 11.1836Z" fill="#2B74B1"/>
<path d="M46.4858 10.2959C46.0428 10.5769 45.6018 10.8729 45.1548 11.1829C45.8689 12.0766 46.5135 13.0237 47.0828 14.0159C47.5758 13.5699 48.0678 13.1409 48.5588 12.7339C47.9355 11.866 47.2422 11.0506 46.4858 10.2959Z" fill="#125A9E"/>
<path d="M118.572 5.67983C112.595 28.7298 100.111 47.2448 89.645 51.9118H89.624L89.059 52.1528L88.991 52.1798L88.83 52.2418L88.758 52.2718L88.497 52.3638L88.389 52.4018L88.259 52.4448L88.133 52.4888L88.021 52.5258L87.798 52.5938L87.703 52.6188L87.552 52.6598L87.45 52.6878L87.286 52.7298L87.085 52.7738C87.558 52.9488 88.051 53.0368 88.582 53.0368C98.506 53.0368 108.514 35.2508 125.071 5.67383H118.57L118.572 5.67983Z" fill="url(#paint6_linear_3_6810)"/>
<path d="M33.9312 7.64036L33.9492 7.62336L33.9722 7.60836H33.9852L34.1462 7.54636L34.1782 7.53036L34.2192 7.51236L34.3922 7.45036H34.4012L34.7822 7.31736L34.8382 7.30236L35.0022 7.25336L35.0772 7.22936L35.2412 7.18036L35.3042 7.16436L35.8492 7.02236L35.9242 7.00536L36.0832 6.97436L36.1622 6.95036L36.3222 6.92036H36.3592L36.6912 6.85836H36.7572L36.9102 6.83236L36.9962 6.81636L37.1422 6.79436L37.2242 6.77936L37.5812 6.74736C37.2299 6.713 36.8772 6.69498 36.5242 6.69336C25.3472 6.69336 9.94823 27.4314 3.01123 54.2874H4.34823C6.4218 50.5806 8.43441 46.8401 10.3852 43.0674C15.2442 24.0454 25.1392 11.0714 33.9292 7.63436" fill="url(#paint7_linear_3_6810)"/>
<path d="M40.2222 15.2796C41.432 14.1228 42.7032 13.0319 44.0302 12.0116C43.7603 11.4111 43.4575 10.8258 43.1232 10.2586C42.1012 11.4996 41.1672 13.1356 40.2222 15.2796ZM41.1412 7.79663C41.8712 8.40763 42.5242 9.25063 43.1232 10.2586C43.3055 10.0342 43.4983 9.81866 43.7012 9.61263C42.8981 8.85427 41.988 8.21783 41.0002 7.72363L41.1192 7.78063L41.1412 7.79663Z" fill="#0D82CA"/>
<path d="M10.3882 43.0717C20.5792 23.4317 25.4082 11.0027 33.9322 7.63867C25.1432 11.0777 15.2462 24.0507 10.3882 43.0717Z" fill="url(#paint8_linear_3_6810)"/>
<path d="M43.7001 9.61426C43.5011 9.81726 43.3131 10.0293 43.1221 10.2603C43.4421 10.7963 43.7401 11.3793 44.0311 12.0133C44.4071 11.7243 44.7831 11.4523 45.1561 11.1843C44.7079 10.6276 44.2214 10.103 43.7001 9.61426Z" fill="#127BCA"/>
<path d="M15.0152 54.2027L14.8302 54.2247H14.7952L14.6382 54.2407H14.6122L14.2382 54.2657H14.1992C24.5132 53.9767 29.2292 48.8127 31.5692 41.3217C33.3462 35.6437 34.8072 30.8597 36.0872 26.8457C31.7672 32.9267 27.4262 40.1757 23.0632 48.2967C20.9592 52.2107 17.7592 53.8457 15.0152 54.1947" fill="url(#paint9_linear_3_6810)"/>
<path d="M15.0151 54.1994C17.7591 53.8494 20.9591 52.2164 23.0631 48.3004C27.4261 40.1824 31.7691 32.9314 36.0851 26.8494C37.6561 21.9204 38.9511 18.1484 40.2231 15.2764C31.6191 23.4654 22.9831 37.0824 15.0151 54.1954" fill="url(#paint10_linear_3_6810)"/>
<path d="M10.3881 43.0723C8.43638 46.8449 6.42311 50.5854 4.34912 54.2923H8.23812C8.72864 50.5132 9.44627 46.7671 10.3871 43.0743" fill="#05A1E6"/>
<path d="M37.225 6.79134L37.142 6.80734L36.996 6.82834L36.911 6.84334L36.758 6.87034L36.692 6.88634L36.36 6.94434H36.323L36.161 6.97634L36.08 6.99734L35.923 7.02834L35.849 7.04634L35.303 7.18834L35.24 7.20734L35.075 7.25634L35 7.27534L34.837 7.32334L34.777 7.33934L34.398 7.47234L34.226 7.53234L34.154 7.56234L33.994 7.62234L33.941 7.64834C25.418 11.0123 20.589 23.4413 10.398 43.0803C9.45608 46.773 8.7381 50.5191 8.24805 54.2983H8.79405L12.533 54.2823H14.247L14.621 54.2573H14.645L14.802 54.2413H14.84L15.025 54.2193C22.992 37.1073 31.629 23.4903 40.233 15.3013C41.178 13.1573 42.111 11.5203 43.131 10.2813C42.534 9.27334 41.881 8.42834 41.151 7.81634L41.13 7.80034L41.008 7.74134L40.888 7.68034L40.771 7.62334L40.633 7.56534L40.525 7.51834L40.299 7.42434L40.203 7.38734L40.035 7.32034L39.944 7.29034L39.71 7.21034H39.691L39.42 7.13334L39.359 7.11434L39.131 7.05034L39.078 7.03534C38.8909 6.98614 38.7017 6.94477 38.511 6.91134L38.452 6.89534L38.206 6.85534L38.158 6.84034L37.867 6.80234H37.816L37.592 6.77734L37.235 6.81034" fill="url(#paint11_linear_3_6810)"/>
<path d="M95.2259 18.4412C93.2649 24.7222 91.6769 29.9042 90.2949 34.1682C95.6759 26.7642 100.975 17.4502 106.023 6.70117C100.134 8.55017 96.9939 12.7822 95.2259 18.4412Z" fill="url(#paint12_linear_3_6810)"/>
<path d="M90.465 51.5197C90.191 51.6597 89.915 51.7917 89.645 51.9127C100.111 47.2447 112.596 28.7297 118.572 5.67969H117.361C103.628 30.2097 99.212 46.6317 90.465 51.5197Z" fill="url(#paint13_linear_3_6810)"/>
<path d="M83.6311 49.459C85.9081 46.68 87.7631 41.955 90.2961 34.167C87.3751 38.179 84.4351 41.629 81.4921 44.441L81.4771 44.466C82.1191 46.389 82.8231 48.088 83.6261 49.458" fill="#079AE1"/>
<path d="M83.6312 49.459C82.8562 50.405 82.0352 51.125 81.1222 51.659C80.9222 51.776 80.7202 51.886 80.5142 51.985C81.4782 52.505 82.5302 52.853 83.7072 52.992L84.2292 53.038H84.2602L84.5112 53.054H85.3632L85.4592 53.038L85.6472 53.022H85.7382L85.9432 53H85.9582L86.0212 52.985L86.2392 52.951H86.3032L86.5482 52.91H86.5872L87.0762 52.806C85.7252 52.313 84.5952 51.146 83.6212 49.486" fill="#1969BC"/>
<path d="M64.335 53.0534C65.314 53.0534 66.303 52.9573 67.296 52.7663C68.215 52.5993 69.136 52.3444 70.058 52.0224C71.4563 52.7082 72.9945 53.061 74.552 53.0534H64.335ZM74.552 53.0534C76.971 53.0534 78.886 52.7664 80.514 51.9854C81.504 52.5223 82.588 52.8641 83.707 52.9924L84.229 53.0373H84.26L84.511 53.0534H84.812H74.552Z" fill="#1E5CB3"/>
<path d="M84.812 53.053H85.371L85.467 53.037L85.657 53.021H85.75L85.953 52.999H85.97L86.032 52.984L86.25 52.951L86.316 52.936L86.562 52.896H86.601L87.09 52.792C87.5696 52.9684 88.077 53.0575 88.588 53.055L84.815 53.071L84.812 53.053Z" fill="#1D60B5"/>
<path d="M81.4819 44.4672V44.4512C80.4497 45.4433 79.3725 46.3876 78.2539 47.2812C77.6929 47.7262 77.1339 48.1482 76.5679 48.5462C77.0249 49.0995 77.5127 49.6266 78.0289 50.1252C78.7989 50.8712 79.6199 51.4992 80.5169 51.9842C80.7219 51.8842 80.9249 51.7742 81.1239 51.6582C82.0389 51.1242 82.8579 50.4042 83.6339 49.4582C82.8309 48.0882 82.1269 46.3892 81.4859 44.4662" fill="#175FAB"/>
<path d="M113.525 5.67969H107.429L106.463 5.72669L106.013 6.68869C100.967 17.4377 95.6671 26.7517 90.2861 34.1567C87.7561 41.9427 85.8991 46.6677 83.6221 49.4477C84.5951 51.1087 85.7281 52.2767 87.0741 52.7717L87.1801 52.7487H87.2021L87.2761 52.7317L87.4451 52.6897L87.5451 52.6607L87.6961 52.6207L87.7901 52.5947L88.0141 52.5267L88.1261 52.4897L88.2521 52.4437L88.3811 52.4027L88.4861 52.3627L88.7491 52.2707L88.8221 52.2437L88.9831 52.1807L89.0521 52.1557L89.6171 51.9147H89.6361C89.9071 51.7947 90.1821 51.6617 90.4551 51.5217C99.2051 46.6337 103.621 30.2117 117.353 5.68169H113.518L113.525 5.67969Z" fill="url(#paint14_linear_3_6810)"/>
<path d="M37.583 6.75809L37.646 6.77409L37.805 6.79109H37.859L38.149 6.82809L38.199 6.84409L38.444 6.88509L38.505 6.90009L39.071 7.02509L39.122 7.04109L39.349 7.10509L39.412 7.12409L39.681 7.20109L39.701 7.21709L39.937 7.29809L40.027 7.32709L40.196 7.39609L40.292 7.43009L40.516 7.52409L40.626 7.57109L40.761 7.63009L40.881 7.68609L41 7.74809C41.9884 8.24239 42.8987 8.87919 43.702 9.63809C44.007 9.31609 44.327 9.02809 44.66 8.76809C42.845 7.48009 40.786 6.74609 38.414 6.74609C38.139 6.74609 37.865 6.76209 37.585 6.78309" fill="#7DCBEC"/>
<path d="M43.7002 9.61414C44.2082 10.0871 44.6952 10.6151 45.1562 11.1841C45.6012 10.8741 46.0432 10.5761 46.4872 10.2971C45.9227 9.7277 45.3101 9.2081 44.6562 8.74414C44.3157 9.00921 43.9961 9.30007 43.7002 9.61414Z" fill="#5EC5ED"/>
<path d="M37.3196 6.8247L38.1478 6.78927C40.5203 6.78927 42.5796 7.52135 44.3919 8.80859C46.3101 7.29924 48.6225 6.76909 51.8431 6.76909H36.2646L37.3196 6.8247Z" fill="url(#paint15_linear_3_6810)"/>
<path d="M51.8428 6.7683C48.6272 6.7683 46.3098 7.29845 44.3916 8.80781C45.0276 9.25708 45.6388 9.7769 46.2193 10.3574C48.8846 8.66129 51.5297 7.54076 54.1345 7.04606C55.129 6.85928 56.1186 6.76337 57.0979 6.76337H51.8428V6.7683Z" fill="url(#paint16_linear_3_6810)"/>
<path d="M90.2951 34.1723C91.6791 29.9053 93.2631 24.7253 95.2281 18.4423C96.9991 12.7813 100.133 8.54826 106.02 6.70126L106.474 5.73926C96.8771 6.31426 92.3921 11.1963 90.1351 18.4263C86.1881 31.0483 83.7961 39.2293 81.4941 44.4433C84.4341 41.6313 87.3741 38.1803 90.2951 34.1723Z" fill="url(#paint17_linear_3_6810)"/>
<defs>
<linearGradient id="paint0_linear_3_6810" x1="56.59" y1="6.55126" x2="56.59" y2="64.6484" gradientUnits="userSpaceOnUse">
<stop stop-color="#0994DC"/>
<stop offset="0.35" stop-color="#66CEF5"/>
<stop offset="0.846" stop-color="#127BCA"/>
<stop offset="1" stop-color="#127BCA"/>
</linearGradient>
<linearGradient id="paint1_linear_3_6810" x1="58.6383" y1="4.83069" x2="58.6383" y2="64.562" gradientUnits="userSpaceOnUse">
<stop stop-color="#0E76BC"/>
<stop offset="0.36" stop-color="#36AEE8"/>
<stop offset="0.846" stop-color="#00ADEF"/>
<stop offset="1" stop-color="#00ADEF"/>
</linearGradient>
<linearGradient id="paint2_linear_3_6810" x1="70.5517" y1="51.608" x2="70.5517" y2="4.20296" gradientUnits="userSpaceOnUse">
<stop stop-color="#1C63B7"/>
<stop offset="0.5" stop-color="#33BDF2"/>
<stop offset="1" stop-color="#33BDF2" stop-opacity="0.42"/>
</linearGradient>
<linearGradient id="paint3_linear_3_6810" x1="67.3604" y1="-1.2122" x2="67.3604" y2="60.8041" gradientUnits="userSpaceOnUse">
<stop stop-color="#166AB8"/>
<stop offset="0.4" stop-color="#36AEE8"/>
<stop offset="0.846" stop-color="#0798DD"/>
<stop offset="1" stop-color="#0798DD"/>
</linearGradient>
<linearGradient id="paint4_linear_3_6810" x1="62.8504" y1="-0.781661" x2="62.8504" y2="65.1647" gradientUnits="userSpaceOnUse">
<stop stop-color="#124379"/>
<stop offset="0.39" stop-color="#1487CB"/>
<stop offset="0.78" stop-color="#165197"/>
<stop offset="1" stop-color="#165197"/>
</linearGradient>
<linearGradient id="paint5_linear_3_6810" x1="35.5857" y1="18.6357" x2="44.9054" y2="18.6357" gradientUnits="userSpaceOnUse">
<stop stop-color="#33BDF2" stop-opacity="0.698"/>
<stop offset="1" stop-color="#1DACD8"/>
</linearGradient>
<linearGradient id="paint6_linear_3_6810" x1="106.121" y1="50.3999" x2="106.121" y2="4.1019" gradientUnits="userSpaceOnUse">
<stop stop-color="#136AB4"/>
<stop offset="0.6" stop-color="#59CAF5" stop-opacity="0.549"/>
<stop offset="1" stop-color="#59CAF5" stop-opacity="0.235"/>
</linearGradient>
<linearGradient id="paint7_linear_3_6810" x1="2.51878" y1="29.6964" x2="37.08" y2="29.6964" gradientUnits="userSpaceOnUse">
<stop stop-color="#05A1E6" stop-opacity="0.247"/>
<stop offset="1" stop-color="#05A1E6"/>
</linearGradient>
<linearGradient id="paint8_linear_3_6810" x1="22.3454" y1="51.6407" x2="22.3454" y2="4.35711" gradientUnits="userSpaceOnUse">
<stop stop-color="#318ED5"/>
<stop offset="1" stop-color="#38A7E4"/>
</linearGradient>
<linearGradient id="paint9_linear_3_6810" x1="24.9925" y1="51.79" x2="24.9925" y2="5.70905" gradientUnits="userSpaceOnUse">
<stop stop-color="#05A1E6"/>
<stop offset="1" stop-color="#05A1E6" stop-opacity="0.549"/>
</linearGradient>
<linearGradient id="paint10_linear_3_6810" x1="27.7668" y1="54.2861" x2="27.7668" y2="15.3472" gradientUnits="userSpaceOnUse">
<stop stop-color="#1959A6"/>
<stop offset="0.5" stop-color="#05A1E6"/>
<stop offset="0.918" stop-color="#7EC5EA"/>
<stop offset="1" stop-color="#7EC5EA"/>
</linearGradient>
<linearGradient id="paint11_linear_3_6810" x1="29.0359" y1="51.6556" x2="21.6104" y2="9.54339" gradientUnits="userSpaceOnUse">
<stop stop-color="#165096"/>
<stop offset="1" stop-color="#0D82CA"/>
</linearGradient>
<linearGradient id="paint12_linear_3_6810" x1="97.9576" y1="27.7787" x2="97.9576" y2="5.71423" gradientUnits="userSpaceOnUse">
<stop stop-color="#05A1E6"/>
<stop offset="0.874" stop-color="#0495D6"/>
<stop offset="1" stop-color="#0495D6"/>
</linearGradient>
<linearGradient id="paint13_linear_3_6810" x1="108.647" y1="3.80743" x2="99.6984" y2="54.556" gradientUnits="userSpaceOnUse">
<stop stop-color="#38A7E4" stop-opacity="0.329"/>
<stop offset="0.962" stop-color="#0E88D3"/>
<stop offset="1" stop-color="#0E88D3"/>
</linearGradient>
<linearGradient id="paint14_linear_3_6810" x1="100.238" y1="5.60037" x2="100.238" y2="53.6123" gradientUnits="userSpaceOnUse">
<stop stop-color="#168CD4"/>
<stop offset="0.5" stop-color="#1C87CC"/>
<stop offset="1" stop-color="#154B8D"/>
</linearGradient>
<linearGradient id="paint15_linear_3_6810" x1="35.1366" y1="0.806936" x2="91.108" y2="24.0211" gradientUnits="userSpaceOnUse">
<stop stop-color="#97D6EE"/>
<stop offset="0.703" stop-color="#55C1EA"/>
<stop offset="1" stop-color="#55C1EA"/>
</linearGradient>
<linearGradient id="paint16_linear_3_6810" x1="50.4457" y1="14.1421" x2="94.6525" y2="-5.89848" gradientUnits="userSpaceOnUse">
<stop stop-color="#7ACCEC"/>
<stop offset="1" stop-color="#3FB7ED"/>
</linearGradient>
<linearGradient id="paint17_linear_3_6810" x1="93.7907" y1="8.14797" x2="93.7907" y2="55.2294" gradientUnits="userSpaceOnUse">
<stop stop-color="#1DA7E7"/>
<stop offset="1" stop-color="#37ABE7" stop-opacity="0"/>
</linearGradient>
</defs>
</svg>
