<svg width="128" height="128" viewBox="0 0 128 128" fill="none" xmlns="http://www.w3.org/2000/svg">
<path d="M45.2881 49.5589C49.7051 63.0659 51.3781 87.1599 64.2941 87.1599C65.2761 87.1599 66.2711 87.0639 67.2681 86.8739C55.5281 84.1369 54.1361 60.3049 46.9711 47.9619C46.4001 48.4836 45.839 49.0161 45.2881 49.5589Z" fill="url(#paint0_linear_3_7283)"/>
<path d="M46.9712 47.9617C54.1362 60.3037 55.5282 84.1357 67.2682 86.8737C68.2104 86.6958 69.1375 86.4454 70.0412 86.1247C59.5022 80.9607 56.5902 57.8187 48.4532 46.6777C47.9612 47.0877 47.4662 47.5167 46.9712 47.9617Z" fill="url(#paint1_linear_3_7283)"/>
<path d="M57.294 40.6231C56.314 40.6231 55.317 40.7191 54.317 40.9091C51.705 41.4021 49.049 42.5271 46.373 44.2301C47.103 44.9521 47.8 45.7771 48.454 46.6781C51.177 44.4191 53.881 42.7501 56.574 41.7461C57.5575 41.3785 58.571 41.0967 59.603 40.9041C58.848 40.7151 58.0724 40.6207 57.294 40.6231Z" fill="#14559A"/>
<path d="M78.268 81.3656C79.3907 80.4688 80.4719 79.5211 81.508 78.5256C77.02 65.0826 75.413 40.6426 62.407 40.6426C61.477 40.6426 60.539 40.7296 59.603 40.9026C71.45 43.8496 72.968 69.6246 78.268 81.3656Z" fill="url(#paint2_linear_3_7283)"/>
<path d="M59.604 40.9041C58.8484 40.7143 58.072 40.6195 57.293 40.6221L62.407 40.6411C61.478 40.6411 60.54 40.7271 59.604 40.9041Z" fill="#3092C4"/>
<path d="M78.04 84.2207C77.5224 83.7203 77.033 83.1915 76.574 82.6367C74.386 84.1857 72.206 85.3607 70.041 86.1257C70.812 86.5017 71.619 86.7817 72.477 86.9547C73.141 87.0907 73.83 87.1607 74.552 87.1607C76.983 87.1607 78.905 86.8727 80.539 86.0887C79.639 85.6007 78.813 84.9707 78.04 84.2207Z" fill="#1969BC"/>
<path d="M56.5732 41.7483C67.1842 47.2983 68.1072 72.4323 76.5742 82.6373C77.1422 82.2373 77.7042 81.8133 78.2652 81.3663C72.9652 69.6253 71.4502 43.8473 59.6052 40.9033C58.5942 41.0923 57.5852 41.3723 56.5732 41.7483Z" fill="url(#paint3_linear_3_7283)"/>
<path d="M48.4531 46.678C56.5901 57.819 59.5021 80.962 70.0411 86.126C72.2071 85.361 74.3871 84.187 76.5741 82.637C68.1071 72.432 67.1841 47.299 56.5731 41.748C53.8801 42.75 51.1761 44.419 48.4531 46.678Z" fill="url(#paint4_linear_3_7283)"/>
<path d="M40.0832 49.2341C38.8082 52.1171 37.5052 55.9081 35.9312 60.8551C39.0622 56.4421 42.1842 52.6411 45.2882 49.5601C44.8964 48.3328 44.435 47.1288 43.9062 45.9541C42.573 46.977 41.2968 48.0719 40.0832 49.2341Z" fill="url(#paint5_linear_3_7283)"/>
<path d="M45.0372 45.1211C44.6632 45.3891 44.2862 45.6631 43.9072 45.9531C44.4022 47.0331 44.8602 48.2451 45.2872 49.5601C45.8392 49.018 46.4006 48.4856 46.9712 47.9631C46.4005 46.9675 45.7539 46.0174 45.0372 45.1211Z" fill="#2B74B1"/>
<path d="M46.3731 44.2285C45.9281 44.5105 45.4851 44.8085 45.0361 45.1195C45.7311 45.9745 46.3691 46.9295 46.9721 47.9635C47.4671 47.5155 47.9611 47.0845 48.4541 46.6765C47.8001 45.7765 47.1041 44.9505 46.3731 44.2285Z" fill="#125A9E"/>
<path d="M118.751 39.5939C112.75 62.7379 100.215 81.3279 89.7072 86.0139H89.6862L89.1192 86.2569L89.0502 86.2839L88.8892 86.3459L88.8172 86.3759L88.5542 86.4689L88.4462 86.5069L88.3152 86.5499L88.1892 86.5939L88.0772 86.6319L87.8532 86.6999L87.7572 86.7249L87.6062 86.7659L87.5032 86.7939L87.3382 86.8369L87.1372 86.8809C87.6122 87.0559 88.1072 87.1449 88.6402 87.1449C98.6052 87.1449 108.653 69.2869 125.278 39.5889H118.75L118.751 39.5939Z" fill="url(#paint6_linear_3_7283)"/>
<path d="M33.7662 41.5632L33.7852 41.5472L33.8082 41.5322H33.8212L33.9822 41.4702L34.0142 41.4542L34.0562 41.4372L34.2292 41.3752H34.2382L34.6212 41.2412L34.6782 41.2262L34.8422 41.1772L34.9172 41.1532L35.0822 41.1042L35.1452 41.0872L35.6932 40.9452L35.7682 40.9282L35.9282 40.8972L36.0062 40.8732L36.1672 40.8432H36.2052L36.5382 40.7812H36.6042L36.7582 40.7542L36.8452 40.7392L36.9922 40.7172L37.0732 40.7012L37.4312 40.6692C37.0785 40.6348 36.7245 40.6168 36.3702 40.6152C25.1472 40.6152 9.68519 61.4372 2.72119 88.4032H4.06419C6.14627 84.6813 8.16721 80.9254 10.1262 77.1372C15.0052 58.0372 24.9402 45.0112 33.7662 41.5602" fill="url(#paint7_linear_3_7283)"/>
<path d="M40.083 49.2344C41.2971 48.0724 42.5733 46.9771 43.906 45.9534C43.635 45.3501 43.3309 44.7622 42.995 44.1924C41.969 45.4384 41.031 47.0824 40.083 49.2344Z" fill="#0D82CA"/>
<path d="M41.0048 41.7205C41.7378 42.3345 42.3948 43.1805 42.9948 44.1935C43.1838 43.9615 43.3758 43.7465 43.5748 43.5445C42.7691 42.782 41.8553 42.1428 40.8628 41.6475L40.9828 41.7045L41.0048 41.7205Z" fill="#0D82CA"/>
<path d="M10.127 77.1375C20.36 57.4185 25.208 44.9385 33.767 41.5605C24.942 45.0145 15.005 58.0395 10.127 77.1375Z" fill="url(#paint8_linear_3_7283)"/>
<path d="M43.5741 43.5439C43.3751 43.7479 43.1851 43.9609 42.9941 44.1929C43.3161 44.7309 43.6151 45.3169 43.9071 45.9529C44.2851 45.6629 44.6631 45.3899 45.0361 45.1209C44.5863 44.5617 44.0977 44.0348 43.5741 43.5439Z" fill="#127BCA"/>
<path d="M14.7731 88.3147L14.5871 88.3367H14.5521L14.3941 88.3527H14.3681L13.9921 88.3777H13.9531C24.3091 88.0877 29.0441 82.9027 31.3931 75.3807C33.1781 69.6797 34.6451 64.8757 35.9301 60.8457C31.5921 66.9517 27.2341 74.2297 22.8531 82.3847C20.7411 86.3147 17.5281 87.9567 14.7731 88.3067" fill="url(#paint9_linear_3_7283)"/>
<path d="M14.773 88.3105C17.528 87.9595 20.741 86.3195 22.853 82.3875C27.234 74.2365 31.594 66.9565 35.928 60.8495C37.505 55.9005 38.806 52.1125 40.082 49.2285C31.443 57.4515 22.771 71.1245 14.772 88.3055" fill="url(#paint10_linear_3_7283)"/>
<path d="M10.127 77.1387C8.16802 80.9271 6.14674 84.6829 4.06396 88.4047H7.96796C8.461 84.6102 9.18163 80.8487 10.126 77.1407" fill="#05A1E6"/>
<path d="M37.073 40.7093L36.99 40.7253L36.844 40.7463L36.758 40.7613L36.604 40.7883L36.538 40.8043L36.205 40.8623H36.167L36.005 40.8943L35.924 40.9163L35.767 40.9473L35.693 40.9653L35.144 41.1073L35.081 41.1253L34.915 41.1743L34.84 41.1953L34.677 41.2443L34.617 41.2603L34.236 41.3943L34.063 41.4543L33.991 41.4843L33.83 41.5443L33.776 41.5703C25.218 44.9473 20.37 57.4273 10.137 77.1463C9.19066 80.8539 8.47 84.6155 7.979 88.4103H8.526L12.281 88.3943H14.004L14.379 88.3693H14.403L14.561 88.3533H14.598L14.784 88.3313C22.784 71.1493 31.456 57.4773 40.094 49.2543C41.044 47.1023 41.981 45.4583 43.005 44.2143C42.405 43.2013 41.749 42.3533 41.017 41.7383L40.996 41.7223L40.874 41.6633L40.753 41.6023L40.636 41.5453L40.497 41.4873L40.389 41.4403L40.162 41.3453L40.065 41.3093L39.896 41.2413L39.805 41.2113L39.57 41.1303H39.551L39.279 41.0533L39.218 41.0343L38.989 40.9703L38.936 40.9553C38.7479 40.9066 38.5582 40.8649 38.367 40.8303L38.308 40.8143L38.061 40.7743L38.012 40.7593L37.72 40.7203H37.669L37.443 40.6953L37.085 40.7283" fill="url(#paint11_linear_3_7283)"/>
<path d="M95.3109 52.4071C93.3409 58.7141 91.7479 63.9171 90.3589 68.1981C95.7619 60.7631 101.084 51.4111 106.151 40.6191C100.238 42.4761 97.0859 46.7261 95.3109 52.4071Z" fill="url(#paint12_linear_3_7283)"/>
<path d="M90.53 85.6208C90.255 85.7607 89.978 85.8937 89.707 86.0147C100.215 81.3277 112.751 62.7377 118.751 39.5938H117.535C103.747 64.2248 99.313 80.7137 90.53 85.6208Z" fill="url(#paint13_linear_3_7283)"/>
<path d="M83.6679 83.5522C85.9549 80.7612 87.8159 76.0172 90.3589 68.1982C87.4259 72.2272 84.4739 75.6902 81.5189 78.5142L81.5039 78.5392C82.1489 80.4702 82.8559 82.1752 83.6619 83.5512" fill="#079AE1"/>
<path d="M83.6681 83.5518C82.8901 84.5018 82.0651 85.2248 81.1491 85.7608C80.9491 85.8778 80.7451 85.9878 80.5391 86.0878C81.5332 86.6267 82.6216 86.9699 83.7451 87.0988L84.2691 87.1448H84.3001L84.5521 87.1608H85.4071L85.5041 87.1448L85.6931 87.1288H85.7851L85.9901 87.1068H86.0071L86.0701 87.0918L86.2891 87.0578H86.3531L86.5991 87.0168H86.6391L87.1301 86.9128C85.7731 86.4168 84.6381 85.2458 83.6611 83.5788" fill="#1969BC"/>
<path d="M64.2949 87.1609C65.2769 87.1609 66.2709 87.0649 67.2679 86.8729C68.2104 86.6969 69.1376 86.4471 70.0409 86.1259C70.8119 86.5019 71.6199 86.7819 72.4759 86.9569C73.1399 87.0919 73.8299 87.1619 74.5529 87.1619H64.2949V87.1609ZM74.5529 87.1609C76.9819 87.1609 78.9059 86.8729 80.5389 86.0879C81.533 86.6272 82.6214 86.9707 83.7449 87.0999L84.2689 87.1449H84.2999L84.5519 87.1609H84.8539H74.5529Z" fill="#1E5CB3"/>
<path d="M84.854 87.1614H85.415L85.512 87.1454L85.703 87.1294H85.795L85.999 87.1074H86.016L86.078 87.0914L86.297 87.0584L86.364 87.0434L86.611 87.0034H86.65L87.141 86.8994C87.616 87.0744 88.111 87.1634 88.644 87.1634L84.856 87.1794L84.854 87.1614Z" fill="#1D60B5"/>
<path d="M81.5111 78.5404V78.5244C80.475 79.5199 79.3938 80.4676 78.2711 81.3644C77.7191 81.8042 77.1545 82.2281 76.5781 82.6354C77.0541 83.2034 77.5371 83.7354 78.0461 84.2204C78.8181 84.9694 79.6431 85.6004 80.5441 86.0874C80.7491 85.9864 80.9541 85.8764 81.1531 85.7604C82.0711 85.2244 82.8941 84.5004 83.6731 83.5514C82.8671 82.1754 82.1601 80.4694 81.5161 78.5394" fill="#175FAB"/>
<path d="M113.685 39.5938H107.564L106.594 39.6407L106.143 40.6067C101.075 51.3997 95.7551 60.7517 90.3521 68.1867C87.8121 76.0047 85.9481 80.7497 83.6621 83.5397C84.6391 85.2077 85.7761 86.3797 87.1281 86.8767L87.2341 86.8537H87.2561L87.3311 86.8377L87.5011 86.7957L87.6021 86.7667L87.7531 86.7277L87.8471 86.7007L88.0731 86.6328L88.1851 86.5947L88.3111 86.5488L88.4411 86.5078L88.5471 86.4678L88.8111 86.3747L88.8841 86.3477L89.0461 86.2848L89.1141 86.2598L89.6821 86.0167H89.7021C89.9731 85.8977 90.2491 85.7627 90.5231 85.6227C99.3081 80.7147 103.743 64.2267 117.531 39.5967H113.68L113.685 39.5938Z" fill="url(#paint14_linear_3_7283)"/>
<path d="M37.4331 40.6771L37.4961 40.6931L37.6561 40.7101H37.7101L38.0021 40.7481L38.0511 40.7641L38.2971 40.8051L38.3591 40.8201L38.9261 40.9461L38.9781 40.9621L39.2061 41.0261L39.2691 41.0451L39.5401 41.1221L39.5611 41.1381L39.7981 41.2191L39.8881 41.2481L40.0581 41.3171L40.1541 41.3511L40.3801 41.4451L40.4901 41.4921L40.6261 41.5511L40.7461 41.6081L40.8651 41.6701C41.8441 42.1501 42.7441 42.7911 43.5781 43.5681C43.8861 43.2451 44.2061 42.9551 44.5401 42.6941C42.7171 41.4011 40.6501 40.6641 38.2691 40.6641C37.9931 40.6641 37.7171 40.6801 37.4371 40.7011" fill="#7DCBEC"/>
<path d="M43.5742 43.5439C44.0852 44.0189 44.5742 44.5489 45.0362 45.1209C45.4842 44.8099 45.9282 44.5099 46.3732 44.2299C45.8058 43.6585 45.1906 43.1366 44.5342 42.6699C44.2012 42.9299 43.8822 43.2219 43.5742 43.5439Z" fill="#5EC5ED"/>
<path d="M37.1679 40.7414L38.0004 40.7062C40.3831 40.7062 42.448 41.4431 44.2704 42.7354C46.1937 41.2159 48.5204 40.686 51.7512 40.686H36.1074L37.1679 40.7414Z" fill="url(#paint15_linear_3_7283)"/>
<path d="M51.7513 40.6866C48.5206 40.6866 46.1988 41.2165 44.2705 42.736C44.9066 43.1852 45.5225 43.7103 46.108 44.2959C48.7885 42.5947 51.4386 41.4639 54.0535 40.9742C55.053 40.7874 56.0474 40.6915 57.0267 40.6915H51.7513V40.6866Z" fill="url(#paint16_linear_3_7283)"/>
<path d="M90.359 68.2023C91.75 63.9183 93.339 58.7173 95.313 52.4083C97.09 46.7243 100.238 42.4743 106.148 40.6203L106.604 39.6543C96.968 40.2313 92.464 45.1333 90.199 52.3923C86.235 65.0653 83.834 73.2803 81.522 78.5153C84.474 75.6923 87.426 72.2273 90.359 68.2023Z" fill="url(#paint17_linear_3_7283)"/>
<defs>
<linearGradient id="paint0_linear_3_7283" x1="56.4971" y1="40.3037" x2="56.4971" y2="98.8501" gradientUnits="userSpaceOnUse">
<stop stop-color="#0994DC"/>
<stop offset="0.35" stop-color="#66CEF5"/>
<stop offset="0.846" stop-color="#127BCA"/>
<stop offset="1" stop-color="#127BCA"/>
</linearGradient>
<linearGradient id="paint1_linear_3_7283" x1="58.7015" y1="38.8952" x2="58.7015" y2="98.7801" gradientUnits="userSpaceOnUse">
<stop stop-color="#0E76BC"/>
<stop offset="0.36" stop-color="#36AEE8"/>
<stop offset="0.846" stop-color="#00ADEF"/>
<stop offset="1" stop-color="#00ADEF"/>
</linearGradient>
<linearGradient id="paint2_linear_3_7283" x1="70.5517" y1="85.7381" x2="70.5517" y2="38.0887" gradientUnits="userSpaceOnUse">
<stop stop-color="#1C63B7"/>
<stop offset="0.5" stop-color="#33BDF2"/>
<stop offset="1" stop-color="#33BDF2" stop-opacity="0.42"/>
</linearGradient>
<linearGradient id="paint3_linear_3_7283" x1="67.3317" y1="32.6394" x2="67.3317" y2="94.9746" gradientUnits="userSpaceOnUse">
<stop stop-color="#166AB8"/>
<stop offset="0.4" stop-color="#36AEE8"/>
<stop offset="0.846" stop-color="#0798DD"/>
<stop offset="1" stop-color="#0798DD"/>
</linearGradient>
<linearGradient id="paint4_linear_3_7283" x1="62.7389" y1="33.1258" x2="62.7389" y2="99.4113" gradientUnits="userSpaceOnUse">
<stop stop-color="#124379"/>
<stop offset="0.39" stop-color="#1487CB"/>
<stop offset="0.78" stop-color="#165197"/>
<stop offset="1" stop-color="#165197"/>
</linearGradient>
<linearGradient id="paint5_linear_3_7283" x1="35.4284" y1="52.6961" x2="44.7844" y2="52.6961" gradientUnits="userSpaceOnUse">
<stop stop-color="#33BDF2" stop-opacity="0.698"/>
<stop offset="1" stop-color="#1DACD8"/>
</linearGradient>
<linearGradient id="paint6_linear_3_7283" x1="106.28" y1="84.4997" x2="106.28" y2="38.0827" gradientUnits="userSpaceOnUse">
<stop stop-color="#136AB4"/>
<stop offset="0.6" stop-color="#59CAF5" stop-opacity="0.549"/>
<stop offset="1" stop-color="#59CAF5" stop-opacity="0.235"/>
</linearGradient>
<linearGradient id="paint7_linear_3_7283" x1="2.22397" y1="63.7967" x2="36.9306" y2="63.7967" gradientUnits="userSpaceOnUse">
<stop stop-color="#05A1E6" stop-opacity="0.247"/>
<stop offset="1" stop-color="#05A1E6"/>
</linearGradient>
<linearGradient id="paint8_linear_3_7283" x1="22.1324" y1="85.6968" x2="22.1324" y2="38.1695" gradientUnits="userSpaceOnUse">
<stop stop-color="#318ED5"/>
<stop offset="1" stop-color="#38A7E4"/>
</linearGradient>
<linearGradient id="paint9_linear_3_7283" x1="24.6945" y1="85.9499" x2="24.6945" y2="39.6321" gradientUnits="userSpaceOnUse">
<stop stop-color="#05A1E6"/>
<stop offset="1" stop-color="#05A1E6" stop-opacity="0.549"/>
</linearGradient>
<linearGradient id="paint10_linear_3_7283" x1="27.5985" y1="88.3714" x2="27.5985" y2="49.2323" gradientUnits="userSpaceOnUse">
<stop stop-color="#1959A6"/>
<stop offset="0.5" stop-color="#05A1E6"/>
<stop offset="0.918" stop-color="#7EC5EA"/>
<stop offset="1" stop-color="#7EC5EA"/>
</linearGradient>
<linearGradient id="paint11_linear_3_7283" x1="28.7729" y1="85.7812" x2="21.3091" y2="43.4519" gradientUnits="userSpaceOnUse">
<stop stop-color="#165096"/>
<stop offset="1" stop-color="#0D82CA"/>
</linearGradient>
<linearGradient id="paint12_linear_3_7283" x1="98.013" y1="61.7695" x2="98.013" y2="39.6483" gradientUnits="userSpaceOnUse">
<stop stop-color="#05A1E6"/>
<stop offset="0.874" stop-color="#0495D6"/>
<stop offset="1" stop-color="#0495D6"/>
</linearGradient>
<linearGradient id="paint13_linear_3_7283" x1="108.796" y1="37.6897" x2="99.8012" y2="88.6999" gradientUnits="userSpaceOnUse">
<stop stop-color="#38A7E4" stop-opacity="0.329"/>
<stop offset="0.962" stop-color="#0E88D3"/>
<stop offset="1" stop-color="#0E88D3"/>
</linearGradient>
<linearGradient id="paint14_linear_3_7283" x1="100.306" y1="39.5103" x2="100.306" y2="87.7697" gradientUnits="userSpaceOnUse">
<stop stop-color="#168CD4"/>
<stop offset="0.5" stop-color="#1C87CC"/>
<stop offset="1" stop-color="#154B8D"/>
</linearGradient>
<linearGradient id="paint15_linear_3_7283" x1="35.0371" y1="34.8012" x2="91.1497" y2="58.0762" gradientUnits="userSpaceOnUse">
<stop stop-color="#97D6EE"/>
<stop offset="0.703" stop-color="#55C1EA"/>
<stop offset="1" stop-color="#55C1EA"/>
</linearGradient>
<linearGradient id="paint16_linear_3_7283" x1="50.2924" y1="47.9743" x2="94.6119" y2="27.8841" gradientUnits="userSpaceOnUse">
<stop stop-color="#7ACCEC"/>
<stop offset="1" stop-color="#3FB7ED"/>
</linearGradient>
<linearGradient id="paint17_linear_3_7283" x1="93.7216" y1="42.1349" x2="93.7216" y2="89.3373" gradientUnits="userSpaceOnUse">
<stop stop-color="#1DA7E7"/>
<stop offset="1" stop-color="#37ABE7" stop-opacity="0"/>
</linearGradient>
</defs>
</svg>
