<svg width="128" height="128" viewBox="0 0 128 128" fill="none" xmlns="http://www.w3.org/2000/svg">
<path d="M61.195 0H66.148C79.066 0.535 91.836 4.89 102.191 12.676C112 19.965 119.664 30.113 123.918 41.582C126.359 47.969 127.582 54.762 128 61.574V65.785C127.586 77.078 124.336 88.305 118.27 97.867C111.469 108.762 101.348 117.597 89.543 122.695C81.8148 126.046 73.5042 127.848 65.082 128H62.938C51.203 127.809 39.528 124.34 29.641 118.008C18.445 110.895 9.527 100.223 4.613 87.891C1.891 81.19 0.441 74.02 0 66.812V61.855C0.504 47.465 5.953 33.246 15.41 22.359C23.168 13.31 33.5 6.48 44.887 2.937C50.172 1.27 55.676 0.41 61.195 0ZM25.191 37.523C25.161 49.676 25.18 61.828 25.18 73.977C26.61 73.988 28.04 73.988 29.473 73.988C29.398 63.555 29.574 53.125 29.367 42.695C29.847 43.602 30.285 44.535 30.832 45.402C37.035 54.91 43.105 64.5 49.309 74C51.047 73.977 52.785 73.977 54.523 74.004C54.52 61.844 54.516 49.684 54.527 37.524C53.1104 37.5102 51.6937 37.5062 50.277 37.512C50.352 47.832 50.141 58.152 50.402 68.461C43.895 58.109 37.301 47.816 30.707 37.516C28.8683 37.5047 27.0296 37.507 25.191 37.523ZM64.035 37.512C63.906 49.672 64.031 61.832 63.988 73.988C70.457 73.973 76.926 74.012 83.398 73.968C83.3748 72.6507 83.3828 71.333 83.422 70.016C78.41 70 73.395 70.023 68.379 69.996C68.305 65.786 68.375 61.57 68.339 57.359C72.734 57.281 77.129 57.371 81.519 57.312C81.508 56.035 81.508 54.758 81.5 53.48C77.113 53.621 72.727 53.426 68.336 53.492C68.348 49.469 68.356 45.442 68.356 41.414C73.055 41.414 77.754 41.394 82.449 41.426C82.441 40.125 82.449 38.82 82.465 37.52C76.32 37.504 70.175 37.512 64.035 37.512ZM86.637 37.566C86.641 38.832 86.641 40.094 86.645 41.356C90.133 41.316 93.617 41.465 97.105 41.391C97.082 52.254 97.109 63.109 97.094 73.965C98.554 74.008 100.024 74 101.484 73.875C101.364 67.883 101.602 61.887 101.328 55.898C101.395 53.199 101.258 50.504 101.445 47.808C101.551 45.668 101.168 43.531 101.41 41.391C104.926 41.438 108.445 41.406 111.96 41.406C111.944 40.1282 111.969 38.8502 112.035 37.574C103.566 37.469 95.098 37.48 86.637 37.566ZM13.55 69.094C11.573 70.004 11.444 73.117 13.401 74.121C15.121 75.301 17.706 73.75 17.628 71.711C17.761 69.707 15.338 68.023 13.55 69.094ZM42.78 84.383C38.503 87.852 38.554 95.578 43.28 98.633C45.948 100.328 49.382 99.977 52.202 98.848C52.214 98.227 52.229 97.609 52.252 96.988C49.581 98.383 45.842 98.668 43.577 96.378C40.612 93.141 41.28 87.109 45.19 84.902C47.401 83.738 50.097 84.078 52.276 85.141C52.269 84.481 52.272 83.821 52.276 83.161C49.179 82.062 45.354 82.121 42.78 84.383ZM59.987 87.093C58.097 87.313 56.229 88.313 55.354 90.059C54.101 92.555 54.245 95.926 56.218 98.019C58.253 100.316 62.163 100.339 64.398 98.316C66.823 96.008 67.097 91.848 65.155 89.152C64.007 87.523 61.882 86.969 59.987 87.094M77.874 89.816C76.214 92.699 76.542 97.066 79.472 99.027C81.655 100.247 84.405 99.859 86.546 98.719C86.542 98.102 86.55 97.484 86.577 96.871C84.89 97.941 82.64 98.727 80.765 97.648C79.456 96.926 79.061 95.391 78.851 94.023C81.726 93.984 84.597 93.941 87.476 93.949C87.401 92.121 87.358 90.055 86.026 88.641C83.827 86.211 79.382 86.984 77.874 89.816ZM69.46 87.48V99.488C70.112 99.488 70.772 99.488 71.433 99.492C71.456 97.297 71.393 95.098 71.456 92.898C71.472 91.628 71.983 90.34 72.94 89.484C73.741 88.879 74.823 89.214 75.741 89.238C75.729 88.602 75.721 87.968 75.718 87.336C73.925 86.938 72.382 87.988 71.476 89.453C71.456 88.82 71.436 88.187 71.425 87.559C70.769 87.535 70.112 87.508 69.46 87.48Z" fill="#623697"/>
<path d="M58.7582 89.223C60.4102 88.418 62.7812 88.813 63.7032 90.523C64.7532 92.41 64.7302 94.906 63.5662 96.734C62.0462 99.02 58.0392 98.52 57.0432 95.992C56.0352 93.734 56.4262 90.508 58.7582 89.222V89.223ZM79.0402 92.414C79.0862 90.84 80.1842 89.277 81.7662 88.934C82.7422 88.77 83.8632 88.941 84.5392 89.727C85.2112 90.441 85.3522 91.441 85.5192 92.367C83.3592 92.379 81.1992 92.336 79.0392 92.414H79.0402Z" fill="#623697"/>
</svg>
