<svg width="128" height="128" viewBox="0 0 128 128" fill="none" xmlns="http://www.w3.org/2000/svg">
<path d="M32 116.893C32 116.893 68.4054 134.959 96.2587 113.487C88.9952 93.9915 76.2412 37.7499 68.7094 12.9115C67.1038 7.6155 66.8416 7.08754 66.1846 5.63331C62.5086 -2.50213 58.6416 21.4213 52.3526 45.5034C50.1006 54.1352 32 116.893 32 116.893Z" fill="url(#paint0_linear_3_7229)"/>
<path d="M39.3423 112.899C39.3423 112.899 70.488 131.174 96.2585 113.487C95.5686 110.409 93.8106 105.467 92.6167 100.863C86.2721 76.4062 74.7897 35.112 69.1945 14.6116C63.13 -7.5851 61.1683 18.3694 54.0938 45.9872C51.9445 54.3852 39.3423 112.899 39.3423 112.899Z" fill="url(#paint1_linear_3_7229)"/>
<path d="M47.7852 97.0623L51.0222 91.4763L54.0472 97.3603L50.5862 104.95L47.7852 97.0623ZM74.2212 75.9223L77.4592 70.3363L80.4842 76.2213L77.0212 83.8103L74.2212 75.9223ZM56.1212 53.6153L59.3592 48.0303L62.3832 53.9153L58.9212 61.5023L56.1212 53.6153Z" fill="#F9A72B"/>
<path d="M47.7852 97.0622L51.0272 90.5212L54.0472 97.3612L50.5912 102.956L47.7852 97.0622ZM74.2212 75.9222L77.4652 69.3812L80.4842 76.2212L77.0282 81.8162L74.2222 75.9222M56.1222 53.6152L59.3642 47.0752L62.3832 53.9152L58.9262 59.5092L56.1222 53.6152Z" fill="#FFF200"/>
<path d="M51.0122 112.36C51.0122 112.36 74.2022 116.228 89.4672 106.456C87.5532 112.36 70.4372 119.087 51.0122 112.36Z" fill="#24265D"/>
<defs>
<linearGradient id="paint0_linear_3_7229" x1="129.107" y1="33.2665" x2="31.0512" y2="85.3287" gradientUnits="userSpaceOnUse">
<stop stop-color="#3871C1"/>
<stop offset="0.515" stop-color="#2C3792"/>
<stop offset="0.865" stop-color="#24265D"/>
<stop offset="1" stop-color="#252761"/>
</linearGradient>
<linearGradient id="paint1_linear_3_7229" x1="81.6633" y1="60.9214" x2="24.4402" y2="75.8493" gradientUnits="userSpaceOnUse">
<stop stop-color="#3871C1"/>
<stop offset="0.515" stop-color="#2C3792"/>
<stop offset="0.865" stop-color="#24265D"/>
<stop offset="1" stop-color="#252761"/>
</linearGradient>
</defs>
</svg>
