<svg width="128" height="128" viewBox="0 0 128 128" fill="none" xmlns="http://www.w3.org/2000/svg">
<path d="M64.6642 4.01029C61.3742 3.46829 57.7262 24.4203 52.2232 45.4943C49.9702 54.1273 31.8672 116.891 31.8672 116.891C31.8672 116.891 68.2772 134.958 96.1332 113.484C88.8692 93.9873 76.1132 37.7413 68.5802 12.9003C66.9742 7.60429 66.7122 7.07529 66.0552 5.62129C65.5952 4.60429 65.1342 4.08729 64.6652 4.01029H64.6642ZM59.2242 48.0303L62.2482 53.9143L58.7882 61.5023L55.9882 53.6153L59.2252 48.0293L59.2242 48.0303ZM77.3242 70.3363L80.3502 76.2213L76.8872 83.8113L74.0872 75.9213L77.3242 70.3363ZM50.8872 91.4763L53.9122 97.3593L50.4522 104.949L47.6502 97.0633L50.8872 91.4773V91.4763Z" fill="#3152A8"/>
</svg>
