<svg width="128" height="128" viewBox="0 0 128 128" fill="none" xmlns="http://www.w3.org/2000/svg">
<path d="M66.835 101.194H61.826L61.835 110.565C61.835 113.304 60.661 115.52 57.922 115.52C55.183 115.52 53.998 113.304 53.998 110.565V101.203H49.002L49.001 110.565C49.001 115.977 52.48 120.363 57.892 120.363C63.303 120.363 66.833 115.977 66.833 110.565L66.835 101.194ZM111.995 95.4836H116.979V119.879H111.995V95.4836ZM44.929 100.991C40.633 99.9986 37.923 104.267 37.811 104.496C37.755 104.608 37.753 104.674 37.562 104.669C37.406 104.665 37.387 104.496 37.387 104.496L36.854 101.23H32.391V119.862H37.395V109.777C37.395 108.955 39.614 105.003 43.914 106.02C46.089 106.534 47.011 107.456 47.011 107.456V101.78C46.206 101.361 45.654 101.158 44.929 100.991ZM73.626 126V119.296L73.628 119.297V116.787C73.628 116.787 73.636 116.586 73.817 116.583C73.978 116.581 74.014 116.689 74.054 116.787C74.433 117.73 76.52 121.328 81.151 120.199C85.296 119.031 88.337 115.224 88.337 110.704C88.337 105.258 83.92 100.84 78.472 100.84C73.024 100.84 68.608 105.258 68.608 110.704V125.999L73.626 126ZM78.477 105.713C79.4646 105.713 80.43 106.005 81.2512 106.554C82.0723 107.103 82.7123 107.883 83.0901 108.795C83.468 109.708 83.5667 110.712 83.3739 111.68C83.1811 112.649 82.7054 113.539 82.0069 114.237C81.3084 114.935 80.4185 115.41 79.4499 115.603C78.4812 115.795 77.4772 115.696 76.5649 115.318C75.6525 114.94 74.8729 114.299 74.3245 113.478C73.7761 112.657 73.4836 111.691 73.484 110.704C73.4841 110.048 73.6134 109.399 73.8644 108.793C74.1154 108.188 74.4832 107.637 74.9468 107.174C75.4105 106.711 75.9609 106.343 76.5666 106.092C77.1723 105.841 77.8214 105.712 78.477 105.713ZM104.954 119.872H109.972V110.704C109.972 105.258 105.557 100.841 100.108 100.841C94.66 100.841 90.243 105.258 90.243 110.704C90.243 115.225 93.285 119.031 97.43 120.199C102.061 121.328 104.147 117.731 104.527 116.787C104.567 116.689 104.602 116.582 104.764 116.584C104.946 116.586 104.952 116.787 104.952 116.787M105.096 110.704C105.096 111.359 104.967 112.009 104.716 112.615C104.465 113.221 104.098 113.771 103.634 114.235C103.17 114.699 102.62 115.067 102.014 115.318C101.408 115.569 100.759 115.698 100.103 115.699C99.4472 115.699 98.7978 115.57 98.1918 115.319C97.5859 115.068 97.0352 114.7 96.5714 114.237C96.1076 113.773 95.7396 113.223 95.4885 112.617C95.2374 112.011 95.1081 111.361 95.108 110.706C95.1077 109.381 95.6336 108.111 96.57 107.174C97.5064 106.237 98.7765 105.711 100.101 105.711C101.425 105.71 102.696 106.236 103.633 107.173C104.569 108.109 105.096 109.379 105.096 110.704ZM16.713 119.833H11.021V95.4746H17.129C24.525 95.4746 30.135 96.8316 30.135 107.653C30.135 118.372 24.192 119.833 16.713 119.833ZM18.073 99.6966H16.061V115.606L18.127 115.659C22.365 115.659 25.094 115.273 25.094 107.652C25.094 100.346 22.685 99.6966 18.073 99.6966Z" fill="#0073BA"/>
<path d="M83.5388 20.7063C78.9588 17.8533 74.6378 16.7313 70.3178 13.8803C67.6388 12.0653 63.9228 7.74432 60.8118 4.02832C60.2078 9.99032 58.3928 12.4113 56.3188 14.1383C51.9118 17.5953 49.1458 18.6323 45.3438 20.7053C42.1458 22.3483 24.7778 32.7173 24.7778 55.0113C24.7778 77.3053 43.5298 93.7243 64.3548 93.7243C85.1808 93.7243 103.241 78.6023 103.241 55.7033C103.241 32.8043 86.3038 22.4353 83.5388 20.7063Z" fill="#00598E"/>
<path d="M76.5202 74.3578C77.9022 74.3578 79.3722 74.4438 80.4092 75.1348C81.4462 75.8258 82.0512 77.3828 82.3962 78.2458C82.7422 79.1088 82.3962 79.6277 81.7052 79.9737C81.1012 80.3197 81.0142 80.1468 80.4092 79.0248C79.8042 77.9008 79.2852 76.7768 76.2612 76.7768C73.2372 76.7768 72.2862 77.8138 70.8172 79.0248C69.3482 80.2348 68.8292 80.6667 68.3112 79.9737C67.7932 79.2827 67.9652 78.5917 68.9152 77.7267C69.8662 76.8627 71.4212 75.4818 72.8902 74.8748C74.3602 74.2718 75.1382 74.3578 76.5202 74.3578ZM62.1762 84.2087C63.9052 85.5907 66.4962 86.7147 72.0272 86.7147C77.5582 86.7147 81.4462 85.1587 83.1742 83.8627C83.9522 83.2577 84.2972 83.7778 84.3842 84.1218C84.4702 84.4688 84.6432 84.9868 84.0382 85.5908C83.6062 86.0238 79.6312 88.7888 74.9652 89.2218C70.2982 89.6528 63.9912 89.9128 60.1882 86.4558C59.5842 85.8508 59.7572 84.9867 60.1882 84.6417C60.6212 84.2957 60.9672 84.0368 61.4842 84.0368C62.0022 84.0358 61.9172 84.0357 62.1762 84.2087Z" fill="white"/>
<path d="M41.0048 77.6416C47.5718 77.5556 48.7818 76.4316 54.5708 73.8406C85.8528 59.8416 91.6408 47.0516 92.7648 44.1136C93.8878 41.1756 95.5298 36.4226 93.8018 31.1516C93.5281 30.3276 93.277 29.4963 93.0488 28.6586C88.8918 24.0116 84.7648 21.4746 83.5188 20.6966C79.0248 17.8436 74.6188 16.7196 70.2968 13.8686C67.6188 12.1406 63.9028 7.73355 60.7928 4.01855C60.1868 9.97855 58.4598 12.4866 56.2978 14.1266C51.8918 17.5846 49.1268 18.6206 45.3238 20.6956C42.1268 22.4226 24.7578 32.7056 24.7578 55.0006C24.7578 62.1176 26.6698 68.6376 29.9498 74.2156L30.8068 74.1836C32.6228 75.8266 35.4738 77.7276 41.0048 77.6416Z" fill="#0073BA"/>
<path d="M83.5198 20.6966C79.0258 17.8436 74.6198 16.7196 70.2978 13.8686C67.6198 12.1406 63.9038 7.73355 60.7938 4.01855C60.1878 9.97855 58.4608 12.4866 56.2988 14.1266C51.8928 17.5846 49.1278 18.6206 45.3248 20.6956C42.1278 22.4226 24.7588 32.7056 24.7588 55.0006C24.7588 62.1176 26.6708 68.6376 29.9508 74.2156C36.9448 86.1066 50.1588 93.7136 64.3348 93.7136C85.1608 93.7136 103.221 78.5916 103.221 55.6926C103.221 43.1166 98.1138 34.3216 93.0498 28.6586C88.8928 24.0116 84.7658 21.4756 83.5198 20.6966ZM94.0228 30.8116C99.6958 37.9056 102.574 46.2766 102.574 55.6936C102.574 61.1586 101.532 66.3196 99.4798 71.0366C97.5435 75.4958 94.7065 79.5067 91.1468 82.8176C84.0638 89.4276 74.5428 93.0666 64.3358 93.0666C59.2881 93.0665 54.2878 92.0931 49.6088 90.1996C45.0041 88.3534 40.7888 85.6556 37.1838 82.2476C29.5898 75.0696 25.4078 65.3936 25.4078 55.0026C25.4078 45.7466 28.4118 37.5226 34.3378 30.5576C38.8638 25.2376 43.7458 22.2886 45.6338 21.2676C46.4974 20.8 47.3671 20.344 48.2428 19.8996C50.8498 18.5616 53.3128 17.2966 56.7008 14.6396C58.5068 13.2676 60.4308 11.0936 61.2498 5.57155C64.1048 8.96755 67.4168 12.7816 69.9478 14.4156C72.1948 15.8986 74.4988 16.9376 76.7278 17.9426C78.8348 18.8926 81.0158 19.8756 83.1728 21.2446L83.2548 21.2946C89.5588 25.2296 92.9178 29.4316 94.0228 30.8116Z" fill="#004975"/>
<path d="M61.2248 5.74707C62.4338 9.28907 62.2618 11.1041 62.2618 11.8831C62.2618 12.6601 61.8298 14.7351 60.4468 15.7711C59.8418 16.2041 59.6698 16.5481 59.6698 16.6361C59.6698 16.9801 60.4468 17.2401 60.4468 18.0171C60.4468 18.9681 60.0158 20.8701 55.4358 25.4491C50.8558 30.0291 44.2888 34.0911 39.1898 36.5951C34.0918 39.1021 31.6728 38.9301 30.9818 37.7201C30.2898 36.5101 31.2408 33.8311 34.4378 30.2881C37.6348 26.7441 47.7458 21.6461 47.7458 21.6461L60.3628 12.8331L61.0528 9.46307" fill="#93C5E4"/>
<path d="M61.225 5.65918C60.447 11.3632 58.719 13.0932 56.386 14.9052C52.497 17.8442 48.696 19.6582 47.831 20.0912C45.584 21.2142 37.462 25.7082 33.227 32.1902C31.931 34.1772 33.227 34.9552 33.486 35.1282C33.746 35.3012 36.683 35.6472 42.991 31.8452C49.3 28.0422 52.065 25.7962 55.608 22.0802C57.509 20.0922 57.768 18.9692 57.768 18.4502C57.768 17.8462 57.336 17.5872 56.645 17.4132C56.298 17.3272 56.213 17.1542 56.645 16.8952C57.077 16.6362 58.891 15.7712 59.324 15.4262C59.756 15.0792 61.83 13.6982 61.916 11.4502C62.002 9.20318 61.83 7.64718 61.225 5.65918ZM41.782 68.4812C41.868 61.7412 48.177 55.4332 56.127 55.3462C66.237 55.2612 73.236 65.3702 78.335 65.2842C82.655 65.1982 90.951 56.7302 95.013 56.7302C99.333 56.7302 100.544 61.2242 100.544 63.9022C100.544 66.5812 99.679 71.4202 97.605 74.4442C95.531 77.4682 94.235 78.5922 91.816 78.4192C88.705 78.1602 82.483 68.4812 78.508 68.3102C73.497 68.1372 62.608 78.7652 54.053 78.7652C48.869 78.7652 47.314 77.9892 45.585 76.8642C42.992 75.0502 41.696 72.2832 41.782 68.4812Z" fill="white"/>
</svg>
