<svg width="128" height="128" viewBox="0 0 128 128" fill="none" xmlns="http://www.w3.org/2000/svg">
<path d="M91.0859 24.9289C84.7339 20.9729 78.7419 19.4149 72.7499 15.4599C69.0329 12.9429 63.8809 6.94987 59.5639 1.79688C58.7259 10.0669 56.2089 13.4229 53.3339 15.8189C47.2209 20.6139 43.3849 22.0509 38.1119 24.9279C33.6769 27.2049 9.58789 41.5869 9.58789 72.5079C9.58789 103.431 35.5959 126.201 64.4789 126.201C93.3659 126.201 118.413 105.227 118.413 73.4669C118.413 41.7069 94.9219 27.3249 91.0859 24.9289ZM91.7789 114.923C91.1789 115.523 85.6659 119.358 79.1949 119.957C72.7219 120.556 63.9739 120.917 58.6989 116.122C57.8609 115.282 58.1009 114.085 58.6989 113.605C59.2989 113.126 59.7789 112.765 60.4979 112.765C61.2169 112.765 61.0979 112.765 61.4569 113.005C63.8529 114.922 67.4489 116.481 75.1189 116.481C82.7909 116.481 88.1829 114.323 90.5799 112.526C91.6599 111.686 92.1389 112.407 92.2579 112.885C92.3789 113.365 92.6189 114.085 91.7789 114.923ZM70.8049 104.017C72.1229 102.818 74.2819 100.902 76.3189 100.062C78.3559 99.2239 79.4359 99.3429 81.3519 99.3429C83.2699 99.3429 85.3069 99.4619 86.7469 100.422C88.1849 101.38 89.0239 103.538 89.5029 104.736C89.9819 105.934 89.5029 106.653 88.5439 107.132C87.7059 107.612 87.5849 107.372 86.7469 105.816C85.9069 104.257 85.1879 102.699 80.9929 102.699C76.7979 102.699 75.4789 104.137 73.4419 105.816C71.4049 107.494 70.6859 108.093 69.9669 107.132C69.2479 106.174 69.4859 105.216 70.8049 104.017ZM102.566 104.976C98.2519 104.617 89.6209 91.1929 84.1069 90.9539C77.1579 90.7139 62.0539 105.455 50.1889 105.455C42.9989 105.455 40.8419 104.378 38.4439 102.818C34.8479 100.302 33.0509 96.4659 33.1709 91.1929C33.2909 81.8439 42.0399 73.0949 53.0659 72.9749C67.0889 72.8569 76.7959 86.8779 83.8689 86.7579C89.8609 86.6389 101.367 74.8939 107 74.8939C112.992 74.8939 114.672 81.1259 114.672 84.8409C114.672 88.5559 113.473 95.2679 110.596 99.4619C107.719 103.657 105.922 105.216 102.566 104.976Z" fill="#0073BA"/>
</svg>
