<svg width="128" height="128" viewBox="0 0 128 128" fill="none" xmlns="http://www.w3.org/2000/svg">
<path d="M91.1001 24.9347C84.7481 20.9787 78.7551 19.4217 72.7631 15.4657C69.0471 12.9497 63.8941 6.95573 59.5781 1.80273C58.7401 10.0727 56.2231 13.4277 53.3471 15.8247C47.2351 20.6197 43.3991 22.0567 38.1251 24.9337C33.6901 27.2117 9.60107 41.5947 9.60107 72.5157C9.60107 103.439 35.6091 126.21 64.4931 126.21C93.3791 126.21 118.427 105.236 118.427 73.4757C118.426 41.7137 94.9361 27.3327 91.1001 24.9347Z" fill="#00598E"/>
<path d="M81.3649 99.3497C83.2819 99.3497 85.3199 99.4687 86.7589 100.429C88.1969 101.387 89.0359 103.545 89.5149 104.743C89.9939 105.942 89.5149 106.66 88.5559 107.139C87.7179 107.619 87.5979 107.379 86.7589 105.822C85.9199 104.264 85.1999 102.705 81.0058 102.705C76.8109 102.705 75.4919 104.144 73.4549 105.822C71.4169 107.5 70.6978 108.099 69.9788 107.139C69.2598 106.181 69.4999 105.222 70.8179 104.023C72.1359 102.824 74.2939 100.907 76.3309 100.068C78.3689 99.2297 79.4479 99.3497 81.3649 99.3497ZM61.4699 113.013C63.8669 114.93 67.4619 116.488 75.1329 116.488C82.8039 116.488 88.1959 114.331 90.5939 112.534C91.6729 111.694 92.1519 112.414 92.2719 112.893C92.3919 113.372 92.6319 114.092 91.7929 114.93C91.1939 115.53 85.6809 119.365 79.2089 119.964C72.7359 120.563 63.9879 120.923 58.7139 116.129C57.8749 115.29 58.1149 114.092 58.7139 113.613C59.3139 113.134 59.7929 112.773 60.5119 112.773C61.2309 112.773 61.1099 112.772 61.4699 113.013Z" fill="white"/>
<path d="M32.1062 103.903C41.2142 103.784 42.8922 102.225 50.9222 98.63C94.3092 79.214 102.338 61.477 103.897 57.401C105.455 53.325 107.732 46.734 105.335 39.422C104.956 38.2797 104.607 37.1273 104.29 35.966C98.5252 29.519 92.8012 26.001 91.0722 24.921C84.8402 20.966 78.7272 19.408 72.7342 15.453C69.0192 13.056 63.8662 6.94304 59.5512 1.79004C58.7112 10.059 56.3152 13.536 53.3182 15.812C47.2062 20.607 43.3712 22.045 38.0972 24.921C33.6642 27.318 9.57422 41.581 9.57422 72.502C9.57422 82.375 12.2252 91.417 16.7752 99.151L17.9632 99.109C20.4802 101.387 24.4362 104.023 32.1062 103.903Z" fill="#0073BA"/>
<path d="M91.0732 24.922C84.8412 20.967 78.7282 19.409 72.7352 15.454C69.0202 13.057 63.8672 6.94402 59.5522 1.79102C58.7122 10.06 56.3162 13.537 53.3192 15.813C47.2072 20.608 43.3722 22.046 38.0982 24.922C33.6642 27.318 9.57422 41.581 9.57422 72.502C9.57422 82.375 12.2252 91.417 16.7752 99.151C26.4752 115.643 44.8032 126.195 64.4652 126.195C93.3502 126.195 118.399 105.221 118.399 73.46C118.399 56.019 111.315 43.819 104.291 35.966C98.5262 29.52 92.8022 26.002 91.0732 24.922ZM105.642 38.952C113.51 48.79 117.501 60.4 117.501 73.461C117.501 81.041 116.057 88.2 113.21 94.742C110.524 100.927 106.589 106.49 101.651 111.082C91.8282 120.25 78.6222 125.298 64.4652 125.298C57.4622 125.298 50.5902 123.96 44.0382 121.321C37.652 118.761 31.8059 115.019 26.8062 110.292C16.2732 100.337 10.4722 86.917 10.4722 72.503C10.4722 59.666 14.6392 48.259 22.8582 38.598C29.1362 31.219 35.9072 27.129 38.5262 25.713C39.7237 25.0642 40.9298 24.4315 42.1442 23.815C45.7602 21.959 49.1762 20.206 53.8742 16.52C56.3792 14.617 59.0482 11.601 60.1842 3.94402C64.1442 8.65202 68.7382 13.944 72.2482 16.208C75.3642 18.266 78.5602 19.707 81.6512 21.1C84.5742 22.419 87.5982 23.782 90.5892 25.681L90.7022 25.751C99.4502 31.211 104.109 37.037 105.642 38.952Z" fill="#004975"/>
<path d="M60.1508 4.1875C61.8288 9.1015 61.5888 11.6185 61.5888 12.6975C61.5888 13.7765 60.9888 16.6535 59.0708 18.0905C58.2318 18.6905 57.9928 19.1695 57.9928 19.2895C57.9928 19.7685 59.0708 20.1285 59.0708 21.2065C59.0708 22.5255 58.4718 25.1625 52.1198 31.5145C45.7668 37.8665 36.6588 43.4995 29.5878 46.9745C22.5168 50.4505 19.1608 50.2115 18.2018 48.5335C17.2428 46.8555 18.5608 43.1405 22.9958 38.2265C27.4308 33.3115 41.4528 26.2405 41.4528 26.2405L58.9518 14.0165L59.9098 9.3415" fill="#93C5E4"/>
<path d="M60.1511 4.06738C59.0721 11.9784 56.6751 14.3754 53.4391 16.8914C48.0451 20.9674 42.7721 23.4834 41.5741 24.0824C38.4581 25.6404 27.1921 31.8734 21.3191 40.8624C19.5211 43.6184 21.3191 44.6974 21.6781 44.9364C22.0381 45.1764 26.1131 45.6554 34.8621 40.3824C43.6121 35.1084 47.4471 31.9924 52.3611 26.8384C54.9981 24.0824 55.3571 22.5244 55.3571 21.8044C55.3571 20.9664 54.7571 20.6064 53.7991 20.3664C53.3191 20.2464 53.1991 20.0064 53.7991 19.6474C54.3981 19.2884 56.9141 18.0894 57.5141 17.6104C58.1141 17.1314 60.9901 15.2144 61.1101 12.0974C61.2291 8.98138 60.9901 6.82338 60.1511 4.06738ZM33.1851 91.1994C33.3051 81.8504 42.0541 73.1014 53.0811 72.9814C67.1031 72.8624 76.8111 86.8844 83.8831 86.7644C89.8741 86.6464 101.38 74.9004 107.014 74.9004C113.006 74.9004 114.685 81.1324 114.685 84.8484C114.685 88.5634 113.486 95.2754 110.609 99.4694C107.733 103.665 105.935 105.222 102.58 104.982C98.2661 104.623 89.6361 91.1994 84.1221 90.9604C77.1721 90.7204 62.0691 105.461 50.2041 105.461C43.0141 105.461 40.8561 104.383 38.4591 102.824C34.8621 100.309 33.0651 96.4734 33.1851 91.1994Z" fill="white"/>
</svg>
