<svg width="128" height="128" viewBox="0 0 128 128" fill="none" xmlns="http://www.w3.org/2000/svg">
<path d="M66.835 101.194H61.826L61.835 110.565C61.835 113.304 60.66 115.52 57.922 115.52C55.183 115.52 53.998 113.304 53.998 110.565V101.203H49.002L49.001 110.565C49.001 115.977 52.48 120.363 57.893 120.363C63.303 120.363 66.833 115.977 66.833 110.565L66.835 101.194ZM111.994 95.4839H116.978V119.879H111.994V95.4839ZM44.929 100.991C40.633 99.9989 37.923 104.267 37.811 104.496C37.755 104.608 37.753 104.674 37.562 104.669C37.406 104.665 37.387 104.496 37.387 104.496L36.854 101.23H32.391V119.862H37.395V109.777C37.395 108.955 39.614 105.003 43.914 106.02C46.089 106.534 47.011 107.456 47.011 107.456V101.78C46.206 101.361 45.654 101.158 44.929 100.991ZM73.626 126V119.296L73.628 119.297V116.787C73.628 116.787 73.637 116.586 73.817 116.583C73.978 116.581 74.014 116.689 74.054 116.787C74.433 117.73 76.519 121.328 81.151 120.199C85.297 119.031 88.338 115.224 88.338 110.704C88.338 105.258 83.92 100.84 78.473 100.84C73.025 100.84 68.608 105.258 68.608 110.704V125.999L73.626 126ZM78.477 105.713C79.8012 105.713 81.0713 106.238 82.0079 107.175C82.9444 108.111 83.4707 109.381 83.471 110.705C83.4713 112.029 82.9455 113.299 82.0093 114.236C81.0731 115.172 79.8032 115.699 78.479 115.699C77.8233 115.699 77.174 115.57 76.5682 115.319C75.9623 115.068 75.4118 114.701 74.9481 114.237C74.0116 113.301 73.4853 112.031 73.485 110.707C73.4849 110.051 73.6139 109.402 73.8647 108.796C74.1155 108.19 74.4832 107.64 74.9467 107.176C75.4103 106.712 75.9606 106.344 76.5663 106.093C77.1721 105.842 77.8213 105.713 78.477 105.713ZM104.954 119.872H109.972V110.704C109.972 105.258 105.557 100.841 100.108 100.841C94.66 100.841 90.243 105.258 90.243 110.704C90.243 115.225 93.284 119.031 97.43 120.199C102.062 121.328 104.147 117.731 104.527 116.787C104.567 116.689 104.602 116.582 104.764 116.584C104.946 116.586 104.952 116.787 104.952 116.787M105.096 110.704C105.096 111.36 104.967 112.009 104.716 112.615C104.466 113.221 104.098 113.771 103.634 114.235C103.171 114.699 102.621 115.067 102.015 115.318C101.409 115.569 100.76 115.699 100.104 115.699C99.4482 115.699 98.7989 115.57 98.1929 115.319C97.587 115.069 97.0364 114.701 96.5726 114.237C96.1088 113.774 95.7408 113.223 95.4897 112.618C95.2386 112.012 95.1092 111.363 95.109 110.707C95.1086 109.383 95.6343 108.112 96.5705 107.176C97.5067 106.239 98.7766 105.712 100.101 105.712C101.425 105.712 102.696 106.237 103.632 107.173C104.569 108.11 105.096 109.38 105.096 110.704ZM16.713 119.833H11.021V95.4749H17.129C24.525 95.4749 30.135 96.8319 30.135 107.653C30.135 118.372 24.192 119.833 16.713 119.833ZM18.073 99.6969H16.061V115.606L18.127 115.659C22.365 115.659 25.094 115.273 25.094 107.652C25.094 100.346 22.685 99.6969 18.073 99.6969ZM83.757 18.8769C79.125 15.9899 74.753 14.8549 70.383 11.9699C67.672 10.1349 63.914 5.76291 60.765 2.00391C60.154 8.03491 58.318 10.4829 56.22 12.2319C51.761 15.7289 48.963 16.7789 45.117 18.8779C41.882 20.5379 24.31 31.0279 24.31 53.5819C24.31 76.1389 43.281 92.7479 64.349 92.7479C85.42 92.7479 103.691 77.4489 103.691 54.2819C103.691 31.1149 86.556 20.6249 83.757 18.8769ZM84.264 84.5209C83.826 84.9589 79.804 87.7549 75.084 88.1929C70.362 88.6309 63.981 88.8929 60.134 85.3959C59.523 84.7839 59.698 83.9099 60.134 83.5609C60.572 83.2099 60.922 82.9479 61.446 82.9479C61.97 82.9479 61.884 82.9479 62.146 83.1229C63.893 84.5209 66.516 85.6579 72.111 85.6579C77.708 85.6579 81.641 84.0839 83.388 82.7729C84.177 82.1609 84.525 82.6859 84.612 83.0359C84.7 83.3849 84.875 83.9089 84.264 84.5209ZM68.963 76.5649C69.926 75.6909 71.5 74.2929 72.985 73.6799C74.47 73.0689 75.259 73.1559 76.657 73.1559C78.055 73.1559 79.541 73.2419 80.592 73.9429C81.641 74.6409 82.253 76.2149 82.602 77.0899C82.952 77.9639 82.602 78.4869 81.904 78.8369C81.292 79.1879 81.204 79.0119 80.592 77.8769C79.98 76.7389 79.454 75.6029 76.395 75.6029C73.334 75.6029 72.374 76.6529 70.887 77.8769C69.401 79.1009 68.877 79.5379 68.353 78.8369C67.828 78.1389 68.002 77.4389 68.963 76.5649ZM92.132 77.2649C88.985 77.0029 82.689 67.2109 78.667 67.0359C73.598 66.8609 62.581 77.6139 53.927 77.6139C48.683 77.6139 47.108 76.8279 45.36 75.6909C42.737 73.8549 41.426 71.0569 41.513 67.2109C41.602 60.3919 47.983 54.0099 56.025 53.9219C66.254 53.8369 73.335 64.0649 78.494 63.9769C82.865 63.8899 91.258 55.3229 95.366 55.3229C99.737 55.3229 100.963 59.8689 100.963 62.5789C100.963 65.2889 100.087 70.1839 97.989 73.2429C95.89 76.3029 94.579 77.4389 92.132 77.2649Z" fill="#0073BA"/>
</svg>
