<svg width="128" height="128" viewBox="0 0 128 128" fill="none" xmlns="http://www.w3.org/2000/svg">
<path d="M49.6149 66.345L51.3105 64.227L55.6 59.6854H59.0037L53.3267 65.745L59.3664 73.7997H55.8633L51.3354 67.6109L49.6882 68.9723V73.8071H46.7329V53.9314H49.7081V63.627L49.5515 66.35L49.6149 66.345ZM61.482 55.9748C61.4534 55.5189 61.6136 55.0705 61.9242 54.7351C62.0954 54.5839 62.2949 54.4682 62.5111 54.3946C62.7273 54.321 62.956 54.2911 63.1838 54.3065C63.636 54.2792 64.0782 54.4332 64.4161 54.7351C64.5689 54.9014 64.6862 55.0971 64.761 55.3103C64.8357 55.5234 64.8663 55.7495 64.8509 55.9748C64.8636 56.1947 64.8314 56.4149 64.7565 56.6221C64.6815 56.8292 64.5653 57.0189 64.4149 57.1798C64.0832 57.4904 63.6372 57.6519 63.1826 57.622C62.7192 57.6543 62.2633 57.4941 61.923 57.1798C61.7714 57.0194 61.654 56.8299 61.578 56.6228C61.502 56.4156 61.4689 56.1952 61.4807 55.9748H61.482ZM64.6621 73.8345H61.6646V59.673H64.6608L64.6621 73.8345ZM76.1677 59.4283C77.7577 59.3661 79.2832 60.0779 80.267 61.3413C81.2608 62.6216 81.7577 64.4146 81.7577 66.7202C81.7577 69.0357 81.2608 70.8195 80.2596 72.1264C79.2248 73.3463 77.7056 74.0494 76.1068 74.0494C75.3167 74.048 74.5364 73.8754 73.8195 73.5434C73.1025 73.2114 72.4661 72.728 71.954 72.1264H71.7503L71.1987 73.7947H68.9627V53.9189H71.9788V58.6854L71.9242 60.2382L71.8497 61.5525H71.9788C72.9105 60.1401 74.518 59.3264 76.2074 59.4158L76.1677 59.4283ZM75.3851 61.8792C74.3913 61.786 73.4186 62.186 72.7764 62.9475C72.2447 63.6283 71.9664 64.8481 71.9528 66.5152V66.7189C71.9528 68.4349 72.2252 69.6788 72.7701 70.4506C73.3913 71.2655 74.4099 71.7015 75.441 71.6084C75.9197 71.629 76.3953 71.5227 76.8198 71.3005C77.2443 71.0782 77.6026 70.7477 77.8583 70.3425C78.4754 69.2294 78.7612 67.9631 78.6819 66.6928C78.6819 63.4837 77.5834 61.8792 75.3863 61.8792H75.3851ZM94.062 73.8133L93.4633 71.8506H93.3614C92.8286 72.5872 92.1287 73.1871 91.3192 73.6009C90.477 73.9425 89.5726 74.1028 88.6633 74.0705C87.4745 74.1413 86.3068 73.7376 85.4161 72.9475C85.0118 72.527 84.699 72.0274 84.4974 71.4801C84.2958 70.9328 84.2098 70.3496 84.2447 69.7674C84.2092 69.1244 84.3403 68.4832 84.6254 67.9058C84.9105 67.3284 85.3399 66.8344 85.872 66.4717C86.9486 65.7322 88.5942 65.328 90.8086 65.2593L93.2459 65.1848V64.4295C93.3055 63.6941 93.0819 62.9637 92.6198 62.3873C92.3582 62.1437 92.0486 61.9573 91.7108 61.8401C91.3731 61.7229 91.0146 61.6774 90.6583 61.7065C89.9519 61.7027 89.2492 61.8083 88.5751 62.0196C87.918 62.2399 87.2747 62.4992 86.6484 62.796L85.6745 60.6506C86.472 60.2407 87.318 59.9338 88.1937 59.7388C89.039 59.5361 89.9047 59.431 90.7739 59.4258C92.5627 59.4258 93.9291 59.8183 94.8732 60.6034C95.809 61.3885 96.2629 62.6162 96.2347 64.2866V73.8183L94.062 73.8133ZM89.595 71.7711C90.554 71.8199 91.4943 71.4928 92.2161 70.8593C92.9043 70.191 93.267 69.2444 93.2099 68.3003V67.0742L91.3925 67.1562C90.3251 67.1114 89.2644 67.346 88.3155 67.8369C87.9978 68.0452 87.7411 68.3339 87.5713 68.6736C87.4015 69.0134 87.3248 69.3921 87.349 69.7711C87.3336 70.0396 87.3753 70.3084 87.4715 70.5595C87.5676 70.8107 87.716 71.0387 87.9068 71.2282C88.3894 71.625 89.0068 71.82 89.6298 71.7723L89.595 71.7711ZM112.82 73.8133H109.804V65.1177C109.861 64.2515 109.621 63.3917 109.123 62.6804C108.859 62.396 108.533 62.1757 108.171 62.0364C107.808 61.8971 107.419 61.8425 107.032 61.8767C106.512 61.8326 105.99 61.9113 105.506 62.1063C105.022 62.3014 104.591 62.6074 104.247 62.9997C103.662 63.7483 103.369 65.003 103.369 66.7636V73.7972H100.366V59.6854H102.727L103.149 61.5301H103.306C103.744 60.8459 104.374 60.3058 105.117 59.9773C105.932 59.6024 106.821 59.414 107.718 59.4258C111.108 59.4258 112.804 61.1483 112.804 64.5935L112.82 73.8133ZM125.826 73.8133L125.227 71.8506H125.125C124.593 72.5872 123.893 73.1871 123.083 73.6009C122.241 73.9425 121.337 74.1028 120.427 74.0705C119.839 74.1059 119.249 74.025 118.692 73.8323C118.135 73.6396 117.621 73.3389 117.18 72.9475C116.776 72.527 116.463 72.0274 116.261 71.4801C116.06 70.9328 115.974 70.3496 116.009 69.7674C115.973 69.1244 116.104 68.4832 116.389 67.9058C116.674 67.3284 117.104 66.8344 117.636 66.4717C118.713 65.7322 120.358 65.328 122.573 65.2593L125.01 65.1848V64.4295C125.069 63.6941 124.846 62.9637 124.384 62.3873C124.122 62.1437 123.813 61.9573 123.475 61.8401C123.137 61.7229 122.779 61.6774 122.422 61.7065C121.716 61.7027 121.013 61.8083 120.339 62.0196C119.682 62.2399 119.039 62.4992 118.412 62.796L117.438 60.6506C118.236 60.2407 119.082 59.9338 119.958 59.7388C120.803 59.5368 121.669 59.4318 122.538 59.4258C124.327 59.4258 125.693 59.8183 126.637 60.6034C127.573 61.3885 128.027 62.6162 127.999 64.2866V73.8183L125.826 73.8133ZM121.359 71.7711C122.318 71.8199 123.258 71.4928 123.98 70.8593C124.668 70.191 125.031 69.2444 124.974 68.3003V67.0742L123.156 67.1562C122.089 67.1114 121.028 67.346 120.079 67.8369C119.762 68.0452 119.505 68.3339 119.335 68.6736C119.165 69.0134 119.089 69.3921 119.113 69.7711C119.098 70.0396 119.139 70.3084 119.235 70.5595C119.332 70.8107 119.48 71.0387 119.671 71.2282C120.144 71.6176 120.747 71.8122 121.359 71.7723V71.7711Z" fill="black"/>
<path fill-rule="evenodd" clip-rule="evenodd" d="M0 57.168V85.8984L20.4223 62.3791C14.1615 58.9468 7.13788 57.168 0 57.168Z" fill="#343741"/>
<path fill-rule="evenodd" clip-rule="evenodd" d="M0 36.6211V57.1677C7.13664 57.1677 14.159 58.959 20.4223 62.3776L42.7801 36.6211H0Z" fill="#F04E98"/>
<path fill-rule="evenodd" clip-rule="evenodd" d="M24.8121 65.1211L2.02832 91.3795H41.9252C39.7488 80.777 33.6333 71.3944 24.8134 65.1223L24.8121 65.1211Z" fill="#00BFB3"/>
</svg>
