<svg width="128" height="128" viewBox="0 0 128 128" fill="none" xmlns="http://www.w3.org/2000/svg">
<path d="M15.8266 60.9072L25.5956 65.3651L35.45 56.7266C35.5993 56.0014 35.6633 55.3188 35.6633 54.5509C35.6633 48.4719 30.7147 43.5234 24.6358 43.5234C20.9884 43.5234 17.6183 45.3151 15.5706 48.3226L13.9282 56.8332L15.8266 60.9072Z" fill="#FED10A"/>
<path d="M5.71623 71.2524C5.56692 71.9776 5.50293 72.7028 5.50293 73.4493C5.50293 79.5496 10.4728 84.4768 16.5517 84.4768C20.2205 84.4768 23.6332 82.6638 25.6809 79.6563L27.302 71.1884L25.1263 67.0291L15.3146 62.5498L5.71623 71.2524Z" fill="#24BBB1"/>
<path d="M5.65247 54.3373L12.35 55.9157L13.8218 48.3223C12.9259 47.6185 11.7741 47.2559 10.6223 47.2559C7.72145 47.2559 5.33252 49.6235 5.33252 52.5456C5.33252 53.1642 5.4605 53.7828 5.65247 54.3373Z" fill="#EF5098"/>
<path d="M5.07648 55.9375C2.09032 56.9187 0 59.7769 0 62.9337C0 66.0052 1.89835 68.7354 4.75654 69.8445L14.1416 61.3553L12.4353 57.6865L5.07648 55.9375Z" fill="#17A8E0"/>
<path d="M27.3877 79.6559C28.3049 80.3598 29.4354 80.7437 30.5658 80.7437C33.4667 80.7437 35.8556 78.3761 35.8556 75.4539C35.8556 74.814 35.749 74.1955 35.5357 73.6196L28.8595 72.0625L27.3877 79.6559Z" fill="#93C83E"/>
<path d="M28.7525 70.3139L36.1113 72.0203C39.1188 71.0391 41.1878 68.1809 41.1878 65.0028C41.1878 61.9526 39.2894 59.2011 36.4312 58.1133L26.8115 66.5599L28.7525 70.3139Z" fill="#0779A1"/>
<path d="M60.6831 72.9799L61.579 72.8946L61.643 74.7076C59.2967 75.0275 57.313 75.1982 55.6493 75.1982C53.4523 75.1982 51.8739 74.5583 50.9568 73.2785C50.0396 71.9987 49.5703 69.9937 49.5703 67.3062C49.5703 61.9097 51.7246 59.2222 56.0119 59.2222C58.0809 59.2222 59.638 59.7981 60.6618 60.9499C61.6856 62.1017 62.1975 63.9361 62.1975 66.4103L62.0696 68.1593H51.9166C51.9166 69.8657 52.2152 71.1242 52.8338 71.9347C53.4523 72.7452 54.5188 73.1505 56.0332 73.1505C57.5476 73.1718 59.1047 73.1078 60.6831 72.9799ZM59.8513 66.325C59.8513 64.448 59.5526 63.1042 58.9554 62.315C58.3582 61.5471 57.377 61.1418 56.0119 61.1418C54.6468 61.1418 53.623 61.5471 52.9404 62.3576C52.2579 63.1682 51.8953 64.4906 51.8739 66.3037H59.8513V66.325ZM65.3757 74.8995V52.8232H67.6793V74.8995H65.3757ZM82.2049 64.1707V71.7427C82.2049 72.5106 84.1032 72.6599 84.1032 72.6599L83.9966 74.7076C82.3755 74.7076 81.0317 74.8356 80.2212 74.0677C78.3655 74.8782 76.5525 75.2195 74.6968 75.2195C73.289 75.2195 72.2012 74.8142 71.476 74.0037C70.7508 73.2145 70.3668 72.0627 70.3668 70.5483C70.3668 69.0552 70.7508 67.946 71.4973 67.2422C72.2439 66.5383 73.4383 66.0904 75.0594 65.941L79.8799 65.4931V64.1707C79.8799 63.1255 79.6453 62.379 79.1974 61.9311C78.7494 61.4831 78.1309 61.2485 77.3417 61.2485H71.284V59.2008H77.1924C78.9201 59.2008 80.1999 59.6061 80.9891 60.4166C81.8209 61.2058 82.2049 62.4643 82.2049 64.1707ZM72.7344 70.4416C72.7344 72.3186 73.5023 73.2785 75.0807 73.2785C76.4671 73.2785 77.8536 73.0439 79.1974 72.5746L79.9012 72.34V67.2635L75.358 67.6901C74.4408 67.7754 73.7796 68.0314 73.353 68.4793C72.9264 68.9272 72.7344 69.5884 72.7344 70.4416ZM91.206 61.2698C88.9877 61.2698 87.8572 62.0377 87.8572 63.6161C87.8572 64.3413 88.1132 64.8319 88.6251 65.1518C89.137 65.4505 90.3102 65.7491 92.1445 66.069C93.9789 66.389 95.2587 66.8156 96.0052 67.4128C96.7517 67.9887 97.1357 69.0552 97.1357 70.6336C97.1357 72.212 96.6238 73.3638 95.5999 74.1103C94.5761 74.8569 93.1044 75.2195 91.142 75.2195C89.8836 75.2195 85.6389 74.7502 85.6389 74.7502L85.7669 72.7452C88.1985 72.9799 89.9689 73.1505 91.1634 73.1505C92.3578 73.1505 93.2537 72.9585 93.8722 72.5746C94.4908 72.1907 94.8107 71.5508 94.8107 70.6763C94.8107 69.8017 94.5548 69.1832 94.0215 68.8632C93.4883 68.5433 92.3152 68.2447 90.5021 67.9674C88.6891 67.6901 87.4093 67.2635 86.6628 66.7089C85.9162 66.1543 85.5323 65.1305 85.5323 63.6374C85.5323 62.1444 86.0655 61.0352 87.1107 60.31C88.1772 59.5848 89.4783 59.2435 91.0567 59.2435C92.2938 59.2435 96.6451 59.5634 96.6451 59.5634V61.5898C94.3841 61.4405 92.5071 61.2698 91.206 61.2698ZM108.27 61.5258H103.385V68.8846C103.385 70.6336 103.513 71.8067 103.769 72.3613C104.025 72.9159 104.644 73.1932 105.604 73.1932L108.334 73.0012L108.483 74.8995C107.097 75.1342 106.073 75.2408 105.348 75.2408C103.748 75.2408 102.66 74.8356 102.02 74.0677C101.402 73.2998 101.103 71.8067 101.103 69.6098V61.5258H98.9061V59.5208H101.103V54.8069H103.385V59.4995H108.27V61.5258ZM111.469 56.044V53.3778H113.773V56.0654L111.469 56.044ZM111.469 74.8995V59.5208H113.773V74.8995H111.469ZM123.777 59.2008C124.459 59.2008 125.611 59.3288 127.232 59.5848L127.957 59.6701L127.872 61.5471C126.229 61.3552 125.014 61.2698 124.246 61.2698C122.518 61.2698 121.324 61.6751 120.705 62.507C120.087 63.3388 119.767 64.8746 119.767 67.1355C119.767 69.3751 120.044 70.9535 120.641 71.8281C121.217 72.7239 122.433 73.1505 124.288 73.1505L127.915 72.8732L128 74.7716C126.102 75.0489 124.651 75.1982 123.713 75.1982C121.324 75.1982 119.66 74.5796 118.743 73.3425C117.847 72.1267 117.356 70.0364 117.356 67.1142C117.356 64.192 117.847 62.1444 118.828 60.9712C119.831 59.8194 121.473 59.2008 123.777 59.2008Z" fill="black"/>
</svg>
