<svg width="128" height="128" viewBox="0 0 128 128" fill="none" xmlns="http://www.w3.org/2000/svg">
<path d="M28.9999 69.5898H35.6499C35.7427 69.5898 35.8317 69.5529 35.8974 69.4873C35.963 69.4217 35.9999 69.3326 35.9999 69.2398C35.9999 69.147 35.963 69.058 35.8974 68.9923C35.8317 68.9267 35.7427 68.8898 35.6499 68.8898H29.3899V64.7998H34.9399C35.0327 64.7998 35.1217 64.7629 35.1874 64.6973C35.253 64.6317 35.2899 64.5426 35.2899 64.4498C35.2899 64.357 35.253 64.268 35.1874 64.2023C35.1217 64.1367 35.0327 64.0998 34.9399 64.0998H29.3899V60.0998H35.5899C35.6827 60.0998 35.7717 60.0629 35.8374 59.9973C35.903 59.9317 35.9399 59.8426 35.9399 59.7498C35.9399 59.657 35.903 59.568 35.8374 59.5023C35.7717 59.4367 35.6827 59.3998 35.5899 59.3998H28.9999C28.8999 59.4023 28.8047 59.4432 28.734 59.5139C28.6633 59.5846 28.6224 59.6798 28.6199 59.7798V69.2098C28.6224 69.3098 28.6633 69.405 28.734 69.4757C28.8047 69.5464 28.8999 69.5873 28.9999 69.5898ZM40.6199 69.2098C40.6224 69.3098 40.6633 69.405 40.734 69.4757C40.8047 69.5464 40.8999 69.5873 40.9999 69.5898H47.0699C47.1627 69.5898 47.2517 69.5529 47.3174 69.4873C47.383 69.4217 47.4199 69.3326 47.4199 69.2398C47.4199 69.147 47.383 69.058 47.3174 68.9923C47.2517 68.9267 47.1627 68.8898 47.0699 68.8898H41.3899V59.7198C41.3899 59.619 41.3499 59.5224 41.2786 59.4511C41.2073 59.3798 41.1107 59.3398 41.0099 59.3398C40.9091 59.3398 40.8125 59.3798 40.7412 59.4511C40.6699 59.5224 40.6299 59.619 40.6299 59.7198L40.6199 69.2098ZM52.2599 69.5898H58.9099C59.0027 69.5898 59.0917 69.5529 59.1574 69.4873C59.223 69.4217 59.2599 69.3326 59.2599 69.2398C59.2599 69.147 59.223 69.058 59.1574 68.9923C59.0917 68.9267 59.0027 68.8898 58.9099 68.8898H52.6399V64.7998H58.1899C58.2827 64.7998 58.3717 64.7629 58.4374 64.6973C58.503 64.6317 58.5399 64.5426 58.5399 64.4498C58.5399 64.357 58.503 64.268 58.4374 64.2023C58.3717 64.1367 58.2827 64.0998 58.1899 64.0998H52.6399V60.0998H58.8399C58.9327 60.0998 59.0217 60.0629 59.0874 59.9973C59.153 59.9317 59.1899 59.8426 59.1899 59.7498C59.1899 59.657 59.153 59.568 59.0874 59.5023C59.0217 59.4367 58.9327 59.3998 58.8399 59.3998H52.2599C52.1599 59.4023 52.0647 59.4432 51.994 59.5139C51.9233 59.5846 51.8824 59.6798 51.8799 59.7798V69.2098C51.8824 69.3098 51.9233 69.405 51.994 69.4757C52.0647 69.5464 52.1599 69.5873 52.2599 69.5898ZM68.4999 69.7598C69.2176 69.7711 69.93 69.6359 70.5937 69.3625C71.2574 69.0891 71.8584 68.6833 72.3599 68.1698C72.3962 68.1366 72.4255 68.0965 72.4461 68.0519C72.4667 68.0072 72.4782 67.9589 72.4799 67.9098C72.4751 67.8159 72.4356 67.7271 72.3691 67.6606C72.3026 67.5941 72.2138 67.5546 72.1199 67.5498C72.0708 67.5515 72.0225 67.563 71.9778 67.5836C71.9332 67.6042 71.8931 67.6335 71.8599 67.6698C71.4341 68.1216 70.9192 68.4802 70.3477 68.7228C69.7763 68.9655 69.1607 69.0871 68.5399 69.0798C67.9529 69.0697 67.3739 68.942 66.8372 68.7042C66.3005 68.4665 65.8169 68.1235 65.415 67.6955C65.0132 67.2676 64.7012 66.7634 64.4977 66.2127C64.2941 65.6621 64.2031 65.0762 64.2299 64.4898C64.203 63.9065 64.2936 63.3237 64.4963 62.7761C64.699 62.2284 65.0096 61.7271 65.4097 61.3018C65.8098 60.8765 66.2913 60.5359 66.8256 60.3002C67.3598 60.0645 67.936 59.9386 68.5199 59.9298C69.122 59.9238 69.7193 60.0374 70.2772 60.264C70.8351 60.4906 71.3425 60.8257 71.7699 61.2498C71.8413 61.314 71.9339 61.3496 72.0299 61.3498C72.1309 61.3474 72.2272 61.3069 72.2995 61.2364C72.3719 61.1659 72.4149 61.0707 72.4199 60.9698C72.417 60.9107 72.4023 60.8528 72.3765 60.7995C72.3507 60.7463 72.3145 60.6987 72.2699 60.6598C71.257 59.7143 69.9152 59.2012 68.5299 59.2298C67.8472 59.2335 67.1722 59.3737 66.5445 59.6421C65.9169 59.9105 65.3492 60.3018 64.875 60.7928C64.4007 61.2838 64.0294 61.8647 63.783 62.5013C63.5365 63.138 63.4199 63.8174 63.4399 64.4998C63.4157 65.1801 63.529 65.8583 63.773 66.4938C64.0171 67.1293 64.3869 67.7091 64.8602 68.1983C65.3336 68.6875 65.9008 69.0762 66.5279 69.3411C67.155 69.606 67.8291 69.7416 68.5099 69.7398L68.4999 69.7598ZM79.6999 69.2698C79.6999 69.3706 79.7399 69.4672 79.8112 69.5385C79.8825 69.6098 79.9791 69.6498 80.0799 69.6498C80.1807 69.6498 80.2773 69.6098 80.3486 69.5385C80.4199 69.4672 80.4599 69.3706 80.4599 69.2698V60.0998H83.7199C83.8127 60.0998 83.9017 60.0629 83.9674 59.9973C84.033 59.9317 84.0699 59.8426 84.0699 59.7498C84.0699 59.657 84.033 59.568 83.9674 59.5023C83.9017 59.4367 83.8127 59.3998 83.7199 59.3998H76.4399C76.3471 59.3998 76.258 59.4367 76.1924 59.5023C76.1268 59.568 76.0899 59.657 76.0899 59.7498C76.0899 59.8426 76.1268 59.9317 76.1924 59.9973C76.258 60.0629 76.3471 60.0998 76.4399 60.0998H79.6999V69.2698ZM88.5499 69.2698C88.5499 69.3706 88.5899 69.4672 88.6612 69.5385C88.7325 69.6098 88.8291 69.6498 88.9299 69.6498C89.0307 69.6498 89.1273 69.6098 89.1986 69.5385C89.2699 69.4672 89.3099 69.3706 89.3099 69.2698V65.3698H92.6399L95.7699 69.4498C95.8049 69.5071 95.8531 69.5551 95.9106 69.5899C95.968 69.6247 96.0329 69.6453 96.0999 69.6498C96.2018 69.6449 96.2982 69.6023 96.3703 69.5302C96.4424 69.4581 96.485 69.3617 96.4899 69.2598C96.4816 69.1618 96.4391 69.0697 96.3699 68.9998L93.4699 65.2398C95.1899 65.0098 96.4699 64.0298 96.4699 62.3298C96.4715 61.6231 96.1949 60.9442 95.6999 60.4398C94.912 59.7419 93.8809 59.3826 92.8299 59.4398H88.9299C88.8299 59.4423 88.7347 59.4832 88.664 59.5539C88.5933 59.6246 88.5524 59.7198 88.5499 59.8198V69.2698ZM89.3099 64.6798V60.0998H92.7899C94.6399 60.0998 95.7199 60.9598 95.7199 62.3298C95.7199 63.7998 94.4499 64.6598 92.7199 64.6598L89.3099 64.6798ZM106 69.7598C106.686 69.7614 107.366 69.6252 107.999 69.3593C108.632 69.0934 109.205 68.7031 109.684 68.2117C110.164 67.7203 110.539 67.1376 110.789 66.4983C111.039 65.859 111.159 65.176 111.14 64.4898C111.17 63.7977 111.061 63.1066 110.817 62.4582C110.573 61.8098 110.2 61.2174 109.722 60.7169C109.243 60.2163 108.667 59.818 108.03 59.5458C107.393 59.2737 106.708 59.1334 106.015 59.1334C105.322 59.1334 104.637 59.2737 104 59.5458C103.362 59.818 102.787 60.2163 102.308 60.7169C101.829 61.2174 101.457 61.8098 101.213 62.4582C100.969 63.1066 100.859 63.7977 100.89 64.4898C100.864 65.1753 100.978 65.8588 101.223 66.4993C101.469 67.1397 101.842 67.7238 102.319 68.2162C102.797 68.7087 103.369 69.0993 104.002 69.3646C104.634 69.6299 105.314 69.7643 106 69.7598ZM106 69.0798C105.41 69.0723 104.828 68.9466 104.288 68.7103C103.748 68.4739 103.261 68.1316 102.855 67.7037C102.45 67.2758 102.134 66.7709 101.927 66.2188C101.72 65.6668 101.626 65.0789 101.65 64.4898C101.62 63.8998 101.71 63.31 101.916 62.756C102.121 62.202 102.436 61.6955 102.843 61.2672C103.25 60.8389 103.739 60.4977 104.282 60.2644C104.825 60.031 105.409 59.9104 106 59.9098C106.589 59.9173 107.171 60.043 107.712 60.2794C108.252 60.5157 108.739 60.858 109.144 61.2859C109.55 61.7138 109.866 62.2187 110.073 62.7708C110.28 63.3228 110.374 63.9107 110.35 64.4998C110.38 65.0898 110.289 65.6796 110.084 66.2336C109.879 66.7876 109.564 67.2941 109.157 67.7224C108.75 68.1507 108.26 68.4919 107.718 68.7252C107.175 68.9586 106.591 69.0792 106 69.0798ZM115.93 69.2798C115.93 69.3766 115.968 69.4694 116.037 69.5379C116.105 69.6063 116.198 69.6448 116.295 69.6448C116.392 69.6448 116.485 69.6063 116.553 69.5379C116.621 69.4694 116.66 69.3766 116.66 69.2798V60.4998L123.66 69.3798C123.7 69.4475 123.755 69.5052 123.821 69.5486C123.887 69.5919 123.962 69.6196 124.04 69.6298H124.1C124.141 69.6298 124.183 69.6215 124.221 69.6053C124.259 69.5891 124.294 69.5654 124.323 69.5355C124.352 69.5056 124.374 69.4703 124.389 69.4315C124.404 69.3927 124.411 69.3513 124.41 69.3098V59.6998C124.41 59.603 124.371 59.5102 124.303 59.4417C124.235 59.3733 124.142 59.3348 124.045 59.3348C123.948 59.3348 123.855 59.3733 123.787 59.4417C123.718 59.5102 123.68 59.603 123.68 59.6998V68.2898L116.81 59.5698C116.769 59.505 116.713 59.451 116.647 59.4127C116.581 59.3744 116.506 59.3528 116.43 59.3498H116.31C116.21 59.3523 116.115 59.3932 116.044 59.4639C115.973 59.5346 115.932 59.6298 115.93 59.7298V69.2798ZM9.57989 58.7498C7.16989 58.3098 5.26989 58.7498 4.50989 60.0798C4.24497 60.6715 4.1415 61.3228 4.21 61.9674C4.27851 62.612 4.51654 63.227 4.89989 63.7498C4.93629 63.7999 4.98997 63.8346 5.05053 63.8474C5.11109 63.8602 5.17423 63.85 5.22773 63.8189C5.28124 63.7878 5.3213 63.7379 5.34017 63.679C5.35904 63.62 5.35538 63.5562 5.32989 63.4998C4.99207 63.0503 4.77824 62.52 4.7098 61.9619C4.64135 61.4039 4.7207 60.8376 4.93989 60.3198C5.56989 59.2298 7.26989 58.8198 9.48989 59.2298C9.55223 59.2359 9.61457 59.2183 9.66457 59.1806C9.71457 59.1428 9.7486 59.0877 9.75991 59.0261C9.77123 58.9645 9.75901 58.9009 9.72567 58.8479C9.69233 58.7949 9.64031 58.7563 9.57989 58.7398V58.7498ZM6.14989 65.4398C7.22189 66.588 8.46284 67.566 9.82989 68.3398C13.3199 70.3398 17.0399 70.8898 18.8299 69.6498C18.876 69.6096 18.9057 69.5538 18.9135 69.4931C18.9212 69.4324 18.9064 69.371 18.8719 69.3205C18.8374 69.27 18.7856 69.2339 18.7262 69.219C18.6669 69.2041 18.6041 69.2115 18.5499 69.2398C16.9099 70.3598 13.3799 69.8498 10.0399 67.9198C8.71766 67.169 7.51728 66.2215 6.47989 65.1098C6.43327 65.077 6.37685 65.0612 6.31998 65.0649C6.26311 65.0685 6.2092 65.0915 6.16719 65.13C6.12518 65.1685 6.09759 65.2203 6.08899 65.2766C6.08038 65.3329 6.09129 65.3905 6.11989 65.4398H6.14989Z" fill="#47848F"/>
<path d="M18.2902 65.1402C19.8702 63.2802 20.4202 61.4102 19.6602 60.1402C19.2887 59.6248 18.7883 59.2159 18.2092 58.9544C17.6301 58.6929 16.9925 58.5881 16.3602 58.6502C16.3037 58.6617 16.2529 58.6924 16.2164 58.737C16.1799 58.7817 16.16 58.8376 16.16 58.8952C16.16 58.9529 16.1799 59.0088 16.2164 59.0534C16.2529 59.0981 16.3037 59.1288 16.3602 59.1402C16.9075 59.0806 17.4608 59.1645 17.9658 59.3837C18.4708 59.6028 18.91 59.9497 19.2402 60.3902C19.8702 61.4802 19.3802 63.1502 17.9202 64.8702C17.8946 64.8944 17.8744 64.9238 17.861 64.9563C17.8475 64.9888 17.8411 65.0239 17.8421 65.0591C17.8431 65.0943 17.8515 65.1289 17.8669 65.1606C17.8822 65.1923 17.904 65.2204 17.931 65.2431C17.9579 65.2658 17.9893 65.2825 18.0232 65.2922C18.057 65.3019 18.0926 65.3043 18.1274 65.2993C18.1623 65.2944 18.1957 65.2821 18.2255 65.2633C18.2552 65.2444 18.2807 65.2196 18.3002 65.1902L18.2902 65.1402ZM14.2902 58.8302C12.7427 59.1803 11.2586 59.7672 9.8902 60.5702C6.2902 62.6502 3.8902 65.7202 4.2602 67.9402C4.27705 67.998 4.31418 68.0478 4.36476 68.0804C4.41534 68.113 4.47599 68.1262 4.53556 68.1177C4.59513 68.1092 4.64964 68.0795 4.68907 68.034C4.7285 67.9886 4.7502 67.9304 4.7502 67.8702C4.4102 65.9002 6.6402 63.0002 10.0902 61.0002C11.4116 60.2218 12.8451 59.6518 14.3402 59.3102C14.3772 59.3099 14.4136 59.3014 14.4469 59.2853C14.4802 59.2692 14.5096 59.246 14.5328 59.2172C14.556 59.1884 14.5725 59.1548 14.5812 59.1188C14.5899 59.0829 14.5905 59.0455 14.5829 59.0093C14.5754 58.973 14.5599 58.939 14.5376 58.9095C14.5153 58.88 14.4867 58.8558 14.4539 58.8387C14.4211 58.8215 14.385 58.8119 14.348 58.8104C14.3111 58.809 14.2742 58.8157 14.2402 58.8302H14.2902Z" fill="#47848F"/>
<path d="M8.40001 69.4898C9.22001 71.7898 10.57 73.2098 12.09 73.2098C12.714 73.1457 13.3105 72.9202 13.8207 72.5555C14.331 72.1908 14.7375 71.6994 15 71.1298C15.0254 71.1024 15.0444 71.0698 15.0555 71.0342C15.0667 70.9986 15.0697 70.961 15.0644 70.924C15.0591 70.8871 15.0456 70.8518 15.025 70.8208C15.0043 70.7898 14.9769 70.7637 14.9448 70.7447C14.9128 70.7256 14.8769 70.7139 14.8397 70.7105C14.8026 70.7071 14.7651 70.7121 14.7301 70.725C14.6952 70.738 14.6635 70.7586 14.6375 70.7854C14.6116 70.8122 14.5919 70.8444 14.58 70.8798C14.3576 71.3762 14.0105 71.8066 13.5724 72.1291C13.1343 72.4515 12.6201 72.655 12.08 72.7198C10.82 72.7198 9.62001 71.4598 8.86001 69.3298C8.82977 69.2805 8.78336 69.2432 8.7287 69.2242C8.67404 69.2053 8.6145 69.2059 8.56024 69.226C8.50599 69.246 8.46036 69.2843 8.43114 69.3342C8.40192 69.3841 8.39092 69.4426 8.40001 69.4998V69.4898ZM15.92 68.9998C16.3671 67.518 16.5896 65.9775 16.58 64.4298C16.58 60.3398 15.15 56.8198 13.11 55.9098C13.053 55.8955 12.9927 55.9019 12.9399 55.9277C12.8871 55.9535 12.845 55.9971 12.8211 56.0508C12.7973 56.1045 12.7931 56.165 12.8093 56.2215C12.8256 56.278 12.8612 56.3269 12.91 56.3598C14.73 57.1698 16.09 60.5098 16.09 64.4198C16.1027 65.9196 15.8903 67.4129 15.46 68.8498C15.4514 68.9084 15.4639 68.9682 15.4953 69.0184C15.5267 69.0687 15.5749 69.1062 15.6314 69.1242C15.6878 69.1422 15.7488 69.1396 15.8035 69.1168C15.8582 69.094 15.9031 69.0525 15.93 68.9998H15.92ZM20.57 68.7998C20.5661 68.5673 20.4935 68.3411 20.3615 68.1497C20.2295 67.9583 20.0438 67.8102 19.8279 67.7239C19.612 67.6377 19.3754 67.6172 19.1478 67.6649C18.9202 67.7127 18.7118 67.8266 18.5488 67.9924C18.3858 68.1582 18.2754 68.3685 18.2314 68.5968C18.1875 68.8251 18.212 69.0614 18.3019 69.2758C18.3917 69.4903 18.543 69.6734 18.7366 69.8022C18.9302 69.931 19.1575 69.9997 19.39 69.9998C19.703 69.9998 20.0031 69.8754 20.2244 69.6541C20.4457 69.4329 20.57 69.1327 20.57 68.8198V68.7998ZM20.08 68.7998C20.08 68.9362 20.0395 69.0696 19.9637 69.1831C19.8879 69.2966 19.7801 69.385 19.6541 69.4372C19.528 69.4895 19.3892 69.5031 19.2554 69.4765C19.1216 69.4499 18.9986 69.3842 18.9021 69.2877C18.8056 69.1912 18.7399 69.0682 18.7133 68.9344C18.6866 68.8005 18.7003 68.6618 18.7525 68.5357C18.8048 68.4096 18.8932 68.3019 19.0067 68.226C19.1201 68.1502 19.2535 68.1098 19.39 68.1098C19.4806 68.1098 19.5703 68.1276 19.6541 68.1623C19.7378 68.197 19.8138 68.2478 19.8779 68.3119C19.942 68.3759 19.9928 68.452 20.0275 68.5357C20.0622 68.6194 20.08 68.7091 20.08 68.7998ZM4.77001 69.9998C5.00254 69.9997 5.22987 69.931 5.42346 69.8022C5.61705 69.6734 5.76828 69.4903 5.85815 69.2758C5.94802 69.0614 5.97252 68.8251 5.92859 68.5968C5.88466 68.3685 5.77424 68.1582 5.61121 67.9924C5.44818 67.8266 5.2398 67.7127 5.01224 67.6649C4.78467 67.6172 4.54807 67.6377 4.33213 67.7239C4.1162 67.8102 3.93056 67.9583 3.79853 68.1497C3.6665 68.3411 3.59395 68.5673 3.59001 68.7998C3.58736 68.9564 3.61592 69.112 3.67403 69.2575C3.73214 69.403 3.81864 69.5354 3.92848 69.6471C4.03831 69.7588 4.1693 69.8475 4.31378 69.9081C4.45826 69.9686 4.61336 69.9998 4.77001 69.9998ZM4.77001 69.5098C4.63354 69.5098 4.50014 69.4693 4.38667 69.3935C4.2732 69.3177 4.18476 69.2099 4.13254 69.0838C4.08031 68.9577 4.06665 68.819 4.09327 68.6851C4.1199 68.5513 4.18561 68.4284 4.28211 68.3319C4.37861 68.2354 4.50155 68.1696 4.6354 68.143C4.76925 68.1164 4.90798 68.1301 5.03406 68.1823C5.16015 68.2345 5.26791 68.3229 5.34373 68.4364C5.41955 68.5499 5.46001 68.6833 5.46001 68.8198C5.46001 69.0028 5.38732 69.1783 5.25792 69.3077C5.12852 69.4371 4.95301 69.5098 4.77001 69.5098Z" fill="#47848F"/>
<path d="M12.0898 57.1598C12.3241 57.1598 12.553 57.09 12.7474 56.9595C12.9419 56.8289 13.0931 56.6434 13.1818 56.4266C13.2705 56.2098 13.2927 55.9716 13.2455 55.7421C13.1983 55.5127 13.0839 55.3025 12.9169 55.1383C12.7499 54.9741 12.5377 54.8633 12.3075 54.8201C12.0773 54.7768 11.8395 54.8031 11.6242 54.8955C11.409 54.9879 11.2261 55.1422 11.0989 55.3389C10.9717 55.5355 10.9059 55.7656 10.9098 55.9998C10.9098 56.3128 11.0342 56.6129 11.2555 56.8342C11.4767 57.0555 11.7769 57.1798 12.0898 57.1798V57.1598ZM12.0898 56.6698C11.9534 56.6698 11.82 56.6293 11.7065 56.5535C11.593 56.4777 11.5046 56.3699 11.4524 56.2439C11.4001 56.1178 11.3865 55.979 11.4131 55.8452C11.4397 55.7113 11.5054 55.5884 11.6019 55.4919C11.6984 55.3954 11.8214 55.3297 11.9552 55.3031C12.0891 55.2764 12.2278 55.2901 12.3539 55.3423C12.48 55.3945 12.5877 55.483 12.6636 55.5965C12.7394 55.7099 12.7798 55.8433 12.7798 55.9798C12.7798 56.1628 12.7071 56.3383 12.5777 56.4677C12.4483 56.5971 12.2728 56.6698 12.0898 56.6698ZM12.2698 65.2998C12.1051 65.3361 11.9333 65.3225 11.7763 65.2609C11.6193 65.1992 11.4842 65.0923 11.3882 64.9536C11.2921 64.8149 11.2395 64.6508 11.2371 64.4821C11.2346 64.3135 11.2824 64.1479 11.3743 64.0065C11.4662 63.865 11.5982 63.7542 11.7533 63.6879C11.9084 63.6217 12.0798 63.6032 12.2455 63.6346C12.4112 63.6661 12.5638 63.7461 12.6839 63.8646C12.804 63.983 12.8861 64.1345 12.9198 64.2998C12.9644 64.5184 12.9213 64.7458 12.7997 64.9329C12.6781 65.12 12.4878 65.2518 12.2698 65.2998Z" fill="#47848F"/>
</svg>
