<svg width="128" height="128" viewBox="0 0 128 128" fill="none" xmlns="http://www.w3.org/2000/svg">
<path d="M49.0699 32.66C34.6999 30.04 23.3499 32.78 18.8199 40.66C15.4399 46.51 16.4099 54.27 21.1599 62.56C21.2564 62.7281 21.3851 62.8756 21.5386 62.9939C21.6921 63.1123 21.8674 63.1992 22.0546 63.2498C22.2417 63.3005 22.4369 63.3137 22.6291 63.2889C22.8214 63.264 23.0068 63.2015 23.1749 63.105C23.343 63.0085 23.4905 62.8798 23.6088 62.7263C23.7272 62.5728 23.8141 62.3975 23.8647 62.2104C23.9154 62.0233 23.9286 61.828 23.9038 61.6358C23.8789 61.4436 23.8164 61.2581 23.7199 61.09C19.4399 53.62 18.5999 46.92 21.3699 42.09C25.1299 35.58 35.2599 33.09 48.5399 35.55C48.9245 35.6203 49.3212 35.5349 49.6428 35.3127C49.9645 35.0905 50.1846 34.7496 50.2549 34.365C50.3252 33.9805 50.2398 33.5837 50.0176 33.2621C49.7954 32.9405 49.4545 32.7203 49.0699 32.65V32.66ZM28.6299 72.61C35.0373 79.4768 42.4562 85.3243 50.6299 89.95C71.4699 101.95 93.6299 105.2 104.63 97.74C104.952 97.5199 105.174 97.1808 105.246 96.7973C105.318 96.4137 105.235 96.0173 105.015 95.695C104.795 95.3728 104.456 95.1512 104.072 95.079C103.689 95.0068 103.292 95.0899 102.97 95.31C93.1099 102 71.9999 98.92 52.0699 87.39C44.1718 82.9136 37.0026 77.2586 30.8099 70.62C30.5447 70.3309 30.1755 70.1591 29.7836 70.1422C29.3916 70.1253 29.009 70.2648 28.7199 70.53C28.4308 70.7952 28.2589 71.1644 28.2421 71.5564C28.2252 71.9483 28.3647 72.3309 28.6299 72.62V72.61Z" fill="#47848F"/>
<path d="M101.06 70.8103C110.47 59.7003 113.75 48.5203 109.23 40.7003C105.91 34.9403 98.8801 31.9003 89.5401 31.7803C89.1489 31.7803 88.7737 31.9357 88.4971 32.2123C88.2205 32.4889 88.0651 32.8641 88.0651 33.2553C88.0651 33.6465 88.2205 34.0216 88.4971 34.2983C88.7737 34.5749 89.1489 34.7303 89.5401 34.7303C97.9401 34.8403 103.99 37.4603 106.72 42.1803C110.47 48.6803 107.54 58.6503 98.8501 68.9203C98.7253 69.068 98.6309 69.2389 98.5722 69.4231C98.5134 69.6073 98.4916 69.8013 98.5078 69.994C98.5241 70.1867 98.5781 70.3743 98.6669 70.5461C98.7556 70.7179 98.8773 70.8705 99.0251 70.9953C99.1728 71.12 99.3437 71.2145 99.5279 71.2732C99.7121 71.3319 99.9061 71.3538 100.099 71.3375C100.291 71.3213 100.479 71.2672 100.651 71.1785C100.823 71.0897 100.975 70.968 101.1 70.8203L101.06 70.8103ZM76.8901 33.1503C67.6571 35.2456 58.8028 38.7536 50.6401 43.5503C29.1301 56.0003 15.0901 74.2903 17.0001 87.5703C17.0283 87.7673 17.0951 87.9568 17.1965 88.1279C17.298 88.2991 17.4322 88.4486 17.5914 88.568C17.7507 88.6873 17.9319 88.7741 18.1247 88.8234C18.3175 88.8727 18.5181 88.8835 18.7151 88.8553C18.912 88.827 19.1015 88.7603 19.2727 88.6588C19.4439 88.5573 19.5934 88.4232 19.7128 88.2639C19.8321 88.1047 19.9189 87.9235 19.9682 87.7307C20.0175 87.5379 20.0283 87.3373 20.0001 87.1403C18.2301 75.3503 31.5301 58.0003 52.1101 46.1103C60.006 41.4533 68.5736 38.0431 77.5101 36.0003C77.6992 35.9596 77.8784 35.882 78.0375 35.772C78.1967 35.6621 78.3326 35.5218 78.4375 35.3593C78.5424 35.1968 78.6143 35.0152 78.6491 34.8249C78.6838 34.6346 78.6808 34.4394 78.6401 34.2503C78.5994 34.0612 78.5218 33.8819 78.4118 33.7228C78.3018 33.5637 78.1616 33.4278 77.9991 33.3228C77.8366 33.2179 77.655 33.146 77.4647 33.1113C77.2744 33.0765 77.0792 33.0796 76.8901 33.1203V33.1503Z" fill="#47848F"/>
<path d="M42 96.7798C47 110.51 55 119 64.05 119C70.65 119 76.75 114.5 81.51 106.58C81.7196 106.247 81.7883 105.845 81.7011 105.461C81.6139 105.078 81.3779 104.744 81.045 104.535C80.7122 104.325 80.3097 104.257 79.9262 104.344C79.5427 104.431 79.2096 104.667 79 105C74.72 112.12 69.47 116 64.06 116C56.54 116 49.37 108.46 44.82 95.7598C44.6874 95.3925 44.4143 95.0929 44.0608 94.9269C43.7073 94.761 43.3024 94.7422 42.935 94.8748C42.5677 95.0074 42.2681 95.2805 42.1021 95.634C41.9362 95.9875 41.9174 96.3925 42.05 96.7598L42 96.7798ZM87 94.0898C89.6602 85.2363 90.9782 76.0341 90.91 66.7898C90.91 42.3798 82.37 21.3498 70.2 15.9398C70.0228 15.861 69.8317 15.8179 69.6377 15.813C69.4438 15.808 69.2508 15.8413 69.0697 15.911C68.8886 15.9806 68.7231 16.0852 68.5824 16.2189C68.4418 16.3525 68.3288 16.5125 68.25 16.6898C68.0909 17.0479 68.0805 17.4545 68.2212 17.8202C68.3618 18.1859 68.642 18.4807 69 18.6398C79.85 23.4598 88 43.4198 88 66.7898C88.0665 75.7359 86.7924 84.6414 84.22 93.2098C84.1623 93.3943 84.1414 93.5884 84.1586 93.781C84.1758 93.9736 84.2308 94.1609 84.3204 94.3322C84.41 94.5035 84.5325 94.6555 84.6809 94.7795C84.8292 94.9035 85.0005 94.997 85.185 95.0548C85.3695 95.1126 85.5636 95.1335 85.7562 95.1163C85.9488 95.099 86.1361 95.0441 86.3074 94.9544C86.4787 94.8648 86.6307 94.7424 86.7547 94.594C86.8787 94.4457 86.9723 94.2743 87.03 94.0898H87ZM114.71 92.6498C114.71 91.2555 114.297 89.8924 113.522 88.7331C112.747 87.5737 111.646 86.6701 110.358 86.1365C109.07 85.6029 107.652 85.4633 106.285 85.7353C104.917 86.0073 103.661 86.6788 102.675 87.6647C101.689 88.6507 101.018 89.9069 100.745 91.2744C100.473 92.642 100.613 94.0595 101.147 95.3477C101.68 96.636 102.584 97.737 103.743 98.5117C104.903 99.2864 106.266 99.6998 107.66 99.6998C108.586 99.6998 109.503 99.5175 110.358 99.1632C111.213 98.8089 111.99 98.2896 112.645 97.6349C113.3 96.9803 113.819 96.2031 114.173 95.3477C114.528 94.4924 114.71 93.5757 114.71 92.6498ZM111.76 92.6498C111.76 93.4607 111.52 94.2534 111.069 94.9277C110.619 95.6019 109.978 96.1274 109.229 96.4377C108.48 96.7481 107.655 96.8293 106.86 96.6711C106.065 96.5128 105.334 96.1224 104.761 95.549C104.188 94.9756 103.797 94.245 103.639 93.4497C103.481 92.6544 103.562 91.83 103.872 91.0808C104.182 90.3317 104.708 89.6913 105.382 89.2408C106.056 88.7903 106.849 88.5498 107.66 88.5498C108.747 88.5498 109.79 88.9818 110.559 89.7507C111.328 90.5196 111.76 91.5624 111.76 92.6498ZM20.34 99.6998C21.7344 99.6998 23.0974 99.2864 24.2568 98.5117C25.4162 97.737 26.3198 96.636 26.8534 95.3477C27.387 94.0595 27.5266 92.642 27.2546 91.2744C26.9825 89.9069 26.3111 88.6507 25.3251 87.6647C24.3392 86.6788 23.083 86.0073 21.7154 85.7353C20.3479 85.4633 18.9303 85.6029 17.6421 86.1365C16.3539 86.6701 15.2528 87.5737 14.4782 88.7331C13.7035 89.8924 13.29 91.2555 13.29 92.6498C13.29 94.5196 14.0328 96.3128 15.3549 97.6349C16.6771 98.9571 18.4703 99.6998 20.34 99.6998ZM20.34 96.7498C19.5291 96.7498 18.7364 96.5094 18.0622 96.0589C17.388 95.6083 16.8625 94.968 16.5521 94.2188C16.2418 93.4697 16.1606 92.6453 16.3188 91.85C16.477 91.0546 16.8675 90.3241 17.4409 89.7507C18.0143 89.1773 18.7448 88.7868 19.5402 88.6286C20.3355 88.4704 21.1599 88.5516 21.909 88.8619C22.6582 89.1722 23.2986 89.6978 23.7491 90.372C24.1996 91.0462 24.44 91.8389 24.44 92.6498C24.44 93.7372 24.0081 94.7801 23.2392 95.549C22.4703 96.3179 21.4274 96.7498 20.34 96.7498Z" fill="#47848F"/>
<path d="M64.05 23.1303C65.4444 23.1303 66.8074 22.7168 67.9668 21.9421C69.1261 21.1675 70.0298 20.0664 70.5634 18.7782C71.097 17.49 71.2366 16.0725 70.9645 14.7049C70.6925 13.3373 70.0211 12.0811 69.0351 11.0952C68.0491 10.1092 66.793 9.43777 65.4254 9.16574C64.0578 8.89371 62.6403 9.03333 61.3521 9.56693C60.0639 10.1005 58.9628 11.0041 58.1881 12.1635C57.4135 13.3229 57 14.6859 57 16.0803C57 17.9501 57.7428 19.7432 59.0649 21.0654C60.387 22.3875 62.1802 23.1303 64.05 23.1303ZM64.05 20.1803C63.2391 20.1803 62.4464 19.9398 61.7722 19.4893C61.0979 19.0388 60.5724 18.3985 60.2621 17.6493C59.9518 16.9001 59.8706 16.0757 60.0288 15.2804C60.187 14.4851 60.5775 13.7545 61.1509 13.1811C61.7243 12.6077 62.4548 12.2173 63.2501 12.0591C64.0455 11.9009 64.8698 11.9821 65.619 12.2924C66.3682 12.6027 67.0085 13.1282 67.459 13.8024C67.9095 14.4767 68.15 15.2694 68.15 16.0803C68.15 17.1677 67.718 18.2105 66.9491 18.9794C66.1802 19.7483 65.1374 20.1803 64.05 20.1803ZM65.13 71.7703C64.1444 71.9908 63.1154 71.9138 62.1736 71.5488C61.2318 71.1839 60.4196 70.5475 59.8399 69.7204C59.2603 68.8933 58.9392 67.9127 58.9175 66.9029C58.8958 65.8932 59.1744 64.8997 59.718 64.0484C60.2617 63.1972 61.0458 62.5265 61.971 62.1214C62.8963 61.7164 63.921 61.5952 64.9152 61.7732C65.9094 61.9512 66.8283 62.4204 67.5556 63.1213C68.2828 63.8222 68.7855 64.7233 69 65.7103C69.2861 67.0267 69.0397 68.4029 68.3146 69.5383C67.5895 70.6737 66.4447 71.4761 65.13 71.7703Z" fill="#47848F"/>
</svg>
