<svg width="128" height="128" viewBox="0 0 128 128" fill="none" xmlns="http://www.w3.org/2000/svg">
<path d="M18 0H110V128H18V0Z" fill="#1F1F1F"/>
<path d="M55.2999 36.3H55.6999C56.7999 36.3 57.1999 37.2 57.1999 38.6V80.4C57.1999 82.2 56.7999 83.4 55.5999 83.4L50.7999 83.3C49.5999 83.3 49.1999 82.3 49.1999 80.3V45.5L47.0999 46C46.0999 46 45.5999 45.2 45.5999 43.8V40.8C45.5999 39.6 45.9999 38.8 46.9999 38.6L55.2999 36.4V36.3ZM71.2999 72.4L71.3999 75.4L71.9999 76.7L72.5999 77.3L73.3999 77.4H75.5999C76.5999 77.4 77.2999 78.2 77.2999 79.4V81.3C77.2999 82.5 76.6999 83.3 75.4999 83.3H72.2999L69.9999 83.2C69.2999 83 68.5999 82.7 67.7999 82.2C66.9877 81.74 66.3009 81.0875 65.7999 80.3C65.3999 79.5 64.9999 78.4 64.7999 77.1C64.3999 75.7 64.2999 74.1 64.2999 72.3V56.3H62.7999C61.6999 56.3 61.1999 55.3 61.1999 53.9V52.2C61.1999 50.8 61.6999 49.9 62.7999 49.9H64.2999V49.8L64.8999 37.5C64.8999 36 65.3999 35 66.4999 35H69.5999C70.7999 35 71.1999 36 71.1999 37.5V49.8H74.7999C75.8999 49.8 76.3999 50.8 76.3999 52.2V54C76.3999 55.4 75.8999 56.3 74.7999 56.3H71.1999V72.5L71.2999 72.4ZM80.6999 88.1C80.6999 86.1 80.9999 84.9 82.1999 84.9C82.3999 84.9 82.5999 84.9 83.5999 85.3L84.6999 85.6L84.8999 85.5L85.2999 84.8C85.5999 84.2 85.6999 83.2 85.6999 81.8L85.0999 78.5L78.9999 52.7V51.8C78.9999 50.6 79.2999 49.8 80.1999 49.8H83.9999C84.4999 49.8 84.9999 50.1 85.2999 50.4C85.5999 50.8 85.7999 51.3 85.8999 52L89.2999 70L91.8999 52.2C91.9999 51.4 92.1999 50.9 92.4999 50.5C92.7999 50.1 93.2999 49.9 93.7999 49.9H96.3999C97.3999 49.9 97.7999 50.7 97.7999 51.9L97.6999 52.7L91.9999 82.2C91.4999 84.7 90.9999 86.6 90.4999 87.9C90.1246 89.0662 89.4321 90.105 88.4999 90.9C87.5999 91.5 86.5999 91.8 85.3999 91.8H85.0999C83.0999 91.8 81.7999 91.2 80.9999 90.1C80.6999 89.7 80.5999 89.1 80.5999 88.1H80.6999ZM31.2999 38.8L39.4999 36.7H39.9999C40.9999 36.7 41.3999 37.5 41.3999 38.9V80.8C41.3999 82.6 40.9999 83.7 39.7999 83.7H35.0999C33.8999 83.7 33.4999 82.6 33.4999 80.7V45.7L31.4999 46.3C30.2999 46.3 29.8999 45.4 29.8999 44.1V41.1C29.8999 39.9 30.2999 39.1 31.2999 38.8Z" fill="white"/>
</svg>
