<svg width="128" height="128" viewBox="0 0 128 128" fill="none" xmlns="http://www.w3.org/2000/svg">
<path d="M18 0H110V128H18V0ZM55.3 36.3L47 38.5C46 38.7 45.6 39.5 45.6 40.7V43.7C45.6 45.1 46 46 47.1 45.9L49.2 45.4V80.4C49.2 82.2 49.6 83.3 50.8 83.3H55.6C56.8 83.3 57.2 82.3 57.2 80.3V38.7C57.2 37.3 56.8 36.4 55.7 36.4H55.3V36.3ZM71.3 72.4V56.2H74.8C75.9 56.2 76.4 55.3 76.4 53.9V52.2C76.4 50.8 75.9 49.9 74.8 49.9H71.2V37.4C71.2 35.9 70.8 34.9 69.6 34.9H66.5C65.5 34.9 65 35.9 64.9 37.4L64.3 49.7H62.8C61.7 49.7 61.2 50.7 61.2 52.1V54C61.2 55.4 61.7 56.3 62.8 56.3H64.3V72.4C64.3 74.2 64.4 75.8 64.7 77.2C65 78.5 65.4 79.6 65.9 80.4C66.4 81.2 67 81.9 67.8 82.4L70 83.3L72.3 83.5H75.5C76.7 83.5 77.3 82.6 77.3 81.4V79.4C77.3 78.3 76.7 77.5 75.6 77.5H73.4L72.6 77.4L72 76.8C71.8 76.6 71.6 76.1 71.4 75.4L71.2 72.5L71.3 72.4ZM80.7 88.1C80.7 89 80.7 89.6 81.1 90C81.9 91.1 83.3 91.7 85.1 91.7H85.5C86.7 91.7 87.7 91.4 88.5 90.8C89.3 90.2 90 89.2 90.5 87.8C91.1 86.5 91.6 84.6 92.1 82.1L97.7 52.8V51.9C97.7 50.7 97.4 49.9 96.4 49.9H93.8C93.3 49.9 92.8 50.1 92.5 50.5C92.2 50.9 92 51.5 91.9 52.2L89.3 70L85.9 52C85.8 51.3 85.6 50.8 85.3 50.4C84.9 50.1 84.5 49.9 84 49.9H80C79.1 49.9 78.8 50.6 78.8 51.9V52.6L85 78.5L85.6 81.8C85.6 83.2 85.5 84.2 85.2 84.8C85.1156 85.0581 84.9795 85.2962 84.8 85.5H84.6C84.2286 85.4628 83.8607 85.3959 83.5 85.3L82.1 84.9C80.9 84.9 80.6 86 80.6 88.1H80.7ZM31.3 38.8C30.3 39.1 29.9 39.8 29.9 41V44C29.9 45.4 30.3 46.3 31.4 46.3L33.4 45.8V80.8C33.4 82.6 33.9 83.7 35.1 83.7H39.8C41 83.7 41.4 82.6 41.4 80.7V39C41.4 37.6 41 36.7 40 36.7L39.5 36.8L31.3 38.9V38.8Z" fill="black"/>
</svg>
