<svg width="128" height="128" viewBox="0 0 128 128" fill="none" xmlns="http://www.w3.org/2000/svg">
<path d="M90.0998 80.0002C90.8998 79.5002 91.7998 79.0002 92.5998 78.5002C98.1998 73.7002 96.1998 65.0002 86.6998 52.8002C86.8998 58.9002 87.8998 65.2002 88.8998 71.9002C89.2998 74.5002 89.6998 77.2002 90.0998 80.0002ZM35.9998 103.2C39.1998 116.9 47.2998 124.3 56.4998 127.4C61.5998 128.3 66.6998 128.1 71.7998 127C72.5998 126.6 73.2998 126.1 73.9998 125.6C75.9998 124.3 77.6998 122.8 79.2998 121.3C72.7998 118.5 66.1998 113.1 59.9998 106.7C55.1998 106.4 50.4998 105.9 46.3998 105.3C42.3998 104.9 38.9998 104.2 35.9998 103.2ZM34.5998 38.7002L34.3998 40.1002C32.9998 48.0002 32.8998 55.1002 33.9998 61.3002C35.0998 53.9002 36.5998 46.3002 38.6998 39.0002C38.9998 37.9002 39.2998 36.7002 39.6998 35.5002H39.7998C41.3998 30.5002 43.1998 25.7002 45.2998 21.2002C41.2998 26.5002 37.7998 32.4002 34.5998 38.7002Z" fill="black"/>
<path d="M33.8998 114C37.3998 118.4 41.3998 121.6 45.7998 123.9C40.1998 119.3 35.7998 112.4 33.7998 102.5C29.9998 101.1 26.9998 99.1996 24.6998 96.7996C26.2998 103.2 29.2998 109.1 33.8998 114ZM33.2998 66.9996C31.4998 61.0996 30.8998 54.2996 31.4998 46.5996C30.3998 48.8996 29.3998 51.3996 28.2998 53.8996C23.7998 66.9996 21.7998 80.5996 23.6998 92.5996C25.7998 95.7996 28.8998 98.3996 33.2998 100.2C31.8998 92.4996 31.7998 80.2996 33.2998 66.9996ZM35.4998 100.8C35.4998 100.9 35.4998 100.9 35.4998 100.8C38.6998 102 42.2998 102.8 46.5998 103.3C50.0998 103.9 53.8998 104.3 57.8998 104.6C49.5998 95.4996 42.2998 84.7996 37.5998 75.9996C36.4998 74.3996 35.5998 72.6996 34.7998 70.9996C33.6998 83.1996 33.9998 94.0996 35.4998 100.8ZM86.8998 72.0996C85.7998 64.5996 84.5998 56.9996 84.5998 49.7996C71.8998 37.9996 59.5998 25.3996 60.0998 5.09961C59.6998 5.39961 59.2998 5.69961 58.9998 5.99961C56.7998 7.89961 54.5998 9.99961 52.4998 12.2996C47.9998 18.6996 44.3998 26.8996 41.5998 35.7996C39.9998 47.3996 51.1998 70.0996 66.0998 87.4996C73.2998 87.1996 80.8998 84.9996 88.1998 80.9996C87.7998 78.0996 87.3998 75.0996 86.8998 72.0996ZM96.8998 111.8C94.2998 111.3 91.6998 110.4 89.0998 109.2C87.7998 113.3 85.6998 117.1 82.6998 120.6C83.7998 120.9 84.7998 121.2 85.7998 121.3C89.9998 118.8 93.7998 115.5 96.8998 111.8Z" fill="black"/>
<path d="M62.0998 3.5998C60.9998 23.0998 72.1998 35.4998 84.3998 46.7998C73.6998 32.5998 67.4998 24.0998 67.4998 0.299805C65.7998 1.1998 63.9998 2.2998 62.0998 3.5998ZM83.1998 105.8C77.8998 106.6 72.3998 106.9 66.9998 106.9C65.5998 106.9 64.0998 106.9 62.6998 106.8C68.4998 112.6 74.6998 117.4 80.6998 119.8C83.8998 116.3 85.9998 112.4 87.2998 108.2C85.8998 107.5 84.4998 106.7 83.1998 105.8ZM80.7998 104.2C78.7998 102.8 76.9998 101.3 75.2998 99.7998C71.7998 96.6998 68.3998 93.2998 65.1998 89.5998C58.0998 89.6998 51.4998 87.9998 46.0998 84.4998C45.2998 83.9998 44.4998 83.3998 43.7998 82.7998C48.3998 90.0998 54.2998 98.0998 60.6998 104.8C67.1998 105.1 74.1998 105 80.7998 104.2ZM90.3998 104.4C90.1998 105.4 89.9998 106.3 89.6998 107.3C92.4998 108.7 95.3998 109.7 98.2998 110C100.8 106.6 102.8 102.8 104 98.6998C100.3 101.2 95.5998 103.1 90.3998 104.4Z" fill="black"/>
<path d="M47.1999 82.7996C51.8999 85.7996 57.4999 87.3996 63.4999 87.5996C51.1999 72.9996 41.6999 55.1996 39.7999 42.5996C37.4999 51.4996 36.6999 56.9996 35.3999 66.1996V66.3996C36.2999 68.6996 37.4999 71.4996 39.0999 74.4996C41.1999 77.8996 43.8999 80.6996 47.1999 82.7996ZM88.4999 83.1996C81.6999 86.8996 74.5999 88.9996 67.7999 89.4996C70.6999 92.6996 73.5999 95.6996 76.5999 98.2996C78.6999 100.2 81.0999 102.1 83.6999 103.8C85.3999 103.5 86.9999 103.2 88.5999 102.9C89.5999 96.5996 89.2999 89.9996 88.4999 83.1996ZM90.6999 102.3C96.2999 100.8 101.2 98.6996 104.8 95.6996C106.3 88.7996 105.8 81.2996 102.5 73.2996C99.5999 68.3996 96.7999 64.0996 94.1999 60.2996C98.9999 69.0996 98.8999 75.4996 93.7999 79.8996L93.6999 79.9996C92.5999 80.6996 91.4999 81.3996 90.2999 82.0996C91.1999 88.9996 91.5999 95.8996 90.6999 102.3Z" fill="black"/>
</svg>
