<svg width="128" height="128" viewBox="0 0 128 128" fill="none" xmlns="http://www.w3.org/2000/svg">
<path d="M25.7998 27.7002C9.99976 35.3002 -9.90023 75.1002 6.69977 92.5002C21.9998 111.7 55.5998 93.2002 45.7998 69.3002C33.4998 48.8002 25.7998 47.7002 25.7998 27.7002Z" fill="url(#paint0_linear_3_7008)"/>
<path d="M25.7998 27.5C9.99976 35.2 -9.90023 74.8 6.69977 92.3C12.7998 99.4 22.6998 101.7 28.2998 97.5C43.3998 86.7 32.4998 67.1 34.1998 52.6C27.8998 46.8 25.6998 33.8 25.7998 27.5Z" fill="url(#paint1_linear_3_7008)"/>
<path d="M21.4002 29.7998C8.70015 38.8998 5.30015 72.6998 7.60015 83.6998C12.3002 111.2 50.6002 99.8998 47.4002 74.2998C44.0002 57.5998 19.5002 51.8998 21.4002 29.7998Z" fill="url(#paint2_linear_3_7008)"/>
<path d="M34.0998 55.9C39.9998 63.6 41.3998 68.8 37.9998 71.9C22.0998 82.9 2.89977 76.1 7.09977 50.5C1.69977 63.4 -8.40023 82.8 13.7998 85.5C25.6998 87.6 44.6998 86.6 47.4998 76.3C47.2998 67.2 41.2998 63.2 34.0998 55.9Z" fill="url(#paint3_linear_3_7008)"/>
<path d="M10.8 48.2002C9.1 60.3002 30.9 92.8002 44.1 88.8002C34 109.2 11.6 76.7002 7.5 65.0002C8.4 58.7002 8.8 55.6002 10.8 48.2002Z" fill="url(#paint4_linear_3_7008)"/>
<path d="M23.5002 55.8C24.0002 60.3 25.7002 67.5 23.5002 72.3C21.3002 77 11.1002 85.7 13.9002 93.4C20.4002 107.6 35.1002 90.9 35.0002 82.5C35.6002 75.7 31.2002 60.4 34.0002 52.5L32.7002 50.9L25.0002 48.5C23.7002 50.4 23.2002 52.8 23.5002 55.8Z" fill="url(#paint5_linear_3_7008)"/>
<path d="M26.2999 33.5996C9.49991 43.0996 16.3999 57.9996 17.0999 74.0996L27.9999 42.3996C27.2999 39.0996 26.7999 36.8996 26.2999 33.5996Z" fill="url(#paint6_linear_3_7008)"/>
<path d="M27.9999 42.2998C19.5999 48.9998 19.9999 60.1998 17.3999 73.1998C21.9999 60.9998 19.7999 51.2998 27.9999 42.2998Z" fill="#330A4C" fill-opacity="0.316"/>
<path d="M15.2002 95.8994C19.8002 96.4994 22.1002 97.1994 22.4002 97.5994C22.5002 99.9994 16.0002 98.2994 15.2002 95.8994Z" fill="white"/>
<path d="M17.5 33.5996C13.5 37.9996 9.2 45.9996 7.1 50.4996C6.5 54.1996 6.8 59.4996 7.4 63.8996C7.9 53.5996 11.7 41.5996 17.5 33.5996Z" fill="#EDEDED" fill-opacity="0.603"/>
<path d="M63.7002 72.0004C63.8002 76.1004 66.3002 77.8004 69.4002 77.8004C71.6002 77.8004 72.9002 77.4004 74.0002 76.9004L74.5002 79.1004C73.4002 79.6004 71.6002 80.2004 68.9002 80.2004C63.8002 80.2004 60.7002 76.8004 60.7002 71.8004C60.7002 66.8004 63.7002 62.9004 68.5002 62.9004C74.0002 62.9004 75.4002 67.6004 75.4002 70.7004C75.4002 71.3004 75.4002 71.8004 75.3002 72.1004H63.7002V72.0004ZM72.6002 69.8004C72.6002 67.9004 71.8002 64.9004 68.4002 64.9004C65.3002 64.9004 64.0002 67.7004 63.8002 69.8004H72.6002ZM79.2002 55.4004H82.2002V79.8004H79.2002V55.4004ZM90.7002 58.5004C90.7002 59.5004 90.0002 60.4004 88.8002 60.4004C87.7002 60.4004 87.0002 59.6004 87.0002 58.5004C87.0002 57.4004 87.8002 56.6004 88.9002 56.6004C89.9002 56.6004 90.7002 57.4004 90.7002 58.5004ZM87.3002 79.8004V63.1004H90.3002V79.7004H87.3002V79.8004ZM96.8002 63.1004L99.2002 66.7004C99.9002 67.6004 100.4 68.5004 100.9 69.4004H101C101.5 68.4004 102.1 67.6004 102.7 66.7004L105 63.2004H108.3L102.6 71.2004L108.4 79.8004H105L102.5 76.1004C101.8 75.1004 101.3 74.2004 100.7 73.2004H100.6C100.1 74.2004 99.5002 75.1004 98.8002 76.1004L96.4002 79.8004H93.1002L99.0002 71.3004L93.4002 63.2004H96.8002V63.1004ZM114.6 58.5004C114.6 59.5004 113.9 60.4004 112.7 60.4004C111.6 60.4004 110.9 59.6004 110.9 58.5004C110.9 57.4004 111.7 56.6004 112.8 56.6004C113.9 56.6004 114.6 57.4004 114.6 58.5004ZM111.2 79.8004V63.1004H114.2V79.7004H111.2V79.8004ZM119.3 68.3004L119.2 63.1004H121.8L121.9 66.4004H122C122.8 64.2004 124.6 62.8004 126.6 62.8004C126.9 62.8004 127.1 62.8004 127.4 62.9004V65.7004C127.1 65.6004 126.8 65.6004 126.4 65.6004C124.3 65.6004 122.8 67.2004 122.4 69.4004C122.3 69.8004 122.3 70.3004 122.3 70.8004V79.7004H119.3V68.3004Z" fill="#333333"/>
<defs>
<linearGradient id="paint0_linear_3_7008" x1="24.6818" y1="33.0352" x2="23.6148" y2="100.535" gradientUnits="userSpaceOnUse">
<stop stop-color="#D9D8DC"/>
<stop offset="1" stop-color="white" stop-opacity="0.385"/>
</linearGradient>
<linearGradient id="paint1_linear_3_7008" x1="23.6442" y1="31.969" x2="-2.84175" y2="90.0181" gradientUnits="userSpaceOnUse">
<stop stop-color="#8D67AF" stop-opacity="0.672"/>
<stop offset="1" stop-color="#9F8DAF"/>
</linearGradient>
<linearGradient id="paint2_linear_3_7008" x1="27.2602" y1="51.8008" x2="27.2602" y2="98.4248" gradientUnits="userSpaceOnUse">
<stop stop-color="#26053D" stop-opacity="0.762"/>
<stop offset="1" stop-color="#B7B4B4" stop-opacity="0.278"/>
</linearGradient>
<linearGradient id="paint3_linear_3_7008" x1="9.98505" y1="53.1148" x2="21.9253" y2="84.7425" gradientUnits="userSpaceOnUse">
<stop stop-color="#91739F" stop-opacity="0.46"/>
<stop offset="1" stop-color="#32054F" stop-opacity="0.54"/>
</linearGradient>
<linearGradient id="paint4_linear_3_7008" x1="36.7781" y1="93.7373" x2="4.05159" y2="66.6313" gradientUnits="userSpaceOnUse">
<stop stop-color="#463D49" stop-opacity="0.331"/>
<stop offset="1" stop-color="#340A50" stop-opacity="0.821"/>
</linearGradient>
<linearGradient id="paint5_linear_3_7008" x1="28.5547" y1="51.2967" x2="5.54897" y2="86.3015" gradientUnits="userSpaceOnUse">
<stop stop-color="#715383" stop-opacity="0.145"/>
<stop offset="1" stop-color="#F4F4F4" stop-opacity="0.234"/>
</linearGradient>
<linearGradient id="paint6_linear_3_7008" x1="32.2912" y1="59.9946" x2="16.2987" y2="59.0184" gradientUnits="userSpaceOnUse">
<stop stop-color="#A5A1A8" stop-opacity="0.356"/>
<stop offset="1" stop-color="#370C50" stop-opacity="0.582"/>
</linearGradient>
</defs>
</svg>
