<svg width="128" height="128" viewBox="0 0 128 128" fill="none" xmlns="http://www.w3.org/2000/svg">
<path d="M64 70.5004C64.1 74.6004 66.6 76.3004 69.7 76.3004C71.9 76.3004 73.2 75.9004 74.3 75.4004L74.8 77.6004C73.7 78.1004 71.9 78.7004 69.2 78.7004C64.1 78.7004 61 75.3004 61 70.3004C61 65.3004 64 61.4004 68.8 61.4004C74.3 61.4004 75.7 66.1004 75.7 69.2004C75.7 69.8004 75.7 70.3004 75.6 70.6004H64V70.5004ZM72.8 68.3004C72.8 66.4004 72 63.4004 68.6 63.4004C65.5 63.4004 64.2 66.2004 64 68.3004H72.8ZM79.5 53.9004H82.5V78.3004H79.5V53.9004Z" fill="black"/>
<path d="M90.9998 56.9C90.9998 57.9 90.2998 58.8 89.0998 58.8C87.9998 58.8 87.2998 58 87.2998 56.9C87.2998 55.8 88.0998 55 89.1998 55C90.1998 55.1 90.9998 55.9 90.9998 56.9ZM87.5998 78.2V61.6H90.5998V78.2H87.5998Z" fill="black"/>
<path d="M96.9998 61.5996L99.3998 65.1996C100.1 66.0996 100.6 66.9996 101.1 67.8996H101.2C101.7 66.8996 102.3 66.0996 102.9 65.1996L105.2 61.6996H108.5L102.8 69.6996L108.6 78.2996H105.2L102.7 74.5996C102 73.5996 101.5 72.6996 100.9 71.6996H100.8C100.3 72.6996 99.6998 73.5996 98.9998 74.5996L96.5998 78.2996H93.2998L99.1998 69.7996L93.5998 61.6996H96.9998V61.5996Z" fill="black"/>
<path d="M114.9 56.9C114.9 57.9 114.2 58.8 113 58.8C111.9 58.8 111.2 58 111.2 56.9C111.2 55.8 112 55 113.1 55C114.1 55.1 114.9 55.9 114.9 56.9ZM111.5 78.2V61.6H114.5V78.2H111.5Z" fill="black"/>
<path d="M119.6 66.8002L119.5 61.6002H122.1L122.2 64.9002H122.3C123.1 62.7002 124.9 61.3002 126.9 61.3002C127.2 61.3002 127.4 61.3002 127.7 61.4002V64.2002C127.4 64.1002 127.1 64.1002 126.7 64.1002C124.6 64.1002 123.1 65.7002 122.6 67.9002C122.5 68.3002 122.5 68.8002 122.5 69.3002V78.2002H119.5V66.8002H119.6ZM38.3 70.7002L39.7 69.8002C42.9 67.1002 41.8 62.1002 36.3 55.1002C36.4 58.6002 37 62.2002 37.6 66.0002C37.8 67.5002 38 69.1002 38.3 70.7002ZM7.40001 83.9002C9.20001 91.7002 13.8 95.9002 19.1 97.7002C22 98.2002 24.9 98.1002 27.8 97.5002C28.3 97.3002 28.7 97.0002 29.1 96.7002C30.2 96.0002 31.2 95.1002 32.1 94.2002C28.4 92.6002 24.6 89.5002 21.1 85.9002C18.4 85.7002 15.7 85.4002 13.3 85.1002C11.1 84.9002 9.10001 84.5002 7.40001 83.9002ZM6.60001 47.1002L6.50001 47.9002C5.70001 52.4002 5.70001 56.5002 6.30001 60.0002C6.90001 55.8002 7.80001 51.4002 9.00001 47.3002C9.20001 46.7002 9.30001 46.0002 9.60001 45.3002H9.70001C10.6 42.4002 11.6 39.7002 12.8 37.1002C10.4 40.2002 8.40001 43.5002 6.60001 47.1002ZM6.20001 90.0002C8.04527 92.3266 10.3629 94.2353 13 95.6002C9.80001 93.0002 7.30001 89.0002 6.20001 83.4002C4.00001 82.7002 2.30001 81.6002 1.00001 80.2002C1.90001 83.9002 3.60001 87.2002 6.20001 90.0002ZM5.90001 63.2002C4.90001 59.8002 4.50001 56.0002 4.90001 51.6002C4.30001 52.9002 3.70001 54.3002 3.10001 55.8002C0.500014 63.2002 -0.699986 71.0002 0.400014 77.8002C1.60001 79.6002 3.40001 81.1002 5.90001 82.1002C5.10001 77.8002 5.00001 70.8002 5.90001 63.2002ZM7.10001 82.5002C7.10001 82.6002 7.10001 82.6002 7.10001 82.5002C8.90001 83.2002 11 83.6002 13.4 83.9002C15.4 84.2002 17.6 84.5002 19.8 84.6002C15.2 79.5002 11 73.4002 8.30001 68.4002C7.70001 67.5002 7.20001 66.5002 6.70001 65.5002C6.10001 72.5002 6.30001 78.7002 7.10001 82.5002ZM36.4 66.2002C35.8 61.9002 35.1 57.6002 35.1 53.5002C27.9 46.8002 20.8 39.6002 21.1 28.0002C20.9 28.2002 20.6 28.3002 20.5 28.5002C19.2 29.6002 18 30.8002 16.8 32.1002C14.2 35.7002 12.2 40.4002 10.6 45.5002C9.70002 52.1002 16.1 65.1002 24.6 75.0002C28.7 74.8002 33 73.6002 37.2 71.3002C37 69.6002 36.7 67.9002 36.4 66.2002ZM42.1 88.8002C40.5735 88.4968 39.094 87.9924 37.7 87.3002C37 89.6002 35.8 91.8002 34.1 93.8002C34.7 94.0002 35.3 94.1002 35.9 94.2002C38.2 92.8002 40.4 90.9002 42.1 88.8002ZM22.3 27.1002C21.7 38.2002 28.1 45.3002 35 51.7002C28.9 43.6002 25.4 38.8002 25.4 25.2002C24.4 25.7002 23.4 26.4002 22.3 27.1002ZM34.3 85.4002C31.3 85.9002 28.1 86.0002 25.1 86.0002C24.3 86.0002 23.4 86.0002 22.6 85.9002C25.9 89.2002 29.4 91.9002 32.9 93.3002C34.7 91.3002 35.9 89.1002 36.7 86.7002C35.9 86.3002 35.1 85.9002 34.3 85.4002ZM33 84.5002C31.9 83.7002 30.8 82.8002 29.9 82.0002C27.868 80.1682 25.932 78.2322 24.1 76.2002C20.1 76.3002 16.3 75.3002 13.2 73.3002C12.7257 73.0238 12.2888 72.6877 11.9 72.3002C14.5 76.5002 17.9 81.0002 21.5 84.8002C25.2 85.0002 29.2 84.9002 33 84.5002ZM38.4 84.6002C38.3 85.2002 38.2 85.7002 38 86.3002C39.6 87.1002 41.2 87.7002 42.9 87.8002C44.3 85.9002 45.5 83.7002 46.1 81.4002C44.1 82.7002 41.4 83.8002 38.4 84.6002ZM13.8 72.3002C16.5 74.0002 19.7 74.9002 23.1 75.0002C16.1 66.7002 10.7 56.5002 9.60001 49.3002C8.30001 54.4002 7.80001 57.5002 7.10001 62.8002V62.9002C7.70889 64.4735 8.41011 66.0095 9.20001 67.5002C10.4 69.5002 11.9 71.1002 13.8 72.3002ZM37.3 72.5002C33.4 74.6002 29.4 75.8002 25.5 76.1002C27.2 77.9002 28.8 79.6002 30.5 81.1002C31.7 82.2002 33.1 83.3002 34.5 84.2002C35.5 84.0002 36.4 83.9002 37.3 83.7002C38 80.1002 37.8 76.4002 37.3 72.5002ZM38.6 83.4002C41.8 82.5002 44.6 81.3002 46.6 79.6002C47.5 75.7002 47.2 71.4002 45.3 66.8002C43.6 64.0002 42.1 61.6002 40.6 59.4002C43.3 64.4002 43.3 68.1002 40.4 70.6002L40.3 70.7002C39.7 71.1002 39 71.5002 38.4 71.9002C38.9 75.8002 39.1 79.7002 38.6 83.4002Z" fill="black"/>
</svg>
