<svg width="128" height="128" viewBox="0 0 128 128" fill="none" xmlns="http://www.w3.org/2000/svg">
<path d="M27.2901 62.5904L38.4401 51.4404H16.1401L27.2901 62.5904Z" fill="#EFA500"/>
<path d="M2.91992 38.21L14.1399 49.44H38.5499L27.3199 38.21H2.91992ZM28.7039 63.995L40.9079 51.791L53.0569 63.939L40.8519 76.143L28.7039 63.995Z" fill="#8DD737"/>
<path d="M53.0799 61.14V38.21H30.1499L53.0799 61.14Z" fill="#60B5CC"/>
<path d="M25.87 63.9999L1.5 39.6299V88.3699L25.87 63.9999Z" fill="#34495E"/>
<path d="M42.27 77.56L53.08 88.37V66.75L42.27 77.56Z" fill="#EFA500"/>
<path d="M27.2899 65.4199L2.91992 89.7899H51.6599L27.2899 65.4199Z" fill="#60B5CC"/>
<path d="M62.7402 50.2202H79.4402V53.3102H66.4402V62.4102H77.4402V65.5502H66.4402V76.0702H79.8802V79.2002H62.7402V50.2202ZM85.5802 47.7402H89.2002V75.1402C89.2002 76.2902 89.6902 76.7302 90.2002 76.7302C90.4697 76.7354 90.7387 76.7051 91.0002 76.6402L91.4902 79.3802C90.8306 79.6468 90.1208 79.7663 89.4102 79.7302C86.6702 79.7302 85.5702 78.0102 85.5702 74.8702L85.5802 47.7402ZM96.8502 57.7302H99.8502L100.16 60.8202H100.29C102.15 58.8202 104.4 57.2002 106.96 57.2002C110.23 57.2002 111.96 58.7502 112.88 61.3102C115.13 58.8802 117.34 57.2002 119.95 57.2002C124.37 57.2002 126.49 60.1202 126.49 65.5902V79.2002H122.87V66.0802C122.87 62.0802 121.59 60.3402 118.87 60.3402C117.19 60.3402 115.47 61.4502 113.48 63.6502V79.2002H109.86V66.0802C109.86 62.0802 108.58 60.3402 105.86 60.3402C104.27 60.3402 102.46 61.4502 100.47 63.6502V79.2002H96.8502V57.7302Z" fill="#34495E"/>
</svg>
