<svg width="128" height="128" viewBox="0 0 128 128" fill="none" xmlns="http://www.w3.org/2000/svg">
<path d="M27.29 62.59L38.44 51.44H16.14L27.29 62.59ZM2.92 38.21L14.14 49.44H38.55L27.32 38.21H2.92ZM28.704 63.995L40.908 51.791L53.057 63.939L40.852 76.143L28.704 63.995ZM53.08 61.14V38.21H30.15L53.08 61.14ZM25.87 64L1.5 39.63V88.37L25.87 64ZM42.27 77.56L53.08 88.37V66.75L42.27 77.56ZM27.29 65.42L2.92 89.79H51.66L27.29 65.42ZM62.74 50.22H79.44V53.31H66.44V62.41H77.44V65.55H66.44V76.07H79.88V79.2H62.74V50.22ZM85.58 47.74H89.2V75.14C89.2 76.29 89.69 76.73 90.2 76.73C90.4695 76.7351 90.7384 76.7048 91 76.64L91.49 79.38C90.8304 79.6465 90.1205 79.766 89.41 79.73C86.67 79.73 85.57 78.01 85.57 74.87L85.58 47.74ZM96.85 57.73H99.85L100.16 60.82H100.29C102.15 58.82 104.4 57.2 106.96 57.2C110.23 57.2 111.96 58.75 112.88 61.31C115.13 58.88 117.34 57.2 119.95 57.2C124.37 57.2 126.49 60.12 126.49 65.59V79.2H122.87V66.08C122.87 62.08 121.59 60.34 118.87 60.34C117.19 60.34 115.47 61.45 113.48 63.65V79.2H109.86V66.08C109.86 62.08 108.58 60.34 105.86 60.34C104.27 60.34 102.46 61.45 100.47 63.65V79.2H96.85V57.73Z" fill="#34495E"/>
</svg>
