<svg width="128" height="128" viewBox="0 0 128 128" fill="none" xmlns="http://www.w3.org/2000/svg">
<path d="M127.28 72.5297C127.288 72.2756 127.229 72.0239 127.109 71.7996C126.99 71.5753 126.813 71.3861 126.598 71.2508C126.383 71.1154 126.136 71.0386 125.882 71.0278C125.628 71.0171 125.376 71.0729 125.15 71.1897C125.15 71.1897 122.07 73.5797 119.36 73.3097C116.65 73.0397 117.5 66.9997 117.5 66.9997C117.5 66.9997 118.08 61.4497 116.5 60.9997C114.92 60.5497 112.94 62.4497 112.94 62.4497C111.376 64.2729 110.153 66.3629 109.33 68.6197L109.01 68.7297C109.01 68.7297 109.38 62.6697 108.96 61.2897C108.64 60.5997 105.72 60.6497 105.24 61.8697C104.76 63.0897 102.42 71.5997 102.24 75.1597C102.24 75.1597 97.6702 79.0397 93.6802 79.6797C89.6902 80.3197 88.7402 77.8197 88.7402 77.8197C88.7402 77.8197 99.5802 74.8197 99.2102 66.1297C98.8402 57.4397 90.4702 60.6697 89.5202 61.3797C88.5702 62.0897 83.7102 64.9997 82.2902 73.1497C82.2902 73.4297 82.1602 74.6397 82.1602 74.6397C80.1038 76.0406 77.913 77.2331 75.6202 78.1997C75.6202 78.1997 82.1602 67.1997 74.1802 62.1997C70.5702 59.9997 67.7002 64.5997 67.7002 64.5997C67.7002 64.5997 78.4902 52.5997 76.1002 42.4397C74.9602 37.6097 72.5402 37.0897 70.3302 37.8697C68.498 38.4999 66.8868 39.6458 65.6902 41.1697C62.7342 45.9397 60.8982 51.3178 60.3202 56.8997C59.3202 66.3097 57.8202 77.6797 57.8202 77.6797C57.8202 77.6797 55.7502 79.6797 53.8202 79.8097C51.8902 79.9397 52.7602 74.1197 52.7602 74.1197C52.7602 74.1197 54.2502 65.2997 54.1402 63.8097C54.0302 62.3197 53.9302 61.5197 52.1402 60.9897C50.3502 60.4597 48.4702 62.6897 48.4702 62.6897C48.4702 62.6897 43.4702 70.3397 43.0002 71.5097L42.7302 71.9897L42.4602 71.6697C42.4602 71.6697 46.0202 61.2497 42.6202 61.0897C39.2202 60.9297 37.0002 64.8097 37.0002 64.8097C37.0002 64.8097 33.1502 71.2997 33.0002 71.9997L32.7302 71.6797C32.7302 71.6797 34.3202 64.1297 34.0102 62.2697C33.9849 62.0302 33.9094 61.7989 33.7885 61.5906C33.6676 61.3824 33.5041 61.2021 33.3087 61.0614C33.1132 60.9208 32.8903 60.823 32.6545 60.7744C32.4187 60.7259 32.1753 60.7277 31.9402 60.7797C31.9402 60.7797 29.7102 60.5097 29.1202 61.9497C27.8034 66.5428 26.8011 71.2203 26.1202 75.9497C26.1202 75.9497 20.5402 79.9497 16.8702 79.9497C13.2002 79.9497 13.5702 77.6197 13.5702 77.6197C13.5702 77.6197 27.0002 73.0897 23.3702 63.9997C22.7027 62.9708 21.764 62.1462 20.6576 61.6168C19.5513 61.0875 18.3202 60.8739 17.1002 60.9997C14.3902 61.0497 11.1002 62.7097 8.93021 67.5997C8.10141 69.5825 7.57878 71.6798 7.38021 73.8197C7.38021 73.8197 4.95021 74.2997 3.67021 73.2397C2.39021 72.1797 1.67021 73.2397 1.67021 73.2397C1.67021 73.2397 -0.539789 75.9897 1.67021 76.8397C3.47374 77.4225 5.33425 77.8113 7.22021 77.9997C7.73391 80.4244 9.10876 82.5808 11.0902 84.0697C15.0902 87.0697 22.7302 83.8097 22.7302 83.8097L25.8702 82.0597C25.8702 82.0597 26.0002 84.9997 28.2602 85.3897C30.5202 85.7797 31.5002 85.3897 35.4902 75.7097C37.8302 70.7697 38.0002 70.9997 38.0002 70.9997L38.2702 70.9497C38.2702 70.9497 36.4602 80.4097 37.1502 82.9497C37.8402 85.4897 40.8702 85.2397 40.8702 85.2397C40.8702 85.2397 42.5202 85.5197 43.8702 80.8397C44.9006 77.4677 46.1842 74.1783 47.7102 70.9997H48.0002C48.0002 70.9997 46.8802 80.7097 48.5802 83.7997C50.2802 86.8897 54.6902 84.8597 54.6902 84.8597C55.9199 84.2727 57.1092 83.6046 58.2502 82.8597C60.7617 84.795 63.9135 85.7062 67.0702 85.4097C78.6102 83.1397 82.7102 80.0797 82.7102 80.0797C83.4386 81.6451 84.579 82.9829 86.0094 83.95C87.4397 84.9171 89.1061 85.4769 90.8302 85.5697C92.8115 85.7635 94.811 85.5161 96.6853 84.8452C98.5596 84.1744 100.262 83.0967 101.67 81.6897C101.67 81.6897 101.62 84.5597 104.06 85.5697C106.5 86.5797 108.15 80.8697 108.15 80.8697L112.24 69.5497H112.61C112.61 69.5497 112.82 76.9297 116.86 78.0897C120.9 79.2497 126.16 75.3697 126.16 75.3697C126.61 75.0627 126.957 74.6279 127.156 74.1216C127.356 73.6153 127.399 73.0608 127.28 72.5297ZM13.0002 73.5797C13.1602 67.2597 17.3102 64.4897 18.7402 65.8697C20.1702 67.2497 19.6402 70.2297 16.9302 72.0897C14.2202 73.9497 13.0002 73.5797 13.0002 73.5797ZM66.9002 49.0797C66.9002 49.0797 70.6702 39.2497 71.5802 44.0797C72.4902 48.9097 63.6602 63.0797 63.6602 63.0797C63.7602 59.8697 66.9002 49.0797 66.9002 49.0797ZM71.4202 76.4497C68.9202 82.9897 62.8602 80.3297 62.8602 80.3297C62.8602 80.3297 62.1702 77.9897 64.1402 71.4497C66.1102 64.9097 70.7302 67.4497 70.7302 67.4497C70.7302 67.4497 73.9102 69.9197 71.4202 76.4497ZM88.1602 73.5797C88.1602 73.5797 87.5802 71.5097 89.7502 67.5197C91.9202 63.5297 93.6302 65.7097 93.6302 65.7097C93.6302 65.7097 95.4902 67.7097 93.3602 70.7097C92.7989 71.5812 92.0299 72.2997 91.1223 72.8007C90.2146 73.3016 89.1968 73.5693 88.1602 73.5797Z" fill="#DD3F24"/>
<path d="M109.734 82.5511H109.887C110.066 82.5511 110.151 82.6191 110.176 82.7721C110.219 82.9336 110.244 83.0611 110.287 83.1121H110.635C110.601 83.0611 110.576 82.9761 110.533 82.7636C110.491 82.5766 110.414 82.4746 110.278 82.4236V82.4066C110.448 82.3556 110.567 82.2366 110.567 82.0836C110.567 81.9476 110.508 81.8371 110.431 81.7776C110.329 81.7181 110.21 81.6756 109.947 81.6756C109.717 81.6756 109.539 81.6926 109.411 81.7181V83.1121H109.734V82.5511ZM109.743 81.9221C109.777 81.9136 109.836 81.9051 109.921 81.9051C110.125 81.9051 110.219 81.9901 110.219 82.1176C110.219 82.2621 110.074 82.3216 109.896 82.3216H109.743V81.9221ZM109.955 80.9871C109.156 80.9871 108.519 81.6076 108.519 82.3811C108.519 83.1716 109.156 83.7921 109.955 83.7921C110.763 83.7921 111.383 83.1716 111.383 82.3811C111.383 81.6076 110.763 80.9871 109.955 80.9871ZM109.955 81.2676C110.576 81.2676 111.026 81.7691 111.026 82.3896C111.026 83.0016 110.576 83.4946 109.964 83.4946C109.335 83.4946 108.876 83.0016 108.876 82.3811C108.876 81.7691 109.335 81.2676 109.955 81.2676Z" fill="#DD3F24"/>
</svg>
