<svg width="128" height="128" viewBox="0 0 128 128" fill="none" xmlns="http://www.w3.org/2000/svg">
<path d="M126 95.9844H114C112.895 95.9844 112 96.7007 112 97.5844V102.384C112 103.268 112.895 103.984 114 103.984H126C127.105 103.984 128 103.268 128 102.384V97.5844C128 96.7007 127.105 95.9844 126 95.9844Z" fill="#B3B3B3"/>
<path d="M126 59.9844H114C112.895 59.9844 112 60.7007 112 61.5844V66.3844C112 67.268 112.895 67.9844 114 67.9844H126C127.105 67.9844 128 67.268 128 66.3844V61.5844C128 60.7007 127.105 59.9844 126 59.9844Z" fill="#B3B3B3"/>
<path d="M126 41.9844H114C112.895 41.9844 112 42.7007 112 43.5844V48.3844C112 49.268 112.895 49.9844 114 49.9844H126C127.105 49.9844 128 49.268 128 48.3844V43.5844C128 42.7007 127.105 41.9844 126 41.9844Z" fill="#B3B3B3"/>
<path d="M126 23.9844H114C112.895 23.9844 112 24.7007 112 25.5844V30.3844C112 31.268 112.895 31.9844 114 31.9844H126C127.105 31.9844 128 31.268 128 30.3844V25.5844C128 24.7007 127.105 23.9844 126 23.9844Z" fill="#B3B3B3"/>
<path d="M126 77.9844H114C112.895 77.9844 112 78.7007 112 79.5844V84.3844C112 85.268 112.895 85.9844 114 85.9844H126C127.105 85.9844 128 85.268 128 84.3844V79.5844C128 78.7007 127.105 77.9844 126 77.9844Z" fill="#B3B3B3"/>
<path d="M32.02 126V114C32.02 112.895 31.3037 112 30.42 112H25.62C24.7364 112 24.02 112.895 24.02 114V126C24.02 127.105 24.7364 128 25.62 128H30.42C31.3037 128 32.02 127.105 32.02 126Z" fill="#B3B3B3"/>
<path d="M68.02 126V114C68.02 112.895 67.3037 112 66.42 112H61.62C60.7364 112 60.02 112.895 60.02 114V126C60.02 127.105 60.7364 128 61.62 128H66.42C67.3037 128 68.02 127.105 68.02 126Z" fill="#B3B3B3"/>
<path d="M86.02 126V114C86.02 112.895 85.3037 112 84.42 112H79.62C78.7364 112 78.02 112.895 78.02 114V126C78.02 127.105 78.7364 128 79.62 128H84.42C85.3037 128 86.02 127.105 86.02 126Z" fill="#B3B3B3"/>
<path d="M104.02 126V114C104.02 112.895 103.304 112 102.42 112H97.62C96.7364 112 96.02 112.895 96.02 114V126C96.02 127.105 96.7364 128 97.62 128H102.42C103.304 128 104.02 127.105 104.02 126Z" fill="#B3B3B3"/>
<path d="M50.02 126V114C50.02 112.895 49.3037 112 48.42 112H43.62C42.7364 112 42.02 112.895 42.02 114V126C42.02 127.105 42.7364 128 43.62 128H48.42C49.3037 128 50.02 127.105 50.02 126Z" fill="#B3B3B3"/>
<path d="M14 95.9844H2C0.89543 95.9844 0 96.7007 0 97.5844V102.384C0 103.268 0.89543 103.984 2 103.984H14C15.1046 103.984 16 103.268 16 102.384V97.5844C16 96.7007 15.1046 95.9844 14 95.9844Z" fill="#B3B3B3"/>
<path d="M14 59.9844H2C0.89543 59.9844 0 60.7007 0 61.5844V66.3844C0 67.268 0.89543 67.9844 2 67.9844H14C15.1046 67.9844 16 67.268 16 66.3844V61.5844C16 60.7007 15.1046 59.9844 14 59.9844Z" fill="#B3B3B3"/>
<path d="M14 41.9844H2C0.89543 41.9844 0 42.7007 0 43.5844V48.3844C0 49.268 0.89543 49.9844 2 49.9844H14C15.1046 49.9844 16 49.268 16 48.3844V43.5844C16 42.7007 15.1046 41.9844 14 41.9844Z" fill="#B3B3B3"/>
<path d="M14 23.9844H2C0.89543 23.9844 0 24.7007 0 25.5844V30.3844C0 31.268 0.89543 31.9844 2 31.9844H14C15.1046 31.9844 16 31.268 16 30.3844V25.5844C16 24.7007 15.1046 23.9844 14 23.9844Z" fill="#B3B3B3"/>
<path d="M14 77.9844H2C0.89543 77.9844 0 78.7007 0 79.5844V84.3844C0 85.268 0.89543 85.9844 2 85.9844H14C15.1046 85.9844 16 85.268 16 84.3844V79.5844C16 78.7007 15.1046 77.9844 14 77.9844Z" fill="#B3B3B3"/>
<path d="M32.02 14.001V2.00098C32.02 0.896407 31.3037 0.000976562 30.42 0.000976562H25.62C24.7364 0.000976562 24.02 0.896407 24.02 2.00098V14.001C24.02 15.1055 24.7364 16.001 25.62 16.001H30.42C31.3037 16.001 32.02 15.1055 32.02 14.001Z" fill="#B3B3B3"/>
<path d="M68.02 14.001V2.00098C68.02 0.896407 67.3037 0.000976562 66.42 0.000976562H61.62C60.7364 0.000976562 60.02 0.896407 60.02 2.00098V14.001C60.02 15.1055 60.7364 16.001 61.62 16.001H66.42C67.3037 16.001 68.02 15.1055 68.02 14.001Z" fill="#B3B3B3"/>
<path d="M86.02 14.001V2.00098C86.02 0.896407 85.3037 0.000976562 84.42 0.000976562H79.62C78.7364 0.000976562 78.02 0.896407 78.02 2.00098V14.001C78.02 15.1055 78.7364 16.001 79.62 16.001H84.42C85.3037 16.001 86.02 15.1055 86.02 14.001Z" fill="#B3B3B3"/>
<path d="M104.02 14.001V2.00098C104.02 0.896407 103.304 0.000976562 102.42 0.000976562H97.62C96.7364 0.000976562 96.02 0.896407 96.02 2.00098V14.001C96.02 15.1055 96.7364 16.001 97.62 16.001H102.42C103.304 16.001 104.02 15.1055 104.02 14.001Z" fill="#B3B3B3"/>
<path d="M50.02 14.001V2.00098C50.02 0.896407 49.3037 0.000976562 48.42 0.000976562H43.62C42.7364 0.000976562 42.02 0.896407 42.02 2.00098V14.001C42.02 15.1055 42.7364 16.001 43.62 16.001H48.42C49.3037 16.001 50.02 15.1055 50.02 14.001Z" fill="#B3B3B3"/>
<path d="M110.2 13.1846H17.8C15.7013 13.1846 14 14.5456 14 16.2246V110.945C14 112.624 15.7013 113.985 17.8 113.985H110.2C112.299 113.985 114 112.624 114 110.945V16.2246C114 14.5456 112.299 13.1846 110.2 13.1846Z" fill="black"/>
<path d="M85.3 76.0639C81.1 83.5039 73.1 88.4639 64 88.4639C50.5 88.4639 39.5 77.5039 39.5 63.9839C39.5 50.4639 50.5 39.5039 64 39.5039C73.1 39.5039 81.1 44.5439 85.3 51.9839L98.3 44.4639C91.5 32.5439 78.7 24.4639 64 24.4639C42.2 24.4639 24.5 42.1439 24.5 63.9839C24.5 85.8239 42.2 103.504 64 103.504C78.6 103.504 91.4 95.5039 98.2 83.7439L85.3 76.0639Z" fill="white"/>
<path d="M23 26.0644C24.6569 26.0644 26 24.7033 26 23.0244C26 21.3454 24.6569 19.9844 23 19.9844C21.3431 19.9844 20 21.3454 20 23.0244C20 24.7033 21.3431 26.0644 23 26.0644Z" fill="white"/>
</svg>
