<svg width="129" height="128" viewBox="0 0 129 128" fill="none" xmlns="http://www.w3.org/2000/svg">
<path d="M25.6001 0C24.7001 0 24.0001 0.9 24.0001 2V13.2H17.8001C15.7001 13.2 14.1001 14.5 14.1001 16.2V24H2.1001C1.0001 24 0.100098 24.7 0.100098 25.6V30.4C0.100098 31.3 1.0001 32 2.1001 32H14.1001V42H2.1001C1.0001 42 0.100098 42.7 0.100098 43.6V48.4C0.100098 49.3 1.0001 50 2.1001 50H14.1001V60H2.1001C1.0001 60 0.100098 60.7 0.100098 61.6V66.4C0.100098 67.3 1.0001 68 2.1001 68H14.1001V78H2.1001C1.0001 78 0.100098 78.7 0.100098 79.6V84.4C0.100098 85.3 1.0001 86 2.1001 86H14.1001V96H2.1001C1.0001 96 0.100098 96.7 0.100098 97.6V102.4C0.100098 103.3 1.0001 104 2.1001 104H14.1001V111C14.1001 112.7 15.8001 114 17.9001 114H24.2001V126C24.2001 127.1 24.9001 128 25.8001 128H30.6001C31.5001 128 32.2001 127.1 32.2001 126V114H42.2001V126C42.2001 127.1 42.9001 128 43.8001 128H48.6001C49.5001 128 50.2001 127.1 50.2001 126V114H60.2001V126C60.2001 127.1 60.9001 128 61.8001 128H66.6001C67.5001 128 68.2001 127.1 68.2001 126V114H78.2001V126C78.2001 127.1 78.9001 128 79.8001 128H84.6001C85.5001 128 86.2001 127.1 86.2001 126V114H96.2001V126C96.2001 127.1 96.9001 128 97.8001 128H102.6C103.5 128 104.2 127.1 104.2 126V114H110.5C112.6 114 114.3 112.7 114.3 111V104H126.3C127.4 104 128.3 103.3 128.3 102.4V97.6C128.3 96.7 127.4 96 126.3 96H114.3V86H126.3C127.4 86 128.3 85.3 128.3 84.4V79.6C128.3 78.7 127.4 78 126.3 78H114.3V68H126.3C127.4 68 128.3 67.3 128.3 66.4V61.6C128.3 60.7 127.4 60 126.3 60H114.3V50H126.3C127.4 50 128.3 49.3 128.3 48.4V43.6C128.3 42.7 127.4 42 126.3 42H114.3V32H126.3C127.4 32 128.3 31.3 128.3 30.4V25.6C128.3 24.7 127.4 24 126.3 24H114.3V16.2C114.3 14.5 112.6 13.2 110.6 13.2H104.4V2C104.4 0.9 103.7 0 102.8 0H98.0001C97.1001 0 96.4001 0.9 96.4001 2V13.2H86.4001V2C86.4001 0.9 85.7001 0 84.8001 0H80.0001C79.1001 0 78.4001 0.9 78.4001 2V13.2H68.4001V2C68.4001 0.9 67.7001 0 66.8001 0H62.0001C61.1001 0 60.4001 0.9 60.4001 2V13.2H50.4001V2C50.4001 0.9 49.7001 0 48.8001 0H44.0001C43.1001 0 42.4001 0.9 42.4001 2V13.2H32.4001V2C32.4001 0.9 31.7001 0 30.8001 0H25.6001ZM23.0001 20C23.7957 20 24.5588 20.3161 25.1214 20.8787C25.684 21.4413 26.0001 22.2044 26.0001 23C26.0001 23.7956 25.684 24.5587 25.1214 25.1213C24.5588 25.6839 23.7957 26 23.0001 26C22.2044 26 21.4414 25.6839 20.8788 25.1213C20.3162 24.5587 20.0001 23.7956 20.0001 23C20.0001 22.2044 20.3162 21.4413 20.8788 20.8787C21.4414 20.3161 22.2044 20 23.0001 20ZM64.0001 24.5C78.7001 24.5 91.5001 32.6 98.3001 44.5L85.3001 52C81.1001 44.5 73.1001 39.5 64.0001 39.5C50.5001 39.5 39.5001 50.5 39.5001 64C39.5001 77.5 50.5001 88.5 64.0001 88.5C73.1001 88.5 81.1001 83.5 85.3001 76.1L98.2001 83.7C91.4001 95.5 78.6001 103.5 64.0001 103.5C42.2001 103.5 24.5001 85.8 24.5001 64C24.5001 42.2 42.2001 24.5 64.0001 24.5Z" fill="black"/>
</svg>
