<svg width="128" height="128" viewBox="0 0 128 128" fill="none" xmlns="http://www.w3.org/2000/svg">
<path d="M126 96H114C112.895 96 112 96.7163 112 97.6V102.4C112 103.284 112.895 104 114 104H126C127.105 104 128 103.284 128 102.4V97.6C128 96.7163 127.105 96 126 96Z" fill="#B3B3B3"/>
<path d="M126 60H114C112.895 60 112 60.7163 112 61.6V66.4C112 67.2837 112.895 68 114 68H126C127.105 68 128 67.2837 128 66.4V61.6C128 60.7163 127.105 60 126 60Z" fill="#B3B3B3"/>
<path d="M126 42H114C112.895 42 112 42.7163 112 43.6V48.4C112 49.2837 112.895 50 114 50H126C127.105 50 128 49.2837 128 48.4V43.6C128 42.7163 127.105 42 126 42Z" fill="#B3B3B3"/>
<path d="M126 24H114C112.895 24 112 24.7163 112 25.6V30.4C112 31.2837 112.895 32 114 32H126C127.105 32 128 31.2837 128 30.4V25.6C128 24.7163 127.105 24 126 24Z" fill="#B3B3B3"/>
<path d="M126 78H114C112.895 78 112 78.7163 112 79.6V84.4C112 85.2837 112.895 86 114 86H126C127.105 86 128 85.2837 128 84.4V79.6C128 78.7163 127.105 78 126 78Z" fill="#B3B3B3"/>
<path d="M32.0039 126V114C32.0039 112.895 31.2876 112 30.4039 112H25.6039C24.7203 112 24.0039 112.895 24.0039 114V126C24.0039 127.105 24.7203 128 25.6039 128H30.4039C31.2876 128 32.0039 127.105 32.0039 126Z" fill="#B3B3B3"/>
<path d="M68.0039 126V114C68.0039 112.895 67.2876 112 66.4039 112H61.6039C60.7203 112 60.0039 112.895 60.0039 114V126C60.0039 127.105 60.7203 128 61.6039 128H66.4039C67.2876 128 68.0039 127.105 68.0039 126Z" fill="#B3B3B3"/>
<path d="M86.0039 126V114C86.0039 112.895 85.2876 112 84.4039 112H79.6039C78.7203 112 78.0039 112.895 78.0039 114V126C78.0039 127.105 78.7203 128 79.6039 128H84.4039C85.2876 128 86.0039 127.105 86.0039 126Z" fill="#B3B3B3"/>
<path d="M104.004 126V114C104.004 112.895 103.288 112 102.404 112H97.6039C96.7203 112 96.0039 112.895 96.0039 114V126C96.0039 127.105 96.7203 128 97.6039 128H102.404C103.288 128 104.004 127.105 104.004 126Z" fill="#B3B3B3"/>
<path d="M50.0039 126V114C50.0039 112.895 49.2876 112 48.4039 112H43.6039C42.7203 112 42.0039 112.895 42.0039 114V126C42.0039 127.105 42.7203 128 43.6039 128H48.4039C49.2876 128 50.0039 127.105 50.0039 126Z" fill="#B3B3B3"/>
<path d="M14 96H2C0.89543 96 0 96.7163 0 97.6V102.4C0 103.284 0.89543 104 2 104H14C15.1046 104 16 103.284 16 102.4V97.6C16 96.7163 15.1046 96 14 96Z" fill="#B3B3B3"/>
<path d="M14 60H2C0.89543 60 0 60.7163 0 61.6V66.4C0 67.2837 0.89543 68 2 68H14C15.1046 68 16 67.2837 16 66.4V61.6C16 60.7163 15.1046 60 14 60Z" fill="#B3B3B3"/>
<path d="M14 42H2C0.89543 42 0 42.7163 0 43.6V48.4C0 49.2837 0.89543 50 2 50H14C15.1046 50 16 49.2837 16 48.4V43.6C16 42.7163 15.1046 42 14 42Z" fill="#B3B3B3"/>
<path d="M14 24H2C0.89543 24 0 24.7163 0 25.6V30.4C0 31.2837 0.89543 32 2 32H14C15.1046 32 16 31.2837 16 30.4V25.6C16 24.7163 15.1046 24 14 24Z" fill="#B3B3B3"/>
<path d="M14 78H2C0.89543 78 0 78.7163 0 79.6V84.4C0 85.2837 0.89543 86 2 86H14C15.1046 86 16 85.2837 16 84.4V79.6C16 78.7163 15.1046 78 14 78Z" fill="#B3B3B3"/>
<path d="M32.0039 14.001V2.00098C32.0039 0.896407 31.2876 0.000976562 30.4039 0.000976562H25.6039C24.7203 0.000976562 24.0039 0.896407 24.0039 2.00098V14.001C24.0039 15.1055 24.7203 16.001 25.6039 16.001H30.4039C31.2876 16.001 32.0039 15.1055 32.0039 14.001Z" fill="#B3B3B3"/>
<path d="M68.0039 14.001V2.00098C68.0039 0.896407 67.2876 0.000976562 66.4039 0.000976562H61.6039C60.7203 0.000976562 60.0039 0.896407 60.0039 2.00098V14.001C60.0039 15.1055 60.7203 16.001 61.6039 16.001H66.4039C67.2876 16.001 68.0039 15.1055 68.0039 14.001Z" fill="#B3B3B3"/>
<path d="M86.0039 14.001V2.00098C86.0039 0.896407 85.2876 0.000976562 84.4039 0.000976562H79.6039C78.7203 0.000976562 78.0039 0.896407 78.0039 2.00098V14.001C78.0039 15.1055 78.7203 16.001 79.6039 16.001H84.4039C85.2876 16.001 86.0039 15.1055 86.0039 14.001Z" fill="#B3B3B3"/>
<path d="M104.004 14.001V2.00098C104.004 0.896407 103.288 0.000976562 102.404 0.000976562H97.6039C96.7203 0.000976562 96.0039 0.896407 96.0039 2.00098V14.001C96.0039 15.1055 96.7203 16.001 97.6039 16.001H102.404C103.288 16.001 104.004 15.1055 104.004 14.001Z" fill="#B3B3B3"/>
<path d="M50.0039 14.001V2.00098C50.0039 0.896407 49.2876 0.000976562 48.4039 0.000976562H43.6039C42.7203 0.000976562 42.0039 0.896407 42.0039 2.00098V14.001C42.0039 15.1055 42.7203 16.001 43.6039 16.001H48.4039C49.2876 16.001 50.0039 15.1055 50.0039 14.001Z" fill="#B3B3B3"/>
<path d="M110.25 13.2002H17.75C15.6789 13.2002 14 14.5433 14 16.2002V111C14 112.657 15.6789 114 17.75 114H110.25C112.321 114 114 112.657 114 111V16.2002C114 14.5433 112.321 13.2002 110.25 13.2002Z" fill="black"/>
<path d="M85.3 76.1045C81.1 83.5045 73.1 88.5045 64 88.5045C50.5 88.5045 39.5 77.5045 39.5 64.0085C39.5 50.5125 50.5 39.5125 64 39.5125C73.1 39.5125 81.1 44.5125 85.3 52.0165L98.3 44.5205C91.5 32.6245 78.7 24.5205 64 24.5205C42.2 24.5205 24.5 42.2245 24.5 64.0245C24.5 85.8245 42.2 103.529 64 103.529C78.6 103.529 91.4 95.5285 98.2 83.7285L85.3 76.1045Z" fill="white"/>
<path d="M44.002 56.8237H49.448V59.9741H46.697V62.7053H49.088V65.7853H46.697V68.4869H49.472V71.6581H44.01L44.002 56.8237ZM53.894 61.4349V62.6949C54.63 61.6213 55.3766 61.0845 56.134 61.0845C57.0453 61.0845 57.6343 61.6747 57.901 62.8549C58.317 62.2416 58.701 61.7949 59.053 61.5149C59.4156 61.2349 59.8366 61.0949 60.316 61.0949C61.516 61.0949 62.116 62.1451 62.116 64.2453V71.6677H59.533V65.6357C59.533 64.6491 59.277 64.1557 58.765 64.1557C58.2423 64.1557 57.981 64.6424 57.981 65.6157V71.6677H55.398V65.4557C55.398 65.076 55.326 64.7659 55.182 64.5253C55.0433 64.2789 54.8646 64.1557 54.646 64.1557C54.4166 64.1557 54.23 64.2757 54.086 64.5157C53.9473 64.7557 53.878 65.0792 53.878 65.4861V71.6781H51.303V61.4541L53.894 61.4349ZM64.043 56.0029H66.618V62.6653H66.666C66.9806 62.1251 67.274 61.7283 67.546 61.4749C67.8233 61.2216 68.178 61.0949 68.61 61.0949C69.3346 61.0949 69.9396 61.5683 70.425 62.5149C70.9103 63.4552 71.153 64.8056 71.153 66.5661C71.153 68.1933 70.9183 69.5037 70.449 70.4973C69.985 71.4909 69.385 71.9877 68.649 71.9877C67.8823 71.9877 67.2213 71.4309 66.666 70.3173H66.618V71.6373H64.043V56.0029ZM68.593 66.4965C68.593 64.8027 68.2466 63.9557 67.554 63.9557C66.93 63.9557 66.618 64.7725 66.618 66.4061C66.618 67.3464 66.698 68.0368 66.858 68.4773C67.0233 68.904 67.2846 69.1173 67.642 69.1173C68.2766 69.1173 68.594 68.2437 68.594 66.4965H68.593ZM76.511 68.5373H78.686C78.2706 70.8307 77.234 71.9773 75.576 71.9773C74.5413 71.9773 73.72 71.484 73.112 70.4973C72.51 69.5107 72.209 68.1504 72.209 66.4165C72.209 64.8027 72.51 63.5088 73.112 62.5349C73.7146 61.5547 74.517 61.0645 75.519 61.0645C76.1216 61.0645 76.703 61.3013 77.263 61.7749C77.8176 62.2416 78.2226 62.8651 78.478 63.6453C78.734 64.4256 78.8753 65.6528 78.902 67.3269H74.592C74.6293 68.8469 74.9676 69.6069 75.607 69.6069C75.8256 69.6069 76.0203 69.5069 76.191 69.3069C76.3616 69.1069 76.4656 68.8469 76.503 68.5269L76.511 68.5373ZM74.64 65.5853H76.511C76.495 64.8653 76.415 64.3355 76.271 63.9957C76.127 63.6491 75.903 63.4757 75.599 63.4757C75.2583 63.4757 75.0133 63.6424 74.864 63.9757C74.7146 64.3091 74.64 64.8459 74.64 65.5861V65.5853ZM84.493 56.0029H87.06V71.6581H84.477V70.3173H84.445C83.8683 71.4443 83.22 72.0077 82.5 72.0077C81.7433 72.0077 81.13 71.5109 80.66 70.5173C80.1966 69.5237 79.965 68.1968 79.965 66.5365C79.965 64.8827 80.2023 63.5653 80.677 62.5845C81.1516 61.5979 81.7753 61.1045 82.548 61.1045C83.2519 61.1045 83.9 61.6112 84.492 62.6245L84.493 56.0029ZM84.493 66.4669C84.493 64.7859 84.1676 63.9453 83.517 63.9453C82.845 63.9453 82.509 64.8389 82.509 66.6261C82.509 67.4197 82.597 68.0333 82.773 68.4669C82.9543 68.8936 83.205 69.1069 83.525 69.1069C83.8236 69.1069 84.0583 68.8768 84.229 68.4165C84.3996 67.9568 84.485 67.3067 84.485 66.4661L84.493 66.4669ZM93.09 56.0029H95.657V71.6581H93.074V70.3173H93.042C92.466 71.4443 91.818 72.0077 91.098 72.0077C90.3413 72.0077 89.7283 71.5109 89.259 70.5173C88.795 69.5237 88.563 68.1968 88.563 66.5365C88.563 64.8827 88.8003 63.5653 89.275 62.5845C89.7496 61.6037 90.3733 61.1104 91.146 61.1045C91.85 61.1045 92.498 61.6112 93.09 62.6245V56.0029ZM93.09 66.4669C93.09 64.7859 92.7646 63.9453 92.114 63.9453C91.442 63.9453 91.106 64.8389 91.106 66.6261C91.106 67.4197 91.194 68.0333 91.37 68.4669C91.5513 68.8936 91.802 69.1069 92.122 69.1069C92.4206 69.1069 92.6553 68.8768 92.826 68.4165C92.9966 67.9563 93.082 67.3061 93.082 66.4661L93.09 66.4669ZM101.455 68.5373H103.63C103.215 70.8307 102.178 71.9773 100.52 71.9773C99.4853 71.9773 98.664 71.484 98.056 70.4973C97.4533 69.5107 97.152 68.1504 97.152 66.4165C97.152 64.8027 97.4533 63.5088 98.056 62.5349C98.6586 61.5547 99.461 61.0645 100.463 61.0645C101.066 61.0645 101.647 61.3013 102.207 61.7749C102.762 62.2416 103.167 62.8651 103.422 63.6453C103.678 64.4256 103.819 65.6528 103.846 67.3269H99.536C99.5733 68.8469 99.9116 69.6069 100.551 69.6069C100.77 69.6069 100.964 69.5069 101.135 69.3069C101.306 69.1069 101.41 68.8469 101.447 68.5269L101.455 68.5373ZM99.584 65.5853H101.455C101.439 64.8653 101.359 64.3355 101.215 63.9957C101.071 63.6491 100.847 63.4757 100.543 63.4757C100.202 63.4757 99.9566 63.6424 99.808 63.9757C99.6593 64.3091 99.5846 64.8459 99.584 65.5861V65.5853ZM109.436 56.0029H112.004V71.6581H109.42V70.3173H109.388C108.813 71.4443 108.165 72.0077 107.445 72.0077C106.688 72.0077 106.074 71.5109 105.605 70.5173C105.142 69.5237 104.91 68.1968 104.91 66.5365C104.91 64.8827 105.147 63.5653 105.622 62.5845C106.097 61.6037 106.72 61.1104 107.493 61.1045C108.197 61.1045 108.845 61.6112 109.436 62.6245V56.0029ZM109.436 66.4669C109.436 64.7859 109.111 63.9453 108.461 63.9453C107.789 63.9453 107.453 64.8389 107.453 66.6261C107.453 67.4197 107.541 68.0333 107.717 68.4669C107.898 68.8936 108.149 69.1069 108.469 69.1069C108.768 69.1069 109.002 68.8768 109.173 68.4165C109.343 67.9568 109.428 67.3067 109.428 66.4661L109.436 66.4669Z" fill="white"/>
<path d="M23 26C24.6569 26 26 24.6569 26 23C26 21.3431 24.6569 20 23 20C21.3431 20 20 21.3431 20 23C20 24.6569 21.3431 26 23 26Z" fill="white"/>
</svg>
