<svg width="128" height="128" viewBox="0 0 128 128" fill="none" xmlns="http://www.w3.org/2000/svg">
<path d="M25.6 0C24.71 0 24 0.89 24 2V13.2H17.75C15.67 13.2 14 14.54 14 16.2V24H2C0.89 24 0 24.71 0 25.6V30.4C0 31.29 0.89 32 2 32H14V42H2C0.89 42 0 42.71 0 43.6V48.4C0 49.29 0.89 50 2 50H14V60H2C0.89 60 0 60.71 0 61.6V66.4C0 67.29 0.89 68 2 68H14V78H2C0.89 78 0 78.71 0 79.6V84.4C0 85.29 0.89 86 2 86H14V96H2C0.89 96 0 96.71 0 97.6V102.4C0 103.29 0.89 104 2 104H14V111C14 112.66 15.67 114 17.75 114H24V126C24 127.11 24.71 128 25.6 128H30.4C31.29 128 32 127.11 32 126V114H42V126C42 127.11 42.71 128 43.6 128H48.4C49.29 128 50 127.11 50 126V114H60V126C60 127.11 60.71 128 61.6 128H66.4C67.29 128 68 127.11 68 126V114H78V126C78 127.11 78.71 128 79.6 128H84.4C85.29 128 86 127.11 86 126V114H96V126C96 127.11 96.71 128 97.6 128H102.4C103.29 128 104 127.11 104 126V114H110.25C112.33 114 114 112.66 114 111V104H126C127.11 104 128 103.29 128 102.4V97.6C128 96.71 127.11 96 126 96H114V86H126C127.11 86 128 85.29 128 84.4V79.6C128 78.71 127.11 78 126 78H114V68H126C127.11 68 128 67.29 128 66.4V61.6C128 60.71 127.11 60 126 60H114V50H126C127.11 50 128 49.29 128 48.4V43.6C128 42.71 127.11 42 126 42H114V32H126C127.11 32 128 31.29 128 30.4V25.6C128 24.71 127.11 24 126 24H114V16.2C114 14.54 112.33 13.2 110.25 13.2H104V2C104 0.89 103.29 0 102.4 0H97.6C96.71 0 96 0.89 96 2V13.2H86V2C86 0.89 85.29 0 84.4 0H79.6C78.71 0 78 0.89 78 2V13.2H68V2C68 0.89 67.29 0 66.4 0H61.6C60.71 0 60 0.89 60 2V13.2H50V2C50 0.89 49.29 0 48.4 0H43.6C42.71 0 42 0.89 42 2V13.2H32V2C32 0.89 31.29 0 30.4 0H25.6ZM23 20C23.7956 20 24.5587 20.3161 25.1213 20.8787C25.6839 21.4413 26 22.2044 26 23C26 23.7956 25.6839 24.5587 25.1213 25.1213C24.5587 25.6839 23.7956 26 23 26C22.2044 26 21.4413 25.6839 20.8787 25.1213C20.3161 24.5587 20 23.7956 20 23C20 22.2044 20.3161 21.4413 20.8787 20.8787C21.4413 20.3161 22.2044 20 23 20ZM64 24.5C78.7 24.5 91.5 32.6 98.3 44.5L85.3 52C81.1 44.5 73.1 39.5 64 39.5C50.5 39.5 39.5 50.5 39.5 64C39.5 77.5 50.5 88.5 64 88.5C73.1 88.5 81.1 83.5 85.3 76.1L98.2 83.7C91.4 95.5 78.6 103.5 64 103.5C42.2 103.5 24.5 85.8 24.5 64C24.5 42.2 42.2 24.5 64 24.5ZM64.04 56H66.62V62.67H66.66C66.97 62.13 67.27 61.73 67.54 61.48C67.82 61.23 68.17 61.1 68.6 61.1C69.32 61.1 69.93 61.57 70.41 62.52C70.9 63.46 71.14 64.81 71.14 66.58C71.14 68.21 70.91 69.52 70.44 70.51C69.98 71.5 69.38 72 68.64 72C67.87 72 67.21 71.45 66.66 70.33H66.62V71.65H64.04V56ZM84.49 56H87.06V71.66H84.47V70.31H84.43C83.86 71.44 83.21 72 82.48 72C81.72 72 81.11 71.5 80.64 70.51C80.18 69.52 79.95 68.19 79.95 66.53C79.95 64.88 80.19 63.56 80.66 62.57C81.13 61.58 81.76 61.09 82.53 61.09C83.23 61.09 83.88 61.6 84.48 62.61L84.49 56ZM93.09 56H95.66V71.66H93.08V70.31H93.04C92.47 71.44 91.82 72 91.09 72C90.33 72 89.72 71.5 89.25 70.51C88.79 69.52 88.56 68.19 88.56 66.53C88.56 64.88 88.8 63.56 89.27 62.57C89.74 61.58 90.37 61.09 91.15 61.09C91.85 61.09 92.5 61.6 93.1 62.61L93.09 56ZM109.44 56H112.01V71.66H109.42V70.31H109.38C108.81 71.44 108.16 72 107.43 72C106.67 72 106.06 71.5 105.59 70.51C105.13 69.52 104.9 68.19 104.9 66.53C104.9 64.88 105.14 63.56 105.61 62.57C106.08 61.58 106.71 61.09 107.49 61.09C108.19 61.09 108.84 61.6 109.44 62.61V56ZM44.01 56.82H49.46V59.98H46.71V62.71H49.1V65.79H46.71V68.49H49.48V71.66H44.02L44.01 56.82ZM56.15 61.08C57.06 61.08 57.65 61.67 57.92 62.85C58.33 62.24 58.72 61.79 59.07 61.51C59.43 61.23 59.85 61.09 60.33 61.09C61.53 61.09 62.13 62.14 62.13 64.24V71.66H59.55V65.63C59.55 64.64 59.3 64.15 58.79 64.15C58.27 64.15 58.01 64.63 58.01 65.61V71.67H55.43V65.46C55.43 65.08 55.36 64.77 55.22 64.53C55.08 64.29 54.91 64.16 54.69 64.16C54.46 64.16 54.27 64.28 54.13 64.52C53.99 64.76 53.93 65.08 53.93 65.49V71.68H51.35V61.46H53.93V62.72C54.66 61.65 55.41 61.11 56.17 61.11L56.15 61.08ZM75.54 61.08C76.14 61.08 76.73 61.32 77.28 61.79C77.84 62.26 78.24 62.88 78.5 63.66C78.76 64.44 78.9 65.66 78.93 67.34H74.62C74.66 68.86 74.99 69.62 75.63 69.62C75.85 69.62 76.04 69.52 76.22 69.32C76.39 69.12 76.5 68.86 76.53 68.54H78.71C78.3 70.84 77.26 71.99 75.6 71.99C74.56 71.99 73.74 71.5 73.14 70.51C72.54 69.52 72.23 68.17 72.23 66.43C72.23 64.82 72.53 63.52 73.14 62.55C73.74 61.57 74.55 61.08 75.55 61.08H75.54ZM100.49 61.08C101.09 61.08 101.67 61.32 102.23 61.79C102.79 62.26 103.19 62.88 103.45 63.66C103.7 64.44 103.85 65.66 103.88 67.34H99.57C99.61 68.86 99.94 69.62 100.58 69.62C100.8 69.62 100.99 69.52 101.17 69.32C101.35 69.12 101.45 68.86 101.48 68.54H103.66C103.25 70.84 102.21 71.99 100.55 71.99C99.51 71.99 98.69 71.5 98.09 70.51C97.49 69.52 97.18 68.17 97.18 66.43C97.18 64.82 97.48 63.52 98.09 62.55C98.69 61.57 99.5 61.08 100.5 61.08H100.49ZM75.62 63.47C75.28 63.47 75.03 63.64 74.88 63.97C74.73 64.3 74.66 64.84 74.66 65.58H76.53C76.51 64.86 76.43 64.33 76.29 63.99C76.15 63.64 75.92 63.47 75.62 63.47ZM100.56 63.47C100.22 63.47 99.97 63.64 99.82 63.97C99.67 64.3 99.6 64.84 99.6 65.58H101.47C101.45 64.86 101.37 64.33 101.23 63.99C101.09 63.64 100.86 63.47 100.55 63.47H100.56ZM67.57 63.95C66.95 63.95 66.64 64.77 66.64 66.41C66.64 67.35 66.72 68.04 66.88 68.48C67.05 68.91 67.31 69.12 67.66 69.12C68.29 69.12 68.61 68.25 68.61 66.5C68.61 64.8 68.26 63.96 67.57 63.96V63.95ZM83.53 63.95C82.86 63.95 82.53 64.84 82.53 66.63C82.53 67.42 82.62 68.04 82.8 68.47C82.98 68.9 83.23 69.11 83.55 69.11C83.85 69.11 84.08 68.88 84.25 68.42C84.42 67.96 84.51 67.31 84.51 66.46C84.51 64.78 84.18 63.94 83.53 63.94V63.95ZM92.13 63.95C91.46 63.95 91.13 64.84 91.13 66.63C91.13 67.42 91.22 68.04 91.4 68.47C91.58 68.9 91.84 69.11 92.16 69.11C92.46 69.11 92.69 68.88 92.86 68.42C93.03 67.96 93.12 67.31 93.12 66.46C93.12 64.78 92.79 63.94 92.14 63.94L92.13 63.95ZM108.47 63.95C107.8 63.95 107.47 64.84 107.47 66.63C107.47 67.42 107.56 68.04 107.74 68.47C107.92 68.9 108.17 69.11 108.49 69.11C108.79 69.11 109.02 68.88 109.19 68.42C109.36 67.96 109.45 67.31 109.45 66.46C109.45 64.78 109.12 63.94 108.47 63.94V63.95Z" fill="black"/>
</svg>
