<svg width="128" height="128" viewBox="0 0 128 128" fill="none" xmlns="http://www.w3.org/2000/svg">
<path d="M20.7 103.9C11 93.4996 5.2 79.1996 5.3 62.0996C5.2 46.9996 10 33.9996 18.2 24.0996H1V103.8L20.7 103.9ZM111.1 103.9C115.3 99.3996 119.1 94.0996 122.5 87.9996L103.5 78.4996C96.8 89.2996 87.1 99.2996 73.6 99.3996C54 99.2996 46.3 82.4996 46.3 60.8996H119.6C119.7 58.4996 119.7 57.2996 119.6 56.1996C120.1 43.2996 116.7 32.4996 110.5 24.0996H127V103.8L111.1 103.9ZM47.5 42.3996C48.3 32.5996 56 26.0996 65.1 25.9996C74.2 25.9996 80.8 32.5996 81 42.3996H47.5Z" fill="#A90533"/>
</svg>
