<svg width="128" height="128" viewBox="0 0 128 128" fill="none" xmlns="http://www.w3.org/2000/svg">
<path d="M18.2 8.90039L1 9.00039V89.0004H20.7V88.8004C11 78.4004 5.2 64.0004 5.3 47.0004C5.2 31.8004 10 18.8004 18.2 8.90039ZM110.6 9.00039C116.8 17.0004 120.2 28.3004 119.7 41.1004C119.8 42.3004 119.8 43.0004 119.7 46.0004H46.3C46.3 67.0004 54 84.2004 73.6 84.3004C87.1 84.2004 96.8 74.2004 103.5 63.3004L122.5 73.0004C119.1 79.0004 115.3 84.0004 111.1 89.0004H127V9.00039H110.6ZM65.1 10.6004C56.1 10.6004 48.3 17.0004 47.5 27.0004H81C80.7 17.0004 74.2 10.6004 65.1 10.6004ZM1 118H11V115H5V110H11V107H5V102H11V99.0004H1V118ZM32.8 104.8C32.7 100.6 30 99.0004 26.2 99.0004H21V118H25V110.6L29.5 118H34.2L28.7 110C31.3 109.6 32.7 107.4 32.8 104.8ZM25.2 108H25V102H25.2C27.3 102 28.8 102.6 28.8 105.1C28.8 107.4 27.3 108 25.2 108ZM46 99.0004H42V118H52V115H46V99.0004ZM66.3 98.0004L58.5 118H62.5L64.2 114H71L72.7 118H76.7L69.3 98.0004H66.3ZM65.3 111L67.4 103.6L70 111H65.3ZM97 112.1L86.7 98.0004H84V118H88V105.2L98.3 119H101V99.0004H97V112.1ZM118 108V111H122C121.9 114 119.9 115.6 117.5 115.6C113.7 115.7 111.9 112.1 111.8 108.7C111.8 105.4 113.7 101.6 117.5 101.6C119.5 101.7 121.2 103 122 104.7L125.3 103C123.8 99.9004 120.9 98.2004 117.5 98.3004C111.6 98.3004 107.8 103.1 107.8 108.7C107.9 114.2 111.4 119.1 117.1 119.1C123.3 119 126 114.1 126 108.4V108H117.8H118Z" fill="#A90533"/>
</svg>
