<svg width="128" height="128" viewBox="0 0 128 128" fill="none" xmlns="http://www.w3.org/2000/svg">
<path d="M20.7 88.5998C11 78.1998 5.2 63.8998 5.3 46.7998C5.3 31.6998 10 18.6998 18.2 8.7998H1V88.4998L20.7 88.5998ZM111.1 88.5998C115.3 84.0998 119.1 78.7998 122.5 72.6998L103.5 63.1998C96.8 73.9998 87.1 83.9998 73.6 84.0998C54 83.9998 46.3 67.1998 46.3 45.5998H119.6C119.7 43.1998 119.7 41.9998 119.6 40.8998C120.1 27.9998 116.7 17.1998 110.5 8.7998H127V88.4998L111.1 88.5998ZM47.5 27.0998C48.3 17.2998 56 10.6998 65.1 10.6998C74.2 10.6998 80.8 17.2998 81 27.0998H47.5Z" fill="#A90533"/>
<path d="M11.4002 102.1V98.8002H1.2002V118.5H11.4002V115.2H5.0002V109.9H11.2002V106.6H5.0002V102.1H11.4002ZM28.8002 110.2C31.3002 109.8 32.7002 107.3 32.8002 104.7C32.7002 100.5 30.0002 98.8002 26.2002 98.8002H21.0002V118.5H24.8002V110.7L29.5002 118.5H34.2002L28.8002 110.2ZM24.7002 101.9H25.2002C27.3002 102 28.8002 102.5 28.8002 105C28.9002 107.3 27.4002 108 25.2002 107.8H24.7002V101.9ZM46.1002 98.8002H42.3002V118.5H51.5002V115.2H46.1002V98.8002ZM71.0002 114.4L72.7002 118.4H76.7002L69.3002 98.2002H66.2002L58.4002 118.4H62.4002L64.1002 114.4H71.0002ZM70.1002 111.4H65.4002L67.5002 104L70.1002 111.4ZM83.8002 118.5H87.9002V105.2L98.3002 119H101.1V98.8002H97.1002V112.1L86.7002 98.3002H83.8002V118.5ZM117.8 108V111.1H122.1C122 113.6 120 115.7 117.6 115.6C113.8 115.7 112 112 111.9 108.7C111.9 105.4 113.8 101.6 117.6 101.6C119.6 101.7 121.3 103 122.1 104.7L125.4 103C123.9 99.9002 121 98.2002 117.6 98.3002C111.7 98.3002 107.9 103.1 107.9 108.7C108 114.2 111.6 119.1 117.4 119.1C123.6 119 126.5 114.1 126.4 108.4V108H117.8Z" fill="black"/>
</svg>
