<svg width="128" height="128" viewBox="0 0 128 128" fill="none" xmlns="http://www.w3.org/2000/svg">
<path d="M39.5 49.2L63 35.6C63.6 35.3 64.3 35.3 64.9 35.6L88.5 49.2C89.1 49.5 89.5 50.2 89.5 50.8V78C89.5 78.7 89.1 79.3 88.5 79.7L65 93.3C64.4 93.6 63.7 93.6 63.1 93.3L39.5 79.7C38.9 79.4 38.5 78.7 38.5 78V50.8C38.5 50.2 38.9 49.5 39.5 49.2Z" fill="#8080F2"/>
<path d="M125.2 61.6L97.0998 12.6C96.0998 10.8 94.1998 9.5 92.0998 9.5H35.8998C33.8998 9.5 31.9998 10.8 30.8998 12.6L2.7998 61.5C1.7998 63.3 1.7998 65.5 2.7998 67.3L30.8998 115.9C31.8998 117.7 33.7998 118.6 35.8998 118.6H92.1998C94.1998 118.6 96.0998 117.7 97.1998 116L125.3 67.4C126.3 65.4 126.3 63.3 125.2 61.6ZM101.9 85.1C101.9 85.8 101.5 86.5 100.8 86.8L64.9998 107.5C64.3998 107.9 63.5998 107.9 62.9998 107.5L27.0998 86.9C26.4998 86.5 25.9998 85.9 25.9998 85.2V43.7C25.9998 43 26.3998 42.3 27.0998 42L62.9998 21.3C63.5998 20.9 64.3998 20.9 64.9998 21.3L100.9 42C101.5 42.4 102 43 102 43.7V85.1H101.9Z" fill="#4B32C3"/>
</svg>
