<svg width="128" height="128" viewBox="0 0 128 128" fill="none" xmlns="http://www.w3.org/2000/svg">
<path d="M116.42 5.07031H11.5801C9.85617 5.07031 8.20287 5.75513 6.98388 6.97412C5.7649 8.1931 5.08008 9.84641 5.08008 11.5703V116.42C5.08008 118.144 5.7649 119.798 6.98388 121.017C8.20287 122.235 9.85617 122.92 11.5801 122.92H68.0001V77.2903H52.6601V59.5003H68.0001V46.3803C68.0001 31.1603 77.3001 22.8703 90.8801 22.8703C95.4627 22.854 100.043 23.0877 104.6 23.5703V39.4803H95.2101C87.8201 39.4803 86.3901 42.9903 86.3901 48.1403V59.5003H104L101.71 77.2903H86.3901V122.93H116.39C118.113 122.928 119.765 122.242 120.983 121.024C122.202 119.805 122.887 118.153 122.89 116.43V11.5803C122.893 9.85986 122.213 8.20852 121 6.98823C119.788 5.76795 118.141 5.07825 116.42 5.07031Z" fill="#3D5A98"/>
</svg>
