<svg width="128" height="128" viewBox="0 0 128 128" fill="none" xmlns="http://www.w3.org/2000/svg">
<path d="M14.0629 74.8001C11.7499 74.4881 9.37895 73.2661 7.71495 71.5271C6.50795 70.2731 5.76495 69.0701 5.19895 67.4651C4.80495 66.3441 4.77295 66.0851 4.77295 63.9851C4.77295 61.8831 4.80495 61.6211 5.19895 60.5001C7.19095 54.8121 13.3519 51.7501 19.0039 53.6331C22.4259 54.7701 25.195 57.7621 26.1329 61.3321C26.4769 62.6411 26.4799 65.1521 26.1409 66.5551C24.8399 71.9151 19.5349 75.5351 14.0629 74.8011V74.8001ZM17.6799 67.4651C19.117 64.5901 20.2929 62.1721 20.2929 62.0901C20.2929 61.9961 19.5819 61.9371 18.4769 61.9371H16.6599V58.5821C16.6599 56.7341 16.6099 55.2731 16.5499 55.3321C16.3239 55.5591 11.1099 65.8051 11.1679 65.9141C11.1989 65.9771 12.0389 66.0271 13.0309 66.0271H14.8399V69.3591C14.8399 71.1911 14.8899 72.6911 14.9569 72.6911C15.0199 72.6911 16.247 70.3401 17.6799 67.4651ZM50.844 73.4451C50.051 73.2421 48.902 72.6371 48.504 72.2111C47.496 71.1291 47.172 68.7271 47.8479 67.3321C48.438 66.1051 49.77 65.2891 51.707 64.9571C52.695 64.7851 54.594 64.8361 55.617 65.0631C56.027 65.1531 56.0309 65.1411 56.0309 64.4181C56.0309 62.8711 55.511 61.8441 54.469 61.3011C53.934 61.0231 53.6089 60.9771 52.3989 60.9961C51.6049 61.0121 50.57 61.1171 50.094 61.2301L49.2299 61.4411L49.1329 60.7421C48.945 59.4101 48.9259 59.4651 49.7459 59.2421C50.1639 59.1291 51.3279 59.0001 52.332 58.9531C53.789 58.8871 54.336 58.9221 55.047 59.1291C56.84 59.6521 57.8709 60.7691 58.257 62.6131C58.387 63.2381 58.4489 65.0431 58.4529 68.3161L58.457 73.1091L57.2809 73.2891C55.7269 73.5271 51.563 73.6291 50.844 73.4451ZM55.3279 71.5351L56.0309 71.4381V69.2701C56.0309 67.7661 55.977 67.0701 55.851 66.9961C55.754 66.9341 54.984 66.8521 54.137 66.8161C52.172 66.7261 51.125 67.0001 50.445 67.7731C50.039 68.2341 49.977 68.4261 49.977 69.1451C49.977 70.5001 50.347 70.9881 51.715 71.4181C52.379 71.6281 54.2189 71.6881 55.3279 71.5351ZM62.945 73.3011C62.3709 73.1481 61.8479 72.9651 61.7809 72.8951C61.6679 72.7771 61.9729 71.0901 62.137 70.9251C62.176 70.8871 62.6409 71.0121 63.1679 71.1951C64.457 71.6481 67.3479 71.7031 68.1019 71.2891C68.7499 70.9371 69.0549 70.4611 69.0549 69.8161C69.0549 68.6911 68.223 68.0231 65.344 66.8521C62.746 65.7931 61.9179 64.8441 61.9179 62.9301C61.9179 61.0431 62.914 59.7811 64.859 59.1881C65.754 58.9181 66.16 58.8831 67.523 58.9531C69.363 59.0471 70.7229 59.3241 70.7229 59.6091C70.7229 59.8161 70.4059 61.3831 70.3519 61.4451C70.3319 61.4691 69.785 61.3481 69.132 61.1801C67.7299 60.8241 66.7929 60.7971 65.805 61.0981C64.735 61.4181 64.359 61.8361 64.359 62.7111C64.359 63.9141 64.844 64.2931 68.012 65.5741C70.332 66.5081 71.215 67.3641 71.4689 68.9221C71.8359 71.1681 70.742 72.7621 68.414 73.3821C67.238 73.6951 64.242 73.6521 62.945 73.3011ZM77.535 73.3671C76.5779 73.0701 75.809 72.3751 75.313 71.3631L74.8869 70.4961V55.2071L75.5669 55.0941C75.9594 55.032 76.3511 54.9653 76.7419 54.8941L77.2339 54.8091V59.2111H82.535V61.1801H77.2199L77.2669 65.4601C77.3059 69.4301 77.3329 69.7811 77.6219 70.3281C77.7939 70.6601 78.1619 71.0431 78.4499 71.1991C79.1499 71.5741 80.7629 71.5741 81.8329 71.1951L82.6379 70.9151L82.8679 71.8831C83.0869 72.7931 83.087 72.8591 82.8289 72.9961C81.7509 73.5741 78.8559 73.7771 77.5359 73.3671H77.535ZM35.285 63.9071V54.5201H46.645V56.6371H37.852L37.895 59.5551L37.9339 62.4691L41.8359 62.5081L45.734 62.5511V64.6641H37.86V73.2971H35.2859L35.285 63.9071ZM84.0469 73.2191C84.0469 73.0471 86.8319 65.5941 87.8669 63.0001C88.6183 61.1317 89.4011 59.2761 90.2149 57.4341L91.5119 54.5201H92.7579C93.8159 54.5201 94.0199 54.5591 94.0899 54.7811C94.1329 54.9301 94.6759 56.1711 95.2969 57.5471C96.6519 60.5631 98.2659 64.5901 100.097 69.5231C100.847 71.5431 101.465 73.2231 101.465 73.2501C101.465 73.2811 100.84 73.2901 100.075 73.2661L98.6839 73.2191L97.8399 70.8751L96.9919 68.5271L92.6799 68.4841L88.3629 68.4451L87.5119 70.8321L86.6639 73.2191L85.3549 73.2661C84.6369 73.2891 84.0469 73.2701 84.0469 73.2191ZM96.1639 66.2891C96.1639 65.8011 92.8709 57.5471 92.6759 57.5471C92.4299 57.5471 89.1959 65.6521 89.1959 66.2661C89.1959 66.4461 89.7769 66.4801 92.6799 66.4801C95.3869 66.4801 96.1639 66.4371 96.1639 66.2901V66.2891ZM104.191 64.0001V54.7031L104.684 54.6051C105.746 54.3981 110.848 54.3251 111.797 54.5081C113.965 54.9141 115.617 55.7971 116.426 56.9731C117.856 59.0551 117.621 62.5781 115.941 64.2621C114.641 65.5621 112.594 66.1641 109.074 66.2931L106.766 66.3751V73.2971H104.191V64.0001ZM112.086 63.7621C113.895 63.1951 114.664 62.1561 114.664 60.2771C114.664 57.6871 112.855 56.4921 108.941 56.4881C108.266 56.4881 107.496 56.5281 107.238 56.5821L106.766 56.6761V64.2541L108.976 64.1441C110.43 64.0741 111.5 63.9411 112.086 63.7621ZM120.848 63.9061V54.5201H123.422V73.2971H120.848V63.9061Z" fill="#049688"/>
</svg>
