<svg width="128" height="128" viewBox="0 0 128 128" fill="none" xmlns="http://www.w3.org/2000/svg">
<path fill-rule="evenodd" clip-rule="evenodd" d="M109.193 53.7022C108.589 53.7779 107.872 53.8891 107.6 53.9488L107.105 54.0575L107.147 64.1236L107.189 74.1896L108.614 74.2368L110.039 74.2838L110.083 70.4826L110.127 66.6812L112.983 66.5779C115.873 66.4732 117.212 66.217 118.599 65.503C120.228 64.6648 121.399 62.7756 121.573 60.702C121.858 57.323 120.072 54.9536 116.482 53.9493C115.353 53.6331 110.933 53.4833 109.193 53.7022ZM33.002 63.9879V74.2712H34.471H35.94V69.5377V64.8041H40.1023H44.2646V63.5799V62.3557H40.1023H35.94V59.3384V56.3213L40.6328 56.2779L45.3256 56.2346L45.3733 54.9696L45.4209 53.7046H39.2114H33.002V63.9879ZM92.9211 55.18C91.1574 58.9759 89.1402 63.9494 86.8856 70.061C86.0673 72.2789 85.3979 74.1363 85.3979 74.1885C85.3979 74.2407 86.0768 74.2624 86.9063 74.2366L88.4148 74.1896L89.3261 71.6596L90.2374 69.1296H94.8574H99.4776L100.393 71.7004L101.309 74.2712H102.902C103.779 74.2712 104.496 74.2417 104.496 74.2056C104.496 74.0421 100.951 64.6612 99.9968 62.2985C99.411 60.8487 98.3369 58.3218 97.6098 56.6835L96.2878 53.7046H94.9472H93.6066L92.9211 55.18ZM125.062 63.9879V74.2712H126.531H128V63.9879V53.7046H126.531H125.062V63.9879ZM76.2897 54.4034L75.4244 54.5694L75.482 62.6656C75.5445 71.4138 75.54 71.3671 76.4656 72.7459C77.5761 74.3997 80.1185 75.0066 82.9436 74.2921C83.7015 74.1005 84.3911 73.8743 84.4758 73.7896C84.6476 73.6178 84.3005 71.7068 84.072 71.5656C83.9969 71.5192 83.5859 71.5999 83.1586 71.745C82.7313 71.8901 81.8585 72.0107 81.2191 72.0133C79.7024 72.0192 79.1171 71.7216 78.6542 70.7095C78.3308 70.0024 78.3003 69.6219 78.2446 65.5794L78.1846 61.2131H81.1455H84.1065L84.0585 60.0297L84.0105 58.8463L81.1132 58.8017L78.2159 58.7571V56.4757V54.1943L77.6854 54.2157C77.3936 54.2276 76.7655 54.312 76.2897 54.4034ZM116.206 56.6322C118.09 57.4601 118.912 59.2467 118.353 61.2947C117.803 63.3066 115.875 64.1471 111.8 64.1498L110.045 64.1512V60.133V56.1147L112.698 56.1855C115.016 56.2472 115.458 56.3035 116.206 56.6322ZM95.3394 58.2343C96.2321 60.3667 98.4561 66.1812 98.4561 66.3825C98.4561 66.5565 97.7441 66.5996 94.8651 66.5996C91.7928 66.5996 91.2741 66.5645 91.2741 66.3563C91.2741 65.7931 94.6325 57.2953 94.855 57.2958C94.9054 57.2959 95.1235 57.7184 95.3394 58.2343ZM49.5594 58.6662C47.5328 59.0534 47.6405 58.9602 47.7729 60.2094C47.8361 60.8063 47.9177 61.3255 47.9541 61.3634C47.9905 61.4011 48.4055 61.3422 48.8765 61.2322C50.195 60.9245 52.2577 60.8243 53.0167 61.0311C54.4353 61.4174 55.1909 62.5202 55.1973 64.2129L55.2009 65.1723L54.5888 65.0784C52.862 64.8139 51.9316 64.7995 50.7121 65.0187C48.5632 65.4049 47.1451 66.27 46.4465 67.621C46.0905 68.3094 45.9666 70.1362 46.2103 71.1038C46.8557 73.6673 49.0789 74.7462 53.2421 74.5171C54.3643 74.4552 55.8701 74.3196 56.5883 74.2156L57.8941 74.0264V68.0686V62.1108L57.4937 61.303C56.9464 60.1994 56.009 59.3366 54.9028 58.9184C53.7246 58.4731 51.1954 58.3538 49.5594 58.6662ZM65.1953 58.6798C62.7999 59.3567 61.5675 60.8011 61.572 62.9269C61.5762 65.0034 62.5678 66.0753 65.7023 67.3915C66.8253 67.8633 68.0364 68.4607 68.3935 68.7194C69.5902 69.5863 69.6636 71.07 68.5434 71.7476C68.0926 72.0202 67.7119 72.0677 65.9739 72.0677C64.2402 72.0677 63.7781 72.0104 62.8998 71.6867C62.3313 71.4771 61.8486 71.3302 61.8272 71.3602C61.7448 71.4758 61.4035 73.1693 61.4035 73.4629C61.4035 73.7039 61.665 73.8544 62.5869 74.1441C64.1712 74.6421 67.686 74.6816 69.0652 74.2171C71.165 73.5098 72.1765 72.2005 72.1765 70.1906C72.1765 68.0709 71.2095 66.9022 68.5424 65.7983C65.785 64.657 65.3428 64.4366 64.9158 63.991C64.2699 63.3167 64.1903 62.3974 64.7229 61.7643C64.9514 61.4927 65.4267 61.1842 65.7791 61.0786C66.7596 60.7848 68.5813 60.8435 69.7474 61.2065C70.3126 61.3823 70.8025 61.499 70.8358 61.4656C70.9396 61.3618 71.3958 59.2354 71.3287 59.1681C71.2938 59.1332 70.8274 58.9901 70.2925 58.8502C68.8418 58.4704 66.2435 58.3837 65.1953 58.6798ZM54.8336 67.3623C55.1925 67.4492 55.2009 67.5024 55.2009 69.7154V71.9799L54.7946 72.0819C54.5711 72.1379 53.5245 72.155 52.4686 72.1196C49.6536 72.0256 48.922 71.5228 48.922 69.6816C48.922 68.6531 49.253 68.1238 50.2066 67.6279C51.1336 67.1459 53.3987 67.0158 54.8336 67.3623Z" fill="#009688"/>
<g clip-path="url(#clip0_28_17)">
<path d="M11.6708 75.6706C18.1163 75.6706 23.3415 70.4454 23.3415 63.9999C23.3415 57.5543 18.1163 52.3291 11.6708 52.3291C5.22517 52.3291 0 57.5543 0 63.9999C0 70.4454 5.22517 75.6706 11.6708 75.6706Z" fill="#05998B"/>
<path d="M12.3337 55.1582L6.46045 65.768H11.7464L11.1591 72.8411L17.0323 62.2313H11.7464L12.3337 55.1582Z" fill="white"/>
</g>
<defs>
<clipPath id="clip0_28_17">
<rect width="23.3415" height="23.3415" fill="white" transform="translate(0 52.3291)"/>
</clipPath>
</defs>
</svg>
