<svg width="129" height="130" viewBox="0 0 129 130" fill="none" xmlns="http://www.w3.org/2000/svg">
<path d="M56.813 128.586C54.91 128.359 52.914 128.066 52.379 127.934C51.5917 127.747 50.7998 127.58 50.004 127.434C49.0952 127.257 48.1935 127.046 47.301 126.801C43.156 125.613 42.859 125.516 39.734 124.238C36.859 123.066 31.562 120.328 29.75 119.082C29.254 118.738 28.79 118.461 28.719 118.461C28.649 118.461 27.489 117.645 26.141 116.648C17.571 110.305 11.137 102.605 6.488 93.1207C5.688 91.4917 5.035 90.0467 5.035 89.9107C5.035 89.7767 4.891 89.4057 4.715 89.0937C4.352 88.4447 3.835 87.0467 3.418 85.6017C3.23871 84.9877 3.03014 84.3827 2.793 83.7887C2.598 83.3287 2.441 82.7687 2.441 82.5427C2.441 82.3157 2.246 81.5777 2.008 80.8977C1.77 80.2227 1.578 79.4257 1.578 79.1277C1.578 78.8317 1.391 77.8077 1.16 76.8517C0.598 74.4917 0 68.3787 0 64.9527C0 61.5307 0.598 55.4177 1.16 53.0587C1.39 52.1017 1.578 51.0587 1.578 50.7387C1.578 50.4177 1.723 49.7887 1.898 49.3387C2.078 48.8907 2.308 48.0857 2.414 47.5507C2.524 47.0157 2.774 46.0937 2.977 45.4957L3.567 43.7697C4 42.4767 4.402 41.3827 4.594 40.9567C4.704 40.7187 5.133 39.7467 5.551 38.7967C6.227 37.2617 7.676 34.3667 8.523 32.8517C8.832 32.2967 8.949 32.1127 10.621 29.4997C13.27 25.3517 17.797 20.1907 22.011 16.5117C23.496 15.2147 28.457 11.4487 28.68 11.4487C28.742 11.4487 29.21 11.1677 29.723 10.8237C31.07 9.92166 32.391 9.15566 34.113 8.29266C34.7311 7.98696 35.3433 7.66923 35.949 7.33966C36.234 7.17566 36.769 6.92966 39.516 5.69966C40.121 5.42966 40.773 5.18366 42.652 4.52666C43.066 4.38266 43.898 4.07766 44.492 3.85466C45.09 3.63266 45.793 3.44866 46.055 3.44866C46.313 3.44866 46.992 3.26866 47.563 3.04666C48.133 2.82366 49.168 2.56966 49.867 2.48366C50.563 2.40166 51.488 2.20666 51.922 2.05366C52.352 1.90566 53.532 1.71366 54.543 1.62866C55.8607 1.50962 57.1748 1.35456 58.484 1.16366C61.172 0.769664 67.016 0.769664 69.676 1.16366C70.9324 1.34396 72.1931 1.49234 73.457 1.60866C74.41 1.68766 75.625 1.88666 76.16 2.05066C76.695 2.21066 77.621 2.41066 78.215 2.48366C78.809 2.56266 79.809 2.80866 80.437 3.03466C81.067 3.26466 81.781 3.44866 82.027 3.44866C82.273 3.44866 82.781 3.58566 83.152 3.75766C83.527 3.92566 84.32 4.20666 84.918 4.38266C85.512 4.56266 86.531 4.91766 87.188 5.17966C87.84 5.44066 88.715 5.78466 89.133 5.94066C89.903 6.23066 95.593 9.07766 96.367 9.56266C102.648 13.4797 105.879 16.0387 110.223 20.5267C115.461 25.9407 118.938 31.0967 122.477 38.6867C122.727 39.2227 123.109 40.0157 123.328 40.4447C123.543 40.8787 123.723 41.3867 123.723 41.5747C123.723 41.7647 123.903 42.3347 124.125 42.8437C124.727 44.2267 125.242 45.8007 125.485 47.0037C125.605 47.5937 125.828 48.3237 125.98 48.6247C126.133 48.9247 126.312 49.6877 126.383 50.3127C126.453 50.9367 126.66 51.9607 126.836 52.5817C127.856 56.1127 128.363 66.5157 127.746 71.1167C127.563 72.4837 127.356 74.1367 127.286 74.7887C127.168 75.9057 126.578 78.7927 126.074 80.7337L125.554 82.7887C124.574 86.7457 122.152 92.3827 119.195 97.5977C118.023 99.6677 114.094 105.266 113.352 105.922C113.285 105.98 112.953 106.372 112.617 106.785C112.281 107.203 111.203 108.371 110.227 109.379C105.926 113.82 102.457 116.566 96.367 120.348C95.645 120.797 89.52 123.789 88.375 124.254C87.781 124.492 86.789 124.894 86.172 125.144C85.559 125.391 84.875 125.598 84.66 125.602C84.445 125.605 83.879 125.797 83.402 126.027C82.926 126.257 82.32 126.449 82.051 126.453C81.785 126.457 81.008 126.645 80.324 126.871C79.641 127.101 78.691 127.348 78.214 127.421C77.738 127.496 76.719 127.699 75.945 127.871C75.172 128.043 72.835 128.379 70.758 128.617C66.1248 129.157 61.4438 129.147 56.813 128.586ZM61.516 116.086C61.816 115.852 62.125 115.386 62.207 115.059C62.387 114.336 91.441 56.0887 91.988 55.3587C92.449 54.7417 92.492 53.7537 92.07 53.4057C91.848 53.2187 89.066 53.1597 81.64 53.1717C76.07 53.1837 71.387 53.1877 71.234 53.1837C71.008 53.1757 70.961 49.4537 70.984 33.5117C71 22.6947 70.949 13.7457 70.871 13.6217C70.793 13.4957 70.488 13.3947 70.191 13.3947C69.773 13.3947 69.578 13.5747 69.321 14.2027C68.836 15.3707 67.496 18.0227 60.973 30.6877C59.6181 33.316 58.2664 35.946 56.918 38.5777C55.762 40.8397 53.938 44.3907 52.871 46.4677C49.999 52.0509 47.133 57.6372 44.273 63.2267C39.34 72.8627 38.743 74.0117 38.531 74.2657C38.121 74.7617 37.898 75.9057 38.129 76.3357C38.339 76.7297 38.758 76.7457 49.172 76.7297C55.125 76.7227 60.035 76.7537 60.086 76.7997C60.223 76.9407 60.172 114.11 60.031 114.996C59.938 115.578 60 115.886 60.266 116.152C60.726 116.613 60.852 116.609 61.516 116.086Z" fill="#049688"/>
</svg>
