<svg width="128" height="128" viewBox="0 0 128 128" fill="none" xmlns="http://www.w3.org/2000/svg">
<path d="M64 4.55C96.832 4.55 123.45 31.168 123.45 64C123.45 96.832 96.832 123.45 64 123.45C31.168 123.45 4.55 96.832 4.55 64C4.55 31.168 31.169 4.55 64 4.55ZM64 0C28.71 0 0 28.71 0 64C0 99.29 28.71 128 64 128C99.29 128 128 99.29 128 64C128 28.71 99.29 0 64 0ZM74.414 12.762C69.199 11.812 56.59 30.965 52.418 42.629C52.102 43.512 51.375 46.754 51.375 47.605C51.375 47.605 54.641 54.633 55.547 56.281C54.031 55.492 50.887 49.402 50.887 49.402C49.367 52.297 47.914 65.574 48.387 68.039C48.387 68.039 51.77 73.07 53.082 74.329C51.282 73.727 48.246 69.652 48.246 69.652C47.676 71.406 47.789 75.055 48.055 76.289C50.332 79.605 53.367 79.984 53.367 79.984C53.367 79.984 50.047 113.078 55.074 115.543C58.204 114.879 58.961 78.563 58.961 78.563C58.961 78.563 62.754 78.848 63.605 77.898C65.535 76.574 70.02 62.789 70.085 60.801C70.085 60.801 64.879 61.773 62.34 62.761C64.254 60.859 70.367 59.586 70.367 59.586C72.023 57.594 75.512 44.063 75.863 39.891C75.949 38.844 76.156 37.563 75.996 35.691C75.996 35.691 71.027 36.777 69.988 36.402C71.043 36.285 76.121 34.332 76.121 34.332C77.023 26.227 77.301 13.285 74.414 12.762ZM56.227 98.609C55.828 108.355 55.578 111.109 55.168 113.406C54.977 113.836 54.789 113.906 54.598 113.359C52.859 105.363 52.988 45.141 72.805 17.739C61.277 38.785 56.035 79.172 56.227 98.609Z" fill="#333333"/>
</svg>
