<svg width="128" height="128" viewBox="0 0 128 128" fill="none" xmlns="http://www.w3.org/2000/svg">
<path d="M64.2188 1.26562C29.6048 1.26562 1.56279 29.4336 1.49979 64.2066H1.48779V112.93H1.49979C1.51579 120.816 7.88279 127.203 15.7418 127.203H64.2068C98.8278 127.18 126.863 99.0156 126.863 64.2576C126.863 29.4836 98.8088 1.31562 64.1448 1.31562L64.2188 1.26562ZM76.9568 27.1836C87.4838 27.1836 97.4218 35.2766 97.4218 46.4446C97.4218 47.4796 97.4298 48.5146 97.2578 49.6906C96.9678 52.6606 94.2658 54.7966 91.3198 54.3786C88.3788 53.9526 86.3788 51.1486 86.9258 48.2106C86.9758 47.8746 86.9918 47.3476 86.9918 46.4446C86.9918 40.1126 81.8358 37.6716 76.9608 37.6716C72.0858 37.6716 67.6908 41.7886 67.6838 46.4446C67.7658 51.8316 67.6838 57.1716 67.6838 62.5586L76.7338 62.4886C83.8008 62.3436 83.8828 73.0266 76.8158 72.9766L67.6908 73.0426C67.6678 77.3786 67.7228 76.5926 67.7028 78.7766C67.7028 78.7766 67.7768 84.0736 67.6208 88.0896C66.5268 99.8896 56.5268 109.32 44.5078 109.32C31.7618 109.32 21.2658 98.8626 21.2658 86.0396C21.6478 72.8516 32.1248 62.4726 45.3158 62.5936L52.6758 62.5386V73.0076L45.3158 73.0736H45.2808C38.0308 73.2886 31.8158 78.2336 31.6988 86.0306C31.6946 87.713 32.023 89.3796 32.6651 90.9347C33.3072 92.4897 34.2504 93.9025 35.4404 95.0917C36.6304 96.281 38.0437 97.2233 39.5991 97.8644C41.1546 98.5056 42.8214 98.8329 44.5038 98.8276C51.5898 98.8276 57.2618 93.6476 57.2618 86.0466L57.2498 46.3976C57.2538 45.6596 57.2768 45.0736 57.3598 44.2656C58.5548 34.5656 67.1908 27.1756 76.9688 27.1756L76.9568 27.1836Z" fill="#51A2DA"/>
</svg>
