<svg width="128" height="128" viewBox="0 0 128 128" fill="none" xmlns="http://www.w3.org/2000/svg">
<path d="M127.82 64.0037C127.82 28.7537 99.2462 0.179688 64.0002 0.179688C28.7662 0.179688 0.203176 28.7297 0.180176 63.9567V113.347C0.200176 121.344 6.68418 127.82 14.6882 127.82H64.0232C99.2622 127.805 127.82 99.2417 127.82 64.0037Z" fill="#294172"/>
<path d="M36.9731 68.1201H59.9101V91.0601C59.9101 103.72 49.6371 113.997 36.9731 113.997C24.3131 113.997 14.0391 103.72 14.0391 91.0601C14.0391 78.4001 24.3131 68.1221 36.9731 68.1221V68.1201Z" stroke="#3C6EB4" stroke-width="14.0033"/>
<path d="M82.7378 68.164H59.8008V45.231C59.8008 32.571 70.0778 22.293 82.7378 22.293C95.3978 22.293 105.676 32.567 105.676 45.231C105.676 57.891 95.3978 68.164 82.7378 68.164Z" stroke="#3C6EB4" stroke-width="14.0033"/>
<path d="M66.9262 61.1367V91.0267C66.9262 107.567 53.5162 120.98 36.9762 120.98C34.4652 120.98 32.6802 120.695 30.3592 120.09C26.9692 119.203 24.2032 116.426 24.1992 113.195C24.1992 109.289 27.0352 106.449 31.2732 106.449C33.2892 106.449 34.0202 106.836 36.9772 106.836C45.6952 106.836 52.7702 99.7727 52.7852 91.0507V77.3117C52.7852 76.0817 51.7852 75.0817 50.5512 75.0857L40.1642 75.0817C36.2972 75.0817 33.1682 71.9957 33.1682 68.1167C33.1682 64.2107 36.3282 61.1367 40.2382 61.1367" fill="white"/>
<path d="M52.7852 75.1476V45.2616C52.7852 28.7186 66.1952 15.3086 82.7382 15.3086C85.2462 15.3086 87.0312 15.5886 89.3552 16.1986C92.7422 17.0856 95.5122 19.8626 95.5122 23.0936C95.5122 26.9996 92.6762 29.8396 88.4422 29.8396C86.4222 29.8396 85.6922 29.4526 82.7382 29.4526C74.0162 29.4526 66.9412 36.5156 66.9262 45.2336V58.9766C66.9285 59.5676 67.1649 60.1336 67.5836 60.5508C68.0023 60.968 68.5691 61.2023 69.1602 61.2026L79.5472 61.2066C83.4182 61.2066 86.5432 64.2926 86.5432 68.1716C86.5472 72.0776 83.3832 75.1516 79.4732 75.1516" fill="white"/>
<path d="M116.809 116.773V114.121L115.598 116.902L114.418 114.122V116.773H113.738V112.586H114.449L115.617 115.262L116.766 112.586H117.488V116.773H116.809ZM111.855 113.289V116.773H111.145V113.289H109.953V112.586H113.043V113.289" fill="#3C6EB4"/>
</svg>
