<svg width="129" height="128" viewBox="0 0 129 128" fill="none" xmlns="http://www.w3.org/2000/svg">
<path fill-rule="evenodd" clip-rule="evenodd" d="M2.63764 49.2598C2.63764 49.4272 2.11906 49.9187 1.87623 49.981C1.73732 50.0164 1.69102 50.1001 1.67044 50.3576C1.64369 50.7 1.66221 50.7268 2.39584 51.3718C2.80124 51.7281 2.4514 52.8302 1.91121 52.8957C1.46569 52.9493 1.55726 53.6297 2.07378 54.1008C2.72098 54.691 2.6006 55.688 1.86903 55.7964C1.48112 55.8543 1.58401 56.51 2.06144 57.0123C2.67468 57.6604 2.59545 58.4149 1.88858 58.6713C1.68588 58.7454 1.65604 58.7991 1.65604 59.0942C1.65604 59.5739 1.71674 59.6876 2.07275 59.8776C2.75802 60.2424 2.75185 61.2662 2.06246 61.5646C1.70234 61.7212 1.62929 61.8758 1.67044 62.3984C1.69205 62.6678 1.73218 62.7364 1.87829 62.759C2.6613 62.8749 2.62014 64.5662 1.83404 64.5662C1.57475 64.5662 1.58093 65.6404 1.84022 65.7198C2.42773 65.9001 2.68085 66.7758 2.25385 67.1471C1.69617 67.6311 1.65604 67.6976 1.65604 68.144C1.65604 68.5304 1.67662 68.5787 1.86079 68.627C2.57076 68.8126 2.67777 69.6754 2.06555 70.2753C1.61385 70.7174 1.44716 71.474 1.80009 71.4805C2.56458 71.4933 2.74259 72.6191 2.07996 73.2501C1.57681 73.7287 1.46157 74.3093 1.85051 74.4112C1.95649 74.4391 2.19623 74.6355 2.38349 74.8469C2.75596 75.2687 3.15622 75.3771 3.24676 75.0809C3.52766 74.158 4.8735 74.1129 5.33446 75.0101C5.4816 75.2966 5.95182 75.3299 6.03413 75.0616C6.06294 74.9682 6.11954 74.8909 6.15966 74.8909C6.19979 74.8909 6.3459 74.7761 6.48481 74.6355C6.90873 74.203 7.38718 74.261 7.89033 74.8062C8.32762 75.2794 8.65482 75.3674 8.83797 75.0616C8.89456 74.9682 8.97996 74.8909 9.02935 74.8909C9.07874 74.8909 9.22588 74.7707 9.35758 74.6248C9.78458 74.1483 10.5388 74.3544 10.8938 75.0455C11.0131 75.2773 11.4041 75.2977 11.6387 75.083L11.9556 74.7954C12.0324 74.7293 12.0955 74.6475 12.1408 74.555C12.2653 74.1666 13.3159 74.4091 13.6009 74.8909C13.7882 75.2075 14.3355 75.4136 14.3376 75.1689C14.3376 75.1335 14.4487 75.039 14.5825 74.9596C14.7162 74.8802 14.8274 74.7568 14.8274 74.6849C14.8274 74.217 16.0919 74.2717 16.3646 74.7514C16.6969 75.3374 17.374 75.3073 17.6713 74.6924C17.8884 74.2438 18.9184 74.32 19.1797 74.804C19.4761 75.3502 20.1377 75.3116 20.4258 74.731C20.6202 74.3372 21.7099 74.2556 21.8447 74.6237C21.9332 74.8673 22.4096 75.2322 22.64 75.2322C22.711 75.2322 22.9271 75.0626 23.1205 74.8545C23.6618 74.2739 24.4324 74.2106 24.6886 74.7267C24.7565 74.8641 24.8615 74.9757 24.9222 74.9757C24.9829 74.9757 25.0786 75.0337 25.1342 75.1034C25.3461 75.3696 26.0345 75.039 26.0345 74.6699C26.0345 74.6184 26.1631 74.5035 26.3205 74.4145C26.7239 74.188 26.7187 73.8296 26.3082 73.381C25.7001 72.7167 25.7104 71.8561 26.3298 71.5073C26.5376 71.3903 26.6066 71.2948 26.6066 71.1263C26.6066 70.8527 26.3884 70.2818 26.2845 70.2818C25.7104 70.2818 25.8482 68.9274 26.4635 68.5325C26.7352 68.3576 26.4584 67.4003 26.1003 67.2759C25.7536 67.1546 25.8976 65.9237 26.2835 65.7155C26.6693 65.5073 26.6457 64.755 26.2485 64.4385C25.7598 64.05 25.7803 63.0863 26.2835 62.8148C26.6704 62.6066 26.6518 61.7588 26.2557 61.5613C25.733 61.3016 25.6836 60.1877 26.1837 59.9355C26.5963 59.7284 26.6652 58.8033 26.2783 58.651C26.0417 58.5576 25.8719 58.211 25.8719 57.8246C25.8719 57.5435 26.0489 57.0573 26.1507 57.0573C26.5726 57.0573 26.6611 55.9638 26.2598 55.7159C25.8009 55.4336 25.7423 54.3895 26.1682 54.0987C26.6241 53.7874 26.6611 52.8763 26.2187 52.8763C25.7762 52.8763 25.7135 51.5939 26.1363 51.1378C26.3699 50.8856 26.6076 50.4295 26.6076 50.2321C26.6076 50.1827 26.4831 50.0808 26.3318 50.0057C26.1608 49.9126 26.0203 49.7684 25.9285 49.5914C25.7865 49.2813 25.4233 49.1471 25.2165 49.3285C25.1334 49.3969 25.0412 49.4522 24.9428 49.4927C24.8967 49.5139 24.8556 49.5452 24.8223 49.5844C24.7889 49.6237 24.764 49.67 24.7493 49.7202C24.6475 50.1248 23.3541 50.0743 23.1782 49.659C23.1 49.4734 22.9878 49.3682 22.8304 49.3328C22.7028 49.3038 22.5979 49.2351 22.5968 49.1793C22.5958 49.1085 22.5783 49.1064 22.5351 49.1729C22.5022 49.2244 22.3643 49.321 22.2295 49.3864C22.0947 49.4519 21.9465 49.5946 21.9023 49.702C21.7294 50.1151 20.6882 50.0861 20.4309 49.6601C20.3373 49.5056 20.1696 49.3639 20.041 49.3339C19.9123 49.3038 19.8156 49.2341 19.8146 49.1793C19.8136 49.1031 19.7992 49.1031 19.7529 49.1793C19.7189 49.2341 19.5923 49.3049 19.4709 49.3371C19.3495 49.3693 19.2281 49.468 19.2003 49.5571C19.0336 50.1055 17.6075 50.1656 17.6075 49.6236C17.6075 49.5775 17.4789 49.4841 17.3215 49.4154C17.1641 49.3467 17.0355 49.2459 17.0355 49.1901C17.0355 49.1128 17.0128 49.1128 16.9377 49.1911C16.8696 49.2533 16.7832 49.2893 16.6928 49.2931C16.6033 49.2931 16.4901 49.4186 16.4016 49.6129L16.2576 49.9327L15.5764 49.9574C14.9529 49.9799 14.8912 49.9681 14.8521 49.8114C14.8284 49.717 14.6844 49.5635 14.5321 49.4691C14.3798 49.3746 14.2543 49.2609 14.2543 49.2147C14.2543 49.0184 13.7419 49.3317 13.5525 49.644L13.3519 49.9745H12.786C12.2509 49.9745 12.2108 49.9606 12.0451 49.7191C11.9495 49.5785 11.8178 49.4637 11.754 49.4637C11.6902 49.4637 11.5914 49.3875 11.5358 49.2931C11.4216 49.1021 10.9823 49.0527 10.9823 49.2308C10.9823 49.8704 9.74652 50.2536 9.26806 49.7631L8.8318 49.336C8.56839 49.0903 8.20106 49.0463 8.20106 49.2609C8.20106 49.8136 6.77599 50.2707 6.46731 49.8179C6.38916 49.7142 6.29234 49.6274 6.1823 49.5624C6.07898 49.5018 5.99791 49.407 5.95182 49.2931C5.89626 49.1106 5.41986 49.0388 5.41986 49.2126C5.41986 49.9778 3.98451 50.2804 3.42477 49.6333C3.2622 49.4455 3.12844 49.2534 3.12844 49.2062C3.12844 49.1589 3.01834 49.1214 2.88355 49.1214C2.71378 49.1214 2.63867 49.1632 2.63867 49.2566M125.469 49.6343C125.406 49.7395 125.632 49.8415 125.753 49.7631C125.802 49.732 125.819 49.6708 125.793 49.6279C125.731 49.5227 125.533 49.526 125.469 49.6343ZM127.269 49.6343C127.207 49.7395 127.431 49.8415 127.553 49.7631C127.601 49.732 127.619 49.6708 127.593 49.6279C127.53 49.5227 127.333 49.526 127.269 49.6343ZM125.075 50.0303C124.994 50.1151 125.006 50.4016 125.093 50.4016C125.2 50.4016 125.282 50.1291 125.201 50.0443C125.163 50.0046 125.106 49.9981 125.075 50.0303ZM53.795 50.1216C53.0285 50.1484 52.9482 50.1677 52.7517 50.3727L52.5387 50.5948V72.8455L52.763 72.9357C53.2991 73.1524 54.8949 73.1578 54.9886 72.9432C55.0822 72.7285 55.0966 50.818 55.003 50.3587C54.9443 50.069 55.0009 50.0797 53.794 50.1216M101.016 50.2825C100.934 50.5025 100.956 72.8348 101.037 72.9861C101.088 73.0805 101.181 73.1084 101.345 73.0762C101.475 73.0516 101.887 73.0558 102.264 73.087C102.887 73.1385 102.957 73.1277 103.061 72.9732C103.216 72.7436 103.234 50.7139 103.081 50.363C102.959 50.0861 101.114 50.0153 101.016 50.2836M108.378 50.4285C108.316 50.7494 108.316 72.6534 108.378 72.8927C108.421 73.0601 108.483 73.073 109.324 73.0837C109.819 73.0902 110.253 73.1138 110.288 73.1363C110.323 73.1589 110.414 73.1074 110.488 73.0215C110.662 72.8219 110.697 50.7558 110.524 50.3609L110.428 50.1419L109.427 50.1591L108.425 50.1774L108.377 50.4274M125.993 51.0241C125.974 51.3439 125.981 51.6701 126.007 51.7495C126.107 52.0414 126.161 51.5692 126.094 50.9983L126.028 50.4435L125.993 51.0241ZM128.27 50.8416C128.215 51.2011 128.284 51.6937 128.38 51.6315C128.476 51.5692 128.473 50.8223 128.381 50.671C128.333 50.5927 128.299 50.6453 128.269 50.8416M30.7964 51.4812C30.6554 51.5403 30.6451 72.6362 30.7861 72.9582C30.8663 73.1428 30.9044 73.1589 31.0927 73.0848C31.211 73.0376 31.6463 73.0118 32.0609 73.0258C32.5219 73.0419 32.8481 73.0161 32.9026 72.9603C32.9633 72.897 32.989 71.4193 32.9859 68.2202L32.9818 63.5724L33.167 63.3975C33.4798 63.1024 33.6506 63.0369 33.8801 63.1292C34.3379 63.3138 41.0846 63.1796 41.1309 62.9854C41.1536 62.892 41.1608 62.4306 41.1474 61.9616L41.1237 61.1085L37.2025 61.0859C33.6702 61.0666 33.2668 61.0494 33.13 60.9207C32.987 60.7854 32.9798 60.5901 33.0014 57.2462L33.024 53.7145L33.3008 53.4558L33.5776 53.1983L37.4793 53.2605C40.3901 53.3077 41.4252 53.2981 41.559 53.224C41.7925 53.0931 41.8347 51.5671 41.6073 51.4759C41.453 51.4136 30.9425 51.419 30.7953 51.4812M45.4915 51.6766C45.3526 51.815 45.1993 51.9416 45.1499 51.9588C44.8289 52.0704 45.009 53.8508 45.3629 54.0686C45.506 54.1566 45.6901 54.2983 45.7724 54.3841C45.9793 54.5998 46.9166 54.6073 47.072 54.3938C47.1591 54.2926 47.2681 54.2146 47.3899 54.1663C47.6009 54.0847 47.9332 53.2187 47.8848 52.8753C47.7408 51.8354 47.32 51.4254 46.3991 51.4254C45.7858 51.4254 45.7282 51.4415 45.4915 51.6766ZM75.5991 51.5317C75.5785 51.9073 75.5908 53.1457 75.6155 53.1715C75.632 53.1875 77.9461 53.2197 80.7581 53.2423L86.0118 53.3442C86.2773 53.4591 86.265 54.4131 85.9974 54.4131C85.9522 54.4131 85.839 54.5687 85.7464 54.7586C85.6538 54.9486 85.5252 55.1246 85.4624 55.1503C85.3996 55.1761 85.307 55.3253 85.2566 55.483C85.2062 55.6408 85.0982 55.7932 85.0148 55.82C84.9315 55.8468 84.843 55.9573 84.8173 56.0657C84.7915 56.1741 84.6588 56.4081 84.523 56.5862C84.3872 56.7644 84.276 56.964 84.276 57.0294C84.276 57.0949 84.2194 57.1711 84.1495 57.199C84.0795 57.2269 83.9499 57.3997 83.8593 57.5842C83.7717 57.7647 83.6628 57.933 83.5352 58.0854C83.4467 58.1766 83.3747 58.3097 83.3747 58.3784C83.3747 58.4471 83.2852 58.5662 83.1751 58.6413C83.0518 58.7363 82.9629 58.8721 82.923 59.0266C82.8942 59.1638 82.8252 59.2884 82.7254 59.3828C82.6133 59.4848 82.5204 59.6079 82.4517 59.7456C82.374 59.8964 82.2732 60.0331 82.1534 60.1501C82.0597 60.2317 81.9836 60.3701 81.9836 60.4571C81.9836 60.544 81.9064 60.6889 81.8117 60.7779C81.68 60.9213 81.5691 61.084 81.4825 61.2609C81.3961 61.4368 81.2901 61.5807 81.2469 61.5807C81.2037 61.5807 81.1121 61.7051 81.0431 61.8575C80.8449 62.2599 80.5969 62.6333 80.3054 62.9682C80.1932 63.0981 80.1017 63.2548 80.1017 63.3159C80.1017 63.3771 80.0101 63.5102 79.8969 63.6121C79.7837 63.7141 79.6922 63.8536 79.6922 63.9233C79.6922 63.9931 79.5903 64.1755 79.4668 64.329C79.3501 64.4733 79.2406 64.6238 79.1386 64.7797L78.8793 65.2058C78.6373 65.5986 78.3687 65.973 78.0757 66.3261C77.9749 66.4409 77.8915 66.589 77.8915 66.6534C77.8915 66.7178 77.8051 66.8799 77.6991 67.0119C77.5764 67.1704 77.4679 67.3403 77.375 67.5195C77.303 67.6665 77.1918 67.8071 77.1281 67.8328C77.0643 67.8586 76.9871 67.9852 76.9562 68.1151C76.8976 68.3565 76.6342 68.7429 76.2349 69.171C76.1115 69.303 76.0106 69.4683 76.0106 69.5359C76.0106 69.6035 75.9016 69.8042 75.7678 69.9791C75.634 70.1541 75.5044 70.3687 75.4777 70.4556C75.46 70.5033 75.4329 70.5465 75.3981 70.5826C75.3634 70.6186 75.3218 70.6467 75.276 70.6649C75.1916 70.6928 75.098 70.8291 75.0692 70.9675C75.0342 71.1156 74.9549 71.2483 74.8428 71.3463C74.4775 71.6135 74.5434 73.2415 74.9138 73.0945C75.1093 73.0172 88.3187 73.0569 89.1943 73.1374C89.6851 73.1825 89.7716 72.999 89.7376 71.9827L89.7139 71.2626L83.8881 71.2197C78.4091 71.18 78.0541 71.1682 77.9162 71.0233C77.7784 70.8784 77.7804 70.8634 77.907 70.7883C77.9821 70.7432 78.0685 70.593 78.0973 70.4524C78.1367 70.2958 78.2194 70.1547 78.335 70.0467C78.4508 69.9408 78.5354 69.8027 78.5788 69.6486C78.6118 69.5123 78.7486 69.2837 78.8824 69.1378C79.3701 68.6087 79.4298 68.5272 79.5563 68.2127C79.6263 68.0367 79.721 67.8929 79.7652 67.8929C79.8094 67.8929 79.8928 67.7577 79.9504 67.5924C80.008 67.4272 80.1387 67.2351 80.2416 67.1643C80.3445 67.0934 80.4289 66.9689 80.4289 66.8863C80.4289 66.8037 80.539 66.6105 80.6738 66.456C80.8085 66.3014 80.9186 66.1458 80.9186 66.1083C80.9186 66.0707 81.0287 65.9205 81.1635 65.7734C81.2983 65.6264 81.4084 65.4504 81.4084 65.3818C81.4084 65.3131 81.4743 65.2079 81.5555 65.1467C81.6368 65.0856 81.75 64.9149 81.8076 64.7679C81.8791 64.5994 81.9819 64.4473 82.1101 64.3204C82.2192 64.2217 82.3087 64.0886 82.3087 64.0264C82.3087 63.9641 82.4003 63.83 82.5135 63.728C82.6267 63.6261 82.7182 63.493 82.7182 63.4318C82.7182 63.3707 82.8273 63.1882 82.96 63.0262C83.0928 62.8641 83.2039 62.6849 83.206 62.6291C83.208 62.5733 83.3191 62.4016 83.4549 62.2471C83.5908 62.0925 83.6998 61.9359 83.6998 61.8983C83.6998 61.8607 83.8789 61.5882 84.0991 61.2931C84.3193 60.9979 84.559 60.6438 84.6341 60.5064C84.8378 60.133 85.1465 59.6812 85.3338 59.4848C85.4254 59.3893 85.4994 59.253 85.4994 59.1832C85.4994 59.1135 85.6085 58.9225 85.7412 58.7593C85.874 58.5962 85.9851 58.417 85.9861 58.3591C85.9871 58.3011 86.0798 58.1927 86.1909 58.1165C86.302 58.0403 86.4172 57.8965 86.4471 57.7946C86.4769 57.6926 86.587 57.5048 86.6899 57.3761C86.7928 57.2473 86.9039 57.0573 86.9348 56.9532C86.9657 56.8491 87.0799 56.6925 87.1859 56.6055C87.2918 56.5186 87.3793 56.392 87.3793 56.3244C87.3793 56.2568 87.4565 56.1355 87.5491 56.0529C87.6417 55.9702 87.7744 55.7631 87.8423 55.5914C87.9102 55.4197 88.0152 55.2577 88.0779 55.233C88.1407 55.2083 88.2467 55.0516 88.3125 54.8853C88.3784 54.7189 88.471 54.5826 88.5163 54.5826C88.5615 54.5826 88.6716 54.4099 88.7611 54.1985C88.8507 53.987 88.9556 53.8143 88.9957 53.8143C89.0359 53.8143 89.148 53.6651 89.2458 53.4816C89.3435 53.2981 89.4814 53.1264 89.5503 53.0995C89.6532 53.0588 89.6717 52.9064 89.6522 52.2582L89.6285 51.4684L82.6133 51.4469C77.0303 51.4297 75.597 51.4469 75.5929 51.5317M94.0056 51.4845C93.2874 51.8032 92.81 53.165 93.2545 53.6275C93.3461 53.723 93.4613 53.8808 93.5117 53.9774C93.5621 54.074 93.6568 54.1545 93.7226 54.1545C93.7885 54.1545 93.9233 54.2382 94.021 54.3401C94.2793 54.6095 95.0016 54.6674 95.1611 54.4313C95.2381 54.3279 95.341 54.2488 95.4585 54.2027C95.5754 54.1556 95.6737 54.0687 95.7373 53.9559C95.8023 53.8388 95.8883 53.7357 95.9904 53.6522C96.3227 53.4065 96.1674 52.3151 95.7342 51.8504C95.3741 51.4641 94.4789 51.273 94.0066 51.4834M125.01 52.021C125.01 52.1874 125.097 52.2432 125.196 52.1412C125.261 52.0725 125.175 51.8515 125.083 51.8515C125.043 51.8515 125.01 51.9277 125.01 52.0221M125.437 52.5469C125.48 52.6799 125.663 52.7036 125.669 52.5759C125.671 52.5286 125.612 52.4771 125.537 52.461C125.452 52.4428 125.415 52.475 125.437 52.5458M19.5604 52.8688C19.7199 53.179 19.6109 54.3594 19.4113 54.4882C19.2569 54.5869 19.1551 55.0162 19.1551 55.5603C19.1551 56.0185 19.1221 56.143 18.9441 56.3641L18.7332 56.6259L15.0404 56.6485L11.3465 56.6699L11.2755 56.9264C11.2154 57.1204 11.1407 57.3091 11.0522 57.4909C10.8495 57.903 10.7322 59.3571 10.901 59.3592L16.9943 59.3807C21.9218 59.3968 22.9981 59.4204 23.1092 59.517C23.2924 59.6747 23.28 60.0879 23.0825 60.4206C22.993 60.5708 22.8839 60.9582 22.8407 61.2812C22.7851 61.6869 22.7121 61.908 22.603 61.9992C22.5016 62.0907 22.4163 62.2 22.3509 62.3222C22.2984 62.4274 22.2243 62.5143 22.1832 62.5143C22.1235 62.5143 19.4092 65.2433 18.5274 66.1898C18.4893 66.2306 17.9687 66.7586 17.3709 67.3628C15.989 68.7579 15.9489 68.6989 18.2475 68.6377C19.8053 68.5958 19.9741 68.5765 20.1881 68.4145C20.3167 68.3168 20.6429 68.2009 20.9125 68.1569C21.1658 68.1178 21.4134 68.0454 21.6492 67.9412C22.1122 67.6869 22.2624 67.7888 22.2624 68.3565C22.2624 68.5111 22.2099 68.6828 22.1451 68.7386C22.0803 68.7944 22.0062 69.0798 21.9753 69.4104C21.8508 70.7668 21.6811 71.2186 21.2993 71.2186C21.2345 71.2186 21.0761 71.3109 20.9474 71.4236C20.7849 71.5663 20.5626 71.6468 20.2087 71.6887C19.9309 71.723 19.5759 71.8282 19.4215 71.9237C18.8577 72.2703 16.0518 72.2188 15.5157 71.8528C15.1885 71.6286 13.0185 71.6586 12.7057 71.8904C12.2993 72.192 11.6274 71.9924 11.6274 71.5706C11.6274 71.489 11.5224 71.2712 11.3938 71.0866C11.2652 70.902 11.1356 70.6456 11.1068 70.5179C11.0748 70.3864 10.998 70.2715 10.8907 70.1948C10.4184 69.9308 10.5378 69.7709 13.5834 66.5998C15.1546 64.9643 16.4788 63.6261 16.5282 63.6261C16.5776 63.6261 16.6177 63.5671 16.6177 63.4962C16.6177 63.4254 16.7103 63.3224 16.8225 63.2698C16.9552 63.2065 17.0272 63.1035 17.0272 62.9725V62.7268C17.0272 62.6774 10.0624 62.671 10.0151 62.7203C9.99963 62.7364 9.94921 62.9951 9.90291 63.2934C9.85661 63.5917 9.76915 63.8954 9.70741 63.9663C9.56336 64.1337 9.51912 64.3483 9.42755 65.3377C9.38124 65.8411 9.28967 66.2821 9.18986 66.4892C9.09006 66.6964 9.00877 67.0934 8.97482 67.5506C8.94086 68.0078 8.86369 68.393 8.76492 68.5915C8.65933 68.8353 8.58828 69.0938 8.55398 69.3588C8.45212 70.2195 8.50768 70.1948 6.67104 70.1948C4.64817 70.1948 4.41254 70.0371 4.91157 69.0165C5.00932 68.8169 5.1009 68.3522 5.15646 67.7684C5.21511 67.1557 5.28919 66.7887 5.37356 66.691C5.45793 66.5933 5.53099 66.2349 5.58758 65.6608C5.64417 65.0781 5.72648 64.6864 5.82835 64.5104C5.93021 64.3344 6.00018 64.0028 6.03105 63.5713C6.08764 62.7944 6.20082 62.2589 6.30886 62.2589C6.40146 62.2589 6.456 61.9412 6.54551 60.8702C6.59593 60.2585 6.65458 59.9913 6.76365 59.8647C6.87889 59.7316 6.92519 59.4805 6.97252 58.7454C7.02088 57.977 7.06512 57.7517 7.20609 57.552C7.3275 57.3814 7.39232 57.1335 7.42113 56.7322C7.49419 55.7202 7.54358 55.4369 7.67013 55.3049C7.79669 55.1729 7.94074 54.3691 7.94383 53.7606C7.94486 53.5084 8.01483 53.311 8.1918 53.0566L8.43772 52.7025H13.9559C19.3279 52.7025 19.4771 52.7068 19.5594 52.8677M126.389 53.0352C126.491 53.1017 126.809 53.0695 126.809 52.9922C126.809 52.974 126.69 52.96 126.543 52.9611C126.362 52.9622 126.313 52.9858 126.389 53.0362M64.5123 57.3975C64.2461 57.5203 63.9666 57.609 63.6799 57.6615C63.3445 57.7227 63.0986 57.8236 62.9587 57.9588C62.8414 58.0715 62.6613 58.1637 62.5584 58.1637C62.3495 58.1637 62.1314 58.3473 61.2867 59.2305C60.3534 60.207 60.3009 60.2714 60.3009 60.4249C60.3009 60.5064 60.1908 60.7039 60.056 60.8638C59.8832 61.0698 59.8112 61.2437 59.8112 61.4551C59.8153 61.5461 59.8001 61.637 59.7667 61.7212C59.7332 61.8055 59.6824 61.881 59.6177 61.9423C59.4593 62.0968 59.4089 62.2696 59.3358 62.9146C59.2874 63.346 59.1815 63.8257 59.1002 63.9813C58.8841 64.3934 58.8964 66.8691 59.1156 67.1213C59.2401 67.2651 59.3759 68.0539 59.3986 68.76C59.4006 68.8394 59.4953 69.0079 59.6074 69.1346C59.7196 69.2612 59.8122 69.4672 59.8122 69.6057C59.8122 69.7581 59.9027 69.9426 60.0571 70.1079C60.1919 70.2517 60.302 70.403 60.302 70.4449C60.302 70.5093 60.5304 70.7947 60.9883 71.3023C61.1193 71.4362 61.2556 71.5644 61.3967 71.6865L61.9472 72.1748C62.0882 72.3025 62.3248 72.4313 62.472 72.4602C62.6345 72.4979 62.7834 72.5832 62.901 72.706C63.0225 72.852 63.1912 72.9142 63.5843 72.9603C63.8888 72.9958 64.2253 73.0988 64.393 73.2072C64.8334 73.4926 68.0272 73.4894 68.7701 73.2029C69.1252 73.0775 69.4906 72.9866 69.8618 72.9314C70.192 72.8863 70.5234 72.7919 70.5985 72.721C70.7092 72.6288 70.8327 72.5546 70.9648 72.501C71.2117 72.4034 71.221 72.0342 70.9833 71.7273C70.9287 71.6575 70.8351 71.4365 70.7754 71.2369C70.653 70.8323 70.6365 70.8215 70.3906 71.0008C70.2949 71.0705 69.9636 71.165 69.6549 71.2111C69.3463 71.2572 68.9656 71.3624 68.8081 71.4461C68.3317 71.7015 65.5598 71.7219 65.1544 71.473C64.9321 71.3504 64.694 71.2619 64.4475 71.21C64.2212 71.166 63.9711 71.0673 63.8929 70.9933C63.8147 70.9192 63.6419 70.7947 63.5091 70.7164C62.9587 70.3923 62.5059 69.9738 62.4113 69.7033C62.3529 69.5418 62.2542 69.3995 62.1252 69.2912C62.0223 69.2204 61.938 69.0906 61.938 69.0015C61.938 68.9124 61.8505 68.7311 61.7435 68.598C61.5994 68.4188 61.5264 68.1762 61.4585 67.6504C61.4081 67.2619 61.3299 66.8702 61.2846 66.7811C61.1529 66.5236 61.1838 65.9613 61.3371 65.8293C61.4492 65.7327 62.3979 65.7123 66.7503 65.7123H72.0276L72.0997 65.4569C72.2293 64.9965 72.0914 62.8513 71.9124 62.5486C71.827 62.4038 71.7221 62.0292 71.6799 61.7169C71.6336 61.3746 71.5358 61.0612 71.435 60.9271C71.3291 60.773 71.2542 60.5981 71.2148 60.4131C71.186 60.2521 71.0985 60.0739 71.0203 60.016C70.9421 59.958 70.8125 59.7788 70.7322 59.6157C70.652 59.4526 70.4997 59.2487 70.3927 59.1618C70.2857 59.0748 70.1992 58.9579 70.1992 58.9031C70.1992 58.8484 70.0974 58.7347 69.9739 58.6531C69.6284 58.4205 69.2914 58.1746 68.9635 57.9158C68.8462 57.8214 68.5334 57.7066 68.2679 57.6604C67.9895 57.6101 67.7184 57.5228 67.4613 57.4007C66.9849 57.1421 64.9949 57.1389 64.5113 57.3964M119.2 57.2795C119.133 57.302 118.93 57.3911 118.75 57.4759C118.57 57.5606 118.147 57.6551 117.81 57.684C117.337 57.7248 117.166 57.7763 117.06 57.9083C116.985 58.0028 116.755 58.1122 116.552 58.1519C115.894 58.2796 115.556 58.8302 115.929 59.1628C116.038 59.281 116.112 59.4292 116.143 59.59C116.22 60.0181 116.645 60.0675 116.985 59.6887C117.073 59.59 117.322 59.4912 117.606 59.4429C117.866 59.3989 118.151 59.2938 118.24 59.2111C118.378 59.0813 118.595 59.0555 119.779 59.0319L121.158 59.0051L121.671 59.2669C121.954 59.4107 122.223 59.5299 122.268 59.5299C122.399 59.532 123.128 60.2778 123.128 60.4098C123.128 60.4742 123.218 60.6288 123.328 60.7522C123.556 61.0097 123.642 61.4615 123.653 62.48C123.663 63.4576 123.731 63.4168 121.967 63.4876C120.69 63.5392 120.439 63.5713 120.216 63.7162C120.04 63.83 119.711 63.9083 119.207 63.9566C118.619 64.0135 118.42 64.0671 118.274 64.2109C118.171 64.3108 118.028 64.3934 117.954 64.3934C117.679 64.4327 117.422 64.5576 117.216 64.7518C117.136 64.8357 117.032 64.8897 116.92 64.9053C116.73 64.9053 115.314 66.3304 115.237 66.5987C115.175 66.7691 115.094 66.9312 114.996 67.0816C114.631 67.6429 114.645 70.8291 115.014 71.1188C115.116 71.1982 115.237 71.4053 115.282 71.5781C115.327 71.7509 115.43 71.9129 115.513 71.9408C115.597 71.9687 115.704 72.0857 115.754 72.2016C115.805 72.3175 115.9 72.413 115.965 72.413C116.03 72.413 116.196 72.5118 116.333 72.633C116.471 72.7543 116.722 72.8917 116.892 72.9399C117.074 72.9945 117.244 73.0864 117.391 73.2104C117.679 73.4883 120.533 73.4937 120.896 73.2168C121.023 73.1192 121.309 72.9925 121.533 72.9335C121.756 72.8745 121.987 72.7543 122.048 72.6631C122.109 72.5719 122.21 72.4978 122.272 72.4978C122.388 72.4978 122.493 72.4066 123.267 71.6371C123.874 71.0351 123.979 71.1113 124.09 72.2403C124.168 73.0194 124.226 73.0612 125.31 73.1117C125.924 73.1396 126.069 73.1224 126.128 73.014C126.273 72.7436 126.134 61.9069 125.982 61.6182C125.908 61.4766 125.801 61.1117 125.745 60.808C125.689 60.5043 125.579 60.178 125.501 60.0836C125.393 59.9316 125.308 59.7633 125.248 59.5846C125.187 59.4043 125.072 59.2208 124.993 59.1768C124.914 59.1328 124.848 59.0534 124.848 59.0008C124.848 58.8484 124.203 58.2689 123.92 58.167C123.775 58.1137 123.645 58.0254 123.539 57.9094C123.455 57.7967 123.236 57.7162 122.843 57.6519C122.502 57.5941 122.166 57.5072 121.838 57.3921C121.422 57.2312 119.58 57.1528 119.203 57.2795M45.4144 57.7259L45.2096 57.786L45.189 65.3453L45.1685 72.9045L45.3938 72.9668C45.6562 73.0387 47.4815 73.1632 47.5422 73.1138C47.5648 73.0956 47.5834 69.6185 47.5834 65.3871V57.6937L46.6018 57.6798C46.0616 57.6722 45.5286 57.6926 45.4154 57.7259M93.6156 57.7527C93.5117 57.8611 93.4644 72.5933 93.5673 72.8734C93.6064 72.9797 93.7494 73.0086 94.2423 73.0118C94.5859 73.014 95.0253 73.0473 95.2177 73.0859C95.5119 73.1449 95.5809 73.1331 95.6447 73.0065C95.7291 72.8412 95.7682 57.8761 95.6848 57.7345C95.6107 57.6089 93.7381 57.625 93.6156 57.7527ZM67.1824 59.1489C67.3419 59.2429 67.5046 59.3309 67.6701 59.4129C67.9973 59.5739 68.9347 60.5655 69.1137 60.9421C69.204 61.1289 69.2976 61.3139 69.3946 61.4969C69.4894 61.6895 69.5438 61.901 69.5541 62.1172C69.5541 62.2932 69.6282 62.6581 69.7177 62.9253C70.0819 64.006 70.2723 63.9588 65.5382 63.9749C60.9008 63.991 61.2332 64.0596 61.4225 63.1163C61.4733 62.8816 61.5111 62.6441 61.5357 62.4048C61.5367 62.3179 61.6293 62.1322 61.7414 61.9927C61.8536 61.8532 61.9462 61.6472 61.9462 61.5334C61.9462 61.3285 62.1582 61.028 62.6623 60.5161C62.8084 60.368 62.9278 60.2038 62.9278 60.1512C62.9278 60.0986 63.0029 60.031 63.0935 60.001C63.21 59.9489 63.3097 59.8628 63.3805 59.7531C63.4474 59.6468 63.6583 59.5105 63.8487 59.4515C64.039 59.3925 64.2613 59.2712 64.3415 59.1822C64.536 58.9675 66.8388 58.9396 67.1814 59.1468M123.69 65.2208L123.915 65.3946L123.937 66.7296C123.957 67.8929 123.939 68.1108 123.803 68.4273C123.707 68.6615 123.635 68.9058 123.588 69.156C123.549 69.4061 123.468 69.5649 123.334 69.6561C123.226 69.7302 123.138 69.8579 123.138 69.9416C123.138 70.1412 122.086 71.2218 121.892 71.2218C121.839 71.2218 121.652 71.327 121.475 71.4547C121.158 71.6833 121.13 71.6876 119.902 71.6897L118.651 71.6919L118.415 71.4569C118.285 71.3281 118.138 71.2218 118.088 71.2218C117.967 71.2218 117.414 70.6134 117.413 70.4792C117.413 70.4234 117.32 70.2732 117.208 70.1465C116.953 69.86 116.888 67.8436 117.127 67.6364C117.195 67.5774 117.32 67.3649 117.406 67.1643C117.491 66.9636 117.635 66.7575 117.726 66.706C117.822 66.6483 117.898 66.5589 117.941 66.4517C117.967 66.3626 118.108 66.2403 118.253 66.1791C118.398 66.1179 118.561 66.0031 118.617 65.9237C118.672 65.8443 118.88 65.7552 119.079 65.723C119.277 65.6908 119.525 65.5899 119.627 65.4977C119.857 65.2895 119.876 65.2852 121.338 65.1328C122.863 64.9729 123.4 64.9933 123.691 65.2197" fill="#A7171B"/>
</svg>
