<svg width="128" height="128" viewBox="0 0 128 128" fill="none" xmlns="http://www.w3.org/2000/svg">
<path d="M4.285 0C4.285 1.129 3.828 2.234 3.031 3.031C2.234 3.828 1.129 4.285 0 4.285V9.937C1.13605 9.93832 2.22518 10.3902 3.02849 11.1935C3.8318 11.9968 4.28368 13.086 4.285 14.222C4.28394 15.3582 3.83218 16.4476 3.02884 17.2511C2.22551 18.0547 1.13622 18.5067 0 18.508L0 24.156C2.363 24.156 4.285 26.082 4.285 28.441C4.285 30.8 2.363 32.73 0 32.73V38.378C1.13674 38.3793 2.22648 38.8318 3.0299 39.6359C3.83332 40.4401 4.28474 41.5303 4.285 42.667C4.28394 43.8032 3.83218 44.8926 3.02884 45.6961C2.22551 46.4997 1.13622 46.9517 0 46.953L0 52.605C1.13605 52.6063 2.22518 53.0582 3.02849 53.8615C3.8318 54.6648 4.28368 55.754 4.285 56.89C4.28394 58.0262 3.83218 59.1156 3.02884 59.9191C2.22551 60.7227 1.13622 61.1747 0 61.176L0 66.828C1.13568 66.8283 2.22483 67.2793 3.02825 68.0819C3.83167 68.8846 4.28368 69.9733 4.285 71.109C4.28474 72.2457 3.83332 73.3359 3.0299 74.1401C2.22648 74.9442 1.13674 75.3967 0 75.398L0 81.046C1.1357 81.0473 2.22454 81.4989 3.02779 82.3018C3.83104 83.1047 4.28315 84.1933 4.285 85.329C4.28447 86.4656 3.83294 87.5555 3.02955 88.3594C2.22616 89.1634 1.13657 89.6157 0 89.617L0 95.269C1.13605 95.2703 2.22518 95.7222 3.02849 96.5255C3.8318 97.3288 4.28368 98.418 4.285 99.554C4.28394 100.69 3.83218 101.78 3.02884 102.583C2.22551 103.387 1.13622 103.839 0 103.84L0 109.492C1.13605 109.493 2.22518 109.945 3.02849 110.749C3.8318 111.552 4.28368 112.641 4.285 113.777C4.28394 114.913 3.83218 116.003 3.02884 116.806C2.22551 117.61 1.13622 118.062 0 118.063L0 123.715C1.129 123.715 2.234 124.172 3.031 124.969C3.828 125.766 4.285 126.871 4.285 128H9.937C9.93832 126.864 10.3902 125.775 11.1935 124.972C11.9968 124.168 13.086 123.716 14.222 123.715C15.3582 123.716 16.4476 124.168 17.2511 124.971C18.0547 125.774 18.5067 126.864 18.508 128H24.156C24.1581 126.864 24.6108 125.774 25.4148 124.971C26.2188 124.168 27.3085 123.716 28.445 123.715C29.581 123.716 30.6702 124.168 31.4735 124.972C32.2768 125.775 32.7287 126.864 32.73 128H38.378C38.3793 126.864 38.8309 125.775 39.6338 124.972C40.4367 124.169 41.5253 123.717 42.661 123.715C43.7976 123.716 44.8875 124.167 45.6914 124.97C46.4954 125.774 46.9477 126.863 46.949 128H52.601C52.6023 126.864 53.0542 125.775 53.8575 124.972C54.6608 124.168 55.75 123.716 56.886 123.715C58.0222 123.716 59.1116 124.168 59.9151 124.971C60.7187 125.774 61.1707 126.864 61.172 128H66.824C66.8253 126.864 67.2772 125.775 68.0805 124.972C68.8838 124.168 69.973 123.716 71.109 123.715C72.2452 123.716 73.3346 124.168 74.1381 124.971C74.9417 125.774 75.3937 126.864 75.395 128H81.047C81.0483 126.864 81.5002 125.775 82.3035 124.972C83.1068 124.168 84.196 123.716 85.332 123.715C86.468 123.716 87.5572 124.168 88.3605 124.972C89.1638 125.775 89.6157 126.864 89.617 128H95.265C95.2671 126.864 95.7198 125.774 96.5238 124.971C97.3278 124.168 98.4175 123.716 99.554 123.715C100.69 123.716 101.78 124.168 102.583 124.971C103.387 125.774 103.839 126.864 103.84 128H109.486C109.487 126.864 109.939 125.775 110.743 124.972C111.546 124.168 112.635 123.716 113.771 123.715C114.907 123.716 115.996 124.168 116.799 124.972C117.603 125.775 118.055 126.864 118.056 128H123.712C123.712 126.871 124.169 125.766 124.966 124.969C125.763 124.172 126.868 123.715 127.997 123.715V118.067C126.861 118.065 125.771 117.612 124.968 116.808C124.165 116.004 123.713 114.914 123.712 113.778C123.713 112.642 124.165 111.553 124.969 110.75C125.772 109.946 126.861 109.494 127.997 109.493V103.847C126.861 103.846 125.772 103.394 124.969 102.59C124.165 101.787 123.713 100.698 123.712 99.562C123.712 98.4247 124.164 97.3341 124.968 96.5299C125.772 95.7256 126.863 95.2735 128 95.273V89.621C126.864 89.6197 125.775 89.1678 124.972 88.3645C124.168 87.5612 123.716 86.472 123.715 85.336C123.716 84.2 124.168 83.1108 124.972 82.3075C125.775 81.5042 126.864 81.0523 128 81.051V75.399C126.864 75.3977 125.775 74.9458 124.972 74.1425C124.168 73.3392 123.716 72.25 123.715 71.114C123.716 69.9778 124.168 68.8884 124.971 68.0849C125.774 67.2813 126.864 66.8293 128 66.828V61.18C126.864 61.1787 125.775 60.7268 124.972 59.9235C124.168 59.1202 123.716 58.031 123.715 56.895C123.716 55.7588 124.168 54.6694 124.971 53.8659C125.774 53.0623 126.864 52.6103 128 52.609V46.957C126.864 46.9557 125.775 46.5038 124.972 45.7005C124.168 44.8972 123.716 43.808 123.715 42.672C123.715 41.5353 124.167 40.4451 124.97 39.6409C125.774 38.8368 126.863 38.3843 128 38.383V32.73C126.864 32.7287 125.775 32.2768 124.972 31.4735C124.168 30.6702 123.716 29.581 123.715 28.445C123.716 27.309 124.168 26.2198 124.972 25.4165C125.775 24.6132 126.864 24.1613 128 24.16V18.512C126.864 18.5099 125.774 18.0572 124.971 17.2532C124.168 16.4492 123.716 15.3595 123.715 14.223C123.717 13.0875 124.169 11.9991 124.973 11.1964C125.776 10.3938 126.864 9.94232 128 9.941V4.285C126.871 4.285 125.766 3.828 124.969 3.031C124.172 2.234 123.715 1.129 123.715 0H118.063C118.062 1.13605 117.61 2.22518 116.806 3.02849C116.003 3.8318 114.914 4.28368 113.778 4.285C112.642 4.28394 111.552 3.83218 110.749 3.02884C109.945 2.22551 109.493 1.13622 109.492 0L103.84 0C103.839 1.13605 103.387 2.22518 102.583 3.02849C101.78 3.8318 100.691 4.28368 99.555 4.285C98.419 4.28368 97.3298 3.8318 96.5265 3.02849C95.7232 2.22518 95.2713 1.13605 95.27 0L89.622 0C89.6207 1.1357 89.1691 2.22454 88.3662 3.02779C87.5633 3.83104 86.4747 4.28315 85.339 4.285C84.2025 4.28289 83.1131 3.83098 82.3089 3.02805C81.5047 2.22511 81.051 1.13645 81.047 0L75.399 0C75.3977 1.13605 74.9458 2.22518 74.1425 3.02849C73.3392 3.8318 72.25 4.28368 71.114 4.285C69.9778 4.28394 68.8884 3.83218 68.0849 3.02884C67.2813 2.22551 66.8293 1.13622 66.828 0L61.176 0C61.1747 1.13605 60.7228 2.22518 59.9195 3.02849C59.1162 3.8318 58.027 4.28368 56.891 4.285C55.7548 4.28394 54.6654 3.83218 53.8619 3.02884C53.0583 2.22551 52.6063 1.13622 52.605 0L46.953 0C46.9517 1.13605 46.4998 2.22518 45.6965 3.02849C44.8932 3.8318 43.804 4.28368 42.668 4.285C41.532 4.28368 40.4428 3.8318 39.6395 3.02849C38.8362 2.22518 38.3843 1.13605 38.383 0L32.73 0C32.7287 1.13605 32.2768 2.22518 31.4735 3.02849C30.6702 3.8318 29.581 4.28368 28.445 4.285C27.309 4.28368 26.2198 3.8318 25.4165 3.02849C24.6132 2.22518 24.1613 1.13605 24.16 0L18.512 0C18.512 2.363 16.586 4.285 14.227 4.285C11.868 4.285 9.938 2.363 9.938 0H4.285ZM35.047 18.836H91L87.43 35.621H48.5L45.168 51.215H109.039L106.301 62.404L72.149 95.619C75.243 96.095 78.219 96.81 81.43 96.81C89.246 96.81 98.231 94.427 104.305 91.927L101.184 106.572C92.254 110.858 86.778 111.218 81.43 111.218C75.602 111.218 70.004 109.312 64.289 109.312C61.074 109.312 56.433 109.551 53.574 111.453L47.383 100.504L82.617 65.621H42.07L34.332 101.93H17.43L35.047 18.836Z" fill="url(#paint0_linear_3_6833)"/>
<defs>
<linearGradient id="paint0_linear_3_6833" x1="63.997" y1="15.543" x2="63.997" y2="114.424" gradientUnits="userSpaceOnUse">
<stop stop-color="#BF0000"/>
<stop offset="1" stop-color="#8F0000"/>
</linearGradient>
</defs>
</svg>
