<svg width="128" height="128" viewBox="0 0 128 128" fill="none" xmlns="http://www.w3.org/2000/svg">
<path fill-rule="evenodd" clip-rule="evenodd" d="M14.7821 41.3219L11.9881 43.5589C11.5741 41.8749 11.9481 40.4039 12.3831 38.9799C13.2801 36.0379 14.8631 33.4389 16.6651 30.9699C17.3181 30.0739 17.7841 29.1889 17.7641 27.9829C17.6901 23.7149 18.1421 19.4989 19.6051 15.4519C20.3511 13.3879 21.3591 11.4669 23.0821 9.79987C23.7621 13.1199 24.3781 16.3099 26.1931 18.7029C27.5031 17.5409 28.8141 16.4349 30.0601 15.2629C37.5441 8.22487 46.3541 3.82787 56.5101 2.37987C69.2481 0.563875 81.0051 3.29588 91.6771 10.5639C92.6851 11.2509 93.8431 11.7199 94.9421 12.2669C99.9961 14.7769 103.811 18.5129 106.2 23.6499C106.601 24.5099 106.912 25.4109 107.264 26.2929L107.582 26.2379L106.207 17.9959C111.716 25.7279 113.454 34.3089 113.924 43.3129C114.953 41.8769 114.945 40.1759 115.503 38.5499C115.686 39.7319 115.915 40.9089 116.045 42.0959C116.553 46.7619 115.649 51.2869 114.789 55.8439C112.76 66.6079 108.098 76.1339 101.072 84.4129C93.0721 93.8399 83.0791 100.134 70.5801 101.627C52.4421 103.794 37.2051 97.9659 24.8991 84.4789C18.9941 78.0089 15.0891 70.4789 13.3411 61.9039C12.0181 55.4129 12.3371 48.9579 14.4911 42.6429L14.8281 41.6749L14.7821 41.3219ZM96.8941 32.7139L97.2381 32.4179L101.111 35.4089C101.06 34.5009 101.099 33.5459 100.942 32.6259C100.252 28.6099 97.8181 25.6989 94.7941 23.2019C91.0031 20.0719 86.6531 17.9179 82.1451 16.0489C81.7021 15.8649 81.2671 15.6599 80.8301 15.4649L80.8841 15.0109L87.2391 14.6349C84.8911 10.7599 80.8561 9.67887 76.7681 8.56787L77.2771 8.29787C68.9901 5.70987 60.7781 5.50687 52.5031 7.62387C44.8071 9.59287 33.2501 16.6099 31.4641 20.3959L31.9851 20.2689C34.8891 19.5559 37.7901 19.3599 40.7151 20.2079C41.0331 20.2999 41.5641 20.0889 41.8391 19.8419C44.5801 17.3879 47.6281 15.4659 51.1591 14.3779C52.2721 14.0349 53.4191 13.8069 54.5501 13.5269C54.4561 13.9099 54.2861 14.0649 54.0971 14.1949C50.4361 16.7119 47.9681 20.0209 47.2801 24.5009C47.2431 24.7469 47.2801 25.1159 47.4371 25.2639C49.0591 26.7889 50.6681 28.3319 52.3771 29.7549C52.9671 30.2459 53.8001 30.5759 54.5671 30.6969C56.0471 30.9329 57.5601 30.9769 59.0591 31.0819C59.9811 31.1469 60.5791 31.7989 60.2481 32.5449C59.7571 33.6569 59.2231 34.6889 58.0971 35.4399C55.9681 36.8609 53.9971 38.5209 51.9431 40.0569C51.4311 40.4409 51.4101 40.7899 51.6771 41.3569C52.1691 42.4049 52.6391 43.4799 52.9541 44.5899C53.3531 45.9939 53.4891 47.4449 53.1241 48.9299C51.9641 48.6739 50.9011 48.4209 49.8321 48.2089C48.7571 47.9959 47.6741 47.8299 46.5981 47.6309C45.2511 47.3839 44.1021 47.8559 43.4121 48.9539C42.6111 50.2279 42.5991 51.5589 43.4541 52.6499C45.1991 54.8719 47.1751 56.8649 49.5071 58.4739C51.4371 59.8069 53.6071 60.5479 55.9171 60.0539C57.5241 59.7109 59.0991 59.0219 60.5631 58.2489C64.9991 55.9059 70.0021 56.6959 73.0711 60.3429C73.6201 60.9939 73.9491 61.7339 73.4831 62.4989C73.0351 63.2339 72.2841 63.4069 71.4201 63.1899C70.5231 62.9649 69.6931 63.1199 68.8831 63.6579C66.7441 65.0779 64.6441 66.5889 62.3761 67.7739C58.7221 69.6839 54.7411 70.3269 50.6281 70.1739C50.2061 70.1579 49.7831 70.1719 49.2111 70.1719L49.5911 70.6189C52.5611 73.4989 55.9661 75.7119 59.8951 77.0079C64.2221 78.4339 68.6451 79.0189 73.1341 77.7789C78.1651 76.3899 82.1171 73.3409 85.4981 69.4899C86.8601 67.9369 88.0961 66.2729 89.3901 64.6609L89.7141 64.7309L88.5721 72.5239C94.7751 64.9349 94.9721 56.2599 94.1001 47.1119C95.8841 49.0999 96.4261 51.4299 97.4501 53.7659C99.5401 46.5149 98.5061 39.6079 96.8941 32.7139Z" fill="#DD732A"/>
<path d="M26.877 109.18V114.088H32.267V117.209H26.877V124.546H22.502V106.057H33.521L33.067 109.18H26.877ZM40.096 103.59C40.568 104.043 40.804 104.617 40.804 105.311C40.804 106.005 40.568 106.578 40.096 107.032C39.625 107.485 39.025 107.712 38.296 107.712C37.566 107.712 36.97 107.485 36.509 107.032C36.046 106.578 35.815 106.005 35.815 105.311C35.815 104.617 36.046 104.043 36.509 103.59C36.97 103.136 37.566 102.91 38.296 102.91C39.024 102.91 39.625 103.136 40.096 103.59ZM36.215 124.546V110.379H40.43V124.546H36.215ZM52.835 110.167L52.168 114.249C51.635 114.124 51.208 114.062 50.888 114.062C50.052 114.062 49.416 114.351 48.981 114.929C48.544 115.507 48.203 116.374 47.954 117.531V124.547H43.738V110.38H47.421L47.768 113.128C48.087 112.151 48.572 111.381 49.221 110.821C49.87 110.26 50.605 109.981 51.422 109.981C51.938 109.98 52.408 110.042 52.835 110.167ZM66.44 118.703H57.664C57.806 119.895 58.143 120.73 58.678 121.211C59.211 121.691 59.949 121.932 60.892 121.932C61.461 121.932 62.012 121.829 62.546 121.625C63.079 121.42 63.657 121.104 64.28 120.678L66.013 123.026C64.36 124.342 62.519 125 60.491 125C58.197 125 56.436 124.325 55.209 122.973C53.982 121.621 53.368 119.807 53.368 117.531C53.368 116.09 53.6259 114.796 54.142 113.649C54.658 112.502 55.4129 111.595 56.41 110.928C57.4049 110.261 58.598 109.928 59.984 109.928C62.029 109.928 63.63 110.568 64.787 111.848C65.942 113.128 66.52 114.908 66.52 117.183C66.521 117.77 66.494 118.276 66.44 118.703ZM62.386 115.982C62.351 113.813 61.5859 112.727 60.0919 112.727C59.3629 112.727 58.798 112.994 58.3979 113.527C57.9979 114.061 57.752 114.942 57.665 116.168H62.387V115.982H62.386ZM74.123 107.845C73.856 108.13 73.724 108.611 73.724 109.286V110.379H77.059L76.605 113.315H73.724V124.546H69.509V113.315H67.374V110.379H69.509V109.126C69.509 107.703 69.975 106.543 70.909 105.644C71.8429 104.746 73.18 104.297 74.924 104.297C76.329 104.297 77.618 104.6 78.792 105.204L77.646 107.952C76.9597 107.603 76.201 107.42 75.431 107.418C74.825 107.418 74.391 107.561 74.123 107.845ZM89.41 111.913C90.637 113.239 91.251 115.093 91.251 117.476C91.251 118.989 90.971 120.309 90.411 121.438C89.85 122.567 89.05 123.443 88.01 124.066C86.969 124.688 85.738 124.999 84.315 124.999C82.164 124.999 80.469 124.337 79.233 123.012C77.997 121.688 77.379 119.833 77.379 117.45C77.379 115.938 77.659 114.617 78.22 113.489C78.781 112.359 79.58 111.483 80.621 110.861C81.661 110.238 82.892 109.927 84.315 109.927C86.484 109.927 88.183 110.589 89.41 111.913ZM82.394 114.101C81.967 114.822 81.753 115.938 81.753 117.45C81.753 118.997 81.963 120.127 82.38 120.838C82.799 121.549 83.443 121.905 84.315 121.905C85.169 121.905 85.809 121.546 86.236 120.825C86.663 120.104 86.876 118.989 86.876 117.476C86.876 115.929 86.667 114.8 86.25 114.088C85.832 113.377 85.187 113.021 84.315 113.021C83.461 113.021 82.82 113.381 82.394 114.101ZM100.722 124.546L98.268 119.237L95.867 124.546H91.278L95.841 117.103L91.733 110.379H96.455L98.43 114.915L100.325 110.379H104.806L100.938 116.969L105.501 124.546H100.722Z" fill="#DD732A"/>
</svg>
