<svg width="128" height="128" viewBox="0 0 128 128" fill="none" xmlns="http://www.w3.org/2000/svg">
<path d="M63.861 99.2758C90.8816 99.2758 112.786 77.3574 112.786 50.3198C112.786 23.2821 90.8816 1.36377 63.861 1.36377C36.8405 1.36377 14.936 23.2821 14.936 50.3198C14.936 77.3574 36.8405 99.2758 63.861 99.2758Z" fill="#110070"/>
<path d="M63.8609 98.3521C90.3711 98.3521 111.862 76.8474 111.862 50.3201C111.862 23.7927 90.3711 2.28809 63.8609 2.28809C37.3506 2.28809 15.8599 23.7927 15.8599 50.3201C15.8599 76.8474 37.3506 98.3521 63.8609 98.3521Z" fill="url(#paint0_radial_3_7441)"/>
<path d="M56.977 75.1141C56.917 74.8541 56.27 74.0971 55.775 73.9281C55.281 73.7601 54.796 74.6581 54.477 73.1661C53.434 73.7661 52.983 73.0011 52.983 73.0011C52.983 73.0011 51.858 73.0671 51.64 74.4441C51.105 75.0791 49.731 77.3851 50.46 74.9861C51.194 72.5721 49.6859 74.7981 49.5449 76.0091C49.2829 76.5481 48.84 76.6021 49.118 74.1801C48.151 73.8461 47.657 71.6021 48.187 71.5581C47.571 70.6991 48.055 69.3871 48.568 69.4571C49.081 69.5231 49.9609 68.3351 49.9339 68.0601C49.9069 67.7861 50.331 67.9821 50.305 66.1341C50.278 64.2821 51.003 63.8231 51.063 65.3721C51.125 66.9161 52.047 64.8671 51.953 64.0811C51.857 63.2991 52.045 61.5301 52.607 62.5761C51.953 59.9891 52.468 59.8881 52.861 61.6091C53.845 61.6861 53.879 62.2101 53.879 62.2101C54.967 61.9421 55.489 62.7621 55.574 63.2231C56.582 62.0321 57.601 63.3161 57.601 63.3161C57.601 63.3161 58.304 63.0831 57.969 64.3061C57.631 65.5241 59.429 64.8651 59 63.9891C59.884 63.5411 61.198 64.8981 61.612 65.8241C62.026 66.7531 60.903 68.0691 61.779 68.3871C62.659 68.7031 62.2739 70.2341 62.2739 70.2341C62.2739 70.2341 64.115 71.2551 62.837 72.1331L62.402 73.1751C62.402 73.1751 63.234 74.1041 63.518 73.5511C63.801 72.9971 63.902 74.1141 63.902 74.1141C63.796 73.9171 64.1069 75.2641 65.2549 75.5481C66.4069 75.8301 67.137 77.6521 65.857 77.6741C64.582 77.6951 64.483 77.6601 64.138 78.4041C63.794 79.1451 62.167 79.1721 61.324 78.2121C60.428 78.5161 58.8329 78.1241 59.3019 77.4071C58.5289 77.8591 57.799 76.6481 58.403 76.1071C59.008 75.5681 58.063 74.8711 57.745 75.6431C57.432 76.4141 55.763 76.7941 55.88 75.4821C55.915 75.0921 56.8029 74.8651 56.8149 75.1901C56.978 75.5681 57.044 75.1631 56.977 75.1141Z" fill="url(#paint1_radial_3_7441)"/>
<path d="M96.6668 37.5732C96.9208 37.8262 97.4228 37.7702 97.6998 37.6932C97.9798 37.6132 97.9408 37.4142 98.1808 37.3372C98.4178 37.2582 99.3328 37.6932 99.0938 38.6432C98.5388 38.7212 98.3378 39.3952 98.3378 39.3952C98.3378 39.3952 97.7828 39.6322 97.5018 39.5152C97.2228 39.3952 97.2228 39.4342 96.8258 39.4732C96.4278 39.5152 95.4708 38.9612 96.5068 38.9612C97.5428 38.9612 96.3888 38.4842 95.9498 38.4842C95.5118 38.4842 95.8698 38.0492 96.3878 38.1682C96.0288 37.5732 96.2278 37.1362 96.6668 37.5732Z" fill="url(#paint2_radial_3_7441)"/>
<path d="M93.0769 39.7237C92.7999 39.9987 93.1179 40.8327 93.4749 40.7907C93.8319 40.7517 94.3909 40.5937 94.3909 40.5937C94.3909 40.5937 94.6679 41.1477 94.3909 41.3067C94.1129 41.4657 93.3029 41.3947 94.3519 41.7817C95.4269 42.1767 95.7039 42.0577 95.7839 41.8597C95.8649 41.6627 96.2219 40.9897 96.4219 41.0297C96.5819 40.6747 95.8649 40.3577 96.2629 40.1187C96.6589 39.8807 96.3429 39.0117 96.3429 39.0117C96.3429 39.0117 95.7839 39.0507 95.5459 39.4477C95.3069 39.8437 94.9899 39.4097 94.7509 39.4097C94.7099 39.6467 94.5509 39.8437 94.5509 39.8437L94.3929 39.4857C94.3919 39.4847 93.2749 39.4457 93.0769 39.7237Z" fill="url(#paint3_radial_3_7441)"/>
<path d="M85.6378 40.3759C85.6028 40.2739 85.9538 39.8639 85.8598 40.3949C85.6438 40.7729 86.7318 41.1129 87.0368 40.6919C88.0598 39.2899 86.0728 38.6119 85.2098 39.2629C84.3378 39.9209 83.8588 38.5119 84.8588 38.3109C85.8558 38.1099 85.9408 36.3079 84.8418 36.3009C85.8108 35.8219 84.4678 34.3889 83.3588 34.1439C83.1788 32.6029 81.5528 31.6229 80.6978 32.1819C79.8348 32.7429 79.7598 32.6449 78.4948 31.8769C77.2348 31.1129 76.6288 33.4669 77.5558 34.4959C78.4888 35.5309 77.8118 37.2009 77.8498 36.9149C77.8498 36.9149 77.4988 37.5459 77.5218 37.7829C76.4558 38.1439 76.1438 36.6419 75.4808 36.3099C74.9988 36.9399 74.2198 37.2749 74.2198 37.2749L74.2788 35.9939C74.2788 35.9939 70.9668 34.1909 69.9488 34.6949C68.6958 35.0829 68.3978 37.9859 69.5368 38.4119C70.6778 38.8409 68.1068 39.9099 70.6858 42.6289C73.3348 45.4209 74.3588 45.5019 74.8988 45.0459C75.1065 44.8764 75.3224 44.7172 75.5458 44.5689C75.5709 44.6791 75.6163 44.7835 75.6798 44.8769C76.3428 45.8739 74.1388 46.6599 73.8308 48.0879C73.5178 49.5309 73.8068 52.2159 75.1138 52.3069C75.3628 50.8759 77.8098 51.3819 76.4778 52.6789C75.1228 53.9999 76.0738 54.2339 76.0738 54.2339C76.0738 54.2339 76.1378 56.7099 78.2108 55.9179C78.1508 56.0599 78.1018 56.2409 78.0728 56.4389C77.4928 56.3219 76.0768 56.1449 75.7308 57.1329C75.2938 58.3799 73.4428 56.7099 72.1478 57.2699C70.8598 57.8259 68.9788 59.6499 69.6118 60.9339C70.8288 60.3569 71.7598 62.9579 70.0608 62.4259C68.3538 61.8889 68.6858 62.9049 68.6858 62.9049C68.6858 62.9049 66.9098 64.3059 68.5728 65.7969C67.9338 65.8959 66.7998 66.6069 67.1818 68.1679C67.1818 68.1679 66.4518 68.1939 66.3538 69.5909C63.9728 70.0699 64.1188 70.8089 67.6998 69.9999C66.2548 70.7499 68.7108 71.1039 69.7988 71.0029C70.8888 70.9039 73.7508 72.3149 71.6008 72.3299C69.4478 72.3429 70.0888 73.3959 72.6678 73.4469C75.2438 73.4999 74.9728 74.0959 75.3548 74.0719C75.7378 74.0439 77.4028 75.3579 77.3128 76.0859C77.2198 76.8149 79.0568 77.5709 80.2528 76.7359C80.3138 77.4929 83.4578 76.9019 83.9218 75.5349C87.3248 76.0559 87.2468 75.4199 86.4898 75.0159C84.7848 74.7559 81.6578 72.4899 85.0498 73.6559C88.4248 74.8199 85.1738 72.7399 84.2838 71.9419C82.3458 71.5649 82.2468 69.9499 82.2468 69.9499C82.2468 69.9499 83.3178 69.3419 82.4738 67.8179C84.5668 67.4289 83.3028 66.6929 83.5378 65.9909C83.7728 65.2869 84.8358 64.3899 85.2008 64.3179C85.2688 64.2229 85.8398 64.3369 85.3108 64.5509C84.8538 64.5559 85.1788 65.8419 85.7248 65.9079C87.5738 66.1319 87.0328 63.7189 85.9468 63.2339C84.8578 62.7439 85.8368 61.4169 86.5998 62.3099C87.3638 63.2029 89.0678 62.2009 88.4288 61.0699C89.4448 61.7749 89.9928 59.4949 89.5608 58.1879C90.9188 57.0099 90.8748 54.6619 89.8248 54.1349C89.3078 53.8759 89.0578 53.7099 88.9328 53.3879C89.5568 53.0929 90.3848 52.8759 90.7098 53.1669C91.2378 53.6449 92.7098 52.3269 92.6158 50.7879C93.2348 51.1269 94.2218 47.9889 93.3838 46.8909C95.3018 44.2089 94.7848 43.9659 94.1438 44.4149C93.1798 45.7529 90.0098 47.3529 92.4658 44.9819C94.8498 42.6809 91.8308 44.4259 90.8218 44.7999C89.6328 46.2879 88.3728 45.5729 88.3728 45.5729C88.3728 45.5729 88.4258 44.3539 86.8918 44.3279C87.5998 42.3719 86.4578 43.0779 86.0588 42.5449C85.6598 42.0129 85.5148 40.7089 85.6378 40.3759Z" fill="url(#paint4_radial_3_7441)"/>
<path d="M60.7709 20.7728C60.4739 21.5488 61.7429 22.8098 62.3799 22.4038C63.0199 21.9948 63.9339 21.1818 63.9339 21.1818C63.9339 21.1818 64.9049 21.9608 64.5129 22.5168C64.1169 23.0708 62.5449 23.6938 64.8209 23.4418C67.1559 23.1838 67.5799 22.7018 67.5699 22.2568C67.5579 21.8128 67.6859 20.2208 68.0899 20.1108C68.1019 19.2948 66.5029 19.3708 67.0569 18.5538C67.6109 17.7398 66.3109 16.4048 66.3109 16.4048C66.3109 16.4048 65.2979 16.9978 65.1709 17.9608C65.0439 18.9238 64.0959 18.4048 63.6479 18.6268C63.7629 19.1078 63.6259 19.6258 63.6259 19.6258L63.0399 19.1068C63.0399 19.1058 60.9179 20.0688 60.7709 20.7728Z" fill="url(#paint5_radial_3_7441)"/>
<path d="M64.5671 61.5265C64.2891 61.8025 64.6081 62.6335 64.9641 62.5945C65.3221 62.5545 65.8801 62.3965 65.8801 62.3965C65.8801 62.3965 66.1581 62.9505 65.8801 63.1095C65.6001 63.2675 64.7921 63.1995 65.8391 63.5845C66.9131 63.9805 67.1931 63.8615 67.2721 63.6645C67.3511 63.4665 67.7091 62.7935 67.9081 62.8315C68.0691 62.4775 67.3511 62.1605 67.7491 61.9235C68.1471 61.6835 67.8311 60.8145 67.8311 60.8145C67.8311 60.8145 67.2731 60.8535 67.0341 61.2495C66.7951 61.6455 66.4761 61.2085 66.2371 61.2085C66.1961 61.4465 66.0401 61.6455 66.0401 61.6455L65.8811 61.2895C65.8811 61.2895 64.7661 61.2495 64.5671 61.5265Z" fill="url(#paint6_radial_3_7441)"/>
<path d="M64.938 2.18894C64.187 2.35694 65.444 5.07694 65.444 5.07694C65.444 5.07694 65.399 6.90494 65.709 6.99794C66.017 7.09094 68.061 7.60194 69.128 8.93194C70.201 10.2619 69.643 10.9629 68.75 10.5779C67.856 10.1949 68.093 11.3689 68.093 11.3689C68.093 11.3689 70.79 12.2449 68.754 12.1889C66.713 12.1349 70.128 13.6259 69.902 13.7809C69.677 13.9389 69.549 14.7959 69.549 14.7959C69.549 14.7959 67.748 14.9459 69.274 15.5869C74.436 17.7609 68.722 17.1739 68.722 17.1739L67.993 18.0699L69.434 19.8789L70.544 20.6719C70.544 20.6719 72.879 19.8929 73.608 19.7709C74.337 19.6499 76.175 18.2729 76.175 18.2729C76.175 18.2729 76.727 18.6679 76.315 17.8639C75.902 17.0589 77.833 17.4179 78.314 18.0169L81.723 19.5569C81.767 19.6749 81.843 19.7819 81.964 19.8659C82.628 20.3309 81.363 21.1319 81.491 21.9779C81.62 22.8159 82.392 24.2069 83.24 24.0609C83.092 23.2619 84.767 23.1649 84.184 24.0549C83.602 24.9429 84.247 24.9259 84.247 24.9259C84.247 24.9259 84.785 26.1799 85.924 25.4829C85.878 25.8649 86.112 26.6359 87.089 26.6859C87.089 26.6859 86.985 27.1039 87.789 27.3989C87.679 28.8319 88.138 28.8769 88.25 26.7009C88.453 27.6559 89.068 26.3129 89.19 25.6699C89.315 25.0239 90.639 23.6059 90.281 24.8589C89.926 26.1019 94.185 26.5569 94.657 25.0719C95.133 23.5759 96.831 22.7939 96.882 22.5679C96.934 22.3359 93.103 21.9809 93.527 22.1609C93.951 22.3409 94.739 21.3799 94.446 20.5239C94.921 20.6199 95.13 18.6259 94.377 18.1109C95.32 16.1279 94.915 16.0659 94.528 16.4609C94.058 17.4549 92.119 18.9539 93.434 17.1069C94.762 15.2409 92.896 16.8729 92.248 17.2789C91.68 18.3839 90.682 18.1689 90.682 18.1689C90.682 18.1689 90.499 17.4179 89.432 17.6689C89.557 16.3399 88.894 16.9789 88.509 16.7169C88.275 16.5579 88.049 16.1999 87.91 15.8929C88.829 16.2659 90.064 16.6619 89.851 15.9789C89.714 15.5319 91.592 16.5089 91.658 16.3059L94.007 15.9789L96.29 14.5369C81.698 1.49894 64.938 2.18894 64.938 2.18894Z" fill="url(#paint7_linear_3_7441)"/>
<path d="M43.2472 6.3899C34.5292 10.3029 27.9512 18.3699 27.9512 18.3699C27.9512 18.3699 28.7242 20.1389 28.9932 20.0089C29.2662 19.8809 27.0472 24.6489 28.6762 24.9169C30.3132 25.1869 35.0222 21.9669 34.1482 22.2629C33.2782 22.5559 34.6402 20.5209 34.6402 20.5209C34.6402 20.5209 37.0902 19.4339 35.6412 20.6879C34.2032 21.9339 37.5522 20.8419 37.5002 21.0969C37.4462 21.3529 37.9322 22.0419 37.9322 22.0419C37.9322 22.0419 36.7842 23.2739 38.2672 22.7779C43.3562 21.0659 38.9372 24.2449 38.9372 24.2449L39.0242 25.3269L41.2262 25.7099L42.5262 25.5859C42.5262 25.5859 43.6652 23.5779 44.1052 23.0319C44.5462 22.4859 44.9532 20.3239 44.9532 20.3239C44.9532 20.3239 45.6162 20.2539 44.7782 19.9379C43.9402 19.6209 45.5792 18.6319 46.3332 18.7549L49.8812 17.6529C50.0005 17.7138 50.1353 17.7375 50.2682 17.7209C51.0812 17.6259 50.6722 19.0419 51.3352 19.5749C51.9922 20.1069 53.5022 20.6189 54.0422 19.9629C53.3952 19.4719 54.5972 18.3039 54.7512 19.3419C54.9052 20.3729 55.3832 19.9379 55.3832 19.9379C55.3832 19.9379 56.6552 17.7499 57.0622 16.4949C57.2852 16.8059 59.3612 13.7659 58.7322 12.3159C58.0962 10.8479 59.1272 9.4669 59.0122 9.2529C58.8942 9.0419 58.2732 9.6889 58.7322 9.5339C59.1942 9.3749 57.4222 10.1709 57.1872 7.8349C56.9492 5.4519 56.6042 8.0349 56.3742 8.7989C56.6842 10.0419 59.9112 3.7749 59.9112 3.7749L64.0702 2.0789C64.0682 2.0829 54.6032 1.2909 43.2472 6.3899Z" fill="url(#paint8_linear_3_7441)"/>
<path opacity="0.5" d="M62.9521 37.018C76.989 37.018 88.3681 29.6455 88.3681 20.551C88.3681 11.4565 76.989 4.08398 62.9521 4.08398C48.9153 4.08398 37.5361 11.4565 37.5361 20.551C37.5361 29.6455 48.9153 37.018 62.9521 37.018Z" fill="url(#paint9_linear_3_7441)"/>
<path d="M114.625 36.8882L113.449 44.4332C113.449 44.4332 111.768 30.4652 109.708 25.2432C106.55 17.2422 105.145 17.3062 105.136 17.3182C107.251 22.6932 106.867 25.5802 106.867 25.5802C106.867 25.5802 103.12 15.3662 93.2108 12.1172C81.4768 8.27117 75.4988 9.66017 75.5418 9.71417C75.5868 9.76717 87.6698 11.8262 89.8138 14.7722C89.8138 14.7722 84.6808 14.7722 79.5728 16.2432C79.3428 16.3092 98.3658 18.6192 102.256 37.6302C102.256 37.6302 100.171 33.2782 97.5908 32.5392C99.2868 37.6992 98.8518 47.4902 97.2368 52.3572C97.0288 52.9832 96.8158 49.6512 93.6338 48.2162C94.6518 55.5192 93.5728 67.1032 88.5058 70.2932C88.1108 70.5412 91.6818 58.8582 89.2238 63.3762C74.5498 85.8752 57.1038 72.4792 50.0278 67.7032C55.7078 69.0952 61.7398 68.0932 65.2338 65.7062C68.7588 63.2962 70.8428 61.5362 72.7158 61.9512C74.5878 62.3702 75.8338 60.4912 74.3798 58.8252C72.9248 57.1562 69.3908 54.8602 64.6098 56.1122C61.2378 56.9942 57.0598 60.7252 50.6818 56.9472C45.2408 53.7232 45.2778 51.1052 45.2778 49.4372C45.2778 47.7692 46.7618 45.2322 49.4638 45.6482C51.8818 46.0232 50.6078 44.6012 53.2118 45.6482C53.9208 45.9332 53.1408 42.2442 52.1318 39.8802C54.0748 35.8242 60.3808 34.6182 60.8508 34.2622C61.7038 33.6182 61.2348 33.2962 61.5258 32.3242C61.7968 31.4202 61.9718 28.9762 54.9158 29.6512C51.6678 29.9622 49.6028 25.7542 48.9258 24.7332C49.1458 23.4322 49.4968 22.2442 49.9738 21.1562C50.4578 20.1652 50.9858 19.2562 51.5148 18.5692L51.9528 17.9882C53.0048 16.7612 54.2958 15.7122 55.8468 14.8402C56.6548 14.3832 46.8028 14.8122 42.3678 20.5902C41.1788 20.7462 39.5458 20.4022 37.7218 20.4022C35.4338 20.4022 33.6368 20.6532 31.9748 21.0702C31.7078 21.1372 31.2788 21.1002 30.7528 20.9762C29.2898 19.4602 25.1488 15.8152 24.9598 10.8722C24.9598 10.8722 18.9398 15.4992 19.8398 28.1142C19.7598 35.0922 17.7008 33.0972 16.6408 36.8832C16.1478 38.6772 17.3828 40.0292 17.3828 40.0822C17.3808 40.1092 18.8628 38.4782 18.8628 38.4782C18.8628 38.4782 9.52683 54.6522 21.5848 75.3012C31.9768 93.1022 49.4168 100.968 67.5128 99.4372C70.7271 99.2296 73.9175 98.7458 77.0488 97.9912C119.209 87.7982 114.625 36.8882 114.625 36.8882Z" fill="url(#paint10_linear_3_7441)"/>
<path d="M48.7848 24.1279C48.7848 24.1279 50.6068 29.1069 54.6938 29.0919C62.4918 29.0609 62.6478 29.1689 62.6978 30.1159C62.8528 33.0019 61.4278 33.9479 60.8828 34.3589C60.3358 34.7679 52.9118 39.0729 52.6378 40.3039C52.3658 41.5339 44.0698 28.5969 44.0698 28.5969L48.7848 24.1279Z" fill="url(#paint11_linear_3_7441)"/>
<path d="M52.936 29.4971C52.936 29.4971 55.469 32.7311 53.554 34.0241C51.214 35.6041 56.862 35.9481 58.909 34.8001C60.955 33.6521 62.211 31.9651 62.283 31.7131C62.355 31.4611 63.028 29.1941 58.756 29.9841C56.054 30.4841 55.064 30.6001 52.936 29.4971Z" fill="url(#paint12_linear_3_7441)"/>
<path d="M60.8831 34.3592C61.2971 34.0462 62.2161 33.4212 62.5671 31.8762C62.3111 31.9802 62.2871 31.6862 61.9851 31.8132C56.2501 37.7962 56.0301 33.6292 52.9011 34.4682C50.0481 35.2492 49.4071 36.3202 49.2871 36.4042L49.4151 36.5862C50.2371 37.0042 51.0241 38.3362 51.6171 39.5252C52.1961 40.2142 52.5841 40.5532 52.6391 40.3042C52.9121 39.0732 60.3371 34.7682 60.8831 34.3592Z" fill="url(#paint13_linear_3_7441)"/>
<path d="M18.0381 39.1121C16.8681 41.5691 9.35508 54.2651 21.6161 75.3961C33.6151 96.0791 54.3811 102.833 75.5821 98.2441C81.6331 96.9351 88.6121 92.1991 93.0591 88.7251C90.2021 81.5181 91.8931 81.7881 90.3621 82.7371C73.2831 93.3111 59.7061 82.8801 49.1981 81.5481C10.5421 76.6491 18.1751 39.0371 18.1751 39.0371L18.0381 39.1121Z" fill="url(#paint14_linear_3_7441)"/>
<path d="M50.2278 68.0963C53.8708 69.1873 61.8208 68.2463 65.2348 65.7063C67.5348 63.9963 69.2738 62.7073 70.7348 62.1673C68.1518 60.4123 68.1098 62.9003 62.6768 64.1593C51.3568 66.7843 45.8618 61.1123 45.8618 61.1123C46.6638 65.6003 49.4668 67.7863 50.7278 68.5623C50.5538 68.4151 50.3869 68.2596 50.2278 68.0963Z" fill="url(#paint15_linear_3_7441)"/>
<path d="M37.9529 88.5928C37.9529 88.5928 28.5309 77.9608 25.8999 66.0528C22.0209 62.3898 19.2689 59.2908 17.4409 57.0508C18.4969 65.5248 22.8159 78.6808 37.9529 88.5928Z" fill="url(#paint16_linear_3_7441)"/>
<path d="M30.0918 78.9372C30.0918 78.9372 23.5889 69.6792 26.0269 61.8182C28.2209 54.7512 25.5609 58.9552 24.0139 60.4652C22.4519 61.9922 21.6488 55.9612 21.6888 55.2652L21.6879 55.2432C21.5899 55.2222 18.5918 69.6942 30.0918 78.9372Z" fill="url(#paint17_linear_3_7441)"/>
<path d="M20.4588 70.8672C20.4588 70.8672 18.9768 52.0772 23.6618 49.4222C31.1028 45.2032 24.2828 46.1902 22.1248 47.3602C19.9438 48.5422 20.1458 40.7642 20.4548 40.0262C20.7568 39.2972 12.7738 47.3792 20.4588 70.8672Z" fill="url(#paint18_linear_3_7441)"/>
<path d="M53.0152 15.5771C53.0152 15.5771 47.1242 21.5611 47.1682 21.5821C47.2122 21.6031 47.3372 29.2611 47.5302 31.4331C48.2352 32.2671 50.4352 37.6891 48.7522 36.4861C47.0322 35.2571 48.2722 35.2311 48.4222 35.8551V35.8862C48.3072 35.9391 44.1462 26.8781 53.0152 15.5771Z" fill="#A40000"/>
<path d="M24.9918 10.9658C24.9918 10.9658 18.7298 15.7698 19.9258 28.9458C24.7728 24.5948 31.6268 21.3418 31.6268 21.3418C30.4768 20.6168 25.2008 16.3958 24.9918 10.9658Z" fill="url(#paint19_linear_3_7441)"/>
<path d="M40.4229 25.3749L49.8279 37.0709C47.1139 25.5849 49.1999 18.6939 55.8799 14.9359C56.8679 14.3769 41.9249 15.1359 40.4229 25.3749Z" fill="url(#paint20_linear_3_7441)"/>
<path d="M33.797 54.268C35.401 44.163 49.464 45.649 49.464 45.649C48.837 46.115 46.427 46.394 45.737 48.321C43.46 54.686 45.632 68.589 59.818 74.419C61.316 75.037 31.427 69.202 33.797 54.268Z" fill="url(#paint21_linear_3_7441)"/>
<path d="M62.486 32.1502C62.417 32.1382 62.356 32.1392 62.325 32.1802C62.152 32.4112 61.484 33.2012 59.894 34.4972C56.939 36.9002 55.694 36.2912 53.493 36.7842C52.492 37.0082 51.5389 37.6802 50.8979 38.2202C51.1569 38.6402 51.399 39.0912 51.616 39.5242C52.195 40.2132 52.584 40.5522 52.638 40.3032C52.911 39.0732 60.337 34.7682 60.8829 34.3582C61.271 34.0672 62.094 33.4892 62.486 32.1502Z" fill="url(#paint22_linear_3_7441)"/>
<path d="M53.4191 47.4261C53.5011 45.2911 53.3531 40.1041 51.1321 37.8521C49.4361 36.1331 49.0381 34.1631 48.8101 31.9141C30.3711 38.8031 27.7381 47.8051 29.5821 47.5131C44.3301 45.1741 48.4761 44.8891 53.4191 47.4261Z" fill="url(#paint23_linear_3_7441)"/>
<path d="M14.1059 60.0462C14.1059 60.0462 15.3869 43.3972 23.7209 37.3042C30.2639 32.5182 25.1819 34.2562 22.6569 34.4542C19.9919 34.6652 18.5719 36.2852 19.0859 35.6892L19.1109 35.6442C19.0239 35.5412 12.8589 40.7152 14.1059 60.0462Z" fill="url(#paint24_linear_3_7441)"/>
<path d="M13.229 47.2552C13.229 47.2552 17.695 33.0802 26.72 33.2002C32.706 33.2802 27.958 28.1422 26.147 27.3612C24.257 26.5522 23.806 26.5842 23.365 26.9742C22.704 27.5602 16.766 27.3332 13.229 47.2552Z" fill="url(#paint25_linear_3_7441)"/>
<path d="M74.1102 61.1312C74.7892 60.4652 74.3162 57.9122 70.0502 56.3642C66.1802 54.9592 60.1392 58.5332 58.3462 59.2382C58.3462 59.2382 65.1892 57.9562 67.7542 58.3832C71.2332 58.9632 72.4552 62.7542 74.1102 61.1312Z" fill="url(#paint26_linear_3_7441)"/>
<path d="M19.8209 56.46C19.8209 56.46 19.0799 42.523 25.3249 36.571C30.2289 31.896 26.2069 33.887 24.1349 34.324C21.9509 34.788 20.9479 36.284 21.3109 35.735L21.3259 35.695C21.2409 35.62 16.6929 40.576 19.8209 56.46Z" fill="url(#paint27_linear_3_7441)"/>
<path d="M15.0112 52.0329C15.0112 52.0329 17.6512 38.3279 25.1472 34.0569C31.0342 30.7019 26.6502 31.6649 24.5332 31.5909C22.3012 31.5139 20.9692 32.7249 21.4512 32.2789L21.4762 32.2439C21.4132 32.1499 15.8042 35.8629 15.0112 52.0329Z" fill="url(#paint28_linear_3_7441)"/>
<path d="M23.9119 57.6585C23.9119 57.6585 22.4689 49.3515 25.5789 45.2635C28.0599 42.0015 25.8809 43.5965 24.7289 44.0675C23.5259 44.5585 23.0709 45.5275 23.2349 45.1715C23.3939 44.8245 17.8849 49.0925 23.9119 57.6585Z" fill="url(#paint29_linear_3_7441)"/>
<path d="M25.5601 49.825C25.5601 49.825 24.1181 41.519 27.2271 37.43C29.7091 34.167 27.5301 35.763 26.3781 36.233C25.1761 36.725 24.7201 37.694 24.8851 37.337C25.0431 36.991 19.5351 41.26 25.5601 49.825Z" fill="url(#paint30_linear_3_7441)"/>
<path d="M16.8379 38.4698C16.8379 38.4698 20.2089 31.5638 24.6889 30.2038C28.2639 29.1208 25.8009 29.1368 24.6999 28.8678C23.5489 28.5888 22.6959 29.0608 23.0059 28.8848C23.3099 28.7138 16.9619 28.9248 16.8379 38.4698Z" fill="url(#paint31_linear_3_7441)"/>
<path d="M16.3579 43.9346C16.3579 43.9346 19.7279 37.0296 24.2079 35.6696C27.7829 34.5856 25.3209 34.6006 24.2199 34.3316C23.0699 34.0526 22.2159 34.5246 22.5269 34.3496C22.8289 34.1776 16.4809 34.3906 16.3579 43.9346Z" fill="url(#paint32_linear_3_7441)"/>
<path d="M18.8052 42.427C18.8052 42.427 24.7492 30.246 32.6522 27.846C38.9602 25.933 34.6162 25.96 32.6722 25.488C30.6422 24.996 29.1362 25.829 29.6842 25.52C30.2202 25.218 19.0222 25.591 18.8052 42.427Z" fill="url(#paint33_linear_3_7441)"/>
<path d="M22.8682 35.8661C22.8682 35.8661 26.5662 28.2901 31.4812 26.7981C35.4032 25.6081 32.7022 25.6251 31.4932 25.3311C30.2302 25.0251 29.2952 25.5431 29.6352 25.3511C29.9672 25.1621 23.0032 25.3941 22.8682 35.8661Z" fill="url(#paint34_linear_3_7441)"/>
<path d="M24.0742 38.543C24.0742 38.543 27.4442 31.638 31.9232 30.279C35.4992 29.194 33.0362 29.209 31.9352 28.941C30.7842 28.662 29.9302 29.134 30.2422 28.96C30.5432 28.787 24.1972 29 24.0742 38.543Z" fill="url(#paint35_linear_3_7441)"/>
<path d="M62.6979 30.116C62.6589 29.396 62.5519 29.161 59.1069 29.103C59.7624 29.407 60.3759 29.7946 60.9319 30.256C61.9219 31.068 62.0819 31.972 62.1849 32.908C62.5209 32.27 62.7669 31.391 62.6979 30.116Z" fill="url(#paint36_linear_3_7441)"/>
<path d="M42.4628 20.4979L39.4738 25.3079C39.4738 25.3079 27.5218 23.4329 17.3888 33.2359C16.5508 34.0449 24.0158 15.9009 42.4628 20.4979Z" fill="url(#paint37_linear_3_7441)"/>
<path d="M31.729 29.1058C31.729 29.1058 34.914 23.1928 39.044 21.4048C36.91 21.4728 32.116 23.1418 31.729 29.1058Z" fill="url(#paint38_linear_3_7441)"/>
<path d="M19.4731 34.878C19.4731 34.878 22.8431 27.972 27.3231 26.613C30.8981 25.528 28.4361 25.544 27.3341 25.275C26.1831 24.996 25.3311 25.468 25.6421 25.293C25.9441 25.122 19.5961 25.333 19.4731 34.878Z" fill="url(#paint39_linear_3_7441)"/>
<path d="M26.5332 30.0119C26.5332 30.0119 30.0102 24.4459 34.1472 22.9639C32.0642 22.8949 27.2842 24.2219 26.5332 30.0119Z" fill="url(#paint40_linear_3_7441)"/>
<path d="M32.495 20.5041C32.495 20.5041 29.872 21.6501 25.249 19.7271L29.371 21.8001L32.495 20.5041Z" fill="url(#paint41_linear_3_7441)"/>
<path d="M31.2268 21.2391C31.2268 21.2391 27.7328 22.5931 21.0078 20.5771L26.7598 22.8661C27.4718 22.2081 31.2268 21.2391 31.2268 21.2391Z" fill="url(#paint42_linear_3_7441)"/>
<path d="M33.7769 20.1292C33.7769 20.1292 31.4579 20.8352 27.1729 19.1782L31.2949 21.2492C31.7309 20.8632 33.7769 20.1292 33.7769 20.1292Z" fill="url(#paint43_linear_3_7441)"/>
<path d="M26.5452 22.7949C26.5452 22.7949 24.8222 24.2259 20.4072 24.2839L24.2252 24.4089L26.5452 22.7949Z" fill="url(#paint44_linear_3_7441)"/>
<path d="M22.3521 30.1161C22.3521 30.1161 28.2501 22.4321 33.107 20.6941C30.66 20.6131 23.2331 23.3191 22.3521 30.1161Z" fill="url(#paint45_linear_3_7441)"/>
<path d="M113.7 43.2158C113.7 43.2158 114.335 57.4698 94.5337 77.2728C92.3327 79.4728 80.3848 90.6678 80.8048 94.0248C80.9538 95.2118 112.156 89.2388 113.7 43.2158Z" fill="url(#paint46_linear_3_7441)"/>
<path d="M75.3101 9.68801C99.1611 11.521 103.78 28.67 103.781 27.619C103.842 10.948 81.1531 9.68201 75.3101 9.68801Z" fill="url(#paint47_linear_3_7441)"/>
<path d="M82.5742 16.207C82.5742 16.207 99.1082 19.587 103.772 37.112C104.39 39.433 101.78 22.875 102.585 24.446C103.39 26.027 95.9312 16.732 82.5742 16.207Z" fill="url(#paint48_linear_3_7441)"/>
<path d="M89.1821 15.7778C89.1821 15.7778 104.115 18.8908 104.264 42.5828C104.368 59.3528 106.853 48.8778 109.319 45.1098C111.445 41.8528 109.992 37.8858 109.941 37.8968C109.932 37.8978 108.865 34.8098 109.585 36.1188C109.617 36.1768 108.582 35.2658 108.59 35.2648C108.755 35.2408 108.014 18.2368 89.1821 15.7778Z" fill="url(#paint49_linear_3_7441)"/>
<path d="M105.998 18.9888C105.998 18.9888 111.361 32.9598 105.677 39.9078C103.822 42.1758 103.614 53.7918 105.881 52.7248C108.153 51.6568 107.659 58.8938 107.362 59.7158L107.357 59.7418C107.504 59.8328 118.563 41.8828 105.998 18.9888Z" fill="url(#paint50_linear_3_7441)"/>
<path d="M98.5408 33.6968C98.5408 33.6968 101.917 43.5828 98.3818 50.6498L101.056 56.6228C103.019 51.8048 105.516 41.6138 98.5408 33.6968Z" fill="url(#paint51_linear_3_7441)"/>
<path d="M104.479 32.521C104.479 32.521 106.814 48.211 98.3892 62.375C98.5192 65.651 97.9442 68.617 97.1552 71.06C97.5222 71.542 98.0132 71.873 98.6612 71.931C98.3752 72.195 98.0902 72.442 97.8152 72.677C97.3092 72.901 96.7912 73.136 96.2882 73.38L95.9682 74.106C96.604 73.6571 97.2199 73.1806 97.8142 72.678C99.5352 71.917 101.084 71.327 101.081 71.325L100.006 71.718C99.4952 71.903 99.0492 71.967 98.6602 71.932C105.167 66.001 114.084 52.741 104.479 32.521ZM94.6622 74.234C93.9182 74.671 93.3762 75.08 93.2612 75.395C93.1762 75.625 93.6832 75.492 94.5602 75C94.6052 74.737 94.6432 74.479 94.6622 74.234Z" fill="url(#paint52_linear_3_7441)"/>
<path d="M94.0858 49.2393C94.0858 49.2393 100.729 68.1483 79.4978 85.8753C78.2458 86.9213 88.1158 86.4733 88.9798 86.0813C91.5238 84.9253 94.5318 77.2123 94.1758 78.1343C93.8248 79.0583 104.036 64.5013 94.0858 49.2393Z" fill="url(#paint53_linear_3_7441)"/>
<path d="M103.377 61.2324C103.377 61.2324 99.3708 85.7564 71.6648 87.7304C60.8168 88.5044 45.2408 85.9644 46.6198 90.1034C47.0478 91.3854 49.0868 96.7344 53.7408 97.9764C66.3348 101.335 99.8438 100.235 103.377 61.2324Z" fill="url(#paint54_linear_3_7441)"/>
<path d="M80.2718 79.792C80.2718 79.792 63.3198 83.666 52.3378 74.316C42.2888 65.76 47.2738 72.961 48.6378 76.513C50.0378 80.156 42.1618 77.373 40.9778 76.787C39.7988 76.209 59.6318 88.6469 80.2718 79.792Z" fill="url(#paint55_linear_3_7441)"/>
<path d="M69.3479 89.0316C69.3479 89.0316 49.1259 85.0576 42.7239 71.3546C37.2529 59.6486 38.7009 68.2386 38.4539 72.1486C38.1949 76.1696 32.5249 70.6776 31.7669 69.7226L31.7289 69.6876C31.6169 69.7626 42.1579 86.2886 69.3479 89.0316Z" fill="url(#paint56_linear_3_7441)"/>
<path d="M47.257 87.2587C47.257 87.2587 37.599 79.7787 33.244 69.5207C29.585 68.2497 24.72 65.3427 24.623 64.8447C26.169 72.8157 34.309 82.1217 47.257 87.2587Z" fill="url(#paint57_linear_3_7441)"/>
<path d="M28.687 111.18V116.088H34.076V119.209H28.687V126.546H24.312V108.057H35.33L34.876 111.18H28.687ZM41.905 105.59C42.376 106.043 42.613 106.617 42.613 107.311C42.613 108.005 42.377 108.578 41.905 109.032C41.434 109.485 40.834 109.712 40.105 109.712C39.375 109.712 38.779 109.485 38.318 109.032C37.855 108.578 37.624 108.005 37.624 107.311C37.624 106.617 37.855 106.043 38.318 105.59C38.779 105.136 39.375 104.91 40.105 104.91C40.834 104.91 41.434 105.136 41.905 105.59ZM38.024 126.546V112.379H42.239V126.546H38.024ZM54.645 112.167L53.978 116.249C53.445 116.124 53.018 116.062 52.698 116.062C51.862 116.062 51.226 116.351 50.79 116.929C50.353 117.507 50.012 118.374 49.763 119.531V126.547H45.548V112.38H49.23L49.577 115.128C49.897 114.151 50.381 113.381 51.031 112.821C51.68 112.26 52.414 111.981 53.232 111.981C53.747 111.98 54.217 112.042 54.645 112.167ZM68.25 120.703H59.473C59.615 121.895 59.953 122.73 60.487 123.211C61.021 123.692 61.758 123.932 62.701 123.932C63.27 123.932 63.821 123.829 64.355 123.625C64.889 123.421 65.466 123.104 66.089 122.678L67.823 125.026C66.169 126.342 64.329 127 62.301 127C60.007 127 58.246 126.325 57.019 124.973C55.792 123.621 55.178 121.807 55.178 119.531C55.178 118.09 55.436 116.796 55.952 115.649C56.467 114.502 57.223 113.595 58.219 112.928C59.215 112.261 60.407 111.928 61.794 111.928C63.839 111.928 65.44 112.568 66.596 113.848C67.752 115.128 68.33 116.908 68.33 119.183C68.33 119.77 68.304 120.276 68.25 120.703ZM64.195 117.982C64.159 115.813 63.395 114.727 61.901 114.727C61.172 114.727 60.607 114.994 60.207 115.527C59.807 116.061 59.561 116.942 59.473 118.168H64.195V117.982ZM75.933 109.845C75.666 110.13 75.534 110.611 75.534 111.286V112.379H78.868L78.414 115.315H75.533V126.546H71.318V115.315H69.183V112.379H71.318V111.126C71.318 109.703 71.784 108.543 72.719 107.644C73.653 106.746 74.99 106.297 76.733 106.297C78.138 106.297 79.428 106.6 80.602 107.204L79.455 109.952C78.7688 109.603 78.01 109.42 77.24 109.418C76.635 109.418 76.2 109.561 75.933 109.845ZM91.22 113.913C92.447 115.239 93.061 117.093 93.061 119.476C93.061 120.989 92.781 122.309 92.221 123.438C91.66 124.567 90.86 125.443 89.82 126.066C88.779 126.688 87.548 126.999 86.125 126.999C83.973 126.999 82.279 126.337 81.042 125.012C79.806 123.688 79.188 121.833 79.188 119.45C79.188 117.938 79.468 116.617 80.028 115.489C80.589 114.359 81.389 113.483 82.429 112.861C83.47 112.238 84.7 111.927 86.124 111.927C88.293 111.927 89.992 112.589 91.22 113.913ZM84.203 116.101C83.777 116.822 83.563 117.938 83.563 119.45C83.563 120.997 83.772 122.127 84.19 122.838C84.608 123.549 85.253 123.905 86.125 123.905C86.979 123.905 87.619 123.546 88.045 122.825C88.472 122.104 88.685 120.989 88.685 119.476C88.685 117.929 88.476 116.8 88.059 116.088C87.641 115.377 86.996 115.021 86.125 115.021C85.271 115.021 84.63 115.381 84.203 116.101ZM102.531 126.546L100.077 121.237L97.676 126.546H93.087L97.65 119.103L93.542 112.379H98.264L100.238 116.915L102.133 112.379H106.615L102.746 118.969L107.309 126.546H102.531Z" fill="#383838"/>
<defs>
<radialGradient id="paint0_radial_3_7441" cx="0" cy="0" r="1" gradientUnits="userSpaceOnUse" gradientTransform="translate(64.5329 7.32209) scale(85.933)">
<stop stop-color="#67C5D5"/>
<stop offset="0.16" stop-color="#66C2D3"/>
<stop offset="0.28" stop-color="#62B9CE"/>
<stop offset="0.385" stop-color="#5CA8C6"/>
<stop offset="0.483" stop-color="#5392BA"/>
<stop offset="0.576" stop-color="#4874AA"/>
<stop offset="0.665" stop-color="#3A5097"/>
<stop offset="0.749" stop-color="#2A2781"/>
<stop offset="0.815" stop-color="#1B006D"/>
<stop offset="1" stop-color="#596AAD"/>
</radialGradient>
<radialGradient id="paint1_radial_3_7441" cx="0" cy="0" r="1" gradientUnits="userSpaceOnUse" gradientTransform="translate(64.519 13.0501) scale(43.068 43.068)">
<stop stop-color="#0F80BC"/>
<stop offset="0.338" stop-color="#0A5F9E"/>
<stop offset="1" stop-color="#00145A"/>
</radialGradient>
<radialGradient id="paint2_radial_3_7441" cx="0" cy="0" r="1" gradientUnits="userSpaceOnUse" gradientTransform="translate(64.5187 13.0563) scale(43.0631 43.063)">
<stop stop-color="#0F80BC"/>
<stop offset="0.338" stop-color="#0A5F9E"/>
<stop offset="1" stop-color="#00145A"/>
</radialGradient>
<radialGradient id="paint3_radial_3_7441" cx="0" cy="0" r="1" gradientUnits="userSpaceOnUse" gradientTransform="translate(64.5159 13.0417) scale(43.076 43.076)">
<stop stop-color="#0F80BC"/>
<stop offset="0.338" stop-color="#0A5F9E"/>
<stop offset="1" stop-color="#00145A"/>
</radialGradient>
<radialGradient id="paint4_radial_3_7441" cx="0" cy="0" r="1" gradientUnits="userSpaceOnUse" gradientTransform="translate(65.2228 17.1289) scale(47.313 47.313)">
<stop stop-color="#0F80BC"/>
<stop offset="0.264" stop-color="#0B629B"/>
<stop offset="0.844" stop-color="#031747"/>
<stop offset="1" stop-color="#00022F"/>
</radialGradient>
<radialGradient id="paint5_radial_3_7441" cx="0" cy="0" r="1" gradientUnits="userSpaceOnUse" gradientTransform="translate(64.5179 13.0498) scale(43.071 43.071)">
<stop stop-color="#0F80BC"/>
<stop offset="0.338" stop-color="#0A5F9E"/>
<stop offset="1" stop-color="#00145A"/>
</radialGradient>
<radialGradient id="paint6_radial_3_7441" cx="0" cy="0" r="1" gradientUnits="userSpaceOnUse" gradientTransform="translate(64.5191 13.0504) scale(43.069 43.069)">
<stop stop-color="#0F80BC"/>
<stop offset="0.338" stop-color="#0A5F9E"/>
<stop offset="1" stop-color="#00145A"/>
</radialGradient>
<linearGradient id="paint7_linear_3_7441" x1="74.265" y1="15.0449" x2="88.167" y2="16.2299" gradientUnits="userSpaceOnUse">
<stop stop-color="#0F80BC"/>
<stop offset="0.338" stop-color="#0A5F9E"/>
<stop offset="1" stop-color="#00145A"/>
</linearGradient>
<linearGradient id="paint8_linear_3_7441" x1="43.0312" y1="17.1499" x2="35.3482" y2="28.4339" gradientUnits="userSpaceOnUse">
<stop stop-color="#0F80BC"/>
<stop offset="0.338" stop-color="#0A5F9E"/>
<stop offset="1" stop-color="#00145A"/>
</linearGradient>
<linearGradient id="paint9_linear_3_7441" x1="62.9521" y1="29.848" x2="62.9521" y2="11.171" gradientUnits="userSpaceOnUse">
<stop offset="0.014" stop-opacity="0"/>
<stop offset="0.65" stop-color="#C4E0E3" stop-opacity="0.2"/>
<stop offset="0.822" stop-color="#C4E0E3"/>
<stop offset="0.85" stop-color="#CDE5E8"/>
<stop offset="0.944" stop-color="#E8F4F7"/>
<stop offset="1" stop-color="#F2FAFC"/>
</linearGradient>
<linearGradient id="paint10_linear_3_7441" x1="64.4588" y1="47.7862" x2="75.9928" y2="41.0122" gradientUnits="userSpaceOnUse">
<stop stop-color="#DF731B"/>
<stop offset="0.545" stop-color="#DF731B"/>
<stop offset="0.701" stop-color="#EC8811"/>
<stop offset="0.859" stop-color="#F4950B"/>
<stop offset="1" stop-color="#F79A09"/>
</linearGradient>
<linearGradient id="paint11_linear_3_7441" x1="45.7908" y1="31.8399" x2="54.7438" y2="32.6069" gradientUnits="userSpaceOnUse">
<stop offset="0.011" stop-color="#941403"/>
<stop offset="0.897" stop-color="#E85C0A"/>
</linearGradient>
<linearGradient id="paint12_linear_3_7441" x1="31.453" y1="29.3571" x2="63.769" y2="33.3971" gradientUnits="userSpaceOnUse">
<stop offset="0.011" stop-color="#941403"/>
<stop offset="0.136" stop-color="#A32104"/>
<stop offset="0.498" stop-color="#C84107"/>
<stop offset="0.789" stop-color="#DF5509"/>
<stop offset="0.972" stop-color="#E85C0A"/>
</linearGradient>
<linearGradient id="paint13_linear_3_7441" x1="51.4751" y1="37.9062" x2="54.0511" y2="36.7732" gradientUnits="userSpaceOnUse">
<stop stop-color="#F2C8A9"/>
<stop offset="1" stop-color="#FFFFCC"/>
</linearGradient>
<linearGradient id="paint14_linear_3_7441" x1="43.2591" y1="69.4561" x2="86.6051" y2="71.2411" gradientUnits="userSpaceOnUse">
<stop stop-color="#B30000"/>
<stop offset="1" stop-color="#DF731B"/>
</linearGradient>
<linearGradient id="paint15_linear_3_7441" x1="53.5738" y1="62.7293" x2="76.1748" y2="70.7983" gradientUnits="userSpaceOnUse">
<stop stop-color="#941403"/>
<stop offset="1" stop-color="#DF731B"/>
</linearGradient>
<linearGradient id="paint16_linear_3_7441" x1="15.2508" y1="70.3827" x2="37.2575" y2="71.459" gradientUnits="userSpaceOnUse">
<stop offset="0.056" stop-color="#B30000"/>
<stop offset="1" stop-color="#DE5C01"/>
</linearGradient>
<linearGradient id="paint17_linear_3_7441" x1="25.1107" y1="64.2062" x2="32.5951" y2="102.513" gradientUnits="userSpaceOnUse">
<stop offset="0.056" stop-color="#DE7210"/>
<stop offset="1" stop-color="#F6C08F"/>
</linearGradient>
<linearGradient id="paint18_linear_3_7441" x1="22.0857" y1="51.4926" x2="20.2176" y2="92.9641" gradientUnits="userSpaceOnUse">
<stop offset="0.056" stop-color="#DE7210"/>
<stop offset="1" stop-color="#F6C08F"/>
</linearGradient>
<linearGradient id="paint19_linear_3_7441" x1="26.4218" y1="26.7968" x2="21.9178" y2="15.2548" gradientUnits="userSpaceOnUse">
<stop offset="0.011" stop-color="#941403"/>
<stop offset="0.472" stop-color="#E85C0A"/>
<stop offset="1" stop-color="#F9BD5F"/>
</linearGradient>
<linearGradient id="paint20_linear_3_7441" x1="45.6809" y1="29.4439" x2="56.4729" y2="15.2589" gradientUnits="userSpaceOnUse">
<stop offset="0.197" stop-color="#DE7210"/>
<stop offset="0.843" stop-color="#F9BD5F"/>
<stop offset="1" stop-color="#FFFCCF"/>
</linearGradient>
<linearGradient id="paint21_linear_3_7441" x1="39.975" y1="48.809" x2="50.915" y2="70.689" gradientUnits="userSpaceOnUse">
<stop offset="0.017" stop-color="#941403"/>
<stop offset="0.5" stop-color="#E35100"/>
<stop offset="1" stop-color="#DF731B"/>
</linearGradient>
<linearGradient id="paint22_linear_3_7441" x1="56.4999" y1="35.3902" x2="59.2309" y2="37.8652" gradientUnits="userSpaceOnUse">
<stop stop-color="#EEA272"/>
<stop offset="0.186" stop-color="#EFA777"/>
<stop offset="0.406" stop-color="#F2B585"/>
<stop offset="0.643" stop-color="#F6CD9C"/>
<stop offset="0.89" stop-color="#FCEEBB"/>
<stop offset="1" stop-color="#FFFFCC"/>
</linearGradient>
<linearGradient id="paint23_linear_3_7441" x1="40.5651" y1="41.2381" x2="53.1161" y2="54.0451" gradientUnits="userSpaceOnUse">
<stop offset="0.197" stop-color="#DF731B"/>
<stop offset="0.843" stop-color="#F9BD5F"/>
<stop offset="1" stop-color="#FFFCCF"/>
</linearGradient>
<linearGradient id="paint24_linear_3_7441" x1="22.4919" y1="35.1925" x2="10.5369" y2="80.6973" gradientUnits="userSpaceOnUse">
<stop offset="0.056" stop-color="#DE7210"/>
<stop offset="1" stop-color="#F6C08F"/>
</linearGradient>
<linearGradient id="paint25_linear_3_7441" x1="23.7372" y1="31.2046" x2="6.04555" y2="60.1743" gradientUnits="userSpaceOnUse">
<stop offset="0.056" stop-color="#DE7210"/>
<stop offset="1" stop-color="#F2C06E"/>
</linearGradient>
<linearGradient id="paint26_linear_3_7441" x1="78.0222" y1="57.3032" x2="61.1242" y2="60.5302" gradientUnits="userSpaceOnUse">
<stop offset="0.005" stop-color="#FFFAEE"/>
<stop offset="0.276" stop-color="#F5F89B"/>
<stop offset="0.31" stop-color="#F3ED91"/>
<stop offset="0.467" stop-color="#ECC267"/>
<stop offset="0.618" stop-color="#E6A046"/>
<stop offset="0.761" stop-color="#E2872E"/>
<stop offset="0.892" stop-color="#E07820"/>
<stop offset="1" stop-color="#DF731B"/>
</linearGradient>
<linearGradient id="paint27_linear_3_7441" x1="23.7801" y1="34.3968" x2="18.8254" y2="73.4052" gradientUnits="userSpaceOnUse">
<stop offset="0.056" stop-color="#DE7210"/>
<stop offset="1" stop-color="#F2C06E"/>
</linearGradient>
<linearGradient id="paint28_linear_3_7441" x1="24.6482" y1="31.0821" x2="10.4102" y2="67.7327" gradientUnits="userSpaceOnUse">
<stop offset="0.056" stop-color="#DE7210"/>
<stop offset="1" stop-color="#F2C06E"/>
</linearGradient>
<linearGradient id="paint29_linear_3_7441" x1="23.8427" y1="49.0815" x2="24.597" y2="68.8074" gradientUnits="userSpaceOnUse">
<stop offset="0.056" stop-color="#DE7210"/>
<stop offset="1" stop-color="#F2C072"/>
</linearGradient>
<linearGradient id="paint30_linear_3_7441" x1="25.4904" y1="41.2493" x2="26.2444" y2="60.973" gradientUnits="userSpaceOnUse">
<stop offset="0.056" stop-color="#DE7210"/>
<stop offset="1" stop-color="#F2C072"/>
</linearGradient>
<linearGradient id="paint31_linear_3_7441" x1="21.4469" y1="32.5828" x2="16.6559" y2="41.5248" gradientUnits="userSpaceOnUse">
<stop offset="0.056" stop-color="#DE7210"/>
<stop offset="1" stop-color="#EED8A5"/>
</linearGradient>
<linearGradient id="paint32_linear_3_7441" x1="20.9649" y1="38.0486" x2="16.1759" y2="46.9886" gradientUnits="userSpaceOnUse">
<stop offset="0.056" stop-color="#DE7210"/>
<stop offset="1" stop-color="#EED8A5"/>
</linearGradient>
<linearGradient id="paint33_linear_3_7441" x1="26.3932" y1="34.254" x2="21.7632" y2="45.749" gradientUnits="userSpaceOnUse">
<stop offset="0.056" stop-color="#DE7210"/>
<stop offset="1" stop-color="#F2C072"/>
</linearGradient>
<linearGradient id="paint34_linear_3_7441" x1="28.1542" y1="28.6581" x2="17.2042" y2="45.0821" gradientUnits="userSpaceOnUse">
<stop offset="0.056" stop-color="#DE7210"/>
<stop offset="1" stop-color="#F2C072"/>
</linearGradient>
<linearGradient id="paint35_linear_3_7441" x1="28.8912" y1="31.975" x2="18.9112" y2="46.944" gradientUnits="userSpaceOnUse">
<stop offset="0.056" stop-color="#DE7210"/>
<stop offset="1" stop-color="#F2C072"/>
</linearGradient>
<linearGradient id="paint36_linear_3_7441" x1="61.0019" y1="29.643" x2="61.7929" y2="31.052" gradientUnits="userSpaceOnUse">
<stop stop-color="#8B8B89"/>
<stop offset="1" stop-color="#120500"/>
</linearGradient>
<linearGradient id="paint37_linear_3_7441" x1="29.8938" y1="24.8559" x2="29.8938" y2="20.5299" gradientUnits="userSpaceOnUse">
<stop offset="0.056" stop-color="#DE7210"/>
<stop offset="1" stop-color="#F6C08F"/>
</linearGradient>
<linearGradient id="paint38_linear_3_7441" x1="30.1423" y1="29.6778" x2="39.6105" y2="19.4686" gradientUnits="userSpaceOnUse">
<stop offset="0.056" stop-color="#DE7210"/>
<stop offset="1" stop-color="#F6C08F"/>
</linearGradient>
<linearGradient id="paint39_linear_3_7441" x1="24.0811" y1="28.991" x2="19.2911" y2="37.933" gradientUnits="userSpaceOnUse">
<stop offset="0.056" stop-color="#DE7210"/>
<stop offset="1" stop-color="#EED8A5"/>
</linearGradient>
<linearGradient id="paint40_linear_3_7441" x1="24.833" y1="30.4497" x2="34.704" y2="21.0896" gradientUnits="userSpaceOnUse">
<stop offset="0.056" stop-color="#DE7210"/>
<stop offset="1" stop-color="#F6C08F"/>
</linearGradient>
<linearGradient id="paint41_linear_3_7441" x1="22.2937" y1="19.2949" x2="32.7483" y2="21.7005" gradientUnits="userSpaceOnUse">
<stop offset="0.056" stop-color="#DE7210"/>
<stop offset="1" stop-color="#F6C08F"/>
</linearGradient>
<linearGradient id="paint42_linear_3_7441" x1="17.0518" y1="20.4181" x2="32.0538" y2="22.4721" gradientUnits="userSpaceOnUse">
<stop offset="0.056" stop-color="#DE7210"/>
<stop offset="1" stop-color="#F6C08F"/>
</linearGradient>
<linearGradient id="paint43_linear_3_7441" x1="24.4023" y1="18.9494" x2="34.0089" y2="21.16" gradientUnits="userSpaceOnUse">
<stop offset="0.056" stop-color="#DE7210"/>
<stop offset="1" stop-color="#F6C08F"/>
</linearGradient>
<linearGradient id="paint44_linear_3_7441" x1="23.8282" y1="23.5759" x2="15.0222" y2="22.6719" gradientUnits="userSpaceOnUse">
<stop offset="0.056" stop-color="#DE7210"/>
<stop offset="1" stop-color="#F6C08F"/>
</linearGradient>
<linearGradient id="paint45_linear_3_7441" x1="20.297" y1="31.0484" x2="33.8926" y2="18.1565" gradientUnits="userSpaceOnUse">
<stop offset="0.056" stop-color="#DE7210"/>
<stop offset="1" stop-color="#F6C08F"/>
</linearGradient>
<linearGradient id="paint46_linear_3_7441" x1="84.1248" y1="98.1368" x2="107.982" y2="61.3408" gradientUnits="userSpaceOnUse">
<stop stop-color="#DE5C01"/>
<stop offset="0.736" stop-color="#FEFD00"/>
<stop offset="0.778" stop-color="#FEFE26"/>
<stop offset="0.837" stop-color="#FFFE54"/>
<stop offset="0.889" stop-color="#FFFF76"/>
<stop offset="0.932" stop-color="#FFFF8B"/>
<stop offset="0.961" stop-color="#FFFF92"/>
</linearGradient>
<linearGradient id="paint47_linear_3_7441" x1="97.9981" y1="20.11" x2="82.3771" y2="13.25" gradientUnits="userSpaceOnUse">
<stop stop-color="#F79A09"/>
<stop offset="0.736" stop-color="#FEFD00"/>
<stop offset="0.778" stop-color="#FEFE26"/>
<stop offset="0.837" stop-color="#FFFE54"/>
<stop offset="0.889" stop-color="#FFFF76"/>
<stop offset="0.932" stop-color="#FFFF8B"/>
<stop offset="0.961" stop-color="#FFFF92"/>
</linearGradient>
<linearGradient id="paint48_linear_3_7441" x1="108.492" y1="35.769" x2="86.6222" y2="15.467" gradientUnits="userSpaceOnUse">
<stop stop-color="#DE5C01"/>
<stop offset="0.736" stop-color="#FEFD00"/>
<stop offset="0.778" stop-color="#FEFE26"/>
<stop offset="0.837" stop-color="#FFFE54"/>
<stop offset="0.889" stop-color="#FFFF76"/>
<stop offset="0.932" stop-color="#FFFF8B"/>
<stop offset="0.961" stop-color="#FFFF92"/>
</linearGradient>
<linearGradient id="paint49_linear_3_7441" x1="101.93" y1="34.6314" x2="92.5077" y2="25.4178" gradientUnits="userSpaceOnUse">
<stop stop-color="#F79A09"/>
<stop offset="0.736" stop-color="#FEFD00"/>
<stop offset="0.778" stop-color="#FEFE26"/>
<stop offset="0.837" stop-color="#FFFE54"/>
<stop offset="0.889" stop-color="#FFFF76"/>
<stop offset="0.932" stop-color="#FFFF8B"/>
<stop offset="0.961" stop-color="#FFFF92"/>
</linearGradient>
<linearGradient id="paint50_linear_3_7441" x1="104.825" y1="47.4008" x2="109.978" y2="29.6728" gradientUnits="userSpaceOnUse">
<stop stop-color="#F79A09"/>
<stop offset="0.736" stop-color="#FEFD00"/>
<stop offset="0.778" stop-color="#FEFE26"/>
<stop offset="0.837" stop-color="#FFFE54"/>
<stop offset="0.889" stop-color="#FFFF76"/>
<stop offset="0.932" stop-color="#FFFF8B"/>
<stop offset="0.961" stop-color="#FFFF92"/>
</linearGradient>
<linearGradient id="paint51_linear_3_7441" x1="101.128" y1="51.5041" x2="100.387" y2="38.0392" gradientUnits="userSpaceOnUse">
<stop stop-color="#F79A09"/>
<stop offset="0.736" stop-color="#FEFD00"/>
<stop offset="0.778" stop-color="#FEFE26"/>
<stop offset="0.837" stop-color="#FFFE54"/>
<stop offset="0.889" stop-color="#FFFF76"/>
<stop offset="0.932" stop-color="#FFFF8B"/>
<stop offset="0.961" stop-color="#FFFF92"/>
</linearGradient>
<linearGradient id="paint52_linear_3_7441" x1="98.1576" y1="63.2254" x2="106.125" y2="44.3163" gradientUnits="userSpaceOnUse">
<stop stop-color="#F79A09"/>
<stop offset="0.736" stop-color="#FEFD00"/>
<stop offset="0.778" stop-color="#FEFE26"/>
<stop offset="0.837" stop-color="#FFFE54"/>
<stop offset="0.889" stop-color="#FFFF76"/>
<stop offset="0.932" stop-color="#FFFF8B"/>
<stop offset="0.961" stop-color="#FFFF92"/>
</linearGradient>
<linearGradient id="paint53_linear_3_7441" x1="88.6184" y1="78.8649" x2="88.426" y2="58.5623" gradientUnits="userSpaceOnUse">
<stop stop-color="#DE5C01"/>
<stop offset="0.736" stop-color="#FEFD00"/>
<stop offset="0.778" stop-color="#FEFE26"/>
<stop offset="0.837" stop-color="#FFFE54"/>
<stop offset="0.889" stop-color="#FFFF76"/>
<stop offset="0.932" stop-color="#FFFF8B"/>
<stop offset="0.961" stop-color="#FFFF92"/>
</linearGradient>
<linearGradient id="paint54_linear_3_7441" x1="59.4208" y1="95.2444" x2="98.5908" y2="71.8324" gradientUnits="userSpaceOnUse">
<stop stop-color="#B9120D"/>
<stop offset="0.078" stop-color="#BB180D"/>
<stop offset="0.182" stop-color="#C0290C"/>
<stop offset="0.301" stop-color="#C8450A"/>
<stop offset="0.431" stop-color="#D36C08"/>
<stop offset="0.571" stop-color="#E29E05"/>
<stop offset="0.715" stop-color="#F4DA02"/>
<stop offset="0.792" stop-color="#FEFD00"/>
<stop offset="0.814" stop-color="#FEFD07"/>
<stop offset="0.846" stop-color="#FEFD1B"/>
<stop offset="0.884" stop-color="#FEFE3C"/>
<stop offset="0.927" stop-color="#FFFE69"/>
<stop offset="0.974" stop-color="#FFFFA3"/>
<stop offset="1" stop-color="#FFFFC7"/>
</linearGradient>
<linearGradient id="paint55_linear_3_7441" x1="56.8198" y1="77.5645" x2="96.2079" y2="86.9468" gradientUnits="userSpaceOnUse">
<stop offset="0.056" stop-color="#DE7210"/>
<stop offset="1" stop-color="#F6C08F"/>
</linearGradient>
<linearGradient id="paint56_linear_3_7441" x1="44.0266" y1="74.2423" x2="88.0304" y2="95.4948" gradientUnits="userSpaceOnUse">
<stop offset="0.056" stop-color="#DE7210"/>
<stop offset="1" stop-color="#F6C08F"/>
</linearGradient>
<linearGradient id="paint57_linear_3_7441" x1="29.836" y1="70.0337" x2="59.2642" y2="107.769" gradientUnits="userSpaceOnUse">
<stop offset="0.056" stop-color="#DE7210"/>
<stop offset="1" stop-color="#F6C08F"/>
</linearGradient>
</defs>
</svg>
