<svg width="128" height="128" viewBox="0 0 128 128" fill="none" xmlns="http://www.w3.org/2000/svg">
<path d="M11.4 115.62H8.25V91.2205H22.5V94.2305H11.4V102.25H21.44V105.18H11.42V115.62H11.4ZM27.92 94.7405C27.49 95.1705 26.96 95.3805 26.35 95.3805C25.74 95.3805 25.2 95.1705 24.78 94.7405C24.35 94.3105 24.14 93.7805 24.14 93.1705C24.14 92.5605 24.35 92.0205 24.78 91.6005C25.21 91.1705 25.74 90.9605 26.35 90.9605C26.96 90.9605 27.5 91.1705 27.92 91.6005C28.34 92.0305 28.56 92.5605 28.56 93.1705C28.56 93.7805 28.34 94.2805 27.92 94.7405ZM27.92 115.62H24.78V98.9205H27.92V115.62ZM34.47 115.62H31.33V98.9205H34.34V101.64H34.47C34.79 100.73 35.43 99.9905 36.44 99.4005C37.43 98.8105 38.39 98.5205 39.32 98.5205C40.25 98.5205 41.03 98.6505 41.66 98.9205L40.46 101.85C40.06 101.69 39.5 101.61 38.78 101.61C37.63 101.61 36.65 102.06 35.77 102.97C34.89 103.88 34.46 105.05 34.46 106.49V115.62H34.47ZM49.23 116.18C46.7 116.18 44.65 115.33 43.08 113.65C41.51 111.97 40.71 109.84 40.71 107.28C40.71 104.86 41.48 102.75 43 100.99C44.55 99.2305 46.49 98.3505 48.89 98.3505C51.37 98.3505 53.34 99.1505 54.83 100.77C56.32 102.4 57.07 104.55 57.07 107.24L57.04 107.83H43.85C43.93 109.51 44.52 110.84 45.53 111.83C46.57 112.82 47.77 113.3 49.15 113.3C51.39 113.3 52.93 112.34 53.73 110.42L56.53 111.59C56 112.9 55.09 113.96 53.84 114.84C52.59 115.73 51.04 116.18 49.23 116.18ZM53.74 105.26C53.66 104.3 53.23 103.39 52.43 102.54C51.63 101.69 50.43 101.23 48.83 101.23C47.66 101.23 46.67 101.6 45.82 102.32C44.97 103.04 44.38 104.03 44.06 105.25L53.74 105.26ZM68.1 116.18C66.82 116.18 65.68 115.91 64.66 115.35C63.65 114.82 62.9 114.12 62.4 113.3H62.27V115.62H59.26V91.2205H62.4V98.9205L62.27 101.24H62.4C62.91 100.41 63.65 99.7505 64.66 99.1905C65.67 98.6605 66.82 98.3605 68.1 98.3605C70.26 98.3605 72.12 99.2105 73.7 100.92C75.27 102.63 76.04 104.73 76.04 107.26C76.04 109.79 75.27 111.9 73.7 113.6C72.12 115.33 70.26 116.18 68.1 116.18ZM67.56 113.31C69.03 113.31 70.28 112.75 71.32 111.66C72.36 110.57 72.89 109.1 72.89 107.29C72.89 105.48 72.36 104.01 71.32 102.92C70.28 101.83 69.03 101.27 67.56 101.27C66.09 101.27 64.82 101.8 63.8 102.9C62.79 103.99 62.25 105.46 62.25 107.3C62.25 109.14 62.76 110.6 63.8 111.7C64.85 112.77 66.1 113.31 67.56 113.31ZM83.84 116.18C82.05 116.18 80.59 115.67 79.39 114.63C78.19 113.62 77.6 112.26 77.6 110.58C77.6 108.77 78.29 107.33 79.7 106.29C81.11 105.25 82.84 104.74 84.92 104.74C86.76 104.74 88.28 105.09 89.45 105.75V105.27C89.45 104.04 89.02 103.06 88.2 102.31C87.35 101.56 86.33 101.19 85.11 101.19C84.2 101.19 83.38 101.4 82.63 101.83C81.88 102.26 81.38 102.84 81.11 103.62L78.23 102.39C78.63 101.38 79.38 100.47 80.52 99.6205C81.67 98.7705 83.16 98.3405 85.02 98.3405C87.15 98.3405 88.94 98.9505 90.35 100.21C91.76 101.46 92.45 103.22 92.45 105.49V115.61H89.44V113.29H89.31C88.08 115.22 86.24 116.18 83.84 116.18ZM84.35 113.31C85.66 113.31 86.83 112.83 87.87 111.87C88.94 110.91 89.47 109.77 89.47 108.43C88.59 107.71 87.26 107.34 85.47 107.34C83.95 107.34 82.81 107.66 82.03 108.33C81.26 109 80.86 109.77 80.86 110.65C80.86 111.48 81.21 112.12 81.93 112.6C82.64 113.07 83.44 113.31 84.35 113.31ZM101.19 116.18C99.32 116.18 97.78 115.73 96.58 114.82C95.3932 113.954 94.4719 112.773 93.92 111.41L96.72 110.24C97.6 112.34 99.12 113.38 101.25 113.38C102.24 113.38 103.04 113.17 103.65 112.74C104.26 112.31 104.58 111.73 104.58 111.03C104.58 109.94 103.81 109.19 102.29 108.82L98.9 108C97.83 107.73 96.82 107.2 95.86 106.45C94.9 105.68 94.42 104.66 94.42 103.36C94.42 101.89 95.09 100.7 96.39 99.7605C97.7 98.8305 99.24 98.3705 101.05 98.3705C102.52 98.3705 103.85 98.7205 104.99 99.3805C106.16 100.05 106.99 101.01 107.47 102.26L104.75 103.38C104.14 101.91 102.86 101.17 100.94 101.17C100.01 101.17 99.23 101.36 98.6 101.76C97.96 102.16 97.64 102.67 97.64 103.33C97.64 104.29 98.39 104.93 99.85 105.28L103.15 106.05C104.72 106.42 105.87 107.04 106.64 107.92C107.39 108.8 107.76 109.81 107.76 110.93C107.76 112.42 107.15 113.67 105.92 114.69C104.71 115.7 103.13 116.18 101.19 116.18ZM117.58 116.18C115.05 116.18 113 115.33 111.43 113.65C109.86 111.97 109.06 109.84 109.06 107.28C109.06 104.86 109.83 102.75 111.35 100.99C112.9 99.2305 114.84 98.3505 117.24 98.3505C119.72 98.3505 121.69 99.1505 123.18 100.77C124.67 102.4 125.42 104.55 125.42 107.24L125.39 107.83H112.2C112.28 109.51 112.87 110.84 113.88 111.83C114.92 112.82 116.12 113.3 117.5 113.3C119.74 113.3 121.28 112.34 122.08 110.42L124.88 111.59C124.35 112.9 123.44 113.96 122.19 114.84C120.93 115.73 119.39 116.18 117.58 116.18ZM122.08 105.26C122 104.3 121.57 103.39 120.77 102.54C119.97 101.69 118.77 101.23 117.17 101.23C116 101.23 115.01 101.6 114.16 102.32C113.31 103.04 112.72 104.03 112.4 105.25L122.08 105.26ZM39.25 59.4205L46.94 10.1405C47.21 8.46047 49.46 8.06047 50.25 9.57047L58.51 25.0405L39.25 59.4205ZM93.92 71.3905L86.58 26.0005C86.36 24.5905 84.59 24.0105 83.57 25.0305L37.35 71.3905L62.94 85.7505C64.53 86.6305 66.52 86.6305 68.11 85.7505L93.92 71.3905ZM73.14 31.8005L67.22 20.5305C66.56 19.2505 64.75 19.2505 64.08 20.5305L38.05 66.9305L73.14 31.8005Z" fill="#F58220"/>
</svg>
