<svg width="128" height="128" viewBox="0 0 128 128" fill="none" xmlns="http://www.w3.org/2000/svg">
<path d="M63.833 122.93C96.4741 122.93 122.935 96.452 122.935 63.7899C122.935 31.1278 96.4741 4.6499 63.833 4.6499C31.1918 4.6499 4.73096 31.1278 4.73096 63.7899C4.73096 96.452 31.1918 122.93 63.833 122.93Z" fill="#110070"/>
<path d="M63.8331 121.814C95.8574 121.814 121.818 95.8359 121.818 63.7901C121.818 31.7443 95.8574 5.76611 63.8331 5.76611C31.8089 5.76611 5.84814 31.7443 5.84814 63.7901C5.84814 95.8359 31.8089 121.814 63.8331 121.814Z" fill="url(#paint0_radial_3_6836)"/>
<path d="M55.516 93.7409C55.444 93.4269 54.662 92.5139 54.064 92.3089C53.466 92.1049 52.88 93.1899 52.496 91.3889C51.235 92.1129 50.691 91.1899 50.691 91.1899C50.691 91.1899 49.332 91.2699 49.068 92.9339C48.421 93.7009 46.762 96.4859 47.643 93.5889C48.53 90.6739 46.707 93.3599 46.538 94.8249C46.222 95.4749 45.687 95.5399 46.023 92.6159C44.855 92.2119 44.257 89.5009 44.898 89.4489C44.154 88.4119 44.738 86.8269 45.358 86.9109C45.978 86.9909 47.041 85.5569 47.009 85.2229C46.976 84.8919 47.488 85.1289 47.457 82.8959C47.424 80.6589 48.3 80.1039 48.372 81.9759C48.447 83.8399 49.561 81.3649 49.447 80.4149C49.331 79.4709 49.557 77.3329 50.237 78.5969C49.447 75.4719 50.07 75.3499 50.544 77.4289C51.733 77.5229 51.774 78.1559 51.774 78.1559C53.089 77.8319 53.719 78.8229 53.822 79.3789C55.04 77.9409 56.272 79.4919 56.272 79.4919C56.272 79.4919 57.121 79.2099 56.715 80.6869C56.306 82.1589 58.48 81.3629 57.961 80.3049C59.029 79.7639 60.616 81.4019 61.116 82.5209C61.616 83.6439 60.259 85.2329 61.317 85.6169C62.38 85.9989 61.914 87.8489 61.914 87.8489C61.914 87.8489 64.138 89.0829 62.594 90.1419L62.069 91.4019C62.069 91.4019 63.075 92.5239 63.418 91.8559C63.76 91.1869 63.881 92.5359 63.881 92.5359C63.753 92.2979 64.128 93.9269 65.515 94.2689C66.907 94.6089 67.788 96.8099 66.243 96.8359C64.703 96.8619 64.584 96.8199 64.167 97.7189C63.751 98.6139 61.786 98.6459 60.767 97.4869C59.684 97.8539 57.758 97.3809 58.325 96.5149C57.391 97.0599 56.509 95.5969 57.238 94.9429C57.968 94.2939 56.828 93.4519 56.445 94.3829C56.066 95.3149 54.05 95.7739 54.191 94.1889C54.233 93.7189 55.307 93.4439 55.32 93.8369C55.517 94.2899 55.597 93.7999 55.516 93.7409Z" fill="url(#paint1_radial_3_6836)"/>
<path d="M103.462 48.392C103.769 48.698 104.376 48.629 104.711 48.536C105.048 48.439 105.001 48.2 105.292 48.106C105.578 48.009 106.684 48.536 106.395 49.684C105.725 49.777 105.481 50.592 105.481 50.592C105.481 50.592 104.81 50.878 104.471 50.736C104.135 50.592 104.135 50.639 103.654 50.685C103.173 50.736 102.017 50.067 103.268 50.067C104.52 50.067 103.126 49.491 102.596 49.491C102.068 49.491 102.5 48.965 103.127 49.11C102.691 48.392 102.932 47.863 103.462 48.392Z" fill="url(#paint2_radial_3_6836)"/>
<path d="M99.1252 50.9889C98.7902 51.3219 99.1752 52.3279 99.6072 52.2789C100.037 52.2319 100.712 52.0409 100.712 52.0409C100.712 52.0409 101.047 52.7099 100.712 52.9029C100.377 53.0929 99.3982 53.0089 100.666 53.4769C101.964 53.9539 102.299 53.8099 102.395 53.5699C102.493 53.3329 102.923 52.5199 103.166 52.5689C103.358 52.1389 102.493 51.7559 102.974 51.4669C103.452 51.1799 103.071 50.1299 103.071 50.1299C103.071 50.1299 102.396 50.1769 102.108 50.6559C101.819 51.1339 101.437 50.6089 101.148 50.6089C101.108 50.7995 101.025 50.9786 100.906 51.1329L100.715 50.6999C100.713 50.7009 99.3652 50.6539 99.1252 50.9889Z" fill="url(#paint3_radial_3_6836)"/>
<path d="M90.1391 51.7772C90.0971 51.6542 90.5211 51.1582 90.4081 51.8002C90.1471 52.2572 91.4621 52.6672 91.8311 52.1592C93.0661 50.4662 90.6651 49.6462 89.6231 50.4332C88.5721 51.2272 87.9921 49.5252 89.2001 49.2822C90.4041 49.0392 90.5061 46.8622 89.1791 46.8542C90.3501 46.2762 88.7281 44.5442 87.3871 44.2492C87.1701 42.3872 85.2061 41.2032 84.1731 41.8782C83.1301 42.5562 83.0411 42.4382 81.5121 41.5092C79.9901 40.5862 79.2571 43.4292 80.3771 44.6732C81.5031 45.9242 80.6861 47.9402 80.7321 47.5962C80.7321 47.5962 80.3081 48.3592 80.3361 48.6442C79.0471 49.0812 78.6711 47.2672 77.8711 46.8652C77.2881 47.6252 76.3481 48.0312 76.3481 48.0312L76.4181 46.4842C76.4181 46.4842 72.4171 44.3052 71.1881 44.9152C69.6731 45.3822 69.3151 48.8902 70.6901 49.4042C72.0681 49.9232 68.9621 51.2152 72.0781 54.4992C75.2781 57.8722 76.5161 57.9682 77.1681 57.4192C77.3301 57.2812 77.6091 57.0742 77.9491 56.8432C77.9801 56.9732 78.0321 57.0972 78.1121 57.2152C78.9131 58.4192 76.2501 59.3692 75.8791 61.0942C75.5021 62.8382 75.8501 66.0812 77.4291 66.1922C77.7301 64.4632 80.6861 65.0742 79.0771 66.6402C77.4401 68.2362 78.5891 68.5182 78.5891 68.5182C78.5891 68.5182 78.6661 71.5092 81.1711 70.5532C81.0981 70.7242 81.0401 70.9432 81.0041 71.1822C80.3041 71.0412 78.5931 70.8262 78.1741 72.0202C77.6461 73.5262 75.4111 71.5092 73.8461 72.1862C72.2901 72.8572 70.0171 75.0612 70.7831 76.6112C72.2531 75.9142 73.3781 79.0582 71.3251 78.4132C69.2641 77.7662 69.6641 78.9932 69.6641 78.9932C69.6641 78.9932 67.5181 80.6862 69.5271 82.4872C68.7561 82.6062 67.3841 83.4652 67.8461 85.3512C67.8461 85.3512 66.9651 85.3822 66.8461 87.0702C63.9691 87.6502 64.1451 88.5422 68.4721 87.5642C66.7261 88.4692 69.6931 88.8972 71.0081 88.7762C72.3251 88.6562 75.7811 90.3602 73.1841 90.3782C70.5831 90.3942 71.3571 91.6672 74.4741 91.7272C77.5851 91.7912 77.2581 92.5122 77.7201 92.4812C78.1821 92.4482 80.1931 94.0352 80.0851 94.9152C79.9721 95.7952 82.1921 96.7092 83.6361 95.7002C83.7101 96.6162 87.5071 95.9022 88.0691 94.2512C92.1811 94.8792 92.0861 94.1122 91.1711 93.6252C89.1121 93.3112 85.3341 90.5732 89.4311 91.9822C93.5081 93.3872 89.5801 90.8752 88.5061 89.9102C86.1651 89.4552 86.0461 87.5042 86.0461 87.5042C86.0461 87.5042 87.3391 86.7682 86.3191 84.9282C88.8471 84.4592 87.3201 83.5702 87.6041 82.7212C87.8881 81.8712 89.1721 80.7872 89.6121 80.7002C89.6951 80.5862 90.3841 80.7232 89.7451 80.9832C89.1931 80.9882 89.5851 82.5422 90.2451 82.6222C92.4771 82.8932 91.8251 79.9782 90.5131 79.3922C89.1981 78.8012 90.3791 77.1972 91.3021 78.2772C92.2251 79.3552 94.2841 78.1442 93.5111 76.7792C94.7391 77.6302 95.4011 74.8772 94.8781 73.2982C96.5201 71.8752 96.4661 69.0382 95.1971 68.4022C94.5721 68.0902 94.2711 67.8892 94.1191 67.5012C94.8731 67.1452 95.8731 66.8822 96.2661 67.2332C96.9041 67.8102 98.6811 66.2192 98.5681 64.3592C99.3161 64.7692 100.507 60.9782 99.4951 59.6512C101.812 56.4122 101.188 56.1182 100.413 56.6612C99.2471 58.2772 95.4191 60.2092 98.3871 57.3462C101.267 54.5672 97.6201 56.6752 96.4011 57.1272C94.9651 58.9242 93.4431 58.0602 93.4431 58.0602C93.4431 58.0602 93.5071 56.5882 91.6531 56.5572C92.5101 54.1942 91.1301 55.0472 90.6461 54.4032C90.1651 53.7552 89.9901 52.1792 90.1391 51.7772Z" fill="url(#paint4_radial_3_6836)"/>
<path d="M60.1 28.0968C59.741 29.0348 61.273 30.5578 62.043 30.0678C62.815 29.5728 63.92 28.5908 63.92 28.5908C63.92 28.5908 65.092 29.5328 64.619 30.2038C64.142 30.8728 62.243 31.6248 64.991 31.3198C67.811 31.0088 68.325 30.4268 68.311 29.8888C68.296 29.3528 68.451 27.4308 68.939 27.2968C68.954 26.3108 67.022 26.4018 67.691 25.4158C68.36 24.4338 66.79 22.8198 66.79 22.8198C66.79 22.8198 65.567 23.5358 65.414 24.6998C65.26 25.8628 64.116 25.2358 63.574 25.5028C63.715 26.0848 63.548 26.7098 63.548 26.7098L62.84 26.0838C62.84 26.0838 60.278 27.2478 60.1 28.0968Z" fill="url(#paint5_radial_3_6836)"/>
<path d="M64.685 77.3268C64.35 77.6598 64.734 78.6638 65.165 78.6178C65.598 78.5688 66.271 78.3788 66.271 78.3788C66.271 78.3788 66.607 79.0478 66.271 79.2398C65.934 79.4298 64.957 79.3478 66.223 79.8128C67.52 80.2908 67.858 80.1478 67.954 79.9098C68.05 79.6708 68.482 78.8568 68.723 78.9038C68.917 78.4748 68.05 78.0918 68.53 77.8068C69.012 77.5168 68.63 76.4668 68.63 76.4668C68.63 76.4668 67.956 76.5138 67.667 76.9928C67.379 77.4708 66.994 76.9438 66.705 76.9438C66.6657 77.1346 66.5844 77.3143 66.467 77.4698L66.274 77.0398C66.272 77.0398 64.924 76.9918 64.685 77.3268Z" fill="url(#paint6_radial_3_6836)"/>
<path d="M65.1332 5.6468C64.2262 5.8498 65.7442 9.1368 65.7442 9.1368C65.7442 9.1368 65.6902 11.3438 66.0642 11.4558C66.4372 11.5688 68.9042 12.1848 70.1942 13.7928C71.4912 15.3988 70.8172 16.2458 69.7382 15.7808C68.6582 15.3188 68.9442 16.7368 68.9442 16.7368C68.9442 16.7368 72.2022 17.7958 69.7422 17.7278C67.2762 17.6628 71.4022 19.4628 71.1292 19.6508C70.8562 19.8408 70.7022 20.8768 70.7022 20.8768C70.7022 20.8768 68.5272 21.0578 70.3702 21.8318C76.6052 24.4578 69.7042 23.7488 69.7042 23.7488L68.8232 24.8318L70.5662 27.0178L71.9062 27.9758C71.9062 27.9758 74.7272 27.0348 75.6072 26.8878C76.4872 26.7428 78.7092 25.0798 78.7092 25.0798C78.7092 25.0798 79.3752 25.5568 78.8772 24.5848C78.3782 23.6128 80.7112 24.0458 81.2922 24.7698L85.4102 26.6298C85.4659 26.7817 85.5677 26.9124 85.7012 27.0038C86.5042 27.5668 84.9752 28.5328 85.1302 29.5558C85.2852 30.5678 86.2182 32.2488 87.2432 32.0718C87.0642 31.1068 89.0872 30.9898 88.3832 32.0668C87.6802 33.1378 88.4602 33.1178 88.4602 33.1178C88.4602 33.1178 89.1102 34.6328 90.4852 33.7908C90.4302 34.2528 90.7122 35.1828 91.8932 35.2438C91.8932 35.2438 91.7682 35.7488 92.7382 36.1058C92.6062 37.8358 93.1602 37.8908 93.2972 35.2628C93.5412 36.4168 94.2852 34.7938 94.4332 34.0178C94.5832 33.2378 96.1832 31.5238 95.7502 33.0388C95.3212 34.5408 100.466 35.0898 101.038 33.2968C101.613 31.4888 103.664 30.5458 103.725 30.2718C103.788 29.9918 99.1612 29.5618 99.6722 29.7798C100.184 29.9968 101.136 28.8368 100.782 27.8018C101.356 27.9178 101.609 25.5098 100.699 24.8868C101.838 22.4908 101.348 22.4158 100.881 22.8928C100.313 24.0928 97.9702 25.9038 99.5592 23.6728C101.162 21.4188 98.9082 23.3908 98.1262 23.8808C97.4402 25.2148 96.2352 24.9558 96.2352 24.9558C96.2352 24.9558 96.0142 24.0478 94.7242 24.3518C94.8742 22.7458 94.0742 23.5178 93.6092 23.2028C93.3252 23.0098 93.0532 22.5778 92.8852 22.2068C93.9962 22.6568 95.4872 23.1358 95.2302 22.3108C95.0632 21.7698 97.3332 22.9508 97.4122 22.7048L100.25 22.3108L103.007 20.5678C85.3802 4.81281 65.1332 5.6468 65.1332 5.6468Z" fill="url(#paint7_linear_3_6836)"/>
<path d="M38.9291 10.721C28.3981 15.449 20.4521 25.194 20.4521 25.194C20.4521 25.194 21.3861 27.331 21.7111 27.173C22.0401 27.018 19.3601 32.779 21.3271 33.103C23.3051 33.428 28.9931 29.539 27.9381 29.897C26.8861 30.251 28.5311 27.792 28.5311 27.792C28.5311 27.792 31.4911 26.479 29.7401 27.994C28.0041 29.499 32.0491 28.18 31.9861 28.488C31.9221 28.798 32.5081 29.63 32.5081 29.63C32.5081 29.63 31.1211 31.118 32.9121 30.519C39.0591 28.451 33.7221 32.29 33.7221 32.29L33.8271 33.597L36.4861 34.06L38.0581 33.91C38.0581 33.91 39.4331 31.484 39.9651 30.825C40.4981 30.164 40.9891 27.554 40.9891 27.554C40.9891 27.554 41.7881 27.471 40.7771 27.088C39.7641 26.705 41.7441 25.511 42.6551 25.659L46.9401 24.328C47.0845 24.4014 47.2475 24.4299 47.4081 24.41C48.3892 24.296 47.8951 26.006 48.6971 26.651C49.4911 27.292 51.3151 27.911 51.9671 27.119C51.1861 26.527 52.6381 25.116 52.8242 26.37C53.0102 27.615 53.5882 27.089 53.5882 27.089C53.5882 27.089 55.1251 24.446 55.6161 22.93C55.8852 23.305 58.3931 19.634 57.6331 17.883C56.8651 16.11 58.1101 14.441 57.9711 14.182C57.8292 13.928 57.0781 14.71 57.6331 14.522C58.1921 14.331 56.0501 15.291 55.7671 12.469C55.4801 9.59099 55.0621 12.711 54.7851 13.634C55.1611 15.136 59.0581 7.565 59.0581 7.565L64.0821 5.51599C64.0831 5.51899 52.6481 4.56199 38.9291 10.721Z" fill="url(#paint8_linear_3_6836)"/>
<path opacity="0.5" d="M62.7338 47.72C79.6906 47.72 93.4368 38.8141 93.4368 27.828C93.4368 16.842 79.6906 7.93604 62.7338 7.93604C45.777 7.93604 32.0308 16.842 32.0308 27.828C32.0308 38.8141 45.777 47.72 62.7338 47.72Z" fill="url(#paint9_linear_3_6836)"/>
<path d="M125.156 47.5631L123.735 56.6771C123.735 56.6771 121.705 39.8041 119.216 33.4951C115.401 23.8291 113.703 23.9071 113.693 23.9221C116.247 30.4151 115.784 33.9031 115.784 33.9031C115.784 33.9031 111.257 21.5651 99.2858 17.6391C85.1108 12.9931 77.8898 14.6711 77.9428 14.7371C77.9968 14.8021 92.5938 17.2881 95.1828 20.8461C95.1828 20.8461 88.9818 20.8461 82.8108 22.6231C82.5328 22.7031 105.514 25.4941 110.213 48.4591C110.213 48.4591 107.694 43.2021 104.578 42.3101C106.626 48.5431 106.101 60.3711 104.15 66.2501C103.9 67.0071 103.642 62.9811 99.7978 61.2501C101.028 70.0711 99.7238 84.0651 93.6028 87.9181C93.1258 88.2181 97.4398 74.1061 94.4708 79.5621C76.7438 106.742 55.6688 90.5591 47.1198 84.7911C53.9818 86.4721 61.2688 85.2621 65.4888 82.3771C69.7468 79.4651 72.2648 77.3391 74.5278 77.8411C76.7888 78.3471 78.2948 76.0781 76.5378 74.0651C74.7798 72.0471 70.5108 69.2751 64.7358 70.7871C60.6638 71.8531 55.6158 76.3601 47.9108 71.7971C41.3388 67.9021 41.3828 64.7401 41.3828 62.7261C41.3828 60.7101 43.1758 57.6461 46.4388 58.1481C49.3608 58.6001 47.8208 56.8841 50.9658 58.1481C51.8228 58.4931 50.8798 54.0361 49.6608 51.1801C52.0088 46.2801 59.6248 44.8241 60.1928 44.3941C61.2228 43.6161 60.6568 43.2271 61.0078 42.0541C61.3368 40.9611 61.5468 38.0081 53.0228 38.8251C49.0998 39.2001 46.6048 34.1171 45.7868 32.8841C46.0518 31.3121 46.4768 29.8771 47.0538 28.5621C47.6378 27.3651 48.2758 26.2671 48.9138 25.4361L49.4438 24.7351C50.7138 23.2531 52.2748 21.9851 54.1468 20.9331C55.1238 20.3811 43.2208 20.8981 37.8648 27.8781C36.4278 28.0661 34.4558 27.6511 32.2508 27.6511C29.4888 27.6511 27.3178 27.9531 25.3088 28.4571C24.9868 28.5391 24.4688 28.4941 23.8328 28.3441C22.0658 26.5121 17.0628 22.1101 16.8338 16.1381C16.8338 16.1381 9.56084 21.7281 10.6488 36.9661C10.5528 45.3951 8.06584 42.9861 6.78584 47.5591C6.18984 49.7261 7.68084 51.3581 7.68084 51.4221C7.67884 51.4551 9.46884 49.4841 9.46884 49.4841C9.46884 49.4841 -1.80816 69.0231 12.7578 93.9671C25.3108 115.47 46.3788 124.973 68.2388 123.124C72.1215 122.873 75.9754 122.289 79.7578 121.377C130.693 109.063 125.156 47.5631 125.156 47.5631Z" fill="url(#paint10_linear_3_6836)"/>
<path d="M45.6188 32.1489C45.6188 32.1489 47.8198 38.1639 52.7568 38.1449C62.1768 38.1069 62.3658 38.2389 62.4258 39.3829C62.6138 42.8699 60.8918 44.0119 60.2338 44.5079C59.5728 45.0019 50.6048 50.2019 50.2748 51.6899C49.9458 53.1769 39.9258 37.5469 39.9258 37.5469L45.6188 32.1489Z" fill="url(#paint11_linear_3_6836)"/>
<path d="M50.6338 38.6338C50.6338 38.6338 53.6938 42.5408 51.3798 44.1038C48.5538 46.0128 55.3758 46.4288 57.8478 45.0418C60.3198 43.6548 61.8388 41.6158 61.9248 41.3128C62.0108 41.0088 62.8228 38.2698 57.6628 39.2248C54.4008 39.8278 53.2048 39.9668 50.6338 38.6338Z" fill="url(#paint12_linear_3_6836)"/>
<path d="M60.2351 44.509C60.7351 44.131 61.8451 43.376 62.2691 41.509C61.9601 41.634 61.9311 41.279 61.5661 41.433C54.6391 48.66 54.3731 43.627 50.5921 44.641C47.1461 45.584 46.3711 46.878 46.2261 46.978L46.3811 47.198C47.3741 47.703 48.3251 49.311 49.0411 50.748C49.7401 51.581 50.2091 51.99 50.2761 51.688C50.6051 50.203 59.5761 45.003 60.2351 44.509Z" fill="url(#paint13_linear_3_6836)"/>
<path d="M8.47809 50.2502C7.06409 53.2182 -2.01191 68.5552 12.8001 94.0812C27.2951 119.066 52.3801 127.225 77.9911 121.682C85.3021 120.1 93.7311 114.38 99.1041 110.182C95.6521 101.476 97.6951 101.803 95.8451 102.948C75.2141 115.721 58.8131 103.121 46.1191 101.511C-0.57991 95.5932 8.64209 50.1582 8.64209 50.1582L8.47809 50.2502Z" fill="url(#paint14_linear_3_6836)"/>
<path d="M47.3619 85.2631C51.7629 86.5821 61.3669 85.4451 65.4909 82.3771C68.2699 80.3111 70.3689 78.7531 72.1359 78.1021C69.0139 75.9811 68.9649 78.9871 62.4009 80.5071C48.7269 83.6791 42.0879 76.8271 42.0879 76.8271C43.0569 82.2491 46.4419 84.8891 47.9669 85.8271C47.5629 85.4691 47.3509 85.2591 47.3619 85.2631Z" fill="url(#paint15_linear_3_6836)"/>
<path d="M32.5349 110.025C32.5349 110.025 21.1519 97.1799 17.9739 82.7949C13.2889 78.3699 9.96386 74.6279 7.75586 71.9219C9.03086 82.1579 14.2499 98.0499 32.5349 110.025Z" fill="url(#paint16_linear_3_6836)"/>
<path d="M23.0389 98.3593C23.0389 98.3593 15.1839 87.1753 18.1289 77.6803C20.7789 69.1423 17.5659 74.2213 15.6969 76.0463C13.8099 77.8903 12.8389 70.6043 12.8879 69.7643L12.8869 69.7373C12.7679 69.7113 9.1469 87.1943 23.0389 98.3593Z" fill="url(#paint17_linear_3_6836)"/>
<path d="M11.4011 88.6099C11.4011 88.6099 9.61011 65.9119 15.2711 62.7039C24.2611 57.6099 16.0211 58.8009 13.4141 60.2149C10.7801 61.6419 11.0241 52.2469 11.3961 51.3549C11.7611 50.4739 2.11811 60.2369 11.4011 88.6099Z" fill="url(#paint18_linear_3_6836)"/>
<path d="M50.7298 21.8188C50.7298 21.8188 43.6138 29.0478 43.6668 29.0738C43.7208 29.0988 43.8708 38.3508 44.1038 40.9738C44.9568 41.9818 47.6138 48.5318 45.5798 47.0778C43.5018 45.5938 44.9998 45.5618 45.1818 46.3148V46.3518C45.0428 46.4168 40.0168 35.4728 50.7298 21.8188Z" fill="#A40000"/>
<path d="M16.8772 16.25C16.8772 16.25 9.3132 22.054 10.7582 37.97C16.6132 32.714 24.8922 28.785 24.8922 28.785C23.5032 27.909 17.1302 22.81 16.8772 16.25Z" fill="url(#paint19_linear_3_6836)"/>
<path d="M35.519 33.6558L46.88 47.7848C43.603 33.9098 46.122 25.5858 54.191 21.0438C55.385 20.3708 37.333 21.2868 35.519 33.6558Z" fill="url(#paint20_linear_3_6836)"/>
<path d="M27.5138 68.5604C29.4518 56.3524 46.4408 58.1474 46.4408 58.1474C45.6838 58.7104 42.7728 59.0464 41.9398 61.3764C39.1878 69.0644 41.8128 85.8594 58.9498 92.9034C60.7568 93.6484 24.6508 86.6004 27.5138 68.5604Z" fill="url(#paint21_linear_3_6836)"/>
<path d="M62.1709 41.8402C62.0879 41.8252 62.0139 41.8272 61.9769 41.8772C61.7679 42.1572 60.9599 43.1102 59.0389 44.6772C55.4709 47.5792 53.9649 46.8442 51.3069 47.4392C50.0969 47.7102 48.9459 48.5222 48.1719 49.1732C48.4849 49.6792 48.7779 50.2262 49.0399 50.7492C49.7389 51.5822 50.2079 51.9912 50.2749 51.6892C50.6049 50.2032 59.5749 45.0032 60.2339 44.5072C60.7039 44.1562 61.6979 43.4582 62.1709 41.8402Z" fill="url(#paint22_linear_3_6836)"/>
<path d="M51.218 60.2937C51.319 57.7137 51.137 51.4477 48.456 48.7287C46.406 46.6517 45.926 44.2707 45.651 41.5557C23.376 49.8767 20.196 60.7527 22.423 60.3997C40.238 57.5737 45.246 57.2287 51.218 60.2937Z" fill="url(#paint23_linear_3_6836)"/>
<path d="M3.72786 75.5389C3.72786 75.5389 5.27586 55.4259 15.3429 48.0659C23.2459 42.2839 17.1079 44.3839 14.0569 44.6239C10.8389 44.8779 9.12286 46.8359 9.74386 46.1159L9.77485 46.0609C9.66785 45.9369 2.21986 52.1879 3.72786 75.5389Z" fill="url(#paint24_linear_3_6836)"/>
<path d="M2.66699 60.0867C2.66699 60.0867 8.06199 42.9617 18.964 43.1077C26.194 43.2037 20.459 36.9967 18.272 36.0537C15.99 35.0767 15.445 35.1147 14.912 35.5867C14.113 36.2947 6.93999 36.0217 2.66699 60.0867Z" fill="url(#paint25_linear_3_6836)"/>
<path d="M76.2129 76.8485C77.0329 76.0455 76.4619 72.9605 71.3089 71.0915C66.6339 69.3925 59.3359 73.7105 57.1709 74.5625C57.1709 74.5625 65.4369 73.0145 68.5359 73.5295C72.7379 74.2295 74.2129 78.8105 76.2129 76.8485Z" fill="url(#paint26_linear_3_6836)"/>
<path d="M10.6312 71.2082C10.6312 71.2082 9.73624 54.3722 17.2802 47.1822C23.2042 41.5352 18.3452 43.9392 15.8422 44.4692C13.2022 45.0292 11.9922 46.8362 12.4292 46.1732L12.4482 46.1242C12.3472 46.0322 6.85324 52.0182 10.6312 71.2082Z" fill="url(#paint27_linear_3_6836)"/>
<path d="M4.81982 65.8585C4.81982 65.8585 8.00782 49.3035 17.0638 44.1445C24.1748 40.0915 18.8798 41.2545 16.3218 41.1655C13.6248 41.0735 12.0158 42.5355 12.5988 41.9965L12.6278 41.9545C12.5538 41.8395 5.77782 46.3255 4.81982 65.8585Z" fill="url(#paint28_linear_3_6836)"/>
<path d="M15.5722 72.6551C15.5722 72.6551 13.8292 62.6201 17.5862 57.6811C20.5842 53.7401 17.9522 55.6671 16.5602 56.2361C15.1082 56.8291 14.5582 58.0001 14.7562 57.5701C14.9472 57.1511 8.29216 62.3081 15.5722 72.6551Z" fill="url(#paint29_linear_3_6836)"/>
<path d="M17.564 63.1929C17.564 63.1929 15.821 53.1579 19.577 48.2179C22.575 44.2769 19.943 46.2049 18.551 46.7729C17.099 47.3659 16.548 48.5379 16.747 48.1079C16.939 47.6879 10.285 52.8449 17.564 63.1929Z" fill="url(#paint30_linear_3_6836)"/>
<path d="M7.02783 49.475C7.02783 49.475 11.0998 41.133 16.5108 39.49C20.8288 38.18 17.8548 38.2 16.5248 37.875C15.1348 37.538 14.1038 38.107 14.4788 37.896C14.8458 37.69 7.17783 37.945 7.02783 49.475Z" fill="url(#paint31_linear_3_6836)"/>
<path d="M6.44678 56.0759C6.44678 56.0759 10.5178 47.7339 15.9298 46.0919C20.2478 44.7819 17.2738 44.7999 15.9428 44.4749C14.5528 44.1389 13.5218 44.7089 13.8978 44.4969C14.2638 44.2909 6.59578 44.5469 6.44678 56.0759Z" fill="url(#paint32_linear_3_6836)"/>
<path d="M9.40283 54.2549C9.40283 54.2549 16.5838 39.5399 26.1308 36.6409C33.7498 34.3299 28.5038 34.3629 26.1548 33.7919C23.7018 33.1979 21.8838 34.2049 22.5448 33.8309C23.1918 33.4669 9.66583 33.9159 9.40283 54.2549Z" fill="url(#paint33_linear_3_6836)"/>
<path d="M14.312 46.3299C14.312 46.3299 18.778 37.1779 24.716 35.3749C29.455 33.9369 26.191 33.9579 24.731 33.6029C23.205 33.2339 22.075 33.8589 22.486 33.6259C22.888 33.3979 14.475 33.6779 14.312 46.3299Z" fill="url(#paint34_linear_3_6836)"/>
<path d="M15.7681 49.5628C15.7681 49.5628 19.8391 41.2208 25.2501 39.5798C29.5691 38.2688 26.5951 38.2878 25.2641 37.9628C23.8731 37.6258 22.8421 38.1958 23.2181 37.9848C23.5831 37.7768 15.9171 38.0348 15.7681 49.5628Z" fill="url(#paint35_linear_3_6836)"/>
<path d="M62.4279 39.3832C62.3809 38.5132 62.2519 38.2302 58.0889 38.1582C58.5659 38.3742 59.3889 38.8082 60.2949 39.5512C61.4909 40.5312 61.6849 41.6242 61.8089 42.7552C62.2129 41.9862 62.5099 40.9222 62.4279 39.3832Z" fill="url(#paint36_linear_3_6836)"/>
<path d="M37.9822 27.7641L34.3712 33.5741C34.3712 33.5741 19.9332 31.3091 7.69224 43.1511C6.68124 44.1291 15.6992 22.2111 37.9822 27.7641Z" fill="url(#paint37_linear_3_6836)"/>
<path d="M25.0161 38.1629C25.0161 38.1629 28.8641 31.0189 33.8531 28.8599C31.2741 28.9409 25.4831 30.9579 25.0161 38.1629Z" fill="url(#paint38_linear_3_6836)"/>
<path d="M10.2109 45.135C10.2109 45.135 14.2819 36.793 19.6939 35.15C24.0119 33.84 21.0379 33.859 19.7079 33.534C18.3169 33.198 17.2869 33.768 17.6619 33.555C18.0269 33.35 10.3589 33.605 10.2109 45.135Z" fill="url(#paint39_linear_3_6836)"/>
<path d="M18.7388 39.2568C18.7388 39.2568 22.9398 32.5328 27.9368 30.7428C25.4208 30.6598 19.6468 32.2618 18.7388 39.2568Z" fill="url(#paint40_linear_3_6836)"/>
<path d="M25.94 27.771C25.94 27.771 22.773 29.155 17.188 26.833L22.167 29.337L25.94 27.771Z" fill="url(#paint41_linear_3_6836)"/>
<path d="M24.409 28.6598C24.409 28.6598 20.189 30.2948 12.064 27.8608L19.013 30.6258C19.874 29.8308 24.409 28.6598 24.409 28.6598Z" fill="url(#paint42_linear_3_6836)"/>
<path d="M27.4902 27.3179C27.4902 27.3179 24.6892 28.1709 19.5132 26.1689L24.4922 28.6709C25.0182 28.2069 27.4902 27.3179 27.4902 27.3179Z" fill="url(#paint43_linear_3_6836)"/>
<path d="M18.7529 30.54C18.7529 30.54 16.6709 32.268 11.3389 32.338L15.9499 32.489L18.7529 30.54Z" fill="url(#paint44_linear_3_6836)"/>
<path d="M13.688 39.3821C13.688 39.3821 20.813 30.1011 26.68 28.0001C23.725 27.9031 14.753 31.1731 13.688 39.3821Z" fill="url(#paint45_linear_3_6836)"/>
<path d="M124.039 55.208C124.039 55.208 124.807 72.428 100.887 96.349C98.2281 99.007 83.7942 112.529 84.3022 116.585C84.4802 118.02 122.172 110.804 124.039 55.208Z" fill="url(#paint46_linear_3_6836)"/>
<path d="M77.6631 14.7051C106.476 16.9191 112.054 37.6361 112.056 36.3671C112.13 16.2281 84.7211 14.6981 77.6631 14.7051Z" fill="url(#paint47_linear_3_6836)"/>
<path d="M86.438 22.5811C86.438 22.5811 106.412 26.6641 112.045 47.8351C112.792 50.6391 109.638 30.6361 110.611 32.5351C111.583 34.4431 102.573 23.2141 86.438 22.5811Z" fill="url(#paint48_linear_3_6836)"/>
<path d="M94.4199 22.063C94.4199 22.063 112.459 25.824 112.638 54.444C112.764 74.702 115.766 62.049 118.744 57.497C121.312 53.563 119.557 48.771 119.495 48.784C119.486 48.786 118.196 45.055 119.065 46.636C119.104 46.706 117.854 45.606 117.862 45.605C118.064 45.574 117.169 25.033 94.4199 22.063Z" fill="url(#paint49_linear_3_6836)"/>
<path d="M114.733 25.9399C114.733 25.9399 121.212 42.8179 114.345 51.2109C112.104 53.9499 111.853 67.9829 114.591 66.6939C117.336 65.4029 116.74 74.1459 116.38 75.1399L116.374 75.1709C116.553 75.2829 129.912 53.5979 114.733 25.9399Z" fill="url(#paint50_linear_3_6836)"/>
<path d="M105.726 43.709C105.726 43.709 109.805 55.651 105.534 64.188L108.765 71.403C111.134 65.583 114.152 53.272 105.726 43.709Z" fill="url(#paint51_linear_3_6836)"/>
<path d="M112.899 42.2891C112.899 42.2891 115.72 61.2431 105.542 78.3541C105.7 82.3121 105.005 85.8941 104.052 88.8451C104.496 89.4281 105.089 89.8271 105.872 89.8971C105.527 90.2161 105.183 90.5151 104.85 90.7981C104.24 91.0691 103.613 91.3531 103.006 91.6471L102.619 92.5231C103.387 91.9812 104.131 91.4059 104.849 90.7991C106.928 89.8801 108.799 89.1681 108.795 89.1631L107.497 89.6391C106.88 89.8631 106.341 89.9391 105.872 89.8971C113.731 82.7341 124.502 66.7131 112.899 42.2891ZM101.04 92.6791C100.142 93.2061 99.4878 93.7001 99.3488 94.0821C99.2448 94.3601 99.8578 94.1991 100.917 93.6051C100.972 93.2861 101.017 92.9751 101.04 92.6791Z" fill="url(#paint52_linear_3_6836)"/>
<path d="M100.345 62.4844C100.345 62.4844 108.37 85.3254 82.7218 106.741C81.2088 108.004 93.1328 107.463 94.1758 106.99C97.2498 105.594 100.883 96.2764 100.454 97.3904C100.029 98.5054 112.364 80.9214 100.345 62.4844Z" fill="url(#paint53_linear_3_6836)"/>
<path d="M111.568 76.9717C111.568 76.9717 106.728 106.598 73.259 108.983C60.155 109.918 41.338 106.85 43.005 111.849C43.522 113.398 45.9849 119.86 51.6069 121.358C66.8209 125.417 107.3 124.088 111.568 76.9717Z" fill="url(#paint54_linear_3_6836)"/>
<path d="M83.6559 99.3931C83.6559 99.3931 63.1779 104.071 49.9119 92.7781C37.7729 82.4431 43.7949 91.1411 45.4419 95.4321C47.1329 99.8331 37.6189 96.4711 36.1899 95.7631C34.7649 95.0641 58.7239 110.09 83.6559 99.3931Z" fill="url(#paint55_linear_3_6836)"/>
<path d="M70.4602 110.554C70.4602 110.554 46.0322 105.753 38.2982 89.2001C31.6892 75.0591 33.4382 85.4361 33.1402 90.1591C32.8272 95.0171 25.9772 88.3831 25.0622 87.2291L25.0162 87.1871C24.8802 87.2761 37.6152 107.241 70.4602 110.554Z" fill="url(#paint56_linear_3_6836)"/>
<path d="M43.7751 108.414C43.7751 108.414 32.1081 99.3769 26.8471 86.9849C22.4261 85.4489 16.5491 81.9389 16.4331 81.3369C18.3001 90.9659 28.1321 102.208 43.7751 108.414Z" fill="url(#paint57_linear_3_6836)"/>
<defs>
<radialGradient id="paint0_radial_3_6836" cx="0" cy="0" r="1" gradientUnits="userSpaceOnUse" gradientTransform="translate(64.6431 11.8471) scale(103.81 103.81)">
<stop stop-color="#67C5D5"/>
<stop offset="0.16" stop-color="#66C2D3"/>
<stop offset="0.28" stop-color="#62B9CE"/>
<stop offset="0.385" stop-color="#5CA8C6"/>
<stop offset="0.483" stop-color="#5392BA"/>
<stop offset="0.576" stop-color="#4874AA"/>
<stop offset="0.665" stop-color="#3A5097"/>
<stop offset="0.749" stop-color="#2A2781"/>
<stop offset="0.815" stop-color="#1B006D"/>
<stop offset="1" stop-color="#596AAD"/>
</radialGradient>
<radialGradient id="paint1_radial_3_6836" cx="0" cy="0" r="1" gradientUnits="userSpaceOnUse" gradientTransform="translate(64.626 18.7699) scale(52.024 52.024)">
<stop stop-color="#0F80BC"/>
<stop offset="0.338" stop-color="#0A5F9E"/>
<stop offset="1" stop-color="#00145A"/>
</radialGradient>
<radialGradient id="paint2_radial_3_6836" cx="0" cy="0" r="1" gradientUnits="userSpaceOnUse" gradientTransform="translate(64.627 18.77) scale(52.023 52.023)">
<stop stop-color="#0F80BC"/>
<stop offset="0.338" stop-color="#0A5F9E"/>
<stop offset="1" stop-color="#00145A"/>
</radialGradient>
<radialGradient id="paint3_radial_3_6836" cx="0" cy="0" r="1" gradientUnits="userSpaceOnUse" gradientTransform="translate(64.6232 18.7669) scale(52.031 52.031)">
<stop stop-color="#0F80BC"/>
<stop offset="0.338" stop-color="#0A5F9E"/>
<stop offset="1" stop-color="#00145A"/>
</radialGradient>
<radialGradient id="paint4_radial_3_6836" cx="0" cy="0" r="1" gradientUnits="userSpaceOnUse" gradientTransform="translate(65.4771 23.6942) scale(57.157 57.157)">
<stop stop-color="#0F80BC"/>
<stop offset="0.264" stop-color="#0B629B"/>
<stop offset="0.844" stop-color="#031747"/>
<stop offset="1" stop-color="#00022F"/>
</radialGradient>
<radialGradient id="paint5_radial_3_6836" cx="0" cy="0" r="1" gradientUnits="userSpaceOnUse" gradientTransform="translate(64.625 18.7668) scale(52.03 52.03)">
<stop stop-color="#0F80BC"/>
<stop offset="0.338" stop-color="#0A5F9E"/>
<stop offset="1" stop-color="#00145A"/>
</radialGradient>
<radialGradient id="paint6_radial_3_6836" cx="0" cy="0" r="1" gradientUnits="userSpaceOnUse" gradientTransform="translate(64.627 18.7678) scale(52.027 52.027)">
<stop stop-color="#0F80BC"/>
<stop offset="0.338" stop-color="#0A5F9E"/>
<stop offset="1" stop-color="#00145A"/>
</radialGradient>
<linearGradient id="paint7_linear_3_6836" x1="76.3992" y1="21.1768" x2="93.1932" y2="22.6088" gradientUnits="userSpaceOnUse">
<stop stop-color="#0F80BC"/>
<stop offset="0.338" stop-color="#0A5F9E"/>
<stop offset="1" stop-color="#00145A"/>
</linearGradient>
<linearGradient id="paint8_linear_3_6836" x1="38.6691" y1="23.72" x2="29.3881" y2="37.351" gradientUnits="userSpaceOnUse">
<stop stop-color="#0F80BC"/>
<stop offset="0.338" stop-color="#0A5F9E"/>
<stop offset="1" stop-color="#00145A"/>
</linearGradient>
<linearGradient id="paint9_linear_3_6836" x1="62.7338" y1="39.06" x2="62.7338" y2="16.498" gradientUnits="userSpaceOnUse">
<stop offset="0.014" stop-opacity="0"/>
<stop offset="0.65" stop-color="#C4E0E3" stop-opacity="0.2"/>
<stop offset="0.822" stop-color="#C4E0E3"/>
<stop offset="0.85" stop-color="#CDE5E8"/>
<stop offset="0.944" stop-color="#E8F4F7"/>
<stop offset="1" stop-color="#F2FAFC"/>
</linearGradient>
<linearGradient id="paint10_linear_3_6836" x1="64.5538" y1="60.7291" x2="78.4868" y2="52.5461" gradientUnits="userSpaceOnUse">
<stop stop-color="#DF731B"/>
<stop offset="0.545" stop-color="#DF731B"/>
<stop offset="0.701" stop-color="#EC8811"/>
<stop offset="0.859" stop-color="#F4950B"/>
<stop offset="1" stop-color="#F79A09"/>
</linearGradient>
<linearGradient id="paint11_linear_3_6836" x1="42.0038" y1="41.4649" x2="52.8188" y2="42.3909" gradientUnits="userSpaceOnUse">
<stop offset="0.011" stop-color="#941403"/>
<stop offset="0.897" stop-color="#E85C0A"/>
</linearGradient>
<linearGradient id="paint12_linear_3_6836" x1="24.6798" y1="38.4678" x2="63.7228" y2="43.3478" gradientUnits="userSpaceOnUse">
<stop offset="0.011" stop-color="#941403"/>
<stop offset="0.136" stop-color="#A32104"/>
<stop offset="0.498" stop-color="#C84107"/>
<stop offset="0.789" stop-color="#DF5509"/>
<stop offset="0.972" stop-color="#E85C0A"/>
</linearGradient>
<linearGradient id="paint13_linear_3_6836" x1="48.8701" y1="48.794" x2="51.9831" y2="47.424" gradientUnits="userSpaceOnUse">
<stop stop-color="#F2C8A9"/>
<stop offset="1" stop-color="#FFFFCC"/>
</linearGradient>
<linearGradient id="paint14_linear_3_6836" x1="38.9451" y1="86.9072" x2="91.3091" y2="89.0632" gradientUnits="userSpaceOnUse">
<stop stop-color="#B30000"/>
<stop offset="1" stop-color="#DF731B"/>
</linearGradient>
<linearGradient id="paint15_linear_3_6836" x1="51.4049" y1="78.7801" x2="78.7079" y2="88.5291" gradientUnits="userSpaceOnUse">
<stop stop-color="#941403"/>
<stop offset="1" stop-color="#DF731B"/>
</linearGradient>
<linearGradient id="paint16_linear_3_6836" x1="6.75591" y1="90.1589" x2="33.3463" y2="91.4631" gradientUnits="userSpaceOnUse">
<stop offset="0.056" stop-color="#B30000"/>
<stop offset="1" stop-color="#DE5C01"/>
</linearGradient>
<linearGradient id="paint17_linear_3_6836" x1="16.9403" y1="79.9903" x2="25.9832" y2="126.258" gradientUnits="userSpaceOnUse">
<stop offset="0.056" stop-color="#DE7210"/>
<stop offset="1" stop-color="#F6C08F"/>
</linearGradient>
<linearGradient id="paint18_linear_3_6836" x1="13.401" y1="65.2224" x2="11.1444" y2="115.319" gradientUnits="userSpaceOnUse">
<stop offset="0.056" stop-color="#DE7210"/>
<stop offset="1" stop-color="#F6C08F"/>
</linearGradient>
<linearGradient id="paint19_linear_3_6836" x1="18.6062" y1="35.374" x2="13.1652" y2="21.432" gradientUnits="userSpaceOnUse">
<stop offset="0.011" stop-color="#941403"/>
<stop offset="0.472" stop-color="#E85C0A"/>
<stop offset="1" stop-color="#F9BD5F"/>
</linearGradient>
<linearGradient id="paint20_linear_3_6836" x1="41.869" y1="38.5718" x2="54.907" y2="21.4348" gradientUnits="userSpaceOnUse">
<stop offset="0.197" stop-color="#DE7210"/>
<stop offset="0.843" stop-color="#F9BD5F"/>
<stop offset="1" stop-color="#FFFCCF"/>
</linearGradient>
<linearGradient id="paint21_linear_3_6836" x1="34.9768" y1="61.9644" x2="48.1928" y2="88.3964" gradientUnits="userSpaceOnUse">
<stop offset="0.017" stop-color="#941403"/>
<stop offset="0.5" stop-color="#E35100"/>
<stop offset="1" stop-color="#DF731B"/>
</linearGradient>
<linearGradient id="paint22_linear_3_6836" x1="54.9389" y1="45.7542" x2="58.2389" y2="48.7452" gradientUnits="userSpaceOnUse">
<stop stop-color="#EEA272"/>
<stop offset="0.186" stop-color="#EFA777"/>
<stop offset="0.406" stop-color="#F2B585"/>
<stop offset="0.643" stop-color="#F6CD9C"/>
<stop offset="0.89" stop-color="#FCEEBB"/>
<stop offset="1" stop-color="#FFFFCC"/>
</linearGradient>
<linearGradient id="paint23_linear_3_6836" x1="35.69" y1="52.8187" x2="50.851" y2="68.2897" gradientUnits="userSpaceOnUse">
<stop offset="0.197" stop-color="#DF731B"/>
<stop offset="0.843" stop-color="#F9BD5F"/>
<stop offset="1" stop-color="#FFFCCF"/>
</linearGradient>
<linearGradient id="paint24_linear_3_6836" x1="13.9012" y1="45.4728" x2="-0.540787" y2="100.444" gradientUnits="userSpaceOnUse">
<stop offset="0.056" stop-color="#DE7210"/>
<stop offset="1" stop-color="#F6C08F"/>
</linearGradient>
<linearGradient id="paint25_linear_3_6836" x1="15.3777" y1="40.668" x2="-5.99548" y2="75.6626" gradientUnits="userSpaceOnUse">
<stop offset="0.056" stop-color="#DE7210"/>
<stop offset="1" stop-color="#F2C06E"/>
</linearGradient>
<linearGradient id="paint26_linear_3_6836" x1="80.9379" y1="72.2245" x2="60.5239" y2="76.1235" gradientUnits="userSpaceOnUse">
<stop offset="0.005" stop-color="#FFFAEE"/>
<stop offset="0.276" stop-color="#F5F89B"/>
<stop offset="0.31" stop-color="#F3ED91"/>
<stop offset="0.467" stop-color="#ECC267"/>
<stop offset="0.618" stop-color="#E6A046"/>
<stop offset="0.761" stop-color="#E2872E"/>
<stop offset="0.892" stop-color="#E07820"/>
<stop offset="1" stop-color="#DF731B"/>
</linearGradient>
<linearGradient id="paint27_linear_3_6836" x1="15.3872" y1="44.5375" x2="9.40174" y2="91.6615" gradientUnits="userSpaceOnUse">
<stop offset="0.056" stop-color="#DE7210"/>
<stop offset="1" stop-color="#F2C06E"/>
</linearGradient>
<linearGradient id="paint28_linear_3_6836" x1="16.3554" y1="40.7091" x2="-0.83853" y2="84.9763" gradientUnits="userSpaceOnUse">
<stop offset="0.056" stop-color="#DE7210"/>
<stop offset="1" stop-color="#F2C06E"/>
</linearGradient>
<linearGradient id="paint29_linear_3_6836" x1="15.4573" y1="62.2878" x2="16.3685" y2="86.1175" gradientUnits="userSpaceOnUse">
<stop offset="0.056" stop-color="#DE7210"/>
<stop offset="1" stop-color="#F2C072"/>
</linearGradient>
<linearGradient id="paint30_linear_3_6836" x1="17.4475" y1="52.8243" x2="18.3589" y2="76.6526" gradientUnits="userSpaceOnUse">
<stop offset="0.056" stop-color="#DE7210"/>
<stop offset="1" stop-color="#F2C072"/>
</linearGradient>
<linearGradient id="paint31_linear_3_6836" x1="12.5948" y1="42.364" x2="6.80783" y2="53.166" gradientUnits="userSpaceOnUse">
<stop offset="0.056" stop-color="#DE7210"/>
<stop offset="1" stop-color="#EED8A5"/>
</linearGradient>
<linearGradient id="paint32_linear_3_6836" x1="12.0138" y1="48.9659" x2="6.22778" y2="59.7659" gradientUnits="userSpaceOnUse">
<stop offset="0.056" stop-color="#DE7210"/>
<stop offset="1" stop-color="#EED8A5"/>
</linearGradient>
<linearGradient id="paint33_linear_3_6836" x1="18.5698" y1="44.3819" x2="12.9768" y2="58.2689" gradientUnits="userSpaceOnUse">
<stop offset="0.056" stop-color="#DE7210"/>
<stop offset="1" stop-color="#F2C072"/>
</linearGradient>
<linearGradient id="paint34_linear_3_6836" x1="20.697" y1="37.6209" x2="7.47101" y2="57.4599" gradientUnits="userSpaceOnUse">
<stop offset="0.056" stop-color="#DE7210"/>
<stop offset="1" stop-color="#F2C072"/>
</linearGradient>
<linearGradient id="paint35_linear_3_6836" x1="21.5871" y1="41.6268" x2="9.53107" y2="59.7108" gradientUnits="userSpaceOnUse">
<stop offset="0.056" stop-color="#DE7210"/>
<stop offset="1" stop-color="#F2C072"/>
</linearGradient>
<linearGradient id="paint36_linear_3_6836" x1="60.3779" y1="38.8112" x2="61.3329" y2="40.5132" gradientUnits="userSpaceOnUse">
<stop stop-color="#8B8B89"/>
<stop offset="1" stop-color="#120500"/>
</linearGradient>
<linearGradient id="paint37_linear_3_6836" x1="22.7992" y1="33.0291" x2="22.7992" y2="27.8031" gradientUnits="userSpaceOnUse">
<stop offset="0.056" stop-color="#DE7210"/>
<stop offset="1" stop-color="#F6C08F"/>
</linearGradient>
<linearGradient id="paint38_linear_3_6836" x1="23.1156" y1="38.9031" x2="34.5539" y2="26.5714" gradientUnits="userSpaceOnUse">
<stop offset="0.056" stop-color="#DE7210"/>
<stop offset="1" stop-color="#F6C08F"/>
</linearGradient>
<linearGradient id="paint39_linear_3_6836" x1="15.7769" y1="38.024" x2="9.98994" y2="48.825" gradientUnits="userSpaceOnUse">
<stop offset="0.056" stop-color="#DE7210"/>
<stop offset="1" stop-color="#EED8A5"/>
</linearGradient>
<linearGradient id="paint40_linear_3_6836" x1="16.4675" y1="39.392" x2="28.3966" y2="28.0796" gradientUnits="userSpaceOnUse">
<stop offset="0.056" stop-color="#DE7210"/>
<stop offset="1" stop-color="#F6C08F"/>
</linearGradient>
<linearGradient id="paint41_linear_3_6836" x1="13.5744" y1="26.2708" x2="26.2028" y2="29.1782" gradientUnits="userSpaceOnUse">
<stop offset="0.056" stop-color="#DE7210"/>
<stop offset="1" stop-color="#F6C08F"/>
</linearGradient>
<linearGradient id="paint42_linear_3_6836" x1="7.28596" y1="27.6678" x2="25.408" y2="30.1498" gradientUnits="userSpaceOnUse">
<stop offset="0.056" stop-color="#DE7210"/>
<stop offset="1" stop-color="#F6C08F"/>
</linearGradient>
<linearGradient id="paint43_linear_3_6836" x1="16.1227" y1="25.8533" x2="27.727" y2="28.5246" gradientUnits="userSpaceOnUse">
<stop offset="0.056" stop-color="#DE7210"/>
<stop offset="1" stop-color="#F6C08F"/>
</linearGradient>
<linearGradient id="paint44_linear_3_6836" x1="15.4709" y1="31.482" x2="4.83387" y2="30.391" gradientUnits="userSpaceOnUse">
<stop offset="0.056" stop-color="#DE7210"/>
<stop offset="1" stop-color="#F6C08F"/>
</linearGradient>
<linearGradient id="paint45_linear_3_6836" x1="10.9865" y1="40.1161" x2="27.4152" y2="24.5373" gradientUnits="userSpaceOnUse">
<stop offset="0.056" stop-color="#DE7210"/>
<stop offset="1" stop-color="#F6C08F"/>
</linearGradient>
<linearGradient id="paint46_linear_3_6836" x1="88.3122" y1="121.553" x2="117.131" y2="77.102" gradientUnits="userSpaceOnUse">
<stop stop-color="#DE5C01"/>
<stop offset="0.736" stop-color="#FEFD00"/>
<stop offset="0.778" stop-color="#FEFE26"/>
<stop offset="0.837" stop-color="#FFFE54"/>
<stop offset="0.889" stop-color="#FFFF76"/>
<stop offset="0.932" stop-color="#FFFF8B"/>
<stop offset="0.961" stop-color="#FFFF92"/>
</linearGradient>
<linearGradient id="paint47_linear_3_6836" x1="105.07" y1="27.2971" x2="86.1991" y2="19.0091" gradientUnits="userSpaceOnUse">
<stop stop-color="#F79A09"/>
<stop offset="0.736" stop-color="#FEFD00"/>
<stop offset="0.778" stop-color="#FEFE26"/>
<stop offset="0.837" stop-color="#FFFE54"/>
<stop offset="0.889" stop-color="#FFFF76"/>
<stop offset="0.932" stop-color="#FFFF8B"/>
<stop offset="0.961" stop-color="#FFFF92"/>
</linearGradient>
<linearGradient id="paint48_linear_3_6836" x1="117.746" y1="46.2141" x2="91.327" y2="21.6881" gradientUnits="userSpaceOnUse">
<stop stop-color="#DE5C01"/>
<stop offset="0.736" stop-color="#FEFD00"/>
<stop offset="0.778" stop-color="#FEFE26"/>
<stop offset="0.837" stop-color="#FFFE54"/>
<stop offset="0.889" stop-color="#FFFF76"/>
<stop offset="0.932" stop-color="#FFFF8B"/>
<stop offset="0.961" stop-color="#FFFF92"/>
</linearGradient>
<linearGradient id="paint49_linear_3_6836" x1="109.896" y1="44.7925" x2="98.5137" y2="33.6623" gradientUnits="userSpaceOnUse">
<stop stop-color="#F79A09"/>
<stop offset="0.736" stop-color="#FEFD00"/>
<stop offset="0.778" stop-color="#FEFE26"/>
<stop offset="0.837" stop-color="#FFFE54"/>
<stop offset="0.889" stop-color="#FFFF76"/>
<stop offset="0.932" stop-color="#FFFF8B"/>
<stop offset="0.961" stop-color="#FFFF92"/>
</linearGradient>
<linearGradient id="paint50_linear_3_6836" x1="113.317" y1="60.2629" x2="119.543" y2="38.8459" gradientUnits="userSpaceOnUse">
<stop stop-color="#F79A09"/>
<stop offset="0.736" stop-color="#FEFD00"/>
<stop offset="0.778" stop-color="#FEFE26"/>
<stop offset="0.837" stop-color="#FFFE54"/>
<stop offset="0.889" stop-color="#FFFF76"/>
<stop offset="0.932" stop-color="#FFFF8B"/>
<stop offset="0.961" stop-color="#FFFF92"/>
</linearGradient>
<linearGradient id="paint51_linear_3_6836" x1="108.87" y1="65.2697" x2="107.975" y2="49.0027" gradientUnits="userSpaceOnUse">
<stop stop-color="#F79A09"/>
<stop offset="0.736" stop-color="#FEFD00"/>
<stop offset="0.778" stop-color="#FEFE26"/>
<stop offset="0.837" stop-color="#FFFE54"/>
<stop offset="0.889" stop-color="#FFFF76"/>
<stop offset="0.932" stop-color="#FFFF8B"/>
<stop offset="0.961" stop-color="#FFFF92"/>
</linearGradient>
<linearGradient id="paint52_linear_3_6836" x1="105.259" y1="79.2717" x2="114.883" y2="56.4301" gradientUnits="userSpaceOnUse">
<stop stop-color="#F79A09"/>
<stop offset="0.736" stop-color="#FEFD00"/>
<stop offset="0.778" stop-color="#FEFE26"/>
<stop offset="0.837" stop-color="#FFFE54"/>
<stop offset="0.889" stop-color="#FFFF76"/>
<stop offset="0.932" stop-color="#FFFF8B"/>
<stop offset="0.961" stop-color="#FFFF92"/>
</linearGradient>
<linearGradient id="paint53_linear_3_6836" x1="93.7324" y1="98.1997" x2="93.5011" y2="73.6743" gradientUnits="userSpaceOnUse">
<stop stop-color="#DE5C01"/>
<stop offset="0.736" stop-color="#FEFD00"/>
<stop offset="0.778" stop-color="#FEFE26"/>
<stop offset="0.837" stop-color="#FFFE54"/>
<stop offset="0.889" stop-color="#FFFF76"/>
<stop offset="0.932" stop-color="#FFFF8B"/>
<stop offset="0.961" stop-color="#FFFF92"/>
</linearGradient>
<linearGradient id="paint54_linear_3_6836" x1="58.4679" y1="118.059" x2="105.786" y2="89.7757" gradientUnits="userSpaceOnUse">
<stop stop-color="#B9120D"/>
<stop offset="0.078" stop-color="#BB180D"/>
<stop offset="0.182" stop-color="#C0290C"/>
<stop offset="0.301" stop-color="#C8450A"/>
<stop offset="0.431" stop-color="#D36C08"/>
<stop offset="0.571" stop-color="#E29E05"/>
<stop offset="0.715" stop-color="#F4DA02"/>
<stop offset="0.792" stop-color="#FEFD00"/>
<stop offset="0.814" stop-color="#FEFD07"/>
<stop offset="0.846" stop-color="#FEFD1B"/>
<stop offset="0.884" stop-color="#FEFE3C"/>
<stop offset="0.927" stop-color="#FFFE69"/>
<stop offset="0.974" stop-color="#FFFFA3"/>
<stop offset="1" stop-color="#FFFFC7"/>
</linearGradient>
<linearGradient id="paint55_linear_3_6836" x1="55.3351" y1="96.7292" x2="102.917" y2="108.062" gradientUnits="userSpaceOnUse">
<stop offset="0.056" stop-color="#DE7210"/>
<stop offset="1" stop-color="#F6C08F"/>
</linearGradient>
<linearGradient id="paint56_linear_3_6836" x1="39.9452" y1="92.6095" x2="93.1033" y2="118.284" gradientUnits="userSpaceOnUse">
<stop offset="0.056" stop-color="#DE7210"/>
<stop offset="1" stop-color="#F6C08F"/>
</linearGradient>
<linearGradient id="paint57_linear_3_6836" x1="22.7018" y1="87.6017" x2="58.2508" y2="133.186" gradientUnits="userSpaceOnUse">
<stop offset="0.056" stop-color="#DE7210"/>
<stop offset="1" stop-color="#F6C08F"/>
</linearGradient>
</defs>
</svg>
