<svg width="128" height="128" viewBox="0 0 128 128" fill="none" xmlns="http://www.w3.org/2000/svg">
<path fill-rule="evenodd" clip-rule="evenodd" d="M7.275 51.7471L4.054 54.3261C3.577 52.3851 4.008 50.6901 4.509 49.0491C5.543 45.6581 7.367 42.6631 9.445 39.8171C10.198 38.7851 10.735 37.7641 10.712 36.3741C10.627 31.4551 11.148 26.5961 12.834 21.9311C13.694 19.5521 14.856 17.3391 16.842 15.4171C17.625 19.2431 18.335 22.9201 20.428 25.6781C21.938 24.3391 23.449 23.0651 24.885 21.7131C33.509 13.6021 43.663 8.53414 55.367 6.86614C70.048 4.77314 83.597 7.92214 95.897 16.2981C97.059 17.0901 98.393 17.6311 99.66 18.2601C105.485 21.1531 109.882 25.4581 112.636 31.3791C113.098 32.3701 113.456 33.4091 113.863 34.4251L114.229 34.3621L112.645 24.8631C118.995 33.7741 120.998 43.6641 121.54 54.0421C122.726 52.3871 122.717 50.4271 123.359 48.5521C123.57 49.9141 123.834 51.2711 123.983 52.6391C124.569 58.0161 123.526 63.2321 122.536 68.4841C120.197 80.8891 114.824 91.8691 106.726 101.41C97.506 112.274 85.989 119.528 71.583 121.25C50.679 123.748 33.118 117.031 18.935 101.486C12.129 94.0311 7.628 85.3531 5.613 75.4701C4.089 67.9891 4.456 60.5491 6.939 53.2721L7.328 52.1561C7.35 52.0911 7.312 52.0061 7.275 51.7471ZM101.911 41.8271L102.307 41.4851L106.771 44.9321C106.712 43.8861 106.757 42.7851 106.576 41.7241C105.781 37.0961 102.976 33.7411 99.49 30.8621C95.121 27.2541 90.107 24.7721 84.911 22.6181C84.4 22.4061 83.899 22.1691 83.395 21.9441L83.457 21.4221L90.782 20.9881C88.076 16.5231 83.426 15.2771 78.714 13.9951L79.301 13.6841C69.751 10.7021 60.286 10.4681 50.75 12.9081C41.879 15.1781 28.56 23.2651 26.502 27.6281L27.102 27.4821C30.45 26.6601 33.792 26.4341 37.164 27.4121C37.531 27.5181 38.143 27.2751 38.459 26.9911C41.618 24.1621 45.131 21.9471 49.201 20.6941C50.483 20.2991 51.805 20.0361 53.109 19.7131C53.001 20.1541 52.804 20.3341 52.588 20.4831C48.368 23.3831 45.524 27.1971 44.731 32.3601C44.688 32.6431 44.731 33.0681 44.912 33.2391C46.781 34.9971 48.636 36.7761 50.605 38.4151C51.286 38.9811 52.246 39.3611 53.129 39.5011C54.835 39.7721 56.578 39.8231 58.307 39.9451C59.37 40.0201 60.058 40.7711 59.677 41.6321C59.112 42.9141 58.495 44.1031 57.198 44.9681C54.744 46.6061 52.472 48.5191 50.105 50.2901C49.514 50.7331 49.491 51.1351 49.798 51.7891C50.365 52.9971 50.907 54.2361 51.271 55.5161C51.731 57.1341 51.887 58.8071 51.467 60.5181C50.13 60.2231 48.905 59.9321 47.673 59.6871C46.435 59.4411 45.187 59.2491 43.945 59.0201C42.393 58.7351 41.069 59.2791 40.273 60.5441C39.35 62.0121 39.335 63.5461 40.322 64.8041C42.333 67.3651 44.61 69.6621 47.299 71.5161C49.524 73.0521 52.025 73.9061 54.687 73.3361C56.54 72.9401 58.355 72.1471 60.041 71.2551C65.153 68.5541 70.92 69.4651 74.457 73.6691C75.09 74.4201 75.469 75.2721 74.932 76.1541C74.416 77.0011 73.55 77.2001 72.555 76.9511C71.521 76.6921 70.565 76.8701 69.631 77.4901C67.166 79.1261 64.745 80.8681 62.131 82.2341C57.92 84.4351 53.331 85.1761 48.592 85.0001C48.104 84.9841 47.616 85.0001 46.957 85.0001C47.201 85.2891 47.288 85.4121 47.395 85.5151C50.818 88.8341 54.742 91.3851 59.271 92.8781C64.258 94.5221 69.355 95.1951 74.529 93.7661C80.328 92.1651 84.883 88.6521 88.779 84.2131C90.349 82.4231 91.773 80.5061 93.264 78.6481L93.637 78.7291L92.321 87.7101C99.47 78.9641 99.698 68.9651 98.692 58.4231C100.749 60.7141 101.373 63.4001 102.552 66.0921C104.96 57.7321 103.769 49.7721 101.911 41.8271Z" fill="#DD732A"/>
</svg>
