<svg width="128" height="128" viewBox="0 0 128 128" fill="none" xmlns="http://www.w3.org/2000/svg">
<path d="M18.7672 82.6854C16.7242 81.0794 14.5432 79.5394 13.0542 77.3684C9.91918 73.5404 7.50618 69.1104 5.85618 64.4544C4.85818 61.4264 4.51718 58.1794 3.23118 55.2694C1.88718 53.1554 3.46218 50.8444 5.77818 50.1724C6.80818 49.9744 8.62118 49.0014 6.43318 49.6964C4.47118 51.1364 4.28218 48.3904 6.29418 48.2154C7.66618 48.0344 8.17218 46.9104 7.70218 45.8994C6.22818 44.9374 11.2762 43.8824 8.73618 42.4474C6.09118 39.5924 12.4362 39.0434 10.8712 42.2854C10.4962 44.7774 15.3062 41.8274 14.1892 44.7064C15.3242 46.0894 18.4372 45.0214 18.3592 46.9604C20.0112 47.0744 20.5792 48.4634 22.1292 48.5704C23.7372 49.2974 26.6502 49.8684 27.1972 51.6804C25.6032 52.9414 21.9112 49.0724 21.7332 52.5664C22.2152 57.7294 22.0912 63.0464 23.9812 67.9624C24.8742 70.9404 27.0402 73.2824 28.9962 75.6024C30.8682 77.8734 33.4032 79.4714 35.9872 80.8164C38.2532 81.8854 40.6962 82.5934 43.1672 83.0394C44.1682 82.2734 45.9382 79.4254 47.5002 80.6264C47.5752 81.9764 44.3992 83.4484 47.3512 83.3004C49.0852 82.7754 50.2872 84.6404 51.7152 82.9574C53.0302 84.5154 57.1822 81.9634 56.2462 85.1474C54.9792 85.9634 53.1342 85.4684 51.8672 86.5944C49.7772 85.5494 48.1142 87.5274 45.7992 87.2794C43.2302 87.7374 40.6152 87.9244 38.0102 87.9274C33.7362 87.5904 29.3722 87.4474 25.3072 85.9604C23.0142 85.2944 20.7802 83.9884 18.7672 82.6854ZM22.3752 84.2504C24.6112 85.2164 26.7982 86.2354 29.2492 86.5434C33.1382 87.0834 37.1542 87.9164 41.0572 87.1584C39.2902 86.3604 37.4642 87.4664 35.7042 86.5874C33.5942 87.0424 31.3292 86.4724 29.1832 86.1914C26.7442 85.1054 24.1112 84.3574 21.8262 82.9464C18.9712 81.9034 23.3022 84.2844 24.0742 84.4774C25.8582 85.4904 22.1122 83.9574 21.5832 83.5374C20.0882 82.6984 19.8972 82.8734 21.4352 83.7254C21.7452 83.9044 22.0512 84.0964 22.3752 84.2504ZM18.1192 81.2424C20.2872 82.0464 18.1102 79.7184 17.1182 79.8534C16.6782 79.0894 15.4362 78.6074 16.3122 78.1984C14.7382 78.7454 14.6622 76.1194 13.9232 76.4944C12.2562 75.9684 13.2752 74.1044 11.2892 72.9604C11.1082 71.7544 9.31818 70.7094 8.74718 68.8904C8.49518 67.9584 6.72318 65.2854 7.81118 67.7724C8.73718 70.1684 10.3662 72.2214 11.7242 74.2704C12.7762 76.2204 14.0202 78.2614 15.9372 79.4784C16.5832 80.0984 17.2072 81.0484 18.1192 81.2424ZM11.8772 74.3874C11.9512 74.0604 12.2732 75.0954 11.8772 74.3874V74.3874ZM20.7162 82.2054C20.0252 81.9334 21.1952 81.9884 20.7162 82.2054V82.2054ZM21.8922 82.6334C21.3542 82.9654 21.7712 82.0404 21.8922 82.6334V82.6334ZM23.3652 83.2464C22.2842 82.8254 24.0652 82.5794 23.3652 83.2464V83.2464ZM25.8892 84.6534C24.5252 84.4174 26.3152 84.0254 25.8892 84.6534V84.6534ZM21.0422 81.2754C19.6352 81.2664 22.1302 80.5704 21.0422 81.2754V81.2754ZM22.1462 81.8264C21.7532 81.9924 22.1152 81.4544 22.1462 81.8264V81.8264ZM27.6672 85.2724C28.5552 85.8334 32.8512 86.4994 30.1612 85.5014C29.7102 85.5974 25.1732 84.2194 27.6672 85.2724ZM18.9042 78.4454C17.5242 78.0334 18.8172 78.0734 18.9042 78.4454V78.4454ZM21.4722 79.9444C20.0842 79.5844 22.1422 79.4784 21.4722 79.9444V79.9444ZM23.6352 81.2704C22.0782 80.9064 24.5952 80.9074 23.6352 81.2704V81.2704ZM17.8562 77.3064C18.8982 78.1064 22.0582 77.4104 19.4512 76.8304C18.2652 76.1984 15.5932 75.7664 17.4152 77.2114L17.8562 77.3064ZM25.0992 81.7274C23.2792 81.3054 25.5342 80.9884 25.0992 81.7274V81.7274ZM22.8982 79.9784C25.4442 80.6994 20.7572 78.3674 22.2702 79.7134L22.6052 79.8644L22.8982 79.9784ZM27.3122 82.5284C25.1332 82.1964 29.7232 82.5524 27.3122 82.5284V82.5284ZM16.9282 75.9114C16.3342 75.9484 16.8342 75.4624 16.9282 75.9114V75.9114ZM31.3902 84.8174C30.6042 85.4214 31.4542 84.0074 31.3902 84.8174V84.8174ZM21.0452 78.4324C20.2912 78.4134 20.8982 78.0044 21.0452 78.4324V78.4324ZM17.1582 75.6304C15.2612 75.0214 18.5422 75.5454 17.1582 75.6304V75.6304ZM12.5522 72.6534C11.0462 71.4604 12.3792 71.9884 12.5522 72.6534V72.6534ZM24.6422 80.3264C24.3892 80.0364 24.5222 80.3894 24.6422 80.3264V80.3264ZM32.1662 84.9434C31.7562 85.1104 32.1432 84.5014 32.1662 84.9434V84.9434ZM23.9762 79.6384C22.7952 79.4644 24.1122 79.0674 23.9762 79.6384V79.6384ZM18.3702 76.0854C16.7192 75.3884 19.4002 75.9754 18.3702 76.0854V76.0854ZM27.8532 81.9764C26.2882 81.6674 29.4582 81.3414 27.8532 81.9764V81.9764ZM22.9202 78.6294C24.7702 78.8674 20.7192 77.3704 22.5132 78.4944L22.9202 78.6294ZM29.3502 82.5834C31.0782 81.5514 30.5082 85.0014 32.2812 82.8744C34.0292 81.5974 30.7712 84.4524 32.9252 83.1024C34.4842 82.0604 36.7862 83.5964 38.2402 84.0974C39.2852 84.0464 40.3022 85.0014 41.3752 84.4194C43.4392 83.8634 37.3382 83.5954 38.9372 82.6104C37.0492 83.1594 35.6552 81.9554 34.7252 80.7454C32.6062 80.2564 30.1592 79.1724 29.1002 77.2974C28.6682 76.5944 29.7222 77.3984 28.7272 76.2474C27.4512 75.1114 26.8142 73.8214 25.9572 72.4424C24.9342 71.8974 24.8132 70.2904 24.7102 72.3884C24.7182 71.0644 23.4742 70.1724 23.1692 70.5414C23.1642 69.2654 24.5022 69.9054 23.5652 68.9614C23.3642 67.6384 22.7002 66.2614 22.5012 64.7684C22.1922 64.0474 22.4582 62.5064 21.4432 64.1354C21.0742 65.8574 21.3212 62.0204 21.8962 63.2844C22.6492 61.9924 21.6252 62.1454 21.5832 62.3234C22.0742 61.2344 21.8942 59.6894 21.4542 60.2784C21.7152 59.1234 21.8672 56.0274 21.0632 56.5774C21.5512 55.3694 21.9892 51.0494 19.8702 52.6964C19.0122 52.7094 17.5252 53.0064 16.8242 53.3564C19.0252 54.5704 16.6022 53.7954 15.7042 53.6014C15.5882 54.7264 14.7002 54.2414 13.5902 54.2514C15.3622 54.4694 12.7272 56.0644 11.7122 55.4444C10.3912 56.0744 12.8512 57.6514 11.7382 58.1384C11.8752 58.8714 9.71518 57.8724 9.88418 59.5684C8.60218 59.0274 9.70918 61.5804 10.3502 60.7164C12.5302 61.3074 11.8842 62.6514 11.9392 63.9284C11.5842 64.6734 10.1852 62.1784 11.6272 62.2944C10.4892 60.4454 10.3692 61.6264 9.42218 62.4854C9.20318 62.5464 11.8342 63.7074 10.1832 64.2804C11.6352 64.5054 11.6782 65.7754 11.9752 66.5804C12.8472 67.4904 12.6682 65.5764 13.7132 66.6704C13.0512 65.6944 10.2102 63.9244 12.4972 64.4924C12.4852 63.5124 12.0832 62.7214 12.7852 62.7404C13.4802 61.4844 12.0572 65.8404 13.6222 64.2434C14.0562 64.0534 14.1632 62.9854 14.9422 64.3444C16.0722 65.4574 15.3512 66.2634 13.7552 65.2414C14.0402 66.2124 15.8892 66.5564 15.5412 68.0704C15.9092 69.4034 16.4252 68.9124 16.8742 68.8354C17.2262 70.1294 17.4272 69.1784 17.4432 68.5634C19.0552 68.9084 18.6772 69.8614 19.1832 70.5284C20.2952 71.0284 17.5922 67.1284 19.5002 69.3554C21.5072 71.1674 20.2532 71.9224 18.4522 71.6334C19.5922 71.5404 19.9592 73.1744 21.3862 73.1174C22.6872 73.7354 23.5682 76.1114 21.3252 75.1224C20.5482 74.4204 17.7952 73.5564 20.0452 74.8904C22.1202 75.8514 23.7692 76.4254 25.7712 77.6334C27.2032 78.6544 27.8222 79.8254 28.3652 80.0604C27.1612 80.6324 24.7372 79.5994 26.5372 79.2834C25.4132 79.0804 24.1502 78.5104 25.2252 79.9104C26.1412 80.6744 28.4662 80.5954 28.8842 80.6804C28.5302 81.4574 27.9242 81.5204 28.8972 81.5804C27.8142 82.1614 29.2502 82.2524 29.3502 82.5834ZM27.1272 76.3064C26.4652 75.6144 26.2932 74.3204 27.0092 75.4454C27.3762 75.5934 28.1842 77.5614 27.1272 76.3064ZM34.3662 80.9034C34.3792 81.2174 34.7792 80.8764 34.3662 80.9034V80.9034ZM26.0832 74.6084C26.0572 73.5634 26.3222 75.4154 26.0832 74.6084V74.6084ZM25.3642 73.6424C24.5312 72.0354 26.4132 74.0964 25.3642 73.6424V73.6424ZM16.6442 67.6244C16.8852 68.4584 17.1332 67.4934 16.6442 67.6244V67.6244ZM23.5842 71.3844C23.8842 70.2574 23.9372 72.3294 23.5842 71.3844V71.3844ZM18.6812 67.9754C18.3362 67.3544 19.4042 68.5594 18.6812 67.9754V67.9754ZM22.8882 69.3244C22.1002 67.5584 23.4482 68.3594 23.0632 69.6134L22.8882 69.3244ZM15.6322 64.4854C15.2802 63.9064 14.6972 62.2074 14.8862 61.6874C15.0542 62.5334 16.6822 65.3244 15.6832 62.8434C14.5802 60.7644 17.0022 63.5164 17.2512 64.0374C17.3682 64.5534 16.5702 63.8964 17.1102 65.1064C16.1262 63.7294 16.5302 65.8674 15.6322 64.4854ZM13.3912 62.9394C13.4832 61.5924 13.9032 63.8624 13.3912 62.9394V62.9394ZM14.3992 63.2884C14.8802 62.2714 15.2142 64.7054 14.3992 63.2884V63.2884ZM11.9722 61.4104C11.1382 60.5794 10.5342 59.8164 12.0132 60.8964C12.5812 60.9174 10.7462 59.1554 12.1492 60.3354C13.6242 60.6054 12.8772 62.7544 11.9722 61.4104ZM13.2472 61.3774C13.5042 61.8504 13.7322 60.8964 13.2472 61.3774V61.3774ZM14.0322 61.6284C13.2962 60.2514 14.9242 62.2074 14.0322 61.6284V61.6284ZM12.4732 60.1394C10.0472 57.9784 15.5222 61.2674 12.8692 60.5394L12.4732 60.1394ZM19.4272 64.1784C18.3762 63.5494 19.1472 59.7464 19.5072 62.3464C20.5272 62.0164 19.4502 63.6904 20.2112 63.6744C20.0912 64.7314 19.7502 65.1094 19.4272 64.1784ZM21.9992 65.7004C22.1022 64.5534 22.2152 66.4824 21.9992 65.7004V65.7004ZM21.5522 65.2564C21.5632 65.8344 21.6672 64.7694 21.5522 65.2564V65.2564ZM12.9482 59.4294C11.3882 57.2794 17.4792 61.6064 13.9472 59.9754C13.5782 59.8784 13.1332 59.8424 12.9482 59.4294ZM17.9022 62.0544C17.7542 60.2434 18.2302 62.3544 17.9022 62.0544V62.0544ZM21.6612 64.4674C21.6842 65.1494 21.9522 63.4364 21.6612 64.4674V64.4674ZM13.1882 58.6084C14.1152 58.4104 17.0272 60.2344 14.3532 59.1294C14.0562 58.8004 13.4212 58.9494 13.1882 58.6084ZM21.1452 62.5744C21.2442 60.7214 21.6992 61.4694 21.1492 62.8394L21.1452 62.5744ZM13.8772 57.9634C14.2542 57.4094 12.8742 55.4604 14.0762 57.2654C14.5952 57.6774 15.5782 57.9554 14.7102 58.1284C16.0762 59.3344 14.3782 58.4544 13.8772 57.9634ZM20.7512 61.9964C20.9822 63.2314 21.0122 59.8864 20.7512 61.9964V61.9964ZM13.0872 56.0144C13.2412 56.3994 13.3772 55.8914 13.0872 56.0144V56.0144ZM14.8822 57.0814C15.3432 56.1124 15.7322 58.1614 14.8822 57.0814V57.0814ZM19.9382 59.8954C19.9352 59.5224 20.0352 60.4364 19.9382 59.8954V59.8954ZM19.6462 59.2464C18.9452 57.5154 20.2992 60.1634 19.6462 59.2464V59.2464ZM19.2152 58.1104C19.0982 57.3964 19.6162 59.0094 19.2152 58.1104V58.1104ZM19.9182 56.9704C19.4352 56.1214 20.5252 53.2304 20.6482 55.0244C20.1392 56.4204 20.5022 57.2034 20.8552 55.3294C21.5102 53.8534 20.7132 58.2394 19.9182 56.9704ZM20.6382 52.6694C20.6852 52.9804 20.8482 52.4124 20.6382 52.6694V52.6694ZM19.4342 76.3944C19.1482 76.1444 19.4702 76.5514 19.4342 76.3944V76.3944ZM21.9142 77.6474C23.2942 78.0014 23.2872 77.4324 22.0402 77.2634C21.3702 76.6394 19.2532 75.9774 21.1482 77.1854C21.2722 77.5044 21.6682 77.4964 21.9142 77.6474ZM17.0172 74.3944C17.7762 74.9624 19.8792 75.9994 18.1002 74.6104C18.7002 73.9144 16.9522 73.5424 17.5312 73.0754C16.0552 72.1734 16.3662 72.2544 17.4012 72.2824C15.6282 71.4884 17.6572 71.5494 17.5622 71.1414C16.8782 71.0064 14.1652 69.9354 15.7612 71.2294C14.1392 70.4034 15.3742 71.5374 14.8842 71.4174C13.2242 70.9664 16.3612 72.6814 14.6212 72.2554C15.5722 73.0084 17.1822 74.1884 15.0222 73.0524C14.7382 73.4624 16.5672 74.0824 17.0172 74.3944ZM19.6102 75.8844C18.0632 74.6424 22.7632 76.8984 19.6102 75.8844V75.8844ZM32.8882 83.9294C32.4582 84.4624 32.9292 83.3034 32.8882 83.9294V83.9294ZM34.2532 84.5024C34.9812 83.7994 34.2832 85.6264 35.4582 84.3304C35.4712 83.4024 35.4232 82.8534 34.1082 83.9804C33.7442 84.1834 33.5832 85.0354 34.2532 84.5024ZM12.5892 70.8964C11.0222 70.0224 12.3662 70.0204 12.5892 70.8964V70.8964ZM14.0452 71.8524C12.1152 71.0394 13.5042 70.9554 14.0452 71.8524V71.8524ZM22.3372 76.8524C23.1472 77.5724 26.0552 77.3804 23.3202 76.9414C22.9162 76.3424 20.7492 76.4844 22.3372 76.8524ZM33.7332 83.8914C32.5262 84.3564 34.9792 82.8454 33.7332 83.8914V83.8914ZM36.3252 85.6714C35.7882 85.8174 36.3332 85.3354 36.3252 85.6714V85.6714ZM36.3292 85.2014C34.9932 85.2874 37.7082 83.7394 36.3292 85.2014V85.2014ZM9.00418 67.8964C7.82818 66.2194 8.27318 65.4654 7.14018 64.0954C6.92418 63.0474 5.19418 60.6704 6.24518 63.1884C7.20718 64.6614 7.49218 66.9414 9.00418 67.8964ZM35.8962 84.7374C34.8542 84.0214 38.4352 83.0974 35.8962 84.7374V84.7374ZM37.8332 85.4954C37.0292 85.2684 39.1052 84.4034 37.8332 85.4954V85.4954ZM12.1582 69.0424C11.2182 68.9724 12.5212 68.5024 12.1582 69.0424V69.0424ZM37.4292 84.9774C38.6602 84.1854 37.1452 84.3064 37.2062 85.0494L37.4292 84.9774ZM20.7282 74.4514C20.0782 74.4964 20.6862 73.9154 20.7282 74.4514V74.4514ZM21.7602 75.0444C21.2562 75.1494 21.4312 74.3814 21.7602 75.0444V75.0444ZM39.4032 85.5134C40.9802 84.3754 38.4482 85.2964 39.0732 85.7294L39.4032 85.5134ZM38.7992 85.2224C37.4442 85.6984 40.0842 84.1454 38.7992 85.2224V85.2224ZM41.8852 87.2764C40.8362 87.0894 42.7482 86.6984 41.8852 87.2764V87.2764ZM12.9482 68.6524C14.1032 68.9114 17.5672 71.4994 15.5242 68.8324C14.4772 68.5224 15.1052 65.9644 14.0372 66.4164C14.7542 67.6144 14.6262 68.1224 13.1222 67.3684C11.2322 66.4444 12.0592 67.8254 12.4302 68.2054C11.9262 68.3194 13.0962 68.6444 12.9482 68.6524ZM7.68318 64.4944C7.89018 63.6374 5.77718 59.7864 6.68518 62.5634C7.01218 63.1454 6.97918 64.2474 7.68318 64.4944ZM17.3482 70.4534C16.7512 69.9554 17.3192 70.3814 17.3482 70.4534V70.4534ZM18.8132 70.7944C17.1932 70.4254 18.8132 69.8884 18.8132 70.7944V70.7944ZM31.5152 78.8004C30.5582 78.7864 31.2722 78.1824 31.5152 78.8004V78.8004ZM32.1252 79.2454C31.7732 79.3134 32.0342 78.8984 32.1252 79.2454V79.2454ZM37.1592 82.4174C36.5552 82.3714 37.6432 82.0614 37.1592 82.4174V82.4174ZM10.3122 65.1654C8.82718 64.7834 11.6972 64.6294 10.3122 65.1654V65.1654ZM30.3962 77.8174C29.5132 78.0414 30.3812 76.9224 30.3962 77.8174V77.8174ZM9.76518 63.8904C8.94118 63.6924 10.6542 63.5894 9.76518 63.8904V63.8904ZM12.3462 65.1404C12.0742 65.2534 12.3322 64.8464 12.3462 65.1404V65.1404ZM43.8422 84.4534C44.9862 84.2244 47.5932 85.0354 48.0142 84.1504C46.6242 84.1164 43.2082 83.1714 43.0472 84.3754L43.3512 84.4234L43.8422 84.4534ZM13.1672 65.3484C12.4592 65.3134 13.1882 64.4384 13.1672 65.3484V65.3484ZM6.37918 60.6384C5.20618 60.3754 6.07118 58.9074 6.37918 60.6384V60.6384ZM7.99718 61.0444C6.51618 60.5444 8.01818 60.4884 7.99718 61.0444V61.0444ZM8.92318 61.4994C8.65518 61.2834 8.71418 61.7724 8.92318 61.4994V61.4994ZM14.7442 65.2334C14.0952 65.0474 15.0192 64.9804 14.7442 65.2334V65.2334ZM8.30818 60.4744C6.43118 60.2794 8.15018 59.1674 8.30818 60.4744V60.4744ZM4.98618 58.3214C4.66418 58.5484 4.94018 57.7174 4.98618 58.3214V58.3214ZM5.48118 57.9484C5.05718 58.0384 5.40118 57.2314 5.48118 57.9484V57.9484ZM8.20818 59.5754C9.36218 59.1234 6.10818 58.6384 7.97218 59.4904L8.20818 59.5754ZM44.7172 82.1274C43.7802 81.9184 45.4562 81.4504 44.7172 82.1274V82.1274ZM49.1282 84.4124C48.3822 84.5284 49.4242 83.5404 49.1282 84.4124V84.4124ZM8.48818 58.1474C7.57218 58.3144 8.60918 57.2994 8.48818 58.1474V58.1474ZM4.60618 55.5464C4.39818 54.3514 4.42718 52.2544 6.42018 52.9624C3.75918 53.4914 8.26318 56.2714 7.69518 54.0754C8.81418 54.1314 9.88318 53.4144 9.29718 54.5004C11.5022 54.2584 13.0302 52.3454 15.1612 52.6134C16.8202 52.3934 18.6352 52.2264 20.4222 51.5584C21.8932 51.4534 23.3092 49.8704 22.5032 48.9324C20.4982 48.7624 18.3992 49.0144 16.1832 49.4544C13.7282 49.9644 11.4972 50.9334 9.01918 51.3504C6.60318 51.6754 9.50418 52.2454 8.81118 52.3714C7.55218 52.8094 10.3152 53.1034 8.64818 53.5644C7.61918 53.3684 6.54718 53.0154 6.98718 51.9304C4.67418 52.2314 2.64018 53.1904 4.46818 55.5444L4.60618 55.5464ZM10.1822 52.7074C10.7242 50.7094 13.0872 54.3514 11.0702 52.9724C10.8302 52.7914 10.4332 52.6444 10.1822 52.7074ZM10.2872 51.7374C10.7022 52.0654 11.0702 51.1554 10.2872 51.7374V51.7374ZM11.2802 51.7544C11.3522 50.8354 13.5572 52.2414 11.6442 52.0854L11.2802 51.7544ZM12.6402 51.2084C12.7842 51.7224 13.1372 50.6264 12.6402 51.2084V51.2084ZM12.9882 50.9754C13.8152 49.9814 17.6692 50.3394 14.8482 50.8774C14.0922 50.3084 13.5132 51.2134 12.9882 50.9754ZM18.0202 50.1994C17.8952 47.4844 20.5202 51.1624 18.0202 50.1994V50.1994ZM19.4482 50.1894C19.9692 48.8244 21.4742 49.6414 19.6902 49.9154C19.7282 50.0624 19.6372 50.6234 19.4482 50.1894ZM7.92518 57.4454C6.27018 56.6154 9.48418 56.4904 7.92518 57.4454V57.4454ZM9.07818 57.7644C7.88918 57.5294 9.62518 57.1834 9.07818 57.7644V57.7644ZM5.68018 55.3544C4.62518 55.0934 6.57118 54.6684 5.68018 55.3544V55.3544ZM51.7312 84.1634C51.0502 84.5204 51.7582 83.3684 51.7312 84.1634V84.1634ZM47.0522 80.9704C46.4502 81.0494 47.1862 80.0564 47.0522 80.9704V80.9704ZM53.0182 84.4714C54.2642 84.4774 56.7932 84.0844 54.0822 84.0854C53.6562 84.1504 51.6042 84.1384 53.0182 84.4714ZM10.0922 57.2044C11.1012 57.1364 11.6702 56.0924 9.89618 56.1514C7.14918 55.8694 12.3202 57.0934 9.54318 56.7434C9.17218 56.9894 10.0712 57.2724 10.0922 57.2044ZM10.9802 57.6534C10.6682 57.9974 10.8752 57.0074 10.9802 57.6534V57.6534ZM12.0342 54.8444C11.4282 54.6994 12.4712 54.3024 12.0342 54.8444V54.8444ZM8.68018 49.2394C10.4802 48.6284 12.9422 47.9394 13.7912 49.5404C12.9262 48.5004 13.4412 47.4754 14.2592 48.9974C15.4142 50.5364 15.9912 48.2974 15.2412 47.7804C16.0972 48.8434 17.0702 49.3474 15.8142 47.8474C17.1802 46.2054 13.0802 48.0634 12.1492 48.0444C11.7002 48.2444 7.52018 49.1094 8.68018 49.2394ZM9.73518 47.2194C10.7602 46.4444 13.2852 47.6804 11.6652 46.4484C11.5062 46.3094 8.12018 47.3834 9.73518 47.2194ZM13.4782 47.3744C14.6782 47.4044 12.9592 45.7594 14.3902 46.5044C14.1562 45.7374 12.7242 45.5944 12.0242 45.2864C11.6272 45.9894 12.8292 47.3834 13.4782 47.3744ZM10.3912 43.9774C9.66318 44.2634 10.8072 43.4134 10.3912 43.9774V43.9774ZM11.9212 44.3424C13.8572 44.0864 11.4272 43.5094 11.5302 44.3224L11.9212 44.3424ZM9.06518 42.1094C7.70118 40.3284 11.6292 42.4084 10.2432 40.5444C9.07718 39.6164 7.95818 41.5914 9.06518 42.1094ZM26.5562 51.5304C27.1812 50.4224 23.9762 50.0364 26.1362 51.1384C26.3332 51.2034 26.2892 51.6054 26.5562 51.5304Z" fill="black"/>
<path d="M56.0632 43.8862C55.8402 44.7692 55.7012 46.2482 55.6492 48.3262C55.6492 48.7352 55.4652 48.9392 55.0962 48.9392C54.7282 48.9392 54.4712 48.7612 54.3272 48.4062C53.9322 47.4452 53.5572 46.7762 53.2022 46.3932C52.7822 45.9462 52.2222 45.6762 51.5252 45.5842C50.7752 45.4662 48.9082 45.4062 45.9212 45.4062C45.2382 45.4062 44.7892 45.4792 44.5802 45.6232C44.4482 45.7152 44.3832 45.9132 44.3832 46.2172V55.1552C44.3832 55.4592 44.5732 55.6022 44.9542 55.5902C46.1252 55.5762 47.8222 55.4962 50.0442 55.3522C50.4782 55.3002 50.7712 55.1572 50.9222 54.9282C51.0742 54.6992 51.2222 54.1032 51.3662 53.1422C51.4582 52.6162 51.7672 52.4122 52.2932 52.5312C52.7412 52.6232 52.9332 52.8272 52.8662 53.1422C52.4972 54.9322 52.3782 57.2602 52.5102 60.1282C52.5242 60.4702 52.3072 60.6542 51.8602 60.6802C51.4912 60.7202 51.2612 60.5222 51.1692 60.0882C50.8282 58.4442 50.1922 57.5672 49.2662 57.4532C48.3382 57.3432 46.8292 57.2872 44.7382 57.2872C44.5012 57.2872 44.3842 57.3702 44.3842 57.5422V66.4242C44.3842 67.0802 44.6262 67.5282 45.1132 67.7652C45.4962 67.9612 46.3172 68.1392 47.5802 68.2972C48.2262 68.3612 48.5072 68.6472 48.4292 69.1452C48.3492 69.5802 47.7712 69.7502 46.6922 69.6582C43.5742 69.4092 41.0032 69.4232 38.9782 69.6992C38.4122 69.7762 38.1302 69.5482 38.1302 69.0092C38.1302 68.6672 38.4122 68.4702 38.9782 68.4172C40.2672 68.2712 40.9112 67.1402 40.9112 65.0222V48.1272C40.9112 47.2612 40.7572 46.5932 40.4482 46.1272C40.1382 45.6592 39.5632 45.2332 38.7212 44.8532C38.1952 44.6162 37.9992 44.2932 38.1302 43.8852C38.1952 43.6352 38.3012 43.4972 38.4452 43.4712C38.5762 43.4312 38.9262 43.4582 39.4902 43.5502C40.3192 43.6822 42.2732 43.7482 45.3502 43.7482C48.9822 43.7482 52.1182 43.6682 54.7632 43.5112C55.6442 43.4582 56.0852 43.5302 56.0852 43.7272C56.084 43.7809 56.0766 43.8342 56.0632 43.8862ZM68.8892 68.9672C68.8892 69.4922 68.5922 69.7242 68.0002 69.6552C66.1872 69.4862 63.9362 69.5102 61.2532 69.7342C60.7132 69.7882 60.3822 69.7732 60.2552 69.6962C60.1302 69.6172 60.0682 69.4002 60.0682 69.0432C60.0682 68.7292 60.4262 68.4632 61.1432 68.2462C61.8612 68.0292 62.2192 67.3802 62.2192 66.3022V48.4452C62.2192 47.3782 62.0642 46.5962 61.7562 46.0962C61.4462 45.5962 60.9042 45.2082 60.1282 44.9332C59.7202 44.7882 59.5162 44.5842 59.5162 44.3202C59.5162 43.9262 59.8122 43.6302 60.4032 43.4332C61.2992 43.1432 62.2262 42.6982 63.1872 42.0912C63.9762 41.6172 64.4762 41.3832 64.6862 41.3832C65.1732 41.3832 65.4162 41.7172 65.4162 42.3892C65.4162 42.3362 65.3892 42.9942 65.3372 44.3612C65.2992 45.6632 65.2852 46.9452 65.2992 48.2092L65.3762 65.8282C65.3762 66.6322 65.5742 67.2152 65.9692 67.5762C66.3642 67.9382 67.0412 68.1782 68.0002 68.2962C68.5922 68.3592 68.8892 68.5842 68.8892 68.9672ZM86.8832 67.6432C86.8832 67.9212 86.3802 68.3382 85.3752 68.8962C84.3682 69.4562 83.5622 69.7352 82.9572 69.7352C82.4432 69.7352 81.9912 69.4872 81.5962 68.9852C81.2012 68.4862 80.9252 68.2362 80.7662 68.2362C80.6492 68.2362 80.0252 68.5072 78.8932 69.0442C77.7632 69.5852 76.6232 69.8562 75.4802 69.8562C74.4022 69.8562 73.5002 69.5392 72.7762 68.9092C71.9882 68.2122 71.5922 67.2632 71.5922 66.0662C71.5922 63.7912 74.1962 62.1602 79.4062 61.1732C80.3002 61.0022 80.7542 60.6402 80.7652 60.0872L80.8072 58.8242C80.8842 56.6672 79.9312 55.5892 77.9452 55.5892C77.3802 55.5892 76.8422 56.0932 76.3362 57.1072C75.8312 58.1202 75.1042 58.6662 74.1572 58.7462C73.0792 58.8502 72.5382 58.3962 72.5382 57.3842C72.5382 56.7522 73.3422 56.0162 74.9462 55.1732C76.6292 54.2932 78.2492 53.8522 79.8002 53.8522C82.4702 53.8522 83.7932 55.1222 83.7662 57.6612L83.6862 65.7892C83.6752 66.6442 84.0372 67.0722 84.7732 67.0722C84.9182 67.0722 85.1942 67.0392 85.6012 66.9732C85.8366 66.9299 86.0738 66.8969 86.3122 66.8742C86.6932 66.8742 86.8832 67.1322 86.8832 67.6432ZM80.8082 63.1452C80.8202 62.8162 80.7442 62.5982 80.5792 62.4942C80.4162 62.3892 80.1562 62.3692 79.8012 62.4342C76.6302 63.0002 75.0462 64.0332 75.0462 65.5312C75.0462 67.0442 75.8682 67.8012 77.5122 67.8012C78.1702 67.8012 78.8482 67.6772 79.5442 67.4282C80.3602 67.1372 80.7672 66.7882 80.7672 66.3812L80.8082 63.1452ZM101.604 65.2942C101.604 66.6902 101.067 67.7982 99.9962 68.6202C98.9252 69.4432 97.4612 69.8542 95.6042 69.8542C94.3702 69.8542 93.1312 69.7232 91.8952 69.4582C90.8302 69.2212 90.2112 69.0052 90.0412 68.8082C89.9352 68.6222 89.8832 67.7232 89.8832 66.1052C89.8832 65.4062 90.0412 65.0452 90.3592 65.0192C90.6722 64.9792 90.9422 65.1502 91.1672 65.5312C92.1532 67.2552 93.7452 68.1182 95.9412 68.1182C97.7952 68.1182 98.7222 67.4722 98.7222 66.1832C98.7222 65.6192 98.5142 65.1442 98.0912 64.7632C97.6302 64.3282 96.7372 63.8212 95.4082 63.2432C93.4872 62.3882 92.2042 61.6382 91.5602 60.9932C90.8632 60.3092 90.5132 59.3892 90.5132 58.2302C90.5132 56.8102 91.0592 55.7052 92.1522 54.9162C93.1662 54.1542 94.5192 53.7722 96.2152 53.7722C97.2812 53.7722 98.2552 53.8572 99.1362 54.0282C100.084 54.2002 100.577 54.4102 100.617 54.6602C100.721 55.3962 100.939 56.4622 101.266 57.8582C101.307 58.0282 101.121 58.1662 100.714 58.2712C100.279 58.3632 99.9912 58.2902 99.8472 58.0552C98.8062 56.3572 97.4932 55.5082 95.9002 55.5082C94.0982 55.5082 93.1962 56.0872 93.1962 57.2452C93.1962 57.8912 93.4412 58.4022 93.9262 58.7832C94.3612 59.1122 95.3802 59.6252 96.9852 60.3232C98.6692 61.0462 99.8132 61.6982 100.418 62.2762C101.211 63.0262 101.604 64.0332 101.604 65.2942ZM124.493 68.8472C124.493 69.3082 124.183 69.5522 123.565 69.5772C122.643 69.5912 121.44 69.6552 119.954 69.7732C119.218 69.9192 118.691 69.8282 118.375 69.4992C116.297 67.2622 114.534 64.9212 113.087 62.4742C112.97 62.2642 112.817 62.1592 112.634 62.1592C112.409 62.1592 112.022 62.3572 111.471 62.7512C110.851 63.0922 110.542 63.5792 110.542 64.2092C110.542 64.6582 110.555 65.3022 110.581 66.1452C110.607 66.9862 110.817 67.5392 111.213 67.8012C111.489 67.9872 112.127 68.1312 113.126 68.2362C113.744 68.3152 114.054 68.5462 114.054 68.9262C114.054 69.2302 114.004 69.4172 113.907 69.4892C113.809 69.5622 113.548 69.5782 113.127 69.5382C111.812 69.4212 109.59 69.4872 106.457 69.7352C105.669 69.8002 105.241 69.7032 105.177 69.4392C105.146 69.3097 105.132 69.1764 105.136 69.0432C105.136 68.6372 105.537 68.3272 106.34 68.1182C107.065 67.9322 107.425 67.0852 107.425 65.5722V48.3262C107.425 47.2482 107.321 46.4982 107.111 46.0782C106.822 45.5372 106.215 45.1162 105.295 44.8132C104.861 44.6692 104.645 44.4662 104.645 44.2022C104.645 43.8202 104.955 43.5242 105.572 43.3152C106.566 42.9826 107.514 42.5249 108.392 41.9532C109.117 41.4792 109.564 41.2422 109.735 41.2422C110.274 41.2422 110.545 41.5842 110.545 42.2692C110.545 42.1762 110.539 42.8282 110.524 44.2212C110.511 45.1822 110.504 46.4712 110.504 48.0902L110.544 60.4402C110.544 60.7842 110.637 60.9542 110.819 60.9542C111.015 60.9542 111.319 60.7842 111.727 60.4402C113.097 59.3563 114.438 58.2379 115.751 57.0862C116.068 56.7572 116.225 56.4952 116.225 56.2972C116.225 55.9422 115.693 55.6922 114.628 55.5472C114.168 55.4932 113.948 55.2372 113.975 54.7762C114.016 54.3172 114.246 54.1192 114.667 54.1852C115.614 54.3172 116.996 54.3892 118.81 54.4022C120.074 54.4142 121.33 54.4222 122.58 54.4222C122.987 54.4362 123.191 54.6782 123.191 55.1522C123.191 55.5992 122.869 55.8422 122.225 55.8822C121.234 55.9143 120.261 56.1491 119.364 56.5722C118.113 57.1382 116.778 58.1312 115.357 59.5512C115.309 59.5839 115.269 59.6278 115.242 59.6792C115.215 59.7307 115.2 59.788 115.2 59.8462C115.2 60.0312 115.423 60.4712 115.871 61.1692C117.516 63.6692 119.068 65.5562 120.527 66.8322C121.462 67.6342 122.336 68.0352 123.152 68.0352C123.756 68.0352 124.132 68.0782 124.276 68.1642C124.42 68.2522 124.493 68.4792 124.493 68.8472Z" fill="black"/>
</svg>
