<svg width="128" height="128" viewBox="0 0 128 128" fill="none" xmlns="http://www.w3.org/2000/svg">
<path d="M109.521 38.4178C109.052 38.4178 108.332 38.4178 107.928 38.4178C105.031 38.3818 99.4741 38.6917 94.4362 43.0448C82.4074 53.4593 79.6614 68.789 59.0777 77.0629C41.9317 83.953 20.793 77.4304 20.793 77.4304C20.793 77.4304 39.6542 76.1187 42.1551 61.7259C44.1083 50.4683 33.8668 42.4755 27.438 32.3205C20.9011 21.9782 19.2218 13.3872 22.3713 9.67548C31.3011 -0.868661 55.8921 27.6358 68.1011 31.4773C80.0506 35.2322 88.1155 26.5115 98.011 27.7944C101.168 28.198 102.71 29.5602 103.734 31.2971C104.079 31.8809 104.93 33.8701 105.687 34.6052C106.429 35.3259 107.416 35.8593 108.339 36.3998C109.514 37.0917 110.674 38.4178 109.521 38.4178Z" fill="url(#paint0_linear_13_130)"/>
<path d="M53.0088 21.9275C50.0539 19.6789 47.0052 17.3221 44.007 15.1744C43.3295 14.6915 42.6521 14.2158 41.9818 13.7546C33.9458 8.25545 26.4935 4.81041 22.371 9.67527C19.2214 13.387 20.9007 21.978 27.4449 32.3203C27.5097 32.4284 27.5818 32.5293 27.6467 32.6374C31.0557 37.9131 40.944 50.2735 64.3818 49.7473C65.9241 48.1113 68.2665 45.0194 71.2935 41.6537C66.3854 33.7185 58.9908 26.7996 53.0088 21.9275Z" fill="url(#paint1_linear_13_130)"/>
<path d="M76.634 59.2179C76.7277 55.7008 76.0863 52.2342 74.8683 48.8828C71.7908 49.3441 68.3241 49.6612 64.3818 49.7477C61.5133 52.7963 54.962 60.9405 44.1079 68.2774C29.6575 78.0504 20.7998 77.4306 20.7998 77.4306C20.7998 77.4306 41.9458 83.9531 59.0845 77.063C65.2322 74.5909 69.7944 71.4918 73.4845 68.0756C74.0899 67.499 76.5043 64.4864 76.634 59.2179Z" fill="url(#paint2_linear_13_130)"/>
<path d="M71.3009 41.6533C68.2738 45.0119 65.9243 48.111 64.3892 49.747C68.3387 49.6605 71.8054 49.3434 74.8756 48.8821C74.5153 47.8803 74.0973 46.893 73.636 45.92C72.9441 44.4713 72.1585 43.0443 71.3009 41.6533Z" fill="url(#paint3_linear_13_130)"/>
<path d="M88.8718 28.9043C82.5439 30.8214 76.2232 34.0286 68.1007 31.4773C64.0791 30.216 58.7097 26.2737 53.0088 21.9277C58.9908 26.7998 66.3854 33.7115 71.3007 41.6539C75.7836 36.6881 81.7655 31.1385 88.8718 28.9043Z" fill="url(#paint4_linear_13_130)"/>
<path d="M74.8759 48.8823C76.0939 52.2337 76.7353 55.7003 76.6416 59.2174C76.5047 64.4787 74.0903 67.4913 73.4849 68.0751C82.1407 60.0679 86.011 50.3454 94.4434 43.0445C96.0146 41.6895 97.629 40.7237 99.2074 40.0391H99.2002C93.6723 42.3598 87.6759 46.9508 74.8759 48.8823Z" fill="url(#paint5_linear_13_130)"/>
<path d="M109.521 38.4176C110.674 38.4176 109.513 37.0915 108.346 36.4068C107.423 35.859 106.436 35.3257 105.694 34.6122C104.93 33.8771 104.079 31.8807 103.74 31.3041C102.71 29.5599 101.175 28.205 98.0179 27.8014C94.8467 27.3906 91.8629 28.0104 88.8792 28.9113C81.7728 31.1455 75.7837 36.6951 71.3008 41.6608C72.1584 43.0518 72.9512 44.4717 73.6359 45.9203C74.0972 46.9005 74.5152 47.8879 74.8756 48.8825C87.6828 46.9509 93.672 42.3599 99.1999 40.0392H99.2071C102.688 38.5257 105.946 38.3888 107.935 38.4176C108.339 38.4176 109.059 38.4176 109.521 38.4176Z" fill="url(#paint6_linear_13_130)"/>
<path d="M44.1079 68.2773C54.962 60.9404 61.5133 52.7963 64.3818 49.7476C40.944 50.2737 31.0557 37.9134 27.6467 32.6377C34.0827 42.6485 44.0935 50.5908 42.162 61.726C39.6611 76.1188 20.7998 77.4305 20.7998 77.4305C20.7998 77.4305 29.6575 78.0503 44.1079 68.2773Z" fill="url(#paint7_linear_13_130)"/>
<path d="M97.3622 35.0226C98.3971 35.0226 99.236 34.1901 99.236 33.1632C99.236 32.1362 98.3971 31.3037 97.3622 31.3037C96.3272 31.3037 95.4883 32.1362 95.4883 33.1632C95.4883 34.1901 96.3272 35.0226 97.3622 35.0226Z" fill="white"/>
<path d="M60.7208 98.792C55.4307 98.792 51.1353 103.059 51.1353 108.306V111.131C51.1353 116.378 55.438 120.644 60.7208 120.644H66.8181V117.192H60.7208C57.4632 117.192 54.7893 114.641 54.6235 111.448H67.1497C68.8938 111.448 70.3136 110.035 70.3136 108.306C70.3136 103.059 66.0109 98.792 60.7208 98.792ZM54.6235 107.996C54.7893 104.803 57.4632 102.251 60.7208 102.251C63.9785 102.251 66.6524 104.803 66.8181 107.996H54.6235Z" fill="#191D1E"/>
<path d="M4.11532 94.0642C2.76036 95.4624 2.01081 97.2858 2.01081 99.2101V99.6714H0V103.124H2.01081V120.637H5.49189V103.124H10.1766V99.6714H5.49189V99.2101C5.49189 97.0984 7.22162 95.311 9.27568 95.311H11.8486V91.8516H9.27568C7.32973 91.8588 5.4991 92.6372 4.11532 94.0642Z" fill="#191D1E"/>
<path d="M20.7999 91.8301H17.3188V120.652H20.7999V91.8301Z" fill="#191D1E"/>
<path d="M41.939 111.758C41.939 114.756 39.4813 117.192 36.4615 117.192C33.4417 117.192 30.984 114.756 30.984 111.758V98.792H27.5029V111.758C27.5029 116.659 31.5173 120.644 36.4615 120.644C41.3984 120.644 45.42 116.659 45.42 111.758V98.792H41.939V111.758Z" fill="#191D1E"/>
<path d="M82.7676 98.792C77.8307 98.792 73.8091 102.778 73.8091 107.678V120.644H77.2902V107.678C77.2902 104.68 79.7478 102.244 82.7676 102.244C85.7875 102.244 88.2451 104.68 88.2451 107.678V120.644H91.7262V107.678C91.7262 102.778 87.7046 98.792 82.7676 98.792Z" fill="#191D1E"/>
<path d="M101.802 113.293V102.252H106.515V102.244V98.7922H101.802V91.8301H98.3209V98.7922H95.229V102.244H98.3209V113.286C98.3209 117.264 101.579 120.5 105.586 120.5H107.128V117.041H105.586C103.496 117.048 101.802 115.362 101.802 113.293Z" fill="#191D1E"/>
<path d="M124.519 91.8301V100.659C123.006 99.4913 121.103 98.7994 119.042 98.7994C114.105 98.7994 110.083 102.785 110.083 107.686V109.113V109.632V111.765C110.083 116.666 114.105 120.652 119.042 120.652C123.978 120.652 128 116.666 128 111.765V111.138V109.632V109.113V107.686V91.8301H124.519ZM124.519 109.625V111.131V111.758C124.519 114.756 122.061 117.192 119.042 117.192C116.022 117.192 113.564 114.756 113.564 111.758V109.625V109.106V107.679C113.564 104.681 116.022 102.244 119.042 102.244C122.061 102.244 124.519 104.681 124.519 107.679V109.106V109.625Z" fill="#191D1E"/>
<defs>
<linearGradient id="paint0_linear_13_130" x1="20.7987" y1="43.7854" x2="109.998" y2="43.7854" gradientUnits="userSpaceOnUse">
<stop stop-color="#2A59A2"/>
<stop offset="1" stop-color="#2A59A2"/>
</linearGradient>
<linearGradient id="paint1_linear_13_130" x1="17.1908" y1="28.5563" x2="111.542" y2="28.5563" gradientUnits="userSpaceOnUse">
<stop stop-color="#91D3F2"/>
<stop offset="0.2664" stop-color="#6FB2DE"/>
<stop offset="0.5214" stop-color="#5598CE"/>
<stop offset="0.6729" stop-color="#4B8FC8"/>
</linearGradient>
<linearGradient id="paint2_linear_13_130" x1="20.7983" y1="64.5529" x2="110.653" y2="64.5529" gradientUnits="userSpaceOnUse">
<stop stop-color="#2C9EC7"/>
<stop offset="0.4037" stop-color="#2C63A5"/>
<stop offset="1" stop-color="#395DA1"/>
</linearGradient>
<linearGradient id="paint3_linear_13_130" x1="20.7985" y1="45.7016" x2="110.653" y2="45.7016" gradientUnits="userSpaceOnUse">
<stop stop-color="#4FAAC4"/>
<stop offset="0.00155453" stop-color="#2F75B1"/>
<stop offset="1" stop-color="#356EAC"/>
</linearGradient>
<linearGradient id="paint4_linear_13_130" x1="53.0082" y1="31.7951" x2="111.169" y2="31.7951" gradientUnits="userSpaceOnUse">
<stop stop-color="#4FAAC4"/>
<stop offset="0.00155453" stop-color="#2F81B6"/>
<stop offset="1" stop-color="#3B5EA9"/>
</linearGradient>
<linearGradient id="paint5_linear_13_130" x1="53.0069" y1="54.0565" x2="111.168" y2="54.0565" gradientUnits="userSpaceOnUse">
<stop stop-color="#4FAAC4"/>
<stop offset="0.00155453" stop-color="#1E3773"/>
<stop offset="1" stop-color="#203370"/>
</linearGradient>
<linearGradient id="paint6_linear_13_130" x1="90.6482" y1="58.915" x2="90.6482" y2="27.022" gradientUnits="userSpaceOnUse">
<stop stop-color="#4FAAC4"/>
<stop offset="0.00155453" stop-color="#2C5A9A"/>
<stop offset="1" stop-color="#374580"/>
</linearGradient>
<linearGradient id="paint7_linear_13_130" x1="11.0985" y1="55.037" x2="77.2847" y2="55.037" gradientUnits="userSpaceOnUse">
<stop offset="0.1115" stop-color="#38B1DA"/>
<stop offset="1" stop-color="#326FB5"/>
</linearGradient>
</defs>
</svg>
