<svg width="128" height="128" viewBox="0 0 128 128" fill="none" xmlns="http://www.w3.org/2000/svg">
<path d="M127.317 56.2971C126.645 56.2971 125.611 56.2971 125.032 56.2971C120.874 56.2454 112.901 56.6901 105.672 62.9365C88.4116 77.8803 84.4714 99.8773 54.9354 111.75C30.3323 121.636 0 112.277 0 112.277C0 112.277 27.0644 110.395 30.6529 89.7423C33.4556 73.5885 18.7599 62.1195 9.53509 47.548C0.155126 32.7076 -2.2545 20.3802 2.26484 15.0542C15.0783 -0.0757437 50.3643 40.8259 67.8832 46.338C85.0299 51.7261 96.6023 39.2126 110.801 41.0534C115.331 41.6325 117.544 43.5871 119.013 46.0795C119.509 46.9172 120.73 49.7715 121.815 50.8263C122.881 51.8605 124.297 52.6258 125.621 53.4014C127.307 54.3942 128.972 56.2971 127.317 56.2971Z" fill="url(#paint0_linear_13_132)"/>
<path d="M46.2274 32.6353C41.9873 29.4087 37.6127 26.027 33.3106 22.9451C32.3384 22.2522 31.3663 21.5697 30.4045 20.9078C18.8735 13.017 8.18012 8.07368 2.26464 15.0544C-2.2547 20.3804 0.154926 32.7077 9.54523 47.5481C9.63831 47.7033 9.74173 47.848 9.8348 48.0032C14.7264 55.5733 28.9153 73.3094 62.5467 72.5545C64.7598 70.2069 68.1209 65.7703 72.4644 60.9407C65.4217 49.5544 54.8111 39.6264 46.2274 32.6353Z" fill="url(#paint1_linear_13_132)"/>
<path d="M80.1278 86.1435C80.2622 81.0968 79.3418 76.1224 77.594 71.3135C73.1781 71.9753 68.2037 72.4304 62.5468 72.5545C58.4308 76.929 49.0301 88.6152 33.4555 99.1431C12.7203 113.167 0.0102539 112.277 0.0102539 112.277C0.0102539 112.277 30.3529 121.636 54.9456 111.75C63.7671 108.202 70.3135 103.756 75.6084 98.8535C76.4771 98.0262 79.9416 93.7034 80.1278 86.1435Z" fill="url(#paint2_linear_13_132)"/>
<path d="M72.4749 60.9404C68.1313 65.7597 64.7599 70.2066 62.5571 72.5542C68.2244 72.4301 73.1988 71.9751 77.6044 71.3132C77.0873 69.8757 76.4875 68.4589 75.8256 67.0627C74.8328 64.9841 73.7055 62.9364 72.4749 60.9404Z" fill="url(#paint3_linear_13_132)"/>
<path d="M97.6881 42.6466C88.608 45.3975 79.5383 49.9995 67.8832 46.3386C62.1125 44.5288 54.4079 38.8718 46.2275 32.6357C54.8112 39.6268 65.4218 49.5445 72.4749 60.9411C78.9075 53.8156 87.4911 45.8525 97.6881 42.6466Z" fill="url(#paint4_linear_13_132)"/>
<path d="M77.6044 71.3134C79.3521 76.1223 80.2725 81.0966 80.1381 86.1434C79.9416 93.6929 76.4771 98.0157 75.6084 98.8534C88.0288 87.3637 93.5824 73.4127 105.682 62.9365C107.937 60.9923 110.253 59.6065 112.518 58.624H112.508C104.576 61.9541 95.9713 68.5418 77.6044 71.3134Z" fill="url(#paint5_linear_13_132)"/>
<path d="M127.317 56.2972C128.972 56.2972 127.307 54.3943 125.632 53.4118C124.308 52.6258 122.891 51.8605 121.826 50.8367C120.73 49.7819 119.509 46.9172 119.023 46.0898C117.544 43.5871 115.342 41.6429 110.812 41.0638C106.262 40.4743 101.98 41.3637 97.6986 42.6564C87.5017 45.8623 78.9077 53.8255 72.4751 60.9509C73.7058 62.9469 74.8434 64.9842 75.8258 67.0629C76.4877 68.4694 77.0875 69.8862 77.6046 71.3134C95.9819 68.5418 104.576 61.9541 112.508 58.624H112.518C117.513 56.4523 122.188 56.2558 125.042 56.2972C125.621 56.2972 126.656 56.2972 127.317 56.2972Z" fill="url(#paint6_linear_13_132)"/>
<path d="M33.4555 99.1429C49.0301 88.615 58.4308 76.9288 62.5468 72.5542C28.9154 73.3092 14.7266 55.5731 9.83491 48.0029C19.0701 62.3676 33.4348 73.7642 30.6632 89.7422C27.0746 110.395 0.0102539 112.277 0.0102539 112.277C0.0102539 112.277 12.7203 113.166 33.4555 99.1429Z" fill="url(#paint7_linear_13_132)"/>
<path d="M109.87 51.4262C111.356 51.4262 112.559 50.2316 112.559 48.758C112.559 47.2844 111.356 46.0898 109.87 46.0898C108.385 46.0898 107.182 47.2844 107.182 48.758C107.182 50.2316 108.385 51.4262 109.87 51.4262Z" fill="white"/>
<defs>
<linearGradient id="paint0_linear_13_132" x1="1.03417e-05" y1="64.0007" x2="128" y2="64.0007" gradientUnits="userSpaceOnUse">
<stop stop-color="#2A59A2"/>
<stop offset="1" stop-color="#2A59A2"/>
</linearGradient>
<linearGradient id="paint1_linear_13_132" x1="-5.16854" y1="42.1468" x2="130.217" y2="42.1468" gradientUnits="userSpaceOnUse">
<stop stop-color="#91D3F2"/>
<stop offset="0.2664" stop-color="#6FB2DE"/>
<stop offset="0.5214" stop-color="#5598CE"/>
<stop offset="0.6729" stop-color="#4B8FC8"/>
</linearGradient>
<linearGradient id="paint2_linear_13_132" x1="0.0102642" y1="93.7992" x2="128.944" y2="93.7992" gradientUnits="userSpaceOnUse">
<stop stop-color="#2C9EC7"/>
<stop offset="0.4037" stop-color="#2C63A5"/>
<stop offset="1" stop-color="#395DA1"/>
</linearGradient>
<linearGradient id="paint3_linear_13_132" x1="0.00809804" y1="66.7473" x2="128.942" y2="66.7473" gradientUnits="userSpaceOnUse">
<stop stop-color="#4FAAC4"/>
<stop offset="0.00155453" stop-color="#2F75B1"/>
<stop offset="1" stop-color="#356EAC"/>
</linearGradient>
<linearGradient id="paint4_linear_13_132" x1="46.2275" y1="46.7884" x2="129.684" y2="46.7884" gradientUnits="userSpaceOnUse">
<stop stop-color="#4FAAC4"/>
<stop offset="0.00155453" stop-color="#2F81B6"/>
<stop offset="1" stop-color="#3B5EA9"/>
</linearGradient>
<linearGradient id="paint5_linear_13_132" x1="46.2242" y1="78.7387" x2="129.68" y2="78.7387" gradientUnits="userSpaceOnUse">
<stop stop-color="#4FAAC4"/>
<stop offset="0.00155453" stop-color="#1E3773"/>
<stop offset="1" stop-color="#203370"/>
</linearGradient>
<linearGradient id="paint6_linear_13_132" x1="100.238" y1="85.7093" x2="100.238" y2="39.9454" gradientUnits="userSpaceOnUse">
<stop stop-color="#4FAAC4"/>
<stop offset="0.00155453" stop-color="#2C5A9A"/>
<stop offset="1" stop-color="#374580"/>
</linearGradient>
<linearGradient id="paint7_linear_13_132" x1="-13.9103" y1="80.1455" x2="81.0615" y2="80.1455" gradientUnits="userSpaceOnUse">
<stop offset="0.1115" stop-color="#38B1DA"/>
<stop offset="1" stop-color="#326FB5"/>
</linearGradient>
</defs>
</svg>
