<svg width="128" height="128" viewBox="0 0 128 128" fill="none" xmlns="http://www.w3.org/2000/svg">
<g clip-path="url(#clip0_13_199)">
<path fill-rule="evenodd" clip-rule="evenodd" d="M107.928 38.4178H109.52C110.674 38.4178 109.513 37.0917 108.338 36.3998C108.228 36.3351 108.117 36.2704 108.005 36.2056C107.183 35.7288 106.34 35.2396 105.686 34.6052C105.135 34.0695 104.533 32.8677 104.114 32.0292C103.958 31.7172 103.827 31.4554 103.733 31.2971C102.71 29.5602 101.167 28.198 98.0105 27.7944C93.7044 27.2361 89.7449 28.5722 85.6611 29.9502C80.3604 31.7389 74.8502 33.5982 68.1006 31.4773C63.7103 30.0959 57.719 25.5255 51.4306 20.7284C40.2313 12.1851 28.0895 2.92291 22.3709 9.67548C19.2213 13.3872 20.9006 21.9782 27.4375 32.3205C29.1842 35.0796 31.2124 37.6791 33.2009 40.2278C38.5313 47.0597 43.5771 53.527 42.1546 61.7259C39.6537 76.1187 20.7925 77.4304 20.7925 77.4304C20.7925 77.4304 41.9312 83.953 59.0772 77.0629C72.2784 71.7565 78.1426 63.5479 83.8241 55.595C87.0014 51.1476 90.1215 46.7801 94.4357 43.0448C99.4736 38.6917 105.03 38.3818 107.928 38.4178ZM99.2355 33.1641C99.2355 34.1911 98.3966 35.0236 97.3617 35.0236C96.3268 35.0236 95.4878 34.1911 95.4878 33.1641C95.4878 32.1372 96.3268 31.3047 97.3617 31.3047C98.3966 31.3047 99.2355 32.1372 99.2355 33.1641Z" fill="#191D1E"/>
<path d="M60.7208 98.792C55.4307 98.792 51.1353 103.059 51.1353 108.306V111.131C51.1353 116.378 55.438 120.644 60.7208 120.644H66.8181V117.192H60.7208C57.4632 117.192 54.7893 114.641 54.6235 111.448H67.1497C68.8938 111.448 70.3136 110.035 70.3136 108.306C70.3136 103.059 66.0109 98.792 60.7208 98.792ZM54.6235 107.996C54.7893 104.803 57.4632 102.251 60.7208 102.251C63.9785 102.251 66.6524 104.803 66.8181 107.996H54.6235Z" fill="#191D1E"/>
<path d="M4.11532 94.0642C2.76036 95.4624 2.01081 97.2858 2.01081 99.2101V99.6714H0V103.124H2.01081V120.637H5.49189V103.124H10.1766V99.6714H5.49189V99.2101C5.49189 97.0984 7.22162 95.311 9.27568 95.311H11.8486V91.8516H9.27568C7.32973 91.8588 5.4991 92.6372 4.11532 94.0642Z" fill="#191D1E"/>
<path d="M20.7999 91.8301H17.3188V120.652H20.7999V91.8301Z" fill="#191D1E"/>
<path d="M41.939 111.758C41.939 114.756 39.4813 117.192 36.4615 117.192C33.4417 117.192 30.984 114.756 30.984 111.758V98.792H27.5029V111.758C27.5029 116.659 31.5173 120.644 36.4615 120.644C41.3984 120.644 45.42 116.659 45.42 111.758V98.792H41.939V111.758Z" fill="#191D1E"/>
<path d="M82.7676 98.792C77.8307 98.792 73.8091 102.778 73.8091 107.678V120.644H77.2902V107.678C77.2902 104.68 79.7478 102.244 82.7676 102.244C85.7875 102.244 88.2451 104.68 88.2451 107.678V120.644H91.7262V107.678C91.7262 102.778 87.7046 98.792 82.7676 98.792Z" fill="#191D1E"/>
<path d="M101.802 113.293V102.252H106.515V102.244V98.7922H101.802V91.8301H98.3209V98.7922H95.229V102.244H98.3209V113.286C98.3209 117.264 101.579 120.5 105.586 120.5H107.128V117.041H105.586C103.496 117.048 101.802 115.362 101.802 113.293Z" fill="#191D1E"/>
<path d="M124.519 91.8301V100.659C123.006 99.4913 121.103 98.7994 119.042 98.7994C114.105 98.7994 110.083 102.785 110.083 107.686V109.113V109.632V111.765C110.083 116.666 114.105 120.652 119.042 120.652C123.978 120.652 128 116.666 128 111.765V111.138V109.632V109.113V107.686V91.8301H124.519ZM124.519 109.625V111.131V111.758C124.519 114.756 122.061 117.192 119.042 117.192C116.022 117.192 113.564 114.756 113.564 111.758V109.625V109.106V107.679C113.564 104.681 116.022 102.244 119.042 102.244C122.061 102.244 124.519 104.681 124.519 107.679V109.106V109.625Z" fill="#191D1E"/>
</g>
<defs>
<clipPath id="clip0_13_199">
<rect width="128" height="128" fill="white"/>
</clipPath>
</defs>
</svg>
