<svg width="128" height="128" viewBox="0 0 128 128" fill="none" xmlns="http://www.w3.org/2000/svg">
<path d="M85.0357 69.7861C81.6591 69.7861 78.915 72.5302 78.915 75.912V77.7309C78.915 81.1075 81.6591 83.8568 85.0357 83.8568H88.9297V81.6354H85.0357C82.9554 81.6354 81.2462 79.9941 81.1417 77.94H89.1387C90.252 77.94 91.1615 77.0305 91.1615 75.9172C91.1615 72.5302 88.4122 69.7861 85.0357 69.7861ZM81.1417 75.7029C81.2462 73.6488 82.9554 72.0075 85.0357 72.0075C87.1159 72.0075 88.8251 73.6488 88.9297 75.7029H81.1417Z" fill="#191D1E"/>
<path d="M48.8869 66.7387C48.0193 67.6378 47.5436 68.8138 47.5436 70.0526V70.3505H46.2578V72.5719H47.5436V83.8462H49.765V72.5719H52.76V70.3505H49.765V70.0526C49.765 68.6936 50.8731 67.5437 52.1798 67.5437H53.821V65.3223H52.1798C50.9358 65.3223 49.7702 65.824 48.8869 66.7387Z" fill="#191D1E"/>
<path d="M59.5339 65.3008H57.3125V83.8456H59.5339V65.3008Z" fill="#191D1E"/>
<path d="M73.0401 78.1282C73.0401 80.0569 71.4721 81.6249 69.5434 81.6249C67.6147 81.6249 66.0466 80.0569 66.0466 78.1282V69.7861H63.8252V78.1282C63.8252 81.2852 66.3916 83.8463 69.5434 83.8463C72.6951 83.8463 75.2615 81.2799 75.2615 78.1282V69.7861H73.0401V78.1282Z" fill="#191D1E"/>
<path d="M99.1166 69.7861C95.9596 69.7861 93.3984 72.3525 93.3984 75.5043V83.8463H95.6198V75.5043C95.6198 73.5756 97.1879 72.0075 99.1166 72.0075C101.045 72.0075 102.613 73.5756 102.613 75.5043V83.8463H104.835V75.5043C104.835 72.3473 102.268 69.7861 99.1166 69.7861Z" fill="#191D1E"/>
<path d="M111.269 79.1104V72.0019H114.28V71.9967V69.7753H111.269V65.2959H109.048V69.7753H107.072V71.9967H109.048V79.1052C109.048 81.6611 111.128 83.7466 113.689 83.7466H114.672V81.5252H113.684C112.351 81.5305 111.269 80.4433 111.269 79.1104Z" fill="#191D1E"/>
<path d="M125.779 65.3011V70.9827C124.812 70.2353 123.599 69.7858 122.282 69.7858C119.13 69.7858 116.564 72.3521 116.564 75.5039V76.4238V76.7584V78.133C116.564 81.2848 119.13 83.8512 122.282 83.8512C125.439 83.8512 128 81.2848 128 78.133V77.7305V76.7531V76.4186V75.4987V65.2959L125.779 65.3011ZM125.779 76.7531V77.7253V78.1278C125.779 80.0565 124.211 81.6245 122.282 81.6245C120.353 81.6245 118.785 80.0565 118.785 78.1278V76.7531V76.4186V75.4987C118.785 73.57 120.353 72.0019 122.282 72.0019C124.211 72.0019 125.779 73.57 125.779 75.4987V76.4186V76.7531Z" fill="#191D1E"/>
<path d="M53.4759 60.7387C53.1937 60.7387 52.7598 60.7387 52.5194 60.7387C50.7736 60.7125 47.4232 60.9059 44.3917 63.5507C37.142 69.8752 35.4904 79.1842 23.0819 84.2072C12.7484 88.3939 0.00537109 84.4267 0.00537109 84.4267C0.00537109 84.4267 11.3685 83.6322 12.8791 74.893C14.0603 68.0563 7.88744 63.2057 4.00913 57.0381C0.0628662 50.7606 -0.945913 45.539 0.951429 43.2863C6.33507 36.8834 21.1532 54.1947 28.5125 56.5258C35.7151 58.8047 40.5709 53.51 46.5399 54.2888C48.4425 54.5344 49.3728 55.3603 49.9896 56.4161C50.1935 56.7663 50.7109 57.9789 51.1709 58.4232C51.6204 58.857 52.2162 59.1863 52.7703 59.5156C53.4655 59.9337 54.1659 60.7387 53.4759 60.7387Z" fill="url(#paint0_linear_13_131)"/>
<path d="M19.4124 50.7291C17.6301 49.3649 15.7955 47.9327 13.987 46.6312C13.5793 46.3385 13.1716 46.0511 12.7691 45.7688C7.92908 42.4289 3.434 40.3329 0.951253 43.2861C-0.946088 45.5441 0.0679177 50.7604 4.00895 57.0379C4.05077 57.1006 4.09258 57.1685 4.12917 57.2313C6.18332 60.4353 12.1419 67.9411 26.2701 67.6222C27.2004 66.6291 28.6117 64.7475 30.4358 62.709C27.4775 57.8846 23.019 53.6875 19.4124 50.7291Z" fill="url(#paint1_linear_13_131)"/>
<path d="M33.6558 73.3722C33.7132 71.2344 33.3265 69.1332 32.5895 67.0947C30.7339 67.377 28.6484 67.5651 26.2702 67.6174C24.5401 69.4677 20.5939 74.4123 14.0499 78.8708C5.34197 84.8032 0.00537109 84.4269 0.00537109 84.4269C0.00537109 84.4269 12.7484 88.3889 23.0819 84.2074C26.7877 82.7073 29.537 80.8204 31.7584 78.7506C32.1191 78.4004 33.5721 76.571 33.6558 73.3722Z" fill="url(#paint2_linear_13_131)"/>
<path d="M30.4358 62.709C28.6116 64.7475 27.1952 66.6291 26.27 67.6222C28.6482 67.5699 30.739 67.3818 32.5893 67.0995C32.3697 66.4932 32.1241 65.8921 31.8418 65.3015C31.4289 64.4129 30.9533 63.5505 30.4358 62.709Z" fill="url(#paint3_linear_13_131)"/>
<path d="M41.0305 54.9632C37.2201 56.1288 33.4045 58.0732 28.5122 56.5261C26.0869 55.7577 22.8567 53.3638 19.4175 50.7295C23.024 53.6879 27.4825 57.885 30.4409 62.7094C33.1379 59.6883 36.7444 56.3222 41.0305 54.9632Z" fill="url(#paint4_linear_13_131)"/>
<path d="M32.5892 67.0945C33.3262 69.133 33.7078 71.2342 33.6555 73.372C33.5719 76.5708 32.1188 78.4002 31.7529 78.7504C36.9693 73.8842 39.3005 67.9831 44.3862 63.5507C45.3323 62.7249 46.3044 62.1395 47.2557 61.7266H47.2505C43.921 63.1326 40.3093 65.9237 32.5892 67.0945Z" fill="url(#paint5_linear_13_131)"/>
<path d="M53.4759 60.7383C54.1711 60.7383 53.4707 59.9333 52.7703 59.5152C52.2163 59.1859 51.6204 58.8566 51.1709 58.4228C50.7109 57.9733 50.1987 56.7659 49.9896 56.4157C49.3729 55.3599 48.4425 54.534 46.5399 54.2884C44.6269 54.0375 42.8289 54.4138 41.0308 54.9626C36.7501 56.3164 33.1383 59.6877 30.436 62.7088C30.9535 63.5555 31.4291 64.418 31.8421 65.2961C32.1191 65.8919 32.37 66.4878 32.5895 67.0941C40.3043 65.9233 43.9213 63.1322 47.2508 61.7261H47.256C49.352 60.8062 51.3172 60.7226 52.5142 60.7383C52.7599 60.7435 53.1937 60.7383 53.4759 60.7383Z" fill="url(#paint6_linear_13_131)"/>
<path d="M14.0497 78.8709C20.5885 74.4124 24.54 69.4678 26.2701 67.6175C12.1472 67.9364 6.18857 60.4306 4.1292 57.2266C8.00751 63.3054 14.0393 68.1245 12.8737 74.888C11.3684 83.6273 0 84.4218 0 84.4218C0 84.4218 5.34183 84.8086 14.0497 78.8709Z" fill="url(#paint7_linear_13_131)"/>
<path d="M46.1427 58.6789C46.7662 58.6789 47.2717 58.1734 47.2717 57.5499C47.2717 56.9264 46.7662 56.4209 46.1427 56.4209C45.5191 56.4209 45.0137 56.9264 45.0137 57.5499C45.0137 58.1734 45.5191 58.6789 46.1427 58.6789Z" fill="white"/>
<defs>
<linearGradient id="paint0_linear_13_131" x1="0.00536587" y1="64.0003" x2="53.7594" y2="64.0003" gradientUnits="userSpaceOnUse">
<stop stop-color="#2A59A2"/>
<stop offset="1" stop-color="#2A59A2"/>
</linearGradient>
<linearGradient id="paint1_linear_13_131" x1="-2.17053" y1="54.7535" x2="54.6894" y2="54.7535" gradientUnits="userSpaceOnUse">
<stop stop-color="#91D3F2"/>
<stop offset="0.2664" stop-color="#6FB2DE"/>
<stop offset="0.5214" stop-color="#5598CE"/>
<stop offset="0.6729" stop-color="#4B8FC8"/>
</linearGradient>
<linearGradient id="paint2_linear_13_131" x1="0.00537109" y1="76.6096" x2="54.1557" y2="76.6096" gradientUnits="userSpaceOnUse">
<stop stop-color="#2C9EC7"/>
<stop offset="0.4037" stop-color="#2C63A5"/>
<stop offset="1" stop-color="#395DA1"/>
</linearGradient>
<linearGradient id="paint3_linear_13_131" x1="0.00349917" y1="65.1656" x2="54.1539" y2="65.1656" gradientUnits="userSpaceOnUse">
<stop stop-color="#4FAAC4"/>
<stop offset="0.00155453" stop-color="#2F75B1"/>
<stop offset="1" stop-color="#356EAC"/>
</linearGradient>
<linearGradient id="paint4_linear_13_131" x1="19.4175" y1="56.7194" x2="54.4678" y2="56.7194" gradientUnits="userSpaceOnUse">
<stop stop-color="#4FAAC4"/>
<stop offset="0.00155453" stop-color="#2F81B6"/>
<stop offset="1" stop-color="#3B5EA9"/>
</linearGradient>
<linearGradient id="paint5_linear_13_131" x1="19.4135" y1="70.2385" x2="54.4639" y2="70.2385" gradientUnits="userSpaceOnUse">
<stop stop-color="#4FAAC4"/>
<stop offset="0.00155453" stop-color="#1E3773"/>
<stop offset="1" stop-color="#203370"/>
</linearGradient>
<linearGradient id="paint6_linear_13_131" x1="42.0994" y1="73.1868" x2="42.0994" y2="53.8199" gradientUnits="userSpaceOnUse">
<stop stop-color="#4FAAC4"/>
<stop offset="0.00155453" stop-color="#2C5A9A"/>
<stop offset="1" stop-color="#374580"/>
</linearGradient>
<linearGradient id="paint7_linear_13_131" x1="-5.84195" y1="70.8267" x2="34.0447" y2="70.8267" gradientUnits="userSpaceOnUse">
<stop offset="0.1115" stop-color="#38B1DA"/>
<stop offset="1" stop-color="#326FB5"/>
</linearGradient>
</defs>
</svg>
