<svg width="128" height="128" viewBox="0 0 128 128" fill="none" xmlns="http://www.w3.org/2000/svg">
<path d="M108.009 54.298L109.246 54.695L109.319 54.561C108.644 53.67 107.989 52.712 106.759 52.54C105.865 52.415 104.948 52.449 104.04 52.413C104.07 51.983 103.911 51.83 103.484 52.006C103.079 52.172 102.662 52.307 102.254 52.46C101.273 52.829 100.296 53.21 99.3088 53.561C99.1368 53.623 98.9198 53.56 98.7248 53.555C98.7388 53.371 98.7248 53.179 98.7728 53.004C98.9538 52.347 99.1588 51.697 99.3448 51.043C99.4068 50.824 99.4378 50.596 99.4828 50.375L100.415 51.116C100.605 48.804 100.14 46.784 98.9348 44.833L100.144 44.901C99.6018 43.645 98.7928 42.693 97.6598 42.023C96.2308 41.176 94.6198 41.191 93.0398 41.063C92.7908 41.042 92.5388 41.06 92.2328 41.06C93.4338 43.061 93.9358 46.425 93.2078 47.564L92.8028 46.884C91.8988 48.349 91.0408 49.886 90.0358 51.322C89.0278 52.763 87.7818 53.992 86.0578 54.794L86.2658 53.762C86.0098 53.83 85.8488 53.888 85.6838 53.913C85.2548 53.978 84.8088 54.126 84.3968 54.063C83.6258 53.945 82.8708 53.71 82.1138 53.507C81.5938 53.367 81.0818 53.2 80.5668 53.045L80.5678 53.048L80.4578 52.931C79.8568 52.511 79.9538 52.008 80.2508 51.448C80.4538 51.065 80.5988 50.65 80.7568 50.244C81.1178 49.322 81.4718 48.397 81.8278 47.473C82.1838 47.075 82.5878 46.708 82.8828 46.27C83.2108 45.78 83.4608 45.234 83.7068 44.696C83.8838 44.31 84.1228 44.044 84.5268 43.874C84.7598 43.776 84.9968 43.553 85.1098 43.326C85.3168 42.908 85.4458 42.449 85.5838 41.999C85.6928 41.641 85.5578 41.385 85.1928 41.266L84.7458 41.119C84.7858 40.968 84.8028 40.806 84.8678 40.666C85.9718 38.306 87.0418 35.929 88.2008 33.596C89.3838 31.215 90.6418 28.871 91.8918 26.525C92.1568 26.027 92.5268 25.584 92.8478 25.116C93.4068 25.154 93.9658 25.213 94.5248 25.225C97.0358 25.277 99.3158 24.642 101.166 22.859C103.106 20.99 104.442 18.732 105.334 16.201L105.515 15.744L105.165 15.965C102.692 17.657 100.021 18.591 96.9788 18.1C97.0138 18.002 97.0278 17.889 97.0868 17.808C98.1528 16.365 99.2188 14.922 100.299 13.489C100.681 12.982 101.101 12.505 101.541 11.97C101.268 11.866 101.077 11.782 100.879 11.72C99.8648 11.401 98.8528 11.073 97.8318 10.778C97.3978 10.653 97.3068 10.438 97.4898 10.047C97.9198 9.12903 98.3388 8.20604 98.7658 7.28604C98.8888 7.02104 98.6628 6.76304 98.8258 6.43204C96.3258 5.95704 93.9998 5.90404 90.9998 6.21704V4.71904C89.9998 4.87204 89.3768 4.96204 88.4508 5.16604C87.5298 5.36904 86.8118 5.68704 85.9058 5.95504L85.8758 5.87004L88.0548 2.18604C86.9528 2.31204 85.9498 2.37504 84.9428 2.55504C82.9238 2.91604 80.7438 3.32304 78.7378 3.74803C77.8718 3.93104 76.9998 4.20804 75.9998 4.44204V2.85504C73.9998 3.08304 73.5618 3.74404 72.1178 4.28204C72.4128 3.39604 72.7568 2.65904 72.9888 1.91604C73.0398 1.75304 73.0518 1.56604 73.0578 1.39004L72.8538 1.31104C72.2348 1.40004 71.6268 1.48504 71.0148 1.60404C67.8268 2.22904 64.7998 3.28404 61.9498 4.85404L60.8398 5.44404L60.6218 2.03904C58.9058 2.64404 57.2598 3.43904 56.0728 4.96204L55.3958 2.33604L55.3898 2.13004L55.3588 2.03304L55.3068 2.09104C55.1598 2.26104 54.9968 2.42104 54.8668 2.60404C53.5148 4.50904 52.8038 6.63603 52.6718 8.96204L51.5838 6.57504L50.0518 13.827L47.4668 10.534C46.5773 12.9158 45.9907 15.3999 45.7208 17.928L43.9048 15.881C42.6938 19.588 41.6648 23.23 41.2838 27.078C40.3708 26.522 39.8128 25.79 39.4298 24.9C38.8788 23.617 38.7448 22.274 38.7978 20.897C38.8058 20.689 38.7768 20.478 38.7668 20.268L38.6128 20.27C36.8118 26.549 36.3428 32.97 36.5868 39.491L34.3538 35.24L34.2038 35.253C34.0528 36.896 33.8728 38.538 33.7628 40.184C33.6958 41.201 33.8658 41.02 32.8928 41.263C29.8318 42.026 26.9238 43.124 24.3808 45.052C24.2198 45.173 24.0228 45.245 23.8418 45.341L24.0258 45.513L26.6298 46.486C25.5078 47.734 24.3968 48.908 23.3568 50.143C22.3028 51.393 21.4928 52.798 20.8818 54.401C21.4648 54.158 21.9388 53.94 22.4268 53.764C22.8918 53.597 23.3728 53.473 23.8468 53.33C22.9188 54.284 22.2218 55.328 21.6458 56.446C19.5988 60.423 18.8728 64.735 18.6278 69.13C18.4688 71.972 18.5498 74.827 19.0278 77.651C19.1098 78.133 19.2138 78.611 19.3078 79.091L19.5178 79.128L20.7878 76.127C21.3638 79.344 21.4738 82.558 21.4398 85.781L21.5778 85.864L22.7248 84.465C22.8828 84.791 22.9728 84.922 23.0128 85.067C23.6158 87.245 23.7758 89.475 23.6158 91.712C23.5328 92.878 23.5508 94.01 23.8148 95.138C24.4638 97.908 25.8358 100.297 27.7298 102.39C28.1068 102.807 28.6318 103.094 29.0988 103.427C29.3188 103.584 29.4568 103.526 29.4378 103.231L29.3938 103.208L29.4388 103.23L30.3278 103.52L31.7638 104.021L31.8298 103.886L30.9108 101.969L30.8318 101.857L30.8728 101.83L30.9138 101.968L31.1088 102.03C32.0058 102.907 33.1458 103.361 34.2608 103.861C34.5718 104.601 35.0808 105.178 35.6748 105.683L36.6788 104.987L37.0308 105.427C37.8608 106.615 38.9978 107.172 40.4468 107.115C41.3568 107.079 42.2678 107.06 43.1778 107.04C46.3128 106.966 49.4488 106.906 52.5848 106.818C54.756 106.753 56.9268 106.671 59.0968 106.574C60.1068 106.53 61.1148 106.442 62.2198 106.369C60.5938 102.081 57.2078 99.816 53.4538 98.21L56.6718 97.333C61.3308 99.917 66.4688 101.616 70.6718 105.041L70.8698 104.939L70.4968 101.146C70.7568 101.323 71.0338 101.499 71.2968 101.693C72.326 102.456 73.354 103.221 74.3808 103.988L74.5708 104.076L74.6418 104.208C76.1848 105.535 77.8298 106.553 79.9988 106.507C82.9938 106.444 85.9908 106.509 88.9878 106.49C89.2168 106.489 89.5388 106.328 89.6558 106.14C90.3308 105.055 90.9948 103.961 91.5928 102.833C93.0918 100.001 94.5518 97.149 96.0288 94.306L96.4518 93.509C95.7858 93.708 95.2108 93.993 94.6388 94.285L92.7848 95.244L92.7288 95.291L92.7698 95.23C92.8348 95.034 92.8658 94.816 92.9708 94.644C94.3178 92.417 95.6218 90.161 97.0458 87.984C98.4608 85.821 100.109 83.799 100.979 81.322C101.376 80.19 101.691 79.029 102.042 77.882L102.026 77.868L101.923 77.873C101.291 78.317 100.689 78.815 100.019 79.193C99.2128 79.649 98.3488 80.002 97.5098 80.4L97.4858 80.444L97.4668 80.424L97.5098 80.4L97.6508 79.902L98.2968 77.431C98.0378 77.417 97.9298 77.466 97.8228 77.519C96.0128 78.435 94.2338 79.417 92.3858 80.252C89.8558 81.396 87.4878 82.783 85.3338 84.532C84.6048 85.123 83.9098 85.754 83.1848 86.379L83.0198 86.265C82.3058 85.623 81.5948 84.978 80.8788 84.338C80.4308 83.937 79.9758 83.544 79.5228 83.147C81.0828 81.148 82.3348 78.969 83.0908 76.55C83.5778 74.991 83.8828 73.375 84.2688 71.785L84.7148 71.65C85.9288 71.215 87.1638 70.855 88.4688 70.942C89.0318 70.98 89.5868 71.141 90.1448 71.247L89.7228 70.301L89.6798 70.252L89.7098 70.26L89.7248 70.299L90.0268 70.364C90.9968 70.802 91.9438 71.297 92.9338 71.678C94.5608 72.304 96.2568 72.601 98.0098 72.513C98.2458 72.501 98.4128 72.481 98.2308 72.196C98.3978 72.24 98.5688 72.271 98.7298 72.332C100.024 72.82 101.371 73.061 102.738 72.911C103.998 72.772 105.015 72.146 105.577 70.911L105.978 71.099C106.324 70.127 106.02 69.219 105.842 68.3C105.811 68.141 105.811 67.906 105.905 67.806C106.245 67.441 106.63 67.118 107.015 66.762L107.252 67.305C107.794 66.405 107.808 65.415 107.873 64.315L108.394 64.956L108.598 64.875C108.435 64.075 108.421 63.202 108.073 62.492C107.587 61.5 107.559 60.702 108.211 59.784C108.597 59.241 108.759 58.538 109.1 57.721L109.23 58.053L109.45 58.18C109.401 56.729 108.743 55.552 108.009 54.298ZM14.0438 126H12.3838V111.723H20.3428V113.198H14.0438V118.423H19.9618V119.898H14.0438V126ZM31.6998 120.639C31.6998 122.384 31.2608 123.746 30.3818 124.726C29.5028 125.706 28.2888 126.196 26.7388 126.196C25.7818 126.196 24.9318 125.971 24.1898 125.522C23.4478 125.073 22.8748 124.428 22.4708 123.588C22.0668 122.748 21.8658 121.765 21.8658 120.639C21.8658 118.894 22.3018 117.535 23.1748 116.562C24.0478 115.589 25.2578 115.102 26.8078 115.102C28.3058 115.102 29.4948 115.6 30.3768 116.596C31.2588 117.592 31.6998 118.939 31.6998 120.639ZM23.5458 120.639C23.5458 122.006 23.8188 123.048 24.3658 123.764C24.9128 124.48 25.7168 124.838 26.7778 124.838C27.8388 124.838 28.6448 124.482 29.1948 123.769C29.7448 123.056 30.0198 122.013 30.0198 120.639C30.0198 119.278 29.7448 118.245 29.1948 117.538C28.6448 116.831 27.8328 116.478 26.7578 116.478C25.6968 116.478 24.8958 116.826 24.3558 117.523C23.8158 118.22 23.5458 119.258 23.5458 120.639ZM36.0648 115.297V122.24C36.0648 123.113 36.2638 123.763 36.6608 124.193C37.0578 124.623 37.6798 124.838 38.5258 124.838C39.6458 124.838 40.4638 124.532 40.9818 123.92C41.4998 123.308 41.7578 122.309 41.7578 120.922V115.297H43.3788V126H42.0408L41.8068 124.564H41.7198C41.3878 125.091 40.9278 125.495 40.3378 125.775C39.7478 126.055 39.0768 126.195 38.3208 126.195C37.0188 126.195 36.0438 125.886 35.3958 125.267C34.7478 124.648 34.4238 123.659 34.4238 122.298V115.296H36.0648V115.297ZM54.1418 126V119.076C54.1418 118.203 53.9428 117.553 53.5458 117.123C53.1488 116.693 52.5268 116.478 51.6808 116.478C50.5608 116.478 49.7408 116.781 49.2198 117.386C48.6988 117.991 48.4388 118.991 48.4388 120.384V126H46.8178V115.297H48.1358L48.3998 116.762H48.4778C48.8098 116.235 49.2748 115.826 49.8738 115.536C50.4728 115.246 51.1398 115.101 51.8758 115.101C53.1648 115.101 54.1348 115.412 54.7858 116.034C55.4368 116.656 55.7628 117.65 55.7628 119.017V126H54.1418ZM66.3778 124.564H66.2898C65.5408 125.651 64.4208 126.195 62.9308 126.195C61.5308 126.195 60.4418 125.716 59.6638 124.759C58.8858 123.802 58.4968 122.441 58.4968 120.677C58.4968 118.913 58.8878 117.542 59.6688 116.566C60.4498 115.59 61.5378 115.101 62.9308 115.101C64.3828 115.101 65.4958 115.628 66.2708 116.683H66.3978L66.3298 115.912L66.2908 115.16V110.805H67.9118V126H66.5938L66.3778 124.564ZM63.1358 124.838C64.2428 124.838 65.0448 124.537 65.5428 123.935C66.0408 123.333 66.2898 122.361 66.2898 121.02V120.678C66.2898 119.161 66.0378 118.079 65.5328 117.431C65.0278 116.783 64.2228 116.459 63.1158 116.459C62.1648 116.459 61.4378 116.829 60.9328 117.567C60.4278 118.305 60.1758 119.349 60.1758 120.697C60.1758 122.064 60.4258 123.096 60.9278 123.793C61.4298 124.49 62.1658 124.838 63.1358 124.838ZM77.9308 126L77.6088 124.477H77.5298C76.9958 125.147 76.4638 125.602 75.9328 125.839C75.4018 126.076 74.7398 126.195 73.9458 126.195C72.8848 126.195 72.0528 125.922 71.4508 125.375C70.8488 124.828 70.5478 124.05 70.5478 123.041C70.5478 120.879 72.2768 119.747 75.7338 119.643L77.5498 119.584V118.92C77.5498 118.08 77.3688 117.46 77.0078 117.06C76.6468 116.66 76.0688 116.459 75.2748 116.459C74.3828 116.459 73.3738 116.732 72.2478 117.279L71.7498 116.039C72.2768 115.752 72.8548 115.528 73.4828 115.365C74.1108 115.202 74.7408 115.121 75.3728 115.121C76.6488 115.121 77.5948 115.404 78.2098 115.971C78.8248 116.538 79.1328 117.446 79.1328 118.696V126H77.9308ZM74.2688 124.857C75.2778 124.857 76.0708 124.58 76.6468 124.027C77.2228 123.474 77.5108 122.699 77.5108 121.703V120.736L75.8898 120.804C74.6008 120.849 73.6718 121.05 73.1018 121.405C72.5318 121.76 72.2478 122.312 72.2478 123.06C72.2478 123.646 72.4248 124.092 72.7798 124.398C73.1348 124.704 73.6298 124.857 74.2688 124.857ZM85.9288 124.857C86.2158 124.857 86.4918 124.836 86.7588 124.794C87.0258 124.752 87.2378 124.708 87.3938 124.662V125.902C87.2178 125.986 86.9588 126.057 86.6178 126.112C86.2768 126.167 85.9688 126.195 85.6948 126.195C83.6248 126.195 82.5898 125.105 82.5898 122.924V116.557H81.0568V115.776L82.5898 115.102L83.2738 112.817H84.2118V115.297H87.3168V116.557H84.2098V122.856C84.2098 123.501 84.3628 123.995 84.6688 124.34C84.9748 124.685 85.3948 124.857 85.9288 124.857ZM89.3958 112.396C89.3958 112.025 89.4868 111.753 89.6688 111.581C89.8508 111.409 90.0788 111.322 90.3528 111.322C90.6128 111.322 90.8378 111.41 91.0268 111.586C91.2158 111.762 91.3098 112.032 91.3098 112.397C91.3098 112.762 91.2158 113.033 91.0268 113.212C90.8378 113.391 90.6128 113.481 90.3528 113.481C90.0798 113.481 89.8518 113.392 89.6688 113.212C89.4858 113.032 89.3958 112.761 89.3958 112.396ZM91.1528 126H89.5318V115.297H91.1528V126ZM103.829 120.639C103.829 122.384 103.39 123.746 102.511 124.726C101.632 125.706 100.418 126.196 98.8678 126.196C97.9108 126.196 97.0608 125.971 96.3188 125.522C95.5768 125.073 95.0038 124.428 94.5998 123.588C94.1958 122.748 93.9948 121.765 93.9948 120.639C93.9948 118.894 94.4308 117.535 95.3038 116.562C96.1768 115.589 97.3868 115.102 98.9368 115.102C100.435 115.102 101.624 115.6 102.506 116.596C103.388 117.592 103.829 118.939 103.829 120.639ZM95.6748 120.639C95.6748 122.006 95.9478 123.048 96.4948 123.764C97.0418 124.48 97.8458 124.838 98.9068 124.838C99.9678 124.838 100.774 124.482 101.324 123.769C101.874 123.056 102.149 122.013 102.149 120.639C102.149 119.278 101.874 118.245 101.324 117.538C100.774 116.831 99.9618 116.478 98.8868 116.478C97.8258 116.478 97.0248 116.826 96.4848 117.523C95.9448 118.22 95.6748 119.258 95.6748 120.639ZM113.995 126V119.076C113.995 118.203 113.796 117.553 113.399 117.123C113.002 116.693 112.38 116.478 111.534 116.478C110.414 116.478 109.594 116.781 109.073 117.386C108.552 117.991 108.292 118.991 108.292 120.384V126H106.671V115.297H107.989L108.253 116.762H108.331C108.663 116.235 109.128 115.826 109.727 115.536C110.326 115.246 110.993 115.101 111.729 115.101C113.018 115.101 113.988 115.412 114.639 116.034C115.29 116.656 115.616 117.65 115.616 119.017V126H113.995Z" fill="#008CBA"/>
</svg>
