<svg width="128" height="128" viewBox="0 0 128 128" fill="none" xmlns="http://www.w3.org/2000/svg">
<path fill-rule="evenodd" clip-rule="evenodd" d="M23.0251 122.111C23.0481 122.46 22.8841 122.53 22.6231 122.344C22.0691 121.949 21.4481 121.608 21.0001 121.114C18.7541 118.633 17.1281 115.801 16.3581 112.517C16.0451 111.179 16.0231 109.838 16.1221 108.455C16.3131 105.804 16.1221 103.16 15.4081 100.578C15.3611 100.406 15.2541 100.25 15.0661 99.8641L13.7061 101.523L13.5421 101.424C13.5831 97.6031 13.4521 93.7931 12.7691 89.9791L11.2641 93.5371L11.0141 93.4931C10.9031 92.9241 10.7791 92.3571 10.6821 91.7861C10.1151 88.4381 10.0201 85.0531 10.2071 81.6841C10.4971 76.4741 11.3571 71.3621 13.7841 66.6471C14.4671 65.3211 15.2931 64.0841 16.3931 62.9531C15.8311 63.1221 15.2611 63.2681 14.7091 63.4671C14.1301 63.6751 13.5691 63.9341 12.8771 64.2221C13.6001 62.3221 14.5611 60.6561 15.8101 59.1741C17.0431 57.7111 18.3601 56.3181 19.6901 54.8391L16.6031 53.6851L16.3851 53.4801C16.5991 53.3681 16.8331 53.2821 17.0231 53.1381C20.0371 50.8531 23.4861 49.5521 27.1141 48.6461C28.2671 48.3591 28.0651 48.5731 28.1461 47.3671C28.2771 45.4151 28.4901 43.4691 28.6691 41.5201L28.8471 41.5051L31.4941 46.5461C31.2061 38.8161 31.7621 31.2031 33.8971 23.7591L34.0781 23.7571C34.0921 24.0061 34.1242 24.2551 34.1152 24.5031C34.0522 26.1351 34.2112 27.7281 34.8652 29.2481C35.3192 30.3041 35.9811 31.1711 37.0621 31.8301C37.5151 27.2681 38.7341 22.9501 40.1701 18.5561L42.3221 20.9831C42.6427 17.986 43.3382 15.041 44.3921 12.2171L47.4562 16.1211L49.2731 7.52413L50.5631 10.3541C50.4731 14.8491 52.6701 18.2921 55.7511 21.4241L52.3421 23.1461C55.9161 22.8551 58.4861 21.6231 60.3172 19.3411C60.8582 18.4941 61.4841 17.6891 61.9201 16.7911C62.5751 15.4451 62.5251 15.4081 61.2951 14.5831C58.0051 12.3791 55.7752 9.38813 54.5961 5.61113C56.0032 3.80513 57.9552 2.86313 59.9902 2.14513L60.2501 6.18213C60.7951 5.89313 61.1861 5.69413 61.5701 5.48213C64.9481 3.62213 68.5451 2.37013 72.3231 1.62913C73.0501 1.48713 73.7841 1.38713 74.5171 1.28013C74.6001 1.26813 74.6972 1.34113 74.7871 1.37413L71.2551 4.19013C69.9641 5.21913 68.9381 6.48013 68.0471 7.85813L67.9221 7.98313L67.9201 8.10713C67.7931 8.23913 67.6271 8.35013 67.5441 8.50513C66.8711 9.76213 66.1772 11.0091 65.5662 12.2971C65.2102 13.0471 64.9962 13.8641 64.7062 14.6861L70.3842 15.2271L70.4841 15.4441C66.4052 19.1171 62.3191 22.7831 58.5271 26.9101L62.5882 27.4661C61.4371 27.9371 60.4002 28.2951 59.4241 28.7741C56.5812 30.1691 53.9221 31.8111 52.0001 34.4351C50.5121 36.4671 48.9651 38.4561 47.4441 40.4631C46.2561 39.2731 45.0691 38.0821 43.8741 36.8821L42.9622 41.0451L45.4972 43.3261C45.3632 43.5831 45.2211 43.8361 45.0961 44.0971C44.3041 45.7601 43.4451 47.3951 42.7461 49.0961C42.0191 50.8681 41.8552 52.7781 41.7192 54.6791C41.5632 56.8621 41.3201 59.0411 41.2511 61.2261C41.1681 63.8731 41.1531 66.5281 41.6001 69.1591C41.9931 71.4751 42.2942 73.8091 42.7551 76.1111C43.0401 77.5321 43.5471 78.9081 43.9562 80.3041L44.1271 80.2701L45.8181 76.8771L45.9871 76.9201C46.5971 79.8461 47.4661 82.6921 48.7111 85.4071C49.9501 88.1091 51.3771 90.7011 53.6241 92.7981V89.2181L53.8741 89.2211C54.3331 89.4601 54.7941 89.6971 55.2441 89.9531C58.3976 91.7513 61.6714 93.3298 65.0421 94.6771C69.1251 96.3091 73.1901 97.9821 77.0681 100.066C78.2691 100.711 79.4771 101.399 80.5261 102.257C82.9071 104.207 85.1921 106.276 87.5161 108.297L87.3231 108.752C86.5621 110.274 85.7881 111.789 85.0381 113.317C84.3761 114.666 83.7402 116.027 83.0921 117.383L82.9241 117.357V112.658C82.6572 113.261 82.5511 113.871 82.3891 114.466C81.7348 116.883 81.0668 119.295 80.3851 121.704C80.1781 122.43 79.6581 122.848 78.9441 123.132C78.1081 123.464 77.3281 123.358 76.5261 123.105L76.5331 123.109L76.3011 123.002C75.0831 122.095 73.8661 121.186 72.6451 120.282C72.3331 120.052 72.0051 119.843 71.6971 119.633L72.1391 124.13L71.9041 124.251C66.9221 120.19 60.8301 118.177 55.3081 115.113C53.5131 113.97 51.7131 112.836 49.9261 111.679C49.4491 111.37 49.0152 110.997 48.4552 110.573L48.7291 112.786L48.5791 112.891L43.4762 109.388C43.5652 108.693 43.6982 108 43.7351 107.303C43.8012 106.03 43.9591 104.737 43.8141 103.483C43.4631 100.454 41.8891 98.1301 39.3761 96.4081C38.3535 95.7061 37.37 94.9486 36.4301 94.1391C35.9131 93.6951 35.5131 93.1051 35.3981 92.4671L38.3302 92.7301C37.4582 91.1041 36.5901 89.6651 35.9011 88.1451C35.2111 86.6201 34.5532 85.0501 34.6381 83.1221C35.1511 83.8191 35.4841 84.4671 36.2472 84.7761C35.9862 82.2061 36.3611 79.7731 36.7801 77.3591C37.1971 74.9481 37.7771 72.5651 38.2861 70.1691C36.5091 73.2811 34.6961 76.3681 34.1511 80.1251L32.6841 78.5811C32.6201 79.5131 32.4971 80.3551 32.5161 81.1951C32.5581 83.0771 32.6292 84.9611 32.7621 86.8391C32.9131 88.9811 33.4981 91.0221 34.3442 92.9971C35.3082 95.2521 36.9601 97.0061 38.4902 98.8551C39.4632 100.029 40.2961 101.302 40.5171 102.848C40.7561 104.521 40.9131 106.205 41.1061 107.885L41.4941 113.569C40.3811 113.798 37.2731 113.047 36.6211 112.339L37.1441 112.06C36.5851 111.577 35.9671 111.156 35.4972 110.608C34.7831 109.777 34.6432 108.704 34.4762 107.654C34.4332 107.384 34.2141 107.143 34.0771 106.889C33.8171 107.125 33.4752 107.318 33.3232 107.61C33.1952 107.855 33.2262 108.23 33.2962 108.521C33.4251 109.062 33.5901 109.604 33.8151 110.111C34.4941 111.647 35.2301 113.157 35.9021 114.695C36.7281 116.582 37.4071 118.513 37.3611 120.617C37.3471 121.234 37.2211 121.35 36.6531 121.123C35.887 120.811 35.1356 120.463 34.4011 120.082C33.8232 119.786 33.2771 119.429 32.6461 119.058V119.721L32.5951 119.764C32.4151 119.673 32.2101 119.612 32.0571 119.487C31.4071 118.956 30.7721 118.405 30.1321 117.862L30.1361 117.867L30.0061 117.607L28.8591 114.753L28.7551 115.173L28.5701 115.563C27.7081 113.983 27.2541 112.401 27.0211 110.737C26.6021 112.16 27.0501 113.518 27.2381 114.975L27.6161 114.565C27.9431 115.224 28.2251 115.863 28.5691 116.468C28.9161 117.078 29.2991 117.67 29.7111 118.238C29.9191 118.527 30.2241 118.746 30.4841 118.996C31.0891 120.52 31.7132 122.039 32.0182 123.823L28.7391 122.851C27.4171 122.259 26.0651 121.72 25.0021 120.68C24.9501 120.63 24.8491 120.631 24.7711 120.608L24.7231 120.445L24.6761 120.477L24.7691 120.61L25.8591 122.882L25.7811 123.042L24.0781 122.448L23.0251 122.111L22.9721 122.082L23.0251 122.111ZM24.3591 120.056L23.0771 116.963L22.6561 117.25L21.7951 113.219C20.9701 114.798 22.5901 119.302 24.3591 120.056ZM38.4601 69.7481L38.4422 69.6951L38.3971 69.7071L38.4151 69.7601L38.4601 69.7481Z" fill="#D3EDF6"/>
<path fill-rule="evenodd" clip-rule="evenodd" d="M87.5192 108.3C85.1952 106.279 82.9102 104.211 80.5292 102.26C79.4802 101.402 78.2722 100.714 77.0712 100.069C73.1942 97.9859 69.1282 96.3129 65.0452 94.6799C61.6744 93.3325 58.4006 91.7541 55.2472 89.9559C54.7972 89.6999 54.3362 89.4629 53.8772 89.2239L53.6272 89.2209V92.8009C51.3802 90.7049 49.9542 88.1119 48.7142 85.4099C47.4692 82.6959 46.6002 79.8489 45.9902 76.9229L45.8212 76.8799L44.1302 80.2729L43.9592 80.3069C43.5512 78.9109 43.0432 77.5349 42.7582 76.1139C42.2972 73.8119 41.9962 71.4779 41.6032 69.1619C41.1572 66.5309 41.1722 63.8759 41.2542 61.2289C41.3222 59.0439 41.5662 56.8639 41.7222 54.6819C41.8582 52.7819 42.0222 50.8719 42.7492 49.0989C43.4472 47.3979 44.3072 45.7629 45.0992 44.0999C45.2242 43.8379 45.3662 43.5859 45.5002 43.3289L45.7502 43.5129C47.3352 44.8179 48.9362 46.1039 50.4902 47.4459C50.7862 47.7009 51.0082 48.1539 51.0702 48.5479C51.1902 49.3019 51.1802 50.0789 51.2062 50.8469C51.2492 52.1349 51.5832 52.6809 52.7982 53.0699C56.9482 54.3959 61.1732 55.1459 65.5552 54.6349C66.7752 54.4919 67.7972 54.0309 68.5072 53.0059C69.1353 52.1035 69.7438 51.1876 70.3322 50.2589C71.0032 49.1949 71.1852 49.1229 72.4152 49.3089C72.9692 49.3929 73.1492 49.6499 73.1362 50.1669C73.1162 50.9549 73.1322 51.7439 73.1232 52.5319C73.1042 54.2859 74.0672 55.2899 75.6752 55.6609C77.0452 55.9759 78.4442 56.2079 79.8432 56.3399C81.6152 56.5059 83.4102 56.6659 85.1402 56.0089C84.7172 57.1039 84.2982 58.1999 83.8702 59.2939C83.6822 59.7749 83.5102 60.2669 83.2692 60.7219C82.9172 61.3859 82.8022 61.9809 83.5162 62.4799L83.6452 62.6179L83.6442 62.6149L83.9842 63.2659C84.7862 64.8989 85.6782 66.4959 86.3662 68.1759C87.4502 70.8259 87.8342 73.6349 87.9092 76.4879C88.0322 79.8379 87.3922 83.0509 86.1282 86.1409C85.7602 87.0379 85.4342 88.0259 84.8162 88.7359C82.0342 91.9399 78.4962 93.3949 74.2322 92.9559L73.0032 92.8129C73.0624 92.9378 73.1621 93.039 73.2862 93.0999C76.1552 94.7689 79.0232 96.4389 81.8952 98.1029C82.0502 98.1929 82.2312 98.2369 82.3992 98.3029C82.9352 98.7739 83.4752 99.2399 84.0072 99.7159L86.5462 101.999L86.7412 102.135C87.6012 101.394 88.4272 100.646 89.2902 99.9459C91.8432 97.8729 94.6512 96.2279 97.6502 94.8719C99.8392 93.8829 101.95 92.7179 104.096 91.6319C104.221 91.5689 104.35 91.5099 104.658 91.5279L103.891 94.4569L103.724 95.0469L103.672 95.0749L103.695 95.0979L103.723 95.0459C104.718 94.5739 105.742 94.1549 106.698 93.6149C107.492 93.1659 108.205 92.5759 108.955 92.0499C108.813 92.3699 108.697 92.7049 108.523 93.0069C107.227 95.2629 105.495 97.1619 103.608 98.9279C103.071 99.4299 102.492 99.8869 101.86 100.427L102.022 97.5739C99.2562 99.8749 96.9392 102.347 94.6962 104.895L94.5282 104.841L94.2962 101.496C91.8572 103.692 89.4472 105.752 87.5192 108.3ZM54.6682 57.4199C54.7042 57.7639 54.7102 58.0099 54.7582 58.2479C55.0982 59.9659 56.0762 61.2829 57.4242 62.3309C60.2042 64.4949 63.4582 65.5249 66.8672 66.0949C69.9392 66.6089 73.0442 66.3939 76.1382 66.3129C76.2772 66.3099 76.4142 66.2649 76.6802 66.2149L75.9702 64.7279C75.6172 64.0029 75.2452 63.2869 74.9092 62.5539C74.6652 62.0219 74.8302 61.6539 75.3362 61.3039C76.4002 60.5679 77.4092 59.7479 78.4822 58.9309C77.7478 58.3202 76.8392 57.9572 75.8862 57.8939C73.2392 57.6899 70.5862 57.4839 67.9322 57.4399C63.5502 57.3669 59.1662 57.4199 54.6682 57.4199ZM68.6112 75.4819L68.8562 75.4329C69.2122 74.7149 69.6152 74.0159 69.9122 73.2739C70.2762 72.3619 70.6192 71.4929 71.6442 71.0959C72.2002 70.8809 72.7052 70.5339 73.2322 70.2469L73.1812 70.0509C68.5802 70.3359 64.0732 69.8339 59.5402 68.3689C59.6612 70.3129 60.1542 71.9589 60.9662 73.6149L62.7152 71.6669C63.2652 73.1529 63.6342 74.5999 64.7512 75.8529L66.8902 72.6939L68.6112 75.4819ZM72.7182 92.7539L72.7062 92.7169L72.6532 92.7059L72.6682 92.7689L72.7182 92.7539ZM47.4482 40.4649C48.9692 38.4569 50.5152 36.4679 52.0042 34.4369C53.9262 31.8129 56.5852 30.1709 59.4282 28.7759C60.4042 28.2969 61.4402 27.9389 62.5922 27.4679L58.5312 26.9119C62.3232 22.7849 66.4092 19.1189 70.4882 15.4459L70.3882 15.2289L64.7102 14.6879C65.0012 13.8669 65.2142 13.0489 65.5702 12.2989C66.1812 11.0119 66.8752 9.76387 67.5482 8.50687C67.6312 8.35187 67.7972 8.23987 67.9242 8.10887C68.1342 8.19187 68.3382 8.30587 68.5562 8.35287C71.6372 9.01987 74.7202 9.67387 77.8002 10.3419C78.6402 10.5239 78.6532 10.5289 78.6532 9.62887V4.99387C79.6672 4.71587 80.6712 4.38787 81.6982 4.16987C84.0757 3.66105 86.4609 3.18966 88.8532 2.75587C90.0462 2.54287 91.2632 2.46787 92.5692 2.31787L90.0392 6.68587L90.1812 6.78687C91.2572 6.46987 92.3202 6.09287 93.4122 5.85287C94.5112 5.60987 95.6392 5.50387 96.8602 5.32187V7.09787C99.8592 6.72487 102.748 6.78787 105.715 7.35087C105.522 7.74287 105.363 8.04987 105.218 8.36387C104.712 9.45387 104.214 10.5489 103.705 11.6359C103.488 12.0999 103.597 12.3549 104.111 12.5029C105.321 12.8519 106.521 13.2409 107.723 13.6199C107.957 13.6939 108.183 13.7929 108.507 13.9159C107.987 14.5499 107.488 15.1159 107.036 15.7169C105.755 17.4149 104.492 19.1269 103.228 20.8379C103.158 20.9329 103.142 21.0669 103.1 21.1839L100.551 25.1559C99.7732 26.4779 98.9922 27.7989 98.2242 29.1269C98.1682 29.2239 98.2072 29.3749 98.2032 29.5019C97.8222 30.0569 97.3842 30.5819 97.0692 31.1719C95.5882 33.9539 94.0952 36.7329 92.6942 39.5549C91.3212 42.3219 90.0512 45.1389 88.7432 47.9369C88.6652 48.1029 88.6452 48.2939 88.5982 48.4739L82.2792 47.1819C81.5882 46.2379 80.5612 46.1529 79.7772 46.9749C78.0162 47.0309 76.2552 47.1179 74.4932 47.1309C73.5892 47.1379 72.6602 47.1229 71.7832 46.9289C69.0732 46.3309 66.3832 45.6419 63.6842 44.9889C63.2392 43.9089 61.6922 43.7429 60.9332 44.4259L60.7472 44.4199C57.4032 43.8509 54.0462 43.4579 50.6432 43.5949C50.4852 43.6009 50.2792 43.4979 50.1652 43.3789C49.2512 42.4159 48.3522 41.4379 47.4482 40.4649ZM58.9472 42.4109L59.2802 42.2669C60.7182 41.5139 62.2102 41.0609 63.8572 41.3949C64.1762 41.4599 64.5062 41.4769 64.8902 41.5229C63.9232 40.0479 61.4872 39.9169 60.1362 40.7939C59.5472 41.1759 58.9802 41.6049 58.9472 42.4109L58.9182 42.4629L58.9472 42.4109ZM65.1422 39.1019C64.5622 37.7119 62.7332 37.0239 61.0952 37.4749C59.7212 37.8519 58.4262 39.3239 58.5702 40.4699C60.4042 38.3979 62.6212 38.2119 65.1422 39.1019ZM83.2112 41.7539C84.9982 41.9209 86.5482 42.5099 87.6552 44.0799C87.7352 42.7819 87.2302 42.0199 86.1792 41.4449C85.1952 40.9059 83.9992 41.0559 83.2112 41.7539ZM86.3622 46.7419C86.2112 45.2959 85.7592 44.1279 84.3202 43.7159C83.5802 43.5039 82.8312 43.6249 82.2032 44.2229C84.0872 44.7409 84.7532 44.7999 86.3622 46.7419Z" fill="#E9F5FA"/>
<path fill-rule="evenodd" clip-rule="evenodd" d="M87.909 76.486C87.833 73.633 87.45 70.824 86.366 68.174C85.678 66.494 84.786 64.897 83.984 63.264L83.644 62.613C84.255 62.797 84.862 62.995 85.478 63.16C86.375 63.401 87.27 63.679 88.185 63.819C88.673 63.894 89.202 63.718 89.71 63.641C89.906 63.611 90.096 63.542 90.4 63.462L90.153 64.685C92.195 63.736 93.673 62.277 94.868 60.569C96.058 58.867 97.076 57.045 98.148 55.307L98.627 56.114C99.49 54.764 98.895 50.777 97.471 48.404C97.833 48.404 98.132 48.383 98.427 48.407C100.3 48.559 102.21 48.541 103.904 49.545C105.247 50.34 106.206 51.468 106.849 52.957L105.415 52.877C106.844 55.19 107.394 57.585 107.17 60.326L106.065 59.448C106.012 59.71 105.974 59.98 105.901 60.24C105.68 61.017 105.437 61.787 105.223 62.566C105.166 62.774 105.183 63.001 105.166 63.219C105.398 63.225 105.654 63.299 105.859 63.226C107.03 62.81 108.188 62.358 109.351 61.921C109.836 61.739 110.33 61.579 110.809 61.382C111.315 61.174 111.503 61.354 111.468 61.864C110.151 62.323 108.832 62.78 107.517 63.245C107.349 63.305 107.195 63.408 107.035 63.491C108.701 63.306 109.362 63.394 110.214 63.989C110.834 64.422 110.924 64.961 110.373 65.488C109.945 65.897 109.432 66.221 108.936 66.551C108.639 66.75 108.302 66.889 107.89 67.104L108.462 67.321C107.554 67.917 106.68 68.431 105.875 69.036C104.874 69.789 103.869 70.557 102.981 71.434C102.273 72.133 102.489 72.621 103.48 72.701C104.695 72.799 105.918 72.803 107.137 72.845L107.92 72.846L107.342 73.593L107.313 73.641L107.338 73.59C107.795 73.59 108.258 73.634 108.706 73.572C108.988 73.532 109.384 73.399 109.49 73.188C109.719 72.73 110.089 72.673 110.493 72.597C111.283 72.448 112.077 72.316 112.861 72.139C113.488 71.997 114.104 71.799 114.724 71.626L114.816 71.756L113.428 73.049L113.22 72.287C111.018 73.299 108.843 74.216 106.751 75.295C105.742 75.816 104.891 76.642 103.968 77.331L103.917 77.389L103.975 77.339L104.566 77.381L102.253 79.332C102.622 79.653 102.918 80.075 103.315 80.219C104.062 80.491 104.86 80.702 105.65 80.759C106.841 80.844 108.043 80.775 109.24 80.771L109.271 80.509L108.334 80.124L113.108 79.549C109.851 81.553 106.092 81.342 102.491 81.946C102.497 82.92 103.313 83.379 103.835 84.048L103.446 84.37L104.576 85.318C104.791 85.656 104.593 85.68 104.314 85.694C102.236 85.798 100.225 85.446 98.297 84.704C97.122 84.252 95.999 83.665 94.85 83.145C94.742 83.096 94.613 83.093 94.493 83.068L94.475 83.022L94.439 83.012L94.49 83.071L94.99 84.193C94.328 84.068 93.67 83.877 93.003 83.832C91.456 83.728 89.992 84.156 88.552 84.671L88.024 84.83C88.066 84.297 88.141 83.763 88.142 83.229C88.147 81.062 88.132 78.896 88.112 76.729C88.113 76.649 87.98 76.567 87.909 76.486Z" fill="#B3E0EE"/>
<path fill-rule="evenodd" clip-rule="evenodd" d="M87.5189 108.3C89.4469 105.753 91.8569 103.692 94.2949 101.496L94.5269 104.841L94.6949 104.895C96.9379 102.348 99.2549 99.8749 102.021 97.5739L101.859 100.427C102.491 99.8869 103.07 99.4299 103.607 98.9279C105.494 97.1619 107.226 95.263 108.522 93.007C108.695 92.705 108.812 92.3699 108.954 92.0499L109.077 92.0439L109.096 92.0599C108.679 93.4209 108.306 94.7969 107.835 96.1389C106.803 99.0749 104.85 101.472 103.172 104.036C101.484 106.617 99.9379 109.291 98.3399 111.931C98.2159 112.136 98.1789 112.393 98.1019 112.626L98.0529 112.698L98.1189 112.643C98.8519 112.264 99.5829 111.881 100.318 111.506C100.995 111.16 101.677 110.822 102.466 110.586L101.965 111.531C100.215 114.902 98.4839 118.283 96.7069 121.64C95.9989 122.978 95.2109 124.275 94.4109 125.56C94.2729 125.783 93.8899 125.974 93.6189 125.975C90.0659 125.996 86.5129 125.919 82.9619 125.995C80.3919 126.049 78.4409 124.843 76.6109 123.27L76.5259 123.111C77.3289 123.364 78.1089 123.47 78.9439 123.138C79.6579 122.854 80.1779 122.436 80.3849 121.71C81.0669 119.301 81.7349 116.888 82.3889 114.472C82.5509 113.877 82.6569 113.266 82.9239 112.664V117.363L83.0919 117.389C83.7399 116.033 84.3759 114.671 85.0379 113.323C85.7879 111.795 86.5619 110.28 87.3229 108.758L87.5189 108.3Z" fill="#65C1DD"/>
<path fill-rule="evenodd" clip-rule="evenodd" d="M43.4792 109.392L48.5822 112.895L48.7322 112.79L48.4582 110.577C49.0182 111.001 49.4522 111.374 49.9292 111.683C51.7162 112.839 53.5162 113.974 55.3112 115.117L51.4972 116.156C55.9462 118.061 59.9602 120.746 61.8892 125.829C60.5782 125.916 59.3832 126.019 58.1862 126.072C55.6132 126.184 53.0402 126.29 50.4662 126.362C46.7492 126.466 43.0312 126.536 39.3142 126.624C38.2342 126.649 37.1542 126.671 36.0762 126.714C34.3582 126.782 33.0112 126.121 32.0262 124.713C31.9102 124.546 31.7722 124.395 31.6092 124.192L30.4192 125.018C29.7142 124.418 29.1102 123.735 28.7432 122.857L32.0222 123.829C31.7172 122.045 31.0932 120.526 30.4882 119.002L30.1362 117.868C30.7762 118.411 31.4112 118.961 32.0612 119.493C32.2142 119.618 32.4182 119.68 32.5992 119.77L32.6852 119.907L32.6502 119.727V119.064C33.2812 119.435 33.8272 119.792 34.4052 120.088C35.1396 120.469 35.891 120.817 36.6572 121.129C37.2252 121.356 37.3512 121.239 37.3652 120.623C37.4112 118.519 36.7312 116.587 35.9062 114.701C35.2332 113.162 34.4972 111.653 33.8192 110.117C33.5983 109.604 33.4246 109.072 33.3002 108.527C33.2312 108.235 33.1992 107.861 33.3272 107.616C33.4792 107.324 33.8212 107.132 34.0812 106.895C34.2192 107.149 34.4372 107.391 34.4802 107.66C34.6472 108.71 34.7872 109.783 35.5012 110.614C35.9712 111.161 36.5892 111.582 37.1482 112.066L36.6252 112.345C37.2772 113.053 40.3852 113.804 41.4982 113.575L41.1102 107.891L41.4842 108.084C42.1492 108.516 42.8132 108.955 43.4792 109.392Z" fill="#65C2DD"/>
<path fill-rule="evenodd" clip-rule="evenodd" d="M104.579 85.3182L103.449 84.3702L103.838 84.0482C103.317 83.3792 102.501 82.9202 102.494 81.9462C106.096 81.3422 109.854 81.5532 113.111 79.5492L108.337 80.1242L109.274 80.5092L109.243 80.7712C108.046 80.7752 106.844 80.8442 105.653 80.7592C104.863 80.7022 104.065 80.4912 103.318 80.2192C102.921 80.0742 102.626 79.6532 102.256 79.3322L104.569 77.3812L103.978 77.3392L103.971 77.3312C104.893 76.6432 105.744 75.8162 106.754 75.2962C108.845 74.2172 111.021 73.3002 113.223 72.2882L113.431 73.0502L114.819 71.7572L114.727 71.6272C114.106 71.8002 113.491 71.9982 112.864 72.1402C112.08 72.3172 111.286 72.4492 110.496 72.5982C110.092 72.6742 109.722 72.7322 109.493 73.1892C109.387 73.4002 108.992 73.5332 108.709 73.5732C108.261 73.6362 107.798 73.5912 107.341 73.5912L107.345 73.5942L107.923 72.8472L107.14 72.8462C105.921 72.8042 104.698 72.8002 103.483 72.7022C102.493 72.6222 102.277 72.1352 102.984 71.4352C103.872 70.5572 104.876 69.7892 105.878 69.0372C106.683 68.4322 107.557 67.9182 108.465 67.3222L107.893 67.1052C108.305 66.8902 108.642 66.7512 108.939 66.5522C109.435 66.2212 109.948 65.8972 110.376 65.4892C110.927 64.9622 110.837 64.4242 110.217 63.9902C109.365 63.3952 108.704 63.3082 107.038 63.4922C107.199 63.4092 107.352 63.3062 107.52 63.2462C108.835 62.7812 110.154 62.3242 111.471 61.8652C112.547 61.9082 113.634 61.8672 114.694 62.0162C116.152 62.2212 116.928 63.3562 117.729 64.4122L117.642 64.5712L116.176 64.0992C117.046 65.5852 117.827 66.9812 117.881 68.7002C117.769 68.6382 117.668 68.6142 117.62 68.5492C117.559 68.4672 117.54 68.3542 117.466 68.1552C117.062 69.1242 116.87 69.9572 116.412 70.6012C115.64 71.6892 115.672 72.6352 116.248 73.8112C116.66 74.6522 116.677 75.6872 116.87 76.6362L116.628 76.7322L116.01 75.9722C115.933 77.2772 115.917 78.4502 115.275 79.5182L114.994 78.8732C114.536 79.2952 114.08 79.6782 113.678 80.1112C113.568 80.2292 113.567 80.5082 113.604 80.6962C113.814 81.7852 114.175 82.8632 113.765 84.0152L113.289 83.7932C112.622 85.2562 111.418 85.9992 109.925 86.1642C108.303 86.3432 106.707 86.0572 105.172 85.4782C104.979 85.4072 104.776 85.3712 104.579 85.3182Z" fill="#EBF7FE"/>
<path fill-rule="evenodd" clip-rule="evenodd" d="M82.2798 47.1808L88.5988 48.4728L89.1288 48.6468C89.5618 48.7878 89.7218 49.0918 89.5918 49.5158C89.4288 50.0488 89.2758 50.5938 89.0298 51.0898C88.8968 51.3598 88.6158 51.6238 88.3398 51.7398C87.8608 51.9418 87.5778 52.2568 87.3678 52.7148C87.0758 53.3528 86.7808 54.0008 86.3898 54.5808C86.0398 55.1008 85.5618 55.5348 85.1398 56.0078C83.4098 56.6648 81.6148 56.5048 79.8428 56.3388C78.44 56.2051 77.0476 55.9783 75.6748 55.6598C74.0678 55.2888 73.1038 54.2848 73.1228 52.5308C73.1318 51.7428 73.1158 50.9538 73.1358 50.1658C73.1488 49.6488 72.9688 49.3918 72.4148 49.3078C71.1858 49.1218 71.0038 49.1928 70.3318 50.2578C69.7435 51.1865 69.135 52.1024 68.5068 53.0048C67.7968 54.0298 66.7758 54.4918 65.5548 54.6338C61.1738 55.1438 56.9488 54.3938 52.7978 53.0688C51.5828 52.6798 51.2498 52.1338 51.2058 50.8458C51.1798 50.0778 51.1898 49.3018 51.0698 48.5468C51.0078 48.1538 50.7858 47.7008 50.4898 47.4448C48.9358 46.1028 47.3348 44.8168 45.7498 43.5118L45.4998 43.3278L42.9648 41.0468L43.8768 36.8838L47.4468 40.4648C48.3508 41.4378 49.2498 42.4158 50.1658 43.3778C50.2798 43.4968 50.4848 43.6008 50.6438 43.5938C54.0458 43.4568 57.4038 43.8488 60.7478 44.4188L60.9338 44.4248L63.6848 44.9878C66.3828 45.6408 69.0738 46.3298 71.7838 46.9278C72.6598 47.1218 73.5898 47.1368 74.4938 47.1298C76.2548 47.1168 78.0158 47.0298 79.7778 46.9738L82.2798 47.1808ZM59.5818 45.4928C57.7408 45.3868 55.8998 45.2448 54.0568 45.1918C53.3168 45.1708 52.8988 45.5928 52.8108 46.3248C52.653 47.6228 52.5316 48.925 52.4468 50.2298C52.3638 51.5578 52.4938 51.7198 53.7768 52.1538C57.3208 53.3518 60.9778 53.7328 64.6998 53.6708C66.0598 53.6488 67.0608 53.0428 67.7418 51.9318C68.3048 51.0148 68.7838 50.0448 69.2518 49.0748C69.6588 48.2308 69.5318 47.8468 68.6278 47.5498C67.2528 47.0968 65.8408 46.7548 64.4448 46.3648L59.5818 45.4928ZM80.0828 48.1518L80.0628 48.2878C79.3568 48.2878 78.6488 48.2578 77.9448 48.2968C77.3258 48.3308 76.7078 48.4208 76.0958 48.5248C75.2908 48.6618 74.7778 49.1358 74.6998 49.9668C74.6168 50.8318 74.5468 51.7028 74.5488 52.5708C74.5518 54.0828 74.8278 54.4168 76.2798 54.7668C78.3508 55.2648 80.4548 55.4628 82.5818 55.3618C83.0958 55.3378 83.6078 55.2218 84.1168 55.1248C84.7908 54.9958 85.2748 54.6378 85.5518 53.9778C86.0478 52.7928 86.6078 51.6348 87.0928 50.4468C87.4968 49.4568 87.3978 49.1978 86.3588 49.0258C84.2748 48.6798 82.1758 48.4368 80.0828 48.1518Z" fill="#515053"/>
<path fill-rule="evenodd" clip-rule="evenodd" d="M60.3221 19.341C58.4911 21.623 55.9211 22.855 52.3471 23.146L55.7561 21.424C52.6751 18.293 50.4781 14.849 50.5681 10.354C50.7241 7.59503 51.5681 5.07403 53.1701 2.81503C53.3241 2.59803 53.5181 2.40903 53.6921 2.20703L53.7901 2.25303L53.7971 2.49603C53.6871 2.67803 53.5211 2.84703 53.4761 3.04303C52.8501 5.77803 52.8591 8.50203 53.7541 11.181C54.7241 14.084 56.5541 16.365 58.9541 18.221C59.4211 18.583 59.8671 18.968 60.3221 19.341Z" fill="#4F4E51"/>
<path fill-rule="evenodd" clip-rule="evenodd" d="M87.9089 76.4858C87.9809 76.5678 88.1139 76.6488 88.1139 76.7308C88.1349 78.8968 88.1489 81.0638 88.1439 83.2308C88.1429 83.7648 88.0669 84.2978 88.0259 84.8318C87.5679 86.7178 87.2069 88.6328 86.6289 90.4808C85.7329 93.3498 84.2489 95.9328 82.3999 98.3028C82.2319 98.2378 82.0499 98.1938 81.8959 98.1028C79.0239 96.4378 76.1559 94.7688 73.2869 93.0998C73.1631 93.0386 73.0634 92.9375 73.0039 92.8128C73.4139 92.8608 73.8219 92.9138 74.2329 92.9558C78.4969 93.3948 82.0349 91.9388 84.8169 88.7358C85.4339 88.0258 85.7609 87.0378 86.1289 86.1408C87.3919 83.0488 88.0319 79.8358 87.9089 76.4858Z" fill="#66C2DD"/>
<path fill-rule="evenodd" clip-rule="evenodd" d="M78.6528 4.99398V9.62898C78.6528 10.529 78.6398 10.525 77.7998 10.342C74.7198 9.67398 71.6368 9.01998 68.5558 8.35298C68.3378 8.30598 68.1348 8.19198 67.9238 8.10898L67.9258 7.98498L68.0508 7.85998C68.9418 6.48198 69.9678 5.22098 71.2588 4.19198L74.7908 1.37598C74.7848 1.58398 74.8218 1.80698 74.7628 1.99998C74.4888 2.88098 74.1868 3.75498 73.8378 4.80498C75.5498 4.16698 77.0398 3.38298 78.6538 3.11298L78.6528 4.99398Z" fill="#EBF7FD"/>
<path fill-rule="evenodd" clip-rule="evenodd" d="M60.3222 19.3411C59.8672 18.9681 59.4212 18.5831 58.9562 18.2221C56.5572 16.3671 54.7262 14.0851 53.7562 11.1821C52.8602 8.50307 52.8512 5.77907 53.4782 3.04407C53.5232 2.84707 53.6892 2.67807 53.7992 2.49707L54.6012 5.61107C55.7802 9.38807 58.0102 12.3791 61.3002 14.5831C62.5312 15.4071 62.5812 15.4441 61.9252 16.7911C61.4892 17.6881 60.8632 18.4941 60.3222 19.3411Z" fill="#737F84"/>
<path fill-rule="evenodd" clip-rule="evenodd" d="M98.204 29.5011C98.209 29.3751 98.169 29.2231 98.225 29.1261C98.993 27.7981 99.774 26.4781 100.552 25.1551C101.906 24.8781 103.282 24.6821 104.608 24.3071C107.554 23.4741 110.16 22.0291 112.243 19.7321C112.491 19.4591 112.751 19.1981 113.006 18.9321C111.948 21.9321 110.365 24.6091 108.065 26.8251C105.872 28.9381 103.169 29.6921 100.192 29.6301C99.529 29.6171 98.867 29.5461 98.204 29.5011Z" fill="#4F4E51"/>
<path fill-rule="evenodd" clip-rule="evenodd" d="M113.006 18.9331C112.751 19.1991 112.49 19.4601 112.243 19.7331C110.16 22.0301 107.555 23.4751 104.608 24.3081C103.282 24.6831 101.905 24.8791 100.552 25.1561L103.101 21.1841C106.707 21.7661 109.874 20.6591 112.806 18.6521L113.222 18.3901L113.006 18.9331Z" fill="#737F84"/>
<path fill-rule="evenodd" clip-rule="evenodd" d="M109.078 92.0431L109.106 91.8691L109.162 91.8851L109.097 92.0591L109.078 92.0431ZM76.3032 123.006L76.5352 123.113L76.3032 123.006Z" fill="#65C1DD"/>
<path fill-rule="evenodd" clip-rule="evenodd" d="M94.9921 84.194L95.0441 84.223L94.9921 84.194ZM83.6451 62.616L83.5161 62.478L83.6451 62.616Z" fill="#B3E0EE"/>
<path fill-rule="evenodd" clip-rule="evenodd" d="M53.6929 2.20816L53.7539 2.13916L53.7909 2.25516L53.6929 2.20816Z" fill="#737F84"/>
<path fill-rule="evenodd" clip-rule="evenodd" d="M43.479 109.392L41.482 108.081L41.108 107.888C40.915 106.208 40.758 104.524 40.519 102.851C40.298 101.305 39.465 100.032 38.492 98.8579C36.961 97.0089 35.31 95.2549 34.346 92.9999C33.501 91.0249 32.915 88.9839 32.764 86.8419C32.637 84.9628 32.555 83.0809 32.518 81.1979C32.499 80.3589 32.622 79.5159 32.686 78.5839L34.153 80.1279C34.698 76.3709 36.511 73.2839 38.288 70.1719C37.779 72.5679 37.2 74.9509 36.782 77.3619C36.364 79.7759 35.988 82.2089 36.249 84.7789C35.486 84.4699 35.152 83.8219 34.64 83.1249C34.556 85.0529 35.213 86.6229 35.903 88.1479C36.591 89.6679 37.46 91.1059 38.332 92.7329L35.4 92.4699C35.514 93.1079 35.915 93.6979 36.432 94.1419C37.3724 94.9507 38.3558 95.7082 39.378 96.4109C41.891 98.1339 43.465 100.457 43.816 103.486C43.961 104.74 43.803 106.033 43.737 107.306C43.701 108.004 43.568 108.697 43.479 109.392ZM30.134 117.867L30.486 119.001C30.225 118.751 29.921 118.531 29.713 118.243C29.3005 117.674 28.9192 117.083 28.571 116.473C28.228 115.868 27.945 115.229 27.618 114.57L27.24 114.98C27.052 113.523 26.603 112.166 27.023 110.742C27.256 112.406 27.711 113.988 28.572 115.568L28.757 115.178L28.861 114.758L30.008 117.612L30.138 117.872L30.134 117.867Z" fill="#B3E0EE"/>
<path fill-rule="evenodd" clip-rule="evenodd" d="M24.3591 120.056C22.5901 119.303 20.9701 114.799 21.7951 113.219L22.6561 117.25L23.0771 116.963L24.3591 120.056Z" fill="#B4E1EE"/>
<path fill-rule="evenodd" clip-rule="evenodd" d="M38.46 69.7478L38.415 69.7598L38.397 69.7068L38.442 69.6948L38.46 69.7478Z" fill="#B3E0EE"/>
<path fill-rule="evenodd" clip-rule="evenodd" d="M30.1388 117.872L30.0088 117.612L30.1388 117.872Z" fill="#65C2DD"/>
<path fill-rule="evenodd" clip-rule="evenodd" d="M68.0508 7.85986L67.9258 7.98486L68.0508 7.85986Z" fill="#E9F5FA"/>
<path fill-rule="evenodd" clip-rule="evenodd" d="M54.668 57.42C59.166 57.42 63.55 57.367 67.933 57.44C70.586 57.484 73.239 57.69 75.887 57.894C76.8401 57.9568 77.7489 58.3198 78.483 58.931C77.409 59.748 76.401 60.568 75.337 61.304C74.832 61.654 74.667 62.022 74.91 62.554C75.246 63.287 75.618 64.003 75.971 64.728L76.681 66.215C76.415 66.265 76.278 66.31 76.139 66.313C73.044 66.394 69.94 66.608 66.868 66.095C63.458 65.526 60.205 64.495 57.425 62.331C56.077 61.283 55.099 59.966 54.759 58.248C54.71 58.011 54.704 57.764 54.668 57.42Z" fill="#4F4E51"/>
<path fill-rule="evenodd" clip-rule="evenodd" d="M68.6111 75.4821L66.8891 72.6941L64.7501 75.8531C63.6331 74.6001 63.2641 73.1531 62.7141 71.6671L60.9651 73.6151C60.1531 71.9591 59.6601 70.3141 59.5391 68.3691C64.0721 69.8331 68.5791 70.3361 73.1801 70.0511L73.2311 70.2471C72.7031 70.5351 72.1981 70.8811 71.6431 71.0961C70.6181 71.4921 70.2741 72.3621 69.9111 73.2741C69.6141 74.0161 69.2111 74.7151 68.8551 75.4331L68.6111 75.4821Z" fill="#D3EDF6"/>
<path fill-rule="evenodd" clip-rule="evenodd" d="M72.7178 92.7541L72.6678 92.7691L72.6528 92.7061L72.7058 92.7171L72.7178 92.7541Z" fill="#66C2DD"/>
<path fill-rule="evenodd" clip-rule="evenodd" d="M65.1421 39.1019C62.6211 38.2129 60.4041 38.3989 58.5701 40.4689C58.4261 39.3229 59.7211 37.8519 61.0951 37.4739C62.7331 37.0229 64.5621 37.7119 65.1421 39.1019ZM58.9461 42.4099C58.9801 41.6049 59.5471 41.1758 60.1351 40.7938C61.4861 39.9168 63.9221 40.0479 64.8891 41.5229C64.5051 41.4769 64.1761 41.4599 63.8561 41.3949C62.2101 41.0609 60.7171 41.5128 59.2791 42.2668L58.9461 42.4099ZM83.2111 41.7539C83.9981 41.0549 85.1951 40.9049 86.1791 41.4449C87.2301 42.0199 87.7341 42.7819 87.6551 44.0799C86.5491 42.5099 84.9991 41.9209 83.2111 41.7539Z" fill="#D4EDF6"/>
<path fill-rule="evenodd" clip-rule="evenodd" d="M86.3621 46.7422C84.7531 44.8002 84.0871 44.7412 82.2031 44.2222C82.8311 43.6242 83.5801 43.5032 84.3201 43.7152C85.7591 44.1282 86.2111 45.2962 86.3621 46.7422Z" fill="#CDEBF4"/>
<path fill-rule="evenodd" clip-rule="evenodd" d="M58.947 42.4111L58.918 42.4631L58.947 42.4111Z" fill="#D4EDF6"/>
<path fill-rule="evenodd" clip-rule="evenodd" d="M107.339 73.5898L107.314 73.6408L107.343 73.5928L107.339 73.5898ZM103.977 77.3378L103.919 77.3878L103.97 77.3298L103.977 77.3378Z" fill="#EBF7FE"/>
<path fill-rule="evenodd" clip-rule="evenodd" d="M32.6482 119.725L32.6832 119.905L32.5972 119.768L32.6482 119.725Z" fill="#D3EDF6"/>
<path fill-rule="evenodd" clip-rule="evenodd" d="M64.446 46.3652C65.842 46.7552 67.254 47.0972 68.629 47.5502C69.533 47.8472 69.66 48.2312 69.253 49.0752C68.786 50.0452 68.306 51.0152 67.743 51.9322C67.061 53.0432 66.061 53.6492 64.701 53.6712C60.978 53.7332 57.322 53.3522 53.778 52.1542C52.495 51.7202 52.365 51.5582 52.448 50.2302C52.53 48.9262 52.657 47.6232 52.812 46.3252C52.9 45.5932 53.317 45.1702 54.058 45.1922C55.901 45.2462 57.742 45.3872 59.583 45.4932L59.076 47.0802C58.6174 48.2203 58.5354 49.4772 58.842 50.6672C59.167 51.9612 60.291 52.6482 61.463 52.3382C62.529 52.0562 63.697 50.6592 63.808 49.5322C64.357 48.5462 64.428 47.4612 64.446 46.3652Z" fill="#E8F4F8"/>
<path fill-rule="evenodd" clip-rule="evenodd" d="M80.0829 48.1519C82.1759 48.4369 84.2749 48.6789 86.3569 49.0249C87.3959 49.1969 87.4949 49.4559 87.0909 50.4459C86.6059 51.6339 86.0459 52.7919 85.5499 53.9769C85.2739 54.6379 84.7899 54.9959 84.1149 55.1239C83.6069 55.2209 83.0939 55.3369 82.5799 55.3609C80.4617 55.463 78.3396 55.2627 76.2779 54.7659C74.8259 54.4159 74.5489 54.0819 74.5469 52.5699C74.5449 51.7009 74.6159 50.8309 74.6979 49.9659C74.7769 49.1349 75.2889 48.6609 76.0939 48.5239C76.7059 48.4199 77.3239 48.3299 77.9429 48.2959C78.6469 48.2569 79.3549 48.2869 80.0609 48.2869L80.0829 48.1519ZM82.8599 50.7629C82.7559 50.9829 82.7079 51.1379 82.6189 51.2629C82.2279 51.8199 81.8989 52.4469 81.4119 52.9039C80.3629 53.8869 79.0569 53.5939 78.4659 52.2839C78.2309 51.7609 78.1089 51.1859 77.9289 50.6179C77.7939 52.1199 77.9399 53.1769 78.3789 53.9159C78.8209 54.6599 79.4409 54.9479 80.2629 54.7909C81.7269 54.5119 82.9739 52.6299 82.8599 50.7629ZM78.7589 50.4789L78.6389 50.5929C78.8859 50.9039 79.0729 51.3509 79.3939 51.4899C79.8409 51.6839 80.1269 51.2459 80.3359 50.8789C80.4259 50.7165 80.4874 50.5399 80.5179 50.3569C80.6199 49.7599 80.3499 49.1399 79.9609 49.0349C79.5359 48.9209 79.0289 49.3539 78.8499 49.9949L78.7589 50.4789Z" fill="#ECF5F9"/>
<path fill-rule="evenodd" clip-rule="evenodd" d="M59.0748 47.0811C59.1238 47.8021 59.1018 48.5361 59.2398 49.2391C59.4058 50.0791 59.8268 50.7961 60.7438 51.0491C61.6618 51.3031 62.4088 50.9621 63.0578 50.3411C63.3228 50.0881 63.5578 49.8041 63.8068 49.5341C63.6958 50.6611 62.5278 52.0581 61.4618 52.3401C60.2898 52.6501 59.1658 51.9631 58.8408 50.6691C58.5336 49.4788 58.6156 48.2214 59.0748 47.0811ZM82.8598 50.7631C82.9738 52.6301 81.7268 54.5121 80.2638 54.7901C79.4418 54.9471 78.8228 54.6591 78.3798 53.9151C77.9408 53.1761 77.7948 52.1191 77.9298 50.6171C78.1088 51.1851 78.2308 51.7601 78.4668 52.2831C79.0578 53.5931 80.3638 53.8871 81.4128 52.9031C81.8998 52.4461 82.2288 51.8191 82.6198 51.2621C82.7078 51.1381 82.7558 50.9831 82.8598 50.7631Z" fill="#778287"/>
<path fill-rule="evenodd" clip-rule="evenodd" d="M78.7591 50.479L78.8501 49.996C79.0301 49.355 79.5371 48.922 79.9611 49.036C80.3491 49.141 80.6201 49.761 80.5181 50.358C80.4876 50.5411 80.4261 50.7176 80.3361 50.88C80.1281 51.247 79.8411 51.685 79.3941 51.491C79.0731 51.352 78.8851 50.904 78.6391 50.594L78.7591 50.479ZM59.9091 48.091C59.9361 47.397 60.4011 46.818 60.9321 46.814C61.3781 46.811 61.7491 47.35 61.7231 47.963C61.6931 48.647 61.1621 49.284 60.6361 49.264C60.1641 49.246 59.8811 48.791 59.9091 48.091Z" fill="#1C1C1C"/>
</svg>
