<svg width="128" height="128" viewBox="0 0 128 128" fill="none" xmlns="http://www.w3.org/2000/svg">
<path fill-rule="evenodd" clip-rule="evenodd" d="M116.173 64.1001L117.639 64.5721L117.726 64.4131C116.926 63.3571 116.15 62.2221 114.692 62.0171C113.631 61.8681 112.545 61.9091 111.469 61.8661C111.504 61.3561 111.316 61.1761 110.809 61.3841C110.33 61.5801 109.836 61.7401 109.351 61.9231C108.188 62.3601 107.03 62.8121 105.86 63.2281C105.655 63.3011 105.399 63.2271 105.167 63.2211C105.184 63.0031 105.167 62.7751 105.224 62.5681C105.438 61.7891 105.682 61.0191 105.902 60.2421C105.975 59.9831 106.012 59.7131 106.066 59.4501L107.171 60.3281C107.396 57.5871 106.845 55.1921 105.416 52.8791L106.849 52.9591C106.205 51.4701 105.247 50.3421 103.904 49.5471C102.21 48.5431 100.3 48.5611 98.4272 48.4091C98.1322 48.3851 97.8332 48.4061 97.4712 48.4061C98.8942 50.7801 99.4902 54.7661 98.6272 56.1161L98.1482 55.3091C97.0752 57.0461 96.0582 58.8691 94.8672 60.5711C93.6722 62.2791 92.1952 63.7381 90.1522 64.6871L90.4002 63.4641C90.0962 63.5441 89.9062 63.6131 89.7102 63.6431C89.2012 63.7201 88.6732 63.8951 88.1842 63.8211C87.2692 63.6811 86.3752 63.4031 85.4772 63.1621C84.8612 62.9961 84.2542 62.7981 83.6432 62.6151L83.6442 62.6181L83.5152 62.4801C82.8022 61.9811 82.9172 61.3861 83.2692 60.7221C83.5102 60.2671 83.6812 59.7751 83.8702 59.2941C84.2982 58.2011 84.7172 57.1041 85.1402 56.0091C85.5622 55.5361 86.0402 55.1021 86.3902 54.5821C86.7802 54.0021 87.0762 53.3541 87.3682 52.7161C87.5772 52.2581 87.8612 51.9431 88.3402 51.7411C88.6361 51.6072 88.8789 51.3785 89.0302 51.0911C89.2762 50.5951 89.4282 50.0501 89.5922 49.5171C89.7212 49.0931 89.5612 48.7891 89.1292 48.6481L88.5992 48.4741C88.6452 48.2941 88.6672 48.1031 88.7442 47.9371C90.0532 45.1391 91.3222 42.3221 92.6962 39.5551C94.0972 36.7321 95.5902 33.9541 97.0712 31.1721C97.3852 30.5811 97.8232 30.0561 98.2042 29.5021C98.8672 29.5461 99.5292 29.6171 100.192 29.6311C103.169 29.6931 105.871 28.9401 108.065 26.8261C110.365 24.6111 111.949 21.9331 113.006 18.9331L113.22 18.3901L112.804 18.6521C109.872 20.6581 106.706 21.7651 103.099 21.1841C103.141 21.0681 103.157 20.9331 103.227 20.8381C104.491 19.1271 105.754 17.4161 107.035 15.7171C107.488 15.1161 107.986 14.5501 108.507 13.9161C108.183 13.7931 107.957 13.6941 107.723 13.6201C106.521 13.2421 105.322 12.8521 104.111 12.5031C103.596 12.3551 103.488 12.1001 103.705 11.6361C104.215 10.5481 104.712 9.4531 105.219 8.3641L105.786 7.3511C102.818 6.7901 100 6.7271 97.0002 7.0991V5.3231C95.0002 5.5051 94.5812 5.6111 93.4812 5.8541C92.3892 6.0941 91.2922 6.4711 90.2162 6.7881L90.0572 6.6871L92.5782 2.3191C91.2722 2.4681 90.0512 2.5431 88.8582 2.7571C86.4652 3.1851 83.7522 3.6671 81.3742 4.1711C80.242 4.41349 79.1169 4.68793 78.0002 4.9941V3.1121C77.0002 3.3831 75.2232 4.1671 73.5112 4.8041C73.8612 3.7541 74.3252 2.8801 74.5992 1.9991C74.6592 1.8071 74.7032 1.5841 74.7102 1.3751C74.6202 1.3421 74.5652 1.2691 74.4812 1.2811C73.7482 1.3871 73.0342 1.4881 72.3082 1.6301C68.5302 2.3711 64.9422 3.6221 61.5642 5.4831C61.1802 5.6951 60.7942 5.8941 60.2502 6.1831L59.9942 2.1461C57.9592 2.8641 56.0072 3.8061 54.6002 5.6121L53.7992 2.4981L53.7922 2.2551L53.7552 2.1391L53.6942 2.2081C53.5192 2.4101 53.3262 2.5991 53.1722 2.8161C51.5692 5.0741 50.7262 7.5961 50.5702 10.3551L49.2802 7.5251L47.4632 16.1221L44.3992 12.2181C43.3449 15.042 42.6491 17.987 42.3282 20.9841L40.1762 18.5571C38.7402 22.9511 37.5202 27.2691 37.0682 31.8311C35.9862 31.1721 35.3242 30.3051 34.8712 29.2491C34.2172 27.7281 34.0582 26.1361 34.1212 24.5041C34.1302 24.2561 34.0972 24.0071 34.0842 23.7581L33.9022 23.7601C31.7662 31.2031 31.2122 38.8161 31.4992 46.5471L28.8512 41.5061L28.6732 41.5211C28.4942 43.4701 28.2812 45.4161 28.1512 47.3681C28.0702 48.5741 28.2722 48.3601 27.1192 48.6471C23.4912 49.5521 20.0432 50.8541 17.0282 53.1391C16.8382 53.2831 16.6042 53.3681 16.3902 53.4811L16.6082 53.6861L19.6952 54.8401C18.3642 56.3191 17.0482 57.7121 15.8152 59.1751C14.5662 60.6571 13.6052 62.3231 12.8822 64.2231C13.5732 63.9351 14.1342 63.6761 14.7142 63.4681C15.2652 63.2691 15.8362 63.1231 16.3972 62.9541C15.2972 64.0841 14.4712 65.3221 13.7882 66.6481C11.3612 71.3631 10.5002 76.4751 10.2112 81.6851C10.0232 85.0541 10.1182 88.4391 10.6862 91.7871C10.7832 92.3581 10.9072 92.9251 11.0182 93.4941L11.2682 93.5381L12.7732 89.9801C13.4572 93.7941 13.5872 97.6041 13.5462 101.425L13.7092 101.524L15.0702 99.8651C15.2582 100.251 15.3642 100.407 15.4112 100.579C16.1252 103.161 16.3162 105.806 16.1252 108.456C16.0262 109.838 16.0482 111.179 16.3612 112.518C17.1312 115.802 18.7572 118.634 21.0032 121.115C21.4502 121.61 22.0722 121.95 22.6252 122.345C22.8872 122.531 23.0512 122.461 23.0282 122.112L22.9752 122.083L23.0292 122.111L24.0822 122.454L25.7852 123.048L25.8632 122.888L24.7732 120.616L24.6802 120.483L24.7282 120.451L24.7762 120.614C24.8542 120.637 24.9562 120.636 25.0072 120.686C26.0702 121.726 27.4222 122.265 28.7442 122.857C29.1122 123.734 29.7162 124.418 30.4202 125.018L31.6102 124.192C31.7742 124.395 31.9112 124.547 32.0272 124.713C33.0112 126.122 34.3592 126.783 36.0762 126.714C37.1552 126.671 38.2352 126.649 39.3152 126.624C43.0322 126.537 46.7502 126.466 50.4662 126.362C53.0402 126.29 55.6132 126.184 58.1862 126.072C59.3832 126.019 60.5782 125.916 61.8892 125.829C59.9612 120.746 55.9472 118.06 51.4972 116.156L55.3112 115.117C60.8332 118.181 66.9262 120.195 71.9082 124.255L72.1422 124.134L71.7002 119.637C72.0082 119.847 72.3362 120.055 72.6482 120.286C73.8692 121.189 75.0862 122.099 76.3042 123.006L76.5302 123.11L76.6142 123.267C78.4452 124.84 80.3942 126.046 82.9652 125.992C86.5152 125.917 90.0692 125.994 93.6222 125.972C93.8932 125.971 94.2762 125.78 94.4142 125.557C95.2142 124.272 96.0022 122.975 96.7102 121.637C98.4862 118.28 100.217 114.899 101.968 111.528L102.469 110.583C101.68 110.819 100.998 111.157 100.321 111.503C99.5862 111.878 98.8552 112.261 98.1222 112.64L98.0572 112.695L98.1062 112.623C98.1832 112.39 98.2202 112.133 98.3442 111.928C99.9412 109.288 101.487 106.614 103.176 104.033C104.853 101.469 106.807 99.0721 107.839 96.1361C108.31 94.7941 108.682 93.4181 109.099 92.0571L109.08 92.0411L108.958 92.0471C108.208 92.5741 107.495 93.1641 106.701 93.6121C105.745 94.1521 104.721 94.5711 103.726 95.0431L103.697 95.0951L103.674 95.0721L103.726 95.0441L103.893 94.4541L104.66 91.5251C104.353 91.5071 104.224 91.5661 104.098 91.6291C101.952 92.7151 99.8422 93.8801 97.6532 94.8691C94.6532 96.2251 91.8462 97.8691 89.2922 99.9431C88.4292 100.644 87.6042 101.391 86.7442 102.132L86.5492 101.996C85.7022 101.236 84.8592 100.471 84.0102 99.7131C83.4782 99.2371 82.9382 98.7721 82.4022 98.3001C84.2512 95.9301 85.7352 93.3471 86.6312 90.4781C87.2082 88.6301 87.5702 86.7151 88.0282 84.8291L88.5562 84.6701C89.9952 84.1541 91.4592 83.7271 93.0072 83.8311C93.6742 83.8761 94.3322 84.0671 94.9942 84.1921L94.4942 83.0711L94.4442 83.0121L94.4792 83.0221L94.4972 83.0681C94.6172 83.0921 94.7462 83.0961 94.8542 83.1451C96.0042 83.6651 97.1262 84.2511 98.3012 84.7041C100.23 85.4461 102.24 85.7981 104.319 85.6941C104.598 85.6801 104.797 85.6551 104.581 85.3181C104.779 85.3701 104.982 85.4061 105.173 85.4781C106.707 86.0571 108.304 86.3431 109.925 86.1641C111.418 85.9991 112.623 85.2571 113.29 83.7931L113.765 84.0151C114.176 82.8631 113.814 81.7861 113.604 80.6961C113.568 80.5081 113.568 80.2291 113.679 80.1111C114.081 79.6781 114.537 79.2951 114.995 78.8731L115.276 79.5181C115.918 78.4501 115.934 77.2771 116.011 75.9721L116.629 76.7321L116.87 76.6361C116.677 75.6871 116.661 74.6531 116.248 73.8111C115.672 72.6351 115.639 71.6891 116.412 70.6011C116.87 69.9571 117.062 69.1241 117.466 68.1551C117.54 68.3541 117.559 68.4671 117.62 68.5491C117.668 68.6131 117.768 68.6381 117.881 68.7001C117.824 66.9811 117.043 65.5851 116.173 64.1001Z" fill="#008CBA"/>
</svg>
