<svg width="128" height="128" viewBox="0 0 128 128" fill="none" xmlns="http://www.w3.org/2000/svg">
<path fill-rule="evenodd" clip-rule="evenodd" d="M29.205 103.762C29.224 104.059 29.085 104.117 28.863 103.959C28.393 103.624 27.865 103.335 27.485 102.914C25.578 100.808 24.197 98.4031 23.544 95.6141C23.278 94.4771 23.259 93.3391 23.344 92.1661C23.506 89.9141 23.344 87.6681 22.738 85.4761C22.697 85.3301 22.607 85.1981 22.448 84.8691L21.293 86.2781L21.154 86.1941C21.189 82.9491 21.078 79.7141 20.498 76.4751L19.22 79.4961L19.008 79.4591C18.914 78.9761 18.808 78.4941 18.726 78.0091C18.245 75.1661 18.163 72.2921 18.323 69.4311C18.57 65.0061 19.3 60.6651 21.361 56.6611C21.941 55.5351 22.642 54.4841 23.576 53.5241C23.099 53.6681 22.615 53.7921 22.146 53.9611C21.654 54.1381 21.178 54.3581 20.591 54.6021C21.205 52.9891 22.021 51.5741 23.082 50.3151C24.129 49.0731 25.248 47.8901 26.377 46.6341L23.755 45.6551L23.57 45.4811C23.752 45.3851 23.95 45.3131 24.112 45.1901C26.672 43.2501 29.6 42.1451 32.681 41.3761C33.66 41.1321 33.489 41.3141 33.557 40.2901C33.668 38.6331 33.849 36.9801 34.001 35.3251L34.152 35.3121L36.401 39.5921C36.156 33.0281 36.628 26.5631 38.442 20.2421L38.596 20.2401C38.607 20.4511 38.635 20.6631 38.627 20.8731C38.573 22.2591 38.709 23.6111 39.264 24.9021C39.649 25.7981 40.211 26.5351 41.13 27.0941C41.514 23.2201 42.549 19.5531 43.769 15.8231L45.597 17.8841C45.8693 15.339 46.4599 12.8382 47.355 10.4401L49.958 13.7551L51.501 6.45412L52.597 8.85712C52.52 12.6741 54.386 15.5981 57.002 18.2571L54.107 19.7191C57.142 19.4721 59.324 18.4251 60.879 16.4881C61.338 15.7691 61.87 15.0851 62.24 14.3231C62.796 13.1791 62.754 13.1481 61.709 12.4481C58.916 10.5761 57.022 8.03612 56.021 4.82912C57.215 3.29512 58.874 2.49512 60.602 1.88612L60.823 5.31412L61.944 4.72012C64.813 3.14012 67.867 2.07812 71.075 1.44912C71.692 1.32812 72.315 1.24412 72.938 1.15412C73.009 1.14312 73.091 1.20512 73.167 1.23412L70.167 3.62612C69.071 4.50012 68.2 5.57012 67.443 6.74112L67.338 6.84712L67.336 6.95212C67.228 7.06412 67.087 7.15912 67.017 7.29012C66.446 8.35712 65.856 9.41712 65.337 10.5101C65.035 11.1471 64.853 11.8411 64.607 12.5381L69.428 12.9971L69.513 13.1821C66.049 16.3011 62.579 19.4141 59.36 22.9191L62.808 23.3911C61.83 23.7911 60.951 24.0951 60.121 24.5021C57.706 25.6871 55.449 27.0811 53.816 29.3091C52.552 31.0341 51.239 32.7241 49.948 34.4281L46.916 31.3871L46.142 34.9221L48.294 36.8601L47.953 37.5151C47.281 38.9271 46.551 40.3151 45.958 41.7601C45.34 43.2651 45.201 44.8871 45.086 46.5011C44.954 48.3551 44.747 50.2051 44.689 52.0611C44.619 54.3101 44.606 56.5641 44.985 58.7981C45.318 60.7651 45.574 62.7471 45.965 64.7011C46.206 65.9081 46.638 67.0761 46.985 68.2621L47.131 68.2331L48.567 65.3521L48.711 65.3891C49.23 67.8741 49.967 70.2911 51.024 72.5961C52.076 74.8901 53.288 77.0921 55.196 78.8721V75.8321L55.407 75.8341C55.797 76.0381 56.189 76.2391 56.571 76.4571C59.2488 77.9837 62.0288 79.3239 64.891 80.4681C68.358 81.8541 71.81 83.2751 75.103 85.0441C76.123 85.5921 77.148 86.1761 78.039 86.9051C80.061 88.5611 82.001 90.3181 83.975 92.0341L83.811 92.4201C83.1649 93.7131 82.507 95.0001 81.871 96.2971C81.308 97.4431 80.768 98.5991 80.219 99.7501L80.076 99.7291V95.7381C79.849 96.2501 79.759 96.7691 79.621 97.2741C79.0653 99.326 78.498 101.375 77.919 103.42C77.744 104.036 77.302 104.392 76.696 104.633C75.986 104.914 75.323 104.824 74.642 104.61L74.648 104.614L74.451 104.523C73.416 103.752 72.383 102.98 71.346 102.213C71.081 102.018 70.803 101.841 70.541 101.662L70.916 105.48L70.717 105.583C66.487 102.135 61.313 100.425 56.624 97.8221C55.1 96.8521 53.571 95.8881 52.054 94.9071C51.649 94.6451 51.281 94.3281 50.805 93.9681L51.037 95.8471L50.91 95.9371L46.577 92.9621C46.653 92.3711 46.766 91.7831 46.797 91.1911C46.853 90.1101 46.987 89.0121 46.864 87.9471C46.566 85.3741 45.23 83.4021 43.095 81.9391C42.2269 81.3427 41.392 80.6995 40.594 80.0121C40.155 79.6351 39.815 79.1351 39.718 78.5931L42.208 78.8161C41.468 77.4351 40.73 76.2131 40.145 74.9221C39.559 73.6281 39.001 72.2941 39.072 70.6561C39.508 71.2481 39.791 71.7991 40.439 72.0611C40.217 69.8781 40.536 67.8121 40.891 65.7631C41.245 63.7161 41.738 61.6921 42.17 59.6581C40.661 62.3011 39.121 64.9221 38.658 68.1131L37.412 66.8011C37.357 67.5921 37.253 68.3071 37.269 69.0201C37.304 70.6191 37.365 72.2181 37.477 73.8121C37.605 75.6311 38.102 77.3641 38.82 79.0411C39.639 80.9561 41.042 82.4451 42.341 84.0151C43.167 85.0131 43.875 86.0931 44.063 87.4061C44.266 88.8261 44.399 90.2571 44.563 91.6831L44.892 96.5101C43.947 96.7051 41.309 96.0671 40.755 95.4661L41.199 95.2291C40.724 94.8191 40.2 94.4611 39.801 93.9971C39.194 93.2911 39.076 92.3801 38.934 91.4881C38.897 91.2591 38.712 91.0541 38.595 90.8391C38.374 91.0391 38.084 91.2031 37.954 91.4511C37.846 91.6591 37.872 91.9761 37.931 92.2231C38.04 92.6831 38.181 93.1431 38.371 93.5751C38.948 94.8791 39.573 96.1611 40.144 97.4681C40.845 99.0711 41.422 100.71 41.383 102.497C41.371 103.02 41.264 103.12 40.782 102.927C40.1311 102.662 39.4928 102.367 38.869 102.043C38.378 101.792 37.914 101.489 37.378 101.174V101.737L37.335 101.774C37.182 101.697 37.008 101.645 36.878 101.539C36.326 101.088 35.787 100.62 35.243 100.159L35.247 100.164L35.137 99.9421L34.162 97.5181L34.073 97.8751L33.916 98.2061C33.185 96.8641 32.799 95.5211 32.601 94.1071C32.245 95.3171 32.626 96.4691 32.786 97.7071L33.107 97.3581C33.384 97.9181 33.625 98.4611 33.916 98.9741C34.21 99.4921 34.536 99.9951 34.885 100.477C35.062 100.721 35.321 100.908 35.542 101.121C36.056 102.416 36.585 103.705 36.844 105.221L34.06 104.396C32.937 103.893 31.789 103.435 30.887 102.552L30.691 102.49L30.65 102.351L30.609 102.378L30.688 102.491L31.613 104.421L31.547 104.557L30.101 104.052L29.205 103.762L29.16 103.738L29.205 103.762ZM30.337 102.017L29.248 99.3901L28.89 99.6331L28.159 96.2101C27.459 97.5511 28.835 101.376 30.337 102.017ZM42.312 59.2951L42.297 59.2511L42.259 59.2611L42.274 59.3061L42.312 59.2951Z" fill="#D3EDF6"/>
<path fill-rule="evenodd" clip-rule="evenodd" d="M83.9722 92.0341C81.9982 90.3181 80.0582 88.5611 78.0362 86.9051C77.1462 86.1761 76.1202 85.5921 75.1002 85.0441C71.8072 83.2751 68.3552 81.8551 64.8882 80.4681C62.0261 79.3237 59.2462 77.9835 56.5682 76.4571C56.1862 76.2391 55.7952 76.0381 55.4042 75.8341L55.1932 75.8321V78.8721C53.2852 77.0921 52.0732 74.8901 51.0212 72.5961C49.9642 70.2911 49.2262 67.8741 48.7082 65.3891L48.5642 65.3521L47.1282 68.2331L46.9822 68.2621C46.6352 67.0761 46.2042 65.9081 45.9622 64.7011C45.5702 62.7461 45.3152 60.7641 44.9822 58.7981C44.6032 56.5641 44.6162 54.3101 44.6862 52.0611C44.7442 50.2061 44.9512 48.3551 45.0832 46.5011C45.1982 44.8871 45.3372 43.2661 45.9552 41.7601C46.5482 40.3151 47.2782 38.9271 47.9502 37.5151L48.2912 36.8601L48.5042 37.0161C49.8502 38.1241 51.2102 39.2171 52.5292 40.3551C52.7802 40.5721 52.9692 40.9571 53.0222 41.2911C53.1242 41.9321 53.1152 42.5911 53.1372 43.2431C53.1742 44.3361 53.4572 44.8011 54.4892 45.1311C58.0132 46.2571 61.6012 46.8941 65.3222 46.4601C66.3582 46.3391 67.2252 45.9471 67.8282 45.0771C68.3613 44.3105 68.8781 43.5327 69.3782 42.7441C69.9482 41.8411 70.1032 41.7801 71.1472 41.9381C71.6172 42.0091 71.7702 42.2281 71.7592 42.6671C71.7422 43.3361 71.7562 44.0061 71.7482 44.6761C71.7312 46.1661 72.5502 47.0181 73.9152 47.3331C75.0782 47.6021 76.2672 47.7981 77.4542 47.9091C78.9592 48.0501 80.4832 48.1861 81.9532 47.6281C81.5942 48.5581 81.2382 49.4901 80.8742 50.4181C80.7142 50.8261 80.5682 51.2441 80.3642 51.6301C80.0652 52.1941 79.9682 52.7001 80.5732 53.1241L80.6832 53.2411L80.6822 53.2381L80.9712 53.7911C81.6522 55.1781 82.4092 56.5341 82.9932 57.9601C83.9132 60.2101 84.2402 62.5961 84.3042 65.0181C84.4082 67.8631 83.8652 70.5911 82.7922 73.2151C82.4792 73.9781 82.2022 74.8161 81.6782 75.4191C79.3152 78.1391 76.3102 79.3761 72.6902 79.0031L71.6472 78.8821C71.6975 78.9878 71.7821 79.0735 71.8872 79.1251C74.3232 80.5421 76.7592 81.9601 79.1972 83.3741C79.3292 83.4501 79.4832 83.4881 79.6262 83.5431C80.0822 83.9431 80.5402 84.3391 80.9922 84.7431L83.1472 86.6811L83.3132 86.7971C84.0432 86.1671 84.7442 85.5321 85.4782 84.9371C87.6462 83.1771 90.0302 81.7801 92.5782 80.6281C94.4372 79.7881 96.2292 78.7991 98.0512 77.8771C98.1582 77.8231 98.2672 77.7741 98.5282 77.7891L97.8772 80.2761L97.7352 80.7771L97.6912 80.8011L97.7112 80.8211L97.7352 80.7771C98.5802 80.3771 99.4492 80.0211 100.261 79.5621C100.935 79.1821 101.541 78.6801 102.178 78.2331C102.057 78.5041 101.959 78.7891 101.811 79.0461C100.71 80.9621 99.2402 82.5751 97.6382 84.0741C97.1822 84.5001 96.6912 84.8881 96.1542 85.3461L96.2912 82.9241C93.9422 84.8781 91.9752 86.9771 90.0702 89.1411L89.9272 89.0951L89.7292 86.2551C87.6562 88.1211 85.6092 89.8701 83.9722 92.0341ZM56.0752 48.8281C56.1062 49.1201 56.1112 49.3291 56.1522 49.5311C56.4412 50.9891 57.2712 52.1081 58.4162 52.9991C60.7772 54.8351 63.5402 55.7111 66.4352 56.1951C69.0442 56.6311 71.6812 56.4481 74.3092 56.3801L74.7692 56.2971L74.1652 55.0341C73.8652 54.4191 73.5502 53.8111 73.2642 53.1881C73.0572 52.7371 73.1982 52.4231 73.6272 52.1261C74.5312 51.5011 75.3872 50.8051 76.2992 50.1111C75.6753 49.5927 74.9036 49.2847 74.0942 49.2311C71.8452 49.0581 69.5932 48.8831 67.3402 48.8451C63.6182 48.7821 59.8952 48.8281 56.0752 48.8281ZM67.9162 64.1661L68.1242 64.1241C68.4262 63.5141 68.7692 62.9201 69.0202 62.2911C69.3292 61.5171 69.6202 60.7781 70.4912 60.4411C70.9632 60.2591 71.3922 59.9641 71.8402 59.7201L71.7972 59.5531C67.8902 59.7951 64.0622 59.3691 60.2142 58.1251C60.3172 59.7761 60.7352 61.1741 61.4242 62.5801L62.9092 60.9261C63.3762 62.1881 63.6892 63.4161 64.6382 64.4811L66.4542 61.7981L67.9162 64.1661ZM71.4032 78.8331L71.3932 78.8021L71.3482 78.7931L71.3612 78.8461L71.4032 78.8331ZM49.9442 34.4291C51.2362 32.7241 52.5492 31.0351 53.8132 29.3101C55.4452 27.0821 57.7032 25.6871 60.1182 24.5031C60.9472 24.0961 61.8272 23.7931 62.8052 23.3921L59.3572 22.9201C62.5772 19.4161 66.0462 16.3021 69.5102 13.1831L69.4252 12.9981L64.6042 12.5391C64.8512 11.8421 65.0322 11.1471 65.3342 10.5111C65.8532 9.41813 66.4422 8.35913 67.0142 7.29113C67.0852 7.15913 67.2252 7.06513 67.3332 6.95313C67.5122 7.02413 67.6852 7.12013 67.8702 7.16113L75.7202 8.85013C76.4332 9.00413 76.4442 9.00813 76.4442 8.24413V4.30713C77.3052 4.07113 78.1582 3.79213 79.0302 3.60813C81.0502 3.18013 83.0742 2.77113 85.1062 2.40813C86.1192 2.22713 87.1522 2.16313 88.2612 2.03613L86.1132 5.74513L86.2342 5.83113C87.1472 5.56113 88.0502 5.24213 88.9772 5.03813C89.9102 4.83213 90.8682 4.74213 91.9052 4.58713V6.09513C94.4522 5.77913 96.9052 5.83213 99.4252 6.31013L99.0032 7.17013C98.5732 8.09613 98.1502 9.02513 97.7182 9.94913C97.5332 10.3431 97.6262 10.5591 98.0632 10.6851C99.0912 10.9811 100.11 11.3121 101.131 11.6331C101.33 11.6961 101.522 11.7791 101.797 11.8841C101.355 12.4231 100.932 12.9031 100.547 13.4131C99.4602 14.8551 98.3872 16.3091 97.3142 17.7621C97.2542 17.8431 97.2402 17.9571 97.2052 18.0551L95.0402 21.4281C94.3792 22.5511 93.7162 23.6721 93.0642 24.8001C93.0172 24.8821 93.0502 25.0101 93.0452 25.1181C92.7212 25.5891 92.3502 26.0351 92.0832 26.5361C90.8252 28.8991 89.5572 31.2581 88.3672 33.6551C87.2012 36.0041 86.1232 38.3971 85.0122 40.7731C84.9472 40.9141 84.9292 41.0761 84.8892 41.2291L79.5232 40.1311C78.9362 39.3301 78.0642 39.2571 77.3982 39.9551C75.9032 40.0031 74.4072 40.0761 72.9112 40.0881C72.1432 40.0941 71.3542 40.0811 70.6102 39.9171C68.3092 39.4091 66.0242 38.8241 63.7332 38.2691C63.3552 37.3521 62.0412 37.2111 61.3972 37.7901L61.2392 37.7851C58.4002 37.3011 55.5492 36.9681 52.6592 37.0841C52.5252 37.0901 52.3502 37.0011 52.2542 36.9001C51.4762 36.0861 50.7122 35.2551 49.9442 34.4291ZM59.7092 36.0821L59.9922 35.9591C61.2132 35.3201 62.4802 34.9351 63.8782 35.2191C64.1492 35.2741 64.4292 35.2881 64.7552 35.3271C63.9342 34.0751 61.8642 33.9641 60.7172 34.7081C60.2192 35.0331 59.7372 35.3971 59.7092 36.0821L59.6842 36.1261L59.7092 36.0821ZM64.9702 33.2711C64.4782 32.0911 62.9242 31.5061 61.5332 31.8891C60.3662 32.2101 59.2672 33.4591 59.3882 34.4321C60.9472 32.6741 62.8292 32.5171 64.9702 33.2711ZM80.3142 35.5241C81.8312 35.6661 83.1472 36.1661 84.0872 37.5001C84.1542 36.3971 83.7262 35.7511 82.8342 35.2621C81.9992 34.8041 80.9822 34.9311 80.3142 35.5241ZM82.9902 39.7591C82.8622 38.5311 82.4782 37.5391 81.2572 37.1891C80.6282 37.0091 79.9932 37.1121 79.4592 37.6191C81.0582 38.0611 81.6242 38.1101 82.9902 39.7591Z" fill="#E9F5FA"/>
<path fill-rule="evenodd" clip-rule="evenodd" d="M84.3032 65.0182C84.2392 62.5962 83.9131 60.2102 82.9921 57.9602C82.4081 56.5332 81.6512 55.1772 80.9702 53.7912L80.6812 53.2382C81.2002 53.3942 81.7162 53.5632 82.2392 53.7032C83.0012 53.9082 83.7602 54.1442 84.5372 54.2632C84.9522 54.3262 85.4012 54.1772 85.8322 54.1122C85.9982 54.0872 86.1602 54.0292 86.4182 53.9602L86.2082 54.9992C87.9432 54.1922 89.1972 52.9542 90.2122 51.5032C91.2232 50.0582 92.0872 48.5102 92.9972 47.0362L93.4052 47.7202C94.1382 46.5742 93.6332 43.1882 92.4242 41.1732C92.7312 41.1732 92.9852 41.1552 93.2362 41.1762C94.8262 41.3052 96.4482 41.2902 97.8872 42.1422C99.0282 42.8172 99.8422 43.7752 100.388 45.0392L99.1702 44.9712C100.384 46.9352 100.851 48.9692 100.66 51.2962L99.7222 50.5502C99.6772 50.7732 99.6452 51.0022 99.5832 51.2222C99.3952 51.8822 99.1892 52.5362 99.0072 53.1972C98.9582 53.3732 98.9732 53.5672 98.9582 53.7522C99.1552 53.7582 99.3731 53.8202 99.5462 53.7582C100.54 53.4052 101.523 53.0212 102.511 52.6502C102.923 52.4962 103.343 52.3602 103.75 52.1922C104.18 52.0162 104.34 52.1692 104.31 52.6022C103.191 52.9922 102.071 53.3792 100.955 53.7742C100.812 53.8252 100.682 53.9122 100.545 53.9822C101.96 53.8252 102.521 53.9002 103.244 54.4052C103.771 54.7732 103.848 55.2302 103.379 55.6772C103.016 56.0242 102.58 56.2992 102.159 56.5802C101.906 56.7482 101.62 56.8672 101.271 57.0502L101.757 57.2342C100.986 57.7402 100.243 58.1762 99.5602 58.6912C98.7101 59.3302 97.8571 59.9822 97.1031 60.7282C96.5021 61.3222 96.6862 61.7362 97.5262 61.8032C98.5582 61.8862 99.5961 61.8902 100.631 61.9262L101.296 61.9272L100.806 62.5622L100.782 62.6032L100.803 62.5592C101.191 62.5592 101.584 62.5972 101.965 62.5442C102.204 62.5102 102.54 62.3972 102.63 62.2182C102.825 61.8292 103.139 61.7802 103.483 61.7162C104.154 61.5892 104.828 61.4772 105.494 61.3262C106.027 61.2062 106.549 61.0382 107.077 60.8912L107.155 61.0012L105.976 62.1002L105.8 61.4522C103.929 62.3122 102.082 63.0902 100.306 64.0072C99.4492 64.4492 98.7262 65.1512 97.9432 65.7362L97.9002 65.7852L97.9492 65.7422L98.4511 65.7782L96.4872 67.4352C96.8002 67.7072 97.0512 68.0662 97.3882 68.1882C98.0232 68.4192 98.7012 68.5982 99.3712 68.6462C100.382 68.7182 101.403 68.6592 102.42 68.6562L102.447 68.4332L101.652 68.1072L105.706 67.6192C102.941 69.3212 99.7482 69.1422 96.6902 69.6552C96.6952 70.4822 97.3882 70.8712 97.8312 71.4402L97.5012 71.7132L98.4602 72.5192C98.6432 72.8062 98.4752 72.8272 98.2372 72.8392C96.4722 72.9272 94.7652 72.6292 93.1282 71.9982C92.1302 71.6142 91.1761 71.1162 90.2011 70.6752L89.8982 70.6102L89.8832 70.5712L89.8531 70.5632L89.8962 70.6132L90.3212 71.5652C89.7582 71.4592 89.2002 71.2962 88.6332 71.2582C87.3192 71.1702 86.0761 71.5332 84.8531 71.9712L84.4052 72.1062C84.4402 71.6522 84.5041 71.2002 84.5051 70.7472C84.5091 68.9072 84.4971 67.0672 84.4791 65.2272C84.4771 65.1562 84.3642 65.0872 84.3032 65.0182Z" fill="#B3E0EE"/>
<path fill-rule="evenodd" clip-rule="evenodd" d="M83.9722 92.0335C85.6092 89.8695 87.6562 88.1205 89.7262 86.2555L89.9242 89.0955L90.0672 89.1415C91.9722 86.9775 93.9392 84.8785 96.2882 82.9245L96.1512 85.3465C96.6882 84.8885 97.1802 84.5005 97.6352 84.0745C99.2372 82.5745 100.708 80.9625 101.808 79.0465C101.955 78.7905 102.054 78.5055 102.175 78.2335L102.279 78.2285L102.295 78.2425C101.941 79.3985 101.625 80.5665 101.224 81.7055C100.348 84.1995 98.6892 86.2345 97.2652 88.4125C95.8312 90.6035 94.5182 92.8755 93.1622 95.1165C93.0572 95.2905 93.0262 95.5095 92.9602 95.7075L92.9182 95.7685L92.9742 95.7215C93.5972 95.3995 94.2172 95.0745 94.8422 94.7555C95.4172 94.4615 95.9962 94.1745 96.6662 93.9745L96.2402 94.7765C94.7542 97.6385 93.2832 100.51 91.7752 103.362C91.1742 104.498 90.5052 105.599 89.8252 106.69C89.7072 106.879 89.3832 107.042 89.1532 107.043C86.1362 107.062 83.1182 106.996 80.1032 107.06C77.9202 107.106 76.2642 106.081 74.7092 104.746L74.6372 104.611C75.3192 104.826 75.9812 104.916 76.6912 104.634C77.2972 104.393 77.7392 104.037 77.9142 103.421C78.4935 101.375 79.0608 99.3265 79.6162 97.2745C79.7532 96.7695 79.8442 96.2505 80.0712 95.7385V99.7295L80.2142 99.7505C80.7642 98.5995 81.3042 97.4425 81.8662 96.2975C82.5022 95.0005 83.1602 93.7135 83.8062 92.4205L83.9722 92.0335Z" fill="#65C1DD"/>
<path fill-rule="evenodd" clip-rule="evenodd" d="M46.5731 92.9609L50.9061 95.9359L51.0331 95.8459L50.8011 93.9669C51.2761 94.3269 51.6451 94.6449 52.0501 94.9059C53.5671 95.8869 55.0961 96.8509 56.6201 97.8209L53.3811 98.7039C57.1591 100.321 60.5681 102.602 62.2061 106.919C61.0931 106.993 60.0781 107.081 59.0611 107.125C56.8761 107.22 54.6911 107.311 52.5051 107.371C49.3491 107.46 46.1921 107.519 43.0351 107.594C42.1181 107.615 41.2011 107.634 40.2851 107.67C38.8271 107.729 37.6821 107.167 36.8461 105.971L36.4921 105.529L35.4821 106.23C34.8831 105.72 34.3711 105.14 34.0591 104.395L36.8431 105.22C36.5841 103.704 36.0541 102.415 35.5411 101.12L35.2421 100.157C35.7861 100.618 36.3251 101.086 36.8771 101.537C37.0071 101.643 37.1811 101.695 37.3351 101.772L37.4071 101.888L37.3771 101.735V101.172C37.9131 101.487 38.3771 101.79 38.8681 102.041C39.492 102.364 40.1303 102.659 40.7811 102.925C41.2631 103.118 41.3701 103.019 41.3821 102.495C41.4211 100.708 40.8431 99.0679 40.1431 97.4659C39.5721 96.1589 38.9471 94.8769 38.3701 93.5729C38.183 93.1364 38.0357 92.6839 37.9301 92.2209C37.8711 91.9739 37.8451 91.6569 37.9531 91.4489C38.0831 91.2009 38.3731 91.0369 38.5941 90.8369C38.7111 91.0529 38.8961 91.2579 38.9331 91.4859C39.0751 92.3779 39.1931 93.2889 39.8001 93.9949C40.1991 94.4599 40.7241 94.8169 41.1981 95.2269L40.7541 95.4639C41.3081 96.0649 43.9461 96.7029 44.8911 96.5079L44.5621 91.6809L44.8791 91.8459L46.5731 92.9609Z" fill="#65C2DD"/>
<path fill-rule="evenodd" clip-rule="evenodd" d="M98.4579 72.5176L97.4989 71.7116L97.8289 71.4386C97.3869 70.8696 96.6939 70.4806 96.6879 69.6536C99.7459 69.1406 102.938 69.3206 105.704 67.6176L101.65 68.1056L102.445 68.4316L102.418 68.6546C101.401 68.6576 100.38 68.7166 99.3689 68.6446C98.6979 68.5966 98.0199 68.4166 97.3859 68.1866C97.0489 68.0636 96.7979 67.7056 96.4849 67.4336L98.4489 65.7766L97.9469 65.7406L97.9409 65.7346C98.7249 65.1506 99.4469 64.4476 100.304 64.0056C102.08 63.0886 103.927 62.3106 105.798 61.4506L105.974 62.0986L107.153 60.9996L107.075 60.8896C106.548 61.0356 106.025 61.2036 105.492 61.3246C104.826 61.4756 104.152 61.5876 103.481 61.7146C103.137 61.7786 102.823 61.8276 102.628 62.2166C102.538 62.3956 102.202 62.5086 101.963 62.5426C101.583 62.5956 101.189 62.5576 100.801 62.5576L100.804 62.5606L101.294 61.9256L100.629 61.9246C99.5929 61.8886 98.5549 61.8856 97.5239 61.8016C96.6829 61.7346 96.4999 61.3206 97.1009 60.7266C97.8549 59.9806 98.7079 59.3296 99.5579 58.6896C100.241 58.1756 100.984 57.7386 101.755 57.2326L101.269 57.0486C101.619 56.8656 101.904 56.7476 102.157 56.5786C102.578 56.2976 103.014 56.0226 103.377 55.6756C103.845 55.2286 103.769 54.7706 103.242 54.4036C102.519 53.8986 101.957 53.8236 100.543 53.9806C100.679 53.9106 100.81 53.8226 100.953 53.7726C102.07 53.3776 103.189 52.9896 104.308 52.6006C105.221 52.6376 106.144 52.6016 107.045 52.7286C108.284 52.9026 108.942 53.8666 109.622 54.7636L109.548 54.8986L108.303 54.4986C109.042 55.7606 109.705 56.9456 109.751 58.4056L109.53 58.2786L109.399 57.9446C109.056 58.7676 108.893 59.4746 108.504 60.0216C107.848 60.9456 107.876 61.7486 108.365 62.7486C108.715 63.4626 108.729 64.3416 108.893 65.1466L108.687 65.2286L108.163 64.5826C108.098 65.6906 108.084 66.6876 107.538 67.5936L107.3 67.0466C106.911 67.4046 106.524 67.7296 106.182 68.0976C106.088 68.1986 106.088 68.4346 106.119 68.5956C106.298 69.5206 106.604 70.4356 106.256 71.4136L105.852 71.2246C105.286 72.4676 104.263 73.0986 102.995 73.2386C101.618 73.3906 100.262 73.1476 98.9589 72.6556C98.7989 72.5926 98.6259 72.5626 98.4579 72.5176Z" fill="#EBF7FE"/>
<path fill-rule="evenodd" clip-rule="evenodd" d="M79.5232 40.1322L84.8892 41.2302L85.3392 41.3772C85.7062 41.4982 85.8422 41.7552 85.7332 42.1162C85.5942 42.5692 85.4642 43.0312 85.2552 43.4522C85.1264 43.696 84.9203 43.8902 84.6692 44.0042C84.2622 44.1752 84.0222 44.4432 83.8442 44.8322C83.5962 45.3742 83.3452 45.9242 83.0142 46.4162C82.7172 46.8582 82.3102 47.2272 81.9522 47.6272C80.4822 48.1862 78.9582 48.0492 77.4532 47.9082C76.2621 47.7949 75.0798 47.6025 73.9142 47.3322C72.5492 47.0172 71.7312 46.1652 71.7472 44.6752C71.7542 44.0062 71.7412 43.3362 71.7582 42.6662C71.7692 42.2272 71.6162 42.0082 71.1462 41.9372C70.1022 41.7792 69.9482 41.8402 69.3772 42.7432C68.8773 43.5319 68.3605 44.3098 67.8272 45.0762C67.2242 45.9462 66.3562 46.3392 65.3212 46.4592C61.6002 46.8932 58.0122 46.2562 54.4882 45.1302C53.4562 44.8002 53.1732 44.3362 53.1362 43.2422C53.1142 42.5902 53.1222 41.9312 53.0212 41.2902C52.9682 40.9572 52.7802 40.5722 52.5282 40.3542C51.2092 39.2152 49.8492 38.1232 48.5032 37.0152L48.2902 36.8592L46.1382 34.9212L46.9122 31.3862L49.9442 34.4272C50.7122 35.2532 51.4752 36.0842 52.2532 36.9012C52.3492 37.0022 52.5242 37.0902 52.6582 37.0852C55.5472 36.9692 58.3982 37.3022 61.2382 37.7862L61.3962 37.7912L63.7322 38.2702C66.0242 38.8252 68.3082 39.4102 70.6092 39.9182C71.3532 40.0822 72.1422 40.0952 72.9102 40.0892C74.4062 40.0772 75.9022 40.0042 77.3972 39.9562L79.5232 40.1322ZM60.2492 38.6992C58.6852 38.6092 57.1222 38.4892 55.5572 38.4442C54.9292 38.4262 54.5742 38.7842 54.4992 39.4062C54.3648 40.5084 54.2617 41.6142 54.1902 42.7222C54.1202 43.8502 54.2302 43.9882 55.3202 44.3562C58.3292 45.3732 61.4342 45.6962 64.5962 45.6442C65.7512 45.6242 66.6012 45.1102 67.1792 44.1672C67.6572 43.3892 68.0642 42.5652 68.4612 41.7412C68.8072 41.0242 68.6982 40.6992 67.9312 40.4462C66.7632 40.0622 65.5642 39.7712 64.3792 39.4402L60.2492 38.6992ZM77.6582 40.9572L77.6402 41.0722C77.0412 41.0722 76.4402 41.0472 75.8422 41.0802C75.3156 41.115 74.7915 41.1795 74.2722 41.2732C73.5882 41.3902 73.1532 41.7922 73.0862 42.4982C73.0162 43.2332 72.9562 43.9722 72.9582 44.7092C72.9602 45.9932 73.1952 46.2772 74.4292 46.5742C76.1872 46.9972 77.9742 47.1652 79.7802 47.0802C80.2172 47.0592 80.6512 46.9612 81.0832 46.8782C81.6562 46.7692 82.0662 46.4652 82.3012 45.9032C82.7222 44.8972 83.1972 43.9142 83.6102 42.9042C83.9532 42.0642 83.8692 41.8442 82.9872 41.6982C81.2172 41.4052 79.4352 41.1992 77.6582 40.9572Z" fill="#515053"/>
<path fill-rule="evenodd" clip-rule="evenodd" d="M60.8771 16.4909C59.3221 18.4289 57.1401 19.4749 54.1051 19.7219L57.0001 18.2599C54.3841 15.6009 52.5181 12.6769 52.5951 8.85989C52.7271 6.51689 53.4441 4.37589 54.8041 2.45889C54.9351 2.27389 55.0991 2.11389 55.2471 1.94189L55.3301 1.98189L55.3361 2.18889C55.2431 2.34289 55.1021 2.48689 55.0641 2.65389C54.5321 4.97689 54.5401 7.28989 55.3001 9.56489C56.1241 12.0299 57.6781 13.9669 59.7161 15.5429C60.1121 15.8469 60.4911 16.1739 60.8771 16.4909Z" fill="#4F4E51"/>
<path fill-rule="evenodd" clip-rule="evenodd" d="M84.303 65.0176C84.364 65.0866 84.477 65.1556 84.477 65.2256C84.495 67.0646 84.507 68.9046 84.503 70.7456C84.502 71.1986 84.438 71.6506 84.403 72.1046C84.014 73.7056 83.707 75.3326 83.216 76.9016C82.455 79.3376 81.195 81.5316 79.624 83.5436C79.481 83.4876 79.327 83.4506 79.195 83.3746C76.757 81.9606 74.321 80.5426 71.885 79.1256C71.7799 79.0739 71.6954 78.9883 71.645 78.8826L72.688 79.0036C76.308 79.3766 79.313 78.1396 81.676 75.4196C82.2 74.8156 82.477 73.9786 82.79 73.2156C83.864 70.5906 84.407 67.8616 84.303 65.0176Z" fill="#66C2DD"/>
<path fill-rule="evenodd" clip-rule="evenodd" d="M76.443 4.30784V8.24484C76.443 9.00884 76.432 9.00484 75.719 8.85084C73.103 8.28284 70.485 7.72784 67.869 7.16184C67.683 7.12184 67.511 7.02484 67.332 6.95384L67.334 6.84884L67.439 6.74284C68.196 5.57284 69.067 4.50184 70.163 3.62784L73.163 1.23584C73.157 1.41284 73.189 1.60184 73.138 1.76484C72.906 2.51384 72.649 3.25484 72.352 4.14684C73.806 3.60484 75.071 2.93884 76.442 2.70984L76.443 4.30784Z" fill="#EBF7FD"/>
<path fill-rule="evenodd" clip-rule="evenodd" d="M60.8769 16.491C60.4909 16.175 60.1119 15.847 59.7169 15.541C57.6789 13.965 56.1249 12.028 55.3009 9.56301C54.5399 7.28801 54.5319 4.97501 55.0649 2.65201C55.1029 2.48501 55.2439 2.34101 55.3369 2.18701L56.0179 4.83201C57.0189 8.04001 58.9129 10.58 61.7059 12.451C62.7509 13.151 62.7929 13.182 62.2369 14.326C61.8679 15.087 61.3359 15.772 60.8769 16.491Z" fill="#737F84"/>
<path fill-rule="evenodd" clip-rule="evenodd" d="M93.045 25.119C93.049 25.012 93.016 24.883 93.064 24.801C93.716 23.673 94.379 22.552 95.04 21.429C96.189 21.194 97.359 21.028 98.484 20.709C100.986 20.001 103.199 18.774 104.967 16.824L105.615 16.144C104.717 18.692 103.372 20.965 101.419 22.846C99.556 24.641 97.261 25.281 94.733 25.228C94.17 25.217 93.608 25.157 93.045 25.119Z" fill="#4F4E51"/>
<path fill-rule="evenodd" clip-rule="evenodd" d="M105.615 16.1451L104.967 16.8251C103.198 18.7761 100.986 20.0031 98.484 20.7101C97.359 21.0281 96.189 21.1951 95.04 21.4301L97.205 18.0571C100.268 18.5511 102.956 17.6111 105.446 15.9071L105.799 15.6851L105.615 16.1451Z" fill="#737F84"/>
<path fill-rule="evenodd" clip-rule="evenodd" d="M102.279 78.229L102.302 78.0811L102.35 78.0941L102.294 78.2421L102.279 78.229ZM74.4482 104.522L74.6452 104.613L74.4482 104.522Z" fill="#65C1DD"/>
<path fill-rule="evenodd" clip-rule="evenodd" d="M90.3178 71.563L90.3618 71.587L90.3178 71.563ZM80.6818 53.24L80.5718 53.123L80.6818 53.24Z" fill="#B3E0EE"/>
<path fill-rule="evenodd" clip-rule="evenodd" d="M55.248 1.94084L55.3 1.88184L55.332 1.97984L55.248 1.94084Z" fill="#737F84"/>
<path fill-rule="evenodd" clip-rule="evenodd" d="M46.5729 92.9612C46.0079 92.5892 45.4439 92.2162 44.8779 91.8482L44.5609 91.6832C44.3969 90.2572 44.2639 88.8272 44.0609 87.4062C43.8729 86.0932 43.1649 85.0122 42.3389 84.0152C41.0399 82.4452 39.6369 80.9552 38.8179 79.0412C38.1009 77.3642 37.6029 75.6312 37.4749 73.8122C37.3666 72.2168 37.2972 70.619 37.2669 69.0202C37.2509 68.3072 37.3549 67.5922 37.4099 66.8012L38.6559 68.1132C39.1189 64.9222 40.6579 62.3012 42.1679 59.6582C41.7359 61.6922 41.2439 63.7162 40.8889 65.7632C40.5339 67.8132 40.2149 69.8792 40.4369 72.0612C39.7889 71.7992 39.5049 71.2482 39.0699 70.6562C38.9989 72.2942 39.5559 73.6272 40.1429 74.9222C40.7279 76.2132 41.4649 77.4342 42.2059 78.8162L39.7159 78.5932C39.8129 79.1352 40.1529 79.6352 40.5919 80.0122C41.3899 80.6995 42.2248 81.3428 43.0929 81.9392C45.2269 83.4022 46.5639 85.3752 46.8619 87.9472C46.9859 89.0122 46.8509 90.1102 46.7949 91.1912C46.7619 91.7832 46.6489 92.3712 46.5729 92.9612ZM35.2419 100.158L35.5409 101.121C35.3189 100.908 35.0609 100.722 34.8839 100.477C34.5335 99.9944 34.21 99.4926 33.9149 98.9742C33.6229 98.4602 33.3829 97.9172 33.1059 97.3582L32.7849 97.7072C32.6249 96.4702 32.2439 95.3172 32.5999 94.1072C32.7979 95.5212 33.1839 96.8642 33.9149 98.2062L34.0719 97.8752L34.1609 97.5182L35.1359 99.9422L35.2459 100.164L35.2419 100.158Z" fill="#B3E0EE"/>
<path fill-rule="evenodd" clip-rule="evenodd" d="M30.3369 102.017C28.8349 101.376 27.4589 97.551 28.1589 96.21L28.8899 99.633L29.2479 99.39L30.3369 102.017Z" fill="#B4E1EE"/>
<path fill-rule="evenodd" clip-rule="evenodd" d="M42.3118 59.295L42.2738 59.305L42.2588 59.26L42.2968 59.25L42.3118 59.295Z" fill="#B3E0EE"/>
<path fill-rule="evenodd" clip-rule="evenodd" d="M35.2462 100.163L35.1362 99.9414L35.2462 100.163Z" fill="#65C2DD"/>
<path fill-rule="evenodd" clip-rule="evenodd" d="M67.44 6.74219L67.335 6.84819L67.44 6.74219Z" fill="#E9F5FA"/>
<path fill-rule="evenodd" clip-rule="evenodd" d="M56.0752 48.8283C59.8942 48.8283 63.6182 48.7833 67.3402 48.8453C69.5932 48.8833 71.8462 49.0583 74.0942 49.2313C74.9036 49.2848 75.6754 49.5928 76.2992 50.1113C75.3872 50.8053 74.5312 51.5013 73.6272 52.1263C73.1982 52.4233 73.0582 52.7363 73.2642 53.1883C73.5502 53.8113 73.8652 54.4183 74.1652 55.0343L74.7692 56.2973L74.3092 56.3803C71.6812 56.4483 69.0442 56.6303 66.4352 56.1953C63.5402 55.7113 60.7772 54.8363 58.4162 52.9993C57.2712 52.1083 56.4412 50.9903 56.1522 49.5313C56.1112 49.3293 56.1062 49.1193 56.0752 48.8283Z" fill="#4F4E51"/>
<path fill-rule="evenodd" clip-rule="evenodd" d="M67.9159 64.166L66.4539 61.798L64.6379 64.481C63.6889 63.416 63.3759 62.188 62.9089 60.926L61.4239 62.58C60.7349 61.174 60.3159 59.777 60.2139 58.125C64.0629 59.369 67.8909 59.795 71.7969 59.553L71.8399 59.72C71.3919 59.964 70.9629 60.259 70.4909 60.441C69.6199 60.778 69.3289 61.517 69.0199 62.291C68.7679 62.92 68.4259 63.515 68.1239 64.124L67.9159 64.166Z" fill="#D3EDF6"/>
<path fill-rule="evenodd" clip-rule="evenodd" d="M71.4031 78.833L71.3611 78.846L71.3481 78.793L71.3931 78.802L71.4031 78.833Z" fill="#66C2DD"/>
<path fill-rule="evenodd" clip-rule="evenodd" d="M64.9702 33.2708C62.8292 32.5158 60.9472 32.6738 59.3892 34.4318C59.2672 33.4588 60.3672 32.2098 61.5342 31.8888C62.9242 31.5068 64.4782 32.0908 64.9702 33.2708ZM59.7082 36.0818C59.7362 35.3978 60.2182 35.0338 60.7182 34.7088C61.8652 33.9638 63.9342 34.0748 64.7562 35.3278C64.4302 35.2888 64.1502 35.2748 63.8792 35.2198C62.4812 34.9358 61.2132 35.3208 59.9932 35.9598L59.7082 36.0818ZM80.3142 35.5238C80.9822 34.9308 81.9992 34.8038 82.8342 35.2608C83.7272 35.7498 84.1552 36.3968 84.0872 37.4988C83.1482 36.1658 81.8322 35.6658 80.3142 35.5238Z" fill="#D4EDF6"/>
<path fill-rule="evenodd" clip-rule="evenodd" d="M82.99 39.7588C81.624 38.1098 81.058 38.0598 79.458 37.6188C79.992 37.1118 80.627 37.0088 81.256 37.1888C82.478 37.5398 82.861 38.5318 82.99 39.7588Z" fill="#CDEBF4"/>
<path fill-rule="evenodd" clip-rule="evenodd" d="M59.7091 36.082L59.6841 36.126L59.7091 36.082Z" fill="#D4EDF6"/>
<path fill-rule="evenodd" clip-rule="evenodd" d="M100.803 62.5586L100.782 62.6026L100.806 62.5616L100.803 62.5586ZM97.9469 65.7406L97.8979 65.7836L97.9409 65.7346L97.9469 65.7406Z" fill="#EBF7FE"/>
<path fill-rule="evenodd" clip-rule="evenodd" d="M37.376 101.736L37.406 101.889L37.334 101.773L37.376 101.736Z" fill="#D3EDF6"/>
<path fill-rule="evenodd" clip-rule="evenodd" d="M64.378 39.439C65.564 39.77 66.762 40.061 67.93 40.445C68.698 40.697 68.806 41.023 68.46 41.74C68.063 42.564 67.655 43.388 67.178 44.166C66.599 45.109 65.75 45.624 64.595 45.643C61.433 45.695 58.328 45.372 55.319 44.355C54.229 43.987 54.119 43.849 54.189 42.721C54.258 41.614 54.366 40.508 54.498 39.405C54.573 38.783 54.927 38.425 55.556 38.443C57.121 38.488 58.684 38.609 60.248 38.699L59.817 40.047C59.4278 41.0152 59.3581 42.0824 59.618 43.093C59.894 44.192 60.848 44.775 61.844 44.512C62.75 44.273 63.741 43.086 63.836 42.129C64.303 41.291 64.363 40.37 64.378 39.439Z" fill="#E8F4F8"/>
<path fill-rule="evenodd" clip-rule="evenodd" d="M77.6581 40.957C79.4351 41.199 81.2181 41.405 82.9861 41.699C83.8681 41.845 83.9521 42.065 83.6091 42.905C83.1971 43.915 82.7211 44.898 82.3001 45.904C82.0651 46.466 81.6541 46.769 81.0821 46.879C80.6501 46.962 80.2151 47.06 79.7791 47.081C77.9804 47.1672 76.1787 46.9968 74.4281 46.575C73.1951 46.279 72.9601 45.994 72.9571 44.71C72.9551 43.973 73.0161 43.233 73.0851 42.499C73.1521 41.793 73.5871 41.391 74.2711 41.274C74.7911 41.186 75.3151 41.11 75.8411 41.081C76.4391 41.048 77.0401 41.073 77.6391 41.073L77.6581 40.957ZM80.0161 43.174C79.9281 43.361 79.8871 43.492 79.8111 43.599C79.4791 44.072 79.2001 44.604 78.7861 44.992C77.8961 45.826 76.7871 45.578 76.2851 44.466C76.0851 44.022 75.9811 43.534 75.8291 43.051C75.7141 44.326 75.8381 45.224 76.2111 45.852C76.5861 46.483 77.1121 46.727 77.8111 46.595C79.0531 46.358 80.1121 44.76 80.0161 43.174ZM76.5331 42.933L76.4311 43.03C76.6401 43.293 76.8001 43.674 77.0721 43.792C77.4521 43.957 77.6951 43.584 77.8721 43.272C77.9487 43.1347 78.0012 42.9852 78.0271 42.83C78.1141 42.323 77.8841 41.796 77.5541 41.707C77.1931 41.61 76.7631 41.978 76.6101 42.522L76.5331 42.933Z" fill="#ECF5F9"/>
<path fill-rule="evenodd" clip-rule="evenodd" d="M59.8171 40.0469C59.8591 40.6589 59.8401 41.2829 59.9571 41.8799C60.0981 42.5929 60.4561 43.2009 61.2341 43.4169C62.0141 43.6319 62.6481 43.3429 63.1991 42.8149C63.4241 42.5999 63.6231 42.3589 63.8351 42.1289C63.7411 43.0859 62.7491 44.2729 61.8431 44.5119C60.8481 44.7749 59.8931 44.1919 59.6171 43.0929C59.3585 42.0821 59.4285 41.0152 59.8171 40.0469ZM80.0161 43.1739C80.1131 44.7589 79.0541 46.3579 77.8111 46.5939C77.1131 46.7269 76.5871 46.4829 76.2111 45.8509C75.8371 45.2229 75.7141 44.3259 75.8291 43.0499C75.9811 43.5329 76.0841 44.0209 76.2851 44.4649C76.7871 45.5769 77.8961 45.8259 78.7861 44.9909C79.2001 44.6029 79.4791 44.0709 79.8111 43.5979C79.8861 43.4919 79.9271 43.3609 80.0161 43.1739Z" fill="#778287"/>
<path fill-rule="evenodd" clip-rule="evenodd" d="M76.5331 42.9333L76.6101 42.5223C76.7631 41.9783 77.1931 41.6103 77.5541 41.7073C77.8841 41.7963 78.1141 42.3233 78.0271 42.8303C78.0013 42.9855 77.9489 43.135 77.8721 43.2723C77.6951 43.5843 77.4521 43.9563 77.0721 43.7923C76.8001 43.6733 76.6401 43.2933 76.4311 43.0303L76.5331 42.9333ZM60.5261 40.9053C60.5491 40.3153 60.9431 39.8233 61.3951 39.8203C61.7741 39.8173 62.0891 40.2753 62.0661 40.7953C62.0411 41.3773 61.5891 41.9173 61.1431 41.9003C60.7421 41.8863 60.5021 41.5003 60.5261 40.9053Z" fill="#1C1C1C"/>
<path d="M14.0438 126.805H12.3838V112.528H20.3428V114.003H14.0438V119.228H19.9618V120.703H14.0438V126.805ZM31.6998 121.443C31.6998 123.188 31.2608 124.55 30.3818 125.53C29.5028 126.51 28.2888 127 26.7388 127C25.7818 127 24.9318 126.775 24.1898 126.326C23.4478 125.877 22.8748 125.232 22.4708 124.392C22.0668 123.552 21.8658 122.569 21.8658 121.443C21.8658 119.698 22.3018 118.339 23.1748 117.366C24.0478 116.393 25.2578 115.906 26.8078 115.906C28.3058 115.906 29.4948 116.404 30.3768 117.4C31.2588 118.396 31.6998 119.744 31.6998 121.443ZM23.5458 121.443C23.5458 122.81 23.8188 123.852 24.3658 124.568C24.9128 125.284 25.7168 125.642 26.7778 125.642C27.8388 125.642 28.6448 125.286 29.1948 124.573C29.7448 123.86 30.0198 122.817 30.0198 121.443C30.0198 120.082 29.7448 119.049 29.1948 118.342C28.6448 117.635 27.8328 117.282 26.7578 117.282C25.6968 117.282 24.8958 117.63 24.3558 118.327C23.8158 119.024 23.5458 120.063 23.5458 121.443ZM36.0648 116.102V123.045C36.0648 123.918 36.2638 124.568 36.6608 124.998C37.0578 125.428 37.6798 125.643 38.5258 125.643C39.6458 125.643 40.4638 125.337 40.9818 124.725C41.4998 124.113 41.7578 123.114 41.7578 121.727V116.102H43.3788V126.805H42.0408L41.8068 125.369H41.7198C41.3878 125.896 40.9278 126.3 40.3378 126.58C39.7478 126.86 39.0768 127 38.3208 127C37.0188 127 36.0438 126.691 35.3958 126.072C34.7478 125.453 34.4238 124.464 34.4238 123.103V116.101H36.0648V116.102ZM54.1418 126.805V119.881C54.1418 119.008 53.9428 118.358 53.5458 117.928C53.1488 117.498 52.5268 117.283 51.6808 117.283C50.5608 117.283 49.7408 117.586 49.2198 118.191C48.6988 118.796 48.4388 119.796 48.4388 121.189V126.804H46.8178V116.101H48.1358L48.3998 117.566H48.4778C48.8098 117.039 49.2748 116.63 49.8738 116.34C50.4728 116.05 51.1398 115.905 51.8758 115.905C53.1648 115.905 54.1348 116.216 54.7858 116.838C55.4368 117.46 55.7628 118.454 55.7628 119.821V126.803H54.1418V126.805ZM66.3778 125.369H66.2898C65.5408 126.456 64.4208 127 62.9308 127C61.5308 127 60.4418 126.521 59.6638 125.564C58.8858 124.607 58.4968 123.246 58.4968 121.482C58.4968 119.718 58.8878 118.347 59.6688 117.371C60.4498 116.395 61.5378 115.906 62.9308 115.906C64.3828 115.906 65.4958 116.433 66.2708 117.488H66.3978L66.3298 116.717L66.2908 115.965V111.61H67.9118V126.805H66.5938L66.3778 125.369ZM63.1358 125.643C64.2428 125.643 65.0448 125.342 65.5428 124.74C66.0408 124.138 66.2898 123.166 66.2898 121.825V121.483C66.2898 119.966 66.0378 118.884 65.5328 118.236C65.0278 117.588 64.2228 117.264 63.1158 117.264C62.1648 117.264 61.4378 117.634 60.9328 118.372C60.4278 119.11 60.1758 120.154 60.1758 121.502C60.1758 122.869 60.4258 123.901 60.9278 124.598C61.4298 125.295 62.1658 125.643 63.1358 125.643ZM77.9308 126.805L77.6088 125.282H77.5298C76.9958 125.952 76.4638 126.407 75.9328 126.644C75.4018 126.881 74.7408 127 73.9458 127C72.8848 127 72.0528 126.727 71.4508 126.18C70.8488 125.633 70.5478 124.855 70.5478 123.846C70.5478 121.684 72.2768 120.552 75.7338 120.448L77.5498 120.389V119.725C77.5498 118.885 77.3688 118.265 77.0078 117.865C76.6468 117.465 76.0688 117.264 75.2748 117.264C74.3828 117.264 73.3738 117.537 72.2478 118.084L71.7498 116.844C72.2768 116.557 72.8548 116.333 73.4828 116.17C74.1108 116.007 74.7408 115.926 75.3728 115.926C76.6488 115.926 77.5948 116.209 78.2098 116.776C78.8248 117.343 79.1328 118.251 79.1328 119.501V126.806H77.9308V126.805ZM74.2688 125.662C75.2778 125.662 76.0708 125.385 76.6468 124.832C77.2228 124.279 77.5108 123.504 77.5108 122.508V121.541L75.8898 121.609C74.6008 121.654 73.6718 121.855 73.1018 122.21C72.5318 122.565 72.2478 123.117 72.2478 123.865C72.2478 124.451 72.4248 124.897 72.7798 125.203C73.1348 125.509 73.6298 125.662 74.2688 125.662ZM85.9288 125.662C86.2158 125.662 86.4918 125.641 86.7588 125.599C87.0258 125.557 87.2378 125.513 87.3938 125.467V126.707C87.2178 126.791 86.9588 126.862 86.6178 126.917C86.2768 126.972 85.9678 127 85.6938 127C83.6238 127 82.5888 125.91 82.5888 123.729V117.362H81.0558V116.581L82.5888 115.907L83.2728 113.622H84.2108V116.102H87.3158V117.362H84.2098V123.661C84.2098 124.306 84.3628 124.8 84.6688 125.145C84.9748 125.49 85.3948 125.662 85.9288 125.662ZM89.3958 113.201C89.3958 112.83 89.4868 112.558 89.6688 112.386C89.8508 112.214 90.0788 112.127 90.3528 112.127C90.6128 112.127 90.8378 112.215 91.0268 112.391C91.2158 112.567 91.3098 112.837 91.3098 113.202C91.3098 113.567 91.2158 113.838 91.0268 114.017C90.8378 114.196 90.6128 114.286 90.3528 114.286C90.0798 114.286 89.8518 114.197 89.6688 114.017C89.4858 113.837 89.3958 113.566 89.3958 113.201ZM91.1528 126.805H89.5318V116.102H91.1528V126.805ZM103.829 121.443C103.829 123.188 103.39 124.55 102.511 125.53C101.632 126.51 100.418 127 98.8678 127C97.9108 127 97.0608 126.775 96.3188 126.326C95.5768 125.877 95.0038 125.232 94.5998 124.392C94.1958 123.552 93.9948 122.569 93.9948 121.443C93.9948 119.698 94.4308 118.339 95.3038 117.366C96.1768 116.393 97.3868 115.906 98.9368 115.906C100.435 115.906 101.624 116.404 102.506 117.4C103.388 118.396 103.829 119.744 103.829 121.443ZM95.6748 121.443C95.6748 122.81 95.9478 123.852 96.4948 124.568C97.0418 125.284 97.8458 125.642 98.9068 125.642C99.9678 125.642 100.774 125.286 101.324 124.573C101.874 123.86 102.149 122.817 102.149 121.443C102.149 120.082 101.874 119.049 101.324 118.342C100.774 117.635 99.9618 117.282 98.8868 117.282C97.8258 117.282 97.0248 117.63 96.4848 118.327C95.9448 119.024 95.6748 120.063 95.6748 121.443ZM113.995 126.805V119.881C113.995 119.008 113.796 118.358 113.399 117.928C113.002 117.498 112.38 117.283 111.534 117.283C110.414 117.283 109.594 117.586 109.073 118.191C108.552 118.796 108.292 119.796 108.292 121.189V126.804H106.671V116.101H107.989L108.253 117.566H108.331C108.663 117.039 109.128 116.63 109.727 116.34C110.326 116.05 110.993 115.905 111.729 115.905C113.018 115.905 113.988 116.216 114.639 116.838C115.29 117.46 115.616 118.454 115.616 119.821V126.803H113.995V126.805Z" fill="#4F4E51"/>
</svg>
