<svg width="128" height="128" viewBox="0 0 128 128" fill="none" xmlns="http://www.w3.org/2000/svg">
<path d="M25.5 43.6001H8.8C4.2 43.6001 0.5 47.3001 0.5 51.9001V68.6001C0.5 73.2001 4.2 76.9001 8.8 76.9001H25.5C30.1 76.9001 33.8 73.2001 33.8 68.6001V51.9001C33.8 47.4001 30 43.6001 25.5 43.6001ZM18.5 71.3001C12.3 72.2001 6.3 67.8001 5.7 62.0001C4.9 55.2001 9.4 49.7001 16.2 49.2001C19.2 49.0001 22.2 49.1001 25.2 49.2001H27.5V50.1001C27.6 51.0001 27.3 52.3001 26.6 52.8001C25.6 53.6001 24.2 54.1001 22.9 54.3001C21.2 54.5001 19.5 54.3001 17.7 54.4001C13.9 54.5001 11.4 56.2001 10.9 59.0001C10.4 61.9001 11.3 64.3001 14.1 65.6001C17.2 67.1001 20.3 66.2001 23 62.9001C19.6 62.2001 15.2 64.0001 14.7 58.2001H28.6C29.6 65.0001 25.5 70.4001 18.5 71.3001ZM36.8 66.1001C36.8 65.7001 36.8 65.4001 36.9 65.0001C37 64.6001 37.2 64.1001 37.5 63.6001C37.8 63.0001 38.2 62.5001 38.7 62.1001C39.2 61.7001 40 61.3001 41 61.0001C42 60.7001 43.2 60.5001 44.6 60.5001C45.6 60.5001 46.6 60.6001 47.8 60.7001C47.8 58.4001 46.5 57.3001 44 57.3001C42 57.3001 40.2 57.6001 38.7 58.2001V54.6001C40.4 54.0001 42.2 53.7001 44.2 53.7001C46.8 53.7001 48.7 54.4001 50.1 55.7001C51.5 57.0001 52.1 58.9001 52.1 61.4001V66.3001C52.1 68.0001 51.5 69.4001 50.2 70.6001C48.9 71.8001 47.1 72.4001 44.5 72.4001C41.8 72.4001 39.9 71.8001 38.6 70.6001C37.4 69.3001 36.8 67.8001 36.8 66.1001ZM41.1 65.5001C41.1 67.4001 42.2 68.4001 44.5 68.4001C46.7 68.4001 47.7 67.5001 47.7 65.7001V63.4001C46.7 63.3001 45.8 63.2001 45.1 63.2001C42.5 63.2001 41.1 64.0001 41.1 65.5001ZM54.8 57.7001V54.0001H57.8V48.7001H62.1V54.0001H66.4V57.7001H62.1V66.6001C62.1 67.4001 62.3 67.9001 62.6 68.2001C62.9 68.5001 63.5 68.6001 64.3 68.6001C65.1 68.6001 65.8 68.5001 66.4 68.2001V71.8001C65.6 72.2001 64.6 72.3001 63.6 72.3001H63.5C61.7 72.3001 60.3 71.8001 59.3 70.7001C58.3 69.6001 57.8 68.2001 57.8 66.3001V57.7001H54.8ZM71.1 72.0001V47.2001H75.4V72.0001H71.1ZM81.3 51.6001V47.6001H85.7V51.6001H81.3ZM81.3 72.0001V54.0001H85.6V72.0001H81.3ZM91.4 72.0001V55.7001C94 54.4001 96.8 53.7001 99.6 53.7001C102.1 53.7001 104.1 54.4001 105.5 55.7001C106.9 57.0001 107.6 58.8001 107.6 61.2001V72.0001H103.3V60.8001C103.3 60.3001 103.3 59.9001 103.2 59.6001C103.1 59.3001 102.9 58.9001 102.7 58.6001C102.5 58.3001 102 58.0001 101.4 57.8001C100.8 57.6001 100 57.5001 99.1 57.5001C98 57.5001 96.9 57.6001 95.8 57.8001V72.0001H91.4ZM112.4 62.9001C112.4 61.3001 112.6 59.9001 113 58.8001C113.4 57.7001 113.9 56.7001 114.5 56.1001C115.1 55.5001 115.7 55.0001 116.5 54.6001C117.3 54.2001 117.9 54.0001 118.5 53.9001C119.1 53.8001 119.6 53.8001 120.2 53.8001C122.7 53.8001 124.6 54.4001 125.8 55.5001C127 56.6001 127.6 58.0001 127.6 59.7001V72.5001C127.6 73.1001 127.5 73.6001 127.4 74.1001C127.3 74.6001 127.1 75.2001 126.7 75.8001C126.3 76.4001 125.9 77.0001 125.3 77.4001C124.7 77.8001 123.9 78.2001 122.9 78.5001C121.9 78.8001 120.7 79.0001 119.3 79.0001C117.4 79.0001 115.7 78.8001 114.1 78.3001V74.4001C115.5 74.9001 117.1 75.1001 118.8 75.1001C119.8 75.1001 120.6 75.0001 121.3 74.9001C121.9 74.7001 122.4 74.5001 122.6 74.2001C122.8 73.9001 123 73.6001 123 73.4001C123.1 73.2001 123.1 72.9001 123.1 72.5001V71.5001C122.1 71.7001 121.2 71.8001 120.4 71.8001C117.8 71.8001 115.8 71.0001 114.4 69.5001C113.1 67.9001 112.4 65.8001 112.4 62.9001ZM116.7 63.0001C116.7 65.0001 117 66.4001 117.7 67.1001C118.4 67.8001 119.3 68.2001 120.7 68.2001C121.6 68.2001 122.4 68.1001 123.3 68.0001V59.7001C123.3 58.4001 122.3 57.7001 120.3 57.7001H120.2C119.1 57.7001 118.2 58.1001 117.6 59.0001C117 59.9001 116.7 61.1001 116.7 63.0001Z" fill="#E77500"/>
</svg>
