<svg width="128" height="128" viewBox="0 0 128 128" fill="none" xmlns="http://www.w3.org/2000/svg">
<path d="M94.3 3.8999H33.7C17.1 3.8999 3.5 17.4999 3.5 34.0999V94.6999C3.5 111.3 17.1 124.9 33.7 124.9H94.3C110.9 124.9 124.5 111.3 124.5 94.6999V34.0999C124.5 17.4999 110.9 3.8999 94.3 3.8999ZM68.9 104.7C46.5 107.7 24.7 91.7999 22.3 70.5999C19.5 45.7999 35.7 25.7999 60.5 24.1999C71.3 23.4999 82.3 23.7999 93.2 24.1999C95 24.2999 101.4 24.2999 101.4 24.2999V27.3999C101.6 30.6999 100.5 35.3999 98.1 37.2999C94.4 40.1999 89.4 41.9999 84.7 42.6999C78.5 43.5999 72.2 42.7999 65.9 42.9999C52 43.2999 43.1 49.3999 41.3 59.8999C39.5 70.4999 42.8 78.9999 52.9 83.7999C64 89.0999 75.3 85.9999 85.2 73.8999C72.7 71.4999 56.7 77.7999 55 56.7999H105.4C109.5 81.7999 94.5 101.2 68.9 104.7Z" fill="#E77500"/>
</svg>
