<svg width="128" height="128" viewBox="0 0 128 128" fill="none" xmlns="http://www.w3.org/2000/svg">
<path d="M17.4002 47.2998C8.20019 47.2998 0.700195 54.7998 0.700195 63.9998C0.700195 73.1998 8.20019 80.6998 17.4002 80.6998C26.6002 80.6998 34.1002 73.1998 34.1002 63.9998C34.1002 54.7998 26.6002 47.2998 17.4002 47.2998ZM4.1002 64.0998L17.4002 77.3998C10.0002 77.3998 4.1002 71.3998 4.1002 64.0998ZM20.3002 76.9998L4.4002 60.9998C5.8002 55.0998 11.0002 50.6998 17.4002 50.6998C21.7002 50.6998 25.6002 52.7998 28.0002 55.9998L26.0002 57.8998C24.1002 55.1998 20.9002 53.3998 17.3002 53.3998C12.7002 53.3998 8.8002 56.2998 7.3002 60.3998C9.3002 62.1998 20.3002 73.1998 21.0002 73.9998C24.3002 72.7998 26.8002 69.8998 27.7002 66.3998H22.0002V63.9998L30.6002 64.0998C30.6002 70.3998 26.2002 75.6998 20.3002 76.9998Z" fill="#64328B"/>
<path d="M56.8999 63.9001V66.7001H61.5999C60.6999 69.0001 58.3999 70.7001 55.6999 70.7001C52.1999 70.7001 49.2999 67.8001 49.2999 64.3001C49.2999 60.8001 52.1999 57.9001 55.6999 57.9001C57.6999 57.9001 59.4999 58.8001 60.6999 60.3001L63.4999 58.3001C61.6999 56.0001 58.8999 54.5001 55.7999 54.5001H55.5999C50.1999 54.5001 45.8999 58.8001 45.8999 64.2001C45.8999 69.6001 50.1999 73.9001 55.5999 73.9001H55.7999C61.1999 73.9001 65.4999 69.6001 65.4999 64.2001V63.8001L56.8999 63.9001ZM75.7999 63.4001C74.7999 62.1001 73.3999 61.3001 71.6999 61.3001C68.6999 61.3001 66.2999 64.2001 66.2999 67.7001C66.2999 71.2001 68.6999 74.1001 71.6999 74.1001C73.3999 74.1001 74.8999 73.2001 75.8999 71.8001V73.4001H79.1999V61.6001H75.7999V63.4001ZM73.0999 70.9001C71.1999 70.9001 69.6999 69.4001 69.6999 67.5001C69.6999 65.6001 71.1999 64.1001 73.0999 64.1001C74.9999 64.1001 76.4999 65.6001 76.4999 67.5001C76.4999 69.4001 74.8999 70.9001 73.0999 70.9001ZM107.4 61.2001C105.8 61.2001 104.3 62.0001 103.3 63.3001V53.6001H99.9999V73.3001H103.3V71.7001C104.3 73.1001 105.8 74.0001 107.5 74.0001C110.5 74.0001 112.9 71.1001 112.9 67.6001C112.9 64.1001 110.4 61.2001 107.4 61.2001ZM106.1 70.9001C104.2 70.9001 102.7 69.4001 102.7 67.5001C102.7 65.6001 104.2 64.1001 106.1 64.1001C108 64.1001 109.5 65.6001 109.5 67.5001C109.4 69.4001 107.9 70.9001 106.1 70.9001ZM85.4999 57.6001H82.3999V61.6001H81.0999V64.3001H82.2999V73.3001H85.4999V64.3001H87.9999V61.6001H85.4999V57.6001ZM93.0999 65.5001C92.1999 65.5001 91.7999 62.0001 95.8999 64.4001L97.4999 62.5001C97.4999 62.5001 93.5999 59.7001 90.2999 62.5001C87.8999 66.0001 91.3999 67.7001 91.3999 67.7001L93.4999 68.6001C93.4999 68.6001 96.3999 69.9001 93.4999 71.4001C91.0999 71.5001 90.2999 69.8001 90.2999 69.8001L88.6999 71.8001C88.6999 71.8001 92.9999 76.2001 97.5999 71.8001C99.9999 66.1001 94.3999 66.1001 93.0999 65.5001ZM123.7 61.6001L120.3 68.3001L116.7 61.6001H112.9L118.4 71.8001L114 79.8001H117.9L127.4 61.6001H123.7Z" fill="black"/>
</svg>
