<svg width="128" height="128" viewBox="0 0 128 128" fill="none" xmlns="http://www.w3.org/2000/svg">
<path d="M17.4002 47.2998C8.20019 47.2998 0.700195 54.7998 0.700195 63.9998C0.700195 73.1998 8.20019 80.6998 17.4002 80.6998C26.6002 80.6998 34.1002 73.1998 34.1002 63.9998C34.1002 54.7998 26.6002 47.2998 17.4002 47.2998ZM4.1002 64.0998L17.4002 77.3998C10.0002 77.3998 4.1002 71.3998 4.1002 64.0998ZM20.3002 76.9998L4.4002 60.9998C5.8002 55.0998 11.0002 50.6998 17.4002 50.6998C21.7002 50.6998 25.6002 52.7998 28.0002 55.9998L26.0002 57.8998C24.1002 55.1998 20.9002 53.3998 17.3002 53.3998C12.7002 53.3998 8.8002 56.2998 7.3002 60.3998C9.3002 62.1998 20.3002 73.1998 21.0002 73.9998C24.3002 72.7998 26.8002 69.8998 27.7002 66.3998H22.0002V63.9998L30.6002 64.0998C30.6002 70.3998 26.2002 75.6998 20.3002 76.9998ZM57.1002 63.8998V66.6998H61.8002C60.9002 68.9998 58.6002 70.6998 55.9002 70.6998C52.4002 70.6998 49.5002 67.7998 49.5002 64.2998C49.5002 60.7998 52.4002 57.8998 55.9002 57.8998C57.9002 57.8998 59.7002 58.7998 60.9002 60.2998L63.7002 58.2998C61.9002 55.9998 59.1002 54.4998 56.0002 54.4998H55.8002C50.4002 54.4998 46.1002 58.7998 46.1002 64.1998C46.1002 69.5998 50.4002 73.8998 55.8002 73.8998H56.0002C61.4002 73.8998 65.7002 69.5998 65.7002 64.1998V63.7998L57.1002 63.8998ZM75.9002 63.3998C74.9002 62.0998 73.5002 61.2998 71.8002 61.2998C68.8002 61.2998 66.4002 64.1998 66.4002 67.6998C66.4002 71.1998 68.8002 74.0998 71.8002 74.0998C73.5002 74.0998 75.0002 73.1998 76.0002 71.7998V73.3998H79.3002V61.5998H75.9002V63.3998ZM73.2002 70.8998C71.3002 70.8998 69.8002 69.3998 69.8002 67.4998C69.8002 65.5998 71.3002 64.0998 73.2002 64.0998C75.1002 64.0998 76.6002 65.5998 76.6002 67.4998C76.6002 69.3998 75.1002 70.8998 73.2002 70.8998ZM107.6 61.1998C106 61.1998 104.5 61.9998 103.5 63.2998V53.5998H100.1V73.2998H103.4V71.6998C104.4 73.0998 105.9 73.9998 107.6 73.9998C110.6 73.9998 113 71.0998 113 67.5998C113 64.0998 110.6 61.1998 107.6 61.1998ZM106.2 70.8998C104.3 70.8998 102.8 69.3998 102.8 67.4998C102.8 65.5998 104.3 64.0998 106.2 64.0998C108.1 64.0998 109.6 65.5998 109.6 67.4998C109.6 69.3998 108.1 70.8998 106.2 70.8998ZM85.7002 57.5998H82.5002V61.5998H81.2002V64.2998H82.5002V73.2998H85.7002V64.2998H88.1002V61.5998H85.7002V57.5998ZM93.2002 65.4998C92.3002 65.4998 91.9002 61.9998 96.0002 64.3998L97.6002 62.4998C97.6002 62.4998 93.7002 59.6998 90.4002 62.4998C88.0002 65.9998 91.5002 67.6998 91.5002 67.6998L93.6002 68.5998C93.6002 68.5998 96.5002 69.8998 93.6002 71.3998C91.2002 71.4998 90.4002 69.7998 90.4002 69.7998L88.8002 71.7998C88.8002 71.7998 93.1002 76.1998 97.7002 71.7998C100.1 66.0998 94.6002 66.0998 93.2002 65.4998ZM123.8 61.5998L120.4 68.2998L116.8 61.5998H113L118.5 71.7998L114.2 79.7998H118L127.5 61.5998H123.8Z" fill="#64328B"/>
</svg>
