<svg width="128" height="128" viewBox="0 0 128 128" fill="none" xmlns="http://www.w3.org/2000/svg">
<path d="M64 0C28.7 0 0 28.7 0 64C0 99.3 28.7 128 64 128C99.3 128 128 99.3 128 64C128 28.7 99.3 0 64 0ZM13.2 64L64 114.8C35.9 114.8 13.2 92.1 13.2 64ZM75.4 113.5L14.5 52.5C19.7 30 39.9 13.2 64 13.2C80.6 13.2 95.3 21.1 104.5 33.4L97 40.6C89.7 30.2 77.7 23.5 64 23.5C46.4 23.5 31.5 34.7 25.9 50.3C33.1 57 75.4 98.8 78.1 102C90.8 97.3 100.4 86.5 103.5 73.1H81.9V63.7L114.9 63.9C114.8 88.2 98 108.4 75.4 113.5Z" fill="#64328B"/>
</svg>
