<svg width="128" height="128" viewBox="0 0 128 128" fill="none" xmlns="http://www.w3.org/2000/svg">
<path fill-rule="evenodd" clip-rule="evenodd" d="M81.6022 11.6019L76.8912 18.8089C84.3362 27.4489 91.7812 36.0889 99.2272 44.7339C100.277 40.4449 101.043 45.1209 101.898 46.9379C104.195 52.1249 104.551 57.9059 105.266 63.4579C106.621 73.9649 106.176 80.1129 105.211 85.8479C102.09 104.426 91.0082 115.27 80.4302 121.512C76.8092 123.648 73.3242 125.141 68.2152 125.84C62.9492 126.559 57.7892 126.273 52.5042 125.242C48.1412 124.395 43.7542 122.961 39.7232 121.113C33.2972 118.168 27.9932 113.07 23.8402 107.477C19.8242 102.07 17.2902 95.6129 15.3632 89.1449C11.8632 77.3789 10.3872 64.8479 13.1762 52.7419C14.9182 45.1989 17.4262 37.7269 20.8592 30.8359C24.5002 23.5269 29.6172 16.9059 35.8132 11.4139C39.5352 8.11689 43.5782 5.07789 48.1332 3.24589C51.4732 1.89789 55.0082 1.59789 58.6602 1.83589C62.2702 2.07389 65.7152 2.47989 69.1522 3.70289C73.8322 5.36689 78.2382 7.96889 81.6022 11.6019Z" fill="#FFCFAB" stroke="black" stroke-width="1.005"/>
<path fill-rule="evenodd" clip-rule="evenodd" d="M46.95 42.938L44.355 36.355L47.148 34.961L52.73 34.164L63.102 21.398L68.882 22.195L72.672 20.203L75.465 19.605L71.078 29.175L62.504 30.175L46.95 42.938Z" fill="#F39105" stroke="black" stroke-width="0.242"/>
<path fill-rule="evenodd" clip-rule="evenodd" d="M84.238 16.2148L88.828 21.9958L90.023 23.9918L81.25 20.9998L82.246 18.2068L84.238 16.2148Z" fill="#FFCFAB" stroke="black" stroke-width="0.242"/>
<path fill-rule="evenodd" clip-rule="evenodd" d="M80.8518 20.6021L85.2378 22.9961L89.8238 24.3911L83.6408 27.7811L79.0548 27.3831L78.6558 24.1911L80.8518 20.6021Z" fill="#F39A05" stroke="black" stroke-width="0.242"/>
<path fill-rule="evenodd" clip-rule="evenodd" d="M47.1479 43.3362L50.3359 48.5202L47.1479 56.7002L54.727 58.0942L56.32 59.6882L61.1049 67.0662L76.262 59.0902L80.773 60.3362L85.637 58.8912L82.247 55.3012L82.844 54.3052L84.441 53.3092L85.2379 55.8992L86.633 59.0892L90.4219 63.6762L91.4179 63.0782L91.6179 60.0902L95.1409 59.4692L96.383 58.5042L99.496 58.1252L100.293 54.2032L98 44.7302V40.7422L101.59 40.1452L104.781 42.5392L109.367 43.7342L111.164 43.3362L105.777 36.5552L102.469 33.1682L100.594 31.9682L97.0039 29.5742L89.625 29.9732L83.8399 31.3712L78.856 33.7662L75.8629 33.3632L72.0739 31.5702L70.8789 29.7732L63.102 29.5742L47.1479 43.3362Z" fill="#AB9A7E" stroke="black" stroke-width="0.242"/>
<path fill-rule="evenodd" clip-rule="evenodd" d="M84.4411 53.1098L85.4381 55.6998L84.8401 57.2968L81.8481 55.4998L82.6451 54.1048L84.4411 53.1098ZM89.0271 42.3398L92.2191 39.5468L94.0121 39.3468L94.6091 40.3438L91.8201 43.3358L90.2231 43.9338L89.0271 42.3398ZM94.7971 28.5078L85.0391 30.9728L78.6561 33.5628L73.0741 31.9688L71.0781 29.5738L76.2621 17.8088L81.1221 11.7928L84.3051 10.5308L87.8281 11.2268L91.4841 16.5898L95.3131 19.1518L94.8711 19.9298L89.2271 18.0078L84.2381 15.8158L79.4531 23.1958L78.4571 25.7858L79.2541 28.1798L92.2191 25.9838L93.6021 27.1368L94.7971 28.5078ZM98.5981 29.9728L100.883 32.8978L102.324 32.9408L107.656 38.8668L108.981 40.4768L111.363 38.9488L114.153 32.7658L115.703 27.8518L115.914 23.7338L114.637 22.1948H110.164L106.774 22.9958C106.774 22.9958 103.984 24.3908 104.781 24.3908C105.578 24.3908 109.367 25.5858 109.367 25.5858L110.965 26.7858L111.363 28.5778L109.168 32.9648L108.172 33.9648L103.586 30.9728L102.188 29.9728L100.793 29.7728L98.5981 29.9728Z" fill="white" stroke="black" stroke-width="0.242"/>
<path fill-rule="evenodd" clip-rule="evenodd" d="M96.7342 53.29C96.6762 52.832 93.5982 53.29 93.5982 53.29C93.5982 53.29 93.0632 55.125 93.8442 55.125C94.6292 55.125 96.7972 53.75 96.7342 53.289V53.29Z" fill="white" stroke="#9E0000" stroke-width="0.242"/>
<path d="M100.797 42.2771C101.247 41.5591 102.34 41.6481 104.129 42.7571C105.586 43.6171 107.504 43.7931 109.562 43.9371C112.93 44.1681 112.664 43.6641 111.082 42.0741L109.176 40.3641C109.176 40.3641 109.875 40.7701 111.039 39.6951C112.598 38.2541 115.582 31.6331 116.113 26.8671C116.711 22.0311 115.914 21.3051 110.75 21.8981C108.633 22.1641 106.078 22.7891 105.02 23.4491C105.02 23.4491 103.508 24.2071 103.738 24.6371C103.973 25.0671 105.984 25.2771 105.984 25.2771C109.758 25.8711 110.789 27.1211 110.789 28.5121C110.789 29.9691 108.829 33.5551 107.902 33.5551C107.57 33.5551 106.379 32.6251 105.254 31.5661C103.004 29.3831 101.793 29.0981 99.614 29.7421C98.391 29.4061 96.614 29.2301 95.18 28.4061C94.828 28.2071 95.055 27.9221 94.355 27.0461C93.102 25.4691 92.145 25.6091 90.82 25.9381C89.164 26.3361 89.098 26.3361 90.355 25.4101C91.613 24.4841 91.547 24.3521 88.77 20.7071L85.988 16.9341L89.297 18.5901C92.676 20.3131 95.586 20.7731 96.25 19.7151C96.516 19.3831 95.586 18.5231 94.195 17.8631C92.871 17.1991 91.285 15.6761 90.688 14.5511C90.028 13.3591 89.164 11.9691 88.77 11.4371C87.773 10.3131 84.309 9.70709 82.445 10.4101C80.547 11.1291 79.371 13.0621 77.848 15.0591C76.558 16.7421 75.844 18.0161 75.242 19.0391C74.004 18.7461 71.882 19.6491 71.023 20.4451C69.566 21.7701 69.234 21.8351 66.387 21.1051C63.543 20.3121 63.211 20.3791 61.687 21.7701C60.828 22.6291 58.441 25.6101 56.391 28.3901C54.402 31.2341 52.551 33.5551 52.351 33.6211C52.152 33.6211 50.761 33.7541 49.305 33.8831C47.848 34.0161 45.863 34.4141 44.871 34.8131C43.281 35.4061 43.148 35.6721 43.613 37.3951C43.941 38.3871 45.398 41.4341 46.922 44.0821L49.637 48.8481L47.98 52.8201C47.055 55.0081 46.457 57.0591 46.656 57.3241C46.856 57.6561 48.777 58.1171 50.961 58.3831L54.934 58.8481L57.98 63.4141C60.828 67.7191 61.336 67.9611 62.348 67.4541C62.691 67.2851 64.336 66.1291 66.52 65.0701C68.707 63.9451 71.684 62.2901 73.14 61.2971C75.203 59.9371 77.29 59.4731 78.395 59.8951C79.066 60.1481 79.375 60.7271 79.102 61.6291C78.523 63.4841 78.551 64.6411 78.809 65.8481C79.262 66.3281 79.844 66.5511 80.691 67.1211C83.613 68.9181 84.731 69.0431 84.797 67.1211V65.6681L85.523 67.1881C86.582 69.3751 88.305 68.7781 88.57 66.0621C88.77 64.4721 88.371 63.4141 87.313 62.2891C86.516 61.4291 86.102 60.3011 86.433 60.3011C87.098 60.3011 89.363 63.3481 89.363 64.1451C89.363 64.4061 89.762 64.6721 90.289 64.6721C91.285 64.6721 92.012 63.2821 92.012 61.3631C92.012 60.6291 93.988 60.2191 95.832 59.5661C96.324 59.3911 96.32 59.1451 96.789 58.8201C97.679 59.0081 97.387 59.0201 98.051 58.9731C99.039 58.9031 99.481 58.6251 99.758 58.1831C101.148 55.9331 101.348 53.0861 100.289 50.5701C99.758 49.2461 99.297 46.4961 99.363 45.3051C99.363 45.3051 99.426 44.5201 99.715 43.7381M92.012 52.4881C92.012 51.1641 91.746 51.1641 89.363 52.4261C88.238 53.0201 87.379 53.9461 87.379 54.5431C87.379 56.0661 89.297 58.0511 90.754 58.0511C91.418 58.0511 94.602 58.6481 95.473 58.6561C95.453 58.9101 95.086 59.1331 94.843 59.2071C93.84 59.5271 92.203 59.3521 91.613 59.2421C90.555 59.1091 90.422 59.4421 90.488 61.3631C90.621 62.6211 90.488 63.2151 90.223 62.6881C90.027 62.1561 89.098 60.9651 88.105 60.0391C87.047 59.0471 86.316 57.4571 86.187 56.0661C85.855 52.9531 84.531 50.5701 81.883 48.3201C79.102 46.0001 78.043 44.1481 78.57 42.2931C78.836 41.2341 79.434 40.8361 80.691 40.8361C82.941 40.7701 87.18 38.8521 89.895 36.5981C93.469 33.4881 92.277 33.3551 88.039 36.3361C84.531 38.7861 83.539 39.1801 79.566 39.3791L75.129 39.7111L77.312 37.4611C78.438 36.2701 79.434 35.0781 79.434 34.8131C79.434 33.4221 85.524 30.8401 90.094 30.3091C96.582 29.5821 96.91 29.6491 97.309 31.8321C97.773 34.3481 99.23 34.9451 98.832 32.4301C98.566 30.6401 98.566 30.6401 99.559 31.8321C100.156 32.5591 100.621 33.8821 100.621 34.8121C100.621 35.7381 100.821 37.1951 101.016 37.9881C101.348 39.1181 101.016 39.4451 99.296 39.8441L97.109 40.3091L97.574 44.2151C97.774 46.3321 98.434 49.1801 98.964 50.5701C99.957 52.8871 99.758 56.9921 98.633 57.7231C98.367 57.9181 96.715 57.8521 95.059 57.6561C92.344 57.2581 92.012 57.0591 92.012 55.4691M87.047 11.4371C87.641 11.7031 88.703 13.0271 89.363 14.4181C90.093 15.8081 91.352 17.3981 92.145 17.9261C92.957 18.5041 95.063 19.3281 94.941 19.4411C94.687 19.6801 90.859 18.4811 88.437 17.1331C86.582 16.0741 84.664 15.3431 84.199 15.5431C83.668 15.6761 82.149 17.5981 80.691 19.8481C77.777 24.3521 77.246 27.8591 79.367 28.5861C80.625 28.9841 89.957 26.7771 91.484 26.5361C92.586 26.3591 94 27.4611 94 28.2581C94 28.5231 92.012 28.9181 89.629 29.1181C86.781 29.3831 84.199 30.1091 82.277 31.2341C78.836 33.1561 76.852 33.2891 74.137 31.8981C71.422 30.5081 71.555 29.0511 75.461 21.2381C79.761 12.4341 82.809 9.85209 87.047 11.4381V11.4371ZM86.715 19.4491C89.562 23.7541 89.562 23.5551 87.575 23.0271C84.665 22.1641 82.379 20.8171 81.832 20.4531C82.305 19.4101 83.472 17.0001 84.266 17.0001C84.73 17.0001 85.789 18.1251 86.715 19.4501V19.4491ZM74.137 20.5741C74.137 20.7071 73.407 22.4301 72.48 24.4841C70.957 27.7271 70.559 28.1251 68.309 28.5241C66.984 28.7191 64.996 28.9181 63.871 28.9181C62.285 28.9181 60.761 29.9771 56.59 34.0821C53.676 36.9301 50.363 39.9101 49.238 40.7031L47.188 42.0931L45.996 39.4451C44.539 36.2031 44.937 35.6721 49.504 35.2731C53.277 34.9451 53.676 34.6801 56.723 30.2431C57.848 28.5861 59.898 25.9381 61.355 24.3521C63.609 21.7701 64.07 21.5041 65.328 22.2301C67.449 23.3551 69.832 23.0941 71.555 21.6371C73.008 20.4451 74.137 19.9801 74.137 20.5741ZM85.988 23.8201L88.898 24.7461L86.648 25.8711C85.457 26.4691 83.406 27.1331 82.082 27.3281C79.102 27.7931 78.504 26.8681 79.828 23.7541C80.375 22.3671 80.742 22.0511 81.051 21.5471C81.395 21.6761 84.398 23.2891 85.988 23.8201ZM115.48 25.2341C115.613 27.5511 114.656 30.5741 113.332 33.8201C111.282 38.9841 109.238 40.9921 108.043 38.8711C107.355 37.6681 105.758 35.2541 103.09 33.0661C102.887 32.8981 102.629 32.6331 102.059 32.5041C101.223 32.3091 100.992 32.6371 100.777 32.4731C99.657 30.9771 99.691 30.3091 101.148 30.2431C101.945 30.2431 103.137 30.8401 103.797 31.6331C104.395 32.3631 105.719 33.4221 106.645 33.8831C108.235 34.7461 108.5 34.6801 109.891 33.2231C110.949 32.0981 111.551 30.4931 111.656 28.4651C111.758 26.4691 111.016 25.3441 107.636 24.6131C106.645 24.4181 104.684 24.4411 104.949 24.2431C105.543 23.6481 111.281 22.4301 113.199 22.4961C114.723 22.6291 115.418 22.4691 115.48 25.2341ZM73.871 33.1561C75.129 33.7541 76.586 34.2151 77.113 34.2151C78.836 34.2151 76.785 36.6651 74.003 37.9221C72.613 38.5201 71.488 39.2461 71.488 39.5121C71.488 39.7771 72.813 40.2421 74.465 40.5041C77.113 40.8361 77.445 41.1021 77.113 42.2271C76.453 44.3471 77.91 46.9971 81.153 49.7771C83.734 51.8951 84.066 52.4261 83.273 53.1521C82.609 53.8121 81.617 53.9451 79.433 53.5511L76.453 53.0201L76.653 49.5781C76.852 45.8011 75.855 44.8751 75.195 48.1881C74.203 53.2181 74.797 54.1451 79.5 55.0081C80.824 55.2031 82.543 56.1331 83.34 56.9921L84.797 58.5821L82.875 59.2421C81.75 59.6411 80.625 59.7071 80.359 59.3751C78.969 58.1841 75.656 58.1841 73.805 59.3751L71.883 60.6331L69.234 58.5161C65.527 55.6681 65.063 54.9411 63.804 50.9691C62.879 47.7891 61.887 46.2661 61.223 46.9291C61.09 47.0621 61.555 48.9801 62.348 51.2971C63.609 55.2031 65.395 57.5901 69.168 60.3051C69.898 60.8321 70.359 61.3631 70.164 61.5631C69.699 61.9571 61.687 65.9961 61.289 65.9961C61.089 65.9961 59.699 64.0781 58.179 61.6961C55.793 57.9841 55.133 57.3911 53.344 57.3241C52.219 57.2581 50.496 57.0591 49.504 56.7931L47.781 56.3981L49.371 52.5551L51.027 48.7151L49.57 46.3981C48.71 44.9411 48.379 43.6841 48.645 42.9571C49.105 41.9611 49.238 42.0271 49.57 43.3521C50.102 45.4061 51.16 45.2731 51.293 43.1521C51.293 42.2271 52.219 40.6371 53.211 39.6451C54.273 38.6521 54.934 38.1871 54.668 38.6521C54.207 39.5781 54.868 41.5001 55.66 41.5001C55.992 41.5001 56.258 40.5041 56.258 39.3121C56.258 37.7931 56.984 36.4021 58.906 34.2151C61.156 31.6331 61.488 31.4341 61.555 32.6911C61.555 33.5551 61.953 34.2151 62.415 34.2151C63.012 34.2151 63.211 33.6211 63.012 32.2971L62.746 30.3091L66.586 30.1091C69.633 29.9771 70.625 30.1761 71.023 30.9731C71.355 31.5661 72.613 32.5591 73.871 33.1561ZM92.625 53.8911C92.575 54.2341 92.703 54.6841 92.848 54.9491C93.528 56.1791 95.488 55.7661 97.043 54.0121C97.973 53.0201 97.973 52.7541 97.176 52.4261C96.246 52.0161 93.476 52.3911 93.039 52.8401C92.773 53.1101 92.676 53.5471 92.625 53.8901V53.8911ZM105.585 36.7971C106.313 37.7271 107.57 39.5121 108.434 40.7031C108.434 40.7031 108.988 41.3951 109.633 42.0231C110.273 42.6531 111.003 43.2231 111.003 43.2231C111.003 43.2231 109.937 43.2731 107.637 42.6251C102.355 41.1371 102.012 40.3751 102.407 38.7851C102.738 37.5271 102.871 37.5271 104.594 39.1801C105.52 40.1101 106.578 40.6371 106.777 40.3751C107.504 39.7111 103.93 36.2701 102.871 36.6651C101.945 36.9961 101.113 34.5201 101.344 33.3871C101.406 33.0821 101.714 33.0701 102.125 33.2501C102.945 33.6021 104.09 34.9301 105.585 36.7971ZM99.759 41.3001C99.6241 41.3971 99.4621 41.4493 99.296 41.4493C99.1298 41.4493 98.9679 41.3971 98.833 41.3001C98.633 41.0341 98.833 40.8351 99.298 40.8351C99.758 40.8351 99.958 41.0351 99.758 41.3001H99.759ZM90.689 55.0731C90.689 56.7921 89.763 57.2571 89.032 56.0651C88.438 55.1351 89.099 53.4171 90.028 53.4171C90.356 53.4171 90.688 54.1441 90.688 55.0731H90.689ZM96.196 53.5381C96.196 53.9051 94.095 55.1551 93.817 54.3781C93.532 53.5781 94.118 53.3781 94.841 53.3121C95.603 53.2421 96.196 53.1751 96.196 53.5381ZM84.73 55.0741C84.73 55.6021 84.465 56.0661 84.133 56.0661C83.273 56.0661 82.676 55.0081 83.207 54.4761C83.934 53.7501 84.73 54.0781 84.73 55.0741Z" fill="black"/>
<path d="M94.1329 37.9881C95.1249 38.9841 96.1829 39.5781 96.3829 39.3131C97.0429 38.6531 94.6598 36.2031 93.4028 36.2031C92.6758 36.2031 92.8709 36.6641 94.1329 37.9881ZM89.8279 40.5041C88.3709 41.8941 88.1719 42.4921 88.7029 43.4841C89.0979 44.2141 89.8948 44.8091 90.4218 44.8091C91.8118 44.8091 95.5199 41.0351 95.1919 39.9771C94.6599 38.4531 91.7459 38.7191 89.8279 40.5041ZM93.9998 40.1761C93.9998 40.5041 93.5348 40.8361 93.0038 40.8361C92.4768 40.8361 91.7458 41.4341 91.3518 42.1601C90.9528 42.8901 90.2888 43.2851 89.8948 43.0901C89.4298 42.7581 89.7619 42.0271 90.9529 41.0351C92.8709 39.4451 93.9998 39.1171 93.9998 40.1751V40.1761Z" fill="black"/>
<path fill-rule="evenodd" clip-rule="evenodd" d="M84.5818 53.2622C84.5818 53.2622 84.1408 53.7342 83.6318 54.0902C83.1288 54.4452 82.4878 54.6842 82.4878 54.6842C82.4878 54.6842 84.8708 57.7662 85.2178 57.3672C85.5698 56.9692 85.3158 56.2812 85.1678 55.3832C85.0158 54.4772 84.5818 53.2622 84.5818 53.2622Z" fill="#FFCFAB" stroke="black" stroke-width="0.082"/>
<path d="M37.3711 101.73C34.1991 101.73 31.7231 100.945 29.9371 99.379C28.1571 97.812 27.2661 95.589 27.2661 92.703C27.2661 90.582 27.5941 88.621 28.2461 86.816C28.9021 85.016 29.8521 83.441 31.0981 82.102C32.3361 80.773 33.8521 79.734 35.6481 78.98C37.4451 78.23 39.4681 77.855 41.7151 77.855C43.0621 77.855 44.4101 78.015 45.7541 78.34C47.0981 78.664 48.4731 79.191 49.8751 79.926L49.1801 83.418H48.8981C47.7581 82.344 46.5121 81.57 45.1681 81.09C43.8241 80.613 42.3781 80.371 40.8321 80.371C39.1321 80.371 37.6451 80.707 36.3671 81.379C35.1118 82.0284 34.0103 82.9396 33.1371 84.051C32.2811 85.141 31.6371 86.414 31.1991 87.867C30.766 89.2901 30.545 90.7694 30.5431 92.257C30.5431 94.473 31.1481 96.18 32.3551 97.387C33.5661 98.594 35.3591 99.195 37.7271 99.195C38.7661 99.195 39.7421 99.098 40.6571 98.91C41.5671 98.719 42.4261 98.473 43.2271 98.176L44.5271 92.286H38.3911L38.9811 89.707H48.1871L45.9021 99.582L44.0621 100.332C43.5161 100.551 42.8321 100.782 42.0081 101.02C41.2971 101.223 40.5621 101.395 39.8051 101.527C39.0471 101.66 38.2381 101.73 37.3711 101.73ZM61.1521 101.7C58.2381 101.7 55.9491 100.945 54.2931 99.434C52.6331 97.926 51.8051 95.785 51.8051 93.016C51.8051 90.891 52.1211 88.914 52.7621 87.078C53.3981 85.246 54.3161 83.641 55.5121 82.258C56.6951 80.898 58.1561 79.824 59.8871 79.035C61.6171 78.25 63.5471 77.855 65.6801 77.855C67.0081 77.855 68.2661 78.015 69.4501 78.34C70.6371 78.664 71.8521 79.18 73.0981 79.879L72.4021 83.339H72.1721C71.8425 83.0095 71.4999 82.6932 71.1451 82.391C70.7971 82.098 70.2811 81.773 69.5901 81.426C69.0231 81.125 68.3481 80.875 67.5661 80.676C66.7811 80.473 65.9181 80.375 64.9691 80.375C63.5271 80.375 62.2031 80.675 61.0001 81.277C59.7851 81.886 58.7145 82.748 57.8601 83.805C56.9961 84.855 56.3161 86.133 55.8201 87.637C55.3193 89.1888 55.0688 90.8104 55.0781 92.441C55.0781 94.562 55.6281 96.215 56.7341 97.395C57.8361 98.575 59.4261 99.165 61.5081 99.165C62.4881 99.165 63.4181 99.055 64.2971 98.832C65.1232 98.6292 65.9277 98.3465 66.6991 97.988C67.325 97.6962 67.9295 97.3608 68.5081 96.984C69.0431 96.637 69.5041 96.313 69.8831 96.012H70.1021L69.3751 99.566C68.2931 100.113 67.0471 100.606 65.6411 101.043C64.2341 101.48 62.7381 101.699 61.1521 101.699V101.7ZM83.2811 101.7C80.3671 101.7 78.0781 100.945 76.4211 99.434C74.7611 97.926 73.9341 95.785 73.9341 93.016C73.9341 90.891 74.2541 88.914 74.8911 87.078C75.5311 85.246 76.4451 83.641 77.6411 82.258C78.8281 80.898 80.2851 79.824 82.0161 79.035C83.7461 78.25 85.6761 77.855 87.8091 77.855C89.1371 77.855 90.3951 78.015 91.5821 78.34C92.7661 78.664 93.9801 79.18 95.2271 79.879L94.5311 83.339H94.3011C93.9712 83.0095 93.6282 82.6932 93.2731 82.391C92.9261 82.098 92.4101 81.773 91.7191 81.426C91.1521 81.125 90.4771 80.875 89.6951 80.676C88.9151 80.473 88.0471 80.375 87.0981 80.375C85.6561 80.375 84.3321 80.675 83.1281 81.277C81.9136 81.8851 80.8441 82.7472 79.9921 83.805C79.1251 84.855 78.4451 86.133 77.9491 87.637C77.4571 89.141 77.2111 90.742 77.2111 92.441C77.2111 94.562 77.7611 96.215 78.8631 97.395C79.9651 98.575 81.5551 99.165 83.6371 99.165C84.6171 99.165 85.5471 99.055 86.4261 98.832C87.2523 98.6292 88.0567 98.3465 88.8281 97.988C89.454 97.6962 90.0585 97.3608 90.6371 96.984C91.1103 96.6815 91.5691 96.3571 92.0121 96.012H92.2301L91.5041 99.566C90.4221 100.113 89.1761 100.606 87.7701 101.043C86.3631 101.48 84.8671 101.699 83.2811 101.699V101.7Z" fill="black"/>
<path fill-rule="evenodd" clip-rule="evenodd" d="M91.008 53.0432C90.797 52.1022 88.238 53.8552 88.203 54.8752C88.168 55.8982 90.688 57.8872 90.883 56.9922C91.078 56.1022 91.219 53.9801 91.008 53.0432Z" fill="white" stroke="black" stroke-width="0.242"/>
</svg>
