<svg width="128" height="128" viewBox="0 0 128 128" fill="none" xmlns="http://www.w3.org/2000/svg">
<path d="M81.6022 11.6021C78.2392 7.96914 73.8322 5.36714 69.1522 3.70314C65.7152 2.48014 62.2692 2.07314 58.6602 1.83514C57.7562 1.77514 56.8502 1.75214 55.9442 1.76714C53.2522 1.81414 50.6382 2.23514 48.1342 3.24714C43.5792 5.07814 39.5352 8.11714 35.8122 11.4141C29.6172 16.9061 24.5002 23.5281 20.8602 30.8361C17.4272 37.7271 14.9202 45.1991 13.1772 52.7421C10.3882 64.8471 11.8642 77.3791 15.3642 89.1451C17.2902 95.6131 19.8262 102.071 23.8412 107.477C27.9942 113.071 33.2972 118.167 39.7232 121.113C43.7542 122.961 48.1432 124.395 52.5052 125.243C57.7912 126.273 62.9502 126.559 68.2152 125.84C73.3252 125.141 76.8102 123.648 80.4312 121.512C91.0092 115.27 102.091 104.425 105.211 85.8471C106.177 80.1131 106.621 73.9651 105.266 63.4571C104.551 57.9071 102.866 48.3951 100.568 43.2071L100.041 42.6641C99.8022 42.7651 99.5562 43.3941 99.2282 44.7341C98.8182 44.2601 98.4102 43.7841 98.0012 43.3101V44.7301L100.294 54.2041L99.4982 58.1251L96.3832 58.5051L95.1412 59.4681L91.6182 60.0891L91.4192 63.0781L90.4232 63.6751L86.6332 59.0901L85.2392 55.8981L84.4422 53.3081L82.6452 54.1051L81.8482 55.5001L85.6382 58.8911L80.7742 60.3351L76.2622 59.0901L61.1072 67.0661L56.3212 59.6881L54.7282 58.0941L47.1502 56.7001L50.3372 48.5201L47.1502 43.3361L60.4572 31.8561L46.9502 42.9371L44.3552 36.3561L47.1492 34.9611L52.7292 34.1651L63.1012 21.3981L68.8832 22.1951L72.6732 20.2031L75.4642 19.6051L71.0792 29.1751L66.8422 29.6691L70.8792 29.7731L72.0752 31.5701L75.8632 33.3631L78.8552 33.7661L83.8402 31.3711L86.7252 30.2221M84.3062 27.4161L83.4542 27.6211L81.5612 27.9631L79.6862 28.0681L79.0552 27.3821L78.4572 25.7861L78.9962 24.6831L79.8492 22.2421L79.9942 22.0051L80.8522 20.6021L85.2382 22.9971L89.1552 24.1871C89.0422 23.7301 89.6492 23.4151 89.5602 22.9481C89.5172 22.7241 89.3132 22.4301 89.1192 22.1521C88.9792 21.9521 88.8962 21.7341 88.8292 21.5831C88.5542 20.9741 90.7012 24.8601 90.3332 24.2741C88.5702 21.4641 86.0762 18.6151 84.2382 15.8161M90.0912 24.4321L89.4132 24.6171L84.9182 27.0811M89.6522 29.6251L92.3982 29.3351M89.1542 24.1871L89.4132 24.6171L89.8242 24.3911L89.1542 24.1871ZM98.9902 40.5761L98.1502 40.7161L100.04 42.6641C100.124 42.6281 100.207 42.6551 100.292 42.7471C99.8552 42.0231 95.8652 41.0971 98.9902 40.5771V40.5761ZM100.292 42.7471L100.567 43.2071C100.501 43.0401 100.408 42.8848 100.292 42.7471V42.7471ZM66.8422 29.6701L63.1022 29.5751L60.4562 31.8571L62.5032 30.1771L66.8422 29.6701Z" stroke="black" stroke-width="1.005"/>
<path d="M84.238 16.2148L88.828 21.9958L90.023 23.9918L81.25 20.9998L82.246 18.2068L84.238 16.2148Z" stroke="black" stroke-width="0.242"/>
<path d="M84.4421 53.3078L85.4381 55.6998L84.8401 57.2968L81.8481 55.4998L82.6451 54.1048L84.4421 53.3078ZM89.0271 42.3398L92.2191 39.5468L94.0121 39.3468L94.6091 40.3438L91.8201 43.3358L90.2231 43.9338L89.0271 42.3398ZM94.7971 28.5078L85.0391 30.9728L78.6561 33.5628L73.0741 31.9688L71.0781 29.5738L76.2621 17.8088L81.1221 11.7928L84.3051 10.5308L87.8281 11.2268L91.4841 16.5898L95.3131 19.1518L94.8711 19.9298L89.2271 18.0078L84.2381 15.8158L79.4531 23.1958L78.4571 25.7858L79.2541 28.1798L92.2191 25.9838L93.6021 27.1368L94.7971 28.5078ZM98.5981 29.9728L100.883 32.8978L102.324 32.9408L107.656 38.8668L108.981 40.4768L111.363 38.9488L114.153 32.7658L115.703 27.8518L115.914 23.7338L114.637 22.1948H110.164L106.774 22.9958C106.774 22.9958 103.984 24.3908 104.781 24.3908C105.578 24.3908 109.367 25.5858 109.367 25.5858L110.965 26.7858L111.363 28.5778L109.168 32.9648L108.172 33.9648L103.586 30.9728L102.188 29.9728L100.793 29.7728L98.5981 29.9728Z" stroke="black" stroke-width="0.242"/>
<path d="M96.7342 53.29C96.6762 52.832 93.5982 53.29 93.5982 53.29C93.5982 53.29 93.0632 55.125 93.8442 55.125C94.6292 55.125 96.7972 53.75 96.7342 53.289V53.29Z" stroke="#9C0000" stroke-width="0.242"/>
<path d="M100.797 42.2768C101.247 41.5588 102.34 41.6478 104.129 42.7568C105.586 43.6168 107.504 43.7928 109.562 43.9368C112.93 44.1678 112.664 43.6638 111.082 42.0738L109.176 40.3638C109.176 40.3638 109.875 40.7698 111.039 39.6948C112.598 38.2538 115.582 31.6328 116.113 26.8668C116.711 22.0308 115.914 21.3048 110.75 21.8978C108.633 22.1638 106.078 22.7888 105.02 23.4488C105.02 23.4488 103.508 24.2068 103.738 24.6368C103.973 25.0668 105.984 25.2768 105.984 25.2768C109.758 25.8708 110.789 27.1208 110.789 28.5118C110.789 29.9688 108.829 33.5548 107.902 33.5548C107.57 33.5548 106.379 32.6248 105.254 31.5658C103.004 29.3828 101.793 29.0978 99.614 29.7418C98.391 29.4058 96.614 29.2298 95.18 28.4058C94.828 28.2068 95.055 27.9218 94.355 27.0458C93.102 25.4688 92.145 25.6088 90.82 25.9378C88.107 26.4278 88.582 25.8228 90.382 24.8498C91.756 24.1068 91.547 24.3518 88.77 20.7068L85.988 16.9338L89.297 18.5898C92.676 20.3118 95.586 20.7728 96.25 19.7148C96.516 19.3828 95.586 18.5228 94.195 17.8628C92.871 17.1988 91.285 15.6758 90.688 14.5508C90.028 13.3588 89.164 11.9688 88.77 11.4378C87.773 10.3118 84.309 9.70676 82.445 10.4098C80.547 11.1288 79.371 13.0628 77.848 15.0588C76.558 16.7418 75.844 18.0158 75.242 19.0388C74.004 18.7458 71.882 19.6488 71.023 20.4448C69.566 21.7698 69.234 21.8348 66.387 21.1048C63.543 20.3128 63.211 20.3788 61.687 21.7698C60.828 22.6288 58.441 25.6098 56.391 28.3898C54.402 31.2338 52.551 33.5548 52.351 33.6208C52.152 33.6208 50.761 33.7538 49.305 33.8828C47.848 34.0158 45.863 34.4138 44.871 34.8128C43.281 35.4058 43.148 35.6718 43.613 37.3948C43.941 38.3868 45.398 41.4338 46.922 44.0818L49.637 48.8478L47.98 52.8198C47.055 55.0078 46.457 57.0588 46.656 57.3238C46.856 57.6558 48.777 58.1168 50.961 58.3828L54.934 58.8478L57.98 63.4138C60.828 67.7188 61.336 67.9608 62.348 67.4538C62.691 67.2848 64.336 66.1288 66.52 65.0698C68.707 63.9448 71.684 62.2898 73.14 61.2968C75.203 59.9368 77.29 59.4728 78.395 59.8948C79.066 60.1478 79.375 60.7268 79.102 61.6288C78.523 63.4838 78.551 64.6408 78.809 65.8478C79.262 66.3278 79.844 66.5508 80.691 67.1208C83.613 68.9178 84.731 69.0428 84.797 67.1208V65.6678L85.523 67.1878C86.582 69.3748 88.305 68.7778 88.57 66.0628C88.77 64.4728 88.371 63.4138 87.313 62.2888C86.516 61.4288 86.102 60.3008 86.433 60.3008C87.098 60.3008 89.363 63.3478 89.363 64.1448C89.363 64.4058 89.762 64.6718 90.289 64.6718C91.285 64.6718 92.012 63.2818 92.012 61.3628C92.012 60.6288 93.988 60.2188 95.832 59.5658C96.324 59.3908 96.32 59.1448 96.789 58.8198C97.679 59.0078 97.387 59.0198 98.051 58.9728C99.039 58.9028 99.481 58.6248 99.758 58.1828C101.148 55.9328 101.348 53.0858 100.289 50.5698C99.758 49.2458 99.297 46.4958 99.363 45.3048C99.363 45.3048 99.426 44.5198 99.715 43.7378M92.012 52.4878C92.012 51.1638 91.746 51.1638 89.363 52.4258C88.238 53.0198 87.379 53.9458 87.379 54.5428C87.379 56.0658 89.297 58.0508 90.754 58.0508C91.418 58.0508 94.602 58.6478 95.473 58.6558C95.453 58.9098 95.086 59.1328 94.843 59.2068C93.84 59.5268 92.203 59.3518 91.613 59.2418C90.555 59.1088 90.422 59.4418 90.488 61.3628C90.621 62.6208 90.488 63.2148 90.223 62.6878C90.027 62.1558 89.098 60.9648 88.105 60.0388C87.047 59.0468 86.316 57.4568 86.187 56.0658C85.855 52.9528 84.531 50.5698 81.883 48.3198C79.102 45.9998 78.043 44.1478 78.57 42.2928C78.836 41.2338 79.434 40.8358 80.691 40.8358C82.941 40.7698 87.18 38.8518 89.895 36.5978C93.469 33.4878 92.277 33.3548 88.039 36.3358C84.531 38.7858 83.539 39.1798 79.566 39.3788L75.129 39.7108L77.312 37.4608C78.438 36.2698 79.434 35.0778 79.434 34.8128C79.434 33.4218 85.524 30.8398 90.094 30.3088C96.582 29.5818 96.91 29.6488 97.309 31.8318C97.773 34.3478 99.23 34.9448 98.832 32.4298C98.566 30.6398 98.566 30.6398 99.559 31.8318C100.156 32.5588 100.621 33.8818 100.621 34.8118C100.621 35.7378 100.821 37.1948 101.016 37.9878C101.348 39.1178 101.016 39.4448 99.296 39.8438L97.109 40.3088L97.574 44.2148C97.774 46.3318 98.434 49.1798 98.964 50.5698C99.957 52.8868 99.758 56.9918 98.633 57.7228C98.367 57.9178 96.715 57.8518 95.059 57.6558C92.344 57.2578 92.012 57.0588 92.012 55.4688M87.047 11.4368C87.641 11.7028 88.703 13.0268 89.363 14.4178C90.093 15.8078 91.352 17.3978 92.145 17.9258C92.957 18.5038 95.063 19.3278 94.941 19.4408C94.687 19.6798 90.859 18.4808 88.437 17.1328C86.582 16.0738 84.664 15.3428 84.199 15.5428C83.668 15.6758 82.149 17.5978 80.691 19.8478C77.777 24.3518 77.246 27.8588 79.367 28.5858C80.625 28.9838 89.957 26.7768 91.484 26.5358C92.586 26.3588 94 27.4608 94 28.2578C94 28.5228 92.012 28.9178 89.629 29.1178C86.781 29.3828 84.199 30.1088 82.277 31.2338C78.836 33.1558 76.852 33.2888 74.137 31.8978C71.422 30.5078 71.555 29.0508 75.461 21.2378C79.761 12.4338 82.809 9.85176 87.047 11.4378V11.4368ZM86.715 19.4488C89.562 23.7538 89.562 23.5548 87.575 23.0268C84.665 22.1638 82.379 20.8168 81.832 20.4528C82.305 19.4098 83.472 16.9998 84.266 16.9998C84.73 16.9998 85.789 18.1248 86.715 19.4498V19.4488ZM74.137 20.5738C74.137 20.7068 73.407 22.4298 72.48 24.4838C70.957 27.7268 70.559 28.1248 68.309 28.5238C66.984 28.7188 64.996 28.9178 63.871 28.9178C62.285 28.9178 60.761 29.9768 56.59 34.0818C53.676 36.9298 50.363 39.9098 49.238 40.7028L47.188 42.0928L45.996 39.4448C44.539 36.2028 44.937 35.6718 49.504 35.2728C53.277 34.9448 53.676 34.6798 56.723 30.2428C57.848 28.5858 59.898 25.9378 61.355 24.3518C63.609 21.7698 64.07 21.5038 65.328 22.2298C67.449 23.3548 69.832 23.0938 71.555 21.6368C73.008 20.4448 74.137 19.9798 74.137 20.5738ZM85.988 23.8198L88.898 24.7458L86.648 25.8708C85.457 26.4688 83.406 27.1328 82.082 27.3278C79.102 27.7928 78.504 26.8678 79.828 23.7538C80.375 22.3668 80.742 22.0508 81.051 21.5468C81.395 21.6758 84.398 23.2888 85.988 23.8198ZM115.48 25.2338C115.613 27.5508 114.656 30.5738 113.332 33.8198C111.282 38.9838 109.238 40.9918 108.043 38.8708C107.355 37.6678 105.758 35.2538 103.09 33.0658C102.887 32.8978 102.629 32.6328 102.059 32.5038C101.223 32.3088 100.992 32.6368 100.777 32.4728C99.657 30.9768 99.691 30.3088 101.148 30.2428C101.945 30.2428 103.137 30.8398 103.797 31.6328C104.395 32.3628 105.719 33.4218 106.645 33.8828C108.235 34.7458 108.5 34.6798 109.891 33.2228C110.949 32.0978 111.551 30.4928 111.656 28.4648C111.758 26.4688 111.016 25.3438 107.636 24.6128C106.645 24.4178 104.684 24.4408 104.949 24.2428C105.543 23.6478 111.281 22.4298 113.199 22.4958C114.723 22.6288 115.418 22.4688 115.48 25.2338ZM73.871 33.1558C75.129 33.7538 76.586 34.2148 77.113 34.2148C78.836 34.2148 76.785 36.6648 74.003 37.9218C72.613 38.5198 71.488 39.2458 71.488 39.5118C71.488 39.7768 72.813 40.2418 74.465 40.5038C77.113 40.8358 77.445 41.1018 77.113 42.2268C76.453 44.3468 77.91 46.9968 81.153 49.7768C83.734 51.8948 84.066 52.4258 83.273 53.1518C82.609 53.8118 81.617 53.9448 79.433 53.5508L76.453 53.0198L76.653 49.5778C76.852 45.8008 75.855 44.8748 75.195 48.1878C74.203 53.2178 74.797 54.1448 79.5 55.0078C80.824 55.2028 82.543 56.1328 83.34 56.9918L84.797 58.5818L82.875 59.2418C81.75 59.6408 80.625 59.7068 80.359 59.3748C78.969 58.1838 75.656 58.1838 73.805 59.3748L71.883 60.6328L69.234 58.5158C65.527 55.6678 65.063 54.9408 63.804 50.9688C62.879 47.7888 61.887 46.2658 61.223 46.9288C61.09 47.0618 61.555 48.9798 62.348 51.2968C63.609 55.2028 65.395 57.5898 69.168 60.3048C69.898 60.8318 70.359 61.3628 70.164 61.5618C69.699 61.9568 61.688 65.9958 61.289 65.9958C61.089 65.9958 59.699 64.0778 58.179 61.6958C55.793 57.9838 55.133 57.3908 53.344 57.3238C52.219 57.2578 50.496 57.0588 49.504 56.7928L47.781 56.3978L49.371 52.5548L51.027 48.7148L49.57 46.3978C48.71 44.9408 48.379 43.6838 48.645 42.9568C49.105 41.9608 49.238 42.0268 49.57 43.3518C50.102 45.4058 51.16 45.2728 51.293 43.1518C51.293 42.2268 52.219 40.6368 53.211 39.6448C54.273 38.6518 54.934 38.1868 54.668 38.6518C54.207 39.5778 54.868 41.4998 55.66 41.4998C55.992 41.4998 56.258 40.5038 56.258 39.3118C56.258 37.7928 56.984 36.4018 58.906 34.2148C61.156 31.6328 61.488 31.4338 61.555 32.6908C61.555 33.5548 61.953 34.2148 62.415 34.2148C63.012 34.2148 63.211 33.6208 63.012 32.2968L62.746 30.3088L66.586 30.1088C69.633 29.9768 70.625 30.1758 71.023 30.9728C71.355 31.5658 72.613 32.5588 73.871 33.1558ZM92.625 53.8908C92.575 54.2338 92.703 54.6838 92.848 54.9488C93.528 56.1788 95.488 55.7658 97.043 54.0118C97.973 53.0198 97.973 52.7538 97.176 52.4258C96.246 52.0158 93.476 52.3908 93.039 52.8398C92.773 53.1098 92.676 53.5468 92.625 53.8898V53.8908ZM105.585 36.7968C106.312 37.7268 107.57 39.5118 108.434 40.7028C108.434 40.7028 108.988 41.3948 109.633 42.0228C110.273 42.6528 111.003 43.2228 111.003 43.2228C111.003 43.2228 109.937 43.2728 107.637 42.6248C102.355 41.1368 102.012 40.3748 102.407 38.7848C102.738 37.5268 102.871 37.5268 104.594 39.1798C105.52 40.1098 106.578 40.6368 106.777 40.3748C107.504 39.7108 103.93 36.2698 102.871 36.6648C101.945 36.9958 101.113 34.5198 101.344 33.3868C101.406 33.0818 101.714 33.0698 102.125 33.2498C102.945 33.6018 104.09 34.9298 105.585 36.7968ZM99.759 41.2998C99.6241 41.3968 99.4621 41.449 99.296 41.449C99.1298 41.449 98.9679 41.3968 98.833 41.2998C98.633 41.0338 98.833 40.8348 99.298 40.8348C99.758 40.8348 99.958 41.0348 99.758 41.2998H99.759ZM90.689 55.0728C90.689 56.7918 89.763 57.2568 89.032 56.0648C88.438 55.1348 89.099 53.4168 90.028 53.4168C90.356 53.4168 90.688 54.1438 90.688 55.0728H90.689ZM96.196 53.5378C96.196 53.9048 94.095 55.1548 93.817 54.3778C93.532 53.5778 94.118 53.3778 94.841 53.3118C95.603 53.2418 96.196 53.1748 96.196 53.5378ZM84.918 55.3128C85.155 56.2128 85.528 57.0628 84.134 56.0648C83.076 55.3088 82.517 54.8198 83.048 54.2888C83.774 53.5618 84.305 52.9798 84.918 55.3128Z" fill="black"/>
<path d="M94.1331 37.9881C95.1251 38.9841 96.1831 39.5781 96.3831 39.3131C97.0431 38.6531 94.6601 36.2031 93.4031 36.2031C92.6761 36.2031 92.8711 36.6641 94.1331 37.9881ZM89.8281 40.5041C88.3711 41.8941 88.1721 42.4921 88.7031 43.4841C89.0981 44.2141 89.8951 44.8091 90.4221 44.8091C91.8121 44.8091 95.5201 41.0351 95.1921 39.9771C94.6601 38.4531 91.7461 38.7191 89.8281 40.5041ZM94.0001 40.1761C94.0001 40.5041 93.5351 40.8361 93.0041 40.8361C92.4771 40.8361 91.7461 41.4341 91.3521 42.1601C90.9531 42.8901 90.2891 43.2851 89.8951 43.0901C89.4301 42.7581 89.7621 42.0271 90.9531 41.0351C92.8711 39.4451 94.0001 39.1171 94.0001 40.1751V40.1761ZM37.3711 101.73C34.1991 101.73 31.7231 100.945 29.9371 99.3791C28.1571 97.8121 27.2661 95.5891 27.2661 92.7031C27.2661 90.5821 27.5941 88.6211 28.2461 86.8161C28.9021 85.0161 29.8521 83.4411 31.0981 82.1021C32.3361 80.7731 33.8521 79.7341 35.6481 78.9801C37.4451 78.2301 39.4681 77.8551 41.7151 77.8551C43.0621 77.8551 44.4101 78.0151 45.7541 78.3401C47.0981 78.6641 48.4731 79.1911 49.8751 79.9261L49.1801 83.4181H48.8981C47.7581 82.3441 46.5121 81.5701 45.1681 81.0901C43.8241 80.6131 42.3781 80.3711 40.8321 80.3711C39.1321 80.3711 37.6451 80.7071 36.3671 81.3791C35.1118 82.0286 34.0103 82.9397 33.1371 84.0511C32.2811 85.1411 31.6371 86.4141 31.1991 87.8671C30.766 89.2903 30.545 90.7695 30.5431 92.2571C30.5431 94.4731 31.1481 96.1801 32.3551 97.3871C33.5661 98.5941 35.3591 99.1951 37.7271 99.1951C38.7661 99.1951 39.7421 99.0981 40.6571 98.9101C41.5671 98.7191 42.4261 98.4731 43.2271 98.1761L44.5271 92.2861H38.3911L38.9811 89.7071H48.1871L45.9021 99.5821L44.0621 100.332C43.5161 100.551 42.8321 100.782 42.0081 101.02C41.2971 101.223 40.5621 101.395 39.8051 101.527C39.0471 101.66 38.2381 101.73 37.3711 101.73ZM61.1521 101.7C58.2381 101.7 55.9491 100.945 54.2931 99.4341C52.6331 97.9261 51.8051 95.7851 51.8051 93.0161C51.8051 90.8911 52.1211 88.9141 52.7621 87.0781C53.3981 85.2461 54.3161 83.6411 55.5121 82.2581C56.6951 80.8981 58.1561 79.8241 59.8871 79.0351C61.6171 78.2501 63.5471 77.8551 65.6801 77.8551C67.0081 77.8551 68.2661 78.0151 69.4501 78.3401C70.6371 78.6641 71.8521 79.1801 73.0981 79.8791L72.4021 83.3391H72.1721C71.8425 83.0096 71.4999 82.6934 71.1451 82.3911C70.7971 82.0981 70.2811 81.7731 69.5901 81.4261C69.0231 81.1251 68.3481 80.8751 67.5661 80.6761C66.7811 80.4731 65.9181 80.3751 64.9691 80.3751C63.5271 80.3751 62.2031 80.6751 61.0001 81.2771C59.7851 81.8861 58.7145 82.7481 57.8601 83.8051C56.9961 84.8551 56.3161 86.1331 55.8201 87.6371C55.3193 89.1889 55.0688 90.8106 55.0781 92.4411C55.0781 94.5621 55.6281 96.2151 56.7341 97.3951C57.8361 98.5751 59.4261 99.1651 61.5081 99.1651C62.4881 99.1651 63.4181 99.0551 64.2971 98.8321C65.1232 98.6293 65.9277 98.3467 66.6991 97.9881C67.325 97.6964 67.9295 97.3609 68.5081 96.9841C69.0431 96.6371 69.5041 96.3131 69.8831 96.0121H70.1021L69.3751 99.5661C68.2931 100.113 67.0471 100.606 65.6411 101.043C64.2341 101.48 62.7381 101.699 61.1521 101.699V101.7ZM83.2811 101.7C80.3671 101.7 78.0781 100.945 76.4211 99.4341C74.7611 97.9261 73.9341 95.7851 73.9341 93.0161C73.9341 90.8911 74.2541 88.9141 74.8911 87.0781C75.5311 85.2461 76.4451 83.6411 77.6411 82.2581C78.8281 80.8981 80.2851 79.8241 82.0161 79.0351C83.7461 78.2501 85.6761 77.8551 87.8091 77.8551C89.1371 77.8551 90.3951 78.0151 91.5821 78.3401C92.7661 78.6641 93.9801 79.1801 95.2271 79.8791L94.5311 83.3391H94.3011C93.9712 83.0096 93.6282 82.6934 93.2731 82.3911C92.9261 82.0981 92.4101 81.7731 91.7191 81.4261C91.1521 81.1251 90.4771 80.8751 89.6951 80.6761C88.9151 80.4731 88.0471 80.3751 87.0981 80.3751C85.6561 80.3751 84.3321 80.6751 83.1281 81.2771C81.9136 81.8852 80.8441 82.7474 79.9921 83.8051C79.1251 84.8551 78.4451 86.1331 77.9491 87.6371C77.4571 89.1411 77.2111 90.7421 77.2111 92.4411C77.2111 94.5621 77.7611 96.2151 78.8631 97.3951C79.9651 98.5751 81.5551 99.1651 83.6371 99.1651C84.6171 99.1651 85.5471 99.0551 86.4261 98.8321C87.2523 98.6293 88.0567 98.3467 88.8281 97.9881C89.454 97.6964 90.0585 97.3609 90.6371 96.9841C91.1103 96.6816 91.5691 96.3573 92.0121 96.0121H92.2301L91.5041 99.5661C90.4221 100.113 89.1761 100.606 87.7701 101.043C86.3631 101.48 84.8671 101.699 83.2811 101.699V101.7Z" fill="black"/>
<path d="M91.4882 52.9902C91.2782 52.0482 87.7052 53.6952 87.6692 54.7152C87.6342 55.7382 91.0082 58.3142 91.2032 57.4192C91.3982 56.5292 91.6992 53.9272 91.4882 52.9892V52.9902Z" stroke="black" stroke-width="0.242"/>
</svg>
