<svg width="128" height="128" viewBox="0 0 128 128" fill="none" xmlns="http://www.w3.org/2000/svg">
<path d="M54.9262 6.13687C45.9372 6.01187 35.8202 9.69887 27.6802 16.1449C19.0862 22.9489 13.1052 32.1479 12.2972 39.8159C12.0312 42.3439 12.5592 44.9409 13.8752 47.6019C14.7542 49.3719 15.6332 50.5739 17.1952 52.1369C20.0852 55.0269 23.1522 56.9769 31.8632 61.4609C35.0472 63.0979 36.0982 63.6609 36.0982 63.7229C36.0982 63.7379 35.5392 64.2229 34.8632 64.7969C27.9732 70.6289 21.8632 76.3049 18.7112 79.8049C14.1412 84.8749 10.9842 90.2269 10.2422 94.1519C10.0622 95.0979 10.0352 98.8519 10.1992 100.344C10.4572 102.723 10.9922 104.563 12.0192 106.582C13.2662 109.043 14.4772 110.695 16.3592 112.516C20.2232 116.254 24.6052 118.164 30.4022 118.648C31.4062 118.73 35.1682 118.609 36.2972 118.461C42.9452 117.571 50.9452 114.797 59.8832 110.289C77.6682 101.316 98.5982 85.5509 110.73 71.9919C113.09 69.3549 115.402 66.2539 116.102 64.7819C117.074 62.7419 117.535 60.2499 117.535 57.0039C117.539 54.0819 117.165 51.9489 116.285 49.9139C112.273 40.5659 96.1802 25.1209 79.9412 15.0239C76.0082 12.5779 70.6712 9.77687 67.8122 8.65587C64.2972 7.27687 60.8202 6.51187 56.7072 6.21487C56.1212 6.17187 55.5272 6.14487 54.9262 6.13687ZM54.5862 6.39087C56.0272 6.39487 57.4572 6.45287 58.4222 6.57087C63.0432 7.13287 66.8092 8.31287 71.1222 10.5509C81.7462 16.0659 95.7582 26.6329 105.027 36.1129C111.461 42.6989 115.215 48.3129 115.605 51.9449C116 55.6129 113.406 60.6369 107.828 67.0039C106.34 68.7039 101.438 73.5699 99.3442 75.4259C84.2502 88.8119 64.8042 100.796 48.8482 106.543C43.5561 108.458 38.0591 109.751 32.4682 110.395C30.8242 110.59 27.0982 110.672 25.9182 110.539C23.6842 110.293 22.0902 109.855 20.4222 109.031C18.2732 107.973 16.6172 106.504 15.2272 104.426C13.7096 102.142 12.6619 99.5788 12.1452 96.8859C11.8832 95.5269 11.9062 93.1799 12.1912 91.7259C12.8442 88.4099 14.5622 85.1909 17.6872 81.4299C21.1572 77.2499 28.6642 70.2659 40.2572 60.4299L41.6482 59.2499L41.2662 59.0549C41.0552 58.9489 39.9762 58.4769 38.8672 58.0039C28.6602 53.6559 21.8832 49.6719 17.8402 45.6399C16.0202 43.8269 14.8712 42.0969 14.3282 40.3429C13.6992 38.3229 14.0862 35.1199 15.3402 31.9599C17.5552 26.3739 22.6372 20.1469 28.7302 15.5579C35.4222 10.5149 42.8792 7.45587 50.6602 6.56487C51.6842 6.44787 53.1402 6.38987 54.5862 6.38987V6.39087ZM53.2422 8.94087C52.0472 8.97687 50.7852 9.08187 49.4142 9.24987C42.4802 10.1019 39.1522 11.3049 34.1442 14.7699C32.2932 16.0499 27.8362 19.4099 26.8242 20.2899C22.6722 23.8899 19.2772 28.6329 17.8362 32.8319C16.9262 35.4879 16.7862 37.3009 17.3522 38.9919C17.9142 40.6759 19.0002 41.7969 22.1372 43.9449C25.8672 46.5039 30.1642 48.7579 40.2972 53.4849C45.5672 55.9409 46.0672 56.2189 46.2892 56.8009C46.5552 57.5079 46.2502 58.3589 45.3012 59.5429C44.3672 60.7109 43.1912 61.7849 37.9062 66.3129C30.4492 72.7029 27.7112 75.1829 24.7582 78.2069C19.6522 83.4299 17.0002 87.4449 16.3832 90.8909C15.8752 93.7109 16.6132 97.3049 18.2112 99.7809C20.1762 102.832 23.0902 104.465 27.3282 104.891C32.9302 105.449 41.3522 103.887 48.6952 100.918C61.9372 95.5659 80.4492 83.5119 94.0512 71.3779C100.582 65.5509 107.844 58.0349 109.223 55.6719C109.625 54.9799 109.906 53.3359 109.843 52.0349C109.766 50.3399 109.352 49.0779 108.25 47.1599C106.43 43.9919 103.82 40.7699 99.1212 35.8789C93.0202 29.5349 86.2462 23.7689 79.8402 19.4769C74.4882 15.8909 67.4532 12.1289 63.2702 10.6169C59.8002 9.36287 56.8242 8.83987 53.2422 8.94087ZM58.8402 25.8399C59.7542 25.8549 60.7032 25.9499 61.4962 26.1129C68.4572 27.5589 74.8202 32.3049 76.3282 37.1679C76.6762 38.2929 76.6602 39.9529 76.2892 40.9799C76.1241 41.4314 75.9242 41.8694 75.6912 42.2899C75.1872 43.1449 73.5982 44.6999 72.4842 45.4339C70.5632 46.6909 67.6842 47.9539 66.3012 48.1439C65.8672 48.2069 65.3912 48.2499 65.2422 48.2419C60.7582 48.0199 55.2702 45.6519 52.1482 42.5939C50.0582 40.5509 49.2032 38.6519 49.3442 36.3709C49.7042 30.5739 52.1802 26.9409 56.4062 26.0229C57.0512 25.8829 57.9262 25.8239 58.8402 25.8399ZM59.8122 32.3439C58.4922 32.3669 57.4452 32.7109 56.8822 33.3909C56.5392 33.8089 55.8442 35.1709 55.6092 35.8829C55.0122 37.6989 55.2622 39.3589 56.3592 40.8159C56.6412 41.1869 57.0472 41.6329 57.2662 41.8089L57.6682 42.1249L57.9732 41.8669C58.4032 41.5039 58.9262 41.3909 60.1332 41.3949C61.2232 41.3949 62.1292 41.5079 63.1602 41.7649C65.4802 42.3439 67.1952 43.1909 67.6642 43.9849C67.8442 44.2849 67.8872 44.3089 68.0822 44.2029C68.2032 44.1409 68.6882 43.6989 69.1642 43.2229C70.1292 42.2579 70.6912 41.2889 70.8752 40.2659C71.2772 38.0509 69.2502 35.4839 65.7892 33.8319C63.6562 32.8159 61.5122 32.3119 59.8122 32.3439Z" fill="#9991D9" stroke="#9991D9" stroke-width="0.10075"/>
</svg>
