<svg width="128" height="128" viewBox="0 0 128 128" fill="none" xmlns="http://www.w3.org/2000/svg">
<path d="M57.508 3.62493C49.613 3.51193 40.73 6.74993 33.582 12.4099C26.035 18.3829 20.785 26.4649 20.074 33.1999C19.84 35.4179 20.304 37.6999 21.461 40.0309C22.231 41.5859 23.004 42.6439 24.375 44.0159C26.914 46.5549 29.605 48.2689 37.254 52.2029C40.051 53.6409 40.973 54.1329 40.973 54.1909C40.973 54.2029 40.484 54.6289 39.887 55.1329C33.84 60.2529 28.477 65.2379 25.707 68.3129C21.691 72.7649 18.918 77.4649 18.27 80.9099C18.11 81.7419 18.086 85.0389 18.23 86.3469C18.457 88.4369 18.93 90.0549 19.828 91.8239C20.926 93.9879 21.988 95.4369 23.641 97.0349C27.035 100.32 30.883 102 35.973 102.422C36.855 102.496 40.156 102.39 41.148 102.258C46.984 101.476 54.012 99.0429 61.859 95.0819C77.476 87.2029 95.855 73.3589 106.512 61.4529C108.582 59.1369 110.613 56.4139 111.23 55.1209C112.082 53.3279 112.488 51.1409 112.488 48.2929C112.488 45.7259 112.16 43.8509 111.39 42.0629C107.863 33.8549 93.734 20.2929 79.473 11.4259C76.019 9.28093 71.336 6.81993 68.824 5.83593C65.734 4.62493 62.684 3.95293 59.074 3.69093C58.554 3.65193 58.035 3.62893 57.508 3.62493ZM57.207 3.84793C58.477 3.84793 59.73 3.89793 60.578 4.00393C64.637 4.49593 67.941 5.53493 71.73 7.49993C81.058 12.3439 93.363 21.6209 101.504 29.9449C107.152 35.7259 110.449 40.6559 110.793 43.8509C111.14 47.0659 108.859 51.4809 103.961 57.0709C102.652 58.5619 98.351 62.8359 96.511 64.4649C83.258 76.2229 66.183 86.7449 52.168 91.7929C47.521 93.4742 42.6943 94.6095 37.785 95.1759C36.34 95.3439 33.07 95.4179 32.031 95.3009C30.074 95.0859 28.671 94.6989 27.207 93.9809C25.32 93.0469 23.867 91.7579 22.645 89.9329C21.3141 87.9278 20.3937 85.6788 19.937 83.3159C19.711 82.1169 19.73 80.0579 19.98 78.7809C20.555 75.8669 22.062 73.0429 24.805 69.7419C27.855 66.0699 34.445 59.9369 44.629 51.3009L45.848 50.2659L45.512 50.0939C44.8154 49.7732 44.1133 49.4645 43.406 49.1679C34.446 45.3509 28.492 41.8509 24.941 38.3119C23.344 36.7189 22.336 35.1989 21.855 33.6599C21.305 31.8869 21.645 29.0739 22.746 26.2969C24.687 21.3939 29.152 15.9299 34.504 11.8949C40.379 7.46893 46.93 4.77993 53.762 3.99993C54.66 3.89793 55.942 3.84793 57.207 3.84793ZM56.027 6.08593C54.9034 6.1238 53.7822 6.2139 52.667 6.35593C46.578 7.10593 43.657 8.15993 39.257 11.2029C37.633 12.3279 33.719 15.2769 32.828 16.0509C29.184 19.2149 26.203 23.3749 24.938 27.0659C24.141 29.3979 24.012 30.9879 24.512 32.4729C25.008 33.9489 25.957 34.9369 28.715 36.8239C31.988 39.0699 35.762 41.0509 44.66 45.1989C49.289 47.3549 49.726 47.6009 49.922 48.1129C50.156 48.7299 49.887 49.4799 49.055 50.5189C48.235 51.5429 47.203 52.4889 42.562 56.4649C36.016 62.0779 33.609 64.2539 31.016 66.9099C26.536 71.4959 24.203 75.0229 23.66 78.0469C23.215 80.5229 23.867 83.6799 25.266 85.8549C26.992 88.5309 29.551 89.9689 33.273 90.3399C38.191 90.8319 45.586 89.4569 52.035 86.8509C63.664 82.1559 79.918 71.5709 91.863 60.9139C97.601 55.7969 103.976 49.1949 105.187 47.1209C105.539 46.5159 105.789 45.0709 105.734 43.9259C105.664 42.4369 105.301 41.3279 104.332 39.6479C102.734 36.8679 100.442 34.0349 96.316 29.7419C90.956 24.1679 85.012 19.1089 79.386 15.3359C74.683 12.1869 68.508 8.88293 64.836 7.55493C61.789 6.45693 59.176 5.99593 56.027 6.08493V6.08593ZM60.945 20.9259C61.746 20.9369 62.582 21.0189 63.277 21.1639C69.387 22.4339 74.977 26.6019 76.301 30.8709C76.605 31.8589 76.59 33.3209 76.269 34.2229C76.1213 34.6178 75.9452 35.0015 75.742 35.3709C75.301 36.1209 73.906 37.4879 72.926 38.1289C71.238 39.2339 68.711 40.3439 67.496 40.5119C67.117 40.5659 66.699 40.6019 66.566 40.5979C62.629 40.4019 57.809 38.3199 55.066 35.6369C53.234 33.8399 52.484 32.1759 52.606 30.1719C52.918 25.0819 55.098 21.8909 58.808 21.0859C59.371 20.9609 60.141 20.9099 60.945 20.9259ZM61.801 26.6329C60.641 26.6559 59.719 26.9569 59.226 27.5549C58.926 27.9219 58.312 29.1209 58.106 29.7459C57.582 31.3399 57.805 32.7959 58.766 34.0739C59.012 34.4019 59.371 34.7929 59.562 34.9449L59.914 35.2229L60.184 34.9959C60.562 34.6799 61.019 34.5779 62.082 34.5819C63.035 34.5859 63.832 34.6839 64.738 34.9059C66.773 35.4179 68.281 36.1599 68.695 36.8589C68.851 37.1209 68.891 37.1409 69.058 37.0509C69.164 36.9959 69.594 36.6089 70.012 36.1909C70.859 35.3399 71.352 34.4919 71.512 33.5939C71.867 31.6439 70.086 29.3909 67.047 27.9449C65.176 27.0509 63.289 26.6089 61.801 26.6329Z" fill="#9991D9" stroke="#9991D9" stroke-width="0.0884706"/>
<path fill-rule="evenodd" clip-rule="evenodd" d="M69.453 102.332H70.98V120.734C70.469 120.723 69.918 120.754 69.437 120.714V102.383C69.434 102.359 69.434 102.336 69.453 102.332ZM73.293 102.332H74.98V104.277H73.277C73.289 103.637 73.254 102.949 73.293 102.332ZM47.918 107.91H49.094V109.21H47.937C47.907 112.059 47.922 115.238 47.918 118.227C47.918 118.68 47.895 119.129 48.047 119.383C48.211 119.648 48.684 119.699 49.094 119.672V121.023C48.082 121.086 47.082 121.027 46.714 120.332C46.379 119.699 46.394 118.762 46.394 117.793V109.211H45.559V107.911H46.395V105.082C46.891 104.879 47.437 104.637 47.918 104.472V107.91ZM97.285 104.648H98.617V105H98.152C98.113 106.383 98.148 107.836 98.137 109.242C98.007 109.234 97.836 109.262 97.734 109.227V105H97.27C97.277 104.887 97.246 104.734 97.285 104.648ZM99.05 104.648H99.727C99.855 106.07 100.023 107.457 100.16 108.875C100.25 108.547 100.27 108.191 100.305 107.844C100.418 106.785 100.512 105.704 100.625 104.648H101.301V109.242C101.187 109.234 101.035 109.262 100.949 109.227C100.938 107.817 100.969 106.367 100.934 104.984C100.852 105.031 100.875 105.156 100.867 105.227C100.742 106.535 100.578 107.941 100.434 109.242H99.887C99.723 107.828 99.602 106.367 99.407 104.984C99.332 106.336 99.395 107.828 99.375 109.242H99.035C99.047 107.715 99.015 106.148 99.051 104.648M25.328 111.492V116.57C25.328 117.45 25.297 118.383 25.618 118.82C25.852 119.145 26.477 119.273 26.852 119.063C27.375 118.77 27.398 117.773 27.398 116.813V111.203C27.398 110.289 27.418 109.27 26.82 108.969C26.656 108.887 26.332 108.883 26.18 108.906C25.234 109.039 25.328 110.422 25.328 111.492ZM27.398 108.68C27.449 108.43 27.477 108.16 27.528 107.91H28.957V121.406C28.957 122.606 28.949 123.68 28.652 124.476C28.344 125.309 27.648 125.719 26.547 125.746C25.398 125.773 24.57 125.484 24.168 124.75C23.785 124.043 23.727 123.04 23.75 121.793H25.36C25.402 122.637 25.258 123.547 25.582 124.09C25.863 124.559 26.75 124.57 27.078 124.156C27.453 123.684 27.398 122.68 27.398 121.746V119.398C27.25 119.582 27.152 119.762 26.996 119.914C26.258 120.637 24.652 120.66 24.121 119.754C23.758 119.137 23.75 118.109 23.75 117.086V111.012C23.75 109.316 23.762 107.727 25.277 107.605C26.363 107.515 26.984 108.02 27.398 108.68ZM34.855 111.234C34.855 110.105 34.918 108.801 33.746 108.906C32.816 108.988 32.832 110.145 32.832 111.187V113.742C33.472 113.782 34.187 113.75 34.855 113.758V111.234ZM36.461 115.059H32.832V117.422C32.832 118.168 32.809 119.066 33.152 119.465C33.465 119.825 34.234 119.812 34.535 119.465C35.066 118.84 34.765 117.367 34.855 116.328H36.461C36.43 117.778 36.555 119.023 36.063 120.008C35.723 120.684 34.961 121.004 34.035 121.039C33.09 121.074 32.238 120.844 31.801 120.234C31.297 119.524 31.258 118.204 31.258 116.941V113.101C31.258 111.719 31.191 110.418 31.402 109.402C31.637 108.262 32.246 107.684 33.488 107.605C34.758 107.523 35.618 107.844 36.028 108.602C36.445 109.367 36.461 110.461 36.461 111.622V115.059ZM43.969 120.734H42.44V111.941C42.44 111.023 42.534 109.867 42.167 109.293C41.858 108.809 40.909 108.785 40.577 109.277C40.194 109.836 40.284 111.016 40.284 111.926V120.734H38.761V107.91H40.191C40.226 108.156 40.257 108.41 40.284 108.664C40.644 108.168 41.116 107.672 41.924 107.605C43.991 107.434 43.968 109.23 43.968 111.172L43.969 120.734ZM52.16 111.559V116.989C52.16 117.902 52.086 118.969 52.453 119.429C52.753 119.812 53.508 119.777 53.785 119.527C54.23 119.125 54.188 117.997 54.188 117.07V111.348C54.188 110.176 54.258 108.77 53.047 108.922C52.047 109.047 52.16 110.426 52.16 111.559ZM52.79 107.621C53.703 107.551 54.563 107.711 55.04 108.168C55.941 109.031 55.793 111.164 55.793 112.973V115.75C55.793 117.574 55.938 119.688 54.988 120.523C54.468 120.984 53.602 121.109 52.742 121.023C51.942 120.941 51.305 120.617 50.988 119.993C50.656 119.328 50.594 118.355 50.57 117.309C50.55 116.191 50.57 115.266 50.57 114.227C50.57 113.109 50.523 112.152 50.57 111.125C50.613 110.199 50.668 109.129 51.04 108.504C51.367 107.945 52.023 107.68 52.79 107.621ZM59.617 111.637V117.247C59.617 118.168 59.574 119.254 60.086 119.594C60.41 119.809 61.023 119.742 61.258 119.527C61.695 119.125 61.645 117.965 61.645 117.055V111.332C61.645 110.152 61.707 108.77 60.5 108.922C59.484 109.051 59.617 110.496 59.617 111.637ZM60.247 107.621C61.387 107.531 62.407 107.797 62.832 108.633C63.289 109.531 63.25 111.074 63.25 112.523V116.813C63.25 118.227 63.227 119.699 62.543 120.41C61.875 121.105 60.215 121.277 59.183 120.734C58.199 120.214 58.082 118.961 58.027 117.406C57.988 116.32 58.027 115.367 58.027 114.336C58.027 113.289 58.004 112.215 58.027 111.254C58.051 110.309 58.113 109.25 58.445 108.602C58.77 107.969 59.437 107.684 60.246 107.622M82.453 120.734H80.926V112.008C80.926 111.086 81.031 109.949 80.684 109.34C80.461 108.941 79.781 108.75 79.301 109.05C78.715 109.418 78.789 110.633 78.789 111.59V120.715C78.305 120.754 77.754 120.723 77.246 120.735V107.91H78.676C78.719 108.152 78.746 108.406 78.773 108.664C79.133 108.172 79.602 107.672 80.41 107.605C82.469 107.437 82.453 109.203 82.453 111.156V120.734ZM73.355 107.91H74.883C74.875 112.18 74.906 116.492 74.867 120.734H73.355C73.32 116.508 73.352 112.211 73.34 107.957C73.34 107.934 73.34 107.914 73.355 107.91ZM84.816 107.91H86.34V116.637C86.34 117.77 86.164 119.367 87 119.672C87.488 119.852 87.992 119.656 88.188 119.336C88.551 118.742 88.461 117.602 88.461 116.684V107.91H90.02V120.715C89.578 120.754 89.063 120.723 88.59 120.735C88.531 120.492 88.504 120.223 88.46 119.961C88.133 120.574 87.402 121.047 86.422 121.008C84.785 120.934 84.797 119.23 84.797 117.488C84.801 114.324 84.797 111.028 84.797 107.957C84.797 107.934 84.797 107.914 84.817 107.91M91.613 107.91H93.203C93.574 109.473 93.937 111.043 94.297 112.617C94.672 111.067 95.016 109.48 95.371 107.91H96.836C96.293 109.813 95.773 111.75 95.226 113.71C95.191 113.844 95.117 113.984 95.113 114.082C95.109 114.282 95.297 114.707 95.355 114.914C95.915 116.859 96.453 118.812 97.012 120.734H95.355C94.934 118.973 94.508 117.223 94.102 115.445C93.664 117.188 93.262 118.965 92.848 120.735H91.387C91.945 118.813 92.488 116.855 93.059 114.883C93.137 114.613 93.297 114.297 93.301 114.063C93.301 113.855 93.161 113.539 93.09 113.293C92.598 111.512 92.105 109.715 91.613 107.957C91.613 107.93 91.586 107.918 91.613 107.91Z" fill="black"/>
</svg>
