<svg width="128" height="128" viewBox="0 0 128 128" fill="none" xmlns="http://www.w3.org/2000/svg">
<path d="M38.8 37.3001C37.8 37.3001 36.8 36.7001 36.3 35.8001L35.5 34.4001L35.4 36.0001L35.3 36.7001C35.3 39.7001 37.7 42.1001 40.7 42.1001C43.7 42.1001 46.1 39.7001 46.1 36.7001C46.1 33.8001 43.9 31.5001 41 31.3001L39.4 31.2001L40.6 32.2001C41.3 32.7001 41.7 33.5001 41.7 34.4001C41.7 36.1001 40.4 37.3001 38.8 37.3001ZM38.3 25.2001C42.9 25.2001 46.7 28.3001 48 32.4001C48.7 30.4001 49.9 28.7001 51.5 27.3001C36.6 26.3001 30.2 13.1001 30.2 13.1001L29.8 29.8001C31.6 27.0001 34.8 25.2001 38.3 25.2001ZM61.9 44.2001C65.3 44.2001 68 41.4001 68 38.1001C68 34.8001 65.4 32.1001 62.2 32.0001L60.8 31.9001L61.9 32.8001C62.7 33.5001 63.2 34.5001 63.2 35.5001C63.2 37.4001 61.6 39.0001 59.7 39.0001C58.4 39.0001 57.3 38.3001 56.6 37.2001L56 35.9001L55.8 37.3001L55.7 38.1001C55.8 41.5001 58.5 44.2001 61.9 44.2001ZM120.5 87.3001L119.4 83.5001C117.1 75.3001 115.3 68.9001 108.2 69.5001C107.1 69.6001 106.2 69.9001 105.4 70.5001L98.2 66.0001H98L97.4 64.3001L96.3 65.0001C94.1 63.6001 91.5 62.2001 89 61.1001C97.2 51.3001 101.7 34.1001 98.5 5.90008C98.2 3.40008 96.9 3.00008 96 5.60008C95.2 8.00008 90.4 22.3001 65.5 26.4001C68.8 28.5001 71 32.2001 71 36.4001C71 42.9001 65.7 48.2001 59.2 48.2001C53.6 48.2001 48.9 44.3001 47.7 39.1001C46.2 42.8001 42.6 45.3001 38.4 45.3001C34.2 45.3001 30.6 42.7001 29.1 39.1001L28.8 39.6001L28.4 39.0001C23.5 32.2001 15.7 29.6001 10.8 33.0001C6 36.5001 6 44.8001 10.9 51.6001C15 57.3001 21.1 60.0001 25.8 58.8001C39.7 69.0001 65 77.9001 82.1 67.0001C85.5 68.9001 89.3 70.8001 92.8 72.0001V72.1001L93.1 73.2001L94.6 72.6001L94.8 72.8001L102.8 75.7001C102.9 78.2001 104.4 81.0001 107.7 82.3001C113.8 84.6001 119.6 87.6001 119.7 87.7001L120.6 88.2001L120.5 87.3001ZM19 39.8001C19 42.7001 17 45.1001 14.6 45.1001C12.2 45.1001 10.2 42.7001 10.2 39.8001C10.2 36.9001 12.2 34.5001 14.6 34.5001C17 34.5001 19 36.9001 19 39.8001ZM79.2 57.1001C76.3 56.1001 74.1 55.4001 73.6 55.3001C71.8 54.5001 70.1 55.0001 69.5 56.4001C69.1 57.4001 69.5 58.6001 70.3 59.5001C64.6 62.0001 55.3 60.9001 43.4 56.7001C60.1 60.0001 68.6 56.9001 73.6 53.1001C72.3 51.4001 70 49.5001 70 49.5001C70 49.5001 75.8 51.1001 77.9 53.8001C79 55.1001 79.2 56.0001 79.2 57.1001ZM32.1 85.1001L27.3 112.9L36.3 112.7L35.6 115.2L26.6 115.6L25.7 121.8L41.4 121.3L47.6 85.0001L32.1 85.1001ZM37.4 106.1L34.3 106.2L36.8 91.9001L39.8 91.8001L37.4 106.1ZM49.2 91.2001L44.8 118H50.7L55.5 91.1001L49.2 91.2001ZM59.4 85.0001L53.6 117.4L60.1 117.5L64.5 91.9001L67.3 92.1001L62.8 118H69.1L73.7 92.3001L76.6 92.2001L72 117.5L78.2 117.4L83.8 85.3001L59.4 85.0001ZM80.5 122H86.7L87.4 117.9L96.6 117.7L102.5 85.7001L87 85.5001L80.5 122ZM92.1 91.9001L94.9 91.8001L91.5 111.5L88.5 111.6L92.1 91.9001ZM56.8 82.0001H50.8L49.8 88.0001H56.1L56.8 82.0001Z" fill="#716955"/>
</svg>
