<svg width="128" height="128" viewBox="0 0 128 128" fill="none" xmlns="http://www.w3.org/2000/svg">
<path d="M36.3998 54.4C35.2998 54.4 34.1998 53.8 33.6998 52.8L32.8998 51.2L32.5998 53L32.4998 53.8C32.4998 57.1 35.0998 59.7 38.3998 59.7C41.6998 59.7 44.2998 57.1 44.2998 53.8C44.2998 50.7 41.7998 48.1 38.6998 47.9L36.9998 47.8L38.3998 48.9C39.0998 49.5 39.5998 50.4 39.5998 51.3C39.4998 53 38.0998 54.4 36.3998 54.4ZM35.8998 41C40.8998 41 45.1998 44.4 46.4998 48.9C47.2998 46.7 48.5998 44.8 50.2998 43.3C33.9998 42.3 26.9998 27.8 26.9998 27.8L26.5998 46.1C28.4998 43.1 31.8998 41 35.8998 41ZM61.6998 62C65.3998 62 68.3998 59 68.3998 55.3C68.3998 51.7 65.5998 48.7 61.9998 48.6L60.4998 48.5L61.6998 49.4C62.5998 50.1 63.0998 51.2 63.0998 52.4C63.0998 54.5 61.3998 56.2 59.2998 56.2C57.8998 56.2 56.5998 55.4 55.8998 54.2L55.1998 52.9L54.9998 54.4L54.8998 55.3C54.9998 58.9 57.9998 62 61.6998 62ZM126 109.2C125.6 107.8 125.2 106.4 124.8 105.1C122.3 96.1 120.4 89.1 112.5 89.8C111.3 89.9 110.3 90.3 109.4 90.9L101.5 85.9H101.2L100.6 84L99.3998 84.8C96.8998 83.2 94.0998 81.8 91.2998 80.5C100.3 69.8 105.2 50.9 101.8 20C101.5 17.3 99.9998 16.9 98.9998 19.8C98.1998 22.3 92.8998 38.1 65.5998 42.5C69.1998 44.8 71.5998 48.8 71.5998 53.4C71.5998 60.6 65.7998 66.4 58.5998 66.4C52.4998 66.4 47.2998 62.1 45.9998 56.4C44.2998 60.4 40.3998 63.2 35.7998 63.2C31.1998 63.2 27.2998 60.4 25.5998 56.4C25.4998 56.6 25.3998 56.8 25.2998 56.9C25.1998 56.7 24.9998 56.5 24.8998 56.2C19.4998 48.8 10.8998 45.8 5.59981 49.6C0.299812 53.5 0.399812 62.6 5.79981 70C10.2998 76.2 16.9998 79.3 22.1998 77.9C37.2998 89.1 65.1998 98.8 83.8998 86.9C87.5998 89 91.7998 91 95.6998 92.4V92.5L96.0998 93.7L97.6998 93.1L97.8998 93.3L106.7 96.5C106.8 99.3 108.5 102.4 112.1 103.8C118.8 106.4 125.2 109.6 125.2 109.7L126.2 110.2L126 109.2ZM4.99981 57.1C4.99981 53.9 7.19981 51.3 9.79981 51.3C12.4998 51.3 14.5998 53.9 14.5998 57.1C14.5998 60.3 12.3998 62.9 9.79981 62.9C7.09981 62.9 4.99981 60.3 4.99981 57.1ZM41.5998 75.7C59.8998 79.4 69.2998 76 74.6998 71.7C73.2998 69.7999 70.7998 67.8 70.7998 67.8C70.7998 67.8 77.1998 69.6 79.4998 72.5C80.4998 73.8 80.7998 74.9 80.6998 76C77.4998 74.9 75.0998 74.2 74.5998 74C72.5998 73.1 70.6998 73.7 70.1998 75.2C69.7998 76.2999 70.0998 77.6 71.0998 78.6C64.7998 81.5 54.4998 80.2999 41.5998 75.7Z" fill="#716955"/>
</svg>
