<svg width="128" height="128" viewBox="0 0 128 128" fill="none" xmlns="http://www.w3.org/2000/svg">
<path d="M124.742 58.3778L69.6252 3.2638C66.4532 0.0898008 61.3052 0.0898008 58.1282 3.2638L46.6852 14.7098L61.2032 29.2278C64.5782 28.0888 68.4462 28.8528 71.1352 31.5418C72.4167 32.8244 73.3113 34.4418 73.7168 36.209C74.1223 37.9762 74.0223 39.8218 73.4282 41.5348L87.4202 55.5288C90.8052 54.3618 94.7122 55.1158 97.4142 57.8238C101.194 61.6008 101.194 67.7238 97.4142 71.5028C96.5159 72.4015 95.4493 73.1144 94.2755 73.6009C93.1016 74.0873 91.8434 74.3376 90.5727 74.3376C89.302 74.3376 88.0438 74.0873 86.8699 73.6009C85.696 73.1144 84.6295 72.4015 83.7312 71.5028C82.3816 70.1524 81.4616 68.4329 81.087 66.5608C80.7125 64.6886 80.9 62.7475 81.6262 60.9818L68.5782 47.9328L68.5762 82.2738C69.5229 82.74 70.3872 83.3574 71.1352 84.1018C74.9142 87.8788 74.9142 93.9998 71.1352 97.7848C67.3562 101.562 61.2312 101.562 57.4562 97.7848C53.6782 94.0008 53.3682 87.8798 57.1452 84.1018C58.0792 83.1688 59.0002 82.4638 60.0002 81.9918V47.3328C59.0002 46.8608 58.0802 46.1608 57.1442 45.2218C54.2832 42.3618 53.7482 38.1618 55.2162 34.6458L40.9832 20.3328L3.22918 58.1228C0.0541837 61.2998 0.0741837 66.4478 3.24918 69.6228L58.3752 124.737C61.5482 127.911 66.7002 127.911 69.8782 124.737L124.738 69.8788C127.913 66.7028 127.916 61.5518 124.742 58.3778Z" fill="#F34F29"/>
</svg>
