<svg width="128" height="128" viewBox="0 0 128 128" fill="none" xmlns="http://www.w3.org/2000/svg">
<path d="M126.615 72.31L119.581 50.663L105.64 7.75997C104.924 5.55397 101.8 5.55397 101.084 7.75997L87.1442 50.663H40.8562L26.9162 7.75997C26.1992 5.55397 23.0762 5.55397 22.3592 7.75997L8.42018 50.664L1.38518 72.31C1.07229 73.2724 1.07212 74.3091 1.3847 75.2717C1.69727 76.2342 2.30654 77.073 3.12518 77.668L64.0002 121.894L124.874 77.667C125.692 77.072 126.302 76.2333 126.614 75.271C126.927 74.3088 126.927 73.2723 126.614 72.31" fill="#FC6D26"/>
<path d="M64 121.894L87.144 50.6641H40.856L64 121.893V121.894Z" fill="#E24329"/>
<path d="M63.9999 121.894L40.8559 50.6641H8.41992L63.9999 121.893V121.894Z" fill="#FC6D26"/>
<path d="M8.4198 50.6631L1.3838 72.3101C1.07083 73.2723 1.07063 74.309 1.38322 75.2714C1.6958 76.2337 2.30513 77.0724 3.1238 77.6671L63.9998 121.894L8.4198 50.6641V50.6631Z" fill="#FCA326"/>
<path d="M8.41992 50.663H40.8559L26.9159 7.75997C26.1989 5.55397 23.0759 5.55397 22.3589 7.75997L8.41992 50.664V50.663Z" fill="#E24329"/>
<path d="M64 121.894L87.144 50.6641H119.581L64 121.893V121.894Z" fill="#FC6D26"/>
<path d="M119.58 50.6631L126.615 72.3101C126.928 73.2723 126.928 74.309 126.616 75.2714C126.303 76.2337 125.694 77.0724 124.875 77.6671L64 121.894L119.58 50.6641V50.6631Z" fill="#FCA326"/>
<path d="M119.58 50.6629H87.145L101.085 7.76095C101.802 5.55495 104.925 5.55495 105.642 7.76095L119.582 50.6639L119.58 50.6629Z" fill="#E24329"/>
</svg>
