<svg width="128" height="128" viewBox="0 0 128 128" fill="none" xmlns="http://www.w3.org/2000/svg">
<path d="M18.7322 52.8951C18.9452 53.1911 19.2082 53.4571 19.5142 53.6801L64.0002 86.0001L108.485 53.6801C109.084 53.2457 109.529 52.6328 109.758 51.9294C109.986 51.2261 109.986 50.4684 109.757 49.7651L104.617 33.9451L94.4302 2.59615C94.4302 2.59015 94.4262 2.58615 94.4242 2.58115C94.0562 1.48115 92.8722 1.15815 91.9962 1.58115C91.6022 1.77115 91.2632 2.12315 91.1012 2.62115L80.9142 34.0001H47.0872L39.6502 11.0871L36.9002 2.60715C36.5072 1.39715 35.1252 1.08915 34.2372 1.69415C33.919 1.9116 33.6836 2.23015 33.5692 2.59815L23.3802 33.9481L21.6782 39.1881L18.2412 49.7661C18.071 50.2896 18.0266 50.8459 18.1118 51.3898C18.1969 51.9336 18.4091 52.4497 18.7312 52.8961L18.7322 52.8951ZM65.3872 94.0001H60.8972L60.9132 127H79.0002V123H65.4002L65.3872 94.0001ZM91.8462 101.276C88.3442 101.271 84.9489 102.481 82.2392 104.699L83.7932 107.446C85.6292 106.376 87.6772 105.304 90.8902 105.304C94.5642 105.304 96.0002 107.191 96.0002 110.354V111.984C96.0002 111.832 93.9872 111.73 93.0702 111.73C85.2132 111.73 81.3262 114.485 81.3262 120.248C81.3262 125.398 84.5342 128 89.3292 128C92.5592 128 95.6762 126.327 96.7472 123.93L97.5872 127H101V110.303C101 104.897 98.5302 101.276 91.8462 101.276ZM96.0002 121.523C95.0002 122.696 93.1722 123.869 90.6222 123.869C87.2042 123.869 85.9182 122.185 85.9182 119.992C85.9182 116.677 88.0782 115.096 92.9742 115.096C93.8922 115.096 96.0002 115.198 96.0002 115.351V121.521V121.523ZM117.146 101.276C113.134 101.276 111 104.006 111 104.006V99.6961L110.934 94.0001H106.547L106.561 126.58C108.755 127.498 111.765 128.004 115.029 128.004C123.394 128.004 127.437 122.647 127.437 113.416C127.439 106.123 123.727 101.276 117.147 101.276H117.146ZM115.259 124.022C113.575 124.022 111.999 123.818 110.999 123.308V107.856C111.999 106.581 114.391 105.663 116.789 105.663C121.125 105.663 122.809 108.723 122.809 113.67C122.809 120.707 120.104 124.022 115.259 124.022ZM16.5922 97.6041C20.5722 97.6041 23.1222 98.9301 24.8052 100.256L26.7352 96.9161C24.1052 94.6101 20.5682 93.3711 16.7952 93.3711C7.25719 93.3711 0.575195 99.1861 0.575195 110.916C0.575195 123.205 7.7852 128 16.0302 128C20.1632 128 23.7402 127.03 26.0362 126.062L26.0002 112.93V109H14.0002V113H21.4462L21.5402 122.935C20.5202 123.445 18.7352 123.835 16.3372 123.835C9.7072 123.835 5.2672 119.655 5.2672 110.872C5.2672 101.948 9.85919 97.6041 16.5922 97.6041ZM48.1602 94.0001H43.7732L44.0002 99.5931V118.972C44.0002 124.379 46.4802 128 53.1632 128C54.0862 128 55.0002 127.916 56.0002 127.757V123.817C55.0002 123.915 54.3602 123.971 53.6322 123.971C49.9592 123.971 48.0002 122.085 48.0002 118.923V106H56.0002V102H48.1752L48.1602 94.0001ZM33.0002 102H37.0002V127H33.0002V102ZM33.0002 94.0001H37.0002V98.0001H33.0002V94.0001Z" fill="#E24329"/>
</svg>
