<svg width="128" height="128" viewBox="0 0 128 128" fill="none" xmlns="http://www.w3.org/2000/svg">
<path d="M126.615 72.3102L119.581 50.6642L105.641 7.76221C105.101 6.10021 103.201 5.69221 101.987 6.53221C101.587 6.80821 101.263 7.38521 101.085 7.93021L87.1439 51.0002H40.8559L31.6199 22.4102L26.9169 7.84721C26.8336 7.57375 26.7081 7.31497 26.5449 7.08021C26.4669 6.97621 26.3649 6.88621 26.2749 6.80021C25.3379 5.91021 23.8099 5.92421 22.9149 6.87221C22.664 7.12402 22.4738 7.42978 22.3589 7.76621L8.41892 50.6662L5.47293 59.7342L1.38493 72.3102C1.13937 73.0709 1.08852 73.8811 1.23701 74.6665C1.3855 75.452 1.72861 76.1876 2.23493 76.8062C2.49493 77.1232 2.78493 77.4192 3.12493 77.6662L63.9999 121.895L124.874 77.6682C125.693 77.074 126.303 76.2354 126.616 75.2728C126.928 74.3103 126.928 73.2734 126.614 72.3112L126.615 72.3102Z" fill="#E24329"/>
</svg>
