<svg width="128" height="128" viewBox="0 0 128 128" fill="none" xmlns="http://www.w3.org/2000/svg">
<path d="M31.1 50.0998H35.2V70.7998H31.1V50.0998ZM20.7 50.0998H24.8V91.4998H20.7V50.0998ZM10.4 50.0998H14.5V91.4998H10.4V50.0998ZM0 39.7998H4.1V70.8998H0V39.7998Z" fill="black"/>
<path d="M65.9998 61.5001H68.0998V74.1001H65.9998V61.5001ZM77.0998 63.6001H73.8998V61.5001H83.2998V63.6001H79.1998V74.1001H77.0998V63.6001ZM90.6998 63.6001H87.4998V61.5001H96.8998V63.6001H92.7998V74.1001H90.6998V63.6001ZM102.3 61.5001H111.7V63.6001H104.4V66.7001H110.7V68.8001H104.4V72.0001H111.7V74.0001H102.3V61.5001ZM128 74.1001L124.7 69.4001C126.1 68.7001 126.9 67.4001 126.9 65.7001C126.9 63.2001 124.9 61.5001 122.4 61.5001H117.5V74.1001H119.6V69.9001H122.5L125.5 74.1001H128ZM119.6 67.8001V63.6001H122.4C123.8 63.6001 124.8 64.4001 124.8 65.7001C124.8 67.1001 123.7 67.8001 122.4 67.8001H119.6ZM55.6998 66.9001V69.0001H58.7998V70.8001C58.6998 71.0001 58.4998 72.2001 55.7998 72.2001H54.9998C54.8998 72.2001 54.7998 72.1001 54.7998 72.1001C54.6998 72.1001 54.6998 72.1001 54.5998 72.0001H54.4998C52.7998 71.4001 51.6998 69.8001 51.6998 67.8001C51.6998 67.6001 51.6998 67.4001 51.7998 67.2001C51.9998 65.0001 53.5998 63.2001 55.6998 63.2001C56.3998 63.2001 57.6998 63.4001 58.5998 64.4001L59.7998 62.6001C59.7998 62.6001 58.7998 61.1001 55.7998 61.1001C52.2998 61.2001 49.6998 63.8001 49.2998 67.0001V67.6001C49.2998 71.0001 51.7998 73.9001 55.3998 74.1001H56.7998C56.9998 74.1001 56.9998 74.1001 57.1998 74.0001C59.3998 73.9001 60.8998 72.2001 60.8998 71.3001V66.8001L55.6998 66.9001Z" fill="black"/>
</svg>
