<svg width="128" height="128" viewBox="0 0 128 128" fill="none" xmlns="http://www.w3.org/2000/svg">
<path d="M108.7 64.4C107.1 63.2 104.9 62.5 102.7 62.5C102.6 58.9 102.5 55.3 102.5 51.8C102.4 42.3 102.4 32.5 99.9 23.2C106.4 20.7 106.1 15.6 105.8 14C105.1 10.2 101.8 6.1 96.8 6.1C94.9 6.1 92.9 6.7 91 8C83.4 1.6 73 0.5 62.5 0.5C53 1.3 46.4 2.8 41 5.4C38.7 6.5 36.8 7.8 35 9.3C33.2 8.2 31.3 7.6 29.5 7.6C24.4 7.6 20.7 11.7 20.1 15.7C19.5 19.7 21.7 23 26.1 24.6C23.9 33.5 24.6 42.7 25.4 51.6C25.7 55.3 26 59.2 26.1 63H25.6C23.3 63 21 63.7 19.3 64.9C18.6 65.4 17.2 66.9 17.3 68.2C17.3 68.6 17.5 69.1 18.2 69.5C18.4 71.6 19.7 71.9 20.5 71.9C22.1 71.9 23.9 70.8 24.4 70.4C24.9 70.1 25.3 69.9 25.6 69.8L26.1 69.6C26 71.8 25.8 74.1 25.6 76.6C24.7 88.3 23.6 101.6 29.5 111.2C30.7 113.1 32.1 114.8 33.8 116.3L32.9 116.9C30.2 118.8 26.2 121.6 28.6 125.4V125.5C29 125.9 29.2 126 29.5 126H29.6C29.9 126.5 30.5 127.6 32 127.6C32.6 127.6 33.3 127.4 34 127C35.1 126.4 36.1 125.6 37 124.8C38.5 123.5 40 122.2 42 121.9L42.6 121.8L43.3 122.1C49.7 124.7 56.2 125.4 60.6 125.5H63.2C70.9 125.5 78 124.3 83.7 122C84.9 121.5 86.1 120.9 87.2 120.3C88.4 120.8 89.5 122 90.6 123.3C92 124.9 93.4 126.5 95.1 126.5C95.9 126.5 96.7 126.1 97.5 125.4C98.7 124.7 99.3 123.7 99.3 122.5C99.3 119.9 96.4 116.8 94.1 115.3C96.1 113.3 97.7 111.1 99 108.6C104.9 96.8 104 82.4 103.2 69.6L103.7 69.9C104.2 70.3 106 71.4 107.6 71.4C108.4 71.4 109.7 71.1 109.9 69C110.6 68.6 110.7 68.1 110.8 67.7C110.8 66.4 109.4 64.9 108.7 64.4ZM91.6 8.4C93.3 7.3 95 6.7 96.8 6.7C101.2 6.7 104.5 10.4 105.1 14C105.7 17.7 103.7 20.8 99.7 22.4C99.7 22.2 99.6 22.1 99.5 21.9L98.9 19.8L98.6 19L97.7 16.6C97.7 16.5 97.7 16.5 97.6 16.4C97.6 16.4 97.6 16.3 97.5 16.3C97.1 15.6 96.8 14.9 96.4 14.3L96.2 14L95 12.2C94.9 12.1 94.8 12 94.7 11.8C94.3 11.3 93.9 10.8 93.4 10.3C93.3 10.1 93.1 10 92.9 9.8L91.7 8.6C91.8 8.7 91.7 8.5 91.6 8.4ZM26.3 23.9C22.3 22.4 20.2 19.4 20.8 15.8C21.4 12.1 24.8 8.3 29.5 8.3C31.2 8.3 32.8 8.8 34.4 9.7L34.3 9.8L34 10.1C33.5 10.6 33 11.1 32.6 11.6L32.3 11.9C31.8 12.5 31.3 13.1 30.8 13.8L30.6 14.1C30.1 14.8 29.7 15.4 29.3 16.1C29.3 16.1 29.3 16.2 29.2 16.2C28.8 16.9 28.4 17.7 28.1 18.5C28.1 18.7 28 18.9 28 19C27.7 19.8 27.3 20.6 27.1 21.4C27.1 21.5 27.1 21.5 27 21.6L26.4 23.6L26.3 23.9ZM25.4 69.1C25.1 69.2 24.6 69.4 24 69.8C23 70.5 21.6 71.2 20.5 71.2C19.9 71.2 19.1 71 18.9 69.5C19.4 69.3 19.9 69.1 20.3 68.6C20.4 68.4 20.4 68.2 20.2 68.1C20 68 19.8 68 19.7 68.2C19.4 68.5 19.1 68.7 18.6 68.8H18.5C18.2 68.6 18 68.4 17.9 68.1C18 67.2 19 66 19.7 65.4C21.3 64.2 23.4 63.6 25.6 63.6H26.2V66.5L26.1 67.5C26 68.9 25.9 68.9 25.4 69.1ZM41.2 121.1L41.3 121.2C39.4 121.7 37.9 122.9 36.5 124.1C35.6 124.9 34.7 125.7 33.6 126.2C33 126.6 32.5 126.7 32 126.7C31 126.7 30.5 125.9 30.3 125.5C30.4 124.7 30.8 124 31.3 123.3C31.6 122.9 31.9 122.4 32.1 121.9C32.2 121.7 32.1 121.5 31.9 121.4C31.7 121.3 31.5 121.4 31.4 121.6C31.2 122 30.9 122.4 30.7 122.9C30.3 123.6 29.8 124.3 29.6 125.1H29.5C29.4 125.1 29.3 125 29.1 124.8C27.1 121.6 30.5 119.3 33.3 117.3L34.2 116.7H34.4L34.6 116.8L35.8 117.7L36.2 118C36.6 118.3 37 118.6 37.5 118.9L38 119.2L39.3 120L39.9 120.3C40.3 120.6 40.7 120.8 41.2 121.1ZM93.5 115.8C95.6 117.2 98.5 120.2 98.5 122.5C98.5 123.3 98.1 124 97.4 124.5C97.3 124.2 97.2 123.9 97 123.6C96.7 122.7 96.3 121.7 95.5 121C95.4 120.9 95.1 120.9 95 121C94.9 121.1 94.9 121.4 95 121.5C95.7 122.1 96 123 96.3 123.9L96.7 125C96.1 125.5 95.5 125.8 94.9 125.8C93.5 125.8 92.3 124.3 91 122.8C90 121.7 89 120.5 87.9 119.8L88.2 119.6C88.5 119.5 88.7 119.3 88.9 119.1L90.2 118.2L91 117.6L92.4 116.5C92.6 116.3 92.8 116.1 93.1 115.9C93.3 116 93.4 115.9 93.5 115.8ZM98.2 108.3C97 110.8 94.8 114 91.1 116.8L90.9 116.9C90.6 117.2 90.2 117.4 89.8 117.7L88.7 118.4L88.5 118.5L86.9 119.4L86.2 119.8C80.8 122.6 73.4 124.6 63 124.6H60.4C52.3 124.3 46.1 122.6 41.5 120.4H41.4C40.3 119.9 39.3 119.3 38.3 118.7C33.7 115.8 31.2 112.6 30 110.7C24.2 101.3 25.2 88.2 26.2 76.6C26.4 73.6 26.7 70.9 26.8 68.2L26.9 66.4L27 66.3V66.2L26.9 65.7V63C26.8 59 26.5 55.3 26.2 51.5C25.4 42.5 24.7 33.1 27.1 24.1C27.3 23.3 27.5 22.5 27.8 21.8V21.7L27.9 21.4C28 21 28.2 20.6 28.4 20.2C28.5 19.9 28.6 19.7 28.7 19.5L29 18.7L29.4 17.9L29.7 17.3C29.8 17 30 16.7 30.1 16.5C30.2 16.3 30.3 16.1 30.4 16C30.6 15.6 30.9 15.2 31.1 14.9C31.3 14.6 31.5 14.3 31.7 14.1C31.8 13.9 31.9 13.8 32.1 13.6L32.7 12.8C32.8 12.7 32.9 12.6 33 12.4L33.9 11.4L34 11.3L35.2 10.1L35.4 9.9C42.4 3.9 52.4 2.1 62.5 1.3C68.4 1.3 76 1.6 82.5 4C85.7 5.2 88.5 6.8 90.9 8.9C91.2 9.2 91.5 9.5 91.8 9.7L92.7 10.6L93.7 11.8L94.3 12.5L95.3 13.9L95.8 14.6L96.7 16.1L97.1 16.9C97.4 17.5 97.6 18.2 97.8 18.9C97.8 19 97.9 19.1 97.9 19.3C98.1 19.9 98.3 20.5 98.5 21L98.6 21.3C101.6 31.2 101.7 41.5 101.7 51.7C101.7 55.2 101.7 59.1 101.9 62.1V62.7C101.9 63.6 102 64.5 102 65.2V65.3L102.1 67.2C102.1 67.8 102.2 68.5 102.2 69.2V69.5C103.1 82.1 104.1 96.6 98.2 108.3ZM109.4 68.3C108.9 68.1 108.5 68 108.2 67.6C108.1 67.4 107.9 67.4 107.7 67.5C107.5 67.6 107.5 67.8 107.6 68C108 68.5 108.5 68.7 109 68.9C108.8 70.4 108 70.6 107.4 70.6C106.3 70.6 104.9 69.9 103.9 69.2C103.5 68.9 103.2 68.8 102.9 68.7L102.7 66.3C102.7 65.9 102.7 65.5 102.6 65.2C102.6 64.6 102.5 63.9 102.5 63.2C104.6 63.3 106.6 63.9 108.1 65C108.8 65.5 109.9 66.8 109.8 67.6C109.9 67.9 109.7 68.2 109.4 68.3ZM77.7 7.2C73.9 7.2 70.2 8.8 67.8 11.3C65.6 13.7 64.5 16.7 64.7 20.1V20.2C66 27.4 72 30 76.8 30C81 30 84.9 28.2 87.2 25.3C89.2 22.8 89.9 19.5 89 16C87.5 9.6 82.2 7.2 77.7 7.2ZM86.6 24.7C84.5 27.4 80.7 29 76.7 29C74 29 71.5 28.3 69.5 26.9C67.3 25.3 65.9 23 65.4 20C65.2 16.8 66.2 14 68.3 11.8C70.6 9.3 74.1 7.9 77.7 7.9C81.9 7.9 86.9 10 88.3 16C89.1 19.4 88.5 22.4 86.6 24.7ZM59.6 19.2C59.2 11.9 53.4 8.6 47.8 8.6C43.7 8.6 39.9 10.3 37.5 13.1C35.4 15.7 34.7 19 35.4 22.7C37 29 42.4 31.2 46.9 31.2C50.7 31.2 54.3 29.7 56.7 27.2C58.8 25 59.8 22.2 59.6 19.2ZM47 30.5C42.8 30.5 37.7 28.4 36.2 22.5C35.5 19 36.2 15.9 38.2 13.5C40.4 10.8 44 9.2 47.9 9.2C55.6 9.2 58.7 14.6 59 19.2C59.2 22.1 58.3 24.7 56.4 26.7C54.1 29.1 50.6 30.5 47 30.5ZM41.6 16.6C39.7 16.6 38.1 18.3 38.1 20.4C38.1 22.5 39.7 24.2 41.6 24.2C43.5 24.2 45.1 22.5 45.1 20.4C45.1 18.3 43.5 16.6 41.6 16.6ZM43.2 22.3C42.7 22.3 42.4 21.9 42.4 21.3C42.4 20.8 42.8 20.3 43.2 20.3C43.7 20.3 44 20.7 44 21.3C44 21.8 43.6 22.3 43.2 22.3ZM71.1 15.7C69.2 15.7 67.6 17.4 67.6 19.5C67.6 21.6 69.2 23.3 71.1 23.3C73 23.3 74.6 21.6 74.6 19.5C74.6 17.4 73.1 15.7 71.1 15.7ZM72.7 21.3C72.2 21.3 71.9 20.9 71.9 20.3C71.9 19.8 72.3 19.3 72.7 19.3C73.2 19.3 73.5 19.7 73.5 20.3C73.5 20.9 73.2 21.3 72.7 21.3ZM68.5 30.3C68.6 30 68.6 29.6 68.5 29.2C67.4 25.1 58.1 25.7 58.1 30.5C58.1 30.1 58 29.9 58 29.7C58 30 58.1 30.3 58.1 30.5C56.6 30.7 55.3 31.7 54.5 33.2C53.8 34.6 53.7 36.1 54.4 37.4C55 38.5 56 39.1 57.2 39.1C56.8 41.2 57.2 43.7 58.2 45.1C58.7 45.8 59.4 46.2 60 46.2C60.9 46.2 61.9 45.5 62.8 44.4C63.4 45.4 64.3 46.1 65.5 46.3H65.7C65.9 46.2 66.1 46.1 66.3 46.1C67 45.9 67.7 45.6 68.2 44.8V44.7C68.5 43.3 68.3 41.8 68.2 40.4L68.1 39.2C68.6 39.4 69.1 39.5 69.6 39.5C70.6 39.5 71.4 39.1 72.1 38.3C73 37.3 73.3 36.3 73.1 35.3C73 33 70.7 31.3 68.5 30.3ZM62.6 43.5C61.7 44.6 60.9 45.2 60.2 45.2C59.7 45.2 59.3 44.9 58.9 44.5C58 43.3 57.6 40.8 58 38.9L58.5 38.8H58.7L59.3 38.7H59.4L60.6 38.3L61.2 38.1C61.3 38.1 61.3 38.1 61.4 38C61.6 37.9 61.7 37.9 61.9 37.9C62.1 37.8 62.3 37.8 62.6 37.7H62.8L62.7 39C62.6 40.3 62.5 41.9 62.6 43.5ZM67.8 40.2C67.9 41.5 68 42.9 67.8 44.2C67.5 44.8 67 44.9 66.3 45.2L65.7 45.4C64.7 45.2 63.9 44.6 63.5 43.6C63.3 42.1 63.4 40.6 63.6 39L63.7 37.5H63.8C64.9 37.5 65.9 38 66.9 38.4L67.6 38.7C67.7 39.1 67.8 39.6 67.8 40.2ZM71.9 37.5C71.3 38.2 70.6 38.5 69.9 38.5C69.3 38.5 68.8 38.3 68.2 38.1C67.9 38 67.6 37.9 67.3 37.7C66.2 37.3 65.1 36.8 63.9 36.8H62.6L62.2 36.9C62.1 36.9 62 36.9 61.9 37C61.7 37 61.6 37.1 61.4 37.2C61.3 37.2 61.2 37.2 61.2 37.3L60.4 37.6C60.3 37.7 60.1 37.7 60 37.7L59.7 37.8L59.4 37.9C59.2 38 59.1 38 58.9 38C58.8 38 58.7 38 58.6 38.1L58.1 38.2H57.9L57.3 38.3C56.3 38.3 55.6 37.9 55.1 37C54.5 36 54.5 34.7 55.2 33.5C55.9 32.3 57.1 31.4 58.3 31.2C59.5 33.7 66.4 33.4 68.2 31C70.2 31.9 72.4 33.5 72.7 35.2C72.9 35.9 72.6 36.7 71.9 37.5Z" fill="black"/>
</svg>
