<svg width="128" height="128" viewBox="0 0 128 128" fill="none" xmlns="http://www.w3.org/2000/svg">
<path fill-rule="evenodd" clip-rule="evenodd" d="M21.1001 68.6999C21.3001 72.1999 24.8001 70.5999 26.4001 69.4999C27.9001 68.3999 28.4001 69.2999 28.5001 67.1999C28.6001 65.7999 28.7001 64.4999 28.7001 63.0999C26.4001 62.8999 23.9001 63.3999 22.0001 64.7999C21.1001 65.4999 19.2001 67.7999 21.1001 68.6999Z" fill="#F6D2A2"/>
<path d="M23.0001 71.1998C22.3001 71.1998 21.0001 70.8998 20.8001 68.8998C20.2001 68.4998 20.0001 67.9998 20.0001 67.6998C19.9001 66.4998 21.2001 65.0998 21.9001 64.5998C23.5001 63.3998 25.6001 62.7998 27.8001 62.7998H29.1001V63.0998C29.2001 64.1998 29.1001 65.2998 29.0001 66.2998C29.0001 66.5998 29.0001 66.8998 28.9001 67.1998C28.8001 68.6998 28.5001 68.8998 27.8001 69.1998C27.5001 69.2998 27.2001 69.3998 26.7001 69.7998C26.2001 70.0998 24.5001 71.1998 23.0001 71.1998ZM27.8001 63.3998C25.7001 63.3998 23.8001 63.9998 22.3001 65.0998C21.6001 65.5998 20.6001 66.7998 20.7001 67.5998C20.7001 67.8998 20.9001 68.1998 21.3001 68.3998L21.5001 68.4998V68.6998C21.6001 70.2998 22.4001 70.4998 23.0001 70.4998C24.0001 70.4998 25.4001 69.7998 26.3001 69.1998C26.9001 68.7998 27.3001 68.6998 27.6001 68.5998C28.1001 68.3998 28.2001 68.3998 28.3001 67.1998C28.3001 66.8998 28.3001 66.5998 28.4001 66.2998C28.5001 65.3998 28.5001 64.3998 28.5001 63.4998C28.2001 63.3998 28.0001 63.3998 27.8001 63.3998Z" fill="black"/>
<path fill-rule="evenodd" clip-rule="evenodd" d="M21.1001 68.6999C21.6001 68.4999 22.2001 68.3999 22.5001 67.8999L21.1001 68.6999Z" fill="#C6B198"/>
<path d="M21.1 69C21 69 20.8 68.9 20.8 68.8C20.7 68.6 20.8 68.4 21 68.4C21.1 68.4 21.2 68.3 21.2 68.3C21.6 68.1 22 68 22.2 67.7C22.3 67.6 22.5 67.5 22.7 67.6C22.8 67.7 22.9 67.9 22.8 68.1C22.4 68.6 21.9 68.8 21.5 68.9L21.3 69H21.1Z" fill="black"/>
<path fill-rule="evenodd" clip-rule="evenodd" d="M29.2998 26.4002C15.6998 22.6002 25.7998 5.30015 36.6998 12.4002L29.2998 26.4002Z" fill="#6AD7E5"/>
<path d="M29.5002 26.7999L29.2002 26.6999C22.2002 24.6999 22.3002 19.6999 22.5002 18.1999C23.0002 14.3999 26.6002 10.3999 31.4002 10.3999C33.3002 10.3999 35.1002 10.9999 36.9002 12.1999L37.2002 12.3999L29.5002 26.7999ZM31.4002 11.0999C26.9002 11.0999 23.6002 14.7999 23.1002 18.2999C22.6002 21.8999 24.8002 24.6999 29.1002 25.9999L36.2002 12.4999C34.7002 11.5999 33.1002 11.0999 31.4002 11.0999Z" fill="black"/>
<path fill-rule="evenodd" clip-rule="evenodd" d="M89.6001 11.1C100.3 3.59997 110.1 20.6 97.6001 24.9L89.6001 11.1Z" fill="#6AD7E5"/>
<path d="M97.5002 25.2998L89.2002 10.9998L89.5002 10.7998C91.4002 9.4998 93.3002 8.7998 95.2002 8.7998C99.8002 8.7998 103.1 12.5998 103.8 16.2998C104.1 17.7998 104.4 22.8998 97.8002 25.0998L97.5002 25.2998ZM90.1002 11.2998L97.8002 24.5998C101.7 23.1998 103.7 20.1998 103.1 16.5998C102.5 13.1998 99.4002 9.6998 95.2002 9.6998C93.5002 9.5998 91.8002 10.0998 90.1002 11.2998Z" fill="black"/>
<path fill-rule="evenodd" clip-rule="evenodd" d="M92 112.3C94.7 114 99.7 119.1 95.6 121.6C91.7 125.2 89.5 117.6 86 116.6C87.5 114.6 89.4 112.7 92 112.3Z" fill="#F6D2A2"/>
<path d="M93.4999 122.9C91.8999 122.9 90.4999 121.3 89.2999 119.8C88.1999 118.6 87.0999 117.3 85.8999 116.9L85.3999 116.8L85.6999 116.4C86.8999 114.7 88.8999 112.5 91.8999 112H91.9999L92.0999 112.1C93.7999 113.2 97.4999 116.3 97.3999 119.2C97.3999 120.3 96.7999 121.2 95.6999 121.9C94.9999 122.6 94.2999 122.9 93.4999 122.9ZM86.4999 116.4C87.6999 116.9 88.6999 118.2 89.6999 119.3C90.8999 120.8 92.0999 122.1 93.3999 122.1C93.9999 122.1 94.5999 121.8 95.1999 121.2H95.2999C96.1999 120.6 96.6999 119.9 96.6999 119C96.6999 116.7 93.7999 113.8 91.7999 112.5C89.9999 113 88.1999 114.2 86.4999 116.4ZM95.5999 121.9C95.4999 121.9 95.3999 121.8 95.2999 121.7C95.0999 121.3 94.8999 120.8 94.7999 120.4C94.4999 119.6 94.1999 118.8 93.5999 118.2C93.4999 118.1 93.4999 117.9 93.5999 117.7C93.6999 117.6 93.8999 117.6 94.0999 117.7C94.7999 118.4 95.1999 119.3 95.4999 120.2L95.9999 121.4C96.0999 121.6 95.9999 121.8 95.8999 121.9H95.5999Z" fill="black"/>
<path fill-rule="evenodd" clip-rule="evenodd" d="M43.2002 118.1C40.0002 118.6 38.2002 121.5 35.5002 123C33.0002 124.5 32.0002 122.5 31.8002 122.1C31.4002 121.9 31.4002 122.3 30.8002 121.7C28.5002 118 33.2002 115.3 35.7002 113.5C39.2002 112.7 41.4002 115.7 43.2002 118.1Z" fill="#F6D2A2"/>
<path d="M33.8002 123.8C32.5002 123.8 31.8002 122.7 31.6002 122.3H31.5002C31.2002 122.3 31.0002 122.2 30.6002 121.8V121.7C28.4002 118.2 32.2002 115.5 34.7002 113.7L35.6002 113.1H35.8002C36.2002 113 36.5002 113 36.9002 113C39.9002 113 41.8002 115.6 43.4002 117.7L43.9002 118.4L43.3002 118.5C41.4002 118.8 40.0002 120 38.6002 121.2C37.7002 122 36.8002 122.7 35.8002 123.3C35.0002 123.6 34.4002 123.8 33.8002 123.8ZM31.6002 121.7C31.7002 121.7 31.8002 121.7 32.0002 121.8H32.1002L32.2002 121.9C32.4002 122.2 32.9002 123.1 33.9002 123.1C34.4002 123.1 34.9002 122.9 35.4002 122.6C36.4002 122.1 37.3002 121.3 38.1002 120.6C39.4002 119.5 40.8002 118.3 42.6002 117.8C41.1002 115.8 39.3002 113.6 36.8002 113.6C36.5002 113.6 36.2002 113.6 35.9002 113.7L35.1002 114.3C32.5002 116.1 29.3002 118.4 31.2002 121.4C31.3002 121.6 31.4002 121.7 31.6002 121.7ZM31.8002 122.4C31.6002 122.4 31.4002 122.2 31.5002 122C31.6002 121 32.1002 120.3 32.6002 119.5C32.9002 119.1 33.1002 118.7 33.3002 118.3C33.4002 118.1 33.6002 118.1 33.7002 118.1C33.9002 118.2 33.9002 118.4 33.9002 118.5C33.7002 119 33.4002 119.4 33.1002 119.8C32.6002 120.5 32.2002 121.1 32.1002 121.9C32.1002 122.3 32.0002 122.4 31.8002 122.4Z" fill="black"/>
<path fill-rule="evenodd" clip-rule="evenodd" d="M29.8999 21.7C28.0999 20.8 26.7999 19.5 27.8999 17.4C28.8999 15.5 30.7999 15.7 32.5999 16.6L29.8999 21.7ZM94.7999 19.9C96.5999 19 97.8999 17.7 96.7999 15.6C95.7999 13.7 93.8999 13.9 92.0999 14.8L94.7999 19.9Z" fill="black"/>
<path fill-rule="evenodd" clip-rule="evenodd" d="M107.1 68.1999C106.9 71.6999 103.4 70.0999 101.8 68.9999C100.3 67.8999 99.8 68.7999 99.7 66.6999C99.6 65.2999 99.5 63.9999 99.5 62.5999C101.8 62.3999 104.3 62.8999 106.2 64.2999C107.2 65.0999 109 67.2999 107.1 68.1999Z" fill="#F6D2A2"/>
<path d="M105.3 70.6998C103.8 70.6998 102.1 69.5998 101.6 69.2998C101.1 68.9998 100.8 68.7998 100.5 68.6998C99.7001 68.3998 99.5001 68.1998 99.4001 66.6998C99.4001 66.3998 99.4001 66.0998 99.3001 65.7998C99.2001 64.7998 99.1001 63.6998 99.2001 62.5998V62.2998H100.5C102.7 62.2998 104.8 62.8998 106.4 64.0998C107.1 64.5998 108.4 65.9998 108.3 67.1998C108.3 67.5998 108.1 68.0998 107.5 68.3998C107.3 70.3998 106 70.6998 105.3 70.6998ZM99.8001 62.9998C99.8001 63.8998 99.8001 64.8998 99.9001 65.7998C99.9001 66.0998 99.9001 66.3998 100 66.6998C100.1 67.8998 100.2 67.8998 100.7 68.0998C101 68.1998 101.4 68.3998 102 68.6998C102.9 69.2998 104.3 69.9998 105.3 69.9998C105.9 69.9998 106.7 69.7998 106.8 68.1998V67.9998L107 67.8998C107.4 67.6998 107.6 67.4998 107.6 67.0998C107.7 66.2998 106.7 65.0998 106 64.5998C104.5 63.4998 102.5 62.8998 100.5 62.8998C100.3 62.9998 100.1 62.9998 99.8001 62.9998Z" fill="black"/>
<path fill-rule="evenodd" clip-rule="evenodd" d="M107.1 68.1999C106.6 67.9999 106 67.8999 105.7 67.3999L107.1 68.1999Z" fill="#C6B198"/>
<path d="M107.1 68.6H107L106.8 68.5C106.3 68.3 105.8 68.2 105.5 67.7C105.4 67.6 105.4 67.3 105.6 67.2C105.7 67.1 106 67.1 106.1 67.3C106.3 67.6 106.7 67.7 107.1 67.9C107.2 67.9 107.3 68 107.3 68C107.5 68.1 107.6 68.3 107.5 68.4C107.4 68.5 107.2 68.6 107.1 68.6Z" fill="black"/>
<path fill-rule="evenodd" clip-rule="evenodd" d="M62.7999 4C76.3999 4 89.0999 5.9 95.7999 19C101.8 33.6 99.5999 49.4 100.6 64.9C101.4 78.2 103.1 93.5 96.9999 105.8C90.4999 118.7 74.2999 122 60.9999 121.5C50.4999 121.1 37.8999 117.7 31.8999 108.1C24.9999 96.9 28.1999 80.2 28.6999 67.7C29.2999 52.9 24.6999 38 29.5999 23.6C34.4999 8.5 48.0999 5.1 62.7999 4Z" fill="#6AD7E5"/>
<path d="M63.3 121.9H60.8C56.7 121.8 50.5 121.1 44.4 118.6C38.5 116.2 34.2 112.8 31.4 108.3C25.8 99.1999 26.8 86.6999 27.7 75.5999C27.9 72.7999 28.1 70.1999 28.2 67.6999C28.4 62.4999 28 57.0999 27.5 51.9999C26.7 42.5999 25.9 32.8999 29 23.4999C31.4 16.4999 35.7 11.4999 42.2 8.2999C47.3 5.7999 53.6 4.3999 62.6 3.6999C76 3.5999 89.3 5.4999 96 18.7999C100.4 29.4999 100.4 40.9999 100.5 52.0999C100.5 56.2999 100.5 60.5999 100.8 64.7999C100.9 66.0999 101 67.3999 101 68.6999C101.8 80.8999 102.7 94.6999 97.1 105.9C94.3 111.6 89.4 115.8 82.7 118.5C77.3 120.7 70.5 121.9 63.3 121.9ZM62.8 4.2999C48.7 5.3999 34.9 8.49991 29.8 23.6999C26.7 32.9999 27.5 42.5999 28.3 51.8999C28.7 57.0999 29.2 62.3999 29 67.6999C28.9 70.1999 28.7 72.7999 28.5 75.5999C27.6 86.5999 26.6 98.9999 32.1 107.9C34.4 111.6 41.8001 120.4 60.9001 121.1H63.4001C85.5001 121.1 93.7 111.3 96.7 105.5C102.2 94.4999 101.3 80.6999 100.6 68.5999C100.5 67.2999 100.4 65.9999 100.4 64.6999C100.2 60.4999 100.1 56.1999 100.1 51.9999C100 40.9999 100 29.4999 95.7 18.8999C92.7 12.9999 88.2001 8.9999 82 6.6999C75.6 4.5999 68.4 4.2999 62.8 4.2999Z" fill="black"/>
<path fill-rule="evenodd" clip-rule="evenodd" d="M65.2 22.2C67.6 36.4 90.8 32.6 87.5 18.3C84.5 5.49999 64.4 9.09999 65.2 22.2Z" fill="white"/>
<path d="M76.2 31.5001C71.7 31.5001 66 29.1001 64.8 22.3001C64.6 19.1001 65.6 16.2001 67.7 14.0001C70 11.5001 73.5 10.1001 77.1 10.1001C81.3 10.1001 86.3 12.3001 87.7 18.4001C88.5 21.8001 87.9 24.8001 86 27.2001C83.9 29.8001 80.2 31.5001 76.2 31.5001ZM65.5 22.2001C66 25.0001 67.3 27.2001 69.4 28.8001C71.2 30.2001 73.7 30.9001 76.2 30.9001C79.9 30.9001 83.5 29.3001 85.5 26.8001C87.3 24.6001 87.8 21.7001 87.1 18.5001C85.8 12.8001 81.1 10.8001 77.1 10.8001C73.7 10.8001 70.4 12.2001 68.2 14.5001C66.3 16.5001 65.3 19.2001 65.5 22.2001Z" fill="black"/>
<path fill-rule="evenodd" clip-rule="evenodd" d="M37.5001 24.4999C40.7001 36.7999 60.4001 33.6999 59.7001 21.2999C58.8001 6.49994 34.4001 9.29994 37.5001 24.4999Z" fill="white"/>
<path d="M48 32.7002C43.7 32.7002 38.7 30.6002 37.1 24.6002C36.4 21.1002 37.1 17.9002 39.1 15.5002C41.3 12.8002 44.9 11.2002 48.8 11.2002C54 11.2002 59.5 14.3002 59.9 21.3002C60.1 24.2002 59.2 26.8002 57.2 28.9002C55.1 31.2002 51.6 32.7002 48 32.7002ZM48.8 11.9002C45.1 11.9002 41.7 13.4002 39.6 15.9002C37.7 18.2002 37.1 21.1002 37.8 24.4002C39.2 30.0002 44 32.0002 48 32.0002C51.4 32.0002 54.7 30.7002 56.8 28.4002C58.6 26.5002 59.5 24.0002 59.3 21.3002C59.1 17.0002 56.2 11.9002 48.8 11.9002Z" fill="black"/>
<path fill-rule="evenodd" clip-rule="evenodd" d="M68.0002 39.1999C68.0002 40.9999 68.4002 43.0999 68.1002 45.0999C67.6002 45.9999 66.7002 46.0999 65.9002 46.3999C64.8002 46.1999 63.9002 45.4999 63.4002 44.4999C63.1002 42.2999 63.5002 40.0999 63.6002 37.8999L68.0002 39.1999Z" fill="white"/>
<path d="M65.8998 46.8001C64.5998 46.6001 63.5998 45.8001 63.0998 44.7001C62.8998 43.1001 62.9998 41.6001 63.0998 40.1001C63.1998 39.4001 63.1998 38.7001 63.1998 38.0001V37.6001L68.2998 39.2001V39.4001C68.2998 40.0001 68.3998 40.6001 68.3998 41.3001C68.4998 42.6001 68.5998 44.0001 68.3998 45.3001V45.4001C67.9998 46.2001 67.2998 46.4001 66.5998 46.7001C66.3998 46.6001 66.1998 46.7001 65.8998 46.8001ZM63.6998 44.4001C64.0998 45.3001 64.8998 45.9001 65.7998 46.1001C65.9998 46.0001 66.1998 46.0001 66.2998 45.9001C66.8998 45.7001 67.3998 45.5001 67.6998 45.0001C67.8998 43.8001 67.7998 42.5001 67.6998 41.2001C67.6998 40.6001 67.5998 40.0001 67.5998 39.5001L63.7998 38.3001C63.7998 38.9001 63.6998 39.5001 63.6998 40.0001C63.5998 41.6001 63.4998 43.0001 63.6998 44.4001Z" fill="black"/>
<path fill-rule="evenodd" clip-rule="evenodd" d="M46.3002 22.4999C46.3002 24.4999 44.8002 26.0999 43.0002 26.0999C41.2002 26.0999 39.7002 24.4999 39.7002 22.4999C39.7002 20.4999 41.2002 18.8999 43.0002 18.8999C44.8002 18.8999 46.3002 20.4999 46.3002 22.4999Z" fill="black"/>
<path fill-rule="evenodd" clip-rule="evenodd" d="M45.2001 23.2999C45.2001 23.7999 44.8001 24.1999 44.4001 24.1999C44.0001 24.1999 43.6001 23.7999 43.6001 23.2999C43.6001 22.7999 44.0001 22.3999 44.4001 22.3999C44.9001 22.3999 45.2001 22.7999 45.2001 23.2999Z" fill="white"/>
<path fill-rule="evenodd" clip-rule="evenodd" d="M74.2001 21.6C74.2001 23.6 72.7001 25.2 70.9001 25.2C69.1001 25.2 67.6001 23.6 67.6001 21.6C67.6001 19.6 69.1001 18 70.9001 18C72.7001 18 74.2001 19.6 74.2001 21.6Z" fill="black"/>
<path fill-rule="evenodd" clip-rule="evenodd" d="M73.2002 22.4C73.2002 22.9 72.9002 23.3 72.4002 23.3C72.0002 23.3 71.6002 22.9 71.6002 22.4C71.6002 21.9 71.9002 21.5 72.4002 21.5C72.8002 21.5 73.2002 21.9 73.2002 22.4ZM58.4002 39C56.9002 42.5 59.2002 49.6 63.2002 44.4C62.9002 42.2 63.3002 40 63.4002 37.8L58.4002 39Z" fill="white"/>
<path d="M60.4999 46.5998C59.7999 46.5998 59.0999 46.1998 58.5999 45.3998C57.4999 43.7998 57.2999 40.7998 58.0999 38.8998L58.1999 38.6998L63.6999 37.2998V37.6998L63.5999 39.8998C63.4999 41.3998 63.3999 42.7998 63.5999 44.2998V44.3998L63.4999 44.4998C62.4999 45.8998 61.4999 46.5998 60.4999 46.5998ZM58.6999 39.2998C58.0999 40.9998 58.2999 43.6998 59.1999 44.9998C59.5999 45.5998 59.9999 45.8998 60.4999 45.8998C61.1999 45.8998 61.9999 45.2998 62.7999 44.2998C62.5999 42.7998 62.6999 41.2998 62.8999 39.8998L62.9999 38.1998L58.6999 39.2998Z" fill="black"/>
<path fill-rule="evenodd" clip-rule="evenodd" d="M58.8999 32.1998C56.1999 32.3998 53.9999 35.6998 55.3999 38.1998C57.2999 41.5998 61.3999 37.8998 63.9999 38.1998C66.9999 38.2998 69.3999 41.3998 71.7999 38.7998C74.4999 35.8998 70.5999 33.0998 67.6999 31.7998L58.8999 32.1998Z" fill="#F6D2A2"/>
<path d="M69.7002 40.2C68.8002 40.2 67.9002 39.8 67.0002 39.4C66.1002 39 65.1002 38.6 64.0002 38.6H63.7002C62.9002 38.6 62.0002 38.9 61.0002 39.3C59.9002 39.7 58.8002 40 57.8002 40C56.6002 40 55.7002 39.5 55.1002 38.4C54.4002 37.2 54.5002 35.8 55.2002 34.5C56.0002 33 57.4002 32.1 58.9002 31.9L67.8002 31.5H67.9002C70.1002 32.4 72.6002 34.1 73.1002 36.1C73.3002 37.1 73.0002 38.1 72.2002 39C71.4002 39.9 70.6002 40.2 69.7002 40.2ZM64.1002 38C65.2002 38 66.3002 38.5 67.3002 38.9C68.2002 39.3 69.0002 39.6 69.8002 39.6C70.5002 39.6 71.1002 39.3 71.7002 38.7C72.4002 38 72.6002 37.2 72.5002 36.4C72.1002 34.7 69.7002 33.1 67.8002 32.3L59.1002 32.7C57.8002 32.8 56.6002 33.7 55.9002 34.9C55.3002 36 55.3002 37.2 55.8002 38.2C56.3002 39.1 56.9002 39.5 57.9002 39.5C58.8002 39.5 59.8002 39.1 60.8002 38.8C61.9002 38.4 62.8002 38.1 63.8002 38.1C63.8002 37.9 63.9002 37.9 64.1002 38Z" fill="#231F20"/>
<path fill-rule="evenodd" clip-rule="evenodd" d="M58.6 32.0999C58.4 27.3999 67.4 26.7999 68.4 30.6999C69.5 34.6999 59 35.5999 58.6 32.0999Z" fill="black"/>
</svg>
