<svg width="128" height="128" viewBox="0 0 128 128" fill="none" xmlns="http://www.w3.org/2000/svg">
<path d="M108.2 64.7998C108.1 64.6998 108 64.5998 107.8 64.5998L107.7 64.4998C107.6 64.3998 107.5 64.3998 107.5 64.2998L107.4 64.1998C107.3 64.1998 107.2 64.0998 107.2 64.0998L107 63.9998C106.9 63.9998 106.8 63.8998 106.8 63.8998L106.6 63.7998C106.5 63.7998 106.4 63.6998 106.4 63.6998C106.3 63.6998 106.3 63.6998 106.2 63.5998L105.9 63.4998C105.8 63.4998 105.8 63.4998 105.7 63.3998L105.4 63.2998H105.3L104.9 63.1998H104.7C104.6 63.1998 104.5 63.1998 104.4 63.0998H102.1C101.5 49.7998 102.7 36.2998 99.3001 23.4998C112.2 18.8998 102.1 1.1998 90.9001 9.0998C83.5001 2.6998 73.3001 1.2998 62.6001 1.2998C52.1001 1.9998 42.2001 4.1998 35.2001 9.6998C32.4001 8.2998 29.7001 7.89981 27.3001 8.5998V8.6998C27.2001 8.6998 27.0001 8.7998 26.9001 8.8998C26.8001 8.8998 26.6001 8.9998 26.5001 9.0998H26.4001C26.3001 9.0998 26.2001 9.1998 26.0001 9.2998H25.9001L25.6001 9.4998H25.5001L25.2001 9.6998H25.1001L24.8001 9.8998C24.8001 9.8998 24.7001 9.8998 24.7001 9.9998L24.4001 10.1998C24.4001 10.1998 24.3001 10.1998 24.3001 10.2998L24.0001 10.4998C24.0001 10.4998 23.9001 10.4998 23.9001 10.5998L23.6001 10.7998L23.5001 10.8998C23.4001 10.9998 23.3001 10.9998 23.3001 11.0998L23.2001 11.1998L23.0001 11.3998L22.9001 11.4998C22.8001 11.5998 22.8001 11.6998 22.7001 11.6998L22.6001 11.7998C22.5001 11.8998 22.5001 11.9998 22.4001 11.9998L22.3001 12.0998C22.2001 12.1998 22.2001 12.2998 22.1001 12.2998L22.0001 12.3998C21.9001 12.4998 21.9001 12.5998 21.8001 12.5998L21.7001 12.6998C21.6001 12.7998 21.6001 12.8998 21.5001 12.8998L21.4001 12.9998L21.3001 13.2998C21.3001 13.2998 21.3001 13.3998 21.2001 13.3998L21.1001 13.6998C21.1001 13.6998 21.1001 13.7998 21.0001 13.7998L20.9001 14.0998C20.9001 14.0998 20.9001 14.1998 20.8001 14.1998L20.7001 14.4998C20.7001 14.4998 20.7001 14.5998 20.6001 14.5998C21.0001 14.8998 21.0001 14.9998 21.0001 14.9998V15.0998L20.9001 15.3998V15.4998C20.9001 15.5998 20.9001 15.6998 20.8001 15.7998V18.8998C20.8001 18.9998 20.8001 19.0998 20.9001 19.1998V19.2998L21.0001 19.5998V19.6998L21.1001 19.9998C21.1001 19.9998 21.1001 20.0998 21.2001 20.0998L21.3001 20.3998C21.3001 20.3998 21.3001 20.4998 21.4001 20.4998L21.5001 20.7998C21.5001 20.7998 21.5001 20.8998 21.6001 20.8998L21.8001 21.1998C21.8001 21.1998 21.8001 21.2998 21.9001 21.2998L22.1001 21.5998C22.1001 21.5998 22.1001 21.6998 22.2001 21.6998L22.4001 21.9998L22.5001 22.0998L22.8001 22.3998L23.1001 22.6998H23.2001C24.2001 23.5998 25.2001 24.2998 27.2001 24.8998V24.6998C23.0001 37.2998 26.5001 49.9998 26.7001 62.9998C26.1001 62.9998 26.0001 63.3998 25.0001 63.4998H24.5001C24.4001 63.4998 24.2001 63.4998 24.0001 63.5998C23.9001 63.5998 23.7001 63.5998 23.6001 63.6998L23.2001 63.7998H23.1001L22.7001 63.8998H22.6001L22.3001 63.9998H22.2001L21.9001 64.0998C21.9001 64.0998 21.8001 64.0998 21.8001 64.1998L21.5001 64.2998L21.3001 64.3998C21.2001 64.3998 21.1001 64.4998 21.1001 64.4998L20.9001 64.5998L20.7001 64.6998C20.6001 64.6998 20.5001 64.7998 20.5001 64.7998L20.3001 64.8998L19.9001 65.1998C19.8001 65.2998 19.7001 65.3998 19.6001 65.3998L19.2001 65.7998L19.1001 65.8998C19.0001 66.0998 18.8001 66.2998 18.7001 66.3998L18.5001 66.6998L18.2001 67.2998L18.1001 67.5998V67.8998C18.1001 68.3998 18.3001 68.7998 19.0001 69.0998C19.2001 72.7998 22.9001 71.0998 24.6001 69.8998L24.7001 69.7998C24.9001 69.5998 25.2001 69.4998 25.3001 69.4998H25.4001L25.6001 69.3998C25.7001 69.3998 25.7001 69.3998 25.8001 69.2998C26.0001 69.1998 26.2001 69.1998 26.3001 69.0998C26.4001 69.0998 26.4001 68.9998 26.4001 68.8998L26.5001 68.7998C26.6001 68.5998 26.7001 68.1998 26.7001 67.5998L26.8001 66.2998V68.0998C26.3001 81.1998 22.8001 98.7998 30.1001 110.6C31.4001 112.7 33.0001 114.5 34.8001 116H34.3001C34.1001 116.2 33.8001 116.4 33.5001 116.6L32.6001 117.2L32.3001 117.4L31.7001 117.8L30.8001 118.5L29.7001 119.5C29.5001 119.7 29.4001 119.9 29.3001 120L28.9001 120.6L28.7001 120.9C28.6001 121.1 28.5001 121.3 28.5001 121.5L28.4001 121.8C28.2001 122.6 28.4001 123.5 29.0001 124.5L29.4001 124.9H29.6001C29.7001 124.9 29.8001 124.9 30.0001 125C30.2001 125.4 31.2001 127.5 33.9001 125.9C36.7001 124.4 38.6001 121.3 42.0001 120.8L41.5001 120.2C47.4001 123 54.3001 124.2 60.5001 124.4C69.2001 124.7 79.1001 123.5 87.0001 119.2C89.2001 119.9 90.9001 123.1 92.8001 124.6L92.9001 124.7L93.0001 124.8L93.1001 124.9L93.2001 125C93.2001 125 93.3001 125 93.3001 125.1C93.3001 125.1 93.4001 125.1 93.4001 125.2C93.4001 125.2 93.5001 125.2 93.5001 125.3H95.6001C95.6001 125.3 95.7001 125.3 95.7001 125.2H95.8001C95.8001 125.2 95.9001 125.2 95.9001 125.1H96.0001C96.0001 125.1 96.1001 125.1 96.1001 125C96.1001 125 96.2001 125 96.2001 124.9L96.3001 124.8C96.3001 124.8 96.4001 124.8 96.4001 124.7L96.5001 124.6H96.6001L96.8001 124.4L97.0001 124.3H97.1001L97.2001 124.2H97.3001L97.4001 124.1L97.5001 124L97.6001 123.9L97.7001 123.8L97.8001 123.7L97.9001 123.6L98.0001 123.5V123.4C98.0001 123.4 98.0001 123.3 98.1001 123.3V123.2C98.1001 123.2 98.1001 123.1 98.2001 123.1V123C98.2001 123 98.2001 122.9 98.3001 122.9V121.5C98.3001 121.5 98.0001 121.5 98.0001 121.4L97.7001 121.3V121.2L98.0001 121.1C98.0001 121.1 98.2001 121.1 98.2001 121L98.3001 120.9V118.8C98.3001 118.8 98.3001 118.7 98.2001 118.7V118.6C98.2001 118.6 98.2001 118.5 98.1001 118.5V118.4C98.1001 118.4 98.1001 118.3 98.0001 118.3C98.0001 118.3 98.0001 118.2 97.9001 118.2C97.9001 118.2 97.9001 118.1 97.8001 118.1C97.8001 118.1 97.8001 118 97.7001 118C97.7001 118 97.7001 117.9 97.6001 117.9C97.6001 117.9 97.6001 117.8 97.5001 117.8C97.5001 117.8 97.5001 117.7 97.4001 117.7C97.4001 117.7 97.4001 117.6 97.3001 117.6C97.3001 117.6 97.3001 117.5 97.2001 117.5C97.2001 117.5 97.2001 117.4 97.1001 117.4C97.1001 117.4 97.1001 117.3 97.0001 117.3C97.0001 117.3 97.0001 117.2 96.9001 117.2C96.9001 117.2 96.9001 117.1 96.8001 117.1C96.8001 117.1 96.8001 117 96.7001 117L96.6001 116.9L96.5001 116.8L96.4001 116.7L96.3001 116.6L96.2001 116.5L96.1001 116.4L96.0001 116.3L95.9001 116.2L95.8001 116.1L95.7001 116L95.6001 115.9L95.5001 115.8V115.7L95.4001 115.6L95.3001 115.5L95.2001 115.4L95.1001 115.3L95.0001 115.2L94.9001 115.1L94.8001 115L94.7001 114.9L94.6001 114.8L94.5001 114.7L94.4001 114.6L94.3001 114.5L94.2001 114.4L94.1001 114.3L94.0001 114.2L93.9001 114.1L93.8001 114L93.7001 113.9L93.6001 113.8C95.6001 111.9 97.4001 109.6 98.7001 106.9C104.6 95.0998 103.6 80.6998 102.8 67.6998H102.9C103 67.6998 103.1 67.7998 103.1 67.7998H103.4C103.4 67.7998 103.5 67.7998 103.5 67.8998H103.6C103.6 67.8998 103.7 67.8998 103.7 67.9998L103.9 68.0998C105.6 69.2998 109.3 70.9998 109.5 67.2998C111.1 67.8998 109.2 65.4998 108.2 64.7998ZM36.0001 22.9998C32.8001 6.99981 58.4001 3.99981 59.3001 19.5998C60.1001 32.5998 39.3001 35.8998 36.0001 22.9998ZM72.1001 37.9998C70.8001 39.3998 69.4001 39.1998 68.0001 38.6998C68.0001 40.5998 68.4001 42.5998 68.1001 44.5998C67.6001 45.4998 66.6001 45.5998 65.8001 45.9998C64.6001 45.7998 63.7001 45.0998 63.2001 43.9998L63.0001 43.8998C59.1001 49.0998 56.7001 42.7998 57.8001 38.8998C56.6001 38.9998 55.6001 38.6998 54.8001 37.3998C53.4001 34.7998 55.5001 31.5998 58.2001 31.0998C58.9001 34.0998 66.9001 33.6998 68.3001 30.8998C71.4001 32.3998 74.8001 35.1998 72.1001 37.9998ZM65.1001 20.4998C64.2001 6.69981 85.4001 2.9998 88.5001 16.4998C92.0001 31.4998 67.7001 35.3998 65.1001 20.4998ZM41.7001 16.9998C39.8001 16.9998 38.2001 18.6998 38.2001 20.7998C38.2001 22.8998 39.8001 24.5998 41.7001 24.5998C43.6001 24.5998 45.2001 22.8998 45.2001 20.7998C45.2001 18.6998 43.7001 16.9998 41.7001 16.9998ZM43.3001 22.6998C42.8001 22.6998 42.5001 22.2998 42.5001 21.6998C42.5001 21.1998 42.9001 20.6998 43.3001 20.6998C43.8001 20.6998 44.1001 21.0998 44.1001 21.6998C44.1001 22.1998 43.8001 22.6998 43.3001 22.6998ZM71.1001 16.0998C69.2001 16.0998 67.7001 17.7998 67.7001 19.8998C67.7001 21.9998 69.2001 23.6998 71.1001 23.6998C73.0001 23.6998 74.5001 21.9998 74.5001 19.8998C74.5001 17.7998 73.0001 16.0998 71.1001 16.0998ZM72.7001 21.6998C72.3001 21.6998 71.9001 21.2998 71.9001 20.6998C71.9001 20.1998 72.3001 19.6998 72.7001 19.6998C73.1001 19.6998 73.5001 20.0998 73.5001 20.6998C73.5001 21.2998 73.1001 21.6998 72.7001 21.6998Z" fill="black"/>
</svg>
