<svg width="128" height="128" viewBox="0 0 128 128" fill="none" xmlns="http://www.w3.org/2000/svg">
<path d="M114.906 84.1448C114.906 84.1448 114.734 83.1048 114.636 83.1168L95.813 84.9338C95.0893 85.0014 94.4133 85.3242 93.9059 85.8445C93.3984 86.3648 93.0925 87.0487 93.043 87.7738L92.527 95.1868L77.961 96.2268L76.973 89.5068C76.8613 88.7796 76.4937 88.1162 75.9364 87.6359C75.3791 87.1556 74.6687 86.8899 73.933 86.8868H54.067C53.3315 86.8902 52.6213 87.1559 52.0642 87.6362C51.5071 88.1165 51.1397 88.7798 51.028 89.5068L50.04 96.2268L35.474 95.1868L34.958 87.7728C34.9092 87.0474 34.6036 86.3631 34.096 85.8427C33.5884 85.3222 32.9119 84.9996 32.188 84.9328L13.353 83.1168C13.259 83.1048 13.185 84.1448 13.087 84.1448L13.063 88.2188L29.017 90.7928L29.537 98.2698C29.5916 99.0061 29.9086 99.6983 30.4303 100.221C30.952 100.743 31.6438 101.061 32.38 101.117L52.439 102.551C52.517 102.555 52.591 102.559 52.665 102.559C53.3994 102.554 54.108 102.287 54.6635 101.807C55.2191 101.327 55.5851 100.664 55.696 99.9378L56.716 93.0228H71.286L72.306 99.9378C72.4232 100.701 72.8224 101.393 73.4248 101.877C74.0272 102.361 74.789 102.601 75.56 102.551L95.622 101.117C96.3584 101.061 97.0504 100.744 97.5723 100.221C98.0942 99.6986 98.4113 99.0062 98.466 98.2698L98.986 90.7928L114.931 88.2068L114.906 84.1448Z" fill="white"/>
<path d="M13.086 53.4219V84.1449C13.145 84.1449 13.199 84.1479 13.254 84.1519L32.09 85.9699C32.5672 86.0158 33.0127 86.2293 33.3474 86.5726C33.6821 86.9159 33.8842 87.3667 33.918 87.8449L34.5 96.1609L50.926 97.3329L52.059 89.6609C52.13 89.1792 52.3717 88.7391 52.7402 88.4208C53.1086 88.1025 53.5791 87.9272 54.066 87.9269H73.934C74.4209 87.9272 74.8914 88.1025 75.2598 88.4208C75.6283 88.7391 75.87 89.1792 75.941 89.6609L77.074 97.3329L93.504 96.1609L94.082 87.8449C94.1158 87.3667 94.3179 86.9159 94.6526 86.5726C94.9873 86.2293 95.4328 86.0158 95.91 85.9699L114.738 84.1529C114.793 84.1489 114.848 84.1459 114.906 84.1459V81.6899H114.914V53.4199C117.566 50.0849 120.074 46.4009 122 43.3039C119.059 38.2959 115.457 33.8239 111.605 29.6789C108.052 31.4762 104.607 33.481 101.289 35.6829C99.649 34.0499 97.805 32.7179 95.989 31.3229C94.207 29.8929 92.199 28.8429 90.293 27.6199C90.859 23.3969 91.141 19.2409 91.253 14.9009C86.34 12.4249 81.098 10.7879 75.797 9.60791C73.68 13.1669 71.742 17.0179 70.059 20.7839C68.059 20.4519 66.051 20.3269 64.039 20.3039V20.2999C64.023 20.2999 64.012 20.3039 64 20.3039C63.988 20.3039 63.977 20.2999 63.96 20.2999V20.3039C61.95 20.3269 59.941 20.4519 57.941 20.7839C56.258 17.0189 54.321 13.1669 52.203 9.60791C46.903 10.7879 41.66 12.4249 36.746 14.9009C36.859 19.2409 37.141 23.3969 37.707 27.6209C35.801 28.8429 33.793 29.8939 32.012 31.3229C30.199 32.7179 28.352 34.0499 26.711 35.6829C23.393 33.481 19.9484 31.4762 16.395 29.6789C12.543 33.8239 8.94 38.2969 6 43.3049C8.313 46.9339 10.793 50.5779 13.086 53.4219Z" fill="#478CBF"/>
<path d="M98.0082 89.84L97.4262 98.2C97.3921 98.6872 97.183 99.1456 96.8375 99.4908C96.492 99.8359 96.0334 100.044 95.5462 100.078L75.4842 101.512C75.4382 101.516 75.3872 101.516 75.3402 101.516C74.3442 101.516 73.4802 100.786 73.3362 99.786L72.1842 91.98H55.8162L54.6642 99.785C54.59 100.291 54.3274 100.75 53.9291 101.07C53.5307 101.39 53.026 101.548 52.5162 101.512L32.4532 100.078C31.966 100.044 31.5075 99.8354 31.1621 99.4901C30.8168 99.1448 30.608 98.6862 30.5742 98.199L29.9922 89.839L13.0552 88.207C13.0632 90.027 13.0852 92.023 13.0852 92.418C13.0852 110.305 35.7772 118.902 63.9652 119H64.0352C92.2232 118.902 114.906 110.305 114.906 92.418C114.906 92.016 114.93 90.028 114.937 88.207L98.0082 89.84Z" fill="#478CBF"/>
<path d="M48.6521 65.8948C48.6521 72.1648 43.5701 77.2458 37.3011 77.2458C31.0351 77.2458 25.9531 72.1638 25.9531 65.8948C25.9531 59.6288 31.0351 54.5508 37.3011 54.5508C43.5711 54.5508 48.6521 59.6288 48.6521 65.8948Z" fill="white"/>
<path d="M45.9221 66.5661C45.9222 67.5555 45.7274 68.5353 45.3487 69.4494C44.97 70.3634 44.415 71.1939 43.7152 71.8934C43.0155 72.5929 42.1847 73.1476 41.2705 73.5259C40.3563 73.9042 39.3765 74.0987 38.3871 74.0981C36.3891 74.0984 34.4728 73.305 33.0598 71.8925C31.6467 70.48 30.8526 68.5641 30.8521 66.5661C30.8531 64.5685 31.6475 62.6531 33.0605 61.241C34.4735 59.829 36.3894 59.0359 38.3871 59.0361C39.3763 59.0356 40.3559 59.23 41.27 59.6082C42.1841 59.9863 43.0148 60.5409 43.7145 61.2401C44.4142 61.9394 44.9693 62.7697 45.3481 63.6835C45.7269 64.5974 45.9219 65.5769 45.9221 66.5661Z" fill="#414042"/>
<path d="M64.0001 78.2768C61.9801 78.2768 60.3481 76.7888 60.3481 74.9568V64.5068C60.3481 62.6758 61.9801 61.1868 64.0001 61.1868C66.0161 61.1868 67.6561 62.6758 67.6561 64.5068V74.9568C67.6561 76.7888 66.0161 78.2768 64.0001 78.2768ZM79.3481 65.8948C79.3481 72.1648 84.4301 77.2458 90.6991 77.2458C96.9651 77.2458 102.047 72.1638 102.047 65.8948C102.047 59.6288 96.9651 54.5508 90.6991 54.5508C84.4291 54.5508 79.3481 59.6288 79.3481 65.8948Z" fill="white"/>
<path d="M82.0781 66.5662C82.0779 67.5553 82.2725 68.5347 82.6508 69.4486C83.0292 70.3625 83.5839 71.1929 84.2833 71.8923C84.9826 72.5918 85.8129 73.1466 86.7267 73.5251C87.6406 73.9036 88.62 74.0983 89.6091 74.0982C91.6066 74.0982 93.5223 73.3047 94.9347 71.8922C96.3471 70.4798 97.1406 68.5641 97.1406 66.5667C97.1406 64.5692 96.3471 62.6535 94.9347 61.2411C93.5223 59.8287 91.6066 59.0352 89.6091 59.0352C88.6202 59.0352 87.6409 59.23 86.7273 59.6084C85.8136 59.9869 84.9835 60.5417 84.2843 61.241C83.585 61.9403 83.0304 62.7705 82.652 63.6842C82.2737 64.5979 82.079 65.5772 82.0791 66.5662" fill="#414042"/>
</svg>
