<svg width="128" height="128" viewBox="0 0 128 128" fill="none" xmlns="http://www.w3.org/2000/svg">
<path d="M52.203 9.60991C46.903 10.7899 41.66 12.4259 36.746 14.9019C36.859 19.2419 37.141 23.3979 37.707 27.6219C35.801 28.8439 33.793 29.8949 32.012 31.3239C30.199 32.7189 28.352 34.0509 26.711 35.6839C23.393 33.482 19.9484 31.4772 16.395 29.6799C12.543 33.8239 8.94 38.2969 6 43.3049C8.313 46.9339 10.793 50.5779 13.086 53.4219V84.1449C13.145 84.1449 13.199 84.1479 13.254 84.1519L32.09 85.9699C32.5672 86.0158 33.0127 86.2293 33.3474 86.5726C33.6821 86.9159 33.8842 87.3667 33.918 87.8449L34.5 96.1609L50.926 97.3329L52.059 89.6609C52.13 89.1792 52.3717 88.7391 52.7402 88.4208C53.1086 88.1025 53.5791 87.9272 54.066 87.9269H73.934C74.4209 87.9272 74.8914 88.1025 75.2598 88.4208C75.6283 88.7391 75.87 89.1792 75.941 89.6609L77.074 97.3329L93.504 96.1609L94.082 87.8449C94.1158 87.3667 94.3179 86.9159 94.6526 86.5726C94.9873 86.2293 95.4328 86.0158 95.91 85.9699L114.738 84.1529C114.793 84.1489 114.848 84.1459 114.906 84.1459V81.6899H114.914V53.4199C117.566 50.0849 120.074 46.4009 122 43.3039C119.059 38.2959 115.457 33.8239 111.605 29.6789C108.052 31.4762 104.607 33.481 101.289 35.6829C99.649 34.0499 97.801 32.7179 95.989 31.3229C94.207 29.8929 92.199 28.8429 90.293 27.6199C90.859 23.3969 91.141 19.2409 91.253 14.9009C86.34 12.4249 81.098 10.7879 75.797 9.60791C73.68 13.1669 71.742 17.0179 70.059 20.7839C68.059 20.4519 66.051 20.3269 64.039 20.3039V20.2999C64.023 20.2999 64.012 20.3039 64 20.3039C63.988 20.3039 63.977 20.2999 63.96 20.2999V20.3039C61.95 20.3269 59.941 20.4519 57.941 20.7839C56.258 17.0189 54.321 13.1669 52.203 9.60791V9.60991ZM37.301 54.5499C43.571 54.5499 48.652 59.6289 48.652 65.8949C48.652 72.1649 43.57 77.2459 37.301 77.2459C31.035 77.2459 25.953 72.1639 25.953 65.8949C25.953 59.6289 31.035 54.5509 37.301 54.5509V54.5499ZM90.699 54.5499C96.965 54.5499 102.047 59.6289 102.047 65.8949C102.047 72.1649 96.965 77.2459 90.699 77.2459C84.429 77.2459 79.348 72.1639 79.348 65.8949C79.348 59.6289 84.43 54.5509 90.699 54.5509V54.5499ZM64 61.1889C66.016 61.1889 67.656 62.6769 67.656 64.5089V74.9579C67.656 76.7899 66.016 78.2779 64 78.2779C61.98 78.2779 60.348 76.7899 60.348 74.9579V64.5079C60.348 62.6769 61.98 61.1879 64 61.1879V61.1889Z" fill="black"/>
<path d="M98.0082 89.84L97.4262 98.2C97.3921 98.6872 97.183 99.1456 96.8375 99.4908C96.492 99.8359 96.0334 100.044 95.5462 100.078L75.4842 101.512C75.4382 101.516 75.3872 101.516 75.3402 101.516C74.3442 101.516 73.4802 100.786 73.3362 99.786L72.1842 91.98H55.8162L54.6642 99.785C54.59 100.291 54.3274 100.75 53.9291 101.07C53.5307 101.39 53.026 101.548 52.5162 101.512L32.4532 100.078C31.966 100.044 31.5075 99.8354 31.1621 99.4901C30.8168 99.1448 30.608 98.6862 30.5742 98.199L29.9922 89.839L13.0552 88.207C13.0632 90.027 13.0852 92.023 13.0852 92.418C13.0852 110.305 35.7772 118.902 63.9652 119H64.0352C92.2232 118.902 114.906 110.305 114.906 92.418C114.906 92.016 114.93 90.028 114.937 88.207L98.0082 89.84Z" fill="#010102"/>
<path d="M45.9221 66.5662C45.9222 67.5556 45.7274 68.5353 45.3487 69.4494C44.97 70.3635 44.415 71.194 43.7152 71.8934C43.0155 72.5929 42.1847 73.1476 41.2705 73.5259C40.3563 73.9042 39.3765 74.0987 38.3871 74.0982C36.3891 74.0984 34.4728 73.3051 33.0598 71.8926C31.6467 70.4801 30.8526 68.5641 30.8521 66.5662C30.8531 64.5685 31.6475 62.6531 33.0605 61.241C34.4735 59.829 36.3894 59.0359 38.3871 59.0362C39.3763 59.0356 40.3559 59.23 41.27 59.6082C42.1841 59.9863 43.0148 60.5409 43.7145 61.2402C44.4142 61.9394 44.9693 62.7697 45.3481 63.6836C45.7269 64.5974 45.9219 65.5769 45.9221 66.5662ZM82.0781 66.5662C82.0778 67.5553 82.2724 68.5347 82.6508 69.4486C83.0291 70.3625 83.5838 71.1929 84.2832 71.8923C84.9825 72.5918 85.8129 73.1466 86.7267 73.5251C87.6405 73.9036 88.6199 74.0983 89.6091 74.0982C91.6065 74.0982 93.5222 73.3047 94.9346 71.8922C96.3471 70.4798 97.1406 68.5641 97.1406 66.5667C97.1406 64.5692 96.3471 62.6535 94.9346 61.2411C93.5222 59.8287 91.6065 59.0352 89.6091 59.0352C88.6201 59.0352 87.6409 59.23 86.7272 59.6084C85.8136 59.9869 84.9834 60.5417 84.2842 61.241C83.5849 61.9403 83.0303 62.7705 82.652 63.6842C82.2736 64.5979 82.0789 65.5772 82.0791 66.5662" fill="black"/>
</svg>
