<svg width="128" height="128" viewBox="0 0 128 128" fill="none" xmlns="http://www.w3.org/2000/svg">
<path fill-rule="evenodd" clip-rule="evenodd" d="M38.8672 106.246C37.5512 106.246 36.4492 106.844 35.5552 108.043C34.6652 109.238 34.2192 110.918 34.2192 113.082C34.2192 115.25 34.6452 116.906 35.4962 118.062C36.3442 119.222 37.4612 119.801 38.8482 119.801C40.2302 119.801 41.3552 119.215 42.2182 118.043C43.0822 116.875 43.5162 115.199 43.5162 113.023C43.5162 110.843 43.0702 109.168 42.1762 108C41.2892 106.828 40.1842 106.246 38.8672 106.246ZM38.8472 127.758C34.9922 127.758 31.8522 126.508 29.4262 124.004C27.0002 121.5 25.7862 117.848 25.7862 113.043C25.7862 108.238 27.0122 104.598 29.4692 102.121C31.9222 99.6448 35.0892 98.4058 38.9692 98.4058C42.8522 98.4058 45.9842 99.6208 48.3672 102.062C50.7572 104.496 51.9492 108.188 51.9492 113.125C51.9492 118.063 50.7302 121.738 48.2852 124.148C45.8442 126.555 42.6992 127.758 38.8482 127.758M63.4772 106.528V118.738C63.4772 119.308 63.5202 119.668 63.6022 119.82C63.6842 119.969 63.9302 120.047 64.3402 120.047C65.8522 120.047 66.9962 119.484 67.7772 118.371C68.5592 117.254 68.9492 115.398 68.9492 112.797C68.9492 110.199 68.5432 108.504 67.7392 107.715C66.9262 106.925 65.6452 106.527 63.8912 106.527L63.4772 106.528ZM55.5822 125.473V100.98C55.5822 100.297 55.7502 99.7618 56.0942 99.3628C56.4372 98.9688 56.8832 98.7698 57.4342 98.7698H64.3002C68.6602 98.7698 71.9722 99.8628 74.2332 102.04C76.4952 104.219 77.6282 107.645 77.6282 112.328C77.6282 122.344 73.3232 127.352 64.7102 127.352H57.6802C56.2812 127.352 55.5822 126.727 55.5822 125.472M93.4222 106.246C92.1052 106.246 91.0002 106.844 90.1092 108.043C89.2192 109.238 88.7732 110.918 88.7732 113.082C88.7732 115.25 89.1992 116.906 90.0512 118.062C90.8982 119.222 92.0162 119.801 93.4022 119.801C94.7852 119.801 95.9102 119.215 96.7732 118.043C97.6412 116.875 98.0702 115.199 98.0702 113.023C98.0702 110.843 97.6252 109.168 96.7342 108C95.8442 106.828 94.7382 106.246 93.4222 106.246ZM93.4022 127.758C89.5472 127.758 86.4102 126.508 83.9842 124.004C81.5542 121.5 80.3402 117.848 80.3402 113.043C80.3402 108.238 81.5702 104.598 84.0232 102.121C86.4772 99.6448 89.6452 98.4058 93.5272 98.4058C97.4072 98.4058 100.539 99.6208 102.926 102.062C105.312 104.496 106.504 108.188 106.504 113.125C106.504 118.063 105.285 121.738 102.844 124.148C100.402 126.555 97.2542 127.758 93.4022 127.758ZM121.836 126.703C121.836 127.243 120.48 127.516 117.762 127.516C115.051 127.516 113.692 127.242 113.692 126.703V106.203H108.754C108.289 106.203 107.957 105.578 107.766 104.324C107.685 103.715 107.645 103.102 107.645 102.488C107.645 101.863 107.684 101.25 107.765 100.652C107.957 99.4018 108.289 98.7698 108.754 98.7698H126.648C127.113 98.7698 127.441 99.4018 127.637 100.652C127.719 101.25 127.757 101.863 127.757 102.488C127.757 103.118 127.719 103.727 127.637 104.324C127.441 105.578 127.113 106.204 126.648 106.204H121.836V126.703ZM18.5122 112.191C16.2972 112.161 13.7622 112.617 13.7622 112.617V116.907H16.3122L16.2852 118.82C16.2852 119.527 15.5782 119.883 14.1652 119.883C12.7542 119.883 11.5042 119.289 10.4222 118.105C9.33619 116.918 8.79719 115.187 8.79719 112.902C8.79719 110.613 9.32419 108.926 10.3792 107.836C11.4342 106.75 12.8162 106.203 14.5162 106.203C15.2262 106.203 15.9652 106.316 16.7342 106.551C17.5042 106.781 18.0162 107 18.2772 107.203C18.5392 107.41 18.7852 107.508 19.0202 107.508C19.2542 107.508 19.6292 107.238 20.1482 106.695C20.6722 106.148 21.1372 105.325 21.5512 104.227C21.9612 103.121 22.1642 102.273 22.1642 101.672C22.1642 101.074 22.1522 100.664 22.1252 100.445C21.5512 99.8198 20.4882 99.3248 18.9372 98.9568C17.3872 98.5898 15.6522 98.4068 13.7342 98.4068C9.50819 98.4068 6.20719 99.7268 3.82019 102.367C1.43419 105.007 0.242188 108.434 0.242188 112.657C0.242188 117.609 1.46119 121.363 3.89819 123.922C6.34419 126.48 9.55119 127.758 13.5282 127.758C15.6682 127.758 17.5662 127.578 19.2232 127.207C20.8832 126.844 21.9882 126.465 22.5352 126.086L22.6992 113.309C22.6992 112.566 20.7272 112.23 18.5122 112.191Z" fill="#414042"/>
<path fill-rule="evenodd" clip-rule="evenodd" d="M99.7268 51.9731C99.7268 51.9731 99.6048 51.2431 99.5388 51.2501L86.3238 52.5311C85.8148 52.5797 85.3399 52.8082 84.9841 53.1755C84.6284 53.5428 84.4152 54.0248 84.3828 54.5351L84.0198 59.7621L73.7998 60.4961L73.1048 55.7581C73.0284 55.246 72.7716 54.778 72.3807 54.4385C71.9898 54.099 71.4905 53.9102 70.9728 53.9061H57.0298C56.5121 53.9105 56.0129 54.0995 55.6219 54.4389C55.231 54.7783 54.9739 55.2461 54.8968 55.7581L54.2018 60.4961L43.9828 59.7621L43.6198 54.5351C43.5867 54.0246 43.3734 53.5425 43.0179 53.1747C42.6624 52.807 42.1878 52.5774 41.6788 52.5271L28.4598 51.2501C28.3948 51.2421 28.3438 51.9731 28.2728 51.9731L28.2578 54.8481L39.4488 56.6641L39.8158 61.9371C39.8524 62.4555 40.0741 62.9435 40.4405 63.3121C40.8069 63.6807 41.2936 63.9053 41.8118 63.9451L55.8908 64.9571C56.4335 64.9921 56.9696 64.822 57.3928 64.4805C57.816 64.139 58.0955 63.6509 58.1758 63.1131L58.8908 58.2381H69.1168L69.8318 63.1131C69.9077 63.6245 70.1641 64.0919 70.5545 64.4308C70.945 64.7698 71.4438 64.9578 71.9608 64.9611C72.0108 64.9611 72.0628 64.9611 72.1128 64.9571L86.1908 63.9451C86.709 63.9053 87.1957 63.6807 87.5621 63.3121C87.9285 62.9435 88.1502 62.4555 88.1868 61.9371L88.5548 56.6641L99.7418 54.8401L99.7268 51.9731Z" fill="white"/>
<path fill-rule="evenodd" clip-rule="evenodd" d="M28.3828 30.523V51.926C28.4258 51.926 28.4648 51.926 28.5028 51.93L41.6758 53.195C42.0095 53.2269 42.3211 53.3758 42.5555 53.6154C42.79 53.8549 42.9321 54.1697 42.9568 54.504L43.3628 60.297L54.8548 61.113L55.6478 55.766C55.7498 55.074 56.3478 54.559 57.0508 54.559H70.9488C71.2885 54.5599 71.6166 54.682 71.8744 54.9032C72.1321 55.1245 72.3024 55.4304 72.3548 55.766L73.1448 61.113L84.6368 60.297L85.0428 54.504C85.0675 54.1697 85.2096 53.8549 85.4441 53.6154C85.6785 53.3758 85.9901 53.2269 86.3238 53.195L99.4918 51.93C99.5318 51.926 99.5698 51.926 99.6088 51.926V50.219L99.6168 50.215V30.523C101.473 28.199 103.227 25.633 104.574 23.473C102.516 19.988 99.9958 16.871 97.3008 13.984C94.8156 15.2341 92.4064 16.6298 90.0858 18.164C88.9378 17.027 87.6478 16.102 86.3788 15.129C85.1328 14.133 83.7268 13.402 82.3948 12.547C82.7888 9.605 82.9878 6.711 83.0658 3.687C79.6298 1.966 75.9608 0.82 72.2498 0C70.7698 2.477 69.4178 5.164 68.2378 7.785C66.8398 7.555 65.4338 7.469 64.0278 7.449H63.9728C62.5658 7.469 61.1598 7.555 59.7618 7.785C58.5818 5.16 57.2298 2.477 55.7458 0C52.0388 0.82 48.3748 1.965 44.9338 3.688C45.0158 6.711 45.2108 9.605 45.6088 12.547C44.2728 13.402 42.8708 14.133 41.6208 15.129C40.3548 16.098 39.0618 17.027 37.9138 18.164C35.5923 16.629 33.1818 15.2332 30.6948 13.984C28.0038 16.871 25.4848 19.984 23.4248 23.473C25.0428 26 26.7768 28.543 28.3828 30.523Z" fill="#478CBF"/>
<path fill-rule="evenodd" clip-rule="evenodd" d="M87.8668 55.992L87.4568 61.805C87.4307 62.1452 87.2829 62.4647 87.0405 62.7049C86.7981 62.9451 86.4773 63.09 86.1368 63.113L72.0618 64.109C71.705 64.1346 71.3515 64.0251 71.0716 63.8022C70.7918 63.5794 70.6058 63.2595 70.5508 62.906L69.7458 57.48H58.2618L57.4528 62.906C57.3987 63.2593 57.2134 63.5794 56.934 63.8023C56.6545 64.0252 56.3014 64.1347 55.9448 64.109L41.8668 63.113C41.5267 63.09 41.2063 62.9451 40.9645 62.7048C40.7227 62.4645 40.5758 62.145 40.5508 61.805L40.1408 55.992L28.2578 54.855C28.2618 56.121 28.2778 57.508 28.2778 57.785C28.2778 70.223 44.1988 76.203 63.9768 76.27H64.0268C83.8048 76.203 99.7188 70.223 99.7188 57.785C99.7188 57.504 99.7388 56.125 99.7418 54.855L87.8668 55.992Z" fill="#478CBF"/>
<path fill-rule="evenodd" clip-rule="evenodd" d="M53.1331 39.336C53.1331 43.656 49.6171 47.156 45.2811 47.156C40.9491 47.156 37.4341 43.656 37.4341 39.336C37.4341 35.02 40.9491 31.52 45.2811 31.52C49.6171 31.52 53.1331 35.02 53.1331 39.336Z" fill="white"/>
<path fill-rule="evenodd" clip-rule="evenodd" d="M51.4409 39.82C51.4409 42.676 49.0619 44.992 46.1289 44.992C43.1949 44.992 40.8159 42.676 40.8159 39.82C40.8159 36.965 43.1959 34.6479 46.1289 34.6479C49.0629 34.6479 51.4409 36.965 51.4409 39.82Z" fill="#414042"/>
<path fill-rule="evenodd" clip-rule="evenodd" d="M63.9022 47.879C62.4882 47.879 61.3442 46.855 61.3442 45.589V38.387C61.3442 37.121 62.4882 36.097 63.9022 36.097C65.3162 36.097 66.4652 37.121 66.4652 38.387V45.59C66.4652 46.855 65.3162 47.879 63.9022 47.879ZM74.6602 39.339C74.6602 43.664 78.2192 47.168 82.6132 47.168C87.0032 47.168 90.5662 43.664 90.5662 39.34C90.5662 35.02 87.0042 31.52 82.6132 31.52C78.2192 31.52 74.6602 35.02 74.6602 39.34" fill="white"/>
<path fill-rule="evenodd" clip-rule="evenodd" d="M76.5591 39.82C76.5591 42.676 78.9381 44.992 81.8711 44.992C84.8091 44.992 87.1841 42.676 87.1841 39.82C87.1841 36.965 84.8091 34.6479 81.8711 34.6479C78.9381 34.6479 76.5591 36.965 76.5591 39.82Z" fill="#414042"/>
</svg>
