<svg width="128" height="128" viewBox="0 0 128 128" fill="none" xmlns="http://www.w3.org/2000/svg">
<path fill-rule="evenodd" clip-rule="evenodd" d="M38.8871 106.234C37.5741 106.234 36.4771 106.832 35.5861 108.027C34.6991 109.227 34.2541 110.907 34.2541 113.07C34.2541 115.238 34.6761 116.895 35.5241 118.05C36.3711 119.21 37.4841 119.79 38.8671 119.79C40.2471 119.79 41.3671 119.203 42.2301 118.031C43.0901 116.863 43.5231 115.187 43.5231 113.008C43.5231 110.832 43.0781 109.156 42.1871 107.984C41.3011 106.816 40.1991 106.234 38.8871 106.234ZM38.8671 127.746C35.0271 127.746 31.8951 126.496 29.4731 123.992C27.0551 121.488 25.8481 117.836 25.8481 113.032C25.8481 108.222 27.0701 104.586 29.5161 102.105C31.9611 99.633 35.1211 98.395 38.9881 98.395C42.8591 98.395 45.9841 99.609 48.3591 102.051C50.7421 104.484 51.9291 108.176 51.9291 113.113C51.9291 118.051 50.7151 121.727 48.2771 124.137C45.8441 126.543 42.7111 127.747 38.8671 127.747M63.4261 106.406V118.636C63.4261 119.211 63.4691 119.57 63.5511 119.719C63.6331 119.871 63.8791 119.945 64.2891 119.945C65.7931 119.945 66.9341 119.387 67.7111 118.265C68.4921 117.148 68.8791 115.289 68.8791 112.687C68.8791 110.082 68.4771 108.383 67.6721 107.594C66.8631 106.804 65.5861 106.406 63.8361 106.406H63.4261ZM55.5551 125.383V100.848C55.5551 100.164 55.7231 99.625 56.0661 99.227C56.4101 98.832 56.8521 98.633 57.4021 98.633H64.2461C68.5941 98.633 71.8951 99.727 74.1481 101.91C76.4021 104.09 77.5311 107.523 77.5311 112.215C77.5311 122.25 73.2381 127.265 64.6561 127.265H57.6451C56.2541 127.265 55.5551 126.641 55.5551 125.383ZM93.4731 106.234C92.1641 106.234 91.0591 106.832 90.1721 108.027C89.2851 109.227 88.8401 110.907 88.8401 113.07C88.8401 115.238 89.2661 116.895 90.1101 118.05C90.9571 119.21 92.0701 119.79 93.4531 119.79C94.8321 119.79 95.9571 119.203 96.8161 118.031C97.6801 116.863 98.1091 115.187 98.1091 113.008C98.1091 110.832 97.6641 109.156 96.7771 107.984C95.8871 106.816 94.7891 106.234 93.4731 106.234ZM93.4531 127.746C89.6091 127.746 86.4801 126.496 84.0631 123.992C81.6411 121.488 80.4331 117.836 80.4331 113.032C80.4331 108.222 81.6561 104.586 84.1021 102.105C86.5511 99.633 89.7071 98.395 93.5781 98.395C97.4451 98.395 100.57 99.609 102.949 102.051C105.329 104.484 106.516 108.176 106.516 113.113C106.516 118.051 105.301 121.727 102.867 124.137C100.434 126.543 97.2931 127.747 93.4531 127.747M121.867 126.453C121.867 126.993 120.516 127.266 117.809 127.266C115.105 127.266 113.75 126.992 113.75 126.453V106.04H108.832C108.367 106.04 108.039 105.419 107.848 104.169C107.766 103.563 107.726 102.952 107.727 102.341C107.727 101.72 107.766 101.106 107.847 100.509C108.039 99.263 108.367 98.638 108.832 98.638H126.664C127.129 98.638 127.457 99.263 127.648 100.508C127.73 101.106 127.77 101.72 127.77 102.341C127.77 102.961 127.73 103.571 127.648 104.169C127.457 105.419 127.128 106.04 126.664 106.04H121.867V126.453ZM18.5161 112.18C16.3011 112.148 13.7661 112.605 13.7661 112.605V116.895H16.3161L16.2891 118.809C16.2891 119.516 15.5791 119.871 14.1681 119.871C12.7541 119.871 11.5081 119.277 10.4261 118.094C9.34009 116.906 8.80109 115.176 8.80109 112.891C8.80109 110.601 9.32809 108.914 10.3831 107.824C11.4381 106.738 12.8201 106.191 14.5161 106.191C15.2301 106.191 15.9691 106.305 16.7381 106.539C17.5081 106.769 18.0201 106.989 18.2811 107.191C18.5431 107.398 18.7891 107.496 19.0231 107.496C19.2531 107.496 19.6331 107.226 20.1531 106.684C20.6761 106.137 21.1411 105.313 21.5551 104.214C21.9651 103.109 22.1681 102.262 22.1681 101.66C22.1681 101.063 22.1561 100.652 22.1281 100.434C21.5551 99.809 20.4881 99.313 18.9381 98.945C17.3911 98.578 15.6561 98.395 13.7341 98.395C9.51209 98.395 6.20709 99.715 3.82409 102.355C1.43809 104.996 0.246094 108.422 0.246094 112.641C0.246094 117.598 1.46509 121.351 3.90209 123.911C6.34809 126.469 9.55509 127.746 13.5321 127.746C15.6681 127.746 17.5661 127.566 19.2271 127.196C20.8871 126.832 21.9921 126.453 22.5391 126.074L22.7031 113.297C22.7031 112.555 20.7301 112.219 18.5161 112.18ZM55.7461 0C52.0391 0.82 48.3711 1.965 44.9341 3.688C45.0121 6.711 45.2071 9.605 45.6051 12.547C44.2731 13.402 42.8671 14.133 41.6211 15.129C40.3551 16.098 39.0621 17.027 37.9141 18.164C35.5918 16.6291 33.1813 15.232 30.6951 13.98C28.0041 16.871 25.4851 19.984 23.4251 23.473C25.0431 26 26.7771 28.543 28.3831 30.523V51.926C28.4221 51.926 28.4611 51.926 28.5001 51.93L41.6761 53.195C42.0098 53.2269 42.3214 53.3758 42.5558 53.6154C42.7903 53.8549 42.9324 54.1697 42.9571 54.504L43.3631 60.297L54.8551 61.113L55.6451 55.766C55.6961 55.4298 55.8661 55.1231 56.1241 54.9016C56.3821 54.6801 56.711 54.5585 57.0511 54.559H70.9491C71.6521 54.559 72.2501 55.074 72.3521 55.766L73.1451 61.113L84.6371 60.297L85.0431 54.504C85.0672 54.1695 85.2091 53.8544 85.4437 53.6147C85.6782 53.375 85.9902 53.2263 86.3241 53.195L99.4921 51.93C99.5321 51.926 99.5701 51.926 99.6091 51.926V50.219L99.6131 50.215V30.523C101.469 28.195 103.227 25.633 104.574 23.473C102.516 19.984 99.9961 16.871 97.3011 13.98C94.8162 15.2321 92.407 16.6291 90.0861 18.164C88.9381 17.027 87.6451 16.098 86.3791 15.129C85.1331 14.133 83.7271 13.402 82.3951 12.547C82.7891 9.605 82.9851 6.711 83.0661 3.687C79.6251 1.966 75.9611 0.82 72.2501 0C70.7701 2.477 69.4181 5.164 68.2381 7.785C66.8401 7.555 65.4341 7.469 64.0281 7.449H63.9731C62.5631 7.469 61.1601 7.555 59.7621 7.785C58.5821 5.165 57.2301 2.477 55.7461 0ZM45.3241 31.309C49.7071 31.309 53.2621 34.844 53.2621 39.211C53.2621 43.578 49.7071 47.117 45.3241 47.117C40.9411 47.117 37.3831 43.578 37.3831 39.211C37.3831 34.844 40.9411 31.309 45.3241 31.309ZM82.6761 31.309C87.0591 31.309 90.6131 34.844 90.6131 39.211C90.6131 43.578 87.0591 47.117 82.6761 47.117C78.2891 47.117 74.7381 43.578 74.7381 39.211C74.7381 34.844 78.2891 31.309 82.6761 31.309ZM64.0001 35.934C65.4101 35.934 66.5591 36.969 66.5591 38.246V45.523C66.5591 46.801 65.4101 47.836 64.0001 47.836C62.5861 47.836 61.4451 46.801 61.4451 45.523V38.246C61.4451 36.969 62.5851 35.934 64.0001 35.934Z" fill="black"/>
<path fill-rule="evenodd" clip-rule="evenodd" d="M87.8628 55.992L87.4568 61.805C87.4307 62.1452 87.2829 62.4647 87.0405 62.7049C86.7981 62.945 86.4773 63.0899 86.1368 63.1129L72.0618 64.109C72.0268 64.109 71.9918 64.1129 71.9568 64.1129C71.2568 64.1129 70.6568 63.6049 70.5508 62.9059L69.7458 57.4799H58.2578L57.4528 62.9059C57.3428 63.6359 56.6828 64.164 55.9448 64.109L41.8668 63.1129C41.5265 63.0895 41.2059 62.9445 40.9636 62.7044C40.7213 62.4643 40.5734 62.1451 40.5468 61.805L40.1408 55.992L28.2578 54.8549C28.2618 56.121 28.2778 57.5079 28.2778 57.785C28.2778 70.2229 44.1988 76.2029 63.9768 76.2699H64.0268C83.8048 76.2029 99.7188 70.2229 99.7188 57.785C99.7188 57.504 99.7388 56.125 99.7418 54.8549L87.8628 55.992ZM51.4408 39.82C51.4408 42.676 49.0618 44.992 46.1288 44.992C43.1948 44.992 40.8158 42.676 40.8158 39.82C40.8158 36.965 43.1958 34.6479 46.1288 34.6479C49.0628 34.6479 51.4408 36.965 51.4408 39.82ZM76.5588 39.82C76.5588 42.676 78.9378 44.992 81.8708 44.992C84.8088 44.992 87.1838 42.676 87.1838 39.82C87.1838 36.965 84.8088 34.6479 81.8708 34.6479C78.9378 34.6479 76.5588 36.965 76.5588 39.82Z" fill="black"/>
</svg>
