<svg width="128" height="128" viewBox="0 0 128 128" fill="none" xmlns="http://www.w3.org/2000/svg">
<path d="M80.6002 40.2998H81.0002L80.8002 40.0998L94.8002 26.0998V25.7998C83.0002 15.3998 66.7002 11.7998 51.6002 16.2998C36.5002 20.7998 24.9002 32.7998 20.7002 47.9998C20.9002 47.8998 21.2002 47.7998 21.5002 47.7998C26.7002 44.3998 32.9002 42.3998 39.4002 42.3998C41.6002 42.3998 43.7002 42.5998 45.8002 42.9998C45.9002 42.8998 46.0002 42.8998 46.1002 42.8998C55.1002 32.9998 70.3002 31.7998 80.7002 40.2998H80.6002Z" fill="#EA4535"/>
<path d="M108.1 47.8002C105.8 39.3002 101 31.6002 94.2998 25.7002L79.9998 39.9002C85.9998 44.8002 89.4998 52.2002 89.2998 59.9002V62.4002C106.2 62.4002 106.2 87.6002 89.2998 87.6002H63.8998V107.6H63.7998L63.8998 107.8H89.2998C103.9 107.9 116.8 98.5002 121.1 84.7002C125.4 70.9002 120.1 55.9002 108.1 47.8002Z" fill="#557EBF"/>
<path d="M38.9999 107.9H65.2999V87.7001H38.9999C37.0999 87.7001 35.2999 87.3001 33.5999 86.6001L18.3999 101.2V101.4C24.3999 105.7 31.5999 108 39.0999 108L38.9999 107.9Z" fill="#36A852"/>
<path d="M40.1999 41.8999C25.2999 41.9999 12.0999 51.1999 7.29987 64.6999C2.49987 78.2999 7.29987 93.1999 19.0999 102L34.6999 87.0999C26.0999 83.3999 24.0999 72.5999 30.6999 66.2999C37.2999 59.8999 48.4999 61.8999 52.3999 70.0999L67.9999 55.1999C61.3999 46.8999 51.0999 41.9999 40.1999 42.0999V41.8999Z" fill="#F9BC15"/>
</svg>
