<svg width="128" height="128" viewBox="0 0 128 128" fill="none" xmlns="http://www.w3.org/2000/svg">
<path d="M80.5997 40.2998H80.9997L80.7997 40.0998L94.7997 26.0998V25.7998C82.9997 15.3998 66.6997 11.7998 51.5997 16.2998C36.4997 20.7998 24.8997 32.7998 20.6997 47.9998C20.8997 47.8998 21.1997 47.7998 21.4997 47.7998C26.6997 44.3998 32.8997 42.3998 39.3997 42.3998C41.5997 42.3998 43.6997 42.5998 45.7997 42.9998C45.8997 42.8998 45.9997 42.8998 46.0997 42.8998C55.0997 32.9998 70.2997 31.7998 80.6997 40.2998H80.5997Z" fill="#557EBF"/>
<path d="M108.1 47.7997C105.8 39.2997 101 31.5997 94.2998 25.6997L79.9998 39.8997C85.9998 44.7997 89.4998 52.1997 89.2998 59.8997V62.3997C106.2 62.3997 106.2 87.5997 89.2998 87.5997H63.8998V107.6H63.7998L63.8998 107.8H89.2998C103.9 107.9 116.8 98.4997 121.1 84.6997C125.4 70.8997 120.1 55.8997 108.1 47.7997Z" fill="#557EBF"/>
<path d="M38.9999 107.9H65.2999V87.6996H38.9999C37.0999 87.6996 35.2999 87.2996 33.5999 86.5996L18.3999 101.2V101.4C24.3999 105.7 31.5999 108 39.0999 108L38.9999 107.9Z" fill="#557EBF"/>
<path d="M40.1999 41.8999C25.2999 41.9999 12.0999 51.1999 7.29987 64.6999C2.49987 78.2999 7.29987 93.1999 19.0999 102L34.6999 87.0999C26.0999 83.3999 24.0999 72.5999 30.6999 66.2999C37.2999 59.8999 48.4999 61.8999 52.3999 70.0999L67.9999 55.1999C61.3999 46.8999 51.0999 41.9999 40.1999 42.0999V41.8999Z" fill="#557EBF"/>
</svg>
