<svg width="128" height="128" viewBox="0 0 128 128" fill="none" xmlns="http://www.w3.org/2000/svg">
<path d="M68.7003 37.9H69.8003L72.9003 34.8L73.1003 33.5C70.7003 31.3 67.4003 30 63.8003 30C57.4003 30 51.9003 34.4 50.3003 40.3C50.6003 40.1 51.4003 40.2 51.4003 40.2L57.6003 39.2C57.6003 39.2 57.9003 38.7 58.1003 38.7C60.9003 35.7 65.5003 35.4 68.7003 37.9Z" fill="#557EBF"/>
<path d="M77.4 40.3C76.6 37.7 75.2 35.3 73.1 33.5L68.7 37.9C70.6 39.4 71.6 41.6 71.6 44V44.8C73.7 44.8 75.5 46.5 75.5 48.7C75.5 50.8 73.8 52.5 71.6 52.5H63.8L63 53.3V58L63.8 58.8H71.6C77.2 58.8 81.7 54.3 81.7 48.7C81.7 45.3 80 42.2 77.3 40.4L77.4 40.3Z" fill="#557EBF"/>
<path d="M56.1 58.7002H63.9V52.5002H56.1C55.5 52.5002 55 52.4002 54.5 52.2002L53.4 52.5002L50.3 55.6002L50 56.6002C51.7 58.0002 53.9 58.7002 56.1 58.7002Z" fill="#557EBF"/>
<path d="M56.1001 38.5C50.5001 38.5 46.0001 43 46.0001 48.6C46.0001 51.8 47.5001 54.8 50.0001 56.7L54.5001 52.2C53.1001 51.5 52.2001 50.2 52.2001 48.6C52.2001 46.5 53.9001 44.7 56.1001 44.7C57.6001 44.8 59.0001 45.7 59.6001 47L64.1001 42.5C62.3001 40.1 59.3001 38.5 56.1001 38.5ZM15.9001 78.3C13.8001 78.3 12.0001 77.5 10.4001 76C8.8001 74.5 8.1001 72.8 8.1001 70.6C8.1001 68.4 8.9001 66.7 10.4001 65.2C11.9001 63.7 13.8001 62.9 15.9001 62.9C17.8001 63 19.7001 63.7 21.1001 65.1L19.6001 66.6C18.6001 65.6 17.3001 65.1 15.8001 65.1C14.3001 65.1 13.0001 65.6 11.9001 66.7C10.9001 67.7 10.3001 69.2 10.4001 70.6C10.4001 72.1 10.9001 73.5 12.0001 74.5C13.0001 75.7 14.4001 76.2 15.8001 76.2C17.4001 76.2 18.6001 75.7 19.7001 74.7C20.3001 74.1 20.7001 73.2 20.8001 72.1H15.9001V70H22.9001C23.0001 70.4 23.0001 70.8 23.0001 71.3C23.0001 73.4 22.4001 75 21.2001 76.2C19.8001 77.6 18.1001 78.4 15.9001 78.4V78.3ZM32.3001 76.9C31.3001 77.8 30.2001 78.3 28.8001 78.3C27.4001 78.3 26.2001 77.8 25.3001 76.9C24.4001 76 23.9001 74.8 23.9001 73.4C23.9001 72 24.4001 70.8 25.3001 69.9C26.2001 69 27.4001 68.5 28.8001 68.5C30.2001 68.5 31.4001 69 32.3001 69.9C33.2001 70.8 33.7001 72 33.7001 73.4C33.7001 74.8 33.2001 76 32.3001 76.9ZM26.8001 75.5C27.3001 76.1 28.0001 76.4 28.7001 76.4C29.5001 76.4 30.1001 76.1 30.7001 75.5C31.3001 74.9 31.5001 74.2 31.5001 73.4C31.5001 72.5 31.2001 71.8 30.7001 71.2C30.2001 70.6 29.5001 70.4 28.7001 70.4C28.0001 70.4 27.2001 70.7 26.7001 71.2C26.2001 71.8 25.9001 72.5 25.9001 73.4C25.9001 74.3 26.2001 75 26.7001 75.5H26.8001ZM43.1001 76.9C42.1001 77.8 41.0001 78.3 39.6001 78.3C38.2001 78.3 37.0001 77.8 36.1001 76.9C35.2001 76 34.7001 74.8 34.7001 73.4C34.7001 72 35.2001 70.8 36.1001 69.9C37.0001 69 38.2001 68.5 39.6001 68.5C41.0001 68.5 42.2001 69 43.1001 69.9C44.0001 70.8 44.5001 72 44.5001 73.4C44.5001 74.8 44.0001 76 43.1001 76.9ZM37.6001 75.5C38.1001 76.1 38.8001 76.4 39.5001 76.4C40.3001 76.4 40.9001 76.1 41.5001 75.5C42.1001 74.9 42.3001 74.2 42.3001 73.4C42.3001 72.5 42.0001 71.8 41.5001 71.2C41.0001 70.6 40.3001 70.4 39.5001 70.4C38.8001 70.4 38.0001 70.7 37.5001 71.2C37.0001 71.8 36.7001 72.5 36.7001 73.4C36.7001 74.3 37.0001 75 37.5001 75.5H37.6001ZM50.2001 82.7C49.1001 82.7 48.2001 82.4 47.4001 81.8C46.6001 81.2 46.1001 80.5 45.8001 79.8L47.7001 79C47.9001 79.5 48.2001 79.9 48.6001 80.2C49.0001 80.5 49.5001 80.7 50.2001 80.7C51.0001 80.7 51.7001 80.4 52.1001 80C52.5001 79.6 52.8001 78.8 52.8001 77.8V77.1H52.7001C52.1001 77.8 51.2001 78.2 50.1001 78.2C48.8001 78.2 47.7001 77.7 46.8001 76.8C45.8001 76 45.3001 74.7 45.4001 73.4C45.3001 72.1 45.8001 70.8 46.8001 69.9C47.7001 68.9 48.8001 68.5 50.1001 68.5C50.7001 68.5 51.2001 68.6 51.6001 68.8C52.0001 69 52.4001 69.3 52.7001 69.6H52.8001V68.8H54.9001V77.7C54.9001 79.4 54.5001 80.7 53.6001 81.6C52.7001 82.4 51.6001 82.9 50.2001 82.9V82.7ZM50.3001 76.3C51.0001 76.4 51.7001 76.1 52.1001 75.5C52.6001 74.9 52.9001 74.2 52.9001 73.4C52.9001 72.5 52.6001 71.8 52.1001 71.2C51.7001 70.7 51.0001 70.4 50.3001 70.4C49.5001 70.4 48.9001 70.7 48.4001 71.3C47.9001 71.9 47.6001 72.6 47.6001 73.5C47.6001 74.3 47.9001 75.1 48.4001 75.6C48.9001 76.1 49.6001 76.5 50.3001 76.5V76.3ZM58.5001 63.4V77.9H56.3001V63.4H58.5001ZM64.4001 78.2C63.0001 78.2 61.8001 77.7 60.9001 76.8C60.0001 75.9 59.5001 74.7 59.5001 73.3C59.5001 71.9 60.0001 70.7 60.9001 69.7C61.7001 68.9 62.9001 68.4 64.2001 68.4C64.8001 68.4 65.4001 68.5 65.9001 68.7C66.3001 69 66.7001 69.2 67.1001 69.6C67.4001 69.9 67.7001 70.2 67.9001 70.6C68.1001 70.9 68.3001 71.2 68.4001 71.6L68.6001 72.2L62.0001 74.9C62.5001 75.9 63.3001 76.4 64.4001 76.4C65.4001 76.4 66.2001 75.9 66.8001 75L68.5001 76.1C68.1001 76.7 67.6001 77.2 66.9001 77.6C66.2001 78 65.4001 78.3 64.4001 78.3V78.2ZM61.7001 73.1L66.1001 71.3C66.0001 71 65.7001 70.7 65.4001 70.5C65.0001 70.4 64.6001 70.3 64.2001 70.3C63.6001 70.3 63.0001 70.6 62.4001 71.1C61.8001 71.6 61.6001 72.3 61.6001 73.2L61.7001 73.1ZM80.0001 78.2C78.0001 78.2 76.4001 77.5 75.0001 76.2C73.6001 74.9 73.0001 73.2 73.0001 71.2C73.0001 69.2 73.7001 67.5 75.0001 66.2C76.3001 64.9 78.0001 64.2 80.0001 64.2C82.0001 64.2 83.7001 64.9 84.9001 66.4L83.7001 67.6C82.8001 66.5 81.5001 65.9 80.0001 65.9C78.5001 65.9 77.3001 66.4 76.3001 67.4C75.3001 68.4 74.8001 69.7 74.8001 71.3C74.8001 72.9 75.3001 74.2 76.3001 75.2C77.3001 76.2 78.5001 76.7 80.0001 76.7C81.6001 76.7 83.0001 76.1 84.1001 74.8L85.3001 76C84.7001 76.7 83.9001 77.3 83.0001 77.7C82.0001 78.1 81.0001 78.3 80.0001 78.3V78.2ZM88.6001 77.9H86.9001V64.6H88.6001V77.9ZM91.4001 69.8C92.3001 68.9 93.4001 68.4 94.8001 68.4C96.2001 68.4 97.3001 68.9 98.2001 69.8C99.1001 70.7 99.5001 71.9 99.5001 73.3C99.5001 74.7 99.1001 75.9 98.2001 76.8C97.3001 77.7 96.2001 78.2 94.8001 78.2C93.4001 78.2 92.3001 77.7 91.4001 76.8C90.5001 75.9 90.1001 74.7 90.1001 73.3C90.1001 71.9 90.5001 70.7 91.4001 69.8ZM92.7001 75.7C93.3001 76.3 94.0001 76.6 94.8001 76.6C95.6001 76.6 96.3001 76.3 96.9001 75.7C97.5001 75.1 97.8001 74.3 97.8001 73.3C97.8001 72.3 97.5001 71.5 96.9001 70.9C96.3001 70.3 95.6001 70 94.8001 70C94.0001 70 93.3001 70.3 92.7001 70.9C92.1001 71.5 91.8001 72.3 91.8001 73.3C91.8001 74.3 92.1001 75.1 92.7001 75.7ZM109 77.9H107.4V76.6H107.3C107 77 106.6 77.4 106.1 77.7C105.6 78 105 78.2 104.4 78.2C103.3 78.2 102.4 77.9 101.8 77.2C101.2 76.5 100.9 75.6 100.9 74.4V68.8H102.6V74.1C102.6 75.8 103.4 76.7 104.9 76.7C105.5 76.7 106.2 76.4 106.6 75.9C107 75.3 107.2 74.6 107.2 73.9V68.9H108.9V78.1L109 77.9ZM114.8 78.2C113.6 78.2 112.6 77.7 111.7 76.8C110.8 75.9 110.4 74.7 110.4 73.3C110.4 71.9 110.8 70.8 111.7 69.8C112.6 68.8 113.6 68.4 114.8 68.4C115.5 68.4 116.1 68.6 116.7 68.8C117.3 69 117.7 69.5 117.9 69.9H118L117.9 68.6V64.4H119.6V77.8H118V76.5H117.9C117.6 76.9 117.2 77.3 116.7 77.6C116.1 77.9 115.5 78 114.8 78V78.2ZM115.1 76.6C115.8 76.7 116.6 76.4 117.1 75.8C117.7 75.2 117.9 74.4 117.9 73.4C117.9 72.4 117.6 71.6 117.1 71C116.6 70.5 115.8 70.1 115.1 70.1C114.3 70.1 113.6 70.4 113 71C112.4 71.6 112.1 72.4 112.1 73.4C112.1 74.4 112.4 75.2 113 75.8C113.5 76.4 114.3 76.8 115.1 76.8V76.6Z" fill="#557EBF"/>
</svg>
