<svg width="128" height="128" viewBox="0 0 128 128" fill="none" xmlns="http://www.w3.org/2000/svg">
<path d="M44.5899 4.20998C31.8008 8.64667 20.7714 17.0676 13.1219 28.236C5.47233 39.4044 1.60586 52.7314 2.09037 66.2596C2.57488 79.7879 7.38483 92.8042 15.8137 103.397C24.2426 113.989 35.8461 121.6 48.9199 125.11C59.5192 127.845 70.624 127.965 81.2799 125.46C90.9331 123.292 99.8577 118.654 107.18 112C114.801 104.863 120.332 95.7848 123.18 85.74C126.274 74.8165 126.825 63.3294 124.79 52.16H65.2699V76.85H99.7399C99.051 80.7879 97.5748 84.5463 95.3994 87.9003C93.2241 91.2543 90.3945 94.135 87.0799 96.37C82.8713 99.1553 78.1262 101.029 73.1499 101.87C68.1594 102.798 63.0405 102.798 58.0499 101.87C52.9915 100.825 48.2063 98.7376 43.9999 95.74C37.2414 90.9559 32.1667 84.1592 29.4999 76.32C26.7888 68.3338 26.7888 59.6762 29.4999 51.69C31.3982 46.0921 34.5363 40.9953 38.6799 36.78C43.4219 31.8675 49.4253 28.3559 56.0315 26.6307C62.6377 24.9055 69.5915 25.0333 76.1299 27C81.2379 28.5672 85.9089 31.3068 89.7699 35C93.6566 31.1333 97.5366 27.2566 101.41 23.37C103.41 21.28 105.59 19.29 107.56 17.15C101.665 11.6652 94.7465 7.39702 87.1999 4.58998C73.457 -0.40012 58.4197 -0.534225 44.5899 4.20998Z" fill="#587DBD"/>
</svg>
