<svg width="128" height="128" viewBox="0 0 128 128" fill="none" xmlns="http://www.w3.org/2000/svg">
<path d="M31.8498 57.9101H17.0898V62.2901H27.5598C27.0398 68.4301 21.9298 71.0501 17.1098 71.0501C14.0068 71.0501 11.0309 69.8174 8.83668 67.6232C6.6425 65.429 5.40983 62.4531 5.40983 59.3501C5.40983 56.247 6.6425 53.2711 8.83668 51.0769C11.0309 48.8827 14.0068 47.6501 17.1098 47.6501C20.051 47.6455 22.8794 48.7818 24.9998 50.8201L28.0698 47.6401C25.1045 44.7732 21.1239 43.1982 16.9998 43.2601C14.8869 43.2752 12.7976 43.7063 10.8512 44.5288C8.90485 45.3514 7.13958 46.5493 5.65616 48.054C4.17274 49.5588 3.00024 51.341 2.2056 53.2989C1.41095 55.2568 1.00972 57.3521 1.02483 59.4651C1.03993 61.578 1.47106 63.6673 2.29361 65.6137C3.11616 67.56 4.31402 69.3253 5.81879 70.8087C7.32357 72.2921 9.10579 73.4646 11.0637 74.2593C13.0216 75.0539 15.1169 75.4552 17.2298 75.4401C25.8398 75.4401 32.1498 69.5401 32.1498 60.8101C32.1677 59.8364 32.0771 58.8637 31.8798 57.9101H31.8498Z" fill="#4885ED"/>
<path d="M43.9401 54.74C41.8984 54.748 39.9048 55.3601 38.2106 56.4993C36.5163 57.6385 35.1972 59.2538 34.4196 61.1415C33.6419 63.0293 33.4405 65.105 33.8408 67.107C34.241 69.109 35.225 70.9478 36.6687 72.3914C38.1123 73.8351 39.9511 74.8191 41.9531 75.2193C43.9551 75.6196 46.0308 75.4182 47.9186 74.6405C49.8063 73.8629 51.4216 72.5438 52.5608 70.8495C53.7 69.1553 54.3121 67.1617 54.3201 65.12C54.3417 63.751 54.0879 62.3915 53.5739 61.1224C53.06 59.8532 52.2962 58.7003 51.328 57.7321C50.3598 56.7639 49.2069 56.0001 47.9377 55.4862C46.6686 54.9722 45.3091 54.7184 43.9401 54.74ZM44.0001 58.8C45.2585 58.7259 46.5102 59.0316 47.5928 59.6775C48.6754 60.3234 49.5389 61.2797 50.0714 62.4223C50.6039 63.565 50.7807 64.8413 50.579 66.0856C50.3773 67.33 49.8063 68.4851 48.9401 69.401C48.0739 70.3169 46.9525 70.9515 45.7213 71.2223C44.4901 71.4931 43.206 71.3877 42.0354 70.9198C40.8648 70.4519 39.8618 69.6431 39.1566 68.5982C38.4513 67.5534 38.0762 66.3207 38.0801 65.06C38.0381 64.2555 38.1599 63.4508 38.4382 62.6948C38.7165 61.9387 39.1454 61.2471 39.6989 60.6618C40.2525 60.0764 40.9191 59.6096 41.6585 59.2896C42.3978 58.9696 43.1944 58.803 44.0001 58.8Z" fill="#DB3236"/>
<path d="M66.5599 54.7399C64.5179 54.7458 62.5233 55.3563 60.8277 56.4943C59.1321 57.6323 57.8115 59.2469 57.0323 61.1345C56.2531 63.0221 56.0503 65.0981 56.4494 67.1008C56.8485 69.1035 57.8317 70.9431 59.275 72.3878C60.7183 73.8325 62.557 74.8174 64.5593 75.2185C66.5616 75.6195 68.6378 75.4187 70.5261 74.6414C72.4145 73.864 74.0303 72.5449 75.17 70.8504C76.3096 69.1559 76.922 67.1619 76.9299 65.1199C76.9515 63.7517 76.6981 62.393 76.1847 61.1246C75.6713 59.8561 74.9084 58.7037 73.9413 57.7356C72.9742 56.7675 71.8225 56.0036 70.5545 55.489C69.2866 54.9744 67.9282 54.7196 66.5599 54.7399ZM66.6199 58.7999C67.8784 58.7257 69.1301 59.0314 70.2126 59.6773C71.2952 60.3232 72.1588 61.2795 72.6912 62.4222C73.2237 63.5648 73.4006 64.8411 73.1988 66.0855C72.9971 67.3299 72.4262 68.4849 71.56 69.4009C70.6938 70.3168 69.5724 70.9513 68.3412 71.2221C67.11 71.493 65.8258 71.3876 64.6553 70.9197C63.4847 70.4518 62.4817 69.6429 61.7764 68.5981C61.0711 67.5532 60.6961 66.3205 60.6999 65.0599C60.6579 64.2554 60.7798 63.4507 61.0581 62.6946C61.3363 61.9386 61.7653 61.2469 62.3188 60.6616C62.8723 60.0763 63.539 59.6094 64.2783 59.2894C65.0177 58.9694 65.8143 58.8029 66.6199 58.7999Z" fill="#F4C20D"/>
<path d="M88.73 54.7499C83.17 54.7499 78.8 59.6199 78.8 65.0799C78.759 67.7481 79.7653 70.326 81.6029 72.2609C83.4406 74.1957 85.9633 75.3334 88.63 75.4299C89.7061 75.4885 90.7808 75.2917 91.7663 74.8554C92.7517 74.4192 93.62 73.7559 94.3 72.9199V74.9199C94.3 78.4899 92.13 80.6199 88.86 80.6199C87.7196 80.6105 86.608 80.2609 85.6673 79.616C84.7267 78.9711 84 78.0602 83.58 76.9999L79.58 78.6599C80.3537 80.4813 81.6503 82.0322 83.3058 83.1163C84.9613 84.2003 86.9012 84.7689 88.88 84.7499C94.41 84.7499 98.62 81.2699 98.62 73.9699V55.3699H94.31V57.1199C93.6032 56.3492 92.7394 55.7389 91.7769 55.3301C90.8144 54.9213 89.7754 54.7234 88.73 54.7499ZM89.13 58.7999C91.86 58.7999 94.65 61.1299 94.65 65.0999C94.65 69.0699 91.86 71.3699 89.07 71.3699C88.2811 71.3498 87.5042 71.1712 86.7858 70.8445C86.0673 70.5178 85.422 70.0499 84.8882 69.4685C84.3544 68.8872 83.9432 68.2043 83.6789 67.4606C83.4146 66.717 83.3028 65.9277 83.35 65.1399C83.35 61.1399 86.21 58.7999 89.13 58.7999Z" fill="#4885ED"/>
<path d="M117.93 54.7202C112.69 54.7202 108.28 58.8902 108.28 65.0502C108.228 66.4078 108.454 67.7617 108.943 69.0292C109.431 70.2968 110.173 71.4515 111.123 72.4229C112.073 73.3942 113.211 74.1618 114.467 74.6789C115.723 75.1959 117.072 75.4516 118.43 75.4302C120.134 75.4336 121.813 75.0219 123.322 74.2309C124.83 73.4399 126.124 72.2933 127.09 70.8902L123.51 68.5102C122.992 69.3903 122.249 70.1175 121.359 70.618C120.469 71.1186 119.462 71.3746 118.44 71.3602C117.379 71.4041 116.329 71.1294 115.426 70.5716C114.522 70.0138 113.806 69.1983 113.37 68.2302L127.24 62.4802L126.52 60.7902C125.859 59.0346 124.686 57.5182 123.152 56.4376C121.619 55.357 119.796 54.7622 117.92 54.7302L117.93 54.7202ZM118.11 58.7202C118.893 58.6865 119.668 58.8764 120.347 59.2679C121.025 59.6593 121.578 60.2359 121.94 60.9302L112.68 64.8002C112.634 64.0437 112.739 63.2857 112.987 62.5697C113.236 61.8538 113.624 61.1942 114.128 60.6289C114.633 60.0637 115.245 59.604 115.928 59.2764C116.612 58.9488 117.353 58.7598 118.11 58.7202Z" fill="#DB3236"/>
<path d="M101.67 74.8201H106.23V44.3301H101.67V74.8201Z" fill="#3CBA54"/>
</svg>
