<svg width="128" height="128" viewBox="0 0 128 128" fill="none" xmlns="http://www.w3.org/2000/svg">
<path d="M31.8498 57.9101H17.0898V62.2901H27.5598C27.0398 68.4301 21.9298 71.0501 17.1098 71.0501C14.0068 71.0501 11.0309 69.8174 8.83668 67.6232C6.6425 65.429 5.40983 62.4531 5.40983 59.3501C5.40983 56.247 6.6425 53.2711 8.83668 51.0769C11.0309 48.8827 14.0068 47.6501 17.1098 47.6501C20.051 47.6455 22.8794 48.7818 24.9998 50.8201L28.0698 47.6401C25.1045 44.7732 21.1239 43.1982 16.9998 43.2601C14.8869 43.2752 12.7976 43.7063 10.8512 44.5288C8.90485 45.3514 7.13958 46.5493 5.65616 48.054C4.17274 49.5588 3.00024 51.341 2.2056 53.2989C1.41095 55.2568 1.00972 57.3521 1.02483 59.4651C1.03993 61.578 1.47106 63.6673 2.29361 65.6137C3.11616 67.56 4.31402 69.3253 5.81879 70.8087C7.32357 72.2921 9.10579 73.4646 11.0637 74.2593C13.0216 75.0539 15.1169 75.4552 17.2298 75.4401C25.8398 75.4401 32.1498 69.5401 32.1498 60.8101C32.1677 59.8364 32.0771 58.8637 31.8798 57.9101H31.8498ZM43.9398 54.7401C41.8982 54.748 39.9046 55.3601 38.2103 56.4993C36.5161 57.6385 35.197 59.2538 34.4193 61.1416C33.6417 63.0293 33.4403 65.105 33.8405 67.107C34.2408 69.1091 35.2248 70.9478 36.6684 72.3915C38.1121 73.8351 39.9508 74.8191 41.9528 75.2193C43.9549 75.6196 46.0306 75.4182 47.9183 74.6405C49.8061 73.8629 51.4214 72.5438 52.5606 70.8495C53.6998 69.1553 54.3119 67.1617 54.3198 65.1201C54.3414 63.751 54.0877 62.3915 53.5737 61.1224C53.0597 59.8533 52.2959 58.7004 51.3277 57.7322C50.3595 56.7639 49.2066 56.0002 47.9375 55.4862C46.6684 54.9722 45.3089 54.7185 43.9398 54.7401ZM43.9998 58.8001C45.2583 58.7259 46.51 59.0316 47.5925 59.6775C48.6751 60.3234 49.5387 61.2797 50.0711 62.4223C50.6036 63.565 50.7805 64.8413 50.5787 66.0857C50.377 67.33 49.806 68.4851 48.9399 69.401C48.0737 70.317 46.9523 70.9515 45.7211 71.2223C44.4899 71.4931 43.2057 71.3878 42.0352 70.9198C40.8646 70.4519 39.8616 69.6431 39.1563 68.5982C38.451 67.5534 38.076 66.3207 38.0798 65.0601C38.0378 64.2555 38.1597 63.4508 38.438 62.6948C38.7162 61.9388 39.1451 61.2471 39.6987 60.6618C40.2522 60.0764 40.9189 59.6096 41.6582 59.2896C42.3976 58.9696 43.1942 58.803 43.9998 58.8001ZM66.5598 54.7401C64.5178 54.746 62.5232 55.3565 60.8276 56.4945C59.132 57.6325 57.8114 59.2471 57.0322 61.1347C56.253 63.0222 56.0502 65.0983 56.4493 67.101C56.8484 69.1036 57.8316 70.9433 59.2749 72.388C60.7182 73.8326 62.5569 74.8176 64.5592 75.2186C66.5615 75.6197 68.6377 75.4189 70.526 74.6415C72.4144 73.8642 74.0302 72.5451 75.1699 70.8506C76.3095 69.1561 76.9219 67.1621 76.9298 65.1201C76.9514 63.7518 76.698 62.3932 76.1846 61.1247C75.6712 59.8563 74.9083 58.7039 73.9412 57.7358C72.9741 56.7677 71.8224 56.0037 70.5544 55.4891C69.2865 54.9745 67.9281 54.7198 66.5598 54.7401ZM66.6198 58.8001C67.8783 58.7259 69.13 59.0316 70.2125 59.6775C71.2951 60.3234 72.1587 61.2797 72.6911 62.4223C73.2236 63.565 73.4005 64.8413 73.1987 66.0857C72.997 67.33 72.4261 68.4851 71.5599 69.401C70.6937 70.317 69.5723 70.9515 68.3411 71.2223C67.1099 71.4931 65.8257 71.3878 64.6552 70.9198C63.4846 70.4519 62.4816 69.6431 61.7763 68.5982C61.071 67.5534 60.696 66.3207 60.6998 65.0601C60.6578 64.2555 60.7797 63.4508 61.058 62.6948C61.3362 61.9388 61.7651 61.2471 62.3187 60.6618C62.8722 60.0764 63.5389 59.6096 64.2782 59.2896C65.0176 58.9696 65.8142 58.803 66.6198 58.8001ZM88.7298 54.7501C83.1698 54.7501 78.7998 59.6201 78.7998 65.0801C78.7588 67.7482 79.7651 70.3262 81.6027 72.261C83.4404 74.1959 85.9631 75.3336 88.6298 75.4301C89.7059 75.4887 90.7806 75.2918 91.7661 74.8556C92.7515 74.4193 93.6198 73.7561 94.2998 72.9201V74.9201C94.2998 78.4901 92.1298 80.6201 88.8598 80.6201C87.7194 80.6106 86.6077 80.2611 85.6671 79.6162C84.7265 78.9713 83.9997 78.0604 83.5798 77.0001L79.5798 78.6601C80.3535 80.4814 81.6501 82.0323 83.3056 83.1164C84.9611 84.2005 86.901 84.769 88.8798 84.7501C94.4098 84.7501 98.6198 81.2701 98.6198 73.9701V55.3701H94.3098V57.1201C93.603 56.3494 92.7392 55.7391 91.7767 55.3302C90.8142 54.9214 89.7752 54.7236 88.7298 54.7501ZM89.1298 58.8001C91.8598 58.8001 94.6498 61.1301 94.6498 65.1001C94.6498 69.0701 91.8598 71.3701 89.0698 71.3701C88.2809 71.35 87.504 71.1713 86.7855 70.8446C86.0671 70.518 85.4218 70.05 84.888 69.4687C84.3542 68.8873 83.943 68.2045 83.6787 67.4608C83.4144 66.7171 83.3026 65.9279 83.3498 65.1401C83.3498 61.1401 86.2098 58.8001 89.1298 58.8001ZM117.93 54.7201C112.69 54.7201 108.28 58.8901 108.28 65.0501C108.228 66.4076 108.453 67.7615 108.942 69.0291C109.431 70.2967 110.173 71.4514 111.123 72.4227C112.073 73.394 113.21 74.1617 114.467 74.6787C115.723 75.1958 117.071 75.4514 118.43 75.4301C120.133 75.4334 121.812 75.0218 123.321 74.2308C124.83 73.4397 126.124 72.2931 127.09 70.8901L123.51 68.5101C122.991 69.3901 122.249 70.1173 121.359 70.6179C120.468 71.1184 119.461 71.3745 118.44 71.3601C117.379 71.4039 116.329 71.1292 115.426 70.5714C114.522 70.0136 113.806 69.1982 113.37 68.2301L127.24 62.4801L126.52 60.7901C125.859 59.0345 124.685 57.518 123.152 56.4374C121.618 55.3569 119.796 54.762 117.92 54.7301L117.93 54.7201ZM118.11 58.7201C118.892 58.6863 119.668 58.8763 120.346 59.2677C121.025 59.6591 121.577 60.2358 121.94 60.9301L112.68 64.8001C112.634 64.0436 112.738 63.2855 112.987 62.5696C113.235 61.8536 113.623 61.194 114.128 60.6287C114.633 60.0635 115.245 59.6038 115.928 59.2762C116.611 58.9486 117.353 58.7596 118.11 58.7201ZM101.67 74.8201H106.23V44.3301H101.67V74.8201Z" fill="#587DBD"/>
</svg>
