<svg width="128" height="128" viewBox="0 0 128 128" fill="none" xmlns="http://www.w3.org/2000/svg">
<path d="M68.6998 37.9H69.7998L72.8998 34.8L73.0998 33.5C70.6998 31.3 67.3998 30 63.7998 30C57.3998 30 51.8998 34.4 50.2998 40.3C50.5998 40.1 51.3998 40.2 51.3998 40.2L57.5998 39.2C57.5998 39.2 57.8998 38.7 58.0998 38.7C60.8998 35.7 65.4998 35.4 68.6998 37.9Z" fill="#EA4535"/>
<path d="M77.4 40.3C76.6 37.7 75.2 35.3 73.1 33.5L68.7 37.9C70.6 39.4 71.6 41.6 71.6 44V44.8C73.7 44.8 75.5 46.5 75.5 48.7C75.5 50.8 73.8 52.5 71.6 52.5H63.8L63 53.3V58L63.8 58.8H71.6C77.2 58.8 81.7 54.3 81.7 48.7C81.7 45.3 80 42.2 77.3 40.4L77.4 40.3Z" fill="#557EBF"/>
<path d="M56.1 58.7002H63.9V52.5002H56.1C55.5 52.5002 55 52.4002 54.5 52.2002L53.4 52.5002L50.3 55.6002L50 56.6002C51.7 58.0002 53.9 58.7002 56.1 58.7002Z" fill="#36A852"/>
<path d="M56.1 38.5C50.5 38.5 46 43 46 48.6C46 51.8 47.5 54.8 50 56.7L54.5 52.2C53.1 51.5 52.2 50.2 52.2 48.6C52.2 46.5 53.9 44.7 56.1 44.7C57.6 44.8 59 45.7 59.6 47L64.1 42.5C62.3 40.1 59.3 38.5 56.1 38.5Z" fill="#F9BC15"/>
<path d="M15.9001 78.2999C13.8001 78.2999 12.0001 77.4999 10.4001 75.9999C8.8001 74.4999 8.1001 72.7999 8.1001 70.5999C8.1001 68.3999 8.9001 66.6999 10.4001 65.1999C11.9001 63.6999 13.8001 62.8999 15.9001 62.8999C17.8001 62.9999 19.7001 63.6999 21.1001 65.0999L19.6001 66.5999C18.6001 65.5999 17.3001 65.0999 15.8001 65.0999C14.3001 65.0999 13.0001 65.5999 11.9001 66.6999C10.9001 67.6999 10.3001 69.1999 10.4001 70.5999C10.4001 72.0999 10.9001 73.4999 12.0001 74.4999C13.0001 75.6999 14.4001 76.1999 15.8001 76.1999C17.4001 76.1999 18.6001 75.6999 19.7001 74.6999C20.3001 74.0999 20.7001 73.1999 20.8001 72.0999H15.9001V69.9999H22.9001C23.0001 70.3999 23.0001 70.7999 23.0001 71.2999C23.0001 73.3999 22.4001 74.9999 21.2001 76.1999C19.8001 77.5999 18.1001 78.3999 15.9001 78.3999V78.2999ZM32.3001 76.8999C31.3001 77.7999 30.2001 78.2999 28.8001 78.2999C27.4001 78.2999 26.2001 77.7999 25.3001 76.8999C24.4001 75.9999 23.9001 74.7999 23.9001 73.3999C23.9001 71.9999 24.4001 70.7999 25.3001 69.8999C26.2001 68.9999 27.4001 68.4999 28.8001 68.4999C30.2001 68.4999 31.4001 68.9999 32.3001 69.8999C33.2001 70.7999 33.7001 71.9999 33.7001 73.3999C33.7001 74.7999 33.2001 75.9999 32.3001 76.8999ZM26.8001 75.4999C27.3001 76.0999 28.0001 76.3999 28.7001 76.3999C29.5001 76.3999 30.1001 76.0999 30.7001 75.4999C31.3001 74.8999 31.5001 74.1999 31.5001 73.3999C31.5001 72.4999 31.2001 71.7999 30.7001 71.1999C30.2001 70.5999 29.5001 70.3999 28.7001 70.3999C28.0001 70.3999 27.2001 70.6999 26.7001 71.1999C26.2001 71.7999 25.9001 72.4999 25.9001 73.3999C25.9001 74.2999 26.2001 74.9999 26.7001 75.4999H26.8001ZM43.1001 76.8999C42.1001 77.7999 41.0001 78.2999 39.6001 78.2999C38.2001 78.2999 37.0001 77.7999 36.1001 76.8999C35.2001 75.9999 34.7001 74.7999 34.7001 73.3999C34.7001 71.9999 35.2001 70.7999 36.1001 69.8999C37.0001 68.9999 38.2001 68.4999 39.6001 68.4999C41.0001 68.4999 42.2001 68.9999 43.1001 69.8999C44.0001 70.7999 44.5001 71.9999 44.5001 73.3999C44.5001 74.7999 44.0001 75.9999 43.1001 76.8999ZM37.6001 75.4999C38.1001 76.0999 38.8001 76.3999 39.5001 76.3999C40.3001 76.3999 40.9001 76.0999 41.5001 75.4999C42.1001 74.8999 42.3001 74.1999 42.3001 73.3999C42.3001 72.4999 42.0001 71.7999 41.5001 71.1999C41.0001 70.5999 40.3001 70.3999 39.5001 70.3999C38.8001 70.3999 38.0001 70.6999 37.5001 71.1999C37.0001 71.7999 36.7001 72.4999 36.7001 73.3999C36.7001 74.2999 37.0001 74.9999 37.5001 75.4999H37.6001ZM50.2001 82.6999C49.1001 82.6999 48.2001 82.3999 47.4001 81.7999C46.6001 81.1999 46.1001 80.4999 45.8001 79.7999L47.7001 78.9999C47.9001 79.4999 48.2001 79.8999 48.6001 80.1999C49.0001 80.4999 49.5001 80.6999 50.2001 80.6999C51.0001 80.6999 51.7001 80.3999 52.1001 79.9999C52.5001 79.5999 52.8001 78.7999 52.8001 77.7999V77.0999H52.7001C52.1001 77.7999 51.2001 78.1999 50.1001 78.1999C48.8001 78.1999 47.7001 77.6999 46.8001 76.7999C45.8001 75.9999 45.3001 74.6999 45.4001 73.3999C45.3001 72.0999 45.8001 70.7999 46.8001 69.8999C47.7001 68.8999 48.8001 68.4999 50.1001 68.4999C50.7001 68.4999 51.2001 68.5999 51.6001 68.7999C52.0001 68.9999 52.4001 69.2999 52.7001 69.5999H52.8001V68.7999H54.9001V77.6999C54.9001 79.3999 54.5001 80.6999 53.6001 81.5999C52.7001 82.3999 51.6001 82.8999 50.2001 82.8999V82.6999ZM50.3001 76.2999C51.0001 76.3999 51.7001 76.0999 52.1001 75.4999C52.6001 74.8999 52.9001 74.1999 52.9001 73.3999C52.9001 72.4999 52.6001 71.7999 52.1001 71.1999C51.7001 70.6999 51.0001 70.3999 50.3001 70.3999C49.5001 70.3999 48.9001 70.6999 48.4001 71.2999C47.9001 71.8999 47.6001 72.5999 47.6001 73.4999C47.6001 74.2999 47.9001 75.0999 48.4001 75.5999C48.9001 76.0999 49.6001 76.4999 50.3001 76.4999V76.2999ZM58.5001 63.3999V77.8999H56.3001V63.3999H58.5001ZM64.4001 78.1999C63.0001 78.1999 61.8001 77.6999 60.9001 76.7999C60.0001 75.8999 59.5001 74.6999 59.5001 73.2999C59.5001 71.8999 60.0001 70.6999 60.9001 69.6999C61.7001 68.8999 62.9001 68.3999 64.2001 68.3999C64.8001 68.3999 65.4001 68.4999 65.9001 68.6999C66.3001 68.9999 66.7001 69.1999 67.1001 69.5999C67.4001 69.8999 67.7001 70.1999 67.9001 70.5999C68.1001 70.8999 68.3001 71.1999 68.4001 71.5999L68.6001 72.1999L62.0001 74.8999C62.5001 75.8999 63.3001 76.3999 64.4001 76.3999C65.4001 76.3999 66.2001 75.8999 66.8001 74.9999L68.5001 76.0999C68.1001 76.6999 67.6001 77.1999 66.9001 77.5999C66.2001 77.9999 65.4001 78.2999 64.4001 78.2999V78.1999ZM61.7001 73.0999L66.1001 71.2999C66.0001 70.9999 65.7001 70.6999 65.4001 70.4999C65.0001 70.3999 64.6001 70.2999 64.2001 70.2999C63.6001 70.2999 63.0001 70.5999 62.4001 71.0999C61.8001 71.5999 61.6001 72.2999 61.6001 73.1999L61.7001 73.0999ZM80.0001 78.1999C78.0001 78.1999 76.4001 77.4999 75.0001 76.1999C73.6001 74.8999 73.0001 73.1999 73.0001 71.1999C73.0001 69.1999 73.7001 67.4999 75.0001 66.1999C76.3001 64.8999 78.0001 64.1999 80.0001 64.1999C82.0001 64.1999 83.7001 64.8999 84.9001 66.3999L83.7001 67.5999C82.8001 66.4999 81.5001 65.8999 80.0001 65.8999C78.5001 65.8999 77.3001 66.3999 76.3001 67.3999C75.3001 68.3999 74.8001 69.6999 74.8001 71.2999C74.8001 72.8999 75.3001 74.1999 76.3001 75.1999C77.3001 76.1999 78.5001 76.6999 80.0001 76.6999C81.6001 76.6999 83.0001 76.0999 84.1001 74.7999L85.3001 75.9999C84.7001 76.6999 83.9001 77.2999 83.0001 77.6999C82.0001 78.0999 81.0001 78.2999 80.0001 78.2999V78.1999ZM88.6001 77.8999H86.9001V64.5999H88.6001V77.8999ZM91.4001 69.7999C92.3001 68.8999 93.4001 68.3999 94.8001 68.3999C96.2001 68.3999 97.3001 68.8999 98.2001 69.7999C99.1001 70.6999 99.5001 71.8999 99.5001 73.2999C99.5001 74.6999 99.1001 75.8999 98.2001 76.7999C97.3001 77.6999 96.2001 78.1999 94.8001 78.1999C93.4001 78.1999 92.3001 77.6999 91.4001 76.7999C90.5001 75.8999 90.1001 74.6999 90.1001 73.2999C90.1001 71.8999 90.5001 70.6999 91.4001 69.7999ZM92.7001 75.6999C93.3001 76.2999 94.0001 76.5999 94.8001 76.5999C95.6001 76.5999 96.3001 76.2999 96.9001 75.6999C97.5001 75.0999 97.8001 74.2999 97.8001 73.2999C97.8001 72.2999 97.5001 71.4999 96.9001 70.8999C96.3001 70.2999 95.6001 69.9999 94.8001 69.9999C94.0001 69.9999 93.3001 70.2999 92.7001 70.8999C92.1001 71.4999 91.8001 72.2999 91.8001 73.2999C91.8001 74.2999 92.1001 75.0999 92.7001 75.6999ZM109 77.8999H107.4V76.5999H107.3C107 76.9999 106.6 77.3999 106.1 77.6999C105.6 77.9999 105 78.1999 104.4 78.1999C103.3 78.1999 102.4 77.8999 101.8 77.1999C101.2 76.4999 100.9 75.5999 100.9 74.3999V68.7999H102.6V74.0999C102.6 75.7999 103.4 76.6999 104.9 76.6999C105.5 76.6999 106.2 76.3999 106.6 75.8999C107 75.2999 107.2 74.5999 107.2 73.8999V68.8999H108.9V78.0999L109 77.8999ZM114.8 78.1999C113.6 78.1999 112.6 77.6999 111.7 76.7999C110.8 75.8999 110.4 74.6999 110.4 73.2999C110.4 71.8999 110.8 70.7999 111.7 69.7999C112.6 68.7999 113.6 68.3999 114.8 68.3999C115.5 68.3999 116.1 68.5999 116.7 68.7999C117.3 68.9999 117.7 69.4999 117.9 69.8999H118L117.9 68.5999V64.3999H119.6V77.7999H118V76.4999H117.9C117.6 76.8999 117.2 77.2999 116.7 77.5999C116.1 77.8999 115.5 77.9999 114.8 77.9999V78.1999ZM115.1 76.5999C115.8 76.6999 116.6 76.3999 117.1 75.7999C117.7 75.1999 117.9 74.3999 117.9 73.3999C117.9 72.3999 117.6 71.5999 117.1 70.9999C116.6 70.4999 115.8 70.0999 115.1 70.0999C114.3 70.0999 113.6 70.3999 113 70.9999C112.4 71.5999 112.1 72.3999 112.1 73.3999C112.1 74.3999 112.4 75.1999 113 75.7999C113.5 76.3999 114.3 76.7999 115.1 76.7999V76.5999Z" fill="#5F6368"/>
</svg>
