<svg width="128" height="128" viewBox="0 0 128 128" fill="none" xmlns="http://www.w3.org/2000/svg">
<path d="M39.2001 49.5C40.2001 50.2 41.2001 50.8 42.2001 51.5C42.4001 51.7 42.8001 51.7 43.1001 51.7C46.2001 51.2 49.2001 51.7 51.7001 53.7C53.3001 55 54.4001 56.7 54.9001 58.7C55.0001 59.3 54.9001 59.5 54.3001 59.4H53.6001C52.1001 59.6 51.0001 59.4 50.2001 57.7C49.2001 55.6 46.8001 54.8 44.4001 55.3C44.3001 56.3 44.4001 57.4 44.2001 58.4C43.5001 61.7 41.8001 64.5 38.6001 66.1C38.1001 66.3 38.1001 66.6 38.3001 67C39.4001 71 42.8001 73.1 46.9001 72.5C48.1001 72.3 51.2001 71 51.1001 70.5V67.6C51.1001 67 50.9001 66.8 50.4001 66.8H46.0001C45.4001 66.8 45.2001 66.6 45.3001 66V64.2C45.3001 63.7 45.4001 63.5 45.9001 63.6H54.4001C54.9001 63.6 55.0001 63.8 55.0001 64.2V71.5C55.0001 72.8 54.0001 73.6 53.1001 74.3C51.4001 75.5 49.4001 76 47.4001 76.1C45.0001 76.3 42.5001 76.3 40.3001 75.1C37.4001 73.6 35.5001 71.3 34.5001 68.2C34.2001 67.3 34.0001 67.2 33.2001 67.7C32.5001 68.1 32.2001 68.8 32.2001 69.6C32.1001 71.4 32.2001 73.3 32.1001 75.1V76H28.0001C27.8001 76 27.6001 75.6 27.4001 75.5C26.1001 74.3 25.0001 73 23.7001 72C21.7001 70.4 19.8001 70.9 18.5001 73.1C18.0001 74 17.6001 75 17.1001 76.1H13.4001C13.2001 75.5 13.2001 74.9 12.9001 74.3C12.6001 73.7 12.3001 73.1 11.8001 72.6C10.9001 71.6 9.7001 71.6 8.7001 72.5C7.6001 73.4 7.2001 74.7 6.9001 76.1H2.0001C1.9001 75.3 1.8001 74.5 1.6001 73.7V69.4C1.7001 68.7 1.8001 67.9 1.9001 67.2C2.3001 64.5 3.1001 61.9 5.0001 59.7C6.1001 58.3 7.5001 57.4 9.2001 56.8C9.9001 58.1 10.5001 59.3 11.1001 60.4C11.8001 61.7 12.9001 62.6 14.5001 62.5C16.1001 62.4 18.2001 60.9 18.7001 59.6C18.5001 59.8 18.3001 59.9 18.2001 60C17.4001 60.5 16.6001 61.1 15.7001 61.4C14.4001 61.9 13.2001 61.7 12.5001 60.6C11.4001 58.8 10.4001 56.9 9.4001 55C8.9001 54 9.2001 53.1 10.2001 52.4C10.5001 52.2 10.8001 52 11.1001 51.9C13.2001 51.3 15.3001 50.6 17.4001 50.2C22.7001 49.3 27.5001 50.6 31.4001 54.5C32.4001 55.5 33.6001 56.4 34.9001 57.5C35.9001 55.6 37.2001 54.1 39.0001 53C38.4001 52.6 37.9001 52.3 37.5001 51.9C36.8001 51.4 36.8001 51.1 37.4001 50.5C37.8001 50.1 38.2001 49.8 38.5001 49.5H39.2001ZM28.3001 58.4C27.7001 58.2 27.1001 58 26.6001 57.8C26.0001 59.6 26.7001 60.9 28.3001 61.4C29.8001 61.8 31.5001 61 31.9001 59.6C31.5001 59.5 31.1001 59.3 30.5001 59.1C30.6001 60 30.3001 60.6 29.5001 60.8C28.9001 60.9 28.4001 60.8 28.0001 60.2C27.6001 59.6 27.8001 59.1 28.3001 58.4ZM96.9001 60.4V59.5V53C96.9001 52.4 97.1001 52.2 97.6001 52.2H100C100.6 52.2 100.8 52.4 100.7 53V69.2C100.7 71.2 100.6 73.2 100.6 75.2C100.6 75.7 100.4 75.9 99.9001 75.9H97.7001C97.0001 75.9 96.7001 75.8 96.8001 75C96.8001 74.8 96.8001 74.7 96.7001 74.4C96.5001 74.5 96.3001 74.5 96.2001 74.6C93.5001 77.4 88.1001 76.6 85.9001 72.9C83.8001 69.3 84.4001 63.4 87.4001 60.5C89.7001 58.3 94.1001 58 96.2001 60.2C96.5001 60.2 96.7001 60.2 96.9001 60.4ZM96.5001 64.6C96.0001 63 94.8001 62.1 93.1001 62.1C91.6001 62.1 90.4001 62.7 89.6001 64.1C88.4001 66.4 88.5001 68.7 89.7001 70.9C91.1001 73.5 94.8001 73.4 96.1001 70.8C97.0001 69.5 97.1001 65.8 96.5001 64.6ZM83.2001 75.7H79.5001C79.0001 75.7 78.9001 75.5 78.8001 75.1C78.8001 74.9 78.7001 74.7 78.7001 74.4C78.4001 74.6 78.1001 74.7 77.8001 74.9C75.6001 76.1 73.3001 76.5 70.9001 75.5C68.9001 74.7 67.8001 73.1 67.7001 71C67.7001 69.1 68.5001 67.4 70.3001 66.6C71.7001 66 73.2001 65.7 74.6001 65.3C75.6001 65 76.7001 64.8 77.7001 64.5C78.1001 64.4 78.5001 63.9 78.6001 63.5C78.8001 62.9 78.5001 62.3 77.9001 61.9C76.6001 61.1 74.2001 61.3 73.1001 62.2C72.8001 62.4 72.5001 62.8 72.5001 63.1C72.4001 63.8 72.0001 63.8 71.4001 63.8H69.2001C68.5001 63.8 68.4001 63.5 68.5001 63C68.8001 61.5 69.5001 60.3 70.9001 59.5C72.7001 58.5 74.6001 58.3 76.6001 58.5C77.5001 58.6 78.3001 58.7 79.2001 58.9C81.6001 59.5 82.7001 61 82.7001 63.4V74.1C82.9001 74.7 83.1001 75.1 83.2001 75.7ZM78.9001 67.4C77.6001 67.7 76.4001 68 75.2001 68.3C74.5001 68.5 73.8001 68.6 73.2001 68.8C72.2001 69.2 71.8001 69.9 71.9001 71C72.0001 71.8 72.5001 72.4 73.4001 72.6C74.8001 73 76.1001 72.8 77.3001 72.1C78.9001 71.3 79.4001 69.6 78.9001 67.4ZM114 68.2C113.8 69.7 115.1 71.5 116.6 72.1C118.3 72.8 121.3 72.7 122.5 70.7C122.6 70.5 123 70.4 123.2 70.5C124.1 70.9 124.9 71.4 125.8 71.9C125.2 73.2 124.3 74.1 123.2 74.9C120.3 77 113.9 76.8 111.3 72.7C110.4 71.3 110 69.7 109.9 68C109.8 65.9 110.1 63.9 111.3 62.1C112.6 60.1 114.5 59.1 116.8 58.7C118.4 58.5 120 58.7 121.5 59.2C124.4 60.3 125.6 62.7 126.1 65.6C126.2 66.2 126.2 66.7 126.3 67.3C126.4 67.9 126.1 68.1 125.5 68.1H115C114.6 68.2 114.3 68.2 114 68.2ZM114.1 65.4H121.9C122.1 63.7 120.5 61.9 118.8 61.8C116.2 61.6 114.2 63 114.1 65.4ZM103.9 74.8C103.9 75.5 104.1 75.8 104.8 75.7C105.5 75.6 106.2 75.7 106.9 75.7C107.6 75.7 107.8 75.5 107.8 74.8V65.7C107.8 61.4 107.9 57 107.9 52.7C107.9 52.2 107.7 52.1 107.3 52.1H104.8C104.1 52.1 103.9 52.3 103.9 53V74.8ZM61.3001 61.1V59.6C61.3001 59.2 61.1001 59 60.7001 59H58.2001C57.7001 59 57.5001 59.2 57.5001 59.7V75.1C57.5001 75.6 57.7001 75.8 58.2001 75.8H60.4001C61.1001 75.9 61.3001 75.6 61.3001 74.9C61.3001 72.3 61.4001 69.6 61.4001 67C61.5001 65 62.7001 63.4 64.7001 62.9C65.1001 62.8 65.6001 62.8 66.1001 62.7C66.6001 62.6 66.8001 62.4 66.8001 61.9V59.4C66.8001 58.9 66.6001 58.7 66.1001 58.7C64.5001 58.8 63.0001 59.3 62.0001 60.6C61.9001 60.8 61.7001 61 61.5001 61.2C61.5001 61.1 61.4001 61.1 61.3001 61.1Z" fill="#363636"/>
</svg>
