<svg width="128" height="128" viewBox="0 0 128 128" fill="none" xmlns="http://www.w3.org/2000/svg">
<path d="M99.4999 112.5H85.2999C84.7999 112.5 84.4999 112.3 84.1999 112C80.9999 108 77.4999 104.3 73.2999 101.4C71.1999 99.8999 68.9999 98.5999 66.4999 97.8999C64.4999 97.2999 62.3999 96.9999 60.2999 97.4999C58.1999 97.9999 56.3999 99.1999 54.8999 100.7C52.9999 102.6 51.6999 104.9 50.6999 107.4C50.0999 108.9 49.5999 110.4 49.0999 111.9C48.9999 112.1 48.9999 112.3 48.8999 112.5H37.4999C37.3999 111.9 37.2999 111.3 37.1999 110.6C36.7999 108.6 36.1999 106.6 35.1999 104.8C34.4999 103.4 33.5999 102.2 32.3999 101.2C31.0999 100.1 29.5999 99.4999 27.8999 99.4999C26.5999 99.4999 25.4999 99.9999 24.3999 100.7C22.8999 101.7 21.6999 103 20.7999 104.5C19.3999 106.7 18.5999 109.2 17.8999 111.7C17.7999 111.9 17.7999 112.2 17.6999 112.5H2.79992C2.69992 111.8 2.59992 111 2.49992 110.3C1.99992 105.6 1.69992 100.9 1.79992 96.1999C1.89992 90.6999 2.49992 85.2999 3.79992 79.8999C4.99992 74.9999 6.69992 70.3999 9.29992 66.1999C12.8999 60.4999 17.6999 56.3999 23.9999 53.8999C24.1999 53.7999 24.2999 53.7999 24.4999 53.6999H24.6999L24.9999 54.2999C26.7999 58.2999 28.6999 62.1999 30.9999 65.7999C32.3999 68.0999 34.3999 69.7999 36.8999 70.5999C39.5999 71.4999 42.1999 71.1999 44.7999 70.0999C47.0999 69.0999 48.9999 67.5999 50.7999 65.8999C52.8999 63.8999 54.5999 61.6999 56.2999 59.2999C56.3999 59.1999 56.3999 59.0999 56.3999 58.9999C56.1999 59.1999 55.9999 59.3999 55.6999 59.5999C53.1999 62.0999 50.4999 64.2999 47.3999 65.9999C45.8999 66.8999 44.1999 67.5999 42.4999 67.8999C39.9999 68.3999 37.6999 68.0999 35.6999 66.2999C34.8999 65.5999 34.2999 64.7999 33.6999 63.9999C30.6999 59.2999 28.0999 54.3999 25.6999 49.3999C25.1999 48.3999 24.7999 47.3999 24.6999 46.1999C24.4999 44.4999 24.9999 42.9999 26.1999 41.6999C27.0999 40.7999 28.0999 40.0999 29.2999 39.4999C31.4999 38.3999 33.7999 37.5999 36.0999 36.7999C39.4999 35.6999 42.9999 34.8999 46.5999 34.3999C50.6999 33.7999 54.8999 33.6999 59.0999 34.1999C68.0999 35.0999 76.0999 38.3999 83.3999 43.6999C85.8999 45.4999 88.4999 46.9999 91.4999 47.8999C103.4 51.6999 112.9 43.4999 115.1 35.0999C115.7 32.7999 115.9 30.4999 115 28.2999C113.7 24.8999 111.4 22.2999 107.7 21.2999C104.9 20.5999 102.2 20.8999 99.5999 22.2999C99.0999 22.5999 98.5999 22.7999 98.0999 22.9999C96.8999 23.3999 96.0999 23.0999 95.4999 21.9999C94.6999 20.5999 94.0999 19.1999 93.3999 17.6999C93.0999 17.0999 93.1999 16.5999 93.4999 16.0999C93.7999 15.3999 94.2999 14.8999 94.8999 14.3999C96.3999 13.1999 98.1999 12.3999 100.2 11.9999C105.1 10.8999 109.7 11.5999 114.1 13.7999C117.6 15.4999 120.3 18.0999 122.3 21.4999C124.2 24.6999 125.5 28.0999 126.1 31.7999C126.5 34.6999 126.5 37.4999 126.2 40.3999C125.6 45.3999 124.2 50.0999 122.2 54.6999C119.6 60.6999 116.6 66.4999 112.9 71.8999C111.1 74.4999 109.2 76.9999 107.4 79.4999C105.5 82.1999 103.6 84.8999 102.2 87.8999C100.3 91.7999 99.1999 95.7999 98.7999 100.1C98.4999 103.8 98.6999 107.4 99.2999 111.1C99.3999 111.7 99.4999 112.1 99.4999 112.5ZM91.2999 61.0999C91.5999 63.4999 90.7999 65.0999 88.5999 65.9999C86.9999 66.5999 84.9999 66.0999 83.9999 64.6999C82.3999 62.5999 82.8999 60.6999 84.6999 58.8999C82.8999 58.2999 81.0999 57.6999 79.3999 57.1999C78.9999 58.1999 78.7999 59.6999 78.8999 60.8999C79.0999 63.2999 79.9999 65.2999 81.9999 66.5999C84.0999 67.9999 86.4999 68.5999 88.9999 68.0999C91.5999 67.5999 93.5999 66.0999 94.9999 63.8999C95.2999 63.4999 95.4999 63.0999 95.4999 62.4999C94.0999 62.0999 92.6999 61.5999 91.2999 61.0999Z" fill="#02303A"/>
</svg>
