<svg width="128" height="128" viewBox="0 0 128 128" fill="none" xmlns="http://www.w3.org/2000/svg">
<path d="M27.7998 114C27.4998 120.7 22.1998 126 15.4998 126C8.4998 126 3.2998 120.4 3.2998 113.5C3.2998 106.6 8.8998 101 15.7998 101C18.8998 101 21.8998 102.4 24.4998 104.7L22.4998 107.2C20.4998 105.5 18.1998 104.3 15.7998 104.3C10.7998 104.3 6.5998 108.4 6.5998 113.5C6.5998 118.7 10.4998 122.7 15.4998 122.7C19.8998 122.7 23.3998 119.5 24.1998 115.2H14.0998V112.2H27.7998V114ZM39.2998 112.3H37.3998C35.3998 112.3 33.6998 114 33.6998 116V125.7H30.3998V109H33.0998V110.4C33.9998 109.5 35.3998 109 36.9998 109H40.5998L39.2998 112.3ZM57.5998 125.7H54.6998V123.6C52.4998 125.7 49.0998 126.8 45.5998 125.2C42.9998 124.1 41.0998 121.7 40.5998 118.9C39.5998 113.5 43.7998 108.8 48.9998 108.8C51.1998 108.8 53.2998 109.7 54.6998 111.2V109.1H57.5998V125.7ZM54.1998 118.7C54.9998 115.3 52.3998 112.2 49.0998 112.2C46.1998 112.2 43.8998 114.6 43.8998 117.4C43.8998 120.6 46.6998 123.1 49.9998 122.6C51.8998 122.3 53.6998 120.6 54.1998 118.7ZM64.1998 108.2V109.1H69.4998V112H64.1998V125.7H60.9998V108.2C60.9998 104.5 63.5998 102.4 66.9998 102.4H70.9998L69.5998 105.6H66.9998C65.3998 105.6 64.1998 106.8 64.1998 108.2ZM87.1998 125.7H84.3998V123.6C82.1998 125.7 78.7998 126.8 75.2998 125.2C72.6998 124.1 70.7998 121.7 70.2998 118.9C69.2998 113.5 73.4998 108.8 78.6998 108.8C80.8998 108.8 82.9998 109.7 84.3998 111.2V109.1H87.2998L87.1998 125.7ZM83.7998 118.7C84.5998 115.3 81.9998 112.2 78.6998 112.2C75.7998 112.2 73.4998 114.6 73.4998 117.4C73.4998 120.6 76.2998 123.1 79.5998 122.6C81.6998 122.3 83.2998 120.6 83.7998 118.7ZM105 116V125.8H101.7V115.9C101.7 113.9 99.9998 112.2 97.9998 112.2C95.8998 112.2 94.2998 113.9 94.2998 115.9V125.8H90.9998V109.1H93.6998V110.5C94.8998 109.4 96.4998 108.8 98.0998 108.8C101.9 108.9 105 112 105 116ZM124.6 125.7H121.8V123.6C119.6 125.7 116.2 126.8 112.7 125.2C110.1 124.1 108.2 121.7 107.7 118.9C106.7 113.5 110.9 108.8 116.1 108.8C118.3 108.8 120.4 109.7 121.8 111.2V109.1H124.7L124.6 125.7ZM121.2 118.7C122 115.3 119.4 112.2 116.1 112.2C113.2 112.2 110.9 114.6 110.9 117.4C110.9 120.6 113.7 123.1 117 122.6C119.1 122.3 120.7 120.6 121.2 118.7Z" fill="#565656"/>
<path d="M108 44.5C107.8 42.9 107.6 41 107.1 39C106.6 37 105.7 34.7 104.6 32.4C103.4 30.1 102 27.6 99.9998 25.3C99.1998 24.4 98.3998 23.5 97.4998 22.6C98.8998 17.2 95.8998 12.6 95.8998 12.6C90.6998 12.3 87.4998 14.2 86.2998 15.1L85.6998 14.8C84.7998 14.5 83.8998 14.1 82.9998 13.8C82.0998 13.5 81.0998 13.2 80.1998 13C79.2998 12.7 78.1998 12.6 77.1998 12.4C76.9998 12.4 76.8998 12.3 76.6998 12.3C74.3998 5.1 67.9998 2 67.9998 2C60.5998 6.8 59.0998 13.2 59.0998 13.2C59.0998 13.2 59.0998 13.4 58.9998 13.5C58.5998 13.6 58.1998 13.8 57.7998 13.8C57.2998 14 56.6998 14.1 56.1998 14.4C55.6998 14.7 55.0998 14.8 54.5998 15.1C53.4998 15.6 52.4998 16.1 51.3998 16.7C50.3998 17.3 49.3998 17.9 48.3998 18.6C48.1998 18.5 48.0998 18.4 48.0998 18.4C38.0998 14.6 29.2998 19.2 29.2998 19.2C28.4998 29.8 33.2998 36.5 34.1998 37.7C33.8998 38.4 33.7998 39 33.4998 39.7C32.6998 42.1 32.1998 44.6 31.8998 47.1C31.7998 47.4 31.7998 47.9 31.6998 48.2C22.5998 52.7 19.7998 62 19.7998 62C27.4998 70.9 36.4998 71.4 36.4998 71.4C37.5998 73.4 38.9998 75.4 40.3998 77.2C40.9998 78 41.6998 78.6 42.3998 79.4C39.5998 87.4 42.7998 94.1 42.7998 94.1C51.3998 94.4 56.9998 90.4 58.1998 89.4C59.0998 89.7 59.8998 89.9 60.7998 90.2C63.3998 90.9 66.1998 91.3 68.7998 91.4H72.1998C76.1998 97.2 83.3998 98 83.3998 98C88.3998 92.6 88.7998 87.4 88.7998 86.2V85.6C89.7998 84.8 90.7998 84.1 91.8998 83.2C93.8998 81.4 95.5998 79.3 97.1998 77.1C97.3998 76.9 97.4998 76.7 97.5998 76.5C103.3 76.8 107.3 72.9 107.3 72.9C106.4 66.9 103 64 102.3 63.5L102.2 63.4L102.1 63.3L102 63.2C102 62.9 102.1 62.5 102.1 62.1C102.2 61.4 102.2 60.8 102.2 60.1V57.6C102.2 57.4 102.2 57.3 102.1 57.1L102 56.6L101.9 56.1C101.8 55.4 101.6 54.8 101.6 54.1C101 51.5 99.9998 49.1 98.6998 46.9C97.2998 44.7 95.6998 42.8 93.7998 41.1C91.8998 39.5 89.8998 38.1 87.6998 37.2C85.4998 36.2 83.2998 35.6 80.9998 35.3C79.8998 35.1 78.6998 35.1 77.5998 35.1H75.8998C75.2998 35.2 74.6998 35.3 74.1998 35.4C71.8998 35.8 69.7998 36.7 67.8998 37.8C65.9998 38.9 64.3998 40.4 62.9998 42C61.5998 43.6 60.5998 45.3 59.8998 47.2C59.1998 49 58.7998 50.9 58.6998 52.7V54.7C58.6998 55 58.6998 55.1 58.7998 55.4C58.8998 56.3 59.0998 57.2 59.2998 58C59.7998 59.7 60.5998 61.2 61.5998 62.6C62.5998 64 63.6998 65 64.9998 65.8C66.2998 66.7 67.5998 67.2 68.8998 67.7C70.1998 68.2 71.4998 68.3 72.6998 68.2H74.5998C74.7998 68.2 74.8998 68.1 74.9998 68.1C75.1998 68.1 75.2998 68 75.3998 68L76.2998 67.7L77.7998 67.1C78.2998 66.8 78.6998 66.6 79.0998 66.3C79.1998 66.2 79.3998 66.1 79.3998 66C79.7998 65.7 79.8998 65.1 79.5998 64.6C79.2998 64.3 78.6998 64.2 78.2998 64.3C78.2998 65 78.1998 65 77.9998 65.1C77.6998 65.3 77.1998 65.4 76.8998 65.5C76.4998 65.6 75.9998 65.8 75.5998 65.8C75.2998 65.8 75.1998 65.9 74.8998 65.9H73.5998C73.4998 65.9 73.5998 65.9 73.5998 65.9H73.1998C73.0998 65.9 72.8998 65.9 72.8998 65.8C71.9998 65.6 70.8998 65.4 69.9998 64.9C69.0998 64.5 68.0998 63.9 67.3998 63.1C66.4998 62.3 65.8998 61.5 65.2998 60.5C64.6998 59.5 64.3998 58.4 64.1998 57.3C64.0998 56.7 63.9998 56.1 64.0998 55.5V55C64.0998 55 64.0998 55.1 64.0998 55V54.6C64.0998 54.3 64.1998 54 64.2998 53.7C64.6998 51.1 65.9998 48.7 67.9998 46.8C68.4998 46.3 68.9998 45.9 69.5998 45.5C70.1998 45.1 70.7998 44.7 71.3998 44.5C71.9998 44.2 72.6998 44 73.3998 43.8C74.0998 43.6 74.7998 43.5 75.3998 43.5C75.6998 43.5 76.0998 43.4 76.3998 43.4H77.1998C77.1998 43.4 77.2998 43.4 77.1998 43.4H76.9998H77.2998C78.0998 43.5 78.7998 43.6 79.4998 43.7C80.8998 44 82.3998 44.6 83.7998 45.3C86.4998 46.8 88.7998 49.1 90.1998 51.9C90.8998 53.3 91.3998 54.8 91.5998 56.4C91.6998 56.8 91.6998 57.2 91.7998 57.6V60C91.7998 60.4 91.6998 60.9 91.6998 61.3C91.5998 61.7 91.5998 62.2 91.4998 62.6C91.3998 63 91.2998 63.5 91.1998 63.9C90.9998 64.8 90.6998 65.5 90.3998 66.4C89.7998 68 88.9998 69.6 87.8998 70.9C85.8998 73.7 82.9998 76 79.8998 77.5C78.2998 78.2 76.6998 78.8 74.9998 79C74.0998 79.2 73.2998 79.3 72.3998 79.3H70.9998C70.9998 79.3 71.0998 79.3 70.9998 79.3H70.8998C70.4998 79.3 69.9998 79.3 69.4998 79.2C67.5998 79 65.7998 78.7 63.9998 78.2C62.1998 77.7 60.4998 77 58.8998 76.2C55.6998 74.5 52.7998 72 50.4998 69.2C49.3998 67.8 48.3998 66.2 47.4998 64.6C46.5998 63 46.0998 61.3 45.4998 59.6C44.9998 57.9 44.6998 56.1 44.5998 54.3V51.3C44.5998 50.4 44.6998 49.5 44.8998 48.6C44.9998 47.7 45.1998 46.8 45.2998 45.9C45.3998 45 45.6998 44.1 45.9998 43.2C46.4998 41.4 47.0998 39.7 47.8998 38.1C49.3998 34.9 51.3998 32 53.6998 29.7C54.2998 29.1 54.8998 28.6 55.5998 28.1C55.8998 27.8 56.4998 27.3 57.0998 26.9C57.7998 26.5 58.4998 26 59.1998 25.7C59.4998 25.5 59.8998 25.4 60.2998 25.2C60.4998 25.1 60.5998 25 60.8998 24.9C61.0998 24.8 61.1998 24.7 61.4998 24.6C62.2998 24.3 62.9998 24 63.7998 23.7C63.9998 23.6 64.1998 23.6 64.3998 23.5C64.5998 23.4 64.7998 23.4 64.9998 23.3L66.1998 23C66.3998 22.9 66.5998 22.9 66.7998 22.8C66.9998 22.8 67.1998 22.7 67.3998 22.7C67.5998 22.7 67.7998 22.6 67.9998 22.6L68.2998 22.5L68.5998 22.4C68.7998 22.4 68.9998 22.3 69.1998 22.3C69.4998 22.3 69.5998 22.2 69.8998 22.2C70.0998 22.2 70.3998 22.1 70.5998 22.1C70.7998 22.1 70.8998 22.1 70.9998 22H71.9998C72.2998 22 72.3998 22 72.6998 21.9H72.9998C72.9998 21.9 73.0998 21.9 72.9998 21.9H76.1998C77.6998 22 79.2998 22.2 80.6998 22.4C83.5998 22.9 86.3998 23.8 88.8998 25.1C91.3998 26.3 93.6998 27.8 95.4998 29.4C95.5998 29.5 95.7998 29.6 95.7998 29.7C95.8998 29.8 96.0998 29.9 96.0998 30C96.3998 30.2 96.4998 30.4 96.7998 30.6C97.0998 30.8 97.1998 31 97.4998 31.2C97.6998 31.5 97.8998 31.6 98.0998 31.9C98.9998 32.8 99.6998 33.7 100.4 34.5C101.8 36.3 102.9 38.1 103.7 39.8C103.8 39.9 103.8 40 103.9 40.1C104 40.2 104 40.3 104.1 40.4L104.4 41L104.7 41.6L105 42.2C105.3 43 105.6 43.7 105.9 44.5C106.3 45.7 106.6 46.7 106.8 47.6C106.9 47.9 107.2 48.2 107.6 48.2C108 48.2 108.3 47.9 108.3 47.4C108.1 46.9 108.1 45.8 108 44.5Z" fill="url(#paint0_linear_3_6871)"/>
<defs>
<linearGradient id="paint0_linear_3_6871" x1="63.999" y1="119.622" x2="63.999" y2="32.0278" gradientUnits="userSpaceOnUse">
<stop stop-color="#FCEE1F"/>
<stop offset="1" stop-color="#F15B2A"/>
</linearGradient>
</defs>
</svg>
