<svg width="128" height="128" viewBox="0 0 128 128" fill="none" xmlns="http://www.w3.org/2000/svg">
<path d="M120.8 56.9C120.6 54.8 120.2 52.4 119.6 49.7C119 47 117.8 44.2 116.4 41.1C114.9 38.1 113 34.9 110.5 32C109.5 30.8 108.4 29.7 107.3 28.5C109.1 21.6 105.2 15.5 105.2 15.5C98.5 15.1 94.3 17.6 92.8 18.7C92.6 18.6 92.2 18.5 92 18.4C90.9 18 89.7 17.5 88.5 17.1C87.3 16.8 86.1 16.3 84.9 16.1C83.7 15.8 82.4 15.5 81 15.3C80.8 15.3 80.6 15.2 80.3 15.2C77.5 6 69.1 2 69.1 2C59.5 8.2 57.7 16.4 57.7 16.4C57.7 16.4 57.7 16.6 57.6 16.8C57 16.9 56.6 17.1 56.1 17.2C55.4 17.4 54.7 17.6 54 18L51.9 18.9C50.5 19.6 49.1 20.2 47.7 21C46.4 21.8 45.1 22.5 43.8 23.4C43.6 23.3 43.5 23.2 43.5 23.2C30.6 18.2 19.2 24.2 19.2 24.2C18.2 38 24.4 46.5 25.6 48.1C25.3 49 25 49.8 24.7 50.6C23.7 53.7 23 56.9 22.6 60.2C22.5 60.6 22.5 61.2 22.4 61.6C10.5 67.5 7 79.6 7 79.6C16.9 91 28.5 91.7 28.5 91.7C29.9 94.3 31.7 96.9 33.6 99.2C34.4 100.2 35.3 101.1 36.1 102.1C32.5 112.4 36.7 121.1 36.7 121.1C47.8 121.5 55.1 116.3 56.6 115C57.7 115.3 58.8 115.7 59.9 116C63.3 116.9 66.8 117.4 70.2 117.5H74.7C79.9 125 89.1 126 89.1 126C95.6 119.1 96 112.4 96 110.8V110.2C97.3 109.2 98.6 108.2 100 107.1C102.6 104.8 104.8 102 106.8 99.2C107 99 107.1 98.6 107.4 98.4C114.8 98.8 119.9 93.8 119.9 93.8C118.7 86.1 114.3 82.4 113.4 81.7L113.3 81.6L113.2 81.5L113.1 81.4C113.1 81 113.2 80.5 113.2 80C113.3 79.1 113.3 78.3 113.3 77.5V74.2C113.3 74 113.3 73.8 113.2 73.5L113.1 72.8L113 72.1C112.9 71.2 112.7 70.4 112.6 69.6C111.8 66.3 110.5 63.1 108.9 60.4C107.1 57.5 105 55.1 102.6 52.9C100.2 50.8 97.5 49 94.7 47.8C91.8 46.5 89 45.7 86 45.4C84.6 45.2 83 45.2 81.6 45.2H79.3C78.5 45.3 77.8 45.4 77.1 45.5C74.1 46.1 71.4 47.2 69 48.6C66.6 50 64.5 51.9 62.7 54C60.9 56.1 59.6 58.3 58.7 60.7C57.8 63 57.3 65.5 57.2 67.9V70.5C57.2 70.8 57.2 71.1 57.3 71.4C57.4 72.6 57.6 73.7 58 74.8C58.7 77 59.7 79 61 80.7C62.3 82.4 63.8 83.8 65.4 84.9C67.1 86 68.7 86.8 70.5 87.3C72.3 87.8 73.9 88.1 75.5 88H77.8C78 88 78.2 87.9 78.4 87.9C78.6 87.9 78.7 87.8 79 87.8C79.3 87.7 79.8 87.6 80.1 87.5C80.8 87.3 81.4 86.9 82.1 86.7C82.8 86.4 83.3 86 83.8 85.7C83.9 85.6 84.1 85.5 84.2 85.4C84.8 85 84.9 84.2 84.4 83.6C84 83.2 83.3 83 82.7 83.3C82.6 83.4 82.5 83.4 82.3 83.5C81.9 83.7 81.3 83.9 80.9 84.1C80.3 84.2 79.8 84.4 79.2 84.5C78.9 84.5 78.6 84.6 78.3 84.6H76.5C76.4 84.6 76.5 84.6 76.5 84.6H75.8C75.7 84.6 75.5 84.6 75.4 84.5C74.2 84.3 72.9 83.9 71.7 83.4C70.5 82.8 69.3 82.1 68.3 81.1C67.2 80.1 66.3 79 65.5 77.7C64.7 76.4 64.3 74.9 64.1 73.5C64 72.7 63.9 72 64 71.2V70.5C64 70.5 64 70.6 64 70.5V70C64 69.6 64.1 69.2 64.2 68.8C64.8 65.5 66.4 62.3 68.9 59.9C69.6 59.2 70.2 58.7 71 58.2C71.8 57.6 72.5 57.2 73.3 56.9C74.1 56.6 75 56.2 75.8 56C76.7 55.8 77.6 55.6 78.4 55.6C78.8 55.6 79.3 55.5 79.7 55.5H80.5C80.5 55.5 80.6 55.5 80.5 55.5H80.9C81.9 55.6 82.9 55.7 83.8 55.9C85.7 56.3 87.5 57 89.3 58C92.8 60 95.8 63 97.6 66.6C98.5 68.4 99.1 70.3 99.5 72.4C99.6 73 99.6 73.4 99.7 73.9V76.6C99.7 77.2 99.6 77.7 99.6 78.3C99.5 78.9 99.5 79.4 99.4 80C99.3 80.6 99.2 81.1 99.1 81.7C98.9 82.8 98.4 83.8 98.1 84.9C97.3 87 96.2 89 94.9 90.7C92.3 94.3 88.6 97.3 84.6 99.2C82.5 100.1 80.4 100.9 78.2 101.2C77.1 101.4 76 101.5 74.9 101.5H73.3C73.3 101.5 73.4 101.5 73.3 101.5H73.2C72.6 101.5 72 101.5 71.4 101.4C69 101.2 66.7 100.7 64.4 100.1C62.1 99.4 59.9 98.6 57.8 97.5C53.6 95.3 49.9 92.1 46.9 88.5C45.5 86.6 44.1 84.6 43 82.6C41.9 80.6 41.1 78.3 40.5 76.1C39.8 73.9 39.5 71.6 39.4 69.3V65.8C39.4 64.7 39.5 63.5 39.7 62.3C39.8 61.1 40 60 40.3 58.8C40.5 57.6 40.9 56.5 41.2 55.3C41.9 53 42.6 50.8 43.6 48.7C45.6 44.5 48.1 40.8 51.1 37.8C51.9 37 52.6 36.4 53.5 35.7C53.8 35.4 54.6 34.7 55.5 34.2C56.4 33.7 57.3 33.1 58.3 32.7C58.7 32.5 59.2 32.3 59.7 32C59.9 31.9 60.1 31.8 60.5 31.7C60.7 31.6 60.9 31.5 61.3 31.4C62.3 31 63.3 30.6 64.3 30.3C64.5 30.2 64.9 30.2 65.1 30.1C65.3 30 65.7 30 65.9 29.9C66.5 29.8 66.9 29.7 67.4 29.5C67.6 29.4 68 29.4 68.2 29.3C68.4 29.3 68.8 29.2 69 29.2C69.2 29.2 69.6 29.1 69.8 29.1L70.2 29L70.6 28.9C70.8 28.9 71.2 28.8 71.4 28.8C71.7 28.8 72 28.7 72.3 28.7C72.5 28.7 73 28.6 73.2 28.6C73.4 28.6 73.5 28.6 73.8 28.5H74.5C74.8 28.5 75.1 28.5 75.4 28.4H75.8C75.8 28.4 75.9 28.4 75.8 28.4H79.9C81.9 28.5 83.9 28.7 85.7 29.1C89.4 29.8 93.1 31 96.3 32.6C99.5 34.1 102.5 36.1 104.9 38.2C105 38.3 105.2 38.4 105.3 38.6C105.4 38.7 105.6 38.8 105.7 39C106 39.2 106.3 39.6 106.6 39.8C106.9 40 107.2 40.4 107.5 40.6C107.7 40.9 108.1 41.2 108.3 41.5C109.4 42.6 110.4 43.8 111.3 44.9C113.1 47.2 114.5 49.5 115.6 51.7C115.7 51.8 115.7 51.9 115.8 52.1C115.9 52.2 115.9 52.3 116 52.5C116.1 52.7 116.2 53.1 116.4 53.3C116.5 53.5 116.6 53.9 116.7 54.1C116.8 54.3 116.9 54.7 117 54.9C117.4 55.9 117.8 56.9 118.1 57.9C118.7 59.4 119 60.8 119.3 61.9C119.4 62.3 119.9 62.7 120.3 62.7C120.9 62.7 121.2 62.3 121.2 61.7C120.9 60 120.9 58.6 120.8 56.9Z" fill="url(#paint0_linear_3_6873)"/>
<defs>
<linearGradient id="paint0_linear_3_6873" x1="63.9992" y1="153.959" x2="63.9992" y2="40.7945" gradientUnits="userSpaceOnUse">
<stop stop-color="#FCEE1F"/>
<stop offset="1" stop-color="#F15B2A"/>
</linearGradient>
</defs>
</svg>
