<svg width="128" height="128" viewBox="0 0 128 128" fill="none" xmlns="http://www.w3.org/2000/svg">
<path d="M63.9999 12.0669C35.3179 12.0669 12.0659 35.3159 12.0659 63.9989C12.0659 92.6809 35.3189 115.933 63.9999 115.933C92.6829 115.933 115.934 92.6819 115.934 63.9989C115.934 35.3159 92.6829 12.0669 63.9999 12.0669ZM91.5329 37.0989C91.2499 36.8809 90.8869 36.6969 90.4549 36.5469C90.0309 36.3969 89.5689 36.2449 89.0759 36.0969C88.6001 35.9542 88.1434 35.7541 87.7159 35.5009C87.3021 35.2558 86.9476 34.9221 86.6779 34.5239C86.4059 34.1239 86.2679 33.5879 86.2679 32.9279C86.2679 32.2879 86.3949 31.7179 86.6469 31.2409C86.8931 30.7664 87.2398 30.3515 87.6629 30.0249C88.1013 29.6903 88.5976 29.4394 89.1269 29.2849C89.6849 29.121 90.2634 29.0378 90.8449 29.0379C91.5269 29.0379 92.1919 29.1379 92.8229 29.3279C93.4342 29.5157 93.9996 29.8291 94.4829 30.2479L92.7429 32.1519C92.5095 31.8885 92.2103 31.6918 91.8759 31.5819C91.5296 31.454 91.164 31.3861 90.7949 31.3809C90.5959 31.3809 90.3879 31.4009 90.1779 31.4489C89.9669 31.4969 89.7649 31.5699 89.5759 31.6709C89.3839 31.7739 89.2229 31.9109 89.1039 32.0779C88.9777 32.261 88.9129 32.4795 88.9189 32.7019C88.9189 33.0979 89.0629 33.3909 89.3609 33.6029C89.6389 33.8009 89.9949 33.9739 90.4209 34.1099C90.8389 34.2489 91.2939 34.3899 91.7729 34.5239C92.2469 34.6609 92.6949 34.8549 93.1069 35.1019C93.5169 35.3489 93.8599 35.6849 94.1259 36.0969C94.3949 36.5089 94.5289 37.0669 94.5289 37.7649C94.5289 38.4249 94.4039 39.0129 94.1569 39.5079C93.9201 39.9895 93.5764 40.4105 93.1519 40.7389C92.7319 41.0609 92.2339 41.3089 91.6799 41.4649C91.1179 41.6249 90.5199 41.7039 89.8989 41.7039C89.1572 41.7107 88.4199 41.5903 87.7189 41.3479C87.0453 41.1009 86.4272 40.7234 85.8999 40.2369L87.7079 38.2489C87.9799 38.5929 88.3249 38.8659 88.7239 39.0589C89.3476 39.3618 90.0563 39.4419 90.7319 39.2859C90.9599 39.2329 91.1669 39.1489 91.3519 39.0469C91.5389 38.9379 91.6899 38.7969 91.8069 38.6299C91.9229 38.4579 91.9819 38.2509 91.9819 38.0219C91.9829 37.6259 91.8349 37.3249 91.5329 37.0989ZM77.2189 29.3489H79.7659V39.0519H84.7399V41.3949H77.2199V29.3489H77.2189ZM71.6759 29.3489H74.2209V41.3949H71.6759V29.3489ZM62.7359 29.3489H64.8659L70.1069 41.3949H67.2289L66.1789 38.8109H61.3519L60.3369 41.3949H57.5289L62.7359 29.3489ZM46.9459 29.3489H51.5919C52.2039 29.3489 52.7919 29.4079 53.3419 29.5289C53.8545 29.632 54.3426 29.8322 54.7799 30.1189C55.1879 30.3949 55.5159 30.7679 55.7559 31.2309C55.9959 31.6939 56.1189 32.2849 56.1189 32.9809C56.1189 33.8209 55.8979 34.5449 55.4609 35.1339C55.0429 35.6979 54.4279 36.0639 53.6359 36.2309L53.4489 36.2709L56.5299 41.3949H53.4759L50.9299 36.5259H49.4949V41.3949H46.9479V29.3489H46.9459ZM33.5609 32.7449C33.8809 31.9669 34.3359 31.2949 34.9139 30.7489C35.5069 30.1911 36.2066 29.7591 36.9709 29.4789C37.8078 29.1777 38.6916 29.0281 39.5809 29.0369C40.5449 29.0369 41.4439 29.1559 42.2559 29.3869C43.0294 29.6065 43.7418 30.0014 44.3379 30.5409L42.5399 32.4999C42.1913 32.1511 41.7797 31.8715 41.3269 31.6759C40.8609 31.4759 40.2739 31.3799 39.5799 31.3799C38.9999 31.3799 38.4669 31.4759 37.9969 31.6759C37.5239 31.8749 37.1139 32.1539 36.7769 32.5079C36.4379 32.8649 36.1769 33.2919 35.9969 33.7799C35.8143 34.2899 35.7236 34.8282 35.7289 35.3699C35.7289 35.9499 35.8169 36.4869 35.9969 36.9699C36.1769 37.4519 36.4399 37.8759 36.7769 38.2319C37.1149 38.5849 37.5249 38.8659 37.9969 39.0639C38.4995 39.2674 39.0377 39.3683 39.5799 39.3609C40.1699 39.3609 40.6849 39.2949 41.1149 39.1609C41.5199 39.0349 41.8529 38.9049 42.1039 38.7719L42.1209 38.7619L42.1489 38.7359L42.1769 38.6859V36.6409H39.9929V34.3029H44.6209V40.5599C43.8449 40.9599 43.0289 41.2519 42.1969 41.4279C41.3368 41.6117 40.4595 41.7036 39.5799 41.7019C38.6399 41.7019 37.7629 41.5539 36.9699 41.2599C36.2047 40.9824 35.5046 40.5508 34.9129 39.9919C34.3248 39.429 33.8635 38.7472 33.5599 37.9919C33.2379 37.2149 33.0739 36.3329 33.0739 35.3709C33.0739 34.4099 33.2379 33.5269 33.5599 32.7439L33.5609 32.7449ZM50.1869 74.0809C49.4079 74.4239 48.4149 74.8129 48.0269 75.0189C47.3109 75.4009 46.2029 76.2359 45.5799 77.1939C45.1199 77.9069 44.6899 78.8759 44.5519 79.5109C44.4669 79.9109 44.4239 80.4969 44.4329 81.1849C44.4499 82.7889 44.7269 84.9239 45.2779 86.3879C45.9049 88.0499 46.2469 88.6039 46.9699 90.2879C47.2769 91.0009 47.5649 91.6799 47.7039 92.0109C47.7319 92.0753 47.7432 92.1457 47.7368 92.2156C47.7303 92.2856 47.7063 92.3527 47.6669 92.4109C47.3282 92.9244 46.8688 93.3471 46.3289 93.6419C45.0849 94.3139 42.4649 94.5569 41.1649 94.5649H41.1599C39.8619 94.5549 37.2419 94.3149 35.9959 93.6419C35.4565 93.3471 34.9978 92.9244 34.6599 92.4109C34.6205 92.3528 34.5963 92.2857 34.5895 92.2159C34.5827 92.146 34.5935 92.0755 34.6209 92.0109C34.7619 91.6799 35.0509 90.9999 35.3569 90.2879C36.0799 88.6039 36.4219 88.0499 37.0489 86.3879C37.5999 84.9239 37.8769 82.7889 37.8929 81.1849C37.9009 80.4969 37.8599 79.9109 37.7729 79.5109C37.6339 78.8749 37.2059 77.9059 36.7449 77.1939C36.1249 76.2369 35.0139 75.4009 34.2999 75.0189C33.7619 74.7329 32.0529 74.0929 31.3809 73.7219C30.433 73.1878 29.5241 72.5873 28.6609 71.9249C27.8259 71.2749 26.1879 69.6649 25.5469 68.8689C24.3189 67.3459 23.1869 65.5589 22.6399 63.6329C21.9599 61.2449 21.9849 60.2229 21.8959 59.4509C21.8925 59.4198 21.8954 59.3883 21.9045 59.3584C21.9137 59.3285 21.9288 59.3008 21.949 59.2769C21.9692 59.253 21.9941 59.2335 22.0221 59.2196C22.0501 59.2057 22.0807 59.1976 22.1119 59.1959C22.7679 59.1739 25.1339 59.1199 33.3979 59.1069C33.5609 59.1049 33.7059 59.2069 33.7649 59.3579C36.0889 65.5149 42.1509 70.6079 50.1509 73.3779C50.4779 73.4879 50.5059 73.9419 50.1869 74.0809ZM70.5319 91.6029C71.5489 94.3029 72.1039 95.1989 73.2789 97.9359C73.7759 99.0919 74.2449 100.197 74.4729 100.73C74.5175 100.835 74.5353 100.95 74.5247 101.065C74.514 101.179 74.4753 101.288 74.4119 101.384C73.8609 102.217 73.1154 102.903 72.2399 103.383C70.2199 104.475 65.9649 104.87 63.8529 104.878H63.8449C61.7349 104.87 57.4809 104.475 55.4599 103.383C54.5851 102.903 53.8406 102.217 53.2909 101.384C53.2277 101.288 53.1891 101.179 53.1787 101.064C53.1682 100.95 53.1861 100.835 53.2309 100.73C53.4579 100.197 53.9239 99.0919 54.4209 97.9359C55.5969 95.1989 56.1509 94.3029 57.1689 91.6029C58.0649 89.2249 58.5159 85.7609 58.5429 83.1509C58.5539 82.0409 58.4879 81.0849 58.3479 80.4339C58.1229 79.4039 57.4259 77.8349 56.6779 76.6759C55.6689 75.1159 53.8659 73.7649 52.7069 73.1459C51.8299 72.6789 49.0579 71.6399 47.9669 71.0369C46.4271 70.1715 44.9507 69.1977 43.5489 68.1229C42.1939 67.0629 39.5329 64.4529 38.4949 63.1589C36.4999 60.6829 34.6609 57.7829 33.7729 54.6569C32.6699 50.7769 32.7129 49.1189 32.5649 47.8659C32.5585 47.8153 32.5627 47.7639 32.5771 47.715C32.5916 47.666 32.616 47.6206 32.6489 47.5816C32.6818 47.5426 32.7224 47.5109 32.7682 47.4884C32.814 47.4659 32.864 47.4531 32.9149 47.4509C34.2609 47.4029 40.0089 47.2779 63.8529 47.3009C87.6949 47.2779 93.4429 47.4029 94.7869 47.4509C94.8381 47.4525 94.8884 47.4649 94.9345 47.4872C94.9807 47.5095 95.0216 47.5412 95.0547 47.5804C95.0878 47.6195 95.1123 47.6651 95.1266 47.7143C95.141 47.7635 95.1448 47.8151 95.1379 47.8659C94.9909 49.1189 95.0329 50.7779 93.9319 54.6569C93.0419 57.7829 91.2039 60.6829 89.2079 63.1589C88.1689 64.4519 85.5099 67.0629 84.1559 68.1229C82.7532 69.1973 81.2762 70.1711 79.7359 71.0369C78.6459 71.6399 75.8719 72.6789 74.9979 73.1469C73.8379 73.7649 72.0359 75.1149 71.0239 76.6769C70.2769 77.8349 69.5799 79.4039 69.3569 80.4339C69.2149 81.0849 69.1509 82.0419 69.1619 83.1509C69.1849 85.7609 69.6369 89.2249 70.5319 91.6029ZM102.454 68.8689C101.814 69.6649 100.177 71.2739 99.3429 71.9249C98.4784 72.5874 97.5682 73.1879 96.6189 73.7219C95.9469 74.0919 94.2389 74.7329 93.7029 75.0189C92.9869 75.4009 91.8769 76.2359 91.2549 77.1939C90.7949 77.9069 90.3649 78.8759 90.2279 79.5109C90.1389 79.9109 90.1019 80.4969 90.1069 81.1849C90.1229 82.7889 90.4019 84.9239 90.9519 86.3879C91.5799 88.0499 91.9209 88.6039 92.6439 90.2879C92.9509 91.0009 93.2379 91.6799 93.3799 92.0109C93.4074 92.0755 93.4182 92.146 93.4114 92.2159C93.4046 92.2857 93.3803 92.3528 93.3409 92.4109C93.0026 92.924 92.5439 93.3466 92.0049 93.6419C90.7579 94.3139 88.1409 94.5569 86.8409 94.5649H86.8359C85.5359 94.5549 82.9159 94.3149 81.6719 93.6419C81.1324 93.347 80.6733 92.9243 80.3349 92.4109C80.2953 92.3529 80.2709 92.2859 80.264 92.216C80.257 92.1461 80.2676 92.0756 80.2949 92.0109C80.4359 91.6799 80.7229 90.9999 81.0309 90.2879C81.7549 88.6039 82.0949 88.0499 82.7209 86.3879C83.2729 84.9239 83.5509 82.7889 83.5689 81.1849C83.5739 80.4969 83.5349 79.9109 83.4489 79.5109C83.3089 78.8749 82.8799 77.9059 82.4209 77.1939C81.7989 76.2369 80.6899 75.4009 79.9739 75.0189C79.5869 74.8129 78.5899 74.4239 77.8139 74.0809C77.4939 73.9419 77.5229 73.4889 77.8509 73.3769C85.8519 70.6069 91.9129 65.5139 94.2369 59.3569C94.2656 59.283 94.3161 59.2195 94.3816 59.1749C94.4471 59.1303 94.5246 59.1066 94.6039 59.1069C102.868 59.1199 105.234 59.1739 105.89 59.1949C105.921 59.1966 105.952 59.2047 105.98 59.2186C106.008 59.2325 106.033 59.252 106.053 59.2759C106.073 59.2998 106.088 59.3275 106.097 59.3574C106.106 59.3873 106.109 59.4188 106.106 59.4499C106.019 60.2219 106.042 61.2429 105.362 63.6329C104.815 65.5599 103.683 67.3459 102.455 68.8699L102.454 68.8689ZM53.4689 32.9609C53.4689 33.3109 53.3889 33.5849 53.2389 33.7789C53.0901 33.9702 52.892 34.1175 52.6659 34.2049C52.4257 34.2969 52.1727 34.3512 51.9159 34.3659C51.6429 34.3819 51.3849 34.3919 51.1459 34.3919H49.4939V31.4829H51.3179C51.5579 31.4829 51.8099 31.4989 52.0659 31.5369C52.3259 31.5669 52.5579 31.6399 52.7579 31.7369C52.9629 31.8409 53.1369 31.9909 53.2659 32.1839C53.3999 32.3769 53.4689 32.6429 53.4689 32.9609ZM63.7229 32.6369L65.3199 36.6809H62.1409L63.7229 32.6369Z" fill="#FEB672"/>
</svg>
