<svg width="128" height="128" viewBox="0 0 128 128" fill="none" xmlns="http://www.w3.org/2000/svg">
<path d="M35.387 71.7902L32.5 70.1282L64.652 14.6982L67.535 16.3542L35.387 71.7902Z" fill="#E434AA"/>
<path d="M31.8398 65.7002H96.1398V69.0202H31.8398V65.7002Z" fill="#E434AA"/>
<path d="M65.2733 86.0501L33.1133 67.5661L34.7773 64.6911L66.9413 83.1761L65.2733 86.0501ZM93.2153 37.8711L61.0503 19.3871L62.7183 16.5161L94.8793 35.0001L93.2153 37.8711Z" fill="#E434AA"/>
<path d="M34.7851 37.8599L33.1211 34.9879L65.2851 16.5039L66.9491 19.3749L34.7851 37.8599Z" fill="#E434AA"/>
<path d="M92.6211 71.7902L60.4701 16.3542L63.3561 14.6982L95.5091 70.1282L92.6211 71.7902ZM34.3901 32.7902H37.7231V69.7582H34.3901V32.7902Z" fill="#E434AA"/>
<path d="M90.2769 32.79H93.6089V69.758H90.2769V32.79Z" fill="#E434AA"/>
<path d="M64.707 84.6451L63.25 82.1371L91.223 66.0591L92.68 68.5661L64.707 84.6451Z" fill="#E434AA"/>
<path d="M98.0271 70.836C96.1021 74.176 91.8051 75.313 88.4531 73.395C87.6566 72.9397 86.958 72.3314 86.3974 71.6052C85.8368 70.879 85.4252 70.0491 85.1864 69.1633C84.9475 68.2775 84.8861 67.3532 85.0057 66.4436C85.1253 65.534 85.4235 64.657 85.8831 63.863C87.8091 60.523 92.1051 59.387 95.4571 61.305C98.8321 63.242 99.9771 67.5 98.0271 70.835M42.0981 38.684C40.1721 42.02 35.8751 43.16 32.5231 41.242C31.7267 40.7862 31.0282 40.1776 30.4677 39.4511C29.9072 38.7246 29.4957 37.8945 29.2569 37.0085C29.0181 36.1225 28.9567 35.1981 29.0762 34.2883C29.1956 33.3785 29.4936 32.5013 29.9531 31.707C31.8791 28.371 36.1761 27.23 39.5271 29.148C42.8791 31.09 44.0231 35.344 42.0971 38.684M29.9731 70.836C28.0431 67.5 29.1881 63.242 32.5431 61.305C35.8951 59.387 40.1721 60.523 42.1171 63.863C44.0471 67.199 42.9021 71.457 39.5471 73.395C36.1761 75.313 31.8981 74.175 29.9731 70.835M85.9021 38.684C83.9771 35.344 85.1221 31.09 88.4721 29.148C91.8241 27.23 96.1021 28.371 98.0471 31.707C99.9771 35.047 98.8321 39.301 95.4771 41.242C92.1251 43.16 87.8281 42.02 85.9021 38.684ZM64.0001 90.402C60.1251 90.402 56.9921 87.285 56.9921 83.426C56.9921 79.57 60.1251 76.453 64.0001 76.453C67.8751 76.453 71.0081 79.57 71.0081 83.426C71.0081 87.262 67.8751 90.402 64.0001 90.402ZM64.0001 26.094C60.1251 26.094 56.9921 22.977 56.9921 19.117C56.9921 15.262 60.1251 12.145 64.0001 12.145C67.8751 12.145 71.0081 15.262 71.0081 19.117C71.0081 22.977 67.8751 26.094 64.0001 26.094ZM106.625 121.508C106.543 121.512 106.46 121.5 106.383 121.471C106.305 121.442 106.235 121.397 106.175 121.34C106.117 121.281 106.072 121.21 106.043 121.133C106.014 121.055 106 120.973 106.004 120.89V102.426C106.004 102.238 106.062 102.086 106.176 101.973C106.235 101.916 106.306 101.871 106.383 101.843C106.46 101.814 106.543 101.801 106.625 101.805H107.165C107.352 101.805 107.504 101.859 107.617 101.973C107.674 102.033 107.719 102.104 107.748 102.182C107.776 102.26 107.789 102.343 107.785 102.426V119.82H117.543C117.75 119.82 117.91 119.875 118.023 119.988C118.137 120.102 118.191 120.262 118.191 120.465V120.891C118.195 120.973 118.182 121.056 118.154 121.133C118.125 121.21 118.08 121.281 118.023 121.34C117.91 121.453 117.75 121.508 117.543 121.508H106.625ZM100.094 123.336C99.9931 123.337 99.893 123.316 99.8007 123.275C99.7084 123.234 99.626 123.174 99.5591 123.098C99.4319 122.966 99.3092 122.831 99.1911 122.691L97.9451 120.973C96.8161 121.516 95.4961 121.789 93.9881 121.789C92.4221 121.789 91.0941 121.512 90.0001 120.961C88.9061 120.406 88.0661 119.551 87.4841 118.398C86.8981 117.242 86.5781 115.785 86.5241 114.02C86.5041 113.176 86.4921 112.387 86.4921 111.656C86.4921 110.926 86.5041 110.136 86.5231 109.293C86.5781 107.547 86.9181 106.098 87.5391 104.941C88.1601 103.789 89.0231 102.93 90.1291 102.367C91.2301 101.805 92.5161 101.523 93.9891 101.523C95.4571 101.523 96.7421 101.805 97.8481 102.367C98.9491 102.93 99.8161 103.789 100.449 104.941C101.079 106.098 101.414 107.547 101.453 109.293C101.488 110.08 101.506 110.868 101.508 111.656C101.508 112.386 101.488 113.176 101.453 114.02C101.359 116.703 100.668 118.676 99.3871 119.934L101.199 122.464C101.222 122.494 101.24 122.528 101.254 122.563C101.274 122.609 101.281 122.68 101.281 122.773C101.282 122.847 101.267 122.92 101.238 122.988C101.21 123.056 101.167 123.117 101.113 123.168C101.062 123.221 101.001 123.264 100.933 123.293C100.866 123.322 100.793 123.336 100.719 123.336H100.094ZM93.9881 120.102C95.6091 120.102 96.9411 119.613 97.9881 118.637C99.0351 117.66 99.5941 116.074 99.6721 113.879C99.7071 113.035 99.7271 112.293 99.7271 111.656C99.7271 111.02 99.7071 110.277 99.6721 109.434C99.6321 107.969 99.3631 106.777 98.8631 105.859C98.3631 104.938 97.6951 104.269 96.8551 103.844C96.0201 103.422 95.0621 103.211 93.9881 103.211C92.9301 103.211 91.9841 103.421 91.1451 103.844C90.3051 104.27 89.6371 104.938 89.1371 105.859C88.6371 106.777 88.3591 107.969 88.3051 109.434C88.2851 110.277 88.2731 111.02 88.2731 111.656C88.2731 112.293 88.2851 113.036 88.3051 113.879C88.3791 116.074 88.9451 117.66 90.0001 118.637C91.0551 119.613 92.3831 120.102 93.9881 120.102ZM70.8551 121.508C70.7727 121.512 70.6904 121.499 70.6132 121.47C70.536 121.442 70.4655 121.397 70.4061 121.34C70.3482 121.281 70.303 121.21 70.2734 121.133C70.2439 121.055 70.2305 120.973 70.2341 120.89V102.14C70.2341 101.953 70.2931 101.805 70.4061 101.691C70.4656 101.634 70.5363 101.589 70.6137 101.56C70.6911 101.531 70.7736 101.519 70.8561 101.523H71.3361C71.5271 101.523 71.6761 101.578 71.7891 101.691C71.847 101.75 71.8921 101.821 71.9217 101.898C71.9513 101.976 71.9647 102.058 71.9611 102.141V108.812C72.4645 108.159 73.0944 107.615 73.8131 107.211C74.5391 106.797 75.5031 106.59 76.7111 106.59C77.9921 106.59 79.0631 106.867 79.9181 107.422C80.7781 107.972 81.4181 108.722 81.8441 109.672C82.2661 110.622 82.4801 111.695 82.4801 112.895V120.891C82.4837 120.974 82.4704 121.056 82.441 121.133C82.4116 121.21 82.3667 121.281 82.3091 121.34C82.249 121.398 82.1777 121.442 82.0996 121.471C82.0215 121.5 81.9382 121.513 81.8551 121.508H81.3751C81.2921 121.512 81.2092 121.499 81.1313 121.471C81.0535 121.442 80.9823 121.397 80.9221 121.34C80.8648 121.28 80.8203 121.21 80.7914 121.132C80.7625 121.055 80.7498 120.973 80.7541 120.89V113.035C80.7541 111.535 80.3871 110.355 79.6521 109.504C78.9141 108.648 77.8401 108.223 76.4261 108.223C75.0901 108.223 74.0121 108.648 73.1911 109.503C72.3711 110.355 71.9611 111.535 71.9611 113.035V120.891C71.9646 120.974 71.9511 121.056 71.9215 121.133C71.8919 121.211 71.8469 121.281 71.7891 121.34C71.7291 121.398 71.6579 121.442 71.58 121.471C71.5021 121.5 71.4191 121.513 71.3361 121.508H70.8551ZM54.4301 126.855C54.3471 126.86 54.2641 126.847 54.1861 126.818C54.1082 126.789 54.0371 126.745 53.9771 126.687C53.9193 126.628 53.8742 126.558 53.8446 126.48C53.8151 126.403 53.8016 126.321 53.8051 126.238V107.492C53.8051 107.305 53.8631 107.152 53.9771 107.039C54.0371 106.981 54.1082 106.937 54.1861 106.908C54.2641 106.879 54.3471 106.867 54.4301 106.871H54.9101C55.0981 106.871 55.2501 106.926 55.3631 107.039C55.4203 107.099 55.4647 107.17 55.4936 107.248C55.5225 107.326 55.5352 107.409 55.5311 107.492V108.812C56.0041 108.176 56.6211 107.645 57.3831 107.222C58.1481 106.801 59.1131 106.59 60.2811 106.59C61.3951 106.59 62.3281 106.781 63.0821 107.168C63.8064 107.526 64.4356 108.051 64.9181 108.699C65.3911 109.339 65.7381 110.051 65.9651 110.839C66.1911 111.629 66.3121 112.434 66.3321 113.262C66.3521 113.543 66.3591 113.852 66.3591 114.192C66.3591 114.527 66.3521 114.836 66.3321 115.117C66.3144 115.937 66.191 116.751 65.9651 117.539C65.7381 118.329 65.3911 119.039 64.9181 119.679C64.4357 120.328 63.8066 120.853 63.0821 121.211C62.3281 121.598 61.3951 121.789 60.2821 121.789C59.1131 121.789 58.1481 121.574 57.3821 121.141C56.6221 120.711 56.0041 120.184 55.5321 119.566V126.238C55.5362 126.321 55.5233 126.403 55.4943 126.481C55.4652 126.558 55.4206 126.629 55.3631 126.688C55.3028 126.745 55.2316 126.789 55.1537 126.818C55.0758 126.847 54.993 126.859 54.9101 126.855H54.4301ZM60.1131 120.156C61.2231 120.156 62.1021 119.914 62.7431 119.426C63.383 118.938 63.8651 118.272 64.1291 117.512C64.4101 116.722 64.5701 115.879 64.6091 114.977C64.6247 114.452 64.6247 113.927 64.6091 113.402C64.5773 112.538 64.4155 111.683 64.1291 110.867C63.8638 110.107 63.3816 109.442 62.7421 108.953C62.1021 108.465 61.2221 108.223 60.1131 108.223C59.0391 108.223 58.1721 108.477 57.5121 108.98C56.8643 109.472 56.361 110.129 56.0551 110.883C55.7505 111.612 55.5732 112.387 55.5311 113.176C55.5111 113.457 55.5041 113.824 55.5041 114.273C55.5041 114.723 55.5121 115.09 55.5311 115.371C55.5511 116.121 55.7231 116.863 56.0551 117.594C56.3829 118.327 56.9008 118.96 57.5551 119.426C58.2231 119.914 59.0751 120.156 60.1131 120.156ZM42.5821 121.79C41.7151 121.799 40.8578 121.606 40.0781 121.227C39.35 120.879 38.7155 120.362 38.2271 119.719C37.7607 119.11 37.5118 118.361 37.5201 117.594C37.5201 116.32 38.0401 115.297 39.0741 114.527C40.1091 113.757 41.4571 113.262 43.1171 113.035L47.5861 112.418V111.43C47.5861 110.437 47.2771 109.652 46.6681 109.082C46.0551 108.508 45.0781 108.222 43.7381 108.222C42.7581 108.222 41.9681 108.414 41.3631 108.801C40.7621 109.184 40.3481 109.687 40.1211 110.305C40.0271 110.585 39.8481 110.727 39.5821 110.727H39.1321C38.9061 110.727 38.7461 110.668 38.6481 110.543C38.5534 110.419 38.504 110.265 38.5081 110.109C38.5081 109.844 38.6091 109.516 38.8051 109.125C39.0041 108.73 39.3091 108.34 39.7271 107.953C40.1411 107.57 40.6761 107.246 41.3361 106.984C41.9961 106.723 42.7961 106.59 43.7381 106.59C44.8521 106.59 45.7701 106.738 46.4961 107.04C47.2231 107.34 47.7891 107.73 48.1961 108.207C48.5981 108.687 48.8861 109.219 49.0551 109.797C49.2271 110.379 49.3091 110.953 49.3091 111.516V120.891C49.3132 120.973 49.3004 121.056 49.2715 121.133C49.2426 121.21 49.1982 121.281 49.1411 121.34C49.0809 121.397 49.0097 121.442 48.9318 121.471C48.854 121.499 48.771 121.512 48.6881 121.508H48.2071C48.1241 121.512 48.0412 121.499 47.9633 121.471C47.8855 121.442 47.8143 121.397 47.7541 121.34C47.6968 121.28 47.6523 121.21 47.6234 121.132C47.5945 121.055 47.5818 120.973 47.5861 120.89V119.566C47.317 119.949 46.9932 120.29 46.6251 120.578C46.2111 120.918 45.6751 121.203 45.0271 121.438C44.3751 121.672 43.5621 121.789 42.5821 121.789V121.79ZM42.8631 120.156C43.7301 120.156 44.5231 119.969 45.2381 119.594C45.9531 119.219 46.5231 118.641 46.9491 117.864C47.3751 117.086 47.5861 116.105 47.5861 114.922V113.965L43.9381 114.473C42.3911 114.676 41.2231 115.035 40.4301 115.539C39.6401 116.047 39.2421 116.684 39.2421 117.453C39.2421 118.074 39.4221 118.582 39.7821 118.977C40.1411 119.367 40.5981 119.664 41.1521 119.859C41.7071 120.059 42.2771 120.156 42.8631 120.156ZM29.6291 121.508C29.5461 121.512 29.4632 121.499 29.3853 121.471C29.3075 121.442 29.2363 121.397 29.1761 121.34C29.1196 121.28 29.0756 121.209 29.0467 121.132C29.0179 121.055 29.0047 120.972 29.0081 120.89V107.52C29.0081 107.332 29.0661 107.176 29.1761 107.055C29.2342 106.994 29.3047 106.946 29.3828 106.914C29.4609 106.883 29.5448 106.868 29.6291 106.871H30.0821C30.2701 106.871 30.4261 106.934 30.5511 107.055C30.6115 107.116 30.6589 107.189 30.6904 107.269C30.7219 107.349 30.7367 107.434 30.7341 107.52V108.813C31.0499 108.178 31.5666 107.664 32.2041 107.352C32.8441 107.032 33.6371 106.872 34.5781 106.872H35.6251C35.8131 106.872 35.9651 106.926 36.0781 107.039C36.1353 107.099 36.1797 107.17 36.2086 107.248C36.2375 107.326 36.2502 107.409 36.2461 107.492V107.882C36.2461 108.074 36.1911 108.222 36.0781 108.336C36.0179 108.393 35.9467 108.438 35.8688 108.467C35.791 108.495 35.708 108.508 35.6251 108.504H34.4101C33.2771 108.504 32.3831 108.832 31.7231 109.488C31.0631 110.145 30.7341 111.039 30.7341 112.164V120.891C30.7374 120.975 30.7228 121.058 30.6912 121.135C30.6596 121.213 30.6119 121.283 30.5511 121.34C30.4222 121.454 30.2542 121.514 30.0821 121.508H29.6291ZM17.3871 121.79C15.7661 121.79 14.4021 121.477 13.3011 120.848C12.2193 120.24 11.3433 119.323 10.7851 118.215C10.2071 117.09 9.89508 115.793 9.83508 114.332C9.81608 113.484 9.80908 112.594 9.80908 111.656C9.80908 110.719 9.81608 109.828 9.83608 108.98C9.89508 107.5 10.2071 106.2 10.7861 105.082C11.3504 103.978 12.2313 103.066 13.3161 102.465C14.4261 101.835 15.7861 101.523 17.3861 101.523C18.6881 101.523 19.8011 101.715 20.7231 102.102C21.6481 102.484 22.4031 102.965 22.9841 103.535C23.5701 104.109 24.0041 104.684 24.2851 105.265C24.5701 105.848 24.7191 106.335 24.7381 106.73C24.751 106.804 24.7449 106.88 24.7204 106.952C24.6959 107.023 24.6539 107.087 24.5981 107.137C24.473 107.246 24.3106 107.302 24.1451 107.293H23.5231C23.3521 107.293 23.2301 107.25 23.1561 107.168C23.0781 107.082 23.0041 106.938 22.9301 106.73C22.7225 106.117 22.4001 105.548 21.9801 105.055C21.5401 104.52 20.9451 104.078 20.2001 103.735C19.4571 103.387 18.5161 103.211 17.3871 103.211C15.7071 103.211 14.3471 103.668 13.3011 104.578C12.2541 105.488 11.6951 107.004 11.6171 109.125C11.5624 110.813 11.5624 112.503 11.6171 114.191C11.6951 116.293 12.2541 117.801 13.3011 118.723C14.3481 119.641 15.7071 120.102 17.3871 120.102C18.5001 120.102 19.4971 119.891 20.3831 119.469C21.2652 119.052 21.9967 118.372 22.4771 117.523C22.9841 116.653 23.2381 115.539 23.2381 114.191V112.754H18.3201C18.2358 112.757 18.1519 112.743 18.0738 112.711C17.9957 112.679 17.9252 112.631 17.8671 112.57C17.7524 112.443 17.6921 112.276 17.6991 112.105V111.711C17.6991 111.508 17.7541 111.348 17.8671 111.234C17.9273 111.177 17.9985 111.132 18.0763 111.104C18.1542 111.075 18.2371 111.062 18.3201 111.066H24.3711C24.5781 111.066 24.7381 111.121 24.8511 111.234C24.9651 111.348 25.0201 111.508 25.0201 111.711V114.191C25.0201 115.691 24.7231 117.016 24.1291 118.161C23.5484 119.292 22.6421 120.222 21.5271 120.832C20.3871 121.469 19.0071 121.789 17.3871 121.789V121.79Z" fill="#E434AA"/>
</svg>
