<svg width="128" height="128" viewBox="0 0 128 128" fill="none" xmlns="http://www.w3.org/2000/svg">
<path fill-rule="evenodd" clip-rule="evenodd" d="M57.27 43.1469C50.997 53.5549 50.637 54.1019 49.766 54.5289C48.986 54.9119 48.796 54.9359 48.479 54.6929C47.183 53.6969 45.448 53.9879 44.231 55.4049L43.555 56.1919L43.412 55.3489C43.189 54.0309 43.113 53.8439 42.57 53.2569C42.064 52.7119 42.062 52.6929 42.356 51.0469C42.72 49.0069 42.741 47.5169 42.427 46.0369C41.814 43.1429 40.288 41.8129 37.582 41.8129C35.241 41.8129 32.452 43.6769 28.886 47.6229C26.738 50.0009 23.485 54.4699 22.786 56.0049L22.514 56.6019L11.321 56.4609C4.35396 56.3729 0.203958 56.3949 0.330958 56.5199C0.441958 56.6299 5.22296 58.4689 10.955 60.6069L21.378 64.4939L21.767 65.4029C22.23 66.4839 23.432 67.8649 24.463 68.5019L25.205 68.9609L24.339 69.3489C23.695 69.6369 23.355 69.9789 23.014 70.6799C22.341 72.0649 22.563 72.8559 24.116 74.6049C24.814 75.3919 25.778 76.7899 26.257 77.7119C26.837 78.8259 27.356 79.5269 27.805 79.7999C28.529 80.2419 29.864 80.3439 30.496 80.0059C31.209 79.6239 35.401 78.5679 35.258 78.8049C35.181 78.9339 32.736 82.7759 29.825 87.3419C26.914 91.9079 24.578 95.6889 24.633 95.7449C24.689 95.7999 33.566 92.4169 44.36 88.2249L63.986 80.6049L83.553 88.1999C94.315 92.3779 103.201 95.7689 103.3 95.7359C103.398 95.7029 101.999 93.3599 100.191 90.5289L96.903 85.3819L98.038 85.1539C100.59 84.6419 103.469 82.6269 105.018 80.2699C107.278 76.8319 107.605 72.8709 106.102 67.1339C105.8 65.9829 105.603 64.9919 105.664 64.9319C105.724 64.8719 110.654 62.9989 116.62 60.7709C122.586 58.5419 127.551 56.6359 127.654 56.5349C127.758 56.4329 122.517 56.4059 115.766 56.4759C105.497 56.5819 103.678 56.5559 103.597 56.2999C103.515 56.0182 103.444 55.7337 103.382 55.4469C103.241 54.7969 102.297 53.7929 101.566 53.5139C101.284 53.4059 100.356 53.3039 99.504 53.2869C98.127 53.2579 97.873 53.3179 97.206 53.8269C96.793 54.1419 96.395 54.5919 96.32 54.8269C96.139 55.3979 95.918 55.3639 95.569 54.7129C94.757 53.1949 92.31 52.8709 91.065 54.1169L90.436 54.7449L89.191 54.1279C87.655 53.3669 85.771 53.1449 84.687 53.5979C84.157 53.8189 83.781 53.8529 83.408 53.7119C82.52 53.3749 81.101 53.6469 80.439 54.2809L79.844 54.8509L78.868 54.1919C78.331 53.8299 77.622 53.4389 77.292 53.3229C76.796 53.1489 75.616 51.3209 70.411 42.6629C66.956 36.9159 64.069 32.2129 63.995 32.2129C63.921 32.2129 60.895 37.1329 57.27 43.1469ZM38.588 44.9349C39.697 45.7109 39.97 47.9179 39.357 51.1469C38.686 54.6859 37.655 56.9599 35.804 58.9849C34.591 60.3119 33.23 61.0459 31.946 61.0659C29 61.1099 28.252 58.2069 30.191 54.2529C30.897 52.8149 32.69 50.3469 33.03 50.3469C33.197 50.3469 33.707 52.3499 33.707 53.0069C33.707 53.2309 33.304 54.0799 32.812 54.8949C32.095 56.0819 31.918 56.5759 31.918 57.3889C31.918 60.5019 34.82 60.1179 36.391 56.7959C37.977 53.4429 38.865 46.9749 37.887 45.8909C37.365 45.3119 37.055 45.3249 35.634 45.9869C33.388 47.0319 28.711 52.4749 27.1 55.9179C25.517 59.3019 25.855 62.8319 27.944 64.7189C30.017 66.5909 33.31 66.2379 35.732 63.8839C37.582 62.0849 38.981 59.4369 39.559 56.6399C39.907 54.9599 40.419 54.7859 40.596 56.2879C40.665 56.8679 41.201 58.8169 41.788 60.6179C43.239 65.0729 43.52 66.2699 43.518 67.9769C43.515 69.8659 42.899 71.2169 41.407 72.6059C39.98 73.9339 37.978 74.8379 34.24 75.8429C32.597 76.2839 30.881 76.7759 30.427 76.9359C29.321 77.3249 29.249 77.3119 29.011 76.6879C28.659 75.7619 27.301 73.7449 26.403 72.8159L25.543 71.9249L26.41 71.6919C29.27 70.9219 33.494 69.3869 35.53 68.3769C37.976 67.1649 39.541 65.9129 40.248 64.6039C40.809 63.5649 40.774 61.0029 40.181 59.7329L39.734 58.7729L39.485 59.4129C38.1 62.9759 35.482 65.6139 32.342 66.6109C30.448 67.2129 27.973 67.0459 26.444 66.2149C23.768 64.7579 23.277 61.8329 25.074 58.0479C27.159 53.6529 33.096 46.7379 36.053 45.2609C37.594 44.4909 37.899 44.4509 38.588 44.9349ZM76.54 56.2299C78.945 57.4289 80.48 60.0199 80.51 62.9329C80.533 65.1159 80.008 66.5719 78.742 67.8379C77.546 69.0339 76.288 69.4569 74.54 69.2519C71.544 68.8999 69.829 67.1739 69.596 64.2779C69.356 61.2859 70.872 57.1499 72.594 56.0999C73.591 55.4919 75.164 55.5439 76.54 56.2299ZM65.896 56.7289C66.26 56.9879 66.847 57.8109 67.244 58.6159C67.904 59.9569 67.947 60.1799 67.947 62.2919C67.947 64.4019 67.903 64.6289 67.247 65.9629C65.942 68.6149 63.583 70.1329 61.089 69.9259C59.66 69.8079 58.933 69.3099 58.275 67.9969C57.35 66.1539 57.689 62.5839 59.072 59.6129C59.741 58.1749 61.583 56.1769 62.341 56.0679C63.348 55.9219 65.262 56.2779 65.896 56.7289ZM100.391 56.2699C100.518 56.3559 101.032 58.2989 101.533 60.5869C102.034 62.8749 102.788 66.0429 103.21 67.6269C103.873 70.1169 103.978 70.8389 103.986 72.9599C103.998 76.0179 103.623 77.3509 102.236 79.1929C99.829 82.3889 96.276 83.6049 90.499 83.2079C89.175 83.1169 88.025 82.9769 87.945 82.8959C87.865 82.8159 88.109 82.5089 88.487 82.2129C89.58 81.3569 90.274 79.9719 90.401 78.3919C90.462 77.6339 90.553 77.0129 90.604 77.0129C90.655 77.0129 91.673 77.2629 92.868 77.5669C97.621 78.7799 100.719 77.7119 102.212 74.3469C102.817 72.9849 102.945 70.6509 102.541 68.3729L102.239 66.6669L102.209 67.9469C102.193 68.6509 102.044 69.8639 101.879 70.6439C101.313 73.3129 100.267 74.6669 98.77 74.6669C97.064 74.6669 96.106 72.7959 95.467 68.2159C94.442 60.8709 94.101 59.4119 93.102 58.0939C92.504 57.3059 92.485 57.1809 92.882 56.6379C93.157 56.2619 93.212 56.3059 93.707 57.2909C93.999 57.8719 94.645 59.5939 95.142 61.1189C96.486 65.2409 97.071 66.2479 98.418 66.7599C99.154 67.0399 100.272 66.5879 100.785 65.8059C101.93 64.0579 101.718 61.7049 100.126 58.4999C99.755 57.7573 99.3877 57.013 99.024 56.2669C98.93 56.0609 100.087 56.0639 100.391 56.2699ZM72.34 56.9319C71.671 57.8719 71.445 58.6399 71.438 59.9949C71.422 63.3219 74.654 65.3429 77.734 63.9319C80.15 62.8269 80.427 60.9669 78.545 58.4919C77.394 56.9779 75.101 55.9069 74.348 56.5319C73.798 56.9879 73.99 57.5479 74.979 58.3739C76.118 59.3269 76.292 59.6929 75.79 60.0739C74.571 60.9989 72.533 59.7229 72.533 58.0339C72.533 57.5449 72.633 56.9599 72.754 56.7329C73.084 56.1159 72.836 56.2349 72.34 56.9319ZM87.775 56.6209C90.489 57.7549 92.545 62.4609 92.31 67.0019C92.186 69.4089 91.634 70.9219 90.526 71.8949C89.03 73.2079 86.864 72.3389 85.636 69.9329C85.067 68.8169 84.56 67.0509 83.721 63.2549C83.087 60.3869 82.526 58.7379 81.922 57.9699C81.552 57.5009 81.544 57.4089 81.836 56.9929C82.013 56.7399 82.24 56.5329 82.34 56.5329C82.667 56.5329 83.378 58.3039 83.927 60.4899C84.549 62.9669 84.898 63.8739 85.546 64.6979C86.567 65.9949 88.639 66.3579 89.655 65.4159C90.941 64.2239 91.256 62.4689 90.56 60.3739C89.939 58.5039 87.72 56.6219 86.993 57.3489C86.829 57.5119 86.864 57.7319 87.115 58.1149C87.308 58.4099 87.467 58.8429 87.467 59.0759C87.467 59.6729 87.019 60.5869 86.726 60.5869C86.424 60.5869 85.659 59.8889 85.212 59.2079C84.81 58.5939 84.756 57.0779 85.121 56.6389C85.457 56.2339 86.826 56.2249 87.775 56.6209ZM63.147 57.1729C62.531 57.7889 62.604 58.0649 63.706 59.2909C64.681 60.3749 64.688 60.3929 64.293 60.8319C64.073 61.0759 63.681 61.3569 63.421 61.4559C62.824 61.6849 61.715 61.3139 61.435 60.7919C61.128 60.2159 61.182 58.5469 61.536 57.6999C61.983 56.6299 61.538 56.7909 60.79 57.9699C59.608 59.8329 59.421 62.0009 60.296 63.6869C61.641 66.2789 64.902 65.9899 67.001 63.0929C67.984 61.7359 67.783 60.0709 66.422 58.2869C65.326 56.8499 63.941 56.3789 63.147 57.1729ZM47.202 58.7799C47.465 59.5829 47.793 60.2759 47.932 60.3189C48.261 60.4229 49.697 59.1189 50.451 58.0299C50.777 57.5589 51.125 57.1729 51.224 57.1729C51.322 57.1729 51.553 57.4649 51.738 57.8219C51.923 58.1799 52.33 58.5689 52.643 58.6879C53.158 58.8839 53.293 58.8169 54.072 57.9849L54.933 57.0669L54.999 57.7459C55.124 59.0339 53.52 61.2039 52.097 61.6739C51.444 61.8899 51.235 61.8459 50.089 61.2549C49.123 60.7569 48.715 60.6459 48.422 60.8019C47.85 61.1089 47.738 62.0289 48.103 63.4239C48.515 64.9979 48.946 65.8489 49.772 66.7199C50.585 67.5769 51.475 67.6289 53.016 66.9109L54.086 66.4129L54.097 68.8259L54.107 71.2389L53.289 71.5659C52.258 71.9789 50.93 71.9849 50.15 71.5819C49.256 71.1199 48.709 69.7129 48.095 66.2979C47.384 62.3439 46.866 60.7719 45.958 59.8089C45.56 59.3869 45.297 58.9329 45.375 58.8009C45.714 58.2229 46.573 57.1689 46.645 57.2409C46.689 57.2839 46.94 57.9769 47.202 58.7799ZM93.653 73.5999C93.653 73.7169 93.504 73.8129 93.321 73.8129C93.138 73.8129 93.047 73.7169 93.12 73.5999C93.193 73.4829 93.342 73.3869 93.453 73.3869C93.563 73.3869 93.653 73.4829 93.653 73.5999Z" fill="black"/>
</svg>
