<svg width="128" height="128" viewBox="0 0 128 128" fill="none" xmlns="http://www.w3.org/2000/svg">
<path d="M103.555 95.8511L64 80.5201L24.446 95.8471L40.064 71.4111L0 56.4471L49.208 56.6771L63.999 32.1001L78.793 56.6781L128 56.4531L87.935 71.4131L103.555 95.8511Z" fill="black"/>
<path d="M98.2041 91.4802L64.0341 78.2362L29.8661 91.4782L43.3571 70.3682L8.74707 57.4422L51.2531 57.6402L64.0301 36.4102L76.8101 57.6402L119.319 57.4462L84.7101 70.3702L98.2031 91.4802" fill="#619CBC"/>
<path d="M37.8039 44.6602C41.2169 44.6602 39.2279 53.1882 38.0139 55.7602C36.9739 57.9612 34.6339 61.1372 31.8609 61.1372C28.5339 61.1372 28.6329 57.4102 29.9569 54.6052C30.6739 53.0852 31.7769 51.3832 33.2949 50.1312C32.9049 51.4382 34.2199 52.3312 33.6879 53.4562C33.3249 54.2252 32.5739 55.0652 32.1839 55.8922C31.5529 57.2292 31.7939 59.6022 33.3189 59.6022C34.6839 59.6022 35.8969 57.9102 36.3939 56.8572C37.4129 54.6992 39.9599 45.4912 37.1129 45.4912C33.8329 45.4912 28.1829 53.4812 26.9999 55.9882C24.8879 60.4622 26.4199 65.9722 31.2309 65.9722C34.4829 65.9722 37.1569 62.8462 38.4489 60.1102C39.1638 58.6033 39.6211 56.9872 39.8019 55.3292L40.4339 55.2132C40.5729 59.4232 45.0259 66.3932 43.1309 70.4092C40.7039 75.5492 33.4499 75.5032 29.3069 77.3272C28.4369 75.2902 27.2569 73.3972 25.5959 71.9512C29.2909 70.7082 38.3709 68.6212 40.3459 64.4392C41.1759 62.6812 40.6099 59.7682 39.6519 58.7802C39.4809 59.43 39.2503 60.0627 38.9629 60.6702C37.2729 64.2502 33.6529 67.0272 29.9219 67.0272C24.7259 67.0272 22.5239 63.2942 24.9689 58.1142C26.4359 55.0052 33.9289 44.6592 37.8039 44.6592" fill="black"/>
<path d="M37.8039 44.6602C41.2169 44.6602 39.2279 53.1882 38.0139 55.7602C36.9739 57.9612 34.6339 61.1372 31.8609 61.1372C28.5339 61.1372 28.6329 57.4102 29.9569 54.6052C30.6739 53.0852 31.7769 51.3832 33.2949 50.1312C32.9049 51.4382 34.2199 52.3312 33.6879 53.4562C33.3249 54.2252 32.5739 55.0652 32.1839 55.8922C31.5529 57.2292 31.7939 59.6022 33.3189 59.6022C34.6839 59.6022 35.8969 57.9102 36.3939 56.8572C37.4129 54.6992 39.9599 45.4912 37.1129 45.4912C33.8329 45.4912 28.1829 53.4812 26.9999 55.9882C24.8879 60.4622 26.4199 65.9722 31.2309 65.9722C34.4829 65.9722 37.1569 62.8462 38.4489 60.1102C39.1638 58.6033 39.6211 56.9872 39.8019 55.3292L40.4339 55.2132C40.5729 59.4232 45.0259 66.3932 43.1309 70.4092C40.7039 75.5492 33.4499 75.5032 29.3069 77.3272C28.4369 75.2902 27.2569 73.3972 25.5959 71.9512C29.2909 70.7082 38.3709 68.6212 40.3459 64.4392C41.1759 62.6812 40.6099 59.7682 39.6519 58.7802C39.4809 59.43 39.2503 60.0627 38.9629 60.6702C37.2729 64.2502 33.6529 67.0272 29.9219 67.0272C24.7259 67.0272 22.5239 63.2942 24.9689 58.1142C26.4359 55.0052 33.9289 44.6592 37.8039 44.6592V44.6602Z" stroke="black" stroke-width="5.718" stroke-miterlimit="3.864" stroke-linejoin="round"/>
<path d="M46.6811 57.002C46.8871 57.51 47.4841 60.382 47.9371 60.382C48.9161 60.382 50.6851 57.719 51.1591 57.027C52.0291 57.597 51.5471 58.794 53.1591 58.794C53.8891 58.794 54.2571 57.221 55.0171 57.195C55.0431 57.831 55.0841 58.406 54.7371 59.141C54.2031 60.273 52.8511 61.807 51.5221 61.807C50.5691 61.807 49.2431 60.661 48.9821 60.661C48.7001 60.661 48.1801 60.793 48.0151 61.144C47.3221 62.611 49.1731 67.507 51.0291 67.507C52.0211 67.507 53.2041 66.779 54.2421 66.331C53.9721 68.095 53.9341 69.582 54.2921 71.101C53.4079 71.6486 52.3901 71.9426 51.3501 71.951C46.7901 71.951 49.3051 61.346 45.1001 59.086L46.6801 57.002" fill="black"/>
<path d="M46.6811 57.002C46.8871 57.51 47.4841 60.382 47.9371 60.382C48.9161 60.382 50.6851 57.719 51.1591 57.027C52.0291 57.597 51.5471 58.794 53.1591 58.794C53.8891 58.794 54.2571 57.221 55.0171 57.195C55.0431 57.831 55.0841 58.406 54.7371 59.141C54.2031 60.273 52.8511 61.807 51.5221 61.807C50.5691 61.807 49.2431 60.661 48.9821 60.661C48.7001 60.661 48.1801 60.793 48.0151 61.144C47.3221 62.611 49.1731 67.507 51.0291 67.507C52.0211 67.507 53.2041 66.779 54.2421 66.331C53.9721 68.095 53.9341 69.582 54.2921 71.101C53.4079 71.6486 52.3901 71.9426 51.3501 71.951C46.7901 71.951 49.3051 61.346 45.1001 59.086L46.6811 57.002Z" stroke="black" stroke-width="5.718" stroke-miterlimit="3.864" stroke-linejoin="round"/>
<path fill-rule="evenodd" clip-rule="evenodd" d="M64.2091 56.1542C67.6561 56.1542 69.0171 62.3542 67.4701 65.6302C66.2701 68.1722 64.1431 70.0142 61.4181 70.0142C56.6061 70.0142 57.2081 63.4542 59.0861 59.4762C59.6041 58.3802 61.3731 55.9922 62.7561 55.9922C63.2661 55.9922 63.6861 56.1542 64.2091 56.1542ZM64.1021 56.7332C63.5601 56.7332 63.0821 57.0012 62.8321 57.5352C62.3021 58.6532 64.9371 59.7852 64.5591 60.5862C64.3211 61.0902 63.4151 61.5622 62.9581 61.5622C60.6741 61.5622 60.6931 58.5902 62.0551 56.6542C61.2081 57.1932 60.6531 58.0172 60.2931 58.7812C58.9551 61.6162 60.0171 65.5152 63.0711 65.5152C64.7591 65.5152 66.7021 63.9992 67.4581 62.3982C68.3881 60.4302 66.0101 56.7332 64.1021 56.7332Z" fill="black"/>
<path d="M64.2091 56.1542C67.6561 56.1542 69.0171 62.3542 67.4701 65.6302C66.2701 68.1722 64.1431 70.0142 61.4181 70.0142C56.6061 70.0142 57.2081 63.4542 59.0861 59.4762C59.6041 58.3802 61.3731 55.9922 62.7561 55.9922C63.2661 55.9922 63.6861 56.1542 64.2091 56.1542V56.1542Z" stroke="black" stroke-width="5.718" stroke-miterlimit="3.864" stroke-linejoin="round"/>
<path d="M64.1009 56.7328C63.5589 56.7328 63.0809 57.0008 62.8299 57.5348C62.3019 58.6538 64.9359 59.7848 64.5579 60.5858C64.3199 61.0898 63.4139 61.5618 62.9569 61.5618C60.6729 61.5618 60.6919 58.5898 62.0539 56.6538C61.2069 57.1938 60.6519 58.0168 60.2919 58.7808C58.9529 61.6158 60.0149 65.5158 63.0699 65.5158C64.7569 65.5158 66.7009 63.9988 67.4569 62.3988C68.3869 60.4308 66.0089 56.7328 64.1009 56.7328V56.7328Z" stroke="black" stroke-width="5.718" stroke-miterlimit="3.864" stroke-linejoin="round"/>
<path fill-rule="evenodd" clip-rule="evenodd" d="M79.8748 66.36C78.9738 68.268 77.2948 69.315 75.4048 69.315C69.4078 69.315 68.2178 63.846 70.8178 58.34C71.4308 57.04 72.4378 55.603 73.9768 55.603C78.7948 55.603 82.1508 61.536 79.8738 66.36H79.8748ZM75.0898 56.293C74.6468 56.293 74.2598 56.453 74.0468 56.903C73.5808 57.892 76.1188 58.773 76.1218 59.795C75.8568 60.109 75.1148 60.46 74.7918 60.46C72.9638 60.46 71.5838 57.982 73.1448 56.14C72.5108 56.543 72.1348 57.145 71.8678 57.71C70.2858 61.062 72.5408 64.45 75.8278 64.45C77.1958 64.45 78.9578 63.69 79.6688 62.184C80.6748 60.054 77.0928 56.294 75.0888 56.294" fill="black"/>
<path d="M79.8748 66.36C78.9738 68.268 77.2948 69.315 75.4048 69.315C69.4078 69.315 68.2178 63.846 70.8178 58.34C71.4308 57.04 72.4378 55.603 73.9768 55.603C78.7948 55.603 82.1508 61.536 79.8738 66.36H79.8748Z" stroke="black" stroke-width="5.718" stroke-miterlimit="3.864" stroke-linejoin="round"/>
<path d="M75.089 56.2941C74.647 56.2941 74.259 56.4541 74.046 56.9041C73.58 57.8921 76.118 58.7741 76.122 59.7961C75.857 60.1091 75.114 60.4611 74.791 60.4611C72.963 60.4611 71.583 57.9831 73.144 56.1411C72.511 56.5431 72.134 57.1451 71.867 57.7111C70.285 61.0631 72.541 64.4511 75.827 64.4511C77.195 64.4511 78.958 63.6911 79.669 62.1851C80.674 60.0551 77.093 56.2951 75.089 56.2951V56.2941Z" stroke="black" stroke-width="5.718" stroke-miterlimit="3.864" stroke-linejoin="round"/>
<path d="M86.0772 56.2622C91.2452 56.2622 93.8722 65.7462 91.5622 70.6382C91.1212 71.5732 90.2982 72.5082 89.2122 72.5082C83.3082 72.5082 84.8152 60.7712 81.4922 57.4362C81.7952 57.1132 82.0862 56.7762 82.3532 56.4362C84.5992 59.0712 83.4832 66.0082 88.2802 66.0082C89.3852 66.0082 90.2212 65.0412 90.6672 64.0962C91.8582 61.5732 89.6542 57.1902 87.2412 57.1902C87.2172 57.1902 86.8712 57.2042 86.8782 57.3442C86.9682 58.9552 88.2342 57.9512 86.9582 60.6922C85.6552 60.4322 84.2742 58.3392 84.9872 56.8292C85.1972 56.3852 85.7212 56.2622 86.0772 56.2622Z" fill="black"/>
<path d="M86.0772 56.2622C91.2452 56.2622 93.8722 65.7462 91.5622 70.6382C91.1212 71.5732 90.2982 72.5082 89.2122 72.5082C83.3082 72.5082 84.8152 60.7712 81.4922 57.4362C81.7952 57.1132 82.0862 56.7762 82.3532 56.4362C84.5992 59.0712 83.4832 66.0082 88.2802 66.0082C89.3852 66.0082 90.2212 65.0412 90.6672 64.0962C91.8582 61.5732 89.6542 57.1902 87.2412 57.1902C87.2172 57.1902 86.8712 57.2042 86.8782 57.3442C86.9682 58.9552 88.2342 57.9512 86.9582 60.6922C85.6552 60.4322 84.2742 58.3392 84.9872 56.8292C85.1972 56.3852 85.7212 56.2622 86.0772 56.2622V56.2622Z" stroke="black" stroke-width="5.718" stroke-miterlimit="3.864" stroke-linejoin="round"/>
<path fill-rule="evenodd" clip-rule="evenodd" d="M98.927 56.1538C99.414 56.1998 100.145 56.1558 100.563 56.2838C100.641 56.3068 100.582 56.4048 100.595 56.4828C100.722 57.1988 100.922 57.8788 101.095 58.5718C101.768 61.2698 102.173 64.0398 102.945 66.7138C103.786 69.6258 104.663 72.9078 103.645 76.5618C103.545 76.9188 103.412 77.2818 103.24 77.6468C102.086 80.0918 92.149 82.9088 89.554 82.9088C89.239 82.9088 88.899 82.8188 88.749 82.6138C89.843 81.9178 90.529 81.2038 91.019 80.1678C91.604 78.9258 91.596 77.7618 91.519 76.6908C91.726 76.8108 99.361 76.6228 99.637 76.6228C100.76 76.6228 101.723 75.5378 102.173 74.5828C103 72.8318 102.859 71.0438 102.716 69.5518C102.647 68.8139 102.543 68.0797 102.404 67.3518L102.194 66.3158L102.167 66.2028L102.141 66.0888C102.266 66.0888 102.154 66.3088 102.159 66.4198C102.236 68.2258 102.203 70.7478 101.233 72.8038C100.782 73.7588 100.044 74.7438 98.913 74.7438C93.95 74.7438 96.446 60.6698 92.469 57.3238C92.689 56.9608 92.886 56.5858 93.051 56.2188C95.404 59.0608 95.528 66.8958 98.991 66.8958C99.831 66.8958 100.701 66.1078 101.058 65.3508C102.597 62.0908 100.041 58.2938 98.928 56.1538" fill="black"/>
<path d="M98.927 56.1538C99.414 56.1998 100.145 56.1558 100.563 56.2838C100.641 56.3068 100.582 56.4048 100.595 56.4828C100.722 57.1988 100.922 57.8788 101.095 58.5718C101.768 61.2698 102.173 64.0398 102.945 66.7138C103.786 69.6258 104.663 72.9078 103.645 76.5618C103.545 76.9188 103.412 77.2818 103.24 77.6468C102.086 80.0918 92.149 82.9088 89.554 82.9088C89.239 82.9088 88.899 82.8188 88.749 82.6138C89.843 81.9178 90.529 81.2038 91.019 80.1678C91.604 78.9258 91.596 77.7618 91.519 76.6908C91.726 76.8108 99.361 76.6228 99.637 76.6228C100.76 76.6228 101.723 75.5378 102.173 74.5828C103 72.8318 102.859 71.0438 102.716 69.5518C102.647 68.8139 102.543 68.0797 102.404 67.3518L102.194 66.3158L102.167 66.2028L102.141 66.0888C102.266 66.0888 102.154 66.3088 102.159 66.4198C102.236 68.2258 102.203 70.7478 101.233 72.8038C100.782 73.7588 100.044 74.7438 98.913 74.7438C93.95 74.7438 96.446 60.6698 92.469 57.3238C92.689 56.9608 92.886 56.5858 93.051 56.2188C95.404 59.0608 95.528 66.8958 98.991 66.8958C99.831 66.8958 100.701 66.1078 101.058 65.3508C102.597 62.0908 100.041 58.2938 98.928 56.1538H98.927Z" stroke="black" stroke-width="5.718" stroke-miterlimit="3.864" stroke-linejoin="round"/>
<path d="M37.8039 44.6602C41.2169 44.6602 39.2279 53.1882 38.0139 55.7602C36.9739 57.9612 34.6339 61.1372 31.8609 61.1372C28.5339 61.1372 28.6329 57.4102 29.9569 54.6052C30.6739 53.0852 31.7769 51.3832 33.2949 50.1312C32.9049 51.4382 34.2199 52.3312 33.6879 53.4562C33.3249 54.2252 32.5739 55.0652 32.1839 55.8922C31.5529 57.2292 31.7939 59.6022 33.3189 59.6022C34.6839 59.6022 35.8969 57.9102 36.3939 56.8572C37.4129 54.6992 39.9599 45.4912 37.1129 45.4912C33.8329 45.4912 28.1829 53.4812 26.9999 55.9882C24.8879 60.4622 26.4199 65.9722 31.2309 65.9722C34.4829 65.9722 37.1569 62.8462 38.4489 60.1102C39.1638 58.6033 39.6211 56.9872 39.8019 55.3292L40.4339 55.2132C40.5729 59.4232 45.0259 66.3932 43.1309 70.4092C40.7039 75.5492 33.4499 75.5032 29.3069 77.3272C28.4369 75.2902 27.2569 73.3972 25.5959 71.9512C29.2909 70.7082 38.3709 68.6212 40.3459 64.4392C41.1759 62.6812 40.6099 59.7682 39.6519 58.7802C39.4809 59.43 39.2503 60.0627 38.9629 60.6702C37.2729 64.2502 33.6529 67.0272 29.9219 67.0272C24.7259 67.0272 22.5239 63.2942 24.9689 58.1142C26.4359 55.0052 33.9289 44.6592 37.8039 44.6592" fill="black"/>
<path d="M37.8039 44.6602C41.2169 44.6602 39.2279 53.1882 38.0139 55.7602C36.9739 57.9612 34.6339 61.1372 31.8609 61.1372C28.5339 61.1372 28.6329 57.4102 29.9569 54.6052C30.6739 53.0852 31.7769 51.3832 33.2949 50.1312C32.9049 51.4382 34.2199 52.3312 33.6879 53.4562C33.3249 54.2252 32.5739 55.0652 32.1839 55.8922C31.5529 57.2292 31.7939 59.6022 33.3189 59.6022C34.6839 59.6022 35.8969 57.9102 36.3939 56.8572C37.4129 54.6992 39.9599 45.4912 37.1129 45.4912C33.8329 45.4912 28.1829 53.4812 26.9999 55.9882C24.8879 60.4622 26.4199 65.9722 31.2309 65.9722C34.4829 65.9722 37.1569 62.8462 38.4489 60.1102C39.1638 58.6033 39.6211 56.9872 39.8019 55.3292L40.4339 55.2132C40.5729 59.4232 45.0259 66.3932 43.1309 70.4092C40.7039 75.5492 33.4499 75.5032 29.3069 77.3272C28.4369 75.2902 27.2569 73.3972 25.5959 71.9512C29.2909 70.7082 38.3709 68.6212 40.3459 64.4392C41.1759 62.6812 40.6099 59.7682 39.6519 58.7802C39.4809 59.43 39.2503 60.0627 38.9629 60.6702C37.2729 64.2502 33.6529 67.0272 29.9219 67.0272C24.7259 67.0272 22.5239 63.2942 24.9689 58.1142C26.4359 55.0052 33.9289 44.6592 37.8039 44.6592V44.6602Z" stroke="black" stroke-width="0.476506" stroke-miterlimit="3.864"/>
<path d="M46.6811 57.002C46.8871 57.51 47.4841 60.382 47.9371 60.382C48.9161 60.382 50.6851 57.719 51.1591 57.027C52.0291 57.597 51.5471 58.794 53.1591 58.794C53.8891 58.794 54.2571 57.221 55.0171 57.195C55.0431 57.831 55.0841 58.406 54.7371 59.141C54.2031 60.273 52.8511 61.807 51.5221 61.807C50.5691 61.807 49.2431 60.661 48.9821 60.661C48.7001 60.661 48.1801 60.793 48.0151 61.144C47.3221 62.611 49.1731 67.507 51.0291 67.507C52.0211 67.507 53.2041 66.779 54.2421 66.331C53.9721 68.095 53.9341 69.582 54.2921 71.101C53.4079 71.6486 52.3901 71.9426 51.3501 71.951C46.7901 71.951 49.3051 61.346 45.1001 59.086L46.6801 57.002" fill="black"/>
<path d="M46.6811 57.002C46.8871 57.51 47.4841 60.382 47.9371 60.382C48.9161 60.382 50.6851 57.719 51.1591 57.027C52.0291 57.597 51.5471 58.794 53.1591 58.794C53.8891 58.794 54.2571 57.221 55.0171 57.195C55.0431 57.831 55.0841 58.406 54.7371 59.141C54.2031 60.273 52.8511 61.807 51.5221 61.807C50.5691 61.807 49.2431 60.661 48.9821 60.661C48.7001 60.661 48.1801 60.793 48.0151 61.144C47.3221 62.611 49.1731 67.507 51.0291 67.507C52.0211 67.507 53.2041 66.779 54.2421 66.331C53.9721 68.095 53.9341 69.582 54.2921 71.101C53.4079 71.6486 52.3901 71.9426 51.3501 71.951C46.7901 71.951 49.3051 61.346 45.1001 59.086L46.6811 57.002Z" stroke="black" stroke-width="0.476506" stroke-miterlimit="3.864"/>
<path fill-rule="evenodd" clip-rule="evenodd" d="M64.2091 56.1542C67.6561 56.1542 69.0171 62.3542 67.4701 65.6302C66.2701 68.1722 64.1431 70.0142 61.4181 70.0142C56.6061 70.0142 57.2081 63.4542 59.0861 59.4762C59.6041 58.3802 61.3731 55.9922 62.7561 55.9922C63.2661 55.9922 63.6861 56.1542 64.2091 56.1542ZM64.1021 56.7332C63.5601 56.7332 63.0821 57.0012 62.8321 57.5352C62.3021 58.6532 64.9371 59.7852 64.5591 60.5862C64.3211 61.0902 63.4151 61.5622 62.9581 61.5622C60.6741 61.5622 60.6931 58.5902 62.0551 56.6542C61.2081 57.1932 60.6531 58.0172 60.2931 58.7812C58.9551 61.6162 60.0171 65.5152 63.0711 65.5152C64.7591 65.5152 66.7021 63.9992 67.4581 62.3982C68.3881 60.4302 66.0101 56.7332 64.1021 56.7332Z" fill="black"/>
<path d="M64.2091 56.1542C67.6561 56.1542 69.0171 62.3542 67.4701 65.6302C66.2701 68.1722 64.1431 70.0142 61.4181 70.0142C56.6061 70.0142 57.2081 63.4542 59.0861 59.4762C59.6041 58.3802 61.3731 55.9922 62.7561 55.9922C63.2661 55.9922 63.6861 56.1542 64.2091 56.1542V56.1542Z" stroke="black" stroke-width="0.476506" stroke-miterlimit="3.864"/>
<path d="M64.1009 56.7328C63.5589 56.7328 63.0809 57.0008 62.8299 57.5348C62.3019 58.6538 64.9359 59.7848 64.5579 60.5858C64.3199 61.0898 63.4139 61.5618 62.9569 61.5618C60.6729 61.5618 60.6919 58.5898 62.0539 56.6538C61.2069 57.1938 60.6519 58.0168 60.2919 58.7808C58.9529 61.6158 60.0149 65.5158 63.0699 65.5158C64.7569 65.5158 66.7009 63.9988 67.4569 62.3988C68.3869 60.4308 66.0089 56.7328 64.1009 56.7328V56.7328Z" stroke="black" stroke-width="0.476506" stroke-miterlimit="3.864"/>
<path fill-rule="evenodd" clip-rule="evenodd" d="M79.8748 66.36C78.9738 68.268 77.2948 69.315 75.4048 69.315C69.4078 69.315 68.2178 63.846 70.8178 58.34C71.4308 57.04 72.4378 55.603 73.9768 55.603C78.7948 55.603 82.1508 61.536 79.8738 66.36H79.8748ZM75.0898 56.293C74.6468 56.293 74.2598 56.453 74.0468 56.903C73.5808 57.892 76.1188 58.773 76.1218 59.795C75.8568 60.109 75.1148 60.46 74.7918 60.46C72.9638 60.46 71.5838 57.982 73.1448 56.14C72.5108 56.543 72.1348 57.145 71.8678 57.71C70.2858 61.062 72.5408 64.45 75.8278 64.45C77.1958 64.45 78.9578 63.69 79.6688 62.184C80.6748 60.054 77.0928 56.294 75.0888 56.294" fill="black"/>
<path d="M79.8748 66.36C78.9738 68.268 77.2948 69.315 75.4048 69.315C69.4078 69.315 68.2178 63.846 70.8178 58.34C71.4308 57.04 72.4378 55.603 73.9768 55.603C78.7948 55.603 82.1508 61.536 79.8738 66.36H79.8748Z" stroke="black" stroke-width="0.476506" stroke-miterlimit="3.864"/>
<path d="M75.089 56.2941C74.647 56.2941 74.259 56.4541 74.046 56.9041C73.58 57.8921 76.118 58.7741 76.122 59.7961C75.857 60.1091 75.114 60.4611 74.791 60.4611C72.963 60.4611 71.583 57.9831 73.144 56.1411C72.511 56.5431 72.134 57.1451 71.867 57.7111C70.285 61.0631 72.541 64.4511 75.827 64.4511C77.195 64.4511 78.958 63.6911 79.669 62.1851C80.674 60.0551 77.093 56.2951 75.089 56.2951V56.2941Z" stroke="black" stroke-width="0.476506" stroke-miterlimit="3.864"/>
<path d="M86.0772 56.2622C91.2452 56.2622 93.8722 65.7462 91.5622 70.6382C91.1212 71.5732 90.2982 72.5082 89.2122 72.5082C83.3082 72.5082 84.8152 60.7712 81.4922 57.4362C81.7952 57.1132 82.0862 56.7762 82.3532 56.4362C84.5992 59.0712 83.4832 66.0082 88.2802 66.0082C89.3852 66.0082 90.2212 65.0412 90.6672 64.0962C91.8582 61.5732 89.6542 57.1902 87.2412 57.1902C87.2172 57.1902 86.8712 57.2042 86.8782 57.3442C86.9682 58.9552 88.2342 57.9512 86.9582 60.6922C85.6552 60.4322 84.2742 58.3392 84.9872 56.8292C85.1972 56.3852 85.7212 56.2622 86.0772 56.2622Z" fill="black"/>
<path d="M86.0772 56.2622C91.2452 56.2622 93.8722 65.7462 91.5622 70.6382C91.1212 71.5732 90.2982 72.5082 89.2122 72.5082C83.3082 72.5082 84.8152 60.7712 81.4922 57.4362C81.7952 57.1132 82.0862 56.7762 82.3532 56.4362C84.5992 59.0712 83.4832 66.0082 88.2802 66.0082C89.3852 66.0082 90.2212 65.0412 90.6672 64.0962C91.8582 61.5732 89.6542 57.1902 87.2412 57.1902C87.2172 57.1902 86.8712 57.2042 86.8782 57.3442C86.9682 58.9552 88.2342 57.9512 86.9582 60.6922C85.6552 60.4322 84.2742 58.3392 84.9872 56.8292C85.1972 56.3852 85.7212 56.2622 86.0772 56.2622V56.2622Z" stroke="black" stroke-width="0.476506" stroke-miterlimit="3.864"/>
<path fill-rule="evenodd" clip-rule="evenodd" d="M98.9272 56.1538C99.4142 56.1998 100.145 56.1558 100.563 56.2838C100.641 56.3068 100.582 56.4048 100.595 56.4828C100.722 57.1988 100.922 57.8788 101.095 58.5718C101.768 61.2698 102.173 64.0398 102.945 66.7138C103.786 69.6258 104.663 72.9078 103.645 76.5618C103.545 76.9188 103.412 77.2818 103.24 77.6468C102.086 80.0918 99.1202 82.4188 96.5242 82.4188C96.2092 82.4188 95.8692 82.3288 95.7182 82.1248C96.8142 81.4288 97.4982 80.7148 97.9882 79.6788C98.5752 78.4358 98.5662 77.2718 98.4882 76.2008C98.6962 76.3208 99.3612 76.6228 99.6382 76.6228C100.76 76.6228 101.723 75.5378 102.174 74.5828C103.001 72.8318 102.859 71.0438 102.716 69.5518C102.647 68.8139 102.543 68.0797 102.404 67.3518L102.194 66.3158L102.167 66.2028L102.141 66.0888C102.267 66.0888 102.154 66.3088 102.159 66.4198C102.236 68.2258 102.204 70.7478 101.233 72.8038C100.783 73.7588 100.045 74.7438 98.9132 74.7438C93.9502 74.7438 96.4462 60.6698 92.4692 57.3238C92.6892 56.9608 92.8862 56.5858 93.0512 56.2188C95.4052 59.0608 95.5282 66.8958 98.9912 66.8958C99.8322 66.8958 100.701 66.1078 101.058 65.3508C102.598 62.0908 100.041 58.2938 98.9282 56.1538" fill="black"/>
<path d="M98.9272 56.1538C99.4142 56.1998 100.145 56.1558 100.563 56.2838C100.641 56.3068 100.582 56.4048 100.595 56.4828C100.722 57.1988 100.922 57.8788 101.095 58.5718C101.768 61.2698 102.173 64.0398 102.945 66.7138C103.786 69.6258 104.663 72.9078 103.645 76.5618C103.545 76.9188 103.412 77.2818 103.24 77.6468C102.086 80.0918 99.1202 82.4188 96.5242 82.4188C96.2092 82.4188 95.8692 82.3288 95.7182 82.1248C96.8142 81.4288 97.4982 80.7148 97.9882 79.6788C98.5752 78.4358 98.5662 77.2718 98.4882 76.2008C98.6962 76.3208 99.3612 76.6228 99.6382 76.6228C100.76 76.6228 101.723 75.5378 102.174 74.5828C103.001 72.8318 102.859 71.0438 102.716 69.5518C102.647 68.8139 102.543 68.0797 102.404 67.3518L102.194 66.3158L102.167 66.2028L102.141 66.0888C102.267 66.0888 102.154 66.3088 102.159 66.4198C102.236 68.2258 102.204 70.7478 101.233 72.8038C100.783 73.7588 100.045 74.7438 98.9132 74.7438C93.9502 74.7438 96.4462 60.6698 92.4692 57.3238C92.6892 56.9608 92.8862 56.5858 93.0512 56.2188C95.4052 59.0608 95.5282 66.8958 98.9912 66.8958C99.8322 66.8958 100.701 66.1078 101.058 65.3508C102.598 62.0908 100.041 58.2938 98.9282 56.1538H98.9272Z" stroke="black" stroke-width="0.476506" stroke-miterlimit="3.864"/>
<path d="M37.8039 44.6602C41.2169 44.6602 39.2279 53.1882 38.0139 55.7602C36.9739 57.9612 34.6339 61.1372 31.8609 61.1372C28.5339 61.1372 28.6329 57.4102 29.9569 54.6052C30.6739 53.0852 31.7769 51.3832 33.2949 50.1312C32.9049 51.4382 34.2199 52.3312 33.6879 53.4562C33.3249 54.2252 32.5739 55.0652 32.1839 55.8922C31.5529 57.2292 31.7939 59.6022 33.3189 59.6022C34.6839 59.6022 35.8969 57.9102 36.3939 56.8572C37.4129 54.6992 39.9599 45.4912 37.1129 45.4912C33.8329 45.4912 28.1829 53.4812 26.9999 55.9882C24.8879 60.4622 26.4199 65.9722 31.2309 65.9722C34.4829 65.9722 37.1569 62.8462 38.4489 60.1102C39.1638 58.6033 39.6211 56.9872 39.8019 55.3292L40.4339 55.2132C40.5729 59.4232 45.0259 66.3932 43.1309 70.4092C40.7039 75.5492 33.4499 75.5032 29.3069 77.3272C28.4369 75.2902 27.2569 73.3972 25.5959 71.9512C29.2909 70.7082 38.3709 68.6212 40.3459 64.4392C41.1759 62.6812 40.6099 59.7682 39.6519 58.7802C39.4809 59.43 39.2503 60.0627 38.9629 60.6702C37.2729 64.2502 33.6529 67.0272 29.9219 67.0272C24.7259 67.0272 22.5239 63.2942 24.9689 58.1142C26.4359 55.0052 33.9289 44.6592 37.8039 44.6592" fill="black"/>
<path d="M37.8039 44.6602C41.2169 44.6602 39.2279 53.1882 38.0139 55.7602C36.9739 57.9612 34.6339 61.1372 31.8609 61.1372C28.5339 61.1372 28.6329 57.4102 29.9569 54.6052C30.6739 53.0852 31.7769 51.3832 33.2949 50.1312C32.9049 51.4382 34.2199 52.3312 33.6879 53.4562C33.3249 54.2252 32.5739 55.0652 32.1839 55.8922C31.5529 57.2292 31.7939 59.6022 33.3189 59.6022C34.6839 59.6022 35.8969 57.9102 36.3939 56.8572C37.4129 54.6992 39.9599 45.4912 37.1129 45.4912C33.8329 45.4912 28.1829 53.4812 26.9999 55.9882C24.8879 60.4622 26.4199 65.9722 31.2309 65.9722C34.4829 65.9722 37.1569 62.8462 38.4489 60.1102C39.1638 58.6033 39.6211 56.9872 39.8019 55.3292L40.4339 55.2132C40.5729 59.4232 45.0259 66.3932 43.1309 70.4092C40.7039 75.5492 33.4499 75.5032 29.3069 77.3272C28.4369 75.2902 27.2569 73.3972 25.5959 71.9512C29.2909 70.7082 38.3709 68.6212 40.3459 64.4392C41.1759 62.6812 40.6099 59.7682 39.6519 58.7802C39.4809 59.43 39.2503 60.0627 38.9629 60.6702C37.2729 64.2502 33.6529 67.0272 29.9219 67.0272C24.7259 67.0272 22.5239 63.2942 24.9689 58.1142C26.4359 55.0052 33.9289 44.6592 37.8039 44.6592V44.6602Z" stroke="black" stroke-width="5.718" stroke-miterlimit="3.864" stroke-linejoin="round"/>
<path d="M46.6811 57.002C46.8871 57.51 47.4841 60.382 47.9371 60.382C48.9161 60.382 50.6851 57.719 51.1591 57.027C52.0291 57.597 51.5471 58.794 53.1591 58.794C53.8891 58.794 54.2571 57.221 55.0171 57.195C55.0431 57.831 55.0841 58.406 54.7371 59.141C54.2031 60.273 52.8511 61.807 51.5221 61.807C50.5691 61.807 49.2431 60.661 48.9821 60.661C48.7001 60.661 48.1801 60.793 48.0151 61.144C47.3221 62.611 49.1731 67.507 51.0291 67.507C52.0211 67.507 53.2041 66.779 54.2421 66.331C53.9721 68.095 53.9341 69.582 54.2921 71.101C53.4079 71.6486 52.3901 71.9426 51.3501 71.951C46.7901 71.951 49.3051 61.346 45.1001 59.086L46.6801 57.002" fill="black"/>
<path d="M46.6811 57.002C46.8871 57.51 47.4841 60.382 47.9371 60.382C48.9161 60.382 50.6851 57.719 51.1591 57.027C52.0291 57.597 51.5471 58.794 53.1591 58.794C53.8891 58.794 54.2571 57.221 55.0171 57.195C55.0431 57.831 55.0841 58.406 54.7371 59.141C54.2031 60.273 52.8511 61.807 51.5221 61.807C50.5691 61.807 49.2431 60.661 48.9821 60.661C48.7001 60.661 48.1801 60.793 48.0151 61.144C47.3221 62.611 49.1731 67.507 51.0291 67.507C52.0211 67.507 53.2041 66.779 54.2421 66.331C53.9721 68.095 53.9341 69.582 54.2921 71.101C53.4079 71.6486 52.3901 71.9426 51.3501 71.951C46.7901 71.951 49.3051 61.346 45.1001 59.086L46.6811 57.002Z" stroke="black" stroke-width="5.718" stroke-miterlimit="3.864" stroke-linejoin="round"/>
<path fill-rule="evenodd" clip-rule="evenodd" d="M64.2091 56.1542C67.6561 56.1542 69.0171 62.3542 67.4701 65.6302C66.2701 68.1722 64.1431 70.0142 61.4181 70.0142C56.6061 70.0142 57.2081 63.4542 59.0861 59.4762C59.6041 58.3802 61.3731 55.9922 62.7561 55.9922C63.2661 55.9922 63.6861 56.1542 64.2091 56.1542ZM64.1021 56.7332C63.5601 56.7332 63.0821 57.0012 62.8321 57.5352C62.3021 58.6532 64.9371 59.7852 64.5591 60.5862C64.3211 61.0902 63.4151 61.5622 62.9581 61.5622C60.6741 61.5622 60.6931 58.5902 62.0551 56.6542C61.2081 57.1932 60.6531 58.0172 60.2931 58.7812C58.9551 61.6162 60.0171 65.5152 63.0711 65.5152C64.7591 65.5152 66.7021 63.9992 67.4581 62.3982C68.3881 60.4302 66.0101 56.7332 64.1021 56.7332Z" fill="black"/>
<path d="M64.2091 56.1542C67.6561 56.1542 69.0171 62.3542 67.4701 65.6302C66.2701 68.1722 64.1431 70.0142 61.4181 70.0142C56.6061 70.0142 57.2081 63.4542 59.0861 59.4762C59.6041 58.3802 61.3731 55.9922 62.7561 55.9922C63.2661 55.9922 63.6861 56.1542 64.2091 56.1542V56.1542Z" stroke="black" stroke-width="5.718" stroke-miterlimit="3.864" stroke-linejoin="round"/>
<path d="M64.1009 56.7328C63.5589 56.7328 63.0809 57.0008 62.8299 57.5348C62.3019 58.6538 64.9359 59.7848 64.5579 60.5858C64.3199 61.0898 63.4139 61.5618 62.9569 61.5618C60.6729 61.5618 60.6919 58.5898 62.0539 56.6538C61.2069 57.1938 60.6519 58.0168 60.2919 58.7808C58.9529 61.6158 60.0149 65.5158 63.0699 65.5158C64.7569 65.5158 66.7009 63.9988 67.4569 62.3988C68.3869 60.4308 66.0089 56.7328 64.1009 56.7328V56.7328Z" stroke="black" stroke-width="5.718" stroke-miterlimit="3.864" stroke-linejoin="round"/>
<path fill-rule="evenodd" clip-rule="evenodd" d="M79.8748 66.36C78.9738 68.268 77.2948 69.315 75.4048 69.315C69.4078 69.315 68.2178 63.846 70.8178 58.34C71.4308 57.04 72.4378 55.603 73.9768 55.603C78.7948 55.603 82.1508 61.536 79.8738 66.36H79.8748ZM75.0898 56.293C74.6468 56.293 74.2598 56.453 74.0468 56.903C73.5808 57.892 76.1188 58.773 76.1218 59.795C75.8568 60.109 75.1148 60.46 74.7918 60.46C72.9638 60.46 71.5838 57.982 73.1448 56.14C72.5108 56.543 72.1348 57.145 71.8678 57.71C70.2858 61.062 72.5408 64.45 75.8278 64.45C77.1958 64.45 78.9578 63.69 79.6688 62.184C80.6748 60.054 77.0928 56.294 75.0888 56.294" fill="black"/>
<path d="M79.8748 66.36C78.9738 68.268 77.2948 69.315 75.4048 69.315C69.4078 69.315 68.2178 63.846 70.8178 58.34C71.4308 57.04 72.4378 55.603 73.9768 55.603C78.7948 55.603 82.1508 61.536 79.8738 66.36H79.8748Z" stroke="black" stroke-width="5.718" stroke-miterlimit="3.864" stroke-linejoin="round"/>
<path d="M75.089 56.2941C74.647 56.2941 74.259 56.4541 74.046 56.9041C73.58 57.8921 76.118 58.7741 76.122 59.7961C75.857 60.1091 75.114 60.4611 74.791 60.4611C72.963 60.4611 71.583 57.9831 73.144 56.1411C72.511 56.5431 72.134 57.1451 71.867 57.7111C70.285 61.0631 72.541 64.4511 75.827 64.4511C77.195 64.4511 78.958 63.6911 79.669 62.1851C80.674 60.0551 77.093 56.2951 75.089 56.2951V56.2941Z" stroke="black" stroke-width="5.718" stroke-miterlimit="3.864" stroke-linejoin="round"/>
<path d="M86.0772 56.2622C91.2452 56.2622 93.8722 65.7462 91.5622 70.6382C91.1212 71.5732 90.2982 72.5082 89.2122 72.5082C83.3082 72.5082 84.8152 60.7712 81.4922 57.4362C81.7952 57.1132 82.0862 56.7762 82.3532 56.4362C84.5992 59.0712 83.4832 66.0082 88.2802 66.0082C89.3852 66.0082 90.2212 65.0412 90.6672 64.0962C91.8582 61.5732 89.6542 57.1902 87.2412 57.1902C87.2172 57.1902 86.8712 57.2042 86.8782 57.3442C86.9682 58.9552 88.2342 57.9512 86.9582 60.6922C85.6552 60.4322 84.2742 58.3392 84.9872 56.8292C85.1972 56.3852 85.7212 56.2622 86.0772 56.2622Z" fill="black"/>
<path d="M86.0772 56.2622C91.2452 56.2622 93.8722 65.7462 91.5622 70.6382C91.1212 71.5732 90.2982 72.5082 89.2122 72.5082C83.3082 72.5082 84.8152 60.7712 81.4922 57.4362C81.7952 57.1132 82.0862 56.7762 82.3532 56.4362C84.5992 59.0712 83.4832 66.0082 88.2802 66.0082C89.3852 66.0082 90.2212 65.0412 90.6672 64.0962C91.8582 61.5732 89.6542 57.1902 87.2412 57.1902C87.2172 57.1902 86.8712 57.2042 86.8782 57.3442C86.9682 58.9552 88.2342 57.9512 86.9582 60.6922C85.6552 60.4322 84.2742 58.3392 84.9872 56.8292C85.1972 56.3852 85.7212 56.2622 86.0772 56.2622V56.2622Z" stroke="black" stroke-width="5.718" stroke-miterlimit="3.864" stroke-linejoin="round"/>
<path fill-rule="evenodd" clip-rule="evenodd" d="M98.9272 56.1538C99.4142 56.1998 100.145 56.1558 100.563 56.2838C100.641 56.3068 100.582 56.4048 100.595 56.4828C100.722 57.1988 100.922 57.8788 101.095 58.5718C101.768 61.2698 102.173 64.0398 102.945 66.7138C103.786 69.6258 104.663 72.9078 103.645 76.5618C103.545 76.9188 103.412 77.2818 103.24 77.6468C102.086 80.0918 99.1202 82.4188 96.5242 82.4188C96.2092 82.4188 95.8692 82.3288 95.7182 82.1248C96.8142 81.4288 97.4982 80.7148 97.9882 79.6788C98.5752 78.4358 98.5662 77.2718 98.4882 76.2008C98.6962 76.3208 99.3612 76.6228 99.6382 76.6228C100.76 76.6228 101.723 75.5378 102.174 74.5828C103.001 72.8318 102.859 71.0438 102.716 69.5518C102.647 68.8139 102.543 68.0797 102.404 67.3518L102.194 66.3158L102.167 66.2028L102.141 66.0888C102.267 66.0888 102.154 66.3088 102.159 66.4198C102.236 68.2258 102.204 70.7478 101.233 72.8038C100.783 73.7588 100.045 74.7438 98.9132 74.7438C93.9502 74.7438 96.4462 60.6698 92.4692 57.3238C92.6892 56.9608 92.8862 56.5858 93.0512 56.2188C95.4052 59.0608 95.5282 66.8958 98.9912 66.8958C99.8322 66.8958 100.701 66.1078 101.058 65.3508C102.598 62.0908 100.041 58.2938 98.9282 56.1538" fill="black"/>
<path d="M98.9272 56.1538C99.4142 56.1998 100.145 56.1558 100.563 56.2838C100.641 56.3068 100.582 56.4048 100.595 56.4828C100.722 57.1988 100.922 57.8788 101.095 58.5718C101.768 61.2698 102.173 64.0398 102.945 66.7138C103.786 69.6258 104.663 72.9078 103.645 76.5618C103.545 76.9188 103.412 77.2818 103.24 77.6468C102.086 80.0918 99.1202 82.4188 96.5242 82.4188C96.2092 82.4188 95.8692 82.3288 95.7182 82.1248C96.8142 81.4288 97.4982 80.7148 97.9882 79.6788C98.5752 78.4358 98.5662 77.2718 98.4882 76.2008C98.6962 76.3208 99.3612 76.6228 99.6382 76.6228C100.76 76.6228 101.723 75.5378 102.174 74.5828C103.001 72.8318 102.859 71.0438 102.716 69.5518C102.647 68.8139 102.543 68.0797 102.404 67.3518L102.194 66.3158L102.167 66.2028L102.141 66.0888C102.267 66.0888 102.154 66.3088 102.159 66.4198C102.236 68.2258 102.204 70.7478 101.233 72.8038C100.783 73.7588 100.045 74.7438 98.9132 74.7438C93.9502 74.7438 96.4462 60.6698 92.4692 57.3238C92.6892 56.9608 92.8862 56.5858 93.0512 56.2188C95.4052 59.0608 95.5282 66.8958 98.9912 66.8958C99.8322 66.8958 100.701 66.1078 101.058 65.3508C102.598 62.0908 100.041 58.2938 98.9282 56.1538H98.9272Z" stroke="black" stroke-width="5.718" stroke-miterlimit="3.864" stroke-linejoin="round"/>
<path d="M37.8039 44.6602C41.2169 44.6602 39.2279 53.1882 38.0139 55.7602C36.9739 57.9612 34.6339 61.1372 31.8609 61.1372C28.5339 61.1372 28.6329 57.4102 29.9569 54.6052C30.6739 53.0852 31.7769 51.3832 33.2949 50.1312C32.9049 51.4382 34.2199 52.3312 33.6879 53.4562C33.3249 54.2252 32.5739 55.0652 32.1839 55.8922C31.5529 57.2292 31.7939 59.6022 33.3189 59.6022C34.6839 59.6022 35.8969 57.9102 36.3939 56.8572C37.4129 54.6992 39.9599 45.4912 37.1129 45.4912C33.8329 45.4912 28.1829 53.4812 26.9999 55.9882C24.8879 60.4622 26.4199 65.9722 31.2309 65.9722C34.4829 65.9722 37.1569 62.8462 38.4489 60.1102C39.1638 58.6033 39.6211 56.9872 39.8019 55.3292L40.4339 55.2132C40.5729 59.4232 45.0259 66.3932 43.1309 70.4092C40.7039 75.5492 33.4499 75.5032 29.3069 77.3272C28.4369 75.2902 27.2569 73.3972 25.5959 71.9512C29.2909 70.7082 38.3709 68.6212 40.3459 64.4392C41.1759 62.6812 40.6099 59.7682 39.6519 58.7802C39.4809 59.43 39.2503 60.0627 38.9629 60.6702C37.2729 64.2502 33.6529 67.0272 29.9219 67.0272C24.7259 67.0272 22.5239 63.2942 24.9689 58.1142C26.4359 55.0052 33.9289 44.6592 37.8039 44.6592M46.6809 57.0022C46.8869 57.5102 47.4839 60.3822 47.9369 60.3822C48.9159 60.3822 50.6849 57.7192 51.1589 57.0272C52.0289 57.5972 51.5469 58.7942 53.1589 58.7942C53.8889 58.7942 54.2569 57.2212 55.0169 57.1952C55.0429 57.8312 55.0839 58.4062 54.7369 59.1412C54.2029 60.2732 52.8509 61.8072 51.5219 61.8072C50.5689 61.8072 49.2429 60.6612 48.9819 60.6612C48.6999 60.6612 48.1799 60.7932 48.0149 61.1442C47.3219 62.6112 49.1729 67.5072 51.0289 67.5072C52.0209 67.5072 53.2039 66.7792 54.2419 66.3312C53.9719 68.0952 53.9339 69.5822 54.2919 71.1012C53.4077 71.6488 52.39 71.9428 51.3499 71.9512C46.7899 71.9512 49.3049 61.3462 45.0999 59.0862L46.6799 57.0022" fill="white"/>
<path fill-rule="evenodd" clip-rule="evenodd" d="M64.2091 56.154C67.6561 56.154 69.0171 62.354 67.4701 65.63C66.2701 68.172 64.1431 70.014 61.4181 70.014C56.6061 70.014 57.2081 63.454 59.0861 59.476C59.6041 58.38 61.3731 55.992 62.7561 55.992C63.2661 55.992 63.6861 56.154 64.2091 56.154ZM64.1021 56.733C63.5601 56.733 63.0821 57.001 62.8321 57.535C62.3021 58.653 64.9371 59.785 64.5591 60.586C64.3211 61.09 63.4151 61.562 62.9581 61.562C60.6741 61.562 60.6931 58.59 62.0551 56.654C61.2081 57.193 60.6531 58.017 60.2931 58.781C58.9551 61.616 60.0171 65.515 63.0711 65.515C64.7591 65.515 66.7021 63.999 67.4581 62.398C68.3881 60.43 66.0101 56.733 64.1021 56.733ZM79.8751 66.36C78.9741 68.268 77.2951 69.315 75.4051 69.315C69.4081 69.315 68.2181 63.846 70.8181 58.34C71.4311 57.04 72.4381 55.603 73.9771 55.603C78.7951 55.603 82.1511 61.536 79.8741 66.36H79.8751ZM75.0901 56.293C74.6471 56.293 74.2601 56.453 74.0471 56.903C73.5811 57.892 76.1191 58.773 76.1221 59.795C75.8571 60.109 75.1151 60.46 74.7921 60.46C72.9641 60.46 71.5841 57.982 73.1451 56.14C72.5111 56.543 72.1351 57.145 71.8681 57.71C70.2861 61.062 72.5411 64.45 75.8281 64.45C77.1961 64.45 78.9581 63.69 79.6691 62.184C80.6751 60.054 77.0931 56.294 75.0891 56.294" fill="white"/>
<path d="M86.0767 56.2622C91.2447 56.2622 93.8717 65.7462 91.5617 70.6382C91.1207 71.5732 90.2977 72.5082 89.2117 72.5082C83.3077 72.5082 84.8147 60.7712 81.4917 57.4362C81.7947 57.1132 82.0857 56.7762 82.3527 56.4362C84.5987 59.0712 83.4827 66.0082 88.2797 66.0082C89.3847 66.0082 90.2207 65.0412 90.6667 64.0962C91.8577 61.5732 89.6537 57.1902 87.2407 57.1902C87.2167 57.1902 86.8707 57.2042 86.8777 57.3442C86.9677 58.9552 88.2337 57.9512 86.9577 60.6922C85.6547 60.4322 84.2737 58.3392 84.9867 56.8292C85.1967 56.3852 85.7207 56.2622 86.0767 56.2622Z" fill="white"/>
<path fill-rule="evenodd" clip-rule="evenodd" d="M98.927 56.1543C99.414 56.2003 100.145 56.1563 100.563 56.2843C100.641 56.3073 100.582 56.4053 100.595 56.4833C100.722 57.1993 100.922 57.8793 101.095 58.5723C101.768 61.2703 102.173 64.0403 102.945 66.7143C103.786 69.6263 104.663 72.9083 103.645 76.5623C103.545 76.9193 103.412 77.2823 103.24 77.6473C99.37 85.0793 91.089 83.0773 88.495 83.0773C88.18 83.0773 87.839 82.9873 87.689 82.7823C88.783 82.0863 89.469 81.3723 89.959 80.3363C90.545 79.0933 90.536 77.9303 90.459 76.8583C90.666 76.9793 91.331 77.2803 91.607 77.2803C92.73 77.2803 98.985 80.4943 102.174 74.5843C103.001 72.8323 102.859 71.0443 102.716 69.5523C102.647 68.8144 102.543 68.0802 102.404 67.3523L102.194 66.3163L102.167 66.2033L102.141 66.0903C102.267 66.0903 102.154 66.3103 102.159 66.4203C102.236 68.2273 102.204 70.7483 101.233 72.8043C100.783 73.7593 100.045 74.7443 98.913 74.7443C93.95 74.7443 96.446 60.6703 92.469 57.3243C92.689 56.9613 92.886 56.5863 93.051 56.2193C95.405 59.0613 95.528 66.8963 98.991 66.8963C99.832 66.8963 100.701 66.1093 101.059 65.3513C102.597 62.0913 100.041 58.2953 98.927 56.1543Z" fill="white"/>
<path d="M103.493 95.9129L63.9682 80.5629L24.4432 95.9089L40.0492 71.4449L0.0131836 56.4629L49.1852 56.6929L63.9662 32.0879L78.7502 56.6939L127.922 56.4689L87.8862 71.4469L103.495 95.9129" fill="black"/>
<path d="M98.2041 91.4802L64.0341 78.2362L29.8661 91.4782L43.3571 70.3682L8.74707 57.4422L51.2531 57.6402L64.0301 36.4102L76.8101 57.6402L119.319 57.4462L84.7101 70.3702L98.2031 91.4802" fill="#619CBC"/>
<path d="M37.8039 44.6602C41.2169 44.6602 39.2279 53.1882 38.0139 55.7602C36.9739 57.9612 34.6339 61.1372 31.8609 61.1372C28.5339 61.1372 28.6329 57.4102 29.9569 54.6052C30.6739 53.0852 31.7769 51.3832 33.2949 50.1312C32.9049 51.4382 34.2199 52.3312 33.6879 53.4562C33.3249 54.2252 32.5739 55.0652 32.1839 55.8922C31.5529 57.2292 31.7939 59.6022 33.3189 59.6022C34.6839 59.6022 35.8969 57.9102 36.3939 56.8572C37.4129 54.6992 39.9599 45.4912 37.1129 45.4912C33.8329 45.4912 28.1829 53.4812 26.9999 55.9882C24.8879 60.4622 26.4199 65.9722 31.2309 65.9722C34.4829 65.9722 37.1569 62.8462 38.4489 60.1102C39.1638 58.6033 39.6211 56.9872 39.8019 55.3292L40.4339 55.2132C40.5729 59.4232 45.0259 66.3932 43.1309 70.4092C40.7039 75.5492 33.4499 75.5032 29.3069 77.3272C28.4369 75.2902 27.2569 73.3972 25.5959 71.9512C29.2909 70.7082 38.3709 68.6212 40.3459 64.4392C41.1759 62.6812 40.6099 59.7682 39.6519 58.7802C39.4809 59.43 39.2503 60.0627 38.9629 60.6702C37.2729 64.2502 33.6529 67.0272 29.9219 67.0272C24.7259 67.0272 22.5239 63.2942 24.9689 58.1142C26.4359 55.0052 33.9289 44.6592 37.8039 44.6592" fill="black"/>
<path d="M37.8039 44.6602C41.2169 44.6602 39.2279 53.1882 38.0139 55.7602C36.9739 57.9612 34.6339 61.1372 31.8609 61.1372C28.5339 61.1372 28.6329 57.4102 29.9569 54.6052C30.6739 53.0852 31.7769 51.3832 33.2949 50.1312C32.9049 51.4382 34.2199 52.3312 33.6879 53.4562C33.3249 54.2252 32.5739 55.0652 32.1839 55.8922C31.5529 57.2292 31.7939 59.6022 33.3189 59.6022C34.6839 59.6022 35.8969 57.9102 36.3939 56.8572C37.4129 54.6992 39.9599 45.4912 37.1129 45.4912C33.8329 45.4912 28.1829 53.4812 26.9999 55.9882C24.8879 60.4622 26.4199 65.9722 31.2309 65.9722C34.4829 65.9722 37.1569 62.8462 38.4489 60.1102C39.1638 58.6033 39.6211 56.9872 39.8019 55.3292L40.4339 55.2132C40.5729 59.4232 45.0259 66.3932 43.1309 70.4092C40.7039 75.5492 33.4499 75.5032 29.3069 77.3272C28.4369 75.2902 27.2569 73.3972 25.5959 71.9512C29.2909 70.7082 38.3709 68.6212 40.3459 64.4392C41.1759 62.6812 40.6099 59.7682 39.6519 58.7802C39.4809 59.43 39.2503 60.0627 38.9629 60.6702C37.2729 64.2502 33.6529 67.0272 29.9219 67.0272C24.7259 67.0272 22.5239 63.2942 24.9689 58.1142C26.4359 55.0052 33.9289 44.6592 37.8039 44.6592V44.6602Z" stroke="black" stroke-width="5.718" stroke-miterlimit="3.864" stroke-linejoin="round"/>
<path d="M46.6811 57.002C46.8871 57.51 47.4841 60.382 47.9371 60.382C48.9161 60.382 50.6851 57.719 51.1591 57.027C52.0291 57.597 51.5471 58.794 53.1591 58.794C53.8891 58.794 54.2571 57.221 55.0171 57.195C55.0431 57.831 55.0841 58.406 54.7371 59.141C54.2031 60.273 52.8511 61.807 51.5221 61.807C50.5691 61.807 49.2431 60.661 48.9821 60.661C48.7001 60.661 48.1801 60.793 48.0151 61.144C47.3221 62.611 49.1731 67.507 51.0291 67.507C52.0211 67.507 53.2041 66.779 54.2421 66.331C53.9721 68.095 53.9341 69.582 54.2921 71.101C53.4079 71.6486 52.3901 71.9426 51.3501 71.951C46.7901 71.951 49.3051 61.346 45.1001 59.086L46.6801 57.002" fill="black"/>
<path d="M46.6811 57.002C46.8871 57.51 47.4841 60.382 47.9371 60.382C48.9161 60.382 50.6851 57.719 51.1591 57.027C52.0291 57.597 51.5471 58.794 53.1591 58.794C53.8891 58.794 54.2571 57.221 55.0171 57.195C55.0431 57.831 55.0841 58.406 54.7371 59.141C54.2031 60.273 52.8511 61.807 51.5221 61.807C50.5691 61.807 49.2431 60.661 48.9821 60.661C48.7001 60.661 48.1801 60.793 48.0151 61.144C47.3221 62.611 49.1731 67.507 51.0291 67.507C52.0211 67.507 53.2041 66.779 54.2421 66.331C53.9721 68.095 53.9341 69.582 54.2921 71.101C53.4079 71.6486 52.3901 71.9426 51.3501 71.951C46.7901 71.951 49.3051 61.346 45.1001 59.086L46.6811 57.002Z" stroke="black" stroke-width="5.718" stroke-miterlimit="3.864" stroke-linejoin="round"/>
<path fill-rule="evenodd" clip-rule="evenodd" d="M64.2091 56.1542C67.6561 56.1542 69.0171 62.3542 67.4701 65.6302C66.2701 68.1722 64.1431 70.0142 61.4181 70.0142C56.6061 70.0142 57.2081 63.4542 59.0861 59.4762C59.6041 58.3802 61.3731 55.9922 62.7561 55.9922C63.2661 55.9922 63.6861 56.1542 64.2091 56.1542ZM64.1021 56.7332C63.5601 56.7332 63.0821 57.0012 62.8321 57.5352C62.3021 58.6532 64.9371 59.7852 64.5591 60.5862C64.3211 61.0902 63.4151 61.5622 62.9581 61.5622C60.6741 61.5622 60.6931 58.5902 62.0551 56.6542C61.2081 57.1932 60.6531 58.0172 60.2931 58.7812C58.9551 61.6162 60.0171 65.5152 63.0711 65.5152C64.7591 65.5152 66.7021 63.9992 67.4581 62.3982C68.3881 60.4302 66.0101 56.7332 64.1021 56.7332Z" fill="black"/>
<path d="M64.2091 56.1542C67.6561 56.1542 69.0171 62.3542 67.4701 65.6302C66.2701 68.1722 64.1431 70.0142 61.4181 70.0142C56.6061 70.0142 57.2081 63.4542 59.0861 59.4762C59.6041 58.3802 61.3731 55.9922 62.7561 55.9922C63.2661 55.9922 63.6861 56.1542 64.2091 56.1542V56.1542Z" stroke="black" stroke-width="5.718" stroke-miterlimit="3.864" stroke-linejoin="round"/>
<path d="M64.1009 56.7328C63.5589 56.7328 63.0809 57.0008 62.8299 57.5348C62.3019 58.6538 64.9359 59.7848 64.5579 60.5858C64.3199 61.0898 63.4139 61.5618 62.9569 61.5618C60.6729 61.5618 60.6919 58.5898 62.0539 56.6538C61.2069 57.1938 60.6519 58.0168 60.2919 58.7808C58.9529 61.6158 60.0149 65.5158 63.0699 65.5158C64.7569 65.5158 66.7009 63.9988 67.4569 62.3988C68.3869 60.4308 66.0089 56.7328 64.1009 56.7328V56.7328Z" stroke="black" stroke-width="5.718" stroke-miterlimit="3.864" stroke-linejoin="round"/>
<path fill-rule="evenodd" clip-rule="evenodd" d="M79.8748 66.36C78.9738 68.268 77.2948 69.315 75.4048 69.315C69.4078 69.315 68.2178 63.846 70.8178 58.34C71.4308 57.04 72.4378 55.603 73.9768 55.603C78.7948 55.603 82.1508 61.536 79.8738 66.36H79.8748ZM75.0898 56.293C74.6468 56.293 74.2598 56.453 74.0468 56.903C73.5808 57.892 76.1188 58.773 76.1218 59.795C75.8568 60.109 75.1148 60.46 74.7918 60.46C72.9638 60.46 71.5838 57.982 73.1448 56.14C72.5108 56.543 72.1348 57.145 71.8678 57.71C70.2858 61.062 72.5408 64.45 75.8278 64.45C77.1958 64.45 78.9578 63.69 79.6688 62.184C80.6748 60.054 77.0928 56.294 75.0888 56.294" fill="black"/>
<path d="M79.8748 66.36C78.9738 68.268 77.2948 69.315 75.4048 69.315C69.4078 69.315 68.2178 63.846 70.8178 58.34C71.4308 57.04 72.4378 55.603 73.9768 55.603C78.7948 55.603 82.1508 61.536 79.8738 66.36H79.8748Z" stroke="black" stroke-width="5.718" stroke-miterlimit="3.864" stroke-linejoin="round"/>
<path d="M75.089 56.2941C74.647 56.2941 74.259 56.4541 74.046 56.9041C73.58 57.8921 76.118 58.7741 76.122 59.7961C75.857 60.1091 75.114 60.4611 74.791 60.4611C72.963 60.4611 71.583 57.9831 73.144 56.1411C72.511 56.5431 72.134 57.1451 71.867 57.7111C70.285 61.0631 72.541 64.4511 75.827 64.4511C77.195 64.4511 78.958 63.6911 79.669 62.1851C80.674 60.0551 77.093 56.2951 75.089 56.2951V56.2941Z" stroke="black" stroke-width="5.718" stroke-miterlimit="3.864" stroke-linejoin="round"/>
<path d="M86.0772 56.2622C91.2452 56.2622 93.8722 65.7462 91.5622 70.6382C91.1212 71.5732 90.2982 72.5082 89.2122 72.5082C83.3082 72.5082 84.8152 60.7712 81.4922 57.4362C81.7952 57.1132 82.0862 56.7762 82.3532 56.4362C84.5992 59.0712 83.4832 66.0082 88.2802 66.0082C89.3852 66.0082 90.2212 65.0412 90.6672 64.0962C91.8582 61.5732 89.6542 57.1902 87.2412 57.1902C87.2172 57.1902 86.8712 57.2042 86.8782 57.3442C86.9682 58.9552 88.2342 57.9512 86.9582 60.6922C85.6552 60.4322 84.2742 58.3392 84.9872 56.8292C85.1972 56.3852 85.7212 56.2622 86.0772 56.2622Z" fill="black"/>
<path d="M86.0772 56.2622C91.2452 56.2622 93.8722 65.7462 91.5622 70.6382C91.1212 71.5732 90.2982 72.5082 89.2122 72.5082C83.3082 72.5082 84.8152 60.7712 81.4922 57.4362C81.7952 57.1132 82.0862 56.7762 82.3532 56.4362C84.5992 59.0712 83.4832 66.0082 88.2802 66.0082C89.3852 66.0082 90.2212 65.0412 90.6672 64.0962C91.8582 61.5732 89.6542 57.1902 87.2412 57.1902C87.2172 57.1902 86.8712 57.2042 86.8782 57.3442C86.9682 58.9552 88.2342 57.9512 86.9582 60.6922C85.6552 60.4322 84.2742 58.3392 84.9872 56.8292C85.1972 56.3852 85.7212 56.2622 86.0772 56.2622V56.2622Z" stroke="black" stroke-width="5.718" stroke-miterlimit="3.864" stroke-linejoin="round"/>
<path fill-rule="evenodd" clip-rule="evenodd" d="M98.927 56.1538C99.414 56.1998 100.145 56.1558 100.563 56.2838C100.641 56.3068 100.582 56.4048 100.595 56.4828C100.722 57.1988 100.922 57.8788 101.095 58.5718C101.768 61.2698 102.173 64.0398 102.945 66.7138C103.786 69.6258 104.663 72.9078 103.645 76.5618C103.545 76.9188 103.412 77.2818 103.24 77.6468C102.086 80.0918 92.149 82.9088 89.554 82.9088C89.239 82.9088 88.899 82.8188 88.749 82.6138C89.843 81.9178 90.529 81.2038 91.019 80.1678C91.604 78.9258 91.596 77.7618 91.519 76.6908C91.726 76.8108 99.361 76.6228 99.637 76.6228C100.76 76.6228 101.723 75.5378 102.173 74.5828C103 72.8318 102.859 71.0438 102.716 69.5518C102.647 68.8139 102.543 68.0797 102.404 67.3518L102.194 66.3158L102.167 66.2028L102.141 66.0888C102.266 66.0888 102.154 66.3088 102.159 66.4198C102.236 68.2258 102.203 70.7478 101.233 72.8038C100.782 73.7588 100.044 74.7438 98.913 74.7438C93.95 74.7438 96.446 60.6698 92.469 57.3238C92.689 56.9608 92.886 56.5858 93.051 56.2188C95.404 59.0608 95.528 66.8958 98.991 66.8958C99.831 66.8958 100.701 66.1078 101.058 65.3508C102.597 62.0908 100.041 58.2938 98.928 56.1538" fill="black"/>
<path d="M98.927 56.1538C99.414 56.1998 100.145 56.1558 100.563 56.2838C100.641 56.3068 100.582 56.4048 100.595 56.4828C100.722 57.1988 100.922 57.8788 101.095 58.5718C101.768 61.2698 102.173 64.0398 102.945 66.7138C103.786 69.6258 104.663 72.9078 103.645 76.5618C103.545 76.9188 103.412 77.2818 103.24 77.6468C102.086 80.0918 92.149 82.9088 89.554 82.9088C89.239 82.9088 88.899 82.8188 88.749 82.6138C89.843 81.9178 90.529 81.2038 91.019 80.1678C91.604 78.9258 91.596 77.7618 91.519 76.6908C91.726 76.8108 99.361 76.6228 99.637 76.6228C100.76 76.6228 101.723 75.5378 102.173 74.5828C103 72.8318 102.859 71.0438 102.716 69.5518C102.647 68.8139 102.543 68.0797 102.404 67.3518L102.194 66.3158L102.167 66.2028L102.141 66.0888C102.266 66.0888 102.154 66.3088 102.159 66.4198C102.236 68.2258 102.203 70.7478 101.233 72.8038C100.782 73.7588 100.044 74.7438 98.913 74.7438C93.95 74.7438 96.446 60.6698 92.469 57.3238C92.689 56.9608 92.886 56.5858 93.051 56.2188C95.404 59.0608 95.528 66.8958 98.991 66.8958C99.831 66.8958 100.701 66.1078 101.058 65.3508C102.597 62.0908 100.041 58.2938 98.928 56.1538H98.927Z" stroke="black" stroke-width="5.718" stroke-miterlimit="3.864" stroke-linejoin="round"/>
<path d="M37.8039 44.6602C41.2169 44.6602 39.2279 53.1882 38.0139 55.7602C36.9739 57.9612 34.6339 61.1372 31.8609 61.1372C28.5339 61.1372 28.6329 57.4102 29.9569 54.6052C30.6739 53.0852 31.7769 51.3832 33.2949 50.1312C32.9049 51.4382 34.2199 52.3312 33.6879 53.4562C33.3249 54.2252 32.5739 55.0652 32.1839 55.8922C31.5529 57.2292 31.7939 59.6022 33.3189 59.6022C34.6839 59.6022 35.8969 57.9102 36.3939 56.8572C37.4129 54.6992 39.9599 45.4912 37.1129 45.4912C33.8329 45.4912 28.1829 53.4812 26.9999 55.9882C24.8879 60.4622 26.4199 65.9722 31.2309 65.9722C34.4829 65.9722 37.1569 62.8462 38.4489 60.1102C39.1638 58.6033 39.6211 56.9872 39.8019 55.3292L40.4339 55.2132C40.5729 59.4232 45.0259 66.3932 43.1309 70.4092C40.7039 75.5492 33.4499 75.5032 29.3069 77.3272C28.4369 75.2902 27.2569 73.3972 25.5959 71.9512C29.2909 70.7082 38.3709 68.6212 40.3459 64.4392C41.1759 62.6812 40.6099 59.7682 39.6519 58.7802C39.4809 59.43 39.2503 60.0627 38.9629 60.6702C37.2729 64.2502 33.6529 67.0272 29.9219 67.0272C24.7259 67.0272 22.5239 63.2942 24.9689 58.1142C26.4359 55.0052 33.9289 44.6592 37.8039 44.6592" fill="black"/>
<path d="M37.8039 44.6602C41.2169 44.6602 39.2279 53.1882 38.0139 55.7602C36.9739 57.9612 34.6339 61.1372 31.8609 61.1372C28.5339 61.1372 28.6329 57.4102 29.9569 54.6052C30.6739 53.0852 31.7769 51.3832 33.2949 50.1312C32.9049 51.4382 34.2199 52.3312 33.6879 53.4562C33.3249 54.2252 32.5739 55.0652 32.1839 55.8922C31.5529 57.2292 31.7939 59.6022 33.3189 59.6022C34.6839 59.6022 35.8969 57.9102 36.3939 56.8572C37.4129 54.6992 39.9599 45.4912 37.1129 45.4912C33.8329 45.4912 28.1829 53.4812 26.9999 55.9882C24.8879 60.4622 26.4199 65.9722 31.2309 65.9722C34.4829 65.9722 37.1569 62.8462 38.4489 60.1102C39.1638 58.6033 39.6211 56.9872 39.8019 55.3292L40.4339 55.2132C40.5729 59.4232 45.0259 66.3932 43.1309 70.4092C40.7039 75.5492 33.4499 75.5032 29.3069 77.3272C28.4369 75.2902 27.2569 73.3972 25.5959 71.9512C29.2909 70.7082 38.3709 68.6212 40.3459 64.4392C41.1759 62.6812 40.6099 59.7682 39.6519 58.7802C39.4809 59.43 39.2503 60.0627 38.9629 60.6702C37.2729 64.2502 33.6529 67.0272 29.9219 67.0272C24.7259 67.0272 22.5239 63.2942 24.9689 58.1142C26.4359 55.0052 33.9289 44.6592 37.8039 44.6592V44.6602Z" stroke="black" stroke-width="0.476506" stroke-miterlimit="3.864"/>
<path d="M46.6811 57.002C46.8871 57.51 47.4841 60.382 47.9371 60.382C48.9161 60.382 50.6851 57.719 51.1591 57.027C52.0291 57.597 51.5471 58.794 53.1591 58.794C53.8891 58.794 54.2571 57.221 55.0171 57.195C55.0431 57.831 55.0841 58.406 54.7371 59.141C54.2031 60.273 52.8511 61.807 51.5221 61.807C50.5691 61.807 49.2431 60.661 48.9821 60.661C48.7001 60.661 48.1801 60.793 48.0151 61.144C47.3221 62.611 49.1731 67.507 51.0291 67.507C52.0211 67.507 53.2041 66.779 54.2421 66.331C53.9721 68.095 53.9341 69.582 54.2921 71.101C53.4079 71.6486 52.3901 71.9426 51.3501 71.951C46.7901 71.951 49.3051 61.346 45.1001 59.086L46.6801 57.002" fill="black"/>
<path d="M46.6811 57.002C46.8871 57.51 47.4841 60.382 47.9371 60.382C48.9161 60.382 50.6851 57.719 51.1591 57.027C52.0291 57.597 51.5471 58.794 53.1591 58.794C53.8891 58.794 54.2571 57.221 55.0171 57.195C55.0431 57.831 55.0841 58.406 54.7371 59.141C54.2031 60.273 52.8511 61.807 51.5221 61.807C50.5691 61.807 49.2431 60.661 48.9821 60.661C48.7001 60.661 48.1801 60.793 48.0151 61.144C47.3221 62.611 49.1731 67.507 51.0291 67.507C52.0211 67.507 53.2041 66.779 54.2421 66.331C53.9721 68.095 53.9341 69.582 54.2921 71.101C53.4079 71.6486 52.3901 71.9426 51.3501 71.951C46.7901 71.951 49.3051 61.346 45.1001 59.086L46.6811 57.002Z" stroke="black" stroke-width="0.476506" stroke-miterlimit="3.864"/>
<path fill-rule="evenodd" clip-rule="evenodd" d="M64.2091 56.1542C67.6561 56.1542 69.0171 62.3542 67.4701 65.6302C66.2701 68.1722 64.1431 70.0142 61.4181 70.0142C56.6061 70.0142 57.2081 63.4542 59.0861 59.4762C59.6041 58.3802 61.3731 55.9922 62.7561 55.9922C63.2661 55.9922 63.6861 56.1542 64.2091 56.1542ZM64.1021 56.7332C63.5601 56.7332 63.0821 57.0012 62.8321 57.5352C62.3021 58.6532 64.9371 59.7852 64.5591 60.5862C64.3211 61.0902 63.4151 61.5622 62.9581 61.5622C60.6741 61.5622 60.6931 58.5902 62.0551 56.6542C61.2081 57.1932 60.6531 58.0172 60.2931 58.7812C58.9551 61.6162 60.0171 65.5152 63.0711 65.5152C64.7591 65.5152 66.7021 63.9992 67.4581 62.3982C68.3881 60.4302 66.0101 56.7332 64.1021 56.7332Z" fill="black"/>
<path d="M64.2091 56.1542C67.6561 56.1542 69.0171 62.3542 67.4701 65.6302C66.2701 68.1722 64.1431 70.0142 61.4181 70.0142C56.6061 70.0142 57.2081 63.4542 59.0861 59.4762C59.6041 58.3802 61.3731 55.9922 62.7561 55.9922C63.2661 55.9922 63.6861 56.1542 64.2091 56.1542V56.1542Z" stroke="black" stroke-width="0.476506" stroke-miterlimit="3.864"/>
<path d="M64.1009 56.7328C63.5589 56.7328 63.0809 57.0008 62.8299 57.5348C62.3019 58.6538 64.9359 59.7848 64.5579 60.5858C64.3199 61.0898 63.4139 61.5618 62.9569 61.5618C60.6729 61.5618 60.6919 58.5898 62.0539 56.6538C61.2069 57.1938 60.6519 58.0168 60.2919 58.7808C58.9529 61.6158 60.0149 65.5158 63.0699 65.5158C64.7569 65.5158 66.7009 63.9988 67.4569 62.3988C68.3869 60.4308 66.0089 56.7328 64.1009 56.7328V56.7328Z" stroke="black" stroke-width="0.476506" stroke-miterlimit="3.864"/>
<path fill-rule="evenodd" clip-rule="evenodd" d="M79.8748 66.36C78.9738 68.268 77.2948 69.315 75.4048 69.315C69.4078 69.315 68.2178 63.846 70.8178 58.34C71.4308 57.04 72.4378 55.603 73.9768 55.603C78.7948 55.603 82.1508 61.536 79.8738 66.36H79.8748ZM75.0898 56.293C74.6468 56.293 74.2598 56.453 74.0468 56.903C73.5808 57.892 76.1188 58.773 76.1218 59.795C75.8568 60.109 75.1148 60.46 74.7918 60.46C72.9638 60.46 71.5838 57.982 73.1448 56.14C72.5108 56.543 72.1348 57.145 71.8678 57.71C70.2858 61.062 72.5408 64.45 75.8278 64.45C77.1958 64.45 78.9578 63.69 79.6688 62.184C80.6748 60.054 77.0928 56.294 75.0888 56.294" fill="black"/>
<path d="M79.8748 66.36C78.9738 68.268 77.2948 69.315 75.4048 69.315C69.4078 69.315 68.2178 63.846 70.8178 58.34C71.4308 57.04 72.4378 55.603 73.9768 55.603C78.7948 55.603 82.1508 61.536 79.8738 66.36H79.8748Z" stroke="black" stroke-width="0.476506" stroke-miterlimit="3.864"/>
<path d="M75.089 56.2941C74.647 56.2941 74.259 56.4541 74.046 56.9041C73.58 57.8921 76.118 58.7741 76.122 59.7961C75.857 60.1091 75.114 60.4611 74.791 60.4611C72.963 60.4611 71.583 57.9831 73.144 56.1411C72.511 56.5431 72.134 57.1451 71.867 57.7111C70.285 61.0631 72.541 64.4511 75.827 64.4511C77.195 64.4511 78.958 63.6911 79.669 62.1851C80.674 60.0551 77.093 56.2951 75.089 56.2951V56.2941Z" stroke="black" stroke-width="0.476506" stroke-miterlimit="3.864"/>
<path d="M86.0772 56.2622C91.2452 56.2622 93.8722 65.7462 91.5622 70.6382C91.1212 71.5732 90.2982 72.5082 89.2122 72.5082C83.3082 72.5082 84.8152 60.7712 81.4922 57.4362C81.7952 57.1132 82.0862 56.7762 82.3532 56.4362C84.5992 59.0712 83.4832 66.0082 88.2802 66.0082C89.3852 66.0082 90.2212 65.0412 90.6672 64.0962C91.8582 61.5732 89.6542 57.1902 87.2412 57.1902C87.2172 57.1902 86.8712 57.2042 86.8782 57.3442C86.9682 58.9552 88.2342 57.9512 86.9582 60.6922C85.6552 60.4322 84.2742 58.3392 84.9872 56.8292C85.1972 56.3852 85.7212 56.2622 86.0772 56.2622Z" fill="black"/>
<path d="M86.0772 56.2622C91.2452 56.2622 93.8722 65.7462 91.5622 70.6382C91.1212 71.5732 90.2982 72.5082 89.2122 72.5082C83.3082 72.5082 84.8152 60.7712 81.4922 57.4362C81.7952 57.1132 82.0862 56.7762 82.3532 56.4362C84.5992 59.0712 83.4832 66.0082 88.2802 66.0082C89.3852 66.0082 90.2212 65.0412 90.6672 64.0962C91.8582 61.5732 89.6542 57.1902 87.2412 57.1902C87.2172 57.1902 86.8712 57.2042 86.8782 57.3442C86.9682 58.9552 88.2342 57.9512 86.9582 60.6922C85.6552 60.4322 84.2742 58.3392 84.9872 56.8292C85.1972 56.3852 85.7212 56.2622 86.0772 56.2622V56.2622Z" stroke="black" stroke-width="0.476506" stroke-miterlimit="3.864"/>
<path fill-rule="evenodd" clip-rule="evenodd" d="M98.9272 56.1538C99.4142 56.1998 100.145 56.1558 100.563 56.2838C100.641 56.3068 100.582 56.4048 100.595 56.4828C100.722 57.1988 100.922 57.8788 101.095 58.5718C101.768 61.2698 102.173 64.0398 102.945 66.7138C103.786 69.6258 104.663 72.9078 103.645 76.5618C103.545 76.9188 103.412 77.2818 103.24 77.6468C102.086 80.0918 99.1202 82.4188 96.5242 82.4188C96.2092 82.4188 95.8692 82.3288 95.7182 82.1248C96.8142 81.4288 97.4982 80.7148 97.9882 79.6788C98.5752 78.4358 98.5662 77.2718 98.4882 76.2008C98.6962 76.3208 99.3612 76.6228 99.6382 76.6228C100.76 76.6228 101.723 75.5378 102.174 74.5828C103.001 72.8318 102.859 71.0438 102.716 69.5518C102.647 68.8139 102.543 68.0797 102.404 67.3518L102.194 66.3158L102.167 66.2028L102.141 66.0888C102.267 66.0888 102.154 66.3088 102.159 66.4198C102.236 68.2258 102.204 70.7478 101.233 72.8038C100.783 73.7588 100.045 74.7438 98.9132 74.7438C93.9502 74.7438 96.4462 60.6698 92.4692 57.3238C92.6892 56.9608 92.8862 56.5858 93.0512 56.2188C95.4052 59.0608 95.5282 66.8958 98.9912 66.8958C99.8322 66.8958 100.701 66.1078 101.058 65.3508C102.598 62.0908 100.041 58.2938 98.9282 56.1538" fill="black"/>
<path d="M98.9272 56.1538C99.4142 56.1998 100.145 56.1558 100.563 56.2838C100.641 56.3068 100.582 56.4048 100.595 56.4828C100.722 57.1988 100.922 57.8788 101.095 58.5718C101.768 61.2698 102.173 64.0398 102.945 66.7138C103.786 69.6258 104.663 72.9078 103.645 76.5618C103.545 76.9188 103.412 77.2818 103.24 77.6468C102.086 80.0918 99.1202 82.4188 96.5242 82.4188C96.2092 82.4188 95.8692 82.3288 95.7182 82.1248C96.8142 81.4288 97.4982 80.7148 97.9882 79.6788C98.5752 78.4358 98.5662 77.2718 98.4882 76.2008C98.6962 76.3208 99.3612 76.6228 99.6382 76.6228C100.76 76.6228 101.723 75.5378 102.174 74.5828C103.001 72.8318 102.859 71.0438 102.716 69.5518C102.647 68.8139 102.543 68.0797 102.404 67.3518L102.194 66.3158L102.167 66.2028L102.141 66.0888C102.267 66.0888 102.154 66.3088 102.159 66.4198C102.236 68.2258 102.204 70.7478 101.233 72.8038C100.783 73.7588 100.045 74.7438 98.9132 74.7438C93.9502 74.7438 96.4462 60.6698 92.4692 57.3238C92.6892 56.9608 92.8862 56.5858 93.0512 56.2188C95.4052 59.0608 95.5282 66.8958 98.9912 66.8958C99.8322 66.8958 100.701 66.1078 101.058 65.3508C102.598 62.0908 100.041 58.2938 98.9282 56.1538H98.9272Z" stroke="black" stroke-width="0.476506" stroke-miterlimit="3.864"/>
<path d="M37.8039 44.6602C41.2169 44.6602 39.2279 53.1882 38.0139 55.7602C36.9739 57.9612 34.6339 61.1372 31.8609 61.1372C28.5339 61.1372 28.6329 57.4102 29.9569 54.6052C30.6739 53.0852 31.7769 51.3832 33.2949 50.1312C32.9049 51.4382 34.2199 52.3312 33.6879 53.4562C33.3249 54.2252 32.5739 55.0652 32.1839 55.8922C31.5529 57.2292 31.7939 59.6022 33.3189 59.6022C34.6839 59.6022 35.8969 57.9102 36.3939 56.8572C37.4129 54.6992 39.9599 45.4912 37.1129 45.4912C33.8329 45.4912 28.1829 53.4812 26.9999 55.9882C24.8879 60.4622 26.4199 65.9722 31.2309 65.9722C34.4829 65.9722 37.1569 62.8462 38.4489 60.1102C39.1638 58.6033 39.6211 56.9872 39.8019 55.3292L40.4339 55.2132C40.5729 59.4232 45.0259 66.3932 43.1309 70.4092C40.7039 75.5492 33.4499 75.5032 29.3069 77.3272C28.4369 75.2902 27.2569 73.3972 25.5959 71.9512C29.2909 70.7082 38.3709 68.6212 40.3459 64.4392C41.1759 62.6812 40.6099 59.7682 39.6519 58.7802C39.4809 59.43 39.2503 60.0627 38.9629 60.6702C37.2729 64.2502 33.6529 67.0272 29.9219 67.0272C24.7259 67.0272 22.5239 63.2942 24.9689 58.1142C26.4359 55.0052 33.9289 44.6592 37.8039 44.6592" fill="black"/>
<path d="M37.8039 44.6602C41.2169 44.6602 39.2279 53.1882 38.0139 55.7602C36.9739 57.9612 34.6339 61.1372 31.8609 61.1372C28.5339 61.1372 28.6329 57.4102 29.9569 54.6052C30.6739 53.0852 31.7769 51.3832 33.2949 50.1312C32.9049 51.4382 34.2199 52.3312 33.6879 53.4562C33.3249 54.2252 32.5739 55.0652 32.1839 55.8922C31.5529 57.2292 31.7939 59.6022 33.3189 59.6022C34.6839 59.6022 35.8969 57.9102 36.3939 56.8572C37.4129 54.6992 39.9599 45.4912 37.1129 45.4912C33.8329 45.4912 28.1829 53.4812 26.9999 55.9882C24.8879 60.4622 26.4199 65.9722 31.2309 65.9722C34.4829 65.9722 37.1569 62.8462 38.4489 60.1102C39.1638 58.6033 39.6211 56.9872 39.8019 55.3292L40.4339 55.2132C40.5729 59.4232 45.0259 66.3932 43.1309 70.4092C40.7039 75.5492 33.4499 75.5032 29.3069 77.3272C28.4369 75.2902 27.2569 73.3972 25.5959 71.9512C29.2909 70.7082 38.3709 68.6212 40.3459 64.4392C41.1759 62.6812 40.6099 59.7682 39.6519 58.7802C39.4809 59.43 39.2503 60.0627 38.9629 60.6702C37.2729 64.2502 33.6529 67.0272 29.9219 67.0272C24.7259 67.0272 22.5239 63.2942 24.9689 58.1142C26.4359 55.0052 33.9289 44.6592 37.8039 44.6592V44.6602Z" stroke="black" stroke-width="5.718" stroke-miterlimit="3.864" stroke-linejoin="round"/>
<path d="M46.6811 57.002C46.8871 57.51 47.4841 60.382 47.9371 60.382C48.9161 60.382 50.6851 57.719 51.1591 57.027C52.0291 57.597 51.5471 58.794 53.1591 58.794C53.8891 58.794 54.2571 57.221 55.0171 57.195C55.0431 57.831 55.0841 58.406 54.7371 59.141C54.2031 60.273 52.8511 61.807 51.5221 61.807C50.5691 61.807 49.2431 60.661 48.9821 60.661C48.7001 60.661 48.1801 60.793 48.0151 61.144C47.3221 62.611 49.1731 67.507 51.0291 67.507C52.0211 67.507 53.2041 66.779 54.2421 66.331C53.9721 68.095 53.9341 69.582 54.2921 71.101C53.4079 71.6486 52.3901 71.9426 51.3501 71.951C46.7901 71.951 49.3051 61.346 45.1001 59.086L46.6801 57.002" fill="black"/>
<path d="M46.6811 57.002C46.8871 57.51 47.4841 60.382 47.9371 60.382C48.9161 60.382 50.6851 57.719 51.1591 57.027C52.0291 57.597 51.5471 58.794 53.1591 58.794C53.8891 58.794 54.2571 57.221 55.0171 57.195C55.0431 57.831 55.0841 58.406 54.7371 59.141C54.2031 60.273 52.8511 61.807 51.5221 61.807C50.5691 61.807 49.2431 60.661 48.9821 60.661C48.7001 60.661 48.1801 60.793 48.0151 61.144C47.3221 62.611 49.1731 67.507 51.0291 67.507C52.0211 67.507 53.2041 66.779 54.2421 66.331C53.9721 68.095 53.9341 69.582 54.2921 71.101C53.4079 71.6486 52.3901 71.9426 51.3501 71.951C46.7901 71.951 49.3051 61.346 45.1001 59.086L46.6811 57.002Z" stroke="black" stroke-width="5.718" stroke-miterlimit="3.864" stroke-linejoin="round"/>
<path fill-rule="evenodd" clip-rule="evenodd" d="M64.2091 56.1542C67.6561 56.1542 69.0171 62.3542 67.4701 65.6302C66.2701 68.1722 64.1431 70.0142 61.4181 70.0142C56.6061 70.0142 57.2081 63.4542 59.0861 59.4762C59.6041 58.3802 61.3731 55.9922 62.7561 55.9922C63.2661 55.9922 63.6861 56.1542 64.2091 56.1542ZM64.1021 56.7332C63.5601 56.7332 63.0821 57.0012 62.8321 57.5352C62.3021 58.6532 64.9371 59.7852 64.5591 60.5862C64.3211 61.0902 63.4151 61.5622 62.9581 61.5622C60.6741 61.5622 60.6931 58.5902 62.0551 56.6542C61.2081 57.1932 60.6531 58.0172 60.2931 58.7812C58.9551 61.6162 60.0171 65.5152 63.0711 65.5152C64.7591 65.5152 66.7021 63.9992 67.4581 62.3982C68.3881 60.4302 66.0101 56.7332 64.1021 56.7332Z" fill="black"/>
<path d="M64.2091 56.1542C67.6561 56.1542 69.0171 62.3542 67.4701 65.6302C66.2701 68.1722 64.1431 70.0142 61.4181 70.0142C56.6061 70.0142 57.2081 63.4542 59.0861 59.4762C59.6041 58.3802 61.3731 55.9922 62.7561 55.9922C63.2661 55.9922 63.6861 56.1542 64.2091 56.1542V56.1542Z" stroke="black" stroke-width="5.718" stroke-miterlimit="3.864" stroke-linejoin="round"/>
<path d="M64.1009 56.7328C63.5589 56.7328 63.0809 57.0008 62.8299 57.5348C62.3019 58.6538 64.9359 59.7848 64.5579 60.5858C64.3199 61.0898 63.4139 61.5618 62.9569 61.5618C60.6729 61.5618 60.6919 58.5898 62.0539 56.6538C61.2069 57.1938 60.6519 58.0168 60.2919 58.7808C58.9529 61.6158 60.0149 65.5158 63.0699 65.5158C64.7569 65.5158 66.7009 63.9988 67.4569 62.3988C68.3869 60.4308 66.0089 56.7328 64.1009 56.7328V56.7328Z" stroke="black" stroke-width="5.718" stroke-miterlimit="3.864" stroke-linejoin="round"/>
<path fill-rule="evenodd" clip-rule="evenodd" d="M79.8748 66.36C78.9738 68.268 77.2948 69.315 75.4048 69.315C69.4078 69.315 68.2178 63.846 70.8178 58.34C71.4308 57.04 72.4378 55.603 73.9768 55.603C78.7948 55.603 82.1508 61.536 79.8738 66.36H79.8748ZM75.0898 56.293C74.6468 56.293 74.2598 56.453 74.0468 56.903C73.5808 57.892 76.1188 58.773 76.1218 59.795C75.8568 60.109 75.1148 60.46 74.7918 60.46C72.9638 60.46 71.5838 57.982 73.1448 56.14C72.5108 56.543 72.1348 57.145 71.8678 57.71C70.2858 61.062 72.5408 64.45 75.8278 64.45C77.1958 64.45 78.9578 63.69 79.6688 62.184C80.6748 60.054 77.0928 56.294 75.0888 56.294" fill="black"/>
<path d="M79.8748 66.36C78.9738 68.268 77.2948 69.315 75.4048 69.315C69.4078 69.315 68.2178 63.846 70.8178 58.34C71.4308 57.04 72.4378 55.603 73.9768 55.603C78.7948 55.603 82.1508 61.536 79.8738 66.36H79.8748Z" stroke="black" stroke-width="5.718" stroke-miterlimit="3.864" stroke-linejoin="round"/>
<path d="M75.089 56.2941C74.647 56.2941 74.259 56.4541 74.046 56.9041C73.58 57.8921 76.118 58.7741 76.122 59.7961C75.857 60.1091 75.114 60.4611 74.791 60.4611C72.963 60.4611 71.583 57.9831 73.144 56.1411C72.511 56.5431 72.134 57.1451 71.867 57.7111C70.285 61.0631 72.541 64.4511 75.827 64.4511C77.195 64.4511 78.958 63.6911 79.669 62.1851C80.674 60.0551 77.093 56.2951 75.089 56.2951V56.2941Z" stroke="black" stroke-width="5.718" stroke-miterlimit="3.864" stroke-linejoin="round"/>
<path d="M86.0772 56.2622C91.2452 56.2622 93.8722 65.7462 91.5622 70.6382C91.1212 71.5732 90.2982 72.5082 89.2122 72.5082C83.3082 72.5082 84.8152 60.7712 81.4922 57.4362C81.7952 57.1132 82.0862 56.7762 82.3532 56.4362C84.5992 59.0712 83.4832 66.0082 88.2802 66.0082C89.3852 66.0082 90.2212 65.0412 90.6672 64.0962C91.8582 61.5732 89.6542 57.1902 87.2412 57.1902C87.2172 57.1902 86.8712 57.2042 86.8782 57.3442C86.9682 58.9552 88.2342 57.9512 86.9582 60.6922C85.6552 60.4322 84.2742 58.3392 84.9872 56.8292C85.1972 56.3852 85.7212 56.2622 86.0772 56.2622Z" fill="black"/>
<path d="M86.0772 56.2622C91.2452 56.2622 93.8722 65.7462 91.5622 70.6382C91.1212 71.5732 90.2982 72.5082 89.2122 72.5082C83.3082 72.5082 84.8152 60.7712 81.4922 57.4362C81.7952 57.1132 82.0862 56.7762 82.3532 56.4362C84.5992 59.0712 83.4832 66.0082 88.2802 66.0082C89.3852 66.0082 90.2212 65.0412 90.6672 64.0962C91.8582 61.5732 89.6542 57.1902 87.2412 57.1902C87.2172 57.1902 86.8712 57.2042 86.8782 57.3442C86.9682 58.9552 88.2342 57.9512 86.9582 60.6922C85.6552 60.4322 84.2742 58.3392 84.9872 56.8292C85.1972 56.3852 85.7212 56.2622 86.0772 56.2622V56.2622Z" stroke="black" stroke-width="5.718" stroke-miterlimit="3.864" stroke-linejoin="round"/>
<path fill-rule="evenodd" clip-rule="evenodd" d="M98.9272 56.1538C99.4142 56.1998 100.145 56.1558 100.563 56.2838C100.641 56.3068 100.582 56.4048 100.595 56.4828C100.722 57.1988 100.922 57.8788 101.095 58.5718C101.768 61.2698 102.173 64.0398 102.945 66.7138C103.786 69.6258 104.663 72.9078 103.645 76.5618C103.545 76.9188 103.412 77.2818 103.24 77.6468C102.086 80.0918 99.1202 82.4188 96.5242 82.4188C96.2092 82.4188 95.8692 82.3288 95.7182 82.1248C96.8142 81.4288 97.4982 80.7148 97.9882 79.6788C98.5752 78.4358 98.5662 77.2718 98.4882 76.2008C98.6962 76.3208 99.3612 76.6228 99.6382 76.6228C100.76 76.6228 101.723 75.5378 102.174 74.5828C103.001 72.8318 102.859 71.0438 102.716 69.5518C102.647 68.8139 102.543 68.0797 102.404 67.3518L102.194 66.3158L102.167 66.2028L102.141 66.0888C102.267 66.0888 102.154 66.3088 102.159 66.4198C102.236 68.2258 102.204 70.7478 101.233 72.8038C100.783 73.7588 100.045 74.7438 98.9132 74.7438C93.9502 74.7438 96.4462 60.6698 92.4692 57.3238C92.6892 56.9608 92.8862 56.5858 93.0512 56.2188C95.4052 59.0608 95.5282 66.8958 98.9912 66.8958C99.8322 66.8958 100.701 66.1078 101.058 65.3508C102.598 62.0908 100.041 58.2938 98.9282 56.1538" fill="black"/>
<path d="M98.9272 56.1538C99.4142 56.1998 100.145 56.1558 100.563 56.2838C100.641 56.3068 100.582 56.4048 100.595 56.4828C100.722 57.1988 100.922 57.8788 101.095 58.5718C101.768 61.2698 102.173 64.0398 102.945 66.7138C103.786 69.6258 104.663 72.9078 103.645 76.5618C103.545 76.9188 103.412 77.2818 103.24 77.6468C102.086 80.0918 99.1202 82.4188 96.5242 82.4188C96.2092 82.4188 95.8692 82.3288 95.7182 82.1248C96.8142 81.4288 97.4982 80.7148 97.9882 79.6788C98.5752 78.4358 98.5662 77.2718 98.4882 76.2008C98.6962 76.3208 99.3612 76.6228 99.6382 76.6228C100.76 76.6228 101.723 75.5378 102.174 74.5828C103.001 72.8318 102.859 71.0438 102.716 69.5518C102.647 68.8139 102.543 68.0797 102.404 67.3518L102.194 66.3158L102.167 66.2028L102.141 66.0888C102.267 66.0888 102.154 66.3088 102.159 66.4198C102.236 68.2258 102.204 70.7478 101.233 72.8038C100.783 73.7588 100.045 74.7438 98.9132 74.7438C93.9502 74.7438 96.4462 60.6698 92.4692 57.3238C92.6892 56.9608 92.8862 56.5858 93.0512 56.2188C95.4052 59.0608 95.5282 66.8958 98.9912 66.8958C99.8322 66.8958 100.701 66.1078 101.058 65.3508C102.598 62.0908 100.041 58.2938 98.9282 56.1538H98.9272Z" stroke="black" stroke-width="5.718" stroke-miterlimit="3.864" stroke-linejoin="round"/>
<path d="M37.8039 44.6602C41.2169 44.6602 39.2279 53.1882 38.0139 55.7602C36.9739 57.9612 34.6339 61.1372 31.8609 61.1372C28.5339 61.1372 28.6329 57.4102 29.9569 54.6052C30.6739 53.0852 31.7769 51.3832 33.2949 50.1312C32.9049 51.4382 34.2199 52.3312 33.6879 53.4562C33.3249 54.2252 32.5739 55.0652 32.1839 55.8922C31.5529 57.2292 31.7939 59.6022 33.3189 59.6022C34.6839 59.6022 35.8969 57.9102 36.3939 56.8572C37.4129 54.6992 39.9599 45.4912 37.1129 45.4912C33.8329 45.4912 28.1829 53.4812 26.9999 55.9882C24.8879 60.4622 26.4199 65.9722 31.2309 65.9722C34.4829 65.9722 37.1569 62.8462 38.4489 60.1102C39.1638 58.6033 39.6211 56.9872 39.8019 55.3292L40.4339 55.2132C40.5729 59.4232 45.0259 66.3932 43.1309 70.4092C40.7039 75.5492 33.4499 75.5032 29.3069 77.3272C28.4369 75.2902 27.2569 73.3972 25.5959 71.9512C29.2909 70.7082 38.3709 68.6212 40.3459 64.4392C41.1759 62.6812 40.6099 59.7682 39.6519 58.7802C39.4809 59.43 39.2503 60.0627 38.9629 60.6702C37.2729 64.2502 33.6529 67.0272 29.9219 67.0272C24.7259 67.0272 22.5239 63.2942 24.9689 58.1142C26.4359 55.0052 33.9289 44.6592 37.8039 44.6592M46.6809 57.0022C46.8869 57.5102 47.4839 60.3822 47.9369 60.3822C48.9159 60.3822 50.6849 57.7192 51.1589 57.0272C52.0289 57.5972 51.5469 58.7942 53.1589 58.7942C53.8889 58.7942 54.2569 57.2212 55.0169 57.1952C55.0429 57.8312 55.0839 58.4062 54.7369 59.1412C54.2029 60.2732 52.8509 61.8072 51.5219 61.8072C50.5689 61.8072 49.2429 60.6612 48.9819 60.6612C48.6999 60.6612 48.1799 60.7932 48.0149 61.1442C47.3219 62.6112 49.1729 67.5072 51.0289 67.5072C52.0209 67.5072 53.2039 66.7792 54.2419 66.3312C53.9719 68.0952 53.9339 69.5822 54.2919 71.1012C53.4077 71.6488 52.39 71.9428 51.3499 71.9512C46.7899 71.9512 49.3049 61.3462 45.0999 59.0862L46.6799 57.0022" fill="white"/>
<path fill-rule="evenodd" clip-rule="evenodd" d="M64.2091 56.154C67.6561 56.154 69.0171 62.354 67.4701 65.63C66.2701 68.172 64.1431 70.014 61.4181 70.014C56.6061 70.014 57.2081 63.454 59.0861 59.476C59.6041 58.38 61.3731 55.992 62.7561 55.992C63.2661 55.992 63.6861 56.154 64.2091 56.154ZM64.1021 56.733C63.5601 56.733 63.0821 57.001 62.8321 57.535C62.3021 58.653 64.9371 59.785 64.5591 60.586C64.3211 61.09 63.4151 61.562 62.9581 61.562C60.6741 61.562 60.6931 58.59 62.0551 56.654C61.2081 57.193 60.6531 58.017 60.2931 58.781C58.9551 61.616 60.0171 65.515 63.0711 65.515C64.7591 65.515 66.7021 63.999 67.4581 62.398C68.3881 60.43 66.0101 56.733 64.1021 56.733ZM79.8751 66.36C78.9741 68.268 77.2951 69.315 75.4051 69.315C69.4081 69.315 68.2181 63.846 70.8181 58.34C71.4311 57.04 72.4381 55.603 73.9771 55.603C78.7951 55.603 82.1511 61.536 79.8741 66.36H79.8751ZM75.0901 56.293C74.6471 56.293 74.2601 56.453 74.0471 56.903C73.5811 57.892 76.1191 58.773 76.1221 59.795C75.8571 60.109 75.1151 60.46 74.7921 60.46C72.9641 60.46 71.5841 57.982 73.1451 56.14C72.5111 56.543 72.1351 57.145 71.8681 57.71C70.2861 61.062 72.5411 64.45 75.8281 64.45C77.1961 64.45 78.9581 63.69 79.6691 62.184C80.6751 60.054 77.0931 56.294 75.0891 56.294" fill="white"/>
<path d="M86.0767 56.2622C91.2447 56.2622 93.8717 65.7462 91.5617 70.6382C91.1207 71.5732 90.2977 72.5082 89.2117 72.5082C83.3077 72.5082 84.8147 60.7712 81.4917 57.4362C81.7947 57.1132 82.0857 56.7762 82.3527 56.4362C84.5987 59.0712 83.4827 66.0082 88.2797 66.0082C89.3847 66.0082 90.2207 65.0412 90.6667 64.0962C91.8577 61.5732 89.6537 57.1902 87.2407 57.1902C87.2167 57.1902 86.8707 57.2042 86.8777 57.3442C86.9677 58.9552 88.2337 57.9512 86.9577 60.6922C85.6547 60.4322 84.2737 58.3392 84.9867 56.8292C85.1967 56.3852 85.7207 56.2622 86.0767 56.2622Z" fill="white"/>
<path fill-rule="evenodd" clip-rule="evenodd" d="M98.927 56.1543C99.414 56.2003 100.145 56.1563 100.563 56.2843C100.641 56.3073 100.582 56.4053 100.595 56.4833C100.722 57.1993 100.922 57.8793 101.095 58.5723C101.768 61.2703 102.173 64.0403 102.945 66.7143C103.786 69.6263 104.663 72.9083 103.645 76.5623C103.545 76.9193 103.412 77.2823 103.24 77.6473C99.37 85.0793 91.089 83.0773 88.495 83.0773C88.18 83.0773 87.839 82.9873 87.689 82.7823C88.783 82.0863 89.469 81.3723 89.959 80.3363C90.545 79.0933 90.536 77.9303 90.459 76.8583C90.666 76.9793 91.331 77.2803 91.607 77.2803C92.73 77.2803 98.985 80.4943 102.174 74.5843C103.001 72.8323 102.859 71.0443 102.716 69.5523C102.647 68.8144 102.543 68.0802 102.404 67.3523L102.194 66.3163L102.167 66.2033L102.141 66.0903C102.267 66.0903 102.154 66.3103 102.159 66.4203C102.236 68.2273 102.204 70.7483 101.233 72.8043C100.783 73.7593 100.045 74.7443 98.913 74.7443C93.95 74.7443 96.446 60.6703 92.469 57.3243C92.689 56.9613 92.886 56.5863 93.051 56.2193C95.405 59.0613 95.528 66.8963 98.991 66.8963C99.832 66.8963 100.701 66.1093 101.059 65.3513C102.597 62.0913 100.041 58.2953 98.927 56.1543Z" fill="white"/>
</svg>
