<svg width="128" height="128" viewBox="0 0 128 128" fill="none" xmlns="http://www.w3.org/2000/svg">
<path fill-rule="evenodd" clip-rule="evenodd" d="M99.463 67.214C102.347 65.547 105.336 63.897 107.789 61.692C111.868 58.026 111.313 52.67 106.977 49.329C106.171 48.708 105.158 47.908 104.959 47.028C104.168 43.522 103.479 39.974 105.877 36.661C106.652 35.59 107.115 34.232 107.485 32.939C108.627 28.943 106.795 25.576 102.858 24.284C102.159 24.055 101.42 23.925 100.689 23.822C99.702 23.683 99.21 23.241 99.068 22.175C98.539 18.24 99.552 16.087 103.222 14.434C105.136 13.571 107.226 13.095 109.242 12.442C106.374 7.561 98.362 4.774 91.668 6.582C86.277 8.038 82.495 11.564 78.9561 15.56C78.5811 15.983 77.763 16.242 77.173 16.206C75.455 16.098 75.5131 14.735 75.7711 13.596C76.3081 11.227 77.0251 8.899 77.6931 6.466C74.6011 6.557 72.2561 8.244 69.9381 10.087C69.7821 9.841 69.669 10.135 69.604 9.98C68.45 7.225 68.716 5 69.208 2H68.834C64.606 4 60.697 6.022 59.826 11.325L59.16 11.027C58.7131 8.93 58.266 6.727 57.766 4.381C53.941 6.974 51.836 10.279 51.257 14.642C51.177 15.244 50.835 15.784 50.614 16.367C50.033 16.046 49.3001 15.842 48.8931 15.369C44.9121 10.745 40.41 7.094 34.086 6.125C28.475 5.266 21.5481 8 18.9291 12.349C21.2411 13.227 23.681 13.916 25.89 15.056C28.542 16.423 29.429 18.674 29.146 21.203C28.941 23.029 28.21 23.754 26.319 23.996C22.159 24.529 19.7341 27.807 20.3321 31.934C20.5401 33.368 20.9631 34.99 21.8491 36.061C23.9071 38.551 23.6831 41.361 23.6241 44.206C23.5781 46.43 22.786 48.182 20.864 49.568C16.7171 52.559 16.2181 58.045 20.0231 61.481C22.5161 63.733 25.5351 65.451 28.4571 67.171C30.626 68.449 32.071 70.221 32.182 72.59C32.367 76.485 32.147 80.402 32.024 84.307C31.975 85.875 31.731 87.436 31.543 89.346C28.182 86.312 26.3751 82.886 25.4431 78.717C21.8731 82.268 20.348 86.349 20.147 91.071C19.788 99.517 23.404 105.545 31.012 109.072C31.658 109.371 32.232 110.051 32.598 110.692C35.783 116.264 40.334 119.974 46.7071 121.287C47.424 121.435 48.2731 121.455 48.8161 121.862C52.3061 124.472 56.2811 125.737 60.541 126.116C66.9771 126.689 73.175 126.005 78.699 122.218C79.236 121.849 79.8871 121.546 80.5241 121.438C87.16 120.312 91.9201 116.619 95.313 110.913C95.833 110.039 96.729 109.225 97.644 108.78C101.462 106.924 104.493 104.333 106.207 100.369C107.931 96.382 108.382 92.206 107.575 87.981C106.909 84.491 105.465 81.309 102.533 78.797C101.629 82.966 99.801 86.378 96.403 89.035C96.003 83.441 95.689 77.872 95.854 72.318C95.917 70.182 97.39 68.412 99.463 67.214ZM101.838 11.379C100.693 11.585 99.545 11.982 98.402 11.965C93.012 11.889 89.11 14.46 86.056 18.649L85.642 19.257L85.33 19.503L82.817 18.297C86.94 10.745 95.215 7.662 101.838 11.379ZM96.201 14.98C95.79 17.357 95.386 19.641 95.001 21.928C94.821 23.002 94.61 23.961 93.298 24.286C92.054 24.595 91.287 24.376 90.29 23.39C88.981 22.097 89.1021 21.086 89.842 19.696C91.2661 17.015 93.245 15.21 96.201 14.98ZM26.264 11.209C32.7351 7.716 40.7131 10.555 45.2611 18.247L42.647 19.565L43.3181 18.682C41.5511 17.32 39.792 15.949 38.015 14.599C35.554 12.728 32.755 11.978 29.682 11.965C28.531 11.959 27.381 11.595 26.264 11.209ZM38.746 21.313C38.803 22.357 37.46 23.87 36.375 24.434C35.7561 24.755 34.036 23.844 33.417 23.03C32.781 22.194 32.869 20.8 32.668 19.646C32.53 18.858 32.495 18.047 32.309 17.272C32.137 16.561 31.8251 15.883 31.5331 15.078C34.9001 15.171 38.571 18.126 38.746 21.313ZM26.0091 100.518C23.0241 96.071 23.189 91.118 24.465 86.055C27.944 94.019 34.9081 95.953 42.8391 96.82C40.174 99.88 37.8671 102.905 39.709 107.257C34.009 106.858 29.1621 105.211 26.0091 100.518ZM43.292 116.853L36.5961 111.108C41.753 109.766 42.2921 113.614 43.8231 116.282L43.292 116.853ZM69.0211 122.298C56.4171 124.727 46.5321 118.996 42.7961 105.527C41.8391 102.079 43.9 99.823 47.836 99.774C53.243 99.706 58.652 99.756 64.061 99.756C69.284 99.751 74.505 99.745 79.727 99.759C80.341 99.761 80.972 99.803 81.566 99.947C84.8381 100.744 86.126 102.449 85.182 105.648C82.729 113.972 78.1731 120.534 69.0211 122.298ZM84.004 116.737C84.944 114.842 85.627 113.284 86.491 111.834C86.746 111.407 87.4911 111.164 88.053 111.054C89.0061 110.867 89.991 110.855 91.112 110.756C89.407 113.446 87.176 115.315 84.004 116.737ZM103.422 85.833C106.94 97.629 100.409 106.899 88.426 107.071C90.0591 102.957 87.987 99.921 85.133 96.849C93.0331 95.929 100.041 94.063 103.422 85.833ZM92.044 73.435C92.023 78.403 92.331 83.379 92.664 88.34C92.8801 91.569 92.958 91.778 89.805 92.46C87.943 92.861 85.995 92.987 84.088 92.984C83.574 92.983 82.845 92.151 82.585 91.542C80.564 86.816 78.6371 82.049 76.667 77.3C76.4361 76.743 76.115 76.222 75.835 75.685L75.228 76.153C77.08 83.067 78.932 91 80.736 97H47.299C49.0861 91 50.93 83.14 52.7751 76.243L52.043 75.865C50.931 78.39 49.774 80.827 48.717 83.375C47.5606 86.1712 46.4495 88.9859 45.384 91.818C45.032 92.75 44.5681 93.246 43.486 93.077C41.351 92.745 39.2081 92.463 37.0661 92.179C35.3881 91.957 35.154 90.962 35.25 89.428C35.58 84.155 35.872 78.872 35.946 73.592C36.004 69.36 34.155 66.101 30.299 64.034C28.118 62.865 25.925 61.631 24 60.096C20.9 57.628 21.14 53.512 24.41 51.672L24.185 54.119C27.487 50.137 29.151 41.939 26.779 34.108L26.5161 36.345L25.924 36.536C25.19 34.637 24.192 32.79 23.795 30.824C23.411 28.918 25.548 27.389 28.1761 27.29C32.942 27.11 37.442 28.251 41.545 30.542C45.753 32.89 49.751 35.618 53.6161 38.04C52.8671 35.35 49.5731 32.169 40.924 26.039C50.441 16.118 77.708 16.2 87.183 26.14C81.691 28.945 77.2311 32.839 74.3141 38.414C75.7241 37.388 77.123 36.347 78.546 35.34C83.846 31.595 89.385 28.307 95.97 27.484C97.898 27.243 99.951 27.353 101.854 27.752C103.886 28.177 104.7 29.943 104.023 31.933C103.499 33.476 102.71 34.93 102.038 36.424L101.554 36.325L101.168 34.145C99.313 41.428 99.847 48.011 103.888 54.13L103.554 51.741C106.101 52.83 107.066 56.022 105.398 58.411C104.471 59.738 103.067 60.783 101.734 61.757C100.491 62.666 99.085 63.37 97.701 64.068C93.838 66.012 92.063 69.329 92.044 73.435ZM88.793 43.596C84.135 44.875 80.442 47.628 77.267 51.151C75.789 52.792 74.0441 53.918 71.8161 54.023C70.7511 54.073 69.6701 53.806 68.5521 53.678C68.972 56.701 71.1 57.691 73.086 58.138L76.3141 65.645L76.892 65.383C76.314 62.955 75.826 60.534 77.283 58.145C80.854 60.68 84.44 60.064 88.045 58.303C91.914 56.411 93.13 52.824 94.104 48.998L94.817 51.761C96.331 49.218 96.606 46.851 94.576 44.471L97.173 43.426C94.153 42.66 91.471 42.86 88.793 43.596ZM87.732 55.188C85.432 57.469 81.653 57.807 78.209 55.892C81.034 51.987 84.869 49.518 88.796 47.12C89.995 49.388 89.411 53.522 87.732 55.188ZM50.473 50.881C47.678 47.712 44.3351 45.264 40.2901 43.908C37.2751 42.897 34.206 42.519 30.8 43.469L33.4361 44.42C31.5071 46.759 31.7381 49.12 33.1361 51.808L33.975 48.912C34.761 52.899 36.036 56.358 39.828 58.277C43.434 60.102 46 60.696 51 57.805V65.21C51 65.264 51.544 65.319 51.758 65.373C52.731 63.043 53.76 60.714 54.828 58.155C58.1721 57.054 59.2331 56.042 59.2491 53.564C55.69 54.706 52.884 53.616 50.473 50.881ZM40.6301 55.484C38.7071 53.929 37.952 49.972 39.125 47.054C43.1791 49.569 47.043 51.991 49.729 55.876C46.788 57.741 43.194 57.557 40.6301 55.484ZM70.4431 42.805C66.043 45.099 61.958 45.076 57.569 42.809C62.355 48.137 65.534 48.32 70.4431 42.805ZM79.3441 103.504C77.9801 103.441 76 103.491 75 103.491V104H71.5251L71.2731 103.75C69.4601 103.877 68.773 104.785 69.616 106.312C70.448 107.82 71.4091 109.304 72.6471 110.455C73.4261 111.178 74.9121 111.557 75.9951 111.433C78.9271 111.098 80.1761 108.702 81.3421 106.354C82.1351 104.761 81.1851 103.587 79.3441 103.504ZM56.822 103.516C55.401 103.424 53.969 103.497 52.543 103.497C51.1171 103.497 49.687 103.435 48.264 103.516C46.991 103.588 46.154 104.181 46.35 105.653C46.612 107.614 49.5261 110.861 51.4691 111.373C53.1201 111.808 54.584 111.513 55.647 110.148C56.6301 108.884 57.573 107.565 58.343 106.165C59.156 104.689 58.513 103.625 56.822 103.516Z" fill="#FCAA1A"/>
</svg>
