<svg width="128" height="128" viewBox="0 0 128 128" fill="none" xmlns="http://www.w3.org/2000/svg">
<path fill-rule="evenodd" clip-rule="evenodd" d="M95.8288 88.9142C99.4138 86.2452 101.253 82.8692 102.107 78.6902C106.265 82.8022 107.73 87.6382 107.387 93.1002C106.922 100.507 103.52 105.905 96.4958 108.805C95.9458 109.033 95.4498 109.632 95.1468 110.18C91.8548 116.145 87.0118 119.92 80.1868 120.999C79.6148 121.089 79.0438 121.415 78.5518 121.748C70.4358 127.225 57.5348 127.205 49.3768 121.71C48.8248 121.341 48.2024 121.09 47.5488 120.972C41.4118 119.911 36.7498 116.674 33.5948 111.361C32.6778 109.815 31.6118 108.775 29.9538 108.018C18.1088 102.612 18.3108 85.0862 25.7208 78.9802C26.4438 80.7652 27.0018 82.6402 27.9358 84.3062C28.8778 85.9872 30.1918 87.4592 31.3428 89.0232L31.9068 88.8692C32.1018 86.9102 32.3618 84.9552 32.4748 82.9922C32.6338 80.2282 32.7548 77.4572 32.7628 74.6882C32.7728 71.3082 31.5088 68.6762 28.3168 67.0322C25.9798 65.8282 23.6468 64.4952 21.6128 62.8482C16.6408 58.8222 16.7668 53.3952 21.7928 49.5012C22.9998 48.5672 23.7158 47.5002 23.8568 45.9902C24.1538 42.8082 24.6538 39.6352 22.3748 36.8292C21.7428 36.0512 21.4248 34.9712 21.1228 33.9802C19.6508 29.1632 22.0208 25.3232 27.0128 24.5402C28.4518 24.3142 29.2348 23.9422 29.4068 22.2672C29.7138 19.2822 29.0728 17.2322 26.3228 15.7942C24.1338 14.6482 21.6928 13.9822 19.2758 13.0692C22.0998 9.01123 26.2998 7.16123 31.2218 6.86423C37.7298 6.47023 42.8318 9.44123 47.1728 13.9982C47.8938 14.7542 48.4968 15.6282 49.2558 16.3402C49.6308 16.6932 50.2488 16.9852 50.7278 16.9462C50.9768 16.9252 51.3118 16.1372 51.3518 15.6752C51.6778 11.8542 53.4038 8.77023 56.2208 6.25623C56.7008 5.82823 57.3088 5.54323 57.8698 5.18423L59.2518 11.6562L59.8518 11.6502C60.8418 6.46523 64.3798 3.82323 69.0128 2.15723C68.9158 3.70923 68.6888 5.16323 68.7738 6.59823C68.8568 7.97323 69.2618 9.33023 69.5768 10.9572C72.2118 9.11923 74.5058 7.21123 77.5108 7.29023C76.8638 9.75223 76.1608 12.1492 75.6228 14.5832C75.3468 15.8322 75.6918 17.0162 77.2808 16.9832C77.8618 16.9712 78.5788 16.5182 78.9818 16.0492C82.4058 12.0702 86.2018 8.66623 91.4838 7.35723C98.2208 5.68723 105.002 7.94723 108.84 13.3102C108.111 13.4892 107.425 13.6022 106.778 13.8282C105.107 14.4142 103.336 14.8432 101.818 15.7082C98.6018 17.5412 98.0868 19.2732 98.8568 23.3852C98.9268 23.7562 99.5168 24.1472 99.9468 24.3052C100.63 24.5552 101.399 24.5612 102.102 24.7692C106.209 25.9782 108.171 29.3802 106.998 33.4862C106.57 34.9592 105.939 36.3651 105.122 37.6632C103.033 40.9882 103.808 44.4132 104.664 47.8032C104.854 48.5542 105.851 49.1512 106.56 49.7162C110.89 53.1672 111.307 58.4302 107.149 62.1122C104.836 64.1602 102.032 65.6972 99.3198 67.2382C96.8288 68.6532 95.3638 70.7212 95.3558 73.4462C95.3348 78.6012 95.6508 83.7572 95.8288 88.9142ZM77.9278 80.0422L77.9078 80.0572C77.8995 80.1104 77.9056 80.1648 77.9253 80.2149C77.9449 80.2649 77.9775 80.3089 78.0198 80.3422L78.3328 81.0922C79.4448 84.0112 80.5108 86.9492 81.6798 89.8442C83.0748 93.3012 82.1098 93.1732 86.5318 92.7742L90.1878 92.1052C92.1008 92.0682 92.5988 91.1132 92.4488 89.2512C92.0828 84.7252 91.9498 80.1802 91.6938 75.6442C91.3668 69.8612 93.6288 65.7352 99.0478 63.2822C101.016 62.3912 102.888 61.0212 104.416 59.4842C106.74 57.1452 106.079 53.5922 103.242 51.9652L102.998 53.9682C100.844 50.5982 100.22 47.1762 99.6568 43.7322L99.5988 41.8952C99.6412 41.8488 99.6669 41.7896 99.6718 41.7269C99.6767 41.6642 99.6605 41.6017 99.6258 41.5492L100.505 34.8922L100.845 34.9422L101.34 37.0272C102.051 35.7832 102.636 34.9232 103.058 33.9922C104.714 30.3282 103.224 27.8772 99.1548 27.9302C96.7288 27.9612 94.2538 28.3212 91.8988 28.9182C85.7518 30.4772 80.7118 34.1522 75.6938 37.8242C75.1928 38.1912 74.6678 38.5272 74.1538 38.8772L73.9158 38.5992L76.5198 34.8702L77.1608 34.1222C77.2032 34.0958 77.2395 34.0607 77.2673 34.0191C77.2951 33.9776 77.3136 33.9305 77.3218 33.8812L87.0588 26.0812L81.1388 22.9232L81.0588 22.9362L80.6298 22.6192C73.7928 19.4122 66.5218 18.7582 59.1888 19.6342C55.1678 20.1142 51.2678 21.6052 47.3128 22.6392C44.9838 23.5442 42.7688 24.6242 41.2588 26.2882L50.9908 34.1982L50.9868 34.1822L51.3378 34.6652L54.0778 38.6142C50.9848 36.8822 48.1948 34.9072 45.3238 33.0572C40.8778 30.1932 36.0558 28.2782 30.7388 27.9042C28.4878 27.7462 25.8268 27.4762 24.6568 29.8872C23.4458 32.3832 25.0958 34.5892 26.4868 36.6402C26.5388 36.7172 26.7008 36.7202 26.8808 36.7812L27.1058 34.8352C27.5548 35.7882 27.8318 36.7302 27.9418 37.6912C28.1578 39.5772 28.2818 41.4742 28.4448 43.3672C28.0778 45.1602 27.8378 46.9932 27.3078 48.7372C26.7668 50.5182 25.9418 52.2122 25.2408 53.9452L24.8418 53.7602L24.7268 51.9772C21.5268 53.9282 21.3428 57.9272 24.4178 60.3792C26.2758 61.8602 28.3988 63.0492 30.5108 64.1662C34.4838 66.2662 36.2898 69.6272 36.2268 73.9482C36.1558 78.9222 35.8548 83.8942 35.5688 88.8632C35.4148 91.5372 35.3348 91.5332 37.7648 92.1012L41.7728 92.7862C43.0478 92.6832 44.6918 93.8602 45.4668 91.9672C46.9968 88.2322 48.4048 84.4472 49.8628 80.6832C49.9249 80.5958 49.9568 80.4905 49.9538 80.3832L50.3248 79.5942L51.8088 76.7622L52.2518 76.9182C51.5888 83.5552 49.2508 89.8122 47.2588 96.3172C58.3678 96.3172 69.1738 96.3182 79.9788 96.3112C80.1528 96.3112 80.3258 96.2282 80.4418 96.1982L75.0408 75.7152L75.6488 75.5282L77.6618 79.5922L77.9278 80.0422ZM90.5858 110.651C86.5068 110.449 85.0878 111.649 84.1218 116.252C86.7798 114.841 89.1088 113.252 90.5578 110.627L90.6138 110.489L90.5858 110.651ZM102.438 87.0132C98.9418 94.1792 92.3148 95.8152 85.4188 96.6012L88.7098 102.878L88.1988 106.992C93.7238 106.65 98.5718 104.992 101.691 100.234C104.595 95.8022 104.468 90.9022 102.926 85.9132L102.438 87.0132ZM25.2138 86.4512C25.1938 86.3352 25.1918 86.1272 25.1498 86.1182C25.0238 86.0922 24.7668 86.1302 24.7618 86.1682C24.4998 88.2132 24.0238 90.2662 24.0588 92.3102C24.1808 99.4432 28.0318 104.314 34.9178 106.203C36.5008 106.637 38.1628 106.785 39.8558 107.077L39.2308 102.879L42.6258 96.5682C35.3238 95.8842 28.6908 93.8742 25.2138 86.4512ZM82.4338 111.363L82.8278 110.638C83.4148 109.297 84.1008 107.989 84.5718 106.609C86.0878 102.158 84.3778 99.7332 79.6688 99.5392C79.3619 99.5267 79.0549 99.5207 78.7478 99.5212C68.9188 99.5202 59.0898 99.5102 49.2618 99.5352C48.2898 99.5372 47.2968 99.6502 46.3508 99.8722C43.4328 100.557 42.2868 102.277 43.0558 105.16C43.5558 107.037 44.4438 108.811 45.1578 110.632L45.5278 111.31L45.8048 111.767C47.4038 113.834 48.6818 116.296 50.6588 117.896C57.1588 123.158 64.5988 123.592 72.2438 120.926C76.9588 119.281 80.3548 115.956 82.4348 111.364L82.4338 111.363ZM101.767 11.8362C94.4648 8.64423 86.9448 11.4382 82.6108 18.9582L85.1548 20.1932C88.4878 15.2412 93.1058 12.1702 98.8538 12.7592C99.6688 12.8432 100.555 12.2412 101.767 11.8362ZM26.7068 12.1472C27.7918 12.3522 28.8788 12.7422 29.9618 12.7282C33.2268 12.6842 36.1978 13.4662 38.6618 15.6392C40.2038 16.9982 41.5698 18.5572 43.0908 20.1052L45.4118 18.9142C41.5008 11.7362 33.4478 8.58223 26.7068 12.1472ZM95.8228 15.6952C95.5148 15.7432 94.9888 15.7802 94.4878 15.9142C91.8978 16.6072 90.3188 18.4312 89.3668 20.7982C89.0758 21.5212 88.9158 22.7052 89.3038 23.2082C90.1088 24.2522 90.8148 25.6852 92.8168 25.0082C94.1598 24.5542 94.5138 23.7782 94.7008 22.6562C95.0698 20.4422 95.4168 18.2242 95.8228 15.6952ZM32.1208 15.7962C32.4208 17.4942 32.7068 19.0972 32.9858 20.7002C33.1318 21.5432 33.2488 22.3902 33.4078 23.2302C33.7418 24.9822 35.4268 25.4442 36.4778 25.0922C37.5828 24.7222 38.9698 23.2912 39.0758 22.2092C39.3628 19.2842 35.2228 15.7792 32.1208 15.7962ZM37.3218 110.666C38.9438 113.076 41.0948 114.928 44.2378 116.343C42.5358 113.229 42.0048 109.496 37.3218 110.666Z" fill="#493310"/>
<path fill-rule="evenodd" clip-rule="evenodd" d="M28.4441 43.3688C28.2811 41.4748 28.1571 39.5788 27.9411 37.6928C27.8216 36.7013 27.5392 35.7363 27.1051 34.8368L26.8801 36.7828C26.7001 36.7218 26.5381 36.7198 26.4861 36.6418C25.0951 34.5908 23.4451 32.3848 24.6561 29.8888C25.8261 27.4778 28.4871 27.7478 30.7381 27.9058C36.0551 28.2808 40.8781 30.1958 45.3231 33.0588C48.1941 34.9088 50.9841 36.8838 54.0771 38.6158L51.3371 34.6668L50.9861 34.1848L50.9911 34.2008C50.3871 32.7658 49.8861 31.2778 49.1581 29.9088C47.9421 27.6198 46.2121 25.5028 47.3121 22.6408C51.2671 21.6058 55.1671 20.1158 59.1881 19.6358C66.5211 18.7598 73.7921 19.4138 80.6291 22.6218L81.0581 22.9378L81.1361 22.9258C81.2241 25.4498 80.2561 27.6008 78.9841 29.7228C78.2261 30.9878 77.8621 32.4878 77.3211 33.8828C77.3129 33.9321 77.2944 33.9791 77.2668 34.0208C77.2393 34.0625 77.2033 34.0979 77.1611 34.1248L76.5191 34.8718L73.9151 38.6008L74.1531 38.8788C74.6671 38.5288 75.1921 38.1928 75.6931 37.8258C80.7111 34.1538 85.7501 30.4778 91.8981 28.9198C94.2531 28.3228 96.7291 27.9628 99.1541 27.9318C103.223 27.8788 104.713 30.3298 103.057 33.9938C102.635 34.9258 102.05 35.7858 101.339 37.0288L100.844 34.9438L100.504 34.8938L99.6251 41.5508L99.5421 41.6528L99.5971 41.8978L99.6551 43.7348C99.4601 44.2578 99.0981 44.7798 99.0941 45.3038C99.0571 49.5618 99.4361 53.7258 102.702 57.4688C100.113 58.7848 97.8231 60.0518 95.4471 61.1288C93.2921 62.1068 91.0541 62.9808 90.2801 65.4618C89.6381 67.5218 89.2701 69.6668 88.7841 71.7558L87.5871 68.4358C87.2381 76.5308 87.6081 84.4548 90.1841 92.1078L86.5281 92.7768C84.0861 89.0628 81.6511 85.3448 79.1871 81.6458C79.0141 81.3868 78.6211 81.2748 78.3301 81.0948L78.0171 80.3448L78.1741 80.1228L77.9051 80.0598L77.9261 80.0448L77.6581 79.5968L75.6451 75.5328L75.0371 75.7198L80.4381 96.2028C80.3221 96.2328 80.1481 96.3158 79.9751 96.3158C69.1701 96.3228 58.3651 96.3218 47.2551 96.3218C49.2461 89.8158 51.5851 83.5598 52.2481 76.9228L51.8051 76.7668L50.3201 79.5988L49.9491 80.3878C49.9519 80.4949 49.9204 80.6 49.8591 80.6878C49.4991 80.9748 49.0401 81.1958 48.7941 81.5598C46.9891 84.2282 45.2169 86.9188 43.4781 89.6308C42.8351 90.6378 42.3341 91.7348 41.7691 92.7908L37.7611 92.1058C40.4561 84.4718 40.7911 76.5638 40.4341 68.5638L39.1661 71.8758C38.8951 66.4638 37.2841 62.3818 31.5691 60.7118C29.3901 60.0748 27.4961 58.4648 25.9261 57.5608C26.9051 55.0758 28.0181 53.2318 28.3091 51.2648C28.6951 48.6818 28.4301 46.0038 28.4441 43.3688ZM69.8721 43.7758L70.2431 43.3928L71.1471 42.3448C68.7991 42.5748 66.5131 42.9828 64.2291 42.9708C61.9251 42.9578 59.6221 42.5278 57.3191 42.2818L56.8391 42.1478L57.3191 42.2808L58.0551 43.7598C62.1611 48.4268 65.5911 48.5198 69.7211 44.0728C69.8011 43.9868 69.8401 43.8628 69.8981 43.7568L69.8721 43.7758ZM46.9711 68.5108L51.3751 65.7888C52.3641 63.8448 53.5441 61.9668 54.2571 59.9268C54.5971 58.9518 54.7821 58.4158 55.8431 58.1368C58.1721 57.5268 59.3691 55.9548 59.3101 53.9278L56.9771 54.2128C54.4811 52.7958 52.5901 50.8268 51.0551 48.3788C50.2011 47.0168 48.8721 45.9028 47.6121 44.8518C44.9271 42.6118 41.5651 42.1018 38.2801 42.0318C36.2621 41.9898 34.2231 42.9498 32.1941 43.4598C32.1321 43.5208 32.0641 43.5268 31.9901 43.4828L31.4551 43.7108L31.3521 43.8608C31.3431 43.9108 31.3691 44.0068 31.4021 44.0188C32.1321 44.2778 32.8651 44.5288 33.7261 44.8268C31.7691 47.2838 32.0151 49.6178 33.5101 52.1698L34.2861 49.4368L34.6601 49.4718L34.8491 51.4038L35.0961 52.2608L35.2401 52.8338C35.0371 59.0258 40.5741 63.4848 48.8071 63.3328L46.9761 68.5168L46.8921 68.6658L46.9711 68.5108ZM80.9661 68.5098L81.1121 68.5978L80.9601 68.5158L79.1941 63.2748C88.7891 64.2228 92.7261 57.6998 93.0721 51.7418L93.4511 49.4928L93.7631 49.5048L94.4831 52.1818C95.9331 49.6038 96.3061 47.2548 94.2771 44.8758L96.6851 43.9298L95.6831 43.5368C95.1931 43.2388 94.7241 42.7268 94.2111 42.6798C91.9991 42.4718 89.7641 42.2008 87.5581 42.3228C83.1761 42.5648 79.5691 44.4748 77.0981 48.1688C75.4551 50.6248 73.6851 52.8848 70.9611 54.2118L68.4381 53.9258C68.8411 56.3278 70.2101 57.5768 72.3151 58.2428C72.8131 58.4008 73.3171 58.9358 73.5621 59.4268C74.6141 61.5228 75.5711 63.6668 76.5621 65.7938L80.9661 68.5098Z" fill="#F5A900"/>
<path fill-rule="evenodd" clip-rule="evenodd" d="M45.1561 110.632C44.4421 108.812 43.5541 107.038 43.0541 105.16C42.2851 102.277 43.4311 100.557 46.3491 99.872C47.3035 99.65 48.2801 99.537 49.2601 99.535C59.0891 99.511 68.9181 99.52 78.7461 99.521C79.0531 99.521 79.3611 99.526 79.6671 99.539C84.3761 99.732 86.0861 102.158 84.5701 106.609C84.1001 107.989 83.4141 109.297 82.8261 110.638L82.4321 111.363L82.4311 111.365C81.1601 112.191 79.9231 113.076 78.6111 113.831C75.3121 115.724 71.7171 116.582 67.9511 117.034C62.8001 117.653 57.7751 117.261 52.9551 115.413C50.4701 114.46 48.1801 112.998 45.8021 111.767L45.5251 111.31L45.1561 110.632ZM80.5541 107.658L80.9591 106.93C82.0851 104.03 81.5811 103.244 78.5161 103.208C76.2401 103.183 73.9621 103.164 71.6861 103.214C69.4771 103.262 68.9861 103.976 69.5751 106.091C69.8411 107.195 69.9541 108.368 70.4051 109.391C71.5521 111.998 73.6261 113.453 75.4621 113.146C77.9611 112.729 80.2021 110.312 80.5651 107.643L80.5541 107.658ZM47.3731 107.656L47.3681 107.647C47.7851 110.419 49.4611 112.125 52.0381 112.96C53.8551 113.548 55.4541 112.728 56.3371 111.31C57.3011 109.761 57.7311 107.88 58.3941 106.143C59.0261 103.979 58.5801 103.287 56.3801 103.222C54.4151 103.163 52.4471 103.194 50.4801 103.21C46.2581 103.243 46.1761 103.345 46.9901 107.275L47.3731 107.656Z" fill="#F5A800"/>
<path fill-rule="evenodd" clip-rule="evenodd" d="M28.4441 43.3691C28.4301 46.0041 28.6951 48.6821 28.3121 51.2621C28.0201 53.2291 26.9071 55.0731 25.9291 57.5581C27.4991 58.4621 29.3931 60.0721 31.5721 60.7091C37.2861 62.3791 38.8981 66.4611 39.1691 71.8731L40.4371 68.5611C40.7931 76.5611 40.4581 84.4681 37.7641 92.1031C35.3341 91.5361 35.4141 91.5401 35.5681 88.8651C35.8551 83.8971 36.1551 78.9241 36.2261 73.9501C36.2891 69.6291 34.4831 66.2681 30.5101 64.1681C28.3981 63.0521 26.2761 61.8631 24.4171 60.3811C21.3421 57.9281 21.5261 53.9301 24.7261 51.9791L24.8411 53.7621L25.2401 53.9471C25.9411 52.2151 26.7661 50.5201 27.3071 48.7391C27.8371 46.9951 28.0771 45.1631 28.4441 43.3691ZM90.1871 92.1061C87.6111 84.4521 87.2411 76.5281 87.5901 68.4341L88.7871 71.7541C89.2721 69.6641 89.6411 67.5191 90.2831 65.4601C91.0571 62.9801 93.2951 62.1051 95.4501 61.1271C97.8251 60.0501 100.116 58.7841 102.705 57.4671C99.4391 53.7241 99.0601 49.5601 99.0971 45.3021C99.1011 44.7781 99.4631 44.2561 99.6581 43.7331C100.221 47.1771 100.845 50.6001 102.999 53.9691L103.243 51.9661C106.079 53.5931 106.741 57.1461 104.417 59.4851C102.89 61.0231 101.018 62.3921 99.0491 63.2831C93.6291 65.7361 91.3671 69.8621 91.6951 75.6451C91.9511 80.1811 92.0841 84.7261 92.4501 89.2521C92.5981 91.1141 92.1001 92.0691 90.1871 92.1061ZM103.319 54.1991L103.268 54.2971L103.345 54.3071L103.319 54.1991Z" fill="#E08700"/>
<path fill-rule="evenodd" clip-rule="evenodd" d="M45.8042 111.767C48.1822 112.998 50.4722 114.46 52.9572 115.413C57.7762 117.261 62.8022 117.653 67.9532 117.034C71.7192 116.582 75.3142 115.724 78.6132 113.831C79.9262 113.077 81.1622 112.191 82.4332 111.365C80.3532 115.957 76.9572 119.282 72.2422 120.927C64.5972 123.593 57.1572 123.158 50.6572 117.897C48.6812 116.296 47.4022 113.834 45.8042 111.767Z" fill="#E08600"/>
<path fill-rule="evenodd" clip-rule="evenodd" d="M25.2138 86.4512C28.6918 93.8742 35.3238 95.8842 42.6258 96.5692L39.2308 102.88C30.4958 102.166 24.8678 95.5702 25.2138 86.4512ZM88.7098 102.879C87.6136 100.786 86.5166 98.6941 85.4188 96.6022C92.3148 95.8152 98.9418 94.1792 102.438 87.0142C102.548 87.4682 102.767 87.9252 102.751 88.3752C102.493 95.8802 97.3458 102.2 88.7098 102.879Z" fill="white"/>
<path fill-rule="evenodd" clip-rule="evenodd" d="M25.214 86.4511C24.868 95.5701 30.496 102.165 39.231 102.879L39.856 107.077C38.162 106.785 36.501 106.637 34.918 106.203C28.032 104.315 24.181 99.4431 24.059 92.3101C24.024 90.2671 24.5 88.2141 24.762 86.1681C24.767 86.1291 25.024 86.0911 25.15 86.1181C25.192 86.1271 25.194 86.3351 25.214 86.4511ZM88.71 102.879C97.346 102.2 102.493 95.8801 102.752 88.3741C102.768 87.9241 102.548 87.4671 102.439 87.0131L102.927 85.9131C104.469 90.9021 104.596 95.8021 101.692 100.234C98.573 104.993 93.725 106.65 88.2 106.992L88.71 102.879Z" fill="#C7C6C6"/>
<path fill-rule="evenodd" clip-rule="evenodd" d="M101.767 11.8362C100.555 12.2412 99.669 12.8432 98.854 12.7592C93.106 12.1702 88.489 15.2412 85.155 20.1932L82.611 18.9582C86.945 11.4382 94.465 8.6442 101.767 11.8362ZM26.707 12.1472C33.448 8.5822 41.501 11.7362 45.412 18.9132L43.091 20.1042C41.57 18.5562 40.203 16.9982 38.662 15.6382C36.198 13.4662 33.227 12.6832 29.962 12.7272C28.879 12.7422 27.792 12.3522 26.707 12.1472Z" fill="#F0A500"/>
<path fill-rule="evenodd" clip-rule="evenodd" d="M95.8231 15.6948C95.4161 18.2238 95.0701 20.4418 94.7011 22.6558C94.5141 23.7778 94.1601 24.5538 92.8171 25.0078C90.8161 25.6848 90.1091 24.2518 89.3041 23.2078C88.9161 22.7048 89.0751 21.5208 89.3671 20.7978C90.3181 18.4308 91.8971 16.6068 94.4881 15.9138C94.9891 15.7798 95.5151 15.7428 95.8231 15.6948ZM32.1211 15.7958C35.2231 15.7788 39.3631 19.2828 39.0761 22.2098C38.9701 23.2918 37.5831 24.7228 36.4781 25.0928C35.4271 25.4448 33.7421 24.9828 33.4081 23.2308C33.2491 22.3908 33.1321 21.5428 32.9861 20.7008C32.7071 19.0968 32.4211 17.4938 32.1211 15.7958Z" fill="#DE8500"/>
<path fill-rule="evenodd" clip-rule="evenodd" d="M47.3128 22.6411C46.2128 25.5031 47.9428 27.6201 49.1588 29.9091C49.8858 31.2781 50.3878 32.7651 50.9918 34.2011L41.2598 26.2911C42.7678 24.6261 44.9828 23.5461 47.3128 22.6411Z" fill="#E08600"/>
<path fill-rule="evenodd" clip-rule="evenodd" d="M77.321 33.8828C77.862 32.4878 78.226 30.9878 78.984 29.7228C80.256 27.5998 81.224 25.4498 81.136 22.9258C83.137 23.9908 85.136 25.0568 87.058 26.0828L77.321 33.8828ZM78.333 81.0928C78.624 81.2728 79.017 81.3848 79.19 81.6438C81.654 85.3428 84.089 89.0608 86.531 92.7748C82.109 93.1738 83.074 93.3018 81.679 89.8448C80.511 86.9498 79.445 84.0118 78.333 81.0928ZM41.771 92.7868C42.337 91.7308 42.837 90.6338 43.48 89.6268C45.2193 86.915 46.9914 84.2245 48.796 81.5558C49.042 81.1918 49.501 80.9708 49.861 80.6838C48.402 84.4478 46.994 88.2328 45.465 91.9678C44.69 93.8608 43.046 92.6838 41.771 92.7868Z" fill="#DE8600"/>
<path fill-rule="evenodd" clip-rule="evenodd" d="M37.3218 110.666C42.0048 109.496 42.5358 113.229 44.2378 116.343C41.0948 114.927 38.9428 113.076 37.3218 110.666ZM90.5578 110.627C89.1088 113.251 86.7798 114.841 84.1218 116.252C85.0888 111.649 86.5078 110.449 90.5858 110.651L90.5578 110.627ZM90.5858 110.651L90.6128 110.488L90.5568 110.627L90.5858 110.651Z" fill="#ECA200"/>
<path fill-rule="evenodd" clip-rule="evenodd" d="M77.9079 80.0571L78.1769 80.1201L78.0199 80.3421C77.9776 80.3089 77.945 80.2649 77.9253 80.2148C77.9056 80.1647 77.8996 80.1103 77.9079 80.0571Z" fill="#DE8600"/>
<path fill-rule="evenodd" clip-rule="evenodd" d="M99.5989 41.8958L99.5439 41.6508L99.6269 41.5488C99.6616 41.6015 99.6777 41.6643 99.6726 41.7271C99.6675 41.79 99.6416 41.8494 99.5989 41.8958Z" fill="#E08700"/>
<path fill-rule="evenodd" clip-rule="evenodd" d="M76.563 65.7938C75.572 63.6678 74.615 61.5228 73.563 59.4268C73.318 58.9368 72.814 58.4008 72.316 58.2428C70.211 57.5758 68.842 56.3268 68.439 53.9258L70.962 54.2118C71.436 54.2448 71.92 54.3588 72.381 54.2968C74.588 53.9978 76.095 52.5998 77.562 51.0538C82.478 45.8698 88.245 42.6668 95.686 43.5378L96.688 43.9308L94.28 44.8768C96.308 47.2558 95.936 49.6048 94.486 52.1828L93.766 49.5058L93.454 49.4938L93.075 51.7438C92.017 54.2288 91.01 56.7378 88.429 58.1318C84.673 60.1598 80.902 61.0468 77.103 58.3518C75.48 60.8178 76.439 63.3328 76.563 65.7938ZM88.996 51.8538V47.2258C85.102 49.5178 81.778 51.7458 79.114 54.8398L78.015 56.1678C81.733 58.9558 89.004 57.1218 88.996 51.8538Z" fill="#49330E"/>
<path fill-rule="evenodd" clip-rule="evenodd" d="M35.2392 52.833L35.0952 52.26L34.8482 51.403L34.6592 49.471L34.2852 49.436L33.5092 52.169C32.0142 49.617 31.7682 47.283 33.7252 44.826C32.8642 44.529 32.1312 44.278 31.4012 44.018C31.3682 44.006 31.3412 43.91 31.3512 43.86L31.4542 43.71L31.9892 43.482C32.0622 43.526 32.1312 43.52 32.1932 43.459C34.9792 43.765 37.8522 43.745 40.5322 44.452C44.7412 45.563 47.9912 48.352 50.8992 51.533C52.5162 53.301 54.3742 54.628 56.9762 54.212L59.3092 53.927C59.3682 55.955 58.1712 57.526 55.8422 58.136C54.7812 58.415 54.5962 58.951 54.2562 59.926C53.5432 61.967 52.3632 63.844 51.3742 65.787C51.6212 63.297 52.4682 60.761 50.8322 58.314C48.8522 59.793 46.6932 60.335 44.3582 59.916C40.1002 59.15 36.9472 56.91 35.2392 52.833ZM48.8512 54.806C46.1852 51.721 42.8692 49.489 38.9792 47.223V51.848C39.0412 57.228 46.3882 58.934 49.9042 56.213C49.7992 56.02 49.7112 55.797 49.5702 55.616C49.3492 55.331 49.0922 55.074 48.8512 54.806Z" fill="#49330F"/>
<path fill-rule="evenodd" clip-rule="evenodd" d="M76.5628 65.7942C76.4388 63.3322 75.4798 60.8182 77.1018 58.3512C80.9008 61.0452 84.6718 60.1592 88.4278 58.1312C91.0088 56.7362 92.0158 54.2282 93.0738 51.7432C92.7278 57.7002 88.7898 64.2232 79.1958 63.2752L80.9618 68.5162L80.9668 68.5102L76.5628 65.7942ZM35.2388 52.8332C36.9468 56.9102 40.0988 59.1502 44.3588 59.9162C46.6938 60.3362 48.8528 59.7932 50.8328 58.3142C52.4678 60.7612 51.6208 63.2972 51.3748 65.7872L46.9708 68.5112L46.9758 68.5162L48.8068 63.3322C40.5738 63.4842 35.0358 59.0252 35.2388 52.8332Z" fill="#E08700"/>
<path fill-rule="evenodd" clip-rule="evenodd" d="M56.9768 54.2122C54.3748 54.6282 52.5168 53.3012 50.8998 51.5332C47.9918 48.3522 44.7418 45.5632 40.5328 44.4522C37.8528 43.7442 34.9798 43.7642 32.1938 43.4592C34.2228 42.9492 36.2618 41.9882 38.2788 42.0312C41.5638 42.1012 44.9258 42.6112 47.6108 44.8512C48.8718 45.9022 50.1998 47.0162 51.0538 48.3782C52.5898 50.8262 54.4808 52.7952 56.9768 54.2122Z" fill="#DE8600"/>
<path fill-rule="evenodd" clip-rule="evenodd" d="M95.6839 43.5378C88.2439 42.6668 82.4759 45.8698 77.5599 51.0538C76.0939 52.5998 74.5859 53.9978 72.3789 54.2968C71.9179 54.3598 71.4339 54.2448 70.9599 54.2118C73.6839 52.8848 75.4549 50.6248 77.0969 48.1688C79.5679 44.4748 83.1749 42.5648 87.5569 42.3228C89.7639 42.2008 91.9979 42.4728 94.2099 42.6798C94.7249 42.7288 95.1939 43.2398 95.6839 43.5378ZM58.0539 43.7598L57.3179 42.2808V42.2818C59.6209 42.5288 61.9229 42.9578 64.2279 42.9708C66.5119 42.9828 68.7979 42.5748 71.1459 42.3448L70.2429 43.3928L69.8719 43.7758L69.8969 43.7548C67.5909 44.1428 65.2909 44.7748 62.9759 44.8348C61.3459 44.8788 59.6949 44.1458 58.0539 43.7598Z" fill="#DF8600"/>
<path fill-rule="evenodd" clip-rule="evenodd" d="M58.0542 43.7599C59.6952 44.1469 61.3462 44.8789 62.9752 44.8359C65.2902 44.7749 67.5902 44.1439 69.8962 43.7559C69.8382 43.8619 69.7992 43.9859 69.7192 44.0719C65.5902 48.5199 62.1612 48.4269 58.0542 43.7599Z" fill="#52380B"/>
<path fill-rule="evenodd" clip-rule="evenodd" d="M69.575 106.091C68.986 103.976 69.477 103.262 71.686 103.214C73.962 103.164 76.24 103.183 78.516 103.208C81.581 103.244 82.086 104.03 80.959 106.93L80.554 107.658L80.564 107.643C80.032 108.219 79.515 108.81 78.964 109.369C76.466 111.905 73.726 111.741 71.564 108.91C70.867 107.997 70.236 107.033 69.575 106.091Z" fill="#47310D"/>
<path fill-rule="evenodd" clip-rule="evenodd" d="M46.9901 107.274C46.1761 103.343 46.2581 103.241 50.4801 103.209C52.4471 103.193 54.4151 103.162 56.3801 103.221C58.5801 103.286 59.0261 103.979 58.3941 106.142C57.6481 107.19 56.9401 108.268 56.1481 109.281C54.2951 111.65 51.6641 111.799 49.4531 109.691C48.7491 109.02 48.0621 108.328 47.3671 107.647L47.3711 107.656L46.9901 107.274Z" fill="#47310E"/>
<path fill-rule="evenodd" clip-rule="evenodd" d="M47.3682 107.647C48.0632 108.329 48.7502 109.02 49.4542 109.691C51.6652 111.798 54.2962 111.65 56.1492 109.281C56.9412 108.268 57.6492 107.19 58.3952 106.142C57.7322 107.879 57.3032 109.76 56.3382 111.309C55.4542 112.727 53.8562 113.547 52.0392 112.959C49.4612 112.125 47.7852 110.419 47.3682 107.647Z" fill="#DC8400"/>
<path fill-rule="evenodd" clip-rule="evenodd" d="M69.5752 106.091C70.2362 107.032 70.8672 107.996 71.5642 108.91C73.7262 111.741 76.4662 111.905 78.9642 109.369C79.5152 108.81 80.0312 108.219 80.5642 107.643C80.2012 110.312 77.9602 112.729 75.4612 113.146C73.6262 113.453 71.5512 111.998 70.4042 109.391C69.9552 108.368 69.8412 107.195 69.5752 106.091Z" fill="#DE8500"/>
<path fill-rule="evenodd" clip-rule="evenodd" d="M103.319 54.1992L103.345 54.3072L103.268 54.2972L103.319 54.1992Z" fill="#493310"/>
<path fill-rule="evenodd" clip-rule="evenodd" d="M79.1138 54.841C81.7778 51.746 85.1028 49.5181 88.9958 47.2271V51.855C87.3898 53.902 85.5748 55.7301 82.7788 55.7271C81.5568 55.7241 80.3348 55.153 79.1138 54.841Z" fill="white"/>
<path fill-rule="evenodd" clip-rule="evenodd" d="M79.1141 54.841C80.3361 55.153 81.5571 55.724 82.7791 55.726C85.5751 55.73 87.3901 53.902 88.9961 51.854C89.0041 57.122 81.7331 58.956 78.0151 56.168L79.1141 54.841Z" fill="#C5C4C3"/>
<path fill-rule="evenodd" clip-rule="evenodd" d="M38.979 51.8472V47.2222C42.868 49.4892 46.185 51.7202 48.851 54.8052C47.315 56.1902 44.199 56.2332 41.949 54.6882C40.834 53.9232 39.961 52.8052 38.979 51.8472Z" fill="white"/>
<path fill-rule="evenodd" clip-rule="evenodd" d="M38.979 51.8472C39.961 52.8052 40.834 53.9242 41.949 54.6892C44.199 56.2342 47.315 56.1912 48.851 54.8062C49.093 55.0752 49.35 55.3312 49.57 55.6162C49.711 55.7972 49.799 56.0192 49.904 56.2132C46.388 58.9332 39.041 57.2272 38.979 51.8472Z" fill="#C5C4C3"/>
</svg>
