<svg width="128" height="128" viewBox="0 0 128 128" fill="none" xmlns="http://www.w3.org/2000/svg">
<path fill-rule="evenodd" clip-rule="evenodd" d="M99.317 67.2382C102.029 65.6972 104.834 64.1602 107.146 62.1122C111.304 58.4302 110.887 53.1672 106.557 49.7162C105.848 49.1522 104.851 48.5552 104.661 47.8032C103.805 44.4142 103.029 40.9882 105.119 37.6632C105.936 36.3651 106.567 34.9592 106.995 33.4862C108.169 29.3802 106.207 25.9782 102.099 24.7692C101.396 24.5612 100.627 24.5552 99.945 24.3052C99.514 24.1472 98.924 23.7562 98.855 23.3852C98.084 19.2732 98.6 17.5412 101.816 15.7082C103.334 14.8432 105.105 14.4142 106.776 13.8282C107.422 13.6012 108.109 13.4892 108.837 13.3102C105 7.94723 98.218 5.68723 91.482 7.35723C86.2 8.66623 82.404 12.0702 78.979 16.0492C78.577 16.5182 77.86 16.9712 77.279 16.9832C75.69 17.0162 75.344 15.8322 75.621 14.5832C76.159 12.1492 76.861 9.75223 77.509 7.29023C74.504 7.21123 72.21 9.11923 69.574 10.9572C69.26 9.33023 68.854 7.97323 68.771 6.59823C68.686 5.16323 68.913 3.70923 69.01 2.15723C64.378 3.82323 60.839 6.46623 59.849 11.6502L59.249 11.6562L57.866 5.18423C57.305 5.54223 56.697 5.82823 56.218 6.25623C53.401 8.77023 51.674 11.8542 51.349 15.6752C51.309 16.1382 50.974 16.9262 50.725 16.9462C50.246 16.9852 49.628 16.6932 49.253 16.3402C48.495 15.6282 47.891 14.7542 47.17 13.9982C42.83 9.44123 37.728 6.47123 31.22 6.86423C26.298 7.16023 22.098 9.01023 19.274 13.0692C21.692 13.9822 24.132 14.6482 26.322 15.7942C29.072 17.2322 29.713 19.2822 29.406 22.2672C29.234 23.9422 28.452 24.3152 27.011 24.5402C22.021 25.3232 19.651 29.1632 21.122 33.9802C21.425 34.9712 21.742 36.0512 22.374 36.8292C24.653 39.6352 24.153 42.8082 23.856 45.9902C23.714 47.5002 23 48.5672 21.793 49.5022C16.768 53.3962 16.642 58.8232 21.613 62.8492C23.647 64.4962 25.98 65.8292 28.317 67.0332C31.509 68.6772 32.773 71.3092 32.763 74.6892C32.754 77.4582 32.633 80.2292 32.475 82.9932C32.362 84.9562 32.101 86.9112 31.907 88.8702L31.343 89.0242C30.193 87.4612 28.878 85.9882 27.936 84.3072C27.002 82.6412 26.444 80.7652 25.721 78.9812C18.312 85.0872 18.11 102.613 29.954 108.019C31.611 108.776 32.678 109.815 33.596 111.362C36.749 116.675 41.412 119.912 47.549 120.973C48.2023 121.091 48.8243 121.342 49.376 121.711C57.534 127.205 70.435 127.226 78.552 121.749C79.044 121.416 79.615 121.09 80.187 121C87.012 119.92 91.855 116.146 95.147 110.181C95.45 109.633 95.946 109.034 96.497 108.806C103.52 105.906 106.923 100.508 107.388 93.1012C107.731 87.6402 106.266 82.8042 102.108 78.6912C101.254 82.8702 99.416 86.2462 95.83 88.9152C95.653 83.7592 95.336 78.6022 95.354 73.4482C95.362 70.7212 96.827 68.6532 99.317 67.2382ZM32.121 15.7962C35.224 15.7792 39.363 19.2832 39.076 22.2102C38.97 23.2922 37.583 24.7232 36.477 25.0932C35.426 25.4452 33.742 24.9832 33.408 23.2312C33.249 22.3912 33.133 21.5432 32.986 20.7012C32.707 19.0972 32.42 17.4942 32.121 15.7962ZM39.855 107.077C38.162 106.785 36.5 106.637 34.917 106.203C28.031 104.315 24.181 99.4432 24.059 92.3102C24.024 90.2672 24.5 88.2142 24.762 86.1682C24.767 86.1292 25.024 86.0912 25.15 86.1182C25.193 86.1262 25.195 86.3342 25.215 86.4512C28.692 93.8742 35.324 95.8842 42.626 96.5692L39.231 102.88L39.855 107.077ZM39 51.8472V47.2222C42 49.4892 46.195 51.7202 48.861 54.8052C49.102 55.0742 49.353 55.3302 49.573 55.6152C49.716 55.7962 49.811 56.0182 49.916 56.2122C46.401 58.9332 39 57.2272 39 51.8472ZM58.394 106.142C57.648 107.19 56.94 108.268 56.148 109.281C54.295 111.65 51.665 111.799 49.454 109.691C48.749 109.02 48.062 108.328 47.368 107.647L47.372 107.656L46.99 107.274C46.177 103.343 46.259 103.241 50.479 103.209C52.447 103.193 54.415 103.162 56.379 103.221C58.58 103.286 59.026 103.979 58.394 106.142ZM80.958 106.931L80.559 107.649L80.564 107.644L80.554 107.659L80.559 107.65C80.029 108.225 79.513 108.814 78.964 109.371C76.466 111.907 73.726 111.743 71.564 108.912C70.867 107.998 70.236 107.034 69.575 106.093C68.986 103.978 69.477 103.264 71.686 103.216C73.962 103.166 76.24 103.185 78.516 103.21C81.581 103.245 82.086 104.031 80.958 106.931ZM78.018 56.1682L79.117 54.8402C81.78 51.7462 85 49.5182 89 47.2272V51.8552C89 57.1222 81.734 58.9562 78.018 56.1682ZM102.438 87.0132L102.926 85.9132C104.468 90.9022 104.595 95.8022 101.691 100.234C98.572 104.993 93.724 106.65 88.199 106.992L88.71 102.878L85.42 96.6012C92.316 95.8152 98.942 94.1792 102.438 87.0132ZM94.701 22.6562C94.514 23.7782 94.16 24.5542 92.818 25.0082C90.816 25.6852 90.109 24.2522 89.304 23.2082C88.915 22.7052 89.075 21.5212 89.367 20.7982C90.318 18.4312 91.897 16.6072 94.488 15.9142C94.989 15.7812 95.515 15.7442 95.823 15.6952C95.417 18.2242 95.07 20.4422 94.701 22.6562Z" fill="#FCAA1A"/>
</svg>
