<svg width="128" height="128" viewBox="0 0 128 128" fill="none" xmlns="http://www.w3.org/2000/svg">
<path fill-rule="evenodd" clip-rule="evenodd" d="M92.462 53.2421C94.629 52.0101 96.87 50.7821 98.719 49.1451C102.042 46.203 101.709 41.996 98.248 39.238C97.682 38.787 96.885 38.3101 96.732 37.709C96.048 35.001 95.428 32.2621 97.098 29.6051C97.7513 28.5682 98.2562 27.445 98.598 26.2681C99.536 22.9861 97.968 20.2671 94.686 19.3001C94.123 19.1341 93.509 19.1291 92.963 18.9291C92.619 18.8031 92.148 18.4901 92.092 18.1941C91.477 14.9071 91.889 13.5231 94.459 12.0581C95.672 11.366 97.087 11.0231 98.423 10.5551C98.94 10.3741 99.488 10.284 100.07 10.1411C97.003 5.85405 91.583 4.04805 86.198 5.38305C81.976 6.42905 78.943 9.15005 76.206 12.3301C75.884 12.7051 75.311 13.067 74.847 13.0771C73.576 13.1031 73.301 12.1571 73.522 11.1591C73.952 9.21405 74.513 7.29805 75.031 5.33005C72.63 5.26705 70.796 6.79205 68.69 8.26005C68.438 6.95905 68.114 5.87505 68.048 4.77605C67.98 3.62905 68.16 2.46705 68.238 1.22705C64.536 2.55805 61.708 4.67005 60.917 8.81405L60.438 8.81905L59.333 3.64705C58.886 3.93305 58.399 4.16105 58.016 4.50305C55.765 6.51205 54.385 8.97705 54.124 12.0311C54.092 12.4011 53.824 13.0311 53.626 13.0471C53.243 13.0781 52.749 12.845 52.449 12.5631C51.843 11.9931 51.36 11.295 50.784 10.6901C47.315 7.04905 43.238 4.67405 38.036 4.98905C34.102 5.22605 30.745 6.70405 28.488 9.94805C30.421 10.6771 32.371 11.2091 34.121 12.1251C36.319 13.2751 36.831 14.9131 36.586 17.2991C36.449 18.6381 35.824 18.9361 34.673 19.1161C30.684 19.7411 28.79 22.8101 29.966 26.6611C30.208 27.4531 30.462 28.3161 30.967 28.9371C32.788 31.1801 32.389 33.716 32.152 36.259C32.039 37.466 31.467 38.319 30.503 39.0661C26.486 42.1781 26.386 46.5161 30.359 49.7331C31.985 51.049 33.85 52.114 35.717 53.077C38.269 54.391 39.279 56.494 39.271 59.195C39.264 61.4081 39.167 63.6231 39.041 65.8321C38.95 67.4011 38.742 68.9641 38.587 70.5301L38.136 70.6531C37.216 69.4031 36.166 68.2261 35.413 66.8831C34.667 65.5511 34.22 64.052 33.642 62.626C27.72 67.5061 27.559 81.5141 37.026 85.8341C38.35 86.4391 39.202 87.2701 39.935 88.5061C42.456 92.7521 46.183 95.3391 51.087 96.187C51.6092 96.2818 52.1064 96.4826 52.548 96.7771C59.069 101.168 69.379 101.185 75.865 96.8071C76.26 96.5411 76.715 96.2811 77.172 96.2081C82.627 95.3451 86.498 92.329 89.129 87.5611C89.371 87.123 89.768 86.6441 90.207 86.4621C95.821 84.1441 98.54 79.8301 98.912 73.9101C99.186 69.5451 98.015 65.6811 94.691 62.3931C94.008 65.733 92.54 68.4321 89.673 70.5651C89.531 66.4441 89.278 62.323 89.292 58.203C89.301 56.025 90.471 54.3731 92.462 53.2421ZM38.756 12.1281C41.235 12.1141 44.544 14.9151 44.315 17.2541C44.23 18.1181 43.122 19.2621 42.239 19.5581C41.399 19.8391 40.052 19.4701 39.785 18.0701C39.658 17.3981 39.565 16.7211 39.448 16.0481C39.224 14.7661 38.996 13.4851 38.756 12.1281ZM44.938 85.0831C43.584 84.8501 42.256 84.7311 40.991 84.3851C35.488 82.8761 32.41 78.9821 32.313 73.2811C32.285 71.648 32.666 70.0081 32.875 68.3721C32.879 68.3411 33.084 68.3111 33.185 68.3311C33.22 68.3381 33.221 68.5041 33.238 68.5971C36.016 74.5301 41.317 76.1361 47.153 76.6831L44.44 81.7261L44.938 85.0831ZM44 40.94V37.244C47 39.056 49.879 40.8391 52.008 43.305C52.201 43.5201 52.466 43.725 52.643 43.952C52.756 44.097 52.736 44.2741 52.821 44.4291C50.01 46.604 44 45.24 44 40.94ZM59.755 84.3351C59.158 85.173 58.593 86.0351 57.96 86.8441C56.48 88.7381 54.376 88.856 52.608 87.1721C52.045 86.635 51.497 86.0831 50.941 85.5381L50.945 85.5451L50.639 85.2401C49.99 82.0981 50.054 82.0161 53.428 81.9901C55 81.9771 56.574 81.9531 58.144 82.0001C59.903 82.0531 60.259 82.605 59.755 84.3351ZM77.789 84.965L77.47 85.5391L77.474 85.5351L77.466 85.5471L77.47 85.5391C77.046 85.9981 76.634 86.4691 76.196 86.9141C74.199 88.9411 72.009 88.8101 70.281 86.5471C69.723 85.817 69.22 85.0461 68.691 84.2941C68.22 82.604 68.613 82.0341 70.379 81.9951C72.198 81.9541 74.019 81.9701 75.838 81.9901C78.286 82.0191 78.69 82.648 77.789 84.965ZM75.329 44.3951L76.154 43.334C78.284 40.8601 80 39.0801 84 37.2481V40.947C84 45.157 78.301 46.6231 75.329 44.3951ZM94.956 69.0471L95.346 68.1681C96.578 72.1551 96.68 76.0721 94.36 79.6131C91.867 83.4171 87.993 84.7411 83.577 85.0151L83.985 81.7271L81.355 76.7101C86.865 76.0821 92.162 74.774 94.956 69.0471ZM88.772 17.6101C88.623 18.5061 88.339 19.1271 87.266 19.4901C85.666 20.0311 85.102 18.8861 84.458 18.0511C84.147 17.6491 84.275 16.7031 84.508 16.1251C85.269 14.2331 86.53 12.7751 88.601 12.2221C89.001 12.1161 89.422 12.0861 89.668 12.0471C89.345 14.0681 89.067 15.8411 88.772 17.6101ZM91.564 105.906H96.726V126.534C94.362 126.873 92.374 126.842 90.71 124.597C88.251 121.281 85.428 118.235 82.497 114.761V126.587H77.43V105.937C79.759 105.652 81.755 105.641 83.415 107.893C85.862 111.211 88.683 114.254 91.564 117.675V105.906ZM34.496 106.059C37.987 106.059 41.389 105.855 44.753 106.121C47.611 106.348 49.927 107.738 50.615 110.867C51.225 113.638 50.089 115.917 47.214 117.852L52.932 126.574C50.697 126.574 48.802 126.671 46.928 126.511C46.394 126.466 45.805 125.756 45.444 125.215C44.407 123.659 43.4296 122.065 42.514 120.435C41.985 119.496 41.35 118.997 40.109 119.359V126.577H34.496V106.059ZM40.146 115.231C41.881 115.307 43.668 115.613 44.637 113.996C45.065 113.28 45.075 111.826 44.616 111.166C43.565 109.655 41.791 110.05 40.147 110.108L40.146 115.231ZM25.202 119.68H22.383V115.627H30.628C30.628 118.431 30.656 121.189 30.595 123.944C30.587 124.328 30.223 124.88 29.874 125.055C25.085 127.46 20.227 127.843 15.499 125.014C11.799 122.8 10.116 118.483 10.954 114.122C11.778 109.836 14.84 106.767 19.222 105.913C22.821 105.211 26.291 105.505 29.481 107.491C29.968 107.795 30.388 108.208 30.91 108.627L28.4 112.309C27.421 111.794 26.576 111.307 25.696 110.894C21.824 109.075 17.826 110.646 16.84 114.356C15.593 119.041 18.445 122.724 23.136 122.49C25.444 122.375 25.576 122.206 25.202 119.68ZM67.632 105.886H73.121C73.209 105.995 73.321 106.07 73.321 106.143C73.304 110.672 73.482 115.214 73.19 119.726C72.944 123.524 69.88 126.163 65.593 126.787C63.054 127.157 60.576 126.852 58.302 125.544C55.904 124.165 54.476 122.029 54.34 119.329C54.141 115.394 54.258 111.443 54.242 107.5V105.936H59.872C59.893 106.386 59.934 106.859 59.935 107.332C59.942 110.882 59.911 114.432 59.953 117.98C59.983 120.572 61.216 122.037 63.359 122.182C66.031 122.363 67.588 120.987 67.62 118.303C67.663 114.704 67.632 111.105 67.633 107.505L67.632 105.886ZM117.257 105.938V110.276H111.356C111.356 114.502 111.369 118.578 111.349 122.654C111.342 123.923 111.73 125.742 111.072 126.317C110.294 126.996 108.577 126.601 107.267 126.671L107.12 126.672C105.924 126.861 105.511 126.424 105.531 125.154C105.606 120.277 105.561 115.397 105.561 110.322H99.65V105.938H117.257Z" fill="#FCAA1A"/>
</svg>
