<svg width="128" height="128" viewBox="0 0 128 128" fill="none" xmlns="http://www.w3.org/2000/svg">
<path fill-rule="evenodd" clip-rule="evenodd" d="M91.297 53.219C93.578 51.901 95.943 50.595 97.883 48.851C101.11 45.951 100.67 41.714 97.24 39.071C96.603 38.58 95.802 37.947 95.644 37.251C95.019 34.478 94.473 31.671 96.371 29.05C96.984 28.203 97.35 27.129 97.643 26.106C98.545 22.945 97.096 20.282 93.982 19.259C93.429 19.077 92.845 18.975 92.267 18.893C91.486 18.783 91.097 18.433 90.984 17.59C90.566 14.477 91.369 12.775 94.271 11.467C95.786 10.784 97.438 10.407 99.033 9.891C96.764 6.03 90.427 3.826 85.131 5.256C80.867 6.407 77.875 9.197 75.075 12.358C74.779 12.693 74.131 12.897 73.665 12.868C72.307 12.783 72.352 11.704 72.556 10.804C72.981 8.93 73.548 7.089 74.077 5.163C71.631 5.235 69.776 6.57 67.942 8.027C67.819 7.832 67.729 8.25 67.678 8.127C66.764 5.949 66.975 4 67.363 2H67.067C63.723 3 60.63 4.998 59.942 9.192L59.415 8.864L58.313 3.561C55.287 5.612 53.622 8.203 53.164 11.654C53.101 12.13 52.83 12.546 52.656 13.007C52.196 12.753 51.616 12.586 51.294 12.213C48.146 8.555 44.584 5.664 39.582 4.898C35.142 4.218 29.662 6.38 27.591 9.819C29.419 10.514 31.35 11.058 33.097 11.959C35.195 13.041 35.897 14.821 35.673 16.822C35.511 18.266 34.933 18.841 33.437 19.032C30.146 19.454 28.228 22.046 28.701 25.31C28.865 26.444 29.2 27.727 29.9 28.575C31.528 30.544 31.351 32.767 31.304 35.017C31.268 36.776 30.642 38.163 29.12 39.259C25.84 41.624 25.446 45.965 28.456 48.682C30.429 50.464 32.815 51.822 35.127 53.183C36.843 54.194 37.985 55.596 38.074 57.47C38.22 60.551 38.046 63.649 37.948 66.738C37.909 67.979 37.717 69.214 37.567 70.724C34.908 68.324 33.479 65.614 32.742 62.316C29.918 65.125 28.713 68.353 28.554 72.089C28.269 78.77 31.129 83.538 37.149 86.328C37.66 86.565 38.113 87.102 38.403 87.609C40.922 92.016 44.523 94.952 49.564 95.99C50.131 96.107 50.803 96.124 51.233 96.445C53.994 98.51 57.137 99.511 60.507 99.811C65.598 100.264 70.501 99.723 74.871 96.727C75.296 96.435 75.811 96.196 76.314 96.11C81.563 95.219 85.329 92.298 88.013 87.784C88.423 87.093 89.133 86.449 89.857 86.096C92.878 84.628 95.275 82.578 96.63 79.443C97.993 76.288 98.35 72.985 97.712 69.643C97.186 66.882 96.042 64.366 93.724 62.379C93.008 65.677 91.562 68.376 88.875 70.478C88.558 66.052 88.31 61.647 88.439 57.254C88.491 55.567 89.657 54.166 91.297 53.219ZM93.176 9.051C92.27 9.215 91.362 9.528 90.458 9.515C86.193 9.454 83.106 11.489 80.691 14.802L80.364 15.283L80.117 15.477L78.13 14.523C81.39 8.549 87.936 6.111 93.176 9.051ZM88.716 11.9C88.39 13.78 88.07 15.587 87.766 17.396C87.624 18.246 87.457 19.004 86.419 19.262C85.435 19.506 84.828 19.333 84.039 18.554C83.004 17.531 83.101 16.731 83.685 15.632C84.813 13.509 86.378 12.082 88.716 11.9ZM33.393 8.917C38.511 6.154 44.824 8.399 48.42 14.484L46.352 15.527L46.884 14.828C45.486 13.751 44.094 12.666 42.689 11.599C40.743 10.119 38.528 9.526 36.097 9.515C35.187 9.51 34.276 9.222 33.393 8.917ZM43.267 16.91C43.312 17.736 42.248 18.932 41.39 19.379C40.901 19.633 39.541 18.912 39.051 18.268C38.548 17.606 38.618 16.504 38.458 15.591C38.35 14.967 38.321 14.326 38.174 13.713C38.038 13.15 37.791 12.614 37.56 11.977C40.224 12.051 43.128 14.389 43.267 16.91ZM33.191 79.563C30.829 76.046 30.96 72.127 31.969 68.123C34.721 74.423 40.231 75.953 46.504 76.639C44.396 79.059 42.57 81.452 44.027 84.895C39.52 84.579 35.685 83.276 33.191 79.563ZM46.861 92.485L41.565 87.94C45.644 86.879 46.071 89.923 47.281 92.033L46.861 92.485ZM67.215 96.792C57.244 98.714 49.426 94.18 46.471 83.526C45.714 80.799 47.344 79.014 50.457 78.975C54.734 78.921 59.014 78.961 63.292 78.961C67.423 78.957 71.554 78.952 75.685 78.963C76.17 78.964 76.67 78.998 77.139 79.112C79.728 79.743 80.746 81.091 79.999 83.622C78.059 90.206 74.455 95.397 67.215 96.792ZM79.067 92.394C79.811 90.895 80.351 89.663 81.036 88.516C81.236 88.178 81.826 87.986 82.271 87.899C83.024 87.752 83.804 87.741 84.69 87.663C83.342 89.79 81.577 91.269 79.067 92.394ZM94.428 67.948C97.21 77.279 92.045 84.612 82.566 84.748C83.858 81.494 82.219 79.092 79.962 76.662C86.21 75.933 91.753 74.457 94.428 67.948ZM85.428 58.14C85.411 62.07 85.655 66.006 85.918 69.93C86.089 72.484 86.15 72.65 83.656 73.189C82.183 73.507 80.643 73.606 79.134 73.604C78.728 73.604 78.151 72.945 77.945 72.464C76.346 68.725 74.823 64.954 73.264 61.198C73.081 60.758 72.827 60.345 72.607 59.921L72.126 60.401C73.59 65.87 75.055 72 76.482 77H50.032C51.446 72 52.905 65.927 54.364 60.471L53.785 60.117C52.905 62.115 51.99 64.015 51.153 66.031C50.2384 68.2381 49.3593 70.4597 48.516 72.695C48.239 73.432 47.87 73.818 47.014 73.684C45.324 73.4273 43.6313 73.1896 41.936 72.971C40.609 72.795 40.423 72.006 40.499 70.792C40.76 66.621 40.991 62.441 41.05 58.264C41.095 54.916 39.634 52.338 36.582 50.703C34.857 49.778 33.123 48.801 31.6 47.588C29.148 45.635 29.337 42.38 31.924 40.923L31.747 42.859C34.358 39.709 35.675 33.224 33.798 27.03L33.591 28.8L33.122 28.951C32.541 27.449 31.752 25.988 31.438 24.432C31.134 22.924 32.825 21.715 34.903 21.637C38.673 21.495 42.233 22.397 45.479 24.209C48.807 26.067 51.969 28.225 55.028 30.141C54.436 28.013 51.83 25.497 44.988 20.647C52.515 12.799 74.085 12.864 81.58 20.727C77.236 22.946 73.708 26.026 71.4 30.436C72.515 29.624 73.622 28.801 74.748 28.005C78.941 25.042 83.322 22.442 88.531 21.79C90.056 21.6 91.681 21.686 93.185 22.001C94.792 22.338 95.436 23.734 94.901 25.308C94.487 26.529 93.862 27.679 93.331 28.861L92.948 28.783L92.642 27.058C91.174 32.819 91.597 38.026 94.793 42.867L94.529 40.978C96.543 41.839 97.306 44.364 95.987 46.254C95.254 47.303 94.143 48.13 93.089 48.901C92.106 49.62 90.993 50.177 89.899 50.729C86.847 52.268 85.442 54.892 85.428 58.14ZM82.855 34.536C79.17 35.547 76.25 37.725 73.738 40.512C72.569 41.809 71.188 42.7 69.426 42.783C68.582 42.823 67.728 42.612 66.844 42.51C67.176 44.902 68.859 45.685 70.431 46.038C71.356 48.19 72.169 50.083 72.984 51.976L73.441 51.768C72.984 49.848 72.598 47.933 73.75 46.043C76.576 48.048 79.412 47.561 82.264 46.168C85.325 44.671 86.285 41.835 87.056 38.807L87.62 40.993C88.817 38.981 89.035 37.11 87.43 35.227L89.484 34.4C87.096 33.796 84.975 33.954 82.855 34.536ZM82.017 43.706C80.198 45.511 77.207 45.778 74.483 44.263C76.718 41.174 79.753 39.221 82.858 37.324C83.807 39.118 83.344 42.388 82.017 43.706ZM52.543 40.299C50.332 37.792 47.689 35.855 44.488 34.783C42.103 33.983 39.675 33.684 36.981 34.435L39.066 35.187C37.54 37.038 37.722 38.905 38.829 41.031L39.493 38.74C40.114 41.894 40.642 44.63 43.642 46.148C46.496 47.593 49 48.063 52 45.776V51.633C52 51.676 52.91 51.719 53.08 51.762C53.85 49.919 54.903 48.076 55.748 46.052C58.394 45.181 59.352 44.381 59.365 42.421C56.551 43.325 54.451 42.462 52.543 40.299ZM44.757 43.94C43.236 42.71 42.64 39.58 43.567 37.272C46.774 39.262 49.831 41.177 51.956 44.251C49.628 45.726 46.785 45.58 44.757 43.94ZM68.34 33.91C64.859 35.724 61.628 35.706 58.156 33.913C61.941 38.128 64.457 38.273 68.34 33.91ZM75.408 81.925C74.33 81.876 72 81.916 72 81.916V82H69.245L69.021 81.961C67.587 82.062 67.031 82.86 67.698 84.067C68.356 85.259 69.109 86.473 70.09 87.384C70.705 87.956 71.878 88.275 72.735 88.177C75.054 87.911 76.054 86.027 76.978 84.169C77.604 82.91 76.865 81.991 75.408 81.925ZM57.565 81.935C56.441 81.862 55.308 81.92 54.18 81.92C53.051 81.92 51.919 81.871 50.794 81.935C49.787 81.992 49.125 82.46 49.28 83.625C49.487 85.176 51.792 87.745 53.329 88.15C54.636 88.494 55.794 88.261 56.634 87.181C57.412 86.181 58.157 85.138 58.768 84.03C59.411 82.863 58.903 82.021 57.565 81.935ZM91.564 105.868H96.726V126.496C94.362 126.835 92.374 126.804 90.71 124.559C88.251 121.243 85.428 118.197 82.497 114.723V126.549H77.43V105.899C79.759 105.614 81.755 105.603 83.415 107.855C85.862 111.173 88.683 114.216 91.564 117.637V105.868ZM34.496 106.02C37.987 106.02 41.389 105.816 44.753 106.082C47.611 106.309 49.927 107.699 50.615 110.828C51.225 113.599 50.089 115.878 47.214 117.813L52.932 126.535C50.697 126.535 48.802 126.632 46.928 126.472C46.394 126.427 45.805 125.717 45.444 125.176C44.407 123.62 43.4296 122.026 42.514 120.396C41.985 119.457 41.35 118.958 40.109 119.32V126.538H34.496V106.02ZM40.146 115.193C41.881 115.269 43.668 115.575 44.637 113.958C45.065 113.242 45.075 111.788 44.616 111.128C43.565 109.617 41.791 110.012 40.147 110.07L40.146 115.193ZM25.202 119.641H22.383V115.588H30.628C30.628 118.392 30.656 121.15 30.595 123.905C30.587 124.289 30.223 124.841 29.874 125.016C25.085 127.421 20.227 127.804 15.499 124.975C11.799 122.761 10.116 118.444 10.954 114.083C11.778 109.797 14.84 106.728 19.222 105.874C22.821 105.172 26.291 105.466 29.481 107.452C29.968 107.756 30.388 108.169 30.91 108.588L28.4 112.27C27.421 111.755 26.576 111.268 25.696 110.855C21.824 109.036 17.826 110.607 16.84 114.317C15.593 119.002 18.445 122.685 23.136 122.451C25.444 122.336 25.576 122.167 25.202 119.641ZM67.632 105.847H73.121C73.209 105.956 73.321 106.031 73.321 106.104C73.304 110.633 73.482 115.175 73.19 119.687C72.944 123.485 69.88 126.124 65.593 126.748C63.054 127.118 60.576 126.813 58.302 125.505C55.904 124.126 54.476 121.99 54.34 119.29C54.141 115.355 54.258 111.404 54.242 107.461V105.897H59.872C59.893 106.347 59.934 106.82 59.935 107.293C59.942 110.843 59.911 114.393 59.953 117.941C59.983 120.533 61.216 121.998 63.359 122.143C66.031 122.324 67.588 120.948 67.62 118.264C67.663 114.665 67.632 111.066 67.633 107.466L67.632 105.847ZM117.257 105.9V110.238H111.356C111.356 114.464 111.369 118.54 111.349 122.616C111.342 123.885 111.73 125.704 111.072 126.279C110.294 126.958 108.577 126.563 107.267 126.633L107.12 126.634C105.924 126.823 105.511 126.386 105.531 125.116C105.606 120.239 105.561 115.359 105.561 110.284H99.65V105.9H117.257Z" fill="#FCAA1A"/>
</svg>
