<svg width="128" height="128" viewBox="0 0 128 128" fill="none" xmlns="http://www.w3.org/2000/svg">
<path fill-rule="evenodd" clip-rule="evenodd" d="M88.395 70.7628C91.269 68.6238 92.741 65.9188 93.426 62.5698C96.758 65.8648 97.932 69.7398 97.657 74.1168C97.284 80.0528 94.558 84.3778 88.929 86.7018C88.489 86.8848 88.091 87.3648 87.848 87.8038C85.21 92.5838 81.329 95.6088 75.86 96.4738C75.402 96.5468 74.944 96.8068 74.55 97.0738C68.046 101.463 57.708 101.447 51.171 97.0438C50.7283 96.7482 50.2297 96.5468 49.706 96.4518C44.789 95.6018 41.052 93.0078 38.525 88.7508C37.789 87.5118 36.935 86.6778 35.607 86.0718C26.115 81.7398 26.277 67.6958 32.215 62.8028C32.794 64.2328 33.241 65.7358 33.99 67.0708C34.745 68.4178 35.798 69.5968 36.72 70.8508L37.172 70.7268C37.328 69.1568 37.537 67.5908 37.627 66.0168C37.755 63.8018 37.852 61.5818 37.858 59.3628C37.866 56.6548 36.853 54.5458 34.295 53.2278C32.422 52.2638 30.552 51.1958 28.922 49.8748C24.938 46.6488 25.038 42.2998 29.066 39.1798C30.033 38.4308 30.606 37.5758 30.719 36.3658C30.957 33.8158 31.358 31.2728 29.531 29.0238C29.025 28.4008 28.77 27.5348 28.528 26.7408C27.349 22.8808 29.248 19.8028 33.247 19.1768C34.401 18.9958 35.028 18.6978 35.165 17.3548C35.411 14.9618 34.897 13.3198 32.694 12.1668C30.94 11.2488 28.984 10.7148 27.047 9.98377C29.31 6.73177 32.675 5.24877 36.62 5.01177C41.835 4.69677 45.924 7.07677 49.402 10.7288C49.979 11.3348 50.464 12.0348 51.071 12.6058C51.371 12.8888 51.867 13.1228 52.251 13.0908C52.45 13.0748 52.719 12.4438 52.751 12.0718C53.012 9.00977 54.396 6.53877 56.653 4.52377C57.038 4.18077 57.525 3.95177 57.974 3.66477L59.082 8.85077L59.563 8.84577C60.356 4.69177 63.192 2.57377 66.903 1.23877C66.825 2.48277 66.644 3.64677 66.712 4.79777C66.778 5.89977 67.103 6.98677 67.355 8.29077C69.467 6.81777 71.305 5.28977 73.713 5.35277C73.194 7.32577 72.631 9.24677 72.2 11.1968C71.979 12.1978 72.256 13.1468 73.529 13.1198C73.994 13.1098 74.569 12.7468 74.892 12.3708C77.636 9.18177 80.678 6.45377 84.911 5.40577C90.309 4.06777 95.744 5.87877 98.819 10.1768C98.236 10.3208 97.686 10.4098 97.167 10.5918C95.828 11.0608 94.409 11.4048 93.192 12.0988C90.615 13.5678 90.202 14.9558 90.819 18.2508C90.875 18.5478 91.348 18.8608 91.693 18.9878C92.24 19.1878 92.856 19.1938 93.42 19.3598C96.711 20.3288 98.284 23.0548 97.343 26.3458C97.0004 27.526 96.4945 28.6526 95.84 29.6928C94.165 32.3578 94.786 35.1028 95.473 37.8178C95.625 38.4198 96.424 38.8978 96.992 39.3508C100.462 42.1158 100.796 46.3338 97.464 49.2848C95.61 50.9258 93.363 52.1578 91.19 53.3928C89.194 54.5268 88.021 56.1838 88.013 58.3678C87.999 62.4988 88.252 66.6308 88.395 70.7628ZM74.05 63.6538L74.034 63.6658C74.027 63.7084 74.0316 63.7521 74.0472 63.7924C74.0629 63.8327 74.089 63.868 74.123 63.8948L74.374 64.4958C75.265 66.8348 76.119 69.1888 77.056 71.5098C78.174 74.2798 77.4 74.1778 80.944 73.8578L83.874 73.3218C85.407 73.2918 85.806 72.5268 85.686 71.0348C85.393 67.4078 85.287 63.7648 85.081 60.1298C84.819 55.4968 86.631 52.1898 90.975 50.2238C92.552 49.5098 94.052 48.4118 95.276 47.1798C97.139 45.3058 96.609 42.4588 94.336 41.1548L94.141 42.7598C92.414 40.0598 91.914 37.3168 91.464 34.5568L91.418 33.0848C91.4521 33.0477 91.4728 33.0002 91.4766 32.9499C91.4804 32.8997 91.4671 32.8496 91.439 32.8078L92.144 27.4738L92.417 27.5138L92.813 29.1848C93.383 28.1878 93.852 27.4988 94.189 26.7518C95.516 23.8158 94.322 21.8518 91.061 21.8948C89.117 21.9198 87.134 22.2078 85.247 22.6868C80.321 23.9358 76.282 26.8818 72.261 29.8238C71.859 30.1178 71.439 30.3868 71.027 30.6678L70.837 30.4448L72.923 27.4568L73.437 26.8578C73.4707 26.8365 73.4996 26.8083 73.5217 26.775C73.5438 26.7417 73.5585 26.7042 73.565 26.6648L81.368 20.4138L76.624 17.8838L76.56 17.8948L76.217 17.6408C70.738 15.0708 64.912 14.5468 59.035 15.2488C55.813 15.6338 52.687 16.8278 49.518 17.6568C47.651 18.3828 45.876 19.2478 44.666 20.5818L52.465 26.9198L52.461 26.9068L52.742 27.2938L54.938 30.4578C52.459 29.0698 50.224 27.4868 47.923 26.0048C44.36 23.7098 40.496 22.1748 36.235 21.8758C34.431 21.7498 32.299 21.5328 31.362 23.4648C30.391 25.4658 31.714 27.2328 32.828 28.8768C32.87 28.9388 33 28.9408 33.143 28.9898L33.323 27.4298C33.683 28.1938 33.905 28.9488 33.993 29.7188C34.166 31.2308 34.266 32.7508 34.396 34.2668C34.102 35.7048 33.91 37.1728 33.485 38.5708C33.051 39.9978 32.39 41.3558 31.828 42.7438L31.508 42.5958L31.416 41.1668C28.852 42.7298 28.704 45.9348 31.168 47.8998C32.657 49.0878 34.358 50.0398 36.05 50.9348C39.234 52.6178 40.681 55.3108 40.631 58.7738C40.573 62.7598 40.333 66.7438 40.103 70.7258C39.979 72.8688 39.915 72.8658 41.863 73.3208L45.075 73.8688C46.096 73.7858 47.414 74.7288 48.035 73.2128C49.261 70.2198 50.389 67.1868 51.558 64.1708C51.6073 64.1006 51.6329 64.0165 51.631 63.9308L51.928 63.2978L53.118 61.0278L53.473 61.1528C52.942 66.4718 51.068 71.4848 49.473 76.6978C58.375 76.6978 67.034 76.6988 75.692 76.6938C75.831 76.6938 75.97 76.6278 76.064 76.6038L71.736 60.1898L72.223 60.0408L73.836 63.2968L74.05 63.6538ZM84.193 88.1818C80.925 88.0198 79.788 88.9818 79.013 92.6698C81.142 91.5398 83.009 90.2658 84.17 88.1628L84.214 88.0528L84.193 88.1818ZM93.691 69.2398C90.889 74.9818 85.579 76.2928 80.052 76.9238L82.689 81.9538L82.28 85.2498C86.708 84.9758 90.592 83.6468 93.092 79.8338C95.419 76.2828 95.317 72.3558 94.082 68.3578L93.691 69.2398ZM31.808 68.7898C31.791 68.6968 31.79 68.5298 31.756 68.5228C31.655 68.5018 31.449 68.5318 31.445 68.5638C31.236 70.2028 30.854 71.8478 30.882 73.4848C30.979 79.2008 34.066 83.1048 39.583 84.6178C40.852 84.9658 42.184 85.0838 43.541 85.3178L43.041 81.9538L45.762 76.8968C39.909 76.3478 34.594 74.7378 31.808 68.7898ZM77.661 88.7518L77.977 88.1708C78.448 87.0958 78.998 86.0488 79.374 84.9418C80.589 81.3758 79.218 79.4318 75.445 79.2768L74.707 79.2618C66.831 79.2608 58.955 79.2538 51.079 79.2728C50.3 79.2748 49.504 79.3658 48.746 79.5438C46.408 80.0928 45.49 81.4708 46.105 83.7808C46.506 85.2848 47.217 86.7068 47.79 88.1658L48.086 88.7088L48.309 89.0748C49.59 90.7318 50.614 92.7048 52.198 93.9868C57.406 98.2028 63.368 98.5508 69.495 96.4148C73.273 95.0968 75.995 92.4328 77.662 88.7528L77.661 88.7518ZM93.153 8.99777C87.301 6.43877 81.276 8.67777 77.803 14.7048L79.842 15.6938C82.513 11.7258 86.214 9.26477 90.819 9.73677C91.472 9.80377 92.182 9.32177 93.153 8.99777ZM33.004 9.24677C33.874 9.41077 34.745 9.72377 35.612 9.71177C38.228 9.67677 40.61 10.3038 42.584 12.0448C43.819 13.1348 44.914 14.3838 46.133 15.6238L47.993 14.6688C44.859 8.91677 38.406 6.38877 33.004 9.24677ZM88.39 12.0888C88.143 12.1278 87.721 12.1578 87.32 12.2638C85.244 12.8198 83.979 14.2808 83.216 16.1778C82.983 16.7578 82.855 17.7058 83.166 18.1088C83.811 18.9458 84.376 20.0938 85.981 19.5518C87.057 19.1878 87.34 18.5658 87.49 17.6668C87.787 15.8938 88.064 14.1158 88.39 12.0888ZM37.343 12.1708C37.583 13.5318 37.812 14.8158 38.036 16.1008C38.153 16.7758 38.246 17.4548 38.374 18.1278C38.642 19.5318 39.992 19.9028 40.834 19.6208C41.719 19.3248 42.831 18.1778 42.916 17.3108C43.146 14.9648 39.829 12.1568 37.343 12.1708ZM41.51 88.1928C42.809 90.1248 44.534 91.6088 47.052 92.7428C45.688 90.2478 45.263 87.2558 41.51 88.1928Z" fill="#493310"/>
<path fill-rule="evenodd" clip-rule="evenodd" d="M91.5642 105.665H96.7262V126.293C94.3622 126.632 92.3742 126.601 90.7102 124.356C88.2512 121.04 85.4282 117.994 82.4972 114.52V126.346H77.4302V105.696C79.7592 105.411 81.7552 105.4 83.4152 107.652C85.8622 110.97 88.6832 114.013 91.5642 117.434V105.665Z" fill="#473312"/>
<path fill-rule="evenodd" clip-rule="evenodd" d="M34.4961 105.817C37.9871 105.817 41.3891 105.613 44.7531 105.879C47.6111 106.106 49.9271 107.496 50.6151 110.625C51.2251 113.396 50.0891 115.675 47.2141 117.61L52.9321 126.332C50.6971 126.332 48.8021 126.429 46.9281 126.269C46.3941 126.224 45.8051 125.514 45.4441 124.973C44.4071 123.417 43.4297 121.823 42.5141 120.193C41.9851 119.254 41.3501 118.755 40.1091 119.117V126.335H34.4961V105.817ZM40.1461 114.99C41.8811 115.066 43.6681 115.372 44.6371 113.755C45.0651 113.039 45.0751 111.585 44.6161 110.925C43.5651 109.414 41.7911 109.809 40.1471 109.867L40.1461 114.99Z" fill="#46310F"/>
<path fill-rule="evenodd" clip-rule="evenodd" d="M25.202 119.438H22.383V115.385H30.628C30.628 118.189 30.656 120.947 30.595 123.702C30.587 124.086 30.223 124.638 29.874 124.813C25.085 127.218 20.227 127.601 15.499 124.772C11.799 122.558 10.116 118.241 10.954 113.88C11.778 109.594 14.84 106.525 19.222 105.671C22.821 104.969 26.291 105.263 29.481 107.249C29.968 107.553 30.388 107.966 30.91 108.385L28.4 112.067C27.421 111.552 26.576 111.065 25.696 110.652C21.824 108.833 17.826 110.404 16.84 114.114C15.593 118.799 18.445 122.482 23.136 122.248C25.444 122.134 25.576 121.965 25.202 119.438Z" fill="#483413"/>
<path fill-rule="evenodd" clip-rule="evenodd" d="M67.632 105.645H73.121C73.209 105.754 73.321 105.829 73.321 105.902C73.304 110.431 73.482 114.973 73.19 119.485C72.944 123.283 69.88 125.922 65.593 126.546C63.054 126.916 60.576 126.611 58.302 125.303C55.904 123.924 54.476 121.788 54.34 119.088C54.141 115.153 54.258 111.202 54.242 107.259V105.695H59.872C59.893 106.145 59.934 106.618 59.935 107.091C59.942 110.641 59.911 114.191 59.953 117.739C59.983 120.331 61.216 121.796 63.359 121.941C66.031 122.122 67.588 120.746 67.62 118.062C67.663 114.463 67.632 110.864 67.633 107.264L67.632 105.645Z" fill="#473312"/>
<path fill-rule="evenodd" clip-rule="evenodd" d="M117.257 105.697V110.035H111.356C111.356 114.261 111.369 118.337 111.349 122.413C111.342 123.682 111.73 125.501 111.072 126.076C110.294 126.755 108.577 126.36 107.267 126.43L107.12 126.431C105.924 126.62 105.511 126.183 105.531 124.913C105.606 120.036 105.561 115.156 105.561 110.081H99.6499V105.697H117.257Z" fill="#483413"/>
<path fill-rule="evenodd" clip-rule="evenodd" d="M34.396 34.2659C34.266 32.7489 34.167 31.2289 33.993 29.7179C33.8973 28.9232 33.6709 28.1498 33.323 27.4289L33.143 28.9889C32.999 28.9399 32.869 28.9379 32.828 28.8759C31.713 27.2319 30.391 25.4649 31.362 23.4639C32.299 21.5319 34.431 21.7489 36.235 21.8749C40.496 22.1749 44.36 23.7089 47.923 26.0039C50.224 27.4859 52.459 29.0689 54.938 30.4569L52.742 27.2919L52.461 26.9059L52.465 26.9189C51.981 25.7689 51.579 24.5769 50.996 23.4799C50.022 21.6459 48.635 19.9499 49.517 17.6559C52.686 16.8269 55.811 15.6329 59.034 15.2479C64.91 14.5459 70.736 15.0699 76.216 17.6409L76.559 17.8949L76.622 17.8849C76.693 19.9069 75.917 21.6309 74.898 23.3319C74.291 24.3449 73.999 25.5479 73.565 26.6649C73.5585 26.7043 73.5437 26.7419 73.5217 26.7752C73.4996 26.8084 73.4707 26.8366 73.437 26.8579L72.923 27.4569L70.837 30.4449L71.027 30.6679C71.439 30.3869 71.859 30.1179 72.261 29.8239C76.282 26.8819 80.321 23.9359 85.247 22.6869C87.134 22.2079 89.118 21.9199 91.061 21.8949C94.322 21.8529 95.516 23.8159 94.189 26.7519C93.851 27.4989 93.382 28.1879 92.813 29.1849L92.417 27.5139L92.144 27.4739L91.439 32.8079L91.373 32.8889L91.417 33.0849L91.463 34.5569C91.306 34.9759 91.017 35.3939 91.013 35.8149C90.983 39.2269 91.287 42.5639 93.904 45.5629C91.83 46.6179 89.994 47.6329 88.091 48.4959C86.364 49.2789 84.5709 49.9799 83.951 51.9679C83.436 53.6179 83.141 55.3369 82.752 57.0119L81.793 54.3519C81.513 60.8379 81.81 67.1879 83.874 73.3219L80.944 73.8579C78.987 70.8819 77.0359 67.9019 75.061 64.9379C74.923 64.7299 74.607 64.6409 74.374 64.4969L74.123 63.8959L74.249 63.7179L74.034 63.6669L74.051 63.6549L73.836 63.2959L72.223 60.0399L71.736 60.1889L76.064 76.6029C75.971 76.6269 75.832 76.6929 75.692 76.6929C67.034 76.6979 58.375 76.6969 49.473 76.6969C51.068 71.4839 52.942 66.4699 53.473 61.1519L53.118 61.0269L51.928 63.2969L51.631 63.9299C51.6331 64.0157 51.6075 64.0999 51.558 64.1699C51.269 64.3999 50.902 64.5769 50.705 64.8689C49.2582 67.0074 47.8377 69.1635 46.444 71.3369C45.929 72.1439 45.528 73.0229 45.074 73.8689L41.862 73.3209C44.021 67.2029 44.29 60.8669 44.004 54.4559L42.988 57.1099C42.771 52.7739 41.479 49.5019 36.9 48.1639C35.154 47.6539 33.636 46.3639 32.379 45.6389C33.163 43.6479 34.055 42.1699 34.289 40.5939C34.597 38.5229 34.385 36.3769 34.396 34.2659ZM67.594 34.5929L67.891 34.2849L68.615 33.4449C66.733 33.6289 64.901 33.9569 63.071 33.9469C61.225 33.9369 59.38 33.5929 57.534 33.3949L57.149 33.2879L57.534 33.3949L58.123 34.5799C61.414 38.3209 64.162 38.3949 67.472 34.8299L67.614 34.5769L67.594 34.5929ZM49.243 54.4129L52.772 52.2309C53.564 50.6729 54.51 49.1679 55.082 47.5339C55.355 46.7519 55.503 46.3229 56.353 46.0999C58.219 45.6109 59.178 44.3509 59.131 42.7259L57.261 42.9549C55.261 41.8189 53.746 40.2419 52.516 38.2789C51.831 37.1869 50.767 36.2949 49.757 35.4529C47.605 33.6589 44.911 33.2499 42.279 33.1939C40.662 33.1599 39.028 33.9299 37.402 34.3389C37.352 34.3869 37.298 34.3929 37.238 34.3569L36.81 34.5399L36.727 34.6609L36.767 34.7869C37.352 34.9949 37.939 35.1969 38.63 35.4339C37.062 37.4029 37.259 39.2729 38.457 41.3179L39.079 39.1279L39.378 39.1559L39.529 40.7039L39.727 41.3909L39.842 41.8499C39.679 46.8119 44.117 50.3849 50.714 50.2629L49.247 54.4169L49.18 54.5369L49.243 54.4129ZM76.484 54.4129L76.601 54.4829L76.479 54.4179L75.064 50.2179C82.753 50.9779 85.908 45.7509 86.185 40.9769L86.489 39.1749L86.739 39.1849L87.316 41.3299C88.479 39.2639 88.777 37.3819 87.151 35.4749L89.08 34.7179L88.277 34.4029C87.884 34.1639 87.508 33.7539 87.097 33.7159C85.325 33.5489 83.534 33.3319 81.765 33.4289C78.253 33.6229 75.363 35.1539 73.383 38.1139C72.067 40.0819 70.6479 41.8939 68.465 42.9569L66.443 42.7279C66.766 44.6519 67.863 45.6529 69.55 46.1869C69.949 46.3129 70.353 46.7429 70.55 47.1359C71.393 48.8149 72.16 50.5329 72.954 52.2379C74.132 52.9619 75.308 53.6879 76.484 54.4129Z" fill="#F5A900"/>
<path fill-rule="evenodd" clip-rule="evenodd" d="M47.7889 88.1668C47.2169 86.7088 46.5059 85.2868 46.1039 83.7818C45.4879 81.4718 46.4059 80.0938 48.7449 79.5448C49.5099 79.3667 50.2925 79.2758 51.0779 79.2738C58.9539 79.2548 66.8299 79.2618 74.7059 79.2628L75.4439 79.2778C79.2169 79.4328 80.5879 81.3768 79.3729 84.9428C78.9969 86.0488 78.4469 87.0968 77.9759 88.1718L77.6599 88.7528V88.7538C76.6409 89.4158 75.6499 90.1258 74.5979 90.7298C71.9539 92.2468 69.0729 92.9358 66.0559 93.2968C61.9289 93.7928 57.9009 93.4788 54.0389 91.9978C52.0479 91.2338 50.2129 90.0628 48.3069 89.0768L48.0839 88.7108L47.7889 88.1668ZM76.1539 85.7838L76.4789 85.2008C77.3819 82.8778 76.9769 82.2468 74.5209 82.2188C72.6967 82.1897 70.8721 82.191 69.0479 82.2228C67.2779 82.2618 66.8839 82.8328 67.3559 84.5288C67.5699 85.4138 67.6599 86.3528 68.0209 87.1738C68.9399 89.2628 70.6029 90.4288 72.0729 90.1828C74.0759 89.8488 75.8709 87.9118 76.1619 85.7728L76.1539 85.7838ZM49.5639 85.7818L49.5599 85.7738C49.8939 87.9958 51.2379 89.3628 53.3029 90.0308C54.7589 90.5018 56.0399 89.8438 56.7479 88.7078C57.5209 87.4668 57.8649 85.9588 58.3959 84.5678C58.9019 82.8338 58.5449 82.2788 56.7819 82.2268C55.2069 82.1798 53.6299 82.2048 52.0539 82.2168C48.6719 82.2428 48.6059 82.3248 49.2579 85.4748L49.5639 85.7818Z" fill="#F5A800"/>
<path fill-rule="evenodd" clip-rule="evenodd" d="M34.3962 34.2661C34.3852 36.3781 34.5972 38.5231 34.2912 40.5921C34.0572 42.1681 33.1652 43.6461 32.3812 45.6371C33.6392 46.3621 35.1562 47.6521 36.9022 48.1621C41.4812 49.5001 42.7732 52.7721 42.9902 57.1081L44.0062 54.4541C44.2922 60.8651 44.0232 67.2021 41.8642 73.3191C39.9172 72.8641 39.9812 72.8671 40.1042 70.7241C40.3332 66.7431 40.5742 62.7581 40.6322 58.7721C40.6822 55.3091 39.2352 52.6161 36.0512 50.9331C34.3592 50.0381 32.6572 49.0861 31.1692 47.8981C28.7052 45.9331 28.8532 42.7291 31.4172 41.1651L31.5092 42.5941L31.8292 42.7421C32.3912 41.3541 33.0522 39.9961 33.4862 38.5691C33.9102 37.1711 34.1022 35.7031 34.3962 34.2661ZM83.8742 73.3211C81.8102 67.1871 81.5132 60.8381 81.7932 54.3511L82.7522 57.0111C83.1412 55.3361 83.4362 53.6171 83.9512 51.9671C84.5712 49.9791 86.3642 49.2791 88.0912 48.4951C89.9952 47.6321 91.8302 46.6171 93.9042 45.5621C91.2872 42.5631 90.9832 39.2261 91.0132 35.8141C91.0162 35.3941 91.3062 34.9761 91.4632 34.5561C91.9142 37.3161 92.4142 40.0591 94.1402 42.7591L94.3352 41.1541C96.6082 42.4581 97.1382 45.3051 95.2752 47.1791C94.0512 48.4111 92.5512 49.5091 90.9742 50.2231C86.6312 52.1891 84.8182 55.4951 85.0802 60.1291C85.2862 63.7641 85.3922 67.4061 85.6852 71.0341C85.8062 72.5261 85.4062 73.2921 83.8742 73.3211ZM94.3972 42.9441L94.3552 43.0231L94.4172 43.0311L94.3972 42.9441Z" fill="#E08700"/>
<path fill-rule="evenodd" clip-rule="evenodd" d="M48.3081 89.0759C50.2141 90.0629 52.0491 91.2339 54.0401 91.9969C57.9021 93.4769 61.9291 93.7919 66.0571 93.2959C69.0751 92.9349 71.9561 92.2459 74.5991 90.7289C75.6511 90.1249 76.6411 89.4159 77.6611 88.7529C75.9941 92.4329 73.2731 95.0969 69.4941 96.4149C63.3681 98.5509 57.4061 98.2029 52.1971 93.9869C50.6131 92.7059 49.5881 90.7329 48.3081 89.0759Z" fill="#E08600"/>
<path fill-rule="evenodd" clip-rule="evenodd" d="M31.808 68.79C34.594 74.738 39.909 76.349 45.761 76.898L43.04 81.955C36.04 81.382 31.531 76.097 31.808 68.79ZM82.69 81.954L80.053 76.924C85.579 76.293 90.89 74.982 93.692 69.24C93.78 69.604 93.955 69.97 93.943 70.331C93.735 76.345 89.61 81.41 82.69 81.954Z" fill="white"/>
<path fill-rule="evenodd" clip-rule="evenodd" d="M31.8079 68.7899C31.5309 76.0969 36.0399 81.3829 43.0399 81.9549L43.5399 85.3189C42.1829 85.0849 40.8519 84.9659 39.5819 84.6189C34.0639 83.1059 30.9779 79.2019 30.8809 73.4859C30.8529 71.8479 31.2349 70.2039 31.4439 68.5649C31.4479 68.5339 31.6539 68.5029 31.7549 68.5239C31.7899 68.5299 31.7919 68.6959 31.8079 68.7899ZM82.6899 81.9539C89.6099 81.4099 93.7349 76.3449 93.9419 70.3299C93.9539 69.9699 93.7789 69.6029 93.6909 69.2389L94.0819 68.3579C95.3168 72.3559 95.4189 76.2829 93.0919 79.8339C90.5919 83.6469 86.7079 84.9759 82.2799 85.2499L82.6899 81.9539Z" fill="#C7C6C6"/>
<path fill-rule="evenodd" clip-rule="evenodd" d="M93.1529 8.9982C92.1819 9.3222 91.4719 9.8052 90.8189 9.7382C86.2139 9.2652 82.5129 11.7272 79.8419 15.6952L77.8029 14.7062C81.2759 8.67821 87.3009 6.4392 93.1529 8.9982ZM33.0039 9.2472C38.4059 6.3902 44.8589 8.9182 47.9929 14.6692L46.1329 15.6242C44.9139 14.3842 43.8189 13.1352 42.5839 12.0452C40.6099 10.3042 38.2289 9.6772 35.6119 9.7122C34.7449 9.7232 33.8739 9.4112 33.0039 9.2472Z" fill="#F0A500"/>
<path fill-rule="evenodd" clip-rule="evenodd" d="M88.3898 12.0889C88.0638 14.1159 87.7858 15.8929 87.4908 17.6669C87.3408 18.5659 87.0568 19.1879 85.9818 19.5519C84.3778 20.0939 83.8118 18.9459 83.1668 18.1089C82.8548 17.7059 82.9838 16.7569 83.2168 16.1779C83.9788 14.2809 85.2448 12.8199 87.3208 12.2639C87.7208 12.1579 88.1428 12.1279 88.3898 12.0889ZM37.3428 12.1709C39.8288 12.1569 43.1458 14.9649 42.9158 17.3109C42.8308 18.1779 41.7198 19.3249 40.8338 19.6209C39.9918 19.9029 38.6418 19.5329 38.3738 18.1279C38.2458 17.4549 38.1528 16.7759 38.0358 16.1009C37.8118 14.8159 37.5828 13.5319 37.3428 12.1709Z" fill="#DE8500"/>
<path fill-rule="evenodd" clip-rule="evenodd" d="M49.517 17.6558C48.635 19.9498 50.022 21.6458 50.996 23.4798C51.579 24.5768 51.981 25.7688 52.465 26.9188L44.666 20.5808C45.875 19.2468 47.65 18.3808 49.517 17.6558Z" fill="#E08600"/>
<path fill-rule="evenodd" clip-rule="evenodd" d="M73.5632 26.6648C73.9972 25.5468 74.2892 24.3448 74.8962 23.3318C75.9152 21.6308 76.6912 19.9078 76.6202 17.8848C78.2242 18.7378 79.8262 19.5928 81.3662 20.4138L73.5632 26.6648ZM74.3752 64.4958C74.6082 64.6408 74.9232 64.7298 75.0622 64.9368C77.0372 67.9008 78.9882 70.8808 80.9452 73.8568C77.4022 74.1768 78.1752 74.2788 77.0572 71.5088C76.1202 69.1888 75.2652 66.8348 74.3752 64.4958ZM45.0762 73.8668C45.5302 73.0208 45.9302 72.1418 46.4462 71.3348C47.8402 69.1615 49.2606 67.0054 50.7072 64.8668C50.9042 64.5748 51.2712 64.3978 51.5602 64.1678C50.3912 67.1838 49.2632 70.2168 48.0372 73.2098C47.4152 74.7268 46.0972 73.7838 45.0762 73.8668Z" fill="#DE8600"/>
<path fill-rule="evenodd" clip-rule="evenodd" d="M41.5098 88.1931C45.2628 87.2561 45.6878 90.2471 47.0518 92.7431C44.5338 91.6091 42.8098 90.1251 41.5098 88.1931ZM84.1708 88.1631C83.0098 90.2661 81.1428 91.5401 79.0138 92.6701C79.7878 88.9821 80.9258 88.0201 84.1938 88.1821L84.1708 88.1631ZM84.1928 88.1821L84.2138 88.0521L84.1698 88.1631L84.1928 88.1821Z" fill="#ECA200"/>
<path fill-rule="evenodd" clip-rule="evenodd" d="M74.0338 63.666L74.2488 63.717L74.1228 63.895C74.089 63.8681 74.063 63.8328 74.0473 63.7925C74.0317 63.7523 74.027 63.7086 74.0338 63.666Z" fill="#DE8600"/>
<path fill-rule="evenodd" clip-rule="evenodd" d="M91.4161 33.0851L91.3721 32.8891L91.4381 32.8081C91.4658 32.8501 91.4787 32.9002 91.4747 32.9504C91.4707 33.0006 91.4501 33.048 91.4161 33.0851Z" fill="#E08700"/>
<path fill-rule="evenodd" clip-rule="evenodd" d="M72.9558 52.2362C72.1618 50.5322 71.3948 48.8142 70.5518 47.1342C70.3548 46.7412 69.9508 46.3122 69.5518 46.1852C67.8648 45.6512 66.7678 44.6502 66.4448 42.7262L68.4668 42.9552C68.8468 42.9812 69.2348 43.0732 69.6038 43.0232C71.3728 42.7832 72.5808 41.6632 73.7558 40.4242C77.6948 36.2702 82.3168 33.7042 88.2788 34.4022L89.0818 34.7172L87.1528 35.4742C88.7778 37.3812 88.4798 39.2632 87.3178 41.3292L86.7408 39.1842L86.4908 39.1742L86.1868 40.9772C85.3388 42.9692 84.5318 44.9792 82.4638 46.0962C79.4538 47.7212 76.4318 48.4312 73.3878 46.2722C72.0888 48.2492 72.8568 50.2642 72.9558 52.2362ZM82.9188 41.0662V37.3582C79.7988 39.1942 77.1348 40.9802 74.9998 43.4602L74.1198 44.5232C77.0988 46.7572 82.9248 45.2872 82.9188 41.0662Z" fill="#49330E"/>
<path fill-rule="evenodd" clip-rule="evenodd" d="M39.8411 41.8499L39.7261 41.3909L39.5281 40.7039L39.3771 39.1559L39.0781 39.1279L38.4561 41.3179C37.2581 39.2729 37.0611 37.4019 38.6291 35.4339C37.9391 35.1959 37.3511 34.9949 36.7661 34.7869L36.7261 34.6609L36.8091 34.5399L37.2371 34.3569C37.2961 34.3929 37.3511 34.3869 37.4011 34.3379C39.6341 34.5829 41.9361 34.5669 44.0841 35.1339C47.4571 36.0249 50.0611 38.2589 52.3911 40.8079C53.6871 42.2249 55.1761 43.2879 57.2611 42.9549L59.1311 42.7259C59.1781 44.3509 58.2191 45.6099 56.3531 46.0999C55.5021 46.3229 55.3541 46.7519 55.0821 47.5339C54.5111 49.1689 53.5651 50.6739 52.7731 52.2299C52.9701 50.2349 53.6491 48.2019 52.3391 46.2409C50.7521 47.4259 49.0231 47.8609 47.1511 47.5249C43.7361 46.9119 41.2101 45.1169 39.8411 41.8499ZM50.7491 43.4309C48.6131 40.9579 45.9551 39.1709 42.8381 37.3539V41.0599C42.8871 45.3709 48.7751 46.7389 51.5921 44.5579C51.5081 44.4029 51.4371 44.2249 51.3241 44.0799C51.1481 43.8519 50.9421 43.6459 50.7491 43.4309Z" fill="#49330F"/>
<path fill-rule="evenodd" clip-rule="evenodd" d="M72.9562 52.236C72.8572 50.2631 72.0892 48.249 73.3872 46.272C76.4312 48.431 79.4532 47.7211 82.4632 46.0961C84.5312 44.9791 85.3382 42.9691 86.1862 40.9771C85.9092 45.7501 82.7542 50.977 75.0652 50.218L76.4802 54.418L76.4842 54.413L72.9562 52.236ZM39.8412 41.85C41.2102 45.117 43.7362 46.9121 47.1502 47.5251C49.0222 47.8611 50.7512 47.4261 52.3382 46.2411C53.6482 48.2021 52.9692 50.235 52.7722 52.23L49.2432 54.413L49.2472 54.417L50.7142 50.2631C44.1162 50.385 39.6792 46.812 39.8412 41.85Z" fill="#E08700"/>
<path fill-rule="evenodd" clip-rule="evenodd" d="M57.2599 42.955C55.1749 43.288 53.6859 42.225 52.3899 40.808C50.0599 38.26 47.4559 36.025 44.0829 35.134C41.9349 34.567 39.6329 34.583 37.3999 34.338C39.0259 33.93 40.6599 33.16 42.2769 33.194C44.9089 33.25 47.6029 33.659 49.7549 35.453C50.7649 36.295 51.8289 37.187 52.5139 38.279C53.7459 40.242 55.2609 41.819 57.2599 42.955Z" fill="#DE8600"/>
<path fill-rule="evenodd" clip-rule="evenodd" d="M88.2782 34.402C82.3162 33.704 77.6942 36.271 73.7552 40.424C72.5802 41.663 71.3722 42.783 69.6032 43.023C69.2342 43.073 68.8462 42.981 68.4662 42.955C70.6492 41.892 72.0682 40.08 73.3842 38.112C75.3642 35.152 78.2552 33.622 81.7662 33.427C83.5342 33.33 85.3262 33.547 87.0982 33.714C87.5102 33.753 87.8862 34.163 88.2782 34.402ZM58.1242 34.579L57.5352 33.394C59.3802 33.592 61.2252 33.936 63.0722 33.946C64.9032 33.956 66.7352 33.628 68.6162 33.444L67.8922 34.284L67.5952 34.592L67.6162 34.575C65.7682 34.886 63.9252 35.392 62.0702 35.44C60.7622 35.476 59.4392 34.889 58.1242 34.579Z" fill="#DF8600"/>
<path fill-rule="evenodd" clip-rule="evenodd" d="M58.124 34.5792C59.439 34.8892 60.762 35.4762 62.068 35.4412C63.923 35.3932 65.766 34.8862 67.614 34.5762L67.472 34.8292C64.163 38.3942 61.415 38.3202 58.124 34.5792Z" fill="#52380B"/>
<path fill-rule="evenodd" clip-rule="evenodd" d="M67.3561 84.5282C66.8841 82.8332 67.2781 82.2612 69.0481 82.2222C70.8721 82.1812 72.6971 82.1972 74.5211 82.2182C76.9771 82.2462 77.3821 82.8772 76.4791 85.2002L76.1541 85.7832L76.1621 85.7712C75.7361 86.2322 75.3211 86.7072 74.8801 87.1542C72.8791 89.1862 70.6821 89.0552 68.9501 86.7862C68.3911 86.0552 67.8861 85.2822 67.3561 84.5282Z" fill="#47310D"/>
<path fill-rule="evenodd" clip-rule="evenodd" d="M49.2579 85.4761C48.6059 82.3261 48.6719 82.2441 52.0539 82.2181C53.6299 82.2061 55.2069 82.1801 56.7819 82.2281C58.5449 82.2811 58.9029 82.8351 58.3959 84.5691C57.7979 85.4091 57.2309 86.2731 56.5969 87.0851C55.1119 88.9831 53.0039 89.1021 51.2319 87.4141C50.6669 86.8761 50.1169 86.3221 49.5599 85.7751L49.5629 85.7831L49.2579 85.4761Z" fill="#47310E"/>
<path fill-rule="evenodd" clip-rule="evenodd" d="M49.561 85.7739C50.118 86.3199 50.668 86.8749 51.233 87.4129C53.004 89.1009 55.113 88.9829 56.598 87.0839C57.232 86.2719 57.8 85.4079 58.397 84.5679C57.866 85.9599 57.522 87.4669 56.749 88.7079C56.041 89.8439 54.76 90.5019 53.304 90.0309C51.238 89.3629 49.895 87.9959 49.561 85.7739Z" fill="#DC8400"/>
<path fill-rule="evenodd" clip-rule="evenodd" d="M67.356 84.5278C67.886 85.2818 68.391 86.0538 68.95 86.7868C70.682 89.0558 72.879 89.1868 74.88 87.1548C75.321 86.7078 75.735 86.2338 76.162 85.7718C75.871 87.9108 74.076 89.8478 72.073 90.1818C70.602 90.4278 68.94 89.2618 68.021 87.1728C67.66 86.3528 67.57 85.4128 67.356 84.5278Z" fill="#DE8500"/>
<path fill-rule="evenodd" clip-rule="evenodd" d="M94.397 42.9438L94.417 43.0308L94.355 43.0228L94.397 42.9438Z" fill="#493310"/>
<path fill-rule="evenodd" clip-rule="evenodd" d="M75 43.4589C77.135 40.9789 79.799 39.1939 82.919 37.3569V41.0649C81.632 42.7059 80.177 44.1699 77.937 44.1669C76.958 44.1669 75.979 43.7089 75 43.4589Z" fill="white"/>
<path fill-rule="evenodd" clip-rule="evenodd" d="M75.0001 43.4589C75.9791 43.7089 76.9581 44.1669 77.9371 44.1679C80.1771 44.1709 81.6321 42.7069 82.9191 41.0659C82.9251 45.2869 77.0991 46.7569 74.1201 44.5229L75.0001 43.4589Z" fill="#C5C4C3"/>
<path fill-rule="evenodd" clip-rule="evenodd" d="M42.8379 41.06V37.354C45.9549 39.171 48.6119 40.958 50.7489 43.431C49.5179 44.541 47.0199 44.575 45.2179 43.337C44.3249 42.724 43.6249 41.828 42.8379 41.06Z" fill="white"/>
<path fill-rule="evenodd" clip-rule="evenodd" d="M42.8379 41.0601C43.6249 41.8281 44.3239 42.7241 45.2169 43.3371C47.0199 44.5751 49.5169 44.5411 50.7479 43.4311C50.9409 43.6461 51.1469 43.8521 51.3239 44.0801C51.4369 44.2251 51.5069 44.4031 51.5919 44.5581C48.7749 46.7381 42.8879 45.3711 42.8379 41.0601Z" fill="#C5C4C3"/>
</svg>
