<svg width="128" height="128" viewBox="0 0 128 128" fill="none" xmlns="http://www.w3.org/2000/svg">
<path fill-rule="evenodd" clip-rule="evenodd" d="M36.9649 35.4592C37.8419 44.6912 38.7119 53.8712 39.6019 63.2572C41.0529 60.7622 42.1029 58.3692 43.6869 56.4092C45.1619 54.5832 47.0209 52.8982 49.0439 51.7312C51.6849 50.2072 55.1479 51.6422 56.0039 54.3452C56.2339 55.0702 55.6849 56.0422 55.4929 56.9012C54.8469 56.5602 54.0139 56.3722 53.5919 55.8502C51.7989 53.6332 50.7189 53.3712 48.7359 55.2872C45.0369 58.8632 42.9569 63.3432 42.1629 68.3782C42.0099 69.3522 42.6189 70.4452 42.8759 71.4832C43.8869 71.1352 45.0609 71.0072 45.8779 70.3992C48.5339 68.4222 50.1799 65.7332 51.0879 62.5192C51.2849 61.8232 52.3529 61.3742 53.0209 60.8112C53.3409 61.4692 54.0709 62.2442 53.9179 62.7652C52.5033 67.6049 50.991 72.4156 49.3819 77.1942C49.2199 77.6782 48.3309 77.9192 47.7779 78.2732C47.5549 77.6372 47.0859 76.9712 47.1609 76.3722C47.3289 75.0142 47.7659 73.6892 48.0709 72.4452L40.8309 75.7782C41.2359 80.4002 41.6559 85.5852 42.1539 90.7632C42.5359 94.7172 43.1829 95.7412 47.0769 96.4912C51.6209 97.3662 56.2499 97.9252 60.8689 98.2652C67.6713 98.7776 74.5115 98.1339 81.0989 96.3612C83.5709 95.6972 84.5569 94.0712 84.7339 91.6442C84.8959 89.4092 85.2579 87.1882 85.5089 84.9592C86.0019 80.5682 86.4809 76.1762 86.9849 71.6012C85.3179 72.6572 84.0069 73.8392 82.4739 74.3402C81.3579 74.7052 79.9499 74.1712 78.6709 74.0372C78.9159 72.8632 78.9009 71.5402 79.4669 70.5502C80.3889 68.9322 81.6909 67.5292 82.8309 66.0352L82.3399 65.4442C81.5229 65.9272 80.5079 66.2442 79.9269 66.9292C78.7449 68.3232 77.5879 69.8152 76.7969 71.4492C75.4729 74.1842 74.4639 77.0712 73.2789 79.8752C72.7639 81.0912 72.3199 82.9512 70.5949 82.2412C68.7499 81.4802 70.0479 79.8552 70.4809 78.6992C71.1699 76.8552 72.0799 75.0932 72.6959 73.7372C70.9499 73.9452 69.1799 74.1962 67.4019 74.3512C66.6499 74.4152 65.7559 74.0032 65.1409 74.2812C63.0959 75.2052 61.7999 74.8342 61.3749 72.5702C60.4279 73.1852 59.6259 74.0182 58.6809 74.2422C57.5339 74.5152 55.9779 74.6942 55.1379 74.1212C54.4649 73.6622 54.2199 71.9372 54.4499 70.9252C54.9069 68.9132 55.7609 66.9792 56.5719 65.0662C57.0739 63.8812 57.5789 61.9892 59.2729 62.8132C60.9469 63.6262 59.4269 64.9982 59.0409 66.0992C58.4419 67.8012 57.8319 69.5002 57.2279 71.2002L58.1879 71.7802C59.1019 70.9862 60.2409 70.3392 60.8809 69.3652C61.9289 67.7732 62.5619 65.9132 63.5539 64.2792C63.9649 63.6022 64.8499 63.2142 65.5209 62.6952C65.6569 63.5572 65.9829 64.4432 65.8749 65.2752C65.7679 66.1162 65.1769 66.8852 64.8939 67.7172C64.4689 68.9632 64.1259 70.2372 63.6939 71.6862C65.7369 71.7642 66.6119 70.9042 67.1889 69.3872C69.0149 64.5942 70.8609 59.8062 72.8679 55.0872C73.2109 54.2792 74.3769 53.8232 75.1639 53.2032C75.2549 54.1772 75.6889 55.2812 75.3799 56.1022C73.7349 60.4512 71.8879 64.7222 70.1519 69.0372C69.8589 69.7642 69.7649 70.5712 69.5799 71.3412C72.6389 69.9662 75.1919 68.4462 76.1239 65.1952C76.3519 64.4052 77.2859 63.8182 77.8949 63.1372L79.3109 64.6372C79.7409 64.2752 80.1349 63.8632 80.6019 63.5622C82.0719 62.6152 83.6549 61.7802 85.2049 63.2472C86.8089 64.7642 85.5949 66.2422 84.7569 67.5542C83.8449 68.9852 82.7279 70.2842 81.6999 71.6402C84.0119 70.1502 87.1689 69.4822 87.5889 66.2622C88.6129 58.3972 89.5129 50.5162 90.4259 42.6372C90.6969 40.3052 90.8419 37.9582 91.0529 35.5282C72.8429 39.9372 55.0239 39.9642 36.9649 35.4592ZM44.7809 96.8282C45.6579 99.1452 46.9899 101.421 47.3389 103.839C48.0759 108.986 48.2629 114.211 48.7849 119.393C48.8609 120.148 49.3499 121.185 49.9599 121.517C58.9399 126.397 68.0069 127.243 77.1689 121.906C78.5359 121.11 78.7889 120.059 78.9659 118.581C79.8229 111.4 77.9149 103.783 82.5059 97.0212C69.6499 100.21 57.1029 100.309 44.7809 96.8282ZM75.7719 36.7482C80.1339 36.3272 84.4429 35.3032 88.7569 34.4572C89.5699 34.2982 90.2919 33.6792 91.0559 33.2722C90.0489 32.3872 89.1779 31.9612 88.2679 31.8542C83.7379 31.3192 79.1919 30.9072 74.6649 30.3462C73.9809 30.2612 72.7599 29.4172 72.8109 29.2632C74.1319 25.2832 74.0669 20.7782 77.0649 17.4242C80.8539 13.1842 84.6819 8.98118 88.4809 4.77618C85.6549 1.73618 85.6169 1.73218 83.0559 4.39318C81.6079 5.89718 80.2849 7.54318 78.7139 8.90518C72.9009 13.9432 68.8179 19.9102 68.0219 27.7772C67.8389 29.5822 66.8479 30.2342 64.9529 30.2622C58.6969 30.3532 52.4339 30.5252 46.1919 30.9362C43.0989 31.1392 40.0439 31.9332 36.9709 32.4592L36.9429 33.6082C38.8659 34.2012 40.7519 34.9802 42.7159 35.3572C53.6599 37.4552 64.7069 37.8152 75.7719 36.7482ZM72.2759 34.0002C69.7989 36.0002 67.7519 36.0002 65.7749 34.0002H72.2759Z" fill="#EB4A4B"/>
</svg>
