<svg width="128" height="128" viewBox="0 0 128 128" fill="none" xmlns="http://www.w3.org/2000/svg">
<path d="M14.59 62.6702C15.6896 61.7664 16.4941 60.5545 16.9 59.1902C17.36 57.1902 17.26 55.2502 14.59 53.8902C7.81996 50.4702 3.44996 56.5702 2.76996 58.0002C2.08996 59.4302 1.02996 61.6802 1.76996 66.8402C2.50996 72.0002 4.95996 76.7402 12.77 78.5702C20.1799 80.2828 27.9543 79.3746 34.77 76.0002C41.61 72.7402 54.47 67.0002 57.71 66.4202C59.8345 65.8989 62.0125 65.6271 64.2 65.6102V57.7602C62.5005 54.7155 59.9534 52.23 56.868 50.6057C53.7826 48.9813 50.2919 48.2881 46.82 48.6102C34.43 49.5902 29.51 56.0002 26.49 58.7002C23.47 61.4002 17.88 67.8702 14.12 66.7002C10.36 65.5302 9.30996 61.0002 10.64 59.5602C11.97 58.1202 13.01 58.3802 13.82 59.5602C14.3429 60.5122 14.6083 61.5842 14.59 62.6702Z" fill="black"/>
<path d="M113.41 62.6702C112.31 61.7664 111.506 60.5545 111.1 59.1902C110.64 57.1902 110.74 55.2502 113.41 53.8902C120.17 50.4602 124.54 56.5602 125.22 58.0002C125.9 59.4402 126.96 61.6802 126.22 66.8402C125.48 72.0002 123.03 76.7402 115.22 78.5702C107.813 80.2804 100.043 79.3723 93.2298 76.0002C86.3898 72.7402 73.5298 67.0002 70.2898 66.4202C68.1653 65.8989 65.9873 65.6271 63.7998 65.6102V57.7602C65.4993 54.7155 68.0464 52.23 71.1318 50.6057C74.2172 48.9813 77.7079 48.2881 81.1798 48.6102C93.5698 49.6102 98.4998 55.9902 101.52 58.6902C104.54 61.3902 110.13 67.8602 113.89 66.6902C117.65 65.5202 118.7 60.9302 117.37 59.5002C116.04 58.0702 115 58.3202 114.19 59.5002C113.653 60.4689 113.384 61.563 113.41 62.6702Z" fill="black"/>
</svg>
