<svg width="128" height="128" viewBox="0 0 128 128" fill="none" xmlns="http://www.w3.org/2000/svg">
<path d="M6.53023 41.2101V45.7101C6.86368 45.3163 7.24304 44.9638 7.66023 44.6601C8.03107 44.399 8.44362 44.2028 8.88023 44.0801C9.34549 43.9493 9.82697 43.8853 10.3102 43.8901C11.0072 43.8853 11.6944 44.0537 12.3102 44.3801C12.797 44.6517 13.2178 45.0273 13.5428 45.4802C13.8677 45.933 14.0888 46.452 14.1902 47.0001C14.2689 47.5129 14.3056 48.0313 14.3002 48.5501V54.3601C14.3368 54.8563 14.187 55.3483 13.8802 55.7401C13.7425 55.8943 13.5726 56.0163 13.3825 56.0975C13.1925 56.1787 12.9868 56.2172 12.7802 56.2101C11.7802 56.2101 11.2802 55.5967 11.2802 54.3701V49.2401C11.3234 48.4694 11.1757 47.7 10.8502 47.0001C10.6777 46.7292 10.4324 46.5123 10.1423 46.3744C9.85229 46.2364 9.52926 46.1829 9.21023 46.2201C8.68703 46.2142 8.17559 46.3754 7.75023 46.6801C7.30001 46.9923 6.95211 47.4307 6.75023 47.9401C6.54975 48.7268 6.46885 49.5392 6.51023 50.3501V54.3501C6.54708 54.8417 6.40107 55.3295 6.10023 55.7201C5.96393 55.8766 5.79452 56.0009 5.60427 56.0839C5.41403 56.1669 5.2077 56.2066 5.00023 56.2001C4.00023 56.2001 3.50023 55.5867 3.50023 54.3601V41.2101C3.46253 40.7184 3.60075 40.2293 3.89023 39.8301C4.0286 39.6747 4.20032 39.5526 4.39254 39.4729C4.58476 39.3933 4.7925 39.3581 5.00023 39.3701C5.21179 39.3585 5.42325 39.3947 5.61888 39.4761C5.81451 39.5574 5.98929 39.6819 6.13023 39.8401C6.42751 40.232 6.56992 40.7198 6.53023 41.2101ZM25.0002 54.4901C24.3502 55.0094 23.6339 55.4399 22.8702 55.7701C22.1392 56.063 21.3577 56.2091 20.5702 56.2001C19.8765 56.2081 19.1908 56.0504 18.5702 55.7401C18.0093 55.4582 17.5383 55.0253 17.2102 54.4901C16.8941 53.9759 16.7278 53.3837 16.7302 52.7801C16.7131 51.9984 16.9957 51.2399 17.5202 50.6601C18.0957 50.0462 18.8527 49.6327 19.6802 49.4801L21.1102 49.1801C21.8702 49.0267 22.5369 48.8834 23.1102 48.7501C23.6836 48.6167 24.2736 48.4601 24.8802 48.2801C24.8961 47.659 24.7292 47.047 24.4002 46.5201C24.1485 46.2905 23.8461 46.1237 23.5176 46.0333C23.1891 45.943 22.8439 45.9316 22.5102 46.0001C21.9129 45.9641 21.3157 46.0739 20.7702 46.3201C20.3579 46.5637 20.0139 46.9077 19.7702 47.3201C19.4902 47.7467 19.2936 48.0301 19.1802 48.1701C19.0769 48.2522 18.9582 48.313 18.8312 48.3491C18.7042 48.3851 18.5713 48.3956 18.4402 48.3801C18.1158 48.3846 17.8016 48.2668 17.5602 48.0501C17.4401 47.9463 17.3446 47.817 17.2806 47.6718C17.2166 47.5265 17.1857 47.3688 17.1902 47.2101C17.2045 46.6448 17.4049 46.1 17.7602 45.6601C18.227 45.094 18.8388 44.6655 19.5302 44.4201C20.4897 44.0665 21.5081 43.9002 22.5302 43.9301C23.5972 43.8872 24.6626 44.0466 25.6702 44.4001C26.3833 44.6673 26.9644 45.2017 27.2902 45.8901C27.6375 46.7498 27.7977 47.6736 27.7602 48.6001V52.0601C27.7587 52.6386 27.8395 53.2143 28.0002 53.7701C28.1393 54.1683 28.2332 54.5809 28.2802 55.0001C28.2742 55.1655 28.2317 55.3275 28.1556 55.4744C28.0795 55.6214 27.9718 55.7497 27.8402 55.8501C27.5665 56.0978 27.2095 56.2335 26.8402 56.2301C26.4876 56.2104 26.1569 56.0523 25.9202 55.7901C25.5611 55.3963 25.2521 54.9597 25.0002 54.4901ZM24.8002 50.1101C24.1656 50.3257 23.5176 50.4994 22.8602 50.6301C22.0136 50.8101 21.4269 50.9434 21.1002 51.0301C20.757 51.1256 20.4393 51.2964 20.1702 51.5301C20.0276 51.654 19.9143 51.8079 19.8382 51.9808C19.7621 52.1537 19.7252 52.3412 19.7302 52.5301C19.7279 52.751 19.7732 52.9698 19.8629 53.1717C19.9526 53.3735 20.0847 53.5538 20.2502 53.7001C20.627 54.0323 21.1185 54.2045 21.6202 54.1801C22.197 54.1869 22.7668 54.053 23.2802 53.7901C23.7428 53.5727 24.132 53.2252 24.4002 52.7901C24.7241 52.083 24.8651 51.3059 24.8102 50.5301L24.8002 50.1101ZM33.5702 45.5501V45.9201C34.0312 45.2798 34.629 44.7503 35.3202 44.3701C35.9964 44.0324 36.7446 43.8642 37.5002 43.8801C38.2464 43.867 38.9833 44.046 39.6402 44.4001C40.236 44.7405 40.7113 45.2577 41.0002 45.8801C41.2016 46.2532 41.3338 46.6598 41.3902 47.0801C41.4566 47.6241 41.4866 48.172 41.4802 48.7201V54.3601C41.5168 54.8563 41.367 55.3483 41.0602 55.7401C40.92 55.8884 40.7511 56.0065 40.5636 56.0872C40.3762 56.1679 40.1743 56.2096 39.9702 56.2096C39.7662 56.2096 39.5642 56.1679 39.3768 56.0872C39.1894 56.0065 39.0204 55.8884 38.8802 55.7401C38.5758 55.351 38.4262 54.8629 38.4602 54.3701V49.3101C38.5194 48.5217 38.3927 47.7305 38.0902 47.0001C37.9184 46.7231 37.6705 46.5014 37.3762 46.3613C37.0819 46.2213 36.7535 46.1688 36.4302 46.2101C35.9139 46.2193 35.4137 46.3907 35.0002 46.7001C34.5437 47.023 34.1952 47.476 34.0002 48.0001C33.8138 48.8297 33.7398 49.6807 33.7802 50.5301V54.3301C33.8139 54.8276 33.6606 55.3198 33.3502 55.7101C33.2104 55.8608 33.0398 55.9799 32.8501 56.0593C32.6603 56.1386 32.4558 56.1764 32.2502 56.1701C32.0458 56.1757 31.8427 56.1356 31.6558 56.0525C31.4689 55.9695 31.303 55.8456 31.1702 55.6901C30.8658 55.301 30.7162 54.8129 30.7502 54.3201V45.6001C30.7163 45.1382 30.8514 44.6798 31.1302 44.3101C31.2563 44.1709 31.4109 44.0605 31.5835 43.9863C31.756 43.9121 31.9425 43.8759 32.1302 43.8801C32.383 43.8772 32.6318 43.9429 32.8502 44.0701C33.0753 44.2054 33.256 44.4035 33.3702 44.6401C33.5076 44.9234 33.5761 45.2352 33.5702 45.5501ZM52.8502 54.4701V54.1701C52.4923 54.592 52.09 54.9742 51.6502 55.3101C51.2591 55.6014 50.8235 55.8276 50.3602 55.9801C49.8691 56.1372 49.3559 56.2149 48.8402 56.2101C48.1469 56.2139 47.4622 56.0564 46.8402 55.7501C46.2152 55.4347 45.6686 54.9837 45.2402 54.4301C44.7845 53.832 44.4453 53.1535 44.2402 52.4301C44.0008 51.6186 43.8829 50.7761 43.8902 49.9301C43.7933 48.3328 44.2882 46.7557 45.2802 45.5001C45.7311 44.9791 46.2931 44.5659 46.9247 44.2907C47.5564 44.0156 48.2417 43.8855 48.9302 43.9101C49.6918 43.8866 50.4485 44.0406 51.1402 44.3601C51.8025 44.71 52.3955 45.1777 52.8902 45.7401V41.2601C52.8544 40.7621 52.9845 40.2663 53.2602 39.8501C53.3859 39.6914 53.5476 39.565 53.732 39.4815C53.9164 39.398 54.1181 39.3598 54.3202 39.3701C54.5187 39.3582 54.7173 39.3916 54.901 39.4678C55.0846 39.544 55.2485 39.6611 55.3802 39.8101C55.6485 40.1846 55.7791 40.6403 55.7502 41.1001V54.4701C55.7858 54.9384 55.6429 55.4028 55.3502 55.7701C55.2229 55.9077 55.0681 56.0171 54.8959 56.0912C54.7236 56.1653 54.5377 56.2024 54.3502 56.2001C54.161 56.2011 53.9738 56.1615 53.8013 56.0838C53.6288 56.0062 53.4749 55.8924 53.3502 55.7501C53.0254 55.4034 52.8464 54.9451 52.8502 54.4701ZM46.8502 50.0201C46.8292 50.7389 46.9586 51.4542 47.2302 52.1201C47.4325 52.64 47.7795 53.0912 48.2302 53.4201C48.6589 53.708 49.1638 53.8612 49.6802 53.8601C50.1972 53.8638 50.7043 53.718 51.1402 53.4401C51.6088 53.1263 51.9741 52.6809 52.1902 52.1601C52.508 51.484 52.6752 50.7471 52.6802 50.0001C52.7001 49.2869 52.5671 48.5776 52.2902 47.9201C52.0637 47.3862 51.6932 46.9257 51.2202 46.5901C50.7894 46.2889 50.2759 46.1282 49.7502 46.1301C49.2159 46.1221 48.6933 46.287 48.2602 46.6001C47.8051 46.9456 47.4582 47.414 47.2602 47.9501C47.0048 48.6028 46.8791 49.2992 46.8902 50.0001L46.8502 50.0201ZM58.7502 54.3601V41.2101C58.7109 40.7151 58.857 40.2232 59.1602 39.8301C59.295 39.675 59.463 39.5522 59.6517 39.4709C59.8404 39.3895 60.0449 39.3517 60.2502 39.3601C60.4575 39.3516 60.6642 39.3884 60.8559 39.4678C61.0476 39.5473 61.2197 39.6675 61.3602 39.8201C61.667 40.2118 61.8168 40.7038 61.7802 41.2001V54.3601C61.8139 54.8576 61.6606 55.3498 61.3502 55.7401C61.2104 55.8909 61.0398 56.0099 60.8501 56.0893C60.6603 56.1686 60.4558 56.2064 60.2502 56.2001C60.0458 56.2057 59.8427 56.1656 59.6558 56.0825C59.4689 55.9995 59.303 55.8756 59.1702 55.7201C58.8682 55.3336 58.7187 54.8496 58.7502 54.3601ZM73.3802 50.7801H67.4502C67.4446 51.4114 67.5886 52.035 67.8702 52.6001C68.0989 53.0831 68.4621 53.49 68.9161 53.772C69.3701 54.054 69.8958 54.1992 70.4302 54.1901C70.768 54.1933 71.1045 54.1496 71.4302 54.0601C71.7385 53.9707 72.0317 53.8359 72.3002 53.6601C72.5741 53.4862 72.8348 53.2923 73.0802 53.0801C73.3202 52.8734 73.6269 52.5934 74.0002 52.2401C74.1922 52.095 74.4301 52.0239 74.6702 52.0401C74.9439 52.0304 75.2113 52.1231 75.4202 52.3001C75.5187 52.3913 75.5957 52.5031 75.6458 52.6276C75.696 52.7521 75.718 52.8861 75.7102 53.0201C75.6945 53.376 75.584 53.7212 75.3902 54.0201C75.1272 54.4309 74.7877 54.7873 74.3902 55.0701C73.8976 55.4391 73.3467 55.7231 72.7602 55.9101C72.03 56.1431 71.2665 56.2545 70.5002 56.2401C69.6727 56.2812 68.8457 56.1505 68.0712 55.8562C67.2967 55.5619 66.5916 55.1103 66.0002 54.5301C65.4366 53.9234 65.0003 53.2101 64.7169 52.432C64.4335 51.654 64.3088 50.8271 64.3502 50.0001C64.3426 49.1535 64.4779 48.3117 64.7502 47.5101C64.9938 46.7679 65.3926 46.0861 65.9202 45.5101C66.4466 44.9523 67.0929 44.5214 67.8102 44.2501C68.6052 43.9483 69.45 43.7991 70.3002 43.8101C71.3491 43.7889 72.3847 44.0478 73.3002 44.5601C74.1027 45.0161 74.761 45.6883 75.2002 46.5001C75.6348 47.2619 75.8656 48.123 75.8702 49.0001C75.8702 49.7601 75.6536 50.2534 75.2202 50.4801C74.6383 50.7207 74.0085 50.8234 73.3802 50.7801ZM67.4502 49.0601H72.9502C72.9479 48.2097 72.651 47.3864 72.1102 46.7301C71.8598 46.4799 71.5592 46.2855 71.2283 46.1597C70.8974 46.0339 70.5436 45.9795 70.1902 46.0001C69.8424 45.9893 69.4964 46.0534 69.1755 46.188C68.8546 46.3225 68.5663 46.5245 68.3302 46.7801C67.8002 47.4262 67.4917 48.2254 67.4502 49.0601ZM80.9202 41.1001V45.7301C81.4246 45.1875 82.0119 44.7285 82.6602 44.3701C83.344 44.0357 84.0995 43.8743 84.8602 43.9001C85.7944 43.8803 86.7145 44.1303 87.5102 44.6201C88.2931 45.1229 88.9091 45.8468 89.2802 46.7001C89.7209 47.7151 89.9359 48.8138 89.9102 49.9201C89.9197 50.7761 89.8017 51.6288 89.5602 52.4501C89.3552 53.1735 89.0159 53.852 88.5602 54.4501C88.1267 55.0015 87.5725 55.4462 86.9402 55.7501C86.2879 56.0611 85.5729 56.2184 84.8502 56.2101C84.3995 56.2004 83.9521 56.1297 83.5202 56.0001C83.1676 55.9019 82.8308 55.7538 82.5202 55.5601C82.2557 55.3983 82.0078 55.2107 81.7802 55.0001C81.5736 54.8067 81.3069 54.5167 80.9802 54.1301V54.4301C81.0135 54.8967 80.8667 55.3583 80.5702 55.7201C80.4426 55.8581 80.288 55.9684 80.116 56.0441C79.944 56.1198 79.7582 56.1592 79.5702 56.1601C79.3816 56.1637 79.1945 56.1262 79.0218 56.0502C78.8491 55.9742 78.695 55.8616 78.5702 55.7201C78.2922 55.3499 78.1572 54.8918 78.1902 54.4301V41.2401C78.1559 40.7485 78.286 40.2595 78.5602 39.8501C78.6797 39.7003 78.8321 39.5801 79.0055 39.4986C79.1789 39.4171 79.3687 39.3765 79.5602 39.3801C79.7626 39.3678 79.9652 39.4019 80.1524 39.4799C80.3396 39.5579 80.5064 39.6777 80.6402 39.8301C80.8769 40.2086 80.9758 40.6571 80.9202 41.1001ZM81.0602 50.1001C80.9952 51.0962 81.2897 52.0826 81.8902 52.8801C82.1515 53.2015 82.4829 53.4588 82.8591 53.6321C83.2352 53.8055 83.6462 53.8903 84.0602 53.8801C84.4485 53.8809 84.8315 53.7908 85.1788 53.6172C85.5261 53.4436 85.8279 53.1911 86.0602 52.8801C86.6595 52.0451 86.943 51.0245 86.8602 50.0001C86.8701 49.3182 86.7548 48.6404 86.5202 48.0001C86.3206 47.4677 85.9738 47.0029 85.5202 46.6601C85.0926 46.3437 84.572 46.1784 84.0402 46.1901C83.4904 46.1819 82.9518 46.3463 82.5002 46.6601C82.0372 47.0029 81.6774 47.4665 81.4602 48.0001C81.188 48.6695 81.0553 49.3875 81.0702 50.1101L81.0602 50.1001ZM100 54.4901C99.3502 55.0094 98.6339 55.4399 97.8702 55.7701C97.1392 56.063 96.3577 56.2091 95.5702 56.2001C94.8765 56.2081 94.1908 56.0504 93.5702 55.7401C93.0093 55.4582 92.5383 55.0253 92.2102 54.4901C91.8941 53.9759 91.7278 53.3837 91.7302 52.7801C91.7131 51.9984 91.9957 51.2399 92.5202 50.6601C93.0957 50.0462 93.8527 49.6327 94.6802 49.4801L96.1102 49.1801C96.8702 49.0267 97.5369 48.8834 98.1102 48.7501C98.6836 48.6167 99.2736 48.4601 99.8802 48.2801C99.8961 47.659 99.7292 47.047 99.4002 46.5201C99.1518 46.295 98.8544 46.1309 98.5316 46.0406C98.2088 45.9504 97.8693 45.9365 97.5402 46.0001C96.9429 45.9641 96.3457 46.0739 95.8002 46.3201C95.3879 46.5637 95.0439 46.9077 94.8002 47.3201C94.5202 47.7467 94.3236 48.0301 94.2102 48.1701C94.1068 48.2522 93.9882 48.313 93.8612 48.3491C93.7342 48.3851 93.6013 48.3956 93.4702 48.3801C93.1425 48.3686 92.8314 48.2327 92.6002 48.0001C92.4801 47.8963 92.3846 47.767 92.3206 47.6218C92.2566 47.4765 92.2257 47.3188 92.2302 47.1601C92.2445 46.5948 92.4449 46.05 92.8002 45.6101C93.267 45.044 93.8788 44.6155 94.5702 44.3701C95.5297 44.0165 96.5481 43.8502 97.5702 43.8801C98.6372 43.8372 99.7026 43.9966 100.71 44.3501C101.423 44.6173 102.004 45.1517 102.33 45.8401C102.678 46.6998 102.838 47.6236 102.8 48.5501V52.0101C102.805 52.614 102.899 53.2139 103.08 53.7901C103.216 54.1754 103.31 54.5744 103.36 54.9801C103.354 55.1455 103.312 55.3075 103.236 55.4544C103.16 55.6014 103.052 55.7297 102.92 55.8301C102.646 56.0778 102.289 56.2135 101.92 56.2101C101.568 56.1904 101.237 56.0323 101 55.7701C100.614 55.3872 100.278 54.9571 100 54.4901ZM99.8002 50.1101C99.1656 50.3257 98.5176 50.4994 97.8602 50.6301C97.0136 50.8101 96.4269 50.9434 96.1002 51.0301C95.757 51.1256 95.4393 51.2964 95.1702 51.5301C95.0276 51.654 94.9143 51.8079 94.8382 51.9808C94.7621 52.1537 94.7252 52.3412 94.7302 52.5301C94.7279 52.751 94.7732 52.9698 94.8629 53.1717C94.9526 53.3735 95.0847 53.5538 95.2502 53.7001C95.627 54.0323 96.1185 54.2045 96.6202 54.1801C97.197 54.1869 97.7668 54.053 98.2802 53.7901C98.7428 53.5727 99.132 53.2252 99.4002 52.7901C99.7241 52.083 99.8651 51.3059 99.8102 50.5301L99.8002 50.1101ZM108.85 51.8301V54.3601C108.884 54.8576 108.731 55.3498 108.42 55.7401C108.28 55.8909 108.11 56.0099 107.92 56.0893C107.73 56.1686 107.526 56.2064 107.32 56.2001C107.117 56.2056 106.915 56.1663 106.728 56.0851C106.541 56.0039 106.375 55.8827 106.24 55.7301C105.933 55.3383 105.784 54.8463 105.82 54.3501V45.9201C105.82 44.5867 106.314 43.9201 107.3 43.9201C107.508 43.9012 107.717 43.9354 107.907 44.0193C108.098 44.1033 108.264 44.2343 108.39 44.4001C108.644 44.8256 108.773 45.3145 108.76 45.8101C109.051 45.2797 109.429 44.8029 109.88 44.4001C110.316 44.0617 110.859 43.8913 111.41 43.9201C112.057 43.9241 112.693 44.0891 113.26 44.4001C113.517 44.5022 113.738 44.6765 113.898 44.9019C114.058 45.1273 114.149 45.3941 114.16 45.6701C114.166 45.8417 114.136 46.0126 114.07 46.1713C114.005 46.33 113.906 46.4728 113.78 46.5901C113.562 46.8147 113.263 46.944 112.95 46.9501C112.677 46.9093 112.408 46.8389 112.15 46.7401C111.787 46.6123 111.405 46.5414 111.02 46.5301C110.627 46.5129 110.24 46.6371 109.93 46.8801C109.624 47.1473 109.395 47.493 109.27 47.8801C109.1 48.4125 108.993 48.9629 108.95 49.5201C108.884 50.1467 108.85 50.9167 108.85 51.8301ZM125 52.2401C125.036 53.008 124.818 53.7663 124.381 54.3986C123.944 55.0309 123.311 55.5022 122.58 55.7401C121.65 56.0692 120.667 56.2251 119.68 56.2001C118.723 56.2245 117.77 56.0544 116.88 55.7001C116.206 55.4432 115.613 55.0118 115.16 54.4501C114.819 54.023 114.626 53.4965 114.61 52.9501C114.608 52.7921 114.638 52.6353 114.698 52.4893C114.758 52.3432 114.848 52.2108 114.96 52.1001C115.079 51.9836 115.219 51.8924 115.374 51.8322C115.529 51.7721 115.694 51.7441 115.86 51.7501C115.991 51.7386 116.123 51.753 116.248 51.7925C116.373 51.8319 116.49 51.8957 116.59 51.9801C116.788 52.1724 116.953 52.3952 117.08 52.6401C117.346 53.1312 117.731 53.5473 118.2 53.8501C118.743 54.1427 119.355 54.2811 119.97 54.2501C120.497 54.2702 121.018 54.127 121.46 53.8401C121.627 53.7463 121.768 53.6119 121.869 53.4493C121.971 53.2868 122.029 53.1013 122.04 52.9101C122.057 52.6777 122.008 52.4454 121.901 52.2388C121.793 52.0323 121.63 51.8597 121.43 51.7401C120.8 51.4131 120.127 51.1774 119.43 51.0401C118.559 50.8365 117.707 50.5622 116.88 50.2201C116.276 49.9713 115.738 49.5843 115.31 49.0901C114.911 48.6073 114.702 47.996 114.72 47.3701C114.72 46.7549 114.908 46.1545 115.26 45.6501C115.662 45.0787 116.217 44.6318 116.86 44.3601C117.669 44.0188 118.542 43.8552 119.42 43.8801C120.131 43.8706 120.84 43.9512 121.53 44.1201C122.086 44.2535 122.616 44.4764 123.1 44.7801C123.494 45.0097 123.835 45.3198 124.1 45.6901C124.309 45.9825 124.424 46.3311 124.43 46.6901C124.435 46.8484 124.406 47.0058 124.346 47.1523C124.285 47.2987 124.195 47.4308 124.08 47.5401C123.804 47.7779 123.444 47.8966 123.08 47.8701C122.793 47.8758 122.514 47.7802 122.29 47.6001C122.013 47.3604 121.762 47.0923 121.54 46.8001C121.32 46.5123 121.044 46.271 120.73 46.0901C120.337 45.892 119.9 45.799 119.46 45.8201C118.979 45.8013 118.503 45.9229 118.09 46.1701C117.93 46.253 117.795 46.3776 117.7 46.5307C117.605 46.6839 117.553 46.8599 117.55 47.0401C117.549 47.1928 117.584 47.3436 117.654 47.4796C117.723 47.6155 117.825 47.7323 117.95 47.8201C118.277 48.0506 118.643 48.22 119.03 48.3201C119.484 48.4534 120.104 48.6167 120.89 48.8101C121.688 48.9884 122.46 49.2638 123.19 49.6301C123.722 49.8968 124.184 50.2837 124.54 50.7601C124.846 51.1922 125.008 51.7105 125 52.2401Z" fill="black"/>
<path d="M30.95 80.3099C31.6983 79.6944 32.2451 78.8689 32.52 77.9399C32.7829 77.2538 32.7657 76.4919 32.472 75.8184C32.1783 75.145 31.6317 74.6139 30.95 74.3399C26.35 72.0099 23.38 76.1599 22.95 77.1299C22.52 78.0999 21.76 79.6299 22.24 83.1299C22.72 86.6299 24.41 89.8599 29.69 91.1299C34.7417 92.3029 40.044 91.6843 44.69 89.3799C49.35 87.1599 58.09 83.2599 60.3 82.8699C61.7436 82.5159 63.2236 82.3313 64.71 82.3199V76.9999C63.5569 74.927 61.825 73.2349 59.7259 72.1303C57.6268 71.0258 55.2514 70.5565 52.89 70.7799C44.46 71.4399 41.11 75.7799 39.06 77.6399C37.01 79.4999 33.2 83.8799 30.65 83.1099C28.1 82.3399 27.38 79.1899 28.28 78.2199C29.18 77.2499 29.89 77.4199 30.45 78.2199C30.7934 78.862 30.9656 79.5818 30.95 80.3099Z" fill="black"/>
<path d="M98.1702 80.3099C97.4218 79.6944 96.875 78.8689 96.6002 77.9399C96.3372 77.2538 96.3544 76.4919 96.6481 75.8184C96.9418 75.145 97.4885 74.6139 98.1702 74.3399C102.77 72.0099 105.74 76.1599 106.17 77.1299C106.6 78.0999 107.36 79.6299 106.88 83.1299C106.4 86.6299 104.71 89.8599 99.4302 91.1299C94.3785 92.3029 89.0761 91.6843 84.4302 89.3799C79.7702 87.1599 71.0302 83.2599 68.8202 82.8699C67.3765 82.5159 65.8965 82.3313 64.4102 82.3199V76.9999C65.5633 74.927 67.2952 73.2349 69.3942 72.1303C71.4933 71.0258 73.8687 70.5565 76.2302 70.7799C84.6602 71.4399 88.0102 75.7799 90.0602 77.6399C92.1101 79.4999 95.9202 83.8799 98.4702 83.1099C101.02 82.3399 101.74 79.1899 100.84 78.2199C99.9401 77.2499 99.2302 77.4199 98.6702 78.2199C98.3268 78.862 98.1546 79.5818 98.1702 80.3099Z" fill="black"/>
</svg>
