<svg width="128" height="128" viewBox="0 0 128 128" fill="none" xmlns="http://www.w3.org/2000/svg">
<path d="M47.1001 52.5V71.2H42.0001V63.9H35.7001V71.2H30.6001V52.5H35.7001V59.4H42.0001V52.5H47.1001ZM53.8001 71.5C53.1001 71.5 52.5001 71.4 51.9001 71.2C51.3001 71 50.8001 70.7 50.3001 70.3C49.9001 69.9 49.5001 69.4 49.3001 68.9C49.1001 68.3 49.0001 67.7 49.0001 67C49.0001 66.3 49.1001 65.7 49.4001 65.1C49.7001 64.5 50.1001 64 50.6001 63.6C51.1001 63.2 51.8001 62.9 52.5001 62.6C53.2001 62.4 54.0001 62.3 54.9001 62.3C56.0001 62.3 57.0001 62.5 57.7001 62.8V62.4C57.7001 61.8 57.5001 61.3 57.1001 61C56.7001 60.7 56.1001 60.5 55.3001 60.5C54.5001 60.5 53.8001 60.6 53.1001 60.9C52.4001 61.1 51.7001 61.5 51.0001 62L49.6001 58.9C51.4001 57.7 53.5001 57.1 55.8001 57.1C58.0001 57.1 59.7001 57.6 60.9001 58.6C62.1001 59.6 62.7001 61.1 62.7001 63V65.7C62.7001 66.2 62.8001 66.5 63.0001 66.7C63.2001 66.9 63.5001 67 63.9001 67V71.2C63.4001 71.3 63.0001 71.3 62.6001 71.4C62.2001 71.5 61.8001 71.5 61.5001 71.5C60.6001 71.5 59.9001 71.3 59.4001 71C58.9001 70.7 58.6001 70.2 58.5001 69.6L58.4001 69.1C57.8001 69.9 57.1001 70.5 56.3001 70.9C55.6001 71.3 54.7001 71.5 53.8001 71.5ZM55.3001 67.9C55.6001 67.9 55.9001 67.9 56.2001 67.8C56.5001 67.7 56.8001 67.6 57.0001 67.4C57.2001 67.3 57.4001 67.1 57.5001 67C57.6001 66.8 57.7001 66.6 57.7001 66.5V65.5C57.4001 65.4 57.1001 65.3 56.7001 65.2C56.3001 65.1 56.0001 65.1 55.8001 65.1C55.2001 65.1 54.7001 65.2 54.3001 65.5C53.9001 65.8 53.7001 66.2 53.7001 66.6C53.7001 67 53.8001 67.3 54.1001 67.5C54.4001 67.8 54.8001 67.9 55.3001 67.9ZM71.8001 71.5C71.2001 71.5 70.6001 71.5 69.9001 71.4C69.2001 71.3 68.6001 71.2 67.9001 71.1C67.3001 71 66.7001 70.8 66.1001 70.6C65.5001 70.4 65.0001 70.2 64.5001 69.9L66.4001 66.5C67.4001 67 68.3001 67.4 69.2001 67.7C70.1001 68 70.9001 68.1 71.7001 68.1C72.6001 68.1 73.0001 67.9 73.0001 67.4C73.0001 67.2 72.8001 67 72.5001 66.8C72.1001 66.6 71.5001 66.4 70.5001 66.2C69.5001 65.9 68.7001 65.7 68.0001 65.4C67.3001 65.1 66.8001 64.8 66.4001 64.5C66.0001 64.2 65.7001 63.8 65.5001 63.4C65.3001 63 65.2001 62.5 65.2001 62C65.2001 61.3 65.3001 60.6 65.6001 60.1C65.9001 59.5 66.3001 59 66.8001 58.5C67.3001 58.1 67.9001 57.7 68.7001 57.5C69.4001 57.3 70.2001 57.1 71.1001 57.1C72.0001 57.1 73.0001 57.2 74.1001 57.5C75.2001 57.8 76.3001 58.1 77.4001 58.7L75.5001 61.9C74.5001 61.4 73.7001 61.1 73.1001 60.9C72.5001 60.7 71.8001 60.6 71.2001 60.6C70.8001 60.6 70.5001 60.7 70.3001 60.8C70.1001 60.9 70.0001 61.1 70.0001 61.3C70.0001 61.4 70.0001 61.6 70.1001 61.7C70.2001 61.8 70.3001 61.9 70.5001 62C70.7001 62.1 70.9001 62.2 71.2001 62.3C71.5001 62.4 71.9001 62.5 72.4001 62.6C73.5001 62.9 74.3001 63.1 75.1001 63.4C75.8001 63.7 76.4001 64 76.8001 64.3C77.2001 64.6 77.5001 65 77.7001 65.5C77.9001 65.9 78.0001 66.4 78.0001 67C78.0001 68.4 77.5001 69.5 76.4001 70.4C75.1001 71.1 73.7001 71.5 71.8001 71.5ZM88.7001 71.2L85.6001 66.1L84.6001 67.2V71.1H79.6001V52H84.6001V62.5L88.3001 57.4H93.6001L88.8001 63.5L94.0001 71.3H88.7001V71.2Z" fill="black"/>
<path d="M101 71.5C99.8 71.5 98.7 71.3 97.8 70.9C96.9 70.5 96.1 70 95.4 69.3C94.8 68.7 94.3 67.9 94 67.1C93.7 66.3 93.5 65.4 93.5 64.4C93.5 63.4 93.7 62.5 94 61.6C94.3 60.7 94.8 59.9 95.4 59.3C96 58.6 96.8 58.1 97.8 57.7C98.7 57.3 99.8 57.1 101.1 57.1C102.3 57.1 103.4 57.3 104.4 57.7C105.3 58.1 106.1 58.6 106.8 59.3C107.4 59.9 107.9 60.7 108.2 61.6C108.5 62.5 108.7 63.4 108.7 64.3C108.7 64.6 108.7 64.8 108.6 65.1C108.6 65.4 108.6 65.6 108.5 65.8H98.8C98.9 66.5 99.1 67.1 99.6 67.4C100.1 67.7 100.6 67.9 101.2 67.9C101.7 67.9 102.3 67.8 102.7 67.5C103.2 67.3 103.5 66.9 103.7 66.5L107.9 67.7C107.3 68.8 106.5 69.7 105.3 70.4C104.1 71.1 102.7 71.5 101 71.5ZM103.2 62.8C103.1 62.1 102.9 61.6 102.5 61.2C102.1 60.8 101.6 60.6 100.9 60.6C100.3 60.6 99.7 60.8 99.3 61.2C98.9 61.6 98.7 62.1 98.6 62.8H103.2ZM110.1 52H115.1V65.4C115.1 66.5 115.5 67 116.4 67C116.6 67 116.8 67 117.1 66.9C117.3 66.8 117.6 66.7 117.8 66.6L118.4 70.6C117.8 70.9 117.1 71.1 116.4 71.3C115.7 71.5 115 71.5 114.3 71.5C113 71.5 111.9 71.2 111.2 70.5C110.5 69.8 110.1 68.8 110.1 67.5V52ZM119.7 52H124.7V65.4C124.7 66.5 125.1 67 126 67C126.2 67 126.4 67 126.7 66.9C126.9 66.8 127.2 66.7 127.4 66.6L128 70.6C127.4 70.9 126.7 71.1 126 71.3C125.3 71.5 124.6 71.5 123.9 71.5C122.6 71.5 121.5 71.2 120.8 70.5C120.1 69.8 119.7 68.8 119.7 67.5V52ZM0 71.3L6.2 62L0 52.6H4.7L10.9 61.9L4.7 71.2H0V71.3Z" fill="black"/>
<path d="M6.2002 71.3002L12.4002 62.0002L6.2002 52.7002H10.9002L23.4002 71.4002H18.7002L14.8002 65.6002L10.9002 71.4002H6.2002V71.3002ZM21.3002 65.8002L19.2002 62.7002H26.5002V65.8002H21.3002ZM18.2002 61.1002L16.1002 58.0002H26.5002V61.1002H18.2002Z" fill="black"/>
</svg>
