<svg width="128" height="128" viewBox="0 0 128 128" fill="none" xmlns="http://www.w3.org/2000/svg">
<path d="M15.7 64L64.1 15.6L0 0L15.7 64Z" fill="#F6B214"/>
<path d="M64 15.7L112.4 64.1L128 0L64 15.7Z" fill="#F17321"/>
<path d="M112.3 64L63.8999 112.4L128 128L112.3 64Z" fill="#EF5E21"/>
<path d="M64 112.3L15.6 63.8999L0 128L64 112.3Z" fill="#F6B214"/>
<path d="M15.6001 63.9002L64.0001 15.7002L112.3 64.0002L64.0001 112.3L15.6001 63.9002Z" fill="#EA8220"/>
<path d="M15.6 63.9L0 32V0L15.6 63.9ZM0 128V96L15.6 63.9L0 128Z" fill="#F8EF23"/>
<path d="M0 0H32L64 15.7L0 0ZM128 0L64 15.7L96 0H128Z" fill="#F8C713"/>
<path d="M112.3 64L128 0V32L112.3 64ZM128 128V96L112.3 64L128 128Z" fill="#EC4822"/>
<path d="M0 128L64 112.3L32 128H0Z" fill="#EF5E21"/>
<path d="M128 128H96L64 112.3L128 128Z" fill="#EA8220"/>
</svg>
