<svg width="128" height="128" viewBox="0 0 128 128" fill="none" xmlns="http://www.w3.org/2000/svg">
<path d="M114 13.9C114 7.3 108.7 2 102.1 2H25.9C19.3 2 14 7.3 14 13.9V114.2C14 120.8 19.3 126.1 25.9 126.1H102.2C108.8 126.1 114.1 120.8 114.1 114.2V13.9H114ZM110 14V113.3C110 118 106.5 122 101.8 122H26.5C21.8 122 18 118 18 113.3V14C18 9.3 21.9 6 26.5 6H101.7C106.4 6 110.1 9.6 110.1 14.3L110 14ZM37 108.7L51.1 94.6L37 80.5V108.7ZM51 47.8V18.4L37.1 18.5C37.1 18.5 37.2 64.4 37.3 64.2C80.1 47.5 77 59.4 77 59.4V108.8L76.9 109H90V59.5C90 32.4 51 47.8 51 47.8ZM70 36H84.8C92.8 26 95.5 19 95.5 19H80.2C80.2 19 75.3 30 70 36Z" fill="#6762A6"/>
</svg>
