<svg width="128" height="128" viewBox="0 0 128 128" fill="none" xmlns="http://www.w3.org/2000/svg">
<path d="M39.3 89H92.6C97.2 89 100.9 85.3 100.9 80.7V10.3C100.9 5.7 97.2 2 92.6 2H39.3C34.7 2 31 5.7 31 10.3V80.6C31 85.3 34.7 89 39.3 89ZM77.5 14H88.3C88.3 14 86.5 19 80.8 26H70.4C74.1 22 77.5 14 77.5 14ZM57 13.6V34.3C57 34.3 84 23.5 84 42.5V77H75.2L75 77.1V42.3C75 42.3 77.3 34 47.2 45.7C47.1 45.8 47.1 13.6 47.1 13.6H57ZM47 57.2L56.9 67.1L47 77V57.2ZM35.3 102.8C31.3 102.8 28 103.3 25.6 104.2C24.7 107.4 24.3 110.8 24.3 114.6C24.3 121.6 25.5 125.9 33.5 125.9C37.2 125.9 40.3 124.8 42.8 123.6L42 120C39.6 120.9 36.5 121.7 33.8 121.7C30.3 121.7 29.2 120.8 29 114.8H44V112.6C44 106.5 41.8 102.8 35.3 102.8ZM29 112C29.1 109 29.3 108.2 29.5 107.3C31.4 106.9 33.6 106.9 35.1 106.9C38.4 106.9 39 109 39 112H29ZM13.9 102.8C11.2 102.8 9 103.5 6 104.3V94H2V125H6V108.4C9 107.4 11 106.9 13 106.9C14 106.9 15 107.4 15 108.6V125.5L15.4 125.1H20V109.3C20 105.5 18.2 102.8 13.9 102.8ZM122 103V120.4C119 121.4 116.4 121.9 114.3 121.9C113.3 121.9 112 121.4 112 120.2V103H108V119.7C108 123.4 109.3 126 113.6 126C116.3 126 121 125.6 126 122.5V103H122ZM103.8 103H98.4C97.1 106 95.2 110 92.8 112H91V94H86V125H91V115H93.1C95.9 118 97.7 122 99.1 125H104.7C102.6 121 100.2 116.6 97 112.6C99.6 109.9 102 107 103.8 103ZM48 125H52V108.4C54 107.6 57 107.3 59 107.2V103.2C56 103.4 52 104.1 48 106.3V125ZM71.4 102.8C65.3 102.8 61.1 106 61.1 114.5C61.1 122.5 64.3 126 71.4 126C77.5 126 81.7 122.8 81.7 114.3C81.7 106.3 78.5 102.8 71.4 102.8ZM71.4 122C67.4 122 65.7 120.6 65.7 114.5C65.7 108.9 67.7 106.8 71.4 106.8C75.4 106.8 77.1 108.2 77.1 114.3C77 119.9 75 122 71.4 122Z" fill="#6762A6"/>
</svg>
