<svg width="128" height="128" viewBox="0 0 128 128" fill="none" xmlns="http://www.w3.org/2000/svg">
<path d="M102.1 2H25.9C19.3 2 14 7.3 14 13.9V114.2C14 120.8 19.3 126.1 25.9 126.1H102.2C108.8 126.1 114.1 120.8 114.1 114.2V13.9C114 7.3 108.7 2 102.1 2ZM37 108.7V80.5L51.1 94.6L37 108.7ZM90 109H76.9L77 108.8V59.4C77 59.4 80.1 47.6 37.3 64.2C37.2 64.4 37.1 18.5 37.1 18.5L51 18.4V47.8C51 47.8 90 32.4 90 59.5V109ZM84.8 36H70C75.3 30 80.2 19 80.2 19H95.5C95.5 19 92.9 26 84.8 36Z" fill="#6762A6"/>
</svg>
