<svg width="128" height="128" viewBox="0 0 128 128" fill="none" xmlns="http://www.w3.org/2000/svg">
<path d="M35.3 101.8C31.3 101.8 28 102.3 25.6 103.2C24.7 106.4 24.3 109.8 24.3 113.6C24.3 120.6 25.5 124.9 33.5 124.9C37.2 124.9 40.3 123.8 42.8 122.6L42 119C39.6 119.9 36.5 120.7 33.8 120.7C30.3 120.7 29.2 119.8 29 113.8H44V111.6C44 105.5 41.8 101.8 35.3 101.8ZM29 111C29.1 108 29.3 107.2 29.5 106.3C31.4 105.9 33.6 105.9 35.1 105.9C38.4 105.9 39 108 39 111H29ZM13.9 101.8C11.2 101.8 9 102.5 6 103.3V93H2V124H6V107.4C9 106.4 11 105.9 13 105.9C14 105.9 15 106.4 15 107.6V124.5L15.4 124.1H20V108.3C20 104.5 18.2 101.8 13.9 101.8ZM122 102V119.4C119 120.4 116.4 120.9 114.3 120.9C113.3 120.9 112 120.4 112 119.2V102H108V118.7C108 122.4 109.3 125 113.6 125C116.3 125 121 124.6 126 121.5V102H122ZM103.8 102H98.4C97.1 105 95.2 109 92.8 111H91V93H86V124H91V114H93.1C95.9 117 97.7 121 99.1 124H104.7C102.6 120 100.2 115.6 97 111.6C99.6 108.9 102 106 103.8 102ZM48 124H52V107.4C54 106.6 57 106.3 59 106.2V102.2C56 102.4 52 103.1 48 105.3V124ZM71.4 101.8C65.3 101.8 61.1 105 61.1 113.5C61.1 121.5 64.3 125 71.4 125C77.5 125 81.7 121.8 81.7 113.3C81.7 105.3 78.5 101.8 71.4 101.8ZM71.4 121C67.4 121 65.7 119.6 65.7 113.5C65.7 107.9 67.7 105.8 71.4 105.8C75.4 105.8 77.1 107.2 77.1 113.3C77 118.9 75 121 71.4 121ZM99 10.3C99 5.7 95.3 2 90.7 2H37.3C32.7 2 29 5.7 29 10.3V80.7C29 85.3 32.7 89 37.3 89H90.7C95.3 89 99 85.3 99 80.7V10.3ZM32 10.8C32 7.5 34.5 5 37.7 5H90.2C93.5 5 96 7.6 96 10.8V80.2C96 83.5 93.5 86.1 90.3 86.1H37.7C34.4 86.1 32 83.5 32 80.2V10.8ZM85.9 14H75.2C75.2 14 71.8 22 68.1 26H78.5C84.1 19 85.9 14 85.9 14ZM45 76.9L54.8 67L45 57.2V76.9ZM73 42.4V76.9L72.9 77H82V42.5C82 23.6 55 34.3 55 34.3V13.8L45.2 13.9C45.2 13.9 45.2 45.9 45.3 45.8C75.2 34.2 73 42.4 73 42.4Z" fill="#6762A6"/>
</svg>
