<svg width="128" height="128" viewBox="0 0 128 128" fill="none" xmlns="http://www.w3.org/2000/svg">
<path d="M19.5688 27L27.6558 116.919L63.9448 126.601L100.335 117.102L108.431 27H19.5688ZM91.6098 47.471L91.1028 53.305L90.8798 56H48.3108L49.3278 68H89.8678L89.5968 70.231L86.9818 99.14L86.7898 100.83L63.9998 106.964V106.959L63.9728 106.971L41.1958 101.055L39.6498 84H50.8178L51.6088 92.46L63.9938 95.599L63.9998 95.365V95.377L76.4118 92.728L77.7078 79H39.1528L36.4188 48.164L36.1518 45H91.8758L91.6098 47.471ZM27.9558 1.62695H33.5778V7.18295H38.7218V1.62695H44.3448V18.449H38.7218V12.816H33.5788V18.449H27.9558V1.62695ZM51.7378 7.20595H46.7878V1.62695H62.3128V7.20595H57.3608V18.449H51.7378V7.20595ZM64.7768 1.62695H70.6388L74.2458 7.53795L77.8488 1.62695H83.7138V18.449H78.1128V10.111L74.2458 16.092H74.1479L70.2778 10.111V18.449H64.7758V1.62695H64.7768ZM86.5128 1.62695H92.1368V12.889H100.044V18.45H86.5128V1.62695Z" fill="#E44D26"/>
</svg>
