<svg width="128" height="128" viewBox="0 0 128 128" fill="none" xmlns="http://www.w3.org/2000/svg">
<path d="M27.854 116.354L19.811 26.1431H108.189L100.138 116.34L63.946 126.373L27.854 116.354Z" fill="#E44D26"/>
<path d="M64 118.704L93.244 110.596L100.125 33.52H64V118.704Z" fill="#F16529"/>
<path d="M63.9998 66.978H49.3588L48.3488 55.647H63.9998V44.583H36.2568L36.5208 47.552L39.2408 78.041H63.9998V66.978ZM63.9998 95.711L63.9508 95.724L51.6298 92.396L50.8418 83.573H39.7348L41.2848 100.945L63.9488 107.237L63.9998 107.222V95.711Z" fill="#EBEBEB"/>
<path d="M28.0342 1.62695H33.6562V7.18295H38.8002V1.62695H44.4232V18.449H38.8002V12.816H33.6572V18.449H28.0342V1.62695ZM51.8162 7.20595H46.8662V1.62695H62.3912V7.20595H57.4392V18.449H51.8162V7.20595ZM64.8552 1.62695H70.7172L74.3242 7.53795L77.9272 1.62695H83.7922V18.449H78.1912V10.111L74.3242 16.092H74.2262L70.3562 10.111V18.449H64.8542V1.62695H64.8552ZM86.5912 1.62695H92.2152V12.889H100.122V18.45H86.5912V1.62695Z" fill="black"/>
<path d="M63.9619 66.978V78.041H77.5859L76.3019 92.39L63.9619 95.721V107.231L86.6439 100.945L86.8099 99.075L89.4099 69.948L89.6799 66.978H86.6979H63.9619ZM63.9619 44.583V55.647H90.6869L90.9079 53.16L91.4129 47.552L91.6779 44.583H63.9619Z" fill="white"/>
</svg>
