<svg width="128" height="128" viewBox="0 0 128 128" fill="none" xmlns="http://www.w3.org/2000/svg">
<path d="M110 26.0999L73.2998 4.79987C66.6998 0.999872 58.5998 1.09987 52.0998 5.09987L19.1998 25.3999C12.6998 29.4999 8.7998 36.3999 8.7998 44.0999V85.4999C8.7998 93.0999 12.8998 100.2 19.4998 104L52.9998 123.3C56.0998 125.1 59.4998 126 62.9998 126C66.3998 126 69.7998 125.1 72.7998 123.4L109.2 102.9C115.4 99.3999 119.2 92.7999 119.2 85.6999V41.9999C119.2 35.4999 115.7 29.3999 110 26.0999ZM52.4998 67.8999V96.8999H38.5998V30.4999H52.4998V54.6999H75.4998V30.4999H89.3998V96.8999H75.4998V67.8999H52.4998Z" fill="#FF4088"/>
</svg>
