<svg width="128" height="128" viewBox="0 0 128 128" fill="none" xmlns="http://www.w3.org/2000/svg">
<path d="M123.6 54.2001L114.3 48.9001C112.5 47.9001 110.4 47.9001 108.6 49.0001L100.4 53.9001C98.4998 55.1001 97.2998 57.2001 97.2998 59.4001V69.4001C97.2998 71.5001 98.3998 73.4001 100.2 74.5001L109 79.6001C109.7 80.0001 110.5 80.2001 111.3 80.2001C112.1 80.2001 112.8 80.0001 113.5 79.6001L123.5 74.1001C124.9 73.3001 125.8 71.8001 125.8 70.2001V58.2001C126 56.6001 125.1 55.0001 123.6 54.2001ZM111.7 72.8001C106.8 72.8001 102.8 68.8001 102.8 64.0001C102.8 59.2001 106.8 55.1001 111.7 55.1001C116.6 55.1001 120.6 59.1001 120.6 64.0001C120.6 68.9001 116.6 72.8001 111.7 72.8001Z" fill="#FF4088"/>
<path d="M115.7 60.1002C116.7 61.1002 117.3 62.5002 117.3 64.0002C117.3 67.1002 114.8 69.6002 111.7 69.6002C108.6 69.6002 106.1 67.1002 106.1 64.0002C106.1 60.9002 108.6 58.4002 111.7 58.4002C113.2 58.4002 114.6 59.1002 115.7 60.1002ZM91.9 54.2002L82.1 48.7002C80.6 47.9002 78.8 47.8002 77.3 48.6002C77.2 48.7002 77.1 48.7002 76.9 48.8002L68.7 53.7002C66.7 54.9002 65.4 57.1002 65.4 59.5002V69.4002C65.4 71.4002 66.5 73.4002 68.3 74.4002L77.1 79.5002C77.8 79.9002 78.7 80.1002 79.5 80.1002C80.3 80.1002 81.1 79.9002 81.8 79.5002L91.6 74.1002C93.1 73.2002 94.1 71.6002 94.1 69.9002V58.1002C94.2 56.5002 93.3 55.0002 91.9 54.2002ZM88.1 63.9002C88.1 67.8002 87.4 69.0002 85.9 70.6002C84.4 72.2002 82.4 72.9002 80 72.9002C77.8 72.9002 76 72.1002 74.4 70.7002C72.7 69.2002 71.4 66.8002 71.4 64.1002C71.4 61.5002 72.4 59.2002 74.1 57.6002C75.6 56.1002 77.9 55.2002 80.2 55.2002C83 55.2002 85.9 56.5002 87.7 59.2002L85 61.3002C83.9 59.2002 82.3 58.5002 79.9 58.5002C77.3 58.4002 74.5 60.9002 74.7 64.1002C74.8 65.9002 75.7 69.1002 79.8 69.6002C82 69.9002 84.4 67.6002 84.4 66.4002H80.4V63.3002H88.1V63.9002ZM62.2 58.0002C62.2 56.4002 61.4 55.0002 60 54.2002L50.3 48.5002C48.6 47.5002 46.6 47.5002 44.9 48.6002L36.7 53.7002C34.8 54.9002 33.7 56.9002 33.7 59.1002V69.3002C33.7 71.3002 34.8 73.2002 36.5 74.2002L45.3 79.3002C46.1 79.7002 46.9 80.0002 47.8 80.0002C48.6 80.0002 49.4 79.8002 50.2 79.4002L59.8 74.1002C61.4 73.2002 62.4 71.5002 62.4 69.6002L62.2 58.0002ZM54.3 65.0002C54.3 67.1002 54.2 68.5002 54 69.4002C53.8 70.2002 53.5 71.0002 53 71.6002C52.5 72.2002 51.9 72.7002 51.1 73.0002C50.3 73.3002 49.3 73.5002 48 73.5002C46.4 73.5002 45.3 73.3002 44.5 72.9002C43.7 72.5002 43.1 72.0002 42.6 71.4002C42.1 70.8002 41.8 70.2002 41.7 69.5002C41.5 68.5002 41.4 67.0002 41.4 65.1002V56.0002H44.9V65.3002C44.9 66.8002 44.9 67.7002 45 68.2002C45.1 68.9002 45.4 69.4002 45.9 69.8002C46.4 70.2002 47 70.3002 48 70.3002C48.9 70.3002 49.2 70.1002 49.7 69.8002C50.2 69.4002 50.5 69.0002 50.5 68.4002C50.6 67.8002 50.8 66.8002 50.8 65.5002V56.0002H54.3V65.0002ZM28.3 54.3002L18.8 48.8002C17.1 47.8002 15 47.8002 13.3 48.9002L4.8 54.2002C3 55.2002 2 57.0002 2 59.0002V69.8002C2 71.8002 3.1 73.6002 4.8 74.6002L13.5 79.6002C14.3 80.1002 15.2 80.3002 16.1 80.3002C17 80.3002 17.9 80.1002 18.6 79.6002L28 74.3002C29.6 73.4002 30.6 71.7002 30.6 69.8002V58.4002C30.7 56.7002 29.7 55.1002 28.3 54.3002ZM22.9 72.7002H19.3V65.2002H13.3V72.7002H9.7V55.4002H13.3V61.7002H19.3V55.4002H22.9V72.7002Z" fill="#FF4088"/>
</svg>
