<svg width="128" height="128" viewBox="0 0 128 128" fill="none" xmlns="http://www.w3.org/2000/svg">
<path d="M71.2002 8.50017L107.9 29.8002C112.2 32.3002 114.9 37.0002 114.9 42.0002V85.7002C114.9 91.3002 111.9 96.4002 107.1 99.1002L70.7002 119.6C65.9002 122.3 60.0002 122.3 55.2002 119.5L21.7002 100.2C16.4002 97.2002 13.2002 91.6002 13.2002 85.5002V44.1002C13.2002 38.0002 16.4002 32.3002 21.6002 29.1002L54.4002 8.80017C59.5002 5.60017 66.0002 5.50017 71.2002 8.50017Z" fill="#FF4088"/>
<path d="M62.9998 126C59.4998 126 56.0998 125.1 52.9998 123.3L19.4998 104C12.8998 100.2 8.7998 93.0999 8.7998 85.4999V44.0999C8.7998 36.3999 12.6998 29.4999 19.1998 25.3999L52.0998 5.09987C58.5998 1.09987 66.6998 0.999872 73.2998 4.79987L110 26.0999C115.7 29.3999 119.2 35.4999 119.2 41.9999V85.6999C119.2 92.7999 115.4 99.3999 109.2 102.9L72.7998 123.4C69.7998 125.1 66.3998 126 62.9998 126ZM62.9998 10.6999C60.7998 10.6999 58.5998 11.2999 56.6998 12.4999L23.6998 32.7999C19.6998 35.1999 17.3998 39.4999 17.3998 44.0999V85.5999C17.3998 90.0999 19.7998 94.2999 23.6998 96.5999L57.1998 115.9C60.6998 117.9 64.9998 117.9 68.4998 116L104.9 95.4999C108.4 93.4999 110.5 89.8999 110.5 85.8999V42.0999C110.5 38.5999 108.6 35.3999 105.6 33.5999L68.9998 12.2999C67.1998 11.1999 65.0998 10.6999 62.9998 10.6999Z" fill="#C9177E"/>
<path d="M38.6001 96.9V30.5H52.5001V54.7H75.5001V30.5H89.4001V96.9H75.5001V67.9H52.5001V96.9H38.6001Z" fill="white"/>
</svg>
