<svg width="128" height="128" viewBox="0 0 128 128" fill="none" xmlns="http://www.w3.org/2000/svg">
<path d="M113.7 49.8001L123 55.1001C124.1 55.7001 124.8 56.9001 124.8 58.2001V70.0001C124.8 71.2001 124.1 72.3001 123.1 72.9001L113.1 78.4001C112 79.0001 110.7 79.0001 109.7 78.4001L100.9 73.3001C99.4 72.5001 98.5 70.9001 98.5 69.2001V59.2001C98.5 57.3001 99.5 55.6001 101.1 54.6001L109.2 49.7001C110.6 49.0001 112.3 49.0001 113.7 49.8001Z" fill="#EBB951"/>
<path d="M111.4 80.1C110.6 80.1 109.8 79.9 109.1 79.5L100.3 74.4C98.4999 73.4 97.3999 71.4 97.3999 69.3V59.3C97.3999 57 98.5999 54.9 100.5 53.8L108.6 48.9C110.3 47.9 112.5 47.8 114.3 48.8L123.6 54.1C125.1 54.9 126 56.5 126 58.2V70C126 71.6 125.1 73.1 123.7 73.9L113.7 79.4C113 79.9 112.2 80.1 111.4 80.1ZM111.5 50.3C110.9 50.3 110.3 50.5 109.8 50.8L101.7 55.7C100.4 56.5 99.6999 57.8 99.6999 59.3V69.3C99.6999 70.6 100.4 71.8 101.5 72.4L110.3 77.5C111 77.9 111.9 77.9 112.6 77.5L122.6 72C123.3 71.6 123.7 70.9 123.7 70.1V58.2C123.7 57.3 123.2 56.5 122.5 56.1L113.2 50.8C112.7 50.5 112.1 50.3 111.5 50.3Z" fill="#FCD804"/>
<path d="M81.6002 49.6L91.4002 55.2C92.5002 55.8 93.1002 56.9 93.1002 58.2V69.8C93.1002 71.2 92.4002 72.4 91.2002 73.1L81.4002 78.5C80.3002 79.1 78.9002 79.1 77.8002 78.5L69.0002 73.4C67.6002 72.6 66.7002 71 66.7002 69.4V59.5C66.7002 57.5 67.7002 55.7 69.5002 54.6L77.7002 49.7C78.8002 48.9 80.3002 48.9 81.6002 49.6Z" fill="#33BA91"/>
<path d="M79.6 79.9999C78.8 79.9999 77.9 79.7999 77.2 79.3999L68.4 74.2999C66.6 73.2999 65.5 71.3999 65.5 69.2999V59.3999C65.5 56.9999 66.8 54.7999 68.8 53.5999L77 48.6999C77.1 48.5999 77.2 48.5999 77.4 48.4999C78.9 47.7999 80.7 47.7999 82.2 48.5999L92 54.1999C93.4 54.9999 94.3 56.4999 94.3 58.0999V69.6999C94.3 71.4999 93.3 73.0999 91.8 73.8999L82 79.2999C81.2 79.7999 80.4 79.9999 79.6 79.9999ZM79.6 50.1999C79.1 50.1999 78.6 50.2999 78.1 50.5999L70 55.4999C68.6 56.2999 67.8 57.7999 67.8 59.3999V69.2999C67.8 70.5999 68.5 71.6999 69.6 72.3999L78.4 77.4999C79.2 77.8999 80.1 77.9999 80.9 77.4999L90.7 72.0999C91.5 71.5999 92 70.7999 92 69.7999V58.0999C92 57.2999 91.6 56.4999 90.8 56.0999L81 50.5999C80.5 50.2999 80.1 50.1999 79.6 50.1999Z" fill="#00A88A"/>
<path d="M49.7002 49.4999L59.4002 55.1999C60.4002 55.7999 61.0002 56.8999 61.0002 57.9999L61.1002 69.4999C61.1002 70.9999 60.3002 72.2999 59.1002 72.9999L49.5002 78.2999C48.3002 78.8999 46.9002 78.8999 45.8002 78.2999L37.0002 73.1999C35.6002 72.3999 34.7002 70.8999 34.7002 69.1999V59.0999C34.7002 57.2999 35.6002 55.5999 37.2002 54.5999L45.5002 49.4999C46.8002 48.6999 48.4002 48.6999 49.7002 49.4999Z" fill="#0594CB"/>
<path d="M47.7002 79.9999C46.9002 79.9999 46.0002 79.7999 45.3002 79.2999L36.5002 74.1999C34.8002 73.1999 33.7002 71.2999 33.7002 69.2999V59.0999C33.7002 56.8999 34.8002 54.8999 36.7002 53.6999L45.0002 48.5999C46.6002 47.5999 48.7002 47.5999 50.4002 48.4999L60.1002 54.1999C61.4002 54.9999 62.3002 56.4999 62.3002 57.9999L62.4002 69.4999C62.4002 71.3999 61.4002 73.0999 59.8002 73.9999L50.2002 79.2999C49.4002 79.7999 48.6002 79.9999 47.7002 79.9999ZM47.7002 49.9999C47.2002 49.9999 46.6002 50.0999 46.1002 50.3999L37.8002 55.4999C36.6002 56.2999 35.8002 57.5999 35.8002 58.9999V69.1999C35.8002 70.3999 36.5002 71.5999 37.5002 72.1999L46.3002 77.2999C47.1002 77.7999 48.1002 77.7999 48.9002 77.2999L58.5002 71.9999C59.4002 71.4999 60.0002 70.4999 60.0002 69.4999V58.0999C60.0002 57.2999 59.6002 56.5999 58.9002 56.1999L49.2002 50.4999C48.7002 50.1999 48.2002 49.9999 47.7002 49.9999Z" fill="#0083C0"/>
<path d="M18.2002 49.7001L27.7002 55.2001C28.8002 55.9001 29.5002 57.1001 29.5002 58.4001V69.7001C29.5002 71.1001 28.7002 72.5001 27.5002 73.2001L18.1002 78.5001C16.8002 79.2001 15.3002 79.2001 14.1002 78.5001L5.4002 73.5001C4.0002 72.7001 3.2002 71.3001 3.2002 69.7001V59.0001C3.2002 57.4001 4.0002 55.9001 5.4002 55.1001L13.9002 49.8001C15.2002 49.0001 16.8002 49.0001 18.2002 49.7001Z" fill="#FF4088"/>
<path d="M16.1 80.2C15.2 80.2 14.3 80 13.5 79.5L4.8 74.5C3.1 73.5 2 71.7 2 69.7V59C2 57 3 55.2 4.7 54.2L13.2 48.9C14.9 47.9 17 47.8 18.7 48.8L28.2 54.3C29.7 55.2 30.6 56.7 30.6 58.4V69.7C30.6 71.5 29.6 73.3 28 74.2L18.6 79.5C17.8 80 16.9 80.2 16.1 80.2ZM16.1 50.3C15.5 50.3 15 50.5 14.5 50.8L5.9 56C4.9 56.6 4.3 57.7 4.3 58.9V69.7C4.3 70.9 4.9 72 5.9 72.5L14.6 77.5C15.5 78 16.6 78 17.5 77.5L26.9 72.2C27.8 71.7 28.4 70.7 28.4 69.7V58.4C28.4 57.5 27.9 56.7 27.1 56.2L17.6 50.7C17.1 50.4 16.6 50.3 16.1 50.3Z" fill="#C9177E"/>
<path d="M111.7 55.1001C106.8 55.1001 102.8 59.1001 102.8 64.0001C102.8 68.9001 106.8 72.9001 111.7 72.9001C116.6 72.9001 120.6 68.9001 120.6 64.0001C120.6 59.1001 116.6 55.1001 111.7 55.1001ZM111.7 69.6001C108.6 69.6001 106.1 67.1001 106.1 64.0001C106.1 60.9001 108.6 58.4001 111.7 58.4001C114.8 58.4001 117.3 60.9001 117.3 64.0001C117.3 67.1001 114.8 69.6001 111.7 69.6001ZM88.1002 63.9001C88.1002 67.8001 87.4002 69.0001 85.9002 70.6001C84.4002 72.2001 82.4002 72.9001 80.0002 72.9001C77.8002 72.9001 75.9002 72.1001 74.4002 70.7001C72.7002 69.2001 71.4002 66.8001 71.4002 64.1001C71.4002 61.5001 72.4002 59.2001 74.1002 57.6001C75.6002 56.1001 77.9002 55.2001 80.2002 55.2001C83.0002 55.2001 85.9002 56.5001 87.7002 59.2001L85.0002 61.3001C83.9002 59.2001 82.3002 58.5001 79.9002 58.5001C77.3002 58.4001 74.5002 60.9001 74.7002 64.1001C74.8002 65.9001 75.7002 69.1001 79.8002 69.6001C82.0002 69.9001 84.4002 67.6001 84.4002 66.4001H80.4002V63.3001H88.1002V63.9001ZM41.3002 56.0001H44.8002V65.3001C44.8002 66.8001 44.8002 67.7001 44.9002 68.2001C45.0002 68.9001 45.3002 69.4001 45.8002 69.8001C46.3002 70.2001 46.9002 70.3001 47.9002 70.3001C48.8002 70.3001 49.1002 70.2001 49.6002 69.8001C50.1002 69.4001 50.4002 69.0001 50.5002 68.4001C50.6002 67.8001 50.8002 66.8001 50.8002 65.5001V56.0001H54.3002V65.0001C54.3002 67.1001 54.2002 68.5001 54.0002 69.4001C53.8002 70.3001 53.5002 71.0001 53.0002 71.6001C52.5002 72.2001 51.9002 72.7001 51.1002 73.0001C50.3002 73.3001 49.3002 73.5001 48.0002 73.5001C46.4002 73.5001 45.3002 73.3001 44.5002 72.9001C43.7002 72.5001 43.1002 72.0001 42.6002 71.4001C42.1002 70.8001 41.8002 70.2001 41.7002 69.5001C41.5002 68.5001 41.4002 67.1001 41.4002 65.1001L41.3002 56.0001ZM9.7002 72.7001V55.4001H13.3002V61.7001H19.3002V55.4001H22.9002V72.7001H19.3002V65.1001H13.3002V72.7001H9.7002Z" fill="white"/>
</svg>
