<svg width="128" height="128" viewBox="0 0 128 128" fill="none" xmlns="http://www.w3.org/2000/svg">
<path d="M126.11 66.834C126.11 57.014 123.571 47.8 119.119 39.783C138.097 -3.16703 98.7851 3.12997 96.5961 3.55797C88.2681 5.18697 80.5621 7.80697 73.4541 11.124C72.3998 11.0643 71.3441 11.0343 70.2881 11.034C43.7631 11.034 21.5591 29.535 15.8771 54.337C29.8571 38.653 39.6421 32.325 45.5011 29.793C44.5651 30.628 43.6501 31.474 42.7501 32.325L41.8651 33.18C41.2711 33.751 40.6791 34.323 40.1001 34.9C39.7561 35.243 39.4201 35.589 39.0811 35.935C38.5671 36.457 38.0551 36.979 37.5541 37.504L36.5021 38.626C36.0341 39.127 35.5681 39.629 35.1121 40.132L34.0591 41.307C32.8615 42.6511 31.6893 44.0177 30.5431 45.406C30.1961 45.825 29.8511 46.244 29.5121 46.662C29.1451 47.115 28.7861 47.567 28.4291 48.018C28.0811 48.456 27.7341 48.893 27.3951 49.33L26.4421 50.576C26.0861 51.045 25.7271 51.514 25.3791 51.98L24.6481 52.978C22.5449 55.8475 20.5303 58.7808 18.6071 61.774L18.5941 61.795C18.1151 62.542 17.6531 63.277 17.1991 64.006L17.1251 64.126C16.6711 64.858 16.2331 65.577 15.8061 66.29L15.7611 66.365C14.6719 68.18 13.6144 70.014 12.5891 71.866C7.56213 80.977 5.11413 87.343 5.00813 87.72C-10.8679 144.479 38.6821 120.511 45.5961 116.933C53.0411 120.611 61.4231 122.906 70.2881 122.906C94.5631 122.905 115.213 107 122.9 86H93.5691C89.2291 93 80.8751 98.049 71.2761 98.049C57.2111 98.049 45.8101 87 45.8101 74H125.652C125.955 72 126.11 69.27 126.11 66.834ZM13.5261 116.817C9.61013 112.802 8.91813 103.022 17.5581 85.201C21.9181 97.738 30.6191 108.242 41.8651 114.909C36.2721 117.988 21.4241 124.918 13.5261 116.817ZM45.6871 59C46.1331 46 57.2511 35.995 70.9131 35.995C84.5741 35.995 95.6941 46 96.1401 59H45.6871ZM90.4631 14.796C95.6291 12.301 108.421 7.02497 115.683 11.925C120.49 15.17 124.346 20.265 117.725 37.424C111.374 27.211 101.82 19.2 90.4631 14.796Z" fill="#1EBBEE"/>
</svg>
