<svg width="128" height="128" viewBox="0 0 128 128" fill="none" xmlns="http://www.w3.org/2000/svg">
<path fill-rule="evenodd" clip-rule="evenodd" d="M47.9548 69H63.3258C60.6798 60 58.0738 51.68 55.5098 43.224C53.0218 51.71 50.4978 60 47.9548 69ZM124.112 1H2.87278C0.686783 1 0.999783 1.476 0.999783 3.585V124.979C0.999783 127.086 0.686783 127 2.71878 127H124.266C126.297 127 127 127.086 127 124.978V3.739C127 1.476 126.298 1 124.112 1ZM77.2978 96C75.6608 96 74.0178 95.867 72.3888 95.984C71.2138 96.072 70.8208 95.578 70.5078 94.558C68.9938 89.627 67.3848 84.698 65.8698 79.768C65.5648 78.776 65.1288 78.414 64.0538 78.427C58.5308 78.491 53.0048 78.485 47.4808 78.42C46.3178 78.406 45.7828 78.716 45.4508 79.87C44.0448 84.774 42.5068 89.638 41.0858 94.537C40.7778 95.599 40.3098 95.97 39.1818 95.941C35.8638 95.858 32.5408 95.909 28.9078 95.909C29.8668 92.864 30.7368 90.048 31.6368 87.244C37.1508 70.044 42.6838 52.844 48.1578 35.633C48.5398 34.435 49.0708 34.066 50.3008 34.093C54.1868 34.179 58.0758 34.115 61.9638 34.093C62.6908 34.088 63.1868 34.131 63.4528 34.957C69.9578 55.073 76.4858 75.313 83.0078 95.427C83.0358 95.518 83.0178 96 83.0328 96H77.2978ZM97.9998 96H85.9998V51H97.9998V96ZM91.6498 44.929C87.9848 44.924 85.3608 42.401 85.3358 38.859C85.3118 35.327 88.0428 32.7 91.7418 32.696C95.4698 32.692 98.0968 35.233 98.1258 38.867C98.1518 42.412 95.4588 44.935 91.6498 44.929Z" fill="#FAA625"/>
</svg>
