<svg width="128" height="128" viewBox="0 0 128 128" fill="none" xmlns="http://www.w3.org/2000/svg">
<path fill-rule="evenodd" clip-rule="evenodd" d="M1 1V126.792C2 126.874 1.99 127.027 2.359 127.027C38.628 127.038 75.024 127.038 111.293 127.038C116.287 127.038 121.152 127.042 126.147 127.027C126.475 127.026 127.001 126.874 127.001 126.792L127 1H1ZM115 63.914V112.465C115 114.153 114.747 114 113.12 114H15.771C14.144 114 14 114.154 14 112.466V15.24C14 13.551 14.144 13 15.894 13H112.997C114.748 13 115 13.551 115 15.363V63.914ZM64.414 40.368C64.2 39.706 63.802 39.672 63.221 39.675C60.107 39.694 56.992 39.744 53.88 39.675C52.896 39.654 52.469 39.949 52.165 40.908C47.78 54.693 43.348 68.469 38.932 82.244C38.212 84.49 37.515 86.745 36.747 89.183C39.658 89.183 42.318 89.143 44.976 89.209C45.879 89.231 46.255 88.934 46.501 88.083C47.639 84.159 48.871 80.262 49.998 76.335C50.263 75.409 50.692 75.159 51.623 75.17C56.047 75.222 60.473 75.222 64.897 75.17C65.758 75.16 66.108 75.438 66.352 76.232C67.565 80.181 68.854 84.106 70.066 88.055C70.317 88.871 70.632 89.185 71.573 89.117C72.8811 89.0304 74.192 88.9914 75.503 89H80.095L80.074 88.669C74.852 72.562 69.623 56.479 64.414 40.368ZM52.001 68C54.038 61 56.06 54.152 58.052 47.356C60.105 54.128 62.193 61 64.312 68H52.001ZM82 89H92V53H82V89ZM87.071 38.555C84.108 38.558 81.92 40.662 81.94 43.491C81.96 46.328 84.062 48.348 86.997 48.353C90.048 48.357 92.205 46.338 92.184 43.497C92.162 40.587 90.057 38.552 87.071 38.555Z" fill="#FAA625"/>
</svg>
