<svg width="128" height="128" viewBox="0 0 128 128" fill="none" xmlns="http://www.w3.org/2000/svg">
<path d="M29.2592 67.0675L26.4338 54.7249C26.2851 54.0557 25.6531 53.3866 24.9839 53.2007L12.0093 49.2228C11.8234 49.1856 11.6376 49.1484 11.4517 49.1484C10.894 49.1484 10.2992 49.3715 9.96461 49.7061L0.670483 58.331C0.187189 58.7772 -0.110228 59.6694 0.0384784 60.3386L3.04978 73.5362C3.19848 74.2054 3.83048 74.8746 4.49966 75.0605L16.6192 78.7781C16.8051 78.8153 16.991 78.8525 17.1768 78.8525C17.7345 78.8525 18.3293 78.6294 18.6639 78.2948L28.59 69.075C29.1477 68.6289 29.4079 67.7367 29.2592 67.0675ZM13.3477 52.1226L22.2329 54.8364C22.5674 54.948 22.5674 55.0967 22.2329 55.171L17.5486 56.2491C17.1768 56.3235 16.6936 56.1748 16.4705 55.9146L13.199 52.3828C12.9387 52.1597 13.0131 52.0482 13.3477 52.1226ZM18.887 68.0713C18.9613 68.443 18.7383 68.6289 18.4037 68.5174L8.81213 65.5805C8.47755 65.4689 8.4032 65.1715 8.66343 64.9484L16.0244 58.108C16.2846 57.8477 16.582 57.9593 16.6564 58.2939L18.887 68.0713ZM3.08696 59.372L10.894 52.1226C11.1543 51.8623 11.5632 51.8995 11.8234 52.1597L15.727 56.3607C15.9872 56.6209 15.95 57.0299 15.6898 57.2901L7.88272 64.5395C7.62249 64.7997 7.21354 64.7626 6.95331 64.5023L3.04978 60.3014C2.82672 60.0412 2.82672 59.6322 3.08696 59.372ZM4.98295 70.8967L2.90107 61.8628C2.82672 61.491 2.93825 61.4539 3.19848 61.7141L6.47001 65.2459C6.73025 65.5061 6.84178 66.0266 6.73025 66.3612L5.31755 70.9339C5.24319 71.2313 5.05731 71.2313 4.98295 70.8967ZM16.3961 76.1386L6.24696 73.0158C5.91237 72.9042 5.68931 72.5325 5.80084 72.1979L7.47378 66.6957C7.58531 66.3612 7.95708 66.1381 8.29167 66.2496L18.4408 69.3725C18.7754 69.484 18.9985 69.8557 18.887 70.1903L17.214 75.6925C17.1025 76.0642 16.7307 76.2501 16.3961 76.1386ZM25.43 68.7405L18.6267 75.0605C18.3665 75.3207 18.2178 75.2092 18.3293 74.8746L19.742 70.3019C19.8536 69.9673 20.2253 69.5955 20.5971 69.5212L25.2813 68.443C25.6159 68.3687 25.6903 68.5174 25.43 68.7405ZM26.1736 67.4021L20.5599 68.6661C20.1881 68.7405 19.8536 68.5174 19.7792 68.1828L17.3999 57.8106C17.3256 57.4388 17.5486 57.1042 17.8832 57.0299L23.4969 55.7659C23.8686 55.6915 24.2032 55.9146 24.2776 56.2491L26.6569 66.6214C26.7312 66.956 26.5081 67.3277 26.1736 67.4021Z" fill="url(#paint0_linear_12_25)"/>
<path d="M40.7839 58.925L44.0926 58.4789L41.7505 71.7881H38.5161L40.7839 58.925ZM41.7505 53.3114L45.0592 52.8652L44.4272 56.5085L41.1185 56.9918L41.7505 53.3114Z" fill="url(#paint1_linear_12_25)"/>
<path d="M54.4274 62.4565C54.4646 62.3078 54.4646 62.1591 54.4646 62.1219C54.4646 61.7873 54.3159 61.5642 53.7954 61.5642C52.9404 61.5642 51.1187 62.3821 49.8919 63.0885L48.3676 71.7878H45.1333L47.4011 58.9619L50.1893 58.4786L50.1521 60.0772C51.8622 59.1478 53.907 58.4414 55.4684 58.4414C57.2528 58.4414 57.8477 59.6311 57.8477 61.0438C57.8477 61.5642 57.8105 61.8988 57.699 62.3449L56.026 71.8249H52.7917L54.4274 62.4565Z" fill="url(#paint2_linear_12_25)"/>
<path d="M68.2572 61.3045H65.2459L63.2755 72.3831C62.9038 74.5022 62.123 75.8405 60.4129 77.3276L58.3311 75.3944C59.372 74.3906 59.8553 73.4984 60.0783 72.0857L61.9743 61.3045H59.9668L60.4129 58.665H62.4205L62.7551 56.769C63.2384 53.9807 64.3536 52.7539 67.6623 52.7539C68.7405 52.7539 70.1532 52.9026 71.7889 53.2744L75.0976 52.8283L71.7518 71.7511H68.5174L71.3428 55.728C70.0417 55.4678 68.7405 55.3191 67.6995 55.3191C66.5842 55.3191 66.1381 55.6908 65.9894 56.6203L65.6548 58.6278H68.9264L68.2572 61.3045Z" fill="url(#paint3_linear_12_25)"/>
<path d="M78.927 67.9958C78.8898 68.1817 78.8898 68.2932 78.8898 68.3304C78.8898 68.6649 79.0385 68.888 79.559 68.888C80.4141 68.888 82.2357 68.0701 83.4625 67.3638L84.9496 58.8875L88.2583 58.4414L85.9534 71.7878H83.2023L83.2395 70.4122C81.5294 71.3417 79.4847 72.048 77.9232 72.048C76.1388 72.048 75.5439 70.8584 75.5439 69.4456C75.5439 68.9252 75.5811 68.5906 75.6926 68.1445L77.2912 58.9247L80.6 58.4786L78.927 67.9958Z" fill="url(#paint4_linear_12_25)"/>
<path d="M93.3514 65.1704L90.526 58.9991L93.5373 58.4414L95.5076 63.0885L98.742 58.6645H102.199L96.846 65.5793L99.7086 71.7878H96.437L94.6526 67.9958L91.4926 71.7878H88.0352L93.3514 65.1704Z" fill="url(#paint5_linear_12_25)"/>
<path d="M112.088 71.788H109.337V70.3381C108.222 71.3419 106.809 72.0482 104.876 72.0482C102.608 72.0482 101.828 70.8214 101.828 69.0741C101.828 68.628 101.865 68.1819 101.976 67.6986L102.646 63.8694C103.24 60.5235 103.872 58.4045 109.003 58.4045C109.486 58.4045 110.415 58.4788 111.159 58.6647L112.088 53.3485L115.397 52.9023L112.088 71.788ZM110.713 61.3042C110.118 61.1555 109.263 61.1555 108.817 61.1555C106.735 61.1555 106.214 61.9734 105.917 63.7207L105.099 68.3306C105.062 68.4793 105.062 68.5908 105.062 68.6652C105.062 69.1485 105.397 69.3715 105.991 69.3715C107.367 69.3715 108.966 68.2562 109.635 67.4012L110.713 61.3042Z" fill="url(#paint6_linear_12_25)"/>
<path d="M118.706 53.3114L122.015 52.8652L120.825 59.557C122.275 58.7391 123.65 58.4045 124.952 58.4045C127.219 58.4045 128 59.6314 128 61.3787C128 61.8248 127.963 62.2709 127.851 62.7542L127.219 66.5834C126.513 70.5241 125.175 72.0483 120.453 72.0483C119.226 72.0483 116.847 71.6394 115.546 71.1932L118.706 53.3114ZM119.115 69.1485C119.71 69.2601 120.342 69.3344 121.011 69.3344C123.093 69.3344 123.613 68.4794 123.911 66.7692L124.728 62.1594C124.766 62.0107 124.766 61.8991 124.766 61.8248C124.766 61.3415 124.431 61.1184 123.836 61.1184C122.832 61.1184 121.457 61.5645 120.304 62.3452L119.115 69.1485Z" fill="url(#paint7_linear_12_25)"/>
<defs>
<linearGradient id="paint0_linear_12_25" x1="15.4384" y1="63.9819" x2="118.702" y2="63.9819" gradientUnits="userSpaceOnUse">
<stop stop-color="#4591ED"/>
<stop offset="1" stop-color="#00C9FF"/>
</linearGradient>
<linearGradient id="paint1_linear_12_25" x1="15.4383" y1="62.3223" x2="118.702" y2="62.3223" gradientUnits="userSpaceOnUse">
<stop stop-color="#4591ED"/>
<stop offset="1" stop-color="#00C9FF"/>
</linearGradient>
<linearGradient id="paint2_linear_12_25" x1="15.4381" y1="65.0926" x2="118.701" y2="65.0926" gradientUnits="userSpaceOnUse">
<stop stop-color="#4591ED"/>
<stop offset="1" stop-color="#00C9FF"/>
</linearGradient>
<linearGradient id="paint3_linear_12_25" x1="15.4382" y1="65.0662" x2="118.701" y2="65.0662" gradientUnits="userSpaceOnUse">
<stop stop-color="#4591ED"/>
<stop offset="1" stop-color="#00C9FF"/>
</linearGradient>
<linearGradient id="paint4_linear_12_25" x1="15.4384" y1="65.254" x2="118.702" y2="65.254" gradientUnits="userSpaceOnUse">
<stop stop-color="#4591ED"/>
<stop offset="1" stop-color="#00C9FF"/>
</linearGradient>
<linearGradient id="paint5_linear_12_25" x1="15.4383" y1="65.1195" x2="118.701" y2="65.1195" gradientUnits="userSpaceOnUse">
<stop stop-color="#4591ED"/>
<stop offset="1" stop-color="#00C9FF"/>
</linearGradient>
<linearGradient id="paint6_linear_12_25" x1="15.4383" y1="62.4567" x2="118.701" y2="62.4567" gradientUnits="userSpaceOnUse">
<stop stop-color="#4591ED"/>
<stop offset="1" stop-color="#00C9FF"/>
</linearGradient>
<linearGradient id="paint7_linear_12_25" x1="15.4384" y1="62.4568" x2="118.702" y2="62.4568" gradientUnits="userSpaceOnUse">
<stop stop-color="#4591ED"/>
<stop offset="1" stop-color="#00C9FF"/>
</linearGradient>
</defs>
</svg>
