<svg width="128" height="128" viewBox="0 0 128 128" fill="none" xmlns="http://www.w3.org/2000/svg">
<path d="M102.4 101.5C97.2999 106.1 103 110.8 108 107.8C109.1 106.6 108 102.6 102.4 101.5ZM28.5999 108.9C32.5999 112.3 38.7999 108 40.5999 103.2C36.6999 98.0999 22.2999 103.4 28.5999 108.9ZM104.5 96.7999C104.5 99.0999 121.3 100.6 121.3 96.2999C118.9 89.2999 106.5 89.6999 104.5 96.7999ZM120.1 55.6999L73.3999 7.8999C67.6999 2.3999 58.1999 2.3999 52.7999 7.8999L7.69989 53.9999C-7.50011 72.8999 18.0999 70.6999 28.9999 76.0999C32.8999 80.0999 13.8999 83.0999 17.8999 87.0999C21.7999 91.0999 41.6999 94.7999 45.5999 98.8999L41.4999 111.2C45.3999 115.2 54.4999 111.4 56.1999 120.7C57.3999 127.3 72.5999 123.5 79.9999 118.1C83.8999 114.1 72.4999 114.5 76.3999 110.4C86.1999 100.4 95.2999 106.8 98.5999 96.6999C100.3 91.6999 84.1999 89.0999 88.0999 84.9999C99.4999 78.4999 138.6 74.1999 120.1 55.6999ZM64.0999 86.7999C59.2999 88.0999 36.0999 78.5999 41.8999 78.5999C43.0999 79.2999 61.2999 82.9999 65.7999 83.7999C67.3999 84.0999 66.2999 85.6999 64.0999 86.7999ZM89.1999 35.2999L80.3999 28.1999L78.6999 38.6999L71.2999 34.7999L59.4999 42.2999L55.5999 26.7999L49.0999 37.9999H39.3999C35.3999 37.9999 34.9999 32.6999 38.5999 29.0999C44.8999 22.2999 52.0999 15.2999 55.9999 11.2999C59.8999 7.2999 66.7999 7.2999 70.6999 11.1999L88.4999 29.2999C90.1999 30.9999 90.1999 34.2999 89.1999 35.2999Z" fill="black"/>
</svg>
