<svg width="128" height="128" viewBox="0 0 128 128" fill="none" xmlns="http://www.w3.org/2000/svg">
<g opacity="0.783">
<path d="M53.3693 8.58234L8.83808 54.1075C-7.96052 70.9061 19.7721 69.5145 29.8115 75.8761C34.4833 78.8581 14.9015 82.7347 18.8775 86.8101C22.7541 90.7861 42.3359 94.4639 46.2125 98.3405C50.0891 102.317 38.3599 106.491 42.2365 110.567C46.0137 114.543 55.0591 110.766 56.6495 119.811C57.8423 126.471 73.2493 123.191 80.2073 117.425C84.4815 113.748 72.7523 113.748 76.6289 109.772C86.3701 99.9309 95.0179 105.299 98.4969 96.2531C100.485 91.3825 83.7857 87.9035 88.2587 84.8221C98.8945 77.3671 137.66 73.5899 119.768 55.6979L73.7463 8.58234C67.9811 3.21474 58.6375 3.21474 53.3693 8.58234ZM104.361 96.2531C104.361 98.5393 121.955 99.8315 120.961 95.7561C119.57 88.7981 106.25 89.3945 104.361 96.2531ZM29.4139 108.281C33.3899 111.76 39.4533 107.485 41.3419 102.714C37.4653 97.5453 23.1517 102.913 29.4139 108.281ZM102.175 101.024C97.2047 105.597 103.069 110.269 107.94 107.187C109.232 106.293 107.84 102.118 102.175 101.024Z" fill="black"/>
<path opacity="0.576" d="M53.3693 9.57648L8.83808 55.1017C-7.96052 71.9997 19.7721 70.6081 29.8115 76.9697C34.4833 79.9517 14.9015 83.8283 18.8775 87.9037C22.7541 91.8797 42.3359 95.5575 46.2125 99.4341C50.0891 103.41 38.3599 107.585 42.2365 111.66C46.0137 115.636 55.0591 111.859 56.6495 120.904C57.8423 127.564 73.2493 124.284 80.2073 118.519C84.4815 114.841 72.7523 114.841 76.6289 110.865C86.3701 101.024 95.0179 106.392 98.4969 97.3467C100.485 92.4761 83.7857 88.9971 88.2587 85.9157C98.7951 78.4607 137.66 74.6835 119.768 56.7915L73.7463 9.57648C67.9811 4.20888 58.6375 4.20888 53.3693 9.57648ZM104.361 97.3467C104.361 99.6329 121.955 100.925 120.961 96.8497C119.57 89.8917 106.25 90.3887 104.361 97.3467ZM29.4139 109.275C33.3899 112.754 39.4533 108.479 41.3419 103.708C37.4653 98.6389 23.1517 104.006 29.4139 109.275ZM102.175 102.118C97.2047 106.69 103.069 111.362 107.94 108.281C109.232 107.386 107.84 103.112 102.175 102.118Z" fill="black"/>
</g>
<path d="M53.3693 7.5008L8.83808 53.026C-7.96052 69.8246 19.7721 68.433 29.8115 74.7946C34.4833 77.7766 14.9015 81.6532 18.8775 85.7286C22.7541 89.7046 42.3359 93.3824 46.2125 97.259C50.0891 101.235 38.3599 105.41 42.2365 109.485C46.0137 113.461 55.0591 109.684 56.6495 118.729C57.8423 125.389 73.2493 122.109 80.2073 116.344C84.4815 112.666 72.7523 112.666 76.6289 108.69C86.3701 98.8494 95.0179 104.217 98.4969 95.1716C100.485 90.301 83.7857 86.822 88.2587 83.7406C98.7951 76.2856 137.66 72.5084 119.768 54.6164L73.7463 7.5008C67.9811 2.1332 58.6375 2.1332 53.3693 7.5008ZM104.361 95.1716C104.361 97.4578 121.955 98.75 120.961 94.6746C119.57 87.816 106.25 88.313 104.361 95.1716ZM29.4139 107.199C33.3899 110.678 39.4533 106.404 41.3419 101.633C37.4653 96.4638 23.1517 101.931 29.4139 107.199ZM102.175 99.9428C97.2047 104.515 103.069 109.187 107.94 106.106C109.232 105.211 107.84 101.036 102.175 99.9428Z" fill="black"/>
<path d="M53.5921 8.51325L9.95422 53.2347C-6.59469 69.7836 20.5928 68.4045 30.4433 74.6104C34.9746 77.5655 15.8645 81.4072 19.7063 85.3475C23.548 89.2877 42.658 92.8339 46.4997 96.6756C50.3414 100.616 38.8163 104.753 42.5595 108.595C46.3027 112.535 55.1682 108.792 56.7443 117.657C57.9263 124.257 73.0962 120.908 79.7945 115.293L76.3469 107.807C85.9019 98.1532 94.3734 103.472 97.821 94.607C99.6926 89.8787 83.4392 86.431 87.7735 83.3773C98.1166 76.0879 136.238 72.3447 118.704 54.8108L73.4902 8.51325C67.9739 3.29246 58.7144 3.29246 53.5921 8.51325ZM43.052 77.073C44.0371 77.073 75.6573 81.3087 63.4427 84.5594C58.8129 85.84 37.4372 77.073 43.052 77.073ZM103.633 94.607C103.633 96.8726 120.871 98.0546 119.985 94.1144C118.606 87.3176 105.504 87.9086 103.633 94.607ZM30.0493 106.428C33.9895 109.777 39.8999 105.64 41.7715 100.911C38.0283 95.8875 23.942 101.207 30.0493 106.428ZM101.564 99.3352C96.7375 103.768 102.451 108.398 107.179 105.344C108.361 104.458 106.982 100.32 101.564 99.3352Z" fill="url(#paint0_linear_3_6898)"/>
<path opacity="0.505" d="M12.8142 55.5111C0.687417 67.4391 21.959 64.1589 38.2606 70.5205L72.0566 11.1787C66.9872 5.9105 60.4268 6.4075 55.755 11.1787L12.8142 55.5111Z" fill="url(#paint1_linear_3_6898)"/>
<path d="M71.0625 10.7811L88.6563 28.6731C90.2467 30.2635 90.2467 33.6431 89.3521 34.6371L80.6049 27.4803L78.9151 37.9173L71.6589 34.0407L59.9297 41.4957L56.0531 25.8899L49.7909 39.5077L33.9863 39.3089C31.0043 39.3089 31.4019 36.2275 34.4833 33.0467C40.6461 26.2875 52.5741 14.6577 56.3513 10.6817C60.3273 6.70573 67.0865 6.90453 71.0625 10.7811Z" fill="url(#paint2_linear_3_6898)"/>
<path opacity="0.217" d="M46.9082 95.3706C46.9082 95.3706 48.7968 98.2532 48.598 99.6448C48.2004 102.329 42.4352 103.72 43.7274 106.106C45.0196 108.491 49.592 107.1 53.3692 109.585C57.1464 112.07 56.1524 117.04 58.9356 118.332C64.3032 120.817 78.6168 114.058 77.8216 114.257C77.1258 114.356 63.8062 117.139 60.8242 114.754C57.4446 111.97 56.4506 110.082 53.8662 108.392C51.4806 106.901 48.2004 106.205 47.4052 105.012C46.61 103.72 48.9956 102.13 49.095 99.7442C49.2938 98.1538 46.9082 95.3706 46.9082 95.3706Z" fill="url(#paint3_radial_3_6898)"/>
<g opacity="0.276">
<path d="M46.9082 95.3706C46.9082 95.3706 48.7968 98.2532 48.598 99.6448C48.2004 102.329 42.4352 103.72 43.7274 106.106C45.0196 108.491 49.592 107.1 53.3692 109.585C57.1464 112.07 56.1524 117.04 58.9356 118.332C64.3032 120.817 78.6168 114.058 77.8216 114.257C54.1644 114.356 58.6374 108.293 49.4926 104.217C48.2004 103.621 48.8962 102.03 49.095 99.6448C49.2938 98.1538 46.9082 95.3706 46.9082 95.3706Z" fill="url(#paint4_radial_3_6898)"/>
</g>
<path opacity="0.453" d="M87.0659 82.9455C108.238 75.1923 115.097 74.0989 122.055 67.0415C113.904 73.9001 96.8071 77.5779 82.8911 83.6413L87.0659 82.9455Z" fill="url(#paint5_radial_3_6898)"/>
<g opacity="0.512">
<path d="M87.0659 81.9514C121.955 69.6258 116.091 69.6258 122.055 66.0474C110.922 70.3216 90.2467 70.7192 82.8911 82.6472L87.0659 81.9514Z" fill="url(#paint6_radial_3_6898)"/>
</g>
<path opacity="0.286" d="M117.482 91.792C117.482 92.5872 115.494 93.1836 112.91 93.1836C110.425 93.1836 108.337 92.5872 108.337 91.792C108.337 90.9968 110.325 90.4004 112.91 90.4004C115.494 90.4004 117.482 90.9968 117.482 91.792Z" fill="url(#paint7_linear_3_6898)"/>
<g opacity="0.621">
<path d="M119.073 93.3824C119.073 95.0722 116.289 96.3644 113.009 96.3644C109.63 96.3644 106.946 94.9728 106.946 93.3824C106.946 91.6926 109.729 90.4004 113.009 90.4004C116.389 90.4004 119.073 91.792 119.073 93.3824Z" fill="url(#paint8_linear_3_6898)"/>
</g>
<path d="M104.66 95.072C106.846 97.06 118.774 98.054 120.762 94.4756C116.886 97.2588 108.337 96.2648 104.66 95.072Z" fill="url(#paint9_radial_3_6898)"/>
<path opacity="0.286" d="M104.66 101.732C105.057 102.627 104.859 103.621 104.063 104.018C103.268 104.416 102.274 104.018 101.877 103.223C101.479 102.328 101.678 101.334 102.473 100.937C103.268 100.44 104.262 100.837 104.66 101.732Z" fill="url(#paint10_linear_3_6898)"/>
<g opacity="0.621">
<path d="M105.554 102.13C106.25 103.422 105.852 104.913 104.66 105.509C103.467 106.106 102.075 105.509 101.379 104.217C100.684 102.925 101.081 101.434 102.274 100.838C103.467 100.241 104.858 100.838 105.554 102.13Z" fill="url(#paint11_linear_3_6898)"/>
</g>
<path d="M101.678 105.708C103.368 107.099 109.928 107.199 107.443 103.322C108.139 106.404 103.666 106.105 101.678 105.708Z" fill="url(#paint12_radial_3_6898)"/>
<path d="M21.2632 85.3309C21.2632 85.0327 43.5288 92.0901 47.306 95.9667C44.2246 92.8853 28.3206 85.9273 25.935 85.8279C23.5494 85.7285 21.5614 85.5297 21.2632 85.3309Z" fill="url(#paint13_radial_3_6898)"/>
<path opacity="0.286" d="M37.9943 100.62C38.1804 101.173 36.5725 101.972 34.3008 102.471C32.0291 102.969 30.1421 102.938 29.956 102.385C29.7699 101.831 31.3778 101.032 33.6495 100.534C35.9212 100.035 37.8082 100.066 37.9943 100.62Z" fill="url(#paint14_linear_3_6898)"/>
<g opacity="0.621">
<path d="M39.7645 101.42C40.1599 102.596 38.0158 104.032 35.1325 104.665C32.2492 105.298 29.4772 104.867 29.105 103.76C28.7096 102.584 30.8537 101.147 33.737 100.514C36.6203 99.8813 39.3691 100.243 39.7645 101.42Z" fill="url(#paint15_linear_3_6898)"/>
</g>
<g opacity="0.616">
<path d="M28.4199 104.217C28.4199 104.217 29.6127 107.398 32.8929 107.596C36.2725 107.795 40.0497 103.62 40.3479 102.129C39.7515 103.422 36.5707 107.298 32.4953 107.199C30.1097 107.199 28.4199 104.217 28.4199 104.217Z" fill="url(#paint16_radial_3_6898)"/>
</g>
<path d="M63.4086 5.01562C60.029 5.01562 56.7488 6.20843 54.4626 8.59403L10.0308 54.1192C5.9554 58.1946 4.9614 60.8784 5.2596 62.3694C5.359 63.1646 5.7566 63.761 6.5518 64.4568C7.347 65.1526 8.5398 65.8484 9.9314 66.4448C12.814 67.6376 16.5912 68.6316 20.3684 69.6256C24.1456 70.6196 27.8234 71.713 30.6066 73.5022C31.0042 73.8004 31.4018 74.0986 31.7 74.5956C31.9982 75.0926 32.0976 75.689 31.9982 76.2854C31.7994 77.3788 31.1036 77.9752 30.4078 78.4722C29.0162 79.5656 27.1276 80.3608 25.239 81.2554C23.3504 82.15 21.4618 83.144 20.4678 83.8398C19.9708 84.2374 19.772 84.5356 19.8714 84.5356C19.8714 84.5356 19.772 84.2374 19.9708 84.4362C20.5672 85.0326 22.4558 86.126 24.8414 87.0206C27.227 87.9152 30.1096 88.9092 32.9922 89.8038C35.8748 90.7978 38.8568 91.6924 41.3418 92.6864C43.8268 93.6804 45.9142 94.575 47.2064 95.9666C47.9022 96.6624 48.3992 97.557 48.4986 98.3522C48.598 99.2468 48.3992 100.042 48.0016 100.738C47.3058 102.129 46.2124 103.223 45.3178 104.217C44.3238 105.211 43.4292 106.205 43.131 106.901C42.9322 107.199 42.9322 107.398 42.9322 107.596C42.9322 107.696 42.9322 107.895 43.2304 108.193C44.5226 109.584 47.3058 109.783 50.4866 110.479C52.077 110.877 53.7668 111.374 55.1584 112.666C56.55 113.958 57.6434 115.747 58.1404 118.332C58.3392 119.425 58.9356 119.922 60.2278 120.32C61.6194 120.717 63.7068 120.817 65.993 120.518C70.5654 119.823 76.0324 117.636 79.1138 115.051L79.3126 114.853C79.1138 114.654 78.6168 114.356 77.8216 113.958C76.8276 113.461 75.7342 113.063 74.8396 111.97C74.442 111.374 74.1438 110.578 74.2432 109.684C74.3426 108.789 74.8396 108.093 75.436 107.497C80.6048 102.328 85.5748 101.036 89.352 100.042C91.2406 99.545 92.831 99.048 94.0238 98.3522C95.2166 97.557 96.2106 96.563 97.0058 94.575C97.1052 94.3762 97.1052 94.2768 97.0058 94.078C96.9064 93.7798 96.6082 93.3822 96.1112 92.9846C95.1172 92.09 93.4274 91.1954 91.7376 90.2014C90.0478 89.3068 88.4574 88.4122 87.2646 87.3188C86.6682 86.7224 86.0718 86.126 85.9724 85.0326C85.873 83.9392 86.5688 83.0446 87.364 82.4482C90.346 80.3608 94.819 78.7704 99.6896 77.0806C104.56 75.3908 109.828 73.6016 114.003 71.6136C118.277 69.6256 121.359 67.3394 122.353 65.0532C122.85 63.8604 122.949 62.767 122.452 61.1766C121.955 59.5862 120.762 57.797 118.576 55.7096L72.6528 8.69342C70.0684 6.20842 66.6888 5.01562 63.4086 5.01562V5.01562ZM112.91 91.3942C110.027 91.4936 107.443 92.7858 106.349 94.8732C106.648 94.9726 106.946 95.1714 107.443 95.2708C108.934 95.569 111.021 95.8672 113.009 95.8672C114.997 95.8672 117.085 95.7678 118.377 95.3702C118.874 95.1714 119.172 95.072 119.371 94.9726C119.073 93.7798 118.476 92.9846 117.283 92.3882C116.19 91.593 114.5 91.2948 112.91 91.3942ZM36.8688 101.135C34.5826 100.937 31.7994 101.831 30.4078 103.024C29.712 103.62 29.4138 104.117 29.4138 104.416C29.4138 104.714 29.5132 105.211 30.4078 106.006C31.8988 107.298 33.4892 107.099 35.3778 106.105C36.9682 105.211 38.3598 103.62 39.2544 101.931C38.658 101.533 37.8628 101.235 36.8688 101.135ZM102.672 101.831C102.175 102.428 101.976 103.024 101.876 103.422C101.876 104.018 101.976 104.416 102.373 104.813C103.169 105.608 104.858 105.907 106.648 104.913C106.648 104.714 106.548 104.416 106.25 104.018C105.852 103.223 104.56 102.328 102.672 101.831V101.831Z" stroke="url(#paint17_radial_3_6898)" stroke-width="0.485072"/>
<g opacity="0.325">
<path d="M38.9561 76.2856C36.2723 77.0808 27.6245 80.3611 28.8173 82.8461C30.0101 85.2317 50.1883 86.2256 53.2697 93.3825C54.6613 96.4639 50.1883 98.8494 51.2817 102.03C52.1763 104.515 58.8361 110.678 63.1103 113.66C66.4899 115.946 70.8635 111.771 69.0743 108.392C66.2911 102.925 78.9149 96.265 84.5807 93.1836C87.8609 91.3944 77.7221 82.6472 77.7221 82.6472L38.9561 76.2856Z" fill="url(#paint18_linear_3_6898)"/>
</g>
<path d="M39.9504 78.7704C42.336 80.5596 47.1072 79.4662 49.9898 80.7584C56.8484 83.8398 65.2974 87.3188 63.707 81.156L62.0172 82.647V79.8638L57.9418 80.8578C57.9418 80.8578 54.761 78.3728 53.3694 77.4782C53.0712 77.2794 51.4808 78.8698 51.4808 78.8698L51.1826 77.18C49.1946 76.9812 47.2066 76.8818 45.4174 76.8818C41.2426 76.9812 38.4594 77.5776 39.9504 78.7704Z" fill="url(#paint19_linear_3_6898)"/>
<g opacity="0.478">
<path d="M84.9784 84.3369C84.0838 87.7165 96.4094 92.3883 95.4154 94.7739C93.4274 99.9427 82.2946 96.4637 73.7462 107.298C72.5534 108.889 75.436 114.455 75.0384 113.759C74.6408 113.064 71.6588 108.491 72.454 106.205C74.8396 99.1475 98.298 96.4637 94.0238 93.0841C91.5388 91.1955 82.6922 85.8279 84.9784 84.3369Z" fill="url(#paint20_radial_3_6898)"/>
</g>
<path opacity="0.586" d="M112.711 91.3943C112.711 91.6925 112.115 91.9906 111.32 91.9906C110.524 91.9906 109.928 91.6925 109.928 91.3943C109.928 91.0961 110.524 90.7979 111.32 90.7979C112.115 90.7979 112.711 91.0961 112.711 91.3943ZM103.666 101.732C103.666 102.03 103.268 102.328 102.771 102.328C102.274 102.328 101.877 102.03 101.877 101.732C101.877 101.434 102.274 101.135 102.771 101.135C103.268 101.135 103.666 101.434 103.666 101.732ZM35.378 101.235C35.378 101.533 34.6822 101.831 33.887 101.831C33.0918 101.831 32.396 101.533 32.396 101.235C32.396 100.937 33.0918 100.638 33.887 100.638C34.6822 100.638 35.378 100.937 35.378 101.235Z" fill="white"/>
<path opacity="0.251" d="M34.4833 76.584C26.7301 81.3552 14.8021 83.045 27.9229 86.2258C26.3325 82.7468 31.3025 83.1444 34.4833 76.584Z" fill="url(#paint21_linear_3_6898)"/>
<g opacity="0.363">
<path d="M61.9177 120.022C61.9177 120.022 73.8457 118.928 76.5295 115.449C78.1199 113.461 70.1679 111.076 71.8577 109.088C78.3187 101.732 83.7857 102.03 91.3401 98.8494C98.8945 95.768 96.1113 94.277 93.6263 92.8854C89.4515 90.5992 80.1079 88.1142 83.1893 82.5478C86.2707 76.9814 113.407 69.2282 113.407 69.2282C121.657 66.445 120.564 61.3756 116.588 57.1014L92.4335 33.146C92.4335 33.146 93.6263 56.008 88.7557 65.8486C82.6923 77.876 50.5861 91.3944 64.0051 92.8854C68.7763 93.3824 71.0625 95.0722 72.9511 98.6506C76.9271 106.205 61.9177 120.022 61.9177 120.022Z" fill="url(#paint22_linear_3_6898)"/>
</g>
<defs>
<linearGradient id="paint0_linear_3_6898" x1="102.398" y1="37.5412" x2="79.1047" y2="58.603" gradientUnits="userSpaceOnUse">
<stop stop-color="#C0CDF9"/>
<stop offset="1" stop-color="#07092D" stop-opacity="0.288"/>
</linearGradient>
<linearGradient id="paint1_linear_3_6898" x1="33.0516" y1="29.145" x2="60.1047" y2="56.1981" gradientUnits="userSpaceOnUse">
<stop stop-color="white"/>
<stop offset="1" stop-color="white" stop-opacity="0"/>
</linearGradient>
<linearGradient id="paint2_linear_3_6898" x1="51.1123" y1="24.1634" x2="83.2837" y2="56.3349" gradientUnits="userSpaceOnUse">
<stop stop-color="white"/>
<stop offset="1" stop-color="white" stop-opacity="0"/>
</linearGradient>
<radialGradient id="paint3_radial_3_6898" cx="0" cy="0" r="1" gradientUnits="userSpaceOnUse" gradientTransform="translate(43.541 117.11) scale(27.3015 18.256)">
<stop stop-color="white"/>
<stop offset="1" stop-color="white" stop-opacity="0"/>
</radialGradient>
<radialGradient id="paint4_radial_3_6898" cx="0" cy="0" r="1" gradientUnits="userSpaceOnUse" gradientTransform="translate(58.0528 117.764) scale(34.8284 23.307)">
<stop stop-color="white"/>
<stop offset="1" stop-color="white" stop-opacity="0"/>
</radialGradient>
<radialGradient id="paint5_radial_3_6898" cx="0" cy="0" r="1" gradientUnits="userSpaceOnUse" gradientTransform="translate(102.476 75.3354) scale(19.4362 8.24006)">
<stop stop-color="white"/>
<stop offset="1" stop-color="white" stop-opacity="0"/>
</radialGradient>
<radialGradient id="paint6_radial_3_6898" cx="0" cy="0" r="1" gradientUnits="userSpaceOnUse" gradientTransform="translate(106.616 77.6226) scale(19.4362 8.24006)">
<stop stop-color="white"/>
<stop offset="1" stop-color="white" stop-opacity="0"/>
</radialGradient>
<linearGradient id="paint7_linear_3_6898" x1="112.958" y1="89.649" x2="113.029" y2="93.231" gradientUnits="userSpaceOnUse">
<stop stop-color="white"/>
<stop offset="1" stop-color="white" stop-opacity="0"/>
</linearGradient>
<linearGradient id="paint8_linear_3_6898" x1="113.007" y1="89.1741" x2="113.007" y2="94.6184" gradientUnits="userSpaceOnUse">
<stop stop-color="white"/>
<stop offset="1" stop-color="white" stop-opacity="0"/>
</linearGradient>
<radialGradient id="paint9_radial_3_6898" cx="0" cy="0" r="1" gradientUnits="userSpaceOnUse" gradientTransform="translate(112.735 95.701) scale(7.99794 1.18601)">
<stop stop-color="white"/>
<stop offset="1" stop-color="white" stop-opacity="0"/>
</radialGradient>
<linearGradient id="paint10_linear_3_6898" x1="102.296" y1="100.727" x2="104.059" y2="103.842" gradientUnits="userSpaceOnUse">
<stop stop-color="white"/>
<stop offset="1" stop-color="white" stop-opacity="0"/>
</linearGradient>
<linearGradient id="paint11_linear_3_6898" x1="101.622" y1="99.5978" x2="104.091" y2="104.448" gradientUnits="userSpaceOnUse">
<stop stop-color="white"/>
<stop offset="1" stop-color="white" stop-opacity="0"/>
</linearGradient>
<radialGradient id="paint12_radial_3_6898" cx="0" cy="0" r="1" gradientUnits="userSpaceOnUse" gradientTransform="translate(105.24 106.667) rotate(-26.9028) scale(3.46125 1.17642)">
<stop stop-color="white"/>
<stop offset="1" stop-color="white" stop-opacity="0"/>
</radialGradient>
<radialGradient id="paint13_radial_3_6898" cx="0" cy="0" r="1" gradientUnits="userSpaceOnUse" gradientTransform="translate(33.7485 88.9329) scale(12.9101 5.25238)">
<stop stop-color="white" stop-opacity="0.33"/>
<stop offset="1" stop-color="white" stop-opacity="0"/>
</radialGradient>
<linearGradient id="paint14_linear_3_6898" x1="33.4207" y1="99.9983" x2="33.525" y2="101.881" gradientUnits="userSpaceOnUse">
<stop stop-color="white"/>
<stop offset="1" stop-color="white" stop-opacity="0"/>
</linearGradient>
<linearGradient id="paint15_linear_3_6898" x1="33.443" y1="99.6621" x2="33.294" y2="102.434" gradientUnits="userSpaceOnUse">
<stop stop-color="white"/>
<stop offset="1" stop-color="white" stop-opacity="0"/>
</linearGradient>
<radialGradient id="paint16_radial_3_6898" cx="0" cy="0" r="1" gradientUnits="userSpaceOnUse" gradientTransform="translate(33.8836 107.543) rotate(-15.4957) scale(7.31382 2.73218)">
<stop stop-color="white"/>
<stop offset="1" stop-color="white" stop-opacity="0"/>
</radialGradient>
<radialGradient id="paint17_radial_3_6898" cx="0" cy="0" r="1" gradientUnits="userSpaceOnUse" gradientTransform="translate(68.8039 17.5982) scale(101.125 99.5303)">
<stop stop-color="white"/>
<stop offset="1" stop-color="white" stop-opacity="0"/>
</radialGradient>
<linearGradient id="paint18_linear_3_6898" x1="40.4057" y1="90.3737" x2="70.7542" y2="98.398" gradientUnits="userSpaceOnUse">
<stop stop-color="white"/>
<stop offset="1" stop-color="white" stop-opacity="0"/>
</linearGradient>
<linearGradient id="paint19_linear_3_6898" x1="53.6772" y1="76.1136" x2="50.2658" y2="83.9301" gradientUnits="userSpaceOnUse">
<stop stop-color="#EEEEEC"/>
<stop offset="1" stop-color="#EEEEEC" stop-opacity="0"/>
</linearGradient>
<radialGradient id="paint20_radial_3_6898" cx="0" cy="0" r="1" gradientUnits="userSpaceOnUse" gradientTransform="translate(84.1639 98.7169) scale(15.9006 20.2151)">
<stop stop-color="white"/>
<stop offset="1" stop-color="white" stop-opacity="0"/>
</radialGradient>
<linearGradient id="paint21_linear_3_6898" x1="27.4954" y1="79.6297" x2="32.2754" y2="83.4273" gradientUnits="userSpaceOnUse">
<stop stop-color="white"/>
<stop offset="1" stop-color="white" stop-opacity="0"/>
</linearGradient>
<linearGradient id="paint22_linear_3_6898" x1="93.0217" y1="96.9536" x2="78.8352" y2="58.7562" gradientUnits="userSpaceOnUse">
<stop stop-color="#729FCF"/>
<stop offset="1" stop-color="#729FCF" stop-opacity="0"/>
</linearGradient>
</defs>
</svg>
