<svg width="128" height="128" viewBox="0 0 128 128" fill="none" xmlns="http://www.w3.org/2000/svg">
<path d="M13.5 120.7C14.5 120.6 15.1 120.1 15.1 119.3V108.8C15.1 107.7 15.1 107.5 13.5 107.2V106.6H15.2C17.2 106.6 17.7 106.5 17.7 106.5L17.8 106.6C17.8 106.6 17.1 107.4 17.1 109.3V119.3C17.1 119.9 17 120.4 17 120.4L19.1 120.6L19 121.2L13.6 121.3V120.7H13.5ZM20.8 120.7C21.8 120.6 22.4 120.1 22.4 119.3V109.4C22.4 107.9 22 107.4 20.6 107.2V106.6H21.3C22.4 106.6 23.5 106.5 23.5 106.5C23.5 106.5 23.8 107 24.3 107.6L32.3 116.8L33.2 118V108.8C33.2 107.8 33.2 107.3 31.4 107.1V106.5H35.6L35.7 106.8C35.7 106.8 34.2 107.2 34.2 109V121.2H33.6L24.2 110.2C23.9 109.9 23.6 109.5 23.4 109.1V119.1C23.4 119.8 23.3 120.3 23.3 120.3L25.3 120.4L25.2 121L20.9 121.1V120.7H20.8ZM37.7 120.7C38.7 120.6 39.3 120.1 39.3 119.3V108.8C39.3 107.7 39.3 107.5 37.7 107.2V106.6H39.4C41.4 106.6 41.9 106.5 41.9 106.5L42 106.6C42 106.6 41.3 107.4 41.3 109.3V113.2H41.7C41.7 113.2 42.1 113 42.4 112.6L46.7 108.3C47.1 107.9 47.1 107.3 46.1 107.2V106.6H50.2L50.3 106.9C50.3 106.9 49.1 107.2 47.5 108.8L43.3 112.9V113.1L48.6 119.2C49.6 120.3 49.8 120.4 50.5 120.5H50.7L50.6 121.2H47.4L47.3 121.1C47.3 121.1 47.1 120.4 45.6 118.8L41.5 114H41.1V119.2C41.1 119.8 41 120.3 41 120.3L43 120.5L42.9 121.1L37.6 121.2V120.7H37.7ZM52.1 117.4H52.8C52.8 120.1 54.5 120.8 56 120.8C57.4 120.8 58.8 120.2 58.8 118.5C58.8 114.7 51.9 114.7 51.9 110.3C51.9 108.1 53.5 106.5 56.8 106.5C58.4 106.5 59.9 106.9 60.4 106.9L59.7 110.3H59C59.2 108.7 58.4 107.3 56.5 107.3C55 107.3 53.8 108 53.8 109.6C53.8 113.5 60.7 113.1 60.7 117.8C60.7 120.4 58.4 121.7 55.8 121.7C53.9 121.7 51.6 121 51.6 119.4C51.6 119 51.7 118.7 52.1 117.4ZM70.8 106.4C72.4 106.4 74.4 106.8 75.6 106.9L74.9 110.2H74.2C74.2 107.9 72.3 107.2 70.5 107.2C67.1 107.2 64.9 109.9 64.9 113.5C64.9 117.5 67.7 120.1 71.3 120.1C74.1 120.1 75.7 118.5 75.7 118.5L76 119C76 119 74.3 121.6 70.5 121.6C66.6 121.6 62.8 118.9 62.8 114.2C62.8 109.7 66.1 106.4 70.8 106.4ZM76.4 120.7C77.3 120.6 77.7 120.2 77.9 119.7L83.1 106.7L84 106.5L88.9 119C89.5 120.5 89.9 120.6 90.6 120.7L90.5 121.3H89.6C88.8 121.3 86.3 121.4 86.3 121.4V120.7C86.9 120.7 87.5 120.5 87.2 119.8L85.9 116.3H80.6L80.3 116.5L78.8 120.5L80.7 120.8L80.6 121.4H76.5V120.7H76.4ZM83.1 109L80.7 115.4H85.5L83.6 110.4C83.4 109.9 83.2 109.3 83.1 109ZM91.6 120.7C92.6 120.6 93.2 120.1 93.2 119.3V108.8C93.2 107.7 93.1 107.5 91.4 107.2V106.6H96.9C99.4 106.6 102.3 107.4 102.3 110.6C102.3 114.1 99 115.3 96.6 115.1V114.5C99.2 114.4 100.1 112.8 100.1 111.1C100.1 108.5 98 107.4 95.7 107.4H95.4L95.2 107.6V119.2C95.2 119.8 95.1 120.3 95.1 120.3L97.2 120.5L97.1 121.1L91.7 121.2V120.7H91.6ZM104 120.7C105 120.6 105.6 120.1 105.6 119.3V108.8C105.6 107.7 105.5 107.5 103.8 107.2V106.6H112.9C113.8 106.6 114.5 106.5 114.5 106.5L113.8 110.2H113C113.1 107.9 112.4 107.5 110.6 107.5H107.7L107.5 107.7V113.4H111.6L111.8 112.1L112.6 112V115.9H111.6V114.3H107.8L107.6 114.5V119.2C107.6 119.9 107.5 120.4 107.5 120.4H111C112.9 120.4 113.2 120 114.3 117.7H115L114.2 121.3H107.3C106.2 121.3 104.1 121.4 104.1 121.4V120.7H104Z" fill="black"/>
<g opacity="0.783">
<path d="M55.1584 6.79323L18.1816 44.6646C4.16621 58.68 27.227 57.4872 35.5766 62.7554C39.4532 65.2404 23.1516 68.5206 26.5312 71.8008L49.1944 81.4426C52.3752 84.7228 42.634 88.3012 45.9142 91.5814C49.095 94.8616 56.55 91.7802 57.9416 99.3346C58.9356 104.901 71.7582 102.118 77.5234 97.3466L74.5414 90.985C82.5928 82.8342 89.7496 87.3072 92.7316 79.7528C94.322 75.6774 80.5054 72.8942 84.1832 70.2104C92.9304 64.0476 125.235 60.8668 110.325 45.9568L72.0564 6.79323C67.2852 2.32023 59.532 2.32023 55.1584 6.79323ZM97.5028 79.7528C97.5028 81.6414 112.115 82.7348 111.319 79.2558C110.226 73.59 99.1926 73.9876 97.5028 79.7528ZM35.179 89.6928C38.4592 92.5754 43.5286 89.0964 45.119 85.021C41.9382 80.8462 30.0102 85.3192 35.179 89.6928ZM95.7136 83.7288C91.5388 87.506 96.4094 91.482 100.485 88.7982C101.578 88.1024 100.385 84.6234 95.7136 83.7288Z" fill="black"/>
<path opacity="0.576" d="M55.1584 7.68776L18.1816 45.5592C4.16621 59.5746 27.227 58.3818 35.5766 63.65C39.4532 66.135 23.1516 69.4152 26.5312 72.6954L49.1944 82.3372C52.3752 85.6174 42.634 89.1958 45.9142 92.476C49.095 95.7562 56.55 92.6748 57.9416 100.229C58.9356 105.796 71.7582 103.012 77.5234 98.2412L74.5414 91.8796C82.5928 83.7288 89.7496 88.2018 92.7316 80.6474C94.322 76.572 80.5054 73.7888 84.1832 71.105C92.9304 64.9422 125.235 61.7614 110.325 46.8514L72.0564 7.68776C67.2852 3.21476 59.532 3.21476 55.1584 7.68776ZM97.5028 80.6474C97.5028 82.5359 112.115 83.6294 111.319 80.1504C110.226 74.3852 99.1926 74.8822 97.5028 80.6474ZM35.179 90.5874C38.4592 93.47 43.5286 89.991 45.119 85.9156C41.9382 81.6414 30.0102 86.2138 35.179 90.5874ZM95.7136 84.524C91.5388 88.3012 96.4094 92.2772 100.485 89.5934C101.578 88.997 100.385 85.4186 95.7136 84.524Z" fill="black"/>
</g>
<path d="M55.1584 5.91041L18.1816 43.7818C4.16621 57.7972 27.227 56.6044 35.5766 61.8726C39.4532 64.3576 23.1516 67.6378 26.5312 70.918L49.1944 80.5598C52.3752 83.84 42.634 87.4184 45.9142 90.6986C49.095 93.9788 56.55 90.8974 57.9416 98.4518C58.9356 104.018 71.7582 101.235 77.5234 96.4638L74.5414 90.1022C82.5928 81.9514 89.7496 86.4244 92.7316 78.87C94.322 74.7946 80.5054 72.0114 84.1832 69.3276C92.9304 63.1648 125.235 59.984 110.325 45.074L72.0564 5.91041C67.2852 1.43741 59.532 1.43741 55.1584 5.91041ZM97.5028 78.87C97.5028 80.7586 112.115 81.852 111.319 78.373C110.226 72.7072 99.1926 73.1048 97.5028 78.87ZM35.179 88.81C38.4592 91.6926 43.5286 88.2136 45.119 84.1382C41.9382 79.9634 30.0102 84.4364 35.179 88.81ZM95.7136 82.846C91.5388 86.6232 96.4094 90.5992 100.485 87.9154C101.578 87.2196 100.385 83.7406 95.7136 82.846Z" fill="black"/>
<path d="M55.3652 6.93735L19.0168 44.0739C5.3245 57.7661 27.8822 56.6826 36.0582 61.9034C39.8014 64.366 23.942 67.5182 27.1927 70.7688C30.4434 74.0195 46.3027 76.9747 49.5534 80.1269L46.3027 90.0759C49.3564 93.3266 56.7443 90.2729 58.1234 97.6608C59.1085 103.079 71.7171 100.419 77.332 95.6907C80.8781 92.7355 71.2246 92.7355 74.4753 89.4849C82.3557 81.5059 89.4481 85.8402 92.3048 78.4523C93.8809 74.5121 80.2871 71.6554 83.9318 69.0943C92.6003 62.9869 124.221 59.9333 109.642 45.3545L71.9142 6.93735C67.2844 2.50461 59.601 2.50461 55.3652 6.93735ZM46.5983 63.8735C47.3863 63.8735 73.6873 67.4197 63.5412 70.0793C59.6995 71.1629 41.9685 63.8735 46.5983 63.8735ZM96.9345 78.4523C96.9345 80.3239 111.316 81.3089 110.528 78.0583C109.346 72.4434 98.5106 72.8375 96.9345 78.4523ZM35.7627 88.3028C39.0133 91.1595 43.9386 87.7118 45.5147 83.7716C42.3625 79.5358 30.6404 83.9686 35.7627 88.3028ZM95.1614 82.3925C91.1227 86.1357 95.851 89.9774 99.7912 87.4163C100.875 86.6282 99.7912 83.279 95.1614 82.3925Z" fill="url(#paint0_linear_3_7119)"/>
<path opacity="0.505" d="M21.4618 45.8694C11.4224 55.8094 29.0162 53.0262 42.634 58.3938L70.6648 9.09137C66.3906 4.71777 61.023 5.11537 57.047 9.09137L21.4618 45.8694Z" fill="url(#paint1_linear_3_7119)"/>
<path d="M69.8697 8.59441L84.4815 23.5044C85.8731 24.896 85.8731 27.6792 84.9785 28.4744L77.7223 22.5104L76.3307 31.2576L70.3667 28.0768L60.6255 34.2396L57.4447 21.2182L52.0771 32.4504L39.0557 32.351C36.5707 32.351 36.8689 29.7666 39.5527 27.1822C44.6221 21.5164 54.6615 11.974 57.7429 8.59441C60.9237 5.31421 66.5895 5.41361 69.8697 8.59441Z" fill="url(#paint2_linear_3_7119)"/>
<path opacity="0.217" d="M49.7907 78.9692C49.7907 78.9692 51.3811 81.3548 51.1823 82.5476C50.8841 84.8338 46.0135 85.9272 47.1069 87.9152C48.2003 89.9032 51.9775 88.8098 55.1583 90.7978C58.3391 92.8852 57.4445 97.06 59.8301 98.054C64.3031 100.141 76.1317 94.4756 75.5353 94.6744C74.9389 94.7738 63.9055 97.06 61.4205 95.072C58.5379 92.7858 57.7427 91.1954 55.6553 89.8038C53.6673 88.5116 50.8841 88.0146 50.2877 86.9212C49.6913 85.8278 51.5799 84.5356 51.6793 82.5476C51.7787 81.3548 49.7907 78.9692 49.7907 78.9692Z" fill="url(#paint3_radial_3_7119)"/>
<g opacity="0.276">
<path d="M49.7907 78.9692C49.7907 78.9692 51.3811 81.3548 51.1823 82.5476C50.8841 84.8338 46.0135 85.9272 47.1069 87.9152C48.2003 89.9032 51.9775 88.8098 55.1583 90.7978C58.3391 92.8852 57.4445 97.06 59.8301 98.054C64.3031 100.141 76.1317 94.4756 75.5353 94.6744C55.8541 94.7738 59.5319 89.7044 51.9775 86.3248C50.8841 85.8278 51.4805 84.5356 51.6793 82.5476C51.7787 81.3548 49.7907 78.9692 49.7907 78.9692Z" fill="url(#paint4_radial_3_7119)"/>
</g>
<path opacity="0.453" d="M83.09 68.6318C100.684 62.1708 106.35 61.2762 112.214 55.4116C105.554 61.1768 91.2408 64.1588 79.7104 69.2282L83.09 68.6318Z" fill="url(#paint5_radial_3_7119)"/>
<g opacity="0.512">
<path d="M83.09 67.8364C112.115 57.5982 107.244 57.5982 112.214 54.6162C102.97 58.1946 85.7738 58.4928 79.7104 68.4328L83.09 67.8364Z" fill="url(#paint6_radial_3_7119)"/>
</g>
<path opacity="0.286" d="M108.536 75.9872C108.536 76.5836 106.847 77.18 104.759 77.18C102.672 77.18 100.982 76.683 100.982 75.9872C100.982 75.3908 102.672 74.7944 104.759 74.7944C106.847 74.8938 108.536 75.3908 108.536 75.9872Z" fill="url(#paint7_linear_3_7119)"/>
<g opacity="0.621">
<path d="M109.828 77.379C109.828 78.7706 107.542 79.864 104.759 79.864C101.976 79.864 99.6895 78.7706 99.6895 77.379C99.6895 75.9874 101.976 74.894 104.759 74.894C107.542 74.894 109.828 75.9874 109.828 77.379Z" fill="url(#paint8_linear_3_7119)"/>
</g>
<path d="M97.8008 78.7704C99.59 80.4602 109.53 81.2554 111.22 78.2734C108.039 80.5596 100.882 79.7644 97.8008 78.7704Z" fill="url(#paint9_radial_3_7119)"/>
<path opacity="0.286" d="M97.801 84.2377C98.1986 84.9335 97.9004 85.8281 97.304 86.1263C96.6082 86.4245 95.813 86.1263 95.4154 85.4305C95.0178 84.7347 95.316 83.8401 95.9124 83.5419C96.5088 83.2437 97.5028 83.5419 97.801 84.2377Z" fill="url(#paint10_linear_3_7119)"/>
<g opacity="0.621">
<path d="M98.596 84.6351C99.1924 85.7285 98.7948 87.0207 97.8008 87.5177C96.8068 88.0147 95.614 87.5177 95.117 86.4243C94.5206 85.2315 94.8188 84.0387 95.8128 83.5417C96.8068 83.0447 97.9996 83.5417 98.596 84.6351Z" fill="url(#paint11_linear_3_7119)"/>
</g>
<path d="M95.3159 87.6174C96.7075 88.7108 102.175 88.9096 100.087 85.6294C100.684 88.2138 97.0057 87.9156 95.3159 87.6174Z" fill="url(#paint12_radial_3_7119)"/>
<path d="M28.519 70.6197C28.519 70.3215 47.0074 76.2855 50.0888 79.3669C47.5044 76.7825 34.3836 71.0173 32.2962 70.9179C30.4076 70.9179 28.7178 70.8185 28.519 70.6197Z" fill="url(#paint13_radial_3_7119)"/>
<path opacity="0.286" d="M42.4004 83.3082C42.54 83.7233 41.1942 84.4645 39.3593 84.8674C37.5245 85.2703 35.9229 85.2505 35.7601 84.7662C35.6205 84.3511 36.9663 83.6099 38.8011 83.207C40.6359 82.8042 42.2608 82.8931 42.4004 83.3082Z" fill="url(#paint14_linear_3_7119)"/>
<g opacity="0.621">
<path d="M43.8621 84.0277C44.1878 84.9962 42.4341 86.1985 39.9876 86.7356C37.5412 87.2728 35.2758 86.953 34.9501 85.9844C34.6245 85.0159 36.3782 83.8136 38.8247 83.2765C41.2711 82.7393 43.5365 83.0591 43.8621 84.0277Z" fill="url(#paint15_linear_3_7119)"/>
</g>
<g opacity="0.616">
<path d="M34.3838 86.3248C34.3838 86.3248 35.3778 89.0086 38.161 89.108C40.9442 89.2074 44.125 85.8278 44.3238 84.5356C43.8268 85.629 41.2424 88.8098 37.7634 88.8098C35.8748 88.8098 34.3838 86.3248 34.3838 86.3248Z" fill="url(#paint16_radial_3_7119)"/>
</g>
<path d="M63.508 3.92236C60.7248 3.92236 58.041 4.91636 56.053 6.90436L19.0762 44.6764C15.6966 48.056 14.9014 50.2428 15.1002 51.535C15.1996 52.1314 15.4978 52.7278 16.1936 53.2248C16.8894 53.8212 17.8834 54.3182 18.9768 54.8152C21.3624 55.8092 24.5432 56.6044 27.724 57.499C30.9048 58.3936 33.9862 59.2882 36.2724 60.7792C36.67 60.978 36.9682 61.2762 37.167 61.6738C37.3658 62.0714 37.4652 62.6678 37.3658 63.0654C37.167 63.96 36.5706 64.457 36.0736 64.8546C34.9802 65.7492 33.3898 66.445 31.7994 67.2402C30.209 68.0354 28.6186 68.8306 27.8234 69.427C27.4258 69.7252 27.3264 70.0234 27.3264 70.0234C27.3264 70.0234 27.227 69.8246 27.4258 69.924C27.9228 70.421 29.5132 71.3156 31.4018 72.1108C33.2904 72.906 35.7754 73.7012 38.2604 74.4964C40.646 75.2916 43.131 76.0868 45.2184 76.882C47.3058 77.6772 48.9956 78.4724 50.089 79.5658C50.6854 80.1622 51.083 80.858 51.083 81.5538C51.1824 82.2496 50.9836 82.9454 50.6854 83.5418C50.089 84.7346 49.1944 85.5298 48.3992 86.4244C47.604 87.319 46.8088 88.1142 46.61 88.6112C46.5106 88.9094 46.4112 89.1082 46.5106 89.2076C46.61 89.307 46.5106 89.4064 46.8088 89.7046C47.9022 90.798 50.1884 90.9968 52.8722 91.5932C54.1644 91.8914 55.556 92.3884 56.7488 93.3824C57.9416 94.3764 58.8362 95.9668 59.2338 98.0542C59.4326 98.9488 59.8302 99.3464 61.023 99.744C62.1164 100.142 63.9056 100.142 65.7942 99.8434C69.5714 99.247 74.1438 97.4578 76.7282 95.271C76.927 95.1716 76.8276 95.1716 76.927 95.0722C76.7282 94.9728 76.3306 94.6746 75.6348 94.3764C74.8396 93.9788 73.8456 93.5812 73.1498 92.6866C72.7522 92.1896 72.5534 91.4938 72.6528 90.798C72.7522 90.1022 73.1498 89.5058 73.6468 89.0088C77.921 84.7346 82.0958 83.6412 85.2766 82.846C86.867 82.4484 88.1592 82.0508 89.1532 81.4544C90.1472 80.858 90.9424 79.9634 91.6382 78.2736C91.7376 78.0748 91.7376 78.0748 91.6382 77.7766C91.5388 77.4784 91.2406 77.1802 90.843 76.882C90.0478 76.1862 88.5568 75.391 87.1652 74.5958C85.7736 73.8006 84.382 73.1048 83.4874 72.2102C82.9904 71.7132 82.4934 71.2162 82.394 70.3216C82.2946 69.427 82.891 68.6318 83.5868 68.2342C86.0718 66.5444 89.7496 65.1528 93.825 63.7612C97.9004 62.3696 102.175 60.8786 105.753 59.2882C109.331 57.5984 111.916 55.7098 112.711 53.8212C113.109 52.8272 113.208 51.9326 112.81 50.6404C112.413 49.3482 111.419 47.8572 109.63 46.068L71.1618 6.90436C69.0744 4.91636 66.1918 3.92236 63.508 3.92236ZM104.66 75.6892C102.274 75.7886 100.087 76.882 99.1926 78.5718C99.4908 78.6712 99.6896 78.7706 100.087 78.87C101.28 79.1682 103.069 79.367 104.759 79.367C106.449 79.367 108.139 79.2676 109.232 78.9694C109.729 78.87 109.928 78.6712 110.027 78.6712C109.828 77.6772 109.232 76.9814 108.337 76.4844C107.343 75.888 106.051 75.5898 104.66 75.6892ZM41.4412 83.7406C39.5526 83.6412 37.167 84.337 36.0736 85.331C35.4772 85.828 35.2784 86.2256 35.2784 86.5238C35.2784 86.822 35.3778 87.2196 36.0736 87.816C37.2664 88.9094 38.658 88.7106 40.2484 87.9154C41.5406 87.2196 42.7334 85.828 43.5286 84.4364C42.9322 84.1382 42.3358 83.84 41.4412 83.7406V83.7406ZM96.1112 84.337C95.7136 84.834 95.5148 85.331 95.5148 85.6292C95.5148 86.1262 95.6142 86.4244 96.0118 86.822C96.7076 87.4184 98.0992 87.7166 99.5902 86.9214C99.5902 86.7226 99.4908 86.5238 99.292 86.1262C98.795 85.5298 97.7016 84.834 96.1112 84.337Z" stroke="url(#paint17_radial_3_7119)" stroke-width="0.485072"/>
<g opacity="0.325">
<path d="M43.2304 63.165C41.0436 63.8608 33.7874 66.5446 34.7814 68.632C35.7754 70.62 52.574 71.4152 55.1584 77.3792C56.2518 79.9636 52.574 81.9516 53.4686 84.6354C54.1644 86.7228 59.7308 91.8916 63.3092 94.2772C66.0924 96.1658 69.7702 92.6868 68.2792 89.9036C65.8936 85.3312 76.3306 79.7648 81.1018 77.1804C83.885 75.6894 75.436 68.4332 75.436 68.4332L43.2304 63.165Z" fill="url(#paint18_linear_3_7119)"/>
</g>
<path d="M44.0258 65.1528C46.0138 66.6438 49.9898 65.7492 52.3754 66.8426C58.0412 69.427 65.0986 72.3096 63.8064 67.2402L62.3154 68.433V66.1468L58.9358 66.942C58.9358 66.942 56.3514 64.8546 55.1586 64.1588C54.8604 64.0594 53.6676 65.3516 53.6676 65.3516L53.4688 63.96C51.779 63.7612 50.1886 63.6618 48.6976 63.7612C45.1192 63.6618 42.7336 64.2582 44.0258 65.1528Z" fill="url(#paint19_linear_3_7119)"/>
<g opacity="0.478">
<path d="M81.3999 69.8247C80.6047 72.7073 90.8429 76.4845 90.1471 78.4725C88.4573 82.7467 79.2131 79.8641 72.1557 88.9095C71.1617 90.2017 73.5473 94.7741 73.2491 94.2771C72.9509 93.7801 70.4659 89.9035 71.0623 88.0149C73.0503 82.1503 92.5327 79.9635 88.9543 77.0809C86.8669 75.4905 79.5113 71.0175 81.3999 69.8247Z" fill="url(#paint20_radial_3_7119)"/>
</g>
<path opacity="0.586" d="M104.461 75.6894C104.461 75.9876 103.964 76.1864 103.367 76.1864C102.771 76.1864 102.274 75.9876 102.274 75.6894C102.274 75.3912 102.771 75.1924 103.367 75.1924C103.964 75.1924 104.461 75.3912 104.461 75.6894ZM97.0059 84.2378C97.0059 84.536 96.7077 84.7348 96.3101 84.7348C95.9125 84.7348 95.6143 84.536 95.6143 84.2378C95.6143 83.9396 95.9125 83.7408 96.3101 83.7408C96.6083 83.7408 97.0059 84.039 97.0059 84.2378ZM40.2485 83.8402C40.2485 84.1384 39.6521 84.3372 38.9563 84.3372C38.2605 84.3372 37.6641 84.1384 37.6641 83.8402C37.6641 83.542 38.2605 83.3432 38.9563 83.3432C39.6521 83.3432 40.2485 83.542 40.2485 83.8402Z" fill="white"/>
<path opacity="0.251" d="M39.4534 63.3638C32.9924 67.3398 23.0524 68.7314 33.9864 71.4152C32.6942 68.5326 36.869 68.8308 39.4534 63.3638Z" fill="url(#paint21_linear_3_7119)"/>
<g opacity="0.363">
<path d="M62.315 99.545C62.315 99.545 72.255 98.6505 74.5412 95.7678C75.8334 94.078 69.1736 92.1894 70.6646 90.4996C76.0322 84.3368 80.6046 84.635 86.8668 82.0506C93.129 79.4662 90.8428 78.174 88.7554 77.0806C85.2764 75.0926 77.5232 73.1046 80.1076 68.4328C82.692 63.7611 105.256 57.3995 105.256 57.3995C112.114 55.1133 111.22 50.839 107.84 47.36L87.662 27.2812C87.662 27.2812 88.656 46.2667 84.5806 54.4174C79.5112 64.4568 52.7726 75.689 64.0048 76.9812C67.9808 77.3788 69.8694 78.7704 71.4598 81.7524C74.74 88.0146 62.315 99.545 62.315 99.545Z" fill="url(#paint22_linear_3_7119)"/>
</g>
<defs>
<linearGradient id="paint0_linear_3_7119" x1="95.9294" y1="31.1307" x2="76.5655" y2="48.6384" gradientUnits="userSpaceOnUse">
<stop stop-color="#C0CDF9"/>
<stop offset="1" stop-color="#07092D" stop-opacity="0.288"/>
</linearGradient>
<linearGradient id="paint1_linear_3_7119" x1="38.2735" y1="23.918" x2="60.7614" y2="46.405" gradientUnits="userSpaceOnUse">
<stop stop-color="white"/>
<stop offset="1" stop-color="white" stop-opacity="0"/>
</linearGradient>
<linearGradient id="paint2_linear_3_7119" x1="53.2879" y1="19.8091" x2="80.0311" y2="46.5522" gradientUnits="userSpaceOnUse">
<stop stop-color="white"/>
<stop offset="1" stop-color="white" stop-opacity="0"/>
</linearGradient>
<radialGradient id="paint3_radial_3_7119" cx="0" cy="0" r="1" gradientUnits="userSpaceOnUse" gradientTransform="translate(46.9992 96.9608) scale(22.6948 15.1756)">
<stop stop-color="white"/>
<stop offset="1" stop-color="white" stop-opacity="0"/>
</radialGradient>
<radialGradient id="paint4_radial_3_7119" cx="0" cy="0" r="1" gradientUnits="userSpaceOnUse" gradientTransform="translate(59.0678 97.6319) scale(28.9517 19.3743)">
<stop stop-color="white"/>
<stop offset="1" stop-color="white" stop-opacity="0"/>
</radialGradient>
<radialGradient id="paint5_radial_3_7119" cx="0" cy="0" r="1" gradientUnits="userSpaceOnUse" gradientTransform="translate(95.9936 62.4247) scale(16.1564 6.84958)">
<stop stop-color="white"/>
<stop offset="1" stop-color="white" stop-opacity="0"/>
</radialGradient>
<radialGradient id="paint6_radial_3_7119" cx="0" cy="0" r="1" gradientUnits="userSpaceOnUse" gradientTransform="translate(99.4345 64.3271) scale(16.1564 6.84958)">
<stop stop-color="white"/>
<stop offset="1" stop-color="white" stop-opacity="0"/>
</radialGradient>
<linearGradient id="paint7_linear_3_7119" x1="104.706" y1="74.059" x2="104.765" y2="77.0366" gradientUnits="userSpaceOnUse">
<stop stop-color="white"/>
<stop offset="1" stop-color="white" stop-opacity="0"/>
</linearGradient>
<linearGradient id="paint8_linear_3_7119" x1="104.739" y1="73.8676" x2="104.739" y2="78.3933" gradientUnits="userSpaceOnUse">
<stop stop-color="white"/>
<stop offset="1" stop-color="white" stop-opacity="0"/>
</linearGradient>
<radialGradient id="paint9_radial_3_7119" cx="0" cy="0" r="1" gradientUnits="userSpaceOnUse" gradientTransform="translate(104.521 79.6657) scale(6.64848 0.985897)">
<stop stop-color="white"/>
<stop offset="1" stop-color="white" stop-opacity="0"/>
</radialGradient>
<linearGradient id="paint10_linear_3_7119" x1="95.8199" y1="83.2992" x2="97.2852" y2="85.8887" gradientUnits="userSpaceOnUse">
<stop stop-color="white"/>
<stop offset="1" stop-color="white" stop-opacity="0"/>
</linearGradient>
<linearGradient id="paint11_linear_3_7119" x1="95.4195" y1="82.5403" x2="97.4724" y2="86.5723" gradientUnits="userSpaceOnUse">
<stop stop-color="white"/>
<stop offset="1" stop-color="white" stop-opacity="0"/>
</linearGradient>
<radialGradient id="paint12_radial_3_7119" cx="0" cy="0" r="1" gradientUnits="userSpaceOnUse" gradientTransform="translate(98.0611 87.9172) rotate(-26.9027) scale(2.87725 0.977924)">
<stop stop-color="white"/>
<stop offset="1" stop-color="white" stop-opacity="0"/>
</radialGradient>
<radialGradient id="paint13_radial_3_7119" cx="0" cy="0" r="1" gradientUnits="userSpaceOnUse" gradientTransform="translate(38.8631 73.4032) scale(10.7319 4.36621)">
<stop stop-color="white" stop-opacity="0.33"/>
<stop offset="1" stop-color="white" stop-opacity="0"/>
</radialGradient>
<linearGradient id="paint14_linear_3_7119" x1="38.602" y1="82.6754" x2="38.6887" y2="84.2406" gradientUnits="userSpaceOnUse">
<stop stop-color="white"/>
<stop offset="1" stop-color="white" stop-opacity="0"/>
</linearGradient>
<linearGradient id="paint15_linear_3_7119" x1="38.503" y1="82.5534" x2="38.3791" y2="84.8579" gradientUnits="userSpaceOnUse">
<stop stop-color="white"/>
<stop offset="1" stop-color="white" stop-opacity="0"/>
</linearGradient>
<radialGradient id="paint16_radial_3_7119" cx="0" cy="0" r="1" gradientUnits="userSpaceOnUse" gradientTransform="translate(39.1559 88.8545) rotate(-15.4957) scale(6.0793 2.271)">
<stop stop-color="white"/>
<stop offset="1" stop-color="white" stop-opacity="0"/>
</radialGradient>
<radialGradient id="paint17_radial_3_7119" cx="0" cy="0" r="1" gradientUnits="userSpaceOnUse" gradientTransform="translate(68.0074 14.3395) scale(84.1811 82.8535)">
<stop stop-color="white"/>
<stop offset="1" stop-color="white" stop-opacity="0"/>
</radialGradient>
<linearGradient id="paint18_linear_3_7119" x1="44.398" y1="74.6897" x2="69.6253" y2="81.3604" gradientUnits="userSpaceOnUse">
<stop stop-color="white"/>
<stop offset="1" stop-color="white" stop-opacity="0"/>
</linearGradient>
<linearGradient id="paint19_linear_3_7119" x1="55.4205" y1="63.007" x2="52.5846" y2="69.5045" gradientUnits="userSpaceOnUse">
<stop stop-color="#EEEEEC"/>
<stop offset="1" stop-color="#EEEEEC" stop-opacity="0"/>
</linearGradient>
<radialGradient id="paint20_radial_3_7119" cx="0" cy="0" r="1" gradientUnits="userSpaceOnUse" gradientTransform="translate(80.7619 81.8801) scale(13.2173 16.8038)">
<stop stop-color="white"/>
<stop offset="1" stop-color="white" stop-opacity="0"/>
</radialGradient>
<linearGradient id="paint21_linear_3_7119" x1="33.651" y1="65.9806" x2="37.624" y2="69.1372" gradientUnits="userSpaceOnUse">
<stop stop-color="white"/>
<stop offset="1" stop-color="white" stop-opacity="0"/>
</linearGradient>
<linearGradient id="paint22_linear_3_7119" x1="88.1349" y1="80.1596" x2="76.3425" y2="48.4077" gradientUnits="userSpaceOnUse">
<stop stop-color="#729FCF"/>
<stop offset="1" stop-color="#729FCF" stop-opacity="0"/>
</linearGradient>
</defs>
</svg>
