<svg width="128" height="128" viewBox="0 0 128 128" fill="none" xmlns="http://www.w3.org/2000/svg">
<path d="M13.3999 120.7C14.3999 120.6 14.9999 120.1 14.9999 119.3V108.8C14.9999 107.7 14.9999 107.5 13.3999 107.2V106.6H14.9999C16.9999 106.6 17.4999 106.5 17.4999 106.5L17.5999 106.6C17.5999 106.6 16.8999 107.4 16.8999 109.3V119.3C16.8999 119.9 16.7999 120.4 16.7999 120.4L18.8999 120.6L18.7999 121.2L13.3999 121.3V120.7ZM20.6999 120.7C21.6999 120.6 22.2999 120.1 22.2999 119.3V109.4C22.2999 107.9 21.8999 107.4 20.4999 107.2V106.6H21.1999C22.2999 106.6 23.3999 106.5 23.3999 106.5C23.3999 106.5 23.6999 107 24.1999 107.6L32.1999 116.8L33.0999 118V108.8C33.0999 107.8 33.0999 107.3 31.2999 107.1V106.5H35.4999L35.5999 106.8C35.5999 106.8 34.0999 107.2 34.0999 109V121.2H33.4999L24.0999 110.2C23.7999 109.9 23.4999 109.5 23.2999 109.1V119.1C23.2999 119.8 23.1999 120.3 23.1999 120.3L25.1999 120.4L25.0999 121L20.7999 121.1V120.7H20.6999ZM37.4999 120.7C38.4999 120.6 39.0999 120.1 39.0999 119.3V108.8C39.0999 107.7 39.0999 107.5 37.4999 107.2V106.6H39.1999C41.1999 106.6 41.6999 106.5 41.6999 106.5L41.7999 106.6C41.7999 106.6 41.0999 107.4 41.0999 109.3V113.2H41.4999C41.4999 113.2 41.8999 113 42.1999 112.6L46.4999 108.3C46.8999 107.9 46.8999 107.3 45.8999 107.2V106.6H49.9999L50.0999 106.9C50.0999 106.9 48.8999 107.2 47.2999 108.8L43.0999 112.9V113.1L48.3999 119.2C49.3999 120.3 49.5999 120.4 50.2999 120.5H50.4999L50.3999 121.2H47.1999L47.0999 121.1C47.0999 121.1 46.8999 120.4 45.3999 118.8L41.2999 114H40.9999V119.2C40.9999 119.8 40.8999 120.3 40.8999 120.3L42.8999 120.5L42.7999 121.1L37.4999 121.2V120.7ZM51.9999 117.4H52.6999C52.6999 120.1 54.3999 120.8 55.8999 120.8C57.2999 120.8 58.6999 120.2 58.6999 118.5C58.6999 114.7 51.7999 114.7 51.7999 110.3C51.7999 108.1 53.3999 106.5 56.6999 106.5C58.2999 106.5 59.7999 106.9 60.2999 106.9L59.5999 110.3H58.8999C59.0999 108.7 58.2999 107.3 56.3999 107.3C54.8999 107.3 53.6999 108 53.6999 109.6C53.6999 113.5 60.5999 113.1 60.5999 117.8C60.5999 120.4 58.2999 121.7 55.6999 121.7C53.7999 121.7 51.4999 121 51.4999 119.4C51.3999 119 51.4999 118.7 51.9999 117.4ZM70.6999 106.4C72.2999 106.4 74.2999 106.8 75.4999 106.9L74.7999 110.2H73.9999C73.9999 107.9 72.0999 107.2 70.2999 107.2C66.8999 107.2 64.6999 109.9 64.6999 113.5C64.6999 117.5 67.4999 120.1 71.0999 120.1C73.8999 120.1 75.4999 118.5 75.4999 118.5L75.7999 119C75.7999 119 74.0999 121.6 70.2999 121.6C66.3999 121.6 62.5999 118.9 62.5999 114.2C62.5999 109.7 65.8999 106.4 70.6999 106.4ZM76.2999 120.7C77.1999 120.6 77.5999 120.2 77.7999 119.7L82.9999 106.7L83.8999 106.5L88.7999 119C89.3999 120.5 89.7999 120.6 90.4999 120.7L90.3999 121.3H89.4999C88.6999 121.3 86.1999 121.4 86.1999 121.4V120.7C86.7999 120.7 87.3999 120.5 87.0999 119.8L85.7999 116.3H80.4999L80.1999 116.5L78.6999 120.5L80.5999 120.8L80.4999 121.4H76.3999V120.7H76.2999ZM82.8999 109L80.4999 115.4H85.2999L83.3999 110.4C83.1999 109.9 82.9999 109.3 82.8999 109ZM91.3999 120.7C92.3999 120.6 92.9999 120.1 92.9999 119.3V108.8C92.9999 107.7 92.8999 107.5 91.1999 107.2V106.6H96.6999C99.1999 106.6 102.1 107.4 102.1 110.6C102.1 114.1 98.7999 115.3 96.3999 115.1V114.5C98.9999 114.4 99.8999 112.8 99.8999 111.1C99.8999 108.5 97.7999 107.4 95.4999 107.4H95.1999L94.9999 107.6V119.2C94.9999 119.8 94.8999 120.3 94.8999 120.3L96.9999 120.5L96.8999 121.1L91.4999 121.2V120.7H91.3999ZM103.8 120.7C104.8 120.6 105.4 120.1 105.4 119.3V108.8C105.4 107.7 105.3 107.5 103.6 107.2V106.6H112.7C113.6 106.6 114.3 106.5 114.3 106.5L113.6 110.2H112.9C113 107.9 112.3 107.5 110.5 107.5H107.6L107.4 107.7V113.4H111.5L111.7 112.1L112.5 112V115.9H111.5V114.3H107.7L107.5 114.5V119.2C107.5 119.9 107.4 120.4 107.4 120.4H110.9C112.8 120.4 113.1 120 114.2 117.7H114.9L114.1 121.3H107C105.9 121.3 103.8 121.4 103.8 121.4V120.7ZM100.3 89.3002C101.2 88.4002 100.3 85.1002 95.6999 84.1002C91.3999 87.9002 96.0999 91.7002 100.3 89.3002ZM44.8999 85.5002C41.6999 81.3002 29.7999 85.7002 34.9999 90.2002C38.2999 93.0002 43.3999 89.5002 44.8999 85.5002ZM111.2 79.8002C109.2 74.1002 98.9999 74.5002 97.3999 80.2002C97.3999 82.1002 111.2 83.3002 111.2 79.8002ZM83.9999 70.6002C93.2999 65.2002 125.4 61.6002 110.2 46.4002L71.8999 7.2002C67.1999 2.7002 59.3999 2.6002 54.8999 7.2002L17.8999 45.1002C5.3999 60.6002 26.3999 58.8002 35.3999 63.2002L26.1999 72.2002C29.3999 75.5002 45.6999 78.6002 48.9999 81.9002L45.5999 92.0002C48.7999 95.3002 56.2999 92.2002 57.6999 99.8002C58.6999 105.2 71.1999 102.1 77.2999 97.7002L74.2999 91.4002C82.2999 83.2002 89.7999 88.4002 92.5999 80.2002C93.9999 76.1002 80.7999 73.9002 83.9999 70.6002ZM64.2999 72.0002C60.3999 73.0002 41.2999 65.3002 46.0999 65.3002C47.0999 65.9002 61.9999 69.0002 65.6999 69.6002C66.8999 69.8002 65.9999 71.1002 64.2999 72.0002ZM76.1999 32.5002L70.0999 29.3002L60.3999 35.4002L57.1999 22.7002L51.8999 32.0002H43.8999C40.5999 32.0002 40.2999 27.6002 43.1999 24.7002C48.3999 19.1002 54.2999 13.3002 57.4999 10.0002C60.6999 6.7002 66.3999 6.7002 69.5999 9.9002L84.1999 24.7002C85.5999 26.1002 85.5999 28.8002 84.7999 29.6002L77.4999 23.8002L76.1999 32.5002Z" fill="black"/>
</svg>
