<svg width="128" height="128" viewBox="0 0 128 128" fill="none" xmlns="http://www.w3.org/2000/svg">
<path d="M38.51 61.26V72.9H36.91V61.26H38.51ZM41.45 66.81C41.45 65.95 41.45 65.24 41.38 64.55H42.82L42.91 65.93C43.224 65.424 43.6679 65.0114 44.1956 64.7352C44.7232 64.4591 45.3152 64.3295 45.91 64.36C47.15 64.36 49.07 65.05 49.07 67.92V72.92H47.43V68.08C47.43 66.73 46.89 65.61 45.36 65.61C44.88 65.6073 44.4113 65.7555 44.0202 66.0336C43.629 66.3118 43.3351 66.7058 43.18 67.16C43.102 67.3884 43.0648 67.6287 43.07 67.87V72.87H41.45V66.81ZM53.58 62.14V64.54H55.91V65.7H53.58V70.21C53.58 71.21 53.89 71.83 54.8 71.83C55.1163 71.8355 55.432 71.8019 55.74 71.73L55.81 72.87C55.3458 73.0229 54.8585 73.0939 54.37 73.08C54.05 73.0989 53.7296 73.0518 53.4285 72.9417C53.1275 72.8316 52.8523 72.6608 52.62 72.44C52.1362 71.8224 51.9137 71.0398 52 70.26V65.7H50.61V64.54H52V62.54L53.58 62.14ZM58.53 69C58.5104 69.4008 58.5779 69.801 58.7276 70.1733C58.8774 70.5455 59.106 70.8809 59.3977 71.1564C59.6894 71.432 60.0372 71.6411 60.4174 71.7694C60.7976 71.8978 61.201 71.9423 61.6 71.9C62.444 71.9255 63.2843 71.7792 64.07 71.47L64.35 72.56C63.3947 72.9318 62.3747 73.1086 61.35 73.08C58.6 73.08 56.95 71.39 56.95 68.86C56.95 66.33 58.54 64.35 61.14 64.35C64.06 64.35 64.83 66.75 64.83 68.29C64.8287 68.5275 64.812 68.7647 64.78 69H58.53ZM63.29 67.91C63.328 67.5919 63.2964 67.2693 63.1973 66.9646C63.0982 66.6599 62.9341 66.3804 62.7162 66.1454C62.4984 65.9104 62.2321 65.7257 61.9357 65.6039C61.6394 65.482 61.3201 65.4261 61 65.44C60.3508 65.4644 59.7345 65.7319 59.2733 66.1894C58.8121 66.6469 58.5396 67.261 58.51 67.91H63.29ZM66.87 60.64H68.5V72.9H66.87V60.64ZM71.23 60.64H72.86V72.9H71.23V60.64ZM77.4 62.19C77.4 62.4552 77.2946 62.7096 77.1071 62.8971C76.9196 63.0846 76.6652 63.19 76.4 63.19C76.1348 63.19 75.8804 63.0846 75.6929 62.8971C75.5054 62.7096 75.4 62.4552 75.4 62.19C75.4 61.9248 75.5054 61.6704 75.6929 61.4829C75.8804 61.2954 76.1348 61.19 76.4 61.19C76.534 61.1795 76.6687 61.1981 76.7948 61.2446C76.9209 61.2912 77.0354 61.3645 77.1305 61.4595C77.2255 61.5546 77.2988 61.6691 77.3454 61.7952C77.3919 61.9213 77.4105 62.056 77.4 62.19ZM75.59 72.9V64.54H77.22V72.9H75.59ZM82.51 61.26H84.12V69.05C84.12 72.14 82.49 73.05 80.35 73.05C79.7655 73.0483 79.1849 72.9538 78.63 72.77L78.87 71.54C79.3044 71.689 79.7608 71.7634 80.22 71.76C81.66 71.76 82.51 71.16 82.51 68.87V61.26ZM91.4 61.26V72.9H88.57V61.26H91.4ZM93.83 61.41C95.0894 61.24 96.3592 61.1598 97.63 61.17C99.4187 61.0294 101.206 61.4638 102.73 62.41C103.427 62.9012 103.986 63.5623 104.356 64.3307C104.725 65.0991 104.892 65.9491 104.84 66.8C104.887 67.6937 104.724 68.5859 104.365 69.4054C104.005 70.2249 103.459 70.9491 102.77 71.52C101.059 72.6272 99.0331 73.1467 97 73C95.9309 73.0092 94.8622 72.9524 93.8 72.83V61.41H93.83ZM96.66 70.91C96.9912 70.9566 97.3258 70.9733 97.66 70.96C100.21 70.96 101.87 69.66 101.87 66.88C101.87 64.46 100.37 63.18 97.95 63.18C97.5244 63.17 97.0988 63.2035 96.68 63.28L96.66 70.91ZM114.09 68H109.51V70.76H114.63V72.9H106.69V61.26H114.37V63.42H109.51V65.84H114.09V68ZM119.44 69.91L118.55 72.91H115.63L119.43 61.27H123.12L127 72.9H124L123 69.9L119.44 69.91ZM122.6 67.91L121.82 65.44C121.6 64.75 121.38 63.89 121.19 63.19C121.01 63.88 120.82 64.76 120.62 65.44L119.88 67.91H122.6ZM1 64.13C1.0313 64.9965 1.40445 65.8154 2.03784 66.4076C2.67123 66.9997 3.51333 67.317 4.38 67.29C5.21808 67.29 6.02184 66.9571 6.61446 66.3645C7.20707 65.7718 7.54 64.9681 7.54 64.13C7.54 63.2919 7.20707 62.4882 6.61446 61.8955C6.02184 61.3029 5.21808 60.97 4.38 60.97C3.51333 60.943 2.67123 61.2603 2.03784 61.8524C1.40445 62.4446 1.0313 63.2635 1 64.13ZM21.14 53C19.29 53 18.14 54.4 18.14 56.74V71.16C18.14 73.5 19.24 74.9 21.14 74.9C23.04 74.9 24.14 73.5 24.14 71.16V56.78C24.1 54.44 23 53 21.14 53Z" fill="#136BA2"/>
<path d="M15.9999 53.3502H3.82987C3.45411 53.3276 3.0777 53.382 2.72377 53.5102C2.36984 53.6384 2.04588 53.8377 1.77181 54.0957C1.49774 54.3538 1.27936 54.6652 1.13009 55.0108C0.980813 55.3563 0.903809 55.7288 0.903809 56.1052C0.903809 56.4817 0.980813 56.8541 1.13009 57.1997C1.27936 57.5453 1.49774 57.8566 1.77181 58.1147C2.04588 58.3727 2.36984 58.572 2.72377 58.7002C3.0777 58.8284 3.45411 58.8829 3.82987 58.8602H9.99987V64.1002C9.9477 65.5539 9.32181 66.9276 8.25918 67.9209C7.19655 68.9142 5.78372 69.4461 4.32987 69.4002H3.99987C3.25726 69.4002 2.54507 69.6952 2.01997 70.2203C1.49487 70.7454 1.19987 71.4576 1.19987 72.2002C1.19987 72.9428 1.49487 73.655 2.01997 74.1801C2.54507 74.7052 3.25726 75.0002 3.99987 75.0002H4.41987C10.7599 75.0002 15.9999 70.1002 15.9999 64.1402V64.0402V62.2702V53.3502Z" fill="#136BA2"/>
</svg>
