<svg width="128" height="128" viewBox="0 0 128 128" fill="none" xmlns="http://www.w3.org/2000/svg">
<path d="M4.86963 64.74C4.87161 68.1572 5.88674 71.4972 7.78669 74.3375C9.68665 77.1779 12.3861 79.3912 15.5438 80.6975C18.7015 82.0039 22.1756 82.3446 25.5269 81.6768C28.8783 81.0089 31.9563 79.3623 34.372 76.9453C36.7876 74.5282 38.4324 71.4492 39.0983 68.0975C39.7643 64.7458 39.4215 61.2718 38.1133 58.1149C36.8051 54.958 34.5903 52.2598 31.7488 50.3615C28.9074 48.4632 25.5669 47.45 22.1496 47.45C17.5674 47.4579 13.1753 49.2824 9.93606 52.5235C6.69686 55.7646 4.87492 60.1578 4.86963 64.74ZM108 4C98.4996 4 92.8396 11.65 92.8396 24.46V103.16C92.8396 115.97 98.4896 123.62 107.98 123.62C117.47 123.62 123.14 115.97 123.14 103.16V24.51C123.13 11.7 117.47 4 108 4Z" fill="#136BA2"/>
<path d="M81.4498 5.70996H19.3698C15.4654 5.85218 11.7683 7.50321 9.0564 10.3157C6.34447 13.1282 4.8291 16.8829 4.8291 20.79C4.8291 24.697 6.34447 28.4517 9.0564 31.2642C11.7683 34.0767 15.4654 35.7277 19.3698 35.87V36H51.1398V64.74C51.1398 72.4312 48.0845 79.8075 42.6459 85.2461C37.2074 90.6846 29.8311 93.74 22.1398 93.74H21.3598L21.2798 93.84C20.8498 93.84 20.4198 93.77 19.9798 93.77C17.9949 93.7713 16.0297 94.1635 14.1963 94.9243C12.363 95.6852 10.6975 96.7996 9.29484 98.2041C6.4621 101.041 4.87218 104.886 4.87483 108.895C4.87748 112.904 6.47249 116.747 9.30898 119.58C12.1455 122.413 15.9911 124.003 19.9998 124C20.4498 124 20.9098 124 21.3498 123.93V123.98H22.1398C37.8561 123.975 52.9281 117.734 64.0478 106.627C75.1674 95.5209 81.426 80.4562 81.4498 64.74V64.19V54.49V54.38V5.70996Z" fill="#136BA2"/>
</svg>
