<svg width="128" height="128" viewBox="0 0 128 128" fill="none" xmlns="http://www.w3.org/2000/svg">
<path d="M38.7101 61.2101V73.0001H37.1201V61.2101H38.7101ZM41.6301 66.8501C41.6301 65.9701 41.6301 65.2501 41.5601 64.5501H43.0001L43.0901 65.9501C43.3902 65.4504 43.8179 65.0397 44.3294 64.7602C44.8409 64.4808 45.4175 64.3427 46.0001 64.3601C47.2301 64.3601 49.1301 65.0601 49.1301 67.9801V73.0001H47.5601V68.1001C47.5601 66.7301 47.0301 65.5901 45.5101 65.5901C45.0295 65.5922 44.5618 65.7461 44.1739 66.0298C43.786 66.3136 43.4977 66.7127 43.3501 67.1701C43.2726 67.402 43.2354 67.6456 43.2401 67.8901V73.0001H41.6301V66.8001V66.8501ZM53.6601 62.1101V64.5501H56.0001V65.7301H53.6601V70.3101C53.6601 71.3601 53.9701 71.9601 54.8701 71.9601C55.1835 71.9627 55.496 71.9258 55.8001 71.8501L55.8801 73.0001C55.4197 73.1544 54.9355 73.2255 54.4501 73.2101C54.1308 73.2293 53.8109 73.1814 53.5113 73.0694C53.2116 72.9575 52.9387 72.7839 52.7101 72.5601C52.2236 71.9322 52.0011 71.1394 52.0901 70.3501V65.7301H50.7101V64.5501H52.0801V62.5501L53.6601 62.1101ZM58.5701 69.0801C58.5461 69.4781 58.6076 69.8766 58.7505 70.2487C58.8935 70.6209 59.1146 70.9582 59.3989 71.2377C59.6831 71.5173 60.024 71.7326 60.3986 71.8693C60.7731 72.006 61.1726 72.0608 61.5701 72.0301C62.4085 72.0548 63.2428 71.905 64.0201 71.5901L64.3001 72.7001C63.3628 73.0745 62.3592 73.2548 61.3501 73.2301C60.7709 73.2827 60.1871 73.2083 59.6395 73.0122C59.092 72.8161 58.5938 72.5029 58.1796 72.0945C57.7655 71.6861 57.4455 71.1922 57.2417 70.6475C57.038 70.1027 56.9556 69.52 57.0001 68.9401C57.0001 66.3801 58.5801 64.3601 61.1601 64.3601C64.0601 64.3601 64.8201 66.8001 64.8201 68.3601C64.8186 68.6009 64.8019 68.8414 64.7701 69.0801H58.5701ZM63.3001 68.0001C63.3402 67.6838 63.3119 67.3625 63.2173 67.0581C63.1227 66.7536 62.9639 66.473 62.7516 66.2351C62.5393 65.9972 62.2785 65.8076 61.9867 65.6791C61.6949 65.5506 61.3789 65.4861 61.0601 65.4901C60.4094 65.5246 59.7951 65.8013 59.338 66.2657C58.881 66.7302 58.6142 67.3489 58.5901 68.0001H63.3001ZM66.8501 60.5801H68.4601V73.0001H66.8501V60.5801ZM71.1701 60.5801H72.7801V73.0001H71.1701V60.5801ZM77.2901 62.1601C77.2901 62.4253 77.1848 62.6796 76.9972 62.8672C76.8097 63.0547 76.5553 63.1601 76.2901 63.1601C76.0249 63.1601 75.7705 63.0547 75.583 62.8672C75.3955 62.6796 75.2901 62.4253 75.2901 62.1601C75.2901 61.8949 75.3955 61.6405 75.583 61.453C75.7705 61.2654 76.0249 61.1601 76.2901 61.1601C76.4237 61.1512 76.5577 61.171 76.683 61.2182C76.8083 61.2653 76.9222 61.3387 77.0168 61.4333C77.1115 61.528 77.1849 61.6418 77.232 61.7672C77.2791 61.8925 77.299 62.0265 77.2901 62.1601ZM75.5001 73.0001V64.5001H77.1101V73.0001H75.5001ZM82.3701 61.2101H84.0001V69.1301C84.0001 72.2701 82.3901 73.2401 80.2601 73.2401C79.6821 73.239 79.108 73.1445 78.5601 72.9601L78.8001 71.7101C79.2304 71.8626 79.6836 71.9404 80.1401 71.9401C81.5701 71.9401 82.4101 71.3301 82.4101 69.0101V61.2101H82.3701ZM91.1801 61.2101V73.0001H88.3801V61.2101H91.1801ZM93.6001 61.3701C94.8491 61.1954 96.1091 61.1119 97.3701 61.1201C99.149 60.9783 100.925 61.4207 102.43 62.3801C103.123 62.8897 103.678 63.5649 104.043 64.344C104.408 65.1231 104.572 65.9813 104.52 66.8401C104.569 67.7422 104.409 68.6435 104.054 69.4741C103.698 70.3047 103.156 71.0424 102.47 71.6301C100.792 72.7563 98.787 73.2944 96.7701 73.1601C95.7111 73.1734 94.6524 73.12 93.6001 73.0001V61.3701ZM96.4001 71.0001C96.7312 71.0477 97.066 71.0644 97.4001 71.0501C99.9301 71.0501 101.58 69.7301 101.58 66.9101C101.58 64.4501 100.1 63.1501 97.7001 63.1501C97.2778 63.1394 96.8555 63.1729 96.4401 63.2501L96.4001 71.0001ZM113.69 68.0001H109.15V70.8101H114.23V73.0001H106.35V61.2101H114V63.4001H109.18V65.8601H113.72V68.0001H113.69ZM119 70.0001L118.12 73.0001H115.22L119 61.2101H122.66L126.5 73.0001H123.5L122.5 70.0001H119ZM122.13 68.0001L121.36 65.4901C121.14 64.7901 120.92 63.9101 120.74 63.2101C120.56 63.9101 120.37 64.8101 120.17 65.4901L119.41 68.0001H122.13Z" fill="#136BA2"/>
<path d="M1.5 64.14C1.52099 65.0091 1.88512 65.8345 2.51283 66.436C3.14053 67.0375 3.98079 67.3661 4.85 67.35C5.70134 67.35 6.51782 67.0118 7.11981 66.4098C7.7218 65.8078 8.06 64.9913 8.06 64.14C8.06 63.2886 7.7218 62.4721 7.11981 61.8701C6.51782 61.2682 5.70134 60.93 4.85 60.93C4.41924 60.9207 3.99087 60.9963 3.58936 61.1526C3.18785 61.309 2.82107 61.5428 2.50997 61.8409C2.19888 62.139 1.94956 62.4955 1.77627 62.89C1.60297 63.2844 1.5091 63.7092 1.5 64.14Z" fill="#FA930D"/>
<path d="M21.4802 52.8701C19.6402 52.8701 18.5402 54.2901 18.5402 56.6701V71.2801C18.5402 73.6601 19.6402 75.0801 21.4702 75.0801C23.3002 75.0801 24.4102 73.6601 24.4102 71.2801V56.6701C24.4202 54.2901 23.3202 52.8701 21.4802 52.8701ZM16.3402 53.1801H4.34019C3.59759 53.1801 2.8854 53.4751 2.36029 54.0002C1.83519 54.5253 1.54019 55.2375 1.54019 55.9801C1.54019 56.7227 1.83519 57.4349 2.36029 57.96C2.8854 58.4851 3.59759 58.7801 4.34019 58.7801H10.5002V64.1101C10.4687 65.5698 9.85914 66.9573 8.80541 67.9679C7.75168 68.9785 6.33992 69.5296 4.88019 69.5001H4.43019C4.04775 69.4773 3.66467 69.5329 3.3045 69.6635C2.94434 69.7941 2.61469 69.9971 2.33582 70.2598C2.05695 70.5225 1.83474 70.8394 1.68286 71.1912C1.53098 71.5429 1.45264 71.922 1.45264 72.3051C1.45264 72.6882 1.53098 73.0673 1.68286 73.4191C1.83474 73.7708 2.05695 74.0878 2.33582 74.3505C2.61469 74.6132 2.94434 74.8161 3.3045 74.9467C3.66467 75.0774 4.04775 75.133 4.43019 75.1101H4.85019C7.82991 75.1691 10.7115 74.0444 12.8634 71.9825C15.0153 69.9206 16.262 67.0896 16.3302 64.1101V64.0101V62.2101L16.3402 53.1801Z" fill="#136BA2"/>
</svg>
