<svg width="128" height="128" viewBox="0 0 128 128" fill="none" xmlns="http://www.w3.org/2000/svg">
<path d="M5.5498 64.7301C5.55178 68.1078 6.55519 71.4091 8.43316 74.2166C10.3111 77.024 12.9794 79.2117 16.1005 80.5029C19.2216 81.7941 22.6555 82.1309 25.9681 81.4707C29.2806 80.8106 32.323 79.1831 34.7107 76.794C37.0984 74.4049 38.7241 71.3615 39.3823 68.0486C40.0406 64.7357 39.7017 61.302 38.4087 58.1816C37.1157 55.0612 34.9265 52.3943 32.1179 50.5179C29.3093 48.6416 26.0075 47.6401 22.6298 47.6401C18.1006 47.6481 13.7593 49.4515 10.5577 52.6551C7.35597 55.8586 5.55509 60.2009 5.5498 64.7301Z" fill="#FA930D"/>
<path d="M107.48 4.72998C98.0899 4.72998 92.4799 12.29 92.4799 24.96V102.76C92.4799 115.42 98.0699 122.99 107.48 122.99C116.89 122.99 122.48 115.43 122.48 102.76V25C122.45 12.3 116.85 4.72998 107.48 4.72998ZM81.2498 6.37998H19.8798C16.0425 6.55218 12.4194 8.19776 9.76479 10.9741C7.11021 13.7505 5.62871 17.4437 5.62871 21.285C5.62871 25.1262 7.11021 28.8194 9.76479 31.5958C12.4194 34.3722 16.0425 36.0178 19.8798 36.19V36.3H51.2899V64.7C51.2899 72.2996 48.2757 79.5889 42.9086 84.9692C37.5414 90.3495 30.2594 93.3814 22.6598 93.4H21.8898L21.8098 93.5C21.3898 93.5 20.9598 93.43 20.5198 93.43C18.526 93.3784 16.5421 93.7265 14.685 94.4539C12.8278 95.1812 11.1352 96.2731 9.70672 97.665C8.27829 99.057 7.14302 100.721 6.36787 102.559C5.59271 104.396 5.19336 106.37 5.19336 108.365C5.19336 110.359 5.59271 112.334 6.36787 114.171C7.14302 116.009 8.27829 117.673 9.70672 119.065C11.1352 120.457 12.8278 121.549 14.685 122.276C16.5421 123.003 18.526 123.352 20.5198 123.3C20.9698 123.3 21.4198 123.3 21.8598 123.23V123.28H22.6398C38.1706 123.269 53.063 117.099 64.0505 106.123C75.038 95.1468 81.2234 80.2607 81.2498 64.73V64.19V54.6V54.49V6.37998Z" fill="#136BA2"/>
</svg>
