<svg width="128" height="128" viewBox="0 0 128 128" fill="none" xmlns="http://www.w3.org/2000/svg">
<path d="M57.0098 58.3403H57.9198V75.5303H57.0098V58.3403ZM70.8298 57.9203C69.0519 57.9302 67.3168 58.4664 65.8433 59.4613C64.3699 60.4562 63.2241 61.8653 62.5506 63.5106C61.8771 65.156 61.7059 66.964 62.0588 68.7066C62.4117 70.4491 63.2728 72.048 64.5335 73.3017C65.7941 74.5554 67.3978 75.4076 69.1423 75.7508C70.8867 76.0941 72.6937 75.913 74.3354 75.2303C75.977 74.5477 77.3797 73.3941 78.3664 71.9152C79.3531 70.4362 79.8797 68.6982 79.8798 66.9203C79.9003 65.7285 79.6798 64.5449 79.2316 63.4404C78.7835 62.3359 78.1168 61.3333 77.2716 60.4928C76.4264 59.6523 75.4202 58.9912 74.3132 58.5491C73.2063 58.1071 72.0214 57.8932 70.8298 57.9203ZM70.8298 75.1103C69.2111 75.1123 67.6282 74.634 66.2814 73.7359C64.9347 72.8378 63.8847 71.5604 63.2644 70.0653C62.644 68.5702 62.4812 66.9246 62.7965 65.3369C63.1118 63.7492 63.891 62.2908 65.0356 61.1462C66.1802 60.0016 67.6387 59.2223 69.2264 58.907C70.8141 58.5917 72.4596 58.7545 73.9547 59.3749C75.4498 59.9952 76.7273 61.0452 77.6254 62.392C78.5234 63.7387 79.0017 65.3216 78.9998 66.9403C79.023 68.0196 78.8275 69.0923 78.4251 70.094C78.0227 71.0958 77.4218 72.0057 76.6585 72.769C75.8951 73.5323 74.9852 74.1333 73.9835 74.5356C72.9818 74.938 71.909 75.1335 70.8298 75.1103ZM96.9998 59.6403C95.4257 58.453 93.49 57.8454 91.5198 57.9203C88.7998 57.9203 85.7798 59.1903 84.7098 61.6503H84.6398V58.3403H83.7298V75.5303H84.6398V65.6403C84.6398 61.3303 87.2998 58.7603 91.6398 58.7603C93.4121 58.6456 95.1593 59.2268 96.5098 60.3803C97.8098 61.5503 98.6198 63.4603 98.6198 66.4503V75.5303H99.5298V66.4503C99.5398 63.3703 98.7298 61.0603 96.9998 59.6403ZM104.57 58.3403H105.48V75.5303H104.57V58.3403ZM118.38 75.1103C117.302 75.1294 116.232 74.9306 115.233 74.5258C114.234 74.121 113.327 73.5185 112.567 72.7545C111.807 71.9906 111.209 71.0808 110.809 70.08C110.409 69.0791 110.215 68.0078 110.24 66.9303C110.225 65.8435 110.427 64.7646 110.834 63.7567C111.241 62.7489 111.845 61.8322 112.61 61.0603C113.371 60.302 114.279 59.7069 115.278 59.3114C116.277 58.916 117.346 58.7284 118.42 58.7603C120.059 58.7159 121.67 59.1911 123.022 60.1179C124.375 61.0448 125.4 62.3757 125.95 63.9203H126.95C126.409 62.3454 125.446 60.9498 124.164 59.8869C122.883 58.8239 121.333 58.1347 119.685 57.8948C118.038 57.6549 116.356 57.8737 114.824 58.5272C113.293 59.1806 111.971 60.2435 111.004 61.5989C110.037 62.9544 109.463 64.5501 109.343 66.2108C109.224 67.8715 109.565 69.533 110.328 71.0128C111.091 72.4927 112.247 73.7336 113.669 74.5993C115.091 75.465 116.725 75.9221 118.39 75.9203C120.249 75.9838 122.079 75.4513 123.613 74.4006C125.148 73.3499 126.307 71.8361 126.92 70.0803H125.92C125.346 71.6014 124.31 72.9045 122.958 73.8067C121.606 74.7089 120.005 75.1647 118.38 75.1103Z" fill="#4E8EF7"/>
<path d="M57.46 53.9903C58.0012 53.9903 58.44 53.5515 58.44 53.0103C58.44 52.469 58.0012 52.0303 57.46 52.0303C56.9187 52.0303 56.48 52.469 56.48 53.0103C56.48 53.5515 56.9187 53.9903 57.46 53.9903Z" fill="#4E8EF7"/>
<path d="M105.02 53.9903C105.561 53.9903 106 53.5515 106 53.0103C106 52.469 105.561 52.0303 105.02 52.0303C104.479 52.0303 104.04 52.469 104.04 53.0103C104.04 53.5515 104.479 53.9903 105.02 53.9903Z" fill="#4E8EF7"/>
<path d="M22.97 72.96C27.924 72.96 31.94 68.944 31.94 63.99C31.94 59.036 27.924 55.02 22.97 55.02C18.016 55.02 14 59.036 14 63.99C14 68.944 18.016 72.96 22.97 72.96Z" fill="#4E8EF7"/>
<path d="M41.27 48.7701C41.2709 48.1789 41.1017 47.5999 40.7825 47.1022C40.4633 46.6046 40.0076 46.2093 39.4699 45.9637C38.9321 45.718 38.335 45.6323 37.7499 45.7167C37.1647 45.8012 36.6163 46.0523 36.17 46.4401C31.7211 43.0921 26.1683 41.5556 20.6312 42.1402C15.0941 42.7249 9.98463 45.3874 6.33314 49.5907C2.68164 53.794 0.759728 59.2255 0.954945 64.79C1.15016 70.3544 3.44799 75.6379 7.38507 79.575C11.3222 83.512 16.6056 85.8099 22.1701 86.0051C27.7345 86.2003 33.166 84.2784 37.3693 80.6269C41.5727 76.9754 44.2351 71.866 44.8198 66.3289C45.4045 60.7918 43.8679 55.2389 40.52 50.7901C41.0058 50.2295 41.2722 49.5119 41.27 48.7701ZM23 85.2201C19.6339 85.2296 16.3139 84.4385 13.3138 82.9123C10.3137 81.386 7.71945 79.1683 5.7452 76.442C3.77095 73.7157 2.47324 70.5591 1.95915 67.2326C1.44506 63.906 1.72933 60.5049 2.78849 57.3099C3.84766 54.1148 5.65137 51.2174 8.05079 48.8567C10.4502 46.496 13.3766 44.7396 16.5884 43.7326C19.8003 42.7255 23.2056 42.4966 26.5233 43.0647C29.8411 43.6328 32.9762 44.9817 35.67 47.0001C35.2417 47.5934 35.0387 48.3197 35.0973 49.0491C35.1558 49.7784 35.4721 50.4631 35.9895 50.9805C36.5069 51.4979 37.1916 51.8142 37.9209 51.8728C38.6503 51.9313 39.3767 51.7283 39.97 51.3001C42.325 54.4524 43.7571 58.1974 44.1063 62.1168C44.4555 66.0361 43.7081 69.9754 41.9475 73.4944C40.187 77.0135 37.4826 79.9737 34.1367 82.0443C30.7907 84.115 26.9348 85.2145 23 85.2201Z" fill="#4E8EF7"/>
</svg>
