<svg width="128" height="128" viewBox="0 0 128 128" fill="none" xmlns="http://www.w3.org/2000/svg">
<path d="M41.844 64.6402V56.9922H38.629V65.4422C38.629 66.1452 38.579 67.0512 37.66 67.0512C36.844 67.0512 36.723 66.2152 36.691 65.5782H33.2729C33.2729 67.4302 34.02 68.9342 35.805 69.5822C36.3488 69.789 36.9261 69.8937 37.5079 69.8912C38.8519 69.8912 40.211 69.2932 41.062 68.2312C41.844 67.2382 41.844 65.8552 41.844 64.6412V64.6402ZM53.609 69.6522V60.1562H50.785V61.1642H50.75C50.191 60.2232 49.0309 59.8322 47.9959 59.8322C45.1559 59.8322 43.25 62.1252 43.25 64.8952C43.25 67.7192 45.0859 69.9772 47.9959 69.9772C49.0159 69.9772 50.242 69.6022 50.75 68.6252H50.785V69.6522H53.609ZM50.785 64.8952C50.785 66.2652 49.797 67.3252 48.422 67.3252C47.094 67.3252 46.074 66.2462 46.074 64.9302C46.074 63.5782 47.027 62.4842 48.402 62.4842C49.7819 62.4842 50.785 63.5082 50.785 64.8942V64.8952ZM70.16 69.6522V64.4702C70.16 63.0132 70.2099 61.8842 69.1399 60.7902C68.477 60.1062 67.5939 59.8332 66.6559 59.8332C65.3829 59.8332 64.344 60.4462 63.664 61.5242C63.086 60.4462 62.168 59.8332 60.941 59.8332C59.871 59.8332 58.8829 60.1932 58.34 61.1652H58.305V60.1572H55.6679V69.6532H58.492V64.6062C58.492 63.4932 58.7819 62.5012 60.09 62.5012C61.281 62.5012 61.504 63.5092 61.504 64.4852V69.6532H64.328V64.4702C64.328 63.3922 64.6329 62.5012 65.8909 62.5012C67.2029 62.5012 67.3359 63.5642 67.3359 64.6062V69.6532L70.16 69.6522ZM79.2229 66.7422C79.2229 63.3912 74.4769 64.2272 74.4769 62.7382C74.4769 62.3122 74.902 62.1052 75.277 62.1052C75.77 62.1052 76.145 62.2932 76.16 62.8252H78.9339C78.7459 60.8052 77.199 59.8322 75.313 59.8322C73.493 59.8322 71.653 60.9772 71.653 62.9612C71.653 64.2972 72.777 65.0312 73.898 65.4412C74.308 65.5982 74.715 65.7342 75.125 65.8712C75.6329 66.0742 76.398 66.2812 76.398 66.9652C76.398 67.4612 75.84 67.7032 75.414 67.7032C74.852 67.7032 74.4259 67.4102 74.3399 66.8282H71.535C71.754 68.9182 73.4059 69.9772 75.3789 69.9772C77.3009 69.9772 79.2229 68.8832 79.2229 66.7422ZM85.383 62.3122V60.1562H84.0199V56.9922H81.195V60.1562H79.801V62.3122H81.195V69.6522H84.0199V62.3122H85.383ZM96.2659 69.6522V60.1562H93.44V61.1642H93.41C92.847 60.2232 91.69 59.8322 90.651 59.8322C87.811 59.8322 85.9049 62.1252 85.9049 64.8952C85.9049 67.7192 87.745 69.9772 90.651 69.9772C91.671 69.9772 92.8969 69.6022 93.4089 68.6252H93.44V69.6522H96.2659ZM93.441 64.8952C93.441 66.2652 92.457 67.3252 91.078 67.3252C89.75 67.3252 88.73 66.2462 88.73 64.9302C88.73 63.5782 89.6839 62.4842 91.0619 62.4842C92.4379 62.4842 93.442 63.5082 93.442 64.8942L93.441 64.8952ZM107.867 66.0432H104.997C104.57 66.8632 103.887 67.3092 102.953 67.3092C101.574 67.3092 100.707 66.2302 100.707 64.8952C100.707 63.6132 101.523 62.4852 102.887 62.4852C103.855 62.4852 104.586 62.9302 104.997 63.8162H107.852C107.359 61.4062 105.266 59.8322 102.852 59.8322C100.043 59.8322 97.8669 62.0742 97.8669 64.8792C97.8669 67.7192 100.094 69.9612 102.918 69.9612C105.301 69.9612 107.324 68.3672 107.868 66.0432H107.867ZM118.105 60.1562H114.754L112.133 63.5942H112.098V56.9922H109.278V69.6522H112.098V65.0822H112.133L114.805 69.6522H118L114.547 64.3322L118.105 60.1562Z" fill="#242424"/>
<path d="M17.3709 53.6758C11.6709 53.6758 7.06592 58.3118 7.06592 64.0428C7.06592 69.7728 11.6719 74.4098 17.3709 74.4098C23.0709 74.4098 27.6759 69.7728 27.6759 64.0428V53.6758H17.3709ZM17.6909 56.4338H24.9209V63.7068H17.6909V56.4338ZM9.81292 64.3638H17.0389V71.6328C13.1289 71.4648 9.97692 68.2968 9.81192 64.3628L9.81292 64.3638ZM17.6909 64.3788H24.9179C24.7499 68.3128 21.6019 71.4798 17.6909 71.6448V64.3788Z" fill="#F0047F"/>
</svg>
