<svg width="128" height="128" viewBox="0 0 128 128" fill="none" xmlns="http://www.w3.org/2000/svg">
<path d="M17.3709 53.957C11.6709 53.957 7.06592 58.465 7.06592 64.043C7.06592 69.617 11.6719 74.129 17.3709 74.129C23.0709 74.129 27.6759 69.617 27.6759 64.043V53.957H17.3709ZM17.6909 56.641H24.9209V63.715H17.6909V56.641ZM9.81292 64.355H17.0389V71.425C13.1289 71.265 9.97692 68.18 9.81192 64.355H9.81292ZM17.6909 64.367H24.9179C24.7499 68.195 21.6019 71.277 17.6909 71.441V64.367ZM41.8439 64.621V57.18H38.6289V65.402C38.6289 66.086 38.5789 66.969 37.6599 66.969C36.8439 66.969 36.7229 66.152 36.6909 65.539H33.2729C33.2729 67.336 34.0199 68.801 35.8049 69.434C36.3506 69.6328 36.9272 69.733 37.5079 69.73C38.8519 69.73 40.2109 69.148 41.0619 68.117C41.8439 67.152 41.8439 65.805 41.8439 64.621ZM53.6089 69.5V60.262H50.7849V61.242H50.7499C50.1909 60.328 49.0309 59.945 47.9959 59.945C45.1559 59.945 43.2499 62.175 43.2499 64.871C43.2499 67.617 45.0859 69.816 47.9959 69.816C49.0159 69.816 50.2419 69.449 50.7499 68.5H50.7849V69.5H53.6089ZM50.7849 64.871C50.7849 66.203 49.7969 67.234 48.4219 67.234C48.1142 67.2377 47.8089 67.1802 47.5236 67.0648C47.2384 66.9494 46.979 66.7783 46.7604 66.5617C46.5419 66.345 46.3687 66.0871 46.2508 65.8028C46.133 65.5186 46.0728 65.2137 46.0739 64.906C46.0739 63.59 47.0269 62.523 48.4019 62.523C49.7819 62.523 50.7849 63.523 50.7849 64.871ZM70.1599 69.5V64.453C70.1599 63.039 70.2099 61.941 69.1399 60.875C68.4769 60.211 67.5939 59.945 66.6559 59.945C65.3829 59.945 64.3439 60.543 63.6639 61.59C63.0859 60.543 62.1679 59.945 60.9409 59.945C59.8709 59.945 58.8829 60.293 58.3399 61.242H58.3049V60.262H55.6679V69.5H58.4919V64.59C58.4919 63.508 58.7819 62.54 60.0899 62.54C61.2809 62.54 61.5039 63.523 61.5039 64.473V69.5H64.3279V64.453C64.3279 63.406 64.6329 62.539 65.8909 62.539C67.2029 62.539 67.3359 63.574 67.3359 64.589V69.5H70.1599ZM79.2229 66.668C79.2229 63.406 74.4769 64.223 74.4769 62.773C74.4769 62.359 74.9019 62.156 75.2769 62.156C75.7699 62.156 76.1449 62.34 76.1599 62.856H78.9339C78.7459 60.891 77.1989 59.946 75.3129 59.946C73.4929 59.946 71.6529 61.059 71.6529 62.988C71.6529 64.289 72.7769 65.004 73.8979 65.402C74.3079 65.555 74.7149 65.687 75.1249 65.82C75.6329 66.02 76.3979 66.219 76.3979 66.887C76.3979 67.367 75.8399 67.602 75.4139 67.602C74.8519 67.602 74.4259 67.32 74.3399 66.754H71.5349C71.7539 68.785 73.4059 69.816 75.3789 69.816C77.3009 69.816 79.2229 68.75 79.2229 66.668ZM85.3829 62.359V60.262H84.0199V57.18H81.1949V60.262H79.8009V62.359H81.1949V69.5H84.0199V62.36L85.3829 62.359ZM96.2659 69.5V60.262H93.4399V61.242H93.4099C92.8469 60.328 91.6899 59.945 90.6509 59.945C87.8109 59.945 85.9049 62.175 85.9049 64.871C85.9049 67.617 87.7449 69.816 90.6509 69.816C91.6709 69.816 92.8969 69.449 93.4089 68.5H93.4399V69.5H96.2659ZM93.4409 64.871C93.4409 66.203 92.4569 67.234 91.0779 67.234C90.7702 67.2377 90.4649 67.1802 90.1796 67.0648C89.8944 66.9494 89.635 66.7783 89.4164 66.5617C89.1979 66.345 89.0247 66.0871 88.9068 65.8028C88.789 65.5186 88.7288 65.2137 88.7299 64.906C88.7299 63.59 89.6839 62.523 91.0619 62.523C92.4379 62.523 93.4419 63.523 93.4419 64.871H93.4409ZM107.867 65.988H104.997C104.57 66.785 103.887 67.218 102.953 67.218C101.574 67.218 100.707 66.168 100.707 64.871C100.707 63.621 101.523 62.523 102.887 62.523C103.855 62.523 104.586 62.957 104.997 63.824H107.852C107.359 61.477 105.266 59.945 102.852 59.945C100.043 59.945 97.8669 62.125 97.8669 64.855C97.8669 67.617 100.094 69.801 102.918 69.801C105.301 69.801 107.324 68.25 107.868 65.988H107.867ZM118.105 60.262H114.754L112.133 63.605H112.098V57.18H109.278V69.5H112.098V65.055H112.133L114.805 69.5H118L114.547 64.32L118.105 60.262Z" fill="#242424"/>
</svg>
