<svg width="128" height="128" viewBox="0 0 128 128" fill="none" xmlns="http://www.w3.org/2000/svg">
<path d="M68.4902 52.7002H59.0502L56.5002 49.4202V23.7002H70.8802V49.4202L68.4902 52.7002ZM55.7202 55.1002L52.8002 64.0802L48.9002 65.4902L24.4302 57.5402L28.8802 43.8702L53.3402 51.8102L55.7202 55.1002ZM54.0402 67.7402L61.6802 73.2902L61.8102 77.4302L46.7002 98.2502L35.0602 89.8002L50.1902 68.9802L54.0402 67.7402ZM65.7602 73.3302L73.4102 67.7802L77.3902 68.9402L92.5102 89.7502L80.8802 98.2002L65.7602 77.3902V73.3302ZM74.8402 64.2302L71.9202 55.2402L74.2502 51.8102L98.7102 43.8702L103.16 57.5402L78.6902 65.4902L74.8402 64.2302Z" fill="#8A4182"/>
<path d="M64.0002 1.41016C51.6211 1.41016 39.5199 5.081 29.227 11.9585C18.9342 18.836 10.9119 28.6112 6.17456 40.048C1.43728 51.4848 0.197785 64.0696 2.61283 76.2109C5.02788 88.3521 10.989 99.5046 19.7424 108.258C28.4957 117.011 39.6482 122.972 51.7895 125.388C63.9307 127.803 76.5155 126.563 87.9523 121.826C99.3892 117.088 109.164 109.066 116.042 98.7733C122.919 88.4804 126.59 76.3793 126.59 64.0002C126.59 47.4003 119.996 31.4802 108.258 19.7423C96.5201 8.00444 80.6001 1.41016 64.0002 1.41016ZM63.6602 112.91C53.87 112.91 44.2997 110.007 36.1595 104.568C28.0192 99.1288 21.6747 91.3979 17.9281 82.353C14.1816 73.308 13.2013 63.3552 15.1113 53.7532C17.0213 44.1511 21.7357 35.3311 28.6584 28.4084C35.5811 21.4857 44.4012 16.7713 54.0032 14.8613C63.6053 12.9513 73.5581 13.9316 82.603 17.6781C91.648 21.4247 99.3788 27.7692 104.818 35.9094C110.257 44.0497 113.16 53.62 113.16 63.4102C113.161 69.9114 111.882 76.3493 109.395 82.3561C106.908 88.3628 103.262 93.8208 98.6655 98.4184C94.0689 103.016 88.6116 106.663 82.6053 109.151C76.5991 111.639 70.1615 112.92 63.6602 112.92V112.91Z" fill="#8A4182"/>
<path d="M61.5803 82.9901H65.5003V102.5H61.5803V82.9901ZM82.8383 70.9501L84.0493 67.2221L102.604 73.2511L101.393 76.9791L82.8383 70.9501ZM77.7543 47.0621L74.5833 44.7581L86.0503 28.9741L89.2223 31.2781L77.7543 47.0621ZM53.3523 44.7591L50.1803 47.0631L38.7133 31.2801L41.8843 28.9761L53.3523 44.7591ZM43.3953 67.2241L44.6063 70.9521L26.0513 76.9811L24.8403 73.2531L43.3953 67.2241Z" fill="#8A4182"/>
</svg>
