<svg width="128" height="128" viewBox="0 0 128 128" fill="none" xmlns="http://www.w3.org/2000/svg">
<path d="M67.1701 42.9305H60.5001L58.7101 40.6204V22.4604H68.8601V40.6204L67.1701 42.9305ZM58.1601 44.6204L56.1001 50.9604L53.3401 51.9505L36.0801 46.3504L39.2101 36.7005L56.4801 42.3105L58.1601 44.6204ZM56.9701 53.5405L62.3701 57.4604L62.4601 60.3904L51.7901 75.0704L43.5801 69.1105L54.2501 54.4204L56.9701 53.5405ZM65.2401 57.4905L70.6401 53.5805L73.4501 54.3904L84.1201 69.0805L75.9101 75.0405L65.2401 60.3504V57.4905ZM71.6501 51.0704L69.5901 44.7304L71.2301 42.3105L88.5001 36.7005L91.6301 46.3504L74.3701 51.9505L71.6501 51.0704Z" fill="#8A4182"/>
<path d="M64.0001 6.74023C55.2641 6.74023 46.7243 9.33076 39.4606 14.1842C32.1968 19.0377 26.5355 25.9361 23.1923 34.0071C19.8492 42.0781 18.9745 50.9592 20.6788 59.5274C22.3831 68.0955 26.5899 75.9659 32.7672 82.1431C38.9445 88.3204 46.8148 92.5272 55.383 94.2315C63.9511 95.9358 72.8322 95.0611 80.9032 91.718C88.9742 88.3749 95.8727 82.7135 100.726 75.4498C105.58 68.1861 108.17 59.6462 108.17 50.9102C108.17 39.1956 103.516 27.9608 95.233 19.6773C86.9495 11.3938 75.7147 6.74023 64.0001 6.74023ZM63.7601 85.4302C56.8516 85.4302 50.0982 83.3816 44.354 79.5435C38.6098 75.7053 34.1328 70.25 31.489 63.8674C28.8452 57.4847 28.1535 50.4615 29.5013 43.6857C30.849 36.91 34.1758 30.686 39.0609 25.801C43.9459 20.9159 50.1698 17.5892 56.9456 16.2414C63.7214 14.8936 70.7446 15.5854 77.1272 18.2291C83.5098 20.8729 88.9652 25.35 92.8033 31.0942C96.6415 36.8384 98.6901 43.5917 98.6901 50.5002C98.6901 55.0873 97.7866 59.6295 96.0312 63.8674C94.2758 68.1053 91.7029 71.9559 88.4593 75.1995C85.2158 78.443 81.3651 81.016 77.1272 82.7713C72.8893 84.5267 68.3472 85.4302 63.7601 85.4302Z" fill="#8A4182"/>
<path d="M62.2902 64.3101H65.0502V78.0801H62.2902V64.3101ZM77.2902 55.8071L78.1432 53.1831L91.2392 57.4381L90.3862 60.0631L77.2902 55.8071ZM73.7082 38.9481L71.4752 37.3251L79.5692 26.1851L81.8022 27.8081L73.7082 38.9481ZM56.4812 37.3231L54.2492 38.9451L46.1552 27.8051L48.3882 26.1821L56.4812 37.3231ZM49.4582 53.1771L50.3112 55.8021L37.2152 60.0571L36.3622 57.4321L49.4582 53.1771ZM5.07019 114.65C5.04576 114.988 5.08865 115.327 5.19639 115.649C5.30412 115.97 5.47455 116.267 5.6978 116.521C5.92105 116.776 6.19267 116.984 6.49691 117.133C6.80116 117.283 7.13198 117.37 7.47019 117.39C7.89085 117.4 8.30595 117.293 8.66953 117.081C9.03311 116.869 9.33099 116.561 9.53019 116.19C9.89023 115.314 10.0376 114.364 9.96019 113.42V102.42H7.57019V98.8601H16.5702V102.37H14.1502V113.94C14.1502 115.94 14.0302 117.45 12.6402 119.05C11.9823 119.754 11.1863 120.314 10.3018 120.696C9.41737 121.078 8.46359 121.274 7.50019 121.27C3.56019 121.27 0.50019 118.65 0.70019 114.65H5.07019ZM30.4902 112.52C30.4837 111.871 30.3491 111.229 30.0941 110.631C29.8392 110.034 29.4689 109.492 29.0045 109.038C28.54 108.584 27.9906 108.226 27.3876 107.984C26.7845 107.742 26.1398 107.622 25.4902 107.63C24.8268 107.63 24.17 107.762 23.5581 108.018C22.9462 108.274 22.3914 108.65 21.9261 109.123C21.4607 109.596 21.0941 110.156 20.8476 110.772C20.6011 111.388 20.4796 112.047 20.4902 112.71C20.5182 113.998 21.0424 115.226 21.9535 116.137C22.8645 117.048 24.0921 117.572 25.3802 117.6C26.0528 117.615 26.7215 117.494 27.3462 117.244C27.9709 116.995 28.5388 116.622 29.016 116.147C29.4931 115.673 29.8696 115.107 30.1229 114.484C30.3762 113.861 30.5011 113.193 30.4902 112.52ZM30.4302 118.61C29.847 119.466 29.0551 120.158 28.1293 120.622C27.2035 121.086 26.1746 121.305 25.1402 121.26C22.8901 121.239 20.7401 120.328 19.1602 118.725C17.5804 117.123 16.6995 114.96 16.7102 112.71C16.7048 110.416 17.607 108.212 19.22 106.581C20.833 104.949 23.0259 104.021 25.3202 104C26.3386 103.981 27.3445 104.227 28.24 104.712C29.1354 105.198 29.89 105.907 30.4302 106.77V104.4H36.3102V107.91H34.2502V117.33H36.3102V120.84H30.4302V118.62M41.2602 116.06C41.2664 116.398 41.3406 116.73 41.4784 117.039C41.6162 117.347 41.8147 117.624 42.0621 117.854C42.3095 118.083 42.6007 118.261 42.9182 118.375C43.2358 118.49 43.5732 118.539 43.9102 118.52C44.473 118.55 45.025 118.357 45.4463 117.983C45.8676 117.608 46.1241 117.083 46.1602 116.52C46.1602 114.89 44.6202 114.61 43.3602 114.27C40.5002 113.53 37.3602 112.64 37.3602 109.04C37.3602 105.9 40.0102 104.04 42.9302 104.04C43.6233 103.973 44.3222 104.073 44.9692 104.33C45.6161 104.588 46.1924 104.996 46.6502 105.52V104.4H49.4202V108.86H45.7902C45.7826 108.592 45.7213 108.328 45.6098 108.085C45.4983 107.841 45.3389 107.622 45.1412 107.441C44.9434 107.26 44.7113 107.121 44.4586 107.031C44.2059 106.942 43.9378 106.904 43.6702 106.92C43.4194 106.893 43.1657 106.915 42.924 106.987C42.6822 107.059 42.4573 107.179 42.2625 107.339C42.0677 107.5 41.907 107.697 41.7898 107.921C41.6726 108.144 41.6014 108.389 41.5802 108.64C41.5802 110.18 43.0902 110.52 44.2902 110.79C47.2902 111.47 50.4102 112.39 50.4102 116.08C50.4102 119.4 47.6102 121.25 44.5302 121.25C43.7339 121.289 42.9391 121.149 42.2037 120.841C41.4684 120.533 40.8112 120.065 40.2802 119.47V120.82H37.4202V116.05H41.2702M53.5402 107.91H51.4202V104.4H57.0002V106.86C57.4587 106.011 58.1345 105.299 58.9585 104.796C59.7825 104.294 60.7252 104.019 61.6902 104C62.7864 104.011 63.8553 104.343 64.7638 104.957C65.6724 105.57 66.3806 106.437 66.8002 107.45C67.2715 106.418 68.0308 105.543 68.9868 104.931C69.9428 104.319 71.0551 103.996 72.1902 104C73.0829 103.995 73.9666 104.179 74.7834 104.539C75.6002 104.899 76.3318 105.428 76.9302 106.09C78.2202 107.6 78.2202 109.23 78.2202 111.09V117.31H80.3402V120.82H72.3402V117.31H74.4602V112C74.5513 110.975 74.3828 109.943 73.9702 109C73.6666 108.574 73.264 108.229 72.7971 107.994C72.3301 107.759 71.8129 107.641 71.2902 107.65C70.7672 107.644 70.2491 107.751 69.7711 107.963C69.2931 108.175 68.8664 108.488 68.5202 108.88C67.8845 109.784 67.6099 110.894 67.7502 111.99V117.28H69.8702V120.79H61.8702V117.28H64.0002V112.28C64.0892 111.229 63.9211 110.172 63.5102 109.2C63.239 108.725 62.8432 108.334 62.3655 108.068C61.8879 107.802 61.3466 107.671 60.8002 107.69C60.3002 107.672 59.8029 107.771 59.348 107.98C58.8931 108.188 58.4932 108.5 58.1802 108.89C57.4766 109.857 57.1592 111.052 57.2902 112.24V117.32H59.4102V120.83H51.4102V117.32H53.5302V107.9M87.4502 102.83H83.7002V98.8301H87.4502V102.83ZM87.4502 117.32H89.5702V120.83H81.5702V117.32H83.7002V107.9H81.5702V104.4H87.4502V117.32ZM92.8402 107.91H90.7102V104.4H96.5902V106.74C97.0712 105.884 97.7798 105.177 98.6376 104.699C99.4954 104.221 100.469 103.989 101.45 104.03C102.335 104.024 103.211 104.198 104.026 104.542C104.841 104.886 105.577 105.392 106.19 106.03C107.54 107.54 107.57 109.03 107.57 110.86V117.29H109.69V120.8H101.69V117.29H103.81V112C103.931 110.956 103.702 109.901 103.16 109C102.812 108.573 102.37 108.232 101.869 108.003C101.368 107.774 100.821 107.664 100.27 107.68C99.6973 107.661 99.1279 107.776 98.6072 108.016C98.0865 108.255 97.6287 108.613 97.2702 109.06C96.681 110.108 96.4328 111.314 96.5602 112.51V117.28H98.6802V120.79H90.6802V117.28H92.8002V107.86M123.82 111.14C123.515 110.009 122.84 109.013 121.903 108.31C120.966 107.607 119.821 107.237 118.65 107.26C117.536 107.292 116.462 107.689 115.595 108.39C114.728 109.091 114.115 110.057 113.85 111.14H123.82ZM126.68 116C126.053 117.545 124.982 118.869 123.603 119.806C122.223 120.742 120.597 121.248 118.93 121.26C116.628 121.272 114.416 120.369 112.779 118.75C111.143 117.13 110.217 114.927 110.205 112.625C110.193 110.323 111.096 108.111 112.716 106.474C114.335 104.838 116.538 103.912 118.84 103.9C121.159 103.938 123.37 104.891 124.99 106.55C125.76 107.373 126.361 108.34 126.757 109.395C127.153 110.451 127.338 111.574 127.3 112.7L127.18 114.02H113.88C114.135 115.136 114.76 116.132 115.654 116.848C116.547 117.563 117.656 117.955 118.8 117.96C119.582 117.997 120.361 117.833 121.062 117.483C121.762 117.133 122.361 116.608 122.8 115.96H126.71" fill="#8A4182"/>
</svg>
