<svg width="128" height="128" viewBox="0 0 128 128" fill="none" xmlns="http://www.w3.org/2000/svg">
<path d="M53.5949 67.817C40.3709 71.511 61.6389 79.142 78.4749 71.929C75.7179 70.858 73.7399 69.62 73.7399 69.62C66.2319 71.039 62.7499 71.151 55.9349 70.373C50.3099 69.729 53.5949 67.817 53.5949 67.817ZM76.4589 60.61C66.5089 62.525 60.7609 62.464 53.4799 61.713C47.8509 61.131 51.5359 58.402 51.5359 58.402C36.9729 63.236 59.6419 68.72 79.9949 62.767C77.8329 62.006 76.4589 60.61 76.4589 60.61ZM84.2579 18.879C84.2579 18.879 54.8189 26.23 68.8779 42.431C73.0289 47.209 67.7899 51.505 67.7899 51.505C67.7899 51.505 78.3229 46.068 73.4859 39.257C68.9679 32.908 65.5039 29.755 84.2579 18.879ZM37.4799 81.305C71.8039 86.868 100.047 78.799 91.1459 74.782C91.1459 74.782 93.5769 76.787 88.4669 78.337C78.7519 81.28 48.0229 82.168 39.4879 78.454C36.4219 77.119 42.1749 75.267 43.9839 74.878C45.8709 74.469 46.9489 74.544 46.9489 74.544C43.5369 72.14 24.8939 79.262 37.4799 81.305ZM79.3479 53.885C80.9979 52.759 83.2779 51.781 83.2779 51.781C83.2779 51.781 76.7859 52.942 70.3169 53.485C62.3989 54.149 53.9049 54.28 49.6409 53.71C39.5459 52.36 55.1749 48.647 55.1749 48.647C55.1749 48.647 49.1049 48.236 41.6419 51.846C32.8149 56.115 63.4739 58.06 79.3479 53.885ZM83.2129 64.317C83.1389 64.517 82.8909 64.742 82.8909 64.742C104.437 59.078 96.5149 44.777 86.2129 48.397C85.3099 48.716 84.8349 49.46 84.8349 49.46C84.8349 49.46 85.4059 49.23 86.6799 48.964C91.8869 47.88 99.3489 55.936 83.2129 64.317ZM65.0059 48.492C61.8269 41.306 51.0489 35.021 65.0109 23.994C82.4209 10.252 73.4869 1.31201 73.4869 1.31201C77.0909 15.509 60.7759 19.798 54.8869 28.64C50.8769 34.664 56.8559 41.139 65.0059 48.492ZM83.7959 84.143C70.5769 86.631 54.2719 86.342 44.6049 84.746C44.6049 84.746 46.5849 86.386 56.7619 87.04C72.2459 88.03 96.0309 86.489 96.5939 79.162C96.5939 79.161 95.5119 81.938 83.7959 84.143ZM51.1309 99.535C48.2439 99.535 45.7799 100.249 43.7229 101.157L44.3469 103.65C45.9659 103.055 47.9649 102.503 50.0209 102.503C52.8709 102.503 53.9999 103.65 53.9999 106.024V108H52.7999C45.8789 108 42.7559 110.585 42.7559 114.624C42.7559 118.103 44.8149 120.031 48.6889 120.031C51.1789 120.031 53.0399 119.186 54.7769 117.681L55.0929 120H57.9999V105.508C57.9999 101.909 56.0759 99.535 51.1309 99.535ZM53.9999 115.037C52.9999 116.303 51.1069 117.015 49.7209 117.015C47.7479 117.015 46.7329 115.644 46.7329 113.745C46.7329 111.689 47.9349 110 52.5269 110H53.9999V115.037ZM69.6109 115.681L68.7759 112.073L65.0199 100H60.6299L66.6809 120H71.7069C74.5909 113 76.6499 106 77.7929 100H73.5219C72.8509 105 71.5059 110.424 69.6109 115.681ZM88.0149 99.535C85.1259 99.535 82.6039 100.249 80.5479 101.157L81.1439 103.65C82.7649 103.055 84.8659 102.503 86.9219 102.503C89.7679 102.503 90.9999 103.65 90.9999 106.024V108H89.5719C82.6489 108 79.5269 110.585 79.5269 114.624C79.5269 118.103 81.5829 120.031 85.4569 120.031C87.9489 120.031 89.8059 119.186 91.5479 117.681L91.8659 120H94.9999V105.508C94.9999 101.909 92.9559 99.535 88.0149 99.535ZM86.6039 116.997C84.6289 116.997 83.5579 115.634 83.5579 113.736C83.5579 111.681 84.7069 110 89.2939 110H90.9999V115H90.9329C89.4679 116 87.9859 116.997 86.6039 116.997ZM35.9999 115.373C35.9999 118.644 35.5549 120.011 35.0209 121.074C34.4059 122.267 32.9679 123.549 31.4199 124.343L33.3539 126.688C35.3859 125.939 37.2969 124.61 38.4459 122.931C39.5959 121.208 39.9999 119.44 39.9999 115.064V93H35.9999V115.373Z" fill="#EA2D2E"/>
</svg>
