<svg width="128" height="128" viewBox="0 0 128 128" fill="none" xmlns="http://www.w3.org/2000/svg">
<path d="M107.453 41.3381L107.413 41.2981C96.596 40.0681 88.015 31.4851 86.783 20.6681L86.725 20.6101C85 9.35015 75.27 0.723145 63.528 0.723145C50.566 0.723145 40.058 11.2301 40.06 24.1931C40.06 24.5611 40.07 24.9281 40.088 25.2931C38.896 28.8519 36.8686 32.0733 34.1757 34.6874C31.4827 37.3015 28.2026 39.2324 24.61 40.3181C24.39 40.3121 24.17 40.3011 23.95 40.3011C10.987 40.3001 0.47998 50.8101 0.47998 63.7701C0.47998 76.4401 10.52 86.7581 23.078 87.2171C31.963 89.2871 38.913 96.3871 40.733 105.365C41.535 117.599 51.707 127.275 64.143 127.275C76.691 127.275 86.937 117.43 87.58 105.045C88.4507 101.146 90.3015 97.5335 92.9574 94.5491C95.6132 91.5646 98.9864 89.3068 102.758 87.9891C103.188 88.0111 103.618 88.0251 104.053 88.0251C117.013 88.0251 127.521 77.5181 127.521 64.5571C127.521 52.7511 118.803 42.9851 107.454 41.3371L107.453 41.3381ZM47.973 63.7701C47.973 55.4501 54.258 48.6061 62.339 47.7081C62.466 47.6941 62.596 47.6851 62.726 47.6731C62.872 47.6601 63.021 47.6591 63.168 47.6511C63.288 47.6541 63.406 47.6611 63.526 47.6611C63.921 47.6611 64.314 47.6511 64.704 47.6311C73.371 47.9311 80.31 55.0311 80.31 63.7711C80.31 63.8911 80.3 64.0111 80.297 64.1311C80.11 72.5751 73.46 79.4212 65.095 79.9111C64.915 79.9691 64.733 80.0191 64.553 80.0741C64.368 80.0281 64.181 79.9861 63.998 79.9361C55.462 79.8641 48.505 73.1761 48.003 64.7461C47.963 64.6261 47.931 64.4991 47.893 64.3761C47.923 64.2591 47.945 64.1381 47.978 64.0221C47.978 63.9391 47.971 63.8571 47.971 63.7721L47.973 63.7701Z" fill="#FF664A"/>
</svg>
