<svg width="128" height="128" viewBox="0 0 128 128" fill="none" xmlns="http://www.w3.org/2000/svg">
<path d="M53.635 90.2901C43.285 90.2901 36.195 98.3401 35.555 109.71C35.045 118.463 39.515 126.705 51.463 126.705C59.003 126.705 63.665 123.638 63.92 120.125C63.984 118.463 63.473 116.995 62.13 115.652C62.13 115.652 58.17 118.462 53.25 118.462C46.8 118.462 44.714 113.902 44.818 110.159C44.836 109.526 45.652 109.282 45.892 110.013C46.312 111.291 47.949 112.971 52.096 112.969C58.804 112.966 65.964 108.561 66.156 101.279C66.476 95.2091 62.706 90.2891 53.636 90.2891L53.635 90.2901ZM49.802 106.517C47.247 106.517 45.777 105.877 45.458 105.75C45.458 105.75 45.586 105.048 45.65 104.537C46.225 101.597 48.59 98.1491 52.87 98.1491C55.488 98.1491 57.022 99.6171 56.958 101.725C56.893 105.111 53.508 106.515 49.802 106.515V106.517ZM85.577 90.2901C75.227 90.2901 68.137 98.3401 67.497 109.71C66.987 118.463 71.457 126.705 83.405 126.705C90.945 126.705 95.607 123.638 95.862 120.125C95.926 118.463 95.415 116.995 94.072 115.652C94.072 115.652 90.112 118.462 85.192 118.462C78.742 118.462 76.656 113.902 76.76 110.159C76.778 109.526 77.594 109.282 77.834 110.013C78.254 111.291 79.891 112.971 84.038 112.969C90.746 112.966 97.906 108.561 98.098 101.279C98.418 95.2091 94.648 90.2891 85.578 90.2891L85.577 90.2901ZM81.744 106.517C79.189 106.517 77.72 105.877 77.4 105.75C77.4 105.75 77.528 105.048 77.592 104.537C78.167 101.597 80.532 98.1491 84.812 98.1491C87.43 98.1491 88.964 99.6171 88.9 101.725C88.835 105.111 85.45 106.515 81.744 106.515V106.517ZM112.63 99.0001H116.692C119.834 99.0001 121.286 96.7402 121.292 95.2601C121.3 92.6371 120.052 90.9351 116.83 90.9351C114.657 90.9351 114.994 90.9951 113.652 90.9321C113.907 89.496 114.121 88.0527 114.292 86.6041C114.546 84.8791 113.589 84.0001 112.247 84.0001H109.053C107.967 84.0001 107.393 84.4301 107.009 85.5801C106.433 87.4321 106.299 90.7641 102.159 91.5601C100.729 91.8331 99.233 93.7101 99.269 95.1761C99.301 96.5901 98.874 99.0441 103.392 99.0441C103.392 99.0441 101.646 111.454 101.199 115.031C100.433 121.611 103.635 126.706 110.279 126.706C119.419 126.706 120.151 119.931 117.325 116.616C116.607 117.193 114.585 118.253 113.242 118.189C111.39 118.189 110.202 117.581 110.458 114.899C110.904 110.999 111.862 104.001 112.628 99.0011L112.63 99.0001ZM32.91 83.0001H22.414C21.137 83.0001 17.354 83.1832 17.094 87.0771C16.864 90.5471 18.622 92.0641 22.556 92.0641C24.578 92.0641 26.703 90.5411 27.64 90.0041C28.72 89.3881 29.328 90.1911 28.566 90.8471C27.146 92.0701 25.834 93.4471 25.029 97.8371L22.897 110.865C22.257 115.273 20.342 117.378 17.147 117.378C14.273 117.378 12.251 115.764 10.554 113.528C7.16102 114.608 5.38702 119.311 7.86702 122.435C8.99702 123.857 11.334 126.702 17.275 126.702C23.435 126.702 30.453 123.706 32.188 111.817C33.035 106.007 35.398 90.9871 35.781 88.3041C36.101 85.8791 36.485 83.0001 32.908 83.0001H32.91ZM92.12 27.0081L92.095 26.9821C85.095 26.1851 79.541 20.6321 78.745 13.6321L78.705 13.5921C77.59 6.30615 71.296 0.723145 63.696 0.723145C55.306 0.723145 48.506 7.52314 48.506 15.9131C48.506 16.1511 48.514 16.3881 48.526 16.6251C47.7543 18.9283 46.442 21.0131 44.6991 22.7049C42.9561 24.3967 40.8332 25.6464 38.508 26.3491C38.365 26.3451 38.223 26.3391 38.08 26.3391C29.69 26.3391 22.89 33.1391 22.89 41.5261C22.89 49.7261 29.388 56.4031 37.515 56.7001C43.265 58.0401 47.763 62.6331 48.941 68.4441C49.461 76.3621 56.044 82.6241 64.093 82.6241C72.213 82.6241 78.843 76.2521 79.26 68.2361C79.8236 65.7135 81.0211 63.3762 82.7394 61.4451C84.4577 59.5141 86.64 58.0531 89.08 57.2001C89.358 57.2141 89.637 57.2231 89.918 57.2231C98.306 57.2231 105.106 50.4231 105.106 42.0351C105.106 34.3951 99.464 28.0751 92.119 27.0081H92.12ZM53.63 41.5251C53.63 36.1411 57.698 31.7111 62.927 31.1301C63.01 31.1201 63.094 31.1151 63.177 31.1071C63.272 31.0991 63.369 31.0971 63.464 31.0931C63.542 31.0931 63.618 31.0991 63.696 31.0991C63.952 31.0991 64.206 31.0911 64.459 31.0791C70.069 31.2731 74.559 35.8691 74.559 41.5241C74.559 41.6041 74.553 41.6801 74.551 41.7581C74.431 47.2211 70.126 51.6521 64.711 51.9681C64.596 52.0061 64.478 52.0381 64.361 52.0741C64.241 52.0441 64.121 52.0171 64.001 51.9841C58.477 51.9381 53.975 47.6101 53.651 42.1541C53.624 42.0761 53.604 41.9941 53.579 41.9141C53.599 41.8391 53.613 41.7611 53.634 41.6861C53.632 41.6311 53.629 41.5781 53.629 41.5231L53.63 41.5251Z" fill="#FF664A"/>
</svg>
