<svg width="128" height="128" viewBox="0 0 128 128" fill="none" xmlns="http://www.w3.org/2000/svg">
<path d="M62.7999 124.3C59.2999 123.898 58.9999 123.602 57.4999 118.7C55.7999 112.8 52.6019 95.1019 53.1999 94.4999C55.1019 92.6019 75.7999 92.1019 76.8979 93.8979C77.8979 95.3979 79.4999 122.898 78.6989 123.699C77.8989 124.399 67.1989 124.899 62.8009 124.301L62.7999 124.3ZM81.6019 117.8C80.4999 114.398 80.3979 110.898 81.1989 110.3C82.6019 109.5 83.9999 111.898 83.9999 115.2C83.9999 118.102 82.2999 120 81.6019 117.8Z" fill="#FDFDFD"/>
<path d="M47 109.102C43.398 108 38.2 105.199 37.5 104C37.102 103.398 36.602 99.8982 36.3 96.2002C36 92.5002 34.898 86.1022 33.8 82.0002C32.7 77.8982 31.602 73.6022 31.3 72.5002C30.7 69.5002 43.3 61.0002 45.8 62.8002C46.7 63.5002 49.898 65.3982 52.7 67.1022C57.102 69.6992 58.102 70.8012 59.102 74.3012C59.699 76.6012 60.898 79.1012 61.801 79.8012C62.699 80.5002 63.5 82.0002 63.5 83.1012C63.5 85.0002 65.8 86.7002 71 88.7002C73 89.5012 71.5 89.8022 63.7 90.4002C58.398 90.8022 53.5 90.8022 52.898 90.4002C52.199 90.0012 52 88.2002 52.199 86.1032C52.5 84.1032 52.399 81.6032 51.899 80.5012C51.399 79.1032 51.102 80.3012 51.102 84.1032C51 90.3022 50.398 91.6032 48.199 89.7002C46.899 88.7002 46.801 88.8022 47.199 90.0012C47.5 90.8012 47 92.0012 46.102 92.7012C44.699 93.8012 45 93.8992 47.699 94.0012C50.602 94.0012 50.899 94.3012 51.399 98.0012C51.699 100.201 52.301 103.801 52.602 106.001C53.199 110.301 52.5 110.701 47 109.103V109.102ZM80.102 100C80 94.6022 80.301 93.0002 81.398 93.0002C82.301 93.0002 83.199 94.8982 83.898 98.0002C85.301 104.7 85.301 105.7 83.398 106.398C80.5 107.5 80.2 107 80.102 100ZM101.602 103.602C102 102.699 100.801 102.398 97.398 102.398L92.801 102.5L92.398 97.0002L92 91.5002L96.7 89.8002C102.3 87.8002 103.3 88.3982 104.898 94.5002C106.102 99.3002 105.199 103.3 102.602 104.3C101.602 104.7 101.301 104.398 101.602 103.602ZM100 98.3982C100 98.1992 98.8 98.0002 97.3 98.0002C95.2 98.0002 94.898 98.3002 95.898 98.8982C97.199 99.6992 100 99.3982 100 98.3982ZM100 95.1022C100 94.6022 98.898 94.3012 97.5 94.6022C94.398 95.1022 94.2 94.1992 97.2 93.1022C98.398 92.6992 98.898 92.1022 98.398 91.8012C97.102 90.8982 93.699 93.6992 94.5 94.8982C95.3 96.1992 100 96.3982 100 95.1022ZM87.602 99.3002C87.3 97.2002 87 94.6032 87 93.5002C87.102 91.5002 87.102 91.5002 88.5 93.3982C90.102 95.5002 90.602 103 89.102 103C88.699 103 88 101.3 87.602 99.3002ZM82 89.3982C82 89.3012 83.5 86.6992 85.398 83.6022C88.602 78.3012 88.801 77.3982 88.602 70.5002C88.398 66.3982 87.801 62.3982 87.102 61.6022C86.398 60.8012 86.301 59.8982 86.801 59.6022C87.199 59.3982 89.301 60.8012 91.301 62.8982C95.3 67.0002 96 70.5002 93.8 75.7002C93.198 77.2002 92.6 79.2002 92.397 80.0012C92.198 80.8992 91.397 83.2012 90.601 85.2012C89.3 88.2012 88.499 88.8012 85.499 89.2012C83.601 89.3992 81.999 89.5012 81.999 89.3992L82 89.3982Z" fill="#FDFDFD"/>
<path d="M69.102 84.6021L64.602 82.3011L67.301 79.6011C68.699 78.2001 70.3 77.0001 70.898 77.0001C71.7 77.0001 76 84.7001 76 86.3001C76 87.6021 73.602 86.8981 69.102 84.6021ZM76.7 80.3981C74.602 76.1992 74.2 74.5001 75.102 73.8981C76.398 73.1021 79.699 74.6991 80.301 76.5001C80.601 77.0001 80.398 79.5001 80.101 81.8981L79.5 86.2001L76.7 80.3981ZM82.398 81.5001C82.699 79.3001 82.898 76.8981 82.898 76.3001C83 74.8001 85.602 74.6021 86.5 76.0001C86.8 76.5001 86 78.8981 84.5 81.2001L82 85.5001L82.398 81.5001ZM61.102 74.8981C59.699 70.8011 59.699 66.3011 61.102 65.5001C62.898 64.3001 71 67.8981 70.301 69.6021C70 70.3981 70.301 71.0001 70.898 71.0001C74.102 71.0001 69.102 75.8981 64.398 77.3981C62.602 77.8981 62 77.5001 61.102 74.8981ZM79 71.3001C79 70.7001 79.602 69.8981 80.3 69.7001C81.2 69.3001 81.2 68.8981 80.102 68.2001C79.102 67.3981 79.301 66.8981 81.102 65.6021C84.301 63.3981 84.898 63.6021 86.102 66.6021C87.699 70.8981 86.5 72.8981 82.5 72.6991C80.602 72.6021 79 72.0001 79 71.3011V71.3001ZM54.5 66.0001C54.2 65.5001 54.8 65.0001 56 65.0001C57.2 65.0001 57.8 65.5001 57.5 66.0001C57.2 66.6021 56.5 67.0001 56 67.0001C55.5 67.0001 54.8 66.6021 54.5 66.0001ZM52.5 62.3001C48.602 60.2001 47.3 58.5001 45.602 53.0001C44.699 50.1021 44.602 48.1021 45.199 47.3001C46.699 45.3981 45.199 43.8001 43 45.0001C40.5 46.3001 40.398 46.3001 38 43.8001C36.898 42.5001 36 40.3001 36 38.3981C36 33.0001 40.8 29.8981 43 33.8981C44.3 36.3981 44.3 38.1021 42.898 35.8011C42.398 34.8011 41.102 34.0001 40.102 34.0001C38.699 34.0001 38.398 34.6021 38.801 37.2001C39.301 40.3981 39.301 40.3981 40.199 38.0001C41.102 35.6021 41.199 35.6021 42.602 37.3981C43.398 38.5001 44 38.8981 44 38.3011C44 37.6011 45.2 37.0001 46.8 36.8011C48.898 36.6011 49.398 36.0001 49.2 34.5001C48.7 31.7001 48.8 26.5001 49.3 19.7001C49.602 15.0001 50.2 13.3981 52.602 10.8981C59.602 3.50015 68.898 1.80115 78.8 6.00015C85.198 8.80015 89.6 14.0001 85.499 14.0001C84.101 14.0001 83.699 15.0001 84.299 16.7001C84.397 17.1021 85.397 17.3001 86.601 17.2001C90.8 16.6021 93.8 24.1021 93.198 34.0001C93.101 35.8981 92.898 38.7001 92.898 40.3001C92.8 41.8001 92.398 43.0001 91.898 43.0001C91.499 43.0001 90.898 44.3001 90.499 45.8981C88.602 54.7001 80.102 62.0001 72 62.0001C66.602 62.0001 63 60.0001 58.102 54.3001C55.398 51.1031 54 50.1031 54 51.2001C54 52.7001 59.398 59.8001 62.5 62.3001C63.102 62.8001 62.5 62.8981 61.3 62.5001C60.102 62.2001 58.898 62.3981 58.5 63.0001C57.602 64.3981 56 64.2001 52.5 62.3001ZM80.102 55.0001C81.102 55.0001 82 54.7001 82 54.3001C82 53.8001 79.7 53.3981 76.898 53.3001C73.199 53.2001 71.199 52.6021 69.398 50.8981C68.102 49.7001 67 49.1021 67 49.7001C67 52.3021 73.7 56.3021 76.8 55.4001C77.602 55.2001 79 55.0011 80.102 55.0011V55.0001ZM80.898 48.7001C80.699 48.3981 77.801 48.0001 74.5 47.7001C69.7 47.2001 68.898 47.3001 70.5 48.3001C73.3 49.8981 79.3 50.8001 80.398 49.8001C80.898 49.3981 81.199 48.8981 80.898 48.7001ZM86.801 48.3981C88 47.6021 89 46.5001 89 46.0001C89 44.8001 82.7 47.5001 82.2 48.8981C81.7 50.5001 84.2 50.1991 86.8 48.3981H86.801ZM83 44.3981C89 42.0001 89.898 39.5001 86.2 35.6021C84.5 33.8981 82.3 30.8981 81.102 29.0001C80 27.1021 79 26.2001 79 27.1021C79 28.0001 80.102 30.1991 81.5 32.1021C82.8 34.0001 84.7 36.5001 85.602 37.8001C87.602 40.6001 86.898 41.6001 81.398 43.4991C78 44.6991 77.301 44.6011 75.801 43.2991C73.801 41.4991 73.301 42.8971 75.199 44.7991C76.801 46.3971 78.199 46.2991 83 44.3971V44.3981ZM71.8 31.8011C72.5 30.8981 72.3 29.8011 70.898 28.1011C69.898 26.8011 69 26.3011 69 26.8011C69 27.3981 69.5 28.1991 70 28.5001C72 29.7001 70.898 31.0001 67.898 31.0001C66.199 31.0001 65.102 31.3981 65.5 32.0001C66.398 33.3981 70.602 33.2001 71.8 31.8001V31.8011ZM90.8 31.1011C91.7 30.6011 91.898 29.3981 91.398 27.6011C90.5 23.7001 88.602 23.0001 89.5 26.8991C90.102 29.6021 89.898 30.0001 88 30.0001C86.8 30.0001 86.2 30.5001 86.5 31.0001C87.2 32.2001 89 32.3001 90.8 31.1021V31.1011ZM63.8 18.0001C66.102 18.0001 66.8 16.6021 65 15.5001C64.102 15.0001 58 17.5001 58 18.3981C58 18.6991 57.7 19.6991 57.3 20.6991C56.8 22.1991 57.102 22.1991 59.2 20.3011C60.5 19.0001 62.601 18.0001 63.8 18.0001Z" fill="#FDFDFD"/>
<path d="M44.5001 29.898C44.1021 29.301 42.3981 29 40.7001 29.199C37.8981 29.5 37.5001 29.199 37.2001 26.899C36.7001 22.602 38.7001 19 42.6021 17.399C46.6991 15.699 47.3011 15.899 47.1021 19.199C47.0001 20.5 46.8981 23.602 46.8981 26.301C46.8981 30.801 45.8981 32.199 44.5001 29.898ZM43.0001 13C43.0001 12 44.7001 10.7 49.3001 8.102L53.1031 6L50.3001 9.5C48.8001 11.398 47.3001 13 46.9991 13.102C46.6991 13.102 45.6991 13.301 44.7991 13.5C43.7991 13.7 42.9991 13.5 42.9991 13H43.0001Z" fill="#FDFDFD"/>
</svg>
