<svg width="128" height="128" viewBox="0 0 128 128" fill="none" xmlns="http://www.w3.org/2000/svg">
<path d="M63.625 127.825C62.15 127.65 59.85 127.225 58.6 126.875L57.3 126.5L56.6 124.575C56.2 123.5 55.25 120.55 54.5 118L53.1 113.375L51.125 113.225C48.1 113 46.375 112.45 41.4 110.15C38.925 109 36.525 107.925 36.075 107.775C35.65 107.6 35.05 107.175 34.725 106.85C34.2 106.275 34.125 105.925 33.925 102.125L33.725 98L32.325 96.7C24.625 89.45 19.45 79.425 17.875 68.725C17.375 65.25 17.375 58.5 17.875 55.025C19.425 44.425 24.6 34.35 32.1 27.325L34.2 25.35L34.5 23.275C34.975 19.725 36.25 17.15 38.125 15.95C38.675 15.575 39.125 14.975 39.4 14.25C40.725 10.8 42.875 8.92499 50 4.99999C54.65 2.42499 59.075 0.874989 63.375 0.249989C65.7 -0.0750108 70.6 -0.0750108 72.825 0.274989C79.2 1.22499 82.775 3.02499 87.35 7.57499C90.45 10.675 92.225 13.125 93.275 15.85C94.15 18.1 95.1 22.4 95.375 25.225L95.55 27.075L97.925 29.725C105.95 38.675 110.25 49.925 110.25 61.875C110.25 69.475 108.55 76.75 105.225 83.3L103.95 85.825L104.725 86.425C105.875 87.325 106.625 88.8 107.875 92.6C108.8 95.375 109 96.35 109 97.825C109 100.875 107.9 104.075 106.3 105.575C104.975 106.825 101.475 107.325 97.3 106.85C95.925 106.7 95.65 106.575 95.175 105.925L94.625 105.2L92.5 105.325C89.9 105.5 88.5 105.925 88.5 106.525C88.5 107.35 88.175 107.775 87.225 108.275C86.3 108.725 86.25 108.825 86.25 109.875C86.25 110.5 86.525 112.3 86.875 113.9C88.1 119.575 87.6 120.625 83.15 121.625C82.45 121.775 82.45 121.775 82.6 123.25C82.925 126.1 81.425 127.25 76.775 127.725C74.425 127.975 65.4 128.05 63.625 127.825Z" fill="#201D1E"/>
<path d="M51.375 110.225C48.8 109.875 45.275 108.55 40.9 106.3C37.725 104.675 36.65 104 36.6 103.625C36.575 103.35 36.475 101.675 36.4 99.875C35.975 90.925 34 81.175 31.1 73.875C30.475 72.275 30 70.925 30.05 70.875C30.075 70.85 31.525 69.775 33.25 68.5C36.775 65.9 41.325 63.125 44.025 61.95L45.825 61.15L47.975 63.425C50.275 65.9 51.5 66.725 55.75 68.775L58.425 70.05L58.875 71.975C59.125 73.025 59.7 75.075 60.15 76.55C60.825 78.65 61.175 79.35 61.775 79.85C62.6 80.55 63.1 80.65 64.1 80.25C64.95 79.925 64.925 80.15 63.875 81.6C62.85 83.025 62.775 83.95 63.575 84.675C64.125 85.2 70.675 88.525 72.625 89.275L73.625 89.675L71.25 89.825C69.95 89.925 67.1 90.1 64.9 90.25C61.375 90.5 57.025 90.925 53.7 91.4C52.575 91.55 52.525 91.55 52.325 90.85C52.1 90.025 52.075 85.975 52.25 81.95C52.375 79.25 52.2 78.55 51.525 78.975C50.95 79.325 50.8 81.125 51.075 84.45C51.35 87.9 51.15 90.45 50.625 90.65C50.45 90.725 49.7 90.375 48.95 89.9C48.225 89.4 47.55 89 47.45 89C47.075 89 47.25 89.95 47.75 90.575C48.025 90.925 48.25 91.375 48.25 91.6C48.25 92.025 47.5 92.5 46.8 92.5C46.275 92.5 45.325 93.4 45.6 93.675C45.675 93.775 46.9 93.825 48.325 93.8C49.725 93.775 51 93.825 51.175 93.95C51.35 94.05 51.6 95.325 51.75 96.9C51.9 98.425 52.35 102.025 52.75 104.9C53.425 109.85 53.45 110.55 53.05 110.475C52.95 110.45 52.2 110.35 51.375 110.225ZM80.4 105.925C80.075 103.475 79.7 93.2 79.95 92.95C80.075 92.825 80.95 92.7 81.9 92.675L83.6 92.625L83.9 93.975C84.075 94.725 84.4 97.525 84.625 100.225C84.85 102.925 85.05 105.35 85.075 105.625C85.125 106.125 84.6 106.3 81.475 106.825C80.55 106.95 80.55 106.95 80.4 105.925ZM82.175 88.825C82.55 88.15 83.575 86.45 84.475 85C85.375 83.55 86.925 80.975 87.925 79.275L89.775 76.175L89.05 75.275C87.975 73.925 87.975 73.875 88.425 72.85C88.725 72.125 88.85 71.125 88.85 69C88.85 65.6 88.4 63.7 87.2 62.35C86.5 61.575 86.3 61.475 85.45 61.55C84.925 61.6 84.525 61.575 84.55 61.475C84.6 61.375 85.325 60.725 86.15 60.025L87.7 58.75L90.575 61.425C92.15 62.925 94.025 64.65 94.725 65.3C96.3 66.75 96.325 66.975 95.15 71.825C93.9 77.025 90.825 85.8 89.5 87.95C88.85 89 88.4 89.15 85.3 89.35C83.875 89.425 82.5 89.6 82.25 89.75C81.475 90.175 81.45 90.05 82.175 88.825Z" fill="#335061"/>
<path d="M80.8748 87.775C81.3498 86.275 81.7998 83.35 82.1498 79.5C82.6248 74.65 82.6748 74.5 84.3248 74.5C85.5248 74.5 86.6998 75.025 87.6248 76L88.3248 76.725L86.7498 79.425C84.6248 83.075 81.1998 88.25 80.9248 88.25C80.8248 88.25 80.7748 88.05 80.8748 87.775Z" fill="#335061"/>
<path d="M31.9002 92.225C17.4752 76.325 16.3002 51.925 29.1502 34.85C30.7002 32.8 34.1752 29 34.5252 29C34.6252 29 34.8002 29.375 34.8752 29.825C35.0002 30.475 34.8502 31 34.2002 32.25C33.4002 33.825 33.3752 33.9 33.4002 36.975C33.4002 39.8 33.4752 40.325 34.1002 42C35.4502 45.6 37.5252 47.825 40.3502 48.775L41.6002 49.2L42.0502 51.025C42.3002 52 43.0002 53.75 43.6252 54.875C44.8502 57.125 45.0002 57.95 44.3252 58.575C44.0752 58.775 41.9002 60.1 39.5002 61.5C37.1002 62.925 34.2002 64.675 33.0502 65.4C31.9844 66.1003 30.8919 66.7592 29.7752 67.375C28.1502 68.2 27.2502 69.275 27.2502 70.475C27.2502 71.35 29.3752 77.825 30.9252 81.75C31.3502 82.775 31.9252 84.575 32.2002 85.75C32.8002 88.25 33.5752 93.125 33.4502 93.525C33.4002 93.7 32.7002 93.1 31.9002 92.225ZM91.7502 88.325C91.7502 88.225 92.4252 86.2 93.2752 83.775C95.7752 76.525 98.2752 68.225 98.4252 66.75C98.5752 65 98.2002 64.4 95.0002 61.55C90.4002 57.45 89.5002 56.5 89.5002 55.825C89.5002 55.475 90.0252 54.225 90.6502 53.075C91.9002 50.775 92.7002 48.625 93.6502 44.975C94.3752 42.15 95.2502 36.45 95.2502 34.475C95.2502 33.7 95.3252 32.7 95.4002 32.275L95.5752 31.475L96.2002 32.05C98.8502 34.525 103 41.475 104.725 46.35C106.65 51.775 107.325 55.9 107.325 61.875C107.325 66.5 107.05 69.05 106.1 72.775C105.2 76.375 104.125 79.275 102.475 82.55L100.975 85.45L99.3752 85.725C97.7752 86 95.8002 86.675 93.2002 87.825C92.4002 88.175 91.7502 88.4 91.7502 88.325ZM62.1502 77.95C61.9752 77.625 61.4252 76.3 60.9752 75C60.2002 72.8 60.1252 72.4 60.1252 69.5C60.1252 66.05 60.4752 64.9 61.6002 64.6C62.6002 64.35 66.1252 65.475 69.2002 67.025C70.8002 67.85 72.2752 68.5 72.4502 68.5C72.8252 68.5 72.8502 69.15 72.4752 69.4C72.3252 69.5 71.6752 69.7 71.0252 69.875C69.8252 70.2 69.8502 70.25 71.8252 70.75C72.9502 71.05 73.0002 71.1 73.0002 72C73.0002 72.85 72.8502 73.025 70.9502 74.55C68.1752 76.75 67.4502 77.15 65.1752 77.875C62.7752 78.65 62.6002 78.65 62.1502 77.95ZM81.3752 72.85C78.6502 72.375 78.7502 72.45 78.7502 71.025C78.7502 69.65 79.1252 69.25 80.3752 69.25C80.7502 69.25 80.9752 69.15 80.8752 69C80.8002 68.875 80.2502 68.75 79.6752 68.75C78.7252 68.75 78.5752 68.675 78.3252 68C78.0502 67.275 78.0502 67.25 80.0502 66C85.4502 62.525 86.5252 62.9 87.2502 68.575C87.4752 70.45 87.3752 72 86.9502 72.825C86.6752 73.35 84.3502 73.375 81.3752 72.85ZM74.6252 71.65C74.2502 71.375 74.1502 70.975 74.1252 69.85C74.1252 68.425 74.1502 68.4 74.9252 68.175C77.0502 67.55 78.1252 70.8 76.1002 71.725C75.3002 72.075 75.2002 72.075 74.6252 71.65Z" fill="#D33833"/>
<path d="M64.6248 124.975C63.7998 124.85 62.1248 124.5 60.8748 124.2L58.6248 123.625L57.5998 120.125C55.5998 113.425 54.0748 105.875 53.0248 97.7498C52.7748 95.7498 52.6498 94.0248 52.7498 93.9248C53.0498 93.5748 60.9498 92.5498 65.5498 92.2498C68.7748 92.0498 70.8748 92.0498 73.2998 92.2248C77.5748 92.5748 78.0498 92.7248 78.2748 93.6248C78.3998 93.9998 78.5998 96.8748 78.7498 99.9748C78.9248 103.075 79.0748 105.7 79.1498 105.775C79.1998 105.85 79.3498 108.775 79.4998 112.275C79.7498 118.15 80.0748 122.525 80.3998 123.55C80.5498 124.05 79.7248 124.35 76.7248 124.875C74.3998 125.275 67.1998 125.35 64.6248 124.975ZM80.8998 117.325C80.8248 116.25 80.6998 114.025 80.5998 112.35C80.4248 108.95 80.3248 109.15 82.4498 108.85L83.6498 108.7L84.3248 112.15C84.6998 114.075 84.9998 116.25 84.9998 117.025V118.425L83.5498 118.85C81.0748 119.55 81.0748 119.55 80.8998 117.325ZM96.9998 105.025C96.4248 104.6 96.9748 104.375 99.5748 103.85C102.975 103.2 101.85 102.875 96.8498 103.1L92.7748 103.25L92.6498 102.2C92.5748 101.6 92.3748 99.9498 92.2248 98.4998C92.0828 96.9997 91.8742 95.5065 91.5998 94.0248C91.2498 92.3498 91.2498 92.1498 91.6248 91.7498C92.1748 91.1498 93.8498 90.3748 96.3748 89.4998C97.4748 89.1248 98.8498 88.5748 99.4248 88.2748C101.975 86.9998 103.925 88.2748 105.1 91.9498C107.05 98.1248 107.075 101 105.25 103.325C104.25 104.575 102.925 105.05 99.9998 105.175C98.3748 105.25 97.2248 105.175 96.9998 105.025ZM101.5 98.7248C100.6 98.3498 97.4748 98.1498 96.3498 98.3748L95.3748 98.5998L96.2498 98.7498C96.7248 98.8498 98.2498 98.9498 99.6248 98.9498C101.55 98.9748 101.975 98.8998 101.5 98.7248ZM100.15 95.5748C101.3 95.3998 101.325 95.3748 100.625 95.2248C99.3248 94.9248 96.8998 94.9998 96.1248 95.3748C95.3998 95.6998 95.4498 95.6998 97.1498 95.7248C98.1248 95.7498 99.4748 95.6748 100.15 95.5748ZM97.7498 92.6998C99.4748 91.6998 99.6998 91.4998 98.9998 91.6248C97.1498 91.9748 95.7748 92.5498 94.8498 93.3998L93.8748 94.2748L94.7498 94.0998C95.2248 94.0248 96.5748 93.3998 97.7498 92.6998ZM87.8998 103.975C87.8498 103.775 87.6248 102.225 87.3998 100.5C87.1748 98.7748 86.8248 96.2498 86.5998 94.8998C86.3748 93.4248 86.3248 92.3248 86.4498 92.1998C86.5748 92.0748 87.2248 91.9998 87.8998 92.0498L89.1248 92.1248L89.7248 93.6248C90.5248 95.6498 90.9748 98.3998 90.9998 101.2C90.9998 103.5 90.9998 103.525 90.3248 103.775C89.0748 104.25 88.0248 104.35 87.8998 103.975ZM73.8748 87.1498C72.0998 86.4248 69.3498 85.1998 67.7998 84.3998C65.2748 83.0998 64.9998 82.8998 65.1498 82.4248C65.6998 80.6498 67.3248 78.8248 69.9248 77.0498C70.7998 76.4748 71.5498 75.9998 71.5998 75.9998C72.0748 75.9998 75.3498 82.2748 77.2248 86.6998C77.8748 88.2498 77.9248 88.4998 77.5498 88.4998C77.3248 88.4998 75.6748 87.8998 73.8748 87.1498ZM80.8748 87.7748C81.3498 86.2748 81.7998 83.3498 82.1498 79.4998C82.4748 76.2248 82.6748 75.0498 82.9498 74.8248C83.8998 74.0498 86.4248 74.7248 87.6998 76.0748L88.2748 76.6748L87.6498 77.7748C86.2748 80.2498 85.1748 82.0498 83.1998 85.0748C81.2748 88.0248 80.4998 88.9248 80.8748 87.7748ZM79.3248 87.1248C78.7294 85.8881 78.1625 84.6377 77.6248 83.3748C75.9998 79.5998 75.1248 77.8748 73.9498 76.1748C72.9998 74.7748 72.9748 74.6748 73.3998 74.2248C73.6498 73.9498 74.1748 73.7498 74.5998 73.7498C75.0248 73.7248 75.6498 73.5748 75.9998 73.3748C76.9248 72.8498 77.5248 72.9248 78.8248 73.7498C79.4748 74.1498 80.2998 74.5748 80.6498 74.6498L81.3248 74.8248L81.1498 78.7998C80.9748 82.6998 80.5248 86.2498 80.0498 87.4998C79.8248 88.1248 79.8248 88.1248 79.3248 87.1248ZM79.6248 81.1248C79.6248 80.4998 79.5248 80.3748 78.9998 80.3748C78.5998 80.3748 78.3498 80.5248 78.2998 80.8248C78.1498 81.5748 78.4498 82.0498 79.0498 81.9498C79.4998 81.8998 79.6248 81.7248 79.6248 81.1248ZM78.8498 77.1248C79.0748 76.4998 78.7248 75.9998 78.0998 75.9998C77.7498 75.9998 77.4248 76.1748 77.3498 76.3748C77.0998 76.9998 77.4498 77.4998 78.0998 77.4998C78.4248 77.4998 78.7498 77.3248 78.8498 77.1248ZM56.1248 67.2748C54.3498 66.6498 52.9498 65.8998 52.3998 65.2748C51.8498 64.6498 52.0248 63.8498 52.6998 64.1248C53.4748 64.4498 54.8498 64.6998 56.8248 64.8748C58.9498 65.0498 58.9748 65.0748 58.4748 66.8248C58.1998 67.8748 57.9748 67.9248 56.1248 67.2748ZM73.3498 66.5248C72.4998 66.2998 70.4998 65.2498 70.4998 64.9998C70.4998 64.8998 71.3248 64.8748 72.3248 64.9498C73.6748 65.0248 74.8248 64.8998 76.5748 64.4998C77.9248 64.1998 79.1248 63.9998 79.2498 64.0498C79.3998 64.0998 78.7498 64.7248 77.8248 65.4498C76.0748 66.8248 75.3498 66.9998 73.3498 66.5248ZM56.8748 63.7498C54.4998 63.4998 51.8248 62.6748 50.4498 61.7498C49.1498 60.8748 47.8748 59.1248 46.7248 56.5748C45.5998 54.0998 44.4998 50.8248 44.3498 49.3248C44.1998 48.0998 44.2248 47.9748 45.0998 46.8998C45.7248 46.1748 45.9998 45.5748 45.9498 45.1998C45.8498 44.4498 45.2748 44.5498 43.9248 45.5248C42.1498 46.7998 39.8748 46.3998 38.1748 44.5248C36.3998 42.5498 35.0748 39.0748 35.3248 36.9748C35.7748 33.1498 39.6498 30.4748 42.6748 31.8998C43.5998 32.3498 44.7998 34.1748 45.2498 35.8248C45.4998 36.6998 45.5748 36.7498 46.5248 36.7498C47.0748 36.7498 47.8998 36.5748 48.3748 36.3998C49.4498 35.9498 49.4998 35.3748 48.6998 32.4248C47.9998 29.7498 48.0248 27.4248 48.8498 23.5248C49.5498 20.2248 49.6748 17.6498 49.2248 15.8748C48.9498 14.8248 48.9998 14.6748 49.7248 13.5498C51.9748 10.0498 58.6748 5.14984 63.4998 3.47484C65.5748 2.77484 70.0998 2.69984 73.0748 3.34984C77.3248 4.27484 81.9498 6.27484 84.1498 8.14984C85.1998 9.04984 89.2498 13.9998 89.2498 14.3998C89.2498 14.4498 88.8248 14.4498 88.2998 14.3498C86.2748 14.0248 84.2498 15.1998 84.2498 16.6748C84.2498 17.2498 84.2748 17.2498 84.7998 16.8998C85.7748 16.1998 87.8248 16.3748 89.5498 17.2998C92.1498 18.6748 93.0748 20.4998 93.5248 25.1498C93.9498 29.4248 93.6748 37.9498 93.0498 41.0498C91.9998 45.9998 90.3998 50.0248 87.8248 53.9998C85.7748 57.1498 84.8498 58.1998 82.9748 59.4248C79.3498 61.7498 75.5748 62.9998 72.1248 62.9998C69.6498 62.9998 68.0748 62.5498 65.1498 61.0498C62.4748 59.6748 59.2998 56.7748 56.7998 53.4498C55.8998 52.2498 55.1248 51.2998 55.0498 51.3498C54.7748 51.6498 55.6998 53.4748 56.9998 55.1998C58.6998 57.4748 62.2498 60.9498 63.7248 61.7748C64.2748 62.0998 64.7498 62.4748 64.7498 62.5748C64.7498 62.6998 64.1498 62.6998 63.4248 62.6248C61.8498 62.4248 60.2748 62.7998 59.6248 63.4998C59.3748 63.7748 59.0498 63.9748 58.8998 63.9748C58.7498 63.9498 57.8498 63.8498 56.8748 63.7498ZM80.5748 54.9998C81.0748 54.8498 81.7248 54.4748 82.0248 54.1748L82.5248 53.6248L78.3248 53.4748C72.5248 53.2748 70.9748 52.7748 68.9248 50.4998C68.2748 49.7998 67.5998 49.2498 67.3748 49.2998C67.1248 49.3498 67.4998 49.9998 68.7248 51.4998C70.9998 54.2998 71.5248 54.7498 72.9248 55.1498C74.3248 55.5498 79.0998 55.4498 80.5748 54.9998ZM80.8998 49.5748C80.8248 49.0498 80.7498 48.4498 80.7498 48.2248C80.7498 47.8748 80.1998 47.7998 76.6998 47.6748C73.0248 47.5748 71.3498 47.3248 69.3748 46.5998C68.4498 46.2748 70.5498 48.2498 71.7748 48.8998C73.5248 49.7748 76.5248 50.3998 79.4748 50.4748L81.0748 50.4998L80.8998 49.5748ZM84.4498 49.8748C86.0748 49.3748 87.8998 47.9248 89.0498 46.2248C89.5498 45.4748 89.9248 44.8498 89.8748 44.7998C89.8498 44.7498 88.7998 45.2248 87.5498 45.8498C86.3248 46.4748 84.7748 47.1248 84.0998 47.2748C83.5879 47.3851 83.0794 47.5102 82.5748 47.6498C82.3748 47.6998 82.2498 48.1998 82.2498 48.9998C82.2498 50.4498 82.3498 50.4748 84.4498 49.8748ZM81.0748 45.2748C83.0748 44.7498 84.1748 44.2748 86.6248 42.7998C88.0498 41.9748 88.1748 41.8248 88.5748 40.4748C88.7998 39.6748 88.9998 38.8998 88.9998 38.7248C88.9998 38.5748 88.0248 37.4248 86.8498 36.1748C83.2248 32.2998 80.9998 29.0998 79.5998 25.6248C79.4248 25.2498 79.3748 25.3998 79.2998 26.2748C79.1498 28.5248 80.7498 31.5998 84.3248 35.8998C86.8498 38.8998 87.1998 39.6498 86.7248 40.7998C86.4748 41.4498 85.9748 41.7748 83.8998 42.7748C80.8998 44.1748 79.7998 44.4998 78.0998 44.4998C76.5998 44.4998 75.8248 43.8498 75.5748 42.3748C75.4498 41.6248 75.3748 41.5248 75.1748 41.8748C74.8248 42.5248 74.9248 44.0998 75.3748 44.9748C75.7498 45.7248 75.8248 45.7498 77.4748 45.7498C78.3998 45.7498 80.0248 45.5248 81.0748 45.2748ZM40.1748 39.3248C40.2498 37.1748 40.6748 36.2498 41.5998 36.2498C42.2748 36.2498 42.7248 36.7248 43.5248 38.2498C44.0998 39.3748 44.1248 39.3748 44.1998 38.6498C44.3248 37.5498 43.5748 35.8748 42.4748 34.8998C41.6748 34.1498 41.2998 33.9998 40.3998 33.9998C39.4748 33.9998 39.1998 34.1248 38.6498 34.7748C37.8498 35.7248 37.8248 36.1248 38.5998 35.6248C39.2998 35.1498 40.1248 35.3748 39.8248 35.9748C39.4248 36.7498 39.6248 41.2498 40.0498 41.2498C40.0998 41.2498 40.1498 40.3998 40.1748 39.3248ZM71.9248 32.3498C72.6748 31.7748 72.8998 31.2498 72.7498 30.2498C72.7248 30.0498 72.2748 29.4248 71.7498 28.8748C71.1998 28.3248 70.3748 27.0248 69.8748 25.9998L68.9998 24.1248L69.0748 25.2498C69.1748 26.3998 69.7998 27.8998 70.7748 29.4498C71.2748 30.2248 71.2998 30.3248 70.8998 30.6998C70.5748 31.0248 70.1248 31.0998 68.9248 31.0498C65.1748 30.8498 65.3748 30.8498 65.2998 31.3998C65.0498 33.1248 69.9998 33.8248 71.9248 32.3498ZM90.6248 31.2748C91.1748 31.0248 91.8248 30.5998 92.0498 30.3248C92.4748 29.8748 92.4248 29.7248 90.9998 26.9248C89.6748 24.3498 89.4998 24.0998 89.4998 24.8748C89.4998 25.3498 89.7998 26.4748 90.1748 27.3748C90.6748 28.5748 90.7748 29.0748 90.5748 29.2748C90.3998 29.4498 89.3998 29.6498 88.3248 29.7748C87.2498 29.8748 86.3498 29.9748 86.3248 29.9748C86.1248 30.0248 86.2998 30.7248 86.6498 31.1998C86.9498 31.6498 87.2748 31.7498 88.3248 31.7498C89.0498 31.7498 90.0748 31.5248 90.6248 31.2748ZM59.4998 20.3998C60.9998 18.3748 62.4748 17.6248 64.8248 17.6498C66.4998 17.6498 66.5248 17.6498 66.4498 17.0248C66.3248 16.0248 64.8748 15.1748 63.6498 15.3748C61.4748 15.6998 58.7248 17.8998 57.8498 19.9748C57.2498 21.3748 57.4998 23.4498 58.1248 22.3498C58.2498 22.1248 58.8748 21.2498 59.4998 20.3998Z" fill="#6F6C6E"/>
<path d="M46.925 34.5747C46.825 34.4997 46.75 34.1497 46.75 33.8247C46.75 32.2497 44.875 30.1497 42.825 29.4747C41.625 29.0747 38.625 29.2997 38.025 29.8497C37.8 30.0747 37.5 30.1747 37.425 30.0747C37.325 29.9997 37.25 28.4247 37.25 26.6247C37.25 22.3747 37.6 21.1497 39.325 19.3247C41.075 17.4747 44.125 15.9497 46.175 15.8997L47.625 15.8747L47.85 17.5997C48.05 18.9497 47.975 20.1497 47.55 23.3497C46.875 28.3747 46.875 28.8497 47.55 31.6747C48 33.5747 48.025 34.0247 47.775 34.3497C47.4 34.7747 47.175 34.8497 46.925 34.5747ZM41.675 14.1997C42.525 12.7247 44.825 10.4747 46.975 9.04971C50.775 6.49971 55.875 4.62471 55.875 5.74971C55.875 5.94971 55.65 6.22471 55.375 6.37471C53.35 7.39971 51.225 9.42471 50.125 11.2997C49.75 11.9497 49.15 12.8247 48.75 13.2497C48.1 13.9497 47.925 13.9997 46.45 13.9747C45.4113 13.9534 44.3775 14.1229 43.4 14.4747C41.325 15.2247 41.125 15.1747 41.675 14.1997Z" fill="#6F6C6E"/>
<path d="M37.2499 104.425C36.8999 104.225 36.6499 103.975 36.6749 103.85C36.7499 103.425 36.2749 96.4499 35.9999 94.1249C35.4249 89.2749 34.2499 83.2499 33.2249 79.8749C32.4499 77.2499 31.6999 75.0499 31.4749 74.4999C31.2999 74.1499 31.0999 73.6499 30.9749 73.3749C30.0749 71.1749 29.9999 70.8749 30.2499 70.7999C30.3999 70.7499 31.1999 70.1749 31.9999 69.5249C35.1999 66.9999 40.1499 63.7999 42.9999 62.4749C43.8999 62.0499 44.8999 61.5749 45.2249 61.4249C45.7749 61.1499 45.9249 61.2499 47.3999 62.8749C48.2749 63.8249 48.9999 64.6749 48.9999 64.7499C48.9999 64.9249 49.1499 64.8499 40.6249 68.6249C37.3249 70.0999 34.5749 71.3249 34.5499 71.3749C34.4999 71.4249 34.7499 72.7999 35.1249 74.4249C36.5499 80.7499 37.6499 87.2249 38.2499 92.6999C38.6999 96.8249 38.5499 104.75 38.0249 104.75C37.9499 104.75 37.5999 104.6 37.2499 104.425ZM79.9499 96.5999C79.6999 96.3749 79.6999 94.8499 79.8999 93.7999C80.0749 92.9249 80.3999 92.7499 82.2249 92.6499C83.4249 92.5499 83.4749 92.5749 83.7249 93.3249C83.8749 93.7249 83.9999 94.4499 83.9999 94.9249C83.9999 95.6749 83.8749 95.8249 83.0749 96.1749C81.9749 96.6249 80.1999 96.8749 79.9499 96.5999ZM48.9999 95.7499C47.2499 95.4499 46.3499 95.1499 45.5499 94.6249C44.8249 94.1499 44.5749 93.8499 44.7999 93.7249C44.9499 93.6249 45.2249 93.5999 45.3749 93.6999C45.4999 93.7999 46.8249 93.8749 48.2999 93.8749C49.9249 93.8749 51.0749 93.9749 51.2499 94.1499C51.3999 94.2999 51.4999 94.8249 51.4499 95.2999L51.3749 96.1499L48.9999 95.7499ZM52.3999 91.0999C52.1999 90.5749 52.1999 84.4249 52.3999 81.5499L52.5749 79.2749L53.5249 80.4749L54.4999 81.6999V86.4749C54.4999 89.0999 54.4249 91.2499 54.3249 91.2749C54.1999 91.2749 53.7749 91.3249 53.3249 91.3749C52.7749 91.4499 52.4999 91.3749 52.3999 91.0999ZM74.5249 87.3749C71.8249 86.2999 65.9749 83.4999 65.3249 82.9499C64.8499 82.5499 65.9749 80.5749 67.5249 79.1249C69.2749 77.4749 71.1999 76.1749 71.6249 76.3249C72.2249 76.5749 74.4499 80.4999 76.1249 84.2749C77.7249 87.9749 77.9249 88.4999 77.5749 88.4999C77.4499 88.4999 76.0999 87.9749 74.5249 87.3749ZM80.8749 87.8749C81.5499 85.9249 82.1499 81.8749 82.3999 77.7999C82.5749 75.0999 82.5999 74.9499 83.1749 74.7249C84.5999 74.1999 86.4749 74.7499 87.6999 76.0749L88.2749 76.6749L87.6499 77.7749C84.5999 83.2499 80.2499 89.6999 80.8749 87.8749ZM91.9499 66.1249C89.9249 64.6249 87.8749 62.9749 87.4249 62.5249C86.9499 62.0499 86.2249 61.5249 85.7749 61.3749L84.9749 61.1249L86.3249 59.9499L87.6749 58.7749L90.0249 61.0749C91.3249 62.3499 93.1249 64.0249 94.0499 64.8249C95.7999 66.3249 96.2749 67.2749 95.8249 68.3749C95.6499 68.8249 95.2749 68.6249 91.9499 66.1249Z" fill="#4A738D"/>
<path d="M64.9999 124.9C61.7749 124.4 59.0749 123.75 58.7999 123.425C58.4499 123 57.1749 118.5 56.0249 113.725C54.4249 107.225 52.4249 94.4498 52.9249 93.9998C53.1999 93.7248 59.4499 92.8248 63.4999 92.4748C68.3249 92.0498 77.4999 92.4249 78.1249 93.0499C78.1999 93.0999 78.4249 96.1248 78.6249 99.7748C78.8249 103.4 79.0499 106.825 79.1249 107.375C79.1999 107.925 79.3749 111.05 79.4999 114.3C79.6249 117.55 79.8749 121.025 80.0249 122.025C80.2499 123.45 80.2249 123.85 79.9749 124.025C78.4749 124.95 68.9499 125.5 64.9999 124.9ZM81.1249 119C81.0749 118.925 80.9499 116.7 80.8499 114.1L80.6749 109.35L81.9749 109.05C83.4749 108.7 83.7499 108.8 83.7499 109.6C83.7499 109.925 83.9749 111.225 84.2499 112.525C84.5249 113.825 84.8249 115.625 84.8999 116.55C85.0749 118.225 85.0749 118.225 84.3499 118.525C83.3749 118.9 81.2499 119.225 81.1249 119ZM97.6249 105.025C96.6499 104.85 96.6499 104.825 97.2499 104.575C97.5999 104.425 98.2749 104.25 98.7499 104.15C101.475 103.625 102.025 103.425 101.75 103.15C101.55 102.975 100.125 102.9 97.1499 102.95L92.8499 103.025L92.4249 99.0748C92.1749 96.8998 91.8249 94.4498 91.6249 93.6248L91.2749 92.1248L91.9499 91.5748C92.3249 91.2498 93.4249 90.6998 94.3749 90.3498C95.3499 89.9748 97.0749 89.2999 98.2499 88.7999C100.8 87.7498 101.85 87.6749 102.975 88.4998C104.075 89.2748 104.8 90.9249 105.75 94.7498C106.55 98.0998 106.675 99.7498 106.2 101.325C105.775 102.725 104.15 104.375 102.875 104.7C101.45 105.075 98.7999 105.225 97.6249 105.025ZM101.8 98.7248C100.475 98.1998 97.9499 97.9748 96.5999 98.2498C94.2749 98.7498 95.0749 98.9998 98.8249 98.9748C101.275 98.9748 102.2 98.8998 101.8 98.7248ZM101.325 95.5248C101.775 95.3498 101.675 95.2748 100.625 95.0998C98.0999 94.6748 95.2499 95.0498 95.2499 95.8248C95.2499 96.0998 100.45 95.8498 101.325 95.5248ZM97.9249 92.7248C99.2249 92.0248 100.25 91.4249 100.2 91.3748C100.025 91.1998 97.6749 91.7748 96.5249 92.2498C95.8499 92.5499 94.9749 93.1248 94.5999 93.5499L93.8749 94.3248L94.7249 94.1498C95.1749 94.0749 96.6249 93.4248 97.9249 92.7248ZM87.9999 104C87.9999 103.725 86.5999 94.0998 86.3749 92.9498C86.2749 92.2498 86.2749 92.2498 87.6499 92.2498H89.0249L89.5249 93.3748C90.2749 95.0499 90.7249 97.4998 90.9249 100.65L91.0749 103.425L89.8749 103.85C88.4749 104.3 87.9999 104.35 87.9999 104ZM76.8749 88.1749C73.4249 87.0499 65.2499 83.2248 65.2499 82.7248C65.2499 81.4248 67.4499 78.8248 69.8999 77.2248L71.5499 76.1749L72.1249 76.8998C73.2499 78.2498 78.0249 88.0998 77.6999 88.3748C77.6499 88.3998 77.2999 88.3249 76.8749 88.1749ZM81.0999 87.6248C81.5749 86.3498 82.4499 79.7748 82.5249 76.5499L82.5749 74.9998L83.4749 74.7498C84.7499 74.4249 86.1499 74.7999 87.1499 75.7748C87.6249 76.2248 87.9999 76.6998 87.9999 76.8248C87.9999 77.1498 84.6499 82.7748 82.7999 85.5748C81.2999 87.8498 80.7499 88.4998 81.0999 87.6248ZM79.1749 86.5748C78.8499 85.9248 77.8749 83.7748 77.0249 81.8498C76.1749 79.8998 74.9749 77.5498 74.3499 76.5998C73.3499 75.0498 73.2499 74.8249 73.5499 74.2999C73.7499 73.8998 73.9999 73.7498 74.3249 73.8498C74.5999 73.9248 75.3749 73.7498 76.0499 73.4748L77.2749 72.9998L78.8499 73.8748C79.7249 74.3498 80.5999 74.7498 80.8249 74.7498C81.3249 74.7498 81.3249 74.5248 80.9999 79.6498C80.7749 83.2248 80.2249 87.3748 79.8999 87.6749C79.8249 87.7498 79.4999 87.2498 79.1749 86.5748ZM79.7749 81.5998C80.1999 81.0748 79.7749 80.3748 78.9999 80.3748C78.2249 80.3748 77.7999 81.0748 78.2249 81.5998C78.4249 81.8248 78.7499 81.9998 78.9999 81.9998C79.2499 81.9998 79.5749 81.8248 79.7749 81.5998ZM78.8499 77.1998C79.1749 76.6748 78.7999 75.9249 78.1999 75.7999C77.7999 75.7249 76.9999 76.3748 76.9999 76.7498C76.9999 77.1248 77.7999 77.7748 78.1999 77.6998C78.3999 77.6498 78.6999 77.4248 78.8499 77.1998ZM56.1249 67.1498C54.4999 66.6248 52.5499 65.5498 52.2499 64.9998C51.8249 64.2248 52.1499 63.9998 53.0999 64.3748C53.5499 64.5748 54.9499 64.7999 56.2249 64.8998C57.4749 64.9998 58.5499 65.1498 58.6249 65.2498C58.6749 65.3248 58.5999 65.8748 58.4499 66.4498C58.1499 67.6248 57.8749 67.6999 56.1249 67.1498ZM72.9999 66.3248C72.1499 66.0248 70.4999 65.1498 70.4999 64.9998C70.4999 64.8998 71.0749 64.9498 71.7749 65.0998C72.8499 65.3248 73.5249 65.2498 76.1499 64.7248C77.8499 64.3498 79.2499 64.0998 79.2499 64.1498C79.2499 64.1749 78.5749 64.7248 77.7749 65.3498C76.3749 66.4248 76.1999 66.4998 74.8249 66.4748C74.0249 66.4748 73.1999 66.3998 72.9999 66.3248ZM56.3749 63.5748C55.0999 63.4498 52.1499 62.5748 50.9749 61.9998C49.6999 61.3498 48.5249 59.9248 47.3249 57.6248C46.1999 55.4248 44.6499 51.0248 44.3749 49.2248C44.2249 48.1498 44.2499 48.0248 45.2249 46.8998C46.2999 45.6749 46.3999 45.3748 45.9999 44.7498C45.7999 44.4248 45.6249 44.4498 44.8249 44.9248C42.5249 46.2498 42.3499 46.3248 41.1499 46.1498C39.3249 45.8748 38.0749 44.7248 36.7749 42.1998C35.7999 40.3248 35.6499 39.7748 35.5499 38.0748C35.4499 36.3748 35.5249 35.9248 35.9999 34.9748C37.2499 32.4748 38.8999 31.5748 41.8499 31.7248C42.8999 31.7748 44.2749 33.3248 44.8749 35.1248C45.1249 35.9498 45.4249 36.7248 45.5249 36.8248C45.8249 37.1998 48.2749 36.6998 48.9499 36.1248L49.5999 35.5748L48.9249 32.7248C48.0749 29.0998 48.0749 27.8998 48.9999 23.4248C49.8499 19.2998 49.8999 18.1998 49.3999 16.2498L49.0249 14.8748L49.8249 13.5248C51.9249 10.0248 59.8749 4.42485 64.2499 3.39985C70.2249 1.97485 80.2749 4.62485 84.5749 8.72485C85.7499 9.84985 88.9999 13.9248 88.9999 14.2998C88.9999 14.3248 88.2749 14.3748 87.3999 14.3748C86.0249 14.3748 85.6999 14.4748 85.1249 14.9998C84.3999 15.6748 83.9249 16.6498 84.1249 16.9998C84.1999 17.1248 84.6499 17.0498 85.1249 16.8498C86.7999 16.1498 88.9749 16.6498 90.7249 18.1748C92.8499 19.9998 93.4249 22.1998 93.6499 29.4998C93.9249 38.2748 92.6999 44.6498 89.5999 50.8248C88.8749 52.2248 86.3249 56.1498 85.2999 57.3748C83.2499 59.8498 77.3249 62.5499 73.1499 62.8998C70.7999 63.0998 68.8999 62.6998 66.1249 61.3998C62.2749 59.5748 59.6999 57.2999 56.4249 52.7748C55.5749 51.6248 54.8499 50.7998 54.7999 50.9748C54.6499 51.3998 55.9249 53.9998 56.9749 55.3748C58.4499 57.3248 61.9999 60.8498 63.3249 61.6998L64.5249 62.4498L62.5249 62.5248C60.8749 62.5998 60.4249 62.7248 59.9499 63.1998C59.3249 63.7498 58.8499 63.7998 56.3749 63.5748ZM80.3999 55.1248C81.4749 54.7998 82.7499 53.8998 82.7499 53.4998C82.7499 53.3998 81.0999 53.3248 79.0749 53.3248C73.1999 53.3498 70.5499 52.5498 68.7999 50.2498C68.3249 49.6248 67.7999 49.0998 67.6249 49.0498C66.8999 48.8748 67.0249 49.5498 67.8499 50.5748C68.3499 51.1498 69.2249 52.2248 69.7999 52.9748C70.9999 54.4748 72.1249 55.1748 73.9249 55.4998C75.4499 55.7748 78.9249 55.5748 80.3999 55.1248ZM80.9499 49.1998L80.8749 47.8748L77.3749 47.6998C73.5999 47.5248 71.1499 47.1748 69.7749 46.5998C69.2999 46.3998 68.8749 46.2748 68.8499 46.3248C68.7999 46.3748 69.0999 46.8248 69.5249 47.3248C71.0249 49.1248 74.8999 50.4498 78.9499 50.4748L81.0249 50.4998L80.9499 49.1998ZM85.8749 49.3998C86.4749 49.0499 87.3749 48.3248 87.8749 47.7748C88.8999 46.6998 90.2999 44.6998 90.1249 44.5498C90.0749 44.4998 89.1999 44.8998 88.1999 45.4248C86.2749 46.4748 83.5999 47.4998 82.7499 47.4998C82.2999 47.4998 82.2499 47.6749 82.2499 48.8998V50.3248L83.5249 50.1748C84.2249 50.0748 85.2749 49.7248 85.8749 49.3998ZM81.2499 45.3248C82.9249 44.8998 84.7999 44.0498 86.7749 42.8498C88.0999 42.0498 88.2749 41.8498 88.6249 40.6998C89.1999 38.6998 89.1249 38.4498 87.5499 36.8248C84.1249 33.3748 80.3999 28.0498 79.8999 25.9498C79.8249 25.5498 79.5749 25.2498 79.3749 25.2498C78.4499 25.2498 79.4249 28.9748 80.9999 31.5998C81.4749 32.3748 82.6749 33.9998 83.6249 35.1498C86.9999 39.2748 87.1499 39.5748 86.4749 41.0748C85.9249 42.2998 79.2749 44.7498 77.4249 44.3998C76.3499 44.1998 75.9749 43.7498 75.7749 42.5498C75.5999 41.4748 75.2249 41.3748 74.8999 42.2998C74.5749 43.1998 74.9499 44.6998 75.6499 45.4248C76.2499 46.0248 76.3749 46.0498 78.0749 45.8748C79.0749 45.7748 80.4999 45.5248 81.2499 45.3248ZM40.8499 36.7748C41.1249 36.4748 41.4499 36.2498 41.6249 36.2498C42.0499 36.2498 42.8499 37.1998 43.5249 38.4998L44.1249 39.6248L44.1999 38.4498C44.2999 37.0498 43.6499 35.6248 42.4999 34.6498C40.9749 33.3998 39.2999 33.5248 38.3249 34.9748C37.5999 36.0498 37.5999 36.3998 38.2999 35.8998C38.5999 35.6749 39.0749 35.4998 39.3249 35.4998C39.7249 35.4998 39.7499 35.6248 39.5749 36.3248C39.2749 37.4998 39.3749 40.0248 39.7749 40.8748C40.0749 41.5998 40.0999 41.5248 40.2499 39.4498C40.3499 37.8248 40.4999 37.1498 40.8499 36.7748ZM72.1499 32.2498C73.3249 31.0748 73.2749 30.3748 71.8749 28.7998C71.2499 28.0998 70.3249 26.6498 69.7999 25.5748C68.9999 23.8498 68.8749 23.6998 68.7999 24.3498C68.6999 25.0998 69.5749 27.8498 70.1249 28.4998C70.2999 28.6998 70.6249 29.2248 70.8249 29.6498C71.2249 30.4498 71.2249 30.4498 70.4999 30.7498C69.9749 30.9748 69.1999 30.9998 67.8249 30.8498C66.7499 30.7498 65.7749 30.6498 65.6249 30.6248C65.1749 30.6248 65.1999 31.7748 65.6499 32.2748C66.2999 32.9998 67.3999 33.2498 69.4499 33.1498C71.1249 33.0748 71.3499 32.9998 72.1499 32.2498ZM91.1749 31.1248C91.7749 30.7498 92.3499 30.2998 92.4249 30.1248C92.5249 29.7998 89.5749 23.4998 89.2999 23.4998C88.9749 23.4998 89.5249 26.2998 90.1249 27.5998C90.8999 29.3498 90.8499 29.3998 88.4999 29.6248C87.5999 29.7248 86.7249 29.8248 86.5749 29.8748C86.0249 30.0498 86.2249 30.9498 86.9499 31.4998C87.4999 31.9498 87.8249 32.0248 88.8499 31.8998C89.4999 31.8248 90.5499 31.4748 91.1749 31.1248ZM58.7249 21.6498C59.6249 20.1248 61.1499 18.6248 62.3999 18.0998C62.8499 17.8998 63.9499 17.7498 64.8499 17.7498C65.7499 17.7498 66.5499 17.6248 66.6249 17.4998C67.1249 16.6748 65.4499 15.2498 63.9499 15.2498C62.7999 15.2498 60.7499 16.2998 59.4749 17.5748C58.4249 18.6248 57.2499 20.7248 57.2499 21.5748C57.2499 22.0248 57.6749 22.9998 57.8749 22.9998C57.9249 22.9998 58.2999 22.3998 58.7249 21.6498Z" fill="#83B3C7"/>
<path d="M37.3499 28.6C37.1499 26.9 37.3499 23.225 37.7499 21.95C38.5749 19.15 42.3749 16.475 46.3999 15.85C47.3249 15.725 47.4499 15.75 47.5749 16.275C47.8249 17.175 47.7999 17.25 47.1749 17.25C46.1999 17.25 43.4499 18.25 42.1999 19.05C39.1999 20.95 37.4249 24.85 37.8999 28.475C37.9999 29.225 37.9499 29.75 37.7999 29.85C37.6249 29.95 37.4749 29.475 37.3499 28.6ZM41.4999 14.75C41.4999 14.65 42.0249 13.875 42.6499 13.025C43.9999 11.225 46.7999 9.04996 49.6999 7.54996C51.9749 6.37496 55.1749 5.17496 55.5249 5.39996C55.9749 5.64996 55.7249 6.17496 55.0249 6.52496C49.6999 9.12496 47.8749 10.325 45.5249 12.775C44.4249 13.9 43.8249 14.3 42.8249 14.6C42.0999 14.8 41.4999 14.875 41.4999 14.75Z" fill="#83B3C7"/>
<path d="M72.9999 66.2748C72.1249 65.9998 70.7999 65.2998 70.6249 64.9998C70.5249 64.8248 70.6999 64.8248 71.1249 64.9998C72.1499 65.3748 73.6249 65.2998 76.5749 64.6498C78.0499 64.3248 79.2499 64.0998 79.2499 64.1248C79.2499 64.1498 78.5749 64.6998 77.7749 65.3498C76.4249 66.3998 76.1749 66.4998 74.9499 66.4748C74.2249 66.4748 73.3499 66.3748 72.9999 66.2748ZM56.0749 63.4748C54.0499 63.2248 51.4499 62.3248 50.2749 61.4998C48.9249 60.5248 47.5999 58.4498 46.2999 55.3498C45.3249 52.9748 44.2499 49.3748 44.2499 48.4748C44.2499 48.2248 44.6999 47.4998 45.2749 46.8498C46.3249 45.6498 46.4999 44.6998 45.6999 44.5498C45.4749 44.4998 44.6499 44.8748 43.8999 45.3998C42.6999 46.1998 42.3749 46.2998 41.4749 46.1748C39.7749 45.9498 38.2499 44.8248 37.1749 42.9998C34.6499 38.6498 34.9999 34.6248 38.0999 32.5748C39.1499 31.8498 39.5249 31.7498 40.8749 31.7498C42.0999 31.7498 42.5749 31.8748 43.1249 32.2998C43.8249 32.8498 45.2499 35.5248 45.2499 36.3248C45.2499 36.5748 45.4249 36.8248 45.6249 36.8998C46.3249 37.1748 48.2499 36.7248 48.9249 36.1498L49.5749 35.5748L48.9249 32.6748C48.0749 28.9998 48.0749 27.9498 48.9999 23.5248C49.8499 19.4998 49.9249 17.8998 49.3749 16.0998C49.0249 14.9248 49.0499 14.8498 49.6249 13.8498C51.1499 11.2498 54.7499 8.14981 59.2499 5.59981C62.5999 3.72481 64.1249 3.22481 67.2499 3.07481C71.6499 2.84981 75.9749 3.84981 80.8999 6.24981C83.0749 7.29981 83.6749 7.72481 85.1499 9.32481C86.0999 10.3498 87.3499 11.8748 87.9499 12.7248L89.0249 14.2498H87.5999C85.9999 14.2498 85.0249 14.7248 84.3999 15.7498C83.8499 16.6998 83.8749 17.3498 84.4499 17.1248C86.4499 16.2748 88.0249 16.4498 90.0499 17.7248C92.4999 19.2748 93.1249 21.0998 93.5499 27.7248C94.0749 36.2248 92.9249 43.5498 90.1249 49.6748C88.9999 52.1248 86.0249 56.6498 84.6999 57.8998C82.7999 59.7248 79.3249 61.4998 75.9999 62.3748C73.7499 62.9748 70.2499 62.9748 68.4999 62.3998C64.1749 60.9498 60.6249 58.2248 57.1499 53.6748C55.9249 52.0748 54.8749 50.7998 54.7999 50.8498C54.5749 51.0748 55.5499 53.4248 56.3249 54.5498C57.7249 56.5748 61.4249 60.3998 63.0499 61.4998L64.5999 62.5248L63.2749 62.4248C61.6749 62.2748 60.6249 62.5498 59.8749 63.2498C59.2999 63.7998 58.8999 63.7998 56.0749 63.4748ZM79.7249 55.3248C81.2499 54.9998 82.7499 54.0748 82.7499 53.4498C82.7499 53.3498 81.0999 53.2498 79.0749 53.2498C74.8249 53.2748 73.6249 53.1248 71.7999 52.4498C70.2749 51.8748 69.2499 51.0748 68.4999 49.8748C68.1749 49.3748 67.7499 48.9998 67.4749 48.9998C66.5999 48.9998 66.7499 49.2248 70.0249 53.3248C70.4499 53.8498 71.0499 54.4498 71.3999 54.6498C72.9999 55.7248 76.5249 55.9998 79.7249 55.3248ZM80.9999 49.3248C80.9999 48.4748 80.8749 47.9498 80.6999 47.8748C80.5249 47.8248 78.9249 47.7248 77.1249 47.6248C73.0249 47.4498 70.9749 47.0998 69.1499 46.3748C68.7499 46.1998 68.7249 46.2498 68.9749 46.6748C70.1499 48.9248 74.8249 50.5998 79.9499 50.6498H80.9999V49.3248ZM85.3999 49.6248C86.1249 49.3248 87.1499 48.5998 87.7249 48.0248C88.6749 47.0748 90.3249 44.7248 90.1499 44.5498C90.0999 44.5248 88.9249 45.0498 87.5249 45.7248C86.1249 46.3998 84.3749 47.0998 83.6249 47.2498L82.2499 47.5248V50.5498L83.1999 50.3748C83.6999 50.2998 84.6999 49.9498 85.3999 49.6248ZM81.5499 45.3498C83.0249 44.8998 84.6749 44.1248 86.7999 42.8498C87.9999 42.1248 88.2749 41.7998 88.5999 40.8248C89.2249 39.0248 89.1249 38.1248 88.2499 37.4498C85.9749 35.6748 80.8999 28.8248 80.1249 26.4998C79.8749 25.7248 79.5749 25.2498 79.3249 25.2498C78.9999 25.2498 78.9499 25.4748 79.0999 26.6998C79.3499 28.7998 81.0999 32.1498 83.3749 34.8748C86.3249 38.3998 86.7499 39.0248 86.7499 39.7748C86.7499 41.1998 86.3499 41.5748 83.5249 42.8248C80.6249 44.0998 79.1749 44.4498 77.6499 44.3248C76.3999 44.2248 76.0249 43.8998 75.8499 42.6998C75.6499 41.5498 75.3749 41.2998 75.0249 41.9748C74.4749 42.9998 74.7499 44.4748 75.7249 45.5998C76.0749 45.9998 76.3749 46.0248 78.1749 45.8998C79.2999 45.7998 80.8249 45.5498 81.5499 45.3498ZM40.9499 36.6998C41.4499 36.1998 41.4999 36.1998 42.0999 36.5998C42.4499 36.8248 43.0499 37.5998 43.4249 38.3248L44.1249 39.6248L44.1999 38.4498C44.3999 35.4498 41.1249 32.6998 39.0499 34.1498C38.4499 34.5498 37.6249 35.9498 37.8499 36.1748C37.9249 36.2498 38.1499 36.1248 38.3749 35.8998C38.5999 35.6748 38.9999 35.4998 39.2999 35.4998C39.7249 35.4998 39.7749 35.5998 39.5749 36.3248C39.2749 37.5498 39.3749 40.2998 39.7749 40.9998C40.0999 41.5748 40.1249 41.4748 40.2749 39.4248C40.3999 37.6498 40.5249 37.0998 40.9499 36.6998ZM71.3999 32.8498C73.3499 31.9248 73.4999 30.5248 71.8749 28.7748C71.2749 28.1248 70.3499 26.6998 69.8249 25.5998C68.9999 23.8498 68.8749 23.6998 68.7999 24.3498C68.6749 25.2748 69.3499 27.3498 70.2749 28.7748C70.6749 29.3998 70.9999 30.0498 70.9999 30.1998C70.9999 30.9998 68.8499 31.1748 66.1999 30.5998C65.3999 30.4248 65.0999 30.8748 65.3499 31.8498C65.6499 33.0998 69.5249 33.7248 71.3999 32.8498ZM91.0499 31.1998C92.7499 30.2498 92.7499 30.1998 90.9999 26.6748C90.1499 24.9248 89.3999 23.4998 89.3249 23.4998C88.9749 23.4998 89.5249 26.3248 90.1249 27.6248C90.8499 29.2248 90.7499 29.4748 89.3749 29.5248C88.3999 29.5498 86.9499 29.7248 86.5749 29.8748C86.0249 30.0748 86.2249 30.9498 86.9499 31.4998C87.4999 31.9498 87.8249 32.0248 88.8249 31.8998C89.4999 31.8248 90.4999 31.4998 91.0499 31.1998ZM58.5999 21.9248C58.8749 21.3498 59.6749 20.2998 60.3499 19.5998C61.8249 18.1498 63.2749 17.6248 65.2499 17.7998C66.2999 17.8998 66.5249 17.8498 66.6249 17.4748C66.9749 16.4248 65.5249 15.2498 63.9499 15.2498C61.8999 15.2498 58.9499 17.4748 57.8499 19.8248C57.1999 21.2498 57.1249 21.7998 57.4999 22.5248C57.8749 23.2248 58.0749 23.1248 58.5999 21.9248Z" fill="#F1D8B9"/>
<path d="M66.7499 125.1C66.3999 125.05 65.2749 124.875 64.2499 124.725C61.9499 124.4 59.1999 123.75 58.8999 123.475C58.3749 123 56.1499 114.825 55.0249 109.2C54.1999 105.175 53.0499 97.4001 52.9499 95.2501L52.8749 93.9001L53.9999 93.7001C60.5249 92.5251 70.0749 91.9501 74.8749 92.4751C76.3999 92.6501 77.7749 92.9251 77.9249 93.0751C78.2249 93.3751 78.6749 99.3001 79.2499 111C79.5249 116.6 79.9499 122.25 80.1499 123.275C80.2999 123.9 80.2249 123.95 78.6749 124.325C75.6749 125.075 69.4249 125.475 66.7499 125.1ZM80.9249 115.85C80.8249 114.075 80.7499 111.9 80.7499 110.975V109.35L82.0749 109.075C82.7749 108.925 83.4249 108.85 83.4749 108.875C83.6499 109.05 84.9749 116.425 84.9999 117.325C84.9999 118.4 84.5249 118.7 82.3499 118.925L81.0749 119.05L80.9249 115.85ZM97.9499 105.075C97.4249 105.025 96.9999 104.875 96.9999 104.725C96.9999 104.6 97.0499 104.5 97.0999 104.5C97.2249 104.5 100.6 103.825 101.475 103.6C101.95 103.5 102 103.4 101.775 103.175C101.55 102.95 100.25 102.9 97.1749 102.95L92.8499 103L92.4249 98.9501C92.1749 96.7001 91.8249 94.2501 91.6249 93.5001L91.2499 92.1251L91.9249 91.5751C92.2999 91.2501 93.9249 90.5501 95.4999 89.9751C97.0749 89.4001 98.9249 88.6501 99.5749 88.3251C101.425 87.4001 103.275 88.0751 104.25 90.0001C104.95 91.3501 106.5 97.5501 106.5 98.9501C106.5 101.75 104.975 104.175 102.875 104.7C101.625 105.025 99.1499 105.2 97.9499 105.075ZM102.45 98.8751C102.375 98.8001 101.425 98.5751 100.35 98.3501C97.9749 97.9001 95.2499 98.1251 95.2499 98.7751C95.2499 98.9001 96.8999 99.0001 98.9249 99.0001C100.925 99.0001 102.525 98.9501 102.45 98.8751ZM101.5 95.5001C101.925 95.2501 99.9749 94.9001 98.1249 94.8751C96.8249 94.8751 95.2499 95.3751 95.2499 95.8251C95.2499 96.1001 100.9 95.8251 101.5 95.5001ZM96.5249 93.5001C97.4036 93.0092 98.2956 92.5424 99.1999 92.1001C99.9249 91.7501 100.475 91.4001 100.425 91.3501C100.375 91.2751 99.4999 91.4001 98.4749 91.6001C96.6999 91.9751 93.9999 93.4251 93.9999 94.0001C93.9999 94.4751 95.1999 94.2501 96.5249 93.5001ZM87.8749 102.825C87.7999 102.025 87.4499 99.6251 87.0999 97.5001C86.7749 95.3751 86.4999 93.3251 86.4999 92.9501C86.4999 92.2751 86.5499 92.2501 87.7749 92.2501C89.0249 92.2501 89.0249 92.2501 89.5249 93.3751C90.2499 95.0251 90.7249 97.4751 90.8999 100.65L91.0749 103.4L89.7499 103.825C89.0249 104.05 88.3499 104.25 88.2499 104.25C88.1499 104.25 87.9749 103.6 87.8749 102.825ZM78.9499 86.0001C78.4499 84.9751 77.4749 82.8001 76.7499 81.2001C76.0499 79.6001 74.9499 77.5251 74.3499 76.6001C73.7499 75.6751 73.2499 74.8751 73.2499 74.8001C73.2499 74.4501 74.0749 73.8001 74.3749 73.9001C74.5499 73.9751 75.0999 73.8501 75.6249 73.6501C76.9749 73.0751 77.7249 73.1501 78.9999 74.0001C79.6249 74.4001 80.3749 74.7501 80.6999 74.7501C81.2499 74.7501 81.2499 74.7751 81.1249 77.5751C80.9249 81.5001 80.4999 85.2501 80.1249 86.6751L79.7999 87.8751L78.9499 86.0001ZM79.7749 81.6001C80.1999 81.0751 79.7749 80.3751 78.9999 80.3751C78.2249 80.3751 77.7999 81.0751 78.2249 81.6001C78.4249 81.8251 78.7499 82.0001 78.9999 82.0001C79.2499 82.0001 79.5749 81.8251 79.7749 81.6001ZM78.8499 77.2001C79.1749 76.6751 78.7999 75.9251 78.1999 75.8001C77.7999 75.7251 76.9999 76.3751 76.9999 76.7501C76.9999 77.1251 77.7999 77.7751 78.1999 77.7001C78.3999 77.6501 78.6999 77.4251 78.8499 77.2001ZM55.7999 67.0001C53.2749 66.1001 51.6999 64.9251 52.1249 64.2501C52.1999 64.1251 52.6249 64.1751 53.0749 64.3751C53.4999 64.5501 54.9249 64.8001 56.1999 64.9501C57.4749 65.0751 58.5749 65.2251 58.6249 65.3001C58.6749 65.3501 58.5999 65.8751 58.4499 66.4501C58.1499 67.6751 57.8499 67.7501 55.7999 67.0001ZM50.8249 61.7501C49.6749 61.0751 49.7999 60.9001 50.9499 61.5501C52.0999 62.2251 52.1499 62.2501 51.8499 62.2501C51.7249 62.2501 51.2499 62.0251 50.8249 61.7501ZM47.3499 57.4751C46.9999 56.7751 46.7499 56.1501 46.7999 56.1001C46.8499 56.0501 47.1999 56.6251 47.5749 57.3751C47.9499 58.1251 48.1999 58.7501 48.1249 58.7501C48.0499 58.7501 47.7249 58.1751 47.3499 57.4751ZM44.4999 47.9751C44.4999 47.7751 44.8249 47.4001 45.1999 47.1501L45.8749 46.6751L45.2499 47.4001C44.8999 47.8001 44.5999 48.1751 44.5749 48.2251C44.5249 48.2751 44.4999 48.1751 44.4999 47.9751ZM35.5749 37.6251C35.5749 37.0751 35.6249 36.8751 35.6749 37.2001C35.7249 37.5001 35.7249 37.9501 35.6749 38.2001C35.5999 38.4251 35.5499 38.1751 35.5749 37.6251ZM37.2499 33.3751C37.7249 32.9001 38.1499 32.5001 38.2249 32.5001C38.2999 32.5001 37.9749 32.9001 37.4999 33.3751C37.0249 33.8501 36.5999 34.2501 36.5249 34.2501C36.4499 34.2501 36.7749 33.8501 37.2499 33.3751ZM43.5749 33.1751C43.4749 33.0001 43.0999 32.6501 42.7499 32.4251C42.4249 32.2001 42.2249 32.0001 42.3249 32.0001C42.6749 32.0001 43.6999 32.7751 43.8499 33.1501C44.0249 33.6001 43.8499 33.6001 43.5749 33.1751ZM40.4499 31.8251C40.7499 31.7751 41.1999 31.7751 41.4499 31.8251C41.6749 31.9001 41.4249 31.9501 40.8749 31.9251C40.3249 31.9251 40.1249 31.8751 40.4499 31.8251ZM37.3749 28.3501C37.1249 26.1501 37.3749 23.2001 37.8999 21.6251C38.7249 19.2501 41.9249 16.9001 45.4749 16.1001C46.4749 15.8751 47.3249 15.7501 47.3749 15.8001C47.4499 15.8501 47.5249 16.1501 47.5499 16.4751C47.6249 16.9751 47.4499 17.1001 45.7999 17.5251C43.3499 18.1501 41.6999 19.0751 40.2499 20.6751C38.5499 22.5501 37.9249 24.2501 37.8749 27.3001C37.8499 28.6501 37.7749 29.8001 37.6999 29.9001C37.5999 29.9751 37.4749 29.2751 37.3749 28.3501ZM58.1749 18.6251C58.4749 18.2251 59.0749 17.5501 59.5249 17.1251C60.1499 16.5751 60.0749 16.7001 59.2749 17.6251C57.7999 19.3001 57.5749 19.5001 58.1749 18.6251ZM41.4999 14.8751C41.4999 14.5001 42.7249 12.9001 43.9249 11.6751C46.2499 9.3251 49.5999 7.2751 53.4749 5.9001C54.7499 5.4251 55.3999 5.3001 55.5999 5.5001C56.0249 5.9251 55.4999 6.3001 52.3499 7.8251C49.7499 9.0751 47.5999 10.6001 45.7499 12.5001C44.8499 13.4251 43.8999 14.2501 43.6249 14.3251C43.3499 14.4001 42.7499 14.5751 42.3249 14.7001C41.8749 14.8501 41.4999 14.9251 41.4999 14.8751ZM88.2499 13.7501C88.0999 13.4751 88.0749 13.2501 88.1749 13.2501C88.2999 13.2501 88.5249 13.4751 88.6999 13.7501C88.8749 14.0251 88.8999 14.2501 88.7499 14.2501C88.6249 14.2501 88.3999 14.0251 88.2499 13.7501ZM52.1249 11.0001C53.0749 10.0501 53.9249 9.2501 53.9749 9.2501C54.0499 9.2501 53.3249 10.0501 52.3749 11.0001C51.4249 11.9751 50.5749 12.7501 50.5249 12.7501C50.4499 12.7501 51.1749 11.9751 52.1249 11.0001ZM54.3499 9.0501C54.5499 8.7251 55.9999 7.6501 55.9999 7.8251C55.9999 7.9001 55.5749 8.2501 55.0749 8.6501C54.5749 9.0251 54.2499 9.2251 54.3499 9.0501ZM79.4999 5.8751C79.1499 5.6751 78.9999 5.5251 79.1249 5.5251C79.2749 5.5251 79.6499 5.6751 79.9999 5.8751C80.3499 6.0751 80.5249 6.2251 80.3749 6.2251C80.2499 6.2251 79.8499 6.0751 79.4999 5.8751ZM59.9999 5.3751C59.9999 5.2001 62.0249 4.2001 62.1499 4.3001C62.1999 4.3751 61.7249 4.6501 61.1249 4.9501C60.4999 5.2501 59.9999 5.4501 59.9999 5.3751ZM67.6999 3.0751C67.9999 3.0251 68.4999 3.0251 68.8249 3.0751C69.1249 3.1251 68.8749 3.1751 68.2499 3.1751C67.6249 3.1751 67.3749 3.1251 67.6999 3.0751Z" fill="#F6F5F5"/>
</svg>
