<svg width="128" height="128" viewBox="0 0 128 128" fill="none" xmlns="http://www.w3.org/2000/svg">
<path d="M65.1249 127.8C62.7119 127.575 59.7869 127.075 58.3379 126.625L57.5249 126.375L56.7499 124.212C56.3249 123.038 55.4999 120.462 54.9129 118.5C54.3249 116.538 53.7249 114.513 53.5749 114L53.2879 113.062L52.3629 113.1C50.6499 113.175 48.1629 112.738 46.1879 112.013C44.7249 111.475 43.4499 110.913 40.9999 109.7C39.7999 109.112 38.1499 108.362 37.3499 108.05C34.4879 106.925 34.3999 106.787 34.2379 102.775C34.1879 101.212 34.0999 99.4749 34.0499 98.9119L33.9629 97.8749L32.7499 96.7499C31.2879 95.3999 29.1249 93.0249 27.7249 91.2369C21.6879 83.4869 18.1499 73.8249 17.7749 64.0999C17.5129 57.2869 18.3999 51.4869 20.6999 45.1749C23.1629 38.3619 27.6879 31.6119 33.0499 26.7499L34.5879 25.3619L34.6629 24.2749C34.8249 22.0249 35.4629 19.6499 36.2629 18.2869C36.7999 17.3749 37.8999 16.2749 38.6629 15.8749C39.1749 15.5999 39.2749 15.4869 39.4379 14.9369C39.7129 13.9869 40.5249 12.3999 41.1749 11.5369C42.2129 10.1619 44.2499 8.51187 46.5629 7.16187C48.8249 5.84987 51.9249 4.14987 52.9379 3.67487C54.8249 2.77487 59.6999 1.02487 59.8499 1.18687C59.8879 1.22487 59.9749 1.19987 60.0499 1.13687C60.4629 0.799874 64.2749 0.274874 66.9999 0.174874C73.1129 -0.0501261 79.1749 1.38687 82.9499 3.93687C85.6129 5.76187 89.4629 9.66187 91.4379 12.5619C93.4379 15.4869 94.7249 20.1119 95.3249 26.4369L95.3999 27.3119L96.8629 28.8249C98.2999 30.2999 100.075 32.4369 101.338 34.2119C102.2 35.4119 103.75 37.8869 103.75 38.0749C103.75 38.1619 103.8 38.2499 103.85 38.2749C104.1 38.3619 106.538 43.3369 106.675 43.9999C106.7 44.0999 106.825 44.4499 106.963 44.7619C107.113 45.0749 107.45 46.0369 107.725 46.8869C110.538 55.5249 110.875 64.7999 108.688 73.5249C107.863 76.8249 106.838 79.6369 105.35 82.7499C104.888 83.7369 104.45 84.5869 104.4 84.6249C104.35 84.6619 104.163 84.9869 103.975 85.3369L103.625 85.9999L104.138 86.2499C105.425 86.9119 106.275 88.3249 107.463 91.8119C108.45 94.6999 108.763 95.9999 108.838 97.4369C108.988 100.462 107.95 103.7 106.325 105.325C105.675 105.962 105.438 106.112 104.688 106.337C104.213 106.487 103.425 106.675 102.938 106.75C101.675 106.962 98.8629 106.925 97.2879 106.687C95.8129 106.45 95.4999 106.275 95.0499 105.412L94.8129 104.975L93.0629 105.05C91.3249 105.112 90.4499 105.275 89.1129 105.762L88.3999 106.025L88.3249 106.65C88.2129 107.437 87.8129 107.875 86.8999 108.2C86.3249 108.4 86.2379 108.487 86.1749 108.85C85.9999 109.762 86.2249 111.812 86.7249 114.063C87.3749 116.9 87.4749 117.963 87.1999 118.913C86.8379 120.15 85.8629 120.813 83.6249 121.313L82.4379 121.575L82.3999 122.013C82.3749 122.25 82.4129 122.963 82.4879 123.613C82.6249 124.763 82.6249 124.787 82.3129 125.325C81.1999 127.225 78.6749 127.75 70.3129 127.812C67.7749 127.825 65.4379 127.825 65.1249 127.8ZM72.4119 125.362C72.7369 125.288 73.2619 125.25 73.5619 125.288C73.8749 125.312 74.1249 125.3 74.1249 125.238C74.1249 125.175 74.3619 125.125 74.6619 125.125C75.9499 125.125 80.2249 124.213 80.3369 123.913C80.3749 123.825 80.3119 123.163 80.1999 122.463C79.8869 120.487 79.7619 118.825 79.5619 113.563C79.4619 110.887 79.2869 107.737 79.1869 106.563C79.0869 105.4 78.8869 102.325 78.7499 99.7499C78.4619 94.3369 78.3119 92.9119 78.0119 92.8249C77.8999 92.7869 77.2499 92.6749 76.5619 92.5749C71.2749 91.7749 63.2619 92.0999 55.1869 93.4369C52.5999 93.8619 52.7869 93.7999 52.7249 94.3249C52.6999 94.5619 52.7119 94.7869 52.7499 94.8119C52.8619 94.8869 53.1619 97.6999 53.0749 97.8499C53.0369 97.9249 53.0499 97.9999 53.1249 98.0249C53.1869 98.0369 53.2749 98.4249 53.2999 98.8749C53.3249 99.3249 53.3999 99.7869 53.4369 99.9119C53.4869 100.025 53.4999 100.262 53.4749 100.437C53.4369 100.6 53.4499 100.762 53.4869 100.775C53.6119 100.825 54.1499 104.487 54.0619 104.625C54.0249 104.7 54.0499 104.75 54.1119 104.75C54.1869 104.75 54.2499 104.875 54.2499 105.025C54.2499 105.362 54.8869 108.737 55.3869 111.037C55.5869 111.987 55.7249 112.812 55.6869 112.887C55.6369 112.95 55.6619 113 55.7249 113C55.7869 113 55.9619 113.575 56.1249 114.287C56.4749 115.862 57.5999 119.9 58.2619 122.025L58.7619 123.625L59.4119 123.812C60.4869 124.125 62.7499 124.612 63.8499 124.775C64.4119 124.862 64.8749 124.95 64.8749 125C64.8749 125.037 65.2869 125.075 65.7749 125.087C66.2749 125.112 66.7749 125.162 66.8749 125.2C66.9749 125.25 67.4999 125.275 68.0249 125.262C68.5499 125.237 69.0629 125.275 69.1499 125.325C69.2369 125.387 69.7129 125.412 70.1879 125.4C70.6749 125.387 71.1499 125.425 71.2499 125.487C71.3499 125.562 71.5249 125.6 71.6249 125.562C71.7249 125.537 72.0879 125.45 72.4119 125.362ZM82.3249 119.125C82.8749 119.05 83.7249 118.862 84.1999 118.7L85.0619 118.413L85.0499 117.113C85.0369 115.825 84.8999 114.825 84.3119 112C84.1499 111.213 83.9619 110.15 83.8749 109.663L83.7249 108.75H83.2619C83.0119 108.75 82.4749 108.838 82.0869 108.938C81.6869 109.038 81.1869 109.125 80.9749 109.125H80.5869L80.6619 111.6C80.7869 115.775 81.0249 119.25 81.1749 119.25C81.2619 119.25 81.7749 119.188 82.3249 119.125ZM53.6249 110.137C53.6249 109.95 53.3999 108.175 53.1249 106.187C52.4499 101.35 52.0119 97.6869 51.9119 96.2749C51.8749 95.6379 51.7869 95.0869 51.7249 95.0499C51.6749 95.0129 51.6249 94.7749 51.6249 94.4999C51.6249 94.0249 51.6119 94.0249 50.9749 93.8749C50.4999 93.7499 49.6999 93.7379 48.0369 93.7999C45.8749 93.8749 45.7499 93.8749 45.7499 93.6629C45.7499 93.2629 46.1249 92.8879 46.6619 92.7379C47.8499 92.4249 48.2619 92.2249 48.3869 91.9129C48.5369 91.5129 48.4119 91.0129 48.0619 90.6249C47.9119 90.4499 47.7119 90.1879 47.6369 90.0379C47.4749 89.7249 47.4499 89.2499 47.5999 89.2499C47.6619 89.2499 48.2249 89.5749 48.8499 89.9879C50.2369 90.8749 50.7119 91.0879 50.8999 90.8999C51.0999 90.6999 51.3619 89.4249 51.4499 88.2499C51.4999 87.6249 51.4369 86.2499 51.3249 84.9369C50.9999 81.2749 51.0869 79.6749 51.6369 79.1749C51.9249 78.9119 52.2499 79.0249 52.2499 79.4119C52.2499 79.5749 52.3119 79.7619 52.3869 79.8369C52.5119 79.9619 52.3499 83.5869 52.1749 84.3749C52.1369 84.5369 52.1119 85.7869 52.1119 87.1499C52.1249 89.5119 52.2119 90.3869 52.5249 91.1619L52.6619 91.5119L53.6749 91.4369C54.2369 91.3999 55.6119 91.2499 56.7499 91.1249C57.8869 90.9869 59.1749 90.8499 59.6249 90.8249C60.0749 90.7869 61.2499 90.6749 62.2499 90.5749C63.2499 90.4749 64.1499 90.3999 64.2499 90.3999C64.3499 90.3999 65.2879 90.3369 66.3129 90.2619C67.7999 90.1499 72.9869 89.8749 73.7249 89.8749C74.0629 89.8749 73.8499 89.5369 73.4119 89.3869C71.5869 88.7369 65.1619 85.6249 64.0619 84.8749C62.9499 84.1119 62.9119 83.2749 63.9249 81.8999C64.5999 80.9999 64.8749 80.4749 64.8749 80.1249C64.8749 79.8119 64.7999 79.8119 64.0619 80.1369C62.8119 80.6869 61.9249 80.2119 61.1249 78.5869C60.5879 77.4749 59.1369 72.5999 58.8619 70.9869L58.7119 70.0369L55.7369 68.5619C51.0369 66.2379 49.8499 65.3999 47.7119 62.9379C47.1749 62.3249 46.5369 61.6619 46.2999 61.4749L45.8619 61.1499L44.7619 61.6249C41.0999 63.2119 37.3499 65.4999 32.5369 69.0999L29.9999 70.9869L30.3749 71.8129C30.5749 72.2629 30.7119 72.6249 30.6749 72.6249C30.6499 72.6249 30.6999 72.7499 30.7999 72.9119C31.5749 74.1119 33.4749 80.1999 34.4369 84.5749C34.8619 86.5119 35.5249 90.1369 35.4869 90.3369C35.4749 90.3869 35.4999 90.5369 35.5619 90.6619C35.6119 90.7749 35.6249 91.0119 35.5999 91.1869C35.5619 91.3499 35.5749 91.5129 35.6119 91.5249C35.8119 91.6119 36.4499 98.2249 36.5619 101.312C36.6749 104.088 36.6879 104.2 37.1379 104.388C37.3499 104.462 37.5879 104.6 37.6629 104.688C37.8879 104.9 42.3999 107.25 44.1379 108.062C46.8499 109.312 50.0499 110.275 52.1879 110.462C52.5999 110.5 52.9499 110.538 52.9749 110.562C52.9879 110.575 53.1499 110.562 53.3129 110.525C53.5499 110.488 53.6249 110.387 53.6249 110.137ZM82.9999 106.688C85.5369 106.238 85.2999 106.401 85.2119 105.264C85.1619 104.738 85.0499 103.214 84.9369 101.876C84.6499 98.1879 84.3749 95.4639 84.2499 95.1879C84.1508 94.8596 84.0713 94.5256 84.0119 94.1879C83.9369 93.7759 83.8119 93.2139 83.7369 92.9509L83.5999 92.4639L82.3999 92.5389C81.7249 92.5759 80.8499 92.6889 80.4499 92.7759L79.7119 92.9389L79.7999 96.1889C79.8749 99.1629 80.1499 104.313 80.3249 106.226C80.3999 107.001 80.3999 107.001 80.7999 107.001C81.0119 107.001 82.0119 106.863 82.9999 106.688ZM100.75 105.226C100.75 105.163 100.937 105.126 101.162 105.126C101.75 105.126 103.175 104.801 103.7 104.551C105.387 103.751 106.625 101.488 106.625 99.2009C106.625 97.2879 105.062 91.1759 104.2 89.7009C103.575 88.6259 102.187 87.7629 101.087 87.7509C100.625 87.7509 100.237 87.8889 99.2749 88.3639C98.6119 88.6879 97.1369 89.2879 95.9999 89.6759C93.6119 90.5139 92.0619 91.2259 91.5619 91.7509L91.2119 92.1129L91.4749 93.2759C91.8619 94.9509 92.0999 96.5379 92.4369 99.9379C92.6119 101.588 92.7499 102.988 92.7499 103.051C92.7499 103.126 93.7869 103.126 95.3499 103.051C96.7749 102.988 98.5249 102.938 99.2499 102.951C100.65 102.951 102.175 103.201 101.862 103.376C101.762 103.426 100.787 103.651 99.6869 103.876C98.5869 104.088 97.4369 104.388 97.1249 104.526L96.5619 104.776L96.9369 104.951C97.1499 105.038 97.4369 105.113 97.5869 105.126C97.7369 105.126 97.8869 105.163 97.9119 105.226C97.9499 105.276 98.5999 105.313 99.3619 105.313C100.125 105.313 100.75 105.276 100.75 105.226ZM88.8119 104.251C89.0869 104.214 89.7249 104.039 90.2249 103.876L91.1249 103.576V102.138C91.1249 100.751 90.7749 97.4139 90.4869 96.1509C90.2499 95.0259 89.8499 93.8139 89.4749 92.9759L89.0869 92.1259H86.3749V92.4759C86.3749 92.8889 86.6119 94.6889 87.0749 97.6639C87.2499 98.8259 87.3619 99.8009 87.3249 99.8389C87.2869 99.8889 87.3119 99.9889 87.3869 100.076C87.4619 100.163 87.5499 100.651 87.5869 101.151C87.6119 101.651 87.7119 102.613 87.7869 103.289C87.8999 104.326 87.9499 104.501 88.1119 104.426C88.2249 104.376 88.5379 104.301 88.8119 104.251ZM33.4499 92.1619C32.8619 87.5369 32.1749 84.6999 30.8119 81.1869C29.9999 79.0869 28.3619 74.5499 27.8749 73.0629C27.5999 72.2249 27.4499 71.4629 27.4119 70.7499C27.2999 68.9749 27.7119 68.4499 30.1749 67.1749C31.1039 66.6873 32.0053 66.1488 32.8749 65.5619C34.3119 64.5749 36.1869 63.4379 39.4369 61.5619C43.2869 59.3379 43.9369 58.9499 44.3619 58.5499C44.7499 58.1999 44.7869 58.0999 44.7749 57.5499C44.7619 56.7999 44.5749 56.3379 43.7499 55.0119C42.7619 53.4249 42.1249 51.6619 41.8999 49.9499L41.8119 49.2249L40.8749 48.9369C39.1369 48.4249 38.0999 47.8119 36.8869 46.6119C33.3869 43.1249 32.1249 35.2999 34.4999 31.8249C34.9249 31.1999 34.9999 30.9999 34.9999 30.4499C34.9999 29.5999 34.8749 28.8749 34.7249 28.8749C34.6619 28.8749 34.0249 29.4619 33.3119 30.1749C27.2899 36.2745 23.1467 43.9755 21.3749 52.3619C20.6369 55.8369 20.4499 57.6999 20.4499 61.7499C20.4369 65.4999 20.5119 66.4749 21.0119 69.5619C22.1869 76.6619 25.3119 83.7999 29.7749 89.5369C30.8999 90.9869 33.4999 93.9119 33.5869 93.8249C33.6249 93.7999 33.5619 93.0499 33.4499 92.1619ZM82.6869 89.7249C82.8999 89.6619 84.0499 89.5619 85.2499 89.4999C87.8619 89.3619 88.8619 89.1379 89.3249 88.5999C89.7749 88.0499 89.9619 87.6499 91.2499 84.4379C93.8499 77.9249 95.9999 70.4379 95.9999 67.8619C95.9999 66.3619 95.7249 65.9499 93.4999 64.1619C92.9869 63.7499 91.4749 62.3619 90.1369 61.0749C88.8119 59.7999 87.6749 58.7499 87.6249 58.7499C87.5749 58.7499 87.2869 58.9869 86.9869 59.2869C86.6869 59.5749 85.9869 60.1749 85.4499 60.6249C84.8999 61.0749 84.4369 61.4999 84.4119 61.5869C84.3619 61.7369 84.6749 61.7369 84.8249 61.5869C84.8749 61.5369 85.2119 61.4999 85.5619 61.4999C86.0869 61.4999 86.3119 61.5749 86.7119 61.8619C87.2249 62.2369 87.8249 62.9619 87.7119 63.0749C87.6749 63.1119 87.8119 63.4999 87.9999 63.9249C89.0249 66.1749 89.1119 70.9619 88.1749 73.1999C88.0749 73.4249 87.9999 73.7369 87.9999 73.8999C87.9999 74.2249 88.5499 75.0619 89.0249 75.4749C89.2119 75.6249 89.3999 75.8749 89.4369 76.0119C89.5369 76.3119 88.7619 77.6999 85.3749 83.2499C82.2749 88.3369 81.3749 89.8619 81.3749 90.0749C81.3749 90.2249 81.4499 90.2249 81.8499 90.0499C82.0999 89.9369 82.4869 89.7999 82.6869 89.7249ZM77.9999 88.5129C77.9999 88.3249 75.6369 82.8629 74.8749 81.3129C73.6619 78.8129 71.8249 75.9629 71.5119 76.0749C71.4249 76.0999 70.6369 76.6249 69.7749 77.2249C67.2249 78.9869 65.8999 80.4749 65.3119 82.2379C65.1999 82.5999 65.1249 82.9119 65.1369 82.9249C65.3499 83.0999 68.6749 84.8379 70.0869 85.4999C71.0619 85.9629 71.8249 86.3869 71.7749 86.4379C71.7249 86.4999 71.7499 86.4999 71.8249 86.4619C71.9119 86.4119 72.5249 86.6119 73.1999 86.8999C74.3369 87.3749 77.6869 88.5999 77.9119 88.6119C77.9619 88.6249 77.9999 88.5749 77.9999 88.5119V88.5129ZM81.8999 87.1249C83.1619 85.3499 84.0749 83.8999 86.3369 80.0749C87.8249 77.5369 88.2119 76.7869 88.1249 76.6119C87.8619 76.1369 86.7749 75.1869 86.1249 74.8869C85.5499 74.6119 85.2619 74.5619 84.3749 74.5619C83.6749 74.5619 83.1869 74.6249 82.9369 74.7499L82.5619 74.9369L82.4119 77.2499C82.1499 81.4619 81.6999 84.8499 81.0619 87.2999C80.8869 87.9619 80.7499 88.5369 80.7499 88.5869C80.7499 88.7119 80.8619 88.5619 81.8999 87.1249ZM93.3869 87.7369C96.0369 86.5369 98.3119 85.8119 100.275 85.5619L100.862 85.4869L101.5 84.3749C108.775 71.6619 109.4 55.6869 103.125 42.5499C101.2 38.5119 99.0369 35.2499 95.9499 31.6999L95.5249 31.1999L95.4619 32.0119C95.4249 32.4499 95.3379 33.7749 95.2619 34.9369C94.9749 39.5369 94.0619 44.2749 92.5999 48.8119C92.0999 50.3499 91.8749 50.8499 90.1999 54.0369C89.3369 55.6869 89.3129 55.9999 89.9879 56.8369C90.4999 57.4869 90.8499 57.8119 94.7499 61.2119C98.1379 64.1749 98.4999 64.6619 98.4999 66.2499C98.4764 66.8806 98.3971 67.5081 98.2629 68.1249C97.6629 70.5619 93.3629 83.9249 92.0249 87.4749C91.8129 88.0369 91.6629 88.4999 91.6749 88.4999C91.6999 88.4999 92.4629 88.1619 93.3879 87.7369H93.3869ZM80.2369 86.9119C80.7499 84.7999 80.9999 82.4499 81.1869 78.3119C81.2249 77.4249 81.2869 76.2619 81.3249 75.7369L81.3999 74.7999L80.6999 74.6369C80.2619 74.5369 79.6249 74.2369 78.9499 73.7999C77.5869 72.9119 77.2999 72.8619 76.1119 73.3749C75.4119 73.6619 75.0369 73.7619 74.5749 73.7369C73.9869 73.6999 73.9369 73.7249 73.4999 74.2369L73.0369 74.7749L73.6999 75.7119C74.0749 76.2369 74.6869 77.2119 75.0749 77.8749C75.7619 79.0999 77.5749 83.0119 77.6499 83.4499C77.6749 83.5869 77.7249 83.7119 77.7619 83.7499C77.8749 83.8499 79.3999 87.1619 79.4119 87.3499C79.4119 87.4249 79.4749 87.4999 79.5369 87.4999C79.6119 87.4999 79.6369 87.5369 79.5869 87.5749C79.5119 87.6499 79.7499 87.9869 79.8869 87.9999C79.9369 87.9999 80.0869 87.5119 80.2369 86.9119ZM65.1869 77.9369C67.4499 77.1619 68.7749 76.3869 70.9999 74.5369C71.5406 74.0757 72.0907 73.6255 72.6499 73.1869C72.9369 72.9619 72.9869 72.8369 73.0249 72.0619L73.0619 71.1869L72.3119 70.8869C71.7849 70.6913 71.2409 70.545 70.6869 70.4499C70.2119 70.3619 69.8749 70.2619 69.9499 70.2249C70.0119 70.1749 70.5369 70.0249 71.1249 69.8749C72.5499 69.5129 72.8749 69.3249 72.8749 68.8999C72.8749 68.5749 72.8249 68.5379 72.1369 68.3999C71.6869 68.2999 71.0249 68.0119 70.3749 67.6249C67.4249 65.8499 62.9369 64.2999 61.7249 64.6379C60.5249 64.9619 60.0999 66.2619 60.1119 69.5619C60.1249 72.0749 60.2999 72.9379 61.4369 76.0249C62.4119 78.6369 62.2369 78.4129 63.2999 78.3379C63.7869 78.3129 64.6369 78.1249 65.1869 77.9379V77.9369ZM86.8999 72.9749C87.3119 72.1869 87.4119 71.4249 87.3369 69.6499C87.2119 66.7999 86.5999 64.5619 85.7869 64.0369C85.2749 63.6999 84.2369 63.7619 83.1869 64.2119C82.6999 64.4119 81.5249 65.0869 80.5619 65.6999C79.5999 66.3249 78.6749 66.9119 78.4999 66.9999C78.3249 67.0869 78.1749 67.1749 78.1499 67.1869C78.1369 67.1999 78.2369 67.5869 78.3869 68.0249L78.6499 68.8499L79.4249 68.7869C79.8879 68.7499 80.4129 68.7999 80.7499 68.9119L81.3129 69.0869L80.5629 69.1869C80.1499 69.2369 79.6129 69.3619 79.3499 69.4619C78.8249 69.6749 78.7499 69.9119 78.7999 71.3619C78.8369 72.4619 78.6119 72.3249 81.2499 72.8119C82.8129 73.0999 84.7499 73.3119 86.1249 73.3619C86.6499 73.3749 86.7129 73.3369 86.8999 72.9749ZM76.4249 71.6369C77.5869 70.9869 77.4869 68.7499 76.2749 68.1749C75.7619 67.9369 74.9869 67.9999 74.3999 68.3369C74.1119 68.4999 74.0119 68.6619 73.9619 68.9999C73.9119 69.4619 74.2869 71.5999 74.4619 71.7619C74.7369 72.0249 75.8619 71.9619 76.4249 71.6369ZM58.5369 66.7749C58.8249 65.4369 58.8119 65.1499 58.4749 65.0619C57.7096 64.9702 56.9428 64.8912 56.1749 64.8249C54.8249 64.6999 53.9249 64.5499 53.4249 64.3749C52.2999 63.9749 52.1999 63.9749 52.1499 64.5119C52.1249 64.8869 52.1869 65.0369 52.4999 65.3619C53.2499 66.1119 55.1369 66.9999 57.0619 67.4999C58.3619 67.8499 58.2999 67.8869 58.5369 66.7749ZM77.9119 65.4249C78.7499 64.7619 79.5119 64.1869 79.5869 64.1619C79.6749 64.1249 79.7499 64.0619 79.7499 63.9999C79.7499 63.8749 78.6369 64.0619 76.6869 64.4999C74.2619 65.0619 73.0619 65.1869 71.9749 64.9999C70.2499 64.7119 70.0749 64.8249 71.1249 65.5249C72.2749 66.2869 73.4499 66.6119 75.0369 66.6249H76.3749L77.9119 65.4249ZM59.8499 63.3119C60.5999 62.5499 61.9249 62.3119 64.1249 62.5369C64.7619 62.5999 64.9749 62.5869 64.7749 62.4999C62.3999 61.4749 57.0869 56.0619 55.6499 53.1749C55.2369 52.3619 54.8249 51.0749 54.8999 50.8499C54.9249 50.7749 55.4749 51.4369 56.1249 52.3249C60.2749 58.0119 63.6369 60.7869 68.3119 62.3499C71.0619 63.2619 74.1999 63.1369 77.7379 61.9369C80.4379 61.0369 83.8879 59.0249 85.1249 57.6499C85.9879 56.6999 88.5999 52.7999 89.4499 51.1999C91.3749 47.5499 92.6869 43.2499 93.3879 38.3119C93.7119 35.9749 93.8379 30.8999 93.6379 27.4999C93.3119 21.8869 92.8619 20.2119 91.1879 18.5499C89.2999 16.6749 86.7379 16.0249 84.8999 16.9499C84.5749 17.1119 84.2999 17.2499 84.2869 17.2499C84.1629 17.2499 84.2869 16.3999 84.4499 16.0499C85.0869 14.6999 86.8119 14.0619 88.7879 14.4249L89.3999 14.5369L89.2249 14.2119C88.8999 13.5869 85.8379 9.86187 84.8379 8.86187C83.4999 7.53687 82.6629 6.91187 81.1629 6.14987C78.0879 4.57487 74.3249 3.41187 70.9629 2.99987C69.4129 2.79987 65.6379 2.91187 64.4749 3.17487C62.5249 3.62487 59.5999 5.08687 56.4379 7.18687C52.9249 9.52487 50.7249 11.6869 49.4379 14.0369L48.9749 14.8749L49.2879 16.0369C49.9129 18.2749 49.8629 19.3619 48.9249 23.9619C48.4129 26.4749 48.3379 27.0119 48.3249 28.4999C48.3249 30.0869 48.3499 30.3249 48.8499 32.3249C49.4879 34.9369 49.5749 35.4999 49.3749 35.8619C49.1129 36.3619 48.0129 36.7619 46.6999 36.8369L45.5379 36.9119L45.2499 35.7499C44.5379 32.8619 43.1999 31.4999 41.1129 31.4999C38.6129 31.4999 36.5249 33.0869 35.6749 35.6249C35.3879 36.4749 35.3629 38.2249 35.6129 39.3749C35.8629 40.4999 36.5999 42.2999 37.1879 43.1869C38.2749 44.8499 39.8749 46.0119 41.3129 46.1869C42.4879 46.3369 42.9999 46.1869 44.1249 45.3749C45.0249 44.7249 45.7879 44.3749 45.9499 44.5369C46.0879 44.6749 46.1129 45.5369 45.9749 45.7869C45.8999 45.9369 45.5129 46.4249 45.1129 46.8619C44.2629 47.7869 44.1629 48.1119 44.3749 49.3999C44.8749 52.3869 46.8379 57.3619 48.5129 59.8249C49.5629 61.3869 50.9129 62.3119 53.0379 62.9249C54.3999 63.3249 56.9379 63.6869 58.6879 63.7249C59.3879 63.7499 59.4629 63.7249 59.8499 63.3119ZM45.8749 31.4619C45.8749 31.4369 45.6369 31.1999 45.3499 30.9369L44.8119 30.4369L45.3119 30.9749C45.7619 31.4619 45.8749 31.5619 45.8749 31.4619ZM41.2869 29.1619C41.0793 29.1369 40.8695 29.1369 40.6619 29.1619C40.4619 29.1869 40.5999 29.2119 40.9369 29.2119C41.2869 29.2119 41.4369 29.1869 41.2869 29.1619Z" fill="#1F1F1F"/>
<path d="M96.4378 98.8747L95.1878 98.8117L95.6878 98.5617C96.0372 98.4171 96.4098 98.3368 96.7878 98.3247C97.1118 98.3117 97.3748 98.2747 97.3748 98.2247C97.3748 98.0877 98.4748 98.0997 98.5498 98.2377C98.5868 98.2997 98.8878 98.3127 99.1998 98.2747C99.6498 98.2247 99.7628 98.2497 99.6868 98.3747C99.6248 98.4877 99.6628 98.4997 99.8498 98.4497C100.087 98.3747 102.375 98.8247 102.375 98.9497C102.375 99.0247 97.9868 98.9627 96.4368 98.8747H96.4378ZM95.5498 95.6377C95.8248 95.3377 97.0498 94.9497 97.4368 95.0497C97.5998 95.0867 97.7748 95.0747 97.8128 94.9997C97.8998 94.8617 98.5368 94.8247 98.6498 94.9497C98.6868 94.9867 99.0748 95.0367 99.5128 95.0627C99.9498 95.0867 100.625 95.1747 101 95.2627L101.688 95.4247L101.062 95.5117C99.8748 95.6997 97.5618 95.8747 96.4498 95.8747C95.3628 95.8747 95.3368 95.8617 95.5498 95.6377ZM94.2128 93.9627C95.1878 92.7127 97.2248 91.7627 99.3128 91.5627L100.063 91.4997L99.5628 91.7367C99.2868 91.8627 98.3998 92.3627 97.5868 92.8497C96.1248 93.7247 95.4128 94.0247 94.4498 94.1997L93.9498 94.2867L94.2128 93.9617V93.9627ZM78.4868 81.7747C77.9128 81.2997 78.2748 80.2497 79.0248 80.2497C79.7868 80.2497 80.1618 81.2247 79.5998 81.7497C79.2618 82.0627 78.8618 82.0747 78.4868 81.7747ZM77.5248 77.3747C77.3593 77.2122 77.2611 76.9933 77.2498 76.7617C77.2498 76.3497 77.7128 75.8747 78.1128 75.8747C78.4628 75.8747 78.9998 76.3997 78.9998 76.7497C78.9998 77.0997 78.4628 77.6247 78.0878 77.6247C77.9248 77.6247 77.6748 77.5117 77.5248 77.3747ZM73.7248 55.4497C71.6378 54.9747 70.7248 54.2747 69.0118 51.8747C68.6368 51.3627 68.0368 50.6127 67.6748 50.2247C67.2998 49.8367 66.9998 49.4627 66.9998 49.3747C66.9998 49.2247 67.5118 48.9997 67.8498 48.9997C67.9868 48.9997 68.1998 49.2747 68.4368 49.7247C69.4248 51.6247 71.4748 52.7627 74.7118 53.1867C75.6618 53.3127 77.2248 53.3747 79.4498 53.3747H82.7618L82.3618 53.9497C81.9118 54.6117 81.1868 54.9997 79.8118 55.3127C78.6248 55.5867 74.7118 55.6747 73.7248 55.4497ZM78.3748 50.5497C74.7748 50.2997 71.4628 49.1867 69.9878 47.7127C69.6118 47.3367 69.2118 46.8497 69.0878 46.6367L68.8618 46.2497L69.4118 46.4867C71.0748 47.1997 73.8868 47.6117 77.8868 47.7117L80.8498 47.7867L80.9248 48.2367C80.9618 48.4867 80.9998 49.1247 80.9998 49.6617V50.6247L79.9748 50.5997C79.3998 50.5867 78.6868 50.5617 78.3748 50.5497ZM82.2748 48.9997L82.3118 47.5867L83.4748 47.3497C84.9368 47.0627 86.0868 46.5997 88.3128 45.4247C89.2868 44.9127 90.1248 44.4997 90.1628 44.4997C90.2748 44.4997 89.5868 45.6497 88.9248 46.5747C88.2628 47.5247 86.8128 48.8747 85.9498 49.3627C85.1248 49.8377 83.9498 50.2127 82.9878 50.3247L82.2378 50.4127L82.2748 48.9997ZM75.6498 45.4377C75.1498 44.8247 74.8748 44.0117 74.8748 43.1617C74.8748 42.5247 75.1748 41.4997 75.3748 41.4997C75.4248 41.4997 75.5868 41.9747 75.7368 42.5497C75.9498 43.3247 76.1128 43.6867 76.3868 43.9497C76.7628 44.3117 76.7748 44.3117 78.3498 44.3117C79.7998 44.2997 80.0378 44.2747 81.0628 43.9117C81.6878 43.6867 83.1128 43.0867 84.2498 42.5747C86.5248 41.5247 86.6878 41.3867 86.8378 40.1367C86.9378 39.2747 86.5878 38.5997 85.2748 37.0867C82.1878 33.5247 80.8878 31.6617 79.9378 29.3997C79.1998 27.6377 78.8748 25.4617 79.3248 25.2877C79.5878 25.1877 79.8378 25.5247 79.9998 26.1877C80.5378 28.3247 83.9628 33.1617 87.4748 36.7497C88.3128 37.6127 89.0378 38.4497 89.0878 38.5997C89.1248 38.7627 89.0378 39.2997 88.8748 39.7877C88.7248 40.2877 88.5368 40.9627 88.4628 41.2877C88.3248 41.8747 88.2998 41.8997 86.9248 42.7497C83.3998 44.9127 81.1128 45.6997 77.8628 45.8367L76.0498 45.9117L75.6498 45.4377ZM39.9498 40.9747C39.3498 39.7127 39.2368 37.7627 39.6998 36.4377C39.9868 35.5997 39.9498 35.4997 39.3498 35.4997C38.9248 35.4997 38.7368 35.5747 38.3998 35.9117C37.9878 36.2997 37.9748 36.2997 38.0618 35.9997C38.2378 35.3747 38.7748 34.6127 39.2498 34.2997C39.8868 33.8747 40.5628 33.7997 41.3498 34.0497C43.1248 34.6377 44.3748 36.5117 44.3748 38.5747C44.3748 39.1747 44.3378 39.3867 44.2248 39.3497C44.1378 39.3247 43.7618 38.7367 43.4118 38.0497C42.6378 36.5877 42.4118 36.3747 41.6878 36.3747C41.2498 36.3747 41.0878 36.4377 40.8998 36.6877C40.4998 37.1877 40.3248 38.1877 40.3248 39.9617C40.3118 40.8747 40.2998 41.6247 40.2868 41.6247C40.2748 41.6247 40.1248 41.3247 39.9498 40.9747ZM67.6878 33.1747C65.7118 32.6877 64.9618 31.9867 65.3748 30.9867C65.5628 30.5617 65.7128 30.5367 67.2498 30.8117C68.7998 31.0867 70.0498 31.0617 70.7118 30.7367C71.0118 30.5997 71.2498 30.4117 71.2498 30.3367C71.2498 30.2497 71.0618 29.8747 70.8378 29.4997C69.7998 27.7617 69.0498 25.8367 68.9128 24.6247C68.8248 23.6867 68.9878 23.6617 69.3748 24.5377C70.6378 27.3747 70.8378 27.7247 71.8628 28.7997C72.9248 29.9367 73.1128 30.3377 72.9498 31.1997C72.8378 31.7497 72.0378 32.5627 71.2498 32.9117C70.8128 33.1117 70.3748 33.1747 69.3128 33.1997C68.5628 33.2247 67.8248 33.2127 67.6878 33.1747ZM87.5368 31.8627C86.9998 31.6997 86.3998 31.0747 86.2998 30.5627C86.1748 29.8627 86.1998 29.8497 88.5748 29.6247C90.0248 29.4867 90.7498 29.3117 90.7498 29.0997C90.7498 29.0247 90.5248 28.3747 90.2498 27.6377C89.5998 25.8997 89.3748 24.9747 89.3748 24.1247L89.3878 23.4377L90.5618 25.8377C91.1998 27.1627 91.9378 28.5877 92.1878 28.9877C92.5498 29.5877 92.6118 29.7877 92.5118 29.9877C92.1748 30.6127 90.7118 31.4627 89.4118 31.7997C88.5748 32.0247 88.1378 32.0367 87.5378 31.8627H87.5368ZM57.6998 22.5997C57.2618 21.9867 57.6368 20.3247 58.4618 19.0867C59.9378 16.8997 62.3618 15.3367 64.2618 15.3497C65.6498 15.3627 66.9998 16.5627 66.6498 17.4877C66.5498 17.7747 66.5118 17.7747 64.7998 17.7997C63.1378 17.8127 63.0248 17.8247 62.2498 18.1997C60.7628 18.9127 59.6498 20.0497 58.5998 21.9627C58.3248 22.4627 58.0498 22.8747 57.9998 22.8747C57.9378 22.8747 57.7998 22.7497 57.6998 22.5997Z" fill="#1F1F1F"/>
</svg>
