<svg width="128" height="128" viewBox="0 0 128 128" fill="none" xmlns="http://www.w3.org/2000/svg">
<path d="M57.9998 59.5269L28.5938 34.6369C26.9869 33.2941 25.0204 32.4537 22.9392 32.2206C20.8581 31.9875 18.7544 32.372 16.8902 33.3261C15.0261 34.2802 13.4839 35.7617 12.4558 37.5861C11.4278 39.4105 10.9593 41.4971 11.1088 43.5859C11.2592 45.6757 12.0219 47.6749 13.3017 49.3338C14.5815 50.9928 16.3216 52.238 18.3048 52.9139H18.4098L18.6868 52.9999L55.7808 64.2969C56.0468 64.3949 56.3318 64.4449 56.6168 64.4489C57.1932 64.4454 57.7528 64.2543 58.2109 63.9045C58.6691 63.5547 59.0009 63.0652 59.1562 62.5101C59.3116 61.955 59.2819 61.3645 59.0718 60.8277C58.8618 60.2909 58.4826 59.8371 57.9918 59.5349L57.9998 59.5269Z" fill="url(#paint0_linear_3_6912)"/>
<path d="M63.8948 18.438C63.9026 17.0382 63.531 15.6624 62.8194 14.4569C62.1078 13.2514 61.0829 12.2613 59.8536 11.5917C58.6243 10.9221 57.2365 10.5981 55.8378 10.6542C54.439 10.7102 53.0816 11.1442 51.9098 11.91L15.9998 33.714C14.3669 34.7775 13.0566 36.2683 12.2116 38.0243C11.3666 39.7803 11.019 41.7343 11.2068 43.674C11.395 45.6133 12.1105 47.464 13.2758 49.0254C14.4411 50.5869 16.0117 51.7994 17.8172 52.5316C19.6227 53.2638 21.5943 53.4876 23.518 53.1789C25.4417 52.8701 27.2442 52.0405 28.7298 50.78L60.9218 24.546L61.1758 24.335C62.027 23.6057 62.7107 22.7011 63.1799 21.6832C63.6492 20.6652 63.8931 19.5579 63.8948 18.437V18.438Z" fill="url(#paint1_linear_3_6912)"/>
<path d="M116.117 65.4222L61.633 12.9492C60.6464 11.9597 59.411 11.2549 58.0572 10.909C56.7034 10.5632 55.2813 10.5891 53.941 10.9842C52.6009 11.3798 51.3924 12.1298 50.4431 13.155C49.4937 14.1802 48.8386 15.4427 48.547 16.8092C48.2564 18.1766 48.3405 19.597 48.7902 20.9206C49.2399 22.2442 50.0386 23.4218 51.102 24.3292L51.199 24.4142L109.086 73.1802C109.849 73.8208 110.78 74.2302 111.768 74.3602C112.756 74.4902 113.761 74.3355 114.664 73.9142C115.567 73.4915 116.331 72.8201 116.865 71.9788C117.4 71.1375 117.684 70.1611 117.684 69.1642C117.682 68.468 117.543 67.7789 117.274 67.1367C117.005 66.4945 116.612 65.9118 116.117 65.4222Z" fill="url(#paint2_linear_3_6912)"/>
<path d="M117.688 69.184C117.695 68.2171 117.434 67.2673 116.933 66.4401C116.432 65.6129 115.712 64.9409 114.852 64.4988C113.992 64.0566 113.026 63.8617 112.062 63.9357C111.098 64.0098 110.173 64.3498 109.391 64.918L43.465 97.128C42.1499 97.7884 40.9857 98.7136 40.0454 99.8456C39.1052 100.978 38.4094 102.292 38.0017 103.706C37.5939 105.12 37.4831 106.603 37.6762 108.062C37.8694 109.521 38.3622 110.924 39.1238 112.183C39.8854 113.442 40.8992 114.53 42.1016 115.378C43.304 116.227 44.6689 116.817 46.1105 117.113C47.5521 117.408 49.0392 117.402 50.4784 117.095C51.9175 116.788 53.2776 116.186 54.473 115.328L115.433 73.484C116.13 73.0041 116.699 72.3618 117.091 71.6126C117.484 70.8634 117.689 70.0299 117.687 69.184H117.688Z" fill="url(#paint3_linear_3_6912)"/>
<path d="M42.668 42.668H85.332V85.332H42.668V42.668Z" fill="black"/>
<path d="M47.3091 77.3321H63.3091V80.0001H47.3091V77.3321ZM46.6401 53.6681L47.8281 52.5431C48.0581 52.9061 48.4451 53.1371 48.8751 53.1641C49.3281 53.1641 49.6291 52.8441 49.6291 52.2231V48.0161H51.4651V52.2381C51.4921 52.5785 51.4476 52.9207 51.3347 53.2429C51.2217 53.5651 51.0427 53.8601 50.8091 54.1091C50.5676 54.3443 50.2812 54.5284 49.9669 54.6506C49.6527 54.7728 49.3171 54.8304 48.9801 54.8201C48.5252 54.8372 48.0731 54.7409 47.6646 54.5398C47.2561 54.3387 46.904 54.0391 46.6401 53.6681ZM52.2901 48.0161H57.6451V49.5701H54.0851V50.5901H57.2811V52.0121H54.1171V53.0701H57.6721V54.6331H52.2661L52.2901 48.0161ZM60.2541 49.6291H58.2621V48.0161H64.0981V49.6291H62.1021V54.6721H60.2541V49.6291ZM47.3831 57.3001H50.5231C50.8494 57.2734 51.1776 57.3118 51.4889 57.4131C51.8001 57.5144 52.0881 57.6766 52.3361 57.8901C52.6251 58.1801 52.7811 58.5661 52.7731 58.9731C52.7772 59.2969 52.6802 59.6139 52.4955 59.8799C52.3109 60.1459 52.0479 60.3477 51.7431 60.4571C52.5231 60.6021 53.0821 61.2931 53.0631 62.0861C53.0631 63.2891 52.1331 64.0001 50.5391 64.0001H47.3831V57.3001ZM50.9371 59.3551C50.9371 58.9881 50.6371 58.7891 50.0971 58.7891H49.1801V59.9531H50.0701C50.6251 59.9531 50.9501 59.7621 50.9501 59.3791L50.9371 59.3551ZM50.2971 61.2461H49.1801V62.4761H50.3321C50.9021 62.4761 51.2151 62.2581 51.2151 61.8671C51.1991 61.4881 50.9301 61.2471 50.3121 61.2471L50.2971 61.2461ZM53.6521 57.3001H56.6051C57.3951 57.2381 58.1751 57.4921 58.7731 58.0121C59.1761 58.4261 59.3911 58.9881 59.3631 59.5621C59.3763 60.0045 59.2515 60.44 59.006 60.8082C58.7605 61.1764 58.4065 61.4591 57.9931 61.6171L59.5851 64.0001H57.4481L56.1041 61.9801H55.4871V64.0001H53.6401L53.6521 57.3001ZM56.4961 60.5001C57.1171 60.5001 57.4921 60.1951 57.4921 59.7031C57.4921 59.1721 57.1021 58.9031 56.4921 58.9031H55.5041V60.5161L56.4961 60.5001Z" fill="white"/>
<path d="M61.9299 57.2502H63.7069L66.5549 63.9652H64.5699L64.0939 62.7622H61.5119L61.0349 64.0002H59.1099L61.9299 57.2502ZM63.5499 61.3282L62.8049 59.4412L62.0509 61.3282H63.5499ZM66.8439 57.2812H68.6909V63.9412H66.8439V57.2812ZM69.3749 57.2812H71.1089L73.5079 60.8362V57.2802H75.3359V63.9402H73.7229L71.2099 60.2902V63.9422H69.3739L69.3749 57.2812ZM75.6399 62.9532L76.6639 61.7232C77.2632 62.2251 78.0153 62.5086 78.7969 62.5272C79.3049 62.5272 79.5669 62.3522 79.5669 62.0672C79.5669 61.7732 79.3519 61.6332 78.4369 61.4182C77.0119 61.0902 75.9259 60.7072 75.9259 59.3362C75.9259 58.0982 76.9059 57.2032 78.5079 57.2032C79.4967 57.1658 80.4668 57.4801 81.2459 58.0902L80.3559 59.3552C79.8174 58.9494 79.1659 58.7215 78.4919 58.7032C78.0429 58.7032 77.8239 58.8792 77.8239 59.1292C77.8239 59.4342 78.0509 59.5702 78.9839 59.7772C80.5119 60.1092 81.4569 60.6092 81.4569 61.8522C81.4569 63.2112 80.3829 63.9842 78.7699 63.9842C77.6357 64.0351 76.5222 63.6686 75.6399 62.9542V62.9532Z" fill="white"/>
<defs>
<linearGradient id="paint0_linear_3_6912" x1="23.2104" y1="43.4914" x2="58.8583" y2="60.8283" gradientUnits="userSpaceOnUse">
<stop offset="0.21" stop-color="#FE2857"/>
<stop offset="1" stop-color="#293896"/>
</linearGradient>
<linearGradient id="paint1_linear_3_6912" x1="12.3589" y1="49.6782" x2="58.9864" y2="15.0969" gradientUnits="userSpaceOnUse">
<stop stop-color="#FE2857"/>
<stop offset="0.01" stop-color="#FE2857"/>
<stop offset="0.86" stop-color="#FF318C"/>
</linearGradient>
<linearGradient id="paint2_linear_3_6912" x1="52.743" y1="15.3459" x2="113.97" y2="70.9405" gradientUnits="userSpaceOnUse">
<stop offset="0.02" stop-color="#FF318C"/>
<stop offset="0.21" stop-color="#FE2857"/>
<stop offset="0.86" stop-color="#FDB60D"/>
</linearGradient>
<linearGradient id="paint3_linear_3_6912" x1="110.549" y1="63.8577" x2="39.1608" y2="112.995" gradientUnits="userSpaceOnUse">
<stop offset="0.01" stop-color="#FDB60D"/>
<stop offset="0.86" stop-color="#FCF84A"/>
</linearGradient>
</defs>
</svg>
