<svg width="128" height="128" viewBox="0 0 128 128" fill="none" xmlns="http://www.w3.org/2000/svg">
<path d="M48.6001 61.4001C48.6001 60.9001 48.3001 60.6001 47.5001 60.6001H46.1001V62.1001H47.5001C48.2001 62.1001 48.6001 61.9001 48.6001 61.4001ZM61.6001 60.7001H63.4001L62.5001 58.5001L61.6001 60.7001ZM48.3001 58.3001C48.3001 57.8001 48.0001 57.6001 47.3001 57.6001H46.2001V59.0001H47.3001C47.9001 59.1001 48.3001 58.8001 48.3001 58.3001ZM55.0001 57.8001H53.8001V59.7001H55.0001C55.7001 59.7001 56.2001 59.3001 56.2001 58.7001C56.2001 58.1001 55.7001 57.8001 55.0001 57.8001Z" fill="black"/>
<path d="M125.9 65.5L60.7 2.7C59 1.1 56.7 0 54.1 0H54C53.6 0 53.3 0 53 0.1H52.7C51.3 0.3 50.1 0.8 49 1.6L6.7 27.2C5.5 27.8 4.4 28.7 3.5 29.7L3.3 29.9C3 30.2 2.8 30.5 2.5 30.8C2.4 30.9 2.3 31 2.3 31.1C2.1 31.5 1.8 31.8 1.6 32.2C1.6 32.3 1.5 32.3 1.5 32.3C1.3 32.7 1.1 33.2 0.9 33.6C0.9 33.7 0.8 33.8 0.8 33.9C0.7 34.2 0.6 34.6 0.5 35C0.5 35.2 0.4 35.3 0.4 35.5C0.3 35.8 0.3 36.2 0.2 36.5C0.2 36.7 0.1 36.8 0.1 37C0 37.5 0 38 0 38.5C0 38.9 0 39.3 0.1 39.7V40.1C0.1 40.4 0.2 40.6 0.2 40.9C0.2 41 0.3 41.2 0.3 41.3C0.4 41.5 0.4 41.8 0.5 42C0.5 42.1 0.6 42.3 0.6 42.4C0.7 42.6 0.8 42.9 0.9 43.1C1 43.4 1.1 43.7 1.3 44C1.4 44.1 1.4 44.3 1.5 44.4C1.6 44.6 1.7 44.8 1.9 45.1C1.9 45.2 2 45.3 2 45.3C2.2 45.5 2.3 45.8 2.5 46C4.2 48.3 6.6 50 9.5 50.8L38.4 59.6V89.5H67.9L38.9 103.7C34.6 105.9 31.9 110.3 31.9 115.1C31.9 122.2 37.6 127.9 44.7 127.9C47.5 127.9 50 127 52.1 125.5L125.2 75.4C126.8 74.3 127.9 72.4 127.9 70.2C127.9 68.3 127.1 66.7 125.9 65.5ZM38.4 43.4L32.8 38.7L54 21.4L74.1 38.4H38.4V43.4ZM59.5 46.7H57.1V44.8H64.1V46.7H61.7V52.7H59.5V46.7ZM44 55.9H47.8C48.8 55.9 49.5 56.2 50 56.6C50.3 56.9 50.5 57.4 50.5 57.9C50.5 58.8 50 59.4 49.3 59.7C50.3 60 50.9 60.6 50.9 61.6C50.9 63 49.8 63.8 47.9 63.8H44V55.9ZM49.9 52.7V44.7H56.3V46.6H52.1V47.8H55.9V49.6H52.1V50.9H56.4V52.8H49.9V52.7ZM43.1 51.6L44.5 50.3C44.9 50.8 45.3 51 45.8 51C46.3 51 46.7 50.6 46.7 49.9V44.9H48.9V50C48.9 51 48.6 51.7 48.1 52.3C47.6 52.8 46.8 53.1 45.9 53.1C44.5 52.9 43.7 52.3 43.1 51.6ZM63.1 83.1H43.9V79.9H63.1V83.1ZM56.1 63.9L54.5 61.5H53.8V63.9H51.6V55.9H55.1C56.3 55.9 57.2 56.2 57.7 56.7C58.2 57.2 58.4 57.8 58.4 58.6C58.4 59.8 57.8 60.6 56.8 61.1L58.3 63.4C58.7 62.5 61.5 55.8 61.5 55.8H63.6L67 63.9H64.6L64 62.4H60.9L60.3 63.9M69.5 63.8H67.3V55.8H69.5V63.8ZM77.5 63.8H75.6L72.6 59.5V63.8H70.4V55.8H72.5L75.4 60V55.8H77.6V63.8H77.5ZM84.8 61.4C84.8 63 83.5 64 81.6 64C80.3 64 78.9 63.6 77.9 62.7L79.1 61.2C79.9 61.8 80.8 62.2 81.7 62.2C82.3 62.2 82.6 62 82.6 61.7C82.6 61.4 82.3 61.2 81.2 60.9C79.5 60.5 78.2 60 78.2 58.4C78.2 56.9 79.4 55.8 81.3 55.8C82.7 55.8 83.7 56.2 84.6 56.9L83.5 58.5C82.8 58 82 57.7 81.2 57.7C80.7 57.7 80.4 57.9 80.4 58.2C80.4 58.6 80.7 58.7 81.8 59C83.7 59.2 84.8 59.8 84.8 61.4ZM89.5 78.9V51.3L110.3 68.8L89.5 78.9Z" fill="black"/>
</svg>
