<svg width="128" height="128" viewBox="0 0 128 128" fill="none" xmlns="http://www.w3.org/2000/svg">
<path d="M106.695 2.38721H61.5308C61.5308 13.6452 70.6448 22.7572 81.9018 22.7572H90.2108V30.7972C90.2108 42.0552 99.3238 51.1682 110.578 51.1682V6.27321C110.578 5.24309 110.169 4.25513 109.441 3.52645C108.713 2.79777 107.725 2.388 106.695 2.38721Z" fill="#788599"/>
<path d="M84.3128 24.9019H39.1528C39.1528 36.1599 48.2658 45.2729 59.5198 45.2729H67.8278V53.3129C67.8278 64.5699 76.9408 73.6829 88.1988 73.6829V28.7899C88.198 27.7594 87.7884 26.7713 87.0598 26.0426C86.3313 25.3138 85.3433 24.9039 84.3128 24.9029V24.9019Z" fill="#253858"/>
<path d="M61.9339 47.4141H16.7739C16.7739 58.6721 25.8869 67.7851 37.1409 67.7851H45.4489V75.8281C45.4489 87.0821 54.5629 96.1951 65.8199 96.1951V51.3011C65.8191 50.2706 65.4095 49.2825 64.6809 48.5538C63.9524 47.825 62.9644 47.4151 61.9339 47.4141ZM45.9959 101.242H49.4339V118.222C49.4339 122.703 47.3909 125.828 42.6479 125.828C40.8629 125.828 39.4729 125.531 38.5159 125.195V121.941C39.5589 122.363 40.8199 122.574 42.0819 122.574C44.9959 122.574 45.9959 120.887 45.9959 118.437V101.242ZM55.7419 99.9341C57.0899 99.9341 58.0469 100.734 58.0469 102.172C58.0469 103.566 57.0899 104.41 55.7419 104.41C54.3909 104.41 53.4339 103.605 53.4339 102.172C53.4339 100.777 54.3909 99.9341 55.7419 99.9341ZM54.0429 107.07H57.3519V125.66H54.0429V107.07ZM65.5269 125.66H62.3099V107.07H65.5279V110.324C66.6609 108.129 68.5709 106.566 72.3129 106.777V109.902C68.0949 109.48 65.5279 110.703 65.5279 114.676L65.5269 125.66ZM87.7539 122.324C86.5349 124.774 84.2299 126.039 81.2739 126.039C76.1839 126.039 73.6169 121.859 73.6169 116.367C73.6169 111.129 76.3169 106.691 81.6639 106.691C84.4489 106.691 86.6249 107.918 87.7539 110.324V107.07H91.0589V125.66H87.7539V122.324ZM82.1439 123.082C85.1019 123.082 87.7109 121.266 87.7109 117.125V115.648C87.7109 111.508 85.3209 109.691 82.4919 109.691C78.7929 109.691 76.8789 112.059 76.8789 116.367C76.9219 120.844 78.7499 123.082 82.1449 123.082H82.1439ZM108.862 51.0081C104.347 50.6095 100.095 48.7174 96.776 45.631C93.4573 42.5445 91.2623 38.4399 90.5379 33.9661C90.3829 33.0131 90.3279 31.3901 90.3279 27.7191V22.7601L86.5109 22.7581C78.9769 22.7541 76.3749 22.3201 72.7179 20.4561C66.4099 17.2421 62.1399 10.8521 61.6959 3.96007L61.6019 2.49707L84.5619 2.50007C107.344 2.50307 107.528 2.50607 108.165 2.79407C109.021 3.17848 109.711 3.85823 110.107 4.70907L110.445 5.42307L110.446 28.2901C110.447 46.5001 110.411 51.1531 110.269 51.1371C110.171 51.1271 109.538 51.0681 108.861 51.0071L108.862 51.0081ZM75.7729 38.6601C69.0229 32.1091 63.0829 26.3301 62.5729 25.8201L61.6449 24.8901L62.6619 24.9311L63.6789 24.9721L75.8969 36.8161L88.1159 48.6601V49.6231C88.1159 50.1531 88.0999 50.5831 88.0799 50.5791C88.0599 50.5751 82.5219 45.2111 75.7729 38.6601Z" fill="#253858"/>
<path d="M84.9772 73.35C76.8762 71.983 70.3672 65.956 68.4912 58.087C67.9852 55.965 67.8532 54.17 67.8532 49.441V45.187L62.1812 45.125C57.0612 45.069 56.3882 45.034 55.2772 44.767C51.2642 43.801 47.9852 41.997 45.2352 39.241C41.6102 35.607 39.6822 31.344 39.2482 26.007L39.1582 24.901H48.4462L68.2792 44.129L88.1102 63.358L88.1132 68.459L88.1152 73.561L87.0802 73.546C86.3755 73.5254 85.6727 73.4603 84.9762 73.351L84.9772 73.35ZM84.0502 29.454C82.5947 28.0526 81.1437 26.6466 79.6972 25.236L79.3402 24.876L82.1942 24.932C85.3712 24.994 85.9622 25.137 86.9512 26.085C87.9042 26.999 88.0352 27.437 88.0892 29.895C88.1162 31.112 88.1172 32.378 88.0912 32.71L88.0452 33.312L84.0502 29.454ZM83.4772 35.693C80.9642 33.25 77.4342 29.823 75.6312 28.076L72.3542 24.9L73.3502 24.904L74.3462 24.908L78.6262 29.068L85.5182 35.767L88.1292 38.304L88.0872 39.219L88.0452 40.134L83.4772 35.693ZM82.8002 30.109C79.9162 27.311 77.5562 24.995 77.5562 24.961C77.5562 24.928 77.9332 24.901 78.3932 24.901H79.2302L82.2822 27.851L86.7312 32.158L88.1282 33.514L88.0862 34.354L88.0452 35.196L82.8002 30.109Z" fill="#253858"/>
<path d="M82.2638 30.5801C76.5658 25.0521 76.4898 24.9711 76.9698 24.9271C77.4328 24.8831 77.6228 25.0451 80.8248 28.2091C82.6768 30.0391 85.0778 32.4011 86.1608 33.4571C87.8788 35.1341 88.1238 35.4301 88.0868 35.7831C88.0468 36.1581 87.6188 35.7751 82.2638 30.5801Z" fill="#253858"/>
</svg>
