<svg width="128" height="128" viewBox="0 0 128 128" fill="none" xmlns="http://www.w3.org/2000/svg">
<path d="M106.691 2.38721H61.5308C61.5308 13.6452 70.6448 22.7572 81.8978 22.7572H90.2068V30.7972C90.2068 42.0552 99.3198 51.1682 110.578 51.1682V6.27321C110.577 5.24273 110.167 4.25477 109.438 3.52621C108.709 2.79764 107.721 2.388 106.691 2.38721Z" fill="#2684FF"/>
<path d="M84.3128 24.9019H39.1528C39.1528 36.1599 48.2618 45.2699 59.5198 45.2699H67.8278V53.3119C67.8278 64.5699 76.9408 73.6839 88.1988 73.6839V28.7889C88.198 27.7584 87.7884 26.7703 87.0598 26.0416C86.3313 25.3128 85.3433 24.9029 84.3128 24.9019Z" fill="url(#paint0_linear_3_6913)"/>
<path d="M61.934 47.4141H16.77C16.77 58.6721 25.883 67.7851 37.14 67.7851H45.45V75.8281C45.45 87.0821 54.562 96.1951 65.82 96.1951V51.3011C65.8192 50.2706 65.4096 49.2825 64.681 48.5538C63.9525 47.825 62.9645 47.4151 61.934 47.4141Z" fill="url(#paint1_linear_3_6913)"/>
<path d="M46.0001 101.242H49.4341V118.222C49.4341 122.703 47.3911 125.828 42.6481 125.828C40.8681 125.828 39.4731 125.531 38.5161 125.195V121.941C39.5631 122.363 40.8241 122.574 42.0861 122.574C45.0001 122.574 46.0001 120.887 46.0001 118.434V101.242ZM55.7421 99.9302C57.0901 99.9302 58.0471 100.734 58.0471 102.168C58.0471 103.562 57.0901 104.41 55.7421 104.41C54.3951 104.41 53.4381 103.605 53.4381 102.168C53.4381 100.778 54.3951 99.9302 55.7421 99.9302ZM54.0471 107.07H57.3521V125.66H54.0471V107.07ZM65.5271 125.66H62.3101V107.07H65.5281V110.324C66.6611 108.125 68.5751 106.563 72.3131 106.774V109.902C68.0951 109.48 65.5281 110.703 65.5281 114.676L65.5271 125.66ZM87.7581 122.32C86.5391 124.773 84.2341 126.04 81.2731 126.04C76.1881 126.04 73.6211 121.855 73.6211 116.363C73.6211 111.125 76.3161 106.691 81.6681 106.691C84.4491 106.691 86.6251 107.914 87.7581 110.324V107.07H91.0631V125.66H87.7581V122.32ZM82.1451 123.082C85.1021 123.082 87.7111 121.266 87.7111 117.125V115.648C87.7111 111.508 85.3211 109.691 82.4921 109.691C78.7971 109.691 76.8821 112.055 76.8821 116.363C76.9261 120.843 78.7541 123.082 82.1451 123.082Z" fill="#253858"/>
<defs>
<linearGradient id="paint0_linear_3_6913" x1="87.2599" y1="24.9525" x2="68.0448" y2="44.7656" gradientUnits="userSpaceOnUse">
<stop offset="0.176" stop-color="#0052CC"/>
<stop offset="1" stop-color="#2684FF"/>
</linearGradient>
<linearGradient id="paint1_linear_3_6913" x1="66.1805" y1="47.5879" x2="43.9635" y2="69.203" gradientUnits="userSpaceOnUse">
<stop offset="0.176" stop-color="#0052CC"/>
<stop offset="1" stop-color="#2684FF"/>
</linearGradient>
</defs>
</svg>
