<svg width="128" height="128" viewBox="0 0 128 128" fill="none" xmlns="http://www.w3.org/2000/svg">
<path d="M27.7578 20.4208C20.4058 30.9858 21.3208 44.7328 26.9378 55.9608L27.3488 56.7588L27.6118 57.2648L27.7758 57.5558L28.0688 58.0798C28.2428 58.3868 28.4218 58.6918 28.6048 58.9988L28.9108 59.5028C29.1138 59.8288 29.3208 60.1528 29.5328 60.4758L29.7978 60.8848C30.0908 61.3218 30.3898 61.7568 30.6988 62.1858L30.7248 62.2188L30.8768 62.4238C31.1438 62.7918 31.4188 63.1558 31.6978 63.5168L32.0068 63.9098C32.2558 64.2228 32.5088 64.5328 32.7658 64.8438L33.0558 65.1898C33.4008 65.5958 33.7538 66.0018 34.1128 66.3978L34.1338 66.4198L34.1748 66.4648C34.5258 66.8478 34.8848 67.2228 35.2498 67.5978L35.5938 67.9448C35.8758 68.2288 36.1628 68.5078 36.4518 68.7858L36.8028 69.1198C37.1898 69.4838 37.5798 69.8418 37.9788 70.1898L37.9968 70.2058L38.2018 70.3798C38.5528 70.6848 38.9098 70.9848 39.2698 71.2818L39.7118 71.6348C40.0058 71.8698 40.3028 72.1028 40.6018 72.3308L41.0788 72.6918C41.4088 72.9348 41.7418 73.1738 42.0778 73.4088L42.4408 73.6668L42.5418 73.7388C42.8598 73.9588 43.1868 74.1698 43.5118 74.3808L43.9318 74.6608C44.4318 74.9758 44.9388 75.2888 45.4508 75.5908L45.8708 75.8278C46.2478 76.0448 46.6268 76.2588 47.0108 76.4668L47.6418 76.7928L48.4578 77.2168L48.6458 77.3078L48.9798 77.4688C49.4068 77.6728 49.8378 77.8738 50.2728 78.0678L50.5458 78.1898C51.0438 78.4078 51.5468 78.6168 52.0538 78.8178L52.4218 78.9618C52.8908 79.1438 53.3668 79.3208 53.8448 79.4888L54.0238 79.5508C54.5478 79.7348 55.0778 79.9038 55.6108 80.0708L55.9938 80.1848C56.5358 80.3488 57.0728 80.5428 57.6318 80.6468C93.1848 87.1298 103.512 59.2828 103.512 59.2828C94.8378 70.5828 79.4428 73.5628 64.8558 70.2448C64.3028 70.1198 63.7668 69.9468 63.2278 69.7888L62.8218 69.6648C62.2961 69.5044 61.7733 69.3344 61.2538 69.1548L61.0388 69.0778C60.5756 68.9137 60.1149 68.7426 59.6568 68.5648L59.2688 68.4128C58.7678 68.2148 58.2688 68.0078 57.7768 67.7928L57.4788 67.6598C57.0567 67.4701 56.637 67.275 56.2198 67.0748L55.8558 66.8998C55.5288 66.7408 55.2058 66.5718 54.8818 66.4048L54.2328 66.0638C53.8378 65.8538 53.4508 65.6338 53.0658 65.4098L52.6718 65.1908C52.1604 64.8879 51.6537 64.5772 51.1518 64.2588L50.7418 63.9858C50.3777 63.7519 50.0173 63.5122 49.6608 63.2668L49.3118 63.0218C48.9683 62.7798 48.6276 62.5337 48.2898 62.2838L47.8368 61.9408C47.5268 61.7038 47.2188 61.4648 46.9148 61.2198L46.5038 60.8898C46.1158 60.5718 45.7328 60.2498 45.3548 59.9208L45.2288 59.8158C44.8207 59.4558 44.418 59.0898 44.0208 58.7178L43.6808 58.3898C43.3863 58.1115 43.0969 57.8277 42.8128 57.5388L42.4728 57.1988C42.1108 56.8288 41.7558 56.4538 41.4078 56.0728L41.3548 56.0158C40.9869 55.6132 40.6268 55.2034 40.2748 54.7868L39.9918 54.4508C39.7284 54.1341 39.4694 53.8137 39.2148 53.4898L38.9298 53.1348C38.6248 52.7407 38.3255 52.3424 38.0318 51.9398C29.9338 40.8928 27.0238 25.6568 33.4968 13.1448M50.5778 11.5188C45.2618 19.1688 45.5498 29.4118 49.6978 37.5018C50.3918 38.8618 51.1773 40.1731 52.0488 41.4268C52.8448 42.5698 53.7288 43.9278 54.7858 44.8448C55.1688 45.2668 55.5698 45.6788 55.9788 46.0828L56.2928 46.3938C56.6898 46.7788 57.0938 47.1578 57.5108 47.5258L57.5608 47.5688L57.5728 47.5808C58.0348 47.9858 58.5118 48.3748 58.9958 48.7588L59.3188 49.0108C59.8048 49.3828 60.2998 49.7488 60.8078 50.0978L60.8508 50.1308L61.5308 50.5778L61.8528 50.7908C62.2158 51.0238 62.5828 51.2498 62.9568 51.4668L63.1128 51.5588C63.4348 51.7438 63.7608 51.9258 64.0878 52.1038L64.4348 52.2838L65.1168 52.6378L65.2198 52.6848C65.6888 52.9148 66.1608 53.1378 66.6438 53.3478L66.9578 53.4778C67.3438 53.6408 67.7328 53.8008 68.1248 53.9508L68.6248 54.1348C68.9808 54.2668 69.3368 54.3878 69.6968 54.5078L70.1808 54.6628C70.6918 54.8208 71.1978 55.0218 71.7298 55.1108C99.1798 59.6578 105.517 38.5228 105.517 38.5228C99.8048 46.7508 88.7418 50.6758 76.9368 47.6118C76.4151 47.4742 75.8966 47.3245 75.3818 47.1628L74.9148 47.0118C74.55 46.8943 74.1876 46.7696 73.8278 46.6378L73.3368 46.4548C72.9439 46.3035 72.5536 46.1458 72.1658 45.9818L71.8508 45.8488C71.3682 45.6383 70.8907 45.4163 70.4188 45.1828L69.7008 44.8178L69.2868 44.6048C68.9808 44.4388 68.6768 44.2668 68.3778 44.0908L68.1608 43.9678C67.7895 43.7515 67.4227 43.5275 67.0608 43.2958L66.7288 43.0748L66.0168 42.6028C65.5133 42.2533 65.0185 41.8916 64.5328 41.5178L64.1988 41.2538C59.0318 37.1748 54.9358 31.5988 52.9888 25.2768C50.9478 18.7198 51.3878 11.3598 54.9238 5.38579M69.7708 4.86779C66.6368 9.47979 66.3288 15.2088 68.5038 20.3028C70.7968 25.7098 75.4958 29.9508 80.9808 31.9628L81.6628 32.1978L81.9628 32.2938C82.2858 32.3958 82.6068 32.5138 82.9408 32.5758C98.0978 35.5048 102.209 24.7988 103.303 23.2218C99.7018 28.4068 93.6498 29.6518 86.2238 27.8488C85.6163 27.6938 85.0169 27.5086 84.4278 27.2938C83.7017 27.0355 82.9894 26.7398 82.2938 26.4078C80.9746 25.7724 79.7215 25.008 78.5528 24.1258C71.9078 19.0838 67.7808 9.46679 72.1168 1.63379" fill="#0868AC"/>
<path d="M66.3589 96.2952H62.1329C62.0134 96.2998 61.8985 96.3429 61.8053 96.418C61.7122 96.4931 61.6458 96.5963 61.6159 96.7122L60.1159 103.652L58.6159 110.592C58.5864 110.708 58.5203 110.811 58.4272 110.886C58.3342 110.962 58.2194 111.005 58.0999 111.009H55.1089C52.1499 111.009 52.4919 108.962 53.0979 106.158L53.1159 106.073L53.1819 105.719L53.1939 105.653L53.3289 104.933L53.4739 104.162L53.6279 103.377L54.3099 100.045L54.9929 96.7132C55.006 96.6623 55.0069 96.6091 54.9956 96.5578C54.9843 96.5065 54.9612 96.4585 54.928 96.4177C54.8949 96.377 54.8526 96.3446 54.8047 96.3231C54.7567 96.3017 54.7044 96.2918 54.6519 96.2942H50.3149C50.1955 96.2985 50.0807 96.3417 49.9879 96.4171C49.8952 96.4925 49.8295 96.5961 49.8009 96.7122L48.8679 101.136L47.9359 105.561L47.9339 105.567L47.8479 105.979C46.7739 110.882 47.0579 115.559 52.8959 115.706L53.0659 115.709H62.2289C62.3484 115.705 62.4632 115.662 62.5562 115.586C62.6493 115.511 62.7154 115.408 62.7449 115.292L64.7209 106.003L66.6969 96.7132C66.7459 96.4832 66.5939 96.2962 66.3589 96.2952ZM21.1029 96.2462H16.4629C16.3431 96.2509 16.2278 96.2937 16.1341 96.3686C16.0403 96.4434 15.973 96.5463 15.9419 96.6622L15.5019 98.6042L15.0619 100.546C15.0109 100.775 15.1599 100.962 15.3949 100.962H20.0709C20.1907 100.958 20.3058 100.915 20.3991 100.84C20.4925 100.765 20.559 100.661 20.5889 100.545L21.0139 98.6042L21.4389 96.6632C21.4879 96.4342 21.3379 96.2462 21.1029 96.2462ZM19.7569 102.29H15.0799C14.9601 102.295 14.8449 102.338 14.7512 102.413C14.6575 102.488 14.5901 102.59 14.5589 102.706L13.9019 105.616L13.2459 108.525L13.0629 109.359L12.4319 112.329L11.8019 115.3C11.7529 115.529 11.6519 115.899 11.5769 116.121C11.5769 116.121 10.7029 118.721 9.23393 118.691L9.04993 118.687L7.77893 118.664H7.77793C7.65853 118.667 7.54319 118.708 7.44886 118.781C7.35454 118.855 7.28621 118.956 7.25393 119.071L6.76893 121.11L6.28493 123.148C6.22993 123.376 6.37793 123.564 6.61093 123.568C7.44393 123.578 9.30993 123.599 10.4389 123.599C14.1079 123.599 16.0429 121.566 17.2819 115.716L18.7329 109.002L20.0939 102.705C20.1429 102.478 19.9909 102.29 19.7569 102.29ZM105.874 100.716L105.68 99.9152L105.489 99.0952L105.392 98.6812C105.012 97.2042 103.897 96.3532 101.475 96.3532L97.7049 96.3492L94.2329 96.3442H90.3259C90.2065 96.3486 90.0918 96.3916 89.9989 96.4668C89.906 96.542 89.8401 96.6453 89.8109 96.7612L89.6379 97.5772L89.4339 98.5412L89.3769 98.8122L87.6179 107.052L85.9479 114.874C85.8979 115.104 85.8819 115.386 85.9099 115.5C85.9379 115.615 86.3889 115.709 86.6229 115.709H90.1469C90.3819 115.709 90.6789 115.667 90.8069 115.615C90.9349 115.563 91.1239 115.102 91.1709 114.873L91.7969 111.774L92.4239 108.674L92.4249 108.669L92.5089 108.256L93.2689 104.696L93.9399 101.552C93.9695 101.437 94.0356 101.334 94.1284 101.258C94.2211 101.183 94.3357 101.14 94.4549 101.135L105.544 101.13C105.779 101.132 105.927 100.945 105.874 100.716ZM120.149 93.4762L119.295 93.4792H115.746C115.616 93.4865 115.489 93.5218 115.374 93.5828C115.259 93.6437 115.158 93.7288 115.079 93.8322L107.23 105.33C107.098 105.524 106.947 105.496 106.895 105.268L106.317 102.735C106.286 102.619 106.218 102.516 106.124 102.441C106.03 102.366 105.915 102.324 105.795 102.319H100.75C100.515 102.319 100.376 102.503 100.44 102.728L102.701 110.649C102.765 110.875 102.77 111.245 102.712 111.473L101.727 115.306C101.668 115.534 101.812 115.719 102.047 115.719H107.034C107.155 115.714 107.271 115.672 107.366 115.598C107.461 115.524 107.531 115.422 107.566 115.306L108.552 111.473C108.63 111.203 108.753 110.948 108.915 110.718L121.657 93.8072C121.799 93.6192 121.722 93.4662 121.488 93.4682L120.149 93.4762ZM80.0629 103.395V103.391C80.0456 103.512 79.9859 103.623 79.8945 103.703C79.8031 103.784 79.6859 103.83 79.5639 103.832H73.1669C72.9449 103.832 72.8329 103.682 72.8659 103.496L72.8719 103.481L72.8679 103.483L72.8709 103.462L72.8999 103.353C73.5109 101.729 74.7549 100.663 77.0939 100.663C79.7279 100.662 80.2419 101.948 80.0629 103.395ZM78.1859 96.0112C69.9749 96.0112 68.0289 100.995 66.9369 106.026C65.8459 111.154 65.9389 115.947 74.4369 115.947H75.4669L75.7229 115.946H75.7829L76.8029 115.943H76.8209C79.0649 115.934 81.3159 115.917 82.2269 115.91C82.3456 115.904 82.4593 115.86 82.5509 115.784C82.6426 115.709 82.7075 115.606 82.7359 115.49L83.0799 113.809L83.1469 113.482L83.5569 111.476C83.57 111.425 83.5709 111.372 83.5597 111.321C83.5484 111.27 83.5252 111.222 83.4921 111.181C83.4589 111.14 83.4166 111.108 83.3686 111.087C83.3207 111.065 83.2684 111.056 83.2159 111.058H75.5769C72.5379 111.058 71.6359 110.251 71.9689 107.877H84.1799L84.1789 107.878L84.1869 107.877C84.2835 107.873 84.3769 107.841 84.4558 107.785C84.5347 107.729 84.5959 107.652 84.6319 107.562L84.6609 107.456L84.6599 107.457C86.4729 100.618 85.9529 96.0122 78.1859 96.0112ZM39.3759 103.369L39.2599 103.778V103.779L38.3379 107.047L37.4159 110.314C37.3782 110.43 37.306 110.531 37.2089 110.605C37.1118 110.678 36.9946 110.72 36.8729 110.725H31.9929C28.2909 110.725 27.3889 107.829 28.2909 103.559C29.1919 99.1912 30.9589 96.4762 34.6029 96.2012C39.5829 95.8252 40.5789 99.3272 39.3759 103.369ZM42.7239 110.474C42.7239 110.474 45.0249 104.886 45.5469 101.66C46.2599 97.3412 44.0969 91.0752 35.7429 91.0752C27.4369 91.0752 23.8289 97.0562 22.4529 103.559C21.0769 110.109 22.8799 115.852 31.1389 115.805L37.6549 115.781L43.7439 115.759C43.8646 115.753 43.9806 115.71 44.0761 115.636C44.1716 115.562 44.242 115.461 44.2779 115.345L45.3389 111.299C45.3979 111.071 45.2549 110.885 45.0199 110.883L44.0029 110.877L42.9859 110.871C42.7869 110.87 42.6729 110.74 42.6969 110.569L42.7239 110.474ZM83.8439 106.733C83.844 106.77 83.8368 106.806 83.8228 106.84C83.8088 106.874 83.7882 106.905 83.7623 106.931C83.7363 106.957 83.7055 106.978 83.6715 106.992C83.6376 107.006 83.6012 107.014 83.5644 107.014C83.5276 107.014 83.4912 107.007 83.4572 106.993C83.4232 106.979 83.3923 106.958 83.3663 106.932C83.3402 106.906 83.3196 106.875 83.3054 106.841C83.2913 106.807 83.284 106.771 83.2839 106.734C83.2838 106.66 83.3132 106.589 83.3656 106.536C83.418 106.483 83.4892 106.454 83.5634 106.454C83.6377 106.454 83.709 106.483 83.7616 106.535C83.8142 106.588 83.8438 106.659 83.8439 106.733Z" fill="#131B28"/>
</svg>
