<svg width="128" height="128" viewBox="0 0 128 128" fill="none" xmlns="http://www.w3.org/2000/svg">
<path d="M9.6252 32.1811C-1.4038 48.0321 -0.0307975 68.6571 8.3942 85.5011C8.5942 85.9051 8.8042 86.3021 9.0112 86.6991L9.4052 87.4581L9.6512 87.8951L10.0902 88.6811C10.3522 89.1421 10.6202 89.6011 10.8942 90.0601L11.3532 90.8161C11.6572 91.3071 11.9682 91.7921 12.2862 92.2761L12.6842 92.8901C13.1232 93.5451 13.5722 94.1991 14.0362 94.8411L14.0752 94.8911L14.3032 95.1991C14.7042 95.7521 15.1172 96.2981 15.5352 96.8381L15.9992 97.4281C16.3722 97.8971 16.7512 98.3631 17.1372 98.8271L17.5722 99.3471C18.0912 99.9595 18.6199 100.564 19.1582 101.159L19.1912 101.192L19.2522 101.26C19.7813 101.834 20.3187 102.401 20.8642 102.959L21.3812 103.48C21.8042 103.906 22.2342 104.325 22.6682 104.742L23.1952 105.242C23.7752 105.789 24.3612 106.325 24.9592 106.849L24.9872 106.871L25.2942 107.133C25.8212 107.589 26.3572 108.042 26.8972 108.486L27.5612 109.015C28.0022 109.369 28.4482 109.717 28.8972 110.059L29.6112 110.602C30.1072 110.967 30.6062 111.326 31.1102 111.677L31.6562 112.064L31.8062 112.171C32.2842 112.5 32.7732 112.817 33.2622 113.134L33.8922 113.554C34.6422 114.028 35.4022 114.497 36.1712 114.95L36.8012 115.305C37.3662 115.631 37.9352 115.951 38.5112 116.264C38.8232 116.432 39.1432 116.591 39.4572 116.752C39.8642 116.965 40.2682 117.181 40.6822 117.388L40.9652 117.525L41.4662 117.767C42.1072 118.073 42.7532 118.374 43.4062 118.664L43.8162 118.848C44.5647 119.176 45.3192 119.489 46.0792 119.789L46.6302 120.006C47.3342 120.277 48.0482 120.545 48.7652 120.797L49.0332 120.89C49.8202 121.165 50.6142 121.42 51.4142 121.669L51.9892 121.841C52.8032 122.086 53.6082 122.379 54.4472 122.534C107.786 132.261 123.28 90.4811 123.28 90.4811C110.267 107.434 87.1692 111.906 65.2842 106.927C64.4552 106.74 63.6512 106.481 62.8422 106.242L62.2332 106.057C61.4449 105.815 60.6608 105.56 59.8812 105.292L59.5582 105.175C58.863 104.929 58.1716 104.673 57.4842 104.406L56.9022 104.177C56.1502 103.88 55.4022 103.57 54.6632 103.246L54.2162 103.048C53.5833 102.762 52.9536 102.469 52.3272 102.169L51.7812 101.907C51.2902 101.668 50.8042 101.414 50.3202 101.164C49.9962 100.993 49.6662 100.832 49.3452 100.654C48.756 100.337 48.1722 100.009 47.5942 99.6721L47.0032 99.3421C46.2356 98.8889 45.4755 98.4232 44.7232 97.9451L44.1082 97.5351C43.5613 97.1843 43.0203 96.8246 42.4852 96.4561L41.9632 96.0891C41.448 95.7248 40.9366 95.3551 40.4292 94.9801L39.7502 94.4661C39.284 94.1117 38.8226 93.751 38.3662 93.3841L37.7492 92.8891C37.168 92.4126 36.5932 91.9282 36.0252 91.4361L35.8362 91.2771C35.2242 90.737 34.6201 90.1879 34.0242 89.6301L33.5132 89.1391C33.0722 88.7191 32.6382 88.2961 32.2112 87.8621L31.7012 87.3531C31.1593 86.7986 30.6265 86.2351 30.1032 85.6631L30.0242 85.5791C29.4727 84.9743 28.9323 84.3595 28.4032 83.7351L27.9792 83.2311C27.5839 82.7555 27.1949 82.2748 26.8122 81.7891L26.3852 81.2571C25.9277 80.6655 25.4786 80.0675 25.0382 79.4631C12.8882 62.8891 8.5222 40.0311 18.2332 21.2591M43.8622 18.8251C35.8852 30.3031 36.3192 45.6691 42.5412 57.8081C43.5825 59.8487 44.7612 61.8162 46.0692 63.6971C47.2642 65.4101 48.5892 67.4481 50.1752 68.8241C50.7552 69.4593 51.352 70.0788 51.9652 70.6821L52.4372 71.1471C53.0328 71.7277 53.6423 72.2939 54.2652 72.8451L54.3392 72.9091L54.3572 72.9271C55.054 73.5338 55.7659 74.123 56.4922 74.6941L56.9772 75.0721C57.7075 75.6347 58.4521 76.1785 59.2102 76.7031L59.2752 76.7521C59.6112 76.9841 59.9532 77.2001 60.2942 77.4241L60.7772 77.7431C61.3212 78.0921 61.8722 78.4321 62.4322 78.7581L62.6672 78.8941C63.1502 79.1721 63.6392 79.4461 64.1302 79.7121L64.6512 79.9831C64.9902 80.1601 65.3292 80.3411 65.6742 80.5131L65.8292 80.5831C66.5322 80.9291 67.2412 81.2631 67.9652 81.5781L68.4372 81.7721C69.0162 82.0181 69.6012 82.2581 70.1872 82.4821L70.9372 82.7571C71.4702 82.9551 72.0052 83.1351 72.5442 83.3161L73.2712 83.5491C74.0382 83.7871 74.7962 84.0881 75.5952 84.2211C116.778 91.0441 126.286 59.3351 126.286 59.3351C117.716 71.6781 101.118 77.5681 83.4072 72.9701C82.6242 72.7642 81.8463 72.5394 81.0742 72.2961L80.3732 72.0691C79.826 71.8921 79.2823 71.7047 78.7422 71.5071L78.0062 71.2331C77.417 71.0069 76.8315 70.7709 76.2502 70.5251L75.7772 70.3251C75.0531 70.0099 74.3368 69.6768 73.6292 69.3261C73.2662 69.1491 72.9092 68.9621 72.5512 68.7781L71.9292 68.4581C71.4704 68.2094 71.016 67.9527 70.5662 67.6881L70.2402 67.5031C69.6831 67.1782 69.1327 66.8422 68.5892 66.4951L68.0912 66.1631C67.7324 65.9311 67.3761 65.6954 67.0222 65.4561C66.2673 64.9313 65.5251 64.3885 64.7962 63.8281L64.2952 63.4331C56.5432 57.3131 50.3972 48.9471 47.4762 39.4621C44.4142 29.6261 45.0742 18.5841 50.3792 9.62207M72.6572 8.84707C67.9552 15.7671 67.4932 24.3611 70.7562 32.0031C74.1972 40.1161 81.2472 46.4791 89.4762 49.4981C89.8152 49.6231 90.1552 49.7351 90.4982 49.8521L90.9492 49.9951C91.4342 50.1471 91.9152 50.3241 92.4162 50.4191C115.156 54.8131 121.324 38.7501 122.965 36.3851C117.563 44.1641 108.483 46.0311 97.3422 43.3271C96.4622 43.1141 95.4952 42.7961 94.6472 42.4951C93.5578 42.108 92.4894 41.6644 91.4462 41.1661C89.4669 40.2131 87.587 39.0662 85.8342 37.7421C75.8652 30.1771 69.6722 15.7481 76.1772 3.99707" fill="#0868AC"/>
</svg>
