<svg width="128" height="128" viewBox="0 0 128 128" fill="none" xmlns="http://www.w3.org/2000/svg">
<path d="M65.2832 106.928C64.4552 106.741 63.6502 106.482 62.8422 106.243L62.2332 106.058C61.4449 105.816 60.6608 105.561 59.8812 105.293L59.5582 105.176C58.8629 104.931 58.1715 104.674 57.4842 104.407L56.9022 104.178C56.1502 103.881 55.4022 103.571 54.6642 103.247L54.2172 103.049C53.5843 102.763 52.9546 102.47 52.3282 102.17L51.7822 101.908C51.2912 101.669 50.8052 101.415 50.3212 101.165C49.9972 100.994 49.6672 100.833 49.3462 100.655C48.7569 100.338 48.1731 100.011 47.5952 99.6731L47.0042 99.3431C46.2365 98.8902 45.4763 98.4244 44.7242 97.9461L44.1092 97.5361C43.5622 97.1856 43.0211 96.8258 42.4862 96.4571L41.9632 96.0901C41.4481 95.7256 40.9368 95.3559 40.4292 94.9811L39.7502 94.4671C39.2842 94.1125 38.8228 93.7518 38.3662 93.3851L37.7492 92.8901C37.1682 92.4133 36.5934 91.929 36.0252 91.4371L35.8372 91.2781C35.225 90.7382 34.6209 90.1891 34.0252 89.6311L33.5152 89.1401C33.0742 88.7201 32.6402 88.2971 32.2132 87.8631L31.7032 87.3541C31.1612 86.7993 30.6281 86.2359 30.1042 85.6641L30.0262 85.5801C29.4744 84.9755 28.934 84.3608 28.4052 83.7361L27.9812 83.2321C27.5856 82.7568 27.1966 82.2761 26.8142 81.7901L26.3872 81.2581C25.9297 80.6665 25.4806 80.0685 25.0402 79.4641C12.8902 62.8901 8.5242 40.0321 18.2362 21.2601L9.6252 32.1811C-1.4038 48.0321 -0.0307975 68.6571 8.3942 85.5011C8.5942 85.9051 8.8052 86.3021 9.0112 86.6991L9.4062 87.4581L9.6512 87.8951L10.0902 88.6811C10.3522 89.1421 10.6202 89.6011 10.8952 90.0601L11.3532 90.8161C11.6572 91.3071 11.9682 91.7921 12.2872 92.2761L12.6852 92.8901C13.1232 93.5451 13.5732 94.1991 14.0372 94.8411L14.0762 94.8911L14.3042 95.1991C14.7042 95.7521 15.1182 96.2981 15.5362 96.8381L15.9992 97.4281C16.3722 97.8971 16.7512 98.3631 17.1382 98.8271L17.5732 99.3471C18.0922 99.9595 18.6209 100.564 19.1592 101.159L19.1912 101.192L19.2532 101.26C19.782 101.834 20.3194 102.401 20.8652 102.959L21.3822 103.48C21.8052 103.906 22.2352 104.325 22.6692 104.742L23.1952 105.242C23.7752 105.789 24.3612 106.325 24.9592 106.849L24.9872 106.871L25.2942 107.133C25.8202 107.589 26.3562 108.042 26.8972 108.486L27.5612 109.015C28.0022 109.369 28.4482 109.717 28.8972 110.059L29.6112 110.602C30.1062 110.967 30.6062 111.326 31.1102 111.677L31.6562 112.064L31.8062 112.171C32.2842 112.5 32.7732 112.817 33.2622 113.134L33.8922 113.554C34.6412 114.028 35.4022 114.497 36.1702 114.95L36.8002 115.305C37.3663 115.632 37.9367 115.952 38.5112 116.264C38.8232 116.432 39.1432 116.591 39.4572 116.752C39.8642 116.965 40.2682 117.181 40.6822 117.388L40.9652 117.525L41.4662 117.767C42.1072 118.073 42.7532 118.374 43.4062 118.664L43.8162 118.848C44.5647 119.176 45.3192 119.489 46.0792 119.789L46.6302 120.006C47.3342 120.277 48.0482 120.545 48.7652 120.797L49.0332 120.89C49.8192 121.165 50.6142 121.42 51.4142 121.669L51.9892 121.841C52.8032 122.086 53.6072 122.379 54.4472 122.534C107.786 132.261 123.28 90.4811 123.28 90.4811C110.266 107.435 87.1682 111.907 65.2832 106.928ZM46.0692 63.6971C47.2642 65.4101 48.5892 67.4481 50.1742 68.8241C50.7542 69.4593 51.351 70.0788 51.9642 70.6821L52.4362 71.1471C53.032 71.7274 53.6415 72.2936 54.2642 72.8451L54.3382 72.9091L54.3562 72.9271C55.053 73.5338 55.7649 74.123 56.4912 74.6941L56.9752 75.0721C57.7055 75.6347 58.4501 76.1785 59.2082 76.7031L59.2732 76.7521C59.6092 76.9841 59.9522 77.2001 60.2932 77.4241L60.7752 77.7431C61.3192 78.0921 61.8712 78.4321 62.4312 78.7581L62.6652 78.8941C63.1482 79.1721 63.6382 79.4461 64.1282 79.7121L64.6492 79.9831C64.9882 80.1601 65.3272 80.3411 65.6732 80.5131L65.8282 80.5831C66.5302 80.9291 67.2392 81.2631 67.9642 81.5781L68.4362 81.7721C69.015 82.0197 69.5984 82.2564 70.1862 82.4821L70.9362 82.7571C71.4692 82.9551 72.0042 83.1351 72.5442 83.3161L73.2712 83.5491C74.0382 83.7871 74.7962 84.0881 75.5952 84.2211C116.778 91.0441 126.285 59.3351 126.285 59.3351C117.715 71.6781 101.117 77.5681 83.4062 72.9701C82.6232 72.7642 81.8453 72.5394 81.0732 72.2961L80.3732 72.0691C79.8258 71.8919 79.2817 71.7046 78.7412 71.5071L78.0052 71.2331C77.416 71.0067 76.8306 70.7707 76.2492 70.5251L75.7762 70.3251C75.0521 70.0099 74.3358 69.6768 73.6282 69.3261C73.2642 69.1491 72.9072 68.9621 72.5502 68.7781L71.9282 68.4581C71.4694 68.2094 71.015 67.9527 70.5652 67.6881L70.2392 67.5031C69.6825 67.1782 69.1323 66.8422 68.5892 66.4951L68.0912 66.1631C67.7326 65.9309 67.3762 65.6952 67.0222 65.4561C66.2675 64.931 65.5252 64.3882 64.7962 63.8281L64.2952 63.4331C56.5432 57.3131 50.3982 48.9471 47.4762 39.4621C44.4142 29.6261 45.0752 18.5841 50.3792 9.62207L43.8622 18.8221C35.8852 30.3001 36.3192 45.6661 42.5412 57.8051C43.5818 59.847 44.7605 61.8156 46.0692 63.6971ZM89.4762 49.4981C89.8152 49.6231 90.1542 49.7351 90.4982 49.8521L90.9492 49.9951C91.4332 50.1471 91.9152 50.3241 92.4162 50.4191C115.155 54.8131 121.324 38.7501 122.965 36.3851C117.562 44.1641 108.483 46.0311 97.3422 43.3271C96.4622 43.1141 95.4942 42.7961 94.6462 42.4951C93.5568 42.108 92.4884 41.6644 91.4452 41.1661C89.4658 40.2134 87.5859 39.0664 85.8332 37.7421C75.8642 30.1771 69.6712 15.7481 76.1762 3.99707L72.6562 8.84807C67.9542 15.7681 67.4922 24.3621 70.7552 32.0041C74.1962 40.1161 81.2472 46.4791 89.4762 49.4981Z" fill="#0868AC"/>
</svg>
