<svg width="130" height="128" viewBox="0 0 130 128" fill="none" xmlns="http://www.w3.org/2000/svg">
<path d="M26.0999 91.1C26.0999 94.3 25.6999 96.9 24.9999 98.9C24.2999 100.9 23.2999 102.4 21.8999 103.5C20.5999 104.6 18.9999 105.3 17.0999 105.7C15.1999 106.1 13.1999 106.3 10.8999 106.3C7.7999 106.3 5.4999 105.8 3.7999 104.9C2.1999 103.9 1.3999 102.8 1.3999 101.4C1.3999 100.3 1.8999 99.3 2.7999 98.6C3.6999 97.8 4.8999 97.4 6.4999 97.4C7.6999 97.4 8.5999 97.7 9.2999 98.3C9.9999 98.9 10.5999 99.5 10.9999 100.1C11.4999 100.8 11.8999 101.2 12.2999 101.4C12.6999 101.6 12.9999 101.7 13.2999 101.7C13.8999 101.7 14.3999 101.3 14.6999 100.6C14.9999 99.9 15.1999 98.5 15.1999 96.4V57L26.1999 54V91.1M41.6999 55V80.4C41.6999 81.1 41.7999 81.8 42.0999 82.4C42.3999 83 42.6999 83.6 43.1999 84C43.6999 84.4 44.1999 84.8 44.8999 85.1C45.4999 85.4 46.1999 85.5 46.9999 85.5C47.7999 85.5 48.7999 85 49.8999 84.2C51.6999 82.9 52.7999 82 52.7999 81V55H63.7999V91.1H52.7999V87.7C51.3999 88.9 49.7999 89.9 48.1999 90.6C46.5999 91.3 44.9999 91.7 43.3999 91.7C41.5999 91.7 39.8999 91.4 38.3999 90.8C36.8999 90.2 35.4999 89.4 34.3999 88.4C33.1999 87.4 32.2999 86.2 31.6999 84.8C30.9999 83.4 30.6999 81.9 30.6999 80.4V55H41.6999ZM79.1999 91.1H68.2999V40.5L79.1999 37.5V91.1ZM83.6999 57L94.6999 54V91.1H83.6999V57ZM117.6 72.5C116.5 72.9 115.5 73.5 114.4 74.1C113.3 74.7 112.4 75.3 111.5 76C110.6 76.7 109.9 77.5 109.4 78.3C108.9 79.1 108.6 79.9 108.6 80.8C108.6 81.5 108.7 82.1 108.9 82.7C109.1 83.3 109.3 83.9 109.6 84.3C109.9 84.7 110.3 85.1 110.7 85.4C111.1 85.7 111.5 85.8 111.9 85.8C112.8 85.8 113.7 85.5 114.6 85C115.5 84.5 116.5 83.8 117.7 82.9V72.5M128.6 91.1H117.6V88.2C117 88.7 116.4 89.2 115.8 89.6C115.2 90 114.6 90.4 113.9 90.7C113.2 91 112.4 91.3 111.5 91.4C110.6 91.6 109.5 91.7 108.3 91.7C106.6 91.7 105.1 91.5 103.8 91C102.5 90.5 101.3 89.9 100.4 89C99.4999 88.2 98.7999 87.2 98.2999 86C97.7999 84.9 97.5999 83.6 97.5999 82.3C97.5999 80.9 97.8999 79.7 98.3999 78.6C98.8999 77.5 99.5999 76.5 100.6 75.6C101.5 74.7 102.6 73.9 103.8 73.2C105 72.5 106.3 71.8 107.7 71.3C109.1 70.7 110.5 70.2 112 69.7C113.5 69.2 115 68.7 116.5 68.3L117.7 68V64.4C117.7 62.1 117.3 60.5 116.4 59.5C115.5 58.5 114.3 58.1 112.9 58.1C111.2 58.1 110 58.5 109.3 59.3C108.6 60.1 108.3 61.1 108.3 62.3C108.3 63 108.2 63.6 108.1 64.3C108 64.9 107.7 65.5 107.4 66C107 66.5 106.5 66.9 105.9 67.2C105.2 67.5 104.4 67.6 103.4 67.6C101.9 67.6 100.6 67.2 99.6999 66.3C98.6999 65.4 98.2999 64.3 98.2999 63C98.2999 61.8 98.6999 60.6 99.5999 59.5C100.4 58.4 101.6 57.5 103 56.7C104.4 55.9 106.1 55.3 108 54.9C109.9 54.5 111.9 54.2 114 54.2C116.6 54.2 118.8 54.4 120.7 54.9C122.6 55.4 124.1 56 125.3 56.9C126.5 57.8 127.4 58.8 128 60C128.6 61.2 128.9 62.6 128.9 64.1V91.1" fill="black"/>
<path d="M10.8999 106.6C7.7999 106.6 5.2999 106.1 3.5999 105.1C1.7999 104.1 0.899902 102.8 0.899902 101.3C0.899902 100.1 1.3999 99 2.3999 98.1C3.3999 97.3 4.6999 96.8 6.2999 96.8C7.5999 96.8 8.5999 97.2 9.2999 97.8C9.9999 98.4 10.5999 99.1 11.0999 99.7C11.6999 100.5 12.0999 100.8 12.2999 100.9C12.5999 101.1 12.7999 101.2 12.9999 101.2C13.2999 101.2 13.6999 101.1 13.9999 100.4C14.2999 99.7 14.3999 98.4 14.3999 96.4V56.7L26.1999 53.4V91.1C26.1999 94.3 25.7999 97 25.0999 99C24.3999 101 23.2999 102.6 21.8999 103.8C20.4999 104.9 18.8999 105.7 16.8999 106.1C15.2999 106.4 13.1999 106.6 10.8999 106.6ZM6.4999 97.7C5.0999 97.7 3.8999 98.1 3.0999 98.8C2.2999 99.5 1.8999 100.3 1.8999 101.3C1.8999 102.5 2.5999 103.5 4.0999 104.4C5.6999 105.3 7.9999 105.8 10.8999 105.8C13.0999 105.8 15.1999 105.6 16.9999 105.3C18.7999 104.9 20.2999 104.2 21.5999 103.2C22.8999 102.2 23.8999 100.7 24.4999 98.8C25.1999 96.9 25.5999 94.3 25.5999 91.2V54.5L15.3999 57.3V96.5C15.3999 98.7 15.1999 100.1 14.8999 100.9C14.3999 102 13.6999 102.2 13.0999 102.2C12.6999 102.2 12.2999 102.1 11.8999 101.8C11.4999 101.5 10.9999 101.1 10.4999 100.4C10.0999 99.8 9.4999 99.2 8.7999 98.6C8.2999 98 7.4999 97.7 6.4999 97.7ZM108.3 92.2C106.6 92.2 105 91.9 103.7 91.5C102.3 91 101.1 90.3 100.2 89.4C99.1999 88.5 98.4999 87.5 97.9999 86.3C97.4999 85.1 97.1999 83.8 97.1999 82.4C97.1999 81 97.4999 79.6 97.9999 78.5C98.4999 77.3 99.2999 76.3 100.2 75.4C101.1 74.5 102.2 73.7 103.5 72.9C104.7 72.2 106.1 71.5 107.5 70.9C108.9 70.3 110.4 69.8 111.9 69.3C113.4 68.8 114.9 68.3 116.4 67.9L117.3 67.7V64.5C117.3 62.3 116.9 60.8 116.1 59.9C115.3 59 114.2 58.6 112.9 58.6C111.3 58.6 110.2 59 109.6 59.7C109 60.5 108.7 61.4 108.7 62.5C108.7 63.2 108.6 63.9 108.5 64.6C108.3 65.3 108.1 65.9 107.7 66.4C107.3 66.9 106.7 67.4 106 67.7C105.3 68 104.4 68.2 103.4 68.2C101.8 68.2 100.4 67.7 99.3999 66.8C98.3999 65.8 97.7999 64.6 97.7999 63.1C97.7999 61.8 98.2999 60.5 99.1999 59.4C100.1 58.3 101.3 57.3 102.8 56.5C104.3 55.7 106 55.1 107.9 54.6C109.8 54.1 111.9 53.9 114 53.9C116.6 53.9 118.9 54.1 120.8 54.6C122.7 55.1 124.3 55.8 125.6 56.7C126.9 57.6 127.8 58.7 128.4 60C129 61.3 129.3 62.7 129.3 64.3V91.8H117.5V89.4C117.1 89.7 116.8 90 116.4 90.3C115.8 90.7 115.1 91.1 114.4 91.5C113.7 91.8 112.8 92.1 111.9 92.3C110.6 92.1 109.5 92.2 108.3 92.2ZM112.7 57.6C114.3 57.6 115.6 58.1 116.5 59.2C117.5 60.2 117.9 62 117.9 64.4V68.3L116.4 68.7C115 69.1 113.5 69.6 112 70.1C110.5 70.6 109 71.1 107.7 71.7C106.3 72.3 105 72.9 103.8 73.6C102.6 74.3 101.6 75.1 100.7 75.9C99.7999 76.8 99.0999 77.7 98.5999 78.8C98.0999 79.9 97.7999 81.1 97.7999 82.4C97.7999 83.7 97.9999 84.9 98.4999 86C98.9999 87.1 99.6999 88 100.5 88.8C101.4 89.6 102.5 90.2 103.7 90.7C105 91.2 106.4 91.4 108 91.4C109.2 91.4 110.2 91.3 111.1 91.1C112 90.9 112.8 90.7 113.4 90.4C114.1 90.1 114.7 89.7 115.3 89.3C115.9 88.9 116.5 88.4 117.1 87.9L117.8 87.3V90.7H127.9V64.1C127.9 62.7 127.6 61.4 127.1 60.2C126.6 59.1 125.7 58.1 124.5 57.2C123.3 56.4 121.8 55.7 120 55.3C118.2 54.8 115.9 54.6 113.4 54.6C111.3 54.6 109.3 54.8 107.5 55.3C105.7 55.7 104 56.3 102.6 57.1C101.2 57.8 100.1 58.7 99.2999 59.8C98.4999 60.8 98.0999 61.9 98.0999 63C98.0999 64.2 98.4999 65.2 99.3999 66C100.3 66.8 101.4 67.2 102.9 67.2C103.8 67.2 104.6 67.1 105.2 66.8C105.8 66.5 106.2 66.2 106.5 65.8C106.8 65.4 107 64.9 107.2 64.3C107.3 63.7 107.4 63.1 107.4 62.4C107.4 61.1 107.8 60 108.5 59.1C109.5 58.1 110.9 57.6 112.7 57.6ZM43.4999 92.2C41.6999 92.2 39.8999 91.9 38.3999 91.3C36.7999 90.7 35.3999 89.8 34.1999 88.8C32.9999 87.7 32.0999 86.5 31.3999 85.1C30.6999 83.7 30.3999 82.1 30.3999 80.5V54.6H42.1999V80.4C42.1999 81 42.2999 81.7 42.5999 82.2C42.7999 82.8 43.1999 83.3 43.5999 83.7C43.9999 84.1 44.5999 84.4 45.1999 84.7C45.7999 84.9 46.3999 85.1 47.0999 85.1C47.7999 85.1 48.5999 84.7 49.7999 83.9C51.3999 82.8 52.4999 81.9 52.4999 81.1V54.6H64.2999V91.5H52.4999V88.6C51.1999 89.6 49.8999 90.4 48.4999 91C46.7999 91.8 45.0999 92.2 43.4999 92.2ZM31.1999 55.5V80.5C31.1999 82 31.4999 83.4 32.0999 84.7C32.6999 86 33.5999 87.2 34.6999 88.2C35.7999 89.2 37.0999 90 38.5999 90.5C40.0999 91 41.6999 91.4 43.3999 91.4C44.8999 91.4 46.3999 91 47.9999 90.3C49.5999 89.6 51.0999 88.6 52.4999 87.4L53.1999 86.8V90.7H63.2999V55.5H53.2999V81.1C53.2999 82.4 52.0999 83.3 50.1999 84.6C48.8999 85.6 47.8999 86 46.9999 86C46.1999 86 45.4999 85.9 44.7999 85.6C44.0999 85.3 43.4999 84.9 42.9999 84.4C42.4999 83.9 42.0999 83.3 41.7999 82.6C41.4999 81.9 41.3999 81.2 41.3999 80.4V55.4H31.1999V55.5ZM95.0999 91.5H83.2999V56.7L95.0999 53.4V91.5ZM84.1999 90.7H94.2999V54.5L84.1999 57.3V90.7ZM79.5999 91.5H67.8999V40.2L79.5999 37V91.5ZM68.6999 90.7H78.7999V38.1L68.6999 40.9V90.7ZM111.8 86.2C111.3 86.2 110.8 86 110.3 85.7C109.9 85.4 109.5 85 109.1 84.5C108.8 84 108.5 83.4 108.3 82.8C108.1 82.1 108 81.4 108 80.7C108 79.8 108.3 78.8 108.9 78C109.5 77.2 110.2 76.4 111.1 75.6C112 74.9 113 74.2 114.1 73.6C115.2 73 116.3 72.5 117.3 72L117.9 71.7V83L117.7 83.1C116.6 83.9 115.5 84.6 114.6 85.2C113.8 85.9 112.8 86.2 111.8 86.2ZM117.2 73.1C116.3 73.5 115.5 73.9 114.6 74.4C113.6 75 112.6 75.6 111.7 76.3C110.9 77 110.2 77.7 109.6 78.5C109.1 79.2 108.9 80 108.9 80.8C108.9 81.4 109 82 109.1 82.6C109.3 83.2 109.5 83.7 109.8 84.1C110.1 84.5 110.4 84.8 110.8 85.1C111.1 85.3 111.4 85.4 111.8 85.4C112.6 85.4 113.5 85.1 114.3 84.6C115.2 84.1 116.1 83.4 117.1 82.7V73.1H117.2Z" fill="#EEEEEE"/>
<path d="M97.1999 44.6998C97.1999 48.7998 93.8999 52.0998 89.7999 52.0998C85.6999 52.0998 82.3999 48.7998 82.3999 44.6998C82.3999 40.5998 85.6999 37.2998 89.7999 37.2998C93.8999 37.2998 97.1999 40.5998 97.1999 44.6998Z" fill="#CB3C33"/>
<path d="M89.7999 52.5998C85.4999 52.5998 81.8999 49.0998 81.8999 44.6998C81.8999 40.2998 85.3999 36.7998 89.7999 36.7998C94.0999 36.7998 97.6999 40.2998 97.6999 44.6998C97.6999 49.0998 94.0999 52.5998 89.7999 52.5998ZM89.7999 37.6998C85.8999 37.6998 82.7999 40.7998 82.7999 44.6998C82.7999 48.5998 85.8999 51.6998 89.7999 51.6998C93.6999 51.6998 96.7999 48.5998 96.7999 44.6998C96.7999 40.7998 93.5999 37.6998 89.7999 37.6998Z" fill="#EEEEEE"/>
<path d="M28.1999 44.6998C28.1999 48.7998 24.8999 52.0998 20.7999 52.0998C16.6999 52.0998 13.3999 48.7998 13.3999 44.6998C13.3999 40.5998 16.6999 37.2998 20.7999 37.2998C24.8999 37.2998 28.1999 40.5998 28.1999 44.6998Z" fill="#4063D8"/>
<path d="M20.7999 52.5998C16.4999 52.5998 12.8999 49.0998 12.8999 44.6998C12.8999 40.2998 16.3999 36.7998 20.7999 36.7998C25.1999 36.7998 28.6999 40.2998 28.6999 44.6998C28.6999 49.0998 25.0999 52.5998 20.7999 52.5998ZM20.7999 37.6998C16.8999 37.6998 13.7999 40.7998 13.7999 44.6998C13.7999 48.5998 16.8999 51.6998 20.7999 51.6998C24.6999 51.6998 27.7999 48.5998 27.7999 44.6998C27.7999 40.7998 24.6999 37.6998 20.7999 37.6998Z" fill="#EEEEEE"/>
<path d="M115.1 44.6998C115.1 48.7998 111.8 52.0998 107.7 52.0998C103.6 52.0998 100.3 48.7998 100.3 44.6998C100.3 40.5998 103.6 37.2998 107.7 37.2998C111.7 37.2998 115.1 40.5998 115.1 44.6998Z" fill="#9558B2"/>
<path d="M107.6 52.5998C103.3 52.5998 99.7002 49.0998 99.7002 44.6998C99.7002 40.2998 103.2 36.7998 107.6 36.7998C111.9 36.7998 115.5 40.2998 115.5 44.6998C115.5 49.0998 112 52.5998 107.6 52.5998ZM107.6 37.6998C103.7 37.6998 100.6 40.7998 100.6 44.6998C100.6 48.5998 103.7 51.6998 107.6 51.6998C111.5 51.6998 114.6 48.5998 114.6 44.6998C114.6 40.7998 111.5 37.6998 107.6 37.6998Z" fill="#EEEEEE"/>
<path d="M106.1 29.1998C106.1 33.2998 102.8 36.5998 98.6998 36.5998C94.5998 36.5998 91.2998 33.2998 91.2998 29.1998C91.2998 25.0998 94.5998 21.7998 98.6998 21.7998C102.8 21.7998 106.1 25.0998 106.1 29.1998Z" fill="#389826"/>
<path d="M98.6998 37.0998C94.3998 37.0998 90.7998 33.5998 90.7998 29.1998C90.7998 24.7998 94.2998 21.2998 98.6998 21.2998C103 21.2998 106.6 24.7998 106.6 29.1998C106.6 33.5998 103 37.0998 98.6998 37.0998ZM98.6998 22.1998C94.7998 22.1998 91.6998 25.2998 91.6998 29.1998C91.6998 33.0998 94.7998 36.1998 98.6998 36.1998C102.6 36.1998 105.7 33.0998 105.7 29.1998C105.7 25.2998 102.6 22.1998 98.6998 22.1998Z" fill="#EEEEEE"/>
</svg>
