<svg width="128" height="128" viewBox="0 0 128 128" fill="none" xmlns="http://www.w3.org/2000/svg">
<path d="M29.1 123.3C45.1715 123.3 58.2 110.272 58.2 94.2001C58.2 78.1286 45.1715 65.1001 29.1 65.1001C13.0285 65.1001 0 78.1286 0 94.2001C0 110.272 13.0285 123.3 29.1 123.3Z" fill="black"/>
<path d="M98.8998 123.3C114.971 123.3 128 110.272 128 94.2001C128 78.1286 114.971 65.1001 98.8998 65.1001C82.8283 65.1001 69.7998 78.1286 69.7998 94.2001C69.7998 110.272 82.8283 123.3 98.8998 123.3Z" fill="black"/>
<path d="M63.9999 62.9002C80.0714 62.9002 93.0999 49.8717 93.0999 33.8002C93.0999 17.7287 80.0714 4.7002 63.9999 4.7002C47.9284 4.7002 34.8999 17.7287 34.8999 33.8002C34.8999 49.8717 47.9284 62.9002 63.9999 62.9002Z" fill="black"/>
</svg>
