<svg width="128" height="128" viewBox="0 0 128 128" fill="none" xmlns="http://www.w3.org/2000/svg">
<path d="M58.3002 93.4998C58.3002 109.2 45.6002 121.8 30.0002 121.8C14.3002 121.8 1.7002 109.1 1.7002 93.4998C1.7002 77.8998 14.4002 65.1998 30.0002 65.1998C45.6002 65.0998 58.3002 77.7998 58.3002 93.4998Z" fill="#CB3C33"/>
<path d="M30 123.4C13.5 123.4 0 110 0 93.3999C0 76.7999 13.4 63.3999 30 63.3999C46.6 63.3999 60 76.7999 60 93.3999C60 110 46.5 123.4 30 123.4ZM30 66.7999C15.3 66.7999 3.3 78.7999 3.3 93.4999C3.3 108.2 15.3 120.2 30 120.2C44.7 120.2 56.7 108.2 56.7 93.4999C56.7 78.7999 44.7 66.7999 30 66.7999Z" fill="#EEEEEE"/>
<path d="M126.4 93.5002C126.4 109.2 113.7 121.8 98.0998 121.8C82.4998 121.8 69.7998 109.1 69.7998 93.5002C69.7998 77.9002 82.4998 65.2002 98.0998 65.2002C113.7 65.2002 126.4 77.8002 126.4 93.5002Z" fill="#9558B2"/>
<path d="M98 123.4C81.5 123.4 68 110 68 93.3999C68 76.7999 81.4 63.3999 98 63.3999C114.6 63.3999 128 76.7999 128 93.3999C128 110 114.6 123.4 98 123.4ZM98 66.7999C83.3 66.7999 71.3 78.7999 71.3 93.4999C71.3 108.2 83.3 120.2 98 120.2C112.7 120.2 124.7 108.2 124.7 93.4999C124.7 78.7999 112.8 66.7999 98 66.7999Z" fill="#EEEEEE"/>
<path d="M92.3998 34.5002C92.3998 50.1002 79.6998 62.8002 64.0998 62.8002C48.3998 62.8002 35.7998 50.1002 35.7998 34.5002C35.7998 18.9002 48.3998 6.2002 63.9998 6.2002C79.6998 6.2002 92.3998 18.9002 92.3998 34.5002Z" fill="#389826"/>
<path d="M64 64.5C47.5 64.5 34 51.1 34 34.5C34 17.9 47.4 4.5 64 4.5C80.6 4.5 94 17.9 94 34.5C94 51.1 80.5 64.5 64 64.5ZM64 7.8C49.3 7.8 37.3 19.8 37.3 34.5C37.3 49.2 49.3 61.2 64 61.2C78.7 61.2 90.7 49.2 90.7 34.5C90.7 19.8 78.7 7.8 64 7.8Z" fill="#EEEEEE"/>
</svg>
