<svg width="129" height="128" viewBox="0 0 129 128" fill="none" xmlns="http://www.w3.org/2000/svg">
<path d="M52.7999 81.1998C52.7999 82.1998 51.6999 83.0998 49.8999 84.3998C48.6999 85.1998 47.7999 85.6998 46.9999 85.6998C46.2999 85.6998 45.5999 85.5998 44.8999 85.2998C44.2999 84.9998 43.6999 84.6998 43.1999 84.1998C42.6999 83.6998 42.2999 83.1998 42.0999 82.5998C41.7999 81.9998 41.6999 81.2998 41.6999 80.5998V54.9998H30.6999V80.5998C30.6999 82.1998 30.9999 83.6998 31.6999 84.9998C32.3999 86.3998 33.2999 87.5998 34.3999 88.5998C35.5999 89.5998 36.8999 90.3998 38.4999 90.9998C39.9999 91.5998 41.6999 91.8998 43.4999 91.8998C44.9999 91.8998 46.5999 91.4998 48.2999 90.7998C49.8999 90.0998 51.4999 89.0998 52.8999 87.8998V91.2998H63.8999V54.9998H52.8999C52.7999 54.9998 52.7999 80.8998 52.7999 81.1998ZM14.6999 96.6998C14.6999 98.7998 14.4999 100.2 14.1999 100.9C13.8999 101.6 13.3999 102 12.7999 102C12.4999 102 12.1999 101.9 11.7999 101.7C11.3999 101.5 10.9999 101 10.4999 100.3C9.9999 99.6998 9.4999 99.0998 8.7999 98.3998C8.0999 97.7998 7.1999 97.4998 5.9999 97.4998C4.4999 97.4998 3.1999 97.8998 2.2999 98.6998C1.3999 99.4998 0.899902 100.4 0.899902 101.6C0.899902 103 1.6999 104.1 3.3999 105.1C4.9999 106.1 7.3999 106.6 10.4999 106.6C12.7999 106.6 14.8999 106.4 16.6999 106C18.5999 105.6 20.1999 104.9 21.4999 103.8C22.7999 102.7 23.8999 101.2 24.5999 99.1998C25.2999 97.1998 25.6999 94.5998 25.6999 91.3998V53.8998L14.5999 56.8998V96.6998H14.6999ZM68.2999 91.2998H79.2999V37.2998L68.2999 40.3998V91.2998ZM128.1 59.9998C127.5 58.7998 126.6 57.6998 125.4 56.8998C124.2 55.9998 122.6 55.3998 120.7 54.8998C118.8 54.3998 116.6 54.1998 114 54.1998C111.9 54.1998 109.9 54.3998 108 54.8998C106.1 55.3998 104.4 55.9998 103 56.6998C101.5 57.4998 100.4 58.3998 99.4999 59.4998C98.5999 60.5998 98.1999 61.6998 98.1999 62.9998C98.1999 64.3998 98.6999 65.4998 99.6999 66.3998C100.7 67.2998 101.9 67.6998 103.5 67.6998C104.5 67.6998 105.3 67.5998 106 67.2998C106.7 66.9998 107.2 66.5998 107.5 66.0998C107.9 65.5998 108.1 65.0998 108.2 64.3998C108.3 63.7998 108.4 63.0998 108.4 62.3998C108.4 61.1998 108.7 60.1998 109.4 59.3998C110.1 58.5998 111.3 58.0998 113 58.0998C114.5 58.0998 115.7 58.5998 116.6 59.5998C117.5 60.5998 117.9 62.1998 117.9 64.4998V67.9998L116.7 68.2998C115.2 68.7998 113.7 69.1998 112.2 69.6998C110.7 70.1998 109.2 70.6998 107.8 71.2998C106.4 71.8998 105.1 72.4998 103.9 73.2998C102.7 73.9998 101.6 74.7998 100.7 75.6998C99.7999 76.5998 99.0999 77.5998 98.4999 78.6998C97.9999 79.7998 97.6999 81.0998 97.6999 82.4998C97.6999 83.8998 97.9999 85.0998 98.4999 86.1998C98.9999 87.2998 99.6999 88.2998 100.7 89.1998C101.6 89.9998 102.8 90.6998 104.1 91.1998C105.4 91.6998 106.9 91.8998 108.6 91.8998C109.8 91.8998 110.9 91.7998 111.8 91.5998C112.7 91.3998 113.5 91.1998 114.2 90.7998C114.9 90.3998 115.6 90.0998 116.2 89.6998C116.8 89.2998 117.4 88.7998 118 88.2998V91.1998H129V64.0998C129 62.5998 128.7 61.1998 128.1 59.9998ZM117.9 82.9998C116.8 83.7998 115.7 84.4998 114.8 85.0998C113.9 85.5998 113 85.8998 112.1 85.8998C111.6 85.8998 111.2 85.7998 110.8 85.4998C110.4 85.1998 110.1 84.8998 109.7 84.3998C109.4 83.8998 109.1 83.3998 108.9 82.7998C108.7 82.1998 108.6 81.4998 108.6 80.7998C108.6 79.8998 108.9 79.0998 109.4 78.2998C109.9 77.4998 110.7 76.6998 111.6 75.9998C112.5 75.2998 113.5 74.5998 114.5 73.9998C115.6 73.3998 116.7 72.8998 117.7 72.3998V82.9998H117.9ZM83.8999 91.2998H94.8999V53.8998L83.8999 56.9998V91.2998Z" fill="black"/>
<path d="M89.8999 52.1001C94.042 52.1001 97.3999 48.7422 97.3999 44.6001C97.3999 40.458 94.042 37.1001 89.8999 37.1001C85.7578 37.1001 82.3999 40.458 82.3999 44.6001C82.3999 48.7422 85.7578 52.1001 89.8999 52.1001Z" fill="black"/>
<path d="M20.5 52.1001C24.6421 52.1001 28 48.7422 28 44.6001C28 40.458 24.6421 37.1001 20.5 37.1001C16.3579 37.1001 13 40.458 13 44.6001C13 48.7422 16.3579 52.1001 20.5 52.1001Z" fill="black"/>
<path d="M107.9 52.1001C112.042 52.1001 115.4 48.7422 115.4 44.6001C115.4 40.458 112.042 37.1001 107.9 37.1001C103.758 37.1001 100.4 40.458 100.4 44.6001C100.4 48.7422 103.758 52.1001 107.9 52.1001Z" fill="black"/>
<path d="M98.8999 36.5C103.042 36.5 106.4 33.1421 106.4 29C106.4 24.8579 103.042 21.5 98.8999 21.5C94.7578 21.5 91.3999 24.8579 91.3999 29C91.3999 33.1421 94.7578 36.5 98.8999 36.5Z" fill="black"/>
</svg>
