<svg width="128" height="128" viewBox="0 0 128 128" fill="none" xmlns="http://www.w3.org/2000/svg">
<path d="M109.766 7.28112C109.829 8.78435 109.45 10.2731 108.676 11.5631C107.904 12.8467 106.769 13.8729 105.414 14.5121C104.061 15.147 102.55 15.3629 101.074 15.1321C99.5953 14.9017 98.219 14.2357 97.1209 13.2191C96.0181 12.1964 95.2416 10.871 94.8887 9.409C94.5357 7.94697 94.6221 6.4133 95.1369 5.00012C95.646 3.58971 96.5606 2.36124 97.7659 1.46912C98.9684 0.581323 100.409 0.0726131 101.902 0.0081243C102.893 -0.0336271 103.882 0.121259 104.812 0.463843C105.743 0.806427 106.597 1.32993 107.324 2.00412C108.8 3.37136 109.677 5.26666 109.762 7.27712L109.766 7.28112Z" fill="#767677"/>
<path d="M65.7582 96.7898C45.6602 96.7898 28.1092 89.4258 18.9922 78.5228C22.3729 88.2849 28.6972 96.7586 37.0942 102.777C45.456 108.768 55.4838 111.99 65.7702 111.992C76.056 111.988 86.0828 108.766 94.4452 102.777C102.841 96.759 109.163 88.2849 112.539 78.5228C103.406 89.4258 85.8552 96.7898 65.7582 96.7898ZM65.7502 25.8828C85.8482 25.8828 103.402 33.2498 112.516 44.1478C109.135 34.3861 102.811 25.9127 94.4142 19.8948C86.0535 13.9041 76.0276 10.6801 65.7422 10.6748C55.4568 10.6801 45.4309 13.9041 37.0702 19.8948C28.6722 25.9111 22.3481 34.3851 18.9702 44.1478C28.1022 33.2698 45.6522 25.8828 65.7502 25.8828Z" fill="#F37726"/>
<path d="M38.1641 117.984C38.2465 119.879 37.7697 121.757 36.7931 123.383C35.8227 125.001 34.3923 126.294 32.6843 127.096C30.9763 127.898 29.0682 128.174 27.2031 127.887C25.3381 127.599 23.6029 126.756 22.2231 125.469C20.8375 124.179 19.8608 122.512 19.4141 120.672C18.9731 118.826 19.0819 116.89 19.7271 115.105C20.3742 113.326 21.5319 111.777 23.0551 110.652C24.8292 109.348 27.0023 108.704 29.2004 108.829C31.3984 108.955 33.484 109.843 35.0981 111.34C36.9554 113.066 38.0571 115.455 38.1641 117.988V117.984Z" fill="#989798"/>
<path d="M21.2849 23.4181C20.1802 23.4661 19.0864 23.1819 18.1449 22.6021C17.197 22.0211 16.4424 21.1722 15.9765 20.1628C15.5105 19.1533 15.3541 18.0284 15.5269 16.9301C15.6928 15.8289 16.1826 14.802 16.9339 13.9801C17.6785 13.1618 18.6491 12.5827 19.7229 12.3161C20.7959 12.048 21.9251 12.1122 22.9609 12.5001C24.0004 12.883 24.9012 13.5689 25.5469 14.4691C26.3094 15.5224 26.686 16.8061 26.6133 18.1044C26.5407 19.4028 26.0232 20.6365 25.1479 21.5981C24.6553 22.1417 24.06 22.5823 23.3963 22.8947C22.7326 23.2071 22.0137 23.385 21.2809 23.4181H21.2849Z" fill="#6F7070"/>
</svg>
