<svg width="128" height="128" viewBox="0 0 128 128" fill="none" xmlns="http://www.w3.org/2000/svg">
<path fill-rule="evenodd" clip-rule="evenodd" d="M5.43 67.0591C5.43 70.9411 5.043 72.2071 4.043 73.1371C2.937 73.9371 1.496 74.3791 0 74.3791L0.387 76.5981C2.703 76.6211 4.949 75.9651 6.707 74.7581C7.648 73.8321 8.352 72.7701 8.77 71.6251C9.18522 70.5 9.31241 69.2889 9.14 68.1021V53.4181H5.43V67.0591ZM31.59 64.8901C31.59 66.5001 31.59 67.9341 31.742 69.1801H28.622L28.41 66.6251C27.754 67.5311 26.82 68.2771 25.7 68.7851C24.5481 69.3059 23.295 69.5647 22.031 69.5431C18.984 69.5431 15.359 68.1911 15.359 62.6831V53.5271H18.879V62.1021C18.879 65.0821 20.012 67.0741 23.184 67.0741C23.8324 67.082 24.4778 66.9831 25.094 66.7811C25.6811 66.587 26.2288 66.2893 26.711 65.9021C27.1584 65.5442 27.5234 65.0939 27.781 64.5821C28.031 64.0901 28.156 63.5621 28.148 63.0231V53.4181H31.664V64.8051L31.59 64.8901ZM39.07 58.3001C39.07 56.1561 39.07 54.3981 38.91 52.8131H42.074L42.23 55.6951C42.934 54.6481 43.95 53.7971 45.164 53.2191C46.402 52.6366 47.7619 52.3605 49.129 52.4141C53.816 52.4141 57.344 55.8551 57.344 60.9771C57.344 67.0231 53.105 70.0231 48.524 70.0231C47.361 70.071 46.2024 69.8521 45.137 69.3831C44.1192 68.9392 43.2288 68.2475 42.547 67.3711V76.5981H39.07V58.3001ZM42.547 62.7971C42.555 63.2191 42.609 63.6371 42.703 64.0471C43.003 65.0701 43.683 65.9771 44.637 66.6251C45.59 67.2771 46.766 67.6251 47.973 67.6251C51.683 67.6251 53.867 64.9691 53.867 61.1171C53.867 57.7501 51.817 54.8631 48.102 54.8631C46.632 54.9691 45.258 55.5391 44.234 56.4691C43.214 57.4021 42.609 58.6251 42.547 59.9141V62.7971ZM63.344 53.4601L67.648 62.8441C68.098 63.8911 68.582 65.1481 68.898 66.0861C69.273 65.1291 69.676 63.9101 70.156 62.7771L74.059 53.4611H77.824L72.48 64.7801C69.809 70.2181 68.18 73.0301 65.723 74.7261C64.484 75.6511 62.973 76.2921 61.34 76.5961L60.46 74.1631C61.574 73.8686 62.6306 73.3893 63.586 72.7451C64.886 71.8781 65.922 70.7761 66.606 69.5221C66.75 69.3081 66.852 69.0691 66.898 68.8271C66.8628 68.5609 66.7809 68.3029 66.656 68.0651L59.391 53.4171H63.293L63.344 53.4601ZM87.223 48.3791V53.0311H92.16V55.2461H87.223V63.9761C87.223 65.9731 87.895 67.1211 89.793 67.1211C90.4679 67.1303 91.1416 67.0622 91.801 66.9181L91.953 69.1411C90.9608 69.4328 89.9287 69.5658 88.895 69.5351C88.2106 69.5738 87.5252 69.4822 86.875 69.2651C86.2459 69.0623 85.665 68.7329 85.168 68.2971C84.121 67.0861 83.641 65.5821 83.828 64.0861V55.2231H80.895V53.0081H83.879V49.0621L87.223 48.3791ZM98.79 61.4411C98.715 62.2031 98.84 62.9691 99.156 63.6841C99.476 64.4021 99.973 65.0541 100.621 65.5901C101.27 66.1331 102.047 66.5501 102.906 66.8121C103.775 67.0797 104.687 67.1848 105.594 67.1221C107.438 67.1561 109.274 66.8671 110.973 66.2661L111.593 68.5121C109.473 69.2363 107.242 69.5799 105.003 69.5271C103.695 69.6003 102.384 69.4377 101.133 69.0471C99.903 68.6571 98.785 68.0471 97.859 67.2621C96.934 66.4771 96.223 65.5321 95.773 64.4961C95.3298 63.4793 95.1552 62.3658 95.266 61.2621C95.266 56.3161 98.789 52.4101 104.546 52.4101C111 52.4101 112.617 57.1251 112.617 60.1371C112.648 60.6021 112.648 61.0621 112.617 61.5271H98.707L98.79 61.4411ZM109.332 59.1951C109.437 58.5923 109.386 57.9726 109.184 57.3951C108.966 56.7964 108.613 56.2561 108.152 55.8161C107.658 55.3437 107.074 54.9757 106.434 54.7341C105.763 54.477 105.051 54.3436 104.332 54.3401C102.855 54.4301 101.469 54.9771 100.449 55.8751C99.426 56.7731 98.844 57.9531 98.816 59.1951H109.332ZM117.914 58.0551C117.914 56.0851 117.914 54.3871 117.762 52.8251H120.801V56.1051H120.949C121.269 55.0941 121.929 54.1951 122.832 53.5391C123.765 52.8732 124.871 52.4906 126.016 52.4371C126.332 52.3981 126.656 52.3981 126.976 52.4371V55.3051C126.59 55.2622 126.199 55.2622 125.813 55.3051C124.664 55.3441 123.566 55.7581 122.734 56.4771C121.898 57.1951 121.383 58.1641 121.281 59.1991C121.186 59.6675 121.134 60.1434 121.125 60.6211V69.5431H117.785V58.0781L117.914 58.0551ZM109.766 7.28112C109.829 8.78435 109.45 10.2731 108.676 11.5631C107.904 12.8467 106.769 13.8729 105.414 14.5121C104.062 15.147 102.55 15.3629 101.074 15.1321C99.5954 14.9017 98.2191 14.2357 97.121 13.2191C96.0182 12.1964 95.2417 10.871 94.8888 9.409C94.5359 7.94697 94.6222 6.4133 95.137 5.00012C95.6461 3.58971 96.5608 2.36124 97.766 1.46912C98.9685 0.581323 100.409 0.0726131 101.902 0.0081243C102.893 -0.0336271 103.882 0.121259 104.813 0.463843C105.743 0.806427 106.597 1.32993 107.324 2.00412C108.8 3.37136 109.677 5.26666 109.762 7.27712L109.766 7.28112ZM65.758 96.7901C45.66 96.7901 28.109 89.4261 18.992 78.5231C22.3726 88.2852 28.697 96.759 37.094 102.777C45.4558 108.768 55.4836 111.99 65.77 111.992C76.0558 111.988 86.0826 108.766 94.445 102.777C102.841 96.7593 109.162 88.2852 112.539 78.5231C103.406 89.4261 85.855 96.7901 65.758 96.7901ZM65.75 25.8831C85.848 25.8831 103.402 33.2501 112.516 44.1481C109.135 34.3864 102.811 25.913 94.414 19.8951C86.0533 13.9044 76.0274 10.6804 65.742 10.6751C55.4566 10.6804 45.4307 13.9044 37.07 19.8951C28.672 25.9114 22.3479 34.3854 18.97 44.1481C28.102 33.2701 45.652 25.8831 65.75 25.8831ZM38.164 117.984C38.2464 119.879 37.7696 121.757 36.793 123.383C35.8225 125.001 34.3922 126.294 32.6842 127.096C30.9762 127.898 29.0681 128.174 27.203 127.887C25.338 127.599 23.6028 126.756 22.223 125.469C20.8374 124.179 19.8607 122.512 19.414 120.672C18.973 118.826 19.0818 116.891 19.727 115.105C20.3741 113.326 21.5318 111.777 23.055 110.652C24.8291 109.348 27.0022 108.704 29.2003 108.829C31.3983 108.955 33.4839 109.843 35.098 111.34C36.9553 113.066 38.057 115.455 38.164 117.988V117.984ZM21.285 23.4181C20.1803 23.4662 19.0865 23.1819 18.145 22.6021C17.1971 22.0211 16.4425 21.1723 15.9766 20.1628C15.5107 19.1533 15.3542 18.0284 15.527 16.9301C15.6929 15.829 16.1827 14.8021 16.934 13.9801C17.6786 13.1618 18.6492 12.5827 19.723 12.3161C20.7961 12.0481 21.9252 12.1122 22.961 12.5001C24.0005 12.8831 24.9013 13.569 25.547 14.4691C26.3095 15.5224 26.6861 16.8062 26.6135 18.1045C26.5408 19.4028 26.0233 20.6365 25.148 21.5981C24.6555 22.1417 24.0602 22.5824 23.3965 22.8948C22.7328 23.2071 22.0138 23.385 21.281 23.4181H21.285Z" fill="black"/>
</svg>
