<svg width="128" height="128" viewBox="0 0 128 128" fill="none" xmlns="http://www.w3.org/2000/svg">
<path d="M6.64782 67.352C6.64782 71.262 6.28482 72.535 5.35182 73.472C4.31582 74.282 2.96882 74.727 1.56982 74.727L1.93382 76.961C4.09782 76.984 6.19882 76.324 7.83982 75.105C8.72282 74.175 9.37883 73.105 9.76982 71.953C10.1585 70.8124 10.2773 69.5972 10.1168 68.403V53.608H6.64782V67.352ZM32.5308 65.59C32.5308 67.266 32.5308 68.762 32.6838 70.059H29.6018L29.3948 67.399C28.7498 68.339 27.8278 69.117 26.7228 69.649C25.5935 70.1895 24.3537 70.4593 23.1018 70.437C20.0978 70.437 16.5228 69.031 16.5228 63.289V53.746H19.9958V62.684C19.9958 65.789 21.1088 67.867 24.2418 67.867C24.8827 67.8754 25.52 67.7711 26.1248 67.559C26.7081 67.3555 27.2486 67.0456 27.7188 66.645C28.1634 66.2653 28.5238 65.797 28.7768 65.27C29.0208 64.7634 29.144 64.2072 29.1368 63.645V53.633H32.6048V65.5L32.5308 65.59ZM39.1098 59.063C39.1098 56.984 39.1098 55.285 38.9528 53.746H42.0628L42.2148 56.539C42.9098 55.527 43.9058 54.699 45.1018 54.141C46.3213 53.5769 47.6572 53.3103 48.9998 53.363C53.6128 53.363 57.0818 56.695 57.0818 61.653C57.0818 67.508 52.9138 70.414 48.4058 70.414C47.2626 70.4602 46.1236 70.248 45.0738 69.793C44.0468 69.343 43.1678 68.672 42.5268 67.843V76.781H39.1098V59.063ZM42.5268 63.418C42.5348 63.824 42.5898 64.23 42.6838 64.625C42.9768 65.617 43.6438 66.496 44.5818 67.125C45.5198 67.754 46.6758 68.09 47.8628 68.09C51.5158 68.09 53.6638 65.52 53.6638 61.79C53.6638 58.527 51.6438 55.734 47.9918 55.734C46.5468 55.836 45.1948 56.387 44.1878 57.289C43.1838 58.191 42.5898 59.375 42.5278 60.625L42.5268 63.418ZM63.2658 53.73L67.4378 63.36C67.881 64.4549 68.2859 65.5649 68.6518 66.688C69.0158 65.707 69.4018 64.453 69.8718 63.293L73.6518 53.73H77.3048L72.1248 65.348C69.5348 70.934 67.9528 73.816 65.5698 75.558C64.3708 76.508 62.9058 77.168 61.3238 77.48L60.4688 74.98C61.5556 74.6746 62.5811 74.1829 63.4998 73.527C64.7618 72.637 65.7658 71.504 66.4258 70.219C66.5651 70.0008 66.6618 69.7582 66.7108 69.504C66.6791 69.232 66.5999 68.9676 66.4768 68.723L59.4338 53.683H63.2138L63.2658 53.73ZM86.5158 49.043V53.734H91.4878V55.969H86.5158V64.773C86.5158 66.785 87.1908 67.945 89.1058 67.945C89.7843 67.9541 90.4617 67.886 91.1248 67.742L91.2808 69.98C90.2811 70.2753 89.2408 70.41 88.1988 70.379C87.5096 70.4173 86.8192 70.3257 86.1638 70.109C85.5304 69.9021 84.9456 69.5687 84.4448 69.129C83.3908 67.91 82.9098 66.395 83.0978 64.883V55.945H80.1448V53.711H83.1478V49.734L86.5158 49.043ZM97.8828 62.418C97.8128 63.176 97.9328 63.938 98.2378 64.648C98.5554 65.3803 99.0368 66.0299 99.6448 66.547C100.27 67.086 101.02 67.5 101.848 67.762C102.672 68.027 103.558 68.129 104.434 68.07C106.198 68.1081 107.954 67.8196 109.614 67.219L110.211 69.453C108.175 70.172 106.025 70.5136 103.867 70.461C102.597 70.535 101.328 70.371 100.141 69.984C98.9811 69.6095 97.9088 69.0051 96.9878 68.207C96.0978 67.426 95.4098 66.488 94.9798 65.457C94.5522 64.4412 94.3831 63.3351 94.4878 62.238C94.4878 57.32 97.8828 53.434 103.426 53.434C109.641 53.434 111.196 58.125 111.196 61.121C111.226 61.582 111.226 62.043 111.196 62.504H97.8038L97.8828 62.418ZM108.035 60.184C108.136 59.5846 108.086 58.9695 107.891 58.394C107.685 57.8012 107.345 57.2639 106.898 56.824C106.426 56.3547 105.862 55.9877 105.242 55.746C104.598 55.4905 103.912 55.3582 103.219 55.356C101.797 55.446 100.461 55.988 99.4798 56.883C98.4958 57.773 97.9368 58.949 97.9098 60.183L108.035 60.184ZM116.46 58.809C116.46 56.891 116.46 55.234 116.305 53.715H119.415V56.91H119.57C119.895 55.926 120.57 55.05 121.496 54.41C122.426 53.77 123.563 53.395 124.75 53.336C125.074 53.301 125.406 53.301 125.734 53.336V56.129C125.338 56.0899 124.939 56.0899 124.543 56.129C123.367 56.168 122.246 56.574 121.395 57.273C120.539 57.973 120.012 58.918 119.906 59.926C119.809 60.386 119.758 60.848 119.75 61.312V70.004H116.332V58.832L116.46 58.809Z" fill="#4E4E4E"/>
<path d="M109.766 7.28112C109.829 8.78435 109.45 10.2731 108.676 11.5631C107.904 12.8467 106.769 13.8729 105.414 14.5121C104.061 15.147 102.55 15.3629 101.074 15.1321C99.5953 14.9017 98.219 14.2357 97.1209 13.2191C96.0181 12.1964 95.2416 10.871 94.8887 9.409C94.5357 7.94697 94.6221 6.4133 95.1369 5.00012C95.646 3.58971 96.5606 2.36124 97.7659 1.46912C98.9684 0.581323 100.409 0.0726131 101.902 0.0081243C102.893 -0.0336271 103.882 0.121259 104.812 0.463843C105.743 0.806427 106.597 1.32993 107.324 2.00412C108.8 3.37136 109.677 5.26666 109.762 7.27712L109.766 7.28112Z" fill="#767677"/>
<path d="M65.7582 96.7898C45.6602 96.7898 28.1092 89.4258 18.9922 78.5228C22.3729 88.2849 28.6972 96.7586 37.0942 102.777C45.456 108.768 55.4838 111.99 65.7702 111.992C76.056 111.988 86.0828 108.766 94.4452 102.777C102.841 96.759 109.163 88.2849 112.539 78.5228C103.406 89.4258 85.8552 96.7898 65.7582 96.7898ZM65.7502 25.8828C85.8482 25.8828 103.402 33.2498 112.516 44.1478C109.135 34.3861 102.811 25.9127 94.4142 19.8948C86.0535 13.9041 76.0276 10.6801 65.7422 10.6748C55.4568 10.6801 45.4309 13.9041 37.0702 19.8948C28.6722 25.9111 22.3481 34.3851 18.9702 44.1478C28.1022 33.2698 45.6522 25.8828 65.7502 25.8828Z" fill="#F37726"/>
<path d="M38.1641 117.984C38.2465 119.879 37.7697 121.757 36.7931 123.383C35.8227 125.001 34.3923 126.294 32.6843 127.096C30.9763 127.898 29.0682 128.174 27.2031 127.887C25.3381 127.599 23.6029 126.756 22.2231 125.469C20.8375 124.179 19.8608 122.512 19.4141 120.672C18.9731 118.826 19.0819 116.89 19.7271 115.105C20.3742 113.326 21.5319 111.777 23.0551 110.652C24.8292 109.348 27.0023 108.704 29.2004 108.829C31.3984 108.955 33.484 109.843 35.0981 111.34C36.9554 113.066 38.0571 115.455 38.1641 117.988V117.984Z" fill="#9E9E9E"/>
<path d="M21.2849 23.4181C20.1802 23.4661 19.0864 23.1819 18.1449 22.6021C17.197 22.0211 16.4424 21.1722 15.9765 20.1628C15.5105 19.1533 15.3541 18.0284 15.5269 16.9301C15.6928 15.8289 16.1826 14.802 16.9339 13.9801C17.6785 13.1618 18.6491 12.5827 19.7229 12.3161C20.7959 12.048 21.9251 12.1122 22.9609 12.5001C24.0004 12.883 24.9012 13.5689 25.5469 14.4691C26.3094 15.5224 26.686 16.8061 26.6133 18.1044C26.5407 19.4028 26.0232 20.6365 25.1479 21.5981C24.6553 22.1417 24.06 22.5823 23.3963 22.8947C22.7326 23.2071 22.0137 23.385 21.2809 23.4181H21.2849Z" fill="#616262"/>
</svg>
