<svg width="128" height="128" viewBox="0 0 128 128" fill="none" xmlns="http://www.w3.org/2000/svg">
<path fill-rule="evenodd" clip-rule="evenodd" d="M109.766 7.28112C109.829 8.78435 109.45 10.2731 108.676 11.5631C107.904 12.8467 106.769 13.8729 105.414 14.5121C104.061 15.147 102.55 15.3629 101.074 15.1321C99.5953 14.9017 98.219 14.2357 97.1209 13.2191C96.0181 12.1964 95.2416 10.871 94.8887 9.409C94.5357 7.94697 94.6221 6.4133 95.1369 5.00012C95.646 3.58971 96.5606 2.36124 97.7659 1.46912C98.9684 0.581323 100.409 0.0726131 101.902 0.0081243C102.893 -0.0336271 103.882 0.121259 104.812 0.463843C105.743 0.806427 106.597 1.32993 107.324 2.00412C108.8 3.37136 109.677 5.26666 109.762 7.27712L109.766 7.28112ZM65.7579 96.7901C45.6599 96.7901 28.1089 89.4261 18.9919 78.5231C22.3725 88.2852 28.6969 96.759 37.0939 102.777C45.4557 108.768 55.4834 111.99 65.7699 111.992C76.0557 111.988 86.0825 108.766 94.4449 102.777C102.84 96.7593 109.162 88.2852 112.539 78.5231C103.406 89.4261 85.8549 96.7901 65.7579 96.7901ZM65.7499 25.8831C85.8479 25.8831 103.402 33.2501 112.516 44.1481C109.135 34.3864 102.811 25.913 94.4139 19.8951C86.0532 13.9044 76.0273 10.6804 65.7419 10.6751C55.4565 10.6804 45.4306 13.9044 37.0699 19.8951C28.6719 25.9114 22.3478 34.3854 18.9699 44.1481C28.1019 33.2701 45.6519 25.8831 65.7499 25.8831ZM38.1639 117.984C38.2463 119.879 37.7695 121.757 36.7929 123.383C35.8224 125.001 34.392 126.294 32.6841 127.096C30.9761 127.898 29.0679 128.174 27.2029 127.887C25.3379 127.599 23.6027 126.756 22.2229 125.469C20.8373 124.179 19.8606 122.512 19.4139 120.672C18.9729 118.826 19.0817 116.891 19.7269 115.105C20.374 113.326 21.5317 111.777 23.0549 110.652C24.829 109.348 27.0021 108.704 29.2002 108.829C31.3982 108.955 33.4838 109.843 35.0979 111.34C36.9552 113.066 38.0569 115.455 38.1639 117.988V117.984ZM21.2849 23.4181C20.1802 23.4662 19.0864 23.1819 18.1449 22.6021C17.197 22.0211 16.4424 21.1723 15.9765 20.1628C15.5105 19.1533 15.3541 18.0284 15.5269 16.9301C15.6928 15.829 16.1826 14.8021 16.9339 13.9801C17.6785 13.1618 18.6491 12.5827 19.7229 12.3161C20.7959 12.0481 21.9251 12.1122 22.9609 12.5001C24.0004 12.8831 24.9012 13.569 25.5469 14.4691C26.3094 15.5224 26.686 16.8062 26.6133 18.1045C26.5407 19.4028 26.0232 20.6365 25.1479 21.5981C24.6553 22.1417 24.06 22.5824 23.3963 22.8948C22.7326 23.2071 22.0137 23.385 21.2809 23.4181H21.2849Z" fill="black"/>
</svg>
