<svg width="128" height="128" viewBox="0 0 128 128" fill="none" xmlns="http://www.w3.org/2000/svg">
<path d="M114.434 11.875H13.547C6.074 11.898 0.023 17.949 0 25.422V103.141C0.023 110.613 6.074 116.664 13.547 116.687H114.434C121.906 116.664 127.957 110.613 127.98 103.141V25.42C127.957 17.948 121.906 11.897 114.434 11.874V11.875ZM54.078 88.094L29.457 102.402C27.9459 103.279 26.1482 103.521 24.4591 103.074C22.77 102.626 21.3276 101.526 20.449 100.016C19.5711 98.5049 19.3295 96.707 19.7771 95.0177C20.2247 93.3284 21.325 91.8861 22.836 91.008L47.457 76.699C48.2051 76.2632 49.0317 75.979 49.8896 75.8629C50.7476 75.7468 51.62 75.801 52.457 76.0223C53.294 76.2436 54.0792 76.6278 54.7676 77.1528C55.456 77.6778 56.0342 78.3334 56.469 79.082C57.3471 80.594 57.5885 82.3929 57.1403 84.083C56.6921 85.773 55.5909 87.2158 54.079 88.094H54.078ZM63.766 66.293H63.734C61.9871 66.2846 60.315 65.5828 59.0853 64.342C57.8556 63.1012 57.1688 61.4229 57.176 59.676L57.301 31.312C57.3076 29.5696 58.0044 27.9007 59.2388 26.6708C60.4731 25.4409 62.1445 24.7503 63.887 24.75H63.918C65.6651 24.7582 67.3374 25.4599 68.5674 26.7007C69.7973 27.9415 70.4842 29.6199 70.477 31.367L70.352 59.734C70.3443 61.4759 69.6471 63.1438 68.4129 64.373C67.1787 65.6022 65.5079 66.2925 63.766 66.293ZM107.328 99.996C106.896 100.746 106.32 101.402 105.633 101.929C104.947 102.456 104.163 102.842 103.327 103.066C102.492 103.29 101.62 103.347 100.762 103.234C99.9042 103.12 99.0771 102.839 98.328 102.406L73.672 88.172C72.9083 87.7469 72.2368 87.1741 71.6966 86.4869C71.1565 85.7998 70.7584 85.012 70.5256 84.1695C70.2929 83.327 70.2301 82.4466 70.3409 81.5796C70.4517 80.7126 70.7338 79.8763 71.171 79.1195C71.6081 78.3626 72.1915 77.7002 72.8871 77.171C73.5827 76.6418 74.3767 76.2562 75.2228 76.0368C76.0689 75.8174 76.9501 75.7686 77.8153 75.8931C78.6804 76.0176 79.5121 76.313 80.262 76.762L104.918 90.996C105.667 91.4285 106.324 92.0044 106.851 92.6909C107.378 93.3773 107.764 94.1609 107.988 94.9967C108.212 95.8325 108.269 96.7042 108.155 97.562C108.042 98.4198 107.761 99.2469 107.328 99.996Z" fill="#FFC519"/>
</svg>
