<svg width="128" height="128" viewBox="0 0 128 128" fill="none" xmlns="http://www.w3.org/2000/svg">
<path d="M72.5859 53.1558H77.9379V59.2108C77.9379 59.8828 77.8399 60.8788 77.7779 61.6128H77.9059C78.3089 60.9138 78.7579 60.2378 79.2499 59.5978L84.5349 53.1558H90.3009L83.2539 61.6448L90.6869 74.7808H84.5349L79.5389 65.7148L77.9369 67.6678V74.7808H72.5859V53.1558ZM95.9099 67.9878C95.3319 70.0698 96.5159 71.3828 98.3129 71.3828C100.328 71.3828 101.355 69.7808 101.355 67.5078C101.355 65.0738 100.137 64.1448 98.5039 64.1448C97.5191 64.1374 96.5683 64.5045 95.8439 65.1718L93.5389 62.6718L100.234 57.1288H92.2899V53.1558H105.583V57.3518L100.458 61.5818C103.728 61.2618 106.833 63.4058 106.833 67.5738C106.833 72.0898 103.149 75.1638 98.5049 75.1638C94.1149 75.1638 90.4309 72.4408 91.3919 68.6288L95.9099 67.9878ZM113.465 67.6678C113.078 69.3978 113.75 71.3828 117.148 71.3828C119.391 71.3828 120.16 70.4878 120.16 69.3008C120.16 67.5078 118.363 67.0588 116.25 66.2928C113.078 65.2028 109.172 63.6638 109.172 59.1478C109.172 55.1088 112.277 52.6448 117.562 52.7728C124.035 52.9028 125.859 56.7148 125.156 60.0118L120.254 60.4608C120.574 57.9608 119.68 56.5508 117.148 56.5508C115.449 56.5508 114.488 57.1948 114.488 58.5388C114.488 60.3318 116.218 60.8788 118.332 61.6128C121.602 62.7028 125.477 64.0158 125.477 68.4998C125.477 72.3788 122.594 75.1638 116.957 75.1638C111.668 75.1638 108.051 72.7298 108.785 68.1168L113.465 67.6678Z" fill="#384745"/>
<path d="M54.508 40.1289H8.61803C6.98575 40.1339 5.42173 40.7845 4.26743 41.9386C3.11314 43.0927 2.46231 44.6566 2.45703 46.2889V81.6409C2.46204 83.2735 3.11252 84.8378 4.26654 85.9926C5.42057 87.1474 6.98447 87.7988 8.61703 87.8049H54.507C56.14 87.7999 57.7046 87.1488 58.859 85.9938C60.0134 84.8388 60.6638 83.2739 60.668 81.6409V46.2889C60.6633 44.6566 60.0128 43.0926 58.8586 41.9384C57.7044 40.7842 56.1403 40.1337 54.508 40.1289ZM27.055 74.7969L15.855 81.3049C15.5147 81.5084 15.1373 81.6424 14.7448 81.699C14.3523 81.7555 13.9524 81.7336 13.5684 81.6345C13.1845 81.5354 12.824 81.361 12.5079 81.1215C12.1918 80.882 11.9264 80.5821 11.7271 80.2392C11.5279 79.8964 11.3986 79.5174 11.3469 79.1242C11.2952 78.731 11.3221 78.3314 11.426 77.9487C11.5299 77.566 11.7087 77.2077 11.9521 76.8946C12.1956 76.5816 12.4987 76.3199 12.844 76.1249L24.043 69.6129C24.3834 69.4149 24.7594 69.2859 25.1496 69.2333C25.5398 69.1808 25.9365 69.2056 26.3171 69.3065C26.6977 69.4073 27.0547 69.5822 27.3677 69.8212C27.6806 70.0601 27.9434 70.3583 28.141 70.6989C28.339 71.0392 28.468 71.4152 28.5206 71.8055C28.5732 72.1957 28.5483 72.5924 28.4475 72.973C28.3466 73.3536 28.1717 73.7106 27.9328 74.0235C27.6939 74.3365 27.3956 74.5993 27.055 74.7969ZM31.461 64.8829H31.445C30.6505 64.8784 29.8903 64.5586 29.3315 63.9938C28.7727 63.429 28.461 62.6654 28.465 61.8709L28.52 48.9689C28.5245 48.1767 28.842 47.4184 29.4032 46.8593C29.9644 46.3001 30.7238 45.9855 31.516 45.9839H31.531C32.3255 45.9884 33.0858 46.3082 33.6446 46.873C34.2034 47.4378 34.515 48.2014 34.511 48.9959L34.457 61.8979C34.4531 62.6903 34.1358 63.4489 33.5745 64.0081C33.0132 64.5674 32.2534 64.8819 31.461 64.8829ZM51.277 80.2099C51.0804 80.5508 50.8186 80.8496 50.5065 81.0893C50.1944 81.329 49.8381 81.5048 49.458 81.6068C49.0779 81.7088 48.6814 81.7348 48.2913 81.6836C47.9011 81.6323 47.5249 81.5046 47.184 81.3079L35.969 74.8309C35.6274 74.6349 35.3278 74.3734 35.0874 74.0614C34.847 73.7494 34.6705 73.393 34.5682 73.0127C34.4658 72.6323 34.4395 72.2355 34.4908 71.845C34.5421 71.4545 34.6699 71.0779 34.867 70.7369C35.2652 70.0483 35.9205 69.5459 36.689 69.3402C37.4574 69.1345 38.2761 69.2423 38.965 69.6399L50.18 76.1159C50.8678 76.5139 51.3696 77.1685 51.5752 77.936C51.7809 78.7036 51.6737 79.5214 51.277 80.2099Z" fill="#FFC61C"/>
</svg>
