<svg width="128" height="128" viewBox="0 0 128 128" fill="none" xmlns="http://www.w3.org/2000/svg">
<path d="M95.9998 118.664C95.8908 119.097 95.4578 119.314 94.7018 119.314H80.2448C79.3748 119.314 78.6238 118.935 77.9708 118.176L54.0998 87.8072L47.4418 94.1412V117.693C47.4418 118.777 46.8988 119.318 45.8168 119.318H34.6108C33.5268 119.318 32.9858 118.777 32.9858 117.693V10.3432C32.9858 9.26319 33.5258 8.72119 34.6108 8.72119H45.8178C46.8998 8.72119 47.4428 9.26419 47.4428 10.3422V76.4422L76.0258 47.5342C76.7838 46.7782 77.5418 46.3972 78.2988 46.3972H93.2428C93.8908 46.3972 94.3228 46.6702 94.5418 47.2072C94.7598 47.8582 94.7058 48.3442 94.3778 48.6702L64.1678 77.8982L95.6748 117.038C96.1058 117.472 96.2148 118.013 96.0028 118.664" fill="#20BEFF"/>
</svg>
