<svg width="128" height="128" viewBox="0 0 128 128" fill="none" xmlns="http://www.w3.org/2000/svg">
<path d="M23.8169 74.7709C23.7829 74.9089 23.6449 74.9779 23.4039 74.9779H18.8059C18.5299 74.9779 18.2849 74.8579 18.0829 74.6159L10.4899 64.9569L8.37193 66.9719V74.4619C8.37193 74.8069 8.19993 74.9789 7.85593 74.9789H4.28993C3.94593 74.9789 3.77393 74.8069 3.77393 74.4629V40.3179C3.77393 39.9749 3.94593 39.7969 4.28993 39.7969H7.85493C8.19893 39.7969 8.37193 39.9699 8.37193 40.3179V61.3419L17.4629 52.1479C17.7039 51.9079 17.9449 51.7859 18.1859 51.7859H22.9389C23.1449 51.7859 23.2829 51.8729 23.3519 52.0439C23.4219 52.2509 23.4099 52.4049 23.2939 52.5089L13.6919 61.8049L23.7119 74.2549C23.8499 74.3929 23.8849 74.5649 23.8169 74.7709ZM42.4399 74.9779H38.8759C38.4959 74.9779 38.3079 74.8059 38.3079 74.4559V73.7319C36.7919 74.8679 34.8469 75.4369 32.4709 75.4369C30.3009 75.4369 28.4239 74.7639 26.8389 73.4229C25.2889 72.0459 24.5149 70.2939 24.5149 68.1539C24.5149 64.7789 26.6149 62.4889 30.8169 61.2839C32.4699 60.8009 34.9659 60.3889 38.3069 60.0439C38.4109 58.7709 38.0749 57.6859 37.2999 56.7899C36.5239 55.8939 35.3959 55.4469 33.9159 55.4469C31.9869 55.4469 30.0249 56.1419 28.0279 57.5129C27.7179 57.6859 27.4939 57.6509 27.3559 57.4099L25.5019 54.7759C25.3289 54.5689 25.3819 54.3279 25.6559 54.0529C28.3079 52.2279 31.0629 51.3149 33.9209 51.3149C36.1249 51.3149 38.0019 51.8309 39.5529 52.8649C41.8259 54.3799 42.9619 56.8069 42.9619 60.1469V74.4549C42.9619 74.7999 42.7889 74.9769 42.4399 74.9769M38.3069 64.1869C34.9319 64.5329 32.6249 64.9799 31.3859 65.5309C29.6979 66.2539 28.9399 67.2859 29.1119 68.6309C29.2149 69.3879 29.5949 69.9989 30.2489 70.4639C30.9029 70.9289 31.6609 71.1959 32.5219 71.2639C34.9319 71.4369 36.8669 70.7989 38.3069 69.3529V64.1869ZM64.0669 83.9399C62.1899 85.8849 59.5289 86.8589 56.0869 86.8589C54.0889 86.8589 52.1949 86.3589 50.4049 85.3609C50.0249 85.1189 49.5779 84.8009 49.0619 84.4049C48.4471 83.9294 47.8442 83.4386 47.2539 82.9329C47.0129 82.7269 46.9959 82.4689 47.1959 82.1579L49.6289 79.7249C49.6836 79.672 49.7486 79.631 49.8198 79.6043C49.891 79.5776 49.967 79.5659 50.0429 79.5699C50.1789 79.5723 50.3085 79.628 50.4039 79.7249C52.3319 81.6529 54.2089 82.6179 56.0339 82.6179C60.2059 82.6179 62.2839 80.4479 62.2839 76.1089V73.4229C60.6659 74.7659 58.5139 75.4379 55.8269 75.4379C52.4869 75.4379 49.8689 74.1819 47.9759 71.6679C46.3229 69.4639 45.4959 66.6849 45.4959 63.3509C45.4959 60.1829 46.2879 57.4969 47.8729 55.2979C49.7269 52.6479 52.3669 51.3209 55.7759 51.3209C58.3589 51.3209 60.5289 51.9929 62.2839 53.3359V52.3029C62.2839 51.9589 62.4559 51.7859 62.8009 51.7859H66.3659C66.7089 51.7859 66.8869 51.9589 66.8869 52.3029V75.3929C66.8869 79.1439 65.9489 81.9939 64.0719 83.9399M62.2899 59.1199C61.4289 56.9169 59.4309 55.8139 56.2979 55.8139C52.2689 55.8139 50.2559 58.3289 50.2559 63.3559C50.2559 66.1449 50.9279 68.1779 52.2699 69.4509C53.2679 70.4499 54.5599 70.9489 56.1439 70.9489C59.3799 70.9489 61.4299 69.8469 62.2849 67.6429L62.2899 59.1199ZM88.3639 83.9459C86.4869 85.8899 83.8269 86.8639 80.3839 86.8639C78.3849 86.8639 76.4919 86.3639 74.7009 85.3669C74.3219 85.1249 73.8749 84.8069 73.3589 84.4109C72.7442 83.9352 72.1413 83.4444 71.5509 82.9389C71.3099 82.7329 71.2929 82.4749 71.4929 82.1639L73.9259 79.7309C73.9804 79.678 74.0452 79.6368 74.1162 79.61C74.1873 79.5831 74.2631 79.5712 74.3389 79.5749C74.4754 79.5773 74.6054 79.6334 74.7009 79.7309C76.6289 81.6589 78.5049 82.6229 80.3309 82.6229C84.5019 82.6229 86.5879 80.4529 86.5879 76.1149V73.4289C84.9679 74.7719 82.8219 75.4429 80.1309 75.4429C76.7909 75.4429 74.1729 74.1869 72.2799 71.6729C70.6259 69.4699 69.7999 66.6909 69.7999 63.3569C69.7999 60.1889 70.5919 57.5029 72.1749 55.3039C74.0289 52.6529 76.6699 51.3269 80.0789 51.3269C82.6619 51.3269 84.8309 51.9989 86.5869 53.3419V52.3089C86.5869 51.9649 86.7589 51.7919 87.1039 51.7919H90.6679C91.0119 51.7919 91.1899 51.9649 91.1899 52.3089V75.3989C91.1899 79.1499 90.2509 81.9999 88.3749 83.9459M86.5929 59.1259C85.7319 56.9229 83.7339 55.8199 80.6009 55.8199C76.5709 55.8199 74.5569 58.3349 74.5569 63.3619C74.5569 66.1509 75.2289 68.1839 76.5719 69.4559C77.5699 70.4559 78.8619 70.9549 80.4459 70.9549C83.6819 70.9549 85.7319 69.8529 86.5859 67.6489V59.1319L86.5929 59.1259ZM99.0929 74.9769H95.5279C95.1839 74.9769 95.0069 74.8059 95.0069 74.4559V40.3179C95.0069 39.9749 95.1789 39.7969 95.5279 39.7969H99.0929C99.4359 39.7969 99.6139 39.9689 99.6139 40.3179V74.4629C99.6139 74.8069 99.4419 74.9839 99.0929 74.9839M125.073 64.4979C125.073 64.8419 124.899 65.0149 124.556 65.0149H107.768C107.974 66.7019 108.698 68.1149 109.938 69.2439C111.35 70.4499 113.123 71.0509 115.258 71.0509C117.152 71.0509 118.851 70.5179 120.372 69.4509C120.682 69.2429 120.94 69.2429 121.147 69.4509L123.58 71.9299C123.856 72.2059 123.856 72.4509 123.58 72.6529C121.1 74.5069 118.225 75.4419 114.948 75.4419C111.435 75.4419 108.508 74.2719 106.166 71.9299C103.894 69.6229 102.757 66.6779 102.757 63.0969C102.757 59.7219 103.875 56.8639 106.115 54.5219C108.181 52.3879 110.867 51.3199 114.168 51.3199C117.301 51.3199 119.935 52.4399 122.071 54.6779C124.274 56.9849 125.291 59.8779 125.119 63.3559L125.073 64.4979ZM118.306 56.9049C117.136 55.8379 115.723 55.3029 114.076 55.3029C112.526 55.3029 111.166 55.8199 109.996 56.8529C108.826 57.8849 108.084 59.2289 107.776 60.8819H120.224C120.189 59.2989 119.552 57.9719 118.312 56.9049" fill="#20BEFF"/>
</svg>
