<svg width="128" height="128" viewBox="0 0 128 128" fill="none" xmlns="http://www.w3.org/2000/svg">
<path fill-rule="evenodd" clip-rule="evenodd" d="M73.9438 49.7598C74.3288 49.0778 74.9188 48.4958 75.6888 48.2798C76.0368 48.2728 76.3838 48.2748 76.7328 48.2768C77.2048 48.4948 77.6198 48.8368 77.8768 49.2938C78.0798 49.7528 77.9698 50.2328 77.8658 50.6988C77.7358 50.9824 77.6239 51.274 77.5308 51.5718C77.4488 51.7498 77.3748 51.9318 77.3098 52.1158C77.2298 52.2948 77.1578 52.4758 77.0918 52.6588C77.0131 52.8375 76.9407 53.019 76.8748 53.2028C76.7968 53.3818 76.7248 53.5628 76.6568 53.7468C76.5798 53.9258 76.5068 54.1068 76.4398 54.2898C76.3628 54.4698 76.2898 54.6498 76.2218 54.8328C76.1448 55.0128 76.0718 55.1928 76.0058 55.3758C75.9276 55.5544 75.8552 55.7355 75.7888 55.9188C75.7106 56.0974 75.6382 56.2785 75.5718 56.4618C75.4938 56.6418 75.4208 56.8218 75.3548 57.0048C75.2763 57.1834 75.2035 57.3645 75.1368 57.5478C75.0588 57.7278 74.9868 57.9078 74.9198 58.0918C74.8428 58.2708 74.7698 58.4518 74.7028 58.6348C74.6248 58.8138 74.5518 58.9948 74.4858 59.1788C74.4069 59.3568 74.3345 59.5376 74.2688 59.7208C74.1908 59.8998 74.1168 60.0808 74.0508 60.2638C73.9738 60.4438 73.9008 60.6238 73.8348 60.8078C73.7064 61.097 73.5932 61.3927 73.4958 61.6938C74.8658 60.6658 76.2118 59.6008 77.6218 58.6288C77.7668 58.5518 77.9138 58.4758 78.0588 58.3978C78.5388 58.2008 79.0628 58.2378 79.5688 58.2718C79.9268 58.4768 80.2668 58.7218 80.4768 59.0878C80.6054 59.4211 80.6462 59.7818 80.5952 60.1353C80.5443 60.4889 80.4033 60.8234 80.1858 61.1068C79.9108 61.4498 79.5788 61.7388 79.2488 62.0268C79.0958 62.1288 78.9488 62.2368 78.8058 62.3528C78.0578 62.8668 77.3418 63.4268 76.6178 63.9728L76.9808 64.5178C77.0518 64.6288 77.1238 64.7398 77.1988 64.8508C77.3638 65.1498 77.5488 65.4348 77.7418 65.7178C77.9718 66.1318 78.2408 66.5218 78.5038 66.9148C78.6058 67.0958 78.7098 67.2758 78.8228 67.4518C78.8978 67.5618 78.9728 67.6718 79.0518 67.7818C79.2638 68.1738 79.4868 68.5638 79.6118 68.9948C79.6908 69.3128 79.5548 69.6248 79.4958 69.9348C79.1678 70.4538 78.7358 70.9288 78.1608 71.1748C77.7648 71.3048 77.3658 71.3228 76.9728 71.1718C76.7318 71.0018 76.4788 70.8338 76.3228 70.5768L74.6748 68.0938L74.4568 67.7668C74.3848 67.6568 74.3128 67.5478 74.2398 67.4398C74.1668 67.3298 74.0958 67.2208 74.0228 67.1138C73.9498 67.0038 73.8758 66.8928 73.8028 66.7858C73.3418 65.9868 72.7778 65.2558 72.3088 64.4628L72.3458 64.6028C72.2488 64.7798 72.1658 64.9638 72.0938 65.1518C72.0178 65.3318 71.9458 65.5138 71.8818 65.6968C71.8018 65.8748 71.7288 66.0568 71.6638 66.2398C71.5853 66.4181 71.5132 66.5992 71.4478 66.7828C71.3678 66.9608 71.2948 67.1428 71.2308 67.3258C70.8438 68.2408 70.5338 69.1908 70.0378 70.0558C69.6288 70.5088 69.2178 71.0178 68.5978 71.1748C68.3228 71.2108 68.0518 71.3588 67.7718 71.2808C67.5505 71.2282 67.327 71.1858 67.1018 71.1538C66.7748 70.8708 66.3848 70.5998 66.2568 70.1638C65.9848 69.5518 66.3498 68.9168 66.5178 68.3298C66.5978 68.1498 66.6738 67.9698 66.7418 67.7868C66.8168 67.6068 66.8908 67.4268 66.9568 67.2438C67.0328 67.0638 67.1078 66.8838 67.1758 66.7008C67.2508 66.5208 67.3258 66.3408 67.3928 66.1578C67.4688 65.9778 67.5418 65.7968 67.6098 65.6128C67.6868 65.4348 67.7588 65.2528 67.8258 65.0708C67.9028 64.8918 67.9758 64.7108 68.0428 64.5278C68.1188 64.3478 68.1928 64.1678 68.2608 63.9838C68.3378 63.8058 68.4108 63.6238 68.4778 63.4408C68.5548 63.2628 68.6278 63.0808 68.6948 62.8978C68.7718 62.7198 68.8448 62.5378 68.9118 62.3558C68.9888 62.1758 69.0618 61.9958 69.1298 61.8118C69.2058 61.6318 69.2798 61.4518 69.3468 61.2688C69.4238 61.0888 69.4968 60.9088 69.5638 60.7258C69.6408 60.5458 69.7138 60.3658 69.7808 60.1828C69.8578 60.0028 69.9308 59.8228 69.9988 59.6388C70.0758 59.4598 70.1488 59.2788 70.2148 59.0958C70.2928 58.9168 70.3648 58.7358 70.4318 58.5528C70.5088 58.3738 70.5818 58.1928 70.6488 58.0088C70.7258 57.8308 70.7998 57.6488 70.8658 57.4658C70.9438 57.2878 71.0158 57.1058 71.0838 56.9228C71.1608 56.7448 71.2338 56.5628 71.3008 56.3798C71.3778 56.2018 71.4508 56.0198 71.5178 55.8368C71.5948 55.6588 71.6678 55.4768 71.7338 55.2938C71.8838 54.9338 72.0318 54.5718 72.1688 54.2068C72.2468 54.0278 72.3188 53.8468 72.3868 53.6638C72.4638 53.4848 72.5368 53.3038 72.6038 53.1208C72.6808 52.9408 72.7538 52.7608 72.8198 52.5778C72.8978 52.3978 72.9708 52.2178 73.0378 52.0348C73.1148 51.8548 73.1878 51.6748 73.2548 51.4918C73.3318 51.3138 73.4048 51.1318 73.4708 50.9488C73.6358 50.5558 73.7948 50.1588 73.9438 49.7588V49.7598ZM6.5898 51.0138C7.8418 50.5828 9.1808 50.6138 10.4858 50.6768C10.6988 50.7198 10.9088 50.7748 11.1258 50.7958C11.8458 51.0128 12.5458 51.2928 13.1958 51.6738C14.0148 52.2718 14.7508 52.9978 15.2518 53.8868C15.3728 54.2118 15.5048 54.5328 15.6288 54.8568C15.8058 55.6028 15.7818 56.3708 15.7598 57.1318C15.6878 57.9808 15.4318 58.7978 15.1878 59.6088C15.0594 59.8922 14.9492 60.1834 14.8578 60.4808C14.6858 60.8208 14.5678 61.1858 14.3778 61.5178C14.7138 61.0768 15.1378 60.7148 15.5088 60.3038C16.1138 59.5748 16.8198 58.9398 17.4618 58.2438C18.2168 57.3358 19.1268 56.5688 19.8758 55.6538C21.2338 54.3258 22.4508 52.8638 23.8478 51.5738C24.0728 51.4298 24.2948 51.2828 24.5168 51.1328C25.0738 50.8188 25.7148 50.8308 26.3348 50.8848C26.8208 51.1248 27.2998 51.4778 27.4948 52.0038C27.6748 52.4138 27.5948 52.8688 27.5948 53.3018C27.4328 53.5938 27.2898 53.8958 27.1288 54.1878C27.0515 54.2979 26.9765 54.4096 26.9038 54.5228C26.4528 54.9788 26.0738 55.5008 25.6038 55.9408C25.0708 56.4958 24.5058 57.0248 24.0168 57.6208C23.2818 58.4048 22.4848 59.1318 21.7948 59.9568C21.2428 60.5278 20.6778 61.0848 20.1328 61.6628C19.5498 62.3678 18.8698 62.9848 18.2428 63.6498L18.4448 64.0898C18.5728 64.4948 18.7028 64.8998 18.8758 65.2888C19.0118 65.6888 19.1358 66.0958 19.3108 66.4838C19.4468 66.8838 19.5708 67.2908 19.7448 67.6788C19.8808 68.0788 20.0048 68.4858 20.1798 68.8718C20.3158 69.2738 20.4398 69.6798 20.6138 70.0668C20.7488 70.4668 20.8758 70.8728 21.0478 71.2608C21.1438 71.5578 21.2438 71.8568 21.3838 72.1398L21.4308 72.3368C21.5588 72.6638 21.6628 73.0008 21.7988 73.3258C21.8588 73.4718 21.9278 73.6158 21.9988 73.7578C22.3488 74.2958 23.0128 74.5508 23.6338 74.5608L119.984 74.5598C120.274 74.5558 120.551 74.6658 120.84 74.6898C121.067 74.8048 121.295 74.9198 121.525 75.0288C121.71 75.2348 121.851 75.4718 121.987 75.7128C122.003 76.1328 122.005 76.5548 121.981 76.9758C121.932 77.0894 121.887 77.2048 121.847 77.3218C121.582 77.7888 121.187 78.1648 120.731 78.4438C120.271 78.5828 119.817 78.7838 119.332 78.7978H21.9998C21.6068 78.8108 21.2328 78.6578 20.8388 78.6738C20.4368 78.5218 20.0068 78.4218 19.6488 78.1718C19.1868 77.8998 18.9238 77.4158 18.6168 76.9958C18.4868 76.7358 18.3548 76.4788 18.2288 76.2178C18.1467 75.9983 18.0553 75.7825 17.9548 75.5708C17.9448 75.5208 17.9208 75.4238 17.9098 75.3748C17.6748 74.7548 17.4588 74.1258 17.2068 73.5108C17.0688 73.1078 16.9478 72.6978 16.7608 72.3128L16.7138 72.1178C16.5848 71.7878 16.4838 71.4478 16.3378 71.1258C16.2452 70.8294 16.1363 70.5383 16.0118 70.2538C15.8758 69.8538 15.7518 69.4468 15.5758 69.0598C15.4408 68.6598 15.3148 68.2538 15.1428 67.8678C15.0513 67.5679 14.9387 67.2748 14.8058 66.9908L14.7578 66.7938C14.6298 66.4638 14.5288 66.1238 14.3828 65.8028C14.2903 65.5059 14.1812 65.2144 14.0558 64.9298C13.9055 64.4569 13.7336 63.991 13.5408 63.5338C13.5168 63.6738 13.4898 63.8138 13.4628 63.9538C13.3708 64.1308 13.2928 64.3138 13.2228 64.4998C13.1478 64.6798 13.0748 64.8598 13.0088 65.0428C12.9318 65.2218 12.8578 65.4028 12.7898 65.5848C12.7128 65.7648 12.6398 65.9458 12.5728 66.1288C12.4958 66.3078 12.4228 66.4888 12.3548 66.6718C12.2778 66.8508 12.2048 67.0318 12.1398 67.2168C11.9388 67.6428 11.7658 68.0798 11.5998 68.5198C11.5198 68.6998 11.4478 68.8798 11.3818 69.0628C11.3028 69.2418 11.2288 69.4228 11.1628 69.6068C11.0848 69.7848 11.0128 69.9668 10.9458 70.1498C10.8671 70.328 10.7944 70.5087 10.7278 70.6918C10.6488 70.8708 10.5768 71.0518 10.5098 71.2338C10.4318 71.4138 10.3598 71.5938 10.2928 71.7788C10.2008 71.9888 10.1178 72.2038 10.0328 72.4178L9.8228 72.8578C9.4798 73.4138 9.0918 73.9568 8.5288 74.3098L8.3148 74.4298C7.8928 74.5418 7.4678 74.7308 7.0218 74.6598C6.8368 74.6208 6.6568 74.5698 6.4708 74.5398C6.14298 74.361 5.84451 74.133 5.5858 73.8638C5.5058 73.7078 5.4238 73.5528 5.3378 73.3998C5.2358 72.6628 5.3818 71.9288 5.6928 71.2588C5.7708 71.0808 5.8448 70.8998 5.9128 70.7168C5.9908 70.5368 6.0628 70.3568 6.1298 70.1738C6.2078 69.9938 6.2798 69.8138 6.3468 69.6298C6.4248 69.4518 6.4988 69.2718 6.5648 69.0878C6.6418 68.9088 6.7158 68.7278 6.7828 68.5458C6.8598 68.3658 6.9328 68.1858 7.0008 68.0028C7.0768 67.8228 7.1508 67.6428 7.2178 67.4598C7.2948 67.2808 7.3678 67.0998 7.4358 66.9168C7.5118 66.7368 7.5858 66.5568 7.6518 66.3718C7.9308 65.7678 8.1648 65.1438 8.4088 64.5248C8.4868 64.3458 8.5618 64.1648 8.6278 63.9818C8.7048 63.8028 8.7788 63.6218 8.8448 63.4388C8.9228 63.2608 8.9958 63.0788 9.0618 62.8968C9.1408 62.7168 9.2148 62.5368 9.2808 62.3538C9.3578 62.1738 9.4308 61.9938 9.4978 61.8108C9.5748 61.6308 9.6488 61.4508 9.7158 61.2678C9.7918 61.0878 9.8658 60.9078 9.9338 60.7258C10.0108 60.5458 10.0838 60.3658 10.1508 60.1818C10.4688 59.4338 10.7438 58.6698 10.9508 57.8828C11.1058 57.3128 11.1908 56.6798 10.9728 56.1158C10.8047 55.8217 10.5783 55.5651 10.3075 55.3616C10.0366 55.1582 9.72707 55.0123 9.3978 54.9328C8.7028 54.8348 7.9758 54.8888 7.3278 55.1778C7.18081 55.244 7.03669 55.3164 6.8958 55.3948C5.7748 56.0998 4.8128 57.1948 4.5328 58.5198C4.4338 58.8308 4.4738 59.1648 4.4228 59.4848C4.4518 59.9208 4.4778 60.3608 4.6988 60.7508C5.00678 61.2687 5.46217 61.683 6.0068 61.9408C6.2318 62.0378 6.4568 62.1388 6.6928 62.2068C7.0258 62.3808 7.3298 62.6038 7.5868 62.8768L7.6848 63.1118C7.7308 63.2268 7.7778 63.3418 7.8268 63.4548C7.9848 64.4858 7.2798 65.4508 6.3638 65.8538C5.5288 66.0958 4.6138 66.0518 3.7758 65.8438C3.59826 65.7601 3.41708 65.6843 3.2328 65.6168C3.05105 65.5024 2.86562 65.394 2.6768 65.2918C1.8218 64.7128 1.2038 63.8718 0.686797 62.9928C0.582797 62.7328 0.484797 62.4698 0.364797 62.2168C0.0699084 61.2139 -0.0461955 60.1669 0.0217971 59.1238C0.166797 58.3118 0.278797 57.4818 0.583797 56.7038C0.700797 56.4528 0.800797 56.1928 0.904797 55.9348C1.0578 55.6848 1.2128 55.4328 1.3538 55.1758C1.5018 54.9598 1.6468 54.7438 1.7908 54.5238C2.58428 53.4921 3.54732 52.6028 4.6388 51.8938C5.06657 51.6633 5.50004 51.4436 5.9388 51.2348C6.1588 51.1678 6.3748 51.0928 6.5918 51.0148L6.5898 51.0138ZM117.166 53.9738C117.712 53.7578 118.304 53.7768 118.881 53.8158C119.231 53.9828 119.531 54.2288 119.788 54.5168L119.887 54.7508C119.931 54.8668 119.98 54.9838 120.032 55.0988C120.064 55.4508 119.99 55.7928 119.901 56.1318C119.821 56.3498 119.746 56.5698 119.678 56.7918C119.494 57.1405 119.333 57.5002 119.194 57.8688L119.01 58.1888C119.462 58.2688 119.924 58.2448 120.38 58.2748C120.495 58.3228 120.612 58.3678 120.732 58.4088C121.029 58.5998 121.356 58.8118 121.452 59.1788C121.655 59.6348 121.532 60.1418 121.424 60.6058C121.154 61.2268 120.564 61.5768 119.968 61.8308C119.178 62.0248 118.363 61.9478 117.557 61.9608L117.517 62.2078C117.426 62.3872 117.346 62.5719 117.277 62.7608C117.199 62.9408 117.127 63.1208 117.061 63.3038C116.983 63.4838 116.911 63.6638 116.844 63.8468C116.766 64.0268 116.694 64.2078 116.627 64.3898C116.549 64.5698 116.476 64.7508 116.41 64.9338C116.332 65.1128 116.259 65.2938 116.193 65.4778C116.114 65.6558 116.042 65.8366 115.976 66.0198C115.897 66.1988 115.824 66.3798 115.757 66.5618C115.675 66.7476 115.603 66.9379 115.543 67.1318C115.507 67.1688 115.434 67.2408 115.399 67.2778C116.345 67.3178 117.303 67.1918 118.232 67.4108C118.454 67.5228 118.677 67.6348 118.899 67.7488C119.021 67.9408 119.146 68.1308 119.269 68.3218C119.268 68.7588 119.349 69.2208 119.169 69.6338C119.082 69.8668 118.931 70.0678 118.799 70.2748C118.514 70.4838 118.229 70.6928 117.909 70.8468C116.993 71.0918 116.035 70.9678 115.099 70.9988C114.155 70.9638 113.19 71.0988 112.269 70.8468C111.696 70.5978 111.196 70.1948 110.927 69.6198C110.87 69.1658 110.694 68.7018 110.873 68.2498C110.965 67.7418 111.181 67.2778 111.38 66.8058C111.456 66.6268 111.528 66.4458 111.595 66.2628C111.672 66.0828 111.745 65.9028 111.813 65.7198C111.889 65.5398 111.962 65.3598 112.029 65.1768C112.106 64.9968 112.179 64.8168 112.246 64.6338C112.324 64.4538 112.396 64.2738 112.463 64.0908C112.763 63.3858 113.014 62.6588 113.337 61.9628C112.611 62.0098 111.729 61.8548 111.366 61.1428C111.316 60.8598 111.19 60.5828 111.242 60.2928C111.284 60.0698 111.338 59.8488 111.362 59.6238C111.629 59.0488 112.128 58.6418 112.704 58.3968C113.332 58.2038 113.99 58.2598 114.637 58.2298C115.002 58.0858 114.997 57.5638 115.179 57.2478C115.256 57.0698 115.329 56.8878 115.396 56.7048C115.473 56.5248 115.547 56.3448 115.615 56.1618C115.692 55.9818 115.765 55.7998 115.829 55.6138C115.935 55.3938 116.044 55.1758 116.152 54.9578C116.459 54.5998 116.793 54.2638 117.166 53.9738ZM33.1958 58.0588C33.7248 58.0068 34.2558 58.0408 34.7858 58.0568C35.2438 58.2168 35.7028 58.3778 36.1238 58.6238C36.5598 59.0098 36.9708 59.4308 37.2448 59.9518C37.3718 60.4508 37.5318 60.9568 37.4808 61.4778C37.4078 62.0698 37.2108 62.6358 37.0158 63.1968C36.4258 64.5408 35.8988 65.9138 35.3658 67.2818C36.3428 67.3108 37.3318 67.1958 38.2918 67.4088C38.643 67.564 38.9537 67.7981 39.1998 68.0928C39.4258 68.6508 39.3298 69.2588 39.1738 69.8208C38.8918 70.1748 38.5678 70.4958 38.1778 70.7288C37.9504 70.7961 37.7267 70.8755 37.5078 70.9668C35.7878 71.0178 34.0638 71.0158 32.3428 70.9688C31.9788 70.7758 31.5898 70.6118 31.2838 70.3308C31.0618 70.0868 30.9158 69.7878 30.7608 69.5008C30.7493 69.2637 30.7151 69.0283 30.6588 68.7978C30.7278 68.5718 30.7488 68.3358 30.7608 68.1018L30.8278 68.0008C30.8778 67.8178 30.9378 67.6388 30.9918 67.4578C31.1518 67.1008 31.2948 66.7358 31.4338 66.3708C31.5118 66.1918 31.5858 66.0108 31.6518 65.8278C31.7308 65.6488 31.8028 65.4678 31.8698 65.2848C31.9478 65.1068 32.0218 64.9268 32.0878 64.7448C32.1648 64.5638 32.2378 64.3828 32.3058 64.1998C32.3828 64.0198 32.4558 63.8398 32.5238 63.6578C32.7583 63.2154 32.8591 62.7144 32.8138 62.2158C32.6403 62.0354 32.4432 61.8793 32.2278 61.7518C32.0778 61.7408 31.9278 61.7278 31.7788 61.7118C30.8838 61.6368 30.1968 62.3078 29.7188 62.9818C29.5928 63.1888 29.4768 63.4018 29.3628 63.6158C28.5098 65.5478 27.7778 67.5308 26.9798 69.4878C26.8398 69.7078 26.7038 69.9318 26.5828 70.1628C26.2188 70.5948 25.7888 70.9698 25.2558 71.1728C25.0608 71.1968 24.8698 71.2338 24.6808 71.2798C24.3988 71.3568 24.1278 71.2078 23.8508 71.1758C23.5045 71.0203 23.1994 70.7861 22.9598 70.4918C22.9258 70.4318 22.8558 70.3128 22.8228 70.2528C22.733 69.6359 22.8175 69.0062 23.0668 68.4348C23.1468 68.2568 23.2228 68.0748 23.2898 67.8918C23.3668 67.7118 23.4398 67.5318 23.5058 67.3488C23.5828 67.1688 23.6558 66.9888 23.7228 66.8058C23.7998 66.6258 23.8728 66.4458 23.9398 66.2628C24.0178 66.0828 24.0898 65.9028 24.1568 65.7198C24.2348 65.5398 24.3068 65.3598 24.3738 65.1768C24.4518 64.9968 24.5238 64.8168 24.5898 64.6338C25.2448 63.0038 25.9058 61.3758 26.5428 59.7388C26.6148 59.5948 26.6858 59.4498 26.7588 59.3058C27.0518 58.8328 27.4958 58.5028 27.9948 58.2718C28.5678 58.2488 29.1648 58.1718 29.7098 58.3968C30.0678 58.6138 30.3468 58.9238 30.5618 59.2798C30.7148 59.1698 30.8718 59.0648 31.0258 58.9568C31.3238 58.7928 31.6098 58.6088 31.9088 58.4458C32.3298 58.2938 32.7548 58.1408 33.1968 58.0588H33.1958ZM45.7028 58.1818C46.5528 57.9888 47.4278 58.0228 48.2928 58.0518C48.7728 58.1068 49.2388 58.2488 49.6958 58.4008C50.1618 58.6098 50.5878 58.8908 51.0088 59.1768C51.2688 59.4288 51.5258 59.6858 51.7788 59.9468C51.9198 60.1708 52.0688 60.3908 52.2198 60.6088C52.3318 60.8278 52.4418 61.0468 52.5548 61.2638C52.6998 61.7258 52.8088 62.1988 52.8948 62.6748C52.9228 63.1058 52.9048 63.5388 52.9088 63.9708C52.9388 64.5208 52.7218 65.0388 52.6658 65.5798C52.5468 65.9048 52.4358 66.2358 52.3328 66.5678C51.7938 67.8018 51.0588 68.9648 50.0298 69.8478C49.4278 70.2838 48.7738 70.6458 48.0548 70.8478C46.8028 71.0698 45.5238 70.9878 44.2568 70.9758C43.3868 70.8848 42.4778 70.7298 41.7688 70.1768C41.1042 69.6057 40.5772 68.8919 40.2268 68.0888C40.1918 67.977 40.1544 67.866 40.1148 67.7558C39.7198 66.3068 39.8008 64.7678 40.2248 63.3358C40.3088 63.1558 40.3828 62.9698 40.4458 62.7818C40.5848 62.4868 40.7308 62.1968 40.8828 61.9088C41.5068 60.8848 42.3428 60.0088 43.2968 59.2868L43.6318 59.0618C43.9868 58.8678 44.3488 58.6878 44.7118 58.5108C45.0438 58.4068 45.3748 58.2978 45.7028 58.1808V58.1818ZM57.8698 58.6688C58.5558 58.3848 59.2598 58.0988 60.0078 58.0478C60.8858 58.0238 61.7848 57.9678 62.6208 58.2888C63.2818 58.5738 63.8968 58.9708 64.3808 59.5098C65.1708 60.5518 65.3848 61.9458 65.0458 63.1938C64.9618 63.3718 64.8858 63.5518 64.8188 63.7348C64.7418 63.8491 64.6674 63.9651 64.5958 64.0828C64.4498 64.2338 64.3008 64.3828 64.1538 64.5328C64.0038 64.6088 63.8558 64.6868 63.7078 64.7658C62.9938 65.0458 62.1008 64.9158 61.6048 64.2978C61.3748 63.8258 61.5138 63.2888 61.4278 62.7898C61.3937 62.5948 61.3736 62.3976 61.3678 62.1998C61.2278 61.9388 61.0158 61.6768 60.7028 61.6398C60.2888 61.6298 59.8388 61.5698 59.4748 61.8198C58.9578 62.0638 58.6068 62.5238 58.2898 62.9818C58.1998 63.1218 58.1158 63.2618 58.0308 63.4028C57.8518 63.7828 57.6888 64.1808 57.6658 64.6048C57.4948 65.2798 57.6078 66.0478 58.0328 66.6078C58.4888 67.0838 59.1868 67.1668 59.8038 67.2738C61.2168 67.2978 62.6328 67.2718 64.0468 67.2848C64.4108 67.3248 64.7668 67.4258 65.1208 67.5198C65.3158 67.6628 65.5098 67.8098 65.6908 67.9738C65.7208 68.0338 65.7808 68.1568 65.8098 68.2188C65.8378 68.4338 65.8888 68.6458 65.9298 68.8598C65.8744 69.1837 65.7982 69.5037 65.7018 69.8178C65.5768 69.9658 65.4598 70.1178 65.3468 70.2748C65.1943 70.3842 65.0449 70.4979 64.8988 70.6158L64.6848 70.7328C64.2888 70.8658 63.8908 71.0218 63.4648 70.9908C61.4218 70.9898 59.3788 71.0328 57.3378 70.9638C57.1907 70.9109 57.0404 70.8675 56.8878 70.8338C56.6733 70.7402 56.4555 70.6545 56.2348 70.5768C55.9288 70.3851 55.634 70.1761 55.3518 69.9508C55.0398 69.7028 54.8368 69.3538 54.5678 69.0668C54.3752 68.7086 54.1911 68.3458 54.0158 67.9788C53.4348 66.2538 53.5978 64.3588 54.2368 62.6738C54.3808 62.3818 54.5238 62.0898 54.6788 61.8038C54.7978 61.6278 54.9038 61.4458 55.0088 61.2618C55.6265 60.4234 56.3672 59.6831 57.2058 59.0658C57.4308 58.9408 57.6508 58.8058 57.8698 58.6688ZM87.2868 58.0618C88.4148 58.0018 89.5768 57.9668 90.6448 58.4018C91.7344 58.8827 92.6428 59.6976 93.2388 60.7288C93.2858 60.8348 93.3348 60.9408 93.3838 61.0468C93.4498 61.2338 93.5248 61.4178 93.6108 61.5988C94.0538 63.1188 93.8878 64.7478 93.3908 66.2358C93.3068 66.4148 93.2308 66.5978 93.1698 66.7858C92.9968 67.1538 92.8158 67.5158 92.6258 67.8728C92.0378 68.8328 91.2818 69.6958 90.3188 70.2928L89.6658 70.6218C89.4398 70.6898 89.2158 70.7648 88.9958 70.8488C87.7508 71.0688 86.4778 70.9858 85.2178 70.9778C84.8578 70.9958 84.5178 70.8468 84.1578 70.8498C83.8048 70.7168 83.4308 70.6298 83.1078 70.4328C82.4978 70.0688 82.0318 69.5188 81.6118 68.9588C81.4598 68.6708 81.3148 68.3808 81.1688 68.0908C80.7208 66.8138 80.7278 65.4288 80.9498 64.1108C80.9978 63.9608 81.0328 63.8088 81.0688 63.6568C81.1438 63.4398 81.2148 63.2218 81.2828 63.0018C81.4928 62.5628 81.7058 62.1268 81.9398 61.6998L82.1678 61.3698C82.2808 61.2248 82.3908 61.0768 82.4938 60.9248C83.0398 60.3418 83.5878 59.7488 84.2438 59.2868C84.3558 59.2138 84.4648 59.1388 84.5758 59.0608C85.4119 58.5672 86.3303 58.2288 87.2868 58.0618ZM98.9158 58.1808C99.5848 57.9638 100.432 57.8938 100.988 58.4058C101.251 58.6158 101.413 58.9138 101.565 59.2058C101.59 59.6718 101.576 60.1388 101.43 60.5858C101.269 60.9438 101.124 61.3088 100.987 61.6758C100.907 61.8538 100.834 62.0358 100.769 62.2188C100.69 62.3969 100.618 62.578 100.553 62.7618C100.402 63.1218 100.254 63.4828 100.118 63.8478C100.039 64.0258 99.9648 64.2078 99.8998 64.3908C99.8198 64.5708 99.7488 64.7518 99.6858 64.9378C99.6328 65.0528 99.5818 65.1688 99.5308 65.2848L99.4298 65.5908C99.3938 65.6988 99.3598 65.8078 99.3228 65.9148C99.2828 66.0228 99.2408 66.1298 99.1988 66.2378C99.1048 66.5178 99.0788 66.8188 99.2428 67.0818C99.5058 67.3268 99.8728 67.2868 100.206 67.2868C100.707 67.3138 101.19 67.1288 101.632 66.9078C102.132 66.5738 102.524 66.0888 102.692 65.5068C102.768 65.3268 102.84 65.1448 102.908 64.9618C102.984 64.7818 103.056 64.6018 103.125 64.4188C103.201 64.2388 103.274 64.0578 103.342 63.8748C103.418 63.6958 103.491 63.5148 103.559 63.3318C103.635 63.1528 103.709 62.9718 103.777 62.7888C103.853 62.6088 103.925 62.4288 103.994 62.2448C104.069 62.0648 104.143 61.8848 104.21 61.7028C104.286 61.5228 104.361 61.3428 104.428 61.1598C104.505 60.9792 104.576 60.7961 104.641 60.6108C104.81 60.2418 104.988 59.8768 105.185 59.5228C105.261 59.4108 105.335 59.2978 105.409 59.1838C105.743 58.7918 106.172 58.4998 106.631 58.2718C107.056 58.2418 107.484 58.2358 107.91 58.2698C108.258 58.4378 108.558 58.6828 108.815 58.9698L108.915 59.2028C108.959 59.3178 109.008 59.4328 109.059 59.5468C109.121 60.2528 108.799 60.9068 108.594 61.5668C108.512 61.7438 108.437 61.9258 108.37 62.1088C108.293 62.2888 108.22 62.4688 108.154 62.6518C108.076 62.8304 108.003 63.0115 107.937 63.1948C107.858 63.3748 107.786 63.5548 107.718 63.7368C107.641 63.9168 107.568 64.0978 107.501 64.2808C107.423 64.4598 107.351 64.6408 107.287 64.8258C106.925 65.6318 106.607 66.4558 106.294 67.2818C107.384 67.3068 108.497 67.1748 109.553 67.5178C109.755 67.7138 109.993 67.8938 110.103 68.1648C110.164 68.3698 110.183 68.5868 110.24 68.7948C110.163 69.1378 110.134 69.4898 110.02 69.8228C109.82 70.1461 109.547 70.4183 109.224 70.6178C109.074 70.6918 108.925 70.7658 108.778 70.8428C108.077 71.0548 107.338 70.9858 106.616 70.9988C105.643 70.9908 104.669 71.0198 103.697 70.9708C103.289 70.7878 102.951 70.4948 102.662 70.1588L102.634 69.9708C102.41 70.1938 102.179 70.4088 101.944 70.6198C101.796 70.69 101.649 70.7614 101.502 70.8338C101.386 70.8746 101.272 70.9189 101.16 70.9668C99.8026 71.0175 98.444 71.0172 97.0868 70.9658C96.972 70.9198 96.856 70.8771 96.7388 70.8378C96.3008 70.6398 95.8618 70.4148 95.5228 70.0668C95.1708 69.7268 94.9548 69.2838 94.7458 68.8488C94.5888 68.3218 94.5918 67.7718 94.6248 67.2268C94.7288 66.7128 94.9088 66.2168 95.0808 65.7208C95.1618 65.5428 95.2358 65.3608 95.3028 65.1778C95.3808 64.9978 95.4528 64.8178 95.5198 64.6348C95.5968 64.4548 95.6698 64.2748 95.7378 64.0918C95.8138 63.9118 95.8878 63.7318 95.9548 63.5478C96.0318 63.3688 96.1048 63.1878 96.1718 63.0048C96.2488 62.8258 96.3218 62.6448 96.3898 62.4618C96.4668 62.2828 96.5398 62.1018 96.6068 61.9188C96.6838 61.7388 96.7568 61.5588 96.8238 61.3758C96.8998 61.1958 96.9738 61.0158 97.0418 60.8338C97.1178 60.6528 97.1918 60.4708 97.2538 60.2838C97.3938 59.9908 97.5398 59.7008 97.6858 59.4108C98.0031 58.9175 98.4225 58.4981 98.9158 58.1808ZM45.6718 62.1248C46.0598 61.8548 46.5138 61.6968 46.9808 61.6408C47.2438 61.6348 47.4928 61.7378 47.7518 61.7628C48.1878 61.9728 48.5378 62.3328 48.7598 62.7598C49.0868 63.8988 48.8448 65.1698 48.1738 66.1408C47.9162 66.5542 47.5507 66.8895 47.1168 67.1108C46.3724 67.4114 45.5408 67.4135 44.7948 67.1168C44.5018 66.9068 44.1908 66.6718 44.0668 66.3178C43.7838 65.4638 43.9558 64.5238 44.3448 63.7288C44.6578 63.1018 45.0948 62.5288 45.6718 62.1248ZM87.0348 61.8698C87.4828 61.7278 87.9678 61.5398 88.4368 61.7158C89.0238 61.8018 89.4538 62.2798 89.7128 62.7818C89.9728 63.6748 89.8558 64.6438 89.4858 65.4888C89.4048 65.6388 89.3198 65.7888 89.2308 65.9348C89.1578 66.0428 89.0878 66.1498 89.0168 66.2588C88.8038 66.5838 88.5218 66.8588 88.1848 67.0528C87.8008 67.2658 87.3658 67.2958 86.9398 67.3548C86.2798 67.3068 85.4818 67.1958 85.1298 66.5508C84.6378 65.6658 84.8848 64.5858 85.2958 63.7188C85.6828 62.9548 86.2548 62.2538 87.0348 61.8688V61.8698ZM122.693 67.0928C123.238 66.7478 123.875 66.6828 124.506 66.7468C124.624 66.7928 124.745 66.8368 124.868 66.8768C125.373 67.1268 125.795 67.5168 126.089 67.9968C126.363 68.6098 126.422 69.2958 126.201 69.9358C126.123 70.0828 126.048 70.2328 125.976 70.3828C125.73 70.6608 125.464 70.9198 125.192 71.1708C124.528 71.5128 123.722 71.5208 123.025 71.2818L122.807 71.1598C122.516 70.9751 122.265 70.7336 122.069 70.4498C121.873 70.166 121.737 69.8456 121.668 69.5078C121.648 69.1948 121.662 68.8798 121.668 68.5658C121.715 68.4498 121.76 68.3318 121.804 68.2148C121.874 68.0658 121.947 67.9188 122.018 67.7708C122.238 67.5408 122.464 67.3148 122.693 67.0928Z" fill="#E42E16"/>
</svg>
