<svg width="128" height="128" viewBox="0 0 128 128" fill="none" xmlns="http://www.w3.org/2000/svg">
<path d="M0 42.6001H20.2L0 62.5001V42.6001ZM0 85.4001L42.8 42.6001H21.6L0 63.9001V85.4001ZM42.8 85.4001L21.6 65.2001L1.4 85.4001H42.8ZM50 75.2001V52.4001H55.1V62.1001L64.4 52.4001H70.2L60.9 62.1001L70.2 75.2001H64.4L57.6 65.7001L55.1 68.2001V75.2001H50Z" fill="#7F6CB1"/>
<path d="M77.4998 57.8003C72.3998 57.8003 68.2998 61.7003 68.2998 66.5003C68.2998 71.3003 72.3998 75.2003 77.4998 75.2003C82.5998 75.2003 86.6998 71.3003 86.6998 66.5003C86.6998 61.7003 82.5998 57.8003 77.4998 57.8003ZM77.4998 71.4003C74.7998 71.4003 72.5998 69.2003 72.5998 66.5003C72.5998 63.8003 74.7998 61.6003 77.4998 61.6003C80.1998 61.6003 82.3998 63.8003 82.3998 66.5003C82.3998 69.2003 80.1998 71.4003 77.4998 71.4003Z" fill="#7F6CB1"/>
<path d="M87.8999 53.3999H92.9999V57.8999H96.9999V62.0999H92.9999V70.2999C92.9999 70.2999 94.4999 72.3999 96.9999 70.2999V74.7999C96.9999 74.7999 92.9999 76.7999 89.4999 74.7999C89.4999 74.7999 87.8999 73.1999 87.8999 71.2999V62.0999H85.8999V57.6999L87.8999 57.7999V53.3999ZM98.4999 51.3999H103.4V75.0999H98.4999V51.3999ZM105.2 51.3999H110.2V55.5999H105.2V51.3999ZM105.2 57.8999H110.2V75.1999H105.2V57.8999ZM111.9 57.8999H117V60.5999C117 60.5999 121.7 53.3999 127.4 60.5999L127.9 62.0999V75.1999H122.9V64.5999C122.9 64.5999 120.1 59.2999 117 64.5999V75.1999H111.9V57.8999Z" fill="#7F6CB1"/>
</svg>
