<svg width="128" height="128" viewBox="0 0 128 128" fill="none" xmlns="http://www.w3.org/2000/svg">
<path fill-rule="evenodd" clip-rule="evenodd" d="M120.935 30.6309C115.805 28.0869 110.919 25.4999 105.732 23.0619C95.627 18.3139 85.941 12.9259 75.78 8.28089C72.482 6.77389 69.347 5.03089 66.126 3.35789C65.049 2.79889 64.099 2.79589 63.007 3.35389C58.812 5.49689 54.565 7.50989 50.324 9.55689C40.269 14.4109 29.741 19.6389 19.639 24.4099C15.247 26.4839 11 28.6979 6 30.8059V97.2919C7 97.3349 7.035 97.3349 7.163 97.3979C10.351 98.9689 13.884 100.507 17.043 102.133C20.267 103.793 23.724 105.302 26.994 106.862C37.14 111.699 47.229 116.831 57.295 121.837C59.241 122.805 61.288 123.658 63.2 124.689C64.17 125.211 64.929 125.164 65.915 124.694C68.922 123.261 71.951 121.837 74.94 120.378C86.538 114.715 97.584 108.817 109.249 103.287C113.311 101.36 117 99.2699 121 97.1929V30.7369C121 30.6929 121.062 30.6939 120.935 30.6309ZM106.379 92.0779C103.964 94.6009 101.135 96.5089 98.028 98.0379C97.251 98.4199 96.453 98.8729 95.619 99.0039C94.338 99.2039 93.891 100.216 93.295 101.056C92.274 102.495 89.818 103.952 88.114 103.974C87.644 103.981 87.172 103.943 86.705 103.981C84.861 104.129 83.185 103.674 81.532 102.843C79.266 101.704 76.807 101.515 74.282 101.583C72.954 101.62 71.793 101.926 70.679 102.566C69.2 103.418 68.404 105.364 68.723 106.967C68.801 107.36 68.42 107.843 68.165 108.504C67.616 108.041 67.017 107.782 66.992 107.477C66.825 105.435 66.703 103.313 68.146 101.641C70.123 99.3489 72.694 98.0889 75.733 97.8709C76.512 97.8159 77.3 97.8829 78.083 97.8589C79.978 97.7989 81.77 98.1519 83.614 98.6629C85.142 99.0859 86.944 99.1749 88.484 98.1889C89.025 96.1589 87.952 94.6889 86.47 93.7349C84.906 92.7279 83.333 91.6639 81.404 91.2199C80.026 90.9039 78.811 89.9329 77.459 89.4269C76.104 88.9189 74.748 88.3699 73.394 87.8769C72.101 87.4059 70.629 87.4249 69.473 86.5799C67.326 86.6809 65.243 85.7219 63.09 86.1219C60.282 86.6439 57.447 87.1029 54.782 88.1849C52.771 89.0009 50.735 89.7579 48.806 90.7849C47.664 91.3929 46.36 91.6879 45.183 92.2409C44.261 92.6739 43.361 93.2099 42.56 93.8379C41.182 94.9209 40.261 96.2689 40.694 98.1809C42.394 98.9709 44.105 99.0759 45.923 98.4649C47.891 97.8029 49.969 97.9429 52.017 97.8189C54.613 97.6619 56.885 98.4739 58.975 99.7769C60.96 101.015 62.324 102.792 62.249 105.332C62.233 105.88 62.33 106.446 62.222 106.972C62.126 107.436 61.816 107.856 61.49 108.518C60.839 107.84 59.787 107.679 60.746 106.65C60.132 105.52 60.491 103.961 59.259 103.118C58.169 102.372 57.103 101.539 55.65 101.615C54.791 101.66 53.921 101.69 53.067 101.61C51.048 101.422 49.233 102.104 47.523 102.987C45.161 104.208 42.661 103.939 40.174 103.974C38.772 103.184 37.096 102.82 36.044 101.487C35.511 100.812 35.279 99.6029 34.646 99.3749C33.819 99.0769 33.062 98.5079 32.245 98.3779C30.179 98.0499 28.73 96.5999 27.017 95.6729C25.576 94.8929 24.422 93.5569 23.196 92.4079C21.853 91.1509 21.159 89.5719 20.849 87.7389C20.389 85.0209 21.447 82.4969 22.906 80.9589C24.826 78.9359 27.218 77.8909 29.798 76.9399C29.167 75.6899 28.681 74.2879 27.829 73.1629C27.013 72.0859 26.932 70.8189 26.602 69.6709C26.228 68.3679 26.261 66.8129 26.588 65.4829C26.909 64.1839 27.71 62.9479 28.513 61.8379C29.238 60.8359 30.221 60.0059 31.155 59.1749C31.454 58.9089 31.962 58.8789 32.343 58.7509C32.857 59.4679 32.697 59.9579 32.191 60.4729C31.665 61.0109 31.227 61.6349 30.746 62.2179C29.385 63.8679 29.814 65.8379 29.835 67.7029C29.848 68.9019 30.562 69.9019 31.249 70.8659C32.567 72.7149 33.914 74.4559 36.16 75.3729C37.363 75.8639 38.495 76.2829 39.798 76.2419C40.961 76.2049 42.126 76.2339 43.862 76.2339C42.843 75.7789 42.329 75.5559 41.82 75.3189C38.249 73.6579 36.39 70.8349 36.387 67.0769C36.386 65.7449 36.52 64.3959 36.347 63.0869C36.197 61.9539 36.853 61.0519 36.885 59.9869C36.914 59.0299 36.446 57.9599 37.328 57.1259C37.088 55.3059 37.775 53.4379 36.966 51.6359C36.539 50.6859 36.894 49.6269 36.469 48.5539C35.65 46.4869 35.062 44.4759 32.386 44.2239C32.099 44.1979 31.855 43.7269 31.603 43.4749C32.069 42.4639 32.546 42.2609 33.607 42.5959C36.318 43.4519 37.94 45.2829 39.244 47.6969C40.644 50.2899 41.115 53.0529 41.63 55.8949C42.148 58.7489 41.858 61.5759 42.051 64.4059C42.116 65.3489 42.372 66.2959 42.66 67.2029C42.94 68.0829 43.601 68.6069 44.505 68.6949C45.818 68.8269 46 68.7349 48 67.5289V65.1429C46 64.6559 46.939 63.4359 45.544 63.4809C45.015 63.4979 44.784 62.7119 44.804 62.0029C44.861 59.9679 44.98 57.9179 44.801 55.8969C44.608 53.7149 45.113 51.5999 45.438 49.5269C45.724 47.6949 45.938 45.7669 46.684 43.9629C47.375 42.2909 47.509 40.3899 48.179 38.7059C49.413 35.6059 50.801 32.5759 52.529 29.6879C53.516 28.0399 54.838 26.6249 55.67 24.8889C55.733 24.7579 55.814 24.6289 55.91 24.5189C57.125 23.1409 58.277 21.6969 59.581 20.4099C61.153 18.8589 62.857 17.4419 64.57 15.9079C66.361 17.4989 68.227 18.8769 69.751 20.5629C73.887 25.1419 77.521 30.1219 79.859 35.8649C80.948 38.5389 81.984 41.2649 82.534 44.1729C83.03 46.7969 83.545 49.4049 83.98 52.0439C84.544 55.4579 84.089 58.8299 84.36 62.2049C84.414 62.8739 83.45 63.5119 83.094 63.4839C81.692 63.3749 81 64.6409 80 65.1419V67.5519C81 68.4539 82.376 68.7769 83.597 68.7379C85.069 68.6909 86.078 67.8989 86.48 66.3759C86.919 64.7069 87.143 63.0459 86.999 61.3909C86.789 58.9829 87.321 56.6329 87.648 54.3089C88.03 51.5939 88.989 48.9439 90.423 46.5369C91.379 44.9319 94.244 42.7359 95.921 42.4039C96.658 42.2579 97.287 42.5109 97.558 43.5299C97.278 43.7469 96.964 44.2029 96.605 44.2379C94.236 44.4689 93.533 46.3139 92.83 48.0979C92.449 49.0629 92.538 50.2189 92.25 51.1579C91.757 52.7689 91.902 54.3399 91.896 55.9249C91.893 56.8779 92.167 57.8339 92.342 58.7839C92.503 59.6589 91.956 60.6249 92.765 61.4439C92.962 61.6439 92.806 62.1949 92.807 62.5849C92.808 64.0729 92.777 65.5629 92.813 67.0489C92.906 70.7779 90.319 74.9199 85.803 76.0509C88.61 76.2889 91.341 76.5149 93.988 74.8929C96.566 73.3119 97.944 70.8869 99.389 68.4429C99.424 65.6319 99.809 62.7139 97.196 60.6639C96.63 60.2189 96.467 59.7099 96.652 58.7959C97.138 58.8649 97.651 58.7799 97.846 58.9899C99.284 60.5389 101.185 61.7119 101.869 63.8919C102.063 64.5089 102.657 65.0889 102.631 65.6679C102.566 67.1869 102.881 68.6889 102.418 70.2519C102.064 71.4479 101.689 72.6229 101.158 73.7329C100.655 74.7839 99.986 75.7549 99.353 76.8219C100.239 77.2539 101.086 77.8159 102.018 78.0909C104.004 78.6779 105.366 80.0539 106.736 81.4639C108.099 82.8669 108.267 84.7489 108.791 86.4889C108.062 88.3819 107.899 90.4889 106.379 92.0779ZM33.234 84.2189C32.457 84.2879 31.666 84.1849 30.887 84.2399C29.624 84.3289 28.45 84.7849 27.416 85.4779C26.373 86.1769 26.296 86.8249 26.789 88.0329C27.278 89.2329 28.008 90.2279 28.935 91.1469C30.588 92.7859 32.31 94.3119 34.34 95.4489C35.063 91.4319 37.311 88.5199 40.735 86.3799C40.137 86.0859 39.667 85.8859 39.228 85.6339C37.368 84.5699 35.397 84.0259 33.234 84.2189ZM101.961 85.6259C101.385 85.1149 99.176 84.2499 98.312 84.2339C97.217 84.2139 96.114 84.3039 95.026 84.2119C93.389 84.0739 91.976 84.7149 90.547 85.3259C89.881 85.6099 89.254 85.9819 88.471 86.3849C91.888 88.5209 94.137 91.4329 94.873 95.5319C95.773 94.8869 96.708 94.3269 97.511 93.6169C98.9664 92.3398 100.369 91.0037 101.715 89.6119C102.143 89.1679 102.321 88.4669 102.562 87.8619C102.905 87.0029 102.688 86.2719 101.961 85.6259ZM57.462 63.0749C56.398 63.1039 56.084 63.5509 56.137 64.9609C56.177 66.0349 56.637 66.4459 57.71 66.3659C58.582 66.3009 59.521 65.3339 59.427 64.5969C59.332 63.8329 58.32 63.0499 57.462 63.0749ZM71.779 63.0749C70.772 63.0279 69.719 63.9249 69.77 64.7859C69.816 65.5629 70.789 66.3689 71.677 66.3659C72.71 66.3619 73.05 65.9699 73.061 64.7719C73.073 63.5209 72.771 63.1209 71.779 63.0749Z" fill="#0081C2"/>
</svg>
