<svg width="128" height="128" viewBox="0 0 128 128" fill="none" xmlns="http://www.w3.org/2000/svg">
<path fill-rule="evenodd" clip-rule="evenodd" d="M109.629 24.5729C105.52 22.5339 101.445 20.4619 97.289 18.5089C89.193 14.7049 81.354 10.3889 73.213 6.66588C70.571 5.45788 68.02 4.06188 65.44 2.72288C64.577 2.27488 63.796 2.27188 62.921 2.71888C59.56 4.43588 56.148 6.04888 52.75 7.68888C44.693 11.5779 36.641 15.7669 28.546 19.5889C25.027 21.2499 22 23.0249 18 24.7129V77.9799C19 78.0149 18.443 78.0149 18.546 78.0649C21.1 79.3229 23.737 80.5559 26.269 81.8579C28.852 83.1869 31.524 84.3969 34.144 85.6459C42.273 89.5209 50.308 93.6329 58.373 97.6439C59.932 98.4199 61.548 99.1029 63.079 99.9289C63.856 100.348 64.453 100.31 65.242 99.9329C67.651 98.7849 70.072 97.6439 72.467 96.4749C81.759 91.9379 90.925 87.2119 100.271 82.7819C103.525 81.2389 106 79.5639 110 77.8999V24.6569L109.629 24.5729ZM97.648 73.8019C95.713 75.8229 93.447 77.3529 90.958 78.5779C90.335 78.8839 89.696 79.2469 89.028 79.3519C88.001 79.5119 87.644 80.3229 87.166 80.9959C86.348 82.1489 84.38 83.3159 83.016 83.3339C82.64 83.3389 82.261 83.3089 81.887 83.3389C80.41 83.4579 79.068 83.0929 77.742 82.4269C75.926 81.5149 73.956 81.3629 71.934 81.4179C70.87 81.4479 69.939 81.6929 69.047 82.2059C67.861 82.8879 67.224 84.4479 67.48 85.7319C67.543 86.0459 67.237 86.4339 67.034 86.9629C66.594 86.5919 66.114 86.3839 66.095 86.1399C65.961 84.5039 65.863 82.8039 67.019 81.4639C68.602 79.6289 70.663 78.6189 73.098 78.4439C73.723 78.3999 74.354 78.4539 74.981 78.4339C76.499 78.3859 77.934 78.6689 79.412 79.0789C80.637 79.4179 82.08 79.4889 83.314 78.6989C83.747 77.0729 82.888 75.8949 81.7 75.1309C80.447 74.3239 79.187 73.4719 77.641 73.1159C76.537 72.8629 75.564 72.0849 74.481 71.6779C73.395 71.2719 72.309 70.8309 71.224 70.4369C70.188 70.0599 69.009 70.0759 68.082 69.3979C66.361 69.4789 64.692 68.7099 62.968 69.0309C60.718 69.4499 58.447 69.8179 56.312 70.6839C54.701 71.3379 53.07 71.9439 51.524 72.7669C50.609 73.2539 49.564 73.4899 48.621 73.9329C47.882 74.2799 47.162 74.7089 46.52 75.2129C45.416 76.0799 44.678 77.1609 45.025 78.6919C46.386 79.3259 47.757 79.4089 49.214 78.9199C50.79 78.3899 52.455 78.5019 54.096 78.4019C56.176 78.2769 57.996 78.9269 59.67 79.9709C61.261 80.9629 62.354 82.3869 62.294 84.4219C62.281 84.8609 62.359 85.3149 62.272 85.7349C62.195 86.1069 61.946 86.4429 61.686 86.9739C61.164 86.4309 60.321 86.3019 61.09 85.4779C60.598 84.5729 60.886 83.3239 59.899 82.6479C59.025 82.0509 58.172 81.3829 57.007 81.4439C56.319 81.4799 55.622 81.5049 54.938 81.4399C53.321 81.2899 51.866 81.8359 50.496 82.5429C48.604 83.5209 46.601 83.3059 44.609 83.3339C43.485 82.7009 42.143 82.4099 41.3 81.3419C40.873 80.8009 40.688 79.8329 40.18 79.6499C39.517 79.4109 38.911 78.9559 38.256 78.8519C36.6 78.5889 35.44 77.4269 34.068 76.6849C32.913 76.0599 31.989 74.9899 31.006 74.0699C29.93 73.0619 29.374 71.7979 29.126 70.3289C28.757 68.1509 29.605 66.1279 30.774 64.8959C32.313 63.2749 34.229 62.4379 36.295 61.6759C35.79 60.6739 35.4 59.5509 34.718 58.6499C34.064 57.7869 33.999 56.7719 33.735 55.8529C33.436 54.8089 33.461 53.5629 33.724 52.4979C33.981 51.4559 34.623 50.4669 35.266 49.5779C35.847 48.7749 36.634 48.1109 37.383 47.4449C37.622 47.2319 38.029 47.2079 38.335 47.1049C38.747 47.6789 38.619 48.0709 38.213 48.4839C37.791 48.9149 37.441 49.4159 37.055 49.8819C35.965 51.2039 36.309 52.7819 36.325 54.2769C36.336 55.2379 36.908 56.0389 37.459 56.8119C38.515 58.2929 39.594 59.6869 41.393 60.4229C42.357 60.8169 43.265 61.1519 44.308 61.1189C45.24 61.0889 46.173 61.1129 47.564 61.1129C46.748 60.7479 46.336 60.5699 45.929 60.3799C43.068 59.0489 41.578 56.7869 41.576 53.7759C41.575 52.7089 41.682 51.6279 41.544 50.5799C41.424 49.6719 41.949 48.9489 41.975 48.0969C41.997 47.3299 41.622 46.4729 42.329 45.8039C42.137 44.3459 42.687 42.8499 42.038 41.4059C41.696 40.6449 41.981 39.7969 41.64 38.9369C40.984 37.2809 40.513 35.6689 38.369 35.4679C38.14 35.4469 37.944 35.0699 37.742 34.8679C38.116 34.0569 38.498 33.8949 39.348 34.1639C41.52 34.8499 42.82 36.3159 43.865 38.2509C44.987 40.3289 45.364 42.5419 45.776 44.8179C46.191 47.1049 45.958 49.3699 46.114 51.6369C46.166 52.3929 46.371 53.1509 46.602 53.8769C46.826 54.5829 47.417 55.0019 48.142 55.0719C49.191 55.1749 50 55.1019 51 54.1349V52.2229C50 51.8329 50.089 50.8549 48.971 50.8919C48.547 50.9059 48.332 50.2769 48.347 49.7069C48.392 48.0769 48.472 46.4349 48.329 44.8149C48.174 43.0669 48.572 41.3729 48.831 39.7119C49.06 38.2439 49.227 36.6989 49.826 35.2539C50.38 33.9139 50.485 32.3909 51.022 31.0419C52.01 28.5579 53.121 26.1299 54.506 23.8169C55.297 22.4959 56.355 21.3629 57.022 19.9719C57.073 19.8669 57.137 19.7639 57.214 19.6759C58.188 18.5719 59.11 17.4149 60.155 16.3829C61.415 15.1409 62.78 14.0059 64.152 12.7769C65.587 14.0509 67.082 15.1549 68.302 16.5059C71.616 20.1739 74.527 24.1639 76.401 28.7659C77.274 30.9089 78.103 33.0919 78.544 35.4219C78.941 37.5249 79.354 39.6139 79.703 41.7279C80.154 44.4629 79.79 47.1649 80.008 49.8689C80.051 50.4049 79.522 50.9159 79.237 50.8929C78.113 50.8069 78 51.8209 77 52.2219V54.1539C78 54.8769 78.661 55.1349 79.639 55.1039C80.818 55.0659 81.506 54.4319 81.827 53.2119C82.1762 51.9109 82.2963 50.5591 82.182 49.2169C82.014 47.2879 82.409 45.4049 82.672 43.5429C82.9886 41.3412 83.7391 39.2243 84.88 37.3149C85.647 36.0289 87.934 34.2699 89.277 34.0029C89.868 33.8859 90.367 34.0899 90.585 34.9059C90.36 35.0799 90.107 35.4449 89.82 35.4729C87.922 35.6589 87.358 37.1369 86.795 38.5659C86.489 39.3389 86.56 40.2649 86.33 41.0169C85.934 42.3089 86.051 43.5669 86.046 44.8359C86.044 45.5999 86.262 46.3649 86.402 47.1269C86.531 47.8279 86.093 48.6019 86.741 49.2579C86.899 49.4179 86.774 49.8599 86.774 50.1719C86.775 51.3639 86.75 52.5579 86.78 53.7489C86.854 56.7359 84.782 60.0549 81.164 60.9609C83.413 61.1519 85.601 61.3329 87.721 60.0329C89.786 58.7659 90.89 56.8239 92.048 54.8659C92.076 52.6139 92.384 50.2759 90.291 48.6339C89.837 48.2779 89.708 47.8699 89.855 47.1379C90.244 47.1929 90.655 47.1249 90.811 47.2929C91.963 48.5339 93.486 49.4739 94.035 51.2199C94.19 51.7149 94.666 52.1799 94.646 52.6429C94.594 53.8599 94.846 55.0629 94.475 56.3159C94.192 57.2739 93.892 58.2149 93.466 59.1049C93.063 59.9469 92.527 60.7249 92.02 61.5799C92.73 61.9259 93.409 62.3759 94.155 62.5969C95.746 63.0669 96.837 64.1699 97.934 65.2989C99.026 66.4239 99.161 67.9309 99.581 69.3249C98.997 70.8419 98.867 72.5299 97.648 73.8019ZM39.046 67.5069C38.424 67.5619 37.79 67.4789 37.166 67.5239C36.154 67.5959 35.214 67.9609 34.385 68.5169C33.55 69.0769 33.488 69.5959 33.883 70.5639C34.275 71.5259 34.86 72.3229 35.602 73.0589C36.926 74.3719 38.306 75.5939 39.932 76.5059C40.511 73.2879 42.312 70.9549 45.056 69.2399C44.577 69.0049 44.201 68.8439 43.849 68.6429C42.359 67.7879 40.78 67.3519 39.046 67.5069ZM94.109 68.6339C93.648 68.2239 91.878 67.5309 91.186 67.5189C90.309 67.5029 89.425 67.5749 88.553 67.5009C87.241 67.3899 86.11 67.9039 84.965 68.3929C84.432 68.6209 83.929 68.9189 83.301 69.2419C86.039 70.9529 87.84 73.2859 88.43 76.5699C89.151 76.0529 89.9 75.6039 90.544 75.0359C91.7099 74.0125 92.8335 72.9419 93.912 71.8269C94.255 71.4719 94.398 70.9099 94.591 70.4259C94.865 69.7369 94.691 69.1509 94.109 68.6339ZM58.458 50.5659C57.605 50.5899 57.354 50.9469 57.396 52.0769C57.428 52.9379 57.796 53.2669 58.656 53.2029C59.355 53.1509 60.107 52.3759 60.032 51.7859C59.956 51.1739 59.145 50.5469 58.458 50.5659ZM69.929 50.5659C69.122 50.5279 68.279 51.2469 68.32 51.9369C68.357 52.5599 69.136 53.2059 69.848 53.2029C70.675 53.1989 70.948 52.8859 70.956 51.9259C70.965 50.9229 70.723 50.6029 69.929 50.5659Z" fill="#0081C2"/>
<path d="M26.0531 114.115H26.1011C26.3931 113.702 26.7821 113.168 27.1221 112.778L30.5981 108.718H33.1511L28.6051 113.556L33.7831 120.485H31.1821L27.1461 114.82L26.0521 116.06V120.485H23.9131V103.224H26.0521V114.115H26.0531ZM35.7531 112.389C35.7531 111.003 35.7291 109.812 35.6561 108.718H37.5281L37.6251 111.028H37.6981C38.2331 109.448 39.5461 108.451 40.9801 108.451C41.1991 108.451 41.3691 108.475 41.5631 108.524V110.517C41.3201 110.493 41.1011 110.469 40.8101 110.469C39.3031 110.469 38.2331 111.612 37.9411 113.192C37.8907 113.53 37.8663 113.871 37.8681 114.213V120.485H35.7291L35.7531 112.389ZM51.8231 117.665C51.8231 118.686 51.8721 119.683 51.9931 120.485H50.0731L49.8781 119.002H49.8061C49.1741 119.926 47.8851 120.752 46.2071 120.752C43.8251 120.752 42.6091 119.075 42.6091 117.373C42.6091 114.529 45.1371 112.973 49.6831 112.997V112.755C49.6831 111.782 49.4161 110.007 47.0091 110.031C45.8911 110.031 44.7481 110.347 43.9221 110.906L43.4361 109.472C44.4081 108.864 45.8431 108.451 47.3261 108.451C50.9491 108.451 51.8241 110.906 51.8241 113.265V117.665H51.8231ZM49.7321 114.48C47.3981 114.431 44.7481 114.844 44.7481 117.129C44.7481 118.539 45.6721 119.172 46.7421 119.172C48.2981 119.172 49.2951 118.199 49.6351 117.202C49.7081 116.983 49.7321 116.74 49.7321 116.521V114.48ZM57.3911 114.115H57.4401C57.7321 113.702 58.1211 113.168 58.4611 112.778L61.9381 108.718H64.4901L59.9441 113.556L65.1221 120.485H62.5211L58.4851 114.82L57.3911 116.06V120.485H55.2521V103.224H57.3911V114.115ZM68.0391 114.966C68.0881 117.859 69.9111 119.05 72.0501 119.05C73.5811 119.05 74.5291 118.782 75.3071 118.467L75.6961 119.974C74.9431 120.314 73.6301 120.728 71.7581 120.728C68.1601 120.728 65.9721 118.321 65.9721 114.796C65.9721 111.222 68.0871 108.426 71.5151 108.426C75.3561 108.426 76.3531 111.806 76.3531 113.969C76.3531 114.407 76.3291 114.747 76.2801 114.99L68.0391 114.966ZM74.2871 113.435C74.3111 112.098 73.7271 109.958 71.3451 109.958C69.1571 109.958 68.2331 111.952 68.0631 113.435H74.2871ZM79.0031 111.903C79.0031 110.664 78.9791 109.691 78.9061 108.718H80.8021L80.9231 110.639H80.9721C81.5551 109.545 82.9171 108.451 84.8621 108.451C86.4911 108.451 89.0191 109.424 89.0191 113.459V120.485H86.8801V113.702C86.8801 111.806 86.1741 110.202 84.1571 110.202C82.7711 110.202 81.6781 111.199 81.2881 112.39C81.1911 112.658 81.1421 113.046 81.1421 113.387V120.486H79.0031V111.903Z" fill="black"/>
<path d="M89.604 123.937C90.601 123.864 91.427 123.596 91.938 123.037C92.521 122.381 92.764 121.433 92.764 118.613V108.718H94.904V119.439C94.904 121.725 94.539 123.208 93.494 124.277C92.546 125.225 90.99 125.614 89.848 125.614L89.604 123.937ZM93.785 106.554C92.983 106.554 92.448 105.922 92.448 105.169C92.448 104.416 93.007 103.808 93.834 103.808C94.661 103.808 95.195 104.416 95.195 105.169C95.195 105.922 94.685 106.554 93.809 106.554H93.785ZM98.112 118.321C98.768 118.71 99.886 119.148 100.956 119.148C102.488 119.148 103.217 118.395 103.217 117.398C103.217 116.377 102.61 115.818 101.053 115.235C98.914 114.457 97.917 113.314 97.917 111.904C97.917 110.008 99.473 108.452 101.977 108.452C103.168 108.452 104.214 108.768 104.846 109.181L104.336 110.712C103.874 110.445 103.023 110.031 101.929 110.031C100.665 110.031 99.984 110.76 99.984 111.635C99.984 112.632 100.665 113.07 102.196 113.653C104.214 114.406 105.284 115.428 105.284 117.202C105.284 119.293 103.655 120.751 100.908 120.751C99.619 120.751 98.428 120.411 97.601 119.925L98.112 118.321Z" fill="#0081C2"/>
</svg>
