<svg width="128" height="128" viewBox="0 0 128 128" fill="none" xmlns="http://www.w3.org/2000/svg">
<path d="M109.689 24.5729C105.579 22.5339 101.535 20.4619 97.379 18.5089C89.283 14.7049 81.459 10.3889 73.317 6.66588C70.675 5.45788 68.132 4.06188 65.551 2.72288C64.688 2.27488 63.911 2.27188 63.036 2.71888C59.675 4.43588 56.265 6.04888 52.867 7.68888C44.81 11.5779 36.698 15.7669 28.604 19.5889C25.086 21.2499 22 23.0249 18 24.7129V77.9799C19 78.0149 18.503 78.0149 18.606 78.0649C21.16 79.3229 23.827 80.5559 26.358 81.8579C28.94 83.1869 31.629 84.3969 34.249 85.6459C42.378 89.5209 50.42 93.6329 58.485 97.6439C60.044 98.4199 61.663 99.1029 63.194 99.9289C63.971 100.348 64.569 100.31 65.36 99.9329C67.769 98.7849 70.191 97.6439 72.586 96.4749C81.878 91.9379 90.984 87.2119 100.33 82.7819C103.584 81.2389 107 79.5639 110 77.8999V24.6569L109.689 24.5729ZM97.769 73.8019C95.834 75.8229 93.568 77.3529 91.079 78.5779C90.456 78.8839 89.817 79.2469 89.149 79.3519C88.122 79.5119 87.765 80.3229 87.287 80.9959C86.469 82.1489 84.501 83.3159 83.137 83.3339C82.76 83.3389 82.382 83.3089 82.008 83.3389C80.531 83.4579 79.188 83.0929 77.863 82.4269C76.047 81.5149 74.077 81.3629 72.055 81.4179C70.991 81.4479 70.06 81.6929 69.168 82.2059C67.982 82.8879 67.345 84.4479 67.601 85.7319C67.663 86.0459 67.358 86.4339 67.155 86.9629C66.715 86.5919 66.235 86.3839 66.216 86.1399C66.082 84.5039 65.984 82.8039 67.14 81.4639C68.723 79.6289 70.784 78.6189 73.219 78.4439C73.844 78.3999 74.475 78.4539 75.102 78.4339C76.62 78.3859 78.055 78.6689 79.533 79.0789C80.758 79.4179 82.201 79.4889 83.435 78.6989C83.868 77.0729 83.009 75.8949 81.822 75.1309C80.569 74.3239 79.309 73.4719 77.763 73.1159C76.659 72.8629 75.686 72.0849 74.603 71.6779C73.517 71.2719 72.431 70.8309 71.346 70.4369C70.31 70.0599 69.131 70.0759 68.204 69.3979C66.483 69.4789 64.814 68.7099 63.09 69.0309C60.84 69.4499 58.569 69.8179 56.434 70.6839C54.823 71.3379 53.192 71.9439 51.646 72.7669C50.731 73.2539 49.686 73.4899 48.744 73.9329C48.005 74.2799 47.284 74.7089 46.643 75.2129C45.539 76.0799 44.801 77.1609 45.148 78.6919C46.51 79.3259 47.88 79.4089 49.337 78.9199C50.914 78.3899 52.578 78.5019 54.219 78.4019C56.299 78.2769 58.119 78.9269 59.793 79.9709C61.384 80.9629 62.477 82.3869 62.417 84.4219C62.404 84.8609 62.482 85.3149 62.395 85.7349C62.318 86.1069 62.069 86.4429 61.809 86.9739C61.287 86.4309 60.445 86.3019 61.212 85.4779C60.72 84.5729 61.008 83.3239 60.021 82.6479C59.148 82.0509 58.294 81.3829 57.13 81.4439C56.442 81.4799 55.745 81.5049 55.061 81.4399C53.444 81.2899 51.989 81.8359 50.619 82.5429C48.727 83.5209 46.724 83.3059 44.731 83.3339C43.607 82.7009 42.266 82.4099 41.422 81.3419C40.995 80.8009 40.809 79.8329 40.301 79.6499C39.638 79.4109 39.032 78.9559 38.377 78.8519C36.722 78.5889 35.561 77.4269 34.189 76.6849C33.035 76.0599 32.11 74.9899 31.128 74.0699C30.051 73.0619 29.495 71.7979 29.247 70.3289C28.879 68.1509 29.726 66.1279 30.895 64.8959C32.434 63.2749 34.35 62.4379 36.416 61.6759C35.911 60.6739 35.521 59.5509 34.839 58.6499C34.185 57.7869 34.12 56.7719 33.857 55.8529C33.557 54.8089 33.583 53.5629 33.845 52.4979C34.102 51.4559 34.744 50.4669 35.387 49.5779C35.968 48.7749 36.755 48.1109 37.504 47.4449C37.743 47.2319 38.15 47.2079 38.456 47.1049C38.868 47.6789 38.74 48.0709 38.334 48.4839C37.912 48.9149 37.562 49.4159 37.176 49.8819C36.086 51.2039 36.43 52.7819 36.447 54.2769C36.458 55.2379 37.029 56.0389 37.581 56.8119C38.637 58.2929 39.716 59.6869 41.515 60.4229C42.479 60.8169 43.386 61.1519 44.43 61.1189C45.362 61.0889 46.295 61.1129 47.686 61.1129C46.87 60.7479 46.457 60.5699 46.051 60.3799C43.19 59.0489 41.7 56.7869 41.697 53.7759C41.696 52.7089 41.803 51.6279 41.665 50.5799C41.545 49.6719 42.07 48.9489 42.097 48.0969C42.119 47.3299 41.744 46.4729 42.451 45.8039C42.259 44.3459 42.808 42.8499 42.16 41.4059C41.818 40.6449 42.102 39.7969 41.762 38.9369C41.105 37.2809 40.634 35.6689 38.491 35.4679C38.262 35.4469 38.066 35.0699 37.863 34.8679C38.237 34.0569 38.619 33.8949 39.469 34.1639C41.641 34.8499 42.941 36.3159 43.986 38.2509C45.108 40.3289 45.485 42.5419 45.897 44.8179C46.311 47.1049 46.079 49.3699 46.235 51.6369C46.287 52.3929 46.492 53.1509 46.723 53.8769C46.947 54.5829 47.478 55.0019 48.202 55.0719C49.25 55.1749 50 55.1019 51 54.1349V52.2229C50 51.8329 50.149 50.8549 49.031 50.8919C48.607 50.9059 48.421 50.2769 48.438 49.7069C48.483 48.0769 48.578 46.4349 48.435 44.8149C48.28 43.0669 48.685 41.3729 48.945 39.7119C49.174 38.2439 49.345 36.6989 49.943 35.2539C50.497 33.9139 50.604 32.3909 51.141 31.0419C52.13 28.5579 53.241 26.1299 54.626 23.8169C55.417 22.4959 56.476 21.3629 57.142 19.9719C57.1927 19.865 57.2576 19.7654 57.335 19.6759C58.309 18.5719 59.231 17.4149 60.275 16.3829C61.535 15.1409 62.9 14.0059 64.272 12.7769C65.708 14.0509 67.202 15.1549 68.423 16.5059C71.737 20.1739 74.648 24.1639 76.521 28.7659C77.394 30.9089 78.224 33.0919 78.665 35.4219C79.062 37.5249 79.475 39.6139 79.824 41.7279C80.276 44.4629 79.911 47.1649 80.129 49.8689C80.172 50.4049 79.582 50.9159 79.298 50.8929C78.173 50.8069 78 51.8209 77 52.2219V54.1539C78 54.8769 78.721 55.1349 79.699 55.1039C80.878 55.0659 81.595 54.4319 81.917 53.2119C82.269 51.8749 82.403 50.5439 82.287 49.2169C82.119 47.2879 82.522 45.4049 82.785 43.5429C83.1027 41.341 83.8542 39.2242 84.996 37.3149C85.762 36.0289 88.052 34.2699 89.395 34.0029C89.985 33.8859 90.486 34.0899 90.703 34.9059C90.478 35.0799 90.226 35.4449 89.939 35.4729C88.041 35.6589 87.477 37.1369 86.913 38.5659C86.608 39.3389 86.678 40.2649 86.449 41.0169C86.053 42.3089 86.17 43.5669 86.165 44.8359C86.163 45.5999 86.382 46.3649 86.522 47.1269C86.651 47.8279 86.213 48.6019 86.861 49.2579C87.019 49.4179 86.894 49.8599 86.894 50.1719C86.895 51.3639 86.87 52.5579 86.9 53.7489C86.974 56.7359 84.902 60.0549 81.284 60.9609C83.532 61.1519 85.721 61.3329 87.841 60.0329C89.906 58.7659 91.01 56.8239 92.169 54.8659C92.197 52.6139 92.505 50.2759 90.412 48.6339C89.958 48.2779 89.829 47.8699 89.976 47.1379C90.365 47.1929 90.776 47.1249 90.933 47.2929C92.085 48.5339 93.608 49.4739 94.157 51.2199C94.312 51.7149 94.788 52.1799 94.767 52.6429C94.715 53.8599 94.967 55.0629 94.597 56.3159C94.313 57.2739 94.014 58.2149 93.588 59.1049C93.185 59.9469 92.649 60.7249 92.142 61.5799C92.852 61.9259 93.531 62.3759 94.278 62.5969C95.869 63.0669 96.96 64.1699 98.057 65.2989C99.149 66.4239 99.284 67.9309 99.704 69.3249C99.117 70.8419 98.987 72.5299 97.769 73.8019ZM39.167 67.5069C38.545 67.5619 37.911 67.4789 37.287 67.5239C36.275 67.5959 35.334 67.9609 34.506 68.5169C33.671 69.0769 33.609 69.5959 34.004 70.5639C34.396 71.5259 34.98 72.3229 35.723 73.0589C37.047 74.3719 38.426 75.5939 40.053 76.5059C40.632 73.2879 42.433 70.9549 45.177 69.2399C44.698 69.0049 44.322 68.8439 43.969 68.6429C42.479 67.7879 40.9 67.3519 39.167 67.5069ZM94.229 68.6339C93.768 68.2239 91.998 67.5309 91.306 67.5189C90.428 67.5029 89.545 67.5749 88.673 67.5009C87.361 67.3899 86.23 67.9039 85.085 68.3929C84.552 68.6209 84.049 68.9189 83.422 69.2419C86.16 70.9529 87.961 73.2859 88.551 76.5699C89.272 76.0529 90.021 75.6039 90.665 75.0359C91.8311 74.0127 92.9547 72.9422 94.033 71.8269C94.376 71.4719 94.519 70.9099 94.711 70.4259C94.985 69.7369 94.811 69.1509 94.229 68.6339ZM58.578 50.5659C57.725 50.5899 57.474 50.9469 57.516 52.0769C57.548 52.9379 57.916 53.2669 58.776 53.2029C59.475 53.1509 60.227 52.3759 60.152 51.7859C60.076 51.1739 59.265 50.5469 58.578 50.5659ZM70.049 50.5659C69.242 50.5279 68.399 51.2469 68.44 51.9369C68.477 52.5599 69.256 53.2059 69.967 53.2029C70.795 53.1989 71.067 52.8859 71.076 51.9259C71.085 50.9229 70.843 50.6029 70.049 50.5659ZM25.454 114.115H25.502C25.794 113.702 26.183 113.168 26.523 112.778L29.999 108.718H32.552L28.006 113.556L33.184 120.485H30.583L26.547 114.82L25.453 116.06V120.485H23.314V103.224H25.453V114.115H25.454ZM35.154 112.389C35.154 111.003 35.13 109.812 35.057 108.718H36.929L37.026 111.028H37.099C37.634 109.448 38.947 108.451 40.381 108.451C40.6 108.451 40.77 108.475 40.964 108.524V110.517C40.721 110.493 40.502 110.469 40.211 110.469C38.704 110.469 37.634 111.612 37.342 113.192C37.2916 113.53 37.2672 113.871 37.269 114.213V120.485H35.13L35.154 112.389ZM51.224 117.665C51.224 118.686 51.273 119.683 51.394 120.485H49.474L49.279 119.002H49.207C48.575 119.926 47.286 120.752 45.608 120.752C43.226 120.752 42.01 119.075 42.01 117.373C42.01 114.529 44.538 112.973 49.084 112.997V112.755C49.084 111.782 48.817 110.007 46.41 110.031C45.292 110.031 44.149 110.347 43.323 110.906L42.837 109.472C43.809 108.864 45.244 108.451 46.727 108.451C50.35 108.451 51.225 110.906 51.225 113.265V117.665H51.224ZM49.133 114.48C46.799 114.431 44.149 114.844 44.149 117.129C44.149 118.539 45.073 119.172 46.143 119.172C47.699 119.172 48.696 118.199 49.036 117.202C49.109 116.983 49.133 116.74 49.133 116.521V114.48ZM56.792 114.115H56.841C57.133 113.702 57.522 113.168 57.862 112.778L61.339 108.718H63.891L59.345 113.556L64.523 120.485H61.922L57.886 114.82L56.792 116.06V120.485H54.653V103.224H56.792V114.115ZM67.44 114.966C67.489 117.859 69.312 119.05 71.451 119.05C72.982 119.05 73.93 118.782 74.708 118.467L75.097 119.974C74.344 120.314 73.031 120.728 71.159 120.728C67.561 120.728 65.373 118.321 65.373 114.796C65.373 111.222 67.488 108.426 70.916 108.426C74.757 108.426 75.754 111.806 75.754 113.969C75.754 114.407 75.73 114.747 75.681 114.99L67.44 114.966ZM73.688 113.435C73.712 112.098 73.128 109.958 70.746 109.958C68.558 109.958 67.634 111.952 67.464 113.435H73.688ZM78.404 111.903C78.404 110.664 78.38 109.691 78.307 108.718H80.203L80.324 110.639H80.373C80.956 109.545 82.318 108.451 84.263 108.451C85.892 108.451 88.42 109.424 88.42 113.459V120.485H86.281V113.702C86.281 111.806 85.575 110.202 83.558 110.202C82.172 110.202 81.079 111.199 80.689 112.39C80.592 112.658 80.543 113.046 80.543 113.387V120.486H78.404V111.903ZM89.004 123.937C90.001 123.864 90.827 123.596 91.338 123.037C91.921 122.381 92.164 121.433 92.164 118.613V108.718H94.304V119.439C94.304 121.725 93.939 123.208 92.894 124.277C91.946 125.225 90.39 125.614 89.248 125.614L89.004 123.937ZM93.186 106.554C92.384 106.554 91.849 105.922 91.849 105.169C91.849 104.416 92.408 103.808 93.235 103.808C94.062 103.808 94.596 104.416 94.596 105.169C94.596 105.922 94.086 106.554 93.21 106.554H93.186ZM97.513 118.321C98.169 118.71 99.287 119.148 100.357 119.148C101.889 119.148 102.618 118.395 102.618 117.398C102.618 116.377 102.011 115.818 100.454 115.235C98.315 114.457 97.318 113.314 97.318 111.904C97.318 110.008 98.874 108.452 101.378 108.452C102.569 108.452 103.615 108.768 104.247 109.181L103.737 110.712C103.275 110.445 102.424 110.031 101.33 110.031C100.066 110.031 99.385 110.76 99.385 111.635C99.385 112.632 100.066 113.07 101.597 113.653C103.615 114.406 104.685 115.428 104.685 117.202C104.685 119.293 103.056 120.751 100.309 120.751C99.02 120.751 97.829 120.411 97.002 119.925L97.513 118.321Z" fill="#0081C2"/>
</svg>
