<svg width="128" height="128" viewBox="0 0 128 128" fill="none" xmlns="http://www.w3.org/2000/svg">
<path fill-rule="evenodd" clip-rule="evenodd" d="M120.559 30.6309C115.429 28.0869 110.356 25.4999 105.168 23.0619C95.062 18.3139 85.284 12.9259 75.122 8.28089C71.825 6.77389 68.643 5.03089 65.422 3.35789C64.345 2.79889 63.371 2.79589 62.279 3.35389C58.084 5.49689 53.825 7.50989 49.585 9.55689C39.529 14.4109 29.371 19.6389 19.269 24.4099C14.877 26.4839 10 28.6979 6 30.8059V97.2919C6 97.3349 6.66 97.3349 6.788 97.3979C9.975 98.9689 13.321 100.507 16.48 102.133C19.704 103.793 23.066 105.302 26.336 106.862C36.482 111.699 46.524 116.831 56.591 121.837C58.537 122.805 60.56 123.658 62.472 124.689C63.442 125.211 64.19 125.164 65.176 124.694C68.183 123.261 71.206 121.837 74.195 120.378C85.793 114.715 97.213 108.817 108.877 103.287C112.938 101.36 116 99.2699 121 97.1929V30.7369C120 30.6929 120.687 30.6939 120.559 30.6309ZM105.627 92.0779C103.212 94.6009 100.383 96.5089 97.276 98.0379C96.499 98.4199 95.701 98.8729 94.867 99.0039C93.586 99.2039 93.139 100.216 92.543 101.056C91.522 102.495 89.066 103.952 87.362 103.974C86.892 103.981 86.42 103.943 85.953 103.981C84.109 104.129 82.433 103.674 80.78 102.843C78.514 101.704 76.055 101.515 73.53 101.583C72.202 101.62 71.04 101.926 69.927 102.566C68.448 103.418 67.651 105.364 67.971 106.967C68.049 107.36 67.668 107.843 67.413 108.504C66.864 108.041 66.265 107.782 66.24 107.477C66.073 105.435 65.951 103.313 67.394 101.641C69.371 99.3489 71.943 98.0889 74.982 97.8709C75.761 97.8159 76.549 97.8829 77.332 97.8589C79.227 97.7989 81.018 98.1519 82.863 98.6629C84.391 99.0859 86.193 99.1749 87.732 98.1889C88.273 96.1589 87.201 94.6889 85.718 93.7349C84.154 92.7279 82.581 91.6639 80.652 91.2199C79.274 90.9039 78.06 89.9329 76.708 89.4269C75.353 88.9189 73.997 88.3699 72.643 87.8769C71.35 87.4059 69.879 87.4249 68.722 86.5799C66.575 86.6809 64.492 85.7219 62.339 86.1219C59.53 86.6439 56.695 87.1029 54.031 88.1849C52.02 89.0009 49.984 89.7579 48.055 90.7849C46.913 91.3929 45.609 91.6879 44.432 92.2409C43.5006 92.6733 42.6208 93.209 41.809 93.8379C40.431 94.9209 39.51 96.2689 39.943 98.1809C41.642 98.9709 43.353 99.0759 45.172 98.4649C47.14 97.8029 49.218 97.9429 51.266 97.8189C53.862 97.6619 56.134 98.4739 58.224 99.7769C60.209 101.015 61.573 102.792 61.498 105.332C61.482 105.88 61.579 106.446 61.471 106.972C61.375 107.436 61.065 107.856 60.739 108.518C60.087 107.84 59.036 107.679 59.995 106.65C59.381 105.52 59.741 103.961 58.508 103.118C57.418 102.372 56.352 101.539 54.899 101.615C54.04 101.66 53.17 101.69 52.316 101.61C50.297 101.422 48.482 102.104 46.772 102.987C44.41 104.208 41.91 103.939 39.423 103.974C38.021 103.184 36.345 102.82 35.293 101.487C34.76 100.812 34.528 99.6029 33.895 99.3749C33.068 99.0769 32.311 98.5079 31.494 98.3779C29.428 98.0499 27.979 96.5999 26.266 95.6729C24.825 94.8929 23.671 93.5569 22.445 92.4079C21.102 91.1509 20.408 89.5719 20.098 87.7389C19.638 85.0209 20.696 82.4969 22.155 80.9589C24.076 78.9359 26.467 77.8909 29.048 76.9399C28.417 75.6899 27.931 74.2879 27.079 73.1629C26.263 72.0859 26.182 70.8189 25.852 69.6709C25.478 68.3679 25.511 66.8129 25.838 65.4829C26.159 64.1839 26.96 62.9479 27.763 61.8379C28.488 60.8359 29.471 60.0059 30.405 59.1749C30.704 58.9089 31.212 58.8789 31.593 58.7509C32.108 59.4679 31.947 59.9579 31.442 60.4729C30.915 61.0109 30.478 61.6349 29.997 62.2179C28.636 63.8679 29.066 65.8379 29.086 67.7029C29.099 68.9019 29.813 69.9019 30.5 70.8659C31.818 72.7149 33.165 74.4559 35.411 75.3729C36.614 75.8639 37.746 76.2829 39.049 76.2419C40.211 76.2049 41.377 76.2339 43.113 76.2339C42.095 75.7789 41.58 75.5559 41.071 75.3189C37.5 73.6579 35.641 70.8349 35.638 67.0769C35.637 65.7449 35.77 64.3959 35.598 63.0869C35.448 61.9539 36.104 61.0519 36.136 59.9869C36.165 59.0299 35.697 57.9599 36.579 57.1259C36.339 55.3059 37.025 53.4379 36.217 51.6359C35.79 50.6859 36.145 49.6269 35.72 48.5539C34.901 46.4869 34.313 44.4759 31.637 44.2239C31.35 44.1979 31.106 43.7269 30.853 43.4749C31.319 42.4639 31.797 42.2609 32.858 42.5959C35.569 43.4519 37.191 45.2829 38.495 47.6969C39.895 50.2899 40.366 53.0529 40.881 55.8949C41.399 58.7489 41.109 61.5759 41.302 64.4059C41.367 65.3489 41.623 66.2959 41.911 67.2029C42.19 68.0829 42.727 68.6069 43.632 68.6949C44.942 68.8269 46 68.7349 47 67.5289V65.1429C46 64.6559 46.062 63.4359 44.668 63.4809C44.139 63.4979 43.97 62.7119 43.99 62.0029C44.046 59.9679 44.197 57.9179 44.018 55.8969C43.825 53.7149 44.347 51.5999 44.671 49.5269C44.957 47.6949 45.177 45.7669 45.924 43.9629C46.615 42.2909 46.752 40.3899 47.423 38.7059C48.657 35.6059 50.047 32.5759 51.776 29.6879C52.763 28.0399 54.085 26.6249 54.917 24.8889C54.98 24.7579 55.061 24.6289 55.158 24.5189C56.374 23.1409 57.524 21.6969 58.829 20.4099C60.402 18.8589 62.105 17.4419 63.818 15.9079C65.609 17.4989 67.475 18.8769 68.999 20.5629C73.135 25.1419 76.769 30.1219 79.107 35.8649C80.196 38.5389 81.232 41.2649 81.782 44.1729C82.278 46.7969 82.793 49.4049 83.228 52.0439C83.792 55.4579 83.337 58.8299 83.609 62.2049C83.662 62.8739 83.075 63.5119 82.719 63.4839C81.316 63.3749 81 64.6409 80 65.1419V67.5519C81 68.4539 82 68.7769 83.221 68.7379C84.693 68.6909 85.515 67.8989 85.916 66.3759C86.355 64.7069 86.486 63.0459 86.341 61.3909C86.131 58.9829 86.615 56.6329 86.943 54.3089C87.3355 51.5614 88.2706 48.9195 89.694 46.5369C90.65 44.9319 93.504 42.7359 95.18 42.4039C95.917 42.2579 96.54 42.5109 96.811 43.5299C96.531 43.7469 96.214 44.2029 95.855 44.2379C93.485 44.4689 92.782 46.3139 92.079 48.0979C91.698 49.0629 91.786 50.2189 91.498 51.1579C91.005 52.7689 91.149 54.3399 91.144 55.9249C91.141 56.8779 91.415 57.8339 91.589 58.7839C91.751 59.6589 91.203 60.6249 92.013 61.4439C92.21 61.6439 92.054 62.1949 92.055 62.5849C92.056 64.0729 92.025 65.5629 92.061 67.0489C92.153 70.7779 89.567 74.9199 85.051 76.0509C87.858 76.2889 90.59 76.5149 93.236 74.8929C95.815 73.3119 97.192 70.8869 98.637 68.4429C98.672 65.6319 99.057 62.7139 96.444 60.6639C95.878 60.2189 95.715 59.7099 95.9 58.7959C96.386 58.8649 96.899 58.7799 97.093 58.9899C98.531 60.5389 100.432 61.7119 101.117 63.8919C101.311 64.5089 101.905 65.0889 101.879 65.6679C101.814 67.1869 102.129 68.6889 101.666 70.2519C101.312 71.4479 100.937 72.6229 100.406 73.7329C99.903 74.7839 99.233 75.7549 98.601 76.8219C99.487 77.2539 100.335 77.8159 101.267 78.0909C103.253 78.6779 104.615 80.0539 105.985 81.4639C107.348 82.8669 107.516 84.7489 108.04 86.4889C107.31 88.3819 107.147 90.4889 105.627 92.0779ZM32.481 84.2189C31.705 84.2879 30.914 84.1849 30.135 84.2399C28.872 84.3289 27.698 84.7849 26.664 85.4779C25.621 86.1769 25.544 86.8249 26.037 88.0329C26.526 89.2329 27.256 90.2279 28.183 91.1469C29.836 92.7859 31.558 94.3119 33.588 95.4489C34.31 91.4319 36.559 88.5199 39.983 86.3799C39.385 86.0859 38.915 85.8859 38.476 85.6339C36.616 84.5699 34.645 84.0259 32.481 84.2189ZM101.208 85.6259C100.632 85.1149 98.423 84.2499 97.56 84.2339C96.465 84.2139 95.362 84.3039 94.274 84.2119C92.637 84.0739 91.224 84.7149 89.795 85.3259C89.129 85.6099 88.502 85.9819 87.718 86.3849C91.135 88.5209 93.384 91.4329 94.121 95.5319C95.021 94.8869 95.956 94.3269 96.759 93.6169C98.2144 92.3398 99.6169 91.0037 100.963 89.6119C101.391 89.1679 101.569 88.4669 101.81 87.8619C102.153 87.0029 101.936 86.2719 101.208 85.6259ZM56.711 63.0749C55.646 63.1039 55.333 63.5509 55.385 64.9609C55.425 66.0349 55.885 66.4459 56.959 66.3659C57.831 66.3009 58.769 65.3339 58.676 64.5969C58.58 63.8329 57.568 63.0499 56.711 63.0749ZM71.027 63.0749C70.02 63.0279 68.967 63.9249 69.018 64.7859C69.065 65.5629 70.037 66.3689 70.925 66.3659C71.958 66.3619 72.298 65.9699 72.309 64.7719C72.321 63.5209 72.019 63.1209 71.027 63.0749Z" fill="#0081C2"/>
</svg>
