<svg width="128" height="128" viewBox="0 0 128 128" fill="none" xmlns="http://www.w3.org/2000/svg">
<path d="M59.1441 49.0983C59.4018 49.2866 59.7058 49.4013 60.0237 49.4303C60.3415 49.4593 60.6613 49.4013 60.9488 49.2627C61.2363 49.1241 61.4808 48.91 61.656 48.6432C61.8313 48.3765 61.9309 48.0672 61.9441 47.7483L61.9841 47.7283L62.5741 37.2183C61.8641 37.3083 61.1541 37.4283 60.4341 37.5883C56.5341 38.4783 53.1441 40.3983 50.4941 42.9983L59.1041 49.1083L59.1441 49.0983ZM57.9841 64.4883C57.8839 64.0441 57.6153 63.6562 57.2347 63.4062C56.8542 63.1563 56.3914 63.0638 55.9441 63.1483L55.9241 63.1283L45.5841 64.8783C47.1414 69.169 50.0644 72.8298 53.9041 75.2983L57.9141 65.6183L57.8841 65.5783C58.0241 65.2483 58.0741 64.8683 57.9841 64.4883ZM54.5441 57.0383C54.8941 56.9383 55.2141 56.7383 55.4641 56.4383C56.0541 55.6983 55.9541 54.6283 55.2441 54.0083L55.2541 53.9683L47.3841 46.9283C45.0541 50.7283 43.9441 55.2883 44.4541 59.9883L54.5341 57.0783L54.5441 57.0383ZM62.1841 60.1283L65.0841 61.5283L67.9841 60.1383L68.7041 57.0083L66.6941 54.5083H63.4741L61.4641 57.0083L62.1841 60.1283ZM68.2041 47.7183C68.2241 48.0783 68.3441 48.4383 68.5941 48.7383C69.1841 49.4783 70.2541 49.6183 71.0141 49.0683L71.0441 49.0783L79.6041 43.0083C76.3465 39.8156 72.1304 37.7813 67.6041 37.2183L68.2041 47.7183ZM74.2141 63.1083C73.8442 63.0345 73.4603 63.0873 73.1241 63.2583C72.2641 63.6683 71.8941 64.6883 72.2641 65.5483L72.2541 65.5683L76.3041 75.3483C80.2041 72.8583 83.1241 69.1483 84.6541 64.8583L74.2241 63.0983L74.2141 63.1083ZM66.6441 68.2883C66.4741 67.9683 66.2041 67.7083 65.8541 67.5383C65.4458 67.3365 64.975 67.3019 64.5417 67.442C64.1084 67.5821 63.7469 67.8857 63.5341 68.2883H63.5241L58.4441 77.4783C61.9641 78.6783 65.8441 78.9483 69.7441 78.0583C70.4441 77.8983 71.1241 77.7083 71.7841 77.4883L66.6841 68.2783H66.6441V68.2883Z" fill="#486BB3"/>
<path d="M113.054 66.2882L104.784 30.3782C104.568 29.4462 104.144 28.5748 103.545 27.8287C102.946 27.0826 102.187 26.4809 101.324 26.0682L67.854 10.0882C66.884 9.62816 65.824 9.41816 64.754 9.46816C63.904 9.50816 63.074 9.71816 62.304 10.0882L28.844 26.0782C27.9799 26.4895 27.2199 27.0909 26.6208 27.8372C26.0216 28.5835 25.5988 29.4555 25.384 30.3882L17.124 66.2982C16.734 67.9682 17.054 69.7282 17.994 71.1682C18.104 71.3382 18.224 71.5082 18.354 71.6682L41.514 100.468C42.1159 101.215 42.8775 101.817 43.7428 102.231C44.608 102.644 45.555 102.859 46.514 102.858L83.654 102.848C85.604 102.848 87.444 101.968 88.654 100.468L111.804 71.6682C112.407 70.925 112.833 70.0544 113.049 69.1223C113.266 68.1902 113.268 67.221 113.054 66.2882ZM100.324 65.8482C100.084 66.9182 98.924 67.5682 97.744 67.3082H97.714C97.704 67.3082 97.684 67.2982 97.674 67.2982C97.504 67.2582 97.304 67.2282 97.154 67.1882C96.464 67.0082 95.974 66.7282 95.354 66.4982C94.024 66.0182 92.934 65.6282 91.864 65.4682C91.324 65.4282 91.044 65.6882 90.744 65.8882C90.594 65.8582 90.144 65.7782 89.884 65.7382C87.964 71.7682 83.874 76.9882 78.334 80.2582C78.434 80.4882 78.594 80.9782 78.664 81.0682C78.534 81.4082 78.344 81.7282 78.514 82.2482C78.904 83.2582 79.534 84.2382 80.294 85.4282C80.664 85.9782 81.034 86.3982 81.364 87.0282C81.444 87.1782 81.544 87.4082 81.624 87.5682C82.144 88.6682 81.764 89.9382 80.774 90.4182C79.774 90.8982 78.534 90.3882 78.004 89.2882C77.924 89.1282 77.824 88.9182 77.754 88.7782C77.474 88.1282 77.374 87.5682 77.174 86.9382C76.724 85.6082 76.344 84.4982 75.804 83.5682C75.494 83.1182 75.124 83.0582 74.784 82.9482C74.724 82.8382 74.484 82.4082 74.354 82.1782C68.3953 84.4383 61.8128 84.4241 55.864 82.1382L55.414 82.9582C55.074 83.0482 54.754 83.1382 54.554 83.3782C53.824 84.2482 53.534 85.6482 53.004 86.9782C52.804 87.6082 52.714 88.1682 52.424 88.8182C52.364 88.9682 52.254 89.1682 52.174 89.3282C51.644 90.4282 50.404 90.9382 49.414 90.4582C48.424 89.9782 48.044 88.7182 48.564 87.6082C48.644 87.4482 48.744 87.2182 48.824 87.0682C49.154 86.4382 49.534 86.0182 49.894 85.4682C50.654 84.2782 51.314 83.2182 51.704 82.2082C51.804 81.8782 51.654 81.4182 51.524 81.0782L51.884 80.2082C46.554 77.0482 42.344 72.0182 40.334 65.7882L39.464 65.9382C39.234 65.8082 38.764 65.4982 38.314 65.5282C37.244 65.6782 36.144 66.0782 34.824 66.5582C34.204 66.7982 33.714 67.0682 33.024 67.2482C32.884 67.2882 32.674 67.3282 32.504 67.3682C32.494 67.3682 32.474 67.3782 32.464 67.3782H32.434C31.244 67.6382 30.094 66.9882 29.854 65.9182C29.614 64.8482 30.364 63.7682 31.544 63.4782C31.554 63.4782 31.564 63.4682 31.574 63.4682H31.594C31.764 63.4282 31.974 63.3682 32.124 63.3482C32.824 63.2182 33.384 63.2482 34.044 63.1982C35.444 63.0482 36.604 62.9282 37.634 62.6082C37.964 62.4782 38.274 62.0282 38.494 61.7382L39.334 61.4982C38.394 54.9882 39.984 48.5982 43.424 43.4282L42.784 42.8582C42.744 42.6082 42.694 42.0282 42.384 41.6982C41.594 40.9582 40.604 40.3482 39.404 39.6082C38.834 39.2782 38.314 39.0582 37.744 38.6382C37.624 38.5482 37.464 38.4082 37.324 38.3082C37.314 38.2982 37.304 38.2982 37.294 38.2882C36.334 37.5182 36.114 36.1982 36.804 35.3382C37.194 34.8482 37.784 34.6082 38.404 34.6282C38.884 34.6482 39.374 34.8182 39.804 35.1582C39.944 35.2682 40.124 35.4082 40.254 35.5182C40.794 35.9782 41.124 36.4382 41.574 36.9182C42.564 37.9182 43.374 38.7582 44.274 39.3582C44.744 39.6282 45.104 39.5182 45.464 39.4782C45.584 39.5582 45.964 39.8382 46.184 39.9882C49.594 36.3682 54.074 33.6882 59.274 32.5082C60.484 32.2382 61.694 32.0482 62.894 31.9482L62.944 31.0982C63.214 30.8382 63.514 30.4682 63.594 30.0582C63.684 28.9782 63.544 27.8182 63.374 26.4282C63.284 25.7782 63.124 25.2282 63.104 24.5282C63.094 24.3782 63.104 24.1782 63.104 24.0182V23.9582C63.104 22.7282 64.004 21.7282 65.104 21.7282C66.214 21.7282 67.104 22.7282 67.104 23.9582C67.104 24.1282 67.114 24.3682 67.104 24.5282C67.074 25.2382 66.924 25.7782 66.834 26.4282C66.664 27.8282 66.524 28.9882 66.604 30.0582C66.684 30.5982 66.994 30.8082 67.254 31.0582C67.264 31.2082 67.284 31.6882 67.304 31.9482C73.674 32.5182 79.584 35.4282 83.934 39.9782L84.694 39.4382C84.954 39.4582 85.524 39.5282 85.914 39.3082C86.814 38.7082 87.624 37.8682 88.614 36.8682C89.064 36.3882 89.394 35.9282 89.934 35.4682C90.054 35.3582 90.244 35.2182 90.384 35.1082C91.344 34.3382 92.684 34.4282 93.374 35.2882C94.064 36.1482 93.844 37.4782 92.884 38.2382C92.744 38.3482 92.574 38.4982 92.444 38.5982C91.874 39.0182 91.344 39.2382 90.784 39.5682C89.584 40.3082 88.594 40.9182 87.804 41.6582C87.434 42.0582 87.464 42.4282 87.424 42.7882L86.714 43.4282C88.444 45.9982 89.734 48.9182 90.464 52.0982C91.194 55.2582 91.304 58.4182 90.884 61.4482L91.694 61.6882C91.844 61.8982 92.134 62.3982 92.554 62.5582C93.584 62.8782 94.744 62.9982 96.144 63.1482C96.804 63.1982 97.364 63.1682 98.064 63.2982C98.234 63.3282 98.474 63.3982 98.644 63.4382C99.814 63.6982 100.574 64.7782 100.324 65.8482Z" fill="#486BB3"/>
<path d="M82.7339 46.9282L74.9139 53.9282V53.9482C74.6742 54.1589 74.4957 54.4304 74.3974 54.734C74.299 55.0376 74.2844 55.3621 74.355 55.6734C74.4257 55.9846 74.579 56.271 74.7988 56.5024C75.0186 56.7338 75.2967 56.9017 75.6039 56.9882L75.6139 57.0282L85.7439 59.9482C85.9539 57.7582 85.8239 55.4982 85.3039 53.2382C84.7939 50.9382 83.9039 48.8282 82.7339 46.9282Z" fill="#486BB3"/>
<path d="M11.4251 112.174C11.7351 111.834 12.0551 111.484 12.3751 111.114C12.7151 110.744 13.0351 110.384 13.3451 110.034C13.6551 109.664 13.9451 109.324 14.2151 108.994C14.4951 108.674 14.7351 108.384 14.9351 108.144H18.6751C17.9251 109.004 17.1951 109.824 16.4751 110.614C15.7751 111.394 14.9951 112.194 14.1451 113.024C14.5651 113.404 15.0051 113.864 15.4551 114.394C15.9051 114.914 16.3451 115.454 16.7651 116.024C17.1851 116.584 17.5751 117.154 17.9251 117.714C18.2751 118.274 18.5751 118.794 18.8151 119.254H15.2051C14.9751 118.884 14.7151 118.484 14.4251 118.054C14.1451 117.604 13.8451 117.164 13.5151 116.724C13.1951 116.274 12.8451 115.844 12.4751 115.434C12.1251 115.024 11.7751 114.684 11.4151 114.394V119.254H8.26514V103.354L11.4151 102.844V112.174M29.7751 118.904C29.2351 119.054 28.5451 119.204 27.7051 119.324C26.8551 119.464 25.9751 119.534 25.0451 119.534C24.1051 119.534 23.3151 119.404 22.6751 119.154C22.0551 118.904 21.5651 118.544 21.1951 118.094C20.8251 117.624 20.5651 117.084 20.4151 116.444C20.2551 115.814 20.1851 115.114 20.1851 114.354V108.164H23.3351V113.974C23.3351 114.984 23.4651 115.724 23.7351 116.174C24.0051 116.624 24.5051 116.854 25.2351 116.854C25.4651 116.854 25.7051 116.844 25.9551 116.834C26.2051 116.804 26.4351 116.774 26.6351 116.754V108.174H29.7851V118.904M39.8851 113.634C39.8851 111.604 39.1351 110.594 37.6451 110.594C37.3251 110.594 36.9951 110.634 36.6751 110.724C36.3651 110.804 36.1151 110.914 35.9151 111.044V116.774C36.0751 116.804 36.2651 116.834 36.5051 116.854C36.7451 116.864 37.0051 116.874 37.2851 116.874C38.1451 116.874 38.7951 116.574 39.2251 115.984C39.6651 115.394 39.8851 114.614 39.8851 113.634ZM43.0951 113.724C43.0951 114.614 42.9651 115.414 42.6951 116.134C42.4605 116.822 42.0782 117.45 41.5751 117.974C41.0851 118.484 40.4751 118.874 39.7551 119.154C39.0351 119.424 38.2151 119.554 37.3051 119.554C36.9251 119.554 36.5251 119.534 36.1051 119.494C35.6951 119.464 35.2851 119.424 34.8751 119.364C34.4851 119.304 34.0951 119.244 33.7351 119.174C33.3651 119.094 33.0451 119.004 32.7651 118.924V103.384L35.9151 102.874V108.414C36.2691 108.258 36.6376 108.138 37.0151 108.054C37.3951 107.974 37.8051 107.924 38.2451 107.924C39.0351 107.924 39.7351 108.064 40.3351 108.344C40.9451 108.614 41.4451 109.004 41.8551 109.504C42.2651 110.014 42.5751 110.624 42.7851 111.344C42.9851 112.054 43.0951 112.844 43.0951 113.724ZM44.9851 113.804C44.9851 112.814 45.1351 111.954 45.4251 111.224C45.7351 110.474 46.1351 109.854 46.6251 109.364C47.1151 108.874 47.6851 108.494 48.3151 108.244C48.9651 107.994 49.6251 107.864 50.3051 107.864C51.8851 107.864 53.1351 108.354 54.0451 109.324C54.9651 110.284 55.4151 111.694 55.4151 113.574C55.4151 113.754 55.4051 113.964 55.3951 114.184C55.3851 114.394 55.3651 114.584 55.3551 114.754H48.2051C48.2751 115.404 48.5751 115.914 49.1151 116.294C49.6551 116.674 50.3651 116.864 51.2751 116.864C51.8551 116.864 52.4151 116.814 52.9651 116.714C53.4344 116.628 53.8935 116.494 54.3351 116.314L54.7551 118.874C54.5851 118.954 54.3651 119.044 54.0751 119.124C53.7951 119.204 53.4751 119.284 53.1251 119.334C52.7851 119.404 52.4251 119.464 52.0251 119.504C51.6351 119.544 51.2351 119.564 50.8451 119.564C49.8451 119.564 48.9751 119.414 48.2251 119.124C47.4951 118.824 46.8751 118.424 46.3851 117.924C45.8985 117.395 45.5303 116.767 45.3051 116.084C45.0951 115.384 44.9851 114.624 44.9851 113.804ZM52.3851 112.604C52.3759 112.338 52.3253 112.075 52.2351 111.824C52.1651 111.574 52.0451 111.344 51.8751 111.144C51.7151 110.944 51.5151 110.784 51.2651 110.654C51.0251 110.524 50.7251 110.464 50.3551 110.464C50.0051 110.464 49.6951 110.524 49.4451 110.654C49.1951 110.764 48.9751 110.924 48.8151 111.124C48.6451 111.324 48.5151 111.554 48.4151 111.824C48.3351 112.074 48.2651 112.334 48.2251 112.604H52.3851ZM64.5651 110.954C64.2851 110.884 63.9551 110.814 63.5751 110.744C63.1708 110.658 62.7585 110.615 62.3451 110.614C62.1451 110.614 61.9051 110.634 61.6251 110.674C61.3551 110.704 61.1551 110.734 61.0151 110.784V119.284H57.8651V108.754C58.4251 108.554 59.0951 108.374 59.8551 108.204C60.6351 108.024 61.4851 107.934 62.4351 107.934C62.6051 107.934 62.8051 107.944 63.0451 107.974C63.2851 107.984 63.5251 108.014 63.7651 108.054C64.0051 108.084 64.2451 108.124 64.4851 108.184C64.7251 108.224 64.9251 108.284 65.0951 108.354L64.5651 110.954ZM66.7751 108.544C67.3151 108.394 68.0051 108.244 68.8451 108.124C69.6951 107.984 70.5751 107.914 71.5051 107.914C72.4451 107.914 73.2351 108.044 73.8551 108.294C74.4851 108.534 74.9851 108.874 75.3551 109.334C75.7251 109.784 75.9851 110.324 76.1351 110.944C76.2951 111.564 76.3651 112.254 76.3651 113.014V119.294H73.2151V113.394C73.2151 112.384 73.0851 111.664 72.8151 111.234C72.5451 110.814 72.0451 110.604 71.3151 110.604C71.0851 110.604 70.8451 110.614 70.5951 110.644C70.3451 110.654 70.1151 110.684 69.9151 110.704V119.284H66.7651V108.544M78.7151 113.804C78.7151 112.814 78.8651 111.954 79.1551 111.224C79.4651 110.474 79.8651 109.854 80.3551 109.364C80.8451 108.874 81.4151 108.494 82.0451 108.244C82.6951 107.994 83.3551 107.864 84.0351 107.864C85.6151 107.864 86.8651 108.354 87.7751 109.324C88.6951 110.284 89.1451 111.694 89.1451 113.574C89.1451 113.754 89.1351 113.964 89.1251 114.184C89.1151 114.394 89.0951 114.584 89.0851 114.754H81.9351C82.0051 115.404 82.3051 115.914 82.8451 116.294C83.3851 116.674 84.0951 116.864 85.0051 116.864C85.5851 116.864 86.1451 116.814 86.6951 116.714C87.1644 116.628 87.6235 116.494 88.0651 116.314L88.4851 118.874C88.3151 118.954 88.0951 119.044 87.8051 119.124C87.5251 119.204 87.2051 119.284 86.8551 119.334C86.5151 119.404 86.1551 119.464 85.7551 119.504C85.3651 119.544 84.9651 119.564 84.5751 119.564C83.5751 119.564 82.7051 119.414 81.9551 119.124C81.2251 118.824 80.6051 118.424 80.1151 117.924C79.6284 117.395 79.2603 116.767 79.0351 116.084C78.8351 115.384 78.7151 114.624 78.7151 113.804ZM86.1151 112.604C86.1059 112.338 86.0553 112.075 85.9651 111.824C85.8951 111.574 85.7751 111.344 85.6051 111.144C85.4451 110.944 85.2451 110.784 84.9951 110.654C84.7551 110.524 84.4551 110.464 84.0851 110.464C83.7351 110.464 83.4251 110.524 83.1751 110.654C82.9251 110.764 82.7051 110.924 82.5451 111.124C82.3751 111.324 82.2451 111.554 82.1451 111.824C82.0651 112.074 81.9951 112.334 81.9551 112.604H86.1151ZM91.4851 105.394L94.6351 104.884V108.164H98.4151V110.784H94.6351V114.694C94.6351 115.354 94.7451 115.884 94.9751 116.284C95.2151 116.674 95.6851 116.874 96.3951 116.874C96.7351 116.874 97.0751 116.844 97.4351 116.794C97.8051 116.724 98.1351 116.634 98.4251 116.524L98.8651 118.974C98.4851 119.124 98.0651 119.264 97.5951 119.374C97.1251 119.484 96.5551 119.544 95.8851 119.544C95.0251 119.544 94.3151 119.434 93.7451 119.204C93.1851 118.964 92.7351 118.644 92.3951 118.234C92.0551 117.814 91.8151 117.304 91.6751 116.714C91.5451 116.124 91.4851 115.464 91.4851 114.744V105.394ZM100.025 113.804C100.025 112.814 100.175 111.954 100.465 111.224C100.775 110.474 101.175 109.854 101.665 109.364C102.155 108.874 102.725 108.494 103.355 108.244C104.005 107.994 104.665 107.864 105.345 107.864C106.925 107.864 108.175 108.354 109.085 109.324C110.005 110.284 110.455 111.694 110.455 113.574C110.455 113.754 110.445 113.964 110.435 114.184C110.425 114.394 110.405 114.584 110.395 114.754H103.245C103.315 115.404 103.615 115.914 104.155 116.294C104.695 116.674 105.405 116.864 106.315 116.864C106.895 116.864 107.455 116.814 108.005 116.714C108.474 116.628 108.933 116.494 109.375 116.314L109.795 118.874C109.625 118.954 109.405 119.044 109.115 119.124C108.835 119.204 108.515 119.284 108.165 119.334C107.825 119.404 107.465 119.464 107.065 119.504C106.675 119.544 106.275 119.564 105.885 119.564C104.885 119.564 104.015 119.414 103.265 119.124C102.535 118.824 101.915 118.424 101.425 117.924C100.938 117.395 100.57 116.767 100.345 116.084C100.135 115.384 100.025 114.624 100.025 113.804ZM107.425 112.604C107.416 112.338 107.365 112.075 107.275 111.824C107.205 111.574 107.085 111.344 106.915 111.144C106.755 110.944 106.555 110.784 106.305 110.654C106.065 110.524 105.765 110.464 105.395 110.464C105.045 110.464 104.735 110.524 104.485 110.654C104.235 110.764 104.015 110.924 103.855 111.124C103.685 111.324 103.555 111.554 103.455 111.824C103.375 112.074 103.305 112.334 103.265 112.604H107.425ZM116.095 117.024C116.675 117.024 117.085 116.964 117.325 116.854C117.565 116.744 117.685 116.524 117.685 116.194C117.685 115.944 117.525 115.724 117.215 115.534C116.905 115.334 116.435 115.114 115.795 114.874C115.305 114.694 114.855 114.504 114.445 114.304C114.055 114.104 113.715 113.874 113.435 113.604C113.155 113.324 112.935 112.994 112.775 112.614C112.615 112.234 112.545 111.774 112.545 111.244C112.545 110.204 112.935 109.374 113.705 108.774C114.485 108.164 115.545 107.864 116.895 107.864C117.575 107.864 118.215 107.924 118.835 108.054C119.455 108.164 119.945 108.294 120.315 108.434L119.765 110.884C119.395 110.754 118.995 110.644 118.565 110.544C118.145 110.444 117.665 110.394 117.125 110.394C116.135 110.394 115.645 110.664 115.645 111.214C115.645 111.344 115.665 111.454 115.705 111.554C115.745 111.654 115.835 111.754 115.955 111.854C116.085 111.934 116.255 112.034 116.465 112.154C116.695 112.254 116.975 112.364 117.315 112.494C118.005 112.744 118.575 113.004 119.025 113.254C119.475 113.494 119.825 113.764 120.085 114.054C120.355 114.334 120.535 114.654 120.635 115.004C120.745 115.354 120.805 115.764 120.805 116.234C120.805 117.334 120.385 118.164 119.555 118.724C118.735 119.284 117.575 119.574 116.065 119.574C115.075 119.574 114.255 119.494 113.595 119.324C112.945 119.154 112.495 119.014 112.245 118.904L112.775 116.344C113.315 116.554 113.865 116.724 114.425 116.854C114.985 116.964 115.545 117.024 116.095 117.024Z" fill="#486CB4"/>
</svg>
