<svg width="128" height="128" viewBox="0 0 128 128" fill="none" xmlns="http://www.w3.org/2000/svg">
<path d="M56.4842 55.0979C56.8542 55.3679 57.3042 55.5279 57.7942 55.5279C58.9942 55.5279 59.9742 54.5779 60.0242 53.3979L60.0742 53.3679L60.8242 40.1079C59.9242 40.2179 59.0242 40.3679 58.1242 40.5679C53.1942 41.6879 48.9242 44.1179 45.5842 47.3979L56.4542 55.1079L56.4842 55.0979ZM55.0342 74.5279C54.9074 73.9665 54.5674 73.4764 54.086 73.1611C53.6046 72.8457 53.0194 72.7298 52.4542 72.8379L52.4342 72.8079L39.3842 75.0179C41.3423 80.4399 45.0372 85.0629 49.8942 88.1679L54.9542 75.9479L54.9142 75.8979C55.0842 75.4779 55.1442 75.0079 55.0342 74.5279ZM50.6942 65.1179C51.1342 64.9979 51.5442 64.7379 51.8542 64.3579C52.6042 63.4179 52.4742 62.0679 51.5742 61.2879L51.5842 61.2379L41.6542 52.3579C38.6262 57.2884 37.3245 63.0862 37.9542 68.8379L50.6842 65.1679L50.6942 65.1179ZM60.3342 69.0179L63.9942 70.7779L67.6542 69.0279L68.5542 65.0779L66.0242 61.9179H61.9642L59.4242 65.0779L60.3342 69.0179ZM67.9342 53.3479C67.9542 53.8079 68.1142 54.2579 68.4242 54.6379C69.1742 55.5779 70.5242 55.7479 71.4842 55.0479L71.5242 55.0679L82.3242 47.4079C78.2442 43.4179 72.9242 40.8079 67.1742 40.1079L67.9242 53.3479H67.9342ZM75.5142 72.7779C75.3442 72.7479 75.1742 72.7279 75.0042 72.7379C74.7142 72.7479 74.4242 72.8279 74.1542 72.9579C73.6364 73.2076 73.235 73.6475 73.0337 74.186C72.8325 74.7245 72.847 75.3199 73.0742 75.8479L73.0542 75.8679L78.1642 88.2079C83.0942 85.0679 86.7742 80.3779 88.7042 74.9679L75.5442 72.7379L75.5142 72.7779ZM65.9542 79.3179C65.7555 78.9534 65.4597 78.6511 65.0996 78.4446C64.7394 78.238 64.3291 78.1353 63.9142 78.1479C63.1442 78.1779 62.4142 78.6079 62.0242 79.3279H62.0142L55.5942 90.9279C60.1909 92.4907 65.1319 92.7435 69.8642 91.6579C70.7442 91.4579 71.6042 91.2179 72.4342 90.9379L66.0042 79.3079H65.9542V79.3179Z" fill="#486BB3"/>
<path d="M124.544 76.7878L114.104 31.4578C113.832 30.282 113.297 29.1829 112.54 28.2427C111.784 27.3024 110.824 26.5453 109.734 26.0278L67.494 5.84778C66.2723 5.26672 64.9252 4.99867 63.5741 5.06778C62.4994 5.12059 61.4458 5.38569 60.474 5.84778L18.234 26.0278C17.1455 26.5479 16.1877 27.3058 15.4313 28.2456C14.6749 29.1855 14.1393 30.2832 13.864 31.4578L3.45405 76.7978C3.21223 77.8424 3.18504 78.9252 3.37412 79.9806C3.5632 81.0361 3.96462 82.0421 4.55405 82.9378C4.69405 83.1578 4.85405 83.3678 5.01405 83.5778L34.2541 119.928C35.0147 120.871 35.9776 121.631 37.0715 122.152C38.1654 122.673 39.3624 122.942 40.5741 122.938L87.464 122.928C89.924 122.928 92.244 121.818 93.784 119.918L123.014 83.5578C123.762 82.6173 124.289 81.5201 124.554 80.3478C124.818 79.1756 124.815 77.9586 124.544 76.7878ZM108.474 76.2378C108.164 77.5878 106.714 78.4078 105.214 78.0878C105.204 78.0878 105.184 78.0878 105.174 78.0778C105.154 78.0778 105.144 78.0678 105.124 78.0578C104.914 78.0078 104.654 77.9678 104.474 77.9178C103.614 77.6878 102.984 77.3378 102.204 77.0378C100.534 76.4378 99.144 75.9378 97.794 75.7378C97.104 75.6878 96.754 76.0078 96.374 76.2578C96.194 76.2178 95.624 76.1178 95.294 76.0678C92.874 83.6778 87.714 90.2778 80.724 94.3978C80.844 94.6878 81.054 95.3078 81.144 95.4178C80.984 95.8478 80.744 96.2478 80.954 96.9078C81.444 98.1778 82.234 99.4278 83.194 100.918C83.654 101.608 84.134 102.138 84.554 102.938C84.654 103.128 84.784 103.418 84.884 103.618C85.534 105.008 85.054 106.608 83.804 107.208C82.544 107.818 80.984 107.178 80.304 105.778C80.204 105.578 80.0741 105.318 79.994 105.128C79.634 104.308 79.514 103.608 79.264 102.808C78.694 101.128 78.214 99.7378 77.534 98.5578C77.144 97.9878 76.674 97.9178 76.244 97.7778C76.164 97.6378 75.8641 97.0878 75.704 96.8078C74.304 97.3378 72.864 97.7778 71.364 98.1178C64.804 99.6078 58.2341 99.0078 52.3741 96.7478L51.8041 97.7878C51.3741 97.8978 50.9641 98.0178 50.7141 98.3178C49.7941 99.4178 49.424 101.178 48.7541 102.858C48.5041 103.648 48.384 104.358 48.024 105.178C47.944 105.368 47.8041 105.628 47.7141 105.818V105.828L47.704 105.838C47.034 107.228 45.474 107.868 44.2141 107.268C42.9641 106.668 42.494 105.068 43.134 103.678C43.234 103.478 43.354 103.188 43.454 102.998C43.874 102.208 44.344 101.668 44.814 100.978C45.774 99.4778 46.614 98.1378 47.104 96.8678C47.224 96.4478 47.044 95.8678 46.884 95.4378L47.3441 94.3378C40.6141 90.3478 35.3041 83.9978 32.764 76.1278L31.664 76.3178C31.364 76.1478 30.774 75.7578 30.2141 75.8078C28.864 76.0078 27.4741 76.5078 25.8041 77.1078C25.024 77.4078 24.4041 77.7478 23.534 77.9778C23.354 78.0278 23.094 78.0778 22.8841 78.1278C22.864 78.1278 22.854 78.1378 22.834 78.1478C22.824 78.1478 22.8041 78.1478 22.7941 78.1578C21.2941 78.4778 19.844 77.6578 19.534 76.3078C19.224 74.9578 20.184 73.5878 21.674 73.2278C21.684 73.2278 21.7041 73.2178 21.7141 73.2178C21.7241 73.2178 21.724 73.2178 21.734 73.2078C21.944 73.1578 22.214 73.0878 22.414 73.0478C23.294 72.8778 24.014 72.9178 24.844 72.8578C26.614 72.6678 28.0741 72.5178 29.3741 72.1078C29.784 71.9378 30.184 71.3678 30.4641 71.0078L31.524 70.6978C30.334 62.4778 32.344 54.4178 36.684 47.8878L35.8741 47.1678C35.8241 46.8478 35.754 46.1278 35.364 45.7078C34.374 44.7778 33.114 43.9978 31.604 43.0678C30.8841 42.6478 30.224 42.3778 29.504 41.8378C29.354 41.7278 29.144 41.5478 28.984 41.4178C28.974 41.4078 28.9541 41.3978 28.944 41.3878C27.7341 40.4178 27.454 38.7478 28.324 37.6578C28.814 37.0478 29.564 36.7378 30.334 36.7678C30.934 36.7878 31.5641 37.0078 32.0941 37.4278C32.2641 37.5678 32.504 37.7478 32.654 37.8778C33.334 38.4578 33.744 39.0378 34.314 39.6478C35.564 40.9178 36.594 41.9678 37.724 42.7278C38.314 43.0778 38.774 42.9378 39.224 42.8778C39.3741 42.9878 39.854 43.3378 40.134 43.5278C44.434 38.9578 50.094 35.5778 56.654 34.0878C58.184 33.7378 59.704 33.5078 61.224 33.3878L61.284 32.3178C61.6241 31.9878 61.994 31.5278 62.104 31.0078C62.2141 29.6478 62.034 28.1878 61.8241 26.4178C61.7041 25.5978 61.514 24.9078 61.474 24.0178C61.4641 23.8378 61.4741 23.5778 61.4841 23.3678C61.4841 23.3478 61.474 23.3178 61.474 23.2978C61.474 21.7478 62.604 20.4878 64.004 20.4878C65.404 20.4878 66.534 21.7478 66.534 23.2978C66.534 23.5178 66.544 23.8178 66.544 24.0178C66.514 24.9078 66.314 25.5978 66.194 26.4178C65.9841 28.1778 65.794 29.6478 65.904 31.0078C66.004 31.6878 66.404 31.9578 66.7341 32.2678C66.744 32.4478 66.774 33.0578 66.794 33.3978C74.834 34.1078 82.294 37.7878 87.784 43.5378L88.744 42.8478C89.0741 42.8678 89.784 42.9678 90.274 42.6778C91.404 41.9178 92.434 40.8578 93.684 39.5978C94.254 38.9878 94.674 38.4178 95.354 37.8278C95.504 37.6978 95.744 37.5178 95.914 37.3778C97.124 36.4078 98.814 36.5178 99.684 37.6078C100.554 38.6978 100.274 40.3678 99.064 41.3378C98.8941 41.4778 98.674 41.6678 98.504 41.7878C97.784 42.3178 97.124 42.5878 96.404 43.0178C94.894 43.9478 93.634 44.7278 92.644 45.6578C92.174 46.1578 92.2141 46.6378 92.164 47.0878C92.024 47.2178 91.534 47.6578 91.264 47.8878C93.5012 51.2167 95.1079 54.9283 96.004 58.8378C96.924 62.8278 97.064 66.8078 96.534 70.6378L97.554 70.9378C97.734 71.1978 98.114 71.8278 98.644 72.0378C99.944 72.4478 101.404 72.5978 103.174 72.7878C104.004 72.8578 104.724 72.8178 105.604 72.9778C105.814 73.0178 106.124 73.0978 106.334 73.1478C107.834 73.5178 108.784 74.8878 108.474 76.2378Z" fill="#486BB3"/>
<path d="M86.274 52.3579L76.394 61.1979L76.404 61.2279C76.064 61.5279 75.804 61.9279 75.694 62.4079C75.424 63.5779 76.134 64.7379 77.274 65.0579L77.284 65.1079L90.074 68.7879C90.344 66.0279 90.184 63.1679 89.524 60.3079C88.864 57.4179 87.754 54.7479 86.274 52.3579Z" fill="#486BB3"/>
</svg>
