<svg width="128" height="128" viewBox="0 0 128 128" fill="none" xmlns="http://www.w3.org/2000/svg">
<path d="M29.76 9.58981C25.34 9.49981 21.7 12.5798 21.7 16.3998V28.9298H3.54C2.60113 28.9298 1.70072 29.3028 1.03684 29.9667C0.372963 30.6305 0 31.5309 0 32.4698L0 33.8198C0.00264728 34.7569 0.376779 35.6548 1.04037 36.3165C1.70396 36.9782 2.60286 37.3498 3.54 37.3498H21.7V64.9998H3.54C2.60113 64.9998 1.70072 65.3728 1.03684 66.0367C0.372963 66.7005 0 67.6009 0 68.5398L0 69.8798C0 70.8187 0.372963 71.7191 1.03684 72.383C1.70072 73.0468 2.60113 73.4198 3.54 73.4198H21.7V85.8398C21.7 91.0898 28.26 94.3698 33.51 91.7498L103 57.0298C103.89 56.5898 104.61 56.0198 105.2 55.3898H124.46C125.399 55.3898 126.299 55.0168 126.963 54.353C127.627 53.6891 128 52.7887 128 51.8498V50.5098C128 49.5709 127.627 48.6705 126.963 48.0067C126.299 47.3428 125.399 46.9698 124.46 46.9698H105.31C104.71 46.2898 103.94 45.6898 103 45.2198L33.51 10.4998C32.3421 9.92453 31.0617 9.61382 29.76 9.58981ZM46.44 36.1398H52.59V48.1298H64.54V54.2098H52.59V66.1898H46.44V54.2098H34.49V48.1298H46.45L46.44 36.1398ZM93.53 102.53C92.65 102.53 92.53 104.37 93.39 104.69C93.62 104.78 93.91 104.97 94.03 105.12C94.15 105.27 94.84 107.69 95.57 110.51C97.41 117.6 98.79 122.65 99.03 123.19C99.21 123.6 99.34 123.64 100.45 123.58L101.67 123.52L103.22 118.29C105.99 108.94 106.42 107.61 106.62 107.61C106.84 107.61 106.87 107.71 109.34 116.81L111.16 123.52L112.39 123.58C113.51 123.63 113.64 123.6 113.82 123.19C114.04 122.69 115.48 117.4 117.39 110.12C118.54 105.73 118.68 105.34 119.28 104.78C119.79 104.31 119.93 104.01 119.93 103.46C119.93 102.62 119.55 102.42 118.35 102.62C116.93 102.86 116.62 103.6 114.53 111.79C112.9 118.2 112.45 119.65 112.23 119.26C112.14 119.1 111.12 115.42 109.97 111.09C108.82 106.76 107.78 103.11 107.67 102.97C107.55 102.83 107.07 102.72 106.59 102.72C105.79 102.72 105.69 102.77 105.45 103.36C105.25 103.84 102.14 114.27 100.83 118.84C100.76 119.08 100.61 119.29 100.51 119.3C100.26 119.32 100.11 118.81 98.33 111.89C96.71 105.58 96.16 103.76 95.75 103.29C95.45 102.95 94.22 102.52 93.53 102.52V102.53ZM73.39 102.54C72.67 102.53 71.71 102.55 70.44 102.57C67.89 102.62 65.64 102.72 65.46 102.81C65.27 102.89 64.9 103.42 64.63 103.98C64.17 104.93 61.14 113.04 59.49 117.77C59.07 118.98 58.64 119.89 58.5 119.89C58.36 119.89 58.11 119.51 57.94 119.05C53 105.49 52.17 103.38 51.64 103.04C50.98 102.62 49.78 102.45 49.44 102.74C49.27 102.88 49.15 103.31 49.15 103.74C49.15 104.32 49.24 104.52 49.55 104.62C50.15 104.81 50.61 105.87 53.85 114.48C55.49 118.82 56.93 122.65 57.07 123.01C57.31 123.64 57.35 123.65 58.52 123.65H59.72L66.79 104.72H71.43V121.68H70.68C69.8 121.68 69.46 121.96 69.46 122.67C69.46 123.58 69.73 123.65 72.75 123.65H75.57V122.67C75.57 121.69 75.57 121.68 74.93 121.68C74.58 121.68 74.19 121.61 74.07 121.53C73.92 121.43 73.82 118.79 73.74 113.06L73.62 104.73H74.37C75.21 104.73 75.61 104.38 75.61 103.65C75.61 102.82 75.55 102.59 73.39 102.58V102.54ZM80.02 102.56C78.89 102.57 78.12 102.59 78 102.62C77.47 102.75 77.21 103.7 77.53 104.3C77.68 104.58 77.94 104.71 78.4 104.71H79.05L79.18 113.49C79.31 122.88 79.35 123.2 80.3 123.46C80.57 123.54 83.16 123.61 86.05 123.62L91.31 123.64L91.72 123.12C92.05 122.7 92.13 122.32 92.13 121.15V119.7H91.39C90.45 119.7 90.28 119.83 90.04 120.68C89.87 121.29 89.75 121.38 88.97 121.53C88.11 121.69 82.12 121.58 81.93 121.4C81.88 121.35 81.79 119.7 81.73 117.74L81.62 114.18H89.34L89.4 113.64C89.43 113.34 89.43 112.85 89.39 112.56L89.32 112.02H81.67V104.72H84.91C88.41 104.72 89.16 104.86 89.16 105.52C89.16 106.33 89.52 106.69 90.32 106.69H91.07L91.19 105.72C91.36 104.27 91.16 103.37 90.57 102.98C90.13 102.69 89.3 102.64 84.25 102.59C82.65 102.57 81.15 102.57 80.01 102.58L80.02 102.56ZM36.37 102.56C35.57 102.62 35.31 102.95 35.37 103.68C35.42 104.34 35.49 104.41 36.06 104.47C37.23 104.58 37.2 104.33 37.28 114.41L37.35 123.66L38.37 123.6C39.36 123.54 39.39 123.52 39.45 122.9C39.53 122.1 39.95 122.06 40.7 122.78C41 123.07 41.71 123.46 42.29 123.66C45.36 124.72 48.48 123.39 50.08 120.35C51.91 116.88 51.22 112.17 48.54 109.76C46.42 107.85 43.14 107.75 40.68 109.53C40.14 109.92 39.65 110.24 39.61 110.24C39.56 110.24 39.5 108.73 39.46 106.89C39.39 102.9 39.33 102.78 37.39 102.6C36.99 102.56 36.66 102.55 36.4 102.57L36.37 102.56ZM6.1 102.56C5.79 102.58 5.54 102.63 5.38 102.71C5.03 102.9 4.95 103.09 5 103.67C5.05 104.33 5.14 104.42 5.87 104.65L6.68 104.91L6.81 107.42C6.88 108.8 6.94 112.82 6.94 116.35C6.94 122.22 6.97 122.8 7.29 123.08C7.48 123.25 7.77 123.43 7.93 123.49C8.09 123.55 10.53 123.6 13.34 123.61C18.33 123.63 18.46 123.62 18.91 123.2C19.31 122.82 19.37 122.59 19.37 121.23V119.69H18.39C17.48 119.69 17.4 119.73 17.29 120.23C17.07 121.27 16.94 121.36 15.31 121.52C13.33 121.72 9.78 121.61 9.52 121.35C9.39 121.22 9.26 117.85 9.17 112.24C9.04 104.37 8.98 103.29 8.7 103.01C8.39 102.7 7.03 102.5 6.11 102.57L6.1 102.56ZM121.55 102.72L121.75 103.51C121.97 104.38 122.23 104.54 122.33 103.87C122.4 103.38 122.89 103.13 122.89 103.58C122.89 103.97 123.05 104.06 124.01 104.21C124.88 104.35 125.12 104.11 124.92 103.31C124.83 102.96 124.71 102.9 124.25 102.99C123.94 103.05 123.64 103.01 123.58 102.91C123.52 102.81 123.03 102.72 122.51 102.72H121.55ZM27.32 108.44C25.2 108.44 24.68 108.5 23.99 108.84C22.78 109.42 22.47 109.87 22.37 111.12L22.28 112.21L23.24 112.15C24.13 112.09 24.23 112.03 24.53 111.38C24.95 110.48 25.74 110.14 27.36 110.16C28.27 110.17 28.82 110.29 29.45 110.64C30.18 111.04 30.36 111.27 30.7 112.25C31.22 113.77 31.05 114.02 29.4 114.21C25.22 114.69 23.92 115.08 22.54 116.24C21.13 117.43 20.71 119.78 21.59 121.47C22.07 122.39 23.47 123.48 24.56 123.8C25.53 124.08 27.12 124.04 28.05 123.72C28.52 123.55 29.36 123.07 29.93 122.64L30.96 121.86L31.2 122.45C31.33 122.77 31.63 123.17 31.86 123.33C32.44 123.73 34.62 123.72 35.03 123.31C35.63 122.71 35.24 121.94 34.18 121.66L33.43 121.45L33.29 116.97C33.21 114.51 33.06 112.11 32.94 111.66C32.68 110.64 31.61 109.35 30.59 108.83C29.95 108.5 29.43 108.44 27.32 108.44ZM44.18 110.41C46.15 110.41 47.33 111.19 48.19 113.07C48.85 114.51 48.84 117.55 48.17 119.04C47.63 120.26 46.26 121.55 45.22 121.84C44.28 122.1 43.68 122.08 42.77 121.75C41.47 121.29 40.65 120.42 40.07 118.89C39.46 117.3 39.36 115.58 39.77 114.04C40.44 111.56 41.85 110.4 44.19 110.4L44.18 110.41ZM31.06 116.06L30.93 117.23C30.67 119.46 29.3 121.39 27.65 121.85C25.57 122.43 23.79 121.58 23.57 119.91C23.42 118.81 23.6 118.26 24.33 117.55C25.2 116.7 26.42 116.34 28.92 116.2L31.06 116.06Z" fill="black"/>
</svg>
