<svg width="128" height="128" viewBox="0 0 128 128" fill="none" xmlns="http://www.w3.org/2000/svg">
<path d="M105.09 46.9702C104.151 46.9702 103.251 47.3431 102.587 48.007C101.923 48.6709 101.55 49.5713 101.55 50.5102V51.8502C101.55 52.789 101.923 53.6895 102.587 54.3533C103.251 55.0172 104.151 55.3902 105.09 55.3902H124.47C125.409 55.3902 126.309 55.0172 126.973 54.3533C127.637 53.6895 128.01 52.789 128.01 51.8502V50.5102C128.01 49.5713 127.637 48.6709 126.973 48.007C126.309 47.3431 125.409 46.9702 124.47 46.9702H105.09ZM3.54 28.9302C2.60113 28.9302 1.70072 29.3031 1.03684 29.967C0.372963 30.6309 0 31.5313 0 32.4702L0 33.8202C0 34.759 0.372963 35.6595 1.03684 36.3233C1.70072 36.9872 2.60113 37.3602 3.54 37.3602H22.92C23.8589 37.3602 24.7593 36.9872 25.4232 36.3233C26.087 35.6595 26.46 34.759 26.46 33.8202V32.4702C26.46 31.5313 26.087 30.6309 25.4232 29.967C24.7593 29.3031 23.8589 28.9302 22.92 28.9302H3.54ZM3.54 65.0002C2.60113 65.0002 1.70072 65.3731 1.03684 66.037C0.372963 66.7009 0 67.6013 0 68.5402L0 69.8802C0 70.819 0.372963 71.7195 1.03684 72.3833C1.70072 73.0472 2.60113 73.4202 3.54 73.4202H22.92C23.8589 73.4202 24.7593 73.0472 25.4232 72.3833C26.087 71.7195 26.46 70.819 26.46 69.8802V68.5402C26.46 67.6013 26.087 66.7009 25.4232 66.037C24.7593 65.3731 23.8589 65.0002 22.92 65.0002H3.54Z" fill="#BEC7CC"/>
<path d="M29.7602 9.58981C25.3402 9.49981 21.7002 12.5798 21.7002 16.4098V85.8398C21.7002 91.0898 28.2602 94.3698 33.5102 91.7498L103 57.0298C108.25 54.4098 108.25 47.8498 103 45.2298L33.5102 10.5098C32.3423 9.93453 31.0619 9.62382 29.7602 9.59981V9.58981Z" fill="#FFD500"/>
<path d="M64.5402 54.1999H52.5902V66.1899H46.4402V54.2099H34.4902V48.1299H46.4402V36.1499H52.5902V48.1399H64.5402V54.1999Z" fill="#727B84"/>
<path d="M93.5401 102.52C92.6601 102.52 92.5501 104.36 93.4101 104.68C93.6401 104.77 93.9301 104.96 94.0401 105.11C94.1601 105.26 94.8501 107.69 95.5801 110.51C97.4201 117.6 98.8001 122.65 99.0301 123.19C99.2101 123.6 99.3401 123.64 100.45 123.59L101.67 123.53L103.22 118.3C105.99 108.95 106.42 107.62 106.62 107.62C106.84 107.62 106.87 107.72 109.34 116.83L111.16 123.53L112.39 123.59C113.51 123.64 113.64 123.61 113.82 123.19C114.04 122.69 115.48 117.4 117.39 110.12C118.54 105.73 118.68 105.34 119.29 104.78C119.8 104.31 119.94 104.02 119.94 103.47C119.94 102.63 119.56 102.43 118.35 102.64C116.93 102.88 116.62 103.62 114.53 111.81C112.9 118.22 112.45 119.67 112.23 119.28C112.14 119.12 111.12 115.44 109.97 111.11C108.82 106.78 107.78 103.13 107.67 102.99C107.55 102.85 107.07 102.74 106.58 102.74C105.78 102.74 105.69 102.8 105.44 103.38C105.24 103.86 102.12 114.29 100.82 118.85C100.75 119.09 100.61 119.3 100.5 119.31C100.25 119.33 100.09 118.82 98.3201 111.91C96.7001 105.6 96.1501 103.78 95.7401 103.31C95.4401 102.97 94.2001 102.54 93.5201 102.54L93.5401 102.52ZM36.3801 102.55C35.5801 102.61 35.3201 102.94 35.3801 103.66C35.4301 104.32 35.5001 104.39 36.0701 104.45C37.2401 104.56 37.2101 104.3 37.2901 114.39L37.3601 123.64L38.3801 123.58C39.3701 123.52 39.4001 123.5 39.4601 122.88C39.5401 122.08 39.9601 122.04 40.7101 122.76C41.0101 123.05 41.7201 123.44 42.3001 123.64C45.3701 124.7 48.4901 123.37 50.1001 120.33C51.9301 116.86 51.2501 112.16 48.5601 109.74C46.4401 107.83 43.1601 107.74 40.6901 109.51C40.1501 109.9 39.6701 110.22 39.6201 110.22C39.5701 110.22 39.5101 108.71 39.4701 106.87C39.4001 102.88 39.3401 102.76 37.4001 102.59C37.0001 102.55 36.6701 102.54 36.4001 102.56L36.3801 102.55ZM6.11014 102.56C5.80014 102.58 5.55014 102.63 5.39014 102.71C5.04014 102.9 4.96014 103.09 5.01014 103.67C5.06014 104.33 5.15014 104.42 5.88014 104.65L6.68014 104.91L6.81014 107.41C6.88014 108.79 6.94014 112.81 6.94014 116.34C6.94014 122.21 6.97014 122.8 7.29014 123.07C7.48014 123.24 7.77014 123.42 7.93014 123.48C8.09014 123.54 10.5301 123.6 13.3401 123.61C18.3301 123.63 18.4601 123.61 18.9101 123.2C19.3101 122.82 19.3701 122.59 19.3701 121.23V119.69H18.3901C17.4801 119.69 17.4001 119.73 17.2901 120.24C17.0701 121.28 16.9401 121.36 15.3101 121.52C13.3301 121.72 9.78014 121.61 9.52014 121.35C9.39014 121.22 9.27014 117.85 9.17014 112.24C9.04014 104.37 8.98014 103.3 8.70014 103.01C8.39014 102.7 7.03014 102.51 6.11014 102.57V102.56ZM84.2701 102.56C81.0701 102.53 78.2601 102.55 78.0201 102.61C77.4901 102.74 77.2301 103.69 77.5501 104.29C77.7001 104.57 77.9601 104.7 78.4101 104.7H79.0701L79.1901 113.48C79.3201 122.87 79.3601 123.18 80.3101 123.45C80.5801 123.53 83.1701 123.6 86.0701 123.61L91.3301 123.63L91.7401 123.11C92.0701 122.69 92.1501 122.31 92.1501 121.14V119.69H91.4101C90.4701 119.69 90.2901 119.83 90.0601 120.67C89.8901 121.28 89.7801 121.37 88.9901 121.52C88.1301 121.68 82.1401 121.57 81.9601 121.39C81.9101 121.34 81.8101 119.7 81.7501 117.74L81.6401 114.17H89.3701L89.4301 113.63C89.4601 113.33 89.4601 112.84 89.4201 112.54L89.3501 111.99H81.7001V104.7H84.9501C88.4501 104.7 89.2001 104.84 89.2001 105.5C89.2001 106.31 89.5601 106.67 90.3601 106.67H91.1101L91.2301 105.7C91.4001 104.25 91.2001 103.35 90.6101 102.96C90.1701 102.67 89.3301 102.62 84.2801 102.57L84.2701 102.56ZM70.4601 102.57C67.9101 102.62 65.6601 102.72 65.4801 102.81C65.2901 102.89 64.9201 103.42 64.6501 103.98C64.1901 104.93 61.1701 113.05 59.5101 117.77C59.0901 118.98 58.6601 119.89 58.5101 119.89C58.3701 119.89 58.1201 119.51 57.9601 119.05C53.0201 105.49 52.1901 103.38 51.6601 103.04C51.0001 102.62 49.8001 102.45 49.4601 102.74C49.2901 102.88 49.1601 103.31 49.1601 103.74C49.1601 104.32 49.2501 104.52 49.5601 104.62C50.1601 104.81 50.6201 105.86 53.8601 114.47C55.5001 118.81 56.9401 122.65 57.0801 123C57.3201 123.63 57.3601 123.63 58.5301 123.63H59.7301L63.2701 114.17L66.8101 104.71L69.1301 104.7H71.4401V121.66H70.6901C69.8101 121.66 69.4601 121.94 69.4601 122.65C69.4601 123.56 69.7301 123.63 72.7501 123.63H75.5701V122.65C75.5701 121.67 75.5701 121.66 74.9401 121.66C74.5901 121.66 74.2001 121.59 74.0801 121.51C73.9301 121.41 73.8301 118.76 73.7501 113.03L73.6401 104.7H74.3901C75.2301 104.7 75.6301 104.35 75.6301 103.61C75.6301 102.5 75.5301 102.48 70.4601 102.57ZM121.57 102.72L121.77 103.51C121.99 104.38 122.25 104.53 122.35 103.86C122.42 103.37 122.91 103.12 122.91 103.57C122.91 103.96 123.07 104.05 124.03 104.2C124.9 104.34 125.14 104.1 124.93 103.3C124.84 102.95 124.72 102.88 124.27 102.98C123.96 103.04 123.66 103.01 123.6 102.91C123.54 102.8 123.05 102.72 122.52 102.72H121.57ZM27.3401 108.43C25.2201 108.43 24.7001 108.49 24.0001 108.83C22.7901 109.41 22.4801 109.86 22.3801 111.11L22.2901 112.2L23.2501 112.14C24.1401 112.08 24.2401 112.02 24.5501 111.36C24.9701 110.46 25.7601 110.12 27.3801 110.13C28.2901 110.14 28.8301 110.27 29.4701 110.62C30.2001 111.02 30.3801 111.25 30.7201 112.22C31.2401 113.74 31.0701 114 29.4201 114.19C25.2401 114.67 23.9301 115.06 22.5501 116.22C21.1401 117.41 20.7201 119.76 21.6101 121.45C22.0901 122.37 23.4801 123.47 24.5801 123.78C25.5501 124.06 27.1401 124.02 28.0701 123.69C28.5401 123.52 29.3901 123.04 29.9501 122.61L30.9801 121.83L31.2201 122.42C31.3501 122.74 31.6501 123.14 31.8801 123.3C32.4601 123.7 34.6401 123.69 35.0501 123.28C35.6501 122.68 35.2601 121.91 34.2001 121.63L33.4501 121.43L33.3101 116.95C33.2301 114.48 33.0801 112.09 32.9601 111.64C32.7001 110.62 31.6301 109.33 30.6101 108.81C29.9701 108.48 29.4501 108.42 27.3401 108.42V108.43ZM44.2001 110.41C46.1701 110.41 47.3501 111.18 48.2101 113.07C48.8701 114.51 48.8501 117.55 48.1901 119.04C47.6501 120.26 46.2901 121.55 45.2401 121.84C44.3001 122.1 43.7001 122.08 42.7901 121.76C41.4901 121.3 40.6601 120.43 40.0801 118.9C39.4701 117.31 39.3701 115.59 39.7801 114.05C40.4501 111.57 41.8601 110.41 44.1901 110.41H44.2001ZM31.0801 116.06L30.9401 117.22C30.6801 119.45 29.3101 121.38 27.6601 121.84C25.5801 122.42 23.8001 121.57 23.5801 119.9C23.4301 118.8 23.6101 118.25 24.3301 117.54C25.2001 116.69 26.4201 116.33 28.9201 116.18L31.0801 116.06Z" fill="black"/>
</svg>
