<svg width="128" height="128" viewBox="0 0 128 128" fill="none" xmlns="http://www.w3.org/2000/svg">
<path d="M29.76 22.4599C25.34 22.3699 21.7 25.4499 21.7 29.2699V41.7999H3.54C2.60113 41.7999 1.70072 42.1729 1.03684 42.8368C0.372963 43.5007 0 44.4011 0 45.3399L0 46.6899C0.00264728 47.6271 0.376779 48.5249 1.04037 49.1866C1.70396 49.8483 2.60286 50.2199 3.54 50.2199H21.7V77.8699H3.54C2.60113 77.8699 1.70072 78.2429 1.03684 78.9068C0.372963 79.5707 0 80.4711 0 81.4099L0 82.7499C0 83.6888 0.372963 84.5892 1.03684 85.2531C1.70072 85.917 2.60113 86.2899 3.54 86.2899H21.7V98.7099C21.7 103.96 28.26 107.24 33.51 104.62L103 69.8999C103.89 69.4599 104.61 68.8899 105.2 68.2599H124.46C125.399 68.2599 126.299 67.887 126.963 67.2231C127.627 66.5592 128 65.6588 128 64.7199V63.3799C128 62.4411 127.627 61.5407 126.963 60.8768C126.299 60.2129 125.399 59.8399 124.46 59.8399H105.31C104.71 59.1599 103.94 58.5599 103 58.0899L33.51 23.3699C32.3421 22.7946 31.0617 22.4839 29.76 22.4599ZM46.44 49.0099H52.59V60.9999H64.54V67.0799H52.59V79.0599H46.44V67.0799H34.49V60.9999H46.45L46.44 49.0099Z" fill="black"/>
</svg>
