<svg width="128" height="128" viewBox="0 0 128 128" fill="none" xmlns="http://www.w3.org/2000/svg">
<path opacity="0.998" d="M105.085 59.8398C104.146 59.8398 103.246 60.2128 102.582 60.8766C101.918 61.5405 101.545 62.4409 101.545 63.3798V64.7198C101.545 65.6587 101.918 66.5591 102.582 67.223C103.246 67.8868 104.146 68.2598 105.085 68.2598H124.465C125.404 68.2598 126.304 67.8868 126.968 67.223C127.632 66.5591 128.005 65.6587 128.005 64.7198V63.3798C128.005 62.4409 127.632 61.5405 126.968 60.8766C126.304 60.2128 125.404 59.8398 124.465 59.8398H105.085ZM3.53512 41.7998C2.59625 41.7998 1.69584 42.1728 1.03196 42.8366C0.36808 43.5005 -0.00488281 44.4009 -0.00488281 45.3398V46.6898C-0.00488281 47.6287 0.36808 48.5291 1.03196 49.193C1.69584 49.8568 2.59625 50.2298 3.53512 50.2298H22.9151C23.854 50.2298 24.7544 49.8568 25.4183 49.193C26.0822 48.5291 26.4551 47.6287 26.4551 46.6898V45.3398C26.4551 44.4009 26.0822 43.5005 25.4183 42.8366C24.7544 42.1728 23.854 41.7998 22.9151 41.7998H3.53512ZM3.53512 77.8698C2.59625 77.8698 1.69584 78.2428 1.03196 78.9067C0.36808 79.5705 -0.00488281 80.4709 -0.00488281 81.4098V82.7498C-0.00488281 83.2147 0.086682 83.675 0.264584 84.1045C0.442485 84.534 0.70324 84.9242 1.03196 85.253C1.36068 85.5817 1.75093 85.8424 2.18042 86.0203C2.60991 86.1982 3.07024 86.2898 3.53512 86.2898H22.9151C23.38 86.2898 23.8403 86.1982 24.2698 86.0203C24.6993 85.8424 25.0896 85.5817 25.4183 85.253C25.747 84.9242 26.0077 84.534 26.1856 84.1045C26.3636 83.675 26.4551 83.2147 26.4551 82.7498V81.4098C26.4551 80.4709 26.0822 79.5705 25.4183 78.9067C24.7544 78.2428 23.854 77.8698 22.9151 77.8698H3.53512Z" fill="#BEC7CC"/>
<path opacity="0.998" d="M29.7548 22.4599C25.3348 22.3699 21.6948 25.4499 21.6948 29.2799V98.7099C21.6948 103.96 28.2548 107.24 33.5048 104.62L102.995 69.8999C108.245 67.2799 108.245 60.7199 102.995 58.0999L33.5048 23.3799C32.3369 22.8046 31.0565 22.4939 29.7548 22.4699V22.4599Z" fill="#FFD500"/>
<path opacity="0.998" d="M64.5349 67.07H52.5849V79.06H46.4349V67.08H34.4849V61H46.4349V49.02H52.5849V61.01H64.5349V67.07Z" fill="#727B84"/>
</svg>
