<svg width="128" height="128" viewBox="0 0 128 128" fill="none" xmlns="http://www.w3.org/2000/svg">
<path d="M29.2 62.9999H28C27.5 68.0999 26.8 74.2999 18 74.2999H14C11.7 74.2999 11.6 73.9999 11.6 72.2999V45.7999C11.6 44.0999 11.6 43.3999 16.3 43.3999H17.9V41.8999C16 41.9999 11.6 41.9999 9.5 41.9999C7.6 41.9999 3.7 41.9999 2 41.8999V43.3999H3.1C6.9 43.3999 7 43.8999 7 45.6999V71.7999C7 73.5999 6.9 74.0999 3.1 74.0999H2V75.5999H27.8L29.2 62.9999Z" fill="black"/>
<path d="M28.2999 41.8C28.0999 41.2 27.9999 41 27.3999 41C26.7999 41 26.5999 41.2 26.3999 41.8L18.3999 62.1C18.0999 62.9 17.4999 64.5 14.3999 64.5V65.7H22.0999V64.5C20.5999 64.5 19.5999 63.8 19.5999 62.8C19.5999 62.6 19.5999 62.5 19.6999 62.1L21.3999 57.8H31.2999L33.2999 62.9C33.3999 63.1 33.4999 63.3 33.4999 63.5C33.4999 64.5 31.5999 64.5 30.6999 64.5V65.7H40.4999V64.5H39.7999C37.4999 64.5 37.1999 64.2 36.8999 63.2L28.2999 41.8ZM26.3999 45.4L30.7999 56.7H21.8999L26.3999 45.4Z" fill="black"/>
<path d="M68.2 42.2002H37.9L37 53.3002H38.2C38.9 45.3002 39.6 43.6002 47.2 43.6002C48.1 43.6002 49.4 43.6002 49.9 43.7002C50.9 43.9002 50.9 44.4002 50.9 45.6002V71.7002C50.9 73.4002 50.9 74.1002 45.7 74.1002H43.7V75.6002C45.7 75.5002 50.8 75.5002 53.1 75.5002C55.4 75.5002 60.5 75.5002 62.6 75.6002V74.1002H60.6C55.4 74.1002 55.4 73.4002 55.4 71.7002V45.7002C55.4 44.7002 55.4 44.0002 56.3 43.8002C56.8 43.7002 58.2 43.7002 59.1 43.7002C66.6 43.7002 67.3 45.3002 68 53.4002H69.2L68.2 42.2002Z" fill="black"/>
<path d="M94.9002 74.2002H93.7002C92.5002 81.8002 91.3002 85.5002 82.8002 85.5002H76.2002C73.9002 85.5002 73.8002 85.2002 73.8002 83.5002V70.2002H78.2002C83.0002 70.2002 83.6002 71.8002 83.6002 76.0002H84.8002V62.9002H83.6002C83.6002 67.1002 83.1002 68.7002 78.2002 68.7002H73.8002V56.7002C73.8002 55.1002 73.9002 54.7002 76.2002 54.7002H82.6002C90.2002 54.7002 91.5002 57.4002 92.3002 64.4002H93.5002L92.1002 53.2002H64.2002V54.7002H65.3002C69.1002 54.7002 69.2002 55.2002 69.2002 57.0002V83.0002C69.2002 84.8002 69.1002 85.3002 65.3002 85.3002H64.2002V87.0002H92.8002L94.9002 74.2002Z" fill="black"/>
<path d="M109.9 56.5999L116.7 46.5999C117.7 44.9999 119.4 43.3999 123.9 43.3999V41.8999H112V43.3999C114 43.3999 115.1 44.4999 115.1 45.6999C115.1 46.1999 115 46.2999 114.7 46.7999L109 55.1999L102.6 45.5999C102.5 45.4999 102.3 45.0999 102.3 44.8999C102.3 44.2999 103.4 43.4999 105.5 43.3999V41.8999C103.8 41.9999 100.2 41.9999 98.3001 41.9999C96.8001 41.9999 93.7001 41.9999 91.8001 41.8999V43.3999H92.7001C95.4001 43.3999 96.4001 43.6999 97.3001 45.0999L106.4 58.8999L98.3001 70.8999C97.6001 71.8999 96.1001 74.1999 91.1001 74.1999V75.6999H103V74.1999C100.7 74.1999 99.9001 72.7999 99.9001 71.8999C99.9001 71.4999 100 71.2999 100.4 70.6999L107.4 60.2999L115.3 72.1999C115.4 72.3999 115.5 72.5999 115.5 72.6999C115.5 73.2999 114.4 74.0999 112.3 74.1999V75.6999C114 75.5999 117.7 75.5999 119.5 75.5999C121.6 75.5999 123.9 75.5999 126 75.6999V74.1999H125.1C122.5 74.1999 121.5 73.9999 120.4 72.3999L109.9 56.5999Z" fill="black"/>
</svg>
