<svg width="128" height="128" viewBox="0 0 128 128" fill="none" xmlns="http://www.w3.org/2000/svg">
<path fill-rule="evenodd" clip-rule="evenodd" d="M122.301 58.635C121.701 57.336 121.411 55.799 121.349 54.352C121.195 50.791 121.326 47.217 121.165 43.656C121.021 40.467 119.883 37.593 116.821 35.949C114.125 34.502 111 34.358 108 34.324V40.015C109 40.049 108.754 40.08 108.998 40.093C113.027 40.291 114.377 41.569 114.428 45.566C114.466 48.538 114.44 51.512 114.488 54.483C114.547 58.088 115.085 61.529 118.382 63.805C118.438 63.844 118.433 63.987 118.465 64.153C116.787 65.345 115.459 66.88 115.073 68.975C114.764 70.6767 114.584 72.3992 114.533 74.128C114.437 77.246 114.536 80.371 114.447 83.489C114.377 85.931 113.22 87.077 110.843 87.621C109.948 87.827 109 87.9 108 88.027V93.704C110 93.584 111.017 93.505 112.387 93.357C117.543 92.799 120.446 90.116 121.041 85.114C121.227 83.546 121.206 81.948 121.241 80.364C121.307 77.395 121.273 74.412 121.539 71.461C121.81 68.45 124 66.786 127 66.952V61.001C125 61.359 123.157 60.494 122.301 58.635ZM28.314 70.768C28.313 59.219 28 47.67 28 36.122V34.305C25 34.305 21.774 34.276 18.609 34.319C17.324 34.336 16.191 34.446 14.917 34.62C10.04 35.284 7.689 37.573 6.825 42.432C6.575 43.834 6.625 45.291 6.604 46.725C6.565 49.451 6.643 52.178 6.599 54.903C6.544 58.335 4.927 60.995 1.427 61.197C1.303 61.204 2 61.347 1 61.433V66.738C5 67.366 6.273 68.981 6.539 72.697C6.581 73.289 6.592 73.886 6.598 74.481C6.632 77.801 6.594 81.126 6.744 84.44C6.885 87.533 7.572 90.297 10.495 91.92C13.225 93.436 17 93.559 19 93.638V87.974C19 87.926 18.79 87.882 18.595 87.87C14.256 87.605 13.278 86.427 13.252 82.085C13.235 79.21 13.358 76.335 13.312 73.46C13.254 69.848 12.726 66.422 9.456 64.136C9.406 64.101 9.455 63.953 9.439 63.753C11.638 62.363 12.807 60.237 13.125 57.659C13.301 56.237 13.36 54.795 13.385 53.36C13.435 50.387 13.382 47.411 13.463 44.44C13.52 42.352 14.853 40.83 16.554 40.488C18.166 40.163 19 40.173 22 40.022V42.078C22 52.388 21.633 62.697 21.687 73.007C21.706 76.538 22.097 80.019 25.882 81.544C27.94 82.373 30.145 82.628 32.509 83.186C32.904 80.874 33.033 78.956 33.356 77.058C28.999 75.808 28.314 75.16 28.314 70.768ZM54.988 50.875C47.648 47.365 38.74 50.434 35.322 57.796C32.748 63.34 32.84 69.046 35.106 74.668C36.335 77.716 38.556 79.998 41.579 81.34C47.483 83.961 53.458 83.324 59.411 81.484C59.732 81.384 60.142 80.766 60.103 80.438C59.9 78.777 59.563 77.132 59.262 75.417C57.845 75.774 56.661 76.139 55.451 76.366C52.254 76.967 49.05 76.966 45.939 75.729C42.867 74.509 40.804 70.999 41.317 67.999H62.189C62.444 64.999 62.343 60.874 61.066 57.463C59.926 54.414 57.958 52.296 54.988 50.875ZM54.944 63H41.228C41.235 59 44.492 55.41 48.765 55.492C52.518 55.564 55.114 59 54.944 63ZM111.052 75.279C111.544 70.225 110.018 67.381 105.518 65.185C103.922 64.406 102.228 63.829 100.602 63.107C99.385 62.567 98.16 62.02 97.022 61.336C95.914 60.671 95.45 59.567 95.614 58.274C95.775 56.997 96.596 56.155 97.782 55.915C99.219 55.623 100.725 55.373 102.17 55.491C104.212 55.658 106.226 56.181 108.333 56.566L109.665 50.748C106.814 50.314 104.156 49.753 101.47 49.541C98.483 49.306 95.574 49.802 92.84 51.211C87.063 54.188 86.957 63.327 92.266 66.327C93.852 67.223 95.549 67.923 97.199 68.707C98.936 69.534 100.736 70.253 102.398 71.211C103.66 71.938 104.111 73.207 103.773 74.686C103.46 76.061 102.419 76.674 101.196 76.791C99.336 76.968 97.428 77.138 95.587 76.919C93.37 76.655 91.2 75.982 88.929 75.468L87.771 81.258C93.104 83.26 98.381 83.588 103.709 82.407C108.168 81.419 110.708 78.811 111.052 75.279ZM82.637 65.827C80.678 64.788 78.571 64.03 76.549 63.104C75.294 62.529 73.965 62.03 72.859 61.233C70.732 59.7 71.128 56.761 73.605 55.975C75.026 55.523 76.633 55.383 78.126 55.495C80.16 55.648 82.167 56.174 84.288 56.558L85.546 51.012C84.469 50.719 83.494 50.4 82.495 50.19C78.524 49.354 74.532 49.03 70.621 50.405C67.261 51.587 64.93 53.797 64.469 57.515C63.953 61.667 65.33 64.945 69.165 66.917C70.7 67.707 72.345 68.28 73.912 69.012C75.476 69.742 77.073 70.439 78.526 71.355C79.637 72.055 80.075 73.24 79.762 74.61C79.451 75.968 78.461 76.652 77.229 76.779C75.369 76.97 73.46 77.147 71.618 76.932C69.392 76.672 67.215 75.997 64.904 75.477C64.563 77.09 64.163 78.715 63.914 80.362C63.86 80.72 64.259 81.408 64.595 81.525C69.979 83.391 75.459 83.659 80.935 82.046C84.205 81.084 86.492 78.995 86.953 75.423C87.476 71.368 86.509 67.879 82.637 65.827Z" fill="#2A4D80"/>
</svg>
