<svg width="128" height="128" viewBox="0 0 128 128" fill="none" xmlns="http://www.w3.org/2000/svg">
<path d="M0.850098 52.7302H5.7901V70.7102H14.9301V75.2702H0.850098V52.7302ZM17.1101 60.0002H21.8501V75.2602H17.1101V60.0002ZM19.4801 52.4102C20.024 52.4102 20.5557 52.5714 21.0079 52.8736C21.4601 53.1758 21.8126 53.6053 22.0208 54.1078C22.2289 54.6103 22.2834 55.1632 22.1773 55.6967C22.0711 56.2301 21.8092 56.7201 21.4246 57.1047C21.04 57.4893 20.55 57.7512 20.0166 57.8573C19.4831 57.9634 18.9302 57.909 18.4277 57.7008C17.9252 57.4927 17.4957 57.1402 17.1936 56.688C16.8914 56.2357 16.7301 55.7041 16.7301 55.1602C16.7301 54.4308 17.0198 53.7313 17.5356 53.2156C18.0513 52.6999 18.7508 52.4102 19.4801 52.4102ZM41.6901 52.7302H46.4301V66.2002L51.8101 59.9802H57.6201L51.4001 67.0502L57.4901 75.2702H51.5301L46.4901 67.7202H46.4301V75.2702H41.6901V52.7302ZM24.4801 60.0002H29.0001V62.0902H29.0601C29.516 61.3117 30.1741 60.671 30.9646 60.2362C31.7551 59.8014 32.6485 59.5885 33.5501 59.6202C38.3601 59.6202 39.2401 62.7802 39.2401 66.8902V75.2702H34.5401V67.8402C34.5401 66.0702 34.5401 63.8402 32.0701 63.8402C29.6001 63.8402 29.2201 65.7702 29.2201 67.7602V75.3102H24.4801V60.0002Z" fill="#1D1D1B"/>
<path d="M67.6098 65.85C67.6195 65.4652 67.5507 65.0825 67.4079 64.7251C67.2651 64.3677 67.0511 64.0431 66.7789 63.7709C66.5068 63.4988 66.1821 63.2848 65.8247 63.1419C65.4673 62.9991 65.0846 62.9304 64.6998 62.94C63.8711 62.8876 63.055 63.1635 62.4281 63.7081C61.8012 64.2526 61.4139 65.0221 61.3498 65.85H67.6098ZM71.6098 72.62C70.8187 73.568 69.8272 74.3289 68.7067 74.8476C67.5862 75.3664 66.3646 75.6302 65.1298 75.62C60.3898 75.62 56.5898 72.46 56.5898 67.55C56.5898 62.64 60.3898 59.49 65.1298 59.49C69.5598 59.49 72.3398 62.65 72.3398 67.55V69.04H61.3398C61.4705 69.8877 61.9045 70.6591 62.5611 71.2108C63.2177 71.7626 64.0523 72.0573 64.9098 72.04C65.5853 72.039 66.2495 71.867 66.8405 71.54C67.4316 71.213 67.9302 70.7417 68.2898 70.17L71.6098 72.62ZM82.2298 63.68C81.4558 63.6561 80.6923 63.8638 80.037 64.2764C79.3817 64.6891 78.8645 65.2879 78.5515 65.9963C78.2386 66.7047 78.1443 67.4903 78.2805 68.2526C78.4168 69.015 78.7775 69.7193 79.3164 70.2753C79.8554 70.8314 80.548 71.214 81.3057 71.3741C82.0634 71.5342 82.8516 71.4645 83.5694 71.1739C84.2873 70.8833 84.902 70.3851 85.335 69.7431C85.768 69.1011 85.9995 68.3444 85.9998 67.57C86.0423 67.0561 85.9738 66.5391 85.7991 66.054C85.6244 65.5689 85.3476 65.1269 84.9873 64.7581C84.6269 64.3893 84.1916 64.1021 83.7107 63.9161C83.2298 63.7301 82.7146 63.6496 82.1998 63.68M90.3998 75.26H85.9998V73.26C85.4502 73.9931 84.7398 74.5906 83.9234 75.0066C83.107 75.4227 82.2061 75.6462 81.2898 75.66C76.7298 75.66 73.7298 72.37 73.7298 67.72C73.7298 63.45 76.3898 59.53 80.7298 59.53C81.6424 59.4498 82.5608 59.5896 83.4081 59.9376C84.2555 60.2855 85.0071 60.8316 85.5998 61.53H85.6598V52.73H90.3998V75.26Z" fill="#1D1D1B"/>
<path d="M124.78 48.0002H97.5099C96.891 47.9949 96.2952 48.2349 95.8529 48.6679C95.4106 49.1008 95.1578 49.6913 95.1499 50.3102V77.6902C95.1578 78.3091 95.4106 78.8996 95.8529 79.3325C96.2952 79.7655 96.891 80.0055 97.5099 80.0002H124.78C125.087 80.0042 125.392 79.9476 125.678 79.8336C125.963 79.7197 126.223 79.5506 126.443 79.3361C126.663 79.1216 126.839 78.8658 126.96 78.5834C127.082 78.301 127.146 77.9975 127.15 77.6902V50.3102C127.146 50.0029 127.082 49.6994 126.96 49.417C126.839 49.1346 126.663 48.8788 126.443 48.6643C126.223 48.4498 125.963 48.2807 125.678 48.1668C125.392 48.0528 125.087 47.9962 124.78 48.0002Z" fill="#0076B2"/>
<path d="M99.8898 60.0002H104.64V75.2702H99.8898V60.0002ZM102.26 52.4102C102.804 52.4102 103.335 52.5714 103.788 52.8736C104.24 53.1758 104.592 53.6053 104.8 54.1078C105.009 54.6103 105.063 55.1632 104.957 55.6967C104.851 56.2301 104.589 56.7201 104.204 57.1047C103.82 57.4893 103.33 57.7512 102.796 57.8573C102.263 57.9634 101.71 57.909 101.207 57.7008C100.705 57.4927 100.275 57.1402 99.9732 56.688C99.671 56.2357 99.5098 55.7041 99.5098 55.1602C99.5098 54.4308 99.7995 53.7313 100.315 53.2156C100.831 52.6999 101.53 52.4102 102.26 52.4102ZM107.61 60.0002H112.16V62.0902H112.22C112.676 61.3117 113.334 60.671 114.124 60.2362C114.915 59.8014 115.808 59.5885 116.71 59.6202C121.52 59.6202 122.4 62.7802 122.4 66.8902V75.2702H117.66V67.8402C117.66 66.0702 117.66 63.8402 115.19 63.8402C112.72 63.8402 112.34 65.7702 112.34 67.7602V75.3102H107.6L107.61 60.0002Z" fill="white"/>
</svg>
