<svg width="128" height="128" viewBox="0 0 128 128" fill="none" xmlns="http://www.w3.org/2000/svg">
<path d="M116 2.99997H12C9.64031 2.97596 7.36747 3.88902 5.68019 5.5388C3.99291 7.18859 3.02901 9.44034 3 11.8V116.22C3.03426 118.576 4.00046 120.823 5.68717 122.468C7.37388 124.114 9.64373 125.024 12 125H116C118.36 125.019 120.631 124.103 122.318 122.452C124.004 120.801 124.968 118.55 125 116.19V11.77C124.958 9.41726 123.989 7.17624 122.304 5.53403C120.618 3.89182 118.353 2.98115 116 2.99997ZM39.17 107H21.06V48.73H39.17V107ZM30.17 40.79C28.0929 40.792 26.0618 40.1778 24.3338 39.0253C22.6058 37.8727 21.2584 36.2335 20.4621 34.3151C19.6659 32.3966 19.4565 30.2851 19.8605 28.2477C20.2646 26.2102 21.2638 24.3383 22.7318 22.8689C24.1999 21.3994 26.0708 20.3984 28.1079 19.9925C30.1449 19.5865 32.2567 19.7939 34.1759 20.5883C36.0951 21.3827 37.7355 22.7285 38.8897 24.4554C40.0439 26.1824 40.66 28.2128 40.66 30.29C40.6574 31.6705 40.3825 33.037 39.8512 34.3113C39.3198 35.5855 38.5424 36.7424 37.5634 37.7158C36.5844 38.6893 35.4231 39.4601 34.1458 39.9841C32.8686 40.5082 31.5006 40.7752 30.12 40.77L30.17 40.79ZM107 107H88.89V78.65C88.89 71.9 88.77 63.21 79.48 63.21C70.19 63.21 68.61 70.57 68.61 78.21V107H50.53V48.73H67.89V56.73H68.13C70.55 52.15 76.45 47.32 85.26 47.32C103.6 47.28 107 59.35 107 75V107Z" fill="black"/>
</svg>
