<svg width="128" height="128" viewBox="0 0 128 128" fill="none" xmlns="http://www.w3.org/2000/svg">
<path d="M0.850098 51.7302H5.7901V69.7102H14.9301V74.2702H0.850098V51.7302ZM17.1101 59.0002H21.8501V74.2602H17.1101V59.0002ZM19.4801 51.4102C20.024 51.4102 20.5557 51.5714 21.0079 51.8736C21.4601 52.1758 21.8126 52.6053 22.0208 53.1078C22.2289 53.6103 22.2834 54.1632 22.1773 54.6967C22.0711 55.2301 21.8092 55.7201 21.4246 56.1047C21.04 56.4893 20.55 56.7512 20.0166 56.8573C19.4831 56.9634 18.9302 56.909 18.4277 56.7008C17.9252 56.4927 17.4957 56.1402 17.1936 55.688C16.8914 55.2357 16.7301 54.7041 16.7301 54.1602C16.7301 53.4308 17.0198 52.7313 17.5356 52.2156C18.0513 51.6999 18.7508 51.4102 19.4801 51.4102ZM41.6901 51.7302H46.4301V65.2002L51.8101 58.9802H57.6201L51.4001 66.0502L57.4901 74.2702H51.5301L46.4901 66.7202H46.4301V74.2702H41.6901V51.7302ZM24.4801 59.0002H29.0001V61.0902H29.0601C29.516 60.3117 30.1741 59.671 30.9646 59.2362C31.7551 58.8014 32.6485 58.5885 33.5501 58.6202C38.3601 58.6202 39.2401 61.7802 39.2401 65.8902V74.2702H34.5401V66.8402C34.5401 65.0702 34.5401 62.8402 32.0701 62.8402C29.6001 62.8402 29.2201 64.7702 29.2201 66.7602V74.3102H24.4801V59.0002Z" fill="#1D1D1B"/>
<path d="M67.6098 64.85C67.6195 64.4652 67.5507 64.0825 67.4079 63.7251C67.2651 63.3677 67.0511 63.0431 66.7789 62.7709C66.5068 62.4988 66.1821 62.2848 65.8247 62.1419C65.4673 61.9991 65.0846 61.9304 64.6998 61.94C63.8711 61.8876 63.055 62.1635 62.4281 62.7081C61.8012 63.2526 61.4139 64.0221 61.3498 64.85H67.6098ZM71.6098 71.62C70.8187 72.568 69.8272 73.3289 68.7067 73.8476C67.5862 74.3664 66.3646 74.6302 65.1298 74.62C60.3898 74.62 56.5898 71.46 56.5898 66.55C56.5898 61.64 60.3898 58.49 65.1298 58.49C69.5598 58.49 72.3398 61.65 72.3398 66.55V68.04H61.3398C61.4705 68.8877 61.9045 69.6591 62.5611 70.2108C63.2177 70.7626 64.0523 71.0573 64.9098 71.04C65.5853 71.039 66.2495 70.867 66.8405 70.54C67.4316 70.213 67.9302 69.7417 68.2898 69.17L71.6098 71.62ZM82.2298 62.68C81.4558 62.6561 80.6923 62.8638 80.037 63.2764C79.3817 63.6891 78.8645 64.2879 78.5515 64.9963C78.2386 65.7047 78.1443 66.4903 78.2805 67.2526C78.4168 68.015 78.7775 68.7193 79.3164 69.2753C79.8554 69.8314 80.548 70.214 81.3057 70.3741C82.0634 70.5342 82.8516 70.4645 83.5694 70.1739C84.2873 69.8833 84.902 69.3851 85.335 68.7431C85.768 68.1011 85.9995 67.3444 85.9998 66.57C86.0423 66.0561 85.9738 65.5391 85.7991 65.054C85.6244 64.5689 85.3476 64.1269 84.9873 63.7581C84.6269 63.3893 84.1916 63.1021 83.7107 62.9161C83.2298 62.7301 82.7146 62.6496 82.1998 62.68M90.3998 74.26H85.9998V72.26C85.4502 72.9931 84.7398 73.5906 83.9234 74.0066C83.107 74.4227 82.2061 74.6462 81.2898 74.66C76.7298 74.66 73.7298 71.37 73.7298 66.72C73.7298 62.45 76.3898 58.53 80.7298 58.53C81.6424 58.4498 82.5608 58.5896 83.4081 58.9376C84.2555 59.2855 85.0071 59.8316 85.5998 60.53H85.6598V51.73H90.3998V74.26Z" fill="#1D1D1B"/>
<path d="M124.6 46.9998H97.36C97.0507 46.9958 96.7437 47.0535 96.4568 47.1694C96.17 47.2853 95.9092 47.4572 95.6895 47.675C95.4698 47.8929 95.2957 48.1523 95.1773 48.4381C95.0589 48.7239 94.9987 49.0304 95 49.3398V76.6898C95.0026 76.9966 95.0658 77.2999 95.186 77.5823C95.3061 77.8646 95.4808 78.1205 95.7001 78.3351C95.9194 78.5497 96.1789 78.7189 96.4638 78.833C96.7486 78.9471 97.0532 79.0038 97.36 78.9998H124.6C124.91 79.0078 125.218 78.9541 125.507 78.842C125.796 78.7298 126.06 78.5614 126.283 78.3465C126.506 78.1316 126.685 77.8745 126.808 77.5901C126.931 77.3057 126.996 76.9997 127 76.6898V49.3398C127 49.0274 126.938 48.7181 126.816 48.4302C126.695 48.1424 126.517 47.8817 126.294 47.6636C126.07 47.4455 125.805 47.2744 125.514 47.1604C125.223 47.0464 124.912 46.9918 124.6 46.9998ZM104.48 74.2698H99.74V58.9998H104.48V74.2698ZM102.11 56.9298C101.566 56.9298 101.034 56.7685 100.582 56.4663C100.13 56.1642 99.7775 55.7347 99.5694 55.2322C99.3612 54.7297 99.3068 54.1767 99.4129 53.6433C99.519 53.1098 99.7809 52.6198 100.165 52.2352C100.55 51.8507 101.04 51.5887 101.574 51.4826C102.107 51.3765 102.66 51.431 103.162 51.6391C103.665 51.8473 104.094 52.1997 104.397 52.652C104.699 53.1042 104.86 53.6359 104.86 54.1798C104.86 54.9091 104.57 55.6086 104.055 56.1243C103.539 56.6401 102.839 56.9298 102.11 56.9298ZM122.24 74.2698H117.5V66.8498C117.5 65.0798 117.5 62.8498 115.04 62.8498C112.58 62.8498 112.19 64.7798 112.19 66.7698V74.3198H107.45V58.9998H112V61.0998H112.06C112.517 60.3232 113.176 59.6845 113.966 59.2515C114.757 58.8185 115.649 58.6071 116.55 58.6398C121.35 58.6398 122.24 61.7998 122.24 65.9098V74.2698Z" fill="black"/>
</svg>
