<svg width="128" height="128" viewBox="0 0 128 128" fill="none" xmlns="http://www.w3.org/2000/svg">
<path fill-rule="evenodd" clip-rule="evenodd" d="M113.823 104.595C112.028 103.117 110.194 101.674 108.515 100.07C106.645 98.2852 105.47 96.1262 105.726 93.3922C105.873 91.8192 105.51 90.4662 103.613 89.9402C104.059 88.7862 104.477 88.0122 104.646 87.1872C104.834 86.2672 104.824 85.3002 104.85 84.3532C105.114 74.3932 101.516 65.6622 96.1872 57.5182C93.7332 53.7702 91.1702 50.0892 88.5542 46.4522C84.4622 40.7642 82.9952 34.3742 82.9212 27.4712C82.8792 24.2846 82.517 21.1103 81.8402 17.9962C80.5272 11.9562 77.2912 7.23318 71.4222 4.70018C66.9252 2.75818 62.2702 2.37318 57.5212 3.61618C50.6202 5.42118 46.4472 10.5502 46.5252 17.7042C46.5992 24.5892 46.9422 31.4832 47.4472 38.3522C47.7352 42.2452 47.1352 45.6042 44.5522 48.6922C42.0682 51.6612 39.8462 54.8642 37.6942 58.0892C36.4652 59.9332 35.3772 61.9422 34.6172 64.0202C32.5472 69.6832 30.6442 75.3932 27.3412 80.5202C26.1172 82.4202 25.9782 84.5462 26.8472 86.7192C27.0722 87.2822 27.2102 88.1482 26.9362 88.6012C24.5822 92.5082 21.9252 95.9462 16.8702 96.6962C12.8942 97.2872 12.6982 98.0102 12.8192 102.109C12.9192 105.446 12.8802 108.814 12.5392 112.13C12.1762 115.685 12.5472 116.651 15.9812 117.503C23.9052 119.471 31.8942 121.15 39.4732 124.357C42.7002 125.722 45.9382 125.248 48.5372 122.594C51.2502 119.823 54.6782 118.739 58.3812 118.735C64.6662 118.73 70.9532 119.033 77.2412 119.104C78.9432 119.124 79.9202 119.757 80.6052 121.303C81.4452 123.196 82.8652 124.587 85.0502 124.829C89.2432 125.291 93.0632 124.669 96.2402 121.47C100.158 117.522 104.676 114.404 109.855 112.243C111.337 111.624 112.733 110.651 113.958 109.595C116.189 107.673 116.071 106.449 113.823 104.595ZM62.4262 24.1202C63.1842 21.5192 64.9632 19.8312 67.6692 19.3192C69.9452 18.8892 71.8722 20.0072 73.3082 22.5652C74.8542 25.3232 75.3622 28.2052 74.0422 31.2232C72.9592 33.6972 72.4512 33.9302 69.9192 33.0912C69.4452 32.9342 68.9822 32.7482 68.1422 32.4392C68.8502 31.8452 69.2962 31.4042 69.8062 31.0572C70.9402 30.2852 71.2582 29.1992 71.1522 27.9092C71.0132 26.2152 69.6812 24.7152 68.3152 24.7342C67.0902 24.7512 66.0532 25.9012 65.9152 27.6492C65.8292 28.7382 66.0102 29.8482 66.0882 31.2382C62.6422 30.2152 61.3772 27.7132 62.4262 24.1202ZM49.6762 21.8692C50.9502 19.9412 52.8732 19.5552 54.7772 20.8452C56.8062 22.2212 58.3242 26.1012 57.5402 28.4212C57.2552 29.2652 56.4132 29.9212 55.8242 30.6622L55.2202 30.2882C54.9902 29.0352 54.9442 27.7032 54.4632 26.5552C54.1592 25.8272 53.2062 25.3712 52.5442 24.7932C51.9222 25.5322 50.8512 26.2362 50.7872 27.0212C50.6992 28.1052 51.2642 29.3012 51.7562 30.3522C52.0672 31.0132 52.7572 31.4972 53.4692 32.2682L51.5472 33.7782C48.5292 31.0782 47.6322 24.9582 49.6762 21.8692ZM87.3402 86.0752C87.1372 88.6792 86.8402 88.7882 84.2222 89.1732C82.3632 89.4452 81.8632 89.9292 81.7692 92.1372C81.6667 94.7204 81.6627 97.3066 81.7572 99.8902C81.8182 101.66 81.2202 103.048 80.0022 104.283C73.2382 111.139 65.1572 114.388 55.4902 113.209C51.3202 112.7 48.5942 110.162 46.3932 106.57C47.3732 106.207 48.0982 105.963 48.8052 105.676C51.9272 104.406 52.5112 101.721 50.0182 99.3992C48.1342 97.6422 46.0322 96.1162 44.0112 94.5072C42.0572 92.9522 40.0772 91.4292 38.1202 89.8782C36.4522 88.5552 35.8152 86.8502 35.7752 84.6902C35.6812 79.5082 36.7472 74.6602 38.9132 69.9432C40.8452 65.7342 42.3422 61.3262 44.1522 57.0582C45.0872 54.8562 46.0582 52.6032 47.4302 50.6702C48.7492 48.8162 49.5642 47.0012 49.4182 44.7302C49.3342 43.4542 49.4022 42.1682 49.4022 40.8872L50.1092 40.5352C51.2502 41.5202 52.4112 42.4842 53.5322 43.4942C57.5772 47.1402 61.4242 47.3072 65.8512 44.1642C67.7392 42.8232 69.7812 41.6942 71.7782 40.5122C72.2752 40.2182 72.8702 40.0892 73.7122 39.7742C75.8632 44.8402 77.9742 49.8072 80.0872 54.7742C81.1592 57.2982 82.0192 59.9412 83.3512 62.3212C86.0222 67.0962 87.4432 72.1342 87.4212 77.5932C87.4092 80.4232 87.5582 83.2632 87.3402 86.0752Z" fill="black"/>
</svg>
