<svg width="128" height="128" viewBox="0 0 128 128" fill="none" xmlns="http://www.w3.org/2000/svg">
<path d="M127.3 15.0998C127.3 7.1998 120.9 0.799805 113 0.799805C105.1 0.799805 98.6001 7.0998 98.6001 15.0998C98.6001 23.0998 105 29.3998 113 29.3998C121 29.3998 127.3 22.9998 127.3 15.0998Z" fill="#000080"/>
<path d="M64 15.1001C37 15.1001 15 37.0001 15 64.1001C15 91.2001 36.9 113.1 64 113.1C91.1 113.1 113 91.2001 113 64.1001C113 37.0001 91 15.1001 64 15.1001ZM70 43.7001C70 35.8001 76.4 29.4001 84.3 29.4001C92.2 29.4001 98.6 35.8001 98.6 43.7001C98.6 51.6001 92.2 58.0001 84.3 58.0001C76.4 58.0001 70 51.6001 70 43.7001Z" fill="#000080"/>
<path d="M66.3 128L66.2 126.5C68 126.4 69.8 126.3 71.6 126.1L71.8 127.6C70 127.8 68.1 127.9 66.3 128ZM60.7 128C58.8 127.9 57 127.7 55.1 127.5L55.3 126C57.1 126.2 58.9 126.4 60.7 126.5V128ZM77.3 126.6L77 125.2C78.8 124.8 80.5 124.4 82.3 123.8L82.7 125.2C81 125.8 79.2 126.3 77.3 126.6ZM49.6 126.4C47.8 126 46 125.5 44.2 124.9L44.7 123.5C46.4 124.1 48.2 124.5 50 125L49.6 126.4ZM88 123.4L87.4 122C89.1 121.3 90.7 120.6 92.4 119.7L93.1 121C91.4 121.9 89.7 122.7 88 123.4ZM39 123C37.3 122.3 35.6 121.5 34 120.6L34.7 119.3C36.3 120.2 38 120.9 39.6 121.7L39 123ZM98 118.3L97.2 117.1C98.7 116.1 100.2 115.1 101.7 114L102.6 115.2C101.1 116.3 99.5 117.3 98 118.3ZM29.2 117.7C27.6 116.7 26.1 115.6 24.7 114.5L25.6 113.3C27 114.4 28.5 115.5 30 116.5L29.2 117.7ZM106.9 111.6L105.9 110.5C107.2 109.3 108.6 108 109.8 106.7L110.9 107.7C109.6 109 108.2 110.3 106.9 111.6ZM20.4 110.9C19 109.6 17.7 108.3 16.5 106.9L17.6 105.9C18.8 107.2 20.1 108.6 21.4 109.8L20.4 110.9ZM114.5 103.4L113.3 102.5C114.4 101.1 115.5 99.6 116.5 98.1L117.7 98.9C116.7 100.4 115.6 102 114.5 103.4ZM12.9 102.6C11.8 101.1 10.7 99.6 9.7 98L10.9 97.2C11.9 98.7 12.9 100.2 14 101.7L12.9 102.6ZM120.6 94.1L119.3 93.4C120.2 91.8 120.9 90.1 121.7 88.5L123 89L120.6 94.1ZM7 93.1C6.2 91.4 5.4 89.7 4.7 88L6 87.5C6.7 89.2 7.4 90.8 8.3 92.5L7 93.1ZM124.9 83.8L123.5 83.3C124.1 81.6 124.5 79.8 125 78L126.4 78.3C126 80.2 125.5 82 124.9 83.8ZM2.8 82.8C2.3 81 1.8 79.2 1.4 77.4L2.8 77.1C3.2 78.9 3.6 80.6 4.2 82.4L2.8 82.8ZM127.4 72.9L125.9 72.7C126.1 70.9 126.3 69.1 126.4 67.3L127.9 67.4C127.9 69.2 127.7 71.1 127.4 72.9ZM0.5 71.9C0.2 70 0.1 68.2 0 66.3L1.5 66.2C1.6 68 1.7 69.8 1.9 71.6L0.5 71.9ZM126.5 61.8C126.4 60 126.3 58.2 126.1 56.4L127.6 56.2C127.8 58 128 59.9 128 61.8H126.5ZM1.5 60.8L0 60.7C0.1 58.8 0.3 57 0.5 55.1L2 55.4C1.8 57.2 1.6 59 1.5 60.8ZM125.2 51C124.8 49.2 124.4 47.4 123.8 45.7L125.2 45.3C125.7 47.1 126.2 48.9 126.6 50.7L125.2 51ZM3 50L1.6 49.7C2 47.9 2.5 46.1 3.1 44.3L4.5 44.8C3.9 46.5 3.4 48.2 3 50ZM122 40.6C121.3 38.9 120.6 37.2 119.7 35.6L121 34.9C121.8 36.6 122.6 38.3 123.3 40L122 40.6ZM6.4 39.6L5 39.1C5.7 37.4 6.5 35.7 7.4 34.1L8.7 34.8C7.9 36.3 7.1 38 6.4 39.6ZM11.5 30L10.3 29.2C11.3 27.6 12.4 26.1 13.5 24.7L14.7 25.6C13.5 27 12.5 28.5 11.5 30ZM18.2 21.4L17.1 20.4C18.4 19 19.7 17.7 21.1 16.5L22.1 17.6C20.7 18.8 19.4 20.1 18.2 21.4ZM26.3 14.1L25.4 12.9C26.9 11.8 28.4 10.7 30 9.7L30.8 10.9C29.2 12 27.7 13 26.3 14.1ZM93.3 8.7C91.7 7.9 90 7.1 88.4 6.4L88.9 5C90.6 5.7 92.3 6.5 93.9 7.4L93.3 8.7ZM35.5 8.3L34.8 7C36.5 6.2 38.2 5.4 39.9 4.7L40.5 6C38.8 6.7 37.1 7.5 35.5 8.3ZM83.2 4.5C81.5 3.9 79.7 3.5 77.9 3.1L78.2 1.7C80 2.1 81.8 2.6 83.6 3.2L83.2 4.5ZM45.6 4.2L45.2 2.8C47 2.3 48.8 1.8 50.6 1.4L50.9 2.8C49.1 3.2 47.3 3.7 45.6 4.2ZM72.6 2C70.8 1.8 69 1.6 67.2 1.5L67.3 0C69.2 0.1 71 0.3 72.9 0.5L72.6 2ZM56.3 1.9L56.1 0.4C57.9 0.2 59.8 0 61.7 0L61.8 1.5C59.9 1.5 58.1 1.7 56.3 1.9Z" fill="#808080"/>
</svg>
