<svg width="128" height="128" viewBox="0 0 128 128" fill="none" xmlns="http://www.w3.org/2000/svg">
<path d="M85.6998 10.0999C85.9998 10.1999 87.8998 10.7999 91.6998 17.2999C94.2998 21.6999 97.2998 28.1999 100.7 36.3999C107 51.5999 113.5 70.2999 118.2 83.8999C119.7 88.2999 121 91.9999 122 94.8999C120.7 93.7999 119.3 92.6999 117.9 91.5999C110.7 85.9999 105.3 83.2999 101.6 83.2999H101.4C94.2998 83.4999 88.8998 89.6999 81.2998 98.1999C78.8998 100.9 76.1998 104 73.0998 107.3C65.0998 115.7 59.8998 118 57.4998 118.7C53.8998 107.1 49.8998 98.4999 45.3998 93.1999C42.7998 90.0999 40.1998 87.9999 37.3998 86.9999L43.2998 82.8999L43.3998 82.7999L43.4998 82.6999C50.8998 76.6999 58.7998 65.0999 66.8998 48.3999C72.8998 35.9999 76.7998 25.2999 76.7998 25.1999L76.8998 24.9999V24.7999C79.9998 10.3999 85.4998 10.0999 85.6998 10.0999ZM85.6998 7.8999C84.3998 7.8999 77.9998 8.6999 74.5998 24.4999C74.5998 24.4999 59.1998 66.9999 41.9998 80.9999L29.4998 89.6999C30.2998 89.1999 31.7998 88.5999 33.6998 88.5999C38.9998 88.5999 47.6998 93.6999 55.8998 121.2H56.0998C57.1998 121.2 63.6998 120.6 74.7998 108.9C87.0998 95.8999 93.3998 85.7999 101.5 85.5999H101.6C109.1 85.5999 125.2 100.7 127.7 103.1C124 96.9999 97.9998 9.2999 85.9998 7.8999H85.6998ZM29.5998 89.6999C29.0998 89.9999 28.7998 90.2999 28.7998 90.2999L29.5998 89.6999ZM127.7 103C127.8 103.2 127.9 103.3 128 103.3L127.7 103Z" fill="#6DD0C7"/>
<path d="M38.7299 52.7461L1.06787 69.6721L28.5409 90.8871L28.8589 90.8981C29.5829 90.9281 30.1289 90.6841 30.9549 90.3321C31.7809 89.9801 32.7839 89.4731 33.9239 88.8301C36.2039 87.5441 39.0259 85.7101 41.9199 83.4941C47.7079 79.0611 53.8019 73.1481 56.2319 66.8611L56.5059 66.1561L55.9019 65.7011L38.7299 52.7461ZM38.4699 55.0551L54.0199 66.7871C51.6659 72.1991 46.1249 77.7551 40.7049 81.9071C37.8869 84.0651 35.1269 85.8551 32.9409 87.0871C31.8489 87.7041 30.8979 88.1831 30.1709 88.4921C29.5709 88.7491 29.2539 88.7981 29.1509 88.8301L4.92987 70.1301L38.4699 55.0561V55.0551Z" fill="#6DD0C7"/>
<path d="M79.0079 14C78.829 13.9986 78.653 14.0451 78.4983 14.1348C78.3435 14.2245 78.2156 14.3541 78.1279 14.51C71.5149 26.246 66.4979 32.112 62.5739 35.16C58.6499 38.208 55.8559 38.507 53.0839 39.123L53.0999 39.121C51.4349 39.461 49.7869 40.558 48.1149 41.953C46.4429 43.348 44.7729 45.069 43.2769 46.748C41.4112 48.8536 39.646 51.0461 37.9869 53.318C37.8325 53.5335 37.77 53.8016 37.8131 54.0632C37.8563 54.3247 38.0015 54.5585 38.2169 54.713C38.3237 54.7896 38.4445 54.8445 38.5724 54.8744C38.7004 54.9043 38.833 54.9087 38.9626 54.8873C39.0922 54.866 39.2164 54.8193 39.328 54.7499C39.4396 54.6805 39.5364 54.5898 39.6129 54.483C39.6129 54.483 41.8629 51.344 44.7709 48.078C46.2259 46.445 47.8439 44.784 49.3959 43.488C50.9489 42.193 52.4649 41.291 53.4999 41.08C53.5059 41.0788 53.5119 41.0774 53.5179 41.076C56.1449 40.492 59.5499 40.042 63.8009 36.74C68.0509 33.438 73.1849 27.354 79.8709 15.49C80.0008 15.2591 80.0337 14.9861 79.9625 14.7309C79.8912 14.4758 79.7216 14.2593 79.4909 14.129C79.3435 14.0458 79.1773 14.0014 79.0079 14Z" fill="#6DD0C7"/>
</svg>
