<svg width="128" height="128" viewBox="0 0 128 128" fill="none" xmlns="http://www.w3.org/2000/svg">
<path d="M123.965 91.9022C116.719 73.6052 110.703 54.8442 103.781 36.4262C100.727 28.5862 97.734 20.6802 93.566 13.3442C91.91 10.7112 90.328 7.81621 87.613 6.12921C86.9475 5.71444 86.175 5.50376 85.391 5.52321C84.121 5.55121 82.855 6.11721 81.887 6.93821C78.242 9.82421 76.082 14.0202 73.66 17.8872C69.383 25.0592 64.871 32.5742 57.719 37.2342C54.359 39.6052 49.957 39.8642 46.719 42.4062C42.289 45.7462 39.277 50.4842 35.645 54.5902C34.816 55.5782 33.535 55.9732 32.418 56.5082C21.578 60.9302 10.738 65.3362 0 69.9802C9.09 77.0122 18.777 83.2702 28.05 90.0592C30.594 89.5552 33.148 88.5122 35.77 88.9772C39.93 90.2772 42.367 94.2622 44.273 97.9072C48.148 105.847 50.949 114.23 54.086 122.477C59.332 122.102 64.055 119.398 68.113 116.219C75.922 109.895 81.871 101.719 88.418 94.1722C91.558 90.8722 94.758 86.9422 99.468 86.0232C104.23 84.8712 109.332 86.5782 112.863 89.8592C117.82 94.2892 122.207 99.4102 128 102.801C127.223 98.9652 125.355 95.5232 123.965 91.9022ZM42.96 79.0122C38.39 81.7152 33.534 83.9422 28.784 86.3012C21.327 81.3052 14.061 76.0112 6.734 70.8362C16.612 66.5082 26.644 62.4882 36.651 58.4492C41.397 62.1522 46.288 65.6722 51.034 69.3752C48.804 72.9382 46.12 76.2462 42.96 79.0122ZM53.128 66.5982C48.414 63.0582 43.64 59.6092 39 55.9772C41.977 51.9222 45.238 48.0002 49.14 44.8052C51.727 43.1482 54.883 42.6882 57.566 41.1952C63.934 38.0152 68.277 32.1842 72.426 26.6132C67.109 40.4182 61.434 54.2772 53.129 66.5982H53.128Z" fill="black"/>
</svg>
