<svg width="128" height="128" viewBox="0 0 128 128" fill="none" xmlns="http://www.w3.org/2000/svg">
<path d="M8 70.2002L39.879 57.3202C43.1151 53.043 46.7599 49.091 50.762 45.5202C53.398 44.1212 58.359 44.8792 67.442 33.6022C76.238 22.6022 79.039 13.1992 83.16 13.1992C89.68 13.1992 94.48 27.2812 101.762 48.6022C106.951 64.8868 113.039 80.8707 120 96.4802C112.398 89.3982 105.922 81.7622 98.52 81.9602C91.64 82.1212 84 90.2812 75.64 100.762C69 109.16 60.2 114.922 56.763 114.8C56.763 114.8 47.88 89.6792 40.443 85.6002C38.8993 84.9686 37.2279 84.7116 35.5658 84.8501C33.9036 84.9886 32.2979 85.5188 30.88 86.3972L8 70.1602V70.2002Z" fill="#4499DD"/>
<path d="M79.1999 16.0781C76.5199 19.6801 73.2799 26.2811 67.4399 33.6021C58.3579 44.8791 53.4399 44.1221 50.7599 45.5201C46.7398 49.0722 43.0935 53.0261 39.8779 57.3201L53.0779 66.9601C64.2799 51.6801 70.2799 35.1221 74.9599 24.3991C76.1327 21.51 77.5505 18.7265 79.1979 16.0791L79.1999 16.0781Z" fill="url(#paint0_linear_3_7169)"/>
<path d="M83.1998 13.2002C74.4798 13.2002 68.5198 59.1212 36.3198 84.7622C45.3598 83.2822 53.1998 105.719 56.7998 114.801C72.7998 112.078 85.6018 81.4812 98.5198 81.9612C105.922 82.2382 112.398 89.3982 120 96.4812C102.64 60.0002 94.5198 13.1982 83.1998 13.1982V13.2002Z" fill="url(#paint1_linear_3_7169)"/>
<defs>
<linearGradient id="paint0_linear_3_7169" x1="67.2119" y1="61.4761" x2="60.0519" y2="38.3561" gradientUnits="userSpaceOnUse">
<stop stop-color="#551122"/>
<stop offset="0.23" stop-color="#552233"/>
<stop offset="0.36" stop-color="#553344"/>
<stop offset="0.51" stop-color="#664455"/>
<stop offset="0.66" stop-color="#556688"/>
<stop offset="0.84" stop-color="#2299DD"/>
</linearGradient>
<linearGradient id="paint1_linear_3_7169" x1="118.84" y1="75.9323" x2="46.8398" y2="58.2522" gradientUnits="userSpaceOnUse">
<stop offset="0.081" stop-color="#CC3333"/>
<stop offset="0.189" stop-color="#DE5239"/>
<stop offset="0.313" stop-color="#F06E3E"/>
<stop offset="0.421" stop-color="#FA8042"/>
<stop offset="0.5" stop-color="#FE8643"/>
<stop offset="0.58" stop-color="#FA7F42"/>
<stop offset="0.696" stop-color="#EF6C3E"/>
<stop offset="0.833" stop-color="#DC4C37"/>
<stop offset="0.916" stop-color="#CF3633"/>
</linearGradient>
</defs>
</svg>
