<svg width="128" height="128" viewBox="0 0 128 128" fill="none" xmlns="http://www.w3.org/2000/svg">
<path d="M92.0001 99.2H115V5.5H84.6001L64.6001 53.5C64.6001 53.5 66.5001 58.3 68.1001 63.1C70.5001 70.6 73.2001 79.5 73.2001 79.5L71.6001 81.1H73.0001C73.3001 81.1 73.8001 80.9 74.6001 79.5C78.0001 73.3 110.9 12 110.9 12C110.9 12 106.7 22.2 100.1 34.9C94.7001 45.2 89.5001 54.7 89.5001 54.7V93.3L92.0001 99.2C92.0001 99.2 92.2001 98.7 92.8001 96.7C97.2001 85.7 101.1 74.5 104.3 63C110.2 41.9 113.3 23.5 113.3 23.5C111.8 37.1 109.3 50.6 105.7 63.8C102.5 75.2 98.1001 86.2 92.8001 96.7C92.2001 98.5 92.0001 99.2 92.0001 99.2Z" fill="#149B9A"/>
<path d="M73 81.1H55.8C55.5 81.1 55 80.9 54.2 79.5C50.6 73.1 15.5 9.6 15.5 9.6C15.5 9.6 21.2 23.1 26.7 32.8C31.9 42 36 49.5 36 49.5C33.3 58.1 30 66.5 26.2 74.7C22 83.6 14.7 96.8 14.7 96.8C19 90.3 23 83.6 26.6 76.6C32.6 65.2 36.9 50.7 36.9 50.7L37.7 52.3V95.1C32.5 101.5 13 99.8 13 99.8V5.8L42.6 3L73 79.5V81.1ZM61 106L56 120L51 106H47V125H50V111L55 125H57L62 111V125H65V106H61ZM99.5 106L93 117V125H90V117L83.6 106H87L91.5 114L96 106H99.5ZM109.9 120L111.4 125H115L109 106H104L98 125H101.5L103 120H109.9ZM103.9 117.3L106.6 108.4L109.2 117.3H103.9ZM79.9 120L81.4 125H85L79 106H74L68 125H71.5L73 120H79.9ZM73.9 117.3L76.6 108.4L79.2 117.3H73.9Z" fill="#149B9A"/>
</svg>
