<svg width="128" height="128" viewBox="0 0 128 128" fill="none" xmlns="http://www.w3.org/2000/svg">
<path d="M98 121H126V6.99984L89 6.98584L64.626 65.3618C64.626 65.3618 66.926 71.1428 68.853 77.0718C71.8 86.1448 75 96.9998 75 96.9998L73 98.9998H75C75.4 98.9998 75.969 98.7448 77 96.9998C81.073 89.4468 121 14.9998 121 14.9998C121 14.9998 115.926 27.4298 107.838 42.8778C101.3 55.3758 95 66.9998 95 66.9998V114L98 121C98 121 98.216 120.341 99 118C104.407 104.622 109.081 90.9589 113 77.0718C120.125 51.4518 124 28.9998 124 28.9998C122.202 45.5545 119.101 61.9416 114.727 78.0088C110.803 91.8206 105.535 105.215 99 118L98 121Z" fill="#149B9A"/>
<path d="M75 99H54C53.6 99 53.042 98.782 52 97C47.681 89.233 5 12 5 12C5 12 11.982 28.412 18.6 40.224C22.3817 46.9773 26.1394 53.744 29.873 60.524C26.5541 70.9642 22.5795 81.1845 17.973 91.124C12.866 101.955 4 118 4 118C9.23179 110.076 14.0512 101.887 18.439 93.466C25.677 79.607 31 62 31 62L32 64V116C25.7 123.77 2 121.727 2 121.727V7.435L38 4L75 97V99Z" fill="#149B9A"/>
</svg>
