<svg width="128" height="128" viewBox="0 0 128 128" fill="none" xmlns="http://www.w3.org/2000/svg">
<path d="M10.3 67.7998C8.7 65.1998 7.1 61.9998 5.5 59.9998H1V78.9998H5V65.9998C6 66.7998 6.2 67.7998 6.8 68.5998C7.4 69.4998 8 70.3998 8.6 71.1998C9.2 71.9998 9.5 72.8998 10.1 73.7998C11.8 71.0998 13 68.5998 15 65.7998V78.9998H20V59.9998H15.2C13.6 61.9998 12 65.1998 10.3 67.7998ZM123 71.8998C123.6 71.4998 124.2 70.9998 124.7 70.5998C126.1 69.6998 126.7 68.1998 126.9 66.5998C127 65.8998 126.9 65.0998 126.9 64.3998L126.8 63.6998C126.6 62.8998 126.2 62.1998 125.7 61.4998C125.2 60.6998 124.4 60.4998 123.8 59.9998C122.7 59.6998 121.6 59.2998 120.4 59.2998C117.7 59.3998 114.8 59.2998 112 59.2998H111.1V78.8998H116.1V72.8998H118.8C120.1 74.8998 121.5 76.8998 122.7 78.8998H127.4C126 76.9998 124.4 74.0998 123 71.8998ZM122.4 66.8998C122 67.5998 121.5 68.0998 120.6 68.1998C120 68.2998 119.7 68.3998 119.1 68.3998H115.9V62.8998H119.8C120.3 62.8998 120.7 62.9998 121.1 63.1998C121.8 63.4998 122.3 64.0998 122.6 64.7998C123.1 65.5998 123 65.9998 122.4 66.8998ZM25 78.9998H39V74.9998H29V70.5998C29 70.4998 29.1 70.9998 29.2 70.9998H38V67.9998H29V63.9998H39V59.9998H25V78.9998ZM68.9 74.2998C69 72.9998 69 71.7998 69 70.5998C69 70.4998 68.9 70.9998 69 70.9998H78V67.9998H69V63.9998H79V59.9998H65V78.9998H79V74.2998H68.9ZM44 63.0998H49.7C49.7 63.0998 49.9 63.0998 49.9 63.1998V77.7998H53.9V63.8998H58.9V59.8998H43.9C44 60.9998 44 61.8998 44 63.0998Z" fill="black"/>
<path d="M105.7 64.2999C106 64.2999 106.2 64.0999 106.2 63.7999C106.2 63.6999 106.2 63.5999 106.1 63.4999L99.5002 57.3999L105.3 63.9999C105.4 64.1999 105.5 64.2999 105.7 64.2999ZM107.1 67.6999L92.7002 54.5999L105.8 68.8999C106 68.9999 106.2 69.0999 106.4 69.0999C106.9 69.0999 107.2 68.6999 107.2 68.2999C107.3 67.9999 107.2 67.7999 107.1 67.6999ZM100.8 76.4999L80.1002 57.3999L99.2002 78.1999C99.4002 78.3999 99.7002 78.5999 100.1 78.5999C100.7 78.5999 101.3 78.0999 101.3 77.3999C101.2 77.0999 101 76.6999 100.8 76.4999ZM77.7002 49.3999L103 76.3999C103.2 76.5999 103.5 76.6999 103.8 76.6999C104.4 76.6999 105 76.1999 105 75.4999C105 75.2999 104.9 74.9999 104.8 74.7999C104.7 74.7999 77.7002 49.3999 77.7002 49.3999ZM106.5 71.1999L85.8002 52.0999L104.9 72.8999C105.1 73.0999 105.4 73.2999 105.8 73.2999C106.4 73.2999 107 72.7999 107 72.0999C106.9 71.7999 106.7 71.3999 106.5 71.1999ZM96.5002 77.0999C96.4002 76.9999 96.5002 76.9999 96.5002 77.0999L82.1002 63.9999L95.2002 78.2999C95.4002 78.3999 95.6002 78.4999 95.8002 78.4999C96.3002 78.4999 96.6002 78.0999 96.6002 77.6999C96.7002 77.3999 96.6002 77.1999 96.5002 77.0999ZM85.5002 70.4999L91.3002 77.0999C91.4002 77.1999 91.5002 77.3999 91.7002 77.3999C92.0002 77.3999 92.2002 77.1999 92.2002 76.8999C92.2002 76.7999 92.2002 76.6999 92.1002 76.5999C92.0002 76.4999 85.5002 70.4999 85.5002 70.4999Z" fill="#DF5052"/>
</svg>
