<svg width="128" height="128" viewBox="0 0 128 128" fill="none" xmlns="http://www.w3.org/2000/svg">
<path d="M120.3 65.4C121.5 65.4 122.4 64.5 122.4 63.3C122.4 62.8 122.2 62.3 121.9 62C121.8 61.8 93.9 36.2 93.9 36.2L118.5 64.3C118.8 65 119.5 65.4 120.3 65.4ZM126 79.7L125.8 79.5L65 24L120.7 84.6L120.9 84.8C121.5 85.4 122.4 85.8 123.4 85.8C125.4 85.8 127 84.2 127 82.2C127 81.3 126.6 80.4 126 79.7ZM99.1 117.3L11.1 35.8L92.2 124.3C93.1 125.3 94.4 126 95.9 126C98.6 126 100.8 123.8 100.8 121.1C100.8 119.6 100.2 118.2 99.1 117.3ZM1 2L108.6 116.6L108.7 116.7C109.6 117.6 110.8 118.1 112.1 118.1C114.8 118.1 117 115.9 117 113.2C117 112.2 116.7 111.2 116.1 110.4C115.8 109.9 1 2 1 2ZM123.4 94.8L35.4 13.3L116.5 101.8C117.4 102.8 118.7 103.5 120.2 103.5C122.9 103.5 125.1 101.3 125.1 98.6C125.1 97 124.4 95.7 123.4 94.8ZM80.9 119.6L80.7 119.4L19.9 63.9L75.6 124.5L75.8 124.7C76.4 125.3 77.3 125.7 78.3 125.7C80.3 125.7 81.9 124.1 81.9 122.1C81.9 121.1 81.5 120.3 80.9 119.6ZM34.1 91.7L58.7 119.8C59.1 120.4 59.7 120.9 60.5 120.9C61.7 120.9 62.6 120 62.6 118.8C62.6 118.3 62.4 117.8 62.1 117.5C61.9 117.4 34.1 91.7 34.1 91.7Z" fill="#DF5052"/>
</svg>
