<svg width="128" height="128" viewBox="0 0 128 128" fill="none" xmlns="http://www.w3.org/2000/svg">
<path d="M10.2 67.7999C8.5 65.1999 6.9 61.9999 5.3 59.9999H1V78.9999H5V65.9999C6 66.7999 6.1 67.7999 6.7 68.5999C7.3 69.4999 7.9 70.3999 8.5 71.1999C9.1 71.9999 9.4 72.8999 10.1 73.7999C11.8 71.0999 13.1 68.5999 15.1 65.7999C15 69.9999 15 74.9999 15 78.9999H20V59.9999H15C13.4 61.9999 11.8 65.1999 10.2 67.7999ZM122.8 71.8999C123.4 71.4999 124 70.9999 124.5 70.5999C125.9 69.6999 126.5 68.1999 126.7 66.5999C126.8 65.8999 126.7 65.0999 126.7 64.3999L126.6 63.6999C126.4 62.8999 126 62.1999 125.5 61.4999C125 60.6999 124.2 60.4999 123.6 59.9999C122.5 59.6999 121.4 59.2999 120.2 59.2999C117.5 59.3999 114.7 59.2999 111.9 59.2999H111.1V78.8999H116.1V72.8999H118.6C119.9 74.8999 121.3 76.8999 122.5 78.8999H127.2C125.8 76.9999 124.2 74.0999 122.8 71.8999ZM122.2 66.8999C121.8 67.5999 121.3 68.0999 120.4 68.1999C119.8 68.2999 119.6 68.3999 119 68.3999H115.9V62.8999H119.7C120.2 62.8999 120.5 62.9999 121 63.1999C121.7 63.4999 122.1 64.0999 122.4 64.7999C122.9 65.5999 122.8 65.9999 122.2 66.8999ZM25 78.9999H39V74.9999H29V70.9999H38V67.9999H29V63.9999H39V59.9999H25V78.9999ZM65 78.9999H79V74.2999H68.8L69 74.1999V70.9999H78V67.9999H69V63.9999H79V59.9999H65V78.9999ZM44 63.0999H49.7C49.7 63.0999 50 63.0999 50 63.1999V77.7999H54V63.8999H59V59.8999H44V63.0999ZM105.6 64.2999C105.9 64.2999 106.1 64.0999 106.1 63.7999C106.1 63.6999 106.1 63.5999 106 63.4999L99.4 57.3999L105.2 63.9999C105.2 64.1999 105.4 64.2999 105.6 64.2999ZM106.9 67.6999L92.6 54.5999L105.7 68.8999C105.9 68.9999 106.1 69.0999 106.3 69.0999C106.8 69.0999 107.1 68.6999 107.1 68.2999C107.1 67.9999 107 67.7999 106.9 67.6999ZM79.9 57.3999L99 78.1999C99.2 78.3999 99.5 78.5999 99.9 78.5999C100.5 78.5999 101.1 78.0999 101.1 77.3999C101.1 76.9999 100.9 76.6999 100.7 76.4999L79.9 57.3999ZM77.5 49.3999L102.8 76.2999C103 76.4999 103.3 76.5999 103.6 76.5999C104.2 76.5999 104.8 76.0999 104.8 75.3999C104.8 75.1999 104.7 74.8999 104.6 74.6999C104.5 74.7999 77.5 49.3999 77.5 49.3999ZM85.6 52.0999L104.7 72.8999C104.9 73.0999 105.2 73.2999 105.6 73.2999C106.2 73.2999 106.8 72.7999 106.8 72.0999C106.8 71.6999 106.6 71.3999 106.4 71.1999L85.6 52.0999ZM96.3 77.0999L82 63.9999L95.1 78.2999C95.3 78.3999 95.5 78.4999 95.7 78.4999C96.2 78.4999 96.5 78.0999 96.5 77.6999C96.5 77.3999 96.4 77.1999 96.3 77.0999ZM85.3 70.4999L91.1 77.0999C91.2 77.1999 91.3 77.3999 91.5 77.3999C91.8 77.3999 92 77.1999 92 76.8999C92 76.7999 92 76.6999 91.9 76.5999C91.8 76.4999 85.3 70.4999 85.3 70.4999Z" fill="#DF5052"/>
</svg>
