<svg width="128" height="128" viewBox="0 0 128 128" fill="none" xmlns="http://www.w3.org/2000/svg">
<path d="M55.2502 4.15009C54.9202 4.26009 53.1502 4.83009 51.2902 5.44009C41.2902 8.71009 34.2102 12.5001 32.4502 15.5001C31.7802 16.6501 31.6502 17.5801 32.0502 18.5101C32.4902 19.5601 33.3002 20.3501 35.5202 21.9201C36.5602 22.6501 38.3302 24.1801 39.4802 25.3301C44.9802 30.8201 47.6502 37.5501 47.3502 45.1601C47.0102 53.7201 43.0002 62.2801 35.3202 70.8501C32.6402 73.8401 29.8902 76.3301 24.6102 80.5601C20.2102 84.0801 17.8202 86.3601 16.1902 88.5701C11.2002 95.3701 12.5302 101.43 20.1502 106.49C26.8702 110.96 38.7102 114.68 52.6602 116.7C57.3402 117.38 62.6302 117.81 63.9002 117.62L64.7902 117.49L66.1902 114.97C73.2702 102.22 76.8502 90.2001 77.2802 77.7601C77.4702 72.2101 76.7702 65.6401 75.5802 61.8001C75.3602 61.1101 75.2002 60.5201 75.2302 60.5001C75.2502 60.4801 77.2302 59.8901 79.6302 59.1701C92.2402 55.4101 104.44 52.4501 114.52 50.7001C116.48 50.3601 118.16 50.0101 118.25 49.9201C118.79 49.3901 117.22 46.9401 114.67 44.3101C105.24 34.5801 88.5802 27.1701 69.0302 24.0201C65.2602 23.4101 64.8002 23.1901 63.4002 21.3401C61.1802 18.4001 59.0902 13.3701 56.2402 4.17009C56.1502 3.89009 56.0602 3.89009 55.2502 4.15009ZM56.5502 7.61009C57.6502 10.6001 58.3202 12.9501 58.3202 13.7801V14.4301L57.3902 14.3201C52.3502 13.7401 44.3102 12.4901 42.6002 12.0301C42.1602 11.9101 41.9102 11.7401 41.9902 11.6101C42.1202 11.4001 43.8302 10.5801 48.9102 8.27009C53.6502 6.12009 55.4502 5.32009 55.5902 5.31009C55.6502 5.31009 56.0802 6.34009 56.5502 7.61009ZM45.8902 13.9201C52.0402 15.2101 56.5202 16.0201 57.5102 16.0201C58.4702 16.0201 58.3602 16.1001 53.8402 18.8601C50.3502 20.9801 49.9502 21.1801 49.0702 21.1801H48.1102L45.5302 18.5601C42.4002 15.3901 40.2802 13.0701 40.2802 12.8101C40.2802 12.7001 40.3402 12.6701 40.4302 12.7201C40.5102 12.7601 42.9802 13.3101 45.8902 13.9201ZM41.3502 16.8301C42.8602 18.5901 44.0302 20.0701 43.9702 20.1401C43.8402 20.2701 39.5302 19.2001 36.8902 18.3901C34.5902 17.6801 34.3102 17.4401 34.9202 16.6601C35.3202 16.1401 38.2902 13.6601 38.5102 13.6501C38.5702 13.6401 39.8402 15.0601 41.3502 16.8301ZM60.9702 20.4801C61.5702 21.9101 62.0302 23.0701 62.0102 23.0901C61.9802 23.1101 53.9002 21.8601 53.1902 21.7201C53.0402 21.6901 54.4102 20.7601 56.2502 19.6401C58.0902 18.5201 59.6602 17.6701 59.7402 17.7601C59.8202 17.8301 60.3702 19.0501 60.9702 20.4801ZM43.3502 23.1901C43.5102 23.3501 45.4402 29.5501 45.3502 29.6301C45.3202 29.6601 44.4002 28.6001 43.3102 27.2501C42.2102 25.9001 40.5602 24.0101 39.6102 23.0201L37.9002 21.2301L40.5702 22.1501C42.0302 22.6601 43.2902 23.1301 43.3502 23.1901ZM51.0702 24.0201C54.4202 24.5001 57.2002 24.9301 57.2502 24.9801C57.2902 25.0301 55.2702 26.6001 52.7502 28.4801C50.2302 30.3501 48.1502 31.8601 48.1202 31.8301C48.0902 31.8001 47.8402 31.0201 47.5602 30.0901C47.2802 29.1601 46.5602 27.2301 45.9702 25.7801C45.3802 24.3301 44.9202 23.1501 44.9402 23.1501C44.9602 23.1501 47.7202 23.5501 51.0702 24.0201ZM59.4902 26.7001C60.2302 28.4301 60.5202 30.0901 60.6402 33.4001C60.7002 35.1801 60.7102 36.6301 60.6502 36.6301C60.5902 36.6301 59.5302 36.2601 58.3002 35.8201C55.8402 34.9301 51.0202 33.3401 50.4502 33.2301C50.2002 33.1801 51.3602 32.0701 54.4102 29.4401C56.7902 27.3901 58.8102 25.7201 58.9002 25.7201C59.0002 25.7301 59.2602 26.1701 59.4902 26.7001ZM68.1302 27.1201C71.8402 27.8801 75.0802 28.5601 75.3402 28.6201C75.7102 28.7101 74.8202 29.2701 70.9002 31.4201C68.2002 32.9001 65.1402 34.5801 64.1002 35.1701C63.0502 35.7601 62.1902 36.2101 62.1702 36.1901C62.1502 36.1701 62.2602 35.6201 62.4102 34.9601C62.9702 32.5601 62.6202 29.5601 61.5002 27.1701C61.1702 26.4801 60.9002 25.8701 60.9002 25.8201C60.9002 25.6501 61.5702 25.7701 68.1302 27.1201ZM78.2402 31.6501C78.0502 32.4901 77.6402 33.9201 77.3102 34.8501C76.6002 36.8901 74.0102 42.1801 73.6602 42.3201C73.5202 42.3801 72.3002 41.8101 70.9702 41.0701C69.6402 40.3301 67.7102 39.3501 66.7002 38.9001L64.8602 38.0801L71.6502 33.7301C77.2802 30.1201 78.4502 29.4401 78.5102 29.7601C78.5502 29.9601 78.4302 30.8101 78.2402 31.6501ZM83.2002 30.1001C90.2402 32.1201 97.6702 34.8501 97.2402 35.2601C97.1502 35.3401 96.2302 35.6501 95.2002 35.9401C89.8902 37.4501 82.5002 40.0001 79.0402 41.5201C77.9702 41.9901 77.0402 42.3401 76.9902 42.2901C76.9402 42.2401 77.3602 40.6801 77.9302 38.8401C79.0402 35.2101 80.3302 30.3101 80.3302 29.6801C80.3302 29.4001 80.4302 29.3101 80.6802 29.3801C80.8602 29.4301 81.9902 29.7501 83.2002 30.1001ZM52.9302 37.4001C54.5402 37.9301 56.4102 38.6401 57.1002 38.9901C58.3502 39.6201 58.3602 39.6301 58.0002 40.0201C57.3602 40.7301 50.3702 47.2401 50.1702 47.3101C50.0702 47.3501 49.9902 46.3601 49.9902 44.9301C49.9802 42.4501 49.7002 37.9801 49.4902 36.9801C49.3302 36.2501 49.4602 36.2601 52.9302 37.4001ZM97.6302 38.6901C96.0902 41.2301 93.5602 44.8501 91.7302 47.1301C89.8602 49.4701 85.9102 53.8701 85.6802 53.8701C85.5902 53.8701 85.0202 53.1601 84.4102 52.2801C82.1602 49.0701 79.5502 46.2901 77.2602 44.6701C77.0402 44.5201 76.9102 44.3501 76.9602 44.3001C77.0102 44.2501 80.7702 42.8701 85.2902 41.2301C94.4502 37.9101 98.4802 36.5601 98.7302 36.7401C98.7502 36.7701 98.2602 37.6401 97.6302 38.6901ZM103.36 38.2601C109.68 42.6701 113.98 46.2401 115.54 48.3701C115.93 48.9101 116.22 49.3701 116.18 49.4001C116.14 49.4301 114.11 49.6601 111.65 49.9001C101.84 50.8701 94.8502 51.8501 91.1502 52.7901C90.1602 53.0401 89.3302 53.2301 89.3202 53.2201C89.3002 53.2001 89.9502 52.4001 90.7802 51.4101C95.0602 46.2801 98.9202 40.9401 100.36 38.1701C100.74 37.4401 101.11 36.8401 101.19 36.8401C101.26 36.8301 102.23 37.4701 103.36 38.2601ZM67.9302 43.7301C69.1402 44.3801 70.0702 44.9801 70.0202 45.0801C69.9302 45.2601 59.2602 51.1001 59.1702 51.0201C59.1502 51.0001 59.7002 49.2501 60.4002 47.1101C61.1002 44.9701 61.7802 42.6501 61.9102 41.9401L62.1502 40.6401L63.9502 41.6001C64.9502 42.1301 66.7202 43.0801 67.9302 43.7301ZM59.0002 44.0701C57.9702 47.6401 55.8802 52.2401 54.9302 53.0401C54.7102 53.2201 54.2802 52.9701 52.8702 51.8301C51.8802 51.0301 50.8702 50.2401 50.6002 50.0601C50.3402 49.8801 50.1502 49.6901 50.1902 49.6401C50.9202 48.9101 59.4202 42.0601 59.4602 42.1701C59.4902 42.2401 59.2802 43.1001 59.0002 44.0701ZM78.3202 50.2801C79.9302 51.3501 83.4902 54.5401 83.3002 54.7401C83.2502 54.7901 79.6302 55.9701 75.2702 57.3401C70.9102 58.7201 66.0502 60.2801 64.4702 60.8101C62.8802 61.3401 61.5802 61.7601 61.5702 61.7401C61.5502 61.7201 62.6602 60.4601 64.0302 58.9301C67.6002 54.9501 71.2702 50.6801 72.5702 49.0001L73.6902 47.5501L75.1602 48.3401C75.9502 48.7801 77.3902 49.6601 78.3202 50.2801ZM70.0602 47.9901C69.9602 48.1201 69.0002 49.3401 67.9202 50.7101C66.8402 52.0701 64.2602 55.3901 62.1602 58.0801L58.3502 62.9801L58.2202 62.1501C57.9802 60.5401 57.1202 57.4101 56.6302 56.3401L56.1402 55.2701L58.5602 54.0601C61.0602 52.8101 66.2702 49.9801 68.7102 48.5601C70.2502 47.6601 70.3502 47.6201 70.0602 47.9901ZM49.8502 53.9101C50.8402 54.4201 51.7702 55.0801 51.7702 55.2901C51.7702 55.6101 45.3202 60.5901 45.1502 60.4001C45.1102 60.3601 45.6902 59.2101 46.4402 57.8401C47.2002 56.4701 47.9602 54.9401 48.1402 54.4201C48.3202 53.9001 48.6002 53.4801 48.7402 53.4801C48.9002 53.4801 49.4002 53.6801 49.8502 53.9101ZM55.3502 60.0401C55.8002 60.9101 56.2602 63.3601 56.0202 63.5801C55.9202 63.6701 53.2602 64.9301 50.0902 66.3801C46.9202 67.8301 42.8102 69.7801 40.9202 70.7201C39.0402 71.6601 37.6102 72.3201 37.7502 72.2001C37.8902 72.0701 39.9602 70.3401 42.3602 68.3401C47.0002 64.4801 52.2902 59.8701 53.2602 58.8501L53.8402 58.2401L54.4102 58.7901C54.7302 59.0901 55.1502 59.6501 55.3502 60.0401ZM50.1402 59.9901C49.6802 60.4001 47.2002 62.5701 44.6402 64.7901C42.0802 67.0001 39.0002 69.6801 37.8002 70.7301C35.3802 72.8401 35.3802 72.8401 38.4702 68.8101C40.8602 65.6901 42.1102 64.5301 45.5402 62.2301C47.2102 61.1101 50.5302 59.2401 50.8502 59.2401C50.9202 59.2301 50.6002 59.5801 50.1402 59.9901ZM74.1702 62.1101C74.3002 62.7601 74.4502 64.8001 74.5202 66.6201L74.6402 69.9401L73.8702 69.5801C71.2102 68.3501 63.7402 64.1401 64.0202 64.0301C65.6502 63.3801 73.7202 60.7001 73.8102 60.7901C73.8802 60.8601 74.0402 61.4501 74.1702 62.1101ZM67.8302 68.0501C70.9402 69.8801 73.5102 71.4001 73.5502 71.4301C73.5902 71.4601 73.1802 71.8001 72.6702 72.1801C71.6802 72.9101 61.1302 78.3601 60.9902 78.2201C60.9502 78.1801 61.0902 77.2701 61.3002 76.2201C61.7302 74.1001 62.1202 67.7801 61.9302 65.7701C61.8702 65.0601 61.8902 64.5601 61.9902 64.6201C62.1002 64.6801 64.7202 66.2201 67.8302 68.0501ZM59.2302 66.7101C59.4702 68.6801 59.1802 72.6401 58.6502 74.7001C58.0202 77.1201 57.6602 78.1301 57.3902 78.2201C57.0202 78.3501 54.7202 76.2501 53.3102 74.5001C51.8902 72.7401 50.0302 69.4201 50.3102 69.1501C50.4802 68.9901 58.7002 65.6001 58.9502 65.5901C59.0302 65.5801 59.1602 66.0901 59.2302 66.7101ZM49.1502 71.6601C50.0202 73.4601 52.0102 76.0601 54.1902 78.2601C55.5902 79.6701 55.9402 80.1301 55.7202 80.2701C54.7402 80.9301 50.3702 82.9801 47.6102 84.0601C44.2602 85.3801 39.9102 86.8801 39.8102 86.7601C39.7702 86.7201 40.7702 84.9001 42.0302 82.7201C44.7602 77.9801 48.2102 71.2801 48.2102 70.7301C48.2102 70.0301 48.5002 70.3101 49.1502 71.6601ZM43.9902 71.7701C43.9402 71.9101 43.5202 72.9501 43.0702 74.1001C41.1302 79.0201 37.3602 85.7001 36.5202 85.7001C35.8702 85.7001 34.9102 81.8101 34.6402 78.0701L34.5002 76.1901L39.1102 73.8601C41.6502 72.5801 43.8002 71.5301 43.9102 71.5301C44.0002 71.5201 44.0402 71.6301 43.9902 71.7701ZM74.7702 76.3201C74.7902 79.1501 73.6002 86.0001 72.9702 86.6901C72.7102 86.9801 69.7802 85.9001 67.1502 84.5401C64.7902 83.3201 60.9102 80.9101 60.9102 80.6701C60.9102 80.6001 61.5002 80.3001 62.2402 79.9901C63.6402 79.4001 70.1502 75.9201 72.9102 74.2901L74.5002 73.3501L74.6402 74.0701C74.6902 74.4601 74.7602 75.4901 74.7702 76.3201ZM31.3402 79.5901C31.6102 81.8301 32.3002 84.5701 33.1602 86.7501C33.5102 87.6401 33.7602 88.4101 33.7202 88.4501C33.3802 88.7601 19.5302 92.5701 17.7002 92.8601L16.8302 93.0001L16.9602 92.3301C17.1502 91.3801 18.4902 88.6401 19.4902 87.1601C20.7302 85.3201 23.8002 82.2401 25.8302 80.8101C27.3402 79.7401 30.9802 77.6201 31.0902 77.7401C31.1002 77.7501 31.2202 78.5801 31.3402 79.5901ZM62.7602 84.3101C67.0402 86.3601 68.6602 87.0701 70.7102 87.7801L72.2802 88.3201L71.2902 88.8201C65.6802 91.6601 55.7602 95.7101 53.1902 96.2101C52.6202 96.3201 52.5402 96.2901 52.6502 96.0101C53.0902 94.8601 59.0102 82.6301 59.1202 82.6301C59.1902 82.6201 60.8402 83.3901 62.7602 84.3101ZM55.2302 83.8501C54.9302 85.2901 53.3002 89.9601 52.3502 92.0801C51.5302 93.9201 49.6302 97.5101 49.2902 97.8501C49.1402 98.0001 45.7602 96.0901 44.1602 94.9501C42.3602 93.6701 38.4202 89.8701 38.5302 89.5201C38.5702 89.3901 40.9702 88.4701 43.8602 87.4701C49.9502 85.3701 53.3602 84.1001 54.3502 83.5901C55.3102 83.0901 55.3902 83.1201 55.2302 83.8501ZM72.2602 90.3001C72.2002 90.7201 71.8602 92.5601 71.4902 94.4201C70.3302 100.25 68.9202 104.23 68.0202 104.23C66.7802 104.23 58.2902 102.17 55.5502 101.2C53.6902 100.54 52.0802 99.7901 51.5502 99.3201C51.2202 99.0301 51.3902 98.9301 53.8302 97.9301C61.6802 94.7301 70.7302 90.6501 71.7102 89.8701C72.2802 89.4201 72.3702 89.4801 72.2602 90.3001ZM32.5402 92.0801C31.6502 93.6701 29.8202 96.3001 26.3402 101L23.3702 105L22.4802 104.36C21.2302 103.47 19.2502 101.31 18.4202 99.9401C17.5302 98.4701 16.9202 96.6601 16.8502 95.2801L16.7902 94.2101L18.2602 94.0601C20.2502 93.8601 25.8102 92.7101 29.7802 91.6701C31.5802 91.2001 33.0802 90.8401 33.1202 90.8701C33.1502 90.9101 32.8902 91.4501 32.5402 92.0801ZM41.1702 96.1901C42.1602 96.9001 43.5202 97.8001 44.2202 98.2101L45.4902 98.9501L44.9202 99.1901C44.6002 99.3201 39.9902 101 34.6602 102.93C25.5602 106.22 24.9602 106.41 24.7102 106.07C24.5602 105.87 24.4602 105.66 24.4802 105.59C24.5002 105.52 26.9602 102.35 29.9502 98.5201L35.3802 91.5701L37.3802 93.2401C38.5002 94.1701 40.1802 95.4801 41.1702 96.1901ZM43.4102 106.64C41.4202 109.61 39.7402 112.12 39.6802 112.2C39.5302 112.4 36.3502 111.65 33.9702 110.86C31.4702 110.02 28.3902 108.46 27.1902 107.43L26.3202 106.68L28.2802 106.15C36.3102 103.96 46.9302 101.15 46.9802 101.19C47.0202 101.2 45.4002 103.67 43.4102 106.64ZM52.9702 102.14C57.2202 103.6 61.1002 104.43 66.1302 104.97L67.5202 105.12L63.7702 106.47C54.4102 109.85 46.8302 112.22 43.0102 112.96C41.9402 113.17 40.9602 113.34 40.8502 113.34C40.7402 113.34 41.5102 112.29 42.5602 111.02C45.4202 107.53 48.5202 103.56 49.3402 102.34C49.7402 101.75 50.1402 101.25 50.2302 101.25C50.3202 101.26 51.5402 101.65 52.9702 102.14ZM66.9202 110.02C65.3102 114.18 64.1302 116.71 63.7102 116.87C62.9102 117.18 51.8602 115.55 48.4902 114.64C46.2502 114.03 44.8202 113.44 45.2402 113.29C45.4002 113.23 47.0002 112.86 48.8102 112.45C54.6602 111.13 63.5802 108.42 67.2702 106.84C67.7502 106.64 68.1702 106.49 68.2002 106.52C68.2202 106.55 67.6502 108.12 66.9202 110.02Z" fill="black"/>
</svg>
