<svg width="128" height="128" viewBox="0 0 128 128" fill="none" xmlns="http://www.w3.org/2000/svg">
<path d="M75.3902 15.3102C75.1902 15.3702 74.1402 15.7202 73.0302 16.0802C67.0902 18.0202 62.8802 20.2702 61.8402 22.0602C61.4402 22.7402 61.3702 23.3002 61.6002 23.8502C61.8602 24.4702 62.3402 24.9502 63.6602 25.8802C64.2802 26.3202 65.3302 27.2202 66.0202 27.9002C69.2902 31.1602 70.8702 35.1602 70.6902 39.6802C70.4902 44.7702 68.1002 49.8602 63.5402 54.9402C61.9502 56.7202 60.3102 58.2002 57.1802 60.7102C54.5702 62.8002 53.1502 64.1602 52.1802 65.4702C49.2102 69.5102 50.0102 73.1102 54.5302 76.1202C58.5202 78.7802 65.5502 80.9902 73.8502 82.1902C76.6302 82.5902 79.7702 82.8502 80.5302 82.7402L81.0602 82.6602L81.8902 81.1602C86.1002 73.5902 88.2202 66.4402 88.4802 59.0502C88.5902 55.7502 88.1802 51.8502 87.4702 49.5702C87.3402 49.1602 87.2502 48.8102 87.2602 48.8002C87.2702 48.7902 88.4502 48.4302 89.8702 48.0102C97.3602 45.7802 104.61 44.0202 110.6 42.9802C111.77 42.7802 112.76 42.5702 112.81 42.5202C113.13 42.2102 112.2 40.7502 110.68 39.1902C105.08 33.4102 95.1802 29.0102 83.5602 27.1302C81.3202 26.7702 81.0502 26.6402 80.2202 25.5402C78.9002 23.7902 77.6602 20.8102 75.9702 15.3402C75.9202 15.1602 75.8702 15.1602 75.3902 15.3102ZM76.1602 17.3702C76.8102 19.1502 77.2102 20.5402 77.2102 21.0302V21.4202L76.6602 21.3602C73.6702 21.0102 68.8902 20.2702 67.8702 20.0002C67.6102 19.9302 67.4602 19.8302 67.5102 19.7502C67.5902 19.6302 68.6002 19.1402 71.6202 17.7702C74.4302 16.4902 75.5002 16.0202 75.5902 16.0102C75.6302 16.0002 75.8802 16.6202 76.1602 17.3702ZM69.8302 21.1202C73.4802 21.8902 76.1502 22.3702 76.7302 22.3702C77.3002 22.3702 77.2402 22.4202 74.5502 24.0602C72.4802 25.3202 72.2402 25.4402 71.7202 25.4402H71.1502L69.6102 23.8902C67.7502 22.0102 66.4902 20.6302 66.4902 20.4702C66.4902 20.4102 66.5302 20.3902 66.5802 20.4202C66.6302 20.4302 68.1002 20.7502 69.8302 21.1202ZM67.1302 22.8502C68.0302 23.9002 68.7202 24.7802 68.6802 24.8102C68.6002 24.8802 66.0402 24.2502 64.4802 23.7702C63.1102 23.3502 62.9502 23.2102 63.3102 22.7402C63.5502 22.4302 65.3102 20.9602 65.4402 20.9502C65.4802 20.9502 66.2302 21.8002 67.1302 22.8502ZM78.7902 25.0102C79.1502 25.8602 79.4202 26.5502 79.4102 26.5602C79.3902 26.5702 74.5902 25.8302 74.1702 25.7502C74.0802 25.7302 74.8902 25.1802 75.9902 24.5102C77.0902 23.8402 78.0102 23.3402 78.0602 23.3902C78.1102 23.4402 78.4302 24.1602 78.7902 25.0102ZM68.3202 26.6302C68.4102 26.7202 69.5602 30.4102 69.5102 30.4602C69.4902 30.4802 68.9502 29.8502 68.3002 29.0502C67.6502 28.2502 66.6702 27.1202 66.1002 26.5402L65.0802 25.4702L66.6602 26.0202C67.5402 26.3102 68.2802 26.5902 68.3202 26.6302ZM72.9102 27.1202C74.9002 27.4002 76.5502 27.6602 76.5802 27.6902C76.6102 27.7202 75.4002 28.6602 73.9102 29.7702C72.4102 30.8802 71.1802 31.7802 71.1602 31.7602C71.1402 31.7402 70.9902 31.2802 70.8202 30.7202C70.6502 30.1702 70.2302 29.0202 69.8802 28.1602C69.5302 27.3002 69.2502 26.6002 69.2702 26.6002C69.2802 26.6002 70.9202 26.8402 72.9102 27.1202ZM77.9102 28.7102C78.3502 29.7402 78.5202 30.7202 78.5902 32.6902C78.6302 33.7502 78.6302 34.6102 78.6002 34.6102C78.5602 34.6102 77.9302 34.3902 77.2002 34.1302C75.7402 33.6002 72.8802 32.6602 72.5402 32.5902C72.3902 32.5602 73.0802 31.9002 74.9002 30.3402C76.3102 29.1202 77.5102 28.1302 77.5702 28.1302C77.6202 28.1302 77.7702 28.3902 77.9102 28.7102ZM83.0402 28.9602C85.2402 29.4102 87.1702 29.8102 87.3202 29.8502C87.5402 29.9002 87.0102 30.2302 84.6802 31.5102C83.0802 32.3902 81.2602 33.3902 80.6402 33.7402C80.0202 34.0902 79.5002 34.3602 79.4902 34.3502C79.4802 34.3402 79.5402 34.0102 79.6302 33.6202C79.9602 32.1902 79.7502 30.4102 79.0902 28.9902C78.9002 28.5802 78.7402 28.2102 78.7402 28.1902C78.7502 28.0802 79.1502 28.1602 83.0402 28.9602ZM89.0502 31.6502C88.9402 32.1502 88.6902 33.0002 88.5002 33.5502C88.0802 34.7602 86.5402 37.9102 86.3302 37.9902C86.2502 38.0202 85.5202 37.6902 84.7302 37.2502C83.9402 36.8102 82.7902 36.2302 82.1902 35.9602L81.0902 35.4702L85.1202 32.8802C88.4602 30.7402 89.1602 30.3302 89.2002 30.5202C89.2302 30.6502 89.1602 31.1502 89.0502 31.6502ZM92.0002 30.7302C96.1802 31.9302 100.6 33.5502 100.34 33.7902C100.29 33.8402 99.7402 34.0202 99.1302 34.1902C95.9702 35.0802 91.5802 36.6002 89.5302 37.5102C88.8902 37.7902 88.3402 38.0002 88.3102 37.9602C88.2802 37.9302 88.5302 37.0102 88.8702 35.9102C89.5302 33.7502 90.3002 30.8402 90.3002 30.4702C90.3002 30.3102 90.3602 30.2502 90.5102 30.2902C90.6102 30.3302 91.2802 30.5302 92.0002 30.7302ZM74.0102 35.0702C74.9602 35.3802 76.0802 35.8102 76.4902 36.0202C77.2302 36.3902 77.2402 36.4002 77.0302 36.6302C76.6502 37.0502 72.5002 40.9202 72.3802 40.9602C72.3202 40.9802 72.2702 40.4002 72.2702 39.5502C72.2702 38.0802 72.1002 35.4202 71.9702 34.8302C71.8702 34.3802 71.9502 34.3902 74.0102 35.0702ZM100.57 35.8402C99.6602 37.3502 98.1502 39.5002 97.0702 40.8602C95.9602 42.2502 93.6102 44.8602 93.4702 44.8602C93.4202 44.8602 93.0802 44.4402 92.7102 43.9202C91.3702 42.0102 89.8202 40.3602 88.4602 39.4002C88.3302 39.3102 88.2502 39.2102 88.2802 39.1802C88.3102 39.1502 90.5402 38.3302 93.2302 37.3502C98.6702 35.3802 101.07 34.5802 101.22 34.6802C101.24 34.6902 100.95 35.2102 100.57 35.8402ZM103.97 35.5802C107.73 38.2002 110.28 40.3202 111.2 41.5902C111.43 41.9102 111.6 42.1802 111.58 42.2002C111.56 42.2202 110.35 42.3502 108.89 42.5002C103.06 43.0702 98.9102 43.6602 96.7102 44.2202C96.1202 44.3702 95.6302 44.4802 95.6202 44.4702C95.6102 44.4602 96.0002 43.9802 96.4902 43.3902C99.0302 40.3402 101.33 37.1702 102.18 35.5202C102.41 35.0802 102.63 34.7302 102.67 34.7302C102.72 34.7302 103.3 35.1102 103.97 35.5802ZM82.9302 38.8302C83.6502 39.2202 84.2002 39.5702 84.1702 39.6302C84.1102 39.7402 77.7802 43.2102 77.7202 43.1602C77.7102 43.1502 78.0302 42.1102 78.4502 40.8402C78.8702 39.5702 79.2702 38.1902 79.3502 37.7702L79.4902 37.0002L80.5602 37.5702C81.1502 37.8802 82.2102 38.4402 82.9302 38.8302ZM77.6202 39.0302C77.0102 41.1502 75.7702 43.8902 75.2002 44.3602C75.0702 44.4702 74.8102 44.3202 73.9802 43.6402C73.3902 43.1702 72.7902 42.7002 72.6302 42.5902C72.4802 42.4802 72.3602 42.3702 72.3902 42.3402C72.8302 41.9102 77.8702 37.8402 77.9002 37.9002C77.9102 37.9402 77.7902 38.4502 77.6202 39.0302ZM89.1002 42.7202C90.0502 43.3602 92.1702 45.2502 92.0602 45.3702C92.0302 45.4002 89.8802 46.1002 87.2902 46.9202C84.7002 47.7402 81.8102 48.6702 80.8702 48.9802C79.9302 49.3002 79.1502 49.5402 79.1402 49.5302C79.1302 49.5202 79.7902 48.7702 80.6002 47.8602C82.7202 45.4902 84.9002 42.9602 85.6802 41.9602L86.3502 41.1002L87.2202 41.5702C87.6902 41.8302 88.5402 42.3502 89.1002 42.7202ZM84.1902 41.3602C84.1302 41.4402 83.5602 42.1602 82.9202 42.9702C82.2802 43.7802 80.7402 45.7502 79.5002 47.3502L77.2402 50.2602L77.1702 49.7702C77.0302 48.8202 76.5202 46.9502 76.2302 46.3202L75.9402 45.6802L77.3802 44.9602C78.8602 44.2202 81.9602 42.5402 83.4102 41.6902C84.3002 41.1702 84.3602 41.1402 84.1902 41.3602ZM72.1902 44.8802C72.7802 45.1802 73.3302 45.5802 73.3302 45.7002C73.3302 45.8902 69.5002 48.8502 69.3902 48.7402C69.3702 48.7102 69.7102 48.0302 70.1602 47.2202C70.6102 46.4102 71.0602 45.5002 71.1702 45.1902C71.2802 44.8802 71.4402 44.6302 71.5302 44.6302C71.6202 44.6202 71.9102 44.7402 72.1902 44.8802ZM75.4502 48.5202C75.7102 49.0402 75.9902 50.4902 75.8502 50.6202C75.7902 50.6702 74.2102 51.4202 72.3302 52.2902C70.4502 53.1502 68.0002 54.3102 66.8802 54.8702C65.7602 55.4302 64.9102 55.8202 65.0002 55.7502C65.0802 55.6802 66.3102 54.6402 67.7402 53.4602C70.5002 51.1702 73.6402 48.4302 74.2102 47.8202L74.5602 47.4502L74.9002 47.7702C75.0802 47.9502 75.3302 48.2902 75.4502 48.5202ZM72.3602 48.4902C72.0902 48.7402 70.6102 50.0202 69.0902 51.3402C67.5702 52.6602 65.7402 54.2502 65.0302 54.8702C63.5902 56.1202 63.5902 56.1202 65.4302 53.7302C66.8502 51.8802 67.5902 51.1902 69.6302 49.8202C70.6202 49.1602 72.5902 48.0402 72.7902 48.0402C72.8202 48.0402 72.6302 48.2402 72.3602 48.4902ZM86.6302 49.7502C86.7002 50.1402 86.8002 51.3502 86.8402 52.4302L86.9102 54.4002L86.4502 54.1902C84.8702 53.4602 80.4302 50.9602 80.6002 50.8902C81.5702 50.5002 86.3602 48.9102 86.4202 48.9702C86.4602 49.0102 86.5602 49.3602 86.6302 49.7502ZM82.8702 53.2802C84.7202 54.3702 86.2502 55.2702 86.2702 55.2902C86.2902 55.3102 86.0502 55.5102 85.7502 55.7302C85.1602 56.1602 78.9002 59.4002 78.8102 59.3202C78.7802 59.2902 78.8702 58.7502 79.0002 58.1302C79.2602 56.8702 79.4802 53.1102 79.3802 51.9202C79.3402 51.5002 79.3602 51.2002 79.4202 51.2402C79.4602 51.2702 81.0202 52.1902 82.8702 53.2802ZM77.7602 52.4802C77.9002 53.6502 77.7302 56.0002 77.4102 57.2302C77.0402 58.6702 76.8202 59.2702 76.6602 59.3202C76.4402 59.3902 75.0702 58.1502 74.2402 57.1102C73.4002 56.0602 72.2902 54.0902 72.4602 53.9302C72.5602 53.8302 77.4402 51.8202 77.6002 51.8202C77.6402 51.8102 77.7102 52.1102 77.7602 52.4802ZM71.7702 55.4202C72.2902 56.4902 73.4702 58.0302 74.7602 59.3402C75.5902 60.1802 75.8002 60.4502 75.6702 60.5402C75.0902 60.9302 72.4902 62.1502 70.8502 62.7902C68.8602 63.5702 66.2702 64.4702 66.2102 64.3902C66.1902 64.3602 66.7802 63.2802 67.5302 61.9902C69.1502 59.1802 71.2002 55.1902 71.2002 54.8602C71.2102 54.4502 71.3802 54.6202 71.7702 55.4202ZM68.7002 55.4902C68.6702 55.5702 68.4202 56.1902 68.1502 56.8702C67.0002 59.7902 64.7602 63.7602 64.2602 63.7602C63.8702 63.7602 63.3002 61.4502 63.1402 59.2302L63.0602 58.1102L65.8002 56.7302C67.3102 55.9702 68.5902 55.3502 68.6502 55.3502C68.7102 55.3402 68.7302 55.4102 68.7002 55.4902ZM86.9902 58.1902C87.0002 59.8702 86.3002 63.9402 85.9202 64.3502C85.7602 64.5202 84.0302 63.8802 82.4602 63.0702C81.0602 62.3502 78.7502 60.9202 78.7502 60.7702C78.7502 60.7302 79.1002 60.5502 79.5402 60.3702C80.3702 60.0202 84.2402 57.9502 85.8802 56.9802L86.8202 56.4202L86.9002 56.8502C86.9402 57.0902 86.9802 57.7002 86.9902 58.1902ZM61.1802 60.1302C61.3402 61.4602 61.7502 63.0902 62.2602 64.3802C62.4702 64.9102 62.6202 65.3702 62.5902 65.3902C62.3902 65.5702 54.1602 67.8402 53.0702 68.0102L52.5502 68.0902L52.6302 67.6902C52.7402 67.1202 53.5402 65.5002 54.1302 64.6202C54.8702 63.5302 56.6902 61.7002 57.8902 60.8502C58.7902 60.2202 60.9502 58.9502 61.0102 59.0302C61.0502 59.0402 61.1102 59.5302 61.1802 60.1302ZM79.8502 62.9402C82.3902 64.1602 83.3502 64.5802 84.5702 65.0002L85.5002 65.3202L84.9102 65.6202C81.5802 67.3102 75.6802 69.7102 74.1602 70.0102C73.8202 70.0802 73.7702 70.0602 73.8402 69.8902C74.1002 69.2102 77.6202 61.9402 77.6902 61.9402C77.7302 61.9402 78.7102 62.3902 79.8502 62.9402ZM75.3802 62.6702C75.2002 63.5302 74.2302 66.3002 73.6702 67.5602C73.1802 68.6602 72.0502 70.7902 71.8502 70.9902C71.7602 71.0802 69.7502 69.9502 68.8002 69.2702C67.7302 68.5102 65.3902 66.2502 65.4602 66.0402C65.4902 65.9602 66.9102 65.4102 68.6302 64.8202C72.2502 63.5702 74.2702 62.8202 74.8602 62.5102C75.4202 62.2102 75.4702 62.2302 75.3802 62.6702ZM85.5002 66.4902C85.4702 66.7402 85.2602 67.8302 85.0402 68.9402C84.3502 72.4002 83.5102 74.7702 82.9802 74.7702C82.2402 74.7702 77.2002 73.5502 75.5702 72.9702C74.4602 72.5802 73.5102 72.1302 73.1902 71.8602C72.9902 71.6902 73.1002 71.6302 74.5402 71.0402C79.2002 69.1402 84.5802 66.7102 85.1602 66.2502C85.5102 65.9702 85.5602 66.0102 85.5002 66.4902ZM61.9002 67.5502C61.3702 68.5002 60.2902 70.0602 58.2202 72.8502L56.4602 75.2302L55.9302 74.8502C55.1902 74.3202 54.0102 73.0402 53.5202 72.2302C52.9902 71.3602 52.6302 70.2802 52.5902 69.4602L52.5602 68.8202L53.4302 68.7302C54.6102 68.6102 57.9202 67.9302 60.2702 67.3102C61.3402 67.0302 62.2302 66.8202 62.2502 66.8302C62.2602 66.8602 62.1102 67.1802 61.9002 67.5502ZM67.0302 70.0002C67.6202 70.4202 68.4302 70.9602 68.8402 71.2002L69.5902 71.6402L69.2502 71.7802C69.0602 71.8602 66.3202 72.8602 63.1502 74.0002C57.7402 75.9502 57.3902 76.0702 57.2402 75.8702C57.1502 75.7502 57.0902 75.6302 57.1002 75.5902C57.1102 75.5502 58.5702 73.6602 60.3502 71.3902L63.5802 67.2602L64.7702 68.2502C65.4402 68.8002 66.4402 69.5802 67.0302 70.0002ZM68.3602 76.2102C67.1802 77.9802 66.1802 79.4702 66.1402 79.5102C66.0502 79.6302 64.1602 79.1902 62.7502 78.7102C61.2702 78.2102 59.4402 77.2902 58.7202 76.6702L58.2002 76.2202L59.3702 75.9002C64.1402 74.6002 70.4502 72.9302 70.4802 72.9502C70.5002 72.9702 69.5402 74.4402 68.3602 76.2102ZM74.0302 73.5302C76.5602 74.4002 78.8602 74.8902 81.8502 75.2102L82.6702 75.3002L80.4402 76.1002C74.8802 78.1102 70.3702 79.5202 68.1102 79.9602C67.4702 80.0802 66.8902 80.1902 66.8302 80.1902C66.7702 80.1902 67.2202 79.5702 67.8402 78.8102C69.5402 76.7402 71.3802 74.3802 71.8702 73.6502C72.1102 73.3002 72.3502 73.0002 72.4002 73.0002C72.4602 73.0102 73.1902 73.2402 74.0302 73.5302ZM82.3202 78.2102C81.3602 80.6802 80.6602 82.1902 80.4202 82.2802C79.9502 82.4602 73.3802 81.5002 71.3702 80.9502C70.0402 80.5902 69.1902 80.2402 69.4402 80.1502C69.5402 80.1202 70.4902 79.8902 71.5602 79.6502C75.0302 78.8702 80.3302 77.2602 82.5302 76.3202C82.8102 76.2002 83.0602 76.1102 83.0802 76.1302C83.1002 76.1502 82.7602 77.0802 82.3202 78.2102ZM43.4702 80.3002C43.0002 80.5002 42.7802 80.8902 42.7302 81.6202C42.6802 82.3002 42.6802 82.3102 42.3402 82.3102C42.0002 82.3102 41.9902 82.3302 42.0302 82.8102C42.0602 83.2602 42.1002 83.3102 42.3902 83.3502L42.7102 83.3902V87.0502L43.2602 87.0002L43.8202 86.9602L43.8602 85.1602L43.9002 83.3602H45.5402V84.6802C45.5402 86.3202 45.7102 86.7502 46.4202 86.9902C46.7402 87.1002 47.0402 87.1202 47.3602 87.0502C47.8102 86.9602 47.8302 86.9302 47.8702 86.4502L47.9102 85.9402L47.5202 86.0102C46.8402 86.1302 46.8002 86.0502 46.8202 84.3902L46.8302 83.3702H47.1702C47.7602 83.3702 47.8902 83.2602 47.8902 82.7702V82.3102H46.8302V81.8702C46.8302 81.2202 46.7202 81.1102 46.1102 81.1502L45.5902 81.1802L45.5502 81.7402L45.5102 82.3002H43.8802V81.9002C43.8802 81.3502 44.1702 81.0802 44.6702 81.1802C45.0502 81.2502 45.0602 81.2502 45.0602 80.8602C45.0602 80.6502 44.9902 80.4002 44.9202 80.3202C44.7602 80.1802 43.8202 80.1602 43.4702 80.3002ZM17.4102 80.4902C16.9002 80.8502 17.1502 81.6002 17.7902 81.6002C18.4502 81.6002 18.5702 81.5102 18.5702 81.0002C18.5602 80.3502 17.9802 80.0902 17.4102 80.4902ZM8.75019 80.8102C8.57019 80.9402 8.55019 81.2402 8.58019 83.9602L8.61019 86.9602L9.17019 87.0002L9.73019 87.0402V84.4302C9.73019 82.9902 9.76019 81.8402 9.79019 81.8702C9.83019 81.9002 10.1702 82.8502 10.5602 83.9802C10.9502 85.1102 11.3502 86.2602 11.4502 86.5402L11.6402 87.0502L12.2302 87.0002L12.8202 86.9602L13.7202 84.4602L14.6202 81.9602L14.6802 84.4602C14.7202 85.8402 14.7602 86.9802 14.7702 87.0002C14.7802 87.0202 15.0502 87.0202 15.3502 87.0002L15.9102 86.9602L15.9402 83.9702C15.9602 81.8602 15.9302 80.9302 15.8302 80.8102C15.6202 80.5502 14.2902 80.6002 14.0502 80.8702C13.9502 80.9902 13.5302 81.9602 13.1302 83.0202C12.7302 84.0802 12.3702 84.9902 12.3302 85.0402C12.2902 85.0902 11.9402 84.2402 11.5502 83.1602C11.1602 82.0602 10.7302 81.0802 10.5802 80.9302C10.3702 80.7202 10.1902 80.6602 9.63019 80.6602C9.26019 80.6602 8.86019 80.7302 8.75019 80.8102ZM20.8702 82.3102C20.0102 82.5902 19.5002 83.4802 19.5002 84.7302C19.5002 86.1302 20.0302 86.8902 21.1502 87.0802C21.6602 87.1702 22.5302 86.9702 22.8302 86.7002C23.0302 86.5202 23.1202 85.8502 22.9602 85.7002C22.9202 85.6602 22.7002 85.7302 22.4702 85.8602C21.6202 86.3202 20.9902 86.0602 20.7902 85.1702C20.6602 84.5802 20.8002 83.8202 21.1102 83.4902C21.3602 83.2202 21.9802 83.2002 22.4602 83.4502C22.9102 83.6802 23.0402 83.6002 23.0402 83.0802C23.0402 82.7902 22.9702 82.6302 22.7602 82.5002C22.4002 82.2502 21.3402 82.1602 20.8702 82.3102ZM25.4602 82.5502C25.0502 82.9102 25.0502 82.9102 25.0102 82.6402C24.9802 82.4102 24.9002 82.3602 24.4702 82.3302L23.9702 82.2902V87.0102H25.1502V85.5502C25.1502 84.0902 25.1502 84.0902 25.5002 83.7102C25.7902 83.4002 25.9202 83.3402 26.2702 83.3802C26.7102 83.4302 26.8002 83.3302 26.8002 82.7802C26.8002 82.1002 26.1202 81.9802 25.4602 82.5502ZM28.7202 82.3302C27.7702 82.6102 27.1902 83.7202 27.3102 85.0302C27.4202 86.2402 28.0402 86.9302 29.1602 87.0902C31.1402 87.3602 32.4302 85.7402 31.8702 83.7002C31.5302 82.5002 30.1702 81.9002 28.7202 82.3302ZM30.1002 83.2502C30.7202 83.5802 30.8802 85.0202 30.3702 85.7002C30.0502 86.1202 29.3402 86.2002 28.9102 85.8602C28.6502 85.6502 28.6302 85.5502 28.6302 84.6702C28.6302 83.7602 28.6502 83.6902 28.9602 83.4202C29.3002 83.1202 29.7402 83.0602 30.1002 83.2502ZM33.5802 82.3602C32.9802 82.6202 32.7602 82.9702 32.7602 83.6202C32.7602 84.3202 32.9802 84.5802 34.0302 85.0802C34.6302 85.3702 34.7602 85.4802 34.7602 85.7302C34.7602 85.9402 34.6702 86.0602 34.4302 86.1402C34.1302 86.2402 33.8502 86.1902 32.9002 85.8902C32.7202 85.8302 32.6902 85.8802 32.7202 86.2802C32.7502 86.6602 32.8202 86.7702 33.1102 86.9102C33.6002 87.1502 34.7802 87.1302 35.2702 86.8702C35.9802 86.4902 36.2002 85.3402 35.6802 84.7602C35.5602 84.6302 35.1302 84.3602 34.7002 84.1602C33.9202 83.7902 33.7302 83.5202 34.0002 83.2002C34.1802 82.9902 34.7102 82.9902 35.2402 83.2102C35.5902 83.3602 35.6602 83.3602 35.7202 83.2202C35.8402 82.9002 35.7002 82.5202 35.4102 82.3702C35.0202 82.1602 34.0202 82.1602 33.5802 82.3602ZM38.3502 82.2802C37.3102 82.6502 36.8402 83.2802 36.7402 84.4002C36.6202 85.7802 37.1202 86.6602 38.2002 86.9802C40.0102 87.5102 41.4202 86.4602 41.4102 84.5902C41.4002 83.4602 40.8902 82.6302 40.0102 82.3302C39.6002 82.1902 38.6702 82.1602 38.3502 82.2802ZM39.7202 83.4202C40.0302 83.6802 40.0502 83.7602 40.0502 84.5902C40.0502 85.3702 40.0202 85.5102 39.7602 85.7802C39.3902 86.1702 38.6902 86.2002 38.3402 85.8502C38.0402 85.5502 37.9502 85.1602 38.0202 84.3502C38.0602 83.8202 38.1402 83.6402 38.3902 83.4102C38.8102 83.0502 39.3002 83.0602 39.7202 83.4202ZM17.2902 84.6302L17.3202 86.9702H18.5002V82.3702L17.8802 82.3402L17.2602 82.3002L17.2902 84.6302ZM11.6602 89.9102C10.1502 90.2402 9.01019 91.0702 8.41019 92.3002C8.04019 93.0502 8.02019 93.1602 8.02019 94.3802C8.02019 95.5602 8.05019 95.7402 8.34019 96.3402C8.97019 97.6302 10.1302 98.5402 12.5502 99.6402C15.1902 100.84 15.9102 101.58 15.9102 103.11C15.9102 104.5 15.2602 105.33 13.8302 105.77C12.4102 106.21 10.9902 106 9.15019 105.08C8.54019 104.77 7.99019 104.5 7.95019 104.48C7.90019 104.46 7.79019 104.53 7.68019 104.63C7.46019 104.86 7.42019 106 7.63019 106.38C8.07019 107.21 10.3802 107.98 12.3902 107.98C16.1702 107.98 18.6102 105.73 18.4102 102.42C18.3702 101.7 18.2802 101.35 17.9802 100.75C17.3902 99.5602 16.6302 98.9402 14.3202 97.8102C13.2502 97.2902 12.0802 96.6602 11.7102 96.4102C10.2502 95.4302 9.91019 93.7602 10.9402 92.6002C11.5102 91.9502 12.0902 91.7402 13.2802 91.7302C14.4102 91.7302 14.8702 91.8502 16.1702 92.5102C17.2902 93.0802 17.3902 93.0302 17.3902 91.9202C17.3902 90.9202 17.3302 90.8302 16.3102 90.3602C14.9602 89.7702 13.1502 89.5902 11.6602 89.9102ZM27.4202 89.8402C25.1902 90.2002 23.4702 91.2802 22.3202 93.0502C21.7402 93.9502 21.4202 94.7902 21.1202 96.2102C20.7902 97.7602 20.8702 101.21 21.2602 102.63C22.2202 106.12 24.3702 107.8 28.0502 107.96C29.9902 108.04 30.7402 107.9 32.6402 107.09C32.7102 107.06 33.0302 107.26 33.3502 107.53C34.5702 108.59 37.2502 110.11 38.1902 110.29C38.7702 110.4 38.9302 110.21 38.9302 109.39C38.9302 109.01 38.9002 108.62 38.8602 108.51C38.8202 108.4 38.2602 108.05 37.6002 107.72C36.5902 107.22 34.5702 105.92 34.5702 105.77C34.5702 105.74 34.7602 105.48 34.9802 105.18C35.9302 103.94 36.5002 102.21 36.7002 99.9702C36.8502 98.2602 36.7102 96.4302 36.3202 95.0102C35.6102 92.4402 33.8802 90.6702 31.4402 90.0102C30.6302 89.8102 28.3102 89.7002 27.4202 89.8402ZM30.9602 92.0902C32.3602 92.6102 33.2902 93.6702 33.8302 95.3202C34.1002 96.1502 34.1502 96.5302 34.2002 98.2902C34.2702 100.65 34.0902 101.79 33.4702 103.11C32.4802 105.23 30.3102 106.29 27.7802 105.9C24.6402 105.42 23.2602 103.05 23.4202 98.4002C23.5102 95.7302 23.9902 94.3302 25.2302 93.1502C25.9602 92.4502 26.4902 92.1402 27.3402 91.9302C28.3202 91.6702 30.0602 91.7502 30.9602 92.0902ZM59.2902 89.9202C57.8402 90.2702 56.6102 91.1702 56.0802 92.2502C55.4802 93.4902 55.4602 95.2402 56.0302 96.3702C56.7002 97.7002 57.6002 98.3902 60.4002 99.7202C62.5202 100.73 63.2302 101.32 63.5202 102.31C63.8602 103.48 63.4202 104.7 62.4402 105.34C60.9102 106.33 58.7302 106.17 56.4002 104.9C55.3502 104.33 55.2002 104.39 55.2002 105.4C55.2002 106.34 55.3302 106.62 55.9702 106.99C57.9402 108.15 61.2202 108.3 63.2602 107.34C65.7202 106.18 66.8302 103.13 65.6702 100.71C65.5202 100.4 65.1002 99.8602 64.7202 99.4902C64.1402 98.9202 63.6802 98.6402 61.7402 97.6902C58.5202 96.1102 57.8802 95.4302 58.0702 93.8202C58.1702 93.0202 58.5902 92.4302 59.3302 92.0602C59.8402 91.8002 60.1202 91.7502 60.9002 91.7502C62.0602 91.7502 62.5302 91.8702 63.7002 92.4702C64.7002 92.9802 64.9102 93.0202 65.0202 92.7402C65.1602 92.3902 65.0902 91.2202 64.9202 90.9702C64.6902 90.6502 63.5202 90.1302 62.5302 89.9202C61.5402 89.7102 60.1802 89.7002 59.2902 89.9202ZM40.9602 90.1102C40.8502 90.2202 40.8202 92.2902 40.8202 98.7102V107.17L41.1102 107.46L41.4002 107.75H45.5802C48.7802 107.75 49.7802 107.71 49.8802 107.6C50.0602 107.37 50.1402 106.68 50.0402 106.22L49.9502 105.81L46.6002 105.75L43.2502 105.69L43.2202 97.9202C43.2002 91.8902 43.1602 90.1302 43.0502 90.0602C42.8002 89.9202 41.1202 89.9502 40.9602 90.1102ZM72.3902 94.5302C71.8202 94.6202 70.6802 95.0702 70.2102 95.3902C69.0802 96.1602 68.2802 97.3902 67.8302 99.0402C67.5502 100.09 67.5502 102.68 67.8302 103.75C68.4102 105.94 69.6902 107.27 71.7302 107.81C72.6202 108.04 74.8702 108.04 75.9702 107.81C77.0102 107.59 78.0902 107.19 78.2902 106.96C78.4802 106.74 78.4702 105.55 78.2802 105.36C78.1802 105.26 77.8702 105.33 77.0402 105.61C73.8502 106.69 71.3902 106.22 70.4402 104.35C70.1602 103.8 69.9002 102.7 69.9002 102.08V101.75H73.9502C76.5102 101.75 78.1302 101.7 78.3602 101.62C78.8802 101.44 79.0202 100.99 78.9302 99.8302C78.7502 97.5302 77.9802 96.0902 76.4702 95.1802C75.5102 94.6002 73.7302 94.3102 72.3902 94.5302ZM74.5502 96.3802C75.7502 96.7402 76.4902 97.7602 76.6002 99.1702L76.6602 99.9802H69.8802L69.9602 99.4902C70.1702 98.2702 70.6802 97.3602 71.4702 96.8202C72.3602 96.2102 73.4702 96.0502 74.5502 96.3802ZM86.1402 94.5602C85.5802 94.7402 84.7702 95.3902 84.1902 96.1202L83.6302 96.8402L83.5702 95.7902L83.5102 94.7402L82.8102 94.7002C82.4202 94.6802 81.9902 94.6902 81.8402 94.7302L81.5702 94.7902V101.2C81.5702 106.94 81.5902 107.61 81.7602 107.68C82.0002 107.77 83.3902 107.77 83.6202 107.68C83.7902 107.62 83.8102 107.13 83.8102 103.43V99.2502L84.3302 98.5202C85.0402 97.5202 85.9602 96.7102 86.4902 96.6102C86.7702 96.5602 87.2102 96.6002 87.7302 96.7302C88.2402 96.8602 88.5802 96.8902 88.6502 96.8202C88.7102 96.7602 88.7502 96.2802 88.7302 95.7802C88.7002 94.8802 88.6802 94.8402 88.3502 94.6902C87.9402 94.4902 86.5902 94.4102 86.1402 94.5602ZM106.42 94.5702C105.49 94.7302 104.17 95.4102 103.49 96.0902C102.2 97.3802 101.66 99.1602 101.75 101.8C101.83 104.18 102.27 105.36 103.52 106.53C104.71 107.66 105.97 108.03 108.25 107.96C109.92 107.9 111.42 107.57 112.11 107.11C112.45 106.88 112.49 106.79 112.52 106.21C112.54 105.86 112.5 105.49 112.44 105.39C112.32 105.2 112.42 105.18 110.43 105.81C109.62 106.06 109.19 106.12 108.19 106.13C106.21 106.14 105.19 105.61 104.52 104.25C104.24 103.68 104.14 103.28 104.09 102.62L104.03 101.75L108.27 101.72C113.36 101.68 113.02 101.79 113.01 100.22C113 97.4602 111.81 95.5402 109.66 94.7902C108.88 94.5302 107.31 94.4202 106.42 94.5702ZM108.64 96.3902C109.81 96.7402 110.58 97.7802 110.74 99.2502L110.82 99.9802H104.04L104.11 99.3902C104.28 97.9502 105.27 96.7102 106.55 96.3202C107.04 96.1702 108 96.2102 108.64 96.3902ZM120.32 94.5502C119.56 94.8002 118.51 95.6802 117.93 96.5502C117.74 96.8402 117.73 96.8202 117.73 95.9002C117.73 95.3202 117.68 94.9002 117.59 94.8202C117.4 94.6302 115.94 94.6302 115.75 94.8202C115.55 95.0202 115.55 107.41 115.75 107.61C115.94 107.8 117.63 107.8 117.82 107.61C117.92 107.51 117.96 106.39 117.96 103.34V99.2102L118.4 98.5602C119.05 97.5902 119.87 96.8302 120.44 96.6602C120.93 96.5102 121.12 96.5302 122.43 96.8702C122.8 96.9702 122.91 96.7602 122.91 95.9702C122.91 95.0902 122.83 94.8502 122.46 94.6802C122.08 94.5102 120.71 94.4202 120.32 94.5502ZM89.0002 94.8602C88.8802 95.0102 89.2402 96.1102 91.0602 101.19C92.2702 104.57 93.3602 107.44 93.4802 107.57C93.9302 108.03 96.1602 107.92 96.3602 107.43C96.5102 107.04 100.64 95.5702 100.72 95.3002C100.86 94.8302 100.61 94.6902 99.6002 94.6902C99.0102 94.6902 98.6402 94.7402 98.5702 94.8402C98.5102 94.9202 97.6702 97.3102 96.7102 100.15C95.7502 102.99 94.9302 105.27 94.8802 105.21C94.8302 105.16 94.0102 102.84 93.0602 100.05C92.1102 97.2602 91.2702 94.9202 91.2002 94.8302C91.0202 94.6002 89.1802 94.6302 89.0002 94.8602Z" fill="black"/>
</svg>
