<svg width="128" height="128" viewBox="0 0 128 128" fill="none" xmlns="http://www.w3.org/2000/svg">
<path d="M0 0H128V128H0V0Z" fill="#8DC63F"/>
<path d="M40.9998 128L14.7998 106.3L34.5998 52.3999L53.7998 70.2999V19.3999H61.6998L82.6998 42.8999L88.7998 37.5999L113.9 69.9999L116 68.4999L128 84.5999V127.8L40.9998 128Z" fill="url(#paint0_linear_3_6961)"/>
<path d="M41.9998 19.3999H61.6998V106.3H41.9998V19.3999ZM69.0998 37.5999H88.7998V106.3H69.0998V37.5999ZM96.2998 68.4999H116V106.3H96.2998V68.4999ZM14.7998 52.3999H34.4998V106.3H14.7998V52.3999Z" fill="white"/>
<path d="M14.7998 100.3L34.5998 92.8999V106.3H14.7998V100.3ZM61.6998 71.8999V106.3H41.9998V89.0999L61.6998 71.8999ZM69.0998 71.8999L88.7998 86.3999V106.3H69.0998V71.8999ZM96.2998 86.1999L116 78.5999V106.3H96.2998V86.1999Z" fill="#D1D1D2"/>
<defs>
<linearGradient id="paint0_linear_3_6961" x1="99.3198" y1="119.57" x2="21.2098" y2="41.2099" gradientUnits="userSpaceOnUse">
<stop stop-color="#8DC63F" stop-opacity="0.2"/>
<stop offset="1" stop-opacity="0.2"/>
</linearGradient>
</defs>
</svg>
