<svg width="128" height="128" viewBox="0 0 128 128" fill="none" xmlns="http://www.w3.org/2000/svg">
<path d="M91.7802 58.77L89.4802 64.19H94.0902L91.7802 58.77ZM60.9102 52H64.9102C65.1103 51.9762 65.2985 51.8926 65.4502 51.76C67.7702 49 68.1002 43.6 68.1002 41.7C68.1003 41.5178 68.0293 41.3427 67.9023 41.212C67.7753 41.0812 67.6024 41.0052 67.4202 41H58.4202C58.2399 41 58.0669 41.0716 57.9394 41.1992C57.8119 41.3267 57.7402 41.4997 57.7402 41.68C57.8102 43.58 58.0802 49.04 60.3902 51.76C60.4528 51.8371 60.5322 51.8988 60.6224 51.9404C60.7125 51.982 60.811 52.0024 60.9102 52ZM65.3202 46.84C67.0002 46.23 67.0002 45.62 67.0002 45.62C66.8118 47.5135 66.1214 49.3225 65.0002 50.86C64.9473 50.9138 64.883 50.9552 64.8121 50.9811C64.7412 51.007 64.6654 51.0169 64.5902 51.01H61.2502C61.1102 51.01 60.9102 51.01 60.8402 50.86C60.0064 49.7418 59.4263 48.4552 59.1402 47.09C59.1402 47.09 63.0802 47.65 65.3202 46.84Z" fill="#8D6748"/>
<path d="M116.42 29.9402L67.48 1.72022C66.4417 1.12076 65.2639 0.805176 64.065 0.805176C62.8661 0.805176 61.6883 1.12076 60.65 1.72022L11.6 29.9402C10.5428 30.5152 9.65428 31.3566 9.02276 32.3811C8.39125 33.4056 8.03866 34.5774 8 35.7802V92.2202C8.04805 93.4171 8.40244 94.5816 9.02925 95.6024C9.65605 96.6231 10.5343 97.466 11.58 98.0502L60.52 126.27C61.5583 126.87 62.7361 127.185 63.935 127.185C65.1339 127.185 66.3117 126.87 67.35 126.27L116.4 98.0602C117.441 97.4682 118.316 96.624 118.945 95.6053C119.574 94.5865 119.937 93.4259 120 92.2302V35.7802C119.954 34.5816 119.6 33.415 118.973 32.3924C118.346 31.3698 117.467 30.5254 116.42 29.9402ZM112 88.2902C111.995 89.309 111.72 90.3083 111.204 91.1865C110.688 92.0647 109.948 92.7906 109.06 93.2902L66.86 117.66C65.9789 118.192 64.9692 118.473 63.94 118.473C62.9108 118.473 61.9011 118.192 61.02 117.66L18.87 93.3102C17.9854 92.8128 17.2517 92.0856 16.7464 91.2055C16.2412 90.3253 15.9833 89.3249 16 88.3102V39.5802C15.9918 38.5671 16.2533 37.5701 16.7576 36.6914C17.262 35.8127 17.9911 35.0841 18.87 34.5802L61 10.2002C61.8769 9.66686 62.8836 9.38477 63.91 9.38477C64.9364 9.38477 65.9431 9.66686 66.82 10.2002L109.03 34.5502C109.922 35.0447 110.664 35.7697 111.179 36.6493C111.695 37.5288 111.964 38.5307 111.96 39.5502L112 88.2902Z" fill="#8D6748"/>
<path d="M40.0002 67.3704C42.6732 67.3704 44.8402 65.2035 44.8402 62.5304C44.8402 59.8574 42.6732 57.6904 40.0002 57.6904C37.3271 57.6904 35.1602 59.8574 35.1602 62.5304C35.1602 65.2035 37.3271 67.3704 40.0002 67.3704Z" fill="#8D6748"/>
<path d="M108.06 36.3204L65.85 12.0004C65.2711 11.6575 64.6128 11.4713 63.94 11.4604C63.2583 11.4747 62.5911 11.6604 62 12.0004L19.87 36.3204C19.2976 36.6671 18.8246 37.1559 18.4969 37.7394C18.1693 38.3229 17.9981 38.9813 18 39.6505V88.3504C17.9988 89.0181 18.1704 89.6748 18.4981 90.2565C18.8258 90.8383 19.2984 91.3254 19.87 91.6704L62 116C62.5682 116.351 63.2223 116.538 63.89 116.54C64.5597 116.53 65.215 116.344 65.79 116L108.02 91.6505C108.605 91.3156 109.094 90.8364 109.44 90.2586C109.787 89.6809 109.98 89.0239 110 88.3504V39.6505C109.989 38.9757 109.805 38.3152 109.465 37.7321C109.125 37.149 108.641 36.6629 108.06 36.3204ZM67 68.1905C67.6944 68.1896 68.3804 68.038 69.0106 67.7462C69.6407 67.4544 70.2001 67.0294 70.65 66.5005L72.17 68.0005C71.8428 68.3675 71.4811 68.7024 71.09 69.0005C70.7153 69.2991 70.3056 69.5509 69.87 69.7505C69.4229 69.9774 68.9442 70.1359 68.45 70.2205C67.847 70.3344 67.2333 70.3813 66.62 70.3605C65.7138 70.3734 64.8143 70.2029 63.9756 69.8592C63.137 69.5155 62.3765 69.0057 61.74 68.3605C61.1513 67.7154 60.708 66.9516 60.44 66.1205C60.1217 65.2465 59.9724 64.3201 60 63.3904V63.3204C59.9631 62.3984 60.1057 61.478 60.42 60.6105C60.7408 59.7909 61.2009 59.0331 61.78 58.3704C62.4059 57.7219 63.1627 57.2139 64 56.8805C64.8998 56.52 65.8607 56.3366 66.83 56.3405C67.3958 56.3505 67.9603 56.3973 68.52 56.4804C69.06 56.6204 69.47 56.7505 69.94 56.8904C70.3459 57.0766 70.7313 57.3045 71.09 57.5704C71.4397 57.8447 71.7735 58.1385 72.09 58.4505L70.53 60.0805C69.9848 59.4911 69.3012 59.0469 68.5412 58.7882C67.7811 58.5294 66.9685 58.4642 66.1769 58.5985C65.3853 58.7327 64.6397 59.0622 64.0075 59.5571C63.3752 60.052 62.8763 60.6966 62.5559 61.4328C62.2354 62.169 62.1036 62.9735 62.1722 63.7734C62.2409 64.5734 62.5079 65.3436 62.949 66.0144C63.3902 66.6853 63.9916 67.2355 64.6989 67.6155C65.4063 67.9954 66.1971 68.193 67 68.1905ZM64.17 30.5604C63.83 31.0304 64.24 32.1905 65.12 33.5605C65.3309 33.8824 65.4738 34.2439 65.5402 34.6229C65.6066 35.002 65.5949 35.3905 65.506 35.7649C65.4171 36.1393 65.2528 36.4916 65.023 36.8004C64.7933 37.1091 64.5031 37.3677 64.17 37.5605C64.1772 36.7295 63.914 35.9187 63.42 35.2505C61.8 32.7905 63.29 31.6404 64.17 30.5604ZM61.46 33.0704C61.19 33.3405 61.46 34.1604 62.07 35.0704C62.2153 35.2862 62.315 35.5293 62.3631 35.7849C62.4111 36.0405 62.4064 36.3032 62.3493 36.557C62.2922 36.8107 62.1838 37.0501 62.0309 37.2605C61.878 37.4709 61.6837 37.6478 61.46 37.7804C61.4621 37.2361 61.3019 36.7034 61 36.2505C59.9 34.5604 60.85 33.8104 61.46 33.0704ZM56.5 39.0005H69.26C69.3465 38.995 69.4332 39.0072 69.5149 39.0363C69.5966 39.0654 69.6714 39.1108 69.735 39.1697C69.7986 39.2286 69.8496 39.2998 69.8848 39.379C69.92 39.4582 69.9388 39.5438 69.94 39.6305C69.94 42.0005 69.6 50.0005 66.2 53.7705C66.1423 53.8397 66.0706 53.896 65.9896 53.9357C65.9086 53.9753 65.8201 53.9974 65.73 54.0005H60C59.908 53.9919 59.8187 53.9644 59.7378 53.9196C59.6569 53.8749 59.5862 53.8139 59.53 53.7405C56.16 49.8805 55.83 42.0005 55.83 39.6604C55.83 39.5729 55.8474 39.4863 55.8812 39.4055C55.915 39.3248 55.9645 39.2516 56.0268 39.1902C56.0892 39.1288 56.1631 39.0804 56.2444 39.0478C56.3256 39.0152 56.4125 38.9991 56.5 39.0005ZM21 49.0005H55.35C55.35 49.0005 55.42 49.0005 55.42 50.0005H21V49.0005ZM55 63.3204V63.3904C55.0148 64.3153 54.8553 65.2346 54.53 66.1004C54.1988 66.9376 53.7022 67.6995 53.07 68.3404C52.4432 68.9879 51.6867 69.4956 50.85 69.8305C49.9546 70.2172 48.9849 70.4015 48.01 70.3705C47.0381 70.3676 46.0752 70.1845 45.17 69.8305C44.3272 69.4962 43.564 68.9886 42.93 68.3404C42.3067 67.702 41.8261 66.9385 41.52 66.1004C41.1726 65.2394 40.996 64.319 41 63.3904V63.3204C41.0058 62.3919 41.1856 61.4727 41.53 60.6105C41.8664 59.7736 42.3661 59.0121 43 58.3704C43.6309 57.7232 44.3906 57.2156 45.23 56.8805C46.1288 56.4932 47.1019 56.3089 48.08 56.3405C49.0552 56.3425 50.0216 56.5256 50.93 56.8805C51.7727 57.2149 52.5358 57.7225 53.17 58.3704C53.7747 59.0123 54.235 59.776 54.52 60.6105C54.8542 61.4741 55.0173 62.3945 55 63.3204ZM29.1 67.0005H29L25 60.5405V70.0005H22V57.0005H25L29.14 63.3805L33.23 57.0005H36V70.0005H33V60.4705L29.1 67.0005ZM107 75.0005H21V74.0005H107V75.0005ZM86 62.0005V57.0005H88V70.0005H86V64.0005H79V70.0005H77V57.0005H79V62.0005H86ZM92.73 70.0005L98.73 57.0005H100.9L106.9 70.0005H104.39L103 67.0005H96.6L95.18 70.0005H92.73ZM107 50.0005H70.41C70.41 49.0005 70.48 49.0005 70.48 49.0005H107V50.0005Z" fill="#8D6748"/>
</svg>
