<svg width="128" height="128" viewBox="0 0 128 128" fill="none" xmlns="http://www.w3.org/2000/svg">
<path d="M110.5 11.4001H66.5L61.7 19.2001L93.4 39.0001L110.5 11.4001ZM92.2 40.7001L31.2 2.6001V46.7001L40.7 52.6001L92.2 40.7001ZM73.4 77.4001L100.8 94.6001V50.5001L93.2 45.7001L73.4 77.4001ZM39.8 56.5001L21.5 85.8001H65.5L91.3 44.6001L39.8 56.5001Z" fill="#00DECC"/>
<path d="M16.2998 122.1H18.8998L20.1998 106.5H17.5998V103.5H24.5998L29.3998 115.7C29.7998 116.8 29.8998 117.5 29.8998 117.5H29.9998C29.9998 117.5 30.1998 116.8 30.4998 115.7L35.2998 103.5H42.2998V106.5H39.6998L40.8998 122.1H43.4998V125.1H34.5998V122.1H36.9998L36.1998 111.2C36.0998 110.4 36.2998 109.2 36.2998 109.2H36.1998C36.1998 109.2 35.9998 110.4 35.6998 111.1L31.5998 121.1H28.1998L24.0998 111.1C23.7998 110.4 23.5998 109.2 23.5998 109.2H23.4998C23.4998 109.2 23.6998 110.4 23.5998 111.2L22.7998 122.1H25.1998V125.1H16.2998V122.1ZM56.1998 103C62.5998 103 67.3998 107.8 67.3998 114C67.3998 120.4 62.5998 125.3 56.1998 125.3C49.7998 125.3 44.9998 120.3 44.9998 114C44.9998 107.9 49.7998 103 56.1998 103ZM56.1998 121.9C60.0998 121.9 63.2998 118.5 63.2998 114.1C63.2998 109.8 60.0998 106.6 56.1998 106.6C52.2998 106.6 49.0998 109.9 49.0998 114.1C49.0998 118.5 52.2998 121.9 56.1998 121.9ZM69.3998 122.1H71.9998V106.5H69.3998V103.5H78.7998C80.4998 103.5 81.8998 103.6 83.2998 104C87.4998 105.2 90.2998 109 90.2998 114.3C90.2998 119.4 87.6998 123.1 83.5998 124.5C82.0998 125 80.5998 125.1 78.7998 125.1H69.3998V122.1ZM78.5998 121.8C79.9998 121.8 81.0998 121.7 82.0998 121.3C84.5998 120.3 86.0998 117.8 86.0998 114.2C86.0998 110.5 84.4998 108 81.8998 107.1C80.7998 106.7 79.7998 106.6 78.4998 106.6H75.9998V121.8H78.5998ZM92.5998 122.1H94.4998L99.9998 114.1L94.6998 106.5H92.7998V103.5H101V106.5H98.8998L101.9 111C102.3 111.5 102.5 111.9 102.5 111.9H102.6C102.6 111.9 102.8 111.5 103.2 111L106.1 106.5H104V103.5H111.9V106.5H110L104.5 114.5L109.9 122.2H111.8V125.2H103.6V122.2H105.7L102.7 117.7C102.3 117.2 102.1 116.8 102.1 116.8H102C101.9 116.8 101.8 117.2 101.4 117.7L98.4998 122.2H100.6V125.2H92.6998L92.5998 122.1Z" fill="#00DECC"/>
</svg>
