<svg width="128" height="128" viewBox="0 0 128 128" fill="none" xmlns="http://www.w3.org/2000/svg">
<path d="M92.0998 40.8L110.4 11.5H66.3998L60.2998 21.3L92.0998 40.8Z" fill="#00B5DE"/>
<path d="M101.8 93.7999V49.7999L92.2998 43.8999L72.2998 75.3999L101.8 93.7999Z" fill="#FF5529"/>
<path d="M30.8999 2.7002V46.7002L41.0999 52.6002L92.0999 40.8002L30.8999 2.7002Z" fill="#00DECC"/>
<path d="M40.9001 55.9999L22.6001 84.7999H66.6001L92.3001 43.8999L40.9001 55.9999Z" fill="#FF9640"/>
<path d="M16.2002 122.1H18.8002L20.1002 106.5H17.5002V103.5H24.5002L29.3002 115.7C29.7002 116.8 29.8002 117.5 29.8002 117.5H29.9002C29.9002 117.5 30.1002 116.8 30.4002 115.7L35.2002 103.5H42.2002V106.5H39.6002L40.8002 122.1H43.4002V125.1H34.5002V122.1H36.9002L36.2002 111.1C36.1002 110.3 36.3002 109.1 36.3002 109.1H36.2002C36.2002 109.1 36.0002 110.3 35.7002 111L31.6002 121H28.2002L24.1002 111C23.8002 110.3 23.6002 109.1 23.6002 109.1H23.5002C23.5002 109.1 23.7002 110.3 23.6002 111.1L22.8002 122H25.2002V125H16.2002V122.1ZM56.1002 103C62.5002 103 67.3002 107.8 67.3002 114C67.3002 120.4 62.5002 125.3 56.1002 125.3C49.7002 125.3 44.9002 120.3 44.9002 114C44.9002 107.9 49.7002 103 56.1002 103ZM56.1002 121.9C60.0002 121.9 63.2002 118.5 63.2002 114.1C63.2002 109.8 60.0002 106.6 56.1002 106.6C52.2002 106.6 49.0002 109.9 49.0002 114.1C49.0002 118.5 52.2002 121.9 56.1002 121.9ZM69.3002 122.1H71.9002V106.5H69.3002V103.5H78.7002C80.4002 103.5 81.8002 103.6 83.2002 104C87.4002 105.2 90.2002 109 90.2002 114.3C90.2002 119.4 87.6002 123.1 83.5002 124.5C82.0002 125 80.5002 125.1 78.7002 125.1H69.3002V122.1ZM78.5002 121.8C79.9002 121.8 81.0002 121.7 82.0002 121.2C84.5002 120.2 86.0002 117.7 86.0002 114.1C86.0002 110.4 84.4002 107.9 81.8002 107C80.7002 106.6 79.7002 106.5 78.4002 106.5H75.8002V121.7L78.5002 121.8ZM92.5002 122.1H94.4002L99.9002 114.1L94.6002 106.5H92.7002V103.5H100.9V106.5H98.8002L101.8 111C102.2 111.5 102.4 111.9 102.4 111.9H102.5C102.5 111.9 102.7 111.5 103.1 111L106 106.5H103.9V103.5H111.8V106.5H109.9L104.4 114.4L109.8 122.1H111.7V125.1H103.5V122.1H105.6L102.6 117.6C102.2 117.1 102 116.7 102 116.7H101.9C101.8 116.7 101.7 117.1 101.3 117.6L98.4002 122.1H100.5V125.1H92.6002L92.5002 122.1Z" fill="#102C53"/>
</svg>
