<svg width="128" height="128" viewBox="0 0 128 128" fill="none" xmlns="http://www.w3.org/2000/svg">
<path fill-rule="evenodd" clip-rule="evenodd" d="M87.2588 100.139C87.4278 99.8138 87.5898 99.5268 87.7278 99.2298C87.8148 99.0398 87.9488 99.0018 88.1378 99.0068C89.2708 99.0388 90.4038 99.0738 91.5378 99.0848C92.5008 99.0948 93.4658 99.0768 94.4298 99.0658C95.5158 99.0528 96.6018 98.9958 97.6868 99.0268C99.1318 99.0688 100.54 99.3518 101.847 99.9948C103.408 100.764 104.589 101.935 105.394 103.478C105.9 104.456 106.216 105.522 106.325 106.618C106.497 108.226 106.384 109.797 105.874 111.335C105.242 113.241 104.042 114.7 102.375 115.793C101.092 116.634 99.6848 117.131 98.1768 117.415C96.5808 117.716 94.9798 117.619 93.3788 117.624C91.6228 117.631 89.8678 117.593 88.1118 117.573C87.8048 117.57 87.7608 117.512 87.8418 117.219L87.9168 116.949C88.0878 116.411 88.1798 116.387 88.7258 116.297C89.1128 116.236 89.483 116.095 89.8128 115.884C89.9968 115.762 90.0728 115.444 90.1448 115.199C90.2068 114.985 90.2098 114.75 90.2118 114.524C90.2368 111.099 90.2628 107.675 90.2768 104.252C90.2806 103.386 90.2589 102.52 90.2118 101.656C90.1778 101.051 89.8548 100.637 89.1348 100.494C88.5748 100.383 88.0108 100.297 87.4478 100.198L87.2588 100.139ZM103.335 108.432C103.259 107.75 103.222 107.062 103.1 106.39C102.808 104.777 102.102 103.372 100.862 102.271C98.8568 100.492 96.4428 100.218 93.9128 100.43C93.3368 100.478 93.2128 100.675 93.2038 101.267C93.1898 102.107 93.1758 102.947 93.1748 103.787C93.1708 106.451 93.1708 109.115 93.1748 111.779C93.1758 112.537 93.1838 113.295 93.2058 114.051C93.2298 114.825 93.5108 115.48 94.2688 115.78C95.4638 116.253 96.7208 116.309 97.9748 116.116C99.9778 115.809 101.379 114.642 102.319 112.893C103.063 111.505 103.273 109.99 103.335 108.432ZM108.204 117.503C108.18 117.088 108.35 116.745 108.56 116.43C108.617 116.345 108.813 116.349 108.948 116.322L110.094 116.095C110.499 116.009 110.712 115.737 110.769 115.34C110.807 115.078 110.843 114.813 110.846 114.548C110.873 112.451 110.893 110.354 110.905 108.257C110.915 106.157 110.907 104.057 110.907 101.957L110.898 101.556C110.857 100.881 110.531 100.531 109.861 100.432L108.408 100.211C108.229 100.187 108.164 100.101 108.229 99.9418C108.341 99.6708 108.448 99.3898 108.606 99.1458C108.665 99.0558 108.864 99.0208 108.998 99.0238C109.692 99.0338 110.386 99.0858 111.08 99.0848L117.121 99.0488C118.285 99.0478 119.409 99.2508 120.453 99.8078C121.602 100.42 122.245 101.367 122.429 102.657C122.621 104.012 122.21 105.154 121.22 106.061C120.813 106.435 120.286 106.679 119.814 106.983L119.66 107.079C120.098 107.24 120.515 107.379 120.921 107.545C122.109 108.032 123.054 108.793 123.554 110.008C123.949 110.967 123.949 111.967 123.715 112.961C123.351 114.517 122.326 115.552 120.993 116.335C119.742 117.07 118.388 117.498 116.946 117.57C115.616 117.637 114.28 117.612 112.947 117.627L112.175 117.631C110.89 117.601 109.605 117.569 108.321 117.535L108.204 117.503ZM113.741 111.414H113.754C113.754 112.072 113.745 112.73 113.757 113.388C113.765 113.814 113.75 114.252 113.842 114.662C113.98 115.275 114.26 115.828 114.948 116.004C115.868 116.245 116.828 116.288 117.766 116.128C118.943 115.923 119.882 115.333 120.397 114.212C120.779 113.379 120.836 112.496 120.705 111.594C120.531 110.406 119.9 109.544 118.851 108.979C118.163 108.608 117.429 108.381 116.647 108.351C115.771 108.318 114.894 108.316 114.018 108.289C113.772 108.282 113.738 108.407 113.739 108.609C113.744 109.543 113.741 110.478 113.741 111.414ZM115.606 106.939C116.085 106.915 116.627 106.908 117.166 106.854C118.198 106.751 118.925 106.232 119.304 105.245C119.497 104.744 119.489 104.228 119.494 103.707C119.509 102.35 118.717 101.238 117.428 100.778C116.433 100.423 115.407 100.417 114.375 100.445C113.957 100.456 113.77 100.639 113.764 101.06L113.702 106.549C113.699 106.767 113.793 106.861 114.005 106.868L115.606 106.939Z" fill="#94795D"/>
<path fill-rule="evenodd" clip-rule="evenodd" d="M10.543 116.448L10.47 117.392C9.78999 117.392 9.16299 117.387 8.53599 117.394C7.35499 117.406 6.17399 117.425 4.99199 117.442L4.87799 117.449C4.70899 117.429 4.40199 117.429 4.39399 117.379C4.34399 117.098 4.35999 116.803 4.37299 116.512C4.37399 116.479 4.48899 116.437 4.55599 116.421L5.47499 116.216C6.04799 116.067 6.24999 115.82 6.27699 115.228C6.30799 114.561 6.33899 113.893 6.34199 113.226C6.35099 111.584 6.34099 109.944 6.34799 108.302C6.34899 107.918 6.21599 107.632 5.85799 107.476C5.43258 107.287 5.00419 107.105 4.57299 106.93C4.36899 106.848 4.10399 106.803 4.12799 106.529C4.15199 106.25 4.40899 106.177 4.65099 106.122C5.65299 105.893 6.65599 105.67 7.65499 105.426C7.97699 105.347 8.28499 105.214 8.66999 105.08C8.68999 105.288 8.72699 105.486 8.72299 105.684L8.66399 106.625C8.66299 106.731 8.71799 106.873 8.79699 106.932C8.84499 106.969 9.00599 106.902 9.08599 106.84C9.93999 106.19 10.844 105.629 11.875 105.302C13.472 104.795 14.843 105.265 15.803 106.642C16.141 107.127 16.142 107.127 16.611 106.788C17.416 106.203 18.258 105.687 19.2 105.347C21.268 104.6 23.255 105.548 23.974 107.631C24.236 108.387 24.336 109.168 24.334 109.966L24.315 115.264C24.314 115.701 24.459 115.95 24.875 116.086C25.342 116.239 25.826 116.344 26.352 116.482L26.23 117.393C25.632 117.393 25.082 117.389 24.532 117.394C23.188 117.406 21.844 117.413 20.501 117.444C20.267 117.45 20.206 117.392 20.194 117.173C20.155 116.472 20.149 116.473 20.809 116.315L21.031 116.258C21.676 116.082 21.891 115.884 21.896 115.23C21.911 113.352 21.95 111.469 21.855 109.595C21.756 107.651 20.213 106.616 18.329 107.114C17.7209 107.281 17.1482 107.556 16.639 107.928C16.464 108.053 16.431 108.197 16.445 108.416C16.498 109.244 16.531 110.073 16.538 110.902C16.55 112.353 16.532 113.804 16.538 115.256C16.54 115.844 16.741 116.069 17.322 116.205L18.185 116.404L18.345 116.44C18.357 116.716 18.368 116.992 18.355 117.268C18.347 117.441 18.213 117.456 18.063 117.453C17.224 117.432 16.384 117.404 15.545 117.406C14.524 117.408 13.504 117.437 12.484 117.455H12.244C12.244 117.162 12.23 116.882 12.254 116.603C12.259 116.536 12.377 116.442 12.458 116.421L13.464 116.208C13.891 116.103 14.095 115.884 14.119 115.45C14.233 113.44 14.315 111.429 14.126 109.42C14.0799 109.023 13.9698 108.637 13.8 108.275C13.285 107.137 12.126 106.662 10.789 107.004C10.154 107.166 9.58099 107.457 9.03899 107.824C8.92079 107.897 8.82371 107.999 8.75739 108.121C8.69108 108.243 8.65784 108.38 8.66099 108.519C8.66099 110.524 8.66799 112.529 8.67399 114.533L8.68499 115.306C8.69699 115.845 8.92599 116.129 9.46099 116.245C9.80499 116.323 10.153 116.376 10.543 116.448Z" fill="#50382B"/>
<path fill-rule="evenodd" clip-rule="evenodd" d="M71.0012 105.285C71.1562 106.039 71.1532 106.717 70.5992 107.231C70.0492 107.742 69.3532 107.57 68.6742 107.456C68.7372 107.814 68.8072 108.118 68.8412 108.426C69.0882 110.715 68.1032 112.414 65.9802 113.385C65.1782 113.751 64.3272 113.887 63.4582 113.957C63.0262 113.991 62.6482 114.321 62.6072 114.676C62.5652 115.036 62.7912 115.406 63.2432 115.514C63.7762 115.641 64.3322 115.677 64.8792 115.74C66.0532 115.874 67.2402 115.935 68.4002 116.145C70.1542 116.461 71.1332 117.992 70.8242 119.754C70.5492 121.322 69.6412 122.463 68.3752 123.338C66.2422 124.816 63.9022 125.248 61.4102 124.494C59.9852 124.062 58.9802 123.125 58.6332 121.609C58.4592 120.85 58.6442 120.163 59.2152 119.648C59.8942 119.038 60.6332 118.494 61.3442 117.918L61.5742 117.687L61.3102 117.502C60.5852 117.158 60.0052 116.687 59.7802 115.869C59.7032 115.592 59.7832 115.41 60.0182 115.268C60.4182 115.027 60.8162 114.782 61.2112 114.533C61.3972 114.417 61.5812 114.297 61.7542 114.163C61.9902 113.983 61.9692 113.849 61.6872 113.745C61.0312 113.503 60.4482 113.152 59.9962 112.612C59.2412 111.711 59.0272 110.638 59.0892 109.505C59.1862 107.735 60.1472 106.569 61.7092 105.819C63.5662 104.928 65.4292 104.872 67.3222 105.684C68.0222 105.984 68.7602 106.048 69.5112 105.996C70.0722 105.956 70.5622 105.744 71.0012 105.285ZM64.1582 117.966C62.7642 117.954 62.3272 118.126 61.5092 118.959C60.5932 119.893 60.5982 121.188 61.5122 122.126C62.2062 122.837 63.0722 123.17 64.0352 123.27C65.1602 123.386 66.2682 123.339 67.2902 122.776C68.3802 122.173 68.9222 121.053 68.6772 119.925C68.4742 118.994 67.7882 118.568 66.9532 118.323C66.0032 118.045 65.0212 117.992 64.1582 117.966ZM61.4202 109.058C61.4712 109.445 61.4922 109.837 61.5782 110.216C61.8012 111.198 62.2282 112.061 63.2052 112.498C64.3522 113.013 65.8172 112.792 66.3192 111.182C66.6621 110.111 66.6222 108.953 66.2062 107.908C66.0299 107.43 65.7125 107.017 65.2962 106.724C64.3002 106.029 62.5032 105.937 61.7712 107.473C61.5332 107.972 61.4402 108.503 61.4202 109.058Z" fill="#4F382B"/>
<path fill-rule="evenodd" clip-rule="evenodd" d="M47.3501 105.038C47.3871 105.209 47.4611 105.403 47.4631 105.598C47.4661 105.969 47.4261 106.34 47.4051 106.711V107.033L47.7191 106.793C48.5791 106.085 49.5031 105.482 50.5791 105.157C52.5211 104.572 54.4611 105.635 55.0941 107.613C55.3341 108.365 55.4291 109.138 55.4381 109.924C55.4581 111.67 55.4701 113.416 55.4881 115.162C55.4941 115.789 55.5661 115.901 56.1591 116.082C56.4966 116.183 56.8408 116.259 57.1891 116.311C57.3801 116.341 57.4621 116.416 57.4521 116.603L57.4541 116.775C57.4471 117.498 57.3971 117.531 56.6961 117.529C55.0181 117.526 53.3411 117.536 51.6631 117.55C51.1631 117.554 51.1621 117.569 51.1121 117.075L51.1021 116.791C51.1331 116.365 51.1431 116.369 51.5621 116.307C51.8441 116.265 52.1241 116.2 52.3991 116.128C52.6821 116.055 52.8181 115.846 52.8561 115.566C52.8751 115.424 52.9001 115.282 52.8991 115.14C52.8751 113.232 52.9061 111.322 52.8021 109.417C52.7181 107.876 51.5421 106.958 49.9951 107.063C49.2494 107.115 48.5326 107.372 47.9241 107.806C47.5111 108.095 47.4281 108.512 47.4301 108.961C47.4381 110.745 47.4551 112.529 47.4741 114.314C47.4781 114.705 47.4891 115.096 47.5261 115.484C47.5651 115.908 47.7141 116.079 48.1301 116.171C48.5281 116.259 48.9341 116.31 49.3591 116.381L49.3951 116.709C49.4091 117.474 49.3291 117.531 48.5861 117.528C46.8511 117.521 45.1161 117.532 43.3821 117.551C43.1091 117.555 42.9931 117.469 43.0001 117.203L42.9961 117.089C42.9511 116.4 42.9711 116.374 43.6231 116.262L43.9311 116.2C44.6371 116.041 44.8181 115.853 44.8281 115.136C44.8611 112.865 44.8731 110.595 44.8961 108.324C44.8991 107.998 44.7761 107.745 44.4721 107.61C44.0455 107.423 43.6165 107.242 43.1851 107.066C42.9471 106.968 42.6751 106.906 42.6661 106.577C42.6601 106.345 42.9081 106.14 43.2471 106.071C43.9281 105.933 44.6151 105.818 45.2881 105.649C45.9581 105.482 46.6161 105.258 47.3501 105.038Z" fill="#4F372B"/>
<path fill-rule="evenodd" clip-rule="evenodd" d="M84.865 110.97C84.833 113.091 84.282 114.806 82.782 116.093C80.882 117.726 77.918 118.281 75.495 117.06C74.461 116.539 73.701 115.74 73.206 114.703C72.447 113.108 72.257 111.431 72.653 109.713C73.045 108.014 74.074 106.783 75.614 105.986C77.198 105.167 78.866 104.847 80.625 105.277C82.85 105.82 84.449 107.634 84.767 109.944C84.824 110.349 84.846 110.759 84.865 110.97ZM82.288 112.119L82.202 112.109C82.202 111.909 82.213 111.709 82.2 111.509C82.127 110.263 81.847 109.076 81.125 108.033C80.44 107.045 79.507 106.462 78.293 106.377C76.934 106.281 75.792 107.041 75.391 108.429C74.789 110.513 74.993 112.544 76.051 114.453C76.512 115.285 77.195 115.899 78.11 116.222C79.903 116.853 81.493 116.036 81.96 114.2C82.132 113.522 82.182 112.813 82.288 112.119Z" fill="#4F382B"/>
<path fill-rule="evenodd" clip-rule="evenodd" d="M40.8188 111.134C40.7818 112.656 40.4228 114.063 39.4828 115.286C38.4758 116.596 37.0918 117.296 35.5178 117.591C33.6568 117.939 31.9088 117.623 30.4138 116.374C29.7038 115.78 29.2188 115.019 28.8988 114.153C28.3738 112.733 28.2428 111.278 28.5658 109.795C28.9108 108.208 29.8068 106.995 31.1958 106.181C32.8018 105.242 34.5348 104.823 36.3858 105.245C38.7658 105.789 40.1398 107.34 40.6478 109.688C40.7498 110.162 40.7638 110.652 40.8188 111.134ZM38.2128 112.138L38.1438 112.128V111.842C38.1048 110.446 37.8318 109.116 36.9988 107.956C36.3818 107.095 35.5558 106.555 34.4968 106.404C32.7708 106.158 31.6428 107.182 31.2688 108.573C30.7808 110.39 30.9338 112.185 31.6888 113.908C32.1598 114.982 32.9038 115.819 34.0468 116.225C35.8288 116.858 37.4428 116.02 37.8938 114.191C38.0598 113.522 38.1098 112.824 38.2128 112.138Z" fill="#4F372B"/>
<path fill-rule="evenodd" clip-rule="evenodd" d="M82.3621 33.5439C83.5891 37.0909 84.4711 40.7119 84.7621 44.4639C85.1221 49.1199 84.9581 53.7439 83.9761 58.3229L83.8501 58.6889C83.5421 58.6899 83.2281 58.6509 82.9271 58.6979C80.3841 59.0979 77.8441 59.5119 75.3031 59.9239C72.6761 60.3499 70.0471 60.7589 67.4251 61.2129C66.4961 61.3729 65.3461 61.1819 64.9711 62.4659L64.7911 62.5269L64.9181 54.8489L64.7891 36.3229L66.0131 36.1129C68.0141 35.7859 70.0151 35.4529 72.0191 35.1339C74.4091 34.7549 76.8011 34.3849 79.1931 34.0149C80.2491 33.8529 81.3061 33.7019 82.3621 33.5439Z" fill="#439934"/>
<path fill-rule="evenodd" clip-rule="evenodd" d="M62.2649 84.9109C60.9739 83.8009 59.6379 82.7399 58.4009 81.5719C51.7429 75.2919 46.8719 67.8989 44.4729 58.9859C43.8119 56.5339 43.3719 54.0409 43.2299 51.5069C43.1299 49.7329 42.9869 47.9439 43.1129 46.1789C43.4459 41.4859 44.1249 36.8379 45.5009 32.3169L45.5769 32.2119C45.7109 32.3899 45.9029 32.5479 45.9709 32.7489C47.3149 36.7049 48.6479 40.6649 49.9749 44.6279C54.1439 57.0789 58.3079 69.5329 62.4839 81.9819C62.5659 82.2249 62.7769 82.4239 62.9289 82.6429L62.2649 84.9109Z" fill="#45A538"/>
<path fill-rule="evenodd" clip-rule="evenodd" d="M82.362 33.5441C81.305 33.7011 80.248 33.8531 79.193 34.0151C76.801 34.3851 74.409 34.7551 72.019 35.1341C70.016 35.4521 68.015 35.7851 66.013 36.1131L64.789 36.3231L64.779 35.5251C64.738 34.8691 64.67 34.2131 64.661 33.5571L64.524 21.0031C64.492 18.3841 64.444 15.7651 64.391 13.1471C64.364 11.52 64.317 9.89316 64.25 8.26714C64.21 7.39414 64.069 6.52514 64.013 5.65214C63.98 5.15014 64.024 4.64414 64.035 4.14014C64.659 5.34914 65.27 6.56714 65.911 7.76714C66.924 9.66414 68.539 11.0621 69.994 12.5871C75.74 18.6181 79.819 25.6261 82.362 33.5441Z" fill="#46A037"/>
<path fill-rule="evenodd" clip-rule="evenodd" d="M64.7922 62.527L64.9722 62.466C65.3472 61.182 66.4972 61.373 67.4262 61.213C70.0482 60.759 72.6772 60.35 75.3042 59.924C77.8452 59.513 80.3852 59.099 82.9282 58.698C83.2292 58.651 83.5432 58.69 83.8512 58.689C83.3762 60.385 83.0022 62.118 82.3992 63.767C81.7142 65.637 80.8862 67.463 80.0072 69.253C78.6905 71.9224 77.0614 74.4259 75.1542 76.711C73.6882 78.473 72.0542 80.104 70.4172 81.713C69.5112 82.602 68.4452 83.327 67.4512 84.127L67.1932 83.951L66.2662 83.159L65.3072 81.055C64.6519 78.6015 64.2944 76.078 64.2422 73.539L64.2602 73.111L64.3912 71.257C64.4342 70.624 64.4922 69.992 64.5192 69.359C64.6152 67.083 64.7012 64.805 64.7922 62.527Z" fill="#409433"/>
<path fill-rule="evenodd" clip-rule="evenodd" d="M64.7921 62.5271C64.7021 64.8051 64.6161 67.0841 64.5191 69.3621C64.4921 69.9961 64.4351 70.6281 64.3911 71.2601L63.8071 71.4811C62.5091 67.6601 61.2101 63.8791 59.9401 60.0891C57.8391 53.8181 55.7641 47.5381 53.6661 41.2651C51.972 36.2024 50.266 31.1437 48.5481 26.0891C48.4671 25.8531 48.2371 25.6671 48.0771 25.4581L51.8172 18.5811C51.9462 18.8041 52.1151 19.0131 52.1961 19.2531C53.9261 24.3731 55.6532 29.4941 57.3652 34.6201C59.5932 41.2901 61.8061 47.9631 64.0321 54.6341C64.1211 54.9001 64.2671 55.1461 64.4071 55.4451L64.9191 54.8491L64.7921 62.5271Z" fill="#4FAA41"/>
<path fill-rule="evenodd" clip-rule="evenodd" d="M48.0762 25.458C48.2372 25.667 48.4672 25.853 48.5472 26.089C50.2652 31.1436 51.9712 36.2023 53.6652 41.265C55.7632 47.538 57.8382 53.818 59.9392 60.089C61.2092 63.879 62.5082 67.659 63.8062 71.481L64.3902 71.26L64.2592 73.114L64.1402 73.541C63.9372 75.57 63.7662 77.603 63.5182 79.628C63.3942 80.643 63.1292 81.639 62.9282 82.643C62.7772 82.424 62.5652 82.225 62.4832 81.982C58.3062 69.533 54.1432 57.079 49.9742 44.628C48.6477 40.6656 47.3131 36.7059 45.9702 32.749C45.9022 32.548 45.7102 32.39 45.5762 32.212L48.0762 25.458Z" fill="#4AA73C"/>
<path fill-rule="evenodd" clip-rule="evenodd" d="M64.9179 54.8491L64.4059 55.4451C64.2659 55.1461 64.1199 54.9001 64.0309 54.6341C61.8049 47.9631 59.5919 41.2901 57.3639 34.6201C55.6499 29.4947 53.9269 24.3724 52.1949 19.2531C52.1139 19.0131 51.9449 18.8041 51.8159 18.5811L56.4409 12.4971C56.5869 12.6911 56.7949 12.8641 56.8699 13.0831C58.1539 16.8431 59.4259 20.6061 60.6919 24.3721C61.8739 27.8901 63.0379 31.4121 64.2339 34.9241C64.3139 35.1591 64.5929 35.3251 64.7789 35.5251L64.7889 36.3231L64.9179 54.8491Z" fill="#57AE47"/>
<path fill-rule="evenodd" clip-rule="evenodd" d="M64.7789 35.5251C64.5919 35.3261 64.3139 35.1601 64.2339 34.9241C63.0389 31.4121 61.8739 27.8901 60.6919 24.3721C59.4269 20.6061 58.1529 16.8431 56.8699 13.0831C56.7949 12.8641 56.5869 12.6911 56.4409 12.4971C57.9449 11.0241 59.4019 9.49811 60.9669 8.09311C62.3579 6.84511 63.4759 5.50711 63.5279 3.53411L63.6379 3.14111L64.0339 4.13911C64.0239 4.64311 63.9789 5.14911 64.0119 5.65111C64.0689 6.52411 64.2099 7.39311 64.2489 8.26611C64.3219 9.89111 64.3569 11.5191 64.3899 13.1461C64.4429 15.7641 64.4909 18.3831 64.5229 21.0021L64.6599 33.5561C64.6699 34.2131 64.7389 34.8691 64.7789 35.5251Z" fill="#60B24F"/>
<path fill-rule="evenodd" clip-rule="evenodd" d="M62.9292 82.6422C63.1302 81.6382 63.3952 80.6422 63.5192 79.6272C63.7672 77.6032 63.9382 75.5692 64.1412 73.5402L64.1922 73.5322L64.2422 73.5412C64.2943 76.0802 64.6519 78.6037 65.3072 81.0572C65.1722 81.2352 64.9832 81.3922 64.9112 81.5922C64.3562 83.1582 63.8322 84.7372 63.2742 86.3022C63.1982 86.5162 62.9842 86.6832 62.8352 86.8702L62.2642 84.9102L62.9292 82.6422Z" fill="#A9AA88"/>
<path fill-rule="evenodd" clip-rule="evenodd" d="M62.835 86.8711C62.984 86.6831 63.198 86.5171 63.274 86.3031C63.832 84.7381 64.356 83.1591 64.911 81.5931C64.982 81.3931 65.172 81.2361 65.307 81.0581L66.266 83.1621C66.077 83.4301 65.815 83.6731 65.71 83.9721L63.874 89.3641C63.798 89.5811 63.541 89.7331 63.367 89.9161L62.835 86.8711Z" fill="#B6B598"/>
<path fill-rule="evenodd" clip-rule="evenodd" d="M63.3672 89.9151C63.5402 89.7321 63.7982 89.5801 63.8742 89.3631L65.7102 83.9711C65.8142 83.6721 66.0772 83.4291 66.2662 83.1611L67.1942 83.9521C66.7462 84.3951 66.4972 84.9071 66.6472 85.5541L66.3652 86.4771C66.2372 86.6351 66.0512 86.7731 65.9882 86.9541C65.3472 88.7901 64.7362 90.6361 64.0902 92.4711C64.0082 92.7031 63.7812 92.8861 63.6222 93.0921L63.3672 89.9151Z" fill="#C2C1A7"/>
<path fill-rule="evenodd" clip-rule="evenodd" d="M63.621 93.0911C63.781 92.8851 64.008 92.7021 64.089 92.4701C64.735 90.6351 65.347 88.7891 65.987 86.9531C66.05 86.7721 66.236 86.6351 66.364 86.4761L65.975 90.7121C65.871 90.8321 65.721 90.9371 65.671 91.0761L64.377 94.7841C64.286 95.0371 64.112 95.2631 63.976 95.5001C63.855 95.3421 63.639 95.1891 63.629 95.0251C63.591 94.3831 63.618 93.7361 63.621 93.0911Z" fill="#CECDB7"/>
<path fill-rule="evenodd" clip-rule="evenodd" d="M63.9771 95.5009C64.1131 95.2639 64.287 95.0379 64.378 94.7849L65.672 91.0769C65.722 90.9369 65.873 90.8329 65.976 90.7129L65.986 93.4929L65.055 95.8799L63.9771 95.5009Z" fill="#DBDAC7"/>
<path fill-rule="evenodd" clip-rule="evenodd" d="M65.0552 95.8802L65.9862 93.4932L66.1782 96.3172L65.0552 95.8802Z" fill="#EBE9DC"/>
<path fill-rule="evenodd" clip-rule="evenodd" d="M66.6459 85.5541C66.4969 84.9081 66.7449 84.3961 67.1929 83.9521L67.4509 84.1281L66.6459 85.5541Z" fill="#CECDB7"/>
<path fill-rule="evenodd" clip-rule="evenodd" d="M64.2421 73.5418L64.1921 73.5328L64.1411 73.5408L64.2601 73.1138L64.2421 73.5418Z" fill="#4FAA41"/>
</svg>
