<svg width="128" height="128" viewBox="0 0 128 128" fill="none" xmlns="http://www.w3.org/2000/svg">
<path fill-rule="evenodd" clip-rule="evenodd" d="M90.4909 57.2822C90.1209 52.4922 88.9949 47.8732 87.4289 43.3482C84.1849 33.2442 78.9789 24.3022 71.6459 16.6082C69.7919 14.6622 67.7299 12.8792 66.4369 10.4572C65.6189 8.92518 64.8399 7.37218 64.0429 5.82818L63.5379 4.55518C63.4529 4.84718 63.3989 4.95118 63.3959 5.05618C63.3309 7.57318 61.9049 9.28018 60.1289 10.8732C58.1319 12.6662 56.2729 14.6122 54.3539 16.4912L48.4529 24.2542C46.8609 27.1792 45.2709 30.1042 43.6809 33.0292L40.4909 41.6462L40.3949 41.7802C38.6389 47.5482 37.7729 53.4782 37.3469 59.4682C37.1869 61.7192 37.3689 64.0032 37.4959 66.2662C37.6769 69.5012 38.2389 72.6812 39.0819 75.8112C42.1439 87.1832 48.3579 96.6162 56.8529 104.63C58.4319 106.119 60.0519 107.473 61.6999 108.89C61.9819 107.925 62.2069 106.96 62.4629 105.995C62.7189 105.034 62.9779 104.078 63.1509 103.114C62.9769 104.078 62.7819 105.034 62.5889 105.995L61.7629 108.89L62.5009 111.391L63.1849 115.275L63.5109 119.328C63.5079 120.151 63.4749 120.976 63.5249 121.798C63.5369 122.008 63.8129 122.202 63.9669 122.404L65.3429 122.887L66.7769 123.445L66.5309 119.842L66.5199 116.294L67.0149 110.889L67.3739 109.712L68.4009 107.892C69.6689 106.872 71.0299 105.946 72.1849 104.811C74.2749 102.757 76.3599 100.677 78.2299 98.4282C80.6639 95.5131 82.7421 92.3186 84.4209 88.9122C85.5429 86.6282 86.5989 84.2982 87.4729 81.9112C88.2429 79.8072 88.7199 77.5962 89.3269 75.4322C89.3809 75.2762 89.4529 75.1232 89.4869 74.9642C90.7409 69.1232 90.9519 63.2232 90.4909 57.2822ZM66.8919 106.657L66.0869 104.894L66.8919 106.657L68.0749 107.667L66.8919 106.657Z" fill="#4FAA41"/>
</svg>
