<svg width="128" height="128" viewBox="0 0 128 128" fill="none" xmlns="http://www.w3.org/2000/svg">
<path fill-rule="evenodd" clip-rule="evenodd" d="M82.803 34.2301C80.199 26.1221 76.022 18.9461 70.136 12.7711C68.648 11.2091 66.994 9.77812 65.956 7.83512C65.3 6.60512 64.675 5.35812 64.036 4.12012L63.63 3.09912L63.517 3.50112C63.464 5.52112 62.32 6.89012 60.896 8.16912C59.292 9.60712 57.8 11.1691 56.26 12.6781L51.524 18.9071L47.695 25.9491L45.134 32.8641L45.057 32.9711C43.648 37.6001 42.953 42.3601 42.612 47.1661C42.483 48.9731 42.631 50.8051 42.732 52.6211C42.877 55.2171 43.328 57.7681 44.004 60.2811C46.461 69.4071 51.448 76.9761 58.267 83.4081C59.533 84.6031 60.902 85.6901 62.223 86.8261L62.808 88.8341L63.352 91.9501L63.612 95.2031C63.609 95.8631 63.582 96.5261 63.621 97.1841C63.632 97.3531 63.852 97.5091 63.976 97.6711L65.08 98.0591L66.229 98.5061L66.032 95.6151L66.023 92.7671L66.42 88.4291L66.708 87.4851L67.533 86.0241C68.551 85.2061 69.642 84.4621 70.569 83.5511C72.246 81.9041 73.92 80.2341 75.421 78.4291C77.3738 76.0895 79.0418 73.5262 80.39 70.7931C81.289 68.9601 82.137 67.0901 82.838 65.1751C83.456 63.4871 83.839 61.7121 84.326 59.9751L84.454 59.6001C85.459 54.9121 85.628 50.1761 85.259 45.4101C84.962 41.5691 84.059 37.8621 82.803 34.2301ZM62.903 84.5051C63.057 83.7341 63.248 82.9671 63.387 82.1931C63.248 82.9671 63.058 83.7341 62.903 84.5051ZM66.32 85.0371L65.674 83.6221L66.32 85.0371L67.269 85.8481L66.32 85.0371ZM106.474 102.964C105.648 101.381 104.436 100.179 102.834 99.3901C101.492 98.7301 100.049 98.4401 98.565 98.3981C97.453 98.3661 96.337 98.4231 95.223 98.4371C94.234 98.4491 93.244 98.4661 92.255 98.4571C91.092 98.4451 89.929 98.4101 88.766 98.3771C88.573 98.3711 88.436 98.4101 88.346 98.6061C88.205 98.9111 88.038 99.2051 87.865 99.5391L88.059 99.6011C88.636 99.7031 89.216 99.7901 89.79 99.9051C90.528 100.052 90.86 100.476 90.894 101.098C90.944 101.984 90.964 102.872 90.961 103.76C90.946 107.274 90.921 110.788 90.895 114.301C90.893 114.533 90.889 114.775 90.826 114.993C90.753 115.245 90.674 115.571 90.486 115.695C90.1477 115.912 89.7681 116.057 89.371 116.12C88.81 116.212 88.716 116.237 88.541 116.789L88.465 117.065C88.381 117.366 88.426 117.425 88.74 117.428C90.542 117.448 92.343 117.487 94.144 117.481C95.787 117.475 97.43 117.575 99.067 117.266C100.614 116.975 102.058 116.465 103.376 115.602C105.086 114.481 106.316 112.983 106.965 111.028C107.489 109.449 107.606 107.838 107.428 106.187C107.317 105.062 106.993 103.968 106.474 102.964ZM103.317 112.625C102.353 114.419 100.915 115.617 98.86 115.933C97.573 116.13 96.284 116.073 95.057 115.586C94.28 115.278 93.991 114.607 93.967 113.814C93.945 113.037 93.934 112.26 93.934 111.482C93.93 108.748 93.93 106.014 93.934 103.281C93.936 102.42 93.951 101.557 93.965 100.695C93.975 100.089 94.102 99.8861 94.693 99.8371C97.289 99.6191 99.766 99.8991 101.823 101.726C103.095 102.856 103.819 104.297 104.12 105.952C104.245 106.642 104.283 107.348 104.361 108.048C104.298 109.646 104.082 111.201 103.317 112.625ZM125.106 109.664C124.594 108.418 123.624 107.637 122.405 107.137C121.989 106.966 121.56 106.825 121.111 106.659L121.268 106.559C121.753 106.248 122.293 105.997 122.711 105.614C123.727 104.683 124.149 103.512 123.951 102.121C123.763 100.798 123.103 99.8271 121.924 99.1971C120.854 98.6271 119.7 98.4191 118.506 98.4201C116.44 98.4221 114.373 98.4531 112.307 98.4571C111.595 98.4581 110.883 98.4051 110.171 98.3951C110.033 98.3931 109.828 98.4281 109.769 98.5201C109.606 98.7701 109.498 99.0581 109.382 99.3361C109.315 99.4981 109.381 99.5871 109.566 99.6111C110.063 99.6791 110.559 99.7641 111.057 99.8381C111.745 99.9411 112.078 100.299 112.12 100.992L112.129 101.403C112.13 103.558 112.137 105.713 112.128 107.868C112.115 110.02 112.095 112.172 112.067 114.324C112.064 114.595 112.027 114.867 111.988 115.136C111.929 115.542 111.712 115.822 111.296 115.91L110.119 116.142C109.98 116.17 109.779 116.166 109.722 116.252C109.506 116.575 109.332 116.928 109.356 117.354L109.477 117.387L113.43 117.484L114.223 117.481C115.591 117.465 116.961 117.492 118.327 117.422C119.806 117.348 121.195 116.909 122.479 116.154C123.846 115.349 124.898 114.288 125.272 112.692C125.512 111.673 125.513 110.648 125.106 109.664ZM115.063 100.483C115.069 100.05 115.26 99.8621 115.69 99.8511C116.749 99.8221 117.801 99.8281 118.823 100.193C120.145 100.665 120.958 101.805 120.943 103.198C120.936 103.733 120.944 104.263 120.747 104.777C120.358 105.789 119.612 106.323 118.554 106.427C118.002 106.483 117.445 106.489 116.953 106.515L115.311 106.443C115.093 106.435 114.998 106.339 114.999 106.115L115.063 100.483ZM121.869 113.977C121.34 115.128 120.376 115.733 119.169 115.943C118.207 116.108 117.221 116.065 116.277 115.816C115.571 115.635 115.283 115.068 115.142 114.439C115.047 114.018 115.063 113.517 115.055 113.079C115.042 112.403 115.052 111 115.052 111H115.038C115.038 110 115.041 109.134 115.035 108.175C115.034 107.968 115.069 107.865 115.322 107.873C116.22 107.9 117.121 107.915 118.019 107.95C118.822 107.981 119.574 108.219 120.281 108.6C121.357 109.18 122.005 110.068 122.183 111.288C122.319 112.213 122.261 113.123 121.869 113.977ZM23.282 115.055L23.301 109.618C23.304 108.8 23.2 107.998 22.932 107.222C22.193 105.085 20.155 104.112 18.033 104.879C17.068 105.228 16.203 105.757 15.377 106.357C14.896 106.707 14.896 106.707 14.548 106.208C13.563 104.796 12.156 104.313 10.518 104.834C9.45902 105.17 8.53302 105.745 7.65602 106.413C7.57402 106.475 7.40902 106.544 7.36002 106.507C7.27802 106.446 7.22102 106.301 7.22302 106.192L7.28302 105.226C7.28802 105.023 7.24902 104.819 7.22902 104.606C6.83302 104.743 6.51702 104.88 6.18602 104.96C5.16302 105.21 4.13302 105.44 3.10402 105.675C2.85502 105.732 2.59202 105.807 2.56802 106.093C2.54302 106.374 2.81402 106.421 3.02402 106.505C3.46602 106.683 3.90502 106.872 4.34202 107.064C4.70902 107.226 4.84602 107.519 4.84402 107.913C4.83702 109.598 4.84802 111.281 4.83802 112.966C4.83402 113.651 4.80202 114.335 4.77102 115.02C4.74302 115.627 4.53602 115.881 3.94802 116.034C3.63602 116.116 3.31902 116.171 3.00502 116.245C2.93602 116.261 2.81802 116.305 2.81702 116.339C2.80402 116.636 2.78802 116.94 2.83802 117.229C2.84802 117.281 3.16202 117.281 3.33602 117.301L3.45302 117.294C4.66502 117.276 5.87702 117.257 7.09002 117.244C7.73302 117.237 8.37502 117.243 9.07302 117.243L9.14802 116.273C8.74802 116.2 8.39102 116.145 8.03902 116.068C7.49002 115.948 7.25602 115.657 7.24202 115.103L7.23202 114.31C7.22602 112.253 7.21802 110.197 7.21802 108.14C7.21802 107.841 7.34202 107.604 7.60502 107.425C8.16202 107.049 8.75002 106.75 9.40102 106.583C10.773 106.232 11.963 106.72 12.491 107.887C12.658 108.255 12.789 108.662 12.826 109.062C13.02 111.124 12.936 113.188 12.819 115.25C12.794 115.695 12.585 115.919 12.146 116.028L11.114 116.246C11.031 116.267 10.91 116.211 10.904 116.28C10.881 116.565 10.894 117.002 10.894 117.002H11.14L14.282 117.105C15.143 117.103 16.005 117.207 16.865 117.229C17.019 117.232 17.156 117.255 17.165 117.077C17.1749 116.801 17.1712 116.524 17.154 116.248L16.99 116.219L16.105 116.02C15.508 115.879 15.302 115.652 15.3 115.048C15.293 113.559 15.313 112.071 15.3 110.583C15.2924 109.732 15.2607 108.881 15.205 108.032C15.19 107.806 15.225 107.658 15.405 107.531C15.9267 107.15 16.5137 106.867 17.137 106.696C19.072 106.186 20.656 107.247 20.756 109.242C20.854 111.166 20.813 113.097 20.798 115.025C20.793 115.696 20.571 115.899 19.91 116.079L19.682 116.138C19.005 116.3 19.011 116.3 19.051 117.019C19.064 117.244 19.126 117.302 19.366 117.296C20.745 117.265 22.124 117.257 23.503 117.245C24.067 117.24 24.631 117.245 25.245 117.245L25.37 116.309C24.831 116.166 24.334 116.06 23.854 115.903C23.43 115.759 23.28 115.503 23.282 115.055ZM70.771 106.814C71.339 106.287 71.343 105.591 71.184 104.818C70.734 105.289 70.23 105.506 69.655 105.547C68.884 105.602 68.127 105.535 67.409 105.228C65.467 104.394 63.555 104.453 61.649 105.368C60.046 106.136 59.06 107.333 58.961 109.148C58.898 110.311 59.116 111.412 59.892 112.337C60.357 112.891 60.954 113.25 61.627 113.498C61.917 113.605 61.939 113.743 61.696 113.928C61.5166 114.064 61.3307 114.19 61.139 114.308C60.7328 114.563 60.3241 114.815 59.913 115.062C59.672 115.208 59.59 115.394 59.669 115.679C59.9 116.517 60.495 117.001 61.239 117.354L61.51 117.543L61.273 117.78C60.544 118.371 59.786 118.929 59.088 119.556C58.502 120.083 58.313 120.789 58.49 121.568C58.847 123.123 59.878 124.085 61.341 124.527C63.898 125.301 66.299 124.857 68.488 123.342C69.786 122.443 70.717 121.273 71 119.663C71.317 117.854 70.312 116.284 68.513 115.96C67.323 115.744 66.105 115.682 64.901 115.544C64.339 115.48 63.769 115.442 63.222 115.313C62.757 115.203 62.526 114.824 62.569 114.454C62.612 114.09 62.999 113.751 63.442 113.716C64.334 113.644 65.208 113.505 66.03 113.129C68.208 112.133 69.219 110.389 68.966 108.041C68.933 107.725 68.861 107.413 68.796 107.045C69.493 107.162 70.206 107.339 70.771 106.814ZM64.162 117.831C65.048 117.857 66.056 117.912 67.03 118.197C67.887 118.447 68.592 118.885 68.8 119.842C69.051 120.998 68.495 122.148 67.376 122.766C66.328 123.344 65.19 123.392 64.036 123.273C63.048 123.171 62.159 122.829 61.447 122.099C60.509 121.138 60.504 119.808 61.443 118.85C62.282 117.994 62.731 117.817 64.162 117.831ZM66.379 110.869C65.863 112.52 64.361 112.748 63.184 112.22C62.181 111.771 61.744 110.887 61.515 109.878C61.426 109.49 61.405 109.087 61.353 108.69C61.374 108.121 61.468 107.575 61.713 107.063C62.464 105.486 64.309 105.58 65.33 106.294C65.768 106.6 66.073 107.016 66.264 107.509C66.6892 108.582 66.7298 109.769 66.379 110.869ZM57.009 116.132C56.6517 116.077 56.2986 115.999 55.952 115.896C55.344 115.71 55.27 115.596 55.263 114.953C55.245 113.161 55.233 111.369 55.213 109.578C55.203 108.772 55.107 107.977 54.86 107.207C54.21 105.177 52.219 104.087 50.227 104.686C49.123 105.019 48.175 105.638 47.292 106.365L46.97 106.612L46.971 106.281C46.992 105.9 47.033 105.519 47.03 105.138C47.028 104.939 46.952 104.739 46.915 104.564C46.162 104.791 45.487 105.019 44.798 105.193C44.107 105.367 43.402 105.485 42.703 105.627C42.356 105.697 42.101 105.907 42.107 106.146C42.116 106.483 42.395 106.548 42.639 106.649C43.081 106.83 43.522 107.013 43.959 107.207C44.271 107.346 44.398 107.604 44.395 107.939C44.373 110.268 44.359 112.598 44.325 114.928C44.315 115.664 44.129 115.858 43.405 116.02L43.089 116.083C42.419 116.198 42.4 116.225 42.446 116.932L42.45 117.049C42.442 117.321 42.561 117.409 42.841 117.406C44.621 117.385 46.402 117.375 48.182 117.382C48.945 117.385 49.027 117.325 49.011 116.541L48.975 116.204C48.539 116.131 48.122 116.078 47.714 115.988C47.287 115.893 47.134 115.718 47.094 115.284C47.057 114.887 47.045 114.484 47.041 114.084C47.021 112.253 47.005 110.422 46.996 108.592C46.994 108.131 47.079 107.703 47.503 107.406C48.1271 106.96 48.8628 106.696 49.628 106.644C51.216 106.535 52.423 107.476 52.509 109.059C52.615 111.012 52.583 112.972 52.608 114.929C52.61 115.075 52.584 115.222 52.564 115.367C52.526 115.653 52.386 115.868 52.096 115.942C51.813 116.016 51.526 116.082 51.237 116.126C50.806 116.19 50.797 116.187 50.764 116.622L50.775 116.915C50.826 117.421 50.827 117.406 51.339 117.401C53.061 117.387 54.782 117.378 56.503 117.38C57.223 117.382 57.274 117.348 57.28 116.606L57.278 116.43C57.289 116.24 57.204 116.163 57.009 116.132ZM81.061 104.809C79.256 104.368 77.544 104.696 75.918 105.537C74.338 106.354 73.282 107.617 72.88 109.361C72.474 111.124 72.668 112.844 73.447 114.481C73.954 115.544 74.734 116.366 75.796 116.9C78.282 118.152 81.323 117.584 83.273 115.909C84.812 114.588 85.377 112.829 85.411 110.652C85.39 110.434 85.369 110.014 85.311 109.598C84.984 107.228 83.343 105.367 81.061 104.809ZM82.428 113.964C81.949 115.85 80.318 116.688 78.478 116.04C77.539 115.71 76.837 115.079 76.365 114.226C75.279 112.266 75.07 110.182 75.688 108.044C76.1 106.62 77.272 105.841 78.666 105.939C79.912 106.026 80.87 106.624 81.573 107.638C82.314 108.708 82.6 109.925 82.676 111.203C82.689 111.408 82.678 111.613 82.678 111.819L82.766 111.829C82.656 112.542 82.604 113.269 82.428 113.964ZM35.664 104.778C33.765 104.344 31.986 104.773 30.338 105.738C28.913 106.572 27.992 107.818 27.639 109.446C27.308 110.967 27.443 112.462 27.982 113.919C28.31 114.807 28.807 115.588 29.536 116.197C31.071 117.478 32.865 117.802 34.774 117.445C36.39 117.142 37.81 116.424 38.842 115.081C39.808 113.825 40.176 112.383 40.214 110.82C40.157 110.325 40.143 109.821 40.038 109.338C39.516 106.927 38.106 105.335 35.664 104.778ZM37.213 113.958C36.75 115.834 35.093 116.693 33.266 116.045C32.093 115.628 31.329 114.769 30.846 113.668C30.072 111.899 29.914 110.058 30.415 108.192C30.799 106.765 31.956 105.714 33.727 105.966C34.814 106.12 35.662 106.675 36.294 107.558C37.148 108.749 37.429 110.113 37.468 111.546V111.839L37.54 111.85C37.435 112.554 37.383 113.27 37.213 113.958Z" fill="#4FAA41"/>
</svg>
