<svg width="128" height="128" viewBox="0 0 128 128" fill="none" xmlns="http://www.w3.org/2000/svg">
<path fill-rule="evenodd" clip-rule="evenodd" d="M88.0382 42.812C89.6432 47.455 90.7992 52.195 91.1792 57.108C91.6512 63.203 91.4352 69.255 90.1502 75.25C90.1152 75.415 90.0412 75.57 89.9862 75.73C89.5832 75.731 89.1722 75.681 88.7782 75.742C85.4492 76.265 82.1232 76.807 78.7972 77.346C75.3592 77.903 71.9162 78.438 68.4842 79.033C67.2682 79.243 65.7632 78.992 65.2722 80.674C65.2582 80.72 65.1182 80.728 65.0372 80.754L65.2032 70.703L65.0342 46.451L66.6362 46.176C69.2562 45.747 71.8762 45.312 74.4982 44.895C77.6272 44.398 80.7592 43.915 83.8902 43.43C85.2712 43.215 86.6542 43.018 88.0382 42.812Z" fill="#439934"/>
<path fill-rule="evenodd" clip-rule="evenodd" d="M61.7288 110.054C60.0388 108.601 58.2898 107.212 56.6698 105.684C47.9528 97.4619 41.5768 87.7849 38.4368 76.1179C37.5718 72.9069 36.9948 69.6439 36.8098 66.3259C36.6798 64.0039 36.4918 61.6609 36.6558 59.3509C37.0928 53.2069 37.9808 47.1219 39.7828 41.2039L39.8818 41.0659C40.0568 41.2989 40.3088 41.5049 40.3978 41.7679C42.1568 46.9479 43.9028 52.1319 45.6398 57.3189C51.0978 73.6189 56.5488 89.9229 62.0158 106.219C62.1228 106.537 62.3998 106.798 62.5988 107.085L61.7288 110.054Z" fill="#45A538"/>
<path fill-rule="evenodd" clip-rule="evenodd" d="M88.038 42.8118C86.654 43.0178 85.27 43.2148 83.889 43.4278C80.758 43.9128 77.626 44.3958 74.497 44.8928C71.875 45.3098 69.255 45.7448 66.635 46.1738L65.033 46.4488L65.021 45.4038C64.968 44.5448 64.877 43.6868 64.867 42.8278C64.798 37.3498 64.755 31.8718 64.687 26.3938C64.645 22.9648 64.582 19.5368 64.512 16.1088C64.469 13.9788 64.423 11.8478 64.327 9.72085C64.275 8.57785 64.091 7.44085 64.016 6.29785C63.974 5.64085 64.032 4.97885 64.045 4.31885C64.862 5.90185 65.661 7.49685 66.501 9.06785C67.828 11.5518 69.942 13.3818 71.845 15.3788C79.368 23.2708 84.709 32.4468 88.038 42.8118Z" fill="#46A037"/>
<path fill-rule="evenodd" clip-rule="evenodd" d="M65.0359 80.7532C65.1169 80.7272 65.2579 80.7192 65.2709 80.6732C65.7619 78.9912 67.2669 79.2422 68.4829 79.0322C71.9149 78.4382 75.3579 77.9022 78.7959 77.3452C82.1219 76.8062 85.4479 76.2642 88.7769 75.7412C89.1709 75.6792 89.5819 75.7302 89.9849 75.7292C89.3629 77.9492 88.8729 80.2172 88.0839 82.3762C87.1879 84.8252 86.1039 87.2152 84.9529 89.5582C83.2298 93.0529 81.0972 96.3303 78.5999 99.3212C76.6809 101.629 74.5419 103.762 72.3979 105.869C71.2129 107.034 69.8159 107.983 68.5159 109.03L68.1789 108.8L66.9649 107.762L65.7089 105.009C64.851 101.798 64.383 98.4946 64.3149 95.1712L64.3379 94.6102L64.5089 92.1842C64.5659 91.3562 64.6419 90.5292 64.6769 89.6992C64.8059 86.7172 64.9179 83.7352 65.0359 80.7532Z" fill="#409433"/>
<path fill-rule="evenodd" clip-rule="evenodd" d="M65.0358 80.7531C64.9178 83.7351 64.8058 86.7171 64.6788 89.7001C64.6438 90.5301 64.5678 91.3571 64.5108 92.1851L63.7458 92.4741C62.0468 87.4721 60.3468 82.5231 58.6838 77.5611C55.9338 69.3521 53.2168 61.1301 50.4708 52.9191C48.2529 46.2916 46.0196 39.6692 43.7708 33.0521C43.6658 32.7421 43.3638 32.5001 43.1538 32.2261L48.0498 23.2241C48.2178 23.5161 48.4398 23.7891 48.5458 24.1031C50.8133 30.8052 53.0693 37.5112 55.3138 44.2211C58.2298 52.9511 61.1278 61.6881 64.0418 70.4191C64.1578 70.7681 64.3498 71.0901 64.5328 71.4811L65.2028 70.7011L65.0358 80.7531Z" fill="#4FAA41"/>
<path fill-rule="evenodd" clip-rule="evenodd" d="M43.1548 32.2271C43.3648 32.5011 43.6658 32.7431 43.7718 33.0531C46.0206 39.6702 48.2539 46.2925 50.4718 52.92C53.2178 61.131 55.9348 69.353 58.6848 77.562C60.3468 82.523 62.0468 87.473 63.7468 92.475L64.5118 92.186L64.3408 94.612L64.1858 95.171C63.9198 97.827 63.6958 100.489 63.3718 103.139C63.2088 104.467 62.8628 105.771 62.5998 107.086C62.4018 106.799 62.1238 106.538 62.0168 106.22C56.5498 89.923 51.0988 73.62 45.6408 57.32C43.9044 52.1327 42.1571 46.949 40.3988 41.7691C40.3098 41.5061 40.0588 41.3001 39.8828 41.0671L43.1548 32.2271Z" fill="#4AA73C"/>
<path fill-rule="evenodd" clip-rule="evenodd" d="M65.2018 70.7018L64.5318 71.4818C64.3488 71.0908 64.1568 70.7678 64.0408 70.4198C61.1278 61.6888 58.2288 52.9518 55.3128 44.2218C53.0684 37.5119 50.8124 30.8059 48.5448 24.1038C48.4398 23.7898 48.2178 23.5158 48.0488 23.2248L54.1038 15.2598C54.2948 15.5148 54.5668 15.7418 54.6658 16.0288C56.3468 20.9498 58.0128 25.8768 59.6688 30.8068C61.2158 35.4108 62.7398 40.0218 64.3048 44.6198C64.4098 44.9278 64.7748 45.1458 65.0188 45.4058L65.0308 46.4508C65.0888 54.5328 65.1458 62.6178 65.2018 70.7018Z" fill="#57AE47"/>
<path fill-rule="evenodd" clip-rule="evenodd" d="M65.021 45.4042C64.777 45.1442 64.412 44.9262 64.307 44.6182C62.742 40.0202 61.218 35.4092 59.671 30.8052C58.015 25.8752 56.349 20.9492 54.668 16.0272C54.569 15.7402 54.297 15.5132 54.106 15.2582C56.075 13.3302 57.983 11.3332 60.031 9.49421C61.852 7.86021 63.316 6.10821 63.383 3.52621C63.386 3.41921 63.442 3.31221 63.528 3.01221L64.047 4.31821C64.034 4.97921 63.975 5.64021 64.018 6.29721C64.093 7.44021 64.277 8.57721 64.329 9.72021C64.425 11.8472 64.471 13.9782 64.514 16.1082C64.583 19.5362 64.646 22.9642 64.689 26.3932C64.756 31.8712 64.8 37.3492 64.869 42.8272C64.877 43.6882 64.967 44.5452 65.021 45.4042Z" fill="#60B24F"/>
<path fill-rule="evenodd" clip-rule="evenodd" d="M62.598 107.085C62.861 105.77 63.207 104.465 63.37 103.138C63.695 100.489 63.918 97.8262 64.184 95.1702L64.25 95.1602L64.316 95.1712C64.3841 98.4946 64.8521 101.798 65.71 105.009C65.534 105.241 65.285 105.448 65.192 105.71C64.465 107.76 63.78 109.826 63.049 111.876C62.949 112.156 62.671 112.374 62.475 112.62L61.728 110.054L62.598 107.085Z" fill="#A9AA88"/>
<path fill-rule="evenodd" clip-rule="evenodd" d="M62.4761 112.621C62.6721 112.375 62.9511 112.157 63.0501 111.877C63.7811 109.827 64.4671 107.762 65.1931 105.711C65.2861 105.449 65.5341 105.242 65.7111 105.01L66.9661 107.764C66.7181 108.116 66.3761 108.433 66.2381 108.825L63.8341 115.884C63.7351 116.167 63.3971 116.367 63.1711 116.606L62.4761 112.621Z" fill="#B6B598"/>
<path fill-rule="evenodd" clip-rule="evenodd" d="M63.1709 116.605C63.3979 116.367 63.7349 116.166 63.8339 115.883L66.2379 108.824C66.3749 108.433 66.7179 108.115 66.9659 107.763L68.1809 108.8C67.5939 109.38 67.2679 110.05 67.4639 110.897L67.0949 112.105C66.9269 112.312 66.6839 112.492 66.6009 112.729C65.7619 115.132 64.9609 117.548 64.1159 119.951C64.0089 120.256 63.7119 120.495 63.5019 120.763C63.3929 119.376 63.2819 117.992 63.1709 116.605Z" fill="#C2C1A7"/>
<path fill-rule="evenodd" clip-rule="evenodd" d="M63.5028 120.763C63.7118 120.494 64.0088 120.255 64.1168 119.951C64.9618 117.549 65.7628 115.133 66.6018 112.729C66.6848 112.493 66.9268 112.312 67.0958 112.105L66.5868 117.65C66.4508 117.807 66.2538 117.944 66.1888 118.127C65.6138 119.741 65.0718 121.367 64.4948 122.981C64.3758 123.314 64.1478 123.608 63.9698 123.919C63.8118 123.712 63.5288 123.512 63.5158 123.296C63.4648 122.455 63.4998 121.608 63.5028 120.763Z" fill="#CECDB7"/>
<path fill-rule="evenodd" clip-rule="evenodd" d="M63.9692 123.919C64.1472 123.607 64.3752 123.313 64.4942 122.981C65.0722 121.368 65.6132 119.742 66.1882 118.127C66.2532 117.944 66.4512 117.808 66.5862 117.65L66.5982 121.29L65.3802 124.414L63.9692 123.919Z" fill="#DBDAC7"/>
<path fill-rule="evenodd" clip-rule="evenodd" d="M65.3799 124.415L66.5979 121.291L66.8489 124.987L65.3799 124.415Z" fill="#EBE9DC"/>
<path fill-rule="evenodd" clip-rule="evenodd" d="M67.4639 110.898C67.2679 110.051 67.5929 109.38 68.1809 108.801L68.5179 109.031L67.4639 110.898Z" fill="#CECDB7"/>
<path fill-rule="evenodd" clip-rule="evenodd" d="M64.3161 95.1718L64.2501 95.1608L64.1841 95.1708L64.3391 94.6118L64.3161 95.1718Z" fill="#4FAA41"/>
</svg>
