<svg width="128" height="128" viewBox="0 0 128 128" fill="none" xmlns="http://www.w3.org/2000/svg">
<path d="M31.2599 79.3609V68.4159C31.2599 66.1119 30.2999 64.9599 28.4279 64.9599C26.5559 64.9599 25.5959 66.1119 25.5959 68.4159V79.3609H19.9789V68.4159C19.9789 66.1119 19.0669 64.9599 17.1949 64.9599C15.3229 64.9599 14.3619 66.1119 14.3619 68.4159V79.3609H8.79492V67.7919C8.79492 65.3919 9.61092 63.6149 11.2909 62.3669C12.7309 61.2629 14.7479 60.7349 17.1959 60.7349C19.7399 60.7349 21.5639 61.3589 22.7639 62.6549C23.7719 61.3589 25.6439 60.7349 28.3799 60.7349C30.8759 60.7349 32.8449 61.2629 34.2849 62.3669C35.9649 63.6149 36.7809 65.3909 36.7809 67.7919V79.4079H31.2599V79.3609Z" fill="url(#paint0_radial_3_7003)"/>
<path d="M47.3892 79.8412C44.5572 79.8412 42.2532 78.9282 40.3812 77.1522C38.5572 75.3762 37.5972 73.0722 37.5972 70.2402C37.5972 67.4072 38.5092 65.1042 40.3812 63.3272C42.2052 61.5512 44.5572 60.6392 47.3892 60.6392C50.2222 60.6392 52.5742 61.5512 54.3982 63.3272C56.2702 65.1032 57.1822 67.4072 57.1822 70.2402C57.1822 73.0722 56.2702 75.3762 54.3982 77.1522C52.5262 78.9292 50.1732 79.8412 47.3892 79.8412ZM47.3892 65.1042C46.0452 65.1042 44.9892 65.6322 44.2692 66.6402C43.5492 67.6482 43.1652 68.8482 43.1652 70.2882C43.1652 71.6812 43.5012 72.8802 44.1732 73.8402C44.9412 74.9442 45.9982 75.4722 47.3412 75.4722C48.6852 75.4722 49.7412 74.9442 50.5092 73.8402C51.2292 72.8802 51.5652 71.6802 51.5652 70.2882C51.5652 68.8962 51.2292 67.6962 50.5572 66.7362C49.8372 65.6322 48.7332 65.1042 47.3892 65.1042Z" fill="url(#paint1_radial_3_7003)"/>
<path d="M67.5498 79.8412C64.7178 79.8412 62.4138 78.9282 60.5418 77.1522C58.7178 75.3762 57.7578 73.0722 57.7578 70.2402C57.7578 67.4072 58.6698 65.1042 60.5418 63.3272C62.3658 61.5512 64.7178 60.6392 67.5498 60.6392C70.3828 60.6392 72.7348 61.5512 74.5588 63.3272C76.4308 65.1032 77.3428 67.4072 77.3428 70.2402C77.3428 73.0722 76.4308 75.3762 74.5588 77.1522C72.6868 78.9292 70.3338 79.8412 67.5498 79.8412ZM67.5498 65.1042C66.2058 65.1042 65.1498 65.6322 64.4298 66.6402C63.7098 67.6482 63.3258 68.8482 63.3258 70.2882C63.3258 71.6812 63.6618 72.8802 64.3338 73.8402C65.1028 74.9442 66.1588 75.4722 67.5018 75.4722C68.8458 75.4722 69.9018 74.9442 70.6698 73.8402C71.3898 72.8802 71.7258 71.6802 71.7258 70.2882C71.7258 68.8962 71.3898 67.6962 70.7178 66.7362C69.9988 65.6322 68.8948 65.1042 67.5498 65.1042Z" fill="url(#paint2_radial_3_7003)"/>
<path d="M92.416 79.313V77.489C91.936 78.161 91.072 78.689 89.872 79.073C88.903 79.4261 87.8792 79.6048 86.848 79.601C84.208 79.601 82.048 78.689 80.463 76.865C78.831 75.041 78.063 72.785 78.063 70.096C78.063 67.456 78.831 65.2 80.416 63.424C82 61.648 84.112 60.736 86.704 60.736C89.68 60.736 91.552 61.552 92.416 63.136V48.063H97.84V79.313H92.416ZM92.416 68.944C92.416 67.936 91.936 66.976 90.976 66.064C90.016 65.152 89.056 64.672 88.048 64.672C86.608 64.672 85.504 65.248 84.64 66.4C83.92 67.407 83.536 68.704 83.536 70.192C83.536 71.632 83.92 72.88 84.64 73.937C85.456 75.137 86.608 75.713 88.048 75.713C88.912 75.713 89.824 75.329 90.88 74.513C91.888 73.697 92.416 72.881 92.416 72.017V68.944Z" fill="url(#paint3_radial_3_7003)"/>
<path d="M99.8091 79.313V48.063H105.376V79.313H99.8091Z" fill="url(#paint4_radial_3_7003)"/>
<path d="M112.049 71.92C112.289 73.072 112.865 74.032 113.729 74.848C114.642 75.664 115.602 76.096 116.706 76.096C117.474 76.096 118.29 75.904 119.202 75.52C120.306 75.04 120.834 74.512 120.834 73.888L126.69 73.84C125.875 75.808 124.435 77.344 122.467 78.401C120.594 79.409 118.577 79.937 116.322 79.937C113.489 79.937 111.089 79.025 109.218 77.297C107.346 75.521 106.386 73.216 106.386 70.336C106.386 67.36 107.345 65.056 109.218 63.28C111.09 61.552 113.537 60.688 116.514 60.688C119.778 60.688 122.323 61.744 124.147 63.905C125.827 65.873 126.69 68.561 126.69 71.921H112.049V71.92ZM121.169 68.464C120.929 67.264 120.449 66.304 119.681 65.536C118.816 64.72 117.809 64.288 116.705 64.288C115.553 64.288 114.593 64.673 113.776 65.488C113.008 66.304 112.48 67.264 112.193 68.464H121.169Z" fill="url(#paint5_radial_3_7003)"/>
<path d="M9.32307 63.5199L8.74707 66.3999C14.0271 68.1749 19.0191 66.4469 21.6601 61.8389C17.7711 59.1519 14.1711 61.8879 9.32307 63.5199Z" fill="#58595B"/>
<path d="M9.32292 62.7999L8.79492 66.0639C13.8349 67.7929 18.7799 66.3039 21.4199 61.7919C18.0589 57.9029 14.3149 61.1199 9.32292 62.7999Z" fill="url(#paint6_linear_3_7003)"/>
<path d="M15.3241 64.0962C13.0201 63.6162 10.5231 64.8162 8.7951 66.0642C7.6911 58.0002 12.6841 58.1912 19.2111 60.2082C18.7791 62.1762 18.0591 64.8162 16.8111 66.4012C16.7641 65.3442 16.2841 64.6242 15.3241 64.0962Z" fill="url(#paint7_linear_3_7003)"/>
<path d="M1.88281 62.8002C10.3308 57.7112 15.0838 56.7512 24.9238 55.7432C13.4988 64.7682 13.2108 62.8002 1.88281 62.8002Z" fill="url(#paint8_linear_3_7003)"/>
<path d="M24.9241 55.792L15.8511 62.368" stroke="#4A4A4C" stroke-width="0.5"/>
<path opacity="0.23" d="M14.123 59.2948C13.979 58.2878 14.219 60.3518 14.123 59.2948V59.2948Z" fill="#231F20"/>
<path d="M1.88281 62.8002L15.8508 62.3682" stroke="#A8ABAD" stroke-width="0.5"/>
<path d="M13.2589 59.3921C10.8589 60.0641 2.98691 61.7921 2.88991 62.8011C2.64991 64.6731 2.84291 67.6491 2.84291 67.6491" stroke="#F16922" stroke-width="0.5"/>
<path d="M3.56316 74.8012C2.69916 72.6412 1.64316 70.2402 2.89016 67.2642C3.70716 70.0482 3.56316 72.1612 3.56316 74.8012Z" fill="#F16922"/>
<path d="M13.2814 59.0934C13.2458 58.9935 13.055 58.9703 12.8552 59.0415C12.6555 59.1128 12.5224 59.2515 12.5581 59.3514C12.5937 59.4513 12.7845 59.4745 12.9842 59.4032C13.184 59.332 13.317 59.1933 13.2814 59.0934Z" fill="#6D6E70"/>
<defs>
<radialGradient id="paint0_radial_3_7003" cx="0" cy="0" r="1" gradientUnits="userSpaceOnUse" gradientTransform="translate(67.6689 71.1489) scale(59.206 59.206)">
<stop stop-color="#FAAF40"/>
<stop offset="0.043" stop-color="#F9A538"/>
<stop offset="0.112" stop-color="#F89D31"/>
<stop offset="0.227" stop-color="#F89A2F"/>
<stop offset="0.528" stop-color="#F7922D"/>
<stop offset="1" stop-color="#F37B28"/>
</radialGradient>
<radialGradient id="paint1_radial_3_7003" cx="0" cy="0" r="1" gradientUnits="userSpaceOnUse" gradientTransform="translate(67.6662 71.1492) scale(59.201 59.201)">
<stop stop-color="#FAAF40"/>
<stop offset="0.043" stop-color="#F9A538"/>
<stop offset="0.112" stop-color="#F89D31"/>
<stop offset="0.227" stop-color="#F89A2F"/>
<stop offset="0.528" stop-color="#F7922D"/>
<stop offset="1" stop-color="#F37B28"/>
</radialGradient>
<radialGradient id="paint2_radial_3_7003" cx="0" cy="0" r="1" gradientUnits="userSpaceOnUse" gradientTransform="translate(67.6678 71.1492) scale(59.204 59.204)">
<stop stop-color="#FAAF40"/>
<stop offset="0.043" stop-color="#F9A538"/>
<stop offset="0.112" stop-color="#F89D31"/>
<stop offset="0.227" stop-color="#F89A2F"/>
<stop offset="0.528" stop-color="#F7922D"/>
<stop offset="1" stop-color="#F37B28"/>
</radialGradient>
<radialGradient id="paint3_radial_3_7003" cx="0" cy="0" r="1" gradientUnits="userSpaceOnUse" gradientTransform="translate(67.667 71.149) scale(59.205 59.205)">
<stop stop-color="#FAAF40"/>
<stop offset="0.043" stop-color="#F9A538"/>
<stop offset="0.112" stop-color="#F89D31"/>
<stop offset="0.227" stop-color="#F89A2F"/>
<stop offset="0.528" stop-color="#F7922D"/>
<stop offset="1" stop-color="#F37B28"/>
</radialGradient>
<radialGradient id="paint4_radial_3_7003" cx="0" cy="0" r="1" gradientUnits="userSpaceOnUse" gradientTransform="translate(67.6661 71.148) scale(59.205 59.205)">
<stop stop-color="#FAAF40"/>
<stop offset="0.043" stop-color="#F9A538"/>
<stop offset="0.112" stop-color="#F89D31"/>
<stop offset="0.227" stop-color="#F89A2F"/>
<stop offset="0.528" stop-color="#F7922D"/>
<stop offset="1" stop-color="#F37B28"/>
</radialGradient>
<radialGradient id="paint5_radial_3_7003" cx="0" cy="0" r="1" gradientUnits="userSpaceOnUse" gradientTransform="translate(67.6692 71.149) scale(59.201 59.201)">
<stop stop-color="#FAAF40"/>
<stop offset="0.043" stop-color="#F9A538"/>
<stop offset="0.112" stop-color="#F89D31"/>
<stop offset="0.227" stop-color="#F89A2F"/>
<stop offset="0.528" stop-color="#F7922D"/>
<stop offset="1" stop-color="#F37B28"/>
</radialGradient>
<linearGradient id="paint6_linear_3_7003" x1="8.79392" y1="63.3569" x2="21.4009" y2="63.3569" gradientUnits="userSpaceOnUse">
<stop stop-color="#929497"/>
<stop offset="0.124" stop-color="#757578"/>
<stop offset="0.279" stop-color="#575658"/>
<stop offset="0.44" stop-color="#403E3F"/>
<stop offset="0.609" stop-color="#302D2E"/>
<stop offset="0.788" stop-color="#262223"/>
<stop offset="1" stop-color="#231F20"/>
</linearGradient>
<linearGradient id="paint7_linear_3_7003" x1="11.2131" y1="59.1512" x2="16.4481" y2="66.6262" gradientUnits="userSpaceOnUse">
<stop stop-color="#231F20"/>
<stop offset="1" stop-color="#231F20" stop-opacity="0"/>
</linearGradient>
<linearGradient id="paint8_linear_3_7003" x1="1.88181" y1="59.3632" x2="24.9228" y2="59.3632" gradientUnits="userSpaceOnUse">
<stop stop-color="#929497"/>
<stop offset="0.124" stop-color="#757578"/>
<stop offset="0.279" stop-color="#575658"/>
<stop offset="0.44" stop-color="#403E3F"/>
<stop offset="0.609" stop-color="#302D2E"/>
<stop offset="0.788" stop-color="#262223"/>
<stop offset="1" stop-color="#231F20"/>
</linearGradient>
</defs>
</svg>
