<svg width="128" height="128" viewBox="0 0 128 128" fill="none" xmlns="http://www.w3.org/2000/svg">
<path d="M116.659 45.0611C111.584 41.1661 104.373 39.3071 95.5722 39.3071C85.9242 39.3071 79.1892 41.5061 75.6332 46.0771C74.0072 44.3171 71.9742 42.9151 69.6702 41.8481C67.2262 39.3691 64.6892 37.8621 62.0962 37.1311C67.8502 33.4361 74.5932 28.4471 83.1322 21.7051C48.4382 25.2601 31.6732 28.6451 1.88721 46.5861C3.10621 46.5861 4.28321 46.5921 5.43321 46.6061C4.72221 52.1781 5.09221 60.4891 5.22521 62.9481C1.23421 73.1451 4.81921 81.4361 7.80421 88.8931C7.80421 79.9141 8.24421 72.6491 5.69521 63.3361L25.9452 47.2851C25.6192 50.3101 25.6682 53.8401 26.2502 58.0921L26.3132 58.1131L26.0812 59.2751L26.9992 59.4371C26.7722 60.9431 27.0002 62.5101 27.0002 64.1861V106H45.0002V66.3831C45.0002 64.4011 45.6502 62.6641 46.0532 61.1661C48.8182 60.7011 51.6932 59.9101 54.2202 58.8281L54.4022 59.2751C54.5642 59.0721 54.7592 58.8281 54.9172 58.6151C56.9512 57.7071 59.0832 56.6011 60.9182 55.2991C64.1782 56.9861 66.0002 60.6541 66.0002 66.3831V106H87.0002V66.3831C87.0002 58.2601 89.4002 54.2011 96.0002 54.2011C102.6 54.2011 105 58.2601 105 66.3831V106H126V64.1861C126 55.7231 122.581 49.4611 116.659 45.0611Z" fill="#F7931E"/>
</svg>
