<svg width="128" height="128" viewBox="0 0 128 128" fill="none" xmlns="http://www.w3.org/2000/svg">
<path d="M34.3948 65.632C32.9548 64.528 30.9308 64 28.4348 64C25.6988 64 23.7998 64.624 22.7908 65.92C22.3126 65.414 21.7398 65.0066 21.1048 64.721C20.4118 64.017 19.6938 63.589 18.9588 63.383C20.5908 62.335 22.5048 60.92 24.9268 59.008C15.0868 60.016 10.3318 60.976 1.88379 66.065L2.88979 66.07C2.68779 67.651 2.79279 70.008 2.83079 70.705C1.69879 73.598 2.71579 75.949 3.56179 78.065C3.56179 75.518 3.68679 73.457 2.96379 70.815L8.70779 66.262C8.61579 67.12 8.62879 68.121 8.79379 69.327L8.81179 69.332L8.74579 69.663L9.00179 69.708C8.93879 70.137 8.99979 70.581 8.99979 71.057V83H13.9998V71.68C13.9998 71.117 14.2408 70.625 14.3548 70.2C15.1388 70.068 15.9828 69.844 16.6998 69.537L16.7658 69.664L16.9188 69.476C17.5049 69.2175 18.0645 68.9027 18.5898 68.536C19.5148 69.015 19.9998 70.055 19.9998 71.68V83H25.9998V71.68C25.9998 69.376 26.6278 68.224 28.4998 68.224C30.3718 68.224 30.9998 69.376 30.9998 71.68V83H36.9998V71.057C36.9998 68.656 36.0748 66.88 34.3948 65.632ZM47.3898 63.904C44.5578 63.904 42.2058 64.816 40.3818 66.592C38.5098 68.368 37.5978 70.672 37.5978 73.505C37.5978 76.337 38.5578 78.641 40.3818 80.417C42.2538 82.193 44.5578 83.106 47.3898 83.106C50.1738 83.106 52.5268 82.193 54.3988 80.417C56.2708 78.641 57.1818 76.337 57.1818 73.505C57.1818 70.672 56.2708 68.369 54.3988 66.592C52.5738 64.816 50.2228 63.904 47.3898 63.904ZM50.5098 77.104C49.7418 78.208 48.6858 78.736 47.3418 78.736C45.9978 78.736 44.9418 78.208 44.1738 77.104C43.5018 76.144 43.1658 74.944 43.1658 73.552C43.1658 72.112 43.5498 70.912 44.2698 69.904C44.9898 68.896 46.0458 68.368 47.3898 68.368C48.7338 68.368 49.8378 68.896 50.5588 70C51.2308 70.96 51.5668 72.161 51.5668 73.552C51.5658 74.945 51.2298 76.145 50.5098 77.104ZM67.5508 63.904C64.7188 63.904 62.3668 64.816 60.5428 66.592C58.6698 68.368 57.7578 70.672 57.7578 73.505C57.7578 76.337 58.7188 78.641 60.5428 80.417C62.4138 82.193 64.7188 83.106 67.5508 83.106C70.3348 83.106 72.6878 82.193 74.5588 80.417C76.4318 78.641 77.3438 76.337 77.3438 73.505C77.3438 70.672 76.4318 68.369 74.5588 66.592C72.7348 64.816 70.3828 63.904 67.5508 63.904ZM70.6718 77.104C69.9028 78.208 68.8478 78.736 67.5028 78.736C66.1588 78.736 65.1038 78.208 64.3338 77.104C63.6618 76.144 63.3258 74.944 63.3258 73.552C63.3258 72.112 63.7108 70.912 64.4298 69.904C65.1498 68.896 66.2058 68.368 67.5498 68.368C68.8938 68.368 69.9978 68.896 70.7178 70C71.3898 70.96 71.7258 72.161 71.7258 73.552C71.7268 74.945 71.3908 76.145 70.6718 77.104ZM91.9998 66.4C91.9998 64.816 89.4718 64 86.4948 64C83.9028 64 81.8958 64.912 80.3118 66.688C78.7278 68.464 78.0098 70.72 78.0098 73.36C78.0098 76.048 78.8048 78.304 80.4358 80.129C82.0198 81.953 84.1938 82.865 86.8338 82.865C87.7948 82.865 88.6008 82.721 89.6548 82.337C90.8568 81.953 91.9998 81.425 91.9998 80.753V83H97.9998V51H91.9998V66.4ZM91.9998 75.281C91.9998 76.145 91.6808 76.961 90.6728 77.777C89.6158 78.593 88.8088 78.977 87.9448 78.977C86.5038 78.977 85.4028 78.401 84.5888 77.201C83.8678 76.145 83.5088 74.897 83.5088 73.456C83.5088 71.968 83.9068 70.672 84.6278 69.664C85.4908 68.512 86.6008 67.936 88.0418 67.936C89.0498 67.936 89.8048 68.416 90.7658 69.328C91.7248 70.24 91.9998 71.2 91.9998 72.208V75.281ZM99.9998 51H105V83H99.9998V51ZM119.201 78.785C118.289 79.169 117.472 79.361 116.705 79.361C115.601 79.361 114.642 78.837 113.728 78.021C112.865 77.205 112.289 76 112.048 75H126.689C126.689 72 125.826 69.044 124.146 67.076C122.322 64.915 119.777 63.905 116.513 63.905C113.536 63.905 111.087 64.793 109.216 66.521C107.345 68.297 106.384 70.612 106.384 73.588C106.384 76.468 107.345 78.778 109.216 80.555C111.087 82.283 113.487 83.198 116.321 83.198C118.575 83.198 120.592 82.671 122.466 81.663C124.433 80.607 125.874 79.072 126.689 77.103L120.834 77.151C120.834 77.776 120.307 78.305 119.201 78.785ZM113.777 68.888C114.593 68.073 115.552 67.62 116.705 67.62C117.81 67.62 118.816 68.154 119.682 68.97C120.45 69.738 120.93 71 121.17 72H112.193C112.48 71 113.01 69.704 113.777 68.888Z" fill="#F7931E"/>
</svg>
