<svg width="128" height="128" viewBox="0 0 128 128" fill="none" xmlns="http://www.w3.org/2000/svg">
<path d="M80.4262 114.348V117.762H100.906V114.348H80.4262ZM77.0122 107.52H73.6022V110.934H77.0122V107.52ZM80.4262 114.348V110.934H77.0122V114.348H80.4262ZM73.6022 104.106H70.1882V107.52H73.6022V104.106ZM80.4262 90.4542V93.8681H83.8401V90.4542H80.4262ZM90.6682 93.8681V90.4542H87.2542V93.8681H83.8401V97.2822H97.4922V93.8681H90.6682ZM97.4922 90.4542V93.8681H100.906V90.4542H97.4922ZM107.734 110.934H111.148V107.52H107.734V110.934ZM107.734 114.348V110.934H100.906V114.348H107.734ZM66.7732 114.348H53.1212V117.762H77.0122V114.348H66.7732ZM46.2932 117.762V114.348H15.5742V117.762H46.2932ZM56.5352 104.106V100.692H49.7072V110.934H46.2932V114.348H53.1212V104.106H56.5352ZM32.6412 46.0782H36.0552V39.2542H32.6412V46.0782ZM39.4652 73.3872V66.5592H36.0552V69.9732H25.8132V97.2822H46.2932V93.8681H42.8792V90.4542H39.4652V93.8681H29.2272V73.3882H36.0552V90.4542H39.4652V73.3872ZM49.7072 69.9732V87.0392H46.2932V93.8672H49.7072V90.4532H53.1212V66.5592H49.7072V69.9732ZM49.7072 56.3212V52.9072H46.2932V56.3212H49.7072ZM42.8792 56.3212V59.7352H46.2932V56.3202H42.8792M42.8792 63.1482V59.7342H39.4652V66.5582H42.8792V63.1482ZM29.2272 11.9452V18.7732H32.6412V11.9452H29.2272ZM18.9892 11.9452H29.2272V8.53516H15.5742V49.4922H12.1602V114.347H15.5742V52.9062H46.2932V46.0782H42.8792V49.4922H39.4652V46.0782H36.0552V49.4922H29.2272V39.2542H32.6412V32.4262H29.2272V29.0122H25.8132V49.4922H18.9892V11.9452ZM36.0552 25.6012V18.7732H32.6412V25.6012H36.0552ZM42.8792 32.4252H46.2932V25.6012H42.8792V32.4252ZM49.7072 39.2532H46.2932V46.0772H49.7072V39.2532ZM39.4652 32.4252V39.2532H42.8792V32.4252H39.4652ZM36.0552 25.6012V32.4252H39.4652V25.6012H36.0552ZM49.7072 18.7732H46.2932V25.6012H49.7072V18.7732ZM53.1212 18.7732V11.9452H49.7072V18.7732H53.1212ZM114.559 83.6252H111.149V107.52H114.559V83.6252ZM107.735 80.2151V83.6252H111.149V80.2151H107.735ZM107.735 59.7352H111.149V56.3202H107.735V59.7342M111.149 59.7342V69.9722H114.559V59.7342H111.149ZM100.907 76.8002V80.2142H107.735V76.8002H100.907ZM97.4931 69.9722H100.907V66.5582H97.4931V69.9722ZM100.907 69.9722V73.3862H111.149V69.9722H100.907ZM70.1882 76.8002V59.7342H66.7742V69.9722H63.3602V63.1482H53.1212V66.5582H59.9452V93.8672H56.5352V100.691H59.9452V97.2812H66.7732V104.105H70.1872V90.4532H66.7732V93.8672H63.3592V73.3872H66.7732V76.8012H70.1872M73.6012 80.2151V76.8012H70.1872V80.2151H73.6012ZM80.4252 66.5592H90.6672V90.4542H97.4911V87.0402H94.0772V76.8012H100.905V73.3872H94.0772V66.5592H97.4911V63.1492H80.4262V66.5592M80.4262 73.3872V66.5592H77.0122V80.2151H73.6022V83.6252H77.0122V87.0392H70.1882V90.4532H80.4262V73.3872ZM70.1882 52.9072H73.6022V49.4932H66.7742V8.53516H53.1212V11.9452H63.3592V49.4922H56.5352V29.0122H53.1212V32.4262H49.7072V39.2542H53.1212V49.4922H49.7072V52.9062H70.1872M73.6012 56.3202H70.1872V59.7342H73.6012V56.3202ZM73.6012 56.3202H77.0112V52.9062H73.6012V56.3202ZM77.0112 46.0782H73.6012V49.4922H77.0112V46.0782ZM100.906 52.9062V56.3202H107.734V52.9062H100.906ZM100.906 49.4922H77.0122V52.9062H100.907V49.4922M100.907 46.0782V49.4922H104.321V46.0782H100.907ZM97.4931 39.2542H94.0792V42.6682H97.4931V39.2542ZM97.4931 32.4262H100.907V29.0122H94.0792V32.4262H97.4931ZM90.6692 39.2542H94.0792V35.8402H90.6692V39.2542ZM80.4272 39.2542V35.8402H70.1882V46.0782H73.6022V39.2542H80.4262M83.8401 39.2542H80.4262V46.0782H94.0782V42.6682H83.8401V39.2542ZM80.4262 32.4262V35.8402H90.6682V32.4262H80.4262ZM77.0122 29.0122H73.6022V32.4262H80.4262V29.0122H77.0122ZM83.8401 25.6022V29.0122H94.0782V25.6022H83.8401ZM83.8401 18.7742H80.4262V25.6022H83.8401V18.7742ZM73.6022 15.3602H70.1882V29.0122H73.6022V15.3592M73.6022 11.9452V15.3592H80.4262V11.9452H73.6022ZM94.0792 11.9452H97.4931V8.53516H80.4262V11.9452H94.0782M94.0782 18.7732V15.3592H83.8401V18.7732H94.0782ZM104.32 35.8402V32.4262H100.906V35.8402H104.32ZM107.734 35.8402H104.32V46.0782H107.734V35.8402ZM104.32 15.3602V11.9462H97.4922V15.3602H104.32ZM107.734 15.3602H104.32V22.1882H97.4922V18.7742H94.0782V25.6022H107.734V15.3602Z" fill="black"/>
</svg>
