<svg width="128" height="128" viewBox="0 0 128 128" fill="none" xmlns="http://www.w3.org/2000/svg">
<path fill-rule="evenodd" clip-rule="evenodd" d="M79.4351 38.8059V41.8219H82.5441V44.7439H91.4971V42.1969H88.4811V38.8059H79.4351ZM91.4981 29.0989V23.4429H82.5491V29.0989H91.4981Z" fill="#8C8F8F"/>
<path fill-rule="evenodd" clip-rule="evenodd" d="M94.611 14.0171H79.435V17.0371H73.119V20.3341H70.103V32.3971H73.119V35.4131H79.435V38.4291H88.861V41.8241H91.877V45.1211H82.17V42.1991H79.06V38.8081H70.107V47.8551H73.123V51.0581H76.42V54.1671H97.815V51.0581H100.924V47.8551H104.225V38.8081H100.924V35.7901H97.815V32.7741H91.499V29.4731H82.171V23.0671H91.878V29.0981H104.226V20.3321H100.925V17.0351H94.613L94.611 14.0171Z" fill="#8C8F8F"/>
<path fill-rule="evenodd" clip-rule="evenodd" d="M79.2478 13.5479H94.9858V16.6569H101.302V19.9539H104.599V29.4739H91.8758V32.3959H98.2858V35.4118H101.302V38.4279H104.599V48.2289H101.302V51.5299H98.2858V54.5459H76.0438V51.5299H72.7468V48.2289H69.7308V38.4279H79.0588V35.7899H72.7468V32.7738H69.7308V19.9579H72.7468V16.6569H79.0598V13.5479H79.2478ZM19.7788 13.5479H32.4078V16.6569H35.7088V23.0669H38.8178V29.0979H41.8338V35.4109H44.6618V29.0979H47.9588V23.0669H50.9748V16.6569H53.9908V13.5479H67.0928V54.5438H53.9898V42.1968H51.3528V48.2279H48.3368V54.5438H38.3448V48.2279H35.3298V42.1968H32.4078V54.5448H19.5908V13.5479H19.7788Z" fill="#8C8F8F"/>
<path fill-rule="evenodd" clip-rule="evenodd" d="M38.3449 73.2981H32.4079V94.8801H41.4549V88.8492H38.3459L38.3449 73.2981ZM66.6179 73.2981H63.7899V91.6772H66.6179V88.4702H69.7269V85.3612H76.0429V82.7242H72.7419V79.7082H69.7259V76.6922H66.6169L66.6179 73.2981ZM94.6099 88.8492H88.8599V91.6772H94.6099V88.8492ZM16.7629 51.0562H48.3369V54.1652H50.9739V51.0562H73.1219V54.1652H76.0439V51.0562H98.2819V54.1652H104.598V57.1812H107.614V60.6692H110.723V70.2822H107.614V73.2981H98.2819V76.2202H104.598V79.3292H107.614V82.3452H110.723V104.493H107.614V107.602H104.598V110.711H98.2819V113.82H79.0599V110.711H76.4189V113.82H53.9899V110.711H48.3379V113.82H16.4819V51.0562H16.7629ZM97.8139 72.9192V70.2822H94.6109V66.8872H91.8769V72.9182L97.8139 72.9192Z" fill="#8C8F8F"/>
<path fill-rule="evenodd" clip-rule="evenodd" d="M60.587 16.8452H63.603V51.2432H60.587V16.8452ZM54.177 29.2862H57.29V32.5832H54.177V29.2862ZM29.205 16.8452H32.221V20.1462H29.205V16.8452ZM32.221 23.2552H35.518V26.1772H32.22L32.221 23.2552ZM35.518 29.2862H38.631V32.5832H35.518V29.2862ZM38.631 35.5992H41.647V38.6152H38.63L38.631 35.5992ZM41.647 42.0092H44.85V44.9312H41.647V42.0092ZM26.189 26.1772V51.2432H29.205V32.5832H32.221V29.2862H29.205V26.1772H26.189Z" fill="#8C8F8F"/>
</svg>
