<svg width="128" height="128" viewBox="0 0 128 128" fill="none" xmlns="http://www.w3.org/2000/svg">
<path d="M80.4262 114.348V117.762H100.906V114.348H80.4262ZM77.0122 107.52H73.6022V110.934H77.0122V107.52ZM80.4262 114.348V110.934H77.0122V114.348H80.4262ZM73.6022 104.106H70.1882V107.52H73.6022V104.106ZM80.4262 90.4542V93.8681H83.8401V90.4542H80.4262ZM90.6682 93.8681V90.4542H87.2542V93.8681H83.8401V97.2822H97.4922V93.8681H90.6682ZM97.4922 90.4542V93.8681H100.906V90.4542H97.4922ZM107.734 110.934H111.148V107.52H107.734V110.934ZM107.734 114.348V110.934H100.906V114.348H107.734ZM66.7732 114.348H53.1212V117.762H77.0122V114.348H66.7732ZM46.2932 117.762V114.348H15.5742V117.762H46.2932ZM56.5352 104.106V100.692H49.7072V110.934H46.2932V114.348H53.1212V104.106H56.5352ZM32.6412 46.0782H36.0552V39.2542H32.6412V46.0782ZM39.4652 73.3872V66.5592H36.0552V69.9732H25.8132V97.2822H46.2932V93.8681H42.8792V90.4542H39.4652V93.8681H29.2272V73.3882H36.0552V90.4542H39.4652V73.3872ZM49.7072 69.9732V87.0392H46.2932V93.8672H49.7072V90.4532H53.1212V66.5592H49.7072V69.9732ZM49.7072 56.3212V52.9072H46.2932V56.3212H49.7072ZM42.8792 56.3212V59.7352H46.2932V56.3202H42.8792M42.8792 63.1482V59.7342H39.4652V66.5582H42.8792V63.1482ZM29.2272 11.9452V18.7732H32.6412V11.9452H29.2272ZM18.9892 11.9452H29.2272V8.53516H15.5742V49.4922H12.1602V114.347H15.5742V52.9062H46.2932V46.0782H42.8792V49.4922H39.4652V46.0782H36.0552V49.4922H29.2272V39.2542H32.6412V32.4262H29.2272V29.0122H25.8132V49.4922H18.9892V11.9452ZM36.0552 25.6012V18.7732H32.6412V25.6012H36.0552ZM42.8792 32.4252H46.2932V25.6012H42.8792V32.4252ZM49.7072 39.2532H46.2932V46.0772H49.7072V39.2532ZM39.4652 32.4252V39.2532H42.8792V32.4252H39.4652ZM36.0552 25.6012V32.4252H39.4652V25.6012H36.0552ZM49.7072 18.7732H46.2932V25.6012H49.7072V18.7732ZM53.1212 18.7732V11.9452H49.7072V18.7732H53.1212ZM114.559 83.6252H111.149V107.52H114.559V83.6252ZM107.735 80.2151V83.6252H111.149V80.2151H107.735ZM107.735 59.7352H111.149V56.3202H107.735V59.7342M111.149 59.7342V69.9722H114.559V59.7342H111.149ZM100.907 76.8002V80.2142H107.735V76.8002H100.907ZM97.4931 69.9722H100.907V66.5582H97.4931V69.9722ZM100.907 69.9722V73.3862H111.149V69.9722H100.907ZM70.1882 76.8002V59.7342H66.7742V69.9722H63.3602V63.1482H53.1212V66.5582H59.9452V93.8672H56.5352V100.691H59.9452V97.2812H66.7732V104.105H70.1872V90.4532H66.7732V93.8672H63.3592V73.3872H66.7732V76.8012H70.1872M73.6012 80.2151V76.8012H70.1872V80.2151H73.6012ZM80.4252 66.5592H90.6672V90.4542H97.4911V87.0402H94.0772V76.8012H100.905V73.3872H94.0772V66.5592H97.4911V63.1492H80.4262V66.5592M80.4262 73.3872V66.5592H77.0122V80.2151H73.6022V83.6252H77.0122V87.0392H70.1882V90.4532H80.4262V73.3872ZM70.1882 52.9072H73.6022V49.4932H66.7742V8.53516H53.1212V11.9452H63.3592V49.4922H56.5352V29.0122H53.1212V32.4262H49.7072V39.2542H53.1212V49.4922H49.7072V52.9062H70.1872M73.6012 56.3202H70.1872V59.7342H73.6012V56.3202ZM73.6012 56.3202H77.0112V52.9062H73.6012V56.3202ZM77.0112 46.0782H73.6012V49.4922H77.0112V46.0782ZM100.906 52.9062V56.3202H107.734V52.9062H100.906ZM100.906 49.4922H77.0122V52.9062H100.907V49.4922M100.907 46.0782V49.4922H104.321V46.0782H100.907ZM97.4931 39.2542H94.0792V42.6682H97.4931V39.2542ZM97.4931 32.4262H100.907V29.0122H94.0792V32.4262H97.4931ZM90.6692 39.2542H94.0792V35.8402H90.6692V39.2542ZM80.4272 39.2542V35.8402H70.1882V46.0782H73.6022V39.2542H80.4262M83.8401 39.2542H80.4262V46.0782H94.0782V42.6682H83.8401V39.2542ZM80.4262 32.4262V35.8402H90.6682V32.4262H80.4262ZM77.0122 29.0122H73.6022V32.4262H80.4262V29.0122H77.0122ZM83.8401 25.6022V29.0122H94.0782V25.6022H83.8401ZM83.8401 18.7742H80.4262V25.6022H83.8401V18.7742ZM73.6022 15.3602H70.1882V29.0122H73.6022V15.3592M73.6022 11.9452V15.3592H80.4262V11.9452H73.6022ZM94.0792 11.9452H97.4931V8.53516H80.4262V11.9452H94.0782M94.0782 18.7732V15.3592H83.8401V18.7732H94.0782ZM104.32 35.8402V32.4262H100.906V35.8402H104.32ZM107.734 35.8402H104.32V46.0782H107.734V35.8402ZM104.32 15.3602V11.9462H97.4922V15.3602H104.32ZM107.734 15.3602H104.32V22.1882H97.4922V18.7742H94.0782V25.6022H107.734V15.3602Z" fill="black"/>
<path d="M70.188 107.52V110.934H73.602V107.52H70.188ZM73.602 114.348H77.012V110.934H73.602V114.348ZM80.426 90.4528H83.84V87.0388H80.426V90.4528ZM53.121 110.933V114.347H56.535V110.933H53.121ZM59.945 107.519H56.535V110.933H59.945V107.519ZM63.359 110.933H66.773V107.519H63.359V110.933ZM66.773 110.933V114.347H70.187V110.933H66.773ZM63.359 114.347V110.933H59.945V114.347H63.359ZM63.359 69.9718H66.773V66.5578H63.359V69.9718ZM46.293 80.2148H49.707V76.8008H46.293V80.2148ZM49.707 83.6248H46.293V87.0388H49.707V83.6248ZM46.293 69.9728V73.3868H49.707V69.9728H46.293ZM80.426 80.2148V83.6248H83.84V80.2148H80.426ZM80.426 69.9728H83.84V66.5588H80.426V69.9728ZM83.84 73.3868H80.426V76.8008H83.84V73.3868ZM70.188 59.7338V56.3198H66.774V59.7338H70.188ZM73.602 56.3198V52.9058H70.188V56.3198H73.602Z" fill="#000080"/>
<path d="M70.188 110.934V114.348H73.602V110.934H70.188ZM53.122 107.52V110.934H56.536V107.52H53.122ZM56.536 114.348H59.946V110.934H56.536V114.348ZM66.774 107.52V110.934H70.188V107.52H66.774ZM63.36 110.934V107.52H59.946V110.934H63.36ZM63.36 110.934V114.348H66.774V110.934H63.36ZM49.707 66.5589H53.121V63.1489H49.707V66.5589ZM46.293 80.2149V83.6249H49.707V80.2149H46.293ZM46.293 69.9729H49.707V66.5589H46.293V69.9729ZM49.707 73.3869H46.293V76.8009H49.707V73.3869ZM66.773 63.1489H63.359V66.5589H66.773V63.1489ZM80.425 80.2149H83.839V76.8009H80.425V80.2149ZM83.839 83.6249H80.425V87.0389H83.839V83.6249ZM80.425 69.9729V73.3869H83.839V69.9729H80.425Z" fill="#800080"/>
<path d="M87.2538 90.4528V87.0388H83.8398V90.4528H87.2538ZM42.8788 87.0388H39.4648V90.4528H42.8788V87.0388ZM46.2928 93.8668V90.4528H42.8788V93.8668H46.2928ZM63.3588 100.691H66.7728V97.2808H63.3588V100.691ZM66.7728 104.105H63.3588V107.519H66.7728V104.105ZM59.9448 100.691V104.105H63.3588V100.691H59.9448ZM59.9448 104.105H56.5348V107.519H59.9448V104.105ZM46.2928 83.6248H42.8788V87.0388H46.2928V83.6248ZM42.8788 76.8008V80.2148H46.2928V76.8008H42.8788ZM39.4648 83.6248H42.8788V80.2148H39.4648V83.6248ZM42.8788 73.3868H39.4648V76.8008H42.8788V73.3868ZM42.8788 66.5588H39.4648V69.9728H42.8788V66.5588ZM46.2928 73.3868V69.9728H42.8788V73.3868H46.2928ZM46.2928 63.1488H42.8788V66.5588H46.2928V63.1488ZM46.2928 59.7348V63.1488H49.7068V59.7348H46.2928ZM66.7728 56.3208H63.3588V59.7348H66.7728V56.3198M53.1208 59.7338V56.3198H49.7068V59.7338H53.1208ZM59.9448 59.7338V63.1478H63.3588V59.7338H59.9448ZM53.1208 59.7338V63.1478H56.5348V59.7338H53.1208ZM56.5348 56.3198V52.9058H53.1208V56.3198H56.5348ZM59.9448 52.9058V56.3198H63.3588V52.9058H59.9448ZM59.9448 56.3198H56.5348V59.7338H59.9448V56.3198ZM90.6678 83.6248H87.2538V87.0388H90.6678V83.6248ZM90.6678 76.8008H87.2538V80.2148H90.6678V76.8008ZM87.2538 73.3868H90.6678V69.9728H87.2538V73.3868ZM83.8398 73.3868V76.8008H87.2538V73.3868H83.8398ZM83.8398 80.2148V83.6248H87.2538V80.2148H83.8398ZM83.8398 66.5588V69.9728H87.2538V66.5588H83.8398ZM70.1878 56.3198V52.9058H66.7738V56.3198H70.1878Z" fill="#FF00FF"/>
<path d="M87.2538 93.8668V90.4528H83.8398V93.8668H87.2538ZM90.6678 87.0388H87.2538V90.4528H90.6678V87.0388ZM66.7728 104.105V107.519H70.1868V104.105H66.7728ZM46.2928 90.4528V87.0388H42.8788V90.4528H46.2928ZM63.3588 104.105H59.9448V107.519H63.3588V104.105ZM63.3588 100.691V104.105H66.7728V100.691H63.3588ZM59.9448 97.2808V100.691H63.3588V97.2808H59.9448ZM56.5348 104.105H53.1208V107.519H56.5348V104.105ZM56.5348 104.105H59.9448V100.691H56.5348V104.105ZM42.8788 76.8008H46.2928V73.3868H42.8788V76.8008ZM42.8788 80.2148V83.6248H46.2928V80.2148H42.8788ZM42.8788 83.6248H39.4648V87.0388H42.8788V83.6248ZM42.8788 76.8008H39.4648V80.2148H42.8788V76.8008ZM39.4648 73.3868H42.8788V69.9728H39.4648V73.3868ZM46.2928 69.9728V66.5588H42.8788V69.9728H46.2928ZM49.7068 63.1488H46.2928V66.5588H49.7068V63.1488ZM49.7068 56.3208H46.2928V59.7348H49.7068V56.3198M42.8788 59.7338V63.1478H46.2928V59.7338H42.8788ZM63.3588 59.7338V63.1478H66.7728V59.7338H63.3588ZM66.7728 56.3198V52.9058H63.3588V56.3198H66.7728ZM59.9448 56.3198V59.7338H63.3588V56.3198H59.9448ZM56.5348 59.7338V56.3198H53.1208V59.7338H56.5348ZM56.5348 59.7338V63.1478H59.9448V59.7338H56.5348ZM53.1208 63.1478V59.7338H49.7068V63.1478H53.1208ZM53.1208 56.3198V52.9058H49.7068V56.3198H53.1208ZM56.5348 56.3198H59.9448V52.9058H56.5348V56.3198ZM87.2538 83.6248H83.8398V87.0388H87.2538V83.6248ZM87.2538 83.6248H90.6678V80.2148H87.2538V83.6248ZM90.6678 73.3868H87.2538V76.8008H90.6678V73.3868ZM90.6678 66.5588H87.2538V69.9728H90.6678V66.5588ZM83.8398 76.8008V80.2148H87.2538V76.8008H83.8398ZM83.8398 69.9728V73.3868H87.2538V69.9728H83.8398Z" fill="#0000FF"/>
<path d="M97.492 90.4529H100.906V87.0389H97.492V90.4529ZM104.32 100.691V104.105H100.906V107.519H83.84V104.105H77.012V100.691H73.602V93.8669H70.188V104.105H73.602V107.519H77.012V110.933H80.426V114.347H100.906V110.933H107.734V107.519H111.148V97.2809H107.734V100.691H104.32ZM97.492 83.6249H94.078V87.0389H97.492V83.6249ZM100.906 66.5589V69.9729H111.148V63.1489H107.734V66.5589H100.906ZM77.012 76.8009H73.602V80.2149H77.012V76.8009ZM73.602 73.3869H70.188V76.8009H73.602V73.3869ZM100.907 63.1489H97.493V66.5589H100.907V63.1489Z" fill="#808000"/>
<path d="M49.7072 104.105H46.2932V107.519H18.9882V110.933H15.5742V114.347H46.2932V110.933H49.7072V104.105ZM56.5352 93.8668H53.1212V100.691H56.5352V93.8668ZM56.5352 93.8668H59.9452V90.4528H56.5352V93.8668ZM42.8792 52.9058V56.3198H46.2932V52.9058H42.8792ZM42.8792 56.3198H39.4652V59.7338H42.8792V56.3198ZM25.8132 63.1478V69.9718H36.0552V66.5578H39.4652V63.1478H25.8132Z" fill="#800000"/>
<path d="M25.8132 69.9728V63.1488H39.4652V56.3198H42.8792V52.9058H15.5742V110.933H18.9882V107.519H46.2932V104.105H49.7072V100.691H53.1212V93.8668H56.5352V90.4528H59.9452V66.5588H53.1212V90.4538H49.7072V93.8678H46.2932V97.2818H25.8132V69.9728Z" fill="#FF0000"/>
<path d="M29.2269 29.0118V25.6018H25.8129V22.1878H22.3989V49.4928H25.8129V29.0128H29.2269M32.6409 18.7748H29.2269V22.1888H32.6409V18.7748ZM25.8129 11.9468V15.3608H29.2269V11.9468H25.8129ZM56.5359 29.0128V25.6028H53.1219V29.0128H56.5359ZM42.8789 39.2538H39.4649V42.6678H42.8789V39.2538ZM39.4649 35.8398V32.4258H36.0549V35.8398H39.4649ZM36.0549 29.0118V25.6018H32.6409V29.0118H36.0549ZM63.3599 11.9458H59.9459V49.4928H63.3599V11.9448M104.321 46.0778V35.8398H100.907V46.0778H104.321ZM100.907 49.4918V46.0778H97.4929V49.4918H100.907ZM100.907 35.8398V32.4258H97.4929V35.8398H100.907ZM94.0789 29.0118H90.6689V32.4258H94.0789V29.0118ZM80.4259 18.7728H77.0119V29.0108H83.8399V25.6008H80.4259V18.7728ZM80.4259 18.7728H83.8399V15.3588H80.4259V18.7728ZM94.0779 11.9448V15.3588H97.4919V11.9448H94.0779ZM104.32 22.1868V15.3588H100.906V22.1868H104.32Z" fill="#808080"/>
<path d="M53.1208 11.9448V18.7728H49.7068V25.6008H46.2928V32.4248H42.8788V42.6668H39.4648V35.8398H36.0548V29.0118H32.6408V22.1878H29.2268V15.3598H25.8128V11.9458H18.9888V49.4928H22.3988V22.1878H25.8128V25.6018H29.2268V32.4258H32.6408V39.2538H36.0548V46.0778H39.4648V49.4918H42.8788V46.0778H46.2928V39.2538H49.7068V32.4258H53.1208V25.6018H56.5348V49.4928H59.9448V11.9448H53.1208ZM80.4258 39.2538H73.6018V46.0778H77.0118V49.4918H97.4918V46.0778H100.906V35.8398H97.4918V32.4258H90.6678V35.8398H94.0778V39.2538H97.4918V42.6678H94.0778V46.0778H80.4258V39.2538ZM83.8398 29.0118H80.4258V32.4258H90.6678V29.0118H83.8398ZM80.4258 18.7738V15.3598H73.6018V29.0118H77.0118V18.7728H80.4258M94.0778 15.3588V18.7728H97.4918V22.1868H100.906V15.3588H94.0778ZM94.0778 15.3588V11.9448H80.4258V15.3588H94.0778Z" fill="#C0C0C0"/>
<path d="M94.078 76.8012V83.6252H97.492V87.0392H100.906V93.8672H97.492V97.2812H83.84V93.8672H80.426V90.4532H70.188V93.8672H73.602V100.691H77.012V104.105H83.84V107.519H100.906V104.105H104.32V100.691H107.734V97.2812H111.148V83.6252H107.734V80.2152H100.906V76.8012H94.078ZM100.906 56.3212V52.9072H77.012V56.3212H73.602V59.7352H70.188V73.3872H73.602V76.8012H77.012V66.5592H80.426V63.1492H100.906V66.5592H107.734V63.1492H111.148V59.7352H107.734V56.3202L100.906 56.3212Z" fill="#FFFF00"/>
</svg>
