<svg width="128" height="128" viewBox="0 0 128 128" fill="none" xmlns="http://www.w3.org/2000/svg">
<path d="M2.001 90.458H6.109V74.235L12.469 88.378C13.219 90.09 14.246 90.695 16.261 90.695C18.276 90.695 19.264 90.09 20.014 88.378L26.374 74.235V90.458H30.482V74.262C30.482 72.682 29.85 71.917 28.546 71.523C25.425 70.549 23.331 71.392 22.383 73.499L16.142 87.457L10.099 73.498C9.19 71.392 7.057 70.549 3.936 71.522C2.632 71.917 2 72.681 2 74.261V90.458H2.001ZM33.899 77.252H38.006V86.19C37.968 86.675 38.162 87.815 40.412 87.851C41.56 87.869 49.274 87.851 49.346 87.851V77.208H53.463C53.482 77.208 53.459 91.722 53.459 91.782C53.481 95.362 49.018 96.139 46.96 96.199H33.988V93.435C34.01 93.435 46.951 93.438 46.983 93.434C49.628 93.155 49.315 91.841 49.314 91.399V90.321H40.583C36.521 90.284 33.933 88.511 33.9 86.471C33.898 86.284 33.989 77.342 33.899 77.252Z" fill="#00618A"/>
<path d="M56.6299 90.4581H68.4419C69.8249 90.4581 71.1689 90.1691 72.2349 89.6691C74.0119 88.8531 74.8809 87.7471 74.8809 86.2971V83.2951C74.8809 82.1101 73.8939 81.0031 71.9579 80.2671C70.9309 79.8711 69.6659 79.6621 68.4409 79.6621H63.4629C61.8039 79.6621 61.0139 79.1621 60.8169 78.0561C60.7779 77.9241 60.7779 77.8191 60.7779 77.6871V75.8171C60.7779 75.7121 60.7779 75.6061 60.8169 75.4751C61.0139 74.6321 61.4489 74.3951 62.9109 74.2631L63.3059 74.2371H75.0389V71.4991H63.5039C61.8449 71.4991 60.9759 71.6041 60.1859 71.8411C57.7369 72.6051 56.6689 73.8161 56.6689 75.9231V78.3191C56.6689 80.1631 58.7639 81.7431 62.2789 82.1121C62.6749 82.1371 63.0689 82.1651 63.4639 82.1651H67.7309C67.8889 82.1651 68.0469 82.1651 68.1659 82.1901C69.4699 82.2951 70.0219 82.5331 70.4179 83.0061C70.5194 83.0998 70.5999 83.2139 70.6542 83.3409C70.7085 83.4679 70.7353 83.605 70.7329 83.7431V86.1401C70.7329 86.4291 70.5359 86.7981 70.1409 87.1141C69.7859 87.4301 69.1929 87.6411 68.4029 87.6941L67.9679 87.7201H56.6299V90.4581ZM100.511 85.6921C100.511 88.5091 102.605 90.0891 106.831 90.4061C107.226 90.4321 107.621 90.4581 108.016 90.4581H118.722V87.7201H107.938C105.528 87.7201 104.62 87.1141 104.62 85.6651V71.4971H100.512V85.6921H100.511ZM77.5029 85.8341V76.0691C77.5029 73.5891 79.2449 72.0841 82.6889 71.6091C83.0559 71.5564 83.4261 71.53 83.7969 71.5301H91.5959C91.9919 71.5301 92.3479 71.5561 92.7429 71.6091C96.1869 72.0841 97.9299 73.5881 97.9299 76.0691V85.8341C97.9299 87.8481 97.1899 88.9241 95.4849 89.6261L99.5329 93.2791H94.7619L91.4879 90.3231L88.1919 90.5321H83.7969C82.9804 90.5268 82.1685 90.4115 81.3829 90.1891C78.7699 89.4771 77.5029 88.1041 77.5029 85.8341ZM81.9369 85.5971C81.9369 85.7291 81.9759 85.8621 82.0159 86.0201C82.2529 87.1551 83.3229 87.7881 84.9449 87.7881H88.6769L85.2489 84.6931H90.0199L93.0089 87.3931C93.5609 87.0981 93.9229 86.6501 94.0499 86.0731C94.0889 85.9411 94.0889 85.8091 94.0889 85.6771V76.3091C94.0889 76.2041 94.0889 76.0711 94.0499 75.9391C93.8119 74.8831 92.7429 74.2771 91.1599 74.2771H84.9439C83.1239 74.2771 81.9359 75.0691 81.9359 76.3091V85.5971H81.9369Z" fill="#E48E00"/>
<path d="M122.336 66.9521C119.811 66.8831 117.882 67.1181 116.232 67.8131C115.763 68.0111 115.016 68.0161 114.94 68.6031C115.197 68.8741 115.237 69.2771 115.442 69.6091C115.836 70.2461 116.501 71.1001 117.094 71.5471C117.741 72.0361 118.409 72.5601 119.105 72.9841C120.34 73.7381 121.72 74.1681 122.911 74.9221C123.612 75.3681 124.308 75.9281 124.993 76.4311C125.332 76.6781 125.558 77.0651 125.999 77.2201V77.1491C125.768 76.8551 125.708 76.4511 125.496 76.1431L124.562 75.2091C123.649 73.9971 122.491 72.9341 121.258 72.0501C120.276 71.3451 118.078 70.3921 117.668 69.2491L117.596 69.1781C118.292 69.0991 119.108 68.8471 119.75 68.6751C120.83 68.3851 121.795 68.4601 122.91 68.1721L124.418 67.7401V67.4541C123.855 66.8761 123.452 66.1101 122.838 65.5871C121.231 64.2181 119.475 62.8501 117.668 61.7081C116.666 61.0761 115.427 60.6651 114.364 60.1291C114.008 59.9481 113.38 59.8551 113.143 59.5541C112.584 58.8431 112.281 57.9421 111.85 57.1131C110.929 55.3222 110.067 53.5019 109.265 51.6551C108.721 50.4101 108.365 49.1821 107.686 48.0651C104.425 42.7041 100.915 39.4681 95.4779 36.2881C94.3209 35.6111 92.9279 35.3451 91.4569 34.9961L89.0869 34.8521C88.6059 34.6511 88.1039 34.0611 87.6509 33.7751C85.8489 32.6371 81.2289 30.1621 79.8949 33.4171C79.0529 35.4711 81.1549 37.4751 81.9059 38.5161C82.4329 39.2461 83.1089 40.0641 83.4859 40.8851C83.7339 41.4251 83.7759 41.9661 83.9889 42.5371C84.5099 43.9431 84.9649 45.4741 85.6399 46.7731C85.9809 47.4311 86.3579 48.1241 86.7889 48.7121C87.0529 49.0721 87.5069 49.2321 87.5779 49.7891C87.1349 50.4091 87.1089 51.3731 86.8599 52.1581C85.7379 55.6971 86.1609 60.0961 87.7939 62.7151C88.2949 63.5201 89.4749 65.2441 91.0969 64.5821C92.5159 64.0041 92.1999 62.2131 92.6059 60.6321C92.6979 60.2751 92.6409 60.0111 92.8209 59.7711V59.8431L94.1139 62.4281C95.0709 63.9691 96.7679 65.5781 98.2069 66.6651C98.9529 67.2281 99.5409 68.2031 100.505 68.5321V68.4591H100.434C100.246 68.1681 99.9549 68.0481 99.7149 67.8131C99.1529 67.2621 98.5279 66.5781 98.0639 65.9461C96.7549 64.1701 95.5989 62.2251 94.5449 60.2011C94.0419 59.2351 93.6049 58.1691 93.1809 57.1851C93.0169 56.8061 93.0189 56.2321 92.6789 56.0371C92.2129 56.7571 91.5299 57.3401 91.1699 58.1911C90.5959 59.5511 90.5219 61.2101 90.3089 62.9301L90.1649 63.0011C89.1639 62.7601 88.8129 61.7301 88.4409 60.8471C87.5009 58.6141 87.3259 55.0171 88.1539 52.4461C88.3679 51.7801 89.3349 49.6851 88.9429 49.0701C88.7559 48.4571 88.1389 48.1031 87.7949 47.6331C87.3436 47.0042 86.9585 46.3303 86.6459 45.6221C85.8759 43.8811 85.5169 41.9261 84.7079 40.1651C84.3199 39.3231 83.6659 38.4721 83.1279 37.7241C82.5329 36.8941 81.8659 36.2841 81.4039 35.2821C81.2399 34.9261 81.0169 34.3551 81.2599 33.9891C81.3369 33.7421 81.4479 33.6391 81.6919 33.5581C82.1079 33.2371 83.2679 33.6651 83.7019 33.8451C84.8539 34.3241 85.8149 34.7791 86.7909 35.4251C87.2589 35.7361 87.7319 36.3361 88.2989 36.5021H88.9449C89.9559 36.7341 91.0889 36.5731 92.0329 36.8601C93.7029 37.3681 95.1989 38.1571 96.5569 39.0151C100.696 41.6291 104.079 45.3491 106.395 49.7871C106.767 50.5021 106.929 51.1831 107.256 51.9411C107.918 53.4691 108.752 55.0421 109.41 56.5371C110.067 58.0281 110.708 59.5331 111.637 60.7741C112.125 61.4261 114.011 61.7761 114.868 62.1381C115.469 62.3921 116.453 62.6571 117.022 62.9991C118.109 63.6551 119.163 64.4361 120.182 65.1541C120.691 65.5161 122.258 66.3031 122.336 66.9521ZM90.2369 39.5931C89.8015 39.586 89.367 39.6344 88.9439 39.7371V39.8081H89.0159C89.2669 40.3251 89.7099 40.6571 90.0209 41.1011L90.7399 42.6091L90.8109 42.5381C91.2559 42.2251 91.4589 41.7241 91.4569 40.9581C91.2779 40.7701 91.2519 40.5351 91.0979 40.3121C90.8939 40.0121 90.4959 39.8441 90.2369 39.5931Z" fill="#00618A"/>
</svg>
