<svg width="128" height="128" viewBox="0 0 128 128" fill="none" xmlns="http://www.w3.org/2000/svg">
<path d="M2.001 90.4581H6.109V74.2351L12.469 88.3781C13.219 90.0901 14.246 90.6951 16.261 90.6951C18.276 90.6951 19.264 90.0901 20.014 88.3781L26.374 74.2351V90.4581H30.482V74.2621C30.482 72.6821 29.85 71.9171 28.546 71.5231C25.425 70.5491 23.331 71.3921 22.383 73.4991L16.142 87.4571L10.099 73.4981C9.19 71.3921 7.057 70.5491 3.936 71.5221C2.632 71.9171 2 72.6811 2 74.2611V90.4581H2.001ZM33.899 77.2521H38.006V86.1901C37.968 86.6751 38.162 87.8151 40.412 87.8511C41.56 87.8691 49.274 87.8511 49.346 87.8511V77.2081H53.463C53.482 77.2081 53.459 91.7221 53.459 91.7821C53.481 95.3621 49.018 96.1391 46.96 96.1991H33.988V93.4351C34.01 93.4351 46.951 93.4381 46.983 93.4341C49.628 93.1551 49.315 91.8411 49.314 91.3991V90.3211H40.583C36.521 90.2841 33.933 88.5111 33.9 86.4711C33.898 86.2841 33.989 77.3421 33.899 77.2521ZM56.63 90.4581H68.442C69.825 90.4581 71.169 90.1691 72.235 89.6691C74.012 88.8531 74.881 87.7471 74.881 86.2971V83.2951C74.881 82.1101 73.894 81.0031 71.958 80.2671C70.931 79.8711 69.666 79.6621 68.441 79.6621H63.463C61.804 79.6621 61.014 79.1621 60.817 78.0561C60.778 77.9241 60.778 77.8191 60.778 77.6871V75.8171C60.778 75.7121 60.778 75.6061 60.817 75.4751C61.014 74.6321 61.449 74.3951 62.911 74.2631L63.306 74.2371H75.039V71.4991H63.504C61.845 71.4991 60.976 71.6041 60.186 71.8411C57.737 72.6051 56.669 73.8161 56.669 75.9231V78.3191C56.669 80.1631 58.764 81.7431 62.279 82.1121C62.675 82.1371 63.069 82.1651 63.464 82.1651H67.731C67.889 82.1651 68.047 82.1651 68.166 82.1901C69.47 82.2951 70.022 82.5331 70.418 83.0061C70.5195 83.0998 70.6 83.2139 70.6543 83.3409C70.7086 83.4679 70.7354 83.605 70.733 83.7431V86.1401C70.733 86.4291 70.536 86.7981 70.141 87.1141C69.786 87.4301 69.193 87.6411 68.403 87.6941L67.968 87.7201H56.63V90.4581ZM100.511 85.6921C100.511 88.5091 102.605 90.0891 106.831 90.4061C107.226 90.4321 107.621 90.4581 108.016 90.4581H118.722V87.7201H107.938C105.528 87.7201 104.62 87.1141 104.62 85.6651V71.4971H100.512V85.6921H100.511ZM77.503 85.8341V76.0691C77.503 73.5891 79.245 72.0841 82.689 71.6091C83.056 71.5565 83.4263 71.5301 83.797 71.5301H91.596C91.992 71.5301 92.348 71.5561 92.743 71.6091C96.187 72.0841 97.93 73.5881 97.93 76.0691V85.8341C97.93 87.8481 97.19 88.9241 95.485 89.6261L99.533 93.2791H94.762L91.488 90.3231L88.192 90.5321H83.797C82.9806 90.5269 82.1686 90.4115 81.383 90.1891C78.77 89.4771 77.503 88.1041 77.503 85.8341ZM81.938 85.5971C81.938 85.7291 81.977 85.8621 82.017 86.0201C82.254 87.1551 83.324 87.7881 84.946 87.7881H88.678L85.25 84.6931H90.021L93.01 87.3931C93.562 87.0981 93.924 86.6501 94.051 86.0731C94.09 85.9411 94.09 85.8091 94.09 85.6771V76.3091C94.09 76.2041 94.09 76.0711 94.051 75.9391C93.813 74.8831 92.744 74.2771 91.161 74.2771H84.945C83.125 74.2771 81.937 75.0691 81.937 76.3091V85.5971H81.938ZM122.336 66.9521C119.811 66.8831 117.882 67.1181 116.232 67.8131C115.763 68.0111 115.016 68.0161 114.94 68.6031C115.197 68.8741 115.237 69.2771 115.442 69.6091C115.836 70.2461 116.501 71.1001 117.094 71.5471C117.741 72.0361 118.409 72.5601 119.105 72.9841C120.34 73.7381 121.72 74.1681 122.911 74.9221C123.612 75.3681 124.308 75.9281 124.993 76.4311C125.332 76.6781 125.558 77.0651 125.999 77.2201V77.1491C125.768 76.8551 125.708 76.4511 125.496 76.1431L124.562 75.2091C123.649 73.9971 122.491 72.9341 121.258 72.0501C120.276 71.3451 118.078 70.3921 117.668 69.2491L117.596 69.1781C118.292 69.0991 119.108 68.8471 119.75 68.6751C120.83 68.3851 121.795 68.4601 122.91 68.1721L124.418 67.7401V67.4541C123.855 66.8761 123.452 66.1101 122.838 65.5871C121.231 64.2181 119.475 62.8501 117.668 61.7081C116.666 61.0761 115.427 60.6651 114.364 60.1291C114.008 59.9481 113.38 59.8551 113.143 59.5541C112.584 58.8431 112.281 57.9421 111.85 57.1131C110.93 55.3222 110.067 53.5019 109.265 51.6551C108.721 50.4101 108.365 49.1821 107.686 48.0651C104.425 42.7041 100.915 39.4681 95.478 36.2881C94.321 35.6111 92.928 35.3451 91.457 34.9961L89.087 34.8521C88.606 34.6511 88.104 34.0611 87.651 33.7751C85.849 32.6371 81.229 30.1621 79.895 33.4171C79.053 35.4711 81.155 37.4751 81.906 38.5161C82.433 39.2461 83.109 40.0641 83.486 40.8851C83.734 41.4251 83.776 41.9661 83.989 42.5371C84.51 43.9431 84.965 45.4741 85.64 46.7731C85.981 47.4311 86.358 48.1241 86.789 48.7121C87.053 49.0721 87.507 49.2321 87.578 49.7891C87.135 50.4091 87.109 51.3731 86.86 52.1581C85.738 55.6971 86.161 60.0961 87.794 62.7151C88.295 63.5201 89.475 65.2441 91.097 64.5821C92.516 64.0041 92.2 62.2131 92.606 60.6321C92.698 60.2751 92.641 60.0111 92.821 59.7711V59.8431L94.114 62.4281C95.071 63.9691 96.768 65.5781 98.207 66.6651C98.953 67.2281 99.541 68.2031 100.505 68.5321V68.4591H100.434C100.246 68.1681 99.955 68.0481 99.715 67.8131C99.153 67.2621 98.528 66.5781 98.064 65.9461C96.755 64.1701 95.599 62.2251 94.545 60.2011C94.042 59.2351 93.605 58.1691 93.181 57.1851C93.017 56.8061 93.019 56.2321 92.679 56.0371C92.213 56.7571 91.53 57.3401 91.17 58.1911C90.596 59.5511 90.522 61.2101 90.309 62.9301L90.165 63.0011C89.164 62.7601 88.813 61.7301 88.441 60.8471C87.501 58.6141 87.326 55.0171 88.154 52.4461C88.368 51.7801 89.335 49.6851 88.943 49.0701C88.756 48.4571 88.139 48.1031 87.795 47.6331C87.3437 47.0042 86.9586 46.3303 86.646 45.6221C85.876 43.8811 85.517 41.9261 84.708 40.1651C84.32 39.3231 83.666 38.4721 83.128 37.7241C82.533 36.8941 81.866 36.2841 81.404 35.2821C81.24 34.9261 81.017 34.3551 81.26 33.9891C81.337 33.7421 81.448 33.6391 81.692 33.5581C82.108 33.2371 83.268 33.6651 83.702 33.8451C84.854 34.3241 85.815 34.7791 86.791 35.4251C87.259 35.7361 87.732 36.3361 88.299 36.5021H88.945C89.956 36.7341 91.089 36.5731 92.033 36.8601C93.703 37.3681 95.199 38.1571 96.557 39.0151C100.696 41.6291 104.079 45.3491 106.395 49.7871C106.767 50.5021 106.929 51.1831 107.256 51.9411C107.918 53.4691 108.752 55.0421 109.41 56.5371C110.067 58.0281 110.708 59.5331 111.637 60.7741C112.125 61.4261 114.011 61.7761 114.868 62.1381C115.469 62.3921 116.453 62.6571 117.022 62.9991C118.109 63.6551 119.163 64.4361 120.182 65.1541C120.691 65.5161 122.258 66.3031 122.336 66.9521ZM90.237 39.5931C89.8016 39.586 89.3671 39.6344 88.944 39.7371V39.8081H89.016C89.267 40.3251 89.71 40.6571 90.021 41.1011L90.74 42.6091L90.811 42.5381C91.256 42.2251 91.459 41.7241 91.457 40.9581C91.278 40.7701 91.252 40.5351 91.098 40.3121C90.894 40.0121 90.496 39.8441 90.237 39.5931Z" fill="#00618A"/>
</svg>
