<svg width="128" height="128" viewBox="0 0 128 128" fill="none" xmlns="http://www.w3.org/2000/svg">
<path d="M0 72.7831H12.8701L20.2507 79.6147V72.7831H30.1015V48.3848H0V72.7831ZM4.84918 54.0879H10.4913L21.3486 64.2132V54.0879H24.9473V67.1715H19.4882L8.44794 56.8632V67.1715H4.84918V54.0879Z" fill="#27AAE1"/>
<path d="M8.44788 56.8632L19.4881 67.1715H24.9473V54.0879H21.3485V64.2132L10.4912 54.0879H4.84912V67.1715H8.44788V56.8632Z" fill="white"/>
<path d="M47.4242 56.3447L43.5205 61.9259H51.328L47.4242 56.3447Z" fill="#34A574"/>
<path d="M32.6328 72.7831H62.7343V48.3848H32.6328V72.7831ZM45.137 54.0269H49.9252L59.3185 67.202H55.0183L53.2494 64.6707H41.6297L39.8608 67.202H35.7436L45.137 54.0269Z" fill="#34A574"/>
<path d="M41.6298 64.6406H53.2495L55.0184 67.172H59.3186L49.9252 54.0273H45.137L35.7437 67.2025H39.8609L41.6298 64.6406ZM47.4244 56.3452L51.3281 61.9263H43.5206L47.4244 56.3452Z" fill="white"/>
<path d="M65.2656 72.7831H95.3671V48.3848H65.2656V72.7831ZM69.9928 54.0879H90.335V57.0462H82.0395V67.1715H78.3188V57.0462H69.9928V54.0879Z" fill="#375C93"/>
<path d="M78.3186 67.1715H82.0394V57.0462H90.3348V54.0879H69.9927V57.0462H78.3186V67.1715Z" fill="white"/>
<path d="M97.8984 48.3848V72.7831H128V48.3848H97.8984ZM121.229 65.6771C120.253 66.6531 118.119 67.4155 113.056 67.4155C109.305 67.4155 105.706 66.836 103.693 65.9821V62.9323C105.614 63.7862 109.823 64.6097 113.056 64.6097C115.892 64.6097 117.875 64.5182 118.393 63.9692C118.576 63.7862 118.607 63.5728 118.607 63.3593C118.607 63.1153 118.546 62.9628 118.393 62.8103C118.088 62.5053 117.6 62.2918 113.086 62.1699C108.298 62.0479 105.95 61.5599 104.852 60.462C104.334 59.9435 104.059 59.1201 104.059 58.1746C104.059 57.1682 104.242 56.2837 105.065 55.4603C106.163 54.3624 108.329 53.8439 112.72 53.8439C116.014 53.8439 119.308 54.3624 121.046 55.0638V58.1441C119.064 57.2902 115.618 56.6802 112.751 56.6802C109.579 56.6802 108.237 56.8632 107.81 57.2902C107.658 57.4427 107.566 57.6257 107.566 57.8696C107.566 58.1441 107.627 58.3271 107.78 58.4796C108.176 58.8761 109.64 58.9981 113.056 59.0591C118.058 59.181 120.223 59.608 121.29 60.645C121.839 61.1939 122.144 62.0784 122.144 62.9933C122.175 63.9692 121.961 64.9452 121.229 65.6771Z" fill="#8DC63F"/>
<path d="M113.117 59.0284C109.702 58.9674 108.238 58.8454 107.841 58.4489C107.689 58.2965 107.628 58.1135 107.628 57.839C107.628 57.595 107.719 57.412 107.872 57.2595C108.268 56.863 109.641 56.6496 112.812 56.6496C115.679 56.6496 119.125 57.2595 121.108 58.1135V55.0637C119.369 54.3622 116.045 53.8438 112.782 53.8438C108.36 53.8438 106.194 54.3927 105.127 55.4601C104.303 56.2836 104.12 57.168 104.12 58.1745C104.12 59.1199 104.425 59.9433 104.913 60.4618C106.011 61.5597 108.36 62.0477 113.148 62.1697C117.661 62.2917 118.149 62.5052 118.454 62.8102C118.607 62.9626 118.668 63.1151 118.668 63.3591C118.668 63.5726 118.637 63.7556 118.454 63.9691C117.905 64.518 115.923 64.6095 113.117 64.6095C109.884 64.6095 105.706 63.8166 103.754 62.9321V66.0124C105.767 66.8664 109.366 67.4458 113.117 67.4458C118.18 67.4458 120.315 66.6834 121.291 65.7075C122.023 64.9755 122.236 63.9996 122.236 62.9931C122.236 62.0477 121.931 61.1938 121.382 60.6448C120.284 59.5774 118.119 59.1504 113.117 59.0284Z" fill="white"/>
</svg>
