<svg width="128" height="128" viewBox="0 0 128 128" fill="none" xmlns="http://www.w3.org/2000/svg">
<path d="M0 72.7831H12.8701L20.2507 79.6147V72.7831H30.1015V48.3848H0V72.7831ZM4.84918 54.0879H10.4913L21.3486 64.2132V54.0879H24.9473V67.1715H19.4882L8.44794 56.8632V67.1715H4.84918V54.0879ZM47.4244 56.3447L43.5206 61.9259H51.3281L47.4244 56.3447Z" fill="black"/>
<path d="M32.6328 72.7831H62.7343V48.3848H32.6328V72.7831ZM45.137 54.0269H49.9252L59.3185 67.202H55.0183L53.2494 64.6707H41.6297L39.8608 67.202H35.7436L45.137 54.0269ZM65.2656 72.7831H95.3671V48.3848H65.2656V72.7831ZM69.9928 54.0879H90.335V57.0462H82.0395V67.1715H78.3188V57.0462H69.9928V54.0879ZM97.8985 48.3848V72.7831H128V48.3848H97.8985ZM121.229 65.6771C120.253 66.6531 118.119 67.4155 113.056 67.4155C109.305 67.4155 105.706 66.836 103.693 65.9821V62.9323C105.614 63.7862 109.823 64.6097 113.056 64.6097C115.892 64.6097 117.875 64.5182 118.393 63.9692C118.576 63.7862 118.607 63.5728 118.607 63.3593C118.607 63.1153 118.546 62.9628 118.393 62.8103C118.088 62.5053 117.6 62.2918 113.086 62.1699C108.298 62.0479 105.95 61.5599 104.852 60.462C104.334 59.9435 104.059 59.1201 104.059 58.1746C104.059 57.1682 104.242 56.2837 105.065 55.4603C106.163 54.3624 108.329 53.8439 112.72 53.8439C116.014 53.8439 119.308 54.3624 121.046 55.0638V58.1441C119.064 57.2902 115.618 56.6802 112.751 56.6802C109.579 56.6802 108.237 56.8632 107.81 57.2902C107.658 57.4427 107.566 57.6257 107.566 57.8696C107.566 58.1441 107.627 58.3271 107.78 58.4796C108.176 58.8761 109.64 58.9981 113.056 59.0591C118.058 59.181 120.223 59.608 121.29 60.645C121.839 61.1939 122.144 62.0784 122.144 62.9933C122.175 63.9692 121.961 64.9452 121.229 65.6771Z" fill="black"/>
</svg>
