<svg width="128" height="128" viewBox="0 0 128 128" fill="none" xmlns="http://www.w3.org/2000/svg">
<path d="M63.3328 32.5669C58.1328 33.4329 53.7668 35.5668 50.4998 38.8328C46.6328 42.6998 44.6668 47.3328 43.9998 54.1999C43.6998 57.3328 43.5328 69.6668 43.7998 69.6668C43.8668 69.6668 44.4998 69.4328 45.1998 69.1329C46.8328 68.4328 50.3668 68.4328 52.1998 69.0998L53.5998 69.5998L53.7668 61.5669C53.9328 52.9999 54.1328 51.6999 55.7328 48.4998C56.8328 46.3668 59.4998 43.8668 61.7668 42.8328C64.3668 41.6328 68.1668 41.1668 71.0998 41.6328C77.3668 42.6668 81.0998 46.0668 82.6668 52.1328C83.2998 54.5668 83.3328 55.8328 83.3328 69.2328V83.6668H93.3998L93.2328 67.8998C93.1328 52.9998 93.0668 51.9998 92.3668 49.3328C90.4668 41.9328 85.8668 36.5668 79.4328 34.1328C75.9998 32.8328 72.7328 32.3328 68.2328 32.3668C65.9998 32.3998 63.7998 32.4999 63.3328 32.5669Z" fill="black"/>
<path d="M22.733 57.2C19.867 58.633 18.333 61.2 18.333 64.667C18.333 65.767 18.533 67.167 18.8 67.8C19.433 69.367 21.233 71.267 22.8 72.1C24.7 73.1 28.3 73.1 30.167 72.133L31.533 71.433L35.8 74.333L40.067 77.267V81.7L35.8 84.633L31.5 87.567L30.4 86.9C28.8 85.967 25.7 85.767 23.8 86.5C21.8 87.267 19.733 89.1 18.967 90.833C18.133 92.6 18.133 96.067 18.967 97.833C19.667 99.4 21.3 101.133 22.767 101.9C23.367 102.2 24.8 102.5 26 102.6C28.8 102.8 31.167 101.867 32.867 99.867C34.233 98.267 35.133 95.467 34.9 93.533L34.733 92.167L39.033 89.267L43.333 86.367L44.867 87.067C47.2 88.067 50.667 87.833 52.867 86.5C55.267 85 56.467 82.867 56.6 79.867C56.7 77.767 56.6 77.3 55.767 75.667C53.6 71.533 48.767 69.967 44.633 72.033L43.4 72.633L39.167 69.733L34.933 66.833L34.833 64.5C34.767 61.7 33.967 59.9 32 58.267C29.5 56.133 25.767 55.7 22.733 57.2Z" fill="#018BFF"/>
</svg>
