<svg width="128" height="128" viewBox="0 0 128 128" fill="none" xmlns="http://www.w3.org/2000/svg">
<path d="M25.107 51.667C18.336 51.667 13.792 55.773 13.792 63.74V69.42C14.4756 69.0689 15.2315 68.8816 16 68.873C16.767 68.873 17.525 69.056 18.214 69.407V63.713C18.214 58.547 20.954 55.893 25.126 55.893C29.299 55.893 32 58.547 32 63.713V76.127H36.41V63.713C36.422 55.7 31.878 51.667 25.107 51.667ZM38.822 64.2C38.822 56.953 43.942 51.64 51.155 51.64C58.368 51.64 63.398 56.973 63.398 64.2V65.887H43.456C44.096 70.14 47.168 72.507 51.136 72.507C54.106 72.507 56.192 71.54 57.536 69.467H62.4C60.64 73.907 56.467 76.76 51.136 76.76C43.923 76.76 38.822 71.447 38.822 64.2ZM58.758 61.787C57.875 57.967 54.868 55.893 51.155 55.893C47.443 55.893 44.48 58.02 43.597 61.787H58.758ZM65.754 64.2C65.754 56.96 70.874 51.647 78.086 51.647C85.299 51.647 90.419 56.98 90.419 64.2C90.419 71.42 85.299 76.76 78.086 76.76C70.874 76.76 65.754 71.447 65.754 64.2ZM85.971 64.2C85.971 59.373 82.816 55.893 78.086 55.893C73.356 55.893 70.208 59.373 70.208 64.2C70.208 69.027 73.357 72.507 78.08 72.507C82.803 72.507 85.971 69.033 85.971 64.2ZM115.61 80.88H116.122C118.95 80.88 120.013 79.547 120.013 76.213V52.44H124.422V75.907C124.422 81.8 122.195 84.84 116.538 84.84H115.61V80.88ZM113.408 78.427H108.998V72.767H97.83C96.8065 72.8031 95.7942 72.5449 94.913 72.023C94.0173 71.4909 93.286 70.7216 92.8 69.8C92.398 68.9214 92.2422 67.9502 92.349 66.99C92.453 66.0336 92.8172 65.1239 93.402 64.36L103.424 50.66C104.105 49.695 105.075 48.9723 106.195 48.597C107.302 48.23 108.498 48.2363 109.601 48.615C110.717 49.0017 111.681 49.7342 112.353 50.706C113.039 51.6974 113.407 52.8743 113.408 54.08V68.693H116.717V72.767H113.408V78.427ZM97.068 66.867C96.9601 67.0285 96.8927 67.2136 96.8717 67.4067C96.8506 67.5998 96.8764 67.7951 96.947 67.976C97.002 68.116 97.083 68.244 97.187 68.351C97.2876 68.4581 97.4092 68.5433 97.5443 68.6011C97.6794 68.659 97.825 68.6882 97.972 68.687H108.998V53.967C109.007 53.7204 108.937 53.4774 108.799 53.273C108.664 53.0728 108.466 52.923 108.237 52.847C108.106 52.8082 107.97 52.788 107.834 52.787C107.661 52.787 107.491 52.831 107.34 52.916C107.187 53.0019 107.057 53.1246 106.963 53.273L97.069 66.867H97.068ZM122.24 42.687C121.489 42.687 120.756 42.9173 120.14 43.347C119.513 43.7856 119.029 44.3987 118.747 45.11C118.46 45.8315 118.384 46.62 118.529 47.383C118.671 48.1407 119.029 48.8409 119.561 49.399C120.089 49.949 120.762 50.325 121.495 50.477C122.228 50.6296 122.99 50.552 123.677 50.255C124.374 49.9515 124.965 49.4466 125.373 48.805C125.79 48.1525 126.011 47.3942 126.01 46.62C126.013 45.5861 125.618 44.5908 124.906 43.841C124.562 43.4788 124.149 43.1899 123.691 42.9916C123.233 42.7933 122.739 42.6897 122.24 42.687Z" fill="black"/>
<path d="M15.808 70.3331C14.989 70.3341 14.193 70.6151 13.542 71.1331L9.39499 68.1801C9.48799 67.8351 9.53499 67.4781 9.53599 67.1201C9.54576 66.3455 9.333 65.5844 8.92299 64.9271C8.52155 64.2814 7.93612 63.7705 7.24199 63.4601C6.55787 63.1559 5.79643 63.0707 5.06199 63.2161C4.3216 63.3649 3.64396 63.7352 3.11899 64.2781C2.58355 64.8321 2.22051 65.5297 2.07399 66.2861C1.9242 67.0481 1.99497 67.837 2.27799 68.5601C2.56099 69.2801 3.04299 69.8971 3.66299 70.3321C4.28299 70.7661 5.01299 70.9991 5.75999 71.0001C6.57999 71.0001 7.37599 70.7201 8.02599 70.2001L12.16 73.1731C11.9721 73.8697 11.9721 74.6036 12.16 75.3001L8.01299 78.2531C7.3741 77.7393 6.57986 77.4573 5.75999 77.4531C5.00895 77.4531 4.27597 77.6834 3.65999 78.1131C3.0322 78.5519 2.5474 79.1657 2.26599 79.8781C1.97927 80.6002 1.90434 81.389 2.04999 82.1521C2.19245 82.91 2.55162 83.6102 3.08399 84.1681C3.61199 84.7181 4.28499 85.0931 5.01899 85.2451C5.75256 85.3965 6.51499 85.3176 7.20199 85.0191C7.89863 84.7151 8.48852 84.2098 8.89599 83.5681C9.30999 82.9201 9.53099 82.1581 9.52999 81.3801C9.52999 81.0271 9.48399 80.6741 9.39499 80.3331L13.542 77.3801C14.193 77.8981 14.989 78.1801 15.808 78.1801C16.7691 78.1049 17.6633 77.6592 18.302 76.9371C18.957 76.1983 19.3176 75.2445 19.315 74.2571C19.315 73.2621 18.953 72.3041 18.302 71.5771C17.6635 70.8547 16.7692 70.4086 15.808 70.3331Z" fill="black"/>
</svg>
