<svg width="128" height="128" viewBox="0 0 128 128" fill="none" xmlns="http://www.w3.org/2000/svg">
<path d="M25.107 51.6669C18.336 51.6669 13.792 55.7729 13.792 63.7399V69.4199C14.4756 69.0688 15.2315 68.8815 16 68.8729C16.767 68.8729 17.525 69.0559 18.214 69.4069V63.7129C18.214 58.5469 20.954 55.8929 25.126 55.8929C29.299 55.8929 32 58.5469 32 63.7129V76.1269H36.41V63.7129C36.422 55.6999 31.878 51.6669 25.107 51.6669ZM38.822 64.1999C38.822 56.9529 43.942 51.6399 51.155 51.6399C58.368 51.6399 63.398 56.9729 63.398 64.1999V65.8869H43.456C44.096 70.1399 47.168 72.5069 51.136 72.5069C54.106 72.5069 56.192 71.5399 57.536 69.4669H62.4C60.64 73.9069 56.467 76.7599 51.136 76.7599C43.923 76.7599 38.822 71.4469 38.822 64.1999ZM58.758 61.7869C57.875 57.9669 54.868 55.8929 51.155 55.8929C47.443 55.8929 44.48 58.0199 43.597 61.7869H58.758ZM65.754 64.1999C65.754 56.9599 70.874 51.6469 78.086 51.6469C85.299 51.6469 90.419 56.9799 90.419 64.1999C90.419 71.4199 85.299 76.7599 78.086 76.7599C70.874 76.7599 65.754 71.4469 65.754 64.1999ZM85.971 64.1999C85.971 59.3729 82.816 55.8929 78.086 55.8929C73.356 55.8929 70.208 59.3729 70.208 64.1999C70.208 69.0269 73.357 72.5069 78.08 72.5069C82.803 72.5069 85.971 69.0329 85.971 64.1999ZM115.61 80.8799H116.122C118.95 80.8799 120.013 79.5469 120.013 76.2129V52.4399H124.422V75.9069C124.422 81.7999 122.195 84.8399 116.538 84.8399H115.61V80.8799ZM113.408 78.4269H108.998V72.7669H97.83C96.8065 72.803 95.7942 72.5448 94.913 72.0229C94.0173 71.4908 93.286 70.7215 92.8 69.7999C92.398 68.9214 92.2422 67.9501 92.349 66.9899C92.453 66.0335 92.8172 65.1238 93.402 64.3599L103.424 50.6599C104.105 49.6949 105.075 48.9722 106.195 48.5969C107.302 48.2299 108.498 48.2362 109.601 48.6149C110.717 49.0016 111.681 49.7341 112.353 50.7059C113.039 51.6973 113.407 52.8742 113.408 54.0799V68.6929H116.717V72.7669H113.408V78.4269ZM97.068 66.8669C96.9601 67.0284 96.8927 67.2135 96.8717 67.4066C96.8506 67.5997 96.8764 67.795 96.947 67.9759C97.002 68.1159 97.083 68.2439 97.187 68.3509C97.2876 68.458 97.4092 68.5432 97.5443 68.601C97.6794 68.6589 97.825 68.6881 97.972 68.6869H108.998V53.9669C109.007 53.7203 108.937 53.4773 108.799 53.2729C108.664 53.0727 108.466 52.9229 108.237 52.8469C108.106 52.8081 107.97 52.7879 107.834 52.7869C107.661 52.7869 107.491 52.8309 107.34 52.9159C107.187 53.0018 107.057 53.1245 106.963 53.2729L97.069 66.8669H97.068Z" fill="black"/>
<path d="M122.24 42.687C121.489 42.687 120.756 42.9173 120.14 43.347C119.513 43.7856 119.029 44.3987 118.747 45.11C118.46 45.8315 118.384 46.62 118.529 47.383C118.671 48.1407 119.029 48.8409 119.561 49.399C120.089 49.949 120.762 50.325 121.495 50.477C122.228 50.6296 122.99 50.552 123.677 50.255C124.374 49.9515 124.965 49.4466 125.373 48.805C125.79 48.1525 126.011 47.3942 126.01 46.62C126.013 45.5861 125.618 44.5908 124.906 43.841C124.562 43.4788 124.149 43.1899 123.691 42.9916C123.233 42.7933 122.739 42.6897 122.24 42.687ZM15.808 70.333C14.989 70.334 14.193 70.615 13.542 71.133L9.39499 68.18C9.48799 67.835 9.53499 67.478 9.53599 67.12C9.54576 66.3454 9.333 65.5843 8.92299 64.927C8.52155 64.2813 7.93612 63.7704 7.24199 63.46C6.55787 63.1558 5.79643 63.0706 5.06199 63.216C4.3216 63.3648 3.64396 63.7351 3.11899 64.278C2.58355 64.832 2.22051 65.5296 2.07399 66.286C1.9242 67.048 1.99497 67.8369 2.27799 68.56C2.56099 69.28 3.04299 69.897 3.66299 70.332C4.28299 70.766 5.01299 70.999 5.75999 71C6.57999 71 7.37599 70.72 8.02599 70.2L12.16 73.173C11.9721 73.8696 11.9721 74.6035 12.16 75.3L8.01299 78.253C7.3741 77.7392 6.57986 77.4571 5.75999 77.453C5.00895 77.453 4.27597 77.6833 3.65999 78.113C3.0322 78.5518 2.5474 79.1656 2.26599 79.878C1.97927 80.6001 1.90434 81.3889 2.04999 82.152C2.19245 82.9099 2.55162 83.6101 3.08399 84.168C3.61199 84.718 4.28499 85.093 5.01899 85.245C5.75256 85.3964 6.51499 85.3175 7.20199 85.019C7.89863 84.715 8.48852 84.2097 8.89599 83.568C9.30999 82.92 9.53099 82.158 9.52999 81.38C9.52999 81.027 9.48399 80.674 9.39499 80.333L13.542 77.38C14.193 77.898 14.989 78.18 15.808 78.18C16.7691 78.1048 17.6633 77.6591 18.302 76.937C18.957 76.1982 19.3176 75.2444 19.315 74.257C19.315 73.262 18.953 72.304 18.302 71.577C17.6635 70.8546 16.7692 70.4085 15.808 70.333Z" fill="#018BFF"/>
</svg>
