<svg width="128" height="128" viewBox="0 0 128 128" fill="none" xmlns="http://www.w3.org/2000/svg">
<path d="M25.7001 43.9999V44.3999C25.7001 45.3999 25.4001 45.4999 25.2001 46.0999C24.9001 46.7999 25.0001 47.6999 25.4001 48.2999C25.4001 48.3999 25.5001 48.4999 25.5001 48.4999C25.1001 45.6999 27.4001 45.1999 27.9001 44.3999C27.9001 43.5999 27.3001 43.0999 26.8001 42.7999C26.3001 42.4999 25.9001 42.3999 25.5001 42.3999C25.2001 42.3999 24.9001 42.4999 24.6001 42.5999C25.2001 42.9999 25.5001 43.4999 25.7001 43.9999Z" fill="#DF234F"/>
<path d="M37.2 51.0002V51.4002C37.2 51.7002 37.1 51.9002 37.1 52.1002C37 52.3002 37 52.6002 36.9 52.8002C36.8 53.0002 36.7 53.3002 36.6 53.5002C36.5 53.7002 36.4 54.0002 36.3 54.2002C36.2 54.4002 36 54.6002 35.9 54.8002C35.8 55.0002 35.6 55.2002 35.4 55.4002C35.2 55.6002 35.1 55.8002 34.9 56.0002L34.6 56.3002C34.5 56.4002 34.4 56.4002 34.3 56.5002C34.1 56.7002 33.9 56.8002 33.7 56.9002C33.5 57.0002 33.3 57.2002 33 57.3002C32.8 57.4002 32.5 57.5002 32.3 57.6002C32.1 57.7002 31.8 57.8002 31.6 57.8002C31.4 57.9002 31.1 57.9002 30.9 58.0002C30.6 58.0002 30.4 58.1002 30.1 58.1002H28.8C28.5 58.1002 28.3 58.0002 28 58.0002C27.7 58.0002 27.5 57.9002 27.3 57.8002C27.5 57.8002 27.8 57.8002 28 57.7002C28.3 57.7002 28.5 57.6002 28.7 57.5002C28.9 57.4002 29.2 57.4002 29.4 57.3002C29.6 57.2002 29.9 57.1002 30.1 57.0002C30.3 56.9002 30.5 56.8002 30.8 56.6002C31 56.5002 31.2 56.3002 31.4 56.2002C31.6 56.0002 31.8 55.9002 32 55.7002L32.5 55.2002C32.7 55.0002 32.8 54.8002 33 54.6002C33 54.6002 33 54.5002 33.1 54.5002C33.2 54.3002 33.3 54.1002 33.4 54.0002C33.5 53.8002 33.6 53.6002 33.7 53.3002C33.8 53.1002 33.9 52.8002 34 52.6002C34.1 52.4002 34.1 52.1002 34.2 51.9002C34.2 51.6002 34.3 51.4002 34.3 51.2002V50.4002V49.9002C34.3 49.6002 34.2 49.4002 34.2 49.2002C34.2 48.9002 34.1 48.7002 34 48.5002C33.9 48.3002 33.8 48.0002 33.8 47.8002C33.7 47.6002 33.6 47.3002 33.5 47.1002C33.4 46.9002 33.3 46.7002 33.1 46.4002C33 46.2002 32.8 46.0002 32.7 45.8002C32.5 45.6002 32.4 45.4002 32.2 45.2002L31.9 44.9002C31.4 44.5002 30.9 44.1002 30.3 43.8002C30.2 43.8002 30.2 43.7002 30.1 43.7002C29.7 43.5002 29.4 43.3002 29 43.2002V43.8002C29 43.9002 29 44.0002 28.9 44.1002C28.9 44.2002 28.8 44.3002 28.8 44.4002C28.8 44.5002 28.7 44.6002 28.7 44.7002L28.6 44.8002C28.6 44.8002 28.6 44.9002 28.5 44.9002C28.4 45.0002 28.4 45.1002 28.3 45.1002L28.1 45.3002L27.9 45.5002C27.7 45.7002 27.4 45.8002 27.2 46.0002C27.1 46.1002 27 46.1002 27 46.2002L26.8 46.4002L26.6 46.6002L26.4 46.8002C26.3 46.9002 26.3 47.0002 26.2 47.0002C26.2 47.1002 26.1 47.2002 26.1 47.3002C26.1 47.4002 26 47.5002 26 47.6002C26 47.7002 25.9 47.8002 25.9 47.9002V48.9002C25.9 49.0002 25.9 49.1002 26 49.2002C26 49.3002 26.1 49.4002 26.1 49.5002C26.1 49.6002 26.2 49.6002 26.2 49.7002L23.6 48.7002C23.2 48.6002 22.7 48.5002 22.3 48.4002C22.1 48.3002 21.8 48.3002 21.6 48.2002C20.9 48.1002 20.2 48.0002 19.6 47.9002H19.5C18.8 47.8002 18.2 47.8002 17.5 47.8002C17 47.8002 16.5 47.8002 16 47.9002C15.3 47.9002 14.6 48.0002 14 48.1002C13.8 48.1002 13.7 48.2002 13.5 48.2002C13.2 48.3002 12.8 48.3002 12.5 48.4002C12.3 48.4002 12.2 48.5002 12 48.5002C11.8 48.6002 11.7 48.6002 11.5 48.7002C11.4 48.8002 11.3 48.8002 11.1 48.9002H11C10.9 49.0002 10.8 49.0002 10.7 49.1002H10.6C10.5 49.2002 10.4 49.2002 10.3 49.3002C10.2 49.3002 10.1 49.4002 10.1 49.4002C10.1 49.4002 10 49.4002 10 49.5002C9.9 49.6002 9.8 49.6002 9.7 49.7002C9.6 49.8002 9.5 49.8002 9.4 49.9002C9.3 50.0002 9.2 50.0002 9.2 50.1002C9.1 50.1002 9.1 50.2002 9 50.3002C8.9 50.3002 8.9 50.4002 8.8 50.4002H8.7C8.6 50.4002 8.6 50.5002 8.5 50.5002L8.3 50.7002L8.1 50.9002C8 50.7002 8 50.7002 7.9 50.8002C7.9 50.8002 7.8 50.8002 7.8 50.9002L7.6 51.1002V51.2002L7.3 51.5002C7.1 51.7002 6.9 51.9002 6.7 52.0002C6.5 52.2002 6.3 52.3002 6.1 52.5002C5.9 52.7002 5.7 52.8002 5.4 52.9002C5.2 53.0002 5 53.1002 4.7 53.2002C4.5 53.3002 4.2 53.4002 4 53.5002C3.5 53.6002 3 53.8002 2.6 53.8002H2.3C2.2 53.8002 2.1 53.8002 2 53.9002C2 54.0002 1.9 54.0002 1.8 54.0002C1.7 54.0002 1.6 54.1002 1.5 54.1002C1.4 54.2002 1.3 54.2002 1.3 54.3002C1.2 54.4002 1.1 54.4002 1.1 54.5002C1 54.6002 0.9 54.6002 0.9 54.7002L0.7 54.9002C0.6 55.0002 0.6 55.1002 0.5 55.2002C0.4 55.3002 0.4 55.4002 0.3 55.5002C0.3 55.6002 0.2 55.7002 0.2 55.8002C0.2 55.9002 0.1 56.0002 0.1 56.1002C0.1 56.2002 0.1 56.3002 0 56.4002V57.2002C0 57.3002 0 57.3002 0.1 57.4002C0.1 57.5002 0.2 57.5002 0.2 57.6002C0.2 57.7002 0.3 57.7002 0.3 57.8002L0.5 58.0002L0.7 58.2002C1 58.4002 1 58.5002 1.4 58.7002C1.5 58.7002 1.5 58.8002 1.6 58.8002V58.9002C1.6 59.0002 1.6 59.1002 1.7 59.2002C1.7 59.3002 1.8 59.4002 1.8 59.5002C1.8 59.6002 1.9 59.6002 1.9 59.7002V59.8002C1.9 59.9002 2 60.0002 2 60.0002C2.1 60.1002 2.1 60.2002 2.2 60.2002L2.4 60.4002L2.6 60.6002L2.8 60.8002C2.9 60.9002 3 60.9002 3 60.9002C3.1 60.9002 3.2 61.0002 3.3 61.0002H3.7V62.4002C4 62.7002 4.5 62.0002 5 61.2002C4.9 62.0002 4.9 62.9002 5 63.1002C5.1 63.4002 5.8 62.5002 6.4 61.5002C14.3 59.7002 21.6 65.1002 22.3 72.9002C22.2 71.7002 20.7 71.0002 20 71.2002C19.7 72.0002 19.1 73.1002 18.2 73.7002C18.3 73.0002 18.2 72.2002 18.1 71.5002C17.9 72.5002 17.4 73.5002 16.7 74.3002C15.6 74.4002 14.6 73.9002 14 73.1002L13.9 73.0002C13.9 72.9002 13.8 72.8002 13.8 72.8002C13.8 72.7002 13.7 72.6002 13.7 72.6002V72.4002V72.2002C13.7 72.1002 13.7 72.0002 13.8 72.0002C13.8 71.9002 13.8 71.8002 13.9 71.8002C13.9 71.7002 14 71.6002 14 71.6002C14.2 71.1002 14.2 70.6002 13.8 70.4002C13.7 70.4002 13.7 70.3002 13.6 70.3002H13.5H13.4C13.3 70.3002 13.2 70.3002 13.2 70.2002H12.2C12.1 70.2002 12 70.2002 12 70.3002C11.9 70.3002 11.9 70.4002 11.8 70.4002C11.7 70.4002 11.7 70.5002 11.6 70.5002C8.7 72.0002 10.3 76.0002 12 77.1002C11.3 77.2002 10.6 77.4002 10.5 77.5002C11 77.8002 11.5 78.0002 12 78.2002C12.7 78.4002 13.5 78.6002 13.8 78.7002C14.7 78.9002 15.7 79.0002 16.6 78.9002C21.6 78.6002 25.6 74.8002 26.4 69.8002C26.4 69.9002 26.4 70.0002 26.5 70.1002C26.5 70.3002 26.6 70.5002 26.6 70.7002V73.8002C26.6 73.9002 26.6 74.0002 26.5 74.1002C26.5 74.2002 26.5 74.3002 26.4 74.4002C26.4 74.5002 26.4 74.6002 26.3 74.7002C26.3 74.8002 26.2 74.9002 26.2 75.0002C26.2 75.1002 26.1 75.2002 26.1 75.3002C26.1 75.4002 26 75.5002 26 75.6002C26 75.7002 25.9 75.8002 25.9 75.9002C25.9 76.0002 25.8 76.1002 25.8 76.2002C25.8 76.3002 25.7 76.4002 25.7 76.5002V76.6002C25 78.1002 23.9 79.4002 22.6 80.4002C22.5 80.5002 22.4 80.5002 22.3 80.6002C22.3 80.6002 22.2 80.6002 22.2 80.7002C22.1 80.8002 22 80.8002 22 80.9002V81.0002C22.2 81.0002 22.3 81.0002 22.5 80.9002C22.8 80.9002 23.1 80.8002 23.4 80.7002C23.5 80.7002 23.6 80.7002 23.6 80.6002H24C24.1 80.6002 24.1 80.6002 24.2 80.5002C25.3 80.2002 26.4 79.9002 27.4 79.4002C25.6 81.8002 23.2 83.8002 20.5 85.1002C21.8 85.0002 23.1 84.8002 24.3 84.4002C28.8 83.1002 32.6 80.0002 34.9 76.0002C34.4 78.6002 33.4 81.0002 31.9 83.2002C33 82.5002 34 81.7002 34.9 80.7002C37.4 78.1002 39 74.8002 39.6 71.2002C40 73.0002 40.1 74.8002 39.9 76.6002C47.7 65.8002 40.3 54.1002 37.2 51.0002ZM75.2 71.0002C75.6 60.7002 74.8 59.8002 74.8 59.8002C70.3 52.5002 62.9 59.8002 62.9 59.8002V55.6002H61.8C60.3 58.3002 56 58.8002 56 58.8002V59.9002C58.8 60.5002 58.5 61.8002 58.5 61.8002C58.5 61.8002 58.6 68.5002 58.6 70.6002C58.6 72.7002 57.9 72.3002 57.9 72.3002L56 72.7002V73.9002C58 73.3002 65.1 73.9002 65.1 73.9002L65.2 72.7002C63.1 72.4002 62.9 71.1002 62.9 71.1002V61.2002C64.8 59.5002 66.6 58.9002 66.6 58.9002C70.3 58.0002 70.6 61.6002 70.6 61.6002L70.7 70.7002C71.4 73.1002 67.9 72.7002 67.9 72.7002L68 73.9002L73.5 73.5002L77.2 73.9002V72.7002C75.4 72.4002 75.3 72.4002 75.2 71.0002ZM88.2 56.2002C80.2 56.2002 79.8 63.4002 79.8 63.4002C79.8 63.4002 78.4 74.3002 88.2 74.3002C94.5 74.3002 96.4 70.7002 96.4 70.7002L95.2 69.6002C95.2 69.6002 85.8 76.4002 84.6 63.5002H96.5C96.4 63.4002 96.2 56.2002 88.2 56.2002ZM91.9 62.1002H84.5V61.6002C84.5 59.5002 86.2 57.7002 88.4 57.7002C90.3 57.7002 91.9 59.3002 91.9 61.2002V62.1002ZM109.4 63.7002C106.7 63.2002 104.9 62.5002 104.9 62.5002C104.9 62.5002 100.7 60.8002 104.4 58.3002C108.5 56.2002 110.9 62.2002 110.9 62.2002C110.9 62.2002 111.8 62.4002 112.4 61.9002C112.6 61.3002 111.9 57.7002 111.9 57.7002C111.9 57.7002 110.6 56.1002 104.1 56.6002C104.1 56.6002 100.6 57.4002 100 60.7002C99.4 64.0002 101.5 65.8002 101.5 65.8002C101.5 65.8002 102.4 67.1002 105.5 67.4002C108.2 67.7002 109.4 68.8002 109.4 68.8002C109.4 68.8002 110.8 70.1002 109.3 71.7002C107.8 73.3002 105.8 72.7002 105.8 72.7002C105.8 72.7002 103.5 72.8002 100.8 68.1002L99.5 68.2002L100 72.9002C100 72.9002 106.4 76.5002 111.3 72.9002C116.3 68.4002 112.1 64.2002 109.4 63.7002ZM127.1 70.6002C124 73.2002 123.4 70.1002 123.4 70.1002V59.5002H127.6V57.5002H123.6V53.2002H122.3C120.5 57.0002 116.5 58.3002 116.5 58.3002V59.1002C116.5 59.6002 116.9 59.6002 116.9 59.6002H118.9C118.9 59.6002 118.7 67.3002 118.8 70.0002C118.9 72.7002 120.8 73.5002 120.8 73.5002C120.8 73.5002 122.1 74.2002 124.2 74.0002C126.3 73.8002 127.8 71.7002 127.8 71.7002L127.1 70.6002Z" fill="#DF234F"/>
</svg>
