<svg width="128" height="128" viewBox="0 0 128 128" fill="none" xmlns="http://www.w3.org/2000/svg">
<path d="M78.0751 69.2399C87.5801 65.7299 92.5851 55.3529 89.2571 46.0669C85.9301 36.7799 75.5261 32.0979 66.0221 35.6099C56.5181 39.1219 51.5121 49.4959 54.8411 58.7829C58.1691 68.0699 68.5731 72.7509 78.0751 69.2399Z" fill="#FF7F0E"/>
<path d="M74.1498 21.646C69.9504 21.4816 65.76 22.1494 61.8198 23.611C45.5278 29.631 36.8538 47.523 42.6068 63.574C48.3598 79.625 66.4108 87.708 82.7028 81.688V81.685L82.7048 81.684C98.9948 75.664 107.669 57.776 101.916 41.724C97.6018 29.687 86.3698 22.133 74.1498 21.647V21.646ZM73.9098 28.16C83.5898 28.51 92.3558 34.464 95.7498 43.936C100.277 56.566 93.4918 70.716 80.4338 75.541V75.543H80.4318C67.3718 80.367 53.2988 73.991 48.7728 61.363C44.2468 48.734 51.0328 34.582 64.0918 29.756C67.2287 28.5876 70.5643 28.0454 73.9098 28.16ZM92.0718 91.436C89.7247 91.3424 87.3823 91.7146 85.1798 92.531C76.0798 95.893 71.2178 105.904 74.4398 114.891C77.6598 123.877 87.7778 128.398 96.8788 125.035C105.979 121.673 110.839 111.665 107.617 102.678C105.203 95.938 98.9068 91.71 92.0718 91.436ZM91.8998 96.092C96.9198 96.269 101.452 99.353 103.209 104.258C105.554 110.798 102.045 118.136 95.2558 120.645C88.4648 123.154 81.1908 119.85 78.8478 113.311C76.5028 106.77 80.0128 99.431 86.8028 96.924C88.4313 96.3169 90.1628 96.0343 91.8998 96.092ZM22.5658 58.865C20.8844 58.7982 19.2065 59.065 17.6288 59.65C11.1108 62.06 7.62977 69.228 9.93677 75.664C12.2448 82.1 19.4918 85.343 26.0098 82.934C32.5268 80.524 36.0078 73.356 33.7008 66.92C31.9708 62.093 27.4628 59.062 22.5658 58.865ZM22.4428 62.201C26.0388 62.328 29.2838 64.538 30.5428 68.051C32.2218 72.735 29.7078 77.99 24.8458 79.787C19.9838 81.584 14.7728 79.217 13.0938 74.533C11.4138 69.849 13.9288 64.594 18.7908 62.797C19.9576 62.3621 21.1982 62.1596 22.4428 62.201Z" fill="#2C7FB8"/>
<path d="M42.54 60.7731L30.79 65.1171L32.65 70.1501L44.4 65.8101L42.54 60.7731ZM85.082 77.3161L78.029 79.8441L83.775 95.8751L90.828 93.3481L85.082 77.3161ZM111.047 2.52105C107.706 2.408 104.452 3.59733 101.971 5.83805C96.811 10.4911 96.321 18.4131 100.951 23.4451C105.583 28.4781 113.551 28.7261 118.709 24.0721C123.868 19.4201 124.36 11.4991 119.729 6.46705C117.413 3.95105 114.262 2.63105 111.047 2.52105ZM110.916 5.85905C113.274 5.93705 115.574 6.90705 117.26 8.73905C120.632 12.4021 120.31 18.1121 116.463 21.5821C112.617 25.0521 106.792 24.8371 103.42 21.1741C100.048 17.5101 100.368 11.8011 104.217 8.33005C106.045 6.66929 108.447 5.78367 110.916 5.86005V5.85905Z" fill="#2C7FB8"/>
<path d="M100.705 20.0098L91.4 28.3898L94.992 32.3768L104.295 23.9978L100.705 20.0098ZM62.568 95.4338C58.148 94.7118 53.883 97.6738 53.041 102.061C52.199 106.446 55.15 110.644 59.571 111.365C63.989 112.086 68.252 109.126 69.096 104.74V104.738C69.936 100.354 66.987 96.1548 62.568 95.4338ZM62.217 97.5818H62.219C65.482 98.1158 67.579 101.104 66.959 104.328C66.339 107.555 63.184 109.75 59.92 109.217C56.654 108.684 54.558 105.696 55.178 102.471C55.798 99.2438 58.952 97.0508 62.217 97.5818Z" fill="#2C7FB8"/>
<path d="M68.0369 102.771L67.4769 106.209L75.4139 107.502L75.9739 104.064L68.0369 102.771ZM13.7229 38.9448C12.6321 38.8974 11.5428 39.0667 10.5179 39.4428C6.28186 40.9918 4.00586 45.6368 5.48786 49.8198C6.97086 54.0028 11.6669 56.1218 15.9019 54.5718C20.1349 53.0238 22.4089 48.3808 20.9279 44.1988L20.9299 44.1968C19.8179 41.0608 16.8999 39.0838 13.7229 38.9448ZM13.6349 41.1088C15.9669 41.1988 18.0689 42.6388 18.8789 44.9218L18.8769 44.9238C19.9569 47.9678 18.3129 51.3718 15.1539 52.5268C11.9939 53.6838 8.61786 52.1368 7.53886 49.0918C6.45886 46.0468 8.10286 42.6438 11.2639 41.4878H11.2659C12.0232 41.208 12.828 41.0792 13.6349 41.1088Z" fill="#2C7FB8"/>
<path d="M17.0779 52.7129L13.7969 53.8769L16.4409 61.3359L19.7229 60.1739L17.0779 52.7129ZM115.148 61.8519C111.974 61.7819 108.878 63.5589 107.422 66.5899C105.456 70.6099 107.222 75.5099 111.297 77.2929C115.365 79.1069 120.219 77.2969 122.158 73.2579C124.123 69.2419 122.363 64.3449 118.293 62.5579H118.289C117.3 62.1154 116.232 61.8753 115.149 61.8519H115.148ZM115.092 64.0269C115.889 64.0434 116.676 64.2195 117.404 64.5449L117.412 64.5469C120.362 65.8369 121.642 69.3689 120.203 72.3049L120.199 72.3129C118.763 75.3069 115.164 76.6409 112.176 75.3049L112.168 75.3009C109.218 74.0109 107.939 70.4789 109.377 67.5429L109.381 67.5349C110.459 65.2889 112.751 63.9789 115.091 64.0269H115.092Z" fill="#2C7FB8"/>
<path d="M101.904 61.8369L99.9819 65.0149L107.272 68.2749L108.693 65.0969L101.904 61.8369Z" fill="#2C7FB8"/>
<path d="M93.9139 116.833C98.4629 115.152 100.859 110.185 99.2649 105.741C97.6709 101.295 92.6929 99.0551 88.1439 100.736C83.5949 102.416 81.1989 107.383 82.7909 111.827C84.3849 116.273 89.3649 118.513 93.9119 116.833H93.9139ZM23.9179 77.1501C27.2299 75.9261 28.9719 72.3131 27.8129 69.0781C26.6529 65.8441 23.0299 64.2121 19.7209 65.4361C16.4089 66.6601 14.6659 70.2731 15.8249 73.5071C16.9849 76.7431 20.6079 78.3731 23.9179 77.1501ZM112.44 20.8001C115.75 19.5771 117.494 15.9631 116.334 12.7301C115.174 9.49409 111.552 7.8641 108.242 9.0871C104.931 10.3101 103.188 13.9241 104.346 17.1591C105.506 20.3941 109.129 22.0251 112.44 20.8011V20.8001Z" fill="#FF7F0E"/>
<path d="M109.979 76.1108L99.625 94.1108L102.643 95.8478L112.996 77.8478L109.979 76.1108Z" fill="#2C7FB8"/>
</svg>
