<svg width="128" height="128" viewBox="0 0 128 128" fill="none" xmlns="http://www.w3.org/2000/svg">
<path fill-rule="evenodd" clip-rule="evenodd" d="M18.096 57.082L8.12 74.362L5.79 70.412L8.48 65.785L3.14 65.771L2 63.798L3.162 61.779L10.764 61.803L13.495 57.093L18.096 57.082ZM18.862 70.895H38.815L36.56 74.888L31.208 74.873L33.866 79.505L32.726 81.477L30.397 81.479L26.617 74.885L21.173 74.873L18.862 70.895ZM30.475 63.323L20.5 46.043L25.084 46L27.747 50.643L30.43 46.025H32.707L33.874 48.041L30.052 54.612L32.765 59.332L30.475 63.323Z" fill="#7EBAE4"/>
<path fill-rule="evenodd" clip-rule="evenodd" d="M14.4959 64.2L24.4709 81.48L19.8869 81.523L17.2239 76.881L14.5409 81.499L12.2639 81.498L11.0969 79.482L14.9179 72.912L12.2059 68.19L14.4959 64.2ZM26.0829 56.585L6.12891 56.584L8.38391 52.592L13.7369 52.607L11.0789 47.975L12.2189 46.003L14.5459 46L18.3259 52.595L23.7709 52.606L26.0809 56.585H26.0829ZM26.8609 70.438L36.8379 53.158L39.1679 57.108L36.4779 61.735L41.8189 61.749L42.9569 63.722L41.7949 65.74L34.1939 65.716L31.4619 70.426L26.8609 70.438Z" fill="#5277C3"/>
<path d="M68.355 53.0269H65.84V64.4449C65.84 66.0569 65.905 68.6049 66.002 71.4439H65.905C64.647 69.0889 63.228 66.8319 62.228 65.2839L54.326 53.0269H50.874V74.8949H53.39V63.4769C53.39 61.8639 53.326 58.8319 53.229 56.0269H53.326C55.196 59.2839 56.293 61.0899 57.326 62.6379L65.228 74.8949H68.356V53.0269H68.355ZM73.145 74.8949H75.855V59.2839H73.145V74.8949ZM74.5 56.9939C75.435 56.9939 76.177 56.2519 76.177 55.3169C76.177 54.3809 75.435 53.6389 74.5 53.6389C73.564 53.6389 72.823 54.3809 72.823 55.3169C72.823 56.2519 73.564 56.9939 74.5 56.9939ZM92.734 59.2839H89.638L85.832 65.0249H85.735L82.058 59.2839H78.703L84.283 66.8959V66.9929L78.51 74.8949H81.606L85.67 68.7019H85.767L89.831 74.8949H93.186L87.283 66.8639V66.7669L92.734 59.2839ZM103.214 53.4159C98.08 53.4159 93.859 57.5499 93.859 64.4299C93.859 71.3089 98.08 75.4429 103.214 75.4429C108.348 75.4429 112.569 71.3089 112.569 64.4299C112.569 57.5499 108.348 53.4159 103.214 53.4159ZM103.214 55.5619C107.036 55.5619 109.945 58.7179 109.945 64.4299C109.945 70.1409 107.036 73.2969 103.214 73.2969C99.392 73.2969 96.483 70.1409 96.483 64.4299C96.483 58.7179 99.393 55.5619 103.214 55.5619ZM113.631 59.0049C113.631 62.0349 115.209 63.6749 118.87 65.1589C121.679 66.2949 122.815 67.3039 122.815 69.3869C122.815 71.9119 120.763 73.1739 118.049 73.1739C116.629 73.1739 115.02 72.9539 113.253 72.3539L112.969 74.5309C114.515 75.0989 116.219 75.3199 117.923 75.3199C122.152 75.3199 125.686 73.1739 125.686 68.8499C125.686 65.8529 123.856 64.4009 120.164 62.9179C117.702 61.9399 116.503 60.8979 116.503 58.7209C116.503 56.6069 118.333 55.4389 120.637 55.4389C121.994 55.4389 123.477 55.7859 124.519 56.1969L124.803 54.0509C123.604 53.5459 122.12 53.2929 120.479 53.2929C116.598 53.2929 113.631 55.5329 113.631 59.0049Z" fill="black"/>
</svg>
