<svg width="128" height="128" viewBox="0 0 128 128" fill="none" xmlns="http://www.w3.org/2000/svg">
<path d="M69.7 61.7999C69 60.5999 67.7 59.7 66.2 59.7H65.9C63.6 59.7 61.8 61.5 61.6 63.7C61.5 64.6 61.7 65.3999 62.2 66.2C62.9 67.3999 64.2 68.3 65.7 68.3H66C68.3 68.3 70.2 66.5 70.3 64.3C70.4 63.4 70.2 62.5999 69.7 61.7999ZM65.9 65.5C65.1 65.4 64.4 64.7 64.5 63.9C64.6 63.1 65.3 62.4 66.1 62.5C66.9 62.5999 67.6 63.2999 67.5 64.0999C67.5 64.8999 66.7 65.6 65.9 65.5ZM118.1 29.4L69.9 1.59995C67.8 0.399951 64.3 0.399951 62.2 1.59995L13.9 29.4C11.8 30.6 10 33.5999 10 36.0999V91.8C10 94.3 11.7 97.3 13.9 98.5L62.1 126.4C64.2 127.6 67.7 127.6 69.8 126.4L118 98.5C120.1 97.3 121.9 94.3 121.9 91.8V36.0999C122 33.6999 120.2 30.6999 118.1 29.4ZM22 89.9L61.5 59.7999V59.9C60.6 60.9 60 62.1999 59.9 63.5999C59.8 64.7999 60.1 66 60.7 67.1C61.7 68.9 63.5 70 65.6 70.1H66C66.5 70.1 66.9 70 67.3 69.9L22 89.9ZM66 68.6H65.7C64.2 68.5 62.8 67.7 62 66.3C61.5 65.5 61.3 64.6 61.4 63.7C61.6 61.2999 63.6 59.4 66 59.4H66.3C67.8 59.5 69.2 60.4 70 61.7C70.5 62.5 70.7 63.4 70.6 64.3C70.4 66.7 68.4 68.6 66 68.6ZM70.4 68.2C71.4 67.2 72 65.8999 72.1 64.4C72.2 63.2 71.9 62 71.3 60.9C70.3 59.1 68.4 58 66.4 57.9C65.8 57.9 65.1 57.8999 64.5 58.0999L110.3 38.7999L70.4 68.2Z" fill="#3D3B47"/>
</svg>
