<svg width="128" height="128" viewBox="0 0 128 128" fill="none" xmlns="http://www.w3.org/2000/svg">
<path d="M64 125.8C62.8 125.8 61.7 125.5 60.9 125.1L12.6 97.3C10.9 96.3 9.5 93.8 9.5 91.9V36.0999C9.5 34.1999 11 31.7 12.6 30.7L60.9 2.89995C61.7 2.39995 62.8 2.19995 64 2.19995C65.2 2.19995 66.3 2.49995 67.1 2.89995L115.3 30.7999C117 31.7999 118.4 34.2999 118.4 36.2V91.9C118.4 93.8 116.9 96.3 115.3 97.3L67.1 125.2C66.3 125.6 65.2 125.8 64 125.8Z" fill="#3D3B47"/>
<path d="M64 3.69995C64.9 3.69995 65.8 3.89995 66.4 4.19995L114.6 32C115.8 32.7 117 34.6999 117 36.0999V91.8C117 93.2 115.8 95.2 114.6 95.9L66.4 123.8C65.8 124.1 64.9 124.3 64 124.3C63.1 124.3 62.2 124.1 61.6 123.8L13.4 96C12.2 95.3 11 93.3 11 91.9V36.0999C11 34.6999 12.2 32.7 13.4 32L61.6 4.19995C62.2 3.89995 63.1 3.69995 64 3.69995ZM64 0.699951C62.6 0.699951 61.2 0.999951 60.1 1.59995L11.9 29.4C9.8 30.6999 8 33.6999 8 36.0999V91.8C8 94.3 9.7 97.3 11.9 98.5L60.1 126.4C61.2 127 62.6 127.3 64 127.3C65.4 127.3 66.8 127 67.9 126.4L116.1 98.5C118.2 97.3 120 94.3 120 91.8V36.0999C120 33.5999 118.3 30.6 116.1 29.4L67.9 1.59995C66.8 0.999951 65.4 0.699951 64 0.699951Z" fill="#CCCCCC"/>
<path d="M64 59.6999H64.3C65.7 59.7999 67 60.5999 67.8 61.7999C68.2 62.4999 68.4 63.3999 68.4 64.2999C68.2 66.5999 66.4 68.2999 64.1 68.2999H63.8C62.4 68.1999 61.1 67.3999 60.3 66.1999C59.9 65.4999 59.7 64.5999 59.7 63.6999C59.8 61.4999 61.7 59.6999 64 59.6999ZM64 59.3999C61.6 59.3999 59.6 61.2999 59.4 63.6999C59.3 64.5999 59.5 65.4999 60 66.2999C60.8 67.5999 62.1 68.4999 63.7 68.5999H64C66.4 68.5999 68.4 66.6999 68.6 64.2999C68.7 63.3999 68.4 62.4999 68 61.6999C67.2 60.3999 65.9 59.4999 64.3 59.3999H64Z" fill="#EFF3F3"/>
<path d="M64.1 62.5C64.9 62.6 65.6 63.3 65.5 64.1C65.4 64.9 64.7 65.6 63.9 65.5C63.1 65.4 62.4 64.7001 62.5 63.9001C62.5 63.1001 63.3 62.4 64.1 62.5ZM64 70.1H63.6C61.6 70 59.7 68.8 58.7 67.1C58.1 66 57.8 64.8 57.9 63.6C58 62.2 58.6 60.9001 59.5 59.9001V59.8L20 89.9001L65.4 69.9001C64.9 70.0001 64.5 70.1 64 70.1Z" fill="#EFF3F3"/>
<path d="M62.5 58.1C63.1 58 63.7 57.9001 64.4 57.9001C66.4 58.0001 68.3 59.2001 69.3 60.9001C69.9 62.0001 70.2 63.2001 70.1 64.4001C70 65.9001 69.4 67.2 68.4 68.2L108.3 38.8L62.5 58.1Z" fill="#0977F7"/>
</svg>
