<svg width="128" height="129" viewBox="0 0 128 129" fill="none" xmlns="http://www.w3.org/2000/svg">
<path d="M115.1 29.4L66.9 1.59995C65.8 0.999951 64.4 0.699951 63 0.699951C61.6 0.699951 60.2 0.999951 59.1 1.59995L10.9 29.4C8.7 30.6999 7 33.6999 7 36.0999V91.8C7 94.3 8.7 97.3 10.9 98.5L59.1 126.4C60.2 127 61.6 127.3 63 127.3C64.4 127.3 65.8 127 66.9 126.4L115.1 98.5C117.2 97.3 119 94.3 119 91.8V36.0999C119 33.6999 117.3 30.6999 115.1 29.4ZM116 91.9C116 93.3 114.8 95.3 113.6 96L65.4 123.9C64.8 124.2 63.9 124.4 63 124.4C62.1 124.4 61.2 124.2 60.6 123.9L12.4 96C11.2 95.3 10 93.3 10 91.9V36.0999C10 34.6999 11.2 32.7 12.4 32L60.6 4.19995C61.2 3.89995 62.1 3.69995 63 3.69995C63.9 3.69995 64.8 3.89995 65.4 4.19995L113.6 32C114.8 32.7 116 34.6999 116 36.0999V91.9ZM67 61.7C66.2 60.4 64.9 59.2999 63.3 59.2L63 59C60.6 59 58.6 61.0999 58.4 63.5C58.3 64.4 58.5 65.3999 59 66.2C59.8 67.5 61.1 68.4 62.7 68.5H63C65.4 68.5 67.4 66.6 67.6 64.2C67.6 63.4 67.4 62.5 67 61.7ZM63 68.3H62.7C61.3 68.2 60 67.3999 59.2 66.2C58.8 65.5 58.6 64.7999 58.6 63.9C58.8 61.6 60.6 60 62.9 60L63.2 59.7999C64.6 59.8999 65.9 60.6 66.7 61.9C67.1 62.6 67.3 63.5 67.3 64.2999C67.2 66.6 65.3 68.3 63 68.3Z" fill="#3D3B47"/>
<path d="M63 65.5C63.8284 65.5 64.5 64.8284 64.5 64C64.5 63.1716 63.8284 62.5 63 62.5C62.1716 62.5 61.5 63.1716 61.5 64C61.5 64.8284 62.1716 65.5 63 65.5Z" fill="#3D3B47"/>
<path d="M63 70H62.6C60.6 69.9 58.7 68.8 57.7 67C57.1 65.9 56.8 64.8 56.9 63.5C57 62.1 57.6 60.8 58.5 59.8L19 89.9001L64.4 69.9001V69.8001C63.9 70.0001 63.5 70 63 70ZM61.5 58.1C62.1 58 62.7 57.9001 63.4 57.9001C65.4 58.0001 67.3 59.2001 68.3 60.9001C68.9 62.0001 69.2 63.2001 69.1 64.4001C69 65.9001 68.4 67.2 67.4 68.2L107.3 38.8L61.5 58.1Z" fill="#3D3B47"/>
</svg>
