<svg width="128" height="128" viewBox="0 0 128 128" fill="none" xmlns="http://www.w3.org/2000/svg">
<path d="M64 99.6C63.1 99.6 62.3 99.4 61.7 99.1L24.3 77.4C23.1 76.7 22 74.9 22 73.5V30.2C22 28.8 23.1 27 24.3 26.2999L61.7 4.69995C62.3 4.39995 63.1 4.19995 64 4.19995C64.9 4.19995 65.7 4.39995 66.3 4.69995L103.8 26.2999C105 27 106.1 28.8 106.1 30.2V73.5C106.1 74.9 105 76.7 103.8 77.4L66.3 99.1C65.7 99.4 64.9 99.6 64 99.6Z" fill="#3D3B47"/>
<path d="M64 5.69995C64.7 5.69995 65.2 5.89995 65.5 5.99995L103 27.6C103.7 28 104.5 29.4 104.5 30.2V73.5C104.5 74.3 103.7 75.7 103 76.1L65.5 97.8C65.2 98 64.7 98.1 64 98.1C63.3 98.1 62.8 97.9 62.5 97.8L25 76.1C24.3 75.7 23.5 74.3 23.5 73.5V30.2C23.5 29.4 24.3 28 25 27.6L62.5 5.99995C62.8 5.79995 63.3 5.69995 64 5.69995ZM64 2.69995C62.9 2.69995 61.8 2.89995 61 3.39995L23.5 25C21.8 26 20.5 28.3 20.5 30.2V73.5C20.5 75.4 21.9 77.7999 23.5 78.7L61 100.4C61.8 100.9 62.9 101.1 64 101.1C65.1 101.1 66.2 100.9 67 100.4L104.5 78.8C106.2 77.8 107.5 75.5 107.5 73.6V30.2C107.5 28.3 106.1 25.9 104.5 25L67 3.39995C66.2 2.89995 65.1 2.69995 64 2.69995Z" fill="#CCCCCC"/>
<path d="M63.9999 48.5H64.1999C65.2999 48.6 66.2999 49.2001 66.8999 50.2001C67.1999 50.8001 67.3999 51.4 67.2999 52.1C67.1999 53.9 65.6999 55.2001 63.8999 55.2001H63.6999C62.5999 55.1001 61.5999 54.5 60.9999 53.5C60.6999 52.9 60.4999 52.3 60.5999 51.6C60.7999 49.9 62.1999 48.5 63.9999 48.5ZM63.9999 48.3C62.0999 48.3 60.5999 49.8 60.3999 51.6C60.3999 52.3 60.4999 53 60.8999 53.6C61.4999 54.6 62.5999 55.3001 63.6999 55.4001H63.8999C65.7999 55.4001 67.2999 53.9 67.4999 52.1C67.4999 51.4 67.3999 50.7 66.9999 50.1C66.3999 49.1 65.2999 48.4 64.1999 48.3H63.9999Z" fill="#EFF3F3"/>
<path d="M64.0998 50.7001C64.6998 50.7001 65.1998 51.3001 65.1998 52.0001C65.1998 52.6001 64.5998 53.1001 63.8998 53.1001C63.2998 53.1001 62.7998 52.5001 62.7998 51.8001C62.8998 51.1001 63.3998 50.7001 64.0998 50.7001ZM63.9998 56.6001H63.6998C62.0998 56.5001 60.6998 55.6001 59.8998 54.2001C59.3998 53.4001 59.1998 52.5001 59.2998 51.5001C59.3998 50.4001 59.7998 49.4001 60.4998 48.6001L29.7998 72.0001L65.0998 56.5001C64.6998 56.6001 64.3998 56.6001 63.9998 56.6001Z" fill="#EFF3F3"/>
<path d="M62.8999 47.2999C63.3999 47.1999 63.8999 47.0999 64.3999 47.1999C65.9999 47.2999 67.3999 48.1999 68.1999 49.5999C68.6999 50.3999 68.8999 51.3999 68.7999 52.2999C68.6999 53.3999 68.1999 54.4999 67.4999 55.2999L98.4999 32.3999L62.8999 47.2999Z" fill="#0977F7"/>
<path d="M12.3 109.8C13.1 110.5 13.6 111.6 13.6 113.3V121.9H10.2V114.1C10.2 113.4 10.1 112.9 9.9 112.5C9.6 111.8 8.9 111.5 8 111.5C6.9 111.5 6.1 112 5.7 112.9C5.5 113.4 5.4 114.1 5.4 114.9V121.8H2V109H5.2V110.9C5.6 110.2 6 109.8 6.4 109.5C7.1 109 8 108.7 9 108.7C10.4 108.7 11.4 109.1 12.3 109.8ZM27.4 120.3C26.3 121.6 24.7 122.3 22.5 122.3C20.3 122.3 18.6 121.6 17.6 120.3C16.5 119 16 117.4 16 115.5C16 113.6 16.5 112 17.6 110.7C18.7 109.3 20.3 108.7 22.5 108.7C24.7 108.7 26.4 109.4 27.4 110.7C28.5 112.1 29 113.7 29 115.5C29 117.4 28.4 119 27.4 120.3ZM24.7 118.4C25.2 117.7 25.5 116.7 25.5 115.4C25.5 114.1 25.2 113.1 24.7 112.4C24.2 111.7 23.4 111.4 22.4 111.4C21.4 111.4 20.7 111.7 20.1 112.4C19.6 113.1 19.3 114.1 19.3 115.4C19.3 116.7 19.6 117.7 20.1 118.4C20.6 119.1 21.4 119.4 22.4 119.4C23.4 119.4 24.2 119.1 24.7 118.4ZM38.2 109.2C38.8 109.5 39.3 110 39.7 110.6V104.5H43.1V121.8H39.8V120C39.3 120.8 38.8 121.3 38.2 121.7C37.6 122.1 36.8 122.2 35.9 122.2C34.4 122.2 33.1 121.6 32.1 120.4C31.1 119.2 30.6 117.6 30.6 115.7C30.6 113.5 31.1 111.8 32.1 110.5C33.1 109.2 34.5 108.6 36.1 108.6C36.9 108.7 37.6 108.9 38.2 109.2ZM39 118.4C39.5 117.7 39.7 116.8 39.7 115.7C39.7 114.1 39.3 113 38.5 112.3C38 111.9 37.4 111.7 36.8 111.7C35.8 111.7 35.1 112.1 34.6 112.8C34.1 113.5 33.9 114.5 33.9 115.6C33.9 116.8 34.1 117.7 34.6 118.4C35.1 119.1 35.8 119.5 36.7 119.5C37.6 119.5 38.5 119.1 39 118.4ZM54.5 109.3C55.4 109.7 56.1 110.3 56.7 111.2C57.2 112 57.6 112.8 57.7 113.9C57.8 114.5 57.8 115.3 57.8 116.4H48.5C48.6 117.7 49 118.6 49.8 119.1C50.3 119.4 50.9 119.6 51.7 119.6C52.5 119.6 53.1 119.4 53.6 119C53.9 118.8 54.1 118.5 54.3 118.1H57.7C57.6 118.9 57.2 119.6 56.5 120.4C55.4 121.6 53.7 122.3 51.7 122.3C50 122.3 48.5 121.8 47.2 120.7C45.9 119.6 45.2 117.9 45.2 115.6C45.2 113.4 45.8 111.7 47 110.5C48.2 109.3 49.7 108.7 51.6 108.7C52.6 108.7 53.6 108.9 54.5 109.3ZM49.5 112.2C49 112.7 48.7 113.4 48.6 114.2H54.4C54.3 113.3 54 112.6 53.5 112.2C53 111.7 52.3 111.5 51.5 111.5C50.6 111.5 49.9 111.7 49.5 112.2ZM70.3 119.9L73.6 109.3H75L71 121.9H69.5L66.8 111.4L64 121.9H62.3L58.5 109.4H59.9L63 120L65.9 109.3H67.5L70.3 119.9ZM78 116C78 116.7 78.1 117.3 78.3 117.9C78.5 118.5 78.7 119 79.1 119.5C79.4 119.9 79.9 120.3 80.4 120.6C80.9 120.9 81.5 121 82.2 121C83.1 121 84 120.8 84.6 120.3C85.3 119.8 85.7 119.1 86 118.2H87.6C87.4 118.8 87.2 119.3 86.9 119.9C86.6 120.5 86.2 120.8 85.8 121.2C85.4 121.6 84.9 121.9 84.3 122.1C83.7 122.3 83 122.4 82.2 122.4C81.2 122.4 80.3 122.2 79.6 121.9C78.9 121.6 78.3 121.1 77.8 120.5C77.3 119.9 77 119.2 76.8 118.4C76.6 117.6 76.5 116.7 76.5 115.8C76.5 114.9 76.6 114 76.9 113.2C77.2 112.4 77.5 111.7 78 111.1C78.5 110.5 79.1 110 79.8 109.7C80.5 109.4 81.3 109.2 82.2 109.2C83.9 109.2 85.3 109.8 86.3 111C87.3 112.2 87.8 113.9 87.7 116.1H78V116ZM86.2 114.8C86.2 114.2 86.1 113.6 85.9 113.1C85.7 112.6 85.5 112.1 85.2 111.7C84.9 111.3 84.5 111 84 110.8C83.5 110.6 82.9 110.5 82.3 110.5C81.7 110.5 81.1 110.6 80.6 110.9C80.1 111.1 79.7 111.5 79.3 111.9C79 112.3 78.7 112.8 78.5 113.3C78.3 113.8 78.2 114.4 78.1 115H86.2V114.8ZM92.1 121.9H90.7V104.5H92.1V111.4C92.6 110.6 93.2 110 94 109.7C94.8 109.3 95.7 109.1 96.5 109.1C97.4 109.1 98.3 109.3 99 109.6C99.7 110 100.3 110.4 100.7 111C101.2 111.6 101.5 112.3 101.7 113.1C101.9 113.9 102 114.7 102 115.6C102 116.5 101.9 117.4 101.7 118.2C101.5 119 101.2 119.7 100.7 120.3C100.2 120.9 99.7 121.3 99 121.7C98.3 122 97.4 122.2 96.4 122.2C96 122.2 95.6 122.1 95.2 122C94.8 121.9 94.4 121.7 94 121.5C93.6 121.3 93.2 121 92.9 120.7C92.6 120.4 92.3 120 92.1 119.6V121.9ZM92.1 115.6C92.1 116.4 92.2 117.1 92.4 117.7C92.6 118.4 92.9 118.9 93.2 119.4C93.6 119.9 94 120.2 94.5 120.5C95 120.8 95.6 120.9 96.3 120.9C96.9 120.9 97.5 120.8 98 120.6C98.5 120.4 99 120.1 99.4 119.6C99.8 119.2 100.1 118.7 100.3 118.1C100.5 117.5 100.6 116.8 100.6 116C100.6 115.2 100.6 114.5 100.4 113.8C100.2 113.1 100 112.5 99.6 112C99.2 111.5 98.8 111.1 98.2 110.8C97.6 110.5 97 110.4 96.3 110.4C95.6 110.4 95.1 110.5 94.5 110.8C94 111.1 93.5 111.5 93.2 111.9C92.8 112.4 92.6 112.9 92.4 113.6C92.2 114.2 92.1 114.9 92.1 115.6ZM105.2 121.9V104.5H106.6V115.3L112.7 109.4H114.7L110 113.9L115.2 121.9H113.6L108.9 114.9L106.5 117.1V121.8H105.2V121.9ZM117.5 106.7V104.6H119.1V106.7H117.5ZM117.5 121.9V109.4H118.9V121.9H117.5ZM127.1 121.9C126.9 121.9 126.7 122 126.4 122.1C126.1 122.2 125.8 122.2 125.4 122.2C124.7 122.2 124.1 122 123.7 121.7C123.3 121.3 123.1 120.7 123.1 119.8V110.7H121.3V109.5H123.1V106H124.5V109.5H126.8V110.7H124.5V120.1L124.6 120.7C124.7 120.8 124.8 120.9 125 121C125.2 121.1 125.4 121.1 125.7 121.1H126.3L126.9 121V121.9H127.1Z" fill="#3D3B47"/>
</svg>
