<svg width="128" height="128" viewBox="0 0 128 128" fill="none" xmlns="http://www.w3.org/2000/svg">
<path d="M61 52.9001C61.6 53.9001 62.6 54.5 63.7 54.6H63.9C65.7 54.6 67.2 53.2001 67.3 51.4001C67.3 50.7001 67.2 50 66.8 49.5C66.2 48.5 65.2 48 64.1 47.9001C64 47.9001 63.9 48 63.9 48C62.1 48 60.6 49.3 60.5 51.1C60.5 51.8 60.7 52.3001 61 52.9001ZM64.1 50C64.8 50 65.3 50.6 65.2 51.3C65.2 52 64.6 52.5 63.9 52.4001C63.2 52.4001 62.7 51.8 62.8 51.1C62.8 50.4 63.4 49.9001 64.1 50ZM22.9 78.5L61 100.6C62.7 101.6 65.4 101.6 67.1 100.6L105.1 78.5C106.8 77.5 108 75.1 108 73.2V29.1C108 27.2001 106.8 24.8 105.1 23.8L67 1.80005C65.3 0.800049 62.6 0.800049 60.9 1.80005L22.9 23.9C21.2 24.9 20 27.3001 20 29.2001V73.3C20 75.2001 21.2 77.6 22.9 78.5ZM99.1 31.2001L67.5 54.5C68.3 53.7001 68.8 52.7001 68.8 51.5C68.9 50.5 68.6 49.6 68.2 48.8C67.4 47.4 65.9 46.5 64.3 46.4001C63.8 46.4001 63.3 46.4001 62.8 46.5L99.1 31.2001ZM64 48L64.3 47.8C65.5 47.9 66.6 48.4001 67.2 49.5C67.6 50.1 67.7 50.8 67.7 51.5C67.6 53.4001 66 54.9001 64.1 54.9001H63.9C62.7 54.8001 61.6 54.1 61 53.1C60.6 52.5 60.5 52 60.5 51.3C60.5 49.3 62.1 48 64 48ZM60.4 47.9001C59.7 48.7001 59.2 49.7001 59.1 50.9001C59 51.9001 59.3 52.8 59.7 53.6C60.5 55 62 55.9001 63.6 56H63.9C64.3 56 64.6 56 64.9 55.9001L28.9 71.7L60.4 47.9001ZM8.5 108.7C7.4 108.7 6.7 109 6 109.5C5.6 109.8 4.9 110.3 4.9 110.9V109H1V122H5V114.9C5 114.1 5 113.5 5.2 112.9C5.6 111.9 6.3 111.5 7.5 111.5C8.4 111.5 9.2 111.8 9.5 112.5C9.7 112.9 9.9 113.4 9.9 114.1V122H12.9V113.2C12.9 111.6 12.5 110.4 11.7 109.7C10.9 109 9.9 108.7 8.5 108.7ZM21.9 108.6C19.7 108.6 18 109.3 17 110.6C15.9 112 15.4 113.6 15.4 115.4C15.4 117.3 15.9 118.9 17 120.2C18.1 121.5 19.7 122.2 21.9 122.2C24.1 122.2 25.8 121.5 26.8 120.2C27.9 118.9 28.4 117.3 28.4 115.4C28.4 113.5 27.9 111.9 26.8 110.6C25.8 109.3 24.1 108.6 21.9 108.6ZM24.2 118.4C23.7 119.1 22.9 119.4 21.9 119.4C20.9 119.4 20.2 119.1 19.6 118.4C19 117.7 18.8 116.7 18.8 115.4C18.8 114.1 19.1 113.1 19.6 112.4C20.1 111.7 20.9 111.4 21.9 111.4C22.9 111.4 23.6 111.7 24.2 112.4C24.7 113.1 25 114.1 25 115.4C25 116.7 24.7 117.8 24.2 118.4ZM39 110.7C39 110.1 38.2 109.6 37.6 109.3C37 109 36.3 108.8 35.6 108.8C33.9 108.8 32.6 109.4 31.6 110.7C30.6 112 30.1 113.7 30.1 115.9C30.1 117.8 30.6 119.4 31.6 120.6C32.6 121.8 33.9 122.4 35.4 122.4C36.3 122.4 36.9 122.2 37.5 121.9C38.1 121.6 39 121 39 120.2V122.1H43V105.1H39V110.7ZM38.5 118.4C38 119.1 37.3 119.5 36.3 119.5C35.3 119.5 34.6 119.1 34.2 118.4C33.7 117.7 33.5 116.7 33.5 115.6C33.5 114.5 33.7 113.6 34.2 112.8C34.7 112.1 35.4 111.7 36.4 111.7C37 111.7 37.6 111.9 38.1 112.3C38.9 113 39.3 114.1 39.3 115.7C39.3 116.8 39 117.7 38.5 118.4ZM56.2 111.2C55.6 110.3 54.9 109.7 54 109.3C53.1 108.9 52.1 108.7 51 108.7C49.1 108.7 47.6 109.3 46.4 110.5C45.2 111.7 44.6 113.4 44.6 115.6C44.6 118 45.3 119.7 46.6 120.7C47.9 121.8 49.4 122.3 51.1 122.3C53.2 122.3 54.8 121.6 55.9 120.4C56.6 119.6 57.1 119 57.1 118H53.7C53.5 118 53.3 118.7 53 118.9C52.5 119.3 51.9 119.5 51.1 119.5C50.4 119.5 49.8 119.2 49.2 118.8C48.4 118.3 47.9 117.9 47.9 115.9H57.2C57.2 114.9 57.2 114.1 57.1 113.6C57.1 112.6 56.7 112 56.2 111.2ZM48.1 114C48.2 113 48.5 112.6 49 112.1C49.5 111.6 50.1 111.4 51 111.4C51.8 111.4 52.5 111.6 53 112C53.5 112.5 53.8 113 53.9 114H48.1ZM69.8 119.6L67 109H65.4L62.5 119.7L59.3 109H57.8L61.6 122H63.4L66.1 111H66.2L68.9 122H70.5L74.5 109H73L69.8 119.6ZM85.8 110.8C84.8 109.6 83.5 109 81.7 109C80.8 109 80 109.2 79.3 109.5C78.6 109.8 78 110.3 77.5 110.9C77 111.5 76.6 112.2 76.4 113C76.1 113.8 76 114.7 76 115.6C76 116.5 76.1 117.4 76.3 118.2C76.5 119 76.9 119.7 77.3 120.3C77.8 120.9 78.4 121.3 79.1 121.7C79.8 122 80.7 122.2 81.7 122.2C82.5 122.2 83.2 122.1 83.8 121.9C84.4 121.7 84.9 121.4 85.3 121C85.7 120.6 86.1 120.2 86.4 119.7C86.7 119.2 86.9 119 87.1 118H85.5C85.3 119 84.8 119.6 84.1 120.1C83.4 120.6 82.6 120.9 81.7 120.9C81 120.9 80.4 120.8 79.9 120.5C79.4 120.2 78.9 119.9 78.6 119.4C78.3 119 78 118.5 77.8 117.9C77.6 117.3 77.5 117 77.5 116H87.2C87.2 114 86.7 112 85.8 110.8ZM77.5 115C77.6 114 77.7 113.7 77.9 113.2C78.1 112.7 78.4 112.1 78.7 111.7C79 111.3 79.5 110.9 80 110.7C80.5 110.5 81.1 110.3 81.7 110.3C82.3 110.3 82.9 110.4 83.4 110.6C83.9 110.8 84.3 111.1 84.6 111.5C84.9 111.9 85.2 112.5 85.3 113C85.5 113.5 85.6 113.8 85.6 114.8H77.5V115ZM100.3 111C99.8 110.4 99.3 109.9 98.6 109.6C97.9 109.2 97.1 109.1 96.1 109.1C95.2 109.1 94.6 109.3 93.7 109.7C92.9 110.1 92 110.7 92 111.4V105H90V122H92V120H91.7C91.9 120 92.2 120.6 92.5 120.9C92.8 121.2 93.2 121.4 93.6 121.6C94 121.8 94.4 121.9 94.8 122C95.2 122.1 95.6 122.1 96 122.1C97 122.1 97.9 121.9 98.6 121.6C99.3 121.3 99.9 120.8 100.3 120.2C100.8 119.6 101.1 118.9 101.3 118.1C101.5 117.3 101.6 116.4 101.6 115.5C101.6 114.6 101.5 113.8 101.3 113C101.1 112.3 100.8 111.6 100.3 111ZM99.8 118.1C99.6 118.7 99.3 119.2 98.9 119.6C98.5 120 98.1 120.3 97.5 120.6C97 120.8 96.4 120.9 95.8 120.9C95.1 120.9 94.5 120.8 94 120.5C93.5 120.2 93 119.9 92.7 119.4C92.3 118.9 92.1 118.4 91.9 117.7C91.7 117 91.6 116.3 91.6 115.6C91.6 114.9 91.7 114.2 91.9 113.6C92.1 113 92.4 112.4 92.7 111.9C93.1 111.4 93.5 111 94 110.8C94.5 110.5 95.1 110.4 95.8 110.4C96.5 110.4 97.2 110.5 97.7 110.8C98.2 111.1 98.7 111.5 99.1 112C99.5 112.5 99.7 113.1 99.9 113.8C100.1 114.5 100.1 115.2 100.1 116C100.1 116.8 100 117.5 99.8 118.1ZM114.2 109H112.2L106 115.3V105H105V122H106V117.1L108.4 115L113.1 122H114.8L109.5 113.8L114.2 109ZM117 109H118V122H117V109ZM117 105H119V107H117V105ZM126.2 120.9H125.5C125.2 120.9 124.9 120.9 124.7 120.8C124.5 120.7 124.4 120.6 124.3 120.5C124.2 120.4 124.1 120.2 124.1 119.9C124.1 119.7 124 119.4 124 119.1V111H126V109H124V106H123V109H121V111H123V119.7C123 120.6 123 121.3 123.4 121.6C123.8 122 124.2 122.1 125 122.1C125.4 122.1 125.9 122.1 126.1 122C126.4 121.9 126 121.9 127 121.8V120.6C126 120.8 126.4 120.8 126.2 120.9Z" fill="#3D3B47"/>
</svg>
