<svg width="128" height="128" viewBox="0 0 128 128" fill="none" xmlns="http://www.w3.org/2000/svg">
<path d="M9.31304 2.50804C5.95704 2.93804 2.99304 4.92604 1.35504 7.85205C0.457039 9.45705 0.0430391 11.07 0.0400391 12.969C0.0400391 14.758 0.337039 16.086 1.10304 17.656C2.52404 20.594 5.22004 22.664 8.57104 23.386C9.43104 23.57 11.521 23.586 12.419 23.418C16.263 22.695 19.345 20.043 20.587 16.398C21.009 15.176 21.095 14.574 21.095 13C21.095 11.469 21.052 11.117 20.677 9.90604C19.614 6.41404 16.79 3.69604 13.271 2.78104C12.095 2.47704 10.446 2.36304 9.31404 2.50804H9.31304ZM56.5 25.531C42.586 26.72 30.95 36.625 27.602 50.125C27.18 51.813 27.023 52.742 26.738 55.156C26.637 56.02 26.586 93.446 26.688 95.125C26.836 97.738 27.211 99.969 27.906 102.375C31.012 113.145 39.531 121.645 50.273 124.688C52.102 125.199 54.039 125.57 56.093 125.793C57.102 125.898 58.164 125.906 76.813 125.906C97.648 125.906 96.883 125.918 99.063 125.617C104.488 124.862 109.635 122.747 114.023 119.469C115.77 118.164 117.945 116.137 119.262 114.594C120.523 113.105 121.961 111.07 122.906 109.406C124.82 106.051 126.23 101.949 126.773 98.156C127.105 95.883 127.082 97.332 127.105 76.375C127.125 62.719 127.113 56.665 127.062 55.937C126.594 48.914 124.055 42.563 119.512 37.063C118.75 36.137 116.43 33.82 115.5 33.051C110.844 29.195 105.633 26.801 99.812 25.851C97.332 25.445 99.043 25.477 77.25 25.461C61.312 25.457 57.281 25.469 56.5 25.531ZM53.625 40.426C58.425 41.281 62.355 44.636 63.906 49.199C64.883 52.082 64.856 55.125 63.836 57.969C63.156 59.863 61.836 61.863 60.406 63.156C57.852 65.488 54.805 66.688 51.438 66.688C47.805 66.688 44.605 65.368 42.055 62.82C39.906 60.668 38.617 58.04 38.25 55.031C38.148 54.219 38.164 52.531 38.281 51.688C39.105 45.68 43.851 41.055 49.938 40.312C50.73 40.219 52.805 40.282 53.625 40.426ZM96.188 73.03C100.883 73.632 104.988 75.612 108.368 78.905C110.898 81.374 112.625 84.132 113.718 87.468C114.426 89.6011 114.688 91.206 114.73 93.593C114.773 96.023 114.57 97.718 113.96 99.863C112.645 104.542 109.563 108.8 105.5 111.553C100.25 115.116 93.852 116.124 87.664 114.366C85.32 113.706 82.524 112.269 80.562 110.726C75.398 106.647 72.43 100.554 72.438 94.011C72.445 86.729 76.211 79.96 82.438 76.069C85.238 74.312 88.406 73.261 91.875 72.937C92.73 72.854 95.27 72.913 96.188 73.03Z" fill="#004880"/>
</svg>
