<svg width="128" height="128" viewBox="0 0 128 128" fill="none" xmlns="http://www.w3.org/2000/svg">
<path d="M0.699779 45.9559C0.0357787 46.7329 -0.0502213 47.0809 0.0627787 48.0029C0.265779 49.4759 1.01578 50.2259 2.48478 50.4289C3.40678 50.5419 3.75478 50.4559 4.53178 49.7919C5.30878 49.1279 5.45378 48.8389 5.45378 47.7449C5.45378 45.9559 4.53178 45.0359 2.74378 45.0359C1.64878 45.0339 1.35978 45.1779 0.699779 45.9559ZM12.6608 51.5809C10.8438 52.2449 8.30878 54.8389 7.67578 56.6859C6.98078 58.7059 6.95378 70.2459 7.64578 72.2329C8.22278 73.9629 10.0668 76.0149 11.9108 76.9949L13.3828 77.7719H27.7968L29.2388 76.9949C30.9688 76.1009 32.2348 74.7719 33.1608 73.0149C33.8208 71.7449 33.8518 71.5149 33.8518 64.5029V57.2919L33.0718 55.8509C32.0938 53.9759 30.7658 52.7329 28.8048 51.8389C27.2498 51.1199 27.1048 51.0889 20.5898 51.1199C15.3128 51.1199 13.6998 51.2329 12.6598 51.5809H12.6608ZM16.0628 55.9359C17.7068 57.4639 17.6488 59.6859 15.9498 61.1589C13.3518 63.4359 9.46078 60.9559 10.3828 57.5809C11.0468 55.1859 14.2468 54.2649 16.0628 55.9359ZM27.6798 64.4479C31.6018 66.5219 31.6018 72.2919 27.6798 74.3699C24.3948 76.0999 20.5038 74.3109 19.5818 70.6789C18.4258 66.0609 23.4418 62.2259 27.6798 64.4489V64.4479ZM122.587 53.4289C121.981 53.6589 121.922 53.8589 121.922 55.8509V58.0149H120.336C118.836 58.0149 118.75 58.0419 118.75 58.7329C118.75 59.4289 118.836 59.4559 120.336 59.4559H121.922V65.9479C121.922 72.9279 122.094 73.9359 123.395 74.8579C124.172 75.3779 126.563 75.4949 127.43 75.0339C127.72 74.8579 127.977 74.4559 127.977 74.1399C127.977 73.6199 127.86 73.5609 127.2 73.7649C125.872 74.1399 124.778 73.9949 124.141 73.3309C123.536 72.7259 123.508 72.4359 123.422 66.0889L123.337 59.4559H125.642C127.952 59.4559 127.978 59.4559 127.978 58.7329C127.978 58.0149 127.951 58.0149 125.673 58.0149H123.396L123.306 55.5889C123.22 53.2259 123.22 53.1989 122.587 53.4289ZM53.1648 58.2459C52.5318 58.5339 51.5818 59.2529 51.0628 59.8579L50.1408 60.9279V59.4559C50.1408 58.0419 50.1108 58.0149 49.2738 58.0149H48.4108V75.0349H50.1408V69.3229C50.1408 64.3029 50.2268 63.4949 50.7148 62.4829C51.8398 60.0889 53.2548 59.1669 55.6758 59.1669C57.1178 59.1669 57.4608 59.2839 58.3258 60.0609C58.9028 60.5539 59.4808 61.4169 59.6528 61.9949C59.7968 62.5729 59.9428 65.7449 59.9428 69.0349V75.0349H61.6728V69.4089C61.6728 61.9359 61.2388 60.1469 58.9888 58.4759C57.8638 57.6399 54.7498 57.5219 53.1638 58.2459H53.1648ZM88.7968 58.1279C85.2538 59.3979 83.0318 64.2139 83.8668 68.8899C84.2428 71.0539 84.7348 72.2059 85.8598 73.3899C87.0698 74.7449 88.6838 75.4099 90.6448 75.4359C92.9218 75.4359 94.3648 74.9159 95.7188 73.5609L96.8398 72.4359V74.6859C96.8398 79.2459 94.4768 81.6659 90.0398 81.6659C88.6248 81.6659 86.0318 81.0029 85.4538 80.4829C84.9938 80.0229 84.7338 80.1979 84.7338 80.9759C84.7338 82.1589 86.8088 82.9359 90.0668 82.9639C93.0368 82.9639 94.4178 82.5609 95.8598 81.2919C98.2268 79.2449 98.5698 77.3699 98.5698 66.4639V58.0139H97.7068C96.8718 58.0139 96.8398 58.0739 96.8398 59.2259V60.4359L95.9178 59.4559C95.3978 58.9359 94.5628 58.3309 94.0478 58.1279C92.9218 57.6399 90.1248 57.6399 88.7978 58.1279H88.7968ZM93.7578 59.4829C94.6798 59.9759 95.9778 61.2129 96.4378 62.1079C96.7278 62.6589 96.8398 63.9279 96.8398 66.3779C96.8398 69.3229 96.7538 70.0419 96.2658 71.0219C94.6798 74.1399 90.2108 75.1199 87.7308 72.9289C86.2308 71.6279 85.5388 70.0419 85.3678 67.6469C85.1378 63.9289 86.3478 60.9829 88.6838 59.7719C89.9218 59.1079 92.7468 58.9639 93.7578 59.4829ZM107.68 58.1589C106.297 58.6469 104.512 60.3509 103.73 61.9359C101.801 65.9479 102.868 72.0339 105.864 74.1979C108.055 75.7839 111.629 75.8979 114.629 74.4279C115.669 73.9359 115.869 73.6779 115.869 73.0149V72.1789L114.227 73.0419C111.055 74.6589 108.231 74.4289 106.297 72.4089C105.204 71.2529 104.337 69.0609 104.337 67.4759V66.6659H117.079L116.879 64.8509C116.329 60.0609 114.169 57.6979 110.332 57.7259C109.497 57.7529 108.317 57.9289 107.68 58.1589ZM113.563 60.5219C114.629 61.6469 115.293 63.2059 115.293 64.5619V65.2259H104.337L104.513 64.4159C105.06 62.0809 106.298 60.3229 107.943 59.5729C108.49 59.3109 109.498 59.1979 110.653 59.2529C112.38 59.3389 112.556 59.4289 113.563 60.5229V60.5219ZM66.3398 64.4159C66.4258 69.6979 66.5428 71.0539 66.9768 72.0029C68.0118 74.4289 69.5978 75.4359 72.3368 75.4359C74.4998 75.4359 75.5668 74.9759 76.9218 73.4479L77.8118 72.4089V73.7329C77.8118 74.9759 77.8438 75.0339 78.6798 75.0339H79.5428V58.0139H77.8128V63.9839C77.8128 69.4639 77.7578 70.0419 77.2108 71.2259C75.7388 74.2529 71.5308 75.0889 69.3948 72.7839C68.1878 71.4839 68.0118 70.4479 68.0118 64.0419V58.0149H66.2268L66.3398 64.4159Z" fill="#004880"/>
</svg>
