<svg width="128" height="128" viewBox="0 0 128 128" fill="none" xmlns="http://www.w3.org/2000/svg">
<path d="M52.7301 55.07C52.8431 55.082 52.9491 55.113 53.0501 55.156C53.1521 55.206 53.2461 55.266 53.3241 55.343C53.4291 55.441 53.5271 55.547 53.6211 55.66L61.8281 66.035C61.7631 65.4211 61.7304 64.8043 61.7301 64.187V55.035H65.2651V72.308H63.1751C62.9082 72.316 62.6425 72.2683 62.3951 72.168C62.1491 72.0468 61.9368 71.8668 61.7771 71.644L53.6321 61.367C53.6561 61.664 53.6751 61.957 53.6911 62.246C53.7071 62.535 53.7141 62.804 53.7141 63.058V72.32H50.1841V55.035H52.2931C52.4371 55.035 52.5861 55.047 52.7301 55.07ZM70.4411 60.012V67.812C70.4411 68.422 70.5781 68.891 70.8551 69.223C71.1641 69.571 71.6131 69.754 72.0781 69.723C72.4681 69.723 72.8551 69.641 73.2111 69.473C73.5811 69.293 73.9291 69.055 74.2341 68.773V60.013H77.9101V72.305H75.6361C75.4371 72.322 75.2384 72.27 75.0734 72.1576C74.9083 72.0452 74.7871 71.8793 74.7301 71.688L74.5071 70.977C74.2771 71.204 74.0311 71.411 73.7731 71.602C73.2489 71.9819 72.6517 72.2492 72.0191 72.387C71.6625 72.4655 71.2982 72.5034 70.9331 72.5C70.3215 72.5111 69.7146 72.3915 69.1531 72.149C68.6477 71.9273 68.1997 71.5931 67.8431 71.172C67.4768 70.7381 67.202 70.2347 67.0351 69.692C66.8486 69.0846 66.7562 68.4523 66.7611 67.817V60.012H70.4411ZM80.2811 72.309V60.012H82.5581C82.7611 60.004 82.9611 60.059 83.1331 60.164C83.2931 60.278 83.4101 60.442 83.4611 60.629L83.6561 61.293C83.8561 61.083 84.0701 60.883 84.2961 60.699C84.5191 60.519 84.7581 60.367 85.0161 60.239C85.5756 59.9538 86.1961 59.8089 86.8241 59.817C87.4865 59.7902 88.1379 59.993 88.6681 60.391C89.1681 60.793 89.5511 61.324 89.7731 61.926C89.9691 61.563 90.2231 61.231 90.5271 60.953C90.8171 60.692 91.1371 60.473 91.4881 60.301C91.8355 60.1357 92.2015 60.0125 92.5781 59.934C92.9544 59.8561 93.3378 59.8169 93.7221 59.817C94.361 59.8048 94.9966 59.9106 95.5971 60.129C96.1171 60.325 96.5861 60.637 96.9651 61.043C97.3471 61.469 97.6331 61.969 97.8011 62.516C98.0001 63.153 98.0971 63.821 98.0861 64.493V72.305H94.4101V64.496C94.4101 63.223 93.8631 62.59 92.7731 62.59C92.3131 62.575 91.8631 62.754 91.5351 63.082C91.2071 63.407 91.0431 63.879 91.0431 64.497V72.309H87.3701V64.497C87.3701 63.793 87.2331 63.297 86.9561 63.017C86.6781 62.731 86.2721 62.59 85.7331 62.59C85.4051 62.59 85.0851 62.664 84.7921 62.813C84.4831 62.973 84.2021 63.176 83.9561 63.418V72.313L80.2811 72.309ZM104.23 66.535V72.308H100.222V55.035H106.316C107.378 55.0113 108.437 55.1564 109.453 55.465C110.246 55.7068 110.98 56.1099 111.609 56.649C112.163 57.1392 112.593 57.7537 112.863 58.442C113.133 59.152 113.265 59.91 113.257 60.668C113.265 61.4783 113.125 62.2832 112.843 63.043C112.573 63.7512 112.137 64.3847 111.573 64.891C110.945 65.441 110.207 65.851 109.41 66.094C108.41 66.407 107.367 66.555 106.316 66.536L104.23 66.535ZM104.23 63.512H106.316C107.359 63.512 108.113 63.266 108.57 62.766C109.027 62.266 109.257 61.578 109.257 60.68C109.262 60.3132 109.203 59.9484 109.082 59.602C108.968 59.2858 108.783 58.9998 108.542 58.766C108.28 58.5209 107.968 58.3356 107.628 58.223C107.204 58.086 106.761 58.0198 106.316 58.027H104.23V63.512ZM120.38 75.5C120.298 75.71 120.161 75.895 119.985 76.04C119.754 76.1714 119.489 76.2306 119.224 76.21H116.466L118.841 71.234L113.935 60.011H117.181C117.419 60 117.653 60.07 117.845 60.211C117.997 60.324 118.111 60.481 118.177 60.66L120.193 65.96C120.38 66.437 120.533 66.925 120.653 67.425C120.735 67.171 120.821 66.921 120.915 66.679C121.009 66.437 121.103 66.183 121.189 65.933L123.017 60.656C123.084 60.4655 123.215 60.3041 123.387 60.199C123.564 60.082 123.771 60.015 123.982 60.015H126.946L120.38 75.5Z" fill="#003042"/>
<path d="M19.1128 49.414L11.7728 45.711L3.71484 49.731L11.2578 53.516L19.1128 49.414ZM22.4798 51.113L30.1748 55L22.1908 59.007L14.6408 55.218L22.4798 51.113ZM32.7618 45.766L40.6678 49.731L33.5978 53.281L25.8828 49.391L32.7618 45.766ZM29.3548 44.059L22.2378 40.489L15.1948 44.004L22.5298 47.7L29.3548 44.059ZM23.7928 74.711V84.426L32.4138 80.121L32.4058 70.402L23.7928 74.711ZM32.4018 67.012L32.3938 57.395L23.7928 61.672V71.293L32.4018 67.012ZM42.7578 65.211V74.965L35.4018 78.633L35.3948 68.926L42.7578 65.211ZM42.7578 61.801V52.242L35.3868 55.907L35.3948 65.543L42.7578 61.801Z" fill="#4CABCF"/>
<path d="M20.746 61.6721L14.941 58.7501V71.3711C14.941 71.3711 7.83604 56.2541 7.18004 54.8981C7.09404 54.7221 6.74604 54.5271 6.65604 54.4801C5.37504 53.8121 1.64404 51.9221 1.64404 51.9221V74.2301L6.80904 76.9951V65.3321C6.80904 65.3321 13.836 78.8401 13.906 78.9881C13.98 79.1371 14.684 80.5581 15.437 81.0581C16.441 81.7221 20.742 84.3121 20.742 84.3121L20.746 61.6721Z" fill="#4C75CF"/>
</svg>
