<svg width="128" height="128" viewBox="0 0 128 128" fill="none" xmlns="http://www.w3.org/2000/svg">
<path d="M9.83609 75.2631L9.76609 75.1211C9.62309 74.8371 9.62309 74.5531 9.69409 74.1971H2.02009L13.3901 54.0151L18.1521 62.6141L19.7151 61.4771L14.9551 52.8781C14.8831 52.7361 14.3151 51.8831 13.3911 51.8831C12.9641 51.8831 12.3251 52.0251 11.8271 52.9491L0.314088 73.3451C0.243088 73.5581 -0.254912 74.4821 0.172088 75.2631C0.456088 75.6901 0.882088 76.1161 1.87709 76.1161H11.5421C10.5471 76.1161 10.0501 75.6901 9.83609 75.2631Z" fill="#00C58E"/>
<path d="M31.7239 73.4159L22.4859 56.7859C22.3439 56.6439 21.8459 55.7209 20.9229 55.7209C20.4959 55.7209 19.8569 55.9339 19.3589 56.7869L18.1509 58.7769V62.6139L20.9229 57.8529L30.0899 74.1969H26.6079C26.6663 74.5353 26.6166 74.8834 26.4659 75.1919L26.3949 75.2629C25.9679 76.0449 24.9019 76.1159 24.7599 76.1159H30.1609C30.3739 76.1159 31.3689 76.0459 31.8669 75.2629C32.0799 74.9079 32.2219 74.2689 31.7239 73.4159Z" fill="#108775"/>
<path d="M26.6791 75.2629V75.1929L26.7491 75.0499C26.8211 74.7659 26.8921 74.4819 26.8211 74.1969L26.5371 73.3449L19.2881 60.6949L18.2221 58.7759H18.1511L17.0851 60.6959L9.83611 73.3449L9.55211 74.1969C9.48328 74.5582 9.53309 74.9321 9.69411 75.2629C9.97911 75.6899 10.4051 76.1159 11.4001 76.1159H24.9021C25.1151 76.1159 26.1821 76.0459 26.6791 75.2629ZM18.1511 62.6129L24.7611 74.1969H11.5411L18.1511 62.6129Z" fill="#2F495E"/>
<path fill-rule="evenodd" clip-rule="evenodd" d="M49.5978 60.828C49.7608 61.007 49.8748 61.252 49.8578 61.512V74.8C49.8578 75.077 49.7608 75.354 49.5648 75.566C49.468 75.6667 49.3514 75.7462 49.2223 75.7996C49.0932 75.853 48.9544 75.879 48.8148 75.876C48.6518 75.876 48.4888 75.844 48.3258 75.795C48.1941 75.7491 48.0763 75.6703 47.9838 75.566L39.3758 64.366V74.898C39.3804 75.0269 39.3581 75.1554 39.3104 75.2753C39.2627 75.3951 39.1905 75.5038 39.0985 75.5942C39.0066 75.6847 38.8967 75.7551 38.7761 75.8008C38.6555 75.8466 38.5266 75.8667 38.3978 75.86C38.2759 75.8611 38.1551 75.837 38.0429 75.7894C37.9307 75.7417 37.8296 75.6715 37.7458 75.583C37.6578 75.4952 37.5879 75.3909 37.5402 75.2761C37.4925 75.1613 37.4679 75.0383 37.4678 74.914V61.594C37.4678 61.318 37.5828 61.041 37.7938 60.845C37.8853 60.7517 37.9945 60.6777 38.1151 60.6274C38.2357 60.5771 38.3651 60.5514 38.4958 60.552C38.6588 60.552 38.8378 60.584 38.9848 60.649C39.1385 60.7028 39.2737 60.7992 39.3748 60.927L47.9348 72.159V61.512C47.9303 61.3831 47.9527 61.2547 48.0005 61.135C48.0483 61.0152 48.1204 60.9067 48.2124 60.8163C48.3044 60.726 48.4141 60.6557 48.5347 60.61C48.6553 60.5643 48.784 60.5442 48.9128 60.551C49.1578 60.551 49.4028 60.632 49.5648 60.828H49.5978ZM67.3178 60.86C67.4978 61.072 67.6118 61.35 67.5958 61.61V70.022C67.6135 71.1036 67.3495 72.1712 66.8298 73.12C66.3435 74.0294 65.6081 74.7815 64.7098 75.288C63.7921 75.8287 62.7428 76.1056 61.6778 76.088C60.6064 76.0897 59.552 75.8203 58.6128 75.305C57.7205 74.7977 56.9866 74.0527 56.4928 73.153C55.9732 72.1984 55.7096 71.1256 55.7278 70.039V61.627C55.7278 61.349 55.8248 61.072 56.0538 60.877C56.2573 60.6807 56.529 60.571 56.8118 60.571C57.0945 60.571 57.3662 60.6807 57.5698 60.877C57.7648 61.072 57.8798 61.333 57.8798 61.627V70.007C57.8646 70.7258 58.0447 71.4353 58.4008 72.06C58.7307 72.6383 59.2075 73.1193 59.7829 73.4543C60.3583 73.7894 61.0119 73.9665 61.6778 73.968C62.1972 73.9703 62.7119 73.8691 63.1919 73.6704C63.6718 73.4717 64.1074 73.1795 64.4732 72.8107C64.839 72.4419 65.1277 72.0039 65.3225 71.5224C65.5173 71.0409 65.6143 70.5254 65.6078 70.006V61.626C65.6078 61.349 65.6878 61.072 65.8678 60.86C65.959 60.7565 66.0724 60.6749 66.1994 60.6213C66.3265 60.5676 66.464 60.5432 66.6018 60.55C66.8788 60.55 67.1398 60.665 67.3188 60.86H67.3178ZM84.2578 74.196C84.3825 74.378 84.4453 74.5954 84.4368 74.816C84.4436 74.9561 84.4193 75.096 84.3657 75.2256C84.3121 75.3553 84.2305 75.4715 84.1268 75.566C83.9358 75.7425 83.6858 75.8412 83.4258 75.843C83.2565 75.8473 83.0888 75.8094 82.938 75.7326C82.7871 75.6557 82.6578 75.5424 82.5618 75.403L78.3228 69.729L74.1498 75.402C74.0577 75.5427 73.9319 75.6583 73.7838 75.7381C73.6357 75.8179 73.47 75.8594 73.3018 75.859C73.1775 75.8601 73.0543 75.8362 72.9395 75.7886C72.8247 75.741 72.7207 75.6707 72.6338 75.582C72.4644 75.4191 72.3647 75.1968 72.3558 74.962C72.3558 74.702 72.4538 74.441 72.6168 74.245L77.1168 68.131L72.6008 62.067C72.4392 61.8704 72.3578 61.6201 72.3728 61.3661C72.3879 61.1121 72.4982 60.8731 72.6818 60.697C72.8355 60.5394 73.0358 60.4354 73.2531 60.4003C73.4704 60.3652 73.6933 60.4008 73.8888 60.502C74.0456 60.5742 74.1805 60.6867 74.2798 60.828L78.4858 66.468L82.6268 60.877C82.8068 60.599 83.1168 60.42 83.4588 60.387C83.7188 60.387 83.9798 60.517 84.1588 60.714C84.3388 60.877 84.4528 61.121 84.4688 61.366C84.4688 61.61 84.3878 61.822 84.2408 62.018L79.6758 68.082L84.2408 74.196H84.2578ZM99.9898 60.828C100.091 60.9205 100.172 61.0339 100.225 61.1604C100.279 61.287 100.304 61.4236 100.3 61.561C100.301 61.6973 100.273 61.8323 100.216 61.9564C100.16 62.0804 100.077 62.1906 99.9728 62.279C99.7778 62.458 99.5008 62.556 99.2228 62.539H95.3428V74.832C95.3456 74.9691 95.3195 75.1053 95.2661 75.2316C95.2126 75.3579 95.1331 75.4715 95.0328 75.565C94.8124 75.7597 94.5284 75.8672 94.2343 75.8672C93.9402 75.8672 93.6562 75.7597 93.4358 75.565C93.3342 75.4715 93.2529 75.3583 93.1969 75.2322C93.1408 75.1061 93.1112 74.9699 93.1098 74.832V62.539H89.2298C88.9528 62.539 88.6918 62.458 88.4798 62.262C88.3788 62.169 88.2989 62.0555 88.2454 61.929C88.1919 61.8026 88.1662 61.6662 88.1698 61.529C88.1698 61.268 88.2678 61.007 88.4638 60.828C88.6758 60.632 88.9528 60.534 89.2138 60.551H99.2238C99.5008 60.551 99.7778 60.632 99.9898 60.828Z" fill="#2E495E"/>
<path fill-rule="evenodd" clip-rule="evenodd" d="M104.75 75.484C104.04 75.0863 103.449 74.5063 103.038 73.804C102.923 73.6291 102.855 73.427 102.843 73.218C102.841 73.0819 102.87 72.9472 102.926 72.8233C102.982 72.6994 103.065 72.5894 103.169 72.501C103.349 72.305 103.593 72.207 103.853 72.174C104.245 72.224 104.603 72.419 104.832 72.729C105.067 73.1266 105.404 73.4541 105.808 73.6776C106.212 73.9011 106.668 74.0124 107.13 74C107.505 74.011 107.878 73.9466 108.228 73.8106C108.578 73.6746 108.897 73.4698 109.166 73.2083C109.435 72.9468 109.649 72.634 109.795 72.2883C109.941 71.9427 110.016 71.5712 110.016 71.196V61.61C110.013 61.4689 110.04 61.3288 110.097 61.1993C110.153 61.0698 110.237 60.9541 110.342 60.86C110.551 60.6638 110.826 60.5532 111.113 60.5503C111.4 60.5473 111.678 60.6521 111.891 60.844C111.988 60.9428 112.064 61.0602 112.114 61.1891C112.164 61.318 112.188 61.4557 112.184 61.594V71.213C112.202 72.0752 111.983 72.9259 111.552 73.6729C111.121 74.4199 110.494 75.0347 109.739 75.451C108.982 75.8817 108.127 76.111 107.257 76.1168C106.386 76.1225 105.528 75.9047 104.766 75.484H104.75ZM119.83 75.549C118.957 75.2224 118.159 74.7235 117.483 74.082C117.347 73.9775 117.236 73.8446 117.157 73.6926C117.078 73.5406 117.033 73.3731 117.026 73.202C117.027 73.0662 117.057 72.9323 117.113 72.8087C117.169 72.6851 117.251 72.5745 117.352 72.484C117.442 72.3878 117.55 72.3107 117.671 72.2575C117.791 72.2042 117.921 72.1758 118.053 72.174C118.298 72.174 118.51 72.256 118.689 72.419C119.211 72.909 119.83 73.316 120.482 73.609C121.167 73.869 121.884 74 122.602 74C123.427 74.0216 124.239 73.7944 124.933 73.348C125.503 73.022 125.879 72.419 125.879 71.751C125.884 71.4012 125.8 71.0558 125.635 70.7476C125.469 70.4394 125.227 70.1786 124.933 69.99C124.056 69.4808 123.095 69.1329 122.096 68.963C120.596 68.637 119.439 68.148 118.624 67.447C117.809 66.746 117.417 65.767 117.417 64.528C117.395 63.7136 117.635 62.9136 118.102 62.246C118.576 61.5885 119.218 61.0704 119.961 60.746C121.652 60.0718 123.532 60.0429 125.243 60.665C125.97 60.907 126.637 61.3015 127.199 61.822C127.493 62.05 127.689 62.392 127.689 62.752C127.689 62.8824 127.663 63.0115 127.613 63.1317C127.562 63.2519 127.488 63.3608 127.395 63.452C127.306 63.5556 127.196 63.6385 127.072 63.6949C126.948 63.7512 126.813 63.7796 126.677 63.778C126.498 63.7756 126.326 63.7125 126.188 63.599C125.229 62.7394 123.987 62.2634 122.7 62.262C121.881 62.2172 121.068 62.4219 120.368 62.849C120.102 63.0262 119.884 63.2662 119.734 63.5477C119.583 63.8293 119.504 64.1437 119.504 64.463C119.504 64.7823 119.583 65.0967 119.734 65.3783C119.884 65.6598 120.102 65.8998 120.368 66.077C121.165 66.5468 122.036 66.8775 122.944 67.055C123.906 67.235 124.835 67.545 125.732 67.919C126.417 68.229 127.003 68.702 127.411 69.321C127.835 70.039 128.031 70.838 127.998 71.669C128.017 72.4755 127.77 73.2658 127.297 73.919C126.8 74.602 126.123 75.1326 125.341 75.451C123.567 76.1291 121.611 76.1638 119.814 75.549H119.83Z" fill="#00C48D"/>
</svg>
