<svg width="128" height="128" viewBox="0 0 128 128" fill="none" xmlns="http://www.w3.org/2000/svg">
<path d="M39.2668 108.97L38.9828 108.403C38.4158 107.268 38.4158 106.133 38.6998 104.714H8.05881L53.4538 24.1399L72.4628 58.4699L78.7038 53.9299L59.6948 19.5999C59.4118 19.0329 57.1418 15.6289 53.4538 15.6289C51.7508 15.6289 49.1978 16.1959 47.2118 19.8839L1.24981 101.31C0.965808 102.162 -1.02019 105.85 0.681808 108.97C1.81681 110.673 3.51981 112.375 7.49181 112.375H46.0768C42.1048 112.375 40.1188 110.673 39.2668 108.971V108.97Z" fill="#00C58E"/>
<path d="M126.65 101.59L89.7669 35.2011C89.1999 34.6341 87.2139 30.9451 83.5249 30.9451C81.8229 30.9451 79.2699 31.7961 77.2839 35.2011L72.4609 43.1451V58.4661L83.5259 39.4571L120.125 104.711H106.223C106.455 106.062 106.257 107.452 105.655 108.683L105.371 108.967C103.669 112.087 99.4129 112.371 98.8459 112.371H120.408C121.259 112.371 125.231 112.088 127.217 108.967C128.068 107.548 128.636 104.995 126.65 101.59Z" fill="#108775"/>
<path d="M106.51 108.97V108.686L106.794 108.119C107.077 106.984 107.361 105.849 107.077 104.714L105.943 101.31L77.0049 50.8089L72.7489 43.1489H72.4649L68.2089 50.8089L39.2709 101.309L38.1369 104.714C37.8621 106.157 38.061 107.65 38.7039 108.97C39.8389 110.672 41.5409 112.375 45.5129 112.375H99.4189C100.27 112.375 104.526 112.091 106.512 108.97H106.51ZM72.4639 58.4689L98.8499 104.714H46.0789L72.4639 58.4689Z" fill="#2F495E"/>
</svg>
