<svg width="128" height="128" viewBox="0 0 128 128" fill="none" xmlns="http://www.w3.org/2000/svg">
<path d="M39.2668 108.97L38.9828 108.403C38.4158 107.268 38.4158 106.133 38.6998 104.714H8.05881L53.4538 24.138L72.4638 58.468L78.7048 53.928L59.6948 19.598C59.4118 19.031 57.1418 15.627 53.4538 15.627C51.7508 15.627 49.1978 16.194 47.2118 19.883L1.24981 101.31C0.965808 102.16 -1.02019 105.85 0.681808 108.97C1.81681 110.672 3.51881 112.375 7.49181 112.375H46.0778C42.1048 112.375 40.1188 110.672 39.2678 108.97H39.2668ZM126.652 101.593L89.7688 35.203C89.2018 34.635 87.2148 30.946 83.5268 30.946C81.8248 30.946 79.2708 31.798 77.2848 35.202L72.4618 43.146V58.467L83.5268 39.457L120.127 104.713H106.224C106.457 106.064 106.258 107.454 105.657 108.686L105.373 108.969C103.671 112.09 99.4148 112.374 98.8468 112.374H120.41C121.261 112.374 125.233 112.09 127.22 108.969C128.07 107.551 128.638 104.997 126.652 101.593ZM106.508 108.97V108.686L106.792 108.119C107.075 106.984 107.359 105.849 107.075 104.714L105.941 101.31L76.9998 50.808L72.7448 43.148H72.4608L68.2048 50.808L39.2658 101.31L38.1308 104.714C37.8563 106.157 38.0555 107.65 38.6988 108.97C39.8338 110.672 41.5358 112.375 45.5088 112.375H99.4148C100.266 112.375 104.522 112.091 106.508 108.97ZM72.4618 58.468L98.8478 104.714H46.0758L72.4618 58.468Z" fill="black"/>
</svg>
