<svg width="128" height="128" viewBox="0 0 128 128" fill="none" xmlns="http://www.w3.org/2000/svg">
<path d="M63.877 125.392C31.206 125.392 3.50703 97.798 3.25003 64.923C3.19398 56.992 4.71246 49.1288 7.71747 41.7889C10.7225 34.4491 15.1543 27.7786 20.756 22.164C26.3948 16.3903 33.1243 11.7942 40.5537 8.64245C47.9832 5.49068 55.9648 3.84603 64.035 3.80398C71.9603 3.79726 79.8087 5.35861 87.1279 8.39809C94.4472 11.4376 101.093 15.8951 106.682 21.514C112.364 27.0535 116.894 33.6626 120.01 40.9605C123.126 48.2584 124.767 56.1009 124.839 64.036C124.99 97.64 97.975 125.057 64.37 125.399H63.877V125.392ZM64.067 6.98598C56.418 7.03133 48.8542 8.59516 41.8143 11.5867C34.7745 14.5783 28.3987 18.938 23.057 24.413C17.7444 29.7251 13.5389 36.0388 10.6842 42.9881C7.82959 49.9375 6.38257 57.3843 6.42703 64.897C6.66303 96.056 32.922 122.183 63.857 122.183H64.271C96.134 121.893 121.775 95.917 121.656 64.055C121.585 56.5382 120.027 49.1098 117.072 42.1978C114.118 35.2858 109.824 29.027 104.439 23.782C99.1565 18.4496 92.8679 14.219 85.9377 11.3358C79.0076 8.45261 71.574 6.97407 64.068 6.98598H64.067Z" fill="#0B5A9D"/>
<path d="M16.8902 82.3829V46.8649H25.5302V50.0479H20.9472V79.2659H25.5312V82.4489L16.8892 82.3829H16.8902ZM46.2132 64.2719C46.2132 70.7499 42.2802 74.4389 36.9532 74.4389C31.6262 74.4389 28.0762 70.2829 28.0762 64.6079C28.0762 58.6689 31.7982 54.4869 37.2432 54.4869C42.6882 54.4869 46.2132 58.8469 46.2132 64.2719ZM31.7982 64.5619C31.7982 68.4939 33.7712 71.6119 37.1582 71.6119C40.5452 71.6119 42.4912 68.4289 42.4912 64.4169C42.4912 60.7739 40.6952 57.3339 37.1572 57.3339C33.6192 57.3339 31.7652 60.6619 31.7652 64.6409L31.7982 64.5609V64.5619ZM49.2052 55.1579C50.8952 54.8679 52.6122 54.7239 54.3282 54.7299C56.2567 54.5423 58.1951 54.9705 59.8652 55.9529C60.4918 56.3203 61.0084 56.849 61.3612 57.4839C61.714 58.1188 61.8901 58.8368 61.8712 59.5629C61.8489 60.5065 61.5292 61.4191 60.9576 62.1702C60.386 62.9214 59.5917 63.4729 58.6882 63.7459C60.9572 64.2059 62.5882 66.2059 62.5882 68.5209C62.6 69.2817 62.4386 70.0352 62.1162 70.7244C61.7937 71.4136 61.3188 72.0204 60.7272 72.4989C59.3592 73.7089 57.0842 74.2949 53.5652 74.2949C52.1188 74.3014 50.6735 74.2156 49.2382 74.0379L49.2052 55.1579ZM52.7042 62.7799H54.4992C56.9322 62.7799 58.3002 61.6349 58.3002 59.9979C58.3002 58.3599 56.9322 57.3539 54.6902 57.3539C54.0183 57.3331 53.3461 57.3817 52.6842 57.4989L52.7042 62.7789V62.7799ZM52.7042 71.6579C53.3222 71.7229 53.9472 71.7499 54.5642 71.7359C56.8272 71.7359 58.8262 70.8749 58.8262 68.5539C58.8262 66.2329 56.8862 65.3709 54.4532 65.3709H52.7032V71.6579H52.7042ZM69.5402 54.9009H73.0572V67.4549C73.0572 72.7889 70.4802 74.5709 66.6922 74.5709C65.6802 74.5645 64.676 74.3933 63.7192 74.0639L64.1472 71.2299C64.8502 71.4539 65.5872 71.5649 66.3302 71.5789C68.3362 71.5789 69.5132 70.6579 69.5132 67.3169L69.5392 54.9009H69.5402ZM83.0672 65.3569V67.7909H75.7472V65.3569H83.0672ZM100.158 73.6299C98.5732 74.2619 96.8772 74.5509 95.1802 74.4919C89.0512 74.4919 85.3292 70.6579 85.3292 64.7849C85.0462 59.4319 89.1562 54.8619 94.5092 54.5789C94.8842 54.5589 95.2662 54.5589 95.6402 54.5849C97.2759 54.5169 98.9064 54.8113 100.415 55.4469L99.6322 58.2479C98.4344 57.7405 97.1449 57.4852 95.8442 57.4979C91.9122 57.4979 89.0842 59.9649 89.0842 64.6139C89.0842 68.8489 91.5832 71.5849 95.8182 71.5849C97.1313 71.605 98.4351 71.3612 99.6522 70.8679L100.158 73.6299ZM111.2 46.7659V82.3759H102.559V79.1939H107.142V49.9489H102.559V46.7659H111.199H111.2Z" fill="#0B5A9D"/>
</svg>
