<svg width="128" height="128" viewBox="0 0 128 128" fill="none" xmlns="http://www.w3.org/2000/svg">
<path fill-rule="evenodd" clip-rule="evenodd" d="M63.1561 53.5819L64.0001 53.2419C63.1561 52.4139 62.7231 52.2189 63.1561 53.5819Z" fill="#484444"/>
<path fill-rule="evenodd" clip-rule="evenodd" d="M94.0119 0.991943H30.9299C25.0739 0.991943 20.3159 6.06594 20.3159 12.3279V37.0549C21.8319 36.4729 24.0229 33.0199 24.6989 32.1799C25.9059 30.7149 26.1209 28.8399 26.7189 27.6599C28.0789 24.9799 28.3119 23.1289 31.4059 23.1289C32.8439 23.1289 33.4139 23.4889 34.3949 24.8829C35.0619 25.8479 36.2379 27.6449 36.7849 28.8399C37.4179 30.2229 38.4489 32.0979 38.9019 32.4769C39.2379 32.7539 39.5739 32.9609 39.8789 33.0899C40.3789 33.2929 40.7969 32.9179 41.1289 32.6369C41.5589 32.2699 41.7459 31.5309 42.1409 30.5429C42.7149 29.1169 43.3319 27.4099 43.6839 26.8129C44.2969 25.7809 44.5079 24.5629 45.1719 23.9649C46.1479 23.0939 47.4259 23.0309 47.7699 22.9649C49.7339 22.5429 50.6209 23.9649 51.5899 24.8869C52.2229 25.4879 53.0819 26.6989 53.6999 28.3279C54.1719 29.5939 54.7899 30.7699 55.0399 31.5039C55.2849 32.2139 55.9019 33.3439 56.2539 34.7069C56.5899 35.9369 57.4569 36.8829 57.7929 37.4729C57.7929 37.4729 58.3049 38.9999 61.4059 40.3869C62.0779 40.6949 63.4379 41.1799 64.2499 41.4969C65.5939 42.0199 66.8949 41.9529 68.5629 41.7419C69.7499 41.7419 70.3909 39.9099 70.9259 38.4449C71.2459 37.5779 71.5509 35.0939 71.7619 34.3869C71.9569 33.6989 71.4879 33.1759 71.8869 32.5739C72.3589 31.8669 72.6369 31.8319 72.9099 30.9179C73.4919 28.9609 76.8519 28.8589 78.7339 28.8589C80.3199 28.8589 80.1089 30.4889 82.7809 29.9339C84.3119 29.6139 85.7769 30.1439 87.4109 30.5979C88.7699 30.9919 90.0549 31.4299 90.8209 32.3949C91.3319 33.0149 92.5629 36.1369 91.3049 36.2649C91.4219 36.4249 91.5119 36.7149 91.7379 36.8629C91.4609 38.0469 90.2339 37.2029 89.5549 37.0549C88.6409 36.8519 87.9959 37.0819 87.1019 37.5079C85.5779 38.2339 83.3439 38.1449 82.0119 39.3319C80.8789 40.3359 80.8789 42.5739 80.3549 43.8359C80.3549 43.8359 78.8909 47.8519 75.6909 50.3089C74.8749 50.9409 73.2729 52.4529 69.7929 53.0269C68.2339 53.2849 66.7699 53.3089 65.1679 53.2229L62.8549 53.1289C62.3949 53.1249 60.8349 53.0699 60.9219 53.2299L60.7459 53.6879C60.7729 53.8439 60.8279 54.2229 60.8439 54.3159C60.9099 54.6839 60.9299 54.9799 60.9369 55.3199C60.9649 56.0269 60.8869 56.7619 60.9219 57.4729C60.9839 58.9409 61.4959 60.2849 61.5619 61.7699C61.6319 63.4299 62.4059 65.1799 63.1479 66.5309C63.4259 67.0429 63.8519 67.0979 64.0429 67.7339C64.2579 68.464 64.0509 69.2339 64.1639 70.0039C64.5779 73.0039 65.3829 76.1409 66.6559 78.8519L66.6799 78.9179C68.2499 78.6369 69.8119 78.0389 71.8399 77.7179C75.5739 77.1249 80.7539 77.4339 84.0779 77.0979C92.4999 76.2579 97.0739 80.785 104.637 78.9299V12.3279C104.637 6.06594 99.8829 0.991943 94.0119 0.991943ZM62.5429 54.1999C62.5309 54.0639 62.5429 54.0799 62.5589 54.1649L62.5429 54.1999Z" fill="#F29100"/>
<path fill-rule="evenodd" clip-rule="evenodd" d="M39.8199 63.672C40.4139 62.352 40.7459 60.848 41.2379 59.504C41.7109 58.207 42.4379 56.375 43.6839 55.723C43.5309 55.539 41.0859 55.457 40.4299 55.395L38.3129 55.082L34.2339 54.222C33.4369 54.027 30.8039 53.07 30.2339 52.801C28.8909 52.164 27.9959 50.441 26.9449 50.617C26.2809 50.73 25.6169 50.961 25.2069 51.657C24.8629 52.227 24.7539 53.195 24.5159 53.847C24.2419 54.605 23.7729 55.309 23.3519 56.031C22.6019 57.351 21.2269 58.551 20.6369 59.84C20.513 60.1224 20.4062 60.4119 20.3169 60.707V75.437L22.5269 75.93C28.4729 77.55 29.9259 77.695 35.7499 77.008L36.2999 76.934C36.7499 75.98 37.0939 72.738 37.3789 71.738C37.6049 70.965 37.9139 70.355 38.0309 69.57C38.1369 68.824 38.0229 68.11 37.9569 67.438C37.7929 65.734 39.1639 65.128 39.8199 63.672Z" fill="#F29100"/>
<path fill-rule="evenodd" clip-rule="evenodd" d="M13.809 127.004C11.754 127.004 9.887 126.48 8.191 125.437C6.496 124.387 5.043 122.887 3.828 120.926C2.618 118.965 1.68 116.586 1.008 113.77C0.34 110.965 0 107.78 0 104.223C0 100.66 0.34 97.4879 1.008 94.7069C1.684 91.9219 2.618 89.5859 3.828 87.6909C5.043 85.7969 6.496 84.3509 8.191 83.3509C9.887 82.3479 11.754 81.8439 13.809 81.8439C15.859 81.8439 17.73 82.3479 19.426 83.3519C21.121 84.3519 22.57 85.8049 23.786 87.7269C24.996 89.6449 25.937 91.9919 26.609 94.7699C27.273 97.5499 27.613 100.703 27.613 104.223C27.613 107.781 27.281 110.969 26.609 113.77C25.937 116.582 24.996 118.965 23.785 120.93C22.57 122.89 21.117 124.387 19.422 125.437C17.734 126.48 15.859 127.004 13.805 127.004H13.809ZM13.809 118.524C15.891 118.524 17.535 117.238 18.75 114.68C19.96 112.121 20.574 108.637 20.574 104.227C20.574 99.8629 19.961 96.4569 18.75 94.0069C17.535 91.5619 15.89 90.3319 13.805 90.3319C11.727 90.3319 10.078 91.5619 8.863 94.0079C7.653 96.4569 7.047 99.8629 7.047 104.227C7.047 108.637 7.652 112.121 8.863 114.68C10.078 117.238 11.727 118.52 13.809 118.52V118.524ZM30.03 104.69C30.03 101.089 30.42 97.8699 31.194 95.0419C31.979 92.2139 33.026 89.8189 34.343 87.8619C35.647 85.9169 37.226 84.3939 38.968 83.3859C40.722 82.3619 42.578 81.8509 44.538 81.8509C46.436 81.8509 48.148 82.4169 49.686 83.5579C51.229 84.6979 52.511 86.0109 53.534 87.5299L49.761 93.6159C48.976 92.5959 48.194 91.7919 47.401 91.2099C46.612 90.6359 45.691 90.3429 44.631 90.3429C43.569 90.3429 42.585 90.6669 41.671 91.3119C40.749 91.9519 39.956 92.8779 39.265 94.0849C38.581 95.2849 38.05 96.7529 37.663 98.4909C37.269 100.226 37.081 102.191 37.081 104.366C37.081 108.862 37.749 112.351 39.081 114.819C40.421 117.292 42.206 118.53 44.448 118.53C45.694 118.53 46.776 118.179 47.71 117.46C48.644 116.745 49.483 115.812 50.23 114.651L54.007 120.601C52.733 122.733 51.277 124.339 49.647 125.401C48.019 126.464 46.245 127.007 44.354 127.007C42.4114 127.01 40.5005 126.515 38.804 125.569C37.084 124.636 35.526 123.187 34.234 121.327C32.924 119.452 31.897 117.127 31.155 114.347C30.409 111.562 30.038 108.343 30.038 104.694L30.03 104.69ZM56.284 116.983C56.284 113.511 57.304 110.792 59.358 108.835C61.409 106.878 64.726 105.562 69.288 104.894C69.229 103.421 68.917 102.253 68.354 101.386C67.796 100.519 66.897 100.089 65.651 100.089C64.659 100.089 63.663 100.351 62.671 100.889C61.679 101.421 60.616 102.155 59.503 103.089L57.077 96.6159C58.569 95.3159 60.132 94.2719 61.765 93.4719C63.381 92.6723 65.1611 92.2604 66.964 92.2689C69.948 92.2689 72.226 93.4869 73.792 95.9089C75.366 98.3349 76.147 102.112 76.147 107.233V126.2H70.554L70.038 122.798H69.898C68.905 124.044 67.854 125.06 66.753 125.833C65.651 126.614 64.444 127.009 63.143 127.009C62.081 127.009 61.136 126.751 60.292 126.239C59.46 125.724 58.742 125.017 58.155 124.106C57.5333 123.126 57.068 122.054 56.776 120.931C56.452 119.731 56.284 118.415 56.284 116.993V116.983ZM62.808 116.245C62.808 117.315 63.05 118.112 63.534 118.624C64.014 119.132 64.659 119.39 65.468 119.39C66.272 119.39 66.96 119.144 67.522 118.655C68.077 118.159 68.667 117.479 69.288 116.581V110.761C66.838 111.257 65.14 111.968 64.21 112.901C63.272 113.839 62.812 114.952 62.812 116.241L62.808 116.245ZM80.156 93.0699H85.754L86.214 97.3399H86.402C87.372 95.9649 88.391 94.7659 89.484 93.7659C90.57 92.7619 91.875 92.2659 93.398 92.2659C95.047 92.2659 96.371 92.7379 97.387 93.7029C98.391 94.6719 99.195 96.0349 99.785 97.8129C100.813 96.3009 101.891 94.9999 103.023 93.9029C104.164 92.8129 105.5 92.2699 107.059 92.2699C109.547 92.2699 111.375 93.4649 112.539 95.8439C113.703 98.2299 114.285 101.488 114.285 105.633V126.199H107.425V106.899C107.425 104.492 107.203 102.839 106.754 101.957C106.301 101.07 105.582 100.621 104.59 100.621C103.434 100.621 102.117 101.688 100.625 103.824V126.2H93.765V106.9C93.765 104.493 93.543 102.84 93.094 101.958C92.644 101.071 91.922 100.622 90.93 100.622C89.742 100.622 88.434 101.689 87.008 103.825V126.2H80.156V93.0699ZM118.246 79.3789H125.106V116.316C125.106 117.34 125.234 118.055 125.504 118.449C125.762 118.855 126.027 119.055 126.316 119.055H126.715C126.828 119.055 126.977 119.012 127.16 118.922L128 126.199C127.629 126.422 127.152 126.613 126.574 126.769C126.004 126.926 125.332 127.004 124.547 127.004C123.367 127.004 122.375 126.734 121.567 126.199C120.766 125.672 120.117 124.922 119.637 123.965C119.157 123.008 118.805 121.848 118.586 120.492C118.367 119.132 118.258 117.613 118.258 115.918L118.246 79.3789Z" fill="#484444"/>
<path fill-rule="evenodd" clip-rule="evenodd" d="M64.0081 74.574C63.6951 73.961 63.301 72.766 63.043 72.238C62.797 71.746 62.047 70.465 61.676 70.051C60.859 69.156 60.6681 69.09 60.43 67.957C60.0121 65.984 58.91 62.41 57.6101 59.945C56.938 58.672 55.8241 57.602 54.805 56.68C53.91 55.871 51.902 54.508 51.551 54.578C48.27 55.191 47.2501 58.218 45.7071 60.618C44.8521 61.941 43.949 63.07 43.273 64.48C42.653 65.777 42.7071 67.215 41.6451 68.328C40.5511 69.473 39.84 70.691 39.309 72.168C39.203 72.445 38.9181 75.395 38.6021 76.094L43.48 75.77C48.027 76.066 46.715 77.703 53.813 77.344L65.016 77.02C64.668 76.055 64.187 74.938 64.004 74.574H64.0081Z" fill="#F29100"/>
</svg>
