<svg width="128" height="128" viewBox="0 0 128 128" fill="none" xmlns="http://www.w3.org/2000/svg">
<path d="M64.4612 78.3401C64.1412 77.6641 63.7462 76.3401 63.4842 75.7621C63.2342 75.2121 62.4772 73.7971 62.0942 73.3441C61.2662 72.3521 61.0742 72.2771 60.8322 71.0271C60.4142 68.8521 59.2892 64.9021 57.9722 62.1761C57.2932 60.7701 56.1602 59.5901 55.1252 58.5661C54.2192 57.6801 52.1802 56.1681 51.8252 56.2461C48.4962 56.9221 47.4572 60.2701 45.9022 62.9181C45.0322 64.3831 44.1172 65.6291 43.4262 67.1911C42.8012 68.6251 42.8522 70.2071 41.7732 71.4381C40.6682 72.7031 39.9492 74.0471 39.4032 75.6801C39.2972 75.9881 39.0122 79.2461 38.6992 80.0201V80.0241L43.6492 79.6641C48.2542 79.9881 46.9182 81.7931 54.1252 81.3991L65.4882 81.0431C65.1332 79.9731 64.6452 78.7431 64.4612 78.3401Z" fill="#010202"/>
<path d="M97.0272 0.968994H30.9652C24.8212 0.968994 19.8442 6.17899 19.8442 12.606V37.996C21.4342 37.399 23.7312 33.856 24.4422 32.993C25.7002 31.485 25.9222 29.567 26.5472 28.353C27.9732 25.598 28.2232 23.703 31.4492 23.703C32.9652 23.703 33.5672 24.063 34.5792 25.505C35.2892 26.493 36.5192 28.337 37.0982 29.567C37.7622 30.985 38.8402 32.903 39.3052 33.294C39.6682 33.579 40.0052 33.798 40.3322 33.923C40.8632 34.13 41.2972 33.755 41.6492 33.458C42.0982 33.087 42.2892 32.325 42.7032 31.313C43.2972 29.849 43.9492 28.095 44.3242 27.481C44.9652 26.427 45.1922 25.169 45.8792 24.559C46.8992 23.665 48.2312 23.602 48.5982 23.529C50.6532 23.102 51.5902 24.559 52.5982 25.509C53.2582 26.122 54.1642 27.369 54.8052 29.036C55.3092 30.341 55.9492 31.548 56.2152 32.302C56.4732 33.024 57.1142 34.192 57.4852 35.582C57.8282 36.852 58.7502 37.822 59.1052 38.427C59.1052 38.427 59.6372 39.993 62.8832 41.423C63.5832 41.735 65.0082 42.235 65.8602 42.559C67.2662 43.095 68.6332 43.029 70.3752 42.806C71.6172 42.806 72.2932 40.931 72.8552 39.423C73.1922 38.536 73.5052 35.985 73.7272 35.259C73.9302 34.559 73.4342 34.013 73.8672 33.399C74.3562 32.673 74.6412 32.637 74.9262 31.696C75.5392 29.684 79.0512 29.583 81.0392 29.583C82.6762 29.583 82.4732 31.259 85.2692 30.684C86.8682 30.356 88.4102 30.904 90.1142 31.372C91.5392 31.77 92.8912 32.223 93.6962 33.212C94.2192 33.852 95.5202 37.056 94.1922 37.192C94.3212 37.352 94.4142 37.645 94.6522 37.805C94.3602 39.016 93.0782 38.157 92.3722 37.997C91.4112 37.79 90.7352 38.028 89.7972 38.462C88.2002 39.208 85.8562 39.122 84.4532 40.337C83.2782 41.367 83.2782 43.665 82.7312 44.954C82.7312 44.954 81.1912 49.083 77.8512 51.606C76.9852 52.255 75.3092 53.809 71.6682 54.399C70.0352 54.661 68.5042 54.684 66.8212 54.599C66.0012 54.555 65.2232 54.513 64.4032 54.501C63.9142 54.497 62.2812 54.438 62.3672 54.606L62.1872 55.079C62.2152 55.231 62.2742 55.622 62.2932 55.716C62.3632 56.098 62.3752 56.403 62.3872 56.751C62.4102 57.477 62.3372 58.227 62.3672 58.961C62.4372 60.473 62.9772 61.852 63.0432 63.376C63.1212 65.076 63.9262 66.876 64.6992 68.263C64.9922 68.793 65.4452 68.848 65.6452 69.501C65.8632 70.247 65.6492 71.036 65.7622 71.829C66.1992 74.911 67.0552 78.134 68.3792 80.915C68.3832 80.935 68.3952 80.962 68.4062 80.985C70.0432 80.696 71.6882 80.079 73.8132 79.747C77.7112 79.141 83.1372 79.454 86.6252 79.114C95.4492 78.247 100.234 82.899 108.155 80.993V12.606C108.155 6.17999 103.175 0.968994 97.0272 0.968994ZM64.0702 55.598C64.0582 55.453 64.0702 55.477 64.0862 55.563L64.0702 55.598Z" fill="#010202"/>
<path d="M40.551 66.078C41.18 64.695 41.535 63.118 42.055 61.699C42.551 60.339 43.325 58.422 44.653 57.739C44.489 57.547 41.883 57.461 41.196 57.387C40.44 57.3165 39.6878 57.2097 38.942 57.067C37.536 56.781 36.004 56.496 34.625 56.16C33.785 55.953 30.985 54.95 30.379 54.668C28.949 54 28.004 52.191 26.891 52.378C26.184 52.492 25.485 52.738 25.043 53.468C24.673 54.058 24.551 55.082 24.305 55.765C24.015 56.558 23.508 57.301 23.078 58.058C22.27 59.449 20.817 60.703 20.196 62.055C20.0584 62.3514 19.9408 62.6568 19.844 62.969V78.429C20.574 78.559 21.34 78.715 22.199 78.945C28.512 80.652 30.043 80.797 36.234 80.078L36.816 80C37.281 79 37.652 75.594 37.953 74.543C38.199 73.738 38.527 73.093 38.649 72.273C38.769 71.488 38.637 70.738 38.574 70.031C38.394 68.246 39.859 67.609 40.551 66.078ZM13.891 127.03C11.828 127.03 9.941 126.522 8.239 125.51C6.532 124.499 5.071 123.05 3.852 121.155C2.629 119.265 1.684 116.96 1.008 114.245C0.336 111.538 0 108.464 0 105.018C0 101.577 0.336 98.506 1.008 95.819C1.684 93.131 2.629 90.869 3.852 89.042C5.071 87.214 6.532 85.815 8.239 84.846C9.942 83.878 11.829 83.393 13.891 83.393C15.957 83.393 17.844 83.878 19.551 84.846C21.254 85.816 22.715 87.226 23.938 89.076C25.157 90.925 26.102 93.198 26.77 95.886C27.446 98.573 27.782 101.62 27.782 105.018C27.782 108.464 27.446 111.538 26.77 114.245C26.102 116.96 25.157 119.265 23.938 121.155C22.715 123.05 21.254 124.503 19.551 125.511C17.844 126.522 15.957 127.031 13.891 127.031V127.03ZM13.891 118.83C15.985 118.83 17.645 117.596 18.868 115.12C20.086 112.647 20.7 109.28 20.7 105.018C20.7 100.803 20.086 97.51 18.868 95.139C17.645 92.776 15.985 91.592 13.891 91.592C11.801 91.592 10.141 92.776 8.914 95.139C7.7 97.51 7.09 100.803 7.09 105.018C7.09 109.28 7.7 112.647 8.914 115.12C10.141 117.596 11.801 118.83 13.891 118.83ZM30.758 105.47C30.758 101.982 31.133 98.88 31.875 96.142C32.613 93.412 33.613 91.099 34.867 89.204C36.125 87.314 37.594 85.872 39.266 84.884C40.934 83.888 42.707 83.396 44.571 83.396C46.375 83.396 48.011 83.946 49.477 85.044C50.9076 86.1053 52.1455 87.4041 53.137 88.884L49.539 94.759C48.801 93.767 48.059 92.989 47.301 92.431C46.547 91.872 45.664 91.591 44.661 91.591C43.652 91.591 42.715 91.907 41.84 92.529C40.969 93.154 40.203 94.044 39.555 95.209C38.899 96.369 38.395 97.79 38.027 99.466C37.652 101.146 37.469 103.04 37.469 105.146C37.469 109.493 38.106 112.865 39.375 115.248C40.649 117.638 42.352 118.83 44.481 118.83C45.664 118.83 46.707 118.486 47.594 117.799C48.481 117.112 49.278 116.209 49.988 115.088L53.582 120.834C52.372 122.9 50.985 124.451 49.434 125.482C47.883 126.513 46.199 127.033 44.391 127.033C42.524 127.033 40.77 126.568 39.11 125.643C37.45 124.72 36 123.353 34.762 121.545C33.516 119.736 32.539 117.486 31.828 114.795C31.118 112.111 30.758 109.002 30.758 105.47ZM56.559 117.24C56.559 113.846 57.532 111.19 59.477 109.275C61.427 107.361 64.571 106.076 68.903 105.424C68.848 103.99 68.551 102.845 68.02 101.998C67.485 101.146 66.633 100.724 65.457 100.724C64.504 100.724 63.559 100.986 62.622 101.51C61.676 102.033 60.672 102.748 59.61 103.666L57.31 97.33C58.72 96.068 60.204 95.049 61.762 94.263C63.2885 93.4848 64.9786 93.082 66.692 93.088C69.52 93.088 71.688 94.275 73.18 96.646C74.668 99.021 75.41 102.705 75.41 107.712V126.243H70.102L69.614 122.915H69.484C68.536 124.134 67.54 125.126 66.493 125.884C65.442 126.646 64.305 127.028 63.063 127.028C62.059 127.028 61.157 126.775 60.368 126.278C59.567 125.778 58.883 125.079 58.325 124.188C57.762 123.298 57.333 122.263 57.024 121.091C56.707 119.915 56.559 118.631 56.559 117.239V117.24ZM62.75 116.521C62.75 117.564 62.985 118.338 63.434 118.838C63.894 119.338 64.504 119.588 65.278 119.588C66.043 119.588 66.692 119.349 67.223 118.873C67.754 118.393 68.317 117.717 68.903 116.846V111.166C66.579 111.642 64.965 112.342 64.083 113.252C63.196 114.17 62.75 115.256 62.75 116.522V116.521ZM79.38 93.895H84.911L85.368 98.172H85.56C86.513 96.793 87.524 95.598 88.599 94.598C89.673 93.594 90.966 93.09 92.469 93.09C94.103 93.09 95.415 93.57 96.411 94.528C97.411 95.488 98.201 96.856 98.782 98.638C99.802 97.125 100.868 95.821 101.989 94.727C103.107 93.641 104.439 93.09 105.982 93.09C108.435 93.09 110.239 94.286 111.396 96.664C112.548 99.047 113.118 102.313 113.118 106.454V127.032H106.345V107.722C106.345 105.316 106.118 103.672 105.677 102.777C105.232 101.887 104.513 101.441 103.537 101.441C102.396 101.441 101.091 102.511 99.618 104.652V127.032H92.84V107.722C92.84 105.316 92.617 103.672 92.172 102.777C91.727 101.887 91.016 101.441 90.028 101.441C88.86 101.441 87.571 102.511 86.157 104.652V127.031H79.379L79.38 93.895ZM117.091 81.453H124.071V116.805C124.071 117.785 124.208 118.465 124.474 118.848C124.744 119.235 125.021 119.422 125.306 119.422H125.704C125.818 119.422 125.966 119.383 126.157 119.297L127.013 126.266C126.555 126.505 126.07 126.687 125.568 126.809C124.978 126.957 124.29 127.032 123.501 127.032C122.298 127.032 121.282 126.774 120.462 126.266C119.638 125.754 118.982 125.039 118.497 124.122C118.005 123.207 117.646 122.098 117.427 120.797C117.208 119.5 117.091 118.04 117.091 116.418V81.453Z" fill="#010202"/>
</svg>
