<svg width="129" height="128" viewBox="0 0 129 128" fill="none" xmlns="http://www.w3.org/2000/svg">
<path d="M65.0039 115.355C64.5429 114.461 63.9999 112.559 63.6479 111.754C63.2699 111.043 62.1879 109.062 61.6639 108.422C60.4999 107.09 60.2269 106.984 59.8549 105.192C59.2269 102.125 57.7069 96.7299 55.8129 92.9649C54.8089 90.9649 53.1869 89.3589 51.7459 87.8949C50.4999 86.6479 47.6249 84.5849 47.0779 84.6679C42.3119 85.5619 40.8519 90.2539 38.6209 93.9379C37.3509 95.9999 36.1049 97.7069 35.1009 99.8749C34.2029 101.855 34.2889 104.105 32.7699 105.813C31.2415 107.495 30.1034 109.495 29.4369 111.668C29.2419 112.121 28.8909 116.625 28.4339 117.684L35.4539 117.246C42.0389 117.707 40.1409 120.207 50.3119 119.684L66.4099 119.144C66.0363 117.843 65.557 116.575 64.9769 115.352L65.0039 115.355ZM111.793 8.25389H16.2069C7.31194 8.22989 0.0859375 15.4569 0.0859375 24.3519V59.4569C2.43794 58.6449 5.66394 53.7069 6.75394 52.5229C8.54294 50.4609 8.91394 47.7529 9.81294 46.1449C11.8749 42.3519 12.2459 39.6679 16.9139 39.6679C19.0779 39.6679 19.9769 40.1839 21.4139 42.1839C22.4099 43.5159 24.2039 46.1409 25.0159 47.8519C26.0199 49.8319 27.5389 52.4339 28.2699 52.9769C28.7849 53.3279 29.2419 53.6989 29.7029 53.8709C30.4099 54.1409 31.0589 53.6009 31.6049 53.2419C32.2269 52.7029 32.4999 51.7219 33.1249 50.2889C34.0199 48.2029 34.9379 45.8709 35.4569 44.9769C36.3709 43.5159 36.7299 41.7229 37.7069 40.9099C39.1679 39.6639 41.1479 39.5549 41.6639 39.4729C44.6439 38.8479 45.9999 40.9099 47.4409 42.1799C48.4139 43.0739 49.6839 44.7849 50.6869 47.0309C51.3949 48.8239 52.2929 50.5509 52.7539 51.5309C53.1049 52.5109 54.0199 54.1369 54.5429 56.1129C55.0859 57.8239 56.3519 59.1799 56.8949 60.0739C56.8949 60.0739 57.7069 62.2379 62.3709 64.2189C63.7814 64.82 65.2299 65.3278 66.7069 65.7389C68.7729 66.4729 70.7539 66.3829 73.2699 66.1129C75.0589 66.1129 76.0629 63.4879 76.8709 61.4299C77.3089 60.1759 77.8509 56.6559 78.1209 55.6719C78.3909 54.6759 77.6839 53.9649 78.3129 53.0469C79.0349 52.0699 79.4769 51.9649 79.8319 50.7149C80.7459 47.9219 85.7889 47.8399 88.6639 47.8399C91.0779 47.8399 90.7269 50.1719 94.7889 49.3599C97.1249 48.9259 99.3749 49.6329 101.812 50.3549C103.875 50.8979 105.855 51.5229 107.016 52.8789C107.746 53.7769 109.645 58.1909 107.746 58.3549C107.91 58.5429 108.106 58.9999 108.371 59.1719C107.911 60.8789 106.121 59.6319 105.039 59.4419C103.684 59.1719 102.707 59.4419 101.355 60.0659C99.0199 61.0619 95.6869 60.9839 93.6289 62.6909C91.9139 64.1289 91.9139 67.2729 91.0859 69.0619C91.0859 69.0619 88.8319 74.7579 84.0899 78.2539C82.8119 79.1679 80.3749 81.3119 75.1719 82.1249C72.8159 82.4799 70.5859 82.4799 68.1479 82.3949C66.9839 82.3159 65.8159 82.3159 64.6279 82.3159C63.9219 82.3159 61.5659 82.2069 61.6679 82.4799L61.3979 83.1249C61.4219 83.4149 61.4609 83.7269 61.5619 84.0199C61.6639 84.5349 61.6639 84.9959 61.7539 85.4569C61.7539 86.4369 61.6679 87.5199 61.7539 88.5229C61.8359 90.5859 62.6479 92.4799 62.7579 94.6249C62.8359 96.9799 64.0039 99.4999 65.1719 101.395C65.6319 102.102 66.2579 102.184 66.5269 103.105C66.8789 104.085 66.5269 105.246 66.7149 106.332C67.3399 110.559 68.5899 115.062 70.4879 118.942V119.02C72.8199 118.668 75.2579 117.773 78.3239 117.336C83.9879 116.504 91.8239 116.875 96.8639 116.422C109.66 115.254 116.57 121.648 128.012 119.023V24.3359C127.949 15.4409 120.719 8.23389 111.805 8.23389L111.793 8.25389ZM64.0859 83.8549C64.0859 83.6679 64.0859 83.6679 64.0859 83.8549V83.8549ZM29.6289 98.6049C30.5229 96.6249 31.0619 94.4799 31.7729 92.5039C32.5029 90.6049 33.5859 87.8939 35.4569 86.9219C35.2109 86.6479 31.4999 86.5469 30.5229 86.4609C29.4409 86.3749 28.3519 86.1879 27.2729 86.0229C25.2218 85.6485 23.1796 85.2267 21.1479 84.7579C19.9799 84.4839 15.9379 83.0429 15.1279 82.6909C13.0429 81.7969 11.7069 79.1709 10.1679 79.4449C9.19094 79.6329 8.18794 79.9849 7.56294 80.9849C7.01994 81.7969 6.83194 83.2269 6.47994 84.2109C6.04294 85.2969 5.31194 86.3749 4.77294 87.4609C3.49594 89.3359 1.44094 91.0429 0.542937 92.9449C0.351937 93.4019 0.272938 93.8399 0.0859375 94.3009V115.984C1.16794 116.172 2.24594 116.355 3.41394 116.714C12.4099 119.152 14.5779 119.32 23.3939 118.344L24.2069 118.234C24.8319 116.797 25.3949 112.027 25.8359 110.59C26.1879 109.426 26.6479 108.527 26.8319 107.45C26.9959 106.36 26.8319 105.277 26.7299 104.3C26.5589 101.672 28.6249 100.781 29.6289 98.6099V98.6049Z" fill="black"/>
</svg>
