<svg width="128" height="128" viewBox="0 0 128 128" fill="none" xmlns="http://www.w3.org/2000/svg">
<path d="M64.11 83.9179L64.129 83.8709C64.102 83.7539 64.094 83.7229 64.109 83.9179H64.11Z" fill="#484444"/>
<path d="M64.11 83.9179L64.129 83.8709C64.102 83.7539 64.094 83.7229 64.109 83.9179H64.11Z" fill="url(#paint0_linear_3_6989)"/>
<path d="M64.9688 115.441C64.5188 114.504 63.9528 112.668 63.5788 111.859C63.2228 111.105 62.1448 109.137 61.6048 108.504C60.4298 107.129 60.1518 107.027 59.8088 105.289C59.2068 102.266 57.6168 96.781 55.7418 92.996C54.7728 91.043 53.1638 89.402 51.6918 87.984C50.4058 86.742 47.5078 84.652 46.9998 84.758C42.2658 85.703 40.7968 90.348 38.5658 94.028C37.3358 96.062 36.0308 97.793 35.0588 99.957C34.1598 101.949 34.2418 104.152 32.7068 105.859C31.1288 107.617 30.1048 109.484 29.3358 111.75C29.1878 112.18 28.7728 116.703 28.3198 117.777L35.3598 117.281C41.9178 117.731 40.0228 120.246 50.2618 119.695L66.4258 119.195C65.9218 117.715 65.2298 116 64.9648 115.441H64.9688Z" fill="url(#paint1_linear_3_6989)"/>
<path d="M111.875 8.22292H16.1328C7.22681 8.22692 0.0078125 15.4449 0.0078125 24.3519V59.5349C2.31581 58.6989 5.63281 53.7929 6.67181 52.5979C8.49181 50.5119 8.81981 47.8479 9.72681 46.1719C11.7928 42.3519 12.1478 39.7269 16.8358 39.7269C19.0228 39.7269 19.8908 40.2299 21.3708 42.2149C22.3978 43.5939 24.1798 46.1449 25.0078 47.8479C25.9678 49.8159 27.5348 52.4769 28.2228 53.0119C28.7338 53.4139 29.2378 53.7109 29.7108 53.8869C30.4688 54.1759 31.1008 53.6519 31.6088 53.2469C32.2578 52.7269 32.5388 51.6759 33.1408 50.2699C34.0078 48.2419 34.9488 45.8119 35.4878 44.9599C36.4178 43.4959 36.7338 41.7579 37.7378 40.9139C39.2228 39.6719 41.1518 39.5859 41.6878 39.4799C44.6638 38.8899 46.0158 40.9139 47.4798 42.2229C48.4408 43.0779 49.7498 44.8049 50.6838 47.1129C51.4098 48.9219 52.3358 50.5929 52.7228 51.6369C53.0978 52.6409 54.0228 54.2569 54.5698 56.1869C55.0658 57.9449 56.3978 59.2929 56.9018 60.1249C56.9018 60.1249 57.6758 62.2929 62.3818 64.2769C63.4018 64.7069 65.4648 65.4069 66.6948 65.8519C68.7418 66.5979 70.7228 66.4999 73.2458 66.1989C75.0428 66.1989 76.0198 63.5939 76.8358 61.5079C77.3198 60.2779 77.7808 56.7419 78.0978 55.7419C78.4018 54.7659 77.6878 54.0119 78.2968 53.1559C79.0068 52.1559 79.4298 52.1019 79.8398 50.8009C80.7228 48.0159 85.8238 47.8749 88.6868 47.8749C91.0858 47.8749 90.7728 50.1949 94.8278 49.4019C97.1478 48.9449 99.3868 49.6989 101.852 50.3519C103.926 50.9019 105.875 51.5269 107.047 52.8979C107.805 53.7849 109.68 58.2229 107.766 58.4139C107.949 58.6369 108.086 59.0429 108.43 59.2659C108.004 60.9409 106.148 59.7459 105.121 59.5309C103.731 59.2459 102.754 59.5739 101.395 60.1759C99.0748 61.2109 95.6798 61.0899 93.6558 62.7729C91.9408 64.2029 91.9458 67.3869 91.1448 69.1719C91.1448 69.1719 88.9218 74.8909 84.0698 78.3869C82.8278 79.2849 80.4018 81.4409 75.1168 82.2569C72.7498 82.6249 70.5308 82.6519 68.0968 82.5309L64.5858 82.3979C63.8908 82.3949 61.5228 82.3159 61.6408 82.5429L61.3748 83.1989C61.4178 83.4179 61.5038 83.9529 61.5268 84.0859C61.6248 84.6129 61.6518 85.0359 61.6718 85.5229C61.7068 86.5229 61.5898 87.5659 61.6408 88.5779C61.7458 90.6719 62.5228 92.5859 62.6208 94.6989C62.7308 97.0549 63.8948 99.5429 65.0198 101.469C65.4498 102.199 66.0978 102.281 66.3828 103.184C66.7148 104.214 66.4028 105.313 66.5628 106.414C67.1948 110.68 68.4178 115.144 70.3478 118.996C70.3598 119.028 70.3741 119.06 70.3908 119.09C72.7658 118.695 75.1448 117.84 78.2308 117.383C83.8828 116.547 91.7498 116.977 96.8008 116.503C109.582 115.305 116.52 121.746 128.004 119.105V24.3519C128 15.4449 120.781 8.22192 111.875 8.22192V8.22292ZM64.1088 83.9179C64.0938 83.7229 64.1018 83.7499 64.1288 83.8709L64.1088 83.9179Z" fill="url(#paint2_linear_3_6989)"/>
<path d="M29.5158 98.7269C30.4058 96.7809 30.9218 94.5619 31.6598 92.5699C32.3708 90.6639 33.4768 87.9599 35.3598 86.9999C35.1328 86.7299 31.4218 86.6099 30.4298 86.5079L27.2298 86.0549L21.0658 84.7849C19.8668 84.4959 15.8788 83.0819 15.0118 82.6839C12.9798 81.7459 11.6288 79.2039 10.0428 79.4639C9.02681 79.6289 8.03081 79.9769 7.40981 80.9999C6.89481 81.8359 6.71881 83.2699 6.36281 84.2299C5.94881 85.3479 5.23381 86.3899 4.60881 87.4529C3.45681 89.4029 1.38681 91.1679 0.495813 93.0699C0.315812 93.4599 0.155813 93.8979 0.0078125 94.3549V116.09L3.35481 116.812C12.3478 119.215 14.5428 119.418 23.3628 118.406L24.1908 118.296C24.8628 116.891 25.3868 112.109 25.8238 110.629C26.1638 109.492 26.6328 108.589 26.8118 107.429C26.9798 106.329 26.7968 105.281 26.6988 104.277C26.4568 101.773 28.5268 100.879 29.5188 98.7269H29.5158Z" fill="url(#paint3_linear_3_6989)"/>
<defs>
<linearGradient id="paint0_linear_3_6989" x1="64.1152" y1="83.7765" x2="64.1152" y2="83.9173" gradientUnits="userSpaceOnUse">
<stop stop-color="#F29100"/>
<stop offset="1" stop-color="#EC670F"/>
</linearGradient>
<linearGradient id="paint1_linear_3_6989" x1="47.3766" y1="84.7532" x2="47.3766" y2="119.775" gradientUnits="userSpaceOnUse">
<stop stop-color="#F29100"/>
<stop offset="1" stop-color="#EC670F"/>
</linearGradient>
<linearGradient id="paint2_linear_3_6989" x1="64.0036" y1="8.22392" x2="64.0036" y2="119.75" gradientUnits="userSpaceOnUse">
<stop stop-color="#F29100"/>
<stop offset="1" stop-color="#EC670F"/>
</linearGradient>
<linearGradient id="paint3_linear_3_6989" x1="17.683" y1="79.4437" x2="17.683" y2="118.98" gradientUnits="userSpaceOnUse">
<stop stop-color="#F29100"/>
<stop offset="1" stop-color="#EC670F"/>
</linearGradient>
</defs>
</svg>
