<svg width="128" height="128" viewBox="0 0 128 128" fill="none" xmlns="http://www.w3.org/2000/svg">
<path fill-rule="evenodd" clip-rule="evenodd" d="M80.016 30.292C76.071 30.292 72.873 33.505 72.873 37.465V56.424H71.345V57.956H72.873V78.447C72.873 82.411 76.071 85.62 80.016 85.62C83.961 85.62 87.159 82.411 87.159 78.447V57.957H88.695V56.425H87.159V37.466C87.159 33.506 83.961 30.293 80.016 30.293V30.292ZM80.016 33.623V56.424H75.678V37.976C75.6762 36.8235 76.1321 35.7175 76.9457 34.9012C77.7592 34.0849 78.8636 33.6251 80.016 33.623ZM69.302 36.436L60.2 36.627L67.678 41.533L67.842 41.48V41.56L69.302 36.436ZM67.842 41.559L67.823 41.628L67.678 41.533L59.144 44.178L67.678 46.831L67.823 46.736L67.842 46.801V41.559ZM67.842 46.8V46.884L67.678 46.831L60.2 51.737L69.302 51.924L67.842 46.8ZM90.731 36.436L92.198 41.563V41.479L92.362 41.532L99.833 36.626L90.731 36.436ZM92.362 41.532L92.217 41.627L92.198 41.562V46.8L92.217 46.735L92.362 46.83L100.889 44.177L92.362 41.532ZM92.362 46.83L92.198 46.883V46.8L90.731 51.923L99.833 51.736L92.362 46.83ZM77.851 41.562C77.005 41.562 76.315 42.248 76.315 43.098C76.315 43.5057 76.4767 43.8968 76.7647 44.1855C77.0526 44.4742 77.4433 44.6369 77.851 44.638C78.697 44.638 79.379 43.948 79.379 43.098C79.3798 42.8967 79.3409 42.6973 79.2645 42.5111C79.1881 42.3249 79.0757 42.1556 78.9338 42.0129C78.7918 41.8703 78.6231 41.757 78.4373 41.6796C78.2515 41.6022 78.0523 41.5623 77.851 41.562ZM82.189 41.562C83.031 41.562 83.717 42.248 83.717 43.098C83.717 43.948 83.031 44.638 82.189 44.638C81.7813 44.6369 81.3906 44.4742 81.1027 44.1855C80.8147 43.8968 80.653 43.5057 80.653 43.098C80.653 42.248 81.343 41.562 82.189 41.562ZM77.851 45.659C77.005 45.659 76.315 46.345 76.315 47.195C76.315 47.6027 76.4767 47.9938 76.7647 48.2825C77.0526 48.5712 77.4433 48.7339 77.851 48.735C78.697 48.735 79.379 48.045 79.379 47.195C79.3798 46.9937 79.3409 46.7943 79.2645 46.6081C79.1881 46.4219 79.0757 46.2526 78.9338 46.1099C78.7918 45.9673 78.6231 45.854 78.4373 45.7766C78.2515 45.6992 78.0523 45.6593 77.851 45.659ZM82.189 45.659C83.031 45.659 83.717 46.345 83.717 47.195C83.717 48.045 83.031 48.735 82.189 48.735C81.7813 48.7339 81.3906 48.5712 81.1027 48.2825C80.8147 47.9938 80.653 47.6027 80.653 47.195C80.653 46.345 81.343 45.659 82.189 45.659ZM77.851 49.76C77.005 49.76 76.315 50.446 76.315 51.292C76.3158 51.3391 76.3185 51.3861 76.323 51.433C76.3585 51.8147 76.5345 52.1696 76.8168 52.4288C77.0992 52.6881 77.4677 52.8332 77.851 52.836C78.2329 52.8352 78.6007 52.6917 78.8822 52.4336C79.1636 52.1754 79.3383 51.8214 79.372 51.441V51.433C79.3767 51.3861 79.3794 51.3391 79.38 51.292C79.3803 51.0911 79.341 50.8921 79.2643 50.7063C79.1877 50.5206 79.0752 50.3518 78.9333 50.2095C78.7914 50.0673 78.6229 49.9544 78.4374 49.8772C78.2519 49.8001 78.053 49.7603 77.852 49.76H77.851ZM82.189 49.76C82.39 49.7603 82.5889 49.8001 82.7744 49.8772C82.9599 49.9544 83.1284 50.0673 83.2703 50.2095C83.4122 50.3518 83.5247 50.5206 83.6013 50.7063C83.678 50.8921 83.7173 51.0911 83.717 51.292C83.7163 51.3391 83.7136 51.3861 83.709 51.433C83.633 52.218 82.981 52.836 82.188 52.836C81.388 52.836 80.728 52.222 80.66 51.441V51.433C80.6554 51.3861 80.6527 51.3391 80.652 51.292C80.652 50.446 81.342 49.76 82.188 49.76H82.189ZM68.025 56.423V78.702C68.025 85.353 73.396 90.75 80.016 90.75C86.636 90.75 92.007 85.353 92.007 78.702V56.424H90.479V78.703C90.479 84.504 85.795 89.208 80.016 89.208C74.237 89.208 69.561 84.505 69.561 78.703V56.424L68.025 56.423ZM80.016 57.955H84.354V73.289H84.327L84.354 73.327V77.68L84.297 78.378L80.017 73.29H84.328L80.017 68.179H84.336L80.017 63.064H84.347L80.016 57.955ZM84.296 78.381C84.1311 79.4228 83.5917 80.3686 82.779 81.041L80.016 78.4L84.296 78.381ZM73.643 93.606V97.707H86.397V93.606H73.643Z" fill="#E3B019"/>
<path d="M41.9188 56.4239C37.9738 56.4239 34.7758 59.6329 34.7758 63.5969V71.2279C34.7758 75.1919 37.9738 78.4049 41.9188 78.4049C45.8638 78.4049 49.0658 75.1919 49.0658 71.2279H44.9838C44.9846 71.6311 44.9059 72.0306 44.7523 72.4034C44.5987 72.7763 44.3731 73.1152 44.0885 73.4008C43.8039 73.6865 43.4658 73.9133 43.0935 74.0682C42.7212 74.2232 42.322 74.3032 41.9188 74.3039C41.1051 74.3015 40.3256 73.9762 39.7517 73.3994C39.1777 72.8226 38.8562 72.0416 38.8578 71.2279V69.4599H44.9828V65.3629H38.8578V63.5979C38.8562 62.7842 39.1777 62.0032 39.7517 61.4264C40.3256 60.8496 41.1051 60.5243 41.9188 60.5219C42.322 60.5226 42.7212 60.6026 43.0935 60.7576C43.4658 60.9125 43.8039 61.1393 44.0885 61.425C44.3731 61.7106 44.5987 62.0495 44.7523 62.4224C44.9059 62.7952 44.9846 63.1947 44.9838 63.5979H49.0658C49.0658 59.6339 45.8638 56.4249 41.9188 56.4249V56.4239ZM65.4788 78.4019H61.3848V63.5939C61.3848 61.8939 60.0168 60.5179 58.3238 60.5179C57.5101 60.5203 56.7306 60.8456 56.1567 61.4224C55.5827 61.9992 55.2612 62.7802 55.2628 63.5939L55.2738 78.4019H51.1798V63.5939C51.1798 59.6299 54.3778 56.4209 58.3228 56.4209C62.2678 56.4209 65.4658 59.6299 65.4658 63.5939L65.4768 78.4019M15.8368 63.5939V71.2289C15.8368 75.1929 12.6388 78.4019 8.69378 78.4019C4.74878 78.4019 1.55078 75.1929 1.55078 71.2289V63.5939C1.55078 59.6299 4.74878 56.4209 8.69378 56.4209C12.6388 56.4209 15.8368 59.6299 15.8368 63.5939ZM11.7548 63.5939C11.7548 61.8939 10.3868 60.5179 8.69378 60.5179C7.88009 60.5203 7.10062 60.8456 6.52666 61.4224C5.95269 61.9992 5.63119 62.7802 5.63278 63.5939V71.2289C5.63119 72.0426 5.95269 72.8236 6.52666 73.4004C7.10062 73.9772 7.88009 74.3025 8.69378 74.3049C9.0968 74.3041 9.49571 74.2239 9.86771 74.0689C10.2397 73.9138 10.5775 73.687 10.8618 73.4013C11.1461 73.1156 11.3713 72.7767 11.5245 72.404C11.6777 72.0312 11.756 71.6319 11.7548 71.2289V63.5939ZM32.5658 63.5939V71.2289C32.5658 75.1929 29.3678 78.4019 25.4228 78.4019C24.3624 78.4033 23.3152 78.1676 22.3578 77.7119V84.8549H18.2758V57.9569C18.2758 57.9569 19.9488 58.0869 21.0008 57.9569C22.8118 57.7359 22.8718 56.4209 25.4218 56.4209C29.3668 56.4209 32.5648 59.6299 32.5648 63.5939H32.5658ZM28.4838 63.5939C28.4854 62.7802 28.1639 61.9992 27.5899 61.4224C27.0159 60.8456 26.2365 60.5203 25.4228 60.5179C25.0195 60.5186 24.6204 60.5986 24.2481 60.7536C23.8758 60.9085 23.5377 61.1353 23.2531 61.421C22.9684 61.7066 22.7429 62.0455 22.5893 62.4184C22.4357 62.7912 22.357 63.1907 22.3578 63.5939V71.2289C22.357 71.6321 22.4357 72.0316 22.5893 72.4044C22.7429 72.7773 22.9684 73.1162 23.2531 73.4018C23.5377 73.6875 23.8758 73.9143 24.2481 74.0692C24.6204 74.2242 25.0195 74.3042 25.4228 74.3049C26.2365 74.3025 27.0159 73.9772 27.5899 73.4004C28.1639 72.8236 28.4854 72.0426 28.4838 71.2289V63.5939ZM101.96 56.4239C98.0108 56.4239 94.8128 59.6329 94.8128 63.5969V78.4049H98.9068C98.8977 75.5436 98.894 72.6822 98.8958 69.8209H105.021V78.4049H109.115C109.107 78.4049 109.104 74.0059 109.104 69.8209V63.5969C109.104 59.6329 105.906 56.4239 101.961 56.4239H101.96ZM101.96 60.5209C102.773 60.5233 103.553 60.8486 104.127 61.4254C104.701 62.0022 105.022 62.7832 105.021 63.5969V65.7239H98.8958V63.5969C98.895 63.1937 98.9736 62.7942 99.1273 62.4214C99.2809 62.0485 99.5064 61.7096 99.7911 61.424C100.076 61.1383 100.414 60.9115 100.786 60.7566C101.158 60.6016 101.558 60.5216 101.961 60.5209H101.96ZM116.245 74.3049H119.306C120.119 74.3025 120.899 73.9772 121.473 73.4004C122.047 72.8236 122.368 72.0426 122.367 71.2289H126.449C126.449 75.1929 123.251 78.4019 119.306 78.4019H112.163V56.4209H116.245V74.3049Z" fill="#7D000C"/>
</svg>
