<svg width="128" height="128" viewBox="0 0 128 128" fill="none" xmlns="http://www.w3.org/2000/svg">
<path fill-rule="evenodd" clip-rule="evenodd" d="M26.2889 75.031C20.1519 75.031 17.0859 71.386 15.9019 67.578C17.2379 73.769 24.4569 79.808 47.1719 82.488C68.6449 85.031 82.6369 78.64 87.3709 75.66C87.3709 75.66 90.5619 74.297 88.6479 76.406C88.6479 76.406 75.1399 88.535 48.5539 88.691C22.0199 88.816 0.925865 75.828 1.08587 62.648C0.956865 49.523 22.0199 36.504 48.5549 36.609C75.0859 36.734 88.6489 48.89 88.6489 48.89C90.5629 50.995 87.3719 49.64 87.3719 49.64C82.6529 46.671 68.6959 40.82 47.1729 42.812C25.9659 44.796 19.0789 51.792 16.7629 56.464C15.9506 58.0993 15.48 59.8829 15.3799 61.706C15.9499 57.21 18.8289 51.936 26.2509 51.936C34.6489 51.936 37.2309 58.764 37.2309 63.487C37.2309 68.21 34.6569 74.987 26.2509 74.987L26.2889 75.031ZM111.859 70.488H123.054V74.453H107.124V52.555H111.831V70.465L111.859 70.488ZM94.5819 62.664H104V74.477H100.863L100.394 71.739C99.1989 73.079 97.4679 75.063 93.3429 75.063C87.9059 75.063 82.9559 71.286 82.9559 63.618C82.9559 57.634 86.3779 52.013 93.9869 52.013C100.878 52.013 103.62 56.372 103.889 59.365H99.1819C99.1819 58.513 97.5769 55.767 94.2519 55.767C90.8929 55.767 87.7909 58.025 87.7909 63.642C87.7909 69.63 91.1499 71.154 94.3569 71.154C95.3919 71.154 98.8449 70.759 99.7949 66.338H94.5529V62.651L94.5819 62.664ZM26.2339 54.633C21.3359 54.633 18.3789 58.379 18.3789 63.559C18.3789 68.707 21.3279 72.485 26.2339 72.485C31.1319 72.485 34.0929 68.735 34.0929 63.559C34.0929 58.407 31.1439 54.633 26.2339 54.633ZM38.9369 60.461H41.2219V62.441H41.2769C41.8589 61.636 42.9569 60.054 45.5779 60.054C49.4099 60.054 52.1439 63.206 52.1439 67.144C52.1439 70.488 50.1559 74.863 45.2529 74.863C43.3229 74.863 42.0579 73.98 41.4209 72.988H41.3659V80.023H38.9399V60.488L38.9369 60.461ZM45.0699 72.856C47.7179 72.856 49.5109 70.626 49.5109 67.551C49.5109 65.75 48.7609 62.192 45.0149 62.192C41.5189 62.192 41.1319 65.86 41.1319 68.13C41.1319 71.845 43.5299 72.841 45.0699 72.841V72.856ZM66.8119 70.094C66.7299 70.766 66.0699 72.746 64.2499 73.922C63.5899 74.352 62.6519 74.891 60.3399 74.891C56.2849 74.891 53.8829 71.918 53.8829 67.852C53.8829 63.516 56.0349 60.082 60.8239 60.082C64.9839 60.082 67.0119 63.297 67.0119 68.273H56.4649C56.4649 71.195 57.8669 72.875 60.6559 72.875C62.9449 72.875 64.2929 71.168 64.3749 70.121H66.8049L66.8119 70.094ZM64.2419 66.379C64.1009 64.207 63.1639 62.203 60.2149 62.203C57.9809 62.203 56.2149 64.207 56.2149 66.379H64.2419ZM80.3869 74.461H77.9609V65.852C77.9609 63.418 77.2419 62.188 74.8709 62.188C73.4919 62.188 71.0659 63.043 71.0659 66.844V74.457H68.6359V60.441H70.9249V62.418H70.9799C71.5029 61.668 72.8509 60.035 75.3349 60.035C77.5649 60.035 80.3779 60.918 80.3779 64.91V74.414M127.754 73.719C127.756 74.0753 127.66 74.4253 127.477 74.731C127.297 75.043 127.035 75.2996 126.719 75.473C126.404 75.6532 126.047 75.7473 125.684 75.746C125.317 75.746 124.973 75.652 124.653 75.473C124.333 75.294 124.083 75.047 123.895 74.731C123.712 74.4253 123.616 74.0753 123.618 73.719C123.618 73.36 123.712 73.02 123.895 72.703C124.077 72.3941 124.339 72.1393 124.653 71.965C124.967 71.7866 125.323 71.6935 125.684 71.695C126.051 71.695 126.403 71.785 126.719 71.965C127.035 72.145 127.293 72.391 127.477 72.703C127.659 73.0105 127.755 73.3616 127.754 73.719ZM127.356 73.719C127.36 73.5032 127.318 73.2889 127.233 73.0904C127.148 72.8918 127.023 72.7135 126.864 72.567C126.54 72.243 126.145 72.083 125.688 72.083C125.231 72.083 124.833 72.243 124.508 72.567C124.35 72.7142 124.226 72.8928 124.142 73.0912C124.058 73.2897 124.016 73.5036 124.02 73.719C124.016 73.9351 124.058 74.1495 124.142 74.3486C124.226 74.5477 124.35 74.727 124.508 74.875C124.662 75.0301 124.846 75.1523 125.049 75.2343C125.252 75.3162 125.469 75.3563 125.688 75.352C126.149 75.352 126.54 75.196 126.864 74.875C127.021 74.7266 127.146 74.5473 127.231 74.3484C127.315 74.1495 127.358 73.9352 127.356 73.719ZM124.751 72.633H125.739C126.016 72.633 126.223 72.692 126.348 72.801C126.473 72.91 126.536 73.063 126.536 73.246C126.536 73.391 126.489 73.516 126.391 73.625C126.297 73.727 126.145 73.805 125.938 73.855C126.006 73.8762 126.07 73.9094 126.126 73.953C126.196 74.0178 126.255 74.093 126.302 74.176C126.423 74.3835 126.543 74.5918 126.661 74.801H126.009L125.583 74.063C125.513 73.981 125.438 73.938 125.368 73.938C125.348 73.938 125.329 73.942 125.298 73.946V74.801H124.747L124.751 72.633ZM125.302 73.555H125.54C125.696 73.555 125.81 73.528 125.876 73.477C125.906 73.4546 125.931 73.4252 125.948 73.3913C125.965 73.3574 125.974 73.32 125.974 73.282C125.975 73.245 125.967 73.2083 125.95 73.175C125.934 73.1417 125.91 73.1129 125.88 73.091C125.818 73.04 125.712 73.013 125.56 73.013H125.302V73.555Z" fill="#5586A4"/>
</svg>
