<svg width="128" height="128" viewBox="0 0 128 128" fill="none" xmlns="http://www.w3.org/2000/svg">
<path d="M116.245 74.305H119.306C120.119 74.3026 120.899 73.9773 121.473 73.4005C122.047 72.8237 122.368 72.0427 122.367 71.229H126.449C126.449 75.193 123.251 78.402 119.306 78.402H112.163V56.421H116.245V74.305ZM101.959 56.425C98.0098 56.425 94.8118 59.634 94.8118 63.598V78.406H98.9058C98.8967 75.5447 98.8931 72.6833 98.8948 69.822H105.02V78.406H109.114C109.106 78.406 109.103 74.007 109.103 69.822V63.598C109.103 59.634 105.905 56.425 101.96 56.425H101.959ZM101.959 60.522C102.772 60.5244 103.552 60.8497 104.126 61.4265C104.7 62.0033 105.021 62.7843 105.02 63.598V65.725H98.8948V63.598C98.894 63.1947 98.9727 62.7953 99.1263 62.4225C99.2799 62.0496 99.5055 61.7107 99.7901 61.4251C100.075 61.1394 100.413 60.9126 100.785 60.7577C101.157 60.6027 101.557 60.5226 101.96 60.522H101.959ZM32.5648 63.594V71.229C32.5648 75.193 29.3668 78.402 25.4218 78.402C24.3615 78.4034 23.3142 78.1677 22.3568 77.712V84.855H18.2748V57.957C18.2748 57.957 19.9478 58.087 20.9998 57.957C22.8108 57.736 22.8708 56.421 25.4208 56.421C29.3658 56.421 32.5638 59.63 32.5638 63.594H32.5648ZM28.4828 63.594C28.4844 62.7803 28.1629 61.9993 27.5889 61.4225C27.015 60.8457 26.2355 60.5204 25.4218 60.518C25.0186 60.5187 24.6194 60.5987 24.2471 60.7537C23.8748 60.9086 23.5367 61.1354 23.2521 61.4211C22.9675 61.7067 22.7419 62.0456 22.5883 62.4185C22.4347 62.7913 22.356 63.1908 22.3568 63.594V71.229C22.356 71.6322 22.4347 72.0317 22.5883 72.4045C22.7419 72.7774 22.9675 73.1163 23.2521 73.4019C23.5367 73.6876 23.8748 73.9143 24.2471 74.0693C24.6194 74.2242 25.0186 74.3043 25.4218 74.305C26.2355 74.3026 27.015 73.9773 27.5889 73.4005C28.1629 72.8237 28.4844 72.0427 28.4828 71.229V63.594ZM15.8358 63.594V71.229C15.8358 75.193 12.6378 78.402 8.6928 78.402C4.7478 78.402 1.5498 75.193 1.5498 71.229V63.594C1.5498 59.63 4.7478 56.421 8.6928 56.421C12.6378 56.421 15.8358 59.63 15.8358 63.594ZM11.7538 63.594C11.7538 61.894 10.3858 60.518 8.6928 60.518C7.87911 60.5204 7.09965 60.8457 6.52568 61.4225C5.95172 61.9993 5.63021 62.7803 5.6318 63.594V71.229C5.63021 72.0427 5.95172 72.8237 6.52568 73.4005C7.09965 73.9773 7.87911 74.3026 8.6928 74.305C9.09582 74.3042 9.49473 74.224 9.86673 74.0689C10.2387 73.9139 10.5765 73.6871 10.8608 73.4014C11.1451 73.1157 11.3703 72.7768 11.5235 72.4041C11.6767 72.0313 11.755 71.632 11.7538 71.229V63.594ZM65.4778 78.402H61.3838V63.594C61.3838 61.894 60.0158 60.518 58.3228 60.518C57.5091 60.5204 56.7296 60.8457 56.1557 61.4225C55.5817 61.9993 55.2602 62.7803 55.2618 63.594L55.2728 78.402H51.1788V63.594C51.1788 59.63 54.3768 56.421 58.3218 56.421C62.2668 56.421 65.4648 59.63 65.4648 63.594L65.4758 78.402M41.9188 56.424C37.9738 56.424 34.7758 59.633 34.7758 63.597V71.228C34.7758 75.192 37.9738 78.405 41.9188 78.405C45.8638 78.405 49.0658 75.192 49.0658 71.228H44.9838C44.9846 71.6312 44.9059 72.0307 44.7523 72.4035C44.5987 72.7764 44.3731 73.1153 44.0885 73.4009C43.8039 73.6866 43.4658 73.9133 43.0935 74.0683C42.7212 74.2232 42.322 74.3033 41.9188 74.304C41.1051 74.3016 40.3256 73.9763 39.7517 73.3995C39.1777 72.8227 38.8562 72.0417 38.8578 71.228V69.46H44.9828V65.363H38.8578V63.598C38.8562 62.7843 39.1777 62.0033 39.7517 61.4265C40.3256 60.8497 41.1051 60.5244 41.9188 60.522C42.322 60.5226 42.7212 60.6027 43.0935 60.7577C43.4658 60.9126 43.8039 61.1394 44.0885 61.4251C44.3731 61.7107 44.5987 62.0496 44.7523 62.4225C44.9059 62.7953 44.9846 63.1947 44.9838 63.598H49.0658C49.0658 59.634 45.8638 56.425 41.9188 56.425V56.424ZM80.0158 30.292C76.0708 30.292 72.8728 33.505 72.8728 37.465V56.424H71.3448V57.956H72.8728V78.447C72.8728 82.411 76.0708 85.62 80.0158 85.62C83.9608 85.62 87.1588 82.411 87.1588 78.447V57.957H88.6948V56.425H87.1588V37.466C87.1588 33.506 83.9608 30.293 80.0158 30.293V30.292ZM80.0158 33.623V56.424H75.6778V37.976C75.6759 36.8235 76.1319 35.7175 76.9454 34.9012C77.7589 34.0849 78.8633 33.6251 80.0158 33.623ZM69.3018 36.436L60.1998 36.627L67.6778 41.533L67.8418 41.48V41.56L69.3018 36.436ZM67.8418 41.559L67.8228 41.628L67.6778 41.533L59.1438 44.178L67.6778 46.831L67.8228 46.736L67.8418 46.801V41.559ZM67.8418 46.8V46.884L67.6778 46.831L60.1998 51.737L69.3018 51.924L67.8418 46.8ZM90.7308 36.436L92.1978 41.563V41.479L92.3618 41.532L99.8328 36.626L90.7308 36.436ZM92.3618 41.532L92.2168 41.627L92.1978 41.562V46.8L92.2168 46.735L92.3618 46.83L100.889 44.177L92.3618 41.532ZM92.3618 46.83L92.1978 46.883V46.8L90.7308 51.923L99.8328 51.736L92.3618 46.83ZM77.8508 41.562C77.0048 41.562 76.3148 42.248 76.3148 43.098C76.3148 43.5057 76.4765 43.8968 76.7644 44.1855C77.0524 44.4742 77.4431 44.6369 77.8508 44.638C78.6968 44.638 79.3788 43.948 79.3788 43.098C79.3796 42.8967 79.3407 42.6973 79.2643 42.5111C79.1878 42.3249 79.0754 42.1556 78.9335 42.0129C78.7916 41.8703 78.6229 41.757 78.4371 41.6796C78.2513 41.6022 78.0521 41.5623 77.8508 41.562ZM82.1888 41.562C83.0308 41.562 83.7168 42.248 83.7168 43.098C83.7168 43.948 83.0308 44.638 82.1888 44.638C81.7811 44.6369 81.3904 44.4742 81.1024 44.1855C80.8145 43.8968 80.6528 43.5057 80.6528 43.098C80.6528 42.248 81.3428 41.562 82.1888 41.562ZM77.8508 45.659C77.0048 45.659 76.3148 46.345 76.3148 47.195C76.3148 47.6027 76.4765 47.9938 76.7644 48.2825C77.0524 48.5712 77.4431 48.7339 77.8508 48.735C78.6968 48.735 79.3788 48.045 79.3788 47.195C79.3796 46.9937 79.3407 46.7943 79.2643 46.6081C79.1878 46.4219 79.0754 46.2526 78.9335 46.1099C78.7916 45.9673 78.6229 45.854 78.4371 45.7766C78.2513 45.6992 78.0521 45.6593 77.8508 45.659ZM82.1888 45.659C83.0308 45.659 83.7168 46.345 83.7168 47.195C83.7168 48.045 83.0308 48.735 82.1888 48.735C81.7811 48.7339 81.3904 48.5712 81.1024 48.2825C80.8145 47.9938 80.6528 47.6027 80.6528 47.195C80.6528 46.345 81.3428 45.659 82.1888 45.659ZM77.8508 49.76C77.0048 49.76 76.3148 50.446 76.3148 51.292C76.3156 51.3391 76.3182 51.3861 76.3228 51.433C76.3582 51.8147 76.5342 52.1696 76.8166 52.4288C77.0989 52.6881 77.4675 52.8332 77.8508 52.836C78.2327 52.8352 78.6005 52.6917 78.8819 52.4336C79.1634 52.1754 79.3381 51.8214 79.3718 51.441V51.433C79.3765 51.3861 79.3791 51.3391 79.3798 51.292C79.3801 51.0911 79.3408 50.8921 79.2641 50.7063C79.1875 50.5206 79.075 50.3518 78.9331 50.2095C78.7912 50.0673 78.6227 49.9544 78.4372 49.8772C78.2516 49.8001 78.0527 49.7603 77.8518 49.76H77.8508ZM82.1888 49.76C82.3897 49.7603 82.5886 49.8001 82.7742 49.8772C82.9597 49.9544 83.1282 50.0673 83.2701 50.2095C83.412 50.3518 83.5245 50.5206 83.6011 50.7063C83.6777 50.8921 83.7171 51.0911 83.7168 51.292C83.716 51.3391 83.7134 51.3861 83.7088 51.433C83.6328 52.218 82.9808 52.836 82.1878 52.836C81.3878 52.836 80.7278 52.222 80.6598 51.441V51.433C80.6551 51.3861 80.6525 51.3391 80.6518 51.292C80.6518 50.446 81.3418 49.76 82.1878 49.76H82.1888ZM68.0248 56.423V78.702C68.0248 85.353 73.3958 90.75 80.0158 90.75C86.6358 90.75 92.0068 85.353 92.0068 78.702V56.424H90.4788V78.703C90.4788 84.504 85.7948 89.208 80.0158 89.208C74.2368 89.208 69.5608 84.505 69.5608 78.703V56.424L68.0248 56.423ZM80.0158 57.955H84.3538V73.289H84.3268L84.3538 73.327V77.68L84.2968 78.378L80.0168 73.29H84.3278L80.0168 68.179H84.3358L80.0168 63.064H84.3468L80.0158 57.955ZM84.2958 78.381C84.1308 79.4228 83.5914 80.3686 82.7788 81.041L80.0158 78.4L84.2958 78.381ZM73.6428 93.606V97.707H86.3968V93.606H73.6428Z" fill="#7D000C"/>
</svg>
