<svg width="128" height="128" viewBox="0 0 128 128" fill="none" xmlns="http://www.w3.org/2000/svg">
<path d="M101.653 47.26C108.406 51.224 112.944 58.548 112.959 66.932C112.983 79.554 102.746 89.802 90.0989 89.822C77.4509 89.845 67.1789 79.633 67.1559 67.012C67.1409 58.627 71.6529 51.288 78.3939 47.3L84.9739 58.398C85.051 58.5338 85.0736 58.6938 85.0372 58.8457C85.0008 58.9975 84.9081 59.1299 84.7779 59.216C83.5074 60.0749 82.4675 61.233 81.7498 62.5882C81.032 63.9435 80.6584 65.4544 80.6619 66.988C80.6719 72.165 84.8869 76.355 90.0749 76.346C95.2639 76.336 99.4619 72.133 99.4529 66.956C99.4512 65.4223 99.0725 63.9126 98.35 62.5597C97.6276 61.2069 96.5835 60.0524 95.3099 59.198C95.1799 59.1119 95.0872 58.9799 95.0504 58.8285C95.0135 58.677 95.0351 58.5172 95.1109 58.381L101.653 47.26ZM51.1079 47.128C47.6915 45.2185 43.8417 44.2188 39.9279 44.225C27.2779 44.225 17.0259 54.455 17.0259 67.077C17.0259 79.697 27.2769 89.927 39.9279 89.927C52.6369 89.927 63.1399 79.161 62.8209 66.49H49.9299C49.7665 66.4926 49.6107 66.5597 49.4965 66.6765C49.3823 66.7934 49.3188 66.9506 49.3199 67.114C49.2879 72.162 45.0669 76.451 39.9279 76.451C34.7359 76.451 30.5319 72.253 30.5319 67.077C30.5319 61.897 34.7359 57.702 39.9279 57.702C41.2839 57.702 42.5769 57.988 43.7419 58.507C43.8793 58.5698 44.0348 58.5802 44.1794 58.5364C44.3239 58.4926 44.4475 58.3975 44.5269 58.269L51.1079 47.128ZM52.9579 43.542C46.2149 39.567 41.6879 32.236 41.6879 23.852C41.6889 11.23 51.9439 1 64.5899 1C77.2359 1 87.4899 11.23 87.4899 23.852C87.4899 32.237 82.9639 39.567 76.2199 43.542L69.6569 32.436C69.5797 32.2998 69.5574 32.1394 69.5946 31.9873C69.6317 31.8353 69.7256 31.7032 69.8569 31.618C71.1279 30.7603 72.169 29.6036 72.8886 28.2495C73.6081 26.8954 73.9843 25.3854 73.9839 23.852C73.9839 18.675 69.7769 14.477 64.5889 14.477C59.3999 14.477 55.1939 18.675 55.1939 23.852C55.1935 25.3855 55.5698 26.8956 56.2895 28.2497C57.0093 29.6038 58.0506 30.7604 59.3219 31.618C59.5919 31.8 59.6849 32.158 59.5199 32.436L52.9579 43.542ZM26.1909 102.414C29.1429 102.414 31.1909 103.123 32.3339 104.541C33.4969 105.959 34.0769 108.546 34.0769 112.301C34.0769 116.058 33.4969 118.644 32.3339 120.063C31.1909 121.48 29.1439 122.189 26.1899 122.189C23.2549 122.189 21.2069 121.481 20.0469 120.063C18.9009 118.645 18.3299 116.057 18.3299 112.301C18.3299 108.546 18.9009 105.959 20.0469 104.541C21.2069 103.124 23.2549 102.414 26.1899 102.414H26.1909ZM26.1909 105.37C24.5859 105.37 23.4779 105.868 22.8679 106.861C22.2789 107.837 21.9829 109.651 21.9829 112.301C21.9829 114.954 22.2789 116.775 22.8679 117.771C23.4779 118.747 24.5859 119.234 26.1909 119.234C27.8139 119.234 28.9209 118.747 29.5129 117.771C30.1189 116.775 30.4229 114.954 30.4229 112.301C30.4229 109.651 30.1189 107.837 29.5129 106.861C28.9199 105.868 27.8129 105.37 26.1899 105.37H26.1909ZM39.0369 108.297L39.2569 110.315C39.8869 109.615 40.7159 109.045 41.7499 108.602C42.8009 108.159 43.8249 107.939 44.8199 107.939C47.9029 107.939 49.4439 110.351 49.4439 115.176C49.4439 117.733 49.0179 119.538 48.1709 120.586C47.3399 121.639 46.0309 122.163 44.2399 122.163C42.4119 122.163 40.8449 121.721 39.5349 120.836C39.6089 121.776 39.6379 122.714 39.6179 123.654V127.217H36.2679V108.297H39.0369ZM39.6169 112.384V118.847C41.3519 119.234 42.5619 119.427 43.2439 119.427C44.2789 119.427 44.9869 119.151 45.3739 118.601C45.7809 118.029 45.9839 116.878 45.9839 115.146C45.9839 113.453 45.7979 112.293 45.4289 111.666C45.0809 111.021 44.4629 110.699 43.5749 110.699C42.9649 110.699 42.3679 110.839 41.7759 111.115C41.2049 111.373 40.4849 111.795 39.6169 112.384ZM60.3499 116.474H54.8129C54.9429 117.651 55.2759 118.442 55.8089 118.847C56.3459 119.234 57.2219 119.427 58.4399 119.427C59.8229 119.427 61.4499 119.318 63.3119 119.096L63.6169 121.252C62.3429 121.859 60.4799 122.163 58.0239 122.163C55.5719 122.163 53.8259 121.618 52.7949 120.534C51.7599 119.447 51.2449 117.613 51.2449 115.035C51.2449 112.405 51.7519 110.562 52.7659 109.513C53.7819 108.446 55.4609 107.91 57.8039 107.91C59.9639 107.91 61.5309 108.306 62.5099 109.1C63.4879 109.873 63.9749 111.042 63.9749 112.607C63.9749 115.185 62.7669 116.474 60.3509 116.474H60.3499ZM54.7579 114.124H59.4099C60.2219 114.124 60.6259 113.599 60.6259 112.551C60.6259 111.815 60.4319 111.299 60.0459 111.004C59.6589 110.712 58.9559 110.561 57.9429 110.561C56.7619 110.561 55.9419 110.811 55.4789 111.309C55.0359 111.786 54.7959 112.726 54.7579 114.124ZM68.6849 108.297L68.9079 110.287C71.0119 108.704 72.9679 107.91 74.7759 107.91C75.9749 107.91 76.8969 108.233 77.5419 108.877C78.1899 109.522 78.5119 110.453 78.5119 111.667V121.832H75.1369V112.688C75.1369 111.935 75.0339 111.428 74.8319 111.171C74.6269 110.892 74.2489 110.755 73.6959 110.755C73.0689 110.755 72.4239 110.884 71.7589 111.141C71.1139 111.399 70.2739 111.824 69.2389 112.413V121.832H65.8639V108.296L68.6849 108.297ZM93.9629 118.847L94.2649 121.445C92.7349 121.922 90.7779 122.163 88.3999 122.163C85.5369 122.163 83.5269 121.424 82.3639 119.953C81.2009 118.481 80.6209 115.928 80.6209 112.301C80.6209 108.674 81.2009 106.126 82.3639 104.652C83.5269 103.178 85.5369 102.443 88.3989 102.443C90.5199 102.443 92.3459 102.646 93.8779 103.049L93.5469 105.674C91.8341 105.541 90.1168 105.477 88.3989 105.482C86.8119 105.482 85.7219 105.968 85.1329 106.943C84.5589 107.901 84.2739 109.688 84.2739 112.301C84.2739 114.918 84.5589 116.711 85.1329 117.689C85.7219 118.644 86.8119 119.125 88.3989 119.125C90.7399 119.125 92.5949 119.031 93.9629 118.847ZM111.682 102.775L106.285 120.865C106.101 121.507 105.675 121.832 105.01 121.832H101.748C101.451 121.832 101.181 121.747 100.944 121.582C100.722 121.397 100.566 121.146 100.499 120.865L95.0759 102.775H98.6439L102.547 117.08C102.603 117.302 102.687 117.66 102.799 118.158C102.907 118.636 102.992 118.987 103.047 119.207H103.739C103.848 118.618 104.024 117.909 104.264 117.08L108.11 102.774L111.682 102.775Z" fill="black"/>
</svg>
