<svg width="128" height="128" viewBox="0 0 128 128" fill="none" xmlns="http://www.w3.org/2000/svg">
<path d="M112.871 66.602C121.875 71.879 127.926 81.629 127.945 92.793C127.977 109.598 114.328 123.246 97.4651 123.273C80.6021 123.305 66.9062 109.703 66.8752 92.898C66.8552 81.734 72.8712 71.965 81.8592 66.652L90.6332 81.43C90.8522 81.8 90.7272 82.277 90.3712 82.52C87.0512 84.77 84.8752 88.566 84.8832 92.867C84.8952 99.762 90.5162 105.344 97.4332 105.328C104.352 105.316 109.949 99.718 109.937 92.824C109.93 88.524 107.742 84.734 104.414 82.496C104.059 82.254 103.93 81.777 104.148 81.406L112.871 66.602ZM45.4772 66.422C40.9208 63.8789 35.7882 62.5474 30.5702 62.555C13.7032 62.555 0.0351562 76.18 0.0351562 92.985C0.0351562 109.789 13.7032 123.415 30.5702 123.415C47.5162 123.415 61.5202 109.078 61.0942 92.203H43.9062C43.4532 92.203 43.0982 92.586 43.0942 93.035C43.0512 99.758 37.4222 105.469 30.5702 105.469C23.6482 105.469 18.0432 99.879 18.0432 92.984C18.0432 86.09 23.6482 80.5 30.5702 80.5C32.3792 80.5 34.1022 80.883 35.6562 81.574C36.0392 81.742 36.4922 81.614 36.7032 81.258L45.4772 66.422ZM47.9452 61.648C38.9532 56.355 32.9182 46.594 32.9182 35.43C32.9182 18.625 46.5902 5 63.4532 5C80.3162 5 93.9882 18.625 93.9882 35.43C93.9882 46.594 87.9531 56.355 78.9612 61.648L70.2102 46.86C69.9911 46.49 70.1161 46.013 70.4762 45.77C73.7962 43.524 75.9791 39.731 75.9791 35.43C75.9791 28.536 70.3702 22.946 63.4522 22.946C56.5342 22.946 50.9252 28.536 50.9252 35.431C50.9252 39.731 53.1082 43.524 56.4292 45.771C56.7892 46.013 56.9132 46.489 56.6942 46.861L47.9452 61.648Z" fill="black"/>
</svg>
