<svg width="128" height="128" viewBox="0 0 128 128" fill="none" xmlns="http://www.w3.org/2000/svg">
<path fill-rule="evenodd" clip-rule="evenodd" d="M27.3632 76.605C21.2852 76.605 18.2692 72.96 17.0862 69.152C18.4062 75.347 25.5352 81.382 48.0312 84.062C69.2892 86.613 83.1212 80.214 87.8012 77.238C87.8012 77.238 90.9572 75.871 89.0672 77.98C89.0672 77.98 75.6692 90.109 49.4582 90.265C23.1962 90.394 2.36819 77.402 2.47419 64.222C2.34919 51.097 23.1972 38.077 49.4582 38.183C75.7202 38.308 89.0672 50.464 89.0672 50.464C90.9622 52.569 87.8012 51.214 87.8012 51.214C83.1332 48.245 69.3442 42.394 48.0312 44.39C27.0972 46.37 20.2612 53.367 17.9452 58.038C17.0742 59.851 16.6752 61.561 16.5782 63.28C17.1442 58.784 19.9922 53.514 27.3442 53.514C35.6842 53.514 38.2152 60.338 38.2152 65.01C38.2152 69.737 35.6682 76.561 27.3442 76.561L27.3632 76.605ZM111.859 72.066H122.945V76.027H107.175V54.137H111.835V72.039L111.859 72.066ZM94.7462 64.238H104.055V76.054H100.95L100.485 73.308C99.3052 74.652 97.5942 76.632 93.5442 76.632C88.1732 76.632 83.3172 72.855 83.3172 65.187C83.3172 59.203 86.7042 53.582 94.2432 53.582C101.075 53.582 103.766 57.941 104.036 60.934H99.3762C99.3762 60.082 97.7942 57.336 94.5012 57.336C91.1812 57.336 88.0952 59.594 88.0952 65.211C88.0952 71.199 91.4152 72.723 94.6072 72.723C95.6302 72.723 99.0482 72.328 99.9902 67.907H94.8032V64.22L94.7462 64.238ZM27.4732 56.207C22.6292 56.207 19.7232 59.953 19.7232 65.133C19.7232 70.285 22.6412 74.059 27.4732 74.059C32.3172 74.059 35.2232 70.309 35.2232 65.133C35.2232 59.981 32.3052 56.207 27.4732 56.207ZM40.0122 62.039H42.2742V64.016H42.3292C42.8992 63.211 43.9892 61.629 46.5792 61.629C50.3682 61.629 53.0912 64.781 53.0912 68.719C53.0912 72.067 51.1262 76.438 46.2552 76.438C44.3452 76.438 43.0912 75.555 42.4702 74.563H42.4152V81.598H40.0132L40.0122 62.039ZM46.0942 74.426C48.7112 74.426 50.4852 72.199 50.4852 69.125C50.4852 67.328 49.7472 63.77 46.0402 63.77C42.5792 63.77 42.1962 67.434 42.1962 69.704C42.1962 73.419 44.5712 74.415 46.0942 74.415V74.426ZM67.6212 71.672C67.5392 72.336 66.8832 74.324 65.0862 75.496C64.4302 75.926 63.5042 76.465 61.2152 76.465C57.2072 76.465 54.8132 73.492 54.8132 69.43C54.8132 65.09 56.9382 61.657 61.6492 61.657C65.7662 61.657 67.7822 64.872 67.7822 69.848H57.3402C57.3402 72.77 58.7312 74.453 61.4852 74.453C63.7472 74.453 65.0872 72.742 65.1692 71.695H67.5672L67.6212 71.672ZM65.0822 67.953C64.9452 65.785 64.0162 63.777 61.0982 63.777C58.8912 63.777 57.1492 65.785 57.1492 67.953H65.0822ZM81.0662 76.039H78.6642V67.426C78.6642 64.996 77.9532 63.762 75.6132 63.762C74.2502 63.762 71.8512 64.621 71.8512 68.418V76.031H69.4492V62.016H71.7152V63.993H71.7702C72.2902 63.243 73.6222 61.61 76.0752 61.61C78.2822 61.61 81.0672 62.493 81.0672 66.485V76.04" fill="#B3B3B3"/>
<path fill-rule="evenodd" clip-rule="evenodd" d="M26.2889 75.031C20.1519 75.031 17.0859 71.386 15.9019 67.578C17.2379 73.769 24.4569 79.808 47.1719 82.488C68.6449 85.031 82.6369 78.64 87.3709 75.66C87.3709 75.66 90.5619 74.297 88.6479 76.406C88.6479 76.406 75.1399 88.535 48.5539 88.691C22.0199 88.816 0.925865 75.828 1.08587 62.648C0.956865 49.523 22.0199 36.504 48.5549 36.609C75.0859 36.734 88.6489 48.89 88.6489 48.89C90.5629 50.995 87.3719 49.64 87.3719 49.64C82.6529 46.671 68.6959 40.82 47.1729 42.812C25.9659 44.796 19.0789 51.792 16.7629 56.464C15.9506 58.0993 15.48 59.8829 15.3799 61.706C15.9499 57.21 18.8289 51.936 26.2509 51.936C34.6489 51.936 37.2309 58.764 37.2309 63.487C37.2309 68.21 34.6569 74.987 26.2509 74.987L26.2889 75.031ZM111.859 70.488H123.054V74.453H107.124V52.555H111.831V70.465L111.859 70.488ZM94.5819 62.664H104V74.477H100.863L100.394 71.739C99.1989 73.079 97.4679 75.063 93.3429 75.063C87.9059 75.063 82.9559 71.286 82.9559 63.618C82.9559 57.634 86.3779 52.013 93.9869 52.013C100.878 52.013 103.62 56.372 103.889 59.365H99.1819C99.1819 58.513 97.5769 55.767 94.2519 55.767C90.8929 55.767 87.7909 58.025 87.7909 63.642C87.7909 69.63 91.1499 71.154 94.3569 71.154C95.3919 71.154 98.8449 70.759 99.7949 66.338H94.5529V62.651L94.5819 62.664ZM26.2339 54.633C21.3359 54.633 18.3789 58.379 18.3789 63.559C18.3789 68.707 21.3279 72.485 26.2339 72.485C31.1319 72.485 34.0929 68.735 34.0929 63.559C34.0929 58.407 31.1439 54.633 26.2339 54.633ZM38.9369 60.461H41.2219V62.441H41.2769C41.8589 61.636 42.9569 60.054 45.5779 60.054C49.4099 60.054 52.1439 63.206 52.1439 67.144C52.1439 70.488 50.1559 74.863 45.2529 74.863C43.3229 74.863 42.0579 73.98 41.4209 72.988H41.3659V80.023H38.9399V60.488L38.9369 60.461ZM45.0699 72.856C47.7179 72.856 49.5109 70.626 49.5109 67.551C49.5109 65.75 48.7609 62.192 45.0149 62.192C41.5189 62.192 41.1319 65.86 41.1319 68.13C41.1319 71.845 43.5299 72.841 45.0699 72.841V72.856ZM66.8119 70.094C66.7299 70.766 66.0699 72.746 64.2499 73.922C63.5899 74.352 62.6519 74.891 60.3399 74.891C56.2849 74.891 53.8829 71.918 53.8829 67.852C53.8829 63.516 56.0349 60.082 60.8239 60.082C64.9839 60.082 67.0119 63.297 67.0119 68.273H56.4649C56.4649 71.195 57.8669 72.875 60.6559 72.875C62.9449 72.875 64.2929 71.168 64.3749 70.121H66.8049L66.8119 70.094ZM64.2419 66.379C64.1009 64.207 63.1639 62.203 60.2149 62.203C57.9809 62.203 56.2149 64.207 56.2149 66.379H64.2419ZM80.3869 74.461H77.9609V65.852C77.9609 63.418 77.2419 62.188 74.8709 62.188C73.4919 62.188 71.0659 63.043 71.0659 66.844V74.457H68.6359V60.441H70.9249V62.418H70.9799C71.5029 61.668 72.8509 60.035 75.3349 60.035C77.5649 60.035 80.3779 60.918 80.3779 64.91V74.414" fill="#5586A4"/>
<path fill-rule="evenodd" clip-rule="evenodd" d="M127.754 74.242C127.754 74.6007 127.658 74.9527 127.476 75.2617C127.294 75.5707 127.033 75.8256 126.719 76C126.398 76.183 126.055 76.27 125.684 76.27C125.313 76.27 124.973 76.18 124.653 76C124.34 75.8231 124.079 75.5673 123.895 75.2581C123.712 74.9508 123.617 74.5996 123.618 74.242C123.618 73.8859 123.714 73.5363 123.895 73.2301C124.079 72.9202 124.341 72.6638 124.655 72.4863C124.969 72.3088 125.324 72.2163 125.684 72.218C126.045 72.216 126.401 72.3084 126.715 72.4858C127.03 72.6633 127.292 72.9199 127.477 73.2301C127.659 73.5363 127.755 73.8859 127.754 74.242ZM127.356 74.242C127.356 73.793 127.192 73.406 126.864 73.09C126.711 72.9342 126.528 72.811 126.326 72.7278C126.124 72.6447 125.907 72.6032 125.688 72.6061C125.469 72.6027 125.251 72.6438 125.049 72.727C124.846 72.8102 124.662 72.9337 124.508 73.09C124.351 73.2372 124.226 73.4158 124.142 73.6143C124.058 73.8127 124.016 74.0266 124.02 74.242C124.016 74.4581 124.058 74.6726 124.142 74.8716C124.226 75.0707 124.351 75.25 124.508 75.398C124.836 75.718 125.227 75.878 125.688 75.878C125.907 75.882 126.123 75.8414 126.326 75.7589C126.528 75.6764 126.711 75.5536 126.864 75.398C127.192 75.078 127.356 74.695 127.356 74.242ZM124.751 73.1601H125.739C126.016 73.1601 126.223 73.2151 126.348 73.3281C126.473 73.4411 126.536 73.586 126.536 73.769C126.539 73.9094 126.487 74.0454 126.391 74.148C126.297 74.253 126.145 74.332 125.938 74.378C126.006 74.3992 126.07 74.4324 126.126 74.476C126.197 74.5415 126.256 74.6182 126.302 74.7031C126.306 74.7071 126.427 74.918 126.661 75.324H126.009L125.583 74.586C125.513 74.504 125.438 74.465 125.368 74.465C125.348 74.465 125.329 74.465 125.298 74.473V75.325H124.747L124.751 73.1601ZM125.302 74.0781H125.54C125.696 74.0781 125.81 74.055 125.876 74.004C125.942 73.953 125.974 73.891 125.974 73.809C125.974 73.727 125.943 73.661 125.88 73.614C125.817 73.567 125.712 73.5361 125.56 73.5361H125.302V74.0781Z" fill="#999999"/>
<path fill-rule="evenodd" clip-rule="evenodd" d="M127.754 73.7191C127.756 74.0754 127.66 74.4254 127.477 74.7311C127.297 75.043 127.035 75.2996 126.719 75.4731C126.404 75.6532 126.047 75.7474 125.684 75.7461C125.317 75.7461 124.973 75.6521 124.653 75.4731C124.333 75.2941 124.083 75.0471 123.895 74.7311C123.712 74.4254 123.616 74.0754 123.618 73.7191C123.618 73.3601 123.712 73.0201 123.895 72.7031C124.078 72.3941 124.339 72.1394 124.653 71.9651C124.973 71.7851 125.317 71.6951 125.684 71.6951C126.051 71.6951 126.403 71.7851 126.719 71.9651C127.035 72.1451 127.293 72.3911 127.477 72.7031C127.661 73.0151 127.754 73.3591 127.754 73.7191ZM127.356 73.7191C127.36 73.5032 127.318 73.289 127.233 73.0904C127.149 72.8919 127.023 72.7135 126.864 72.5671C126.54 72.2431 126.145 72.0831 125.688 72.0831C125.231 72.0831 124.833 72.2431 124.508 72.5671C124.351 72.7143 124.226 72.8928 124.142 73.0913C124.058 73.2897 124.016 73.5036 124.02 73.7191C124.016 73.9351 124.058 74.1496 124.142 74.3487C124.226 74.5477 124.351 74.727 124.508 74.8751C124.662 75.0301 124.847 75.1523 125.049 75.2343C125.252 75.3163 125.469 75.3563 125.688 75.3521C126.149 75.3521 126.54 75.1961 126.864 74.8751C127.188 74.5541 127.356 74.1721 127.356 73.7191ZM124.751 72.6331H125.739C126.016 72.6331 126.223 72.6921 126.348 72.8011C126.473 72.9101 126.536 73.0631 126.536 73.2461C126.536 73.3911 126.489 73.5161 126.391 73.6251C126.297 73.7271 126.145 73.8051 125.938 73.8551C126.006 73.8763 126.07 73.9095 126.126 73.9531C126.196 74.0178 126.255 74.0931 126.302 74.1761C126.306 74.1801 126.427 74.3911 126.661 74.8011H126.009L125.583 74.0631C125.513 73.9811 125.438 73.9381 125.368 73.9381C125.348 73.9381 125.329 73.9421 125.298 73.9461V74.8011H124.747L124.751 72.6331ZM125.302 73.5551H125.54C125.696 73.5551 125.81 73.5281 125.876 73.4771C125.907 73.4546 125.932 73.4252 125.949 73.3913C125.966 73.3575 125.974 73.32 125.974 73.2821C125.975 73.245 125.967 73.2083 125.951 73.175C125.934 73.1418 125.91 73.113 125.88 73.0911C125.818 73.0401 125.712 73.0131 125.56 73.0131H125.302V73.5551Z" fill="#5586A4"/>
</svg>
