<svg width="128" height="128" viewBox="0 0 128 128" fill="none" xmlns="http://www.w3.org/2000/svg">
<path d="M112.871 66.6021C121.875 71.8791 127.926 81.6291 127.945 92.7931C127.977 109.598 114.328 123.246 97.465 123.273C80.602 123.305 66.906 109.703 66.875 92.8981C66.855 81.7341 72.8711 71.9651 81.8591 66.6521L90.6331 81.4301C90.8521 81.8001 90.7271 82.2771 90.3711 82.5201C87.0511 84.7701 84.8751 88.566 84.8831 92.8671C84.8951 99.7621 90.516 105.344 97.433 105.328C104.352 105.316 109.949 99.7181 109.937 92.8241C109.93 88.5241 107.742 84.7341 104.414 82.4961C104.059 82.2541 103.93 81.7771 104.148 81.4061L112.871 66.6021Z" fill="#128DFF"/>
<path d="M45.4772 66.422C40.9208 63.8788 35.7882 62.5474 30.5702 62.555C13.7032 62.555 0.0351562 76.18 0.0351562 92.985C0.0351562 109.789 13.7032 123.415 30.5702 123.415C47.5162 123.415 61.5202 109.078 61.0942 92.203H43.9062C43.4532 92.203 43.0982 92.586 43.0942 93.035C43.0512 99.758 37.4222 105.469 30.5702 105.469C23.6482 105.469 18.0432 99.879 18.0432 92.984C18.0432 86.09 23.6482 80.5 30.5702 80.5C32.3792 80.5 34.1022 80.883 35.6562 81.574C36.0392 81.742 36.4922 81.614 36.7032 81.258L45.4772 66.422Z" fill="#8BDA67"/>
<path d="M47.945 61.648C38.953 56.355 32.918 46.594 32.918 35.43C32.918 18.625 46.59 5 63.453 5C80.316 5 93.988 18.625 93.988 35.43C93.988 46.594 87.953 56.355 78.961 61.648L70.21 46.86C69.991 46.49 70.116 46.013 70.476 45.77C73.796 43.524 75.979 39.731 75.979 35.43C75.979 28.536 70.37 22.946 63.452 22.946C56.534 22.946 50.925 28.536 50.925 35.431C50.925 39.731 53.108 43.524 56.429 45.771C56.789 46.013 56.913 46.489 56.694 46.861L47.945 61.648Z" fill="#FF2A44"/>
</svg>
