<svg width="128" height="128" viewBox="0 0 128 128" fill="none" xmlns="http://www.w3.org/2000/svg">
<path fill-rule="evenodd" clip-rule="evenodd" d="M109.434 20.7454C108.826 20.7054 108.218 20.8539 107.647 21.1824C107.076 21.5109 106.552 22.0128 106.105 22.6592C105.207 23.9704 104.672 25.7374 104.637 27.659C104.551 31.6223 106.559 34.9518 109.117 35.097C110.348 35.166 111.547 34.4737 112.453 33.1708C112.898 32.5327 113.257 31.7621 113.509 30.9043C113.761 30.0464 113.9 29.1187 113.918 28.1756C114.008 24.2139 112 20.8843 109.434 20.7454ZM110.195 28.5909C109.055 28.5909 108.133 27.6402 108.133 26.4757C108.133 25.2925 109.055 24.3481 110.195 24.3481C111.332 24.3481 112.258 25.2925 112.258 26.4757C112.258 27.6402 111.332 28.5909 110.195 28.5909ZM121.02 37.1528C121.055 37.1091 121.133 37.0061 121.121 36.9093C120.863 34.4211 118.469 22.3657 116.652 19.4638C116.152 18.6771 115.754 17.8966 114.945 17.1645C108.383 11.2562 92.8131 7.6894 92.0852 7.52393C92.0852 7.52393 92.0122 7.50052 91.9612 7.57857C91.9212 7.64101 91.9142 7.75652 91.9142 7.75652L91.8442 13.2933C90.2542 12.4691 78.6951 6.7013 67.8641 6.12218C58.6721 5.62266 45.2931 3.78696 27.5591 20.6346L27.0351 21.1403C18.6911 29.1762 12.9341 39.0978 9.92215 50.6162C8.97715 54.2439 7.70715 62.4266 8.96515 70.1222C9.50815 73.4876 10.5201 76.8718 11.8831 79.897C14.9611 86.7325 20.1331 91.275 25.6991 92.0367C33.5591 93.1216 39.5081 87.6707 41.6251 77.4572C43.0781 70.4078 41.6251 60.0679 36.0471 54.7918C31.5071 50.4945 26.6292 51.4701 23.7972 54.3657C21.3442 56.8835 19.9531 60.7922 19.9771 65.0849C20.0311 72.7025 24.2771 76.7501 27.3321 76.761C28.2191 76.761 29.1091 76.5237 30.1131 76.018C30.4732 75.8541 30.8091 75.6465 31.1801 75.2859L31.2931 75.1829L31.3671 75.1095L31.3441 75.1345C32.0391 74.3961 32.4571 73.2067 32.4571 71.9267C32.4571 71.5786 32.4261 71.2242 32.3591 70.8714C32.1833 69.9409 31.7923 69.1456 31.2619 68.6397C30.7316 68.1338 30.0998 67.9534 29.4891 68.1335L29.3161 68.2006L29.0821 68.3099L28.7421 68.4878C28.0431 68.7563 27.5161 68.7813 27.4021 68.786C27.0431 68.7501 25.2891 67.9384 25.2891 64.9632V64.921C25.2891 63.8283 25.5701 63.0603 25.7271 62.6467C26.2731 61.3167 27.7701 60.018 29.7931 60.2927C32.4451 60.6471 34.3591 62.7497 35.6292 66.7193C36.8052 70.4078 36.4961 74.9456 34.8361 78.2689C33.1841 81.561 30.2461 82.9628 26.3401 82.3118C22.3981 81.6406 19.0661 78.1347 17.2031 72.6775C15.3751 67.3483 15.2771 61.0248 16.9451 56.1639C20.9341 44.53 28.4651 44.6517 32.5981 45.7569C38.7111 47.3897 45.6641 56.1093 48.1331 66.1713C48.5311 67.7745 48.7341 69.0482 48.9101 70.208L49.1761 71.9454L56.0821 77.1591C56.2301 77.2683 56.2822 77.3105 56.3401 77.2371C56.4142 77.1591 56.3711 76.9327 56.3711 76.9327C56.3281 76.6954 56.2271 76.4753 56.0711 73.4876C55.9381 70.834 55.6712 63.5786 58.0351 59.9821C58.9531 58.5788 60.3521 57.3237 61.4571 56.921C65.9801 55.2133 71.2892 56.3903 76.3092 65.3721C78.9062 70.0067 80.1721 72.1218 80.8092 73.0677C80.8092 73.0677 80.9531 73.28 81.0312 73.3784C81.1132 73.4814 81.1682 73.5735 81.2932 73.6765C81.5002 73.8592 89.9221 79.8471 89.9221 79.8471C89.9221 79.8471 90.0202 79.9267 90.0942 79.7862C90.1682 79.6457 90.0982 79.5052 90.0982 79.5052C90.0432 79.4084 84.7622 68.8594 85.6992 60.171C86.4411 53.2496 90.0042 53.8787 94.9342 54.7388C96.5432 55.0307 98.3752 55.3538 100.27 55.4209C105.566 55.4693 111.27 53.9567 114.785 51.5856C117.059 50.0558 118.508 49.0365 119.418 47.7612C119.746 47.3413 119.914 46.6654 120.09 45.9333L120.215 45.451C120.363 44.8531 120.578 43.6043 120.672 42.9222C120.711 42.6225 120.758 42.3228 120.594 42.1339C120.449 41.9575 120.109 42.2681 120.109 42.2681C118.566 43.7073 114.707 46.4266 111.098 46.5421C106.621 46.6826 97.5432 39.5364 96.6052 38.7809C95.9732 36.4629 95.3482 34.1464 94.7072 31.8346C101.199 38.4515 106.586 42.1042 110.707 42.6646C115.297 43.2984 118.875 39.4272 120.426 37.8178C120.629 37.6102 120.832 37.3776 121.02 37.1528ZM102.602 27.6402C102.632 26.2864 102.834 24.9553 103.196 23.7243C103.558 22.4932 104.073 21.3867 104.711 20.4691C106.011 18.5912 107.711 17.6219 109.492 17.714C113.16 17.9153 116.043 22.7013 115.918 28.3661C115.888 29.7189 115.686 31.0489 115.324 32.2789C114.961 33.5088 114.446 34.6142 113.808 35.531C113.167 36.4618 112.414 37.1855 111.593 37.6604C110.771 38.1354 109.898 38.3523 109.023 38.2986C105.359 38.0847 102.48 33.3113 102.602 27.6402Z" fill="black"/>
<path d="M54.2191 87.1586C51.2931 87.1586 49.6841 90.983 49.6841 93.6273V97.0177C49.6841 100.914 51.7381 103.324 53.6481 103.324H60.3481C61.1911 103.324 61.3681 104.176 61.3681 104.896V107.091C61.3681 107.323 61.3361 109.427 60.3481 109.427H51.2101C50.3001 109.427 49.6441 110.403 49.6441 111.738V112.342C49.6441 113.67 50.3001 114.64 51.2101 114.64H60.8431C63.3631 114.64 64.9871 111.933 64.9871 107.743V104.08C64.9871 100.14 63.1551 98.3773 61.3391 98.3773H54.7451C53.7531 98.3773 53.3041 97.2316 53.3041 96.4152V94.3968C53.3041 93.1215 53.8541 92.3832 54.8151 92.3832H62.1121C63.0071 92.3832 63.6821 91.3904 63.6821 90.0792V89.4751C63.6821 88.1529 62.9951 87.1586 62.0811 87.1586H54.2191ZM81.6101 87.1586C80.7461 87.1586 80.0471 88.2435 80.0471 89.5859V106.921C80.0471 108.31 79.3171 109.427 78.4261 109.427H73.3361C72.4461 109.427 71.7151 108.311 71.7151 106.921V89.5859C71.7151 88.2435 71.0121 87.1586 70.1481 87.1586H69.6561C69.4504 87.1544 69.2463 87.2142 69.0556 87.3344C68.8649 87.4547 68.6915 87.6329 68.5453 87.8589C68.3992 88.0848 68.2833 88.3538 68.2045 88.6503C68.1257 88.9468 68.0854 89.2649 68.0861 89.5859V107.573C68.0861 111.769 70.2191 114.805 73.1561 114.805H78.6061C81.5391 114.805 83.6681 111.769 83.6681 107.573V89.5859C83.6681 88.231 82.9801 87.1586 82.1051 87.1586H81.6101ZM91.3601 87.1586C88.4341 87.1586 86.8201 90.983 86.8201 93.6273V97.0177C86.8201 100.914 88.8831 103.324 90.7901 103.324H97.4881C98.3321 103.324 98.5121 104.176 98.5121 104.896V107.091C98.5121 107.323 98.4801 109.427 97.4881 109.427H88.3481C87.4411 109.427 86.7811 110.403 86.7811 111.738V112.342C86.7811 113.67 87.4411 114.64 88.3481 114.64H97.9841C100.504 114.64 102.137 111.933 102.137 107.743V104.08C102.137 100.14 100.297 98.3773 98.4801 98.3773H91.8901C90.8951 98.3773 90.4451 97.2316 90.4451 96.4152V94.3968C90.4451 93.1215 90.9961 92.3832 91.9571 92.3832H99.2571C100.152 92.3832 100.824 91.3904 100.824 90.0792V89.4751C100.824 88.1529 100.141 87.1586 99.2231 87.1586H91.3601ZM105.238 89.4688V112.343C105.238 113.655 105.878 114.641 106.73 114.641H118.52C119.43 114.641 120.086 113.673 120.086 112.343V111.739C120.086 110.397 119.43 109.423 118.52 109.423H108.863V103.602H115.941C116.844 103.602 117.504 102.614 117.504 101.285V100.683C117.504 99.3482 116.844 98.3773 115.941 98.3773H108.863V92.3785H118.031C118.934 92.3785 119.594 91.4154 119.594 90.0729V89.4688C119.594 88.1342 118.934 87.1523 118.031 87.1523L106.761 87.1586C105.895 87.1586 105.238 88.1529 105.238 89.4688ZM6.53107 98.0433C5.05507 98.0433 3.85107 99.8228 3.85107 102.013V110.634C3.85266 111.706 4.12604 112.732 4.61142 113.49C5.09679 114.248 5.75465 114.675 6.44107 114.677H10.0511C10.7375 114.675 11.3954 114.248 11.8807 113.49C12.3661 112.732 12.6395 111.706 12.6411 110.634V102.013C12.6411 99.8228 11.4371 98.0433 9.96107 98.0433H6.53107ZM5.75007 110.292V102.42C5.75007 101.495 6.24207 100.744 6.84407 100.744H9.65207C10.2421 100.744 10.7421 101.512 10.7421 102.42V110.292C10.7421 111.219 10.2541 111.975 9.65207 111.975H6.82007C6.21907 111.975 5.75007 111.238 5.75007 110.292ZM20.8161 97.9449C19.7731 97.9449 18.9881 98.5178 18.3591 98.9877C17.9771 99.2749 17.6451 99.5184 17.3871 99.5184C17.2701 99.5184 17.1681 99.4403 17.1171 99.3045L16.8751 98.5912C16.8116 98.4306 16.7239 98.2968 16.6197 98.2013C16.5154 98.1058 16.3978 98.0515 16.2771 98.0433H15.9221C15.5781 98.0433 15.3051 98.5178 15.3051 99.0969V120.969C15.3051 121.659 15.6561 122.195 16.0981 122.195H16.4061C16.5101 122.197 16.6132 122.166 16.7097 122.106C16.8061 122.045 16.8939 121.955 16.968 121.841C17.0421 121.727 17.101 121.591 17.1414 121.442C17.1817 121.292 17.2027 121.132 17.2031 120.969V113.714C17.2031 113.5 17.2931 113.269 17.3871 113.269C17.6451 113.269 17.9771 113.5 18.3591 113.769C18.9891 114.22 19.7731 114.768 20.8161 114.768H21.1481C22.9881 114.768 24.1371 113.139 24.1371 110.531V102.181C24.1371 99.6027 22.9651 97.9434 21.1481 97.9434L20.8161 97.9449ZM17.2031 110.121V102.592C17.202 102.346 17.2324 102.103 17.2924 101.876C17.3525 101.649 17.4411 101.443 17.5529 101.27C17.6647 101.097 17.7975 100.961 17.9435 100.87C18.0895 100.778 18.2458 100.733 18.4031 100.738H21.0391C21.7111 100.738 22.2391 101.555 22.2391 102.592V110.122C22.2391 111.146 21.6991 111.975 21.0391 111.975H18.4021C17.7421 111.975 17.2031 111.148 17.2031 110.122V110.121ZM26.7971 102.007V110.567C26.7971 112.787 27.9611 114.671 29.3361 114.671H33.0591C33.5191 114.671 33.8551 114.178 33.8551 113.506V113.129C33.8551 112.457 33.5201 111.969 33.0591 111.969H30.0001C29.1451 111.969 28.6911 111.322 28.6911 110.085V107.579H34.2111C35.0981 107.579 35.6211 106.744 35.6211 105.324V102.007C35.6211 99.8165 34.4211 98.037 32.9491 98.037L29.4731 98.0433C27.9961 98.0433 26.7971 99.8165 26.7971 102.007ZM28.6911 102.384C28.6911 101.463 29.1641 100.738 29.7611 100.738H32.6611C33.2581 100.738 33.7231 101.463 33.7231 102.384V105.061H28.6901V102.384H28.6911ZM43.2931 97.9449C42.2581 97.9449 41.4731 98.5178 40.8431 98.9814C40.4491 99.2686 40.1131 99.5184 39.8401 99.5184C39.7191 99.5184 39.6681 99.4934 39.5741 99.2437L39.3591 98.6286C39.2301 98.2384 39.0191 98.0433 38.7301 98.0433H38.4261C38.0551 98.0433 37.7861 98.4881 37.7861 99.0969V113.445C37.7861 114.121 38.1331 114.671 38.5781 114.671H38.8871C39.0965 114.672 39.2978 114.543 39.447 114.314C39.5962 114.084 39.6814 113.772 39.6841 113.445V102.592C39.6841 101.573 40.2231 100.738 40.8791 100.738H43.5161C44.1761 100.738 44.7151 101.573 44.7151 102.592V113.445C44.7151 114.121 45.0621 114.671 45.5081 114.671H45.8161C46.0257 114.672 46.2272 114.544 46.3766 114.315C46.5259 114.085 46.611 113.773 46.6131 113.445V102.177C46.6131 99.6042 45.4451 97.9465 43.6251 97.9465L43.2931 97.9449ZM122.723 109.109C123.527 109.109 124.168 110.122 124.168 111.383C124.168 112.663 123.528 113.664 122.718 113.664C122.526 113.665 122.336 113.607 122.159 113.493C121.982 113.379 121.821 113.211 121.685 112.999C121.55 112.787 121.443 112.535 121.37 112.258C121.297 111.981 121.261 111.684 121.262 111.385C121.262 110.121 121.914 109.109 122.719 109.109H122.723ZM122.719 109.463C122.07 109.463 121.543 110.322 121.543 111.383C121.543 112.464 122.07 113.311 122.723 113.311C123.375 113.324 123.898 112.464 123.898 111.391C123.898 110.323 123.375 109.463 122.723 109.463H122.719ZM122.441 112.701H122.184V110.172C122.32 110.141 122.449 110.11 122.644 110.11C122.894 110.11 123.059 110.188 123.156 110.305C123.254 110.414 123.305 110.586 123.305 110.829C123.305 111.157 123.16 111.36 122.985 111.446V111.463C123.129 111.507 123.227 111.706 123.262 112.08C123.301 112.476 123.336 112.621 123.363 112.707H123.09C123.05 112.621 123.012 112.39 122.98 112.061C122.941 111.738 122.836 111.616 122.625 111.616H122.445V112.701H122.441ZM122.441 111.299H122.633C122.848 111.299 123.031 111.184 123.031 110.865C123.031 110.647 122.926 110.42 122.633 110.42C122.547 110.42 122.488 110.433 122.441 110.445V111.299Z" fill="black"/>
</svg>
