<svg width="128" height="128" viewBox="0 0 128 128" fill="none" xmlns="http://www.w3.org/2000/svg">
<path fill-rule="evenodd" clip-rule="evenodd" d="M109.434 35.7494C108.826 35.7106 108.218 35.8603 107.647 36.1898C107.075 36.5194 106.551 37.0223 106.105 37.6694C105.659 38.307 105.3 39.0774 105.048 39.9353C104.795 40.7932 104.656 41.7212 104.637 42.6646C104.551 46.6294 106.559 49.9637 109.117 50.1104C110.349 50.1766 111.548 49.4816 112.453 48.1764C112.898 47.5385 113.257 46.7681 113.509 45.9106C113.76 45.053 113.9 44.1256 113.918 43.1828C114.008 39.2195 112 35.8899 109.434 35.7494ZM110.195 43.6043C109.055 43.6043 108.133 42.6458 108.133 41.4813C108.133 40.2981 109.055 39.3537 110.195 39.3537C111.332 39.3537 112.258 40.2981 112.258 41.4813C112.258 42.6458 111.332 43.6043 110.195 43.6043ZM121.02 52.1584C121.055 52.1225 121.133 52.0117 121.121 51.9149C120.863 49.4267 118.469 37.3713 116.652 34.4757C116.152 33.6827 115.754 32.9085 114.945 32.1701C108.383 26.2618 92.8131 22.695 92.0852 22.5358C92.0852 22.5358 92.0122 22.5124 91.9612 22.5857C91.9212 22.6466 91.9142 22.7621 91.9142 22.7621L91.8442 28.3036C90.2542 27.4763 78.6951 21.7069 67.8641 21.1278C58.6721 20.6283 45.2931 18.7926 27.5591 35.6402L27.0351 36.1459C18.6911 44.1912 12.9341 54.1034 9.92215 65.6281C8.97715 69.2495 7.70715 77.4322 8.96515 85.1278C9.50815 88.4933 10.5201 91.8774 11.8831 94.9026C14.9611 101.744 20.1331 106.281 25.6991 107.049C33.5591 108.133 39.5081 102.678 41.6251 92.4628C43.0781 85.415 41.6251 75.0735 36.0471 69.7974C31.5071 65.5048 26.6292 66.4819 23.7972 69.3713C21.3442 71.8907 19.9531 75.7994 19.9771 80.0968C20.0311 87.7143 24.2771 91.7619 27.3321 91.7744C28.2191 91.7744 29.1091 91.5372 30.1131 91.0298C30.4732 90.8597 30.8091 90.6521 31.1801 90.2993L31.2931 90.1947L31.3671 90.1167L31.3441 90.1401C31.6834 89.7899 31.9624 89.3149 32.1565 88.7569C32.3506 88.1989 32.4538 87.575 32.4571 86.9401C32.4571 86.592 32.4261 86.2376 32.3591 85.8786C32.0002 83.9508 30.7661 82.7879 29.4891 83.1469L29.3161 83.2078L29.0821 83.3171L28.7421 83.4997C28.0431 83.7619 27.5161 83.7869 27.4021 83.7932C27.0431 83.7557 25.2891 82.9455 25.2891 79.9688V79.9329C25.2891 78.8355 25.5701 78.0737 25.7271 77.6538C26.2731 76.3286 27.7701 75.0314 29.7931 75.2983C32.4451 75.6527 34.3591 77.7569 35.6292 81.7249C36.8052 85.415 36.4961 89.9512 34.8361 93.2745C33.1841 96.5682 30.2461 97.9699 26.3401 97.3175C22.3981 96.6462 19.0661 93.1403 17.2031 87.6893C15.3751 82.3539 15.2771 76.0304 16.9451 71.1774C20.9341 59.5372 28.4651 59.6573 32.5981 60.7625C38.7111 62.4015 45.6641 71.1165 48.1331 81.177C48.5311 82.7801 48.7341 84.0554 48.9101 85.2199L49.1761 86.9573L56.0821 92.1647C56.2301 92.2802 56.2822 92.3176 56.3401 92.2505C56.4142 92.1647 56.3711 91.9383 56.3711 91.9383C56.3281 91.7011 56.2271 91.481 56.0711 88.4933C55.9381 85.8412 55.6712 78.5857 58.0351 74.9939C58.9531 73.5859 60.3521 72.3294 61.4571 71.9329C65.9801 70.2189 71.2892 71.4021 76.3092 80.3777C78.9062 85.0123 80.1721 87.1274 80.8092 88.0734C80.8092 88.0734 80.9531 88.2872 81.0312 88.3856C81.1132 88.4948 81.1682 88.5791 81.2932 88.6884C81.5002 88.8663 89.9221 94.8605 89.9221 94.8605C89.9221 94.8605 90.0202 94.9323 90.0942 94.7934C90.1682 94.6529 90.0982 94.5124 90.0982 94.5124C90.0432 94.414 84.7622 83.8665 85.6992 75.1766C86.4411 68.2614 90.0042 68.8843 94.9342 69.7444C96.5432 70.0363 98.3752 70.3594 100.27 70.4265C105.566 70.4812 111.27 68.9701 114.785 66.5912C117.059 65.0677 118.508 64.0484 119.418 62.7668C119.746 62.3532 119.914 61.671 120.09 60.9405L120.215 60.4566C120.363 59.8665 120.578 58.6146 120.672 57.9278C120.711 57.6281 120.758 57.3299 120.594 57.1395C120.449 56.9631 120.109 57.28 120.109 57.28C118.566 58.713 114.707 61.4322 111.098 61.5493C106.621 61.6897 97.5432 54.542 96.6052 53.7865C95.9732 51.47 95.3482 49.152 94.7072 46.848C101.199 53.4572 106.586 57.1098 110.707 57.6765C115.297 58.3055 118.875 54.439 120.426 52.8296C120.629 52.6158 120.832 52.3848 121.02 52.1584ZM102.602 42.6458C102.632 41.2924 102.834 39.9618 103.196 38.7311C103.558 37.5004 104.073 36.3941 104.711 35.4763C106.01 33.6101 107.728 32.6195 109.492 32.7196C113.16 32.921 116.043 37.7069 115.918 43.3717C115.888 44.7245 115.686 46.0545 115.324 47.2845C114.961 48.5144 114.446 49.6199 113.808 50.5366C113.167 51.4674 112.414 52.1911 111.593 52.6661C110.771 53.141 109.898 53.3579 109.023 53.3042C105.359 53.0981 102.48 48.3169 102.602 42.6458Z" fill="#73BA25"/>
<path d="M92.4962 90.3228C93.3012 90.3228 93.9412 91.3296 93.9412 92.5909C93.9412 93.8709 93.3012 94.8714 92.4922 94.8714C92.3003 94.8729 92.1102 94.8149 91.9328 94.7008C91.7554 94.5868 91.5943 94.4189 91.4588 94.2069C91.3233 93.9949 91.2161 93.743 91.1433 93.4659C91.0706 93.1888 91.0339 92.8919 91.0352 92.5924C91.0352 91.328 91.6882 90.3228 92.4922 90.3228H92.4962ZM92.4922 90.6771C91.8442 90.6771 91.3162 91.531 91.3162 92.5909C91.3162 93.6711 91.8442 94.5187 92.4962 94.5187C93.1482 94.5311 93.6722 93.6711 93.6722 92.6033C93.6722 91.531 93.1482 90.6771 92.4962 90.6771H92.4922ZM92.2152 93.9146H91.9532V91.3842C92.0932 91.353 92.2232 91.3218 92.4182 91.3218C92.6682 91.3218 92.8282 91.403 92.9262 91.5122C93.0272 91.6215 93.0782 91.7932 93.0782 92.0367C93.0782 92.3645 92.9342 92.5737 92.7582 92.6517V92.6705C92.9022 92.7142 93.0002 92.914 93.0312 93.287C93.0742 93.6835 93.1092 93.835 93.1372 93.9146H92.8632C92.8242 93.8365 92.7852 93.6024 92.7532 93.2683C92.7112 92.9452 92.6092 92.8234 92.3982 92.8234H92.2152V93.9146ZM92.2152 92.5128H92.4062C92.6212 92.5128 92.8052 92.391 92.8052 92.0789C92.8052 91.8541 92.6992 91.634 92.4062 91.634C92.3202 91.634 92.2622 91.6402 92.2152 91.6527V92.5128Z" fill="#73BA25"/>
</svg>
