<svg width="128" height="128" viewBox="0 0 128 128" fill="none" xmlns="http://www.w3.org/2000/svg">
<path d="M23.41 42.0859C10.48 42.0859 0 52.0269 0 64.2969C0 76.2069 9.883 85.9259 22.297 86.4769C22.668 86.4929 23.039 86.5039 23.41 86.5039C29.406 86.5039 34.871 84.3669 39.012 80.8519C36.2065 82.6292 32.9541 83.5735 29.633 83.5749C24.055 83.5749 19.063 80.9499 15.707 76.8089C13.117 73.9109 11.441 69.6249 11.324 64.8209V63.7699C11.441 58.9609 13.117 54.6759 15.703 51.7779C19.062 47.6409 24.055 45.0199 29.633 45.0199C33.063 45.0199 36.27 46.0079 39.016 47.7349C34.891 44.2379 29.461 42.1089 23.5 42.0859H23.41Z" fill="url(#paint0_linear_3_7261)"/>
<path d="M15.707 51.777C17.855 49.371 20.629 47.918 23.66 47.918C30.477 47.918 36 55.25 36 64.297C36 73.336 30.473 80.668 23.66 80.668C20.629 80.668 17.855 79.219 15.707 76.813C19.062 80.954 24.055 83.575 29.633 83.575C32.9542 83.5742 36.2068 82.6298 39.012 80.852C43.805 76.786 46.825 70.879 46.825 64.297C46.825 57.715 43.805 51.805 39.016 47.738C36.2094 45.9604 32.9552 45.0174 29.633 45.019C24.059 45.019 19.063 47.64 15.707 51.777Z" fill="url(#paint1_linear_3_7261)"/>
<path d="M83.078 73.4959C80.125 73.4959 77.723 70.9879 77.723 67.9099C77.723 64.8319 80.125 62.3239 83.078 62.3239C86.031 62.3239 88.43 64.8359 88.43 67.9099C88.43 70.9839 86.028 73.4959 83.078 73.4959ZM83.078 60.7809C82.1081 60.7759 81.1493 60.9881 80.272 61.4018C79.3947 61.8155 78.6212 62.4204 78.008 63.1719V61.1059H76.36V79.1019H78.008V72.6449C78.6195 73.3989 79.3926 74.0058 80.2701 74.4209C81.1477 74.8359 82.1073 75.0485 83.078 75.0429C86.93 75.0429 90.062 71.8439 90.062 67.9099C90.062 63.9759 86.929 60.7809 83.078 60.7809ZM64.691 73.9259C60.043 73.9259 56.261 70.1329 56.261 65.4729C56.261 60.8129 60.042 57.0199 64.691 57.0199C69.34 57.0199 73.121 60.8129 73.121 65.4729C73.121 70.1329 69.34 73.9259 64.691 73.9259ZM64.691 55.5239C59.175 55.5239 54.687 59.9849 54.687 65.4729C54.687 70.9609 59.175 75.4219 64.691 75.4219C70.207 75.4219 74.695 70.9569 74.695 65.4729C74.695 59.9889 70.207 55.5239 64.691 55.5239ZM113.164 60.8359C112.604 60.8564 112.055 60.9977 111.555 61.2499C110.5 61.7849 109.77 62.5979 109.301 63.6369L109.266 63.7149L109.25 61.1919H107.598V74.6719H109.254V67.5979C109.254 66.6019 109.418 65.7929 109.762 65.0079C110.078 64.2779 110.524 63.6289 111.16 63.1129C111.514 62.811 111.929 62.5897 112.377 62.4641C112.825 62.3386 113.295 62.3119 113.754 62.3859L114.234 62.4799C114.328 62.0309 114.554 61.4599 114.648 61.0109C114.164 60.8832 113.664 60.8239 113.164 60.8349M98.527 62.3439C101.445 62.3439 103.484 64.2149 103.828 67.0669H93.246C93.644 64.3989 95.859 62.3439 98.527 62.3439ZM98.527 60.8009C94.675 60.8009 91.543 64.0039 91.543 67.9339C91.543 71.8639 94.676 75.0629 98.527 75.0629C101.285 75.0629 103.672 73.4299 104.808 71.0589L103.386 70.2699C102.534 72.1879 100.679 73.5159 98.527 73.5159C95.738 73.5159 93.445 71.2779 93.199 68.4339H105.496L105.516 67.9339C105.516 63.7309 102.641 60.8009 98.528 60.8009M121.281 73.4959C118.328 73.4959 115.926 70.9879 115.926 67.9099C115.926 64.8319 118.328 62.3239 121.281 62.3239C124.234 62.3239 126.636 64.8359 126.636 67.9099C126.636 70.9839 124.234 73.4959 121.281 73.4959ZM126.351 61.1049V63.1709C125.738 62.4194 124.964 61.8145 124.087 61.4008C123.21 60.9871 122.251 60.7749 121.281 60.7799C117.429 60.7799 114.297 63.9789 114.297 67.9089C114.297 71.8389 117.43 75.0419 121.281 75.0419C122.252 75.0471 123.211 74.8344 124.089 74.4194C124.966 74.0043 125.739 73.3976 126.351 72.6439V74.6749H128V61.1049H126.351Z" fill="black"/>
<defs>
<linearGradient id="paint0_linear_3_7261" x1="19.508" y1="42.8079" x2="19.508" y2="85.8577" gradientUnits="userSpaceOnUse">
<stop stop-color="#FF1B2D"/>
<stop offset="0.614" stop-color="#FF1B2D"/>
<stop offset="1" stop-color="#A70014"/>
</linearGradient>
<linearGradient id="paint1_linear_3_7261" x1="31.263" y1="45.346" x2="31.263" y2="83.4212" gradientUnits="userSpaceOnUse">
<stop stop-color="#9C0000"/>
<stop offset="0.7" stop-color="#FF4B4B"/>
</linearGradient>
</defs>
</svg>
