<svg width="128" height="128" viewBox="0 0 128 128" fill="none" xmlns="http://www.w3.org/2000/svg">
<path d="M63.996 0.00805664C28.652 0.00805664 0 28.6601 0 64.0081C0 98.3281 27.02 126.34 60.949 127.93C61.961 127.977 62.976 128.004 63.996 128.004C79.7359 128.025 94.9276 122.225 106.648 111.719C99.148 116.692 90.375 119.555 81.003 119.555C65.761 119.555 52.112 111.993 42.933 100.071C35.855 91.7191 31.273 79.3721 30.96 65.5121V62.5001C31.273 48.6411 35.855 36.2931 42.933 27.9411C52.113 16.0161 65.762 8.45706 81 8.45706C90.375 8.45706 99.148 11.3201 106.652 16.2971C95.383 6.21906 80.531 0.0700566 64.238 0.00805664H63.996Z" fill="url(#paint0_linear_3_7267)"/>
<path d="M42.9341 27.9449C48.8051 21.0109 56.3911 16.8279 64.6761 16.8279C83.3091 16.8279 98.4101 37.9529 98.4101 64.0079C98.4101 90.0629 83.3081 111.188 64.6761 111.188C56.3911 111.188 48.8051 107.008 42.9341 100.075C52.1141 112.001 65.7621 119.559 81.0041 119.559C90.3791 119.559 99.1491 116.696 106.649 111.723C119.751 100.004 127.997 82.9689 127.997 64.0079C127.997 45.0469 119.751 28.0199 106.653 16.3009C99.1531 11.3239 90.3801 8.46094 81.0051 8.46094C65.7631 8.46094 52.1141 16.0229 42.9351 27.9449" fill="url(#paint1_linear_3_7267)"/>
<defs>
<linearGradient id="paint0_linear_3_7267" x1="53.327" y1="2.09506" x2="53.327" y2="126.143" gradientUnits="userSpaceOnUse">
<stop stop-color="#FF1B2D"/>
<stop offset="0.614" stop-color="#FF1B2D"/>
<stop offset="1" stop-color="#A70014"/>
</linearGradient>
<linearGradient id="paint1_linear_3_7267" x1="85.4631" y1="9.40794" x2="85.4631" y2="119.121" gradientUnits="userSpaceOnUse">
<stop stop-color="#9C0000"/>
<stop offset="0.7" stop-color="#FF4B4B"/>
</linearGradient>
</defs>
</svg>
