<svg width="128" height="128" viewBox="0 0 128 128" fill="none" xmlns="http://www.w3.org/2000/svg">
<path d="M42.933 27.9411C48.804 21.0071 56.39 16.8241 64.675 16.8241C83.308 16.8241 98.409 37.9491 98.409 64.0041C98.409 90.0591 83.307 111.184 64.675 111.184C56.39 111.184 48.804 107.004 42.933 100.071C52.113 111.997 65.761 119.555 81.003 119.555C90.378 119.555 99.148 116.692 106.648 111.719C119.75 100 127.996 82.9651 127.996 64.0041C127.996 45.0431 119.75 28.0161 106.652 16.2971C99.152 11.3201 90.379 8.45706 81.004 8.45706C65.762 8.45706 52.113 16.0191 42.934 27.9411M63.996 0.00805664C28.652 0.00805664 0 28.6601 0 64.0081C0 98.3281 27.02 126.34 60.949 127.93C61.964 127.978 62.9799 128.003 63.996 128.004C79.7359 128.025 94.9276 122.225 106.648 111.719C99.148 116.692 90.375 119.555 81.003 119.555C65.761 119.555 52.112 111.993 42.933 100.071C35.855 91.7191 31.273 79.3721 30.96 65.5121V62.5001C31.273 48.6411 35.855 36.2931 42.933 27.9411C52.113 16.0161 65.762 8.45706 81 8.45706C90.375 8.45706 99.148 11.3201 106.652 16.2971C95.383 6.21906 80.531 0.0700566 64.238 0.00805664H63.996Z" fill="#FF1B2D"/>
</svg>
