<svg width="128" height="128" viewBox="0 0 128 128" fill="none" xmlns="http://www.w3.org/2000/svg">
<path d="M55.387 66.4691H63.72L59.313 59.3791L51.225 72.1981H47.544L57.382 56.8001C57.5982 56.489 57.8871 56.2354 58.2236 56.0614C58.5602 55.8875 58.9342 55.7985 59.313 55.8021C60.078 55.8021 60.791 56.1651 61.205 56.7741L71.081 72.1981H67.4L65.664 69.3331H57.226L55.387 66.4691ZM93.622 69.3331V55.9581H90.499V70.6431C90.499 71.0451 90.655 71.4341 90.953 71.7321C91.251 72.0301 91.653 72.1981 92.094 72.1981H106.338L108.179 69.3331H93.622ZM41.945 66.9361C44.978 66.9361 47.441 64.4871 47.441 61.4541C47.441 58.4211 44.979 55.9581 41.945 55.9581H28.28V72.1991H31.403V58.8221H41.738C43.19 58.8221 44.356 60.0021 44.356 61.4531C44.356 62.9041 43.189 64.0841 41.738 64.0841L32.932 64.0711L42.256 72.1981H46.794L40.52 66.9351H41.945V66.9361ZM9.05901 72.1981C4.57601 72.1981 0.937012 68.5691 0.937012 64.0841C0.937012 59.5991 4.57501 55.9571 9.05901 55.9571H18.498C22.983 55.9571 26.619 59.6001 26.619 64.0841C26.619 68.5681 22.983 72.1981 18.498 72.1981H9.05901ZM18.288 69.3331C18.978 69.3342 19.6615 69.1992 20.2993 68.9359C20.9371 68.6726 21.5168 68.2861 22.0051 67.7986C22.4935 67.3111 22.8809 66.7321 23.1453 66.0947C23.4097 65.4574 23.5459 64.7741 23.546 64.0841C23.5463 62.6891 22.9926 61.351 22.0066 60.3641C21.0206 59.3772 19.6831 58.8222 18.288 58.8211H9.26701C7.87231 58.8227 6.53529 59.3779 5.54974 60.3648C4.56419 61.3516 4.01075 62.6894 4.01101 64.0841C4.01114 64.774 4.14723 65.457 4.4115 66.0943C4.67578 66.7315 5.06305 67.3104 5.55118 67.7979C6.03931 68.2854 6.61873 68.6719 7.25631 68.9353C7.8939 69.1987 8.57715 69.3339 9.26701 69.3331H18.288ZM77.602 72.1981C73.118 72.1981 69.476 68.5691 69.476 64.0841C69.476 59.5991 73.118 55.9571 77.602 55.9571H88.814L86.985 58.8211H77.81C76.4143 58.8219 75.076 59.3766 74.089 60.3634C73.102 61.3502 72.5471 62.6884 72.546 64.0841C72.546 66.9871 74.906 69.3331 77.81 69.3331H89.073L87.233 72.1981H77.602ZM115.799 69.3331C114.655 69.3336 113.542 68.9603 112.629 68.2701C111.717 67.5798 111.055 66.6103 110.744 65.5091H124.094L125.934 62.6451H110.744C111.057 61.5453 111.72 60.5773 112.632 59.8874C113.544 59.1975 114.655 58.8232 115.799 58.8211H124.962L126.816 55.9571H115.591C111.107 55.9571 107.465 59.6001 107.465 64.0841C107.465 68.5681 111.107 72.1981 115.591 72.1981H125.222L127.063 69.3331H115.799Z" fill="#EA1B22"/>
</svg>
