<svg width="128" height="128" viewBox="0 0 128 128" fill="none" xmlns="http://www.w3.org/2000/svg">
<path d="M22.4502 99.3629V96.9999H20.3132V99.3519H19.1992V93.7069H20.3122V96.0779H22.4492V93.7069H23.5622V99.3629H22.4502ZM27.5822 99.3629H26.7152L26.6372 99.0629C26.2546 99.2958 25.8152 99.4187 25.3672 99.4179C24.5862 99.4179 24.2542 98.9059 24.2542 98.2029C24.2542 97.5029 24.6332 97.0899 25.4882 97.0899H26.5122V96.6679C26.5122 96.2109 26.3792 96.0549 25.6992 96.0549C25.3027 96.0576 24.9075 96.0995 24.5192 96.1799L24.3872 95.3979C24.8735 95.2657 25.3753 95.1988 25.8792 95.1989C27.2152 95.1989 27.6022 95.6559 27.6022 96.6679L27.5822 99.3629ZM26.4692 97.8239H25.7342C25.3872 97.8239 25.2892 97.9139 25.2892 98.2269C25.2892 98.5389 25.3872 98.6369 25.7112 98.6369C25.9912 98.6339 26.2662 98.5614 26.5112 98.4259L26.4692 97.8239ZM29.8092 99.4489C29.3103 99.444 28.8149 99.3652 28.3392 99.2149L28.4842 98.4369C28.8942 98.5509 29.3242 98.6129 29.7502 98.6169C30.2192 98.6169 30.2972 98.5159 30.2972 98.2029C30.2972 97.8909 30.2972 97.8239 29.5512 97.6679C28.5162 97.4259 28.4382 97.1799 28.4382 96.3909C28.4382 95.5979 28.8162 95.2109 30.0312 95.2109C30.4572 95.2109 30.8832 95.2579 31.2972 95.3549L31.1992 96.1679C30.8318 96.0989 30.4598 96.0571 30.0862 96.0429C29.6172 96.0429 29.5392 96.1449 29.5392 96.4029C29.5392 96.6559 29.5392 96.7579 30.1412 96.8909C31.3322 97.1909 31.4452 97.3479 31.4452 98.1799C31.4452 99.0159 31.0852 99.4369 29.8092 99.4369V99.4489ZM34.6842 99.3629V96.5119C34.6842 96.2889 34.5822 96.1869 34.3362 96.1869C33.9492 96.2299 33.5702 96.3469 33.2232 96.5349V99.3629H32.1092V93.6299L33.2232 93.7859V95.5909C33.7096 95.3535 34.2403 95.2207 34.7812 95.2009C35.4842 95.2009 35.7382 95.6769 35.7382 96.4029V99.3639L34.6842 99.3629ZM36.6412 94.7069V93.7069H37.7542V94.7069H36.6412ZM36.6412 99.3629V95.2769H37.7542V99.3519L36.6412 99.3629ZM38.5552 95.3199C38.5552 94.2969 39.1802 93.7069 40.6252 93.7069C41.158 93.7083 41.6889 93.7713 42.2072 93.8949L42.0862 94.8089C41.6131 94.7032 41.1322 94.6363 40.6482 94.6089C39.8912 94.6089 39.6482 94.8629 39.6482 95.4529V97.6019C39.6482 98.1919 39.8912 98.4489 40.6482 98.4489C41.1266 98.4379 41.6033 98.3898 42.0742 98.3049L42.1952 99.2149C41.6773 99.3411 41.1463 99.4052 40.6132 99.4059C39.1682 99.4059 38.5432 98.8159 38.5432 97.7929L38.5552 95.3199ZM44.5552 99.4499C43.0982 99.4499 42.7072 98.6839 42.7072 97.8479V96.8359C42.7072 95.9999 43.0972 95.2299 44.5552 95.2299C46.0122 95.2299 46.4022 95.9999 46.4022 96.8359V97.8709C46.3912 98.6709 46.0042 99.4379 44.5432 99.4379L44.5552 99.4499ZM44.5552 96.1099C43.9882 96.1099 43.7652 96.3549 43.7652 96.8129V97.9259C43.7652 98.3829 43.9882 98.6249 44.5552 98.6249C45.1212 98.6249 45.3442 98.3829 45.3442 97.9249V96.8129C45.3362 96.3129 45.1142 96.0659 44.5432 96.0659L44.5552 96.1099ZM49.3982 96.1799C49.0123 96.3469 48.6401 96.5442 48.2852 96.7699V99.3949H47.1722V95.2769H48.1412V95.7229C48.4867 95.4958 48.8611 95.3159 49.2542 95.1879L49.3982 96.1799ZM53.6482 97.9499C53.6774 98.1421 53.6615 98.3384 53.6019 98.5234C53.5423 98.7084 53.4404 98.877 53.3045 99.0159C53.1686 99.1549 53.0022 99.2604 52.8186 99.324C52.6349 99.3877 52.439 99.4079 52.2462 99.3829C51.8722 99.3778 51.4996 99.3373 51.1332 99.2619V100.93L50.0202 101.086V95.2769H50.8672L50.9652 95.6209C51.3593 95.3434 51.8302 95.1959 52.3122 95.1989C53.1722 95.1989 53.6252 95.6879 53.6252 96.6129L53.6482 97.9499ZM51.1092 98.4019C51.4222 98.4719 51.7392 98.5079 52.0592 98.5159C52.4342 98.5159 52.5892 98.3359 52.5892 97.9689V96.5889C52.5892 96.2579 52.4572 96.0659 52.0662 96.0659C51.7192 96.0779 51.3862 96.2069 51.1212 96.4339L51.1092 98.4019ZM19.2002 103.914H28.3052C33.7032 103.914 35.6952 106.141 35.6952 110.227V113.407C35.6952 117.469 33.4692 119.676 28.0942 119.676H23.6522V127.242H19.2002V103.914ZM28.1052 107.797H23.6522V115.757H28.1052C30.5982 115.757 31.3322 114.844 31.3322 112.918V110.57C31.2892 108.645 30.4842 107.797 28.1052 107.797ZM50.6332 127.242H47.1252L46.8162 126.129C45.3042 127.11 43.5406 127.632 41.7382 127.633C38.6212 127.633 37.2852 125.496 37.2852 122.559C37.2852 119.086 38.7892 117.762 42.2622 117.762H46.3592V115.969C46.3592 114.074 45.8362 113.406 43.0982 113.406C41.5082 113.426 39.9222 113.598 38.3682 113.93L37.8442 110.668C39.7462 110.132 41.7112 109.852 43.6872 109.836C49.0512 109.836 50.6212 111.726 50.6212 116L50.6332 127.242ZM46.3592 120.797H43.1952C41.7932 120.797 41.4062 121.187 41.4062 122.48C41.4062 123.77 41.7932 124.195 43.1212 124.195C44.2542 124.179 45.3646 123.875 46.3482 123.313L46.3592 120.797ZM53.1802 121.043V116.379C53.1802 111.793 55.1722 109.824 60.5402 109.824C61.9535 109.833 63.358 110.046 64.7102 110.457L64.1882 113.965C63.0299 113.676 61.8419 113.523 60.6482 113.508C58.1992 113.508 57.4652 114.242 57.4652 116.348V121.078C57.4652 123.18 58.1992 123.914 60.6482 123.914C61.8427 123.911 63.0321 123.757 64.1882 123.457L64.7112 126.965C63.3605 127.386 61.9539 127.599 60.5392 127.598C55.1842 127.598 53.1792 125.628 53.1792 121.043H53.1802ZM67.4062 127.242V103.211L71.6802 102.613V127.243L67.4062 127.242ZM81.9222 110.192L76.9102 118.641L82.1332 127.254H77.4332L72.2812 118.641L77.1562 110.191L81.9222 110.192ZM90.8132 124.094C92.5839 124.086 94.3436 123.816 96.0352 123.293L96.7032 126.52C94.6908 127.255 92.5649 127.632 90.4222 127.633C85.0592 127.633 83.2112 125.141 83.2112 121.043V116.523C83.2112 112.918 84.8242 109.848 90.2892 109.848C95.7542 109.848 96.9692 113.031 96.9692 116.715V120.352H87.4842V121.234C87.4842 123.293 88.2072 124.094 90.8132 124.094ZM87.4732 116.914H92.9062V116.066C92.9062 114.453 92.4142 113.332 90.3122 113.332C88.2072 113.332 87.4722 114.442 87.4722 116.066L87.4732 116.914ZM108.398 113.754C106.83 114.467 105.319 115.3 103.878 116.246V127.242H99.6052V110.192H103.211L103.492 112.082C104.873 111.15 106.369 110.402 107.942 109.855L108.398 113.754Z" fill="black"/>
<path fill-rule="evenodd" clip-rule="evenodd" d="M65.3898 26.668V86.16L37.4658 70.031V10.531L65.3898 26.668Z" fill="#1DAEFF"/>
<path d="M79.2148 17.484L48.8628 0V12.145L69.4998 24.063V60.493L79.2148 66.059C85.2268 69.531 90.1448 67.449 90.1448 61.441V34.727C90.1448 28.715 85.2268 20.957 79.2148 17.484Z" fill="#1D94DD"/>
</svg>
