<svg width="128" height="128" viewBox="0 0 128 128" fill="none" xmlns="http://www.w3.org/2000/svg">
<path d="M16.25 112.609C14.012 112.609 11.737 111.684 10.309 109.87V119.666H5.83301V95.4859H9.88201L10.041 98.1369C11.43 96.0929 13.898 95.0129 16.251 95.0159C20.762 95.0159 24.089 98.7949 24.089 103.811C24.089 108.826 20.76 112.612 16.249 112.61L16.25 112.609ZM14.863 98.3389C12.25 98.3389 10.117 100.383 10.117 103.816C10.117 107.249 12.237 109.293 14.861 109.293C17.484 109.293 19.6 107.249 19.6 103.816C19.6 100.383 17.484 98.3389 14.863 98.3389ZM40.958 112.15L40.803 109.49C39.415 111.533 36.946 112.613 34.595 112.613C30.082 112.613 26.758 108.832 26.758 103.818C26.758 98.8049 30.075 95.0229 34.595 95.0259C36.945 95.0259 39.415 96.1139 40.803 98.1489L40.958 95.4889H45.008V112.152L40.958 112.15ZM35.984 98.3399C33.371 98.3399 31.24 100.384 31.24 103.817C31.24 107.25 33.36 109.294 35.984 109.294C38.607 109.294 40.727 107.25 40.727 103.819C40.727 100.389 38.607 98.3529 35.984 98.3399ZM60.662 112.154V102.926C60.662 99.6859 59.542 98.6059 57.499 98.6059C55.379 98.6059 53.064 100.533 53.062 102.847V112.143H48.59V95.4889H52.69L52.881 98.5759C54.001 96.4539 56.508 95.0279 59.053 95.0279C63.487 95.0279 65.148 98.1149 65.148 102.242V112.154H60.662ZM81.539 112.156L81.384 109.494C79.997 111.538 77.529 112.617 75.175 112.617C70.663 112.617 67.338 108.837 67.338 103.823C67.338 98.8089 70.656 95.0299 75.175 95.0299C77.411 95.0299 79.688 95.9569 81.115 97.7699V89.0149H85.588V112.156H81.539ZM76.567 98.3539C73.943 98.3539 71.821 100.398 71.821 103.831C71.821 107.264 73.941 109.306 76.564 109.309C79.188 109.309 81.308 107.264 81.308 103.831C81.308 100.398 79.188 98.3539 76.567 98.3539ZM102.4 112.158L102.246 109.498C100.857 111.542 98.388 112.622 96.037 112.62C91.524 112.62 88.2 108.84 88.2 103.827C88.2 98.8129 91.518 95.0319 96.037 95.0339C98.388 95.0339 100.857 96.1229 102.246 98.1579L102.401 95.4979H106.461V112.158H102.4ZM97.426 98.3539C94.803 98.3539 92.683 100.398 92.683 103.831C92.683 107.264 94.803 109.309 97.426 109.309C100.049 109.309 102.17 107.264 102.17 103.831C102.17 100.398 100.05 98.3539 97.426 98.3539ZM116.364 112.7C114.01 112.681 111.705 112.028 109.691 110.81L110.423 107.715C111.773 108.525 113.817 109.568 116.285 109.568C118.059 109.568 119.294 109.028 119.294 107.638C119.294 106.444 118.022 106.019 115.745 105.479C111.659 104.591 110.192 102.432 110.194 100.079C110.194 97.4659 112.238 94.9889 116.751 94.9889C119.49 94.9889 121.88 96.1859 122.411 96.4929L121.686 99.4429C120.229 98.5646 118.567 98.0852 116.866 98.0529C115.053 98.0529 114.165 98.6699 114.165 99.6729C114.165 100.79 115.323 101.293 117.097 101.717C121.492 102.643 123.267 104.687 123.267 106.925C123.267 110.504 120.643 112.7 116.364 112.7ZM53.942 16.0569H61.889V32.5599H53.942V16.0569ZM53.942 49.9549H61.889V66.4569H53.942V49.9549Z" fill="#130754"/>
<path d="M53.9419 37.3789H61.8889V45.1649H53.9419V37.3789Z" fill="#FFCA00"/>
<path d="M41.1748 29.626H49.1218V84.48H41.1748V29.626ZM66.4448 63.57H74.3928V80.072H66.4448V63.57ZM66.4448 29.646H74.3928V46.148H66.4448V29.646Z" fill="#130754"/>
<path d="M66.4448 50.9651H74.3928V58.7501H66.4448V50.9651Z" fill="#E70488"/>
<path d="M78.9448 11.762H86.8928V66.615H78.9448V11.762Z" fill="#130754"/>
</svg>
