<svg width="128" height="128" viewBox="0 0 128 128" fill="none" xmlns="http://www.w3.org/2000/svg">
<path d="M53.3429 127.515C39.4309 125.057 27.4979 118.703 17.6359 108.511C9.25189 99.845 3.47989 88.926 0.850887 76.764C-0.284113 71.51 -0.284113 56.477 0.849887 51.222C2.62589 43.003 6.07789 34.834 10.7769 27.713C13.8889 23.003 23.0039 13.888 27.7149 10.776C34.8359 6.07801 43.0069 2.62601 51.2259 0.851006C56.4819 -0.283994 71.5159 -0.283994 76.7719 0.851006C89.5809 3.62001 100.226 9.40401 109.41 18.587C118.598 27.774 124.379 38.414 127.148 51.222C128.283 56.477 128.283 71.509 127.148 76.764C124.379 89.572 118.598 100.216 109.41 109.399C100.367 118.441 89.8599 124.209 77.2639 127.051C72.7949 128.056 58.0239 128.346 53.3419 127.515H53.3429ZM64.9079 114.743C64.9079 110.549 64.8479 110.247 63.9999 110.247C63.1599 110.247 63.0959 110.537 63.1319 114.146C63.1719 118.408 63.4719 119.72 64.3389 119.43C64.7429 119.296 64.9089 117.936 64.9089 114.743H64.9079ZM58.1499 116.188C59.3459 114.994 59.6929 114.271 59.6929 112.979C59.6929 111.664 59.5309 111.345 58.9299 111.462C58.5139 111.542 58.0099 112.221 57.8159 112.967C57.6179 113.718 56.8139 114.873 56.0309 115.539C54.6139 116.733 54.5609 117.73 55.9099 117.73C56.2939 117.73 57.3029 117.036 58.1499 116.188ZM73.0949 117.238C73.2609 116.967 72.7559 116.201 71.9689 115.539C71.1859 114.873 70.3819 113.718 70.1849 112.967C69.9909 112.221 69.4859 111.542 69.0699 111.462C68.4689 111.345 68.3069 111.664 68.3069 112.979C68.3069 115.587 72.0539 118.921 73.0949 117.238ZM52.4349 109.092C52.4349 108.83 51.7999 108.269 51.0249 107.845C45.9669 105.076 40.0409 100.668 36.7429 97.233C30.3079 90.529 27.4129 83.848 27.3409 75.557C27.2969 70.015 28.0109 67.125 30.7079 61.95C33.3159 56.95 36.3389 53.171 44.6549 44.53C53.9449 34.882 56.0839 32.335 57.6979 29C58.8449 26.631 58.9939 25.768 59.1559 20.762C59.3529 14.546 58.9739 10.256 58.2269 10.256C57.8879 10.256 57.8239 11.87 58.0169 15.491C58.6389 27.084 56.4869 30.681 43.1249 40.371C33.9249 47.048 29.7029 50.673 26.5129 54.632C21.9959 60.247 19.9929 65.103 19.4929 71.686C18.2859 87.554 28.3429 101.314 46.0839 108.071C49.9999 109.561 52.4339 109.952 52.4339 109.092H52.4349ZM83.1309 107.805C89.2309 105.266 93.8689 102.194 98.2409 97.798C104.906 91.098 107.683 84.833 108.099 75.558C108.462 67.424 106.694 62.043 101.66 55.948C98.2129 51.775 94.4989 48.788 84.4869 42.136C71.0169 33.186 67.8549 29.623 67.8549 23.39C67.8549 21.731 68.1539 19.386 68.5169 18.171C69.1389 16.105 69.1229 14.68 68.4969 16.314C67.9039 17.86 66.5509 17.15 65.8209 14.906L65.1179 12.75L65.3849 14.793C66.3249 22.034 66.4459 25.065 66.0259 31.407C65.4659 39.972 64.4119 45.833 61.5209 56.481C58.6509 67.053 58.1339 70.883 58.4899 78.956C58.7879 85.782 59.7449 90.888 61.9649 97.548C64.0249 103.736 64.4079 104.204 68.1949 105.173C70.2809 105.706 72.2549 106.606 73.8249 107.74C75.2989 108.806 76.7769 109.5 77.6049 109.516C78.3549 109.528 80.8419 108.757 83.1309 107.805ZM81.7619 104.729C81.1969 104.164 81.4599 103.683 83.6719 101.237C90.6439 93.54 93.7679 85.592 93.8569 75.331C93.9169 68.336 92.3749 63.706 87.6599 56.739C85.5249 53.587 78.0239 45.728 74.3949 42.846C71.7309 40.731 68.9979 37.126 68.5089 35.084C68.0129 33.017 69.3969 33.562 71.0039 36.069C71.7909 37.296 73.4989 39.096 74.7939 40.069C76.0909 41.046 79.9259 43.903 83.3169 46.426C94.9829 55.096 100.175 62.491 101.341 72.094C102.02 77.652 100.946 83.396 98.2329 88.728C95.4229 94.254 90.2959 100.273 85.9079 103.207C83.2079 105.007 82.3559 105.322 81.7619 104.729ZM58.9259 105.314C59.0589 104.971 57.8919 102.779 56.3339 100.442C52.2039 94.25 50.4079 90.832 48.7319 85.988C47.3189 81.898 47.2419 81.342 47.2309 75.101C47.2149 65.668 48.2359 62.677 55.7209 50.253C62.7769 38.531 63.7339 33.994 62.9379 15.967C62.6519 9.50501 62.3279 4.12801 62.2199 4.01901C61.4729 3.27301 61.3159 5.18601 61.5899 11.684C62.1389 24.625 61.3029 31.834 58.5739 37.748C56.7169 41.772 54.6379 44.824 49.0439 51.75C41.2559 61.39 39.0599 66.5 39.0999 74.875C39.1289 80.619 39.9079 84.151 42.2289 89.063C44.7389 94.379 49.3619 99.748 55.1549 104.075C57.8239 106.065 58.5459 106.303 58.9249 105.314H58.9259Z" fill="black"/>
</svg>
