<svg width="128" height="128" viewBox="0 0 128 128" fill="none" xmlns="http://www.w3.org/2000/svg">
<path d="M121.172 62.878C121.172 28.83 94.6989 1.22998 62.0369 1.22998C29.3789 1.22998 2.8999 28.83 2.8999 62.878C2.8999 96.926 29.3779 124.529 62.0359 124.529C94.6979 124.529 121.171 96.926 121.171 62.878H121.172Z" fill="white"/>
<path d="M53.3402 127.516C39.4302 125.055 27.4982 118.704 17.6372 108.51C9.25024 99.842 3.47724 88.928 0.853238 76.763C-0.283762 71.507 -0.283762 56.476 0.853238 51.223C2.62924 43 6.07524 34.835 10.7762 27.714C13.8902 23 23.0042 13.888 27.7162 10.773C34.8392 6.07302 43.0092 2.62302 51.2302 0.852018C56.4832 -0.284982 71.5162 -0.284982 76.7732 0.852018C89.5802 3.61702 100.225 9.40002 109.41 18.585C118.597 27.771 124.38 38.413 127.149 51.224C128.282 56.476 128.282 71.507 127.149 76.764C124.38 89.57 118.597 100.212 109.41 109.398C100.372 118.439 89.8602 124.21 77.2632 127.048C72.7962 128.057 58.0252 128.345 53.3402 127.516ZM64.9072 114.744C64.9072 110.55 64.8452 110.247 64.0002 110.247C63.1622 110.247 63.0962 110.535 63.1312 114.144C63.1742 118.408 63.4742 119.716 64.3422 119.428C64.7432 119.296 64.9072 117.937 64.9072 114.744ZM58.1502 116.189C59.3422 114.993 59.6922 114.269 59.6922 112.98C59.6922 111.664 59.5322 111.345 58.9292 111.461C58.5122 111.539 58.0102 112.221 57.8152 112.968C57.6212 113.716 56.8152 114.872 56.0322 115.538C54.6142 116.734 54.5602 117.73 55.9072 117.73C56.2932 117.73 57.3012 117.033 58.1502 116.189ZM73.0932 117.236C73.2602 116.967 72.7542 116.2 71.9712 115.538C71.1852 114.872 70.3822 113.716 70.1882 112.968C69.9892 112.221 69.4872 111.539 69.0702 111.461C68.4702 111.345 68.3102 111.664 68.3102 112.98C68.3102 115.589 72.0532 118.922 73.0932 117.236ZM52.4332 109.09C52.4332 108.829 51.7992 108.268 51.0232 107.844C45.9692 105.075 40.0382 100.668 36.7432 97.234C30.3102 90.524 27.4132 83.846 27.3432 75.556C27.2952 70.016 28.0082 67.126 30.7072 61.951C33.3162 56.947 36.3382 53.171 44.6572 44.53C53.9442 34.877 56.0822 32.33 57.6952 28.997C58.8432 26.63 58.9952 25.766 59.1552 20.762C59.3542 14.547 58.9752 10.256 58.2282 10.256C57.8892 10.256 57.8272 11.868 58.0182 15.49C58.6412 27.082 56.4882 30.68 43.1262 40.371C33.9242 47.045 29.7022 50.671 26.5132 54.635C21.9952 60.245 19.9932 65.101 19.4952 71.685C18.2882 87.553 28.3432 101.314 46.0852 108.07C49.9992 109.557 52.4332 109.951 52.4332 109.09ZM83.1332 107.805C89.2312 105.262 93.8692 102.19 98.2432 97.798C104.91 91.097 107.682 84.831 108.099 75.556C108.461 67.422 106.697 62.041 101.662 55.946C98.2122 51.773 94.5002 48.786 84.4882 42.136C71.0182 33.183 67.8552 29.62 67.8552 23.39C67.8552 21.732 68.1552 19.384 68.5172 18.173C69.1402 16.105 69.1252 14.68 68.4972 16.311C67.9062 17.857 66.5502 17.148 65.8222 14.901L65.1222 12.749L65.3862 14.789C66.3282 22.031 66.4462 25.065 66.0282 31.404C65.4642 39.974 64.4122 45.831 61.5182 56.48C58.6482 67.052 58.1312 70.884 58.4892 78.956C58.7892 85.781 59.7432 90.886 61.9632 97.549C64.0232 103.732 64.4082 104.203 68.1982 105.173C70.2812 105.706 72.2562 106.606 73.8252 107.739C75.3012 108.806 76.7772 109.499 77.6062 109.514C78.3542 109.526 80.8432 108.759 83.1322 107.805H83.1332ZM81.7622 104.729C81.1972 104.164 81.4622 103.681 83.6742 101.236C90.6442 93.542 93.7682 85.595 93.8572 75.33C93.9202 68.337 92.3742 63.703 87.6572 56.737C85.5272 53.587 78.0232 45.729 74.3942 42.844C71.7342 40.73 68.9962 37.124 68.5092 35.084C68.0152 33.016 69.4012 33.561 71.0052 36.064C71.7922 37.291 73.4982 39.094 74.7952 40.068C76.0912 41.045 79.9272 43.903 83.3192 46.423C94.9832 55.094 100.178 62.489 101.342 72.095C102.02 77.651 100.945 83.395 98.2352 88.729C95.4232 94.254 90.2982 100.274 85.9092 103.206C83.2062 105.009 82.3532 105.321 81.7622 104.729ZM58.9252 105.313C59.0582 104.97 57.8892 102.778 56.3322 100.438C52.2042 94.247 50.4082 90.832 48.7342 85.984C47.3202 81.899 47.2422 81.343 47.2302 75.101C47.2152 65.67 48.2352 62.679 55.7202 50.251C62.7772 38.533 63.7352 33.993 62.9402 15.965C62.6522 9.50502 62.3292 4.12702 62.2202 4.01502C61.4762 3.27102 61.3162 5.18702 61.5932 11.685C62.1382 24.625 61.3012 31.832 58.5752 37.747C56.7172 41.773 54.6372 44.822 49.0452 51.749C41.2572 61.386 39.0602 66.499 39.0992 74.875C39.1302 80.618 39.9052 84.15 42.2262 89.06C44.7382 94.38 49.3612 99.749 55.1562 104.071C57.8232 106.065 58.5472 106.302 58.9262 105.313H58.9252Z" fill="#212178"/>
</svg>
