<svg width="128" height="128" viewBox="0 0 128 128" fill="none" xmlns="http://www.w3.org/2000/svg">
<path d="M3.7998 81.1V86.4L7.9998 90.6H9.5998L8.1998 87.9L8.4998 83.4L3.7998 81.1ZM28.5998 70.8L20.8998 69.7L9.1998 72.7L4.6998 79.8L9.1998 82.4L27.9998 74.5H18.5998L28.5998 70.8ZM11.1998 79.8L8.7998 78.6L5.8998 79.6L5.7998 79.3L8.7998 77.2L11.1998 79.3V79.8ZM32.7998 69.4L33.0998 66L24.0998 68.2L32.7998 69.4Z" fill="#76C39B"/>
<path d="M32.5002 73.1999L32.7002 70.4L25.5002 73.1999H32.5002ZM32.3002 74.4L9.2002 84.1999L21.3002 80.3H31.6002L32.3002 74.4ZM28.5002 60.2L34.6002 55.7L36.1002 48.2L28.5002 60.2ZM49.2002 123.5L52.5002 120L52.8002 115.5L50.4002 110.8L44.9002 113L48.9002 112.5L50.6002 113.3L46.3002 115.8V116.9L47.7002 115.7H49.7002L49.2002 123.5ZM58.8002 118.5L59.3002 103.7L57.3002 104.6L57.6002 111.5L53.9002 114.7L54.5002 117.9L58.8002 118.5ZM52.6002 94.5999H59.1002L58.7002 99.4L54.7002 105.1L46.1002 101.7V98.5H51.0002L52.6002 94.5999ZM41.4002 106.1L44.6002 102.3L44.7002 98.3L43.0002 93.8L37.0002 96.0999L41.5002 94.5999L43.0002 96.1999L38.5002 98.9L37.5002 100.6L40.1002 99H41.4002V106.1ZM32.8002 81.8L37.0002 80.8L56.0002 92.6999H51.0002L38.6002 83.1999L32.8002 81.8ZM61.2002 123.9L71.0002 112.9L63.4002 98.0999L61.2002 97.5V123.9ZM66.7002 73.3L80.5002 72.5L93.0002 65.8L66.7002 73.3ZM76.9002 78L73.8002 76.3L68.6002 77.5L76.9002 78ZM33.5002 79.5999L35.0002 76.5999L81.6002 73.9L75.9002 75.8L74.4002 75L63.7002 77.0999L33.5002 79.5999ZM55.8002 79.1999L64.0002 78.4L68.8002 78.8L87.1002 89.9L95.1002 100.2L96.5002 105L91.1002 98.0999L55.8002 79.1999Z" fill="#76C39B"/>
<path d="M86.1998 122.8L89.8998 112L90.3998 99.5999L69.2998 88.3999L74.5998 91.8999L85.8998 118.6L86.1998 122.8Z" fill="#76C39B"/>
<path d="M71.7001 126.7L80.8001 110.5L72.3001 91.7001L52.9001 79.3001L39.5001 80.6001L65.8001 97.1001L73.0001 113.7L71.7001 126.7ZM34.9001 66.2001L34.1001 75.4001L43.6001 74.8001L60.7001 66.2001L57.9001 60.5001L34.9001 66.2001ZM47.4001 74.6001L59.8001 73.9001L85.7001 66.4001L103.3 55.0001L61.9001 67.3001L47.4001 74.6001ZM59.5001 59.9001L62.3001 65.8001L78.9001 60.6001L111.8 38.2001L121.9 24.9001L59.5001 59.9001ZM83.7001 59.3001L96.8001 55.3001L114.3 41.4001L106.3 43.6001L83.7001 59.3001ZM60.6001 40.3001L77.8001 31.9001L89.9001 18.1001L92.0001 10.6001L60.6001 40.3001ZM88.1001 0.600098L38.9001 40.4001L34.4001 62.8001L83.1001 16.9001L88.1001 0.600098ZM34.7001 64.7001L58.0001 59.2001L109.4 30.6001L124.8 10.8001L57.0001 43.7001L34.7001 64.7001Z" fill="#76C39B"/>
</svg>
