<svg width="128" height="128" viewBox="0 0 128 128" fill="none" xmlns="http://www.w3.org/2000/svg">
<path d="M36.5 56L39 45.2L30.5 62L36.5 56Z" fill="#22A882"/>
<path d="M88.8001 10L87.0001 19.4L75.0001 33.6L52.6001 45.3L88.8001 10Z" fill="#99D5B5"/>
<path d="M86.3001 0L79.3001 19.2L52.6001 45.2L36.9001 64.7L36.0001 65.7L34.1001 66L40.2001 40.3L86.3001 0Z" fill="#C5E4D3"/>
<path d="M34.3999 65.3001L52.6999 45.2001L119.8 10.1001L102.9 33.4001L57.9999 59.6001L36.8999 64.7001L34.3999 65.3001Z" fill="black"/>
<path d="M58 59.6001L102.8 33.4001L104.4 31.2001L117.3 23.6001L106.2 39.3001L101.3 43.1001L76.2 61.1001L60.9 66.2001L58 59.6001Z" fill="#16A880"/>
<path d="M76.2002 61.0999L92.4002 56L96.7002 53.0999L110.8 40.2L101.3 43.0999L76.2002 61.0999Z" fill="black"/>
<path d="M36.9 64.7001L58 59.6001L60.9 66.1001L48.5 74.2001L36 78.0001V65.7001L36.9 64.7001Z" fill="#76C39B"/>
<path d="M62.5002 65.3001L44.2002 74.5L58.3002 73.6L82.5002 66.7L102.7 52.8L62.5002 65.3001Z" fill="#C5E4D3"/>
<path d="M84.4998 65.4L82.4998 66.6999L58.2998 73.5999L74.4998 72.4L78.9998 71.5L93.3998 63.7L84.4998 65.4Z" fill="#99D5B5"/>
<path d="M88.7998 88.1001L95.0998 93.1001V96.3001L88.7998 88.1001Z" fill="black"/>
<path d="M41.7 78.9999L53.7 77.8999L70.9 90.2999L78.8 109.7L69 127.8L70.6 112.4L70.2 111.6L62.8 95.4999L38.5 79.5999L41.7 78.9999Z" fill="#C5E4D3"/>
<path d="M70.9002 90.3L81.7002 116.9V125.3L86.3002 109.4V98.4L62.7002 84.3L70.9002 90.3Z" fill="black"/>
<path d="M62.5 118.6L59.5 126.3L72.1 109.1L64.4 92.2L62.6 95V118.6H62.5Z" fill="#16A880"/>
<path d="M60.2999 93.8999L59.3999 107.8L52.8999 114L53.1999 118.8L58.7999 121L62.4999 113.9V95.1999L60.2999 93.8999Z" fill="#76C39B"/>
<path d="M57.5998 92.1999L59.5998 93.4999L58.6998 98.1999L55.3998 105.3L46.0998 101.6L45.7998 97.8999L46.3998 97.6999L49.2998 95.6999L51.0998 91.3999L57.5998 92.1999Z" fill="#178D6D"/>
<path d="M38.4998 79.6001L57.5998 92.1001H51.3998L39.8998 82.5001L29.2998 79.6001H38.4998Z" fill="black"/>
<path d="M54.5998 77.7999L73.4998 75.9999L84.4998 72.3999H74.4998L47.3998 74.2999L37.2998 75.1999L34.2998 80.3999L41.6998 78.9999L54.5998 77.7999Z" fill="#178D6D"/>
<path d="M45.9 111.2V112.9L49.9 111.2L50.4 112L46.8 114L45.1 117.8L48.7 114.4L49.5 114.6L48.7 124.2L53.1 118.7L52.8 113.9L53.6 113.3L51.6 108.5L45.9 111.2ZM44.4 92.2L38.7 94.9V96.6L42.6 94.8L43.2 95.6L39.5 97.7L38 101.4L41.5 98.1L42.3 98.2L41.5 107.7L46.3 101.9L45.9 97.5H46.6L44.4 92.2Z" fill="black"/>
<path d="M32.9998 69.9L25.1998 73.2H32.9998L20.5998 78.2L13.7998 82L13.2998 83.4L24.3998 79.6H34.6998L35.9998 77.3V65.5L23.4998 68.6L32.9998 69.9Z" fill="#C5E4D3"/>
<path d="M13.8998 82.1L20.6998 78.3L33.0998 73.3H25.2998L33.0998 70L23.6998 68.7L12.8998 71.9L8.2998 79.2L13.8998 82.1Z" fill="#1FA780"/>
<path d="M11.1998 88.0001L8.2998 85.5001V79.1001L13.8998 82.1001L12.5998 85.6001L13.9998 88.0001H11.1998Z" fill="black"/>
<path d="M14.9002 78.6L13.0002 77.2L10.2002 78.7" stroke="black" stroke-width="0.3"/>
<path d="M62.6001 74.3999L83.6001 88.0999L91.0001 98.2999L93.6001 107.6L86.4001 98.4999L52.6001 78.2999L62.6001 74.3999Z" fill="#76C39B"/>
<path d="M78.1001 78.2999L72.9001 75.8999L66.1001 76.5999L66.9001 77.1999L78.1001 78.2999Z" fill="#99D5B5"/>
<path d="M90 111.3L89.9 119.5L87.5 121.1L88.8 114.5L90 111.3Z" fill="#178D6D"/>
</svg>
