<svg width="128" height="128" viewBox="0 0 128 128" fill="none" xmlns="http://www.w3.org/2000/svg">
<path fill-rule="evenodd" clip-rule="evenodd" d="M126.216 0.727037C89.993 0.716037 53.932 0.717037 17.708 0.717037C12.527 0.717037 7.257 0.713037 2.076 0.728037C1.748 0.729037 1 0.881037 1 0.964037V127H127V0.964037C127 0.881037 126.586 0.727037 126.216 0.727037ZM113.48 114.666C80.839 114.628 48.209 114.636 15.568 114.636C13.992 114.636 13.999 114.633 13.999 113.009V15.212C14 13.605 13.984 14 15.577 14H113.375C115.013 14 115 13.604 115 15.291V64.128C115 80.448 114.993 96.768 115.036 113.087C115.04 114.33 114.747 114.667 113.48 114.666ZM56.82 39.644C50.152 38.081 43.44 38.852 36.735 39.537C35.312 39.683 35.04 40.292 35.044 41.555C35.087 56.762 35 71.969 35 87.176V88H44V70.139C49 70.514 53.576 70.425 58.049 68.829C65.218 66.271 68.801 60.718 68.414 52.61C68.101 46.062 63.988 41.324 56.82 39.644ZM54.867 61.988C51.673 63.545 48.277 63.508 44.862 63.046C44.596 63.01 44.187 62.535 44.185 62.262C44.145 56.931 44.155 51.601 44.155 46.124C47.286 45.636 50.255 45.398 53.217 46.142C56.89 47.065 59.021 49.461 59.418 53.059C59.854 57.013 58.171 60.378 54.867 61.988ZM88.168 69.094C86.699 68.289 85.088 67.747 83.562 67.041C82.152 66.388 80.729 65.745 79.388 64.965C78.453 64.422 78.028 63.473 78.028 62.354C78.028 60.462 79.322 58.937 81.532 58.756C83.181 58.621 84.893 58.791 86.526 59.096C87.902 59.352 89.207 59.995 90.608 60.491L92.375 54.222C89.03 52.598 85.626 51.987 82.09 52.112C79.084 52.217 76.276 52.983 73.738 54.711C68.995 57.94 66.681 66.518 73.789 71.127C75.594 72.298 77.682 73.032 79.64 73.968C80.858 74.551 82.129 75.047 83.281 75.74C84.733 76.614 85.227 78.037 84.975 79.68C84.728 81.295 83.645 82.318 82.139 82.554C80.459 82.818 78.673 82.989 77.021 82.698C74.682 82.287 72.422 81.417 70.047 80.719C69.621 82.309 69.216 84.068 68.663 85.779C68.36 86.717 68.538 87.18 69.458 87.547C75.075 89.778 80.792 90.237 86.54 88.264C90.836 86.789 93.455 83.74 93.796 79.095C94.128 74.568 92.088 71.244 88.168 69.094Z" fill="#80B5E2"/>
</svg>
