<svg width="128" height="128" viewBox="0 0 128 128" fill="none" xmlns="http://www.w3.org/2000/svg">
<path fill-rule="evenodd" clip-rule="evenodd" d="M50.246 41.616C46.564 40.691 42.877 40.988 38.986 41.594C38.986 48.399 38.972 55.021 39.023 61.644C39.025 61.983 39.534 62.573 39.864 62.618C44.107 63.191 48.327 63.237 52.295 61.303C56.4 59.303 58.491 55.121 57.949 50.211C57.457 45.74 54.81 42.763 50.246 41.616ZM127 63.963V3.285C127 1.189 127.023 1 124.988 1H3.479C1.5 1 1 1.19 1 3.186V124.695C1 126.713 1.252 126.716 3.209 126.716C43.764 126.717 84.44 126.707 124.995 126.753C126.568 126.755 126.99 126.336 126.986 124.794C126.932 104.517 127 84.238 127 63.963ZM56.352 69.803C50.795 71.785 45 71.896 39 71.431V94H28V92.598C28 73.703 27.913 54.81 27.86 35.916C27.854 34.347 28.103 33.589 29.871 33.409C38.203 32.557 46.488 31.599 54.773 33.542C63.679 35.629 68.814 41.517 69.204 49.652C69.687 59.726 65.26 66.626 56.352 69.803ZM100.662 82.557C100.238 88.328 96.984 92.117 91.647 93.949C84.505 96.401 77.402 95.832 70.422 93.058C69.279 92.603 69.058 92.027 69.435 90.862C70.122 88.736 70.625 86.55 71.155 84.576C74.106 85.442 76.912 86.523 79.819 87.034C81.872 87.395 84.091 87.183 86.178 86.856C88.049 86.562 89.395 85.292 89.702 83.284C90.014 81.243 89.399 79.475 87.597 78.389C86.165 77.527 84.587 76.91 83.074 76.187C80.641 75.024 78.048 74.112 75.804 72.657C66.973 66.93 69.848 56.274 75.741 52.261C78.894 50.115 82.383 49.163 86.118 49.032C90.511 48.878 94.741 49.636 98.896 51.655L96.701 59.444C94.961 58.828 93.341 58.028 91.631 57.71C89.602 57.332 87.474 57.121 85.426 57.288C82.68 57.513 81.072 59.408 81.072 61.758C81.072 63.15 81.6 64.328 82.761 65.003C84.427 65.972 86.195 66.771 87.947 67.582C89.843 68.459 91.845 69.133 93.67 70.134C98.54 72.804 101.075 76.934 100.662 82.557Z" fill="#80B5E2"/>
</svg>
