<svg width="128" height="128" viewBox="0 0 128 128" fill="none" xmlns="http://www.w3.org/2000/svg">
<path d="M3.68018 98.837C4.87718 98.637 6.44718 98.467 8.44418 98.467C10.8972 98.467 12.6942 99.037 13.8362 100.064C14.8922 100.977 15.5202 102.374 15.5202 104.087C15.5202 105.827 15.0062 107.197 14.0372 108.197C12.7242 109.594 10.5842 110.307 8.15918 110.307C7.41618 110.307 6.73218 110.277 6.16118 110.137V117.84H3.68018V98.837ZM6.16018 108.11C6.70318 108.253 7.38818 108.31 8.21618 108.31C11.2122 108.31 13.0382 106.854 13.0382 104.2C13.0382 101.662 11.2402 100.435 8.50118 100.435C7.41718 100.435 6.59118 100.521 6.16118 100.635V108.11H6.16018ZM18.6262 97.58H21.1362V106.198H21.1942C21.6193 105.454 22.241 104.842 22.9912 104.428C23.7342 104.001 24.6192 103.715 25.5612 103.715C27.4162 103.715 30.3832 104.855 30.3832 109.622V117.839H27.8702V109.906C27.8702 107.68 27.0432 105.796 24.6752 105.796C23.0482 105.796 21.7652 106.938 21.3082 108.308C21.1652 108.65 21.1382 109.021 21.1382 109.506V117.838H18.6262V97.58ZM34.4572 108.538C34.4572 106.768 34.4002 105.343 34.3432 104.03H36.5982L36.7122 106.4H36.7692C37.7952 104.715 39.4212 103.716 41.6752 103.716C45.0152 103.716 47.5252 106.541 47.5252 110.736C47.5252 115.699 44.5002 118.154 41.2482 118.154C39.4212 118.154 37.8232 117.354 36.9942 115.984H36.9382V123.489H34.4562V108.537L34.4572 108.538ZM36.9402 112.218C36.9402 112.59 36.9972 112.932 37.0542 113.246C37.5112 114.986 39.0242 116.186 40.8202 116.186C43.4732 116.186 45.0152 114.016 45.0152 110.85C45.0152 108.082 43.5592 105.714 40.9052 105.714C39.1952 105.714 37.5972 106.941 37.1102 108.824C37.0252 109.138 36.9402 109.509 36.9402 109.851V112.221V112.218ZM50.6322 113.36C51.8022 113.96 53.6002 114.56 55.4542 114.56C57.4512 114.56 58.5072 113.732 58.5072 112.476C58.5072 111.276 57.5952 110.593 55.2822 109.766C52.0872 108.652 50.0042 106.883 50.0042 104.086C50.0042 100.806 52.7422 98.296 57.2792 98.296C59.4472 98.296 61.0442 98.752 62.1872 99.266L61.2172 102.776C59.9632 102.168 58.5868 101.855 57.1932 101.861C55.3102 101.861 54.3962 102.719 54.3962 103.717C54.3962 104.944 55.4812 105.487 57.9632 106.427C61.3592 107.683 62.9572 109.452 62.9572 112.163C62.9572 115.388 60.4752 118.127 55.1972 118.127C52.9992 118.127 50.8312 117.557 49.7472 116.957L50.6312 113.361L50.6322 113.36ZM70.4602 99.893V103.887H73.5702V107.083H70.4602V112.133C70.4602 113.816 70.8602 114.587 72.1722 114.587C72.7142 114.587 73.1422 114.53 73.4562 114.473L73.4842 117.753C72.9142 117.983 71.8862 118.125 70.6592 118.125C69.2612 118.125 68.0912 117.64 67.4062 116.925C66.6082 116.099 66.2082 114.757 66.2082 112.789V107.081H64.3522V103.885H66.2072V100.861L70.4572 99.891L70.4602 99.893ZM89.7162 110.707C89.7162 115.814 86.0932 118.154 82.3562 118.154C78.2762 118.154 75.1362 115.472 75.1362 110.964C75.1362 106.454 78.1042 103.574 82.5832 103.574C86.8632 103.574 89.7162 106.512 89.7162 110.707ZM79.6162 110.849C79.6162 113.244 80.6162 115.042 82.4692 115.042C84.1522 115.042 85.2362 113.359 85.2362 110.848C85.2362 108.764 84.4382 106.652 82.4682 106.652C80.3852 106.652 79.6142 108.792 79.6142 110.847L79.6162 110.849ZM92.3962 108.48C92.3962 106.427 92.3392 105.086 92.2822 103.887H96.0192L96.1592 106.455H96.2742C96.9892 104.43 98.7002 103.575 100.04 103.575C100.44 103.575 100.64 103.575 100.955 103.631V107.711C100.57 107.637 100.178 107.599 99.7852 107.598C98.1872 107.598 97.1022 108.454 96.8182 109.795C96.7588 110.115 96.73 110.44 96.7322 110.765V117.841H92.3962V108.481V108.48ZM103.236 108.338C103.236 106.598 103.179 105.114 103.122 103.888H106.774L106.974 105.77H107.058C107.658 104.886 108.884 103.573 111.281 103.573C113.081 103.573 114.507 104.486 115.105 105.941H115.162C115.644 105.266 116.256 104.694 116.962 104.259C117.732 103.802 118.587 103.574 119.614 103.574C122.294 103.574 124.322 105.457 124.322 109.624V117.84H120.099V110.25C120.099 108.224 119.443 107.054 118.044 107.054C117.044 107.054 116.332 107.739 116.047 108.566C115.933 108.88 115.877 109.336 115.877 109.679V117.839H111.653V110.019C111.653 108.251 111.027 107.052 109.658 107.052C108.545 107.052 107.888 107.908 107.631 108.622C107.489 108.964 107.461 109.362 107.461 109.705V117.837H103.238V108.337L103.236 108.338ZM66.2572 69.99C67.6722 71.828 69.0902 72.616 70.7952 72.616C73.7572 72.616 76.3382 70.076 76.3382 66.236V55.99C76.3382 51.448 74.0482 48.95 70.7952 48.95C68.9652 48.95 66.9652 49.99 65.6272 52.236V49.57H59.9232V84.01H30.1602V69.99C31.5742 71.828 32.9942 72.616 34.7002 72.616C37.6602 72.616 40.2432 70.076 40.2432 66.236V55.99C40.2432 51.448 37.9562 48.95 34.7012 48.95C32.8692 48.95 30.8682 49.99 29.5342 52.236V49.57H23.8282V84.01H19.2402V33.53H41.8642V71.992H48.1972V56.197C48.1972 54.904 48.7332 54.114 49.9472 54.114C51.0332 54.114 51.6112 54.78 51.6112 56.197V71.992H57.9492V54.03C57.9492 50.53 55.6142 48.948 52.9032 48.948C51.2332 48.948 49.4432 49.488 48.1972 51.068V33.532H72.5872C72.5842 33.619 72.5772 33.686 72.5772 33.772L72.6472 35.919C72.6472 39.057 74.1602 42.905 74.9072 44.612C74.9072 44.612 77.0552 49.017 78.7172 50.747C80.3772 52.472 81.6002 53.765 83.0102 55.125C84.3142 56.375 85.5402 57.563 86.2022 58.379C87.3022 59.737 87.3702 60.897 87.4692 62.583C87.6632 65.869 86.4552 67.777 84.5892 70.317C82.6922 72.907 81.6492 74.027 80.4452 75.324C79.8412 75.979 79.2092 76.658 78.4532 77.532L77.8452 78.236C76.6302 79.636 75.6032 80.826 74.7352 81.918L72.7882 84.011H66.2542V69.99H66.2572ZM70.0032 64.947V56.86C70.0032 55.07 69.3792 54.114 68.1332 54.114C66.8792 54.114 66.2572 55.07 66.2572 56.861V64.948C66.2572 66.741 66.8792 67.575 68.1322 67.575C69.3792 67.575 70.0022 66.742 70.0022 64.948L70.0032 64.947ZM33.9062 64.947V56.86C33.9062 55.07 33.2842 54.114 32.0362 54.114C30.7862 54.114 30.1592 55.07 30.1592 56.861V64.948C30.1592 66.741 30.7842 67.575 32.0352 67.575C33.2832 67.575 33.9052 66.742 33.9052 64.948L33.9062 64.947Z" fill="#5058A6"/>
<path d="M103.69 16.55C105.144 14.866 106.344 13.502 107.33 12.262H85.2568C83.9448 13.939 81.2768 17.17 79.7548 20.037C77.7448 23.831 76.0888 26.679 75.9268 33.665L75.9968 35.918C75.9968 39.248 78.3838 44.138 78.3838 44.138C78.7558 45.008 80.0138 46.838 80.8198 47.958H80.8018C81.0688 48.312 81.2418 48.538 81.2418 48.538C83.6218 51.263 87.2218 54.308 88.8098 56.265C90.6678 58.562 90.7158 60.71 90.8128 62.381C91.0858 66.903 89.2528 69.631 87.2948 72.301C84.3378 76.337 83.2698 77.086 80.9948 79.726C79.5398 81.406 78.3448 82.77 77.3598 84.011H100.16C101.498 82.288 103.398 79.121 104.93 76.236C106.94 72.442 108.598 69.592 108.76 62.612L108.687 60.36C108.687 57.03 106.307 52.135 106.307 52.135C105.932 51.267 104.673 49.443 103.862 48.315H103.879C103.619 47.967 103.439 47.735 103.439 47.735C101.066 45.012 97.4608 41.967 95.8768 40.01C94.0168 37.717 93.9668 35.57 93.8668 33.892C93.5968 29.372 95.4268 26.642 97.3838 23.972C100.346 19.94 101.414 19.186 103.688 16.552L103.69 16.55Z" fill="#F58A1F"/>
</svg>
