<svg width="128" height="128" viewBox="0 0 128 128" fill="none" xmlns="http://www.w3.org/2000/svg">
<path d="M13.836 100.063C12.696 99.037 11.058 98.465 8.606 98.465C6.606 98.465 5 98.637 4 98.837V118H6V110.136C7 110.279 7.335 110.306 8.078 110.306C10.503 110.306 12.683 109.594 13.996 108.196C14.966 107.196 15.5 105.826 15.5 104.086C15.5 102.376 14.892 100.976 13.836 100.063ZM8.136 108.309C7.308 108.309 7 108.252 6 108.109V100.633C7 100.519 7.335 100.433 8.42 100.433C11.16 100.433 12.958 101.66 12.958 104.199C12.958 106.854 11.131 108.309 8.135 108.309H8.136ZM25.37 103.716C24.427 103.716 23.638 103.902 22.896 104.331C22.126 104.761 21.594 105.001 21.196 106.001H21V98.001H19V118.001H21V109.511C21 109.025 21.096 108.654 21.24 108.311C21.697 106.941 23.08 105.801 24.706 105.801C27.074 105.801 28 107.683 28 109.909V118H30V109.622C30 104.857 27.224 103.716 25.37 103.716ZM41.677 103.516C39.423 103.516 37.797 105 36.77 106H36.713L36.599 104H34.343C34.399 105 33.999 106.77 33.999 108.538V123H36.999V116H36.996C37.826 117 39.422 118.16 41.249 118.16C44.501 118.16 47.525 115.603 47.525 110.64C47.525 106.445 45.015 103.516 41.675 103.516H41.677ZM40.82 116.186C39.023 116.186 37.54 114.986 37.084 113.246C37.0254 112.907 36.9973 112.564 37 112.22V109.85C37 109.508 37.056 109.138 37.14 108.824C37.627 106.941 39.21 105.714 40.922 105.714C43.575 105.714 45.022 108.084 45.022 110.85C45.022 114.016 43.474 116.185 40.82 116.185V116.186ZM57.965 106.427C55.483 105.485 54.398 104.943 54.398 103.717C54.398 102.717 55.312 101.861 57.195 101.861C58.5882 101.855 59.9643 102.168 61.218 102.776L62.188 99.266C61.048 98.753 59.448 98.296 57.28 98.296C52.743 98.296 50.005 100.806 50.005 104.088C50.005 106.884 52.087 108.653 55.283 109.766C57.595 110.593 58.508 111.278 58.508 112.476C58.508 113.733 57.452 114.56 55.455 114.56C53.601 114.56 51.803 113.96 50.633 113.36L49.749 116.955C50.833 117.555 53.002 118.125 55.199 118.125C60.477 118.125 62.959 115.385 62.959 112.161C62.959 109.451 61.359 107.683 57.964 106.428L57.965 106.427ZM70 99.893L66 100.863V104H64V107H66V112.79C66 114.758 66.504 116.1 67.302 116.927C67.987 117.64 69.209 118.127 70.607 118.127C71.834 118.127 72.887 117.983 73.457 117.755L73.443 114.475C73.128 114.531 72.477 114.588 71.936 114.588C70.624 114.588 70.001 113.818 70.001 112.134V107H74.001V104H70.001V99.893H70ZM82.583 103.574C78.103 103.574 75.137 106.454 75.137 110.964C75.137 115.472 78.275 118.154 82.357 118.154C86.093 118.154 89.717 115.814 89.717 110.707C89.717 106.512 86.864 103.574 82.583 103.574ZM82.469 115.044C80.614 115.044 79.615 113.244 79.615 110.849C79.615 108.793 80.385 106.653 82.468 106.653C84.438 106.653 85.235 108.765 85.235 110.848C85.235 113.358 84.151 115.041 82.467 115.041L82.469 115.044ZM96.275 106H96.161L96.021 104H92.28C92.337 105 91.998 106.427 91.998 108.48V118H96.998V110.764C96.998 110.421 96.893 110.079 96.95 109.794C97.234 108.454 98.275 107.597 99.872 107.597C100.357 107.597 100.997 107.654 100.997 107.711V103.631C100.997 103.575 100.46 103.347 100.06 103.347C98.72 103.347 96.987 104.001 96.272 106.001L96.275 106ZM119.453 103.574C118.425 103.574 117.65 103.831 116.88 104.288C116.223 104.688 115.676 105.001 115.162 106.001H115.105C114.505 104.001 113.08 103.721 111.282 103.721C108.885 103.721 107.659 105.001 107.059 106.001H106.973L106.773 104.001H103.123C103.179 105.001 103.001 106.601 103.001 108.341V118H107.001V109.708C107.001 109.365 107.259 108.966 107.401 108.624C107.657 107.911 108.603 107.054 109.716 107.054C111.086 107.054 112.001 108.254 112.001 110.024V118H116.001V109.68C116.001 109.336 115.996 108.88 116.111 108.566C116.396 107.739 117.028 107.054 118.027 107.054C119.427 107.054 120.001 108.224 120.001 110.249V118H124.001V109.622C123.999 105.457 122.133 103.574 119.451 103.574H119.453ZM34 64.947V56.86C34 55.07 33.25 54.114 32.004 54.114C30.754 54.114 30 55.07 30 56.861V64.948C30 66.741 30.752 67.575 32.004 67.575C33.251 67.575 34 66.742 34 64.948V64.947Z" fill="#5058A6"/>
<path d="M78.456 77.5301C79.211 76.6561 79.843 75.9771 80.448 75.3231C81.654 74.0261 82.695 72.9061 84.593 70.3161C86.459 67.7761 87.666 65.8681 87.471 62.5831C87.373 60.8971 87.304 59.7371 86.205 58.3791C85.543 57.5611 84.315 56.3751 83.012 55.1241C81.604 53.7641 80.382 52.4711 78.722 50.7461C77.057 49.0161 74.91 44.6111 74.91 44.6111C74.162 42.9041 72.65 39.0561 72.65 35.9181L72.58 34.0051C72.58 33.9171 72.587 33.9991 72.59 33.9991H48V51.0691C49 49.4891 51.16 48.9491 52.83 48.9491C55.54 48.9491 58 50.5291 58 54.0311V72.0001H52V56.1971C52 54.7801 51.13 54.1141 50.044 54.1141C48.829 54.1141 48 54.9041 48 56.1971V72.0001H42V34.0001H19V84.0001H24V50.0001H30V52.2331C31 49.9861 32.98 48.9481 34.813 48.9481C38.067 48.9481 40 51.4451 40 55.9881V66.2361C40 70.0741 37.46 72.6161 34.5 72.6161C32.793 72.6161 32 71.8261 30 69.9901V84.0001H60V50.0001H66V52.2331C67 49.9861 68.98 48.9481 70.812 48.9481C74.066 48.9481 76 51.4451 76 55.9881V66.2361C76 70.0741 73.46 72.6161 70.497 72.6161C68.792 72.6161 68 71.8261 66 69.9901V84.0001H72.79L74.736 81.9101C75.606 80.8201 76.632 79.6321 77.846 78.2301L78.456 77.5301Z" fill="#5058A6"/>
<path d="M70 64.947V56.86C70 55.07 69.25 54.114 68.002 54.114C66.749 54.114 66 55.07 66 56.861V64.948C66 66.741 66.748 67.575 68.002 67.575C69.249 67.575 70 66.742 70 64.948V64.947ZM78.385 44.158C78.757 45.028 80.015 47 80.821 48H80.803C81.07 48 81.243 48.56 81.243 48.56C83.623 51.283 87.223 54.317 88.811 56.274C90.669 58.571 90.717 60.714 90.814 62.384C91.087 66.906 89.254 69.631 87.296 72.302C84.339 76.336 83.271 77.082 80.996 79.722C79.54 81.4 78.346 83 77.36 84H100.16C101.5 82 103.4 79.113 104.93 76.23C106.942 72.435 108.6 69.587 108.76 62.607L108.688 60.355C108.688 57.025 106.308 51.975 106.308 51.975C105.933 51.105 104.674 49 103.863 48H103.88C103.62 48 103.44 47.576 103.44 47.576C101.068 44.852 97.463 41.886 95.88 39.928C94.02 37.635 93.968 35.526 93.868 33.848C93.598 29.328 95.428 26.62 97.386 23.948C100.346 19.918 101.413 19.044 103.689 16.408C105.143 14.725 106.343 14 107.329 12H85.257C83.945 14 81.277 17.04 79.755 19.906C77.745 23.7 76.089 26.614 75.927 33.599L75.997 35.894C75.997 39.224 78.384 44.157 78.384 44.157L78.385 44.158Z" fill="#5058A6"/>
</svg>
