<svg width="128" height="128" viewBox="0 0 128 128" fill="none" xmlns="http://www.w3.org/2000/svg">
<path d="M67.1448 94.463C69.1178 97.023 71.0928 98.123 73.4698 98.123C77.5998 98.123 81.1958 94.58 81.1958 89.231V74.946C81.1958 68.616 78.0058 65.136 73.4698 65.136C70.9178 65.136 68.1298 66.581 66.2668 69.713V65.999H58.3168V114H16.8328V94.463C18.8058 97.023 20.7828 98.123 23.1628 98.123C27.2898 98.123 30.8878 94.58 30.8878 89.231V74.946C30.8878 68.616 27.6998 65.136 23.1638 65.136C20.6088 65.136 17.8198 66.581 15.9608 69.713V65.999H8.00977V114H1.61377V43.646H33.1468V97.253H41.9738V75.237C41.9738 73.434 42.7208 72.334 44.4138 72.334C45.9278 72.334 46.7338 73.262 46.7338 75.237V97.252H55.5658V72.217C55.5658 67.337 52.3108 65.134 48.5328 65.134C46.2068 65.134 43.7128 65.886 41.9728 68.091V43.647H75.9698C75.9648 43.767 75.9538 43.86 75.9538 43.982L76.0538 46.974C76.0538 51.348 78.1608 56.71 79.2038 59.09C79.2038 59.09 82.1978 65.23 84.5158 67.64C86.8288 70.045 88.5338 71.847 90.4978 73.743C92.3178 75.488 94.0258 77.143 94.9478 78.28C96.4798 80.173 96.5758 81.79 96.7138 84.14C96.9838 88.72 95.3018 91.377 92.7018 94.92C90.0558 98.53 88.6048 100.09 86.9238 101.898C86.0808 102.81 85.2008 103.756 84.1478 104.974L83.2998 105.956C81.6058 107.908 80.1758 109.566 78.9628 111.086L76.2528 114H67.1458V94.463H67.1448ZM72.3668 87.433V76.163C72.3668 73.666 71.4968 72.333 69.7588 72.333C68.0108 72.333 67.1448 73.666 67.1448 76.163V87.433C67.1448 89.933 68.0118 91.095 69.7578 91.095C71.4958 91.095 72.3648 89.933 72.3648 87.433H72.3668ZM22.0548 87.433V76.163C22.0548 73.666 21.1878 72.333 19.4488 72.333C17.7038 72.333 16.8318 73.666 16.8318 76.163V87.433C16.8318 89.933 17.7038 91.095 19.4478 91.095C21.1858 91.095 22.0528 89.933 22.0528 87.433H22.0548Z" fill="#5058A6"/>
<path d="M119.32 19.977C121.348 17.629 123.02 15.727 124.392 14H93.63C91.8 16.337 88.083 20.84 85.96 24.837C83.16 30.125 80.85 34.095 80.625 43.831L80.723 46.971C80.723 51.611 84.049 58.429 84.049 58.429C84.566 59.641 86.321 62.194 87.443 63.754H87.417C87.789 64.246 88.031 64.562 88.031 64.562C91.346 68.36 96.364 72.602 98.578 75.332C101.168 78.532 101.233 81.526 101.368 83.855C101.748 90.155 99.194 93.958 96.466 97.681C92.346 103.303 90.856 104.348 87.684 108.028C85.658 110.371 83.994 112.271 82.619 114H114.399C116.266 111.598 118.914 107.182 121.049 103.162C123.851 97.874 126.162 93.902 126.385 84.172L126.285 81.032C126.285 76.392 122.965 69.568 122.965 69.568C122.445 68.358 120.69 65.816 119.56 64.245H119.585C119.384 63.9736 119.18 63.7043 118.973 63.437C115.666 59.64 110.64 55.397 108.433 52.669C105.843 49.472 105.77 46.479 105.633 44.141C105.257 37.839 107.807 34.038 110.535 30.315C114.661 24.698 116.147 23.648 119.319 19.975L119.32 19.977Z" fill="#F58A1F"/>
</svg>
