<svg width="128" height="128" viewBox="0 0 128 128" fill="none" xmlns="http://www.w3.org/2000/svg">
<path d="M72 82.433V71.163C72 68.666 71.24 67.333 69.503 67.333C67.756 67.333 67 68.666 67 71.163V82.433C67 84.933 67.756 86.095 69.503 86.095C71.241 86.095 72 84.933 72 82.433Z" fill="#5058A6"/>
<path d="M84.148 99.97C85.201 98.753 86.081 97.807 86.924 96.895C88.604 95.087 90.056 93.525 92.702 89.915C95.302 86.375 96.985 83.715 96.714 79.137C96.576 76.787 96.48 75.17 94.949 73.277C94.025 72.139 92.316 70.485 90.497 68.741C88.533 66.846 86.827 65.044 84.515 62.641C82.195 60.229 79.203 54.089 79.203 54.089C78.161 51.709 76.053 46.346 76.053 41.973L75.953 39.159C75.953 39.037 75.963 39.001 75.969 39.001H42V63.091C44 60.888 46.437 60.135 48.763 60.135C52.541 60.135 56 62.339 56 67.218V92H47V70.237C47 68.261 46.074 67.334 44.56 67.334C42.867 67.334 42 68.434 42 70.237V92H33V39H2V109H8V61H16V64.712C18 61.58 20.684 60.134 23.24 60.134C27.776 60.134 31 63.614 31 69.944V84.23C31 89.58 27.43 93.12 23.303 93.12C20.923 93.12 19 92.023 17 89.462V109H58V61H66V64.712C68 61.58 70.686 60.134 73.238 60.134C77.774 60.134 81 63.614 81 69.944V84.23C81 89.58 77.428 93.12 73.3 93.12C70.922 93.12 69 92.023 67 89.462V109H76.252L78.964 106.083C80.176 104.563 81.607 102.903 83.301 100.953L84.149 99.971L84.148 99.97Z" fill="#5058A6"/>
<path d="M22 82.433V71.163C22 68.666 21.244 67.333 19.505 67.333C17.761 67.333 17 68.666 17 71.163V82.433C17 84.933 17.76 86.095 19.505 86.095C21.245 86.095 22 84.933 22 82.433ZM126.285 76.034C126.285 71.394 122.967 64.446 122.967 64.446C122.447 63.236 120.691 61 119.561 59H119.586C119.224 59 118.974 58.315 118.974 58.315C115.667 54.518 110.641 50.335 108.434 47.608C105.844 44.412 105.771 41.448 105.634 39.112C105.258 32.81 107.808 29.024 110.536 25.302C114.662 19.684 116.149 18.642 119.321 14.97C121.351 12.622 123.021 10.73 124.394 9H93.63C91.8 11.338 88.083 15.842 85.96 19.838C83.16 25.128 80.85 29.096 80.625 38.832L80.723 41.972C80.723 46.612 84.049 53.552 84.049 53.552C84.567 54.764 86.322 57 87.444 59H87.418C87.788 59 88.031 59.685 88.031 59.685C91.346 63.482 96.363 67.665 98.578 70.392C101.168 73.592 101.234 76.556 101.37 78.885C101.75 85.185 99.195 88.973 96.467 92.695C92.345 98.319 90.857 99.357 87.684 103.035C85.658 105.379 83.994 107.272 82.619 109H114.4C116.267 106.6 118.915 102.183 121.05 98.163C123.852 92.875 126.163 88.903 126.386 79.173L126.286 76.033L126.285 76.034Z" fill="#5058A6"/>
</svg>
