<svg width="128" height="128" viewBox="0 0 128 128" fill="none" xmlns="http://www.w3.org/2000/svg">
<path d="M69.334 59.3425H102.424M74.8402 66.1912H107.927" stroke="#3C6EB4" stroke-width="2.74564"/>
<path d="M98.4871 73.8821C91.5774 62.7298 93.1267 51.9709 89.8603 36.5985C88.0715 27.1063 82.0233 19.2681 74.1474 16.3981C67.6504 14.139 54.1571 14.136 48.4379 16.3981C40.5649 19.2681 34.5137 27.1063 32.7189 36.5985C29.4555 51.9709 31.0019 62.7298 24.0981 73.8821" stroke="black" stroke-width="2.06017"/>
<path d="M82.258 51.5161C82.258 49.5821 80.766 48.0161 78.922 48.0161C77.078 48.0161 75.582 49.5821 75.582 51.5161C75.582 53.4491 77.078 55.0161 78.922 55.0161C80.766 55.0161 82.258 53.4491 82.258 51.5161ZM48.531 51.5161C48.531 49.5821 47.035 48.0161 45.191 48.0161C43.348 48.0161 41.855 49.5821 41.855 51.5161C41.855 53.4491 43.348 55.0161 45.191 55.0161C47.035 55.0161 48.531 53.4491 48.531 51.5161Z" fill="#E7E8E9"/>
<path d="M50.9802 49.5911L38.5771 52.9015M52.3851 51.5149L39.913 58.6913M53.4394 53.7879L40.7921 66.3971M53.968 56.7649L47.5035 67.9213" stroke="#A7A9AC" stroke-width="1.37324"/>
<path d="M74.1177 49.5911L86.5234 52.9015M72.7127 51.5149L85.1848 58.6913M71.6584 53.7879L84.3057 66.3971M71.1298 56.7649L77.5943 67.9213" stroke="#A7A9AC" stroke-width="1.37324"/>
<path d="M73.1274 49.0652C73.1274 43.4563 68.3295 38.9143 62.4069 38.9143C56.4902 38.9143 51.6924 43.4563 51.6924 49.0652C51.6924 54.6712 56.4902 59.2131 62.4069 59.2131C68.3295 59.2131 73.1274 54.6712 73.1274 49.0652Z" fill="white" stroke="#60605B" stroke-width="2.06017" stroke-linecap="square"/>
<path d="M73.6539 40.3864C73.6539 37.4746 75.966 35.1172 78.8137 35.1172C81.6643 35.1172 83.9736 37.4746 83.9736 40.3864C83.9736 43.3011 81.6643 45.6615 78.8137 45.6615C75.966 45.6615 73.6539 43.3011 73.6539 40.3864Z" fill="black" stroke="#892CA0" stroke-width="2.06017" stroke-linecap="square"/>
<path d="M83.4438 29.3504C82.9219 28.6832 82.2614 28.1362 81.5077 27.7469C80.7539 27.3575 79.9246 27.1349 79.0766 27.0943C78.2774 27.065 77.4805 27.1978 76.7344 27.4847C75.9883 27.7716 75.3085 28.2066 74.7363 28.7633" stroke="black" stroke-width="2.06017" stroke-linecap="square"/>
<path d="M62.3958 47.3113L62.6615 52.5666C62.6615 52.5666 66.8764 56.3269 69.3384 52.4767C69.3384 52.4767 69.0728 50.2883 68.8975 49.5897M62.3508 47.3113L62.0851 52.5666C62.0851 52.5666 57.8702 56.3269 55.4082 52.4767C55.4082 52.4767 55.6738 50.2883 55.8491 49.5897" stroke="black" stroke-width="2.05986"/>
<path d="M66.9832 47.2351C66.6243 46.3052 66.6242 44.4515 65.5444 44.4515C64.4675 44.4515 63.4714 43.7571 62.4066 43.7571C61.3477 43.7571 60.3516 44.4515 59.2747 44.4515C58.1979 44.4515 58.198 46.3052 57.839 47.2351C57.4801 48.159 62.4066 51.1691 62.4066 51.1691C62.4066 51.1691 67.3422 48.159 66.9832 47.2351Z" fill="#808080" stroke="black" stroke-width="2.06017" stroke-linecap="square"/>
<path d="M50.5703 40.3864C50.5703 37.4746 48.2639 35.1172 45.4103 35.1172C42.5596 35.1172 40.2505 37.4746 40.2505 40.3864C40.2505 43.3011 42.5596 45.6615 45.4103 45.6615C48.2639 45.6615 50.5703 43.3011 50.5703 40.3864Z" fill="black" stroke="#892CA0" stroke-width="2.06017" stroke-linecap="square"/>
<path d="M46.2269 38.9061C46.2269 37.4531 45.0899 36.2771 43.6869 36.2771C42.2849 36.2771 41.1519 37.4531 41.1519 38.9071C41.1519 40.3551 42.2849 41.5311 43.6869 41.5311C45.0899 41.5311 46.2269 40.3551 46.2269 38.9061Z" fill="white"/>
<path d="M40.7861 29.3505C41.3075 28.684 41.9669 28.1375 42.7196 27.7481C43.4722 27.3588 44.3002 27.1358 45.1472 27.0944C45.947 27.0639 46.7446 27.1962 47.4914 27.4832C48.2381 27.7701 48.9184 28.2057 49.4905 28.7633" stroke="black" stroke-width="2.06017" stroke-linecap="square"/>
<path d="M79.6131 38.9061C79.6131 37.4531 78.4771 36.2771 77.0781 36.2771C75.6761 36.2771 74.5391 37.4531 74.5391 38.9071C74.5391 40.3551 75.6761 41.5311 77.0791 41.5311C78.4771 41.5311 79.6131 40.3551 79.6131 38.9061Z" fill="white"/>
<path d="M28.3145 73.7339H113.956" stroke="#3C6EB4" stroke-width="2.74564"/>
<path d="M60.0653 88.4737C59.4972 84.6417 59.2206 80.4743 58.1773 75.5671C57.0325 69.5074 53.1617 64.5078 48.1223 62.6757C43.9707 61.2349 35.3368 61.2306 31.6777 62.6757C26.6426 64.5078 22.7717 69.5074 21.6269 75.5671C20.5793 80.4721 20.3071 84.6417 19.7412 88.4737" stroke="black" stroke-width="2.06038"/>
<path d="M53.3159 85.0861C53.3159 83.8521 52.3629 82.8521 51.1839 82.8521C50.0039 82.8521 49.0469 83.8521 49.0469 85.0861C49.0469 86.3201 50.0039 87.3201 51.1839 87.3201C52.3639 87.3201 53.3159 86.3201 53.3159 85.0861Z" fill="#E7E8E9"/>
<path d="M31.7422 85.0861C31.7422 83.8521 30.7852 82.8521 29.6052 82.8521C28.4252 82.8521 27.4692 83.8521 27.4692 85.0861C27.4692 86.3201 28.4262 87.3201 29.6052 87.3201C30.7852 87.3201 31.7422 86.3201 31.7422 85.0861Z" fill="#E7E8E9"/>
<path d="M33.3111 83.8552L25.377 85.9678" stroke="#A7A9AC" stroke-width="1.37368"/>
<path d="M34.2128 85.0862L26.2329 89.6626" stroke="#A7A9AC" stroke-width="1.37368"/>
<path d="M34.884 86.5386L26.7954 94.5768" stroke="#A7A9AC" stroke-width="1.37368"/>
<path d="M35.2236 88.4365L31.0884 95.5544" stroke="#A7A9AC" stroke-width="1.37368"/>
<path d="M48.1069 83.8552L56.041 85.9678" stroke="#A7A9AC" stroke-width="1.37368"/>
<path d="M47.2052 85.0862L55.1851 89.6626" stroke="#A7A9AC" stroke-width="1.37368"/>
<path d="M46.5344 86.5386L54.623 94.5768" stroke="#A7A9AC" stroke-width="1.37368"/>
<path d="M46.1943 88.4365L50.3296 95.5544" stroke="#A7A9AC" stroke-width="1.37368"/>
<path d="M47.4732 83.52C47.4732 79.941 44.4062 77.043 40.6172 77.043C36.8322 77.043 33.7622 79.941 33.7622 83.52C33.7622 87.098 36.8322 90 40.6172 90C44.4072 90 47.4732 87.098 47.4732 83.52Z" fill="white"/>
<path d="M47.4698 83.5194C47.4698 79.9412 44.4024 77.0425 40.6158 77.0425C36.8292 77.0425 33.7598 79.9412 33.7598 83.5194C33.7598 87.0976 36.8292 90.0006 40.6158 90.0006C44.4046 90.0006 47.4698 87.0976 47.4698 83.5194Z" stroke="#60605B" stroke-width="2.06038" stroke-linecap="square"/>
<path d="M47.813 77.9841C47.813 76.1251 49.289 74.6211 51.113 74.6211C52.938 74.6211 54.414 76.1251 54.414 77.9841C54.414 79.8441 52.937 81.3481 51.114 81.3481C49.289 81.3481 47.813 79.8441 47.813 77.9841Z" fill="black"/>
<path d="M47.8109 77.9843C47.8109 76.1242 49.2863 74.6211 51.1115 74.6211C52.9346 74.6211 54.4121 76.1264 54.4121 77.9843C54.4121 79.8443 52.9346 81.3475 51.1115 81.3475C49.2863 81.3475 47.8109 79.8422 47.8109 77.9843Z" stroke="#892CA0" stroke-width="2.06038" stroke-linecap="square"/>
<path d="M54.0733 70.9417C53.7392 70.5158 53.3167 70.1667 52.8347 69.918C52.3527 69.6694 51.8225 69.5272 51.2803 69.501C50.2608 69.458 49.2282 69.8515 48.5024 70.5676" stroke="black" stroke-width="2.06038" stroke-linecap="square"/>
<path d="M40.6152 82.4026L40.7868 85.7547C40.7868 85.7547 43.4831 88.156 45.0563 85.6989C45.0563 85.6989 44.8881 84.3041 44.776 83.8549" stroke="black" stroke-width="2.05968"/>
<path d="M40.5851 82.4026L40.4152 85.7547C40.4152 85.7547 37.7207 88.156 36.1475 85.6989C36.1475 85.6989 36.314 84.3041 36.4279 83.8549" stroke="black" stroke-width="2.05968"/>
<path d="M43.5431 82.3521C43.3131 81.7621 43.3131 80.5781 42.6251 80.5781C41.9341 80.5781 41.2971 80.1331 40.6171 80.1331C39.9411 80.1331 39.3051 80.5781 38.6131 80.5781C37.9221 80.5781 37.9221 81.7621 37.6951 82.3521C37.4651 82.9451 40.6171 84.8671 40.6171 84.8671C40.6171 84.8671 43.7731 82.9451 43.5431 82.3521Z" fill="#808080"/>
<path d="M43.541 82.3517C43.3098 81.7625 43.3099 80.5777 42.623 80.5777C41.9318 80.5777 41.2945 80.1326 40.6141 80.1326C39.9402 80.1326 39.303 80.5777 38.6118 80.5777C37.9205 80.5777 37.9206 81.7604 37.6938 82.3517C37.4626 82.9453 40.6162 84.8677 40.6162 84.8677C40.6162 84.8677 43.7699 82.9453 43.541 82.3517V82.3517Z" stroke="black" stroke-width="2.06038" stroke-linecap="square"/>
<path d="M33.0468 77.9841C33.0468 76.1251 31.5698 74.6211 29.7468 74.6211C27.9218 74.6211 26.4448 76.1251 26.4448 77.9841C26.4448 79.8441 27.9218 81.3481 29.7458 81.3481C31.5698 81.3481 33.0458 79.8441 33.0458 77.9841H33.0468Z" fill="black"/>
<path d="M33.0449 77.9843C33.0449 76.1242 31.5675 74.6211 29.7445 74.6211C27.9192 74.6211 26.4438 76.1264 26.4438 77.9843C26.4438 79.8443 27.9192 81.3475 29.7445 81.3475C31.5675 81.3475 33.0449 79.8422 33.0449 77.9843Z" stroke="#892CA0" stroke-width="2.06038" stroke-linecap="square"/>
<path d="M30.266 77.0401C30.266 76.1131 29.539 75.3601 28.645 75.3601C27.746 75.3601 27.02 76.1131 27.02 77.0401C27.02 77.9651 27.746 78.7151 28.645 78.7151C29.539 78.7151 30.265 77.9651 30.265 77.0391L30.266 77.0401Z" fill="white"/>
<path d="M26.7852 70.9417C27.1191 70.5161 27.5413 70.1671 28.0229 69.9185C28.5045 69.6698 29.0342 69.5275 29.5761 69.501C30.5956 69.458 31.628 69.8515 32.3538 70.5676" stroke="black" stroke-width="2.06038" stroke-linecap="square"/>
<path d="M51.852 77.2729C51.852 76.3479 51.125 75.5979 50.227 75.5979C49.332 75.5979 48.605 76.3479 48.605 77.2729C48.605 78.1989 49.332 78.9489 50.227 78.9489C51.125 78.9489 51.852 78.1989 51.852 77.2729Z" fill="white"/>
<path d="M64.1035 122.91L13.9103 99.0026L1.37109 44.9848L35.9326 1.53656L91.5619 1.37085L126.378 44.612L114.154 98.7023L64.1035 122.91Z" stroke="#892CA0" stroke-width="2.74564" stroke-linecap="round" stroke-linejoin="round"/>
<path d="M15.9287 84.6943H67.5058M40.4322 94.9635H111.964" stroke="#3C6EB4" stroke-width="2.74564"/>
<path d="M106.441 93.674C105.835 89.5778 105.541 85.1216 104.425 79.8783C103.197 73.3999 99.0616 68.0556 93.675 66.0981C89.2325 64.5549 80.0071 64.5523 76.0926 66.0981C70.7086 68.0556 66.5678 73.3999 65.3454 79.8783C64.227 85.1216 63.9356 89.5778 63.3296 93.6766" stroke="black" stroke-width="2.06052"/>
<path d="M99.2301 90.055C99.2301 88.735 98.2071 87.665 96.9501 87.665C95.6871 87.665 94.6641 88.735 94.6641 90.055C94.6641 91.375 95.6871 92.441 96.9491 92.441C98.2071 92.441 99.2301 91.375 99.2301 90.055ZM76.1641 90.055C76.1641 88.735 75.1411 87.665 73.8791 87.665C72.6171 87.665 71.5981 88.735 71.5981 90.055C71.5981 91.375 72.6181 92.441 73.8781 92.441C75.1411 92.441 76.1641 91.375 76.1641 90.055Z" fill="#E7E8E9"/>
<path d="M77.8501 88.7405L69.3657 90.9991M78.811 90.0548L70.2794 94.9476" stroke="#A7A9AC" stroke-width="1.37267"/>
<path d="M93.6495 88.7434L102.136 91.0002M92.6904 90.0542L101.22 94.9487" stroke="#A7A9AC" stroke-width="1.37267"/>
<path d="M92.9785 88.3841C92.9785 84.5597 89.6986 81.4578 85.6515 81.4578C81.6018 81.4578 78.3193 84.5597 78.3193 88.3841C78.3193 92.2085 81.6018 95.3079 85.6515 95.3079C89.6986 95.3079 92.9785 92.2085 92.9785 88.3841Z" fill="white" stroke="#60605B" stroke-width="2.06052" stroke-linecap="square"/>
<path d="M93.3396 82.4623C93.3396 80.4764 94.9209 78.8684 96.869 78.8684C98.8198 78.8684 100.396 80.4764 100.396 82.4623C100.396 84.4483 98.8198 86.0589 96.869 86.0589C94.9183 86.0589 93.3396 84.4483 93.3396 82.4598V82.4623Z" fill="black" stroke="#892CA0" stroke-width="2.06052" stroke-linecap="square"/>
<path d="M100.035 74.9328C99.6772 74.4776 99.2256 74.1045 98.7104 73.8386C98.1951 73.5728 97.6284 73.4205 97.0487 73.3921C96.5019 73.372 95.9567 73.4631 95.4465 73.6599C94.9362 73.8566 94.4716 74.155 94.0811 74.5366" stroke="black" stroke-width="2.06052" stroke-linecap="square"/>
<path d="M85.6617 87.1892L85.8415 90.7712C85.8415 90.7712 88.7241 93.3403 90.4079 90.7116C90.4079 90.7116 90.2245 89.2203 90.1064 88.7437M85.6272 87.1892L85.4455 90.7712C85.4455 90.7712 82.5647 93.3403 80.8809 90.7116C80.8809 90.7116 81.0608 89.2203 81.1806 88.7437" stroke="black" stroke-width="2.05901"/>
<path d="M88.7749 87.1335C88.5304 86.4991 88.5305 85.2356 87.797 85.2356C87.0583 85.2356 86.3742 84.7617 85.6512 84.7617C84.9229 84.7617 84.2414 85.2356 83.5053 85.2356C82.7693 85.2356 82.7693 86.4991 82.5222 87.1335C82.2751 87.7653 85.6512 89.8212 85.6512 89.8212C85.6512 89.8212 89.022 87.7653 88.7749 87.1335Z" fill="#808080" stroke="black" stroke-width="2.06052" stroke-linecap="square"/>
<path d="M77.5546 82.4623C77.5546 80.4764 75.9758 78.8684 74.0251 78.8684C72.077 78.8684 70.4956 80.4764 70.4956 82.4623C70.4956 84.4483 72.077 86.0589 74.0251 86.0589C75.9758 86.0589 77.5546 84.4483 77.5546 82.4598V82.4623Z" fill="black" stroke="#892CA0" stroke-width="2.06052" stroke-linecap="square"/>
<path d="M74.5862 81.45C74.5862 80.46 73.8092 79.656 72.8522 79.656C71.8952 79.656 71.1172 80.461 71.1172 81.449C71.1172 82.441 71.8952 83.242 72.8522 83.242C73.8092 83.242 74.5862 82.442 74.5862 81.449V81.45Z" fill="white"/>
<path d="M70.8569 74.9328C71.2144 74.4777 71.666 74.1045 72.1812 73.8387C72.6965 73.5728 73.2631 73.4206 73.8427 73.3922C74.3904 73.3718 74.9365 73.4628 75.4477 73.6595C75.9588 73.8563 76.4242 74.1548 76.8156 74.5367" stroke="black" stroke-width="2.06052" stroke-linecap="square"/>
<path d="M97.7932 81.684C97.7932 80.695 97.0162 79.894 96.0592 79.894C95.1022 79.894 94.3242 80.695 94.3242 81.684C94.3242 82.676 95.1022 83.477 96.0592 83.477C97.0162 83.477 97.7932 82.676 97.7932 81.684Z" fill="white"/>
<path d="M34.9233 101.815H68.0154M54.1938 108.669H81.4441" stroke="#3C6EB4" stroke-width="2.74564"/>
</svg>
