<svg width="128" height="128" viewBox="0 0 128 128" fill="none" xmlns="http://www.w3.org/2000/svg">
<path d="M69.334 59.3425H102.424M74.8402 66.1912H107.927" stroke="black" stroke-width="2.74564"/>
<path fill-rule="evenodd" clip-rule="evenodd" d="M61.0022 13.6721C56.0262 13.6721 51.1862 14.2101 48.0672 15.4421C48.0642 15.4421 48.0582 15.4401 48.0552 15.4421C39.7952 18.4671 33.5652 26.6031 31.7092 36.3851V36.3911C31.7072 36.3971 31.7042 36.4021 31.7032 36.4081C30.0592 44.1621 29.6272 50.7311 28.7532 56.6711C27.8772 62.6181 26.5762 67.9211 23.2202 73.3421L24.9782 74.4191C28.5262 68.6881 29.9042 63.0381 30.7982 56.9741C31.6902 50.9101 32.1152 44.4171 33.7302 36.8101V36.7871C35.4662 27.6071 41.3272 20.0831 48.7912 17.3621L48.8032 17.3571L48.8202 17.3511C51.4212 16.3221 56.1802 15.7321 61.0022 15.7331C65.8182 15.7331 70.7572 16.3131 73.7962 17.3681H73.8082C81.2662 20.0941 87.1182 27.6141 88.8462 36.7871V36.7981L88.8522 36.8101C90.4682 44.4171 90.8912 50.9101 91.7842 56.9741C92.6782 63.0381 94.0582 68.6941 97.6092 74.4241L99.3682 73.3421C96.0082 67.9211 94.7052 62.6181 93.8292 56.6711C92.9542 50.7311 92.5192 44.1631 90.8732 36.4081L90.8672 36.3911C89.0152 26.5951 82.7832 18.4471 74.5032 15.4301H74.4852C71.0272 14.2271 65.9822 13.6721 61.0022 13.6721Z" fill="black"/>
<path d="M82.258 51.5161C82.258 49.5821 80.766 48.0161 78.922 48.0161C77.078 48.0161 75.582 49.5821 75.582 51.5161C75.582 53.4491 77.078 55.0161 78.922 55.0161C80.766 55.0161 82.258 53.4491 82.258 51.5161ZM48.531 51.5161C48.531 49.5821 47.035 48.0161 45.191 48.0161C43.348 48.0161 41.855 49.5821 41.855 51.5161C41.855 53.4491 43.348 55.0161 45.191 55.0161C47.035 55.0161 48.531 53.4491 48.531 51.5161Z" fill="#E7E8E9"/>
<path d="M50.8009 48.9299L38.3979 52.2399L38.756 53.5629L51.159 50.2549L50.8009 48.9299ZM52.041 50.9199L39.57 58.0999L40.254 59.2829L52.7299 52.1089L52.041 50.9199ZM52.9539 53.3029L40.3069 65.9139L41.277 66.8809L53.924 54.2699L52.9539 53.3029ZM53.374 56.4199L46.9049 67.5779L48.0989 68.2659L54.562 57.1069L53.374 56.4199ZM74.2969 48.9299L86.6999 52.2399L86.347 53.5629L73.939 50.2549L74.2969 48.9299ZM73.0569 50.9199L85.527 58.0999L84.843 59.2829L72.3669 52.1089L73.0569 50.9199ZM72.1439 53.3029L84.791 65.9139L83.8209 66.8809L71.174 54.2699L72.1439 53.3029ZM71.7239 56.4199L78.193 67.5779L76.999 68.2659L70.536 57.1069L71.7239 56.4199Z" fill="black"/>
<path d="M62.4102 37.887C55.9632 37.887 50.6602 42.87 50.6602 49.063C50.6602 55.253 55.9632 60.239 62.4102 60.239C68.8622 60.239 74.1582 55.253 74.1582 49.063C74.1582 42.87 68.8622 37.887 62.4102 37.887ZM62.4102 39.942C67.8032 39.942 72.0962 44.038 72.0962 49.063C72.0962 54.085 67.8032 58.184 62.4102 58.184C57.0232 58.184 52.7232 54.084 52.7232 49.064C52.7232 44.038 57.0232 39.942 62.4102 39.942Z" fill="#60605B"/>
<path d="M73.6539 40.3864C73.6539 37.4746 75.966 35.1172 78.8137 35.1172C81.6643 35.1172 83.9736 37.4746 83.9736 40.3864C83.9736 43.3011 81.6643 45.6615 78.8137 45.6615C75.966 45.6615 73.6539 43.3011 73.6539 40.3864Z" fill="black" stroke="black" stroke-width="2.06017" stroke-linecap="square"/>
<path d="M79.1129 26.065C78.1751 26.0305 77.2402 26.1864 76.3644 26.5235C75.4887 26.8605 74.6904 27.3717 74.0179 28.026L73.2759 28.748L74.7189 30.215L75.4549 29.499C75.9269 29.0395 76.4871 28.6804 77.1017 28.4432C77.7163 28.206 78.3725 28.0958 79.0309 28.119C80.4449 28.189 81.7589 28.869 82.6299 29.982L83.2659 30.792L84.8909 29.528L84.2599 28.719C83.6444 27.9339 82.8672 27.2905 81.981 26.8326C81.0947 26.3746 80.1203 26.1128 79.1239 26.065H79.1179H79.1129ZM61.3209 47.262L61.0829 51.981C60.8529 52.167 60.2789 52.677 59.3399 52.994C58.7849 53.18 58.2329 53.241 57.7469 53.118C57.3339 53.012 56.9189 52.652 56.4969 52.105C56.5249 51.888 56.5349 51.795 56.5849 51.438C56.6719 50.814 56.7939 50.064 56.8499 49.841L54.8469 49.339C54.7279 49.815 54.6309 50.509 54.5409 51.154C54.4509 51.798 54.3859 52.353 54.3859 52.353L54.3389 52.72L54.5359 53.03C55.2639 54.168 56.2359 54.858 57.2339 55.113C58.2309 55.367 59.1919 55.213 59.9979 54.942C61.3799 54.477 62.1009 53.802 62.3739 53.567C62.6479 53.802 63.3639 54.477 64.7439 54.942C65.5519 55.214 66.5119 55.367 67.5099 55.112C68.5069 54.858 69.4789 54.168 70.2069 53.03L70.4089 52.72L70.3629 52.353C70.3629 52.353 70.2969 51.798 70.2069 51.153C70.1169 50.509 70.0199 49.815 69.9009 49.339L67.8989 49.841C67.9549 50.064 68.0759 50.814 68.1629 51.438C68.2129 51.796 68.2239 51.888 68.2509 52.105C67.8289 52.652 67.4139 53.012 67.0009 53.118C66.5159 53.241 65.9629 53.18 65.4089 52.994C64.4689 52.677 63.8959 52.167 63.6659 51.981L63.4269 47.261L62.3739 47.313L61.3209 47.262Z" fill="black"/>
<path d="M62.4099 42.73C61.6539 42.73 61.0319 42.958 60.5169 43.132C60.0019 43.305 59.5879 43.422 59.2719 43.422C58.7059 43.422 58.1549 43.736 57.8519 44.098C57.5509 44.46 57.4129 44.838 57.3029 45.192C57.0849 45.899 56.9729 46.609 56.8769 46.862C56.6549 47.435 56.8659 47.892 57.0409 48.19C57.2149 48.487 57.4309 48.723 57.6709 48.964C58.1539 49.447 58.7609 49.928 59.3769 50.379C60.6089 51.279 61.8669 52.043 61.8669 52.043L62.4039 52.375L62.9469 52.043C62.9469 52.043 64.2069 51.28 65.4419 50.379C66.0589 49.929 66.6649 49.447 67.1479 48.964C67.3889 48.723 67.6029 48.487 67.7779 48.19C67.9529 47.894 68.1659 47.438 67.9479 46.869C67.8509 46.617 67.7419 45.901 67.5219 45.192C67.4119 44.838 67.2689 44.46 66.9669 44.098C66.6639 43.736 66.1129 43.423 65.5469 43.423C65.2309 43.423 64.8189 43.305 64.3019 43.132C63.7859 42.958 63.1669 42.73 62.4099 42.73ZM62.4099 44.785C62.7169 44.785 63.1249 44.902 63.6419 45.075C64.1179 45.235 64.7139 45.417 65.3949 45.448C65.4169 45.482 65.4829 45.592 65.5469 45.798C65.6589 46.158 65.7699 46.706 65.9269 47.241C65.8544 47.3387 65.7741 47.4303 65.6869 47.515C65.3459 47.856 64.7929 48.302 64.2209 48.72C63.3409 49.362 62.7859 49.695 62.4099 49.93C62.0349 49.696 61.4789 49.363 60.5979 48.72C60.0279 48.302 59.4729 47.856 59.1319 47.515C59.0039 47.387 58.9489 47.31 58.8979 47.241C59.0549 46.706 59.1609 46.158 59.2719 45.798C59.3076 45.6725 59.3607 45.5526 59.4299 45.442C60.1069 45.41 60.7029 45.235 61.1769 45.076C61.6939 44.902 62.1069 44.785 62.4099 44.785Z" fill="black"/>
<path d="M50.5703 40.3864C50.5703 37.4746 48.2639 35.1172 45.4103 35.1172C42.5596 35.1172 40.2505 37.4746 40.2505 40.3864C40.2505 43.3011 42.5596 45.6615 45.4103 45.6615C48.2639 45.6615 50.5703 43.3011 50.5703 40.3864Z" fill="black" stroke="black" stroke-width="2.06017" stroke-linecap="square"/>
<path d="M46.2269 38.9061C46.2269 37.4531 45.0899 36.2771 43.6869 36.2771C42.2849 36.2771 41.1519 37.4531 41.1519 38.9071C41.1519 40.3551 42.2849 41.5311 43.6869 41.5311C45.0899 41.5311 46.2269 40.3551 46.2269 38.9061Z" fill="white"/>
<path d="M45.0989 26.0649C44.1035 26.1137 43.1303 26.3759 42.2452 26.8338C41.36 27.2917 40.5837 27.9346 39.9689 28.7189L39.3389 29.5289L40.9689 30.7909L41.5989 29.9819C42.0292 29.4319 42.5727 28.9809 43.1927 28.6595C43.8126 28.338 44.4944 28.1537 45.1919 28.1189C45.8503 28.0948 46.5068 28.2047 47.1215 28.4419C47.7362 28.6792 48.2963 29.0387 48.7679 29.4989L49.5039 30.2149L50.9469 28.7479L50.2109 28.0259C49.5381 27.3704 48.7391 26.8585 47.8624 26.5214C46.9856 26.1843 46.0495 26.0289 45.1109 26.0649H45.1049H45.0989Z" fill="black"/>
<path d="M79.6131 38.9061C79.6131 37.4531 78.4771 36.2771 77.0781 36.2771C75.6761 36.2771 74.5391 37.4531 74.5391 38.9071C74.5391 40.3551 75.6761 41.5311 77.0791 41.5311C78.4771 41.5311 79.6131 40.3551 79.6131 38.9061Z" fill="white"/>
<path d="M28.3145 73.7339H113.956" stroke="black" stroke-width="2.74564"/>
<path d="M39.7162 60.5659C36.5092 60.5659 33.4012 60.8959 31.3122 61.7159C25.8762 63.6999 21.8172 69.0089 20.6132 75.3749V75.3789C19.5532 80.3519 19.2752 84.5579 18.7192 88.3229L20.7612 88.6209C21.3362 84.7309 21.6082 80.6069 22.6382 75.7819V75.7699L22.6432 75.7569C23.7282 70.0099 27.4072 65.3239 32.0332 63.6399L32.0472 63.6359L32.0602 63.6319C33.6302 63.0119 36.6622 62.6189 39.7172 62.6199C42.7692 62.6199 45.9082 62.9979 47.7752 63.6439H47.7842C52.4092 65.3319 56.0772 70.0139 57.1622 75.7569L57.1662 75.7699V75.7779C58.1932 80.6059 58.4672 84.7349 59.0442 88.6259L61.0862 88.3229C60.5282 84.5569 60.2462 80.3529 59.1922 75.3789V75.3749C57.9872 69.0049 53.9222 63.6929 48.4762 61.7119L48.4712 61.7079L48.4632 61.7039C46.1772 60.9109 42.9312 60.5659 39.7172 60.5659H39.7162Z" fill="black"/>
<path d="M53.3159 85.0861C53.3159 83.8521 52.3629 82.8521 51.1839 82.8521C50.0039 82.8521 49.0469 83.8521 49.0469 85.0861C49.0469 86.3201 50.0039 87.3201 51.1839 87.3201C52.3639 87.3201 53.3159 86.3201 53.3159 85.0861Z" fill="#E7E8E9"/>
<path d="M31.7422 85.0861C31.7422 83.8521 30.7852 82.8521 29.6052 82.8521C28.4252 82.8521 27.4692 83.8521 27.4692 85.0861C27.4692 86.3201 28.4262 87.3201 29.6052 87.3201C30.7852 87.3201 31.7422 86.3201 31.7422 85.0861Z" fill="#E7E8E9"/>
<path d="M33.3111 83.8552L25.377 85.9678" stroke="black" stroke-width="1.37368"/>
<path d="M34.2128 85.0862L26.2329 89.6626" stroke="black" stroke-width="1.37368"/>
<path d="M34.884 86.5386L26.7954 94.5768" stroke="black" stroke-width="1.37368"/>
<path d="M35.2236 88.4365L31.0884 95.5544" stroke="black" stroke-width="1.37368"/>
<path d="M48.1069 83.8552L56.041 85.9678" stroke="black" stroke-width="1.37368"/>
<path d="M47.2052 85.0862L55.1851 89.6626" stroke="black" stroke-width="1.37368"/>
<path d="M46.5344 86.5386L54.623 94.5768" stroke="black" stroke-width="1.37368"/>
<path d="M46.1943 88.4365L50.3296 95.5544" stroke="black" stroke-width="1.37368"/>
<path d="M47.4732 83.52C47.4732 79.941 44.4062 77.043 40.6172 77.043C36.8322 77.043 33.7622 79.941 33.7622 83.52C33.7622 87.098 36.8322 90 40.6172 90C44.4072 90 47.4732 87.098 47.4732 83.52Z" fill="white"/>
<path d="M40.6151 76.0129C36.2991 76.0129 32.7251 79.3549 32.7251 83.5179C32.7251 87.6819 36.2981 91.0279 40.6151 91.0279C44.9331 91.0279 48.5051 87.6809 48.5051 83.5179C48.5051 79.3559 44.9311 76.0129 40.6151 76.0129ZM40.6151 78.0709C43.8721 78.0709 46.4371 80.5249 46.4371 83.5179C46.4371 86.5119 43.8741 88.9739 40.6151 88.9739C37.3581 88.9739 34.7931 86.5119 34.7931 83.5179C34.7931 80.5249 37.3581 78.0709 40.6151 78.0709Z" fill="#60605B"/>
<path d="M47.813 77.9841C47.813 76.1251 49.289 74.6211 51.113 74.6211C52.938 74.6211 54.414 76.1251 54.414 77.9841C54.414 79.8441 52.937 81.3481 51.114 81.3481C49.289 81.3481 47.813 79.8441 47.813 77.9841Z" fill="black"/>
<path d="M47.8109 77.9843C47.8109 76.1242 49.2863 74.6211 51.1115 74.6211C52.9346 74.6211 54.4121 76.1264 54.4121 77.9843C54.4121 79.8443 52.9346 81.3475 51.1115 81.3475C49.2863 81.3475 47.8109 79.8422 47.8109 77.9843Z" stroke="black" stroke-width="2.06038" stroke-linecap="square"/>
<path d="M51.3219 68.4739C50.6686 68.4465 50.0166 68.5536 49.4063 68.7884C48.7961 69.0232 48.2405 69.3807 47.7739 69.8389L47.0439 70.5619L48.4959 72.0189L49.2299 71.2969C49.4964 71.0424 49.8108 70.8434 50.1548 70.7114C50.4988 70.5793 50.8656 70.517 51.2339 70.5279C52.0299 70.5679 52.7679 70.9479 53.2589 71.5739L53.8959 72.3839L55.5199 71.1199L54.8869 70.3099C54.4604 69.7669 53.9221 69.322 53.3086 69.0052C52.6951 68.6885 52.0206 68.5073 51.3309 68.4739H51.3269H51.3219Z" fill="black"/>
<path d="M40.6152 82.4026L40.7868 85.7547C40.7868 85.7547 43.4831 88.156 45.0563 85.6989C45.0563 85.6989 44.8881 84.3041 44.776 83.8549" stroke="black" stroke-width="2.05968"/>
<path d="M40.5851 82.4026L40.4152 85.7547C40.4152 85.7547 37.7207 88.156 36.1475 85.6989C36.1475 85.6989 36.314 84.3041 36.4279 83.8549" stroke="black" stroke-width="2.05968"/>
<path d="M43.5431 82.3521C43.3131 81.7621 43.3131 80.5781 42.6251 80.5781C41.9341 80.5781 41.2971 80.1331 40.6171 80.1331C39.9411 80.1331 39.3051 80.5781 38.6131 80.5781C37.9221 80.5781 37.9221 81.7621 37.6951 82.3521C37.4651 82.9451 40.6171 84.8671 40.6171 84.8671C40.6171 84.8671 43.7731 82.9451 43.5431 82.3521Z" fill="#808080"/>
<path d="M40.6151 79.104C40.0501 79.104 39.6151 79.271 39.2861 79.382C38.9571 79.492 38.7341 79.55 38.6111 79.55C38.1421 79.55 37.6631 79.819 37.4171 80.112C37.2183 80.3549 37.0731 80.6371 36.9911 80.94C36.8361 81.438 36.7611 81.896 36.7291 81.981C36.5241 82.51 36.7211 82.912 36.8601 83.149C36.9991 83.385 37.1531 83.553 37.3201 83.72C37.6541 84.055 38.0571 84.367 38.4591 84.66C39.2641 85.249 40.0751 85.744 40.0751 85.744L40.6151 86.072L41.1551 85.744C41.1551 85.744 41.9701 85.249 42.7751 84.661C43.1771 84.367 43.5801 84.055 43.9141 83.721C44.0811 83.553 44.2311 83.385 44.3701 83.149C44.5091 82.913 44.7091 82.511 44.5051 81.981L44.5001 81.977C44.4701 81.9 44.3931 81.437 44.2391 80.94C44.1578 80.6388 44.014 80.358 43.8171 80.116C43.5721 79.823 43.0931 79.549 42.6231 79.549C42.5001 79.549 42.2731 79.492 41.9431 79.381C41.6131 79.271 41.1811 79.104 40.6151 79.104ZM40.6151 81.158C40.7291 81.158 40.9551 81.218 41.2851 81.33C41.5271 81.412 41.8961 81.474 42.2601 81.528C42.2671 81.544 42.2581 81.528 42.2651 81.548C42.3101 81.695 42.3961 82.002 42.4591 82.263L42.4501 82.271C42.1692 82.5346 41.8705 82.7785 41.5561 83.001C41.1021 83.333 40.9001 83.451 40.6151 83.631C40.3301 83.451 40.1311 83.333 39.6781 83.001C39.364 82.7781 39.0653 82.5342 38.7841 82.271C38.7791 82.266 38.7791 82.268 38.7751 82.263C38.8381 82 38.9191 81.691 38.9651 81.545L38.9691 81.532C39.3361 81.479 39.7061 81.412 39.9491 81.33C40.2791 81.219 40.5061 81.158 40.6151 81.158ZM42.5771 82.708C42.5791 82.715 42.5781 82.718 42.5811 82.725L42.5771 82.72C42.5751 82.712 42.5791 82.715 42.5771 82.708Z" fill="black"/>
<path d="M33.0468 77.9841C33.0468 76.1251 31.5698 74.6211 29.7468 74.6211C27.9218 74.6211 26.4448 76.1251 26.4448 77.9841C26.4448 79.8441 27.9218 81.3481 29.7458 81.3481C31.5698 81.3481 33.0458 79.8441 33.0458 77.9841H33.0468Z" fill="black"/>
<path d="M33.0449 77.9843C33.0449 76.1242 31.5675 74.6211 29.7445 74.6211C27.9192 74.6211 26.4438 76.1264 26.4438 77.9843C26.4438 79.8443 27.9192 81.3475 29.7445 81.3475C31.5675 81.3475 33.0449 79.8422 33.0449 77.9843Z" stroke="black" stroke-width="2.06038" stroke-linecap="square"/>
<path d="M30.266 77.0401C30.266 76.1131 29.539 75.3601 28.645 75.3601C27.746 75.3601 27.02 76.1131 27.02 77.0401C27.02 77.9651 27.746 78.7151 28.645 78.7151C29.539 78.7151 30.265 77.9651 30.265 77.0391L30.266 77.0401Z" fill="white"/>
<path d="M29.524 68.4739C28.8348 68.5075 28.1609 68.6888 27.5478 69.0056C26.9348 69.3223 26.3971 69.7672 25.971 70.3099L25.334 71.1199L26.963 72.3839L27.6 71.5739C27.842 71.265 28.1477 71.0117 28.4962 70.8312C28.8447 70.6507 29.228 70.5473 29.62 70.5279C29.9891 70.5163 30.3569 70.5783 30.7018 70.7104C31.0467 70.8424 31.3619 71.0418 31.629 71.2969L32.359 72.0189L33.814 70.5619L33.08 69.8389C32.6135 69.3807 32.0579 69.0232 31.4476 68.7884C30.8373 68.5536 30.1853 68.4465 29.532 68.4739H29.528H29.524Z" fill="black"/>
<path d="M51.852 77.2729C51.852 76.3479 51.125 75.5979 50.227 75.5979C49.332 75.5979 48.605 76.3479 48.605 77.2729C48.605 78.1989 49.332 78.9489 50.227 78.9489C51.125 78.9489 51.852 78.1989 51.852 77.2729Z" fill="white"/>
<path d="M91.5579 1.2456e-06L35.9269 0.167001C35.7205 0.168069 35.517 0.215362 35.3314 0.305376C35.1459 0.39539 34.983 0.525819 34.8549 0.687001L0.289941 44.134C0.162362 44.2954 0.0728471 44.4832 0.0280159 44.6836C-0.0168153 44.8841 -0.0158157 45.092 0.0309408 45.292L12.5699 99.313C12.6167 99.5133 12.7081 99.7005 12.8374 99.8608C12.9667 100.021 13.1306 100.15 13.3169 100.239L63.5119 124.144C63.6982 124.233 63.9022 124.28 64.1089 124.28C64.3157 124.28 64.5197 124.233 64.7059 124.144L114.754 99.935C114.94 99.8454 115.103 99.7152 115.231 99.5542C115.36 99.3932 115.45 99.2055 115.496 99.005L127.723 44.913C127.768 44.7123 127.768 44.5039 127.721 44.3034C127.675 44.103 127.583 43.9155 127.454 43.755L92.6349 0.515001C92.5058 0.35408 92.342 0.224208 92.1555 0.135046C91.969 0.0458828 91.7648 -0.000276454 91.5579 1.2456e-06ZM90.9019 2.74L124.892 44.953L112.955 97.761L64.0949 121.388L15.1039 98.054L2.85994 45.317L36.6019 2.902L90.9019 2.74Z" fill="black"/>
<path d="M15.9268 83.322V86.063H67.5038V83.323L15.9268 83.322ZM40.4328 93.593V96.334H111.964V93.594L40.4328 93.593Z" fill="black"/>
<path fill-rule="evenodd" clip-rule="evenodd" d="M84.6881 63.9099C81.2611 63.9099 77.9381 64.2719 75.7211 65.1449H75.7111C69.9331 67.2579 65.6131 72.9049 64.3321 79.6849V79.6889C63.2021 84.9999 62.9061 89.4939 62.3101 93.5259L64.3521 93.8239C64.9671 89.6659 65.2521 85.2569 66.3541 80.0939L66.3591 80.0789V80.0689C67.5221 73.9029 71.4721 68.8699 76.4481 67.0609L76.4581 67.0559L76.4731 67.0509C78.1721 66.3809 81.4161 65.9689 84.6881 65.9689C87.9581 65.9689 91.3171 66.3689 93.3281 67.0659H93.3341C98.3071 68.8789 102.244 73.9059 103.412 80.0679V80.0779L103.417 80.0879C104.517 85.2519 104.804 89.6679 105.419 93.8239L107.461 93.5259C106.865 89.4959 106.567 84.9989 105.439 79.6889V79.6839C104.151 72.8959 99.8241 67.2399 94.0291 65.1339L94.0251 65.1289H94.0151C91.5841 64.2849 88.1181 63.9109 84.6881 63.9109V63.9099Z" fill="black"/>
<path d="M99.2301 90.055C99.2301 88.735 98.2071 87.665 96.9501 87.665C95.6871 87.665 94.6641 88.735 94.6641 90.055C94.6641 91.375 95.6871 92.441 96.9491 92.441C98.2071 92.441 99.2301 91.375 99.2301 90.055ZM76.1641 90.055C76.1641 88.735 75.1411 87.665 73.8791 87.665C72.6171 87.665 71.5981 88.735 71.5981 90.055C71.5981 91.375 72.6181 92.441 73.8781 92.441C75.1411 92.441 76.1641 91.375 76.1641 90.055Z" fill="#E7E8E9"/>
<path d="M77.673 88.0801L69.187 90.3361L69.545 91.6621L78.028 89.4021L77.673 88.0801ZM78.468 89.4621L69.935 94.3561L70.624 95.5411L79.156 90.6461L78.468 89.4621ZM93.827 88.0831L102.313 90.3401L101.958 91.6621L93.472 89.4061L93.827 88.0831ZM93.037 89.4621L101.565 94.3561L100.876 95.5411L92.348 90.6471L93.037 89.4621Z" fill="black"/>
<path d="M85.6531 80.4331C81.0731 80.4331 77.2861 83.9731 77.2861 88.3831C77.2861 92.7931 81.0741 96.3381 85.6531 96.3381C90.2291 96.3381 94.0091 92.7921 94.0091 88.3831C94.0091 83.9731 90.2291 80.4331 85.6531 80.4331ZM85.6531 82.4861C89.1701 82.4861 91.9471 85.1431 91.9471 88.3831C91.9471 91.6221 89.1701 94.2791 85.6531 94.2791C82.1331 94.2791 79.3531 91.6221 79.3531 88.3831C79.3531 85.1431 82.1331 82.4861 85.6531 82.4861Z" fill="#60605B"/>
<path d="M93.3396 82.4623C93.3396 80.4764 94.9209 78.8684 96.869 78.8684C98.8198 78.8684 100.396 80.4764 100.396 82.4623C100.396 84.4483 98.8198 86.0589 96.869 86.0589C94.9183 86.0589 93.3396 84.4483 93.3396 82.4598V82.4623Z" fill="black" stroke="black" stroke-width="2.06052" stroke-linecap="square"/>
<path d="M97.088 72.3661C96.4015 72.3404 95.717 72.4545 95.0759 72.7015C94.4349 72.9486 93.8508 73.3233 93.359 73.8031L92.623 74.5211L94.065 75.9871L94.802 75.2691C95.0929 74.9874 95.4377 74.7674 95.8158 74.6223C96.1939 74.4773 96.5974 74.4102 97.002 74.4251C97.4322 74.4461 97.8529 74.5589 98.2359 74.7561C98.6188 74.9532 98.9551 75.2301 99.222 75.5681L99.856 76.3771L101.482 75.1071L100.847 74.2981C100.397 73.7265 99.8292 73.2581 99.1824 72.9248C98.5356 72.5915 97.8248 72.401 97.098 72.3661H97.093H97.088ZM84.596 87.1361L84.44 90.1901C84.238 90.3451 83.974 90.5811 83.461 90.7541C83.122 90.8681 82.811 90.8991 82.561 90.8341C82.378 90.7891 82.176 90.5711 81.971 90.3441C81.988 90.2181 81.988 90.2051 82.011 90.0451C82.069 89.6231 82.156 89.1051 82.184 88.9951L80.18 88.4931C80.088 88.8591 80.025 89.3231 79.963 89.7661C79.902 90.2091 79.853 90.5881 79.853 90.5881L79.811 90.9551L80.009 91.2621C80.543 92.0951 81.286 92.6301 82.049 92.8241C82.813 93.0181 83.533 92.9001 84.125 92.7001C85.018 92.4001 85.359 92.0541 85.643 91.8221C85.928 92.0541 86.268 92.3991 87.161 92.7001C87.753 92.9001 88.477 93.0181 89.241 92.8241C90.004 92.6301 90.747 92.0941 91.281 91.2621L91.479 90.9521L91.433 90.5881C91.433 90.5881 91.288 89.2171 91.11 88.4971L89.102 88.9911C89.145 89.1631 89.242 89.8791 89.308 90.3511C89.107 90.5711 88.909 90.7891 88.729 90.8351C88.479 90.8991 88.164 90.8681 87.825 90.7541C87.312 90.5811 87.048 90.3441 86.845 90.1901L86.693 87.1401L85.661 87.1891L84.596 87.1361Z" fill="black"/>
<path d="M85.6529 83.7351C85.0629 83.7351 84.6029 83.9051 84.2509 84.0231C83.8979 84.1421 83.6489 84.2101 83.5039 84.2101C83.0239 84.2101 82.5369 84.4851 82.2839 84.7871C82.0319 85.0891 81.9239 85.3791 81.8429 85.6421C81.6799 86.1641 81.5979 86.6541 81.5579 86.7591C81.3479 87.2951 81.5519 87.7041 81.6949 87.9481C81.8389 88.1911 82.0019 88.3681 82.1779 88.5441C82.5309 88.8971 82.9529 89.2331 83.3819 89.5461C83.9443 89.9524 84.522 90.3371 85.1139 90.6991L85.6529 91.0271L86.1909 90.6991C86.1909 90.6991 87.0609 90.1671 87.9179 89.5411C88.3469 89.2281 88.7699 88.8971 89.1219 88.5441C89.3088 88.3679 89.4713 88.1675 89.6049 87.9481C89.7479 87.7051 89.9419 87.2961 89.7369 86.7641C89.6969 86.6601 89.6199 86.1711 89.4569 85.6471C89.3769 85.3841 89.2729 85.0891 89.0209 84.7871C88.7689 84.4851 88.2779 84.2101 87.7969 84.2101C87.6489 84.2101 87.4019 84.1411 87.0499 84.0231C86.6969 83.9051 86.2399 83.7351 85.6529 83.7351ZM85.6529 85.7881C85.7879 85.7881 86.0349 85.8511 86.3889 85.9701C86.6589 86.0601 87.0569 86.1401 87.4609 86.1931C87.4739 86.2211 87.4659 86.1991 87.4809 86.2481C87.5339 86.4191 87.6209 86.7561 87.6949 87.0531C87.6759 87.0731 87.6829 87.0701 87.6589 87.0931C87.4489 87.3031 87.0769 87.6071 86.6939 87.8871C86.1889 88.2571 85.9539 88.3941 85.6529 88.5851C85.3519 88.3951 85.1129 88.2571 84.6059 87.8871C84.265 87.6447 83.9409 87.3794 83.6359 87.0931C83.6159 87.0731 83.6229 87.0761 83.6059 87.0581C83.6799 86.7581 83.7659 86.4201 83.8189 86.2481C83.8349 86.1981 83.8259 86.2211 83.8389 86.1931C84.2021 86.1505 84.5608 86.0759 84.9109 85.9701C85.2649 85.8521 85.5129 85.7881 85.6529 85.7881Z" fill="black"/>
<path d="M77.5546 82.4623C77.5546 80.4764 75.9758 78.8684 74.0251 78.8684C72.077 78.8684 70.4956 80.4764 70.4956 82.4623C70.4956 84.4483 72.077 86.0589 74.0251 86.0589C75.9758 86.0589 77.5546 84.4483 77.5546 82.4598V82.4623Z" fill="black" stroke="black" stroke-width="2.06052" stroke-linecap="square"/>
<path d="M74.5862 81.45C74.5862 80.46 73.8092 79.656 72.8522 79.656C71.8952 79.656 71.1172 80.461 71.1172 81.449C71.1172 82.441 71.8952 83.242 72.8522 83.242C73.8092 83.242 74.5862 82.442 74.5862 81.449V81.45Z" fill="white"/>
<path d="M73.7912 72.3659C73.0643 72.4007 72.3533 72.5911 71.7063 72.9244C71.0593 73.2578 70.4915 73.7261 70.0412 74.2979L69.4072 75.1079L71.0332 76.3769L71.6732 75.5669C71.9387 75.2284 72.2737 74.9508 72.6556 74.7529C73.0376 74.5551 73.4576 74.4415 73.8872 74.4199C74.2932 74.4049 74.6979 74.4725 75.077 74.6186C75.456 74.7647 75.8014 74.9863 76.0922 75.2699L76.8292 75.9869L78.2772 74.5209L77.5402 73.8029C77.0477 73.3229 76.4627 72.948 75.8208 72.701C75.1789 72.454 74.4935 72.34 73.8062 72.3659H73.7962H73.7912Z" fill="black"/>
<path d="M97.7932 81.684C97.7932 80.695 97.0162 79.894 96.0592 79.894C95.1022 79.894 94.3242 80.695 94.3242 81.684C94.3242 82.676 95.1022 83.477 96.0592 83.477C97.0162 83.477 97.7932 82.676 97.7932 81.684Z" fill="white"/>
<path d="M34.9258 100.446V103.186H68.0168V100.446H34.9258ZM54.1938 107.298V110.039H81.4438V107.299L54.1938 107.298Z" fill="black"/>
</svg>
