<svg width="128" height="128" viewBox="0 0 128 128" fill="none" xmlns="http://www.w3.org/2000/svg">
<path d="M44.1802 59.203C42.4452 59.203 41.1052 59.914 40.2932 61.211V59.285H37.8872V74.47H40.2932V68.49C41.1052 69.786 42.4452 70.497 44.2232 70.497C47.4032 70.497 49.4932 68.216 49.4932 64.892C49.4932 61.505 47.3362 59.204 44.1802 59.204V59.203ZM43.6802 68.445C41.6912 68.445 40.2932 66.961 40.2932 64.809C40.2932 62.715 41.6912 61.211 43.6802 61.211C45.6642 61.211 47.0662 62.738 47.0662 64.809C47.0662 66.941 45.6642 68.445 43.6802 68.445ZM56.7622 59.203C53.3122 59.203 50.9492 61.484 50.9492 64.852C50.9492 68.195 53.3132 70.496 56.7622 70.496C60.1922 70.496 62.5512 68.196 62.5512 64.852C62.5512 61.484 60.1912 59.203 56.7612 59.203H56.7622ZM56.7622 61.273C58.7462 61.273 60.1482 62.738 60.1482 64.871C60.1482 67.023 58.7462 68.488 56.7622 68.488C54.7542 68.488 53.3522 67.023 53.3522 64.871C53.3522 62.738 54.7542 61.273 56.7622 61.273ZM73.2582 54.895V61.211C72.4412 59.914 71.1052 59.184 69.3052 59.184C66.1682 59.184 64.0152 61.461 64.0152 64.809C64.0152 68.195 66.1482 70.516 69.3482 70.516C71.1252 70.516 72.4612 69.805 73.2582 68.508V70.41H75.6642V54.895H73.2582ZM69.8522 68.508C67.8202 68.508 66.4422 67.004 66.4222 64.891C66.4422 62.758 67.8442 61.231 69.8522 61.231C71.8552 61.231 73.2582 62.738 73.2582 64.891C73.2582 67.004 71.8552 68.508 69.8522 68.508Z" fill="#872B9E"/>
<path d="M93.824 59.2029C91.797 59.2029 90.313 60.0199 89.602 61.8789C89.078 60.1879 87.719 59.2029 85.734 59.2029C83.891 59.2029 82.473 59.8709 81.695 61.4409V59.2849H79.313V70.4149H81.695V64.9149C81.695 62.9689 82.867 61.5039 84.793 61.4409C86.422 61.4409 87.406 62.4649 87.406 64.1609V70.4109H89.809V64.9139C89.809 62.9689 90.961 61.5039 92.863 61.4409C94.493 61.4409 95.496 62.4649 95.496 64.1609V70.4109H97.902V63.4879C97.902 60.8359 96.375 59.2029 93.824 59.2029ZM110.152 70.4099L110.132 63.1129C110.109 60.6679 108.5 59.2029 105.637 59.2029C103.523 59.2029 102.395 59.6829 100.847 60.6049L101.832 62.2769C102.942 61.5229 104.047 61.1479 105.113 61.1479C106.871 61.1479 107.77 61.9839 107.77 63.3869V63.7189H104.402C101.727 63.7419 100.199 65.0389 100.199 67.0659C100.199 69.0309 101.707 70.5159 104.109 70.5159C105.719 70.5159 106.996 70.0359 107.789 69.0549V70.4099H110.152ZM104.613 68.6129C103.273 68.6129 102.457 67.9649 102.457 66.9609C102.457 65.8949 103.191 65.4769 104.757 65.4769H107.77V66.4999C107.645 67.7149 106.328 68.6129 104.613 68.6129ZM119.875 59.2029C117.992 59.2029 116.57 59.8709 115.777 61.4219V59.2849H113.371V70.4149H115.777V64.4919C115.945 62.7579 117.094 61.4839 118.934 61.4609C120.605 61.4609 121.609 62.4879 121.609 64.1609V70.4139H124.016V63.4879C124.016 60.8359 122.469 59.2029 119.875 59.2029Z" fill="#5E5E59"/>
<path d="M17.772 64.1641H24.8502M18.9517 65.6371H26.026" stroke="#3A6EB3" stroke-width="0.588512"/>
<path d="M24.0043 67.2893C22.528 64.8946 22.8561 62.5818 22.1608 59.2772C21.7738 57.2385 20.4811 55.5545 18.7975 54.9373C17.4108 54.4532 14.524 54.4532 13.301 54.9373C11.6174 55.5545 10.3202 57.2385 9.93772 59.2772C9.24242 62.5818 9.57055 64.8946 8.09424 67.2893" stroke="black" stroke-width="0.441583"/>
<path d="M20.535 62.484C20.535 62.066 20.219 61.73 19.825 61.73C19.43 61.73 19.109 62.066 19.109 62.484C19.109 62.898 19.429 63.234 19.824 63.234C20.219 63.234 20.535 62.898 20.535 62.484ZM13.324 62.484C13.324 62.066 13.004 61.73 12.609 61.73C12.215 61.73 11.895 62.066 11.895 62.484C11.895 62.898 12.215 63.234 12.609 63.234C13.004 63.234 13.324 62.898 13.324 62.484Z" fill="#E6E6E8"/>
<path d="M13.8515 62.0703L11.1992 62.7809M14.1526 62.4842L11.4849 64.0231M14.3758 62.9725L11.6723 65.6798M14.4888 63.6093L13.1058 66.0078" stroke="#A6A8AB" stroke-width="0.294343"/>
<path d="M18.7925 62.0703L21.4448 62.7809M18.4915 62.4842L21.1592 64.0231M18.2649 62.9725L20.9717 65.6798M18.1553 63.6093L19.5342 66.0078" stroke="#A6A8AB" stroke-width="0.294343"/>
<path d="M18.5785 61.9569C18.5785 60.7538 17.5551 59.7773 16.2892 59.7773C15.0233 59.7773 13.9961 60.7538 13.9961 61.9569C13.9961 63.1607 15.0233 64.1365 16.2892 64.1365C17.5551 64.1365 18.5785 63.16 18.5785 61.9569Z" fill="white" stroke="#5E5E59" stroke-width="0.441583" stroke-linecap="square"/>
<path d="M18.6915 60.0936C18.6915 59.4649 19.1879 58.9609 19.7975 58.9609C20.407 58.9609 20.8989 59.4649 20.8989 60.0943C20.8989 60.7186 20.4064 61.2263 19.7975 61.2263C19.1879 61.2263 18.6922 60.7186 18.6922 60.0936H18.6915Z" fill="black" stroke="#872B9E" stroke-width="0.441583" stroke-linecap="square"/>
<path d="M20.7856 57.7227C20.6744 57.5786 20.5333 57.4604 20.3721 57.3761C20.2109 57.2918 20.0334 57.2433 19.8518 57.2341C19.6803 57.2284 19.5095 57.2577 19.3497 57.3202C19.1899 57.3827 19.0445 57.4772 18.9224 57.5978" stroke="black" stroke-width="0.441583" stroke-linecap="square"/>
<path d="M16.2934 61.5821L16.3484 62.7066C16.3484 62.7066 17.2504 63.5156 17.778 62.6913C17.778 62.6913 17.7195 62.2188 17.6843 62.0705M16.2814 61.5815L16.2269 62.7072C16.2269 62.7072 15.325 63.5156 14.7974 62.6913C14.7974 62.6913 14.8559 62.2188 14.8911 62.0705" stroke="black" stroke-width="0.441515"/>
<path d="M17.2662 61.5626C17.1882 61.3635 17.1882 60.9652 16.9573 60.9652C16.727 60.9652 16.5159 60.8167 16.2856 60.8167C16.063 60.8167 15.8481 60.9652 15.6178 60.9652C15.3876 60.9652 15.3876 61.3635 15.3089 61.5626C15.2347 61.7617 16.2895 62.4104 16.2895 62.4104C16.2895 62.4104 17.3443 61.7617 17.2662 61.5626Z" fill="#7F7F7F" stroke="black" stroke-width="0.441583" stroke-linecap="square"/>
<path d="M13.7582 60.0936C13.7582 59.4649 13.2618 58.9609 12.6529 58.9609C12.0433 58.9609 11.5508 59.4649 11.5508 60.0943C11.5508 60.7186 12.0433 61.2263 12.6529 61.2263C13.2618 61.2263 13.7582 60.7186 13.7582 60.0936Z" fill="black" stroke="#872B9E" stroke-width="0.441583" stroke-linecap="square"/>
<path d="M12.8321 59.7729C12.8336 59.7003 12.8206 59.6281 12.7941 59.5605C12.7676 59.4929 12.7279 59.4312 12.6775 59.379C12.627 59.3268 12.5667 59.2851 12.5001 59.2562C12.4334 59.2274 12.3617 59.212 12.2891 59.2109C11.9891 59.2109 11.7461 59.4609 11.7461 59.7729C11.7461 60.0859 11.9881 60.3399 12.2891 60.3399C12.5891 60.3399 12.8321 60.0859 12.8321 59.7729Z" fill="white"/>
<path d="M11.6646 57.7227C11.7758 57.5788 11.9167 57.4606 12.0778 57.3763C12.2389 57.292 12.4163 57.2435 12.5978 57.2342C12.7687 57.2281 12.9391 57.2572 13.0983 57.3198C13.2576 57.3823 13.4022 57.477 13.5234 57.5979" stroke="black" stroke-width="0.441583" stroke-linecap="square"/>
<path d="M19.9728 59.7729C19.975 59.6265 19.9191 59.4852 19.8173 59.3799C19.7156 59.2746 19.5762 59.2138 19.4298 59.2109C19.3572 59.212 19.2855 59.2274 19.2189 59.2562C19.1522 59.2851 19.0919 59.3268 19.0415 59.379C18.991 59.4312 18.9514 59.4929 18.9248 59.5605C18.8983 59.6281 18.8854 59.7003 18.8868 59.7729C18.8868 60.0859 19.1288 60.3399 19.4298 60.3399C19.5769 60.3363 19.7165 60.2746 19.8182 60.1684C19.9199 60.0621 19.9755 59.92 19.9728 59.7729Z" fill="white"/>
<path d="M9.00244 67.2583H27.3154" stroke="#3A6EB3" stroke-width="0.588512"/>
<path d="M15.7856 70.4214C15.6646 69.5972 15.606 68.7028 15.3833 67.6518C15.1371 66.3471 14.3089 65.2725 13.2308 64.8784C12.3439 64.5698 10.4963 64.5698 9.71568 64.8784C8.63712 65.273 7.81263 66.3476 7.56689 67.6518C7.34425 68.7028 7.28557 69.6014 7.16455 70.4214" stroke="black" stroke-width="0.441624"/>
<path d="M14.3438 69.6951C14.3465 69.5709 14.3 69.4508 14.2143 69.3608C14.1287 69.2709 14.011 69.2185 13.8868 69.2151C13.8253 69.2165 13.7646 69.2301 13.7083 69.255C13.652 69.2799 13.6012 69.3157 13.5587 69.3603C13.5163 69.4048 13.483 69.4574 13.4609 69.5148C13.4388 69.5723 13.4282 69.6335 13.4298 69.6951C13.4298 69.9611 13.6328 70.1751 13.8868 70.1751C14.011 70.1717 14.1287 70.1193 14.2143 70.0294C14.3 69.9394 14.3465 69.8192 14.3438 69.6951Z" fill="#E6E6E8"/>
<path d="M9.72708 69.6951C9.7303 69.5713 9.68434 69.4513 9.59924 69.3613C9.51415 69.2713 9.39686 69.2188 9.27307 69.2151C9.21152 69.2165 9.15086 69.2301 9.09456 69.255C9.03826 69.2799 8.98742 69.3157 8.94497 69.3603C8.90252 69.4048 8.86928 69.4574 8.84716 69.5148C8.82504 69.5723 8.81448 69.6335 8.81608 69.6951C8.81608 69.9611 9.02007 70.1751 9.27307 70.1751C9.52307 70.1751 9.72708 69.9611 9.72708 69.6951Z" fill="#E6E6E8"/>
<path d="M10.0599 69.4292L8.36475 69.8863M10.2514 69.6948L8.54458 70.6794M10.396 70.0075L8.66556 71.7341M10.4701 70.4135L9.58361 71.9449" stroke="#A6A8AB" stroke-width="0.294433"/>
<path d="M13.2331 69.4292L14.9282 69.8863M13.0376 69.6948L14.7448 70.6794M12.897 70.0075L14.6274 71.7341M12.8229 70.4135L13.7057 71.9449" stroke="#A6A8AB" stroke-width="0.294433"/>
<path d="M13.0942 69.36C13.0942 68.59 12.4382 67.969 11.6252 67.969C10.8162 67.969 10.1602 68.589 10.1602 69.359C10.1602 70.129 10.8162 70.75 11.6252 70.75C12.4382 70.75 13.0942 70.129 13.0942 69.36Z" fill="white"/>
<path d="M13.0947 69.3589C13.0947 68.5892 12.4383 67.9683 11.6258 67.9683C10.817 67.9683 10.1606 68.5892 10.1606 69.3589C10.1606 70.1285 10.817 70.7494 11.6258 70.7494C12.4383 70.7494 13.0947 70.1285 13.0947 69.3589Z" stroke="#5E5E59" stroke-width="0.441624" stroke-linecap="square"/>
<path d="M13.1641 68.1681C13.1641 67.7701 13.4801 67.4451 13.8711 67.4451C14.2611 67.4451 14.5781 67.7701 14.5781 68.1681C14.5796 68.2623 14.5625 68.3558 14.5277 68.4434C14.4929 68.5309 14.4412 68.6108 14.3755 68.6783C14.3099 68.7458 14.2315 68.7997 14.1449 68.8369C14.0584 68.8741 13.9653 68.8939 13.8711 68.8951C13.7769 68.8939 13.6839 68.8741 13.5974 68.8369C13.5108 68.7997 13.4324 68.7458 13.3668 68.6783C13.3011 68.6108 13.2494 68.5309 13.2146 68.4434C13.1798 68.3558 13.1627 68.2623 13.1641 68.1681Z" fill="black"/>
<path d="M13.1647 68.1674C13.1647 67.7691 13.4811 67.4448 13.8719 67.4448C14.2627 67.4448 14.5786 67.7691 14.5786 68.1674C14.5786 68.5698 14.2627 68.8941 13.8719 68.8941C13.4811 68.8941 13.1652 68.5698 13.1652 68.1674H13.1647Z" stroke="#872B9E" stroke-width="0.441624" stroke-linecap="square"/>
<path d="M14.5042 66.6559C14.4324 66.5648 14.3418 66.4901 14.2388 66.4369C14.1357 66.3837 14.0224 66.3531 13.9065 66.3473C13.797 66.3423 13.6876 66.3602 13.5854 66.3999C13.4832 66.4396 13.3904 66.5002 13.313 66.5778" stroke="black" stroke-width="0.441624" stroke-linecap="square"/>
<path d="M11.6234 69.1208L11.6587 69.8392C11.6587 69.8392 12.2367 70.3551 12.5727 69.8279C12.5727 69.8279 12.5375 69.5268 12.5142 69.4292M11.6158 69.1208L11.5806 69.8392C11.5806 69.8392 11.0026 70.3551 10.6665 69.8279C10.6665 69.8279 10.7017 69.5268 10.729 69.4292" stroke="black" stroke-width="0.441469"/>
<path d="M12.2539 69.1101C12.2039 68.9801 12.2039 68.7271 12.0539 68.7271C11.9059 68.7271 11.7739 68.6331 11.6249 68.6331C11.4799 68.6331 11.3439 68.7271 11.1989 68.7271C11.0509 68.7271 11.0509 68.9801 10.9999 69.1091C10.9529 69.2341 11.6249 69.6491 11.6249 69.6491C11.6249 69.6491 12.3009 69.2341 12.2539 69.1091V69.1101Z" fill="#7F7F7F"/>
<path d="M12.2545 69.1089C12.2037 68.98 12.2036 68.7259 12.0554 68.7259C11.9066 68.7259 11.7736 68.6321 11.6258 68.6321C11.4812 68.6321 11.344 68.7259 11.1999 68.7259C11.0512 68.7259 11.0512 68.98 11.0004 69.1089C10.9537 69.2336 11.6258 69.648 11.6258 69.648C11.6258 69.648 12.3016 69.2341 12.2545 69.1089Z" stroke="black" stroke-width="0.441624" stroke-linecap="square"/>
<path d="M10.0082 68.1681C10.0092 68.0742 9.9918 67.981 9.95684 67.8938C9.92188 67.8067 9.87009 67.7273 9.80444 67.6601C9.73879 67.593 9.66056 67.5394 9.57421 67.5025C9.48786 67.4656 9.39509 67.4461 9.30119 67.4451C9.11225 67.4482 8.93225 67.5261 8.80052 67.6615C8.66879 67.797 8.59605 67.9791 8.59819 68.1681C8.59819 68.5701 8.91419 68.8951 9.30119 68.8951C9.69119 68.8951 10.0082 68.5701 10.0082 68.1681Z" fill="black"/>
<path d="M10.0084 68.1674C10.0084 67.7691 9.69199 67.4448 9.30168 67.4448C8.91506 67.4448 8.59863 67.7691 8.59863 68.1674C8.59863 68.5698 8.91506 68.8941 9.30168 68.8941C9.69199 68.8941 10.0084 68.5698 10.0084 68.1674Z" stroke="#872B9E" stroke-width="0.441624" stroke-linecap="square"/>
<path d="M9.4138 67.965C9.4138 67.765 9.2578 67.605 9.0658 67.605C8.97209 67.6068 8.88292 67.6457 8.81787 67.7132C8.75282 67.7807 8.7172 67.8713 8.7188 67.965C8.7188 68.165 8.8748 68.328 9.0658 68.328C9.15996 68.3256 9.24938 68.2861 9.31456 68.2181C9.37974 68.1502 9.41541 68.0592 9.4138 67.965Z" fill="white"/>
<path d="M8.66846 66.6558C8.74034 66.5648 8.83086 66.4901 8.93395 66.4369C9.03703 66.3837 9.15031 66.3531 9.26617 66.3472C9.48465 66.3357 9.70359 66.4211 9.85971 66.5778" stroke="black" stroke-width="0.441624" stroke-linecap="square"/>
<path d="M14.0271 68.016C14.0284 67.9698 14.0205 67.9238 14.004 67.8806C13.9874 67.8374 13.9625 67.798 13.9306 67.7645C13.8987 67.731 13.8605 67.7042 13.8182 67.6856C13.7759 67.667 13.7303 67.6569 13.6841 67.656C13.6374 67.6564 13.5914 67.6661 13.5485 67.6844C13.5057 67.7028 13.467 67.7295 13.4346 67.763C13.4022 67.7966 13.3768 67.8362 13.3599 67.8796C13.343 67.923 13.3349 67.9694 13.3361 68.016C13.3361 68.215 13.4881 68.379 13.6841 68.379C13.7776 68.3761 13.8662 68.3363 13.9305 68.2683C13.9948 68.2003 14.0295 68.1096 14.0271 68.016Z" fill="white"/>
<path d="M16.6546 77.8209L5.91991 72.6879L3.24072 61.0824L10.6315 51.7465L22.5258 51.7109L29.9711 61.0006L27.3581 72.6217L16.6546 77.8209Z" stroke="#872B9E" stroke-width="0.588512" stroke-linecap="round" stroke-linejoin="round"/>
<path d="M6.354 69.6143H17.3818M11.5923 71.8205H26.8894" stroke="#3A6EB3" stroke-width="0.588512"/>
<path d="M25.7097 71.5388C25.5807 70.6599 25.5145 69.703 25.2759 68.5776C25.0145 67.183 24.1318 66.0348 22.9788 65.617C22.0299 65.2849 20.0576 65.2849 19.2177 65.617C18.0692 66.0348 17.1821 67.183 16.9207 68.5776C16.6826 69.703 16.6203 70.6599 16.4907 71.5427" stroke="black" stroke-width="0.441662"/>
<path d="M24.1641 70.762C24.167 70.6295 24.1173 70.5011 24.0258 70.4052C23.9344 70.3092 23.8086 70.2534 23.6761 70.25C23.6104 70.2516 23.5457 70.266 23.4856 70.2926C23.4255 70.3192 23.3713 70.3573 23.326 70.4049C23.2807 70.4524 23.2451 70.5085 23.2215 70.5697C23.1978 70.631 23.1865 70.6963 23.1881 70.762C23.1881 71.047 23.4061 71.277 23.6761 71.277C23.9461 71.277 24.1641 71.047 24.1641 70.762ZM19.2301 70.762C19.233 70.6295 19.1833 70.5011 19.0918 70.4052C19.0004 70.3092 18.8746 70.2534 18.7421 70.25C18.6764 70.2516 18.6117 70.266 18.5516 70.2926C18.4915 70.3192 18.4373 70.3573 18.392 70.4049C18.3467 70.4524 18.3111 70.5085 18.2875 70.5697C18.2638 70.631 18.2525 70.6963 18.2541 70.762C18.2541 71.047 18.4731 71.277 18.7421 71.277C19.0121 71.277 19.2301 71.047 19.2301 70.762Z" fill="#E6E6E8"/>
<path d="M19.5863 70.4807L17.7739 70.9652M19.7933 70.7619L17.9689 71.8166" stroke="#A6A8AB" stroke-width="0.294218"/>
<path d="M22.9723 70.4802L24.7886 70.9643M22.7688 70.7614L24.5932 71.8161" stroke="#A6A8AB" stroke-width="0.294218"/>
<path d="M22.8308 70.4022C22.8308 69.5817 22.1278 68.9175 21.2646 68.9175C20.3969 68.9175 19.6938 69.5817 19.6938 70.4022C19.6938 71.2261 20.3975 71.8903 21.2646 71.8903C22.1278 71.8903 22.8308 71.2261 22.8308 70.4022Z" fill="white" stroke="#5E5E59" stroke-width="0.441662" stroke-linecap="square"/>
<path d="M22.9086 69.1324C22.9086 68.7068 23.2446 68.3591 23.6628 68.3591C24.0766 68.3591 24.4165 68.7068 24.4165 69.1324C24.4165 69.5585 24.0772 69.9056 23.6628 69.9056C23.2446 69.9056 22.9086 69.5585 22.9086 69.1324Z" fill="black" stroke="#872B9E" stroke-width="0.441662" stroke-linecap="square"/>
<path d="M24.3386 67.5152C24.2627 67.4172 24.1665 67.3367 24.0566 67.2794C23.9466 67.2221 23.8256 67.1892 23.7018 67.1831C23.5844 67.1783 23.4673 67.1977 23.3577 67.2401C23.2482 67.2825 23.1485 67.347 23.0649 67.4295" stroke="black" stroke-width="0.441662" stroke-linecap="square"/>
<path d="M21.2579 70.1477L21.2967 70.9173C21.2967 70.9173 21.9143 71.468 22.2736 70.9056C22.2736 70.9056 22.2343 70.5814 22.2072 70.4797M21.2501 70.1477L21.2112 70.9173C21.2112 70.9173 20.5937 71.468 20.2344 70.9056C20.2344 70.9056 20.2732 70.5814 20.3004 70.4797" stroke="black" stroke-width="0.441326"/>
<path d="M21.9328 70.1363C21.8777 69.9995 21.8777 69.7263 21.7214 69.7263C21.5657 69.7263 21.4172 69.6245 21.2648 69.6245C21.1085 69.6245 20.9639 69.7263 20.8037 69.7263C20.648 69.7263 20.6479 69.9995 20.5923 70.1363C20.5423 70.2693 21.2648 70.7149 21.2648 70.7149C21.2648 70.7149 21.9834 70.2693 21.9322 70.1363H21.9328Z" fill="#7F7F7F" stroke="black" stroke-width="0.441662" stroke-linecap="square"/>
<path d="M19.5303 69.1324C19.5303 68.7068 19.1938 68.3591 18.7761 68.3591C18.3584 68.3591 18.0225 68.7068 18.0225 69.1324C18.0225 69.5585 18.3584 69.9056 18.7761 69.9056C19.1938 69.9056 19.5298 69.5585 19.5298 69.1324H19.5303Z" fill="black" stroke="#872B9E" stroke-width="0.441662" stroke-linecap="square"/>
<path d="M18.8949 68.914C18.896 68.814 18.8575 68.7176 18.7878 68.6459C18.7181 68.5741 18.6229 68.5328 18.5229 68.531C18.4734 68.5318 18.4246 68.5423 18.3792 68.562C18.3338 68.5817 18.2928 68.6101 18.2584 68.6457C18.224 68.6813 18.197 68.7233 18.1789 68.7693C18.1608 68.8154 18.152 68.8645 18.1529 68.914C18.1529 69.129 18.3159 69.301 18.5229 69.301C18.6235 69.2989 18.7192 69.257 18.7889 69.1844C18.8587 69.1119 18.8968 69.0146 18.8949 68.914Z" fill="white"/>
<path d="M18.1006 67.5151C18.2563 67.316 18.4872 67.1947 18.7374 67.183C18.8548 67.1785 18.9718 67.1981 19.0813 67.2405C19.1908 67.2828 19.2905 67.3471 19.3743 67.4294" stroke="black" stroke-width="0.441662" stroke-linecap="square"/>
<path d="M23.8549 68.965C23.8558 68.9156 23.8469 68.8664 23.8288 68.8204C23.8107 68.7743 23.7837 68.7323 23.7493 68.6967C23.715 68.6612 23.6739 68.6327 23.6285 68.613C23.5831 68.5933 23.5343 68.5828 23.4849 68.582C23.3849 68.5839 23.2897 68.6252 23.22 68.6969C23.1503 68.7686 23.1118 68.865 23.1129 68.965C23.111 69.0655 23.149 69.1626 23.2185 69.2351C23.288 69.3076 23.3834 69.3497 23.4839 69.352C23.5337 69.3513 23.5829 69.3406 23.6286 69.3207C23.6743 69.3008 23.7156 69.272 23.7501 69.236C23.7846 69.2 23.8117 69.1575 23.8296 69.111C23.8476 69.0645 23.8562 69.0149 23.8549 68.965Z" fill="white"/>
<path d="M10.4165 73.2898H17.4914M14.5379 74.7623H20.3619" stroke="#3A6EB3" stroke-width="0.588512"/>
</svg>
