<svg width="128" height="128" viewBox="0 0 128 128" fill="none" xmlns="http://www.w3.org/2000/svg">
<path d="M44.1802 59.203C42.4452 59.203 41.1052 59.914 40.2932 61.211V59.285H37.8872V74.47H40.2932V68.49C41.1052 69.786 42.4452 70.497 44.2232 70.497C47.4032 70.497 49.4932 68.216 49.4932 64.892C49.4932 61.505 47.3362 59.204 44.1802 59.204V59.203ZM43.6802 68.445C41.6912 68.445 40.2932 66.961 40.2932 64.809C40.2932 62.715 41.6912 61.211 43.6802 61.211C45.6642 61.211 47.0662 62.738 47.0662 64.809C47.0662 66.941 45.6642 68.445 43.6802 68.445ZM56.7622 59.203C53.3122 59.203 50.9492 61.484 50.9492 64.852C50.9492 68.195 53.3132 70.496 56.7622 70.496C60.1922 70.496 62.5512 68.196 62.5512 64.852C62.5512 61.484 60.1912 59.203 56.7612 59.203H56.7622ZM56.7622 61.273C58.7462 61.273 60.1482 62.738 60.1482 64.871C60.1482 67.023 58.7462 68.488 56.7622 68.488C54.7542 68.488 53.3522 67.023 53.3522 64.871C53.3522 62.738 54.7542 61.273 56.7622 61.273ZM73.2582 54.895V61.211C72.4412 59.914 71.1052 59.184 69.3052 59.184C66.1682 59.184 64.0152 61.461 64.0152 64.809C64.0152 68.195 66.1482 70.516 69.3482 70.516C71.1252 70.516 72.4612 69.805 73.2582 68.508V70.41H75.6642V54.895H73.2582ZM69.8522 68.508C67.8202 68.508 66.4422 67.004 66.4222 64.891C66.4422 62.758 67.8442 61.231 69.8522 61.231C71.8552 61.231 73.2582 62.738 73.2582 64.891C73.2582 67.004 71.8552 68.508 69.8522 68.508ZM93.8242 59.203C91.7972 59.203 90.3132 60.02 89.6022 61.879C89.0782 60.188 87.7192 59.203 85.7342 59.203C83.8912 59.203 82.4732 59.871 81.6952 61.441V59.285H79.3132V70.415H81.6952V64.915C81.6952 62.969 82.8672 61.504 84.7932 61.441C86.4222 61.441 87.4062 62.465 87.4062 64.161V70.411H89.8092V64.914C89.8092 62.969 90.9612 61.504 92.8632 61.441C94.4932 61.441 95.4962 62.465 95.4962 64.161V70.411H97.9022V63.488C97.9022 60.836 96.3752 59.203 93.8242 59.203ZM110.152 70.41L110.132 63.113C110.109 60.668 108.5 59.203 105.637 59.203C103.523 59.203 102.395 59.683 100.847 60.605L101.832 62.277C102.942 61.523 104.047 61.148 105.113 61.148C106.871 61.148 107.77 61.984 107.77 63.387V63.719H104.402C101.727 63.742 100.199 65.039 100.199 67.066C100.199 69.031 101.707 70.516 104.109 70.516C105.719 70.516 106.996 70.036 107.789 69.055V70.41H110.152ZM104.613 68.613C103.273 68.613 102.457 67.965 102.457 66.961C102.457 65.895 103.191 65.477 104.757 65.477H107.77V66.5C107.645 67.715 106.328 68.613 104.613 68.613ZM119.875 59.203C117.992 59.203 116.57 59.871 115.777 61.422V59.285H113.371V70.415H115.777V64.492C115.945 62.758 117.094 61.484 118.934 61.461C120.605 61.461 121.609 62.488 121.609 64.161V70.414H124.016V63.488C124.016 60.836 122.469 59.203 119.875 59.203Z" fill="black"/>
<path d="M17.772 64.1641H24.8502M18.9517 65.6371H26.026" stroke="black" stroke-width="0.588512"/>
<path fill-rule="evenodd" clip-rule="evenodd" d="M15.9878 54.353C14.9228 54.353 13.8868 54.468 13.2198 54.732C11.4528 55.382 10.1178 57.13 9.72176 59.232L9.71976 59.237C9.36976 60.903 9.27776 62.316 9.08976 63.592C8.90276 64.87 8.62376 66.01 7.90576 67.174L8.28276 67.405C9.04076 66.175 9.33576 64.959 9.52676 63.656C9.71776 62.353 9.80976 60.958 10.1538 59.323V59.318C10.5238 57.347 11.7808 55.73 13.3768 55.145L13.3798 55.143H13.3818C13.9388 54.923 14.9568 54.796 15.9878 54.796C17.0188 54.796 18.0758 54.92 18.7238 55.146C20.3188 55.732 21.5698 57.348 21.9438 59.319L21.9448 59.32V59.323C22.2888 60.958 22.3798 62.353 22.5708 63.656C22.7618 64.959 23.0578 66.175 23.8158 67.406L24.1928 67.174C23.4748 66.01 23.1958 64.87 23.0078 63.592C22.8208 62.314 22.7278 60.901 22.3778 59.232V59.237C21.9778 57.131 20.6438 55.379 18.8728 54.729H18.8708C18.1318 54.472 17.0528 54.353 15.9878 54.353Z" fill="black"/>
<path d="M20.535 62.484C20.535 62.066 20.219 61.73 19.825 61.73C19.43 61.73 19.109 62.066 19.109 62.484C19.109 62.898 19.429 63.234 19.824 63.234C20.219 63.234 20.535 62.898 20.535 62.484ZM13.324 62.484C13.324 62.066 13.004 61.73 12.609 61.73C12.215 61.73 11.895 62.066 11.895 62.484C11.895 62.898 12.215 63.234 12.609 63.234C13.004 63.234 13.324 62.898 13.324 62.484Z" fill="#E6E6E8"/>
<path d="M13.8141 61.928L11.1621 62.638L11.2371 62.923L13.8891 62.213L13.8141 61.928ZM14.0791 62.357L11.4111 63.895L11.5591 64.151L14.2271 62.611L14.0791 62.357ZM14.2721 62.868L11.5691 65.575L11.7761 65.785L14.4801 63.077L14.2721 62.868ZM14.3621 63.536L12.9791 65.934L13.2341 66.082L14.6161 63.683L14.3621 63.536ZM18.8301 61.928L21.4821 62.638L21.4071 62.923L18.7551 62.213L18.8301 61.928ZM18.5651 62.357L21.2331 63.895L21.0851 64.151L18.4171 62.611L18.5651 62.357ZM18.3691 62.868L21.0751 65.575L20.8681 65.785L18.1611 63.077L18.3691 62.868ZM18.2821 63.536L19.6621 65.934L19.4071 66.081L18.0281 63.682L18.2821 63.536Z" fill="black"/>
<path d="M16.2899 59.5569C14.9099 59.5569 13.7759 60.6269 13.7759 61.9569C13.7759 63.2869 14.9099 64.3569 16.2889 64.3569C17.6689 64.3569 18.7989 63.2849 18.7989 61.9569C18.7989 60.6279 17.6689 59.5569 16.2889 59.5569H16.2899ZM16.2899 59.9979C17.4419 59.9979 18.3579 60.8779 18.3579 61.9569C18.3579 63.0339 17.4419 63.9169 16.2889 63.9169C15.1369 63.9169 14.2169 63.0339 14.2169 61.9569C14.2169 60.8789 15.1369 59.9979 16.2889 59.9979H16.2899Z" fill="black"/>
<path d="M18.6915 60.0936C18.6915 59.4649 19.1879 58.9609 19.7975 58.9609C20.407 58.9609 20.8989 59.4649 20.8989 60.0943C20.8989 60.7186 20.4064 61.2263 19.7975 61.2263C19.1879 61.2263 18.6922 60.7186 18.6922 60.0936H18.6915Z" fill="black" stroke="black" stroke-width="0.441583" stroke-linecap="square"/>
<path d="M19.8589 57.013C19.6573 57.0064 19.4565 57.041 19.2688 57.1145C19.081 57.1881 18.9103 57.2992 18.7669 57.441L18.6109 57.596L18.9209 57.91L19.0769 57.755C19.2799 57.554 19.5569 57.447 19.8409 57.455C20.1439 57.472 20.4249 57.618 20.6109 57.858L20.7459 58.032L21.0959 57.762L20.9609 57.587C20.8299 57.4177 20.6639 57.2788 20.4742 57.1797C20.2845 57.0806 20.0756 57.0238 19.8619 57.013H19.8589ZM16.0609 61.57L16.0119 62.582C15.9629 62.622 15.8399 62.731 15.6389 62.799C15.5299 62.8409 15.4112 62.8506 15.2969 62.827C15.2089 62.805 15.1209 62.727 15.0319 62.612C15.0479 62.489 15.0869 62.202 15.1059 62.121L14.6759 62.019C14.6346 62.2326 14.6019 62.4478 14.5779 62.664L14.5679 62.743L14.6109 62.81C14.7395 63.0271 14.9463 63.1867 15.1889 63.256C15.4029 63.31 15.6079 63.276 15.7809 63.216C16.0749 63.116 16.2289 62.972 16.2869 62.922C16.3469 62.972 16.4999 63.116 16.7939 63.217C16.9669 63.276 17.1719 63.31 17.3859 63.256C17.6285 63.1868 17.8354 63.0271 17.9639 62.81L18.0069 62.743L17.9969 62.663C17.9969 62.663 17.9469 62.216 17.8989 62.019L17.4699 62.121C17.4899 62.203 17.5269 62.489 17.5429 62.611C17.4529 62.727 17.3659 62.805 17.2779 62.827C17.1635 62.8506 17.0448 62.8409 16.9359 62.799C16.7359 62.731 16.6129 62.622 16.5639 62.582L16.5139 61.572L16.2929 61.582L16.0609 61.57Z" fill="black"/>
<path d="M16.2858 60.5959C16.1258 60.5959 15.9948 60.6439 15.8848 60.6809C15.799 60.7152 15.7088 60.7368 15.6168 60.7449C15.559 60.7468 15.5022 60.7606 15.45 60.7856C15.3979 60.8105 15.3515 60.8461 15.3138 60.8899C15.2588 60.959 15.2186 61.0387 15.1958 61.1239C15.1488 61.2759 15.1248 61.4289 15.1038 61.4809L15.1018 61.4839V61.4849C15.0558 61.6089 15.1018 61.7049 15.1398 61.7689C15.1775 61.8298 15.2229 61.8856 15.2748 61.9349C15.3778 62.0389 15.5088 62.1419 15.6408 62.2389C15.9048 62.4329 16.1738 62.5979 16.1738 62.5979L16.2888 62.6689L16.4038 62.5979C16.4038 62.5979 16.6738 62.4329 16.9378 62.2389C17.0698 62.1419 17.2008 62.0389 17.3038 61.9339C17.3552 61.8847 17.3999 61.8289 17.4368 61.7679C17.4649 61.7263 17.4826 61.6785 17.4885 61.6286C17.4944 61.5786 17.4883 61.528 17.4708 61.4809C17.4508 61.4279 17.4268 61.2759 17.3798 61.1239C17.3568 61.0379 17.3163 60.9576 17.2608 60.8879C17.2229 60.8444 17.1765 60.8092 17.1243 60.7846C17.0722 60.76 17.0154 60.7465 16.9578 60.7449C16.8665 60.7367 16.7769 60.7151 16.6918 60.6809C16.5818 60.6439 16.4478 60.5959 16.2858 60.5959ZM16.2858 61.0369C16.3764 61.0449 16.4653 61.0661 16.5498 61.0999C16.6518 61.1339 16.7798 61.1729 16.9248 61.1799C16.9298 61.1869 16.9448 61.2099 16.9578 61.2549C16.9818 61.3319 17.0058 61.4499 17.0398 61.5649C17.0253 61.5864 17.0085 61.6061 16.9898 61.6239C16.8916 61.7174 16.787 61.804 16.6768 61.8829C16.4878 62.0209 16.3698 62.0929 16.2888 62.1439C16.2088 62.0939 16.0908 62.0219 15.9018 61.8829C15.7909 61.8036 15.6857 61.7168 15.5868 61.6229C15.5678 61.6044 15.5505 61.5843 15.5348 61.5629C15.5678 61.4489 15.5928 61.3319 15.6168 61.2549C15.6245 61.2283 15.6356 61.2028 15.6498 61.1789C15.7948 61.1719 15.9228 61.1339 16.0248 61.0989C16.1081 61.0661 16.1956 61.0452 16.2848 61.0369H16.2858ZM15.5158 61.6339C15.5148 61.6379 15.5178 61.6349 15.5158 61.6399L15.5138 61.6439C15.5148 61.6399 15.5138 61.6379 15.5158 61.6339Z" fill="black"/>
<path d="M13.7582 60.0936C13.7582 59.4649 13.2618 58.9609 12.6529 58.9609C12.0433 58.9609 11.5508 59.4649 11.5508 60.0943C11.5508 60.7186 12.0433 61.2263 12.6529 61.2263C13.2618 61.2263 13.7582 60.7186 13.7582 60.0936Z" fill="black" stroke="black" stroke-width="0.441583" stroke-linecap="square"/>
<path d="M12.8321 59.7729C12.8336 59.7003 12.8206 59.6281 12.7941 59.5605C12.7676 59.4929 12.7279 59.4312 12.6775 59.379C12.627 59.3268 12.5667 59.2851 12.5001 59.2562C12.4334 59.2274 12.3617 59.212 12.2891 59.2109C11.9891 59.2109 11.7461 59.4609 11.7461 59.7729C11.7461 60.0859 11.9881 60.3399 12.2891 60.3399C12.5891 60.3399 12.8321 60.0859 12.8321 59.7729Z" fill="white"/>
<path d="M12.586 57.0131C12.3728 57.0242 12.1647 57.0812 11.9756 57.1803C11.7866 57.2794 11.6213 57.4181 11.491 57.5871L11.356 57.7621L11.704 58.0321L11.839 57.8581C11.9304 57.7393 12.0465 57.6417 12.1793 57.572C12.312 57.5022 12.4582 57.462 12.608 57.4541C12.892 57.4441 13.166 57.5541 13.368 57.7541L13.525 57.9101L13.835 57.5971L13.68 57.4421C13.5374 57.2997 13.367 57.1881 13.1795 57.1143C12.992 57.0405 12.7913 57.0061 12.59 57.0131H12.589H12.586Z" fill="black"/>
<path d="M19.9728 59.7729C19.975 59.6265 19.9191 59.4852 19.8173 59.3799C19.7156 59.2746 19.5762 59.2138 19.4298 59.2109C19.3572 59.212 19.2855 59.2274 19.2189 59.2562C19.1522 59.2851 19.0919 59.3268 19.0415 59.379C18.991 59.4312 18.9514 59.4929 18.9248 59.5605C18.8983 59.6281 18.8854 59.7003 18.8868 59.7729C18.8868 60.0859 19.1288 60.3399 19.4298 60.3399C19.5769 60.3363 19.7165 60.2746 19.8182 60.1684C19.9199 60.0621 19.9755 59.92 19.9728 59.7729Z" fill="white"/>
<path d="M9.00244 67.2583H27.3154" stroke="black" stroke-width="0.588512"/>
<path d="M11.4338 64.426C10.7478 64.426 10.0838 64.498 9.6378 64.673C8.4738 65.101 7.6078 66.241 7.3498 67.61V67.611C7.1248 68.677 7.0648 69.584 6.9458 70.39L7.3828 70.454C7.5058 69.621 7.5628 68.732 7.7828 67.698V67.693C8.0168 66.455 8.8008 65.448 9.7918 65.086L9.7948 65.085L9.7968 65.084C10.1318 64.951 10.7808 64.868 11.4338 64.868C12.0858 64.868 12.7568 64.948 13.1548 65.086H13.1558C14.1458 65.449 14.9328 66.456 15.1658 67.693L15.1668 67.695V67.698C15.3868 68.732 15.4448 69.617 15.5668 70.454L16.0038 70.39C15.8848 69.58 15.8248 68.677 15.5998 67.611C15.3408 66.239 14.4718 65.097 13.3068 64.671H13.3048L13.3028 64.67C12.8148 64.5 12.1208 64.426 11.4328 64.426H11.4338Z" fill="black"/>
<path d="M14.3438 69.6951C14.3465 69.5709 14.3 69.4508 14.2143 69.3608C14.1287 69.2709 14.011 69.2185 13.8868 69.2151C13.8253 69.2165 13.7646 69.2301 13.7083 69.255C13.652 69.2799 13.6012 69.3157 13.5587 69.3603C13.5163 69.4048 13.483 69.4574 13.4609 69.5148C13.4388 69.5723 13.4282 69.6335 13.4298 69.6951C13.4298 69.9611 13.6328 70.1751 13.8868 70.1751C14.011 70.1717 14.1287 70.1193 14.2143 70.0294C14.3 69.9394 14.3465 69.8192 14.3438 69.6951Z" fill="#E6E6E8"/>
<path d="M9.72708 69.6951C9.7303 69.5713 9.68434 69.4513 9.59924 69.3613C9.51415 69.2713 9.39686 69.2188 9.27307 69.2151C9.21152 69.2165 9.15086 69.2301 9.09456 69.255C9.03826 69.2799 8.98742 69.3157 8.94497 69.3603C8.90252 69.4048 8.86928 69.4574 8.84716 69.5148C8.82504 69.5723 8.81448 69.6335 8.81608 69.6951C8.81608 69.9611 9.02007 70.1751 9.27307 70.1751C9.52307 70.1751 9.72708 69.9611 9.72708 69.6951Z" fill="#E6E6E8"/>
<path d="M10.0599 69.4292L8.36475 69.8863M10.2514 69.6948L8.54458 70.6794M10.396 70.0075L8.66556 71.7341M10.4701 70.4135L9.58361 71.9449" stroke="#A6A8AB" stroke-width="0.294433"/>
<path d="M13.2331 69.4292L14.9282 69.8863M13.0376 69.6948L14.7448 70.6794M12.897 70.0075L14.6274 71.7341M12.8229 70.4135L13.7057 71.9449" stroke="#A6A8AB" stroke-width="0.294433"/>
<path d="M13.0942 69.36C13.0942 68.59 12.4382 67.969 11.6252 67.969C10.8162 67.969 10.1602 68.589 10.1602 69.359C10.1602 70.129 10.8162 70.75 11.6252 70.75C12.4382 70.75 13.0942 70.129 13.0942 69.36Z" fill="white"/>
<path d="M11.6259 67.748C10.7039 67.748 9.93994 68.464 9.93994 69.359C9.93994 70.254 10.7039 70.971 11.6259 70.971C12.5509 70.971 13.3159 70.254 13.3159 69.359C13.3159 68.464 12.5509 67.748 11.6259 67.748ZM11.6259 68.188C12.3259 68.188 12.8739 68.715 12.8739 69.359C12.8739 70.003 12.3259 70.529 11.6259 70.529C10.9299 70.529 10.3809 70.003 10.3809 69.359C10.3809 68.715 10.9309 68.189 11.6259 68.189V68.188Z" fill="black"/>
<path d="M13.1641 68.1681C13.1641 67.7701 13.4801 67.4451 13.8711 67.4451C14.2611 67.4451 14.5781 67.7701 14.5781 68.1681C14.5796 68.2623 14.5625 68.3558 14.5277 68.4434C14.4929 68.5309 14.4412 68.6108 14.3755 68.6783C14.3099 68.7458 14.2315 68.7997 14.1449 68.8369C14.0584 68.8741 13.9653 68.8939 13.8711 68.8951C13.7769 68.8939 13.6839 68.8741 13.5974 68.8369C13.5108 68.7997 13.4324 68.7458 13.3668 68.6783C13.3011 68.6108 13.2494 68.5309 13.2146 68.4434C13.1798 68.3558 13.1627 68.2623 13.1641 68.1681Z" fill="black"/>
<path d="M13.1647 68.1674C13.1647 67.7691 13.4811 67.4448 13.8719 67.4448C14.2627 67.4448 14.5786 67.7691 14.5786 68.1674C14.5786 68.5698 14.2627 68.8941 13.8719 68.8941C13.4811 68.8941 13.1652 68.5698 13.1652 68.1674H13.1647Z" stroke="black" stroke-width="0.441624" stroke-linecap="square"/>
<path d="M13.917 66.127C13.7767 66.1206 13.6367 66.1436 13.5059 66.1944C13.375 66.2452 13.2562 66.3227 13.157 66.422L13.001 66.578L13.313 66.89L13.469 66.733C13.5247 66.6772 13.5915 66.6336 13.665 66.6051C13.7385 66.5765 13.8172 66.5635 13.896 66.567C13.9804 66.5714 14.0629 66.5939 14.138 66.6329C14.213 66.6719 14.2788 66.7265 14.331 66.793L14.468 66.966L14.814 66.692L14.678 66.519C14.5865 66.4034 14.4714 66.3086 14.3403 66.241C14.2092 66.1734 14.0653 66.1345 13.918 66.127H13.917Z" fill="black"/>
<path d="M11.6234 69.1208L11.6587 69.8392C11.6587 69.8392 12.2367 70.3551 12.5727 69.8279C12.5727 69.8279 12.5375 69.5268 12.5142 69.4292M11.6158 69.1208L11.5806 69.8392C11.5806 69.8392 11.0026 70.3551 10.6665 69.8279C10.6665 69.8279 10.7017 69.5268 10.729 69.4292" stroke="black" stroke-width="0.441469"/>
<path d="M12.2539 69.1101C12.2039 68.9801 12.2039 68.7271 12.0539 68.7271C11.9059 68.7271 11.7739 68.6331 11.6249 68.6331C11.4799 68.6331 11.3439 68.7271 11.1989 68.7271C11.0509 68.7271 11.0509 68.9801 10.9999 69.1091C10.9529 69.2341 11.6249 69.6491 11.6249 69.6491C11.6249 69.6491 12.3009 69.2341 12.2539 69.1091V69.1101Z" fill="#7F7F7F"/>
<path d="M11.6259 68.4121C11.5059 68.4121 11.4129 68.4461 11.3429 68.4691C11.2969 68.4874 11.2489 68.4998 11.1999 68.5061C11.1513 68.5078 11.1036 68.5193 11.0596 68.5399C11.0156 68.5605 10.9763 68.5899 10.9439 68.6261C10.9015 68.6781 10.8705 68.7384 10.8529 68.8031C10.8189 68.9111 10.8029 69.0101 10.7949 69.0281V69.0301L10.7929 69.0321C10.7773 69.0732 10.772 69.1174 10.7774 69.1609C10.7828 69.2045 10.7988 69.2461 10.8239 69.2821C10.8512 69.3262 10.8842 69.3665 10.9219 69.4021C10.9939 69.4741 11.0789 69.5401 11.1649 69.6021C11.3369 69.7291 11.5099 69.8361 11.5099 69.8361L11.6249 69.9061L11.7409 69.8361C11.7409 69.8361 11.9149 69.7301 12.0879 69.6041C12.1739 69.5411 12.2599 69.4741 12.3309 69.4021C12.369 69.3666 12.4023 69.3263 12.4299 69.2821C12.455 69.2461 12.4709 69.2045 12.4763 69.1609C12.4817 69.1174 12.4764 69.0732 12.4609 69.0321V69.0301L12.4599 69.0281C12.4519 69.0101 12.4349 68.9111 12.4019 68.8031C12.3843 68.7384 12.3533 68.6781 12.3109 68.6261C12.2786 68.5898 12.2392 68.5604 12.1952 68.5398C12.1512 68.5191 12.1035 68.5077 12.0549 68.5061C12.0051 68.5002 11.9564 68.4878 11.9099 68.4691C11.8399 68.4461 11.7469 68.4121 11.6259 68.4121ZM11.6259 68.8521C11.6529 68.8521 11.6999 68.8651 11.7699 68.8881C11.8219 68.9051 11.9009 68.9201 11.9799 68.9311V68.9351C11.9899 68.9661 12.0089 69.0321 12.0219 69.0871C12.0219 69.0891 12.0219 69.0881 12.0199 69.0891C11.9591 69.146 11.8946 69.1988 11.8269 69.2471C11.7299 69.3191 11.6869 69.3441 11.6259 69.3831C11.5659 69.3431 11.5239 69.3181 11.4259 69.2471C11.3588 69.1987 11.295 69.1459 11.2349 69.0891L11.2329 69.0871C11.245 69.036 11.2587 68.9854 11.2739 68.9351L11.2749 68.9311C11.3529 68.9211 11.4309 68.9051 11.4829 68.8881C11.5289 68.8704 11.5769 68.8586 11.6259 68.8531V68.8521ZM11.2069 69.1831V69.1861L11.2059 69.1891L11.2069 69.1831Z" fill="black"/>
<path d="M10.0082 68.1681C10.0092 68.0742 9.9918 67.981 9.95684 67.8938C9.92188 67.8067 9.87009 67.7273 9.80444 67.6601C9.73879 67.593 9.66056 67.5394 9.57421 67.5025C9.48786 67.4656 9.39509 67.4461 9.30119 67.4451C9.11225 67.4482 8.93225 67.5261 8.80052 67.6615C8.66879 67.797 8.59605 67.9791 8.59819 68.1681C8.59819 68.5701 8.91419 68.8951 9.30119 68.8951C9.69119 68.8951 10.0082 68.5701 10.0082 68.1681Z" fill="black"/>
<path d="M10.0084 68.1674C10.0084 67.7691 9.69199 67.4448 9.30168 67.4448C8.91506 67.4448 8.59863 67.7691 8.59863 68.1674C8.59863 68.5698 8.91506 68.8941 9.30168 68.8941C9.69199 68.8941 10.0084 68.5698 10.0084 68.1674Z" stroke="black" stroke-width="0.441624" stroke-linecap="square"/>
<path d="M9.4138 67.965C9.4138 67.765 9.2578 67.605 9.0658 67.605C8.97209 67.6068 8.88292 67.6457 8.81787 67.7132C8.75282 67.7807 8.7172 67.8713 8.7188 67.965C8.7188 68.165 8.8748 68.328 9.0658 68.328C9.15996 68.3256 9.24938 68.2861 9.31456 68.2181C9.37974 68.1502 9.41541 68.0592 9.4138 67.965Z" fill="white"/>
<path d="M9.25491 66.127C9.1076 66.1343 8.96357 66.1731 8.83249 66.2407C8.70141 66.3083 8.5863 66.4032 8.49491 66.519L8.35791 66.692L8.70491 66.966L8.84191 66.793C8.89118 66.7275 8.95393 66.6734 9.02593 66.6343C9.09793 66.5952 9.17749 66.572 9.25922 66.5663C9.34096 66.5606 9.42296 66.5725 9.49968 66.6013C9.5764 66.63 9.64605 66.6749 9.70391 66.733L9.85991 66.89L10.1719 66.578L10.0169 66.422C9.91764 66.3222 9.79851 66.2443 9.66724 66.1935C9.53598 66.1427 9.3955 66.12 9.25491 66.127Z" fill="black"/>
<path d="M14.0271 68.016C14.0284 67.9698 14.0205 67.9238 14.004 67.8806C13.9874 67.8374 13.9625 67.798 13.9306 67.7645C13.8987 67.731 13.8605 67.7042 13.8182 67.6856C13.7759 67.667 13.7303 67.6569 13.6841 67.656C13.6374 67.6564 13.5914 67.6661 13.5485 67.6844C13.5057 67.7028 13.467 67.7295 13.4346 67.763C13.4022 67.7966 13.3768 67.8362 13.3599 67.8796C13.343 67.923 13.3349 67.9694 13.3361 68.016C13.3361 68.215 13.4881 68.379 13.6841 68.379C13.7776 68.3761 13.8662 68.3363 13.9305 68.2683C13.9948 68.2003 14.0295 68.1096 14.0271 68.016Z" fill="white"/>
<path d="M22.5259 51.417L10.6299 51.452C10.5858 51.4522 10.5424 51.4622 10.5027 51.4815C10.4631 51.5007 10.4283 51.5285 10.4009 51.563L3.00988 60.9C2.98244 60.9346 2.96315 60.975 2.95345 61.0181C2.94376 61.0612 2.9439 61.106 2.95388 61.149L5.63388 72.754C5.64363 72.7972 5.66299 72.8376 5.69052 72.8722C5.71805 72.9068 5.75304 72.9348 5.79288 72.954L16.5279 78.087C16.5678 78.1058 16.6115 78.1155 16.6556 78.1151C16.6998 78.1148 16.7433 78.1045 16.7829 78.085L27.4869 72.886C27.5265 72.8667 27.5613 72.8386 27.5887 72.804C27.616 72.7694 27.6352 72.7291 27.6449 72.686L30.2579 61.066C30.2679 61.0227 30.2679 60.9778 30.2581 60.9345C30.2482 60.8912 30.2286 60.8507 30.2009 60.816L22.7559 51.526C22.7283 51.4916 22.6932 51.4638 22.6534 51.4448C22.6136 51.4257 22.57 51.4159 22.5259 51.416V51.417ZM22.3859 52.006L29.6529 61.074L27.1029 72.419L16.6539 77.494L6.17488 72.484L3.55888 61.154L10.7749 52.04L22.3859 52.006Z" fill="black"/>
<path d="M6.35303 69.3201V69.9081H17.382V69.3191L6.35303 69.3201ZM11.592 71.5261V72.1151H26.889V71.5261H11.592Z" fill="black"/>
<path fill-rule="evenodd" clip-rule="evenodd" d="M21.0569 65.147C20.3249 65.147 19.6139 65.225 19.1389 65.412H19.1369C17.9029 65.863 16.9769 67.077 16.7029 68.536V68.537C16.4629 69.677 16.3999 70.642 16.2729 71.511L16.7089 71.575C16.8399 70.679 16.9019 69.731 17.1369 68.623V68.621L17.1379 68.618C17.3869 67.291 18.2319 66.211 19.2929 65.825L19.2969 65.824L19.2989 65.823C19.6639 65.678 20.3579 65.588 21.0579 65.588C21.7559 65.588 22.4749 65.675 22.9039 65.825C23.9689 66.211 24.8109 67.291 25.0599 68.618V68.624C25.2959 69.733 25.3609 70.68 25.4919 71.571L25.9289 71.506C25.8019 70.641 25.7339 69.676 25.4929 68.537V68.536C25.2189 67.075 24.2949 65.858 23.0539 65.409H23.0519C22.5319 65.227 21.7919 65.147 21.0569 65.147Z" fill="black"/>
<path d="M24.1641 70.762C24.167 70.6295 24.1173 70.5011 24.0258 70.4052C23.9344 70.3092 23.8086 70.2534 23.6761 70.25C23.6104 70.2516 23.5457 70.266 23.4856 70.2926C23.4255 70.3192 23.3713 70.3573 23.326 70.4049C23.2807 70.4524 23.2451 70.5085 23.2215 70.5697C23.1978 70.631 23.1865 70.6963 23.1881 70.762C23.1881 71.047 23.4061 71.277 23.6761 71.277C23.9461 71.277 24.1641 71.047 24.1641 70.762ZM19.2301 70.762C19.233 70.6295 19.1833 70.5011 19.0918 70.4052C19.0004 70.3092 18.8746 70.2534 18.7421 70.25C18.6764 70.2516 18.6117 70.266 18.5516 70.2926C18.4915 70.3192 18.4373 70.3573 18.392 70.4049C18.3467 70.4524 18.3111 70.5085 18.2875 70.5697C18.2638 70.631 18.2525 70.6963 18.2541 70.762C18.2541 71.047 18.4731 71.277 18.7421 71.277C19.0121 71.277 19.2301 71.047 19.2301 70.762Z" fill="#E6E6E8"/>
<path d="M19.5478 70.3379L17.7358 70.8229L17.8118 71.1069L19.6238 70.6219L19.5478 70.3379ZM19.7198 70.6339L17.8948 71.6889L18.0428 71.9439L19.8668 70.8889L19.7198 70.6339ZM23.0098 70.3379L24.8258 70.8219L24.7508 71.1059L22.9338 70.6219L23.0098 70.3379ZM22.8428 70.6339L24.6668 71.6889L24.5188 71.9429L22.6948 70.8889L22.8428 70.6339Z" fill="black"/>
<path d="M21.2651 68.697C20.2851 68.697 19.4741 69.456 19.4741 70.403C19.4741 71.353 20.2851 72.112 21.2651 72.112C22.2411 72.112 23.0521 71.352 23.0521 70.402C23.0521 69.456 22.2421 68.697 21.2651 68.697ZM21.2651 69.137C22.0151 69.137 22.6101 69.708 22.6101 70.403C22.6101 71.101 22.0151 71.669 21.2651 71.669C20.5111 71.669 19.9151 71.101 19.9151 70.403C19.9151 69.708 20.5101 69.138 21.2651 69.138V69.137Z" fill="black"/>
<path d="M22.9086 69.1324C22.9086 68.7068 23.2446 68.3591 23.6628 68.3591C24.0766 68.3591 24.4165 68.7068 24.4165 69.1324C24.4165 69.5585 24.0772 69.9056 23.6628 69.9056C23.2446 69.9056 22.9086 69.5585 22.9086 69.1324Z" fill="black" stroke="black" stroke-width="0.441662" stroke-linecap="square"/>
<path d="M23.7109 66.9629C23.4129 66.9499 23.1219 67.0629 22.9099 67.2729L22.7529 67.4279L23.0629 67.7419L23.2199 67.5859C23.2819 67.5249 23.3558 67.4772 23.437 67.4459C23.5182 67.4146 23.6049 67.4003 23.6919 67.4039C23.8779 67.4139 24.0499 67.5039 24.1639 67.6499L24.2989 67.8249L24.6489 67.5549L24.5129 67.3799C24.4175 67.2569 24.2966 67.1559 24.1585 67.0839C24.0204 67.0119 23.8684 66.9706 23.7129 66.9629H23.7109ZM21.0299 70.1359L20.9959 70.7919C20.9529 70.8259 20.8969 70.8759 20.7869 70.9129C20.7252 70.937 20.658 70.9432 20.5929 70.9309C20.5529 70.9209 20.5109 70.8739 20.4679 70.8259L20.4759 70.7609C20.4889 70.6699 20.5089 70.5569 20.5139 70.5369L20.0869 70.4229C20.0649 70.5049 20.0519 70.6039 20.0379 70.7009L20.0149 70.8789L20.0049 70.9569L20.0479 71.0239C20.1457 71.1865 20.3015 71.3058 20.4839 71.3579C20.6314 71.3923 20.7857 71.3829 20.9279 71.3309C21.1199 71.2659 21.1939 71.1909 21.2539 71.1419C21.3149 71.1919 21.3879 71.2659 21.5799 71.3309C21.722 71.3834 21.8765 71.3928 22.0239 71.3579C22.2063 71.3058 22.3621 71.1865 22.4599 71.0239L22.5019 70.9569L22.4929 70.8789L22.4699 70.6989C22.4559 70.6039 22.4419 70.5039 22.4199 70.4229L21.9939 70.5369C21.9989 70.5569 22.0189 70.6699 22.0319 70.7609L22.0399 70.8259C21.9969 70.8739 21.9539 70.9209 21.9149 70.9309C21.8501 70.9432 21.7832 70.937 21.7219 70.9129C21.6119 70.8759 21.5549 70.8259 21.5119 70.7929L21.4779 70.1359L21.2539 70.1479L21.0299 70.1359Z" fill="black"/>
<path d="M21.2648 69.4041C21.1388 69.4041 21.0408 69.4411 20.9648 69.4661C20.9129 69.4869 20.8584 69.5003 20.8028 69.5061C20.7532 69.508 20.7045 69.5201 20.6598 69.5416C20.6151 69.5631 20.5753 69.5936 20.5428 69.6311C20.4991 69.6853 20.4671 69.7479 20.4488 69.8151C20.4138 69.9271 20.3958 70.0331 20.3868 70.0541V70.0581C20.3705 70.0999 20.3648 70.1452 20.37 70.1898C20.3753 70.2344 20.3913 70.277 20.4168 70.3141C20.4478 70.3641 20.4828 70.4021 20.5208 70.4401C20.5958 70.5151 20.6868 70.5861 20.7788 70.6541C20.9628 70.7891 21.1488 70.9021 21.1488 70.9021L21.2648 70.9741L21.3808 70.9021C21.3808 70.9021 21.5658 70.7891 21.7478 70.6541C21.8398 70.5861 21.9308 70.5141 22.0058 70.4381C22.0298 70.4141 22.0508 70.3851 22.0718 70.3571H22.2588L22.1388 70.0571L22.1368 70.0541C22.1288 70.0331 22.1098 69.9271 22.0748 69.8141C22.057 69.7474 22.0257 69.685 21.9828 69.6311C21.95 69.5932 21.9099 69.5625 21.8648 69.5408C21.8198 69.5192 21.7707 69.507 21.7208 69.5051C21.6666 69.4991 21.6135 69.486 21.5628 69.4661C21.4868 69.4411 21.3898 69.4041 21.2648 69.4041ZM21.2648 69.8451C21.2918 69.8451 21.3448 69.8591 21.4208 69.8851C21.4698 69.9011 21.5448 69.9111 21.6138 69.9251L21.6928 70.1281C21.6478 70.1731 21.5678 70.238 21.4868 70.298C21.3788 70.378 21.3278 70.4081 21.2638 70.4491C21.1988 70.4081 21.1488 70.3771 21.0398 70.2971C20.9668 70.245 20.8973 70.1882 20.8318 70.1271L20.8238 70.1191C20.8398 70.0551 20.8598 69.9821 20.8718 69.9451C20.8748 69.9341 20.8728 69.9381 20.8758 69.9321C20.9628 69.9211 21.0488 69.9041 21.1058 69.8841C21.1568 69.864 21.2102 69.8509 21.2648 69.8451Z" fill="black"/>
<path d="M19.5303 69.1324C19.5303 68.7068 19.1938 68.3591 18.7761 68.3591C18.3584 68.3591 18.0225 68.7068 18.0225 69.1324C18.0225 69.5585 18.3584 69.9056 18.7761 69.9056C19.1938 69.9056 19.5298 69.5585 19.5298 69.1324H19.5303Z" fill="black" stroke="black" stroke-width="0.441662" stroke-linecap="square"/>
<path d="M18.8949 68.914C18.896 68.814 18.8575 68.7176 18.7878 68.6459C18.7181 68.5741 18.6229 68.5328 18.5229 68.531C18.4734 68.5318 18.4246 68.5423 18.3792 68.562C18.3338 68.5817 18.2928 68.6101 18.2584 68.6457C18.224 68.6813 18.197 68.7233 18.1789 68.7693C18.1608 68.8154 18.152 68.8645 18.1529 68.914C18.1529 69.129 18.3159 69.301 18.5229 69.301C18.6235 69.2989 18.7192 69.257 18.7889 69.1844C18.8587 69.1119 18.8968 69.0146 18.8949 68.914Z" fill="white"/>
<path d="M18.727 66.9629C18.5716 66.9706 18.4196 67.0117 18.2816 67.0835C18.1435 67.1553 18.0226 67.2561 17.927 67.3789L17.791 67.5529L18.138 67.8249L18.274 67.6509C18.3303 67.5779 18.4017 67.5181 18.4834 67.4754C18.565 67.4328 18.655 67.4084 18.747 67.4039C18.834 67.4007 18.9207 67.4153 19.0019 67.4468C19.083 67.4782 19.1569 67.5259 19.219 67.5869L19.377 67.7419L19.687 67.4269L19.529 67.2719C19.4237 67.1686 19.2985 67.0878 19.161 67.0345C19.0234 66.9812 18.8764 66.9565 18.729 66.9619L18.727 66.9629Z" fill="black"/>
<path d="M23.8549 68.965C23.8558 68.9156 23.8469 68.8664 23.8288 68.8204C23.8107 68.7743 23.7837 68.7323 23.7493 68.6967C23.715 68.6612 23.6739 68.6327 23.6285 68.613C23.5831 68.5933 23.5343 68.5828 23.4849 68.582C23.3849 68.5839 23.2897 68.6252 23.22 68.6969C23.1503 68.7686 23.1118 68.865 23.1129 68.965C23.111 69.0655 23.149 69.1626 23.2185 69.2351C23.288 69.3076 23.3834 69.3497 23.4839 69.352C23.5337 69.3513 23.5829 69.3406 23.6286 69.3207C23.6743 69.3008 23.7156 69.272 23.7501 69.236C23.7846 69.2 23.8117 69.1575 23.8296 69.111C23.8476 69.0645 23.8562 69.0149 23.8549 68.965Z" fill="white"/>
<path d="M10.416 72.9951V73.5841H17.492V72.9951H10.416ZM14.538 74.4671V75.0571H20.362V74.4671H14.538Z" fill="black"/>
</svg>
