<svg width="128" height="128" viewBox="0 0 128 128" fill="none" xmlns="http://www.w3.org/2000/svg">
<path d="M64 0C99.348 0 128 28.652 128 64C128 99.348 99.348 128 64 128C28.652 128 0 99.348 0 64C0 28.652 28.652 0 64 0Z" fill="#8F5AE8"/>
<path d="M85.8981 49.242C85.0643 48.7977 84.134 48.5652 83.1891 48.5652C82.2443 48.5652 81.314 48.7977 80.4801 49.242L68.2661 56.465L59.7341 61.207L47.5201 68.434C46.6863 68.8784 45.756 69.1108 44.8111 69.1108C43.8663 69.1108 42.936 68.8784 42.1021 68.434L32.3951 62.785C31.5962 62.3243 30.928 61.6674 30.4536 60.8765C29.9792 60.0856 29.7144 59.1868 29.6841 58.265V46.989C29.6669 46.0574 29.9118 45.1396 30.391 44.3404C30.8702 43.5412 31.5643 42.8928 32.3941 42.469L42.1021 37.052C42.9354 36.6058 43.8659 36.3723 44.8111 36.3723C45.7563 36.3723 46.6869 36.6058 47.5201 37.052L57.2271 42.47C58.0259 42.9309 58.6939 43.5878 59.1681 44.3787C59.6423 45.1696 59.907 46.0684 59.9371 46.99V54.208L68.2661 49.243V42.247C68.2887 41.32 68.0511 40.4051 67.5802 39.6062C67.1094 38.8073 66.4241 38.1563 65.6021 37.727L47.7421 27.345C46.9089 26.8988 45.9783 26.6653 45.0331 26.6653C44.0879 26.6653 43.1574 26.8988 42.3241 27.345L24.2661 37.727C23.3646 38.0772 22.5961 38.7022 22.0696 39.5134C21.543 40.3247 21.285 41.281 21.3321 42.247V63.238C21.3189 64.1659 21.5659 65.0788 22.0451 65.8735C22.5242 66.6681 23.2164 67.3127 24.0431 67.734L42.1021 78.141C42.936 78.5854 43.8663 78.8178 44.8111 78.8178C45.756 78.8178 46.6863 78.5854 47.5201 78.141L59.7341 71.141L68.0861 66.176L80.2581 59.199C81.092 58.7547 82.0223 58.5222 82.9671 58.5222C83.912 58.5222 84.8423 58.7547 85.6761 59.199L95.3831 64.617C96.1816 65.0779 96.8493 65.735 97.3229 66.5259C97.7966 67.3168 98.0607 68.2156 98.0901 69.137V80.199C98.1075 81.1298 97.8629 82.0467 97.3843 82.8452C96.9056 83.6437 96.2122 84.2916 95.3831 84.715L85.6761 90.355C84.8429 90.8013 83.9123 91.0348 82.9671 91.0348C82.0219 91.0348 81.0914 90.8013 80.2581 90.355L70.5511 84.937C69.7525 84.4773 69.0843 83.8213 68.6099 83.0312C68.1355 82.2411 67.8706 81.3431 67.8401 80.422V73.172L59.7341 77.91V85.129C59.7163 86.0604 59.9606 86.9781 60.4393 87.7773C60.9179 88.5765 61.6116 89.2251 62.4411 89.649L80.5001 100.03C81.3341 100.476 82.2653 100.71 83.2111 100.71C84.157 100.71 85.0882 100.476 85.9221 100.03L103.98 89.647C104.774 89.1845 105.437 88.5279 105.907 87.7388C106.377 86.9497 106.639 86.0541 106.668 85.136V64.136C106.685 63.2048 106.44 62.2874 105.961 61.4888C105.482 60.6902 104.787 60.0426 103.957 59.62L85.8981 49.242Z" fill="white"/>
</svg>
