<svg width="128" height="128" viewBox="0 0 128 128" fill="none" xmlns="http://www.w3.org/2000/svg">
<path fill-rule="evenodd" clip-rule="evenodd" d="M123.258 76.784C122.808 73.866 120.357 71.955 117.506 71.826C116.474 71.779 115.426 71.887 114.397 72.018C113.154 72.176 111.926 72.456 110.686 72.641C109.829 72.769 108.96 72.828 108.104 72.916L108.083 72.805C109.681 69.787 111.346 66.802 112.858 63.741C114.017 61.393 115.009 58.96 116.034 56.547C117.73 52.549 119.085 48.427 120.207 44.238C121.282 40.227 122.202 36.172 122.491 32.011C122.607 30.349 122.687 28.68 122.678 27.016C122.67 25.689 122.527 24.36 122.394 23.037C122.244 21.521 121.786 20.084 121.152 18.701C120.316 16.879 119.02 15.384 117.656 13.964C116.564 12.827 115.363 11.791 114.172 10.756C112.474 9.279 110.565 8.1 108.582 7.053C106.336 5.85933 103.956 4.93622 101.492 4.303C99.999 3.922 98.472 3.639 96.96 3.337C96.416 3.227 95.871 3 95.327 3H85.086C84.716 3 84.349 3.191 83.976 3.233C81.524 3.506 79.101 3.968 76.748 4.697C75.868 4.97 75.064 4.798 74.228 4.721C73.587 4.662 72.957 4.49 72.316 4.458C69.874 4.336 67.429 4.157 64.988 4.183C62.649 4.207 60.334 4.592 58.07 5.235C56.175 5.773 54.321 6.43 52.623 7.426C51.896 7.852 51.32 7.772 50.568 7.555C48.041 6.826 45.496 6.141 42.929 5.566C41.329 5.208 39.684 5.03 38.05 4.859C36.4821 4.69605 34.908 4.59796 33.332 4.565C31.794 4.532 30.245 4.533 28.714 4.669C26.2754 4.881 23.8718 5.38907 21.556 6.182C18.9913 7.05772 16.5949 8.36483 14.47 10.047C12.303 11.762 10.565 13.856 9.167 16.247C7.694 18.77 6.684 21.471 6.056 24.308C5.716 25.845 5.501 27.425 5.268 28.986C5.195 29.472 6 29.958 5 30.442V37.236C6 37.688 5.208 38.139 5.266 38.592C5.405 39.681 5.528 40.779 5.712 41.86C6.003 43.571 6.348 45.277 6.7 46.977C7.18877 49.353 7.70413 51.7235 8.246 54.088C8.642 55.808 9.093 57.518 9.565 59.219C10.286 61.817 10.996 64.42 11.811 66.989C12.568 69.376 13.435 71.729 14.295 74.082C15.486 77.337 16.912 80.487 18.622 83.506C20.101 86.12 21.791 88.568 24.058 90.582C25.552 91.909 27.215 92.929 29.151 93.439C30.672 93.839 32.218 93.887 33.775 93.568C35.5489 93.2071 37.2061 92.4133 38.599 91.257C38.762 91.123 38.941 91.021 39.134 91.267C39.869 92.198 40.853 92.819 41.882 93.356C44.659 94.804 47.685 95.238 50.759 95.415C51.503 95.458 52.255 95.351 53.005 95.33C54.466 95.29 55.886 95.005 57.283 94.601C58.015 94.389 58.73 94.12 59.475 93.869C59.514 94.662 59.564 95.426 59.587 96.19L59.691 100.356C59.71 100.99 59.735 101.626 59.794 102.257C59.945 103.884 60.093 105.512 60.287 107.134C60.422 108.252 60.562 109.379 60.825 110.47C61.3522 112.672 62.0744 114.824 62.983 116.898C63.8528 118.912 65.1897 120.689 66.883 122.083C69.103 123.919 71.705 124.702 74.515 124.847C75.677 124.908 76.872 124.851 78.016 124.643C79.8343 124.32 81.6328 123.894 83.403 123.368C86.994 122.284 90.098 120.412 92.417 117.387C93.737 115.663 94.821 113.798 95.517 111.739C96.091 110.038 96.632 108.32 97.062 106.579C97.402 105.207 97.57 103.792 97.777 102.391C97.914 101.464 97.996 100.528 98.082 99.594C98.222 98.077 98.365 96.561 98.466 95.041C98.536 93.983 98.533 92.92 98.575 91.86C98.588 91.537 98.64 91.216 98.67 90.894C98.698 90.596 98.848 90.493 99.152 90.498C100.223 90.514 101.296 90.542 102.364 90.494C103.561 90.44 104.769 90.389 105.947 90.191C107.626 89.9106 109.291 89.5546 110.937 89.124C112.88 88.616 114.662 87.706 116.377 86.669C118.375 85.462 120.196 84.046 121.674 82.222C122.959 80.631 123.568 78.792 123.258 76.784ZM119.846 77.766C119.78 78.681 119.361 79.465 118.753 80.135C115.884 83.298 112.285 85.217 108.168 86.162C106.604 86.52 104.99 86.706 103.389 86.854C102.021 86.9743 100.647 87.0067 99.275 86.951C98.269 86.913 97.271 86.683 96.243 86.535C96.14 87.475 96.042 88.454 95.923 89.431L95.444 93.176C95.299 94.363 95.186 95.554 95.037 96.74C94.891 97.891 94.709 99.038 94.556 100.189C94.413 101.261 94.308 102.338 94.149 103.408C93.904 105.048 93.67 106.692 93.35 108.319C92.966 110.264 92.377 112.148 91.416 113.902C90.244 116.043 88.582 117.674 86.467 118.882C84.287 120.128 81.904 120.776 79.488 121.318C77.778 121.702 76.016 121.765 74.284 121.609C71.28 121.337 68.716 120.052 66.778 117.723C64.928 115.5 63.676 112.952 63.228 110.068C63.0189 108.695 62.8551 107.316 62.737 105.932C62.6044 104.394 62.5047 102.854 62.438 101.312C62.3494 99.3558 62.2837 97.3987 62.241 95.441C62.188 93.035 62.171 90.629 62.137 88.223L62.131 88.131C60.907 88.865 59.704 89.669 58.428 90.331C56.9368 91.1024 55.3045 91.5627 53.63 91.684C52.312 91.784 50.977 91.875 49.665 91.77C47.514 91.597 45.365 91.26 43.439 90.201C42.658 89.771 41.843 89.248 41.305 88.561C40.015 86.915 40.633 84.835 42.578 83.834C43.922 83.141 45.389 82.852 46.846 82.515C48.1141 82.2273 49.369 81.8839 50.607 81.486C51.829 81.086 52.6 80.095 53.361 79.123L54.567 77.572C54.064 77.519 53.59 77.465 53.116 77.421C51.677 77.285 50.304 76.889 48.991 76.307C47.867 75.81 47.85 75.756 47.026 76.65C45.65 78.144 44.312 79.673 42.964 81.192C41.972 82.309 40.986 83.433 39.999 84.553C39.021 85.661 38.105 86.832 37.052 87.863C35.488 89.394 33.603 90.315 31.354 90.211C29.911 90.145 28.59 89.639 27.402 88.812C24.95 87.104 23.298 84.715 21.794 82.206C19.867 78.991 18.388 75.566 17.122 72.047C16.246 69.615 15.366 67.181 14.601 64.714C13.77 62.033 13.041 59.318 12.324 56.604C11.7884 54.5535 11.2943 52.4924 10.842 50.422C10.3146 48.0707 9.8265 45.7107 9.378 43.343C9.08 41.744 8.907 40.122 8.666 38.512C8.341 36.342 8.281 34.152 8.399 31.973C8.504 30.01 8.786 28.052 9.066 26.102C9.454 23.404 10.343 20.858 11.622 18.454C12.405 16.981 13.377 15.642 14.501 14.398C16.346 12.356 18.579 10.88 21.063 9.772C22.799 8.998 24.633 8.532 26.502 8.168C29.276 7.628 32.075 7.649 34.875 7.707C36.099 7.732 37.318 7.955 38.541 8.076C41.174 8.338 43.755 8.892 46.303 9.576C48.16 10.074 49.979 10.719 51.821 11.279C52.006 11.335 52.277 11.33 52.428 11.231C54.924 9.602 57.652 8.527 60.553 7.912C61.654 7.679 62.79 7.577 63.916 7.505C65.285 7.418 66.665 7.338 68.031 7.417C69.673 7.511 71.307 7.753 72.939 7.977C73.731 8.085 74.504 8.36 75.298 8.435C75.678 8.471 76.081 8.193 76.483 8.1C78.532 7.627 80.572 7.1 82.639 6.726C84.178 6.448 85.75 6.317 87.315 6.227C89.06 6.127 90.818 6.054 92.562 6.138C94.7704 6.24736 96.9643 6.55629 99.117 7.061C101.794 7.684 104.362 8.589 106.803 9.845C108.627 10.783 110.361 11.871 111.922 13.209C112.945 14.087 113.992 14.954 114.916 15.932C116.056 17.138 117.219 18.345 117.934 19.89C118.472 21.055 118.856 22.261 118.962 23.537C119.094 25.123 119.254 26.715 119.239 28.303C119.225 29.822 119.018 31.34 118.871 32.855C118.537 36.309 117.786 39.688 116.874 43.022C116.111 45.776 115.248 48.5012 114.285 51.192C113.406 53.673 112.392 56.109 111.367 58.535C110.612 60.332 109.793 62.1008 108.909 63.838C107.232 67.124 105.488 70.376 103.471 73.471C103.123 74.006 102.793 74.554 102.453 75.1C103.333 75.694 104.33 75.903 105.334 76.011C106.289 76.115 107.263 76.177 108.217 76.106C109.744 75.993 111.266 75.775 112.784 75.562C114.288 75.352 115.762 74.924 117.306 75.037C118.848 75.149 119.951 76.321 119.846 77.766ZM97.833 74.413C97.178 73.567 96.51 72.731 95.869 71.875C94.863 70.531 94.14 69.03 93.414 67.522C92.726 66.093 91.882 64.74 91.157 63.327C89.892 60.862 88.604 58.405 87.439 55.892C85.974 52.735 84.819 49.466 84.455 45.969C84.301 44.489 84.262 43.011 84.561 41.545C85.04 39.204 86.263 37.373 88.319 36.117C90.226 34.952 92.351 34.576 94.528 34.458C95.879 34.385 97.236 34.445 98.638 34.445L98.591 34.208C97.719 32.385 96.904 30.531 95.95 28.751C94.604 26.239 92.882 23.974 90.964 21.874C89.543 20.319 88.004 18.876 86.318 17.601C84.66 16.346 82.913 15.225 81.049 14.308C78.826 13.215 76.511 12.37 74.082 11.831C71.748 11.313 69.399 10.996 67.005 10.97C64.963 10.948 62.934 11.04 60.945 11.501C57.943 12.196 55.197 13.432 52.808 15.434C51.4863 16.5425 50.3051 17.8086 49.291 19.204C48.095 20.847 47.13 22.621 46.305 24.481C45.173 27.033 44.396 29.689 43.865 32.419C43.599 33.78 43.391 35.153 43.179 36.525C43.105 37.005 43.099 37.496 43.056 38.046C43.425 37.854 43.691 37.706 43.963 37.574L44.848 37.177C47.841 35.808 50.942 34.927 54.275 35.028C55.691 35.071 57.046 35.351 58.305 35.971C60.72 37.162 62.133 39.187 62.747 41.75C63.171 43.519 63.461 45.323 63.743 47.122C63.964 48.527 64.19 49.947 64.216 51.364C64.253 53.435 64.148 55.51 64.035 57.58C63.938 59.3402 63.5738 61.0753 62.955 62.726C61.835 65.719 60.587 68.663 59.421 71.639C59.036 72.622 58.74 73.64 58.376 74.721C58.938 74.721 59.394 74.717 59.85 74.723C60.028 74.726 60.21 74.731 60.382 74.772C61.722 75.088 62.884 75.695 63.837 76.726C65.108 78.098 65.775 79.699 65.809 81.552C65.828 82.579 65.72 83.609 65.725 84.636C65.746 89.422 65.782 94.208 65.822 98.993C65.829 99.775 65.868 100.558 65.924 101.339C66.041 102.974 66.159 104.61 66.319 106.241C66.431 107.398 66.587 108.553 66.77 109.702C67.029 111.33 67.77 112.779 68.611 114.164C69.335 115.355 70.276 116.367 71.516 117.065C73.623 118.251 75.892 118.35 78.179 117.913C79.724 117.618 81.241 117.144 82.741 116.655C84.2161 116.182 85.563 115.376 86.678 114.301C87.729 113.282 88.475 112.04 88.978 110.669C89.954 108.01 90.258 105.21 90.662 102.432C90.813 101.392 90.944 100.349 91.082 99.307C91.239 98.121 91.398 96.936 91.55 95.751C91.662 94.868 91.764 93.983 91.872 93.1C92.026 91.832 92.189 90.565 92.336 89.296C92.449 88.315 92.545 87.33 92.645 86.347C92.774 85.091 92.913 83.835 93.024 82.577C93.11 81.622 93.075 80.65 93.244 79.713C93.555 77.995 94.367 76.533 95.89 75.588C96.527 75.193 97.246 74.933 97.953 74.599L97.833 74.413ZM40.236 67.361C39.4765 65.5749 39.0189 63.675 38.882 61.739C38.754 59.914 38.971 58.096 39.158 56.279C39.34 54.519 39.491 52.751 39.544 50.983C39.632 48.077 39.436 45.175 39.297 42.271C39.213 40.542 39.414 38.792 39.568 37.059C39.707 35.498 39.88 33.933 40.175 32.395C40.67 29.814 41.327 27.27 42.261 24.804C43.148 22.466 44.167 20.189 45.606 18.139C46.592 16.733 47.711 15.419 48.786 14.045L48.467 13.932C44.969 12.821 41.414 11.953 37.758 11.574C36.029 11.395 34.294 11.29 32.56 11.187C32.028 11.155 31.488 11.227 30.954 11.278C29.632 11.404 28.294 11.454 26.993 11.702C24.779 12.123 22.655 12.831 20.688 13.984C18.922 15.019 17.439 16.357 16.197 17.962C14.825 19.734 13.902 21.738 13.239 23.875C12.456 26.396 12.083 28.99 11.982 31.608C11.894 33.903 11.85 36.211 12.246 38.497C12.541 40.199 12.738 41.919 13.063 43.614C13.506 45.925 13.981 48.231 14.53 50.518C15.315 53.792 16.099 57.071 17.029 60.305C17.919 63.404 18.923 66.475 20.011 69.509C20.901 71.985 21.93 74.415 23.014 76.813C23.72 78.375 24.575 79.878 25.471 81.341C26.424 82.894 27.508 84.368 28.979 85.495C30.835 86.918 32.272 87.139 34.158 85.578C34.966 84.909 35.649 84.083 36.352 83.296C37.469 82.046 38.547 80.762 39.659 79.508C41.075 77.91 42.509 76.329 43.932 74.739C44.233 74.403 44.522 74.057 44.815 73.717L44.331 73.292C42.5736 71.6169 41.1797 69.598 40.236 67.361ZM93.924 19.792C95.0875 21.1447 96.1915 22.5473 97.233 23.996C99.233 26.805 100.831 29.838 102.008 33.083C102.529 34.513 102.945 35.957 102.759 37.522C102.63 38.618 102.641 39.73 102.544 40.832C102.463 41.749 102.318 42.661 102.199 43.575C102.021 44.953 101.763 46.327 101.686 47.711C101.613 49.028 101.689 50.359 101.772 51.679C101.856 53.02 102.037 54.355 102.16 55.694C102.299 57.212 102.486 58.73 102.529 60.251C102.564 61.5 102.453 62.757 102.344 64.004C102.214 65.506 101.833 66.96 101.265 68.355C100.866 69.337 100.389 70.289 99.938 71.272L100.119 71.464L100.394 71.677L100.671 71.181C103.01 67.4996 105.089 63.6593 106.893 59.688C108.047 57.1245 109.143 54.5351 110.18 51.922C111.804 47.858 113.089 43.68 114.083 39.419C114.529 37.506 114.87 35.564 115.173 33.622C115.409 32.104 115.606 30.568 115.65 29.036C115.697 27.411 115.607 25.773 115.457 24.152C115.345 22.928 115.043 21.696 114.276 20.701C113.043 19.099 111.712 17.567 110.075 16.355C108.697 15.334 107.324 14.287 105.845 13.428C103.5 12.068 100.962 11.162 98.31 10.545C95.722 9.942 93.1 9.682 90.461 9.627C88.905 9.594 87.342 9.761 85.789 9.907C84.382 10.039 82.984 10.264 81.567 10.45C83.087 11.305 84.586 12.065 86 12.961C88.973 14.844 91.637 17.11 93.924 19.792ZM55.299 72.514C56.26 69.441 57.569 66.507 58.837 63.555C59.865 61.161 60.427 58.639 60.614 56.049C60.707 54.772 60.681 53.479 60.618 52.198C60.5555 50.7729 60.4247 49.3516 60.226 47.939C59.96 46.138 59.657 44.336 59.231 42.568C58.769 40.655 57.604 39.323 55.608 38.832C54.392 38.533 53.184 38.545 51.955 38.739C48.953 39.212 46.205 40.318 43.645 41.938C43.13 42.264 42.847 42.527 42.936 43.266C43.124 44.831 43.165 46.421 43.158 48.001C43.148 50.237 43.053 52.473 42.968 54.708C42.94 55.436 42.835 56.16 42.757 56.885C42.637 57.995 42.406 59.104 42.413 60.212C42.42 61.354 42.537 62.523 42.814 63.629C43.694 67.136 45.558 70.006 48.613 72.031C50.492 73.276 52.571 73.904 54.853 74.023C55.008 73.499 55.146 73.004 55.299 72.514ZM51.713 42.427C51.311 41.583 51.541 40.884 52.473 40.56C52.7 40.48 52.934 40.395 53.17 40.372C53.494 40.34 53.824 40.364 54.152 40.364C55.334 40.37 56.471 40.535 57.447 41.287C58.073 41.769 58.241 42.409 57.836 43.066C57.261 43.998 56.384 44.466 55.307 44.556C53.61 44.697 52.419 43.906 51.713 42.427ZM98.753 42.119C98.889 40.995 98.998 39.868 99.137 38.744C99.193 38.292 98.955 38.17 98.576 38.159C97.384 38.126 96.192 38.084 95 38.062C93.656 38.038 92.348 38.254 91.104 38.765C89.724 39.333 88.673 40.243 88.244 41.745C87.9301 42.8526 87.8307 44.01 87.951 45.155C88.118 46.9255 88.5192 48.666 89.144 50.331C89.978 52.552 90.851 54.772 91.894 56.9C93.307 59.781 94.906 62.57 96.407 65.407C96.808 66.164 97.145 66.954 97.563 67.838C98.4058 66.0806 98.8662 64.1644 98.914 62.216C98.955 60.606 98.826 58.989 98.732 57.378C98.673 56.392 98.534 55.412 98.438 54.428C98.304 53.057 98.101 51.687 98.07 50.313C98.039 48.916 98.138 47.511 98.258 46.116C98.371 44.778 98.592 43.451 98.753 42.119ZM96.064 41.037C95.621 42.26 94.674 42.95 93.446 43.153C92.301 43.341 91.298 42.918 90.552 42.005C90.021 41.355 90.224 40.585 91.02 40.146C91.934 39.64 92.939 39.512 94.124 39.435C94.446 39.494 94.931 39.543 95.392 39.675C96.061 39.864 96.308 40.367 96.064 41.037ZM60.642 78.697C59.987 78.162 59.121 78.131 58.498 78.718C57.725 79.448 57.045 80.283 56.365 81.106C55.58 82.057 54.844 83.046 53.831 83.783C52.357 84.854 50.639 85.298 48.912 85.718C47.539 86.052 46.16 86.362 44.783 86.683L44.766 86.861C45.175 87.05 45.571 87.286 45.997 87.421C48.097 88.086 50.233 88.417 52.452 88.229C54.054 88.093 55.58 87.744 57.026 87.058C59.016 86.115 60.547 84.621 61.849 82.883C62.067 82.593 62.166 82.164 62.192 81.79C62.281 80.469 61.61 79.487 60.642 78.697ZM112.393 79.223C110.703 79.404 109.011 79.596 107.316 79.693C106.498 79.74 105.668 79.584 104.842 79.517C103.457 79.405 102.105 79.097 100.934 78.357C100.256 77.93 99.693 77.882 98.973 78.124C97.945 78.47 97.106 78.996 96.858 80.11C96.689 80.863 96.628 81.643 96.56 82.414C96.547 82.55 96.717 82.8 96.847 82.834C97.64 83.043 98.437 83.29 99.248 83.363C100.244 83.453 101.258 83.424 102.261 83.374C103.344 83.32 104.434 83.25 105.501 83.07C108.016 82.648 110.449 81.96 112.61 80.534C113.389 80.019 114.161 79.493 114.935 78.972L114.871 78.862C114.045 78.985 113.223 79.135 112.393 79.223Z" fill="#336791"/>
</svg>
