<svg width="128" height="128" viewBox="0 0 128 128" fill="none" xmlns="http://www.w3.org/2000/svg">
<path d="M85.9882 76.075C86.6202 70.813 86.4312 70.041 90.3502 70.893L91.3452 70.981C94.3592 71.118 98.3022 70.496 100.617 69.42C105.603 67.107 108.559 63.243 103.643 64.258C92.4282 66.571 91.6572 62.775 91.6572 62.775C103.5 45.204 108.451 22.9 104.178 17.44C92.5242 2.54802 72.3502 9.59001 72.0122 9.77301L71.9042 9.79401C69.6882 9.33301 67.2092 9.05901 64.4232 9.01401C59.3482 8.93101 55.4972 10.345 52.5762 12.56C52.5762 12.56 16.5872 -2.26698 18.2612 31.206C18.6172 38.327 28.4682 85.088 40.2172 70.964C44.5112 65.8 48.6612 61.433 48.6612 61.433C50.7222 62.802 53.1892 63.5 55.7772 63.249L55.9772 63.079C55.9152 63.72 55.9422 64.347 56.0582 65.089C53.0312 68.472 53.9212 69.066 47.8692 70.311C41.7472 71.573 45.3442 73.819 47.6912 74.406C50.5392 75.119 57.1242 76.128 61.5752 69.897L61.3982 70.608C62.5862 71.558 62.5052 77.435 62.6732 81.634C62.8412 85.833 63.1232 89.751 63.9792 92.063C64.8352 94.373 65.8452 100.324 73.7982 98.62C80.4442 97.194 85.5252 95.144 85.9882 76.075Z" fill="black"/>
<path d="M71.2081 102.77C67.6901 102.77 65.4001 101.41 64.0081 100.096C61.9081 98.1151 61.0751 95.5621 60.5781 94.0371L60.3631 93.4001C59.3611 90.6951 59.0221 86.8011 58.8211 81.7871C58.7914 81.0033 58.7664 80.2192 58.7461 79.4351C58.7291 78.8341 58.7081 78.0801 58.6781 77.2891C57.4107 77.8935 56.0655 78.3189 54.6811 78.5531C52.2011 78.9771 49.5351 78.8391 46.7551 78.1441C44.7941 77.6541 42.7561 76.6381 41.5951 75.0681C38.2101 78.0331 34.9811 77.6301 33.2221 77.0441C30.1191 76.0091 27.3421 73.1021 24.7311 68.1541C22.8721 64.6311 21.0731 60.0391 19.3841 54.5081C16.4441 44.8751 14.5761 34.7291 14.4101 31.3991C13.8881 20.9721 16.6941 13.5161 22.7501 9.23911C32.3051 2.49011 46.7801 6.45811 52.0571 8.26011C55.6021 6.12311 59.7731 5.08211 64.4871 5.15811C67.0191 5.19911 69.4291 5.42211 71.6681 5.82011C74.0031 5.08611 78.6171 4.03211 83.8981 4.09711C93.6281 4.21311 101.691 8.00511 107.214 15.0631C111.155 20.0991 109.207 30.6731 107.694 36.5291C105.567 44.7641 101.838 53.5251 97.2581 61.1511C98.5021 61.1601 100.303 61.0101 102.865 60.4821C107.919 59.4381 109.396 62.1481 109.797 63.3611C111.404 68.2281 104.419 71.9051 102.24 72.9161C99.4481 74.2131 94.8971 75.0021 91.1691 74.8311L91.0061 74.8201L90.0271 74.7341L89.9301 75.5501L89.8371 76.3491C89.5871 86.0131 88.2061 92.1331 85.3651 96.1781C82.3881 100.417 78.2491 101.606 74.6041 102.387C73.4888 102.635 72.3504 102.763 71.2081 102.77ZM63.8061 67.5961C66.0771 69.4131 66.2761 72.8321 66.4531 79.2221C66.4751 80.0191 66.4961 80.7741 66.5241 81.4791C66.6101 83.6131 66.8111 88.6111 67.5931 90.7231C67.7041 91.0211 67.8031 91.3251 67.9071 91.6451C68.7791 94.3171 69.2171 95.6561 72.9881 94.8481C76.1551 94.1701 77.7821 93.5611 79.0561 91.7471C80.9081 89.1091 81.9441 83.8061 82.1341 75.9801L85.9861 76.0741L82.1601 75.6151L82.2721 74.6601C82.6391 71.5121 82.9031 69.2361 85.0081 67.7321C86.6961 66.5251 88.6211 66.6421 90.1541 66.9181C88.4701 65.6471 88.0041 64.1531 87.8801 63.5411L87.5591 61.9591L88.4611 60.6191C93.6611 52.9031 97.9501 43.4201 100.228 34.6011C102.568 25.5391 101.854 20.7261 101.141 19.8161C91.6951 7.74511 75.3121 12.7281 73.6021 13.2951L73.3121 13.4511L71.8621 13.7221L71.1191 13.5681C69.0721 13.1431 66.7981 12.9081 64.3591 12.8681C60.5281 12.8041 57.4381 13.7091 54.9041 15.6321L53.1461 16.9651L51.1051 16.1241C46.7471 14.3421 33.9431 10.7591 27.1871 15.5441C23.4371 18.2001 21.7291 23.4051 22.1091 31.0141C22.2341 33.5261 23.9421 43.0351 26.7561 52.2591C30.6471 65.0051 34.1831 69.2381 35.6591 69.7311C35.9161 69.8181 36.5851 69.2981 37.2501 68.5001C41.5761 63.2971 45.6901 58.9601 45.8631 58.7771L48.0941 56.4301L50.7911 58.2221C51.8781 58.9451 53.0771 59.3541 54.3091 59.4311L60.7421 53.9451L59.8101 63.4551C59.7891 63.6691 59.7791 63.9591 59.8631 64.4991L60.1431 66.3021L58.9301 67.6601L58.7901 67.8171L62.3241 69.4491L63.8061 67.5961Z" fill="black"/>
<path d="M103.646 64.258C92.4298 66.571 91.6588 62.774 91.6588 62.774C103.501 45.203 108.451 22.898 104.179 17.439C92.5238 2.54701 72.3498 9.59001 72.0128 9.77301L71.9038 9.79201C69.6878 9.33301 67.2088 9.05901 64.4218 9.01401C59.3468 8.93101 55.4968 10.344 52.5758 12.559C52.5758 12.559 16.5858 -2.26699 18.2598 31.206C18.6158 38.327 28.4668 85.088 40.2158 70.964C44.5098 65.8 48.6588 61.433 48.6588 61.433C50.7198 62.802 53.1868 63.5 55.7738 63.249L55.9748 63.079C55.9128 63.72 55.9408 64.347 56.0548 65.089C53.0288 68.472 53.9168 69.066 47.8668 70.311C41.7438 71.573 45.3408 73.819 47.6898 74.406C50.5368 75.119 57.1228 76.128 61.5728 69.897L61.3948 70.608C62.5808 71.558 63.4138 76.787 63.2738 81.527C63.1338 86.267 63.0408 89.521 63.9758 92.063C64.9108 94.604 65.8418 100.324 73.7958 98.62C80.4418 97.195 83.8858 93.504 84.3658 87.348C84.7058 82.971 85.4748 83.618 85.5238 79.704L86.1418 77.851C86.8528 71.917 86.2548 70.003 90.3498 70.894L91.3448 70.981C94.3588 71.119 98.3028 70.496 100.618 69.42C105.604 67.106 108.561 63.243 103.646 64.258Z" fill="#336791"/>
<path d="M71.6099 100.394C64.9789 100.395 62.8789 95.144 62.0189 92.997C60.7619 89.851 60.4899 77.639 60.7699 67.624C60.7885 67.2896 60.9369 66.9757 61.1834 66.7491C61.4299 66.5224 61.7551 66.4008 62.0899 66.4102C62.4246 66.4196 62.7425 66.5592 62.9759 66.7993C63.2094 67.0394 63.3399 67.3611 63.3399 67.696C63.0169 79.247 63.4759 89.714 64.4059 92.042C65.8589 95.674 68.0619 98.851 74.2929 97.517C80.2079 96.248 82.4229 94.005 83.4089 88.287C84.1669 83.898 85.6629 71.413 85.8469 68.949C85.8722 68.6091 86.0315 68.2932 86.2897 68.0708C86.548 67.8484 86.884 67.7377 87.2239 67.763C87.5637 67.7883 87.8796 67.9476 88.102 68.2059C88.3245 68.4641 88.4352 68.8001 88.4099 69.14C88.2179 71.704 86.7279 84.166 85.9409 88.724C84.7759 95.479 81.7649 98.543 74.8309 100.03C73.7729 100.264 72.6933 100.386 71.6099 100.394ZM35.6589 74.749C35.0794 74.7484 34.5039 74.6534 33.9549 74.468C29.6479 73.031 25.5459 66.017 21.7619 53.619C18.8819 44.181 17.0569 34.331 16.8969 31.13C16.4219 21.64 18.8669 14.925 24.1619 11.173C34.6379 3.74999 52.2619 10.819 53.0069 11.123C53.3195 11.2538 53.5678 11.5029 53.6977 11.8159C53.8275 12.129 53.8285 12.4806 53.7003 12.7944C53.5721 13.1081 53.3252 13.3585 53.0133 13.4911C52.7013 13.6236 52.3497 13.6275 52.0349 13.502V13.503C51.8649 13.433 34.9649 6.66299 25.6429 13.274C21.1149 16.485 19.0359 22.449 19.4629 31.003C19.5979 33.699 21.3029 43.314 24.2199 52.87C27.5979 63.937 31.4429 70.922 34.7679 72.03C35.2889 72.205 36.8769 72.734 39.1489 70.004C43.4209 64.864 47.3459 60.762 47.3849 60.721C47.6238 60.4894 47.9433 60.3595 48.2761 60.3586C48.6089 60.3576 48.9291 60.4857 49.1694 60.7159C49.4097 60.9461 49.5514 61.2605 49.5647 61.593C49.578 61.9255 49.462 62.2503 49.2409 62.499C49.2019 62.539 45.3369 66.58 41.1249 71.647C39.1299 74.045 37.2169 74.749 35.6589 74.749ZM91.5789 63.92C91.3455 63.9203 91.1165 63.8571 90.9164 63.737C90.7163 63.6169 90.5527 63.4446 90.4432 63.2386C90.3336 63.0325 90.2824 62.8005 90.2948 62.5675C90.3073 62.3344 90.383 62.1092 90.5139 61.916C102.485 44.152 106.687 22.689 103.088 18.091C98.5579 12.303 92.1609 9.27899 84.0759 9.10599C78.0889 8.97599 73.3299 10.505 72.5529 10.772L72.3579 10.851C71.5759 11.097 70.9759 10.668 70.7499 10.167C70.6211 9.87995 70.6016 9.55573 70.6952 9.25536C70.7888 8.95498 70.9889 8.69915 71.2579 8.53599L71.6039 8.39399L71.5869 8.39899L71.6049 8.39299C72.9259 7.90999 77.7569 6.45999 83.7419 6.52899C92.6889 6.62299 100.079 10.074 105.113 16.506C107.495 19.55 107.5 26.563 105.128 35.746C102.71 45.108 98.1599 55.171 92.6459 63.353C92.5283 63.5279 92.3695 63.6712 92.1833 63.7701C91.9972 63.869 91.7896 63.9205 91.5789 63.92ZM92.1899 72.143C90.1459 72.143 88.3139 71.856 87.2169 71.198C86.0889 70.523 85.8739 69.604 85.8459 69.117C85.5379 63.713 88.5199 62.772 90.0409 62.343C89.8289 62.023 89.5269 61.646 89.2159 61.257C88.3289 60.149 87.1149 58.631 86.1789 56.361C86.0329 56.007 85.5729 55.182 85.0409 54.228C82.1579 49.059 76.1599 38.302 80.0129 32.793C81.7969 30.244 85.3469 29.241 90.5789 29.801C89.0399 25.112 81.7099 10.443 64.3199 10.158C59.0889 10.07 54.7989 11.679 51.5759 14.933C44.3589 22.222 44.6209 35.41 44.6239 35.541C44.6283 35.7097 44.5994 35.8776 44.5389 36.0351C44.4784 36.1926 44.3875 36.3367 44.2713 36.4591C44.1552 36.5815 44.016 36.6798 43.8619 36.7484C43.7077 36.817 43.5415 36.8546 43.3729 36.859C43.2042 36.8634 43.0363 36.8345 42.8788 36.774C42.7212 36.7135 42.5772 36.6226 42.4548 36.5065C42.3324 36.3903 42.2341 36.2512 42.1655 36.097C42.0968 35.9428 42.0593 35.7767 42.0549 35.608C42.0389 35.023 41.7689 21.184 49.7499 13.124C53.4849 9.35199 58.4009 7.48999 64.3619 7.58699C75.4899 7.76999 82.6508 13.426 86.6999 18.14C91.1119 23.276 93.2759 28.942 93.4539 30.832C93.5869 32.238 92.5779 32.52 92.3739 32.561L91.9109 32.572C86.7759 31.75 83.4819 32.32 82.1199 34.267C79.1889 38.455 84.8629 48.63 87.2859 52.976C87.9049 54.084 88.3509 54.885 88.5549 55.38C89.3509 57.31 90.3889 58.607 91.2229 59.649C91.9559 60.566 92.5919 61.36 92.8199 62.294C92.9249 62.479 94.4229 64.693 103.308 62.859C105.535 62.4 106.87 62.793 107.278 64.027C108.081 66.456 103.576 69.288 101.082 70.447C98.8439 71.486 95.2769 72.143 92.1899 72.143ZM88.4089 68.905C88.6898 69.19 90.0999 69.68 93.0209 69.555C95.6169 69.443 98.3559 68.878 99.9999 68.116C102.102 67.14 103.504 66.049 104.231 65.304L103.827 65.378C98.1459 66.551 94.1279 66.395 91.8849 64.913C91.7339 64.8136 91.5887 64.7057 91.4499 64.59C91.2069 64.686 90.9819 64.749 90.8219 64.794C89.5489 65.151 88.2328 65.52 88.4089 68.905ZM51.7119 76.084C50.3009 76.084 48.8159 75.893 47.2989 75.512C45.7279 75.119 43.0779 73.936 43.1189 71.993C43.1639 69.812 46.3349 69.158 47.5299 68.912C51.8419 68.024 52.1229 67.668 53.4709 65.957C53.8639 65.458 54.3529 64.837 55.0189 64.092C56.0089 62.985 57.0909 62.423 58.2349 62.423C59.0309 62.423 59.6849 62.694 60.1159 62.872C61.4919 63.442 62.6399 64.82 63.1119 66.47C63.5379 67.958 63.3349 69.39 62.5399 70.502C59.9319 74.155 56.1879 76.084 51.7119 76.084ZM45.8949 72.104C46.2829 72.403 47.0589 72.803 47.9219 73.02C49.2359 73.348 50.5099 73.515 51.7119 73.515C55.3739 73.515 58.3129 71.998 60.4489 69.009C60.8939 68.385 60.7609 67.594 60.6419 67.177C60.3919 66.305 59.7719 65.512 59.1329 65.246C58.7859 65.102 58.4989 64.992 58.2349 64.992C58.0929 64.992 57.6619 64.992 56.9349 65.805C56.3209 66.491 55.8799 67.051 55.4889 67.546C53.8109 69.677 53.0419 70.4 48.0479 71.429C46.8299 71.681 46.2049 71.935 45.8949 72.104ZM55.7769 66.176C55.4701 66.1755 55.1736 66.0654 54.9409 65.8655C54.7082 65.6657 54.5546 65.3892 54.5079 65.086C54.475 64.8726 54.4536 64.6576 54.4439 64.442C51.1699 64.38 48.0119 62.976 45.6149 60.474C42.5839 57.311 41.2039 52.929 41.8299 48.452C42.5099 43.59 42.2559 39.298 42.1189 36.992C42.0846 36.5177 42.0636 36.0425 42.0559 35.567C42.0579 35.161 42.0659 34.082 45.6709 32.255C46.9529 31.605 49.5239 30.471 52.3319 30.18C56.9859 29.7 60.0529 31.772 60.9709 36.016C63.4489 47.476 61.1669 52.545 59.5009 56.246C59.1899 56.934 58.8969 57.586 58.6629 58.216L58.4559 58.773C57.5759 61.133 56.8149 63.172 57.0489 64.696C57.1003 65.0329 57.016 65.3764 56.8145 65.6513C56.6129 65.9261 56.3106 66.1098 55.9739 66.162L55.7769 66.176ZM44.6339 35.922L44.6849 36.84C44.8269 39.235 45.0909 43.693 44.3749 48.809C43.8589 52.501 44.9869 56.106 47.4699 58.697C49.4319 60.745 52.0159 61.875 54.6709 61.875H54.7259C55.0239 60.622 55.5169 59.3 56.0479 57.875L56.2539 57.322C56.5189 56.61 56.8289 55.921 57.1569 55.192C58.7609 51.628 60.7569 47.192 58.4579 36.559C58.0019 34.454 56.8979 33.235 55.0829 32.833C51.3549 32.009 45.7999 34.813 44.6339 35.922ZM52.3899 35.377C52.3259 35.831 53.2229 37.044 54.3909 37.206C55.5579 37.369 56.5569 36.421 56.6199 35.967C56.6829 35.512 55.7869 35.012 54.6179 34.849C53.4509 34.686 52.4519 34.922 52.3899 35.377ZM54.6599 37.654L54.3319 37.631C53.6069 37.53 52.8739 37.073 52.3729 36.408C52.1969 36.175 51.9089 35.721 51.9659 35.317C52.0479 34.724 52.7699 34.37 53.8989 34.37C54.1519 34.37 54.4139 34.389 54.6789 34.425C55.2949 34.511 55.8679 34.689 56.2909 34.925C57.0239 35.335 57.0779 35.791 57.0449 36.028C56.9539 36.681 55.9119 37.654 54.6599 37.654ZM52.8159 35.453C52.8529 35.733 53.5459 36.658 54.4499 36.783L54.6589 36.798C55.4929 36.798 56.1169 36.141 56.1899 35.926C56.1129 35.78 55.5769 35.415 54.5589 35.275C54.3399 35.2435 54.119 35.2275 53.8979 35.227C53.2459 35.226 52.8969 35.373 52.8159 35.453ZM87.9369 34.45C87.9999 34.905 87.1049 36.118 85.9359 36.28C84.7679 36.442 83.7689 35.495 83.7049 35.04C83.6429 34.586 84.5389 34.085 85.7069 33.923C86.8749 33.759 87.8728 33.997 87.9369 34.45ZM85.6669 36.512C84.5419 36.512 83.5729 35.637 83.4929 35.07C83.4008 34.389 84.5219 33.871 85.6779 33.711C85.9319 33.675 86.1839 33.657 86.4269 33.657C87.4239 33.657 88.0839 33.95 88.1499 34.421C88.1929 34.727 87.9589 35.198 87.5549 35.622C87.2889 35.902 86.7289 36.387 85.9669 36.492L85.6669 36.512ZM86.4259 34.085C86.2029 34.085 85.9709 34.102 85.7359 34.134C84.5739 34.295 83.8829 34.762 83.9159 35.012C83.9549 35.286 84.6959 36.084 85.6659 36.084L85.9049 36.067C86.5389 35.978 87.0149 35.565 87.2419 35.326C87.5979 34.951 87.7399 34.599 87.7229 34.478C87.7019 34.321 87.2739 34.085 86.4259 34.085ZM89.6199 60.538C89.3871 60.5379 89.1588 60.4745 88.9592 60.3547C88.7597 60.2349 88.5964 60.0632 88.4868 59.8578C88.3773 59.6525 88.3255 59.4212 88.3372 59.1888C88.3488 58.9563 88.4233 58.7314 88.5529 58.538C91.2889 54.451 90.7879 50.282 90.3039 46.252C90.0969 44.534 89.8839 42.759 89.9399 41.054C89.9959 39.301 90.2178 37.855 90.4339 36.455C90.6889 34.798 90.9299 33.231 90.8299 31.373C90.8225 31.0391 90.9454 30.7154 91.1724 30.4704C91.3995 30.2255 91.713 30.0785 92.0465 30.0606C92.38 30.0426 92.7075 30.1552 92.9595 30.3744C93.2115 30.5936 93.3684 30.9022 93.3969 31.235C93.5109 33.359 93.2379 35.131 92.9739 36.846C92.7699 38.169 92.5589 39.537 92.5079 41.136C92.4589 42.645 92.6519 44.248 92.8559 45.944C93.3719 50.231 93.9549 55.09 90.6889 59.967C90.4409 60.337 90.0339 60.538 89.6199 60.538Z" fill="white"/>
<path d="M2.83496 103.184C4.27075 102.951 5.72343 102.838 7.17796 102.846C9.41296 102.846 11.052 103.366 12.092 104.302C13.054 105.134 13.626 106.408 13.626 107.969C13.626 109.555 13.157 110.803 12.273 111.713C11.077 112.987 9.12696 113.637 6.91696 113.637C6.24096 113.637 5.61696 113.611 5.09796 113.481V120.502H2.83496V103.184ZM5.09796 111.634C5.59196 111.764 6.21596 111.816 6.96996 111.816C9.69896 111.816 11.364 110.49 11.364 108.072C11.364 105.758 9.72596 104.64 7.22996 104.64C6.24196 104.64 5.48796 104.718 5.09796 104.822V111.634ZM27.328 114.104C27.328 118.758 24.103 120.787 21.061 120.787C17.655 120.787 15.029 118.291 15.029 114.312C15.029 110.1 17.785 107.63 21.269 107.63C24.884 107.629 27.328 110.256 27.328 114.104ZM17.344 114.234C17.344 116.99 18.93 119.07 21.166 119.07C23.35 119.07 24.987 117.016 24.987 114.182C24.987 112.05 23.922 109.346 21.217 109.346C18.512 109.346 17.344 111.842 17.344 114.234ZM29.901 118.16C30.577 118.602 31.773 119.07 32.917 119.07C34.581 119.07 35.361 118.238 35.361 117.198C35.361 116.106 34.712 115.508 33.021 114.884C30.759 114.078 29.693 112.83 29.693 111.322C29.693 109.294 31.331 107.63 34.035 107.63C35.309 107.63 36.428 107.994 37.13 108.41L36.558 110.074C35.7841 109.597 34.8929 109.345 33.984 109.346C32.632 109.346 31.878 110.126 31.878 111.062C31.878 112.102 32.633 112.57 34.271 113.194C36.455 114.026 37.573 115.118 37.573 116.99C37.573 119.2 35.857 120.76 32.867 120.76C31.489 120.76 30.215 120.422 29.331 119.902L29.901 118.16ZM43.266 104.301V107.915H46.541V109.657H43.266V116.443C43.266 118.003 43.707 118.887 44.982 118.887C45.4289 118.894 45.8747 118.841 46.308 118.731L46.412 120.447C45.971 120.629 45.268 120.759 44.385 120.759C43.319 120.759 42.46 120.421 41.914 119.797C41.265 119.121 41.03 118.003 41.03 116.521V109.657H39.08V107.915H41.03V104.899L43.266 104.301ZM59.802 107.916C59.749 108.826 59.698 109.84 59.698 111.374V118.68C59.698 121.566 59.126 123.334 57.904 124.427C56.682 125.571 54.914 125.935 53.328 125.935C51.82 125.935 50.156 125.571 49.141 124.895L49.713 123.153C50.545 123.673 51.845 124.141 53.405 124.141C55.745 124.141 57.461 122.919 57.461 119.747V118.343H57.409C56.707 119.513 55.355 120.449 53.405 120.449C50.285 120.449 48.049 117.797 48.049 114.312C48.049 110.048 50.831 107.63 53.717 107.63C55.902 107.63 57.098 108.774 57.644 109.814H57.696L57.8 107.916H59.802ZM57.436 112.882C57.436 112.492 57.41 112.154 57.306 111.842C56.89 110.516 55.772 109.424 54.108 109.424C51.923 109.424 50.364 111.27 50.364 114.182C50.364 116.652 51.612 118.706 54.082 118.706C55.486 118.706 56.76 117.822 57.254 116.366C57.384 115.976 57.437 115.534 57.437 115.144V112.882H57.436ZM63.337 111.842C63.337 110.36 63.311 109.086 63.233 107.916H65.236L65.313 110.386H65.417C65.989 108.696 67.367 107.63 68.901 107.63C69.161 107.63 69.342 107.656 69.55 107.708V109.866C69.2941 109.81 69.0328 109.784 68.771 109.788C67.159 109.788 66.014 111.01 65.703 112.726C65.6388 113.078 65.604 113.434 65.599 113.792V120.5H63.337V111.842ZM72.854 114.624C72.906 117.718 74.881 118.992 77.169 118.992C78.808 118.992 79.795 118.706 80.653 118.342L81.043 119.98C80.237 120.344 78.859 120.76 76.857 120.76C72.983 120.76 70.669 118.212 70.669 114.416C70.669 110.62 72.905 107.629 76.571 107.629C80.679 107.629 81.771 111.243 81.771 113.557C81.771 114.025 81.719 114.389 81.693 114.623H72.854V114.624ZM79.562 112.986C79.587 111.53 78.963 109.268 76.39 109.268C74.076 109.268 73.062 111.4 72.879 112.986H79.562Z" fill="black"/>
<path d="M84.3709 117.744C85.5966 118.48 86.997 118.875 88.4269 118.888C90.7409 118.888 92.0929 117.666 92.0929 115.898C92.0929 114.26 91.1569 113.324 88.7909 112.414C85.9309 111.4 84.1629 109.918 84.1629 107.448C84.1629 104.718 86.4249 102.69 89.8309 102.69C91.6249 102.69 92.9249 103.106 93.7049 103.548L93.0809 105.394C92.058 104.844 90.9141 104.558 89.7529 104.562C87.3609 104.562 86.4509 105.992 86.4509 107.188C86.4509 108.826 87.5159 109.632 89.9349 110.568C92.8989 111.713 94.4069 113.142 94.4069 115.716C94.4069 118.42 92.4049 120.76 88.2709 120.76C86.5809 120.76 84.7349 120.266 83.7979 119.642L84.3709 117.744ZM111.957 123.074C109.697 122.481 107.459 121.804 105.249 121.046C104.885 120.916 104.521 120.786 104.183 120.786C100.023 120.63 96.4609 117.562 96.4609 111.92C96.4609 106.304 99.8929 102.69 104.625 102.69C109.383 102.69 112.478 106.382 112.478 111.556C112.478 116.054 110.398 118.94 107.486 119.954V120.058C109.228 120.5 111.126 120.916 112.608 121.176L111.957 123.074ZM110.085 111.66C110.085 108.15 108.266 104.535 104.547 104.535C100.725 104.535 98.8529 108.071 98.8789 111.868C98.8529 115.586 100.907 118.94 104.443 118.94C108.058 118.94 110.085 115.664 110.085 111.66ZM115.414 102.976H117.677V118.602H125.165V120.5H115.414V102.976Z" fill="#336791"/>
</svg>
