<svg width="128" height="128" viewBox="0 0 128 128" fill="none" xmlns="http://www.w3.org/2000/svg">
<path fill-rule="evenodd" clip-rule="evenodd" d="M63.4089 100.219C65.2009 101.701 67.3019 102.333 69.5699 102.45C70.5079 102.499 71.4729 102.453 72.3959 102.285C73.8599 102.019 75.3199 101.685 76.7439 101.256C79.6439 100.381 82.1499 98.869 84.0209 96.427C85.0869 95.035 85.9619 93.53 86.5239 91.866C86.9879 90.493 87.4239 89.106 87.7709 87.701C88.0449 86.594 88.1809 85.451 88.3469 84.32C88.4579 83.572 88.5249 82.816 88.5939 82.061C88.7059 80.836 88.8229 79.613 88.9039 78.385C88.9609 77.531 88.9589 76.673 88.9919 75.818C89.0029 75.557 89.0449 75.298 89.0699 75.039C89.0909 74.798 89.2129 74.715 89.4589 74.719C90.3229 74.732 91.1889 74.754 92.0519 74.715C93.0189 74.672 93.9929 74.63 94.9449 74.471C96.2997 74.2441 97.6437 73.9572 98.9729 73.611C100.541 73.2 101.98 72.465 103.366 71.629C104.978 70.654 106.45 69.511 107.641 68.038C108.68 66.756 109.172 65.27 108.921 63.649C108.557 61.294 106.578 59.751 104.277 59.646C103.443 59.608 102.597 59.696 101.767 59.801C100.762 59.929 99.7719 60.155 98.7699 60.304C98.0779 60.408 97.3769 60.454 96.6869 60.526L96.6679 60.436C97.9579 57.999 99.3019 55.59 100.522 53.12C101.459 51.224 102.259 49.261 103.086 47.311C104.456 44.083 105.549 40.756 106.455 37.373C107.322 34.135 108.064 30.862 108.299 27.502C108.393 26.161 108.458 24.814 108.449 23.471C108.443 22.399 108.327 21.326 108.22 20.258C108.098 19.034 107.728 17.874 107.216 16.758C106.542 15.286 105.495 14.079 104.394 12.933C103.513 12.015 102.543 11.179 101.582 10.343C100.211 9.151 98.6689 8.198 97.0689 7.353C95.2553 6.38965 93.3339 5.64446 91.3449 5.133C90.133 4.82742 88.9132 4.55366 87.6869 4.312C87.2509 4.224 86.8109 4 86.3719 4H78.1039C77.8049 4 77.5089 4.196 77.2079 4.229C75.2292 4.44498 73.2754 4.84846 71.3729 5.434C70.6629 5.653 70.0149 5.525 69.3399 5.462C68.8219 5.414 68.3129 5.281 67.7949 5.255C65.8239 5.157 63.8509 5.015 61.8789 5.036C59.9909 5.056 58.1219 5.368 56.2949 5.886C54.7659 6.322 53.2689 6.851 51.8969 7.656C51.3109 8 50.8449 7.935 50.2379 7.761C48.1994 7.1638 46.1431 6.62888 44.0719 6.157C42.7809 5.868 41.4519 5.722 40.1329 5.586C38.8671 5.45452 37.5963 5.37545 36.3239 5.349C35.0819 5.322 33.8319 5.323 32.5949 5.433C30.6259 5.608 28.6949 6.008 26.8169 6.654C24.7468 7.36177 22.8124 8.41721 21.0969 9.775C19.3469 11.16 17.9429 12.849 16.8159 14.78C15.6269 16.817 14.8099 18.998 14.3039 21.287C14.0289 22.528 14.1299 23.804 13.9409 25.064C13.8829 25.454 13.9999 25.846 13.9999 26.238V31.723C13.9999 32.087 13.8929 32.452 13.9389 32.818C14.0519 33.697 14.0129 34.583 14.1619 35.456C14.3959 36.838 14.6069 38.215 14.8909 39.587C15.2879 41.504 15.6669 43.419 16.1069 45.327C16.4269 46.716 16.7739 48.097 17.1549 49.47C17.7349 51.568 18.3009 53.669 18.9579 55.742C19.5689 57.669 20.2649 59.568 20.9599 61.468C21.9123 64.0953 23.0795 66.6395 24.4499 69.075C25.6449 71.186 27.0079 73.163 28.8379 74.788C30.0449 75.86 31.3859 76.683 32.9469 77.095C34.1663 77.4189 35.4444 77.4545 36.6799 77.199C38.1122 76.9079 39.4502 76.2673 40.5749 75.334C40.7069 75.227 40.8499 75.144 41.0069 75.342C41.6009 76.094 42.3949 76.596 43.2259 77.029C45.4679 78.199 47.9109 78.55 50.3919 78.692C50.9939 78.726 51.5999 78.64 52.2049 78.624C53.3859 78.591 54.5319 78.361 55.6589 78.035C56.2509 77.864 56.8279 77.646 57.4299 77.444C57.4609 78.085 57.5009 78.701 57.5209 79.318L57.6039 82.681C57.6199 83.193 57.6399 83.705 57.6869 84.215C57.8089 85.529 57.9279 86.843 58.0849 88.153C58.1929 89.056 58.3069 89.965 58.5189 90.847C58.9451 92.6244 59.5281 94.3606 60.2609 96.035C60.9625 97.6602 62.0417 99.0946 63.4089 100.219ZM59.8179 83.451C59.7469 81.872 59.6939 80.2922 59.6589 78.712C59.6169 76.77 59.6029 74.827 59.5759 72.885L59.5709 72.811C58.5839 73.404 57.6109 74.052 56.5819 74.587C55.3749 75.214 54.0649 75.577 52.7079 75.68C51.6449 75.76 50.5659 75.833 49.5079 75.749C47.7719 75.608 46.0359 75.337 44.4819 74.481C43.8519 74.134 43.1939 73.711 42.7589 73.158C41.7179 71.829 42.2169 70.15 43.7869 69.342C44.8719 68.782 46.0559 68.549 47.2319 68.277C48.2556 68.0449 49.2686 67.768 50.2679 67.447C51.2539 67.124 51.8759 66.324 52.4909 65.539L53.4649 64.287L52.2939 64.165C51.1319 64.057 50.0229 63.736 48.9629 63.266C48.0569 62.865 48.0429 62.821 47.3769 63.543C46.2669 64.748 45.1869 65.983 44.0979 67.209C43.2969 68.111 42.5019 69.018 41.7029 69.923C40.9149 70.818 40.1749 71.763 39.3239 72.595C38.0619 73.831 36.5399 74.574 34.7239 74.49C33.5589 74.436 32.4929 74.028 31.5329 73.361C29.5539 71.983 28.2209 70.053 27.0059 68.028C25.4509 65.432 24.2559 62.667 23.2349 59.827C22.5279 57.863 21.8169 55.898 21.2009 53.906C20.5299 51.741 19.9409 49.551 19.3619 47.359C18.9239 45.706 18.5359 44.039 18.1659 42.369C17.74 40.4707 17.3459 38.5655 16.9839 36.654C16.7429 35.363 16.6039 34.053 16.4089 32.754C16.1459 31.001 16.0979 29.234 16.1939 27.475C16.2789 25.89 16.5059 24.31 16.7319 22.736C17.0449 20.558 17.7629 18.503 18.7949 16.562C19.4315 15.3792 20.2118 14.2795 21.1179 13.288C22.6079 11.639 24.4109 10.448 26.4169 9.553C27.8179 8.928 29.2989 8.553 30.8079 8.258C33.0479 7.822 35.3079 7.84 37.5679 7.886C38.5559 7.907 39.5409 8.086 40.5279 8.185C42.6539 8.396 44.7369 8.844 46.7939 9.395C48.2939 9.797 49.7629 10.319 51.2489 10.771C51.3969 10.816 51.6159 10.812 51.7389 10.733C53.7539 9.417 55.9549 8.549 58.2979 8.052C59.1869 7.864 60.1049 7.781 61.0139 7.723C62.1179 7.654 63.2329 7.588 64.3349 7.653C65.6599 7.729 66.9809 7.924 68.2979 8.104C68.9379 8.192 69.5619 8.413 70.2019 8.473C70.5099 8.502 70.8349 8.279 71.1589 8.203C72.8129 7.82 74.4599 7.395 76.1289 7.094C77.3709 6.87 78.6409 6.764 79.9029 6.692C81.3129 6.611 82.7309 6.552 84.1389 6.62C85.9189 6.706 87.6859 6.959 89.4299 7.365C91.5919 7.868 93.6639 8.598 95.6349 9.612C97.1079 10.371 98.5069 11.249 99.7679 12.329C100.594 13.038 101.44 13.737 102.185 14.527C103.105 15.501 104.043 16.474 104.621 17.721C105.056 18.662 105.366 19.636 105.452 20.665C105.558 21.946 105.687 23.231 105.676 24.514C105.665 25.74 105.497 26.965 105.379 28.189C105.108 30.977 104.503 33.705 103.766 36.397C103.151 38.6206 102.454 40.8208 101.677 42.993C100.968 44.996 100.149 46.962 99.3219 48.921C98.7124 50.3714 98.0506 51.7994 97.3379 53.202C95.9839 55.854 94.5759 58.479 92.9469 60.979C92.6659 61.41 92.3989 61.852 92.1249 62.293C92.8359 62.772 93.6409 62.941 94.4509 63.029C95.2219 63.112 96.0079 63.163 96.7779 63.105C98.0109 63.013 99.2399 62.837 100.466 62.666C101.68 62.496 102.869 62.151 104.117 62.242C105.361 62.333 106.253 63.279 106.168 64.445C106.114 65.183 105.775 65.816 105.285 66.357C102.97 68.911 100.064 70.459 96.7399 71.222C95.4769 71.512 94.1749 71.661 92.8819 71.782C91.7778 71.8795 90.6685 71.9055 89.5609 71.86C88.7489 71.83 87.9439 71.644 87.1139 71.524C87.0299 72.283 86.9509 73.074 86.8549 73.862L86.4679 76.885C86.3509 77.843 86.2599 78.805 86.1389 79.763C86.0209 80.693 85.8739 81.618 85.7499 82.547C85.6349 83.412 85.5499 84.282 85.4199 85.146C85.2229 86.47 85.0339 87.797 84.7749 89.111C84.4649 90.681 83.9909 92.201 83.2139 93.618C82.2679 95.347 80.9269 96.664 79.2189 97.639C77.4589 98.644 75.5339 99.167 73.5849 99.605C72.2029 99.916 70.7819 99.966 69.3829 99.839C66.9579 99.62 64.8879 98.583 63.3229 96.702C61.8299 94.907 60.8189 92.851 60.4579 90.522C60.288 89.4138 60.1559 88.3002 60.0619 87.183C59.9537 85.9409 59.8723 84.6966 59.8179 83.451ZM62.5439 67.497C62.5589 68.327 62.4729 69.157 62.4769 69.987C62.4939 73.85 62.5219 77.714 62.5549 81.578C62.5609 82.209 62.5919 82.842 62.6369 83.472C62.7319 84.792 62.8259 86.113 62.9539 87.429C63.0459 88.364 63.1709 89.296 63.3179 90.224C63.5279 91.537 64.1259 92.707 64.8039 93.826C65.3879 94.788 66.1489 95.604 67.1499 96.168C68.8519 97.125 70.6829 97.205 72.5289 96.853C73.7759 96.616 75.0019 96.233 76.2119 95.838C77.4029 95.4561 78.4902 94.8057 79.3899 93.937C80.2389 93.115 80.8409 92.112 81.2469 91.005C82.0339 88.859 82.2809 86.598 82.6059 84.356C82.7279 83.516 82.8339 82.674 82.9449 81.833C83.0719 80.876 83.1999 79.92 83.3219 78.963C83.4139 78.249 83.4959 77.536 83.5829 76.823C83.7079 75.799 83.8389 74.776 83.9579 73.752C84.0489 72.96 84.1249 72.165 84.2069 71.371C84.3109 70.356 84.4219 69.344 84.5129 68.327C84.5809 67.557 84.5529 66.772 84.6899 66.015C84.9409 64.628 85.5969 63.448 86.8269 62.684C87.3409 62.366 87.9229 62.156 88.4929 61.886L88.3949 61.737C87.8679 61.053 87.3279 60.38 86.8109 59.688C85.9989 58.602 85.4149 57.391 84.8279 56.174C84.2719 55.02 83.5919 53.928 83.0069 52.787C81.9859 50.797 80.9459 48.812 80.0049 46.785C78.8219 44.235 77.8899 41.597 77.5969 38.773C77.4719 37.579 77.4399 36.385 77.6829 35.202C78.0699 33.312 79.0559 31.834 80.7159 30.82C82.2559 29.88 83.9709 29.576 85.7279 29.481C86.8179 29.422 87.9149 29.47 89.0459 29.47L89.0089 29.279C88.3049 27.807 87.6479 26.31 86.8769 24.874C85.7909 22.846 84.3989 21.018 82.8509 19.321C81.7086 18.0592 80.4534 16.9044 79.1009 15.871C77.7629 14.858 76.3529 13.953 74.8479 13.214C73.0601 12.3247 71.1719 11.6532 69.2239 11.214C67.3389 10.796 65.4439 10.54 63.5099 10.519C61.8619 10.501 60.2239 10.577 58.6179 10.948C56.1939 11.509 53.9769 12.507 52.0499 14.123C50.9826 15.0177 50.0291 16.04 49.2109 17.167C48.2439 18.492 47.4659 19.926 46.7999 21.427C45.8859 23.488 45.2589 25.631 44.8289 27.835C44.6149 28.935 44.4469 30.042 44.2759 31.149C44.2159 31.538 44.2119 31.933 44.1759 32.378L44.9079 31.997L45.6219 31.677C48.0389 30.572 50.5419 29.861 53.2319 29.942C54.3759 29.976 55.4679 30.203 56.4859 30.704C58.4359 31.666 59.5759 33.301 60.0719 35.369C60.4139 36.797 60.6489 38.253 60.8769 39.706C61.0549 40.84 61.2379 41.986 61.2579 43.13C61.2869 44.802 61.2029 46.478 61.1119 48.149C61.0341 49.5699 60.7401 50.9707 60.2399 52.303C59.3359 54.719 58.3279 57.096 57.3869 59.498C57.0759 60.292 56.8369 61.113 56.5439 61.986L57.7319 61.987C57.8759 61.99 58.0229 61.994 58.1619 62.027C59.2429 62.282 60.1819 62.772 60.9509 63.604C61.9789 64.708 62.5169 66 62.5439 67.497ZM41.8969 56.042C41.2842 54.6001 40.9145 53.0667 40.8029 51.504C40.6989 50.03 40.8739 48.564 41.0259 47.096C41.1719 45.675 41.2959 44.247 41.3379 42.821C41.4089 40.474 41.2509 38.133 41.1389 35.788C41.0719 34.392 41.2339 32.979 41.3579 31.58C41.4699 30.32 41.6099 29.057 41.8489 27.815C42.2479 25.731 42.7789 23.677 43.5339 21.686C44.2489 19.798 45.0729 17.961 46.2329 16.306C47.0299 15.17 47.9319 14.111 48.7989 13.001L48.5409 12.909C45.7179 12.013 42.8479 11.311 39.8949 11.006C38.4999 10.861 37.0989 10.777 35.6999 10.693C35.2699 10.668 34.8339 10.726 34.4029 10.767C33.3359 10.87 32.2549 10.91 31.2049 11.11C29.4179 11.45 27.7029 12.022 26.1159 12.953C24.7115 13.7794 23.4802 14.8698 22.4899 16.164C21.3829 17.595 20.6359 19.213 20.1009 20.937C19.4689 22.972 19.1669 25.067 19.0859 27.18C19.0149 29.033 18.9799 30.896 19.2999 32.742C19.5369 34.115 19.6959 35.504 19.9579 36.873C20.3102 38.7396 20.7056 40.5977 21.1439 42.446C21.7769 45.09 22.4109 47.736 23.1619 50.348C23.8799 52.849 24.6889 55.328 25.5689 57.778C26.2869 59.777 27.1179 61.739 27.9929 63.674C28.5629 64.935 29.2529 66.149 29.9769 67.329C30.7459 68.583 31.6219 69.773 32.8079 70.683C34.3069 71.831 35.4659 72.01 36.9899 70.749C37.6419 70.21 38.1929 69.542 38.7609 68.907C39.6619 67.899 40.5319 66.861 41.4299 65.848C42.5729 64.559 43.7299 63.283 44.8789 61.998C45.1219 61.727 45.3569 61.447 45.5929 61.173L45.1999 60.83C43.7832 59.4766 42.659 57.847 41.8969 56.042ZM85.2379 17.639C86.1778 18.7308 87.0693 19.8632 87.9099 21.033C89.5213 23.2925 90.8181 25.7604 91.7649 28.369C92.1849 29.524 92.5209 30.69 92.3709 31.953C92.2669 32.838 92.2739 33.735 92.1969 34.625C92.1319 35.365 92.0139 36.101 91.9189 36.839C91.7749 37.951 91.5669 39.061 91.5049 40.178C91.4449 41.242 91.5079 42.316 91.5749 43.381C91.6419 44.464 91.7879 45.542 91.8869 46.622C91.9989 47.849 92.1509 49.073 92.1849 50.302C92.2129 51.31 92.1229 52.323 92.0359 53.331C91.9242 54.5387 91.6309 55.7227 91.1659 56.843C90.8429 57.637 90.4579 58.405 90.0949 59.199L90.2409 59.353L90.4629 59.525L90.6879 59.125C92.5763 56.1538 94.2541 53.0539 95.7089 49.848C96.6417 47.7787 97.5266 45.6881 98.3629 43.578C99.6669 40.2978 100.72 36.9235 101.514 33.484C101.874 31.94 102.15 30.372 102.394 28.804C102.585 27.578 102.743 26.338 102.779 25.101C102.816 23.789 102.744 22.467 102.623 21.159C102.532 20.171 102.288 19.177 101.67 18.372C100.674 17.079 99.5999 15.843 98.2789 14.864C97.1659 14.041 96.0559 13.194 94.8629 12.502C92.9699 11.403 90.9209 10.673 88.7799 10.175C86.6889 9.688 84.5729 9.478 82.4429 9.433C81.1869 9.406 79.9249 9.541 78.6719 9.66C77.5359 9.766 76.4069 9.948 75.2639 10.098C76.4909 10.788 77.7019 11.402 78.8419 12.125C81.2419 13.645 83.3939 15.474 85.2379 17.639ZM54.0579 60.202C54.8329 57.722 55.8899 55.352 56.9129 52.97C57.7439 51.037 58.1969 49.002 58.3479 46.91C58.4229 45.879 58.4029 44.835 58.3519 43.801C58.3022 42.6506 58.1968 41.5032 58.0359 40.363C57.8209 38.909 57.5769 37.454 57.2329 36.027C56.8599 34.483 55.9199 33.407 54.3079 33.01C53.3269 32.769 52.3509 32.779 51.3579 32.936C48.9349 33.317 46.7169 34.21 44.6509 35.518C44.2349 35.781 44.0049 35.994 44.0779 36.589C44.2299 37.853 44.2629 39.137 44.2569 40.412C44.2489 42.217 44.1719 44.022 44.1039 45.826C44.0819 46.413 43.9969 46.999 43.9329 47.584C43.8369 48.48 43.6499 49.375 43.6559 50.27C43.6619 51.192 43.7559 52.135 43.9799 53.028C44.6909 55.86 46.1949 58.176 48.6619 59.811C50.1789 60.817 51.8569 61.323 53.6999 61.42C53.8219 60.997 53.9349 60.598 54.0579 60.202ZM51.1619 35.913C50.8369 35.232 51.0229 34.667 51.7749 34.405C51.9589 34.342 52.1469 34.272 52.3369 34.254C52.5999 34.228 52.8649 34.247 53.1299 34.247C54.0849 34.253 55.0029 34.386 55.7899 34.992C56.2959 35.382 56.4319 35.897 56.1039 36.429C55.6389 37.182 54.9319 37.56 54.0619 37.632C52.6929 37.745 51.7319 37.107 51.1619 35.913ZM89.1369 35.664L89.4479 32.939C89.4929 32.575 89.3019 32.475 88.9959 32.466C88.0329 32.44 87.0709 32.405 86.1079 32.389C85.0239 32.369 83.9669 32.543 82.9629 32.955C81.8489 33.414 81.0009 34.148 80.6539 35.361C80.4 36.2548 80.3199 37.189 80.4179 38.113C80.5533 39.5427 80.8771 40.9482 81.3809 42.293C82.0549 44.086 82.7589 45.878 83.6019 47.596C84.7429 49.921 86.0329 52.173 87.2449 54.463C87.5679 55.074 87.8419 55.713 88.1789 56.426C88.8595 55.0076 89.231 53.4608 89.2689 51.888C89.3019 50.587 89.1989 49.283 89.1229 47.982C89.0759 47.186 88.9629 46.394 88.8859 45.6C88.7789 44.494 88.6149 43.387 88.5889 42.278C88.5639 41.15 88.6439 40.016 88.7399 38.889C88.8299 37.811 89.0079 36.74 89.1369 35.664ZM86.9679 34.79C86.6099 35.777 85.8459 36.335 84.8539 36.498C83.9299 36.651 83.1199 36.31 82.5179 35.572C82.0889 35.047 82.2529 34.426 82.8959 34.07C83.6339 33.662 84.4449 33.559 85.4019 33.497C85.6629 33.544 86.0529 33.585 86.4249 33.69C86.9639 33.842 87.1639 34.25 86.9679 34.79ZM58.3699 65.193C57.8419 64.761 57.1419 64.736 56.6399 65.21C56.0159 65.8 55.4669 66.474 54.9179 67.138C54.2849 67.906 53.6889 68.704 52.8729 69.299C51.6839 70.164 50.2949 70.522 48.9009 70.861C47.7929 71.131 46.6789 71.382 45.5679 71.64L45.5539 71.784C45.8839 71.936 46.2029 72.127 46.5479 72.236C48.2429 72.772 49.9679 73.04 51.7599 72.888C53.0519 72.777 54.2839 72.495 55.4509 71.942C57.0579 71.181 58.2949 69.974 59.3459 68.572C59.5219 68.338 59.6019 67.992 59.6219 67.69C59.6929 66.624 59.1519 65.831 58.3699 65.193ZM89.3149 64.731C88.4839 65.01 87.8079 65.435 87.6069 66.334C87.4699 66.942 87.4199 67.571 87.3669 68.194C87.3569 68.304 87.4939 68.506 87.5979 68.534C88.2379 68.703 88.8819 68.902 89.5359 68.961C90.3409 69.034 91.1589 69.011 91.9689 68.971C92.8429 68.927 93.7229 68.87 94.5849 68.726C96.6139 68.384 98.5789 67.83 100.323 66.678C100.953 66.263 101.575 65.839 102.201 65.417L102.149 65.328C101.482 65.427 100.817 65.548 100.147 65.619C98.7829 65.765 97.4179 65.919 96.0489 65.998C95.3879 66.036 94.7179 65.909 94.0519 65.855C92.9339 65.764 91.8419 65.516 90.8969 64.918C90.3519 64.574 89.8959 64.536 89.3149 64.731Z" fill="#336791"/>
<path d="M2.83496 103.184C4.27075 102.951 5.72343 102.838 7.17796 102.846C9.41296 102.846 11.052 103.366 12.092 104.302C13.054 105.134 13.626 106.408 13.626 107.969C13.626 109.555 13.157 110.803 12.273 111.713C11.077 112.987 9.12696 113.637 6.91696 113.637C6.24096 113.637 5.61696 113.611 5.09796 113.481V120.502H2.83496V103.184ZM5.09796 111.634C5.59196 111.764 6.21596 111.816 6.96996 111.816C9.69896 111.816 11.364 110.49 11.364 108.072C11.364 105.758 9.72596 104.64 7.22996 104.64C6.24196 104.64 5.48796 104.718 5.09796 104.822V111.634ZM27.328 114.104C27.328 118.758 24.103 120.787 21.061 120.787C17.655 120.787 15.029 118.291 15.029 114.312C15.029 110.1 17.785 107.63 21.269 107.63C24.884 107.629 27.328 110.256 27.328 114.104ZM17.344 114.234C17.344 116.99 18.93 119.07 21.166 119.07C23.35 119.07 24.987 117.016 24.987 114.182C24.987 112.05 23.922 109.346 21.217 109.346C18.512 109.346 17.344 111.842 17.344 114.234ZM29.901 118.16C30.577 118.602 31.773 119.07 32.917 119.07C34.581 119.07 35.361 118.238 35.361 117.198C35.361 116.106 34.712 115.508 33.021 114.884C30.759 114.078 29.693 112.83 29.693 111.322C29.693 109.294 31.331 107.63 34.035 107.63C35.309 107.63 36.428 107.994 37.13 108.41L36.558 110.074C35.7841 109.597 34.8929 109.345 33.984 109.346C32.632 109.346 31.878 110.126 31.878 111.062C31.878 112.102 32.633 112.57 34.271 113.194C36.455 114.026 37.573 115.118 37.573 116.99C37.573 119.2 35.857 120.76 32.867 120.76C31.489 120.76 30.215 120.422 29.331 119.902L29.901 118.16ZM43.266 104.301V107.915H46.541V109.657H43.266V116.443C43.266 118.003 43.707 118.887 44.982 118.887C45.4289 118.893 45.8747 118.841 46.308 118.731L46.412 120.447C45.971 120.629 45.268 120.759 44.385 120.759C43.319 120.759 42.46 120.421 41.914 119.797C41.265 119.121 41.03 118.003 41.03 116.521V109.657H39.08V107.915H41.03V104.899L43.266 104.301ZM59.802 107.916C59.749 108.826 59.698 109.84 59.698 111.374V118.68C59.698 121.566 59.126 123.334 57.904 124.427C56.682 125.571 54.914 125.935 53.328 125.935C51.82 125.935 50.156 125.571 49.141 124.895L49.713 123.153C50.545 123.673 51.845 124.141 53.405 124.141C55.745 124.141 57.461 122.919 57.461 119.747V118.343H57.409C56.707 119.513 55.355 120.449 53.405 120.449C50.285 120.449 48.049 117.797 48.049 114.312C48.049 110.048 50.831 107.63 53.717 107.63C55.902 107.63 57.098 108.774 57.644 109.814H57.696L57.8 107.916H59.802ZM57.436 112.882C57.436 112.492 57.41 112.154 57.306 111.842C56.89 110.516 55.772 109.424 54.108 109.424C51.923 109.424 50.364 111.27 50.364 114.182C50.364 116.652 51.612 118.706 54.082 118.706C55.486 118.706 56.76 117.822 57.254 116.366C57.384 115.976 57.437 115.534 57.437 115.144V112.882H57.436ZM63.337 111.842C63.337 110.36 63.311 109.086 63.233 107.916H65.236L65.313 110.386H65.417C65.989 108.696 67.367 107.63 68.901 107.63C69.161 107.63 69.342 107.656 69.55 107.708V109.866C69.2941 109.81 69.0328 109.784 68.771 109.788C67.159 109.788 66.014 111.01 65.703 112.726C65.6388 113.078 65.604 113.434 65.599 113.792V120.5H63.337V111.842ZM72.854 114.624C72.906 117.718 74.881 118.992 77.169 118.992C78.808 118.992 79.795 118.706 80.653 118.342L81.043 119.98C80.237 120.344 78.859 120.76 76.857 120.76C72.983 120.76 70.669 118.212 70.669 114.416C70.669 110.62 72.905 107.629 76.571 107.629C80.679 107.629 81.771 111.243 81.771 113.557C81.771 114.025 81.719 114.389 81.693 114.623H72.854V114.624ZM79.562 112.986C79.587 111.53 78.963 109.268 76.39 109.268C74.076 109.268 73.062 111.4 72.879 112.986H79.562ZM84.371 117.744C85.5967 118.48 86.9971 118.875 88.427 118.888C90.741 118.888 92.093 117.666 92.093 115.898C92.093 114.26 91.157 113.324 88.791 112.414C85.931 111.4 84.163 109.918 84.163 107.448C84.163 104.718 86.425 102.69 89.831 102.69C91.625 102.69 92.925 103.106 93.705 103.548L93.081 105.394C92.0581 104.844 90.9142 104.558 89.753 104.562C87.361 104.562 86.451 105.992 86.451 107.188C86.451 108.826 87.516 109.632 89.935 110.568C92.899 111.713 94.407 113.142 94.407 115.716C94.407 118.42 92.405 120.76 88.271 120.76C86.581 120.76 84.735 120.266 83.798 119.642L84.371 117.744ZM111.957 123.074C109.697 122.481 107.459 121.804 105.249 121.046C104.885 120.916 104.521 120.786 104.183 120.786C100.023 120.63 96.461 117.562 96.461 111.92C96.461 106.304 99.893 102.69 104.625 102.69C109.383 102.69 112.478 106.382 112.478 111.556C112.478 116.054 110.398 118.94 107.486 119.954V120.058C109.228 120.5 111.126 120.916 112.608 121.176L111.957 123.074ZM110.085 111.66C110.085 108.15 108.266 104.535 104.547 104.535C100.725 104.535 98.853 108.071 98.879 111.868C98.853 115.586 100.907 118.94 104.443 118.94C108.058 118.94 110.085 115.664 110.085 111.66ZM115.414 102.976H117.677V118.602H125.165V120.5H115.414V102.976Z" fill="#336791"/>
</svg>
