<svg width="128" height="128" viewBox="0 0 128 128" fill="none" xmlns="http://www.w3.org/2000/svg">
<path d="M0 0H128V128H0V0Z" fill="#2A0634"/>
<path d="M0 0V128H128V0H0ZM123 123H5V5H123V123Z" fill="#E976B9"/>
<path d="M68.9998 47.1001C68.8998 37.7001 61.1998 30.2001 51.7998 30.3001H33.2998V88.8001H42.8998V67.5001H51.1998C60.9998 67.4001 68.9998 59.3001 68.9998 49.4001V47.1001ZM59.3998 50.1001C59.3998 55.1001 55.2998 59.2001 50.2998 59.2001H42.8998V38.5001H50.2998C55.2998 38.5001 59.3998 42.6001 59.3998 47.6001V50.1001ZM77.0998 88.8001V48.9001C77.0998 48.9001 87.2998 43.8001 97.2998 45.1001V53.4001C97.2998 53.4001 90.2998 53.4001 87.1998 54.7001V88.9001H77.0998V88.8001Z" fill="#E976B9"/>
</svg>
