<svg width="128" height="128" viewBox="0 0 128 128" fill="none" xmlns="http://www.w3.org/2000/svg">
<path d="M64 0C47.0261 0 30.7475 6.74284 18.7452 18.7452C6.74284 30.7475 0 47.0261 0 64C0.000265214 80.9737 6.74322 97.2521 18.7455 109.254C30.7478 121.256 47.0263 127.999 64 127.999C80.9737 127.999 97.2521 121.256 109.254 109.253C121.256 97.2512 127.999 80.9727 127.999 63.999C127.999 47.0253 121.256 30.7469 109.253 18.7448C97.2512 6.7427 80.9727 -2.07198e-09 63.999 0L64 0ZM73.906 22.22C80.976 22.206 88.482 24.647 89.739 32.658C90.452 37.204 90.938 44.756 79.779 50.491C88.419 52.826 91.307 58.384 91.407 63.855C91.643 76.698 79.175 84.552 67.952 83.298L68.036 76.817C77.973 77.957 82.798 71.48 83.013 65.396C83.233 59.161 77.772 54.859 68.036 55.05L67.886 48.954C80.074 48.05 83.508 39.611 81.99 34.924C79.913 28.505 73.28 27.32 67.417 29.577L66.415 36.727L61.751 36.577L62.151 24.7C64.437 23.389 69.07 22.23 73.906 22.22ZM60.5 49.215V97.29C63.059 97.106 66.513 97.995 69.642 98.495V103.763L41.896 103.746V98.4C44.886 97.99 47.646 97.306 50.916 97.231V55.972C47.235 55.909 43.771 55.102 42.029 54.502V49.372L60.5 49.217V49.215Z" fill="black"/>
</svg>
