<svg width="129" height="128" viewBox="0 0 129 128" fill="none" xmlns="http://www.w3.org/2000/svg">
<path d="M65 128C100.346 128 129 99.3462 129 64C129 28.6538 100.346 0 65 0C29.6538 0 1 28.6538 1 64C1 99.3462 29.6538 128 65 128Z" fill="black"/>
<path d="M56.0171 11.1499L79.0591 22.5719L56.0171 11.1499Z" fill="#6E8375"/>
<path d="M56.0171 11.1499L79.0591 22.5719" stroke="#123859"/>
<path d="M68.8232 17.6299L77.9532 22.2149L68.8232 17.6299Z" fill="#6E8375"/>
<path d="M68.8232 17.6299L77.9532 22.2149" stroke="white" stroke-width="0.5"/>
<path d="M8.21045 51.26L39.8945 72.162" stroke="#152E44" stroke-width="0.65"/>
<path d="M5.1001 42.8701C7.1051 45.6561 13.4381 53.5131 15.7401 55.8551" stroke="#E5B828" stroke-width="0.5"/>
<path d="M127.79 53.99L108.107 59.128L127.79 53.99Z" fill="#0F212E"/>
<path d="M127.79 53.99L108.107 59.128" stroke="#1B344C" stroke-width="0.3"/>
<path d="M125.68 43.5399L105.042 72.1149L92.6074 42.4819" stroke="#326A9C"/>
<path d="M90.8804 39.5701L103.401 70.2011" stroke="#E5B828" stroke-width="0.514"/>
<path d="M74.9663 105.73L104.3 72.4331L74.9663 105.73Z" fill="#1B344B"/>
<path d="M74.9663 105.73L104.3 72.4331" stroke="#326A9C" stroke-width="0.6"/>
<path d="M84.873 80.96L100.087 106.492L84.873 80.96Z" fill="#326A9C"/>
<path d="M84.873 80.96L100.087 106.492" stroke="#326A9C" stroke-width="0.8"/>
<path d="M86.5305 124.66L75.1475 106.005" stroke="#19344E" stroke-width="0.6"/>
<path d="M100.087 106.49L75.4146 116.875L100.087 106.49Z" fill="#0A2035"/>
<path d="M100.087 106.49L75.4146 116.875" stroke="#0A2035" stroke-width="0.8"/>
<path d="M63.0454 122.24L75.4144 116.882L63.0454 122.24Z" fill="#0A2035"/>
<path d="M63.0454 122.24L75.4144 116.882" stroke="#0A2035" stroke-width="0.4"/>
<path d="M107.891 111.52L99.9526 107.154L107.891 111.52Z" fill="#0A2035"/>
<path d="M107.891 111.52L99.9526 107.154" stroke="#0A2035" stroke-width="0.8"/>
<path d="M100.219 106.63L122.576 55.4331L100.219 106.63Z" fill="#0A2035"/>
<path d="M100.219 106.63L122.576 55.4331" stroke="#10273C" stroke-width="0.8"/>
<path d="M39.6331 73.29L19.8481 101.143" stroke="#152E44" stroke-width="0.64"/>
<path d="M19.7852 67.27L39.4302 72.033" stroke="#152E44" stroke-width="0.8"/>
<path d="M22.7993 66.5701L35.9343 103.964" stroke="#6E8475" stroke-width="0.5"/>
<path d="M12.4624 100.19L22.8174 65.9231" stroke="#D0D0D0" stroke-width="0.5"/>
<path d="M36.4384 104.13L32.6934 67.1831" stroke="#33526D" stroke-width="0.5"/>
<path d="M19.1904 45.77L40.1584 72.03" stroke="#152E44" stroke-width="0.65"/>
<path d="M7.54834 55.3601L20.1163 66.6051" stroke="#0C2135" stroke-width="0.61"/>
<path d="M1.35645 61.58L26.6914 52.885" stroke="#E5B828" stroke-width="0.5"/>
<path d="M1.27734 61.1801L30.3423 51.1421" stroke="#D0D0D0" stroke-width="0.5"/>
<path d="M23.4146 65.23L30.0226 51.72L23.4146 65.23Z" stroke="#E5B828" stroke-width="0.6"/>
<path d="M4.85742 43.0701L22.8004 65.4501" stroke="#D0D0D0" stroke-width="0.5"/>
<path d="M30.2925 51.23L36.3265 101.563" stroke="#D9D9D9" stroke-width="0.5"/>
<path d="M36.8851 104.97V105.417L23.9731 68.47" fill="#6E8375"/>
<path d="M36.8851 104.97V105.417L23.9731 68.47" stroke="#3C5B75" stroke-width="0.5"/>
<path d="M39.894 72.5L43.334 87.581" stroke="#152E44" stroke-width="0.65"/>
<path d="M43.598 87.8401L45.847 97.2991L51.411 126.351M40.291 72.8901L72.967 64.8201" stroke="#152E44" stroke-width="0.55"/>
<path d="M44.9028 67.0801L74.9008 105.519" stroke="#19344E" stroke-width="0.748"/>
<path d="M42.894 103.75V98.405C45.884 97.995 48.645 97.311 51.914 97.235V55.975C48.234 55.913 44.77 55.105 43.028 54.505V49.375L61.5 49.22V97.294C64.059 97.109 67.513 97.999 70.642 98.499V103.767L42.894 103.75Z" fill="white"/>
<path d="M62.7803 14.95L70.7183 48.684" stroke="#081A26" stroke-width="0.714"/>
<path d="M115.95 35.66L87.4434 26.353L115.95 35.66Z" fill="#6E8375"/>
<path d="M115.95 35.66L87.4434 26.353" stroke="#0F2C48" stroke-width="0.5"/>
<path d="M62.7524 36.5799L63.1524 24.7029C68.7794 21.4759 88.6244 19.1689 90.7414 32.6619C91.4544 37.2079 91.9394 44.7589 80.7814 50.4949C89.4214 52.8289 92.3094 58.3879 92.4094 63.8579C92.6454 76.7019 80.1764 84.5559 68.9534 83.3019L69.0374 76.8199C78.9744 77.9599 83.8004 71.4839 84.0154 65.3999C84.2354 59.1639 78.7744 54.8629 69.0374 55.0539L68.8874 48.9579C81.0764 48.0539 84.5104 39.6139 82.9924 34.9269C80.9144 28.5079 74.2824 27.3229 68.4194 29.5809L67.4164 36.7309L62.7524 36.5799Z" fill="white"/>
<path d="M94.511 120.92L76.936 107.02" stroke="#19344E" stroke-width="0.95"/>
<path d="M62.4531 64.8301L71.2771 64.6411" stroke="#0B1620" stroke-width="0.5"/>
<path d="M62.9463 60.52L71.1813 63.232" stroke="#0B1620" stroke-width="0.748"/>
<path d="M72.2061 55.74L73.3841 61.838" stroke="#0B1620" stroke-width="0.713"/>
<path d="M78.3141 58.1799L75.4141 62.0149" stroke="#0B1620" stroke-width="0.348"/>
<path d="M75.04 63.84L79.062 58.929" stroke="#0B1620" stroke-width="0.248"/>
<path d="M76.9111 63.4201L82.5711 62.2041" stroke="#0B1620" stroke-width="0.348"/>
<path d="M10.0273 83.8698L19.7873 67.3298" stroke="#0C2135" stroke-width="0.825"/>
<path d="M19.6614 68.78L16.7354 85.53" stroke="#0C2135" stroke-width="0.41"/>
<path d="M0.990234 67.0098L22.6882 65.5698" stroke="#E5B828" stroke-width="0.4"/>
<path d="M1.29932 67.3999L20.4793 66.1689" stroke="#78A657" stroke-width="0.5"/>
<path d="M5.53027 41.0601L15.9503 44.1811" stroke="#0C2135" stroke-width="0.31"/>
<path d="M18.1323 46.0999L19.4553 57.7419" stroke="#081725" stroke-width="0.31"/>
<path d="M85.9614 49.0798L105.86 22.8088" stroke="#0F2C48" stroke-width="0.714"/>
<path d="M85.2051 24.41L92.8091 12.77" stroke="#123859" stroke-width="0.814"/>
<path d="M66.4844 12.96L96.0514 14.812" stroke="#123859" stroke-width="0.814" stroke-dasharray="6.51 0.81"/>
<path d="M63.4375 13.2L68.1535 13.468" stroke="#123859" stroke-width="0.348" stroke-dasharray="2.09 2.09"/>
<path d="M62.3833 12.7L28.3843 36.645" stroke="#123859" stroke-width="0.714"/>
<path d="M54.7153 10.3999L68.8013 17.6099" stroke="#E5B828" stroke-width="0.714"/>
<path d="M54.3803 10.1699L32.1343 47.8989" stroke="#E5B828" stroke-width="0.314"/>
<path d="M30.2891 51.5701L49.3191 19.644" stroke="#D0D0D0" stroke-width="0.514"/>
<path d="M56.9595 6.47998L63.1775 12.565" stroke="#081A26" stroke-width="0.714"/>
<path d="M69.6002 5.93994L62.9082 13.1409" stroke="#173149" stroke-width="0.714"/>
<path d="M116.06 35.0499L87.5811 25.9109L116.06 35.0499Z" fill="#6E8375"/>
<path d="M116.06 35.0499L87.5811 25.9109" stroke="white" stroke-width="0.7"/>
<path d="M28.1533 109.09L37.3633 105.651L28.1533 109.09Z" fill="#6E8375"/>
<path d="M28.1533 109.09L37.3633 105.651" stroke="#11385E" stroke-width="0.6"/>
<path d="M37.3323 105.98L44.8923 67.3298M37.1133 106.19L73.6643 105.861" stroke="#D9D9D9" stroke-width="0.714"/>
<path d="M47.7544 2.63989L54.8414 10.2469" stroke="#E5B828" stroke-width="0.714"/>
<path d="M53.4555 12.45L49.2075 19.828" stroke="#123859" stroke-width="0.514"/>
<path d="M55.3862 10.56L85.2432 3.89404L55.3862 10.56Z" fill="#06111B"/>
<path d="M55.3862 10.56L85.2432 3.89404" stroke="#E5B828" stroke-width="0.514"/>
<path d="M7.62744 36L27.0074 49.084" stroke="#E5B828" stroke-width="0.4"/>
<path d="M7.65039 35.6101L30.2484 50.8271" stroke="#D0D0D0" stroke-width="0.4"/>
<path d="M12.8574 100.27L21.7104 70.8252" stroke="#79A6CC" stroke-width="0.5"/>
<path d="M22.7783 65.6501L44.6353 66.9151" stroke="white" stroke-width="0.5"/>
<path d="M22.9756 66.0901L43.2716 67.3451" stroke="#32556E" stroke-width="0.5"/>
<path d="M16.1626 56.4202L22.7436 65.0092" stroke="#E5B828" stroke-width="0.5"/>
<path d="M15.7002 56.6201L22.9102 65.5631" stroke="white" stroke-width="0.5"/>
<path d="M30.6094 51.46L44.6394 66.216L30.6094 51.46Z" fill="#6E8375"/>
<path d="M30.6094 51.46L44.6394 66.216" stroke="#405C74" stroke-width="0.5"/>
<path d="M44.5182 66.97L30.3442 51.957L44.5182 66.97Z" fill="#6E8375"/>
<path d="M44.5182 66.97L30.3442 51.957" stroke="white" stroke-width="0.6"/>
<path d="M22.2744 111.9L35.5834 106.947L22.2744 111.9Z" fill="#6E8375"/>
<path d="M22.2744 111.9L35.5834 106.947" stroke="#C4C32D" stroke-width="0.6"/>
<path d="M79.8112 72.49L75.7012 65.929L79.8112 72.49Z" fill="#0F212E"/>
<path d="M79.8112 72.49L75.7012 65.929" stroke="#11385E" stroke-width="0.3"/>
<path d="M65.0001 125.336C98.875 125.336 126.336 97.875 126.336 64.0001C126.336 30.1251 98.875 2.66406 65.0001 2.66406C31.1251 2.66406 3.66406 30.1251 3.66406 64.0001C3.66406 97.875 31.1251 125.336 65.0001 125.336Z" stroke="url(#paint0_linear_3_7310)" stroke-width="5.328"/>
<defs>
<linearGradient id="paint0_linear_3_7310" x1="65.0019" y1="-0.549637" x2="65.0019" y2="128.564" gradientUnits="userSpaceOnUse">
<stop stop-color="white" stop-opacity="0.918"/>
<stop offset="1" stop-color="white" stop-opacity="0.559"/>
</linearGradient>
</defs>
</svg>
