<svg width="128" height="128" viewBox="0 0 128 128" fill="none" xmlns="http://www.w3.org/2000/svg">
<path d="M63.9998 0C50.4971 0 37.5474 5.36393 27.9995 14.9118C18.4517 24.4596 13.0878 37.4093 13.0878 50.912C13.0878 64.4147 18.4517 77.3644 27.9995 86.9122C37.5474 96.4601 50.4971 101.824 63.9998 101.824C70.6856 101.824 77.306 100.507 83.4829 97.9486C89.6599 95.39 95.2724 91.6398 100 86.9122C104.728 82.1846 108.478 76.5721 111.036 70.3952C113.595 64.2183 114.912 57.5979 114.912 50.912C114.912 44.2261 113.595 37.6058 111.036 31.4288C108.478 25.2519 104.728 19.6394 100 14.9118C95.2724 10.1842 89.6599 6.43401 83.4829 3.87545C77.306 1.31688 70.6856 0 63.9998 0V0ZM71.8808 17.676C77.5048 17.665 83.4758 19.607 84.4758 25.98C85.0438 29.596 85.4298 35.604 76.5528 40.166C83.4258 42.023 85.7228 46.446 85.8028 50.797C85.9908 61.014 76.0728 67.262 67.1448 66.265L67.2108 61.109C75.1158 62.016 78.9548 56.863 79.1258 52.023C79.3008 47.063 74.9558 43.641 67.2108 43.793L67.0908 38.943C76.7878 38.225 79.5188 31.511 78.3118 27.782C76.6588 22.676 71.3828 21.733 66.7188 23.529L65.9218 29.216L62.2118 29.096L62.5298 19.649C64.3478 18.606 68.0328 17.684 71.8808 17.676ZM61.2148 39.151V77.395C63.2508 77.248 65.9988 77.955 68.4878 78.353V82.543L46.4158 82.53V78.278C48.7938 77.951 50.9908 77.408 53.5908 77.348V44.526C50.6628 44.476 47.9078 43.834 46.5208 43.357V39.277L61.2158 39.152L61.2148 39.151ZM12.0378 116.27C11.7508 116.27 11.3908 116.27 11.0068 116.222V119.7C11.7268 119.748 12.4698 119.868 13.0938 119.989V121.932H5.80176V119.989C6.49109 119.851 7.18798 119.755 7.88876 119.7V107.971C7.18798 107.917 6.49108 107.82 5.80176 107.683V105.74H7.67376C8.44076 105.74 10.5518 105.644 12.2308 105.644C16.1888 105.644 18.3708 107.491 18.3708 110.657C18.3708 113.799 15.9728 116.27 12.0378 116.27ZM12.0878 108.186C11.7028 108.186 11.3678 108.186 11.0078 108.21V113.607C11.3188 113.655 11.6308 113.679 11.9188 113.679C13.8138 113.655 15.1328 112.599 15.1328 110.849C15.1328 109.218 14.2218 108.186 12.0868 108.186H12.0878ZM28.0638 112.768C25.6168 112.312 24.5138 113.751 24.5138 117.061V119.699C25.2328 119.747 25.9768 119.867 26.5998 119.987V121.931H19.3798V119.987C20.0038 119.867 20.7468 119.748 21.4658 119.699V112.361C20.7743 112.251 20.0783 112.17 19.3798 112.121V110.201C20.8908 110.01 22.7378 109.938 24.3448 109.986C24.3448 110.609 24.2728 111.568 24.1288 112.409H24.1768C24.7528 110.897 25.9048 109.578 28.2068 109.746L28.0638 112.768ZM34.9488 122.171C31.5668 122.171 29.3838 120.421 29.3838 116.174C29.3838 112.457 31.8538 109.77 35.4768 109.77C38.8588 109.77 41.0418 111.642 41.0418 115.743C41.0418 119.485 38.5228 122.171 34.9488 122.171ZM35.2608 112.361C33.8928 112.361 32.5508 113.416 32.5508 115.862C32.5508 118.309 33.4378 119.556 35.2128 119.556C36.7238 119.556 37.8758 118.333 37.8758 115.91C37.8748 113.608 37.0598 112.36 35.2608 112.36V112.361ZM48.3828 122.148C44.9048 122.148 42.6728 120.421 42.6728 116.366C42.6728 112.648 44.5928 109.794 48.9578 109.794C49.8698 109.794 50.8768 109.938 51.7398 110.201V114.039H49.7728C49.6768 113.463 49.5808 112.936 49.5328 112.456C49.2458 112.36 48.8858 112.336 48.5498 112.336C46.8948 112.336 45.8628 113.703 45.8628 115.958C45.8628 118.14 46.6788 119.484 49.0768 119.484C49.9168 119.484 50.8768 119.292 51.5958 118.956L51.8118 121.594C50.8298 121.907 49.7498 122.148 48.3818 122.148H48.3828ZM63.9028 116.462H56.5158C56.4918 118.693 57.5958 119.772 59.8018 119.772C60.9768 119.772 62.2488 119.508 63.2798 119.028L63.5678 121.403C62.2968 121.907 60.7858 122.17 59.2978 122.17C55.5078 122.17 53.3978 120.275 53.3978 116.077C53.3978 112.431 55.4128 109.744 58.9868 109.744C62.4648 109.744 63.9998 112.119 63.9998 115.069C63.9998 115.479 63.9748 115.959 63.9028 116.462ZM58.8908 112.001C57.6188 112.001 56.7308 112.936 56.5638 114.376H60.9538C60.9998 112.888 60.1848 112 58.8898 112L58.8908 112.001ZM69.1818 122.171C68.2708 122.171 67.0468 122.051 66.0638 121.835V118.261H68.0078C68.1278 118.741 68.1998 119.294 68.2478 119.821C68.5828 119.893 69.0628 119.941 69.4478 119.941C70.6708 119.941 71.5098 119.414 71.5098 118.526C71.5098 116.439 65.7528 117.542 65.7528 113.585C65.7528 111.425 67.5048 109.771 70.8858 109.771C71.7738 109.771 72.9008 109.891 73.9808 110.131V113.561H72.0378C71.9178 113.081 71.8457 112.529 71.7978 112.025C71.4424 111.951 71.0807 111.911 70.7178 111.905C69.4228 111.905 68.8228 112.433 68.8228 113.225C68.8228 115.335 74.5798 114.352 74.5798 118.095C74.5798 120.42 72.4918 122.171 69.1818 122.171ZM79.7138 122.171C78.8018 122.171 77.5788 122.051 76.5948 121.835V118.261H78.5388C78.6588 118.741 78.7308 119.294 78.7788 119.821C79.1148 119.893 79.5938 119.941 79.9778 119.941C81.2008 119.941 82.0418 119.414 82.0418 118.526C82.0418 116.439 76.2838 117.542 76.2838 113.585C76.2838 111.425 78.0358 109.771 81.4168 109.771C82.3048 109.771 83.4318 109.891 84.5128 110.131V113.561H82.5698C82.4498 113.081 82.3778 112.529 82.3298 112.025C81.9744 111.951 81.6127 111.911 81.2498 111.905C79.9548 111.905 79.3548 112.433 79.3548 113.225C79.3548 115.335 85.1118 114.352 85.1118 118.095C85.1118 120.42 83.0238 122.171 79.7138 122.171ZM86.5998 121.931V119.988C87.2228 119.868 87.9668 119.748 88.6858 119.699V112.361C87.9939 112.25 87.2976 112.17 86.5988 112.121V110.201C88.1108 110.01 89.9568 109.938 91.7318 109.986V119.7C92.4038 119.748 93.0988 119.868 93.6758 119.989V121.932H86.5988L86.5998 121.931ZM90.1978 108.475C89.9503 108.477 89.7048 108.43 89.4755 108.337C89.2461 108.244 89.0374 108.107 88.8612 107.933C88.6851 107.759 88.545 107.552 88.449 107.324C88.353 107.096 88.3029 106.851 88.3018 106.604C88.3018 105.596 89.1418 104.756 90.1978 104.756C91.2518 104.756 92.1158 105.572 92.1158 106.604C92.1158 107.635 91.2528 108.474 90.1978 108.474V108.475ZM104.135 114.303C104.135 113.056 103.799 112.313 102.671 112.313C101.111 112.313 99.8878 114.088 99.8878 116.174V119.701C100.464 119.749 101.112 119.821 101.64 119.965V121.931H94.7548V119.988C95.3798 119.868 96.1228 119.748 96.8418 119.7V112.36C96.1499 112.249 95.4536 112.169 94.7548 112.12V110.201C96.2668 110.01 98.1128 109.938 99.7198 109.986C99.7198 110.537 99.6728 111.496 99.5518 112.121L99.5768 112.145C100.297 110.729 101.687 109.745 103.63 109.745C106.316 109.745 107.18 111.473 107.18 113.559V119.7C107.876 119.748 108.571 119.868 109.147 119.989V121.932H104.134V114.303H104.135ZM115.506 128C112.34 128 110.396 126.8 110.396 124.473C110.396 123.226 111.236 122.074 112.22 121.596C111.5 121.236 111.044 120.612 111.044 119.773C111.044 118.861 111.619 118.023 112.434 117.663C111.355 117.063 110.684 115.887 110.684 114.328C110.684 111.833 112.483 109.747 116.082 109.747C116.848 109.747 117.521 109.843 118.168 110.011H122.198V112.41H120.59C120.95 112.77 121.19 113.321 121.19 113.993C121.19 116.583 119.39 118.358 115.937 118.358C115.577 118.358 115.169 118.334 114.833 118.261C114.45 118.429 114.282 118.741 114.282 119.029C114.282 119.581 114.737 119.773 116.128 119.773H117.975C120.565 119.773 122.076 120.973 122.076 123.227C122.078 125.817 119.488 128 115.506 128ZM117.137 122.195H114.475C113.802 122.579 113.42 123.227 113.42 123.898C113.42 125.002 114.428 125.649 115.962 125.649C117.952 125.649 119.032 124.809 119.032 123.635C119.032 122.819 118.457 122.195 117.137 122.195ZM115.962 111.977C114.498 111.977 113.611 112.864 113.611 114.135C113.611 115.479 114.451 116.27 115.962 116.27C117.354 116.27 118.265 115.503 118.265 114.16C118.265 112.817 117.449 111.977 115.962 111.977Z" fill="black"/>
</svg>
