<svg width="128" height="128" viewBox="0 0 128 128" fill="none" xmlns="http://www.w3.org/2000/svg">
<path d="M64.0093 101.808C92.123 101.808 114.914 79.0173 114.914 50.9036C114.914 22.7899 92.123 -0.000732422 64.0093 -0.000732422C35.8956 -0.000732422 13.105 22.7899 13.105 50.9036C13.105 79.0173 35.8956 101.808 64.0093 101.808Z" fill="black"/>
<path d="M56.8647 8.86768L75.1919 17.9525L56.8647 8.86768Z" fill="#6E8375"/>
<path d="M56.8647 8.86768L75.1919 17.9525" stroke="#123859" stroke-width="0.79538"/>
<path d="M67.0503 14.0217L74.3121 17.6685L67.0503 14.0217Z" fill="#6E8375"/>
<path d="M67.0503 14.0217L74.3121 17.6685" stroke="white" stroke-width="0.39769"/>
<path d="M18.8398 40.7705L44.0407 57.3955" stroke="#152E44" stroke-width="0.516997"/>
<path d="M16.3662 34.0972C17.9609 36.3131 22.9981 42.5624 24.8291 44.4252" stroke="#E5B828" stroke-width="0.39769"/>
<path d="M113.951 42.9419L98.2959 47.0286L113.951 42.9419Z" fill="#0F212E"/>
<path d="M113.951 42.9419L98.2959 47.0286" stroke="#1B344C" stroke-width="0.238614"/>
<path d="M112.273 34.6301L95.8578 57.3581L85.9673 33.7886" stroke="#326A9C" stroke-width="0.79538"/>
<path d="M84.5938 31.4724L94.5527 55.8357" stroke="#E5B828" stroke-width="0.408825"/>
<path d="M71.936 84.0949L95.2677 57.6111L71.936 84.0949Z" fill="#1B344B"/>
<path d="M71.936 84.0949L95.2677 57.6111" stroke="#326A9C" stroke-width="0.477228"/>
<path d="M79.8159 64.3933L91.9168 84.701L79.8159 64.3933Z" fill="#326A9C"/>
<path d="M79.8159 64.3933L91.9168 84.701" stroke="#326A9C" stroke-width="0.636304"/>
<path d="M81.1339 99.1513L72.0801 84.3135" stroke="#19344E" stroke-width="0.477228"/>
<path d="M91.9161 84.6992L72.2925 92.9592L91.9161 84.6992Z" fill="#0A2035"/>
<path d="M91.9161 84.6992L72.2925 92.9592" stroke="#0A2035" stroke-width="0.636304"/>
<path d="M62.4546 97.2265L72.2926 92.9648L62.4546 97.2265Z" fill="#0A2035"/>
<path d="M62.4546 97.2265L72.2926 92.9648" stroke="#0A2035" stroke-width="0.318152"/>
<path d="M98.1233 88.6999L91.8096 85.2273L98.1233 88.6999Z" fill="#0A2035"/>
<path d="M98.1233 88.6999L91.8096 85.2273" stroke="#0A2035" stroke-width="0.636304"/>
<path d="M92.022 84.8107L109.804 44.0896L92.022 84.8107Z" fill="#0A2035"/>
<path d="M92.022 84.8107L109.804 44.0896" stroke="#10273C" stroke-width="0.636304"/>
<path d="M43.8333 58.2927L28.0967 80.4465" stroke="#152E44" stroke-width="0.509043"/>
<path d="M28.0464 53.5046L43.6716 57.293" stroke="#152E44" stroke-width="0.636304"/>
<path d="M30.4438 52.9478L40.8912 82.6902" stroke="#6E8475" stroke-width="0.39769"/>
<path d="M22.2222 79.6884L30.4583 52.4331" stroke="#D0D0D0" stroke-width="0.39769"/>
<path d="M41.2922 82.8222L38.3135 53.4353" stroke="#33526D" stroke-width="0.39769"/>
<path d="M27.5732 36.4038L44.2508 57.2905" stroke="#152E44" stroke-width="0.516997"/>
<path d="M18.3135 44.0315L28.3098 52.9755" stroke="#0C2135" stroke-width="0.485182"/>
<path d="M13.3887 48.9788L33.5396 42.063" stroke="#E5B828" stroke-width="0.39769"/>
<path d="M13.3257 48.6608L36.4434 40.6768" stroke="#D0D0D0" stroke-width="0.39769"/>
<path d="M30.9331 51.8821L36.189 41.1365L30.9331 51.8821Z" stroke="#E5B828" stroke-width="0.477228"/>
<path d="M16.1733 34.2563L30.4448 52.0569" stroke="#D0D0D0" stroke-width="0.39769"/>
<path d="M36.4038 40.7466L41.2031 80.7804" stroke="#D9D9D9" stroke-width="0.39769"/>
<path d="M41.6474 83.4904V83.8459L31.3774 54.459" fill="#6E8375"/>
<path d="M41.6474 83.4904V83.8459L31.3774 54.459" stroke="#3C5B75" stroke-width="0.39769"/>
<path d="M44.0405 57.6646L46.7766 69.6597" stroke="#152E44" stroke-width="0.516997"/>
<path d="M46.9868 69.8655L48.7756 77.3891L53.2011 100.496M44.3564 57.9746L70.3463 51.5559" stroke="#152E44" stroke-width="0.437459"/>
<path d="M48.0244 53.3535L71.8842 83.9271" stroke="#19344E" stroke-width="0.594944"/>
<path d="M46.4268 82.52V78.2687C48.8049 77.9426 51.001 77.3986 53.6011 77.3381V44.5207C50.6741 44.4714 47.9189 43.8288 46.5333 43.3515V39.2712L61.2256 39.1479V77.3851C63.261 77.2379 66.0082 77.9458 68.497 78.3435V82.5335L46.4268 82.52Z" fill="white"/>
<path d="M62.2437 11.8901L68.5574 38.7215" stroke="#081A26" stroke-width="0.567901"/>
<path d="M104.534 28.3626L81.8604 20.96L104.534 28.3626Z" fill="#6E8375"/>
<path d="M104.534 28.3626L81.8604 20.96" stroke="#0F2C48" stroke-width="0.39769"/>
<path d="M62.2212 29.0942L62.5393 19.6474C67.0149 17.0807 82.7993 15.2458 84.4831 25.9779C85.0502 29.5937 85.4359 35.5996 76.5611 40.1619C83.4332 42.0183 85.7302 46.4398 85.8098 50.7905C85.9975 61.0064 76.0799 67.2533 67.1533 66.2559L67.2202 61.1003C75.1238 62.007 78.9624 56.8561 79.1334 52.017C79.3083 47.057 74.9648 43.6361 67.2202 43.788L67.1008 38.9394C76.7957 38.2203 79.5271 31.5073 78.3197 27.7794C76.6669 22.6739 71.3919 21.7313 66.7286 23.5273L65.9308 29.2143L62.2212 29.0942Z" fill="white"/>
<path d="M87.4817 96.1767L73.5029 85.1208" stroke="#19344E" stroke-width="0.755611"/>
<path d="M61.9834 51.5637L69.0018 51.4133" stroke="#0B1620" stroke-width="0.39769"/>
<path d="M62.3755 48.1357L68.9254 50.2928" stroke="#0B1620" stroke-width="0.594944"/>
<path d="M69.7407 44.3337L70.6777 49.184" stroke="#0B1620" stroke-width="0.567106"/>
<path d="M74.5991 46.2744L72.2925 49.3247" stroke="#0B1620" stroke-width="0.276792"/>
<path d="M71.9946 50.7762L75.1936 46.8701" stroke="#0B1620" stroke-width="0.197254"/>
<path d="M73.4829 50.4423L77.9848 49.4751" stroke="#0B1620" stroke-width="0.276792"/>
<path d="M20.2852 66.7078L28.0481 53.5522" stroke="#0C2135" stroke-width="0.656188"/>
<path d="M27.9479 54.7056L25.6206 68.0282" stroke="#0C2135" stroke-width="0.326106"/>
<path d="M13.0972 53.2977L30.3553 52.1523" stroke="#E5B828" stroke-width="0.318152"/>
<path d="M13.3428 53.608L28.5982 52.6289" stroke="#78A657" stroke-width="0.39769"/>
<path d="M16.708 32.6577L24.9959 35.1401" stroke="#0C2135" stroke-width="0.246568"/>
<path d="M26.7314 36.6663L27.7837 45.9261" stroke="#081725" stroke-width="0.246568"/>
<path d="M80.6816 39.0365L96.5089 18.1411" stroke="#0F2C48" stroke-width="0.567901"/>
<path d="M80.0801 19.4145L86.1281 10.1562" stroke="#123859" stroke-width="0.647439"/>
<path d="M65.1899 10.3074L88.7069 11.7804" stroke="#123859" stroke-width="0.647439" stroke-dasharray="5.18 0.65"/>
<path d="M62.7661 10.4983L66.5171 10.7115" stroke="#123859" stroke-width="0.276792" stroke-dasharray="1.66 1.66"/>
<path d="M61.9279 10.1006L34.8857 29.146" stroke="#123859" stroke-width="0.567901"/>
<path d="M55.8291 8.27124L67.0328 14.0059" stroke="#E5B828" stroke-width="0.567901"/>
<path d="M55.5627 8.08838L37.8687 38.0973" stroke="#E5B828" stroke-width="0.249749"/>
<path d="M36.4009 41.0171L51.537 15.6238" stroke="#D0D0D0" stroke-width="0.408825"/>
<path d="M57.6138 5.15332L62.5594 9.99321" stroke="#081A26" stroke-width="0.567901"/>
<path d="M67.6684 4.72388L62.3457 10.4514" stroke="#173149" stroke-width="0.567901"/>
<path d="M104.621 27.8774L81.9697 20.6084L104.621 27.8774Z" fill="#6E8375"/>
<path d="M104.621 27.8774L81.9697 20.6084" stroke="white" stroke-width="0.556766"/>
<path d="M34.7021 86.7673L42.0276 84.032L34.7021 86.7673Z" fill="#6E8375"/>
<path d="M34.7021 86.7673L42.0276 84.032" stroke="#11385E" stroke-width="0.477228"/>
<path d="M42.0028 84.2937L48.0159 53.5522M41.8286 84.4607L70.9005 84.199" stroke="#D9D9D9" stroke-width="0.567901"/>
<path d="M50.2925 2.09912L55.9293 8.14957" stroke="#E5B828" stroke-width="0.567901"/>
<path d="M54.8265 9.90186L51.4478 15.7702" stroke="#123859" stroke-width="0.408825"/>
<path d="M56.3628 8.39844L80.1104 3.09644L56.3628 8.39844Z" fill="#06111B"/>
<path d="M56.3628 8.39844L80.1104 3.09644" stroke="#E5B828" stroke-width="0.408825"/>
<path d="M18.376 28.6331L33.7904 39.0398" stroke="#E5B828" stroke-width="0.318152"/>
<path d="M18.394 28.3228L36.368 40.426" stroke="#D0D0D0" stroke-width="0.318152"/>
<path d="M22.5356 79.752L29.5771 56.332" stroke="#79A6CC" stroke-width="0.39769"/>
<path d="M30.4268 52.2158L47.8114 53.222" stroke="white" stroke-width="0.39769"/>
<path d="M30.5835 52.5659L46.7265 53.5641" stroke="#32556E" stroke-width="0.39769"/>
<path d="M25.1646 44.8745L30.3989 51.706" stroke="#E5B828" stroke-width="0.39769"/>
<path d="M24.7969 45.0337L30.5316 52.1468" stroke="white" stroke-width="0.39769"/>
<path d="M36.6553 40.9294L47.8145 52.6661L36.6553 40.9294Z" fill="#6E8375"/>
<path d="M36.6553 40.9294L47.8145 52.6661" stroke="#405C74" stroke-width="0.39769"/>
<path d="M47.7185 53.2657L36.4448 41.3247L47.7185 53.2657Z" fill="#6E8375"/>
<path d="M47.7185 53.2657L36.4448 41.3247" stroke="white" stroke-width="0.477228"/>
<path d="M30.0259 89.0023L40.6116 85.0627L30.0259 89.0023Z" fill="#6E8375"/>
<path d="M30.0259 89.0023L40.6116 85.0627" stroke="#C4C32D" stroke-width="0.477228"/>
<path d="M75.79 57.6565L72.521 52.438L75.79 57.6565Z" fill="#0F212E"/>
<path d="M75.79 57.6565L72.521 52.438" stroke="#11385E" stroke-width="0.238614"/>
<path d="M64.0095 99.689C90.953 99.689 112.795 77.847 112.795 50.9036C112.795 23.9601 90.953 2.11816 64.0095 2.11816C37.0661 2.11816 15.2241 23.9601 15.2241 50.9036C15.2241 77.847 37.0661 99.689 64.0095 99.689Z" stroke="url(#paint0_linear_3_7197)" stroke-width="4.23778"/>
<path d="M12.0378 116.274C11.7508 116.274 11.3908 116.274 11.0068 116.226V119.704C11.7268 119.752 12.4698 119.872 13.0938 119.992V121.936H5.80176V119.992C6.42576 119.872 7.16976 119.752 7.88876 119.704V107.974C7.188 107.92 6.4911 107.824 5.80176 107.687V105.744H7.67376C8.44076 105.744 10.5518 105.648 12.2308 105.648C16.1888 105.648 18.3708 107.494 18.3708 110.661C18.3708 113.803 15.9728 116.274 12.0378 116.274ZM12.0878 108.19C11.7028 108.19 11.3678 108.19 11.0078 108.214V113.611C11.3188 113.659 11.6308 113.683 11.9188 113.683C13.8138 113.659 15.1328 112.603 15.1328 110.853C15.1328 109.221 14.2218 108.19 12.0868 108.19H12.0878ZM28.0638 112.771C25.6168 112.316 24.5138 113.755 24.5138 117.065V119.703C25.2328 119.751 25.9768 119.871 26.5998 119.991V121.934H19.3798V119.991C20.0038 119.871 20.7478 119.751 21.4668 119.703V112.364C20.7749 112.253 20.0786 112.173 19.3798 112.124V110.205C20.8908 110.013 22.7378 109.941 24.3448 109.989C24.3448 110.613 24.2728 111.572 24.1288 112.412H24.1768C24.7528 110.901 25.9048 109.582 28.2068 109.749L28.0638 112.771ZM34.9488 122.175C31.5668 122.175 29.3838 120.425 29.3838 116.178C29.3838 112.46 31.8538 109.774 35.4768 109.774C38.8588 109.774 41.0418 111.645 41.0418 115.747C41.0418 119.489 38.5228 122.175 34.9488 122.175ZM35.2608 112.365C33.8928 112.365 32.5508 113.42 32.5508 115.866C32.5508 118.312 33.4378 119.56 35.2128 119.56C36.7238 119.56 37.8758 118.336 37.8758 115.914C37.8758 113.612 37.0598 112.364 35.2608 112.364V112.365ZM48.3828 122.151C44.9048 122.151 42.6728 120.424 42.6728 116.37C42.6728 112.652 44.5928 109.797 48.9578 109.797C49.8698 109.797 50.8768 109.941 51.7408 110.205V114.043H49.7728C49.6778 113.467 49.5818 112.939 49.5328 112.459C49.2458 112.364 48.8858 112.339 48.5498 112.339C46.8948 112.339 45.8628 113.706 45.8628 115.961C45.8628 118.144 46.6788 119.488 49.0768 119.488C49.9168 119.488 50.8768 119.295 51.5958 118.959L51.8118 121.598C50.8298 121.91 49.7498 122.151 48.3818 122.151H48.3828ZM63.9038 116.466H56.5158C56.4918 118.696 57.5958 119.776 59.8018 119.776C60.9768 119.776 62.2488 119.512 63.2808 119.032L63.5678 121.406C62.2968 121.91 60.7858 122.173 59.2978 122.173C55.5088 122.173 53.3978 120.278 53.3978 116.081C53.3978 112.434 55.4128 109.748 58.9868 109.748C62.4648 109.748 63.9998 112.122 63.9998 115.073C63.9998 115.483 63.9758 115.962 63.9038 116.466ZM58.8908 112.004C57.6198 112.004 56.7308 112.94 56.5638 114.379H60.9538C61.0008 112.892 60.1858 112.004 58.8908 112.004ZM69.1828 122.175C68.2708 122.175 67.0478 122.055 66.0648 121.839V118.265H68.0078C68.1278 118.745 68.1998 119.297 68.2478 119.825C68.5838 119.896 69.0628 119.945 69.4478 119.945C70.6708 119.945 71.5098 119.417 71.5098 118.53C71.5098 116.442 65.7528 117.546 65.7528 113.588C65.7528 111.429 67.5048 109.775 70.8868 109.775C71.7738 109.775 72.9008 109.895 73.9808 110.135V113.565H72.0378C71.9178 113.085 71.8457 112.533 71.7978 112.029C71.4424 111.955 71.0807 111.915 70.7178 111.909C69.4228 111.909 68.8238 112.437 68.8238 113.228C68.8238 115.338 74.5808 114.355 74.5808 118.098C74.5798 120.423 72.4928 122.175 69.1828 122.175ZM79.7118 122.175C78.7998 122.175 77.5768 122.055 76.5928 121.839V118.265H78.5358C78.6558 118.745 78.7288 119.297 78.7758 119.825C79.1128 119.896 79.5918 119.945 79.9758 119.945C81.1988 119.945 82.0388 119.417 82.0388 118.53C82.0388 116.442 76.2818 117.546 76.2818 113.588C76.2818 111.429 78.0338 109.775 81.4148 109.775C82.3028 109.775 83.4288 109.895 84.5098 110.135V113.565H82.5668C82.4468 113.085 82.3748 112.533 82.3268 112.029C81.9714 111.955 81.6097 111.915 81.2468 111.909C79.9528 111.909 79.3528 112.437 79.3528 113.228C79.3528 115.338 85.1088 114.355 85.1088 118.098C85.1088 120.423 83.0218 122.175 79.7118 122.175ZM86.6018 121.935V119.992C87.2911 119.854 87.988 119.758 88.6888 119.703V112.364C87.9969 112.253 87.3006 112.173 86.6018 112.124V110.205C88.1138 110.013 89.9598 109.941 91.7348 109.989V119.704C92.3883 119.758 93.0377 119.854 93.6788 119.992V121.936H86.6018V121.935ZM90.2008 108.478C89.9534 108.48 89.708 108.433 89.4787 108.34C89.2494 108.248 89.0407 108.11 88.8646 107.937C88.6884 107.763 88.5483 107.556 88.4523 107.328C88.3562 107.1 88.3061 106.855 88.3048 106.608C88.3048 105.6 89.1448 104.76 90.2008 104.76C91.2548 104.76 92.1188 105.576 92.1188 106.607C92.1188 107.638 91.2558 108.478 90.2008 108.478ZM104.135 114.307C104.135 113.059 103.799 112.317 102.671 112.317C101.111 112.317 99.8878 114.091 99.8878 116.177V119.704C100.464 119.752 101.111 119.824 101.64 119.968V121.935H94.7548V119.992C95.3788 119.872 96.1228 119.752 96.8418 119.704V112.364C96.1499 112.253 95.4536 112.173 94.7548 112.124V110.205C96.2668 110.013 98.1128 109.941 99.7198 109.989C99.7198 110.541 99.6728 111.501 99.5518 112.124L99.5768 112.148C100.296 110.733 101.687 109.749 103.63 109.749C106.316 109.749 107.18 111.477 107.18 113.563V119.703C107.875 119.752 108.571 119.872 109.147 119.993V121.936H104.134V114.306L104.135 114.307ZM115.504 128.004C112.337 128.004 110.394 126.804 110.394 124.477C110.394 123.23 111.234 122.078 112.218 121.6C111.498 121.24 111.042 120.615 111.042 119.776C111.042 118.865 111.617 118.026 112.432 117.666C111.353 117.066 110.682 115.891 110.682 114.332C110.682 111.837 112.481 109.751 116.079 109.751C116.846 109.751 117.519 109.847 118.166 110.014H122.196V112.414H120.588C120.948 112.774 121.188 113.325 121.188 113.996C121.188 116.587 119.388 118.362 115.935 118.362C115.575 118.362 115.167 118.338 114.831 118.265C114.447 118.433 114.279 118.745 114.279 119.033C114.279 119.585 114.735 119.776 116.126 119.776H117.972C120.563 119.776 122.074 120.976 122.074 123.231C122.075 125.821 119.486 128.004 115.504 128.004ZM117.134 122.199H114.474C113.801 122.583 113.419 123.23 113.419 123.902C113.419 125.006 114.426 125.652 115.96 125.652C117.951 125.652 119.03 124.813 119.03 123.639C119.031 122.823 118.455 122.199 117.136 122.199H117.134ZM115.96 111.98C114.496 111.98 113.608 112.868 113.608 114.139C113.608 115.482 114.448 116.274 115.96 116.274C117.351 116.274 118.262 115.506 118.262 114.164C118.262 112.822 117.447 111.98 115.96 111.98Z" fill="black"/>
<defs>
<linearGradient id="paint0_linear_3_7197" x1="64.011" y1="-0.437949" x2="64.011" y2="102.256" gradientUnits="userSpaceOnUse">
<stop stop-color="white" stop-opacity="0.918"/>
<stop offset="1" stop-color="white" stop-opacity="0.559"/>
</linearGradient>
</defs>
</svg>
