<svg width="128" height="128" viewBox="0 0 128 128" fill="none" xmlns="http://www.w3.org/2000/svg">
<path d="M63.6598 2.47705C97.1368 2.48405 124.617 29.7731 124.574 62.9771C124.531 96.6801 97.1638 123.594 62.9608 123.57C29.5198 123.547 2.48383 96.2271 2.50783 62.4841C2.52983 29.4881 30.0658 2.47005 63.6598 2.47705ZM45.1558 23.7271C45.9218 27.5041 45.1798 31.0271 44.0428 34.4921C43.2578 36.8911 42.1718 39.2031 41.5228 41.6371C40.4528 45.6451 39.2428 49.6761 38.7968 53.7731C38.1568 59.6681 40.4728 64.8591 44.4368 70.0231L26.2148 66.1881C26.2458 66.7621 26.2148 66.9801 26.2768 67.1641C28.0038 72.2381 31.0428 76.5121 34.4488 80.5431C34.8088 80.9691 35.6288 81.187 36.2388 81.187C54.4058 81.2231 72.5738 81.2191 90.7418 81.1951C91.3048 81.1951 92.0588 81.09 92.4018 80.7271C96.2968 76.633 99.2728 71.9691 101.137 66.0971L81.8468 69.8751C83.1208 67.3791 84.5698 65.1871 85.4068 62.7771C88.2618 54.5351 87.0778 46.5671 82.9798 39.0511C79.6908 33.0201 76.6558 27.0161 78.2968 19.7461C74.8238 23.1801 73.4878 27.5461 72.6408 32.0461C71.8088 36.4801 71.3158 40.9761 70.6708 45.4761C70.5778 45.3401 70.4608 45.2381 70.4408 45.1211C70.3594 44.6504 70.3033 44.1757 70.2728 43.6991C69.8788 36.3321 68.4408 29.2341 65.4028 22.4531C63.6168 18.4651 61.6448 14.3831 63.4878 9.62105C62.2418 10.2811 61.1128 10.9341 60.3048 11.8671C57.8948 14.6521 56.8978 17.9971 56.6408 21.6601C56.4208 24.7901 56.1208 27.9341 55.5388 31.0121C54.9288 34.246 53.9648 37.4141 51.7888 40.3871C50.9138 34.0391 50.8158 27.7571 45.1558 23.7271ZM91.9998 86.7501H35.0158V96.6481H91.9998V86.7501ZM46.3158 101.766C46.2698 110.008 54.6638 116.148 65.0388 115.703C73.6408 115.332 81.2498 108.566 80.5978 101.766H46.3158Z" fill="#E75225"/>
</svg>
