<svg width="128" height="128" viewBox="0 0 128 128" fill="none" xmlns="http://www.w3.org/2000/svg">
<path fill-rule="evenodd" clip-rule="evenodd" d="M1.207 119.926V126.726H0V109.828H4.352C6.344 109.828 7.824 110.25 8.824 111.128C9.82 112.004 10.336 113.242 10.336 114.844C10.3358 115.552 10.1909 116.252 9.91 116.902C9.64469 117.518 9.24252 118.066 8.734 118.504C8.219 118.957 7.586 119.289 6.859 119.562C6.133 119.805 5.289 119.926 4.352 119.926H1.207ZM1.207 118.957H4.352C5.105 118.957 5.77 118.867 6.344 118.657C6.918 118.445 7.434 118.172 7.855 117.809C8.281 117.445 8.582 117.023 8.793 116.508C9.003 116.023 9.125 115.48 9.125 114.875C9.125 113.575 8.735 112.578 7.918 111.883C7.133 111.188 5.922 110.824 4.352 110.824H1.207V118.957ZM14.383 126.757V114.875H14.988C15.109 114.875 15.23 114.906 15.289 114.969C15.352 115.027 15.379 115.117 15.379 115.239L15.473 117.75C15.863 116.781 16.348 116.023 17.012 115.48C17.648 114.937 18.434 114.664 19.367 114.664C19.73 114.664 20.062 114.695 20.367 114.785C20.668 114.875 20.941 114.969 21.211 115.117L21.063 115.902C21.031 116.023 20.969 116.086 20.82 116.086C20.758 116.086 20.7 116.055 20.61 116.023C20.52 115.996 20.395 115.965 20.277 115.903C20.157 115.875 19.973 115.843 19.793 115.785C19.5737 115.746 19.3517 115.726 19.129 115.723C18.219 115.723 17.496 115.996 16.922 116.57C16.348 117.113 15.863 117.93 15.532 118.988V126.727L14.383 126.757ZM29.645 114.664C30.4295 114.659 31.2078 114.803 31.938 115.09C32.605 115.39 33.18 115.785 33.633 116.328C34.1082 116.897 34.4664 117.554 34.687 118.262C34.93 119.02 35.051 119.863 35.051 120.801C35.051 121.738 34.93 122.586 34.687 123.312C34.4664 124.02 34.1082 124.677 33.633 125.246C33.18 125.789 32.605 126.184 31.937 126.484C31.273 126.758 30.52 126.91 29.645 126.91C28.8592 126.915 28.0796 126.771 27.348 126.484C26.6901 126.218 26.1086 125.793 25.656 125.246C25.1797 124.678 24.8201 124.021 24.598 123.313C24.355 122.555 24.234 121.711 24.234 120.801C24.234 119.863 24.355 119.02 24.598 118.261C24.8201 117.553 25.1797 116.897 25.656 116.328C26.106 115.785 26.684 115.391 27.348 115.09C28.012 114.816 28.797 114.664 29.645 114.664ZM29.645 126.004C30.34 126.004 30.973 125.883 31.488 125.641C32.031 125.398 32.453 125.035 32.816 124.582C33.18 124.129 33.418 123.582 33.602 122.949C33.7904 122.249 33.8823 121.526 33.875 120.801C33.8826 120.077 33.7908 119.355 33.602 118.656C33.418 118.02 33.148 117.446 32.816 116.992C32.453 116.539 32.031 116.176 31.488 115.934C30.941 115.691 30.34 115.57 29.645 115.57C28.949 115.57 28.313 115.691 27.801 115.934C27.258 116.176 26.832 116.539 26.469 116.992C26.0829 117.479 25.8142 118.048 25.684 118.656C25.504 119.289 25.414 120.016 25.414 120.801C25.414 121.586 25.504 122.312 25.684 122.949C25.867 123.582 26.137 124.129 26.469 124.582C26.832 125.035 27.258 125.398 27.801 125.641C28.313 125.883 28.918 126.004 29.645 126.004ZM38.98 126.758V114.875H39.613C39.824 114.875 39.945 114.969 39.977 115.18L40.097 116.902C40.3247 116.58 40.5782 116.277 40.855 115.996C41.3531 115.466 41.9766 115.07 42.668 114.844C43 114.727 43.363 114.695 43.723 114.695C44.602 114.695 45.297 114.938 45.809 115.449C46.324 115.965 46.688 116.66 46.867 117.566C47.02 117.082 47.199 116.66 47.473 116.296C47.743 115.934 48.016 115.633 48.348 115.422C48.6723 115.177 49.0433 115.002 49.438 114.906C49.828 114.816 50.218 114.726 50.645 114.726C51.219 114.726 51.762 114.816 52.215 115.027C52.699 115.207 53.094 115.512 53.425 115.902C53.758 116.297 54 116.75 54.18 117.324C54.36 117.871 54.45 118.504 54.45 119.23V126.82H53.305V119.23C53.305 118.082 53.063 117.176 52.547 116.57C52.035 115.965 51.34 115.664 50.402 115.664C49.98 115.664 49.586 115.723 49.222 115.902C48.863 116.086 48.5 116.266 48.227 116.57C47.926 116.871 47.711 117.234 47.531 117.688C47.351 118.141 47.289 118.656 47.289 119.23V126.82H46.141V119.23C46.141 118.082 45.898 117.203 45.445 116.57C44.992 115.965 44.297 115.664 43.422 115.664C42.789 115.664 42.184 115.844 41.641 116.234C41.094 116.629 40.613 117.144 40.161 117.84V126.82L38.98 126.758ZM63.395 114.664C64.062 114.664 64.695 114.785 65.238 114.996C65.7929 115.228 66.296 115.568 66.718 115.996C67.145 116.449 67.477 116.992 67.688 117.629C67.93 118.262 68.051 119.019 68.051 119.836C68.051 120.016 68.02 120.136 67.957 120.196C67.898 120.258 67.836 120.289 67.719 120.289H59.137V120.5C59.137 121.375 59.227 122.164 59.437 122.86C59.648 123.523 59.949 124.098 60.313 124.55C60.707 125.004 61.16 125.367 61.703 125.578C62.246 125.82 62.852 125.91 63.516 125.91C64.121 125.91 64.633 125.852 65.059 125.7C65.48 125.578 65.875 125.426 66.145 125.246C66.449 125.094 66.688 124.946 66.871 124.793C67.051 124.672 67.171 124.582 67.261 124.582C67.355 124.582 67.445 124.613 67.504 124.703L67.809 125.093C67.625 125.336 67.355 125.547 67.051 125.762C66.7216 125.983 66.3675 126.165 65.996 126.305C65.5935 126.462 65.1779 126.584 64.754 126.668C64.3165 126.753 63.8716 126.793 63.426 126.789C62.6699 126.794 61.9201 126.65 61.219 126.367C60.5567 126.091 59.9671 125.666 59.496 125.125C59.016 124.582 58.652 123.918 58.379 123.129C58.105 122.344 57.989 121.437 57.989 120.437C57.989 119.594 58.105 118.805 58.348 118.082C58.5781 117.395 58.9372 116.759 59.406 116.207C59.8695 115.679 60.4485 115.265 61.098 114.997C61.793 114.817 62.551 114.664 63.395 114.664ZM63.395 115.512C62.8386 115.503 62.2853 115.596 61.762 115.785C61.282 115.965 60.855 116.235 60.496 116.598C60.129 116.97 59.8406 117.412 59.648 117.898C59.4224 118.439 59.2804 119.011 59.227 119.594H67.051C67.0592 119.009 66.9679 118.426 66.781 117.871C66.598 117.355 66.355 116.934 66.055 116.598C65.754 116.266 65.359 115.996 64.906 115.785C64.4245 115.598 63.9115 115.505 63.395 115.512ZM74.789 126.937C73.973 126.937 73.367 126.727 72.914 126.273C72.461 125.82 72.25 125.125 72.25 124.219V116.086H70.559C70.4831 116.084 70.409 116.062 70.344 116.023C70.3149 115.996 70.2919 115.964 70.2763 115.928C70.2608 115.891 70.2532 115.852 70.254 115.813V115.359L72.281 115.207L72.551 110.945C72.551 110.887 72.582 110.825 72.641 110.765C72.6677 110.735 72.7007 110.711 72.7377 110.695C72.7747 110.679 72.8147 110.671 72.855 110.672H73.398V115.207H77.145V116.055H73.398V124.129C73.398 124.461 73.426 124.73 73.52 124.977C73.61 125.215 73.73 125.398 73.852 125.547C73.972 125.699 74.184 125.82 74.363 125.883C74.574 125.941 74.789 126.003 75 126.003C75.27 126.003 75.543 125.973 75.754 125.883C75.964 125.789 76.148 125.699 76.297 125.609C76.4288 125.533 76.5507 125.442 76.66 125.336C76.7224 125.266 76.8089 125.223 76.902 125.215C76.965 125.215 77.023 125.246 77.082 125.335L77.387 125.852C77.0612 126.197 76.6708 126.474 76.238 126.668C75.785 126.82 75.301 126.938 74.789 126.938V126.937ZM81.043 126.757V109.375H82.191V116.902C82.7162 116.254 83.3491 115.702 84.062 115.27C84.7817 114.864 85.5957 114.655 86.422 114.664C87.086 114.664 87.66 114.754 88.145 114.969C88.6314 115.175 89.0624 115.493 89.403 115.897C89.7435 116.3 89.9841 116.779 90.105 117.293C90.289 117.84 90.348 118.473 90.348 119.168V126.758H89.199V119.168C89.199 118.051 88.961 117.176 88.445 116.539C87.934 115.902 87.145 115.602 86.117 115.602C85.3512 115.601 84.5999 115.81 83.945 116.207C83.277 116.597 82.675 117.176 82.16 117.871V126.789H81.043V126.757ZM99.383 114.664C100.051 114.664 100.683 114.785 101.227 114.996C101.782 115.228 102.285 115.568 102.707 115.996C103.133 116.449 103.465 116.992 103.676 117.629C103.918 118.262 104.039 119.019 104.039 119.836C104.039 120.016 104.008 120.136 103.945 120.196C103.887 120.258 103.825 120.289 103.707 120.289H95.152V120.5C95.152 121.375 95.246 122.164 95.457 122.86C95.668 123.523 95.969 124.098 96.332 124.55C96.727 125.004 97.18 125.367 97.722 125.578C98.266 125.82 98.872 125.91 99.535 125.91C100.141 125.91 100.652 125.852 101.078 125.7C101.5 125.578 101.895 125.426 102.164 125.246C102.469 125.094 102.707 124.946 102.891 124.793C103.071 124.672 103.191 124.582 103.281 124.582C103.375 124.582 103.465 124.613 103.523 124.703L103.824 125.093C103.644 125.336 103.375 125.547 103.07 125.762C102.77 125.972 102.406 126.152 102.012 126.305C101.611 126.463 101.196 126.584 100.773 126.668C100.336 126.753 99.8906 126.793 99.445 126.789C98.6888 126.794 97.939 126.651 97.238 126.367C96.5761 126.091 95.9868 125.666 95.516 125.125C95.031 124.582 94.672 123.918 94.398 123.129C94.125 122.344 94.004 121.437 94.004 120.437C94.004 119.594 94.125 118.805 94.367 118.082C94.5974 117.395 94.9569 116.759 95.426 116.207C95.8892 115.679 96.4679 115.265 97.117 114.997C97.781 114.817 98.539 114.664 99.383 114.664ZM99.383 115.512C98.781 115.512 98.238 115.602 97.753 115.785C97.2761 115.961 96.8431 116.238 96.484 116.598C96.1173 116.97 95.8292 117.412 95.637 117.898C95.4111 118.439 95.2688 119.011 95.215 119.594H103.012C103.012 118.957 102.918 118.383 102.738 117.871C102.558 117.355 102.316 116.934 102.012 116.598C101.711 116.266 101.316 115.996 100.863 115.785C100.392 115.598 99.8895 115.505 99.383 115.512ZM108.418 114.875V122.465C108.418 123.582 108.66 124.461 109.176 125.094C109.687 125.73 110.473 126.031 111.5 126.031C112.29 126.031 113.012 125.821 113.676 125.426C114.344 125.036 114.946 124.492 115.488 123.796V114.875H116.637V126.758H116.004C115.793 126.758 115.672 126.668 115.672 126.457L115.551 124.703C115.028 125.374 114.382 125.938 113.648 126.367C112.922 126.789 112.137 127 111.23 127C110.562 127 109.992 126.91 109.508 126.7C109.031 126.495 108.608 126.184 108.27 125.79C107.938 125.398 107.695 124.945 107.512 124.371C107.332 123.824 107.27 123.191 107.27 122.496V114.906L108.418 114.875ZM127.488 116.359C127.426 116.48 127.336 116.539 127.215 116.539C127.125 116.539 127.004 116.48 126.883 116.387C126.73 116.297 126.551 116.176 126.34 116.055C126.072 115.911 125.787 115.8 125.492 115.723C125.097 115.618 124.69 115.567 124.282 115.57C123.882 115.567 123.485 115.629 123.105 115.754C122.779 115.865 122.474 116.027 122.199 116.234C121.957 116.449 121.746 116.691 121.625 116.961C121.473 117.234 121.415 117.535 121.415 117.84C121.415 118.203 121.504 118.535 121.684 118.777C121.867 119.02 122.137 119.23 122.441 119.41C122.742 119.594 123.105 119.742 123.496 119.863C123.891 119.984 124.281 120.105 124.707 120.258C125.129 120.378 125.523 120.531 125.914 120.68C126.309 120.832 126.672 121.043 126.973 121.254C127.273 121.496 127.547 121.77 127.727 122.102C127.91 122.434 128 122.859 128 123.312C128 123.824 127.91 124.309 127.727 124.762C127.547 125.215 127.273 125.609 126.914 125.91C126.523 126.237 126.085 126.504 125.614 126.7C125.098 126.91 124.496 126.969 123.859 126.969C123.016 126.969 122.32 126.848 121.715 126.579C121.109 126.305 120.566 125.973 120.082 125.519L120.355 125.125C120.388 125.07 120.429 125.02 120.477 124.977C120.54 124.938 120.613 124.916 120.687 124.914C120.777 124.914 120.93 124.977 121.082 125.094C121.23 125.214 121.414 125.367 121.684 125.52C121.926 125.672 122.23 125.79 122.59 125.941C122.953 126.062 123.406 126.125 123.922 126.125C124.434 126.125 124.855 126.062 125.25 125.91C125.645 125.762 125.945 125.578 126.219 125.336C126.457 125.094 126.672 124.824 126.793 124.492C126.914 124.156 127.003 123.824 127.003 123.461C127.003 123.071 126.914 122.738 126.73 122.465C126.55 122.191 126.277 121.98 125.977 121.801C125.644 121.608 125.288 121.456 124.918 121.348C124.512 121.226 124.11 121.095 123.711 120.953C123.285 120.832 122.895 120.68 122.5 120.531C122.121 120.393 121.764 120.199 121.441 119.957C121.141 119.715 120.867 119.441 120.687 119.109C120.507 118.777 120.414 118.352 120.414 117.871C120.414 117.445 120.508 117.055 120.687 116.661C120.867 116.266 121.141 115.934 121.473 115.633C121.83 115.314 122.253 115.077 122.711 114.938C123.195 114.754 123.738 114.664 124.344 114.664C125.07 114.664 125.704 114.754 126.277 114.969C126.852 115.179 127.367 115.512 127.82 115.934L127.488 116.359Z" fill="#9C9C9D"/>
<path fill-rule="evenodd" clip-rule="evenodd" d="M63.4529 0C91.3549 0 114.234 22.668 114.199 50.223C114.16 78.23 91.3549 100.559 62.8519 100.559C35.0229 100.523 12.4839 77.855 12.4839 49.848C12.5199 22.44 35.4729 0 63.4539 0H63.4529ZM48.0399 17.633C48.6769 20.75 48.0399 23.683 47.1029 26.578C46.4659 28.57 45.5239 30.488 45.0009 32.52C44.1029 35.863 43.0869 39.207 42.7159 42.594C42.1879 47.48 44.1029 51.804 47.4029 56.09C42.0399 54.96 37.1649 53.945 32.2119 52.895C32.2509 53.383 32.2119 53.57 32.2509 53.719C33.6769 57.929 36.2239 61.465 39.0749 64.848C39.3759 65.184 40.0519 65.375 40.5749 65.375C55.7279 65.41 70.8409 65.41 85.9929 65.375C86.4809 65.375 87.0829 65.297 87.3829 64.996C90.6459 61.613 93.1229 57.742 94.6569 52.856C89.1069 53.946 83.8209 54.961 78.5669 55.976C79.6179 53.906 80.8569 52.066 81.5319 50.074C83.8959 43.23 82.9189 36.614 79.5049 30.375C76.7669 25.375 74.2199 20.375 75.6059 14.359C72.7199 17.219 71.5949 20.824 70.8799 24.586C70.1689 28.27 69.7939 31.992 69.2309 35.75C69.1529 35.637 69.0439 35.562 69.0439 35.45C68.9659 35.074 68.9309 34.66 68.8919 34.285C68.5559 28.156 67.3559 22.254 64.8409 16.652C63.3409 13.344 61.6919 9.961 63.2279 6.016C62.1769 6.578 61.2429 7.106 60.5679 7.895C58.5399 10.227 57.7159 12.969 57.5279 16.015C57.3409 18.609 57.0789 21.238 56.6259 23.797C56.1029 26.465 55.3129 29.097 53.5159 31.578C52.8409 26.203 52.7659 20.977 48.0399 17.633ZM87.0829 69.996H39.6029V78.23H87.0829V69.996ZM49.0129 82.441C48.9779 89.281 55.9889 94.395 64.6179 94.02C71.7819 93.719 78.1179 88.078 77.5949 82.441H49.0129Z" fill="#E75225"/>
</svg>
