<svg width="128" height="128" viewBox="0 0 128 128" fill="none" xmlns="http://www.w3.org/2000/svg">
<path d="M86.1 47.5C94.3 56 94.8 66.3 94.8 68.7H33.7C33.7 66.6 34.2 55.2 43.5 46.4C52 38.4 62 38.1 64.3 38.1C66.3 38.1 77.3 38.4 86.1 47.5ZM125.9 64C125.9 98.2 98.2 125.9 64 125.9C29.8 125.9 2 98.2 2 64C2 29.8 29.8 2 64 2C98.2 2 125.9 29.8 125.9 64ZM110.7 80.3C110.9 77.9 111 74.4 110.7 70.3V70.2H101.8V67H110.4C109.7 59 107.8 47.1 99.1 37C98.9 36.7 98.6 36.5 98.4 36.2L91.6 43L89.3 40.7L96.1 33.9C85 23.3 70.8 21.6 65.8 21.3V30.6H62.6V21.2C57.7 21.4 43.5 23 32.1 34.1L38.6 40.6L36.4 43L29.9 36.5C20.7 46.8 18.6 59.1 17.8 67H26.1V70.2H17.5V70.6C17.2 74.6 17.3 78 17.5 80.3H110.7Z" fill="#B7111D"/>
</svg>
