<svg width="128" height="128" viewBox="0 0 128 128" fill="none" xmlns="http://www.w3.org/2000/svg">
<path d="M18.7999 59.5C20.3999 61.2 20.4999 63.3 20.5999 63.8H8.2999C8.2999 63.4 8.3999 61.1 10.2999 59.3C11.9999 57.7 13.9999 57.6 14.4999 57.6C14.7999 57.6 17.0999 57.7 18.7999 59.5ZM26.8999 62.8C26.8999 69.7 21.2999 75.3001 14.3999 75.3001C7.4999 75.3001 1.8999 69.7 1.8999 62.8C1.8999 55.9 7.4999 50.3 14.3999 50.3C21.2999 50.3 26.8999 55.9 26.8999 62.8ZM23.7999 66.1C23.7999 65.6 23.8999 64.9 23.7999 64.1H21.9999V63.5H23.6999C23.5999 61.9 23.1999 59.5001 21.3999 57.4001C21.3999 57.3001 21.2999 57.3001 21.2999 57.2001L19.9999 58.6L19.4999 58.1L20.8999 56.7001C18.5999 54.6001 15.7999 54.2001 14.7999 54.2001V56.1H14.1999V54.2001C13.1999 54.2001 10.2999 54.6 7.9999 56.8L9.2999 58.1L8.7999 58.6L7.4999 57.3C5.5999 59.4 5.1999 61.9 5.0999 63.5H6.7999V64.1H4.9999V64.2C4.8999 65 4.9999 65.7 4.9999 66.2L23.7999 66.1ZM36.8999 55.9001C36.2999 55.8001 35.6999 55.7001 35.1999 55.7001H30.5999V70H32.8999V64.7C33.4999 64.7 33.9999 64.8 34.5999 64.7C35.4999 64.6 36.4999 64.5 37.3999 64.2C39.2999 63.6 40.1999 61.9 40.0999 59.8C39.8999 57.7 38.8999 56.4001 36.8999 55.9001ZM36.1999 62.3C35.1999 62.6 34.0999 62.6 32.8999 62.8V57.6C33.8999 57.7 34.8999 57.7001 35.8999 57.9001C36.8999 58.1001 37.4999 58.9 37.4999 60C37.6999 61.1 37.1999 62 36.1999 62.3ZM44.4999 70H42.1999V59.1H43.6999C43.7999 59.1 43.9999 59.4 44.0999 59.5C44.1999 59.9 44.1999 60.4 44.2999 60.8C44.9999 60.3 45.5999 59.7001 46.2999 59.2001C47.0999 58.7001 47.8999 58.8 48.8999 59C48.7999 59.7 48.7999 60.4 48.6999 61.1H48.0999C45.9999 60.9 44.5999 62.2001 44.4999 64.3001V70ZM59.5999 67.4001C58.8999 69.3001 57.0999 70.3 54.8999 70.2C52.7999 70.2 51.0999 69.2 50.2999 67.2C49.5999 65.5 49.5999 63.7 50.1999 62C50.9999 59.7 53.2999 58.6 55.7999 59C58.1999 59.4 59.7999 61.2001 59.9999 63.7001V64.6C60.0999 64.6 59.8999 66.5001 59.5999 67.4001ZM52.6999 67C53.0999 68 53.9999 68.4001 54.8999 68.4001C55.8999 68.4001 56.7999 68.1 57.1999 67.1C57.8999 65.5 57.8999 63.8001 57.1999 62.2001C56.6999 61.2001 55.6999 60.9 54.6999 61C53.6999 61.1 52.9999 61.5001 52.6999 62.4001C52.3999 63.1001 52.3999 66.2 52.6999 67ZM62.8999 60.9001H61.4999C61.2999 60.2001 61.3999 59.7 62.0999 59.5C62.8999 59.3 63.1999 58.6001 63.3999 57.9001C63.7999 56.6001 63.7999 56.7 65.1999 56.8V59.1H68.2999V60.9001H65.1999V66.5C65.1999 67.9 65.7999 68.4001 67.1999 68.3001C67.5999 68.3001 67.8999 68.2 68.3999 68.1V69.6C68.3999 69.7 68.1999 69.9 67.9999 70C66.9999 70.1 65.9999 70.3 64.9999 70.1C63.6999 69.8 62.9999 68.7001 62.9999 67V61.7001C62.8999 61.5001 62.8999 61.2001 62.8999 60.9001ZM72.9999 70H70.6999V59.2001H72.4999C72.5999 59.8001 72.6999 60.4 72.7999 61.1C73.8999 59.4 75.2999 58.6 77.2999 59.1C77.1999 59.8 77.1999 60.5001 77.0999 61.2001H75.7999C74.1999 61.3001 73.0999 62.4 72.9999 64C72.8999 65.8 72.9999 67.7001 72.9999 69.5V70ZM87.0999 70H85.4999C85.2999 69.5 85.1999 69.1 84.9999 68.5C84.2999 69.3 83.5999 70 82.5999 70.1C81.8999 70.2 81.0999 70.2 80.2999 70.1C78.9999 69.9 78.0999 69 77.9999 67.7C77.6999 66 78.2999 64.8 79.4999 64.2C80.8999 63.5 82.3999 63.5001 83.8999 63.4001C84.8999 63.4001 84.8999 63.3 84.7999 62.3C84.6999 61.3 84.0999 60.8001 83.0999 60.7001C82.4999 60.7001 81.9999 60.8001 81.3999 60.9001C80.8999 61.0001 80.2999 61.3 79.6999 61.5C79.4999 61 79.1999 60.4 78.8999 59.8C80.8999 58.9 82.9999 58.5 85.0999 59.3C86.1999 59.7 86.8999 60.6 86.8999 61.8C87.0999 64.5 87.0999 67.2001 87.0999 70ZM84.6999 64.8001C84.0999 64.8001 83.5999 64.8001 83.0999 64.9001C82.4999 65.0001 81.8999 65.1001 81.2999 65.3001C80.5999 65.6001 80.1999 66.4 80.3999 67.2C80.5999 67.9 80.9999 68.3001 81.8999 68.3001C83.9999 68.5001 85.0999 67.1001 84.6999 64.8001ZM97.5999 59.6C97.3999 60.3 97.0999 60.8001 96.8999 61.4001C96.2999 61.2001 95.6999 61.1001 95.0999 60.9001C93.3999 60.6001 91.9999 61.4001 91.7999 63.2001C91.6999 64.2001 91.6999 65.3001 91.8999 66.3001C92.1999 67.7001 93.1999 68.4 94.5999 68.2C95.4999 68.1 96.2999 67.8 97.2999 67.6V69.3001C97.2999 69.4001 97.0999 69.6 96.8999 69.7C95.0999 70.4 93.1999 70.4 91.4999 69.5C90.4999 69 89.8999 68.1 89.5999 67C89.0999 65.4 89.0999 63.8001 89.5999 62.2001C90.0999 60.4001 91.2999 59.3 93.1999 59C94.6999 58.8 96.0999 59 97.5999 59.6ZM102.4 59.1H105.4V60.9001H102.4V67.1C102.4 67.9 103 68.3001 103.7 68.3001C104.3 68.3001 104.9 68.2 105.5 68.1V69.6C105.5 69.7 105.3 69.9 105.1 70C104.1 70.1 103.1 70.3 102.1 70.1C100.8 69.9 99.9999 69 99.9999 67.6C99.8999 65.8 99.8999 64.0001 99.8999 62.2001V61H98.4999C98.2999 60.3 98.3999 59.8 99.0999 59.6C99.8999 59.4 100.2 58.8 100.4 58C100.5 57.6 100.7 57.2 100.8 56.8H102.3C102.4 57.5 102.4 58.3 102.4 59.1ZM116.9 67.4001C116.2 69.3001 114.3 70.4001 112.1 70.3001C109.8 70.2001 108.1 69 107.5 67C107 65.5 107 64.0001 107.4 62.4001C108.1 59.9001 110.4 58.6 113.2 59C115.6 59.4 117.2 61.2001 117.4 63.7001V64.6C117.4 64.6 117.2 66.5001 116.9 67.4001ZM115.1 64.5C114.9 63.8 114.8 63 114.6 62.3C114.2 61.2 113.2 60.9001 112.1 60.9001C111 60.9001 110.3 61.4001 109.9 62.4001C109.4 63.8001 109.4 65.3 109.9 66.7C110.3 67.8 111.2 68.4001 112.4 68.3001C113.6 68.3001 114.5 67.7001 114.8 66.5C114.9 65.9 115 65.3 115.1 64.5ZM126.7 59.3L126.4 61.1H125C123.6 61.2 122.5 62.2 122.4 63.6C122.3 65 122.3 66.4001 122.3 67.8001V69.9001H120V59.2001C120.1 59.2001 120.1 59.1 120.1 59.1C121.7 59 121.7 59 122 60.5C122 60.6 122.1 60.7001 122.1 60.9001C123.2 59.2001 124.7 58.5001 126.6 58.9001C126.7 59.2001 126.7 59.3 126.7 59.3Z" fill="#B7111D"/>
</svg>
