<svg width="128" height="128" viewBox="0 0 128 128" fill="none" xmlns="http://www.w3.org/2000/svg">
<path d="M87.91 26.266L46.516 58.469V60.313H62.157L37.324 85.145V86.989H40.09L80.561 54.788L80.563 54.706V52.942H65.844L89.754 28.11V26.266H87.91ZM14.684 101L10.684 104.691L7 108.383V121H67.62L71.309 117.316L75 113.633V101L71.438 101.004L67.874 101.006L64.224 104.629L60.572 108.25H15V104.625C15 101.873 14.924 101 14.684 101ZM17.25 88.809V71.368L20.441 68.184L23.632 65H55.872L49.5 71.375L43.129 77.75H20.75V98.25H55V77.75H54.21C53.507 77.75 54.154 77.167 60.023 72.506L66.626 67.262L66.69 83.438L66.754 99.614L63.443 102.932L60.132 106.25H17.25V88.809ZM72.25 62.897C72.25 62.84 74.331 61.132 76.875 59.102L81.5 55.41V52H75C71.425 52 68.5 51.909 68.5 51.797C68.5 51.685 68.816 51.291 69.201 50.922L69.902 50.25H106.632L110.251 46.625L113.869 43H121V55.632L117.309 59.316L113.619 63H92.934C81.558 63 72.25 62.954 72.25 62.897ZM71.875 48.181C71.875 48.143 73.605 46.317 75.719 44.122L79.563 40.132L90.219 40.128L100.875 40.124V19.75H66.75V40.114L67.594 40.151L68.438 40.188L65.813 42.217L63.188 44.246L63.156 28.843L63.124 13.44L66.342 10.22L69.561 7H112.751V41.814L109.531 45.032L106.311 48.25H89.093C79.623 48.25 71.875 48.219 71.875 48.181ZM53.033 51.131V50.29L56.703 46.623C59.333 43.996 60.487 42.956 60.776 42.956C61.167 42.956 61.178 42.999 61.128 44.406L61.077 45.856L57.188 48.904L53.166 51.961C53.093 51.966 53.033 51.592 53.033 51.13V51.131ZM53.033 62.225V61.341H59.649L58.778 62.225L57.907 63.109H53.033V62.225Z" fill="#BFC1BB"/>
</svg>
