<svg width="128" height="128" viewBox="0 0 128 128" fill="none" xmlns="http://www.w3.org/2000/svg">
<path d="M69.5308 19.8401H100.812V40.0901H69.5308V19.8401Z" fill="#0403FF"/>
<path d="M69.5312 18.918V41.012H67.6362L67.6872 18.918H69.5312Z" fill="#0808BD"/>
<path d="M69.531 19.8401H100.812V17.9961H67.688V19.8401H69.531Z" fill="#000373"/>
<path d="M66.7661 17.074H101.735V40.984H78.7461V40.062H100.84V17.996H67.6881V40.984L66.7661 41.906V17.074Z" fill="#000473"/>
<path d="M23.5269 77.7969H54.8079V98.0469H23.5269V77.7969Z" fill="#0403FF"/>
<path d="M23.5268 76.875V98.969H21.6318L21.6828 76.875H23.5268Z" fill="#0808BD"/>
<path d="M23.5271 77.797H54.8081V75.957H21.6841V77.797H23.5271Z" fill="#000373"/>
<path d="M54.8092 98.0469V75.9569H21.6842V98.9449H20.7622V75.0349H55.7302V98.9449H54.8082" fill="#000473"/>
<path d="M23.5269 98.0469H54.8079V98.9689H23.5269V98.0469Z" fill="#0001DF"/>
<path d="M6.96484 117.352V108.161H63.0778L70.4528 100.79H75.0578L63.9998 111.848H10.6478V117.375H6.96484V117.352Z" fill="#FFFFFD"/>
<path d="M6.96484 108.16L15.2308 99.8899V108.16H6.96484Z" fill="#BFBFC0"/>
<path d="M6.96484 117.352H10.6488V121.036H6.96484V117.352Z" fill="#BCBFB1"/>
<path d="M63.078 108.16L70.453 100.789H67.687L60.312 108.16H63.078Z" fill="#C2C2C2"/>
<path d="M75.035 100.813V113.692L67.66 121.063H10.6479V117.376H64V111.849L75.035 100.813Z" fill="#7E7E7E"/>
<path d="M41.9339 114.609V117.375H10.6479V111.848H64V117.375H60.313V114.609H41.9339Z" fill="#C0C0C0"/>
<path d="M41.9341 114.609H60.3401V117.375H41.9341V114.609Z" fill="#010101"/>
<path d="M52.9648 59.3911V50.2041H109.082L116.453 42.8291H121.062L110.027 53.8641H56.6518V59.3911H52.9648Z" fill="#FFFFFD"/>
<path d="M52.9648 50.2031L61.2348 41.9331V50.2031H52.9648Z" fill="#BFBFC0"/>
<path d="M52.9648 59.3911H56.6528V63.0791H52.9658L52.9648 59.3911Z" fill="#BCBFB1"/>
<path d="M109.082 50.2029L116.453 42.8279H113.691L106.316 50.2029H109.082Z" fill="#C2C2C2"/>
<path d="M121.035 42.8279V55.7069L113.664 63.0779H56.6519V59.3909H110.004V53.8639L121.035 42.8279Z" fill="#7E7E7E"/>
<path d="M87.9099 56.652V59.39H56.6519V53.863H110.004V59.39H106.317V56.628H87.9099V56.652Z" fill="#C0C0C0"/>
<path d="M87.9102 56.6521H106.316V59.3901H87.9102V56.6521Z" fill="#010101"/>
<path d="M66.7659 46.5161H103.579V15.2301L112.77 6.96411V41.9331L106.317 48.3821H64.9219" fill="#808080"/>
<path d="M63.0781 13.391L103.551 15.231L101.707 17.075L106.316 13.391L112.769 6.93799H69.5311L63.0781 13.391Z" fill="#BFC1BB"/>
<path d="M66.7661 42.8279H103.579V46.5159H66.7661V42.8279Z" fill="#C6BCBF"/>
<path d="M64.9219 41.934H65.8439L66.7659 41.012V17.074H101.735L103.579 15.23H64.9219V41.934Z" fill="#817F87"/>
<path d="M65.8442 41.934L66.7662 41.012H101.735V17.074L103.579 15.23V42.828H65.8442V41.934Z" fill="#FEFFFA"/>
<path d="M63.0781 13.3911H104.473L103.551 15.2311H64.9221V43.7511L63.0781 44.6731V13.3911Z" fill="white"/>
<path d="M64.9219 41.9341H65.8439V42.8561L64.9219 43.7781V41.9341Z" fill="#BEBEBE"/>
<path d="M18.9182 104.473H57.5472V73.1909L66.7382 64.9209V99.8899L60.2892 106.343H17.0742" fill="#808080"/>
<path d="M17.0742 71.3711L57.5472 73.2151L55.7072 75.0591L60.3122 71.3721L66.7652 64.9231H23.5272L17.0742 71.3711Z" fill="#BFC1BB"/>
<path d="M57.547 100.813V104.501H18.918V99.8921H19.84V100.814L57.547 100.813Z" fill="#C6BCBF"/>
<path d="M18.918 99.8911H19.84L20.762 98.9691V75.0591H55.73L57.574 73.2151H18.918V99.8911Z" fill="#817F87"/>
<path d="M19.8398 99.8911L20.7618 98.9691H55.7298V75.0591L57.5738 73.2151V100.813H19.8398V99.8911Z" fill="#FEFFFA"/>
<path d="M17.0742 71.3711H58.4692L57.5472 73.2151H18.9182V104.5L17.0742 106.344V71.3711Z" fill="white"/>
<path d="M18.918 99.8911H19.84V100.813H18.918V99.8911Z" fill="#BEBEBE"/>
<path d="M5.12109 108.16L14.3091 98.969H15.2311V100.813H14.3091L6.93809 108.188V121.063H67.6601L75.0351 113.692V100.813H66.7651L68.6091 98.969H76.8751V113.692L67.6881 122.88H5.12109V108.16Z" fill="black"/>
<path d="M17.074 71.371V106.344L15.23 108.188V71.371L23.5 63.105H68.609V99.918L60.339 108.188H15.23L17.074 106.344H60.312L66.765 99.891V64.922H23.527L17.074 71.371Z" fill="black"/>
<path d="M51.125 50.203L60.313 41.012H61.235V42.856H60.313L52.942 50.227V63.106H113.665L121.036 55.731V42.855H112.77L114.61 41.011H122.88V55.73L113.693 64.921H51.125V50.203Z" fill="black"/>
<path d="M63.0779 13.3911V48.3601L61.2339 50.2041V13.3911L69.5309 5.12109H114.609V41.9341L106.343 50.2041H61.2339L63.0779 48.3601H106.316L112.769 41.9071V6.96509H69.5309L63.0779 13.3911Z" fill="black"/>
<path d="M46.5162 60.3131H62.1572L37.3242 85.1451V86.9891H40.0902L80.5632 54.7861V52.9421H65.8442L89.7542 28.1101V26.2661H87.9102L46.5162 58.4691V60.3131Z" fill="#FFFF01"/>
<path d="M40.3979 87.9101H36.4019V84.7621L59.9569 61.2111H45.6209V58.0081L87.6009 25.3711H90.6749V28.4921L67.9919 52.0431H81.4609V55.2461L40.3979 87.9101ZM38.2459 86.0941H39.7579L79.6409 54.3751V53.8871H63.6679L88.8319 27.7501V27.1881H88.2189L47.4379 58.9301V59.3911H64.3829L38.2459 85.5311V86.0941Z" fill="black"/>
</svg>
