<svg width="128" height="128" viewBox="0 0 128 128" fill="none" xmlns="http://www.w3.org/2000/svg">
<path d="M43.3501 59.71C44.5565 59.5114 45.7775 59.4143 47.0001 59.42C48.4736 59.3066 49.9371 59.741 51.1101 60.64C51.5344 61.0274 51.8689 61.503 52.09 62.0333C52.3111 62.5636 52.4135 63.1359 52.3901 63.71C52.4181 64.2805 52.3326 64.8509 52.1386 65.3881C51.9446 65.9254 51.6461 66.4189 51.2601 66.84C50.6601 67.3959 49.954 67.825 49.1843 68.1017C48.4145 68.3783 47.5968 68.4968 46.7801 68.45C46.2701 68.4667 45.7599 68.4231 45.2601 68.32V74.19H43.3501V59.71ZM45.2401 66.78C45.7552 66.8952 46.2826 66.9456 46.8101 66.93C49.0901 66.93 50.4901 65.82 50.4901 63.8C50.4901 61.78 49.1201 60.93 47.0001 60.93C46.4031 60.9134 45.806 60.9637 45.2201 61.08V66.78H45.2401ZM55.6401 63.67L57.9501 69.89C58.1901 70.59 58.4501 71.41 58.6201 72.04C58.8201 71.41 59.0301 70.6 59.2901 69.84L61.3801 63.66H63.3801L60.5101 71.16C59.1401 74.77 58.2001 76.62 56.9001 77.75C56.2585 78.3534 55.4739 78.7835 54.6201 79L54.1401 77.39C54.7544 77.19 55.3246 76.8744 55.8201 76.46C56.5146 75.8843 57.0658 75.1551 57.4301 74.33C57.507 74.1868 57.5578 74.031 57.5801 73.87C57.563 73.6976 57.5191 73.5289 57.4501 73.37L53.5601 63.67H55.6501H55.6401ZM75.8001 73.78C74.6026 74.2432 73.3233 74.4576 72.0401 74.41C66.9701 74.41 64.3601 71.26 64.3601 67.08C64.3601 62.08 67.9301 59.29 72.3601 59.29C73.5961 59.2458 74.8272 59.4674 75.9701 59.94L75.3001 62.57C74.4209 62.1959 73.4756 62.002 72.5201 62C69.8901 62 67.8401 63.59 67.8401 66.85C67.8401 69.79 69.5801 71.63 72.5401 71.63C73.4807 71.6279 74.4141 71.4656 75.3001 71.15L75.8001 73.78ZM77.8001 58.75H81.1101V64.82C81.4605 64.3679 81.9039 63.9962 82.4101 63.73C82.9421 63.4567 83.5321 63.316 84.1301 63.32C86.2401 63.32 87.8501 64.78 87.8501 67.98V74.2H84.5901V68.34C84.5901 66.95 84.1101 65.99 82.8701 65.99C82.5106 65.9902 82.1597 66.1005 81.8647 66.3061C81.5697 66.5117 81.3448 66.8027 81.2201 67.14C81.1397 67.3781 81.1024 67.6287 81.1101 67.88V74.19H77.8001V58.75ZM96.5901 74.19L96.3901 73.13H96.3201C95.947 73.5546 95.4845 73.8914 94.9658 74.1162C94.4471 74.3409 93.8851 74.4481 93.3201 74.43C92.8771 74.4545 92.4338 74.3883 92.0172 74.2355C91.6007 74.0826 91.2197 73.8464 90.8977 73.5412C90.5757 73.236 90.3193 72.8683 90.1443 72.4605C89.9694 72.0528 89.8795 71.6137 89.8801 71.17C89.8801 68.41 92.3601 67.08 96.1201 67.1V66.95C96.1201 66.38 95.8201 65.58 94.1801 65.58C93.1476 65.5892 92.135 65.8648 91.2401 66.38L90.6301 64.25C91.9095 63.6043 93.3274 63.2816 94.7601 63.31C98.3101 63.31 99.4401 65.4 99.4401 67.9V71.6C99.4217 72.4659 99.4719 73.332 99.5901 74.19H96.5901ZM96.2001 69.19C94.4601 69.19 93.1101 69.58 93.1101 70.87C93.0992 71.0417 93.1257 71.2138 93.1878 71.3743C93.2498 71.5349 93.346 71.68 93.4695 71.7998C93.5931 71.9196 93.7412 72.0111 93.9036 72.0681C94.066 72.1251 94.2388 72.1462 94.4101 72.13C94.7884 72.1318 95.1577 72.0151 95.4662 71.7963C95.7747 71.5775 96.0069 71.2675 96.1301 70.91C96.1731 70.7231 96.1933 70.5317 96.1901 70.34V69.17L96.2001 69.19ZM102 67.06C102 65.49 102 64.47 101.91 63.56H104.76L104.87 65.56H105C105.192 64.9414 105.571 64.3976 106.085 64.0036C106.599 63.6095 107.223 63.3847 107.87 63.36C108.103 63.3359 108.337 63.3359 108.57 63.36V66.47C108.277 66.4119 107.979 66.3817 107.68 66.38C107.164 66.337 106.649 66.4839 106.233 66.7932C105.817 67.1025 105.528 67.5529 105.42 68.06C105.373 68.3038 105.35 68.5516 105.35 68.8V74.19H102V67.06ZM110.29 67C110.29 65.67 110.29 64.54 110.2 63.61H113L113.15 65.05H113.21C113.558 64.5179 114.037 64.0846 114.601 63.792C115.165 63.4994 115.795 63.3575 116.43 63.38C117.042 63.3484 117.649 63.505 118.169 63.8286C118.689 64.1521 119.098 64.6272 119.34 65.19C119.707 64.6762 120.173 64.2409 120.71 63.91C121.317 63.5567 122.008 63.3768 122.71 63.39C124.71 63.39 126.3 64.83 126.3 68V74.26H123.08V68.41C123.08 66.87 122.58 65.97 121.51 65.97C121.168 65.9764 120.836 66.0912 120.563 66.2978C120.29 66.5044 120.089 66.7922 119.99 67.12C119.903 67.3948 119.859 67.6816 119.86 67.97V74.19H116.64V68.19C116.64 66.84 116.16 65.93 115.12 65.93C114.77 65.9446 114.434 66.0682 114.158 66.2833C113.882 66.4985 113.68 66.7944 113.58 67.13C113.484 67.3957 113.44 67.6775 113.45 67.96V74.16H110.23V67H110.29ZM24.3601 57.68H24.2301C22.9467 57.6739 21.6977 58.0951 20.6802 58.8773C19.6626 59.6595 18.9343 60.7581 18.6101 62C18.3064 63.1439 17.6066 64.143 16.6354 64.8195C15.6642 65.4959 14.4845 65.806 13.3062 65.6944C12.1279 65.5828 11.0274 65.0568 10.2005 64.21C9.37352 63.3633 8.87378 62.2506 8.79014 61.07C8.77726 60.8869 8.77726 60.7031 8.79014 60.52V60.41V60.2C9.2858 57.9068 10.2897 55.7541 11.728 53.9005C13.1662 52.047 15.002 50.5397 17.1001 49.49C15.3881 48.9874 13.5859 48.871 11.8234 49.1491C10.0609 49.4273 8.38214 50.093 6.90806 51.0984C5.43398 52.1037 4.20135 53.4236 3.29904 54.963C2.39673 56.5023 1.84722 58.2226 1.69014 60L1.64014 60.13V77.8H8.78014V72.1C10.8855 73.0492 13.2192 73.3739 15.5038 73.0356C17.7883 72.6972 19.9277 71.71 21.6676 70.1913C23.4075 68.6726 24.6747 66.6862 25.3186 64.4684C25.9626 62.2505 25.9562 59.8943 25.3001 57.68H24.3601Z" fill="#4D8548"/>
<path d="M17.3802 61.78C17.7613 60.2764 18.6311 58.942 19.8528 57.9863C21.0745 57.0307 22.5791 56.5078 24.1302 56.5H27.5402C28.0675 56.4864 28.5857 56.3603 29.0602 56.13L28.7302 56C27.8749 55.8306 27.0806 55.4352 26.4299 54.8549C25.7792 54.2745 25.2959 53.5304 25.0302 52.7C25.6934 53.573 26.6328 54.1955 27.6951 54.4661C28.7575 54.7367 29.8802 54.6394 30.8802 54.19C31.1208 53.6245 31.2179 53.0084 31.1629 52.3963C31.1079 51.7843 30.9026 51.1953 30.5652 50.6817C30.2278 50.1682 29.7687 49.7459 29.2287 49.4525C28.6888 49.1591 28.0847 49.0037 27.4702 49H24.1502C20.8607 49.0021 17.6708 50.1289 15.1098 52.1934C12.5487 54.2579 10.7705 57.1359 10.0702 60.35C10.0125 60.5894 9.97904 60.8339 9.97021 61.08C9.97516 62.0076 10.3246 62.9002 10.9507 63.5846C11.5769 64.269 12.435 64.6962 13.3584 64.7835C14.2819 64.8707 15.2048 64.6117 15.948 64.0567C16.6912 63.5016 17.2017 62.6902 17.3802 61.78ZM26.3102 51.16C26.3543 50.9346 26.4643 50.7274 26.6263 50.5645C26.7883 50.4017 26.995 50.2907 27.2202 50.2454C27.4453 50.2002 27.6789 50.2228 27.8912 50.3104C28.1035 50.3981 28.285 50.5467 28.4127 50.7376C28.5404 50.9285 28.6086 51.153 28.6086 51.3827C28.6086 51.6124 28.5405 51.8369 28.4128 52.0278C28.285 52.2186 28.1035 52.3673 27.8912 52.455C27.6789 52.5426 27.4454 52.5652 27.2202 52.52C26.9196 52.4596 26.6551 52.2827 26.4845 52.0278C26.314 51.7729 26.2513 51.4609 26.3102 51.16ZM31.2002 74.16C31.2002 75.1493 30.8072 76.098 30.1077 76.7975C29.4082 77.497 28.4595 77.89 27.4702 77.89H24.1502C20.6802 77.8934 17.3266 76.6393 14.7102 74.36C17.9478 74.1176 20.9835 72.6941 23.2402 70.36C23.542 70.3992 23.8459 70.4193 24.1502 70.42H27.4602C28.446 70.4173 29.3928 70.805 30.0936 71.4983C30.7944 72.1917 31.1923 73.1342 31.2002 74.12V74.16Z" fill="#4D8548"/>
</svg>
