<svg width="128" height="128" viewBox="0 0 128 128" fill="none" xmlns="http://www.w3.org/2000/svg">
<path d="M43.1802 59.67C44.39 59.4715 45.6142 59.3745 46.8402 59.38C48.331 59.2635 49.8124 59.7015 51.0002 60.61C51.4257 61.0012 51.7614 61.48 51.9841 62.0135C52.2068 62.5469 52.3112 63.1223 52.2902 63.7C52.3186 64.2759 52.2324 64.8517 52.0367 65.3942C51.8411 65.9366 51.5397 66.4348 51.1502 66.86C50.5446 67.4203 49.8321 67.8526 49.0554 68.1309C48.2787 68.4093 47.4538 68.528 46.6302 68.48C46.1135 68.4978 45.5965 68.4542 45.0902 68.35V74.27H43.1802V59.67ZM45.0902 66.8C45.6085 66.9155 46.1393 66.9659 46.6702 66.95C48.9702 66.95 50.3802 65.83 50.3802 63.79C50.3802 61.75 49.0002 60.9 46.8902 60.9C46.2864 60.8819 45.6826 60.9322 45.0902 61.05V66.8ZM55.5702 63.66L57.8902 69.93C58.1302 70.63 58.3902 71.47 58.5702 72.1C58.7702 71.46 58.9902 70.65 59.2502 69.88L61.3602 63.65H63.3602L60.4602 71.22C59.0802 74.86 58.1302 76.73 56.8202 77.87C56.1521 78.4854 55.3353 78.9162 54.4502 79.12L53.9702 77.5C54.5882 77.2971 55.1618 76.978 55.6602 76.56C56.3594 75.9785 56.914 75.2425 57.2802 74.41C57.3569 74.2667 57.4077 74.1109 57.4302 73.95C57.4127 73.7776 57.3689 73.609 57.3002 73.45L53.3702 63.67L55.5702 63.66ZM75.9002 73.86C74.6903 74.3298 73.3972 74.5476 72.1002 74.5C66.9902 74.5 64.3602 71.32 64.3602 67.11C64.3602 62.11 67.9602 59.26 72.4302 59.26C73.6767 59.2171 74.918 59.4422 76.0702 59.92L75.3902 62.57C74.5043 62.1948 73.5522 62.001 72.5902 62C69.9402 62 67.8702 63.6 67.8702 66.89C67.8702 69.89 69.6202 71.71 72.6102 71.71C73.5607 71.7099 74.5043 71.5476 75.4002 71.23L75.9002 73.86ZM77.9202 58.71H81.2502V64.83C81.6053 64.372 82.0557 63.9967 82.5702 63.73C83.1046 63.4528 83.6981 63.3087 84.3002 63.31C86.4302 63.31 88.0502 64.78 88.0502 68V74.27H84.7602V68.37C84.7602 67 84.2802 66 83.0002 66C82.6363 65.9982 82.2808 66.1087 81.982 66.3162C81.6832 66.5238 81.4556 66.8184 81.3302 67.16C81.2487 67.4013 81.2115 67.6554 81.2202 67.91V74.27H77.9202V58.71ZM96.8602 74.28L96.6602 73.21H96.6002C96.2201 73.6459 95.7468 73.9909 95.2154 74.2194C94.684 74.4479 94.1081 74.554 93.5302 74.53C93.0832 74.5545 92.636 74.4875 92.2158 74.3331C91.7956 74.1788 91.4114 73.9403 91.0865 73.6324C90.7617 73.3244 90.5031 72.9534 90.3267 72.542C90.1502 72.1306 90.0595 71.6876 90.0602 71.24C90.0602 68.45 92.5602 67.12 96.3602 67.14V67C96.3602 66.43 96.0502 65.62 94.3602 65.62C93.3064 65.6218 92.2717 65.9012 91.3602 66.43L90.7502 64.28C92.0639 63.6077 93.5248 63.2743 95.0002 63.31C98.5802 63.31 99.7202 65.42 99.7202 67.94V71.67C99.7013 72.5426 99.7514 73.4153 99.8702 74.28H96.8602ZM96.4702 69.21C94.7202 69.21 93.3602 69.6 93.3602 70.9C93.3491 71.074 93.3761 71.2483 93.4392 71.4108C93.5023 71.5733 93.6001 71.7201 93.7258 71.841C93.8514 71.9619 94.0019 72.0539 94.1667 72.1107C94.3315 72.1675 94.5067 72.1877 94.6802 72.17C95.061 72.1717 95.4327 72.0539 95.7431 71.8333C96.0534 71.6126 96.2867 71.3002 96.4102 70.94C96.4563 70.7535 96.4798 70.5621 96.4802 70.37V69.21H96.4702ZM102.35 67.08C102.35 65.5 102.35 64.47 102.26 63.55H105.13L105.24 65.55H105.33C105.523 64.9245 105.906 64.3746 106.426 63.9768C106.945 63.5789 107.576 63.3529 108.23 63.33C108.463 63.3061 108.697 63.3061 108.93 63.33V66.47C108.634 66.4115 108.332 66.3813 108.03 66.38C107.509 66.3345 106.99 66.4813 106.57 66.7926C106.15 67.104 105.858 67.5584 105.75 68.07C105.703 68.3171 105.679 68.5683 105.68 68.82V74.26H102.35V67.06V67.08ZM110.68 67C110.68 65.66 110.68 64.52 110.59 63.58H113.4L113.55 65.03H113.62C113.97 64.4918 114.453 64.0533 115.023 63.7572C115.592 63.4611 116.229 63.3173 116.87 63.34C117.488 63.3029 118.102 63.4579 118.629 63.7838C119.155 64.1096 119.568 64.5903 119.81 65.16C120.18 64.6423 120.649 64.2037 121.19 63.87C121.796 63.5146 122.488 63.3313 123.19 63.34C125.25 63.34 126.81 64.79 126.81 67.99V74.31H123.56V68.44C123.56 66.88 123.06 65.98 121.98 65.98C121.633 65.9844 121.297 66.0993 121.02 66.3079C120.743 66.5165 120.54 66.808 120.44 67.14C120.352 67.4181 120.308 67.7083 120.31 68V74.27H117.06V68.27C117.06 66.91 116.58 65.99 115.53 65.99C115.177 66.0042 114.836 66.1284 114.557 66.3453C114.277 66.5622 114.072 66.861 113.97 67.2C113.874 67.4658 113.83 67.7475 113.84 68.03V74.28H110.59V67H110.68Z" fill="#4D8548"/>
<path d="M23.9999 57.6301H23.8999C22.6017 57.6221 21.338 58.0476 20.3091 58.8393C19.2802 59.6309 18.5449 60.7432 18.2199 62.0001C17.9744 63.2105 17.2897 64.2872 16.2977 65.0228C15.3056 65.7584 14.0764 66.1008 12.847 65.9841C11.6175 65.8674 10.4747 65.2997 9.63879 64.3905C8.80292 63.4814 8.3331 62.295 8.31986 61.0601C8.30724 60.8769 8.30724 60.6932 8.31986 60.5101V60.4001V60.1901C8.81686 57.874 9.82796 55.6991 11.2784 53.8263C12.7289 51.9535 14.5817 50.4306 16.6999 49.3701C14.971 48.8627 13.151 48.7458 11.3714 49.0279C9.59186 49.3101 7.89724 49.9841 6.41009 51.0014C4.92295 52.0187 3.68045 53.3537 2.77245 54.91C1.86446 56.4662 1.31365 58.2048 1.15986 60.0001L1.10986 60.1301V77.9101H8.30986V72.1601C10.4332 73.1254 12.7893 73.4597 15.0973 73.1231C17.4053 72.7866 19.5679 71.7933 21.327 70.2618C23.0862 68.7303 24.3678 66.7251 25.019 64.4855C25.6703 62.2458 25.6636 59.8661 24.9999 57.6301H23.9999Z" fill="#FA930D"/>
<path d="M17 61.7599C17.3756 60.2406 18.2495 58.891 19.4821 57.9267C20.7147 56.9623 22.235 56.4389 23.8 56.4399H27.24C27.7825 56.4079 28.3116 56.2578 28.79 55.9999H28.43C27.5674 55.8289 26.7664 55.4297 26.1104 54.8441C25.4544 54.2584 24.9674 53.5077 24.7 52.6699C25.369 53.5501 26.3166 54.1776 27.3881 54.45C28.4596 54.7224 29.5918 54.6237 30.6 54.1699C30.8486 53.5984 30.9513 52.974 30.8988 52.3529C30.8462 51.7318 30.6401 51.1336 30.299 50.6119C29.9578 50.0903 29.4923 49.6616 28.9444 49.3645C28.3965 49.0674 27.7833 48.9112 27.16 48.9099H23.82C20.5061 48.9093 17.2913 50.0398 14.7074 52.1146C12.1234 54.1894 10.3251 57.0841 9.60999 60.3199C9.55252 60.5593 9.51902 60.8039 9.50999 61.0499C9.49963 61.9952 9.84476 62.9098 10.477 63.6126C11.1092 64.3154 11.9824 64.755 12.9235 64.8444C13.8646 64.9337 14.8049 64.6662 15.5581 64.0949C16.3113 63.5236 16.8223 62.6902 16.99 61.7599H17ZM26 51.0499C26.0441 50.8225 26.1547 50.6132 26.3178 50.4487C26.4809 50.2842 26.6891 50.1718 26.9162 50.1258C27.1432 50.0798 27.3789 50.1022 27.5931 50.1902C27.8074 50.2782 27.9908 50.4279 28.1199 50.6202C28.2491 50.8125 28.3182 51.0389 28.3186 51.2705C28.319 51.5022 28.2506 51.7288 28.1221 51.9215C27.9936 52.1143 27.8107 52.2645 27.5967 52.3533C27.3827 52.442 27.1472 52.4652 26.92 52.4199C26.6167 52.3595 26.3497 52.1815 26.1773 51.9247C26.0049 51.668 25.9412 51.3535 26 51.0499ZM30.93 74.1999C30.934 74.6975 30.8394 75.191 30.6517 75.6518C30.464 76.1127 30.1869 76.5319 29.8364 76.8851C29.486 77.2384 29.069 77.5188 28.6097 77.7101C28.1503 77.9014 27.6576 77.9999 27.16 77.9999H23.82C20.3206 78.0034 16.9385 76.7387 14.3 74.4399C17.5596 74.2042 20.6196 72.781 22.9 70.4399C23.2018 70.479 23.5057 70.499 23.81 70.4999H27.15C28.1413 70.4972 29.0938 70.8849 29.8012 71.5793C30.5087 72.2737 30.9142 73.2187 30.93 74.2099V74.1999Z" fill="#4D8548"/>
</svg>
