<svg width="128" height="128" viewBox="0 0 128 128" fill="none" xmlns="http://www.w3.org/2000/svg">
<path d="M96.25 40.6699H95.74C90.5171 40.6345 85.4319 42.3438 81.2907 45.5266C77.1496 48.7095 74.1895 53.1838 72.88 58.2399H72.76C71.8292 63.1628 69.0934 67.5606 65.0888 70.5714C61.0842 73.5822 56.0996 74.9889 51.1119 74.5157C46.1241 74.0426 41.4929 71.7238 38.1258 68.0138C34.7588 64.3038 32.8986 59.47 32.91 54.4599C32.9119 53.7204 32.9653 52.982 33.07 52.2499C33.07 52.0999 33.07 51.9499 33.13 51.7999C33.19 51.6499 33.23 51.2299 33.29 50.9499C35.265 41.6583 39.2954 32.9267 45.0854 25.396C50.8753 17.8652 58.2779 11.7264 66.75 7.42993C59.7908 5.38825 52.4647 4.91883 45.3018 6.05561C38.1389 7.1924 31.3182 9.90698 25.333 14.003C19.3478 18.099 14.3479 23.4741 10.6947 29.7394C7.04157 36.0047 4.82659 43.0036 4.21 50.2299C4.15 50.4099 4.06 50.5799 4 50.7599V122.31H33V99.1799C41.542 102.993 50.9969 104.281 60.2476 102.893C69.4983 101.504 78.1583 97.4961 85.2041 91.3431C92.25 85.1901 97.3874 77.1487 100.009 68.1693C102.631 59.1899 102.628 49.6476 100 40.6699H96.2H96.25Z" fill="#FA930D"/>
<path d="M67.9201 57.32L68.0101 57.17C69.5301 51.0549 73.0523 45.6242 78.0159 41.7425C82.9794 37.8609 89.0989 35.7514 95.4001 35.75H109.25C111.388 35.6915 113.488 35.1766 115.41 34.24C114.93 34.18 114.41 34.11 113.97 34.01C110.5 33.3171 107.28 31.708 104.642 29.3499C102.004 26.9918 100.046 23.9706 98.9701 20.6C101.887 24.4184 106.09 27.048 110.8 28C114.804 28.7956 118.957 28.3237 122.68 26.65C123.681 24.3517 124.095 21.8407 123.885 19.3428C123.675 16.8449 122.848 14.4383 121.477 12.3392C120.107 10.2402 118.237 8.51445 116.034 7.31718C113.832 6.11992 111.367 5.48861 108.86 5.47998H95.4001C82.0475 5.48223 69.0969 10.0492 58.6966 18.4233C48.2962 26.7974 41.0713 38.4753 38.2201 51.52C37.9893 52.5043 37.8586 53.5094 37.8301 54.52C37.8277 58.299 39.2349 61.943 41.7766 64.7395C44.3183 67.5361 47.8117 69.284 51.5737 69.6416C55.3358 69.9991 59.0959 68.9406 62.1189 66.673C65.142 64.4054 67.2105 61.0918 67.9201 57.38V57.32ZM104.15 14.22C104.33 13.3076 104.777 12.4693 105.434 11.811C106.091 11.1527 106.929 10.7042 107.841 10.5221C108.753 10.34 109.698 10.4325 110.557 10.788C111.417 11.1435 112.151 11.7459 112.668 12.5191C113.185 13.2922 113.461 14.2013 113.461 15.1313C113.461 16.0613 113.185 16.9704 112.668 17.7435C112.151 18.5166 111.416 19.119 110.557 19.4744C109.698 19.8297 108.752 19.9222 107.84 19.74C106.623 19.4914 105.553 18.7718 104.863 17.7378C104.174 16.7039 103.921 15.4394 104.16 14.22H104.15ZM124 107.4C124 109.39 123.608 111.36 122.847 113.198C122.085 115.036 120.97 116.706 119.563 118.113C118.156 119.519 116.486 120.635 114.648 121.397C112.81 122.158 110.84 122.55 108.85 122.55H95.4001C81.3195 122.558 67.7131 117.463 57.1001 108.21C70.2373 107.234 82.558 101.465 91.7201 92C92.94 92.1642 94.1692 92.251 95.4001 92.26H108.85C112.866 92.2626 116.716 93.8583 119.556 96.6967C122.397 99.5351 123.995 103.384 124 107.4Z" fill="#4D8548"/>
</svg>
