<svg width="128" height="128" viewBox="0 0 128 128" fill="none" xmlns="http://www.w3.org/2000/svg">
<path d="M96.4399 40.53H95.9199C90.6646 40.4939 85.5476 42.2137 81.3809 45.4166C77.2143 48.6195 74.2364 53.1221 72.9199 58.21H72.7999C71.8545 63.1529 69.0998 67.5657 65.0742 70.5858C61.0486 73.6059 56.0415 75.0162 51.0314 74.5412C46.0213 74.0662 41.3685 71.74 37.9822 68.0172C34.5959 64.2944 32.7195 59.4425 32.7199 54.41C32.7212 53.6639 32.7746 52.9187 32.8799 52.18C32.8799 52.03 32.8799 51.88 32.9399 51.73C32.9999 51.58 33.0399 51.16 33.0999 50.88C35.0858 41.5298 39.1409 32.7432 44.9674 25.1655C50.7938 17.5878 58.2437 11.4114 66.7699 7.09002C59.769 5.03628 52.3991 4.56432 45.1934 5.70825C37.9877 6.85219 31.1263 9.58343 25.1056 13.7044C19.0849 17.8254 14.0555 23.233 10.3811 29.5362C6.70674 35.8393 4.47929 42.8804 3.8599 50.15C3.7999 50.33 3.7099 50.5 3.6499 50.69V122.69H32.8099V99.39C41.4046 103.264 50.9307 104.589 60.2563 103.208C69.5819 101.827 78.3151 97.7976 85.4182 91.5991C92.5213 85.4006 97.6956 77.2934 100.327 68.2406C102.958 59.1878 102.934 49.57 100.26 40.53H96.4399Z" fill="#4D8548"/>
<path d="M67.9497 57.2801L68.0397 57.1301C69.5681 50.9805 73.1092 45.5187 78.0996 41.6138C83.09 37.7088 89.243 35.5849 95.5797 35.5801H109.52C111.672 35.5009 113.783 34.9622 115.71 34.0001C115.23 33.9401 114.71 33.8701 114.26 33.7701C110.769 33.0831 107.526 31.4745 104.868 29.1111C102.209 26.7478 100.231 23.7159 99.1397 20.3301C102.086 24.178 106.329 26.8254 111.08 27.7801C115.098 28.5731 119.263 28.0978 123 26.4201C124.002 24.1106 124.416 21.5884 124.204 19.0796C123.993 16.5708 123.162 14.1538 121.786 12.045C120.411 9.93617 118.534 8.20154 116.323 6.99648C114.112 5.79142 111.637 5.15358 109.12 5.14011L97.9997 5.11011H95.5997C82.1638 5.11125 69.1323 9.70677 58.6679 18.134C48.2034 26.5612 40.9353 38.3134 38.0697 51.4401C37.8389 52.4244 37.7083 53.4295 37.6797 54.4401C37.6769 58.2424 39.0928 61.9089 41.6503 64.7225C44.2078 67.536 47.7231 69.2942 51.5084 69.6531C55.2936 70.012 59.0767 68.9458 62.1174 66.663C65.1581 64.3802 67.2378 61.0451 67.9497 57.3101V57.2801ZM104.4 13.9201C104.582 13.0025 105.032 12.1595 105.693 11.4976C106.354 10.8358 107.196 10.3848 108.114 10.2018C109.031 10.0188 109.982 10.1119 110.847 10.4693C111.711 10.8268 112.45 11.4326 112.971 12.2101C113.491 12.9876 113.769 13.9019 113.769 14.8374C113.77 15.7729 113.493 16.6875 112.974 17.4657C112.455 18.2438 111.716 18.8505 110.852 19.2091C109.988 19.5677 109.037 19.662 108.12 19.4801C106.891 19.2359 105.808 18.515 105.109 17.4749C104.41 16.4349 104.152 15.1604 104.39 13.9301L104.4 13.9201ZM124.4 107.65C124.4 111.692 122.794 115.568 119.936 118.426C117.078 121.284 113.202 122.89 109.16 122.89H95.5797C81.4187 122.898 67.7343 117.775 57.0597 108.47C70.2757 107.487 82.6689 101.679 91.8797 92.1501C93.1063 92.3146 94.3421 92.4015 95.5797 92.4101H109.11C113.153 92.4128 117.029 94.0206 119.887 96.8803C122.744 99.7399 124.35 103.617 124.35 107.66L124.4 107.65Z" fill="#4D8548"/>
</svg>
