<svg width="128" height="128" viewBox="0 0 128 128" fill="none" xmlns="http://www.w3.org/2000/svg">
<path d="M44.5081 18.238H81.2891C81.7671 18.238 82.2256 18.4279 82.5636 18.766C82.9017 19.104 83.0916 19.5625 83.0916 20.0405C83.0916 20.5186 82.9017 20.9771 82.5636 21.3151C82.2256 21.6531 81.7671 21.843 81.2891 21.843H44.5081C44.03 21.843 43.5715 21.6531 43.2335 21.3151C42.8955 20.9771 42.7056 20.5186 42.7056 20.0405C42.7056 19.5625 42.8955 19.104 43.2335 18.766C43.5715 18.4279 44.03 18.238 44.5081 18.238Z" fill="#696969"/>
<path d="M44.8281 14.594H52.2231V16.297H44.8281V14.594Z" fill="#009FE3"/>
<path d="M54.5 14.594H61.895V16.297H54.5V14.594Z" fill="#C7D302"/>
<path d="M64.043 14.594H71.437V16.297H64.043V14.594Z" fill="#F07E16"/>
<path d="M73.5469 14.594H80.9409V16.297H73.5469V14.594ZM73.5469 23.723H80.9409V36.223H73.5469V23.723Z" fill="#DF2815"/>
<path d="M64.043 23.7229H71.453V44.0299H64.043V23.7229Z" fill="#F07E16"/>
<path d="M54.5 23.7229H61.895V54.1449H54.5V23.7229Z" fill="#C7D302"/>
<path d="M44.8281 23.7229H52.2231V60.7999H44.8281V23.7229Z" fill="#009FE3"/>
<path d="M21.5861 100.164C20.8561 100.164 20.1961 100.082 19.6021 99.922C19.0438 99.7769 18.5057 99.563 18.0001 99.285C17.5388 99.0315 17.1143 98.7162 16.7381 98.348C16.3804 98.0006 16.0551 97.6214 15.7661 97.215H15.5431C15.5781 97.637 15.6171 98.039 15.6531 98.422C15.6761 98.742 15.7031 99.074 15.7271 99.414C15.7501 99.754 15.7661 100.024 15.7661 100.219V108.918H12.3901V79.434H15.1321L15.6161 82.18H15.7651C16.0451 81.746 16.3701 81.344 16.7251 80.965C17.0965 80.5813 17.5183 80.2499 17.9791 79.98C18.4822 79.6905 19.0207 79.4673 19.5811 79.316C20.2343 79.1396 20.9086 79.0542 21.5851 79.062C22.7451 79.062 23.8041 79.285 24.7571 79.73C25.7061 80.176 26.5191 80.84 27.1941 81.727C27.8661 82.609 28.3901 83.707 28.7611 85.016C29.1311 86.328 29.3151 87.848 29.3151 89.578C29.3151 91.32 29.1321 92.852 28.7611 94.168C28.3901 95.484 27.8661 96.586 27.1941 97.477C26.5566 98.3348 25.7203 99.0249 24.7571 99.488C23.8041 99.938 22.7451 100.164 21.5851 100.164H21.5861ZM20.9381 81.864C19.9961 81.864 19.2031 82.004 18.5551 82.289C17.9171 82.565 17.3701 83.0156 16.9771 83.589C16.5781 84.168 16.2811 84.891 16.0901 85.758C15.8981 86.621 15.7901 87.641 15.7661 88.816V89.578C15.7661 90.824 15.8481 91.934 16.0161 92.906C16.1801 93.875 16.4651 94.691 16.8671 95.352C17.2487 95.9955 17.8058 96.5169 18.4731 96.855C19.1371 97.195 19.9731 97.363 20.9731 97.363C22.6451 97.363 23.8711 96.691 24.6561 95.343C25.4411 93.996 25.8321 92.063 25.8321 89.539C25.8321 86.969 25.4421 85.047 24.6561 83.773C23.8711 82.5 22.6291 81.863 20.9381 81.863V81.864ZM31.5981 79.437H35.1021L39.0901 90.805C39.2621 91.301 39.4371 91.82 39.6171 92.363C39.7971 92.906 39.9651 93.449 40.1171 93.993C40.2731 94.539 40.4071 95.063 40.5161 95.57C40.6291 96.078 40.7071 96.547 40.7581 96.98H40.8681C40.9301 96.672 41.0311 96.25 41.1641 95.719C41.3011 95.188 41.4541 94.621 41.6211 94.023C41.7851 93.422 41.9611 92.832 42.1411 92.25C42.3161 91.672 42.4771 91.176 42.6131 90.77L46.3011 79.438H49.7891L41.7421 102.449C41.3951 103.449 41.0201 104.348 40.6171 105.149C40.2555 105.891 39.7842 106.574 39.2191 107.176C38.692 107.731 38.0548 108.17 37.3481 108.465C36.6281 108.77 35.7781 108.922 34.7891 108.922C34.23 108.927 33.6712 108.892 33.1171 108.816C32.7136 108.762 32.3123 108.692 31.9141 108.606V105.918C32.1721 105.977 32.5001 106.031 32.8941 106.074C33.2931 106.117 33.7071 106.141 34.1371 106.141C34.7301 106.141 35.2471 106.066 35.6761 105.926C36.1091 105.786 36.4881 105.578 36.8091 105.305C37.1291 105.031 37.4061 104.699 37.6331 104.305C37.8631 103.906 38.0701 103.457 38.2531 102.949L39.3131 99.984L31.5981 79.437Z" fill="#696969"/>
<path d="M59.3549 97.406C59.5779 97.406 59.8279 97.395 60.1049 97.371C60.6157 97.3277 61.1233 97.2533 61.6249 97.148C61.8439 97.098 62.0079 97.055 62.1169 97.02V99.578C61.9569 99.652 61.7539 99.727 61.5069 99.801C60.9374 99.9663 60.3529 100.075 59.7619 100.125C59.4419 100.156 59.1249 100.172 58.8159 100.172C58.0946 100.177 57.3765 100.077 56.6839 99.875C56.042 99.6826 55.4588 99.3319 54.9879 98.855C54.5119 98.371 54.1409 97.719 53.8679 96.898C53.5939 96.074 53.4609 95.039 53.4609 93.793V81.98H50.5859V80.48L53.4609 79.035L54.9059 74.77H56.8519V79.441H61.9689V81.981H56.8519V93.793C56.8519 94.993 57.0469 95.895 57.4379 96.5C57.8239 97.105 58.4649 97.406 59.3549 97.406ZM74.1129 100.164C72.7529 100.164 71.5119 99.937 70.3869 99.477C69.2832 99.0333 68.2917 98.3503 67.4839 97.477C66.6759 96.597 66.0509 95.512 65.6049 94.211C65.1599 92.914 64.9369 91.43 64.9369 89.761C64.9369 88.082 65.1409 86.578 65.5469 85.258C65.9569 83.934 66.5309 82.813 67.2729 81.891C67.9856 80.9935 68.8959 80.2728 69.9329 79.785C70.9649 79.305 72.1049 79.063 73.3549 79.063C74.5779 79.063 75.6799 79.285 76.6559 79.723C77.6138 80.1456 78.4635 80.7798 79.1409 81.578C79.8209 82.375 80.3399 83.332 80.7069 84.449C81.0699 85.57 81.2539 86.809 81.2539 88.168V90.262H68.4219C68.4839 92.648 68.9879 94.402 69.9339 95.527C70.8789 96.652 72.2849 97.215 74.1519 97.215C74.7819 97.215 75.3669 97.184 75.9019 97.125C76.4419 97.062 76.9609 96.973 77.4609 96.855C77.9609 96.738 78.4449 96.59 78.9179 96.41C79.3869 96.23 79.8629 96.031 80.3439 95.809V98.813C79.8519 99.047 79.3639 99.25 78.8909 99.422C78.4139 99.594 77.9259 99.738 77.4259 99.848C76.912 99.9618 76.3912 100.043 75.8669 100.09C75.3279 100.14 74.7469 100.164 74.1129 100.164ZM73.2809 81.864C71.8709 81.864 70.7539 82.348 69.9339 83.309C69.1139 84.273 68.6329 85.676 68.4959 87.519H77.6169C77.6169 86.679 77.5349 85.91 77.3669 85.211C77.2029 84.511 76.9409 83.914 76.5899 83.421C76.2453 82.9317 75.7832 82.5369 75.2459 82.273C74.7029 82 74.0459 81.863 73.2809 81.863V81.864ZM98.5709 94.214C98.5709 95.207 98.3909 96.07 98.0309 96.813C97.675 97.5509 97.1439 98.1905 96.4839 98.676C95.8089 99.176 94.9959 99.551 94.0429 99.796C93.0929 100.043 92.0229 100.168 90.8359 100.168C89.4879 100.168 88.3319 100.058 87.3709 99.844C86.4059 99.629 85.5589 99.309 84.8279 98.891V95.812C85.2109 96.008 85.6409 96.203 86.1089 96.395C87.102 96.7992 88.1371 97.091 89.1949 97.265C89.7366 97.3582 90.2853 97.4054 90.8349 97.406C91.6409 97.406 92.3249 97.336 92.8869 97.203C93.4489 97.066 93.9069 96.871 94.2569 96.617C94.6089 96.363 94.8669 96.055 95.0269 95.691C95.1915 95.3077 95.2742 94.8942 95.2699 94.477C95.2699 94.094 95.2069 93.747 95.0819 93.437C94.9609 93.129 94.7339 92.824 94.4059 92.52C94.0779 92.219 93.6289 91.91 93.0619 91.602C92.3486 91.2234 91.6189 90.8764 90.8749 90.562C90.0605 90.216 89.2593 89.8397 88.4729 89.434C87.8179 89.101 87.2097 88.6831 86.6639 88.191C86.1799 87.7455 85.792 87.2058 85.5239 86.605C85.2579 86.004 85.1249 85.293 85.1249 84.465C85.1249 83.598 85.2969 82.828 85.6369 82.156C85.9732 81.4829 86.466 80.9003 87.0739 80.457C87.6909 80 88.4339 79.657 89.2969 79.422C90.1639 79.184 91.1289 79.066 92.1909 79.066C93.3909 79.066 94.4839 79.199 95.4809 79.457C96.4769 79.719 97.4179 80.059 98.3089 80.477L97.1409 83.203C96.3342 82.8428 95.5071 82.53 94.6639 82.266C93.8274 82.0014 92.9553 81.8669 92.0779 81.867C90.8159 81.867 89.8869 82.074 89.2779 82.488C88.6719 82.902 88.3709 83.492 88.3709 84.258C88.3709 84.691 88.4409 85.07 88.5819 85.391C88.7269 85.711 88.9689 86.016 89.3159 86.301C89.6639 86.582 90.1249 86.871 90.7069 87.161C91.2889 87.453 92.0119 87.777 92.8749 88.137C93.7649 88.504 94.5589 88.875 95.2579 89.247C95.9569 89.617 96.5549 90.035 97.0469 90.5C97.5429 90.96 97.9179 91.492 98.1799 92.086C98.4369 92.676 98.5699 93.386 98.5699 94.215L98.5709 94.214ZM109.68 97.406C109.902 97.406 110.152 97.395 110.43 97.371C110.707 97.348 110.977 97.316 111.238 97.277C111.496 97.242 111.734 97.199 111.949 97.148C112.168 97.098 112.332 97.055 112.441 97.02V99.578C112.242 99.6668 112.037 99.7413 111.828 99.801C111.561 99.8791 111.29 99.9442 111.016 99.996C110.397 100.109 109.77 100.168 109.141 100.172C108.419 100.177 107.701 100.077 107.008 99.875C106.366 99.6825 105.784 99.3317 105.313 98.855C104.836 98.371 104.461 97.719 104.191 96.898C103.918 96.074 103.781 95.039 103.781 93.793V81.98H100.911V80.48L103.781 79.035L105.231 74.77H107.176V79.441H112.293V81.981H107.176V93.793C107.176 94.993 107.371 95.895 107.762 96.5C108.148 97.105 108.789 97.406 109.68 97.406Z" fill="#009FE3"/>
</svg>
