<svg width="128" height="128" viewBox="0 0 128 128" fill="none" xmlns="http://www.w3.org/2000/svg">
<path d="M31.5118 30.3979H92.8158C93.6131 30.3979 94.3776 30.7147 94.9414 31.2784C95.5051 31.8421 95.8218 32.6067 95.8218 33.4039C95.8218 34.2012 95.5051 34.9658 94.9414 35.5295C94.3776 36.0932 93.6131 36.4099 92.8158 36.4099H31.5118C30.7153 36.4092 29.9517 36.0924 29.3885 35.5292C28.8254 34.966 28.5086 34.2024 28.5078 33.4059C28.5078 32.6089 28.8242 31.8444 29.3874 31.2804C29.9507 30.7164 30.7147 30.399 31.5118 30.3979Z" fill="#696969"/>
<path d="M32.0469 24.3201H44.3699V27.1641H32.0469V24.3201Z" fill="#009FE3"/>
<path d="M48.168 24.3201H60.492V27.1641H48.168V24.3201Z" fill="#C7D302"/>
<path d="M64.0698 24.3201H76.3978V27.1641H64.0698V24.3201Z" fill="#F07E16"/>
<path d="M79.9102 24.3201H92.2342V27.1641H79.9102V24.3201ZM79.9102 39.5401H92.2342V60.3751H79.9102V39.5401Z" fill="#DF2815"/>
<path d="M64.0698 39.54H76.4218V73.387H64.0698V39.54Z" fill="#F07E16"/>
<path d="M48.168 39.54H60.492V90.238H48.168V39.54Z" fill="#C7D302"/>
<path d="M32.0469 39.54H44.3699V101.332H32.0469V39.54Z" fill="#009FE3"/>
</svg>
