<svg width="128" height="128" viewBox="0 0 128 128" fill="none" xmlns="http://www.w3.org/2000/svg">
<path d="M44.5081 18.238H81.2891C81.7672 18.238 82.2257 18.4279 82.5637 18.7659C82.9017 19.104 83.0916 19.5624 83.0916 20.0405C83.0916 20.5185 82.9017 20.977 82.5637 21.3151C82.2257 21.6531 81.7672 21.843 81.2891 21.843H44.5081C44.0301 21.843 43.5716 21.6531 43.2336 21.3151C42.8955 20.977 42.7056 20.5185 42.7056 20.0405C42.7056 19.5624 42.8955 19.104 43.2336 18.7659C43.5716 18.4279 44.0301 18.238 44.5081 18.238ZM44.8281 14.594H52.2231V16.297H44.8281V14.594ZM54.5001 14.594H61.8951V16.297H54.5001V14.594ZM64.0431 14.594H71.4371V16.297H64.0431V14.594ZM73.5471 14.594H80.9411V16.297H73.5471V14.594ZM73.5471 23.723H80.9411V36.223H73.5471V23.723ZM64.0431 23.723H71.4531V44.03H64.0431V23.723ZM54.5001 23.723H61.8951V54.145H54.5001V23.723ZM44.8281 23.723H52.2231V60.8H44.8281V23.723ZM21.5861 100.164C20.8561 100.164 20.1961 100.082 19.6021 99.922C19.0438 99.7769 18.5057 99.5629 18.0001 99.285C17.5388 99.0315 17.1143 98.7162 16.7381 98.348C16.3804 98.0006 16.0551 97.6214 15.7661 97.215H15.5431C15.5781 97.637 15.6171 98.039 15.6531 98.422C15.6761 98.742 15.7031 99.074 15.7271 99.414C15.7501 99.754 15.7661 100.024 15.7661 100.219V108.918H12.3901V79.434H15.1321L15.6161 82.18H15.7651C16.0451 81.746 16.3701 81.344 16.7251 80.965C17.0965 80.5812 17.5183 80.2499 17.9791 79.98C18.4822 79.6904 19.0207 79.4672 19.5811 79.316C20.2343 79.1396 20.9086 79.0541 21.5851 79.062C22.7451 79.062 23.8041 79.285 24.7571 79.73C25.7061 80.176 26.5191 80.84 27.1941 81.727C27.8661 82.609 28.3901 83.707 28.7611 85.016C29.1311 86.328 29.3151 87.848 29.3151 89.578C29.3151 91.32 29.1321 92.852 28.7611 94.168C28.3901 95.484 27.8661 96.586 27.1941 97.477C26.5566 98.3347 25.7203 99.0249 24.7571 99.488C23.8041 99.938 22.7451 100.164 21.5851 100.164H21.5861ZM20.9381 81.864C19.9961 81.864 19.2031 82.004 18.5551 82.289C17.9171 82.565 17.3701 83.0156 16.9771 83.589C16.5781 84.168 16.2811 84.891 16.0901 85.758C15.8981 86.621 15.7901 87.641 15.7661 88.816V89.578C15.7661 90.824 15.8481 91.934 16.0161 92.906C16.1801 93.875 16.4651 94.691 16.8671 95.352C17.2487 95.9955 17.8058 96.5168 18.4731 96.855C19.1371 97.195 19.9731 97.363 20.9731 97.363C22.6451 97.363 23.8711 96.691 24.6561 95.343C25.4411 93.996 25.8321 92.063 25.8321 89.539C25.8321 86.969 25.4421 85.047 24.6561 83.773C23.8711 82.5 22.6291 81.863 20.9381 81.863V81.864ZM31.5981 79.437H35.1021L39.0901 90.805C39.2621 91.301 39.4371 91.82 39.6171 92.363C39.7971 92.906 39.9651 93.449 40.1171 93.993C40.2731 94.539 40.4071 95.063 40.5161 95.57C40.6291 96.078 40.7071 96.547 40.7581 96.98H40.8681C40.9301 96.672 41.0311 96.25 41.1641 95.719C41.3011 95.188 41.4541 94.621 41.6211 94.023C41.7851 93.422 41.9611 92.832 42.1411 92.25C42.3161 91.672 42.4771 91.176 42.6131 90.77L46.3011 79.438H49.7891L41.7421 102.449C41.3951 103.449 41.0201 104.348 40.6171 105.149C40.2555 105.891 39.7842 106.574 39.2191 107.176C38.692 107.731 38.0548 108.17 37.3481 108.465C36.6281 108.77 35.7781 108.922 34.7891 108.922C34.23 108.927 33.6712 108.892 33.1171 108.816C32.7136 108.762 32.3123 108.691 31.9141 108.606V105.918C32.1721 105.977 32.5001 106.031 32.8941 106.074C33.2931 106.117 33.7071 106.141 34.1371 106.141C34.7301 106.141 35.2471 106.066 35.6761 105.926C36.1091 105.786 36.4881 105.578 36.8091 105.305C37.1291 105.031 37.4061 104.699 37.6331 104.305C37.8631 103.906 38.0701 103.457 38.2531 102.949L39.3131 99.984L31.5981 79.437ZM59.3551 97.407C59.5781 97.407 59.8281 97.395 60.1051 97.371C60.6159 97.3277 61.1235 97.2532 61.6251 97.148C61.8441 97.098 62.0081 97.055 62.1171 97.02V99.578C61.9571 99.652 61.7541 99.727 61.5071 99.801C60.9376 99.9663 60.3531 100.075 59.7621 100.125C59.4421 100.156 59.1251 100.172 58.8161 100.172C58.0948 100.177 57.3767 100.077 56.6841 99.875C56.0422 99.6826 55.459 99.3318 54.9881 98.855C54.5121 98.371 54.1411 97.719 53.8681 96.898C53.5941 96.074 53.4611 95.039 53.4611 93.793V81.98H50.5861V80.48L53.4611 79.035L54.9061 74.77H56.8521V79.441H61.9691V81.981H56.8521V93.793C56.8521 94.993 57.0471 95.895 57.4381 96.5C57.8241 97.105 58.4651 97.406 59.3551 97.406V97.407ZM74.1131 100.164C72.7531 100.164 71.5121 99.937 70.3871 99.477C69.2834 99.0333 68.2919 98.3502 67.4841 97.477C66.6761 96.597 66.0511 95.512 65.6051 94.211C65.1601 92.914 64.9371 91.43 64.9371 89.761C64.9371 88.082 65.1411 86.578 65.5471 85.258C65.9571 83.934 66.5311 82.813 67.2731 81.891C67.9858 80.9935 68.8961 80.2728 69.9331 79.785C70.9651 79.305 72.1051 79.063 73.3551 79.063C74.5781 79.063 75.6801 79.285 76.6561 79.723C77.614 80.1456 78.4637 80.7798 79.1411 81.578C79.8211 82.375 80.3401 83.332 80.7071 84.449C81.0701 85.57 81.2541 86.809 81.2541 88.168V90.262H68.4221C68.4841 92.648 68.9881 94.402 69.9341 95.527C70.8791 96.652 72.2851 97.215 74.1521 97.215C74.7821 97.215 75.3671 97.184 75.9021 97.125C76.4421 97.062 76.9611 96.973 77.4611 96.855C77.9611 96.738 78.4451 96.59 78.9181 96.41C79.3871 96.23 79.8631 96.031 80.3441 95.809V98.813C79.8521 99.047 79.3641 99.25 78.8911 99.422C78.4141 99.594 77.9261 99.738 77.4261 99.848C76.9122 99.9618 76.3914 100.043 75.8671 100.09C75.3281 100.14 74.7471 100.164 74.1131 100.164ZM73.2811 81.864C71.8711 81.864 70.7541 82.348 69.9341 83.309C69.1141 84.273 68.6331 85.676 68.4961 87.519H77.6171C77.6171 86.679 77.5351 85.91 77.3671 85.211C77.2031 84.511 76.9411 83.914 76.5901 83.421C76.2455 82.9316 75.7834 82.5368 75.2461 82.273C74.7031 82 74.0461 81.863 73.2811 81.863V81.864ZM98.5711 94.214C98.5711 95.207 98.3911 96.07 98.0311 96.813C97.6752 97.5509 97.1441 98.1905 96.4841 98.676C95.8091 99.176 94.9961 99.551 94.0431 99.796C93.0931 100.043 92.0231 100.168 90.8361 100.168C89.4881 100.168 88.3321 100.058 87.3711 99.844C86.4061 99.629 85.5591 99.309 84.8281 98.891V95.812C85.2111 96.008 85.6411 96.203 86.1091 96.395C87.1022 96.7991 88.1373 97.0909 89.1951 97.265C89.7368 97.3582 90.2855 97.4053 90.8351 97.406C91.6411 97.406 92.3251 97.336 92.8871 97.203C93.4491 97.066 93.9071 96.871 94.2571 96.617C94.6091 96.363 94.8671 96.055 95.0271 95.691C95.1917 95.3076 95.2744 94.8941 95.2701 94.477C95.2701 94.094 95.2071 93.747 95.0821 93.437C94.9611 93.129 94.7341 92.824 94.4061 92.52C94.0781 92.219 93.6291 91.91 93.0621 91.602C92.3488 91.2234 91.619 90.8764 90.8751 90.562C90.0607 90.216 89.2595 89.8397 88.4731 89.434C87.8181 89.101 87.2099 88.6831 86.6641 88.191C86.1801 87.7455 85.7922 87.2058 85.5241 86.605C85.2581 86.004 85.1251 85.293 85.1251 84.465C85.1251 83.598 85.2971 82.828 85.6371 82.156C85.9734 81.4829 86.4662 80.9003 87.0741 80.457C87.6911 80 88.4341 79.657 89.2971 79.422C90.1641 79.184 91.1291 79.066 92.1911 79.066C93.3911 79.066 94.4841 79.199 95.4811 79.457C96.4771 79.719 97.4181 80.059 98.3091 80.477L97.1411 83.203C96.3344 82.8428 95.5073 82.5299 94.6641 82.266C93.8276 82.0014 92.9555 81.8668 92.0781 81.867C90.8161 81.867 89.8871 82.074 89.2781 82.488C88.6721 82.902 88.3711 83.492 88.3711 84.258C88.3711 84.691 88.4411 85.07 88.5821 85.391C88.7271 85.711 88.9691 86.016 89.3161 86.301C89.6641 86.582 90.1251 86.871 90.7071 87.161C91.2891 87.453 92.0121 87.777 92.8751 88.137C93.7651 88.504 94.5591 88.875 95.2581 89.247C95.9571 89.617 96.5551 90.035 97.0471 90.5C97.5431 90.96 97.9181 91.492 98.1801 92.086C98.4371 92.676 98.5701 93.386 98.5701 94.215L98.5711 94.214ZM109.68 97.406C109.902 97.406 110.152 97.395 110.43 97.371C110.707 97.348 110.977 97.316 111.238 97.277C111.496 97.242 111.734 97.199 111.949 97.148C112.168 97.098 112.332 97.055 112.441 97.02V99.578C112.242 99.6668 112.038 99.7413 111.828 99.801C111.561 99.8791 111.29 99.9442 111.016 99.996C110.397 100.109 109.77 100.168 109.141 100.172C108.42 100.177 107.701 100.077 107.008 99.875C106.367 99.6824 105.784 99.3317 105.313 98.855C104.836 98.371 104.461 97.719 104.191 96.898C103.918 96.074 103.781 95.039 103.781 93.793V81.98H100.911V80.48L103.781 79.035L105.231 74.77H107.176V79.441H112.293V81.981H107.176V93.793C107.176 94.993 107.371 95.895 107.762 96.5C108.148 97.105 108.789 97.406 109.68 97.406Z" fill="#009FE3"/>
</svg>
