<svg width="128" height="128" viewBox="0 0 128 128" fill="none" xmlns="http://www.w3.org/2000/svg">
<path d="M31.5118 30.3981H92.8158C93.6131 30.3981 94.3776 30.7148 94.9414 31.2785C95.5051 31.8422 95.8218 32.6068 95.8218 33.4041C95.8218 34.2013 95.5051 34.9659 94.9414 35.5296C94.3776 36.0934 93.6131 36.4101 92.8158 36.4101H31.5118C30.7153 36.4093 29.9517 36.0925 29.3885 35.5293C28.8254 34.9662 28.5086 34.2025 28.5078 33.4061C28.5078 32.609 28.8242 31.8445 29.3874 31.2805C29.9507 30.7165 30.7147 30.3991 31.5118 30.3981ZM32.0468 24.3201H44.3698V27.1641H32.0468V24.3201ZM48.1678 24.3201H60.4918V27.1641H48.1678V24.3201ZM64.0698 24.3201H76.3978V27.1641H64.0698V24.3201ZM79.9098 24.3201H92.2338V27.1641H79.9098V24.3201ZM79.9098 39.5401H92.2338V60.3751H79.9098V39.5401ZM64.0698 39.5401H76.4218V73.3871H64.0698V39.5401ZM48.1678 39.5401H60.4918V90.2381H48.1678V39.5401ZM32.0468 39.5401H44.3698V101.332H32.0468V39.5401Z" fill="#009FE3"/>
</svg>
