<svg width="128" height="128" viewBox="0 0 128 128" fill="none" xmlns="http://www.w3.org/2000/svg">
<path d="M40.0002 67.9999V57.9209C40.0002 50.9479 46.2182 44.9999 53.3832 44.9999H74.4852C80.3592 44.9999 84.0002 39.9599 84.0002 34.0619V13.9449C84.0002 8.2189 79.6942 3.9189 73.9602 2.9639C70.4105 2.36926 66.8163 2.08086 63.2172 2.1019C59.6062 2.1189 55.8782 2.4259 52.8432 2.9639C43.9022 4.5419 42.0002 7.8479 42.0002 13.9449V21.9999H63.0002V24.9999H34.8912C28.7512 24.9999 23.3752 28.5299 21.6932 35.5519C19.7542 43.5989 19.6682 48.7539 21.6932 57.1569C23.1952 63.4109 26.7822 67.9999 32.9212 67.9999H40.0002ZM52.0542 16.6279C49.8642 16.6279 48.0902 14.8329 48.0902 12.6149C48.0902 10.3859 49.8632 8.5759 52.0542 8.5759C54.2362 8.5759 56.0182 10.3869 56.0182 12.6149C56.0182 14.8329 54.2362 16.6279 52.0542 16.6279ZM106.175 35.5519C104.658 29.4379 101.759 24.9999 95.6122 24.9999H87.0002V34.0619C87.0002 41.3349 81.5162 47.9999 74.4852 47.9999H53.3832C47.6032 47.9999 42.0002 52.4029 42.0002 58.1929V78.3099C42.0002 84.0349 47.3882 87.4029 52.9742 89.0439C59.6602 91.0109 65.7552 91.3659 73.7562 89.0439C79.0742 87.5039 84.0002 84.4059 84.0002 78.3099V70.9999H63.0002V67.9999H95.6112C101.751 67.9999 104.039 63.5839 106.174 57.1569C108.38 50.5389 108.286 44.0419 106.175 35.5519ZM75.8142 75.6249C78.0042 75.6249 79.7792 77.4199 79.7792 79.6399C79.7792 81.8669 78.0052 83.6769 75.8142 83.6769C73.6322 83.6769 71.8512 81.8659 71.8512 79.6399C71.8512 77.4199 73.6322 75.6249 75.8142 75.6249ZM34.9112 112.049C34.9112 108.292 33.8392 106.363 31.6972 106.258C30.846 106.216 29.9956 106.356 29.2022 106.667C28.5562 106.898 28.1202 107.128 27.8912 107.359V116.327C29.2622 117.187 30.4792 117.587 31.5402 117.524C33.7872 117.376 34.9112 115.553 34.9112 112.049ZM37.5542 112.206C37.5542 114.115 37.1072 115.699 36.2062 116.959C35.2032 118.386 33.8122 119.119 32.0342 119.16C30.6942 119.203 29.3132 118.782 27.8922 117.902V126.053L25.5942 125.233V107.14C25.9712 106.678 26.4562 106.281 27.0452 105.944C28.4132 105.146 30.0762 104.737 32.0322 104.716L32.0652 104.748C33.8532 104.726 35.2312 105.46 36.1992 106.949C37.1012 108.315 37.5542 110.066 37.5542 112.206ZM51.6032 117.555C51.6032 120.115 51.3462 121.888 50.8332 122.873C50.3172 123.859 49.3362 124.646 47.8882 125.232C46.7142 125.695 45.4442 125.946 44.0802 125.989L43.7002 124.541C45.0862 124.353 46.0622 124.163 46.6282 123.975C47.7422 123.598 48.5062 123.02 48.9262 122.245C49.2632 121.614 49.4292 120.41 49.4292 118.627V118.028C47.8786 118.736 46.193 119.101 44.4882 119.096C43.3562 119.096 42.3582 118.742 41.4982 118.028C40.5322 117.251 40.0492 116.264 40.0492 115.07V105.504L42.3482 104.717V114.347C42.3482 115.375 42.6802 116.167 43.3442 116.723C44.0082 117.279 44.8682 117.545 45.9222 117.526C46.9762 117.504 48.1052 117.095 49.3042 116.298V105.064H51.6032V117.555ZM60.5762 119.034C60.3244 119.055 60.0719 119.065 59.8192 119.066C58.5192 119.066 57.5052 118.757 56.7812 118.136C56.0592 117.514 55.6972 116.657 55.6972 115.563V106.509H54.1232V105.063H55.6972V101.223L57.9932 100.406V105.063H60.5762V106.509H57.9932V115.5C57.9932 116.362 58.2242 116.974 58.6872 117.33C59.0842 117.625 59.7162 117.793 60.5762 117.836V119.034ZM74.4932 118.845H72.1952V109.972C72.1952 109.07 71.9842 108.292 71.5642 107.643C71.0792 106.909 70.4052 106.541 69.5402 106.541C68.4862 106.541 67.1682 107.097 65.5862 108.209V118.845H63.2882V97.6369L65.5862 96.9119V106.571C67.0552 105.503 68.6592 104.967 70.4022 104.967C71.6202 104.967 72.6052 105.377 73.3602 106.195C74.1172 107.012 74.4942 108.031 74.4942 109.248V118.845H74.4932ZM86.7112 111.688C86.7112 110.244 86.4372 109.052 85.8912 108.109C85.2422 106.96 84.2342 106.353 82.8702 106.291C80.3502 106.437 79.0922 108.242 79.0922 111.703C79.0922 113.29 79.3542 114.615 79.8822 115.679C80.5562 117.035 81.5672 117.703 82.9152 117.681C85.4462 117.661 86.7112 115.664 86.7112 111.688ZM89.2292 111.703C89.2292 113.758 88.7032 115.468 87.6542 116.834C86.5002 118.362 84.9052 119.13 82.8712 119.13C80.8542 119.13 79.2822 118.362 78.1482 116.834C77.1202 115.468 76.6062 113.758 76.6062 111.703C76.6062 109.771 77.1622 108.147 78.2742 106.824C79.4482 105.421 80.9922 104.717 82.9012 104.717C84.8102 104.717 86.3642 105.421 87.5612 106.824C88.6722 108.147 89.2292 109.771 89.2292 111.703ZM102.407 118.845H100.108V109.469C100.108 108.441 99.7982 107.638 99.1802 107.06C98.5612 106.484 97.7372 106.205 96.7082 106.227C95.6172 106.248 94.5782 106.605 93.5922 107.296V118.845H91.2932V107.012C92.6162 106.049 93.8332 105.42 94.9452 105.126C95.9942 104.852 96.9192 104.716 97.7162 104.716C98.2612 104.716 98.7752 104.769 99.2582 104.874C100.161 105.083 100.895 105.47 101.461 106.038C102.092 106.667 102.407 107.422 102.407 108.305V118.845Z" fill="#FFD845"/>
</svg>
