<svg width="128" height="128" viewBox="0 0 128 128" fill="none" xmlns="http://www.w3.org/2000/svg">
<path d="M49.33 62H78.489C86.606 62 93 55.132 93 46.981V19.183C93 11.271 86.368 5.32701 78.445 4.00701C73.431 3.17201 68.25 2.79201 63.258 2.81601C58.268 2.83901 53.646 3.26401 49.453 4.00701C37.098 6.18801 35 10.758 35 19.183V30H64V34H23.776C15.292 34 7.86202 39.108 5.53902 48.811C2.85802 59.931 2.73902 66.73 5.53902 78.341C7.61402 86.983 12.569 93 21.054 93H31V79.952C31 70.315 39.428 62 49.33 62ZM47.492 22.89C44.466 22.89 42.014 20.411 42.014 17.345C42.014 14.266 44.465 11.764 47.492 11.764C50.507 11.764 52.971 14.266 52.971 17.345C52.97 20.411 50.506 22.89 47.492 22.89ZM122.281 48.811C120.183 40.363 116.178 34 107.682 34H97V46.981C97 57.031 88.206 65 78.489 65H49.33C41.342 65 35 72.326 35 80.326V108.126C35 116.036 41.745 120.69 49.462 122.96C58.704 125.677 67.456 126.168 78.513 122.96C85.862 120.831 93 116.549 93 108.126V97H64V93H107.682C116.166 93 119.329 87.224 122.281 78.34C125.328 69.195 125.197 60.541 122.281 48.811ZM80.326 104.417C83.353 104.417 85.805 106.896 85.805 109.964C85.805 113.04 83.354 115.543 80.326 115.543C77.311 115.543 74.848 113.041 74.848 109.964C74.848 106.896 77.311 104.417 80.326 104.417Z" fill="#FFD845"/>
</svg>
