<svg width="128" height="128" viewBox="0 0 128 128" fill="none" xmlns="http://www.w3.org/2000/svg">
<path d="M100.1 38.3L90.9001 47.5C106 62.6 106 86.9 90.9001 101.8C75.8001 116.9 51.5001 116.9 36.6001 101.8C21.5001 86.7 21.5001 62.4 36.6001 47.5L60.6001 23.5L64.0001 20.1V2L27.8001 38.2C7.7001 58.3 7.7001 90.8 27.8001 111C47.9001 131.2 80.4001 131.1 100.2 111C120.3 90.8 120.3 58.5 100.1 38.3Z" fill="#EE4C2C"/>
<path d="M88.7694 29.4936C88.8379 25.794 85.8944 22.7394 82.1948 22.6708C78.4953 22.6023 75.4406 25.5459 75.3721 29.2454C75.3036 32.945 78.2471 35.9996 81.9467 36.0682C85.6463 36.1367 88.7009 33.1931 88.7694 29.4936Z" fill="#EE4C2C"/>
</svg>
