<svg width="128" height="128" viewBox="0 0 128 128" fill="none" xmlns="http://www.w3.org/2000/svg">
<path d="M17.8999 55.7L16.1999 57.4C18.8999 60.1 18.8999 64.6 16.1999 67.3C13.4999 70 8.9999 70 6.3999 67.2C3.6999 64.5 3.6999 60 6.3999 57.3L10.7999 52.9L11.3999 52.3V49L4.7999 55.6C1.0999 59.3 1.0999 65.2 4.7999 68.8C8.4999 72.4 14.3999 72.5 17.9999 68.8C21.5999 65.2 21.5999 59.4 17.8999 55.7Z" fill="#EE4C2C"/>
<path d="M14.5999 55.2999C15.2626 55.2999 15.7999 54.7626 15.7999 54.0999C15.7999 53.4372 15.2626 52.8999 14.5999 52.8999C13.9372 52.8999 13.3999 53.4372 13.3999 54.0999C13.3999 54.7626 13.9372 55.2999 14.5999 55.2999Z" fill="#EE4C2C"/>
<path d="M34.9 64.0999H32.1V71.4H30V50.7H35.2C40.6 50.7 43.2 53.3999 43.2 57.0999C43.2 61.6999 40 64.0999 34.9 64.0999ZM35.1 52.7999H32.1V62.2999L35 62.2C38.9 62.1 41 60.6 41 57.4C41.1 54.4 38.9 52.7999 35.1 52.7999ZM52.7 71.3L51.5 74.5999C50.1 78.2999 48.7 79.3 46.6 79.3C45.5 79.3 44.6 78.9999 43.7 78.5999L44.3 76.6999C45 77.0999 45.8 77.4 46.6 77.4C47.7 77.4 48.6 76.8 49.7 73.9L50.7 71.1999L44.8 56.2999H47L51.7 68.8L56.4 56.2999H58.5L52.7 71.3Z" fill="#EE4C2C"/>
<path d="M65.5001 52.7999V71.5H63.4001V52.7999H56.1001V50.7999H72.7001V52.7999H65.5001ZM78.8001 71.8C74.6001 71.8 71.5001 68.7 71.5001 63.9C71.5001 59.1 74.7001 55.9 79.0001 55.9C83.3001 55.9 86.3001 58.9999 86.3001 63.7999C86.2001 68.5999 83.0001 71.8 78.8001 71.8ZM78.8001 57.7999C75.6001 57.7999 73.5001 60.3 73.5001 63.9C73.5001 67.6 75.6001 70.0999 78.8001 70.0999C82.0001 70.0999 84.1001 67.6 84.1001 64C84.2001 60.2 82.1001 57.7999 78.8001 57.7999ZM91.4001 71.4H89.3001V56.2999L91.4001 55.7999V59C92.4001 57.1 93.8001 55.7999 95.8001 55.7999C96.8001 55.7999 97.7001 56.1 98.5001 56.5L98.0001 58.4C97.3001 58 96.5001 57.7 95.7001 57.7C94.1001 57.7 92.6001 58.8999 91.4001 61.5999V71.4ZM106.5 71.8C101.9 71.8 99.1001 68.5 99.1001 63.9C99.1001 59.2 102.2 55.9 106.5 55.9C108.3 55.9 109.9 56.4 111.2 57.2L110.7 59C109.6 58.2 108.1 57.7999 106.5 57.7999C103.2 57.7999 101.2 60.1999 101.2 63.7999C101.2 67.5 103.3 69.9 106.5 69.9C108 69.9 109.6 69.3999 110.7 68.6999L111.2 70.5999C109.9 71.2999 108.3 71.8 106.5 71.8ZM123.9 71.4V61.5999C123.9 58.8999 122.8 57.7999 120.7 57.7999C118.9 57.7999 117.3 58.7 116 59.9V71.4H113.9V49.2L116 48.7V58.2999C117.6 56.6999 119.6 55.9 121.3 55.9C124.2 55.9 126 57.7999 126 61.0999V71.4H123.9Z" fill="#EE4C2C"/>
</svg>
