<svg width="142" height="137" viewBox="0 0 142 137" fill="none" xmlns="http://www.w3.org/2000/svg">
<path d="M23.7556 17.9998L6 35.704V112H116.245L133.998 94.2969V17.9998H121.696H23.7556ZM53.6407 34.4409C61.9714 34.4409 67.8189 36.79 71.1342 41.5334C74.4924 46.2277 76.1496 53.4944 76.1496 63.3264C76.1496 69.8054 75.4521 75.0252 74.1028 78.9858C72.7047 82.9855 70.4815 86.0313 67.3396 88.1192L74.1456 99.0392L65.8109 102.91L58.6142 91.122C57.5679 91.4693 55.9087 91.5984 53.6417 91.5984C45.2212 91.5984 39.3319 89.3383 36.0176 84.8152C32.7022 80.291 31.045 73.1144 31.045 63.3695C31.045 53.5835 32.7451 46.3188 36.1033 41.5764C39.4615 36.8321 45.3508 34.4399 53.6417 34.4399L53.6407 34.4409ZM87.4479 37.6158H96.2221V49.3175H107.39V56.8014H96.2221V74.5908C96.2221 77.8988 96.4792 80.0728 96.9595 81.1598C97.4398 82.2468 98.7034 82.7703 100.669 82.7703L107.298 82.508L107.694 89.5545C104.073 90.2492 101.323 90.5975 99.4059 90.5975C94.823 90.5975 91.6801 89.5535 89.98 87.4656C88.279 85.3777 87.4051 81.4211 87.4051 75.5917V56.8465H81.2567V49.3175H87.4479V37.6158ZM53.6865 42.3151C48.6243 42.3151 45.1355 43.9686 43.2133 47.3157C41.3399 50.6668 40.3792 55.9737 40.3792 63.3264C40.3792 70.6331 41.296 75.897 43.1276 79.0289C44.9582 82.1607 48.4928 83.7712 53.6855 83.7712C58.8743 83.7712 62.366 82.2038 64.1986 79.1149C65.9883 76.0261 66.9011 70.7633 66.9011 63.4125C66.9011 56.0187 65.9873 50.6668 64.1109 47.3157C62.2375 43.9686 58.7876 42.3151 53.6855 42.3151H53.6865Z" fill="#41CD52" stroke="black" stroke-width="0.998708"/>
<path d="M0.26416 0.547119H141.698V136.547H0.26416V0.547119Z" stroke="#41CD52" stroke-width="0.004"/>
</svg>
