<svg width="128" height="128" viewBox="0 0 128 128" fill="none" xmlns="http://www.w3.org/2000/svg">
<path fill-rule="evenodd" clip-rule="evenodd" d="M64 100.38C28.654 100.38 0 81.19 0 57.5171C0 33.8451 28.654 14.6541 64 14.6541C99.346 14.6541 128 33.8441 128 57.5171C128 81.1891 99.346 100.38 64 100.38ZM73.796 31.4131C46.93 31.4131 25.15 44.5321 25.15 60.7161C25.15 76.8991 46.93 90.0191 73.796 90.0191C100.662 90.0191 120.489 81.0491 120.489 60.7161C120.489 40.3891 100.662 31.4131 73.796 31.4131Z" fill="url(#paint0_linear_3_7110)"/>
<path fill-rule="evenodd" clip-rule="evenodd" d="M97.4688 81.033C97.4688 81.033 101.343 82.202 103.593 83.341C104.373 83.736 105.725 84.524 106.699 85.56C107.271 86.1657 107.749 86.8533 108.119 87.6L123.385 113.34L98.7108 113.35L87.1738 91.684C87.1738 91.684 84.8108 87.624 83.3568 86.447C82.1438 85.465 81.6268 85.116 80.4278 85.116H74.5658L74.5698 113.335L52.7368 113.344V41.26H96.5808C96.5808 41.26 116.551 41.62 116.551 60.619C116.551 79.618 97.4688 81.032 97.4688 81.032V81.033ZM87.9718 56.896L74.7538 56.887L74.7478 69.145L87.9718 69.14C87.9718 69.14 94.0958 69.121 94.0958 62.905C94.0958 56.565 87.9718 56.896 87.9718 56.896Z" fill="url(#paint1_linear_3_7110)"/>
<defs>
<linearGradient id="paint0_linear_3_7110" x1="0.000721986" y1="14.6446" x2="79.2728" y2="133.005" gradientUnits="userSpaceOnUse">
<stop stop-color="#CBCED0"/>
<stop offset="1" stop-color="#84838B"/>
</linearGradient>
<linearGradient id="paint1_linear_3_7110" x1="52.7368" y1="41.2595" x2="124.812" y2="111.892" gradientUnits="userSpaceOnUse">
<stop stop-color="#276DC3"/>
<stop offset="1" stop-color="#165CAA"/>
</linearGradient>
</defs>
</svg>
