<svg width="128" height="128" viewBox="0 0 128 128" fill="none" xmlns="http://www.w3.org/2000/svg">
<path d="M64 14.648C28.654 14.648 0 33.838 0 57.511C0 78.275 22.046 95.589 51.316 99.53V86.699C35.766 81.809 25.15 72.006 25.15 60.708C25.15 44.525 46.929 31.405 73.796 31.405C100.662 31.405 120.489 40.38 120.489 60.708C120.489 71.194 115.216 78.658 106.423 83.428C107.627 84.336 108.643 85.5 109.327 86.847L109.715 87.502C121.025 79.772 128 69.189 128 57.51C128 33.838 99.346 14.647 64 14.647V14.648ZM84.1 89.528C81.488 89.785 78.778 89.938 75.986 89.99L75.988 99.62C80.2005 99.0901 84.3693 98.2572 88.462 97.128L87.961 96.187C87.281 94.919 86.614 93.644 85.928 92.38C85.3582 91.4049 84.7483 90.4537 84.1 89.529V89.528Z" fill="black"/>
<path fill-rule="evenodd" clip-rule="evenodd" d="M97.4688 81.0359C97.4688 81.0359 101.343 82.2049 103.593 83.3429C104.373 83.7389 105.725 84.5269 106.699 85.5629C107.271 86.1687 107.749 86.8562 108.119 87.6029L123.385 113.343L98.7108 113.353L87.1738 91.6869C87.1738 91.6869 84.8108 87.6269 83.3568 86.4499C82.1438 85.4679 81.6268 85.1189 80.4278 85.1189H74.5658L74.5698 113.338L52.7358 113.347V41.2629H96.5808C96.5808 41.2629 116.551 41.6229 116.551 60.6219C116.551 79.6209 97.4698 81.0349 97.4698 81.0349L97.4688 81.0359ZM87.9718 56.8989L74.7538 56.8899L74.7478 69.1469L87.9718 69.1429C87.9718 69.1429 94.0958 69.1239 94.0958 62.9079C94.0958 56.5679 87.9718 56.8979 87.9718 56.8979V56.8989Z" fill="black"/>
</svg>
