<svg width="128" height="128" viewBox="0 0 128 128" fill="none" xmlns="http://www.w3.org/2000/svg">
<path fill-rule="evenodd" clip-rule="evenodd" d="M109.682 14.737C97.4761 8.71397 84.9741 8.10097 72.1741 12.626C60.3951 16.79 50.9991 24.241 44.0141 34.389C32.1951 51.561 23.6101 70.298 18.7991 90.652C16.3351 101.069 14.7391 112.118 15.1681 122.876C15.2031 123.749 15.3331 124 15.4191 126H75.7851C75.6121 124 75.4981 124.584 75.3481 124.203C72.1583 116.031 69.6732 107.601 67.9201 99.005C65.4221 86.754 64.1141 74.276 66.6941 61.912C70.3051 44.599 80.1741 32.107 96.8111 25.629C106.235 21.962 115.18 23.005 123.025 29.891C123.097 29.954 123.245 29.916 123.437 29.947L126.002 26.064C121.062 21.361 115.634 17.675 109.682 14.737ZM3.33609 94.394C2.87609 98.317 2.44609 101.99 1.99609 105.845L13.1281 107.181L15.1671 95.288L3.33609 94.394ZM25.1861 60.208L14.7151 56.111L11.3311 65.718L22.0021 69.138C23.0821 66.107 24.0981 63.256 25.1861 60.208ZM74.6051 113.867C78.1801 114.133 81.7621 114.316 85.7081 114.546C84.2751 111.567 83.0021 108.873 81.6691 106.211C81.5231 105.922 81.0301 105.643 80.6951 105.638C77.6621 105.594 74.6271 105.613 71.4041 105.613C72.1301 108.241 72.7611 110.666 73.5001 113.056C73.6111 113.417 74.2071 113.838 74.6051 113.867ZM42.9331 31.103L34.9781 25.835L28.6191 32.94L36.7971 38.436L42.9331 31.103ZM68.2671 84.472C68.2541 84.793 68.5431 85.304 68.8251 85.431C71.6901 86.719 74.5851 87.946 77.7371 89.304C77.6061 86.812 77.5181 84.729 77.3691 82.65C77.3421 82.276 77.1661 81.738 76.8891 81.584C74.2581 80.128 71.5901 78.737 68.6731 77.189C68.5141 79.854 68.3521 82.161 68.2671 84.472ZM65.9101 12.3L60.4641 6.11897L52.9651 10.017L58.4201 16.661L65.9101 12.3ZM69.3251 61.476C69.1621 61.85 69.3771 62.643 69.6981 62.932C71.8731 64.894 74.1221 66.772 76.6241 68.913C77.1971 66.513 77.7371 64.374 78.1951 62.22C78.2761 61.837 78.1631 61.204 77.8971 60.99C75.9511 59.421 73.9421 57.927 71.8601 56.339C70.9451 58.154 70.0581 59.782 69.3251 61.476ZM81.7751 9.05197C84.5551 9.12697 87.3381 9.09397 90.2741 9.09397C89.9811 7.04997 89.8411 5.50097 89.4921 4.00197C89.3881 3.55597 88.7171 2.96197 88.2641 2.92397C85.4771 2.69797 82.6791 2.61097 79.6131 2.46497C80.0221 4.52797 80.3341 6.34597 80.7751 8.13297C80.8681 8.51197 81.4221 9.04197 81.7751 9.05197ZM85.1601 44.727C85.3021 44.461 85.3381 43.978 85.1891 43.746C83.8231 41.609 82.4041 39.505 80.9351 37.291L76.1751 41.663L82.7571 48.957C83.6411 47.418 84.4321 46.089 85.1601 44.727ZM90.2951 30.2L93.1381 35.481C97.5871 33.043 98.0131 32.161 96.4381 28.647L90.2951 30.2ZM111.582 13.927C113.433 15.069 115.388 16.042 117.374 17.112L118.704 15.042C116.282 13.271 113.944 11.558 111.291 9.61597C111.187 10.72 111.032 11.491 111.072 12.253C111.104 12.834 111.201 13.693 111.582 13.927ZM109 30.646C111 30.863 114 31.07 116 31.289V28.571C114 28.133 111 27.699 109 27.248V30.646Z" fill="#CC0000"/>
</svg>
