<svg width="128" height="128" viewBox="0 0 128 128" fill="none" xmlns="http://www.w3.org/2000/svg">
<path d="M17.444 125.054C17.444 125.054 17.632 95.516 17.632 65.49C17.632 7.33102 12.731 2.99902 38.826 2.99902H111.461V86.888C111.461 114.503 116.623 125.321 87.602 125.321C58.581 125.322 17.444 125.054 17.444 125.054Z" fill="#A62C39"/>
<path d="M77.3301 13.9709C77.3301 13.9709 81.9851 14.9029 86.0181 21.7279C90.0521 28.5539 111.462 81.6139 111.462 81.6139V38.4829L91.6041 6.21289L97.1891 13.0399L107.739 4.35089L94.0861 3.4209L77.3301 13.9709Z" fill="url(#paint0_linear_3_7117)"/>
<path opacity="0.668" d="M36.062 3.7309C36.062 3.7309 66.781 24.2099 81.675 28.2439C91.8211 30.9997 101.957 33.7924 112.083 36.6219L76.71 123.502L91.914 124.123L111.774 75.0969L111.152 3.4209L36.062 3.7309Z" fill="url(#paint1_radial_3_7117)"/>
<path d="M64.608 95.266L96.564 125.999L36.993 124.743C36.993 124.743 35.132 105.816 35.752 95.887L39.475 85.958L64.608 95.266Z" fill="white" fill-opacity="0.44"/>
<path d="M94.0851 125.365L65.2291 95.5771L38.8541 85.6481L18.3751 40.0361L40.0961 3.73208L25.5121 3.11108L19.6161 8.69708L17.4441 13.0411L15.8921 125.986L94.0851 125.365Z" fill="black" fill-opacity="0.362"/>
<path opacity="0.5" d="M111.773 77.8899C111.773 77.8899 82.6059 87.1989 65.2299 95.8869C47.8539 104.575 38.5449 125.674 38.5449 125.674C38.5449 125.674 75.7789 123.813 89.7419 124.433C103.705 125.054 110.221 125.054 111.462 105.506C112.703 85.9579 111.773 77.8899 111.773 77.8899Z" fill="#83222D"/>
<path d="M26.4351 96.4219V114.748H31.1091V109.975L35.3631 114.229H42.5351L36.8471 108.541C36.8471 108.541 40.9401 108.474 41.2491 102.557C41.2491 97.1269 37.1521 96.4229 32.4191 96.4229H26.4351V96.4219ZM31.3321 101.393H35.3631V104.658H31.3321V101.393ZM51.5621 96.4959C49.0031 96.4809 45.4541 96.7189 45.4541 101.541V114.278H50.2511V111.162H54.9011V114.204H59.7231V100.85C59.7231 96.6609 55.0691 96.4969 52.5761 96.4969L51.5621 96.4959ZM50.3251 101.096H54.8261V106.117H50.3251V101.096ZM64.5311 96.5069H69.4951V114.038H64.5311V96.5069ZM74.6921 96.7409V114.272H86.6391V109.618H79.5801V96.6629L74.6921 96.7409ZM102.463 96.5849V101.317H94.4731V103.024H97.8861C99.6711 103.024 103.394 102.947 103.394 108.532C103.394 114.117 100.833 114.428 95.6361 114.428H89.3531V110.161H96.5671C98.7391 110.161 98.8591 109.453 98.8591 108.837C98.8591 108.222 97.7491 107.935 95.4901 107.935C93.2311 107.935 89.0431 106.825 89.0431 102.481C89.0431 98.1369 91.2151 96.5079 95.5591 96.5079C99.9041 96.5069 102.463 96.5849 102.463 96.5849Z" fill="white"/>
<path d="M30.7868 91.233H72.0558C72.0558 91.233 62.9018 70.444 65.2298 51.36C67.5558 32.278 82.6058 23.589 91.1388 22.658C99.6718 21.727 104.326 27.002 104.326 27.002L106.187 24.21C106.187 24.21 93.9308 11.798 78.4158 13.195C62.9018 14.59 52.1968 24.83 45.5258 37.241C38.8548 49.653 34.9758 58.342 32.3378 71.373C29.7008 84.406 30.7868 91.233 30.7868 91.233ZM22.5648 70.444L30.6308 71.064L29.2348 79.132L21.6328 78.201L22.5648 70.444ZM35.2858 53.377L37.4578 47.327L30.3208 44.534L27.9938 51.05L35.2858 53.377ZM45.3698 32.588L49.5588 27.623L44.1288 24.055L39.7858 28.865L45.3698 32.588ZM56.3848 13.351L60.1088 17.85L65.2288 14.903L61.5048 10.714L56.3848 13.351ZM74.5378 8.23096L75.4678 12.73L81.8288 12.575L81.2088 8.54096L74.5378 8.23096Z" fill="white"/>
<path d="M96.1018 13.04L95.9468 15.832L100.29 18.16L101.221 16.764L96.1018 13.04ZM95.1718 24.986V27.313L99.3608 27.778V25.917L95.1718 24.986ZM81.8288 27.002L83.8458 30.726L86.7938 28.399L86.1728 25.917L81.8288 27.002ZM75.4678 31.812L78.5708 36.467L76.7088 39.724L72.2098 34.759L75.4678 31.812ZM69.2618 44.69L67.2448 48.723L72.5198 53.223L73.7608 48.102L69.2618 44.69ZM67.0898 58.807L66.7798 64.237L73.2958 67.029L72.9848 61.91L67.0898 58.807ZM68.9518 78.045L70.5038 83.631L78.7268 84.096L75.7778 78.045H68.9518Z" fill="white"/>
<path d="M17.444 125.054C17.444 125.054 17.632 95.516 17.632 65.49C17.632 7.33102 12.731 2.99902 38.826 2.99902H111.461V86.888C111.461 114.503 115.382 125.321 87.602 125.321C59.822 125.322 17.444 125.054 17.444 125.054V125.054Z" stroke="#5E000E" stroke-width="3"/>
<defs>
<linearGradient id="paint0_linear_3_7117" x1="87.3911" y1="50.5749" x2="109.903" y2="38.7829" gradientUnits="userSpaceOnUse">
<stop stop-color="white"/>
<stop offset="1" stop-color="#C0815E"/>
</linearGradient>
<radialGradient id="paint1_radial_3_7117" cx="0" cy="0" r="1" gradientUnits="userSpaceOnUse" gradientTransform="translate(74.072 63.2693) scale(38.406 60.7583)">
<stop stop-color="white"/>
<stop offset="1" stop-color="#A94436"/>
</radialGradient>
</defs>
</svg>
