<svg width="128" height="128" viewBox="0 0 128 128" fill="none" xmlns="http://www.w3.org/2000/svg">
<path d="M27.7969 69.228C26.4669 69.809 25.3849 62.721 27.0189 63.152C29.7289 64.677 29.2589 68.069 27.7969 69.228ZM26.3829 73.748C24.8199 75.885 22.7039 75.968 21.9159 75.373C21.0909 74.607 21.7209 72.229 22.8509 70.925C24.1439 69.487 25.5259 68.548 26.4899 69.281C27.1379 69.918 27.5179 72.314 26.3829 73.748ZM21.3029 71.108C21.3129 72.94 19.6869 74.433 17.6699 74.443C15.6529 74.453 14.0099 72.975 13.9999 71.143V71.109C13.9889 69.277 15.6149 67.784 17.6319 67.775C19.6479 67.765 21.2919 69.242 21.3019 71.074V71.109L21.3029 71.108ZM17.6669 78.829C15.8529 78.906 14.0749 77.365 14.0969 76.831C14.0709 76.049 16.3069 75.437 17.7639 75.473C19.2309 75.41 21.1999 75.939 21.2039 76.64C21.2279 77.32 19.4179 78.859 17.6669 78.829ZM11.3479 67.985C9.83485 67.009 9.56185 64.795 10.7379 63.041C11.9149 61.288 14.0959 60.657 15.6079 61.634C17.1219 62.61 17.3949 64.824 16.2179 66.577C15.0409 68.331 12.8609 68.961 11.3479 67.985ZM12.9839 75.377C12.1589 75.867 10.1569 75.665 8.73385 73.651C7.77385 71.961 7.89685 70.241 8.57085 69.736C9.57885 69.131 11.1359 69.948 12.3349 71.318C13.3789 72.558 13.8549 74.735 12.9849 75.377H12.9839ZM7.36185 69.316C5.89985 68.157 5.42885 64.766 8.13985 63.24C9.77385 62.81 8.69085 69.897 7.36185 69.316ZM13.7499 57.775C14.7889 57.947 8.77285 63.122 8.67985 61.967C8.58485 58.957 10.9299 57.307 13.7499 57.775ZM10.0369 56.281C10.2629 56.235 10.3689 56.191 10.4749 56.026C9.91785 55.851 9.31885 55.7 8.96585 55.41C9.15585 55.413 9.33385 55.452 9.58285 55.282C9.08385 55.018 8.55285 54.808 8.13885 54.404C8.39685 54.397 8.67385 54.401 8.75485 54.308C8.32837 54.0524 7.9382 53.7406 7.59485 53.381C7.95585 53.424 8.10785 53.387 8.19485 53.325C7.85085 52.977 7.41485 52.683 7.20585 52.255C7.47385 52.345 7.71885 52.38 7.89585 52.246C7.77785 51.986 7.27585 51.832 6.98585 51.224C7.26885 51.251 7.56785 51.284 7.62785 51.224C7.49685 50.698 7.27185 50.404 7.05185 50.097C7.65585 50.088 8.56985 50.1 8.52785 50.049L8.15485 49.674C8.74485 49.517 9.34785 49.699 9.78485 49.834C9.98185 49.681 9.78185 49.488 9.54185 49.29C10.0078 49.3483 10.4652 49.4611 10.9049 49.626C11.1239 49.431 10.7629 49.237 10.5889 49.043C11.3629 49.187 11.6909 49.39 12.0169 49.593C12.2529 49.371 12.0299 49.181 11.8699 48.987C12.4539 49.2 12.7549 49.474 13.0709 49.746C13.1779 49.603 13.3439 49.499 13.1439 49.154C13.5579 49.39 13.8699 49.667 14.1009 49.977C14.3579 49.817 14.2539 49.597 14.2549 49.394C14.6849 49.739 14.9589 50.106 15.2939 50.464C15.3609 50.417 15.4199 50.253 15.4719 49.994C16.4989 50.975 17.9509 53.447 15.8449 54.428C14.0549 52.973 11.9149 51.915 9.54485 51.122C12.5919 52.669 14.3629 53.921 15.3339 54.987C14.8369 56.95 12.2429 57.039 11.2939 56.984C11.4889 56.895 11.6509 56.789 11.7079 56.624C11.4699 56.458 10.6259 56.607 10.0369 56.281ZM17.6339 57.073C19.1269 57.057 20.9759 58.17 20.9689 59.219C20.9619 60.145 19.6699 60.895 17.6459 60.881C15.6629 60.857 14.3279 59.939 14.3329 59.041C14.3369 58.303 15.9519 57.03 17.6339 57.073ZM19.7599 49.993C19.8119 50.253 19.8699 50.416 19.9379 50.465C20.2729 50.106 20.5459 49.739 20.9759 49.394C20.9779 49.597 20.8739 49.816 21.1309 49.977C21.3609 49.667 21.6729 49.389 22.0879 49.154C21.8879 49.498 22.0539 49.603 22.1609 49.745C22.4769 49.475 22.7779 49.199 23.3609 48.987C23.2009 49.181 22.9789 49.37 23.2149 49.594C23.5409 49.39 23.8689 49.187 24.6429 49.042C24.4689 49.237 24.1079 49.432 24.3269 49.626C24.7359 49.469 25.1879 49.356 25.6889 49.29C25.4489 49.487 25.2489 49.68 25.4459 49.833C25.8839 49.699 26.4869 49.517 27.0759 49.673L26.7029 50.049C26.6629 50.099 27.5759 50.089 28.1799 50.097C27.9599 50.403 27.7349 50.698 27.6039 51.224C27.6639 51.284 27.9629 51.251 28.2439 51.224C27.9559 51.832 27.4539 51.986 27.3359 52.246C27.5129 52.38 27.7579 52.346 28.0259 52.254C27.8179 52.684 27.3809 52.977 27.0359 53.325C27.1229 53.387 27.2759 53.424 27.6359 53.381C27.2925 53.7407 26.9024 54.0525 26.4759 54.308C26.5569 54.401 26.8349 54.398 27.0929 54.404C26.6799 54.808 26.1469 55.018 25.6489 55.282C25.8969 55.452 26.0749 55.412 26.2649 55.41C25.9129 55.7 25.3129 55.85 24.7569 56.026C24.8619 56.19 24.9679 56.235 25.1949 56.281C24.6049 56.607 23.7619 56.458 23.5239 56.625C23.5809 56.789 23.7439 56.895 23.9369 56.985C22.9889 57.039 20.3949 56.95 19.8969 54.987C20.8689 53.92 22.6409 52.668 25.6889 51.12C23.3169 51.914 21.1769 52.972 19.3869 54.428C17.2809 53.448 18.7319 50.975 19.7599 49.993ZM23.9539 67.808C22.4409 68.785 20.2599 68.154 19.0839 66.401C17.9069 64.647 18.1799 62.433 19.6929 61.457C21.2059 60.481 23.3859 61.111 24.5629 62.865C25.7399 64.618 25.4669 66.832 23.9529 67.808H23.9539ZM26.6099 62.055C26.5169 63.21 20.5009 58.035 21.5399 57.863C24.3589 57.394 26.7049 59.044 26.6099 62.055ZM27.9789 62.545L27.7519 62.146C27.7609 59.28 26.4309 58.112 24.8799 57.224C25.3499 57.1 25.8339 56.998 25.9669 56.409C26.7729 56.203 26.9419 55.829 27.0219 55.434C27.2329 55.294 27.9389 54.899 27.8649 54.22C28.2599 53.947 28.4799 53.597 28.3679 53.101C28.7929 52.638 28.9049 52.256 28.7249 51.903C29.2349 51.269 29.0079 50.941 28.7899 50.609C29.1719 49.917 28.8349 49.174 27.7679 49.299C27.3439 48.675 26.4179 48.816 26.2749 48.819C26.1149 48.619 25.9029 48.447 25.2529 48.53C24.8309 48.155 24.3599 48.219 23.8739 48.403C23.2969 47.955 22.9159 48.314 22.4789 48.45C21.7809 48.225 21.6209 48.533 21.2779 48.659C20.5159 48.5 20.2849 48.846 19.9189 49.21L19.4939 49.202C18.3449 49.869 17.7739 51.227 17.5719 51.925C17.3699 51.227 16.7999 49.869 15.6519 49.202L15.2269 49.21C14.8609 48.846 14.6289 48.5 13.8669 48.659C13.5239 48.533 13.3649 48.225 12.6659 48.45C12.3799 48.361 12.1159 48.176 11.8059 48.185H11.8069C11.6449 48.19 11.4699 48.249 11.2709 48.404C10.7849 48.219 10.3139 48.154 9.89285 48.531C9.24285 48.447 9.03085 48.619 8.87085 48.819C8.72785 48.816 7.80185 48.675 7.37785 49.299C6.31085 49.174 5.97285 49.917 6.35485 50.609C6.13785 50.941 5.91185 51.269 6.42085 51.903C6.24085 52.256 6.35285 52.639 6.77785 53.102C6.66485 53.598 6.88585 53.948 7.28085 54.22C7.20685 54.9 7.91285 55.294 8.12385 55.434C8.20385 55.83 8.37385 56.203 9.17885 56.409C9.31185 56.999 9.79685 57.101 10.2659 57.224C8.71585 58.112 7.38585 59.28 7.39385 62.146L7.16685 62.546C5.38885 63.611 3.78985 67.034 6.29085 69.816C6.45385 70.687 6.72785 71.313 6.97185 72.006C7.33685 74.796 9.71885 76.102 10.3469 76.256C11.2679 76.946 12.2479 77.602 13.5749 78.061C14.8249 79.331 16.1809 79.816 17.5429 79.815H17.6029C18.9659 79.815 20.3209 79.332 21.5709 78.061C22.8979 77.602 23.8779 76.947 24.7989 76.256C25.4269 76.102 27.8089 74.796 28.1739 72.006C28.4179 71.313 28.6919 70.687 28.8549 69.816C31.3569 67.034 29.7569 63.61 27.9789 62.546" fill="#050606"/>
<path d="M35.3472 62.193H37.2002C37.8042 62.193 38.2542 62.066 38.5502 61.811C38.8472 61.556 38.9962 61.178 38.9962 60.677C38.9962 60.187 38.8472 59.797 38.5512 59.507C38.2542 59.218 37.8162 59.073 37.2372 59.073H35.3462L35.3472 62.193ZM35.3472 63.849V68.132H33.1982V57.417H37.2382C38.4602 57.417 39.4152 57.696 40.1042 58.253C40.7942 58.81 41.1382 59.586 41.1382 60.582C41.1382 61.136 40.9942 61.612 40.7042 62.009C40.4142 62.407 39.9902 62.729 39.4312 62.973C40.0642 63.16 40.5192 63.471 40.7962 63.908C41.0732 64.345 41.2122 64.884 41.2122 65.527V66.314C41.2122 66.614 41.2522 66.926 41.3332 67.253C41.4142 67.579 41.5532 67.821 41.7492 67.978V68.132H39.5342C39.3382 67.975 39.2102 67.712 39.1512 67.345C39.0943 66.9995 39.0649 66.6501 39.0632 66.3V65.542C39.0632 65.007 38.9172 64.592 38.6252 64.294C38.3332 63.998 37.9222 63.849 37.3932 63.849H35.3472ZM45.6942 66.697C46.0712 66.697 46.4072 66.604 46.7022 66.417C46.9962 66.231 47.1952 66.015 47.2982 65.77V64.644H46.0982C45.6422 64.644 45.2962 64.758 45.0612 64.986C44.9477 65.0916 44.8575 65.2199 44.7965 65.3625C44.7355 65.5051 44.7051 65.6589 44.7072 65.814C44.7072 66.079 44.7962 66.292 44.9722 66.454C45.1492 66.616 45.3892 66.697 45.6942 66.697ZM47.6582 68.132C47.5781 67.9454 47.5106 67.7536 47.4562 67.558C47.3997 67.3555 47.3592 67.1488 47.3352 66.94C47.1195 67.3219 46.8216 67.6511 46.4632 67.904C46.1022 68.159 45.6712 68.287 45.1712 68.287C44.3372 68.287 43.6942 68.072 43.2432 67.643C42.7922 67.213 42.5662 66.628 42.5662 65.888C42.5662 65.108 42.8662 64.503 43.4672 64.074C44.0682 63.644 44.9452 63.43 46.0982 63.43H47.2982V62.797C47.2982 62.414 47.1982 62.117 46.9962 61.907C46.7952 61.696 46.4982 61.59 46.1062 61.59C45.7572 61.59 45.4892 61.675 45.3002 61.844C45.1102 62.014 45.0162 62.247 45.0162 62.547L42.9412 62.539L42.9342 62.495C42.9002 61.823 43.1912 61.243 43.8102 60.755C44.4282 60.267 45.2402 60.023 46.2452 60.023C47.1972 60.023 47.9702 60.264 48.5642 60.747C49.1572 61.231 49.4542 61.919 49.4542 62.812V66.1C49.4542 66.473 49.4822 66.824 49.5392 67.152C49.5952 67.482 49.6842 67.807 49.8072 68.132H47.6582ZM55.3852 65.94C55.3852 65.704 55.2712 65.5 55.0432 65.328C54.8152 65.157 54.3922 65.005 53.7732 64.872C52.8322 64.681 52.1222 64.397 51.6432 64.022C51.1652 63.647 50.9262 63.135 50.9262 62.488C50.9262 61.801 51.2142 61.218 51.7902 60.74C52.3672 60.262 53.1382 60.023 54.1052 60.023C55.1202 60.023 55.9292 60.261 56.5302 60.736C57.1302 61.212 57.4192 61.813 57.3942 62.539L57.3802 62.583H55.3042C55.3042 62.265 55.2022 62.005 54.9992 61.803C54.7952 61.603 54.4972 61.502 54.1052 61.502C53.7562 61.502 53.4832 61.586 53.2852 61.756C53.1904 61.8323 53.1142 61.9293 53.0624 62.0395C53.0106 62.1497 52.9845 62.2702 52.9862 62.392C52.9862 62.637 53.0902 62.839 53.2992 62.996C53.5082 63.153 53.9312 63.292 54.5692 63.415C55.5492 63.611 56.2782 63.899 56.7542 64.28C57.2302 64.66 57.4682 65.184 57.4682 65.85C57.4682 66.567 57.1612 67.152 56.5482 67.606C55.9352 68.06 55.1252 68.286 54.1202 68.286C53.0602 68.286 52.2222 68.018 51.6062 67.481C50.9912 66.944 50.6982 66.331 50.7272 65.645L50.7422 65.601H52.7072C52.7212 66.027 52.8612 66.336 53.1272 66.528C53.3912 66.719 53.7372 66.815 54.1642 66.815C54.5612 66.815 54.8642 66.736 55.0722 66.579C55.1728 66.5061 55.2539 66.4096 55.3085 66.298C55.3631 66.1864 55.3894 66.0631 55.3852 65.939M63.8852 64.206C63.8852 63.454 63.7602 62.846 63.5092 62.378C63.2592 61.912 62.8772 61.678 62.3612 61.678C62.0382 61.678 61.7612 61.745 61.5332 61.878C61.3038 62.0128 61.1167 62.2092 60.9932 62.445V65.938C61.1252 66.164 61.3062 66.336 61.5332 66.454C61.7622 66.572 62.0432 66.631 62.3762 66.631C62.8962 66.631 63.2782 66.427 63.5212 66.019C63.7632 65.611 63.8852 65.059 63.8852 64.361V64.206ZM66.0342 64.372C66.0342 65.549 65.7612 66.496 65.2172 67.212C64.6722 67.929 63.9122 68.287 62.9352 68.287C62.5192 68.287 62.1482 68.209 61.8252 68.055C61.4978 67.8977 61.2126 67.6646 60.9932 67.375V71.193H58.8502V60.17H60.7862L60.9112 61.112C61.1462 60.763 61.4302 60.495 61.7612 60.306C62.0912 60.117 62.4782 60.023 62.9202 60.023C63.9062 60.023 64.6712 60.408 65.2162 61.178C65.7602 61.948 66.0332 62.961 66.0332 64.218V64.372M72.4002 64.217C72.4002 63.437 72.2852 62.82 72.0572 62.363C71.8292 61.907 71.4402 61.678 70.8912 61.678C70.5572 61.678 70.2752 61.748 70.0442 61.889C69.8094 62.0348 69.6207 62.2442 69.5002 62.493V65.883C69.6322 66.125 69.8152 66.31 70.0482 66.438C70.2812 66.567 70.5672 66.631 70.9052 66.631C71.4602 66.631 71.8472 66.435 72.0682 66.042C72.2892 65.65 72.3992 65.093 72.3992 64.372L72.4002 64.217ZM74.5402 64.372C74.5402 65.559 74.2762 66.508 73.7462 67.22C73.2162 67.93 72.4512 68.287 71.4502 68.287C70.9892 68.287 70.5852 68.19 70.2402 67.996C69.8811 67.7898 69.5788 67.4977 69.3602 67.146L69.1982 68.132H67.3582V56.652H69.5002V61.016C69.7302 60.697 70.0062 60.452 70.3282 60.28C70.6492 60.108 71.0182 60.023 71.4352 60.023C72.4452 60.023 73.2152 60.404 73.7462 61.167C74.2762 61.93 74.5412 62.947 74.5412 64.217V64.372M79.1992 61.678C78.8012 61.678 78.4882 61.83 78.2572 62.134C78.0262 62.439 77.8842 62.839 77.8302 63.334L77.8522 63.371H80.4872V63.18C80.4872 62.723 80.3802 62.359 80.1672 62.087C79.9532 61.814 79.6312 61.678 79.1992 61.678ZM79.3902 68.287C78.2422 68.287 77.3252 67.919 76.6382 67.183C75.9512 66.447 75.6082 65.513 75.6082 64.379V64.085C75.6082 62.902 75.9332 61.928 76.5832 61.163C77.2332 60.398 78.1052 60.018 79.1992 60.023C80.2732 60.023 81.1072 60.346 81.7012 60.993C82.2942 61.641 82.5912 62.517 82.5912 63.621V64.791H77.8382L77.8232 64.835C77.8632 65.358 78.0372 65.788 78.3492 66.125C78.6602 66.462 79.0842 66.631 79.6192 66.631C80.0942 66.631 80.4892 66.583 80.8032 66.487C81.1613 66.3723 81.5064 66.2208 81.8332 66.035L82.4152 67.363C82.0912 67.629 81.6672 67.849 81.1412 68.024C80.5758 68.2052 79.9849 68.294 79.3912 68.287M88.0302 62.017L87.2422 61.995C86.9232 61.995 86.6612 62.061 86.4552 62.193C86.2463 62.3289 86.0824 62.5238 85.9842 62.753V68.133H83.8422V60.17H85.8372L85.9322 61.347C86.1182 60.93 86.3602 60.605 86.6572 60.372C86.9542 60.139 87.2972 60.022 87.6842 60.022C87.7922 60.022 87.8912 60.032 87.9822 60.048C88.0722 60.065 88.1652 60.086 88.2582 60.111L88.0302 62.017ZM93.3062 62.017L92.5192 61.995C92.1992 61.995 91.9382 62.061 91.7312 62.193C91.5226 62.329 91.359 62.5239 91.2612 62.753V68.132H89.1192V60.17H91.1132L91.2092 61.347C91.3952 60.93 91.6372 60.605 91.9332 60.372C92.2302 60.139 92.5732 60.022 92.9602 60.022C93.0682 60.022 93.1672 60.032 93.2582 60.048C93.3492 60.066 93.4412 60.086 93.5342 60.111L93.3062 62.017ZM97.4712 64.791L97.5592 65.233H97.6042L99.1272 60.17H101.437L98.2072 69.324C98.0019 69.8613 97.6888 70.351 97.2872 70.763C96.9002 71.153 96.3192 71.348 95.5432 71.348C95.3622 71.348 95.1942 71.333 95.0392 71.304C94.8852 71.274 94.6972 71.233 94.4762 71.179L94.7262 69.611L94.9332 69.641C95.0062 69.651 95.0732 69.655 95.1312 69.655C95.4852 69.655 95.7572 69.568 95.9482 69.395C96.1402 69.22 96.2862 69.003 96.3902 68.743L96.6402 68.125L93.8142 60.17H96.1242L97.4712 64.791ZM108.377 62.59H110.496C111.094 62.59 111.548 62.428 111.858 62.101C112.167 61.775 112.321 61.359 112.321 60.854C112.321 60.339 112.168 59.914 111.861 59.577C111.555 59.241 111.1 59.073 110.496 59.073H108.377V62.59ZM108.377 64.247V68.132H106.227V57.417H110.496C111.728 57.417 112.696 57.732 113.403 58.359C114.11 58.988 114.463 59.814 114.463 60.839C114.463 61.865 114.11 62.689 113.403 63.312C112.696 63.935 111.728 64.247 110.496 64.247H108.377ZM118.128 68.132H115.978V60.17H118.128V68.132ZM118.128 58.264H115.978V56.652H118.128V58.264Z" fill="#231F20"/>
<path d="M121.327 58.7741C120.957 58.7741 120.602 58.6271 120.34 58.3655C120.079 58.1039 119.932 57.749 119.932 57.3791C119.932 57.0091 120.079 56.6543 120.34 56.3926C120.602 56.131 120.957 55.9841 121.327 55.9841C121.697 55.9841 122.052 56.131 122.313 56.3926C122.575 56.6543 122.722 57.0091 122.722 57.3791C122.722 57.749 122.575 58.1039 122.313 58.3655C122.052 58.6271 121.697 58.7741 121.327 58.7741ZM121.327 55.7061C120.883 55.7061 120.457 55.8824 120.143 56.1962C119.83 56.5101 119.653 56.9357 119.653 57.3796C119.653 57.8234 119.83 58.2491 120.143 58.5629C120.457 58.8767 120.883 59.0531 121.327 59.0531C121.771 59.0531 122.196 58.8767 122.51 58.5629C122.824 58.2491 123 57.8234 123 57.3796C123 56.9357 122.824 56.5101 122.51 56.1962C122.196 55.8824 121.771 55.7061 121.327 55.7061Z" fill="#181818"/>
<path d="M121.016 57.273H121.446C121.623 57.273 121.718 57.197 121.718 57.017C121.718 56.844 121.623 56.769 121.447 56.769H121.017L121.016 57.273ZM120.623 56.463H121.588C121.909 56.463 122.112 56.686 122.112 56.956C122.112 57.167 122.026 57.325 121.828 57.406V57.41C122.021 57.46 122.077 57.648 122.09 57.829C122.096 57.941 122.094 58.152 122.164 58.252H121.771C121.723 58.139 121.728 57.967 121.709 57.823C121.681 57.635 121.608 57.553 121.41 57.553H121.016V58.253H120.623V56.463Z" fill="#181818"/>
</svg>
