<svg width="128" height="128" viewBox="0 0 128 128" fill="none" xmlns="http://www.w3.org/2000/svg">
<path d="M102.14 83.503C97.1798 85.673 93.1428 59.228 99.2378 60.837C109.35 66.525 107.594 79.181 102.139 83.503H102.14ZM96.8668 100.367C91.0348 108.337 83.1408 108.647 80.2008 106.427C77.1248 103.57 79.4728 94.699 83.6888 89.835V89.834C88.5128 84.468 93.6708 80.965 97.2638 83.703C99.6818 86.076 101.101 95.015 96.8668 100.367ZM77.9128 90.52C77.9528 97.353 71.8848 102.922 64.3618 102.958C56.8378 102.994 50.7068 97.484 50.6668 90.65V90.52C50.6268 83.686 56.6938 78.117 64.2178 78.081C71.7418 78.045 77.8728 83.555 77.9128 90.389V90.519V90.52ZM64.3498 119.32C57.5828 119.608 50.9478 113.86 51.0348 111.869C50.9338 108.948 59.2748 106.668 64.7128 106.802C70.1858 106.566 77.5298 108.538 77.5438 111.153C77.6348 113.693 70.8838 119.431 64.3498 119.321V119.32ZM40.7758 78.867C35.1318 75.225 34.1138 66.967 38.5028 60.425C42.8928 53.882 51.0268 51.531 56.6718 55.174C62.3168 58.816 63.3338 67.074 58.9448 73.616C54.5548 80.159 46.4208 82.51 40.7758 78.867ZM46.8798 106.443C43.8038 108.272 36.3328 107.519 31.0218 100.005C27.4418 93.701 27.9028 87.285 30.4178 85.4C34.1778 83.144 39.9878 86.191 44.4578 91.301C48.3548 95.926 50.1308 104.049 46.8798 106.443ZM25.9068 83.831C20.4528 79.51 18.6958 66.854 28.8088 61.166C34.9028 59.557 30.8658 86.001 25.9068 83.831ZM49.7398 40.777C53.6138 41.418 31.1698 60.723 30.8238 56.417C30.4708 45.184 39.2208 39.027 49.7398 40.777ZM35.8868 35.204C36.7308 35.032 37.1258 34.864 37.5208 34.251C35.4438 33.598 33.2078 33.036 31.8918 31.955C32.6018 31.965 33.2648 32.112 34.1918 31.478C32.3318 30.491 30.3468 29.709 28.8058 28.2C29.7668 28.177 30.8038 28.19 31.1058 27.842C29.4028 26.804 27.9658 25.648 26.7778 24.385C28.1238 24.545 28.6918 24.407 29.0178 24.175C27.7298 22.878 26.1018 21.782 25.3248 20.182C26.3248 20.522 27.2388 20.652 27.8978 20.152C27.4598 19.18 25.5868 18.607 24.5078 16.337C25.5598 16.437 26.6758 16.563 26.8988 16.337C26.4108 14.377 25.5728 13.276 24.7508 12.135C27.0018 12.102 30.4128 12.143 30.2588 11.955L28.8668 10.555C31.0658 9.97204 33.3158 10.649 34.9498 11.151C35.6828 10.581 34.9368 9.86103 34.0418 9.12403C35.9108 9.37003 37.5988 9.79404 39.1248 10.376C39.9408 9.65104 38.5958 8.92604 37.9448 8.20004C40.8328 8.74004 42.0558 9.49804 43.2708 10.257C44.1538 9.42404 43.3208 8.71704 42.7268 7.99204C44.9038 8.78604 46.0248 9.81204 47.2058 10.823C47.6058 10.291 48.2218 9.90103 47.4778 8.61703C49.0228 9.49504 50.1878 10.529 51.0478 11.687C52.0048 11.087 51.6178 10.267 51.6238 9.51204C53.2298 10.799 54.2498 12.168 55.4978 13.506C55.7478 13.326 55.9678 12.714 56.1628 11.747C59.9948 15.409 65.4098 24.633 57.5548 28.29C50.8738 22.863 42.8948 18.916 34.0538 15.956C45.4188 21.728 52.0268 26.398 55.6468 30.376C53.7928 37.699 44.1158 38.033 40.5768 37.827C41.3018 37.495 41.9068 37.097 42.1208 36.487C41.2328 35.865 38.0848 36.421 35.8868 35.204ZM64.2288 38.157C69.7988 38.097 76.6958 42.251 76.6688 46.165C76.6438 49.62 71.8248 52.416 64.2718 52.363C56.8758 52.276 51.8958 48.849 51.9128 45.501C51.9278 42.746 57.9528 37.997 64.2288 38.157ZM72.1588 11.747C72.3528 12.713 72.5718 13.325 72.8238 13.505C74.0708 12.168 75.0908 10.798 76.6968 9.51103C76.7028 10.267 76.3168 11.087 77.2728 11.687C78.1328 10.528 79.2978 9.49403 80.8428 8.61703C80.0988 9.90003 80.7148 10.29 81.1158 10.822C82.2958 9.81003 83.4168 8.78504 85.5938 7.99104C84.9988 8.71604 84.1678 9.42303 85.0498 10.256C86.2648 9.49704 87.4888 8.73904 90.3758 8.19904C89.7248 8.92504 88.3798 9.65004 89.1958 10.375C90.7218 9.79204 92.4108 9.36904 94.2788 9.12304C93.3848 9.85904 92.6388 10.58 93.3718 11.15C95.0048 10.648 97.2548 9.97104 99.4548 10.554L98.0618 11.955C97.9078 12.142 101.319 12.101 103.57 12.134C102.748 13.275 101.91 14.377 101.421 16.337C101.645 16.563 102.761 16.437 103.812 16.337C102.733 18.607 100.86 19.18 100.422 20.152C101.082 20.652 101.996 20.522 102.995 20.182C102.219 21.782 100.59 22.878 99.3028 24.176C99.6288 24.406 100.197 24.545 101.543 24.385C100.353 25.648 98.9168 26.804 97.2148 27.842C97.5168 28.19 98.5528 28.177 99.5148 28.2C97.9728 29.709 95.9878 30.491 94.1278 31.478C95.0548 32.112 95.7178 31.964 96.4278 31.955C95.1128 33.036 92.8758 33.598 90.7998 34.251C91.1938 34.864 91.5898 35.031 92.4338 35.204C90.2358 36.421 87.0878 35.864 86.1998 36.486C86.4138 37.097 87.0178 37.496 87.7428 37.827C84.2048 38.033 74.5278 37.699 72.6728 30.376C76.2948 26.396 82.9048 21.726 94.2758 15.95C85.4288 18.911 77.4458 22.858 70.7658 28.29C62.9108 24.632 68.3258 15.408 72.1578 11.746L72.1588 11.747ZM87.8038 78.207C82.1598 81.85 74.0248 79.498 69.6358 72.956C65.2458 66.413 66.2638 58.156 71.9088 54.513C77.5538 50.871 85.6878 53.222 90.0768 59.764C94.4668 66.307 93.4488 74.564 87.8038 78.207ZM97.7138 56.746C97.3678 61.052 74.9238 41.748 78.7988 41.106C89.3158 39.358 98.0668 45.512 97.7138 56.746ZM102.821 58.572L101.972 57.084C102.006 46.392 97.0448 42.034 91.2598 38.721C93.0098 38.26 94.8178 37.88 95.3128 35.681C98.3208 34.911 98.9498 33.519 99.2518 32.044C100.039 31.519 102.672 30.047 102.396 27.514C103.87 26.498 104.692 25.192 104.274 23.342C105.858 21.614 106.274 20.186 105.602 18.87C107.504 16.508 106.66 15.283 105.848 14.043C107.273 11.46 106.016 8.69004 102.034 9.15404C100.45 6.82704 96.9968 7.35604 96.4638 7.36604C95.8658 6.61904 95.0768 5.97904 92.6498 6.29004C91.0788 4.88804 89.3208 5.12704 87.5078 5.81604C85.3558 4.14304 83.9308 5.48404 82.3038 5.99104C79.6978 5.15104 79.1018 6.30104 77.8218 6.76804C74.9798 6.17804 74.1158 7.46503 72.7528 8.82504L71.1688 8.79403C66.8818 11.282 64.7518 16.349 63.9978 18.954C63.2418 16.348 61.1178 11.281 56.8318 8.79403L55.2468 8.82404C53.8828 7.46404 53.0188 6.17704 50.1768 6.76804C48.8968 6.30104 48.3018 5.15204 45.6938 5.99104C44.6258 5.65804 43.6438 4.96604 42.4878 5.00104L42.4898 5.00204C41.8838 5.02004 41.2318 5.24104 40.4918 5.81604C38.6788 5.12704 36.9218 4.88804 35.3498 6.29004C32.9228 5.98004 32.1338 6.62004 31.5358 7.36704C31.0038 7.35604 27.5498 6.82703 25.9658 9.15504C21.9858 8.69104 20.7268 11.461 22.1518 14.044C21.3398 15.284 20.4968 16.508 22.3978 18.871C21.7258 20.188 22.1428 21.615 23.7278 23.344C23.3088 25.194 24.1308 26.499 25.6048 27.517C25.3288 30.048 27.9618 31.521 28.7478 32.045C29.0498 33.52 29.6798 34.913 32.6878 35.682C33.1828 37.882 34.9908 38.261 36.7408 38.722C30.9558 42.035 25.9948 46.392 26.0288 57.085L25.1808 58.575C18.5478 62.548 12.5798 75.318 21.9118 85.698C22.5218 88.948 23.5438 91.281 24.4538 93.864C25.8158 104.273 34.7008 109.146 37.0438 109.723C40.4788 112.299 44.1358 114.743 49.0858 116.456C53.7508 121.196 58.8058 123.002 63.8888 123H64.1128C69.1958 123.003 74.2508 121.196 78.9158 116.456C83.8658 114.744 87.5228 112.299 90.9568 109.723C93.3008 109.146 102.186 104.273 103.547 93.864C104.457 91.281 105.48 88.948 106.09 85.698C115.422 75.318 109.454 62.546 102.82 58.572" fill="#050606"/>
</svg>
