<svg width="128" height="128" viewBox="0 0 128 128" fill="none" xmlns="http://www.w3.org/2000/svg">
<path d="M42.4889 5.00204C41.8829 5.02004 41.2309 5.24104 40.4909 5.81604C38.6779 5.12704 36.9209 4.88804 35.3489 6.29004C32.9219 5.98004 32.1329 6.62004 31.5349 7.36704C31.0029 7.35604 27.5489 6.82703 25.9649 9.15504C21.9849 8.69104 20.7259 11.461 22.1509 14.044C21.3389 15.284 20.4959 16.508 22.3969 18.871C21.7249 20.188 22.1419 21.615 23.7269 23.344C23.3079 25.194 24.1299 26.499 25.6039 27.517C25.3279 30.048 27.9609 31.521 28.7469 32.045C29.0489 33.52 29.6789 34.913 32.6869 35.682C33.1819 37.882 34.9899 38.261 36.7399 38.722C30.9549 42.035 25.9939 46.392 26.0279 57.085L25.1799 58.575C18.5469 62.548 12.5789 75.318 21.9109 85.698C22.5209 88.948 23.5429 91.281 24.4529 93.864C25.8149 104.273 34.6999 109.146 37.0429 109.723C40.4779 112.299 44.1349 114.743 49.0849 116.456C53.7499 121.196 58.8049 123.002 63.8879 123H64.1119C69.1949 123.003 74.2499 121.196 78.9149 116.456C83.8649 114.744 87.5219 112.299 90.9559 109.723C93.2999 109.146 102.185 104.273 103.546 93.863C104.456 91.281 105.479 88.948 106.089 85.698C115.421 75.318 109.453 62.546 102.819 58.572L101.971 57.084C102.005 46.392 97.0439 42.034 91.2589 38.721C93.0089 38.26 94.8169 37.88 95.3129 35.681C98.3199 34.911 98.9489 33.519 99.2509 32.044C100.038 31.519 102.671 30.047 102.395 27.514C103.869 26.498 104.691 25.192 104.273 23.342C105.857 21.614 106.273 20.186 105.601 18.87C107.503 16.508 106.659 15.283 105.847 14.043C107.272 11.46 106.015 8.69004 102.033 9.15404C100.449 6.82704 96.9958 7.35604 96.4629 7.36604C95.8649 6.61904 95.0759 5.97904 92.6489 6.28904C91.0779 4.88804 89.3199 5.12704 87.5069 5.81604C85.3549 4.14304 83.9299 5.48404 82.3029 5.99104C79.6969 5.15104 79.1009 6.30104 77.8209 6.76904C74.9789 6.17704 74.1149 7.46503 72.7519 8.82504L71.1669 8.79403C66.8809 11.282 64.7509 16.349 63.9969 18.954C63.2409 16.348 61.1169 11.281 56.8309 8.79403L55.2459 8.82404C53.8819 7.46404 53.0179 6.17704 50.1759 6.76904C48.8959 6.30104 48.3009 5.15204 45.6929 5.99104C44.6249 5.65804 43.6429 4.96604 42.4869 5.00104L42.4889 5.00204Z" fill="#050606"/>
<path d="M34.0398 15.95C45.4128 21.724 52.0238 26.397 55.6458 30.376C53.7918 37.699 44.1148 38.033 40.5758 37.827C41.3008 37.495 41.9058 37.097 42.1198 36.487C41.2318 35.865 38.0838 36.421 35.8858 35.204C36.7298 35.032 37.1248 34.864 37.5198 34.251C35.4428 33.598 33.2068 33.036 31.8908 31.955C32.6008 31.965 33.2638 32.112 34.1908 31.478C32.3308 30.491 30.3458 29.709 28.8048 28.2C29.7648 28.177 30.8028 28.19 31.1048 27.842C29.4018 26.804 27.9648 25.648 26.7768 24.385C28.1228 24.545 28.6908 24.407 29.0168 24.175C27.7288 22.878 26.1008 21.782 25.3238 20.182C26.3238 20.522 27.2378 20.652 27.8968 20.152C27.4588 19.18 25.5858 18.607 24.5068 16.337C25.5588 16.437 26.6748 16.563 26.8978 16.337C26.4098 14.377 25.5718 13.276 24.7498 12.135C27.0008 12.102 30.4118 12.143 30.2578 11.955L28.8658 10.555C31.0648 9.97197 33.3148 10.649 34.9488 11.151C35.6818 10.581 34.9358 9.86097 34.0408 9.12397C35.9098 9.36997 37.5978 9.79397 39.1238 10.376C39.9398 9.65097 38.5948 8.92597 37.9438 8.19997C40.8318 8.73997 42.0548 9.49797 43.2698 10.257C44.1528 9.42397 43.3198 8.71697 42.7258 7.99197C44.9028 8.78597 46.0238 9.81197 47.2048 10.823C47.6048 10.291 48.2208 9.90097 47.4768 8.61697C49.0218 9.49497 50.1868 10.529 51.0468 11.687C52.0038 11.087 51.6168 10.267 51.6228 9.51197C53.2288 10.799 54.2488 12.168 55.4968 13.506C55.7468 13.326 55.9668 12.714 56.1618 11.747C59.9938 15.409 65.4088 24.633 57.5538 28.29C50.8688 22.86 42.8838 18.912 34.0368 15.95H34.0388M94.2778 15.95C82.9048 21.725 76.2938 26.396 72.6718 30.376C74.5268 37.699 84.2038 38.033 87.7418 37.827C87.0168 37.495 86.4128 37.097 86.1988 36.487C87.0868 35.865 90.2348 36.421 92.4328 35.204C91.5888 35.032 91.1928 34.864 90.7988 34.251C92.8748 33.598 95.1118 33.036 96.4268 31.955C95.7168 31.965 95.0538 32.112 94.1268 31.478C95.9868 30.491 97.9718 29.709 99.5138 28.2C98.5518 28.177 97.5158 28.19 97.2138 27.842C98.9168 26.804 100.353 25.648 101.542 24.385C100.196 24.545 99.6278 24.407 99.3018 24.175C100.589 22.878 102.218 21.782 102.994 20.182C101.995 20.522 101.081 20.652 100.422 20.152C100.859 19.18 102.732 18.607 103.812 16.337C102.759 16.437 101.644 16.563 101.42 16.337C101.91 14.377 102.747 13.275 103.569 12.134C101.318 12.101 97.9068 12.142 98.0608 11.955L99.4538 10.555C97.2538 9.97097 95.0038 10.648 93.3708 11.15C92.6368 10.58 93.3838 9.85997 94.2778 9.12297C92.4098 9.36897 90.7208 9.79297 89.1948 10.375C88.3788 9.64997 89.7238 8.92497 90.3748 8.19897C87.4878 8.73897 86.2648 9.49697 85.0488 10.256C84.1668 9.42297 84.9988 8.71597 85.5928 7.99097C83.4158 8.78497 82.2948 9.81097 81.1148 10.822C80.7148 10.29 80.0978 9.89997 80.8418 8.61597C79.2968 9.49397 78.1318 10.528 77.2718 11.686C76.3148 11.086 76.7018 10.266 76.6958 9.51097C75.0898 10.798 74.0698 12.168 72.8228 13.505C72.5718 13.325 72.3518 12.713 72.1568 11.746C68.3248 15.408 62.9098 24.632 70.7648 28.289C77.4468 22.857 85.4298 18.91 94.2788 15.949H94.2778" fill="#63C54D"/>
<path d="M77.9132 90.52C77.9532 97.353 71.8852 102.922 64.3622 102.958C56.8382 102.994 50.7072 97.484 50.6672 90.65V90.52C50.6272 83.686 56.6942 78.117 64.2182 78.081C71.7422 78.045 77.8732 83.555 77.9132 90.389V90.519M56.6722 55.173C62.3172 58.815 63.3342 67.073 58.9452 73.615C54.5552 80.158 46.4212 82.509 40.7762 78.866C35.1322 75.224 34.1142 66.966 38.5032 60.424C42.8932 53.881 51.0272 51.53 56.6722 55.173ZM71.9082 54.513C66.2632 58.156 65.2452 66.413 69.6352 72.956C74.0252 79.498 82.1592 81.85 87.8032 78.206C93.4482 74.564 94.4662 66.307 90.0762 59.764C85.6862 53.222 77.5532 50.871 71.9082 54.514M28.8092 61.166C34.9032 59.557 30.8662 86.001 25.9082 83.831C20.4532 79.51 18.6962 66.854 28.8082 61.166M99.2382 60.837C93.1432 59.228 97.1802 85.672 102.139 83.503C107.594 79.181 109.35 66.525 99.2382 60.837ZM78.7982 41.107C89.3152 39.357 98.0662 45.512 97.7132 56.746C97.3672 61.052 74.9232 41.748 78.7982 41.106M49.7392 40.777C39.2202 39.027 30.4692 45.184 30.8232 56.417C31.1692 60.723 53.6132 41.418 49.7392 40.777ZM64.2282 38.157C57.9512 37.997 51.9272 42.747 51.9122 45.501C51.8952 48.849 56.8752 52.276 64.2722 52.363C71.8242 52.416 76.6432 49.62 76.6682 46.165C76.6952 42.251 69.7982 38.097 64.2282 38.157ZM64.7132 106.802C70.1862 106.566 77.5302 108.538 77.5442 111.153C77.6352 113.693 70.8842 119.431 64.3502 119.321C57.5832 119.608 50.9482 113.861 51.0352 111.869C50.9342 108.948 59.2752 106.668 64.7132 106.802ZM44.4592 91.3C48.3552 95.925 50.1312 104.048 46.8802 106.442C43.8042 108.271 36.3332 107.518 31.0222 100.004C27.4422 93.7 27.9032 87.284 30.4182 85.399C34.1782 83.143 39.9882 86.19 44.4582 91.3M83.6902 89.835C79.4732 94.699 77.1252 103.57 80.2012 106.427C83.1412 108.647 91.0352 108.337 96.8672 100.367C101.101 95.015 99.6822 86.077 97.2642 83.703C93.6712 80.965 88.5142 84.468 83.6892 89.833V89.835" fill="#C51850"/>
</svg>
