<svg width="128" height="128" viewBox="0 0 128 128" fill="none" xmlns="http://www.w3.org/2000/svg">
<path d="M11.8069 48.185C11.6449 48.19 11.4699 48.249 11.2709 48.404C10.7849 48.219 10.3139 48.154 9.89285 48.531C9.24285 48.447 9.03085 48.619 8.87085 48.819C8.72785 48.816 7.80185 48.675 7.37785 49.299C6.31085 49.174 5.97285 49.917 6.35485 50.609C6.13785 50.941 5.91185 51.269 6.42085 51.903C6.24085 52.256 6.35285 52.639 6.77785 53.102C6.66485 53.598 6.88585 53.948 7.28085 54.22C7.20685 54.9 7.91285 55.294 8.12385 55.434C8.20385 55.83 8.37385 56.204 9.17885 56.409C9.31185 56.999 9.79685 57.101 10.2659 57.224C8.71585 58.112 7.38585 59.28 7.39385 62.146L7.16685 62.546C5.38885 63.611 3.78985 67.034 6.29085 69.816C6.45385 70.687 6.72785 71.313 6.97185 72.006C7.33685 74.796 9.71885 76.102 10.3469 76.256C11.2679 76.946 12.2479 77.602 13.5749 78.061C14.8249 79.331 16.1809 79.816 17.5429 79.815H17.6029C18.9659 79.815 20.3209 79.332 21.5709 78.061C22.8979 77.602 23.8779 76.947 24.7989 76.256C25.4269 76.102 27.8089 74.796 28.1739 72.006C28.4179 71.313 28.6919 70.687 28.8549 69.816C31.3569 67.034 29.7569 63.61 27.9789 62.546L27.7519 62.146C27.7609 59.28 26.4309 58.112 24.8799 57.224C25.3499 57.1 25.8339 56.998 25.9669 56.409C26.7729 56.203 26.9419 55.829 27.0219 55.434C27.2329 55.294 27.9389 54.899 27.8649 54.22C28.2599 53.947 28.4799 53.597 28.3679 53.101C28.7929 52.638 28.9049 52.256 28.7249 51.903C29.2349 51.269 29.0079 50.941 28.7909 50.609C29.1719 49.917 28.8349 49.174 27.7679 49.299C27.3439 48.675 26.4179 48.816 26.2749 48.819C26.1149 48.619 25.9029 48.447 25.2529 48.53C24.8309 48.155 24.3599 48.219 23.8739 48.403C23.2969 47.955 22.9159 48.314 22.4789 48.45C21.7809 48.225 21.6209 48.533 21.2779 48.659C20.5159 48.5 20.2849 48.846 19.9189 49.21L19.4939 49.202C18.3449 49.869 17.7739 51.227 17.5719 51.925C17.3699 51.227 16.7999 49.869 15.6519 49.202L15.2269 49.21C14.8609 48.846 14.6289 48.5 13.8669 48.659C13.5239 48.533 13.3649 48.225 12.6659 48.45C12.3799 48.361 12.1159 48.176 11.8059 48.185H11.8069Z" fill="#050606"/>
<path d="M9.54184 51.1201C12.5908 52.6681 14.3628 53.9201 15.3338 54.9871C14.8368 56.9501 12.2428 57.0391 11.2938 56.9841C11.4888 56.8951 11.6508 56.7891 11.7078 56.6241C11.4698 56.4581 10.6258 56.6071 10.0368 56.2811C10.2628 56.2351 10.3688 56.1911 10.4748 56.0261C9.91784 55.8511 9.31884 55.7001 8.96584 55.4101C9.15584 55.4131 9.33384 55.4521 9.58284 55.2821C9.08384 55.0181 8.55284 54.8081 8.13884 54.4041C8.39684 54.3971 8.67384 54.4011 8.75484 54.3081C8.32835 54.0525 7.93819 53.7407 7.59484 53.3811C7.95584 53.4241 8.10784 53.3871 8.19484 53.3251C7.85084 52.9771 7.41484 52.6831 7.20584 52.2551C7.47384 52.3451 7.71884 52.3801 7.89584 52.2461C7.77784 51.9861 7.27584 51.8321 6.98584 51.2241C7.26884 51.2511 7.56784 51.2841 7.62784 51.2241C7.49684 50.6981 7.27184 50.4041 7.05184 50.0971C7.65584 50.0881 8.56984 50.1001 8.52784 50.0491L8.15484 49.6741C8.74484 49.5171 9.34784 49.6991 9.78484 49.8341C9.98184 49.6811 9.78184 49.4881 9.54184 49.2901C10.0078 49.3483 10.4652 49.4611 10.9048 49.6261C11.1238 49.4311 10.7628 49.2371 10.5888 49.0431C11.3628 49.1871 11.6908 49.3901 12.0168 49.5931C12.2528 49.3711 12.0298 49.1811 11.8698 48.9871C12.4538 49.2001 12.7548 49.4741 13.0708 49.7461C13.1778 49.6031 13.3438 49.4991 13.1438 49.1541C13.5578 49.3901 13.8698 49.6671 14.1008 49.9771C14.3578 49.8171 14.2538 49.5971 14.2548 49.3941C14.6848 49.7391 14.9588 50.1061 15.2938 50.4641C15.3608 50.4171 15.4198 50.2531 15.4718 49.9941C16.4988 50.9751 17.9508 53.4471 15.8448 54.4281C14.0528 52.9721 11.9128 51.9141 9.54084 51.1201H9.54184ZM25.6898 51.1201C22.6398 52.6681 20.8688 53.9201 19.8978 54.9871C20.3948 56.9501 22.9878 57.0391 23.9378 56.9841C23.7428 56.8951 23.5808 56.7891 23.5238 56.6241C23.7618 56.4581 24.6058 56.6071 25.1938 56.2811C24.9678 56.2351 24.8618 56.1911 24.7568 56.0261C25.3128 55.8511 25.9128 55.7001 26.2648 55.4101C26.0748 55.4131 25.8968 55.4521 25.6488 55.2821C26.1468 55.0181 26.6788 54.8081 27.0928 54.4041C26.8348 54.3971 26.5568 54.4011 26.4758 54.3081C26.9024 54.0525 27.2925 53.7407 27.6358 53.3811C27.2758 53.4241 27.1228 53.3871 27.0358 53.3251C27.3808 52.9771 27.8178 52.6831 28.0258 52.2551C27.7578 52.3451 27.5128 52.3801 27.3358 52.2461C27.4528 51.9861 27.9558 51.8321 28.2448 51.2241C27.9628 51.2511 27.6638 51.2841 27.6038 51.2241C27.7348 50.6981 27.9598 50.4031 28.1798 50.0971C27.5758 50.0881 26.6618 50.0991 26.7028 50.0491L27.0768 49.6741C26.4868 49.5171 25.8838 49.6991 25.4468 49.8341C25.2498 49.6811 25.4498 49.4871 25.6888 49.2901C25.1888 49.3561 24.7358 49.4701 24.3268 49.6261C24.1078 49.4311 24.4688 49.2361 24.6428 49.0421C23.8688 49.1871 23.5408 49.3901 23.2148 49.5941C22.9788 49.3701 23.2018 49.1811 23.3608 48.9871C22.7778 49.1991 22.4768 49.4741 22.1608 49.7451C22.0538 49.6031 21.8878 49.4981 22.0878 49.1551C21.7147 49.3589 21.3887 49.639 21.1308 49.9771C20.8738 49.8171 20.9778 49.5971 20.9758 49.3941C20.5458 49.7391 20.2728 50.1061 19.9378 50.4641C19.8708 50.4161 19.8118 50.2521 19.7598 49.9941C18.7318 50.9741 17.2798 53.4471 19.3868 54.4281C21.1768 52.9721 23.3168 51.9131 25.6898 51.1201Z" fill="#63C54D"/>
<path d="M21.3031 71.1091C21.3131 72.9401 19.6871 74.4331 17.6701 74.4431C15.6531 74.4531 14.0101 72.9751 14.0001 71.1431V71.1091C13.9891 69.2771 15.6151 67.7841 17.6321 67.7751C19.6481 67.7651 21.2921 69.2421 21.3021 71.0741V71.1091M15.6091 61.6341C17.1221 62.6101 17.3951 64.8241 16.2191 66.5771C15.0411 68.3311 12.8611 68.9611 11.3481 67.9851C9.83509 67.0091 9.56209 64.7951 10.7381 63.0411C11.9151 61.2881 14.0961 60.6571 15.6081 61.6341M19.6931 61.4571C18.1801 62.4331 17.9071 64.6471 19.0831 66.4011C20.2601 68.1541 22.4411 68.7851 23.9531 67.8081C25.4671 66.8321 25.7401 64.6181 24.5631 62.8651C23.3861 61.1111 21.2061 60.4811 19.6931 61.4571ZM8.14009 63.2401C9.77409 62.8101 8.69109 69.8971 7.36209 69.3161C5.90009 68.1571 5.42909 64.7661 8.14009 63.2401ZM27.0191 63.1521C25.3851 62.7211 26.4671 69.8091 27.7971 69.2281C29.2591 68.0691 29.7301 64.6771 27.0191 63.1521ZM21.5401 57.8631C24.3591 57.3941 26.7051 59.0441 26.6101 62.0551C26.5171 63.2101 20.5011 58.0351 21.5401 57.8631ZM13.7501 57.7751C10.9301 57.3061 8.58509 58.9561 8.68009 61.9671C8.77309 63.1221 14.7891 57.9471 13.7501 57.7751ZM17.6341 57.0731C15.9521 57.0301 14.3371 58.3031 14.3331 59.0411C14.3281 59.9391 15.6631 60.8571 17.6461 60.8811C19.6701 60.8951 20.9621 60.1451 20.9691 59.2191C20.9761 58.1701 19.1271 57.0571 17.6341 57.0731ZM17.7641 75.4731C19.2311 75.4101 21.2001 75.9391 21.2041 76.6401C21.2281 77.3201 19.4181 78.8591 17.6671 78.8291C15.8531 78.9061 14.0751 77.3651 14.0971 76.8311C14.0711 76.0491 16.3071 75.4371 17.7641 75.4731ZM12.3351 71.3181C13.3791 72.5581 13.8551 74.7351 12.9851 75.3771C12.1591 75.8671 10.1571 75.6651 8.73309 73.6511C7.77309 71.9611 7.89709 70.2411 8.57109 69.7361C9.57909 69.1311 11.1361 69.9481 12.3351 71.3181ZM22.8501 70.9251C21.7201 72.2291 21.0911 74.6071 21.9161 75.3731C22.7041 75.9681 24.8201 75.8851 26.3831 73.7481C27.5181 72.3141 27.1381 69.9181 26.4901 69.2811C25.5261 68.5481 24.1441 69.4871 22.8501 70.9251Z" fill="#C51850"/>
<path d="M35.3472 62.193H37.2002C37.8042 62.193 38.2542 62.066 38.5502 61.811C38.8472 61.556 38.9962 61.178 38.9962 60.677C38.9962 60.187 38.8472 59.797 38.5512 59.507C38.2542 59.218 37.8162 59.073 37.2372 59.073H35.3462L35.3472 62.193ZM35.3472 63.849V68.132H33.1982V57.417H37.2382C38.4602 57.417 39.4152 57.696 40.1042 58.253C40.7942 58.81 41.1382 59.586 41.1382 60.582C41.1382 61.136 40.9942 61.612 40.7042 62.009C40.4142 62.407 39.9902 62.729 39.4312 62.973C40.0642 63.16 40.5192 63.471 40.7962 63.908C41.0732 64.345 41.2122 64.884 41.2122 65.527V66.314C41.2122 66.614 41.2522 66.926 41.3332 67.253C41.4142 67.579 41.5532 67.821 41.7492 67.978V68.132H39.5342C39.3382 67.975 39.2102 67.712 39.1512 67.345C39.0943 66.9995 39.0649 66.6501 39.0632 66.3V65.542C39.0632 65.007 38.9172 64.592 38.6252 64.294C38.3332 63.998 37.9222 63.849 37.3932 63.849H35.3472ZM45.6942 66.697C46.0712 66.697 46.4072 66.604 46.7022 66.417C46.9962 66.231 47.1952 66.015 47.2982 65.77V64.644H46.0982C45.6422 64.644 45.2962 64.758 45.0612 64.986C44.9477 65.0916 44.8575 65.2199 44.7965 65.3625C44.7355 65.5051 44.7051 65.6589 44.7072 65.814C44.7072 66.079 44.7962 66.292 44.9722 66.454C45.1492 66.616 45.3892 66.697 45.6942 66.697ZM47.6582 68.132C47.5781 67.9454 47.5106 67.7536 47.4562 67.558C47.3997 67.3555 47.3592 67.1488 47.3352 66.94C47.1195 67.3219 46.8216 67.6511 46.4632 67.904C46.1022 68.159 45.6712 68.287 45.1712 68.287C44.3372 68.287 43.6942 68.072 43.2432 67.643C42.7922 67.213 42.5662 66.628 42.5662 65.888C42.5662 65.108 42.8662 64.503 43.4672 64.074C44.0682 63.644 44.9452 63.43 46.0982 63.43H47.2982V62.797C47.2982 62.414 47.1982 62.117 46.9962 61.907C46.7952 61.696 46.4982 61.59 46.1062 61.59C45.7572 61.59 45.4892 61.675 45.3002 61.844C45.1102 62.014 45.0162 62.247 45.0162 62.547L42.9412 62.539L42.9342 62.495C42.9002 61.823 43.1912 61.243 43.8102 60.755C44.4282 60.267 45.2402 60.023 46.2452 60.023C47.1972 60.023 47.9702 60.264 48.5642 60.747C49.1572 61.231 49.4542 61.919 49.4542 62.812V66.1C49.4542 66.473 49.4822 66.824 49.5392 67.152C49.5952 67.482 49.6842 67.807 49.8072 68.132H47.6582ZM55.3852 65.94C55.3852 65.704 55.2712 65.5 55.0432 65.328C54.8152 65.157 54.3922 65.005 53.7732 64.872C52.8322 64.681 52.1222 64.397 51.6432 64.022C51.1652 63.647 50.9262 63.135 50.9262 62.488C50.9262 61.801 51.2142 61.218 51.7902 60.74C52.3672 60.262 53.1382 60.023 54.1052 60.023C55.1202 60.023 55.9292 60.261 56.5302 60.736C57.1302 61.212 57.4192 61.813 57.3942 62.539L57.3802 62.583H55.3042C55.3042 62.265 55.2022 62.005 54.9992 61.803C54.7952 61.603 54.4972 61.502 54.1052 61.502C53.7562 61.502 53.4832 61.586 53.2852 61.756C53.1904 61.8323 53.1142 61.9293 53.0624 62.0395C53.0106 62.1497 52.9845 62.2702 52.9862 62.392C52.9862 62.637 53.0902 62.839 53.2992 62.996C53.5082 63.153 53.9312 63.292 54.5692 63.415C55.5492 63.611 56.2782 63.899 56.7542 64.28C57.2302 64.66 57.4682 65.184 57.4682 65.85C57.4682 66.567 57.1612 67.152 56.5482 67.606C55.9352 68.06 55.1252 68.286 54.1202 68.286C53.0602 68.286 52.2222 68.018 51.6062 67.481C50.9912 66.944 50.6982 66.331 50.7272 65.645L50.7422 65.601H52.7072C52.7212 66.027 52.8612 66.336 53.1272 66.528C53.3912 66.719 53.7372 66.815 54.1642 66.815C54.5612 66.815 54.8642 66.736 55.0722 66.579C55.1728 66.5061 55.2539 66.4096 55.3085 66.298C55.3631 66.1864 55.3894 66.0631 55.3852 65.939M63.8852 64.206C63.8852 63.454 63.7602 62.846 63.5092 62.378C63.2592 61.912 62.8772 61.678 62.3612 61.678C62.0382 61.678 61.7612 61.745 61.5332 61.878C61.3038 62.0128 61.1167 62.2092 60.9932 62.445V65.938C61.1252 66.164 61.3062 66.336 61.5332 66.454C61.7622 66.572 62.0432 66.631 62.3762 66.631C62.8962 66.631 63.2782 66.427 63.5212 66.019C63.7632 65.611 63.8852 65.059 63.8852 64.361V64.206ZM66.0342 64.372C66.0342 65.549 65.7612 66.496 65.2172 67.212C64.6722 67.929 63.9122 68.287 62.9352 68.287C62.5192 68.287 62.1482 68.209 61.8252 68.055C61.4978 67.8977 61.2126 67.6646 60.9932 67.375V71.193H58.8502V60.17H60.7862L60.9112 61.112C61.1462 60.763 61.4302 60.495 61.7612 60.306C62.0912 60.117 62.4782 60.023 62.9202 60.023C63.9062 60.023 64.6712 60.408 65.2162 61.178C65.7602 61.948 66.0332 62.961 66.0332 64.218V64.372M72.4002 64.217C72.4002 63.437 72.2852 62.82 72.0572 62.363C71.8292 61.907 71.4402 61.678 70.8912 61.678C70.5572 61.678 70.2752 61.748 70.0442 61.889C69.8094 62.0348 69.6207 62.2442 69.5002 62.493V65.883C69.6322 66.125 69.8152 66.31 70.0482 66.438C70.2812 66.567 70.5672 66.631 70.9052 66.631C71.4602 66.631 71.8472 66.435 72.0682 66.042C72.2892 65.65 72.3992 65.093 72.3992 64.372L72.4002 64.217ZM74.5402 64.372C74.5402 65.559 74.2762 66.508 73.7462 67.22C73.2162 67.93 72.4512 68.287 71.4502 68.287C70.9892 68.287 70.5852 68.19 70.2402 67.996C69.8811 67.7898 69.5788 67.4977 69.3602 67.146L69.1982 68.132H67.3582V56.652H69.5002V61.016C69.7302 60.697 70.0062 60.452 70.3282 60.28C70.6492 60.108 71.0182 60.023 71.4352 60.023C72.4452 60.023 73.2152 60.404 73.7462 61.167C74.2762 61.93 74.5412 62.947 74.5412 64.217V64.372M79.1992 61.678C78.8012 61.678 78.4882 61.83 78.2572 62.134C78.0262 62.439 77.8842 62.839 77.8302 63.334L77.8522 63.371H80.4872V63.18C80.4872 62.723 80.3802 62.359 80.1672 62.087C79.9532 61.814 79.6312 61.678 79.1992 61.678ZM79.3902 68.287C78.2422 68.287 77.3252 67.919 76.6382 67.183C75.9512 66.447 75.6082 65.513 75.6082 64.379V64.085C75.6082 62.902 75.9332 61.928 76.5832 61.163C77.2332 60.398 78.1052 60.018 79.1992 60.023C80.2732 60.023 81.1072 60.346 81.7012 60.993C82.2942 61.641 82.5912 62.517 82.5912 63.621V64.791H77.8382L77.8232 64.835C77.8632 65.358 78.0372 65.788 78.3492 66.125C78.6602 66.462 79.0842 66.631 79.6192 66.631C80.0942 66.631 80.4892 66.583 80.8032 66.487C81.1613 66.3723 81.5064 66.2208 81.8332 66.035L82.4152 67.363C82.0912 67.629 81.6672 67.849 81.1412 68.024C80.5758 68.2052 79.9849 68.294 79.3912 68.287M88.0302 62.017L87.2422 61.995C86.9232 61.995 86.6612 62.061 86.4552 62.193C86.2463 62.3289 86.0824 62.5238 85.9842 62.753V68.133H83.8422V60.17H85.8372L85.9322 61.347C86.1182 60.93 86.3602 60.605 86.6572 60.372C86.9542 60.139 87.2972 60.022 87.6842 60.022C87.7922 60.022 87.8912 60.032 87.9822 60.048C88.0722 60.065 88.1652 60.086 88.2582 60.111L88.0302 62.017ZM93.3062 62.017L92.5192 61.995C92.1992 61.995 91.9382 62.061 91.7312 62.193C91.5226 62.329 91.359 62.5239 91.2612 62.753V68.132H89.1192V60.17H91.1132L91.2092 61.347C91.3952 60.93 91.6372 60.605 91.9332 60.372C92.2302 60.139 92.5732 60.022 92.9602 60.022C93.0682 60.022 93.1672 60.032 93.2582 60.048C93.3492 60.066 93.4412 60.086 93.5342 60.111L93.3062 62.017ZM97.4712 64.791L97.5592 65.233H97.6042L99.1272 60.17H101.437L98.2072 69.324C98.0019 69.8613 97.6888 70.351 97.2872 70.763C96.9002 71.153 96.3192 71.348 95.5432 71.348C95.3622 71.348 95.1942 71.333 95.0392 71.304C94.8852 71.274 94.6972 71.233 94.4762 71.179L94.7262 69.611L94.9332 69.641C95.0062 69.651 95.0732 69.655 95.1312 69.655C95.4852 69.655 95.7572 69.568 95.9482 69.395C96.1402 69.22 96.2862 69.003 96.3902 68.743L96.6402 68.125L93.8142 60.17H96.1242L97.4712 64.791ZM108.377 62.59H110.496C111.094 62.59 111.548 62.428 111.858 62.101C112.167 61.775 112.321 61.359 112.321 60.854C112.321 60.339 112.168 59.914 111.861 59.577C111.555 59.241 111.1 59.073 110.496 59.073H108.377V62.59ZM108.377 64.247V68.132H106.227V57.417H110.496C111.728 57.417 112.696 57.732 113.403 58.359C114.11 58.988 114.463 59.814 114.463 60.839C114.463 61.865 114.11 62.689 113.403 63.312C112.696 63.935 111.728 64.247 110.496 64.247H108.377ZM118.128 68.132H115.978V60.17H118.128V68.132ZM118.128 58.264H115.978V56.652H118.128V58.264Z" fill="#231F20"/>
<path d="M121.327 58.7741C120.957 58.7741 120.602 58.6271 120.34 58.3655C120.079 58.1039 119.932 57.749 119.932 57.3791C119.932 57.0091 120.079 56.6543 120.34 56.3926C120.602 56.131 120.957 55.9841 121.327 55.9841C121.697 55.9841 122.052 56.131 122.313 56.3926C122.575 56.6543 122.722 57.0091 122.722 57.3791C122.722 57.749 122.575 58.1039 122.313 58.3655C122.052 58.6271 121.697 58.7741 121.327 58.7741ZM121.327 55.7061C120.883 55.7061 120.457 55.8824 120.143 56.1962C119.83 56.5101 119.653 56.9357 119.653 57.3796C119.653 57.8234 119.83 58.2491 120.143 58.5629C120.457 58.8767 120.883 59.0531 121.327 59.0531C121.771 59.0531 122.196 58.8767 122.51 58.5629C122.824 58.2491 123 57.8234 123 57.3796C123 56.9357 122.824 56.5101 122.51 56.1962C122.196 55.8824 121.771 55.7061 121.327 55.7061Z" fill="#181818"/>
<path d="M121.016 57.273H121.446C121.623 57.273 121.718 57.197 121.718 57.017C121.718 56.844 121.623 56.769 121.447 56.769H121.017L121.016 57.273ZM120.623 56.463H121.588C121.909 56.463 122.112 56.686 122.112 56.956C122.112 57.167 122.026 57.325 121.828 57.406V57.41C122.021 57.46 122.077 57.648 122.09 57.829C122.096 57.941 122.094 58.152 122.164 58.252H121.771C121.723 58.139 121.728 57.967 121.709 57.823C121.681 57.635 121.608 57.553 121.41 57.553H121.016V58.253H120.623V56.463Z" fill="#181818"/>
</svg>
