<svg width="128" height="128" viewBox="0 0 128 128" fill="none" xmlns="http://www.w3.org/2000/svg">
<path d="M0 0H128V128H0V0Z" fill="#292929"/>
<path d="M5.76221 5.76196H122.238V122.238H5.76221V5.76196Z" fill="black" stroke="white" stroke-width="4.85312"/>
<path d="M75.0698 95.0901H56.1128V114.047H75.0698V110.257H59.9058V106.465H67.3358V102.672H59.9058V98.8821H75.0698V95.0901ZM97.6678 95.0901H78.8628V114.047H97.6678V110.257H82.5038V98.8841H97.6678V95.0901ZM119.808 95.0901H101.613V98.8831H109.195V114.047H112.985V98.8831H119.809L119.808 95.0901ZM33.2148 95.0901V114.047H37.0038V98.8831H48.3788V106.465H52.1718V95.0901H33.2148Z" fill="white"/>
<path d="M48.3789 102.672H37.0039V106.465H44.5859V110.258H48.3789V102.672ZM52.1719 110.258H48.3789V114.047H52.1719V110.258Z" fill="white"/>
</svg>
