<svg width="128" height="128" viewBox="0 0 128 128" fill="none" xmlns="http://www.w3.org/2000/svg">
<path fill-rule="evenodd" clip-rule="evenodd" d="M127.828 0.171997H0.171875V127.828H127.828V103.848H119.547V121.102H115.063V103.848H106.609V99.535H127.829L127.828 0.171997ZM54.8549 99.535H76.4219V103.848H59.1679V108.16H67.6209V112.473H59.1679V116.785H76.4219V121.102H54.8549V99.535ZM80.7349 99.535H102.125V103.848H85.0469V116.785H102.125V121.102H80.7349V99.535ZM28.8089 99.535H50.3699V112.473H46.0599V116.785H41.7469V112.473H33.1219V121.102H28.8099L28.8089 99.535ZM46.0589 116.785V121.102H50.3709V116.785H46.0589ZM46.0589 103.848V108.16H33.1199V103.848H46.0589Z" fill="#292929"/>
</svg>
