<svg width="128" height="128" viewBox="0 0 128 128" fill="none" xmlns="http://www.w3.org/2000/svg">
<path d="M116.4 97.9C114 97.4 111.4 97 108.9 97C104.5 97 100.5 97.8 97.4999 99C97.1999 99.2 96.8999 99.5 96.8999 99.9C96.8999 100 96.8999 100.2 96.9999 100.3C97.2999 101.3 96.7999 102.4 93.8999 103C89.5999 103.9 86.9999 108.3 85.3999 109.8C83.5999 111.5 78.4999 112.6 79.2999 111.5C79.8999 110.7 82.1999 108.2 83.5999 105.5C84.8999 103.1 85.9999 102.4 87.4999 100.1C87.9999 99.4 89.6999 97.1 90.1999 95.2C90.7999 93.4 90.5999 91.1 90.7999 90.1C91.0999 88.7 92.3999 85.8 92.4999 84.1C92.5999 83.2 88.5999 85.5 86.6999 85.5C84.7999 85.5 82.9999 84.4 81.2999 84.3C79.1999 84.2 77.8999 85.9 75.9999 85.6C74.8999 85.4 73.9999 84.5 72.0999 84.4C69.3999 84.3 66.0999 85.9 59.8999 85.7C53.7999 85.5 48.1999 78 47.3999 76.8C46.4999 75.4 45.3999 75.4 44.1999 76.5C42.9999 77.6 41.4999 76.7 41.0999 76C40.2999 74.6 38.1999 70.5 34.8999 69.7C30.2999 68.5 27.9999 72.2 28.2999 75.2C28.5999 78.2 30.4999 79 31.3999 80.6C32.2999 82.2 32.7999 83.2 34.3999 83.9C35.5999 84.4 35.9999 85.1 35.6999 86.1C35.3999 87 34.0999 87.2 33.2999 87.2C31.5999 87.3 30.2999 86.8 29.4999 86.2C28.4999 85.5 27.5999 84.6 26.6999 83.1C25.6999 81.4 23.9999 80.6 22.0999 80.6C21.1999 80.6 20.2999 80.8 19.5999 81.2C16.5999 82.8 12.9999 83.7 9.1999 83.7H4.8999C13.1999 108.4 36.5999 126.1 64.0999 126.1C85.9999 126.4 105.3 115.1 116.4 97.9Z" fill="white"/>
<path d="M116.4 97.9C114 97.3 111.4 97 108.9 97C104.5 97 100.5 97.8 97.5001 99C97.2001 99.2 96.9001 99.5 96.9001 99.9C96.9001 100 96.9001 100.2 97.0001 100.3C97.3001 101.3 96.8001 102.4 93.9001 103.1C89.6001 104 87.0001 108.4 85.4001 109.9C83.6001 111.6 78.5001 112.7 79.3001 111.6C79.9001 110.8 82.2001 108.3 83.6001 105.6C84.9001 103.2 86.0001 102.5 87.5001 100.2C88.0001 99.5 89.7001 97.2 90.2001 95.3C90.8001 93.5 90.6001 91.2 90.8001 90.2C91.1001 88.8 92.4001 85.9 92.5001 84.2C92.6001 83.3 88.6001 85.5 86.7001 85.5C84.8001 85.5 83.0001 84.4 81.3001 84.3C79.2001 84.2 77.9001 85.9 76.0001 85.6C74.9001 85.4 74.0001 84.5 72.1001 84.4C69.4001 84.3 66.1001 85.9 59.9001 85.7C53.8001 85.5 48.2001 78 47.4001 76.8C46.5001 75.4 45.4001 75.4 44.2001 76.5C43.0001 77.6 41.5001 76.7 41.1001 76C40.3001 74.6 38.2001 70.5 34.9001 69.7C30.3001 68.5 28.0001 72.2 28.3001 75.2C28.6001 78.2 30.5001 79 31.4001 80.6C32.3001 82.2 32.8001 83.2 34.4001 83.9C35.6001 84.4 36.0001 85.1 35.7001 86.1C35.4001 87 34.1001 87.2 33.3001 87.2C31.6001 87.3 30.3001 86.8 29.5001 86.2C28.5001 85.5 27.6001 84.6 26.7001 83.1C25.7001 81.4 24.0001 80.6 22.1001 80.6C21.2001 80.6 20.3001 80.8 19.6001 81.2C16.6001 82.8 13.0001 83.7 9.2001 83.7H4.8001C2.7001 77.7 1.6001 71 1.6001 64C1.6001 29.5 29.5001 1.59998 64.0001 1.59998C98.5001 1.59998 126.4 29.5 126.4 64C126.4 76.5 122.7 88.1 116.4 97.9ZM77.7001 92.2C78.0001 92.5 78.6001 93.6 77.9001 94.9C77.5001 95.6 77.1001 96.1 76.4001 96.7C75.5001 97.4 73.8001 98.2 71.5001 96.7C70.2001 95.9 70.2001 95.6 68.4001 95.9C67.2001 96.1 66.7001 94.8 67.1001 93.8C67.6001 92.8 69.4001 91.9 71.7001 93.3C72.7001 93.9 74.3001 95.2 75.7001 94C76.3001 93.5 76.6001 93.2 77.4001 92.3L77.5001 92.2C77.7001 92.1 77.7001 92.2 77.7001 92.2Z" fill="black"/>
<path d="M59.0998 31.3C51.8998 31.8 51.0998 32.6 49.7998 34C47.8998 36 45.3998 31.4 45.3998 31.4C43.8998 31.1 42.0998 28.7 43.0998 26.4C44.0998 24.2 45.8998 24.8 46.3998 25.5C47.0998 26.3 48.4998 27.7 50.3998 27.7C52.2998 27.6 54.4998 27.3 57.4998 27.3C60.5998 27.3 62.6998 28.4 62.7998 29.4C62.8998 30.3 62.5998 31.1 59.0998 31.3ZM66.6998 19.4C66.5998 19.4 66.4998 19.3 66.4998 19.2C66.4998 19.1 66.4998 19.1 66.5998 19C67.9998 18.3 70.0998 17.7 72.4998 17.4C73.1998 17.3 73.8998 17.3 74.5998 17.3H74.9998C78.9998 17.4 82.1998 19 82.1998 20.9C82.0998 22.8 78.8998 24.2 74.8998 24.1C73.5998 24.1 72.3998 23.9 71.2998 23.6C71.1998 23.6 71.0998 23.5 71.0998 23.3C71.0998 23.2 71.1998 23.1 71.2998 23C73.7998 22.4 75.4998 21.5 75.3998 20.6C75.1998 19.4 71.9998 18.8 68.0998 19.2C67.4998 19.3 67.0998 19.4 66.6998 19.4ZM99.1998 47.4C98.5998 49.5 97.6998 52.1 93.7998 54.1C93.1998 54.4 92.9998 53.9 93.2998 53.5C94.7998 51 94.9998 50.4 95.4998 49.4C96.0998 48 96.3998 45.9 95.1998 41.6C92.8998 33.2 87.9998 21.9 84.3998 18.2C80.9998 14.7 74.6998 13.7 69.0998 15.1C66.9998 15.6 62.9998 17.7 55.4998 16C42.4998 13.1 40.5998 19.6 39.7998 22.4C38.9998 25.2 37.2998 33.3 37.2998 33.3C36.6998 36.6 35.8998 42.3 56.0998 46.1C65.4998 47.9 65.9998 50.3 66.3998 52.1C67.0998 55.2 68.2998 57 69.6998 57.9C70.9998 58.8 69.6998 59.5 68.1998 59.7C64.1998 60.1 49.3998 55.9 40.5998 50.9C33.3998 46.5 33.2998 42.6 34.9998 39.2C24.1998 38 15.9998 40.2 14.5998 45.3C11.9998 54.3 33.7998 69.3 58.6998 76.8C84.7998 84.7 111.7 79.2 114.7 62.8C116.1 55.3 109.8 49.8 99.1998 47.4Z" fill="#E93442"/>
</svg>
