<svg width="128" height="128" viewBox="0 0 128 128" fill="none" xmlns="http://www.w3.org/2000/svg">
<path d="M77.6001 92.4C77.5001 92.4 77.5001 92.4 77.5001 92.5C76.7001 93.4 76.3001 93.8 75.8001 94.2C74.4001 95.3 72.8001 94.1 71.8001 93.5C69.5001 92.2 67.7001 93 67.2001 94C66.8001 95 67.3001 96.3 68.5001 96.1C70.2001 95.9 70.3001 96.1 71.6001 96.9C74.0001 98.4 75.7001 97.6 76.5001 96.9C77.2001 96.3 77.6001 95.8 78.0001 95.1C78.7001 93.8 78.1001 92.7001 77.8001 92.4H77.6001ZM74.9001 17H74.5001C73.8001 17 73.1001 17.3 72.4001 17.4C70.0001 17.6 67.9001 18.4 66.5001 19.1C66.4001 19.1 66.4001 19 66.4001 19L66.6001 18.9L67.8001 19.1C71.7001 18.7001 74.9001 19.5 75.1001 20.7001C75.2001 21.6 73.5001 22.6 71.0001 23.2001C70.9001 23.2001 70.8001 23.4 70.8001 23.5C70.8001 23.6 70.9001 23.8 71.0001 23.8C72.0001 24.1 73.3001 24.3 74.6001 24.3C78.6001 24.4 81.9001 22.7 81.9001 20.8C82.1001 19 78.9001 17 74.9001 17ZM64.0001 1.80005C29.5001 1.80005 1.6001 29.7 1.6001 64.1C1.6001 71.1001 2.7001 78 4.9001 84H9.2001C13.0001 84 16.6001 83.1 19.6001 81.6C20.4001 81.2 21.2001 81 22.1001 81C24.0001 81 25.7001 81.8 26.7001 83.5C27.6001 85.1 28.4001 86 29.5001 86.6C30.4001 87.2 31.6001 87.6 33.3001 87.6C34.1001 87.6 35.4001 87.4 35.7001 86.5C36.1001 85.5 35.6001 84.8 34.4001 84.3C32.7001 83.6001 32.3001 82.6 31.4001 81C30.5001 79.4 28.6001 78.6 28.3001 75.6C28.0001 72.6 30.3001 68.9 34.9001 70.1C38.2001 71 40.3001 75 41.1001 76.4C41.5001 77.1 43.0001 78 44.2001 76.9C45.4001 75.8 46.5001 75.8 47.4001 77.2C48.2001 78.4 53.8001 85.9 59.9001 86.1C66.1001 86.3 69.4001 84.7001 72.1001 84.8C74.0001 84.9 74.9001 85.8 76.0001 86C77.9001 86.3 79.2001 84.6 81.3001 84.7C83.0001 84.8 84.8001 85.9 86.7001 85.9C88.6001 85.9 92.6001 83.6 92.5001 84.6C92.4001 86.3 91.1001 89.2 90.8001 90.6C90.6001 91.5 90.8001 93.8 90.2001 95.7C89.7001 97.6 88.0001 99.9 87.5001 100.6C86.0001 102.9 84.9001 103.6 83.6001 106C82.2001 108.7 79.9001 111.2 79.3001 112C78.5001 113 83.6001 112 85.4001 110.3C86.9001 108.9 89.6001 104.5 93.9001 103.5C96.8001 102.9 97.3001 101.8 97.0001 100.7C96.9001 100.6 96.9001 100.4 96.9001 100.3C96.9001 99.9 97.1001 99.6 97.5001 99.4C100.5 98.2001 104.5 97.4 108.9 97.4C111.5 97.4 114 97.7001 116.4 98.3C122.7 88.5 126.4 76.9001 126.4 64.4001C126.4 29.8001 98.5001 1.80005 64.0001 1.80005ZM114.8 63C111.8 79.4 84.9001 84.9 58.8001 77C33.8001 69.5 12.0001 54.5 14.5001 45.7001C16.0001 40.6001 24.1001 38.4 34.9001 39.6C33.3001 42.9 33.4001 46.9 40.5001 51.3C49.3001 56.3 64.1001 60.5 68.1001 60.1C69.6001 60 70.9001 59.2001 69.6001 58.3C68.3001 57.4 67.1001 55.6 66.3001 52.5C65.9001 50.8 65.4001 48.3 56.0001 46.5C35.8001 42.6 36.6001 36.9001 37.2001 33.7001C37.2001 33.7001 39.0001 25.6 39.7001 22.8C40.4001 20 42.4001 13.5 55.4001 16.4C62.9001 18.1 67.0001 16 69.0001 15.5C74.6001 14.1 80.9001 15.1 84.3001 18.6C87.9001 22.3001 92.8001 33.5 95.1001 42C96.3001 46.3 96.0001 48.3 95.4001 49.8C95.0001 50.8 94.7001 51.4001 93.2001 53.9001C92.9001 54.3001 93.2001 54.8 93.7001 54.5C97.6001 52.5 98.5001 49.8 99.1001 47.8C109.8 50 116.1 55.5 114.8 63ZM57.6001 27.5C54.6001 27.5 52.4001 27.9 50.5001 27.9C48.6001 27.9 47.1001 26.6 46.5001 25.7001C45.9001 25 44.1001 24.3001 43.2001 26.6C42.2001 28.9 44.0001 31.3001 45.5001 31.6C45.5001 31.6 48.0001 36.3 49.9001 34.2001C51.2001 32.8001 52.0001 32 59.2001 31.5C62.6001 31.2001 63.0001 30.5 62.9001 29.6C62.7001 28.6 60.6001 27.5 57.6001 27.5Z" fill="#E93442"/>
</svg>
