<svg width="128" height="128" viewBox="0 0 128 128" fill="none" xmlns="http://www.w3.org/2000/svg">
<path d="M101.2 69.8C99.5 69.4 97.7 69.2 95.9 69.2C92.8 69.2 89.9 69.7 87.8 70.6C87.6 70.7 87.4 71 87.4 71.2C87.4 71.3 87.4 71.4 87.5 71.5C87.7 72.2 87.3 73 85.3 73.4C82.3 74.1 80.4 77.2 79.3 78.2C78 79.4 74.4 80.2 75 79.4C75.4 78.8 77.1 77.1 78 75.2C78.9 73.5 79.7 73 80.8 71.4C81.1 70.9 82.4 69.2 82.7 67.9C83.1 66.6 83 65 83.1 64.3C83.3 63.3 84.2 61.2 84.3 60.1C84.3 59.4 81.5 61.1 80.2 61.1C78.9 61.1 77.5 60.3 76.3 60.2C74.8 60.1 73.9 61.3 72.5 61.1C71.7 61 71.1 60.3 69.7 60.3C67.8 60.2 65.5 61.4 61.1 61.2C56.8 61.1 52.8 55.7 52.3 54.9C51.7 53.9 50.9 53.9 50 54.7C49.2 55.5 48.1 54.9 47.8 54.3C47.2 53.3 45.7 50.4 43.4 49.8C40.2 49 38.5 51.6 38.7 53.7C38.9 55.8 40.3 56.4 40.9 57.6C41.5 58.7 41.9 59.5 43.1 60C44 60.4 44.3 60.9 44 61.6C43.8 62.2 42.9 62.3 42.3 62.4C41.1 62.5 40.2 62.1 39.6 61.7C38.9 61.2 38.3 60.6 37.6 59.5C36.9 58.3 35.7 57.8 34.3 57.8C33.7 57.8 33 58 32.5 58.2C30.4 59.3 27.8 60 25.1 60H22C27.9 77.4 44.5 90 64 90C79.6 90 93.3 81.9 101.2 69.8Z" fill="white"/>
<path d="M101.2 69.8C99.5002 69.4 97.7002 69.2 95.9002 69.2C92.8002 69.2 89.9002 69.7 87.8002 70.6C87.6002 70.7 87.4002 71 87.4002 71.2C87.4002 71.3 87.4002 71.4 87.5002 71.5C87.7002 72.2 87.3002 73 85.3002 73.5C82.3002 74.2 80.4002 77.3 79.3002 78.3C78.0002 79.5 74.4002 80.3 75.0002 79.5C75.4002 78.9 77.1002 77.2 78.0002 75.3C78.9002 73.6 79.7002 73.1 80.8002 71.5C81.1002 71 82.4002 69.3 82.7002 68C83.1002 66.7 83.0002 65.1 83.1002 64.4C83.3002 63.4 84.2002 61.3 84.3002 60.2C84.3002 59.5 81.5002 61.2 80.2002 61.2C78.9002 61.2 77.5002 60.4 76.3002 60.3C74.8002 60.2 73.9002 61.4 72.5002 61.2C71.7002 61.1 71.1002 60.4 69.7002 60.4C67.8002 60.3 65.5002 61.5 61.1002 61.3C56.8002 61.2 52.8002 55.9 52.3002 55C51.7002 54 50.9002 54 50.0002 54.8C49.2002 55.6 48.1002 55 47.8002 54.4C47.2002 53.4 45.7002 50.5 43.4002 49.9C40.2002 49.1 38.5002 51.7 38.7002 53.8C38.9002 55.9 40.3002 56.5 40.9002 57.7C41.5002 58.8 41.9002 59.6 43.1002 60.1C44.0002 60.5 44.3002 61 44.0002 61.7C43.8002 62.3 42.9002 62.4 42.3002 62.5C41.1002 62.6 40.2002 62.2 39.6002 61.8C38.9002 61.3 38.3002 60.7 37.6002 59.6C36.9002 58.4 35.7002 57.9 34.3002 57.9C33.7002 57.9 33.0002 58.1 32.5002 58.3C30.4002 59.4 27.8002 60.1 25.1002 60.1H22.0002C20.5002 55.7 19.7002 50.9 19.7002 46C19.7002 21.3 39.5002 1.5 64.0002 1.5C88.5002 1.5 108.3 21.3 108.3 45.8C108.3 54.6 105.7 62.8 101.2 69.8ZM73.8002 65.7C74.0002 65.9 74.4002 66.7 73.9002 67.6C73.6002 68.1 73.3002 68.5 72.8002 68.9C72.2002 69.4 71.0002 70 69.3002 68.9C68.4002 68.3 68.3002 68.1 67.1002 68.3C66.2002 68.4 65.9002 67.5 66.2002 66.8C66.5002 66.1 67.8002 65.5 69.5002 66.4C70.2002 66.8 71.4002 67.7 72.4002 66.9C72.8002 66.6 73.1002 66.4 73.6002 65.7H73.8002Z" fill="black"/>
<path d="M60.6 22.5001C55.5 22.9001 55 23.4001 54 24.4001C52.7 25.8001 50.9 22.5001 50.9 22.5001C49.8 22.3001 48.5 20.6001 49.2 18.9001C49.9 17.3001 51.2 17.8001 51.6 18.3001C52 19.0001 53 20.0001 54.4 20.0001C55.7 20.0001 57.3 19.7001 59.5 19.7001C61.7 19.7001 63.2 20.5001 63.2 21.2001C63.2 21.8001 63 22.4001 60.6 22.5001ZM65.9 14.1001C65.8 14.1001 65.7 14.0001 65.7 14.0001C65.7 13.9001 65.7 13.9001 65.8 13.9001C66.8 13.4001 68.3 13.0001 70 12.8001C70.5 12.7001 71 12.7001 71.5 12.7001H71.8C74.6 12.8001 76.9 13.9001 76.9 15.2001C76.9 16.5001 74.5 17.5001 71.7 17.5001C70.8 17.5001 69.9 17.3001 69.2 17.1001C69.1 17.1001 69 17.0001 69 16.9001C69 16.8001 69.1 16.7001 69.2 16.7001C71 16.3001 72.2 15.6001 72.1 15.0001C72 14.2001 69.7 13.7001 66.9 14.0001C66.5 14.0001 66.2 14.0001 65.9 14.1001ZM89 33.9001C88.6 35.4001 87.9 37.2001 85.2 38.7001C84.8 38.9001 84.6 38.6001 84.8 38.3001C85.8 36.5001 86 36.1001 86.3 35.4001C86.7 34.4001 87 32.9001 86.1 29.9001C84.4 23.9001 81 15.9001 78.4 13.3001C76 10.7001 71.6 10.0001 67.6 11.0001C66.1 11.4001 63.3 12.9001 57.9 11.7001C48.7 9.60006 47.3 14.2001 46.8 16.3001C46.3 18.3001 45 24.0001 45 24.0001C44.6 26.3001 44 30.4001 58.4 33.1001C65.1 34.4001 65.4 36.1001 65.7 37.3001C66.2 39.5001 67.1 40.8001 68 41.4001C69 42.0001 68 42.6001 66.9 42.7001C64.1 43.0001 53.6 40.0001 47.4 36.5001C42.3 33.4001 42.2 30.6001 43.4 28.2001C35.7 27.4001 29.9 28.9001 28.9 32.6001C27.1 38.8001 42.6 49.5001 60.3 54.8001C78.8 60.4001 97.9 56.5001 100 44.8001C101 39.6001 96.5 35.6001 89 33.9001Z" fill="#E93442"/>
<path d="M1.9002 109.8C1.9002 106.6 1.8002 104.3 1.7002 102.1H7.0002L7.2002 106.6H7.4002C8.60019 103.2 11.4002 101.5 13.9002 101.5C14.5002 101.5 14.8002 101.5 15.3002 101.6V107.3C14.7002 107.2 14.2002 107.1 13.5002 107.1C10.6002 107.1 8.6002 108.9 8.1002 111.7C8.0002 112.2 7.9002 112.9 7.9002 113.5V126H1.9002V109.8ZM22.6002 115.7C22.8002 120 26.1002 121.9 30.0002 121.9C32.8002 121.9 34.8002 121.5 36.6002 120.8L37.5002 124.9C35.5002 125.8 32.6002 126.4 29.2002 126.4C21.5002 126.4 16.9002 121.6 16.9002 114.3C16.9002 107.7 20.9002 101.5 28.6002 101.5C36.3002 101.5 38.9002 107.9 38.9002 113.1C38.9002 114.2 38.8002 115.1 38.7002 115.7H22.6002ZM33.0002 111.5C33.0002 109.3 32.1002 105.7 28.0002 105.7C24.3002 105.7 22.7002 109.1 22.5002 111.5H33.0002ZM58.7002 115.7C58.7002 116.3 58.7002 116.9 58.5002 117.5C57.9002 120.1 55.8002 121.8 53.3002 121.8C49.5002 121.8 47.3002 118.6 47.3002 114.2C47.3002 109.8 49.5002 106.4 53.3002 106.4C56.0002 106.4 58.0002 108.3 58.5002 110.6C58.6002 111.1 58.6002 111.7 58.6002 112.2C58.7002 112.1 58.7002 115.7 58.7002 115.7ZM64.7002 93L58.7002 91.3V104.7H58.6002C57.5002 102.9 55.2002 101.6 51.9002 101.6C46.2002 101.6 41.2002 106.3 41.2002 114.3C41.2002 121.6 45.7002 126.5 51.4002 126.5C54.8002 126.5 57.7002 124.9 59.1002 122.2H59.2002L59.5002 126H64.9002C64.8002 124.4 64.7002 121.8 64.7002 119.3V93ZM80.6002 101.6C78.8002 101.6 77.2002 102.1 75.8002 103C74.4002 103.8 73.2002 105.1 72.5002 106.4H72.4002V95.3L70.0002 94.6V126H72.4002V111.4C72.4002 110.4 72.5002 109.8 72.7002 109.1C73.7002 106.1 76.5002 103.7 79.9002 103.7C84.8002 103.7 86.5002 107.6 86.5002 111.9V126H88.9002V111.6C88.9002 102.7 82.9002 101.6 80.6002 101.6ZM110.1 120.3C110.1 122.2 110.2 124.1 110.4 126H108.2L107.9 122.6H107.8C106.6 124.4 104 126.6 100.2 126.6C95.4002 126.6 93.2002 123.2 93.2002 120C93.2002 114.5 98.1002 111.2 107.8 111.3V110.7C107.8 108.3 107.3 103.6 101.7 103.7C99.6002 103.7 97.4002 104.3 95.7002 105.5L95.0002 103.8C97.2002 102.3 99.8002 101.7 102 101.7C108.9 101.7 110.2 106.9 110.2 111.1C110.1 111 110.1 120.3 110.1 120.3ZM107.7 113.3C102.5 113.2 95.6002 113.9 95.6002 119.7C95.6002 123.1 97.9002 124.7 100.3 124.7C104.3 124.7 106.5 122.2 107.4 119.9C107.6 119.4 107.6 118.9 107.6 118.5C107.7 118.4 107.7 113.3 107.7 113.3ZM119.5 96.9V102.2H126.3V104.1H119.5V119.6C119.5 122.6 120.4 124.5 123 124.5C124.2 124.5 125.1 124.3 125.7 124.1L126 125.9C125.2 126.2 124.1 126.5 122.7 126.5C121 126.5 119.5 126 118.6 124.8C117.5 123.5 117.2 121.5 117.2 119.1V104H113.2V102.1H117.2V97.7L119.5 96.9Z" fill="black"/>
</svg>
