<svg width="128" height="128" viewBox="0 0 128 128" fill="none" xmlns="http://www.w3.org/2000/svg">
<path d="M72.8999 68.9C73.3999 68.5 73.6999 68.1 73.9999 67.6C74.4999 66.6 74.0999 65.8999 73.8999 65.7H73.6999C73.0999 66.3999 72.8999 66.6 72.4999 66.9C71.4999 67.7 70.3999 66.8 69.5999 66.4C67.9999 65.4 66.6999 66 66.2999 66.8C65.9999 67.5 66.2999 68.4 67.1999 68.3C68.3999 68.1 68.4999 68.3 69.3999 68.9C71.0999 70 72.2999 69.4 72.8999 68.9ZM59.5999 19.7C57.3999 19.7 55.8999 20 54.4999 20C53.1999 20 52.0999 19 51.5999 18.4C51.1999 17.9 49.8999 17.4 49.1999 19C48.4999 20.6 49.7999 22.3 50.8999 22.6C50.8999 22.6 52.6999 25.9 53.9999 24.5C54.9999 23.5 55.4999 22.9 60.5999 22.6C62.9999 22.4 63.2999 21.9 63.1999 21.2999C63.1999 20.5 61.6999 19.7 59.5999 19.7ZM72.0999 15C72.1999 15.6 70.9999 16.3 69.1999 16.7C69.0999 16.7 68.9999 16.8 68.9999 16.9C68.9999 17 69.0999 17.1 69.1999 17.1C69.8999 17.3 70.7999 17.4 71.6999 17.5C74.4999 17.6 76.8999 16.7 76.8999 15.4C76.8999 14.1 74.6999 13.1 71.7999 13.1H71.4999C70.9999 13.1 70.4999 12.9 69.9999 13C68.2999 13.2 66.7999 13.5 65.7999 14H65.6999C65.6999 14.1 65.7999 14 65.7999 14C66.0999 14 66.3999 14 66.6999 13.9C69.6999 13.7 71.9999 14.1 72.0999 15ZM44.0999 61.5C44.3999 60.7999 43.9999 60.3 43.1999 59.9C41.9999 59.4 41.6999 58.7 40.9999 57.5C40.3999 56.4 38.9999 55.7999 38.7999 53.5999C38.5999 51.5 40.1999 48.9 43.4999 49.7C45.7999 50.2999 47.3999 53.2 47.8999 54.2C48.1999 54.7 49.1999 55.2999 50.0999 54.5999C50.8999 53.7999 51.6999 53.7999 52.3999 54.7999C52.8999 55.5999 56.8999 60.8999 61.1999 61.0999C65.5999 61.1999 67.8999 60.1 69.7999 60.2C71.0999 60.2999 71.7999 60.9 72.5999 61C73.8999 61.2 74.8999 60 76.3999 60.0999C77.5999 60.1999 78.8999 61 80.2999 61C81.6999 61 84.4999 59.4 84.3999 60C84.2999 61.2 83.3999 63.2999 83.1999 64.1999C82.9999 64.8999 83.1999 66.5 82.7999 67.8C82.3999 69.1 81.1999 70.8 80.8999 71.3C79.7999 72.9 78.9999 73.4 78.0999 75.1C77.0999 77 75.4999 78.8 75.0999 79.3C74.5999 80 78.1999 79.2999 79.3999 78.1C80.4999 77.1 82.3999 74 85.3999 73.3C87.3999 72.9 87.7999 72.1 87.5999 71.3L87.4999 71C87.4999 70.7 87.6999 70.5 87.8999 70.4C89.9999 69.5 92.8999 69 95.9999 69C97.7999 69 99.5999 69.2 101.3 69.6C105.8 62.7 108.4 54.3999 108.4 45.5C108.4 21.1 88.5999 1.19995 64.0999 1.19995C39.5999 1.19995 19.7999 21.1 19.7999 45.5C19.7999 50.4 20.5999 54.7 22.0999 59.7H25.1999C27.8999 59.7 30.4999 59 32.5999 57.9C33.0999 57.6 33.6999 57.4 34.3999 57.4C35.7999 57.4 36.8999 57.8999 37.6999 59.0999C38.2999 60.1999 38.8999 60.7999 39.6999 61.2999C40.2999 61.7 41.1999 62 42.3999 62C42.9999 62.2999 43.8999 62.0999 44.0999 61.5ZM28.9999 32.5999C29.9999 28.9999 35.7999 27.4 43.4999 28.2C42.2999 30.6 42.3999 33.4 47.4999 36.5C53.6999 40 64.1999 43 67.0999 42.7C68.1999 42.6 69.0999 42.1 68.1999 41.4C67.1999 40.8 66.3999 39.5 65.8999 37.2999C65.5999 36.0999 65.2999 34.2999 58.5999 33.0999C44.2999 30.3999 44.7999 26.2999 45.1999 24C45.1999 24 46.4999 18.2999 46.9999 16.3C47.4999 14.3 48.8999 9.69995 58.0999 11.7C63.3999 12.9 66.2999 11.4 67.7999 11C71.7999 9.99995 76.1999 10.7 78.5999 13.2C81.0999 15.8 84.5999 23.7999 86.2999 29.7999C87.0999 32.7999 86.8999 34.2999 86.4999 35.2999C86.1999 36 85.9999 36.4 84.9999 38.2C84.7999 38.5 84.9999 38.8999 85.3999 38.5999C88.1999 37.1999 88.7999 35.2999 89.1999 33.7999C96.6999 35.5 101.2 39.4 100.2 44.7C98.0999 56.4 78.9999 60.2999 60.4999 54.7C42.6999 49.5 27.1999 38.7999 28.9999 32.5999ZM7.4999 107H7.2999L7.0999 102H1.8999C1.9999 104 2.0999 106.6 2.0999 109.7L1.9999 126H7.9999V113.7C7.9999 113.1 8.0999 112.4 8.1999 111.9C8.6999 109.2 10.4999 107.3 13.3999 107.3C14.0999 107.3 14.9999 107.4 14.9999 107.5V101.8C14.9999 101.7 14.3999 101.8 13.7999 101.8C11.1999 101.8 8.6999 103 7.4999 107ZM28.5999 101.6C20.8999 101.6 16.8999 107.8 16.8999 114.4C16.8999 121.7 21.3999 126.5 29.1999 126.5C32.6999 126.5 35.4999 125.9 37.4999 125L36.5999 120.9C34.7999 121.6 32.7999 122 29.9999 122C26.0999 122 22.7999 120.1 22.5999 115.8H38.4999C38.5999 115.2 38.6999 114.3 38.6999 113.2C38.7999 108 36.2999 101.6 28.5999 101.6ZM22.6999 112C22.9999 109 24.4999 106.2 28.1999 106.2C32.1999 106.2 33.1999 109 33.1999 112H22.6999ZM64.9999 93L58.9999 91.3V105H58.6999C57.5999 103 55.2999 101.8 51.9999 101.8C46.2999 101.8 41.2999 106.5 41.2999 114.5C41.2999 121.8 45.7999 126.5 51.4999 126.5C54.8999 126.5 57.7999 125 59.1999 122H59.2999L59.5999 126H64.9999C64.8999 124 64.9999 121.8 64.9999 119.3V93ZM58.9999 115.7C58.9999 116.3 58.7999 116.9 58.6999 117.5C58.0999 120.1 55.8999 121.8 53.3999 121.8C49.5999 121.8 47.3999 118.6 47.3999 114.2C47.3999 109.8 49.4999 106.4 53.3999 106.4C56.0999 106.4 58.1999 108.3 58.6999 110.6C58.7999 111.1 58.8999 111.7 58.8999 112.2V115.7H58.9999ZM80.6999 101.6C78.8999 101.6 77.2999 101.9 75.8999 102.8C74.4999 103.6 73.2999 105 72.5999 106H71.9999V95.3L69.9999 94.6V126H71.9999V111.4C71.9999 110.4 72.3999 109.8 72.5999 109.1C73.5999 106.1 76.6999 103.7 80.0999 103.7C84.9999 103.7 86.9999 107.6 86.9999 111.9V126H88.9999V111.6C88.9999 102.7 82.9999 101.6 80.6999 101.6ZM110 111C110 106.7 108.8 101.6 101.9 101.6C99.6999 101.6 97.0999 102.2 94.8999 103.7L95.6999 105.4C97.3999 104.2 99.6999 103.6 101.8 103.6C107.4 103.6 108 108.3 108 110.6V111.2C97.9999 111.1 93.3999 114.4 93.3999 119.9C93.3999 123.1 95.5999 126.7 100.4 126.7C104.2 126.7 106.8 123.9 108 122.9H108.1L108.4 125.9H110.6C110.3 123.9 110.1 122.1 110.1 120.2V111H110ZM108 118.4C108 118.8 107.8 119.3 107.7 119.8C106.9 122.1 104.6 124.6 100.6 124.6C98.0999 124.6 95.8999 123.1 95.8999 119.6C95.8999 113.9 103 113.1 108 113.2V118.4ZM126 104V102H119V96.9L117 97.8V102H113V104H117V119.2C117 121.6 117.5 123.6 118.6 124.9C119.5 126 121 126.6 122.8 126.6C124.2 126.6 125.3 126.4 126.1 126L125.8 124.2C125.2 124.4 124 124.6 122.8 124.6C120.2 124.6 119 122.7 119 119.7V104H126Z" fill="#E93442"/>
</svg>
