<svg width="128" height="128" viewBox="0 0 128 128" fill="none" xmlns="http://www.w3.org/2000/svg">
<path d="M21.4001 97.6C21.4001 99.4 19.9001 101.1 17.9001 101.1C16.4001 101.1 15.1001 101.5 13.9001 102.4C12.6001 103.2 11.7001 104.3 10.9001 105.6C9.3001 107.7 8.5001 110.2 8.2001 111.1V123.6C8.2001 125.5 6.6001 127.1 4.6001 127.1C2.7001 127.1 1.1001 125.5 1.1001 123.6V97.6C1.1001 95.7 2.7001 94.2 4.6001 94.2C6.6001 94.2 8.2001 95.7 8.2001 97.6V98.1C8.6001 97.6 9.1001 97.1 9.6001 96.8C11.8001 95.4 14.6001 94.2 17.9001 94.2C19.9001 94.2 21.4001 95.7 21.4001 97.6ZM19.5001 110.6C19.6001 101.6 26.5001 94.1 35.6001 94.1C44.2001 94.1 50.9001 100.5 51.5001 109.4V109.7C51.5001 109.8 51.5001 110.2 51.4001 110.3C51.2001 111.9 49.8001 112.9 48.0001 112.9H27.0001C27.3001 114.4 28.1001 116.1 29.2001 117.2C30.6001 118.8 33.2001 120 35.5001 120.2C37.9001 120.4 40.7001 119.8 42.3001 118.6C43.7001 117.2 46.4001 117.3 47.2001 118.4C48.1001 119.3 48.7001 121.3 47.2001 122.7C44.0001 125.7 40.1001 127 35.4001 127C26.5001 127 19.5001 119.5 19.5001 110.6ZM26.6001 107.4H45.2001C44.5001 104.8 41.2001 100.9 35.5001 100.4C29.9001 100.6 27.2001 104.7 26.6001 107.4ZM84.9001 123.5C84.9001 125.4 83.3001 127.1 81.3001 127.1C79.5001 127.1 78.1001 125.8 77.8001 124.3C75.3001 126 72.1001 127.1 68.8001 127.1C59.9001 127.1 52.8001 119.6 52.8001 110.7C52.8001 101.7 59.9001 94.2 68.8001 94.2C72.0001 94.2 75.2001 95.3 77.6001 97V84.5C77.6001 82.6 79.2001 80.9 81.2001 80.9C83.2001 80.9 84.8001 82.5 84.8001 84.5V110.7L84.9001 123.5ZM68.9001 101.3C66.5001 101.3 64.4001 102.3 62.7001 104C61.1001 105.6 60.1001 108 60.1001 110.6C60.1001 113.1 61.1001 115.5 62.7001 117.1C64.3001 118.8 66.5001 119.8 68.9001 119.8C71.3001 119.8 73.4001 118.8 75.1001 117.1C76.7001 115.5 77.7001 113.1 77.7001 110.6C77.7001 108 76.7001 105.6 75.1001 104C73.5001 102.3 71.4001 101.3 68.9001 101.3ZM97.5001 85.9C97.5001 87.9 96.0001 89.5 93.9001 89.5C91.9001 89.5 90.3001 87.9 90.3001 85.9V84.5C90.3001 82.5 91.9001 80.9 93.9001 80.9C95.9001 80.9 97.5001 82.5 97.5001 84.5V85.9ZM97.5001 97.8V123.5C97.5001 125.5 96.0001 127.1 93.9001 127.1C91.9001 127.1 90.3001 125.5 90.3001 123.5V97.8C90.3001 95.7 91.9001 94.2 93.9001 94.2C96.0001 94.2 97.5001 95.7 97.5001 97.8ZM102 117.6C103.2 116 105.5 115.8 106.9 117.1C108.6 118.5 111.6 120.1 114.1 120C115.9 120 117.5 119.4 118.6 118.7C119.5 117.9 119.8 117.3 119.8 116.7C119.8 116.4 119.7 116.2 119.6 116C119.5 115.8 119.3 115.5 118.7 115.2C117.8 114.5 115.8 113.8 113.4 113.4H113.3C111.3 113 109.3 112.5 107.6 111.7C105.8 110.8 104.2 109.7 103.1 107.9C102.4 106.7 102 105.3 102 103.8C102 100.8 103.7 98.2 105.9 96.6C108.2 95 111 94.2 114 94.2C118.5 94.2 121.8 96.4 123.9 97.8C125.5 98.9 125.9 101 125 102.7C123.9 104.3 121.8 104.7 120.1 103.6C118 102.2 116.1 101.2 114 101.2C112.4 101.2 110.9 101.7 110 102.4C109.1 103 108.9 103.6 108.9 103.9C108.9 104.2 108.9 104.2 109 104.4C109.1 104.5 109.3 104.8 109.7 105.1C110.6 105.7 112.3 106.3 114.5 106.7L114.6 106.8H114.7C116.9 107.2 118.9 107.8 120.8 108.7C122.6 109.5 124.4 110.7 125.5 112.6C126.3 113.9 126.8 115.4 126.8 116.9C126.8 120.1 125 122.8 122.7 124.5C120.3 126.1 117.4 127.1 114.1 127.1C109 127 105 124.7 102.4 122.6C101 121.3 100.8 119.1 102 117.6Z" fill="#636466"/>
<path d="M106.9 62.7C101.9 65.3 76.1999 75.9 70.6999 78.7C65.1999 81.6 62.1999 81.5 57.8999 79.5C53.4999 77.4 26.1999 66.4 21.1999 64C18.6999 62.8 17.3999 61.8 17.3999 60.9V51.5C17.3999 51.5 52.9999 43.7 58.7999 41.7C64.5999 39.6 66.5999 39.6 71.3999 41.4C76.2999 43.2 105.6 48.5 110.4 50.2V59.5C110.5 60.4 109.4 61.4 106.9 62.7Z" fill="#A41E11"/>
<path d="M106.9 53.3C101.9 55.9 76.1998 66.5 70.6998 69.3C65.1998 72.2 62.1998 72.1 57.8998 70.1C53.4998 68 26.1998 57 21.1998 54.6C16.2998 52.2 16.1998 50.6 20.9998 48.7C25.7998 46.8 53.0998 36.1 58.7998 34.1C64.5998 32 66.5998 32 71.3998 33.8C76.2998 35.6 101.9 45.8 106.7 47.5C111.7 49.3 111.9 50.7 106.9 53.3Z" fill="#D82C20"/>
<path d="M106.9 47.3999C101.9 49.9999 76.1999 60.5999 70.6999 63.3999C65.1999 66.2999 62.1999 66.1999 57.8999 64.1999C53.4999 62.0999 26.1999 50.9999 21.1999 48.6999C18.6999 47.4999 17.3999 46.4999 17.3999 45.5999V36.1999C17.3999 36.1999 52.9999 28.3999 58.7999 26.3999C64.5999 24.2999 66.5999 24.2999 71.3999 26.0999C76.2999 27.8999 105.6 33.1999 110.4 34.8999V44.1999C110.5 45.0999 109.4 46.0999 106.9 47.3999Z" fill="#A41E11"/>
<path d="M106.9 38C101.9 40.6 76.1999 51.2 70.6999 54C65.1999 56.9 62.1999 56.8 57.8999 54.8C53.5999 52.7 26.1999 41.7 21.2999 39.3C16.3999 36.9 16.2999 35.3 21.0999 33.4C25.8999 31.5 53.1999 20.8 58.8999 18.8C64.6999 16.7 66.6999 16.7 71.4999 18.5C76.3999 20.3 102 30.5 106.8 32.2C111.7 33.9 111.9 35.4 106.9 38Z" fill="#D82C20"/>
<path d="M106.9 31.5C101.9 34.1 76.2 44.7 70.7 47.5C65.2 50.4 62.2 50.3 57.9 48.3C53.6 46.2 26.2 35.2 21.3 32.8C18.8 31.6 17.5 30.6 17.5 29.7V20.3C17.5 20.3 53.1 12.5 58.9 10.5C64.7 8.40004 66.7 8.40004 71.5 10.2C76.4 12 105.7 17.3 110.5 19V28.3C110.5 29.1 109.4 30.2 106.9 31.5Z" fill="#A41E11"/>
<path d="M106.9 22.0999C101.9 24.6999 76.1999 35.2999 70.6999 38.0999C65.1999 40.9999 62.1999 40.8999 57.8999 38.8999C53.5999 36.7999 26.1999 25.7999 21.2999 23.3999C16.3999 20.9999 16.2999 19.3999 21.0999 17.4999C25.8999 15.5999 53.1999 4.89994 58.8999 2.89994C64.6999 0.799944 66.6999 0.799944 71.4999 2.59994C76.3999 4.39994 102 14.5999 106.8 16.2999C111.7 17.9999 111.9 19.4999 106.9 22.0999Z" fill="#D82C20"/>
<path d="M76.1998 13L68.0998 13.8L66.2998 18.2L63.3998 13.3L54.0998 12.5L60.9998 9.99995L58.9998 6.19995L65.4998 8.69995L71.5998 6.69995L69.8998 10.7L76.1998 13ZM65.7998 34.0999L50.7998 27.7999L72.3998 24.5L65.7998 34.0999Z" fill="white"/>
<path d="M45 24.4C51.3513 24.4 56.5 22.3853 56.5 19.9C56.5 17.4147 51.3513 15.4 45 15.4C38.6487 15.4 33.5 17.4147 33.5 19.9C33.5 22.3853 38.6487 24.4 45 24.4Z" fill="white"/>
<path d="M85.7002 14.2L98.5002 19.2L85.7002 24.3V14.2Z" fill="#7A0C00"/>
<path d="M71.6001 19.8L85.7001 14.2V24.3L84.4001 24.8L71.6001 19.8Z" fill="#AD2115"/>
</svg>
