<svg width="128" height="128" viewBox="0 0 128 128" fill="none" xmlns="http://www.w3.org/2000/svg">
<path d="M21.8 31.9C26.6 34.2 53.4 45 57.6 47C61.8 49 64.8 49 70.2 46.3C75.5 43.5 100.7 33.2 105.5 30.7C108 29.4 109.1 28.4 109.1 27.5V18.4C109.1 17.5 107.9 16.7 105.5 15.8L71 2.40004C66.2 0.600041 64.3 0.700041 58.7 2.70004C53 4.70004 26.4 15.2 21.7 17C19.4 17.9 18.1 18.8 18.1 19.7H18V28.8C18 29.8 19.4 30.8 21.8 31.9ZM65.4 33.2L50.7 27.1L71.8 23.9L65.4 33.2ZM97.3 18.7L84.8 23.6L83.5 24.1L71.1 19.2L84.9 13.7L97.3 18.7ZM60.8 9.70004L58.8 5.90004L65.1 8.40004L71.1 6.40004L69.5 10.3L75.6 12.6L67.7 13.4L65.9 17.6L63.1 13L54 12.2L60.8 9.70004ZM45.1 15C51.3 15 56.4 17 56.4 19.4C56.4 21.8 51.4 23.8 45.1 23.8C38.9 23.8 33.8 21.8 33.8 19.4C33.8 17 38.9 15 45.1 15ZM21.8 47.5C26.6 49.8 53.4 60.6 57.6 62.6C61.8 64.6 64.8 64.6 70.2 61.9C75.5 59.1 100.7 48.8 105.5 46.3C108 45 109.1 44 109.1 43.1V34C109.1 34.9 107.9 35.8 105.6 37.1C100.8 39.6 75.6 50 70.3 52.7C65 55.5 62 55.5 57.8 53.4C53.6 51.4 26.7 40.6 21.9 38.3C19.5 37.2 18.1 36.2 18.1 35.3V44.5C18 45.4 19.4 46.3 21.8 47.5ZM21.8 62.5C26.6 64.8 53.4 75.6 57.6 77.6C61.8 79.6 64.8 79.6 70.2 76.9C75.5 74.1 100.7 63.8 105.5 61.3C108 60 109.1 59 109.1 58.1V49C109.1 49.9 107.9 50.8 105.6 52.1C100.8 54.6 75.6 65 70.3 67.7C65 70.5 62 70.5 57.8 68.4C53.6 66.4 26.7 55.6 21.9 53.3C19.5 52.2 18.1 51.2 18.1 50.3V59.5C18 60.3 19.4 61.3 21.8 62.5ZM21.4 97.6C21.4 95.7 19.9 94.2 17.9 94.2C14.6 94.1 11.7 95.3 9.5 96.8C9 97 9 97.6 8 98V97.5C8 95.6 6.4 94.1 4.4 94.1C2.5 94.1 1 95.6 1 97.5V123.4C1 125.3 2.5 126.9 4.4 126.9C6.4 126.9 8 125.3 8 123.4V111C9 110.1 9.2 107.6 10.8 105.5C11.6 104.2 12.6 103.1 13.9 102.3C15 101.4 16.4 101 17.9 101C19.9 101.1 21.4 99.4 21.4 97.6ZM35.3 94.1C26.3 94.1 19.4 101.6 19.3 110.6C19.4 119.6 26.4 127 35.4 127.1C40.1 127.1 44 125.7 47.2 122.8C48.7 121.4 48.1 119.4 47.2 118.5C46.3 117.4 43.7 117.2 42.3 118.7C40.7 120 37.8 120.5 35.5 120.3C33.2 120.1 30.6 119 29.2 117.4C28 116.3 27.3 114.1 27 113.1H47.9C49.7 113.1 50.9 112 51.1 110.4C51.2 110.3 51 109.9 51 109.8V109.5C51 100.5 43.9 94.1 35.3 94.1ZM26.6 107C27.1 105 29.9 100.3 35.5 100C41.2 100.5 44.6 105 45.2 107H26.6ZM85 110.6V84.5C85 82.6 83.5 80.9 81.5 80.9C79.5 80.9 78 82.5 78 84.5V96.9C75 95.2 72.3 94.1 69.1 94.1C60.2 94.1 53 101.6 53 110.6C53 119.5 60.1 127 69 127C72.3 127 75.4 125.9 77.9 124.2C78.2 125.8 79.6 127 81.4 127C83.4 127 85 125.4 85 123.4V110.6ZM75.1 117.1C73.5 118.8 71.3 119.8 68.9 119.8C66.5 119.8 64.4 118.8 62.7 117.1C61.1 115.5 60.1 113.1 60.1 110.6C60.1 108 61.1 105.6 62.7 104C64.3 102.3 66.5 101.3 68.9 101.3C71.3 101.3 73.4 102.3 75.1 104C76.7 105.6 77.7 108 77.7 110.6C77.8 113.1 76.8 115.5 75.1 117.1ZM93.5 80.9C91.5 80.9 90 82.5 90 84.5V85.9C90 87.9 91.5 89.5 93.5 89.5C95.5 89.5 97 87.9 97 85.9V84.5C97 82.5 95.5 80.9 93.5 80.9ZM93.5 94.1C91.5 94.1 90 95.6 90 97.7V123.4C90 125.4 91.5 127 93.5 127C95.5 127 97 125.4 97 123.4V97.8C97 95.7 95.5 94.1 93.5 94.1ZM125.6 112.4C124.5 110.6 122.7 109.5 120.9 108.7C119 107.8 117 107 114.8 107H114.7L114.6 106.7C112.4 106.3 110.7 105.6 109.8 105C109.3 104.7 109.1 104.4 109.1 104.3C109 104.1 109 104 109 103.7C109 103.4 109.2 102.8 110.1 102.2C111 101.5 112.4 101 114.1 101C116.2 101 118.1 102.1 120.2 103.4C121.8 104.5 124 104.1 125.1 102.5C126.1 100.9 125.6 98.7 124 97.6C121.9 96.2 118.7 94 114.1 94C111.1 94 108.3 94.9 106 96.4C103.8 98 102.1 100.6 102.1 103.6C102.1 105.1 102.5 106.6 103.2 107.7C104.4 109.5 106 110.4 107.7 111.3C109.4 112.1 111.4 112.8 113.4 112.8H113.5C115.9 113.8 117.8 114.2 118.8 114.9C119.3 115.2 119.6 115.6 119.7 115.8C119.8 116 119.9 116.2 119.9 116.5C119.9 117 119.6 117.7 118.7 118.5C117.6 119.2 116 119.8 114.2 119.8C111.6 119.9 108.7 118.4 107 116.9C105.6 115.6 103.2 115.9 102.1 117.4C100.9 118.8 101.1 121.1 102.6 122.3C105.2 124.4 109.2 126.8 114.3 126.8C117.5 126.8 120.5 125.8 122.9 124.2C125.3 122.5 127 119.8 127 116.6C126.9 115.2 126.4 113.7 125.6 112.4Z" fill="#D82C20"/>
</svg>
