<svg width="128" height="128" viewBox="0 0 128 128" fill="none" xmlns="http://www.w3.org/2000/svg">
<path d="M121.8 93.1C115.1 96.6 80.3998 110.8 72.9998 114.7C65.5998 118.6 61.4998 118.5 55.6998 115.7C49.8998 112.9 12.9998 98.1 6.2998 94.9C2.9998 93.3 1.2998 92 1.2998 90.7V78C1.2998 78 49.2998 67.5 57.0998 64.8C64.8998 62 67.4998 61.9 74.0998 64.3C80.6998 66.7 120.2 73.8 126.7 76.2V88.7C126.7 90 125.2 91.4 121.8 93.1Z" fill="#A41E11"/>
<path d="M121.8 80.5001C115.1 84.0001 80.4001 98.2 73.0001 102.1C65.6001 106 61.5001 105.9 55.7001 103.1C49.9001 100.3 13.0001 85.4 6.30013 82.2C-0.299871 79 -0.499871 76.8001 6.00013 74.3001C12.5001 71.7001 49.2001 57.3 57.0001 54.6C64.8001 51.8001 67.4001 51.7 74.0001 54.1C80.6001 56.5001 115.1 70.2001 121.6 72.6C128.3 75 128.5 77.0001 121.8 80.5001Z" fill="#D82C20"/>
<path d="M121.8 72.5001C115.1 76.0001 80.3998 90.2 72.9998 94.1C65.5998 97.9 61.4998 97.9 55.6998 95.1C49.8998 92.3 12.9998 77.4 6.2998 74.2C2.9998 72.6 1.2998 71.3001 1.2998 70.0001V57.3001C1.2998 57.3001 49.2998 46.8 57.0998 44.1C64.8998 41.3001 67.4998 41.2 74.0998 43.6C80.6998 46.0001 120.2 53.1001 126.7 55.5001V68.0001C126.7 69.3001 125.2 70.7001 121.8 72.5001Z" fill="#A41E11"/>
<path d="M121.8 59.8C115.1 63.3 80.3999 77.5 72.9999 81.4C65.5999 85.2 61.4999 85.2 55.6999 82.4C49.8999 79.6 12.9999 64.7 6.29987 61.5C-0.400133 58.3 -0.500134 56.1 5.99987 53.6C12.4999 51 49.1999 36.6 56.9999 33.9C64.7999 31.1 67.3999 31 73.9999 33.4C80.5999 35.8 115.1 49.5 121.6 51.9C128.3 54.3 128.5 56.3 121.8 59.8Z" fill="#D82C20"/>
<path d="M121.8 51C115.1 54.5 80.4002 68.7 73.0002 72.6C65.6002 76.4 61.5002 76.4 55.7002 73.6C49.9002 70.9 13.0002 56 6.3002 52.8C3.0002 51.2 1.2002 49.9 1.2002 48.6V35.9C1.2002 35.9 49.2002 25.4 57.0002 22.7C64.8002 19.9 67.4002 19.8 74.0002 22.2C80.6002 24.6 120.1 31.7 126.6 34.1V46.6C126.7 47.9 125.2 49.2 121.8 51Z" fill="#A41E11"/>
<path d="M121.8 38.3C115.1 41.8 80.3999 56 72.9999 59.9C65.5999 63.7 61.4999 63.7 55.6999 60.9C49.8999 58.1 12.9999 43.2999 6.29987 40.1C-0.400133 36.9 -0.500134 34.7 5.99987 32.2C12.4999 29.6 49.1999 15.2 56.9999 12.5C64.7999 9.69995 67.3999 9.59995 73.9999 12C80.5999 14.4 115.1 28.1 121.6 30.5C128.3 32.9 128.5 34.9 121.8 38.3Z" fill="#D82C20"/>
<path d="M80.4002 26.1L69.6002 27.3L67.1002 33.1L63.2002 26.6L50.7002 25.5L60.0002 22.1L57.2002 16.9L66.0002 20.3L74.2002 17.6L72.0002 23L80.4002 26.1ZM66.5002 54.5L46.2002 46.1L75.3002 41.7L66.5002 54.5Z" fill="white"/>
<path d="M38.3999 41.4C46.9603 41.4 53.8999 38.7137 53.8999 35.4C53.8999 32.0863 46.9603 29.4 38.3999 29.4C29.8395 29.4 22.8999 32.0863 22.8999 35.4C22.8999 38.7137 29.8395 41.4 38.3999 41.4Z" fill="white"/>
<path d="M93.2998 27.7L110.5 34.5L93.2998 41.2999V27.7Z" fill="#7A0C00"/>
<path d="M74.2998 35.2999L93.2998 27.7V41.2999L91.3998 42.0999L74.2998 35.2999Z" fill="#AD2115"/>
</svg>
