<svg width="128" height="128" viewBox="0 0 128 128" fill="none" xmlns="http://www.w3.org/2000/svg">
<path d="M6.1998 52.7C12.8998 55.9 49.8998 70.8 55.6998 73.6C61.4998 76.4 65.6998 76.4 73.0998 72.6C80.4998 68.7 115.3 54.5 122 51C125.4 49.2 126.9 47.8 126.9 46.6V34.1C126.9 32.8 125.2 31.7 121.9 30.5C115.4 28.1 80.7998 14.4 74.1998 11.9C67.5998 9.49998 64.8998 9.59998 57.0998 12.4C49.2998 15.2 12.5998 29.6 5.9998 32.2C2.7998 33.5 0.999805 34.6 0.999805 35.9H0.799805V48.6C0.999805 49.8 2.8998 51.1 6.1998 52.7ZM66.5998 54.5L46.2998 46.1L75.3998 41.6L66.5998 54.5ZM110.7 34.5L93.4998 41.3L91.5998 42L74.3998 35.2L93.4998 27.7L110.7 34.5ZM60.0998 22L57.2998 16.8L66.0998 20.2L74.3998 17.5L72.1998 22.9L80.5998 26.1L69.6998 27.2L67.2998 33.1L63.3998 26.6L50.7998 25.5L60.0998 22ZM38.3998 29.3C46.9998 29.3 53.9998 32 53.9998 35.3C53.9998 38.6 46.9998 41.3 38.3998 41.3C29.7998 41.3 22.7998 38.6 22.7998 35.3C22.7998 32 29.7998 29.3 38.3998 29.3ZM122 59.8C115.3 63.3 80.5998 77.6 73.1998 81.4C65.7998 85.3 61.6998 85.2 55.8998 82.4C50.0998 79.6 12.8998 64.7 6.2998 61.5C2.8998 59.9 0.999805 58.6 0.999805 57.3V70C0.999805 71.3 2.8998 72.6 6.1998 74.2C12.8998 77.4 49.8998 92.3 55.6998 95.1C61.4998 97.9 65.6998 97.9 73.0998 94.1C80.4998 90.2 115.3 76 122 72.5C125.4 70.7 126.9 69.3 126.9 68.1V55.6C126.9 56.7 125.3 58.1 122 59.8ZM122 80.5C115.3 84 80.5998 98.3 73.1998 102.1C65.7998 106 61.6998 105.9 55.8998 103.1C50.0998 100.3 12.8998 85.4 6.2998 82.2C2.8998 80.7 0.999805 79.3 0.999805 78V90.7C0.999805 92 2.8998 93.3 6.1998 94.9C12.8998 98.1 49.8998 113 55.6998 115.8C61.4998 118.6 65.6998 118.6 73.0998 114.8C80.4998 110.9 115.3 96.7 122 93.2C125.4 91.4 126.9 90 126.9 88.8V76.3C126.9 77.5 125.3 78.8 122 80.5Z" fill="#D82C20"/>
</svg>
