<svg width="128" height="128" viewBox="0 0 128 128" fill="none" xmlns="http://www.w3.org/2000/svg">
<path d="M120.84 64.7301C120.84 77.8001 121.03 90.5301 120.74 103.24C120.63 107.99 117.17 109.75 112.62 109.74C96.2902 109.69 79.9702 109.72 63.6402 109.72H37.8802C40.7602 106.67 46.8702 100.96 46.8702 100.96C46.8702 100.96 50.8002 99.6101 53.4602 99.3701C56.9102 99.0601 62.6602 97.5801 62.6602 97.5801C62.6602 97.5801 64.8102 92.2201 65.4702 89.2001C65.8802 87.3101 67.3202 83.7801 67.3202 83.7801L73.4802 83.7601L88.4902 83.6501C88.4902 83.6501 91.1502 76.1201 92.1302 72.3801C100.12 71.3301 113.51 66.5201 120.84 64.7301ZM26.9202 85.1801C25.6802 88.8001 27.5702 93.7501 22.7602 95.3401C17.8002 96.9801 13.6302 101.8 6.47021 99.4601C8.94021 98.1301 10.0702 95.8601 12.0702 94.8501C12.6602 94.5501 13.8402 93.7901 13.8402 93.7901L15.4102 94.9101C15.4102 94.9101 16.5002 94.4101 17.0202 94.0801C18.5802 93.1001 20.4102 90.6901 22.0402 89.3101C23.6802 87.9201 25.3002 86.5501 26.9202 85.1801ZM113.75 46.4101C113.58 45.6301 113.26 45.1501 113.26 45.1501C113.26 45.1501 108.53 48.0901 106.82 48.6301C105.32 49.1001 104.08 50.7601 102.95 47.9001C102.01 45.5201 103.34 45.4101 104.82 44.8901C108.15 43.7201 111.44 42.4001 114.78 41.2701C116.81 40.5801 119.5 40.5201 120.16 42.5701C120.4 43.3101 120.11 44.1501 120.11 44.1501C120.11 44.1501 117.93 44.9001 116.8 45.3301C115.86 45.6701 114.6 46.0801 113.75 46.4101ZM36.0702 38.7201C34.6102 39.0801 34.6402 37.9801 34.5402 37.2501C34.2502 35.0901 36.2902 35.0701 37.4602 34.3801C38.4402 33.8001 39.0902 34.8201 39.2002 35.5901C39.7402 37.8401 37.0202 38.0401 36.0702 38.7201ZM33.4502 33.0301C32.3102 33.1001 31.7402 32.4701 31.7002 31.5601C31.6402 29.9601 32.6102 28.9401 34.1202 28.8601C35.3002 28.8001 36.7202 29.4101 36.4902 30.8301C36.2502 32.3001 34.4802 32.3801 33.4502 33.0301Z" fill="#F5BE17"/>
<path d="M117.96 53.14C114.96 52.62 111.86 52.07 108.85 52.25C102.66 52.6301 99.6304 49.61 98.3604 43.92C97.6804 40.86 98.0804 37.82 97.9904 34.7701C97.9604 33.93 97.6804 32.6501 98.1704 32.6301C102.49 31.6901 102.74 30.4501 104.92 28.01C105.27 27.61 107.21 27.48 108.07 26.33C108.07 26.33 108.67 22.5601 107.31 21.1C106.94 20.81 103.27 21.21 102.79 21.09C99.6004 20.28 100.66 19.14 96.1204 20.67C95.5704 20.86 93.3204 22.3401 92.8504 22.6901C91.5604 23.6601 89.3904 23.84 89.3904 23.84C89.3904 23.84 89.5504 24.96 89.7804 25.31C84.4704 29.09 79.1504 32.8601 74.9004 37.93C73.6904 39.3701 72.5604 40.79 70.8404 41.71C56.4404 49.41 42.0504 57.1201 27.6804 64.9001C24.1704 66.8001 20.9704 66.8801 18.9604 63.09C16.8604 59.1301 19.3104 56.75 22.6404 54.98C26.3904 52.99 30.1604 51 33.8704 48.94C37.1104 47.14 39.2904 44.56 39.8104 40.01C32.2704 44.07 25.1904 47.64 18.3604 51.64C13.2904 54.6101 11.8404 60.4 14.3704 65.42C16.9304 70.49 22.8104 72.54 28.3304 70.21C30.1904 69.43 31.9504 68.41 34.7804 66.99C34.1804 70.75 35.2704 73.4101 36.2704 76.1201C37.3504 79.0601 36.6904 82.0401 33.5904 82.8001C30.2604 83.6101 29.9904 85.73 29.4304 88.27C28.5104 92.41 28.5604 97.83 25.9304 100.2C25.3104 100.76 24.7704 101.96 23.5404 101.96C23.2704 103.65 23.1004 105.07 22.6504 106.93C22.5004 107.83 22.6504 108.7 22.8104 108.73C23.5804 108.85 24.4604 108.83 25.1804 108.55C26.7204 107.94 27.3104 106.43 28.0604 105.1C30.4704 100.8 32.8904 96.51 35.2604 92.19C36.1004 90.65 36.9704 89.48 38.9604 89.14C48.4404 87.52 53.4904 81.6101 54.5504 72.2301C54.8204 69.8501 55.3604 68.7601 58.1404 68.6901C68.0404 68.4101 76.8904 64.62 84.1004 58.16C88.5504 54.17 91.3604 51.27 97.7704 55.44C101.73 58.0201 106.65 56.69 111.49 56.5C112.17 56.4701 114.33 55.2001 114.33 55.2001C114.33 55.2001 114.28 56.2701 114.51 56.53C115.66 56.62 116.42 56.85 117.52 57.25C118.04 57.44 120.19 57.42 120.19 57.42C120.19 57.42 120.4 57.0101 120.54 56.4001C120.92 54.5601 119.48 53.41 117.96 53.14ZM99.9104 21.99C100.64 21.92 101.13 22.5601 101.14 23.2901C101.16 23.9701 100.89 24.6 100.06 24.71C99.2704 24.77 98.7504 24.34 98.5904 23.65C98.3404 22.62 99.0504 22.06 99.9104 21.99ZM41.8804 62.46C43.0304 62.42 43.0904 63.2701 43.2004 64.03C42.9304 64.67 42.8504 65.4201 42.0004 65.4101C40.8904 65.4001 40.7204 64.5501 40.7204 63.7201C40.7104 63.0101 41.1004 62.49 41.8804 62.46ZM40.2604 73.68C39.3604 73.48 38.8804 72.73 39.1804 71.88C39.3604 71.38 40.0104 70.7601 40.4904 70.7301C41.4104 70.6701 41.8604 71.3901 41.8404 72.3301C41.6604 73.18 41.2804 73.91 40.2604 73.68ZM43.0104 82.17C42.2604 82.3 41.7904 81.86 41.7104 81.09C41.6204 80.24 41.7904 79.5 42.6904 79.17C43.5304 79.13 43.8604 79.6401 43.9904 80.3301C44.1604 81.2001 44.0304 81.99 43.0104 82.17ZM47.8804 76.38C47.0804 76.34 46.8104 75.6501 46.8004 74.9701C46.7904 74.1001 46.9704 73.22 48.1004 73.28C48.8804 73.32 49.1104 74.01 49.2104 74.81C49.1204 75.54 49.0204 76.44 47.8804 76.38ZM49.5404 68.82C49.0904 68.82 48.4004 68.19 48.2204 67.7C47.9204 66.85 48.3904 66.0401 49.2704 65.82C50.2804 65.57 50.6204 66.39 50.8604 67.09C50.9804 68.18 50.4004 68.8101 49.5404 68.82ZM51.7704 59.0401C51.5204 59.2401 50.9904 59.97 50.5404 59.92C49.7004 59.83 48.9604 59.1301 49.2904 58.1501C49.4804 57.6001 50.1604 56.7601 50.5304 56.8101C51.3704 56.9201 51.9504 57.6201 51.7704 59.0401ZM58.9504 63.67C58.8604 63.99 58.5704 64.26 58.2704 64.53C57.9504 64.81 57.4704 64.81 57.1504 64.53C56.8404 64.2701 56.5504 63.99 56.4704 63.67C56.2704 62.91 56.6804 62.3601 57.3104 61.9901C57.5704 61.84 57.9004 61.84 58.1604 62C58.7504 62.37 59.1604 62.91 58.9504 63.67ZM60.7604 55.87C60.5904 56.3601 59.9404 56.68 59.6104 56.9901C58.4504 56.5701 58.0604 55.82 58.3404 55.01C58.5004 54.56 59.2904 53.99 59.7104 54.05C60.5804 54.19 61.0404 55.03 60.7604 55.87ZM66.1104 48.2201C67.0404 48.2701 67.4904 48.94 67.2904 50.26C67.1604 50.78 66.6904 51.49 65.7304 51.12C65.2404 50.93 64.6904 50.24 64.6404 49.73C64.5604 48.86 65.1904 48.1601 66.1104 48.2201ZM66.3904 63.6501C65.5904 63.6401 65.3204 63.06 65.2204 62.37C65.3204 61.55 65.3704 60.68 66.5004 60.67C67.3504 60.66 67.5604 61.3701 67.6204 61.9901C67.7004 62.8301 67.5304 63.6701 66.3904 63.6501ZM71.5604 55.7901C71.4704 56.59 70.9404 56.93 70.1504 56.89C69.1304 56.5401 69.0404 55.71 69.2004 54.84C69.3304 54.14 69.7504 53.5401 70.5804 53.75C71.6404 54.03 71.6504 54.93 71.5604 55.7901ZM75.2304 50.03C74.2804 50.25 73.7904 49.45 73.6904 48.6C73.5704 47.63 74.2004 47.15 75.1404 47.01C75.9604 47.23 76.6604 47.7101 76.3904 48.68C76.2304 49.2201 75.7004 49.92 75.2304 50.03ZM78.7004 57.12C78.6204 57.89 78.1704 58.3101 77.4204 58.43C76.4704 58.2001 76.0104 57.5801 76.1004 56.6301C76.1704 55.8601 76.7304 55.35 77.4404 55.37C78.4604 55.39 78.8004 56.15 78.7004 57.12ZM78.5304 43.34C77.4904 43.48 76.9404 42.8001 77.0004 41.9001C77.0504 41.1201 77.4204 40.14 78.5004 40.43C79.0004 40.56 79.3504 41.2801 79.6204 41.5801C79.5404 42.5901 79.3104 43.23 78.5304 43.34ZM84.3904 51.7901C84.1904 52.43 83.6804 53 82.9504 52.78C82.0404 52.51 81.6404 51.76 81.9504 50.82C82.1604 50.17 82.6004 49.7 83.3904 49.78C84.2204 50.19 84.6804 50.8601 84.3904 51.7901ZM84.7804 45.43C83.9604 45.32 83.7104 44.64 83.7804 43.96C83.8604 43.12 84.2204 42.21 85.2804 42.51C85.7804 42.65 86.1104 43.3901 86.4104 43.7201C86.2304 44.9001 85.8304 45.57 84.7804 45.43ZM85.6504 36.82C84.8804 37.0201 84.3804 36.5001 84.1304 35.8301C83.7604 34.8301 84.2704 34.25 85.0604 33.92C85.9604 33.78 86.5004 34.1301 86.6904 34.8601C86.9404 35.7901 86.6404 36.57 85.6504 36.82ZM92.0304 30.64C92.8504 30.56 93.4304 30.89 93.6104 31.6C93.8504 32.5301 93.4804 33.32 92.5504 33.6C91.8004 33.83 91.3104 33.2501 91.0904 32.5801C90.7904 31.6401 91.1204 30.95 92.0304 30.64ZM90.5304 40.03C90.5304 39.34 90.7904 38.59 91.5804 38.51C92.6504 38.41 93.0104 39.16 93.0404 40.12C93.0004 40.85 92.7704 41.5401 91.9704 41.6301C90.8604 41.76 90.5304 40.94 90.5304 40.03ZM93.4604 48.1301C92.9904 48.0701 92.4104 47.4001 92.2304 46.8801C91.9304 45.9701 92.5204 45.3901 93.3104 45.1301C94.3804 45.1201 94.9004 45.7 94.9004 46.6C94.9104 47.5 94.3804 48.2501 93.4604 48.1301Z" fill="#F5BE17"/>
</svg>
