<svg width="128" height="128" viewBox="0 0 128 128" fill="none" xmlns="http://www.w3.org/2000/svg">
<path d="M17.1839 86.55C11.3039 85.008 6.71387 81.57 3.30087 76.145C2.04687 74.152 2.02687 73.449 3.17587 72.043C4.04587 70.98 4.09787 70.969 6.09387 71.43C7.69487 71.8 8.28487 72.156 8.88287 73.129C10.0469 75.012 13.5899 78.187 15.7189 79.254C22.3049 82.554 30.3239 81.195 35.4889 75.906C36.6129 74.754 37.7579 73.262 38.0349 72.59C38.3159 71.922 38.6679 71.371 38.8249 71.371C38.9799 71.371 39.4339 72.09 39.8279 72.973L40.5509 74.574L42.4529 74.348C44.6759 74.086 44.6759 74.148 42.4929 77.438C39.6759 81.684 34.2769 85.383 28.9299 86.734C25.7929 87.531 20.6099 87.449 17.1839 86.551V86.55Z" fill="#6DE1FA"/>
<path d="M17.4448 70.16C14.4298 66.496 11.6018 62.797 11.1648 61.934L10.3628 60.371L16.8398 53.863H29.3198L32.5818 57.137L35.8398 60.414L34.9598 61.906C33.9028 63.7 23.5828 76.77 23.1998 76.796C23.0498 76.809 20.4648 73.82 17.4448 70.16Z" fill="#FE405F"/>
<path d="M40.4732 71.563C39.7112 69.988 39.6602 69.586 40.0512 68.043C40.2892 67.086 40.4142 64.75 40.3242 62.855C40.1842 59.977 39.9572 58.996 38.9382 56.925C36.5582 52.094 32.6252 48.75 27.7812 47.438L25.2612 46.754L26.2732 45.426C27.2732 44.113 27.2812 44.074 26.6252 42.707C26.2622 41.941 26.0592 41.223 26.1722 41.109C26.5942 40.687 30.9422 41.914 33.7342 43.242C37.7302 45.141 42.0702 49.453 44.0352 53.472C46.6212 58.766 47.2272 64.199 45.8402 69.625C45.4102 71.297 45.0162 72.703 44.9652 72.75C44.9102 72.793 44.0752 72.941 43.1022 73.082L41.3362 73.34L40.4732 71.563Z" fill="#97F0FF"/>
<path d="M1.14478 71.688C-0.359221 67.734 -0.387221 60.922 1.08478 56.586C4.09378 47.723 12.2498 41.344 21.3278 40.754L24.2458 40.563L25.1408 42.164L26.0348 43.77L24.9648 45.258C23.9688 46.645 23.6948 46.778 21.0348 47.191C17.0818 47.805 14.1988 49.266 11.3788 52.086C6.61678 56.848 5.25378 62.609 7.19078 69.773C7.42078 70.625 7.35078 70.683 6.41078 70.457C5.84378 70.317 4.97678 70.105 4.48378 69.988C3.77378 69.813 3.37478 70.066 2.55378 71.223L1.51978 72.676L1.14478 71.688Z" fill="#40DAF4"/>
<path d="M62.5001 64.155C63.0311 64.335 63.5471 64.714 64.0471 65.296C64.5471 65.882 65.0471 66.683 65.5471 67.702L68.0471 72.671H65.4071L63.0781 68.015C62.4731 66.796 61.8901 65.991 61.3281 65.593C60.7651 65.198 60.0001 64.999 59.0311 64.999H56.3591V72.671H53.8911V54.515H59.4371C61.5191 54.515 63.0701 54.952 64.0941 55.827C65.1141 56.694 65.6241 57.999 65.6241 59.749C65.6241 60.886 65.3591 61.835 64.8281 62.593C64.2971 63.343 63.5191 63.866 62.5001 64.155ZM56.3601 56.53V62.983H59.4371C60.6251 62.983 61.5191 62.714 62.1251 62.171C62.7261 61.621 63.0311 60.811 63.0311 59.749C63.0311 58.687 62.7261 57.886 62.1251 57.343C61.5191 56.803 60.6251 56.53 59.4371 56.53H56.3601Z" fill="black"/>
<path d="M82.082 55.108V57.499C81.2337 57.0915 80.3501 56.7622 79.442 56.515C78.6626 56.3024 77.8589 56.1921 77.051 56.187C75.707 56.187 74.668 56.448 73.941 56.967C73.223 57.48 72.863 58.214 72.863 59.171C72.863 59.976 73.102 60.585 73.583 60.999C74.07 61.405 74.988 61.734 76.333 61.984L77.817 62.28C79.649 62.636 80.997 63.257 81.863 64.14C82.738 65.015 83.176 66.187 83.176 67.655C83.176 69.417 82.586 70.757 81.41 71.671C80.23 72.577 78.504 73.031 76.224 73.031C75.357 73.031 74.442 72.929 73.474 72.734C72.4539 72.5226 71.4512 72.2351 70.474 71.874V69.343C71.462 69.898 72.434 70.319 73.396 70.608C74.3136 70.8836 75.266 71.0257 76.224 71.03C77.63 71.03 78.712 70.757 79.474 70.202C80.232 69.652 80.614 68.866 80.614 67.842C80.614 66.948 80.337 66.249 79.786 65.749C79.243 65.249 78.349 64.874 77.099 64.624L75.599 64.327C73.763 63.964 72.435 63.397 71.614 62.624C70.802 61.843 70.396 60.761 70.396 59.374C70.396 57.761 70.958 56.495 72.083 55.577C73.216 54.651 74.778 54.187 76.771 54.187C77.622 54.187 78.489 54.265 79.364 54.421C80.247 54.577 81.154 54.808 82.084 55.109L82.082 55.108Z" fill="black"/>
<path d="M89.0752 70.624V77.859H86.8252V59.046H89.0752V61.124C89.5432 60.312 90.1372 59.71 90.8552 59.312C91.5752 58.917 92.4262 58.718 93.4182 58.718C95.0752 58.718 96.4182 59.374 97.4502 60.687C98.4892 61.999 99.0122 63.73 99.0122 65.874C99.0122 68.011 98.4892 69.741 97.4502 71.062C96.4182 72.374 95.0752 73.03 93.4182 73.03C92.4262 73.031 91.5752 72.831 90.8562 72.437C90.1372 72.042 89.5432 71.437 89.0752 70.624ZM96.6842 65.874C96.6842 64.23 96.3442 62.937 95.6682 61.999C94.9882 61.062 94.0592 60.593 92.8722 60.593C91.6922 60.593 90.7662 61.062 90.0902 61.999C89.4102 62.937 89.0752 64.229 89.0752 65.874C89.0752 67.523 89.4112 68.812 90.0902 69.749C90.7662 70.687 91.6922 71.155 92.8722 71.155C94.0592 71.155 94.9892 70.687 95.6682 69.749C96.3442 68.812 96.6842 67.523 96.6842 65.874Z" fill="black"/>
<path d="M114.365 65.296V66.39H104.068C104.17 67.933 104.635 69.108 105.458 69.921C106.291 70.726 107.451 71.124 108.943 71.124C109.795 71.124 110.623 71.023 111.428 70.812C112.267 70.5949 113.075 70.2744 113.834 69.858V71.984C113.037 72.3169 112.211 72.5731 111.365 72.749C110.521 72.937 109.665 73.03 108.802 73.03C106.635 73.031 104.916 72.401 103.647 71.141C102.374 69.871 101.741 68.156 101.741 66.001C101.741 63.774 102.339 62.001 103.538 60.688C104.745 59.375 106.37 58.718 108.413 58.718C110.245 58.718 111.694 59.313 112.757 60.5C113.825 61.679 114.365 63.276 114.365 65.296ZM112.131 64.64C112.107 63.421 111.763 62.448 111.099 61.718C110.431 60.991 109.545 60.624 108.443 60.624C107.193 60.624 106.193 60.98 105.443 61.687C104.693 62.386 104.26 63.374 104.146 64.655L112.131 64.64Z" fill="black"/>
<path d="M127.84 59.577V61.671C127.239 61.3337 126.599 61.0714 125.934 60.89C125.303 60.7141 124.651 60.6246 123.996 60.624C122.547 60.624 121.422 61.085 120.622 61.999C119.817 62.917 119.418 64.21 119.418 65.874C119.418 67.53 119.817 68.824 120.622 69.749C121.422 70.667 122.547 71.124 123.997 71.124C124.653 71.124 125.297 71.042 125.934 70.874C126.599 70.6851 127.239 70.4176 127.84 70.077V72.155C127.216 72.4477 126.561 72.6681 125.887 72.812C125.189 72.9602 124.476 73.0333 123.762 73.03C121.707 73.03 120.079 72.386 118.872 71.093C117.661 69.803 117.059 68.062 117.059 65.874C117.059 63.655 117.669 61.914 118.887 60.64C120.106 59.359 121.777 58.718 123.903 58.718C124.59 58.718 125.263 58.792 125.918 58.937C126.575 59.085 127.215 59.296 127.84 59.577Z" fill="black"/>
</svg>
