<svg width="128" height="129" viewBox="0 0 128 129" fill="none" xmlns="http://www.w3.org/2000/svg">
<path d="M47.3049 126.883C31.1839 122.656 18.6019 113.227 9.24187 98.355C5.80087 92.891 5.74188 90.961 8.90188 87.105C11.2849 84.195 11.4219 84.165 16.8949 85.43C21.2889 86.441 22.8979 87.422 24.5429 90.082C27.7379 95.25 37.4449 103.949 43.2889 106.879C61.3359 115.926 83.3239 112.199 97.4839 97.695C100.566 94.543 103.711 90.457 104.473 88.613C105.234 86.773 106.207 85.266 106.633 85.266C107.059 85.266 108.301 87.242 109.391 89.656L111.367 94.046L116.582 93.43C122.672 92.707 122.676 92.879 116.688 101.902C108.965 113.535 94.1679 123.68 79.5079 127.391C70.9019 129.571 56.6989 129.344 47.3049 126.883Z" fill="#6DE1FA"/>
<path d="M48.023 81.945C39.75 71.902 32 61.758 30.797 59.395L28.605 55.105L37.48 46.188L46.352 37.266H80.582L89.512 46.246L98.445 55.226L96.039 59.313C93.137 64.238 64.844 100.07 63.797 100.148C63.391 100.176 56.293 91.984 48.023 81.945Z" fill="#FE405F"/>
<path d="M111.156 85.7931C109.062 81.48 108.926 80.3711 109.992 76.1481C110.652 73.5231 110.988 67.1211 110.742 61.9181C110.363 54.0311 109.734 51.3361 106.942 45.6641C100.422 32.4181 89.6318 23.2461 76.3518 19.6481L69.4448 17.7811L72.2268 14.1331C74.9688 10.5391 74.9798 10.4301 73.1908 6.67605C72.1908 4.58205 71.6328 2.61305 71.9488 2.29605C73.1018 1.14205 85.0198 4.50005 92.6798 8.14205C103.638 13.3521 115.536 25.1721 120.923 36.2001C128.009 50.7121 129.669 65.6031 125.864 80.4781C124.692 85.0711 123.61 88.9271 123.466 89.0441C123.321 89.1651 121.024 89.5751 118.36 89.9621L113.524 90.6651L111.156 85.7931Z" fill="#97F0FF"/>
<path d="M3.32809 86.137C-0.792906 75.297 -0.866906 56.617 3.16809 44.734C11.4181 20.434 33.7731 2.94903 58.6681 1.32403L66.6681 0.801025L69.1131 5.19503L71.5631 9.59003L68.6291 13.672C65.8991 17.469 65.1561 17.836 57.8631 18.969C47.0271 20.656 39.1131 24.664 31.3911 32.391C18.3321 45.449 14.5901 61.246 19.9061 80.891C20.5361 83.223 20.3481 83.387 17.7661 82.758L12.4801 81.473C10.5311 81 9.44509 81.695 7.19509 84.859L4.36009 88.848L3.32809 86.137Z" fill="#40DAF4"/>
</svg>
