<svg width="128" height="128" viewBox="0 0 128 128" fill="none" xmlns="http://www.w3.org/2000/svg">
<path d="M71.3998 38.8C69.8998 38.2 67.4998 37.8 64.4998 37.7C60.2998 37.6 55.4998 38.1 55.2998 38.2V58.2C68.5998 58.8 70.7998 56.5 70.7998 56.5C82.3998 50.6 75.0998 40.3 71.3998 38.8Z" fill="#75AADB"/>
<path d="M64 0C28.6 0 0 28.6 0 64C0 99.4 28.6 128 64 128C99.4 128 128 99.4 128 64C128 28.6 99.3 0 64 0ZM92.6 89.8H82L64.4 63.5H55.4V84H64.4V89.8H41.5V84.1L49.1 84L49 38.1C48.2 37.9 41.5 37.3 41.5 37.3V32C42.5 33 49.4 33.2 49.4 33.2C51 33.3 53.3 33.4 54.6 33.1C63.9 31.4 71 32.7 71 32.7C85 35.9 85.2 48.5 81.3 55.3C77.8 61.1 71 62.5 71 62.5L85.4 84.3L92.6 84.2V89.8Z" fill="#75AADB"/>
<path d="M41.5952 87.073V84.347L43.4152 84.206C44.664 84.1183 45.9153 84.0703 47.1672 84.062H49.0982V37.996L48.1602 37.869C47.6442 37.799 45.9562 37.621 44.4082 37.472L41.5952 37.202V34.692C41.5952 32.36 41.6222 32.197 41.9852 32.392C43.5682 33.239 52.6852 33.462 57.8152 32.78C62.0172 32.222 69.3102 32.355 71.8502 33.037C77.3332 34.509 80.9602 37.683 82.6742 42.51C83.3912 44.528 83.4912 48.357 82.8902 50.734C81.9872 54.306 80.5002 56.782 78.0252 58.835C76.5432 60.065 73.1782 61.865 71.8802 62.125C71.4832 62.204 71.1082 62.349 71.0482 62.446C70.9882 62.544 74.1712 67.518 78.1232 73.5L85.3072 84.376L88.9402 84.308L92.5742 84.24V89.8L87.3322 89.792L82.0922 89.785L73.2722 76.551L64.4552 63.317H55.2772V84.061H64.3262V89.8H41.5952V87.073ZM66.7532 57.911C70.2292 57.361 74.0182 55.137 75.7262 52.648C78.2372 48.985 77.2632 43.658 73.4322 40.101C72.0752 38.841 71.2272 38.471 68.6382 38.001C66.5142 37.615 59.9782 37.547 56.9322 37.879L55.3882 38.047L55.3302 48.13L55.2732 58.212L55.9932 58.318C57.3592 58.518 64.6632 58.243 66.7532 57.911Z" fill="white" stroke="white" stroke-width="0.788"/>
</svg>
