<svg width="128" height="128" viewBox="0 0 128 128" fill="none" xmlns="http://www.w3.org/2000/svg">
<path d="M71.3998 38.8C69.8998 38.2 67.4998 37.8 64.4998 37.7C60.2998 37.6 55.4998 38.1 55.2998 38.2V58.2C68.5998 58.8 70.7998 56.5 70.7998 56.5C82.3998 50.6 75.0998 40.3 71.3998 38.8Z" fill="#75AADB"/>
<path d="M64 0C28.6 0 0 28.6 0 64C0 99.4 28.6 128 64 128C99.4 128 128 99.4 128 64C128 28.6 99.3 0 64 0ZM92.6 89.8H82L64.4 63.5H55.4V84H64.4V89.8H41.5V84.1L49.1 84L49 38.1C48.2 37.9 41.5 37.3 41.5 37.3V32C42.5 33 49.4 33.2 49.4 33.2C51 33.3 53.3 33.4 54.6 33.1C63.9 31.4 71 32.7 71 32.7C85 35.9 85.2 48.5 81.3 55.3C77.8 61.1 71 62.5 71 62.5L85.4 84.3L92.6 84.2V89.8Z" fill="#75AADB"/>
</svg>
