<svg width="128" height="128" viewBox="0 0 128 128" fill="none" xmlns="http://www.w3.org/2000/svg">
<path d="M122.19 97.45C120.91 95.45 109.02 79.21 108.05 77.26L107.7 76.57L108.34 76.11C113.376 72.5622 117.487 67.8581 120.328 62.3927C123.17 56.9273 124.659 50.86 124.67 44.7V43.64C124.67 34.95 121.67 26.64 116.33 20.87C110.13 14.11 101.22 10.14 91 9.40002V34.54C96.37 36.08 100 41.06 100 47.54C100 54.94 94.27 58.88 89.46 61.73L87.55 62.89C85.5257 64.1342 83.8618 65.8861 82.7233 67.9717C81.5849 70.0574 81.0115 72.4044 81.06 74.78C81.1009 77.6346 81.7307 80.4501 82.91 83.05L84.61 86L102.05 111L102.33 111.43L104.68 114.85C106.161 116.809 108.286 118.183 110.68 118.73C112.381 119.122 114.144 119.165 115.863 118.857C117.582 118.55 119.22 117.898 120.68 116.94C121.971 116.127 123.077 115.05 123.923 113.78C124.769 112.51 125.337 111.075 125.59 109.57L125.8 107.49C125.6 103.863 124.345 100.374 122.19 97.45Z" fill="#C12C4C"/>
<path d="M85.3899 9.14004C82.2875 9.37692 79.2269 10.0018 76.2799 11C76.0199 11.09 75.7699 11.21 75.5099 11.3C74.6199 11.62 73.7499 11.95 72.8899 12.3C72.5599 12.45 72.2399 12.63 71.8899 12.79C71.0399 13.21 70.1699 13.59 69.3499 14.07C67.3013 15.2617 65.3724 16.6481 63.5899 18.21C58.246 13.5085 51.6594 10.4481 44.6199 9.39585C37.5804 8.34358 30.3868 9.34409 23.9017 12.2774C17.4165 15.2107 11.915 19.9523 8.05694 25.9337C4.19884 31.9151 2.14786 38.8823 2.14993 46C2.14599 46.0399 2.14599 46.0801 2.14993 46.12V116.9H27.3399V46.15C27.3368 46.1101 27.3368 46.07 27.3399 46.03C27.3253 42.8925 28.5577 39.8777 30.766 37.6489C32.9742 35.42 35.9774 34.1596 39.1149 34.145C42.2524 34.1305 45.2672 35.3628 47.4961 37.5711C49.725 39.7793 50.9853 42.7825 50.9999 45.92V46C50.9961 46.0399 50.9961 46.0801 50.9999 46.12V116.9H76.1999V46.14V46.06V45.96C76.2171 45.6518 76.2505 45.3447 76.2999 45.04V44.4C76.6283 42.0313 77.6716 39.8192 79.2906 38.0591C80.9095 36.2991 83.0269 35.0749 85.3599 34.55V9.14004H85.3899Z" fill="#FA930D"/>
</svg>
