<svg width="128" height="128" viewBox="0 0 128 128" fill="none" xmlns="http://www.w3.org/2000/svg">
<path d="M118 97.51C116.81 95.51 105.77 79.23 104.87 77.28L104.54 76.59L105.14 76.12C109.911 72.3864 113.76 67.6074 116.392 62.1512C119.024 56.6951 120.368 50.7076 120.32 44.65V43.6C120.32 34.89 117.5 26.6 112.57 20.79C106.85 14 98.5702 10 89.0902 9.29004V34.49C94.0902 36.03 97.4702 41.02 97.4702 47.56C97.4702 54.98 92.1502 58.92 87.6802 61.78L85.9002 62.93C83.9885 64.2596 82.4387 66.0451 81.391 68.1247C80.3433 70.2043 79.831 72.5125 79.9002 74.84C79.9342 77.6884 80.5182 80.5033 81.6202 83.13L83.1702 86.06L99.3702 111.06L99.6302 111.5L101.81 114.92C103.145 116.856 105.14 118.239 107.42 118.81C109.008 119.202 110.662 119.243 112.268 118.933C113.874 118.622 115.393 117.966 116.72 117.01C117.944 116.157 118.98 115.062 119.765 113.792C120.549 112.523 121.065 111.106 121.28 109.63L121.47 107.55C121.258 103.948 120.057 100.474 118 97.51Z" fill="#C12C4C"/>
<path d="M83.8701 8.99999C80.9809 9.22862 78.1355 9.84412 75.4101 10.83C75.1701 10.92 74.9401 11.04 74.7001 11.13C73.8801 11.45 73.0601 11.78 72.2701 12.13C71.9601 12.28 71.6701 12.46 71.3601 12.62C70.5701 13.04 69.7601 13.42 69.0001 13.9C67.0847 15.1042 65.2927 16.4942 63.6501 18.05C57.5639 12.1863 49.4513 8.89473 41.0001 8.85999C22.0001 8.85999 6.5501 25.48 6.5501 46C6.54645 46.0399 6.54645 46.0801 6.5501 46.12V117H30.0001V46.1C29.9981 46.0667 29.9981 46.0333 30.0001 46C30.0001 39.45 34.9201 34.15 41.0001 34.15C47.0801 34.15 51.9201 39.4 52.0001 45.9V46C51.9966 46.0399 51.9966 46.0801 52.0001 46.12V117.01H75.3201V46.11V46.03V45.93C75.3201 45.61 75.3801 45.32 75.4101 45.01V44.4C75.6532 42.0972 76.5877 39.9218 78.0906 38.1602C79.5935 36.3985 81.5943 35.1329 83.8301 34.53V8.99999H83.8701Z" fill="#C12C4C"/>
</svg>
