<svg width="128" height="128" viewBox="0 0 128 128" fill="none" xmlns="http://www.w3.org/2000/svg">
<path d="M40.6401 60.1999C41.9663 60.0267 43.3027 59.9432 44.6401 59.9499C46.141 59.8165 47.6471 60.1407 48.9601 60.8799C49.3563 61.1573 49.6765 61.5298 49.8914 61.9631C50.1063 62.3963 50.209 62.8766 50.1901 63.3599C50.1536 64.034 49.9061 64.6796 49.4826 65.2054C49.0591 65.7312 48.481 66.1106 47.8301 66.2899V66.3399C48.2874 66.5337 48.6894 66.838 49.0001 67.2254C49.3108 67.6129 49.5204 68.0714 49.6101 68.5599C49.9124 69.6955 50.2762 70.8139 50.7001 71.9099H47.6301C47.2224 71.0223 46.9107 70.0937 46.7001 69.1399C46.3401 67.6599 45.7701 67.2499 44.5401 67.2399H43.6301V71.9099H40.6301V60.1999H40.6401ZM43.6401 65.3099H44.8301C46.3401 65.3099 47.2301 64.6399 47.2301 63.5999C47.2301 62.5599 46.3801 61.9999 45.0001 61.9399C44.5418 61.9326 44.0836 61.9627 43.6301 62.0299V65.3099H43.6401ZM61.4101 69.1499C61.4101 70.2799 61.4101 71.1499 61.4901 71.9199H58.8801L58.7401 70.6999H58.6801C58.332 71.1606 57.8769 71.5297 57.3543 71.7754C56.8316 72.021 56.2571 72.1358 55.6801 72.1099C53.6801 72.1099 52.2701 71.0199 52.2701 68.3599V63.2999H55.2701V67.9299C55.2701 69.1799 55.7301 69.9299 56.7801 69.9299C57.0933 69.9365 57.4017 69.8522 57.6679 69.6871C57.9341 69.5221 58.1468 69.2833 58.2801 68.9999C58.3557 68.8163 58.3899 68.6182 58.3801 68.4199V63.2999H61.3801V69.1499H61.4101ZM63.7501 71.9099C63.7501 71.3499 63.8301 70.3099 63.8301 69.3399V59.3999H66.8301V64.3199C67.1919 63.905 67.6444 63.5791 68.1525 63.3675C68.6607 63.1559 69.2108 63.0643 69.7601 63.0999C72.0801 63.0999 73.7601 64.8099 73.7601 67.4499C73.8005 68.0532 73.7149 68.6583 73.5089 69.2267C73.3028 69.7951 72.9808 70.3145 72.5632 70.7518C72.1457 71.1891 71.6417 71.5348 71.0834 71.7668C70.5251 71.9989 69.9246 72.1123 69.3201 72.0999C68.7572 72.1327 68.1951 72.0224 67.6863 71.7794C67.1774 71.5363 66.7384 71.1684 66.4101 70.7099L66.2901 71.9099H63.7501ZM66.8401 68.2399C66.8378 68.4019 66.858 68.5635 66.9001 68.7199C67.0106 69.0979 67.2433 69.4286 67.5617 69.6602C67.8802 69.8918 68.2665 70.0113 68.6601 69.9999C69.9501 69.9999 70.7401 69.1199 70.7401 67.5699C70.7401 66.2299 70.0701 65.1699 68.6601 65.1699C68.2629 65.1677 67.8759 65.2955 67.5581 65.5339C67.2403 65.7722 67.0093 66.108 66.9001 66.4899C66.86 66.6501 66.8398 66.8147 66.8401 66.9799V68.2399ZM77.7401 63.2999L79.1901 67.5299C79.3501 68.0399 79.5501 68.6799 79.6701 69.1299H79.7301C79.8701 68.6699 80.0301 68.0199 80.1701 67.5299L81.3601 63.2999H84.5901L82.3201 68.9999C80.9301 72.4199 80.0001 73.7899 78.9101 74.6599C78.0613 75.2982 77.056 75.6955 76.0001 75.8099L75.3701 73.5399C75.8297 73.462 76.2727 73.3064 76.6801 73.0799C77.1777 72.8299 77.6042 72.4585 77.9201 71.9999C78.0153 71.8913 78.0716 71.7541 78.0801 71.6099C78.073 71.4535 78.0247 71.3017 77.9401 71.1699L74.4001 63.2999H77.7501H77.7401ZM97.3901 66.6999C97.2901 65.0399 97.1701 63.0499 97.1901 61.5699H97.1301C96.6701 62.9599 96.1301 64.4399 95.4501 66.0799L93.0901 71.8399H91.7801L89.6201 66.1799C89.0001 64.5099 88.4501 62.9999 88.0801 61.5699C88.0801 63.0499 87.9401 65.0399 87.8201 66.8199L87.4601 71.9099H85.7801L86.7101 59.9999H88.9101L91.1901 65.7499C91.7401 67.2099 92.1901 68.5199 92.5401 69.7499H92.6001C93.0017 68.3934 93.4723 67.0584 94.0101 65.7499L96.3801 59.9999H98.5801L99.4101 71.8799H97.7201L97.3901 66.6999ZM104.17 60.9999C104.17 61.5299 103.75 61.9999 103.06 61.9999C102.795 61.9999 102.541 61.8946 102.353 61.707C102.165 61.5195 102.06 61.2651 102.06 60.9999C102.06 60.8607 102.088 60.7228 102.144 60.5952C102.2 60.4676 102.281 60.3531 102.384 60.259C102.487 60.1648 102.608 60.0932 102.74 60.0486C102.872 60.0039 103.011 59.9874 103.15 59.9999C103.283 59.9972 103.415 60.0211 103.539 60.0702C103.663 60.1193 103.775 60.1925 103.87 60.2856C103.965 60.3788 104.041 60.4899 104.092 60.6125C104.144 60.7352 104.17 60.8669 104.17 60.9999ZM102.23 71.9299V63.3899H104V71.9199H102.26L102.23 71.9299ZM106.87 65.6899C106.87 64.8099 106.87 64.0899 106.79 63.3799H108.33L108.43 64.7899C108.776 64.2727 109.249 63.8535 109.805 63.5732C110.36 63.2929 110.979 63.1608 111.6 63.1899C112.073 63.1665 112.545 63.2462 112.984 63.4236C113.423 63.6011 113.817 63.8719 114.141 64.2173C114.465 64.5628 114.709 64.9745 114.857 65.424C115.006 65.8734 115.054 66.3497 115 66.8199V71.9099H113.26V66.9999C113.26 65.6299 112.69 64.4799 111.04 64.4799C110.534 64.4705 110.037 64.6183 109.617 64.903C109.198 65.1878 108.878 65.5955 108.7 66.0699C108.616 66.3005 108.576 66.5446 108.58 66.7899V71.9199H106.84V65.6899H106.87ZM118.82 67.9299C118.82 70.0299 120.36 70.9299 122.11 70.9299C123.014 70.9557 123.913 70.8063 124.76 70.4899L125.06 71.5999C124.04 71.9767 122.957 72.1565 121.87 72.1299C118.87 72.1299 117.16 70.3999 117.16 67.8299C117.123 67.2248 117.214 66.6186 117.426 66.0506C117.637 65.4825 117.966 64.9651 118.39 64.5317C118.814 64.0983 119.324 63.7586 119.887 63.5344C120.45 63.3102 121.054 63.2064 121.66 63.2299C122.194 63.1962 122.729 63.2766 123.23 63.4657C123.73 63.6548 124.185 63.9483 124.563 64.3266C124.942 64.705 125.235 65.1596 125.424 65.6602C125.613 66.1608 125.694 66.6959 125.66 67.2299C125.656 67.471 125.636 67.7115 125.6 67.9499H118.87L118.82 67.9299ZM123.93 66.8199C123.964 66.4892 123.926 66.155 123.818 65.8406C123.709 65.5262 123.534 65.2391 123.304 64.9993C123.074 64.7595 122.794 64.5727 122.484 64.452C122.174 64.3312 121.842 64.2793 121.51 64.2999C120.83 64.3083 120.178 64.5721 119.683 65.0389C119.189 65.5057 118.888 66.1415 118.84 66.8199H123.93ZM29.4301 69.9299C29.1401 69.5299 26.4301 66.2699 26.2401 65.9299L26.1601 65.7899L26.3001 65.6999C27.4078 65.0481 28.3297 64.1228 28.9775 63.0128C29.6254 61.9027 29.9775 60.645 30.0001 59.3599V59.1499C30.007 58.3013 29.8442 57.46 29.5213 56.6752C29.1985 55.8904 28.7221 55.178 28.1201 54.5799C26.55 53.16 24.5261 52.3447 22.4101 52.2799V57.2799C22.9931 57.4216 23.5097 57.7591 23.8738 58.236C24.2378 58.7129 24.4271 59.3002 24.4101 59.8999C24.4101 61.3799 23.1201 62.1699 22.0301 62.7499L21.6001 62.9799C21.1608 63.2032 20.7919 63.5438 20.5342 63.9639C20.2766 64.3839 20.1402 64.8671 20.1401 65.3599C20.1517 65.938 20.2953 66.5059 20.5601 67.0199L20.9401 67.6099L24.8701 72.6099L24.9301 72.6999L25.4601 73.3899C25.8129 73.7954 26.292 74.0702 26.8201 74.1699C27.5921 74.3307 28.3963 74.2026 29.0801 73.8099C29.3624 73.6597 29.6081 73.4493 29.7999 73.1935C29.9917 72.9377 30.125 72.6429 30.1901 72.3299V71.9099C30.1483 71.1871 29.8827 70.4951 29.4301 69.9299Z" fill="#C12C4C"/>
<path d="M21.1401 52.2299C20.4451 52.2761 19.7575 52.4002 19.0901 52.5999L18.9201 52.6599L18.3301 52.8699L18.1101 52.97C17.9201 53.05 17.7201 53.1299 17.5401 53.2299C17.0822 53.466 16.647 53.7438 16.2401 54.06C14.6646 52.8468 12.7285 52.1956 10.7401 52.2099C6.13014 52.2099 2.39014 55.5399 2.39014 59.6399V73.83H8.06014V59.6399C8.10139 58.974 8.40406 58.3512 8.90225 57.9074C9.40045 57.4635 10.0538 57.2344 10.7201 57.2699C11.3832 57.2342 12.0337 57.4606 12.5314 57.9002C13.029 58.3399 13.3339 58.9575 13.3801 59.6199V73.8099H19.0601V59.65C19.0567 59.59 19.0567 59.5299 19.0601 59.47V59.3499C19.1513 58.8531 19.3914 58.3956 19.7486 58.0384C20.1058 57.6812 20.5632 57.4411 21.0601 57.3499V52.2299H21.1401Z" fill="#C12C4C"/>
</svg>
