<svg width="128" height="128" viewBox="0 0 128 128" fill="none" xmlns="http://www.w3.org/2000/svg">
<path d="M40.29 59.66C41.6409 59.4634 43.0048 59.3698 44.37 59.38C46.37 59.38 47.79 59.68 48.75 60.45C49.1648 60.7914 49.494 61.2251 49.7111 61.7166C49.9281 62.208 50.0271 62.7435 50 63.28C49.9896 64.014 49.7552 64.7273 49.328 65.3243C48.9008 65.9212 48.3013 66.3734 47.61 66.62V66.68C48.0902 66.9286 48.5046 67.2875 48.8193 67.7273C49.1339 68.1671 49.3398 68.6752 49.42 69.21C49.84 70.74 50.26 72.51 50.53 73.03H47.39C46.975 72.0096 46.6602 70.9513 46.45 69.87C46.09 68.18 45.51 67.72 44.26 67.7H43.34V73H40.34V59.66H40.29ZM43.29 65.49H44.5C46.03 65.49 46.93 64.73 46.93 63.54C46.93 62.35 46.08 61.67 44.68 61.65C44.2146 61.6409 43.7493 61.6744 43.29 61.75V65.49ZM61.37 69.87C61.37 71.16 61.37 72.2 61.45 73.03H58.8L58.66 71.64H58.6C58.2705 72.1526 57.8133 72.5707 57.2732 72.853C56.7332 73.1353 56.1289 73.2721 55.52 73.25C53.52 73.25 52.06 72 52.06 68.97V63.2H55.14V68.49C55.14 69.92 55.6 70.78 56.67 70.78C57.0035 70.7784 57.3287 70.6752 57.6021 70.484C57.8755 70.2928 58.084 70.0228 58.2 69.71C58.2763 69.4987 58.3103 69.2745 58.3 69.05V63.2H61.38L61.37 69.87ZM63.74 73C63.74 72.36 63.82 71.17 63.82 70.07V58.76H66.87V64.37C67.2143 63.9064 67.6692 63.5363 68.1932 63.2935C68.7172 63.0507 69.2936 62.9429 69.87 62.98C72.22 62.98 73.95 64.93 73.93 67.98C73.93 71.52 71.68 73.29 69.43 73.29C68.8321 73.3262 68.2358 73.1969 67.7066 72.9164C67.1774 72.6359 66.7357 72.2151 66.43 71.7L66.34 73H63.74ZM66.88 68.82C66.8779 69.0018 66.898 69.1831 66.94 69.36C67.0304 69.7685 67.2566 70.1343 67.5817 70.3976C67.9068 70.661 68.3116 70.8063 68.73 70.81C70.04 70.81 70.84 69.81 70.84 68.04C70.84 66.51 70.16 65.31 68.73 65.31C68.3053 65.3239 67.8977 65.4804 67.5729 65.7544C67.2481 66.0283 67.0252 66.4038 66.94 66.82C66.8992 67.0039 66.8791 67.1917 66.88 67.38V68.82ZM78 63.2L79.42 68C79.58 68.58 79.78 69.31 79.9 69.83H80C80.14 69.31 80.3 68.56 80.44 68L81.65 63.18H84.93L82.6 69.67C81.19 73.57 80.25 75.14 79.14 76.12C78.2967 76.8587 77.2521 77.3287 76.14 77.47L75.5 74.88C75.9717 74.7907 76.4227 74.6144 76.83 74.36C77.3513 74.0651 77.7885 73.6417 78.1 73.13C78.1965 73.0029 78.2523 72.8495 78.26 72.69C78.2535 72.5146 78.2055 72.3433 78.12 72.19L74.52 63.19H78V63.2ZM97.89 67.08C97.79 65.19 97.67 62.92 97.69 61.23H97.63C97.17 62.82 96.63 64.51 95.92 66.38L93.53 72.95H92.2L90 66.49C89.36 64.58 88.81 62.83 88.43 61.22C88.43 62.91 88.29 65.22 88.17 67.22L87.78 73H86.11L87.05 59.45H89.28L91.6 66C92.16 67.67 92.6 69.16 92.97 70.56H93C93.34 69.19 93.82 67.71 94.43 66L96.84 59.45H99.1L99.94 73H98.23L97.89 67.08ZM104.78 60.56C104.754 60.8324 104.627 61.0852 104.425 61.2693C104.222 61.4533 103.959 61.5553 103.685 61.5553C103.411 61.5553 103.148 61.4533 102.945 61.2693C102.743 61.0852 102.616 60.8324 102.59 60.56C102.586 60.4131 102.612 60.2669 102.666 60.1304C102.72 59.9938 102.802 59.8698 102.906 59.7659C103.01 59.662 103.134 59.5804 103.27 59.5261C103.407 59.4718 103.553 59.4459 103.7 59.45C103.848 59.4372 103.996 59.4574 104.135 59.5091C104.274 59.5608 104.4 59.6427 104.503 59.7489C104.607 59.8551 104.685 59.983 104.733 60.1233C104.781 60.2636 104.797 60.4128 104.78 60.56ZM102.78 73.02V63.3H104.55V73L102.78 73.02ZM107.51 65.93C107.51 64.93 107.51 64.1 107.43 63.3H109L109.1 64.91C109.419 64.3404 109.887 63.8688 110.455 63.5463C111.022 63.2237 111.667 63.0625 112.32 63.08C113.67 63.08 115.76 63.88 115.76 67.22V73H114V67.42C114 65.85 113.42 64.55 111.75 64.55C111.213 64.5587 110.694 64.7391 110.267 65.0649C109.84 65.3907 109.53 65.8446 109.38 66.36C109.296 66.625 109.255 66.902 109.26 67.18V73H107.49V65.9L107.51 65.93ZM119.65 68.48C119.611 68.9311 119.67 69.3854 119.825 69.8112C119.979 70.2369 120.224 70.6241 120.542 70.9457C120.861 71.2673 121.246 71.5157 121.67 71.6736C122.095 71.8315 122.549 71.8951 123 71.86C123.922 71.8892 124.84 71.7186 125.69 71.36L125.99 72.63C124.964 73.0561 123.86 73.2606 122.75 73.23C119.75 73.23 117.97 71.23 117.97 68.32C117.97 65.41 119.7 63.07 122.53 63.07C125.71 63.07 126.53 65.86 126.53 67.65C126.526 67.9243 126.506 68.1981 126.47 68.47L119.65 68.48ZM124.84 67.21C124.84 66.08 124.38 64.34 122.39 64.34C120.6 64.34 119.82 65.99 119.68 67.21H124.84ZM28.91 70.77C28.62 70.31 25.91 66.6 25.68 66.15L25.59 66L25.74 65.89C26.892 65.0794 27.8328 64.0043 28.4835 62.755C29.1343 61.5058 29.476 60.1186 29.48 58.71V58.47C29.5082 56.5571 28.8279 54.7014 27.57 53.26C26.0477 51.676 23.9747 50.738 21.78 50.64V56.39C22.4046 56.5952 22.9446 57 23.3168 57.542C23.689 58.084 23.8728 58.7333 23.84 59.39C23.84 61.08 22.53 61.98 21.43 62.64L20.99 62.9C20.5279 63.1854 20.1483 63.5864 19.8887 64.0634C19.6291 64.5405 19.4986 65.077 19.51 65.62C19.5184 66.2722 19.6614 66.9156 19.93 67.51L20.31 68.18L24.31 73.88L24.38 73.98L24.92 74.76C25.2604 75.2104 25.7493 75.5256 26.3 75.65C26.6897 75.7376 27.0931 75.7464 27.4863 75.676C27.8796 75.6056 28.2548 75.4574 28.59 75.24C28.8852 75.0531 29.1375 74.8059 29.3305 74.5147C29.5236 74.2235 29.6529 73.8947 29.71 73.55V73.07C29.6722 72.2419 29.3942 71.4428 28.91 70.77Z" fill="#C12C4C"/>
<path d="M20.4902 50.57C19.7821 50.6228 19.0833 50.7639 18.4102 50.99L18.2302 51.06C18.0302 51.13 17.8302 51.21 17.6302 51.3L17.4102 51.41C17.2102 51.51 17.0202 51.59 16.8302 51.7C16.3606 51.9734 15.9186 52.2915 15.5102 52.65C14.2889 51.5715 12.7822 50.8686 11.1711 50.6257C9.55992 50.3829 7.91294 50.6105 6.42802 51.2811C4.94311 51.9518 3.68345 53.0369 2.80041 54.4062C1.91737 55.7755 1.44852 57.3707 1.4502 59V75.21H7.2202V59C7.2202 58.2839 7.50466 57.5972 8.01101 57.0908C8.51736 56.5845 9.20411 56.3 9.9202 56.3C10.6363 56.3 11.323 56.5845 11.8294 57.0908C12.3357 57.5972 12.6202 58.2839 12.6202 59V75.18H18.3802V59C18.3765 58.93 18.3765 58.8599 18.3802 58.79V58.65C18.4561 58.1092 18.6947 57.6042 19.0645 57.2023C19.4342 56.8004 19.9176 56.5206 20.4502 56.4V50.57H20.4902Z" fill="#FA930D"/>
</svg>
