<svg width="128" height="128" viewBox="0 0 128 128" fill="none" xmlns="http://www.w3.org/2000/svg">
<path d="M64 1.5C29.5 1.5 1.5 29.5 1.5 64C1.5 98.5 29.5 126.5 64 126.5C98.5 126.5 126.5 98.5 126.5 64C126.5 29.5 98.5 1.5 64 1.5ZM120 59.4L115 59.8L114.9 58.8L119.9 58.4L120 59.4ZM120 63V64H111V63H120ZM119.4 54.6L110.3 56.2L110.1 55.2L119.2 53.6L119.4 54.6ZM118.4 49.8L113.5 51.1L113.2 50.1L118.1 48.8L118.4 49.8ZM117 45.1L108.4 48.3L108.1 47.4L116.7 44.2L117 45.1ZM115.2 40.5L110.7 42.6L110.3 41.7L114.8 39.6L115.2 40.5ZM112.9 36.2L104.9 40.8L104.4 39.9L112.4 35.3L112.9 36.2ZM109.8 31.2L110.4 32L106.3 34.9L105.7 34.1L109.8 31.2ZM107.4 28.1L100.3 34L99.7 33.2L106.8 27.3L107.4 28.1ZM100.5 21.1L94.6 28.2L93.8 27.6L99.7 20.5L100.5 21.1ZM95.8 17.5L96.6 18.1L93.7 22.2L92.9 21.6L95.8 17.5ZM92.6 15.4L88 23.4L87.1 22.9L91.7 14.9L92.6 15.4ZM87.3 12.7L88.2 13.1L86.1 17.6L85.2 17.2L87.3 12.7ZM82.8 10.9L83.7 11.2L80.5 19.8L79.6 19.5L82.8 10.9ZM78.1 9.4L79.1 9.7L77.8 14.6L76.8 14.3L78.1 9.4ZM73.3 8.4L74.3 8.6L72.7 17.7L71.7 17.5L73.3 8.4ZM68.4 7.8L69.4 7.9L69 12.9L68 12.8L68.4 7.8ZM63 8H64V17H63V8ZM59.6 7.8L60 12.8L59 12.9L58.6 7.9L59.6 7.8ZM54.7 8.4L56.3 17.5L55.3 17.7L53.7 8.6L54.7 8.4ZM49.9 9.4L51.2 14.3L50.2 14.6L49 9.7L49.9 9.4ZM45.2 10.9L48.4 19.5L47.5 19.8L44.3 11.2L45.2 10.9ZM40.7 12.7L42.8 17.2L41.9 17.6L39.8 13.1L40.7 12.7ZM36.3 14.9L40.9 22.9L40 23.4L35.4 15.4L36.3 14.9ZM32.2 17.5L35.1 21.6L34.3 22.2L31.4 18.1L32.2 17.5ZM28.3 20.5L34.2 27.6L33.4 28.2L27.5 21.1L28.3 20.5ZM24.6 23.7L28.1 27.2L27.4 28L23.9 24.5L24.6 23.7ZM21.2 27.3L28.3 33.2L27.7 34L20.6 28.1L21.2 27.3ZM18.2 31.2L22.3 34.1L21.7 34.9L17.6 32L18.2 31.2ZM15.6 35.3L23.6 39.9L23 40.8L15 36.2L15.6 35.3ZM13.3 39.6L17.8 41.7L17.4 42.6L12.9 40.5L13.3 39.6ZM11.4 44.2L20 47.4L19.7 48.3L11 45.1L11.4 44.2ZM9.8 48.8L14.7 50.1L14.4 51.1L9.5 49.8L9.8 48.8ZM8.7 53.6L17.8 55.2L17.6 56.2L8.5 54.6L8.7 53.6ZM8 58.5L13 58.9L12.9 59.9L7.9 59.5L8 58.5ZM17 63V64H8V63H17ZM8 68.3L13 67.9L13.1 68.9L8.1 69.3L8 68.3ZM8.6 73.1L17.7 71.5L17.9 72.5L8.8 74.1L8.6 73.1ZM9.6 77.9L14.5 76.6L14.8 77.6L9.9 78.9L9.6 77.9ZM11 82.6L19.6 79.4L19.9 80.3L11.3 83.5L11 82.6ZM12.8 87.2L17.3 85.1L17.7 86L13.2 88.1L12.8 87.2ZM15.1 91.6L23.1 87L23.6 87.9L15.6 92.5L15.1 91.6ZM18.2 96.5L17.6 95.7L21.7 92.8L22.3 93.6L18.2 96.5ZM27.7 93.7L28.3 94.5L21.2 100.4L20.6 99.6L27.7 93.7ZM27.5 106.6L33.4 99.5L34.2 100.1L28.3 107.2L27.5 106.6ZM32.2 110.2L31.4 109.6L34.3 105.5L35.1 106.1L32.2 110.2ZM35.4 112.3L40 104.3L40.9 104.8L36.3 112.8L35.4 112.3ZM40.7 115L39.8 114.6L41.9 110.1L42.8 110.5L40.7 115ZM45.2 116.9L44.3 116.6L47.5 108L48.4 108.3L45.2 116.9ZM49.9 118.3L48.9 118L50.2 113.1L51.2 113.4L49.9 118.3ZM54.7 119.3L53.7 119.1L55.3 110L56.3 110.2L54.7 119.3ZM59.6 119.9L58.6 119.8L59 114.8L60 114.9L59.6 119.9ZM64 120H63V111H64V120ZM68.4 119.9L68 114.9L69 114.8L69.4 119.8L68.4 119.9ZM21 106.7L58.7 58.7L106.7 21L69.9 69.9L21 106.7ZM73.3 119.3L71.7 110.2L72.7 110L74.3 119.1L73.3 119.3ZM78.1 118.3L76.8 113.4L77.8 113.1L79 118L78.1 118.3ZM82.8 116.9L79.6 108.3L80.5 108L83.7 116.6L82.8 116.9ZM87.3 115L85.2 110.5L86.1 110.1L88.2 114.6L87.3 115ZM91.7 112.8L87.1 104.8L88 104.3L92.6 112.3L91.7 112.8ZM95.8 110.2L92.9 106.1L93.7 105.5L96.6 109.6L95.8 110.2ZM99.7 107.3L93.8 100.2L94.6 99.6L100.5 106.7L99.7 107.3ZM103.4 104L99.9 100.5L100.6 99.8L104.1 103.3L103.4 104ZM106.8 100.4L99.7 94.5L100.3 93.7L107.4 99.6L106.8 100.4ZM109.8 96.5L105.7 93.6L106.3 92.8L110.4 95.7L109.8 96.5ZM112.4 92.4L104.4 87.8L104.9 86.9L112.9 91.5L112.4 92.4ZM114.7 88.1L110.2 86L110.6 85.1L115.1 87.2L114.7 88.1ZM116.6 83.6L108 80.4L108.3 79.5L116.9 82.7L116.6 83.6ZM118.2 78.9L113.3 77.6L113.6 76.6L118.5 77.9L118.2 78.9ZM119.3 74.1L110.2 72.5L110.4 71.5L119.5 73.1L119.3 74.1ZM120 69.3L115 68.9L115.1 67.9L120.1 68.3L120 69.3Z" fill="#1B88CA"/>
</svg>
