<svg width="128" height="128" viewBox="0 0 128 128" fill="none" xmlns="http://www.w3.org/2000/svg">
<path d="M23.8069 119.812C25.1029 120.676 27.6589 121.36 29.9989 121.36C35.7229 121.36 38.4949 118.12 38.4949 114.376C38.4949 110.812 36.4069 108.832 32.3029 107.248C28.9549 105.952 27.4789 104.836 27.4789 102.568C27.4789 100.912 28.7389 98.932 32.0509 98.932C34.2469 98.932 35.8669 99.652 36.6589 100.084L37.5229 97.528C36.4429 96.916 34.6429 96.34 32.1589 96.34C27.4429 96.34 24.3109 99.148 24.3109 102.928C24.3109 106.348 26.7589 108.4 30.7189 109.804C33.9949 111.064 35.2909 112.36 35.2909 114.628C35.2909 117.076 33.4189 118.768 30.2149 118.768C28.0549 118.768 26.0029 118.048 24.5989 117.184L23.8069 119.812ZM55.3103 121C55.0943 119.812 55.0223 118.336 55.0223 116.824V110.308C55.0223 106.816 53.7263 103.18 48.3983 103.18C46.2023 103.18 44.1143 103.792 42.6743 104.728L43.3943 106.816C44.6183 106.024 46.3103 105.52 47.9303 105.52C51.4943 105.52 51.8903 108.112 51.8903 109.552V109.912C45.1583 109.876 41.4143 112.18 41.4143 116.392C41.4143 118.912 43.2143 121.396 46.7423 121.396C49.2263 121.396 51.0983 120.172 52.0703 118.804H52.1783L52.4303 121H55.3103ZM51.9623 115.132C51.9623 115.456 51.8903 115.816 51.7823 116.14C51.2783 117.616 49.8383 119.056 47.5703 119.056C45.9503 119.056 44.5823 118.084 44.5823 116.032C44.5823 112.648 48.5063 112.036 51.9623 112.108V115.132ZM63.6055 121V105.988H67.8175V103.576H63.6055V102.64C63.6055 99.976 64.2895 97.6 66.9895 97.6C67.8895 97.6 68.5375 97.78 69.0055 97.996L69.4375 95.548C68.8255 95.296 67.8535 95.044 66.7375 95.044C65.2615 95.044 63.6775 95.512 62.4895 96.664C61.0135 98.068 60.4735 100.3 60.4735 102.748V103.576H58.0255V105.988H60.4735V121H63.6055ZM83.1892 121C82.9732 119.812 82.9012 118.336 82.9012 116.824V110.308C82.9012 106.816 81.6052 103.18 76.2772 103.18C74.0812 103.18 71.9932 103.792 70.5532 104.728L71.2732 106.816C72.4972 106.024 74.1892 105.52 75.8092 105.52C79.3732 105.52 79.7692 108.112 79.7692 109.552V109.912C73.0372 109.876 69.2932 112.18 69.2932 116.392C69.2932 118.912 71.0932 121.396 74.6212 121.396C77.1052 121.396 78.9772 120.172 79.9492 118.804H80.0572L80.3092 121H83.1892ZM79.8412 115.132C79.8412 115.456 79.7692 115.816 79.6612 116.14C79.1572 117.616 77.7172 119.056 75.4492 119.056C73.8292 119.056 72.4612 118.084 72.4612 116.032C72.4612 112.648 76.3852 112.036 79.8412 112.108V115.132ZM88.0284 121H91.1604V111.712C91.1604 111.172 91.2324 110.668 91.3044 110.236C91.7364 107.86 93.3204 106.168 95.5524 106.168C95.9844 106.168 96.3084 106.204 96.6324 106.276V103.288C96.3444 103.216 96.0924 103.18 95.7324 103.18C93.6084 103.18 91.7004 104.656 90.9084 106.996H90.7644L90.6564 103.576H87.8844C87.9924 105.196 88.0284 106.96 88.0284 109.012V121ZM103.114 121V103.576H99.9464V121H103.114ZM101.53 96.7C100.378 96.7 99.5504 97.564 99.5504 98.68C99.5504 99.76 100.342 100.624 101.458 100.624C102.718 100.624 103.51 99.76 103.474 98.68C103.474 97.564 102.718 96.7 101.53 96.7Z" fill="#333333"/>
<path d="M64 95.5C89.9574 95.5 111 74.4574 111 48.5C111 22.5426 89.9574 1.5 64 1.5C38.0426 1.5 17 22.5426 17 48.5C17 74.4574 38.0426 95.5 64 95.5Z" fill="url(#paint0_linear_3_7288)"/>
<path d="M64.0002 6.09998V13M64.0002 83.7V90.6M71.3002 6.79998L70.1002 13.6M57.9002 83.2L56.7002 90M78.5002 8.69998L76.1002 15.2M51.9002 81.6L49.5002 88.1M56.7002 6.79998L57.9002 13.6M70.1002 83.2L71.3002 90M49.5002 8.69998L51.9002 15.2M76.1002 81.6L78.5002 88.1M42.9002 11.8L46.3002 17.8M81.7002 79L85.1002 85M36.8002 16L41.3002 21.3M86.7002 75.4L91.2002 80.8M31.6002 21.2L36.9002 25.7M91.1002 71.1L96.4002 75.5M27.4002 27.3L33.4002 30.7M94.6002 66.1L100.6 69.5M24.3002 33.9L30.8002 36.3M97.2002 60.5L103.7 62.8M22.4002 41L29.2002 42.2M98.8002 54.5L105.6 55.7M21.7002 48.4H28.7002M99.3002 48.4H106.3M22.4002 55.7L29.2002 54.5M98.8002 42.2L105.6 41M24.3002 62.8L30.8002 60.5M97.2002 36.3L103.7 33.9M27.4002 69.5L33.4002 66.1M94.6002 30.7L100.6 27.3M31.6002 75.5L36.9002 71.1M91.1002 25.7L96.4002 21.2M36.8002 80.8L41.3002 75.4M86.7002 21.3L91.2002 16M42.9002 85L46.3002 79M81.7002 17.8L85.1002 11.8M60.3002 6.29998L60.6002 9.99998M67.4002 86.7L67.7002 90.5M53.1002 7.59998L54.0002 11.2M74.0002 85.5L74.9002 89.2M46.1002 10.1L47.7002 13.5M80.3002 83.3L81.9002 86.7M39.8002 13.7L41.9002 16.9M86.1002 79.9L88.2002 83M34.1002 18.5L36.8002 21.2M91.2002 75.6L93.9002 78.3M29.4002 24.1L32.5002 26.3M95.5002 70.5L98.6002 72.6M25.7002 30.5L29.1002 32.1M98.9002 64.6L102.3 66.2M23.2002 37.4L26.8002 38.4M101.2 58.3L104.8 59.3M21.9002 44.7L25.7002 45M102.3 51.7L106.1 52.1M21.9002 52.1L25.7002 51.7M102.3 45L106.1 44.7M23.2002 59.3L26.8002 58.3M101.2 38.4L104.8 37.4M25.7002 66.2L29.1002 64.6M98.9002 32.1L102.3 30.5M29.4002 72.6L32.5002 70.5M95.5002 26.3L98.6002 24.1M39.8002 83L41.9002 79.9M86.1002 16.9L88.2002 13.7M46.1002 86.7L47.7002 83.3M80.3002 13.5L81.9002 10.1M53.1002 89.2L54.0002 85.5M74.0002 11.2L74.9002 7.59998M60.3002 90.5L60.6002 86.7M67.4002 9.99998L67.7002 6.29998" stroke="white"/>
<path d="M96.1 16.2L60 44.5L63.9 48.4L96.1 16.2Z" fill="#FF0000"/>
<path d="M63.8999 48.4L68.3999 52.9L96.0999 16.2L63.8999 48.4Z" fill="#D01414"/>
<path d="M60.0002 44.5L31.7002 80.6L63.9002 48.4L60.0002 44.5Z" fill="white"/>
<path d="M31.7002 80.6L68.4002 52.9L63.9002 48.4L31.7002 80.6Z" fill="#ACACAC"/>
<defs>
<linearGradient id="paint0_linear_3_7288" x1="64.02" y1="1.464" x2="64.02" y2="95.432" gradientUnits="userSpaceOnUse">
<stop stop-color="#19D7FF"/>
<stop offset="1" stop-color="#1E64F0"/>
</linearGradient>
</defs>
</svg>
