<svg width="128" height="128" viewBox="0 0 128 128" fill="none" xmlns="http://www.w3.org/2000/svg">
<path d="M32.7 112.2C29.4 110.9 27.9 109.8 27.9 107.5C27.9 105.8 29.2 103.9 32.5 103.9C34.7 103.9 36.3 104.6 37.1 105.1L38 102.5C36.9 101.9 35.1 101.3 32.6 101.3C27.9 101.3 24.8 104.1 24.8 107.9C24.8 111.3 27.2 113.4 31.2 114.8C34.5 116.1 35.8 117.4 35.8 119.6C35.8 122 33.9 123.7 30.7 123.7C28.5 123.7 26.5 123 25.1 122.1L24.3 124.7C25.6 125.6 28.2 126.2 30.5 126.2C36.2 126.2 39 123 39 119.2C38.9 115.8 36.8 113.8 32.7 112.2ZM55 115.3C55 111.8 53.9 108.2 48.6 108.2C46.4 108.2 44.4 108.8 43 109.7L43.8 111.8C45 111 46.6 110.5 48.2 110.5C51.8 110.5 52.1 113.1 52.1 114.5V114.9C46.1 114.9 41.8 117.2 41.8 121.4C41.8 123.9 43.7 126.5 47.2 126.5C49.7 126.5 51.6 125 52.6 124H52.7L53 126H55.9C55.7 124.8 55.2 123.3 55.2 121.8V115.3H55ZM52 120.1C52 120.4 52.1 120.8 52 121.1C51.5 122.6 50.1 124 47.9 124C46.3 124 44.8 123 44.8 121C44.8 117.6 49.1 117 52.1 117.1V120.1H52ZM67.4 102.6C68.3 102.6 68.9 102.8 69.4 103L69.8 100.6C69.2 100.3 68.2 100.1 67.1 100.1C65.6 100.1 64.1 100.6 62.9 101.7C61.4 103.1 61 105.3 61 107.8V109H58V111H61V126H64V111H68V109H64V107.6C64 105 64.7 102.6 67.4 102.6ZM83 115.3C83 111.8 81.8 108.2 76.5 108.2C74.3 108.2 72.3 108.8 70.8 109.7L71.6 111.8C72.8 111 74.5 110.5 76.1 110.5C79.7 110.5 80 113.1 80 114.5V114.9C73 114.9 69.6 117.2 69.6 121.4C69.6 123.9 71.4 126.5 75 126.5C77.5 126.5 79.4 125 80.4 124H80.5L80.8 126H83.7C83.5 124.8 83.2 123.3 83.2 121.8V115.3H83ZM80 120.1C80 120.4 80 120.8 79.9 121.1C79.4 122.6 78 124 75.7 124C74.1 124 72.6 123 72.6 121C72.6 117.6 76.9 117 79.9 117.1V120.1H80ZM91.3 112H91.2L91.1 109H88.3C88.4 110 88.1 112 88.1 114V126H92.1V116.7C92.1 116.2 91.9 115.7 92 115.2C92.4 112.8 93.9 111.1 96.1 111.1C96.5 111.1 97.1 111.1 97.1 111.2V108.2C97.1 108.1 96.5 108.1 96.2 108.1C94 108.2 92 110 91.3 112ZM101.9 101.7C100.7 101.7 99.9 102.6 99.9 103.7C99.9 104.8 100.7 105.6 101.8 105.6C103.1 105.6 103.9 104.7 103.8 103.7C103.8 102.6 103.1 101.7 101.9 101.7ZM100 109H103V126H100V109ZM64 1.5C38.1 1.5 17 22.5 17 48.5C17 74.5 38 95.5 64 95.5C90 95.5 111 74.5 111 48.5C111 22.5 89.9 1.5 64 1.5ZM106.1 45.1L102.3 45.4L102.2 44.7L106 44.4L106.1 45.1ZM106 48V49H99V48H106ZM105.7 41.4L98.9 42.6L98.8 41.9L105.6 40.7L105.7 41.4ZM104.9 37.8L101.3 38.8L101.1 38.1L104.7 37.1L104.9 37.8ZM103.8 34.3L97.3 36.7L97 36L103.5 33.6L103.8 34.3ZM102.5 30.8L99 32.4L98.7 31.7L102.1 30.1L102.5 30.8ZM100.8 27.6L94.8 31.1L94.4 30.4L100.4 26.9L100.8 27.6ZM98.4 23.8L98.8 24.4L95.7 26.6L95.3 26L98.4 23.8ZM96.6 21.5L91.3 25.9L90.8 25.3L96.1 20.9L96.6 21.5ZM91.4 16.2L87 21.5L86.4 21L90.8 15.7L91.4 16.2ZM87.9 13.5L88.5 13.9L86.3 17L85.7 16.6L87.9 13.5ZM85.5 12L82 18L81.3 17.6L84.8 11.6L85.5 12ZM81.5 9.9L82.2 10.2L80.6 13.6L79.9 13.3L81.5 9.9ZM78.1 8.5L78.8 8.8L76.4 15.3L75.7 15L78.1 8.5ZM74.6 7.5L75.3 7.7L74.3 11.3L73.6 11.1L74.6 7.5ZM71 6.7L71.7 6.8L70.5 13.6L69.8 13.5L71 6.7ZM67.3 6.2L68 6.3L67.7 10.1L67 10L67.3 6.2ZM63 7H64V13H63V7ZM60.7 6.2L61 10L60.3 10.1L60 6.3L60.7 6.2ZM57 6.7L58.2 13.5L57.5 13.6L56.3 6.8L57 6.7ZM53.4 7.5L54.4 11.1L53.7 11.3L52.7 7.7L53.4 7.5ZM49.9 8.5L52.3 15L51.6 15.3L49.2 8.8L49.9 8.5ZM46.5 9.9L48.1 13.3L47.4 13.6L45.8 10.2L46.5 9.9ZM43.2 11.6L46.7 17.6L46 18L42.5 12L43.2 11.6ZM40.1 13.5L42.3 16.6L41.7 17L39.4 14L40.1 13.5ZM37.1 15.8L41.5 21.1L41 21.5L36.6 16.2L37.1 15.8ZM34.4 18.2L37.1 20.9L36.6 21.4L33.9 18.7L34.4 18.2ZM31.9 20.9L37.2 25.3L36.7 25.9L31.4 21.5L31.9 20.9ZM29.6 23.8L32.7 26L32.3 26.6L29.2 24.4L29.6 23.8ZM27.6 26.9L33.6 30.4L33.2 31L27.2 27.5L27.6 26.9ZM25.9 30.2L29.3 31.8L29 32.4L25.6 30.8L25.9 30.2ZM24.4 33.6L30.9 36L30.6 36.7L24.1 34.3L24.4 33.6ZM23.3 37.1L26.9 38.1L26.7 38.8L23.1 37.8L23.3 37.1ZM22.5 40.7L29.3 41.9L29.2 42.6L22.4 41.4L22.5 40.7ZM21.9 44.3L25.7 44.6L25.6 45.3L21.8 45L21.9 44.3ZM28 48V49H22V48H28ZM21.9 51.7L25.7 51.4L25.8 52.1L22 52.4L21.9 51.7ZM22.3 55.3L29.1 54.1L29.2 54.8L22.4 56L22.3 55.3ZM23.1 59L26.7 58L26.9 58.7L23.3 59.7L23.1 59ZM24.2 62.5L30.7 60.1L31 60.8L24.5 63.2L24.2 62.5ZM25.5 65.9L28.9 64.3L29.2 65L25.8 66.6L25.5 65.9ZM27.2 69.2L33.2 65.7L33.6 66.4L27.6 69.9L27.2 69.2ZM29.6 72.9L29.2 72.3L32.3 70.1L32.7 70.7L29.6 72.9ZM36.7 70.8L37.2 71.4L31.9 75.8L31.4 75.2L36.7 70.8ZM36.6 80.5L41 75.2L41.6 75.7L37.1 81L36.6 80.5ZM40.1 83.2L39.5 82.8L41.7 79.7L42.3 80.1L40.1 83.2ZM42.5 84.8L46 78.8L46.7 79.2L43.2 85.2L42.5 84.8ZM46.5 86.8L45.8 86.5L47.4 83.1L48.1 83.4L46.5 86.8ZM49.9 88.2L49.2 87.9L51.6 81.4L52.3 81.7L49.9 88.2ZM53.4 89.3L52.7 89.1L53.7 85.5L54.4 85.7L53.4 89.3ZM57 90L56.3 89.9L57.5 83.1L58.2 83.2L57 90ZM60.7 90.5L60 90.4L60.3 86.6L61 86.7L60.7 90.5ZM64 91H63V84H64V91ZM67.3 90.5L67 86.7L67.7 86.6L68 90.4L67.3 90.5ZM31.7 80.6L60 44.5L96.1 16.2L68.4 52.9L31.7 80.6ZM71 90L69.8 83.2L70.5 83.1L71.7 89.9L71 90ZM74.6 89.3L73.6 85.7L74.3 85.5L75.3 89.1L74.6 89.3ZM78.1 88.2L75.7 81.7L76.4 81.4L78.8 87.9L78.1 88.2ZM81.5 86.8L79.9 83.4L80.6 83.1L82.2 86.5L81.5 86.8ZM84.8 85.2L81.3 79.2L82 78.8L85.5 84.8L84.8 85.2ZM87.9 83.2L85.7 80.1L86.3 79.7L88.5 82.8L87.9 83.2ZM90.9 81L86.5 75.7L87.1 75.2L91.5 80.5L90.9 81ZM93.6 78.5L91 75.9L91.5 75.4L94.2 78.1L93.6 78.5ZM96.1 75.8L90.8 71.4L91.3 70.8L96.6 75.2L96.1 75.8ZM98.4 72.9L95.3 70.7L95.7 70.1L98.8 72.3L98.4 72.9ZM100.4 69.8L94.4 66.3L94.8 65.6L100.8 69.1L100.4 69.8ZM102.1 66.6L98.7 65L99 64.3L102.4 65.9L102.1 66.6ZM103.6 63.2L97.1 60.8L97.4 60.1L103.9 62.5L103.6 63.2ZM104.7 59.7L101.1 58.7L101.3 58L104.9 59L104.7 59.7ZM105.5 56.1L98.7 54.9L98.8 54.2L105.6 55.4L105.5 56.1ZM106.1 52.4L102.3 52.1L102.4 51.4L106.2 51.7L106.1 52.4Z" fill="#1B88CA"/>
</svg>
