<svg width="128" height="128" viewBox="0 0 128 128" fill="none" xmlns="http://www.w3.org/2000/svg">
<path d="M32.7 112.6C29.4 111.3 27.9 110.2 27.9 107.9C27.9 106.2 29.2 104.3 32.5 104.3C34.7 104.3 36.3 105 37.1 105.5L38 102.9C36.9 102.3 35.1 101.7 32.6 101.7C27.9 101.7 24.8 104.5 24.8 108.3C24.8 111.7 27.2 113.8 31.2 115.2C34.5 116.5 35.8 117.8 35.8 120C35.8 122.4 33.9 124.1 30.7 124.1C28.5 124.1 26.5 123.4 25.1 122.5L24.3 125.1C25.6 126 28.2 126.6 30.5 126.6C36.2 126.6 39 123.4 39 119.6C38.9 116.1 36.8 114.2 32.7 112.6ZM55 115.6C55 112.1 53.9 108.5 48.6 108.5C46.4 108.5 44.4 109.1 43 110L43.8 112.1C45 111.3 46.6 110.8 48.2 110.8C51.8 110.8 52.1 113.4 52.1 114.8V115.2C46.1 115.2 41.8 117.5 41.8 121.7C41.8 124.2 43.7 126.6 47.2 126.6C49.7 126.6 51.6 125.9 52.6 123.9H52.7L53 125.9H55.9C55.7 124.9 55.2 123.6 55.2 122.1V115.6H55ZM52 120.5C52 120.8 52.1 121.2 52 121.5C51.5 123 50.1 124.4 47.9 124.4C46.3 124.4 44.8 123.4 44.8 121.4C44.8 118 49.1 117.4 52.1 117.5V120.5H52ZM67.4 102.9C68.3 102.9 68.9 103.1 69.4 103.3L69.8 100.9C69.2 100.6 68.2 100.4 67.1 100.4C65.6 100.4 64.1 100.9 62.9 102C61.4 103.4 61 105.6 61 108.1V109H58V111H61V126H64V111H68V109H64V108C64 105.3 64.7 102.9 67.4 102.9ZM83 115.6C83 112.1 81.8 108.5 76.5 108.5C74.3 108.5 72.3 109.1 70.8 110L71.6 112.1C72.8 111.3 74.5 110.8 76.1 110.8C79.7 110.8 80 113.4 80 114.8V115.2C73 115.2 69.6 117.5 69.6 121.7C69.6 124.2 71.4 126.6 75 126.6C77.5 126.6 79.4 125.9 80.4 123.9H80.5L80.8 125.9H83.7C83.5 124.9 83.2 123.6 83.2 122.1V115.6H83ZM80 120.5C80 120.8 80 121.2 79.9 121.5C79.4 123 78 124.4 75.7 124.4C74.1 124.4 72.6 123.4 72.6 121.4C72.6 118 76.9 117.4 79.9 117.5V120.5H80ZM91.3 112H91.2L91.1 109H88.3C88.4 111 88.1 112.3 88.1 114.3V126H92.1V117C92.1 116.5 91.9 116 92 115.5C92.4 113.1 93.9 111.4 96.1 111.4C96.5 111.4 97.1 111.4 97.1 111.5V108.5C97.1 108.4 96.5 108.2 96.2 108.2C94 108.4 92 110 91.3 112ZM100 109H103V126H100V109ZM101.9 102C100.7 102 99.9 102.9 99.9 104C99.9 105.1 100.7 105.9 101.8 105.9C103.1 105.9 103.9 105 103.8 104C103.8 102.9 103.1 102 101.9 102ZM64 2.30005C37.8 2.30005 16.5 23.6 16.5 49.8C16.5 76 37.8 97.3 64 97.3C90.2 97.3 111.5 76 111.5 49.8C111.5 23.6 90.2 2.30005 64 2.30005ZM64 95.7C38.7 95.7 18.1 75.1001 18.1 49.8C18.1 24.5 38.7 3.80005 64 3.80005C89.3 3.80005 109.9 24.4001 109.9 49.7001C109.9 75 89.3 95.7 64 95.7ZM64 7.00005H65V14H64V7.00005ZM64 85H65V91H64V85ZM70.898 8.27905L71.588 8.40005L70.396 15.196L69.706 15.075L70.898 8.27905ZM57.086 91.171L56.397 91.05L57.589 84.254L58.278 84.375L57.086 91.171ZM78.004 10.075L78.662 10.315L76.297 16.797L75.639 16.557L78.004 10.075ZM50.026 89.299L49.368 89.059L51.733 82.577L52.391 82.817L50.026 89.299ZM57.118 8.29905L58.31 15.095L57.621 15.216L56.429 8.42005L57.118 8.29905ZM70.928 91.092L69.736 84.295L70.426 84.174L71.618 90.971L70.928 91.092ZM49.977 10.126L52.34 16.609L51.682 16.849L49.319 10.366L49.977 10.126ZM78.064 89.323L75.701 82.84L76.359 82.6L78.722 89.083L78.064 89.323ZM43.336 13.144L46.8 19.112L46.195 19.463L42.731 13.495L43.336 13.144ZM84.655 86.24L81.207 80.263L81.813 79.913L85.261 85.89L84.655 86.24ZM37.278 17.31L41.71 22.5991L41.173 23.049L36.741 17.76L37.278 17.31ZM90.701 82.071L86.269 76.782L86.806 76.332L91.238 81.621L90.701 82.071ZM32.062 22.3841L37.351 26.816L36.901 27.3531L31.612 22.921L32.062 22.3841ZM95.957 77.005L90.668 72.574L91.118 72.037L96.407 76.468L95.957 77.005ZM27.864 28.358L33.841 31.806L33.491 32.412L27.514 28.9641L27.864 28.358ZM100.157 71.031L94.18 67.583L94.53 66.977L100.507 70.425L100.157 71.031ZM24.646 34.939L31.129 37.302L30.889 37.96L24.406 35.597L24.646 34.939ZM103.345 64.418L96.862 62.055L97.102 61.397L103.585 63.76L103.345 64.418ZM22.721 42.016L29.517 43.208L29.396 43.898L22.6 42.7061L22.721 42.016ZM105.334 57.392L98.537 56.2001L98.658 55.51L105.455 56.702L105.334 57.392ZM22 49H29V50H22V49ZM99 49H106V50H99V49ZM22.581 56.599L29.377 55.4071L29.498 56.097L22.702 57.2891L22.581 56.599ZM105.475 42.766L98.678 43.958L98.557 43.2681L105.354 42.076L105.475 42.766ZM24.379 63.7061L30.862 61.343L31.102 62.001L24.619 64.364L24.379 63.7061ZM103.611 35.7121L97.128 38.0751L96.888 37.417L103.371 35.0541L103.611 35.7121ZM27.459 70.349L33.436 66.901L33.786 67.507L27.809 70.955L27.459 70.349ZM100.559 29.0721L94.582 32.5201L94.232 31.914L100.209 28.466L100.559 29.0721ZM36.896 71.981L37.346 72.517L32.058 76.949L31.608 76.413L36.896 71.981ZM96.461 22.99L91.172 27.4221L90.722 26.885L96.011 22.453L96.461 22.99ZM36.753 81.639L41.185 76.35L41.722 76.8L37.29 82.089L36.753 81.639ZM91.225 17.753L86.793 23.042L86.256 22.592L90.688 17.303L91.225 17.753ZM42.659 85.848L46.123 79.88L46.728 80.231L43.264 86.199L42.659 85.848ZM85.335 13.543L81.887 19.5201L81.281 19.17L84.729 13.193L85.335 13.543ZM60.738 7.78305L61.067 11.468L60.37 11.53L60.041 7.84505L60.738 7.78305ZM67.295 91.607L66.966 87.922L67.663 87.86L67.992 91.545L67.295 91.607ZM53.429 9.00505L54.42 12.674L53.744 12.857L52.753 9.18805L53.429 9.00505ZM74.544 90.376L73.553 86.707L74.229 86.524L75.22 90.193L74.544 90.376ZM46.636 11.485L48.242 14.929L47.608 15.225L46.002 11.781L46.636 11.485ZM81.43 87.912L79.807 84.476L80.44 84.177L82.063 87.613L81.43 87.912ZM40.237 15.043L42.407 18.162L41.832 18.562L39.662 15.443L40.237 15.043ZM87.766 84.287L85.595 81.168L86.17 80.768L88.341 83.887L87.766 84.287ZM34.546 19.67L37.163 22.286L36.668 22.781L34.051 20.1651L34.546 19.67ZM93.454 79.681L90.837 77.065L91.332 76.57L93.949 79.186L93.454 79.681ZM29.751 25.272L32.87 27.4431L32.47 28.018L29.351 25.847L29.751 25.272ZM98.189 74.147L95.07 71.976L95.47 71.401L98.589 73.572L98.189 74.147ZM26.059 31.5271L29.413 33.09L29.117 33.724L25.763 32.161L26.059 31.5271ZM101.919 67.773L98.483 66.1501L98.782 65.517L102.218 67.14L101.919 67.773ZM23.568 38.434L27.237 39.425L27.055 40.1011L23.386 39.1101L23.568 38.434ZM104.46 60.947L100.791 59.9561L100.974 59.28L104.643 60.271L104.46 60.947ZM22.142 45.6291L25.827 45.958L25.765 46.655L22.08 46.326L22.142 45.6291ZM105.825 53.76L102.14 53.431L102.202 52.7341L105.887 53.063L105.825 53.76ZM22.072 52.9711L25.757 52.642L25.819 53.3391L22.134 53.668L22.072 52.9711ZM105.895 46.413L102.21 46.7421L102.148 46.045L105.833 45.716L105.895 46.413ZM23.363 60.1921L27.032 59.201L27.215 59.877L23.546 60.868L23.363 60.1921ZM104.666 39.2001L100.997 40.1911L100.815 39.515L104.484 38.524L104.666 39.2001ZM25.725 67.147L29.078 65.583L29.374 66.2171L26.021 67.781L25.725 67.147ZM102.248 32.307L98.894 33.87L98.598 33.236L101.952 31.673L102.248 32.307ZM29.302 73.47L32.421 71.299L32.821 71.874L29.702 74.045L29.302 73.47ZM98.634 25.8811L95.515 28.052L95.115 27.477L98.234 25.306L98.634 25.8811ZM40.2 84.332L39.626 83.932L41.797 80.814L42.371 81.214L40.2 84.332ZM87.773 15.003L88.346 15.406L86.161 18.515L85.588 18.112L87.773 15.003ZM46.545 87.898L45.912 87.599L47.534 84.162L48.167 84.461L46.545 87.898ZM81.45 11.427L82.083 11.726L80.461 15.162L79.828 14.863L81.45 11.427ZM53.518 90.354L52.842 90.172L53.833 86.503L54.509 86.685L53.518 90.354ZM74.494 9.06205L75.17 9.24405L74.18 12.913L73.504 12.731L74.494 9.06205ZM60.728 91.583L60.031 91.521L60.36 87.836L61.057 87.898L60.728 91.583ZM67.268 7.77105L67.965 7.83305L67.636 11.518L66.939 11.456L67.268 7.77105ZM60 45.8L31.9 81.7L68.4 54.2001L95.9 17.7L60 45.8Z" fill="#1B88CA"/>
</svg>
