<svg width="128" height="128" viewBox="0 0 128 128" fill="none" xmlns="http://www.w3.org/2000/svg">
<path d="M64 126.5C98.5178 126.5 126.5 98.5178 126.5 64C126.5 29.4822 98.5178 1.5 64 1.5C29.4822 1.5 1.5 29.4822 1.5 64C1.5 98.5178 29.4822 126.5 64 126.5Z" fill="url(#paint0_linear_3_7298)"/>
<path d="M63.9998 7.59998V16.8M63.9998 110.9V120.1M73.7998 8.49998L72.1998 17.6M55.7998 110.1L54.1998 119.2M83.1998 11L80.0998 19.7M47.8998 108L44.7998 116.7M54.1998 8.49998L55.7998 17.6M72.1998 110.1L73.7998 119.2M44.7998 11L47.8998 19.7M80.0998 108L83.1998 116.7M35.8998 15.2L40.4998 23.2M87.4998 104.6L92.0998 112.5M27.8998 20.8L33.7998 27.8M94.1998 99.9L100.1 106.9M20.8998 27.7L27.9998 33.6M99.9998 94.1L107.1 100M15.2998 35.8L23.2998 40.4M104.7 87.4L112.7 92M11.1998 44.6L19.7998 47.8M108.2 79.9L116.8 83.1M8.5998 54.1L17.6998 55.7M110.3 72L119.4 73.6M7.7998 63.9H16.9998M111 63.9H120.2M8.5998 73.6L17.6998 72M110.3 55.7L119.4 54.1M11.1998 83.1L19.7998 79.9M108.2 47.8L116.8 44.6M15.2998 92L23.2998 87.4M104.7 40.4L112.7 35.8M20.8998 100L27.9998 94.1M99.9998 33.6L107.1 27.7M27.8998 106.9L33.7998 99.9M94.1998 27.8L100.1 20.8M35.8998 112.5L40.4998 104.6M87.4998 23.2L92.0998 15.2M59.0998 7.89998L59.4998 12.9M68.4998 114.9L68.8998 119.9M49.3998 9.59998L50.6998 14.4M77.2998 113.3L78.5998 118.2M40.1998 12.9L42.2998 17.5M85.5998 110.3L87.7998 114.8M31.6998 17.8L34.5998 21.9M93.3998 105.8L96.2998 109.9M24.1998 24.1L27.7998 27.6M100.2 100.1L103.8 103.6M17.8998 31.6L22.0998 34.5M105.9 93.2L110.1 96.1M13.0998 40.1L17.5998 42.2M110.4 85.5L114.9 87.6M9.6998 49.3L14.5998 50.6M113.4 77.1L118.3 78.4M7.9998 58.9L12.9998 59.4M115 68.3L120 68.8M7.9998 68.8L12.9998 68.3M115 59.4L120 58.9M9.6998 78.4L14.5998 77.1M113.4 50.6L118.3 49.3M13.0998 87.6L17.5998 85.5M110.4 42.2L114.9 40.1M17.8998 96.1L22.0998 93.2M105.9 34.5L110.1 31.6M31.6998 109.9L34.5998 105.8M93.3998 21.9L96.2998 17.8M40.1998 114.8L42.3998 110.3M85.5998 17.5L87.7998 12.9M49.3998 118.2L50.6998 113.3M77.2998 14.4L78.5998 9.59998M59.0998 119.9L59.4998 114.9M68.4998 12.9L68.8998 7.89998" stroke="white"/>
<path d="M106.7 21L58.7002 58.7L63.9002 63.9L106.7 21Z" fill="#FF0000"/>
<path d="M63.8999 63.9L69.8999 69.9L106.7 21L63.8999 63.9Z" fill="#D01414"/>
<path d="M58.7 58.7L21 106.7L63.9 63.9L58.7 58.7Z" fill="white"/>
<path d="M21 106.7L69.9 69.9L63.9 63.9L21 106.7Z" fill="#ACACAC"/>
<defs>
<linearGradient id="paint0_linear_3_7298" x1="64.02" y1="1.512" x2="64.02" y2="126.504" gradientUnits="userSpaceOnUse">
<stop stop-color="#19D7FF"/>
<stop offset="1" stop-color="#1E64F0"/>
</linearGradient>
</defs>
</svg>
