<svg width="128" height="128" viewBox="0 0 128 128" fill="none" xmlns="http://www.w3.org/2000/svg">
<path d="M63.9998 1.30005C29.3998 1.30005 1.2998 29.4001 1.2998 64C1.2998 98.6001 29.3998 126.7 63.9998 126.7C98.5998 126.7 126.7 98.6001 126.7 64C126.7 29.4001 98.5998 1.30005 63.9998 1.30005ZM63.9998 124.7C30.4998 124.7 3.2998 97.5 3.2998 64C3.2998 30.5 30.4998 3.30005 63.9998 3.30005C97.4998 3.30005 124.7 30.5 124.7 64C124.7 97.5 97.4998 124.7 63.9998 124.7ZM63.9998 8.00005H64.9998V17H63.9998V8.00005ZM63.9998 110H64.9998V119H63.9998V110ZM73.1898 9.19305L74.1748 9.36605L72.6028 18.3291L71.6178 18.156L73.1898 9.19305ZM54.8058 118.522L53.8208 118.349L55.3928 109.386L56.3778 109.559L54.8058 118.522ZM82.4768 11.6L83.4158 11.943L80.2968 20.4921L79.3578 20.149L82.4768 11.6ZM45.5058 116.113L44.5668 115.77L47.6858 107.221L48.6248 107.564L45.5058 116.113ZM54.8698 9.14805L56.4418 18.112L55.4568 18.285L53.8848 9.32105L54.8698 9.14805ZM73.1428 118.58L71.5708 109.617L72.5558 109.444L74.1278 118.407L73.1428 118.58ZM45.5028 11.528L48.6198 20.077L47.6798 20.42L44.5628 11.871L45.5028 11.528ZM82.4718 116.121L79.3548 107.572L80.2948 107.229L83.4118 115.778L82.4718 116.121ZM36.6558 15.608L41.2238 23.479L40.3588 23.9811L35.7908 16.11L36.6558 15.608ZM91.3688 112.166L86.8218 104.284L87.6878 103.784L92.2348 111.666L91.3688 112.166ZM28.7478 20.994L34.5928 27.969L33.8268 28.611L27.9818 21.636L28.7478 20.994ZM99.2698 106.667L93.4248 99.692L94.1908 99.05L100.036 106.025L99.2698 106.667ZM21.8078 27.786L28.7828 33.6311L28.1408 34.397L21.1658 28.552L21.8078 27.786ZM106.17 99.884L99.1948 94.04L99.8368 93.274L106.812 99.118L106.17 99.884ZM16.2588 35.7211L24.1408 40.2681L23.6408 41.134L15.7588 36.5871L16.2588 35.7211ZM111.733 92.059L103.851 87.512L104.351 86.646L112.233 91.193L111.733 92.059ZM12.0278 44.467L20.5768 47.584L20.2338 48.524L11.6848 45.4071L12.0278 44.467ZM115.961 83.278L107.412 80.161L107.755 79.221L116.304 82.338L115.961 83.278ZM9.4588 53.722L18.4218 55.294L18.2488 56.279L9.2858 54.7071L9.4588 53.722ZM118.526 74.006L109.563 72.434L109.736 71.449L118.699 73.021L118.526 74.006ZM8.9998 63H17.9998V64H8.9998V63ZM111 63H120V64H111V63ZM9.2768 72.997L18.2398 71.425L18.4128 72.41L9.4498 73.982L9.2768 72.997ZM118.709 54.724L109.746 56.2961L109.573 55.3111L118.536 53.739L118.709 54.724ZM11.7138 82.386L20.2628 79.269L20.6058 80.209L12.0568 83.326L11.7138 82.386ZM116.274 45.32L107.725 48.437L107.382 47.4971L115.931 44.3801L116.274 45.32ZM15.7318 91.119L23.6138 86.572L24.1138 87.438L16.2318 91.985L15.7318 91.119ZM112.257 36.599L104.375 41.146L103.875 40.28L111.757 35.7331L112.257 36.599ZM28.1178 93.347L28.7598 94.113L21.7858 99.959L21.1438 99.193L28.1178 93.347ZM106.827 28.632L99.8518 34.4771L99.2098 33.711L106.185 27.866L106.827 28.632ZM27.9638 106.078L33.8088 99.103L34.5748 99.745L28.7298 106.72L27.9638 106.078ZM100.054 21.712L94.2088 28.687L93.4428 28.045L99.2878 21.07L100.054 21.712ZM35.8588 111.653L40.4268 103.782L41.2918 104.284L36.7238 112.155L35.8588 111.653ZM92.1668 16.026L87.6198 23.9081L86.7538 23.4081L91.3008 15.526L92.1668 16.026ZM59.6268 8.56505L60.0628 13.445L59.0668 13.534L58.6308 8.65405L59.6268 8.56505ZM68.3878 119.108L67.9518 114.228L68.9478 114.139L69.3838 119.019L68.3878 119.108ZM50.0988 10.168L51.4028 14.995L50.4378 15.256L49.1338 10.429L50.0988 10.168ZM77.8598 117.615L76.5558 112.788L77.5208 112.527L78.8248 117.354L77.8598 117.615ZM41.0258 13.352L43.1388 17.8841L42.2328 18.307L40.1198 13.775L41.0258 13.352ZM87.0248 114.356L84.8898 109.835L85.7938 109.408L87.9288 113.929L87.0248 114.356ZM32.5348 18.146L35.3908 22.25L34.5698 22.821L31.7138 18.717L32.5348 18.146ZM95.4448 109.599L92.5878 105.495L93.4088 104.924L96.2658 109.028L95.4448 109.599ZM25.0768 24.262L28.5418 27.727L27.8348 28.434L24.3698 24.969L25.0768 24.262ZM102.922 103.405L99.4568 99.94L100.164 99.233L103.629 102.698L102.922 103.405ZM18.8048 31.664L22.9088 34.521L22.3378 35.342L18.2338 32.4851L18.8048 31.664ZM109.214 96.091L105.11 93.235L105.681 92.414L109.785 95.27L109.214 96.091ZM13.9248 39.9991L18.4568 42.111L18.0348 43.017L13.5028 40.905L13.9248 39.9991ZM114.108 87.754L109.587 85.619L110.014 84.715L114.535 86.85L114.108 87.754ZM10.5278 48.96L15.3548 50.2631L15.0938 51.2281L10.2668 49.925L10.5278 48.96ZM117.444 78.699L112.617 77.395L112.878 76.43L117.705 77.734L117.444 78.699ZM8.7568 58.4771L13.6368 58.913L13.5478 59.909L8.6678 59.473L8.7568 58.4771ZM119.227 69.196L114.347 68.76L114.436 67.764L119.316 68.2L119.227 69.196ZM8.6658 68.223L13.5458 67.787L13.6348 68.783L8.7548 69.219L8.6658 68.223ZM119.318 59.5531L114.438 59.989L114.349 58.993L119.229 58.557L119.318 59.5531ZM10.2618 77.775L15.0888 76.471L15.3498 77.436L10.5228 78.74L10.2618 77.775ZM117.713 50.014L112.886 51.3171L112.625 50.3521L117.452 49.049L117.713 50.014ZM13.5318 86.888L18.0638 84.775L18.4868 85.681L13.9548 87.794L13.5318 86.888ZM114.411 40.835L109.879 42.947L109.457 42.041L113.989 39.9291L114.411 40.835ZM18.2788 95.301L22.3828 92.445L22.9538 93.266L18.8498 96.122L18.2788 95.301ZM109.734 32.398L105.63 35.2551L105.059 34.434L109.163 31.577L109.734 32.398ZM32.5858 109.592L31.7648 109.02L34.6218 104.917L35.4428 105.489L32.5858 109.592ZM95.3938 18.159L96.2118 18.734L93.3368 22.8251L92.5188 22.25L95.3938 18.159ZM40.9988 114.358L40.0948 113.931L42.2288 109.41L43.1328 109.837L40.9988 114.358ZM86.9908 13.424L87.8948 13.851L85.7608 18.373L84.8568 17.946L86.9908 13.424ZM50.0978 117.526L49.1328 117.265L50.4358 112.438L51.4008 112.699L50.0978 117.526ZM77.8628 10.146L78.8278 10.407L77.5248 15.234L76.5598 14.973L77.8628 10.146ZM59.6328 119.139L58.6368 119.05L59.0728 114.17L60.0688 114.259L59.6328 119.139ZM68.3188 8.56305L69.3148 8.65205L68.8798 13.532L67.8838 13.443L68.3188 8.56305ZM58.7998 58.8L21.5998 106.1L69.7998 69.8L106.1 21.6L58.7998 58.8Z" fill="#1B88CA"/>
</svg>
