<svg width="128" height="128" viewBox="0 0 128 128" fill="none" xmlns="http://www.w3.org/2000/svg">
<path d="M53.0102 31.44C56.9902 27.3 62.5202 24.73 68.6502 24.73C76.7902 24.73 83.8902 29.27 87.6702 36.01C91.0519 34.497 94.7154 33.7165 98.4202 33.72C113.1 33.72 125 45.73 125 60.53C125 75.34 113.1 87.35 98.4202 87.35C96.6302 87.35 94.8802 87.17 93.1802 86.83C89.8502 92.7701 83.5002 96.78 76.2202 96.78C73.1702 96.78 70.2902 96.08 67.7202 94.82C64.3402 102.76 56.4802 108.33 47.3102 108.33C37.7602 108.33 29.6302 102.29 26.5102 93.82C25.1502 94.11 23.7302 94.26 22.2802 94.26C10.9102 94.26 1.7002 84.9501 1.7002 73.4701C1.7002 65.7701 5.8402 59.05 11.9902 55.46C10.6848 52.4598 10.0141 49.222 10.0202 45.9501C10.0202 32.7401 20.7402 22.03 33.9702 22.03C41.7302 22.02 48.6402 25.72 53.0102 31.44Z" fill="#00A1E0"/>
<path d="M19.56 66.78C19.48 66.98 19.59 67.02 19.61 67.06C19.84 67.23 20.08 67.35 20.31 67.49C21.57 68.16 22.75 68.35 24 68.35C26.53 68.35 28.1 67 28.1 64.84V64.8C28.1 62.8 26.33 62.07 24.66 61.55L24.44 61.48C23.19 61.07 22.1 60.72 22.1 59.9V59.86C22.1 59.15 22.73 58.63 23.71 58.63C24.8 58.63 26.09 58.99 26.92 59.45C26.92 59.45 27.16 59.61 27.25 59.37C27.3 59.24 27.72 58.11 27.76 57.99C27.81 57.86 27.72 57.76 27.64 57.71C26.69 57.13 25.38 56.74 24.02 56.74H23.77C21.46 56.74 19.84 58.14 19.84 60.14V60.18C19.84 62.29 21.62 62.98 23.29 63.46L23.56 63.54C24.78 63.91 25.83 64.24 25.83 65.09V65.13C25.83 65.91 25.15 66.5 24.05 66.5C23.62 66.5 22.26 66.49 20.79 65.56C20.61 65.46 20.51 65.38 20.37 65.3C20.3 65.25 20.12 65.18 20.04 65.41L19.56 66.78ZM56.59 66.78C56.51 66.98 56.62 67.02 56.64 67.06C56.87 67.23 57.11 67.35 57.34 67.49C58.6 68.16 59.78 68.35 61.03 68.35C63.56 68.35 65.13 67 65.13 64.84V64.8C65.13 62.8 63.36 62.07 61.69 61.55L61.47 61.48C60.22 61.07 59.13 60.72 59.13 59.9V59.86C59.13 59.15 59.76 58.63 60.74 58.63C61.83 58.63 63.12 58.99 63.95 59.45C63.95 59.45 64.19 59.61 64.28 59.37C64.33 59.24 64.75 58.11 64.79 57.99C64.84 57.86 64.75 57.76 64.67 57.71C63.72 57.13 62.41 56.74 61.05 56.74H60.8C58.49 56.74 56.87 58.14 56.87 60.14V60.18C56.87 62.29 58.65 62.98 60.32 63.46L60.59 63.54C61.81 63.91 62.86 64.24 62.86 65.09V65.13C62.86 65.91 62.18 66.5 61.08 66.5C60.65 66.5 59.29 66.49 57.82 65.56C57.64 65.46 57.54 65.38 57.4 65.3C57.35 65.27 57.14 65.19 57.07 65.41L56.59 66.78ZM81.86 62.54C81.86 63.76 81.63 64.73 81.18 65.41C80.74 66.08 80.06 66.41 79.13 66.41C78.19 66.41 77.52 66.08 77.08 65.41C76.64 64.73 76.41 63.76 76.41 62.54C76.41 61.32 76.63 60.36 77.08 59.68C77.52 59.01 78.19 58.69 79.13 58.69C80.07 58.69 80.74 59.01 81.19 59.68C81.63 60.35 81.86 61.31 81.86 62.54ZM83.97 60.27C83.76 59.57 83.44 58.95 83.01 58.44C82.5703 57.9125 82.0163 57.4919 81.39 57.21C80.75 56.91 79.98 56.76 79.13 56.76C78.27 56.76 77.51 56.91 76.87 57.21C76.22 57.51 75.68 57.93 75.25 58.44C74.82 58.96 74.5 59.57 74.29 60.27C74.08 60.97 73.98 61.73 73.98 62.54C73.98 63.35 74.08 64.11 74.29 64.81C74.5 65.51 74.82 66.13 75.25 66.64C75.68 67.16 76.23 67.57 76.87 67.86C77.52 68.15 78.28 68.3 79.13 68.3C79.99 68.3 80.75 68.15 81.39 67.86C82.03 67.57 82.58 67.15 83.01 66.64C83.44 66.13 83.76 65.51 83.97 64.81C84.18 64.11 84.28 63.35 84.28 62.54C84.28 61.73 84.18 60.96 83.97 60.27ZM101.31 66.08C101.24 65.87 101.04 65.95 101.04 65.95C100.73 66.07 100.41 66.18 100.06 66.23C99.71 66.28 99.32 66.31 98.9 66.31C97.88 66.31 97.07 66.01 96.48 65.41C95.9 64.81 95.57 63.84 95.57 62.52C95.57 61.32 95.86 60.42 96.38 59.74C96.89 59.06 97.68 58.71 98.72 58.71C99.59 58.71 100.26 58.81 100.95 59.03C100.95 59.03 101.12 59.1 101.2 58.88C101.38 58.37 101.52 58 101.72 57.44C101.78 57.28 101.64 57.21 101.59 57.19C101.32 57.08 100.67 56.91 100.18 56.84C99.72 56.77 99.19 56.73 98.6 56.73C97.71 56.73 96.92 56.88 96.25 57.18C95.58 57.48 95 57.89 94.55 58.41C94.0881 58.9452 93.7379 59.5674 93.52 60.24C93.29 60.94 93.18 61.7 93.18 62.51C93.18 64.26 93.65 65.68 94.59 66.71C95.52 67.75 96.93 68.28 98.76 68.28C99.84 68.28 100.95 68.06 101.75 67.75C101.75 67.75 101.9 67.68 101.84 67.5L101.31 66.08ZM105.01 61.36C105.11 60.68 105.3 60.11 105.59 59.67C106.03 59 106.69 58.63 107.63 58.63C108.57 58.63 109.19 59 109.63 59.67C109.93 60.11 110.05 60.7 110.1 61.36H105.01ZM112.11 59.87C111.93 59.19 111.49 58.51 111.19 58.2C110.73 57.7 110.28 57.36 109.83 57.17C109.182 56.8959 108.484 56.7565 107.78 56.76C106.89 56.76 106.08 56.91 105.42 57.22C104.76 57.53 104.21 57.95 103.77 58.48C103.34 59 103.01 59.63 102.8 60.33C102.59 61.03 102.49 61.8 102.49 62.61C102.49 63.43 102.6 64.2 102.81 64.89C103.03 65.59 103.38 66.2 103.85 66.71C104.32 67.22 104.92 67.62 105.65 67.9C106.37 68.18 107.24 68.32 108.24 68.32C110.3 68.31 111.39 67.85 111.84 67.61C111.92 67.57 111.99 67.49 111.9 67.27L111.43 65.96C111.36 65.77 111.16 65.84 111.16 65.84C110.65 66.03 109.92 66.37 108.23 66.37C107.12 66.37 106.3 66.04 105.79 65.53C105.26 65.01 105 64.24 104.96 63.15L112.11 63.16C112.11 63.16 112.3 63.16 112.32 62.97C112.33 62.87 112.57 61.48 112.11 59.87ZM47.77 61.36C47.87 60.68 48.06 60.11 48.35 59.67C48.79 59 49.45 58.63 50.39 58.63C51.33 58.63 51.95 59 52.39 59.67C52.68 60.11 52.81 60.7 52.86 61.36H47.77ZM54.88 59.87C54.7 59.19 54.26 58.51 53.97 58.2C53.51 57.7 53.06 57.36 52.61 57.17C51.9615 56.8959 51.2641 56.7565 50.56 56.76C49.67 56.76 48.86 56.91 48.2 57.22C47.54 57.53 46.99 57.95 46.55 58.48C46.12 59 45.79 59.63 45.58 60.33C45.37 61.03 45.27 61.8 45.27 62.61C45.27 63.43 45.38 64.2 45.59 64.89C45.81 65.59 46.16 66.2 46.63 66.71C47.1 67.22 47.7 67.62 48.43 67.9C49.15 68.18 50.02 68.32 51.02 68.32C53.08 68.31 54.17 67.85 54.62 67.61C54.7 67.57 54.77 67.49 54.68 67.27L54.21 65.96C54.14 65.77 53.94 65.84 53.94 65.84C53.43 66.03 52.7 66.37 51.01 66.37C49.9 66.37 49.08 66.04 48.57 65.53C48.04 65.01 47.78 64.24 47.74 63.15L54.89 63.16C54.89 63.16 55.08 63.16 55.1 62.97C55.1 62.87 55.34 61.48 54.88 59.87ZM32.32 66.04C32.04 65.82 32 65.76 31.91 65.62C31.77 65.4 31.7 65.09 31.7 64.69C31.7 64.06 31.91 63.61 32.34 63.31C32.33 63.31 32.95 62.77 34.41 62.79C35.43 62.8 36.35 62.96 36.35 62.96V66.21C36.35 66.21 35.44 66.4 34.42 66.47C32.96 66.55 32.32 66.04 32.32 66.04ZM35.17 61.02C34.88 61 34.5 60.99 34.05 60.99C33.44 60.99 32.85 61.07 32.29 61.22C31.73 61.37 31.23 61.6 30.8 61.91C30.37 62.22 30.02 62.62 29.76 63.09C29.51 63.56 29.38 64.12 29.38 64.74C29.38 65.37 29.49 65.92 29.71 66.37C29.93 66.82 30.24 67.2 30.64 67.49C31.04 67.78 31.53 67.99 32.1 68.12C32.66 68.25 33.3 68.31 33.99 68.31C34.72 68.31 35.45 68.25 36.16 68.13C36.86 68.01 37.72 67.84 37.96 67.78C38.2 67.72 38.46 67.65 38.46 67.65C38.64 67.61 38.62 67.42 38.62 67.42V60.88C38.62 59.45 38.24 58.38 37.48 57.73C36.73 57.07 35.63 56.74 34.2 56.74C33.66 56.74 32.8 56.81 32.29 56.92C32.29 56.92 30.73 57.22 30.09 57.72C30.09 57.72 29.95 57.81 30.03 58L30.54 59.36C30.6 59.54 30.77 59.48 30.77 59.48C30.77 59.48 30.82 59.46 30.89 59.42C32.27 58.67 34 58.69 34 58.69C34.77 58.69 35.37 58.84 35.77 59.15C36.16 59.45 36.36 59.9 36.36 60.85V61.15C35.73 61.07 35.17 61.02 35.17 61.02ZM92.81 57.34C92.8296 57.2909 92.8289 57.2361 92.8084 57.1874C92.7878 57.1388 92.7489 57.1002 92.7 57.08C92.58 57.03 91.97 56.9 91.5 56.87C90.6 56.82 90.1 56.97 89.66 57.17C89.22 57.37 88.73 57.69 88.45 58.06V57.19C88.45 57.07 88.36 56.97 88.24 56.97H86.41C86.29 56.97 86.2 57.07 86.2 57.19V67.85C86.2 67.97 86.3 68.07 86.42 68.07H88.3C88.42 68.07 88.52 67.97 88.52 67.85V62.52C88.52 61.81 88.6 61.09 88.76 60.64C88.91 60.2 89.13 59.84 89.39 59.59C89.65 59.34 89.95 59.16 90.27 59.06C90.6 58.96 90.97 58.92 91.23 58.92C91.6 58.92 92.02 59.02 92.02 59.02C92.16 59.04 92.23 58.95 92.28 58.83C92.39 58.51 92.74 57.53 92.81 57.34Z" fill="white"/>
<path d="M75.1802 52.4C74.9502 52.33 74.7402 52.28 74.4702 52.23C74.2002 52.18 73.8702 52.16 73.5002 52.16C72.2102 52.16 71.1902 52.53 70.4702 53.25C69.7602 53.97 69.2802 55.06 69.0302 56.49L68.9402 56.97H67.3202C67.3202 56.97 67.1202 56.96 67.0802 57.18L66.8102 58.67C66.7902 58.81 66.8502 58.9 67.0402 58.9H68.6202L67.0202 67.84C66.9002 68.56 66.7502 69.15 66.5902 69.6C66.4302 70.04 66.2802 70.37 66.0902 70.62C65.9102 70.85 65.7402 71.02 65.4402 71.12C65.1902 71.2 64.9102 71.24 64.6002 71.24C64.4302 71.24 64.2002 71.21 64.0302 71.18C63.8602 71.15 63.7702 71.11 63.6402 71.06C63.6402 71.06 63.4602 70.99 63.3802 71.17C63.3202 71.32 62.9002 72.48 62.8502 72.62C62.8002 72.76 62.8702 72.87 62.9602 72.91C63.1702 72.98 63.3302 73.03 63.6102 73.1C64.0102 73.19 64.3402 73.2 64.6602 73.2C65.3202 73.2 65.9202 73.11 66.4102 72.93C66.9102 72.75 67.3402 72.43 67.7302 72.01C68.1502 71.55 68.4102 71.07 68.6602 70.41C68.9102 69.76 69.1202 68.95 69.2902 68.01L70.9002 58.9H73.2502C73.2502 58.9 73.4502 58.91 73.4902 58.69L73.7602 57.2C73.7802 57.06 73.7202 56.97 73.5302 56.97H71.2402C71.2502 56.92 71.3602 56.11 71.6202 55.36C71.7302 55.04 71.9402 54.78 72.1202 54.6C72.3002 54.42 72.5002 54.3 72.7202 54.23C72.9502 54.16 73.2002 54.12 73.4902 54.12C73.7002 54.12 73.9202 54.14 74.0802 54.18C74.3002 54.23 74.3902 54.25 74.4502 54.27C74.6802 54.34 74.7202 54.27 74.7602 54.16L75.3102 52.66C75.3702 52.49 75.2302 52.42 75.1802 52.4ZM43.2602 67.85C43.2602 67.97 43.1702 68.07 43.0502 68.07H41.1502C41.0302 68.07 40.9502 67.97 40.9502 67.85V52.6C40.9502 52.48 41.0302 52.38 41.1502 52.38H43.0502C43.1702 52.38 43.2602 52.48 43.2602 52.6V67.85Z" fill="white"/>
</svg>
