<svg width="128" height="128" viewBox="0 0 128 128" fill="none" xmlns="http://www.w3.org/2000/svg">
<path d="M33.9698 22.03C20.7398 22.03 10.0198 32.7401 10.0198 45.9501C10.0198 49.3301 10.7198 52.55 11.9898 55.46C8.84968 57.3003 6.24703 59.9318 4.44148 63.0919C2.63592 66.2521 1.69058 69.8305 1.69977 73.4701C1.69977 84.9501 10.9098 94.26 22.2798 94.26C23.7298 94.26 25.1498 94.11 26.5098 93.82C29.6298 102.29 37.7598 108.33 47.3098 108.33C56.4798 108.33 64.3398 102.76 67.7198 94.82C70.3656 96.1157 73.2737 96.7863 76.2198 96.78C83.4998 96.78 89.8498 92.7701 93.1798 86.83C94.8798 87.17 96.6298 87.35 98.4198 87.35C113.1 87.35 125 75.34 125 60.53C125 45.73 113.1 33.72 98.4198 33.72C94.5898 33.72 90.9598 34.54 87.6698 36.01C83.8898 29.27 76.7898 24.73 68.6498 24.73C62.5198 24.73 56.9898 27.3 53.0098 31.44C48.6398 25.72 41.7298 22.02 33.9698 22.03ZM73.4998 52.16C73.8698 52.16 74.1998 52.18 74.4698 52.23C74.7398 52.28 74.9498 52.3301 75.1798 52.4001C75.2298 52.4201 75.3698 52.49 75.3098 52.66L74.7598 54.16C74.7198 54.2701 74.6798 54.34 74.4498 54.2701C74.3898 54.25 74.2998 54.23 74.0798 54.18C73.886 54.1377 73.6881 54.1176 73.4898 54.12C73.1998 54.12 72.9498 54.16 72.7198 54.23C72.4998 54.3 72.2998 54.42 72.1198 54.6C71.9398 54.78 71.7298 55.0401 71.6198 55.3601C71.3598 56.1101 71.2498 56.9201 71.2398 56.9701H73.5298C73.7198 56.9701 73.7798 57.0601 73.7598 57.2001L73.4898 58.69C73.4498 58.91 73.2498 58.9001 73.2498 58.9001H70.8998L69.2898 68.0101C69.1198 68.9501 68.9098 69.7601 68.6598 70.4101C68.4098 71.0701 68.1498 71.5501 67.7298 72.0101C67.3398 72.43 66.9098 72.75 66.4098 72.93C65.9198 73.1101 65.3198 73.2 64.6598 73.2C64.3398 73.2 64.0098 73.19 63.6098 73.1C63.3904 73.0463 63.1736 72.9829 62.9598 72.9101C62.8698 72.8701 62.7998 72.7601 62.8498 72.6201C62.8998 72.4801 63.3198 71.32 63.3798 71.17C63.4598 70.99 63.6398 71.06 63.6398 71.06C63.7698 71.11 63.8598 71.1501 64.0298 71.18C64.1998 71.21 64.4298 71.24 64.5998 71.24C64.9098 71.24 65.1898 71.2001 65.4398 71.1201C65.7398 71.0201 65.9098 70.8501 66.0898 70.6201C66.2798 70.3701 66.4298 70.04 66.5898 69.6C66.7498 69.15 66.8998 68.56 67.0198 67.84L68.6198 58.9001H67.0398C66.8498 58.9001 66.7898 58.81 66.8098 58.67L67.0798 57.18C67.1198 56.96 67.3198 56.9701 67.3198 56.9701H68.9398L69.0298 56.4901C69.2798 55.0601 69.7598 53.97 70.4698 53.25C71.1898 52.5301 72.2098 52.16 73.4998 52.16ZM41.1498 52.3801H43.0498C43.1698 52.3801 43.2598 52.48 43.2598 52.6V67.85C43.2598 67.97 43.1698 68.07 43.0498 68.07H41.1498C41.0298 68.07 40.9498 67.97 40.9498 67.85V52.6C40.9498 52.48 41.0298 52.3801 41.1498 52.3801ZM98.5998 56.73C99.1898 56.73 99.7198 56.7701 100.18 56.84C100.67 56.91 101.32 57.08 101.59 57.19C101.64 57.21 101.78 57.28 101.72 57.44C101.52 58 101.38 58.3701 101.2 58.8801C101.12 59.1001 100.95 59.03 100.95 59.03C100.26 58.81 99.5898 58.71 98.7198 58.71C97.6798 58.71 96.8898 59.0601 96.3798 59.7401C95.8598 60.4201 95.5698 61.32 95.5698 62.5201C95.5698 63.84 95.8998 64.8101 96.4798 65.4101C97.0698 66.0101 97.8798 66.31 98.8998 66.31C99.3198 66.31 99.7098 66.2801 100.06 66.2301C100.41 66.1801 100.73 66.07 101.04 65.95C101.04 65.95 101.24 65.8701 101.31 66.0801L101.84 67.5C101.9 67.68 101.75 67.75 101.75 67.75C100.95 68.0601 99.8398 68.28 98.7598 68.28C96.9298 68.28 95.5198 67.75 94.5898 66.71C93.6498 65.68 93.1798 64.26 93.1798 62.51C93.1798 61.7 93.2898 60.9401 93.5198 60.2401C93.7498 59.5401 94.0998 58.93 94.5498 58.41C94.9998 57.89 95.5798 57.48 96.2498 57.18C96.9198 56.8801 97.7098 56.73 98.5998 56.73ZM23.7698 56.7401H24.0198C25.3798 56.7401 26.6898 57.13 27.6398 57.71C27.7198 57.76 27.8098 57.8601 27.7598 57.9901C27.7198 58.1101 27.2998 59.24 27.2498 59.37C27.1598 59.6101 26.9198 59.4501 26.9198 59.4501C26.0898 58.9901 24.7998 58.6301 23.7098 58.6301C22.7298 58.6301 22.0998 59.1501 22.0998 59.8601V59.9001C22.0998 60.7201 23.1898 61.07 24.4398 61.48L24.6598 61.55C26.3298 62.07 28.0998 62.8001 28.0998 64.8001V64.84C28.0998 67 26.5298 68.35 23.9998 68.35C22.7498 68.35 21.5698 68.16 20.3098 67.49C20.0798 67.35 19.8398 67.23 19.6098 67.06C19.5898 67.02 19.4798 66.98 19.5598 66.78L20.0398 65.4101C20.1198 65.1801 20.2998 65.2501 20.3698 65.3001C20.5098 65.3801 20.6098 65.46 20.7898 65.56C22.2598 66.49 23.6198 66.5 24.0498 66.5C25.1498 66.5 25.8298 65.91 25.8298 65.13V65.09C25.8298 64.24 24.7798 63.91 23.5598 63.5401L23.2898 63.46C21.6198 62.98 19.8398 62.2901 19.8398 60.18V60.14C19.8398 58.14 21.4598 56.7401 23.7698 56.7401ZM34.1998 56.7401C35.6298 56.7401 36.7298 57.07 37.4798 57.73C38.2398 58.3801 38.6198 59.4501 38.6198 60.8801V67.42C38.6198 67.42 38.6398 67.6101 38.4598 67.6501C38.4598 67.6501 38.1998 67.72 37.9598 67.78C37.7198 67.84 36.8598 68.01 36.1598 68.13C35.4498 68.25 34.7198 68.31 33.9898 68.31C33.3546 68.3179 32.7206 68.2541 32.0998 68.1201C31.5298 67.9901 31.0398 67.78 30.6398 67.49C30.2398 67.2 29.9298 66.8201 29.7098 66.3701C29.4898 65.9201 29.3798 65.37 29.3798 64.74C29.3798 64.12 29.5098 63.5601 29.7598 63.09C30.0198 62.62 30.3698 62.2201 30.7998 61.91C31.2298 61.6 31.7298 61.3701 32.2898 61.2201C32.8498 61.07 33.4398 60.9901 34.0498 60.9901C34.4998 60.9901 34.8798 61 35.1698 61.0201C35.1698 61.0201 35.7298 61.07 36.3598 61.1501V60.85C36.3598 59.9 36.1598 59.4501 35.7698 59.1501C35.3698 58.84 34.7698 58.69 33.9998 58.69C33.9998 58.69 32.2698 58.67 30.8898 59.42C30.8198 59.46 30.7698 59.48 30.7698 59.48C30.7698 59.48 30.5998 59.5401 30.5398 59.3601L30.0298 58C29.9498 57.8101 30.0898 57.7201 30.0898 57.7201C30.7298 57.2201 32.2898 56.92 32.2898 56.92C32.7998 56.81 33.6598 56.7401 34.1998 56.7401ZM60.7998 56.7401H61.0498C62.4098 56.7401 63.7198 57.13 64.6698 57.71C64.7498 57.76 64.8398 57.8601 64.7898 57.9901C64.7498 58.1101 64.3298 59.24 64.2798 59.37C64.1898 59.6101 63.9498 59.4501 63.9498 59.4501C63.1198 58.9901 61.8298 58.6301 60.7398 58.6301C59.7598 58.6301 59.1298 59.1501 59.1298 59.8601V59.9001C59.1298 60.7201 60.2198 61.07 61.4698 61.48L61.6898 61.55C63.3598 62.07 65.1298 62.8001 65.1298 64.8001V64.84C65.1298 67 63.5598 68.35 61.0298 68.35C59.7798 68.35 58.5998 68.16 57.3398 67.49C57.1098 67.35 56.8698 67.23 56.6398 67.06C56.6198 67.02 56.5098 66.98 56.5898 66.78L57.0698 65.4101C57.1398 65.1901 57.3498 65.2701 57.3998 65.3001C57.5398 65.3801 57.6398 65.46 57.8198 65.56C59.2898 66.49 60.6498 66.5 61.0798 66.5C62.1798 66.5 62.8598 65.91 62.8598 65.13V65.09C62.8598 64.24 61.8098 63.91 60.5898 63.5401L60.3198 63.46C58.6498 62.98 56.8698 62.2901 56.8698 60.18V60.14C56.8698 58.14 58.4898 56.7401 60.7998 56.7401ZM50.5598 56.76C51.3298 56.76 52.0298 56.92 52.6098 57.17C53.0598 57.36 53.5098 57.7001 53.9698 58.2001C54.2598 58.5101 54.6998 59.19 54.8798 59.87C55.3398 61.48 55.0998 62.8701 55.0998 62.9701C55.0798 63.16 54.8898 63.16 54.8898 63.16L47.7398 63.1501C47.7798 64.2401 48.0398 65.01 48.5698 65.53C49.0798 66.04 49.8998 66.3701 51.0098 66.3701C52.6998 66.3701 53.4298 66.03 53.9398 65.84C53.9398 65.84 54.1398 65.7701 54.2098 65.96L54.6798 67.27C54.7698 67.49 54.6998 67.57 54.6198 67.6101C54.1698 67.8501 53.0798 68.3101 51.0198 68.32C50.0198 68.32 49.1498 68.18 48.4298 67.9001C47.6998 67.6201 47.0998 67.22 46.6298 66.71C46.1523 66.1881 45.7971 65.5664 45.5898 64.89C45.3718 64.1499 45.264 63.3816 45.2698 62.6101C45.2698 61.8 45.3698 61.0301 45.5798 60.3301C45.7898 59.6301 46.1198 59 46.5498 58.48C46.9898 57.9501 47.5398 57.5301 48.1998 57.2201C48.8598 56.91 49.6698 56.76 50.5598 56.76ZM79.1298 56.76C79.9798 56.76 80.7498 56.91 81.3898 57.21C82.0398 57.51 82.5798 57.92 83.0098 58.44C83.4398 58.95 83.7598 59.57 83.9698 60.2701C84.1798 60.96 84.2798 61.73 84.2798 62.5401C84.2798 63.3501 84.1798 64.11 83.9698 64.81C83.7598 65.51 83.4398 66.1301 83.0098 66.64C82.5798 67.15 82.0298 67.57 81.3898 67.8601C80.7498 68.1501 79.9898 68.3001 79.1298 68.3001C78.2798 68.3001 77.5198 68.1501 76.8698 67.8601C76.2435 67.5828 75.6892 67.1654 75.2498 66.64C74.8198 66.1301 74.4998 65.51 74.2898 64.81C74.0766 64.0725 73.9722 63.3078 73.9798 62.5401C73.9798 61.73 74.0798 60.9701 74.2898 60.2701C74.4998 59.57 74.8198 58.96 75.2498 58.44C75.6798 57.93 76.2198 57.51 76.8698 57.21C77.5098 56.91 78.2698 56.76 79.1298 56.76ZM107.78 56.76C108.55 56.76 109.25 56.92 109.83 57.17C110.28 57.36 110.73 57.7001 111.19 58.2001C111.49 58.5101 111.93 59.19 112.11 59.87C112.57 61.48 112.33 62.8701 112.32 62.9701C112.3 63.16 112.11 63.16 112.11 63.16L104.96 63.1501C105 64.2401 105.26 65.01 105.79 65.53C106.3 66.04 107.12 66.3701 108.23 66.3701C109.92 66.3701 110.65 66.03 111.16 65.84C111.16 65.84 111.36 65.7701 111.43 65.96L111.9 67.27C111.99 67.49 111.92 67.57 111.84 67.6101C111.39 67.8501 110.3 68.3101 108.24 68.32C107.24 68.32 106.37 68.18 105.65 67.9001C104.92 67.6201 104.32 67.22 103.85 66.71C103.38 66.2001 103.03 65.59 102.81 64.89C102.592 64.1499 102.484 63.3816 102.49 62.6101C102.49 61.8 102.59 61.0301 102.8 60.3301C103.01 59.6301 103.34 59 103.77 58.48C104.21 57.9501 104.76 57.5301 105.42 57.2201C106.08 56.91 106.89 56.76 107.78 56.76ZM90.8948 56.8671C91.0748 56.8571 91.2748 56.857 91.4998 56.869C91.9698 56.899 92.5798 57.0301 92.6998 57.0801C92.7498 57.1001 92.8598 57.18 92.8098 57.34C92.7398 57.53 92.3898 58.5101 92.2798 58.8301C92.2298 58.9501 92.1598 59.0401 92.0198 59.0201C92.0198 59.0201 91.5998 58.92 91.2298 58.92C90.9698 58.92 90.5998 58.9601 90.2698 59.0601C89.9498 59.16 89.6498 59.34 89.3898 59.59C89.1298 59.84 88.9098 60.2001 88.7598 60.64C88.5998 61.09 88.5198 61.8101 88.5198 62.5201V67.85C88.5198 67.97 88.4198 68.07 88.2998 68.07H86.4198C86.2998 68.07 86.1998 67.97 86.1998 67.85V57.19C86.1998 57.07 86.2898 56.9701 86.4098 56.9701H88.2398C88.3598 56.9701 88.4498 57.07 88.4498 57.19V58.0601C88.7298 57.6901 89.2198 57.37 89.6598 57.17C89.9898 57.02 90.3538 56.898 90.8948 56.8671ZM50.3898 58.6311C49.4498 58.6311 48.7888 59 48.3488 59.67C48.0588 60.11 47.8688 60.68 47.7688 61.3601H52.8588C52.8088 60.7001 52.6788 60.11 52.3888 59.67C51.9488 59 51.3288 58.6301 50.3888 58.6301L50.3898 58.6311ZM107.63 58.6311C106.69 58.6311 106.029 59 105.589 59.67C105.299 60.11 105.109 60.68 105.009 61.3601H110.099C110.049 60.7001 109.929 60.11 109.629 59.67C109.189 59 108.569 58.6301 107.629 58.6301L107.63 58.6311ZM79.1298 58.689C78.1898 58.689 77.5198 59.0091 77.0798 59.6791C76.6298 60.3591 76.4098 61.319 76.4098 62.5391C76.4098 63.7591 76.6398 64.7301 77.0798 65.4101C77.5198 66.0801 78.1898 66.4101 79.1298 66.4101C80.0598 66.4101 80.7388 66.0801 81.1788 65.4101C81.6288 64.7301 81.8588 63.7601 81.8588 62.5401C81.8588 61.3101 81.6288 60.35 81.1888 59.68C80.7388 59.0101 80.0688 58.69 79.1288 58.69L79.1298 58.689ZM34.4098 62.7891C32.9498 62.7691 32.3288 63.3111 32.3388 63.3111C31.9088 63.611 31.6988 64.0591 31.6988 64.6891C31.6988 65.0891 31.7688 65.3991 31.9088 65.6191C31.9988 65.7591 32.0388 65.819 32.3188 66.0391C32.3188 66.0391 32.9588 66.5511 34.4188 66.4711C35.4388 66.4011 36.3488 66.211 36.3488 66.211V62.961C36.3488 62.961 35.4288 62.799 34.4088 62.7891H34.4098Z" fill="#00A1E0"/>
</svg>
