<svg width="128" height="128" viewBox="0 0 128 128" fill="none" xmlns="http://www.w3.org/2000/svg">
<path d="M3 82.037V76.074H5.152C6.345 76.074 8.237 75.996 9.378 75.892L11.401 75.737L8.704 75.011C7.2 74.621 5.308 74.051 4.504 73.741L3 73.195V61.035H5.411C6.708 61.035 8.601 60.957 9.586 60.853L11.401 60.697L8.211 59.842C6.448 59.401 4.581 58.805 4.011 58.572L3 58.104V46.334L3.804 46.152C4.244 46.074 5.334 45.996 6.215 45.996C10.571 45.996 20.916 44.57 25.998 43.274C29.55 42.34 32.013 41.407 32.869 40.629C33.309 40.24 33.336 40.473 33.336 46.204V52.193L32.713 52.66L32.091 53.152L33.336 54.242V67.232L32.713 67.698L32.091 68.19L33.336 69.28V82.27L32.662 82.788C31.936 83.358 29.135 84.318 25.946 85.121C20.968 86.367 8.808 88 4.66 88H3V82.037ZM66.264 76.774C63.101 76.048 60.094 73.559 58.979 70.681C58.538 69.566 58.382 68.658 58.382 66.843C58.356 64.639 58.408 64.38 59.342 62.539C60.456 60.283 61.882 58.857 64.164 57.743C65.486 57.068 65.875 57.017 68.598 57.017C71.424 57.017 71.683 57.068 73.265 57.847C74.198 58.313 75.261 59.013 75.65 59.402L76.324 60.128L74.976 61.658L73.602 63.188L72.539 62.384C69.453 60.154 65.279 60.984 63.697 64.121C61.545 68.321 64.657 73.091 69.22 72.625C70.672 72.47 71.994 71.951 72.876 71.121C73.42 70.655 73.446 70.655 74.924 72.158L76.402 73.662L75.209 74.725C73.057 76.618 69.349 77.474 66.264 76.774ZM81.562 76.722C79.565 76.152 78.321 75.218 77.543 73.662C76.403 71.329 76.791 68.814 78.58 67.102C79.928 65.806 81.277 65.313 84.984 64.795C86.488 64.587 88.044 64.276 88.433 64.095C89.729 63.499 89.573 61.735 88.148 61.139C86.307 60.361 83.636 60.984 82.028 62.513L81.328 63.187L80.369 62.435C78.165 60.698 78.347 60.932 78.839 60.18C79.358 59.376 80.525 58.468 82.08 57.665C82.988 57.172 83.792 57.017 85.71 56.939C88.536 56.809 89.755 57.069 91.492 58.183C92.426 58.78 92.892 59.298 93.359 60.335C93.981 61.632 94.007 61.917 94.007 66.895C94.007 72.365 94.033 72.547 95.174 72.755C95.614 72.833 95.693 73.066 95.77 74.388C95.848 76.54 95.667 76.722 93.618 76.722C91.985 76.722 91.855 76.67 91.129 75.866L90.351 74.985L89.392 75.607C88.044 76.514 87.007 76.8 84.855 76.981C83.585 77.059 82.521 76.981 81.562 76.721V76.722ZM86.799 72.652C87.344 72.496 88.148 71.951 88.562 71.484C89.237 70.732 89.34 70.395 89.34 69.073V67.543L88.433 67.933C87.94 68.113 87.292 68.295 86.981 68.295C85.399 68.295 83.04 68.917 82.314 69.514C81.095 70.551 81.51 72.184 83.118 72.781C83.818 73.04 85.762 72.962 86.799 72.651V72.652ZM100.411 76.748C99.686 76.54 98.804 76.048 98.285 75.555C96.652 73.973 96.6 73.61 96.6 61.243V50.146H101.241L101.397 71.718L102.019 72.21C102.408 72.521 103.03 72.703 103.756 72.703H104.897V76.8L104.093 76.955C102.927 77.189 101.838 77.111 100.411 76.748ZM110.938 76.851C107.775 76.203 105.83 74.025 105.83 71.121C105.856 69.073 106.712 67.414 108.242 66.454C109.694 65.521 110.549 65.262 113.868 64.794C117.083 64.328 117.783 64.094 118.172 63.265C118.406 62.747 118.38 62.487 118.017 61.943C116.902 60.258 113.661 60.387 111.223 62.228L110.031 63.136L108.605 61.916L107.153 60.672L108.605 59.324C110.549 57.509 112.235 56.887 115.242 56.887C117.887 56.887 119.417 57.327 120.817 58.494C122.58 59.946 122.787 60.724 122.787 66.402C122.787 71.873 122.943 72.703 123.954 72.703C124.576 72.703 124.602 72.755 124.602 74.518C124.602 76.566 124.369 76.851 122.528 76.851C121.309 76.851 120.143 76.333 119.598 75.555C119.235 75.011 119.209 75.011 117.965 75.788C116.15 76.903 113.375 77.318 110.938 76.851ZM116.513 72.34C117.68 71.744 118.146 70.888 118.302 69.047C118.457 67.517 118.432 67.466 117.912 67.751C117.628 67.906 116.279 68.191 114.932 68.399C113.585 68.607 112.105 68.969 111.664 69.203C109.979 70.058 110.004 71.821 111.716 72.599C112.753 73.066 115.346 72.936 116.513 72.34ZM44.822 76.592C43.655 76.332 41.399 75.166 40.544 74.414C39.636 73.61 38.003 71.458 38.003 71.069C38.003 70.888 38.547 70.421 39.247 70.006C39.8277 69.6238 40.4155 69.2524 41.01 68.892C41.477 68.58 41.607 68.658 42.333 69.695C43.577 71.485 45.159 72.262 47.7 72.392C50.215 72.496 51.356 72.029 52.108 70.525C53.223 68.269 51.874 66.688 47.311 64.925C44.018 63.655 41.607 62.15 40.725 60.802C39.455 58.883 39.299 55.824 40.336 53.776C40.959 52.556 42.696 51.001 44.2 50.327C45.133 49.887 45.91 49.783 47.855 49.783C50.007 49.783 50.526 49.86 51.926 50.509C53.43 51.183 55.893 53.361 55.893 53.983C55.893 54.113 55.141 54.735 54.182 55.331L52.497 56.446L52.107 55.876C50.682 53.853 45.781 53.646 44.744 55.565C44.304 56.42 44.459 57.587 45.107 58.365C45.729 59.117 46.144 59.325 50.707 61.295C55.063 63.161 56.723 64.821 57.19 67.699C57.838 71.718 55.893 75.062 52.185 76.307C50.526 76.877 46.611 77.033 44.822 76.592Z" fill="#390D09"/>
<path d="M3 82.089V76.15L7.537 75.969C12.257 75.787 15.757 75.399 20.89 74.517C26.724 73.506 32.48 71.691 33.076 70.654C33.232 70.394 33.336 72.391 33.336 76.254V82.269L32.662 82.788C31.936 83.358 29.135 84.318 25.946 85.121C20.968 86.367 8.808 88 4.66 88H3V82.089ZM3 67.05V61.113L7.537 60.958C12.567 60.75 16.483 60.309 21.668 59.35C27.476 58.261 32.765 56.498 33.154 55.539C33.232 55.357 33.31 57.872 33.31 61.139C33.336 66.325 33.284 67.154 32.895 67.569C31.988 68.58 24.987 70.395 17.779 71.51C13.397 72.184 6.137 72.962 4.115 72.962H3V67.05ZM3 52.116V46.308L3.804 46.153C4.244 46.075 5.334 45.997 6.215 45.997C10.571 45.997 20.916 44.571 25.998 43.275C29.55 42.341 32.013 41.408 32.869 40.63C33.309 40.241 33.336 40.474 33.336 46.179C33.336 51.753 33.31 52.168 32.843 52.583C32.143 53.231 27.346 54.709 23.613 55.461C17.572 56.654 7.537 57.924 4.115 57.924H3V52.116Z" fill="#DE3423"/>
</svg>
