<svg width="128" height="128" viewBox="0 0 128 128" fill="none" xmlns="http://www.w3.org/2000/svg">
<path d="M25 110.437V94.8741H30.616C33.729 94.8741 38.668 94.6711 41.646 94.4001L46.924 93.9941L39.886 92.1001C35.962 91.0851 31.022 89.5961 28.925 88.7841L25 87.3641V55.6271H31.293C34.676 55.6271 39.616 55.4241 42.187 55.1541L46.924 54.7481L38.601 52.5151C34 51.3661 29.128 49.8091 27.639 49.2001L25 47.9821V17.2621L27.098 16.7891C28.248 16.5861 31.09 16.3831 33.391 16.3831C44.758 16.3831 71.757 12.6611 85.019 9.27806C94.289 6.84206 100.717 4.40606 102.95 2.37606C104.1 1.36106 104.168 1.97006 104.168 16.9241V32.5541L102.544 33.7731L100.92 35.0581L104.168 37.9001V71.8001L102.544 73.0181L100.92 74.3041L104.168 77.1461V111.046L102.408 112.399C100.514 113.888 93.206 116.392 84.884 118.489C71.892 121.737 40.157 126 29.33 126H25V110.437Z" fill="#390D09"/>
<path d="M25 110.572V95.077L36.842 94.603C49.157 94.13 58.292 93.115 71.689 90.814C86.914 88.175 101.935 83.439 103.492 80.732C103.898 80.055 104.168 85.266 104.168 95.348V111.046L102.408 112.399C100.514 113.888 93.206 116.392 84.884 118.489C71.892 121.737 40.157 126 29.33 126H25V110.572ZM25 71.327V55.83L36.842 55.424C49.969 54.883 60.186 53.733 73.719 51.229C88.876 48.387 102.679 43.786 103.695 41.282C103.898 40.809 104.101 47.372 104.101 55.898C104.168 69.431 104.033 71.596 103.018 72.678C100.65 75.318 82.38 80.054 63.569 82.964C52.134 84.724 33.188 86.754 27.909 86.754H25V71.327ZM25 32.352V17.195L27.098 16.789C28.248 16.586 31.09 16.383 33.391 16.383C44.758 16.383 71.757 12.661 85.019 9.27798C94.289 6.84198 100.717 4.40598 102.95 2.37598C104.1 1.36098 104.168 1.96998 104.168 16.856C104.168 31.404 104.101 32.486 102.883 33.57C101.056 35.261 88.538 39.118 78.793 41.08C63.028 44.193 36.842 47.509 27.91 47.509H25V32.352Z" fill="#DE3423"/>
</svg>
