<svg width="128" height="128" viewBox="0 0 128 128" fill="none" xmlns="http://www.w3.org/2000/svg">
<path d="M25.4111 110.572V95.077L37.2531 94.603C49.5681 94.13 58.7031 93.115 72.1001 90.814C87.3251 88.175 102.346 83.439 103.903 80.732C104.309 80.055 104.579 85.266 104.579 95.348V111.046L102.819 112.399C100.925 113.888 93.6171 116.392 85.2951 118.489C72.3031 121.737 40.5681 126 29.7421 126H25.4121L25.4111 110.572ZM25.4111 71.327V55.83L37.2531 55.424C50.3801 54.883 60.5971 53.733 74.1301 51.229C89.2871 48.387 103.09 43.786 104.106 41.282C104.309 40.809 104.512 47.372 104.512 55.898C104.579 69.431 104.444 71.596 103.429 72.678C101.061 75.318 82.7911 80.054 63.9801 82.964C52.5451 84.724 33.5991 86.754 28.3201 86.754H25.4111V71.327ZM25.4111 32.352V17.195L27.5091 16.789C28.6591 16.586 31.5011 16.383 33.8021 16.383C45.1691 16.383 72.1681 12.661 85.4301 9.27798C94.7001 6.84198 101.128 4.40598 103.361 2.37598C104.511 1.36098 104.579 1.96998 104.579 16.856C104.579 31.404 104.512 32.486 103.294 33.57C101.467 35.261 88.9491 39.118 79.2041 41.08C63.4391 44.193 37.2531 47.509 28.3211 47.509H25.4111V32.352Z" fill="#390D09"/>
</svg>
