<svg width="128" height="128" viewBox="0 0 128 128" fill="none" xmlns="http://www.w3.org/2000/svg">
<path d="M66.2639 76.774C63.1009 76.048 60.0939 73.559 58.9789 70.681C58.5379 69.566 58.3819 68.658 58.3819 66.843C58.3559 64.639 58.4079 64.38 59.3419 62.539C60.4559 60.283 61.8819 58.857 64.1639 57.743C65.4859 57.068 65.8749 57.017 68.5979 57.017C71.4239 57.017 71.6829 57.068 73.2649 57.847C74.1979 58.313 75.2609 59.013 75.6499 59.402L76.3239 60.128L74.9759 61.658L73.6019 63.188L72.5389 62.384C69.4529 60.154 65.2789 60.984 63.6969 64.121C61.5449 68.321 64.6569 73.091 69.2199 72.625C70.6719 72.47 71.9939 71.951 72.8759 71.121C73.4199 70.655 73.4459 70.655 74.9239 72.158L76.4019 73.662L75.2089 74.725C73.0569 76.618 69.3489 77.474 66.2639 76.774ZM81.5619 76.722C79.5649 76.152 78.3209 75.218 77.5429 73.662C76.4029 71.329 76.7909 68.814 78.5799 67.102C79.9279 65.806 81.2769 65.313 84.9839 64.795C86.4879 64.587 88.0439 64.276 88.4329 64.095C89.7289 63.499 89.5729 61.735 88.1479 61.139C86.3069 60.361 83.6359 60.984 82.0279 62.513L81.3279 63.187L80.3689 62.435C78.1649 60.698 78.3469 60.932 78.8389 60.18C79.3579 59.376 80.5249 58.468 82.0799 57.665C82.9879 57.172 83.7919 57.017 85.7099 56.939C88.5359 56.809 89.7549 57.069 91.4919 58.183C92.4259 58.78 92.8919 59.298 93.3589 60.335C93.9809 61.632 94.0069 61.917 94.0069 66.895C94.0069 72.365 94.0329 72.547 95.1739 72.755C95.6139 72.833 95.6929 73.066 95.7699 74.388C95.8479 76.54 95.6669 76.722 93.6179 76.722C91.9849 76.722 91.8549 76.67 91.1289 75.866L90.3509 74.985L89.3919 75.607C88.0439 76.514 87.0069 76.8 84.8549 76.981C83.5849 77.059 82.5209 76.981 81.5619 76.721V76.722ZM86.7989 72.652C87.3439 72.496 88.1479 71.951 88.5619 71.484C89.2369 70.732 89.3399 70.395 89.3399 69.073V67.543L88.4329 67.933C87.9399 68.113 87.2919 68.295 86.9809 68.295C85.3989 68.295 83.0399 68.917 82.3139 69.514C81.0949 70.551 81.5099 72.184 83.1179 72.781C83.8179 73.04 85.7619 72.962 86.7989 72.651V72.652ZM100.411 76.748C99.6859 76.54 98.8039 76.048 98.2849 75.555C96.6519 73.973 96.5999 73.61 96.5999 61.243V50.146H101.241L101.397 71.718L102.019 72.21C102.408 72.521 103.03 72.703 103.756 72.703H104.897V76.8L104.093 76.955C102.927 77.189 101.838 77.111 100.411 76.748ZM110.938 76.851C107.775 76.203 105.83 74.025 105.83 71.121C105.856 69.073 106.712 67.414 108.242 66.454C109.694 65.521 110.549 65.262 113.868 64.794C117.083 64.328 117.783 64.094 118.172 63.265C118.406 62.747 118.38 62.487 118.017 61.943C116.902 60.258 113.661 60.387 111.223 62.228L110.031 63.136L108.605 61.916L107.153 60.672L108.605 59.324C110.549 57.509 112.235 56.887 115.242 56.887C117.887 56.887 119.417 57.327 120.817 58.494C122.58 59.946 122.787 60.724 122.787 66.402C122.787 71.873 122.943 72.703 123.954 72.703C124.576 72.703 124.602 72.755 124.602 74.518C124.602 76.566 124.369 76.851 122.528 76.851C121.309 76.851 120.143 76.333 119.598 75.555C119.235 75.011 119.209 75.011 117.965 75.788C116.15 76.903 113.375 77.318 110.938 76.851ZM116.513 72.34C117.68 71.744 118.146 70.888 118.302 69.047C118.457 67.517 118.432 67.466 117.912 67.751C117.628 67.906 116.279 68.191 114.932 68.399C113.585 68.607 112.105 68.969 111.664 69.203C109.979 70.058 110.004 71.821 111.716 72.599C112.753 73.066 115.346 72.936 116.513 72.34ZM44.8219 76.592C43.6549 76.332 41.3989 75.166 40.5439 74.414C39.6359 73.61 38.0029 71.458 38.0029 71.069C38.0029 70.888 38.5469 70.421 39.2469 70.006C39.8277 69.6238 40.4154 69.2524 41.0099 68.892C41.4769 68.58 41.6069 68.658 42.3329 69.695C43.5769 71.485 45.1589 72.262 47.6999 72.392C50.2149 72.496 51.3559 72.029 52.1079 70.525C53.2229 68.269 51.8739 66.688 47.3109 64.925C44.0179 63.655 41.6069 62.15 40.7249 60.802C39.4549 58.883 39.2989 55.824 40.3359 53.776C40.9589 52.556 42.6959 51.001 44.1999 50.327C45.1329 49.887 45.9099 49.783 47.8549 49.783C50.0069 49.783 50.5259 49.86 51.9259 50.509C53.4299 51.183 55.8929 53.361 55.8929 53.983C55.8929 54.113 55.1409 54.735 54.1819 55.331L52.4969 56.446L52.1069 55.876C50.6819 53.853 45.7809 53.646 44.7439 55.565C44.3039 56.42 44.4589 57.587 45.1069 58.365C45.7289 59.117 46.1439 59.325 50.7069 61.295C55.0629 63.161 56.7229 64.821 57.1899 67.699C57.8379 71.718 55.8929 75.062 52.1849 76.307C50.5259 76.877 46.6109 77.033 44.8219 76.592Z" fill="#390D09"/>
<path d="M3 82.089V76.15L7.537 75.969C12.257 75.787 15.757 75.399 20.89 74.517C26.724 73.506 32.48 71.691 33.076 70.654C33.232 70.394 33.336 72.391 33.336 76.254V82.269L32.662 82.788C31.936 83.358 29.135 84.318 25.946 85.121C20.968 86.367 8.808 88 4.66 88H3V82.089ZM3 67.05V61.113L7.537 60.958C12.567 60.75 16.483 60.309 21.668 59.35C27.476 58.261 32.765 56.498 33.154 55.539C33.232 55.357 33.31 57.872 33.31 61.139C33.336 66.325 33.284 67.154 32.895 67.569C31.988 68.58 24.987 70.395 17.779 71.51C13.397 72.184 6.137 72.962 4.115 72.962H3V67.05ZM3 52.116V46.308L3.804 46.153C4.244 46.075 5.334 45.997 6.215 45.997C10.571 45.997 20.916 44.571 25.998 43.275C29.55 42.341 32.013 41.408 32.869 40.63C33.309 40.241 33.336 40.474 33.336 46.179C33.336 51.753 33.31 52.168 32.843 52.583C32.143 53.231 27.346 54.709 23.613 55.461C17.572 56.654 7.537 57.924 4.115 57.924H3V52.116Z" fill="#390D09"/>
</svg>
