<svg width="128" height="128" viewBox="0 0 128 128" fill="none" xmlns="http://www.w3.org/2000/svg">
<path d="M59.807 95.1949C45.555 94.7069 32.002 91.4739 21.464 86.0569C20.472 85.5489 18.305 84.3399 18.305 84.2979C18.305 84.2819 18.649 84.443 19.068 84.66C24.226 87.2999 30.71 89.5559 37.257 90.9869C47.639 93.2609 59.01 93.8679 70.152 92.7349C80.668 91.6699 90.493 89.0799 98.88 85.1689C106.424 81.6479 112.46 77.145 116.482 72.0509C122.655 64.2169 123.484 55.1369 118.756 47.0819C115.696 41.8619 110.587 37.2599 103.574 33.4149C102.903 33.0489 102.375 32.7469 102.403 32.7469C102.495 32.7469 105.463 34.1779 106.39 34.6739C110.919 37.0779 114.521 39.6419 117.665 42.6909C121.614 46.5219 124.094 50.4669 125.308 54.8509C126.429 58.9029 126.22 63.3979 124.724 67.3809C122.71 72.7419 118.593 77.6759 112.572 81.9489C102.788 88.8859 88.785 93.4799 73.252 94.8459C68.78 95.2219 64.291 95.3409 59.805 95.2009L59.807 95.1949ZM95.441 76.8299H95.365C95.3158 76.8125 95.2641 76.8033 95.212 76.8029L94.995 76.7949C94.8921 76.7951 94.7897 76.8079 94.69 76.8329L94.385 76.9279V78.8009H93.469V75.9999H94.385V76.4039C94.4415 76.3543 94.5002 76.3073 94.561 76.2629C94.6256 76.2143 94.693 76.1695 94.763 76.1289C94.8353 76.0884 94.9122 76.0565 94.992 76.0339C95.073 76.0059 95.1582 75.9917 95.244 75.9919H95.343C95.381 75.9959 95.412 75.9959 95.442 76.0029L95.441 76.8299ZM92.11 78.8789C91.553 78.8789 91.129 78.7529 90.832 78.4969C90.535 78.2409 90.389 77.8859 90.389 77.4169C90.389 76.9629 90.526 76.5969 90.801 76.3259C91.076 76.0549 91.461 75.9139 91.957 75.9139C92.407 75.9139 92.747 76.0319 92.976 76.2609C93.2049 76.4899 93.316 76.8219 93.316 77.2529V77.5699H91.305C91.316 77.6999 91.3429 77.8069 91.393 77.8939C91.4392 77.9782 91.5063 78.0492 91.588 78.0999C91.6713 78.1556 91.7647 78.1943 91.863 78.2139C91.9759 78.2362 92.0909 78.2466 92.206 78.2449C92.3111 78.2462 92.4161 78.2358 92.519 78.2139C92.6159 78.1931 92.7104 78.1622 92.801 78.1219C92.877 78.091 92.946 78.0569 93.011 78.0229L93.167 77.924H93.262V78.6449L93.056 78.7209C92.973 78.7536 92.8873 78.7791 92.8 78.7969L92.495 78.8539C92.366 78.8706 92.236 78.8783 92.106 78.8769L92.11 78.8789ZM92.411 77.0439C92.407 76.8569 92.361 76.7199 92.277 76.6199C92.193 76.52 92.063 76.4749 91.888 76.4749C91.713 76.4749 91.571 76.5279 91.468 76.6279C91.365 76.7279 91.315 76.8679 91.304 77.0439H92.411ZM90.579 76.0019L89.095 79.8289H88.111L88.554 78.7339L87.478 76.0019H88.44L89.058 77.757L89.638 76.0019H90.579ZM86.565 78.0739V77.4899L86.191 77.5279C86.0934 77.5382 85.9974 77.56 85.905 77.5929C85.825 77.6199 85.764 77.6579 85.718 77.7109C85.672 77.7639 85.653 77.8369 85.653 77.9279C85.653 78.0579 85.691 78.1489 85.764 78.1989C85.837 78.2489 85.947 78.271 86.092 78.271C86.1773 78.2695 86.2615 78.2515 86.34 78.2179C86.4232 78.1839 86.4995 78.1347 86.565 78.0729V78.0739ZM86.565 78.5049L86.397 78.6419C86.3357 78.6887 86.2692 78.7283 86.199 78.7599C86.1217 78.7963 86.0414 78.8258 85.959 78.8479C85.8512 78.871 85.7411 78.8814 85.631 78.8789C85.5115 78.8821 85.3925 78.8615 85.2811 78.8182C85.1697 78.775 85.068 78.7099 84.982 78.6269C84.8972 78.5468 84.8306 78.4495 84.7864 78.3416C84.7423 78.2336 84.7216 78.1175 84.726 78.0009C84.726 77.7909 84.768 77.6229 84.856 77.4969C84.944 77.3709 85.07 77.2679 85.234 77.1919C85.398 77.1159 85.596 77.0619 85.829 77.0319L86.573 76.9629V76.9479C86.573 76.7919 86.5119 76.6889 86.394 76.6269C86.276 76.5649 86.093 76.5389 85.856 76.5389C85.745 76.5389 85.6189 76.5579 85.474 76.5959C85.329 76.6314 85.1872 76.6786 85.05 76.7369H84.97V76.0619C85.1161 76.0256 85.264 75.9963 85.413 75.9739C85.6148 75.9391 85.8192 75.9213 86.024 75.9209C86.531 75.9209 86.902 76.0009 87.131 76.1649C87.3599 76.3289 87.478 76.569 87.478 76.8979V78.8019H86.566L86.565 78.5049ZM84.856 78.8029H82.254V75.0899H83.235V78.0969H84.857L84.856 78.8029ZM79.682 78.0739V77.4899L79.304 77.5279C79.2077 77.5383 79.113 77.5601 79.022 77.5929C78.942 77.6199 78.881 77.6579 78.835 77.7109C78.789 77.7639 78.766 77.8369 78.766 77.9279C78.766 78.0579 78.804 78.1489 78.88 78.1989C78.9559 78.2489 79.063 78.271 79.208 78.271C79.292 78.2695 79.3749 78.2515 79.452 78.2179C79.536 78.183 79.6134 78.134 79.681 78.0729L79.682 78.0739ZM79.682 78.5049L79.514 78.6419C79.4512 78.6887 79.3835 78.7283 79.312 78.7599C79.2353 78.7976 79.1548 78.8271 79.072 78.8479C78.9656 78.871 78.8568 78.8814 78.748 78.8789C78.6284 78.8825 78.5094 78.862 78.3979 78.8187C78.2864 78.7754 78.1848 78.7102 78.099 78.6269C78.0142 78.5467 77.9473 78.4494 77.9027 78.3416C77.858 78.2337 77.8367 78.1176 77.84 78.0009C77.84 77.7909 77.886 77.6229 77.974 77.4969C78.062 77.3709 78.188 77.2679 78.352 77.1919C78.5398 77.1093 78.7391 77.0554 78.943 77.0319L79.687 76.9629V76.9479C79.687 76.7919 79.63 76.6889 79.508 76.6269C79.386 76.5649 79.21 76.5389 78.97 76.5389C78.8421 76.542 78.7151 76.5611 78.592 76.5959C78.4462 76.632 78.3035 76.6791 78.165 76.7369H78.089V76.0619C78.2338 76.0256 78.3803 75.9963 78.528 75.9739C78.7307 75.9388 78.9361 75.921 79.142 75.9209C79.646 75.9209 80.016 76.0009 80.249 76.1649C80.482 76.3289 80.596 76.569 80.596 76.8979V78.8019H79.684L79.682 78.5049ZM77.679 78.8029H76.763V76.0019H77.679V78.8029ZM77.706 75.6049H76.737V74.9259H77.706V75.6049ZM76.386 78.8029H75.47V78.5129L75.268 78.6619C75.2042 78.7072 75.1367 78.7467 75.066 78.7799C74.9184 78.8501 74.7563 78.8841 74.593 78.8789C74.4375 78.8847 74.2831 78.8514 74.1439 78.782C74.0046 78.7127 73.885 78.6095 73.796 78.4819C73.601 78.2189 73.502 77.868 73.502 77.4249C73.502 77.181 73.5359 76.9669 73.601 76.7879C73.666 76.6089 73.761 76.4519 73.876 76.3189C73.9833 76.1965 74.116 76.0989 74.265 76.0329C74.418 75.9609 74.578 75.9259 74.746 75.9259C74.8749 75.9225 75.0035 75.938 75.128 75.9719C75.223 76.0029 75.338 76.0519 75.471 76.1169V74.9229H76.387L76.386 78.8029ZM75.47 78.0319V76.6549C75.412 76.6319 75.3521 76.6142 75.291 76.6019C75.2292 76.5911 75.1667 76.5847 75.104 76.5829C74.8829 76.5829 74.719 76.6549 74.608 76.7999C74.497 76.945 74.44 77.1509 74.44 77.4139C74.44 77.6889 74.486 77.8909 74.574 78.0129C74.6619 78.1349 74.803 78.1959 75.001 78.1959C75.084 78.1947 75.1663 78.1805 75.245 78.1539C75.3249 78.1232 75.4006 78.0822 75.47 78.0319ZM72.356 78.8789C71.803 78.8789 71.375 78.7529 71.082 78.4969C70.789 78.2409 70.636 77.8859 70.636 77.4169C70.636 76.9629 70.777 76.5969 71.052 76.3259C71.327 76.0549 71.712 75.9139 72.208 75.9139C72.658 75.9139 72.998 76.0319 73.227 76.2609C73.4559 76.4899 73.567 76.8219 73.567 77.2529V77.5699H71.556C71.567 77.6999 71.5939 77.8069 71.644 77.8939C71.6902 77.9782 71.7573 78.0492 71.839 78.0999C71.9149 78.1529 72.007 78.1919 72.114 78.2139C72.221 78.2359 72.331 78.2449 72.457 78.2449C72.5621 78.2462 72.6671 78.2358 72.77 78.2139C72.8669 78.1931 72.9614 78.1622 73.052 78.1219C73.128 78.091 73.197 78.0569 73.262 78.0229L73.418 77.924H73.513V78.6449L73.307 78.7209C73.2238 78.7531 73.1382 78.7785 73.051 78.7969L72.746 78.8539C72.617 78.8706 72.487 78.8783 72.357 78.8769L72.356 78.8789ZM72.661 77.0439C72.653 76.8569 72.611 76.7199 72.527 76.6199C72.443 76.52 72.31 76.4749 72.138 76.4749C71.959 76.4749 71.821 76.5279 71.718 76.6279C71.615 76.7279 71.562 76.8679 71.554 77.0439H72.661ZM69.57 78.8029V77.4059L69.562 77.0549C69.5592 76.9753 69.5437 76.8966 69.516 76.8219C69.4912 76.766 69.4482 76.7202 69.394 76.6919C69.3203 76.6611 69.2408 76.6468 69.161 76.6499C69.0898 76.6503 69.0195 76.666 68.955 76.6959C68.8759 76.7285 68.8004 76.7694 68.73 76.8179V78.8019H67.81V77.4049L67.802 77.0579C67.7985 76.978 67.7816 76.8992 67.752 76.8249C67.727 76.7682 67.6841 76.7212 67.63 76.6909C67.5578 76.6598 67.4795 76.6455 67.401 76.6489C67.3246 76.6503 67.2494 76.6673 67.18 76.6989L66.97 76.8169V78.8009H66.054V75.9999H66.97V76.3089C67.123 76.1909 67.264 76.0949 67.397 76.0269C67.5349 75.9564 67.6881 75.921 67.843 75.924C68.0087 75.9213 68.1722 75.9634 68.316 76.0459C68.4563 76.1319 68.5658 76.26 68.629 76.4119C68.805 76.256 68.972 76.1329 69.129 76.0499C69.2737 75.9694 69.4363 75.9261 69.602 75.924C69.739 75.924 69.861 75.9469 69.968 75.9889C70.0747 76.0255 70.1697 76.0901 70.243 76.1759C70.3277 76.2667 70.3915 76.3749 70.43 76.4929C70.4738 76.6518 70.4944 76.8162 70.491 76.9809V78.8009L69.57 78.8029ZM65.274 78.8599C64.9 78.8599 64.629 78.7839 64.457 78.6389C64.285 78.4939 64.205 78.2539 64.205 77.9219V76.6129H63.854V76.0019H64.205V75.2049H65.121V76.0019H66.002V76.6129H65.121V77.8609C65.1224 77.929 65.1366 77.9962 65.163 78.0589C65.1904 78.1174 65.236 78.1655 65.293 78.1959C65.3776 78.2355 65.4707 78.2537 65.564 78.2489C65.6299 78.2461 65.6954 78.2357 65.759 78.2179C65.8161 78.2069 65.8713 78.1877 65.923 78.1609H66.003V78.7789L65.686 78.8359C65.5493 78.8525 65.4116 78.8602 65.274 78.8589V78.8599ZM63.088 78.8789C62.8623 78.8806 62.6375 78.851 62.42 78.7909C62.2299 78.7369 62.0522 78.6462 61.897 78.5239C61.7477 78.4009 61.63 78.2438 61.554 78.0659C61.4671 77.8609 61.4255 77.6395 61.432 77.4169C61.432 77.1459 61.474 76.9209 61.566 76.7339C61.6481 76.553 61.771 76.3936 61.925 76.2679C62.0792 76.1482 62.2556 76.0602 62.444 76.0089C62.6454 75.9538 62.8532 75.9256 63.062 75.9249C63.4002 75.9242 63.7342 76.0011 64.038 76.1499V76.8979H63.92C63.8775 76.8596 63.8328 76.8238 63.786 76.7909C63.732 76.7529 63.675 76.7149 63.61 76.6799C63.545 76.6449 63.469 76.6149 63.385 76.5919C63.2945 76.5649 63.2004 76.5521 63.106 76.5539C62.873 76.5539 62.69 76.6299 62.564 76.7869C62.438 76.944 62.369 77.1529 62.369 77.4169C62.369 77.6959 62.438 77.9049 62.575 78.0429C62.712 78.1809 62.896 78.2489 63.121 78.2489C63.2236 78.2505 63.3261 78.2391 63.426 78.2149C63.514 78.1919 63.586 78.1579 63.651 78.1229C63.716 78.0879 63.762 78.0509 63.807 78.0159L63.918 77.9129H64.036V78.6609L63.857 78.7369C63.787 78.7641 63.7156 78.7872 63.643 78.8059L63.395 78.8589C63.2926 78.8727 63.1893 78.8791 63.086 78.8779L63.088 78.8789ZM60.291 78.8789C59.734 78.8789 59.31 78.7529 59.013 78.5009C58.716 78.2489 58.57 77.8869 58.57 77.4209C58.57 76.9629 58.707 76.5969 58.986 76.3259C59.265 76.0549 59.646 75.9179 60.142 75.9179C60.592 75.9179 60.932 76.0319 61.157 76.2649C61.382 76.4979 61.497 76.826 61.497 77.257V77.5699H59.49C59.498 77.6999 59.528 77.8069 59.578 77.8939C59.6225 77.9792 59.6883 78.0515 59.769 78.1039C59.849 78.1539 59.941 78.1919 60.044 78.2149C60.1567 78.2386 60.2717 78.25 60.387 78.2489C60.4935 78.2492 60.5998 78.2378 60.704 78.2149C60.807 78.1919 60.899 78.1619 60.986 78.1269L61.192 78.0239L61.348 77.9289H61.447V78.646L61.241 78.7259C61.1573 78.7555 61.0718 78.7796 60.985 78.7979C60.8834 78.8248 60.7801 78.8452 60.676 78.8589C60.5482 78.8739 60.4196 78.8803 60.291 78.8779V78.8789ZM60.596 77.0439C60.592 76.8609 60.543 76.7199 60.459 76.6239C60.375 76.5279 60.245 76.4789 60.07 76.4789C59.895 76.4789 59.753 76.5289 59.654 76.632C59.5497 76.7443 59.49 76.8908 59.486 77.0439H60.596ZM58.753 76.8299H58.677C58.6282 76.8167 58.5783 76.8077 58.528 76.8029L58.307 76.7949C58.2054 76.7949 58.1043 76.8077 58.006 76.8329C57.899 76.8599 57.796 76.8939 57.697 76.9279V78.8049H56.781V76.0039H57.697V76.4049C57.7525 76.3555 57.8113 76.3097 57.873 76.2679C57.9357 76.2167 58.0033 76.1718 58.075 76.1339C58.14 76.096 58.216 76.062 58.308 76.035C58.3881 76.0089 58.4717 75.9947 58.556 75.9929L58.655 75.9969C58.6881 75.9973 58.7212 76 58.754 76.0049L58.753 76.8299ZM56.4 78.8059H55.484V76.0049H56.4V78.8059ZM56.427 75.6049H55.458V74.9259H56.427V75.6049ZM55.282 76.952C55.2873 77.2782 55.2044 77.5999 55.042 77.8829C54.8977 78.1407 54.6902 78.3575 54.439 78.5129C54.237 78.6349 54.019 78.7149 53.779 78.7529C53.5275 78.7887 53.2739 78.8064 53.02 78.8059H51.799V75.0929H53.009C53.2668 75.091 53.5245 75.1078 53.78 75.1429C54.0177 75.1773 54.2462 75.2589 54.452 75.3829C54.7065 75.5369 54.9159 75.7552 55.059 76.0159C55.204 76.2789 55.284 76.5919 55.284 76.9509L55.282 76.952ZM54.275 76.9439C54.275 76.6999 54.233 76.4899 54.141 76.3179C54.0527 76.1427 53.9113 75.9999 53.737 75.91C53.607 75.8416 53.4636 75.8027 53.317 75.7959L52.794 75.785H52.775V78.1089H52.794L53.351 78.0979C53.5038 78.0911 53.6522 78.0449 53.782 77.9639C53.9402 77.8703 54.0674 77.7322 54.148 77.5669C54.2374 77.3721 54.2805 77.1592 54.274 76.9449L54.275 76.9439ZM49.139 78.8789C48.586 78.8789 48.158 78.7529 47.865 78.5009C47.572 78.2489 47.419 77.8899 47.419 77.4209C47.419 76.9629 47.56 76.6009 47.835 76.3259C48.11 76.0509 48.495 75.9179 48.991 75.9179C49.441 75.9179 49.781 76.0319 50.006 76.2649C50.231 76.4979 50.349 76.826 50.349 77.257V77.5699H48.338C48.346 77.6999 48.376 77.8099 48.426 77.8979C48.4722 77.9822 48.5394 78.0532 48.621 78.1039C48.7043 78.1589 48.7978 78.1966 48.896 78.2149C49.0087 78.2386 49.1237 78.25 49.239 78.2489C49.3442 78.2492 49.4492 78.2378 49.552 78.2149C49.655 78.1919 49.75 78.1649 49.834 78.1269C49.9063 78.0977 49.9765 78.0632 50.044 78.0239L50.197 77.9289H50.296V78.6499L50.09 78.7259C50.0068 78.7581 49.9212 78.7835 49.834 78.8019L49.525 78.8589C49.3972 78.874 49.2686 78.8804 49.14 78.8779L49.139 78.8789ZM49.444 77.0469C49.44 76.8599 49.394 76.7189 49.31 76.6229C49.226 76.5269 49.093 76.4779 48.921 76.4779C48.742 76.4779 48.604 76.5279 48.501 76.6309C48.398 76.7339 48.345 76.8709 48.337 77.0469H49.444ZM47.254 78.8059H46.338V74.9249H47.254V78.8059ZM46.17 77.3679C46.17 77.8139 46.048 78.1769 45.811 78.452C45.574 78.727 45.277 78.8599 44.93 78.8599C44.785 78.8599 44.655 78.8449 44.548 78.8139C44.4267 78.7785 44.3102 78.7285 44.201 78.6649V79.8329H43.285V76.0059H44.201V76.2999C44.3271 76.1948 44.4654 76.1051 44.613 76.0329C44.7646 75.9618 44.9305 75.9266 45.098 75.9299C45.438 75.9299 45.701 76.0599 45.888 76.3149C46.075 76.57 46.17 76.9259 46.17 77.3679ZM45.231 77.3829C45.231 77.1119 45.185 76.9139 45.097 76.7919C45.009 76.6699 44.872 76.6049 44.685 76.6049C44.6023 76.6063 44.5202 76.6191 44.441 76.6429C44.361 76.6659 44.281 76.708 44.201 76.757V78.1649C44.251 78.1839 44.304 78.1989 44.361 78.2069C44.418 78.2149 44.491 78.2179 44.571 78.2179C44.792 78.2179 44.96 78.1489 45.067 78.0119C45.174 77.8749 45.231 77.665 45.231 77.382V77.3829ZM42.003 78.8059V77.4059L41.995 77.0589C41.991 76.9639 41.976 76.8869 41.949 76.8259C41.922 76.7649 41.88 76.7229 41.827 76.6959C41.7534 76.6649 41.6738 76.6505 41.594 76.6539C41.5233 76.6551 41.4534 76.6693 41.388 76.6959C41.3108 76.7315 41.2369 76.7737 41.167 76.8219V78.8059H40.244V77.4059L40.236 77.0589C40.2322 76.9791 40.2153 76.9003 40.186 76.8259C40.162 76.7695 40.1188 76.7234 40.064 76.6959C39.9918 76.6648 39.9135 76.6505 39.835 76.6539C39.7599 76.6553 39.686 76.6723 39.618 76.7039C39.545 76.7377 39.4748 76.7772 39.408 76.8219V78.8059H38.492V76.0049H39.408V76.3139C39.557 76.1919 39.698 76.0999 39.832 76.0319C39.9701 75.9622 40.1232 75.9268 40.278 75.9289C40.457 75.9289 40.618 75.9709 40.755 76.0509C40.892 76.131 40.992 76.2529 41.064 76.4129C41.2162 76.2743 41.384 76.1539 41.564 76.0539C41.7098 75.9724 41.8739 75.929 42.041 75.9279C42.1657 75.9257 42.2897 75.9464 42.407 75.9889C42.512 76.029 42.6061 76.093 42.682 76.1759C42.7634 76.2699 42.8256 76.379 42.865 76.4969C42.907 76.6229 42.926 76.7829 42.926 76.9819V78.8059H42.003ZM38.111 78.8059H37.195V76.0049H38.111V78.8059ZM38.138 75.6079H37.169V74.9249H38.138V75.6079ZM35.379 78.8739C35.078 78.8739 34.818 78.8429 34.589 78.7899C34.36 78.7369 34.154 78.6679 33.959 78.5879V77.7029H34.051C34.246 77.8629 34.459 77.9819 34.696 78.0689C34.9161 78.1499 35.1484 78.1926 35.383 78.1949C35.44 78.1949 35.513 78.1869 35.604 78.1799C35.6798 78.1706 35.7541 78.1515 35.825 78.1229C35.8906 78.0973 35.9494 78.0569 35.997 78.0049C36.0217 77.9785 36.0408 77.9473 36.0532 77.9133C36.0655 77.8793 36.0709 77.8431 36.069 77.8069C36.0701 77.7624 36.0603 77.7182 36.0404 77.6783C36.0206 77.6383 35.9912 77.6039 35.955 77.5779C35.8721 77.5188 35.7788 77.4761 35.68 77.452L35.253 77.3569C35.1098 77.3275 34.9682 77.2904 34.829 77.2459C34.528 77.1469 34.31 77.0089 34.18 76.8379C34.05 76.6669 33.985 76.4529 33.985 76.1929C33.985 75.8459 34.138 75.5669 34.447 75.3499C34.756 75.1329 35.141 75.0289 35.603 75.0289C35.8359 75.0275 36.0684 75.0493 36.297 75.0939C36.525 75.1399 36.732 75.2009 36.911 75.2769V76.1239H36.827C36.667 75.9974 36.4882 75.8969 36.297 75.8259C36.0914 75.7454 35.8727 75.704 35.652 75.7039C35.5753 75.7027 35.4988 75.7077 35.423 75.7189C35.3487 75.7315 35.2766 75.7548 35.209 75.7879C35.1473 75.8146 35.0926 75.8549 35.049 75.9059C35.0054 75.9541 34.9822 76.0171 34.984 76.0819C34.984 76.1769 35.018 76.2499 35.087 76.3069C35.156 76.3639 35.297 76.4139 35.499 76.4599L35.877 76.5399C36.0085 76.5701 36.1383 76.6072 36.266 76.6509C36.537 76.7429 36.739 76.8679 36.869 77.0249C36.999 77.1819 37.067 77.3909 37.067 77.6469C37.067 78.0169 36.914 78.3149 36.609 78.5359C36.304 78.757 35.895 78.8759 35.377 78.8759L35.379 78.8739ZM95.106 72.5639H69.926V36.6589H79.4V65.7229H95.105L95.106 72.5639ZM67.454 54.6379C67.454 57.9799 66.687 60.9759 65.149 63.6199C63.611 66.2639 61.669 68.2939 59.323 69.7099C57.3726 70.9144 55.1962 71.7066 52.928 72.0379C50.623 72.3849 48.17 72.5569 45.568 72.5569H33.766V36.6469H45.469C48.121 36.6469 50.601 36.8069 52.913 37.1319C55.2223 37.4532 57.4399 38.2496 59.426 39.4709C61.8857 40.9594 63.9119 43.0673 65.302 45.5839C66.737 48.1479 67.454 51.1699 67.454 54.6419V54.6379ZM57.728 54.5659C57.728 52.1999 57.301 50.1779 56.446 48.4989C55.591 46.8199 54.283 45.5039 52.508 44.5539C51.26 43.8892 49.8795 43.5111 48.467 43.4469L43.415 43.3479H43.236V65.8299H43.415L48.799 65.7189C50.257 65.6469 51.645 65.2149 52.966 64.4289C54.519 63.4979 55.702 62.2079 56.511 60.5709C57.32 58.9339 57.728 56.9269 57.728 54.5649V54.5659ZM15.687 73.2009C12.799 73.2009 10.261 72.9339 8.07496 72.4039C5.88896 71.8739 3.85896 71.2139 1.98096 70.4279V61.8889H2.84296C4.73596 63.4189 6.81896 64.59 9.10096 65.4109C11.383 66.2319 13.592 66.6429 15.736 66.6429C16.278 66.6429 16.991 66.5859 17.877 66.4709C18.763 66.3559 19.476 66.181 20.018 65.9409C20.6517 65.6856 21.222 65.2948 21.689 64.7959C22.147 64.3029 22.372 63.6589 22.372 62.8539C22.372 61.9539 22.002 61.2249 21.258 60.6599C20.514 60.0949 19.629 59.6869 18.599 59.4279L14.482 58.5119C13.098 58.2431 11.7321 57.8887 10.392 57.4509C7.46896 56.4699 5.37396 55.1499 4.11096 53.4979C2.84796 51.8459 2.21096 49.7659 2.21096 47.2749C2.21096 43.9129 3.70296 41.1929 6.69396 39.1099C9.68496 37.0269 13.413 35.9849 17.889 35.9849C20.1381 35.985 22.382 36.2034 24.589 36.6369C26.809 37.0719 28.798 37.6599 30.557 38.3999V46.5999H29.721C28.317 45.4589 26.607 44.4939 24.589 43.7039C22.571 42.9139 20.499 42.5209 18.37 42.5209C17.6237 42.5142 16.8783 42.5718 16.142 42.6929C15.425 42.8248 14.7267 43.0427 14.062 43.3419C13.4702 43.6018 12.9465 43.9951 12.532 44.4909C12.101 44.9989 11.883 45.5629 11.883 46.1889C11.883 47.1049 12.226 47.8339 12.909 48.3719C13.592 48.9099 14.916 49.3979 16.873 49.8329L20.536 50.6269C21.707 50.8859 22.963 51.2379 24.298 51.6879C26.912 52.5879 28.862 53.7979 30.136 55.3199C31.41 56.8419 32.048 58.8419 32.048 61.3369C32.048 64.9049 30.575 67.7739 27.629 69.9449C24.683 72.1159 20.7 73.1999 15.686 73.1999L15.687 73.2009Z" fill="#173354"/>
<path fill-rule="evenodd" clip-rule="evenodd" d="M31.1628 89.112C30.9298 89.112 30.7388 89.276 30.7388 89.478C30.7388 89.68 30.9298 89.848 31.1628 89.848C31.3958 89.848 31.5828 89.68 31.5828 89.478C31.5828 89.276 31.3958 89.112 31.1628 89.112ZM49.2638 92.405C48.9018 92.405 48.6038 92.661 48.6038 92.977C48.6038 93.293 48.9018 93.553 49.2638 93.553C49.6258 93.553 49.9238 93.297 49.9238 92.977C49.9238 92.657 49.6298 92.405 49.2638 92.405ZM39.8698 91.161C39.5798 91.161 39.3428 91.367 39.3428 91.623C39.3428 91.879 39.5798 92.081 39.8698 92.081C40.1598 92.081 40.3998 91.875 40.3998 91.623C40.3998 91.371 40.1628 91.161 39.8698 91.161ZM59.5548 92.775C59.1008 92.775 58.7308 93.096 58.7308 93.492C58.7308 93.888 59.1008 94.209 59.5548 94.209C60.0088 94.209 60.3788 93.888 60.3788 93.492C60.3788 93.096 60.0088 92.775 59.5548 92.775ZM70.1818 92.222C69.6098 92.222 69.1478 92.623 69.1478 93.119C69.1478 93.615 69.6098 94.016 70.1818 94.016C70.7538 94.016 71.2118 93.612 71.2118 93.119C71.2118 92.626 70.7498 92.222 70.1818 92.222ZM80.8278 90.398C80.1178 90.398 79.5418 90.898 79.5418 91.52C79.5418 92.142 80.1178 92.638 80.8278 92.638C81.5378 92.638 82.1178 92.138 82.1178 91.52C82.1178 90.902 81.5418 90.398 80.8278 90.398ZM91.4848 87.059C90.5958 87.059 89.8748 87.689 89.8748 88.463C89.8748 89.237 90.5958 89.863 91.4848 89.863C92.3738 89.863 93.0988 89.233 93.0988 88.463C93.0988 87.693 92.3738 87.059 91.4848 87.059ZM101.688 82.621C100.7 82.621 99.8978 83.315 99.8978 84.178C99.8978 85.041 100.699 85.735 101.688 85.735C102.677 85.735 103.478 85.037 103.478 84.178C103.478 83.319 102.677 82.621 101.688 82.621ZM110.991 76.237C109.892 76.237 108.999 77.012 108.999 77.965C108.999 78.918 109.892 79.697 110.991 79.697C112.09 79.697 112.979 78.922 112.979 77.965C112.979 77.008 112.09 76.237 110.991 76.237ZM118.66 67.255C117.229 67.255 116.073 68.262 116.073 69.506C116.073 70.75 117.229 71.753 118.66 71.753C120.091 71.753 121.247 70.746 121.247 69.506C121.247 68.266 120.087 67.255 118.66 67.255ZM121.953 57.937C120.854 57.937 119.965 58.712 119.965 59.669C119.965 60.626 120.854 61.397 121.953 61.397C123.052 61.397 123.945 60.622 123.945 59.669C123.945 58.716 123.056 57.937 121.953 57.937ZM120.843 52.122C121.629 52.122 122.266 51.569 122.266 50.89C122.266 50.211 121.629 49.654 120.843 49.654C120.057 49.654 119.424 50.207 119.424 50.89C119.424 51.573 120.061 52.122 120.843 52.122ZM117.375 45.403C117.936 45.403 118.39 45.01 118.39 44.522C118.39 44.034 117.932 43.641 117.375 43.641C116.818 43.641 116.356 44.034 116.356 44.522C116.356 45.01 116.814 45.403 117.375 45.403ZM113.556 39.767C113.186 39.767 112.881 40.034 112.881 40.358C112.881 40.682 113.186 40.946 113.556 40.946C113.926 40.946 114.235 40.683 114.235 40.358C114.235 40.033 113.93 39.767 113.556 39.767ZM109.496 37.459C109.744 37.459 109.946 37.283 109.946 37.07C109.946 36.857 109.744 36.677 109.496 36.677C109.248 36.677 109.046 36.853 109.046 37.07C109.046 37.287 109.248 37.459 109.496 37.459Z" fill="#173354"/>
</svg>
