<svg width="128" height="128" viewBox="0 0 128 128" fill="none" xmlns="http://www.w3.org/2000/svg">
<path d="M59.8065 95.1949C45.555 94.7065 32.0019 91.4742 21.4632 86.0569C20.4707 85.549 18.3042 84.3397 18.3042 84.2977C18.3042 84.2821 18.648 84.4423 19.0671 84.6601C24.2256 87.3004 30.7086 89.5558 37.2561 90.9868C47.6385 93.2608 59.0094 93.8674 70.1508 92.7343C80.667 91.6696 90.4917 89.0791 98.8785 85.168C106.422 81.6467 112.458 77.1436 116.48 72.0496C122.654 64.2157 123.482 55.1353 118.754 47.0806C115.694 41.8606 110.585 37.2589 103.572 33.4132C102.901 33.0469 102.373 32.7451 102.401 32.7451C102.493 32.7451 105.461 34.1761 106.388 34.6723C110.918 37.0762 114.519 39.6403 117.663 42.6889C121.613 46.52 124.093 50.4652 125.306 54.8491C126.427 58.9009 126.218 63.3961 124.722 67.3795C122.708 72.7402 118.59 77.674 112.569 81.9475C102.786 88.8847 88.7823 93.4786 73.2492 94.8442C68.7775 95.2206 64.2879 95.339 59.8026 95.1988L59.8065 95.1949Z" fill="url(#paint0_radial_3_7245)"/>
<path d="M95.441 76.83H95.365C95.3158 76.8125 95.2641 76.8034 95.212 76.803L94.995 76.795C94.8921 76.7952 94.7897 76.8079 94.69 76.833L94.385 76.928V78.801H93.469V76H94.385V76.404C94.4415 76.3544 94.5002 76.3073 94.561 76.263C94.6256 76.2143 94.693 76.1696 94.763 76.129C94.8353 76.0885 94.9122 76.0566 94.992 76.034C95.073 76.0059 95.1582 75.9917 95.244 75.992H95.343C95.381 75.996 95.412 75.996 95.442 76.003L95.441 76.83ZM92.11 78.879C91.553 78.879 91.129 78.753 90.832 78.497C90.535 78.241 90.389 77.886 90.389 77.417C90.389 76.963 90.526 76.597 90.801 76.326C91.076 76.055 91.461 75.914 91.957 75.914C92.407 75.914 92.747 76.032 92.976 76.261C93.2049 76.49 93.316 76.822 93.316 77.253V77.57H91.305C91.316 77.7 91.3429 77.807 91.393 77.894C91.4392 77.9782 91.5063 78.0492 91.588 78.1C91.6713 78.1556 91.7647 78.1944 91.863 78.214C91.9759 78.2363 92.0909 78.2466 92.206 78.245C92.3111 78.2463 92.4161 78.2359 92.519 78.214C92.6159 78.1931 92.7104 78.1623 92.801 78.122C92.877 78.091 92.946 78.057 93.011 78.023L93.167 77.924H93.262V78.645L93.056 78.721C92.973 78.7537 92.8873 78.7791 92.8 78.797L92.495 78.854C92.366 78.8706 92.236 78.8783 92.106 78.877L92.11 78.879ZM92.411 77.044C92.407 76.857 92.361 76.72 92.277 76.62C92.193 76.52 92.063 76.475 91.888 76.475C91.713 76.475 91.571 76.528 91.468 76.628C91.365 76.728 91.315 76.868 91.304 77.044H92.411ZM90.579 76.002L89.095 79.829H88.111L88.554 78.734L87.478 76.002H88.44L89.058 77.757L89.638 76.002H90.579ZM86.565 78.074V77.49L86.191 77.528C86.0934 77.5382 85.9974 77.56 85.905 77.593C85.825 77.62 85.764 77.658 85.718 77.711C85.672 77.764 85.653 77.837 85.653 77.928C85.653 78.058 85.691 78.149 85.764 78.199C85.837 78.249 85.947 78.271 86.092 78.271C86.1773 78.2695 86.2615 78.2515 86.34 78.218C86.4232 78.1839 86.4995 78.1348 86.565 78.073V78.074ZM86.565 78.505L86.397 78.642C86.3357 78.6887 86.2692 78.7283 86.199 78.76C86.1217 78.7964 86.0414 78.8258 85.959 78.848C85.8512 78.871 85.7411 78.8814 85.631 78.879C85.5115 78.8822 85.3925 78.8615 85.2811 78.8183C85.1697 78.775 85.068 78.71 84.982 78.627C84.8972 78.5468 84.8306 78.4496 84.7864 78.3416C84.7423 78.2337 84.7216 78.1175 84.726 78.001C84.726 77.791 84.768 77.623 84.856 77.497C84.944 77.371 85.07 77.268 85.234 77.192C85.398 77.116 85.596 77.062 85.829 77.032L86.573 76.963V76.948C86.573 76.792 86.5119 76.689 86.394 76.627C86.276 76.565 86.093 76.539 85.856 76.539C85.745 76.539 85.6189 76.558 85.474 76.596C85.329 76.6315 85.1872 76.6786 85.05 76.737H84.97V76.062C85.1161 76.0257 85.264 75.9963 85.413 75.974C85.6148 75.9391 85.8192 75.9214 86.024 75.921C86.531 75.921 86.902 76.001 87.131 76.165C87.3599 76.329 87.478 76.569 87.478 76.898V78.802H86.566L86.565 78.505ZM84.856 78.803H82.254V75.09H83.235V78.097H84.857L84.856 78.803ZM79.682 78.074V77.49L79.304 77.528C79.2077 77.5383 79.113 77.5601 79.022 77.593C78.942 77.62 78.881 77.658 78.835 77.711C78.789 77.764 78.766 77.837 78.766 77.928C78.766 78.058 78.804 78.149 78.88 78.199C78.9559 78.249 79.063 78.271 79.208 78.271C79.292 78.2695 79.3749 78.2515 79.452 78.218C79.536 78.183 79.6134 78.134 79.681 78.073L79.682 78.074ZM79.682 78.505L79.514 78.642C79.4512 78.6887 79.3835 78.7283 79.312 78.76C79.2353 78.7976 79.1548 78.8271 79.072 78.848C78.9656 78.871 78.8568 78.8814 78.748 78.879C78.6284 78.8825 78.5094 78.862 78.3979 78.8188C78.2864 78.7755 78.1848 78.7103 78.099 78.627C78.0142 78.5467 77.9473 78.4495 77.9027 78.3416C77.858 78.2337 77.8367 78.1177 77.84 78.001C77.84 77.791 77.886 77.623 77.974 77.497C78.062 77.371 78.188 77.268 78.352 77.192C78.5398 77.1094 78.7391 77.0554 78.943 77.032L79.687 76.963V76.948C79.687 76.792 79.63 76.689 79.508 76.627C79.386 76.565 79.21 76.539 78.97 76.539C78.8421 76.542 78.7151 76.5612 78.592 76.596C78.4462 76.6321 78.3035 76.6792 78.165 76.737H78.089V76.062C78.2338 76.0257 78.3803 75.9963 78.528 75.974C78.7307 75.9388 78.9361 75.9211 79.142 75.921C79.646 75.921 80.016 76.001 80.249 76.165C80.482 76.329 80.596 76.569 80.596 76.898V78.802H79.684L79.682 78.505ZM77.679 78.803H76.763V76.002H77.679V78.803ZM77.706 75.605H76.737V74.926H77.706V75.605ZM76.386 78.803H75.47V78.513L75.268 78.662C75.2042 78.7072 75.1367 78.7467 75.066 78.78C74.9184 78.8502 74.7563 78.8841 74.593 78.879C74.4375 78.8847 74.2831 78.8514 74.1439 78.7821C74.0046 78.7127 73.885 78.6095 73.796 78.482C73.601 78.219 73.502 77.868 73.502 77.425C73.502 77.181 73.5359 76.967 73.601 76.788C73.666 76.609 73.761 76.452 73.876 76.319C73.9833 76.1965 74.116 76.0989 74.265 76.033C74.418 75.961 74.578 75.926 74.746 75.926C74.8749 75.9226 75.0035 75.9381 75.128 75.972C75.223 76.003 75.338 76.052 75.471 76.117V74.923H76.387L76.386 78.803ZM75.47 78.032V76.655C75.412 76.6319 75.3521 76.6142 75.291 76.602C75.2292 76.5911 75.1667 76.5848 75.104 76.583C74.8829 76.583 74.719 76.655 74.608 76.8C74.497 76.945 74.44 77.151 74.44 77.414C74.44 77.689 74.486 77.891 74.574 78.013C74.6619 78.135 74.803 78.196 75.001 78.196C75.084 78.1947 75.1663 78.1806 75.245 78.154C75.3249 78.1232 75.4006 78.0822 75.47 78.032ZM72.356 78.879C71.803 78.879 71.375 78.753 71.082 78.497C70.789 78.241 70.636 77.886 70.636 77.417C70.636 76.963 70.777 76.597 71.052 76.326C71.327 76.055 71.712 75.914 72.208 75.914C72.658 75.914 72.998 76.032 73.227 76.261C73.4559 76.49 73.567 76.822 73.567 77.253V77.57H71.556C71.567 77.7 71.5939 77.807 71.644 77.894C71.6902 77.9782 71.7573 78.0492 71.839 78.1C71.9149 78.153 72.007 78.192 72.114 78.214C72.221 78.236 72.331 78.245 72.457 78.245C72.5621 78.2463 72.6671 78.2359 72.77 78.214C72.8669 78.1931 72.9614 78.1623 73.052 78.122C73.128 78.091 73.197 78.057 73.262 78.023L73.418 77.924H73.513V78.645L73.307 78.721C73.2238 78.7531 73.1382 78.7785 73.051 78.797L72.746 78.854C72.617 78.8706 72.487 78.8783 72.357 78.877L72.356 78.879ZM72.661 77.044C72.653 76.857 72.611 76.72 72.527 76.62C72.443 76.52 72.31 76.475 72.138 76.475C71.959 76.475 71.821 76.528 71.718 76.628C71.615 76.728 71.562 76.868 71.554 77.044H72.661ZM69.57 78.803V77.406L69.562 77.055C69.5592 76.9754 69.5437 76.8967 69.516 76.822C69.4912 76.7661 69.4482 76.7203 69.394 76.692C69.3203 76.6612 69.2408 76.6468 69.161 76.65C69.0898 76.6504 69.0195 76.666 68.955 76.696C68.8759 76.7286 68.8004 76.7695 68.73 76.818V78.802H67.81V77.405L67.802 77.058C67.7985 76.9781 67.7816 76.8993 67.752 76.825C67.727 76.7682 67.6841 76.7212 67.63 76.691C67.5578 76.6599 67.4795 76.6455 67.401 76.649C67.3246 76.6503 67.2494 76.6673 67.18 76.699L66.97 76.817V78.801H66.054V76H66.97V76.309C67.123 76.191 67.264 76.095 67.397 76.027C67.5349 75.9564 67.6881 75.921 67.843 75.924C68.0087 75.9213 68.1722 75.9634 68.316 76.046C68.4563 76.1319 68.5658 76.26 68.629 76.412C68.805 76.256 68.972 76.133 69.129 76.05C69.2737 75.9695 69.4363 75.9262 69.602 75.924C69.739 75.924 69.861 75.947 69.968 75.989C70.0747 76.0256 70.1697 76.0901 70.243 76.176C70.3277 76.2667 70.3915 76.3749 70.43 76.493C70.4738 76.6518 70.4944 76.8162 70.491 76.981V78.801L69.57 78.803ZM65.274 78.86C64.9 78.86 64.629 78.784 64.457 78.639C64.285 78.494 64.205 78.254 64.205 77.922V76.613H63.854V76.002H64.205V75.205H65.121V76.002H66.002V76.613H65.121V77.861C65.1224 77.929 65.1366 77.9962 65.163 78.059C65.1904 78.1175 65.236 78.1655 65.293 78.196C65.3776 78.2355 65.4707 78.2537 65.564 78.249C65.6299 78.2462 65.6954 78.2358 65.759 78.218C65.8161 78.2069 65.8713 78.1877 65.923 78.161H66.003V78.779L65.686 78.836C65.5493 78.8526 65.4116 78.8603 65.274 78.859V78.86ZM63.088 78.879C62.8623 78.8807 62.6375 78.8511 62.42 78.791C62.2299 78.737 62.0522 78.6463 61.897 78.524C61.7477 78.4009 61.63 78.2439 61.554 78.066C61.4671 77.8609 61.4255 77.6396 61.432 77.417C61.432 77.146 61.474 76.921 61.566 76.734C61.6481 76.5531 61.771 76.3936 61.925 76.268C62.0792 76.1483 62.2556 76.0602 62.444 76.009C62.6454 75.9539 62.8532 75.9256 63.062 75.925C63.4002 75.9242 63.7342 76.0012 64.038 76.15V76.898H63.92C63.8775 76.8596 63.8328 76.8239 63.786 76.791C63.732 76.753 63.675 76.715 63.61 76.68C63.545 76.645 63.469 76.615 63.385 76.592C63.2945 76.5649 63.2004 76.5521 63.106 76.554C62.873 76.554 62.69 76.63 62.564 76.787C62.438 76.944 62.369 77.153 62.369 77.417C62.369 77.696 62.438 77.905 62.575 78.043C62.712 78.181 62.896 78.249 63.121 78.249C63.2236 78.2505 63.3261 78.2391 63.426 78.215C63.514 78.192 63.586 78.158 63.651 78.123C63.716 78.088 63.762 78.051 63.807 78.016L63.918 77.913H64.036V78.661L63.857 78.737C63.787 78.7642 63.7156 78.7872 63.643 78.806L63.395 78.859C63.2926 78.8728 63.1893 78.8791 63.086 78.878L63.088 78.879ZM60.291 78.879C59.734 78.879 59.31 78.753 59.013 78.501C58.716 78.249 58.57 77.887 58.57 77.421C58.57 76.963 58.707 76.597 58.986 76.326C59.265 76.055 59.646 75.918 60.142 75.918C60.592 75.918 60.932 76.032 61.157 76.265C61.382 76.498 61.497 76.826 61.497 77.257V77.57H59.49C59.498 77.7 59.528 77.807 59.578 77.894C59.6225 77.9792 59.6883 78.0515 59.769 78.104C59.849 78.154 59.941 78.192 60.044 78.215C60.1567 78.2386 60.2717 78.25 60.387 78.249C60.4935 78.2493 60.5998 78.2379 60.704 78.215C60.807 78.192 60.899 78.162 60.986 78.127L61.192 78.024L61.348 77.929H61.447V78.646L61.241 78.726C61.1573 78.7556 61.0718 78.7796 60.985 78.798C60.8834 78.8248 60.7801 78.8452 60.676 78.859C60.5482 78.874 60.4196 78.8803 60.291 78.878V78.879ZM60.596 77.044C60.592 76.861 60.543 76.72 60.459 76.624C60.375 76.528 60.245 76.479 60.07 76.479C59.895 76.479 59.753 76.529 59.654 76.632C59.5497 76.7443 59.49 76.8908 59.486 77.044H60.596ZM58.753 76.83H58.677C58.6282 76.8167 58.5783 76.8077 58.528 76.803L58.307 76.795C58.2054 76.795 58.1043 76.8077 58.006 76.833C57.899 76.86 57.796 76.894 57.697 76.928V78.805H56.781V76.004H57.697V76.405C57.7525 76.3555 57.8113 76.3097 57.873 76.268C57.9357 76.2167 58.0033 76.1718 58.075 76.134C58.14 76.096 58.216 76.062 58.308 76.035C58.3881 76.0089 58.4717 75.9948 58.556 75.993L58.655 75.997C58.6881 75.9973 58.7212 76 58.754 76.005L58.753 76.83ZM56.4 78.806H55.484V76.005H56.4V78.806ZM56.427 75.605H55.458V74.926H56.427V75.605ZM55.282 76.952C55.2873 77.2783 55.2044 77.6 55.042 77.883C54.8977 78.1408 54.6902 78.3576 54.439 78.513C54.237 78.635 54.019 78.715 53.779 78.753C53.5275 78.7888 53.2739 78.8065 53.02 78.806H51.799V75.093H53.009C53.2668 75.0911 53.5245 75.1078 53.78 75.143C54.0177 75.1773 54.2462 75.2589 54.452 75.383C54.7065 75.5369 54.9159 75.7552 55.059 76.016C55.204 76.279 55.284 76.592 55.284 76.951L55.282 76.952ZM54.275 76.944C54.275 76.7 54.233 76.49 54.141 76.318C54.0527 76.1428 53.9113 76 53.737 75.91C53.607 75.8416 53.4636 75.8027 53.317 75.796L52.794 75.785H52.775V78.109H52.794L53.351 78.098C53.5038 78.0911 53.6522 78.0449 53.782 77.964C53.9402 77.8703 54.0674 77.7323 54.148 77.567C54.2374 77.3721 54.2805 77.1593 54.274 76.945L54.275 76.944ZM49.139 78.879C48.586 78.879 48.158 78.753 47.865 78.501C47.572 78.249 47.419 77.89 47.419 77.421C47.419 76.963 47.56 76.601 47.835 76.326C48.11 76.051 48.495 75.918 48.991 75.918C49.441 75.918 49.781 76.032 50.006 76.265C50.231 76.498 50.349 76.826 50.349 77.257V77.57H48.338C48.346 77.7 48.376 77.81 48.426 77.898C48.4722 77.9823 48.5394 78.0532 48.621 78.104C48.7043 78.1589 48.7978 78.1967 48.896 78.215C49.0087 78.2386 49.1237 78.25 49.239 78.249C49.3442 78.2492 49.4492 78.2378 49.552 78.215C49.655 78.192 49.75 78.165 49.834 78.127C49.9063 78.0977 49.9765 78.0633 50.044 78.024L50.197 77.929H50.296V78.65L50.09 78.726C50.0068 78.7581 49.9212 78.7835 49.834 78.802L49.525 78.859C49.3972 78.8741 49.2686 78.8804 49.14 78.878L49.139 78.879ZM49.444 77.047C49.44 76.86 49.394 76.719 49.31 76.623C49.226 76.527 49.093 76.478 48.921 76.478C48.742 76.478 48.604 76.528 48.501 76.631C48.398 76.734 48.345 76.871 48.337 77.047H49.444ZM47.254 78.806H46.338V74.925H47.254V78.806ZM46.17 77.368C46.17 77.814 46.048 78.177 45.811 78.452C45.574 78.727 45.277 78.86 44.93 78.86C44.785 78.86 44.655 78.845 44.548 78.814C44.4267 78.7786 44.3102 78.7285 44.201 78.665V79.833H43.285V76.006H44.201V76.3C44.3271 76.1948 44.4654 76.1052 44.613 76.033C44.7646 75.9618 44.9305 75.9266 45.098 75.93C45.438 75.93 45.701 76.06 45.888 76.315C46.075 76.57 46.17 76.926 46.17 77.368ZM45.231 77.383C45.231 77.112 45.185 76.914 45.097 76.792C45.009 76.67 44.872 76.605 44.685 76.605C44.6023 76.6064 44.5202 76.6192 44.441 76.643C44.361 76.666 44.281 76.708 44.201 76.757V78.165C44.251 78.184 44.304 78.199 44.361 78.207C44.418 78.215 44.491 78.218 44.571 78.218C44.792 78.218 44.96 78.149 45.067 78.012C45.174 77.875 45.231 77.665 45.231 77.382V77.383ZM42.003 78.806V77.406L41.995 77.059C41.991 76.964 41.976 76.887 41.949 76.826C41.922 76.765 41.88 76.723 41.827 76.696C41.7534 76.6649 41.6738 76.6506 41.594 76.654C41.5233 76.6551 41.4534 76.6693 41.388 76.696C41.3108 76.7316 41.2369 76.7737 41.167 76.822V78.806H40.244V77.406L40.236 77.059C40.2322 76.9791 40.2153 76.9004 40.186 76.826C40.162 76.7695 40.1188 76.7234 40.064 76.696C39.9918 76.6649 39.9135 76.6505 39.835 76.654C39.7599 76.6553 39.686 76.6723 39.618 76.704C39.545 76.7378 39.4748 76.7772 39.408 76.822V78.806H38.492V76.005H39.408V76.314C39.557 76.192 39.698 76.1 39.832 76.032C39.9701 75.9622 40.1232 75.9269 40.278 75.929C40.457 75.929 40.618 75.971 40.755 76.051C40.892 76.131 40.992 76.253 41.064 76.413C41.2162 76.2744 41.384 76.1539 41.564 76.054C41.7098 75.9724 41.8739 75.9291 42.041 75.928C42.1657 75.9258 42.2897 75.9464 42.407 75.989C42.512 76.029 42.6061 76.093 42.682 76.176C42.7634 76.27 42.8256 76.379 42.865 76.497C42.907 76.623 42.926 76.783 42.926 76.982V78.806H42.003ZM38.111 78.806H37.195V76.005H38.111V78.806ZM38.138 75.608H37.169V74.925H38.138V75.608ZM35.379 78.874C35.078 78.874 34.818 78.843 34.589 78.79C34.36 78.737 34.154 78.668 33.959 78.588V77.703H34.051C34.246 77.863 34.459 77.982 34.696 78.069C34.9161 78.15 35.1484 78.1926 35.383 78.195C35.44 78.195 35.513 78.187 35.604 78.18C35.6798 78.1707 35.7541 78.1515 35.825 78.123C35.8906 78.0973 35.9494 78.057 35.997 78.005C36.0217 77.9785 36.0408 77.9474 36.0532 77.9133C36.0655 77.8793 36.0709 77.8431 36.069 77.807C36.0701 77.7624 36.0603 77.7182 36.0404 77.6783C36.0206 77.6384 35.9912 77.6039 35.955 77.578C35.8721 77.5189 35.7788 77.4761 35.68 77.452L35.253 77.357C35.1098 77.3275 34.9682 77.2904 34.829 77.246C34.528 77.147 34.31 77.009 34.18 76.838C34.05 76.667 33.985 76.453 33.985 76.193C33.985 75.846 34.138 75.567 34.447 75.35C34.756 75.133 35.141 75.029 35.603 75.029C35.8359 75.0276 36.0684 75.0493 36.297 75.094C36.525 75.14 36.732 75.201 36.911 75.277V76.124H36.827C36.667 75.9975 36.4882 75.8969 36.297 75.826C36.0914 75.7455 35.8727 75.7041 35.652 75.704C35.5753 75.7028 35.4988 75.7078 35.423 75.719C35.3487 75.7316 35.2766 75.7548 35.209 75.788C35.1473 75.8146 35.0926 75.855 35.049 75.906C35.0054 75.9541 34.9822 76.0171 34.984 76.082C34.984 76.177 35.018 76.25 35.087 76.307C35.156 76.364 35.297 76.414 35.499 76.46L35.877 76.54C36.0085 76.5701 36.1383 76.6072 36.266 76.651C36.537 76.743 36.739 76.868 36.869 77.025C36.999 77.182 37.067 77.391 37.067 77.647C37.067 78.017 36.914 78.315 36.609 78.536C36.304 78.757 35.895 78.876 35.377 78.876L35.379 78.874ZM95.106 72.564H69.926V36.659H79.4V65.723H95.105L95.106 72.564ZM67.454 54.638C67.454 57.98 66.687 60.976 65.149 63.62C63.611 66.264 61.669 68.294 59.323 69.71C57.3726 70.9144 55.1962 71.7067 52.928 72.038C50.623 72.385 48.17 72.557 45.568 72.557H33.766V36.647H45.469C48.121 36.647 50.601 36.807 52.913 37.132C55.2223 37.4532 57.4399 38.2496 59.426 39.471C61.8857 40.9594 63.9119 43.0673 65.302 45.584C66.737 48.148 67.454 51.17 67.454 54.642V54.638ZM57.728 54.566C57.728 52.2 57.301 50.178 56.446 48.499C55.591 46.82 54.283 45.504 52.508 44.554C51.26 43.8893 49.8795 43.5111 48.467 43.447L43.415 43.348H43.236V65.83H43.415L48.799 65.719C50.257 65.647 51.645 65.215 52.966 64.429C54.519 63.498 55.702 62.208 56.511 60.571C57.32 58.934 57.728 56.927 57.728 54.565V54.566ZM15.687 73.201C12.799 73.201 10.261 72.934 8.07496 72.404C5.88896 71.874 3.85896 71.214 1.98096 70.428V61.889H2.84296C4.73596 63.419 6.81896 64.59 9.10096 65.411C11.383 66.232 13.592 66.643 15.736 66.643C16.278 66.643 16.991 66.586 17.877 66.471C18.763 66.356 19.476 66.181 20.018 65.941C20.6517 65.6856 21.222 65.2948 21.689 64.796C22.147 64.303 22.372 63.659 22.372 62.854C22.372 61.954 22.002 61.225 21.258 60.66C20.514 60.095 19.629 59.687 18.599 59.428L14.482 58.512C13.098 58.2431 11.7321 57.8888 10.392 57.451C7.46896 56.47 5.37396 55.15 4.11096 53.498C2.84796 51.846 2.21096 49.766 2.21096 47.275C2.21096 43.913 3.70296 41.193 6.69396 39.11C9.68496 37.027 13.413 35.985 17.889 35.985C20.1381 35.985 22.382 36.2034 24.589 36.637C26.809 37.072 28.798 37.66 30.557 38.4V46.6H29.721C28.317 45.459 26.607 44.494 24.589 43.704C22.571 42.914 20.499 42.521 18.37 42.521C17.6237 42.5143 16.8783 42.5718 16.142 42.693C15.425 42.8249 14.7267 43.0428 14.062 43.342C13.4702 43.6019 12.9465 43.9951 12.532 44.491C12.101 44.999 11.883 45.563 11.883 46.189C11.883 47.105 12.226 47.834 12.909 48.372C13.592 48.91 14.916 49.398 16.873 49.833L20.536 50.627C21.707 50.886 22.963 51.238 24.298 51.688C26.912 52.588 28.862 53.798 30.136 55.32C31.41 56.842 32.048 58.842 32.048 61.337C32.048 64.905 30.575 67.774 27.629 69.945C24.683 72.116 20.7 73.2 15.686 73.2L15.687 73.201Z" fill="#173354"/>
<path fill-rule="evenodd" clip-rule="evenodd" d="M31.1628 89.112C30.9298 89.112 30.7388 89.276 30.7388 89.478C30.7388 89.68 30.9298 89.848 31.1628 89.848C31.3958 89.848 31.5828 89.68 31.5828 89.478C31.5828 89.276 31.3958 89.112 31.1628 89.112ZM49.2638 92.405C48.9018 92.405 48.6038 92.661 48.6038 92.977C48.6038 93.293 48.9018 93.553 49.2638 93.553C49.6258 93.553 49.9238 93.297 49.9238 92.977C49.9238 92.657 49.6298 92.405 49.2638 92.405ZM39.8698 91.161C39.5798 91.161 39.3428 91.367 39.3428 91.623C39.3428 91.879 39.5798 92.081 39.8698 92.081C40.1598 92.081 40.3998 91.875 40.3998 91.623C40.3998 91.371 40.1628 91.161 39.8698 91.161ZM59.5548 92.775C59.1008 92.775 58.7308 93.096 58.7308 93.492C58.7308 93.888 59.1008 94.209 59.5548 94.209C60.0088 94.209 60.3788 93.888 60.3788 93.492C60.3788 93.096 60.0088 92.775 59.5548 92.775ZM70.1818 92.222C69.6098 92.222 69.1478 92.623 69.1478 93.119C69.1478 93.615 69.6098 94.016 70.1818 94.016C70.7538 94.016 71.2118 93.612 71.2118 93.119C71.2118 92.626 70.7498 92.222 70.1818 92.222ZM80.8278 90.398C80.1178 90.398 79.5418 90.898 79.5418 91.52C79.5418 92.142 80.1178 92.638 80.8278 92.638C81.5378 92.638 82.1178 92.138 82.1178 91.52C82.1178 90.902 81.5418 90.398 80.8278 90.398ZM91.4848 87.059C90.5958 87.059 89.8748 87.689 89.8748 88.463C89.8748 89.237 90.5958 89.863 91.4848 89.863C92.3738 89.863 93.0988 89.233 93.0988 88.463C93.0988 87.693 92.3738 87.059 91.4848 87.059ZM101.688 82.621C100.7 82.621 99.8978 83.315 99.8978 84.178C99.8978 85.041 100.699 85.735 101.688 85.735C102.677 85.735 103.478 85.037 103.478 84.178C103.478 83.319 102.677 82.621 101.688 82.621ZM110.991 76.237C109.892 76.237 108.999 77.012 108.999 77.965C108.999 78.918 109.892 79.697 110.991 79.697C112.09 79.697 112.979 78.922 112.979 77.965C112.979 77.008 112.09 76.237 110.991 76.237ZM118.66 67.255C117.229 67.255 116.073 68.262 116.073 69.506C116.073 70.75 117.229 71.753 118.66 71.753C120.091 71.753 121.247 70.746 121.247 69.506C121.247 68.266 120.087 67.255 118.66 67.255ZM121.953 57.937C120.854 57.937 119.965 58.712 119.965 59.669C119.965 60.626 120.854 61.397 121.953 61.397C123.052 61.397 123.945 60.622 123.945 59.669C123.945 58.716 123.056 57.937 121.953 57.937ZM120.843 52.122C121.629 52.122 122.266 51.569 122.266 50.89C122.266 50.211 121.629 49.654 120.843 49.654C120.057 49.654 119.424 50.207 119.424 50.89C119.424 51.573 120.061 52.122 120.843 52.122ZM117.375 45.403C117.936 45.403 118.39 45.01 118.39 44.522C118.39 44.034 117.932 43.641 117.375 43.641C116.818 43.641 116.356 44.034 116.356 44.522C116.356 45.01 116.814 45.403 117.375 45.403ZM113.556 39.767C113.186 39.767 112.881 40.034 112.881 40.358C112.881 40.682 113.186 40.946 113.556 40.946C113.926 40.946 114.235 40.683 114.235 40.358C114.235 40.033 113.93 39.767 113.556 39.767ZM109.496 37.459C109.744 37.459 109.946 37.283 109.946 37.07C109.946 36.857 109.744 36.677 109.496 36.677C109.248 36.677 109.046 36.853 109.046 37.07C109.046 37.287 109.248 37.459 109.496 37.459Z" fill="#173354"/>
<defs>
<radialGradient id="paint0_radial_3_7245" cx="0" cy="0" r="1" gradientUnits="userSpaceOnUse" gradientTransform="translate(115.655 74.1653) rotate(-117.075) scale(40.1603 68.0961)">
<stop stop-color="#656F71"/>
<stop offset="1" stop-color="#D3D4CF"/>
</radialGradient>
</defs>
</svg>
