<svg width="128" height="128" viewBox="0 0 128 128" fill="none" xmlns="http://www.w3.org/2000/svg">
<path d="M101.84 41.72V86L64.1798 108.32L63.8398 108.63V125.2L64.1798 125.52L117.18 94.88V33.12L116.68 33L101.68 41.36L101.76 41.72" fill="#2F406A"/>
<path d="M26.3998 86.4L64.1798 108.32V125.52L10.7798 94.76V33.24L11.3298 33.16L26.2398 41.83L26.3998 42.33V86.4Z" fill="#2F406A"/>
<path d="M26.3998 42.32L10.7798 33.24L64.0598 2.47998L117.22 33.12L101.84 41.72L64.0598 20.16L26.3998 42.32ZM30.0598 84V65.9L30.4698 66.14L44.9998 74.59L45.1198 74.66V92.19L30.0598 84ZM83.2698 92.6V75L83.3698 74.95L97.6398 66.6L98.0798 66.34V83.84L83.2698 92.6ZM64.8498 103.46L64.4398 103.04V86L64.9498 85.82L79.2198 77.5L79.6598 77.25V94.7L64.8598 103.46" fill="#2F406A"/>
<path d="M49.7996 95.2299V77.1699L50.2096 77.3999L64.7196 85.8499L64.8396 103.46L49.7996 95.2299ZM63.2896 22.9399L48.4796 31.6999L63.5296 40.4599L78.3296 31.8199L63.2896 22.9399ZM30.0596 60.3599V42.5499H30.4696L44.9996 50.9999L45.1196 51.3299V68.5899L30.0596 60.3599Z" fill="#2F406A"/>
<path d="M44.8596 33.7999L30.0596 42.5599L45.1096 51.3199L59.9096 42.6799L44.8596 33.7999ZM83.2696 68.9999V51.6999L83.3696 51.2899L97.6396 42.9999L98.0796 43.0999V60.2099L83.2696 68.9999Z" fill="#2F406A"/>
<path d="M82.9999 34.21L68.2199 43L83.2699 51.76L98.0699 43.12L82.9999 34.21ZM64.8499 79.85L64.4399 79.43V62.79L64.8499 62.58L64.9499 62.17L79.2199 53.85L79.6599 53.95V71.09L64.8599 79.85" fill="#2F406A"/>
<path d="M49.7998 71.6299V53.8199H50.2098L64.7198 62.2699L64.8398 62.5999V79.8499L49.7998 71.6299Z" fill="#2F406A"/>
<path d="M64.5998 45.0599L49.7998 53.8199L64.8498 62.5799L79.6498 53.9399L64.5998 45.0599Z" fill="#2F406A"/>
</svg>
