<svg width="128" height="128" viewBox="0 0 128 128" fill="none" xmlns="http://www.w3.org/2000/svg">
<path d="M32.51 56.94V71L20.57 78L20.46 78.1V83.4L20.57 83.5L37.38 73.79V54.21H37.22L32.48 56.86V56.97" fill="#2F406A"/>
<path d="M8.59014 71.1L20.5901 78.05V83.5L3.64014 73.75V54.25H3.81014L8.54014 57L8.59014 57.16V71.16" fill="#2379BD"/>
<path d="M8.58984 57.13L3.58984 54.25L20.5298 44.5L37.3798 54.21L32.5098 56.94L20.5098 50.11L8.56984 57.11" fill="#03AFEF"/>
<path d="M20.36 69.49L20.23 69.36V64.09L20.36 64.02V63.89L24.88 61.25H25.02V66.69L20.33 69.47" fill="#2F406A"/>
<path d="M15.5898 66.89V61.24H15.7198L20.3198 63.92V69.5L15.5498 66.89" fill="#2379BD"/>
<path d="M20.2798 58.4699L15.5898 61.2499L20.3598 63.9999L25.0498 61.2599L20.2798 58.4399" fill="#03AFEF"/>
<path d="M14.5201 72.9399L14.3901 72.8099V67.5299L14.5201 67.4599V67.3299L19.0401 64.6899H19.1801V70.1299L14.4901 72.9099" fill="#2F406A"/>
<path d="M9.75 70.3301V64.6801H9.88L14.48 67.3601V72.9401L9.75 70.3301Z" fill="#2379BD"/>
<path d="M14.45 61.91L9.75 64.68L14.52 67.46L19.21 64.72L14.44 61.9" fill="#03AFEF"/>
<path d="M26.6202 73.0699L26.4902 72.9399V67.66L26.6202 67.5899V67.4599L31.1402 64.8199H31.2802V70.2599L26.5902 73.0399" fill="#2F406A"/>
<path d="M21.8501 70.4601V64.8101H22.0001L26.6001 67.4901V73.0701L21.8301 70.4601" fill="#2379BD"/>
<path d="M26.5401 62L21.8501 64.78L26.6201 67.56L31.3101 64.82L26.5401 62Z" fill="#03AFEF"/>
<path d="M20.7799 76.51L20.6499 76.38V71.1L20.7799 71.03V70.9L25.2999 68.26H25.4399V73.7L20.7499 76.48" fill="#2F406A"/>
<path d="M16 73.9V68.26H16.13L20.73 70.94V76.52L16 73.9Z" fill="#2379BD"/>
<path d="M20.7 65.48L16 68.26L20.78 71L25.47 68.26L20.7 65.48Z" fill="#03AFEF"/>
<path d="M20.36 62L20.23 61.87V56.61L20.36 56.54V56.41L24.88 53.77H25.02V59.21L20.36 62Z" fill="#2F406A"/>
<path d="M15.5898 59.41V53.76H15.7198L20.3198 56.44V62L15.5498 59.39" fill="#2379BD"/>
<path d="M20.2798 51L15.5898 53.78L20.3598 56.56L25.0498 53.82L20.2798 51Z" fill="#03AFEF"/>
<path d="M14.5201 65.45L14.3901 65.32V60L14.5201 59.93V59.8L19.0401 57.16H19.1801V62.6L14.4901 65.38" fill="#2F406A"/>
<path d="M9.75 62.8499V57.2H9.88L14.48 59.88V65.4599L9.75 62.8499Z" fill="#2379BD"/>
<path d="M14.45 54.4301L9.75 57.2001L14.52 60.0001L19.21 57.2601L14.44 54.4401" fill="#03AFEF"/>
<path d="M26.6202 65.58L26.4902 65.45V60.18L26.6202 60.11V59.98L31.1402 57.34H31.2802V62.78L26.5902 65.56" fill="#2F406A"/>
<path d="M21.8501 63V57.33H22.0001L26.5801 60V65.58L21.8501 63Z" fill="#2379BD"/>
<path d="M26.5401 54.5601L21.8501 57.3401L26.6201 60.1201L31.3101 57.3801L26.5401 54.5601Z" fill="#03AFEF"/>
<path d="M20.7799 69L20.6499 68.87V63.62L20.7799 63.55V63.42L25.2999 60.78H25.4399V66.22L20.7799 69Z" fill="#2F406A"/>
<path d="M16 66.42V60.77H16.13L20.73 63.45V69L16 66.42Z" fill="#2379BD"/>
<path d="M20.7 58L16 60.77L20.77 63.55L25.46 60.81L20.7 58Z" fill="#03AFEF"/>
<path d="M45.82 56.5601C43.72 56.5601 42.67 57.3501 42.67 58.9301C42.624 59.2697 42.666 59.6154 42.7921 59.9342C42.9182 60.2529 43.1241 60.5338 43.39 60.7501C44.3096 61.2398 45.3025 61.5775 46.33 61.7501C47.4584 61.9214 48.5325 62.349 49.47 63.0001C49.8038 63.3379 50.0592 63.7451 50.2182 64.1927C50.3772 64.6402 50.4358 65.1173 50.39 65.5901C50.39 68.5701 48.8433 70.0601 45.75 70.0601C44.4628 70.0353 43.1793 69.915 41.91 69.7001L41.15 69.6001L41.32 68.2601C42.7609 68.4746 44.2136 68.6015 45.67 68.6401C47.7433 68.6401 48.78 67.6667 48.78 65.7201C48.8135 65.3998 48.7691 65.0762 48.6507 64.7767C48.5323 64.4773 48.3434 64.2108 48.1 64.0001C47.3184 63.5388 46.4505 63.2427 45.55 63.1301C44.3016 62.942 43.11 62.4811 42.06 61.7801C41.6829 61.4282 41.3914 60.9948 41.2076 60.513C41.0239 60.0311 40.9529 59.5136 41 59.0001C41 56.3934 42.56 55.0901 45.68 55.0901C46.9125 55.1055 48.1423 55.2091 49.36 55.4001L50.07 55.5101L50 56.9101C48.6138 56.7194 47.2185 56.6026 45.82 56.5601ZM60.06 68.5901L60.67 68.5301V69.7701C59.3126 69.9764 57.9428 70.09 56.57 70.1101C55.9685 70.1714 55.3613 70.084 54.8015 69.8555C54.2418 69.6271 53.7468 69.2647 53.36 68.8001C52.6342 67.5689 52.3027 66.1451 52.41 64.7201C52.41 61.0401 53.8733 59.2001 56.8 59.2001C57.3866 59.1475 57.9776 59.2251 58.5308 59.4273C59.0839 59.6296 59.5856 59.9515 60 60.3701C60.7884 61.4461 61.1613 62.7708 61.05 64.1001L61 65.2901H54.05C53.9832 66.1949 54.2036 67.0978 54.68 67.8701C54.9527 68.1732 55.2933 68.4073 55.674 68.5533C56.0547 68.6993 56.4645 68.753 56.87 68.7101C57.9166 68.7101 58.98 68.6701 60.06 68.5901ZM59.49 64.0001C59.5747 63.0476 59.3578 62.0925 58.87 61.2701C58.6225 60.9895 58.3126 60.7709 57.9652 60.632C57.6178 60.493 57.2427 60.4376 56.87 60.4701C56.4791 60.4414 56.0869 60.5021 55.723 60.6477C55.3591 60.7932 55.0332 61.0197 54.77 61.3101C54.2163 62.0938 53.9449 63.0421 54 64.0001H59.49ZM67 70.1001C66.4371 70.1493 65.8707 70.0624 65.3485 69.8465C64.8263 69.6307 64.3638 69.2923 64 68.8601C63.2815 67.5833 62.9644 66.1197 63.09 64.6601C62.9518 63.1695 63.3372 61.6773 64.18 60.4401C64.9066 59.6001 66.1933 59.1801 68.04 59.1801L71.55 59.3901V74.5501H70V69.4101C69.0648 69.8634 68.0392 70.0992 67 70.1001ZM68 60.5401C67.5057 60.4784 67.0039 60.5372 66.5373 60.7113C66.0706 60.8854 65.653 61.1697 65.32 61.5401C64.7783 62.4933 64.5345 63.587 64.62 64.6801C64.5419 65.7429 64.7417 66.8078 65.2 67.7701C65.4094 68.0856 65.7003 68.3386 66.0418 68.5024C66.3834 68.6661 66.7628 68.7344 67.14 68.7001C67.9682 68.6985 68.7889 68.5425 69.56 68.2401L69.94 68.0901V60.6701C69.0933 60.5901 68.4466 60.5501 68 60.5501V60.5401ZM81.12 59.3901H82.7V69.8901H81.12V69.1601C80.1866 69.7552 79.1068 70.0805 78 70.1001C76.5733 70.1001 75.6233 69.7301 75.15 68.9901C74.5724 67.6979 74.3316 66.2805 74.45 64.8701V59.3901H76V64.8501C75.9246 65.8899 76.0607 66.9342 76.4 67.9201C76.6666 68.4401 77.27 68.7001 78.21 68.7001C78.6869 68.6982 79.1613 68.6309 79.62 68.5001C79.9943 68.4031 80.3591 68.2726 80.71 68.1101L81.09 67.9201L81.12 59.3901ZM92.86 68.5901L93.47 68.5301V69.7701C92.1126 69.9764 90.7428 70.09 89.37 70.1101C88.7685 70.1714 88.1613 70.084 87.6015 69.8555C87.0418 69.6271 86.5468 69.2647 86.16 68.8001C85.4342 67.5689 85.1027 66.1451 85.21 64.7201C85.21 61.0401 86.6733 59.2001 89.6 59.2001C90.1832 59.1545 90.7694 59.2375 91.3171 59.4431C91.8648 59.6487 92.3607 59.972 92.77 60.3901C93.5584 61.4661 93.9313 62.7908 93.82 64.1201L93.74 65.3201H86.85C86.7832 66.2249 87.0036 67.1278 87.48 67.9001C87.7527 68.2032 88.0933 68.4373 88.474 68.5833C88.8547 68.7293 89.2645 68.783 89.67 68.7401C90.7166 68.7201 91.78 68.6701 92.86 68.5901ZM92.29 64.0001C92.3747 63.0476 92.1578 62.0925 91.67 61.2701C91.4225 60.9895 91.1126 60.7709 90.7652 60.632C90.4178 60.493 90.0427 60.4376 89.67 60.4701C89.2791 60.4414 88.8869 60.5021 88.523 60.6477C88.1591 60.7932 87.8332 61.0197 87.57 61.3101C87.0269 62.0976 86.7661 63.0456 86.83 64.0001H92.29ZM96.45 69.8901V54.8101H98V69.8901H96.45ZM101.17 57.0001V55.1901H102.74V57.0001H101.17ZM101.17 69.8701V59.3901H102.74V69.8901L101.17 69.8701ZM105.14 60.8001V59.3901H112.93V60.8001L107.05 68.4901H112.93V69.9001H105.14V68.4801L111 60.8001H105.14ZM122.41 68.5901L123.02 68.5301V69.7701C121.663 69.9764 120.293 70.09 118.92 70.1101C118.319 70.1714 117.711 70.084 117.152 69.8555C116.592 69.6271 116.097 69.2647 115.71 68.8001C114.984 67.5689 114.653 66.1451 114.76 64.7201C114.76 61.0401 116.223 59.2001 119.15 59.2001C119.733 59.1545 120.319 59.2375 120.867 59.4431C121.415 59.6487 121.911 59.972 122.32 60.3901C123.108 61.4661 123.481 62.7908 123.37 64.1201L123.29 65.3201H116.4C116.333 66.2249 116.554 67.1278 117.03 67.9001C117.303 68.2032 117.643 68.4373 118.024 68.5833C118.405 68.7293 118.815 68.783 119.22 68.7401C120.267 68.7201 121.33 68.6701 122.41 68.5901ZM121.84 64.0001C121.925 63.0476 121.708 62.0925 121.22 61.2701C120.972 60.9895 120.663 60.7709 120.315 60.632C119.968 60.493 119.593 60.4376 119.22 60.4701C118.829 60.4414 118.437 60.5021 118.073 60.6477C117.709 60.7932 117.383 61.0197 117.12 61.3101C116.584 62.1001 116.33 63.0479 116.4 64.0001H121.84Z" fill="#2F406A"/>
</svg>
