<svg width="128" height="128" viewBox="0 0 128 128" fill="none" xmlns="http://www.w3.org/2000/svg">
<path d="M101.84 41.72V86L64.1798 108.32L63.8398 108.63V125.2L64.1798 125.52L117.18 94.88V33.12L116.68 33L101.68 41.36L101.76 41.72" fill="#2F406A"/>
<path d="M26.3998 86.4L64.1798 108.32V125.52L10.7798 94.76V33.24L11.3298 33.16L26.2398 41.83L26.3998 42.33V86.4Z" fill="#2379BD"/>
<path d="M26.3998 42.32L10.7798 33.24L64.0598 2.47998L117.22 33.12L101.84 41.72L64.0598 20.16L26.3998 42.32Z" fill="#03AFEF"/>
<path d="M63.5301 81.33L63.1201 80.91V64.27L63.5301 64.06L63.6301 63.65L77.9001 55.33L78.3401 55.43V72.58L63.5401 81.34" fill="#2F406A"/>
<path d="M48.48 73.1101V55.3H48.89L63.4 63.75L63.52 64.0801V81.3301L48.48 73.1101Z" fill="#2379BD"/>
<path d="M63.29 46.54L48.48 55.3L63.53 64.06L78.33 55.42L63.29 46.54Z" fill="#03AFEF"/>
<path d="M45.1102 92.1899L44.7002 91.7699V75.1299L45.1102 74.9199L45.2102 74.5099L59.4802 66.1899L59.9202 66.2899V83.4299L45.1202 92.1899" fill="#2F406A"/>
<path d="M30.0601 84V66.16H30.4701L45.0001 74.59L45.1201 74.92V92.19L30.0601 84Z" fill="#2379BD"/>
<path d="M44.8601 57.4L30.0601 66.16L45.1101 74.92L59.9101 66.28L44.8601 57.4Z" fill="#03AFEF"/>
<path d="M83.2699 92.6L82.8599 92.18V75.54L83.2699 75.33L83.3699 74.92L97.6399 66.6L98.0799 66.7V83.84L83.2699 92.6Z" fill="#2F406A"/>
<path d="M68.2202 84.3799V66.5699H68.6302L83.1502 74.9999L83.2702 75.3299V92.5999L68.2202 84.3799Z" fill="#2379BD"/>
<path d="M83.0002 57.8101L68.2002 66.5701L83.2502 75.3301L98.0502 66.6901L83.0002 57.8101Z" fill="#03AFEF"/>
<path d="M64.8499 103.46L64.4399 103.04V86.4L64.8499 86.19L64.9499 85.78L79.2199 77.46L79.6599 77.56V94.7L64.8599 103.46" fill="#2F406A"/>
<path d="M49.7998 95.2301V77.4301H50.2098L64.7198 85.8801L64.8398 86.2101V103.48L49.7998 95.2301Z" fill="#2379BD"/>
<path d="M64.5998 68.67L49.7998 77.43L64.8498 86.19L79.6498 77.55L64.5998 68.67Z" fill="#03AFEF"/>
<path d="M63.5301 57.73L63.1201 57.31V40.67L63.5301 40.46L63.6301 40.05L77.9001 31.72L78.3401 31.82V49L63.5401 57.76" fill="#2F406A"/>
<path d="M48.48 49.5V31.7H48.89L63.4 40.15L63.52 40.4799V57.7299L48.48 49.5Z" fill="#2379BD"/>
<path d="M63.29 22.9399L48.48 31.6999L63.53 40.4599L78.33 31.8199L63.29 22.9399Z" fill="#03AFEF"/>
<path d="M45.1102 68.59L44.7002 68.17V51.53L45.1102 51.32L45.2102 50.91L59.4802 42.59L59.9202 42.69V59.83L45.1202 68.59" fill="#2F406A"/>
<path d="M30.0601 60.3601V42.55H30.4701L45.0001 51L45.1201 51.3301V68.59L30.0601 60.3601Z" fill="#2379BD"/>
<path d="M44.8601 33.8L30.0601 42.5601L45.1101 51.32L59.9101 42.68L44.8601 33.8Z" fill="#03AFEF"/>
<path d="M83.2699 69L82.8599 68.58V51.94L83.2699 51.73L83.3699 51.32L97.6399 43L98.0799 43.1V60.24L83.2699 69Z" fill="#2F406A"/>
<path d="M68.2202 60.77V43H68.6302L83.1402 51.45L83.2602 51.78V69L68.2202 60.77Z" fill="#2379BD"/>
<path d="M83.0002 34.21L68.2202 43L83.2702 51.76L98.0702 43.12L83.0002 34.21Z" fill="#03AFEF"/>
<path d="M64.8499 79.85L64.4399 79.43V62.79L64.8499 62.58L64.9499 62.17L79.2199 53.85L79.6599 53.95V71.09L64.8599 79.85" fill="#2F406A"/>
<path d="M49.7998 71.6299V53.8199H50.2098L64.7198 62.2699L64.8398 62.5999V79.8499L49.7998 71.6299Z" fill="#2379BD"/>
<path d="M64.5998 45.0601L49.7998 53.8201L64.8498 62.5801L79.6498 53.9401L64.5998 45.0601Z" fill="#03AFEF"/>
</svg>
