<svg width="128" height="128" viewBox="0 0 128 128" fill="none" xmlns="http://www.w3.org/2000/svg">
<path d="M46.2901 56.5601C44.1901 56.5601 43.1401 57.3501 43.1401 58.9301C43.0941 59.2697 43.1362 59.6154 43.2623 59.9341C43.3884 60.2528 43.5942 60.5338 43.8601 60.7501C44.7798 61.2398 45.7726 61.5775 46.8001 61.7501C47.932 61.9199 49.0098 62.3476 49.9501 63.0001C50.284 63.3379 50.5394 63.7451 50.6984 64.1927C50.8574 64.6402 50.916 65.1173 50.8701 65.59C50.8701 68.57 49.3235 70.0601 46.2301 70.0601C44.943 70.0353 43.6595 69.915 42.3901 69.7001L41.6301 69.6001L41.8001 68.2601C43.2411 68.4746 44.6938 68.6015 46.1501 68.6401C48.2235 68.6401 49.2601 67.6667 49.2601 65.7201C49.2924 65.399 49.2465 65.0748 49.1264 64.7753C49.0062 64.4758 48.8154 64.2098 48.5701 64.0001C47.7794 63.5503 46.9046 63.2677 46.0001 63.1701C44.7517 62.982 43.5601 62.5211 42.5101 61.8201C42.1439 61.4626 41.8635 61.0267 41.6903 60.5451C41.5171 60.0635 41.4555 59.5489 41.5101 59.0401C41.5101 56.4334 43.0701 55.1301 46.1901 55.1301C47.4226 55.1455 48.6524 55.249 49.8701 55.4401L50.5801 55.5501L50.4301 56.9101C49.0572 56.7208 47.6753 56.604 46.2901 56.5601ZM60.5301 68.59L61.1401 68.5301V69.7701C59.7828 69.9764 58.4129 70.09 57.0401 70.1101C56.4387 70.1714 55.8314 70.084 55.2717 69.8555C54.712 69.6271 54.2169 69.2647 53.8301 68.8001C53.1044 67.5689 52.7729 66.1451 52.8801 64.7201C52.8801 61.0401 54.3435 59.2001 57.2701 59.2001C57.8534 59.1545 58.4395 59.2375 58.9873 59.4431C59.535 59.6487 60.0309 59.9719 60.4401 60.3901C61.2285 61.4661 61.6015 62.7908 61.4901 64.1201L61.4101 65.3201H54.5201C54.4533 66.2249 54.6738 67.1278 55.1501 67.9001C55.4228 68.2032 55.7635 68.4373 56.1442 68.5833C56.5248 68.7293 56.9347 68.783 57.3401 68.7401C58.3868 68.7201 59.4501 68.67 60.5301 68.59ZM60.0001 64.0001C60.0848 63.0476 59.8679 62.0925 59.3801 61.2701C59.1327 60.9895 58.8228 60.7709 58.4754 60.632C58.128 60.493 57.7529 60.4376 57.3801 60.4701C56.9893 60.4414 56.597 60.5021 56.2332 60.6477C55.8693 60.7932 55.5434 61.0197 55.2801 61.3101C54.7229 62.0925 54.4479 63.0409 54.5001 64.0001H60.0001ZM67.4801 70.1001C66.9173 70.1493 66.3508 70.0623 65.8287 69.8465C65.3065 69.6307 64.844 69.2923 64.4801 68.8601C63.7617 67.5833 63.4446 66.1197 63.5701 64.6601C63.432 63.1695 63.8174 61.6773 64.6601 60.4401C65.3868 59.6001 66.6735 59.1801 68.5201 59.1801L72.0301 59.3901V74.5501H70.4401V69.4101C69.5171 69.8575 68.5059 70.0933 67.4801 70.1001ZM68.4801 60.5401C67.9859 60.4784 67.4841 60.5371 67.0175 60.7113C66.5508 60.8854 66.1332 61.1697 65.8001 61.5401C65.2585 62.4933 65.0147 63.587 65.1001 64.6801C65.022 65.7429 65.2219 66.8078 65.6801 67.7701C65.8896 68.0856 66.1805 68.3386 66.522 68.5024C66.8635 68.6661 67.243 68.7344 67.6201 68.7001C68.4484 68.6985 69.2691 68.5425 70.0401 68.2401L70.4201 68.09V60.6701C69.5668 60.5901 68.9301 60.5501 68.5101 60.5501L68.4801 60.5401ZM81.5901 59.3901H83.1701V69.8901H81.5901V69.1601C80.6596 69.7534 79.5835 70.0787 78.4801 70.1001C77.0535 70.1001 76.1035 69.7301 75.6301 68.9901C75.0526 67.6979 74.8118 66.2805 74.9301 64.8701V59.3901H76.5001V64.8501C76.4248 65.8899 76.5609 66.9342 76.9001 67.9201C77.1668 68.4401 77.7701 68.7001 78.7101 68.7001C79.1871 68.6982 79.6615 68.6309 80.1201 68.5001C80.4945 68.4031 80.8593 68.2726 81.2101 68.1101L81.5901 67.9201V59.3901ZM93.3301 68.59L93.9401 68.5301V69.7701C92.5828 69.9764 91.2129 70.09 89.8401 70.1101C89.2387 70.1714 88.6314 70.084 88.0717 69.8555C87.512 69.6271 87.0169 69.2647 86.6301 68.8001C85.9044 67.5689 85.5729 66.1451 85.6801 64.7201C85.6801 61.0401 87.1435 59.2001 90.0701 59.2001C90.6534 59.1545 91.2395 59.2375 91.7873 59.4431C92.335 59.6487 92.8309 59.9719 93.2401 60.3901C94.0285 61.4661 94.4015 62.7908 94.2901 64.1201L94.2101 65.3201H87.3301C87.2816 66.2192 87.5159 67.1109 88.0001 67.8701C88.2728 68.1732 88.6135 68.4073 88.9942 68.5533C89.3748 68.6993 89.7847 68.753 90.1901 68.7101C91.2035 68.7101 92.2501 68.67 93.3301 68.59ZM92.7601 64.0001C92.8448 63.0476 92.6279 62.0925 92.1401 61.2701C91.8926 60.9895 91.5827 60.7709 91.2354 60.632C90.888 60.493 90.5129 60.4376 90.1401 60.4701C89.7493 60.4414 89.3571 60.5021 88.9932 60.6477C88.6293 60.7932 88.3034 61.0197 88.0401 61.3101C87.4971 62.0976 87.2363 63.0456 87.3001 64.0001H92.7601ZM96.9201 69.8901V54.8101H98.5001V69.8901H96.9201ZM101.65 57.0001V55.1901H103.22V57.0001H101.65ZM101.65 69.8701V59.3901H103.22V69.8901L101.65 69.8701ZM105.62 60.8001V59.3901H113.41V60.8001L107.53 68.4901H113.41V69.9001H105.62V68.4801L111.5 60.7901L105.62 60.8001ZM122.88 68.59L123.49 68.5301V69.7701C122.133 69.9764 120.763 70.09 119.39 70.1101C118.789 70.1714 118.181 70.084 117.622 69.8555C117.062 69.6271 116.567 69.2647 116.18 68.8001C115.454 67.5689 115.123 66.1451 115.23 64.7201C115.23 61.0401 116.693 59.2001 119.62 59.2001C120.203 59.1545 120.79 59.2375 121.337 59.4431C121.885 59.6487 122.381 59.9719 122.79 60.3901C123.579 61.4661 123.951 62.7908 123.84 64.1201L123.76 65.3201H116.83C116.763 66.2249 116.984 67.1278 117.46 67.9001C117.733 68.2032 118.073 68.4373 118.454 68.5833C118.835 68.7293 119.245 68.783 119.65 68.7401C120.723 68.7201 121.8 68.67 122.88 68.59ZM122.31 64.0001C122.395 63.0476 122.178 62.0925 121.69 61.2701C121.443 60.9895 121.133 60.7709 120.785 60.632C120.438 60.493 120.063 60.4376 119.69 60.4701C119.299 60.4414 118.907 60.5021 118.543 60.6477C118.179 60.7932 117.853 61.0197 117.59 61.3101C117.054 62.1001 116.8 63.0479 116.87 64.0001H122.31ZM33.0001 56.9201V71.0601L21.0001 78.1701L20.8901 78.2701V83.5601L21.0001 83.6601L37.9201 73.8801V54.1801H37.7601L33.0001 56.8101V56.9301" fill="#2F406A"/>
<path d="M8.94 71.18L21 78.18V83.67L4 73.85V54.22H4.17L8.88 57L8.93 57.16V71.18" fill="#2F406A"/>
<path d="M8.93994 57.12L3.93994 54.22L20.9999 44.4L37.9999 54.18L32.9999 56.92L20.9999 50L8.99994 57.07M10.0999 70.4V64.64L10.2299 64.72L14.8599 67.42V73L10.0999 70.4ZM27.0799 73.16V67.53L31.6299 64.87L31.7699 64.79V70.38L27.0499 73.17M21.1999 76.62L21.0699 76.49V71L21.2299 70.94L25.7799 68.28L25.9199 68.2V73.78L21.1999 76.62Z" fill="#2F406A"/>
<path d="M16.4001 74.0001V68.2301L16.5301 68.3001L21.1601 71.0001V76.6201L16.4001 74.0001ZM20.7101 50.9301L16.0001 53.7301L20.8001 56.5201L25.5201 53.7601L20.7201 50.9301M10.1001 62.8701V57.1901H10.2301L14.8601 59.8901V65.5101L10.0601 62.8901" fill="#2F406A"/>
<path d="M14.8301 54.39L10.1001 57.19L14.9101 60L19.6301 57.24L14.8301 54.41M27.0801 65.62V59.98L31.6301 57.32H31.7701V62.79L27.0501 65.58" fill="#2F406A"/>
<path d="M26.9998 54.53L22.2798 57.32L27.0798 60.11L31.7998 57.35L26.9998 54.53ZM21.1998 69.09L21.0698 69V63.65L21.1998 63.58V63.45L25.7498 60.79H25.8898V66.3L21.1998 69.09Z" fill="#2F406A"/>
<path d="M16.3999 66.47V60.78H16.5299L21.1599 63.48V69.1L16.3599 66.48" fill="#2F406A"/>
<path d="M21.1299 58L16.3999 60.78L21.1999 63.57L25.9199 60.81L21.1299 58Z" fill="#2F406A"/>
</svg>
