<svg width="128" height="128" viewBox="0 0 128 128" fill="none" xmlns="http://www.w3.org/2000/svg">
<path d="M99.8502 115.41C89.8902 122.3 77.8602 126.38 64.8702 126.52C30.7302 126.89 2.23023 99.44 1.38023 65.3C0.500231 29.87 28.9502 0.880005 64.1802 0.880005C79.9902 0.880005 94.4302 6.72001 105.46 16.35C106.46 17.22 105.73 18.85 104.42 18.7C82.3502 16.11 60.7502 18.52 47.0802 29.13C31.3002 41.38 29.8002 59.97 38.9002 76.34C51.7402 99.44 80.1802 99.67 99.8502 113.16C100.64 113.7 100.64 114.87 99.8502 115.41Z" fill="#179EFF"/>
<path d="M127 63.7C127 72.24 125.3 80.38 122.21 87.8C106.4 79.35 89.5703 73.59 82.0203 70.77C73.1003 67.42 65.2903 58.12 70.5003 49.95C75.7103 41.78 88.7103 40.29 104.7 44.37C111.52 46.12 117.83 50.59 123.58 55.92C125.73 57.92 127 60.71 127.01 63.65C127 63.67 127 63.68 127 63.7Z" fill="#179EFF"/>
</svg>
