<svg width="128" height="128" viewBox="0 0 128 128" fill="none" xmlns="http://www.w3.org/2000/svg">
<path d="M38.91 63.7399C37.78 63.2599 36.86 62.7999 36.86 62.0799C36.86 61.5799 37.44 61.0699 38.43 61.0699C39.27 61.0799 40.1 61.2699 40.86 61.6299C41.12 61.7699 41.45 61.6699 41.6 61.4099L41.97 60.6199C42.1 60.3199 42 59.9599 41.73 59.7799C40.725 59.2008 39.5796 58.9102 38.42 58.9399C35.68 58.9399 34.54 60.5999 34.54 62.0199C34.54 63.8599 35.99 64.8099 37.72 65.6099C39.29 66.2999 40.15 66.8099 40.15 67.5599C40.15 68.2099 39.62 68.6599 38.68 68.6599C37.68 68.6599 36.7 68.3699 35.86 67.8199C35.7426 67.7428 35.5998 67.7143 35.4618 67.7404C35.3237 67.7665 35.2012 67.8452 35.12 67.9599L34.62 69.0199C34.53 69.2299 34.61 69.4799 34.81 69.5999C35.91 70.3499 37.21 70.7599 38.54 70.7599C41.07 70.7599 42.59 69.2199 42.59 67.4499C42.55 65.3999 40.98 64.6299 38.91 63.7399Z" fill="#189EFF"/>
<path d="M23.9002 73.97C22.7402 73.1 21.0602 72.45 19.2502 71.76C17.1102 70.94 14.6702 70 12.8702 68.53C11.8897 67.7979 11.0997 66.8405 10.5671 65.7388C10.0345 64.637 9.7749 63.4233 9.81023 62.2C9.78662 61.0789 10.03 59.9682 10.5204 58.9598C11.0107 57.9513 11.7339 57.0739 12.6302 56.4C14.7002 54.76 17.8302 53.92 21.6802 53.92C22.6902 53.92 23.7102 53.98 24.7102 54.11C24.8002 54.12 24.8802 54.07 24.9002 53.99C24.9502 53.92 24.9202 53.82 24.8502 53.77C19.4102 48.87 11.0402 49.31 6.15022 54.75C1.26022 60.19 1.70022 68.57 7.14022 73.46C9.57022 75.65 12.7202 76.86 15.9902 76.86C18.8302 76.87 21.5902 75.96 23.8602 74.26C23.9002 74.22 23.9302 74.17 23.9302 74.11C23.9602 74.07 23.9402 74.02 23.9002 73.97Z" fill="#189EFF"/>
<path d="M29.19 62.4201C29.19 62.3701 29.16 62.3201 29.12 62.3001C26.35 60.0101 24.11 59.0701 21.39 59.0701C19.95 59.0701 18.84 59.3601 18.08 59.9401C17.45 60.4101 17.08 61.1501 17.09 61.9401C17.09 64.2001 19.89 65.2501 23.09 66.4701C24.79 67.0601 26.45 67.7801 28.05 68.6101C28.08 68.6301 28.11 68.6301 28.15 68.6301C28.18 68.6301 28.2 68.6301 28.22 68.6101C28.28 68.5901 28.32 68.5401 28.34 68.4901C28.94 66.9501 29.25 65.3101 29.25 63.6501C29.25 63.2401 29.23 62.8301 29.19 62.4201Z" fill="#189EFF"/>
<path d="M105.34 70.67C105.66 70.65 105.91 70.39 105.92 70.07V64.32C105.92 61.38 105.55 59.1 101.78 59.1C100.4 59.09 99.0198 59.32 97.7098 59.77C97.4198 59.84 97.2398 60.13 97.3098 60.41C97.3098 60.43 97.3198 60.45 97.3298 60.46L97.5698 61.42C97.5998 61.72 97.8698 61.94 98.1698 61.91C98.1898 61.91 98.2099 61.9 98.2299 61.9C99.2999 61.57 100.42 61.39 101.54 61.35C103.03 61.35 103.49 62.19 103.44 64.07C102.66 63.84 101.86 63.72 101.06 63.7C98.0298 63.7 96.3398 65.34 96.3398 67.5C96.3398 69.96 97.9099 70.81 100.12 70.81C101.93 70.81 103.8 70.78 104.58 70.74L105.34 70.67ZM103.39 68.58C103.02 69.16 101.75 69.01 100.65 68.99C99.4198 68.97 98.8098 68.53 98.8098 67.47C98.8098 66.24 99.8698 65.52 101.24 65.52C101.97 65.51 102.7 65.65 103.38 65.93V68.58H103.39ZM124.65 58.97C125.4 58.97 126 58.37 126 57.62C126 56.87 125.4 56.27 124.65 56.27C123.9 56.27 123.3 56.87 123.3 57.62C123.3 58.37 123.9 58.97 124.65 58.97C124.65 58.97 124.64 58.97 124.65 58.97ZM124.65 56.49C125.29 56.48 125.81 56.99 125.83 57.62C125.84 58.26 125.33 58.79 124.7 58.8C124.06 58.81 123.54 58.31 123.52 57.67V57.65C123.51 57.02 124.01 56.51 124.63 56.49H124.65Z" fill="#189EFF"/>
<path d="M124.19 58.3199H124.31C124.34 58.3199 124.36 58.2999 124.36 58.2699V57.7899H124.65L124.89 58.2999C124.89 58.3199 124.92 58.3199 124.94 58.3199H125.08C125.11 58.3199 125.13 58.2999 125.11 58.2699L124.85 57.7899C125.01 57.7299 125.12 57.5899 125.14 57.4199C125.142 57.3654 125.133 57.311 125.114 57.2598C125.095 57.2086 125.067 57.1617 125.029 57.1217C124.992 57.0818 124.947 57.0496 124.898 57.0269C124.848 57.0043 124.794 56.9918 124.74 56.9899H124.19C124.16 56.9899 124.14 57.0099 124.14 57.0399V58.3199C124.17 58.2999 124.17 58.3199 124.19 58.3199ZM124.36 57.1499H124.71C124.84 57.1499 124.95 57.2599 124.95 57.3899C124.95 57.5199 124.84 57.6299 124.71 57.6299H124.37L124.36 57.1499ZM50.0799 58.9699C48.8899 58.9899 47.7399 59.4099 46.8099 60.1499V55.0999C46.7989 54.963 46.7396 54.8345 46.6424 54.7374C46.5453 54.6403 46.4168 54.5809 46.2799 54.5699H44.9099C44.6199 54.5799 44.3899 54.8099 44.3799 55.0999V70.2699C44.3799 70.5599 44.6199 70.7999 44.9099 70.7999H46.2599C46.5399 70.82 46.7899 70.6199 46.8099 70.3399V62.9499C47.1152 62.4401 47.5496 62.02 48.0694 61.732C48.5892 61.4441 49.1758 61.2984 49.7699 61.3099C51.2399 61.3099 52.0299 62.4099 52.0299 64.2499V70.2399C52.0299 70.5299 52.2699 70.7699 52.5599 70.7699H53.9299C54.2199 70.7599 54.4499 70.5299 54.4599 70.2399V64.3099C54.4599 61.2399 53.2799 58.9699 50.0799 58.9699ZM78.7799 64.4399C78.6299 60.5799 77.0199 58.9699 73.3099 58.9699C71.8799 58.9999 70.4599 59.2199 69.0999 59.6399C68.7099 59.8099 68.4299 60.0099 68.4299 60.2699V74.6899C68.4299 74.9799 68.6699 75.2199 68.9599 75.2199H70.0899C70.3699 75.2499 70.6299 75.0499 70.6599 74.7599V70.6099C71.8399 70.7899 73.0299 70.8499 74.2299 70.7999C76.8499 70.7299 78.6099 68.8199 78.7599 65.5999C78.7899 65.1199 78.7899 64.6399 78.7599 64.16V64.4299L78.7799 64.4399ZM76.4199 65.6199C76.3699 67.8299 75.7499 68.7699 73.8899 68.8699C72.8669 68.8631 71.8451 68.7963 70.8299 68.6699C70.7299 68.6499 70.6899 68.5999 70.6899 68.5299V61.5699C70.6899 61.5099 70.7299 61.4499 70.7999 61.4499H70.8199C71.6399 61.2599 72.4799 61.1499 73.3199 61.1399C75.5599 61.1399 76.3299 61.4799 76.4299 64.2899L76.4199 65.6199ZM95.0099 59.2099H93.9699C93.6799 59.2099 93.2299 59.2099 93.1099 59.5499L91.2999 66.0799H91.2499L88.2099 59.2399C88.1666 59.1517 88.0975 59.0786 88.0118 59.0304C87.9261 58.9822 87.8278 58.9611 87.7299 58.9699H87.5599C87.3699 58.9699 87.1899 59.0699 87.0999 59.2399L84.0399 66.0499H83.9899L82.1499 59.5499C82.1158 59.446 82.0483 59.3562 81.9578 59.2947C81.8674 59.2332 81.7591 59.2034 81.6499 59.2099H80.1399C79.7499 59.2099 79.5799 59.4999 79.7499 59.8599L83.0599 70.5299C83.1299 70.7199 83.3199 70.8399 83.5199 70.8199H83.6599C83.8499 70.8399 84.0299 70.7299 84.0899 70.5499L87.5799 62.8499H87.6299L91.0999 70.5299C91.1999 70.6999 91.3799 70.7999 91.5799 70.7999H91.6799C91.8899 70.82 92.0899 70.7099 92.1899 70.5099L95.4199 59.8399C95.6099 59.4999 95.3899 59.2099 95.0099 59.2099ZM113.07 59.1199H112.61C112.03 59.1199 111.45 59.1499 110.92 59.1699C109.91 59.2199 109.31 59.2899 108.87 59.3399L108.27 59.4099C108.09 59.4199 107.93 59.5099 107.81 59.6499C107.744 59.7203 107.708 59.8136 107.71 59.9099V70.2599C107.71 70.5499 107.95 70.7899 108.24 70.7899H109.37C109.83 70.7899 110.16 70.7399 110.16 70.2599V61.6399C110.16 61.5699 110.26 61.4999 110.33 61.4499C110.59 61.2799 111.27 61.1599 112.62 61.1599H112.92C113.24 61.1799 113.56 61.2499 113.86 61.3799C114.11 61.4999 114.42 61.3999 114.54 61.1499C114.55 61.1399 114.55 61.1299 114.55 61.1199L115.13 60.1599C115.51 59.4099 114.15 59.1199 113.07 59.1199ZM120.84 58.9699C117.44 58.9699 115.2 61.6899 115.2 64.8599C115.2 68.0299 117.44 70.7799 120.86 70.7799C122.38 70.8299 123.87 70.3399 125.07 69.3999C125.4 69.1099 125.31 68.8899 125.12 68.6299L124.45 67.5999C124.26 67.3099 124.04 67.3799 123.77 67.5499C122.98 68.1799 122.01 68.5099 121 68.5099C120.15 68.5274 119.326 68.2173 118.699 67.6439C118.072 67.0705 117.689 66.2778 117.63 65.4299H125.44C125.71 65.4199 125.93 65.2099 125.95 64.9499C125.97 64.7599 126 64.37 126 64.16C126.08 61.38 123.9 59.0699 121.12 58.9799C121.03 58.9699 120.94 58.9699 120.84 58.9699ZM117.73 63.6199C117.9 62.1999 118.98 61.0399 120.76 61.0399C121.111 61.0244 121.462 61.0783 121.793 61.1986C122.123 61.3189 122.427 61.5033 122.686 61.7411C122.945 61.9789 123.155 62.2655 123.303 62.5844C123.451 62.9034 123.535 63.2485 123.55 63.5999V63.6199H117.73ZM66.4499 62.4699C66.2099 61.7799 65.8499 61.1399 65.3699 60.5899C64.9091 60.0754 64.343 59.6661 63.7099 59.3899C62.9799 59.0999 62.2099 58.9499 61.4299 58.9599C60.6499 58.9499 59.8699 59.0999 59.1499 59.3899C58.5199 59.6699 57.9499 60.0799 57.4899 60.5899C57.0183 61.1456 56.6523 61.7827 56.4099 62.4699C55.8999 64.043 55.8999 65.7369 56.4099 67.3099C56.6499 67.9899 57.0199 68.6099 57.4899 69.1499C57.9499 69.6699 58.5099 70.0799 59.1499 70.3499C59.8699 70.6499 60.6499 70.7999 61.4299 70.7999C62.2099 70.8099 62.9899 70.66 63.7199 70.3699C64.3499 70.0899 64.9199 69.6799 65.3799 69.1699C65.8499 68.6299 66.2199 67.9999 66.4599 67.3299C66.9799 65.7599 66.9799 64.0599 66.4599 62.4899L66.4499 62.4699ZM61.3699 68.8699C59.3199 68.8699 58.2899 67.1299 58.2899 64.9899C58.2899 62.8499 59.3199 61.1099 61.3699 61.1099C63.4199 61.1099 64.4499 62.8499 64.4499 64.9899C64.4599 67.1299 63.4199 68.8699 61.3699 68.8699Z" fill="#189EFF"/>
</svg>
