<svg width="128" height="128" viewBox="0 0 128 128" fill="none" xmlns="http://www.w3.org/2000/svg">
<path d="M64 126C98.2417 126 126 98.2417 126 64C126 29.7583 98.2417 2 64 2C29.7583 2 2 29.7583 2 64C2 98.2417 29.7583 126 64 126Z" fill="black"/>
<path d="M36.0001 70.7L20.6001 72.2C21.5001 76.1 23.5001 79.2001 26.7001 81.4001C29.8001 83.5 35.1001 84.6 42.6001 84.6C47.8001 84.6 52.0001 83.9 55.1001 82.6C58.1001 81.3 60.4001 79.5 61.8001 77.2C63.2001 74.9 63.9001 72.6 63.9001 70.2C63.9001 67.8 63.2001 65.7001 61.9001 63.7001C60.6001 61.7001 58.6001 60.2 56.1001 59.1C53.6001 58 49.7001 57.2 44.5001 56.6C41.1001 56.2 38.9001 55.7001 37.8001 55.2001C36.8001 54.7001 36.3001 53.9001 36.3001 52.9001C36.3001 52.0001 36.7001 51.2 37.5001 50.6C38.3001 50 39.6001 49.7001 41.4001 49.7001C43.1001 49.7001 44.6001 50.1001 45.8001 50.9001C46.7001 51.5001 47.3001 52.5 47.7001 53.8L62.5001 52.3C61.5001 49.6 60.2001 47.5001 58.6001 45.9001C57.1001 44.3001 55.1001 43.1001 52.8001 42.4001C50.5001 41.6001 46.9001 41.3 42.0001 41.3C37.4001 41.3 33.7001 41.8 31.0001 42.8C28.3001 43.8 26.1001 45.2001 24.6001 47.2001C23.0001 49.2001 22.3001 51.5001 22.3001 54.2001C22.3001 56.7001 23.0001 58.9001 24.5001 60.9001C25.9001 62.9001 27.7001 64.2001 29.8001 65C31.9001 65.8 35.7001 66.7 41.1001 67.7C44.7001 68.3 47.0001 68.9001 47.8001 69.3001C49.0001 69.9001 49.5001 70.8 49.5001 72C49.5001 73 49.1001 73.9001 48.2001 74.5C47.0001 75.4001 45.4001 75.9001 43.3001 75.9001C41.4001 75.9001 39.9001 75.5 38.7001 74.7C37.5001 73.9 36.6001 72.6 36.0001 70.7ZM67.1001 62.5C67.1001 50.2 76.8001 40.3 90.3001 40.3C96.6001 40.3 101.3 41.8 104.2 43.1L104.4 43.2001V53.8L103.8 53.5C101.1 52.3 97.0001 50.7001 91.2001 50.7001C87.2001 50.7001 84.1001 52.1 82.0001 54.2001C79.9001 56.3001 78.8001 59.2 78.8001 62.3C78.8001 68.6 83.2001 74 90.6001 74C92.0001 74 93.5001 73.8 94.6001 73.6V62.8H105.8V81.3001L105.6 81.4001C101.5 83.4001 95.9001 84.6 90.6001 84.6C76.7001 84.7 67.1001 75 67.1001 62.5Z" fill="white"/>
</svg>
