<svg width="128" height="128" viewBox="0 0 128 128" fill="none" xmlns="http://www.w3.org/2000/svg">
<path d="M8.1 67.1L2 67.7C2.4 69.3 3.2 70.5 4.4 71.3C5.6 72.2 7.7 72.6 10.7 72.6C12.8 72.6 14.4 72.3 15.6 71.8C16.8 71.3 17.7 70.6 18.3 69.7C18.9 68.8 19.1 67.9 19.1 66.9C19.1 66 18.8 65.1 18.3 64.3C17.8 63.5 17 62.9 16 62.5C15 62.1 13.5 61.7 11.4 61.5C10 61.3 9.2 61.1 8.8 60.9C8.4 60.7 8.2 60.4 8.2 60C8.2 59.6 8.4 59.3 8.7 59.1C9 58.8 9.5 58.7 10.2 58.7C10.9 58.7 11.5 58.9 12 59.2C12.4 59.4 12.6 59.8 12.8 60.4L18.7 59.8C18.3 58.7 17.8 57.9 17.2 57.2C16.6 56.6 15.8 56.1 14.9 55.8C14 55.5 12.6 55.4 10.6 55.4C8.8 55.4 7.3 55.6 6.2 56C5.1 56.4 4.3 57 3.6 57.8C3 58.6 2.7 59.5 2.7 60.6C2.7 61.6 3 62.5 3.6 63.2C4.2 64 4.9 64.5 5.7 64.8C6.5 65.1 8 65.5 10.2 65.9C11.6 66.2 12.5 66.4 12.9 66.5C13.4 66.7 13.6 67.1 13.6 67.6C13.6 68 13.4 68.3 13.1 68.6C12.6 69 12 69.1 11.2 69.1C10.4 69.1 9.8 68.9 9.4 68.6C8.7 68.3 8.4 67.8 8.1 67.1ZM37.7 64C37.7 59.3 41.5 55.4 46.8 55.4C52.1 55.4 55.9 59.2 55.9 64C55.9 68.8 52.1 72.6 46.8 72.6C41.6 72.6 37.7 68.8 37.7 64ZM70.2 64C70.2 59.2 74.1 55.4 79.4 55.4C81.9 55.4 83.8 56 84.9 56.5H85V60.6L84.8 60.5C83.7 60 82.1 59.4 79.8 59.4C78.2 59.4 77 59.9 76.2 60.7C75.4 61.5 74.9 62.6 74.9 63.8C74.9 66.2 76.6 68.3 79.6 68.3C80.1 68.3 80.7 68.2 81.2 68.1V63.9H85.7V71.1H85.6C84 71.9 81.7 72.3 79.6 72.3C74 72.6 70.2 68.8 70.2 64ZM20.8 55.8H25.4V62H31.3V55.8H36V72.3H31.3V65.8H25.4V72.3H20.8V55.8ZM56.3 55.8H70V59.6H65.5V72.3H60.8V59.6H56.3V55.8ZM87.7 55.8H94C96 55.8 97.8 56.3 99 57.2C100.3 58.2 101 59.6 101 61.4C101 63.7 99.8 65.3 98 66.1L101.5 72.2H96.6L93.9 67H92.3V72.3H87.7V55.8ZM103 55.8H107.6V72.3H103V55.8ZM110.4 55.8H116.2C119.2 55.8 121.6 56.7 123.3 58.1C125 59.6 125.9 61.6 125.9 64C125.9 66.4 125 68.5 123.3 69.9C121.6 71.4 119.2 72.2 116.2 72.2H110.3V55.8H110.4ZM46.9 59.6C44.2 59.6 42.4 61.7 42.4 64.1C42.4 66.5 44.2 68.6 46.9 68.6C49.6 68.6 51.3 66.6 51.3 64.1C51.3 61.6 49.5 59.6 46.9 59.6ZM92.2 59.6V63.4H94.2C94.8 63.4 95.4 63.3 95.7 63C96.1 62.7 96.3 62.2 96.3 61.5C96.3 60.8 96.1 60.4 95.7 60.1C95.3 59.8 94.8 59.6 94.2 59.6H92.2ZM115 68.5H116.2C117.9 68.5 119.2 68 120 67.2C120.9 66.4 121.3 65.3 121.3 64.1C121.3 62.9 120.9 61.8 120 61C119.1 60.2 117.9 59.7 116.2 59.7H115V68.5Z" fill="white"/>
</svg>
