<svg width="128" height="128" viewBox="0 0 128 128" fill="none" xmlns="http://www.w3.org/2000/svg">
<path d="M64 2C29.8 2 2 29.8 2 64C2 98.2 29.8 126 64 126C98.2 126 126 98.2 126 64C126 29.8 98.2 2 64 2ZM61.6 77.2C60.2 79.4 57.9 81.2 54.9 82.6C51.8 83.9 47.7 84.6 42.4 84.6C35 84.6 29.7 83.5 26.5 81.4C23.3 79.2 21.3 76.2 20.4 72.2L36 70.7C36.6 72.6 37.5 73.9 38.7 74.7C39.8 75.5 41.4 75.9 43.3 75.9C45.4 75.9 47 75.4 48.2 74.5C49.1 73.8 49.5 73 49.5 72C49.5 70.8 48.9 70 47.7 69.3C46.9 68.9 44.6 68.3 41 67.7C35.6 66.7 31.8 65.8 29.7 65C27.6 64.2 25.8 62.8 24.4 60.9C23 59 22.2 56.7 22.2 54.3C22.2 51.6 23 49.2 24.5 47.3C26.1 45.3 28.2 43.8 30.9 42.9C33.6 41.9 37.3 41.4 41.9 41.4C46.8 41.4 50.3 41.8 52.7 42.5C55 43.3 56.9 44.4 58.5 46C60 47.6 61.3 49.7 62.3 52.4L47.5 53.9C47.1 52.6 46.5 51.6 45.6 51C44.4 50.2 42.9 49.8 41.1 49.8C39.3 49.8 38.1 50.1 37.3 50.7C36.5 51.4 36.1 52.1 36.1 53C36.1 54 36.6 54.8 37.6 55.3C38.6 55.8 40.8 56.3 44.3 56.7C49.5 57.3 53.3 58.1 55.9 59.2C58.4 60.3 60.4 61.8 61.7 63.7C63 65.7 63.7 67.8 63.7 70.2C63.7 72.6 63 75 61.6 77.2ZM105.9 81.3L105.7 81.4C101.6 83.4 96 84.6 90.7 84.6C76.7 84.6 67.1 74.9 67.1 62.5C67.1 50.2 76.8 40.3 90.3 40.3C96.6 40.3 101.3 41.8 104.2 43.1L104.4 43.2V53.8L103.8 53.5C101.1 52.3 97 50.7 91.2 50.7C87.2 50.7 84.1 52 82 54.2C79.9 56.3 78.8 59.2 78.8 62.3C78.8 68.6 83.2 74 90.6 74C92 74 93.5 73.8 94.6 73.6V62.8H105.8V81.3H105.9Z" fill="black"/>
</svg>
