<svg width="128" height="128" viewBox="0 0 128 128" fill="none" xmlns="http://www.w3.org/2000/svg">
<path d="M29.62 12.85L64 9.23999L98.38 12.85L125 48.29L64 118.76L3 48.29L29.62 12.85Z" fill="#FDB300"/>
<path d="M27.71 48.29L64 118.76L3 48.29H27.71ZM100.29 48.29L64 118.76L125 48.29H100.29Z" fill="#EA6C00"/>
<path d="M27.71 48.29H100.29L64 118.76L27.71 48.29Z" fill="#FDAD00"/>
<path d="M64 9.23999L29.62 12.85L27.71 48.29L64 9.23999ZM64 9.23999L98.38 12.85L100.29 48.29L64 9.23999Z" fill="#FDD231"/>
<path d="M125 48.29L98.3799 12.85L100.29 48.29H125Z" fill="#FDAD00"/>
<path d="M64 9.23999L27.71 48.29H100.29L64 9.23999Z" fill="#FEEEB7"/>
<path d="M3 48.29L29.62 12.85L27.71 48.29H3Z" fill="#FDAD00"/>
</svg>
