<svg width="128" height="128" viewBox="0 0 128 128" fill="none" xmlns="http://www.w3.org/2000/svg">
<path d="M63.8096 118.63L2.80957 48.1699V47.86L29.4196 12.41L29.5896 12.31L63.9996 8.69995L98.4296 12.31L98.5996 12.41L125.2 47.8499V48.16L64.1996 118.62L63.8096 118.63ZM3.31957 48L63.9996 118.08L124.68 48L98.2496 12.79L63.9996 9.19995L29.7496 12.79L3.31957 48Z" fill="#FDAD00"/>
<path d="M63.8096 118.63L2.80957 48.17L2.99957 47.75H27.7096L27.9296 47.89L64.2196 118.35L63.8096 118.63ZM3.54957 48.25L62.8196 116.72L27.5596 48.25H3.54957Z" fill="#FDAD00"/>
<path d="M64.1898 118.63L63.7798 118.35L100.07 47.89L100.29 47.75H125L125.19 48.16L64.1898 118.63ZM100.45 48.25L65.1798 116.72L124.45 48.25H100.45Z" fill="#FDAD00"/>
<path d="M64.2197 118.58H63.7797L27.4897 48.11L27.7097 47.75H100.29L100.51 48.11L64.2197 118.58ZM28.1197 48.25L63.9997 117.92L99.8797 48.25H28.1197Z" fill="#FDAD00"/>
<path d="M27.89 48.1699L27.46 48L29.37 12.56L29.59 12.33L64 8.69995L64.21 9.11995L27.89 48.1699ZM29.89 12.78L28 47.32L63.36 9.26995L29.89 12.78Z" fill="#FDAD00"/>
<path d="M100.11 48.1699L63.8198 9.16995L63.9998 8.69995L98.3798 12.3L98.5998 12.53L100.54 48L100.11 48.1699ZM64.6398 9.26995L99.9998 47.32L98.1398 12.78L64.6398 9.26995Z" fill="#FDAD00"/>
<path d="M125 48.2499H100.29L99.9999 47.9999L98.1299 12.5699L98.5799 12.4099L125.2 47.8499L125 48.2499ZM100.53 47.7499H124.53L98.6799 13.3599L100.53 47.7499Z" fill="#FDAD00"/>
<path d="M100.29 48.25H27.7098L27.5298 47.83L63.8198 8.82996H64.1898L100.48 47.83L100.29 48.25ZM28.2898 47.75H99.7198L63.9998 9.31996L28.2898 47.75Z" fill="#FDAD00"/>
<path d="M27.7098 48.2499H2.9998L2.7998 47.8499L29.4198 12.4099L29.8698 12.5699L27.9998 47.9999L27.7098 48.2499ZM3.4998 47.7499H27.4998L29.3498 13.3599L3.4998 47.7499Z" fill="#FDAD00"/>
</svg>
