<svg width="128" height="128" viewBox="0 0 128 128" fill="none" xmlns="http://www.w3.org/2000/svg">
<path d="M43.7296 68.62V68.3H40.9996V68.66C41.1696 72.72 43.8996 75.41 48.7696 75.41C53.4096 75.41 56.5696 73 56.5696 69.35C56.6232 68.5188 56.4684 67.6874 56.1191 66.9312C55.7699 66.175 55.2372 65.5181 54.5696 65.02C53.3022 64.1993 51.8733 63.6605 50.3796 63.44L49.9996 63.35L49.5696 63.26C45.9596 62.5 44.8096 61.84 44.8096 59.88C44.8096 57.92 46.4696 56.56 49.2496 56.56C49.831 56.512 50.416 56.5871 50.9664 56.7805C51.5168 56.9738 52.0203 57.281 52.444 57.682C52.8677 58.0831 53.202 58.5689 53.4253 59.1079C53.6485 59.6469 53.7556 60.2269 53.7396 60.81V61.15H56.3996V60.8C56.2996 56.74 53.5796 54 49.1796 54C44.7796 54 41.9996 56.61 41.9996 60C41.9391 60.8221 42.0914 61.6458 42.4417 62.392C42.792 63.1381 43.3285 63.7814 43.9996 64.26C45.2813 65.0331 46.7131 65.524 48.1996 65.7L48.5096 65.76L48.8196 65.82C50.0549 65.9733 51.2553 66.3351 52.3696 66.89C52.8351 67.138 53.2188 67.5155 53.4744 67.9769C53.7299 68.4383 53.8464 68.9639 53.8096 69.49C53.8096 71.64 51.9996 72.86 48.8096 72.86C45.6196 72.86 43.9396 71.34 43.7296 68.62ZM62.2496 53.62V53.27H59.5696V75H62.2596V70.92L65.0896 68.16L70.1396 74.87L70.2496 75.01H73.5896L73.1596 74.45L66.9996 66.33L72.6896 60.67L73.2896 60.07H69.6296L69.5296 60.17L62.2596 67.49L62.2496 53.62ZM87.3696 68.42H87.6996V68.09V67.82V67.56V67.31C87.6996 62.92 84.7896 59.68 80.4896 59.68C76.1896 59.68 73.1396 63.13 73.1396 67.48C73.1396 71.83 76.0596 75.31 80.5196 75.31C82.063 75.3566 83.5785 74.8914 84.8301 73.9871C86.0816 73.0828 86.9991 71.79 87.4396 70.31L87.5796 69.86H84.8296L84.7496 70.09C84.4352 70.9276 83.8652 71.6449 83.1203 72.1403C82.3754 72.6357 81.4935 72.884 80.5996 72.85C79.4018 72.8645 78.2451 72.4141 77.3724 71.5936C76.4997 70.7732 75.979 69.6464 75.9196 68.45L87.3696 68.42ZM75.9996 66.14C76.1485 65.0437 76.6934 64.0398 77.5316 63.3177C78.3698 62.5955 79.4433 62.2051 80.5496 62.22C81.6515 62.1822 82.7261 62.5671 83.5535 63.2959C84.3808 64.0246 84.8981 65.0422 84.9996 66.14H75.9996ZM96.5796 62.44H96.9296V60.06H93.6496V56H90.9996V60.06H88.2396V62.44H90.9996V70.83C90.9996 73.58 92.4296 75.07 94.9996 75.07C95.3974 75.074 95.795 75.0507 96.1896 75L96.6096 74.92L96.8696 74.85V72.36L96.4496 72.45H96.0696C95.8246 72.4889 95.5775 72.5123 95.3296 72.52H95.2596C94.1096 72.52 93.6496 71.98 93.6496 70.63V62.44H96.5796ZM104.94 75.35C106.597 75.408 108.219 74.8636 109.506 73.8175C110.793 72.7713 111.658 71.2944 111.94 69.66L112.02 69.24H109.31L109.24 69.5C109.038 70.4804 108.493 71.3565 107.703 71.9707C106.913 72.5849 105.929 72.8967 104.93 72.85C102.17 72.85 100.27 70.67 100.27 67.54C100.27 64.41 102.17 62.21 104.93 62.21C105.929 62.1633 106.913 62.4752 107.703 63.0894C108.493 63.7035 109.038 64.5797 109.24 65.56L109.31 65.82H112L111.92 65.4C111.638 63.7657 110.773 62.2888 109.486 61.2426C108.199 60.1965 106.577 59.6521 104.92 59.71C100.6 59.71 97.5396 63.18 97.5396 67.54C97.5396 71.9 100.62 75.35 104.93 75.35H104.94ZM116.94 53.66V53.31H114.25V75H117V66.24C116.948 65.7048 117.013 65.1646 117.19 64.6569C117.368 64.1492 117.653 63.686 118.026 63.2991C118.4 62.9122 118.853 62.611 119.354 62.4161C119.855 62.2211 120.393 62.1372 120.93 62.17C123.19 62.17 124.33 63.48 124.33 65.96V75H127V65.57C127 62.06 124.83 59.73 121.25 59.73C120.468 59.7075 119.689 59.841 118.96 60.1225C118.23 60.4041 117.564 60.8282 117 61.37L116.94 53.66ZM17.1596 78.5H16.7796L0.80957 60.05V59.74L7.80957 50.46L7.97957 50.36L16.9796 49.42L26.0296 50.36L26.1996 50.46L33.1996 59.74V60.05L17.1596 78.5ZM1.31957 59.88L16.9996 78L32.6196 59.88L25.8396 50.88L16.9496 49.95L8.10957 50.88L1.31957 59.88Z" fill="#FDAD00"/>
<path d="M16.7796 78.5L0.80957 60.05L0.99957 59.64H7.46957L7.68957 59.78L17.1896 78.23L16.7796 78.5ZM1.54957 60.14L15.7896 76.59L7.31957 60.14H1.54957Z" fill="#FDAD00"/>
<path d="M17.16 78.5L16.75 78.22L26.25 59.77L26.47 59.63H32.94L33.13 60.04L17.16 78.5ZM26.62 60.14L18.15 76.59L32.39 60.14H26.62Z" fill="#FDAD00"/>
<path d="M16.75 78.45L7.25 60L7.47 59.64H26.47L26.69 60L17.19 78.45H16.75ZM7.88 60.14L17 77.79L26.09 60.14H7.88Z" fill="#FDAD00"/>
<path d="M7.64973 60.0601L7.21973 59.8801L7.71973 50.6001L7.93973 50.3701L16.9397 49.4301L17.1497 49.8501L7.64973 60.0601ZM8.20973 50.8401L7.75973 59.2201L16.3297 50.0001L8.20973 50.8401Z" fill="#FDAD00"/>
<path d="M26.29 60.06L16.79 49.84L17 49.42L26 50.36L26.22 50.59L26.72 59.87L26.29 60.06ZM17.61 50L26.19 59.23L25.74 50.85L17.61 50Z" fill="#FDAD00"/>
<path d="M32.9398 60.1401H26.4698L26.2198 59.9001L25.7198 50.6201L26.1698 50.4601L33.1698 59.7401L32.9398 60.1401ZM26.7098 59.6401H32.4398L26.2698 51.4201L26.7098 59.6401ZM7.4698 60.1401H0.999805L0.799805 59.7401L7.7998 50.4601L8.2498 50.6201L7.7498 59.9001L7.4698 60.1401ZM1.4698 59.6401H7.2298L7.6698 51.4201L1.4698 59.6401Z" fill="#FDAD00"/>
<path d="M26.47 60.14H7.47004L7.29004 59.72L16.79 49.5H17.16L26.66 59.72L26.47 60.14ZM8.00004 59.64H25.9L17 50L8.00004 59.64Z" fill="#FDAD00"/>
</svg>
