<svg width="128" height="128" viewBox="0 0 128 128" fill="none" xmlns="http://www.w3.org/2000/svg">
<path d="M43.73 68.62V68.3H41V68.66C41.17 72.72 43.9 75.41 48.77 75.41C53.41 75.41 56.57 73 56.57 69.35C56.6237 68.5188 56.4688 67.6873 56.1196 66.9312C55.7703 66.175 55.2377 65.5181 54.57 65.02C53.3026 64.1993 51.8737 63.6605 50.38 63.44L50 63.35L49.57 63.26C45.96 62.5 44.81 61.84 44.81 59.88C44.81 57.92 46.47 56.56 49.25 56.56C49.8314 56.512 50.4164 56.5871 50.9668 56.7804C51.5172 56.9738 52.0207 57.281 52.4444 57.682C52.8681 58.083 53.2025 58.5689 53.4257 59.1079C53.6489 59.6469 53.756 60.2269 53.74 60.81V61.15H56.4V60.8C56.3 56.74 53.58 54 49.18 54C44.78 54 42 56.61 42 60C41.9395 60.8221 42.0918 61.6458 42.4421 62.3919C42.7924 63.1381 43.3289 63.7814 44 64.26C45.2817 65.0331 46.7136 65.524 48.2 65.7L48.51 65.76L48.82 65.82C50.0554 65.9732 51.2557 66.3351 52.37 66.89C52.8355 67.138 53.2193 67.5155 53.4748 67.9769C53.7304 68.4383 53.8468 68.9639 53.81 69.49C53.81 71.64 52 72.86 48.81 72.86C45.62 72.86 43.94 71.34 43.73 68.62ZM62.25 53.62V53.27H59.57V75H62.26V70.92L65.09 68.16L70.14 74.87L70.25 75.01H73.59L73.16 74.45L67 66.33L72.69 60.67L73.29 60.07H69.63L69.53 60.17L62.26 67.49L62.25 53.62ZM87.37 68.42H87.7V68.09V67.82V67.56V67.31C87.7 62.92 84.79 59.68 80.49 59.68C76.19 59.68 73.14 63.13 73.14 67.48C73.14 71.83 76.06 75.31 80.52 75.31C82.0634 75.3565 83.5789 74.8914 84.8305 73.9871C86.0821 73.0828 86.9995 71.79 87.44 70.31L87.58 69.86H84.83L84.75 70.09C84.4357 70.9275 83.8656 71.6449 83.1207 72.1402C82.3759 72.6356 81.4939 72.884 80.6 72.85C79.4023 72.8644 78.2456 72.4141 77.3729 71.5936C76.5002 70.7731 75.9794 69.6464 75.92 68.45L87.37 68.42ZM76 66.14C76.1489 65.0437 76.6938 64.0398 77.532 63.3176C78.3702 62.5955 79.4437 62.2051 80.55 62.22C81.6519 62.1822 82.7266 62.567 83.5539 63.2958C84.3812 64.0246 84.8986 65.0422 85 66.14H76ZM96.58 62.44H96.93V60.06H93.65V56H91V60.06H88.24V62.44H91V70.83C91 73.58 92.43 75.07 95 75.07C95.3978 75.074 95.7954 75.0506 96.19 75L96.61 74.92L96.87 74.85V72.36L96.45 72.45H96.07C95.8251 72.4889 95.5779 72.5123 95.33 72.52H95.26C94.11 72.52 93.65 71.98 93.65 70.63V62.44H96.58ZM104.94 75.35C106.597 75.408 108.22 74.8635 109.507 73.8174C110.794 72.7713 111.658 71.2944 111.94 69.66L112.02 69.24H109.31L109.24 69.5C109.039 70.4803 108.494 71.3565 107.703 71.9707C106.913 72.5849 105.93 72.8967 104.93 72.85C102.17 72.85 100.27 70.67 100.27 67.54C100.27 64.41 102.17 62.21 104.93 62.21C105.93 62.1633 106.913 62.4752 107.703 63.0893C108.494 63.7035 109.039 64.5797 109.24 65.56L109.31 65.82H112L111.92 65.4C111.638 63.7657 110.774 62.2887 109.487 61.2426C108.2 60.1965 106.577 59.652 104.92 59.71C100.6 59.71 97.54 63.18 97.54 67.54C97.54 71.9 100.62 75.35 104.93 75.35H104.94ZM116.94 53.66V53.31H114.25V75H117V66.24C116.948 65.7047 117.013 65.1646 117.191 64.6569C117.368 64.1492 117.653 63.6859 118.027 63.2991C118.4 62.9122 118.853 62.6109 119.355 62.416C119.856 62.2211 120.393 62.1372 120.93 62.17C123.19 62.17 124.33 63.48 124.33 65.96V75H127V65.57C127 62.06 124.83 59.73 121.25 59.73C120.468 59.7075 119.69 59.8409 118.96 60.1225C118.23 60.4041 117.564 60.8282 117 61.37L116.94 53.66Z" fill="black"/>
<path d="M8 50.61L17 49.67L26 50.61L33 59.89L17 78.33L1 59.89L8 50.61Z" fill="#FDB300"/>
<path d="M7.47 59.89L16.97 78.33L1 59.89H7.47ZM26.47 59.89L16.97 78.33L32.94 59.89H26.47Z" fill="#EA6C00"/>
<path d="M7.47021 59.89H26.4702L16.9702 78.33L7.47021 59.89Z" fill="#FDAD00"/>
<path d="M16.9702 49.66L7.97021 50.61L7.47021 59.89L16.9702 49.66ZM16.9702 49.66L25.9702 50.61L26.4702 59.89L16.9702 49.66Z" fill="#FDD231"/>
<path d="M32.94 59.89L25.97 50.61L26.47 59.89H32.94ZM1 59.89L7.97 50.61L7.47 59.89H1Z" fill="#FDAD00"/>
<path d="M16.9702 49.66L7.47021 59.89H26.4702L16.9702 49.66Z" fill="#FEEEB7"/>
</svg>
