<svg width="128" height="128" viewBox="0 0 128 128" fill="none" xmlns="http://www.w3.org/2000/svg">
<path d="M45.7729 71.379L47.039 68.434C48.406 69.457 50.219 69.988 52.012 69.988C53.34 69.988 54.172 69.477 54.172 68.699C54.152 66.535 46.2419 68.23 46.1839 62.793C46.1639 60.035 48.609 57.906 52.074 57.906C54.133 57.906 56.191 58.418 57.66 59.586L56.477 62.59C55.133 61.73 53.4609 61.117 51.8709 61.117C50.7889 61.117 50.0779 61.629 50.0779 62.281C50.0979 64.406 58.0659 63.242 58.1479 68.434C58.1479 71.254 55.766 73.238 52.34 73.238C49.832 73.238 47.5269 72.645 45.7729 71.378M94.273 67.371C93.8778 68.0757 93.2599 68.6292 92.5162 68.9447C91.7724 69.2602 90.945 69.3198 90.1637 69.1142C89.3824 68.9085 88.6915 68.4493 88.1995 67.8086C87.7074 67.1679 87.442 66.3819 87.445 65.574C87.4436 65.0939 87.537 64.6183 87.7198 64.1744C87.9026 63.7304 88.1712 63.3269 88.5101 62.9869C88.8491 62.647 89.2518 62.3772 89.6951 62.1931C90.1385 62.009 90.6139 61.9141 91.094 61.914C92.457 61.914 93.641 62.672 94.274 63.774L97.758 61.832C96.453 59.504 93.945 57.906 91.094 57.906C86.871 57.906 83.4489 61.344 83.4489 65.574C83.4489 69.804 86.871 73.238 91.094 73.238C92.4546 73.2409 93.7911 72.8781 94.9635 72.1874C96.1358 71.4967 97.101 70.5036 97.758 69.312L94.273 67.372V67.371ZM59.902 51.55H64.2659V72.953H59.902V51.551V51.55ZM99.4729 51.55V72.953H103.832V66.535L109.012 72.953H114.598L108.012 65.328L114.109 58.215H108.766L103.832 64.121V51.551H99.472L99.4729 51.55ZM77.23 67.414C76.598 68.457 75.2929 69.23 73.8239 69.23C73.3443 69.2297 72.8694 69.1349 72.4264 68.951C71.9834 68.7671 71.581 68.4976 71.2422 68.1581C70.9034 67.8186 70.6348 67.4156 70.4519 66.9722C70.2689 66.5288 70.1752 66.0536 70.176 65.574C70.175 65.0941 70.2687 64.6187 70.4515 64.1751C70.6344 63.7314 70.9029 63.3281 71.2416 62.9882C71.5804 62.6483 71.9828 62.3785 72.4259 62.1942C72.869 62.0098 73.3441 61.9146 73.8239 61.914C75.2929 61.914 76.598 62.73 77.23 63.793V67.414ZM77.23 58.214V59.954C76.516 58.746 74.742 57.906 72.887 57.906C69.055 57.906 66.039 61.301 66.039 65.551C66.039 69.805 69.055 73.238 72.887 73.238C74.742 73.238 76.516 72.398 77.23 71.195V72.934H81.594V58.214H77.23Z" fill="black"/>
<path d="M18.8049 67.39C18.8049 68.883 17.6019 70.09 16.1129 70.09C15.7588 70.0897 15.4083 70.0197 15.0813 69.8838C14.7544 69.7479 14.4574 69.5489 14.2075 69.2981C13.9575 69.0473 13.7595 68.7497 13.6247 68.4223C13.4899 68.0949 13.421 67.7441 13.4219 67.39C13.4212 67.0362 13.4904 66.6858 13.6253 66.3588C13.7603 66.0318 13.9584 65.7346 14.2083 65.4843C14.4583 65.234 14.7552 65.0354 15.082 64.9C15.4088 64.7645 15.7591 64.6949 16.1129 64.695H18.8049V67.391V67.39ZM20.1479 67.39C20.1472 67.0362 20.2164 66.6857 20.3514 66.3586C20.4864 66.0315 20.6846 65.7343 20.9347 65.4839C21.1848 65.2336 21.4818 65.0351 21.8087 64.8997C22.1356 64.7643 22.486 64.6947 22.8399 64.695C23.1937 64.6949 23.5441 64.7646 23.871 64.9001C24.1979 65.0356 24.4948 65.2342 24.7448 65.4847C24.9947 65.7351 25.1929 66.0324 25.3278 66.3595C25.4626 66.6866 25.5317 67.0372 25.5309 67.391V74.137C25.5317 74.491 25.4627 74.8417 25.3278 75.169C25.1929 75.4962 24.9949 75.7937 24.745 76.0444C24.495 76.2951 24.1981 76.494 23.8712 76.6299C23.5443 76.7657 23.1939 76.8357 22.8399 76.836C22.4857 76.8359 22.1351 76.7659 21.808 76.6301C21.4809 76.4942 21.1839 76.2952 20.9338 76.0444C20.6838 75.7936 20.4856 75.496 20.3508 75.1685C20.2159 74.841 20.147 74.4902 20.1479 74.136V67.391V67.39Z" fill="#E01E5A"/>
<path d="M22.8399 56.559C22.4857 56.5589 22.1351 56.4889 21.808 56.3531C21.4809 56.2172 21.1838 56.0182 20.9338 55.7674C20.6837 55.5166 20.4856 55.219 20.3507 54.8915C20.2159 54.564 20.1469 54.2132 20.1479 53.859C20.1472 53.5052 20.2164 53.1547 20.3514 52.8276C20.4864 52.5005 20.6846 52.2033 20.9347 51.9529C21.1847 51.7026 21.4818 51.504 21.8087 51.3687C22.1356 51.2333 22.486 51.1637 22.8399 51.164C23.1936 51.1639 23.5439 51.2335 23.8707 51.369C24.1976 51.5044 24.4944 51.703 24.7444 51.9533C24.9944 52.2036 25.1925 52.5008 25.3274 52.8278C25.4624 53.1548 25.5315 53.5052 25.5309 53.859V56.559H22.8399ZM22.8399 57.93C23.1936 57.9299 23.5439 57.9995 23.8707 58.135C24.1976 58.2704 24.4944 58.469 24.7444 58.7193C24.9944 58.9696 25.1925 59.2668 25.3274 59.5938C25.4624 59.9208 25.5315 60.2712 25.5309 60.625C25.5309 62.117 24.3279 63.325 22.8399 63.325H16.0939C15.7397 63.3249 15.3891 63.2549 15.062 63.1191C14.7349 62.9832 14.4378 62.7842 14.1878 62.5334C13.9377 62.2826 13.7396 61.985 13.6047 61.6575C13.4699 61.33 13.4009 60.9792 13.4019 60.625C13.4012 60.2712 13.4704 59.9207 13.6054 59.5936C13.7404 59.2665 13.9386 58.9693 14.1887 58.7189C14.4388 58.4686 14.7358 58.27 15.0627 58.1347C15.3896 57.9993 15.74 57.9297 16.0939 57.93H22.8399Z" fill="#36C5F0"/>
<path d="M33.625 60.625C33.6243 60.2712 33.6934 59.9208 33.8284 59.5938C33.9633 59.2668 34.1615 58.9696 34.4114 58.7193C34.6614 58.469 34.9583 58.2704 35.2851 58.135C35.6119 57.9995 35.9622 57.9299 36.316 57.93C36.6698 57.9297 37.0202 57.9993 37.3471 58.1347C37.6741 58.27 37.9711 58.4686 38.2211 58.7189C38.4712 58.9693 38.6694 59.2665 38.8044 59.5936C38.9395 59.9207 39.0086 60.2712 39.008 60.625C39.008 62.117 37.805 63.325 36.316 63.325H33.625V60.625ZM32.281 60.625C32.281 62.117 31.078 63.325 29.59 63.325C29.2358 63.3249 28.8851 63.2549 28.5581 63.1191C28.231 62.9832 27.9339 62.7842 27.6839 62.5334C27.4338 62.2826 27.2357 61.985 27.1008 61.6575C26.966 61.33 26.897 60.9792 26.898 60.625V53.859C26.8973 53.5052 26.9665 53.1547 27.1015 52.8276C27.2365 52.5005 27.4347 52.2033 27.6848 51.9529C27.9348 51.7026 28.2318 51.504 28.5588 51.3687C28.8857 51.2333 29.2361 51.1637 29.59 51.164C29.9437 51.1639 30.294 51.2335 30.6208 51.369C30.9476 51.5044 31.2445 51.703 31.4945 51.9533C31.7445 52.2036 31.9426 52.5008 32.0775 52.8278C32.2125 53.1548 32.2816 53.5052 32.281 53.859V60.625Z" fill="#2EB67D"/>
<path d="M29.59 71.441C29.9438 71.4409 30.2942 71.5106 30.6211 71.6461C30.9479 71.7816 31.2449 71.9802 31.4948 72.2307C31.7448 72.4811 31.9429 72.7784 32.0778 73.1055C32.2127 73.4326 32.2817 73.7832 32.281 74.137C32.2817 74.491 32.2127 74.8417 32.0779 75.169C31.943 75.4962 31.745 75.7937 31.495 76.0444C31.2451 76.2951 30.9482 76.494 30.6213 76.6299C30.2944 76.7657 29.9439 76.8357 29.59 76.836C29.2358 76.8359 28.8851 76.7659 28.5581 76.6301C28.231 76.4942 27.9339 76.2952 27.6839 76.0444C27.4338 75.7936 27.2357 75.496 27.1008 75.1685C26.966 74.841 26.897 74.4902 26.898 74.136V71.441H29.59ZM29.59 70.09C29.2358 70.0899 28.8851 70.0199 28.5581 69.8841C28.231 69.7482 27.9339 69.5492 27.6839 69.2984C27.4338 69.0476 27.2357 68.75 27.1008 68.4225C26.966 68.095 26.897 67.7442 26.898 67.39C26.8973 67.0362 26.9665 66.6857 27.1015 66.3586C27.2365 66.0315 27.4347 65.7343 27.6848 65.4839C27.9348 65.2336 28.2318 65.0351 28.5588 64.8997C28.8857 64.7643 29.2361 64.6947 29.59 64.695H36.336C36.6898 64.6949 37.0402 64.7646 37.3671 64.9001C37.6939 65.0356 37.9909 65.2342 38.2408 65.4847C38.4908 65.7351 38.6889 66.0324 38.8238 66.3595C38.9587 66.6866 39.0277 67.0372 39.027 67.391C39.0277 67.745 38.9587 68.0957 38.8239 68.423C38.689 68.7503 38.491 69.0477 38.241 69.2984C37.9911 69.5491 37.6942 69.748 37.3673 69.8839C37.0404 70.0197 36.6899 70.0897 36.336 70.09H29.59Z" fill="#ECB22E"/>
</svg>
