<svg width="128" height="128" viewBox="0 0 128 128" fill="none" xmlns="http://www.w3.org/2000/svg">
<path d="M27.2549 80.719C27.2549 88.049 21.2769 94.036 13.9459 94.036C6.61588 94.036 0.629883 88.049 0.629883 80.719C0.629883 73.389 6.61688 67.402 13.9469 67.402H27.2559L27.2549 80.719ZM33.9639 80.719C33.9639 73.389 39.9509 67.402 47.2809 67.402C54.6109 67.402 60.5979 73.388 60.5979 80.719V114.054C60.5979 121.384 54.6119 127.371 47.2809 127.371C39.9509 127.371 33.9639 121.384 33.9639 114.054V80.719Z" fill="#DE1C59"/>
<path d="M47.2809 27.255C39.9509 27.255 33.9639 21.277 33.9639 13.946C33.9639 6.616 39.9509 0.630005 47.2809 0.630005C54.6109 0.630005 60.5979 6.617 60.5979 13.947V27.256L47.2809 27.255ZM47.2809 33.964C54.6109 33.964 60.5979 39.951 60.5979 47.281C60.5979 54.611 54.6119 60.598 47.2809 60.598H13.9459C6.61588 60.598 0.629883 54.612 0.629883 47.281C0.629883 39.951 6.61688 33.964 13.9469 33.964H47.2809Z" fill="#35C5F0"/>
<path d="M100.745 47.281C100.745 39.951 106.723 33.964 114.054 33.964C121.384 33.964 127.371 39.951 127.371 47.281C127.371 54.611 121.384 60.598 114.054 60.598H100.745V47.281ZM94.0359 47.281C94.0359 54.611 88.0489 60.598 80.7189 60.598C73.3889 60.598 67.4019 54.612 67.4019 47.281V13.946C67.4019 6.616 73.3879 0.630005 80.7189 0.630005C88.0489 0.630005 94.0359 6.617 94.0359 13.947V47.281Z" fill="#2EB57D"/>
<path d="M80.7189 100.745C88.0489 100.745 94.0359 106.723 94.0359 114.054C94.0359 121.384 88.0489 127.371 80.7189 127.371C73.3889 127.371 67.4019 121.384 67.4019 114.054V100.745H80.7189ZM80.7189 94.036C73.3889 94.036 67.4019 88.049 67.4019 80.719C67.4019 73.389 73.3879 67.402 80.7189 67.402H114.054C121.384 67.402 127.371 73.388 127.371 80.719C127.371 88.049 121.384 94.036 114.054 94.036H80.7189Z" fill="#EBB02E"/>
</svg>
