<svg width="128" height="128" viewBox="0 0 128 128" fill="none" xmlns="http://www.w3.org/2000/svg">
<path d="M27.1502 80.766C27.1502 88.117 21.1562 94.121 13.8052 94.121C6.4542 94.12 0.450195 88.117 0.450195 80.766C0.450195 73.415 6.4542 67.411 13.8052 67.411H27.1502V80.766ZM33.8802 80.766C33.8802 73.415 39.8832 67.411 47.2342 67.411C54.5852 67.411 60.5892 73.415 60.5892 80.766V114.196C60.5892 121.546 54.5852 127.55 47.2342 127.55C39.8832 127.55 33.8792 121.546 33.8792 114.195V80.765L33.8802 80.766ZM47.2342 27.15C39.8832 27.15 33.8792 21.156 33.8792 13.805C33.8802 6.45401 39.8832 0.450012 47.2342 0.450012C54.5852 0.450012 60.5892 6.45401 60.5892 13.805V27.15H47.2342ZM47.2342 33.88C54.5852 33.88 60.5892 39.883 60.5892 47.234C60.5892 54.585 54.5852 60.589 47.2342 60.589H13.8042C6.4552 60.589 0.450195 54.585 0.450195 47.234C0.450195 39.883 6.4542 33.879 13.8052 33.879H47.2352L47.2342 33.88ZM100.85 47.234C100.85 39.883 106.844 33.879 114.195 33.879C121.546 33.879 127.55 39.883 127.55 47.234C127.55 54.585 121.546 60.589 114.195 60.589H100.85V47.234ZM94.1202 47.234C94.1202 54.585 88.1172 60.589 80.7662 60.589C73.4152 60.589 67.4112 54.585 67.4112 47.234V13.804C67.4112 6.45501 73.4152 0.450012 80.7662 0.450012C88.1172 0.450012 94.1212 6.45401 94.1212 13.805L94.1202 47.234ZM80.7662 100.85C88.1172 100.85 94.1212 106.844 94.1212 114.195C94.1212 121.546 88.1172 127.55 80.7662 127.55C73.4152 127.55 67.4112 121.546 67.4112 114.195V100.85H80.7662ZM80.7662 94.12C73.4152 94.12 67.4112 88.117 67.4112 80.766C67.4112 73.415 73.4152 67.411 80.7662 67.411H114.196C121.546 67.411 127.55 73.415 127.55 80.766C127.55 88.117 121.546 94.121 114.195 94.121L80.7662 94.12Z" fill="black"/>
</svg>
