<svg width="128" height="128" viewBox="0 0 128 128" fill="none" xmlns="http://www.w3.org/2000/svg">
<path d="M45.7729 71.379L47.0389 68.434C48.4059 69.457 50.2189 69.988 52.0119 69.988C53.3399 69.988 54.1719 69.477 54.1719 68.699C54.1519 66.535 46.2419 68.23 46.1839 62.793C46.1639 60.035 48.6089 57.906 52.0739 57.906C54.1329 57.906 56.1909 58.418 57.6599 59.586L56.4769 62.59C55.1329 61.73 53.4609 61.117 51.8709 61.117C50.7889 61.117 50.0779 61.629 50.0779 62.281C50.0979 64.406 58.0659 63.242 58.1479 68.434C58.1479 71.254 55.7659 73.238 52.3399 73.238C49.8319 73.238 47.5269 72.645 45.7729 71.378M94.2729 67.371C93.8777 68.0757 93.2598 68.6292 92.5161 68.9447C91.7723 69.2602 90.9449 69.3198 90.1636 69.1142C89.3823 68.9086 88.6915 68.4493 88.1994 67.8086C87.7073 67.1679 87.4419 66.3819 87.4449 65.574C87.4436 65.0939 87.537 64.6183 87.7197 64.1744C87.9025 63.7304 88.1711 63.3269 88.51 62.9869C88.849 62.647 89.2517 62.3772 89.6951 62.1931C90.1384 62.009 90.6138 61.9141 91.0939 61.914C92.4569 61.914 93.6409 62.672 94.2739 63.774L97.7579 61.832C96.4529 59.504 93.9449 57.906 91.0939 57.906C86.8709 57.906 83.4489 61.344 83.4489 65.574C83.4489 69.804 86.8709 73.238 91.0939 73.238C92.4546 73.2409 93.791 72.8781 94.9634 72.1874C96.1357 71.4967 97.1009 70.5036 97.7579 69.312L94.2729 67.372V67.371ZM59.9019 51.55H64.2659V72.953H59.9019V51.551V51.55ZM99.4729 51.55V72.953H103.832V66.535L109.012 72.953H114.598L108.012 65.328L114.109 58.215H108.766L103.832 64.121V51.551H99.4719L99.4729 51.55ZM77.2299 67.414C76.5979 68.457 75.2929 69.23 73.8239 69.23C73.3442 69.2297 72.8693 69.1349 72.4263 68.951C71.9833 68.7671 71.5809 68.4977 71.2421 68.1581C70.9033 67.8186 70.6347 67.4156 70.4518 66.9722C70.2688 66.5288 70.1751 66.0537 70.1759 65.574C70.1749 65.0941 70.2686 64.6187 70.4514 64.1751C70.6343 63.7314 70.9028 63.3281 71.2416 62.9882C71.5803 62.6483 71.9828 62.3785 72.4258 62.1942C72.8689 62.0099 73.344 61.9147 73.8239 61.914C75.2929 61.914 76.5979 62.73 77.2299 63.793V67.414ZM77.2299 58.214V59.954C76.5159 58.746 74.7419 57.906 72.8869 57.906C69.0549 57.906 66.0389 61.301 66.0389 65.551C66.0389 69.805 69.0549 73.238 72.8869 73.238C74.7419 73.238 76.5159 72.398 77.2299 71.195V72.934H81.5939V58.214H77.2299ZM18.8049 67.39C18.8049 68.883 17.6019 70.09 16.1129 70.09C15.7588 70.0897 15.4082 70.0197 15.0813 69.8838C14.7543 69.7479 14.4574 69.5488 14.2074 69.2981C13.9575 69.0473 13.7595 68.7497 13.6247 68.4223C13.4899 68.0948 13.4209 67.7441 13.4219 67.39C13.4212 67.0362 13.4903 66.6858 13.6253 66.3588C13.7602 66.0318 13.9584 65.7346 14.2083 65.4843C14.4583 65.234 14.7552 65.0354 15.082 64.9C15.4088 64.7645 15.7591 64.6949 16.1129 64.695H18.8049V67.391V67.39ZM20.1479 67.39C20.1472 67.0362 20.2164 66.6857 20.3514 66.3586C20.4864 66.0315 20.6846 65.7343 20.9347 65.4839C21.1847 65.2336 21.4818 65.035 21.8087 64.8997C22.1356 64.7643 22.486 64.6947 22.8399 64.695C23.1937 64.6949 23.5441 64.7645 23.871 64.9C24.1979 65.0355 24.4948 65.2342 24.7448 65.4847C24.9947 65.7351 25.1928 66.0324 25.3277 66.3595C25.4626 66.6866 25.5317 67.0372 25.5309 67.391V74.137C25.5317 74.491 25.4626 74.8417 25.3278 75.1689C25.1929 75.4962 24.9949 75.7937 24.7449 76.0444C24.495 76.2951 24.1981 76.494 23.8712 76.6299C23.5443 76.7657 23.1939 76.8357 22.8399 76.836C22.4857 76.8359 22.1351 76.7659 21.808 76.6301C21.4809 76.4942 21.1838 76.2952 20.9338 76.0444C20.6837 75.7936 20.4856 75.496 20.3507 75.1685C20.2159 74.841 20.1469 74.4902 20.1479 74.136V67.391V67.39ZM22.8399 56.559C22.4857 56.5589 22.1351 56.4889 21.808 56.3531C21.4809 56.2172 21.1838 56.0182 20.9338 55.7674C20.6837 55.5166 20.4856 55.219 20.3507 54.8915C20.2159 54.564 20.1469 54.2132 20.1479 53.859C20.1472 53.5052 20.2164 53.1547 20.3514 52.8276C20.4864 52.5005 20.6846 52.2033 20.9347 51.9529C21.1847 51.7026 21.4818 51.504 21.8087 51.3687C22.1356 51.2333 22.486 51.1637 22.8399 51.164C23.1936 51.1639 23.5439 51.2335 23.8707 51.369C24.1976 51.5044 24.4944 51.703 24.7444 51.9533C24.9944 52.2036 25.1925 52.5008 25.3274 52.8278C25.4624 53.1548 25.5315 53.5052 25.5309 53.859V56.559H22.8399ZM22.8399 57.93C23.1936 57.9299 23.5439 57.9995 23.8707 58.135C24.1976 58.2704 24.4944 58.469 24.7444 58.7193C24.9944 58.9696 25.1925 59.2668 25.3274 59.5938C25.4624 59.9208 25.5315 60.2712 25.5309 60.625C25.5309 62.117 24.3279 63.325 22.8399 63.325H16.0939C15.7397 63.3249 15.3891 63.2549 15.062 63.1191C14.7349 62.9832 14.4378 62.7842 14.1878 62.5334C13.9377 62.2826 13.7396 61.985 13.6047 61.6575C13.4699 61.33 13.4009 60.9792 13.4019 60.625C13.4012 60.2712 13.4704 59.9207 13.6054 59.5936C13.7404 59.2665 13.9386 58.9693 14.1887 58.7189C14.4388 58.4686 14.7358 58.27 15.0627 58.1347C15.3896 57.9993 15.74 57.9297 16.0939 57.93H22.8399ZM33.6249 60.625C33.6242 60.2712 33.6933 59.9208 33.8283 59.5938C33.9632 59.2668 34.1614 58.9696 34.4113 58.7193C34.6613 58.469 34.9582 58.2704 35.285 58.135C35.6118 57.9995 35.9621 57.9299 36.3159 57.93C36.6697 57.9297 37.0201 57.9993 37.3471 58.1347C37.674 58.27 37.971 58.4686 38.221 58.7189C38.4711 58.9693 38.6693 59.2665 38.8043 59.5936C38.9394 59.9207 39.0085 60.2712 39.0079 60.625C39.0079 62.117 37.8049 63.325 36.3159 63.325H33.6249V60.625ZM32.2809 60.625C32.2809 62.117 31.0779 63.325 29.5899 63.325C29.2357 63.3249 28.8851 63.2549 28.558 63.1191C28.2309 62.9832 27.9338 62.7842 27.6838 62.5334C27.4337 62.2826 27.2356 61.985 27.1007 61.6575C26.9659 61.33 26.8969 60.9792 26.8979 60.625V53.859C26.8972 53.5052 26.9664 53.1547 27.1014 52.8276C27.2364 52.5005 27.4346 52.2033 27.6847 51.9529C27.9347 51.7026 28.2318 51.504 28.5587 51.3687C28.8856 51.2333 29.236 51.1637 29.5899 51.164C29.9436 51.1639 30.2939 51.2335 30.6207 51.369C30.9476 51.5044 31.2444 51.703 31.4944 51.9533C31.7444 52.2036 31.9425 52.5008 32.0774 52.8278C32.2124 53.1548 32.2815 53.5052 32.2809 53.859V60.625ZM29.5899 71.441C29.9437 71.4409 30.2941 71.5105 30.621 71.646C30.9479 71.7816 31.2448 71.9802 31.4948 72.2307C31.7447 72.4811 31.9428 72.7784 32.0777 73.1055C32.2126 73.4326 32.2817 73.7832 32.2809 74.137C32.2817 74.491 32.2126 74.8417 32.0778 75.1689C31.9429 75.4962 31.7449 75.7937 31.4949 76.0444C31.245 76.2951 30.9481 76.494 30.6212 76.6299C30.2943 76.7657 29.9439 76.8357 29.5899 76.836C29.2357 76.8359 28.8851 76.7659 28.558 76.6301C28.2309 76.4942 27.9338 76.2952 27.6838 76.0444C27.4337 75.7936 27.2356 75.496 27.1007 75.1685C26.9659 74.841 26.8969 74.4902 26.8979 74.136V71.441H29.5899ZM29.5899 70.09C29.2357 70.0899 28.8851 70.0199 28.558 69.8841C28.2309 69.7482 27.9338 69.5492 27.6838 69.2984C27.4337 69.0476 27.2356 68.75 27.1007 68.4225C26.9659 68.095 26.8969 67.7442 26.8979 67.39C26.8972 67.0362 26.9664 66.6857 27.1014 66.3586C27.2364 66.0315 27.4346 65.7343 27.6847 65.4839C27.9347 65.2336 28.2318 65.035 28.5587 64.8997C28.8856 64.7643 29.236 64.6947 29.5899 64.695H36.3359C36.6897 64.6949 37.0401 64.7645 37.367 64.9C37.6939 65.0355 37.9908 65.2342 38.2408 65.4847C38.4907 65.7351 38.6888 66.0324 38.8237 66.3595C38.9586 66.6866 39.0277 67.0372 39.0269 67.391C39.0277 67.745 38.9586 68.0957 38.8238 68.423C38.6889 68.7502 38.4909 69.0477 38.2409 69.2984C37.991 69.5491 37.6941 69.748 37.3672 69.8839C37.0403 70.0197 36.6898 70.0897 36.3359 70.09H29.5899Z" fill="black"/>
</svg>
