<svg width="128" height="128" viewBox="0 0 128 128" fill="none" xmlns="http://www.w3.org/2000/svg">
<path d="M20.095 84.095C9.017 84.095 0 75.078 0 64C0 52.922 9.017 43.905 20.095 43.905C31.173 43.905 40.19 52.922 40.19 64C40.19 75.078 31.173 84.095 20.095 84.095ZM20.095 80.739C29.36 80.739 36.835 73.265 36.835 64C36.835 54.735 29.36 47.26 20.095 47.26C17.8957 47.2566 15.7174 47.6873 13.6848 48.5273C11.6523 49.3674 9.80553 50.6003 8.2504 52.1554C6.69526 53.7106 5.46233 55.5573 4.62228 57.5899C3.78223 59.6224 3.35158 61.8007 3.355 64C3.355 73.265 10.83 80.74 20.095 80.74V80.739Z" fill="#010101"/>
<path fill-rule="evenodd" clip-rule="evenodd" d="M14.7228 63.103C19.1228 59.508 23.4278 55.789 27.9238 52.299C25.5658 55.923 23.1398 59.499 20.7818 63.122C18.7588 63.132 16.7358 63.132 14.7228 63.103ZM18.4428 65.107C20.4748 65.107 22.4978 65.107 24.5208 65.136C20.0908 68.712 15.8068 72.46 11.3008 75.94C13.6588 72.316 16.0848 68.73 18.4428 65.107Z" fill="#010101"/>
<path fill-rule="evenodd" clip-rule="evenodd" d="M49.019 70.548C49.844 71.007 51.059 71.3281 52.412 71.3281C55.37 71.3281 56.952 69.8601 56.952 67.8431C56.929 66.1921 55.989 65.1601 53.972 64.4261C52.55 63.9221 52.022 63.5781 52.022 62.8671C52.022 62.1801 52.572 61.6981 53.582 61.6981C54.567 61.6981 55.462 62.0651 55.943 62.3401L56.493 60.3451C55.851 60.0011 54.773 59.6801 53.535 59.6801C50.945 59.6801 49.317 61.2161 49.317 63.1881C49.294 64.4951 50.211 65.6881 52.389 66.4441C53.765 66.9261 54.223 67.3151 54.223 68.0721C54.223 68.8061 53.673 69.3101 52.435 69.3101C51.426 69.3101 50.211 68.8971 49.569 68.5081L49.019 70.548ZM63.379 59.6801C60.009 59.6801 57.602 61.9271 57.602 65.5951C57.602 69.1721 60.032 71.3501 63.196 71.3501C66.039 71.3501 68.928 69.5161 68.928 65.4121C68.928 62.0191 66.704 59.6801 63.379 59.6801ZM63.311 61.7431C65.237 61.7431 66.016 63.7381 66.016 65.4811C66.016 67.7281 64.893 69.3101 63.288 69.3101C61.568 69.3101 60.514 67.6821 60.514 65.5271C60.514 63.6691 61.316 61.7431 63.311 61.7431ZM78.107 68.6681C77.557 68.8981 76.869 69.1031 75.883 69.1031C73.957 69.1031 72.467 67.7971 72.467 65.5031C72.444 63.4631 73.727 61.8811 75.883 61.8811C76.892 61.8811 77.557 62.1111 78.015 62.3171L78.52 60.2071C77.878 59.9091 76.823 59.6801 75.791 59.6801C71.871 59.6801 69.578 62.2941 69.578 65.6411C69.578 69.1031 71.848 71.3271 75.333 71.3271C76.731 71.3271 77.901 71.0291 78.497 70.7541L78.107 68.6681ZM82.448 54.8181H79.628V71.0981H82.448V67.2921L83.411 66.1681L86.621 71.0981H90.083L85.36 64.4951L89.487 59.9321H86.094L83.388 63.5321C83.09 63.9221 82.769 64.4021 82.494 64.8391H82.448V54.8181ZM99.652 66.3061C99.698 66.0531 99.744 65.6411 99.744 65.1131C99.744 62.6601 98.552 59.6791 94.929 59.6791C91.352 59.6791 89.472 62.5911 89.472 65.687C89.472 69.1031 91.605 71.3271 95.227 71.3271C96.832 71.3271 98.162 71.0291 99.125 70.6391L98.712 68.6901C97.864 69.0111 96.924 69.1951 95.617 69.1951C93.829 69.1951 92.247 68.3231 92.177 66.3051L99.652 66.3061ZM92.178 64.3341C92.292 63.1871 93.026 61.6051 94.768 61.6051C96.648 61.6051 97.108 63.3021 97.084 64.3341H92.178ZM101.54 57.4091V59.9321H99.935V62.0411H101.54V67.2911C101.54 68.7591 101.815 69.7681 102.411 70.4101C102.939 70.9831 103.81 71.3271 104.841 71.3271C105.736 71.3271 106.47 71.2121 106.882 71.0521L106.837 68.8971C106.584 68.9651 106.217 69.034 105.737 69.034C104.658 69.034 104.292 68.3241 104.292 66.9711V62.0411H106.974V59.9311H104.292V56.7451L101.54 57.4091ZM109.412 71.3491C110.467 71.3491 111.155 70.5691 111.155 69.5391C111.155 68.4601 110.445 67.7271 109.412 67.7271C108.403 67.7271 107.67 68.4831 107.67 69.5381C107.67 70.5701 108.38 71.3491 109.412 71.3491ZM115.312 71.0971V59.9311H112.469V71.0971H115.312ZM113.891 55.2771C112.951 55.2771 112.309 55.9411 112.309 56.8121C112.309 57.6611 112.928 58.3261 113.869 58.3261C114.854 58.3261 115.473 57.6611 115.473 56.8121C115.45 55.9421 114.854 55.2761 113.891 55.2761V55.2771ZM122.451 59.6781C119.081 59.6781 116.673 61.9261 116.673 65.5941C116.673 69.1711 119.103 71.3491 122.268 71.3491C125.111 71.3491 128 69.5151 128 65.4111C128 62.0171 125.776 59.6781 122.451 59.6781ZM122.382 61.7421C124.308 61.7421 125.088 63.7371 125.088 65.479C125.088 67.726 123.964 69.3091 122.359 69.3091C120.639 69.3091 119.585 67.6811 119.585 65.5251C119.585 63.6681 120.387 61.7421 122.382 61.7421Z" fill="black"/>
</svg>
