<svg width="128" height="128" viewBox="0 0 128 128" fill="none" xmlns="http://www.w3.org/2000/svg">
<path d="M63.951 0.000976562C28.696 0.000976562 0.000976562 28.696 0.000976562 63.951C0.000976562 99.206 28.696 127.901 63.951 127.901C99.206 127.901 127.901 99.206 127.901 63.951C127.901 28.696 99.206 0.000976562 63.95 0.000976562H63.951ZM63.951 10.68C93.435 10.68 117.223 34.467 117.223 63.951C117.223 93.436 93.435 117.223 63.951 117.223C34.467 117.223 10.679 93.436 10.679 63.951C10.679 34.467 34.467 10.68 63.951 10.68Z" fill="#010101"/>
<path fill-rule="evenodd" clip-rule="evenodd" d="M48.39 60.716C62.394 49.276 76.092 37.438 90.401 26.332C82.896 37.865 75.177 49.245 67.672 60.777C61.235 60.807 54.797 60.807 48.39 60.716ZM60.228 67.092C66.696 67.092 73.133 67.092 79.57 67.184C65.475 78.564 51.838 90.493 37.499 101.568C45.004 90.035 52.723 78.625 60.228 67.092Z" fill="#010101"/>
</svg>
