<svg width="128" height="128" viewBox="0 0 128 128" fill="none" xmlns="http://www.w3.org/2000/svg">
<path d="M64 0.72998C29.114 0.72998 0.72998 29.113 0.72998 64C0.72998 98.887 29.114 127.27 64 127.27C98.888 127.27 127.27 98.886 127.27 64C127.27 29.114 98.887 0.72998 64 0.72998ZM67.335 120.9V109.912L94.775 96.012C95.098 95.8487 95.3694 95.5989 95.5589 95.2904C95.7483 94.982 95.8484 94.627 95.848 94.265V87.975C97.1207 87.5337 98.2071 86.6757 98.9313 85.5399C99.6554 84.4041 99.9749 83.057 99.838 81.717C99.7674 80.9284 99.5409 80.1616 99.1715 79.4612C98.8022 78.7609 98.2974 78.1409 97.6864 77.6372C97.0755 77.1336 96.3706 76.7563 95.6127 76.5273C94.8547 76.2983 94.0588 76.2222 93.2712 76.3033C92.4836 76.3844 91.72 76.6212 91.0246 76.9999C90.3293 77.3786 89.7161 77.8916 89.2206 78.5093C88.7252 79.1269 88.3574 79.8368 88.1386 80.5977C87.9198 81.3587 87.8543 82.1555 87.946 82.942C88.0628 84.0734 88.5004 85.1479 89.2072 86.039C89.9141 86.9301 90.8608 87.6008 91.936 87.972V93.062L67.336 105.522V95.302L78.179 90.285C78.5174 90.1283 78.8041 89.8782 79.0052 89.5641C79.2063 89.25 79.3134 88.8849 79.314 88.512L79.334 71.486L99.404 60.21C100.021 59.864 100.404 59.21 100.404 58.504V53.76C101.792 53.2825 102.955 52.3109 103.672 51.0305C104.389 49.7501 104.61 48.2505 104.292 46.8178C103.975 45.3851 103.141 44.1194 101.95 43.2622C100.758 42.4049 99.2934 42.0162 97.834 42.17C96.4808 42.309 95.2155 42.9056 94.2473 43.8612C93.2791 44.8168 92.666 46.0742 92.5093 47.4254C92.3526 48.7767 92.6617 50.141 93.3855 51.2929C94.1093 52.4447 95.2045 53.315 96.49 53.76V57.366L76.42 68.636C75.803 68.986 75.42 69.636 75.42 70.342L75.4 87.262L67.332 90.992V54.2L84.216 45.943C84.5451 45.7829 84.8225 45.5334 85.0165 45.223C85.2105 44.9127 85.3133 44.554 85.313 44.188V37.898C86.5862 37.4569 87.6731 36.5987 88.3974 35.4624C89.1217 34.3261 89.4408 32.9784 89.303 31.638C89.2223 30.8572 88.9886 30.1 88.6153 29.4096C88.2419 28.7192 87.7362 28.1091 87.127 27.6141C86.5179 27.1192 85.8172 26.7491 85.0649 26.525C84.3127 26.3008 83.5237 26.2271 82.743 26.308C81.962 26.3883 81.2045 26.6217 80.5138 26.9949C79.8231 27.3681 79.2127 27.8738 78.7175 28.483C78.2223 29.0922 77.8521 29.7931 77.6279 30.5455C77.4037 31.2979 77.33 32.0871 77.411 32.868C77.5276 33.9991 77.9652 35.0733 78.6721 35.964C79.3791 36.8546 80.3259 37.5246 81.401 37.895V42.965L67.333 49.842V28.598C68.3947 28.2301 69.3312 27.5703 70.035 26.6945C70.7389 25.8186 71.1816 24.7621 71.3124 23.646C71.4431 22.53 71.2567 21.3998 70.7744 20.3849C70.2921 19.37 69.5335 18.5117 68.5856 17.9083C67.6377 17.3049 66.5389 16.9809 65.4153 16.9736C64.2916 16.9662 63.1887 17.2757 62.233 17.8666C61.2772 18.4574 60.5074 19.3057 60.0118 20.3142C59.5162 21.3226 59.3149 22.4504 59.431 23.568C59.548 24.6988 59.9855 25.7727 60.6919 26.6634C61.3984 27.5541 62.3445 28.2246 63.419 28.596V63.24L53.476 58.016V42.28C53.4763 41.9797 53.4072 41.6834 53.2742 41.4142C53.1411 41.145 52.9477 40.9102 52.709 40.728L45.907 35.518C46.4491 34.2131 46.5115 32.7583 46.0831 31.4118C45.6546 30.0652 44.7631 28.914 43.5665 28.1623C42.37 27.4107 40.9459 27.1071 39.5468 27.3056C38.1478 27.5041 36.8643 28.1917 35.924 29.2465C34.9838 30.3013 34.4476 31.6551 34.4106 33.0677C34.3735 34.4803 34.8381 35.8603 35.7218 36.9629C36.6055 38.0655 37.8512 38.8195 39.2379 39.091C40.6246 39.3624 42.0627 39.1339 43.297 38.446L49.562 43.248V59.2C49.562 59.928 49.966 60.595 50.61 60.933L63.42 67.663V80.387L42.05 70.503L42.342 62.761C42.3561 62.3886 42.2635 62.02 42.0752 61.6984C41.8869 61.3769 41.6106 61.1158 41.279 60.946L31.482 55.921C31.629 55.291 31.682 54.629 31.612 53.951C31.4317 52.3884 30.6428 50.9598 29.4163 49.9749C28.1898 48.99 26.6245 48.5282 25.0598 48.6897C23.4951 48.8511 22.0571 49.6228 21.0576 50.8373C20.058 52.0519 19.5774 53.6115 19.72 55.178C19.8832 56.7547 20.666 58.202 21.8962 59.2015C23.1264 60.2011 24.7033 60.671 26.28 60.508C27.414 60.3931 28.4905 59.9527 29.38 59.24L38.384 63.856L38.089 71.656C38.059 72.446 38.506 73.176 39.222 73.506L63.42 84.7V93.784C63.3975 93.9552 63.3975 94.1287 63.42 94.3V120.993C61.3836 120.972 59.3497 120.843 57.327 120.606V97.66C57.327 96.894 56.882 96.2 56.187 95.882L41.005 88.895C41.0917 88.0132 40.9813 87.1232 40.6816 86.2894C40.3819 85.4556 39.9005 84.6989 39.2723 84.0741C38.6441 83.4493 37.8847 82.9721 37.0493 82.677C36.2139 82.3819 35.3233 82.2764 34.442 82.368C33.4847 82.4662 32.5653 82.7941 31.762 83.3238C30.9586 83.8535 30.2951 84.5694 29.8277 85.4106C29.3604 86.2518 29.1032 87.1934 29.0778 88.1554C29.0525 89.1173 29.2598 90.0712 29.6821 90.9358C30.1045 91.8004 30.7294 92.5503 31.5038 93.1216C32.2781 93.6929 33.1789 94.0688 34.1297 94.2172C35.0805 94.3657 36.053 94.2824 36.9647 93.9743C37.8763 93.6663 38.7001 93.1427 39.366 92.448L53.413 98.911V120.003C27.022 115.028 6.99198 91.815 6.99198 64C6.99198 32.566 32.566 6.98998 64.002 6.98998C95.435 6.98998 121.008 32.566 121.008 64C121.008 94.315 97.221 119.17 67.334 120.902L67.335 120.9Z" fill="#205081"/>
</svg>
