<svg width="128" height="128" viewBox="0 0 128 128" fill="none" xmlns="http://www.w3.org/2000/svg">
<path d="M8.15319 114.608C4.79319 113.79 4.79319 113.79 4.79319 111.628C4.79319 109.998 5.14119 109.558 7.58719 109.558C9.11719 109.558 10.9452 109.751 12.6012 110.09C12.6715 110.104 12.744 110.104 12.8143 110.09C12.8846 110.075 12.951 110.046 13.0096 110.004C13.0681 109.963 13.1174 109.91 13.1545 109.848C13.1916 109.787 13.2157 109.718 13.2252 109.647L13.5692 107.039C13.5867 106.909 13.5544 106.777 13.4788 106.669C13.4032 106.562 13.2897 106.487 13.1612 106.459C11.3092 106.066 9.42229 105.862 7.52919 105.849C2.56919 105.849 0.545192 107.497 0.545192 111.536C0.545192 113.636 0.708192 115.04 1.53819 116.009C2.28819 116.885 3.56419 117.433 6.24419 118.032C9.74919 118.792 9.74919 118.875 9.74919 121.012C9.74919 122.834 9.39919 123.292 6.77419 123.292C5.06419 123.292 3.42719 123.036 1.47019 122.459C1.40136 122.439 1.32907 122.433 1.25781 122.441C1.18656 122.45 1.11786 122.473 1.05598 122.51C0.994093 122.546 0.940343 122.595 0.898063 122.653C0.855783 122.711 0.825875 122.777 0.810192 122.847L0.270192 125.284C0.243822 125.403 0.25987 125.528 0.315561 125.636C0.371252 125.744 0.463087 125.83 0.575192 125.878C1.84519 126.416 4.30519 126.998 6.71219 126.998C12.8372 126.998 13.9982 124.894 13.9982 121.01C13.9982 119.008 13.9562 117.73 13.1322 116.753C12.2872 115.751 10.7302 115.225 8.15219 114.606L8.15319 114.608ZM22.4232 111.25C18.0912 111.25 15.8012 113.332 15.8012 117.27V120.982C15.8012 124.919 18.0912 127 22.4242 127C26.7562 127 29.0462 124.92 29.0462 120.982V117.27C29.0462 113.332 26.7562 111.25 22.4242 111.25H22.4232ZM19.9302 117.15C19.9302 115.53 20.6762 114.838 22.4222 114.838C24.1692 114.838 24.9142 115.528 24.9142 117.148V121.102C24.9142 122.722 24.1692 123.412 22.4222 123.412C20.6752 123.412 19.9302 122.722 19.9302 121.102V117.149V117.15ZM43.3202 111.553H40.2362C40.0977 111.553 39.965 111.608 39.8671 111.706C39.7692 111.804 39.7142 111.937 39.7142 112.075V121.841C38.6042 122.407 37.0412 122.991 36.1062 122.991C35.4112 122.991 35.1532 122.734 35.1532 122.039V112.077C35.1532 111.939 35.0982 111.806 35.0003 111.708C34.9024 111.61 34.7696 111.555 34.6312 111.555H31.5472C31.4088 111.555 31.276 111.61 31.1781 111.708C31.0802 111.806 31.0252 111.939 31.0252 112.077V122.432C31.0252 125.465 32.2172 127.002 34.5692 127.002C36.2042 127.002 38.4312 126.439 40.3132 125.556L40.5382 126.326C40.6032 126.548 40.8082 126.701 41.0382 126.701H43.3232C43.6132 126.701 43.8452 126.466 43.8452 126.178V112.078C43.8452 111.939 43.7901 111.806 43.6921 111.708C43.594 111.61 43.461 111.554 43.3222 111.554L43.3202 111.553ZM54.1102 111.813C54.1018 111.735 54.076 111.66 54.0347 111.594C53.9934 111.527 53.9376 111.471 53.8715 111.429C53.8054 111.386 53.7307 111.36 53.653 111.351C53.5752 111.341 53.4963 111.35 53.4222 111.375C52.2872 111.765 50.9492 112.528 50.1582 113.03L50.0052 112C49.987 111.876 49.9247 111.762 49.8298 111.68C49.7349 111.598 49.6137 111.553 49.4882 111.553H46.9352C46.7967 111.553 46.664 111.608 46.5661 111.706C46.4682 111.804 46.4132 111.937 46.4132 112.075V126.175C46.4132 126.465 46.6472 126.697 46.9352 126.697H50.0202C50.3102 126.697 50.5422 126.463 50.5422 126.175V117.12C51.7142 116.377 52.7792 115.754 54.1082 115.147C54.2077 115.101 54.2905 115.026 54.3447 114.931C54.3989 114.836 54.4218 114.726 54.4102 114.617L54.1102 111.813ZM65.4852 123.504C65.4741 123.433 65.4485 123.365 65.4101 123.305C65.3717 123.244 65.3213 123.192 65.262 123.152C65.2026 123.111 65.1356 123.084 65.0651 123.07C64.9947 123.057 64.9222 123.058 64.8522 123.074C63.9718 123.276 63.0716 123.38 62.1682 123.384C60.2112 123.384 59.6452 122.884 59.6452 121.164V117.089C59.6452 115.365 60.2112 114.867 62.1682 114.867C62.6322 114.867 63.7902 114.931 64.8532 115.175C64.9232 115.191 64.9959 115.193 65.0666 115.18C65.1373 115.167 65.2045 115.139 65.264 115.099C65.3235 115.058 65.374 115.006 65.4122 114.945C65.4504 114.884 65.4756 114.816 65.4862 114.745L65.8522 112.305C65.8711 112.18 65.844 112.052 65.776 111.946C65.7079 111.839 65.6036 111.761 65.4822 111.725C64.2952 111.375 62.9062 111.251 62.0772 111.251C57.4172 111.251 55.5152 112.951 55.5152 117.119V121.133C55.5152 125.3 57.4152 127 62.0772 127C63.2112 127 64.5172 126.82 65.4872 126.528C65.6071 126.491 65.7099 126.413 65.7769 126.307C65.8439 126.201 65.8706 126.074 65.8522 125.95L65.4852 123.504ZM73.4672 111.25C69.3322 111.25 67.1472 113.31 67.1472 117.21V121.102C67.1472 125.126 69.1942 127 73.5872 127C75.3792 127 77.2872 126.687 78.8212 126.14C78.94 126.098 79.0395 126.014 79.1014 125.905C79.1634 125.795 79.1835 125.666 79.1582 125.543L78.7022 123.335C78.6877 123.265 78.6589 123.198 78.6176 123.14C78.5763 123.081 78.5234 123.032 78.4621 122.994C78.4008 122.957 78.3326 122.933 78.2615 122.923C78.1905 122.913 78.1182 122.919 78.0492 122.938C76.6342 123.338 75.2842 123.533 73.9212 123.533C71.6712 123.533 71.2772 122.807 71.2772 121.283V120.753H78.9332C79.2232 120.753 79.4552 120.518 79.4552 120.23V117.39C79.4552 113.202 77.5552 111.25 73.4682 111.25H73.4672ZM71.2772 117.347V116.847C71.2772 115.394 71.9832 114.717 73.4972 114.717C75.1712 114.717 75.5072 115.532 75.5072 116.847V117.347H71.2772ZM93.3702 109.426V106.673C93.3702 106.535 93.3152 106.402 93.2173 106.304C93.1194 106.206 92.9866 106.151 92.8482 106.151H78.4152C78.3466 106.151 78.2786 106.165 78.2152 106.191C78.1518 106.217 78.0942 106.256 78.0457 106.304C77.9972 106.353 77.9588 106.41 77.9326 106.474C77.9065 106.537 77.8931 106.605 77.8932 106.674V109.427C77.8932 109.717 78.1272 109.949 78.4152 109.949H83.5052V126.176C83.5052 126.466 83.7402 126.698 84.0282 126.698H87.2342C87.5242 126.698 87.7562 126.464 87.7562 126.176V109.949H92.8462C92.915 109.95 92.9832 109.936 93.0469 109.91C93.1106 109.884 93.1684 109.846 93.2172 109.797C93.2659 109.749 93.3046 109.691 93.3308 109.628C93.3571 109.564 93.3705 109.496 93.3702 109.427V109.426Z" fill="#205081"/>
<path d="M99.7152 111.813C99.7069 111.735 99.6811 111.66 99.6396 111.593C99.5982 111.526 99.5422 111.47 99.4759 111.428C99.4096 111.385 99.3346 111.359 99.2566 111.35C99.1785 111.341 99.0995 111.349 99.0252 111.375C97.8912 111.765 96.5532 112.528 95.7622 113.03L95.6102 112C95.592 111.876 95.5296 111.762 95.4345 111.68C95.3393 111.598 95.2179 111.553 95.0922 111.553H92.5402C92.4716 111.553 92.4036 111.566 92.3402 111.592C92.2767 111.619 92.219 111.657 92.1705 111.706C92.1219 111.754 92.0834 111.812 92.0571 111.875C92.0308 111.938 92.0172 112.006 92.0172 112.075V126.175C92.0172 126.465 92.2512 126.697 92.5392 126.697H95.6232C95.9132 126.697 96.1452 126.463 96.1452 126.175V117.12C97.3172 116.377 98.3822 115.754 99.7112 115.147C99.8108 115.101 99.8935 115.026 99.9477 114.931C100.002 114.836 100.025 114.726 100.013 114.617L99.7132 111.813H99.7152ZM107.517 111.25C103.382 111.25 101.197 113.31 101.197 117.21V121.102C101.197 125.126 103.244 127 107.637 127C109.429 127 111.337 126.687 112.871 126.14C112.99 126.098 113.09 126.014 113.151 125.905C113.213 125.795 113.234 125.666 113.208 125.543L112.752 123.335C112.737 123.265 112.709 123.199 112.667 123.14C112.626 123.082 112.573 123.032 112.512 122.995C112.45 122.958 112.382 122.934 112.311 122.924C112.24 122.914 112.168 122.919 112.099 122.938C110.684 123.338 109.334 123.533 107.971 123.533C105.721 123.533 105.327 122.807 105.327 121.283V120.753H112.983C113.273 120.753 113.505 120.518 113.505 120.23V117.39C113.505 113.202 111.605 111.25 107.518 111.25H107.517ZM105.327 117.347V116.847C105.327 115.394 106.033 114.717 107.547 114.717C109.221 114.717 109.557 115.532 109.557 116.847V117.347H105.327ZM121.756 111.25C117.621 111.25 115.436 113.31 115.436 117.21V121.102C115.436 125.126 117.483 127 121.876 127C123.668 127 125.576 126.687 127.11 126.14C127.229 126.098 127.328 126.014 127.39 125.904C127.452 125.795 127.472 125.666 127.446 125.543L126.99 123.335C126.976 123.265 126.947 123.198 126.906 123.139C126.864 123.081 126.811 123.031 126.75 122.994C126.688 122.957 126.62 122.932 126.549 122.923C126.478 122.913 126.405 122.918 126.336 122.938C124.921 123.338 123.571 123.533 122.208 123.533C119.96 123.533 119.565 122.807 119.565 121.283V120.753H127.221C127.511 120.753 127.744 120.518 127.744 120.23V117.39C127.744 113.202 125.842 111.25 121.757 111.25H121.756ZM119.566 117.347V116.847C119.566 115.394 120.271 114.717 121.786 114.717C123.459 114.717 123.796 115.532 123.796 116.847V117.347H119.566ZM64.0002 5C37.7702 5 16.4282 26.342 16.4282 52.574C16.4282 78.806 37.7672 100.146 64.0002 100.147C90.2322 100.147 111.572 78.805 111.572 52.574C111.572 26.343 90.2322 5 64.0022 5H64.0002ZM66.5072 95.36V87.097L87.1402 76.647C87.383 76.5241 87.587 76.3361 87.7293 76.1041C87.8716 75.8721 87.9467 75.6052 87.9462 75.333V70.603C88.9032 70.2714 89.7202 69.6264 90.2647 68.7724C90.8092 67.9184 91.0494 66.9055 90.9462 65.898C90.899 65.3005 90.7328 64.7185 90.4574 64.1862C90.182 63.6538 89.8029 63.182 89.3424 62.7983C88.8819 62.4147 88.3493 62.127 87.776 61.9522C87.2027 61.7774 86.6002 61.7191 86.004 61.7806C85.4078 61.842 84.83 62.0221 84.3044 62.3103C83.7788 62.5984 83.3162 62.9887 82.9437 63.4582C82.5712 63.9278 82.2964 64.4671 82.1354 65.0444C81.9744 65.6217 81.9305 66.2254 82.0062 66.82C82.0938 67.6709 82.4227 68.4791 82.9542 69.1493C83.4857 69.8195 84.1976 70.3239 85.0062 70.603V74.429L66.5082 83.797V76.112L74.6622 72.34C75.1822 72.102 75.5142 71.58 75.5162 71.008L75.5322 58.206L90.6222 49.729C91.0862 49.469 91.3722 48.977 91.3722 48.445V44.875C92.4139 44.5145 93.2867 43.7836 93.8245 42.8214C94.3623 41.8592 94.5277 40.7329 94.2891 39.6567C94.0505 38.5805 93.4247 37.6296 92.5306 36.9849C91.6366 36.3401 90.5367 36.0466 89.4402 36.16C88.853 36.2204 88.2833 36.396 87.764 36.6767C87.2446 36.9573 86.7856 37.3376 86.4132 37.7957C86.0408 38.2538 85.7623 38.7808 85.5936 39.3465C85.425 39.9123 85.3694 40.5058 85.4302 41.093C85.5182 41.9436 85.8473 42.7515 86.3787 43.4215C86.9102 44.0915 87.6219 44.5957 88.4302 44.875V47.585L73.3402 56.061C73.1125 56.1889 72.923 56.3752 72.7911 56.6007C72.6593 56.8262 72.59 57.0828 72.5902 57.344L72.5732 70.066L66.5072 72.87V45.204L79.2022 38.996C79.7062 38.752 80.0272 38.238 80.0272 37.676V32.946C81.0678 32.5847 81.9395 31.8537 82.4765 30.8919C83.0135 29.93 83.1784 28.8045 82.94 27.729C82.7015 26.6536 82.0763 25.7032 81.1831 25.0585C80.29 24.4138 79.191 24.1196 78.0952 24.232C77.5079 24.2924 76.9382 24.468 76.4187 24.7488C75.8992 25.0295 75.4402 25.4098 75.0678 25.868C74.6954 26.3262 74.4169 26.8534 74.2483 27.4192C74.0797 27.9851 74.0243 28.5787 74.0852 29.166C74.1731 30.0164 74.5021 30.8241 75.0336 31.4938C75.5651 32.1635 76.2769 32.6673 77.0852 32.946V36.759L66.5072 41.929V25.954C67.306 25.6778 68.0107 25.1819 68.5405 24.5234C69.0702 23.8648 69.4036 23.0703 69.5023 22.2309C69.601 21.3915 69.4611 20.5413 69.0986 19.7778C68.736 19.0143 68.1656 18.3685 67.4527 17.9145C66.7398 17.4605 65.9134 17.2166 65.0682 17.211C64.223 17.2053 63.3934 17.438 62.6745 17.8825C61.9556 18.3269 61.3765 18.965 61.0038 19.7235C60.6311 20.4821 60.4798 21.3304 60.5672 22.171C60.6552 23.0214 60.9843 23.829 61.5158 24.4986C62.0473 25.1683 62.759 25.6722 63.5672 25.951V52.001L56.0892 48.071V36.241C56.0892 35.783 55.8752 35.351 55.5122 35.073L50.4002 31.16C50.8085 30.1787 50.8559 29.0845 50.5341 28.0715C50.2123 27.0586 49.542 26.1924 48.6423 25.6267C47.7425 25.061 46.6714 24.8323 45.619 24.9813C44.5667 25.1302 43.6011 25.6472 42.8937 26.4404C42.1863 27.2337 41.7828 28.2518 41.7547 29.3143C41.7267 30.3768 42.076 31.4148 42.7406 32.2443C43.4052 33.0737 44.3421 33.6408 45.3852 33.8451C46.4282 34.0493 47.5099 33.8775 48.4382 33.36L53.1482 36.97V48.964C53.1482 49.511 53.4522 50.014 53.9362 50.267L63.5682 55.327V64.895L47.4982 57.463L47.7182 51.641C47.7287 51.361 47.659 51.0839 47.5173 50.8423C47.3755 50.6006 47.1677 50.4045 46.9182 50.277L39.5532 46.499C39.6632 46.025 39.7032 45.527 39.6502 45.017C39.5022 43.8523 38.9045 42.7916 37.9848 42.0618C37.0651 41.332 35.8963 40.9909 34.7285 41.1115C33.5606 41.2321 32.4862 41.8047 31.7349 42.707C30.9837 43.6092 30.6152 44.7696 30.7082 45.94C30.8306 47.1257 31.4189 48.2143 32.3438 48.9664C33.2687 49.7184 34.4545 50.0722 35.6402 49.95C36.4926 49.8625 37.3016 49.5309 37.9702 48.995L44.7402 52.467L44.5202 58.333C44.5095 58.6229 44.5846 58.9094 44.7362 59.1567C44.8878 59.404 45.1091 59.601 45.3722 59.723L63.5672 68.139V74.969C63.5502 75.0978 63.5502 75.2282 63.5672 75.357V95.427C62.0358 95.4114 60.5064 95.3146 58.9852 95.137V77.88C58.9852 77.5986 58.9044 77.3232 58.7525 77.0864C58.6006 76.8496 58.3839 76.6613 58.1282 76.544L46.7102 71.293C46.7759 70.6299 46.6931 69.9604 46.4679 69.3333C46.2427 68.7061 45.8807 68.137 45.4083 67.6671C44.9358 67.1972 44.3646 66.8383 43.7362 66.6166C43.1078 66.3948 42.438 66.3157 41.7752 66.385C41.0553 66.4586 40.3637 66.7051 39.7595 67.1033C39.1552 67.5016 38.656 68.0399 38.3044 68.6725C37.9529 69.3051 37.7593 70.0132 37.7401 70.7367C37.7209 71.4602 37.8768 72.1776 38.1944 72.8279C38.512 73.4782 38.982 74.0421 39.5643 74.4718C40.1467 74.9015 40.8242 75.1842 41.5392 75.2959C42.2543 75.4075 42.9857 75.3448 43.6713 75.1131C44.357 74.8814 44.9765 74.4875 45.4772 73.965L56.0392 78.825V94.685C36.1952 90.942 21.1342 73.488 21.1342 52.575C21.1342 28.939 40.3642 9.708 63.9992 9.708C87.6352 9.708 106.863 28.938 106.863 52.574C106.863 75.368 88.9782 94.057 66.5062 95.359L66.5072 95.36Z" fill="#205081"/>
</svg>
