<svg width="128" height="128" viewBox="0 0 128 128" fill="none" xmlns="http://www.w3.org/2000/svg">
<path d="M1.7002 98.6C1.1002 98.3 0.700195 97.6 0.700195 96.8C0.700195 95.6 1.6002 94.7 2.8002 94.7C3.2002 94.7 3.6002 94.8 3.9002 95C6.1002 96.5 8.5002 97.2 10.6002 97.2C12.9002 97.2 14.2002 96.2 14.2002 94.7V94.6C14.2002 92.8 11.7002 92.2 9.0002 91.4C5.6002 90.4 1.8002 89 1.8002 84.6V84.5C1.8002 80.1 5.4002 77.5 10.0002 77.5C12.5002 77.5 15.0002 78.2 17.3002 79.4C18.0002 79.8 18.6002 80.5 18.6002 81.4C18.6002 82.6 17.6002 83.5 16.4002 83.5C16.0002 83.5 15.7002 83.4 15.3002 83.2C13.4002 82.2 11.5002 81.6 9.9002 81.6C7.8002 81.6 6.7002 82.6 6.7002 83.9V84C6.7002 85.7 9.2002 86.4 11.9002 87.3C15.3002 88.3 19.1002 89.9 19.1002 94V94.1C19.1002 99 15.3002 101.4 10.5002 101.4C7.6002 101.4 4.4002 100.5 1.7002 98.6ZM39.8002 89.5C39.8002 85 36.8002 82.1 33.2002 82.1C29.6002 82.1 26.5002 85.1 26.5002 89.5V89.6C26.5002 94 29.6002 97 33.2002 97C36.8002 96.8 39.8002 94 39.8002 89.5ZM21.4002 80.2C21.4002 78.7 22.5002 77.5 24.0002 77.5C25.5002 77.5 26.7002 78.7 26.7002 80.2V81.8C28.4002 79.4 30.8002 77.5 34.5002 77.5C39.9002 77.5 45.2002 81.8 45.2002 89.4V89.5C45.2002 97.1 40.0002 101.4 34.5002 101.4C30.7002 101.4 28.3002 99.5 26.7002 97.4V105.5C26.7002 107 25.5002 108.1 24.0002 108.1C22.6002 108.1 21.4002 107 21.4002 105.5V80.2ZM47.4002 80.1C47.4002 78.6 48.5002 77.4 50.0002 77.4C51.5002 77.4 52.7002 78.6 52.7002 80.1V81.4C53.0002 79.4 56.2002 77.5 58.5002 77.5C60.2002 77.5 61.1002 78.6 61.1002 80.1C61.1002 81.5 60.2002 82.4 59.0002 82.6C55.2002 83.3 52.6002 86.5 52.6002 91.1V98.7C52.6002 100.1 51.4002 101.3 49.9002 101.3C48.5002 101.3 47.3002 100.2 47.3002 98.7V80.1M63.5002 80.1C63.5002 78.6 64.7002 77.4 66.2002 77.4C67.7002 77.4 68.9002 78.6 68.9002 80.1V98.7C68.9002 100.2 67.7002 101.3 66.2002 101.3C64.7002 101.3 63.5002 100.2 63.5002 98.7V80.1ZM71.2002 80.2C71.2002 78.7 72.4002 77.5 73.9002 77.5C75.4002 77.5 76.7002 78.7 76.7002 80.2V81.3C78.2002 79.2 80.5002 77.5 84.2002 77.5C89.6002 77.5 92.7002 81 92.7002 86.3V98.7C92.7002 100.2 91.5002 101.3 90.0002 101.3C88.5002 101.3 87.2002 100.2 87.2002 98.7V87.9C87.2002 84.3 85.3002 82.3 82.1002 82.3C78.9002 82.3 76.7002 84.4 76.7002 88V98.7C76.7002 100.2 75.5002 101.3 73.9002 101.3C72.4002 101.3 71.2002 100.2 71.2002 98.7V80.2ZM106.5 96.9C102.8 96.9 99.7002 94.1 99.7002 89.5V89.4C99.7002 84.9 102.8 82 106.5 82C110.2 82 113.4 85 113.4 89.4V89.5C113.4 93.9 110.2 96.9 106.5 96.9ZM116 77.6C114.5 77.6 113.3 78.8 113.3 80.3V81.9C111.5 79.5 109.1 77.6 105.2 77.6C99.6002 77.6 94.2002 81.9 94.2002 89.6V89.7C94.2002 97.3 99.6002 101.7 105.2 101.7C109.1 101.7 111.6 99.8 113.3 97.7C113 101.9 110.4 104 105.8 104C103.1 104 100.7 103.3 98.5002 102.2C98.2002 102.1 97.9002 102 97.5002 102C96.2002 102 95.2002 103 95.2002 104.2C95.2002 105.2 95.8002 105.9 96.7002 106.3C99.6002 107.7 102.5 108.4 105.9 108.4C110.2 108.4 113.5 107.4 115.7 105.3C117.7 103.4 118.8 100.5 118.8 96.6V80.2C118.7 78.7 117.5 77.6 116 77.6ZM68.9002 71.1C68.9002 72.5 67.7002 73.7 66.2002 73.7C64.7002 73.7 63.5002 72.5 63.5002 71.1C63.5002 69.7 64.7002 68.5 66.2002 68.5C67.7002 68.5 68.9002 69.7 68.9002 71.1ZM82.9002 53.8C77.0002 61.6 64.3002 59 56.1002 59.3C56.1002 59.3 54.7002 59.4 53.2002 59.6C53.2002 59.6 53.8002 59.4 54.4002 59.1C60.1002 57.2 62.8002 56.8 66.3002 55C72.8002 51.7 79.3002 44.6 80.6002 37.2C78.1002 44.3 70.6002 50.4 63.7002 52.9C59.0002 54.6 50.5002 56.2 50.5002 56.2L50.2002 56C44.4002 53.3 44.2002 41 54.8002 37.1C59.4002 35.4 63.8002 36.3 68.8002 35.2C74.1002 34 80.3002 30.1 82.8002 25C85.6002 33.3 89.0002 46 82.9002 53.8ZM83.0002 22.6C82.3002 24.2 81.4002 25.7 80.4002 27C76.0002 22.6 69.9002 19.9 63.1002 19.9C49.8002 19.9 39.0002 30.5 39.0002 43.4C39.0002 50.2 42.0002 56.3 46.7002 60.6L47.2002 61.1C46.3002 60.4 46.2002 59.1 46.9002 58.3C47.6002 57.4 48.9002 57.3 49.8002 58C50.7002 58.7 50.8002 60 50.1002 60.8C49.4002 61.7 48.1002 61.8 47.2002 61.1L47.6002 61.4C51.8002 64.8 57.2002 66.9 63.1002 66.9C75.8002 66.9 86.2002 57.2 87.1002 45.1C87.9002 39.2 86.1002 31.6 83.0002 22.6ZM125.1 79.2H124.2V80.4H125.1C125.4 80.4 125.7 80.2 125.7 79.8C125.7 79.4 125.4 79.2 125.1 79.2ZM125.6 82.2L124.7 80.8H124.1V82.2H123.6V78.8H125C125.6 78.8 126.1 79.2 126.1 79.8C126.1 80.6 125.4 80.8 125.2 80.8L126.1 82.2H125.6ZM124.8 77.9C123.4 77.9 122.2 79 122.2 80.4C122.2 81.8 123.4 82.9 124.8 82.9C126.2 82.9 127.4 81.8 127.4 80.4C127.4 79.1 126.2 77.9 124.8 77.9ZM124.8 83.5C123.1 83.5 121.7 82.2 121.7 80.5C121.7 78.8 123.1 77.5 124.8 77.5C126.5 77.5 127.9 78.8 127.9 80.5C127.9 82.1 126.5 83.5 124.8 83.5Z" fill="#5FB832"/>
</svg>
