<svg width="128" height="128" viewBox="0 0 128 128" fill="none" xmlns="http://www.w3.org/2000/svg">
<path d="M125 80C123.3 80 121.9 81.3 121.9 83C121.9 84.7 123.2 86 125 86C126.7 86 128 84.7 128 83C128 81.3 126.7 80 125 80ZM124.9 80.5C126.3 80.5 127.3 81.6 127.3 83C127.3 84.4 126.3 85.5 125 85.5C123.6 85.5 122.6 84.4 122.6 83C122.6 81.6 123.5 80.6 124.9 80.5ZM123.9 81.3V84.7H124.5V83.2H125.1L126 84.7H126.6L125.7 83.1C126.3 83.1 126.5 82.7 126.5 82.2C126.5 81.6 126.1 81.3 125.3 81.3H123.9ZM124.4 82.8V81.7H125.1C125.6 81.7 125.8 81.9 125.8 82.3C125.8 82.7 125.5 82.9 125.2 82.9L124.4 82.8ZM31.4 93.2C29.8 92 27.9 91 25.3 90.2C22 89.1 17.2 88 15.3 87.3C14.1 86.8 13.6 86.1 13.6 85.1C13.6 83.7 15.3 82.9 17.3 82.8C20.6 82.9 21.6 84.8 21.8 86.1H31.4V93.2ZM43.4 102.1H50.5C56.7 102 61.7 98.9 64.2 94.4C64.4 94 64.6 93.7 64.8 93.3C65.2 93.8 65.5 94 65.9 94.4C67.6 95.9 69.8 97 72.1 97.7C75.8 99 78.7 99.9 79.7 100.3C81.6 101.1 82.8 101.7 82.8 103.4C82.8 105.4 80.6 106.2 78.3 106.3C75.2 106.2 72.1 104.7 72.2 101.6H60C60.6 109.7 68.6 116 78 116.1C83.7 116 89 114.4 92.4 110.3C95.8 113.8 99.8 116 105.4 116.1C114.3 116 123.5 111.6 123.6 102.2C123.6 99.2 122.8 96.6 120.9 94.4C119.2 92.4 116.8 91.1 113.5 90.2C110.2 89.1 105.4 88 103.5 87.3C102.3 86.8 101.8 86.1 101.8 85.1C101.8 83.7 103.5 82.9 105.5 82.8C108.8 82.9 109.8 84.8 110 86.1H121.6C121.7 78.1 115 72.8 105.5 72.8C98.4 72.8 93.6 75.5 91.2 79.4C88.6 75.3 83.4 72.8 76.9 72.8C70.1 72.8 65.4 75.4 62.9 79.1C60.1 75.5 55.5 73.2 49.9 73.2H31.4V79.3C28.8 75.2 23.6 72.8 17.2 72.8C7.3 72.8 1.9 78.3 1.4 84.6C1.4 88.5 3.3 92 6.2 94.5C7.9 96 9.9 97.1 12.2 97.8C15.9 99.1 18.8 100 19.8 100.4C21.7 101.2 22.9 101.8 22.9 103.5C22.9 105.5 20.6 106.3 18.4 106.4C15.3 106.3 12.2 104.8 12.3 101.7H0C0.6 109.8 8.6 116.1 18 116.2C23.2 116.1 28 114.7 31.2 111.7V115.5H43.2L43.4 102.1ZM43.4 83.2H49.9C52.3 83.2 54.4 85.2 54.4 87.7C54.4 90.2 52.4 92.2 49.9 92.2H43.4V83.2ZM92.5 94.5C90.8 92.5 88.4 91.2 85.1 90.3C81.8 89.2 77 88.1 75.2 87.4C73.9 86.9 73.3 86.2 73.3 85.2C73.3 83.8 75 83 77 82.9C80.4 83 81.3 84.9 81.5 86.2H89.7C90.2 89.4 91.8 92.3 94.4 94.5C96.1 96 98.2 97.1 100.5 97.8C104.2 99.1 107.1 100 108 100.4C110 101.2 111.1 101.8 111.1 103.5C111.1 105.5 108.8 106.3 106.6 106.4C103.5 106.3 100.4 104.8 100.5 101.7H95C95 98.8 94.1 96.4 92.5 94.5Z" fill="#CC1E4C"/>
<path d="M0 10.7V14.2H24.9V10.7H0ZM28.4 10.7V14.2H64C64 14.2 60.4 10.7 55.6 10.7H28.4ZM70.9 10.7V14.2H92.4L91.1 10.7H70.9ZM107.8 10.7L106.5 14.2H127.8V10.7H107.8ZM0 17.5V21H24.9V17.5H0ZM28.4 17.5V21H68C68 21 67.5 18.3 66.7 17.5H28.4ZM70.9 17.5V21H94.7L93.5 17.5H70.9ZM105.2 17.5L104 21H127.7V17.5H105.2ZM7.2 24.3V27.8H18V24.3H7.2ZM35.6 24.3V27.8H46.4V24.3H35.6ZM56.9 24.3V27.8H67.7C67.7 27.8 68.4 25.9 68.4 24.3H56.9ZM78.1 24.3V27.8H97.2L95.9 24.3H78.1ZM102.9 24.3L101.6 27.8H120.8V24.3H102.9ZM7.2 31.2V34.7H18V31.2H7.2ZM35.6 31.2V34.7H63.2C63.2 34.7 65.5 32.9 66.2 31.2H35.6ZM78.1 31.2V34.7H88.9V32.8L89.6 34.7H109.4L110.1 32.8V34.7H120.9V31.2H100.6L99.5 34.2L98.4 31.2H78.1ZM7.2 38V41.5H18V38H7.2ZM35.6 38V41.5H66.2C65.5 39.8 63.2 38 63.2 38H35.6ZM78.1 38V41.5H88.9V38H78.1ZM90.8 38L92.1 41.5H106.9L108.1 38H90.8ZM110.1 38V41.5H120.9V38H110.1ZM7.2 44.8V48.3H18V44.8H7.2ZM35.6 44.8V48.3H46.4V44.8H35.6ZM56.9 44.8V48.3H68.4C68.4 46.6 67.7 44.8 67.7 44.8H56.9ZM78.1 44.8V48.3H88.9V44.8H78.1ZM93.3 44.8L94.6 48.3H104.5L105.8 44.8H93.3ZM110.1 44.8V48.3H120.9V44.8H110.1ZM0.2 51.6V55.1H25.1V51.6H0.2ZM28.4 51.6V55.1H66.8C67.6 54.3 68.1 51.6 68.1 51.6H28.4ZM71.1 51.6V55.1H88.9V51.6H71.1ZM95.7 51.6L97 55.1H102.1L103.3 51.6H95.7ZM110.1 51.6V55.1H128V51.6H110.1ZM0.2 58.4V61.9H25.1V58.4H0.2ZM28.4 58.4V61.9H55.5C60.3 61.9 63.9 58.4 63.9 58.4H28.4ZM71.1 58.4V61.9H88.9V58.4H71.1ZM98.2 58.4L99.5 61.9H99.7L101 58.4H98.2ZM110.1 58.4V61.9H128V58.4H110.1Z" fill="#1F70C1"/>
</svg>
