<svg width="130" height="128" viewBox="0 0 130 128" fill="none" xmlns="http://www.w3.org/2000/svg">
<path d="M126 80.5C124.3 80.5 122.9 81.8 122.9 83.5C122.9 85.2 124.2 86.5 126 86.5C127.7 86.5 129 85.2 129 83.5C129 81.8 127.7 80.5 126 80.5ZM125.9 81C127.3 81 128.3 82.1 128.3 83.5C128.3 84.9 127.3 86 126 86C124.6 86 123.6 84.9 123.6 83.5C123.6 82.1 124.5 81.1 125.9 81ZM124.9 81.8V85.2H125.5V83.7H126.1L127 85.2H127.6L126.7 83.6C127.3 83.6 127.5 83.2 127.5 82.7C127.5 82.1 127.1 81.8 126.3 81.8H124.9ZM125.4 83.3V82.2H126.1C126.6 82.2 126.8 82.4 126.8 82.8C126.8 83.2 126.5 83.4 126.2 83.4L125.4 83.3ZM32.2999 93.7C30.6999 92.5 28.7999 91.5 26.1999 90.7C22.8999 89.6 18.0999 88.5 16.1999 87.8C14.9999 87.3 14.4999 86.6 14.4999 85.6C14.4999 84.2 16.1999 83.4 18.1999 83.3C21.4999 83.4 22.4999 85.3 22.6999 86.6H32.2999V93.7ZM44.2999 102.6H51.3999C57.5999 102.5 62.5999 99.4 65.0999 94.9C65.2999 94.5 65.4999 94.2 65.6999 93.8C66.0999 94.3 66.3999 94.5 66.7999 94.9C68.4999 96.4 70.6999 97.5 72.9999 98.2C76.6999 99.5 79.5999 100.4 80.5999 100.8C82.4999 101.6 83.6999 102.2 83.6999 103.9C83.6999 105.9 81.4999 106.7 79.1999 106.8C76.0999 106.7 72.9999 105.2 73.0999 102.1H60.9999C61.5999 110.2 69.5999 116.5 78.9999 116.6C84.6999 116.5 89.9999 114.9 93.3999 110.8C96.7999 114.3 100.8 116.5 106.4 116.6C115.3 116.5 124.5 112.1 124.6 102.7C124.6 99.7 123.8 97.1 121.9 94.9C120.2 92.9 117.8 91.6 114.5 90.7C111.2 89.6 106.4 88.5 104.5 87.8C103.3 87.3 102.8 86.6 102.8 85.6C102.8 84.2 104.5 83.4 106.5 83.3C109.8 83.4 110.8 85.3 111 86.6H122.6C122.7 78.6 116 73.3 106.5 73.3C99.3999 73.3 94.5999 76 92.1999 79.9C89.5999 75.8 84.3999 73.3 77.8999 73.3C71.0999 73.3 66.3999 75.9 63.8999 79.6C61.0999 76 56.4999 73.7 50.8999 73.7H32.2999V79.8C29.6999 75.7 24.4999 73.3 18.0999 73.3C8.1999 73.3 2.7999 78.8 2.2999 85.1C2.2999 89 4.1999 92.5 7.0999 95C8.7999 96.5 10.7999 97.6 13.0999 98.3C16.7999 99.6 19.6999 100.5 20.6999 100.9C22.5999 101.7 23.7999 102.3 23.7999 104C23.7999 106 21.4999 106.8 19.2999 106.9C16.1999 106.8 13.0999 105.3 13.1999 102.2H0.899902C1.4999 110.3 9.4999 116.6 18.8999 116.7C24.0999 116.6 28.8999 115.2 32.0999 112.2V116H44.0999L44.2999 102.6ZM44.2999 83.7H50.7999C53.1999 83.7 55.2999 85.7 55.2999 88.2C55.2999 90.7 53.2999 92.7 50.7999 92.7H44.2999V83.7ZM93.4999 95C91.7999 93 89.3999 91.7 86.0999 90.8C82.7999 89.7 77.9999 88.6 76.1999 87.9C74.8999 87.4 74.2999 86.7 74.2999 85.7C74.2999 84.3 75.9999 83.5 77.9999 83.4C81.3999 83.5 82.2999 85.4 82.4999 86.7H90.6999C91.1999 89.9 92.7999 92.8 95.3999 95C97.0999 96.5 99.1999 97.6 101.5 98.3C105.2 99.6 108.1 100.5 109 100.9C111 101.7 112.1 102.3 112.1 104C112.1 106 109.8 106.8 107.6 106.9C104.5 106.8 101.4 105.3 101.5 102.2H95.9999C95.9999 99.3 95.0999 96.9 93.4999 95ZM1.0999 11.2V14.7H25.9999V11.2H1.0999ZM29.3999 11.2V14.7H64.9999C64.9999 14.7 61.3999 11.2 56.5999 11.2H29.3999ZM71.9999 11.2V14.7H93.4999L92.1999 11.2H71.9999ZM108.9 11.2L107.6 14.7H128.9V11.2H108.9ZM1.0999 18V21.5H25.9999V18H1.0999ZM29.3999 18V21.5H68.9999C68.9999 21.5 68.4999 18.8 67.6999 18H29.3999ZM71.9999 18V21.5H95.7999L94.5999 18H71.9999ZM106.3 18L105.1 21.5H128.8V18H106.3ZM8.2999 24.8V28.3H18.9999V24.8H8.2999ZM36.5999 24.8V28.3H47.3999V24.8H36.5999ZM57.9999 24.8V28.3H68.7999C68.7999 28.3 69.4999 26.4 69.4999 24.8H57.9999ZM79.1999 24.8V28.3H98.2999L96.9999 24.8H79.1999ZM104 24.8L102.7 28.3H121.9V24.8H104ZM8.2999 31.7V35.2H18.9999V31.7H8.2999ZM36.5999 31.7V35.2H64.1999C64.1999 35.2 66.4999 33.4 67.1999 31.7H36.5999ZM79.1999 31.7V35.2H89.9999V33.3L90.6999 35.2H110.5L111.2 33.3V35.2H122V31.7H101.7L100.6 34.7L99.4999 31.7H79.1999ZM8.2999 38.5V42H18.9999V38.5H8.2999ZM36.5999 38.5V42H67.1999C66.4999 40.3 64.1999 38.5 64.1999 38.5H36.5999ZM79.1999 38.5V42H89.9999V38.5H79.1999ZM91.8999 38.5L93.1999 42H108L109.2 38.5H91.8999ZM111.2 38.5V42H122V38.5H111.2ZM8.2999 45.3V48.8H18.9999V45.3H8.2999ZM36.5999 45.3V48.8H47.3999V45.3H36.5999ZM57.9999 45.3V48.8H69.4999C69.4999 47.1 68.7999 45.3 68.7999 45.3H57.9999ZM79.1999 45.3V48.8H89.9999V45.3H79.1999ZM94.3999 45.3L95.6999 48.8H105.6L106.9 45.3H94.3999ZM111.2 45.3V48.8H122V45.3H111.2ZM1.2999 52.1V55.6H26.1999V52.1H1.2999ZM29.3999 52.1V55.6H67.7999C68.5999 54.8 69.0999 52.1 69.0999 52.1H29.3999ZM72.1999 52.1V55.6H89.9999V52.1H72.1999ZM96.7999 52.1L98.0999 55.6H103.2L104.4 52.1H96.7999ZM111.2 52.1V55.6H129.1V52.1H111.2ZM1.2999 58.9V62.4H26.1999V58.9H1.2999ZM29.3999 58.9V62.4H56.4999C61.2999 62.4 64.8999 58.9 64.8999 58.9H29.3999ZM72.1999 58.9V62.4H89.9999V58.9H72.1999ZM99.2999 58.9L100.6 62.4H100.8L102.1 58.9H99.2999ZM111.2 58.9V62.4H129.1V58.9H111.2Z" fill="#CC1E4C"/>
</svg>
