<svg width="128" height="128" viewBox="0 0 128 128" fill="none" xmlns="http://www.w3.org/2000/svg">
<path d="M15.6209 77.422C14.9529 77.312 13.2419 76.887 11.8209 76.496L9.23789 75.773L10.5629 73.34L11.8909 70.902L10.8209 69.578C9.30489 67.707 7.35089 63.598 7.33989 62.273C7.32389 59.18 11.3399 54.699 16.2659 52.289C19.6519 50.629 22.3399 50.589 25.7109 52.168L28.2539 53.359L28.9919 52.305C29.3909 51.727 29.7269 50.965 29.7269 50.629C29.7269 50.297 30.0619 50 30.4609 50C30.8629 50 31.1989 50.11 31.1989 50.23C31.1989 50.523 28.2419 57.992 28.0549 58.18C27.9729 58.258 27.1719 57.883 26.2619 57.348C23.6919 55.836 20.4649 54.832 17.9649 54.766C12.1449 54.617 10.1209 60.305 14.2299 65.286L15.6759 67.036L19.6249 63.84C24.0549 60.266 24.5629 60.184 28.0149 62.566C31.8949 65.242 31.9609 69.312 28.2149 73.566C24.8949 77.356 21.4849 78.41 15.6209 77.422ZM25.5509 73.34C27.4809 71.828 27.3439 69.031 25.2579 66.809C22.6329 64.027 21.8159 64.145 17.2029 68C12.6129 71.828 12.5859 71.68 18.0699 73.434C21.6999 74.609 23.9729 74.582 25.5499 73.34H25.5509ZM62.8319 88.086C61.5229 87.606 57.9879 86.145 54.9649 84.836C46.8009 81.273 45.6519 81.207 43.2149 84.164C42.6519 84.848 42.0389 85.277 41.8629 85.102C41.3429 84.578 42.8949 82.078 44.7699 80.434C46.2929 79.094 46.7999 78.906 48.4879 79.094C49.5579 79.214 53.1179 80.457 56.3979 81.852C63.7969 84.996 65.9649 85.664 68.7889 85.664C72.2269 85.664 73.9919 83.254 72.9099 80.059C72.6399 79.254 72.7229 78.989 73.2579 78.989C74.2619 78.989 74.7699 82.734 74.0469 84.887C73.7379 85.812 72.8439 87.121 72.0549 87.777C70.8749 88.77 70.1249 88.984 67.9179 88.969C66.4339 88.969 64.1449 88.566 62.8319 88.086ZM43.7659 76.645C40.7259 75.227 37.9839 72.523 36.4059 69.363C33.8749 64.309 34.6519 61.066 39.4409 56.691C43.4689 53.011 46.7609 51.582 51.1909 51.582C54.3909 51.582 55.0709 51.754 57.1449 53.027C62.0589 56.062 63.2729 61.859 60.3159 68.176C56.8519 75.586 49.5309 79.336 43.7659 76.645ZM53.9339 73.125C56.2099 72 57.7739 66.809 57.1329 62.5C56.3279 57.187 49.1449 53.562 43.8709 55.809C38.4529 58.125 38.3709 64.293 43.6989 69.848C47.4179 73.742 50.6169 74.77 53.9339 73.125ZM64.2499 77.621C64.2499 77.395 65.0939 76.992 66.1369 76.738L68.0229 76.27L68.4259 69.473C68.8669 61.953 68.5459 54.551 67.7299 53.563C67.4369 53.215 66.5399 52.785 65.7229 52.598C62.4059 51.863 64.6129 51.352 71.0509 51.352C77.4839 51.352 79.5349 51.82 76.4689 52.598C73.8319 53.254 73.8199 53.293 73.8199 64.028C73.8199 69.98 74.0349 74.465 74.3399 75.039C74.7699 75.839 75.4099 76.016 77.8749 76.016C82.9609 76.016 84.7109 74.812 86.0899 70.356C86.5039 69.016 87.5739 69.258 87.2029 70.609C87.0269 71.239 86.7459 73.152 86.5739 74.891L86.2499 78.035H75.2499C69.2029 78.035 64.2499 77.848 64.2499 77.621ZM89.2339 77.3C89.2339 76.898 89.6249 76.496 90.2659 76.191C91.1209 75.789 91.6839 74.945 93.7189 70.973C96.9409 64.68 102.027 53.883 102.512 52.262C102.882 51.032 102.965 50.965 104.355 50.805C105.16 50.711 105.828 50.656 105.844 50.684C105.855 50.711 106.964 53.144 108.316 56.105C110.25 60.2955 112.245 64.4576 114.301 68.59C117.562 75.16 117.926 75.75 119.023 76.285C119.691 76.605 120.215 77.102 120.215 77.395C120.215 77.863 119.637 77.915 114.687 77.915C109.723 77.915 109.16 77.863 109.16 77.379C109.16 77.059 109.59 76.711 110.27 76.484C110.898 76.285 111.383 75.91 111.383 75.629C111.383 75.359 110.727 73.594 109.922 71.707L108.465 68.27H97.4099L96.3549 70.598C94.3749 74.957 94.3319 75.988 96.1799 76.484C97.1049 76.738 97.3599 76.938 97.2499 77.355C97.1289 77.835 96.6479 77.902 93.1679 77.902C89.4379 77.93 89.2339 77.902 89.2339 77.301V77.3ZM107.355 66.473C107.543 66.141 103.379 57.055 102.992 56.961C102.711 56.879 98.4019 65.766 98.4019 66.434C98.4019 66.77 107.152 66.809 107.355 66.473Z" fill="#333333"/>
</svg>
