<svg width="128" height="128" viewBox="0 0 128 128" fill="none" xmlns="http://www.w3.org/2000/svg">
<path d="M15.6758 69.912C15.0048 69.805 13.2858 69.375 11.8628 68.986L9.26981 68.26L10.5998 65.816L11.9288 63.372L10.8548 62.042C9.33681 60.162 7.37681 56.04 7.36381 54.712C7.34981 51.609 11.3778 47.111 16.3198 44.694C19.7168 43.029 22.4158 42.989 25.7998 44.574L28.3508 45.768L29.0898 44.708C29.4918 44.13 29.8278 43.365 29.8278 43.029C29.8278 42.693 30.1638 42.398 30.5668 42.398C30.9698 42.398 31.3048 42.505 31.3048 42.626C31.3048 42.922 28.3378 50.414 28.1498 50.602C28.0688 50.682 27.2628 50.307 26.3498 49.77C23.7718 48.252 20.5358 47.245 18.0248 47.178C12.1838 47.03 10.1558 52.738 14.2788 57.732L15.7288 59.492L19.6898 56.282C24.1348 52.697 24.6448 52.616 28.1098 55.007C32.0028 57.692 32.0698 61.774 28.3098 66.044C24.9798 69.844 21.5568 70.892 15.6748 69.911L15.6758 69.912ZM25.6398 65.817C27.5728 64.3 27.4388 61.493 25.3438 59.264C22.7118 56.471 21.8938 56.592 17.2608 60.459C12.6548 64.299 12.6278 64.152 18.1338 65.911C21.7718 67.092 24.0548 67.052 25.6398 65.817ZM63.0498 80.614C61.7328 80.131 58.1878 78.667 55.1538 77.351C46.9628 73.779 45.8078 73.712 43.3638 76.68C42.7998 77.365 42.1828 77.794 42.0078 77.62C41.4838 77.096 43.0418 74.585 44.9218 72.934C46.4518 71.591 46.9618 71.403 48.6548 71.591C49.7288 71.711 53.3008 72.961 56.5898 74.357C64.0158 77.512 66.1908 78.184 69.0248 78.184C72.4748 78.184 74.2478 75.767 73.1598 72.558C72.8918 71.752 72.9718 71.483 73.5098 71.483C74.5158 71.483 75.0268 75.243 74.3018 77.405C73.9918 78.331 73.0928 79.647 72.3008 80.305C71.1188 81.299 70.3668 81.514 68.1508 81.5C66.6608 81.487 64.3648 81.098 63.0488 80.614H63.0498ZM43.9148 69.134C40.8668 67.71 38.1138 64.998 36.5288 61.829C33.9918 56.753 34.7698 53.504 39.5778 49.113C43.6188 45.42 46.9228 43.983 51.3678 43.983C54.5758 43.983 55.2608 44.158 57.3418 45.433C62.2698 48.482 63.4918 54.296 60.5248 60.633C57.0468 68.073 49.7018 71.819 43.9148 69.133V69.134ZM54.1198 65.602C56.4018 64.474 57.9738 59.264 57.3288 54.94C56.5228 49.61 49.3128 45.97 44.0218 48.227C38.5838 50.55 38.5028 56.74 43.8478 62.312C47.5798 66.22 50.7898 67.24 54.1198 65.602ZM64.4728 70.114C64.4728 69.885 65.3178 69.483 66.3658 69.227L68.2588 68.757L68.6618 61.937C69.1048 54.39 68.7818 46.964 67.9638 45.971C67.6678 45.621 66.7688 45.191 65.9498 45.004C62.6198 44.265 64.8348 43.755 71.2938 43.755C77.7528 43.755 79.8068 44.225 76.7318 45.004C74.0868 45.662 74.0728 45.702 74.0728 56.471C74.0728 62.446 74.2878 66.945 74.5968 67.522C75.0268 68.328 75.6708 68.502 78.1418 68.502C83.2438 68.502 85.0028 67.294 86.3868 62.822C86.8028 61.48 87.8768 61.722 87.5008 63.078C87.3258 63.708 87.0448 65.628 86.8698 67.374L86.5478 70.53H75.5098C69.4398 70.53 64.4728 70.342 64.4728 70.114Z" fill="#333333"/>
<path d="M89.542 69.791C89.542 69.389 89.932 68.986 90.576 68.677C91.436 68.274 91.999 67.428 94.04 63.44C97.276 57.13 102.379 46.293 102.862 44.668C103.238 43.433 103.319 43.366 104.715 43.205C105.521 43.111 106.192 43.057 106.205 43.084C106.219 43.111 107.334 45.554 108.69 48.522C110.033 51.489 112.732 57.129 114.692 61.05C117.969 67.643 118.332 68.234 119.432 68.77C120.104 69.093 120.627 69.59 120.627 69.885C120.627 70.355 120.05 70.409 115.082 70.409C110.1 70.409 109.536 70.355 109.536 69.872C109.536 69.55 109.966 69.201 110.65 68.972C111.282 68.771 111.765 68.395 111.765 68.113C111.765 67.844 111.107 66.072 110.301 64.179L108.838 60.728H97.746L96.686 63.064C94.698 67.442 94.658 68.476 96.511 68.972C97.438 69.227 97.693 69.429 97.585 69.845C97.465 70.329 96.981 70.395 93.49 70.395C89.743 70.423 89.542 70.395 89.542 69.791ZM107.723 58.928C107.911 58.593 103.735 49.475 103.346 49.381C103.064 49.301 98.74 58.217 98.74 58.888C98.74 59.224 107.522 59.264 107.723 58.928Z" fill="#CA2727"/>
</svg>
