<svg width="269" height="240" viewBox="0 0 269 240" fill="none" xmlns="http://www.w3.org/2000/svg">
<path d="M8.6758 69.912C8.0048 69.805 6.28581 69.375 4.86281 68.986L2.2708 68.261L3.6008 65.817L4.9298 63.373L3.85581 62.043C2.33781 60.163 0.377801 56.041 0.363801 54.713C0.350801 51.61 4.3788 47.112 9.3208 44.695C12.7178 43.03 15.4168 42.99 18.8008 44.575L21.3508 45.769L22.0908 44.709C22.4928 44.131 22.8288 43.366 22.8288 43.03C22.8288 42.694 23.1648 42.399 23.5668 42.399C23.9698 42.399 24.3058 42.506 24.3058 42.627C24.3058 42.923 21.3378 50.415 21.1498 50.603C21.0698 50.683 20.2638 50.308 19.3508 49.771C16.7728 48.253 13.5368 47.246 11.0258 47.179C5.1848 47.031 3.1568 52.739 7.2798 57.733L8.7298 59.493L12.6908 56.283C17.1358 52.698 17.6458 52.617 21.1108 55.008C25.0038 57.693 25.0708 61.775 21.3108 66.045C17.9808 69.845 14.5568 70.893 8.6758 69.912ZM18.6388 65.817C20.5728 64.3 20.4388 61.493 18.3438 59.264C15.7118 56.471 14.8938 56.592 10.2608 60.459C5.6548 64.299 5.6278 64.152 11.1328 65.911C14.7728 67.092 17.0548 67.052 18.6388 65.817ZM56.0488 80.614C54.7328 80.131 51.1888 78.667 48.1538 77.351C39.9628 73.779 38.8078 73.712 36.3638 76.68C35.7998 77.365 35.1818 77.794 35.0078 77.62C34.4838 77.096 36.0418 74.585 37.9218 72.934C39.4518 71.591 39.9618 71.403 41.6548 71.591C42.7288 71.711 46.3008 72.961 49.5898 74.357C57.0158 77.512 59.1908 78.184 62.0238 78.184C65.4748 78.184 67.2478 75.767 66.1598 72.558C65.8918 71.752 65.9718 71.483 66.5098 71.483C67.5158 71.483 68.0268 75.243 67.3008 77.405C66.9928 78.331 66.0928 79.647 65.3008 80.305C64.1188 81.299 63.3668 81.514 61.1508 81.5C59.6608 81.487 57.3648 81.098 56.0488 80.614ZM36.9148 69.134C33.8658 67.71 31.1138 64.998 29.5288 61.829C26.9908 56.753 27.7698 53.504 32.5768 49.113C36.6188 45.42 39.9218 43.983 44.3668 43.983C47.5768 43.983 48.2608 44.158 50.3418 45.433C55.2698 48.482 56.4918 54.296 53.5248 60.633C50.0468 68.073 42.7018 71.819 36.9148 69.133V69.134ZM47.1198 65.602C49.4018 64.474 50.9728 59.264 50.3288 54.94C49.5228 49.61 42.3118 45.97 37.0218 48.227C31.5838 50.55 31.5028 56.74 36.8468 62.312C40.5798 66.22 43.7898 67.24 47.1198 65.602ZM57.4718 70.114C57.4718 69.885 58.3178 69.483 59.3658 69.227L61.2588 68.757L61.6618 61.937C62.1048 54.39 61.7818 46.964 60.9638 45.971C60.6678 45.621 59.7688 45.191 58.9488 45.004C55.6188 44.265 57.8348 43.755 64.2938 43.755C70.7518 43.755 72.8068 44.225 69.7318 45.004C67.0868 45.662 67.0728 45.702 67.0728 56.471C67.0728 62.446 67.2878 66.945 67.5968 67.522C68.0268 68.328 68.6708 68.502 71.1418 68.502C76.2438 68.502 78.0028 67.294 79.3858 62.822C79.8028 61.48 80.8758 61.722 80.5008 63.078C80.3258 63.708 80.0438 65.628 79.8698 67.374L79.5478 70.53H68.5098C62.4398 70.53 57.4718 70.342 57.4718 70.114Z" fill="#333333"/>
<path d="M82.542 69.791C82.542 69.389 82.932 68.986 83.576 68.677C84.436 68.274 84.999 67.428 87.04 63.44C90.276 57.13 95.379 46.293 95.862 44.668C96.238 43.433 96.319 43.366 97.715 43.205C98.521 43.111 99.192 43.057 99.205 43.084C99.219 43.111 100.334 45.554 101.69 48.522C103.033 51.489 105.732 57.129 107.692 61.05C110.968 67.643 111.331 68.234 112.432 68.77C113.103 69.093 113.627 69.59 113.627 69.885C113.627 70.355 113.05 70.409 108.081 70.409C103.1 70.409 102.536 70.355 102.536 69.872C102.536 69.55 102.966 69.201 103.65 68.972C104.281 68.771 104.765 68.395 104.765 68.113C104.765 67.844 104.107 66.072 103.301 64.179L101.838 60.728H90.746L89.686 63.064C87.698 67.442 87.658 68.476 89.511 68.972C90.437 69.227 90.693 69.429 90.585 69.845C90.465 70.329 89.981 70.395 86.49 70.395C82.743 70.423 82.542 70.395 82.542 69.791ZM100.723 58.928C100.911 58.593 96.735 49.475 96.346 49.381C96.064 49.301 91.74 58.217 91.74 58.888C91.74 59.224 100.522 59.264 100.723 58.928Z" fill="#CA2727"/>
<path d="M8.6758 227.93C8.0048 227.822 6.28581 227.392 4.86281 227.003L2.2708 226.278L3.6008 223.834L4.9298 221.39L3.85581 220.06C2.33781 218.181 0.377801 214.059 0.363801 212.73C0.350801 209.628 4.3788 205.13 9.3208 202.712C12.7178 201.047 15.4168 201.007 18.8008 202.592L21.3508 203.787L22.0908 202.726C22.4928 202.148 22.8288 201.383 22.8288 201.047C22.8288 200.711 23.1648 200.417 23.5668 200.417C23.9698 200.417 24.3058 200.524 24.3058 200.644C24.3058 200.94 21.3378 208.432 21.1498 208.62C21.0698 208.701 20.2638 208.325 19.3508 207.788C16.7728 206.271 13.5368 205.264 11.0258 205.196C5.1848 205.049 3.1568 210.756 7.2798 215.751L8.7298 217.51L12.6908 214.3C17.1358 210.715 17.6458 210.635 21.1108 213.025C25.0038 215.71 25.0708 219.792 21.3108 224.062C17.9808 227.862 14.5568 228.91 8.6758 227.93ZM18.6388 223.834C20.5728 222.317 20.4388 219.51 18.3438 217.281C15.7118 214.488 14.8938 214.609 10.2608 218.476C5.6548 222.316 5.6278 222.169 11.1328 223.928C14.7728 225.096 17.0548 225.069 18.6388 223.834ZM56.0488 238.631C54.7328 238.148 51.1888 236.684 48.1538 235.368C39.9628 231.797 38.8078 231.73 36.3638 234.698C35.7998 235.382 35.1818 235.812 35.0078 235.637C34.4838 235.113 36.0418 232.602 37.9218 230.951C39.4518 229.608 39.9618 229.42 41.6548 229.608C42.7288 229.728 46.3008 230.978 49.5898 232.374C57.0158 235.53 59.1908 236.201 62.0238 236.201C65.4748 236.201 67.2478 233.784 66.1598 230.575C65.8918 229.769 65.9718 229.501 66.5098 229.501C67.5158 229.501 68.0268 233.261 67.3008 235.422C66.9928 236.349 66.0928 237.665 65.3008 238.322C64.1188 239.316 63.3668 239.532 61.1508 239.518C59.6608 239.504 57.3648 239.115 56.0488 238.631ZM36.9148 227.151C33.8658 225.727 31.1138 223.015 29.5288 219.846C26.9908 214.77 27.7698 211.521 32.5768 207.13C36.6188 203.437 39.9218 202 44.3668 202C47.5768 202 48.2608 202.175 50.3418 203.45C55.2698 206.499 56.4918 212.313 53.5248 218.651C50.0468 226.09 42.7018 229.836 36.9148 227.151ZM47.1198 223.619C49.4018 222.491 50.9728 217.281 50.3288 212.958C49.5228 207.627 42.3118 203.988 37.0218 206.244C31.5838 208.567 31.5028 214.757 36.8468 220.329C40.5798 224.237 43.7898 225.257 47.1198 223.619ZM57.4718 228.13C57.4718 227.903 58.3178 227.5 59.3658 227.245L61.2588 226.775L61.6618 219.953C62.1048 212.407 61.7818 204.982 60.9638 203.988C60.6678 203.638 59.7688 203.209 58.9488 203.021C55.6188 202.283 57.8348 201.772 64.2938 201.772C70.7518 201.772 72.8068 202.242 69.7318 203.022C67.0868 203.679 67.0728 203.719 67.0728 214.488C67.0728 220.464 67.2878 224.962 67.5968 225.539C68.0268 226.345 68.6708 226.519 71.1418 226.519C76.2438 226.519 78.0028 225.311 79.3858 220.839C79.8028 219.497 80.8758 219.739 80.5008 221.095C80.3258 221.725 80.0438 223.646 79.8698 225.392L79.5478 228.547H68.5098C62.4398 228.547 57.4718 228.359 57.4718 228.131V228.13ZM82.5418 227.809C82.5418 227.406 82.9318 227.003 83.5758 226.694C84.4358 226.291 84.9988 225.445 87.0398 221.457C90.2758 215.147 95.3788 204.31 95.8618 202.685C96.2378 201.45 96.3188 201.383 97.7148 201.222C98.5208 201.128 99.1918 201.074 99.2048 201.101C99.2188 201.128 100.334 203.571 101.69 206.539C103.033 209.507 105.732 215.146 107.692 219.067C110.968 225.66 111.331 226.251 112.432 226.788C113.103 227.11 113.627 227.608 113.627 227.903C113.627 228.373 113.05 228.426 108.081 228.426C103.1 228.426 102.536 228.373 102.536 227.889C102.536 227.567 102.966 227.218 103.65 226.989C104.281 226.789 104.765 226.412 104.765 226.13C104.765 225.862 104.107 224.09 103.301 222.196L101.838 218.745H90.7458L89.6858 221.081C87.6978 225.459 87.6578 226.493 89.5108 226.99C90.4368 227.245 90.6928 227.446 90.5848 227.862C90.4648 228.346 89.9808 228.412 86.4898 228.412C82.7428 228.44 82.5418 228.412 82.5418 227.809ZM100.723 216.946C100.911 216.61 96.7348 207.493 96.3458 207.399C96.0638 207.318 91.7398 216.234 91.7398 216.905C91.7398 217.241 100.522 217.281 100.723 216.945V216.946Z" fill="#333333"/>
<path d="M150.419 70.92C149.794 70.7959 149.176 70.6434 148.566 70.463L147.304 70.113L147.948 68.933L148.593 67.75L148.069 67.106C147.331 66.193 146.377 64.179 146.364 63.534C146.364 62.03 148.324 59.828 150.728 58.646C152.379 57.841 153.695 57.814 155.347 58.579L156.596 59.157L156.958 58.647C157.16 58.364 157.321 57.988 157.321 57.827C157.321 57.667 157.481 57.519 157.683 57.519C157.885 57.519 158.046 57.572 158.046 57.626C158.046 57.774 156.596 61.413 156.502 61.506C156.462 61.546 156.072 61.359 155.629 61.104C154.38 60.365 152.796 59.868 151.574 59.842C148.727 59.774 147.747 62.554 149.748 64.984L150.459 65.844L152.393 64.286C154.555 62.54 154.81 62.5 156.502 63.668C158.395 64.971 158.435 66.958 156.596 69.053C154.958 70.879 153.279 71.389 150.419 70.919V70.92ZM155.266 68.919C156.206 68.18 156.139 66.81 155.119 65.723C153.843 64.367 153.44 64.42 151.184 66.3C148.942 68.167 148.928 68.1 151.614 68.959C153.386 69.536 154.501 69.523 155.266 68.919ZM173.501 76.13C172.857 75.901 171.124 75.176 169.661 74.531C165.673 72.786 165.109 72.759 163.914 74.209C163.632 74.545 163.336 74.746 163.256 74.666C163.001 74.411 163.753 73.189 164.679 72.383C165.431 71.725 165.673 71.644 166.492 71.725C167.016 71.779 168.762 72.383 170.359 73.068C173.971 74.598 175.032 74.934 176.415 74.934C178.093 74.934 178.966 73.753 178.429 72.195C178.295 71.805 178.335 71.671 178.604 71.671C179.101 71.671 179.342 73.497 178.994 74.558C178.845 75.015 178.402 75.646 178.013 75.968C177.435 76.452 177.073 76.559 175.985 76.546C175.26 76.559 174.145 76.358 173.501 76.129V76.13ZM164.182 70.53C162.692 69.845 161.362 68.516 160.584 66.972C159.348 64.501 159.724 62.916 162.074 60.768C164.048 58.968 165.646 58.27 167.821 58.27C169.379 58.27 169.715 58.351 170.735 58.982C173.139 60.472 173.729 63.306 172.279 66.381C170.574 70.02 167.002 71.846 164.182 70.53ZM169.151 68.811C170.265 68.261 171.031 65.723 170.708 63.615C170.318 61.023 166.801 59.237 164.223 60.338C161.577 61.466 161.537 64.488 164.143 67.2C165.968 69.12 167.526 69.617 169.151 68.811ZM174.2 71.013C174.2 70.906 174.616 70.705 175.126 70.583L176.052 70.355L176.254 67.039C176.469 63.359 176.308 59.748 175.918 59.264C175.77 59.09 175.341 58.888 174.938 58.794C173.313 58.432 174.401 58.176 177.543 58.176C180.685 58.176 181.693 58.405 180.188 58.781C178.899 59.103 178.899 59.116 178.899 64.367C178.899 67.28 179.007 69.469 179.154 69.751C179.369 70.141 179.678 70.221 180.886 70.221C183.371 70.221 184.23 69.631 184.901 67.455C185.103 66.797 185.626 66.918 185.438 67.575C185.358 67.885 185.21 68.825 185.13 69.671L184.982 71.215H179.61C176.615 71.215 174.198 71.121 174.198 71.013H174.2Z" fill="#333333"/>
<path d="M202.317 71C202.317 70.745 202.532 70.476 202.787 70.396C203.123 70.288 203.297 69.939 203.405 69.201C203.593 67.938 203.391 59.398 203.163 58.687C203.015 58.244 203.257 58.056 205.15 57.075C206.6 56.323 207.352 56.055 207.46 56.229C207.554 56.377 207.326 56.739 206.936 57.049L206.251 57.599L206.184 63.669L206.117 69.738L206.748 70.235C207.138 70.543 207.326 70.879 207.245 71.094C207.138 71.389 206.627 71.456 204.721 71.456C202.505 71.456 202.317 71.43 202.317 71ZM210.253 71.04C209.823 70.745 209.205 70.02 208.883 69.429C208.4 68.529 208.319 68.086 208.4 66.757C208.467 65.401 208.601 65.025 209.205 64.273C210.025 63.266 211.931 61.869 212.791 61.654C213.905 61.372 216.188 63.386 215.866 64.367C215.785 64.608 215.248 64.984 214.657 65.199L213.583 65.602L213.22 64.904C212.764 64.018 211.743 63.319 211.408 63.655C211.273 63.789 211.058 64.353 210.938 64.904C210.803 65.5214 210.81 66.1613 210.959 66.7754C211.108 67.3896 211.394 67.9618 211.797 68.449C212.629 69.442 213.395 69.563 214.563 68.919C215.383 68.462 215.543 68.435 215.745 68.731C215.919 68.999 215.718 69.308 214.952 70.006C213.167 71.644 211.636 71.98 210.252 71.04H210.253ZM216.779 70.248C217.114 70.141 217.289 69.791 217.396 69.053C217.584 67.791 217.383 59.251 217.155 58.539C217.007 58.096 217.249 57.908 219.142 56.928C221.412 55.759 222.163 55.786 220.861 56.995C220.136 57.68 220.122 57.693 220.122 60.177C220.122 61.547 220.055 63.037 219.961 63.48L219.8 64.286L220.78 63.4C221.84 62.446 222.982 61.775 223.546 61.775C224.043 61.775 225.319 62.903 225.748 63.735C226.044 64.313 226.084 64.944 225.95 67.133C225.789 69.805 225.789 69.832 226.353 70.127C227.105 70.517 227.078 70.477 226.903 70.919C226.783 71.242 226.366 71.309 224.393 71.309C221.854 71.309 221.613 71.161 222.606 70.235C223.667 69.255 223.761 65.293 222.754 64.286C222.297 63.83 222.217 63.83 221.626 64.152C220.566 64.756 220.109 65.803 220.055 67.844C220.001 69.671 220.175 70.087 221.129 70.396C221.25 70.436 221.277 70.651 221.183 70.879C221.049 71.229 220.686 71.295 218.672 71.295C218.001 71.645 215.275 71.215 216.779 70.248ZM230.032 70.973C226.044 68.006 228.555 62.272 233.04 61.601C233.362 61.681 234.074 62.138 234.597 62.621C236.128 64.004 235.913 64.447 233.147 65.696C231.898 66.26 230.851 66.878 230.811 67.092C230.703 67.643 231.603 68.784 232.421 69.12C233.04 69.375 233.254 69.348 234.101 68.865C234.852 68.449 235.134 68.382 235.349 68.596C235.967 69.214 232.905 71.496 231.442 71.496C231.106 71.51 230.475 71.268 230.032 70.973ZM231.818 65.253C233.04 64.555 233.107 64.246 232.167 63.749C231.415 63.359 231.375 63.359 230.958 63.883C230.542 64.407 230.354 65.803 230.703 65.79C230.797 65.79 231.307 65.548 231.818 65.253ZM236.397 71.013C236.397 70.799 236.611 70.463 236.88 70.235C237.592 69.657 237.78 66.784 237.256 64.729C236.826 63.037 236.773 63.159 238.384 62.299C239.619 61.641 239.968 61.829 239.968 63.118V64.165L240.814 63.386C241.284 62.956 242.036 62.406 242.493 62.164C243.245 61.762 243.379 61.748 243.97 62.084C244.332 62.285 244.87 62.836 245.192 63.319L245.756 64.192L246.937 63.132C247.595 62.54 248.387 62.003 248.71 61.922C249.502 61.722 250.402 62.245 251.113 63.332C251.691 64.206 251.704 64.326 251.57 66.958C251.422 69.684 251.422 69.684 252.04 70.168C252.416 70.463 252.604 70.798 252.51 71.013C252.402 71.295 251.906 71.376 250.093 71.376C248.012 71.376 247.823 71.336 247.823 70.919C247.823 70.664 248.025 70.396 248.28 70.315C248.884 70.127 249.019 69.523 249.019 67.025C249.019 65.253 248.951 64.863 248.549 64.461C247.918 63.83 247.569 63.856 246.829 64.635C245.366 66.179 245.313 70.409 246.749 70.409C246.951 70.409 247.031 70.584 246.951 70.879C246.843 71.309 246.628 71.349 244.467 71.349C241.848 71.349 241.607 71.161 242.707 70.06C243.258 69.51 243.298 69.295 243.298 67.334C243.298 65.548 243.218 65.105 242.802 64.581C242.17 63.789 241.875 63.789 241.069 64.621C240.291 65.441 239.955 66.501 239.955 68.194C239.955 69.227 240.062 69.564 240.573 70.074C241.593 71.094 241.231 71.349 238.653 71.349C236.759 71.389 236.397 71.336 236.397 71.013Z" fill="#CA2727"/>
<path d="M261.01 77.606C261.01 77.553 261.17 77.11 261.372 76.64C261.574 76.17 261.735 75.673 261.735 75.538C261.735 74.988 254.524 75.404 253.355 76.035C253.141 76.156 252.885 76.465 252.805 76.72C252.631 77.244 251.973 77.378 251.973 76.881C251.973 76.707 252.147 76.062 252.363 75.444C252.684 74.504 253.073 74.048 254.685 72.759C255.745 71.899 256.659 71.107 256.699 70.999C256.739 70.893 255.894 69.133 254.833 67.092L252.886 63.386L254.913 62.433C256.028 61.909 257.048 61.48 257.196 61.48C257.653 61.48 257.478 61.99 256.86 62.473C256.538 62.728 256.27 63.091 256.27 63.293C256.27 63.749 258.848 68.878 259.076 68.878C259.183 68.878 259.559 68.422 259.922 67.871C260.419 67.106 260.566 66.622 260.512 65.911C260.459 65.091 260.298 64.877 259.425 64.286C258.875 63.91 258.418 63.454 258.418 63.266C258.418 63.078 258.861 62.634 259.385 62.286L260.352 61.641L261.211 62.097C262.876 62.997 263.427 65.078 262.487 66.917C262.043 67.777 259.546 70.329 257.102 72.397L255.907 73.403L256.86 73.243C257.384 73.148 259.022 73.068 260.5 73.054C263.292 73.041 263.641 73.148 263.641 74.129C263.641 74.706 261.842 77.553 261.412 77.647C261.184 77.673 261.01 77.66 261.01 77.607V77.606ZM186.405 70.852C186.405 70.651 186.593 70.462 186.902 70.315C187.318 70.127 187.6 69.711 188.594 67.764C190.178 64.689 192.649 59.412 192.891 58.62C193.065 58.015 193.119 57.988 193.791 57.908C194.18 57.868 194.516 57.841 194.516 57.854C194.529 57.868 195.066 59.063 195.724 60.499C196.382 61.949 197.698 64.689 198.651 66.609C200.249 69.819 200.424 70.114 200.961 70.369C201.283 70.53 201.538 70.772 201.538 70.906C201.538 71.134 201.256 71.161 198.839 71.161C196.409 71.161 196.14 71.134 196.14 70.906C196.14 70.745 196.355 70.584 196.677 70.463C196.987 70.355 197.214 70.181 197.214 70.047C197.214 69.912 196.892 69.053 196.503 68.127L195.791 66.447H190.393L189.87 67.589C188.903 69.724 188.89 70.221 189.789 70.463C190.232 70.583 190.366 70.691 190.313 70.893C190.246 71.134 190.017 71.161 188.312 71.161C186.512 71.161 186.405 71.148 186.405 70.852ZM195.267 65.562C195.361 65.401 193.32 60.956 193.132 60.902C192.998 60.862 190.89 65.212 190.89 65.535C190.89 65.709 195.16 65.723 195.267 65.562Z" fill="#CA2727"/>
</svg>
