<svg width="128" height="128" viewBox="0 0 128 128" fill="none" xmlns="http://www.w3.org/2000/svg">
<path d="M69.4998 99.176C69.4408 98.446 69.4058 97.976 69.4058 97.976C69.4058 97.976 67.1998 83.087 64.5698 78.642C64.1558 77.935 64.6128 75.048 65.7768 70.762C66.4568 71.931 69.3168 76.954 69.8948 78.572C70.5428 80.396 70.6748 80.919 70.6748 80.919C70.6748 80.919 69.1048 72.837 66.5308 68.122C67.1564 66.0203 67.8246 63.9316 68.5348 61.857C69.5078 63.567 71.8478 67.716 72.3628 69.157C72.4648 69.45 72.5548 69.7 72.6328 69.931C72.6558 69.794 72.6828 69.657 72.7068 69.517C72.1168 67.013 70.9568 62.657 69.3708 59.435C72.8908 41.107 84.9018 16.611 97.2108 5.681H16.8998C11.5128 5.681 7.11084 10.087 7.11084 15.47V104.04C7.11084 109.423 11.5168 113.829 16.9008 113.829H69.7978C69.397 108.956 69.2979 104.062 69.5008 99.177" fill="#0B7FCC"/>
<path d="M65.7768 70.762C66.4568 71.93 69.3168 76.95 69.8938 78.571C70.5428 80.395 70.6748 80.918 70.6748 80.918C70.6748 80.918 69.1048 72.836 66.5308 68.121C67.157 66.0179 67.8251 63.9274 68.5348 61.851C69.4218 63.418 71.4568 67.02 72.1868 68.723L72.2688 67.762C71.6208 65.266 70.6358 61.996 69.3708 59.434C72.6128 42.563 83.0508 20.464 94.2968 8.53601H16.8988C15.0605 8.5376 13.2979 9.26852 11.9979 10.5683C10.6979 11.8681 9.9667 13.6307 9.96484 15.469V97.579C27.4918 90.848 48.6288 84.699 66.8198 84.965C66.1478 82.36 65.3788 80.005 64.5698 78.641C64.1558 77.934 64.6128 75.044 65.7768 70.762Z" fill="url(#paint0_linear_3_7383)"/>
<path d="M115.95 2.78101C110.45 -2.12499 103.786 -0.151992 97.2159 5.68001C96.2012 6.58777 95.2288 7.54178 94.3019 8.53901C83.0519 20.465 72.6179 42.562 69.3759 59.434C70.6379 61.997 71.6259 65.266 72.2699 67.762C72.4379 68.402 72.5899 69.004 72.7119 69.516C72.9969 70.723 73.1489 71.512 73.1489 71.512C73.1489 71.512 73.0479 71.129 72.6339 69.93C72.5559 69.7 72.4659 69.446 72.3639 69.157C72.3209 69.032 72.2589 68.883 72.1919 68.723C71.4579 67.02 69.4269 63.418 68.5359 61.856C67.7739 64.106 67.0989 66.216 66.5319 68.121C69.1099 72.836 70.6809 80.918 70.6809 80.918C70.6809 80.918 70.5439 80.395 69.8989 78.571C69.3209 76.95 66.4579 71.931 65.7819 70.762C64.6179 75.043 64.1569 77.934 64.5749 78.642C65.3839 80.004 66.1489 82.364 66.8249 84.965C68.3489 90.832 69.4109 97.977 69.4109 97.977C69.4109 97.977 69.4419 98.446 69.5049 99.177C69.3019 104.062 69.4011 108.955 69.8019 113.828C70.3059 119.938 71.2549 125.191 72.4659 128L73.2939 127.551C71.5129 122.016 70.7899 114.758 71.1059 106.395C71.5859 93.602 74.5279 78.18 79.9619 62.106C89.1529 37.836 101.9 18.368 113.564 9.07101C102.931 18.673 88.5409 49.755 84.2319 61.266C79.4119 74.157 75.9939 86.25 73.9309 97.84C77.4809 86.977 88.9779 82.31 88.9779 82.31C88.9779 82.31 94.6149 75.352 101.205 65.422C97.2549 66.325 90.7749 67.864 88.6069 68.774C85.4069 70.118 84.5399 70.574 84.5399 70.574C84.5399 70.574 94.9109 64.262 103.81 61.403C116.044 42.133 129.372 14.755 115.951 2.78201" fill="#003956"/>
<defs>
<linearGradient id="paint0_linear_3_7383" x1="58.5899" y1="10.3502" x2="58.5899" y2="92.6228" gradientUnits="userSpaceOnUse">
<stop stop-color="#95D7F4"/>
<stop offset="0.92" stop-color="#0F7FCC"/>
<stop offset="1" stop-color="#0F7FCC"/>
</linearGradient>
</defs>
</svg>
