<svg width="128" height="128" viewBox="0 0 128 128" fill="none" xmlns="http://www.w3.org/2000/svg">
<path d="M48.6479 63.617C46.9449 63.617 45.5539 64.125 44.4919 65.14C43.4299 66.155 42.8899 67.488 42.8899 69.12C42.8899 69.965 43.0229 70.738 43.2889 71.445C43.5499 72.152 43.9639 72.805 44.5149 73.398C45.0699 73.992 46.1749 74.797 47.8199 75.824C49.8399 77.066 51.1639 78.074 51.7999 78.859C52.4359 79.644 52.7539 80.469 52.7539 81.328C52.7539 82.476 52.3789 83.398 51.6009 84.086C50.8279 84.773 49.7929 85.121 48.5039 85.121C47.1519 85.121 45.9719 84.641 44.9569 83.687C43.9449 82.73 43.4329 81.469 43.4169 79.883H42.7929V85.633H43.4179C43.6129 85.09 43.8819 84.808 44.2259 84.808C44.3979 84.808 44.7889 84.922 45.4019 85.141C46.8899 85.676 48.1089 85.933 49.0699 85.933C50.7219 85.933 52.1359 85.348 53.3119 84.164C54.4879 82.98 55.0819 81.551 55.0819 79.883C55.0819 78.59 54.6909 77.437 53.9249 76.437C53.1519 75.434 51.6599 74.262 49.4249 72.922C47.5039 71.758 46.2539 70.816 45.6749 70.078C45.0959 69.34 44.7999 68.528 44.7999 67.633C44.7999 66.664 45.1559 65.887 45.8509 65.305C46.5509 64.727 47.4609 64.437 48.6089 64.437C49.8899 64.437 50.9649 64.824 51.8119 65.594C52.6599 66.371 53.1479 67.441 53.2919 68.82H53.9249V63.836H53.3399C53.2649 64.094 53.1989 64.254 53.1399 64.328C53.0779 64.402 52.9679 64.438 52.7929 64.438C52.5899 64.438 52.2299 64.352 51.7149 64.184C50.6089 63.809 49.5899 63.614 48.6479 63.614V63.617ZM69.2419 63.617C67.1639 63.617 65.2819 64.109 63.5739 65.097C61.8669 66.082 60.5149 67.445 59.5149 69.187C58.5229 70.926 58.0229 72.777 58.0229 74.746C58.0229 77.39 58.8859 79.75 60.6209 81.816C62.3629 83.883 64.4409 85.172 66.8549 85.664C67.4099 85.953 68.1989 86.699 69.2349 87.914C70.3979 89.274 71.3829 90.258 72.1949 90.844C72.9873 91.421 73.8704 91.8617 74.8079 92.148C75.7299 92.43 76.7299 92.57 77.8119 92.57C79.1209 92.57 80.2969 92.34 81.3279 91.867L81.0979 91.289C80.4835 91.5084 79.8353 91.6181 79.1829 91.613C78.2729 91.613 77.3469 91.313 76.4219 90.699C75.4959 90.089 74.3399 88.926 72.9609 87.211C72.3119 86.387 71.8629 85.867 71.6129 85.664C74.2529 85.144 76.4289 83.859 78.1249 81.797C79.8159 79.734 80.6639 77.383 80.6639 74.746C80.6639 71.613 79.5579 68.984 77.3589 66.84C75.1589 64.695 72.4529 63.617 69.2419 63.617ZM82.1009 63.617L82.1359 64.297C83.5159 64.297 84.2919 64.703 84.4639 65.527C84.5309 65.824 84.5619 66.371 84.5699 67.152L84.5539 82.152C84.5419 83.273 84.3859 83.988 84.0809 84.297C83.7769 84.605 83.2569 84.801 82.5109 84.875L82.4759 85.555H96.2729L96.6279 82.152H95.9959C95.8159 83.078 95.4059 83.742 94.7459 84.117C94.0889 84.496 92.9209 84.687 91.2459 84.687H89.9369C88.4249 84.687 87.5499 84.133 87.3199 83.031C87.2743 82.7954 87.2519 82.556 87.2529 82.316L87.3039 67.152C87.3039 66.035 87.4439 65.285 87.7379 64.918C88.0309 64.551 88.5619 64.351 89.3319 64.297L89.2959 63.617H82.1009ZM69.4679 64.437C71.8079 64.437 73.7259 65.367 75.2019 67.238C76.6819 69.117 77.4129 71.683 77.4129 74.933C77.4129 78.015 76.6709 80.484 75.1829 82.34C73.6939 84.199 71.7099 85.12 69.2409 85.12C66.8739 85.12 64.9559 84.168 63.4869 82.25C62.0149 80.336 61.2839 77.851 61.2839 74.789C61.2839 71.649 62.0229 69.133 63.5069 67.249C64.9909 65.375 66.9799 64.437 69.4679 64.437ZM101.191 67.664C100.855 67.664 100.597 67.781 100.406 68.008C100.211 68.238 100.152 68.512 100.218 68.851C100.285 69.18 100.468 69.465 100.761 69.711C101.051 69.949 101.367 70.078 101.703 70.078C101.848 70.0828 101.993 70.0519 102.124 69.9879C102.254 69.9239 102.367 69.8289 102.453 69.711C102.628 69.465 102.683 69.18 102.617 68.851C102.547 68.5181 102.363 68.2201 102.097 68.008C101.845 67.7895 101.524 67.6676 101.191 67.664ZM110.289 69.964C109.719 72.176 108.476 73.374 106.578 73.566L106.598 74.199H108.82L108.777 81.691C108.781 82.977 108.817 83.828 108.906 84.261C109.125 85.301 109.804 85.828 110.933 85.828C112.566 85.828 114.281 84.832 116.07 82.828L115.53 82.359C114.234 83.679 113.093 84.344 112.09 84.344C111.476 84.344 111.097 83.988 110.953 83.285C110.912 83.0873 110.894 82.8858 110.898 82.684L110.922 74.199H114.312L114.281 73.191H110.933V69.965L110.289 69.964ZM123.409 72.789C121.511 72.789 119.972 73.719 118.765 75.559C117.574 77.402 117.203 79.445 117.675 81.691C117.949 83.011 118.504 84.031 119.343 84.754C120.187 85.472 121.253 85.828 122.527 85.828C123.715 85.828 125.371 85.528 126.067 84.918C126.761 84.312 127.406 83.324 128 81.972L127.527 81.472C126.577 83.222 124.664 84.105 123.227 84.105C121.242 84.105 120.031 83.015 119.574 80.84C119.515 80.5455 119.472 80.2481 119.445 79.949C121.805 79.574 123.59 78.909 124.793 77.949C126 76.989 127.211 75.965 126.984 74.89C126.862 74.2773 126.514 73.7333 126.008 73.367C125.492 72.988 124.156 72.789 123.41 72.789H123.409ZM102.664 72.867L98.5739 73.812V74.547L99.9879 74.371C100.672 74.371 101.074 74.68 101.203 75.301C101.246 75.511 101.273 75.801 101.281 76.168L101.238 82.898C101.222 83.824 101.121 84.368 100.914 84.531C100.711 84.691 100.16 84.773 99.2689 84.773L99.2459 85.41H105.734L105.722 84.773C104.824 84.773 104.238 84.703 103.98 84.563C103.722 84.426 103.547 84.172 103.468 83.785C103.41 83.508 103.386 83.027 103.383 82.363L103.403 72.867H102.664ZM122.371 74.113C122.765 74.113 123.152 74.265 123.535 74.566C123.914 74.871 124.145 75.206 124.218 75.57C124.589 77.355 123.015 78.594 119.464 79.281C119.367 77.976 119.589 76.793 120.16 75.726C120.73 74.656 121.472 74.113 122.37 74.113H122.371ZM11.5119 76.5C11.5079 76.547 11.5079 76.563 11.5039 76.59C11.5079 76.7 11.5119 76.813 11.5119 76.922C11.5159 76.848 11.5159 76.812 11.5159 76.73L11.5119 76.5Z" fill="black"/>
<path d="M47.711 36.66C45.297 34.496 42.383 35.363 39.496 37.937C39.055 38.34 38.629 38.757 38.219 39.199C33.289 44.461 28.715 54.207 27.293 61.648C27.843 62.781 28.277 64.222 28.563 65.324C28.707 65.867 28.836 66.421 28.949 66.976C28.949 66.976 28.902 66.808 28.723 66.276L28.605 65.937C28.5821 65.8734 28.556 65.811 28.527 65.75C28.207 64.996 27.317 63.406 26.926 62.714C26.6144 63.6301 26.321 64.5523 26.046 65.48C27.176 67.562 27.863 71.128 27.863 71.128C27.863 71.128 27.805 70.894 27.519 70.089C27.269 69.374 26.015 67.159 25.715 66.644C25.207 68.534 25.008 69.812 25.187 70.121C25.543 70.722 25.879 71.761 26.172 72.91C26.844 75.5 27.308 78.652 27.308 78.652L27.348 79.175C27.2591 81.3307 27.3032 83.4897 27.48 85.64C27.699 88.34 28.117 90.652 28.648 91.894L29.008 91.694C28.23 89.254 27.91 86.05 28.051 82.363C28.261 76.723 29.551 69.918 31.933 62.828C35.965 52.125 41.551 43.535 46.663 39.433C42.003 43.667 35.694 57.382 33.804 62.456C31.691 68.143 30.191 73.476 29.289 78.589C30.847 73.796 35.887 71.737 35.887 71.737C35.887 71.737 38.355 68.671 41.242 64.292C39.515 64.686 36.672 65.366 35.722 65.768C34.32 66.362 33.942 66.561 33.942 66.561C33.942 66.561 38.488 63.776 42.387 62.515C47.75 54.015 53.594 41.941 47.711 36.66ZM4.28902 37.937C1.92202 37.945 0.00802344 39.874 -0.000976562 42.253V81.327C0.00802344 83.707 1.92602 85.632 4.28902 85.64H26.309C26.1438 83.5219 26.1034 81.3959 26.188 79.273C26.172 79.124 26.16 78.94 26.148 78.8C25.8618 76.92 25.4931 75.0536 25.043 73.206C24.758 72.101 24.399 71.093 24.18 70.722C23.91 70.257 23.95 69.992 23.953 69.702C23.953 69.421 23.989 69.128 24.039 68.796C24.179 67.968 24.359 67.148 24.586 66.335L25.094 66.273C25.054 66.19 25.063 66.116 25.02 66.042L24.926 65.148C25.207 64.206 25.504 63.268 25.821 62.338L26.285 62.292C26.27 62.257 26.262 62.202 26.242 62.167L26.145 61.425C27.617 53.71 32.192 43.913 37.364 38.394C37.52 38.23 37.676 38.094 37.829 37.937H4.28902Z" fill="black"/>
</svg>
