<svg width="128" height="128" viewBox="0 0 128 128" fill="none" xmlns="http://www.w3.org/2000/svg">
<path d="M48.648 63.613C46.945 63.613 45.558 64.125 44.492 65.14C43.429 66.156 42.894 67.488 42.894 69.12C42.894 69.965 43.023 70.738 43.289 71.445C43.5658 72.1721 43.9838 72.8372 44.519 73.402C45.069 73.996 46.175 74.797 47.819 75.824C49.843 77.066 51.164 78.074 51.8 78.859C52.436 79.644 52.754 80.469 52.754 81.328C52.754 82.476 52.379 83.398 51.601 84.086C50.828 84.773 49.793 85.121 48.504 85.121C47.152 85.121 45.972 84.637 44.961 83.683C43.945 82.73 43.433 81.469 43.421 79.883H42.793V85.633H43.421C43.613 85.086 43.882 84.808 44.23 84.808C44.398 84.808 44.789 84.922 45.402 85.14C46.89 85.672 48.109 85.933 49.07 85.933C50.722 85.933 52.14 85.347 53.312 84.163C54.488 82.98 55.082 81.551 55.082 79.883C55.082 78.59 54.691 77.437 53.925 76.437C53.152 75.433 51.66 74.262 49.425 72.922C47.504 71.758 46.254 70.816 45.675 70.078C45.096 69.34 44.8 68.528 44.8 67.633C44.8 66.66 45.156 65.887 45.855 65.305C46.55 64.726 47.461 64.437 48.609 64.437C49.89 64.437 50.965 64.824 51.812 65.594C52.66 66.371 53.148 67.441 53.292 68.82H53.925V63.836H53.34C53.265 64.094 53.199 64.254 53.14 64.328C53.078 64.402 52.968 64.438 52.793 64.438C52.593 64.438 52.23 64.351 51.715 64.183C50.609 63.808 49.59 63.613 48.648 63.613ZM69.246 63.613C67.168 63.613 65.281 64.109 63.574 65.093C61.867 66.082 60.516 67.445 59.516 69.187C58.523 70.926 58.023 72.777 58.023 74.746C58.023 77.39 58.887 79.75 60.621 81.816C62.363 83.883 64.441 85.172 66.855 85.664C67.41 85.953 68.203 86.699 69.238 87.914C70.398 89.274 71.387 90.258 72.199 90.844C72.9898 91.4217 73.8721 91.8625 74.809 92.148C75.73 92.43 76.73 92.566 77.812 92.566C79.121 92.566 80.297 92.34 81.328 91.867L81.098 91.289C80.4836 91.5084 79.8354 91.618 79.183 91.613C78.273 91.613 77.348 91.308 76.422 90.699C75.496 90.09 74.336 88.926 72.961 87.211C72.312 86.387 71.863 85.867 71.613 85.664C74.253 85.144 76.43 83.859 78.125 81.797C79.82 79.735 80.664 77.383 80.664 74.746C80.664 71.613 79.558 68.984 77.359 66.84C75.16 64.695 72.453 63.613 69.246 63.613ZM82.101 63.613L82.136 64.297C83.519 64.297 84.292 64.703 84.464 65.527C84.531 65.824 84.562 66.371 84.57 67.152L84.558 82.152C84.542 83.273 84.386 83.988 84.081 84.297C83.777 84.605 83.257 84.8 82.511 84.875L82.48 85.555H96.273L96.628 82.152H95.996C95.82 83.078 95.406 83.742 94.746 84.117C94.089 84.496 92.926 84.687 91.246 84.687H89.937C88.425 84.687 87.55 84.137 87.32 83.031C87.2744 82.7954 87.2519 82.5559 87.253 82.316L87.308 67.152C87.308 66.035 87.448 65.285 87.742 64.918C88.031 64.551 88.566 64.348 89.332 64.297L89.3 63.613H82.101ZM69.468 64.437C71.808 64.437 73.726 65.367 75.202 67.238C76.682 69.117 77.413 71.683 77.413 74.933C77.413 78.015 76.671 80.484 75.183 82.34C73.694 84.195 71.71 85.12 69.245 85.12C66.878 85.12 64.96 84.168 63.487 82.25C62.015 80.336 61.284 77.851 61.284 74.789C61.284 71.649 62.023 69.133 63.507 67.249C64.992 65.375 66.98 64.437 69.468 64.437ZM101.191 67.664C100.859 67.664 100.597 67.781 100.41 68.008C100.21 68.238 100.152 68.515 100.218 68.851C100.285 69.183 100.472 69.465 100.765 69.711C101.05 69.949 101.367 70.078 101.703 70.078C101.849 70.0833 101.993 70.0526 102.124 69.9886C102.255 69.9246 102.368 69.8292 102.453 69.711C102.633 69.465 102.687 69.183 102.621 68.851C102.548 68.5191 102.365 68.2218 102.101 68.008C101.848 67.7894 101.525 67.6675 101.191 67.664ZM110.289 69.964C109.722 72.176 108.48 73.374 106.578 73.566L106.598 74.199H108.82L108.777 81.695C108.781 82.976 108.817 83.828 108.91 84.262C109.129 85.301 109.804 85.832 110.933 85.832C112.566 85.832 114.281 84.832 116.07 82.828L115.53 82.363C114.238 83.679 113.093 84.34 112.093 84.34C111.476 84.34 111.097 83.988 110.953 83.285C110.916 83.0865 110.899 82.8848 110.902 82.683L110.922 74.199H114.316L114.281 73.191H110.933V69.965L110.289 69.964ZM123.414 72.789C121.515 72.789 119.972 73.719 118.769 75.559C117.578 77.402 117.207 79.445 117.675 81.695C117.953 83.011 118.504 84.031 119.347 84.754C120.187 85.472 121.257 85.828 122.531 85.828C123.718 85.828 125.371 85.527 126.07 84.918C126.765 84.312 127.41 83.324 128.004 81.972L127.527 81.472C126.577 83.222 124.667 84.105 123.227 84.105C121.242 84.105 120.031 83.011 119.577 80.84C119.515 80.5458 119.471 80.2483 119.445 79.949C121.805 79.574 123.59 78.909 124.793 77.949C126.003 76.988 127.211 75.965 126.984 74.89C126.864 74.2776 126.516 73.7334 126.011 73.367C125.496 72.988 124.16 72.789 123.414 72.789ZM102.664 72.867L98.574 73.812V74.547L99.988 74.371C100.676 74.371 101.078 74.679 101.207 75.301C101.246 75.511 101.277 75.801 101.285 76.168L101.238 82.898C101.226 83.824 101.125 84.367 100.918 84.531C100.711 84.691 100.164 84.773 99.273 84.773L99.246 85.41H105.738L105.726 84.773C104.828 84.773 104.242 84.703 103.98 84.563C103.726 84.422 103.547 84.172 103.469 83.785C103.414 83.508 103.387 83.027 103.383 82.363L103.403 72.867H102.664ZM122.374 74.113C122.769 74.113 123.152 74.265 123.534 74.566C123.918 74.866 124.148 75.206 124.222 75.57C124.593 77.355 123.015 78.593 119.465 79.281C119.367 77.976 119.59 76.793 120.164 75.726C120.734 74.656 121.476 74.113 122.374 74.113Z" fill="#003956"/>
<path d="M39.492 37.938H4.28902C1.92902 37.938 -0.000976562 39.879 -0.000976562 42.251V81.294C-0.000976562 83.664 1.92902 85.606 4.28902 85.606H27.473C27.211 74.004 31.149 51.489 39.493 37.934L39.492 37.938Z" fill="#0B7FCC"/>
<path d="M38.207 39.195H4.28903C3.48082 39.1971 2.70655 39.5201 2.13646 40.093C1.56638 40.6659 1.24717 41.4418 1.24903 42.25V78.445C8.93403 75.48 20.461 72.917 28.434 73.039C30.039 64.609 34.746 48.097 38.207 39.19V39.195Z" fill="url(#paint0_linear_3_7214)"/>
<path d="M47.6988 36.656C45.2888 34.496 42.3668 35.363 39.4918 37.933C39.0618 38.316 38.6318 38.738 38.2068 39.191C33.2808 44.453 28.7068 54.191 27.2888 61.632C27.8388 62.757 28.2728 64.198 28.5588 65.3C28.6976 65.8493 28.825 66.4014 28.9408 66.956C28.9408 66.956 28.8938 66.784 28.7148 66.257L28.5928 65.909C28.5715 65.8467 28.5468 65.7856 28.5188 65.726C28.1988 64.972 27.3088 63.386 26.9178 62.695C26.6072 63.6092 26.3155 64.5297 26.0428 65.456C27.1678 67.534 27.8548 71.101 27.8548 71.101C27.8548 71.101 27.7998 70.867 27.5148 70.066C27.2608 69.351 26.0078 67.14 25.7068 66.62C25.1988 68.511 24.9998 69.784 25.1788 70.097C25.5348 70.699 25.8748 71.734 26.1718 72.887C26.8398 75.472 27.2998 78.617 27.2998 78.617L27.3398 79.147C27.2534 81.3017 27.2975 83.4596 27.4718 85.609C27.6918 88.3 28.1118 90.613 28.6398 91.855L29.0038 91.655C28.2218 89.215 27.9058 86.015 28.0428 82.328C28.2528 76.691 29.5428 69.89 31.9248 62.808C35.9568 52.108 41.5388 43.527 46.6518 39.428C41.9918 43.663 35.6868 57.363 33.7968 62.441C31.6838 68.116 30.1878 73.449 29.2818 78.561C30.8438 73.772 35.8798 71.714 35.8798 71.714C35.8798 71.714 38.3478 68.651 41.2348 64.269C39.5078 64.667 36.6648 65.347 35.7148 65.745C34.3088 66.339 33.9348 66.542 33.9348 66.542C33.9348 66.542 38.4808 63.761 42.3748 62.495C47.7388 54.003 53.5828 41.936 47.6998 36.655" fill="#003956"/>
<defs>
<linearGradient id="paint0_linear_3_7214" x1="22.5597" y1="39.9946" x2="22.5597" y2="76.2609" gradientUnits="userSpaceOnUse">
<stop stop-color="#95D7F4"/>
<stop offset="0.92" stop-color="#0F7FCC"/>
<stop offset="1" stop-color="#0F7FCC"/>
</linearGradient>
</defs>
</svg>
