<svg width="128" height="128" viewBox="0 0 128 128" fill="none" xmlns="http://www.w3.org/2000/svg">
<path d="M115.95 2.78101C110.446 -2.12499 103.79 -0.151987 97.2118 5.68301C96.199 6.59311 95.2255 7.54597 94.2938 8.53901C83.0478 20.469 72.6098 42.559 69.3678 59.434C70.6298 61.997 71.6178 65.266 72.2698 67.762C72.5948 69 72.8868 70.25 73.1448 71.508C73.1448 71.508 73.0438 71.129 72.6298 69.93L72.3638 69.153C72.3092 69.0094 72.2505 68.8673 72.1878 68.727C71.4538 67.02 69.4268 63.418 68.5318 61.852C67.8226 63.929 67.1532 66.0194 66.5238 68.122C69.1058 72.836 70.6728 80.922 70.6728 80.922C70.6728 80.922 70.5398 80.395 69.8908 78.567C69.3208 76.95 66.4538 71.93 65.7738 70.758C64.6138 75.048 64.1538 77.938 64.5668 78.641C65.3798 80.004 66.1448 82.364 66.8168 84.965C68.3448 90.833 69.4028 97.981 69.4028 97.981L69.4968 99.173C69.2938 104.059 69.3948 108.954 69.7938 113.829C70.3018 119.942 71.2508 125.188 72.4618 128.001L73.2858 127.551C71.5048 122.016 70.7818 114.759 71.1018 106.396C71.5788 93.606 74.5238 78.181 79.9578 62.106C89.1488 37.845 101.896 18.373 113.56 9.07201C102.93 18.673 88.5368 49.767 84.2278 61.275C79.4038 74.162 75.9898 86.252 73.9298 97.84C77.4848 86.977 88.9728 82.313 88.9728 82.313C88.9728 82.313 94.6098 75.359 101.196 65.43C97.2508 66.328 90.7698 67.871 88.5978 68.781C85.3978 70.121 84.5348 70.578 84.5348 70.578C84.5348 70.578 94.9058 64.266 103.805 61.406C116.039 42.136 129.371 14.761 115.95 2.78101ZM16.8958 5.68101C11.4978 5.70101 7.12584 10.071 7.11084 15.47V104.044C7.12684 109.442 11.5008 113.809 16.8958 113.829H67.1228C66.7474 109.026 66.6549 104.205 66.8458 99.391C66.8148 99.059 66.7868 98.637 66.7598 98.324C66.1104 94.0602 65.2686 89.8278 64.2368 85.64C63.5918 83.133 62.7718 80.851 62.2718 80.004C61.6508 78.953 61.7478 78.351 61.7518 77.699C61.7518 77.059 61.8338 76.394 61.9518 75.64C62.2678 73.762 62.6818 71.902 63.1978 70.066L64.3538 69.918C64.2638 69.73 64.2798 69.57 64.1898 69.402L63.9708 67.371C64.6108 65.234 65.2868 63.109 66.0108 61L67.0768 60.898C67.0338 60.816 67.0218 60.695 66.9788 60.618L66.7488 58.933C70.1118 41.437 80.5488 19.234 92.3498 6.71401C92.7018 6.34401 93.0608 6.03101 93.4048 5.67901L16.8958 5.68101Z" fill="black"/>
</svg>
