<svg width="128" height="128" viewBox="0 0 128 128" fill="none" xmlns="http://www.w3.org/2000/svg">
<path d="M99.4382 45.906C97.8452 53.238 92.4812 77.642 92.4812 77.642H103.247C103.892 74.634 104.393 71.865 105.127 68.807C106.424 63.387 107.879 61.241 111.727 61.241C113.424 61.241 115.18 61.818 115.18 64.136C115.18 65.19 112.76 75.541 112.335 77.643H123.049C123.049 77.643 126.371 61.527 126.399 61.343C126.511 60.801 126.754 59.21 126.754 59.21C126.754 55.36 121.744 53.545 119.137 53.47C117.251 53.417 118.672 53.438 116.75 53.47C113.665 53.523 109.565 55.237 107.763 57.076L107.56 57.228L107.662 56.974L110.099 46.108C110.089 46.0306 110.053 45.959 109.996 45.905H99.4362L99.4382 45.906ZM48.4582 53.166C47.4022 53.15 45.6632 53.151 42.8722 53.218C37.2922 53.351 28.9592 55.07 28.9592 63.068C28.9592 67.592 33.1592 67.986 36.8792 68.35C39.7892 68.637 42.6712 68.977 45.5112 69.264C46.3292 69.34 47.1362 69.524 47.1362 70.432C47.1362 71.972 45.8662 72.459 44.0892 72.615C42.3132 72.772 41.9062 72.615 41.9062 72.615C40.7862 72.615 38.8702 71.938 39.1132 70.33H26.4702V72.21C26.4752 78.26 36.2402 78.283 38.0482 78.505H41.1962L46.0202 78.353C52.4602 77.928 59.4302 75.998 59.7302 68.299C59.9382 62.987 53.1502 63.139 50.1842 62.814H49.3722C49.2202 62.814 44.6092 62.346 42.3142 62.104C41.9642 62.064 40.3842 61.831 40.3842 60.884C40.3842 59.004 43.8412 59.056 44.5992 59.056C45.8172 59.056 48.4532 59.004 48.3562 61.086H60.2902C60.3142 60.643 60.4932 60.244 60.4932 59.766C60.4932 54.412 53.6232 53.396 49.8812 53.216C49.8812 53.216 49.5152 53.183 48.4592 53.166H48.4582ZM80.5482 53.166C80.0762 53.149 79.4302 53.162 76.6382 53.218C71.0482 53.33 62.6752 55.12 62.6752 63.12C62.6752 67.643 66.8772 68.037 70.5952 68.4C73.5052 68.688 76.3872 69.028 79.2282 69.315C80.0462 69.391 80.8532 69.575 80.8532 70.483C80.8532 72.023 79.2692 72.573 77.8062 72.666C76.3422 72.759 75.6232 72.666 75.6232 72.666C74.5012 72.666 72.5872 72.039 72.8302 70.432H60.1872V72.312C60.1772 78.032 69.9172 78.407 71.7642 78.506L74.9122 78.608L79.7362 78.456C86.1762 78.033 93.1212 76.099 93.4462 68.402C93.6602 63.326 87.1062 63.395 84.0012 62.969L83.0882 62.866C82.9362 62.866 78.3252 62.448 76.0302 62.206C75.6802 62.168 74.1502 61.883 74.1502 60.936C74.1502 59.058 77.5572 59.109 78.3142 59.109C79.5342 59.109 82.1692 59.057 82.0722 61.139H94.0052C94.0292 60.696 94.2082 60.297 94.2082 59.819C94.2082 54.464 87.3042 53.429 83.5962 53.321C81.3262 53.251 81.0222 53.184 80.5492 53.166H80.5482ZM19.7772 45.246C19.7772 43.288 18.3902 41.793 16.3242 41.793C14.3862 41.793 12.8202 43.288 12.8202 45.246C12.8202 47.081 14.3102 48.75 16.2732 48.75C18.1292 48.75 19.7772 47.288 19.7772 45.246ZM29.2732 37.07C29.2732 35.58 28.2982 33.67 26.2262 33.67C24.3412 33.67 23.3822 35.325 23.3822 36.817C23.3822 38.26 24.4022 40.371 26.4292 40.371C28.3132 40.371 29.2722 38.515 29.2722 37.071L29.2732 37.07ZM20.7872 92.367C19.0592 92.367 16.7792 94.625 16.7792 96.327C16.7792 97.193 17.1832 97.647 18.1252 97.647C19.3572 97.647 20.9722 96.604 21.7382 95.057C21.8882 94.754 21.9982 94.241 21.9982 94.144V93.281C21.9982 92.561 21.2912 92.368 20.7852 92.368L20.7872 92.367ZM13.4302 88.153C11.5202 88.153 8.86016 90.145 8.86016 92.368C8.86016 93.468 9.54416 93.993 10.5362 93.993C12.3722 93.993 15.2582 92.068 15.2582 89.728C15.2582 88.574 14.4512 88.153 13.4302 88.153ZM8.15016 60.885C9.95516 60.885 12.4652 59.638 12.4652 57.077C12.4652 55.143 10.8712 53.929 9.11516 53.929C7.20516 53.929 4.74716 55.254 4.74716 57.736C4.74716 59.646 6.29016 60.884 8.14916 60.884L8.15016 60.885ZM10.3332 81.755C10.3332 80.263 9.22916 79.673 7.99716 79.673C6.19716 79.673 3.07216 81.403 3.07216 83.888C3.07216 85.29 4.02716 85.918 5.35716 85.918C7.06016 85.918 10.3332 84.375 10.3332 81.755ZM9.11416 70.177C9.11416 68.4 7.66416 67.587 6.11816 67.587C6.02016 67.587 5.94816 67.557 5.55816 67.587C3.32616 67.774 1.24316 69.697 1.24316 71.649C1.24316 73.474 2.90316 74.239 4.34016 74.239C6.20016 74.239 9.11416 72.812 9.11416 70.176V70.177ZM28.8672 93.027C27.2472 93.027 25.3632 95.191 25.3632 96.683C25.3632 96.903 25.3672 97.333 25.7692 97.597C26.1892 97.873 26.9412 97.897 27.8492 97.292C29.0692 96.479 29.8812 95.04 29.8812 94.092C29.8812 93.572 29.5482 93.027 28.8662 93.027H28.8672ZM51.8702 34.836C50.5102 34.836 50.0402 36.946 50.0402 37.629C50.0402 38.305 50.2752 39.811 51.4632 39.811C52.8572 39.811 53.2912 37.701 53.2912 37.018C53.2912 36.444 52.9842 34.835 51.8712 34.834L51.8702 34.836ZM56.2862 40.422C55.0302 40.422 54.5602 42.485 54.5602 43.112C54.5602 43.638 54.7602 44.89 55.7282 44.89C56.9502 44.89 57.4042 42.878 57.4042 42.25C57.4042 41.833 57.2192 40.422 56.2862 40.422ZM45.2172 31.028C43.6372 31.028 43.1352 33.005 43.1352 33.922C43.1352 34.526 43.5072 36.678 45.0152 36.664C46.5212 36.649 47.0952 34.691 47.0952 33.719C47.0952 32.963 46.7332 31.027 45.2172 31.027V31.028ZM43.0842 86.782C41.6512 86.782 40.6472 88.972 40.6472 89.829C40.6472 90.276 40.7612 90.742 41.4092 90.742C42.8262 90.742 43.8452 88.589 43.8452 87.695C43.8452 87.277 43.6922 86.781 43.0832 86.781L43.0842 86.782ZM36.3822 30.216C34.6552 30.216 33.9952 32.266 33.9952 33.364C33.9952 34.517 34.8452 36.512 36.5352 36.512C38.2472 36.512 38.9012 34.465 38.8702 33.415C38.8302 32.071 38.2662 30.215 36.3822 30.215V30.216ZM36.3822 90.895C34.8122 90.895 33.4882 93.145 33.4882 94.297C33.4882 94.877 33.7522 95.211 34.3512 95.211C35.7712 95.211 37.2462 93.041 37.2462 91.911C37.2462 91.415 37.1442 90.896 36.3832 90.896L36.3822 90.895Z" fill="#231F20"/>
</svg>
