<svg width="128" height="128" viewBox="0 0 128 128" fill="none" xmlns="http://www.w3.org/2000/svg">
<path d="M34.2701 109.182C30.6981 109.182 25.7201 112.907 25.7201 117.066C25.7201 119.121 27.0001 120.106 28.8551 120.106C32.2891 120.106 37.6891 116.506 37.6891 112.126C37.6871 109.97 36.1771 109.182 34.2691 109.182H34.2701ZM46.1421 28.917C46.1421 25.255 43.5481 22.457 39.6821 22.457C36.0571 22.457 33.1291 25.255 33.1291 28.917C33.1291 32.35 35.9151 35.471 39.5871 35.471C43.0571 35.471 46.1411 32.738 46.1411 28.918L46.1421 28.917ZM63.9051 13.624C63.9051 10.834 62.0801 7.25999 58.2051 7.25999C54.6811 7.25999 52.8871 10.358 52.8871 13.15C52.8871 15.848 54.7951 19.798 58.5871 19.798C62.1111 19.798 63.9051 16.324 63.9051 13.624ZM48.3801 117.066C45.1501 117.066 40.7071 121.29 40.7071 124.476C40.7071 126.094 41.3771 126.946 43.1391 126.946C45.4421 126.946 48.7691 124.993 50.2031 122.101C50.4871 121.533 50.9981 120.574 50.9981 120.391V118.777C49.9981 117.43 49.3251 117.067 48.3781 117.067L48.3801 117.066ZM28.4751 97.213C28.4751 94.423 26.4091 93.319 24.1051 93.319C20.7371 93.319 14.8921 96.555 14.8921 101.202C14.8921 103.826 16.6791 105.002 19.1661 105.002C22.3511 105.002 28.4761 102.114 28.4761 97.212L28.4751 97.213ZM24.3901 58.173C27.7701 58.173 32.4641 55.841 32.4641 51.049C32.4641 47.431 29.4811 45.159 26.1941 45.159C22.6241 45.159 18.0261 47.639 18.0261 52.283C18.0261 55.855 20.9111 58.173 24.3901 58.173ZM26.1951 75.556C26.1951 72.231 23.4821 70.712 20.5911 70.712C20.4091 70.712 20.2711 70.656 19.5471 70.712C15.3701 71.062 11.4731 74.658 11.4731 78.312C11.4731 81.726 14.5771 83.155 17.2671 83.155C20.7471 83.155 26.1971 80.485 26.1971 75.555L26.1951 75.556ZM106.174 9.44499C103.631 9.44499 102.754 13.393 102.754 14.669C102.754 15.935 103.192 18.752 105.414 18.752C108.021 18.752 108.834 14.804 108.834 13.528C108.834 12.454 108.258 9.44299 106.174 9.44299V9.44499ZM93.7301 2.31999C90.7751 2.31999 89.8371 6.01999 89.8371 7.73499C89.8371 8.86499 90.5331 12.891 93.3521 12.865C96.1721 12.835 97.2461 9.17199 97.2461 7.35499C97.2461 5.94199 96.5661 2.32099 93.7311 2.32099L93.7301 2.31999ZM114.438 19.893C112.088 19.893 111.208 23.753 111.208 24.927C111.208 25.909 111.584 28.252 113.393 28.252C115.678 28.252 116.528 24.487 116.528 23.312C116.528 22.532 116.183 19.892 114.438 19.892V19.893ZM89.7421 106.617C87.0621 106.617 85.1821 110.711 85.1821 112.317C85.1821 113.153 85.3961 114.027 86.6081 114.027C89.2601 114.027 91.1681 109.997 91.1681 108.327C91.1661 107.545 90.8801 106.617 89.7421 106.617ZM63.1451 118.3C60.1151 118.3 56.5911 122.348 56.5911 125.14C56.5911 125.55 56.5991 126.353 57.3511 126.85C58.1391 127.365 59.5471 127.413 61.2461 126.28C63.5261 124.758 65.0461 122.067 65.0461 120.295C65.0461 119.322 64.4231 118.301 63.1461 118.3H63.1451ZM77.2031 0.799988C73.9731 0.799988 72.7391 4.63399 72.7391 6.68999C72.7391 8.84699 74.3291 12.58 77.4871 12.58C80.6921 12.58 81.9171 8.74999 81.8571 6.78499C81.7822 4.26999 80.7271 0.799988 77.2021 0.799988H77.2031ZM77.2031 114.31C74.2661 114.31 71.7891 118.52 71.7891 120.675C71.7891 121.76 72.2831 122.385 73.4031 122.385C76.0561 122.385 78.8171 118.321 78.8171 116.211C78.8171 115.284 78.6272 114.311 77.2021 114.311L77.2031 114.31Z" fill="#231F20"/>
</svg>
