<svg width="128" height="128" viewBox="0 0 128 128" fill="none" xmlns="http://www.w3.org/2000/svg">
<path d="M107.346 2.012L100.432 2.443L100.971 16.82C100.999 17.615 100.082 18.079 99.457 17.586L94.827 13.936L89.342 18.098C89.2008 18.2052 89.0319 18.2701 88.8552 18.2849C88.6785 18.2997 88.5012 18.2639 88.344 18.1817C88.1869 18.0994 88.0564 17.9742 87.9679 17.8205C87.8793 17.6669 87.8364 17.4912 87.844 17.314L88.461 3.191L19.873 7.48C18.2414 7.58166 16.7143 8.3171 15.6175 9.52931C14.5208 10.7415 13.9414 12.3344 14.003 13.968L17.863 116.806C17.9219 118.377 18.5696 119.869 19.6774 120.985C20.7853 122.1 22.2722 122.759 23.843 122.829L107.455 126.583C108.3 126.62 109.144 126.486 109.936 126.189C110.728 125.892 111.452 125.437 112.064 124.853C112.676 124.269 113.163 123.566 113.496 122.788C113.829 122.011 114 121.173 114 120.327V8.264C114 7.40833 113.825 6.56166 113.486 5.77631C113.146 4.99096 112.649 4.28362 112.025 3.698C111.402 3.11205 110.665 2.66012 109.86 2.37013C109.055 2.08014 108.2 1.95825 107.346 2.012ZM65.886 23.199C82.194 23.199 91.1 31.922 91.1 48.518C88.896 50.231 72.48 51.398 72.48 48.961C72.826 39.661 68.663 39.254 66.35 39.254C64.152 39.254 60.451 39.916 60.451 44.898C60.451 57.186 92.141 56.523 92.141 81.322C92.141 95.272 80.806 102.977 66.35 102.977C51.43 102.977 38.393 96.941 39.865 76.014C40.443 73.557 59.41 74.141 59.41 76.014C59.18 84.649 61.145 87.189 66.117 87.189C69.934 87.189 71.67 85.086 71.67 81.543C71.67 68.922 40.443 68.48 40.443 45.342C40.443 32.057 49.581 23.199 65.887 23.199H65.886Z" fill="#FF4785"/>
</svg>
