<svg width="128" height="128" viewBox="0 0 128 128" fill="none" xmlns="http://www.w3.org/2000/svg">
<path d="M20.6201 85.39C23.8701 81.5 24.2601 77.48 21.7401 70.02C20.1501 65.3 17.5001 61.66 19.4401 58.73C21.5101 55.6 25.9101 58.63 22.2501 62.81L22.9801 63.32C27.3801 63.83 29.5501 57.8 26.2601 56.08C17.5901 51.55 10.0001 60.26 13.3501 70.34C14.7901 74.61 16.7901 79.14 15.1701 82.75C13.7701 85.84 11.0601 87.66 9.24006 87.75C5.44006 87.91 8.00006 79.2 12.3301 77C12.7101 76.81 13.2501 76.55 12.7401 75.92C7.35006 75.31 4.19006 77.8 2.38006 81.28C-2.90994 91.42 12.4301 95.15 20.6201 85.39ZM115.34 55.67C116.58 58.73 118.47 61.76 117.34 64.44C116.42 66.74 115.2 67.69 113.86 67.92C111.98 68.24 112.49 62.34 115.71 60.59C116 60.43 116.41 59.67 116.03 59.22C111.95 59 109.65 60.94 108.41 63.53C104.81 71.09 116.57 73.16 122.35 65.73C124.65 62.73 124.74 59.83 122.54 54.5C121.14 51.12 119 48.6 120.34 46.37C121.68 44.14 125.22 46.05 122.64 49.21L123.21 49.53C126.56 49.72 127.93 45.26 125.38 44.14C118.65 41.25 112.37 48.49 115.34 55.67Z" fill="#333333"/>
<path d="M72.7302 47.6C70.4002 45.75 63.8702 48.84 62.0002 53.44C59.6702 59.28 56.2302 67.79 52.8502 71.52C49.2802 75.44 48.9302 72.41 49.2802 70.15C50.1102 64.82 55.2802 52.48 58.1502 49.01C57.1002 47.45 50.2102 47.67 45.4302 55.1C43.6502 57.9 39.5702 67.24 35.0002 74.61C34.0002 76.2 32.7702 75.09 33.7202 71.36C34.8002 67.05 37.9902 55.22 42.1102 45.91C52.8902 43.77 64.3402 42.27 73.1102 42.24C74.2902 41.92 75.1102 40.87 73.1102 40.8C65.5502 40.54 54.2002 41.44 43.5802 42.8C45.5802 38.72 47.8202 35.47 50.0502 34.09C47.6302 32.56 42.7202 33.17 39.9102 37.31C38.5407 39.3943 37.3146 41.5693 36.2402 43.82C28.5002 45 21.8402 46.39 18.4602 47.66C15.0802 48.93 15.3302 53.24 17.4602 52.44C23.0485 50.4471 28.7564 48.8072 34.5502 47.53C30.3202 57.1 27.0002 68.39 26.2002 73C24.2002 84.16 31.1402 84.1 34.5202 79.7C38.2002 74.87 45.8502 57.93 47.0002 56.15C47.3502 55.54 47.8302 55.86 47.5702 56.41C39.0202 73.47 39.7602 80.07 46.6802 78.61C49.8102 77.94 55.1902 72.61 56.6002 69.81C56.8902 69.14 57.4902 69.2 57.3702 69.49C52.0002 83.54 45.0802 94.92 40.4602 98.5C36.2502 101.72 33.1302 94.74 48.0202 84.72C50.2202 83.22 49.2002 81.18 46.7102 81.88C39.0002 83.09 17.0002 90.08 7.36023 96.77C6.63023 97.28 5.96023 97.69 5.99023 98.77C5.99023 99.38 7.07023 99.15 7.58023 98.83C20.0802 91.34 30.3202 88.4 42.0502 85.95C42.2144 86.0132 42.3961 86.0132 42.5602 85.95C43.1002 85.82 43.0702 86.11 42.7202 86.33C41.9202 86.78 41.1302 87.19 40.9302 87.25C33.0202 90.34 28.2402 97.17 29.9302 100.64C31.3702 103.64 39.1102 102.55 42.7802 100.58C51.7802 95.7 58.3102 86.13 62.7802 72.93C66.6702 61.25 71.5802 48 72.7302 47.6ZM125 74.61C110.36 72.7 78.7902 75.25 64.8502 78.95C60.7002 80.03 61.8502 82.23 63.9602 81.82L64.9602 81.6C76.4102 79.37 104.19 77.42 120.39 80.52C122.29 80.86 128.13 75 125 74.61ZM76.8102 72.89C80.9002 70.85 87.0002 58.22 90.9402 51.3C91.2302 50.79 91.7402 51.2 91.4502 51.56C81.3702 68.91 85.6502 70.92 89.6302 70.66C95.0002 70.34 99.8702 62.68 101 61C101.45 60.33 101.7 60.87 101.45 61.35C101.19 62.15 100.27 63.55 99.4502 65.46C98.2402 68.17 99.5102 69.22 100.57 69.7C102.23 70.5 106.76 69.99 107.46 67.21C102.93 67.11 113.77 45.75 114.89 44.44C111.89 42.69 107.17 44.6 105.04 48.81C100.48 57.81 96.6502 65.11 94.2602 65.23C89.6002 65.49 99.6202 45.11 101.26 44.47C100.26 43.03 93.9302 43.64 90.3902 49.13C89.1102 51.13 81.3302 64.88 79.3902 67.13C76.0102 71.13 75.7502 67.7 76.7102 63.69C77.1351 61.9722 77.6559 60.2795 78.2702 58.62C80.5002 53.62 82.8902 51.99 84.3602 50.36C94.2102 39.42 99.8602 30.56 97.6302 27.08C95.6302 23.99 89.0502 25.36 84.8102 31.74C77.0002 43.44 69.8102 59.48 68.8602 66.82C67.9102 74.16 73.2102 74.67 76.8102 72.89ZM81.0002 51.43C81.3502 50.63 81.5702 50.43 82.1802 49.07C85.6502 41.35 90.0002 33.22 93.0802 29.42C94.9602 27.42 97.6102 30.12 92.8202 37.42C90.0782 41.6781 86.9048 45.6424 83.3502 49.25C82.4602 50.25 81.6602 51.07 81.3502 51.55C81.0602 51.94 80.7702 51.87 81.0002 51.43Z" fill="#333333"/>
</svg>
