<svg width="128" height="128" viewBox="0 0 128 128" fill="none" xmlns="http://www.w3.org/2000/svg">
<path fill-rule="evenodd" clip-rule="evenodd" d="M0.589844 55.484H127.41V71.742H0.589844V55.484Z" fill="white"/>
<path d="M30.2382 60.363C29.7382 60.363 29.3012 60.426 28.9292 60.562C28.5702 60.707 28.2882 60.902 28.0892 61.152C27.9006 61.4077 27.7992 61.7173 27.8002 62.035C27.8002 62.387 27.8942 62.672 28.0812 62.91C28.2682 63.148 28.5152 63.328 28.8232 63.461C29.1392 63.594 29.5302 63.711 29.9992 63.816L30.8272 64.023C31.0262 64.086 31.1982 64.183 31.3312 64.308C31.4642 64.433 31.5262 64.589 31.5262 64.792C31.5262 65.046 31.4092 65.249 31.1632 65.417C30.9172 65.585 30.6122 65.675 30.2222 65.675C29.9332 65.675 29.7062 65.636 29.5352 65.55C29.3552 65.464 29.2232 65.366 29.1332 65.23C29.0215 65.0831 28.9284 64.9228 28.8562 64.753C28.7942 64.589 28.7152 64.464 28.6142 64.39C28.5677 64.3464 28.513 64.3125 28.4532 64.2903C28.3934 64.2682 28.3299 64.2582 28.2662 64.261C28.1891 64.2591 28.1124 64.2727 28.0406 64.3008C27.9689 64.329 27.9034 64.3712 27.8482 64.425C27.7952 64.472 27.7528 64.5298 27.7239 64.5944C27.6949 64.6591 27.68 64.7292 27.6802 64.8C27.6802 65.054 27.7742 65.308 27.9572 65.585C28.1438 65.8575 28.3931 66.0811 28.6842 66.237C29.0902 66.452 29.6102 66.561 30.2502 66.561C30.7812 66.561 31.2422 66.487 31.6212 66.319C31.9808 66.1835 32.293 65.9457 32.5192 65.635L32.5422 65.58L32.5852 65.529L32.6712 65.357L32.6982 65.291L32.7182 65.236L32.7342 65.181L32.7732 65.052L32.7812 64.993L32.8012 64.923L32.8092 64.857V64.798L32.8132 64.732V64.654C32.8132 64.357 32.7542 64.103 32.6452 63.892C32.5259 63.6813 32.357 63.5028 32.1532 63.372C31.9193 63.2276 31.6688 63.1121 31.4072 63.028C31.0799 62.9227 30.7474 62.8339 30.4112 62.762L29.7942 62.614C29.6678 62.5718 29.5439 62.5223 29.4232 62.466C29.3062 62.4121 29.2032 62.332 29.1222 62.232C29.0499 62.1486 29.0111 62.0413 29.0132 61.931C29.0132 61.736 29.1222 61.564 29.3292 61.427C29.5362 61.282 29.8092 61.224 30.1422 61.224C30.5132 61.224 30.7792 61.279 30.9512 61.415C31.1152 61.54 31.2482 61.712 31.3772 61.938C31.4672 62.102 31.5452 62.208 31.6192 62.278C31.6932 62.348 31.8072 62.38 31.9632 62.38C32.1192 62.38 32.2602 62.321 32.3772 62.208C32.4291 62.1587 32.4704 62.0992 32.4986 62.0334C32.5268 61.9675 32.5413 61.8966 32.5412 61.825C32.5412 61.665 32.4942 61.505 32.4042 61.341C32.3142 61.177 32.1812 61.009 31.9822 60.861C31.7982 60.713 31.5562 60.584 31.2672 60.49C30.9782 60.396 30.6342 60.361 30.2402 60.361L30.2382 60.363ZM38.6602 60.363C38.4732 60.363 38.3082 60.414 38.1912 60.543C38.0742 60.672 38.0072 60.848 38.0072 61.098V63.985C38.0072 64.434 38.0662 64.825 38.1752 65.149C38.2772 65.469 38.4412 65.743 38.6672 65.95C38.8932 66.157 39.1872 66.321 39.5502 66.415C39.965 66.5206 40.3921 66.5704 40.8202 66.563C41.2462 66.563 41.6092 66.52 41.9252 66.434C42.2302 66.34 42.4952 66.184 42.7302 65.993C42.9947 65.7773 43.1913 65.4898 43.2962 65.165C43.3982 64.849 43.4372 64.458 43.4372 63.993V61.098C43.4372 60.848 43.3822 60.661 43.2572 60.543C43.1402 60.414 42.9762 60.363 42.7772 60.363C42.5782 60.363 42.4252 60.414 42.3082 60.543C42.1912 60.66 42.1322 60.848 42.1322 61.098V64.082C42.1322 64.594 42.0342 64.98 41.8162 65.23C41.6092 65.48 41.2422 65.605 40.7262 65.605C40.3672 65.605 40.0782 65.546 39.8712 65.418C39.6709 65.3016 39.5206 65.1154 39.4492 64.895C39.3566 64.6249 39.3129 64.3404 39.3202 64.055V61.098C39.3202 60.848 39.2612 60.668 39.1522 60.543C39.0272 60.414 38.8592 60.363 38.6602 60.363ZM49.7112 60.461C49.4222 60.461 49.2232 60.52 49.0982 60.637C48.9732 60.754 48.9142 60.942 48.9142 61.207V65.715C48.9142 65.973 48.9732 66.16 49.0982 66.285C49.2152 66.406 49.4222 66.461 49.7112 66.461H51.6762C52.0202 66.461 52.3322 66.445 52.5822 66.414C52.814 66.3908 53.0415 66.3356 53.2582 66.25C53.5623 66.132 53.8237 65.925 54.0082 65.656C54.1992 65.39 54.2852 65.086 54.2852 64.754C54.2852 64.024 53.8632 63.531 53.0122 63.285C53.6642 62.996 53.9852 62.562 53.9852 61.965C53.9863 61.7934 53.953 61.6234 53.8872 61.465C53.8251 61.308 53.735 61.1637 53.6212 61.039C53.5063 60.9087 53.3687 60.8003 53.2152 60.719C53.0282 60.6144 52.8228 60.5468 52.6102 60.52C52.3429 60.4759 52.0721 60.4561 51.8012 60.461H49.7112ZM50.2232 61.367H51.2932C51.7622 61.367 52.1212 61.418 52.3562 61.515C52.5792 61.617 52.7002 61.82 52.7002 62.12C52.704 62.2546 52.6659 62.387 52.5912 62.499C52.5502 62.5791 52.4935 62.6502 52.4244 62.7079C52.3553 62.7656 52.2753 62.8089 52.1892 62.835C52.0052 62.898 51.7522 62.921 51.4272 62.921H50.2242L50.2232 61.367ZM50.2232 63.789H51.5862C52.0472 63.789 52.3912 63.855 52.6172 63.996C52.8442 64.129 52.9612 64.359 52.9612 64.656C52.9612 65.254 52.5202 65.558 51.6332 65.558H50.2232V63.789Z" fill="#809CC8"/>
<path d="M59.6838 60.363C59.6012 60.3589 59.5186 60.3713 59.4408 60.3994C59.363 60.4276 59.2916 60.471 59.2308 60.527C59.1756 60.5746 59.1311 60.6334 59.1001 60.6994C59.069 60.7653 59.0523 60.8371 59.0508 60.91C59.0522 60.9771 59.0612 61.0439 59.0778 61.109C59.0938 61.187 59.1248 61.261 59.1478 61.328L59.2298 61.543L60.7648 65.434L60.9328 65.856C60.9852 65.9834 61.0505 66.105 61.1278 66.219C61.2098 66.321 61.3078 66.403 61.4248 66.469C61.5498 66.535 61.6948 66.563 61.8738 66.563C62.0276 66.5686 62.1804 66.5364 62.3188 66.469C62.4358 66.403 62.5338 66.321 62.6158 66.219C62.6858 66.117 62.7488 65.989 62.8038 65.856L62.9718 65.434L64.5348 61.512L64.6128 61.297C64.6411 61.2332 64.6622 61.1665 64.6758 61.098C64.6918 61.024 64.7148 60.961 64.7148 60.907C64.7148 60.813 64.6758 60.727 64.6208 60.641C64.5658 60.555 64.4958 60.489 64.4058 60.434C64.3071 60.387 64.1991 60.363 64.0898 60.364C63.9614 60.3565 63.834 60.3909 63.7268 60.462C63.6507 60.5236 63.5872 60.5993 63.5398 60.685C63.5008 60.763 63.4498 60.912 63.3718 61.13L61.9028 65.185L60.4418 61.154C60.3717 60.9409 60.2774 60.7366 60.1608 60.545C60.0708 60.416 59.9068 60.365 59.6838 60.365V60.363ZM92.7428 60.363C92.2428 60.363 91.8088 60.426 91.4498 60.562C91.0788 60.707 90.8018 60.902 90.6018 61.152C90.4132 61.4077 90.3118 61.7173 90.3128 62.035C90.3128 62.387 90.4148 62.672 90.5938 62.91C90.7728 63.148 91.0238 63.328 91.3398 63.461C91.6488 63.594 92.0348 63.711 92.5038 63.816L93.3398 64.023C93.5468 64.086 93.7188 64.183 93.8438 64.308C93.9688 64.433 94.0468 64.589 94.0468 64.792C94.0468 65.046 93.9178 65.249 93.6838 65.417C93.4378 65.585 93.1218 65.675 92.7348 65.675C92.4458 65.675 92.2188 65.636 92.0478 65.55C91.8768 65.464 91.7388 65.366 91.6378 65.23C91.5325 65.0828 91.4471 64.9225 91.3838 64.753C91.3283 64.615 91.2429 64.4911 91.1338 64.39C91.0366 64.3047 90.9111 64.2587 90.7818 64.261C90.6098 64.261 90.4698 64.32 90.3598 64.425C90.2498 64.53 90.1958 64.652 90.1958 64.8C90.1958 65.054 90.2858 65.308 90.4658 65.585C90.6498 65.855 90.8918 66.069 91.1808 66.237C91.5948 66.452 92.1218 66.561 92.7628 66.561C93.2938 66.561 93.7508 66.487 94.1418 66.319C94.5288 66.159 94.8258 65.928 95.0248 65.635L95.0638 65.58L95.0908 65.529L95.1298 65.467L95.1848 65.358L95.2118 65.292L95.2238 65.237L95.2508 65.182L95.2708 65.116L95.2788 65.054L95.2988 64.995L95.3068 64.925L95.3188 64.859V64.8L95.3268 64.734V64.656C95.3268 64.359 95.2678 64.105 95.1588 63.894C95.0418 63.687 94.8738 63.511 94.6668 63.374C94.4598 63.237 94.2178 63.128 93.9208 63.03C93.6238 62.932 93.2918 62.846 92.9328 62.764L92.2998 62.616L91.9288 62.468C91.8137 62.413 91.7122 62.3331 91.6318 62.234C91.5678 62.1467 91.5334 62.0412 91.5338 61.933C91.5338 61.738 91.6358 61.566 91.8428 61.429C92.0498 61.284 92.3198 61.226 92.6628 61.226C93.0218 61.226 93.2958 61.281 93.4558 61.417C93.6198 61.542 93.7648 61.714 93.8818 61.94C93.9718 62.104 94.0538 62.21 94.1358 62.28C94.2098 62.35 94.3268 62.382 94.4718 62.382C94.5477 62.3835 94.6232 62.369 94.6931 62.3393C94.7631 62.3097 94.826 62.2656 94.8778 62.21C94.9322 62.1622 94.9757 62.1032 95.0054 62.0372C95.0351 61.9711 95.0502 61.8994 95.0498 61.827C95.0445 61.6563 94.9959 61.4898 94.9088 61.343C94.8104 61.1539 94.6702 60.9897 94.4988 60.863C94.3118 60.715 94.0618 60.586 93.7718 60.492C93.4818 60.398 93.1388 60.363 92.7448 60.363H92.7428ZM101.212 60.363C101.025 60.363 100.868 60.414 100.751 60.543C100.622 60.668 100.567 60.848 100.567 61.098V65.825C100.567 66.071 100.63 66.251 100.751 66.376C100.872 66.501 101.024 66.564 101.212 66.564C101.4 66.564 101.571 66.509 101.696 66.388C101.813 66.263 101.872 66.079 101.872 65.826V61.099C101.872 60.849 101.813 60.662 101.696 60.544C101.571 60.415 101.403 60.364 101.212 60.364V60.363ZM110.243 60.363C109.755 60.363 109.313 60.426 108.923 60.582C108.552 60.7092 108.215 60.9172 107.935 61.191C107.661 61.4711 107.451 61.8067 107.318 62.175C107.181 62.566 107.107 62.988 107.107 63.445C107.107 63.902 107.17 64.316 107.302 64.703C107.434 65.09 107.646 65.422 107.907 65.699C108.192 65.9815 108.534 66.2 108.911 66.34C109.309 66.488 109.763 66.563 110.27 66.563C110.73 66.5712 111.188 66.4956 111.622 66.34C112.013 66.199 112.349 65.985 112.618 65.707C112.891 65.422 113.087 65.098 113.223 64.719C113.359 64.34 113.426 63.91 113.426 63.453C113.426 62.824 113.301 62.281 113.055 61.808C112.81 61.3475 112.43 60.9738 111.965 60.738L111.879 60.695L111.785 60.656L111.683 60.609L111.589 60.566L111.487 60.535L111.385 60.512L111.276 60.473L111.178 60.45L111.069 60.434L110.956 60.414L110.839 60.394L110.726 60.386L110.613 60.366H110.492L110.363 60.362L110.243 60.363ZM119.403 60.363C119.256 60.3563 119.11 60.3943 118.985 60.472C118.86 60.5405 118.76 60.6474 118.7 60.777C118.645 60.886 118.634 61.043 118.634 61.242V65.867C118.634 66.094 118.685 66.269 118.802 66.387C118.911 66.508 119.068 66.563 119.247 66.563C119.426 66.563 119.575 66.508 119.692 66.387C119.809 66.266 119.86 66.102 119.86 65.867V62.344L122.329 65.848L122.536 66.125C122.61 66.219 122.684 66.301 122.766 66.367C122.848 66.433 122.938 66.484 123.028 66.515C123.13 66.546 123.237 66.5618 123.344 66.562C123.813 66.562 124.051 66.304 124.051 65.773V61.058C124.051 60.82 123.996 60.64 123.887 60.527C123.778 60.414 123.633 60.363 123.446 60.363C123.266 60.363 123.122 60.414 123.016 60.527C122.91 60.64 122.852 60.82 122.852 61.058V64.624L120.329 61.085L120.122 60.784L119.927 60.546C119.861 60.489 119.785 60.444 119.704 60.413C119.608 60.3761 119.506 60.3587 119.403 60.362V60.363ZM70.4338 60.461C70.3241 60.4701 70.2163 60.495 70.1138 60.535C69.9996 60.5821 69.9055 60.6677 69.8478 60.777C69.7858 60.886 69.7618 61.031 69.7618 61.207V65.715C69.7618 65.973 69.8248 66.168 69.9498 66.285C70.0748 66.402 70.2898 66.461 70.5708 66.461H74.1368C74.3358 66.461 74.4848 66.41 74.5938 66.324C74.7028 66.238 74.7458 66.125 74.7458 65.984C74.7497 65.9175 74.738 65.8511 74.7116 65.7899C74.6852 65.7288 74.6449 65.6747 74.5938 65.632C74.4848 65.55 74.3358 65.507 74.1368 65.507H71.0818V63.788H73.7928C73.9998 63.788 74.1518 63.745 74.2418 63.667C74.2884 63.6247 74.3253 63.5727 74.3496 63.5147C74.374 63.4566 74.3853 63.3939 74.3828 63.331C74.3828 63.19 74.3438 63.081 74.2418 62.995C74.1398 62.909 73.9918 62.87 73.7928 62.87H71.0818V61.393H74.0268C74.2458 61.393 74.3818 61.35 74.4918 61.268C74.5411 61.2261 74.5807 61.174 74.6079 61.1153C74.6351 61.0566 74.6491 60.9927 74.6491 60.928C74.6491 60.8633 74.6351 60.7994 74.6079 60.7407C74.5807 60.682 74.5411 60.6299 74.4918 60.588C74.3828 60.498 74.2458 60.459 74.0268 60.459H70.5698C70.5228 60.459 70.4758 60.455 70.4328 60.459L70.4338 60.461ZM80.6488 60.461C80.3598 60.461 80.1568 60.52 80.0318 60.637C79.9068 60.754 79.8408 60.942 79.8408 61.207V65.824C79.8408 66.07 79.8998 66.25 80.0168 66.375C80.1338 66.5 80.2938 66.563 80.5008 66.563C80.6918 66.563 80.8558 66.508 80.9738 66.387C81.0988 66.262 81.1538 66.078 81.1538 65.825V63.895H81.6108C81.8378 63.895 82.0368 63.922 82.1928 63.985C82.3488 64.048 82.4898 64.145 82.6418 64.301C82.8314 64.5113 83.0027 64.7375 83.1538 64.977L83.6738 65.793L83.9628 66.227C84.0346 66.3202 84.1202 66.4018 84.2168 66.469C84.3313 66.5364 84.463 66.569 84.5958 66.563C84.7087 66.5656 84.8207 66.5431 84.9238 66.497C85.0111 66.4567 85.0855 66.393 85.1388 66.313C85.1908 66.246 85.2196 66.1638 85.2208 66.079C85.2208 65.997 85.1738 65.86 85.0838 65.657C84.9938 65.454 84.8568 65.231 84.6928 64.977C84.5288 64.723 84.3448 64.485 84.1308 64.258C83.9406 64.052 83.7176 63.879 83.4708 63.746C84.0218 63.637 84.4238 63.453 84.6938 63.18C84.9748 62.918 85.1038 62.555 85.1038 62.114C85.1038 61.895 85.0648 61.684 84.9828 61.493C84.9083 61.2975 84.7892 61.1222 84.6348 60.981C84.4797 60.8279 84.293 60.7105 84.0878 60.637C83.9086 60.5643 83.7207 60.5156 83.5288 60.492L82.7828 60.461H80.6488ZM110.243 61.316C110.614 61.316 110.938 61.402 111.22 61.57C111.509 61.726 111.72 61.968 111.865 62.297L111.892 62.352L111.919 62.426L111.946 62.489L111.973 62.548L111.993 62.618L112.013 62.677L112.029 62.763L112.041 62.826L112.053 62.896L112.069 62.974L112.077 63.052L112.081 63.13L112.097 63.2V63.286L112.105 63.356V63.446C112.105 63.923 112.019 64.325 111.847 64.653C111.702 64.9524 111.473 65.2024 111.187 65.372C110.903 65.5272 110.584 65.6077 110.261 65.606C110.013 65.6098 109.767 65.5631 109.538 65.469C109.319 65.3745 109.123 65.2363 108.96 65.063C108.796 64.887 108.659 64.653 108.569 64.376C108.479 64.099 108.428 63.79 108.428 63.446C108.428 63.114 108.479 62.801 108.569 62.52C108.659 62.254 108.792 62.032 108.952 61.856C109.112 61.68 109.304 61.544 109.518 61.446C109.745 61.356 109.983 61.317 110.245 61.317L110.243 61.316ZM81.1528 61.367H82.3638C82.8088 61.367 83.1138 61.398 83.2658 61.453C83.4177 61.5102 83.5494 61.6107 83.6448 61.742C83.7348 61.867 83.7858 62.015 83.7858 62.183C83.7858 62.402 83.7268 62.574 83.6098 62.687C83.5008 62.82 83.3288 62.894 83.1138 62.949C82.8545 63.0047 82.59 63.0322 82.3248 63.031H81.1528V61.367Z" fill="#999999"/>
<path d="M25.9528 57.266V58.274H125.777V57.266H25.9528ZM25.9528 69.196V70.208H125.777V69.196H25.9528ZM0.589844 55.484V61.371C3.82384 60.105 8.14484 58.84 13.5778 57.559C16.9255 56.7706 20.2953 56.079 23.6828 55.485L0.589844 55.484ZM24.5118 56.742C21.3598 57.18 18.5318 57.699 16.0428 58.281C13.1948 58.953 10.9018 59.633 9.16784 60.324C7.42984 61 6.62484 61.551 6.73784 61.969C6.83984 62.344 7.56584 62.516 8.92184 62.477C9.62084 62.473 10.7498 62.399 12.3168 62.27L18.3908 61.704C20.4277 61.5002 22.4684 61.3375 24.5118 61.216V56.742ZM17.5078 64.203C16.8128 64.211 15.8518 64.262 14.6208 64.348L10.0308 64.735L2.95284 65.391L0.589844 65.539V70.309C4.31684 69.801 7.68784 69.188 10.6918 68.485C13.6448 67.79 15.9148 67.114 17.5078 66.458C19.1008 65.802 19.8518 65.251 19.7268 64.798C19.6248 64.411 18.8748 64.216 17.5078 64.204V64.203ZM24.5118 65.879C21.2388 67.082 17.1758 68.262 12.3168 69.402C7.79684 70.465 3.89084 71.23 0.589844 71.699V71.738H24.5118V65.879ZM1.58984 66.879C1.60184 66.875 1.60984 66.879 1.62084 66.879C1.68384 66.879 1.74984 66.899 1.79284 66.945C1.85584 67.004 1.87084 67.105 1.83584 67.183C1.81187 67.2278 1.77448 67.2639 1.72893 67.2863C1.68337 67.3087 1.63193 67.3163 1.58184 67.308C1.46484 67.292 1.37484 67.187 1.38684 67.078C1.39084 66.976 1.48084 66.891 1.58984 66.879ZM2.43784 66.879C2.48884 66.879 2.53984 66.891 2.57884 66.93C2.65684 66.985 2.68384 67.09 2.64884 67.172C2.63064 67.2173 2.59861 67.2557 2.55731 67.2817C2.51602 67.3078 2.46756 67.3201 2.41884 67.317C2.37714 67.3153 2.33658 67.3029 2.30104 67.281C2.2655 67.2591 2.23616 67.2285 2.21584 67.192C2.19298 67.142 2.18997 67.0851 2.20742 67.033C2.22487 66.9808 2.26148 66.9372 2.30984 66.911C2.34974 66.8905 2.39398 66.8799 2.43884 66.88L2.43784 66.879ZM1.62184 68.285C1.67029 68.2836 1.71793 68.2976 1.75798 68.3249C1.79803 68.3522 1.82843 68.3914 1.84484 68.437C1.85942 68.4874 1.85519 68.5413 1.83292 68.5888C1.81066 68.6363 1.77189 68.674 1.72384 68.695C1.62584 68.746 1.49384 68.715 1.43084 68.625C1.36784 68.535 1.37184 68.41 1.46184 68.34C1.50655 68.3025 1.56355 68.2829 1.62184 68.285ZM2.43784 68.285C2.47577 68.2841 2.51329 68.293 2.54676 68.3109C2.58023 68.3288 2.6085 68.355 2.62884 68.387C2.64419 68.4094 2.65486 68.4347 2.66021 68.4614C2.66555 68.488 2.66547 68.5154 2.65996 68.5421C2.65445 68.5687 2.64363 68.5939 2.62815 68.6162C2.61266 68.6385 2.59283 68.6575 2.56984 68.672C2.47584 68.742 2.32384 68.731 2.24984 68.641C2.23072 68.6191 2.21613 68.5936 2.20692 68.566C2.19772 68.5384 2.19408 68.5092 2.19622 68.4802C2.19836 68.4512 2.20623 68.4229 2.21938 68.3969C2.23254 68.371 2.25071 68.3479 2.27284 68.329C2.32196 68.2985 2.3791 68.2836 2.43684 68.286L2.43784 68.285Z" fill="#809CC8"/>
</svg>
