<svg width="128" height="128" viewBox="0 0 128 128" fill="none" xmlns="http://www.w3.org/2000/svg">
<path d="M0 17V50.574C17.301 43.371 40.414 36.133 69.504 28.824C88.145 24.152 106.16 20.223 123.559 17H0ZM128 24.16C111.133 26.664 96.004 29.617 82.691 32.949C67.449 36.777 55.179 40.648 45.898 44.594C36.605 48.469 32.289 51.602 32.894 54.02C33.441 56.149 37.332 57.118 44.585 56.918C48.315 56.848 54.362 56.438 62.753 55.695L95.241 52.476C108.386 51.121 119.272 50.203 127.999 49.667L128 24.16ZM90.527 66.75C86.797 66.797 81.656 67.082 75.078 67.566C68.476 68.058 60.308 68.773 50.519 69.785L12.641 73.5C7.825 73.906 3.645 74.16 0 74.363V101.593C19.938 98.679 37.973 95.202 54.055 91.171C69.852 87.214 81.996 83.351 90.528 79.616C99.075 75.882 103.063 72.714 102.399 70.147C101.844 67.932 97.84 66.807 90.528 66.749L90.527 66.75ZM128 76.309C110.48 83.172 88.734 89.907 62.754 96.43C38.566 102.492 17.672 106.832 0 109.523V109.75H128V76.309ZM5.348 82.02C5.411 82.012 5.461 82.02 5.528 82.02C5.86 82.032 6.212 82.133 6.434 82.383C6.61237 82.5749 6.72594 82.8179 6.75868 83.0779C6.79141 83.3378 6.74165 83.6014 6.61643 83.8316C6.4912 84.0617 6.29684 84.2466 6.0608 84.3603C5.82477 84.4739 5.55898 84.5106 5.301 84.465C4.684 84.375 4.207 83.77 4.258 83.153C4.278 82.571 4.77 82.091 5.348 82.02ZM9.879 82.02C10.168 82.032 10.434 82.09 10.649 82.293C10.8476 82.4601 10.9892 82.6848 11.0542 82.9361C11.1193 83.1873 11.1045 83.4525 11.012 83.695C10.825 84.191 10.321 84.558 9.785 84.511C9.328 84.491 8.879 84.206 8.699 83.784C8.449 83.237 8.652 82.499 9.199 82.198C9.402 82.077 9.64 82.014 9.879 82.018V82.02ZM5.527 90.04C6.066 90.024 6.55 90.403 6.707 90.899C6.871 91.454 6.609 92.153 6.07 92.395C5.531 92.665 4.824 92.497 4.484 91.989C4.14 91.493 4.187 90.747 4.668 90.356C4.902 90.149 5.215 90.032 5.527 90.04ZM9.879 90.04C10.309 90.017 10.688 90.29 10.918 90.63C11.0782 90.892 11.1345 91.2044 11.0761 91.5058C11.0176 91.8073 10.8485 92.0759 10.602 92.259C10.09 92.65 9.29 92.583 8.879 92.079C8.457 91.575 8.488 90.72 9.016 90.313C9.246 90.122 9.579 90.032 9.879 90.04Z" fill="#809CC8"/>
</svg>
