<svg width="128" height="128" viewBox="0 0 128 128" fill="none" xmlns="http://www.w3.org/2000/svg">
<path d="M110.293 16.914C98.5859 -0.0860004 75.6679 -5 58.0199 5.707L28.1639 24.687C24.1287 27.2149 20.6706 30.5637 18.0143 34.5155C15.358 38.4674 13.563 42.934 12.7459 47.625C11.2959 55.5075 12.5526 63.6486 16.3119 70.727C13.7434 74.5881 12.0172 78.9472 11.2459 83.52C10.4015 88.2885 10.514 93.1773 11.5769 97.9019C12.6398 102.627 14.6318 107.093 17.4369 111.04C29.1639 128 52.0199 132.937 69.7069 122.352L99.5859 103.352C103.606 100.814 107.049 97.4609 109.694 93.51C112.339 89.5592 114.126 85.098 114.941 80.414C116.374 72.5558 115.11 64.4439 111.355 57.394C119.293 44.938 118.875 28.914 110.293 16.914ZM55.0389 112.687C50.3496 113.906 45.399 113.655 40.8571 111.968C36.3153 110.28 32.4013 107.239 29.6449 103.254C26.1839 98.461 24.9149 92.543 25.9149 86.668L26.4999 83.836L27.0399 82.086L28.6449 83.148C32.1649 85.816 36.1049 87.73 40.3129 89.023L41.3949 89.398L41.2729 90.465C41.1679 91.945 41.6049 93.609 42.4609 94.879C44.2109 97.399 47.2539 98.609 50.1879 97.816C50.8319 97.609 51.4609 97.398 51.9999 97.062L81.7539 78.086C83.2539 77.125 84.2109 75.688 84.5859 73.98C84.9139 72.207 84.4799 70.395 83.5199 68.96C81.7459 66.5 78.7269 65.395 75.7929 66.129C75.1479 66.355 74.4609 66.609 73.9139 66.941L62.6639 74.086C52.0199 80.414 38.2699 77.441 31.2039 67.254C29.5022 64.8802 28.2937 62.1895 27.6496 59.3407C27.0055 56.4919 26.9389 53.5429 27.4539 50.668C27.97 47.8218 29.0785 45.1159 30.7075 42.7256C32.3365 40.3354 34.4496 38.3142 36.9099 36.793L66.6019 17.813C68.4769 16.645 70.4959 15.793 72.6839 15.145C82.2889 12.645 92.4099 16.415 98.0779 24.539C100.051 27.3167 101.352 30.5143 101.88 33.8802C102.408 37.2461 102.148 40.6886 101.121 43.937L100.578 45.707L99.0389 44.645C95.4856 42.0452 91.5217 40.0593 87.3119 38.77L86.2459 38.457L86.3519 37.391C86.4569 35.828 86.0199 34.184 85.1639 32.911C83.4099 30.391 80.3709 29.328 77.4369 30.078C76.7929 30.289 76.1639 30.496 75.6249 30.832L45.8119 49.977C44.3119 50.977 43.3519 52.371 43.0389 54.121C42.7269 55.828 43.1449 57.703 44.1049 59.078C45.8129 61.602 48.9149 62.664 51.7929 61.91C52.4799 61.703 53.1249 61.496 53.6479 61.16L65.0229 53.906C66.8789 52.68 68.9609 51.786 71.0899 51.199C80.7579 48.679 90.8399 52.473 96.4839 60.637C99.9449 65.43 101.277 71.344 100.316 77.157C99.8234 79.9957 98.7377 82.6987 97.1297 85.0894C95.5217 87.48 93.4275 89.5046 90.9839 91.031L61.2299 109.97C59.295 111.139 57.2149 112.049 55.0429 112.677L55.0389 112.687Z" fill="black"/>
</svg>
