<svg width="128" height="128" viewBox="0 0 128 128" fill="none" xmlns="http://www.w3.org/2000/svg">
<path d="M85.1048 37.781C78.9488 30.281 66.8948 28.113 57.6088 32.836L41.9058 41.21C37.6088 43.472 34.6598 47.147 33.7958 51.331C33.0268 54.804 33.6958 58.397 35.6718 61.522C34.3198 63.226 33.4138 65.144 33.0078 67.167C32.1088 71.413 33.2808 75.788 36.2618 79.311C42.4298 86.792 54.4528 88.971 63.7578 84.3L79.4728 75.917C83.7458 73.655 86.6828 69.979 87.5508 65.8C88.3088 62.331 87.6408 58.749 85.6678 55.64C89.8398 50.144 89.6208 43.073 85.1048 37.78V37.781ZM56.0428 80.04C50.9928 81.142 45.6528 79.478 42.6828 75.876C40.8628 73.763 40.1948 71.149 40.7228 68.56L41.0308 67.31L41.3128 66.536L42.1558 67.005C44.0078 68.181 46.0818 69.028 48.2928 69.599L48.8628 69.763L48.8008 70.231C48.7458 70.888 48.9768 71.622 49.4258 72.181C50.3478 73.294 51.9458 73.825 53.4878 73.478C53.8278 73.384 54.1598 73.294 54.4408 73.146L70.0938 64.771C70.8828 64.349 71.3868 63.711 71.5818 62.961C71.7578 62.177 71.5268 61.38 71.0228 60.747C70.0898 59.661 68.5028 59.173 66.9568 59.497C66.6208 59.595 66.2568 59.708 65.9728 59.853L60.0548 63.005C54.4528 65.802 47.2188 64.485 43.5038 59.993C41.6948 57.876 40.9838 55.239 41.5308 52.673C42.0778 50.138 43.8868 47.911 46.5078 46.552L62.1248 38.177C63.1088 37.661 64.1718 37.287 65.3248 37.001C70.3748 35.896 75.6988 37.564 78.6838 41.146C80.7848 43.626 81.3788 46.798 80.2808 49.704L79.9958 50.485L79.1878 50.017C77.2717 48.8514 75.193 47.9772 73.0198 47.423L72.4568 47.286L72.5118 46.817C72.5608 46.103 72.3375 45.3969 71.8868 44.841C70.9688 43.728 69.3668 43.259 67.8238 43.591C67.4838 43.681 67.1518 43.774 66.8708 43.923L51.1878 52.368C50.3978 52.81 49.8948 53.427 49.7298 54.196C49.5658 54.95 49.7848 55.778 50.2898 56.388C51.1878 57.498 52.8198 57.966 54.3318 57.634C54.6948 57.544 55.0348 57.45 55.3088 57.306L61.2928 54.103C62.2698 53.563 63.3628 53.165 64.4838 52.907C69.5698 51.797 74.8748 53.47 77.8438 57.071C79.6638 59.188 80.3638 61.798 79.8588 64.361C79.3318 66.899 77.5468 69.122 74.9488 70.485L59.3008 78.84C58.2808 79.352 57.1838 79.758 56.0428 80.031V80.04Z" fill="#FF3E00"/>
<path d="M37.6911 102.574C36.2541 102.574 35.1801 102.254 34.4691 101.609C33.7581 100.965 33.3871 100.137 33.3521 99.129H34.648C34.718 99.887 35.0311 100.449 35.5941 100.816C36.1561 101.18 36.84 101.359 37.633 101.359C38.391 101.359 38.996 101.203 39.453 100.895C39.918 100.582 40.148 100.16 40.148 99.629C40.148 99.07 39.91 98.66 39.434 98.406C38.957 98.152 38.1331 97.902 36.9691 97.656C35.8051 97.406 34.969 97.062 34.461 96.621C33.957 96.184 33.703 95.598 33.703 94.863C33.703 94.043 34.0311 93.363 34.6911 92.836C35.3511 92.309 36.231 92.046 37.321 92.046C38.469 92.046 39.3951 92.312 40.1011 92.844C40.8051 93.375 41.1761 94.129 41.2191 95.102H39.906C39.77 93.872 38.9301 93.254 37.3791 93.254C36.6291 93.254 36.047 93.394 35.633 93.68C35.223 93.96 35.016 94.336 35.016 94.805C35.016 95.23 35.18 95.547 35.508 95.762C35.844 95.972 36.461 96.18 37.363 96.379C38.27 96.579 38.993 96.773 39.523 96.969C40.055 97.164 40.512 97.469 40.891 97.879C41.27 98.285 41.461 98.836 41.461 99.523C41.461 100.398 41.1131 101.125 40.4141 101.707C39.7191 102.285 38.8121 102.574 37.6911 102.574ZM51.586 92.22L47.6291 102.4H46.239L42.281 92.22H43.7191L46.934 100.95L50.148 92.22H51.586ZM60.4141 102.4H52.8241V92.22H60.176V93.427H54.168V96.54H59.7891V97.747H54.168V101.192H60.4141V102.4ZM68.6051 102.4H62.3101V92.22H63.6571V101.192H68.6071L68.6051 102.4ZM77.461 93.427H74.0941V102.399H72.738V93.427H69.3981V92.22H77.461V93.427ZM86.5081 102.399H78.918V92.219H86.2731V93.427H80.266V96.54H85.8831V97.747H80.266V101.192H86.5081V102.399Z" fill="#797878"/>
</svg>
