<svg width="128" height="128" viewBox="0 0 128 128" fill="none" xmlns="http://www.w3.org/2000/svg">
<path d="M126.33 34.06C126.329 31.4301 126.065 28.807 125.54 26.23C125.015 23.5919 124.123 21.0404 122.89 18.65C121.601 16.3346 120 14.208 118.13 12.33C116.202 10.4434 113.962 8.90408 111.51 7.77999C109.09 6.55969 106.502 5.70699 103.83 5.24999C101.18 4.73999 98.2702 4.73999 95.6202 4.48999H30.2502C28.2111 4.52319 26.1765 4.69358 24.1602 4.99999C22.1593 5.23554 20.2007 5.74707 18.3402 6.51999C17.8102 6.76999 17.0202 7.02999 16.4902 7.27999C14.7299 8.22355 13.0567 9.32117 11.4902 10.56C10.9602 11.07 10.4302 11.32 9.9002 11.82C7.95126 13.6277 6.33947 15.7677 5.1402 18.14C3.83052 20.4968 2.93423 23.0605 2.4902 25.72C2.09612 28.3151 1.83245 30.9284 1.7002 33.55V93.94C1.70102 96.5698 1.96568 99.193 2.4902 101.77C3.01498 104.408 3.90699 106.96 5.1402 109.35C6.42898 111.665 8.03072 113.792 9.9002 115.67C11.8284 117.557 14.068 119.096 16.5202 120.22C18.9402 121.44 21.5287 122.293 24.2002 122.75C26.8502 123.26 29.7602 123.26 32.4102 123.51H95.6302C98.3843 123.508 101.132 123.254 103.84 122.75C106.512 122.293 109.1 121.44 111.52 120.22C113.92 119.006 116.147 117.475 118.14 115.67C120.089 113.862 121.701 111.722 122.9 109.35C124.21 106.993 125.106 104.429 125.55 101.77C125.944 99.1748 126.208 96.5616 126.34 93.94V34.06H126.33Z" fill="#F05138"/>
<path d="M84.9998 96.5C73.8898 102.63 58.6198 103.26 43.2498 96.97C31.266 92.1076 21.0197 83.7566 13.8398 73C17.1766 75.5542 20.822 77.6776 24.6898 79.32C40.5598 86.42 56.4198 85.93 67.5898 79.32C51.6898 67.66 38.1898 52.5 28.1298 40.12C26.1446 38.0278 24.3726 35.7432 22.8398 33.3C34.9998 43.91 54.3398 57.3 61.2198 61.09C51.3966 51.0249 42.3695 40.2124 34.2198 28.75C47.7669 41.9149 62.6739 53.6037 78.6898 63.62C79.3998 64 79.9498 64.32 80.3898 64.62C80.8593 63.4739 81.2633 62.302 81.5998 61.11C85.3098 48.22 81.0698 33.57 71.8098 21.44C93.2498 33.81 106 57.05 100.66 76.51C100.52 77.04 100.37 77.51 100.21 78.06L100.4 78.28C110.99 90.91 108.08 104.28 106.75 101.78C101 91 90.3699 94.33 84.9998 96.5Z" fill="#FEFEFE"/>
</svg>
