<svg width="128" height="128" viewBox="0 0 128 128" fill="none" xmlns="http://www.w3.org/2000/svg">
<path d="M37.35 54C37.3498 53.2408 37.2728 52.4836 37.12 51.74C36.8362 50.2135 36.0808 48.8145 34.96 47.74C34.3907 47.1788 33.7273 46.7218 33 46.39C32.2935 46.0375 31.5386 45.7915 30.76 45.66C29.99 45.51 29.14 45.51 28.37 45.44H9.35C8.75733 45.4507 8.16602 45.5008 7.58 45.59C6.99583 45.658 6.4238 45.806 5.88 46.03C5.73 46.1 5.49 46.18 5.34 46.25C4.82281 46.5225 4.33087 46.8404 3.87 47.2C3.72 47.35 3.56 47.42 3.41 47.56C2.83497 48.0775 2.35741 48.6939 2 49.38C1.61916 50.0602 1.35866 50.8011 1.23 51.57C1.11556 52.3157 1.0388 53.0666 1 53.82V71.25C1.00015 72.0092 1.07721 72.7664 1.23 73.51C1.51377 75.0365 2.26923 76.4355 3.39 77.51C3.95346 78.0541 4.60631 78.4972 5.32 78.82C6.02655 79.1726 6.7814 79.4186 7.56 79.55C8.33 79.7 9.18 79.7 9.95 79.77H28.41C29.2117 79.7691 30.0116 79.6954 30.8 79.55C31.5644 79.4179 32.3055 79.1754 33 78.83C33.7233 78.4866 34.3962 78.0458 35 77.52C35.5679 77.0008 36.0386 76.3845 36.39 75.7C36.7708 75.0198 37.0313 74.2789 37.16 73.51C37.2748 72.761 37.3515 72.0067 37.39 71.25V54H37.35Z" fill="#F05138"/>
<path d="M25.2998 72C22.0598 73.77 17.6098 73.95 13.1398 72.14C9.65271 70.7369 6.66717 68.3192 4.56982 65.2C5.5472 65.93 6.61215 66.5347 7.73982 67C12.3598 69 16.9898 68.91 20.2398 67C15.9498 63.7357 12.0863 59.9461 8.73982 55.72C8.16063 55.1067 7.64469 54.4367 7.19982 53.72C10.7139 56.6719 14.4518 59.3466 18.3798 61.72C15.5186 58.8187 12.8873 55.6993 10.5098 52.39C14.4751 56.1937 18.8328 59.5659 23.5098 62.45L24.0098 62.73C24.1452 62.4035 24.2621 62.0697 24.3598 61.73C25.4398 58.01 24.2098 53.78 21.5098 50.28C27.7598 53.85 31.4598 60.56 29.9198 66.18C29.9198 66.33 29.8398 66.48 29.7898 66.63L29.8398 66.69C32.9298 70.34 32.0798 74.2 31.6898 73.47C29.9998 70.42 26.8698 71.36 25.2998 72Z" fill="#FEFEFE"/>
<path d="M119.34 60.31H110.39V59.22C110.39 58.35 110.47 57.47 110.54 56.6C110.598 55.8359 110.809 55.0912 111.16 54.41C111.472 53.8243 111.921 53.3232 112.47 52.95C113.174 52.5522 113.972 52.3519 114.78 52.37C115.274 52.3714 115.766 52.4217 116.25 52.52C116.64 52.67 116.94 52.74 117.25 52.88L117.87 51.42C117.474 51.2368 117.062 51.0896 116.64 50.98C116.087 50.8257 115.514 50.7516 114.94 50.76C113.872 50.7262 112.811 50.9527 111.85 51.42C111.027 51.8601 110.315 52.4827 109.77 53.24C109.262 54.0734 108.897 54.986 108.69 55.94C108.466 57.0422 108.362 58.1654 108.38 59.29V60.38H105.45V61.84H108.38V79.49H110.38V61.77H119.33V73.87C119.323 74.6791 119.4 75.4868 119.56 76.28C119.649 76.9559 119.885 77.6043 120.25 78.18C120.58 78.722 121.064 79.1536 121.64 79.42C122.368 79.7342 123.157 79.8845 123.95 79.86C124.87 79.8958 125.788 79.7462 126.65 79.42L126.44 78C126.134 78.0909 125.824 78.1644 125.51 78.22C125.076 78.2843 124.638 78.3077 124.2 78.29C123.772 78.3289 123.342 78.2574 122.949 78.0823C122.557 77.9072 122.217 77.6344 121.96 77.29C121.511 76.3844 121.297 75.38 121.34 74.37V61.84H127V60.39H121.37V56.16L119.37 56.74L119.34 60.31ZM49.4999 76.57C50.354 77.1299 51.2927 77.5486 52.2799 77.81C53.3574 78.1336 54.4749 78.3053 55.5999 78.32C57.378 78.429 59.1347 77.8849 60.5399 76.79C61.1078 76.2918 61.5603 75.6759 61.8659 74.9851C62.1716 74.2944 62.3231 73.5453 62.3099 72.79C62.3614 71.4256 61.8932 70.0925 60.9999 69.06C59.7687 67.8814 58.2941 66.9871 56.6799 66.44C54.7621 65.8504 52.9808 64.8849 51.4399 63.6C50.8058 63.0347 50.3041 62.3366 49.9705 61.5553C49.637 60.7741 49.4797 59.9289 49.5099 59.08C49.5147 58.1453 49.7264 57.2232 50.1299 56.38C50.5436 55.566 51.1226 54.8474 51.8299 54.27C52.5734 53.6335 53.4421 53.16 54.3799 52.88C55.4217 52.5214 56.5184 52.3488 57.6199 52.37C58.7599 52.3608 59.8973 52.4816 61.0099 52.73C61.7314 52.9167 62.4292 53.1851 63.0899 53.53L62.3199 55.13C61.7436 54.7783 61.1209 54.509 60.4699 54.33C59.5008 54.0197 58.4873 53.871 57.4699 53.89C56.5011 53.8628 55.5354 54.0119 54.6199 54.33C53.9071 54.5857 53.2539 54.9838 52.6999 55.5C52.2703 55.9668 51.9312 56.5093 51.6999 57.1C51.4852 57.6336 51.3798 58.2049 51.3899 58.78C51.361 59.4389 51.4697 60.0967 51.709 60.7113C51.9483 61.326 52.313 61.884 52.7799 62.35C54.086 63.4338 55.5764 64.2739 57.1799 64.83C58.2216 65.2258 59.2257 65.7144 60.1799 66.29C60.9853 66.7786 61.7362 67.3519 62.4199 68C62.9894 68.5695 63.4353 69.2504 63.7299 70C64.0435 70.8375 64.1995 71.7258 64.1899 72.62C64.1973 73.5929 64.0139 74.5577 63.6499 75.46C63.2856 76.3585 62.7213 77.1622 61.9999 77.81C61.1833 78.5151 60.2398 79.0581 59.2199 79.41C57.9729 79.8099 56.6694 80.0058 55.3599 79.99C54.7408 79.9762 54.1231 79.9261 53.5099 79.84C52.8869 79.7551 52.2693 79.6349 51.6599 79.48C51.0789 79.3316 50.5105 79.1376 49.9599 78.9C49.5009 78.7274 49.0617 78.5062 48.6499 78.24L49.4999 76.57ZM67.9999 60.39L71.3199 71.25C71.6299 72.34 71.9399 73.44 72.2499 74.39C72.5599 75.34 72.7899 76.39 73.0199 77.23H73.1699C73.3999 76.36 73.7099 75.41 74.0199 74.39C74.3299 73.37 74.7099 72.39 75.0999 71.25L78.9999 60.39H80.8499L84.6299 71.1C85.0199 72.27 85.3999 73.36 85.7099 74.38C86.0199 75.4 86.3299 76.38 86.5599 77.22H86.7099C86.9399 76.27 87.1699 75.32 87.4799 74.38C87.7899 73.44 88.0999 72.38 88.4799 71.17L91.9999 60.39H93.9999L87.3699 79.49H85.7899L81.9999 68.84C81.6132 67.6733 81.2266 66.58 80.8399 65.56C80.5299 64.56 80.2199 63.45 79.9899 62.35H79.9099C79.6324 63.4596 79.2986 64.5543 78.9099 65.63C78.5232 66.65 78.1366 67.7433 77.7499 68.91L73.8299 79.49H72.1299L65.9999 60.39H67.9999ZM98.3099 60.39H100.31V79.49H98.3099V60.39ZM97.5399 54.56C97.5371 54.3369 97.5794 54.1156 97.6641 53.9092C97.7488 53.7028 97.8743 53.5156 98.0329 53.3588C98.1916 53.202 98.3803 53.0787 98.5877 52.9965C98.795 52.9142 99.0169 52.8746 99.2399 52.88C99.6887 52.8888 100.118 53.065 100.444 53.3739C100.769 53.6829 100.968 54.1023 101 54.55C101.002 54.7728 100.954 54.9932 100.861 55.1955C100.768 55.3978 100.631 55.5769 100.46 55.72C100.119 56.0147 99.6804 56.1715 99.2299 56.16C98.7822 56.1551 98.3491 56.0002 97.9999 55.72C97.6943 55.4061 97.5192 54.988 97.5099 54.55L97.5399 54.56Z" fill="#221F20"/>
</svg>
