<svg width="128" height="128" viewBox="0 0 128 128" fill="none" xmlns="http://www.w3.org/2000/svg">
<path d="M119.34 61.59H110.39V60.5C110.39 59.63 110.47 58.75 110.54 57.88C110.598 57.1159 110.809 56.3712 111.16 55.69C111.472 55.1043 111.921 54.6032 112.47 54.23C113.174 53.8322 113.972 53.6318 114.78 53.65C115.274 53.6514 115.766 53.7017 116.25 53.8C116.64 53.95 116.94 54.02 117.25 54.16L117.87 52.7C117.474 52.5168 117.062 52.3695 116.64 52.26C116.087 52.1057 115.514 52.0316 114.94 52.04C113.872 52.0062 112.811 52.2327 111.85 52.7C111.027 53.1401 110.315 53.7626 109.77 54.52C109.262 55.3534 108.897 56.266 108.69 57.22C108.466 58.3222 108.362 59.4454 108.38 60.57V61.66H105.45V63.12H108.38V80.77H110.38V63.05H119.33V75.15C119.323 75.9591 119.4 76.7668 119.56 77.56C119.649 78.2359 119.885 78.8843 120.25 79.46C120.58 80.002 121.064 80.4336 121.64 80.7C122.368 81.0142 123.157 81.1645 123.95 81.14C124.87 81.1758 125.788 81.0262 126.65 80.7L126.42 79.24C126.114 79.3309 125.804 79.4044 125.49 79.46C125.056 79.5243 124.618 79.5477 124.18 79.53C123.752 79.5689 123.322 79.4974 122.929 79.3223C122.537 79.1472 122.197 78.8744 121.94 78.53C121.491 77.6244 121.277 76.62 121.32 75.61V63.12H127V61.67H121.37V57.44L119.37 58.02L119.34 61.59ZM49.4999 77.85C50.354 78.4099 51.2927 78.8286 52.2799 79.09C53.3574 79.4136 54.4749 79.5853 55.5999 79.6C57.378 79.709 59.1347 79.1649 60.5399 78.07C61.1078 77.5718 61.5603 76.9559 61.8659 76.2651C62.1716 75.5744 62.3231 74.8253 62.3099 74.07C62.3614 72.7056 61.8932 71.3725 60.9999 70.34C59.7687 69.1614 58.2941 68.2671 56.6799 67.72C54.7621 67.1304 52.9808 66.1649 51.4399 64.88C50.8058 64.3147 50.3041 63.6166 49.9705 62.8353C49.637 62.0541 49.4797 61.2089 49.5099 60.36C49.5147 59.4252 49.7264 58.5032 50.1299 57.66C50.5436 56.846 51.1226 56.1273 51.8299 55.55C52.5734 54.9135 53.4421 54.44 54.3799 54.16C55.4217 53.8014 56.5184 53.6288 57.6199 53.65C58.7562 53.6382 59.8901 53.7557 60.9999 54C61.7214 54.1867 62.4192 54.4551 63.0799 54.8L62.3099 56.4C61.7336 56.0482 61.1109 55.779 60.4599 55.6C59.4908 55.2897 58.4773 55.141 57.4599 55.16C56.4911 55.1328 55.5254 55.2819 54.6099 55.6C53.922 55.864 53.2933 56.2617 52.7599 56.77C52.3303 57.2368 51.9912 57.7793 51.7599 58.37C51.5452 58.9036 51.4398 59.4749 51.4499 60.05C51.421 60.7089 51.5297 61.3667 51.769 61.9813C52.0083 62.596 52.373 63.154 52.8399 63.62C54.146 64.7038 55.6364 65.5439 57.2399 66.1C58.2816 66.4957 59.2857 66.9844 60.2399 67.56C61.0439 68.0392 61.7948 68.6023 62.4799 69.24C63.0494 69.8095 63.4953 70.4904 63.7899 71.24C64.1035 72.0775 64.2595 72.9658 64.2499 73.86C64.2573 74.8329 64.0739 75.7977 63.7099 76.7C63.3336 77.6189 62.7481 78.4372 61.9999 79.09C61.1833 79.7951 60.2398 80.3381 59.2199 80.69C57.9729 81.0899 56.6694 81.2858 55.3599 81.27C54.7408 81.2562 54.1231 81.2062 53.5099 81.12C52.8869 81.0351 52.2693 80.9149 51.6599 80.76C51.0789 80.6115 50.5105 80.4176 49.9599 80.18C49.5009 80.0074 49.0617 79.7862 48.6499 79.52L49.4999 77.85ZM67.9999 61.67L71.3199 72.53C71.6299 73.62 71.9399 74.72 72.2499 75.67C72.5599 76.62 72.7899 77.67 73.0199 78.51H73.1699C73.3999 77.64 73.7099 76.69 74.0199 75.67C74.3299 74.65 74.7099 73.67 75.0999 72.53L78.9999 61.67H80.8499L84.6299 72.39C85.0199 73.56 85.3999 74.65 85.7099 75.67C86.0199 76.69 86.3299 77.67 86.5599 78.51H86.7099C86.9399 77.56 87.1699 76.61 87.4799 75.67C87.7899 74.73 88.0999 73.67 88.4799 72.46L91.9999 61.67H93.9999L87.3699 80.77H85.7899L81.9999 70.12C81.6132 68.9533 81.2266 67.86 80.8399 66.84C80.5299 65.84 80.2199 64.73 79.9899 63.63H79.9099C79.6324 64.7396 79.2986 65.8343 78.9099 66.91C78.5232 67.93 78.1366 69.0233 77.7499 70.19L73.8299 80.77H72.1299L65.9999 61.67H67.9999ZM98.3099 61.67H100.31V80.77H98.3099V61.67ZM97.5399 55.84C97.5371 55.6169 97.5794 55.3956 97.6641 55.1892C97.7488 54.9828 97.8743 54.7956 98.0329 54.6388C98.1916 54.482 98.3803 54.3587 98.5877 54.2765C98.795 54.1942 99.0169 54.1546 99.2399 54.16C99.6887 54.1688 100.118 54.3449 100.444 54.6539C100.769 54.9629 100.968 55.3823 101 55.83C101.002 56.0528 100.954 56.2732 100.861 56.4755C100.768 56.6778 100.631 56.8569 100.46 57C100.119 57.2947 99.6804 57.4515 99.2299 57.44C98.7822 57.4351 98.3491 57.2802 97.9999 57C97.6943 56.6861 97.5192 56.268 97.5099 55.83L97.5399 55.84Z" fill="#221F20"/>
<path d="M36.7699 53.16C36.6165 52.4073 36.3572 51.6801 35.9999 51C35.6225 50.3353 35.1547 49.7262 34.6099 49.19C34.0457 48.6495 33.3929 48.2098 32.6799 47.89C31.9728 47.5409 31.218 47.2983 30.4399 47.17C29.6699 47.03 28.8199 47.03 28.0499 46.95H8.99992C8.40749 46.9577 7.8162 47.0045 7.22992 47.09C6.64632 47.1553 6.07437 47.3 5.52992 47.52C5.37992 47.59 5.13992 47.66 4.98992 47.74C4.47316 48.0094 3.98124 48.3239 3.51992 48.68C3.36992 48.82 3.20992 48.9 3.05992 49.04C2.49237 49.5556 2.02162 50.1686 1.66992 50.85C1.29174 51.5172 1.03127 52.2445 0.899922 53C0.78519 53.7423 0.708423 54.4899 0.669922 55.24V72.54C0.670182 73.2926 0.747248 74.0431 0.899922 74.78C1.04787 75.5534 1.30724 76.3011 1.66992 77C2.04738 77.6647 2.51517 78.2738 3.05992 78.81C3.631 79.3337 4.28703 79.7564 4.99992 80.06C5.70702 80.4091 6.46185 80.6517 7.23992 80.78C8.00992 80.92 8.85992 80.92 9.62992 81H28.0499C28.8516 80.9985 29.6515 80.9248 30.4399 80.78C31.218 80.6517 31.9728 80.4091 32.6799 80.06C33.378 79.7141 34.027 79.277 34.6099 78.76C35.1728 78.2593 35.6433 77.6636 35.9999 77C36.3803 76.3267 36.6408 75.5925 36.7699 74.83C36.8864 74.0712 36.9631 73.3068 36.9999 72.54V55.4C36.9997 54.6475 36.9226 53.8969 36.7699 53.16ZM31.2899 74.78C29.6199 71.71 26.5199 72.65 24.9399 73.27C21.6999 75.02 17.2499 75.2 12.7699 73.4C9.29489 72.0157 6.31366 69.623 4.20992 66.53C5.18382 67.2625 6.24536 67.8705 7.36992 68.34C11.9899 70.34 16.6199 70.23 19.8699 68.34C15.5861 65.0987 11.7259 61.3326 8.37992 57.13C7.80026 56.5172 7.28429 55.8471 6.83992 55.13C10.3572 58.0823 14.0985 60.757 18.0299 63.13C15.1701 60.2524 12.5388 57.1564 10.1599 53.87C14.128 57.653 18.4857 61.005 23.1599 63.87L23.6599 64.15C23.7956 63.8236 23.9125 63.4898 24.0099 63.15C25.0899 59.46 23.8599 55.27 21.1599 51.8C27.4099 55.34 31.1599 62 29.5699 67.57C29.5699 67.72 29.4899 67.87 29.4399 68.01L29.4899 68.07C32.5299 71.67 31.6799 75.5 31.2899 74.78Z" fill="black"/>
</svg>
