<svg width="128" height="128" viewBox="0 0 128 128" fill="none" xmlns="http://www.w3.org/2000/svg">
<path d="M125.54 26.23C125.015 23.5919 124.123 21.0404 122.89 18.65C121.601 16.3347 120 14.208 118.13 12.33C116.202 10.4434 113.962 8.90409 111.51 7.78C109.09 6.5597 106.502 5.707 103.83 5.25C101.18 4.74 98.2702 4.74 95.6202 4.49H30.2502C28.2111 4.5232 26.1765 4.69359 24.1602 5C22.1593 5.23542 20.2007 5.74695 18.3402 6.52C17.8102 6.77 17.0202 7.03 16.4902 7.28C14.7299 8.22355 13.0567 9.32118 11.4902 10.56C10.9602 11.07 10.4302 11.32 9.9002 11.82C7.95126 13.6277 6.33947 15.7677 5.1402 18.14C3.83052 20.4968 2.93423 23.0606 2.4902 25.72C2.09607 28.3151 1.8324 30.9284 1.7002 33.55V93.94C1.70102 96.5699 1.96568 99.193 2.4902 101.77C3.01498 104.408 3.90699 106.96 5.1402 109.35C6.42898 111.665 8.03072 113.792 9.9002 115.67C11.8284 117.557 14.068 119.096 16.5202 120.22C18.9402 121.44 21.5287 122.293 24.2002 122.75C26.8502 123.26 29.7602 123.26 32.4102 123.51H95.6302C98.3843 123.508 101.132 123.254 103.84 122.75C106.512 122.293 109.1 121.44 111.52 120.22C113.92 119.006 116.147 117.475 118.14 115.67C120.089 113.862 121.701 111.722 122.9 109.35C124.21 106.993 125.106 104.429 125.55 101.77C125.944 99.1749 126.208 96.5616 126.34 93.94V34.06C126.336 31.4298 126.068 28.8067 125.54 26.23ZM106.75 101.77C101 91 90.3702 94.33 85.0002 96.5C73.8902 102.63 58.6202 103.26 43.2502 96.97C31.2664 92.1076 21.0201 83.7566 13.8402 73C17.1769 75.5542 20.8223 77.6776 24.6902 79.32C40.5602 86.42 56.4202 85.93 67.5902 79.32C51.6902 67.66 38.1902 52.5 28.1302 40.12C26.145 38.0278 24.3729 35.7432 22.8402 33.3C35.0002 43.91 54.3402 57.3 61.2202 61.09C51.3969 51.0249 42.3698 40.2124 34.2202 28.75C47.7673 41.9149 62.6742 53.6037 78.6902 63.62C79.4002 64 79.9502 64.32 80.3902 64.62C80.8597 63.4739 81.2636 62.302 81.6002 61.11C85.3102 48.22 81.0702 33.57 71.8102 21.44C93.2502 33.81 106 57.05 100.66 76.51C100.52 77.04 100.37 77.51 100.21 78.06L100.4 78.28C111 90.91 108.07 104.3 106.75 101.77Z" fill="black"/>
</svg>
