<svg width="128" height="128" viewBox="0 0 128 128" fill="none" xmlns="http://www.w3.org/2000/svg">
<path d="M81.1002 102.1C76.1002 102.1 72.7002 105.7 72.7002 110.7C72.7002 115.4 76.1002 119.3 81.1002 119.3C86.0002 119.3 89.4002 115.4 89.4002 110.7C89.4002 105.7 86.1002 102.1 81.1002 102.1ZM81.1002 116.8C77.5002 116.8 76.0002 113.6 76.0002 110.7C76.0002 107.6 77.9002 104.6 81.1002 104.6C84.3002 104.6 86.2002 107.6 86.2002 110.7C86.2002 113.6 84.6002 116.8 81.1002 116.8ZM65.0002 101.2V102H61.0002V103.7C61.0002 104.4 61.7002 104.9 62.4002 104.9H65.0002V118.9H66.6002C67.3002 118.9 68.0002 118.2 68.0002 117.6V105H71.0002C71.7002 105 72.0002 104.3 72.0002 103.6V102H68.0002V100.9C68.0002 98.7 68.3002 97 70.9002 97H71.0002C71.7002 97.1 72.3002 96.5 72.4002 95.7L72.5002 94.7C71.9002 94.6 71.3002 94.5 70.5002 94.5C66.0002 94.6 65.0002 97.2 65.0002 101.2ZM32.1002 102.2V102.3C31.5002 102.3 30.8002 102.8 30.6002 103.4L26.4002 116H26.3002L22.2002 103.5C21.9002 102.9 21.3002 102.2 20.7002 102.2V102H18.6002L24.2002 117.5C24.4002 118 24.8002 119 24.8002 119.4C24.8002 119.7 23.9002 123.5 21.2002 123.5H21.0002C20.3002 123.5 19.8002 124 19.7002 124.7L19.6002 125.8C20.1002 125.9 20.7002 126 21.7002 126C25.7002 126 26.9002 122.1 28.0002 119L34.0002 102H32.1002V102.2ZM12.9002 105.8C10.4002 104.5 7.7002 103.7 7.6002 101.1C7.6002 98.4 10.1002 97.7 12.0002 97.7C12.8002 97.7 13.5002 97.8 14.2002 97.9C14.9002 98 15.5002 97.4 15.6002 96.7L15.7002 95.7C14.4002 95.4 13.1002 95.2 12.0002 95.2C7.8002 95.2 4.7002 97.3 4.7002 101.4C4.7002 104.9 7.1002 106.3 9.6002 107.5C12.1002 108.7 14.9002 109.7 14.9002 112.6C14.9002 115.6 12.0002 116.8 9.9002 116.8C8.7002 116.8 7.4002 116.5 6.4002 116.2C5.7002 116.1 5.2002 116.7 5.1002 117.5L5.0002 118.3C6.5002 118.8 8.0002 119.1 9.5002 119.1C14.2002 119.1 17.9002 117.3 17.9002 112.4C17.8002 108.6 15.4002 107.1 12.9002 105.8ZM54.3002 102.1C52.8002 102.1 50.3002 102.9 49.2002 105.3C48.3002 103.1 46.4002 102.2 44.5002 102.2C42.1002 102.2 40.4002 103 39.3002 105H39.0002V103.8C39.0002 103.1 38.5002 102.2 37.7002 102.2L37.8002 102H36.0002V119H38.0002C38.8002 119 39.2002 118.3 39.2002 117.6L39.0002 117.5V110.7C39.0002 107.6 40.6002 104.6 43.7002 104.6C46.1002 104.6 47.0002 107.1 47.0002 109.2V119.1H48.3002C49.0002 119.1 50.0002 118.4 50.0002 117.7V110.7C50.0002 107.6 51.1002 104.6 54.2002 104.6C56.6002 104.6 57.0002 107.1 57.0002 109.2V119.1H58.6002C59.3002 119.1 60.0002 118.5 60.0002 117.9V108.5C60.0002 104.8 58.5002 102.1 54.3002 102.1ZM100.7 102C98.4002 102 96.1002 103 95.2002 105H95.0002V103.8C95.0002 103 94.4002 102.2 93.6002 102.2V102H92.0002V119H93.8002C94.5002 119 95.0002 118.3 95.0002 117.6V111.3C95.0002 107.3 96.8002 104.5 100.3 104.5C102.9 104.7 104 106.5 104 110.3V118.9H105.3C106 118.9 107 118.2 107 117.5V109.1C107 104.7 104.9 102 100.7 102ZM121.6 102V102.3C121 102.3 120.3 102.8 120.1 103.4L115.9 116H115.8L111.7 103.5C111.4 102.9 110.8 102.2 110.2 102.2V102H108.1L113.7 117.5C113.9 118 114.3 119 114.3 119.4C114.3 119.7 113.4 123.5 110.7 123.5H110.5C109.8 123.5 109.3 124 109.2 124.7L109.1 125.8C109.6 125.9 110.2 126 111.2 126C115.2 126 116.4 122.1 117.5 119L123.5 102H121.6ZM64.0002 90.2C88.6002 90.2 108.6 70.2 108.6 45.6C108.6 21 88.6002 1 64.0002 1C39.4002 1 19.4002 21 19.4002 45.6C19.4002 70.2 39.4002 90.2 64.0002 90.2ZM34.4002 48.8C35.1002 46.6 36.8002 46.2 38.6002 46.7C40.4002 47.3 41.2002 49.5 40.6002 51.2C40.5002 51.4 40.4002 51.7 40.3002 52.1L39.5002 53.5C39.1002 54.9 40.9002 55.8 42.2002 56.2C45.1002 57.1 47.9002 55.6 48.6002 53.2C49.3002 51 47.9002 49.5 47.3002 49L44.6002 46.1C43.3002 44.7 40.6002 40.8 41.9002 36.4C42.4002 34.7 43.5002 32.9 45.1002 31.7C48.4002 29.2 52.1002 28.8 55.5002 29.8C60.0002 31.1 62.1002 34.1 64.9002 36.3C66.5002 31.7 68.6002 27.2 71.9002 23.4C74.8002 19.9 78.8002 17.5 83.3002 17.3C87.8002 17.2 91.2002 19.2 91.4002 22.4C91.4002 23.8 90.7002 26.5 87.9002 26.6C85.8002 26.7 84.4002 25.4 84.3002 23.6C84.3002 22.9 84.5002 22.3 84.9002 21.6C85.4002 20.7 85.5002 20.6 85.4002 20.2C85.4002 19 83.6002 19 83.1002 19C76.4002 19.2 74.6002 28.3 73.2002 35.6L72.5002 39.5C76.4002 40.1 79.1002 39.4 80.6002 38.4C82.7002 37 80.0002 35.6 80.3002 34C80.7002 32.4 82.1002 31.6 83.3002 31.6C84.9002 31.6 86.1002 33.3 86.1002 35C86.0002 37.8 82.3002 41.8 74.7002 41.6C73.8002 41.6 72.9002 41.5 72.1002 41.4L71.0002 49.3C69.7002 55.3 68.0002 63.4 62.0002 70.5C56.8002 76.7 51.5002 77.7 49.1002 77.7C44.7002 77.8 41.7002 75.5 41.6002 72.3C41.5002 69.2 44.2002 67.6 46.0002 67.5C48.4002 67.4 50.0002 69.1 50.1002 71.1C50.2002 72.8 49.3002 73.3 48.7002 73.6C48.3002 73.9 47.7002 74.2 47.8002 74.9C47.8002 75.2 48.1002 75.9 49.1002 75.8C51.0002 75.7 52.2002 74.8 53.1002 74.2C57.4002 70.6 59.1002 64.3 61.3002 52.9L61.8002 50.1C62.5002 46.4 63.4002 42.3 64.6002 38.1C61.6002 35.8 59.7002 33 55.6002 31.9C52.8002 31.1 51.1002 31.8 49.9002 33.3C48.5002 35.1 48.9002 37.4 50.3002 38.8L52.6002 41.3C55.4002 44.5 56.9002 47 56.3002 50.4C55.4002 55.8 49.0002 59.9 41.4002 57.6C34.8002 55.9 33.6002 51.3 34.4002 48.8Z" fill="#1A171B"/>
</svg>
