<svg width="128" height="128" viewBox="0 0 128 128" fill="none" xmlns="http://www.w3.org/2000/svg">
<path d="M63.9998 2.3C29.8998 2.3 2.2998 29.9 2.2998 64C2.2998 98.1 29.8998 125.7 63.9998 125.7C98.0998 125.7 125.7 98.1 125.7 64C125.7 29.9 98.0998 2.3 63.9998 2.3ZM97.2998 38C94.3998 38.1 92.4998 36.4 92.3998 33.8C92.3998 32.8 92.5998 32 93.2998 31C93.8998 29.8 94.0998 29.6 94.0998 29.1C93.9998 27.5 91.5998 27.4 90.8998 27.4C81.5998 27.7 79.1998 40.2 77.1998 50.4L76.1998 55.8C81.4998 56.6 85.2998 55.6 87.3998 54.3C90.3998 52.4 86.5998 50.4 86.9998 48.2C87.4998 46 89.4998 44.9 91.0998 44.8C93.3998 44.7 94.9998 47.1 94.8998 49.5C94.7998 53.4 89.5998 58.9 79.0998 58.6C77.7998 58.6 76.6998 58.5 75.5998 58.4L73.5998 69.3C71.7998 77.5 69.4998 88.8 61.0998 98.6C53.8998 107.2 46.5998 108.5 43.2998 108.6C37.1998 108.8 33.0998 105.5 32.9998 101.2C32.8998 97 36.5998 94.7 38.9998 94.6C42.2998 94.5 44.4998 96.9 44.5998 99.6C44.6998 101.9 43.4998 102.6 42.6998 103.1C42.1998 103.5 41.3998 104 41.3998 104.9C41.3998 105.3 41.8998 106.2 43.1998 106.2C45.7998 106.1 47.4998 104.8 48.6998 104C54.6998 99 56.9998 90.3 59.9998 74.6L60.5998 70.8C61.5998 65.7 62.7998 59.9 64.4998 54.2C60.2998 51 57.7998 47.1 52.0998 45.6C48.1998 44.5 45.8998 45.4 44.1998 47.5C42.1998 50 42.8998 53.2 44.7998 55.1L47.8998 58.6C51.7998 63.1 53.8998 66.5 53.0998 71.2C51.9998 78.5 43.0998 84.2 32.5998 81C23.5998 78.2 21.9998 71.9 23.0998 68.4C23.9998 65.3 26.4998 64.7 28.8998 65.5C31.4998 66.3 32.4998 69.4 31.6998 71.8C31.5998 72.1 31.4998 72.5 31.1998 73C30.8998 73.7 30.3998 74.2 30.0998 75C29.4998 76.9 32.0998 78.2 33.8998 78.8C37.8998 80 41.7998 77.9 42.7998 74.7C43.6998 71.7 41.7998 69.6 41.0998 68.8L37.2998 64.7C35.5998 62.8 31.6998 57.4 33.5998 51.3C34.2998 49 35.7998 46.5 37.9998 44.9C42.5998 41.4 47.6998 40.9 52.4998 42.3C58.6998 44.1 61.6998 48.2 65.5998 51.4C67.7998 45.1 70.7998 38.8 75.2998 33.6C79.3998 28.8 84.7998 25.4 91.0998 25.1C97.3998 24.9 102.1 27.7 102.3 32.2C102.2 34.2 101.1 37.9 97.2998 38Z" fill="#1A171B"/>
</svg>
