<svg width="128" height="128" viewBox="0 0 128 128" fill="none" xmlns="http://www.w3.org/2000/svg">
<path d="M13.227 56.074C9.699 56.074 7.5 57.852 6.625 61.375C7.949 59.602 9.5 58.949 11.25 59.398C12.25 59.648 12.977 60.375 13.773 61.199C15.074 62.523 16.574 64.051 19.852 64.051C23.375 64.051 25.574 62.273 26.449 58.75C25.125 60.523 23.574 61.176 21.824 60.727C20.824 60.477 20.102 59.75 19.301 58.926C18 57.602 16.5 56.074 13.227 56.074ZM6.602 64C3.074 64 0.875 65.773 0 69.3C1.324 67.523 2.875 66.875 4.625 67.324C5.625 67.574 6.352 68.301 7.148 69.125C8.449 70.449 9.949 71.977 13.227 71.977C16.75 71.977 18.949 70.199 19.824 66.676C18.5 68.449 16.949 69.102 15.199 68.648C14.199 68.398 13.477 67.676 12.676 66.852C11.398 65.523 9.898 64 6.602 64Z" fill="url(#paint0_linear_3_7048)"/>
<path d="M39.6759 62.75H37.375V67.227C37.375 68.426 38.1479 68.398 39.6749 68.324V70.125C36.5749 70.5 35.352 69.648 35.352 67.227V62.75H33.6479V60.824H35.352V58.324L37.352 57.727V60.824H39.6479V62.75H39.6759ZM48.476 60.824H50.476V70.125H48.476V68.773C47.773 69.75 46.676 70.352 45.226 70.352C42.699 70.352 40.602 68.199 40.602 65.449C40.602 62.676 42.699 60.551 45.227 60.551C46.676 60.551 47.773 61.148 48.477 62.125L48.476 60.824ZM45.5229 68.449C47.1989 68.449 48.477 67.199 48.477 65.477C48.477 63.75 47.1989 62.5 45.5229 62.5C43.8519 62.5 42.574 63.75 42.574 65.477C42.602 67.199 43.8519 68.449 45.5239 68.449H45.5229ZM53.824 59.426C53.125 59.426 52.5509 58.824 52.5509 58.148C52.5509 57.449 53.125 56.875 53.824 56.875C54.524 56.875 55.102 57.449 55.102 58.148C55.125 58.824 54.523 59.426 53.824 59.426ZM52.824 70.125V60.825H54.824V70.125H52.824ZM57.1479 70.125V56.551H59.1479V70.125H57.1479ZM72.2269 60.825H74.3519L71.426 70.125H69.4489L67.523 63.852L65.5739 70.125H63.602L60.6759 60.825H62.7999L64.5999 67.25L66.55 60.824H68.4759L70.397 67.25L72.2269 60.825ZM76.8239 59.425C76.1249 59.425 75.551 58.825 75.551 58.148C75.551 57.449 76.1249 56.875 76.8239 56.875C77.5239 56.875 78.1019 57.449 78.1019 58.148C78.1249 58.824 77.5509 59.426 76.8239 59.426V59.425ZM75.8239 70.125V60.825H77.8239V70.125H75.8239ZM85.051 60.575C87.125 60.575 88.625 62 88.625 64.398V70.125H86.625V64.625C86.625 63.199 85.801 62.477 84.551 62.477C83.227 62.477 82.176 63.25 82.176 65.148V70.148H80.176V60.852H82.176V62.051C82.801 61.051 83.801 60.574 85.051 60.574V60.575ZM98.1759 57.102H100.176V70.125H98.1759V68.773C97.4759 69.75 96.375 70.352 94.926 70.352C92.398 70.352 90.301 68.199 90.301 65.449C90.301 62.676 92.398 60.551 94.926 60.551C96.375 60.551 97.4759 61.148 98.1759 62.125V57.102ZM95.2259 68.449C96.8979 68.449 98.1759 67.199 98.1759 65.477C98.1759 63.75 96.8979 62.5 95.2259 62.5C93.5509 62.5 92.273 63.75 92.273 65.477C92.273 67.199 93.5509 68.449 95.2269 68.449H95.2259ZM106.898 70.375C104.102 70.375 101.977 68.227 101.977 65.477C101.977 62.699 104.074 60.574 106.898 60.574C108.727 60.574 110.301 61.524 111.051 62.977L109.324 63.977C108.926 63.102 108 62.551 106.875 62.551C105.227 62.551 104 63.801 104 65.477C104 67.148 105.25 68.398 106.875 68.398C108 68.398 108.898 67.824 109.352 66.977L111.074 67.949C110.324 69.426 108.727 70.375 106.898 70.375ZM114.426 63.375C114.426 65.075 119.426 64.051 119.426 67.5C119.426 69.352 117.801 70.375 115.801 70.375C113.949 70.375 112.601 69.523 112 68.199L113.727 67.199C114.023 68.051 114.773 68.551 115.801 68.551C116.699 68.551 117.375 68.25 117.375 67.5C117.375 65.852 112.375 66.773 112.375 63.45C112.375 61.7 113.875 60.602 115.773 60.602C117.301 60.602 118.574 61.301 119.227 62.523L117.523 63.477C117.199 62.75 116.551 62.426 115.773 62.426C115.051 62.398 114.426 62.726 114.426 63.375ZM123 63.375C123 65.075 128 64.051 128 67.5C128 69.352 126.375 70.375 124.375 70.375C122.523 70.375 121.175 69.523 120.575 68.199L122.301 67.199C122.601 68.051 123.351 68.551 124.375 68.551C125.273 68.551 125.949 68.25 125.949 67.5C125.949 65.852 120.949 66.773 120.949 63.45C120.949 61.7 122.449 60.602 124.352 60.602C125.875 60.602 127.148 61.301 127.801 62.523L126.101 63.477C125.773 62.75 125.125 62.426 124.351 62.426C123.625 62.398 123 62.726 123 63.375Z" fill="#2D3748"/>
<defs>
<linearGradient id="paint0_linear_3_7048" x1="-0.707677" y1="61.1156" x2="22.1447" y2="74.2917" gradientUnits="userSpaceOnUse">
<stop stop-color="#2298BD"/>
<stop offset="1" stop-color="#0ED7B5"/>
</linearGradient>
</defs>
</svg>
