<svg width="128" height="128" viewBox="0 0 128 128" fill="none" xmlns="http://www.w3.org/2000/svg">
<path d="M11.4797 50.7702L0.0119766 57.3188L-0.000488281 63.6623L6.51751 59.9002V74.3424L6.67389 74.4354L11.4785 77.2286L11.4797 50.7702ZM11.8196 50.7702V77.2298L12.2956 76.9499L16.7829 74.3436V67.5831L20.0487 69.4641L20.0226 63.8583L16.7818 61.9999V59.899L23.2998 63.6612L23.2873 57.3188L11.8196 50.7702ZM10.8462 51.8603V76.1272L7.14982 73.9776V58.801L0.636354 62.5631L0.646553 57.6894L10.8462 51.8603ZM12.4531 51.8603L22.6539 57.6882L22.6629 62.5643L16.1495 58.8021V62.3671L19.3903 64.2255L19.4096 68.3627L16.1495 66.4839V73.9776L12.4531 76.1272V51.8603Z" fill="black"/>
<path d="M35.4155 59.1557H31.3122V71.4257H28.9416V59.1557H24.8486V57.1443H35.4155V59.1557Z" fill="black"/>
<path d="M43.9004 66.9542H36.9484C36.9756 67.897 37.2646 68.6245 37.8153 69.1355C38.3728 69.6466 39.1366 69.9027 40.1054 69.9027C41.1944 69.9027 42.1938 69.5775 43.1038 68.9259V70.7888C42.1746 71.3735 40.9462 71.6648 39.4187 71.6648C37.9184 71.6648 36.7399 71.2036 35.8832 70.2812C35.0333 69.352 34.6084 68.0465 34.6084 66.3672C34.6084 64.7807 35.0764 63.4889 36.0135 62.4917C36.9552 61.49 38.1235 60.988 39.5184 60.988C40.9122 60.988 41.991 61.4368 42.7548 62.3331C43.5185 63.2294 43.9004 64.4748 43.9004 66.068V66.9542ZM41.6692 65.3224C41.6624 64.4918 41.4675 63.8481 41.0822 63.3903C40.6969 62.9257 40.1655 62.6923 39.4878 62.6923C38.8249 62.6923 38.2595 62.9348 37.7949 63.4198C37.3371 63.9048 37.0549 64.5382 36.9484 65.3224H41.6692Z" fill="black"/>
<path d="M55.1849 71.4257H52.8732V65.6805C52.8732 63.7734 52.2001 62.8215 50.8528 62.8215C50.1491 62.8215 49.5678 63.0867 49.11 63.6181C48.651 64.1428 48.4221 64.8068 48.4221 65.6102V71.4257H46.1025V61.2271H48.4233V62.9212H48.4629C49.2267 61.6328 50.3293 60.988 51.7695 60.988C52.8789 60.988 53.7254 61.3506 54.3101 62.0736C54.8937 62.7909 55.186 63.83 55.186 65.191L55.1849 71.4257Z" fill="black"/>
<path d="M57.3662 71.1072V68.9655C58.2297 69.6228 59.1816 69.9514 60.2241 69.9514C61.6179 69.9514 62.3159 69.5401 62.3159 68.7162C62.3227 68.5062 62.2597 68.2998 62.1369 68.1293C62.0052 67.9525 61.8395 67.8038 61.6496 67.6919C61.4234 67.5525 61.1824 67.4385 60.9312 67.3519C60.6255 67.2407 60.3203 67.1281 60.0156 67.0142C59.6265 66.8618 59.2473 66.6855 58.8801 66.4862C58.5721 66.3185 58.29 66.1071 58.0427 65.8584C57.8266 65.6239 57.6577 65.35 57.5453 65.0516C57.4319 64.7536 57.3753 64.4057 57.3753 64.0068C57.3753 63.515 57.492 63.0833 57.7243 62.7116C57.9566 62.3331 58.2682 62.0181 58.6603 61.7654C59.0694 61.4988 59.5208 61.3034 59.9952 61.1875C60.4938 61.0549 61.0082 60.988 61.5386 60.988C62.4813 60.988 63.3256 61.1308 64.0689 61.4164V63.4391C63.3516 62.9473 62.5278 62.7025 61.5986 62.7025C61.3305 62.6994 61.0629 62.729 60.802 62.7909C60.5697 62.851 60.3714 62.9337 60.2048 63.0402C60.0469 63.138 59.9139 63.271 59.8161 63.4289C59.7235 63.5744 59.675 63.7436 59.6767 63.9161C59.6705 64.1117 59.7187 64.3051 59.8161 64.4748C59.9091 64.6266 60.045 64.7637 60.2241 64.8827C60.4099 64.996 60.6297 65.1014 60.8813 65.2012C61.1408 65.2941 61.4366 65.3972 61.7686 65.5105C62.206 65.6895 62.5981 65.8731 62.9437 66.0578C63.295 66.2437 63.5941 66.4567 63.8389 66.6958C64.0848 66.9281 64.274 67.2001 64.4077 67.5117C64.5403 67.8176 64.606 68.1825 64.606 68.6075C64.606 69.1253 64.4871 69.5775 64.248 69.9616C64.01 70.3469 63.6904 70.6664 63.2916 70.918C62.8656 71.1815 62.3976 71.37 61.908 71.4755C61.3698 71.604 60.8182 71.6676 60.2649 71.6648C59.1487 71.6648 58.1832 71.4789 57.3662 71.1072Z" fill="black"/>
<path d="M71.3187 71.6648C69.7459 71.6648 68.4869 71.19 67.5453 70.2415C66.6081 69.2851 66.1401 68.0205 66.1401 66.4454C66.1401 64.7343 66.6274 63.396 67.6042 62.4328C68.5867 61.4696 69.9079 60.988 71.568 60.988C73.1613 60.988 74.4032 61.4572 75.2928 62.3932C76.1823 63.3292 76.6276 64.6266 76.6276 66.2867C76.6276 67.914 76.146 69.2182 75.1828 70.2007C74.2276 71.1775 72.9392 71.6648 71.3187 71.6648ZM71.4287 62.8306C70.5255 62.8306 69.8116 63.1467 69.287 63.7768C68.7623 64.4079 68.5005 65.2782 68.5005 66.3864C68.5005 67.4562 68.7657 68.2992 69.2972 68.9168C69.8286 69.5276 70.5391 69.8324 71.4287 69.8324C72.3386 69.8324 73.0355 69.531 73.5205 68.9259C74.0111 68.3219 74.257 67.4618 74.257 66.3468C74.257 65.2249 74.0111 64.3581 73.5205 63.7473C73.0355 63.1365 72.3386 62.8306 71.4287 62.8306Z" fill="black"/>
<path d="M84.8943 63.4289C84.6156 63.209 84.2144 63.1003 83.6886 63.1003C83.0053 63.1003 82.4342 63.4085 81.9764 64.0261C81.5175 64.6436 81.2886 65.4833 81.2886 66.5462V71.4257H78.978V61.2271H81.2897V63.3292H81.3282C81.5549 62.6119 81.8994 62.0543 82.364 61.6555C82.8354 61.2509 83.3611 61.0481 83.9379 61.0481C84.3572 61.0481 84.6745 61.1115 84.8943 61.2373V63.4289Z" fill="black"/>
<path d="M94.4944 59.1557H89.1572V63.4481H94.0763V65.4504H89.1561V71.4257H86.7866V57.1443H94.4944V59.1557Z" fill="black"/>
<path d="M99.0961 71.4257H96.7754V56.3273H99.0961V71.4257Z" fill="black"/>
<path d="M106.625 71.6648C105.052 71.6648 103.793 71.19 102.851 70.2415C101.914 69.2851 101.446 68.0205 101.446 66.4454C101.446 64.7343 101.934 63.396 102.91 62.4328C103.893 61.4696 105.214 60.988 106.874 60.988C108.467 60.988 109.709 61.4572 110.599 62.3932C111.49 63.3292 111.934 64.6266 111.934 66.2867C111.934 67.914 111.452 69.2182 110.49 70.2007C109.534 71.1775 108.246 71.6648 106.626 71.6648H106.625ZM106.735 62.8306C105.832 62.8306 105.118 63.1467 104.593 63.7768C104.07 64.4079 103.807 65.2782 103.807 66.3864C103.807 67.4562 104.073 68.2992 104.603 68.9168C105.136 69.5276 105.845 69.8324 106.735 69.8324C107.645 69.8324 108.342 69.531 108.827 68.9259C109.317 68.3219 109.563 67.4618 109.563 66.3468C109.563 65.2249 109.317 64.3581 108.827 63.7473C108.342 63.1365 107.645 62.8306 106.735 62.8306Z" fill="black"/>
<path d="M127.999 61.2271L124.992 71.4257H122.571L120.718 64.5133C120.641 64.2205 120.594 63.9205 120.579 63.6181H120.539C120.511 63.9157 120.451 64.2094 120.36 64.494L118.348 71.4257H115.977L112.98 61.2271H115.371L117.223 68.578C117.283 68.7967 117.322 69.0879 117.342 69.4539H117.412C117.432 69.1752 117.484 68.876 117.57 68.5587L119.633 61.2271H121.804L123.636 68.6075C123.696 68.8398 123.739 69.1321 123.766 69.4845H123.836C123.849 69.2386 123.899 68.9463 123.985 68.6075L125.798 61.2271H127.999Z" fill="black"/>
</svg>
