<svg width="128" height="128" viewBox="0 0 128 128" fill="none" xmlns="http://www.w3.org/2000/svg">
<path d="M62.0762 0L7.15817 31.387L7.07617 60.473L39.5412 41.715V114.916L62.0762 128V0ZM65.9342 0V128L88.4692 114.916V79.957L104.742 89.363L104.639 63.916L88.4692 54.682V41.715L120.924 60.473L120.842 31.387L65.9342 0ZM61.0902 1.701V126.287L40.5272 114.347V40.005L8.06817 58.76L8.14517 31.96L61.0902 1.702V1.701ZM66.9202 1.701L119.855 31.961L119.932 58.76L87.4822 40.004V55.256L103.654 64.49L103.748 87.648L87.4822 78.248V114.348L66.9202 126.288V1.7V1.701Z" fill="black"/>
</svg>
