<svg width="128" height="128" viewBox="0 0 128 128" fill="none" xmlns="http://www.w3.org/2000/svg">
<path d="M6.532 74.1898V59.3422L0 63.1138L0.01136 57.4906L10.8715 51.288V76.7117L6.532 74.1898ZM11.8485 76.7117L16.188 74.1898V67.0443L19.4597 68.9301L19.437 64.0453L16.188 62.1822V59.3422L22.72 63.1138L22.7086 57.4906L11.8485 51.288V76.7117Z" fill="#FF6F00"/>
<path d="M35.186 59.1474H31.0725V71.4481H28.696V59.1474H24.5928V57.131H35.186V59.1474Z" fill="#425066"/>
<path d="M43.6922 66.9654H36.7228C36.7501 67.9105 37.0397 68.6398 37.5918 69.1522C38.1507 69.6645 38.9164 69.9213 39.8877 69.9213C40.9794 69.9213 41.9813 69.5952 42.8935 68.942V70.8096C41.962 71.3958 40.7306 71.6877 39.1993 71.6877C37.6952 71.6877 36.5138 71.2254 35.655 70.3007C34.803 69.3692 34.377 68.0605 34.377 66.3769C34.377 64.7865 34.8461 63.4915 35.7856 62.4918C36.7296 61.4876 37.9008 60.9843 39.2992 60.9843C40.6965 60.9843 41.778 61.4342 42.5437 62.3328C43.3093 63.2314 43.6922 64.4798 43.6922 66.077V66.9654ZM41.4554 65.3295C41.4486 64.4969 41.2532 63.8516 40.8669 63.3927C40.4807 62.9269 39.9479 62.6929 39.2686 62.6929C38.604 62.6929 38.0371 62.936 37.5714 63.4222C37.1124 63.9084 36.8296 64.5434 36.7228 65.3295H41.4554Z" fill="#425066"/>
<path d="M55.0045 71.448H52.687V65.6885C52.687 63.7766 52.0122 62.8224 50.6615 62.8224C49.9561 62.8224 49.3733 63.0882 48.9144 63.621C48.4543 64.147 48.2248 64.8127 48.2248 65.6181V71.448H45.8994V61.224H48.2259V62.9224H48.2657C49.0314 61.6307 50.1367 60.9843 51.5805 60.9843C52.6927 60.9843 53.5413 61.3479 54.1275 62.0726C54.7125 62.7917 55.0056 63.8334 55.0056 65.1978L55.0045 71.448Z" fill="#425066"/>
<path d="M57.1914 71.1288V68.9818C58.057 69.6407 59.0113 69.9701 60.0564 69.9701C61.4537 69.9701 62.1535 69.5577 62.1535 68.7319C62.1602 68.5213 62.0971 68.3144 61.974 68.1434C61.842 67.9662 61.6759 67.8171 61.4855 67.7049C61.2587 67.5652 61.0171 67.4509 60.7653 67.3641C60.4588 67.2526 60.1529 67.1397 59.8474 67.0256C59.4574 66.8728 59.0772 66.696 58.7091 66.4962C58.4003 66.3281 58.1175 66.1162 57.8696 65.8669C57.653 65.6318 57.4836 65.3572 57.3709 65.058C57.2573 64.7593 57.2005 64.4105 57.2005 64.0106C57.2005 63.5176 57.3175 63.0848 57.5504 62.7122C57.7833 62.3328 58.0957 62.017 58.4887 61.7636C58.8989 61.4964 59.3513 61.3005 59.8269 61.1843C60.3268 61.0514 60.8425 60.9843 61.3742 60.9843C62.3193 60.9843 63.1656 61.1275 63.9108 61.4138V63.4415C63.1918 62.9485 62.3659 62.7031 61.4344 62.7031C61.1655 62.7 60.8974 62.7297 60.6358 62.7917C60.4029 62.8519 60.2041 62.9349 60.0371 63.0416C59.8788 63.1397 59.7455 63.273 59.6474 63.4313C59.5545 63.5771 59.506 63.7468 59.5077 63.9198C59.5014 64.1158 59.5498 64.3097 59.6474 64.4798C59.7406 64.632 59.8769 64.7695 60.0564 64.8888C60.2427 65.0024 60.4631 65.108 60.7153 65.208C60.9754 65.3011 61.2719 65.4045 61.6048 65.5181C62.0433 65.6976 62.4363 65.8816 62.7828 66.0668C63.135 66.2531 63.4349 66.4667 63.6802 66.7064C63.9268 66.9393 64.1165 67.2119 64.2505 67.5243C64.3834 67.831 64.4493 68.1968 64.4493 68.6228C64.4493 69.142 64.33 69.5952 64.0903 69.9803C63.8518 70.3666 63.5314 70.6869 63.1316 70.9391C62.7045 71.2032 62.2354 71.3923 61.7445 71.498C61.205 71.6269 60.652 71.6905 60.0973 71.6877C58.9783 71.6877 58.0105 71.5014 57.1914 71.1288Z" fill="#425066"/>
<path d="M71.1788 71.6877C69.6021 71.6877 68.34 71.2118 67.3959 70.2609C66.4565 69.3021 65.9873 68.0344 65.9873 66.4553C65.9873 64.74 66.4758 63.3983 67.455 62.4327C68.4399 61.4671 69.7645 60.9843 71.4288 60.9843C73.026 60.9843 74.271 61.4546 75.1628 62.393C76.0545 63.3313 76.501 64.632 76.501 66.2963C76.501 67.9276 76.0182 69.2351 75.0526 70.22C74.0949 71.1993 72.8033 71.6877 71.1788 71.6877ZM71.289 62.8315C70.3836 62.8315 69.6679 63.1484 69.142 63.78C68.616 64.4128 68.3536 65.2852 68.3536 66.3962C68.3536 67.4686 68.6194 68.3138 69.1522 68.9329C69.685 69.5452 70.3973 69.8508 71.289 69.8508C72.2012 69.8508 72.8999 69.5486 73.3861 68.942C73.878 68.3365 74.1245 67.4743 74.1245 66.3565C74.1245 65.2318 73.878 64.3628 73.3861 63.7505C72.8999 63.1382 72.2012 62.8315 71.289 62.8315Z" fill="#425066"/>
<path d="M84.7885 63.4313C84.509 63.2109 84.1069 63.1019 83.5798 63.1019C82.8948 63.1019 82.3222 63.4108 81.8633 64.03C81.4032 64.6491 81.1737 65.4909 81.1737 66.5564V71.448H78.8574V61.224H81.1749V63.3313H81.2135C81.4407 62.6122 81.786 62.0533 82.2518 61.6535C82.7244 61.2479 83.2515 61.0446 83.8297 61.0446C84.25 61.0446 84.5681 61.1082 84.7885 61.2343V63.4313Z" fill="#425066"/>
<path d="M94.4126 59.1474H89.0621V63.4506H93.9934V65.4579H89.0609V71.4481H86.6855V57.131H94.4126V59.1474Z" fill="#425066"/>
<path d="M99.0258 71.448H96.6992V56.312H99.0258V71.448Z" fill="#425066"/>
<path d="M106.573 71.6877C104.997 71.6877 103.734 71.2118 102.79 70.2609C101.851 69.3021 101.382 68.0344 101.382 66.4553C101.382 64.74 101.87 63.3983 102.85 62.4327C103.834 61.4671 105.159 60.9843 106.823 60.9843C108.42 60.9843 109.666 61.4546 110.557 62.393C111.45 63.3313 111.896 64.632 111.896 66.2963C111.896 67.9276 111.413 69.2351 110.448 70.22C109.489 71.1993 108.199 71.6877 106.574 71.6877H106.573ZM106.684 62.8315C105.778 62.8315 105.062 63.1484 104.537 63.78C104.012 64.4128 103.748 65.2852 103.748 66.3962C103.748 67.4686 104.015 68.3138 104.547 68.9329C105.081 69.5452 105.792 69.8508 106.684 69.8508C107.596 69.8508 108.294 69.5486 108.781 68.942C109.272 68.3365 109.519 67.4743 109.519 66.3565C109.519 65.2318 109.272 64.3628 108.781 63.7505C108.294 63.1382 107.596 62.8315 106.684 62.8315Z" fill="#425066"/>
<path d="M128 61.224L124.985 71.448H122.559L120.702 64.5184C120.624 64.2249 120.577 63.9242 120.562 63.621H120.522C120.494 63.9193 120.434 64.2137 120.343 64.4991L118.325 71.448H115.949L112.944 61.224H115.341L117.197 68.5933C117.257 68.8125 117.297 69.1045 117.316 69.4714H117.387C117.407 69.1919 117.459 68.892 117.546 68.574L119.613 61.224H121.79L123.627 68.6228C123.687 68.8557 123.73 69.1488 123.756 69.5021H123.827C123.84 69.2556 123.89 68.9625 123.977 68.6228L125.794 61.224H128Z" fill="#425066"/>
</svg>
