<svg width="128" height="128" viewBox="0 0 128 128" fill="none" xmlns="http://www.w3.org/2000/svg">
<path d="M3.219 99.523V97.168H1.102V99.516H0V93.875H1.102V96.246H3.219V93.875H4.32V99.523H3.219ZM8.301 99.523H7.441L7.363 99.227C6.98495 99.4603 6.54923 99.5832 6.105 99.582C5.335 99.582 5.004 99.07 5.004 98.367C5.004 97.668 5.379 97.257 6.227 97.257H7.242V96.836C7.242 96.379 7.109 96.223 6.438 96.223C6.047 96.227 5.652 96.266 5.27 96.343L5.137 95.566C5.617 95.434 6.113 95.367 6.613 95.367C7.937 95.367 8.324 95.824 8.324 96.836L8.301 99.523ZM7.199 97.993H6.469C6.129 97.993 6.031 98.078 6.031 98.391C6.031 98.703 6.129 98.801 6.449 98.801C6.72683 98.7981 6.99949 98.7256 7.242 98.59L7.199 97.993ZM10.504 99.613C10.0109 99.6058 9.52145 99.5269 9.051 99.379L9.191 98.602C9.601 98.715 10.023 98.777 10.449 98.782C10.914 98.782 10.989 98.68 10.989 98.367C10.989 98.059 10.989 97.992 10.25 97.836C9.227 97.59 9.148 97.344 9.148 96.555C9.148 95.765 9.523 95.379 10.727 95.379C11.148 95.379 11.57 95.426 11.98 95.523L11.883 96.332C11.501 96.2645 11.1147 96.224 10.727 96.211C10.262 96.211 10.184 96.313 10.184 96.566C10.184 96.824 10.184 96.922 10.781 97.055C11.961 97.355 12.071 97.512 12.071 98.348C12.071 99.18 11.785 99.602 10.516 99.602L10.504 99.613ZM15.332 99.523V96.68C15.332 96.457 15.234 96.355 14.992 96.355C14.605 96.398 14.23 96.515 13.891 96.699V99.523H12.785V93.797L13.891 93.953V95.753C14.3728 95.5182 14.8984 95.3867 15.434 95.367C16.125 95.367 16.379 95.844 16.379 96.567V99.523H15.332ZM17.273 94.879V93.875H18.375V94.879H17.273ZM17.273 99.523V95.445H18.375V99.523H17.273ZM19.168 95.488C19.168 94.465 19.785 93.875 21.218 93.875C21.746 93.8778 22.2718 93.9419 22.785 94.066L22.665 94.976C22.201 94.8709 21.729 94.8043 21.254 94.777C20.504 94.777 20.262 95.031 20.262 95.621V97.77C20.262 98.36 20.504 98.613 21.254 98.613C21.7271 98.6022 22.1985 98.554 22.664 98.469L22.785 99.379C22.2721 99.503 21.7466 99.5671 21.219 99.57C19.785 99.57 19.168 98.98 19.168 97.957V95.488ZM25.109 99.613C23.668 99.613 23.281 98.848 23.281 98.012V97C23.281 96.168 23.668 95.398 25.109 95.398C26.555 95.398 26.941 96.168 26.941 97V98.035C26.941 98.835 26.555 99.602 25.109 99.602V99.613ZM25.109 96.277C24.547 96.277 24.329 96.523 24.329 96.98V98.09C24.329 98.547 24.547 98.793 25.109 98.793C25.672 98.793 25.895 98.547 25.895 98.09V96.98C25.895 96.477 25.672 96.234 25.109 96.234V96.277ZM29.906 96.344C29.523 96.512 29.156 96.711 28.805 96.934V99.559H27.699V95.445H28.66V95.891C29.0024 95.6651 29.3729 95.4849 29.762 95.355L29.906 96.344ZM34.172 98.114C34.2013 98.3059 34.1858 98.5019 34.1268 98.6868C34.0678 98.8717 33.9669 99.0405 33.832 99.18C33.559 99.46 33.172 99.598 32.782 99.547C32.4118 99.5398 32.043 99.4993 31.68 99.426V101.094L30.578 101.25V95.445H31.414L31.516 95.789C31.906 95.512 32.371 95.363 32.848 95.367C33.699 95.367 34.148 95.855 34.148 96.777L34.172 98.114ZM31.66 98.57C31.965 98.637 32.281 98.672 32.594 98.68C32.969 98.68 33.125 98.504 33.125 98.137V96.757C33.125 96.422 32.992 96.234 32.605 96.234C32.262 96.246 31.93 96.375 31.668 96.602L31.66 98.57ZM6.426 108.043H0V104.172H17.207V108.043H10.781V127.391H6.426V108.043Z" fill="black"/>
<path d="M21.1762 124.242C22.9225 124.234 24.6579 123.965 26.3242 123.442L26.9842 126.645C25.0045 127.376 22.9115 127.753 20.8012 127.758C15.5082 127.758 13.6802 125.278 13.6802 121.207V116.757C13.6802 113.168 15.2662 110.09 20.6562 110.09C26.0462 110.09 27.2702 113.258 27.2702 116.914V120.539H17.9022V121.406C17.9022 123.441 18.6172 124.242 21.1762 124.242ZM17.8672 117.094H23.2272V116.258C23.2272 114.656 22.7422 113.547 20.6682 113.547C18.5982 113.547 17.8682 114.657 17.8682 116.257L17.8672 117.094ZM38.5272 113.969C36.9947 114.679 35.5202 115.509 34.1172 116.449V127.391H29.8522V110.411H33.4102L33.6882 112.289C35.0534 111.356 36.5363 110.609 38.0982 110.066L38.5272 113.969ZM48.8202 113.969C47.2882 114.68 45.8137 115.509 44.4102 116.449V127.391H40.1452V110.411H43.7072L43.9802 112.289C45.3459 111.357 46.8287 110.61 48.3902 110.066L48.8202 113.969ZM62.9102 127.379H59.4572L59.1482 126.266C57.6623 127.243 55.9234 127.764 54.1452 127.766C51.0702 127.766 49.7352 125.645 49.7352 122.719C49.7352 119.273 51.2232 117.949 54.6412 117.949H58.6882V116.172C58.6882 114.289 58.1682 113.625 55.4802 113.625C53.9102 113.641 52.3482 113.816 50.8162 114.145L50.2962 110.91C52.1741 110.387 54.1137 110.118 56.0632 110.11C61.3552 110.11 62.9102 111.988 62.9102 116.246V127.379ZM58.7002 120.961H55.5902C54.2102 120.961 53.8242 121.34 53.8242 122.629C53.8242 123.922 54.1992 124.344 55.5242 124.344C56.6386 124.327 57.7307 124.029 58.6992 123.477L58.7002 120.961ZM75.8712 106.543C75.0778 106.369 74.2692 106.275 73.4572 106.262C71.8052 106.262 71.5632 106.996 71.5632 108.285V110.41H75.8402L75.5982 113.746H71.5502V127.332H67.3402V113.789H64.6402V110.453H67.3282V108.043C67.3282 104.516 68.9492 102.781 72.6882 102.781C73.9102 102.777 75.1332 102.941 76.3122 103.273L75.8712 106.543ZM84.0942 127.734C78.3282 127.734 76.7772 124.531 76.7772 121.063V116.77C76.7772 113.29 78.3282 110.098 84.0942 110.098C89.8592 110.098 91.4262 113.301 91.4262 116.77V121.063C91.4142 124.52 89.8592 127.734 84.0942 127.734ZM84.0942 113.691C81.8912 113.691 80.9882 114.703 80.9882 116.613V121.183C80.9882 123.098 81.8482 124.109 84.0942 124.109C86.3442 124.109 87.2042 123.098 87.2042 121.184V116.614C87.2042 114.691 86.3322 113.68 84.0942 113.68V113.691ZM102.262 113.969C100.73 114.68 99.2557 115.509 97.8522 116.449V127.391H93.5982V110.411H97.1562L97.4342 112.289C98.7994 111.356 100.282 110.609 101.844 110.066L102.262 113.969ZM113.836 127.379V115.535C113.836 114.637 113.461 114.18 112.492 114.18C110.942 114.355 109.442 114.844 108.082 115.613V127.391H103.891V110.411H107.101L107.52 111.844C109.615 110.786 111.91 110.18 114.254 110.066C114.906 110.006 115.56 110.148 116.128 110.472C116.696 110.797 117.151 111.288 117.43 111.879C119.528 110.794 121.836 110.176 124.195 110.066C126.996 110.066 128 112.055 128 115.082V127.379H123.79V115.535C123.79 114.637 123.414 114.18 122.445 114.18C120.89 114.34 119.387 114.829 118.035 115.613V127.391L113.836 127.379Z" fill="black"/>
<path fill-rule="evenodd" clip-rule="evenodd" d="M52.3359 15.434L75.6639 29.02V56.195L52.3359 42.605V15.434Z" fill="#5C4EE5"/>
<path fill-rule="evenodd" clip-rule="evenodd" d="M78.2192 29.02V56.195L101.555 42.605V15.434L78.2192 29.02Z" fill="#4040B2"/>
<path fill-rule="evenodd" clip-rule="evenodd" d="M26.457 0.265999V27.44L49.781 41.026V13.855L26.457 0.265999ZM52.336 72.75L75.664 86.34V59.176L52.336 45.586V72.75Z" fill="#5C4EE5"/>
</svg>
