<svg width="128" height="128" viewBox="0 0 128 128" fill="none" xmlns="http://www.w3.org/2000/svg">
<path d="M43.9 105.9H7.2L16.7 83.4H42.4L71 17.1H40.3L17.8 69.5H31.6C32.6 71.1 34.3 72.2 36.3 72.2C39.3 72.2 41.8 69.7 41.8 66.7C41.8 63.7 39.3 61.2 36.3 61.2C34.1 61.2 32.2 62.5 31.3 64.4H24.7L43.4 22.1H63.5L39.4 78.3L14 78.5L0 110.9H47.2L53.4 97.4H73.9L80.7 110.9H128L85.3 17.1L43.9 105.9ZM56 92.1L63.4 76L71.4 92.1H56ZM83.8 106.5L79.1 97.1H93.7C94.7 98.9 96.5 100.1 98.6 100.1C101.6 100.1 104.1 97.6 104.1 94.6C104.1 91.6 101.6 89.1 98.6 89.1C96.4 89.1 94.4 90.5 93.5 92.4H76.9L65.8 70.6L74 52.6L83.2 71.4H87.5C88.4 73.2 90.3 74.6 92.5 74.6C95.5 74.6 98 72.1 98 69.1C98 66.1 95.5 63.6 92.5 63.6C90.2 63.6 88.2 65 87.4 67.1H85.8L76.3 47.7L85.4 27.8L121 106.5H83.8Z" fill="#00BCB4"/>
</svg>
