<svg width="128" height="128" viewBox="0 0 128 128" fill="none" xmlns="http://www.w3.org/2000/svg">
<path d="M49.4998 79.1H22.9998L29.8998 62.8H48.3998L68.9998 15.1H46.8998L30.6998 52.9H40.6998C41.3998 54.1 42.6998 54.9 44.0998 54.9C46.2998 54.9 48.0998 53.1 48.0998 50.9C48.0998 48.7 46.2998 47 44.0998 47C42.4998 47 41.0998 47.9 40.4998 49.3H35.7998L49.2998 18.7H63.7998L46.1998 59.2L27.8998 59.3L17.7998 82.7H51.7998L56.2998 73H71.0998L75.9998 82.7H110.2L79.2998 15.1L49.4998 79.1ZM58.1998 69.2L63.4998 57.6L69.2998 69.2H58.1998ZM78.2998 79.5L74.8998 72.7H85.3998C86.0998 74 87.3998 74.8 88.8998 74.8C91.0998 74.8 92.8998 73 92.8998 70.8C92.8998 68.6 91.0998 66.8 88.8998 66.8C87.2998 66.8 85.8998 67.8 85.2998 69.2H73.2998L65.2998 53.6L71.1998 40.6L77.8998 54.1H80.9998C81.5998 55.4 82.9998 56.4 84.5998 56.4C86.7998 56.4 88.5998 54.6 88.5998 52.4C88.5998 50.2 86.7998 48.4 84.5998 48.4C82.8998 48.4 81.4998 49.4 80.8998 50.9H79.6998L72.7998 36.9L79.2998 22.5L105 79.5H78.2998Z" fill="#00BCB4"/>
<path d="M19.1998 99.7H16.9998V107.5H14.3998V99.7H12.2998V97.5H19.1998V99.7ZM27.2998 107.6H24.8998V104.2C24.8998 103.6 24.7998 103.2 24.6998 103C24.4998 102.7 24.1998 102.6 23.7998 102.6C23.3998 102.6 23.0998 102.7 22.8998 103C22.6998 103.2 22.5998 103.6 22.5998 104.1V107.7H20.1998V96.7H22.5998V101.8C22.8998 101.5 23.0998 101.3 23.3998 101.1C23.7998 100.9 24.2998 100.8 24.7998 100.8C25.4998 100.8 26.0998 101 26.5998 101.4C27.0998 101.8 27.3998 102.5 27.3998 103.4V107.6H27.2998ZM36.0998 104.6H31.0998C31.0998 105.6 31.5998 106.1 32.5998 106.1C33.0998 106.1 33.4998 105.9 33.7998 105.5H35.9998C35.7998 106.1 35.4998 106.6 35.1998 106.9C34.4998 107.5 33.6998 107.8 32.5998 107.8C31.1998 107.8 30.1998 107.4 29.4998 106.5C28.9998 105.9 28.6998 105.1 28.6998 104.2C28.6998 103.1 28.9998 102.2 29.6998 101.6C30.3998 101 31.2998 100.6 32.4998 100.6C33.9998 100.6 34.9998 101.1 35.6998 102.2C36.0998 102.8 36.1998 103.5 36.1998 104.3V104.6H36.0998ZM33.8998 103.2C33.6998 102.4 33.2998 102.1 32.4998 102.1C32.0998 102.1 31.7998 102.2 31.4998 102.5C31.2998 102.7 31.1998 103 31.0998 103.3H33.8998V103.2ZM51.3998 107.6H48.5998L47.9998 105.9H44.3998L43.6998 107.6H40.9998L44.7998 97.6H47.5998L51.3998 107.6ZM47.1998 103.8L46.0998 100.6L44.9998 103.8H47.1998ZM54.6998 107.6H52.2998V96.6H54.6998V107.6ZM63.8998 107.1C63.8998 107.7 63.8998 108.2 63.7998 108.5C63.6998 109.1 63.2998 109.6 62.7998 110.1C62.0998 110.7 61.1998 111 59.9998 111C58.7998 111 57.7998 110.7 57.0998 110C56.5998 109.6 56.2998 109.1 56.1998 108.7C56.1998 108.7 56.1998 108.5 56.0998 108.4H58.7998C58.8998 108.6 58.9998 108.8 59.0998 108.9C59.2998 109.1 59.5998 109.1 59.8998 109.1C60.4998 109.1 60.8998 108.9 61.1998 108.5C61.3998 108.3 61.4998 107.9 61.4998 107.4V106.8C61.1998 107.1 60.9998 107.2 60.7998 107.4C60.3998 107.6 59.8998 107.7 59.3998 107.7C58.6998 107.7 58.0998 107.5 57.4998 107.2C56.8998 106.8 56.4998 106.3 56.2998 105.7C56.0998 105.3 56.0998 104.8 56.0998 104.3C56.0998 103.2 56.4998 102.3 57.1998 101.6C57.8998 101 58.6998 100.6 59.5998 100.6C60.0998 100.6 60.4998 100.7 60.8998 100.9C61.0998 101 61.3998 101.2 61.5998 101.5V100.8H63.9998V107.1H63.8998ZM61.5998 104.1C61.5998 103.7 61.4998 103.3 61.1998 103C60.8998 102.7 60.4998 102.5 60.0998 102.5C59.5998 102.5 59.1998 102.7 58.8998 103.1C58.6998 103.4 58.4998 103.7 58.4998 104.1C58.4998 104.5 58.5998 104.9 58.8998 105.2C59.1998 105.5 59.5998 105.7 59.9998 105.7C60.3998 105.7 60.7998 105.5 61.0998 105.2C61.4998 104.9 61.5998 104.6 61.5998 104.1ZM73.4998 104.2C73.4998 105.1 73.1998 106 72.5998 106.6C71.7998 107.4 70.7998 107.8 69.3998 107.8C67.9998 107.8 66.9998 107.4 66.1998 106.6C65.5998 105.9 65.2998 105.1 65.2998 104.1C65.2998 103.2 65.5998 102.4 66.1998 101.7C66.9998 100.9 67.9998 100.5 69.3998 100.5C70.6998 100.5 71.6998 100.9 72.4998 101.7C73.1998 102.4 73.4998 103.2 73.4998 104.2ZM70.9998 104.2C70.9998 103.8 70.7998 103.4 70.4998 103.1C70.1998 102.8 69.7998 102.6 69.3998 102.6C68.8998 102.6 68.4998 102.8 68.1998 103.2C67.8998 103.5 67.7998 103.8 67.7998 104.2C67.7998 104.6 67.8998 104.9 68.1998 105.2C68.4998 105.6 68.8998 105.8 69.3998 105.8C69.7998 105.8 70.1998 105.6 70.4998 105.3C70.7998 105 70.9998 104.6 70.9998 104.2ZM79.8998 103C79.5998 102.8 79.1998 102.8 78.8998 102.8C78.0998 102.8 77.5998 103.1 77.3998 103.8C77.2998 104 77.2998 104.3 77.2998 104.7V107.6H74.8998V100.8H77.2998V101.9C77.5998 101.5 77.7998 101.2 78.0998 101C78.4998 100.8 78.9998 100.6 79.4998 100.6H79.9998V103H79.8998ZM83.5998 98.2C83.5998 98.6 83.4998 98.9 83.1998 99.2C82.8998 99.5 82.5998 99.6 82.1998 99.6C81.7998 99.6 81.4998 99.5 81.1998 99.2C80.8998 98.9 80.7998 98.6 80.7998 98.2C80.7998 97.8 80.8998 97.5 81.1998 97.2C81.4998 96.9 81.7998 96.8 82.1998 96.8C82.5998 96.8 82.8998 96.9 83.1998 97.2C83.4998 97.5 83.5998 97.8 83.5998 98.2ZM83.3998 107.6H80.9998V100.8H83.3998V107.6ZM89.0998 102.7H87.6998V107.5H85.2998V102.7H84.4998V100.7H85.2998V98.7H87.6998V100.7H89.0998V102.7ZM97.1998 107.6H94.7998V104.2C94.7998 103.6 94.6998 103.2 94.5998 103C94.3998 102.7 94.0998 102.6 93.6998 102.6C93.2998 102.6 92.9998 102.7 92.7998 103C92.5998 103.2 92.4998 103.6 92.4998 104.1V107.7H89.9998V96.7H92.3998V101.8C92.6998 101.5 92.8998 101.3 93.1998 101.1C93.5998 100.9 94.0998 100.8 94.5998 100.8C95.2998 100.8 95.8998 101 96.3998 101.4C96.8998 101.8 97.1998 102.5 97.1998 103.4V107.6ZM110.3 107.6H107.9V104.2C107.9 103.6 107.8 103.2 107.7 103C107.5 102.7 107.2 102.5 106.9 102.5C106.5 102.5 106.2 102.7 106 103C105.8 103.2 105.8 103.6 105.8 104.2V107.6H103.4V104.2C103.4 103.6 103.4 103.2 103.3 103.1C103.1 102.7 102.8 102.6 102.4 102.6C102 102.6 101.7 102.8 101.5 103.1C101.4 103.2 101.4 103.4 101.3 103.5C101.3 103.7 101.2 103.9 101.2 104.3V107.7H98.7998V100.9H101.2V101.7C101.5 101.4 101.7 101.2 102 101.1C102.4 100.9 102.9 100.8 103.4 100.8C104.1 100.8 104.6 101 105.1 101.3C105.3 101.5 105.5 101.7 105.7 102C105.9 101.7 106.1 101.5 106.3 101.3C106.8 100.9 107.3 100.7 108 100.7C108.5 100.7 109 100.8 109.4 101.1C109.8 101.4 110.1 101.7 110.2 102.2C110.3 102.5 110.3 102.8 110.3 103.2V107.6ZM117.5 105.3C117.5 106 117.2 106.6 116.7 107.1C116.1 107.6 115.3 107.9 114.2 107.9C113.3 107.9 112.4 107.6 111.5 107.1L112.4 105.4C113.1 105.8 113.7 106.1 114.3 106.1C114.8 106.1 115.1 105.9 115.1 105.6C115.1 105.4 115 105.3 114.8 105.2C114.7 105.1 114.4 105.1 114 105C113.6 104.9 113.3 104.8 113.1 104.8C112.6 104.6 112.3 104.3 112.1 103.9C112 103.7 112 103.4 112 103.1C112 102.5 112.2 102 112.6 101.5C113.1 100.9 113.9 100.6 115 100.6C115.8 100.6 116.5 100.7 117.2 101L116.4 102.6C116 102.4 115.5 102.2 115.1 102.2C114.6 102.2 114.4 102.4 114.4 102.7C114.4 102.9 114.5 103 114.7 103.1C114.8 103.1 115 103.2 115.5 103.3C116.1 103.4 116.6 103.6 116.9 103.9C117.3 104.2 117.5 104.7 117.5 105.3Z" fill="#595959"/>
</svg>
