<svg width="128" height="128" viewBox="0 0 128 128" fill="none" xmlns="http://www.w3.org/2000/svg">
<path d="M16.2192 15.762C16.0496 15.765 15.883 15.8062 15.7315 15.8825C15.5801 15.9587 15.4478 16.0681 15.3444 16.2025C15.2411 16.3369 15.1693 16.4929 15.1345 16.6588C15.0996 16.8247 15.1026 16.9964 15.1432 17.161L39.5372 115.903C39.5845 116.096 39.6818 116.272 39.8191 116.415C39.9564 116.558 40.129 116.663 40.3195 116.718C40.51 116.773 40.7116 116.777 40.9041 116.729C41.0966 116.682 41.2732 116.584 41.4162 116.447L114.802 45.857C114.945 45.7196 115.049 45.5469 115.104 45.3564C115.16 45.1659 115.163 44.9642 115.116 44.7717C115.068 44.5792 114.971 44.4026 114.833 44.2598C114.696 44.1169 114.523 44.0129 114.332 43.958L16.5502 15.806C16.4426 15.775 16.3311 15.7602 16.2192 15.762ZM17.8032 18.516L111.827 45.586L41.2612 113.463L17.8032 18.516Z" fill="black"/>
<path d="M65.1373 29.84C64.9887 29.8368 64.8409 29.863 64.7024 29.917C64.5639 29.9711 64.4374 30.0519 64.3303 30.155L27.6543 65.46C27.5115 65.5975 27.4075 65.7702 27.3527 65.9606C27.2978 66.1511 27.2941 66.3526 27.3418 66.545C27.3896 66.7373 27.4871 66.9137 27.6246 67.0565C27.7621 67.1992 27.9348 67.3032 28.1253 67.358L76.9843 81.44C77.1746 81.4949 77.376 81.4987 77.5683 81.4511C77.7605 81.4036 77.9369 81.3063 78.0797 81.169C78.2224 81.0317 78.3266 80.8592 78.3816 80.669C78.4367 80.4787 78.4407 80.2773 78.3933 80.085L66.2103 30.698C66.1507 30.4569 66.0133 30.2421 65.8193 30.087C65.6253 29.9319 65.3856 29.8451 65.1373 29.84ZM64.4863 33.14L75.7343 78.73L30.6303 65.73L64.4863 33.14Z" fill="black"/>
<path d="M46.914 47.313C46.7445 47.316 46.5778 47.3572 46.4264 47.4335C46.2749 47.5097 46.1426 47.6191 46.0393 47.7535C45.9359 47.8879 45.8641 48.0439 45.8293 48.2098C45.7944 48.3757 45.7974 48.5474 45.838 48.712L51.892 73.243C51.9394 73.4357 52.0367 73.6124 52.1742 73.7555C52.3116 73.8986 52.4844 74.0029 52.675 74.058C52.8656 74.113 53.0674 74.1169 53.26 74.0691C53.4526 74.0214 53.6292 73.9237 53.772 73.786L71.994 56.223C72.1367 56.0854 72.2407 55.9127 72.2955 55.7222C72.3503 55.5317 72.3539 55.3301 72.3061 55.1377C72.2582 54.9453 72.1606 54.7689 72.0229 54.6263C71.8853 54.4836 71.7125 54.3797 71.522 54.325L47.245 47.357C47.1374 47.326 47.0259 47.3112 46.914 47.313ZM48.497 50.064L69.019 55.954L53.614 70.8L48.497 50.064Z" fill="black"/>
<path d="M40.9023 22.809C40.7536 22.8059 40.6058 22.8322 40.4673 22.8865C40.3288 22.9407 40.2024 23.0218 40.0953 23.125L21.8733 40.687C21.7306 40.8246 21.6266 40.9973 21.5718 41.1878C21.517 41.3783 21.5134 41.5799 21.5612 41.7723C21.609 41.9647 21.7067 42.1411 21.8443 42.2837C21.982 42.4264 22.1547 42.5303 22.3453 42.585L46.6183 49.554C46.8086 49.6087 47.01 49.6124 47.2023 49.5647C47.3945 49.517 47.5708 49.4196 47.7135 49.2822C47.8561 49.1448 47.9601 48.9723 48.015 48.782C48.0699 48.5917 48.0738 48.3903 48.0263 48.198L41.9753 23.668C41.9161 23.4265 41.7788 23.2113 41.5848 23.0558C41.3908 22.9003 41.1509 22.8132 40.9023 22.808V22.809ZM40.2523 26.109L45.3663 46.845L24.8493 40.955L40.2523 26.108V26.109ZM89.4533 36.793C89.3048 36.7901 89.1571 36.8164 89.0188 36.8707C88.8805 36.9249 88.7542 37.0059 88.6473 37.109L70.4233 54.67C70.2803 54.8075 70.1761 54.9804 70.1212 55.171C70.0662 55.3616 70.0625 55.5634 70.1104 55.7559C70.1582 55.9485 70.256 56.125 70.3938 56.2677C70.5316 56.4105 70.7045 56.5144 70.8953 56.569L95.1693 63.537C95.3596 63.5917 95.561 63.5954 95.7533 63.5477C95.9455 63.5 96.1218 63.4026 96.2645 63.2652C96.4071 63.1278 96.5111 62.9553 96.566 62.765C96.6209 62.5747 96.6248 62.3733 96.5773 62.181L90.5273 37.651C90.4679 37.4095 90.3304 37.1944 90.1362 37.0391C89.942 36.8838 89.7019 36.7969 89.4533 36.792V36.793ZM88.8033 40.093L93.9173 60.83L73.4003 54.94L88.8033 40.094V40.093ZM52.9443 71.864C52.6673 71.8746 52.4039 71.9867 52.2043 72.179L33.9823 89.742C33.8396 89.8796 33.7356 90.0523 33.6808 90.2428C33.626 90.4333 33.6224 90.6349 33.6702 90.8273C33.718 91.0197 33.8157 91.1961 33.9533 91.3387C34.091 91.4814 34.2637 91.5853 34.4543 91.64L58.7323 98.608C58.9225 98.6624 59.1236 98.6659 59.3156 98.6182C59.5076 98.5704 59.6836 98.473 59.8261 98.3358C59.9686 98.1986 60.0725 98.0263 60.1275 97.8363C60.1825 97.6462 60.1865 97.4451 60.1393 97.253L54.0843 72.722C54.0221 72.4696 53.8747 72.2464 53.667 72.0901C53.4593 71.9338 53.204 71.8539 52.9443 71.864ZM52.3623 75.164L57.4803 95.901L36.9583 90.011L52.3623 75.165V75.164Z" fill="black"/>
</svg>
