<svg width="128" height="128" viewBox="0 0 128 128" fill="none" xmlns="http://www.w3.org/2000/svg">
<path d="M22.148 62.305C23.6841 64.1926 25.3047 66.0098 27.005 67.751C21.819 69.311 18.419 72.209 16.299 74.767C12.943 78.817 11.167 84.165 11.576 88.755H2.646C4.436 84.868 11.586 73.641 22.149 62.305H22.148ZM125.597 91.19H114.74C89.83 78.192 67.96 69.026 44.728 67.023C44.777 63.791 45.352 60.13 46.459 56.052L44.319 55.476C43.183 59.668 42.587 63.461 42.519 66.856C40.098 66.694 37.662 66.615 35.202 66.615C33.121 66.615 31.222 66.807 29.49 67.141C27.232 64.888 25.308 62.733 23.675 60.691C34.39 49.533 52.039 39.437 67.399 35.638C71.724 50.015 81.008 59.865 92.275 66.492C93.1013 66.0211 93.9134 65.5256 94.71 65.006L114.366 86.167L115.226 86.093C120.594 85.631 123.645 88.543 124.452 89.449C125.047 90.109 125.402 90.714 125.598 91.191L125.597 91.19Z" fill="#D1A41A"/>
<path d="M116.008 20.41C116.407 39.938 106.444 55.48 92.4952 63.451C68.8202 51.658 64.3622 21.774 68.3972 5.744C69.5192 11.874 71.5612 15.718 75.9692 17.602C85.5832 14.852 98.8132 14.635 108.559 17.322C112.619 14.369 114.193 9.858 115.054 5.917C116.126 10.502 116.004 20.411 116.008 20.411V20.41Z" fill="#FFDC76"/>
<path d="M60.0671 49.601L49.0961 42.244L56.4561 38.899L60.0671 49.601ZM49.7651 50.27L41.6041 46.124L45.8881 43.582L49.7651 50.27ZM38.9281 55.49L33.3081 51.609L37.0551 48.799L38.9281 55.49ZM93.3801 72.081L99.5361 69.271L96.8591 66.728L93.3801 72.081ZM96.7271 77.163L104.49 75.156L102.345 72.883L96.7271 77.163ZM92.8501 23.914L95.5261 14.682L88.7021 14.816L92.8501 23.914ZM74.2521 31.54L68.3621 31.942L67.6931 28.062L74.2521 31.54ZM73.3121 36.759L69.9661 37.695L69.2971 35.153L73.3121 36.759ZM110.778 32.879L115.191 33.548L116.131 30.604L110.778 32.879ZM109.838 38.364L113.184 39.568L113.986 37.16L109.838 38.364Z" fill="black"/>
<path d="M65.5381 47.202H78.4511V48.795H65.5381V47.202ZM65.5381 43.375H78.4511V44.969H65.5381V43.375ZM104.968 47.202H117.88V48.795H104.968V47.202ZM104.968 43.375H117.88V44.969H104.968V43.375ZM100.417 33.924H79.3741V32.49H85.9221C86.7291 29.038 86.8881 25.738 85.9161 24.065C85.5001 23.354 84.9261 23.021 84.1081 23.021C80.3641 23.021 78.8181 26.981 78.7531 27.149L78.7541 27.148L77.4111 26.644C77.4881 26.437 79.3611 21.587 84.1081 21.587C85.4331 21.587 86.4861 22.195 87.1541 23.343C88.3401 25.381 88.2011 28.905 87.3971 32.491H98.8871C100.414 28.006 103.601 25.891 108.927 25.891V27.326C103.155 27.326 101.537 29.773 100.383 32.491H106.653L106.638 33.918L100.416 33.925L100.417 33.924ZM101.361 41.01L101.371 41.009L101.361 41.01ZM101.361 41.01L101.371 41.009L101.361 41.01Z" fill="black"/>
<path d="M101.361 41.01L101.371 41.009C99.6692 38.499 99.1292 36.357 99.8412 33.917L98.3792 33.925C97.8702 35.549 98.0742 37.995 99.3292 40.095H84.7292C85.6172 38.315 86.4402 36.145 87.0422 33.925H85.5562C84.8922 36.28 83.9612 38.611 82.9122 40.457L82.5732 41.054L90.7662 46.211L86.1542 49.251L86.9442 50.449L92.0992 47.049L97.6652 50.682L98.4292 49.467L93.2692 46.275C93.2692 46.275 100.985 41.263 101.368 41.019L101.362 41.009L101.361 41.01ZM92.0822 45.344L86.0222 41.528L97.8652 41.531L92.0822 45.344Z" fill="black"/>
<path d="M118.414 18.68C118.405 16.186 117.628 5.642 116.2 2.74C112.328 4.21 105.283 8.97799 103.688 13.853C96.0459 12.712 87.4309 12.847 79.8839 14.153C78.6239 8.908 72.2959 4.894 67.5219 2.633C65.5079 6.031 64.6159 13.91 64.8419 19.498L64.8159 19.516C65.7019 42.985 77.2149 57.596 92.2689 66.453C107.759 57.603 118.824 40.348 118.395 18.67L118.415 18.68H118.414ZM105.526 14.156L105.695 14.187L105.525 14.156H105.526ZM104.562 13.989C104.698 14.011 104.835 14.036 104.971 14.059L104.562 13.989ZM116.005 20.374C116.403 39.901 106.44 55.444 92.4919 63.414C68.8179 51.618 64.3579 21.736 68.3949 5.707C69.5179 11.835 71.5549 15.679 75.9689 17.564C85.5789 14.814 98.8089 14.596 108.555 17.284C112.616 14.331 114.191 9.82 115.051 5.879C116.126 10.465 116.001 20.371 116.005 20.373V20.374Z" fill="black"/>
<path d="M126.104 87.933C123.673 85.213 118.91 83.926 114.932 84.021C112.109 80.661 95.7421 63.426 95.7421 63.426L94.6081 64.854L114.368 86.127L115.225 86.054C120.594 85.594 123.645 88.506 124.454 89.409C125.046 90.072 125.404 90.676 125.598 91.15H114.738C89.8271 78.151 67.9581 68.985 44.7251 66.988C44.7751 63.755 45.3511 60.095 46.4551 56.017L44.3191 55.437C43.1841 59.63 42.5851 63.426 42.5181 66.819C40.0981 66.659 37.6611 66.576 35.2031 66.576C33.1181 66.576 31.2201 66.769 29.4891 67.106C27.2301 64.849 25.3071 62.698 23.6721 60.656C34.4621 49.414 52.2821 39.254 67.7201 35.518L67.2181 33.355C50.5941 37.364 32.3961 48.278 22.2561 58.82C17.5501 52.468 15.6831 47.257 15.1281 43.307C14.4281 38.317 15.6181 33.741 18.5721 30.072C23.1951 24.328 29.7641 23.924 36.5181 25.06C36.3871 26.127 36.5271 27.146 36.9541 27.777C38.7401 30.415 48.3411 31.342 54.0711 28.785C49.8421 22.859 41.2761 19.965 38.9031 21.125C38.1171 21.509 37.5231 22.215 37.1171 23.037C34.7821 22.62 32.4631 22.309 30.7691 22.321C24.8121 22.365 20.2581 24.446 16.8471 28.684C13.5001 32.842 12.1471 38.004 12.9351 43.615C13.6811 48.929 16.3121 54.58 20.7211 60.441C19.9891 61.226 19.2811 62.002 18.5991 62.764C7.85307 74.79 -0.00292969 87.685 -0.00292969 89.822V90.929H14.1741L13.9261 89.617C13.1261 85.385 14.7241 80.096 17.9991 76.143C20.0561 73.661 23.4611 70.829 28.8081 69.523C33.5621 74.163 39.6201 79.09 46.3621 83.843H56.8981V82.737C56.8981 81.487 56.2781 80.394 55.1541 79.658C53.4891 78.57 50.9201 78.42 48.5601 79.225C46.3101 76.719 45.0481 73.372 44.7761 69.215C67.6411 71.239 89.5121 80.473 114.188 93.365H127.766L127.944 92.475C128.198 91.207 127.507 89.51 126.098 87.934L126.104 87.933ZM16.3001 74.728C12.9461 78.776 11.1681 84.122 11.5761 88.713H2.64307C4.43807 84.829 11.5861 73.603 22.1481 62.263C23.6841 64.1516 25.3051 65.9695 27.0061 67.711C21.8201 69.269 18.4201 72.168 16.2991 74.728H16.3001Z" fill="black"/>
<path d="M12.1221 98.818V101.513H18.9051V120.717H21.8781V101.513H28.6611V98.818H12.1221ZM109.277 100.458L108.231 103.951L105.889 104.981V106.552H108.189V115.862C108.189 117.536 108.589 118.832 109.42 119.709C110.251 120.586 111.493 121.01 113.089 121.01C113.514 121.01 113.986 120.965 114.502 120.876H114.507C115.035 120.796 115.442 120.692 115.742 120.546L115.879 120.481V118.147L115.569 118.237C115.351 118.301 115.042 118.367 114.651 118.435H114.649C114.261 118.491 113.859 118.52 113.441 118.52C112.691 118.52 112.144 118.29 111.731 117.825C111.322 117.363 111.104 116.688 111.104 115.759V106.552H115.762V104.179H111.104V100.459H109.277V100.458ZM37.7801 103.89C35.4051 103.89 33.5061 104.65 32.1501 106.168C30.7941 107.678 30.1261 109.781 30.1261 112.438C30.1261 114.156 30.4351 115.668 31.0591 116.966C31.6821 118.263 32.5751 119.27 33.7291 119.968C34.8811 120.666 36.2041 121.014 37.6771 121.014C40.0521 121.014 41.9551 120.254 43.3211 118.737C44.6871 117.209 45.3611 115.096 45.3611 112.438C45.3611 109.848 44.6811 107.758 43.3071 106.213C41.9441 104.668 40.0801 103.89 37.7801 103.89ZM56.6031 103.89C55.5341 103.89 54.5551 104.119 53.6791 104.577H53.6781C52.9381 104.968 52.3651 105.522 51.9041 106.177L51.5461 104.183H49.1251V120.722H52.0401V112.057C52.0401 110.005 52.3951 108.561 53.0431 107.723L53.0441 107.722C53.7061 106.871 54.7331 106.439 56.2071 106.439C57.3241 106.439 58.0941 106.741 58.5871 107.321H58.5881C59.0831 107.896 59.3501 108.791 59.3501 110.035V120.721H62.2641V111.515C62.2641 109.74 62.6231 108.462 63.2931 107.655C63.9631 106.85 64.9931 106.439 66.4611 106.439C67.5681 106.439 68.3331 106.739 68.8261 107.321H68.8271C69.3211 107.896 69.5891 108.79 69.5891 110.035V120.721H72.5041V110.005C72.5041 107.92 72.0441 106.362 71.0741 105.371V105.37C70.1181 104.374 68.6841 103.89 66.8271 103.89C65.6311 103.89 64.5541 104.143 63.6081 104.651C62.7874 105.091 62.0948 105.736 61.5981 106.524C60.7411 104.796 59.0491 103.89 56.6031 103.89ZM83.8351 103.89C81.3931 103.89 79.4641 104.649 78.1161 106.168V106.169C76.7781 107.689 76.1221 109.831 76.1221 112.555C76.1221 115.211 76.7691 117.305 78.0871 118.795H78.0881C79.4161 120.275 81.3001 121.014 83.6731 121.014C85.3321 121.014 86.7231 120.732 87.8431 120.152L87.9731 120.084V117.424L87.6391 117.561C86.2581 118.127 84.9191 118.407 83.6151 118.407C82.1071 118.407 81.0171 117.914 80.2621 116.92C79.5151 115.923 79.1251 114.465 79.1251 112.526C79.1251 110.477 79.5291 108.973 80.2971 107.995C81.0651 107.017 82.1961 106.527 83.7751 106.527C84.2401 106.527 84.7851 106.597 85.4061 106.74H85.4081L85.4091 106.741C85.9959 106.864 86.5712 107.037 87.1291 107.257L87.3611 107.349L88.2651 104.849L88.0751 104.752C87.6061 104.512 86.9851 104.314 86.2001 104.145C85.423 103.976 84.6302 103.891 83.8351 103.89ZM97.5891 103.92C96.6211 103.92 95.6531 104.044 94.6871 104.293C93.7657 104.528 92.8765 104.875 92.0391 105.326L91.8501 105.429L92.7741 107.729L93.0071 107.616C94.6741 106.806 96.1541 106.409 97.4431 106.409C98.5931 106.409 99.3771 106.698 99.8551 107.237H99.8561L99.8571 107.24C100.347 107.773 100.614 108.635 100.614 109.86V110.621L98.1241 110.702C95.5061 110.782 93.5211 111.245 92.1651 112.133C90.8101 113.021 90.1111 114.356 90.1111 116.041C90.1111 117.603 90.5851 118.85 91.5381 119.721C92.4991 120.588 93.8181 121.014 95.4511 121.014C96.6661 121.014 97.6911 120.836 98.5231 120.466C99.2931 120.119 100.04 119.466 100.781 118.591L101.231 120.721H103.471V109.523C103.471 107.608 102.994 106.168 102.001 105.259C101.022 104.352 99.5391 103.919 97.5891 103.919V103.92ZM37.7051 106.44C39.2631 106.44 40.3871 106.938 41.1611 107.942H41.1621L41.1631 107.944C41.9461 108.939 42.3561 110.43 42.3561 112.438C42.3561 114.466 41.9461 115.977 41.1611 116.992C40.3871 117.997 39.2721 118.495 37.7341 118.495C36.1971 118.495 35.0831 117.993 34.3081 116.978C33.5331 115.963 33.1281 114.457 33.1281 112.438C33.1281 110.399 33.5291 108.896 34.2921 107.913C35.0561 106.928 36.1661 106.439 37.7051 106.439V106.44ZM100.556 112.836V114.034C100.556 115.481 100.144 116.565 99.3271 117.345V117.346C98.5171 118.127 97.4041 118.524 95.9341 118.524C95.0171 118.524 94.3341 118.307 93.8521 117.894H93.8511C93.3811 117.484 93.1441 116.9 93.1441 116.07C93.1441 115.008 93.5201 114.286 94.3041 113.8C95.0991 113.303 96.4621 112.995 98.3741 112.928H98.3761L100.556 112.836Z" fill="black"/>
</svg>
