<svg width="128" height="128" viewBox="0 0 128 128" fill="none" xmlns="http://www.w3.org/2000/svg">
<path d="M56.4551 38.9L60.0671 49.6L49.0951 42.243L56.4551 38.9ZM45.8871 43.582L49.7641 50.27L41.6041 46.124L45.8871 43.582ZM37.0541 48.8L38.9271 55.49L33.3081 51.609L37.0541 48.8ZM96.8581 66.728L93.3801 72.08L99.5351 69.27L96.8581 66.728ZM102.344 72.883L96.7261 77.163L104.489 75.156L102.344 72.883ZM88.7011 14.816L92.8491 23.915L95.5251 14.683L88.7011 14.816ZM67.6931 28.062L74.2511 31.541L68.3611 31.942L67.6931 28.062ZM69.2971 35.153L73.3111 36.759L69.9661 37.695L69.2971 35.153ZM116.13 30.604L110.777 32.879L115.19 33.548L116.13 30.604ZM113.985 37.16L109.837 38.365L113.183 39.568L113.985 37.16Z" fill="black"/>
<path d="M65.5381 47.202H78.4501V48.795H65.5381V47.202ZM65.5381 43.375H78.4501V44.969H65.5381V43.375ZM104.967 47.202H117.879V48.795H104.967V47.202ZM104.967 43.375H117.879V44.969H104.967V43.375ZM100.416 33.924H79.3731V32.49H85.9221C86.7281 29.037 86.8871 25.737 85.9151 24.064C85.5001 23.353 84.9261 23.021 84.1071 23.021C80.3631 23.021 78.8171 26.98 78.7521 27.148L78.7531 27.147L77.4101 26.643C77.4871 26.436 79.3601 21.586 84.1071 21.586C85.4321 21.586 86.4851 22.194 87.1531 23.343C88.3391 25.38 88.2001 28.905 87.3961 32.49H98.8861C100.413 28.005 103.6 25.89 108.926 25.89V27.325C103.154 27.325 101.536 29.772 100.382 32.49H106.652L106.637 33.917L100.415 33.925L100.416 33.924ZM101.36 41.01L101.37 41.009C99.6681 38.499 99.1281 36.357 99.8401 33.917L98.3781 33.925C97.8691 35.549 98.0731 37.995 99.3281 40.095H84.7281C85.6161 38.315 86.4391 36.145 87.0411 33.925H85.5551C84.8921 36.28 83.9601 38.611 82.9121 40.457L82.5721 41.054L90.7651 46.211L86.1531 49.251L86.9431 50.449L92.0981 47.049L97.6641 50.682L98.4281 49.467L93.2681 46.275C93.2681 46.275 100.984 41.263 101.367 41.019L101.361 41.009L101.36 41.01ZM92.0811 45.344L86.0211 41.528L97.8641 41.531L92.0811 45.344Z" fill="black"/>
<path d="M118.413 18.68C118.403 16.186 117.627 5.643 116.199 2.74C112.327 4.211 105.282 8.978 103.687 13.853C96.0451 12.712 87.4301 12.847 79.8831 14.153C78.6231 8.908 72.2951 4.894 67.5211 2.633C65.5071 6.031 64.6151 13.91 64.8421 19.499L64.8151 19.516C65.7011 42.985 77.2141 57.596 92.2691 66.453C107.757 57.603 118.823 40.349 118.394 18.67L118.413 18.68ZM105.525 14.156L105.694 14.187L105.524 14.157L105.525 14.156ZM104.561 13.99C104.697 14.011 104.834 14.036 104.97 14.059L104.561 13.989V13.99ZM116.004 20.374C116.402 39.901 106.439 55.444 92.4911 63.414C68.8171 51.617 64.3571 21.736 68.3941 5.707C69.5171 11.835 71.5551 15.679 75.9681 17.564C85.5781 14.814 98.8081 14.596 108.554 17.284C112.615 14.331 114.19 9.82 115.05 5.88C116.124 10.466 116 20.371 116.004 20.373V20.374ZM126.103 87.934C123.672 85.214 118.908 83.926 114.931 84.021C112.108 80.661 95.7411 63.425 95.7411 63.425L94.6071 64.854L114.367 86.127L115.224 86.053C120.593 85.593 123.644 88.505 124.453 89.409C125.045 90.071 125.403 90.676 125.597 91.149H114.737C89.8271 78.151 67.9571 68.985 44.7251 66.988C44.7751 63.755 45.3511 60.095 46.4551 56.017L44.3191 55.437C43.1831 59.63 42.5851 63.426 42.5181 66.819C40.0971 66.659 37.6601 66.575 35.2021 66.575C33.1181 66.575 31.2201 66.769 29.4881 67.105C27.2301 64.849 25.3061 62.698 23.6711 60.656C34.4611 49.414 52.2811 39.254 67.7201 35.518L67.2181 33.355C50.5931 37.364 32.3961 48.278 22.2551 58.82C17.5491 52.468 15.6821 47.257 15.1281 43.307C14.4281 38.318 15.6181 33.741 18.5711 30.072C23.1951 24.328 29.7641 23.924 36.5181 25.06C36.3861 26.127 36.5261 27.146 36.9541 27.777C38.7401 30.415 48.3401 31.342 54.0711 28.786C49.8411 22.86 41.2761 19.966 38.9021 21.126C38.1161 21.51 37.5231 22.215 37.1161 23.037C34.7821 22.62 32.4631 22.309 30.7681 22.322C24.8121 22.365 20.2581 24.447 16.8471 28.685C13.5001 32.842 12.1471 38.005 12.9351 43.615C13.6811 48.929 16.3121 54.58 20.7211 60.441C19.9891 61.226 19.2811 62.002 18.5991 62.764C7.85207 74.79 -0.00292969 87.685 -0.00292969 89.822V90.929H14.1741L13.9261 89.616C13.1261 85.385 14.7241 80.096 17.9991 76.143C20.0551 73.661 23.4601 70.829 28.8071 69.522C33.5621 74.162 39.6191 79.089 46.3621 83.844H56.8971V82.737C56.8971 81.487 56.2771 80.394 55.1531 79.658C53.4891 78.57 50.9191 78.42 48.5591 79.225C46.3091 76.719 45.0481 73.372 44.7751 69.215C67.6411 71.239 89.5121 80.473 114.187 93.364H127.765L127.943 92.474C128.196 91.207 127.506 89.51 126.097 87.934H126.103ZM16.2981 74.727C12.9451 78.774 11.1681 84.121 11.5751 88.711H2.64307C4.43807 84.828 11.5861 73.601 22.1481 62.261C23.6838 64.1496 25.3044 65.9675 27.0051 67.709C21.8201 69.269 18.4201 72.167 16.2981 74.727Z" fill="black"/>
<path d="M11.8628 98.562V101.772H18.6458V120.978H22.1358V101.773H28.9178V98.562H11.8628ZM109.082 100.202L108.016 103.765L105.629 104.814V106.812H107.929V115.862C107.929 117.578 108.339 118.95 109.23 119.888C110.121 120.827 111.447 121.271 113.088 121.271C113.531 121.271 114.013 121.223 114.539 121.132L114.549 121.13C115.089 121.048 115.514 120.944 115.854 120.78L116.137 120.644V117.804L115.497 117.99C115.205 118.069 114.91 118.133 114.612 118.181H114.608C114.221 118.237 113.831 118.264 113.44 118.263C112.747 118.263 112.287 118.065 111.924 117.656C111.568 117.254 111.362 116.649 111.362 115.761V106.811H116.02V103.923H111.362V100.203H109.082V100.202ZM37.7788 103.63C35.3488 103.63 33.3628 104.42 31.9568 105.994C30.5498 107.559 29.8668 109.736 29.8668 112.435C29.8668 114.185 30.1808 115.737 30.8238 117.075C31.4658 118.412 32.3958 119.462 33.5938 120.187C34.7878 120.91 36.1638 121.271 37.6768 121.271C40.1068 121.271 42.0948 120.481 43.5108 118.908H43.5128V118.906C44.9298 117.321 45.6188 115.136 45.6188 112.435C45.6188 109.8 44.9208 107.64 43.4988 106.04C42.0888 104.44 40.1358 103.63 37.7788 103.63ZM56.6028 103.63C55.4968 103.63 54.4728 103.867 53.5578 104.345L53.5558 104.347C52.9328 104.677 52.5268 105.224 52.0888 105.737L51.7608 103.923H48.8668V120.978H52.2978V112.055C52.2978 110.031 52.6578 108.641 53.2478 107.879C53.8548 107.097 54.7828 106.695 56.2058 106.695C57.2758 106.695 57.9538 106.975 58.3878 107.486H58.3898L58.3918 107.488C58.8308 107.998 59.0918 108.825 59.0918 110.033V120.978H62.5218V111.513C62.5218 109.773 62.8758 108.556 63.4898 107.818C64.1028 107.081 65.0418 106.695 66.4598 106.695C67.5198 106.695 68.1938 106.974 68.6278 107.486L68.6298 107.488C69.0688 107.997 69.3298 108.825 69.3298 110.033V120.978H72.7608V110.003C72.7608 107.879 72.2928 106.246 71.2568 105.186C70.2418 104.129 68.7288 103.63 66.8268 103.63C65.5958 103.63 64.4698 103.89 63.4838 104.42C62.7028 104.84 62.1678 105.489 61.6708 106.161C60.7258 104.519 58.9848 103.63 56.6028 103.63ZM83.8328 103.63C81.3378 103.63 79.3228 104.417 77.9228 105.996H77.9208C76.5308 107.574 75.8618 109.786 75.8618 112.552C75.8618 115.25 76.5218 117.414 77.8918 118.962L77.8938 118.964L77.8948 118.966C79.2748 120.504 81.2458 121.271 83.6728 121.271C85.3608 121.271 86.7928 120.983 87.9598 120.378L88.2298 120.24V117.037L87.5398 117.32C86.1848 117.875 84.8798 118.146 83.6138 118.146C82.1638 118.146 81.1718 117.691 80.4658 116.761C79.7658 115.826 79.3818 114.428 79.3818 112.523C79.3818 110.508 79.7828 109.065 80.4988 108.152C81.2148 107.239 82.2488 106.782 83.7738 106.782C84.2128 106.782 84.7388 106.85 85.3468 106.99H85.3508L85.3538 106.992C85.9638 107.123 86.5238 107.29 87.0318 107.494L87.5108 107.687L88.5848 104.72L88.1918 104.52C87.6918 104.263 87.0508 104.062 86.2518 103.89C85.4566 103.718 84.6454 103.631 83.8318 103.63H83.8328ZM97.5888 103.66C96.5988 103.66 95.6088 103.786 94.6218 104.04H94.6198C93.6785 104.281 92.7702 104.636 91.9148 105.097L91.5248 105.308L92.6348 108.079L93.1178 107.845C94.7608 107.047 96.2068 106.665 97.4418 106.665C98.5488 106.665 99.2458 106.937 99.6618 107.405L99.6628 107.41L99.6668 107.412C100.095 107.878 100.355 108.67 100.355 109.857V110.369L98.1148 110.441C95.4698 110.521 93.4408 110.984 92.0228 111.914C90.6038 112.844 89.8528 114.284 89.8528 116.039C89.8528 117.651 90.3508 118.986 91.3628 119.909L91.3638 119.912C92.3798 120.829 93.7728 121.272 95.4498 121.272C96.6908 121.272 97.7498 121.09 98.6258 120.701L98.6278 120.699C99.3178 120.387 99.9608 119.709 100.607 119.019L101.021 120.979H103.727V109.52C103.727 107.564 103.239 106.038 102.177 105.065C101.132 104.098 99.5768 103.659 97.5888 103.659V103.66ZM37.7058 106.695C39.2068 106.695 40.2318 107.158 40.9558 108.097L40.9578 108.099L40.9598 108.101C41.6928 109.033 42.0988 110.462 42.0988 112.435C42.0988 114.429 41.6918 115.88 40.9558 116.832C40.2308 117.772 39.2158 118.234 37.7358 118.234C36.2558 118.234 35.2378 117.77 34.5128 116.82C33.7858 115.868 33.3858 114.42 33.3858 112.435C33.3858 110.43 33.7838 108.987 34.4968 108.068C35.2098 107.148 36.2238 106.695 37.7058 106.695ZM100.296 113.103V114.033C100.296 115.43 99.9078 116.429 99.1478 117.156L99.1458 117.158C98.3918 117.886 97.3548 118.263 95.9328 118.263C95.0568 118.263 94.4458 118.059 94.0208 117.697C93.6118 117.342 93.4008 116.847 93.4008 116.067C93.4008 115.071 93.7238 114.461 94.4388 114.017H94.4408C95.1648 113.564 96.4918 113.25 98.3818 113.183H98.3838L100.296 113.103Z" fill="black"/>
</svg>
