<svg width="128" height="128" viewBox="0 0 128 128" fill="none" xmlns="http://www.w3.org/2000/svg">
<path d="M49.0961 58.246L56.4561 54.901L60.0671 65.603L49.0961 58.246ZM41.6041 62.126L45.8881 59.584L49.7651 66.272L41.6041 62.126ZM33.3091 67.61L37.0551 64.8L38.9281 71.492L33.3091 67.61ZM99.5361 85.273L96.8591 82.73L93.3811 88.083L99.5361 85.273ZM104.49 91.158L102.345 88.884L96.7271 93.164L104.49 91.158ZM95.5261 30.684L88.7021 30.818L92.8501 39.916L95.5261 30.684ZM68.3621 47.943L67.6931 44.063L74.2521 47.542L68.3621 47.943ZM69.9661 53.696L69.2971 51.155L73.3121 52.76L69.9661 53.696ZM115.191 49.55L116.131 46.606L110.778 48.88L115.191 49.55ZM113.184 55.57L113.986 53.162L109.838 54.366L113.184 55.57Z" fill="black"/>
<path d="M65.5381 63.203H78.4511V64.797H65.5381V63.203ZM65.5381 59.377H78.4511V60.971H65.5381V59.377ZM104.968 63.203H117.88V64.797H104.968V63.203ZM104.968 59.377H117.88V60.971H104.968V59.377ZM100.417 49.926H79.3741V48.49H85.9221C86.7291 45.037 86.8881 41.737 85.9161 40.064C85.5001 39.354 84.9261 39.021 84.1081 39.021C80.3641 39.021 78.8181 42.98 78.7531 43.148L78.7541 43.147L77.4111 42.643C77.4881 42.436 79.3611 37.586 84.1081 37.586C85.4331 37.586 86.4861 38.194 87.1541 39.343C88.3401 41.38 88.2011 44.905 87.3971 48.49H98.8871C100.414 44.005 103.601 41.89 108.927 41.89V43.325C103.155 43.325 101.537 45.772 100.383 48.49H106.653L106.638 49.918L100.416 49.925L100.417 49.926ZM101.361 57.011L101.371 57.01C99.6691 54.5 99.1291 52.358 99.8411 49.919L98.3791 49.926C97.8701 51.55 98.0741 53.996 99.3291 56.096H84.7291C85.6171 54.316 86.4401 52.147 87.0421 49.926H85.5561C84.8921 52.281 83.9611 54.612 82.9121 56.458L82.5731 57.055L90.7661 62.212L86.1541 65.252L86.9441 66.45L92.0991 63.051L97.6651 66.683L98.4291 65.469L93.2691 62.277C93.2691 62.277 100.985 57.265 101.368 57.02C101.365 57.017 101.364 57.014 101.362 57.01L101.361 57.011ZM92.0821 61.345L86.0221 57.53L97.8651 57.533L92.0821 61.345Z" fill="black"/>
<path d="M118.414 34.682C118.405 32.187 117.628 21.644 116.2 18.741C112.328 20.212 105.283 24.98 103.688 29.854C96.0461 28.714 87.4311 28.848 79.8841 30.154C78.6241 24.909 72.2961 20.896 67.5221 18.634C65.5081 22.032 64.6161 29.911 64.8421 35.5L64.8161 35.518C65.7021 58.986 77.2151 73.598 92.2691 82.454C107.759 73.604 118.824 56.35 118.395 34.671L118.415 34.681L118.414 34.682ZM105.526 30.157L105.695 30.188L105.525 30.158L105.526 30.157ZM104.562 29.991C104.698 30.013 104.835 30.037 104.971 30.061L104.562 29.991ZM116.005 36.375C116.403 55.903 106.44 71.445 92.4921 79.415C68.8181 67.62 64.3581 37.739 68.3951 21.71C69.5181 27.837 71.5551 31.681 75.9691 33.566C85.5791 30.816 98.8091 30.599 108.555 33.286C112.616 30.333 114.191 25.823 115.051 21.882C116.126 26.468 116.001 36.374 116.005 36.376V36.375ZM126.105 103.935C123.673 101.215 118.91 99.928 114.932 100.023C112.109 96.663 95.7421 79.427 95.7421 79.427L94.6081 80.856L114.368 102.129L115.225 102.055C120.594 101.595 123.645 104.507 124.454 105.41C125.046 106.073 125.404 106.677 125.598 107.152H114.738C89.8271 94.152 67.9581 84.987 44.7251 82.989C44.7751 79.756 45.3511 76.096 46.4551 72.019L44.3191 71.439C43.1841 75.631 42.5851 79.427 42.5181 82.821C40.0981 82.661 37.6611 82.577 35.2031 82.577C33.1181 82.577 31.2201 82.771 29.4891 83.107C27.2301 80.85 25.3071 78.699 23.6721 76.657C34.4621 65.416 52.2821 55.255 67.7201 51.519L67.2191 49.356C50.5941 53.366 32.3961 64.279 22.2561 74.823C17.5501 68.471 15.6831 63.259 15.1281 59.309C14.4281 54.32 15.6181 49.744 18.5721 46.074C23.1951 40.331 29.7641 39.926 36.5181 41.062C36.3871 42.129 36.5271 43.149 36.9541 43.779C38.7401 46.418 48.3411 47.345 54.0711 44.788C49.8421 38.862 41.2761 35.968 38.9031 37.128C38.1171 37.512 37.5231 38.218 37.1171 39.04C34.7821 38.622 32.4631 38.311 30.7691 38.324C24.8121 38.368 20.2581 40.449 16.8471 44.687C13.5001 48.844 12.1471 54.007 12.9351 59.617C13.6811 64.931 16.3121 70.583 20.7211 76.443C19.9891 77.229 19.2811 78.005 18.5991 78.767C7.85307 90.792 -0.00292969 103.687 -0.00292969 105.824V106.931H14.1741L13.9261 105.618C13.1261 101.386 14.7241 96.098 17.9991 92.144C20.0561 89.663 23.4611 86.83 28.8081 85.524C33.5621 90.164 39.6201 95.091 46.3621 99.845H56.8981V98.738C56.8981 97.489 56.2781 96.396 55.1541 95.66C53.4891 94.572 50.9201 94.422 48.5601 95.227C46.3101 92.721 45.0481 89.374 44.7761 85.216C67.6411 87.24 89.5121 96.474 114.188 109.366H127.766L127.944 108.476C128.198 107.209 127.507 105.511 126.098 103.935H126.105ZM16.2981 90.729C12.9441 94.777 11.1661 100.124 11.5741 104.714H2.64307C4.43807 100.831 11.5861 89.604 22.1481 78.264C23.6841 80.1526 25.3051 81.9705 27.0061 83.712C21.8201 85.271 18.4201 88.169 16.2991 90.729H16.2981Z" fill="black"/>
</svg>
