<svg width="128" height="128" viewBox="0 0 128 128" fill="none" xmlns="http://www.w3.org/2000/svg">
<path fill-rule="evenodd" clip-rule="evenodd" d="M18.2618 68.875C9.65577 63.801 2.45277 57.93 2.45277 57.93C-2.75023 52.266 6.05477 55.746 6.05477 55.746L21.1638 61.016L20.9648 62.407L16.5628 64.302L18.2618 68.875Z" fill="white"/>
<path fill-rule="evenodd" clip-rule="evenodd" d="M30.8708 43.914C35.7728 38.937 42.3788 35.953 52.3868 34.863C61.8908 34.961 66.2968 34.461 77.2028 40.73C80.1048 42.917 86.6088 45.5 84.7108 49.98C81.7068 55.847 81.6088 55.449 80.1058 60.816C78.6028 66.183 79.8048 65.691 78.0038 68.175C74.8008 71.562 77.1058 71.362 72.9998 73.148C66.6948 70.562 67.8978 71.062 64.3948 70.562C58.3948 70.07 58.3948 69.871 50.8868 73.449C45.8828 74.246 49.7848 74.64 44.6838 74.047C32.4568 68.074 35.6608 66.18 29.4498 64.692C23.2468 63.204 22.0478 64.501 21.4458 61.712C21.6448 56.146 26.6528 48.282 30.8518 43.907L30.8708 43.914Z" fill="#4A8CB3"/>
<path fill-rule="evenodd" clip-rule="evenodd" d="M20.0618 69.668C28.5458 69.973 30.6948 75.754 34.7728 77.625C39.6948 78.836 42.8238 81.398 48.4798 81.602C54.7218 78.622 63.9758 78.918 72.5928 81.305C77.1628 81.399 79.3158 78.172 83.4018 69.368C85.5858 62.669 85.9568 56.528 89.3038 53.263C91.2568 51.681 92.6588 49.579 88.7018 47.993C84.2958 47.095 82.4318 52.106 80.0998 59.626C78.7128 66.263 76.0178 74.333 71.2908 71.563C62.9788 68.786 66.3538 69.672 62.3888 69.473C54.9628 69.973 48.9438 75.668 39.2718 70.465C32.1038 65.25 29.6938 63.93 21.1428 61.817C19.2478 61.317 11.0298 62.247 20.0408 69.672L20.0618 69.668Z" fill="white"/>
<path fill-rule="evenodd" clip-rule="evenodd" d="M19.2107 69.57C18.6247 70.16 15.1517 73.261 13.2577 76.734C11.3357 80.25 10.9137 83.914 13.1597 88.765C14.9177 93.359 19.9487 93.882 25.8667 95.624C28.3867 95.21 30.2217 96.765 32.4717 94.233C34.3037 92.217 35.6517 92.819 33.9717 89.065C30.4517 83.475 29.6627 79.862 32.8547 76.729C31.9567 74.44 30.9017 73.28 26.0617 70.459C24.3277 69.83 22.1237 69.178 19.2067 69.564M47.0697 90.465C47.4287 94.184 52.3707 96.168 60.0777 97.426C65.8937 97.031 70.8867 99.703 74.6867 94.043C75.3737 89.824 74.3977 83.606 71.1827 81.02C67.7647 78.032 56.3857 77.809 51.3707 79.727C47.0267 82.086 46.3977 87.11 47.0657 90.465H47.0697Z" fill="white"/>
<path fill-rule="evenodd" clip-rule="evenodd" d="M76.8946 80.207C76.2736 85.211 78.4496 92.715 84.2966 92.738C93.2106 93.656 95.4216 90.484 97.5076 87.367C99.1446 81.418 92.9026 75.137 88.4996 71.16C86.7456 69.601 86.4836 69.664 84.2966 69.566C80.9606 70.757 80.2226 79.289 76.7886 80.203" fill="white"/>
<path fill-rule="evenodd" clip-rule="evenodd" d="M83.5154 92.34C90.2854 94.488 91.7424 92.516 96.3244 89.258C99.3794 86.223 97.4224 79.508 93.1214 75.926C89.0004 77.008 79.2734 84.34 83.5164 92.336L83.5154 92.34ZM101.21 45.008C102.694 36.188 102.706 36.082 105.515 33.371C112.07 29.203 104.179 53.348 117.722 44.812C118.386 45.921 122.488 45.425 123.824 46.996C127.207 49.992 127.73 51.324 126.828 52.664C123.426 58.371 122.074 55.797 117.523 57.34C116.57 60.078 114.285 60.703 106.515 60.82C101.476 61.254 100.73 64.523 98.5074 66.59C96.0624 68.492 93.4804 72.297 83.6014 69.074C85.9214 62.515 84.6714 56.347 90.1014 52.566C96.3354 53.218 99.5744 49.589 101.21 45.011V45.008Z" fill="white"/>
<path fill-rule="evenodd" clip-rule="evenodd" d="M125.145 37.348C125.145 32.629 122.723 28.793 119.739 28.793C116.755 28.793 114.337 32.629 114.337 37.348C114.337 42.075 116.755 45.899 119.739 45.899C122.723 45.899 125.145 42.075 125.145 37.348Z" fill="#0078BA"/>
<path fill-rule="evenodd" clip-rule="evenodd" d="M118.84 38.441C118.84 33.722 116.422 29.894 113.434 29.894C110.446 29.894 108.032 33.722 108.032 38.441C108.032 43.16 110.45 46.992 113.434 46.992C116.418 46.992 118.84 43.164 118.84 38.441Z" fill="#0078BA"/>
<path d="M46.2239 80.473C44.6019 80.179 43.1959 79.732 40.0389 78.505L36.1769 77.105C34.5599 76.625 33.4999 75.898 32.9109 74.867C32.2629 73.732 31.0519 72.595 29.1289 71.315C26.2269 69.383 24.5889 68.794 21.6339 68.619L20.0169 68.523L18.7439 67.197C17.2289 65.619 16.5469 64.361 16.8739 63.75C17.1599 63.216 18.2299 62.747 19.4069 62.639C20.2499 62.562 20.7819 62.642 22.6989 63.136C28.7179 64.689 31.9859 66.282 37.7589 70.477C40.2229 72.267 43.2909 73.278 46.6759 73.414C49.4499 73.526 51.0369 73.264 55.4869 71.96L57.5329 71.369C60.2859 70.593 61.2569 70.43 62.8959 70.348L64.5509 70.265L68.0059 71.428L72.0259 72.802C72.7289 73.064 74.1639 72.96 74.8689 72.595C77.1739 71.403 78.9939 67.889 80.5469 61.63C81.2769 58.687 82.3449 55.439 83.2819 53.309C85.1229 49.127 87.1679 47.87 89.5599 49.453C90.2479 49.908 90.4439 50.395 90.1579 50.941C90.0519 51.144 89.2809 51.984 88.4459 52.808C87.2539 53.983 86.7869 54.577 86.2769 55.567C85.4659 57.142 84.9429 58.809 84.4979 61.242C83.7279 65.452 82.7029 69.032 81.8789 70.385C81.5629 70.905 80.7879 72.395 80.1579 73.695C78.9469 76.195 77.5419 78.272 76.5159 79.079C74.5739 80.607 72.5859 80.789 70.6699 79.614C67.1259 77.44 57.3479 76.953 51.7769 78.673C51.1159 78.877 50.3659 79.285 49.6179 79.848C48.3409 80.809 48.2069 80.833 46.2219 80.474L46.2239 80.473ZM55.0149 95.451C51.0359 94.357 48.6099 92.781 48.0719 90.942C47.9859 90.646 47.8709 89.655 47.8169 88.739C47.6459 85.831 48.4119 83.529 50.1199 81.821C51.2159 80.725 52.0149 80.34 54.0509 79.925C59.1519 78.886 66.3569 79.433 69.6749 81.112C70.5469 81.553 72.1969 83.258 72.1969 83.717C72.1969 83.772 71.7119 83.862 71.1189 83.917C68.5779 84.153 65.1879 85.384 63.2909 86.759C61.0469 88.386 58.7489 91.323 57.3719 94.325C56.9889 95.159 56.6039 95.837 56.5149 95.83C56.4259 95.823 55.7509 95.653 55.0139 95.45L55.0149 95.451ZM60.8939 96.491C59.6719 96.429 58.8979 96.321 58.7709 96.194C58.6109 96.033 58.7049 95.727 59.2549 94.618C61.2449 90.604 63.8899 87.969 67.2279 86.678C68.6759 86.118 70.9889 85.601 72.0609 85.598L72.7909 85.596L73.1219 86.424C73.9839 88.581 74.1859 91.36 73.6139 93.21C73.2109 94.514 72.2329 95.647 71.0589 96.172C70.2669 96.526 70.0479 96.545 66.5219 96.567C64.4849 96.58 61.9519 96.546 60.8939 96.493V96.491ZM87.0149 92.279C85.8749 92.071 84.3899 91.682 84.2169 91.545C83.8669 91.269 83.3889 89.389 83.3889 88.292C83.3889 86.397 84.0579 84.596 85.4779 82.67C86.2919 81.566 87.3939 80.457 88.5979 79.498C89.5849 78.712 90.6409 78.026 91.6639 77.526L92.9249 76.909L93.6039 77.666C95.8289 80.146 97.1579 83.482 96.8809 85.891C96.7948 86.4825 96.6254 87.0589 96.3779 87.603C96.0269 88.326 95.7409 88.595 94.0569 89.791C91.3919 91.682 90.2039 92.231 88.6349 92.299C87.9599 92.328 87.2299 92.319 87.0129 92.28L87.0149 92.279ZM81.2319 90.816C79.2389 89.373 77.9369 86.285 77.7669 82.601L77.6829 80.788L78.2539 80.41C79.0889 79.857 80.1889 78.1 81.3219 75.506C82.5529 72.689 83.0979 71.71 83.8379 70.99C84.3909 70.451 84.4449 70.434 85.2649 70.53C85.7339 70.585 86.3629 70.746 86.6649 70.889C86.9669 71.032 88.2129 72.12 89.4359 73.307L91.6589 75.465L90.7949 75.901C86.4689 78.082 82.9329 82.067 81.9649 85.852C81.6029 87.266 81.5669 89.063 81.8729 90.365C81.9899 90.864 82.0349 91.271 81.9729 91.271C81.9109 91.271 81.5769 91.066 81.2319 90.816ZM88.1969 69.257C84.5019 68.483 84.5909 68.531 84.9739 67.525C85.0649 67.285 85.4879 65.347 85.9129 63.219C87.0419 57.566 87.5569 56.239 89.3089 54.46L90.2709 53.484L92.0719 53.401C96.3099 53.205 99.2089 51.245 101.198 47.231C101.932 45.75 102.028 45.414 102.535 42.561C103.5 37.131 103.77 36.405 105.407 34.809C106.56 33.686 106.861 33.619 107.244 34.401C107.503 34.931 107.513 35.108 107.341 36.174C107.103 37.652 107.233 40.709 107.59 42.009C109.059 47.359 113.315 49.437 116.758 46.487L117.259 46.057L117.925 46.386C118.428 46.635 118.923 46.721 119.946 46.738C122.118 46.774 122.658 47.031 124.445 48.872C125.282 49.735 126.074 50.696 126.204 51.007C126.439 51.568 126.435 51.582 125.731 52.712C124.831 54.156 123.523 55.411 122.703 55.617C122.366 55.702 121.451 55.815 120.671 55.869C119.891 55.923 118.71 56.113 118.047 56.292C116.861 56.611 116.838 56.628 116.578 57.309C115.907 59.065 114.142 59.627 108.455 59.896C103.465 60.131 102.116 60.755 99.5139 64.027C97.3829 66.706 94.9339 68.554 92.7639 69.119C91.9039 69.343 89.0229 69.43 88.1989 69.258L88.1969 69.257ZM41.8009 87.56C40.2259 87.22 39.8819 86.945 39.2759 85.536C38.3539 83.39 38.2939 81.683 39.1049 80.652L39.4139 80.26L40.9489 80.887C42.7069 81.605 44.9109 82.215 46.3319 82.376C46.9599 82.447 47.2809 82.549 47.2309 82.662C46.6679 83.927 46.3389 84.848 46.2559 85.394C46.1399 86.155 45.6199 86.636 44.2549 87.246C43.0659 87.778 42.9059 87.798 41.8019 87.56H41.8009ZM15.5669 90.801C13.9939 89.564 12.2559 84.416 12.5339 81.819C12.8699 78.679 14.6479 75.537 18.0669 72.039L19.6849 70.384L21.3099 70.407C23.5549 70.439 25.1559 70.928 27.2109 72.206C29.5739 73.676 30.5699 74.534 31.3849 75.803L31.8289 76.493L31.3839 77.142C30.3619 78.634 29.8469 80.286 29.9769 81.651L30.0399 82.306L28.6949 82.183C24.1389 81.766 21.6019 82.407 19.5419 84.496C18.3639 85.691 17.1779 87.83 16.5509 89.89C16.3469 90.562 16.1309 91.112 16.0719 91.112C16.0129 91.112 15.7859 90.971 15.5679 90.8L15.5669 90.801ZM27.4969 94.73C26.5417 94.6399 25.5938 94.4842 24.6599 94.264C23.1689 93.891 19.8109 92.774 18.5669 92.238L17.8239 91.918L18.0689 91.082C18.8049 88.569 20.1109 86.207 21.2739 85.286C21.7539 84.9338 22.2662 84.6277 22.8039 84.372C23.6859 83.959 23.8279 83.941 26.2459 83.941C28.9269 83.941 30.5809 84.1 30.5809 84.357C30.5809 84.639 31.6799 86.904 32.5949 88.509C33.4179 89.952 33.4919 90.162 33.4939 91.058L33.4959 92.035L32.1719 93.269L30.5959 94.598C30.0869 94.79 28.8889 94.841 27.4969 94.73ZM112.762 46.824C111.389 46.498 110.038 45.251 109.234 43.569C108.43 41.887 108.222 40.821 108.219 38.385C108.217 36.004 108.479 34.764 109.349 33.048C109.848 32.064 111.02 30.807 111.839 30.377C113.025 29.755 114.524 29.957 115.877 30.922C116.084 31.07 116.249 30.97 116.816 30.355C117.768 29.323 118.553 28.941 119.724 28.941C120.909 28.941 121.669 29.318 122.693 30.413C124.181 32.004 125.005 34.486 125.005 37.379C125.005 39.348 124.677 40.859 123.893 42.502C122.449 45.527 119.771 46.644 117.65 45.105L117.068 44.683L116.371 45.429C115.315 46.558 113.917 47.099 112.762 46.824Z" fill="#4A8CB3"/>
</svg>
