<svg width="128" height="128" viewBox="0 0 128 128" fill="none" xmlns="http://www.w3.org/2000/svg">
<path fill-rule="evenodd" clip-rule="evenodd" d="M18.2623 68.875C9.65626 63.801 2.45326 57.93 2.45326 57.93C-2.74974 52.266 6.05526 55.746 6.05526 55.746L21.1643 61.016L20.9653 62.407L16.5633 64.302L18.2623 68.875Z" fill="white"/>
<path fill-rule="evenodd" clip-rule="evenodd" d="M2.38702 53.923C1.94502 53.877 1.52302 53.864 1.09102 53.983C0.659017 54.102 0.145017 54.495 0.0350168 55.044C-0.0749832 55.593 0.114017 56.075 0.419017 56.604C0.724017 57.133 1.18702 57.731 1.86102 58.465L1.90002 58.507L1.94402 58.544C6.99523 62.5659 12.3097 66.2454 17.852 69.558L19.793 70.703L19.011 68.598L17.574 64.73L21.693 62.958L22.048 60.48L6.34902 55.005L6.32002 54.994C6.26902 54.973 4.13502 54.104 2.38702 53.921V53.923ZM2.22002 55.506C3.55302 55.645 5.76002 56.486 5.76002 56.486L5.77502 56.492L20.28 61.551L20.236 61.854L15.55 63.871L16.691 66.941C9.13902 62.267 3.09602 57.422 3.01802 57.358C2.41602 56.698 2.01602 56.172 1.81102 55.815C1.67402 55.577 1.69302 55.572 1.67902 55.514C1.8586 55.4882 2.04075 55.4855 2.22102 55.506H2.22002Z" fill="black"/>
<path fill-rule="evenodd" clip-rule="evenodd" d="M30.8708 43.914C35.7728 38.937 42.3788 35.953 52.3868 34.863C61.8908 34.961 66.2968 34.461 77.2028 40.73C80.1048 42.917 86.6088 45.5 84.7108 49.98C81.7068 55.847 81.6088 55.449 80.1058 60.816C78.6028 66.183 79.8048 65.691 78.0038 68.175C74.8008 71.562 77.1058 71.362 72.9998 73.148C66.6948 70.562 67.8978 71.062 64.3948 70.562C58.3948 70.07 58.3948 69.871 50.8868 73.449C45.8828 74.246 49.7848 74.64 44.6838 74.047C32.4568 68.074 35.6608 66.18 29.4498 64.692C23.2468 63.204 22.0478 64.501 21.4458 61.712C21.6448 56.146 26.6528 48.282 30.8518 43.907L30.8708 43.914Z" fill="#4A8CB3"/>
<path fill-rule="evenodd" clip-rule="evenodd" d="M52.3471 34.067L52.2991 34.073C42.4281 35.148 35.7031 38.101 30.6991 42.988L30.6471 42.967L30.2721 43.357C25.9621 47.848 20.8601 55.669 20.6451 61.682L20.6421 61.781L20.6631 61.877C20.8271 62.64 21.0531 63.248 21.5101 63.704C21.9671 64.16 22.5631 64.353 23.2021 64.47C24.4811 64.704 26.2231 64.735 29.2621 65.464C32.2621 66.183 32.7391 66.841 34.2621 68.266C35.7851 69.691 38.1621 71.747 44.3301 74.76L44.4541 74.821L44.5901 74.837L47.0371 75.109C47.5041 75.146 47.8671 75.117 48.1401 74.999C48.4131 74.881 48.4251 74.835 48.7791 74.716C49.1331 74.597 49.7891 74.429 51.0131 74.234L51.1271 74.216L51.2321 74.166C58.7241 70.596 58.3141 70.861 64.3171 71.354C67.8041 71.848 66.4201 71.309 72.6931 73.883L73.0071 74.012L73.3191 73.877C74.3661 73.422 75.0281 73.088 75.5201 72.747C76.0121 72.406 76.3301 72.017 76.5361 71.653C76.9481 70.924 77.0441 70.351 78.5851 68.721L78.6211 68.683L78.6521 68.641C79.5871 67.351 79.8401 66.591 79.9591 65.682C80.0781 64.773 80.1381 63.668 80.8751 61.03V61.029C82.3741 55.681 82.4091 56.228 85.4231 50.341L85.4361 50.315L85.4471 50.289C85.9961 48.994 85.9431 47.718 85.4811 46.641C85.0191 45.564 84.2031 44.674 83.2741 43.889C81.4151 42.319 79.0271 41.108 77.6851 40.096L77.6461 40.066L77.6021 40.041C66.5991 33.716 61.8661 34.164 52.3931 34.067H52.3471ZM52.4331 35.66C61.9231 35.755 66.0161 35.219 76.8021 41.42C78.3601 42.578 80.6201 43.736 82.2391 45.103C83.0611 45.797 83.6951 46.53 84.0101 47.265C84.3251 48 84.3711 48.723 83.9761 49.663C81.0141 55.444 80.8381 55.238 79.3341 60.604V60.605C78.5711 63.337 78.4801 64.67 78.3731 65.477C78.2661 66.284 78.2151 66.52 77.3611 67.7C75.7601 69.411 75.4011 70.417 75.1421 70.875C75.0111 71.107 74.9351 71.214 74.6051 71.444C74.3221 71.64 73.7171 71.937 72.9561 72.281C67.2891 69.96 67.8531 70.255 64.5081 69.777L64.4841 69.773L64.4601 69.771C58.5051 69.283 58.0421 69.163 50.6241 72.695C49.4721 72.885 48.7231 73.058 48.2681 73.21C47.7871 73.371 47.5181 73.535 47.5031 73.541C47.4881 73.547 47.5571 73.555 47.1651 73.524C46.7971 73.495 46.0581 73.406 44.9221 73.274C38.9661 70.352 36.8331 68.487 35.3591 67.109C33.8751 65.721 32.8481 64.688 29.6371 63.919C26.4721 63.16 24.5131 63.095 23.4921 62.908C22.9811 62.815 22.7761 62.716 22.6451 62.584C22.5231 62.462 22.3861 62.187 22.2581 61.647C22.4891 56.631 27.1631 49.036 31.1741 44.746L31.4431 44.472C36.1991 39.644 42.5691 36.741 52.4331 35.661V35.66Z" fill="black"/>
<path fill-rule="evenodd" clip-rule="evenodd" d="M20.0618 69.668C28.5458 69.973 30.6948 75.754 34.7728 77.625C39.6948 78.836 42.8238 81.398 48.4798 81.602C54.7218 78.622 63.9758 78.918 72.5928 81.305C77.1628 81.399 79.3158 78.172 83.4018 69.368C85.5858 62.669 85.9568 56.528 89.3038 53.263C91.2568 51.681 92.6588 49.579 88.7018 47.993C84.2958 47.095 82.4318 52.106 80.0998 59.626C78.7128 66.263 76.0178 74.333 71.2908 71.563C62.9788 68.786 66.3538 69.672 62.3888 69.473C54.9628 69.973 48.9438 75.668 39.2718 70.465C32.1038 65.25 29.6938 63.93 21.1428 61.817C19.2478 61.317 11.0298 62.247 20.0408 69.672L20.0618 69.668Z" fill="white"/>
<path fill-rule="evenodd" clip-rule="evenodd" d="M87.0528 47.143C86.4779 47.223 85.9349 47.403 85.4379 47.679C84.4438 48.23 83.6438 49.119 82.9458 50.231C81.5478 52.454 80.5058 55.622 79.3368 59.391L79.3258 59.427L79.3188 59.464C78.6338 62.745 77.6068 66.377 76.2548 68.727C75.5788 69.902 74.8258 70.729 74.1078 71.089C73.3899 71.449 72.7058 71.467 71.6998 70.877L71.6278 70.835L71.5489 70.809L65.3839 68.774C64.9649 68.683 64.6339 68.686 64.2608 68.698C63.8878 68.71 63.3988 68.727 62.4318 68.679L62.3848 68.677L62.3378 68.68C58.4348 68.943 55.0318 70.522 51.4958 71.333C47.9668 72.143 44.3378 72.274 39.6838 69.779C32.5578 64.598 29.9028 63.163 21.3518 61.049C20.6798 60.872 19.7808 60.856 18.7898 61.003C17.7988 61.15 16.7378 61.458 15.9548 62.196C15.1718 62.934 14.8538 64.21 15.4088 65.546C15.9638 66.882 17.2288 68.386 19.5338 70.285L19.8278 70.528L20.1048 70.473C24.1208 70.634 26.5448 72.031 28.5638 73.675C30.5948 75.33 32.1628 77.304 34.4388 78.348L34.5078 78.38L34.5818 78.398C39.3248 79.565 42.5638 82.186 48.4518 82.397L48.6488 82.404L48.8268 82.32C54.7718 79.481 63.8878 79.72 72.3788 82.072L72.4758 82.099L72.5769 82.101C75.0539 82.152 77.0628 81.209 78.7898 79.189C80.5168 77.169 82.0798 74.118 84.1298 69.701L84.1488 69.658L84.1638 69.613C85.2738 66.208 85.9158 62.978 86.6879 60.242C87.4599 57.506 88.3608 55.299 89.8658 53.83L89.8108 53.879C90.8488 53.038 91.8708 52.051 92.0168 50.714C92.0898 50.046 91.8588 49.318 91.3428 48.736C90.8269 48.154 90.0648 47.68 89.0038 47.255L88.9368 47.228L88.8658 47.214C88.2705 47.0879 87.6581 47.0643 87.0548 47.144L87.0528 47.143ZM87.2758 48.709C87.6368 48.66 88.0349 48.684 88.4799 48.769C89.3409 49.125 89.8768 49.492 90.1408 49.789C90.4138 50.097 90.4519 50.291 90.4249 50.544C90.3699 51.05 89.7139 51.906 88.7989 52.646L88.7698 52.669L88.7439 52.694C86.9018 54.491 85.9428 56.987 85.1459 59.813C84.3529 62.626 83.7188 65.801 82.6538 69.079C80.6298 73.438 79.0768 76.394 77.5698 78.158C76.0728 79.91 74.7278 80.534 72.6728 80.505C64.0658 78.144 54.8608 77.799 48.3658 80.794C43.0848 80.561 40.0638 78.147 35.0928 76.893C33.2968 76.062 31.7548 74.218 29.5778 72.444C27.4498 70.71 24.6338 69.138 20.3978 68.911C18.3318 67.179 17.2528 65.821 16.8858 64.938C16.5068 64.027 16.6718 63.71 17.0538 63.35C17.4358 62.99 18.2228 62.695 19.0228 62.576C19.8228 62.457 20.6628 62.513 20.9378 62.586L20.9438 62.587L20.9498 62.589C29.4588 64.692 31.6478 65.905 38.7988 71.107L38.8428 71.139L38.8908 71.164C43.8958 73.856 48.1048 73.742 51.8528 72.882C55.5958 72.023 58.9118 70.508 62.4288 70.268C63.055 70.3005 63.6822 70.3071 64.3088 70.288C64.6778 70.276 64.7668 70.269 65.0378 70.328C65.5808 70.446 66.8728 70.926 71.0359 72.317L70.8848 72.248C72.2418 73.043 73.6669 73.091 74.8269 72.509C75.9869 71.927 76.8808 70.842 77.6428 69.516C79.1568 66.883 80.1638 63.197 80.8648 59.86V59.858C82.0278 56.109 83.0828 53.011 84.3008 51.074C84.9099 50.105 85.5479 49.44 86.2159 49.069C86.5424 48.8835 86.901 48.7613 87.2729 48.709H87.2758Z" fill="black"/>
<path fill-rule="evenodd" clip-rule="evenodd" d="M19.2112 69.57C18.6252 70.16 15.1522 73.261 13.2582 76.734C11.3362 80.25 10.9142 83.914 13.1602 88.765C14.9182 93.359 19.9492 93.882 25.8672 95.624C28.3872 95.21 30.2222 96.765 32.4722 94.233C34.3042 92.217 35.6522 92.819 33.9722 89.065C30.4522 83.475 29.6632 79.862 32.8552 76.729C31.9572 74.44 30.9022 73.28 26.0622 70.459C24.3282 69.83 22.1242 69.178 19.2072 69.564" fill="white"/>
<path fill-rule="evenodd" clip-rule="evenodd" d="M21.2852 68.661C20.5553 68.642 19.825 68.6812 19.1012 68.778L19.2072 69.567L18.6412 69.012L16.1332 71.536C14.9292 72.847 13.5512 74.528 12.5542 76.356C10.5502 80.021 10.1132 84.053 12.4152 89.056C13.3822 91.575 15.3202 93.032 17.6442 93.999C19.9682 94.966 22.7192 95.529 25.6392 96.388L25.8152 96.44L25.9972 96.41C27.0672 96.234 28.0652 96.496 29.2542 96.519C30.4432 96.542 31.8212 96.168 33.0712 94.761L33.0652 94.767C33.8892 93.86 34.6592 93.618 35.2182 92.721C35.4982 92.273 35.5942 91.675 35.4932 91.048C35.3922 90.421 35.1352 89.71 34.7022 88.743L34.6792 88.691L34.6492 88.644C32.9162 85.892 31.9042 83.668 31.6902 81.883C31.4762 80.098 31.9532 78.733 33.4162 77.297L33.7902 76.929L33.5992 76.441C33.1282 75.241 32.5512 74.226 31.4872 73.219C30.4232 72.212 28.9052 71.196 26.4652 69.774L26.4032 69.738L26.3352 69.713C25.0062 69.231 23.3372 68.715 21.2832 68.66L21.2852 68.661ZM21.2462 70.249C23.0262 70.293 24.4632 70.734 25.7212 71.187C28.0752 72.562 29.4972 73.531 30.3852 74.372C31.1552 75.101 31.5462 75.768 31.9152 76.619C30.4902 78.219 29.8622 80.059 30.1032 82.072C30.3642 84.254 31.4922 86.612 33.2512 89.416C33.6472 90.306 33.8542 90.927 33.9152 91.301C33.9762 91.68 33.9362 91.761 33.8602 91.884C33.7072 92.129 32.8872 92.593 31.8792 93.702L31.8772 93.705L31.8742 93.709C30.8742 94.834 30.2092 94.947 29.2882 94.929C28.4262 94.912 27.3162 94.674 25.9932 94.834C23.0392 93.97 20.3472 93.398 18.2652 92.531C16.1572 91.653 14.7032 90.554 13.9112 88.483L13.9012 88.458L13.8902 88.434C11.7242 83.755 12.1302 80.47 13.9642 77.115H13.9652V77.114C14.8622 75.469 16.1672 73.864 17.3202 72.608C18.3742 71.46 19.1572 70.747 19.5742 70.341C20.1302 70.2733 20.6901 70.2423 21.2502 70.248L21.2462 70.249Z" fill="black"/>
<path fill-rule="evenodd" clip-rule="evenodd" d="M38.8792 79.418C37.3242 81.453 37.4772 81.723 37.8792 84.488C38.9812 87.078 38.5862 88.125 43.0822 88.664C48.2772 87.094 48.3362 83.992 48.3832 81.699C42.6132 81.5 39.8752 78.933 38.8752 79.414L38.8792 79.418Z" fill="#3F3F3F" fill-opacity="0.808"/>
<path fill-rule="evenodd" clip-rule="evenodd" d="M39.4192 78.558C39.1145 78.5139 38.8037 78.5627 38.5272 78.698L37.5162 79.184L37.8472 79.514C37.3312 80.244 36.9632 80.872 36.8552 81.555C36.7182 82.42 36.8882 83.23 37.0872 84.602L37.1012 84.703L37.1412 84.797C37.6632 86.025 37.8182 87.015 38.6172 87.881C39.4162 88.747 40.6742 89.175 42.9862 89.452L43.1532 89.473L43.3152 89.424C46.0522 88.597 47.5942 87.282 48.3702 85.823C49.1462 84.364 49.1592 82.86 49.1822 81.714L49.1982 80.93L48.4092 80.903C45.6392 80.807 43.6232 80.151 42.1352 79.561L40.2432 78.791C39.9722 78.693 39.7002 78.594 39.4172 78.557L39.4192 78.558ZM39.3322 80.166C39.3362 80.184 39.3632 80.167 39.6982 80.288L41.5452 81.041C43.4601 81.8041 45.4805 82.2702 47.5362 82.423C47.4942 83.334 47.4002 84.248 46.9572 85.081C46.4082 86.112 45.3412 87.104 43.0132 87.842C40.9992 87.582 40.1892 87.232 39.7992 86.808C39.4092 86.384 39.1972 85.571 38.6602 84.288C38.4682 82.967 38.3642 82.261 38.4372 81.804C38.5032 81.388 38.7622 80.938 39.3322 80.167V80.166Z" fill="black"/>
<path fill-rule="evenodd" clip-rule="evenodd" d="M47.0698 90.465C47.4288 94.184 52.3708 96.168 60.0778 97.426C65.8938 97.031 70.8868 99.703 74.6868 94.043C75.3738 89.824 74.3978 83.606 71.1828 81.02C67.7648 78.032 56.3858 77.809 51.3708 79.727C47.0268 82.086 46.3978 87.11 47.0658 90.465H47.0698Z" fill="white"/>
<path fill-rule="evenodd" clip-rule="evenodd" d="M58.9231 77.706C55.9511 77.786 53.1141 78.208 51.0841 78.984L51.0341 79.003L50.9881 79.028C48.6211 80.314 47.2411 82.361 46.5761 84.486C45.9111 86.611 45.9241 88.82 46.2821 90.619L46.4101 91.261H46.4661C46.9321 93.089 48.3631 94.534 50.4611 95.58C52.8361 96.763 56.0561 97.576 59.9491 98.212L60.0411 98.227L60.1331 98.221C62.9031 98.033 65.5721 98.6 68.1681 98.505C70.7641 98.41 73.3311 97.498 75.3531 94.486L75.4501 94.342L75.4771 94.171C75.8401 91.942 75.7641 89.254 75.1781 86.741C74.5921 84.228 73.5101 81.876 71.6941 80.411C69.6581 78.644 65.8881 77.933 61.9141 77.74C60.9171 77.6919 59.9188 77.6812 58.9211 77.708L58.9231 77.706ZM58.9631 79.304C59.9213 79.274 60.8804 79.282 61.8381 79.328C65.6511 79.513 69.2701 80.406 70.6551 81.617L70.6681 81.628L70.6811 81.639C72.0751 82.761 73.0851 84.802 73.6201 87.099C74.1391 89.327 74.2101 91.766 73.9181 93.728C72.1721 96.247 70.3701 96.833 68.1111 96.915C65.8411 96.997 63.1501 96.45 60.1581 96.631C56.3701 96.01 53.2811 95.205 51.1781 94.158C49.0651 93.105 48.0151 91.917 47.8681 90.39L47.8191 89.884C47.5831 88.395 47.5841 86.625 48.1051 84.96C48.6691 83.16 49.7671 81.53 51.7131 80.456C53.4461 79.804 56.1311 79.393 58.9641 79.306L58.9631 79.304Z" fill="black"/>
<path d="M26.318 82.108C24.757 82.089 23.295 82.282 21.939 82.882C19.228 84.081 17.225 86.893 15.981 92.258L15.833 92.896L16.435 93.163C20.489 94.963 23.878 95.975 26.561 96.349C29.244 96.723 31.245 96.515 32.541 95.563C34.021 94.524 34.857 93.371 35.139 92.166C35.421 90.961 35.148 89.786 34.7 88.722C33.838 86.672 32.386 84.806 32.015 83.394L31.931 83.144L31.927 83.132L30.53 83.503L31.285 82.606C29.537 82.357 27.878 82.127 26.318 82.108ZM26.324 83.718C27.603 83.734 29.036 83.907 30.58 84.12C31.164 85.994 32.542 87.712 33.225 89.336C33.602 90.232 33.761 91.04 33.581 91.806C33.401 92.572 32.882 93.381 31.61 94.271L31.602 94.277L31.594 94.283C30.902 94.793 29.257 95.119 26.785 94.774C24.453 94.448 21.388 93.548 17.732 91.976C18.912 87.359 20.551 85.237 22.59 84.336C23.661 83.862 24.909 83.7 26.324 83.718ZM73.172 83.792C69.94 83.964 66.762 84.618 63.921 86.447C61.08 88.276 58.62 91.263 56.76 95.934L56.584 96.377L56.893 96.74C57.425 97.365 57.894 97.792 58.497 98.015C59.1 98.238 59.684 98.251 60.552 98.309L60.599 98.312L60.646 98.309C64.601 98.113 68.968 99.049 72.341 97.541L72.399 97.515L72.451 97.481C75.333 95.601 75.876 92.253 75.606 89.52C75.4879 88.3037 75.2095 87.1083 74.778 85.965C74.6256 85.5523 74.4341 85.1552 74.206 84.779C74.1112 84.6227 73.9992 84.4774 73.872 84.346C73.74 84.213 73.584 84.05 73.23 83.998L73.196 84.23L73.172 83.792ZM73.021 85.403L72.996 85.573C72.751 85.537 72.723 85.455 72.731 85.464C72.739 85.473 72.79 85.532 72.85 85.626C73.0215 85.9161 73.1667 86.221 73.284 86.537C73.594 87.339 73.894 88.469 74.013 89.677C74.249 92.072 73.806 94.651 71.623 96.113C69.016 97.241 64.821 96.526 60.645 96.722C59.782 96.664 59.315 96.622 59.056 96.526C58.877 96.459 58.691 96.309 58.458 96.074C60.195 91.923 62.354 89.353 64.791 87.784C67.256 86.197 70.04 85.587 73.021 85.405V85.403Z" fill="black"/>
<path d="M24.3468 82.876L22.9888 83.719C23.7988 85.007 24.5938 86.07 25.0528 87.671C25.5118 89.272 25.6518 91.464 24.9798 94.985L26.5528 95.281C27.2558 91.599 27.1338 89.125 26.5938 87.235C26.0538 85.345 25.1118 84.091 24.3478 82.875L24.3468 82.876ZM28.3728 82.62L26.9618 83.373C28.7498 86.683 30.3488 89.585 29.3818 95.294L30.9608 95.559C31.9938 89.463 30.1628 85.935 28.3728 82.621V82.62ZM62.5508 87.514L62.0498 89.025C63.8588 89.617 66.6958 92.195 67.4128 97.819L69.0018 97.619C68.2268 91.54 65.1568 88.367 62.5518 87.514H62.5508ZM67.3348 84.91L66.2258 86.058C68.8298 88.541 71.3288 89.958 71.4838 96.343L73.0848 96.305C72.9198 89.479 69.8008 87.263 67.3348 84.91Z" fill="black"/>
<path fill-rule="evenodd" clip-rule="evenodd" d="M76.8951 80.207C76.2741 85.211 78.4501 92.715 84.2971 92.738C93.2111 93.656 95.4221 90.484 97.5081 87.367C99.1451 81.418 92.9031 75.137 88.5001 71.16C86.7461 69.601 86.4841 69.664 84.2971 69.566C80.9611 70.757 80.2231 79.289 76.7891 80.203" fill="white"/>
<path fill-rule="evenodd" clip-rule="evenodd" d="M84.1752 68.764L84.0262 68.817C82.9152 69.214 82.1492 70.138 81.5132 71.193C80.8772 72.248 80.3582 73.48 79.8442 74.676L78.2662 77.896C77.7132 78.762 77.1472 79.284 76.5822 79.434L76.7872 80.194L76.1002 80.11C75.7702 82.772 76.1682 86.006 77.4472 88.682C78.7262 91.358 81.0232 93.518 84.2872 93.534C88.8032 93.988 91.7572 93.422 93.8532 92.261C95.9622 91.093 97.1292 89.371 98.1752 87.808L98.2462 87.701L98.2802 87.577C99.1862 84.285 97.9052 80.989 95.9322 78.08C93.9592 75.171 91.2562 72.575 89.0392 70.572L89.0362 70.57L89.0332 70.568C88.1372 69.772 87.5432 69.312 86.8212 69.064C86.0992 68.816 85.4162 68.82 84.3322 68.772L84.1752 68.764ZM84.4712 70.382C85.3612 70.422 85.9472 70.446 86.3012 70.567C86.6962 70.702 87.1092 70.99 87.9672 71.753C90.1512 73.726 92.7672 76.258 94.6052 78.968C96.4212 81.645 97.4252 84.425 96.7472 87.052C95.7402 88.554 94.7692 89.931 93.0732 90.87C91.3272 91.837 88.7362 92.394 84.3802 91.946L84.3402 91.942H84.3002C81.7202 91.932 80.0082 90.331 78.8932 87.999C77.8362 85.788 77.4612 82.976 77.6712 80.693C78.4762 80.273 79.1002 79.561 79.6182 78.749C80.2742 77.721 80.8002 76.502 81.3162 75.302C81.8322 74.102 82.3382 72.921 82.8862 72.012C83.4022 71.156 83.9442 70.612 84.4702 70.383L84.4712 70.382Z" fill="black"/>
<path fill-rule="evenodd" clip-rule="evenodd" d="M83.5164 92.34C90.2864 94.488 91.7434 92.516 96.3254 89.258C99.3804 86.223 97.4234 79.508 93.1224 75.926C89.0014 77.008 79.2744 84.34 83.5174 92.336L83.5164 92.34Z" fill="white"/>
<path fill-rule="evenodd" clip-rule="evenodd" d="M93.3173 75.051L92.9163 75.156C90.5743 75.771 87.0943 77.924 84.5593 81.037C82.0663 84.099 80.5913 88.256 82.7153 92.49V92.92L83.2723 93.097C86.7403 94.198 89.0313 94.275 91.0093 93.575C92.9873 92.875 94.5283 91.512 96.7903 89.904L96.8433 89.866L96.8903 89.819C98.6873 88.034 98.9463 85.277 98.2563 82.599C97.5663 79.921 95.9283 77.225 93.6353 75.315L93.3173 75.051ZM92.9273 76.852C94.7633 78.51 96.1393 80.794 96.7053 82.994C97.3023 85.314 97.0163 87.418 95.7763 88.67C93.5113 90.286 92.0383 91.521 90.4713 92.076C88.9433 92.617 87.1663 92.605 84.0993 91.673C82.3593 88.098 83.5683 84.785 85.8053 82.038C87.9603 79.391 91.0753 77.472 92.9283 76.852H92.9273Z" fill="black"/>
<path d="M84.7809 81.31C84.5155 81.4536 84.2502 81.5973 83.9849 81.741L84.0989 82.629L85.2989 81.576C85.3368 81.8717 85.3748 82.1673 85.4129 82.463C85.1482 82.6066 84.8835 82.7503 84.6189 82.894L84.4759 82.866L84.4269 82.85L84.3749 82.829L84.4999 82.899L85.0149 83.236C85.6426 83.6901 86.221 84.2086 86.7409 84.783C88.0669 86.234 89.5699 88.558 90.2169 92.09L91.7929 91.805C91.0889 87.965 89.4229 85.35 87.9269 83.713C87.3315 83.0558 86.6689 82.4629 85.9499 81.944L85.3139 81.528L85.1229 81.422L85.0489 81.385C85.0349 81.378 85.0259 81.373 84.9779 81.356L84.9269 81.339C84.8791 81.3286 84.8311 81.3193 84.7829 81.311L84.7809 81.31ZM89.0429 78.525L87.9719 79.709C89.8439 81.381 93.3899 83.58 94.7289 89.727L96.2939 89.39C94.8439 82.732 90.6709 79.978 89.0429 78.525Z" fill="black"/>
<path fill-rule="evenodd" clip-rule="evenodd" d="M101.211 45.008C102.695 36.188 102.707 36.082 105.516 33.371C112.071 29.203 104.18 53.348 117.723 44.812C118.387 45.921 122.489 45.425 123.825 46.996C127.208 49.992 127.731 51.324 126.829 52.664C123.427 58.371 122.075 55.797 117.524 57.34C116.571 60.078 114.286 60.703 106.516 60.82C101.477 61.254 100.731 64.523 98.5081 66.59C96.0631 68.492 93.4811 72.297 83.6021 69.074C85.9221 62.515 84.6721 56.347 90.1021 52.566C96.3361 53.218 99.5751 49.589 101.211 45.011V45.008Z" fill="white"/>
<path fill-rule="evenodd" clip-rule="evenodd" d="M107.126 32.112C106.9 32.0792 106.669 32.0829 106.444 32.123C105.992 32.203 105.553 32.403 105.085 32.701L105.017 32.744L104.959 32.801C103.551 34.16 102.704 35.025 102.115 36.626C101.531 38.214 101.167 40.454 100.436 44.796C99.6512 46.97 98.5072 48.862 96.8872 50.125C95.2542 51.398 93.1352 52.085 90.1862 51.776L89.8882 51.745L89.6422 51.916C86.7362 53.94 85.5802 56.686 84.9052 59.602C84.2302 62.518 83.9662 65.648 82.8462 68.812L82.5752 69.578L83.3522 69.831C88.4002 71.478 91.7292 71.361 94.1152 70.503C96.5012 69.645 97.8752 68.094 99.0022 67.217L99.0292 67.195L99.0552 67.171C100.288 66.025 101.032 64.679 102.033 63.645C103.034 62.611 104.233 61.818 106.58 61.615C110.451 61.555 112.996 61.385 114.814 60.824C116.465 60.314 117.499 59.331 118.083 58.016C120.021 57.426 121.301 57.633 122.763 57.345C123.633 57.1738 124.441 56.7741 125.105 56.187C125.872 55.523 126.63 54.551 127.497 53.101C128.053 52.271 128.182 51.154 127.649 50.096C127.116 49.038 126.077 47.926 124.357 46.403L124.436 46.484C123.48 45.361 121.946 45.162 120.653 44.948C120.006 44.841 119.404 44.749 118.977 44.634C118.55 44.519 118.378 44.352 118.41 44.407L117.989 43.704L117.293 44.142C115.657 45.173 114.384 45.676 113.458 45.815C112.532 45.954 111.98 45.78 111.52 45.417C110.6 44.693 110.056 42.805 109.793 40.635C109.53 38.465 109.497 36.122 109.059 34.406C108.84 33.548 108.53 32.754 107.758 32.323C107.562 32.2149 107.347 32.1434 107.125 32.112H107.126ZM106.725 33.69C106.884 33.662 106.922 33.681 106.974 33.71C107.079 33.769 107.333 34.11 107.508 34.796C107.858 36.169 107.927 38.546 108.204 40.825C108.481 43.104 108.912 45.392 110.527 46.663C111.334 47.299 112.439 47.577 113.699 47.387C114.82 47.218 116.121 46.655 117.619 45.77C117.911 45.9489 118.229 46.0833 118.56 46.169C119.131 46.322 119.762 46.412 120.391 46.516C121.649 46.724 122.834 47.063 123.214 47.51L123.251 47.553L123.293 47.59C124.956 49.063 125.871 50.118 126.218 50.807C126.565 51.496 126.507 51.712 126.164 52.221L126.152 52.239L126.141 52.258C125.316 53.642 124.634 54.484 124.054 54.985C123.474 55.486 123.013 55.672 122.452 55.783C121.329 56.005 119.694 55.764 117.267 56.587L116.897 56.712L116.769 57.08C116.351 58.281 115.836 58.841 114.34 59.303C112.844 59.765 110.37 59.966 106.505 60.025H106.476L106.448 60.027C103.76 60.258 102.067 61.314 100.88 62.54C99.6932 63.766 98.9532 65.085 97.9642 66.005C96.6672 67.025 95.5322 68.299 93.5712 69.004C91.6982 69.678 88.9522 69.817 84.6022 68.516C85.5732 65.425 85.8812 62.484 86.4672 59.955C87.0882 57.274 88.0162 55.099 90.3932 53.364C93.4962 53.607 96.0002 52.837 97.8762 51.375C99.8302 49.852 101.115 47.659 101.966 45.277L102.012 45.148V45.078C102.746 40.719 103.132 38.498 103.619 37.171C104.098 35.867 104.67 35.302 106 34.018C106.317 33.825 106.576 33.716 106.725 33.69Z" fill="black"/>
<path d="M109.014 50.88L107.618 51.659C109.586 55.14 112.502 57.526 118.291 57.732L118.348 56.141C112.949 55.949 110.826 54.085 109.013 50.879L109.014 50.88Z" fill="black"/>
<path fill-rule="evenodd" clip-rule="evenodd" d="M125.145 37.348C125.145 32.629 122.723 28.793 119.739 28.793C116.755 28.793 114.337 32.629 114.337 37.348C114.337 42.075 116.755 45.899 119.739 45.899C122.723 45.899 125.145 42.075 125.145 37.348Z" fill="#0078BA"/>
<path fill-rule="evenodd" clip-rule="evenodd" d="M119.739 27.998C117.902 27.998 116.315 29.176 115.24 30.879C114.165 32.582 113.535 34.854 113.535 37.349C113.535 39.844 114.165 42.118 115.24 43.82C116.315 45.522 117.902 46.696 119.739 46.696C121.576 46.696 123.163 45.522 124.239 43.821C125.315 42.12 125.946 39.848 125.946 37.35C125.946 34.852 125.315 32.583 124.239 30.88C123.163 29.177 121.577 28 119.739 28V27.998ZM119.739 29.589C120.886 29.589 122.002 30.329 122.883 31.724C123.764 33.119 124.344 35.124 124.344 37.348C124.344 39.572 123.764 41.58 122.883 42.972C122.002 44.364 120.887 45.103 119.739 45.103C118.591 45.103 117.477 44.365 116.597 42.973C115.717 41.581 115.137 39.577 115.137 37.348C115.137 35.119 115.717 33.118 116.597 31.724C117.477 30.33 118.592 29.589 119.739 29.589Z" fill="black"/>
<path fill-rule="evenodd" clip-rule="evenodd" d="M118.84 38.441C118.84 33.722 116.422 29.894 113.434 29.894C110.446 29.894 108.032 33.722 108.032 38.441C108.032 43.16 110.45 46.992 113.434 46.992C116.418 46.992 118.84 43.164 118.84 38.441Z" fill="#0078BA"/>
<path fill-rule="evenodd" clip-rule="evenodd" d="M113.434 29.099C111.597 29.099 110.011 30.274 108.935 31.975C107.859 33.676 107.23 35.947 107.23 38.441C107.23 40.935 107.86 43.209 108.935 44.911C110.01 46.613 111.597 47.788 113.434 47.788C115.271 47.788 116.86 46.613 117.936 44.911C119.012 43.209 119.641 40.938 119.641 38.441C119.641 35.944 119.011 33.676 117.935 31.975C116.859 30.274 115.272 29.099 113.434 29.099ZM113.434 30.69C114.584 30.69 115.699 31.429 116.579 32.822C117.459 34.215 118.039 36.218 118.039 38.442C118.039 40.666 117.459 42.672 116.579 44.065C115.699 45.458 114.584 46.197 113.434 46.197C112.284 46.197 111.172 45.458 110.292 44.065C109.412 42.672 108.832 40.668 108.832 38.442C108.832 36.216 109.412 34.215 110.292 32.822C111.172 31.429 112.287 30.69 113.434 30.69Z" fill="black"/>
<path d="M117.625 39.59C117.625 37.637 116.594 36.055 115.324 36.055C114.054 36.055 113.019 37.637 113.019 39.59C113.019 41.531 114.05 43.113 115.324 43.113C116.598 43.113 117.625 41.531 117.625 39.59ZM124.051 38.098C124.051 36.227 123.11 34.711 121.946 34.711C120.782 34.711 119.844 36.227 119.844 38.098C119.844 39.957 120.785 41.473 121.946 41.473C123.107 41.473 124.051 39.957 124.051 38.098Z" fill="black"/>
<path d="M117.66 39.59C117.66 37.633 116.629 36.051 115.355 36.051C114.081 36.051 113.05 37.633 113.05 39.59C113.05 41.535 114.081 43.117 115.355 43.117C116.629 43.117 117.66 41.535 117.66 39.59ZM124.012 38.094C124.012 36.227 123.075 34.715 121.914 34.715C120.753 34.715 119.816 36.227 119.816 38.094C119.816 39.949 120.757 41.461 121.914 41.461C123.071 41.461 124.012 39.949 124.012 38.094ZM54.2029 61.238C53.2069 61.695 52.1129 62.09 50.9299 62.429C49.8196 62.7554 48.6691 62.925 47.5119 62.933C46.0899 62.933 44.7889 62.738 43.6019 62.347C42.4149 61.956 41.4109 61.374 40.5789 60.589C39.7349 59.804 39.0869 58.823 38.6299 57.648C38.1729 56.457 37.9429 55.074 37.9429 53.496C37.9429 50.598 38.7949 48.309 40.4939 46.641C42.2009 44.957 44.5409 44.114 47.5139 44.114C48.5529 44.114 49.6079 44.243 50.6859 44.493C51.7719 44.739 52.9439 45.161 54.1899 45.747V48.61H53.9709L52.8689 47.844C52.4157 47.5439 51.9403 47.2788 51.4469 47.051C50.8275 46.7803 50.1822 46.5736 49.5209 46.434C48.8139 46.262 48.0049 46.176 47.0949 46.176C45.0559 46.176 43.4389 46.824 42.2429 48.133C41.0589 49.438 40.4659 51.196 40.4659 53.426C40.4659 55.77 41.0869 57.598 42.3289 58.906C43.5709 60.203 45.2629 60.847 47.4029 60.847C48.1886 60.8483 48.9725 60.7712 49.7429 60.617C50.448 60.491 51.138 60.2919 51.8019 60.023V55.578H46.9099V53.461H54.2029V61.242V61.238ZM60.7539 46.695H58.1559V44.32H60.7539V46.695ZM60.6059 62.574H58.3049V48.969H60.6059V62.574ZM72.2189 62.457C71.7849 62.57 71.3129 62.664 70.7969 62.738C70.3471 62.8069 69.8929 62.8433 69.4379 62.847C68.0399 62.847 66.9769 62.472 66.2509 61.73C65.5239 60.976 65.1609 59.781 65.1609 58.132V50.894H63.6059V48.976H65.1609V45.07H67.4659V48.976H72.2199V50.894H67.4659V57.101L67.5129 58.781C67.5465 59.1749 67.6638 59.557 67.8569 59.902C68.0369 60.226 68.2829 60.468 68.5909 60.617C68.9109 60.762 69.3919 60.836 70.0359 60.836C70.4149 60.836 70.8059 60.781 71.2159 60.676L72.0989 60.403H72.2199L72.2189 62.457Z" fill="black"/>
</svg>
