<svg width="130" height="128" viewBox="0 0 130 128" fill="none" xmlns="http://www.w3.org/2000/svg">
<path fill-rule="evenodd" clip-rule="evenodd" d="M3.38702 53.923C2.94502 53.877 2.52302 53.864 2.09102 53.983C1.65902 54.102 1.14502 54.495 1.03502 55.044C0.925017 55.593 1.11402 56.075 1.41902 56.604C1.72402 57.133 2.18702 57.731 2.86102 58.465L2.90002 58.507L2.94402 58.544C7.99523 62.5659 13.3097 66.2454 18.852 69.558L20.793 70.703L20.011 68.598L18.574 64.73L22.693 62.958L23.048 60.48L7.34902 55.005L7.32002 54.994C7.26902 54.973 5.13502 54.104 3.38702 53.921V53.923ZM3.22002 55.506C4.55302 55.645 6.76002 56.486 6.76002 56.486L6.77502 56.492L21.28 61.551L21.236 61.854L16.55 63.871L17.691 66.941C10.139 62.267 4.09602 57.422 4.01802 57.358C3.41602 56.698 3.01602 56.172 2.81102 55.815C2.67402 55.577 2.69302 55.572 2.67902 55.514C2.8586 55.4882 3.04075 55.4855 3.22102 55.506H3.22002Z" fill="black" stroke="black"/>
<path fill-rule="evenodd" clip-rule="evenodd" d="M53.3471 34.067L53.2991 34.073C43.4281 35.148 36.7031 38.101 31.6991 42.988L31.6471 42.967L31.2721 43.357C26.9621 47.848 21.8601 55.669 21.6451 61.682L21.6421 61.781L21.6631 61.877C21.8271 62.64 22.0531 63.248 22.5101 63.704C22.9671 64.16 23.5631 64.353 24.2021 64.47C25.4811 64.704 27.2231 64.735 30.2621 65.464C33.2621 66.183 33.7391 66.841 35.2621 68.266C36.7851 69.691 39.1621 71.747 45.3301 74.76L45.4541 74.821L45.5901 74.837L48.0371 75.109C48.5041 75.146 48.8671 75.117 49.1401 74.999C49.4131 74.881 49.4251 74.835 49.7791 74.716C50.1331 74.597 50.7891 74.429 52.0131 74.234L52.1271 74.216L52.2321 74.166C59.7241 70.596 59.3141 70.861 65.3171 71.354C68.8041 71.848 67.4201 71.309 73.6931 73.883L74.0071 74.012L74.3191 73.877C75.3661 73.422 76.0281 73.088 76.5201 72.747C77.0121 72.406 77.3301 72.017 77.5361 71.653C77.9481 70.924 78.0441 70.351 79.5851 68.721L79.6211 68.683L79.6521 68.641C80.5871 67.351 80.8401 66.591 80.9591 65.682C81.0781 64.773 81.1381 63.668 81.8751 61.03V61.029C83.3741 55.681 83.4091 56.228 86.4231 50.341L86.4361 50.315L86.4471 50.289C86.9961 48.994 86.9431 47.718 86.4811 46.641C86.0191 45.564 85.2031 44.674 84.2741 43.889C82.4151 42.319 80.0271 41.108 78.6851 40.096L78.6461 40.066L78.6021 40.041C67.5991 33.716 62.8661 34.164 53.3931 34.067H53.3471ZM53.4331 35.66C62.9231 35.755 67.0161 35.219 77.8021 41.42C79.3601 42.578 81.6201 43.736 83.2391 45.103C84.0611 45.797 84.6951 46.53 85.0101 47.265C85.3251 48 85.3711 48.723 84.9761 49.663C82.0141 55.444 81.8381 55.238 80.3341 60.604V60.605C79.5711 63.337 79.4801 64.67 79.3731 65.477C79.2661 66.284 79.2151 66.52 78.3611 67.7C76.7601 69.411 76.4011 70.417 76.1421 70.875C76.0111 71.107 75.9351 71.214 75.6051 71.444C75.3221 71.64 74.7171 71.937 73.9561 72.281C68.2891 69.96 68.8531 70.255 65.5081 69.777L65.4841 69.773L65.4601 69.771C59.5051 69.283 59.0421 69.163 51.6241 72.695C50.4721 72.885 49.7231 73.058 49.2681 73.21C48.7871 73.371 48.5181 73.535 48.5031 73.541C48.4881 73.547 48.5571 73.555 48.1651 73.524C47.7971 73.495 47.0581 73.406 45.9221 73.274C39.9661 70.352 37.8331 68.487 36.3591 67.109C34.8751 65.721 33.8481 64.688 30.6371 63.919C27.4721 63.16 25.5131 63.095 24.4921 62.908C23.9811 62.815 23.7761 62.716 23.6451 62.584C23.5231 62.462 23.3861 62.187 23.2581 61.647C23.4891 56.631 28.1631 49.036 32.1741 44.746L32.4431 44.472C37.1991 39.644 43.5691 36.741 53.4331 35.661V35.66Z" fill="black" stroke="black"/>
<path fill-rule="evenodd" clip-rule="evenodd" d="M88.0528 47.143C87.4779 47.223 86.9349 47.403 86.4379 47.679C85.4438 48.23 84.6438 49.119 83.9458 50.231C82.5478 52.454 81.5058 55.622 80.3368 59.391L80.3258 59.427L80.3188 59.464C79.6338 62.745 78.6068 66.377 77.2548 68.727C76.5788 69.902 75.8258 70.729 75.1078 71.089C74.3899 71.449 73.7058 71.467 72.6998 70.877L72.6278 70.835L72.5489 70.809L66.3839 68.774C65.9649 68.683 65.6339 68.686 65.2608 68.698C64.8878 68.71 64.3988 68.727 63.4318 68.679L63.3848 68.677L63.3378 68.68C59.4348 68.943 56.0318 70.522 52.4958 71.333C48.9668 72.143 45.3378 72.274 40.6838 69.779C33.5578 64.598 30.9028 63.163 22.3518 61.049C21.6798 60.872 20.7808 60.856 19.7898 61.003C18.7988 61.15 17.7378 61.458 16.9548 62.196C16.1718 62.934 15.8538 64.21 16.4088 65.546C16.9638 66.882 18.2288 68.386 20.5338 70.285L20.8278 70.528L21.1048 70.473C25.1208 70.634 27.5448 72.031 29.5638 73.675C31.5948 75.33 33.1628 77.304 35.4388 78.348L35.5078 78.38L35.5818 78.398C40.3248 79.565 43.5638 82.186 49.4518 82.397L49.6488 82.404L49.8268 82.32C55.7718 79.481 64.8878 79.72 73.3788 82.072L73.4758 82.099L73.5769 82.101C76.0539 82.152 78.0628 81.209 79.7898 79.189C81.5168 77.169 83.0798 74.118 85.1298 69.701L85.1488 69.658L85.1638 69.613C86.2738 66.208 86.9158 62.978 87.6879 60.242C88.4599 57.506 89.3608 55.299 90.8658 53.83L90.8108 53.879C91.8488 53.038 92.8708 52.051 93.0168 50.714C93.0898 50.046 92.8588 49.318 92.3428 48.736C91.8269 48.154 91.0648 47.68 90.0038 47.255L89.9368 47.228L89.8658 47.214C89.2705 47.0879 88.6581 47.0643 88.0548 47.144L88.0528 47.143ZM88.2758 48.709C88.6368 48.66 89.0349 48.684 89.4799 48.769C90.3409 49.125 90.8768 49.492 91.1408 49.789C91.4138 50.097 91.4519 50.291 91.4249 50.544C91.3699 51.05 90.7139 51.906 89.7989 52.646L89.7698 52.669L89.7439 52.694C87.9018 54.491 86.9428 56.987 86.1459 59.813C85.3529 62.626 84.7188 65.801 83.6538 69.079C81.6298 73.438 80.0768 76.394 78.5698 78.158C77.0728 79.91 75.7278 80.534 73.6728 80.505C65.0658 78.144 55.8608 77.799 49.3658 80.794C44.0848 80.561 41.0638 78.147 36.0928 76.893C34.2968 76.062 32.7548 74.218 30.5778 72.444C28.4498 70.71 25.6338 69.138 21.3978 68.911C19.3318 67.179 18.2528 65.821 17.8858 64.938C17.5068 64.027 17.6718 63.71 18.0538 63.35C18.4358 62.99 19.2228 62.695 20.0228 62.576C20.8228 62.457 21.6628 62.513 21.9378 62.586L21.9438 62.587L21.9498 62.589C30.4588 64.692 32.6478 65.905 39.7988 71.107L39.8428 71.139L39.8908 71.164C44.8958 73.856 49.1048 73.742 52.8528 72.882C56.5958 72.023 59.9118 70.508 63.4288 70.268C64.055 70.3005 64.6822 70.3071 65.3088 70.288C65.6778 70.276 65.7668 70.269 66.0378 70.328C66.5808 70.446 67.8728 70.926 72.0359 72.317L71.8848 72.248C73.2418 73.043 74.6669 73.091 75.8269 72.509C76.9869 71.927 77.8808 70.842 78.6428 69.516C80.1568 66.883 81.1638 63.197 81.8648 59.86V59.858C83.0278 56.109 84.0828 53.011 85.3008 51.074C85.9099 50.105 86.5479 49.44 87.2159 49.069C87.5424 48.8835 87.901 48.7613 88.2729 48.709H88.2758Z" fill="black" stroke="black"/>
<path fill-rule="evenodd" clip-rule="evenodd" d="M22.2852 68.661C21.5553 68.642 20.825 68.6812 20.1012 68.778L20.2072 69.567L19.6412 69.012L17.1332 71.536C15.9292 72.847 14.5512 74.528 13.5542 76.356C11.5502 80.021 11.1132 84.053 13.4152 89.056C14.3822 91.575 16.3202 93.032 18.6442 93.999C20.9682 94.966 23.7192 95.529 26.6392 96.388L26.8152 96.44L26.9972 96.41C28.0672 96.234 29.0652 96.496 30.2542 96.519C31.4432 96.542 32.8212 96.168 34.0712 94.761L34.0652 94.767C34.8892 93.86 35.6592 93.618 36.2182 92.721C36.4982 92.273 36.5942 91.675 36.4932 91.048C36.3922 90.421 36.1352 89.71 35.7022 88.743L35.6792 88.691L35.6492 88.644C33.9162 85.892 32.9042 83.668 32.6902 81.883C32.4762 80.098 32.9532 78.733 34.4162 77.297L34.7902 76.929L34.5992 76.441C34.1282 75.241 33.5512 74.226 32.4872 73.219C31.4232 72.212 29.9052 71.196 27.4652 69.774L27.4032 69.738L27.3352 69.713C26.0062 69.231 24.3372 68.715 22.2832 68.66L22.2852 68.661ZM22.2462 70.249C24.0262 70.293 25.4632 70.734 26.7212 71.187C29.0752 72.562 30.4972 73.531 31.3852 74.372C32.1552 75.101 32.5462 75.768 32.9152 76.619C31.4902 78.219 30.8622 80.059 31.1032 82.072C31.3642 84.254 32.4922 86.612 34.2512 89.416C34.6472 90.306 34.8542 90.927 34.9152 91.301C34.9762 91.675 34.9362 91.761 34.8602 91.884C34.7072 92.129 33.8872 92.593 32.8792 93.702L32.8772 93.705L32.8742 93.709C31.8742 94.834 31.2092 94.947 30.2882 94.929C29.4262 94.912 28.3162 94.674 26.9932 94.834C24.0392 93.97 21.3472 93.398 19.2652 92.531C17.1572 91.653 15.7032 90.554 14.9112 88.483L14.9012 88.458L14.8902 88.434C12.7242 83.755 13.1302 80.47 14.9642 77.115H14.9652V77.114C15.8622 75.469 17.1672 73.864 18.3202 72.608C19.3742 71.46 20.1572 70.747 20.5742 70.341C21.1302 70.2733 21.6901 70.2423 22.2502 70.248L22.2462 70.249ZM40.4192 78.558C40.1146 78.5139 39.8037 78.5627 39.5272 78.698L38.5162 79.184L38.8472 79.514C38.3312 80.244 37.9632 80.872 37.8552 81.555C37.7182 82.42 37.8882 83.23 38.0872 84.602L38.1012 84.703L38.1412 84.797C38.6632 86.025 38.8182 87.015 39.6172 87.881C40.4162 88.747 41.6742 89.175 43.9862 89.452L44.1532 89.473L44.3152 89.424C47.0522 88.597 48.5942 87.282 49.3702 85.823C50.1462 84.364 50.1592 82.86 50.1822 81.714L50.1982 80.93L49.4092 80.903C46.6392 80.807 44.6232 80.151 43.1352 79.561L41.2432 78.791C40.9722 78.693 40.7002 78.594 40.4172 78.557L40.4192 78.558ZM40.3322 80.166C40.3362 80.184 40.3632 80.167 40.6982 80.288L42.5452 81.041C44.4602 81.8041 46.4805 82.2702 48.5362 82.423C48.4942 83.334 48.4002 84.248 47.9572 85.081C47.4082 86.112 46.3412 87.104 44.0132 87.842C41.9992 87.582 41.1892 87.232 40.7992 86.808C40.4092 86.384 40.1972 85.571 39.6602 84.288C39.4682 82.967 39.3642 82.261 39.4372 81.804C39.5032 81.388 39.7622 80.938 40.3322 80.167V80.166Z" fill="black" stroke="black"/>
<path fill-rule="evenodd" clip-rule="evenodd" d="M59.9231 77.706C56.9511 77.786 54.1141 78.208 52.0841 78.984L52.0341 79.003L51.9881 79.028C49.6211 80.314 48.2411 82.361 47.5761 84.486C46.9111 86.611 46.9241 88.82 47.2821 90.619L47.4101 91.261H47.4661C47.9321 93.089 49.3631 94.534 51.4611 95.58C53.8361 96.763 57.0561 97.576 60.9491 98.212L61.0411 98.227L61.1331 98.221C63.9031 98.033 66.5721 98.6 69.1681 98.505C71.7641 98.41 74.3311 97.498 76.3531 94.486L76.4501 94.342L76.4771 94.171C76.8401 91.942 76.7641 89.254 76.1781 86.741C75.5921 84.228 74.5101 81.876 72.6941 80.411C70.6581 78.644 66.8881 77.933 62.9141 77.74C61.9171 77.6919 60.9188 77.6812 59.9211 77.708L59.9231 77.706ZM59.9631 79.304C60.9213 79.274 61.8804 79.282 62.8381 79.328C66.6511 79.513 70.2701 80.406 71.6551 81.617L71.6681 81.628L71.6811 81.639C73.0751 82.761 74.0851 84.802 74.6201 87.099C75.1391 89.327 75.2101 91.766 74.9181 93.728C73.1721 96.247 71.3701 96.833 69.1111 96.915C66.8411 96.997 64.1501 96.45 61.1581 96.631C57.3701 96.01 54.2811 95.205 52.1781 94.158C50.0651 93.105 49.0151 91.917 48.8681 90.39L48.8191 89.884C48.5831 88.395 48.5841 86.625 49.1051 84.96C49.6691 83.16 50.7671 81.53 52.7131 80.456C54.4461 79.804 57.1311 79.393 59.9641 79.306L59.9631 79.304ZM85.1751 68.764L85.0261 68.817C83.9151 69.214 83.1491 70.138 82.5131 71.193C81.8771 72.248 81.3581 73.48 80.8441 74.676L79.2661 77.896C78.7131 78.762 78.1471 79.284 77.5821 79.434L77.7871 80.194L77.1001 80.11C76.7701 82.772 77.1681 86.006 78.4471 88.682C79.7261 91.358 82.0231 93.518 85.2871 93.534C89.8031 93.988 92.7571 93.422 94.8531 92.261C96.9621 91.093 98.1291 89.371 99.1751 87.808L99.2461 87.701L99.2801 87.577C100.186 84.285 98.9051 80.989 96.9321 78.08C94.9591 75.171 92.2561 72.575 90.0391 70.572L90.0361 70.57L90.0331 70.568C89.1371 69.772 88.5431 69.312 87.8211 69.064C87.0991 68.816 86.4161 68.82 85.3321 68.772L85.1751 68.764ZM85.4711 70.382C86.3611 70.422 86.9471 70.446 87.3011 70.567C87.6961 70.702 88.1091 70.99 88.9671 71.753C91.1511 73.726 93.7671 76.258 95.6051 78.968C97.4211 81.645 98.4251 84.425 97.7471 87.052C96.7401 88.554 95.7691 89.931 94.0731 90.87C92.3271 91.837 89.7361 92.394 85.3801 91.946L85.3401 91.942H85.3001C82.7201 91.932 81.0081 90.331 79.8931 87.999C78.8361 85.788 78.4611 82.976 78.6711 80.693C79.4761 80.273 80.1001 79.561 80.6181 78.749C81.2741 77.721 81.8001 76.502 82.3161 75.302C82.8321 74.102 83.3381 72.921 83.8861 72.012C84.4021 71.156 84.9441 70.612 85.4701 70.383L85.4711 70.382Z" fill="black" stroke="black"/>
<path fill-rule="evenodd" clip-rule="evenodd" d="M94.3168 75.051L93.9158 75.156C91.5738 75.771 88.0938 77.924 85.5588 81.037C83.0658 84.099 81.5908 88.256 83.7148 92.49V92.92L84.2718 93.097C87.7398 94.198 90.0308 94.275 92.0088 93.575C93.9868 92.875 95.5278 91.512 97.7898 89.904L97.8428 89.866L97.8898 89.819C99.6868 88.034 99.9458 85.277 99.2558 82.599C98.5658 79.921 96.9278 77.225 94.6348 75.315L94.3168 75.051ZM93.9268 76.852C95.7628 78.51 97.1388 80.794 97.7048 82.994C98.3018 85.314 98.0158 87.418 96.7758 88.67C94.5108 90.286 93.0378 91.521 91.4708 92.076C89.9428 92.617 88.1658 92.605 85.0988 91.673C83.3588 88.098 84.5678 84.785 86.8048 82.038C88.9598 79.391 92.0748 77.472 93.9278 76.852H93.9268ZM108.126 32.112C107.899 32.0792 107.669 32.0829 107.444 32.123C106.992 32.203 106.553 32.403 106.085 32.701L106.017 32.744L105.959 32.801C104.551 34.16 103.704 35.025 103.115 36.626C102.531 38.214 102.167 40.454 101.436 44.796C100.651 46.97 99.5068 48.862 97.8868 50.125C96.2538 51.398 94.1348 52.085 91.1858 51.776L90.8878 51.745L90.6418 51.916C87.7358 53.94 86.5798 56.686 85.9048 59.602C85.2298 62.518 84.9658 65.648 83.8458 68.812L83.5748 69.578L84.3518 69.831C89.3998 71.478 92.7288 71.361 95.1148 70.503C97.5008 69.645 98.8748 68.094 100.002 67.217L100.029 67.195L100.055 67.171C101.288 66.025 102.032 64.679 103.033 63.645C104.034 62.611 105.233 61.818 107.58 61.615C111.451 61.555 113.996 61.385 115.814 60.824C117.465 60.314 118.499 59.331 119.083 58.016C121.021 57.426 122.301 57.633 123.763 57.345C124.632 57.1738 125.441 56.7741 126.105 56.187C126.872 55.523 127.63 54.551 128.497 53.101C129.053 52.271 129.182 51.154 128.649 50.096C128.116 49.038 127.077 47.926 125.357 46.403L125.436 46.484C124.48 45.361 122.946 45.162 121.653 44.948C121.006 44.841 120.404 44.749 119.977 44.634C119.55 44.519 119.378 44.352 119.41 44.407L118.989 43.704L118.293 44.142C116.657 45.173 115.384 45.676 114.458 45.815C113.532 45.954 112.98 45.78 112.52 45.417C111.6 44.693 111.056 42.805 110.793 40.635C110.53 38.465 110.497 36.122 110.059 34.406C109.84 33.548 109.53 32.754 108.758 32.323C108.561 32.2149 108.347 32.1434 108.125 32.112H108.126ZM107.725 33.69C107.884 33.662 107.922 33.681 107.974 33.71C108.079 33.769 108.333 34.11 108.508 34.796C108.858 36.169 108.927 38.546 109.204 40.825C109.481 43.104 109.912 45.392 111.527 46.663C112.334 47.299 113.439 47.577 114.699 47.387C115.82 47.218 117.121 46.655 118.619 45.77C118.911 45.9489 119.228 46.0833 119.56 46.169C120.131 46.322 120.762 46.412 121.391 46.516C122.649 46.724 123.834 47.063 124.214 47.51L124.251 47.553L124.293 47.59C125.956 49.063 126.871 50.118 127.218 50.807C127.565 51.496 127.507 51.712 127.164 52.221L127.152 52.239L127.141 52.258C126.316 53.642 125.634 54.484 125.054 54.985C124.474 55.486 124.013 55.672 123.452 55.783C122.329 56.005 120.694 55.764 118.267 56.587L117.897 56.712L117.769 57.08C117.351 58.281 116.836 58.841 115.34 59.303C113.844 59.765 111.37 59.966 107.505 60.025H107.476L107.448 60.027C104.76 60.258 103.067 61.314 101.88 62.54C100.693 63.766 99.9528 65.085 98.9638 66.005C97.6668 67.025 96.5318 68.299 94.5708 69.004C92.6978 69.678 89.9518 69.817 85.6018 68.516C86.5728 65.425 86.8808 62.484 87.4668 59.955C88.0878 57.274 89.0158 55.099 91.3928 53.364C94.4958 53.607 96.9998 52.837 98.8758 51.375C100.83 49.852 102.115 47.659 102.966 45.277L103.012 45.148V45.078C103.746 40.719 104.132 38.498 104.619 37.171C105.098 35.867 105.67 35.302 107 34.018C107.317 33.825 107.576 33.716 107.725 33.69Z" fill="black" stroke="black"/>
<path d="M110.014 50.88L108.618 51.659C110.586 55.14 113.502 57.526 119.291 57.732L119.348 56.141C113.949 55.949 111.826 54.085 110.013 50.879L110.014 50.88Z" fill="black" stroke="black"/>
<path fill-rule="evenodd" clip-rule="evenodd" d="M120.738 27.998C119.031 27.998 117.541 29.017 116.476 30.527C116.927 30.8234 117.332 31.1854 117.677 31.601C118.544 30.287 119.625 29.589 120.738 29.589C121.885 29.589 123.002 30.329 123.883 31.724C124.764 33.119 125.344 35.123 125.344 37.347C125.344 39.571 124.764 41.58 123.883 42.972C123.002 44.364 121.886 45.103 120.738 45.103C119.951 45.103 119.181 44.756 118.49 44.089C118.231 44.559 117.922 44.9996 117.568 45.403C118.474 46.206 119.553 46.694 120.738 46.694C122.575 46.694 124.162 45.52 125.238 43.819C126.314 42.118 126.945 39.846 126.945 37.348C126.945 34.85 126.314 32.582 125.238 30.879C124.162 29.176 122.576 27.998 120.738 27.998V27.996V27.998Z" fill="black"/>
<path d="M120.738 27.998C119.031 27.998 117.541 29.017 116.476 30.527C116.927 30.8234 117.332 31.1854 117.677 31.601C118.544 30.287 119.625 29.589 120.738 29.589C121.885 29.589 123.002 30.329 123.883 31.724C124.764 33.119 125.344 35.123 125.344 37.347C125.344 39.571 124.764 41.58 123.883 42.972C123.002 44.364 121.886 45.103 120.738 45.103C119.951 45.103 119.181 44.756 118.49 44.089C118.231 44.559 117.922 44.9996 117.568 45.403C118.474 46.206 119.553 46.694 120.738 46.694C122.575 46.694 124.162 45.52 125.238 43.819C126.314 42.118 126.945 39.846 126.945 37.348C126.945 34.85 126.314 32.582 125.238 30.879C124.162 29.176 122.576 27.998 120.738 27.998V27.996V27.998Z" stroke="black"/>
<path fill-rule="evenodd" clip-rule="evenodd" d="M114.434 29.099C112.597 29.099 111.011 30.274 109.935 31.975C108.859 33.676 108.23 35.947 108.23 38.441C108.23 40.935 108.86 43.209 109.935 44.911C111.01 46.613 112.597 47.788 114.434 47.788C116.271 47.788 117.86 46.613 118.936 44.911C120.012 43.209 120.641 40.938 120.641 38.441C120.641 35.944 120.011 33.676 118.935 31.975C117.859 30.274 116.272 29.099 114.434 29.099ZM114.434 30.69C115.584 30.69 116.699 31.429 117.579 32.822C118.459 34.215 119.039 36.218 119.039 38.442C119.039 40.666 118.459 42.672 117.579 44.065C116.699 45.458 115.584 46.197 114.434 46.197C113.284 46.197 112.172 45.458 111.292 44.065C110.412 42.672 109.832 40.668 109.832 38.442C109.832 36.216 110.412 34.215 111.292 32.822C112.172 31.429 113.287 30.69 114.434 30.69Z" fill="black" stroke="black"/>
<path d="M61.6059 62.574H59.3049V48.969H61.6059V62.574ZM61.7539 46.695H59.1559V44.32H61.7539V46.695ZM55.2029 61.238C54.2069 61.695 53.1129 62.09 51.9299 62.429C50.8196 62.7554 49.6691 62.925 48.5119 62.933C47.0899 62.933 45.7889 62.738 44.6019 62.347C43.4149 61.956 42.4109 61.374 41.5789 60.589C40.7349 59.804 40.0869 58.823 39.6299 57.648C39.1729 56.457 38.9429 55.074 38.9429 53.496C38.9429 50.598 39.7949 48.309 41.4939 46.641C43.2009 44.957 45.5409 44.114 48.5139 44.114C49.5529 44.114 50.6079 44.243 51.6859 44.493C52.7719 44.739 53.9439 45.161 55.1899 45.747V48.61H54.9709L53.8689 47.844C53.4157 47.5439 52.9403 47.2788 52.4469 47.051C51.8275 46.7803 51.1822 46.5736 50.5209 46.434C49.8139 46.262 49.0049 46.176 48.0949 46.176C46.0559 46.176 44.4389 46.824 43.2429 48.133C42.0589 49.438 41.4659 51.196 41.4659 53.426C41.4659 55.77 42.0869 57.598 43.3289 58.906C44.5709 60.203 46.2629 60.847 48.4029 60.847C49.1886 60.8483 49.9725 60.7712 50.7429 60.617C51.448 60.491 52.138 60.2919 52.8019 60.023V55.578H47.9099V53.461H55.2029V61.242V61.238ZM73.2189 62.457C72.7849 62.57 72.3129 62.664 71.7969 62.738C71.3471 62.8069 70.8929 62.8433 70.4379 62.847C69.0399 62.847 67.9769 62.472 67.2509 61.73C66.5239 60.976 66.1609 59.781 66.1609 58.132V50.894H64.6059V48.976H66.1609V45.07H68.4659V48.976H73.2199V50.894H68.4659V57.101L68.5129 58.781C68.5465 59.1749 68.6638 59.557 68.8569 59.902C69.0206 60.2114 69.2773 60.4615 69.5909 60.617C69.9109 60.762 70.3919 60.836 71.0359 60.836C71.4149 60.836 71.8059 60.781 72.2159 60.676L73.0989 60.403H73.2199L73.2189 62.457Z" fill="black" stroke="black"/>
</svg>
