<svg width="128" height="128" viewBox="0 0 128 128" fill="none" xmlns="http://www.w3.org/2000/svg">
<path d="M123.642 74.037L119.996 68.784C122.176 67.992 123.673 66.25 123.673 63.51V63.449C123.673 59.939 121.223 57.846 117.186 57.846H109.838C109.768 57.8452 109.698 57.8583 109.633 57.8846C109.568 57.9108 109.509 57.9497 109.459 57.999C109.409 58.0482 109.369 58.1069 109.342 58.1716C109.315 58.2363 109.3 58.3058 109.3 58.376V74.329C109.3 74.623 109.54 74.859 109.838 74.859H112.555C112.625 74.8598 112.695 74.8467 112.76 74.8204C112.825 74.7942 112.884 74.7553 112.934 74.706C112.984 74.6568 113.024 74.5981 113.051 74.5334C113.079 74.4687 113.093 74.3992 113.093 74.329V69.406H116.083L119.606 74.623C119.656 74.6969 119.723 74.7572 119.802 74.7984C119.881 74.8397 119.969 74.8605 120.058 74.859H123.192C123.612 74.859 123.879 74.386 123.642 74.037ZM119.847 63.716C119.847 65.16 118.802 66.101 116.95 66.101H113.124V61.238H116.889C118.74 61.238 119.879 62.061 119.879 63.654V63.716H119.847ZM91.9091 57.876H89.0681C88.9528 57.8731 88.8399 57.9093 88.7477 57.9786C88.6555 58.048 88.5894 58.1464 88.5601 58.258L85.0941 69.406L81.3611 58.2C81.3256 58.0941 81.2569 58.0024 81.1652 57.9385C81.0736 57.8745 80.9638 57.8418 80.8521 57.845H78.3721C78.1351 57.845 77.9541 57.993 77.8621 58.2L74.1301 69.406L70.6641 58.256C70.6304 58.1473 70.5633 58.0521 70.4722 57.9838C70.3812 57.9156 70.2709 57.8779 70.1571 57.876H67.2591C66.9001 57.876 66.6331 58.231 66.7501 58.555L72.2791 74.623C72.3351 74.829 72.5451 74.978 72.7861 74.978H75.3261C75.4366 74.9769 75.5442 74.9425 75.6347 74.8791C75.7252 74.8157 75.7943 74.7265 75.8331 74.623L79.5981 63.86L83.3661 74.623C83.4221 74.829 83.6331 74.978 83.8741 74.978H86.4121C86.6481 74.978 86.8281 74.829 86.9201 74.623L92.4481 58.555C92.5041 58.231 92.2681 57.877 91.9101 57.877L91.9091 57.876ZM106.729 71.528H97.9141V67.961H105.504C105.574 67.9615 105.644 67.9482 105.709 67.9219C105.774 67.8955 105.833 67.8566 105.883 67.8074C105.932 67.7581 105.972 67.6996 105.999 67.635C106.027 67.5704 106.041 67.5011 106.041 67.431V65.161C106.041 65.0908 106.027 65.0212 106 64.9565C105.973 64.8917 105.933 64.833 105.883 64.7837C105.833 64.7344 105.773 64.6955 105.708 64.6693C105.643 64.6431 105.573 64.6301 105.503 64.631H97.9141V61.208H106.612C106.682 61.2087 106.752 61.1955 106.817 61.1692C106.882 61.1429 106.941 61.104 106.991 61.0547C107.041 61.0055 107.081 60.9469 107.108 60.8822C107.135 60.8176 107.15 60.7482 107.15 60.678V58.407C107.15 58.3368 107.135 58.2674 107.108 58.2028C107.081 58.1381 107.041 58.0795 106.991 58.0303C106.941 57.981 106.882 57.9422 106.817 57.9158C106.752 57.8895 106.682 57.8763 106.612 57.877H94.6891C94.6188 57.8761 94.5491 57.8891 94.4838 57.9153C94.4186 57.9415 94.3592 57.9803 94.3091 58.0296C94.259 58.0789 94.2191 58.1376 94.1918 58.2024C94.1646 58.2672 94.1504 58.3367 94.1501 58.407V74.329C94.1501 74.623 94.3901 74.859 94.6881 74.859H106.729C106.799 74.8598 106.869 74.8467 106.934 74.8204C106.999 74.7942 107.058 74.7553 107.108 74.706C107.158 74.6568 107.198 74.5981 107.225 74.5334C107.253 74.4687 107.267 74.3992 107.267 74.329V72.058C107.267 71.9878 107.252 71.9184 107.225 71.8538C107.198 71.7891 107.158 71.7305 107.108 71.6813C107.058 71.632 106.999 71.5931 106.934 71.5668C106.869 71.5405 106.799 71.5273 106.729 71.528ZM57.6371 57.578C52.3191 57.578 48.4621 61.532 48.4621 66.368V66.424C48.4621 71.261 52.2881 75.157 57.5751 75.157C62.8931 75.157 66.7491 71.204 66.7491 66.368V66.312C66.7491 61.5 62.9551 57.579 57.6371 57.579V57.578ZM62.8071 66.425C62.8071 69.345 60.6831 71.703 57.6371 71.703C54.5861 71.703 52.4071 69.287 52.4071 66.368V66.312C52.4071 63.392 54.5291 61.032 57.5751 61.032C60.6221 61.032 62.8061 63.449 62.8061 66.368L62.8071 66.425ZM47.8371 57.877H34.6271C34.5569 57.8762 34.4872 57.8893 34.422 57.9156C34.3568 57.9418 34.2975 57.9807 34.2474 58.0299C34.1973 58.0792 34.1575 58.1378 34.1301 58.2026C34.1028 58.2673 34.0885 58.3368 34.0881 58.407V60.796C34.0881 61.059 34.2681 61.269 34.5381 61.296H39.3491V74.329C39.3491 74.623 39.5861 74.859 39.8871 74.859H42.6071C42.6772 74.8595 42.7467 74.8462 42.8116 74.8199C42.8766 74.7935 42.9357 74.7546 42.9855 74.7054C43.0354 74.6561 43.0751 74.5976 43.1023 74.533C43.1295 74.4684 43.1437 74.3991 43.1441 74.329V61.295H47.9541C48.0751 61.2765 48.1859 61.2165 48.2674 61.1253C48.349 61.0341 48.3962 60.9173 48.4011 60.795V58.407C48.3451 58.113 48.1341 57.877 47.8371 57.877ZM10.3961 81.644V82.467C10.3961 82.528 10.4521 82.585 10.5141 82.585H21.7801C21.8361 82.585 21.8981 82.528 21.8981 82.467V81.644H10.3961ZM23.1331 59.829H9.26611V59.33H23.1331V59.829Z" fill="#FFC600"/>
<path d="M12.9961 54.515H13.5331V59.351H12.9961V54.515ZM18.8831 54.515H19.4161V59.351H18.8831V54.515ZM22.6001 54.494H23.1331V59.33H22.6001V54.494Z" fill="#FFC600"/>
<path d="M18.9998 54.515H19.4158V59.351H19.0018L18.9998 54.515ZM23.8098 61.059L23.6008 59.912C23.6008 59.852 23.5438 59.82 23.4828 59.82H8.92985C8.87385 59.82 8.81185 59.851 8.81185 59.912L8.60185 61.059H23.8098ZM26.4988 63.833L26.0218 61.178C26.0218 61.119 25.9598 61.089 25.9018 61.089H6.53985C6.47785 61.089 6.42085 61.119 6.42085 61.177L5.94385 63.833H26.4988ZM9.58585 72.206V81.346C9.58585 81.526 9.73885 81.644 9.88785 81.644H22.4978C22.6768 81.644 22.7958 81.495 22.7958 81.346V72.207L9.58585 72.206ZM6.83685 51.21H25.5748L25.3028 50.27C25.2728 50.208 25.2468 50.15 25.1538 50.15H7.19585C7.13985 50.15 7.07785 50.208 7.04585 50.27L6.83685 51.21Z" fill="#FFC600"/>
<path d="M6.8374 51.2107H25.5747L25.5142 50.9474H6.89791L6.8374 51.2107Z" fill="#FFC600"/>
<path d="M6.09286 54.515H26.3499C26.4099 54.515 26.4419 54.485 26.4419 54.428L26.9489 51.211H5.49386L5.99986 54.427C5.99986 54.454 6.02986 54.515 6.09186 54.515H6.09286ZM28.2009 66.101L27.6929 64.04C27.6679 63.92 27.5759 63.833 27.4579 63.833H4.98386C4.86586 63.833 4.77386 63.921 4.74886 64.04L4.23486 66.1C4.23486 66.13 4.23486 66.16 4.26686 66.192L8.20986 72.12C8.23986 72.176 8.33186 72.237 8.41986 72.237H24.0749C24.1669 72.237 24.2289 72.207 24.2859 72.12L28.2299 66.192C28.1989 66.162 28.1989 66.132 28.1989 66.102L28.2009 66.101Z" fill="#FFC600"/>
<path d="M9.26611 54.494H9.79911V59.33H9.26611V54.494Z" fill="#FFC600"/>
<path d="M6.02786 54.457C5.92996 53.9117 5.83995 53.3649 5.75786 52.817L5.50586 51.222L16.2139 51.217C22.1039 51.214 26.9259 51.215 26.9299 51.219C26.9399 51.229 26.4299 54.458 26.4139 54.483C26.4049 54.497 23.2489 54.503 16.2239 54.502L6.04786 54.501L6.02786 54.457ZM6.86386 51.148L6.88786 51.03L6.90086 50.956H25.5119L25.5249 51.03C25.5309 51.07 25.5419 51.123 25.5489 51.148L25.5609 51.192H6.85286L6.86386 51.148ZM22.6009 56.926V54.522H23.1329V59.33H22.6009V56.926ZM18.8969 56.936V54.522H19.4089V59.35H18.8969V56.936ZM13.0049 56.936V54.522H13.5169V59.35H13.0049V56.936ZM9.27986 56.916V54.502H9.79286V59.33H9.28086L9.27986 56.916Z" fill="#FFC600"/>
<path d="M9.28005 59.567V59.33H11.1321C12.3451 59.33 12.9871 59.337 12.9951 59.35C13.0111 59.376 13.5371 59.376 13.5371 59.35C13.5371 59.322 18.8701 59.322 18.8871 59.35C18.9031 59.376 19.4031 59.376 19.4191 59.35C19.4271 59.337 20.0691 59.33 21.2821 59.33H23.1331V59.803H9.28105L9.28005 59.567ZM5.96406 63.778L6.20605 62.436C6.36105 61.57 6.44805 61.133 6.46605 61.121C6.48105 61.111 10.7541 61.104 16.2291 61.104C24.0781 61.104 25.9691 61.108 25.9861 61.128C26.0021 61.147 26.4831 63.747 26.4831 63.811C26.4831 63.818 21.8641 63.823 16.2191 63.823H5.95605L5.96406 63.778ZM9.71605 81.563C9.66869 81.5197 9.63381 81.4644 9.61505 81.403C9.59505 81.334 9.58606 79.791 9.58606 76.779V72.257H22.7951V76.779C22.7951 79.791 22.7851 81.334 22.7651 81.403C22.7466 81.4643 22.7121 81.5195 22.6651 81.563L22.5921 81.62H9.78905L9.71605 81.563ZM10.4571 82.55C10.4311 82.539 10.4221 82.42 10.4221 82.092V81.648H21.8751V82.075C21.8751 82.369 21.8651 82.511 21.8421 82.535C21.8161 82.56 20.5161 82.567 16.1501 82.565C14.2524 82.5689 12.3547 82.5636 10.4571 82.549V82.55Z" fill="#FFC600"/>
</svg>
