<svg width="128" height="128" viewBox="0 0 128 128" fill="none" xmlns="http://www.w3.org/2000/svg">
<path d="M123.642 74.037L119.996 68.784C122.176 67.992 123.673 66.25 123.673 63.51V63.449C123.673 59.939 121.223 57.846 117.186 57.846H109.838C109.768 57.8452 109.698 57.8583 109.633 57.8846C109.568 57.9108 109.509 57.9497 109.459 57.999C109.409 58.0482 109.369 58.1069 109.342 58.1716C109.314 58.2363 109.3 58.3058 109.3 58.376V74.329C109.3 74.623 109.54 74.859 109.838 74.859H112.555C112.625 74.8598 112.695 74.8467 112.76 74.8204C112.825 74.7942 112.884 74.7553 112.934 74.706C112.984 74.6568 113.024 74.5981 113.051 74.5334C113.078 74.4687 113.093 74.3992 113.093 74.329V69.406H116.083L119.606 74.623C119.656 74.6969 119.723 74.7572 119.802 74.7984C119.881 74.8397 119.969 74.8605 120.058 74.859H123.192C123.612 74.859 123.879 74.386 123.642 74.037ZM119.847 63.716C119.847 65.16 118.802 66.101 116.95 66.101H113.124V61.238H116.889C118.74 61.238 119.879 62.061 119.879 63.654V63.716H119.847ZM91.9089 57.876H89.0679C88.9526 57.8731 88.8396 57.9093 88.7474 57.9786C88.6552 58.048 88.5891 58.1464 88.5599 58.258L85.0939 69.406L81.3609 58.2C81.3253 58.0941 81.2567 58.0024 81.165 57.9385C81.0734 57.8745 80.9636 57.8418 80.8519 57.845H78.3719C78.1349 57.845 77.9539 57.993 77.8619 58.2L74.1299 69.406L70.6639 58.256C70.6302 58.1473 70.563 58.0521 70.472 57.9838C70.3809 57.9156 70.2707 57.8779 70.1569 57.876H67.2589C66.8999 57.876 66.6329 58.231 66.7499 58.555L72.2789 74.623C72.3349 74.829 72.5449 74.978 72.7859 74.978H75.3259C75.4364 74.9769 75.5439 74.9425 75.6344 74.8791C75.7249 74.8157 75.7941 74.7265 75.8329 74.623L79.5979 63.86L83.3659 74.623C83.4219 74.829 83.6329 74.978 83.8739 74.978H86.4119C86.6479 74.978 86.8279 74.829 86.9199 74.623L92.4479 58.555C92.5039 58.231 92.2679 57.877 91.9099 57.877L91.9089 57.876ZM106.729 71.528H97.9139V67.961H105.504C105.574 67.9615 105.643 67.9482 105.708 67.9219C105.773 67.8955 105.832 67.8566 105.882 67.8074C105.932 67.7581 105.972 67.6996 105.999 67.635C106.026 67.5704 106.041 67.5011 106.041 67.431V65.161C106.041 65.0908 106.027 65.0212 106 64.9565C105.972 64.8917 105.933 64.833 105.883 64.7837C105.832 64.7344 105.773 64.6955 105.708 64.6693C105.643 64.6431 105.573 64.6301 105.503 64.631H97.9139V61.208H106.612C106.682 61.2087 106.752 61.1955 106.817 61.1692C106.882 61.1429 106.941 61.104 106.991 61.0547C107.041 61.0055 107.081 60.9469 107.108 60.8822C107.135 60.8176 107.149 60.7482 107.15 60.678V58.407C107.149 58.3368 107.135 58.2674 107.108 58.2028C107.081 58.1381 107.041 58.0795 106.991 58.0303C106.941 57.981 106.882 57.9422 106.817 57.9158C106.752 57.8895 106.682 57.8763 106.612 57.877H94.6889C94.6186 57.8761 94.5488 57.8891 94.4836 57.9153C94.4184 57.9415 94.359 57.9803 94.3089 58.0296C94.2588 58.0789 94.2189 58.1376 94.1916 58.2024C94.1643 58.2672 94.1502 58.3367 94.1499 58.407V74.329C94.1499 74.623 94.3899 74.859 94.6879 74.859H106.729C106.799 74.8598 106.869 74.8467 106.934 74.8204C106.999 74.7942 107.058 74.7553 107.108 74.706C107.158 74.6568 107.198 74.5981 107.225 74.5334C107.252 74.4687 107.267 74.3992 107.267 74.329V72.058C107.267 71.9878 107.252 71.9184 107.225 71.8538C107.198 71.7891 107.158 71.7305 107.108 71.6813C107.058 71.632 106.999 71.5931 106.934 71.5668C106.869 71.5405 106.799 71.5273 106.729 71.528ZM57.6369 57.578C52.3189 57.578 48.4619 61.532 48.4619 66.368V66.424C48.4619 71.261 52.2879 75.157 57.5749 75.157C62.8929 75.157 66.7489 71.204 66.7489 66.368V66.312C66.7489 61.5 62.9549 57.579 57.6369 57.579V57.578ZM62.8069 66.425C62.8069 69.345 60.6829 71.703 57.6369 71.703C54.5859 71.703 52.4069 69.287 52.4069 66.368V66.312C52.4069 63.392 54.5289 61.032 57.5749 61.032C60.6219 61.032 62.8059 63.449 62.8059 66.368L62.8069 66.425ZM47.8369 57.877H34.6269C34.5566 57.8762 34.4869 57.8893 34.4218 57.9156C34.3566 57.9418 34.2973 57.9807 34.2472 58.0299C34.1971 58.0792 34.1572 58.1378 34.1299 58.2026C34.1026 58.2673 34.0883 58.3368 34.0879 58.407V60.796C34.0879 61.059 34.2679 61.269 34.5379 61.296H39.3489V74.329C39.3489 74.623 39.5859 74.859 39.8869 74.859H42.6069C42.677 74.8595 42.7465 74.8462 42.8114 74.8199C42.8763 74.7935 42.9354 74.7546 42.9853 74.7054C43.0352 74.6561 43.0749 74.5976 43.1021 74.533C43.1293 74.4684 43.1435 74.3991 43.1439 74.329V61.295H47.9539C48.0749 61.2765 48.1856 61.2165 48.2672 61.1253C48.3488 61.0341 48.396 60.9173 48.4009 60.795V58.407C48.3449 58.113 48.1339 57.877 47.8369 57.877Z" fill="#142E4A"/>
<path d="M10.3961 81.644V82.467C10.3961 82.528 10.4521 82.585 10.5141 82.585H21.7801C21.8361 82.585 21.8981 82.528 21.8981 82.467V81.644H10.3961ZM23.1331 59.794H9.26611V54.336H23.1331V59.794Z" fill="#00CAF3"/>
<path d="M9.28872 54.309H23.1238V59.7939H9.2876L9.28872 54.309Z" fill="url(#paint0_linear_3_7387)"/>
<path d="M21.124 59.3199H23.1242V57.3478L21.124 59.3199Z" fill="white"/>
<path d="M17.4161 59.3199L22.4977 54.309H15.2928L10.2168 59.321L17.4161 59.3199Z" fill="white"/>
<path d="M9.28906 54.309H23.1544V54.8692H9.28906V54.309Z" fill="#004770"/>
<path d="M12.8725 54.309H9.28906V57.8464L12.8725 54.309Z" fill="white"/>
<path d="M23.1331 59.829H9.26611V59.33H23.1331V59.829Z" fill="#002B4C"/>
<path d="M18.8831 54.515H19.4161V59.351H18.8831V54.515ZM12.9961 54.515H13.5331V59.351H12.9961V54.515Z" fill="#002B4C"/>
<path d="M12.9956 54.5151H13.4102V59.3513H12.9956V54.5151Z" fill="url(#paint1_linear_3_7387)"/>
<path d="M19.0005 54.5151H19.4162V59.3513H19.0016L19.0005 54.5151Z" fill="url(#paint2_linear_3_7387)"/>
<path d="M13.5332 54.5151H13.652V59.3513H13.5332V54.5151Z" fill="#004770"/>
<path d="M18.7598 54.5151H18.883V59.3513H18.7598V54.5151Z" fill="#004770"/>
<path d="M23.8101 61.059L23.6011 59.912C23.6011 59.852 23.5441 59.82 23.4831 59.82H8.93005C8.87405 59.82 8.81205 59.851 8.81205 59.912L8.60205 61.059H23.8101Z" fill="#FFC500"/>
<path d="M26.4988 63.833L26.0218 61.178C26.0218 61.119 25.9598 61.089 25.9018 61.089H6.53985C6.47785 61.089 6.42085 61.119 6.42085 61.177L5.94385 63.833H26.4988Z" fill="#002B4C"/>
<path d="M26.4992 63.8334L26.0218 61.1778C26.0218 61.1195 25.9602 61.0892 25.903 61.0892H6.54045C6.4777 61.0892 6.42168 61.1195 6.42168 61.1766L5.94434 63.8334H26.4992Z" fill="url(#paint3_linear_3_7387)"/>
<path d="M9.58594 72.2059V81.346C9.58594 81.5253 9.73945 81.644 9.88848 81.644H22.4977C22.677 81.644 22.7957 81.495 22.7957 81.346V72.207L9.58594 72.2059Z" fill="url(#paint4_linear_3_7387)"/>
<path d="M6.5399 61.059C6.4779 61.059 6.4209 61.089 6.4209 61.151V61.177H26.0209V61.151C26.0209 61.089 25.9599 61.059 25.9029 61.059H6.5399Z" fill="#002B4C"/>
<path d="M6.83691 51.21H25.5749L25.3029 50.27C25.2729 50.208 25.2469 50.15 25.1539 50.15H7.19591C7.13991 50.15 7.07791 50.208 7.04591 50.27L6.83691 51.21Z" fill="#FFC500"/>
<path d="M6.8374 51.2107H25.5747L25.3036 50.2695C25.2733 50.2079 25.2475 50.1507 25.1545 50.1507H7.19597C7.13994 50.1507 7.07831 50.2079 7.04694 50.2695L6.8374 51.2107Z" fill="url(#paint5_linear_3_7387)"/>
<path d="M6.8374 51.2107H25.5747L25.5142 50.9474H6.89791L6.8374 51.2107Z" fill="#B37D4C"/>
<path d="M6.09314 54.515H26.3501C26.4101 54.515 26.4421 54.485 26.4421 54.428L26.9491 51.211H5.49414L6.00014 54.427C6.00014 54.454 6.03014 54.515 6.09214 54.515H6.09314Z" fill="#002B4C"/>
<path d="M5.52414 51.39H26.9191L26.9491 51.21H5.49414L5.52414 51.39Z" fill="#00597F"/>
<path d="M23.8109 61.059L23.6013 59.9116C23.6013 59.8511 23.5442 59.8197 23.4826 59.8197H8.93036C8.87434 59.8197 8.81159 59.8511 8.81159 59.9116L8.60205 61.059H23.8109Z" fill="url(#paint6_linear_3_7387)"/>
<path d="M23.8101 61.059L23.7501 60.678H8.6921L8.6001 61.059H23.8101Z" fill="#D99926"/>
<path d="M26.4991 63.8334L26.3804 63.1812H6.03172L5.91406 63.8334H26.4991Z" fill="#002B4C"/>
<path d="M10.3961 81.644H21.9285V81.8188H10.395L10.3961 81.644Z" fill="#004770"/>
<path d="M12.9341 72.2059H9.58594V81.346C9.58594 81.5253 9.73945 81.644 9.88848 81.644H12.9341V72.2059Z" fill="#002B4C"/>
<path d="M22.8261 81.346V72.207H19.478V81.644H22.5247C22.6771 81.644 22.8273 81.5253 22.8273 81.346H22.8261Z" fill="url(#paint7_linear_3_7387)"/>
<path d="M28.2009 66.101L27.6929 64.04C27.6679 63.92 27.5759 63.833 27.4579 63.833H4.98386C4.86586 63.833 4.77386 63.921 4.74886 64.04L4.23486 66.1C4.23486 66.13 4.23486 66.16 4.26686 66.192L8.20986 72.12C8.23986 72.176 8.33186 72.237 8.41986 72.237H24.0749C24.1669 72.237 24.2289 72.207 24.2859 72.12L28.2299 66.192C28.1989 66.162 28.1989 66.132 28.1989 66.102L28.2009 66.101Z" fill="#FFC500"/>
<path d="M28.201 66.1013L27.6934 64.0396C27.6677 63.9208 27.5758 63.8334 27.4581 63.8334H4.98386C4.8662 63.8334 4.77432 63.9208 4.74855 64.0396L4.23535 66.1013C4.23535 66.1316 4.23535 66.1618 4.26673 66.1932L8.21096 72.1196C8.24121 72.1757 8.33309 72.2373 8.42049 72.2373H24.0764C24.1683 72.2373 24.2299 72.207 24.2871 72.1196L28.2313 66.1921C28.1999 66.1618 28.1999 66.1316 28.1999 66.1013H28.201Z" fill="url(#paint8_linear_3_7387)"/>
<path d="M4.20996 66.133C4.20996 66.162 4.20996 66.162 4.23596 66.193L8.18596 72.12C8.21096 72.176 8.30296 72.237 8.38996 72.237H24.052C24.139 72.237 24.201 72.207 24.258 72.12L28.202 66.192C28.202 66.192 28.232 66.162 28.232 66.132L4.20996 66.133Z" fill="#D99926"/>
<path d="M9.58594 72.2059H22.8249V72.9735H9.58594V72.2059Z" fill="#002B4C"/>
<path d="M12.785 72.088L8.83996 66.162H4.20996C4.20996 66.193 4.20996 66.193 4.23496 66.219L8.18496 72.147C8.20996 72.207 8.30196 72.264 8.38896 72.264H13.025C12.9269 72.2345 12.8419 72.1724 12.784 72.088H12.785Z" fill="#CC7D1E"/>
<path d="M8.89919 66.0744L9.43704 63.9208C9.43704 63.8603 9.49867 63.8334 9.5603 63.8334H5.04685C4.92919 63.8334 4.83731 63.9208 4.80594 64.0396L4.29834 66.1013H8.89919V66.0744Z" fill="#CC7D1E"/>
<path d="M19.6271 72.0883L23.6015 66.1618H28.2013C28.2013 66.1932 28.2013 66.1932 28.1755 66.219L24.2313 72.1465C24.201 72.207 24.108 72.2642 24.0217 72.2642H19.3906C19.4402 72.2536 19.4869 72.2323 19.5275 72.202C19.5681 72.1716 19.6017 72.1328 19.6259 72.0883H19.6271Z" fill="#FFE600"/>
<path d="M23.5697 66.1013L23.0319 63.9522C23.0319 63.8905 22.9758 63.8603 22.9131 63.8603H27.4265C27.5442 63.8603 27.6361 63.9522 27.6675 64.0698L28.175 66.1316H23.5697V66.1013Z" fill="#FFFF00"/>
<path d="M4.21094 66.1327H28.2013L28.1452 65.9254H4.26696L4.21094 66.1327Z" fill="#FFFF00"/>
<path d="M26.472 54.309L26.9494 51.2107H5.49365L5.96987 54.309H26.472Z" fill="url(#paint9_linear_3_7387)"/>
<path d="M8.93006 59.82C8.87306 59.82 8.81006 59.851 8.81006 59.912V59.938H23.6011V59.912C23.6011 59.852 23.5441 59.82 23.4831 59.82H8.93006Z" fill="#FFF002"/>
<defs>
<linearGradient id="paint0_linear_3_7387" x1="9.28385" y1="57.0501" x2="23.1378" y2="57.0501" gradientUnits="userSpaceOnUse">
<stop offset="0.408" stop-color="white" stop-opacity="0"/>
<stop offset="0.999" stop-color="white"/>
</linearGradient>
<linearGradient id="paint1_linear_3_7387" x1="13.2095" y1="59.3266" x2="13.2095" y2="54.4995" gradientUnits="userSpaceOnUse">
<stop offset="0.096" stop-color="#00CAF4" stop-opacity="0"/>
<stop offset="0.568" stop-color="#00CAF4" stop-opacity="0.282"/>
<stop offset="0.6" stop-color="#00CAF4" stop-opacity="0.302"/>
<stop offset="0.797" stop-color="#00CAF4" stop-opacity="0.302"/>
<stop offset="1" stop-color="#00CAF4" stop-opacity="0.102"/>
</linearGradient>
<linearGradient id="paint2_linear_3_7387" x1="19.2687" y1="59.3266" x2="19.2687" y2="54.4995" gradientUnits="userSpaceOnUse">
<stop offset="0.096" stop-color="#00CAF4" stop-opacity="0"/>
<stop offset="0.568" stop-color="#00CAF4" stop-opacity="0.282"/>
<stop offset="0.6" stop-color="#00CAF4" stop-opacity="0.302"/>
<stop offset="0.797" stop-color="#00CAF4" stop-opacity="0.302"/>
<stop offset="1" stop-color="#00CAF4" stop-opacity="0.102"/>
</linearGradient>
<linearGradient id="paint3_linear_3_7387" x1="5.92471" y1="62.4532" x2="26.4977" y2="62.4532" gradientUnits="userSpaceOnUse">
<stop offset="0.096" stop-color="#00CAF4" stop-opacity="0"/>
<stop offset="0.568" stop-color="#00CAF4" stop-opacity="0.282"/>
<stop offset="0.6" stop-color="#00CAF4" stop-opacity="0.302"/>
<stop offset="0.797" stop-color="#00CAF4" stop-opacity="0.302"/>
<stop offset="1" stop-color="#00CAF4" stop-opacity="0.102"/>
</linearGradient>
<linearGradient id="paint4_linear_3_7387" x1="16.206" y1="72.2124" x2="16.206" y2="81.6511" gradientUnits="userSpaceOnUse">
<stop stop-color="#005F8E"/>
<stop offset="0.724" stop-color="#004972"/>
<stop offset="0.74" stop-color="#004972"/>
</linearGradient>
<linearGradient id="paint5_linear_3_7387" x1="6.84745" y1="50.6764" x2="25.5861" y2="50.6764" gradientUnits="userSpaceOnUse">
<stop offset="0.204" stop-color="#FFD813" stop-opacity="0"/>
<stop offset="0.781" stop-color="#FFD813"/>
</linearGradient>
<linearGradient id="paint6_linear_3_7387" x1="8.60965" y1="60.4501" x2="23.8125" y2="60.4501" gradientUnits="userSpaceOnUse">
<stop offset="0.204" stop-color="#FFD813" stop-opacity="0"/>
<stop offset="0.781" stop-color="#FFD813"/>
</linearGradient>
<linearGradient id="paint7_linear_3_7387" x1="21.1479" y1="72.2127" x2="21.1479" y2="81.6511" gradientUnits="userSpaceOnUse">
<stop stop-color="#008DC4"/>
<stop offset="0.541" stop-color="#0072A7"/>
</linearGradient>
<linearGradient id="paint8_linear_3_7387" x1="11.2974" y1="73.9159" x2="19.6034" y2="59.3377" gradientUnits="userSpaceOnUse">
<stop offset="0.204" stop-color="#FFD813" stop-opacity="0"/>
<stop offset="0.781" stop-color="#FFD813"/>
</linearGradient>
<linearGradient id="paint9_linear_3_7387" x1="5.49509" y1="52.7603" x2="26.9379" y2="52.7603" gradientUnits="userSpaceOnUse">
<stop offset="0.096" stop-color="#00CAF4" stop-opacity="0"/>
<stop offset="0.568" stop-color="#00CAF4" stop-opacity="0.282"/>
<stop offset="0.6" stop-color="#00CAF4" stop-opacity="0.302"/>
<stop offset="0.797" stop-color="#00CAF4" stop-opacity="0.302"/>
<stop offset="1" stop-color="#00CAF4" stop-opacity="0.102"/>
</linearGradient>
</defs>
</svg>
