<svg width="128" height="128" viewBox="0 0 128 128" fill="none" xmlns="http://www.w3.org/2000/svg">
<path d="M83.61 45.23H44.585V43.81H83.608L83.61 45.23ZM71.613 30.04H73.137V43.813H71.613V30.04ZM55.051 30.04H56.574V43.813H55.051V30.04Z" fill="#FFC600"/>
<path d="M82.09 30.04H83.613V43.813H82.09V30.04ZM44.585 30.037H46.109V43.81H44.585V30.037Z" fill="#FFC600"/>
<path d="M85.5118 48.8L84.9258 45.523C84.9122 45.4397 84.8692 45.3641 84.8046 45.3098C84.74 45.2555 84.6581 45.2261 84.5738 45.227H43.6138C43.5294 45.2261 43.4475 45.2555 43.383 45.3098C43.3184 45.3641 43.2754 45.4397 43.2618 45.523L42.6758 48.801L85.5118 48.8Z" fill="#FFC600"/>
<path d="M37.71 20.625H90.5L89.773 17.925C89.7486 17.8383 89.6965 17.762 89.6246 17.7078C89.5527 17.6536 89.465 17.6245 89.375 17.625H38.727C38.6352 17.6273 38.5465 17.6589 38.474 17.7153C38.4015 17.7716 38.3489 17.8496 38.324 17.938L37.71 20.625Z" fill="#FFC600"/>
<path d="M97.8361 63.125L96.3761 57.227C96.3383 57.0699 96.2487 56.9302 96.1217 56.8304C95.9947 56.7306 95.8377 56.6766 95.6761 56.677H32.4761C32.3138 56.6748 32.1556 56.7281 32.0278 56.8282C31.8999 56.9282 31.8101 57.0689 31.7731 57.227L30.3241 63.127C30.3112 63.1756 30.309 63.2264 30.3177 63.276C30.3263 63.3255 30.3456 63.3726 30.3741 63.414L41.4611 80.3C41.5232 80.3921 41.6069 80.4676 41.7048 80.5199C41.8028 80.5722 41.9121 80.5997 42.0231 80.6H86.1631C86.2745 80.5999 86.3842 80.5725 86.4825 80.5202C86.5808 80.4679 86.6648 80.3923 86.7271 80.3L97.8121 63.413C97.8361 63.323 97.8621 63.226 97.8361 63.123V63.125ZM35.8371 55.764C35.9451 55.33 36.8861 50.097 36.8871 49.931C36.8871 49.866 49.1241 49.813 64.0791 49.813L91.2711 49.863C91.2711 49.891 91.5181 51.256 91.8211 52.897L92.3721 56C92.3731 56.065 79.6331 56.118 64.0611 56.118H35.7491L35.8371 55.764ZM35.7831 29.338C35.7831 29.261 35.5351 27.581 35.2311 25.605L34.6791 21.883C34.6791 21.812 47.9301 21.754 64.1251 21.754H93.5711L92.9811 25.577L92.3821 29.439C92.3541 29.558 35.7811 29.457 35.7811 29.338H35.7831ZM45.9071 107.262L45.5571 107.017V80.709H82.6011V107.017L82.2511 107.262C81.9391 107.481 79.9541 107.507 64.0791 107.507C48.2041 107.507 46.2191 107.48 45.9071 107.262ZM47.8691 110.083C47.8111 110.025 47.7631 109.528 47.7631 108.979V107.981H80.0931L80.0461 109.045L79.9991 110.109L63.9871 110.149C55.1801 110.171 47.9271 110.142 47.8691 110.083Z" fill="#FFC600"/>
</svg>
