<svg width="128" height="128" viewBox="0 0 128 128" fill="none" xmlns="http://www.w3.org/2000/svg">
<path d="M47.688 107.54V109.887C47.688 110.086 47.852 110.25 48.051 110.25H79.824C80.024 110.25 80.188 110.086 80.188 109.887V107.539L47.688 107.54ZM83.61 45.113H44.584V29.503H83.607L83.61 45.113Z" fill="#00CAF4"/>
<path d="M44.5742 29.512H83.6142V45.113H44.5742V29.512Z" fill="url(#paint0_linear_3_7330)"/>
<path d="M77.96 43.813H83.613V38.164L77.96 43.813Z" fill="white"/>
<path d="M67.4768 43.813L81.7728 29.512H61.4768L47.1758 43.812L67.4768 43.813Z" fill="white"/>
<path d="M44.5742 29.512H83.6022V31.074H44.5742V29.512Z" fill="#004972"/>
<path d="M54.6882 29.512H44.5732V39.613L54.6882 29.512Z" fill="white"/>
<path d="M83.61 45.23H44.585V43.81H83.608L83.61 45.23Z" fill="#002D4F"/>
<path d="M71.6128 30.04H73.1368V43.813H71.6128V30.04ZM55.0508 30.04H56.5738V43.813H55.0508V30.04Z" fill="#002D4F"/>
<path d="M55.0498 30.04H56.2268V43.813H55.0498V30.04Z" fill="url(#paint1_linear_3_7330)"/>
<path d="M71.96 30.04H73.137V43.813H71.96V30.04Z" fill="url(#paint2_linear_3_7330)"/>
<path d="M56.5742 30.04H56.9262V43.813H56.5742V30.04Z" fill="#004972"/>
<path d="M71.25 30.04H71.602V43.813H71.25V30.04Z" fill="#004972"/>
<path d="M85.5118 48.8L84.9258 45.523C84.9122 45.4397 84.8692 45.3641 84.8046 45.3098C84.74 45.2555 84.6581 45.2261 84.5738 45.227H43.6138C43.5294 45.2261 43.4475 45.2555 43.383 45.3098C43.3184 45.3641 43.2754 45.4397 43.2618 45.523L42.6758 48.801L85.5118 48.8Z" fill="#FFC600"/>
<path d="M93.0738 56.676L91.7108 49.102C91.6995 49.0181 91.6579 48.9412 91.5938 48.8859C91.5296 48.8306 91.4475 48.8008 91.3628 48.802H36.8238C36.7391 48.801 36.6571 48.8311 36.5931 48.8866C36.5292 48.9421 36.4878 49.0191 36.4768 49.103L35.1128 56.677L93.0738 56.676Z" fill="#002D4F"/>
<path d="M93.0738 56.676L91.7108 49.102C91.6995 49.0181 91.6579 48.9412 91.5938 48.8859C91.5296 48.8306 91.4475 48.8008 91.3628 48.802H36.8238C36.7391 48.801 36.6571 48.8311 36.5931 48.8866C36.5292 48.9421 36.4878 49.0191 36.4768 49.103L35.1128 56.677L93.0738 56.676Z" fill="url(#paint3_linear_3_7330)"/>
<path d="M45.4258 80.602V106.664C45.4251 106.779 45.4473 106.893 45.491 107C45.5348 107.106 45.5992 107.203 45.6806 107.284C45.762 107.366 45.8587 107.43 45.9652 107.474C46.0716 107.517 46.1857 107.54 46.3008 107.539H81.8508C82.3358 107.539 82.7268 107.149 82.7268 106.664V80.602H45.4258Z" fill="url(#paint4_linear_3_7330)"/>
<path d="M36.8239 48.8C36.7391 48.7991 36.657 48.8293 36.593 48.885C36.529 48.9407 36.4877 49.0179 36.4769 49.102L36.4609 49.176H91.7269L91.7109 49.102C91.6999 49.0179 91.6584 48.9408 91.5942 48.8853C91.5301 48.8298 91.4478 48.7998 91.3629 48.801L36.8239 48.8Z" fill="#002D4F"/>
<path d="M37.71 20.625H90.5L89.773 17.925C89.7486 17.8383 89.6965 17.762 89.6246 17.7078C89.5527 17.6536 89.465 17.6245 89.375 17.625H38.727C38.6352 17.6273 38.5465 17.6589 38.474 17.7153C38.4015 17.7716 38.3489 17.8496 38.324 17.938L37.71 20.625Z" fill="#FFC600"/>
<path d="M37.71 20.625H90.5L89.773 17.925C89.7486 17.8383 89.6965 17.762 89.6246 17.7078C89.5527 17.6536 89.465 17.6245 89.375 17.625H38.727C38.6352 17.6273 38.5465 17.6589 38.474 17.7153C38.4015 17.7716 38.3489 17.8496 38.324 17.938L37.71 20.625Z" fill="url(#paint5_linear_3_7330)"/>
<path d="M37.71 20.625H90.5L90.3 19.852H37.888L37.71 20.625Z" fill="#B47D4F"/>
<path d="M35.563 30.04H92.648C92.789 30.04 92.898 29.938 92.926 29.813L94.3239 20.625H33.8979L35.289 29.813C35.3014 29.8764 35.3354 29.9335 35.3851 29.9747C35.4349 30.0159 35.4974 30.0386 35.562 30.039L35.563 30.04Z" fill="#002D4F"/>
<path d="M33.9879 21.188H94.2269L94.3119 20.625H33.8979L33.9879 21.188Z" fill="#005A82"/>
<path d="M85.5118 48.8L84.9258 45.523C84.9122 45.4397 84.8692 45.3641 84.8046 45.3098C84.74 45.2555 84.6581 45.2261 84.5738 45.227H43.6138C43.5294 45.2261 43.4475 45.2555 43.383 45.3098C43.3184 45.3641 43.2754 45.4397 43.2618 45.523L42.6758 48.801L85.5118 48.8Z" fill="url(#paint6_linear_3_7330)"/>
<path d="M85.5118 48.8L85.3118 47.71H42.8758L42.6758 48.8H85.5118Z" fill="#DB9927"/>
<path d="M93.0738 56.676L92.7498 54.852H35.4368L35.1128 56.676H93.0738Z" fill="#002D4F"/>
<path d="M47.688 107.54H80.176V108.062H47.686L47.688 107.54Z" fill="#004972"/>
<path d="M54.8871 80.602H45.4141V106.664C45.4141 107.148 45.8011 107.539 46.2891 107.539H54.8751V80.602H54.8871Z" fill="#002D4F"/>
<path d="M82.7382 106.664V80.602H73.2622V107.551H81.8632C82.0953 107.545 82.3159 107.449 82.479 107.283C82.6421 107.118 82.7349 106.896 82.7382 106.664Z" fill="url(#paint7_linear_3_7330)"/>
<path d="M97.8361 63.125L96.3761 57.227C96.3383 57.07 96.2487 56.9302 96.1217 56.8304C95.9947 56.7306 95.8377 56.6766 95.6761 56.677H32.4761C32.3138 56.6748 32.1556 56.7281 32.0278 56.8282C31.8999 56.9282 31.8101 57.0689 31.7731 57.227L30.3241 63.127C30.3112 63.1756 30.309 63.2264 30.3177 63.276C30.3263 63.3255 30.3456 63.3726 30.3741 63.414L41.4611 80.3C41.5861 80.487 41.8011 80.6 42.0231 80.6H86.1631C86.2745 80.5999 86.3842 80.5725 86.4825 80.5202C86.5808 80.4679 86.6648 80.3923 86.7271 80.3L97.8121 63.413C97.8361 63.323 97.8621 63.226 97.8361 63.123V63.125Z" fill="#FFC600"/>
<path d="M97.8361 63.125L96.3761 57.227C96.3383 57.07 96.2487 56.9302 96.1217 56.8304C95.9947 56.7306 95.8377 56.6766 95.6761 56.677H32.4761C32.3138 56.6748 32.1556 56.7281 32.0278 56.8282C31.8999 56.9282 31.8101 57.0689 31.7731 57.227L30.3241 63.127C30.3112 63.1756 30.309 63.2264 30.3177 63.276C30.3263 63.3255 30.3456 63.3726 30.3741 63.414L41.4611 80.3C41.5861 80.487 41.8011 80.6 42.0231 80.6H86.1631C86.2745 80.5999 86.3842 80.5725 86.4825 80.5202C86.5808 80.4679 86.6648 80.3923 86.7271 80.3L97.8121 63.413C97.8361 63.323 97.8621 63.226 97.8361 63.123V63.125Z" fill="url(#paint8_linear_3_7330)"/>
<path d="M30.313 63.273C30.3226 63.3222 30.3395 63.3697 30.363 63.414L41.45 80.301C41.575 80.488 41.79 80.601 42.013 80.601H86.149C86.2603 80.6012 86.3699 80.5739 86.4681 80.5216C86.5663 80.4693 86.6501 80.3935 86.712 80.301L97.8 63.414C97.8281 63.3723 97.8453 63.3241 97.85 63.274L30.313 63.273Z" fill="#DB9927"/>
<path d="M45.4258 80.602H82.7378V82.762H45.4258V80.602Z" fill="#002D4F"/>
<path d="M54.46 80.262L43.3 63.312H30.314C30.3235 63.36 30.3403 63.4062 30.364 63.449L41.45 80.336C41.575 80.523 41.79 80.636 42.013 80.636H55.103C54.9738 80.6311 54.8477 80.5944 54.7361 80.5292C54.6245 80.4639 54.5307 80.3722 54.463 80.262H54.46Z" fill="#CD7F1F"/>
<path d="M43.512 63.074L45.039 56.898C45.0584 56.8203 45.1031 56.7512 45.1662 56.7017C45.2292 56.6523 45.3069 56.6253 45.387 56.625H32.648C32.4864 56.6237 32.3291 56.6775 32.2021 56.7774C32.075 56.8774 31.9858 57.0176 31.949 57.175L30.499 63.075L43.512 63.074Z" fill="#CD7F1F"/>
<path d="M73.7099 80.262L84.8749 63.312H97.8629C97.8515 63.3594 97.8347 63.4054 97.8129 63.449L86.7269 80.336C86.6647 80.4282 86.5809 80.5037 86.4827 80.556C86.3846 80.6083 86.2751 80.6358 86.1639 80.636H73.0859C73.2131 80.631 73.337 80.5941 73.4462 80.5287C73.5554 80.4634 73.6464 80.3717 73.7109 80.262H73.7099Z" fill="#FFE700"/>
<path d="M84.8242 63.125L83.3012 56.949C83.2811 56.8709 83.2356 56.8018 83.1719 56.7524C83.1082 56.703 83.0298 56.6761 82.9492 56.676H95.6882C96.0232 56.676 96.3122 56.898 96.3872 57.226L97.8362 63.126L84.8242 63.125Z" fill="#FFFF00"/>
<path d="M30.29 63.273H97.875L97.711 62.637H30.438L30.29 63.273Z" fill="#FFFF00"/>
<path d="M92.9599 29.512L94.313 20.625H33.8979L35.25 29.512H92.9599Z" fill="url(#paint9_linear_3_7330)"/>
<path d="M43.6128 45.238C43.5279 45.2376 43.4456 45.2677 43.3812 45.323C43.3167 45.3783 43.2743 45.455 43.2618 45.539L43.2378 45.664H84.9378L84.9138 45.539C84.901 45.455 84.8584 45.3784 84.7938 45.3233C84.7291 45.2682 84.6467 45.2383 84.5618 45.239L43.6128 45.238Z" fill="#FFF203"/>
<defs>
<linearGradient id="paint0_linear_3_7330" x1="44.5787" y1="37.3135" x2="83.607" y2="37.3135" gradientUnits="userSpaceOnUse">
<stop offset="0.408" stop-color="white" stop-opacity="0"/>
<stop offset="0.999" stop-color="white"/>
</linearGradient>
<linearGradient id="paint1_linear_3_7330" x1="55.6369" y1="43.8123" x2="55.6369" y2="30.0321" gradientUnits="userSpaceOnUse">
<stop offset="0.096" stop-color="#00CAF4" stop-opacity="0"/>
<stop offset="0.568" stop-color="#00CAF4" stop-opacity="0.282"/>
<stop offset="0.6" stop-color="#00CAF4" stop-opacity="0.302"/>
<stop offset="0.797" stop-color="#00CAF4" stop-opacity="0.302"/>
<stop offset="1" stop-color="#00CAF4" stop-opacity="0.102"/>
</linearGradient>
<linearGradient id="paint2_linear_3_7330" x1="72.5483" y1="43.8123" x2="72.5483" y2="30.0321" gradientUnits="userSpaceOnUse">
<stop offset="0.096" stop-color="#00CAF4" stop-opacity="0"/>
<stop offset="0.568" stop-color="#00CAF4" stop-opacity="0.282"/>
<stop offset="0.6" stop-color="#00CAF4" stop-opacity="0.302"/>
<stop offset="0.797" stop-color="#00CAF4" stop-opacity="0.302"/>
<stop offset="1" stop-color="#00CAF4" stop-opacity="0.102"/>
</linearGradient>
<linearGradient id="paint3_linear_3_7330" x1="35.1139" y1="52.7371" x2="93.0709" y2="52.7371" gradientUnits="userSpaceOnUse">
<stop offset="0.096" stop-color="#00CAF4" stop-opacity="0"/>
<stop offset="0.568" stop-color="#00CAF4" stop-opacity="0.282"/>
<stop offset="0.6" stop-color="#00CAF4" stop-opacity="0.302"/>
<stop offset="0.797" stop-color="#00CAF4" stop-opacity="0.302"/>
<stop offset="1" stop-color="#00CAF4" stop-opacity="0.102"/>
</linearGradient>
<linearGradient id="paint4_linear_3_7330" x1="64.0779" y1="80.5971" x2="64.0779" y2="107.541" gradientUnits="userSpaceOnUse">
<stop stop-color="#005F8E"/>
<stop offset="0.724" stop-color="#004972"/>
<stop offset="0.74" stop-color="#004972"/>
</linearGradient>
<linearGradient id="paint5_linear_3_7330" x1="37.7141" y1="19.1186" x2="90.5025" y2="19.1186" gradientUnits="userSpaceOnUse">
<stop offset="0.204" stop-color="#FFD813" stop-opacity="0"/>
<stop offset="0.781" stop-color="#FFD813"/>
</linearGradient>
<linearGradient id="paint6_linear_3_7330" x1="42.6783" y1="47.0189" x2="85.5065" y2="47.0189" gradientUnits="userSpaceOnUse">
<stop offset="0.204" stop-color="#FFD813" stop-opacity="0"/>
<stop offset="0.781" stop-color="#FFD813"/>
</linearGradient>
<linearGradient id="paint7_linear_3_7330" x1="77.9998" y1="80.5972" x2="77.9998" y2="107.541" gradientUnits="userSpaceOnUse">
<stop stop-color="#008DC4"/>
<stop offset="0.541" stop-color="#0072A7"/>
</linearGradient>
<linearGradient id="paint8_linear_3_7330" x1="50.2509" y1="85.4598" x2="74.121" y2="44.1156" gradientUnits="userSpaceOnUse">
<stop offset="0.204" stop-color="#FFD813" stop-opacity="0"/>
<stop offset="0.781" stop-color="#FFD813"/>
</linearGradient>
<linearGradient id="paint9_linear_3_7330" x1="33.9046" y1="25.0671" x2="94.3118" y2="25.0671" gradientUnits="userSpaceOnUse">
<stop offset="0.096" stop-color="#00CAF4" stop-opacity="0"/>
<stop offset="0.568" stop-color="#00CAF4" stop-opacity="0.282"/>
<stop offset="0.6" stop-color="#00CAF4" stop-opacity="0.302"/>
<stop offset="0.797" stop-color="#00CAF4" stop-opacity="0.302"/>
<stop offset="1" stop-color="#00CAF4" stop-opacity="0.102"/>
</linearGradient>
</defs>
</svg>
