<svg width="128" height="128" viewBox="0 0 128 128" fill="none" xmlns="http://www.w3.org/2000/svg">
<path d="M20 50H28V78H25V83H38V77H34V49H43V53H47V45H15V53H20V50ZM57.674 35H4.683C3.758 35 3 36.141 3 37.053V90.038C3 90.95 3.758 92 4.683 92H57.675C58.598 92 59 90.95 59 90.038V37.053C59 36.141 58.598 35 57.674 35ZM50 56H41V52H37V74H41V85H22V75H26V52H22V56H12V42H50V56ZM69.549 55.106C69.1796 55.1077 68.8121 55.1602 68.457 55.262C68.0889 55.3669 67.7357 55.5185 67.406 55.713C67.0704 55.912 66.759 56.1493 66.478 56.42C66.193 56.693 65.952 56.808 65.755 57.147L65.443 55H63V72H66V62.087C66 61.572 66.039 61.076 66.198 60.601C66.356 60.124 66.566 59.705 66.867 59.344C67.168 58.983 67.531 58.693 67.974 58.474C68.417 58.255 68.897 58.146 69.467 58.146C69.697 58.146 70 58.299 71 58.605V55.403C71 55.294 70.51 55.216 70.242 55.173C70.0132 55.1317 69.7814 55.1093 69.549 55.106ZM86.842 69.674C86.734 69.6744 86.6283 69.6431 86.538 69.584C86.4421 69.5204 86.3587 69.4397 86.292 69.346C86.221 69.247 86.13 69.135 86.092 69.009C86.054 68.883 86 68.755 86 68.623V60.198C86 59.278 85.852 58.498 85.485 57.857C85.118 57.216 84.647 56.691 84.033 56.281C83.3949 55.8582 82.6854 55.5546 81.939 55.385C81.133 55.1968 80.3077 55.1032 79.48 55.106C78.724 55.106 77.968 55.21 77.208 55.419C76.464 55.6191 75.7593 55.9441 75.124 56.38C74.494 56.813 73.969 57.17 73.547 57.832C73.125 58.494 72.888 60 72.833 60H76.068C76.133 60 76.271 59.357 76.479 59.039C76.687 58.723 76.95 58.559 77.267 58.362C77.584 58.165 77.949 58.067 78.359 57.974C78.769 57.881 79.21 57.859 79.681 57.859C80.678 57.859 81.463 58.05 82.038 58.413C82.613 58.774 82.9 59.37 82.9 60.191C82.9 60.542 82.788 60.843 82.564 61.089C82.339 61.336 82.035 61.559 81.652 61.756C81.2241 61.9711 80.7789 62.1497 80.321 62.29C79.818 62.448 79.292 62.611 78.744 62.775C78.011 62.994 77.268 63.226 76.519 63.473C75.769 63.719 75.09 64.023 74.482 64.384C73.875 64.745 73.379 65.181 72.996 65.69C72.613 66.199 72.421 66.826 72.421 67.571C72.421 68.304 72.555 68.969 72.823 69.566C73.091 70.163 73.455 70.671 73.915 71.093C74.375 71.515 74.916 71.84 75.541 72.071C76.183 72.3036 76.8612 72.4204 77.544 72.416C78.037 72.416 78.521 72.383 78.998 72.317C79.474 72.252 79.948 72.129 80.418 71.948C80.9144 71.7526 81.3857 71.4989 81.822 71.192C82.3353 70.8265 82.8062 70.4049 83.226 69.935C83.412 70.713 83.751 71.321 84.244 71.758C84.7149 72.1878 85.3315 72.4227 85.969 72.415C86.275 72.415 86.575 72.388 86.876 72.333C87.18 72.279 88 72.182 88 72.039V69.362C88 69.45 87.457 69.523 87.249 69.584C87.041 69.644 86.908 69.674 86.842 69.674ZM83 66.258C82 67.398 81.527 68.251 80.651 68.821C79.775 69.39 78.852 69.675 77.932 69.675C77.637 69.675 77.337 69.634 77.058 69.552C76.779 69.47 76.523 69.339 76.304 69.158C76.0767 68.9669 75.8935 68.7287 75.767 68.46C75.63 68.175 75.56 67.836 75.56 67.441C75.56 67.014 75.705 66.65 75.995 66.349C76.285 66.047 76.657 65.79 77.112 65.577C77.566 65.364 78.072 65.181 78.631 65.027L80.281 64.576C80.8056 64.4376 81.3262 64.2842 81.842 64.116C82.307 63.956 83 63.762 83 63.532V66.258ZM96.434 67.351L92.131 55H88.731L94.906 72H98.109L104.235 55H100.868L96.434 67.351ZM106 49H109V52H106V49ZM106 55H109V72H106V55ZM124.238 65.732C123.965 65.305 123.603 64.924 123.154 64.59C122.705 64.256 122.194 63.958 121.618 63.695C121.039 63.4304 120.453 63.1813 119.861 62.948L118.103 62.258C117.574 62.0556 117.061 61.8139 116.568 61.535C116.119 61.278 115.757 60.996 115.484 60.689C115.218 60.4037 115.071 60.0278 115.073 59.638C115.073 59.102 115.311 58.675 115.787 58.357C116.263 58.04 116.955 57.88 117.865 57.88C118.27 57.88 118.65 57.916 119.007 57.987C119.362 58.058 119.68 58.181 119.959 58.356C120.238 58.532 120.468 58.689 120.649 58.98C120.83 59.269 120.947 59.998 121.002 59.998H124.204C124.171 58.998 123.988 58.455 123.654 57.814C123.32 57.173 122.871 56.69 122.307 56.274C121.743 55.858 121.083 55.574 120.328 55.377C119.573 55.181 118.751 55.094 117.865 55.094C117.087 55.094 116.34 55.19 115.623 55.37C114.945 55.5347 114.3 55.8162 113.718 56.202C113.174 56.5644 112.72 57.0451 112.388 57.608C112.054 58.171 111.887 58.837 111.887 59.604C111.887 60.217 112.024 60.75 112.298 61.205C112.571 61.659 112.933 62.065 113.382 62.421C113.831 62.777 114.342 63.092 114.917 63.365C115.492 63.639 116.078 63.896 116.674 64.137C117.27 64.378 117.857 64.608 118.431 64.826C119.006 65.045 119.517 65.283 119.967 65.541C120.416 65.798 120.777 66.083 121.051 66.395C121.324 66.708 121.462 67.066 121.462 67.471C121.462 67.898 121.347 68.253 121.117 68.538C120.881 68.8273 120.583 69.0603 120.246 69.22C119.895 69.39 119.509 69.507 119.088 69.573C118.666 69.639 118.258 69.672 117.864 69.672C117.393 69.672 116.961 69.614 116.567 69.5C116.187 69.3932 115.836 69.2022 115.54 68.941C115.25 68.684 115.017 68.13 114.842 67.72C114.667 67.309 114.573 66.997 114.563 65.997H111.311C111.344 66.997 111.541 68.102 111.902 68.852C112.263 69.602 112.74 70.332 113.331 70.827C113.922 71.319 114.606 71.743 115.384 71.989C116.185 72.2484 117.022 72.382 117.864 72.385C118.773 72.385 119.637 72.303 120.459 72.112C121.281 71.921 122 71.621 122.619 71.2C123.238 70.778 123.73 70.243 124.097 69.586C124.464 68.929 124.647 68.137 124.647 67.206C124.648 66.65 124.512 66.159 124.238 65.732Z" fill="#BB2031"/>
</svg>
