<svg width="128" height="128" viewBox="0 0 128 128" fill="none" xmlns="http://www.w3.org/2000/svg">
<path d="M127 16.142C127 7.779 120.221 1 111.858 1H16.142C7.779 1 1 7.779 1 16.142V111.857C1 120.221 7.779 127 16.142 127H111.858C120.221 127 127 120.221 127 111.857V16.142ZM58 99.54C58 103.347 54.714 106 50.907 106H23.563C19.756 106 17 103.347 17 99.54V23.23C17 19.422 19.756 16 23.563 16H50.907C54.714 16 58 19.422 58 23.23V99.54ZM113 33.084V64.97C113 68.777 110.064 72 106.256 72H78.926C75.118 72 72 68.776 72 64.97V22.866C72 19.058 75.118 16 78.926 16H106.256C110.064 16 113 19.058 113 22.866V33.084Z" fill="#23719F"/>
</svg>
