<svg width="128" height="128" viewBox="0 0 128 128" fill="none" xmlns="http://www.w3.org/2000/svg">
<path fill-rule="evenodd" clip-rule="evenodd" d="M82.1279 75.202C81.6009 75.588 81.2259 75.893 80.8219 76.152C79.1449 77.234 77.4849 78.345 75.7669 79.358C74.6789 80 73.4519 79.945 72.2909 79.541C71.1659 79.151 70.0459 78.711 68.9949 78.157C67.3099 77.268 66.7759 75.583 66.2529 73.898C65.3759 71.075 66.5629 68.659 67.6869 66.224C67.8949 65.778 68.1789 65.368 68.4109 64.931C68.7419 64.306 68.5559 63.979 67.8399 64.023C67.425 64.0485 67.0194 64.1566 66.6469 64.341C63.5019 65.94 60.7649 68.043 58.6739 70.919C57.2359 72.9 56.3519 75.127 55.7629 77.494C55.4049 78.933 54.3359 79.699 53.2019 79.448C51.6059 79.094 50.4709 76.723 51.2019 75.268C51.3179 75.036 51.4209 74.789 51.5849 74.592C53.4039 72.405 54.0419 69.7 54.8709 67.083C55.3559 65.55 55.8329 64.012 56.2479 62.459C56.4499 61.702 56.6979 60.93 56.2979 60.116C56.0519 59.611 56.4599 59.142 56.8699 59.096C57.7989 58.991 58.8179 58.852 59.6719 59.126C60.6099 59.428 60.6879 60.55 60.8459 61.431C60.9399 61.954 60.8639 62.508 60.8639 63.227C61.2409 63.054 61.5109 62.953 61.7599 62.811C63.1789 62.003 64.5579 61.119 66.0179 60.395C67.4099 59.705 68.8339 60.079 70.1419 60.724C70.8019 61.05 71.1429 61.013 71.6539 60.441C72.7889 59.168 73.9699 57.914 75.2729 56.819C76.3539 55.912 77.7619 55.643 79.1699 55.744C80.0929 55.809 81.0199 55.98 81.9169 56.208C82.9649 56.477 83.6279 57.419 83.7249 58.482C83.9189 60.644 83.0559 62.485 81.8209 64.111C78.8829 67.982 75.5539 71.466 71.3399 73.995C70.7579 74.345 70.7129 74.762 70.9819 75.304C71.3939 76.128 72.3879 76.482 73.2999 76.201C75.8759 75.409 77.8699 73.696 79.9279 72.076C81.0269 71.211 82.1999 70.421 83.1869 69.443C83.7419 68.894 84.0079 68.043 84.3669 67.308C85.7339 64.512 87.0079 61.667 88.4599 58.916C89.9849 56.022 91.6919 53.225 93.2839 50.366C93.7229 49.576 94.0439 48.719 94.4019 47.886C94.9249 46.675 95.7439 45.927 97.1559 46.054C97.4139 46.077 97.6769 46.049 97.9379 46.05C99.7739 46.053 100.775 47.636 99.8729 49.254C99.0649 50.702 98.1269 52.077 97.2159 53.465C94.5539 57.523 91.8069 61.534 89.7339 65.938C88.7435 68.0239 87.8663 70.1617 87.1059 72.342C86.7419 73.395 86.7429 74.589 86.6789 75.725C86.6389 76.468 87.1599 76.715 87.7489 76.22C88.7199 75.403 89.5959 74.476 90.5479 73.637C91.3609 72.921 92.2749 72.318 93.0459 71.564C93.4449 71.173 93.7049 70.593 93.9009 70.053C95.3279 66.139 97.1569 62.418 99.1629 58.776C100.604 56.161 102.098 53.573 103.535 50.954C104.215 49.714 104.78 48.41 105.472 47.175C105.902 46.408 106.585 45.956 107.538 46.056C107.848 46.089 108.166 46.082 108.476 46.047C110.596 45.804 111.26 47.942 110.497 49.26C109.86 50.358 109.168 51.424 108.474 52.486C105.388 57.201 102.167 61.84 99.8399 66.997C98.9249 69.023 98.1809 71.135 97.4839 73.247C97.2319 74.012 97.3029 74.895 97.3039 75.725C97.3039 76.475 97.7749 76.699 98.3709 76.198C99.3229 75.398 100.199 74.51 101.124 73.674L103.341 71.741C103.524 71.577 103.738 71.352 103.769 71.131C104.349 67.08 106.334 63.72 108.906 60.655C109.738 59.662 110.571 58.651 111.526 57.783C113.45 56.037 115.946 56.444 117.393 57.823C117.801 58.212 118.03 58.814 118.268 59.35C118.764 60.455 119.124 60.709 120.353 60.705C121.808 60.7 123.265 60.647 124.715 60.726C125.284 60.757 125.883 61.01 126.388 61.301C127.025 61.67 126.967 62.321 126.312 62.62C124.462 63.464 122.537 64.056 120.487 64.105C119.805 64.122 119.51 64.352 119.334 65.058C118.218 69.535 116.662 73.817 113.28 77.155C112.572 77.854 111.758 78.515 110.872 78.945C109.198 79.757 107.738 78.917 106.376 77.997C105.793 77.6083 105.262 77.1458 104.798 76.621C104.402 76.166 104.181 76.21 103.821 76.615C102.783 77.786 101.685 78.895 100.21 79.523C99.3199 79.901 98.4539 80.13 97.4319 79.825C95.8979 79.365 94.5099 78.74 93.5169 77.445C93.1469 76.96 92.8959 77.01 92.4609 77.39C91.6439 78.103 90.8149 78.835 89.8849 79.378C87.9839 80.487 86.1589 79.859 84.4469 78.832C83.1509 78.059 82.2349 76.963 82.1279 75.202ZM107.648 73.076C107.729 73.439 107.773 73.973 107.972 74.441C108.144 74.841 108.45 75.403 108.775 75.462C109.084 75.519 109.607 75.092 109.841 74.746C110.911 73.1546 111.942 71.5375 112.933 69.896C114.246 67.727 114.91 65.335 115.145 62.827C115.18 62.3616 115.099 61.8946 114.907 61.469C114.429 60.426 113.945 60.357 113.313 61.298C112.027 63.208 110.753 65.132 109.603 67.128C108.542 68.952 107.876 70.9783 107.648 73.076ZM79.1949 59.895C79.2479 59.319 78.9849 59.141 78.4899 59.273C78.3459 59.311 78.2119 59.414 78.0939 59.511C75.1149 61.956 72.8129 64.919 71.2809 68.463C71.2129 68.62 71.3039 68.848 71.3209 69.043C71.5079 69.001 71.7499 69.021 71.8759 68.909C72.5579 68.308 73.2139 67.68 73.8719 67.055C75.9149 65.114 77.7379 63.004 78.9789 60.444C79.0689 60.257 79.1309 60.058 79.1949 59.895ZM47.7359 55.843C47.2269 55.789 46.8579 55.74 46.4869 55.713C45.4029 55.633 44.3089 55.622 43.2359 55.467C42.3679 55.341 41.9959 54.762 41.9959 53.856L42.0029 53.388C42.0479 51.797 42.6299 51.559 44.2099 51.787C45.8329 52.021 47.5289 51.952 49.1739 51.799C51.3379 51.599 53.4799 51.152 55.6379 50.879C56.9489 50.714 58.2739 50.653 59.5929 50.585C61.3199 50.495 62.7039 51.324 63.9159 52.413C64.2179 52.683 64.3309 53.359 64.2589 53.806C64.1199 54.679 62.0919 55.585 61.2719 54.766C60.6769 54.173 59.8949 53.977 59.0349 54.079C57.4109 54.273 55.7809 54.429 54.1549 54.615C53.7409 54.662 53.5829 54.878 53.4359 55.337C53.1559 56.213 52.6489 57.021 52.2069 57.841C50.2989 61.391 48.6099 65.031 47.5679 68.937C46.934 71.3411 46.3396 73.7554 45.7849 76.179C45.6639 76.701 45.6879 77.27 45.7159 77.813C45.8249 79.883 44.6939 80.194 43.0089 79.647C42.5179 79.489 42.0599 79.224 41.5879 79.007C41.0429 78.753 40.6829 78.319 40.7509 77.728C40.9109 76.342 41.0319 74.936 41.3779 73.593C41.9948 71.1823 42.6999 68.795 43.4919 66.436C44.2249 64.248 45.0979 62.105 45.9529 59.958C46.4769 58.639 47.0799 57.35 47.7359 55.843Z" fill="#23719F"/>
<path d="M36 52.028C35.9997 50.9596 35.5751 49.9351 34.8196 49.1797C34.064 48.4243 33.0394 48 31.971 48H7.029C5.96062 48 4.93598 48.4243 4.18042 49.1797C3.42487 49.9351 3.00027 50.9596 3 52.028V76.971C3.00027 78.0395 3.42483 79.0641 4.18036 79.8196C4.93589 80.5752 5.96052 80.9997 7.029 81H31.97C33.0385 81 34.0632 80.5757 34.8189 79.8204C35.5746 79.065 35.9995 78.0405 36 76.972V52.028ZM19 73.003C19 73.952 16.886 75 15.844 75H8.636C7.595 75 7 73.952 7 73.003V52.745C7 51.796 7.595 52 8.636 52H15.844C16.886 52 19 51.796 19 52.745V73.003ZM33 55.517V64C33 65.011 31.718 66 30.705 66H23.435C22.422 66 22 65.011 22 63.999V52.797C22 51.785 22.422 52 23.436 52H30.706C31.718 52 33 51.785 33 52.797V55.517Z" fill="#23719F"/>
</svg>
