<svg width="128" height="128" viewBox="0 0 128 128" fill="none" xmlns="http://www.w3.org/2000/svg">
<path d="M40.254 127.637C88.559 127.637 114.973 78.68 114.973 36.234C114.973 34.844 114.973 33.457 114.898 32.078C120.039 27.531 124.477 21.898 128 15.445C123.21 18.047 118.129 19.75 112.922 20.508C118.402 16.488 122.504 10.172 124.461 2.734C119.305 6.477 113.664 9.114 107.781 10.535C99.645 -0.0510044 86.711 -2.645 76.234 4.215C65.762 11.075 60.352 25.675 63.035 39.832C41.922 38.539 22.246 26.336 8.91502 6.27C1.93302 20.94 5.48702 39.723 17.022 49.16C12.874 48.988 8.81502 47.605 5.19002 45.129V45.539C5.19002 60.812 13.976 73.977 26.21 77.031C22.3841 78.317 18.2744 78.5051 14.347 77.574C17.784 90.668 27.644 99.644 38.882 99.902C29.577 108.82 18.089 113.652 6.26502 113.622C4.17102 113.622 2.07702 113.472 -0.000976562 113.176C12.007 122.609 25.979 127.617 40.253 127.598" fill="#1DA1F2"/>
</svg>
