<svg width="128" height="128" viewBox="0 0 128 128" fill="none" xmlns="http://www.w3.org/2000/svg">
<path d="M27.7199 66.24C27.2861 66.3737 26.8338 66.4378 26.3799 66.43C22.3799 66.43 16.4299 52.34 16.4299 47.64C16.4299 45.92 16.8399 45.34 17.4299 44.85C12.4999 45.42 6.56992 47.23 4.67992 49.54C4.1925 50.3277 3.95541 51.2447 3.99992 52.17C3.99992 59.5 11.8199 76.17 17.3299 76.17C19.8799 76.17 24.1799 71.97 27.7199 66.29M25.1499 44.35C30.2499 44.35 35.3599 45.18 35.3599 48.06C35.3599 53.9 31.6499 60.98 29.7599 60.98C26.3799 60.98 22.1899 51.6 22.1899 46.9C22.1899 44.76 23.0099 44.35 25.1899 44.35M52.4599 54.7V76.16H49.4599V54.7H44.1799V52.09H57.7599V54.7H52.4599ZM68.2099 65V76.16H65.1099V65L58.9999 52.09H62.2999L66.8399 62.09L71.3799 52.09H74.5099L68.2099 65ZM83.9999 67.08H81.0599V76.16H78.0599V52.09C78.0599 52.09 81.0599 51.85 83.8699 51.85C89.0999 51.85 90.6099 55.08 90.6099 59.31C90.6199 64.53 88.8299 67.08 83.9999 67.08ZM84.3499 54.32C83.2663 54.3141 82.1837 54.3842 81.1099 54.53V64.53H84.2999C86.2199 64.53 87.5599 63.26 87.5599 59.53C87.5599 56.11 86.7399 54.32 84.2999 54.32H84.3499ZM101.76 76.4C96.0899 76.4 94.5699 72.27 94.5699 63.85C94.5699 55.77 96.0899 51.85 101.76 51.85C107.43 51.85 108.95 55.77 108.95 63.85C109 72.27 107.43 76.4 101.76 76.4ZM101.76 54.4C98.6599 54.4 97.6299 56.49 97.6299 64.06C97.6299 71.45 98.6299 73.93 101.76 73.93C104.89 73.93 105.88 71.45 105.88 64.06C105.88 56.45 104.85 54.36 101.76 54.36V54.4ZM118.19 76.4C116.672 76.3326 115.164 76.1352 113.68 75.81V73.23C115.155 73.54 116.654 73.724 118.16 73.78C119.91 73.78 121.04 72.34 121.04 69.69C121.04 66.49 120.53 64.91 118.04 64.91H115.22V62.4H117.69C120.48 62.4 120.62 59.55 120.62 58.17C120.62 55.46 119.76 54.36 118.04 54.36C116.614 54.4131 115.197 54.6074 113.81 54.94V52.43C115.174 52.1004 116.568 51.9061 117.97 51.85C121.51 51.85 123.54 53.36 123.54 58.48C123.54 60.82 122.82 62.88 120.92 63.48C123.16 63.79 123.92 65.99 123.92 69.36C124 74.47 122 76.4 118.19 76.4Z" fill="black"/>
</svg>
