<svg width="128" height="128" viewBox="0 0 128 128" fill="none" xmlns="http://www.w3.org/2000/svg">
<path d="M94.79 87C93.1315 87.5072 91.4042 87.7535 89.67 87.73C74.23 87.73 51.56 33.78 51.56 15.82C51.56 9.21997 53.13 7.00997 55.34 5.11997C36.44 7.31997 13.77 14.26 6.52 23.12C5 25.27 4 28.73 4 33.14C4 61.14 33.92 124.78 55 124.78C64.77 124.78 81.23 108.78 94.77 86.99M84.94 3.21997C104.46 3.21997 124 6.36997 124 17.39C124 39.75 109.82 66.85 102.58 66.85C89.67 66.85 73.58 30.94 73.58 12.98C73.58 4.78997 76.72 3.21997 84.91 3.21997" fill="black"/>
</svg>
