<svg width="128" height="128" viewBox="0 0 128 128" fill="none" xmlns="http://www.w3.org/2000/svg">
<path d="M64.0001 3.24597C30.4451 3.24597 3.24512 30.446 3.24512 64C3.24512 97.552 30.4451 124.754 64.0001 124.754C97.5541 124.754 124.755 97.552 124.755 64C124.755 30.446 97.5551 3.24597 64.0001 3.24597ZM77.6311 24.168C78.1635 23.2457 78.8723 22.4373 79.7171 21.789C80.5619 21.1406 81.5261 20.665 82.5547 20.3893C83.5833 20.1137 84.6561 20.0433 85.7119 20.1822C86.7677 20.3211 87.7858 20.6666 88.7081 21.199C89.6304 21.7313 90.4388 22.4402 91.0871 23.285C91.7354 24.1298 92.211 25.094 92.4867 26.1226C92.7624 27.1512 92.8328 28.224 92.6939 29.2798C92.555 30.3356 92.2095 31.3537 91.6771 32.276C91.145 33.1985 90.4362 34.0071 89.5914 34.6555C88.7466 35.304 87.7822 35.7795 86.7535 36.0551C85.7248 36.3306 84.6518 36.4007 83.596 36.2614C82.5401 36.122 81.5221 35.776 80.6001 35.243C78.7382 34.1676 77.3796 32.3969 76.8228 30.3201C76.2661 28.2433 76.5568 26.0305 77.6311 24.168ZM64.0001 28.763C67.2621 28.763 70.4171 29.216 73.4141 30.044C73.6822 31.7128 74.3193 33.3008 75.2791 34.6921C76.2389 36.0833 77.4972 37.2428 78.9621 38.086C80.4232 38.9304 82.0537 39.4393 83.7357 39.5758C85.4178 39.7123 87.109 39.4729 88.6871 38.875C94.6851 44.773 98.5881 52.794 99.1571 61.729L87.5991 61.899C86.5321 49.796 76.3771 40.306 64.0001 40.306C60.5525 40.3025 57.1459 41.0545 54.0201 42.509L48.3831 32.41C53.2378 30.006 58.5828 28.7578 64.0001 28.763ZM22.6891 72.112C21.6238 72.1121 20.5688 71.9024 19.5845 71.4948C18.6002 71.0872 17.7058 70.4897 16.9524 69.7364C16.199 68.9831 15.6014 68.0888 15.1937 67.1045C14.786 66.1203 14.5761 65.0653 14.5761 64C14.5759 62.9345 14.7855 61.8794 15.1931 60.895C15.6008 59.9105 16.1984 59.016 16.9518 58.2626C17.7052 57.5092 18.5997 56.9116 19.5841 56.504C20.5685 56.0964 21.6236 55.8867 22.6891 55.887C24.8251 55.9107 26.8655 56.7758 28.3676 58.2947C29.8696 59.8135 30.712 61.8634 30.712 63.9995C30.712 66.1356 29.8696 68.1855 28.3676 69.7043C26.8655 71.2231 24.8251 72.0883 22.6891 72.112ZM29.8801 72.834C31.1931 71.7665 32.2514 70.4196 32.978 68.8914C33.7045 67.3632 34.0811 65.6921 34.0801 64C34.0801 60.435 32.4411 57.253 29.8801 55.164C32.0741 46.675 37.3551 39.426 44.4511 34.681L50.3821 44.615C44.2901 48.902 40.3081 55.984 40.3081 64C40.3081 72.016 44.2891 79.098 50.3821 83.383L44.4511 93.32C37.3521 88.576 32.0711 81.325 29.8801 72.834ZM88.7111 106.798C87.789 107.331 86.7709 107.677 85.7149 107.816C84.659 107.955 83.586 107.885 82.5573 107.609C81.5285 107.333 80.5642 106.858 79.7195 106.209C78.8747 105.56 78.1661 104.752 77.6341 103.829C75.3931 99.952 76.7231 94.994 80.6031 92.753C84.4801 90.514 89.4411 91.845 91.6801 95.722C92.2127 96.6441 92.5585 97.6621 92.6975 98.7179C92.8366 99.7737 92.7662 100.847 92.4905 101.875C92.2148 102.904 91.7391 103.868 91.0906 104.713C90.4421 105.557 89.6336 106.266 88.7111 106.798ZM88.6871 89.125C87.1094 88.5254 85.4179 88.2851 83.7357 88.4214C82.0534 88.5577 80.4227 89.0673 78.9621 89.913C77.4975 90.7564 76.2396 91.916 75.28 93.3072C74.3204 94.6985 73.6833 96.2863 73.4151 97.955C70.3492 98.8062 67.182 99.2381 64.0001 99.239C58.5829 99.2441 53.2381 97.9952 48.3841 95.59L54.0201 85.49C57.1459 86.9448 60.5524 87.6971 64.0001 87.694C76.3781 87.694 86.5321 78.206 87.5961 66.102L99.1571 66.271C98.5881 75.206 94.6851 83.227 88.6871 89.125Z" fill="#DD4814"/>
</svg>
