<svg width="128" height="128" viewBox="0 0 128 128" fill="none" xmlns="http://www.w3.org/2000/svg">
<path d="M64.0202 1.59601C39.6602 1.59601 19.9132 21.343 19.9132 45.703C19.9132 70.059 39.6602 89.808 64.0202 89.808C88.3792 89.808 108.126 70.059 108.126 45.703C108.126 21.343 88.3792 1.59601 64.0202 1.59601ZM73.9162 16.786C74.2957 16.1037 74.8071 15.5036 75.4206 15.0208C76.0342 14.538 76.7377 14.1821 77.4901 13.9737C78.2425 13.7654 79.0289 13.7088 79.8034 13.8072C80.5779 13.9057 81.3251 14.1572 82.0015 14.5471C82.6779 14.9371 83.2699 15.4577 83.7432 16.0786C84.2165 16.6996 84.5615 17.4084 84.7582 18.164C84.9549 18.9196 84.9994 19.7067 84.889 20.4796C84.7786 21.2525 84.5156 21.9957 84.1152 22.666C83.3227 23.9929 82.0401 24.9549 80.5444 25.3443C79.0486 25.7337 77.4598 25.5193 76.1208 24.7473C74.7818 23.9754 73.8001 22.7078 73.3876 21.2183C72.9752 19.7287 73.165 18.1368 73.9162 16.786ZM64.0202 20.121C66.3882 20.121 68.6782 20.449 70.8542 21.05C71.0486 22.2616 71.511 23.4146 72.2076 24.4247C72.9043 25.4349 73.8177 26.2768 74.8812 26.889C75.9418 27.5023 77.1256 27.8719 78.3467 27.9708C79.5679 28.0697 80.7957 27.8956 81.9412 27.461C86.2952 31.743 89.1292 37.566 89.5432 44.053L81.1512 44.176C80.3772 35.39 73.0052 28.501 64.0202 28.501C61.4312 28.501 58.9762 29.076 56.7742 30.101L52.6822 22.768C56.2067 21.0226 60.0873 20.1166 64.0202 20.121ZM34.0282 51.591C33.2483 51.6012 32.4742 51.4565 31.7507 51.1651C31.0272 50.8738 30.3688 50.4416 29.8137 49.8938C29.2586 49.3459 28.8178 48.6933 28.5169 47.9737C28.216 47.2541 28.061 46.482 28.061 45.702C28.0609 44.9221 28.2157 44.1499 28.5165 43.4303C28.8173 42.7106 29.2579 42.0579 29.813 41.51C30.368 40.962 31.0264 40.5298 31.7498 40.2383C32.4732 39.9468 33.2473 39.8019 34.0272 39.812C35.5759 39.8321 37.0544 40.4613 38.1425 41.5635C39.2307 42.6657 39.8408 44.1522 39.841 45.701C39.8411 47.2498 39.2312 48.7364 38.1432 49.8388C37.0553 50.9412 35.5769 51.5707 34.0282 51.591ZM39.2502 52.115C40.2031 51.3399 40.9711 50.3621 41.4984 49.2527C42.0256 48.1433 42.2989 46.9303 42.2982 45.702C42.299 44.4734 42.0258 43.2601 41.4985 42.1504C40.9712 41.0407 40.2032 40.0625 39.2502 39.287C40.8432 33.124 44.6762 27.862 49.8282 24.417L54.1332 31.628C49.7102 34.74 46.8202 39.882 46.8202 45.702C46.8202 51.52 49.7102 56.661 54.1332 59.772L49.8282 66.985C44.6742 63.542 40.8402 58.28 39.2502 52.115ZM81.9592 76.773C81.2898 77.1598 80.5506 77.4108 79.7841 77.5118C79.0176 77.6127 78.2387 77.5617 77.4919 77.3614C76.7451 77.1612 76.0451 76.8158 75.4319 76.3449C74.8187 75.874 74.3044 75.2868 73.9182 74.617C73.3361 73.6086 73.0662 72.4502 73.1425 71.2883C73.2188 70.1264 73.6379 69.0133 74.3469 68.0897C75.0558 67.166 76.0227 66.4733 77.1254 66.0992C78.228 65.7251 79.4168 65.6864 80.5414 65.9879C81.6661 66.2895 82.676 66.9177 83.4436 67.7933C84.2112 68.6688 84.7019 69.7523 84.8536 70.9068C85.0054 72.0612 84.8114 73.2347 84.2962 74.2789C83.781 75.3231 82.9677 76.191 81.9592 76.773ZM81.9412 63.942C80.7958 63.5073 79.5679 63.3331 78.3467 63.432C77.1255 63.5309 75.9417 63.9005 74.8812 64.514C73.8182 65.1268 72.9051 65.9688 72.2085 66.9789C71.5119 67.9889 71.0492 69.1416 70.8542 70.353C68.6287 70.9703 66.3298 71.2835 64.0202 71.284C59.9492 71.284 56.1012 70.327 52.6832 68.635L56.7752 61.303C59.0447 62.3591 61.518 62.9053 64.0212 62.903C73.0062 62.903 80.3782 56.015 81.1512 47.227L89.5442 47.35C89.1302 53.837 86.2962 59.66 81.9412 63.942ZM16.0002 121.659C15.0002 121.714 15.4912 121.762 15.1772 121.803C14.8622 121.845 14.4392 121.885 14.0552 121.926C13.6712 121.968 13.2232 122.002 12.7842 122.029C12.3452 122.057 11.9022 122.071 11.4912 122.071C9.54421 122.071 8.10821 121.509 7.28521 120.384C6.46221 119.26 6.00021 117.394 6.00021 114.789V104H3.00021V115.612C3.00021 117.066 2.78021 118.389 3.08221 119.581C3.38421 120.773 3.69221 121.809 4.37721 122.686C5.06221 123.564 5.87521 124.242 7.00021 124.723C8.12321 125.201 9.46221 125.442 11.1072 125.442C13.0002 125.442 14.3762 125.319 15.8152 125.072C17.2542 124.826 17.9992 124.592 18.9992 124.373V104H15.9992V121.659H16.0002ZM41.3762 106.233C40.5551 105.247 39.5217 104.46 38.3532 103.93C37.1602 103.382 35.7962 103.107 34.2602 103.107C33.0272 103.107 32.0002 103.271 31.0542 103.601C30.1082 103.93 30.0002 104.246 29.0002 104.546V93.071L25.0002 93.73V124.374C25.0002 124.621 27.0252 124.868 28.3962 125.114C29.7682 125.361 31.3562 125.484 33.1382 125.484C34.7842 125.484 36.2712 125.222 37.5872 124.702C38.9032 124.181 40.0292 123.441 40.9622 122.481C41.8942 121.521 42.6152 120.349 43.1232 118.965C43.6302 117.579 43.8852 116.022 43.8852 114.295C43.8852 112.65 43.6722 111.142 43.2472 109.771C42.8222 108.4 42.1992 107.221 41.3762 106.233ZM38.0452 120.074C36.8112 121.432 35.1662 122.111 33.1082 122.111C32.0662 122.111 31.2602 122.063 30.5602 121.967C29.8612 121.871 29.9992 121.768 28.9992 121.658V108.124C29.9992 107.74 30.0722 107.37 30.9502 107.014C31.8282 106.658 32.7552 106.479 33.7992 106.479C34.8952 106.479 35.8192 106.678 36.6002 107.075C37.3613 107.458 38.0157 108.024 38.5052 108.721C38.9982 109.42 39.3502 110.25 39.5702 111.21C39.7902 112.171 39.8972 113.199 39.8972 114.295C39.8972 116.792 39.2782 118.717 38.0452 120.074ZM61.0002 121.659C61.0002 121.714 60.8392 121.762 60.5242 121.803C60.2092 121.845 59.9612 121.885 59.5772 121.926C59.1932 121.968 58.8322 122.002 58.3942 122.029C57.9562 122.057 57.5562 122.071 57.1452 122.071C55.1972 122.071 53.9362 121.509 53.1132 120.384C52.2902 119.26 52.0002 117.394 52.0002 114.789V104H48.0002V115.612C48.0002 117.066 48.1292 118.388 48.4312 119.581C48.7332 120.773 49.2162 121.809 49.9022 122.686C50.5872 123.564 51.4862 124.242 52.6112 124.723C53.7362 125.201 55.1182 125.442 56.7642 125.442C58.6562 125.442 60.2032 125.319 61.6432 125.072C63.0822 124.826 64.0002 124.592 65.0002 124.373V104H61.0002V121.659ZM86.1902 105.884C85.5172 105.02 84.6202 104.349 83.4962 103.869C82.3712 103.39 80.9592 103.149 79.2592 103.149C77.3672 103.149 75.3222 103.272 73.8692 103.519C72.4142 103.766 71.0002 103.999 70.0002 104.219V124H74.0002V106.933L74.9642 106.81C75.2782 106.755 75.7772 106.707 76.1752 106.665C76.5722 106.624 77.0622 106.589 77.5012 106.562C77.9377 106.535 78.3749 106.522 78.8122 106.521C79.8262 106.521 80.6942 106.651 81.3792 106.912C82.0662 107.172 82.6232 107.591 83.0342 108.166C83.4462 108.741 83.6472 109.495 83.8262 110.428C84.0032 111.36 84.0002 112.485 84.0002 113.8V124H88.0002V112.979C88.0002 111.526 87.8732 110.196 87.5992 108.988C87.3242 107.783 86.8612 106.748 86.1902 105.884ZM103.609 121.679C102.924 121.939 101.991 122.07 100.812 122.07C100.154 122.07 99.5782 121.987 99.0852 121.823C98.6016 121.666 98.1733 121.373 97.8512 120.98C97.5222 120.582 96.8432 120.035 96.6792 119.334C96.5142 118.635 96.0002 117.75 96.0002 116.682V107H105V104H96.0002V96.978L93.0002 97.637V116.722C93.0002 118.149 93.1352 119.403 93.3682 120.486C93.6012 121.57 94.0152 122.481 94.5912 123.222C95.1672 123.962 95.9322 124.517 96.8792 124.887C97.8252 125.258 99.0272 125.443 100.482 125.443C101.716 125.443 102.82 125.292 103.794 124.99C104.768 124.688 105.446 124.443 105.831 124.25L105.01 121.123C104.761 121.233 104.294 121.418 103.609 121.679ZM122 104V121.659C122 121.714 121.613 121.762 121.299 121.803C120.984 121.845 120.621 121.885 120.238 121.926C119.854 121.968 119.437 122.002 118.999 122.029C118.56 122.057 118.132 122.071 117.721 122.071C115.774 122.071 114.223 121.509 113.401 120.384C112.578 119.26 112.001 117.395 112.001 114.789V104H109.001V115.612C109.001 117.066 108.903 118.388 109.206 119.581C109.507 120.773 109.876 121.809 110.562 122.686C111.254 123.584 112.168 124.286 113.214 124.723C114.339 125.201 115.693 125.442 117.338 125.442C119.231 125.442 120.491 125.319 121.931 125.072C123.37 124.826 123.981 124.592 125.001 124.373V104H122Z" fill="#DD4814"/>
</svg>
