<svg width="128" height="128" viewBox="0 0 128 128" fill="none" xmlns="http://www.w3.org/2000/svg">
<path d="M38.527 77.594L30.207 64.196L38.527 50.786L42.539 64.196L38.527 77.594ZM20.011 76.289L9.558 66.359H26.195L34.515 79.761L20.011 76.289ZM20.011 52.051L34.476 48.578L26.156 61.988H9.516L20.011 52.051ZM41.258 42L22.356 46.699L19.544 51.32L13.868 51.277L0 64.195L13.867 77.109L19.543 77.066L22.356 81.683L41.258 86.425L46.336 68.808L43.477 64.234L46.336 59.656L41.258 42ZM84.18 55.039C81.664 55.039 79.957 56.059 78.676 57.941H78.594V55.527H74.157V73.261H78.677V63.207C78.677 60.801 80.259 59.121 82.435 59.121C84.482 59.121 86.017 60.309 86.017 62.394V73.304H90.54V61.699C90.583 57.816 88.02 55.039 84.181 55.039H84.18ZM67.285 65.781C67.285 68.156 65.879 69.789 63.574 69.789C61.484 69.789 60.16 68.644 60.16 66.566V55.527H55.637V67.379C55.637 71.262 57.942 73.797 62.078 73.797C64.683 73.797 66.133 72.856 67.371 71.219H67.5V73.305H71.852V55.527H67.329V65.781H67.285ZM92.973 55.527H97.493V73.261H92.973V55.527ZM92.973 50.011H97.493V53.566H92.973V50.011ZM123.137 55.527L120.45 63.539C119.852 65.172 119.384 67.422 119.384 67.422H119.255L118.06 63.539L115.029 55.527H110.166L115.158 68.156C116.224 70.855 116.568 71.996 116.568 72.976C116.568 74.449 115.756 75.39 113.838 75.39H112.088V79.109H114.99C118.744 79.109 120.064 77.679 121.474 73.754L128 55.57H123.137V55.527ZM105.942 68.074V58.672H108.844V55.57H105.942V50.011H101.419V55.527H98.86V58.632H101.419V69.054C101.419 72.402 104.064 73.304 106.454 73.304L108.931 73.222V69.788H107.779C106.713 69.827 105.943 69.382 105.943 68.073L105.942 68.074Z" fill="#110B09"/>
</svg>
