<svg width="128" height="128" viewBox="0 0 128 128" fill="none" xmlns="http://www.w3.org/2000/svg">
<path d="M7 3V9.554H47.792V3H7ZM78.75 3V9.554H121V3H78.75ZM7 16.835V23.389H47.792V16.835H7ZM78.75 16.835V23.389H121V16.835H78.75ZM7 30.306V36.86H47.792V30.306H7ZM78.75 30.306V36.86H121V30.306H78.75ZM7 60.597C7 83.17 7.073 84.117 9.55 91.507C12.208 99.554 15.778 105.379 21.35 110.949C31.111 120.634 43.75 125.403 61.086 125.949C80.973 126.569 96.088 121.58 106.796 110.804C112.296 105.27 116.411 98.316 118.778 90.561C120.928 83.571 121 82.406 121 60.488V40.5L99.985 40.573L78.933 40.683C78.933 40.683 78.751 40.749 78.751 69.626C78.751 102.61 73.225 108.536 62.559 108.536C51.893 108.536 47.658 102.866 47.865 68.789C48.037 40.596 47.755 40.5 47.755 40.5H7V60.597Z" fill="#4051B5"/>
</svg>
