<svg width="128" height="128" viewBox="0 0 128 128" fill="none" xmlns="http://www.w3.org/2000/svg">
<path fill-rule="evenodd" clip-rule="evenodd" d="M100.61 72.875C99.547 77.996 94.825 91.141 79.758 98.254L73.708 91.454L63.496 101.715C57.6872 101.637 51.975 100.217 46.8061 97.5655C41.6372 94.9139 37.1516 91.1028 33.7 86.43C34.786 86.77 35.903 86.981 37.036 87.06C38.708 87.09 40.521 86.477 40.521 83.669V55.974C40.5446 55.2619 40.4015 54.5542 40.1029 53.9073C39.8044 53.2604 39.3587 52.6923 38.8015 52.2483C38.2443 51.8043 37.5911 51.4967 36.8938 51.3501C36.1966 51.2035 35.4748 51.222 34.786 51.404C30.06 52.493 26.282 64.286 26.282 64.286C26.2298 58.8408 27.3639 53.4495 29.6054 48.4867C31.8469 43.524 35.1421 39.1088 39.262 35.548C44.6845 30.8571 51.3222 27.7941 58.41 26.712C53.25 29.654 50.352 34.451 50.352 38.474C50.352 44.951 54.25 44.166 55.406 43.213V80.592C55.602 81.06 55.859 81.502 56.168 81.908C56.6844 82.6209 57.3636 83.2002 58.1491 83.5977C58.9346 83.9951 59.8037 84.1992 60.684 84.193C64.586 84.193 69.652 79.736 69.652 79.736V49.478C69.652 46.4 67.332 42.685 65.008 41.408C65.008 41.408 69.308 40.646 72.629 43.185C73.252 42.4234 73.9142 41.6947 74.613 41.002C82.36 33.404 89.653 31.24 95.73 30.158C95.73 30.158 84.683 38.841 84.683 50.49C84.683 59.154 84.906 80.279 84.906 80.279C89.004 84.236 95.101 78.521 100.609 72.876L100.61 72.875Z" fill="black"/>
<path fill-rule="evenodd" clip-rule="evenodd" d="M63.9998 2.383C29.9728 2.383 2.38281 29.973 2.38281 64C2.38281 98.027 29.9728 125.617 63.9998 125.617C98.0268 125.617 125.617 98.027 125.617 64C125.617 29.973 98.0268 2.383 63.9998 2.383ZM63.9998 123.153C31.3318 123.153 4.84781 96.669 4.84781 64C4.85181 31.333 31.3358 4.849 64.0038 4.853C96.6718 4.853 123.152 31.337 123.152 64.005C123.152 96.673 96.6678 123.157 63.9998 123.157V123.153Z" fill="black"/>
</svg>
