<svg width="128" height="128" viewBox="0 0 128 128" fill="none" xmlns="http://www.w3.org/2000/svg">
<path fill-rule="evenodd" clip-rule="evenodd" d="M41.3908 111.047H31.8748V102.317H41.2388V104.25H34.4218V105.735H40.8748V107.559H34.4258V109.063H41.3908V111.051V111.047ZM96.1248 111.047H86.7618V102.453H95.9808V104.348H89.2698V105.808H95.6208V107.602H89.2698V109.082H96.1248V111.047ZM54.2888 111.047H50.4408L45.3708 104.516H45.3238V111.047H42.8038V102.317H46.7138L51.7188 108.852H51.7688V102.317H54.2928V111.047H54.2888ZM84.7928 111.047H80.9448L75.8748 104.516H75.8278V111.047H73.2968V102.317H77.2068L82.2148 108.852H82.2618V102.317H84.7928V111.047ZM61.7268 111.167C60.9178 111.167 60.2268 111.147 59.6448 111.108C59.1389 111.081 58.6367 111.007 58.1448 110.886C57.7848 110.796 57.4448 110.636 57.1488 110.417C56.8864 110.212 56.6794 109.945 56.5468 109.64C56.3901 109.27 56.2899 108.879 56.2498 108.48C56.1977 107.944 56.173 107.405 56.1758 106.866V106.608C56.1728 106.065 56.1988 105.523 56.2538 104.983C56.2938 104.585 56.3908 104.19 56.5468 103.819C56.6798 103.515 56.8868 103.249 57.1488 103.042C57.4487 102.825 57.7886 102.67 58.1488 102.585C58.638 102.464 59.1375 102.389 59.6408 102.362C60.3341 102.324 61.0284 102.306 61.7228 102.308H62.1018C62.7738 102.308 63.3638 102.323 63.8678 102.35C64.3048 102.374 64.7378 102.425 65.1678 102.51C65.4848 102.57 65.7858 102.675 66.0708 102.823C66.2968 102.944 66.4928 103.116 66.6368 103.331C66.7818 103.554 66.8788 103.804 66.9218 104.065C66.9808 104.397 67.0078 104.733 67.0038 105.069V105.401H64.5398V105.296C64.5471 105.125 64.5163 104.954 64.4498 104.796C64.371 104.648 64.2419 104.533 64.0858 104.472C63.8431 104.379 63.588 104.322 63.3288 104.304C62.8997 104.269 62.4693 104.252 62.0388 104.253H61.8248C61.3398 104.253 60.9298 104.261 60.5858 104.28C60.298 104.288 60.0117 104.323 59.7308 104.386C59.5361 104.429 59.3524 104.511 59.1908 104.628C59.053 104.737 58.9501 104.883 58.8948 105.05C58.8221 105.264 58.78 105.488 58.7698 105.714C58.7498 105.975 58.7388 106.292 58.7388 106.659V106.815C58.7388 107.175 58.7498 107.483 58.7698 107.741C58.7818 107.964 58.8198 108.183 58.8948 108.393C58.9498 108.558 59.0548 108.702 59.1918 108.811C59.3518 108.929 59.5398 109.011 59.7308 109.05C60.0118 109.112 60.2968 109.147 60.5858 109.16C60.9298 109.175 61.3398 109.186 61.8248 109.183H62.0398C62.4338 109.183 62.7738 109.183 63.0588 109.163C63.3438 109.143 63.5818 109.123 63.7778 109.093C63.9378 109.073 64.0938 109.026 64.2428 108.963C64.3495 108.916 64.4433 108.844 64.5158 108.753C64.578 108.664 64.6206 108.563 64.6408 108.456C64.6608 108.323 64.6718 108.186 64.6718 108.054V107.811H61.3208V106.124H67.1008V108.065C67.1058 108.433 67.0818 108.804 67.0238 109.167C66.9768 109.456 66.8748 109.737 66.7268 109.987C66.5818 110.217 66.3908 110.413 66.1568 110.557C65.8748 110.726 65.5668 110.847 65.2428 110.917C64.8072 111.018 64.364 111.082 63.9178 111.108C63.4028 111.143 62.8048 111.163 62.1178 111.163L61.7268 111.167ZM71.4408 111.067H68.8818V102.399H71.4408V111.067ZM12.2578 97.746C11.0198 97.746 9.93776 97.711 9.00376 97.644C8.19113 97.5971 7.38374 97.4833 6.58976 97.304C5.99938 97.177 5.43252 96.9584 4.90976 96.656C4.48327 96.3959 4.12041 96.0436 3.84776 95.625C3.57007 95.1737 3.38039 94.6739 3.28876 94.152C3.17182 93.4933 3.11691 92.825 3.12476 92.156V82.308H7.61676V90.699C7.61676 91.219 7.63276 91.664 7.67176 92.039C7.69476 92.363 7.76976 92.679 7.89076 92.984C7.99576 93.234 8.16076 93.453 8.37476 93.621C8.62476 93.801 8.90976 93.929 9.21076 94C9.62876 94.105 10.0588 94.168 10.4878 94.187C10.9958 94.219 11.5978 94.23 12.3008 94.23H12.6798C13.3828 94.23 13.9848 94.215 14.4918 94.183C14.9218 94.16 15.3518 94.101 15.7698 94.003C16.0738 93.937 16.3558 93.808 16.6058 93.625C16.8173 93.4569 16.9825 93.2377 17.0858 92.988C17.2108 92.688 17.2858 92.367 17.3128 92.043C17.3478 91.663 17.3628 91.219 17.3628 90.715V82.305H21.8558V92.152C21.8588 92.82 21.8088 93.484 21.7028 94.144C21.6192 94.6669 21.4348 95.1685 21.1598 95.621C20.8937 96.0409 20.5344 96.3937 20.1098 96.652C19.5887 96.9559 19.0231 97.1763 18.4338 97.305C17.6368 97.485 16.8238 97.597 16.0078 97.645C14.9141 97.7134 13.8185 97.7457 12.7228 97.742L12.2578 97.746ZM44.9378 97.558H38.2228L29.3868 86.136H29.3008V97.558H24.8998V82.285H31.7158L40.4468 93.715H40.5328V82.285H44.9348V97.551L44.9378 97.558ZM58.1678 89.996C58.9448 89.996 59.5578 89.973 60.0198 89.926C60.3859 89.9042 60.7428 89.8029 61.0658 89.629C61.2968 89.489 61.4648 89.266 61.5308 89.004C61.6124 88.6572 61.6494 88.3013 61.6408 87.945V87.683C61.649 87.3311 61.612 86.9795 61.5308 86.637C61.4972 86.5083 61.4381 86.3876 61.357 86.2822C61.2759 86.1767 61.1745 86.0886 61.0588 86.023C60.7326 85.8545 60.3743 85.7574 60.0078 85.738C59.3959 85.6849 58.7819 85.6615 58.1678 85.668H52.5738V89.996H58.1678ZM66.1598 97.559H61.7268V96.32C61.7308 95.933 61.7108 95.55 61.6718 95.168C61.6475 94.8839 61.5705 94.6069 61.4448 94.351C61.3318 94.133 61.1635 93.9485 60.9568 93.816C60.7031 93.6604 60.4221 93.5545 60.1288 93.504C59.71 93.4212 59.2853 93.3714 58.8588 93.355C58.2605 93.3262 57.6617 93.3132 57.0628 93.316H52.5738V97.559H48.1298V82.286H59.9698C60.998 82.2668 62.0258 82.3438 63.0398 82.516C63.7238 82.6199 64.3733 82.8849 64.9348 83.289C65.3998 83.653 65.7348 84.157 65.8948 84.723C66.0868 85.442 66.1768 86.188 66.1568 86.93V87.47C66.1641 87.9976 66.1186 88.5246 66.0208 89.043C65.9388 89.453 65.7858 89.848 65.5638 90.203C65.3533 90.5263 65.0761 90.8008 64.7508 91.008C64.3718 91.238 63.9578 91.398 63.5248 91.488V91.578C63.9738 91.645 64.4148 91.754 64.8408 91.914C65.1648 92.032 65.4428 92.239 65.6498 92.516C65.8638 92.829 66.0008 93.188 66.0518 93.563C66.1298 94.11 66.1688 94.661 66.1568 95.215V97.551L66.1598 97.559ZM85.6678 97.558H69.0778V82.285H85.4058V85.66H73.5228V88.258H84.7768V91.445H73.5228V94.078H85.6678V97.558ZM100.67 91.64L97.5568 85.515H97.4468L94.3608 91.64H100.67ZM108.526 97.57H103.686L102.287 94.827H92.7638L91.3888 97.57H86.5838L94.7838 82.304H100.291L108.526 97.57ZM124.88 97.57H110.177V82.304H114.665V94.027H124.88V97.577V97.57ZM82.3518 47.058C81.8208 49.624 79.4538 56.214 71.9028 59.781L68.8718 56.371L63.7588 61.515C60.8469 61.4761 57.9834 60.7644 55.3921 59.4356C52.8008 58.1068 50.5518 56.1969 48.8208 53.855C49.3651 54.0237 49.9272 54.1287 50.4958 54.168C51.3318 54.183 52.2388 53.878 52.2388 52.465V38.594C52.2524 38.237 52.1816 37.8817 52.0322 37.5572C51.8828 37.2326 51.6589 36.9478 51.3788 36.726C51.0996 36.5026 50.7715 36.3482 50.4213 36.2756C50.0712 36.2029 49.7088 36.214 49.3638 36.308C46.9958 36.848 45.1018 42.758 45.1018 42.758C45.0761 40.0289 45.645 37.327 46.7689 34.8399C47.8928 32.3529 49.5446 30.1403 51.6098 28.356C55.1368 25.367 58.5818 24.332 61.1998 23.926C58.6138 25.399 57.1598 27.805 57.1598 29.824C57.1598 33.063 59.1128 32.68 59.6958 32.199V50.933C59.7928 51.172 59.9178 51.39 60.0738 51.597C60.3322 51.955 60.673 52.2455 61.0675 52.4439C61.4619 52.6423 61.8983 52.7429 62.3398 52.737C64.2968 52.737 66.8398 50.503 66.8398 50.503V35.335C66.8398 33.792 65.6758 31.925 64.5118 31.289C64.5118 31.289 66.6638 30.909 68.3318 32.183C68.6448 31.8 68.9768 31.433 69.3278 31.085C73.2028 27.277 76.8598 26.199 79.9058 25.655C79.9058 25.655 74.3628 30.011 74.3628 35.847C74.3628 40.187 74.4728 50.777 74.4728 50.777C76.5388 52.757 79.5928 49.897 82.3518 47.057V47.058Z" fill="black"/>
<path fill-rule="evenodd" clip-rule="evenodd" d="M63.9997 11.734C46.9447 11.734 33.1167 25.562 33.1167 42.617C33.1167 59.677 46.9487 73.5 64.0037 73.5C81.0627 73.5 94.8907 59.672 94.8867 42.613C94.8867 25.558 81.0587 11.73 63.9997 11.734ZM63.9997 72.261C47.6247 72.265 34.3517 58.991 34.3477 42.616C34.3477 26.241 47.6207 12.968 63.9997 12.968C80.3747 12.964 93.6477 26.241 93.6477 42.613C93.6477 58.988 80.3747 72.261 63.9997 72.261Z" fill="black"/>
</svg>
