<svg width="128" height="128" viewBox="0 0 128 128" fill="none" xmlns="http://www.w3.org/2000/svg">
<path d="M8.88389 80.638C6.68389 80.038 5.28389 78.438 4.48389 75.538C4.18389 74.338 4.08389 73.838 4.08389 65.338L3.98389 56.438H9.58389V63.638C9.58389 67.838 9.68389 71.438 9.78389 72.138C10.1839 74.838 11.2839 76.238 13.0839 76.238C14.7839 76.238 15.9839 74.938 16.7839 72.138C16.9839 71.238 17.0839 70.138 17.1839 63.738L17.2839 56.338H22.8839V67.638C22.8839 73.838 22.8839 79.238 22.9839 79.538L23.0839 80.738H17.5839L17.4839 79.338C17.4839 78.838 17.3839 77.838 17.3839 77.038V75.638L16.6839 77.038C16.2839 77.838 15.6839 78.738 15.3839 79.038C13.8839 80.638 11.1839 81.238 8.88389 80.638ZM99.6839 80.738C95.5839 80.138 92.4839 77.438 90.8839 73.038C89.2839 68.838 88.8839 62.538 90.0839 57.238C91.1839 51.938 94.1839 48.438 98.4839 47.338C99.9839 46.938 102.984 46.938 104.284 47.338C107.284 48.138 109.684 50.138 111.084 53.238C112.084 55.238 112.184 55.038 109.384 56.038C107.984 56.538 106.784 56.938 106.684 56.938C106.584 56.938 106.384 56.638 106.284 56.338C105.684 54.538 104.484 53.038 103.084 52.438C101.984 51.938 100.184 52.038 99.1839 52.538C96.5839 53.838 95.3839 57.538 95.3839 63.738C95.3839 68.238 95.9839 71.138 97.3839 73.338C98.5839 75.238 99.8839 75.838 102.084 75.738C103.784 75.638 105.084 75.038 106.284 73.938L107.084 73.138V67.738H101.484V63.338H112.684V75.138L111.984 75.938C110.384 78.038 107.684 79.738 105.084 80.338C103.584 80.738 100.984 80.938 99.6839 80.738ZM29.4839 64.438C27.6839 55.638 25.9839 48.238 25.9839 48.038L25.8839 47.138H31.7839C31.8839 47.138 32.5839 52.038 33.5839 57.338C34.5839 62.638 35.6839 68.738 35.9839 70.838C36.2839 72.938 36.5839 74.738 36.5839 74.738L43.0839 51.538H45.6839L52.3839 74.638C52.3839 74.738 52.6839 73.338 52.8839 71.738C53.0839 70.138 54.1839 64.038 55.2839 58.238L57.2839 47.138H63.2839L63.1839 48.038C63.1839 48.338 61.5839 55.638 59.6839 64.338C57.7839 73.038 56.3839 80.938 56.2839 80.938H49.0839L44.3839 63.138L39.8839 80.938H32.7839L29.4839 64.438ZM118.084 63.938V47.138H123.984V80.838H118.084V63.938Z" fill="#BAD05E"/>
<path d="M85.3838 68.638C85.1838 67.138 84.1838 65.338 83.0838 64.238C81.7838 62.938 80.3838 62.2379 76.6838 61.0379C74.9838 60.5379 73.1838 59.8379 72.6838 59.5379C71.0838 58.6379 70.3838 56.838 70.7838 54.738C71.2838 52.638 72.4838 51.738 74.8838 51.738C76.0838 51.738 76.4838 51.738 77.0838 52.138C78.0838 52.638 78.6838 53.5379 79.0838 54.9379L79.4838 55.9379C80.0838 55.9379 84.8838 55.1379 84.9838 55.0379C85.0838 54.8379 84.4838 52.6379 83.7838 51.3379C82.6838 49.2379 81.0838 48.0379 78.4838 47.4379C76.9838 47.0379 73.3838 47.0379 71.6838 47.4379C67.5838 48.3379 65.2838 51.0379 64.9838 55.4379C64.7838 58.3379 65.5838 60.838 67.3838 62.638C68.7838 63.938 69.7838 64.538 73.5838 65.738C77.7838 67.138 78.7838 67.7379 79.4838 69.3379C79.8838 70.2379 79.9838 71.938 79.6838 73.138C79.3838 74.138 78.3838 75.238 77.3838 75.638C76.1838 76.038 73.5838 76.0379 72.5838 75.5379C71.0838 74.8379 70.1838 73.738 69.6838 71.738C69.4838 71.238 69.2838 70.9379 69.1838 70.9379C69.0838 71.0379 67.8838 71.2379 66.4838 71.4379C65.0838 71.6379 63.8838 71.8379 63.8838 71.8379C63.6838 71.8379 63.7838 72.638 64.0838 73.638C65.3838 77.738 67.9838 79.9379 72.4838 80.6379C73.7838 80.9379 77.0838 80.7379 78.4838 80.5379C82.0838 79.7379 84.5838 77.3379 85.2838 73.8379C85.5838 72.4379 85.5838 69.938 85.3838 68.638ZM81.3238 50.638C82.4438 50.598 83.4038 51.5579 83.4038 52.7179C83.4038 53.8879 82.4438 54.798 81.3238 54.798C80.1538 54.798 79.2438 53.8379 79.2438 52.7179C79.2338 51.5579 80.1938 50.638 81.3238 50.638Z" fill="#BAD05E"/>
</svg>
