<svg width="128" height="128" viewBox="0 0 128 128" fill="none" xmlns="http://www.w3.org/2000/svg">
<path d="M8.88389 80.638C6.68389 80.038 5.28389 78.438 4.48389 75.538C4.18389 74.338 4.08389 73.838 4.08389 65.338L3.98389 56.438H9.58389V63.638C9.58389 67.838 9.68389 71.438 9.78389 72.138C10.1839 74.838 11.2839 76.238 13.0839 76.238C14.7839 76.238 15.9839 74.938 16.7839 72.138C16.9839 71.238 17.0839 70.138 17.1839 63.738L17.2839 56.338H22.8839V67.638C22.8839 73.838 22.8839 79.238 22.9839 79.538L23.0839 80.738H17.5839L17.4839 79.338C17.4839 78.838 17.3839 77.838 17.3839 77.038V75.638L16.6839 77.038C16.2839 77.838 15.6839 78.738 15.3839 79.038C13.8839 80.638 11.1839 81.238 8.88389 80.638Z" fill="#BAD05E"/>
<path d="M72.4838 80.638C67.9838 79.938 65.3838 77.738 64.0838 73.638C63.7838 72.638 63.6838 71.838 63.8838 71.838C63.8838 71.838 65.0838 71.638 66.4838 71.438C67.8838 71.238 69.0838 71.038 69.1838 70.938C69.2838 70.938 69.4838 71.238 69.6838 71.738C70.1838 73.738 71.0838 74.838 72.5838 75.538C73.5838 76.038 76.1838 76.038 77.3838 75.638C78.3838 75.238 79.3838 74.138 79.6838 73.138C79.9838 71.938 79.8838 70.238 79.4838 69.338C78.7838 67.738 77.7838 67.138 73.5838 65.738C69.7838 64.538 68.7838 63.938 67.3838 62.638C65.5838 60.838 64.7838 58.338 64.9838 55.438C65.2838 51.038 67.5838 48.338 71.6838 47.438C73.3838 47.038 76.9838 47.038 78.4838 47.438C81.0838 48.038 82.6838 49.238 83.7838 51.338C84.4838 52.638 85.0838 54.838 84.9838 55.038C84.8838 55.138 80.0838 55.938 79.4838 55.938L79.0838 54.938C78.6838 53.538 78.0838 52.638 77.0838 52.138C76.4838 51.738 76.0838 51.738 74.8838 51.738C72.4838 51.738 71.2838 52.638 70.7838 54.738C70.3838 56.838 71.0838 58.638 72.6838 59.538C73.1838 59.838 74.9838 60.538 76.6838 61.038C80.3838 62.238 81.7838 62.938 83.0838 64.238C84.1838 65.338 85.1838 67.138 85.3838 68.638C85.5838 69.938 85.5838 72.438 85.2838 73.838C84.5838 77.338 82.0838 79.738 78.4838 80.538C77.0838 80.738 73.7838 80.938 72.4838 80.638ZM99.6838 80.738C95.5838 80.138 92.4838 77.438 90.8838 73.038C89.2838 68.838 88.8838 62.538 90.0838 57.238C91.1838 51.938 94.1838 48.438 98.4838 47.338C99.9838 46.938 102.984 46.938 104.284 47.338C107.284 48.138 109.684 50.138 111.084 53.238C112.084 55.238 112.184 55.038 109.384 56.038C107.984 56.538 106.784 56.938 106.684 56.938C106.584 56.938 106.384 56.638 106.284 56.338C105.684 54.538 104.484 53.038 103.084 52.438C101.984 51.938 100.184 52.038 99.1838 52.538C96.5838 53.838 95.3838 57.538 95.3838 63.738C95.3838 68.238 95.9838 71.138 97.3838 73.338C98.5838 75.238 99.8838 75.838 102.084 75.738C103.784 75.638 105.084 75.038 106.284 73.938L107.084 73.138V67.738H101.484V63.338H112.684V75.138L111.984 75.938C110.384 78.038 107.684 79.738 105.084 80.338C103.584 80.738 100.984 80.938 99.6838 80.738Z" fill="#010101"/>
<path d="M29.4838 64.438C27.6838 55.638 25.9838 48.238 25.9838 48.038L25.8838 47.138H31.7838C31.8838 47.138 32.5838 52.038 33.5838 57.338C34.5838 62.638 35.6838 68.738 35.9838 70.838C36.2838 72.938 36.5838 74.738 36.5838 74.738L43.0838 51.538H45.6838L52.3838 74.638C52.3838 74.738 52.6838 73.338 52.8838 71.738C53.0838 70.138 54.1838 64.038 55.2838 58.238L57.2838 47.138H63.2838L63.1838 48.038C63.1838 48.338 61.5838 55.638 59.6838 64.338C57.7838 73.038 56.3838 80.938 56.2838 80.938H49.0838L44.3838 63.138L39.8838 80.938H32.7838L29.4838 64.438Z" fill="black"/>
<path d="M118.084 63.938V47.138H123.984V80.838H118.084V63.938Z" fill="#010101"/>
<path d="M83.4018 52.726C83.4 53.2779 83.1799 53.8066 82.7897 54.1969C82.3995 54.5871 81.8707 54.8072 81.3188 54.809C80.767 54.8072 80.2382 54.5871 79.848 54.1969C79.4577 53.8066 79.2377 53.2779 79.2358 52.726C79.2374 52.174 79.4574 51.645 79.8476 51.2545C80.2379 50.8641 80.7668 50.6439 81.3188 50.642C82.4438 50.601 83.4018 51.559 83.4018 52.726Z" fill="#BAD05E"/>
<path d="M82.1938 52.726C82.1938 53.226 81.8188 53.601 81.3188 53.601C80.8188 53.601 80.4438 53.226 80.4438 52.726C80.4438 52.226 80.8188 51.851 81.3188 51.851C81.5505 51.8523 81.7723 51.9449 81.9361 52.1087C82.0999 52.2726 82.1925 52.4944 82.1938 52.726Z" fill="#010101"/>
</svg>
