<svg width="128" height="128" viewBox="0 0 128 128" fill="none" xmlns="http://www.w3.org/2000/svg">
<path d="M47.7602 51.46V49.63H46.0902V51.46H45.2402V47.07H46.0902V48.91H47.7602V47.07H48.6102V51.46H47.7602ZM51.7602 51.46H51.0802L51.0002 51.25C50.7002 51.4364 50.3534 51.5335 50.0002 51.53C49.4002 51.53 49.1402 51.13 49.1402 50.59C49.1402 50.05 49.4302 49.7 50.1402 49.7H50.9302V49.37C50.9302 49.02 50.8302 48.9 50.3002 48.9C49.9944 48.9042 49.6897 48.9377 49.3902 49L49.2902 48.4C49.6589 48.302 50.0387 48.2516 50.4202 48.25C51.4202 48.25 51.7602 48.6 51.7602 49.39V51.46ZM50.9302 50.26H50.3002C50.0302 50.26 49.9502 50.33 49.9502 50.57C49.9502 50.81 50.0202 50.89 50.2802 50.89C50.4968 50.8876 50.7095 50.8327 50.9002 50.73L50.9302 50.26ZM53.4902 51.52C53.1035 51.5154 52.7195 51.4548 52.3502 51.34L52.4702 50.74C52.7959 50.8306 53.1322 50.8777 53.4702 50.88C53.8402 50.88 53.8902 50.8 53.8902 50.56C53.8902 50.32 53.8902 50.27 53.3102 50.14C52.5002 49.95 52.4102 49.76 52.4102 49.14C52.4102 48.52 52.7002 48.22 53.6402 48.22C53.9766 48.2193 54.312 48.2562 54.6402 48.33L54.5602 48.96C54.2596 48.9069 53.9554 48.8768 53.6502 48.87C53.2902 48.87 53.2302 48.95 53.2302 49.14C53.2302 49.33 53.2302 49.41 53.7002 49.52C54.6202 49.75 54.7002 49.87 54.7002 50.52C54.7002 51.17 54.4602 51.52 53.4702 51.52H53.4902ZM57.2702 51.46V49.25C57.2702 49.08 57.2002 49 57.0102 49C56.7088 49.0337 56.4168 49.1254 56.1502 49.27V51.47H55.3002V47L56.1302 47.12V48.52C56.5043 48.3343 56.913 48.2287 57.3302 48.21C57.8802 48.21 58.0702 48.58 58.0702 49.15V51.44L57.2702 51.46ZM58.7902 47.85V47.08H59.6202V47.85H58.7902ZM58.7902 51.46V48.29H59.6202V51.46H58.7902ZM60.2802 48.32C60.2802 47.53 60.7602 47.07 61.8802 47.07C62.2943 47.0686 62.7071 47.1155 63.1102 47.21L63.0202 47.92C62.6571 47.854 62.2892 47.8172 61.9202 47.81C61.3302 47.81 61.1402 48 61.1402 48.47V50.13C61.1402 50.59 61.3302 50.79 61.9202 50.79C62.2892 50.7828 62.6571 50.746 63.0202 50.68L63.1102 51.39C62.7071 51.4845 62.2943 51.5314 61.8802 51.53C60.7602 51.53 60.2802 51.07 60.2802 50.28V48.32ZM64.9302 51.52C63.8002 51.52 63.4902 50.92 63.4902 50.27V49.47C63.4902 48.82 63.7902 48.22 64.9302 48.22C66.0702 48.22 66.3602 48.82 66.3602 49.47V50.27C66.3402 50.93 66.0002 51.52 64.9102 51.52H64.9302ZM64.9302 48.9C64.4902 48.9 64.3202 49.09 64.3202 49.45V50.3C64.3202 50.66 64.4902 50.85 64.9302 50.85C65.3702 50.85 65.5402 50.66 65.5402 50.3V49.45C65.5202 49.09 65.3502 48.91 64.9102 48.91L64.9302 48.9ZM68.6902 48.95C68.3891 49.0813 68.0983 49.2351 67.8202 49.41V51.41H67.0002V48.29H67.7002L67.7502 48.64C68.0209 48.4631 68.3133 48.3219 68.6202 48.22L68.6902 48.95ZM72.0002 50.41C72.0189 50.5589 72.0039 50.7102 71.9562 50.8525C71.9085 50.9949 71.8294 51.1247 71.7247 51.2322C71.62 51.3398 71.4924 51.4225 71.3514 51.474C71.2104 51.5255 71.0596 51.5447 70.9102 51.53C70.6147 51.5276 70.3201 51.4974 70.0302 51.44V52.73L69.2002 52.85V48.29H69.8602L69.9402 48.56C70.2326 48.3517 70.5812 48.2366 70.9402 48.23C71.6002 48.23 71.9402 48.61 71.9402 49.33L72.0002 50.41ZM70.0002 50.77C70.2404 50.8201 70.4849 50.8469 70.7302 50.85C71.0302 50.85 71.1402 50.71 71.1402 50.43V49.31C71.1402 49.05 71.0402 48.91 70.7302 48.91C70.4576 48.919 70.1964 49.0214 69.9902 49.2L70.0002 50.77ZM57.5602 55H61.1202L55.7102 73.11H50.6502L45.2302 55H48.8002L53.1802 70.1L57.5602 55ZM71.0002 73.11H68.3002L68.0602 72.21C66.8872 72.9719 65.5189 73.3782 64.1202 73.38C61.7002 73.38 60.6702 71.72 60.6702 69.44C60.6702 66.75 61.8402 65.71 64.5302 65.71H67.7002V64.32C67.7002 62.85 67.2902 62.32 65.1702 62.32C63.9363 62.334 62.7068 62.4713 61.5002 62.73L61.0902 60.2C62.5689 59.7893 64.0956 59.5775 65.6302 59.57C69.7902 59.57 71.0202 61.04 71.0202 64.36L71.0002 73.11ZM67.6802 68.11H65.2502C64.1602 68.11 63.8602 68.41 63.8602 69.42C63.8602 70.43 64.1602 70.75 65.1902 70.75C66.0675 70.737 66.9273 70.5032 67.6902 70.07L67.6802 68.11ZM77.3602 69.55C77.153 69.6501 76.9729 69.7987 76.8354 69.9832C76.6978 70.1678 76.6069 70.3828 76.5702 70.61C76.5702 70.96 76.7902 71.13 77.3002 71.18L81.1402 71.59C83.2902 71.83 83.9702 72.9 83.9702 74.8C83.9702 77.63 82.9702 78.74 77.9702 78.74C76.2441 78.743 74.5255 78.5143 72.8602 78.06L73.2702 75.58C74.728 75.9516 76.2258 76.143 77.7302 76.15C80.3702 76.15 80.8902 75.96 80.8902 75.09C80.8902 74.22 80.6502 74.09 79.6402 74.03L75.8002 73.59C73.9202 73.37 73.1902 72.75 73.1902 71.06C73.2178 70.5979 73.3592 70.1499 73.6017 69.7556C73.8442 69.3613 74.1803 69.0331 74.5802 68.8C73.9837 68.4276 73.5005 67.8989 73.1832 67.2713C72.8659 66.6437 72.7265 65.9412 72.7802 65.24V64C72.8302 61.25 74.2802 59.59 78.1102 59.59C78.8719 59.584 79.6313 59.6747 80.3702 59.86H84.4502V61.52L83.0002 61.93C83.3113 62.5749 83.4655 63.2842 83.4502 64V65.25C83.4502 67.94 81.8202 69.58 78.1202 69.58C77.8665 69.584 77.6128 69.574 77.3602 69.55ZM78.1202 62.26C76.4902 62.26 75.9202 62.86 75.9202 64.11V65.11C75.9202 66.42 76.5702 66.91 78.1202 66.91C79.6702 66.91 80.3502 66.39 80.3502 65.11V64.11C80.3502 62.86 79.7802 62.26 78.1202 62.26ZM92.7802 62.64C91.5623 63.1921 90.3888 63.8374 89.2702 64.57V73.11H86.0002V59.86H88.8002L89.0002 61.33C90.0788 60.5998 91.2489 60.0148 92.4802 59.59L92.7802 62.64ZM103.88 73.11H101.16L100.92 72.21C99.7529 72.9682 98.3921 73.3744 97.0002 73.38C94.5802 73.38 93.5502 71.72 93.5502 69.44C93.5502 66.75 94.7202 65.71 97.4102 65.71H100.59V64.32C100.59 62.85 100.18 62.32 98.0602 62.32C96.8263 62.334 95.5968 62.4713 94.3902 62.73L94.0002 60.22C95.4789 59.8093 97.0056 59.5975 98.5402 59.59C102.7 59.59 103.93 61.06 103.93 64.38L103.88 73.11ZM100.56 68.11H98.1102C97.0202 68.11 96.7202 68.41 96.7202 69.42C96.7202 70.43 97.0202 70.75 98.0502 70.75C98.9275 70.737 99.7873 70.5032 100.55 70.07L100.56 68.11ZM113.75 73.11V63.86C113.75 63.15 113.45 62.8 112.69 62.8C111.477 62.9394 110.304 63.3202 109.24 63.92V73.11H105.92V59.86H108.45L108.78 60.98C110.431 60.153 112.236 59.6796 114.08 59.59C116.28 59.59 117.08 61.14 117.08 63.51V73.11H113.75ZM126.84 72.87C125.905 73.1991 124.922 73.3747 123.93 73.39C121.51 73.39 120.29 72.25 120.29 69.88V62.5H118.29V59.86H120.29V56.57L123.61 56.11V59.86H127L126.78 62.5H123.6V69.44C123.568 69.6033 123.577 69.7721 123.626 69.931C123.676 70.09 123.764 70.2341 123.883 70.3503C124.002 70.4665 124.149 70.5511 124.309 70.5965C124.469 70.6418 124.638 70.6465 124.8 70.61C125.363 70.5936 125.921 70.5029 126.46 70.34L126.84 72.87ZM33.8602 52.74V49.63L26.3902 53.98V56.6L20.4202 69.49L17.4302 71.55V80.99L23.8302 77.3L33.8602 52.74ZM17.4302 64.83L12.9502 54.37V51.42L12.9202 51.4L8.47021 53.98V56.6L14.4402 70.06L17.4302 68.58V64.83Z" fill="black"/>
<path d="M29.38 47.02L21.91 51.39V54.37L17.43 64.83V68.32L14.44 70.06L8.47 56.6V53.97L12.95 51.39L5.48 47.02L1 49.63V52.84L11.08 77.33L17.43 80.99V71.79L20.42 70.06L20.38 70.03L26.39 56.6V53.97L33.86 49.63L29.38 47.02Z" fill="black"/>
</svg>
