<svg width="128" height="128" viewBox="0 0 128 128" fill="none" xmlns="http://www.w3.org/2000/svg">
<path d="M122.51 23.9V12.82L95.9101 28.29V37.64L74.6401 83.55L63.9901 90.88V124.49L86.8001 111.34L122.51 23.9ZM63.9901 66.94L48.0401 29.71V19.18L47.9301 19.13L32.0801 28.29V37.64L53.3601 85.56L63.9901 80.3V66.94Z" fill="black"/>
<path d="M106.56 3.51001L79.9702 19.08L79.9502 19.07V29.71L63.9902 66.94V79.39L53.3602 85.56L32.0802 37.64V28.27L48.0502 19.09L21.4502 3.51001L5.49023 12.82V24.23L41.4002 111.44L63.9902 124.49V91.73L74.6402 85.56L74.5002 85.48L95.9102 37.64V28.29L95.9202 28.27L122.51 12.82L106.56 3.51001Z" fill="black"/>
</svg>
