<svg width="128" height="128" viewBox="0 0 128 128" fill="none" xmlns="http://www.w3.org/2000/svg">
<path d="M47.77 51.47V49.65H46.1V51.47H45.25V47.09H46.1V48.93H47.77V47.09H48.62V51.47H47.77ZM51.77 51.47H51.09L51 51.26C50.7 51.4464 50.3532 51.5435 50 51.54C49.4 51.54 49.14 51.14 49.14 50.6C49.14 50.06 49.43 49.71 50.14 49.71H50.93V49.38C50.93 49.03 50.83 48.91 50.3 48.91C49.9942 48.9142 49.6894 48.9477 49.39 49.01L49.29 48.41C49.6587 48.3119 50.0385 48.2615 50.42 48.26C51.42 48.26 51.76 48.61 51.76 49.4L51.77 51.47ZM50.95 50.28H50.34C50.07 50.28 50 50.35 50 50.59C50 50.83 50.07 50.91 50.33 50.91C50.5466 50.9076 50.7593 50.8527 50.95 50.75V50.28ZM53.5 51.54C53.1133 51.5354 52.7293 51.4748 52.36 51.36L52.47 50.76C52.7957 50.8506 53.1319 50.8977 53.47 50.9C53.84 50.9 53.89 50.82 53.89 50.58C53.89 50.34 53.89 50.29 53.32 50.16C52.52 49.97 52.42 49.78 52.42 49.16C52.42 48.54 52.71 48.24 53.65 48.24C53.9864 48.2393 54.3218 48.2762 54.65 48.35L54.57 48.98C54.2694 48.9269 53.9652 48.8968 53.66 48.89C53.3 48.89 53.24 48.97 53.24 49.16C53.24 49.35 53.24 49.43 53.71 49.54C54.63 49.77 54.71 49.89 54.71 50.54C54.71 51.19 54.47 51.54 53.48 51.54H53.5ZM57.28 51.48V49.27C57.28 49.1 57.21 49.02 57.02 49.02C56.7185 49.0534 56.4265 49.1451 56.16 49.29V51.48H55.34V47L56.16 47.12V48.52C56.5341 48.3343 56.9428 48.2287 57.36 48.21C57.91 48.21 58.1 48.58 58.1 49.14V51.43L57.28 51.48ZM58.8 47.87V47.1H59.62V47.87H58.8ZM58.8 51.48V48.31H59.62V51.47L58.8 51.48ZM60.28 48.34C60.28 47.55 60.76 47.09 61.88 47.09C62.2907 47.0892 62.7001 47.1362 63.1 47.23L63.01 47.94C62.6469 47.874 62.279 47.8372 61.91 47.83C61.32 47.83 61.13 48.02 61.13 48.49V50.15C61.13 50.61 61.32 50.81 61.91 50.81C62.279 50.8028 62.6469 50.766 63.01 50.7L63.1 51.41C62.7001 51.5038 62.2907 51.5508 61.88 51.55C60.76 51.55 60.28 51.09 60.28 50.3V48.34ZM64.93 51.54C63.8 51.54 63.5 50.94 63.5 50.29V49.49C63.5 48.84 63.8 48.24 64.93 48.24C66.06 48.24 66.36 48.84 66.36 49.49V50.29C66.34 50.94 66 51.54 64.91 51.54H64.93ZM64.93 48.92C64.49 48.92 64.32 49.11 64.32 49.47V50.32C64.32 50.68 64.49 50.87 64.93 50.87C65.37 50.87 65.54 50.68 65.54 50.32V49.47C65.51 49.11 65.34 48.92 64.91 48.92H64.93ZM68.69 48.97C68.3889 49.1013 68.098 49.255 67.82 49.43V51.43H67V48.31H67.7L67.75 48.66C68.0207 48.4831 68.3131 48.3419 68.62 48.24L68.69 48.97ZM72 50.42C72.0187 50.5689 72.0037 50.7202 71.956 50.8625C71.9083 51.0049 71.8292 51.1347 71.7245 51.2422C71.6198 51.3498 71.4922 51.4325 71.3512 51.484C71.2102 51.5355 71.0594 51.5547 70.91 51.54C70.6145 51.5376 70.3199 51.5074 70.03 51.45V52.74L69.21 52.86V48.31H69.87L69.95 48.58C70.2424 48.3717 70.591 48.2566 70.95 48.25C71.61 48.25 71.95 48.63 71.95 49.35L72 50.42ZM70 50.78C70.2402 50.8302 70.4847 50.857 70.73 50.86C71.03 50.86 71.14 50.72 71.14 50.44V49.32C71.14 49.06 71.04 48.92 70.73 48.92C70.4574 48.929 70.1961 49.0314 69.99 49.21L70 50.78ZM57.56 55H61.12L55.71 73.1H50.66L45.25 55H48.81L53.18 70.08L57.56 55ZM71 73.1H68.29L68.05 72.2C66.8773 72.9624 65.5088 73.3688 64.11 73.37C61.69 73.37 60.66 71.71 60.66 69.43C60.66 66.74 61.83 65.71 64.52 65.71H67.7V64.32C67.7 62.85 67.29 62.32 65.17 62.32C63.936 62.3339 62.7066 62.4712 61.5 62.73L61.09 60.2C62.5686 59.7892 64.0954 59.5774 65.63 59.57C69.79 59.57 71.01 61.04 71.01 64.35L71 73.1ZM67.68 68.1H65.25C64.16 68.1 63.86 68.4 63.86 69.4C63.86 70.4 64.16 70.73 65.19 70.73C66.0672 70.717 66.9271 70.4832 67.69 70.05L67.68 68.1ZM77.34 69.54C77.1322 69.6394 76.9518 69.7878 76.8141 69.9725C76.6765 70.1571 76.5858 70.3725 76.55 70.6C76.55 70.95 76.77 71.12 77.28 71.17L81.11 71.58C83.26 71.82 83.94 72.88 83.94 74.79C83.94 77.62 82.94 78.73 77.94 78.73C76.2217 78.7143 74.5132 78.4687 72.86 78L73.27 75.53C74.7277 75.9018 76.2256 76.0932 77.73 76.1C80.37 76.1 80.88 75.91 80.88 75.04C80.88 74.17 80.64 74.04 79.63 73.98L75.8 73.55C73.93 73.33 73.19 72.71 73.19 71.02C73.2168 70.5577 73.3577 70.1093 73.6003 69.7149C73.8429 69.3205 74.1795 68.9924 74.58 68.76C73.9845 68.3871 73.5027 67.8581 73.1871 67.2303C72.8715 66.6026 72.7341 65.9004 72.79 65.2V64C72.84 61.26 74.28 59.6 78.12 59.6C78.8817 59.594 79.6411 59.6847 80.38 59.87H84.46V61.53L83 61.93C83.3042 62.5765 83.4516 63.2858 83.43 64V65.25C83.43 67.94 81.8 69.57 78.1 69.57C77.8463 69.574 77.5926 69.564 77.34 69.54ZM78.1 62.26C76.47 62.26 75.9 62.86 75.9 64.11V65.11C75.9 66.41 76.55 66.9 78.1 66.9C79.65 66.9 80.33 66.38 80.33 65.11V64.11C80.33 62.86 79.76 62.26 78.1 62.26ZM92.75 62.64C91.5321 63.1921 90.3586 63.8374 89.24 64.57V73.1H85.93V59.87H88.73L88.95 61.34C90.0285 60.6097 91.1986 60.0247 92.43 59.6L92.75 62.64ZM103.84 73.1H101.12L100.88 72.2C99.7073 72.9624 98.3388 73.3688 96.94 73.37C94.52 73.37 93.49 71.71 93.49 69.43C93.49 66.74 94.66 65.71 97.35 65.71H100.53V64.32C100.53 62.85 100.12 62.32 98 62.32C96.766 62.3339 95.5366 62.4712 94.33 62.73L93.92 60.2C95.3986 59.7892 96.9254 59.5774 98.46 59.57C102.62 59.57 103.84 61.04 103.84 64.35V73.1ZM100.52 68.1H98.08C96.99 68.1 96.69 68.4 96.69 69.4C96.69 70.4 97 70.74 98 70.74C98.8772 70.727 99.7371 70.4932 100.5 70.06L100.52 68.1ZM113.7 73.1V63.86C113.7 63.15 113.4 62.8 112.64 62.8C111.427 62.936 110.254 63.3134 109.19 63.91V73.1H105.87V59.87H108.4L108.73 60.98C110.372 60.1599 112.167 59.69 114 59.6C116.2 59.6 117 61.15 117 63.51V73.1H113.7ZM126.77 72.86C125.834 73.1892 124.852 73.3648 123.86 73.38C121.44 73.38 120.22 72.24 120.22 69.87V62.5H118.22V59.87H120.22V56.58L123.54 56.12V59.87H126.94L126.72 62.51H123.54V69.44C123.508 69.6033 123.517 69.7721 123.566 69.931C123.615 70.09 123.704 70.2341 123.823 70.3503C123.942 70.4665 124.088 70.5511 124.248 70.5965C124.409 70.6418 124.578 70.6465 124.74 70.61C125.303 70.5936 125.861 70.5029 126.4 70.34L126.77 72.86Z" fill="black"/>
<path d="M33.8898 52.75V49.65L26.4298 53.99V56.61L20.4598 69.49L17.4798 71.54V80.97L23.8798 77.28L33.8898 52.75ZM17.4798 64.83L12.9998 54.38V51.43L12.9698 51.42L8.52979 53.99V56.61L14.4898 70.05L17.4798 68.58V64.83Z" fill="#1159CC"/>
<path d="M29.4198 47.03L21.9598 51.4H21.9498V54.38L17.4798 64.83V68.32L14.4898 70.05L8.52982 56.61V53.98L13.0098 51.41L5.53982 47.03L1.06982 49.65V52.85L11.1398 77.31L17.4798 80.97V71.78L20.4598 70.05L20.4298 70.03L26.4298 56.61V53.98L33.8898 49.65L29.4198 47.03Z" fill="#127EFF"/>
</svg>
