<svg width="128" height="128" viewBox="0 0 128 128" fill="none" xmlns="http://www.w3.org/2000/svg">
<path d="M122.5 23.9V12.82L95.9098 28.3V37.64L74.6298 83.54L63.9898 90.87V124.48L86.7998 111.33L122.5 23.9ZM63.9898 66.94L48.0398 29.71V19.19L47.9298 19.13L32.0898 28.3V37.64L53.3598 85.55L63.9898 80.3V66.94Z" fill="#1159CC"/>
<path d="M106.55 3.52002L79.97 19.09L79.95 19.08V29.71L63.99 66.94V79.39L53.36 85.55L32.09 37.64V28.28L48.05 19.09L21.45 3.52002L5.5 12.82V24.24L41.4 111.44L63.99 124.48V91.72L74.63 85.55L74.5 85.47L95.91 37.64V28.28L122.5 12.82L106.55 3.52002Z" fill="#127EFF"/>
</svg>
