<svg width="128" height="128" viewBox="0 0 128 128" fill="none" xmlns="http://www.w3.org/2000/svg">
<path d="M64.4608 7.13599L8.52881 63.173L64.3078 119.071L120.393 63.034L64.4608 7.13599Z" fill="#019833"/>
<path d="M64.308 119.211L8.37598 63.174L8.52898 63.035L64.614 6.85797L120.546 62.895L120.393 63.034L64.308 119.211ZM8.68198 63.174L64.308 118.933L120.24 63.035L64.614 7.27597L8.68198 63.174Z" fill="black"/>
<path d="M64.3078 7.275V2.396L3.31885 63.452H8.52885L64.3078 7.275Z" fill="#66FE98"/>
<path d="M8.52921 63.452H3.01221L3.16521 63.313L64.3072 2.11798V7.27598L8.52821 63.453L8.52921 63.452ZM3.62521 63.313H8.37521L64.1542 7.27598V2.67598L3.62521 63.314V63.313Z" fill="black"/>
<path d="M64.1538 7.275V2.396L125.143 63.452H119.933L64.1538 7.275Z" fill="#45FE02"/>
<path d="M125.297 63.452H119.78L64.001 7.41502V2.25702L64.154 2.39602L125.296 63.452H125.297ZM119.934 63.313H124.684L64.308 2.67502V7.27502L119.934 63.312V63.313Z" fill="black"/>
<path d="M64.3078 119.35V124.229L3.31885 63.313H8.52885L64.3078 119.35Z" fill="#017D17"/>
<path d="M64.3082 124.508L64.1552 124.369L3.01318 63.174H8.53018L64.3092 119.351V124.509L64.3082 124.508ZM3.62518 63.313L64.1542 123.951V119.351L8.37518 63.314H3.62518V63.313Z" fill="black"/>
<path d="M33.5072 112.659H21.7082L17.1112 110.01V22.608H13.4332L10.3682 19.541V9.92299L13.5862 6.43799H54.8072L58.4852 10.202V19.263L55.4202 23.027H52.3552V52.022L81.6242 23.027H79.9382L76.5672 19.403V9.78499L79.9382 6.71799H121.466L124.684 10.064V19.125L33.5072 112.66V112.659ZM22.9342 108.198H31.6692L120.394 17.172V11.736L119.781 11.039H81.6252L81.0122 11.597V17.452L81.9312 18.428H92.5042L47.9122 62.477V18.428H53.4292L54.1952 17.592V12.016L53.1222 10.901H15.5782L14.8122 11.737V17.731L15.2722 18.289H21.7082V107.363L22.9342 108.199V108.198Z" fill="black"/>
<path d="M64.1538 119.35V124.229L125.143 63.173H119.933L64.1538 119.35Z" fill="#005D04"/>
<path d="M64.001 124.508V119.35L119.78 63.173H125.297L125.144 63.312L64.002 124.507L64.001 124.508ZM64.307 119.35V123.95L124.836 63.312H120.086L64.307 119.349V119.35Z" fill="black"/>
<path d="M63.8479 125.065L1.93994 63.173L64.0019 1.00201L125.91 62.894L63.8479 125.065ZM3.93194 63.173L63.8479 123.253L124.071 63.034L64.1549 2.95401L3.93194 63.173Z" fill="black"/>
<path d="M54.347 12.294L56.492 11.179L54.193 8.94897H14.657L12.665 10.901V18.568L14.964 20.798L16.037 18.568L14.658 17.174V11.738L15.731 10.762H53.581L54.347 12.295V12.294Z" fill="#FEFEFE"/>
<path d="M14.9652 20.936L12.5132 18.566V10.899L14.6582 8.80798H54.3472L56.7992 11.178L54.3472 12.433L53.4282 10.9H15.5782L14.6592 11.736V17.033L16.0382 18.427L14.9652 20.936ZM12.8202 18.427L14.9652 20.518L15.8842 18.566L14.5052 17.172V11.736L15.5782 10.76H53.4282L54.3472 12.293L56.3392 11.178L54.1942 9.08698H14.6582L12.6662 11.039V18.427H12.8202Z" fill="black"/>
<path d="M30.7482 108.895H23.2392L22.0132 107.64V18.566H15.5772L14.1982 17.311V11.875L15.4242 10.62H52.9682L54.3472 11.735V17.032L52.8152 18.565H45.7662V66.517L88.3662 23.304V18.565H81.9302L80.7042 17.31V12.013L82.2362 10.48H119.167L120.699 12.013V16.195L30.7482 108.894V108.895ZM23.3932 108.756H30.7482L120.393 16.057V12.014L119.014 10.62H82.3902L81.0112 12.014V17.032L82.2372 18.147H88.8262V23.305L45.7662 67.076V18.287H52.9682L54.3472 16.893V11.735L53.1212 10.759H15.5772L14.3512 11.874V17.032L15.5772 18.147H22.1662V107.361L23.3922 108.755L23.3932 108.756Z" fill="black"/>
<path d="M22.0138 18.288V107.502L23.2398 108.757L22.3208 110.43L19.7158 107.921V20.659L22.0148 18.289L22.0138 18.288Z" fill="#FEFEFE"/>
<path d="M22.32 110.847L19.562 108.198V20.657L22.167 18.148V107.641L23.393 109.035L22.32 110.847ZM19.868 108.059L22.32 110.429L23.086 108.896L22.013 107.641V18.567L19.868 20.658V108.06V108.059Z" fill="black"/>
<path d="M15.7312 18.288L15.1182 20.379H19.8682L22.4732 18.288H15.7302H15.7312Z" fill="#808080"/>
<path d="M19.8679 20.657H14.9639L15.7299 18.287H22.9319L19.8669 20.657H19.8679ZM15.1179 20.378H19.7149L22.0139 18.426H15.5779L15.1179 20.378Z" fill="black"/>
<path d="M81.4701 20.797L82.5431 18.567L81.0111 17.173V12.434L82.6971 10.622H119.168L120.547 12.434L122.539 11.04L120.547 8.94897H81.3181L79.3261 10.901V18.568L81.4711 20.798M49.5971 57.459L45.7661 66.659L88.8261 23.446V18.288L49.5971 57.458V57.459Z" fill="#FEFEFE"/>
<path d="M45.9191 66.937L45.7661 66.798L49.5971 57.458L88.9791 18.148V23.584L45.9191 66.936V66.937ZM49.7501 57.597L46.2261 66.379L88.8261 23.584V18.705L49.7501 57.597ZM81.4701 20.796L81.3171 20.657L79.3251 18.705V10.899L81.3171 8.80798H120.699L122.844 11.178L120.699 12.711L119.32 10.759H82.6961L81.0101 12.432V17.171L82.5421 18.565L81.4691 20.795L81.4701 20.796ZM79.4781 18.705L81.4701 20.517L82.3891 18.565L80.8571 17.171V12.292L82.6961 10.48H119.32L120.699 12.292L122.538 11.037L120.546 9.08498H81.3171L79.4781 11.037V18.704V18.705Z" fill="black"/>
<path d="M54.1941 12.015L56.0331 10.76V18.287L53.8881 20.517H49.5971V57.597L45.7661 66.797V18.287H52.8151L54.1941 17.172V12.014V12.015Z" fill="#808080"/>
<path d="M45.9191 66.798H45.7661V18.288H52.9681L54.1941 17.312V12.154L56.3391 10.76V18.566L54.0401 20.796H49.9031V57.736L45.9191 66.797V66.798ZM45.9191 18.427V66.24L49.5971 57.597V20.378H53.8881L56.0331 18.287V11.038L54.3471 12.153V17.311L52.9681 18.426H45.9191V18.427Z" fill="black"/>
<path d="M82.3901 10.621L81.0111 12.015V17.173L82.2371 18.428H88.673V23.446L45.766 66.798V18.427H52.815L54.347 17.033V11.875L52.968 10.899H15.5781L14.3521 12.154V17.451L15.5781 18.706H22.1671V107.78L23.3931 109.035H30.7481L120.546 16.336V12.293L119.167 10.899H82.3901V10.621Z" fill="#CCCCCC"/>
<path d="M30.7482 108.895H23.2392L22.0132 107.64V18.566H15.5772L14.1982 17.311V11.875L15.4242 10.62H52.9682L54.3472 11.735V17.032L52.8152 18.565H45.7662V66.517L88.3662 23.304V18.565H81.9302L80.7042 17.31V12.013L82.2362 10.48H119.167L120.699 12.013V16.195L30.7482 108.894V108.895ZM23.3932 108.756H30.7482L120.393 16.057V12.014L119.014 10.62H82.3902L81.0112 12.014V17.032L82.2372 18.147H88.8262V23.305L45.7662 67.076V18.287H52.9682L54.3472 16.893V11.735L53.1212 10.759H15.5772L14.3512 11.874V17.032L15.5772 18.147H22.1662V107.361L23.3922 108.755L23.3932 108.756Z" fill="black"/>
<path d="M120.7 12.154L122.692 11.039V18.148L32.281 110.707H22.627L23.546 108.895H30.901L120.546 16.196L120.699 12.153L120.7 12.154Z" fill="#808080"/>
<path d="M32.2811 110.847H22.4741L23.5471 108.756H30.9021L120.393 16.197L120.546 12.154L122.691 10.899V18.426L32.2801 110.846L32.2811 110.847ZM22.7801 110.568H32.1281L122.539 18.148V11.178L120.7 12.154L120.547 16.197L30.9021 109.035H23.5471L22.7811 110.568H22.7801Z" fill="black"/>
<path d="M88.6732 18.427L86.6812 20.518H81.4712L82.6972 18.427H88.6732Z" fill="#808080"/>
<path d="M86.6811 20.657H81.1641L82.5431 18.287H88.9791L86.6801 20.657H86.6811ZM81.6241 20.518H86.6811L88.5201 18.566H82.8501L81.6241 20.518Z" fill="black"/>
<path d="M67.2187 70.561C67.2187 70.561 67.0657 70.561 67.0657 70.7L65.3797 72.233L65.2267 72.372L63.5407 77.251C63.5407 77.39 63.5407 77.53 63.6937 77.669L65.0727 79.063C65.2257 79.202 65.2257 79.202 65.3787 79.202H70.7417C70.8947 79.202 70.8947 79.202 71.0477 79.063L72.4267 77.669L72.5797 77.53L74.1117 72.372C74.1117 72.233 74.1117 72.093 73.9587 71.954L72.7327 70.839C72.5797 70.7 72.5797 70.7 72.4267 70.7H67.2167V70.561H67.2187ZM57.2577 84.361C57.1047 84.361 56.9517 84.5 56.9517 84.64L56.3387 87.289C56.3387 87.568 56.4917 87.707 56.6447 87.847H60.0157L52.2007 110.15C52.2007 110.429 52.2007 110.568 52.5067 110.708H63.9997C64.1527 110.708 64.3057 110.569 64.4597 110.429L65.2257 108.059C65.2257 107.78 65.2257 107.641 64.9197 107.501H62.1617L69.9767 84.919C69.9767 84.64 69.9767 84.501 69.6707 84.361H57.2587H57.2577ZM93.5757 84.5C93.4227 84.5 93.4227 84.5 93.4227 84.639L91.1237 87.288H87.2927L84.8407 84.639C84.8407 84.5 84.6877 84.5 84.5347 84.5H75.3407C75.1877 84.5 75.0347 84.639 75.0347 84.779L74.2687 87.288C74.2687 87.567 74.2687 87.706 74.5747 87.846H77.1797L69.6707 110.01C69.6707 110.289 69.6707 110.428 69.9767 110.568H79.7837C79.9367 110.568 80.0897 110.429 80.0897 110.289L80.8557 108.198C80.8557 107.919 80.8557 107.78 80.5497 107.64H78.7107L83.4607 92.585H92.0417L86.5247 110.149C86.5247 110.428 86.5247 110.567 86.8307 110.707H96.1777C96.3307 110.707 96.4837 110.568 96.4837 110.428L97.2497 108.476C97.4027 108.337 97.2497 108.058 97.0967 107.918H95.2577L100.162 92.584H108.437L102.92 110.148C102.92 110.427 102.92 110.566 103.226 110.706H113.493C113.646 110.706 113.799 110.567 113.799 110.427L114.565 108.336C114.565 108.057 114.565 107.918 114.259 107.778H112.114L118.244 87.844V87.426L116.405 84.917C116.252 84.778 116.252 84.778 116.099 84.778H108.897C108.744 84.778 108.744 84.778 108.591 84.917L106.292 87.426H102.308L100.009 84.777C99.8557 84.638 99.8557 84.638 99.7027 84.638H93.5727V84.499L93.5757 84.5Z" fill="#CCCCCC"/>
<path d="M63.8479 111.683H52.5079C52.3549 111.683 52.2019 111.683 52.0479 111.544C51.2819 111.265 50.9749 110.568 51.1289 109.871L58.4839 88.822H56.3389C55.5729 88.683 55.1129 87.846 55.4199 87.149L56.0329 84.5C56.1859 83.942 56.4929 83.664 57.1059 83.524H69.3649C69.5179 83.524 69.6709 83.524 69.8249 83.663C70.5909 83.942 70.8979 84.639 70.7439 85.336L63.3889 106.664H65.0749C65.8409 106.943 66.1479 107.64 65.9939 108.337L65.2279 110.707C64.9219 111.265 64.4619 111.683 63.8489 111.683H63.8479ZM59.8639 86.87H61.2429L53.2749 109.731H63.5419L64.0019 108.476H60.7839L68.7519 85.336H58.0249L57.5649 86.869H59.8639V86.87ZM113.344 111.404H102.77C102.004 111.125 101.697 110.428 101.851 109.731L107.061 93.422H100.778L96.4869 106.804H96.7929C96.9459 106.804 97.0989 106.804 97.2529 106.943C98.0189 107.222 98.3259 108.058 98.0189 108.755L97.2529 110.707C97.0999 111.265 96.4869 111.543 96.0269 111.543H86.3729C85.6069 111.264 85.2999 110.567 85.4539 109.87L90.6639 93.421H83.9209L79.7839 106.524H80.0899C80.2429 106.524 80.3959 106.524 80.5499 106.663C81.3159 106.942 81.6229 107.639 81.4689 108.336L80.7029 110.566C80.5499 111.124 79.9369 111.402 79.4769 111.542H69.8229C69.6699 111.542 69.5169 111.542 69.3629 111.403C68.5969 111.124 68.2899 110.427 68.4439 109.73L75.4929 88.82H74.4199C74.2669 88.82 74.1139 88.82 73.9599 88.681C73.1939 88.402 72.8869 87.705 73.0409 87.008L73.8069 84.499C73.9599 83.941 74.5729 83.523 75.0329 83.523H84.0739C84.3799 83.523 84.8399 83.662 84.9929 83.941L87.2919 86.311H90.2039L92.3489 83.941C92.5019 83.662 92.8089 83.523 93.1149 83.523H99.2439C99.5499 83.523 100.01 83.662 100.163 83.941L102.308 86.171H105.526L107.518 83.941C107.824 83.662 108.131 83.523 108.437 83.523H115.639C116.099 83.523 116.405 83.662 116.712 84.081L118.551 86.59C118.857 86.869 118.857 87.426 118.704 87.845L113.034 106.524H113.8C113.953 106.524 114.106 106.524 114.26 106.663C115.026 106.942 115.333 107.639 115.026 108.336L114.26 110.566C114.413 110.984 113.954 111.402 113.341 111.402L113.344 111.404ZM77.0259 86.87H78.4049L70.7429 109.452H79.1709L79.4769 108.337H77.3319L82.6949 91.331H93.2679L87.5979 109.453H95.7199L96.0259 108.617H93.8809L99.3979 91.471H109.665L103.995 109.593H113.036L113.496 108.478H111.044L117.48 87.568L115.948 85.477H109.205L106.753 88.126H101.849L99.3969 85.338H94.0339L91.5819 88.126H86.9849L84.3799 85.338H75.9519L75.4919 86.732H77.0239L77.0259 86.87ZM70.4369 80.04H65.0739C64.7679 80.04 64.3079 79.901 64.1549 79.622L62.7759 78.228C62.4699 77.81 62.3159 77.252 62.4699 76.834L64.1559 71.955C64.1559 71.676 64.3089 71.537 64.4619 71.397L66.1479 69.864C66.3009 69.725 66.4539 69.585 66.7609 69.585H71.9709C72.2769 69.585 72.5839 69.724 72.8899 70.003L74.1159 71.118C74.4219 71.397 74.5759 71.954 74.4219 72.512L72.8899 77.67C72.8899 77.949 72.7369 78.088 72.5839 78.228L71.2049 79.622C71.2049 79.901 70.7449 80.04 70.4389 80.04H70.4369ZM64.4609 77.252L65.3799 78.228H70.2839L71.3569 77.113L72.7359 72.374L71.9699 71.677H67.3729L65.8409 72.932L64.4619 77.253L64.4609 77.252Z" fill="black"/>
<path d="M67.2188 70.98L65.5328 72.513L63.8468 77.392L65.2258 78.786H70.5888L71.9678 77.392L73.4998 72.234L72.2738 71.119H67.2168L67.2188 70.98ZM57.4118 84.78L56.7988 87.429H60.4768L52.5088 110.29H63.8488L64.6148 107.92H61.5498L69.5178 84.78H57.4118ZM93.5758 84.78L91.1238 87.568H86.9868L84.3818 84.78H75.3408L74.5748 87.289H77.4868L69.8248 109.871H79.4788L80.2448 107.78H77.9458L83.0028 92.028H92.5038L86.8338 110.01H96.0278L96.7938 108.058H94.4948L99.5518 91.888H108.593L102.923 110.01H113.037L113.803 107.919H111.198L117.481 87.567L115.642 85.058H108.44L105.988 87.707H101.544L99.0918 84.919H93.5748L93.5758 84.78Z" fill="#CCCCCC"/>
<path d="M64.001 110.429H52.355L60.323 87.568H56.645L57.411 84.641H69.67L61.548 107.781H64.613L64 110.43L64.001 110.429ZM52.661 110.15H63.847L64.46 107.92H61.395L69.21 84.92H57.564L56.951 87.29H60.629L52.661 110.151V110.15ZM113.497 110.15H103.077L108.747 92.028H99.859L94.802 107.919H97.101L96.182 110.149H86.681L92.351 92.167H83.157L78.253 107.779H80.552L79.786 110.149H69.979L77.641 87.567H74.729L75.648 84.918H84.842L87.447 87.706H91.431L93.883 84.918H99.859L102.311 87.706H106.602L109.054 85.057H116.409L118.401 87.706L112.118 107.919H114.723L113.497 110.149V110.15ZM103.383 109.871H113.344L114.11 107.919H111.505L117.788 87.428L115.949 84.919H108.747L106.295 87.568H101.851L99.399 84.78H93.729L91.277 87.568H86.986L84.381 84.78H75.493L74.727 87.01H77.639L69.977 109.592H79.325L79.938 107.64H77.639L82.696 91.609H92.503L86.833 109.591H95.874L96.64 107.779H94.495L99.705 91.47H109.053L103.383 109.87V109.871ZM70.437 78.786H64.92L63.541 77.392L65.38 72.374L67.219 70.841H72.276L73.502 72.096L71.97 77.254L70.438 78.787L70.437 78.786ZM65.074 78.647H70.284L71.663 77.253L73.195 72.235L72.122 71.12H67.218L65.532 72.514L63.846 77.253L65.072 78.647H65.074Z" fill="black"/>
</svg>
