<svg width="128" height="128" viewBox="0 0 128 128" fill="none" xmlns="http://www.w3.org/2000/svg">
<path d="M72.6 80.5C72.8 80.7 73.2 81 73.5 81H78.8C79.1 81 79.5 80.7 79.7 80.5L81.1 79C81.3 78.8 81.4 78.6 81.4 78.4L82.9 73.3C83 72.8 82.9 72.3 82.6 72L81.5 71.1C81.3 70.9 80.9 71 80.6 71H75.8L75.6 70.8L75.5 70.7C75.3 70.7 75.1 70.6 74.9 70.8L73 72C72.8 72 72.7 72.5 72.6 72.7L71 77.6C70.8 78.1 70.9 78.7 71.3 79.1L72.6 80.5ZM73.4 106.9L73 107H71.8L79 85.9C79.2 85.2 78.9 84.4 78.2 84.2L77.8 84.1H65.7C65.2 84.2 64.8 84.6 64.7 85.1L64 87.6C63.8 88.3 64.3 88.9 65 89.1L65.3 89H67.1L59.8 109.9C59.6 110.6 59.9 111.5 60.6 111.8L61 112.1H72.2C72.8 112.1 73.3 111.6 73.5 111L74.2 108.6C74.5 107.9 74.1 107.1 73.4 106.9ZM126.5 87.2L124.6 84.7V84.6C124.3 84.3 124 84 123.6 84H116.4C116 84 115.7 84.4 115.4 84.6L113.4 87H110.3L108.2 84.6V84.5C108 84.2 107.6 84 107.2 84H103.2L123.4 63.8L100.8 41.4L121 20.6V11.6L118.2 8H77.3L74 11.5V14.4L62.7 3L55 10.5L52.6 8H12.2L9 11.7V21.1L12 24H15V50.1L1 64.1L15 78.1V110.1L20.2 113H31.8L40.9 103.5L62.5 125.1L77 110.6C77.1 111 77.4 111.1 77.9 111.3L78.3 111.1H87.7C88.3 111.1 88.8 111 88.9 110.5L89.6 108.5C89.8 107.8 89.5 107.2 88.8 107L88.4 107.1H88L91.4 96.4L93.7 94.1H98.7L93.7 110C93.5 110.7 93.9 111.1 94.6 111.4L95 111.2H104.1C104.6 111.2 105.1 111.1 105.3 110.6L106.1 108.8C106.4 108.1 106 107.5 105.4 107.2C105.3 107.1 105.1 107.2 104.9 107.2H104.5L108.7 94.2H114.8L109.7 110.1C109.5 110.8 109.9 111.2 110.6 111.4L111 111.1H121C121.5 111.1 122 111 122.2 110.5L123 108.5C123.3 107.8 122.9 107.2 122.2 107C122.1 106.9 121.9 107.1 121.7 107.1H121L126.6 88.6C126.8 88.1 126.7 87.5 126.5 87.2ZM62.7 4.9L74 16.2V20.9L77.4 25H79L50 53V25H53.3L56 20.8V11.9L55.8 11.6L62.7 4.9ZM2.9 64.1L15 52V76.2L2.9 64.1ZM41.8 102.4L100.2 42.4L121.6 63.9L101.4 84.1H101.3C101 84.2 100.8 84.4 100.6 84.6L98.5 87H95.6L93.4 84.6C93.2 84.3 92.8 84 92.4 84H83.6C83 84 82.5 84.4 82.3 85L81.5 87.5C81.3 88.2 81.6 88.8 82.3 89.1H83.8L77.4 108L62.3 123.2L41.8 102.4Z" fill="#179A33"/>
</svg>
