<svg width="128" height="128" viewBox="0 0 128 128" fill="none" xmlns="http://www.w3.org/2000/svg">
<path d="M17.6 53.27L22.91 55.41V72.59L17.55 74.73L8.99998 66.26L3.59998 70.45L1.47998 69.38V58.62L3.61998 57.62L8.99998 61.83L17.6 53.27ZM3.59998 60.82V67.34L6.83998 64L3.59998 60.82ZM12 64L17.55 68.38V59.64L12 64Z" fill="#68217A"/>
<path d="M40.5301 57.52L35.7401 70.46H34.0701L29.3701 57.52H31.0601L34.6401 67.78C34.7635 68.1541 34.8506 68.5392 34.9001 68.93C34.9583 68.5337 35.0589 68.1449 35.2001 67.77L38.9001 57.52H40.5301ZM42.4001 58.87C42.2745 58.8728 42.1496 58.8503 42.0328 58.8039C41.916 58.7575 41.8097 58.6882 41.7201 58.6C41.6274 58.5113 41.5546 58.4039 41.5063 58.285C41.4581 58.1661 41.4355 58.0383 41.4401 57.91C41.4329 57.7768 41.4538 57.6436 41.5015 57.519C41.5492 57.3944 41.6226 57.2812 41.717 57.1869C41.8113 57.0926 41.9245 57.0191 42.0491 56.9714C42.1737 56.9237 42.3069 56.9028 42.4401 56.91C42.6976 56.9111 42.9447 57.0113 43.1301 57.19C43.3045 57.3755 43.4016 57.6205 43.4016 57.875C43.4016 58.1296 43.3045 58.3746 43.1301 58.56C43.036 58.6588 42.9227 58.7372 42.7972 58.7905C42.6716 58.8438 42.5365 58.8709 42.4001 58.87ZM43.1201 70.46H41.6401V61.22H43.1201V70.46ZM45.0001 70.13V68.54C45.7652 69.1203 46.6999 69.433 47.6601 69.43C48.9935 69.43 49.6601 68.9967 49.6601 68.13C49.6672 67.9078 49.6081 67.6885 49.4901 67.5C49.3644 67.3002 49.1973 67.1297 49.0001 67C48.7909 66.8555 48.5661 66.7347 48.3301 66.64L47.5001 66.31C47.1312 66.167 46.7707 66.0034 46.4201 65.82C46.134 65.6728 45.8711 65.4841 45.6401 65.26C45.4362 65.0583 45.2761 64.8166 45.1701 64.55C45.0585 64.2529 45.0042 63.9374 45.0101 63.62C45.0032 63.2165 45.107 62.8188 45.3101 62.47C45.5086 62.1354 45.7783 61.8486 46.1001 61.63C46.4457 61.3982 46.8276 61.2258 47.2301 61.12C47.6661 61.0207 48.1134 60.9804 48.5601 61C49.2975 60.9859 50.0297 61.1255 50.7101 61.41V62.91C50.011 62.4576 49.1927 62.2243 48.3601 62.24C48.1072 62.2351 47.8547 62.2654 47.6101 62.33C47.4059 62.3864 47.2131 62.4777 47.0401 62.6C46.8875 62.7071 46.7611 62.8473 46.6701 63.01C46.5825 63.1728 46.5378 63.3552 46.5401 63.54C46.5321 63.751 46.5767 63.9607 46.6701 64.15C46.7642 64.3191 46.8939 64.4658 47.0501 64.58C47.2395 64.7167 47.4442 64.8308 47.6601 64.92L48.4801 65.25C48.855 65.3905 49.2222 65.5507 49.5801 65.73C49.8802 65.8794 50.1593 66.0677 50.4101 66.29C50.634 66.4914 50.8143 66.7364 50.9401 67.01C51.0736 67.3259 51.1351 67.6675 51.1201 68.01C51.1313 68.4267 51.0275 68.8384 50.8201 69.2C50.6099 69.5246 50.3297 69.7979 50.0001 70C49.645 70.232 49.2526 70.4011 48.8401 70.5C48.3883 70.6088 47.9249 70.6626 47.4601 70.66C46.6092 70.6866 45.7646 70.5047 45.0001 70.13ZM60.3301 70.46H58.8401V69C58.5828 69.527 58.1766 69.967 57.6718 70.2656C57.1671 70.5641 56.5859 70.7082 56.0001 70.68C53.8001 70.68 52.7001 69.3667 52.7001 66.74V61.22H54.1701V66.51C54.1701 68.4567 54.9168 69.43 56.4101 69.43C56.7476 69.4374 57.0825 69.3695 57.3905 69.2311C57.6984 69.0927 57.9716 68.8873 58.1901 68.63C58.675 68.0445 58.9245 67.2995 58.8901 66.54V61.22H60.3701L60.3301 70.46ZM69.3801 70.46H67.9001V69C67.6286 69.5285 67.2109 69.9679 66.6967 70.2657C66.1826 70.5636 65.5937 70.7074 65.0001 70.68C64.2121 70.7304 63.436 70.4681 62.8401 69.95C62.5799 69.6989 62.3764 69.3949 62.2436 69.0585C62.1108 68.7222 62.0516 68.3612 62.0701 68C62.0701 66.2734 63.0868 65.2734 65.1201 65L67.8901 64.61C67.8901 63.0367 67.2568 62.25 65.9901 62.25C64.8848 62.253 63.8185 62.6583 62.9901 63.39V61.87C63.9274 61.2836 65.0146 60.9814 66.1201 61C68.2934 61 69.3801 62.15 69.3801 64.45V70.46ZM67.9001 65.78L65.6701 66.09C65.1213 66.1395 64.5911 66.314 64.1201 66.6C63.9322 66.7564 63.7862 66.9572 63.6954 67.1841C63.6046 67.4111 63.5718 67.6572 63.6001 67.9C63.593 68.1066 63.6315 68.3123 63.7127 68.5023C63.7939 68.6924 63.9159 68.8623 64.0701 69C64.4304 69.301 64.8913 69.4546 65.3601 69.43C65.7009 69.4395 66.0398 69.3757 66.3538 69.2429C66.6678 69.11 66.9496 68.9113 67.1801 68.66C67.4264 68.3908 67.6168 68.0754 67.7404 67.7321C67.864 67.3888 67.9183 67.0244 67.9001 66.66V65.78ZM73.0901 70.46H71.6101V56.78H73.0901V70.46Z" fill="#68217A"/>
<path d="M77.7202 69.94V68.15C77.9415 68.344 78.1869 68.5087 78.4502 68.64C78.7395 68.7879 79.0405 68.9117 79.3502 69.01C79.6777 69.1102 80.0119 69.1871 80.3502 69.24C80.6408 69.2911 80.9352 69.3179 81.2302 69.32C81.9645 69.3735 82.6966 69.1913 83.3202 68.8C83.6613 68.5117 83.893 68.1151 83.9767 67.6764C84.0605 67.2378 83.9911 66.7837 83.7802 66.39C83.613 66.1156 83.3959 65.8748 83.1402 65.68C82.8265 65.4461 82.4918 65.2419 82.1402 65.07L80.9402 64.45C80.4869 64.2234 80.0669 63.99 79.6802 63.75C79.3179 63.5295 78.9824 63.2677 78.6802 62.97C78.3962 62.6909 78.1657 62.3622 78.0002 62C77.8152 61.552 77.7318 61.0685 77.756 60.5843C77.7802 60.1002 77.9114 59.6274 78.1402 59.2C78.3891 58.7701 78.7307 58.4012 79.1402 58.12C79.5808 57.8295 80.0678 57.6164 80.5802 57.49C81.1191 57.3505 81.6735 57.28 82.2302 57.28C83.1831 57.22 84.1371 57.3773 85.0202 57.74V59.45C84.1445 58.8911 83.1181 58.6153 82.0802 58.66C81.7443 58.6588 81.4092 58.6923 81.0802 58.76C80.7698 58.8228 80.4722 58.9377 80.2002 59.1C79.9487 59.2514 79.7336 59.4562 79.5702 59.7C79.4033 59.9698 79.3198 60.2829 79.3302 60.6C79.3242 60.8977 79.3893 61.1926 79.5202 61.46C79.6561 61.7156 79.8434 61.9403 80.0702 62.12C80.3438 62.3418 80.6386 62.536 80.9502 62.7L82.1502 63.31C82.6102 63.5367 83.0502 63.7767 83.4702 64.03C83.8643 64.2677 84.23 64.5495 84.5602 64.87C84.8608 65.1598 85.1109 65.4978 85.3002 65.87C85.4917 66.2692 85.5876 66.7074 85.5802 67.15C85.5989 67.7129 85.4714 68.2711 85.2102 68.77C84.9694 69.2058 84.6262 69.5764 84.2102 69.85C83.7604 70.1371 83.2624 70.3404 82.7402 70.45C82.1656 70.5775 81.5788 70.6413 80.9902 70.64C80.7371 70.6533 80.4834 70.6533 80.2302 70.64C79.9302 70.64 79.6202 70.56 79.3102 70.5C79.0092 70.4413 78.712 70.3645 78.4202 70.27C78.1726 70.1933 77.937 70.0822 77.7202 69.94ZM91.3602 70.37C90.9316 70.5804 90.4572 70.6801 89.9802 70.66C88.3602 70.66 87.5502 69.7567 87.5502 67.95V62.48H86.0002V61.22H87.5902V59L89.0002 58.48V61.21H91.3302V62.47H89.0002V67.68C88.9681 68.1452 89.0874 68.6083 89.3402 69C89.467 69.1365 89.6224 69.2431 89.7953 69.3123C89.9682 69.3814 90.1543 69.4114 90.3402 69.4C90.6994 69.4158 91.0529 69.3062 91.3402 69.09L91.3602 70.37ZM100.53 70.46H99.0502V69C98.7922 69.5286 98.3844 69.9697 97.8777 70.2684C97.371 70.5671 96.7876 70.7102 96.2002 70.68C94.0002 70.68 92.9002 69.3667 92.9002 66.74V61.22H94.3702V66.51C94.3702 68.4567 95.1169 69.43 96.6102 69.43C96.9477 69.4374 97.2826 69.3695 97.5906 69.2311C97.8985 69.0927 98.1717 68.8873 98.3902 68.63C98.8751 68.0445 99.1246 67.2995 99.0902 66.54V61.22H100.57V70.46H100.53ZM111.13 70.46H109.65V68.89C109.343 69.4582 108.882 69.9278 108.319 70.2446C107.756 70.5614 107.115 70.7123 106.47 70.68C105.941 70.7013 105.414 70.6005 104.931 70.3855C104.447 70.1704 104.019 69.8469 103.68 69.44C102.956 68.468 102.601 67.2697 102.68 66.06C102.616 64.7374 103.027 63.4354 103.84 62.39C104.204 61.9479 104.662 61.5933 105.182 61.3526C105.701 61.112 106.268 60.9915 106.84 61C107.396 60.9687 107.949 61.0923 108.438 61.3572C108.927 61.6221 109.333 62.0178 109.61 62.5V56.78H111.09L111.13 70.46ZM109.65 66.28V64.92C109.658 64.5702 109.597 64.2221 109.47 63.896C109.343 63.5699 109.153 63.2722 108.91 63.02C108.67 62.7644 108.378 62.5627 108.054 62.4283C107.73 62.2938 107.381 62.2297 107.03 62.24C106.621 62.2242 106.214 62.3068 105.844 62.4808C105.473 62.6548 105.149 62.9152 104.9 63.24C104.34 64.0399 104.065 65.005 104.12 65.98C104.069 66.8802 104.33 67.7705 104.86 68.5C105.098 68.8 105.403 69.0396 105.75 69.1995C106.098 69.3594 106.478 69.4349 106.86 69.42C107.239 69.4309 107.615 69.3566 107.961 69.2025C108.308 69.0485 108.615 68.8187 108.86 68.53C109.392 67.9033 109.674 67.1018 109.65 66.28ZM114.61 58.87C114.485 58.8733 114.359 58.8511 114.243 58.8047C114.126 58.7583 114.019 58.6887 113.93 58.6C113.838 58.5113 113.765 58.4039 113.716 58.285C113.668 58.1661 113.646 58.0383 113.65 57.91C113.65 57.6448 113.756 57.3905 113.943 57.2029C114.131 57.0154 114.385 56.91 114.65 56.91C114.908 56.9111 115.155 57.0113 115.34 57.19C115.515 57.3755 115.612 57.6205 115.612 57.875C115.612 58.1296 115.515 58.3746 115.34 58.56C115.246 58.6588 115.133 58.7372 115.007 58.7905C114.882 58.8438 114.747 58.8709 114.61 58.87ZM115.33 70.46H113.85V61.22H115.33V70.46ZM121.91 70.68C121.304 70.7068 120.699 70.6048 120.136 70.3807C119.572 70.1567 119.062 69.8156 118.64 69.38C117.799 68.4412 117.361 67.2092 117.42 65.95C117.38 65.2894 117.472 64.6275 117.69 64.0027C117.908 63.3779 118.248 62.8025 118.69 62.31C119.142 61.8656 119.681 61.5197 120.273 61.2942C120.865 61.0687 121.497 60.9686 122.13 61C122.728 60.9654 123.327 61.0609 123.885 61.2802C124.442 61.4995 124.946 61.8372 125.36 62.27C126.186 63.254 126.601 64.518 126.52 65.8C126.579 67.0976 126.131 68.3672 125.27 69.34C124.838 69.7898 124.314 70.142 123.735 70.3731C123.156 70.6042 122.533 70.7088 121.91 70.68ZM122.02 62.25C121.592 62.2342 121.166 62.316 120.775 62.4893C120.383 62.6625 120.036 62.9227 119.76 63.25C119.169 64.0139 118.874 64.9658 118.93 65.93C118.878 66.8679 119.177 67.7915 119.77 68.52C120.051 68.8352 120.399 69.084 120.788 69.2483C121.177 69.4126 121.598 69.4883 122.02 69.47C122.435 69.4949 122.85 69.424 123.234 69.2627C123.617 69.1015 123.958 68.8542 124.23 68.54C124.791 67.7787 125.064 66.8434 125 65.9C125.061 64.9476 124.789 64.0036 124.23 63.23C123.962 62.9028 123.62 62.6434 123.232 62.4732C122.845 62.3029 122.423 62.2264 122 62.25H122.02Z" fill="#68217A"/>
</svg>
