<svg width="128" height="129" viewBox="0 0 128 129" fill="none" xmlns="http://www.w3.org/2000/svg">
<path d="M32.1911 97.953C31.816 97.9525 31.4491 98.0624 31.1361 98.269C30.8171 98.48 30.5251 98.844 30.5251 99.31C30.5251 99.372 30.4891 99.51 30.6091 99.75L30.5781 99.674L36.9881 120.471C37.1031 120.861 37.3781 121.159 37.6881 121.331C37.9981 121.503 38.3361 121.566 38.6661 121.566C39.3661 121.566 40.1361 121.232 40.3711 120.478V120.476L46.7751 99.601V99.525C46.7751 99.631 46.8061 99.57 46.8061 99.342C46.8061 98.867 46.5031 98.518 46.1791 98.299C45.855 98.0761 45.4714 97.9556 45.0781 97.953C44.5881 97.953 44.0261 98.25 43.8381 98.816L43.8341 98.822L38.6641 116.076L33.4741 98.853C33.3971 98.545 33.1901 98.288 32.9491 98.144C32.7081 98 32.4451 97.953 32.1911 97.953ZM83.2461 99.025C82.2261 99.025 81.3661 99.807 81.3661 100.785C81.3661 101.763 82.2121 102.572 83.2461 102.572C84.2601 102.572 85.0661 101.748 85.0661 100.785C85.0661 99.822 84.2461 99.025 83.2461 99.025ZM68.2171 105.683C64.7291 105.683 61.8561 108.475 61.8561 111.83V115.268C61.8561 117.147 62.6041 118.758 63.8761 119.869C65.1461 120.981 66.9201 121.596 68.9531 121.596C70.4551 121.596 71.6801 121.259 72.5551 120.803C72.9931 120.574 73.3451 120.318 73.6041 120.039C73.8641 119.759 74.0541 119.454 74.0541 119.072C74.0541 118.722 73.9201 118.418 73.7011 118.145C73.4831 117.872 73.1391 117.621 72.6951 117.621C72.3751 117.621 72.1291 117.756 71.9161 117.887C71.7031 118.017 71.5031 118.162 71.2621 118.301C70.7801 118.578 70.1421 118.848 69.0141 118.848C67.7581 118.848 66.7121 118.49 65.9901 117.888C65.2701 117.288 64.8501 116.453 64.8501 115.359V114.723H71.2851C71.9721 114.723 72.7351 114.723 73.3951 114.303C74.0551 113.881 74.4551 113.043 74.4551 111.77C74.4551 108.24 71.5111 105.684 68.2171 105.684V105.683ZM92.4031 105.683C90.5491 105.683 89.1851 106.283 88.3091 107.185C87.4331 108.087 87.0551 109.261 87.0551 110.357C87.0551 111.755 87.6201 112.757 88.4281 113.398C89.2371 114.041 90.2431 114.364 91.2001 114.652C92.1571 114.941 93.0731 115.197 93.6881 115.576C94.3031 115.956 94.6331 116.365 94.6331 117.23C94.6331 117.695 94.4931 118.065 94.1161 118.367C93.7381 118.67 93.0661 118.908 91.9731 118.908C90.6801 118.908 89.9571 118.589 89.4301 118.264C89.1671 118.101 88.9551 117.932 88.7371 117.781C88.5191 117.63 88.2711 117.467 87.9241 117.467C87.5071 117.467 87.1991 117.724 87.0121 117.99C86.8226 118.251 86.7195 118.565 86.7171 118.887C86.7171 119.292 86.9151 119.648 87.1941 119.957C87.4741 120.266 87.8511 120.541 88.3151 120.781C89.2421 121.261 90.5191 121.596 92.0351 121.596C93.6821 121.596 95.0361 121.194 95.9951 120.414C96.9531 119.634 97.4751 118.475 97.4751 117.139C97.4751 115.629 96.9261 114.544 96.1181 113.826C95.3091 113.109 94.2881 112.739 93.3171 112.441C92.3461 112.144 91.4111 111.912 90.7861 111.586C90.1601 111.26 89.8661 110.959 89.8661 110.266C89.8661 109.891 90.0161 109.419 90.3971 109.046C90.7781 108.675 91.4001 108.373 92.4341 108.373C93.2601 108.373 93.8741 108.563 94.3661 108.763C94.6121 108.864 94.8261 108.969 95.0281 109.057C95.2311 109.144 95.4181 109.23 95.6861 109.23C96.1711 109.23 96.5041 108.91 96.7021 108.613C96.9001 108.316 97.0141 108.023 97.0141 107.687C97.0141 107.267 96.7531 106.969 96.4641 106.747C96.1751 106.525 95.8111 106.345 95.3911 106.191C94.5511 105.883 93.4791 105.684 92.4031 105.684V105.683ZM48.5461 105.869C47.7351 105.869 47.0341 106.378 47.0341 107.135V115.328C47.0341 118.652 49.8601 121.596 53.3641 121.596C56.8101 121.596 59.6941 118.686 59.6941 115.328V107.105C59.6941 106.727 59.4861 106.398 59.2121 106.189C58.9381 105.981 58.5901 105.869 58.2121 105.869C57.8341 105.869 57.4841 105.979 57.2041 106.184C56.9241 106.388 56.7001 106.714 56.7001 107.105V115.328C56.7001 117.07 55.1821 118.756 53.3641 118.756C51.5171 118.756 50.0291 117.04 50.0291 115.328V107.135C50.0291 106.742 49.8141 106.44 49.5491 106.225C49.2841 106.01 48.9341 105.869 48.5461 105.869ZM83.2471 105.869C82.8671 105.869 82.5171 105.967 82.2371 106.178C81.9571 106.388 81.7671 106.736 81.7671 107.105V122.201C81.7671 123.334 81.6871 124.284 81.4381 124.86C81.1901 125.435 80.8961 125.69 80.0581 125.69C79.3171 125.69 78.6981 126.337 78.6981 127.112C78.6981 127.433 78.8021 127.787 79.0651 128.062C79.3281 128.337 79.7371 128.5 80.2101 128.5C81.8041 128.5 83.0241 127.793 83.7501 126.645C84.4781 125.496 84.7601 123.96 84.7601 122.201V107.105C84.7601 106.712 84.5361 106.37 84.2501 106.168C83.9548 105.967 83.6043 105.862 83.2471 105.869ZM68.1861 108.342C70.1771 108.342 71.5221 110.009 71.5221 111.707C71.5221 111.892 71.5021 112.013 71.4821 112.068C71.4641 112.123 71.4661 112.116 71.4381 112.135C71.3831 112.171 71.0751 112.25 70.4871 112.25H64.8501V111.584C64.8501 109.807 66.3351 108.342 68.1861 108.342ZM77.6981 117.712C76.6101 117.712 75.7861 118.612 75.7861 119.654C75.7861 120.654 76.5981 121.566 77.6981 121.566C78.7401 121.566 79.5781 120.682 79.5781 119.654C79.5781 118.587 78.7261 117.713 77.6981 117.713V117.712Z" fill="#35495E"/>
<path d="M31.4038 0.393982L51.1328 0.399982L64.0288 21.807L76.8798 0.402982L96.5918 0.397982L64.1278 56.71L31.4038 0.393982Z" fill="#35495E"/>
<path d="M9.88721 0.54401L31.3872 0.39801L64.1092 56.713L96.5752 0.40101L118.112 0.42401L64.1052 93.108L9.88721 0.54401Z" fill="#41B883"/>
</svg>
