<svg width="128" height="129" viewBox="0 0 128 129" fill="none" xmlns="http://www.w3.org/2000/svg">
<path d="M7.94092 0L51.6099 0.139L64.1349 21.524L76.6599 0.139L120.06 0.001L64.1449 96.465L7.94092 0ZM119.171 0.558L97.8249 0.577L64.1269 58.433L30.4469 0.573L8.76592 0.558L64.1339 95.058L119.171 0.558ZM97.1429 0.551L77.2199 0.698L64.1339 22.626L51.0499 0.698L31.0839 0.552L64.1339 57.031L97.1429 0.551Z" fill="#35495E"/>
<path d="M31.3931 97.211C31.0119 97.2107 30.639 97.3226 30.3211 97.533C29.9961 97.748 29.6981 98.119 29.6981 98.592C29.6981 98.655 29.6631 98.793 29.7841 99.035L29.7521 98.959L36.3251 120.277C36.4411 120.674 36.7191 120.978 37.0341 121.152C37.3481 121.326 37.6941 121.392 38.0301 121.392C38.7441 121.392 39.5271 121.051 39.7661 120.285L46.3311 98.887V98.813C46.3311 98.916 46.3611 98.853 46.3611 98.623C46.3611 98.143 46.0551 97.788 45.7251 97.565C45.3952 97.3375 45.0047 97.2141 44.6041 97.211C44.1061 97.211 43.5361 97.513 43.3441 98.088L43.3401 98.094L38.0281 115.823L32.6951 98.118C32.6171 97.806 32.4081 97.545 32.1631 97.399C31.9181 97.253 31.6501 97.204 31.3921 97.204L31.3931 97.211ZM83.7301 98.312C82.6901 98.312 81.8141 99.106 81.8141 100.102C81.8141 101.096 82.6771 101.922 83.7301 101.922C84.7631 101.922 85.5821 101.081 85.5821 100.102C85.5821 99.122 84.7491 98.312 83.7301 98.312ZM68.3221 105.136C64.7521 105.136 61.8141 107.991 61.8141 111.423V114.947C61.8141 116.87 62.5811 118.518 63.8811 119.656C65.1811 120.794 66.9941 121.423 69.0761 121.423C70.6141 121.423 71.8681 121.078 72.7631 120.611C73.2111 120.377 73.5711 120.114 73.8361 119.83C74.1001 119.545 74.2951 119.234 74.2951 118.847C74.2951 118.492 74.1551 118.184 73.9331 117.906C73.7111 117.628 73.3631 117.373 72.9131 117.373C72.5891 117.373 72.3391 117.508 72.1211 117.642C71.9031 117.776 71.6971 117.925 71.4491 118.068C70.9541 118.353 70.2991 118.63 69.1401 118.63C67.8511 118.63 66.7731 118.262 66.0311 117.644C65.2891 117.026 64.8591 116.165 64.8591 115.041V114.376H71.4671C72.1701 114.376 72.9501 114.378 73.6231 113.949C74.2951 113.519 74.7031 112.665 74.7031 111.361C74.7031 107.75 71.6921 105.136 68.3221 105.136ZM93.1151 105.136C91.2171 105.136 89.8231 105.749 88.9281 106.671C88.0321 107.593 87.6461 108.792 87.6461 109.914C87.6461 111.343 88.2221 112.364 89.0491 113.021C89.8751 113.677 90.9061 114.008 91.8871 114.304C92.8671 114.6 93.8071 114.864 94.4391 115.254C95.0721 115.644 95.4141 116.069 95.4141 116.96C95.4141 117.44 95.2691 117.822 94.8791 118.134C94.4891 118.447 93.7991 118.693 92.6761 118.693C91.3471 118.693 90.6011 118.363 90.0601 118.029C89.7901 117.861 89.5731 117.689 89.3501 117.535C89.1261 117.38 88.8741 117.215 88.5231 117.215C88.1011 117.215 87.7901 117.475 87.5991 117.745C87.4091 118.016 87.3011 118.325 87.3011 118.658C87.3011 119.068 87.5001 119.43 87.7851 119.746C88.0701 120.061 88.4551 120.342 88.9291 120.587C89.8781 121.079 91.1851 121.423 92.7391 121.423C94.4241 121.423 95.8091 121.011 96.7891 120.214C97.7691 119.417 98.3031 118.232 98.3031 116.864C98.3031 115.32 97.7401 114.214 96.9131 113.48C96.0871 112.747 95.0431 112.367 94.0491 112.062C93.0541 111.757 92.0941 111.52 91.4511 111.185C90.8081 110.849 90.5011 110.535 90.5011 109.82C90.5011 109.432 90.6571 108.946 91.0511 108.562C91.4441 108.178 92.0841 107.867 93.1461 107.867C93.9951 107.867 94.6281 108.063 95.1331 108.269C95.3851 108.372 95.6031 108.479 95.8101 108.568C96.0181 108.658 96.2091 108.748 96.4801 108.748C96.9711 108.748 97.3081 108.421 97.5101 108.118C97.7111 107.816 97.8301 107.517 97.8301 107.178C97.8301 106.752 97.5641 106.45 97.2701 106.222C96.9741 105.994 96.6041 105.812 96.1741 105.654C95.3141 105.339 94.2161 105.136 93.1151 105.136ZM48.1581 105.326C47.3321 105.326 46.6181 105.844 46.6181 106.611V115.009C46.6181 118.409 49.5101 121.423 53.0961 121.423C56.6201 121.423 59.5721 118.445 59.5721 115.009V106.579C59.5721 106.196 59.3621 105.864 59.0841 105.652C58.7897 105.435 58.432 105.32 58.0661 105.326C57.6811 105.326 57.3231 105.439 57.0391 105.646C56.7551 105.853 56.5271 106.183 56.5271 106.58V115.01C56.5271 116.802 54.9671 118.535 53.0961 118.535C51.1941 118.535 49.6641 116.772 49.6641 115.009V106.611C49.6641 106.214 49.4461 105.906 49.1761 105.687C48.9061 105.468 48.5531 105.326 48.1581 105.326ZM83.7301 105.326C83.3431 105.326 82.9841 105.424 82.7001 105.638C82.554 105.748 82.435 105.89 82.3521 106.054C82.2693 106.217 82.2248 106.397 82.2221 106.58V122.055C82.2221 123.216 82.1421 124.192 81.8861 124.785C81.6301 125.378 81.3221 125.645 80.4591 125.645C79.7051 125.645 79.0781 126.299 79.0781 127.088C79.0781 127.415 79.1831 127.775 79.4511 128.055C79.7181 128.335 80.1331 128.5 80.6151 128.5C82.2451 128.5 83.4911 127.778 84.2341 126.603C84.9771 125.429 85.2671 123.856 85.2671 122.055V106.58C85.2671 106.18 85.0391 105.836 84.7501 105.63C84.4611 105.424 84.1061 105.326 83.7301 105.326ZM68.2911 107.836C70.3391 107.836 71.7231 109.551 71.7231 111.298C71.7231 111.488 71.7021 111.615 71.6821 111.673C71.6621 111.731 71.6621 111.727 71.6311 111.748C71.5701 111.788 71.2541 111.867 70.6511 111.867H64.8591V111.171C64.8591 109.343 66.3861 107.835 68.2911 107.835V107.836ZM78.0411 117.466C76.9331 117.466 76.0941 118.383 76.0941 119.445C76.0941 120.464 76.9201 121.392 78.0411 121.392C79.1011 121.392 79.9551 120.492 79.9551 119.445C79.9551 118.358 79.0881 117.466 78.0411 117.466Z" fill="#35495E"/>
</svg>
