<svg width="128" height="129" viewBox="0 0 128 129" fill="none" xmlns="http://www.w3.org/2000/svg">
<path d="M31.3932 97.211C31.0182 97.211 30.6432 97.319 30.3192 97.533C29.9942 97.748 29.6982 98.117 29.6982 98.59C29.6982 98.653 29.6612 98.793 29.7822 99.035L29.7522 98.959L36.3222 120.277C36.4392 120.674 36.7172 120.978 37.0322 121.152C37.3462 121.326 37.6942 121.39 38.0302 121.39C38.7442 121.39 39.5252 121.05 39.7642 120.285L39.7662 120.283L46.3312 98.887V98.811C46.3312 98.914 46.3612 98.853 46.3612 98.623C46.3612 98.143 46.0552 97.786 45.7252 97.563C45.3955 97.3363 45.0053 97.2136 44.6052 97.211C44.1072 97.211 43.5352 97.511 43.3422 98.086L43.3402 98.094L38.0282 115.821L32.6962 98.124C32.6182 97.811 32.4092 97.553 32.1652 97.407C31.9212 97.261 31.6512 97.212 31.3932 97.212V97.211ZM83.7292 98.311C82.6892 98.311 81.8152 99.105 81.8152 100.1C81.8152 101.095 82.6762 101.922 83.7292 101.922C84.7622 101.922 85.5822 101.08 85.5822 100.1C85.5822 99.12 84.7482 98.31 83.7292 98.31V98.311ZM68.3232 105.137C64.7532 105.137 61.8152 107.992 61.8152 111.424V114.945C61.8152 116.868 62.5802 118.517 63.8802 119.655C65.1802 120.792 66.9952 121.422 69.0772 121.422C70.6152 121.422 71.8692 121.079 72.7652 120.612C73.2122 120.378 73.5702 120.115 73.8352 119.83C74.1002 119.545 74.2952 119.232 74.2952 118.846C74.2952 118.49 74.1572 118.182 73.9352 117.904C73.7122 117.627 73.3652 117.371 72.9152 117.371C72.5902 117.371 72.3382 117.509 72.1202 117.643C71.9022 117.777 71.6982 117.924 71.4502 118.067C70.9552 118.352 70.2982 118.629 69.1402 118.629C67.8502 118.629 66.7742 118.263 66.0322 117.645C65.2902 117.026 64.8582 116.165 64.8582 115.041V114.377H71.4682C72.1712 114.377 72.9522 114.379 73.6242 113.949C74.2962 113.52 74.7042 112.665 74.7042 111.361C74.7042 107.751 71.6932 105.137 68.3242 105.137H68.3232ZM93.1162 105.137C91.2182 105.137 89.8222 105.75 88.9262 106.672C88.0312 107.594 87.6462 108.793 87.6462 109.914C87.6462 111.344 88.2232 112.365 89.0502 113.022C89.8762 113.678 90.9052 114.009 91.8862 114.305C92.8662 114.601 93.8062 114.865 94.4382 115.254C95.0712 115.644 95.4152 116.068 95.4152 116.959C95.4152 117.439 95.2702 117.821 94.8802 118.133C94.4902 118.445 93.7972 118.693 92.6752 118.693C91.3462 118.693 90.6002 118.362 90.0592 118.027C89.7892 117.86 89.5732 117.687 89.3502 117.533C89.1272 117.379 88.8752 117.215 88.5242 117.215C88.1022 117.215 87.7892 117.475 87.5982 117.746C87.4082 118.017 87.3002 118.326 87.3002 118.658C87.3002 119.069 87.4992 119.429 87.7842 119.744C88.0692 120.059 88.4562 120.342 88.9302 120.588C89.8792 121.079 91.1842 121.422 92.7372 121.422C94.4232 121.422 95.8082 121.01 96.7872 120.212C97.7672 119.416 98.3022 118.232 98.3022 116.865C98.3022 115.321 97.7422 114.212 96.9152 113.479C96.0882 112.745 95.0432 112.367 94.0482 112.063C93.0532 111.758 92.0952 111.521 91.4522 111.186C90.8082 110.846 90.5002 110.536 90.5002 109.816C90.5002 109.428 90.6572 108.94 91.0502 108.556C91.4442 108.172 92.0842 107.86 93.1462 107.86C93.9962 107.86 94.6262 108.058 95.1312 108.265C95.3832 108.368 95.6032 108.474 95.8112 108.564C96.0182 108.654 96.2092 108.741 96.4812 108.741C96.9712 108.741 97.3082 108.417 97.5102 108.114C97.7122 107.812 97.8302 107.513 97.8302 107.173C97.8302 106.748 97.5632 106.446 97.2682 106.218C96.9732 105.99 96.6022 105.808 96.1722 105.65C95.3122 105.334 94.2162 105.132 93.1152 105.132L93.1162 105.137ZM48.1572 105.324C47.3312 105.324 46.6202 105.845 46.6202 106.611V115.01C46.6202 118.41 49.5112 121.422 53.0962 121.422C56.6212 121.422 59.5712 118.445 59.5712 115.01V106.58C59.5712 106.196 59.3632 105.862 59.0852 105.65C58.8072 105.438 58.4502 105.324 58.0652 105.324C57.6982 105.319 57.3393 105.431 57.0402 105.644C56.7552 105.852 56.5282 106.184 56.5282 106.58V115.01C56.5282 116.803 54.9682 118.535 53.0972 118.535C51.1952 118.535 49.6652 116.772 49.6652 115.01V106.611C49.6652 106.214 49.4472 105.906 49.1772 105.688C48.9072 105.47 48.5522 105.324 48.1572 105.324ZM83.7292 105.324C83.3422 105.324 82.9832 105.424 82.6992 105.639C82.4152 105.854 82.2232 106.205 82.2232 106.58V122.055C82.2232 123.217 82.1432 124.193 81.8872 124.785C81.6312 125.379 81.3212 125.643 80.4572 125.643C79.7042 125.643 79.0772 126.3 79.0772 127.088C79.0772 127.416 79.1842 127.773 79.4522 128.053C79.7192 128.333 80.1342 128.5 80.6162 128.5C82.2462 128.5 83.4922 127.778 84.2352 126.604C84.9782 125.43 85.2682 123.856 85.2682 122.055V106.58C85.2682 106.181 85.0402 105.834 84.7502 105.629C84.4498 105.424 84.0929 105.317 83.7292 105.324ZM68.2902 107.834C70.3382 107.834 71.7222 109.55 71.7222 111.297C71.7222 111.487 71.7012 111.613 71.6812 111.672C71.6612 111.731 71.6612 111.726 71.6302 111.746C71.5692 111.786 71.2532 111.867 70.6502 111.867H64.8582V111.172C64.8582 109.343 66.3852 107.834 68.2902 107.834ZM78.0402 117.465C76.9312 117.465 76.0952 118.382 76.0952 119.443C76.0952 120.463 76.9192 121.391 78.0402 121.391C79.1002 121.391 79.9562 120.491 79.9562 119.443C79.9562 118.356 79.0862 117.465 78.0402 117.465Z" fill="#35495E"/>
<path d="M7.94092 0L51.6099 0.139L64.1329 21.524L76.6599 0.139L120.06 0.001L64.1459 96.467L7.94092 0ZM119.171 0.558L97.8269 0.576L64.1269 58.434L30.4469 0.577L8.76692 0.56L64.1359 95.06L119.171 0.558Z" fill="#35495E"/>
</svg>
