<svg width="128" height="128" viewBox="0 0 128 128" fill="none" xmlns="http://www.w3.org/2000/svg">
<path d="M101.57 41.216H29.7402V91.639H101.57V41.216Z" fill="white" stroke="#6DD0C7" stroke-width="0.294"/>
<path d="M122 113.73V117.93C121.18 119.29 119.94 119.57 118.42 119.57C81.9298 119.54 45.4298 119.55 8.93977 119.54C8.66977 119.54 8.39977 119.55 8.12977 119.54C6.32977 119.46 5.34977 118.47 5.39977 116.67C5.43977 115.38 5.59977 114.1 5.69977 112.81C6.60977 101.43 7.49977 90.07 8.39977 78.7C9.32977 67.01 10.2698 55.32 11.2098 43.63C11.9398 34.51 12.6698 25.4 13.4198 16.28C13.5698 14.41 14.4698 13.64 16.3598 13.61C17.4398 13.59 18.5098 13.6 19.5898 13.59C48.7898 13.59 77.9898 13.58 107.19 13.58C108.37 13.59 109.56 13.58 110.74 13.6C112.48 13.63 113.43 14.45 113.63 16.18C113.72 16.97 113.56 17.79 113.63 18.58C113.94 21.74 114.33 24.89 114.62 28.05C114.99 32.12 115.3 36.19 115.64 40.26L117.56 63.56C118.73 77.76 119.89 91.95 121.09 106.15C121.3 108.69 121.69 111.21 122 113.73ZM61.4898 87.58C65.4698 87.55 69.3298 86.62 72.7798 84.47C83.2398 77.96 87.4498 68.05 87.8998 56.18C87.9398 55.08 87.3998 54.35 86.1598 54.3C84.7798 54.24 84.6498 55.15 84.5598 56.2C84.3698 58.36 84.2998 60.56 83.8498 62.67C82.3998 69.44 79.4098 75.38 73.7998 79.71C68.9398 83.46 63.5898 85.3 57.3798 83.83C49.5498 81.98 44.7598 76.72 41.4398 69.81C39.4398 65.63 38.5698 61.16 38.4798 56.53C38.4498 54.89 37.6098 54.03 36.4298 54.34C35.2598 54.65 35.0698 55.58 35.1098 56.62C35.3298 63.54 37.0898 70.01 40.9898 75.78C45.8898 82.99 52.4498 87.36 61.4898 87.58ZM85.9998 47.34C88.7098 50.06 91.0198 52.37 93.3098 54.69C94.1198 55.51 95.0098 55.71 95.8398 54.86C96.5998 54.08 96.4398 53.17 95.6898 52.42C92.9998 49.71 90.3098 47.01 87.5898 44.34C86.7698 43.53 85.7398 43.33 84.8698 44.17C82.0598 46.9 79.2798 49.67 76.5598 52.49C75.8198 53.26 75.5598 54.32 76.5398 55.12C77.4398 55.86 78.3098 55.57 79.0798 54.74C81.3398 52.31 83.6098 49.89 85.9998 47.34Z" fill="#5ECD77"/>
<path d="M105.85 8.76001C107.26 10.1 107.03 11.9 107.19 13.59C77.9898 13.59 48.7898 13.6 19.5898 13.6C19.9698 11.93 19.2798 9.91001 21.2098 8.76001H105.85Z" fill="#53C074"/>
</svg>
