<svg width="128" height="128" viewBox="0 0 128 128" fill="none" xmlns="http://www.w3.org/2000/svg">
<path d="M0.994141 0.994019V127.006H127.006V0.994019H0.994141ZM72.9141 42.709C72.9141 42.709 76.9021 72.765 76.9021 74.152L82.6871 56.032H82.6471C85.1991 49.172 90.2261 42.709 99.7991 42.709L86.2361 75.459C85.0589 79.1701 82.7233 82.412 79.5681 84.7151C76.4128 87.0181 72.6017 88.2625 68.6871 88.268C68.6871 88.268 64.6971 60.115 64.6971 59.48L58.7151 74.945C56.0421 81.805 50.8581 88.268 41.2851 88.268L33.7851 42.75C37.4349 42.841 40.9245 44.2592 43.5929 46.7361C46.2613 49.2131 47.9233 52.5767 48.2641 56.19C48.2641 56.19 49.2621 72.883 49.2621 74.191L56.3221 56.031C58.8751 49.171 63.7401 42.709 72.9141 42.709Z" fill="#4353FF"/>
</svg>
