<svg width="129" height="128" viewBox="0 0 129 128" fill="none" xmlns="http://www.w3.org/2000/svg">
<path d="M82.0002 88.5C80.1002 88.5 78.3002 88.1 76.5002 87.3C72.5002 85.6 69.1002 82.3 66.2002 77.9C67.0002 76.5 67.7002 75 68.4002 73.5C71.2002 66.9 72.6002 59.6 72.7002 52.4V51.6C72.7002 48.8 72.3002 45.9 71.3002 43.3C70.2002 40.2 68.4002 37.2 65.6002 36C65.1002 35.8 64.5002 35.7 64.0002 35.7C60.4002 29 60.3002 22.7 64.0002 16.6H64.2002C68.5002 16.6 72.8002 18 76.5002 20.3C86.5002 26.7 91.5002 39 91.6002 51.2V51.6H91.7002C91.6002 64.5 88.5002 77.6 82.0002 88.5ZM59.8002 108.7C50.5002 112.5 39.6002 112.3 30.4002 108C19.8002 103.1 11.6002 93.4 6.60015 82.5C-1.99985 63.7 -2.19985 41.3 6.00015 22.3C12.1002 24.7 17.5002 20.9 17.5002 20.9C17.5002 20.9 17.5002 26.9 23.3002 29.9C17.4002 43.8 17.5002 60.4 23.5002 74C26.4002 80.5 30.8002 86.6 36.8002 90.1C39.0002 91.3 41.4002 92.1 43.8002 92.4C48.1002 99 53.6002 104.7 59.8002 108.7Z" fill="url(#paint0_linear_3_7466)"/>
<path opacity="0.3" fill-rule="evenodd" clip-rule="evenodd" d="M81.9999 88.5C80.0999 88.5 78.2999 88.1 76.4999 87.3C72.4999 85.6 69.0999 82.3 66.1999 77.9C66.9999 76.5 67.6999 75 68.3999 73.5C69.2999 71.5 69.9999 69.5 70.5999 67.4C71.9999 62.6 90.1999 68.7 87.4999 76.7C85.9999 80.8 84.1999 84.8 81.9999 88.5ZM59.7999 108.7C50.4999 112.5 39.5999 112.3 30.3999 108C19.7999 103.1 30.6999 86.5 36.7999 89.9C38.9999 91.1 41.2999 91.9 43.7999 92.2C48.0999 99 53.5999 104.7 59.7999 108.7Z" fill="url(#paint1_linear_3_7466)"/>
<path d="M36.4004 51.7V51.2999C36.5004 39.0999 41.5004 26.7 51.5004 20.4C55.2004 18.1 59.5004 16.7 63.8004 16.7H64.0004V35.7999C63.5004 35.7999 62.9004 35.8999 62.4004 36.0999C59.6004 37.2999 57.8004 40.4 56.7004 43.4C55.7004 46.1 55.3004 48.9 55.3004 51.7V52.5C55.4004 59.7 56.7004 66.9 59.6004 73.5C62.7004 81 67.8004 87.7999 75.0004 90.8999C80.4004 93.2999 86.4004 92.7 91.3004 89.8999C97.4004 86.4999 101.8 80.3999 104.6 73.7999C110.6 60.2 110.7 43.7 104.8 29.7C110.6 26.7 110.6 20.7 110.6 20.7C110.6 20.7 116 24.5999 122.1 22.0999C130.2 41.0999 130 63.5999 121.5 82.2999C116.5 93.2999 108.4 102.9 97.7004 107.8C88.2004 112.2 77.1004 112.3 67.6004 108.2C59.0004 104.7 52.0004 98 47.0004 90.2C39.8004 78.9 36.4004 65.2 36.4004 51.7Z" fill="url(#paint2_linear_3_7466)"/>
<defs>
<linearGradient id="paint0_linear_3_7466" x1="-0.00131254" y1="64.0007" x2="62.5376" y2="64.0007" gradientUnits="userSpaceOnUse">
<stop stop-color="#00D2E6"/>
<stop offset="1" stop-color="#2ECCAA"/>
</linearGradient>
<linearGradient id="paint1_linear_3_7466" x1="38.995" y1="96.7448" x2="72.1684" y2="75.6005" gradientUnits="userSpaceOnUse">
<stop stop-opacity="0"/>
<stop offset="0.514"/>
<stop offset="1" stop-opacity="0"/>
</linearGradient>
<linearGradient id="paint2_linear_3_7466" x1="128.001" y1="64.0006" x2="65.5678" y2="64.0006" gradientUnits="userSpaceOnUse">
<stop stop-color="#1FA385"/>
<stop offset="1" stop-color="#2ECCAA"/>
</linearGradient>
</defs>
</svg>
