<svg width="128" height="128" viewBox="0 0 128 128" fill="none" xmlns="http://www.w3.org/2000/svg">
<path d="M29.2 72.3C28.5 72.3 27.9 72.2 27.3 71.9C25.9 71.3 24.7 70.2 23.7 68.6C24 68.1 24.2 67.6 24.5 67.1C25.5 64.8 26 62.3 26 59.8V59.5C26 58.5 25.9 57.5 25.5 56.6C25.1 55.5 24.5 54.5 23.5 54.1C23.4 54 23.1 54 23 54C21.8 51.7 21.7 49.5 23 47.4H23.1C24.6 47.4 26.1 47.9 27.4 48.7C30.9 50.9 32.6 55.2 32.6 59.4V59.5C32.5 64 31.5 68.5 29.2 72.3ZM21.5 79.3C18.3 80.6 14.5 80.5 11.3 79.1C7.59997 77.4 4.79997 74 2.99997 70.3C-3.45707e-05 63.8 -0.100035 56 2.79996 49.4C4.89996 50.2 6.79996 48.9 6.79996 48.9C6.79996 48.9 6.79996 51 8.79996 52C6.79996 56.8 6.79997 62.6 8.89997 67.3C9.89997 69.6 11.4 71.7 13.5 72.9C14.3 73.3 15.1 73.6 15.9 73.7C17.5 76 19.4 77.9 21.5 79.3Z" fill="url(#paint0_linear_3_7504)"/>
<path opacity="0.3" fill-rule="evenodd" clip-rule="evenodd" d="M29.2001 72.3001C28.5001 72.3001 27.9001 72.2001 27.3001 71.9001C25.9001 71.3001 24.7001 70.2001 23.7001 68.6001C24.0001 68.1001 24.2001 67.6001 24.5001 67.1001C24.8001 66.4001 25.1001 65.7001 25.3001 65.0001C25.8001 63.3001 32.1001 65.5001 31.2001 68.2001C30.6001 69.6001 30.0001 71.0001 29.2001 72.3001ZM21.5001 79.3001C18.3001 80.6001 14.5001 80.5001 11.3001 79.1001C7.60011 77.4001 11.4001 71.6001 13.5001 72.8001C14.3001 73.2001 15.1001 73.5001 15.9001 73.6001C17.5001 76.0001 19.4001 77.9001 21.5001 79.3001Z" fill="url(#paint1_linear_3_7504)"/>
<path d="M13.3999 59.5V59.4C13.3999 55.2 15.1999 50.9 18.5999 48.7C19.8999 47.9 21.3999 47.4 22.8999 47.4H22.9999V54C22.7999 54 22.5999 54 22.3999 54.1C21.3999 54.5 20.7999 55.6 20.3999 56.6C20.0999 57.5 19.8999 58.5 19.8999 59.5V59.8C19.8999 62.3 20.3999 64.8 21.3999 67.1C22.4999 69.7 24.1999 72.1 26.6999 73.1C28.5999 73.9 30.6999 73.7 32.3999 72.8C34.4999 71.6 35.9999 69.5 36.9999 67.2C39.0999 62.5 39.0999 56.8 37.0999 51.9C39.0999 50.9 39.0999 48.8 39.0999 48.8C39.0999 48.8 40.9999 50.2 43.0999 49.3C45.8999 55.9 45.7999 63.7 42.8999 70.2C41.1999 74 38.3999 77.3 34.6999 79C31.3999 80.5 27.5999 80.6 24.2999 79.1C21.2999 77.9 18.8999 75.6 17.1999 72.9C14.5999 69 13.3999 64.2 13.3999 59.5Z" fill="url(#paint2_linear_3_7504)"/>
<path d="M51.2002 59.8H53.3002L54.3002 65.5L54.6002 67.3001L54.9002 69.1H55.0002C55.1002 68.5 55.3002 67.9001 55.4002 67.3001C55.5002 66.7001 55.6002 66.1 55.8002 65.5L57.2002 59.8H59.0002L60.4002 65.5C60.5002 66.1 60.7002 66.7001 60.8002 67.3001C60.9002 67.9001 61.1002 68.5 61.2002 69.1H61.0002L61.3002 67.3001L61.6002 65.5L62.6002 59.8H64.5002L62.3002 71.1H59.8002L58.4002 65.1C58.3002 64.7 58.2002 64.2 58.1002 63.8C58.0002 63.4 57.9002 62.9 57.9002 62.5H57.8002C57.7002 62.9 57.6002 63.4 57.5002 63.8C57.4002 64.2 57.3002 64.7 57.2002 65.1L55.8002 71.1H53.4002L51.2002 59.8ZM67.5002 59.8H74.3002V61.5H69.5002V64.4001H73.6002V66.1H69.5002V69.4001H74.5002V71.1H67.5002V59.8ZM78.1002 59.8H81.7002C82.3002 59.8 82.8002 59.8001 83.3002 59.9001C83.8002 60.0001 84.2002 60.2001 84.6002 60.4001C85.0002 60.6001 85.2002 60.9 85.4002 61.3C85.6002 61.7 85.7002 62.1 85.7002 62.6C85.7002 63.1 85.6002 63.6 85.3002 64.1C85.0002 64.6 84.6002 64.9 84.1002 65.1V65.2C84.7002 65.3 85.2002 65.6 85.7002 66.1C86.1002 66.5 86.3002 67.1001 86.3002 67.9001C86.3002 68.5001 86.2002 69.0001 86.0002 69.4001C85.8002 69.8001 85.5002 70.2001 85.1002 70.4001C84.7002 70.7001 84.3002 70.9 83.7002 71C83.1002 71.1 82.6002 71.2 82.0002 71.2H78.1002V59.8ZM81.6002 64.5C82.4002 64.5 83.0002 64.4 83.3002 64.1C83.7002 63.8 83.8002 63.4001 83.8002 62.9001C83.8002 62.3001 83.6002 62.0001 83.2002 61.7001C82.8002 61.5001 82.3002 61.4001 81.5002 61.4001H80.0002V64.5H81.6002ZM81.8002 69.6C82.6002 69.6 83.3002 69.4 83.7002 69.1C84.2002 68.8 84.4002 68.3 84.4002 67.7C84.4002 67.1 84.2002 66.7001 83.7002 66.4001C83.3002 66.1001 82.6002 66 81.8002 66H80.1002V69.6H81.8002ZM89.8002 59.8H91.8002V69.4001H96.5002V71.1H89.8002V59.8ZM105 68H101.2L100.3 71.1H98.3002L102 59.8H104.4L108.1 71.1H106L105 68ZM104.6 66.5L104.2 65.1C104 64.5 103.8 63.9001 103.7 63.2001C103.5 62.6001 103.4 61.9 103.2 61.3H103.1C102.9 61.9 102.8 62.6001 102.6 63.2001C102.4 63.8001 102.3 64.4 102.1 65L101.7 66.4001H104.6V66.5ZM111.9 61.5H108.6V59.8H117.2V61.5H113.9V71.1H111.9V61.5ZM120.4 59.8H127.2V61.5H122.4V64.4001H126.5V66.1H122.4V69.4001H127.4V71.1H120.4V59.8Z" fill="black"/>
<defs>
<linearGradient id="paint0_linear_3_7504" x1="0.759418" y1="63.814" x2="22.4614" y2="63.814" gradientUnits="userSpaceOnUse">
<stop stop-color="#00D2E6"/>
<stop offset="1" stop-color="#2ECCAA"/>
</linearGradient>
<linearGradient id="paint1_linear_3_7504" x1="14.2956" y1="75.1815" x2="25.8066" y2="67.8449" gradientUnits="userSpaceOnUse">
<stop stop-opacity="0"/>
<stop offset="0.514"/>
<stop offset="1" stop-opacity="0"/>
</linearGradient>
<linearGradient id="paint2_linear_3_7504" x1="45.1886" y1="63.7957" x2="23.523" y2="63.7957" gradientUnits="userSpaceOnUse">
<stop stop-color="#1FA385"/>
<stop offset="1" stop-color="#2ECCAA"/>
</linearGradient>
</defs>
</svg>
