<svg width="128" height="128" viewBox="0 0 128 128" fill="none" xmlns="http://www.w3.org/2000/svg">
<path d="M29.2 72.3C28.5 72.3 27.9 72.2 27.3 71.9C25.9 71.3 24.7 70.2 23.7 68.6C24 68.1 24.2 67.6 24.5 67.1C25.5 64.8 26 62.3 26 59.8V59.5C26 58.5 25.9 57.5 25.5 56.6C25.1 55.5 24.5 54.5 23.5 54.1C23.4 54 23.1 54 23 54C21.8 51.7 21.7 49.5 23 47.4H23.1C24.6 47.4 26.1 47.9 27.4 48.7C30.9 50.9 32.6 55.2 32.6 59.4V59.5C32.5 64 31.5 68.5 29.2 72.3ZM21.5 79.3C18.3 80.6 14.5 80.5 11.3 79.1C7.59997 77.4 4.79996 74 2.99997 70.3C-3.48091e-05 63.8 -0.100035 56 2.79997 49.4C4.89997 50.2 6.79997 48.9 6.79997 48.9C6.79997 48.9 6.79996 51 8.79996 52C6.79996 56.8 6.79996 62.6 8.89996 67.3C9.89996 69.6 11.4 71.7 13.5 72.9C14.3 73.3 15.1 73.6 15.9 73.7C17.5 76 19.4 77.9 21.5 79.3Z" fill="#2ECCAA"/>
<path opacity="0.3" fill-rule="evenodd" clip-rule="evenodd" d="M29.2001 72.3001C28.5001 72.3001 27.9001 72.2001 27.3001 71.9001C25.9001 71.3001 24.7001 70.2001 23.7001 68.6001C24.0001 68.1001 24.2001 67.6001 24.5001 67.1001C24.8001 66.4001 25.1001 65.7001 25.3001 65.0001C25.8001 63.3001 32.1001 65.5 31.2001 68.2C30.6001 69.6 30.0001 71.0001 29.2001 72.3001ZM21.5001 79.3001C18.3001 80.6001 14.5001 80.5001 11.3001 79.1001C7.60011 77.4001 11.4001 71.6001 13.5001 72.8001C14.3001 73.2001 15.1001 73.5001 15.9001 73.6001C17.5001 76.0001 19.4001 77.9001 21.5001 79.3001Z" fill="#2ECCAA"/>
<path d="M13.3999 59.5V59.4C13.3999 55.2 15.1999 50.9 18.5999 48.7C19.8999 47.9 21.3999 47.4 22.8999 47.4H22.9999V54C22.7999 54 22.5999 54 22.3999 54.1C21.3999 54.5 20.7999 55.6 20.3999 56.6C20.0999 57.5 19.8999 58.5 19.8999 59.5V59.8C19.8999 62.3 20.3999 64.8 21.3999 67.1C22.4999 69.7 24.1999 72.1 26.6999 73.1C28.5999 73.9 30.6999 73.7 32.3999 72.8C34.4999 71.6 35.9999 69.5 36.9999 67.2C39.0999 62.5 39.0999 56.8 37.0999 51.9C39.0999 50.9 39.0999 48.8 39.0999 48.8C39.0999 48.8 40.9999 50.2 43.0999 49.3C45.8999 55.9 45.7999 63.7 42.8999 70.2C41.1999 74 38.3999 77.3 34.6999 79C31.3999 80.5 27.5999 80.6 24.2999 79.1C21.2999 77.9 18.8999 75.6 17.1999 72.9C14.5999 69 13.3999 64.2 13.3999 59.5ZM51.1999 59.8H53.2999L54.2999 65.5L54.5999 67.3L54.8999 69.1H54.9999C55.0999 68.5 55.2999 67.9 55.3999 67.3C55.4999 66.7 55.5999 66.1 55.7999 65.5L57.1999 59.8H58.9999L60.3999 65.5C60.4999 66.1 60.6999 66.7 60.7999 67.3C60.8999 67.9 61.0999 68.5 61.1999 69.1H60.9999L61.2999 67.3L61.5999 65.5L62.5999 59.8H64.4999L62.2999 71.1H59.7999L58.3999 65.1C58.2999 64.7 58.1999 64.2 58.0999 63.8C57.9999 63.4 57.8999 62.9 57.8999 62.5H57.7999C57.6999 62.9 57.5999 63.4 57.4999 63.8C57.3999 64.2 57.2999 64.7 57.1999 65.1L55.7999 71.1H53.3999L51.1999 59.8ZM67.4999 59.8H74.2999V61.5H69.4999V64.4H73.5999V66.1H69.4999V69.4H74.4999V71.1H67.4999V59.8ZM78.0999 59.8H81.6999C82.2999 59.8 82.7999 59.8 83.2999 59.9C83.7999 60 84.1999 60.2 84.5999 60.4C84.9999 60.6 85.1999 60.9 85.3999 61.3C85.5999 61.7 85.6999 62.1 85.6999 62.6C85.6999 63.1 85.5999 63.6 85.2999 64.1C84.9999 64.6 84.5999 64.9 84.0999 65.1V65.2C84.6999 65.3 85.1999 65.6 85.6999 66.1C86.0999 66.5 86.2999 67.1 86.2999 67.9C86.2999 68.5 86.1999 69 85.9999 69.4C85.7999 69.8 85.4999 70.2 85.0999 70.4C84.6999 70.7 84.2999 70.9 83.6999 71C83.0999 71.1 82.5999 71.2 81.9999 71.2H78.0999V59.8ZM81.5999 64.5C82.3999 64.5 82.9999 64.4 83.2999 64.1C83.6999 63.8 83.7999 63.4 83.7999 62.9C83.7999 62.3 83.5999 62 83.1999 61.7C82.7999 61.5 82.2999 61.4 81.4999 61.4H79.9999V64.5H81.5999ZM81.7999 69.6C82.5999 69.6 83.2999 69.4 83.6999 69.1C84.1999 68.8 84.3999 68.3 84.3999 67.7C84.3999 67.1 84.1999 66.7 83.6999 66.4C83.2999 66.1 82.5999 66 81.7999 66H80.0999V69.6H81.7999ZM89.7999 59.8H91.7999V69.4H96.4999V71.1H89.7999V59.8ZM105 68H101.2L100.3 71.1H98.2999L102 59.8H104.4L108.1 71.1H106L105 68ZM104.6 66.5L104.2 65.1C104 64.5 103.8 63.9 103.7 63.2C103.5 62.6 103.4 61.9 103.2 61.3H103.1C102.9 61.9 102.8 62.6 102.6 63.2C102.4 63.8 102.3 64.4 102.1 65L101.7 66.4H104.6V66.5ZM111.9 61.5H108.6V59.8H117.2V61.5H113.9V71.1H111.9V61.5ZM120.4 59.8H127.2V61.5H122.4V64.4H126.5V66.1H122.4V69.4H127.4V71.1H120.4V59.8Z" fill="#2ECCAA"/>
</svg>
