<svg width="130" height="128" viewBox="0 0 130 128" fill="none" xmlns="http://www.w3.org/2000/svg">
<path d="M44.7998 92.3C44.3998 92.2 44.0998 92.1 43.6998 92.1C43.3998 92.1 43.1998 92 42.8998 92C42.4998 91.9 42.0998 91.8 41.5998 91.7C41.3998 91.6 41.1998 91.6 41.0998 91.6C40.6998 91.5 40.3998 91.3 39.9998 91.2C39.7998 91.1 39.5998 91 39.3998 91L38.7998 90.7C38.3998 90.5 38.0998 90.4 37.6998 90.2C31.5998 86.8 27.1998 80.7 24.3998 74.1C18.3998 60.5 18.2998 44 24.1998 30C18.3998 27 18.3998 21 18.3998 21C18.3998 21 12.9998 24.9 6.89981 22.4C-1.20019 41.4 -1.00019 63.9 7.49981 82.6C12.4998 93.6 20.5998 103.2 31.2998 108.1C32.1998 108.5 33.1998 108.9 34.0998 109.3C34.2998 109.4 34.5998 109.5 34.7998 109.6C34.9998 109.7 35.1998 109.7 35.3998 109.8C35.7998 109.9 36.1998 110.1 36.5998 110.2C36.7998 110.3 36.9998 110.3 37.1998 110.4L38.3998 110.7C39.4998 111 40.5998 111.2 41.7998 111.3C41.8998 111.3 41.9998 111.3 42.1998 111.4C42.6998 111.5 43.1998 111.5 43.6998 111.5H44.0998C44.4998 111.5 44.8998 111.5 45.2998 111.6H47.8998C48.1998 111.6 48.4998 111.6 48.7998 111.5C49.0998 111.5 49.3998 111.5 49.6998 111.4C50.0998 111.4 50.4998 111.3 50.8998 111.3C51.0998 111.3 51.2998 111.3 51.4998 111.2C51.8998 111.1 52.2998 111.1 52.7998 111C52.9998 111 53.1998 110.9 53.3998 110.9C53.7998 110.8 54.0998 110.8 54.4998 110.7C54.7998 110.6 54.9998 110.6 55.2998 110.5L56.4998 110.2C56.6998 110.1 56.8998 110.1 57.1998 110C57.5998 109.9 57.9998 109.7 58.3998 109.6C58.5998 109.5 58.7998 109.5 58.9998 109.4C59.3998 109.3 59.6998 109.1 59.9998 109C60.1998 108.9 60.4998 108.8 60.6998 108.7C54.5998 104.7 49.0998 99 44.7998 92.3Z" fill="#2ECCAA"/>
<path d="M123.1 22.3C117 24.7 111.6 20.9 111.6 20.9C111.6 20.9 111.6 26.9 105.8 29.9C111.7 43.8 111.6 60.4 105.6 74C102.7 80.5 98.2998 86.6 92.2998 90.1C87.3998 92.9 81.3998 93.4 75.9998 91.1C68.7998 88 63.7998 81.2 60.5998 73.7C57.7998 67.1 56.3998 59.8 56.2998 52.6V51.8C56.2998 49 56.6998 46.1 57.6998 43.5C58.7998 40.4 60.5998 37.4 63.3998 36.2C63.8998 36 64.3998 35.9 64.9998 35.9C65.4998 35.9 66.0998 36 66.5998 36.2C69.3998 37.4 71.1998 40.5 72.2998 43.5C73.2998 46.2 73.6998 49 73.6998 51.8V52.6C73.5998 57.8 72.8998 63 71.3998 68C71.1998 68.7 70.9998 69.3 70.7998 70L70.4998 70.9C70.1998 71.8 69.7998 72.8 69.3998 73.7C69.0998 74.5 68.6998 75.2 68.3998 75.9V76C67.9998 76.7 67.6998 77.4 67.2998 78.1C70.0998 82.5 73.5998 85.8 77.5998 87.5C79.3998 88.3 81.1998 88.6 83.0998 88.7C83.5998 87.9 84.0998 87 84.4998 86.2C84.5998 86 84.7998 85.7 84.8998 85.5C85.1998 84.8 85.5998 84.2 85.8998 83.5C85.9998 83.3 86.0998 83 86.1998 82.8L87.3998 80.1C87.4998 80 87.4998 79.8 87.5998 79.7L88.4998 77.3C88.4998 77.2 88.5998 77.1 88.5998 76.9V76.8C91.3998 68.9 92.6998 60.3 92.6998 51.9H92.5998V51.5C92.4998 39.3 87.4998 26.9 77.4998 20.6C73.7998 18.3 69.4998 16.9 65.1998 16.9H64.7998C60.4998 16.9 56.1998 18.3 52.4998 20.6C42.4998 27 37.4998 39.3 37.3998 51.5V51.9H37.2998C37.2998 65.4 40.6998 79.2 47.9998 90.4C52.9998 98.2 59.8998 104.9 68.4998 108.6C77.9998 112.7 89.0998 112.6 98.5998 108.2C109.2 103.3 117.4 93.6 122.4 82.7C131 63.7 131.2 41.3 123.1 22.3Z" fill="#2ECCAA"/>
</svg>
