<svg width="128" height="128" viewBox="0 0 128 128" fill="none" xmlns="http://www.w3.org/2000/svg">
<path d="M30.1299 72.2L17.8599 79.14V73.73L25.5099 69.52L30.1399 72.19L30.1299 72.2ZM30.9699 71.44V56.92L26.4799 59.51V68.84L30.9999 71.44H30.9699ZM4.50992 72.2L16.7799 79.14V73.73L9.12992 69.53L4.50992 72.2ZM3.66992 71.44V56.92L8.15992 59.51V68.84L3.66992 71.44ZM4.19992 56L16.7899 48.88V54.1L8.71992 58.52H8.65992L4.19992 56ZM30.4499 56L17.8599 48.86V54.08L25.9199 58.51H25.9799L30.4499 56ZM16.7799 72.5L9.23992 68.35V60.13L16.7899 64.49L16.7799 72.5ZM17.8599 72.5L25.4099 68.35V60.13L17.8599 64.49V72.5ZM9.74992 59.19L17.3199 55L24.8899 59.16L17.3199 63.53L9.74992 59.19ZM48.6099 69.57H51.9299L55.3099 58.3H52.0799L50.0799 66.3L47.9399 58.3H45.1399L42.9799 66.3L40.9799 58.3H37.7699L41.1299 69.57H44.4499L46.5399 62.35L48.6099 69.57ZM55.4899 64C55.4522 64.7864 55.5802 65.572 55.8656 66.3058C56.151 67.0396 56.5873 67.7053 57.1464 68.2596C57.7055 68.814 58.3748 69.2447 59.111 69.5238C59.8472 69.803 60.6338 69.9243 61.4199 69.88C62.3582 69.919 63.2901 69.7103 64.1222 69.275C64.9542 68.8396 65.657 68.193 66.1599 67.4L64.1599 65.91C63.8497 66.3453 63.438 66.6985 62.9606 66.9389C62.4832 67.1794 61.9544 67.2999 61.4199 67.29C61.0567 67.3157 60.6921 67.2688 60.3472 67.152C60.0024 67.0352 59.6843 66.8509 59.4115 66.6098C59.1387 66.3686 58.9167 66.0755 58.7585 65.7476C58.6002 65.4197 58.5089 65.0636 58.4899 64.7H66.4299V64.05C66.4299 60.37 64.4299 58.05 60.9599 58.05C57.7499 58.05 55.4399 60.59 55.4399 64H55.4899ZM58.6199 62.77C58.6381 62.1501 58.8965 61.5615 59.3406 61.1285C59.7847 60.6956 60.3797 60.4523 60.9999 60.45C61.3094 60.4352 61.6187 60.483 61.9092 60.5907C62.1998 60.6984 62.4656 60.8636 62.6906 61.0766C62.9157 61.2895 63.0955 61.5457 63.2191 61.8299C63.3427 62.114 63.4076 62.4201 63.4099 62.73L58.6199 62.77ZM67.6199 69.6H70.4199V68.4C70.8414 68.8647 71.3576 69.2338 71.9338 69.4822C72.5099 69.7306 73.1326 69.8526 73.7599 69.84C76.9899 69.84 79.2799 67.41 79.2799 63.94C79.2799 60.47 77.1499 58 73.9199 58C73.2897 57.9797 72.6628 58.1002 72.085 58.3527C71.5072 58.6053 70.993 58.9836 70.5799 59.46V54H67.5799V69.57L67.6199 69.6ZM70.4899 64C70.4899 61.89 71.7399 60.68 73.3799 60.68C75.0199 60.68 76.2699 62 76.2699 64C76.2699 66 75.0599 67.25 73.3799 67.25C72.9733 67.2365 72.5738 67.1405 72.2055 66.9677C71.8372 66.795 71.5078 66.5492 71.2375 66.2452C70.9672 65.9412 70.7615 65.5854 70.633 65.1994C70.5045 64.8134 70.4558 64.4054 70.4899 64ZM80.4199 73.63H83.4199V68.4C83.8376 68.8695 84.3531 69.2417 84.9302 69.4905C85.5072 69.7393 86.1318 69.8586 86.7599 69.84C89.9899 69.84 92.1099 67.41 92.1099 63.92C92.1099 60.43 89.7999 58 86.5699 58C85.9404 57.9852 85.3153 58.1083 84.7384 58.3605C84.1615 58.6127 83.6466 58.9879 83.2299 59.46V58.29H80.4299V73.6L80.4199 73.63ZM83.3099 63.93C83.2758 63.5246 83.3245 63.1165 83.453 62.7306C83.5815 62.3446 83.7872 61.9888 84.0575 61.6848C84.3278 61.3808 84.6572 61.135 85.0255 60.9622C85.3938 60.7895 85.7933 60.6935 86.1999 60.68C87.8799 60.68 89.0899 61.93 89.0899 63.93C89.0899 65.93 87.9299 67.25 86.1999 67.25C84.4699 67.25 83.3099 66 83.3099 63.9V63.93ZM92.6199 66.11C92.6199 68.48 94.5599 69.88 96.8399 69.88C97.3416 69.9188 97.8457 69.8496 98.3184 69.6771C98.791 69.5046 99.2212 69.2328 99.5799 68.88L99.7699 69.61H102.4V62.43C102.4 59.91 101.32 58.01 97.6999 58.01C96.1236 58.0317 94.5851 58.496 93.2599 59.35L94.3799 61.35C95.3028 60.8503 96.3308 60.5762 97.3799 60.55C98.6999 60.55 99.3799 61.22 99.3799 62.21V63C98.6612 62.5692 97.8378 62.3444 96.9999 62.35C94.3699 62.35 92.6199 63.85 92.6199 66.07V66.11ZM95.6199 66.02C95.6199 65.09 96.4199 64.45 97.5599 64.45C98.6999 64.45 99.5599 65.03 99.5599 66.02C99.5599 67.01 98.7399 67.57 97.6199 67.57C96.4999 67.57 95.6199 66.95 95.6199 66.02ZM109.62 67.25C108.778 67.2182 107.981 66.8647 107.392 66.2623C106.803 65.66 106.467 64.8547 106.455 64.0124C106.442 63.1701 106.753 62.355 107.323 61.735C107.893 61.115 108.679 60.7374 109.52 60.68C110.503 60.6892 111.444 61.0759 112.15 61.76L112.99 59.26C111.982 58.4526 110.731 58.0087 109.44 58C108.649 57.9739 107.861 58.1095 107.125 58.3987C106.389 58.6878 105.719 59.1243 105.157 59.6814C104.595 60.2385 104.153 60.9044 103.858 61.6385C103.563 62.3725 103.42 63.159 103.44 63.95C103.418 64.7383 103.56 65.5225 103.855 66.2536C104.151 66.9847 104.594 67.647 105.157 68.1989C105.72 68.7508 106.391 69.1806 107.128 69.4612C107.865 69.7419 108.652 69.8674 109.44 69.83C110.727 69.849 111.983 69.4293 113 68.64L112.2 66.21C111.489 66.8244 110.589 67.1772 109.65 67.21L109.62 67.25ZM114.08 69.6H117.08V63.75L120.85 69.57H124.34L120.07 63.4L124.07 58.29H120.73L117.06 63V54H114.06V69.57L114.08 69.6Z" fill="#1C78C0"/>
</svg>
