<svg width="128" height="128" viewBox="0 0 128 128" fill="none" xmlns="http://www.w3.org/2000/svg">
<path d="M30.1299 72.62L17.8599 79.56V74.15L25.5099 69.94L30.1399 72.61L30.1299 72.62ZM30.9699 71.86V57.34L26.4799 59.93V69.26L30.9999 71.86H30.9699ZM4.50992 72.62L16.7799 79.56V74.15L9.12992 69.95L4.50992 72.62ZM3.66992 71.86V57.34L8.15992 59.93V69.26L3.66992 71.86ZM4.19992 56.4L16.7899 49.28V54.5L8.71992 58.94H8.65992L4.19992 56.4ZM30.4499 56.4L17.8599 49.28V54.5L25.9199 58.93L25.9999 59L30.4599 56.43L30.4499 56.4Z" fill="#8ED6FB"/>
<path d="M16.7802 72.92L9.24023 68.77V60.55L16.7902 64.91L16.7802 72.92ZM17.8602 72.92L25.4102 68.77V60.55L17.8602 64.91V72.92ZM9.75023 59.6L17.3202 55.44L24.9002 59.6L17.3202 64L9.75023 59.6ZM48.6102 70H51.9302L55.3102 58.73H52.0802L50.0802 66.73L47.9402 58.73H45.1402L42.9802 66.73L40.9802 58.73H37.7702L41.1302 70H44.4502L46.5402 62.78L48.6102 70ZM55.4802 64.4C55.4426 65.1865 55.5706 65.972 55.8559 66.7058C56.1413 67.4396 56.5776 68.1053 57.1367 68.6597C57.6958 69.214 58.3651 69.6447 59.1013 69.9239C59.8375 70.203 60.6241 70.3244 61.4102 70.28C62.3485 70.319 63.2804 70.1103 64.1125 69.675C64.9445 69.2397 65.6473 68.593 66.1502 67.8L64.1502 66.31C63.84 66.7453 63.4284 67.0985 62.9509 67.339C62.4735 67.5794 61.9447 67.6999 61.4102 67.69C61.0471 67.7158 60.6824 67.6689 60.3375 67.5521C59.9927 67.4353 59.6746 67.2509 59.4018 67.0098C59.129 66.7687 58.907 66.4756 58.7488 66.1477C58.5905 65.8198 58.4993 65.4636 58.4802 65.1H66.4202V64.45C66.4202 60.77 64.4202 58.45 60.9502 58.45C57.7402 58.45 55.4302 60.99 55.4302 64.4H55.4802ZM58.6102 63.17C58.6335 62.5519 58.8956 61.9668 59.3413 61.5379C59.787 61.109 60.3817 60.8696 61.0002 60.87C61.3097 60.8552 61.619 60.9031 61.9096 61.0107C62.2001 61.1184 62.4659 61.2837 62.691 61.4966C62.916 61.7095 63.0958 61.9658 63.2194 62.2499C63.343 62.534 63.4079 62.8402 63.4102 63.15L58.6102 63.17ZM67.6102 70H70.4102V68.82C70.8317 69.2848 71.3479 69.6538 71.9241 69.9022C72.5002 70.1506 73.1229 70.2726 73.7502 70.26C76.9802 70.26 79.2702 67.83 79.2702 64.36C79.2702 60.89 77.1602 58.44 73.9202 58.44C73.29 58.4197 72.6631 58.5402 72.0853 58.7928C71.5075 59.0453 70.9934 59.4236 70.5802 59.9V54.4H67.5802V70H67.6102ZM70.5002 64.4C70.5002 62.29 71.7502 61.08 73.3902 61.08C75.0302 61.08 76.2802 62.44 76.2802 64.4C76.2802 66.36 75.0702 67.65 73.3902 67.65C72.9837 67.6365 72.5841 67.5405 72.2158 67.3678C71.8475 67.195 71.5181 66.9492 71.2478 66.6452C70.9775 66.3412 70.7718 65.9854 70.6433 65.5994C70.5148 65.2135 70.4661 64.8054 70.5002 64.4ZM80.4202 74H83.4202V68.8C83.8379 69.2695 84.3534 69.6418 84.9305 69.8906C85.5075 70.1393 86.1321 70.2586 86.7602 70.24C89.9902 70.24 92.1102 67.81 92.1102 64.32C92.1102 60.83 89.8302 58.42 86.5902 58.42C85.9607 58.4053 85.3356 58.5283 84.7587 58.7805C84.1818 59.0327 83.6669 59.408 83.2502 59.88V58.71H80.4502V74H80.4202ZM83.3102 64.3C83.2761 63.8947 83.3248 63.4866 83.4533 63.1006C83.5818 62.7146 83.7875 62.3589 84.0578 62.0549C84.3281 61.7509 84.6575 61.505 85.0258 61.3323C85.3941 61.1595 85.7937 61.0635 86.2002 61.05C87.8802 61.05 89.0902 62.3 89.0902 64.3C89.0902 66.3 87.9302 67.62 86.2002 67.62C84.4702 67.62 83.3102 66.41 83.3102 64.3ZM92.6202 66.48C92.6202 68.85 94.5602 70.25 96.8402 70.25C97.3419 70.2889 97.846 70.2197 98.3187 70.0472C98.7913 69.8747 99.2215 69.6029 99.5802 69.25L99.7702 69.98H102.4V62.85C102.4 60.33 101.32 58.43 97.7002 58.43C96.1239 58.4517 94.5854 58.916 93.2602 59.77L94.3802 61.77C95.3031 61.2704 96.3311 60.9962 97.3802 60.97C98.7002 60.97 99.3802 61.64 99.3802 62.63V63.36C98.6555 62.9502 97.8325 62.7462 97.0002 62.77C94.3702 62.77 92.6202 64.27 92.6202 66.49V66.48ZM95.6202 66.39C95.6202 65.46 96.4202 64.82 97.5602 64.82C98.7002 64.82 99.5602 65.4 99.5602 66.39C99.5602 67.38 98.6802 68 97.5602 68C96.4402 68 95.5602 67.38 95.5602 66.45L95.6202 66.39ZM109.62 67.62C108.778 67.5882 107.981 67.2347 107.392 66.6324C106.803 66.03 106.468 65.2247 106.455 64.3824C106.442 63.5401 106.753 62.725 107.323 62.105C107.893 61.4851 108.68 61.1074 109.52 61.05C110.503 61.0592 111.445 61.4459 112.15 62.13L112.99 59.63C111.973 58.8384 110.719 58.4122 109.43 58.42C108.639 58.3939 107.852 58.5296 107.115 58.8187C106.379 59.1078 105.709 59.5443 105.147 60.1014C104.586 60.6585 104.144 61.3245 103.848 62.0585C103.553 62.7925 103.411 63.5791 103.43 64.37C103.409 65.1583 103.55 65.9425 103.846 66.6736C104.141 67.4047 104.584 68.067 105.148 68.6189C105.711 69.1709 106.382 69.6006 107.119 69.8813C107.856 70.1619 108.643 70.2875 109.43 70.25C110.721 70.2713 111.98 69.8515 113 69.06L112.2 66.63C111.489 67.2444 110.589 67.5973 109.65 67.63L109.62 67.62ZM114.09 70H117.09V64.17L120.84 70H124.33L120.06 63.83L124.06 58.72H120.72L117.1 63.46V54.4H114.1V70H114.09Z" fill="#1C78C0"/>
</svg>
