<svg width="128" height="128" viewBox="0 0 128 128" fill="none" xmlns="http://www.w3.org/2000/svg">
<path d="M75.7802 113.66C77.0602 112.06 78.5702 110.3 80.3602 108.24L81.2502 107.24C82.3602 105.95 83.2502 104.96 84.1802 104C86.374 101.687 88.4086 99.228 90.2702 96.64C93.0102 92.9 94.7802 90.09 94.4902 85.27C94.3502 82.79 94.2502 81.09 92.6302 79.09C91.1479 77.4192 89.5826 75.8238 87.9402 74.31C85.8702 72.31 84.0702 70.41 81.6302 67.87C79.1902 65.33 76.0302 58.87 76.0302 58.87C74.4851 55.4511 73.412 51.838 72.8402 48.13L65.6602 11.33H45.2202L35.2202 57.74L26.3502 11.28H2.22021L24.0002 116.72H44.3202L54.4902 71.08L63.4902 116.72H72.9302L75.7802 113.66Z" fill="#2788B5"/>
<path d="M118.34 17.59C120.48 15.11 122.24 13.11 123.68 11.29H91.24C89.31 13.75 85.39 18.5 83.15 22.72C80.15 28.3 77.76 32.48 77.52 42.72L77.63 46.03C77.63 50.93 81.13 58.11 81.13 58.11C82.1778 60.069 83.3747 61.9445 84.71 63.72L85.36 64.57C88.86 68.57 94.14 73.05 96.48 75.92C99.21 79.29 99.28 82.45 99.48 84.92C99.87 91.57 97.19 95.57 94.31 99.5C89.96 105.43 88.39 106.5 85.04 110.41C82.9 112.88 81.15 114.89 79.7 116.7H113.21C115.823 113.072 118.163 109.255 120.21 105.28C123.21 99.7 125.6 95.52 125.84 85.28L125.68 82C125.68 77.1 122.18 69.91 122.18 69.91C121.126 67.9526 119.926 66.0773 118.59 64.3L117.95 63.45C114.45 59.45 109.16 54.97 106.83 52.1C104.1 48.72 104.03 45.56 103.83 43.1C103.43 36.46 106.12 32.45 109 28.52C113.42 22.57 115 21.46 118.34 17.59Z" fill="#FA930D"/>
</svg>
