<svg width="128" height="128" viewBox="0 0 128 128" fill="none" xmlns="http://www.w3.org/2000/svg">
<path d="M42.9998 72.18L39.7298 59.44H41.4698L42.9998 65.89C43.3798 67.48 43.7198 69.07 43.9398 70.29C44.1498 69.02 44.5398 67.51 44.9398 65.87L46.6398 59.44H48.3598L49.9998 65.91C50.3598 67.42 50.6998 68.91 50.8898 70.28C51.1498 68.88 51.5098 67.46 51.8898 65.88L53.5698 59.45H55.2498L51.6798 72.18H49.9998L48.3898 65.55C48.0367 64.1797 47.7596 62.7909 47.5598 61.39C47.3012 62.7936 46.9674 64.1823 46.5598 65.55L44.7498 72.18H42.9998ZM57.1198 67.91C57.0823 68.3336 57.1375 68.7603 57.2814 69.1604C57.4254 69.5605 57.6547 69.9245 57.9535 70.2271C58.2523 70.5297 58.6133 70.7636 59.0116 70.9126C59.4099 71.0616 59.8358 71.1222 60.2598 71.09C61.1272 71.1182 61.9904 70.9578 62.7898 70.62L63.0698 71.81C62.1202 72.2063 61.0986 72.4004 60.0698 72.38C59.4594 72.4183 58.848 72.3244 58.2772 72.1047C57.7064 71.885 57.1898 71.5447 56.7626 71.1071C56.3354 70.6694 56.0076 70.1447 55.8018 69.5688C55.5959 68.9929 55.5168 68.3793 55.5698 67.77C55.5698 65.01 57.1998 62.84 59.8598 62.84C62.8598 62.84 63.6398 65.47 63.6398 67.15C63.6353 67.4077 63.6153 67.6648 63.5798 67.92H57.1198V67.91ZM61.9998 66.72C62.0498 66.3858 62.0276 66.0447 61.9349 65.7197C61.8422 65.3947 61.6811 65.0933 61.4623 64.8356C61.2435 64.578 60.9722 64.3702 60.6665 64.2261C60.3608 64.082 60.0278 64.0049 59.6898 64C59.0051 64.0522 58.3643 64.3577 57.8928 64.857C57.4212 65.3563 57.1528 66.0134 57.1398 66.7L61.9998 66.72ZM65.5798 72.18C65.5798 71.56 65.6598 70.63 65.6598 69.82V58.76H67.2998V64.51C67.616 63.971 68.0742 63.5292 68.6245 63.2329C69.1747 62.9367 69.7958 62.7973 70.4198 62.83C72.6898 62.83 74.2898 64.72 74.2798 67.5C74.2798 70.77 72.2198 72.39 70.1798 72.39C69.5588 72.4251 68.9408 72.2818 68.3986 71.9771C67.8564 71.6723 67.4127 71.2188 67.1198 70.67H67.0598L66.9998 72.18H65.5798ZM67.2998 68.51C67.307 68.7122 67.3338 68.9131 67.3798 69.11C67.5181 69.6661 67.8382 70.1601 68.2894 70.5134C68.7405 70.8667 69.2968 71.0591 69.8698 71.06C71.6098 71.06 72.6498 69.64 72.6498 67.54C72.6498 65.71 71.6998 64.14 69.9298 64.14C69.3468 64.1486 68.783 64.3493 68.3256 64.7109C67.8682 65.0724 67.5428 65.5748 67.3998 66.14C67.3461 66.3629 67.3159 66.5908 67.3098 66.82V68.46L67.2998 68.51ZM76.3698 69.22C77.36 69.7204 78.4505 69.9905 79.5598 70.01C80.8798 70.01 81.5598 69.46 81.5598 68.63C81.5598 67.8 80.9598 67.38 79.4198 66.83C77.2998 66.09 75.9198 64.92 75.9198 63.07C75.9198 60.9 77.7298 59.23 80.7398 59.23C81.8565 59.2085 82.9647 59.4268 83.9898 59.87L83.3498 62.19C82.5212 61.7868 81.6114 61.5781 80.6898 61.58C79.4398 61.58 78.8398 62.15 78.8398 62.81C78.8398 63.62 79.5598 63.98 81.1998 64.61C83.4498 65.44 84.5098 66.61 84.5098 68.41C84.5098 70.55 82.8698 72.41 79.3698 72.41C78.1241 72.4259 76.8906 72.1628 75.7598 71.64L76.3698 69.22ZM89.4998 60.3V62.95H91.5598V65.07H89.4998V68.4C89.4998 69.51 89.7598 70.03 90.6298 70.03C90.915 70.0291 91.1995 70.0023 91.4798 69.95V72.12C90.875 72.308 90.2428 72.3925 89.6098 72.37C88.8169 72.4014 88.0438 72.1174 87.4598 71.58C86.8536 70.8024 86.5707 69.821 86.6698 68.84V65.06H85.4598V62.94H86.6898V60.94L89.4998 60.3ZM102.26 67.46C102.302 68.114 102.205 68.7695 101.975 69.3833C101.745 69.9971 101.388 70.5552 100.927 71.021C100.466 71.4867 99.9115 71.8495 99.3001 72.0855C98.6887 72.3215 98.0342 72.4253 97.3798 72.39C96.7444 72.426 96.1085 72.3277 95.5136 72.1015C94.9187 71.8753 94.3781 71.5263 93.9271 71.0772C93.4762 70.6281 93.1249 70.089 92.8962 69.495C92.6675 68.9011 92.5665 68.2656 92.5998 67.63C92.5582 66.9736 92.6575 66.3159 92.8911 65.701C93.1247 65.0862 93.4871 64.5284 93.9541 64.0653C94.4211 63.6021 94.9818 63.2442 95.5985 63.0156C96.2153 62.787 96.8738 62.6931 97.5298 62.74C98.1592 62.7055 98.7888 62.8038 99.3777 63.0286C99.9665 63.2535 100.501 63.5998 100.948 64.045C101.394 64.4902 101.741 65.0244 101.967 65.6128C102.193 66.2012 102.293 66.8306 102.26 67.46ZM95.5698 67.55C95.5698 69.14 96.2298 70.33 97.4598 70.33C98.6898 70.33 99.2898 69.22 99.2898 67.55C99.2898 66.17 98.7598 64.77 97.4598 64.77C96.1598 64.77 95.5698 66.19 95.5698 67.55ZM104 66C104 64.64 104 63.75 103.92 63H106.4L106.49 64.7H106.57C106.737 64.1635 107.066 63.6917 107.512 63.3497C107.957 63.0077 108.498 62.8122 109.06 62.79C109.263 62.7693 109.467 62.7693 109.67 62.79V65.49C109.416 65.4392 109.158 65.4124 108.9 65.41C108.445 65.3632 107.989 65.4865 107.62 65.7561C107.25 66.0257 106.994 66.4225 106.9 66.87C106.86 67.081 106.84 67.2953 106.84 67.51V72.2H104V66ZM111.21 65.89C111.21 64.74 111.21 63.75 111.13 62.94H113.55L113.68 64.19H113.74C114.041 63.726 114.457 63.3477 114.948 63.0919C115.438 62.8361 115.987 62.7115 116.54 62.73C117.071 62.704 117.598 62.8403 118.05 63.1207C118.501 63.4011 118.857 63.8125 119.07 64.3C119.388 63.851 119.792 63.4702 120.26 63.18C120.793 62.8698 121.403 62.714 122.02 62.73C123.8 62.73 125.14 63.98 125.14 66.73V72.17H122.34V67.17C122.34 65.83 121.91 65.05 120.98 65.05C120.682 65.0562 120.395 65.1562 120.158 65.3358C119.92 65.5154 119.746 65.7654 119.66 66.05C119.585 66.2894 119.548 66.5391 119.55 66.79V72.2H116.75V67C116.75 65.83 116.33 65 115.43 65C115.131 65.0094 114.842 65.1104 114.603 65.2892C114.363 65.4681 114.184 65.7162 114.09 66C114.007 66.2308 113.97 66.4752 113.98 66.72V72.11H111.18V65.89H111.21ZM18.4698 74.56C18.7398 74.22 19.0598 73.85 19.4698 73.41L19.6598 73.19C19.8998 72.92 20.0898 72.71 20.2798 72.5C20.7483 72.0068 21.1826 71.4822 21.5798 70.93C21.8815 70.6056 22.1163 70.2249 22.2708 69.8096C22.4252 69.3944 22.4962 68.9528 22.4798 68.51C22.5048 68.0399 22.3632 67.576 22.0798 67.2C21.7633 66.8503 21.4296 66.5165 21.0798 66.2C20.6398 65.77 20.2598 65.37 19.7398 64.83C19.2734 64.236 18.8743 63.592 18.5498 62.91C18.2211 62.1843 17.9924 61.4173 17.8698 60.63L16.3398 52.8H11.9998L9.83982 62.66L7.99982 52.79H2.81982L7.44982 75.21H11.7698L13.9298 65.5L15.8398 75.21H17.8398L18.4698 74.56Z" fill="#2788B5"/>
<path d="M27.5196 54.13C27.9696 53.6 28.3496 53.13 28.6596 52.79H21.7596C21.1071 53.5502 20.5184 54.363 19.9996 55.22C19.2029 56.4972 18.7867 57.9749 18.7996 59.48V60.18C18.8935 61.0735 19.144 61.9435 19.5396 62.75C19.7622 63.1655 20.0162 63.5634 20.2996 63.94L20.4396 64.12C21.1796 64.97 22.3096 65.92 22.8096 66.54C23.2331 67.0853 23.4556 67.7598 23.4396 68.45C23.4886 69.5869 23.0942 70.6983 22.3396 71.55C21.7204 72.363 21.0525 73.1378 20.3396 73.87C19.8896 74.4 19.5096 74.87 19.1996 75.21H26.3296C26.8858 74.4381 27.3838 73.6258 27.8196 72.78C28.6163 71.5029 29.0326 70.0252 29.0196 68.52V67.82C28.9256 66.9266 28.6751 66.0567 28.2796 65.25C28.0564 64.8349 27.8024 64.4371 27.5196 64.06L27.3796 63.88C26.6396 63.03 25.5096 62.08 25.0096 61.46C24.5861 60.9148 24.3636 60.2402 24.3796 59.55C24.3307 58.4132 24.725 57.3018 25.4796 56.45C26.1122 55.6363 26.7935 54.8615 27.5196 54.13Z" fill="#2788B5"/>
</svg>
