<svg width="128" height="128" viewBox="0 0 128 128" fill="none" xmlns="http://www.w3.org/2000/svg">
<path d="M42.2899 72.45L38.9999 59.3H40.7999L42.3599 65.95C42.7499 67.59 43.0999 69.23 43.3599 70.5C43.5699 69.19 43.9799 67.63 44.4299 65.94L46.1899 59.31H47.9699L49.5299 66C49.8999 67.56 50.2499 69.12 50.4499 70.51C50.7199 69.07 51.0899 67.6 51.4999 65.96L53.2399 59.33H54.9999L51.2799 72.45H49.5099L47.8499 65.6C47.4877 64.1868 47.204 62.7546 46.9999 61.31C46.7434 62.7568 46.4095 64.1889 45.9999 65.6L44.1299 72.45H42.2899ZM56.8999 68C56.8572 68.4379 56.9114 68.8798 57.0586 69.2943C57.2057 69.7089 57.4423 70.0861 57.7514 70.3991C58.0606 70.712 58.4348 70.9532 58.8476 71.1054C59.2603 71.2577 59.7015 71.3173 60.1399 71.28C61.035 71.3068 61.9254 71.1396 62.7499 70.79L62.9999 72.06C62.0065 72.4758 60.9364 72.6768 59.8599 72.65C59.2302 72.6883 58.5997 72.5904 58.0113 72.363C57.4228 72.1357 56.8903 71.7841 56.45 71.3324C56.0097 70.8807 55.6718 70.3394 55.4596 69.7453C55.2473 69.1513 55.1655 68.5185 55.2199 67.89C55.2199 65.04 56.8999 62.8 59.6499 62.8C62.7299 62.8 63.5499 65.51 63.5499 67.25C63.5461 67.5177 63.526 67.7848 63.4899 68.05H56.8999V68ZM61.8999 66.77C61.8999 65.68 61.4499 63.98 59.5199 63.98C58.8122 64.0324 58.1497 64.3478 57.663 64.8642C57.1762 65.3806 56.9004 66.0605 56.8899 66.77H61.8999ZM65.6299 72.45C65.6299 71.81 65.7099 70.85 65.7099 70.01V58.6H67.4099V64.53C67.7354 63.9726 68.208 63.5155 68.7759 63.2086C69.3438 62.9017 69.9852 62.7569 70.6299 62.79C72.9699 62.79 74.6299 64.79 74.6299 67.61C74.6299 70.98 72.4999 72.66 70.3999 72.66C69.758 72.6967 69.1192 72.5485 68.5591 72.233C67.999 71.9175 67.5411 71.4479 67.2399 70.88H67.1799L67.0999 72.44H65.6299V72.45ZM67.4099 68.67C67.4164 68.8788 67.4432 69.0864 67.4899 69.29C67.6345 69.8619 67.9659 70.3691 68.4314 70.7314C68.8969 71.0936 69.47 71.2902 70.0599 71.29C71.8599 71.29 72.9299 69.83 72.9299 67.66C72.9299 65.77 71.9299 64.15 70.1199 64.15C69.5125 64.1626 68.9265 64.3767 68.454 64.7586C67.9815 65.1406 67.6494 65.6687 67.5099 66.26C67.4521 66.4892 67.4186 66.7238 67.4099 66.96V68.66V68.67ZM76.7699 69.38C77.7937 69.8994 78.922 70.1798 80.0699 70.2C81.4399 70.2 82.1599 69.63 82.1599 68.78C82.1599 67.93 81.5399 67.49 79.9599 66.93C77.7799 66.17 76.3499 64.93 76.3499 63.05C76.3499 60.81 78.2199 59.05 81.3499 59.05C82.5042 59.0268 83.6501 59.2519 84.7099 59.71L83.9999 62.15C83.1424 61.7366 82.2018 61.5246 81.2499 61.53C79.9599 61.53 79.3399 62.12 79.3399 62.8C79.3399 63.64 80.0799 64.01 81.7799 64.65C84.0999 65.51 85.1899 66.72 85.1899 68.57C85.1899 70.77 83.4899 72.65 79.8799 72.65C78.5923 72.6656 77.3177 72.3922 76.1499 71.85L76.7699 69.38ZM90.3199 60.18V62.91H92.4499V65.1H90.3199V68.55C90.3199 69.7 90.5899 70.23 91.4899 70.23C91.785 70.2301 92.0796 70.2033 92.3699 70.15V72.39C91.7452 72.5813 91.0927 72.6658 90.4399 72.64C90.0341 72.6559 89.6292 72.5917 89.2482 72.451C88.8673 72.3103 88.5179 72.0959 88.2199 71.82C87.606 71.0151 87.3201 70.0074 87.4199 69V65.1H86.1499V62.91H87.4199V60.84L90.3199 60.18ZM103.49 67.57C103.533 68.2419 103.433 68.9153 103.199 69.5462C102.964 70.1771 102.598 70.7515 102.127 71.2318C101.655 71.712 101.087 72.0875 100.461 72.3336C99.8339 72.5797 99.1624 72.6909 98.4899 72.66C97.8326 72.6991 97.1746 72.5988 96.5589 72.3656C95.9432 72.1324 95.3837 71.7717 94.9172 71.3071C94.4508 70.8425 94.0878 70.2845 93.8521 69.6698C93.6165 69.055 93.5135 68.3974 93.5499 67.74C93.5068 67.0622 93.6092 66.383 93.8503 65.7481C94.0914 65.1131 94.4656 64.5372 94.9477 64.0588C95.4299 63.5805 96.0088 63.2108 96.6456 62.9747C97.2824 62.7386 97.9624 62.6416 98.6399 62.69C99.2874 62.6598 99.934 62.7655 100.538 63.0005C101.142 63.2354 101.69 63.5944 102.147 64.0541C102.604 64.5139 102.96 65.0643 103.191 65.6699C103.422 66.2754 103.524 66.9227 103.49 67.57ZM96.5799 67.67C96.5799 69.31 97.2599 70.54 98.5799 70.54C99.8999 70.54 100.47 69.39 100.47 67.67C100.47 66.25 99.9199 64.8 98.5799 64.8C97.2399 64.8 96.5799 66.26 96.5799 67.67ZM105.32 66C105.32 64.6 105.32 63.68 105.24 62.86H107.79L107.89 64.62H108C108.166 64.0603 108.503 63.5666 108.964 63.208C109.425 62.8494 109.986 62.6438 110.57 62.62C110.776 62.5986 110.984 62.5986 111.19 62.62V65.41C110.926 65.358 110.658 65.3312 110.39 65.33C109.931 65.2958 109.476 65.4289 109.108 65.7047C108.741 65.9806 108.485 66.3804 108.39 66.83C108.349 67.0476 108.329 67.2686 108.33 67.49V72.33H105.33V66H105.32ZM112.73 65.95C112.73 64.76 112.73 63.75 112.65 62.95H115.15L115.29 64.24H115.35C115.661 63.7621 116.091 63.3729 116.598 63.1101C117.104 62.8473 117.67 62.7198 118.24 62.74C118.788 62.7128 119.331 62.8532 119.798 63.1427C120.264 63.4321 120.631 63.8567 120.85 64.36C121.179 63.8987 121.597 63.5077 122.08 63.21C122.628 62.8892 123.255 62.7265 123.89 62.74C125.72 62.74 127.11 64.03 127.11 66.88V72.5H124.22V67.26C124.22 65.88 123.77 65.08 122.82 65.08C122.515 65.0818 122.219 65.1793 121.973 65.3588C121.728 65.5383 121.544 65.7906 121.45 66.08C121.371 66.3256 121.33 66.582 121.33 66.84V72.42H118.44V67.1C118.44 65.89 118.01 65.1 117.08 65.1C116.766 65.1114 116.463 65.2207 116.214 65.4125C115.964 65.6043 115.781 65.8691 115.69 66.17C115.604 66.4069 115.563 66.658 115.57 66.91V72.47H112.68V65.97L112.73 65.95ZM16.9999 74.9C17.2799 74.55 17.6099 74.16 17.9999 73.71L18.1999 73.48C18.4399 73.2 18.6499 72.98 18.8399 72.77C19.3227 72.261 19.7704 71.7197 20.1799 71.15C20.4917 70.8149 20.7343 70.4216 20.8939 69.9927C21.0535 69.5637 21.1269 69.1074 21.1099 68.65C21.1442 68.1618 20.9983 67.6779 20.6999 67.29C20.3841 66.9237 20.0504 66.5732 19.6999 66.24C19.2499 65.8 18.8499 65.38 18.3099 64.83C17.8267 64.2112 17.4142 63.5404 17.0799 62.83C16.7406 62.0787 16.5051 61.2848 16.3799 60.47L14.7999 52.39H10.2999L8.09986 62.61L6.15986 52.43H0.859863L5.63986 75.57H10.0999L12.3299 65.57L14.3299 75.57H16.3999L16.9999 74.9Z" fill="#2788B5"/>
<path d="M26.3502 53.8101C26.8202 53.2701 27.2102 52.8101 27.5202 52.4301H20.4002C19.7392 53.2166 19.1439 54.0561 18.6202 54.9401C17.7971 56.2591 17.367 57.7853 17.3802 59.3401V60.0701C17.4794 60.9917 17.74 61.8887 18.1502 62.7201C18.4012 63.1483 18.6854 63.5562 19.0002 63.9401L19.1402 64.1301C19.8702 65.0001 21.0002 66.0001 21.5502 66.6201C21.9963 67.189 22.2266 67.8975 22.2002 68.6201C22.2524 69.7928 21.8473 70.9401 21.0702 71.8201C20.4517 72.6558 19.7838 73.4539 19.0702 74.2101C18.6002 74.7501 18.2202 75.2101 17.9002 75.59H25.2602C25.8351 74.7928 26.3499 73.9538 26.8002 73.0801C27.6116 71.7541 28.0279 70.2243 28.0002 68.6701V67.9401C27.901 67.0184 27.6403 66.1214 27.2302 65.2901C26.9981 64.8608 26.734 64.4497 26.4402 64.0601L26.3002 63.8701C25.5002 63.0001 24.3402 62.0001 23.8302 61.3801C23.384 60.8111 23.1538 60.1026 23.1802 59.3801C23.1307 58.2059 23.5395 57.0585 24.3202 56.1801C24.9495 55.3507 25.6273 54.5593 26.3502 53.8101Z" fill="#FA930D"/>
</svg>
