<svg width="128" height="128" viewBox="0 0 128 128" fill="none" xmlns="http://www.w3.org/2000/svg">
<path d="M75.62 113C76.88 111.42 78.37 109.69 80.14 107.65L81.02 106.65C82.12 105.38 83.02 104.4 83.91 103.45C86.0714 101.168 88.076 98.7425 89.91 96.19C92.62 92.5 94.36 89.73 94.08 84.97C93.94 82.52 93.84 80.84 92.25 78.87C90.7867 77.2201 89.2414 75.6448 87.62 74.15C85.62 72.15 83.8 70.3 81.39 67.79C78.98 65.28 75.86 58.9 75.86 58.9C74.3378 55.5253 73.2815 51.9593 72.72 48.3L65.64 12H45.47L35.6 57.77L26.85 12H3L24.52 116H44.59L54.59 71L63.46 116H72.8L75.62 113Z" fill="#2788B5"/>
<path d="M117.61 18.2C119.72 15.76 121.45 13.78 122.88 11.98H90.8801C88.9801 14.41 85.1101 19.1 82.8801 23.26C80.0001 28.76 77.5901 32.89 77.3501 43L77.4601 46.26C77.4601 51.09 80.9101 58.18 80.9101 58.18C81.9462 60.1147 83.1297 61.9669 84.4501 63.72L85.0901 64.56C88.5401 68.56 93.7601 72.93 96.0901 75.76C98.7801 79.08 98.8601 82.2 99.0001 84.63C99.3901 91.19 96.7401 95.14 93.9001 99.02C89.5501 104.91 88.0001 106 84.7001 109.82C82.5901 112.26 80.8601 114.24 79.4301 116.03H112.5C115.083 112.45 117.396 108.683 119.42 104.76C122.34 99.26 124.74 95.13 124.97 85L124.86 81.73C124.86 76.89 121.41 69.8 121.41 69.8C120.371 67.8671 119.187 66.0152 117.87 64.26L117.23 63.42C113.78 59.42 108.56 55.06 106.23 52.22C103.54 48.89 103.46 45.77 103.32 43.35C102.93 36.8 105.58 32.84 108.42 28.96C112.77 23.12 114.31 22 117.61 18.2Z" fill="#2788B5"/>
</svg>
