<svg width="128" height="128" viewBox="0 0 128 128" fill="none" xmlns="http://www.w3.org/2000/svg">
<path d="M0.5 55.235L10.369 53.892L10.373 63.411L0.51 63.466L0.5 55.235ZM10.363 64.505L10.371 74.032L0.508 72.675V64.443L10.363 64.505ZM11.559 53.716L24.641 51.806V63.287L11.559 63.391V53.716ZM24.647 64.596L24.641 76.026L11.559 74.179L11.541 64.574L24.647 64.596ZM51.182 56.717L47.14 71.193L44.741 71.17L41.589 59.751C41.614 59.155 41.661 59.586 41.661 59.586L38.475 71.158L36.072 71.183L31.903 56.723L34.152 56.717L37.354 68.778L37.29 68.741L40.656 56.717L42.813 56.724L46.013 68.987L45.958 68.812L48.982 56.73L51.182 56.717ZM53.192 58.435C52.832 58.435 52.531 58.315 52.285 58.077C52.1643 57.9612 52.0691 57.8213 52.0055 57.6665C51.942 57.5117 51.9115 57.3453 51.916 57.178C51.916 56.824 52.04 56.523 52.287 56.28C52.535 56.036 52.838 55.914 53.192 55.914C53.549 55.914 53.854 56.037 54.108 56.281C54.2302 56.3958 54.3269 56.535 54.392 56.6895C54.4571 56.844 54.4892 57.0104 54.486 57.178C54.486 57.522 54.36 57.817 54.11 58.063C53.9901 58.1839 53.8469 58.2792 53.6892 58.3432C53.5314 58.4071 53.3622 58.4384 53.192 58.435ZM54.086 71.196L52.133 71.182L52.092 60.859L54.098 60.847L54.086 71.196ZM65.308 71.208H63.32V65.449C63.32 63.418 62.672 62.261 61.13 62.277C60.388 62.277 59.7 62.578 59.206 63.148C58.599 63.846 58.486 64.228 58.48 65.449L58.455 71.208L56.441 71.19L56.449 60.869L58.429 60.861L58.445 63.205L58.158 62.937C58.917 61.608 59.941 60.597 61.755 60.597C62.937 60.597 63.809 60.918 64.438 61.683C65.063 62.448 65.292 63.632 65.292 65.032L65.308 71.208ZM76.915 71.377H74.84V69.648H75.157C74.403 70.96 73.192 71.615 71.528 71.615C70.174 71.615 69.097 71.137 68.297 70.185C67.497 69.231 67.096 67.947 67.096 66.329C67.096 64.602 67.538 63.207 68.423 62.151C69.306 61.095 70.49 60.566 71.977 60.566C73.462 60.566 74.522 61.117 75.158 62.216H74.841V55.921H76.916V71.377H76.915ZM74.84 66.576V65.078C74.84 64.311 74.589 63.662 74.085 63.135C73.582 62.606 72.948 62.343 72.186 62.343C71.269 62.343 70.543 62.683 70.01 63.365C69.478 64.048 69.21 65.009 69.21 66.25C69.21 67.379 69.465 68.262 69.973 68.892C70.483 69.525 71.159 69.839 72.006 69.839C72.842 69.839 73.523 69.534 74.05 68.923C74.577 68.314 74.84 67.53 74.84 66.576ZM83.671 71.517C82.1 71.517 80.847 71.026 79.91 70.04C78.972 69.053 78.504 67.757 78.504 66.147C78.504 64.403 78.992 63.032 79.966 62.035C80.941 61.04 82.255 60.542 83.91 60.542C85.494 60.542 86.732 61.025 87.622 61.997C88.513 62.967 88.957 64.298 88.957 65.989C88.957 67.649 88.479 68.984 87.521 69.997C86.564 71.01 85.281 71.517 83.671 71.517ZM83.791 62.307C82.817 62.307 82.044 62.638 81.474 63.3C80.904 63.961 80.619 64.891 80.619 66.089C80.619 67.241 80.906 68.14 81.482 68.787C82.056 69.432 82.828 69.753 83.792 69.753C84.769 69.753 85.524 69.439 86.053 68.805C86.582 68.174 86.846 67.255 86.846 66.05C86.846 64.834 86.58 63.906 86.051 63.267C85.522 62.626 84.768 62.307 83.791 62.307ZM104.34 60.83L101.302 71.198L99.156 71.212L96.975 63.186L96.985 63.198L94.553 71.206H92.537L89.338 60.83H91.485L93.689 69.257L93.632 69.342L96.094 60.83H97.967L100.338 69.569L100.27 69.31L102.288 60.83H104.34ZM105.08 70.925V68.858C106.045 69.513 106.977 69.839 107.882 69.839C109.022 69.839 109.592 69.43 109.592 68.612C109.592 68.378 109.544 68.181 109.45 68.02C109.349 67.8494 109.216 67.7002 109.058 67.581C108.861 67.4306 108.647 67.304 108.42 67.204L107.648 66.855C107.272 66.6906 106.907 66.5032 106.554 66.294C106.256 66.1194 105.987 65.9002 105.755 65.644C105.537 65.3997 105.37 65.115 105.262 64.806C105.145 64.452 105.089 64.0808 105.095 63.708C105.095 63.193 105.199 62.741 105.408 62.349C105.616 61.956 105.891 61.627 106.238 61.362C106.59 61.0933 106.989 60.8914 107.414 60.766C107.849 60.6325 108.301 60.5647 108.756 60.565C109.566 60.565 110.333 60.744 111.055 61.102V63.075C110.213 62.587 109.381 62.342 108.561 62.342C108.313 62.342 108.089 62.373 107.895 62.436C107.713 62.4905 107.544 62.5787 107.395 62.696C107.262 62.7988 107.156 62.931 107.083 63.0821C107.01 63.2333 106.974 63.3993 106.976 63.567C106.976 63.805 107.013 63.998 107.084 64.149C107.156 64.301 107.267 64.436 107.414 64.562C107.563 64.688 107.749 64.804 107.973 64.91L108.756 65.268C109.185 65.453 109.558 65.638 109.877 65.821C110.197 66.004 110.477 66.218 110.716 66.463C110.956 66.706 111.141 66.991 111.273 67.317C111.405 67.641 111.47 68.021 111.47 68.456C111.47 68.988 111.364 69.457 111.149 69.859C110.945 70.2492 110.657 70.5885 110.304 70.852C109.944 71.1173 109.538 71.313 109.106 71.429C108.647 71.5548 108.174 71.6177 107.698 71.616C106.728 71.615 105.857 71.385 105.08 70.925ZM117.846 67.202C117.857 66.38 118.107 65.579 118.566 64.897C118.797 64.551 119.087 64.234 119.431 63.949C119.777 63.662 120.125 63.487 120.477 63.418C119.899 63.192 119.419 62.796 119.036 62.228C118.657 61.669 118.457 61.0075 118.464 60.332C118.458 59.8159 118.562 59.3044 118.769 58.8318C118.976 58.3591 119.282 57.9361 119.666 57.591C120.043 57.249 120.489 56.981 121.013 56.788C121.549 56.5919 122.116 56.4934 122.687 56.497C123.261 56.4932 123.831 56.5931 124.369 56.792C124.89 56.99 125.341 57.26 125.716 57.6C126.096 57.946 126.398 58.3681 126.604 58.8389C126.81 59.3096 126.914 59.8183 126.91 60.332C126.91 61.026 126.719 61.657 126.336 62.226C125.95 62.794 125.479 63.192 124.916 63.416C125.262 63.485 125.604 63.662 125.942 63.945C126.597 64.4856 127.082 65.2031 127.34 66.012C127.464 66.409 127.525 66.807 127.525 67.202C127.525 67.847 127.407 68.44 127.171 68.983C126.942 69.5161 126.6 69.9931 126.169 70.381C125.723 70.7782 125.205 71.0848 124.642 71.284C124.014 71.5028 123.352 71.6111 122.687 71.604C121.977 71.604 121.33 71.496 120.744 71.284C120.181 71.0828 119.662 70.7764 119.214 70.381C118.782 69.9935 118.438 69.5178 118.205 68.986C117.961 68.4234 117.838 67.8154 117.846 67.202ZM120.058 67.065C120.058 67.492 120.121 67.871 120.247 68.202C120.373 68.534 120.55 68.813 120.775 69.046C121.004 69.275 121.279 69.453 121.601 69.577C121.921 69.7 122.288 69.762 122.695 69.762C123.059 69.7657 123.42 69.7009 123.76 69.571C124.069 69.4512 124.351 69.2695 124.588 69.037C124.829 68.795 125.016 68.5055 125.139 68.187C125.273 67.85 125.342 67.477 125.342 67.066C125.342 66.694 125.277 66.348 125.149 66.023C125.029 65.7037 124.846 65.4119 124.611 65.1653C124.375 64.9186 124.092 64.7223 123.779 64.588C123.436 64.4437 123.067 64.3722 122.695 64.378C122.319 64.378 121.973 64.445 121.651 64.576C121.34 64.7014 121.057 64.8881 120.819 65.125C120.579 65.3678 120.389 65.6561 120.262 65.973C120.122 66.3198 120.052 66.6911 120.058 67.065ZM120.566 60.462C120.566 60.779 120.621 61.07 120.731 61.33C120.843 61.589 120.999 61.82 121.195 62.018C121.392 62.217 121.62 62.37 121.872 62.478C122.126 62.588 122.401 62.641 122.696 62.641C122.989 62.641 123.264 62.586 123.522 62.472C123.782 62.36 124.005 62.204 124.199 62.01C124.394 61.8094 124.552 61.5749 124.663 61.318C124.777 61.053 124.836 60.768 124.836 60.463C124.836 60.143 124.779 59.852 124.669 59.586C124.507 59.1964 124.233 58.8635 123.882 58.6298C123.531 58.396 123.118 58.2719 122.696 58.273C122.38 58.273 122.091 58.33 121.831 58.444C121.578 58.5512 121.349 58.7085 121.158 58.9064C120.967 59.1044 120.819 59.339 120.721 59.596C120.615 59.8723 120.562 60.1662 120.566 60.462Z" fill="#00ADEF"/>
</svg>
