<svg width="129" height="128" viewBox="0 0 129 128" fill="none" xmlns="http://www.w3.org/2000/svg">
<path d="M108.6 46.9C106.3 46.7 101.9 47.9 99.8999 57.7C99.8999 63.6 101.3 67.2 103.5 68.5C107.6 69.7 112.4 64.2 112.4 58.3C112.6 54.2 112.8 49.1 108.6 46.9Z" fill="#7E53A4"/>
<path d="M116.3 25.8H11.7C5.2 25.8 0 31.0001 0 37.4001V77.4001C0 83.8001 5.2 89.1 11.7 89.1H116.4C122.8 89.1 128.1 83.9001 128.1 77.4001V37.4001C128 31.0001 122.8 25.8 116.3 25.8ZM44 80C44 80 37.1 70.9001 35.5 64C33.9 57.2001 33.5 60.3 33.5 60.3C33.5 60.3 28 72.7 22.3 80.6C16.6 88.5 13.8 76.7 13.8 76.7C11.8 74.3 6.1 39.4001 6.1 39.4001C9.3 30.5001 14.8 37.8 14.8 37.8L20.3 66.2C20.3 66.2 28.8 48.8 31.7 44.3C34.5 39.8 39.4 41.1 39.8 45.7001C40.2 50.4001 44.9 63.1 44.9 63.1C45.3 49.7 50.8 36.9001 51.6 34.9001C52.4 32.9001 61.3 30.4 59.7 39C55.8 48.5 52 68.6 53 79.6C50.3 87.9 44 80 44 80ZM79.9 75.5C77.3 76.7001 67.6 83.4001 60.7 68.4001C56.4 53.3001 66 42.2001 66 42.2001C66 42.2001 78.5 31.5001 87 45.7001C93.9 61.3 82.5 74.3 79.9 75.5ZM111.7 75.5C109.1 76.7001 99.4 83.4001 92.5 68.4001C88.2 53.3001 97.8 42.2001 97.8 42.2001C97.8 42.2001 110.4 31.4 118.9 45.6C125.8 61.3 114.3 74.3 111.7 75.5Z" fill="#7E53A4"/>
<path d="M76.6998 46.9C74.3998 46.7 69.9998 47.9 67.9998 57.7C67.9998 63.6 69.3998 67.2 71.5998 68.5C75.6998 69.7 80.4998 64.2 80.4998 58.3C80.7998 54.2 80.9998 49.1 76.6998 46.9ZM61.2998 89.1L83.5998 102.2L78.8998 89.1L66.0998 85.5L61.2998 89.1Z" fill="#7E53A4"/>
</svg>
