<svg width="128" height="128" viewBox="0 0 128 128" fill="none" xmlns="http://www.w3.org/2000/svg">
<path d="M12.1 102.4H9.8C6.9 102.4 4.6 100.1 4.6 97.2C4.6 94.2 7 91.8 10 91.8H12.1V87.6H9.3C4.2 87.6 0 91.8 0 96.9C0 102.6 4.6 107.2 10.3 107.2H12.1V102.4ZM115.9 102.4H113.6C110.7 102.4 108.4 100.1 108.4 97.2C108.4 94.2 110.8 91.8 113.8 91.8H115.9V87.6H113C107.9 87.6 103.7 91.8 103.7 96.9C103.7 102.6 108.3 107.2 114 107.2H115.8V102.4H115.9ZM22.1 87.6C17.6 87.6 14 92 14 97.4C14 102.8 17.6 107.2 22.1 107.2C26.6 107.2 30.2 102.8 30.2 97.4C30.2 92 26.6 87.6 22.1 87.6ZM22.1 103.5C20.1 103.5 18.6 100.8 18.6 97.5C18.6 94.2 20.2 91.5 22.1 91.5C24.1 91.5 25.6 94.2 25.6 97.5C25.6 100.8 24 103.5 22.1 103.5ZM30.2 107.2L33.3 87.6H39.8L41.7 97.4L44.2 87.6H50.2L53.1 107.2H48.1L46.5 93.9L43.8 107.2H40.4L36.7 94.1L35 107.2H30.2ZM54.2 107.2L57.3 87.6H63.8L65.6 97.4L68.1 87.6H74.2L77.1 107.2H72.1L70.4 93.9L67.7 107.2H64.4L60.6 94.1L59 107.2H54.2ZM77.9 107.2V87.6H88.1V91.4H83V95.6H87.5V99.2H82.4V103H88.1V107.2H77.9ZM117.8 107.2V87.6H128V91.4H122.9V95.6H127.4V99.2H122.3V103H128V107.2H117.8Z" fill="black"/>
<path d="M99.9999 98.1C101.6 98.1 103 96.8 103 95.1V93.3C103 90.1 100.4 87.6 97.2999 87.6H89.8999V107.2H94.4999V98L99.4999 107.2H104.6L99.9999 98.1ZM96.0999 96.4H94.3999V91.6H96.2999C97.5999 91.6 98.5999 92.6 98.5999 93.9C98.4999 95.3 97.3999 96.4 96.0999 96.4Z" fill="black"/>
<path d="M104 71.5H24.3001C17.9001 71.5 12.6001 66.2999 12.6001 59.7999V32.4C12.6001 26 17.8001 20.7 24.3001 20.7H104C110.4 20.7 115.7 25.9 115.7 32.4V59.7999C115.7 66.2999 110.4 71.5 104 71.5Z" fill="#7F54B3"/>
<path d="M23.8001 61.6C23.8001 61.6 26.1001 71 30.7001 64.7C35.3001 58.4 39.7001 48.5 39.7001 48.5C39.7001 48.5 40.0001 46 41.3001 51.5C42.6001 57 48.2001 64.3 48.2001 64.3C48.2001 64.3 53.3001 70.6 55.4001 64C54.6001 55.2 57.7001 39.2 60.8001 31.5C62.1001 24.7 54.9001 26.6 54.3001 28.3C53.7001 30 49.1001 40 48.8001 50.7C48.8001 50.7 45.0001 40.5 44.7001 36.7C44.4001 33 40.5001 32 38.2001 35.6C35.9001 39.2 29.0001 53.1 29.0001 53.1L24.6001 30.4C24.6001 30.4 20.2001 24.6 17.6001 31.7C17.6001 31.7 22.2001 59.6 23.8001 61.6ZM82.7001 36.7C75.8001 25.3 65.7001 33.9 65.7001 33.9C65.7001 33.9 58.0001 42.8 61.5001 54.9C67.1001 66.9 74.8001 61.5 76.9001 60.6C79.0001 59.6 88.2001 49.2 82.7001 36.7ZM77.5001 46.7C77.5001 51.5 73.6001 55.9 70.3001 54.9C68.5001 53.9 67.4001 51 67.4001 46.3C69.0001 38.5 72.6001 37.5 74.4001 37.7C77.8001 39.5 77.6001 43.6 77.5001 46.7ZM108.3 36.7C101.4 25.3 91.3001 33.9 91.3001 33.9C91.3001 33.9 83.6001 42.8 87.1001 54.9C92.7001 66.9 100.4 61.5 102.5 60.6C104.7 59.6 113.9 49.2 108.3 36.7ZM103.1 46.7C103.1 51.5 99.2001 55.9 95.9001 54.9C94.1001 53.9 93.0001 51 93.0001 46.3C94.6001 38.5 98.2001 37.5 100 37.7C103.4 39.5 103.3 43.6 103.1 46.7Z" fill="white"/>
<path d="M62 71.5L79.9 82L76.2 71.5L65.9 68.6L62 71.5Z" fill="#7F54B3"/>
</svg>
