<svg width="129" height="128" viewBox="0 0 129 128" fill="none" xmlns="http://www.w3.org/2000/svg">
<path d="M116.3 89.1H11.7C5.2 89.1 0 83.9001 0 77.4001V37.4001C0 31.0001 5.2 25.8 11.7 25.8H116.4C122.8 25.8 128.1 31 128.1 37.5V77.5C128 83.9001 122.8 89.1 116.3 89.1Z" fill="#7F54B3"/>
<path d="M13.8001 76.6999C13.8001 76.6999 16.6001 88.4999 22.3001 80.5999C28.0001 72.6999 33.5001 60.2999 33.5001 60.2999C33.5001 60.2999 33.9001 57.1999 35.5001 63.9999C37.1001 70.7999 44.0001 79.9999 44.0001 79.9999C44.0001 79.9999 50.3001 87.8999 52.9001 79.5999C51.9001 68.5999 55.7001 48.5999 59.6001 38.9999C61.2001 30.4999 52.3001 32.8999 51.5001 34.8999C50.7001 36.8999 45.2001 49.6999 44.8001 63.0999C44.8001 63.0999 40.1001 50.2999 39.7001 45.6999C39.3001 40.9999 34.4001 39.7999 31.6001 44.2999C28.8001 48.7999 20.3001 66.1999 20.3001 66.1999L14.8001 37.7999C14.8001 37.7999 9.3001 30.4999 6.1001 39.3999C6.1001 39.3999 11.8001 74.2999 13.8001 76.6999ZM87.0001 45.6999C78.5001 31.4999 65.9001 42.2999 65.9001 42.2999C65.9001 42.2999 56.3001 53.3999 60.6001 68.4999C67.5001 83.3999 77.2001 76.7999 79.8001 75.5999C82.5001 74.2999 93.9001 61.2999 87.0001 45.6999ZM80.5001 58.1999C80.5001 64.0999 75.6001 69.5999 71.6001 68.3999C69.4001 67.0999 68.0001 63.5999 68.0001 57.5999C70.0001 47.8999 74.4001 46.5999 76.7001 46.7999C81.0001 49.0999 80.8001 54.1999 80.5001 58.1999ZM118.9 45.6999C110.4 31.4999 97.8001 42.2999 97.8001 42.2999C97.8001 42.2999 88.2001 53.3999 92.5001 68.4999C99.4001 83.3999 109.1 76.7999 111.7 75.5999C114.3 74.2999 125.8 61.2999 118.9 45.6999ZM112.4 58.1999C112.4 64.0999 107.5 69.5999 103.5 68.3999C101.3 67.0999 99.9001 63.5999 99.9001 57.5999C101.9 47.8999 106.3 46.5999 108.6 46.7999C112.8 49.0999 112.6 54.1999 112.4 58.1999Z" fill="white"/>
<path d="M61.2998 89.1L83.5998 102.2L78.8998 89.1L66.0998 85.5L61.2998 89.1Z" fill="#7F54B3"/>
</svg>
