<svg width="128" height="128" viewBox="0 0 128 128" fill="none" xmlns="http://www.w3.org/2000/svg">
<path d="M12.1 102.4H9.8C6.9 102.4 4.6 100.1 4.6 97.2C4.6 94.2 7 91.8 10 91.8H12.1V87.6H9.3C4.2 87.6 0 91.8 0 96.9C0 102.6 4.6 107.2 10.3 107.2H12.1V102.4ZM115.9 102.4H113.6C110.7 102.4 108.4 100.1 108.4 97.2C108.4 94.2 110.8 91.8 113.8 91.8H115.9V87.6H113C107.9 87.6 103.7 91.8 103.7 96.9C103.7 102.6 108.3 107.2 114 107.2H115.8V102.4H115.9ZM22.1 87.6C17.6 87.6 14 92 14 97.4C14 102.8 17.6 107.2 22.1 107.2C26.6 107.2 30.2 102.8 30.2 97.4C30.2 92 26.6 87.6 22.1 87.6ZM22.1 103.5C20.1 103.5 18.6 100.8 18.6 97.5C18.6 94.2 20.2 91.5 22.1 91.5C24.1 91.5 25.6 94.2 25.6 97.5C25.6 100.8 24 103.5 22.1 103.5ZM30.2 107.2L33.3 87.6H39.8L41.7 97.4L44.2 87.6H50.2L53.1 107.2H48.1L46.5 93.9L43.8 107.2H40.4L36.7 94.1L35 107.2H30.2ZM54.2 107.2L57.3 87.6H63.8L65.6 97.4L68.1 87.6H74.2L77.1 107.2H72.1L70.4 93.9L67.7 107.2H64.4L60.6 94.1L59 107.2H54.2ZM77.9 107.2V87.6H88.1V91.4H83V95.6H87.5V99.2H82.4V103H88.1V107.2H77.9ZM117.8 107.2V87.6H128V91.4H122.9V95.6H127.4V99.2H122.3V103H128V107.2H117.8Z" fill="#7E53A4"/>
<path d="M99.9999 98.0999C101.6 98.0999 103 96.7999 103 95.0999V93.2999C103 90.0999 100.4 87.5999 97.2999 87.5999H89.8999V107.2H94.4999V97.9999L99.4999 107.2H104.6L99.9999 98.0999ZM96.0999 96.3999H94.3999V91.5999H96.2999C97.5999 91.5999 98.5999 92.5999 98.5999 93.8999C98.4999 95.2999 97.3999 96.3999 96.0999 96.3999ZM74.3999 37.6999C72.4999 37.4999 68.9999 38.4999 67.3999 46.2999C67.3999 51.0999 68.4999 53.8999 70.2999 54.8999C73.5999 55.8999 77.4999 51.4999 77.4999 46.6999C77.5999 43.5999 77.7999 39.4999 74.3999 37.6999ZM99.9999 37.6999C98.0999 37.4999 94.5999 38.4999 92.9999 46.2999C92.9999 51.0999 94.0999 53.8999 95.8999 54.8999C99.1999 55.8999 103.1 51.4999 103.1 46.6999C103.3 43.5999 103.4 39.4999 99.9999 37.6999Z" fill="#7E53A4"/>
<path d="M104 20.8H24.3001C17.9001 20.8 12.6001 26 12.6001 32.5V59.9001C12.6001 66.3001 17.8001 71.6 24.3001 71.6H104C110.4 71.6 115.7 66.4001 115.7 59.9001V32.4001C115.7 26.0001 110.4 20.8 104 20.8ZM48.1001 64.2C48.1001 64.2 42.6001 56.9001 41.2001 51.4001C39.8001 45.9001 39.6001 48.4001 39.6001 48.4001C39.6001 48.4001 35.2001 58.3 30.6001 64.6C26.0001 70.9 23.7001 61.5 23.7001 61.5C22.1001 59.6 17.5001 31.6 17.5001 31.6C20.1001 24.5001 24.5001 30.3 24.5001 30.3L29.0001 53.1C29.0001 53.1 35.9001 39.1 38.1001 35.6C40.4001 32 44.3001 33.0001 44.6001 36.7001C44.9001 40.4001 48.7001 50.7001 48.7001 50.7001C49.0001 40 53.4001 29.8 54.1001 28.1C54.8001 26.4001 61.9001 24.5 60.6001 31.3C57.5001 38.9 54.4001 55 55.2001 63.8C53.2001 70.5 48.1001 64.2 48.1001 64.2ZM76.9001 60.6C74.8001 61.6 67.0001 66.9001 61.5001 54.9001C58.0001 42.8001 65.7001 33.9001 65.7001 33.9001C65.7001 33.9001 75.8001 25.3001 82.7001 36.7001C88.2001 49.2001 79.0001 59.6 76.9001 60.6ZM102.6 60.6C100.5 61.6 92.7001 66.9001 87.2001 54.9001C83.7001 42.8001 91.4001 33.9001 91.4001 33.9001C91.4001 33.9001 101.5 25.3001 108.4 36.7001C113.9 49.2001 104.7 59.6 102.6 60.6Z" fill="#7E53A4"/>
<path d="M62 71.5L79.9 82L76.2 71.5L65.9 68.6L62 71.5Z" fill="#7E53A4"/>
</svg>
