<svg width="128" height="128" viewBox="0 0 128 128" fill="none" xmlns="http://www.w3.org/2000/svg">
<path fill-rule="evenodd" clip-rule="evenodd" d="M43.257 121.233C43.336 122.251 43.286 123.304 43.556 124.27C43.671 124.678 44.456 124.899 44.937 125.205L45.562 125.606C45.327 125.743 45.093 125.995 44.855 125.998C42.9891 126.03 41.1229 126.031 39.257 126C39.009 125.996 38.766 125.763 38.522 125.636C38.72 125.493 38.91 125.245 39.119 125.228C40.37 125.123 40.751 124.363 40.745 123.239C40.734 121.173 40.739 119.105 40.748 117.037C40.753 115.885 40.426 115.044 39.069 114.992C38.881 114.984 38.703 114.696 38.521 114.539C38.703 114.428 38.887 114.218 39.067 114.221C41.457 114.25 43.857 114.197 46.234 114.398C48.107 114.557 49.341 115.853 49.468 117.347C49.606 118.986 48.765 120.111 46.863 120.833L46.134 121.105C47.359 122.263 48.444 123.395 49.65 124.377C50.185 124.814 50.943 125.074 51.639 125.194C53.032 125.432 53.788 124.833 53.826 123.452C53.887 121.223 53.858 118.991 53.837 116.761C53.827 115.739 53.388 115.064 52.248 115.008C52.033 114.998 51.828 114.755 51.619 114.62C51.858 114.48 52.097 114.22 52.334 114.221C54.766 114.241 57.209 114.166 59.625 114.382C63.748 114.748 66.045 118.179 64.839 121.97C64.104 124.282 62.344 125.589 60.08 125.743C56.122 126.013 52.142 125.958 48.171 125.986C47.855 125.988 47.465 125.645 47.227 125.363C46.313 124.278 45.451 123.15 44.559 122.047C44.289 121.713 43.988 121.406 43.701 121.086L43.257 121.233ZM56.376 115.364C56.376 118.149 56.342 120.848 56.412 123.544C56.423 123.958 56.822 124.583 57.192 124.731C58.649 125.312 61.004 124.363 61.662 122.889C62.543 120.916 62.65 118.839 61.459 116.967C60.284 115.12 58.327 115.304 56.376 115.364ZM43.355 119.925C44.617 119.957 46.008 120.238 46.547 118.852C46.849 118.075 46.781 116.87 46.364 116.162C45.731 115.086 44.458 115.274 43.354 115.41L43.355 119.925Z" fill="#337BA2"/>
<path fill-rule="evenodd" clip-rule="evenodd" d="M96.77 119.35C97.604 119.17 98.431 119.196 98.968 118.813C99.419 118.493 99.531 117.697 99.876 116.927C100.075 117.284 100.262 117.466 100.266 117.651C100.291 119.031 100.296 120.412 100.266 121.792C100.261 122.008 100.04 122.219 99.919 122.433C99.783 122.319 99.58 122.233 99.52 122.087C98.787 120.316 98.791 120.315 96.677 120.504C96.986 121.886 95.914 123.653 97.567 124.562C98.41 125.025 99.77 124.933 100.756 124.63C101.597 124.374 102.236 123.459 102.968 122.832V125.928C102.563 125.964 102.256 126.014 101.947 126.014C97.806 126.02 93.665 126.002 89.525 126.033C88.811 126.039 88.328 125.859 87.892 125.26C87.035 124.078 86.093 122.958 85.167 121.828C84.935 121.545 84.633 121.32 84.146 120.866C84.146 122.02 84.104 122.847 84.158 123.668C84.214 124.526 84.627 125.095 85.576 125.202C85.855 125.234 86.105 125.527 86.368 125.702C86.097 125.807 85.828 126 85.556 126.005C83.729 126.031 81.903 126.03 80.076 126.006C79.796 126.002 79.518 125.833 79.21 125.731L79.366 125.428C81.61 124.522 81.616 124.522 81.614 121.92C81.6125 120.297 81.5995 118.673 81.575 117.05C81.558 115.929 81.254 115.04 79.886 114.992C79.689 114.985 79.502 114.705 79.309 114.551C79.535 114.438 79.762 114.226 79.987 114.228C82.298 114.25 84.622 114.174 86.917 114.388C89.429 114.622 90.982 116.717 90.049 118.645C89.539 119.698 88.361 120.428 87.324 121.463C88.308 122.363 89.441 123.657 90.815 124.598C92.756 125.928 94.083 125.169 94.132 122.85C94.173 120.903 94.125 118.954 94.117 117.005C94.113 115.85 93.756 115.011 92.4 114.992C92.215 114.989 92.033 114.792 91.814 114.662C92.519 114.142 99.313 113.953 102.262 114.33L102.452 117.544L102.119 117.68C101.433 116.963 101.518 115.481 100.099 115.476C99.015 115.471 97.931 115.357 96.767 115.287C96.77 116.643 96.77 117.877 96.77 119.35ZM84.123 119.916C86.733 120.021 87.769 119.313 87.707 117.552C87.646 115.854 86.512 115.169 84.123 115.431V119.916Z" fill="#515151"/>
<path fill-rule="evenodd" clip-rule="evenodd" d="M11.555 120.682C12.551 117.735 13.534 114.785 14.558 111.848C14.699 111.444 15.044 111.111 15.295 110.744C15.543 111.122 15.882 111.469 16.024 111.884C16.955 114.603 17.841 117.335 18.746 120.063C18.818 120.282 18.911 120.493 19.121 121.032C20.049 118.219 20.908 115.724 21.685 113.203C21.955 112.33 21.604 111.699 20.588 111.585C20.253 111.546 19.928 111.415 19.537 111.311C20.213 110.562 25.494 110.507 26.364 111.203C26.128 111.315 25.94 111.474 25.746 111.482C24.096 111.546 23.332 112.579 22.862 114.003C21.604 117.813 20.322 121.614 19.045 125.418C18.912 125.813 18.745 126.196 18.593 126.584L18.172 126.614L14.593 115.793L10.974 126.581L10.62 126.603C10.435 126.202 10.208 125.813 10.073 125.396C8.90603 121.815 7.75403 118.229 6.59903 114.645C6.10403 113.106 5.60903 111.576 3.58703 111.478C3.45503 111.472 3.33403 111.249 3.20703 111.128C3.36503 110.998 3.52303 110.755 3.68303 110.753C5.95503 110.729 8.22903 110.729 10.501 110.754C10.659 110.755 10.814 111.001 10.971 111.133C10.802 111.259 10.652 111.442 10.463 111.5C8.64303 112.05 8.51203 112.261 9.08503 114.026C9.80803 116.259 10.553 118.483 11.289 120.712L11.555 120.682Z" fill="#3179A1"/>
<path fill-rule="evenodd" clip-rule="evenodd" d="M65.4839 111.25C65.7629 111.009 65.9189 110.756 66.0709 110.759C69.0279 110.803 72.0089 110.666 74.9349 111.006C77.7029 111.327 79.2359 113.925 78.4009 116.365C77.6529 118.554 75.8079 119.239 73.7209 119.429C72.8399 119.51 71.9449 119.442 70.8969 119.442C70.9899 120.895 71.0369 122.222 71.1719 123.54C71.2849 124.654 72.0349 125.1 73.0949 125.19C73.3339 125.211 73.5519 125.478 73.7789 125.632C73.5289 125.758 73.2809 125.992 73.0289 125.995C70.8379 126.024 68.6449 126.023 66.4539 125.997C66.1909 125.994 65.9309 125.778 65.6699 125.661C65.8879 125.496 66.1019 125.198 66.3259 125.189C67.7889 125.133 68.3379 124.225 68.3559 122.954C68.3999 119.873 68.3959 116.792 68.3579 113.711C68.3419 112.401 67.7089 111.563 66.2859 111.505C66.0739 111.497 65.8639 111.375 65.4839 111.25ZM71.0069 117.956C73.6889 118.234 74.7099 117.978 75.3559 116.789C76.0039 115.597 76.0059 114.35 75.2399 113.223C74.1809 111.664 72.5609 112.125 71.0069 112.069V117.956Z" fill="#4D4D4D"/>
<path fill-rule="evenodd" clip-rule="evenodd" d="M31.0759 126.463C28.6799 126.359 26.7279 125.607 25.2819 123.816C23.2289 121.274 23.5409 117.822 25.9929 115.624C28.6379 113.254 33.0109 113.152 35.7259 115.453C37.5639 117.012 38.4349 118.986 37.8369 121.406C37.1619 124.136 35.2359 125.598 32.6189 126.262C32.0729 126.399 31.4969 126.411 31.0759 126.463ZM35.6199 120.214L35.3959 120.067C35.2469 119.358 35.1599 118.628 34.9379 117.942C34.2959 115.971 32.9519 114.997 30.9749 114.993C29.0049 114.989 27.6799 115.968 27.0359 117.96C26.4639 119.731 26.5379 121.486 27.4189 123.14C28.7339 125.608 32.2479 126.071 33.9679 123.876C34.7699 122.853 35.0839 121.446 35.6199 120.214Z" fill="#3279A1"/>
<path fill-rule="evenodd" clip-rule="evenodd" d="M122.748 114.317L123.641 113.535V117.911L123.382 118.106C123.173 117.811 122.884 117.544 122.767 117.215C122.176 115.56 120.902 114.662 119.448 115.098C118.949 115.247 118.349 115.747 118.216 116.208C118.107 116.584 118.501 117.328 118.887 117.582C119.895 118.246 121.018 118.738 122.101 119.285C124.457 120.477 125.299 122.13 124.502 124.021C123.693 125.942 121.239 126.936 119.04 126.194C118.434 125.988 117.873 125.65 117.312 125.383L116.455 126.509L116.076 126.393C116.076 124.916 116.067 123.439 116.091 121.962C116.093 121.819 116.306 121.68 116.421 121.539C116.601 121.757 116.869 121.949 116.948 122.199C117.471 123.855 118.478 124.955 120.273 125.139C121.296 125.244 122.296 125.118 122.651 123.952C122.975 122.885 122.231 122.283 121.432 121.828C120.553 121.328 119.624 120.919 118.724 120.458C118.329 120.255 117.926 120.054 117.571 119.793C116.314 118.866 115.818 117.53 116.19 116.175C116.522 114.964 117.713 113.938 119.187 113.895C120.278 113.864 121.382 114.145 122.748 114.317ZM106.479 125.344C106.313 125.674 106.221 125.951 106.05 126.165C105.947 126.293 105.694 126.415 105.56 126.373C105.433 126.333 105.298 126.079 105.295 125.917C105.274 124.618 105.274 123.318 105.296 122.021C105.298 121.862 105.474 121.707 105.57 121.55C105.754 121.667 106.016 121.743 106.107 121.912C106.276 122.226 106.315 122.608 106.463 122.936C107.131 124.418 108.484 125.345 110.036 125.12C110.685 125.027 111.486 124.534 111.808 123.982C112.242 123.241 111.722 122.478 110.994 122.057C110.015 121.491 109.001 120.982 107.985 120.486C105.688 119.365 104.719 117.514 105.542 115.767C106.36 114.03 108.872 113.307 110.971 114.211C111.227 114.321 111.47 114.461 111.671 114.565L112.749 113.679C112.862 113.996 112.934 114.105 112.935 114.214C112.943 115.43 112.94 116.645 112.94 117.86L112.623 118.072C112.412 117.802 112.119 117.563 112.004 117.258C111.431 115.726 110.524 114.877 109.194 115.039C108.57 115.114 107.775 115.543 107.468 116.057C107.018 116.812 107.668 117.418 108.353 117.786C109.316 118.305 110.302 118.778 111.279 119.269C113.697 120.482 114.548 122.167 113.713 124.093C112.9 125.969 110.367 126.94 108.196 126.17C107.632 125.971 107.109 125.65 106.479 125.344Z" fill="#505050"/>
<path fill-rule="evenodd" clip-rule="evenodd" d="M65.2612 1.39495C38.4802 0.916945 16.1032 22.6479 16.0962 48.9999C16.0882 76.1099 37.4342 97.7389 64.1732 97.6989C90.6632 97.6599 112.105 76.1119 112.105 49.5319C112.104 23.3839 90.7602 1.84995 65.2612 1.39495ZM64.1132 95.2819C38.7872 95.2879 18.4192 74.7529 18.4202 49.2149C18.4212 24.3349 39.1052 3.73495 64.0942 3.72594C89.5262 3.71795 109.789 24.3799 109.781 50.3129C109.773 74.7959 88.9742 95.2769 64.1132 95.2819ZM88.5082 35.9349C87.5142 34.2969 86.2922 32.7079 85.7302 30.9219C85.0902 28.8899 84.5592 26.5769 84.8982 24.5399C85.4742 21.0859 88.1232 19.3709 91.7102 19.0429C72.0862 0.829945 41.2482 7.34895 29.8852 27.1379C34.2592 26.9349 38.4352 26.6699 42.6142 26.6139C43.4052 26.6029 44.7142 27.2709 44.9002 27.8909C45.3162 29.2759 44.1522 29.7589 42.9142 29.8539C41.6132 29.9559 40.3102 30.0529 38.7992 30.1679L53.7342 74.6619C54.0932 74.075 54.2412 73.91 54.3062 73.7169C57.0682 65.462 59.8462 57.2119 62.5382 48.9329C62.7842 48.1779 62.6622 47.1779 62.3922 46.4019C60.9682 42.2909 59.2622 38.2689 58.0132 34.1079C57.1582 31.2589 56.0252 29.4159 52.6582 29.7459C52.0842 29.8019 51.3852 28.5679 50.7422 27.9299C51.5192 27.4669 52.2902 26.6139 53.0742 26.6019C59.9311 26.4969 66.7893 26.4989 73.6462 26.6079C74.4322 26.6209 75.2032 27.4969 75.9812 27.9719C75.3002 28.5939 74.7142 29.5259 73.9182 29.7659C72.6422 30.1509 71.2272 30.0779 69.7002 30.2139L84.6532 74.6979C86.9192 67.1739 89.0272 60.2639 91.0752 53.3379C92.9052 47.1559 91.8152 41.3809 88.5082 35.9349ZM52.7192 88.1489C52.6272 88.4159 52.6222 88.7119 52.5512 89.1559C61.0092 91.4999 69.3012 91.3309 77.7912 88.4709L64.8232 52.9509C60.6722 65.0149 56.6922 76.5809 52.7192 88.1489ZM46.1842 86.5429L26.6462 32.9469C17.8322 50.1639 24.5372 76.4329 46.1842 86.5429ZM100.636 31.1399C100.366 34.1339 100.554 37.4669 99.6952 40.5019C97.6722 47.6539 95.1992 54.6829 92.8182 61.7309C90.2302 69.3909 87.5382 77.0169 84.8912 84.6579C97.3282 77.2859 104.162 66.4049 105.25 52.1029C105.87 43.9629 103.062 32.6909 100.636 31.1399Z" fill="#494949"/>
</svg>
