<svg width="128" height="128" viewBox="0 0 128 128" fill="none" xmlns="http://www.w3.org/2000/svg">
<path fill-rule="evenodd" clip-rule="evenodd" d="M59.6281 114.382C57.2111 114.166 54.7691 114.24 52.3371 114.221C52.1001 114.22 51.8601 114.481 51.6221 114.62C51.8311 114.755 52.0361 114.998 52.2511 115.008C53.3911 115.064 53.8301 115.738 53.8401 116.761C53.8611 118.991 53.8891 121.224 53.8291 123.452C53.7911 124.833 53.0351 125.432 51.6421 125.194C50.9461 125.074 50.1881 124.813 49.6531 124.377C48.4471 123.395 47.3621 122.263 46.1371 121.105L46.8661 120.833C48.7681 120.11 49.6091 118.985 49.4701 117.347C49.3441 115.853 48.1091 114.557 46.2371 114.398C43.8601 114.197 41.4601 114.251 39.0701 114.221C38.8891 114.218 38.7061 114.428 38.5231 114.539C38.7061 114.696 38.8831 114.984 39.0711 114.992C40.4271 115.044 40.7551 115.885 40.7501 117.037C40.7391 119.104 40.7381 121.172 40.7471 123.239C40.7531 124.363 40.3721 125.123 39.1201 125.228C38.9111 125.246 38.7221 125.494 38.5231 125.636C38.7681 125.763 39.0111 125.996 39.2591 126C41.1241 126.03 42.9911 126.031 44.8561 125.998C45.0941 125.995 45.3281 125.743 45.5631 125.606L44.9381 125.205C44.4571 124.899 43.6711 124.679 43.5571 124.27C43.2871 123.304 43.3371 122.25 43.2581 121.233L43.7051 121.086C43.9921 121.406 44.2941 121.713 44.5631 122.047C45.4551 123.151 46.3171 124.278 47.2311 125.363C47.4691 125.645 47.8581 125.988 48.1751 125.986C52.1461 125.958 56.1271 126.012 60.0841 125.743C62.3481 125.589 64.1081 124.281 64.8431 121.97C66.0481 118.179 63.7511 114.748 59.6281 114.382ZM43.0001 119.925V115.409C44.0001 115.273 45.5551 115.085 46.1881 116.161C46.6051 116.869 46.5841 118.074 46.2821 118.851C45.7421 120.237 44.0001 119.957 43.0001 119.925ZM61.6611 122.889C61.0031 124.363 58.6481 125.312 57.1911 124.731C56.8211 124.584 56.4221 123.959 56.4111 123.544C56.3411 120.849 56.3751 118.149 56.3751 115.364C58.3261 115.303 60.2821 115.12 61.4581 116.967C62.6491 118.839 62.5421 120.916 61.6611 122.889ZM100.772 124.629C99.7861 124.932 98.4171 125.024 97.5741 124.561C95.9211 123.653 96.9891 121.885 96.6801 120.503C98.7941 120.314 98.7881 120.315 99.5211 122.086C99.5811 122.232 99.7821 122.317 99.9181 122.432C100.039 122.218 100.26 122.007 100.265 121.791C100.296 120.411 100.29 119.03 100.265 117.65C100.261 117.465 100.075 117.284 99.8751 116.926C99.5301 117.696 99.5321 118.491 99.0821 118.812C98.5451 119.195 97.0001 119.17 97.0001 119.35V115.285C98.0001 115.355 99.1321 115.47 100.217 115.474C101.635 115.479 101.492 116.961 102.179 117.678L102.482 117.542L102.278 114.328C99.3291 113.951 92.5281 114.14 91.8221 114.66C92.0421 114.79 92.2191 114.987 92.4041 114.99C93.7601 115.009 94.1151 115.847 94.1211 117.003C94.1271 118.951 94.1751 120.9 94.1341 122.848C94.0851 125.167 92.7591 125.926 90.8171 124.596C89.4431 123.656 88.3101 122.362 87.326 121.461C88.3631 120.426 89.5421 119.695 90.0521 118.643C90.9841 116.715 89.4311 114.621 86.9191 114.386C84.6231 114.172 82.3 114.248 79.9881 114.226C79.7631 114.224 79.537 114.436 79.3111 114.549C79.5021 114.703 79.6901 114.984 79.8871 114.99C81.2551 115.038 81.5601 115.927 81.576 117.048C81.6001 118.672 81.6131 120.295 81.6141 121.918C81.6171 124.52 81.6111 124.52 79.3671 125.426L79.2111 125.729C79.521 125.832 79.7981 126 80.0771 126.004C81.9041 126.028 83.73 126.029 85.5571 126.003C85.8291 125.998 86.0981 125.806 86.3691 125.7C86.1051 125.525 85.855 125.232 85.576 125.2C84.6271 125.093 84.2141 124.524 84.1581 123.666C84.1031 122.846 84.1461 122.019 84.1461 120.864C84.6321 121.318 84.9341 121.543 85.1661 121.826C86.0921 122.956 87.034 124.076 87.8921 125.258C88.328 125.858 88.8111 126.037 89.5251 126.031C93.6661 126.001 97.8211 126.018 101.964 126.012C102.271 126.012 103 125.962 103 125.926V122.83C102 123.458 101.612 124.373 100.772 124.629ZM84.0001 119.916V115.431C86.0001 115.169 87.5241 115.854 87.5841 117.552C87.646 119.313 87.0001 120.021 84.0001 119.916ZM26.3651 111.201C25.4951 110.506 20.2131 110.56 19.5381 111.309C19.9291 111.413 20.2531 111.544 20.5881 111.583C21.6051 111.697 21.9561 112.328 21.6861 113.201C20.9081 115.722 20.0491 118.218 19.1221 121.03C18.9121 120.491 18.8191 120.28 18.7471 120.061C17.8431 117.333 16.9561 114.601 16.0251 111.882C15.8831 111.467 15.5441 111.12 15.2961 110.742C15.0451 111.108 14.7001 111.441 14.5591 111.846C13.5341 114.783 12.5511 117.733 11.5551 120.68L11.2881 120.71C10.5531 118.481 9.80705 116.258 9.08405 114.024C8.51105 112.258 8.64305 112.047 10.4621 111.498C10.6511 111.439 10.8011 111.257 10.9701 111.131C10.8141 110.999 10.6581 110.753 10.5001 110.752C8.22712 110.727 5.95399 110.727 3.68105 110.751C3.52205 110.753 3.36405 110.996 3.20605 111.126C3.33205 111.247 3.45405 111.47 3.58605 111.476C5.60805 111.574 6.10305 113.104 6.59805 114.643C7.75205 118.227 8.90405 121.813 10.0721 125.394C10.2081 125.811 10.4351 126.2 10.6191 126.601L10.9731 126.579L14.5931 115.791L18.1711 126.612L18.5931 126.582C18.7441 126.194 18.9121 125.811 19.0451 125.416C20.3231 121.612 21.6051 117.811 22.8631 114.001C23.3331 112.576 24.0971 111.544 25.7471 111.48C25.9401 111.473 26.1281 111.313 26.3651 111.201ZM74.9351 111.006C72.01 110.666 69.0291 110.803 66.0721 110.759C65.9201 110.756 65.7631 111.009 65.4841 111.25C65.8641 111.375 66.0741 111.497 66.2891 111.506C67.7111 111.564 68.3451 112.402 68.3611 113.712C68.3981 116.793 68.4021 119.874 68.3581 122.955C68.3391 124.226 67.7911 125.135 66.3281 125.19C66.1031 125.199 65.89 125.497 65.6721 125.662C65.9341 125.779 66.1931 125.995 66.4571 125.998C68.6471 126.024 70.84 126.025 73.0311 125.996C73.2821 125.993 73.5301 125.759 73.7811 125.633C73.5521 125.479 73.3361 125.211 73.0961 125.191C72.0351 125.1 71.285 124.655 71.1721 123.541C71.037 122.224 70.9901 120.896 70.8981 119.443C71.9461 119.443 72.8401 119.511 73.7211 119.43C75.8091 119.24 77.6541 118.555 78.4021 116.366C79.2371 113.925 77.704 111.327 74.9351 111.006ZM75.3531 116.789C74.707 117.978 74.0001 118.234 71.0001 117.956V112.068C72.0001 112.125 74.1761 111.664 75.2361 113.222C76.0011 114.35 76.0011 115.597 75.3531 116.789ZM35.7261 115.452C33.0111 113.151 28.6371 113.253 25.9931 115.623C23.5411 117.821 23.2291 121.273 25.2821 123.815C26.7281 125.606 28.6791 126.358 31.0761 126.462C31.4981 126.41 32.0741 126.399 32.6181 126.261C35.2361 125.597 37.1621 124.135 37.8371 121.405C38.4351 118.985 37.5641 117.011 35.7261 115.452ZM33.9681 123.875C32.2481 126.069 28.7341 125.606 27.4191 123.139C26.5371 121.486 26.4631 119.731 27.0351 117.959C27.6801 115.967 29.0041 114.988 30.9741 114.992C32.9511 114.996 34.2961 115.971 34.9381 117.941C35.1611 118.627 35.2481 119.357 35.3961 120.066L35.6201 120.213C35.0841 121.446 34.7701 122.853 33.9681 123.875ZM122.1 119.286C121.017 118.739 119.894 118.247 118.885 117.583C118.499 117.329 118.105 116.585 118.214 116.209C118.348 115.748 118.948 115.248 119.447 115.099C120.901 114.663 122.175 115.561 122.765 117.216C122.882 117.545 123.349 117.812 123.56 118.107C123.646 118.043 123.998 117.977 123.998 117.912V113.536C122.998 113.985 123.011 114.244 122.927 114.318C121.56 114.145 120.367 113.865 119.273 113.898C117.798 113.941 116.562 114.967 116.23 116.178C115.858 117.533 116.333 118.869 117.59 119.796C117.945 120.057 118.337 120.258 118.731 120.461C119.631 120.922 120.554 121.331 121.433 121.831C122.233 122.286 122.973 122.888 122.651 123.955C122.296 125.121 121.294 125.247 120.27 125.142C118.475 124.957 117.468 123.858 116.945 122.202C116.866 121.952 116.596 121.76 116.417 121.542C116.302 121.683 116.09 121.822 116.087 121.965C116.064 123.442 116.072 124.919 116.072 126.396L116.452 126.512L117.309 125.386C117.87 125.653 118.43 125.99 119.037 126.197C121.236 126.939 123.69 125.945 124.499 124.024C125.298 122.131 124.457 120.479 122.1 119.286ZM111.281 119.27C110.303 118.779 109.318 118.305 108.355 117.787C107.668 117.42 107.019 116.813 107.469 116.058C107.776 115.544 108.571 115.116 109.196 115.04C110.525 114.878 111.431 115.727 112.005 117.259C112.12 117.565 112.414 117.804 112.625 118.073L112.941 117.861C112.941 116.645 112.943 115.43 112.936 114.215C112.935 114.106 112.863 113.997 112.749 113.68L111.671 114.566C111.47 114.462 111.228 114.323 110.971 114.212C108.872 113.308 106.361 114.03 105.542 115.768C104.72 117.515 105.688 119.366 107.985 120.487C109.006 120.975 110.01 121.499 110.994 122.058C111.723 122.479 112.242 123.242 111.808 123.983C111.486 124.535 110.685 125.028 110.036 125.121C108.484 125.347 107.132 124.42 106.463 122.937C106.316 122.609 106.276 122.227 106.108 121.913C106.017 121.744 105.755 121.668 105.571 121.551C105.475 121.707 105.3 121.863 105.298 122.022C105.276 123.321 105.275 124.619 105.296 125.918C105.299 126.08 105.435 126.334 105.562 126.374C105.696 126.416 105.949 126.294 106.052 126.166C106.222 125.952 106.315 125.675 106.481 125.345C107.11 125.652 107.633 125.972 108.2 126.172C110.37 126.942 112.904 125.971 113.717 124.095C114.549 122.168 113.699 120.482 111.281 119.27ZM64.1721 97.6981C90.662 97.6591 112.105 76.1111 112.104 49.5311C112.104 23.3841 90.7601 1.84906 65.2601 1.39406C38.4801 0.917058 16.1031 22.6481 16.0961 49.0001C16.0871 76.1091 37.4341 97.7381 64.1721 97.6981ZM64.0941 3.72706C89.5261 3.71906 109.789 24.3811 109.781 50.3141C109.773 74.7961 88.9731 95.2781 64.1141 95.2831C38.7871 95.2881 18.4191 74.7531 18.4201 49.2151C18.4211 24.3351 39.1051 3.73506 64.0941 3.72706ZM44.9001 27.8911C45.3161 29.2761 44.1521 29.7591 42.9141 29.8541C41.6131 29.9561 40.3101 30.0531 38.7991 30.1681L53.7341 74.6621C54.0931 74.0751 54.2411 73.9101 54.3061 73.7171C57.0681 65.4621 59.8461 57.2121 62.5381 48.9331C62.784 48.1781 62.6621 47.1781 62.3921 46.4021C60.9681 42.2911 59.2621 38.2691 58.0131 34.1081C57.1581 31.2591 56.0251 29.4161 52.6591 29.7461C52.0851 29.8021 51.3861 28.5681 50.7431 27.9301C51.5201 27.4671 52.2911 26.6141 53.0751 26.6021C59.932 26.4971 66.7902 26.4991 73.6471 26.6081C74.4321 26.6211 75.2041 27.4971 75.9821 27.9721C75.3011 28.5941 74.7141 29.5261 73.9191 29.7661C72.6431 30.1511 71.2281 30.0781 69.701 30.2141L84.6541 74.6981C86.9201 67.1741 89.027 60.2641 91.076 53.3381C92.9051 47.1541 91.8151 41.3801 88.5091 35.9341C87.5151 34.2961 86.2931 32.7071 85.7311 30.9211C85.0901 28.8891 84.5591 26.5761 84.8991 24.5391C85.4741 21.0851 88.1241 19.3701 91.7111 19.0421C72.0851 0.830059 41.2481 7.34906 29.8851 27.1381C34.2591 26.9351 38.4351 26.6701 42.6141 26.6141C43.4051 26.6041 44.7141 27.2711 44.9001 27.8911ZM52.7191 88.1491C52.6271 88.4161 52.6221 88.7121 52.5511 89.1561C61.0091 91.5001 69.3021 91.3311 77.7911 88.4711L64.8221 52.9511C60.6721 65.0151 56.6911 76.5811 52.7191 88.1491ZM46.1841 86.5431L26.6461 32.9471C17.8321 50.1641 24.5371 76.4331 46.1841 86.5431ZM105.25 52.1041C105.869 43.9631 103.062 32.6911 100.636 31.1411C100.366 34.1351 100.554 37.4681 99.6951 40.5031C97.673 47.6551 95.2001 54.6841 92.8181 61.7321C90.2291 69.3921 87.5381 77.0181 84.8901 84.6591C97.3271 77.2861 104.162 66.4051 105.25 52.1041Z" fill="#494949"/>
</svg>
