<svg width="128" height="128" viewBox="0 0 128 128" fill="none" xmlns="http://www.w3.org/2000/svg">
<path d="M51.7 72L48.5 65.8001L45.2 72H41.7L46.7 64.1L42.2 56.2001H45.8L48.7 62.2001L51.9 56.2001H55.2L50.5 64L55.2 72H51.7ZM63.1 72V70.3001C62.2 71.7001 61 72.3001 59.4 72.3001C58.2 72.3001 57.2 72.0001 56.5 71.3001C55.8 70.6001 55.4 69.7 55.4 68.6C55.4 66.2 56.8 64.8 59.5 64.5L63.1 64C63.1 62.3 62.3 61.4001 60.7 61.4001C59.2 61.4001 57.8 61.9 56.6 62.8V60.3C57.1 60 57.7 59.8 58.6 59.5C59.5 59.3 60.3 59.2001 61 59.2001C64.2 59.2001 65.8 60.8 65.8 64.1V72H63.1ZM60.5 66.3001C59.7 66.4001 59.1 66.6001 58.7 66.9001C58.4 67.2001 58.2 67.7001 58.2 68.3001C58.2 68.8001 58.4 69.2 58.8 69.6C59.2 69.9 59.7 70.1 60.3 70.1C61.1 70.1 61.8 69.8 62.4 69.2C62.9 68.6 63.2 67.9 63.2 67V65.9001L60.5 66.3001ZM83.9 72V64.9001C83.9 63.7001 83.7 62.9 83.4 62.3C83 61.7 82.4 61.4001 81.5 61.4001C80.8 61.4001 80.1 61.7001 79.6 62.4001C79.1 63.1001 78.8 63.9001 78.8 64.9001V71.9001H76V64.6C76 62.5 75.2 61.4001 73.5 61.4001C72.7 61.4001 72.1 61.7001 71.6 62.4001C71.1 63.0001 70.9 63.9001 70.9 64.9001V71.9001H68.1V59.5H70.9V61.4001C71.8 59.9001 73.1 59.2001 74.9 59.2001C75.7 59.2001 76.5 59.4001 77.1 59.9001C77.7 60.3001 78.2 60.9001 78.5 61.7001C79.5 60.1 80.9 59.2001 82.7 59.2001C85.4 59.2001 86.8 60.9001 86.8 64.3001V72H83.9ZM96.1 72V70.3001C95.2 71.7001 94 72.3001 92.4 72.3001C91.2 72.3001 90.2 72.0001 89.5 71.3001C88.8 70.6001 88.4 69.7 88.4 68.6C88.4 66.2 89.8 64.8 92.5 64.5L96.1 64C96.1 62.3 95.3 61.4001 93.7 61.4001C92.2 61.4001 90.8 61.9 89.6 62.8V60.3C90.1 60 90.7 59.8 91.6 59.5C92.5 59.3 93.3 59.2001 94 59.2001C97.2 59.2001 98.8 60.8 98.8 64.1V72H96.1ZM93.4 66.3001C92.6 66.4001 92 66.6001 91.6 66.9001C91.3 67.2001 91.1 67.7001 91.1 68.3001C91.1 68.8001 91.3 69.2 91.7 69.6C92.1 69.9 92.6 70.1 93.2 70.1C94 70.1 94.7 69.8 95.3 69.2C95.8 68.6 96.1 67.9 96.1 67V65.9001L93.4 66.3001ZM108.3 62.2001C107.8 61.9001 107.3 61.8 106.7 61.8C105.9 61.8 105.2 62.2001 104.7 62.9001C104.2 63.6001 103.9 64.5 103.9 65.6V72H101.1V59.5H103.9V61.9001C104.5 60.1001 105.6 59.2001 107.1 59.2001C107.6 59.2001 108 59.3001 108.2 59.4001L108.3 62.2001ZM111.1 56.7001C110.6 56.7001 110.2 56.5001 109.9 56.2001C109.6 55.9001 109.4 55.5 109.4 55C109.4 54.5 109.6 54.1 109.9 53.8C110.2 53.5 110.6 53.3 111.1 53.3C111.6 53.3 112 53.5 112.3 53.8C112.6 54.1 112.8 54.5 112.8 55C112.8 55.5 112.6 55.8001 112.3 56.2001C112 56.5001 111.6 56.7001 111.1 56.7001ZM109.7 72V59.5H112.5V72H109.7ZM123.2 72V65C123.2 62.7 122.4 61.5 120.7 61.5C119.9 61.5 119.2 61.8 118.6 62.5C118 63.1 117.8 63.9001 117.8 64.9001V72H115V59.5H117.8V61.5C118.7 60 120.1 59.2001 121.9 59.2001C124.7 59.2001 126.1 60.9001 126.1 64.3001V72H123.2ZM11.1 49.9001C10.2 49.9001 9.4 50.4 9 51.1L2.3 62.8C1.9 63.5 1.9 64.5001 2.3 65.3001L9 76.9001C9.4 77.6001 10.3 78.1 11.1 78.1H24.5C25.4 78.1 26.2 77.6001 26.6 76.9001L33.3 65.2C33.7 64.5 33.7 63.5001 33.3 62.7001L26.6 51C26.2 50.3 25.3 49.8 24.5 49.8H11.1V49.9001ZM11.3 56.7001H13.7C13.8 56.7001 13.9 56.8001 14 56.9001L17.9 63.9001L21.8 56.9001C21.9 56.8001 22 56.7001 22.1 56.7001H24.4C24.6 56.7001 24.8 57 24.7 57.1L20.8 64L24.6 70.9001C24.7 71.1001 24.5 71.4001 24.3 71.4001H22C21.9 71.4001 21.8 71.3 21.7 71.2L17.8 64.2V64.1V64.2L13.9 71.2C13.9 71.3 13.8 71.4001 13.6 71.4001H11.3C11.1 71.4001 10.9 71.1001 11 70.9001L14.8 64L11 57.1C11 57 11.1 56.7001 11.3 56.7001Z" fill="#3498DB"/>
</svg>
