<svg width="128" height="128" viewBox="0 0 128 128" fill="none" xmlns="http://www.w3.org/2000/svg">
<path d="M37.7998 9C34.3998 9 31.1998 10.9 29.4998 13.8L3.1998 59.2C1.4998 62.2 1.4998 65.8 3.1998 68.8L29.3998 114.2C31.1998 117.1 34.2998 119 37.6998 119H90.0998C93.4998 119 96.6998 117.1 98.3998 114.2L124.6 68.8C126.3 65.8 126.3 62.2 124.6 59.2L98.4998 13.8C96.7998 10.9 93.5998 9 90.1998 9H37.7998ZM38.2998 35.6H47.5998C47.9998 35.6 48.3998 35.8 48.5998 36.2L63.8998 63.5C63.9998 63.6 63.9998 63.8 63.9998 63.9C63.9998 63.7 64.0998 63.6 64.0998 63.5L79.3998 36.2C79.5998 35.8 79.9998 35.6 80.3998 35.6H89.3998C90.0998 35.7 90.5998 36.3 90.4998 37C90.4998 37.1 90.4998 37.2 90.3998 37.4L75.5998 64L90.5998 90.7C90.8998 91.3 90.5998 92.1 89.9998 92.3C89.8998 92.4 89.6998 92.4 89.5998 92.4H80.4998C80.0998 92.4 79.6998 92.2 79.4998 91.8L64.0998 64.5C63.9998 64.4 63.9998 64.2 63.9998 64.1C63.9998 64.3 63.8998 64.4 63.8998 64.5L48.4998 91.8C48.2998 92.2 47.8998 92.4 47.4998 92.4H38.4998C37.7998 92.3 37.2998 91.7 37.3998 91.1C37.3998 91 37.4998 90.8 37.4998 90.7L52.4998 64L37.4998 37.3C37.1998 36.7 37.4998 36 38.0998 35.7C38.0998 35.6 38.1998 35.6 38.2998 35.6Z" fill="#3498DB"/>
</svg>
