<svg width="128" height="128" viewBox="0 0 128 128" fill="none" xmlns="http://www.w3.org/2000/svg">
<path d="M67.2999 108.8H90.5999C100.7 108.8 108.9 100.6 108.9 90.5V37.4001C108.9 35.4001 108.6 33.6 108 31.8H108.1C109.4 31.8 110.5 33.9 111 35C111.5 36 112.9 36.8001 114.2 37.4001V92.2C114.2 104.3 104.4 114.1 92.2999 114.1H64.6999C65.3999 112.7 66.2999 110.9 67.2999 108.8ZM73.3999 13.8C80.9999 14 84.1999 16.2 85.6999 19.2H37.4999C27.3999 19.2 19.1999 27.4 19.1999 37.5V90.6C19.1999 100.7 27.3999 108.9 37.4999 108.9H41.2999C40.8999 110 40.4999 111.6 40.4999 112.6C40.4999 113.2 40.6999 113.7 40.8999 114.3H35.7999C23.6999 114.3 13.8999 104.5 13.8999 92.4V35.7001C13.8999 23.6 23.6999 13.8 35.7999 13.8H73.3999Z" fill="#069CEC"/>
<path d="M89.9001 106.4H68.5001C71.8001 99.6 75.9001 90.9 79.6001 83.2L85.3001 93C86.6001 95.2 89.4001 96 91.6001 94.7C93.8001 93.4 94.6001 90.6 93.3001 88.4L84.4001 73C86.9001 67.8 88.6001 64.2 88.8001 63.7C89.7001 61.8 90.1001 59.4 91.2001 57.1C94.2001 51.3 100.7 37.3 103.4 34.7C104.3 33.9 104.9 33.2 105.5 32.8C106.1 34.5 106.4 36.2 106.4 38.1V89.8C106.4 99 99.0001 106.4 89.9001 106.4ZM95.2001 71.3H86.3001L91.6001 80.6H95.2001C97.8001 80.6 99.8001 78.5 99.8001 76C99.8001 73.4 97.8001 71.3 95.2001 71.3ZM21.6001 89.8V38.1C21.6001 28.9 29.0001 21.5 38.2001 21.5H86.6001C86.9001 22.6 87.1001 23.7 87.2001 24.9C87.4001 26.5 85.1001 31.6 84.8001 32.2C82.6001 36.6 78.0001 45.3 75.5001 49.7C74.9001 50.9 73.4001 52.7 73.3001 52.9C73.3001 52.9 73.2001 53 73.1001 53.2L70.9001 49.4L65.6001 58.7L67.8001 62.5C66.3001 65.1 64.6001 68.1 62.7001 71.2H32.8001C30.2001 71.2 28.2001 73.3 28.2001 75.8C28.2001 78.4 30.3001 80.4 32.8001 80.4H57.3001C50.9001 91.4 44.6001 102.3 42.4001 106.2H38.2001C29.1001 106.4 21.6001 99 21.6001 89.8ZM62.1001 34.3C60.8001 32.1 58.0001 31.3 55.8001 32.6C53.6001 33.9 52.8001 36.7 54.1001 38.9L57.4001 44.7L62.7001 35.4L62.1001 34.3ZM56.9001 68.8L74.2001 38.8C75.5001 36.6 74.7001 33.8 72.5001 32.5C70.3001 31.2 67.5001 32 66.2001 34.2L46.2001 68.8H56.9001ZM43.1001 92.9L48.8001 83H38.1001L35.0001 88.3C33.7001 90.5 34.5001 93.3 36.7001 94.6C38.9001 95.9 41.8001 95.1 43.1001 92.9Z" fill="#069CEC"/>
<path d="M69.1998 9.3C69.1998 8.5 70.0998 7.9 72.0998 7.1C74.0998 6.3 77.1998 5.5 81.5998 5.5C94.4998 5.5 102.9 10.5 108.2 13.3C111.5 15.1 111.9 18 114.5 19.9C116.3 21.2 118.7 20.9 120.6 20.6H120.8C120.8 20.6 126.1 23.3 126.1 23.4C126.4 23.7 125.2 26.7 123.5 30.3C121.7 34 120 36.8 119.6 36.6C119.4 36.5 113.9 33.5 113.9 33.5C113.9 33.5 113.7 32.4 113.1 31.6C112 30.1 110.1 28.3 108 28.3C105.2 28.3 102.3 30.7 99.9998 33.5C97.2998 36.6 90.0998 51.7 87.3998 57.4C87.1998 57.9 86.7998 60.1 86.3998 61C85.5998 62.8 61.0998 113.8 58.8998 118.3C58.0998 119.8 56.4998 120.5 54.4998 120.5C50.4998 120.5 43.8998 116.7 43.7998 112.6C43.7998 112 44.1998 110.3 44.4998 109.5C45.0998 108 75.7998 55.4 76.1998 54.7C76.2998 54.5 77.3998 53.3 78.0998 52.1C80.4998 47.6 86.1998 37.1 88.3998 32.8C88.6998 32.2 90.6998 27 90.5998 25.4C89.8998 18.3 88.0998 10.4 70.9998 9.9C70.3998 9.9 69.1998 9.6 69.1998 9.3Z" fill="#069CEC"/>
</svg>
