<svg width="128" height="128" viewBox="0 0 128 128" fill="none" xmlns="http://www.w3.org/2000/svg">
<path d="M126.2 0.699951H2.1C1.7 0.699951 1 0.899951 1 0.999951V127H127V0.999951C127 0.899951 126.6 0.699951 126.2 0.699951ZM113.5 114.7H15.6C14 114.7 14 114.7 14 113.1V15.2C14 13.6 14 14 15.6 14H113.4C115 14 115 13.6 115 15.3V113.1C115 114.3 114.7 114.7 113.5 114.7ZM76.7 87.9C82.3 89.5 87.9 88.7 93.5 88C94.7 87.9 94.9 87.2 94.9 86V39.7999H87.4V57.5999C83.2 57.1999 79.4 57.3 75.7 58.9C69.7 61.4 66.7 67 67 75C67.2 81.5 70.7 86.2 76.7 87.9ZM77.9 66C80.7 64.4 83.6 64.5 86.5 64.9C86.7 64.9 87.1 65.3999 87.1 65.7V81.8C84.4 82.3 81.8 82.5 79.3 81.8C76.1 80.9 74.3 78.5 73.9 74.9C73.6 71 75.1 67.6 77.9 66ZM44 88.1L52.1 70.6L59.9 88.1H68.8L57.1 63.2999L68.9 39.7H60.2L51.8 56.0999L45 39.7999L35.8 39.7L46.6 64.5999L35 88.1H44Z" fill="#DD80BC"/>
</svg>
