<svg width="128" height="128" viewBox="0 0 128 128" fill="none" xmlns="http://www.w3.org/2000/svg">
<path d="M127 3.3C127 1.2 127 1 125 1H3.5C1.5 1 1 1.2 1 3.2V124.7C1 126.7 1.3 126.7 3.2 126.7H125C126.6 126.7 127 126.3 127 124.7C126.9 104.5 127 84.2 127 64V3.3ZM58.7 94L49 72.2L38.8 94H27.6L42.1 64.7L28.6 33.7L40.1 33.8L48.6 54.1L59 33.7H69.8L55.2 63.1L69.7 94H58.7ZM102.3 34.8V91.4C102.3 92.9 102.1 93.8 100.6 93.9C93.6 94.8 86.6 95.8 79.7 93.8C72.2 91.7 67.9 85.8 67.6 77.7C67.2 67.7 71 60.8 78.4 57.6C83 55.6 87.7 55.5 93 56V33.8H102.3V34.8ZM82.8 86.2C86.1 87.1 89.4 86.8 92.8 86.2V66.2C92.8 65.9 92.4 65.3 92.1 65.2C88.4 64.6 84.6 64.6 81.1 66.5C77.5 68.5 75.6 72.7 76 77.6C76.3 82.1 78.7 85 82.8 86.2Z" fill="#DD80BC"/>
</svg>
