<svg width="128" height="128" viewBox="0 0 128 128" fill="none" xmlns="http://www.w3.org/2000/svg">
<path d="M99.24 80.71C94.9 80.76 91.1 83 87.89 85C81.89 88.71 78.89 88.47 78.89 88.47L78.79 88.3C78.38 87.63 80.71 81.62 78.1 74.46C75.28 66.63 70.8 64.74 71.16 64.14C72.69 61.55 76.5201 57.44 78.05 49.78C78.96 45.14 78.7201 37.5 76.66 33.5C76.28 32.76 72.88 34.74 72.88 34.74C72.88 34.74 69.7 27.65 68.81 27.08C65.94 25.24 62.81 34.69 62.81 34.69C60.6427 34.4777 58.4556 34.7738 56.4228 35.555C54.39 36.3362 52.5674 37.5809 51.1 39.19C50.0123 40.2378 48.6935 41.0154 47.25 41.46C46.84 41.6 46.34 41.58 45.1 44.93C43.2 50 48.34 55.74 48.34 55.74C48.34 55.74 42.21 60.07 39.94 65.46C38.4239 69.1554 37.8235 73.1626 38.19 77.14C38.19 77.14 33.83 80.92 33.55 84.82C33.2902 87.552 33.9103 90.2955 35.32 92.65C35.4301 92.885 35.5861 93.0956 35.7789 93.2692C35.9718 93.4429 36.1975 93.576 36.4427 93.6609C36.6879 93.7457 36.9477 93.7805 37.2066 93.7632C37.4655 93.7459 37.7183 93.6768 37.95 93.56C37.95 93.56 35.05 96.94 37.76 98.37C40.23 99.66 44.39 100.37 46.59 98.18C48.19 96.58 48.51 93.01 49.1 91.55C49.24 91.21 49.72 92.12 50.18 92.55C50.6044 92.9211 51.0593 93.2556 51.54 93.55C51.54 93.55 47.64 95.23 49.24 99.06C49.77 100.33 51.66 101.14 54.75 101.12C55.9 101.12 68.51 100.4 71.87 99.59C72.8858 99.4288 73.8111 98.9112 74.48 98.13C79.9359 96.5072 85.1467 94.1524 89.97 91.13C94.71 88.04 96.65 87.2 100.48 86.29C103.64 85.54 103.43 80.64 99.24 80.71Z" fill="#2C8EBB"/>
<path d="M64 2C51.7376 2 39.7505 5.63624 29.5547 12.4489C19.3588 19.2615 11.4121 28.9446 6.7195 40.2736C2.02686 51.6026 0.799057 64.0688 3.19134 76.0956C5.58362 88.1224 11.4886 99.1698 20.1594 107.841C28.8303 116.511 39.8776 122.416 51.9044 124.809C63.9312 127.201 76.3974 125.973 87.7264 121.281C99.0554 116.588 108.739 108.641 115.551 98.4454C122.364 88.2495 126 76.2624 126 64C126 47.5566 119.468 31.7866 107.841 20.1594C96.2134 8.53212 80.4435 2 64 2ZM101.3 89.83C97.95 90.64 96.39 91.27 91.89 94.19C87.0321 97.2395 81.8027 99.6526 76.33 101.37C75.2725 102.238 74.0255 102.844 72.69 103.14C68.88 104.07 55.81 104.77 54.78 104.77H54.54C50.54 104.77 48.27 103.53 47.05 102.23C43.65 103.93 39.25 103.23 36.05 101.54C35.2838 101.164 34.6145 100.617 34.0942 99.9406C33.5739 99.2642 33.2166 98.477 33.05 97.64C32.9313 96.9585 32.9313 96.2615 33.05 95.58C32.7553 95.2727 32.4908 94.9378 32.26 94.58C30.4434 91.5574 29.6508 88.0292 30 84.52C30.29 80.79 32.87 77.46 34.55 75.69C34.4104 71.6921 35.1122 67.7094 36.61 64C38.2189 60.55 40.5437 57.482 43.43 55C41.78 52.22 40.1 47.94 41.73 43.58C42.9 40.47 43.86 38.74 45.97 38C46.8914 37.7342 47.7465 37.2777 48.48 36.66C51.5574 33.3171 55.8055 31.2897 60.34 31C60.53 30.52 60.75 30 60.99 29.54C62.59 26.14 64.29 24.23 66.28 23.54C67.0009 23.2705 67.7753 23.1753 68.54 23.2622C69.3047 23.3491 70.038 23.6156 70.68 24.04C71.33 24.47 72.16 25.04 74.58 30.04C75.4966 29.7117 76.4927 29.6767 77.43 29.94C77.9414 30.0793 78.4181 30.3238 78.8297 30.6579C79.2412 30.9919 79.5785 31.4082 79.82 31.88C82.29 36.62 82.62 45.07 81.54 50.5C80.5816 55.3077 78.5889 59.8493 75.7 63.81C78.2839 66.4981 80.2527 69.7157 81.47 73.24C82.6597 76.574 83.14 80.1197 82.88 83.65C83.9552 83.1354 84.9972 82.5542 86 81.91C89.06 80.02 93.68 77.17 99.19 77.1C100.862 76.9881 102.513 77.5141 103.812 78.5718C105.111 79.6296 105.961 81.1405 106.19 82.8C106.399 84.3706 106.013 85.9626 105.108 87.2633C104.204 88.564 102.845 89.4795 101.3 89.83Z" fill="#2C8EBB"/>
</svg>
