<svg width="128" height="128" viewBox="0 0 128 128" fill="none" xmlns="http://www.w3.org/2000/svg">
<path d="M78.9999 63.87C78.2968 66.3788 77.0198 68.6897 75.2699 70.62V55.72C75.2532 55.445 75.1799 55.1763 75.0545 54.931C74.929 54.6856 74.7543 54.4688 74.5412 54.2942C74.328 54.1195 74.0811 53.9908 73.8159 53.9161C73.5507 53.8414 73.2729 53.8223 72.9999 53.86C72.4099 53.86 71.8999 54.16 71.8999 54.58C71.9671 55.0302 72.0005 55.4848 71.9999 55.94V62.77C71.4899 65.77 70.2199 68.5 68.5199 68.5C67.2899 68.5 66.5199 67.27 66.5199 64.98C66.5238 62.0796 66.9379 59.1944 67.7499 56.41C67.9199 55.77 69.1499 54.08 67.0699 54.08C64.8199 54.08 65.0699 54.93 64.8199 55.65C63.9762 58.7671 63.4996 61.9722 63.3999 65.2C63.3999 68.89 64.9499 71.31 67.7899 71.31C69.6099 71.31 70.9299 70.08 71.9499 68.38V73.77C69.1499 76.23 66.6899 78.4 66.6899 82.68C66.6899 85.4 68.3899 87.56 70.7599 87.56C72.9199 87.56 75.1699 85.99 75.1699 81.56V74.19C78.1706 71.7754 80.3389 68.481 81.3699 64.77C81.3846 64.6304 81.3846 64.4896 81.3699 64.35C81.3588 63.9501 81.2197 63.5644 80.9731 63.2494C80.7265 62.9344 80.3854 62.7068 79.9999 62.6C79.5799 62.6 79.2399 62.98 78.9999 63.87ZM70.8499 84.87C70.1699 84.87 69.7499 83.87 69.7499 82.54C69.7195 81.5109 69.9039 80.4868 70.2913 79.533C70.6787 78.5791 71.2606 77.7165 71.9999 77V81.54C71.9999 82.35 72.1699 84.89 70.8099 84.89L70.8499 84.87Z" fill="#2C8EBB"/>
<path d="M91.1599 68.46C90.1599 68.46 89.7199 67.46 89.7199 66.46V59.46C89.7048 59.1822 89.6319 58.9105 89.5058 58.6624C89.3798 58.4144 89.2034 58.1953 88.9878 58.0193C88.7723 57.8433 88.5224 57.7142 88.2542 57.6403C87.9859 57.5664 87.7051 57.5493 87.4299 57.59C86.8399 57.59 86.3299 57.89 86.3299 58.31C86.4205 58.7585 86.4773 59.2131 86.4999 59.67V66.21C86.0299 67.4 85.2699 68.42 84.1199 68.42C82.6299 68.42 81.6999 67.15 81.6999 64.94C81.6999 58.83 85.4799 56.07 88.6999 56.07C89.1199 56.07 89.5499 56.15 89.9299 56.15C90.3099 56.15 90.4799 55.9 90.4799 55.15C90.4852 54.8956 90.4352 54.643 90.3334 54.4097C90.2316 54.1764 90.0805 53.968 89.8904 53.7988C89.7002 53.6296 89.4757 53.5036 89.2322 53.4296C88.9887 53.3556 88.732 53.3352 88.4799 53.37C83.2999 53.37 78.3799 57.7 78.3799 64.79C78.3799 68.4 80.1199 71.2 83.4299 71.2C84.1292 71.1985 84.8194 71.0416 85.4506 70.7407C86.0819 70.4397 86.6384 70.0023 87.0799 69.46C87.4277 70.0083 87.9119 70.4569 88.4851 70.7619C89.0583 71.0669 89.7008 71.2179 90.3499 71.2C93.9999 71.2 95.6999 67.38 96.4199 64.58C96.4333 64.4805 96.4333 64.3796 96.4199 64.28C96.3911 63.8859 96.2381 63.511 95.983 63.2091C95.7279 62.9073 95.3837 62.6941 94.9999 62.6C94.5799 62.6 94.1499 62.98 93.9999 63.87C93.6199 65.74 92.8499 68.45 91.1599 68.45V68.46Z" fill="#2C8EBB"/>
<path d="M103.43 71.26C107.08 71.26 108.74 67.44 109.5 64.64V64.34C109.48 63.9259 109.322 63.5302 109.053 63.2152C108.783 62.9002 108.416 62.6838 108.01 62.6C107.59 62.6 107.16 62.98 107.01 63.87C106.63 65.74 105.91 68.45 103.95 68.45C102.8 68.45 102.25 67.3501 102.25 66.1601C102.25 61.9201 104.16 56.9101 104.16 56.4001C104.33 55.4001 102.63 54.02 102.16 54.02H99.9499C99.1968 54.017 98.4449 53.9602 97.6999 53.85C97.5923 53.2154 97.2607 52.6404 96.7653 52.2293C96.2699 51.8183 95.6435 51.5986 94.9999 51.61C94.7273 51.5937 94.4543 51.6333 94.1976 51.7264C93.9409 51.8196 93.7061 51.9643 93.5074 52.1517C93.3088 52.339 93.1507 52.5651 93.0428 52.8159C92.9348 53.0667 92.8794 53.337 92.8799 53.61C92.9016 54.1875 93.0833 54.7476 93.4046 55.2278C93.726 55.7081 94.1744 56.0897 94.6999 56.3301C94.6958 58.7899 94.4615 61.2439 93.9999 63.66C93.6199 65.1 95.8199 66.66 96.3799 64.85C97.0547 62.2856 97.4273 59.651 97.4899 57H101.18C99.9284 59.9781 99.2108 63.1532 99.0599 66.38C99.0599 70.11 101.44 71.22 103.43 71.22V71.26Z" fill="#2C8EBB"/>
<path d="M107.21 69.39C107.195 69.6509 107.237 69.912 107.334 70.1547C107.431 70.3974 107.58 70.6157 107.771 70.7942C107.962 70.9727 108.19 71.107 108.439 71.1875C108.688 71.268 108.951 71.2927 109.21 71.26C110.44 71.26 110.4 70.26 110.4 69.44V63.24C110.7 59.89 113.33 56.24 114.56 56.24C115.37 56.24 115.45 57.34 115.45 58.66V67.28C115.45 69.44 116.77 71.28 119.02 71.28C122.67 71.28 124.47 67.46 125.2 64.66C125.214 64.5604 125.214 64.4595 125.2 64.36C125.18 63.9458 125.022 63.5501 124.753 63.2351C124.483 62.9201 124.116 62.7038 123.71 62.62C123.29 62.62 122.86 63 122.71 63.89C122.33 65.76 121.46 68.47 119.76 68.47C118.66 68.47 118.66 66.9 118.66 66.47V57.72C118.66 55.72 117.98 53.43 115.14 53.43C113.06 53.43 111.53 55.25 110.39 57.63V55.72C110.375 55.4421 110.302 55.1705 110.176 54.9224C110.05 54.6743 109.874 54.4553 109.658 54.2793C109.443 54.1033 109.193 53.9742 108.924 53.9003C108.656 53.8264 108.375 53.8092 108.1 53.85C107.51 53.85 107 54.15 107 54.57C107.091 55.0184 107.148 55.473 107.17 55.93V69.39H107.21ZM45.3501 71.28C43.5646 71.4375 41.8562 72.0807 40.4101 73.14C37.7901 74.76 36.4901 74.65 36.4901 74.65V74.58C36.3101 74.29 37.3201 71.67 36.1901 68.58C34.9601 65.17 33.0101 64.35 33.1901 64.09C34.6294 62.2475 35.6528 60.1154 36.1901 57.84C36.5901 55.84 36.4801 52.49 35.5901 50.75C35.4201 50.43 33.9401 51.29 33.9401 51.29C33.4507 50.1262 32.8584 49.0084 32.1701 47.95C30.9201 47.15 29.5601 51.27 29.5601 51.27C28.6129 51.1819 27.6582 51.3169 26.7726 51.6642C25.8869 52.0115 25.0949 52.5614 24.4601 53.27C23.9866 53.7308 23.411 54.0734 22.7801 54.27C22.6001 54.33 22.3801 54.32 21.8401 55.78C21.0101 58.01 23.2501 60.49 23.2501 60.49C21.7157 61.5939 20.4621 63.0428 19.5901 64.72C18.93 66.3305 18.6692 68.0769 18.8301 69.81C18.8301 69.81 16.9301 71.46 16.8301 73.16C16.7163 74.3497 16.9862 75.5446 17.6001 76.57C17.6471 76.6737 17.7147 76.7668 17.7988 76.8436C17.8829 76.9204 17.9817 76.9793 18.0893 77.0167C18.1969 77.0541 18.3109 77.0693 18.4245 77.0612C18.5381 77.0532 18.6489 77.0222 18.7501 76.97C18.7501 76.97 17.4901 78.44 18.6701 79.07C19.8501 79.7 21.5601 79.96 22.5201 78.99C23.2201 78.29 23.3501 76.74 23.6101 76.1C23.6701 75.95 23.8801 76.35 24.0801 76.55C24.264 76.7131 24.4614 76.8602 24.6701 76.99C24.4453 77.0799 24.2407 77.2137 24.0682 77.3837C23.8958 77.5537 23.759 77.7564 23.6659 77.9799C23.5728 78.2034 23.5252 78.4432 23.5259 78.6854C23.5266 78.9275 23.5757 79.167 23.6701 79.39C23.9001 79.94 24.7201 80.3 26.0701 80.29C28.5634 80.196 31.0501 79.9724 33.5201 79.62C33.9642 79.5491 34.3684 79.3221 34.6601 78.98C37.0341 78.2721 39.3014 77.2461 41.4001 75.93C42.7621 74.9136 44.3225 74.1947 45.9801 73.82C46.1469 73.7786 46.3039 73.7048 46.4422 73.6028C46.5804 73.5007 46.6972 73.3725 46.7859 73.2253C46.8746 73.0781 46.9334 72.9149 46.959 72.745C46.9846 72.5751 46.9765 72.4018 46.9351 72.235C46.8938 72.0682 46.82 71.9112 46.7179 71.773C46.6159 71.6347 46.4876 71.5179 46.3404 71.4292C46.1932 71.3405 46.03 71.2817 45.8601 71.2561C45.6902 71.2305 45.5169 71.2386 45.3501 71.28Z" fill="#2C8EBB"/>
<path d="M30 37C24.6599 37 19.4397 38.5835 14.9996 41.5503C10.5595 44.5171 7.09883 48.7339 5.05526 53.6675C3.0117 58.6012 2.47701 64.03 3.51881 69.2674C4.56061 74.5049 7.13211 79.3159 10.9081 83.0919C14.6841 86.8679 19.4951 89.4394 24.7326 90.4812C29.9701 91.523 35.3989 90.9883 40.3325 88.9447C45.2661 86.9012 49.4829 83.4405 52.4497 79.0004C55.4165 74.5603 57 69.3401 57 64C57 56.8392 54.1554 49.9716 49.0919 44.9081C44.0284 39.8446 37.1609 37 30 37ZM46.24 75.25C44.755 75.588 43.3579 76.2354 42.14 77.15C40.0234 78.4794 37.7447 79.5313 35.36 80.28C34.901 80.6569 34.3597 80.9207 33.78 81.05C31.1957 81.4358 28.5915 81.6728 25.98 81.76H25.88C25.2893 81.8121 24.6942 81.7402 24.1328 81.5491C23.5715 81.358 23.0562 81.0517 22.62 80.65C21.8544 80.9657 21.0269 81.1028 20.2004 81.0508C19.3738 80.9988 18.57 80.7591 17.85 80.35C17.5194 80.1841 17.2311 79.9446 17.0075 79.6499C16.7839 79.3552 16.6308 79.0131 16.56 78.65C16.5077 78.3523 16.5077 78.0477 16.56 77.75C16.4328 77.6146 16.319 77.4672 16.22 77.31C15.4241 75.9956 15.0734 74.4596 15.22 72.93C15.4519 71.4639 16.1538 70.1127 17.22 69.08C17.1459 67.3459 17.4354 65.6155 18.07 64C18.7805 62.4981 19.8033 61.1651 21.07 60.09C20.5787 59.3658 20.257 58.5402 20.1289 57.6745C20.0008 56.8089 20.0695 55.9254 20.33 55.09C20.84 53.73 21.26 52.98 22.18 52.66C22.5796 52.5443 22.9508 52.3468 23.27 52.08C24.6092 50.6177 26.4614 49.7292 28.44 49.6C28.52 49.39 28.62 49.18 28.72 48.96C29.1151 47.8335 29.9327 46.9048 31 46.37C31.3147 46.2527 31.6527 46.2115 31.9864 46.2497C32.3201 46.288 32.64 46.4046 32.92 46.59C33.2 46.78 33.57 47.01 34.62 49.19C35.0229 49.0586 35.4571 49.0586 35.86 49.19C36.0748 49.2551 36.2742 49.3631 36.4461 49.5075C36.618 49.6519 36.7588 49.8296 36.86 50.03C37.93 52.09 38.08 55.77 37.61 58.14C37.1941 60.2347 36.3274 62.2138 35.07 63.94C36.1992 65.0946 37.0657 66.4795 37.61 68C38.1297 69.4504 38.3408 70.9933 38.23 72.53C38.6982 72.3117 39.1524 72.0645 39.59 71.79C41.2756 70.5788 43.2608 69.8525 45.33 69.69C46.0497 69.6531 46.757 69.8874 47.3124 70.3465C47.8678 70.8056 48.2309 71.4563 48.33 72.17C48.4264 72.8513 48.2658 73.544 47.8794 74.1133C47.4931 74.6827 46.9087 75.0879 46.24 75.25Z" fill="#2C8EBB"/>
</svg>
