<svg width="128" height="128" viewBox="0 0 128 128" fill="none" xmlns="http://www.w3.org/2000/svg">
<path d="M96.6442 1.85803C85.8542 2.26203 72.7372 15.813 77.2252 28.453C81.9762 40.994 85.0202 49.914 85.6562 63.905C97.0592 52.432 107.536 39.976 108.381 25.523C108.658 13.794 103.106 5.15103 96.6442 1.85803ZM84.0122 66.273C79.4802 59.433 71.2542 55.222 68.1932 53.93C66.5732 56.825 64.4472 59.97 61.6772 63.413C55.8542 70.753 49.9822 82.79 51.7892 96.9C75.8422 94.246 83.3532 76.193 84.0122 66.273ZM42.6992 43.311C50.7612 45.699 56.4082 47.168 62.5222 49.389C71.4612 52.637 78.4792 56.784 84.0382 63.94C83.0072 51.627 77.9352 37.517 69.8382 26.511C58.2842 10.811 38.2772 3.27303 19.6872 10.63C18.8332 21.67 23.5562 38.086 42.6992 43.311Z" fill="#0073BB"/>
<path d="M28.5281 119.856V106.027C28.5281 105.912 28.4823 105.801 28.4008 105.719C28.3192 105.637 28.2086 105.591 28.0931 105.591H26.0911C25.9759 105.592 25.8657 105.638 25.7844 105.72C25.7031 105.801 25.6574 105.912 25.6571 106.027V119.856C25.6571 120.095 25.8521 120.313 26.0911 120.313H28.0931C28.3331 120.313 28.5281 120.095 28.5281 119.856ZM17.9581 120.271V105.683C16.8351 105.706 15.1091 106.439 15.0881 107.976V117.965C14.4791 118.052 13.5211 118.14 12.9991 118.14C11.1291 118.14 10.6721 116.813 10.6721 115.028V107.896C10.5551 106.156 8.59312 105.649 7.80112 105.701V115.028C7.80112 118.422 9.49712 120.493 12.9991 120.493C13.5201 120.493 14.6311 120.34 15.0881 120.248V120.426C15.5311 123.286 12.0611 122.207 10.1811 122.013C8.79612 122.013 7.85012 123.154 7.59912 124.44C8.40412 124.701 11.0581 125.037 12.8991 125.182C16.2281 125.181 17.9581 123.361 17.9581 120.271ZM23.2111 119.856V106.027C23.2111 105.912 23.1653 105.801 23.0838 105.719C23.0022 105.637 22.8916 105.591 22.7761 105.591H20.7751C20.6596 105.591 20.5488 105.637 20.4671 105.719C20.3854 105.801 20.3394 105.911 20.3391 106.027V119.856C20.3391 120.095 20.5341 120.313 20.7751 120.313H22.7761C23.0161 120.313 23.2111 120.095 23.2111 119.856ZM21.7751 101.693C22.1721 101.693 22.5528 101.851 22.8334 102.132C23.1139 102.413 23.2714 102.794 23.2711 103.191C23.2709 103.588 23.1129 103.969 22.832 104.249C22.551 104.53 22.1702 104.687 21.7731 104.687C21.3761 104.687 20.9954 104.529 20.7149 104.248C20.4343 103.967 20.2769 103.586 20.2771 103.189C20.2774 102.792 20.4354 102.411 20.7163 102.131C20.9972 101.85 21.3781 101.693 21.7751 101.693ZM27.1061 101.693C27.3027 101.693 27.4973 101.732 27.6789 101.807C27.8605 101.883 28.0255 101.993 28.1644 102.132C28.3033 102.271 28.4134 102.436 28.4886 102.618C28.5637 102.8 28.6023 102.994 28.6021 103.191C28.602 103.388 28.5631 103.582 28.4878 103.764C28.4124 103.945 28.3021 104.11 28.163 104.249C28.0238 104.388 27.8587 104.498 27.6771 104.573C27.4954 104.649 27.3007 104.687 27.1041 104.687C26.7071 104.687 26.3264 104.529 26.0459 104.248C25.7653 103.967 25.6079 103.586 25.6081 103.189C25.6084 102.792 25.7664 102.411 26.0473 102.131C26.3282 101.85 26.7091 101.693 27.1061 101.693Z" fill="#0073BB"/>
<path d="M37.4891 105.079V104.334C37.4891 104.137 37.3801 104.005 37.0511 103.962C36.3973 103.872 35.738 103.829 35.0781 103.831C33.0181 103.831 31.7041 104.531 31.7041 106.877V120.022C31.7041 120.264 31.9011 120.46 32.1431 120.46H33.1941C33.3102 120.46 33.4214 120.414 33.5035 120.331C33.5856 120.249 33.6318 120.138 33.6321 120.022V109.944H37.0501C37.2901 109.944 37.4661 109.768 37.4661 109.55V108.804C37.4661 108.563 37.2901 108.41 37.0501 108.41H33.6321V106.877C33.6321 105.583 33.8721 105.386 35.0771 105.386H37.0271C37.3361 105.385 37.4891 105.276 37.4891 105.079ZM44.4861 109.591V108.584C44.4861 108.278 44.3111 108.256 44.0271 108.256C42.2081 108.256 40.6961 108.321 39.4471 108.869C39.2061 108.978 39.0521 109.132 39.0521 109.372V120.02C39.0521 120.262 39.2271 120.458 39.4471 120.458H40.5871C40.8271 120.458 40.9811 120.239 40.9811 120.02V110.161C41.8141 109.986 42.5381 109.942 44.0281 109.942C44.4421 109.943 44.4861 109.833 44.4861 109.591ZM53.9591 119.604V109.263C53.9591 108.956 53.8941 108.847 53.4991 108.76C52.3381 108.475 50.7821 108.257 49.4681 108.257C46.1811 108.257 44.6921 110.381 44.6921 113.668V115.201C44.6921 118.487 46.2051 120.616 49.4681 120.616C50.8041 120.616 52.3381 120.393 53.4991 120.109C53.8941 120.021 53.9591 119.889 53.9591 119.604ZM52.0301 118.772C51.4181 118.881 50.3871 118.991 49.4671 118.991C47.2981 118.991 46.6181 117.501 46.6181 115.2V113.667C46.6181 111.344 47.2981 109.876 49.4671 109.876C50.3871 109.876 51.4391 109.986 52.0301 110.095V118.772ZM69.8731 120.021V112.09C69.8731 109.833 68.6021 108.256 65.9741 108.256H65.4701C64.1561 108.256 63.2791 108.475 62.6221 109.044C61.9421 108.431 61.0881 108.256 59.7731 108.256H59.2701C56.6401 108.256 55.3701 109.833 55.3701 112.09V120.021C55.3701 120.263 55.5221 120.459 55.7651 120.459H56.9051C57.1451 120.459 57.2991 120.263 57.2991 120.021V112.09C57.2991 110.205 58.1321 109.943 59.2721 109.943H59.7761C61.1771 109.943 61.6601 110.184 61.6601 111.433V120.021C61.6601 120.263 61.8131 120.459 62.0551 120.459H63.1941C63.4351 120.459 63.5891 120.263 63.5891 120.021V111.433C63.5891 110.184 64.0711 109.943 65.4741 109.943H65.9781C67.1381 109.943 67.9501 110.206 67.9501 112.09V120.021C67.9501 120.263 68.1031 120.459 68.3451 120.459H69.4851C69.7201 120.459 69.8731 120.263 69.8731 120.021ZM80.5731 114.566V113.383C80.5731 110.271 78.9521 108.257 75.7531 108.257C72.6201 108.257 70.8891 110.25 70.8891 113.383V115.354C70.8891 119.43 73.3431 120.616 75.8631 120.616C77.3311 120.616 78.5361 120.485 79.7851 120.241C80.1361 120.175 80.2231 120.022 80.2231 119.737V118.992C80.2231 118.773 80.0471 118.685 79.8721 118.685H79.7631C78.7551 118.838 77.1341 118.926 75.8631 118.926C73.8471 118.926 72.8171 117.962 72.8171 115.355V115.049H80.1571C80.4201 115.048 80.5731 114.851 80.5731 114.566ZM78.6231 113.58H72.8161V113.383C72.8161 111.017 73.8691 109.943 75.7531 109.943C77.6811 109.943 78.6231 110.907 78.6231 113.383V113.58ZM96.5101 115.704V108.847C96.5096 108.731 96.4631 108.62 96.3809 108.538C96.2986 108.455 96.1873 108.409 96.0711 108.409H95.0421C94.9261 108.41 94.815 108.456 94.733 108.538C94.6509 108.62 94.6046 108.731 94.6041 108.847V115.704C94.6041 118.094 93.7061 118.969 91.9091 118.969C91.3601 118.969 90.7921 118.838 90.1561 118.684V108.847C90.1556 108.731 90.1093 108.62 90.0272 108.538C89.9452 108.456 89.8341 108.41 89.7181 108.409H88.6451C88.5291 108.41 88.418 108.456 88.336 108.538C88.2539 108.62 88.2076 108.731 88.2071 108.847V118.684C87.5721 118.837 87.0021 118.969 86.4541 118.969C84.6141 118.969 83.7601 118.094 83.7601 115.704V108.847C83.7596 108.731 83.7133 108.62 83.6312 108.538C83.5492 108.456 83.4381 108.41 83.3221 108.409H82.2901C82.1741 108.41 82.063 108.456 81.981 108.538C81.8989 108.62 81.8526 108.731 81.8521 108.847V115.704C81.8521 119.583 84.0211 120.616 86.2771 120.616C87.3741 120.616 88.2711 120.417 89.1921 120.087C90.1121 120.417 90.9881 120.616 92.0841 120.616C94.3401 120.616 96.5101 119.583 96.5101 115.704ZM107.713 115.267V113.602C107.713 110.381 106.047 108.257 102.826 108.257C99.6061 108.257 97.9631 110.381 97.9631 113.602V115.267C97.9631 118.487 99.6071 120.616 102.826 120.616C106.047 120.616 107.713 118.486 107.713 115.267ZM105.784 115.267C105.784 117.524 104.864 118.926 102.826 118.926C100.767 118.926 99.8911 117.502 99.8911 115.267V113.602C99.8911 111.345 100.788 109.943 102.826 109.943C104.887 109.943 105.784 111.367 105.784 113.602V115.267ZM114.6 109.591V108.584C114.6 108.278 114.425 108.256 114.141 108.256C112.322 108.256 110.81 108.321 109.561 108.869C109.32 108.978 109.166 109.132 109.166 109.372V120.02C109.166 120.262 109.342 120.458 109.561 120.458H110.701C110.942 120.458 111.096 120.239 111.096 120.02V110.161C111.929 109.986 112.652 109.942 114.142 109.942C114.557 109.943 114.6 109.833 114.6 109.591ZM124.401 120.174C124.401 120.109 124.379 120.021 124.335 119.977L119.472 114.105L124.292 108.891C124.358 108.828 124.397 108.741 124.401 108.65C124.401 108.519 124.292 108.409 124.073 108.409H122.539C122.32 108.409 122.232 108.453 122.101 108.606L117.719 113.536V104.421C117.719 104.305 117.672 104.194 117.59 104.112C117.508 104.03 117.397 103.984 117.281 103.983H116.228C116.112 103.984 116.001 104.03 115.919 104.112C115.837 104.194 115.791 104.305 115.79 104.421V120.021C115.79 120.263 115.987 120.459 116.228 120.459H117.281C117.397 120.459 117.508 120.412 117.59 120.33C117.672 120.248 117.719 120.137 117.719 120.021V114.785L122.079 120.174C122.254 120.393 122.342 120.459 122.583 120.459H124.16C124.314 120.459 124.401 120.328 124.401 120.174Z" fill="#0073BB"/>
</svg>
