<svg width="128" height="128" viewBox="0 0 128 128" fill="none" xmlns="http://www.w3.org/2000/svg">
<path fill-rule="evenodd" clip-rule="evenodd" d="M107.131 1.22803C92.8778 1.76203 75.5528 19.663 81.4808 36.358C87.7558 52.923 91.7768 64.706 92.6178 83.188C107.68 68.033 121.519 51.579 122.636 32.488C123.002 16.995 115.669 5.57703 107.131 1.22803ZM69.5488 70.012C67.4098 73.835 64.6028 77.99 60.9428 82.54C53.2518 92.233 45.4968 108.133 47.8818 126.772C79.6528 123.266 89.5748 99.419 90.4448 86.315C84.4578 77.281 73.5948 71.719 69.5488 70.012ZM5.47679 12.815C4.34879 27.398 10.5868 49.082 35.8738 55.984C46.5218 59.137 53.9828 61.08 62.0598 64.012C73.8688 68.303 83.1378 73.78 90.4818 83.233C89.1188 66.968 82.4198 48.331 71.7228 33.792C56.4618 13.052 30.0338 3.09703 5.47679 12.815Z" fill="#0073BB"/>
</svg>
