<svg width="128" height="128" viewBox="0 0 128 128" fill="none" xmlns="http://www.w3.org/2000/svg">
<path d="M118.002 -0.00109863H10.0021C4.4789 -0.00109863 0.00146484 4.47634 0.00146484 9.99954V118C0.00146484 123.523 4.4789 128 10.0021 128H118.002C123.525 128 128.003 123.523 128.003 118V9.99954C128.003 4.47634 123.525 -0.00109863 118.002 -0.00109863Z" fill="black"/>
<path d="M16.556 114.432C15.4373 113.676 13.9292 111.937 13.2036 110.565C11.8051 107.912 9.07254 105.013 6.29459 103.229C4.37459 101.997 3.3201 98.3045 4.48797 96.8985C4.87726 96.4298 6.52515 95.6891 8.15034 95.2506C9.77554 94.816 11.3743 94.215 11.7031 93.9202C12.0319 93.6217 12.3305 91.4862 12.3683 89.1731C12.5913 75.0075 12.7009 74.6597 17.036 74.6597C22.1762 74.6597 25.6533 80.8015 23.9639 86.8941C22.7658 91.2141 23.0039 92.1476 25.3094 92.1325C28.8319 92.1174 29.0209 91.713 29.1796 83.9461C29.4215 72.2295 31.9878 68.5029 37.8801 71.3111C41.6143 73.095 42.1661 77.9253 39.6112 86.5237C38.7721 89.3357 40.4313 100.98 42.1661 104.495C43.145 106.476 42.0981 109.258 40.2726 109.518C39.4411 109.636 38.0804 109.057 36.9579 108.112C35.9072 107.228 34.83 106.506 34.5579 106.506C34.2896 106.506 33.288 105.384 32.3356 104.012C30.6801 101.615 28.7828 100.807 27.9626 102.137C27.751 102.477 26.3034 103.082 24.75 103.471C22.0212 104.159 21.9305 104.257 22.2744 106.128C23.3025 111.669 23.31 113.876 22.3198 114.87C20.9667 116.227 19.0089 116.08 16.5598 114.432H16.556ZM79.8254 105.762C78.4723 104.975 75.8342 102.039 74.6663 100.017C74.2506 99.2909 73.8953 97.3483 73.8839 95.6928C73.8537 91.2708 75.7094 88.4853 76.6732 91.5164C77.5841 94.3889 80.9668 95.6815 82.558 93.7577C83.843 92.2081 81.6924 88.5873 76.3633 83.3262C71.5709 78.6018 71.363 78.2805 71.363 75.5593C71.363 71.3375 72.5724 69.5876 76.9075 67.5127C80.5132 65.793 80.8231 65.7438 83.3705 66.5602C86.8288 67.6714 90.8918 71.587 90.6121 73.5372C90.442 74.758 90.0452 74.9734 87.9135 74.9734C86.5378 74.9734 85.0638 75.2002 84.6329 75.4761C83.3592 76.3038 83.7447 78.1898 85.4153 79.2859C86.9535 80.2912 86.9762 80.2837 86.9762 78.5338C86.9762 76.8179 87.1387 76.7271 92.4414 75.5555L97.9028 74.346L98.3488 69.4327C99.101 61.163 101.49 59.5303 106.21 64.0657C107.65 65.4528 108.875 66.9268 108.928 67.3426C108.981 67.7583 109.052 68.5218 109.086 69.0396C109.136 69.8106 110.088 69.9391 114.533 69.7577C119.718 69.5498 119.99 69.6065 121.865 71.3186C123.203 72.5394 123.861 73.7678 123.97 75.238C124.106 77.0446 123.812 77.5965 122.05 78.7983C120.909 79.5807 117.182 81.1114 113.777 82.1999C108.886 83.7571 107.582 84.4185 107.582 85.3256C107.582 85.9606 107.903 89.2865 108.293 92.7221C109.098 99.7898 108.584 102.103 105.949 103.305C103.629 104.363 103.017 104.197 100.828 101.937C98.2657 99.2947 97.472 96.5092 97.986 91.9209C98.4584 87.6765 98.1825 87.3552 94.2972 87.6651L91.5306 87.8843L92.4376 90.4809C93.0235 92.159 93.2238 94.2982 93.0046 96.513C92.7211 99.4157 92.3469 100.225 90.6008 101.729C85.4266 106.177 82.4559 107.285 79.8291 105.762H79.8254ZM54.3891 105.24C51.3919 104.722 47.0379 101.355 44.4149 97.5221C42.5441 94.7857 42.3324 94.0374 42.374 90.341C42.4345 85.5297 43.9311 79.936 45.802 77.5587C47.2836 75.6727 51.8001 73.4087 54.0792 73.4087C55.4625 73.4087 58.6638 74.5842 63.5583 76.8934C67.7838 78.8815 68.517 80.1212 69.4468 86.8072L70.1346 91.7394L67.8556 96.5961C66.6008 99.2645 64.9453 102.042 64.1743 102.764C62.3601 104.469 57.3145 105.746 54.3891 105.24ZM55.9652 93.4327C58.2102 92.5785 59.3365 88.8783 57.9797 86.8109C57.4278 85.9643 56.6115 85.2727 56.1655 85.2727C53.6786 85.2727 51.048 91.1763 52.6694 93.1265C53.5387 94.1735 53.9167 94.2113 55.9652 93.4289V93.4327ZM20.7211 62.0134C19.5267 61.2197 17.9129 59.2355 17.036 57.4856C15.6149 54.6434 15.4902 53.7552 15.6451 47.5643L15.8115 40.7612L12.0546 37.1555C9.9872 35.1674 8.29396 33.4289 8.29396 33.2928C8.29396 33.1567 7.73082 30.4128 7.04672 27.2002C6.35885 23.9876 5.79569 19.8679 5.79569 18.0462C5.79569 15.1964 6.0149 14.5955 7.37553 13.6997C9.84735 12.0859 12.5497 13.1706 14.9535 16.746C16.5485 19.1196 17.0133 20.5822 17.3648 24.3618C17.8297 29.2903 18.6499 30.6849 20.7059 30.0311C21.9343 29.6455 25.4946 25.9492 26.7645 23.7495C27.407 22.6345 27.5582 22.6534 30.3022 24.2635C32.3771 25.4767 33.3749 26.5577 33.9003 28.1451C34.5504 30.1104 34.4559 30.6358 33.0348 33.0585C31.9354 34.8231 30.6059 36.4335 29.0814 37.8471C27.7812 38.9885 26.6814 40.5041 26.6436 41.2109C26.3412 46.5098 25.0259 62.0097 24.8218 62.6408C24.4439 63.7936 23.1022 63.5895 20.7211 62.0134ZM43.5494 57.546C40.6467 56.2799 36.6593 51.3665 35.7636 47.9574C34.8187 44.3441 34.8792 29.4415 35.8505 25.5712C36.2285 24.0594 36.8672 22.8273 37.2603 22.8273C38.4546 22.8273 42.5592 25.8811 43.3604 27.3665C43.8064 28.1867 44.1655 31.8112 44.2373 36.1841C44.3431 42.5867 44.5132 43.6978 45.4732 44.2345C46.3198 44.7108 46.7885 44.586 47.4234 43.7167C47.8845 43.0856 48.2625 42.1331 48.2663 41.6002C48.2738 41.0635 48.973 38.4367 49.8272 35.7608C50.6814 33.0887 51.4108 29.5737 51.4449 27.9561C51.5771 21.7388 52.9453 20.3479 56.2184 23.1032C60.0433 26.3196 60.2436 33.5838 56.8987 47.8062C55.5683 53.483 54.2342 55.4257 50.3223 57.41C47.9261 58.6194 46.1044 58.6572 43.5456 57.546H43.5494ZM65.0096 56.2194C61.676 54.4808 61.06 53.2223 61.9028 49.8698C63.7737 42.4317 64.1365 33.5914 62.8855 26.021C62.4849 23.5907 62.602 23.1599 63.9324 22.1356C64.7564 21.5007 66.0301 20.9753 66.7595 20.9677C68.5283 20.9488 72.614 25.4578 74.3866 29.3848C76.9756 35.1296 77.9167 36.7662 78.4723 36.5092C78.7746 36.3693 79.0959 32.0342 79.1866 26.8789C79.3302 18.6131 79.5116 17.192 80.7287 14.86C81.4846 13.4011 82.4975 12.2144 82.9699 12.2144C83.4461 12.2144 84.6102 13.4049 85.5551 14.8676C86.5 16.3265 87.5356 17.7022 87.8493 17.929C88.163 18.1558 88.3142 21.3873 88.1857 25.1101C88.05 29.1351 87.9996 33.1624 88.0345 37.1895C88.3368 54.7227 88.2386 55.7205 86.1372 56.518C84.1453 57.2739 81.0046 55.7394 77.225 52.164C75.4146 50.4556 73.6912 49.0572 73.3888 49.0572C73.0864 49.0572 72.3381 50.6711 71.722 52.6478C69.9192 58.4153 69.5753 58.5968 65.0096 56.2194ZM98.5302 50.8298C92.7098 47.6777 90.7331 44.7939 90.2644 38.7731C89.8902 33.9882 91.9274 25.4956 94.1422 22.5929C95.0115 21.4553 95.7183 20.2118 95.7183 19.8339C95.7183 19.4522 96.9655 18.2843 98.4849 17.2374C102.038 14.7958 105.326 14.6899 108.603 16.9123C113.199 20.0304 113.868 22.4418 114.06 36.5659C114.136 42.0273 114 42.7378 112.378 45.4969C111.407 47.1486 109.99 48.7322 109.23 49.0232C108.467 49.3142 107.499 49.9643 107.08 50.4708C106.161 51.5782 100.36 51.8238 98.5302 50.8298ZM104.721 35.7344C106.792 31.5844 106.516 28.9237 103.977 28.5608C102.85 28.3983 102.359 28.8821 101.414 31.0818C99.6528 35.1939 99.2332 37.7186 100.133 38.8033C101.475 40.4172 102.835 39.5063 104.721 35.7344Z" fill="white"/>
</svg>
