<svg width="128" height="128" viewBox="0 0 128 128" fill="none" xmlns="http://www.w3.org/2000/svg">
<path d="M81.973 12.93C81.578 13.324 81.297 13.746 81.352 13.86C81.379 14 81.27 14.086 81.098 14.086C80.957 14.086 80.902 14.226 80.984 14.367C81.07 14.535 80.957 14.73 80.73 14.817C80.48 14.902 80.34 15.097 80.422 15.211C80.508 15.351 80.449 15.52 80.282 15.633C80.113 15.746 80.055 15.945 80.141 16.086C80.254 16.226 80.168 16.34 80 16.34C79.805 16.34 79.719 16.508 79.805 16.73C79.887 16.957 79.887 17.21 79.773 17.324C79.66 17.437 79.551 17.914 79.52 18.394C79.41 19.945 79.156 25.324 79.016 29.297C78.844 33.41 78.73 35.465 78.59 35.914C78.562 36.054 78.535 36.281 78.562 36.394C78.622 36.762 78.34 36.648 77.773 36.086C77.465 35.773 77.297 35.465 77.379 35.379C77.492 35.297 77.41 35.211 77.211 35.211C77.016 35.211 76.957 35.071 77.043 34.93C77.125 34.762 77.098 34.648 76.984 34.648C76.73 34.648 75.945 32.984 76.027 32.59C76.027 32.48 75.914 32.395 75.747 32.395C75.605 32.395 75.551 32.254 75.633 32.113C75.719 31.945 75.66 31.832 75.493 31.832C75.324 31.832 75.27 31.692 75.352 31.551C75.437 31.379 75.379 31.27 75.211 31.27C75.043 31.27 74.984 31.125 75.071 30.984C75.156 30.816 75.098 30.704 74.93 30.704C74.762 30.704 74.703 30.562 74.79 30.422C74.875 30.254 74.816 30.141 74.648 30.141C74.48 30.141 74.422 30 74.508 29.859C74.59 29.691 74.535 29.579 74.368 29.579C74.195 29.579 74.141 29.437 74.227 29.297C74.309 29.125 74.254 29.016 74.086 29.016C73.914 29.016 73.859 28.875 73.946 28.73C74.027 28.562 73.973 28.45 73.805 28.45C73.633 28.45 73.578 28.309 73.66 28.168C73.746 28 73.691 27.887 73.52 27.887C73.352 27.887 73.27 27.773 73.352 27.633C73.437 27.493 73.324 27.297 73.07 27.211C72.816 27.098 72.676 26.957 72.762 26.844C72.875 26.762 72.73 26.508 72.449 26.281C72.141 26.027 72.113 25.945 72.395 26.055C72.621 26.168 72.449 25.915 71.973 25.492C71.52 25.098 71.324 24.844 71.551 24.957C71.773 25.07 71.156 24.367 70.141 23.379C69.125 22.395 68.227 21.605 68.113 21.633C67.973 21.66 67.887 21.551 67.887 21.379C67.887 21.239 67.773 21.184 67.605 21.269C67.465 21.352 67.325 21.352 67.325 21.211C67.325 21.098 67.015 20.957 66.621 20.957C66.227 20.93 65.914 21.043 65.914 21.184C65.914 21.352 65.719 21.41 65.492 21.297C65.27 21.211 65.07 21.27 65.07 21.437C65.07 21.605 64.957 21.66 64.816 21.578C64.676 21.492 64.48 21.605 64.395 21.859C64.309 22.086 64.113 22.227 64 22.141C63.21 21.661 62.195 24.984 62.875 25.832C63.043 26.027 63.07 26.508 62.985 26.902C62.875 27.297 62.902 27.773 63.015 27.972C63.125 28.168 63.27 28.816 63.297 29.437C63.41 31.605 63.379 40.141 63.238 41.551C63.156 42.309 63.07 43.324 63.016 43.805C62.984 44.254 62.844 44.816 62.73 45.015C62.59 45.211 62.563 45.605 62.676 45.887C62.762 46.195 62.703 46.507 62.536 46.621C62.367 46.731 62.309 47.043 62.395 47.324C62.48 47.605 62.422 47.914 62.254 48.027C62.086 48.141 62.027 48.449 62.114 48.762C62.227 49.07 62.168 49.297 61.973 49.297C61.773 49.297 61.719 49.492 61.805 49.747C61.887 50 61.887 50.34 61.773 50.507C61.465 50.984 61.493 53.238 61.805 53.238C61.945 53.238 61.973 53.324 61.887 53.438C61.773 53.52 61.914 53.773 62.195 54C62.48 54.254 62.508 54.34 62.254 54.195C61.973 54.055 62 54.195 62.367 54.59C62.957 55.27 63.211 55.41 62.957 54.844C62.844 54.676 62.984 54.762 63.238 55.07C63.492 55.379 63.832 55.605 63.973 55.578C64.113 55.52 64.227 55.633 64.227 55.805C64.227 55.945 64.367 56 64.507 55.915C64.676 55.832 64.789 55.887 64.789 56.055C64.789 56.227 64.929 56.281 65.07 56.195C65.238 56.113 65.352 56.168 65.352 56.34C65.352 56.508 65.492 56.562 65.632 56.48C65.805 56.395 65.914 56.45 65.914 56.621C65.914 56.789 66.054 56.844 66.195 56.761C66.367 56.676 66.48 56.731 66.48 56.902C66.48 57.07 66.621 57.125 66.762 57.043C66.93 56.957 67.043 56.984 67.043 57.156C67.043 57.324 67.238 57.379 67.465 57.296C67.691 57.184 67.887 57.27 67.887 57.438C67.887 58 68.957 57.773 69.66 57.07C70.055 56.676 70.281 56.309 70.195 56.227C70.113 56.141 70.195 56.055 70.395 56.055C70.59 56.055 70.675 55.945 70.563 55.805C70.48 55.66 70.535 55.465 70.703 55.352C70.875 55.238 70.93 55.043 70.843 54.902C70.73 54.762 70.789 54.648 70.957 54.648C71.125 54.648 71.184 54.449 71.097 54.227C70.984 54 71.07 53.805 71.27 53.805C71.465 53.805 71.55 53.605 71.438 53.379C71.352 53.156 71.41 52.957 71.578 52.957C71.746 52.957 71.832 52.762 71.718 52.535C71.633 52.309 71.691 52.113 71.859 52.113C72.027 52.113 72.113 51.914 72 51.691C71.914 51.465 71.973 51.27 72.14 51.27C72.309 51.27 72.367 51.156 72.254 51.016C72.168 50.875 72.227 50.676 72.394 50.563C72.562 50.449 72.621 50.253 72.535 50.113C72.422 49.973 72.508 49.859 72.648 49.859C72.816 49.859 72.93 49.719 72.875 49.519C72.789 49.043 73.605 49.07 74.027 49.579C74.367 49.945 74.395 49.945 74.227 49.579C74.113 49.352 74.507 49.66 75.07 50.281C75.633 50.902 76.027 51.211 75.914 50.984C75.804 50.762 76.449 51.324 77.324 52.254C78.195 53.184 78.844 53.746 78.73 53.52C78.621 53.297 78.816 53.41 79.156 53.805C79.492 54.195 79.886 54.508 80.027 54.508C80.195 54.508 80.422 54.703 80.562 54.93C80.703 55.156 80.844 55.21 80.844 55.07C80.844 54.902 80.984 55.016 81.156 55.297C81.324 55.551 81.551 55.719 81.719 55.633C81.859 55.52 81.973 55.605 81.973 55.773C81.973 55.945 82.113 56 82.253 55.914C82.422 55.832 82.535 55.859 82.535 56.027C82.535 56.195 82.73 56.254 82.957 56.168C83.184 56.055 83.379 56.113 83.379 56.254C83.379 56.535 84.562 56.704 85.805 56.563C86.227 56.535 87.805 55.183 87.66 54.984C87.633 54.957 87.633 54.902 87.633 54.844C87.832 54.48 87.914 50.621 87.973 35.66C88.027 18.508 88.027 18.195 87.465 17.66C87.156 17.379 86.902 17.016 86.902 16.875C86.902 16.73 86.703 16.48 86.48 16.34C86.254 16.195 86.195 16.055 86.34 16.055C86.508 16.055 86.309 15.773 85.914 15.465C85.52 15.156 85.41 14.957 85.633 15.07C85.859 15.184 85.805 15.043 85.493 14.79C85.183 14.535 84.93 14.227 84.93 14.113C84.93 13.773 83.324 12.281 82.957 12.253C82.817 12.227 82.367 12.535 81.973 12.93ZM8.16803 13.297C8.16803 13.437 8.05503 13.492 7.91403 13.41C7.77403 13.324 7.57803 13.437 7.49203 13.691C7.41003 13.914 7.21103 14.055 7.07003 13.973C6.76203 13.773 6.14003 14.48 6.39503 14.73C6.48003 14.844 6.42203 14.93 6.25403 14.93C6.05403 14.93 5.94503 15.016 5.97303 15.125C5.97303 15.27 5.91403 15.578 5.80503 15.832C5.69103 16.086 5.66003 17.184 5.74603 18.227C5.83203 19.27 5.91403 20.59 5.94603 21.125C5.94603 21.66 6.08603 22.254 6.22603 22.449C6.39503 22.621 6.44903 23.043 6.34003 23.352C6.25403 23.632 6.30903 23.972 6.48003 24.086C6.67603 24.196 6.73003 24.59 6.64803 24.93C6.56303 25.297 6.62103 25.691 6.76203 25.773C6.93003 25.887 6.98403 26.195 6.90203 26.48C6.81603 26.762 6.87503 27.07 7.04303 27.184C7.21103 27.297 7.27003 27.605 7.18303 27.887C7.09803 28.168 7.15603 28.48 7.32403 28.59C7.49203 28.703 7.55103 29.016 7.46403 29.297C7.37903 29.578 7.43703 29.887 7.60503 30C7.77303 30.113 7.83203 30.422 7.74603 30.703C7.66003 30.984 7.71903 31.297 7.88603 31.41C8.05503 31.52 8.11303 31.832 8.02703 32.14C7.91403 32.45 7.97303 32.676 8.16803 32.676C8.34003 32.676 8.44903 32.844 8.42203 33.016C8.36703 33.465 14.789 40.141 15.27 40.141C15.52 40.141 15.605 41.773 15.633 46.93C15.66 50.648 15.773 53.86 15.859 54C15.973 54.168 15.973 54.508 15.887 54.762C15.805 55.016 15.859 55.211 16.055 55.211C16.227 55.211 16.309 55.324 16.195 55.465C16.113 55.605 16.168 55.805 16.34 55.915C16.508 56.027 16.563 56.227 16.48 56.367C16.367 56.507 16.45 56.621 16.621 56.621C16.789 56.621 16.844 56.731 16.761 56.902C16.676 57.043 16.731 57.184 16.902 57.184C17.07 57.184 17.125 57.297 17.043 57.464C16.957 57.605 17.016 57.746 17.183 57.746C17.352 57.746 17.438 57.859 17.352 58C17.27 58.14 17.379 58.34 17.605 58.422C17.832 58.508 18 58.703 17.973 58.844C17.914 58.984 18.141 59.324 18.449 59.578C18.762 59.832 18.816 59.945 18.589 59.832C18.367 59.719 18.676 60.168 19.269 60.789C19.887 61.437 20.48 61.887 20.621 61.805C20.731 61.719 20.93 61.859 21.016 62.085C21.098 62.34 21.296 62.449 21.438 62.367C21.578 62.281 21.691 62.367 21.691 62.535C21.691 62.703 21.805 62.762 21.973 62.675C22.141 62.59 22.253 62.648 22.253 62.816C22.253 62.984 22.367 63.043 22.535 62.957C22.675 62.875 22.816 62.902 22.816 63.043C22.816 63.183 23.238 63.27 23.746 63.238C24.226 63.184 24.621 63.016 24.563 62.844C24.535 62.676 24.621 62.535 24.762 62.535C24.902 62.535 25.016 62.055 25.043 61.465C25.043 60.449 25.183 58.648 25.493 55.492C25.719 53.07 25.914 50.703 26.34 45.07C26.621 41.324 26.676 40.844 27.043 40.422C27.238 40.195 27.297 40 27.183 40C27.07 40 27.27 39.746 27.633 39.41C28 39.098 28.113 38.93 27.887 39.043C27.66 39.156 27.832 38.843 28.281 38.367C28.731 37.887 29.184 37.551 29.297 37.605C29.41 37.691 29.747 37.465 30.027 37.098C30.562 36.48 30.562 36.48 29.973 36.902C29.66 37.125 29.914 36.844 30.535 36.227C31.184 35.633 31.691 35.043 31.691 34.902C31.691 34.789 31.945 34.48 32.254 34.254C32.563 34 32.704 33.804 32.563 33.804C32.395 33.804 32.535 33.605 32.843 33.352C33.125 33.125 33.183 32.984 32.957 33.098C32.676 33.211 32.703 33.156 33.016 32.875C33.296 32.648 33.438 32.395 33.324 32.309C33.238 32.195 33.297 32.113 33.492 32.113C33.692 32.113 33.746 31.973 33.66 31.832C33.578 31.66 33.633 31.551 33.773 31.551C33.945 31.551 34.055 31.465 34.055 31.324C34.0345 31.21 34.0448 31.0926 34.085 30.984C34.281 30.562 34.254 28.984 34.055 28.875C33.945 28.789 33.887 28.535 34 28.309C34.086 28.086 34 27.887 33.805 27.887C33.633 27.887 33.578 27.747 33.66 27.605C33.746 27.437 33.691 27.325 33.492 27.325C33.297 27.325 33.211 27.27 33.297 27.184C33.465 26.984 31.211 24.648 30.93 24.73C30.79 24.762 30.703 24.648 30.703 24.48C30.703 24.34 30.59 24.254 30.449 24.34C30.309 24.422 30.113 24.309 30.027 24.055C29.945 23.832 29.747 23.719 29.578 23.805C29.438 23.887 29.297 23.832 29.297 23.66C29.297 23.492 29.184 23.437 29.016 23.52C28.875 23.605 28.73 23.55 28.73 23.379C28.73 23.211 28.59 23.156 28.45 23.239C28.281 23.324 28.168 23.269 28.168 23.125C28.168 22.957 28.055 22.816 27.887 22.816C27.551 22.816 26.367 23.946 26.703 23.946C26.816 23.946 26.59 24.226 26.195 24.536C25.805 24.844 25.691 25.043 25.915 24.93C26.141 24.816 25.887 25.125 25.352 25.605C24.816 26.113 24.562 26.422 24.789 26.309C25.016 26.195 24.535 26.816 23.691 27.691C22.844 28.563 22.055 29.211 21.914 29.125C21.804 29.043 21.605 29.184 21.52 29.41C21.438 29.66 21.238 29.773 21.098 29.691C20.957 29.605 20.844 29.661 20.844 29.805C20.844 30.113 19.156 30.085 18.648 29.773C18.449 29.633 18.368 29.41 18.449 29.27C18.562 29.125 18.48 29.016 18.309 29.016C18.141 29.016 18.055 28.902 18.168 28.762C18.254 28.622 18.195 28.422 18.028 28.309C17.859 28.195 17.805 28 17.887 27.859C18 27.719 17.973 27.437 17.832 27.239C17.605 26.875 17.465 25.805 17.437 24.227C17.437 23.691 17.297 23.097 17.157 22.93C17.016 22.73 16.957 22.254 17.07 21.86C17.184 21.379 17.125 21.125 16.902 21.125C16.703 21.125 16.648 20.902 16.762 20.562C16.875 20.227 16.816 20 16.622 20C16.449 20 16.367 19.887 16.48 19.746C16.562 19.606 16.508 19.41 16.34 19.296C16.168 19.184 16.113 18.984 16.195 18.844C16.309 18.704 16.227 18.59 16.055 18.59C15.887 18.59 15.832 18.45 15.915 18.309C16 18.141 15.945 18.027 15.773 18.027C15.605 18.027 15.551 17.887 15.633 17.747C15.719 17.578 15.605 17.379 15.379 17.297C15.125 17.211 14.984 17.016 15.07 16.875C15.156 16.762 14.957 16.508 14.648 16.34C14.34 16.168 14.141 15.914 14.195 15.805C14.281 15.691 13.915 15.156 13.379 14.648C12.844 14.113 12.395 13.805 12.395 13.973C12.395 14.113 12.254 14.027 12.113 13.805C11.973 13.578 11.719 13.352 11.551 13.352C11.411 13.324 11.238 13.297 11.211 13.238C10.93 13.043 8.16803 13.098 8.16803 13.297ZM102.086 15.55C102 15.66 101.773 15.691 101.551 15.578C101.324 15.492 101.125 15.578 101.125 15.773C101.125 15.945 101.015 16 100.844 15.914C100.704 15.832 100.563 15.887 100.563 16.054C100.563 16.227 100.449 16.309 100.309 16.195C100.168 16.113 99.832 16.254 99.605 16.508C99.352 16.73 99.156 16.844 99.156 16.73C99.156 16.621 98.957 16.762 98.73 17.07C98.508 17.352 98.309 17.492 98.309 17.352C98.309 17.238 98.055 17.41 97.719 17.773C97.41 18.141 97.239 18.253 97.352 18.027C97.465 17.805 97.098 18.027 96.535 18.562C95.973 19.098 95.605 19.66 95.691 19.887C95.773 20.113 95.691 20.281 95.492 20.281C95.324 20.281 95.27 20.395 95.352 20.563C95.437 20.703 95.379 20.843 95.211 20.843C95.043 20.843 94.984 20.984 95.071 21.125C95.156 21.297 95.043 21.492 94.816 21.578C94.562 21.66 94.422 21.859 94.508 22C94.59 22.113 94.395 22.367 94.086 22.535C93.773 22.703 93.578 22.957 93.66 23.125C93.773 23.27 93.691 23.379 93.52 23.379C93.352 23.379 93.297 23.492 93.379 23.66C93.465 23.805 93.41 23.945 93.239 23.945C93.07 23.945 93.016 24.055 93.098 24.227C93.184 24.367 93.125 24.507 92.957 24.507C92.789 24.507 92.73 24.621 92.817 24.789C92.902 24.929 92.875 25.07 92.703 25.07C92.535 25.07 92.48 25.27 92.563 25.492C92.676 25.719 92.59 25.914 92.422 25.914C92.254 25.914 92.195 26.114 92.282 26.34C92.395 26.563 92.309 26.762 92.113 26.762C91.945 26.762 91.859 26.875 91.973 27.016C92.055 27.156 92 27.352 91.859 27.465C91.691 27.551 91.633 27.805 91.746 28.027C91.832 28.254 91.746 28.449 91.551 28.449C91.351 28.449 91.297 28.676 91.411 29.016C91.52 29.352 91.465 29.578 91.27 29.578C91.07 29.578 91.016 29.805 91.125 30.141C91.238 30.481 91.184 30.703 90.985 30.703C90.762 30.703 90.703 30.957 90.816 31.41C90.93 31.86 90.875 32.113 90.676 32.113C90.48 32.113 90.422 32.367 90.536 32.816C90.648 33.211 90.621 33.691 90.508 33.886C90.195 34.367 90.195 40.367 90.508 40.762C90.648 40.957 90.676 41.238 90.563 41.41C90.449 41.578 90.535 41.887 90.703 42.113C90.875 42.34 90.957 42.648 90.843 42.816C90.762 42.957 90.816 43.098 90.984 43.098C91.184 43.098 91.27 43.297 91.156 43.52C91.07 43.746 91.125 43.945 91.296 43.945C91.465 43.945 91.492 44.055 91.41 44.227C91.324 44.367 91.379 44.507 91.55 44.507C91.719 44.507 91.773 44.621 91.691 44.789C91.605 44.929 91.661 45.07 91.805 45.07C91.973 45.07 92.085 45.184 92.027 45.324C92 45.464 92.227 45.804 92.535 46.054C92.844 46.309 92.902 46.422 92.675 46.309C92.449 46.195 92.762 46.649 93.352 47.269C93.972 47.914 94.562 48.367 94.676 48.281C94.789 48.227 95.043 48.421 95.211 48.731C95.379 49.043 95.633 49.238 95.805 49.156C95.945 49.043 96.141 49.184 96.227 49.41C96.309 49.66 96.507 49.805 96.621 49.719C96.731 49.633 96.93 49.773 97.016 50.027C97.098 50.254 97.296 50.367 97.465 50.281C97.605 50.195 97.746 50.254 97.746 50.421C97.746 50.59 97.886 50.648 98.027 50.563C98.195 50.48 98.309 50.535 98.309 50.703C98.309 50.875 98.449 50.93 98.589 50.843C98.762 50.762 98.875 50.816 98.875 50.984C98.875 51.184 99.098 51.238 99.41 51.125C99.719 51.043 100.027 51.098 100.14 51.27C100.367 51.633 104.14 51.633 104.395 51.238C104.48 51.07 104.875 51.016 105.238 51.098C105.633 51.211 105.914 51.156 105.914 50.984C105.914 50.816 106.054 50.762 106.195 50.844C106.367 50.93 106.48 50.875 106.48 50.704C106.48 50.535 106.59 50.449 106.762 50.562C106.902 50.648 107.238 50.395 107.492 50C107.746 49.633 108.055 49.379 108.195 49.465C108.34 49.551 108.449 49.465 108.449 49.297C108.449 49.125 108.589 49.07 108.73 49.157C108.902 49.238 109.016 49.184 109.016 48.984C109.016 48.789 109.07 48.704 109.156 48.789C109.352 48.984 111.437 47.016 111.324 46.703C111.297 46.563 111.464 46.395 111.691 46.309C111.914 46.227 112.027 46.027 111.945 45.887C111.859 45.747 112 45.551 112.227 45.465C112.48 45.379 112.59 45.184 112.507 45.043C112.422 44.903 112.507 44.789 112.676 44.789C112.844 44.789 112.902 44.649 112.816 44.508C112.73 44.34 112.789 44.227 112.957 44.227C113.125 44.227 113.184 44.086 113.097 43.945C113.016 43.773 113.043 43.66 113.211 43.66C113.379 43.66 113.438 43.465 113.351 43.238C113.238 43.016 113.324 42.816 113.52 42.816C113.719 42.816 113.773 42.59 113.66 42.281C113.578 41.973 113.605 41.661 113.719 41.605C114.113 41.352 113.832 27.015 113.41 26.113C113.297 25.859 113.27 25.438 113.352 25.183C113.465 24.93 113.379 24.535 113.211 24.34C113.043 24.113 112.957 23.773 113.043 23.52C113.156 23.297 113.098 23.043 112.93 22.93C112.762 22.844 112.703 22.59 112.79 22.367C112.875 22.141 112.816 21.973 112.648 21.973C112.48 21.973 112.395 21.773 112.508 21.551C112.59 21.324 112.535 21.125 112.368 21.125C112.195 21.125 112.168 20.985 112.254 20.844C112.34 20.676 112.281 20.562 112.141 20.562C111.973 20.562 111.859 20.449 111.914 20.309C111.945 20.168 111.719 19.832 111.41 19.579C111.098 19.324 111.043 19.211 111.27 19.324C111.492 19.437 111.324 19.125 110.875 18.648C109.973 17.691 109.719 17.52 110 18.086C110.113 18.281 109.86 18.055 109.465 17.606C109.07 17.125 108.73 16.875 108.73 17.043C108.73 17.183 108.59 17.098 108.422 16.816C108.254 16.563 108.027 16.395 107.859 16.48C107.719 16.59 107.605 16.508 107.605 16.34C107.605 16.168 107.492 16.113 107.325 16.195C107.184 16.281 107.043 16.227 107.043 16.055C107.043 15.887 106.93 15.805 106.789 15.915C106.649 16 106.449 15.945 106.339 15.805C106.254 15.633 106 15.578 105.773 15.691C105.551 15.773 105.352 15.719 105.352 15.578C105.352 15.297 102.282 15.238 102.086 15.551V15.55ZM104.508 28.816C104.508 28.957 104.59 28.984 104.73 28.93C104.844 28.875 105.156 29.043 105.437 29.352C105.691 29.632 105.832 29.859 105.719 29.859C105.605 29.859 105.66 30 105.859 30.195C106.281 30.621 106.309 31.746 105.914 31.973C105.746 32.086 105.691 32.395 105.774 32.703C105.887 32.984 105.832 33.238 105.66 33.238C105.492 33.238 105.438 33.438 105.52 33.66C105.633 33.887 105.55 34.086 105.352 34.086C105.184 34.086 105.125 34.196 105.211 34.367C105.297 34.507 105.238 34.648 105.071 34.648C104.902 34.648 104.816 34.762 104.93 34.902C105.016 35.043 104.957 35.238 104.79 35.352C104.621 35.465 104.562 35.66 104.648 35.805C104.762 35.945 104.621 36.141 104.395 36.227C104.141 36.309 104.027 36.507 104.113 36.648C104.195 36.789 104.113 36.902 103.945 36.902C103.773 36.902 103.691 37.016 103.773 37.156C103.859 37.296 103.746 37.492 103.52 37.578C103.297 37.66 103.125 37.832 103.156 37.945C103.27 38.254 102.055 39.437 101.859 39.211C101.773 39.125 101.691 39.211 101.691 39.379C101.691 39.887 101.098 39.773 100.648 39.211C100.422 38.957 100.34 38.902 100.449 39.125C100.589 39.379 100.535 39.465 100.309 39.325C100.141 39.211 100.055 39.015 100.141 38.875C100.227 38.762 100.086 38.508 99.859 38.309C99.379 37.914 99.297 36.168 99.719 35.914C99.887 35.804 99.945 35.492 99.859 35.184C99.746 34.902 99.805 34.648 99.973 34.648C100.141 34.648 100.195 34.449 100.113 34.227C100 34 100.086 33.805 100.281 33.805C100.481 33.805 100.562 33.605 100.449 33.379C100.367 33.156 100.422 32.957 100.589 32.957C100.762 32.957 100.816 32.844 100.703 32.703C100.621 32.563 100.676 32.367 100.843 32.253C101.016 32.141 101.07 31.945 100.984 31.805C100.875 31.66 100.957 31.551 101.125 31.551C101.297 31.551 101.352 31.411 101.27 31.27C101.184 31.098 101.238 30.984 101.379 30.984C101.551 30.984 101.66 30.902 101.66 30.762C101.633 30.648 101.66 30.48 101.691 30.34C101.719 30.227 101.773 30.055 101.805 29.914C101.805 29.804 102.085 29.464 102.395 29.156C102.93 28.621 104.508 28.367 104.508 28.816ZM52.648 21.887C52.621 21.945 52.59 22.113 52.562 22.254C52.562 22.422 52.367 22.676 52.141 22.789C51.945 22.929 51.832 23.156 51.945 23.324C52.027 23.492 52 23.719 51.832 23.804C51.66 23.914 51.605 24.254 51.692 24.535C51.805 24.844 51.719 25.27 51.551 25.492C51.324 25.773 51.27 26.422 51.411 27.578C51.52 28.703 51.492 29.297 51.27 29.438C51.098 29.551 51.043 29.859 51.125 30.141C51.211 30.421 51.156 30.731 50.985 30.844C50.816 30.957 50.762 31.27 50.844 31.551C50.93 31.832 50.875 32.141 50.704 32.254C50.535 32.367 50.48 32.676 50.562 32.984C50.676 33.297 50.622 33.52 50.422 33.52C50.227 33.52 50.141 33.719 50.227 33.945C50.34 34.168 50.281 34.422 50.141 34.508C50 34.59 49.945 34.844 50.055 35.07C50.141 35.297 50.055 35.492 49.859 35.492C49.66 35.492 49.579 35.692 49.691 35.914C49.773 36.141 49.719 36.34 49.551 36.34C49.379 36.34 49.297 36.535 49.379 36.762C49.492 36.984 49.438 37.238 49.297 37.324C49.157 37.41 49.097 37.66 49.211 37.887C49.297 38.113 49.211 38.309 49.016 38.309C48.816 38.309 48.73 38.508 48.816 38.73C48.93 38.957 48.875 39.21 48.703 39.297C48.563 39.41 48.508 39.605 48.621 39.747C48.703 39.887 48.621 40.195 48.449 40.422C48.281 40.648 48.195 40.957 48.309 41.125C48.422 41.297 48.339 41.605 48.168 41.832C48 42.055 47.914 42.367 48.028 42.535C48.113 42.675 48.055 42.816 47.887 42.816C47.719 42.816 47.633 42.93 47.719 43.07C47.805 43.21 47.691 43.41 47.437 43.492C47.184 43.578 47.097 43.805 47.211 44C47.324 44.195 47.324 44.281 47.211 44.168C47.071 44.055 46.703 44.086 46.367 44.227C45.691 44.48 44.676 44.086 44.93 43.633C45.043 43.493 44.957 43.379 44.79 43.379C44.621 43.379 44.563 43.239 44.648 43.098C44.6931 42.9935 44.7114 42.8795 44.7013 42.7661C44.6911 42.6528 44.6529 42.5438 44.59 42.449C44.48 42.281 44.34 40.957 44.309 39.579C44.227 36.844 43.973 31.465 43.859 29.859C43.832 29.324 43.691 28.703 43.579 28.508C43.437 28.34 43.437 28.028 43.519 27.887C43.605 27.719 43.551 27.605 43.352 27.605C43.156 27.605 43.07 27.52 43.184 27.437C43.27 27.352 43.016 26.957 42.59 26.562C42.168 26.168 42.086 26.027 42.395 26.227C42.902 26.59 42.93 26.59 42.562 26.141C42.367 25.859 42.086 25.719 41.945 25.773C41.832 25.859 41.492 25.605 41.238 25.211C40.984 24.844 40.676 24.59 40.535 24.648C40.422 24.73 40.168 24.535 40 24.227C39.832 23.914 39.578 23.719 39.41 23.805C39.27 23.915 39.156 23.832 39.156 23.66C39.156 23.492 39.043 23.437 38.875 23.52C38.73 23.605 38.59 23.55 38.59 23.379C38.59 23.211 38.48 23.156 38.309 23.239C38.168 23.324 38.027 23.297 38.027 23.125C38.027 22.844 37.633 22.875 36.844 23.238C36.562 23.352 36.422 23.551 36.508 23.691C36.59 23.832 36.535 23.945 36.368 23.945C36.195 23.945 36.141 24.141 36.227 24.367C36.34 24.59 36.254 24.789 36.055 24.789C35.859 24.789 35.773 24.957 35.859 25.184C35.945 25.41 35.945 25.66 35.832 25.774C35.719 25.887 35.605 26.309 35.578 26.704C35.238 30.59 35.184 32.449 35.184 37.464C35.184 44.281 35.27 46.227 35.578 46.676C35.718 46.875 35.718 47.184 35.633 47.324C35.52 47.492 35.605 47.804 35.773 48.027C35.973 48.254 36.027 48.449 35.914 48.449C35.804 48.449 35.859 48.621 36.027 48.816C36.195 49.043 36.254 49.296 36.141 49.379C36.055 49.492 36.113 49.579 36.309 49.579C36.508 49.579 36.563 49.691 36.48 49.859C36.395 50 36.45 50.141 36.621 50.141C36.789 50.141 36.875 50.254 36.789 50.395C36.703 50.535 36.816 50.73 37.07 50.816C37.297 50.902 37.41 51.098 37.324 51.27C37.238 51.41 37.297 51.55 37.464 51.55C37.633 51.55 37.719 51.66 37.605 51.805C37.52 51.973 37.719 52.227 38.027 52.395C38.34 52.562 38.535 52.816 38.48 52.93C38.395 53.043 38.703 53.438 39.184 53.773C39.633 54.113 39.945 54.508 39.887 54.621C39.805 54.761 40 55.098 40.367 55.379L40.984 55.914L40.449 55.211C40.141 54.816 40.395 55.016 41.016 55.633C41.606 56.253 42.196 56.73 42.34 56.676C42.45 56.648 42.621 56.816 42.703 57.043C42.789 57.27 42.984 57.379 43.125 57.297C43.27 57.211 43.379 57.27 43.379 57.437C43.379 57.605 43.579 57.66 43.805 57.578C44.027 57.465 44.227 57.551 44.227 57.718C44.227 57.887 44.422 57.945 44.648 57.859C44.875 57.746 45.07 57.805 45.07 57.914C45.07 58.141 48.45 58.227 48.676 58.027C48.703 58 48.875 57.914 49.016 57.887C49.184 57.859 49.379 57.773 49.52 57.747C49.633 57.719 49.805 57.691 49.945 57.719C50.055 57.719 50.141 57.605 50.141 57.437C50.141 57.297 50.254 57.211 50.395 57.297C50.535 57.379 50.73 57.27 50.816 57.016C50.902 56.789 51.098 56.676 51.27 56.762C51.41 56.844 51.55 56.789 51.55 56.648C51.55 56.48 51.66 56.368 51.805 56.422C51.945 56.449 52.281 56.227 52.535 55.914C52.789 55.605 52.902 55.551 52.789 55.774C52.676 56 52.984 55.832 53.465 55.379C54.422 54.48 54.59 54.227 54.027 54.508C53.832 54.621 53.945 54.449 54.281 54.141C54.621 53.832 54.816 53.52 54.731 53.411C54.621 53.324 54.703 53.238 54.902 53.238C55.098 53.238 55.156 53.098 55.07 52.957C54.984 52.789 55.043 52.676 55.21 52.676C55.379 52.676 55.437 52.536 55.352 52.395C55.27 52.227 55.324 52.113 55.492 52.113C55.66 52.113 55.719 51.973 55.632 51.832C55.551 51.66 55.605 51.551 55.773 51.551C55.973 51.551 56.055 51.351 55.945 51.125C55.859 50.902 55.915 50.703 56.085 50.703C56.254 50.703 56.34 50.508 56.254 50.281C56.141 50.055 56.195 49.805 56.34 49.719C56.48 49.633 56.535 49.379 56.45 49.184C56.367 48.957 56.422 48.704 56.59 48.621C56.762 48.508 56.816 48.254 56.73 48.055C56.648 47.832 56.73 47.578 56.875 47.465C57.043 47.379 57.125 47.156 57.015 47.015C56.93 46.875 56.985 46.562 57.156 46.367C57.324 46.168 57.41 45.805 57.296 45.551C57.211 45.324 57.296 45.043 57.465 44.93C57.633 44.816 57.691 44.508 57.605 44.195C57.492 43.887 57.551 43.66 57.746 43.66C57.914 43.66 57.973 43.379 57.859 42.957C57.746 42.507 57.805 42.254 58.027 42.254C58.254 42.254 58.309 42 58.195 41.578C58.113 41.184 58.168 40.789 58.309 40.703C58.48 40.59 58.535 40.281 58.449 39.973C58.339 39.691 58.367 39.297 58.508 39.098C58.621 38.902 58.762 38.34 58.789 37.887C58.844 37.41 58.929 36.227 59.016 35.211C59.296 32.168 59.184 28.902 58.789 28.254C58.676 28.086 58.676 27.746 58.762 27.492C58.875 27.238 58.789 27.043 58.59 27.043C58.395 27.043 58.309 26.843 58.422 26.621C58.508 26.395 58.449 26.195 58.282 26.195C58.113 26.195 58.086 26.055 58.168 25.915C58.254 25.746 58.195 25.633 58.028 25.633C57.859 25.633 57.805 25.493 57.887 25.352C57.973 25.184 57.914 25.07 57.747 25.07C57.578 25.07 57.465 24.984 57.52 24.844C57.578 24.73 57.07 24.114 56.422 23.492C55.746 22.844 55.211 22.395 55.211 22.508C55.211 22.59 55.098 22.508 54.957 22.308C54.762 21.973 52.762 21.633 52.648 21.887ZM56.48 23.379C56.762 23.691 57.043 23.945 57.125 23.945C57.211 23.945 57.043 23.691 56.762 23.379C56.48 23.07 56.195 22.816 56.113 22.816C56.027 22.816 56.195 23.07 56.48 23.379ZM32.113 25.465C32.113 25.52 32.34 25.746 32.621 25.945C33.043 26.309 33.071 26.281 32.703 25.832C32.34 25.379 32.113 25.238 32.113 25.465ZM101.125 61.773C101.125 61.945 101.043 61.973 100.93 61.887C100.676 61.633 99.691 62.535 99.887 62.844C99.973 62.984 99.887 63.098 99.719 63.098C99.551 63.098 99.492 63.211 99.579 63.378C99.66 63.52 99.605 63.66 99.438 63.66C99.27 63.66 99.184 63.773 99.297 63.914C99.379 64.054 99.324 64.254 99.184 64.367C99.016 64.449 98.957 64.703 99.07 64.93C99.156 65.156 99.07 65.352 98.902 65.352C98.703 65.352 98.648 65.605 98.762 66.027C98.844 66.395 98.789 66.789 98.622 66.902C98.449 66.984 98.395 67.379 98.48 67.773C98.562 68.141 98.508 68.648 98.309 68.875C98.086 69.125 98.055 69.66 98.168 70.422C98.281 71.184 98.254 71.719 98.028 71.972C97.805 72.227 97.746 72.762 97.887 73.41C98 74.086 97.973 74.367 97.773 74.227C97.605 74.141 97.465 74.195 97.465 74.367C97.465 74.562 97.238 74.621 96.93 74.507C96.621 74.422 96.309 74.48 96.195 74.648C96.085 74.816 95.773 74.875 95.465 74.789C95.156 74.676 94.93 74.73 94.93 74.929C94.93 75.125 94.703 75.184 94.395 75.07C94.085 74.984 93.773 75.043 93.66 75.21C93.55 75.379 93.238 75.438 92.957 75.352C92.676 75.27 92.367 75.324 92.254 75.492C92.168 75.66 91.945 75.719 91.804 75.605C91.66 75.52 91.352 75.578 91.156 75.746C90.957 75.914 90.562 76 90.309 75.886C90.055 75.773 89.859 75.859 89.859 76.055C89.859 76.254 89.66 76.34 89.438 76.254C89.211 76.141 88.957 76.195 88.875 76.367C88.762 76.507 88.59 76.562 88.449 76.48C88.309 76.395 87.887 76.648 87.492 77.043C86.93 77.605 86.816 77.914 86.957 78.676C87.07 79.41 86.984 79.691 86.648 79.805C86.395 79.915 86.195 79.859 86.195 79.691C86.195 79.52 86.085 79.465 85.945 79.551C85.805 79.633 85.605 79.52 85.52 79.27C85.438 79.043 85.238 78.902 85.098 78.984C84.957 79.07 84.676 78.93 84.48 78.676C84.14 78.281 84.14 78.226 84.508 78.422C84.762 78.535 84.73 78.48 84.449 78.227C84.168 78 84.027 77.747 84.141 77.66C84.227 77.55 84.168 77.465 84 77.465C83.465 77.465 83.605 76.395 84.195 75.805C84.508 75.492 84.816 75.325 84.902 75.437C84.984 75.52 85.07 75.465 85.07 75.324C85.07 75.098 85.773 74.984 88.59 74.844C89.352 74.816 89.887 74.59 90.227 74.168C90.762 73.52 90.875 72.676 90.422 72.676C90.282 72.676 90.141 72.422 90.141 72.113C90.141 71.805 90 71.551 89.859 71.551C89.691 71.551 89.605 71.465 89.633 71.324C89.719 71.098 87.297 68.59 86.984 68.59C86.875 68.59 86.59 68.34 86.34 68.027C86.086 67.719 85.945 67.66 86.055 67.887C86.168 68.168 86.113 68.141 85.832 67.832C85.605 67.551 85.352 67.41 85.27 67.52C85.156 67.605 85.07 67.55 85.07 67.352C85.07 67.156 84.957 67.098 84.79 67.184C84.648 67.27 84.508 67.211 84.508 67.043C84.508 66.875 84.395 66.816 84.227 66.903C84.086 66.984 83.945 66.93 83.945 66.762C83.945 66.59 83.832 66.508 83.691 66.622C83.551 66.703 83.351 66.648 83.238 66.508C83.156 66.34 82.902 66.281 82.676 66.395C82.449 66.48 82.254 66.422 82.254 66.309C82.254 66.168 81.691 66.055 80.984 66.055C80.281 66.055 79.719 66.141 79.719 66.254C79.719 66.367 79.519 66.394 79.297 66.309C79.07 66.195 78.875 66.281 78.875 66.48C78.875 66.648 78.762 66.703 78.59 66.621C78.45 66.535 78.309 66.59 78.309 66.761C78.309 66.93 78.195 66.984 78.027 66.902C77.887 66.816 77.747 66.875 77.747 67.043C77.747 67.211 77.633 67.27 77.465 67.183C77.325 67.098 77.184 67.156 77.184 67.324C77.184 67.492 77.07 67.551 76.902 67.464C76.762 67.379 76.622 67.438 76.622 67.605C76.622 67.773 76.508 67.832 76.34 67.746C76.195 67.66 76.055 67.719 76.055 67.886C76.055 68.055 75.945 68.113 75.773 68.027C75.633 67.945 75.493 68 75.493 68.168C75.493 68.34 75.379 68.422 75.238 68.34C75.098 68.254 74.902 68.367 74.816 68.621C74.703 68.875 74.562 69.016 74.449 68.902C74.367 68.816 74.086 68.984 73.887 69.297C73.66 69.605 73.352 69.773 73.184 69.691C73.016 69.578 72.957 69.633 73.07 69.805C73.156 69.973 72.984 70.281 72.676 70.508C72.367 70.703 72.196 70.984 72.309 71.07C72.395 71.184 72.339 71.27 72.141 71.27C71.945 71.27 71.887 71.379 71.973 71.55C72.055 71.691 72 71.832 71.832 71.832C71.632 71.832 71.551 72 71.632 72.227C71.719 72.449 71.719 72.703 71.632 72.789C71.492 72.929 71.437 77.324 71.578 77.746C71.6055 77.8577 71.6055 77.9743 71.578 78.086C71.578 78.226 71.691 78.309 71.832 78.309C71.972 78.309 72.086 78.422 72.027 78.535C72 78.675 72.367 79.125 72.817 79.551C73.297 79.973 73.465 80.254 73.238 80.141C73.016 80.055 74.395 81.52 76.34 83.411C78.281 85.324 79.66 86.761 79.437 86.648C79.211 86.535 79.41 86.789 79.859 87.211C80.339 87.633 80.703 88.086 80.703 88.227C80.703 88.367 80.903 88.59 81.125 88.73C81.352 88.875 81.438 89.016 81.27 89.016C81.125 89.016 81.238 89.211 81.52 89.437C81.832 89.66 81.973 89.859 81.86 89.859C81.746 89.859 81.86 90.055 82.086 90.309C82.34 90.535 82.48 90.875 82.395 91.016C82.281 91.156 82.34 91.27 82.508 91.27C82.676 91.27 82.73 91.438 82.648 91.66C82.563 91.887 82.648 92.14 82.816 92.254C83.043 92.394 83.043 92.562 82.789 92.844C82.621 93.07 82.562 93.238 82.676 93.238C82.789 93.238 82.536 93.52 82.113 93.859C81.41 94.422 79.52 94.73 79.352 94.309C79.324 94.227 79.125 94.086 78.902 94.027C78.395 93.914 76.984 92.59 77.125 92.309C77.184 92.195 77.07 92.113 76.902 92.113C76.73 92.113 76.676 91.973 76.762 91.832C76.844 91.692 76.789 91.551 76.622 91.551C76.422 91.551 76.367 91.351 76.449 91.125C76.4913 91.0058 76.4856 90.8748 76.4332 90.7597C76.3807 90.6446 76.2857 90.5544 76.168 90.508C75.578 90.281 74.368 90.957 74.562 91.438C74.648 91.66 74.562 91.832 74.367 91.832C74.195 91.832 74.141 91.945 74.227 92.113C74.309 92.253 74.309 92.563 74.195 92.73C73.887 93.21 73.887 98.027 74.168 98.227C74.281 98.281 74.308 98.59 74.227 98.902C74.113 99.211 74.168 99.437 74.367 99.437C74.535 99.437 74.59 99.551 74.507 99.719C74.422 99.859 74.48 100 74.621 100C74.789 100 74.902 100.113 74.844 100.254C74.816 100.394 75.043 100.73 75.352 100.984C75.66 101.238 75.719 101.379 75.492 101.27C75.27 101.156 75.52 101.492 76.055 101.973C76.59 102.449 76.844 102.762 76.621 102.648C76.395 102.535 76.902 103.156 77.746 104.028C79.352 105.691 79.606 105.887 79.296 105.27C79.184 105.098 79.296 105.156 79.52 105.41C79.746 105.691 80 105.832 80.086 105.719C80.196 105.633 80.281 105.691 80.281 105.859C80.281 106.027 80.481 106.113 80.703 106.027C80.93 105.914 81.125 106 81.125 106.168C81.125 106.34 81.578 106.48 82.113 106.48C82.648 106.48 83.098 106.34 83.098 106.168C83.098 106 83.297 105.914 83.52 106C83.746 106.113 84 106.055 84.086 105.887C84.196 105.747 84.395 105.691 84.536 105.773C84.676 105.887 84.789 105.805 84.789 105.633C84.789 105.465 84.929 105.41 85.07 105.493C85.238 105.578 85.352 105.52 85.352 105.352C85.352 105.184 85.492 105.125 85.632 105.211C85.805 105.297 85.914 105.238 85.914 105.071C85.914 104.902 86.054 104.844 86.195 104.93C86.367 105.016 86.563 104.902 86.648 104.676C86.73 104.422 86.93 104.281 87.07 104.367C87.184 104.449 87.438 104.254 87.605 103.945C87.773 103.633 88 103.41 88.141 103.465C88.281 103.492 88.648 103.211 88.984 102.816C89.352 102.422 89.52 102.309 89.41 102.536C89.297 102.762 89.832 102.309 90.59 101.551C91.352 100.761 91.945 100.055 91.887 99.914C91.832 99.804 91.945 99.719 92.113 99.719C92.281 99.719 92.34 99.579 92.253 99.438C92.168 99.27 92.227 99.156 92.395 99.156C92.563 99.156 92.621 99.016 92.535 98.875C92.4906 98.7766 92.4699 98.669 92.4748 98.5611C92.4796 98.4533 92.5099 98.348 92.563 98.254C93.098 97.41 93.125 91.551 92.621 91.551C92.449 91.551 92.395 91.351 92.481 91.125C92.59 90.902 92.535 90.648 92.367 90.562C92.227 90.449 92.168 90.282 92.254 90.141C92.34 90 92.281 89.832 92.114 89.719C91.945 89.605 91.887 89.438 91.973 89.297C92.055 89.157 92 88.984 91.832 88.875C91.66 88.762 91.605 88.562 91.692 88.422C91.805 88.282 91.719 88.168 91.578 88.168C91.41 88.168 91.27 88.055 91.27 87.914C91.27 87.804 91.86 87.691 92.621 87.66C93.351 87.66 94.621 87.55 95.438 87.465C96.368 87.325 96.902 87.379 96.902 87.551C96.902 87.719 97.156 87.945 97.465 88.027C97.773 88.141 97.973 88.309 97.887 88.449C97.805 88.589 97.887 88.789 98.055 88.875C98.227 89.015 98.281 89.352 98.141 89.832C97.859 90.816 97.832 96.902 98.113 96.902C98.253 96.902 98.253 97.156 98.168 97.465C98.055 97.773 98.113 98.027 98.281 98.027C98.449 98.027 98.59 98.113 98.562 98.227C98.508 98.703 98.957 99.719 99.238 99.719C99.41 99.719 99.465 99.805 99.352 99.887C99.27 100 99.465 100.309 99.805 100.621C100.141 100.93 100.227 101.071 100 100.957C99.773 100.844 100.14 101.352 100.816 102.055C101.52 102.789 102.141 103.297 102.196 103.238C102.281 103.156 102.508 103.238 102.73 103.438C103.238 103.859 104.45 103.973 104.676 103.633C104.719 103.564 104.786 103.514 104.865 103.493C104.943 103.472 105.026 103.482 105.098 103.52C105.238 103.633 105.352 103.55 105.352 103.379C105.352 103.184 105.52 103.098 105.746 103.184C105.8 103.205 105.857 103.215 105.914 103.213C105.972 103.212 106.028 103.199 106.081 103.175C106.133 103.151 106.18 103.118 106.22 103.075C106.259 103.033 106.289 102.984 106.309 102.93C106.395 102.676 106.589 102.562 106.73 102.648C106.875 102.73 107.125 102.621 107.324 102.395C107.52 102.168 107.578 101.973 107.438 101.973C107.297 101.973 107.438 101.773 107.718 101.551C108.028 101.324 108.168 101.125 108.055 101.125C107.915 101.125 107.973 100.93 108.168 100.703C108.34 100.48 108.422 100.168 108.308 100C108.195 99.832 108.281 99.52 108.449 99.297C108.703 99.016 108.73 98.281 108.621 96.984C108.281 93.691 108.168 92.281 108.086 91.125C108.027 90.508 107.946 89.859 107.886 89.719C107.832 89.551 107.773 88.875 107.719 88.168C107.691 87.465 107.579 86.508 107.465 86.028C107.325 85.378 107.41 84.984 107.773 84.562C108.055 84.227 108.367 84.027 108.508 84.113C108.621 84.195 108.73 84.113 108.73 83.945C108.73 83.773 108.875 83.719 109.016 83.805C109.184 83.887 109.296 83.832 109.296 83.66C109.296 83.492 109.41 83.41 109.551 83.52C109.691 83.605 109.887 83.55 110 83.379C110.113 83.211 110.309 83.156 110.45 83.239C110.59 83.352 110.703 83.269 110.703 83.098C110.703 82.902 110.903 82.816 111.125 82.93C111.352 83.016 111.551 82.957 111.551 82.79C111.551 82.621 111.746 82.535 111.973 82.648C112.195 82.73 112.395 82.676 112.395 82.508C112.395 82.34 112.59 82.254 112.816 82.368C113.043 82.449 113.238 82.395 113.238 82.227C113.238 82.055 113.438 81.973 113.66 82.086C113.887 82.168 114.086 82.113 114.086 81.946C114.086 81.773 114.281 81.691 114.508 81.805C114.73 81.887 114.93 81.832 114.93 81.66C114.93 81.492 115.125 81.41 115.352 81.52C115.578 81.605 115.773 81.55 115.773 81.41C115.773 81.27 115.973 81.21 116.195 81.297C116.422 81.41 116.621 81.324 116.621 81.125C116.621 80.957 116.761 80.902 116.902 80.985C117.07 81.07 117.184 81.015 117.184 80.844C117.184 80.648 117.379 80.563 117.605 80.676C117.832 80.762 118.027 80.703 118.027 80.536C118.027 80.367 118.141 80.309 118.281 80.422C118.421 80.508 118.621 80.449 118.731 80.282C118.844 80.113 119.043 80.055 119.184 80.141C119.324 80.254 119.438 80.168 119.438 80C119.438 79.832 119.578 79.773 119.718 79.86C119.887 79.945 120 79.887 120 79.719C120 79.551 120.14 79.492 120.281 79.579C120.449 79.66 120.562 79.605 120.562 79.438C120.562 79.27 120.703 79.211 120.844 79.297C121.016 79.379 121.125 79.324 121.125 79.157C121.125 78.984 121.27 78.93 121.41 79.016C121.578 79.098 121.691 79.043 121.691 78.902C121.691 78.73 121.773 78.622 121.914 78.648C122.027 78.703 122.48 78.368 122.902 77.914C123.551 77.27 123.719 76.844 123.746 75.605C123.805 74.762 123.719 74.085 123.578 74.085C123.465 74.085 123.438 73.945 123.52 73.773C123.633 73.605 123.492 73.297 123.21 73.098C122.902 72.875 122.762 72.676 122.844 72.676C122.957 72.676 122.508 72.141 121.859 71.492C121.239 70.844 120.621 70.34 120.508 70.367C120.368 70.395 120.281 70.281 120.281 70.113C120.281 69.973 120.168 69.914 120 70C119.86 70.086 119.719 70.086 119.719 69.945C119.719 69.832 117.465 69.719 114.703 69.719C110.227 69.719 109.66 69.66 109.211 69.211C108.844 68.844 108.731 68.421 108.816 67.945C108.902 67.465 108.789 67.07 108.508 66.816C108.168 66.562 108.168 66.508 108.449 66.648C108.676 66.789 107.914 65.945 106.762 64.816C105.605 63.66 104.535 62.762 104.422 62.762C104.309 62.789 104.141 62.622 104.055 62.395C103.973 62.168 103.773 62.055 103.633 62.141C103.493 62.227 103.379 62.141 103.379 61.973C103.379 61.805 103.269 61.719 103.125 61.832C103.053 61.8701 102.97 61.8797 102.892 61.8587C102.813 61.8377 102.746 61.7878 102.703 61.719C102.48 61.379 101.125 61.41 101.125 61.773Z" fill="black"/>
<path d="M106.48 64.367C106.844 64.762 107.21 65.07 107.27 65.07C107.352 65.07 107.125 64.762 106.762 64.367C106.395 63.973 106.027 63.66 105.972 63.66C105.887 63.66 106.113 63.973 106.48 64.367ZM33.9449 70.45C33.8319 70.621 33.5779 70.676 33.3519 70.59C33.1249 70.508 32.9569 70.562 32.9569 70.73C32.9569 70.902 32.8439 70.957 32.7029 70.875C32.5899 70.789 32.1679 71.043 31.8319 71.41C31.4649 71.805 31.2969 72.113 31.4369 72.113C31.5779 72.113 31.4649 72.253 31.1839 72.422C30.9299 72.59 30.7619 72.816 30.8439 72.957C30.9299 73.097 30.8749 73.27 30.7039 73.379C30.5349 73.492 30.4799 73.691 30.5619 73.832C30.6759 73.972 30.5899 74.086 30.4219 74.086C30.2269 74.086 30.1409 74.281 30.2269 74.508C30.3399 74.73 30.2809 74.984 30.1129 75.07C29.9729 75.184 29.9139 75.379 30.0269 75.52C30.1129 75.66 30.0269 75.973 29.8589 76.195C29.6909 76.422 29.6049 76.73 29.7189 76.902C29.8319 77.07 29.8049 77.437 29.6909 77.692C29.4109 78.254 29.3239 79.492 29.1559 84.367C29.0979 86.367 29.0159 88.507 28.9839 89.07C28.9839 89.66 28.8159 90.14 28.6759 90.14C28.5079 90.14 28.4489 90.309 28.5079 90.48C28.6479 90.875 27.7459 91.887 27.4919 91.605C27.4099 91.52 27.3239 91.578 27.3239 91.719C27.3239 91.859 26.5899 91.973 25.7189 91.973C24.5619 91.973 23.9449 91.832 23.6049 91.465C23.0429 90.93 22.9299 89.437 23.3789 89.156C23.5509 89.043 23.6049 88.73 23.5189 88.422C23.4099 88.113 23.4649 87.887 23.6599 87.887C23.8599 87.887 23.9139 87.66 23.8049 87.324C23.6909 86.984 23.7459 86.762 23.9449 86.762C24.1409 86.762 24.1949 86.535 24.0849 86.227C23.9999 85.914 24.0549 85.605 24.1949 85.52C24.5619 85.297 24.5349 82.027 24.1949 81.805C24.0549 81.719 23.9999 81.41 24.0849 81.098C24.1949 80.816 24.1409 80.563 23.9729 80.563C23.8049 80.563 23.7459 80.367 23.8319 80.141C23.9449 79.914 23.8589 79.719 23.6599 79.719C23.4919 79.719 23.4369 79.579 23.5199 79.438C23.6049 79.27 23.5499 79.156 23.3789 79.156C23.2109 79.156 23.1559 79.016 23.2389 78.875C23.3239 78.703 23.2689 78.59 23.0979 78.59C22.9299 78.59 22.8439 78.48 22.9299 78.34C23.0159 78.195 22.9019 78 22.6479 77.914C22.4219 77.832 22.2809 77.633 22.3679 77.52C22.5629 77.21 21.0159 75.691 20.7619 75.945C20.6479 76.055 20.5079 75.915 20.3949 75.66C20.3089 75.41 20.1129 75.297 19.9729 75.379C19.8319 75.465 19.7189 75.379 19.7189 75.239C19.7189 75.07 19.6329 74.957 19.5189 74.957C19.3975 74.9779 19.2729 74.9686 19.1559 74.93C18.3949 74.621 16.2539 74.508 15.0979 74.703C14.4489 74.816 13.2969 75.832 13.4379 76.113C13.4919 76.253 13.4379 76.34 13.2699 76.34C13.0979 76.34 13.0429 76.508 13.1249 76.73C13.2109 76.957 13.1559 77.21 12.9849 77.324C12.8159 77.41 12.7619 77.804 12.8439 78.168C12.9299 78.535 12.9019 79.016 12.7619 79.211C12.6479 79.411 12.5079 81.211 12.4799 83.238C12.3669 89.352 12.2269 91.973 11.9999 92.34C11.8869 92.508 11.8599 92.79 11.9729 92.957C12.1679 93.27 11.1249 94.395 10.8749 94.141C10.7889 94.055 10.7029 94.141 10.7029 94.34C10.7029 94.562 10.5079 94.648 10.2809 94.535C10.0549 94.449 9.85894 94.508 9.85894 94.675C9.85894 94.844 9.65994 94.93 9.43794 94.816C9.21094 94.73 9.01594 94.789 9.01594 94.957C9.01594 95.125 8.81594 95.211 8.58994 95.125C8.36694 95.015 8.11294 95.07 8.02694 95.211C7.94494 95.351 7.69094 95.411 7.46494 95.297C7.23794 95.211 7.04294 95.297 7.04294 95.492C7.04294 95.66 6.92994 95.746 6.78894 95.632C6.64894 95.551 6.44894 95.605 6.33894 95.773C6.22694 95.945 6.02694 96 5.88694 95.914C5.74694 95.804 5.63294 95.887 5.63294 96.086C5.63294 96.281 5.55094 96.367 5.46494 96.281C5.37894 96.195 5.04294 96.395 4.70294 96.731C4.25294 97.184 4.08594 97.691 4.08594 98.676C4.08594 99.41 4.16794 100 4.28094 100C4.39494 100 4.42094 100.195 4.33994 100.422C4.22694 100.648 4.30894 100.844 4.50794 100.844C4.67594 100.844 4.72994 100.984 4.64794 101.125C4.56294 101.297 4.62094 101.41 4.76194 101.41C4.92994 101.41 5.04294 101.492 5.01594 101.605C4.95694 101.746 5.29594 102.168 5.71894 102.59C6.14094 103.016 6.47994 103.27 6.47994 103.156C6.47994 103.043 6.67594 103.211 6.92994 103.52C7.15594 103.832 7.43794 104.086 7.54994 104.113C7.80494 104.113 11.6599 107.973 11.6599 108.227C11.6909 108.34 11.9449 108.621 12.2539 108.875C12.5629 109.125 12.6209 109.27 12.3939 109.156C12.1679 109.043 12.2269 109.184 12.5079 109.41C12.8159 109.66 12.9569 109.86 12.7889 109.86C12.6489 109.86 12.7619 110 13.0429 110.168C13.2969 110.34 13.4649 110.562 13.3789 110.73C13.2689 110.875 13.3519 110.984 13.4919 110.984C13.6599 110.984 13.7729 111.098 13.7189 111.238C13.6909 111.352 13.9729 111.746 14.3669 112.086C14.7619 112.449 14.8749 112.621 14.6479 112.508C14.4219 112.395 14.5899 112.703 15.0429 113.184C15.4929 113.66 15.9729 114 16.1129 113.914C16.2269 113.832 16.4219 113.973 16.5079 114.195C16.5899 114.449 16.7889 114.563 16.9299 114.48C17.0699 114.395 17.2699 114.535 17.3519 114.762C17.4369 115.016 17.6319 115.125 17.7729 115.043C17.9139 114.957 18.0269 115.043 18.0269 115.211C18.0269 115.411 18.2269 115.492 18.4489 115.379C18.6759 115.297 18.8749 115.324 18.8749 115.465C18.8749 115.605 19.3789 115.691 19.9999 115.66C20.6209 115.66 21.1249 115.52 21.1249 115.379C21.1249 115.239 21.2109 115.184 21.2969 115.269C21.4919 115.492 22.7299 114.281 22.6209 114C22.5629 113.887 22.5899 113.805 22.7309 113.805C23.0159 113.805 23.0159 109.832 22.7309 109.352C22.5899 109.156 22.5619 108.762 22.6759 108.48C22.7619 108.168 22.7029 107.86 22.5359 107.746C22.3399 107.633 22.2809 107.238 22.3669 106.902C22.4489 106.535 22.4219 106.141 22.2539 106.055C21.5199 105.605 22.5079 103.605 23.3239 103.887C23.5199 103.945 23.6599 103.832 23.6599 103.66C23.6599 103.465 23.8869 103.41 24.2269 103.52C24.5619 103.633 24.7889 103.578 24.7889 103.379C24.7889 103.184 24.9839 103.098 25.2109 103.211C25.4379 103.297 25.6329 103.238 25.6329 103.071C25.6329 102.902 25.8319 102.816 26.0549 102.93C26.2809 103.016 26.4799 102.957 26.4799 102.79C26.4799 102.621 26.5899 102.59 26.7619 102.676C26.9019 102.762 27.2969 102.536 27.6049 102.168C28.5349 101.098 29.7189 101.324 31.2699 102.844C31.9449 103.52 32.5079 104.168 32.5349 104.254C32.5349 104.367 32.8439 104.73 33.2379 105.07C33.6329 105.41 33.7459 105.578 33.5199 105.465C33.2379 105.325 33.2699 105.437 33.6329 105.859C33.9139 106.195 34.2809 106.395 34.3949 106.309C34.5349 106.227 34.6479 106.309 34.6479 106.48C34.6479 106.648 34.7889 106.703 34.9299 106.621C35.0979 106.535 35.2099 106.59 35.2099 106.731C35.2099 106.902 35.3239 107.016 35.4649 106.957C35.5779 106.93 35.9729 107.211 36.3089 107.605C36.6759 108 36.8749 108.113 36.7619 107.887C36.6479 107.66 36.7889 107.719 37.0429 108.027C37.2969 108.34 37.6329 108.562 37.7729 108.535C37.9139 108.48 38.0269 108.59 38.0269 108.762C38.0269 108.902 38.1679 108.957 38.3089 108.875C38.4799 108.789 38.5889 108.844 38.5889 109.015C38.5889 109.184 38.7299 109.238 38.8749 109.156C39.0429 109.07 39.1559 109.125 39.1559 109.27C39.1559 109.887 40.5079 109.55 41.3519 108.73C41.8589 108.254 42.2539 107.832 42.2539 107.746C42.2539 107.66 42.2539 107.578 42.2809 107.52C42.3949 107.016 42.3399 104.79 42.1949 104.79C42.0849 104.79 42.0549 104.59 42.1409 104.367C42.2539 104.141 42.1679 103.945 41.9729 103.945C41.8049 103.945 41.7459 103.832 41.8319 103.66C41.9139 103.492 41.8589 103.379 41.6919 103.379C41.4919 103.379 41.4099 103.184 41.5199 102.957C41.6049 102.73 41.5499 102.535 41.3789 102.535C41.2109 102.535 41.1249 102.34 41.2109 102.113C41.3239 101.887 41.2699 101.633 41.0979 101.52C40.9299 101.438 40.8749 101.184 40.9569 100.957C41.0429 100.762 40.9839 100.507 40.8169 100.395C40.6479 100.309 40.5899 100.027 40.6759 99.805C40.7889 99.551 40.7029 99.184 40.5359 98.985C40.3669 98.789 40.3089 98.48 40.4219 98.309C40.5349 98.141 40.4489 97.832 40.2819 97.605C40.0859 97.379 40.0269 96.985 40.1129 96.73C40.1949 96.48 40.1949 96.14 40.0859 95.973C39.9459 95.773 39.8319 95.238 39.8049 94.789C39.6599 93.156 39.4649 90.816 39.2699 89.211C39.1559 88.168 39.2099 87.438 39.4099 87.211C39.5779 87.016 39.6599 86.621 39.5499 86.367C39.4379 86.113 39.5199 85.914 39.7189 85.914C39.9139 85.914 39.9999 85.719 39.9139 85.492C39.8039 85.27 39.8589 85.016 40.0269 84.93C40.1679 84.816 40.2269 84.621 40.1129 84.48C40.0269 84.34 40.0859 84.027 40.2529 83.832C40.4219 83.632 40.5079 83.238 40.3949 82.984C40.3089 82.73 40.3669 82.535 40.5619 82.535C40.7619 82.535 40.8159 82.309 40.7029 81.973C40.5899 81.633 40.6209 81.238 40.7619 81.043C41.0699 80.621 41.0699 75.493 40.7619 74.984C40.6219 74.816 40.6219 74.648 40.7299 74.648C40.8159 74.648 40.7619 74.449 40.5629 74.227C40.3669 74 40.3089 73.805 40.4489 73.805C40.5629 73.805 40.4219 73.605 40.1129 73.352C39.8319 73.125 39.7729 73.016 39.9999 73.125C40.2269 73.238 40.0549 72.93 39.6049 72.449C39.1559 71.973 38.6749 71.633 38.5349 71.719C38.4219 71.805 38.3089 71.719 38.3089 71.551C38.3089 71.379 38.1949 71.324 38.0269 71.411C37.8869 71.492 37.7469 71.437 37.7469 71.27C37.7469 71.098 37.6329 71.043 37.4649 71.125C37.3249 71.211 37.1839 71.156 37.1839 70.985C37.1839 70.816 37.0699 70.73 36.9299 70.844C36.7899 70.93 36.5899 70.875 36.4799 70.73C36.3949 70.562 36.1399 70.508 35.9449 70.59C35.7189 70.676 35.4649 70.621 35.3519 70.45C35.2699 70.281 34.9299 70.14 34.6479 70.14C34.3679 70.14 34.0279 70.281 33.9449 70.45ZM31.5779 102.73C31.9449 103.184 31.9139 103.21 31.4919 102.844C31.2109 102.648 30.9839 102.422 30.9839 102.367C30.9839 102.141 31.2109 102.281 31.5779 102.73ZM9.99994 105.914C10.2809 106.227 10.4499 106.48 10.3669 106.48C10.2809 106.48 9.99994 106.227 9.71894 105.914C9.43794 105.605 9.26894 105.352 9.35194 105.352C9.43694 105.352 9.71894 105.605 9.99994 105.914ZM52.7619 73.605C52.6759 73.746 52.4489 73.773 52.2269 73.691C51.9999 73.605 51.8319 73.661 51.8319 73.832C51.8319 74 51.6319 74.086 51.4099 73.972C51.1839 73.887 50.9839 73.945 50.9839 74.113C50.9839 74.281 50.8749 74.309 50.7039 74.227C50.5619 74.141 50.4219 74.195 50.4219 74.367C50.4219 74.535 50.3089 74.621 50.1679 74.507C50.0279 74.422 49.7179 74.535 49.4919 74.762C49.2699 74.984 49.0159 75.098 48.9019 75.016C48.8159 74.902 48.7299 74.984 48.7299 75.184C48.7299 75.379 48.6209 75.464 48.4799 75.379C48.3399 75.297 48.1399 75.41 48.0549 75.66C47.9449 75.914 47.8049 76.086 47.7459 76C47.5509 75.805 45.1839 78.113 45.2959 78.367C45.3519 78.507 45.2379 78.59 45.0699 78.59C44.9019 78.59 44.8439 78.703 44.9299 78.875C45.0159 79.015 44.9569 79.156 44.7899 79.156C44.6209 79.156 44.5629 79.27 44.6479 79.437C44.7299 79.578 44.6759 79.719 44.5079 79.719C44.3399 79.719 44.2809 79.832 44.3679 80C44.4489 80.14 44.3949 80.281 44.2269 80.281C44.0269 80.281 43.9449 80.481 44.0549 80.703C44.1409 80.93 44.0849 81.125 43.9449 81.125C43.8049 81.125 43.7459 81.325 43.8319 81.551C43.9449 81.773 43.8589 81.973 43.6599 81.973C43.4649 81.973 43.3789 82.168 43.4649 82.395C43.5779 82.621 43.5199 82.875 43.3519 82.957C43.2109 83.07 43.1559 83.27 43.2699 83.41C43.3519 83.55 43.2969 83.86 43.1249 84.055C42.9569 84.254 42.8749 84.621 42.9849 84.875C43.0699 85.098 43.0149 85.379 42.8439 85.465C42.6759 85.578 42.6209 86.027 42.7039 86.449C42.7889 86.902 42.7619 87.324 42.6209 87.41C42.3399 87.578 42.3669 93.297 42.6479 93.773C42.7012 93.8621 42.7317 93.9629 42.7366 94.0665C42.7415 94.1702 42.7206 94.2734 42.6759 94.367C42.5899 94.507 42.6479 94.648 42.8159 94.648C42.9839 94.648 43.0699 94.762 42.9569 94.902C42.8749 95.043 42.9839 95.352 43.2109 95.578C43.4379 95.805 43.5509 96.055 43.4649 96.168C43.3519 96.254 43.4369 96.34 43.6049 96.34C43.8049 96.34 43.9149 96.45 43.8589 96.59C43.8319 96.73 44.0549 97.07 44.3669 97.324C44.6759 97.578 44.7299 97.691 44.5069 97.605C44.2809 97.492 44.4799 97.746 44.9299 98.168C45.4099 98.562 45.5779 98.844 45.3519 98.73C45.1249 98.621 45.4099 98.984 46.0269 99.52C46.7422 100.176 47.4292 100.863 48.0859 101.578C48.6209 102.195 48.9839 102.48 48.8749 102.254C48.7619 102.027 48.9299 102.114 49.2379 102.449C49.5509 102.789 49.8589 102.984 49.9729 102.902C50.0549 102.816 50.1949 102.957 50.3089 103.211C50.3949 103.465 50.5889 103.578 50.7299 103.492C50.8749 103.41 51.0699 103.551 51.1559 103.773C51.2379 104.027 51.4379 104.141 51.5779 104.055C51.7179 103.973 51.8319 104.055 51.8319 104.227C51.8319 104.395 51.9719 104.449 52.1129 104.367C52.2809 104.281 52.3949 104.34 52.3949 104.507C52.3949 104.676 52.5079 104.762 52.6479 104.648C52.7889 104.563 52.9839 104.621 53.0979 104.789C53.2109 104.957 53.3779 105.016 53.5199 104.929C53.6599 104.844 53.8319 104.875 53.8869 105.016C54.0859 105.296 57.4919 105.27 57.9729 104.957C58.1679 104.844 58.5629 104.844 58.8749 104.93C59.2109 105.043 59.4379 104.984 59.4379 104.79C59.4379 104.59 59.6329 104.508 59.8589 104.59C60.0859 104.703 60.3389 104.648 60.4219 104.48C60.5349 104.34 60.7029 104.281 60.8439 104.367C60.9839 104.449 61.1559 104.395 61.2699 104.227C61.3789 104.055 61.5779 104 61.7189 104.086C61.8589 104.196 61.9729 104.113 61.9729 103.946C61.9729 103.773 62.1129 103.719 62.2529 103.805C62.4219 103.887 62.5349 103.832 62.5349 103.66C62.5349 103.492 62.6749 103.438 62.8159 103.52C62.9839 103.605 63.0979 103.55 63.0979 103.41C63.0979 103.238 63.1839 103.125 63.3239 103.184C63.5779 103.27 64.9569 101.887 64.8749 101.633C64.8159 101.493 64.9299 101.41 65.0979 101.41C65.2379 101.41 65.2969 101.27 65.2109 101.125C65.1249 100.957 65.2379 100.762 65.4649 100.675C65.7189 100.59 65.8319 100.395 65.7459 100.254C65.6599 100.114 65.7459 100 65.9139 100C66.0859 100 66.1409 99.86 66.0539 99.719C65.9729 99.551 66.0859 99.352 66.3089 99.269C66.5629 99.184 66.6759 98.984 66.5889 98.844C66.5079 98.704 66.5889 98.59 66.7619 98.59C66.9299 98.59 66.9839 98.45 66.9019 98.309C66.8159 98.141 66.8749 98.027 67.0429 98.027C67.2109 98.027 67.2699 97.887 67.1829 97.747C67.0979 97.578 67.1559 97.465 67.3239 97.465C67.4919 97.465 67.5509 97.325 67.4639 97.184C67.3789 97.016 67.4379 96.902 67.6049 96.902C67.7729 96.902 67.8319 96.762 67.7459 96.622C67.6599 96.449 67.7189 96.34 67.8859 96.34C68.0549 96.34 68.1129 96.195 68.0269 96.055C67.9449 95.887 67.9999 95.773 68.1679 95.773C68.3399 95.773 68.3949 95.633 68.3079 95.493C68.2269 95.324 68.2809 95.211 68.4489 95.211C68.6209 95.211 68.7029 95.098 68.5889 94.957C68.5079 94.817 68.5629 94.621 68.7299 94.507C68.9019 94.395 68.9569 94.195 68.8749 94.055C68.7619 93.915 68.8439 93.805 69.0149 93.805C69.1839 93.805 69.2379 93.66 69.1559 93.52C69.0699 93.352 69.1249 93.238 69.2959 93.238C69.4649 93.238 69.5199 93.098 69.4369 92.957C69.3519 92.789 69.4099 92.676 69.5779 92.676C69.7459 92.676 69.8049 92.536 69.7179 92.395C69.6329 92.227 69.6599 92.113 69.8049 92.113C69.9449 92.113 69.9999 91.633 69.9449 91.043C69.8791 90.4148 69.8218 89.7858 69.7729 89.156C69.7459 88.676 69.6049 88.168 69.4929 87.973C69.3789 87.773 69.3519 87.324 69.4649 86.957C69.5509 86.563 69.4919 86.168 69.2969 86.055C69.1249 85.945 69.0699 85.605 69.1569 85.325C69.2699 85.015 69.1839 84.59 69.0159 84.367C68.8439 84.141 68.7619 83.832 68.8749 83.66C68.9849 83.492 68.9019 83.184 68.7299 82.957C68.5619 82.73 68.4799 82.422 68.5619 82.281C68.6759 82.141 68.6219 81.945 68.4489 81.832C68.2809 81.719 68.2269 81.52 68.3089 81.379C68.4219 81.239 68.3389 81.125 68.1679 81.125C67.9999 81.125 67.9139 81.015 68.0279 80.875C68.1129 80.73 67.9729 80.395 67.7179 80.168C67.4919 79.914 67.3779 79.718 67.4919 79.718C67.6049 79.718 67.3239 79.378 66.8749 78.957C66.4219 78.535 65.9449 78.227 65.8319 78.254C65.7189 78.281 65.5509 78.114 65.4649 77.887C65.3789 77.66 65.1839 77.551 65.0429 77.633C64.9029 77.719 64.7889 77.633 64.7889 77.465C64.7889 77.297 64.6759 77.238 64.5079 77.325C64.3679 77.41 64.2269 77.352 64.2269 77.184C64.2269 77.016 64.1129 76.957 63.9449 77.043C63.8049 77.125 63.6599 77.07 63.6599 76.903C63.6599 76.73 63.5499 76.676 63.3789 76.762C63.2389 76.844 63.0979 76.789 63.0979 76.622C63.0979 76.449 62.9839 76.395 62.8159 76.48C62.6759 76.562 62.5359 76.535 62.5359 76.367C62.5359 76.195 62.3399 76.141 62.1129 76.227C61.8869 76.34 61.6909 76.254 61.6909 76.055C61.6909 75.887 61.5779 75.832 61.4109 75.915C61.2699 76 61.1249 75.945 61.1249 75.773C61.1249 75.605 61.0149 75.551 60.8439 75.633C60.7039 75.719 60.5619 75.66 60.5619 75.493C60.5619 75.324 60.4489 75.27 60.2819 75.352C60.1409 75.437 59.9999 75.379 59.9999 75.211C59.9999 75.016 59.8049 74.93 59.5779 75.043C59.3519 75.125 59.1559 75.07 59.1559 74.903C59.1559 74.73 59.0429 74.703 58.8749 74.789C58.7299 74.875 58.5899 74.816 58.5899 74.649C58.5899 74.449 58.3949 74.367 58.1679 74.48C57.9449 74.562 57.7459 74.508 57.7459 74.34C57.7459 74.168 57.6329 74.113 57.4919 74.227C57.3519 74.309 57.1559 74.254 57.0429 74.086C56.9299 73.914 56.7619 73.859 56.6209 73.946C56.4809 74.027 56.3089 73.973 56.1949 73.832C56.1129 73.66 55.8589 73.605 55.6329 73.719C55.4099 73.805 55.2109 73.746 55.2109 73.579C55.2109 73.269 52.9569 73.269 52.7609 73.605H52.7619ZM57.1839 85.915C57.6049 86.367 57.8869 86.816 57.8039 86.902C57.7189 86.984 57.8039 87.043 57.9999 87.043C58.1949 87.043 58.2539 87.156 58.1679 87.324C58.0859 87.464 58.1129 87.605 58.2269 87.605C58.3949 87.605 58.5069 89.915 58.3399 90.34C58.3089 90.395 58.3089 90.508 58.2809 90.621C58.2809 90.761 58.0549 91.071 57.8319 91.324C57.5779 91.605 57.4649 91.832 57.5509 91.832C57.6329 91.832 57.4369 92.113 57.0979 92.48C56.7619 92.844 56.3949 93.098 56.2809 93.043C56.1409 92.984 56.0549 93.07 56.0549 93.238C56.0549 93.41 55.9449 93.465 55.7729 93.378C55.6329 93.297 55.4929 93.352 55.4929 93.52C55.4929 93.691 55.3239 93.805 55.1559 93.773C54.9569 93.746 54.5899 93.805 54.3399 93.914C54.0269 94.054 53.6049 93.859 53.0699 93.297C52.3949 92.621 52.2539 92.254 52.2269 91.043C52.2269 90.227 52.3399 89.578 52.4799 89.578C52.6209 89.578 52.6759 89.378 52.5629 89.156C52.4799 88.93 52.5349 88.73 52.7029 88.73C52.8749 88.73 52.9029 88.59 52.8159 88.45C52.7299 88.281 52.7889 88.168 52.9569 88.168C53.1249 88.168 53.1839 88.028 53.0969 87.887C53.0159 87.719 53.0699 87.605 53.2379 87.605C53.4099 87.605 53.4919 87.492 53.3779 87.352C53.2969 87.184 53.4919 86.93 53.8049 86.762C54.1129 86.59 54.2809 86.309 54.1949 86.141C54.0849 85.945 54.1129 85.914 54.3399 86.027C54.5079 86.141 54.7299 86.027 54.8159 85.805C54.9019 85.551 55.0979 85.437 55.2379 85.52C55.3779 85.605 55.4919 85.52 55.4919 85.379C55.4919 84.789 56.3949 85.07 57.1839 85.914V85.915ZM52.9839 93.437C53.3519 93.887 53.3239 93.914 52.9019 93.551C52.4219 93.184 52.2819 92.957 52.5079 92.957C52.5619 92.957 52.7889 93.184 52.9839 93.437ZM46.0269 76.957L45.4919 77.605L46.1409 77.07C46.4809 76.762 46.7609 76.48 46.7609 76.422C46.7609 76.195 46.5349 76.367 46.0269 76.957Z" fill="black"/>
</svg>
