<svg width="128" height="128" viewBox="0 0 128 128" fill="none" xmlns="http://www.w3.org/2000/svg">
<path fill-rule="evenodd" clip-rule="evenodd" d="M53.6072 57.793C45.3602 57.821 37.1132 58 28.8662 58H27.6802C39.0762 42 50.3122 26.789 61.6292 11.278C61.2452 11.252 61.0602 11.134 60.8752 11.134C43.0242 11.132 25.1742 11.088 7.32322 11.074C6.69622 11.074 6.48122 11.211 6.48722 11.872C6.51822 15.561 6.50222 19.239 6.50222 22.929C6.50222 23.981 6.50322 23.976 7.56922 23.976C16.6032 23.977 25.6372 23.973 34.6712 23.977C35.0262 23.977 35.3822 24.023 35.9272 24.063L1.78122 70.651L2.36522 70.684C19.5112 70.685 36.6562 70.681 53.8012 70.701C54.5022 70.702 54.5952 70.42 54.5922 69.835C54.5742 66.091 54.5622 62.442 54.6012 58.699C54.6082 57.92 54.3952 57.791 53.6072 57.793ZM60.3642 27.487C60.3912 28.197 60.8062 28 61.2332 28H86.0612C90.2392 28 94.4182 28.116 98.5972 28.091C103.152 28.064 107.717 28.215 112.259 27.945C116.962 27.666 120.718 25.47 123.31 21.452C125.053 18.75 125.824 15.741 126.206 12.589C126.31 11.728 125.759 11.847 125.243 11.847C109.071 11.848 92.8992 11.829 76.7262 11.881C74.9332 11.887 73.0932 12.072 71.3562 12.519C65.1142 14.121 60.1202 21.01 60.3642 27.487ZM76.0002 32.988C73.3622 32.991 70.8202 33.505 68.4972 34.779C63.0922 37.741 61.0162 42.7 60.3782 48.502C60.2942 49.268 60.7582 49.247 61.2832 49.246C65.5952 49.239 69.9062 49.242 74.2182 49.242C75.6822 49.242 77.1472 49.263 78.6112 49.238C81.8332 49.184 85.0752 49.307 88.2722 48.99C92.4292 48.578 95.8082 46.553 98.2112 43.073C100.1 40.338 101.044 37.261 101.373 33.97C101.469 33.005 101.508 32.985 100.569 32.984C92.3792 32.983 84.1892 32.978 76.0002 32.988ZM84.8822 54.699C84.8782 54.125 84.6542 54.024 84.1602 54.027C81.6662 54.043 79.1712 54.004 76.6782 54.048C75.5212 54.069 74.3552 54.168 73.2122 54.347C64.2542 55.743 60.9122 63.239 60.3762 69.634C60.3282 70.207 60.5342 70.396 61.1052 70.384C62.5962 70.354 64.0872 70.373 65.5782 70.373L65.5812 70.456C67.6082 70.366 69.6542 70.42 71.6602 70.161C79.1912 69.19 84.9402 62.397 84.8822 54.699ZM33.7202 103.333C33.6282 103.054 33.4872 102.963 33.2082 102.967C32.2702 102.979 31.3332 102.985 30.3952 102.964C30.0532 102.957 29.9072 103.079 29.8002 103.404C28.5922 107.1 27.3672 110.791 26.1452 114.481C25.9462 115.081 25.7372 115.676 25.4962 116.381L21.2162 110.861L21.5192 110.655C22.7692 109.922 23.5992 108.896 23.7572 107.412C23.9542 105.57 23.4282 104.069 21.4122 103.304C20.8957 103.117 20.3515 103.017 19.8022 103.009C17.7942 102.967 15.7842 102.984 13.7762 102.966C13.4472 102.963 13.3052 103.036 13.3062 103.411C13.3192 107.697 13.3182 111.983 13.3072 116.269C13.3062 116.618 13.4322 116.695 13.7512 116.687C14.5397 116.664 15.3288 116.665 16.1172 116.69C16.5162 116.704 16.6592 116.605 16.6512 116.176C16.6232 114.808 16.6372 113.438 16.6472 112.069C16.6482 111.923 16.6852 111.711 16.7832 111.645C17.1022 111.431 17.9372 111.652 18.1762 111.972C19.2592 113.429 20.3362 114.89 21.4352 116.334C21.5592 116.498 21.8052 116.664 21.9972 116.666C24.1252 116.689 26.2532 116.675 28.3812 116.687C28.6682 116.689 28.7712 116.573 28.8392 116.324L29.4372 114.273C29.5202 113.967 29.6772 113.842 30.0032 113.847C31.1642 113.862 32.3252 113.861 33.4852 113.847C33.8182 113.842 33.9542 113.981 34.0372 114.287C34.2232 114.975 34.4322 115.656 34.6582 116.331C34.7042 116.468 34.8662 116.661 34.9792 116.664C36.0032 116.689 37.0272 116.679 38.0882 116.679L38.0262 116.35C36.5882 112.014 35.1482 107.675 33.7202 103.333ZM19.2862 108.962C18.5152 109.173 17.6802 109.161 16.8712 109.216C16.8022 109.221 16.6562 108.998 16.6502 108.876C16.6262 108.341 16.6402 107.806 16.6402 107.27C16.6402 106.765 16.6462 106.258 16.6372 105.753C16.6332 105.525 16.6892 105.366 16.9502 105.377C17.6462 105.404 18.3512 105.381 19.0362 105.483C19.8532 105.605 20.2932 106.13 20.3602 106.882C20.4532 107.906 20.1062 108.737 19.2862 108.962ZM30.3042 111C30.7712 110 31.2192 108.189 31.6662 106.713L31.8032 106.607C32.2522 108.084 32.7012 110.001 33.1712 111.001L30.3042 111ZM84.5992 102.97C83.7812 102.976 82.9612 102.994 82.1442 102.961C81.7542 102.945 81.6322 103.113 81.5622 103.452C81.0842 105.76 80.5962 108.065 80.1082 110.372C79.9882 110.938 79.8582 111.503 79.7322 112.067C79.6167 111.952 79.5392 111.804 79.5102 111.643C78.8622 108.886 78.2092 106.13 77.5772 103.37C77.5042 103.05 77.3622 102.963 77.0632 102.968C76.2602 102.98 75.4552 102.991 74.6522 102.962C74.2802 102.949 74.1312 103.09 74.0482 103.437C73.5152 105.672 72.9672 107.905 72.4202 110.137C72.2652 110.77 72.0962 111.4 71.9342 112.031L71.8032 112.025C71.6972 111.527 71.5842 111.03 71.4842 110.53C71.0022 108.133 70.5272 105.734 70.0342 103.339C70.0062 103.203 69.8352 102.996 69.7272 102.993C68.6902 102.966 67.6522 102.977 66.5852 102.977L66.6342 103.375C67.7042 107.692 68.7782 112.01 69.8462 116.329C69.9092 116.582 70.0202 116.695 70.3032 116.689C71.2404 116.666 72.1781 116.667 73.1152 116.693C73.4882 116.705 73.6302 116.583 73.7152 116.229C74.2432 114.023 74.7912 111.821 75.3352 109.619C75.4442 109.178 75.5682 108.741 75.6862 108.302L75.7972 108.318L75.9142 108.695C76.5612 111.208 77.2142 113.719 77.8432 116.238C77.9272 116.576 78.0512 116.701 78.4052 116.691C79.3278 116.669 80.2507 116.669 81.1732 116.691C81.4972 116.699 81.6402 116.6 81.7202 116.278C82.7772 111.971 83.8442 107.668 84.9202 103.366C85.0002 103.037 84.8842 102.968 84.5992 102.97ZM53.2882 103.43C53.2882 103.083 53.1802 102.958 52.8272 102.965C51.8602 102.984 50.8922 102.985 49.9252 102.964C49.5782 102.957 49.3972 103.065 49.2562 103.396C48.4812 105.213 47.6792 107.02 46.8852 108.83L46.4572 109.754L46.1812 109.208C45.3242 107.264 44.4632 105.321 43.6192 103.371C43.4952 103.085 43.3462 102.96 43.0252 102.966C42.0283 102.982 41.0312 102.983 40.0342 102.968C39.7092 102.963 39.5602 103.032 39.5612 103.411C39.5742 107.696 39.5732 111.983 39.5622 116.27C39.5612 116.617 39.6842 116.698 40.0042 116.689C40.7334 116.666 41.4631 116.667 42.1922 116.692C42.5932 116.709 42.8692 116.602 42.8662 116.176C42.8452 113.512 42.9982 110.848 42.9982 108.184V107.723C42.9982 107.858 43.1152 108.008 43.1802 108.166C43.8432 109.756 44.4432 111.343 45.0852 112.942C45.2312 113.306 45.3892 113.444 45.7762 113.415C46.2202 113.382 46.6522 113.392 47.0982 113.413C47.3982 113.427 47.5432 113.312 47.6542 113.035C48.0512 112.042 48.4672 111.058 48.8792 110.071L49.8632 107.695L49.9992 107.717V108.186C49.9992 110.85 50.0142 113.514 49.9992 116.178C49.9972 116.554 50.0772 116.709 50.4912 116.692C51.2653 116.663 52.0401 116.663 52.8142 116.69C53.1572 116.7 53.2882 116.607 53.2872 116.245C53.2782 111.974 53.2792 107.701 53.2882 103.43ZM109.094 110.783L109.202 110.707C110.578 109.936 111.422 108.814 111.549 107.202C111.669 105.676 111.233 104.407 109.805 103.579C109.119 103.182 108.363 103.016 107.587 103.004C105.579 102.974 103.57 102.984 101.562 102.967C101.232 102.963 101.092 103.041 101.093 103.413C101.106 107.698 101.105 111.983 101.094 116.268C101.094 116.613 101.214 116.696 101.535 116.688C102.338 116.664 103.142 116.665 103.945 116.692C104.356 116.709 104.441 116.561 104.435 116.181C104.414 114.797 104.424 113.413 104.433 112.03C104.433 111.897 104.466 111.705 104.555 111.643C104.846 111.441 105.704 111.651 105.921 111.942C107.004 113.398 108.09 114.851 109.164 116.314C109.356 116.576 109.555 116.701 109.899 116.692C110.925 116.666 111.952 116.683 112.979 116.682L113.473 116.655L109.014 110.895L109.094 110.783ZM106.55 109.142C105.978 109.211 105.396 109.204 104.82 109.244C104.499 109.266 104.412 109.121 104.423 108.823C104.441 108.319 104.428 107.813 104.428 107.308C104.428 106.773 104.414 106.238 104.44 105.704C104.446 105.592 104.604 105.392 104.69 105.393C105.4 105.398 106.121 105.372 106.816 105.488C107.768 105.648 108.194 106.293 108.148 107.292C108.102 108.28 107.478 109.028 106.55 109.142ZM94.6642 102.962C93.6292 102.654 92.5722 102.589 91.4932 102.72C90.0382 102.897 88.7732 103.44 87.7732 104.531C86.4032 106.026 86.0102 107.852 85.9452 109.812C86.0262 110.503 86.0542 111.206 86.1972 111.883C86.6542 114.052 87.7872 115.706 89.9222 116.542C90.8942 116.923 91.9122 116.978 92.9442 116.958C95.4792 116.911 97.5902 115.458 98.4502 113.076C99.2072 110.98 99.2122 108.841 98.5142 106.738C97.8902 104.848 96.6092 103.538 94.6642 102.962ZM94.9542 112.856C94.4312 113.838 93.6562 114.419 92.5122 114.43C91.3452 114.442 90.5142 113.869 90.0422 112.847C89.7609 112.244 89.5737 111.602 89.4872 110.943C89.3212 109.579 89.3632 108.212 89.9592 106.928C90.3452 106.097 90.9212 105.462 91.8582 105.26C93.1462 104.982 94.2862 105.514 94.9182 106.693C95.4512 107.689 95.5972 108.77 95.5622 109.883C95.5892 110.922 95.4512 111.923 94.9542 112.856ZM125.93 116.062C124.492 113.947 123.059 111.828 121.607 109.722C121.404 109.427 121.397 109.231 121.616 108.944C122.979 107.159 124.323 105.359 125.674 103.565L126.116 102.978C124.831 102.978 123.644 102.968 122.458 102.993C122.325 102.995 122.164 103.17 122.069 103.303C121.066 104.707 120.074 106.119 119.078 107.528L118.095 108.976L117.999 108.937V108.464C117.999 106.797 117.944 105.13 117.966 103.464C117.971 103.061 117.817 102.952 117.434 102.965C116.676 102.989 115.906 102.993 115.147 102.963C114.729 102.947 114.582 103.061 114.584 103.505C114.601 107.731 114.596 111.957 114.584 116.184C114.583 116.564 114.663 116.711 115.073 116.694C115.845 116.662 116.62 116.664 117.392 116.693C117.791 116.708 117.937 116.607 117.926 116.179C117.896 115.033 117.958 113.885 117.9 112.742C117.865 112.053 118.187 111.596 118.631 111.099L118.907 111.462C119.922 113.001 120.952 114.531 121.937 116.09C122.215 116.528 122.502 116.722 123.038 116.697C124.101 116.648 125.169 116.682 126.33 116.682L125.93 116.062ZM64.8092 102.964C62.1012 102.979 59.3932 102.979 56.6852 102.962C56.2562 102.959 56.1712 103.111 56.1742 103.505C56.1912 105.618 56.1822 107.731 56.1822 109.843C56.1822 111.972 56.1832 114.099 56.1812 116.227C56.1812 116.475 56.1532 116.691 56.5302 116.689C59.3422 116.677 62.1542 116.68 64.9662 116.688C65.2532 116.688 65.3192 116.569 65.3142 116.312C65.3022 115.747 65.2872 115.18 65.3182 114.617C65.3392 114.23 65.1902 114.143 64.8322 114.147C63.2102 114.163 61.5892 114.146 59.9672 114.16C59.6232 114.163 59.4922 114.061 59.5022 113.702C59.5259 112.809 59.5256 111.916 59.5012 111.023C59.4892 110.634 59.6022 110.509 60.0012 110.516C61.4592 110.538 62.9172 110.515 64.3752 110.531C64.7112 110.535 64.8212 110.423 64.8092 110.094C64.7892 109.544 64.7872 108.992 64.8092 108.443C64.8242 108.089 64.6942 107.987 64.3442 107.992C62.9312 108.009 61.7632 107.999 60.3492 107.999C59.7552 107.999 60.0002 107.998 60.0002 107.426V106.087C60.0002 105.463 59.7552 105.461 60.4022 105.461C61.9642 105.46 63.4032 105.45 64.9652 105.467C65.3402 105.472 65.3992 105.348 65.3792 104.98C65.3512 104.476 65.3152 103.967 65.3492 103.463C65.3762 103.056 65.1882 102.962 64.8092 102.964ZM11.4912 103.452C11.5092 103.084 11.3782 102.963 11.0072 102.965C8.32822 102.977 5.65022 102.978 2.97122 102.964C2.59222 102.962 2.49722 103.093 2.50022 103.454C2.51522 105.582 2.50722 107.711 2.50722 109.839C2.50722 111.953 2.51522 114.067 2.49922 116.18C2.49622 116.556 2.57322 116.71 2.98722 116.693C3.77556 116.661 4.56488 116.661 5.35322 116.693C5.76622 116.711 5.84622 116.558 5.84222 116.18C5.82322 114.514 5.84322 112.847 5.82722 111.18C5.82422 110.815 5.92822 110.69 6.30322 110.695L10.5892 110.712C10.9512 110.717 11.0582 110.592 11.0452 110.25C11.0224 109.715 11.023 109.179 11.0472 108.644C11.0662 108.265 10.9202 108.166 10.5572 108.171L6.31622 108.185C5.95722 108.189 5.80722 108.097 5.82722 107.713C5.85622 107.164 5.83422 106.611 5.83422 106.062C5.83422 105.465 5.83522 105.462 6.41722 105.461C7.93522 105.459 9.45322 105.451 10.9712 105.467C11.3462 105.471 11.5182 105.381 11.4922 104.97C11.4649 104.464 11.4646 103.958 11.4912 103.452ZM31.3982 95.384L31.2822 95.398L31.0362 94.938C29.3902 91.639 27.7432 88.342 26.1082 85.039C25.9492 84.718 25.7692 84.567 25.3962 84.595C24.9072 84.631 24.4132 84.628 23.9232 84.596C23.5172 84.569 23.3932 84.692 23.3942 85.113C23.4112 89.146 23.4042 93.18 23.4042 97.213C23.4042 98.331 23.4042 98.315 24.5432 98.326C24.9442 98.33 25.0242 98.195 25.0222 97.811C25.0102 94.268 25.0002 90.726 25.0002 87.183V86.656L25.1222 86.628L25.3222 86.958C27.0272 90.343 28.7752 93.71 30.4132 97.127C30.8542 98.047 31.3392 98.494 32.3792 98.332C32.9802 98.237 33.0002 98.313 33.0002 97.713V85.658C33.0002 84.598 32.9952 84.62 31.9502 84.592C31.5282 84.581 31.4252 84.718 31.4272 85.12C31.4422 88.38 31.4352 91.639 31.4332 94.898L31.3982 95.384ZM35.8762 97.841C35.8762 98.127 35.9032 98.329 36.2752 98.319C37.8652 98.272 39.4622 98.32 41.0432 98.186C42.9522 98.025 44.4272 97.053 45.4172 95.395C46.4492 93.666 46.6262 91.791 46.2952 89.846C45.8052 86.966 43.7822 84.917 40.5502 84.7C39.1722 84.606 37.7852 84.645 36.4042 84.594C35.9942 84.58 35.8672 84.702 35.8712 85.115C35.8892 87.229 35.8792 89.342 35.8802 91.456C35.8802 93.584 35.8822 95.712 35.8762 97.841ZM37.6292 86.359L37.6672 86.147C39.0222 86.156 40.3732 86.012 41.6782 86.507C43.3762 87.153 44.2702 88.429 44.5552 90.171C44.7422 91.312 44.7022 92.452 44.3832 93.57C43.8842 95.32 42.3902 96.578 40.5802 96.733C39.7232 96.806 38.8592 96.798 37.9982 96.835C37.7482 96.846 37.6192 96.784 37.6202 96.494C37.6282 93.117 37.6262 89.737 37.6292 86.359ZM20.3362 98.312C21.4492 98.309 21.2772 98.472 21.3182 97.348C21.3352 96.907 21.1762 96.796 20.7562 96.8C18.8962 96.82 17.0362 96.801 15.1762 96.815C14.8012 96.818 14.6552 96.722 14.6622 96.314C14.6862 94.887 14.6712 93.458 14.6732 92.03L14.6992 91.816C14.8832 91.808 15.0422 92 15.2022 92H19.8452C20.8752 92 20.8602 91.793 20.8712 90.748C20.8752 90.367 20.7722 90.13 20.3702 90.135C18.6152 90.156 16.8592 90.086 15.1032 90.097C14.7802 90.099 14.6582 89.979 14.6652 89.639C14.6852 88.643 14.6872 87.633 14.6642 86.636C14.6562 86.263 14.7782 86.147 15.1452 86.15C16.8412 86.167 18.5382 86.153 20.2342 86.153C21.3282 86.153 21.3132 86.152 21.3172 85.073C21.3182 84.698 21.1952 84.594 20.8292 84.597C18.3742 84.611 15.9192 84.612 13.4642 84.593C13.0562 84.59 12.9352 84.699 12.9372 85.114C12.9522 89.34 12.9512 93.565 12.9372 97.792C12.9362 98.199 13.0492 98.327 13.4612 98.323C15.7532 98.306 18.0442 98.32 20.3362 98.312ZM10.0302 98.314C11.0272 98.314 11.0062 98.313 11.0302 97.327C11.0402 96.908 10.9012 96.798 10.4982 96.801C8.38422 96.818 6.27122 96.81 4.15722 96.806C3.97922 96.806 3.80222 96.767 3.56022 96.739L3.84922 96.296C5.96322 93.254 8.06122 90.2 10.2062 87.182C10.6712 86.527 10.9142 85.888 10.8582 85.086C10.8302 84.689 10.7242 84.593 10.3402 84.595C7.90022 84.61 5.45922 84.603 3.01822 84.603C1.96622 84.603 1.98422 84.603 1.96222 85.656C1.95422 86.05 2.06722 86.089 2.46222 86.085C4.41222 86.065 6.36222 86.001 8.31222 86.001H8.93222C8.78722 86.001 8.71322 86.454 8.62522 86.581C6.52422 89.614 4.43722 92.693 2.31022 95.707C1.86822 96.334 1.63322 96.965 1.67522 97.736C1.69922 98.19 1.81822 98.319 2.26222 98.315C4.85022 98.295 7.44022 98.314 10.0302 98.314Z" fill="#68B604"/>
</svg>
