<svg width="128" height="128" viewBox="0 0 128 128" fill="none" xmlns="http://www.w3.org/2000/svg">
<path fill-rule="evenodd" clip-rule="evenodd" d="M53.6078 80.8579C45.3608 80.8869 37.1138 80.9999 28.8668 80.9999H27.6798C39.0758 64.9999 50.3128 49.8539 61.6288 34.3429C61.2448 34.3179 61.0608 34.2329 60.8748 34.2329C43.0238 34.2309 25.1738 34.2029 7.32276 34.1899C6.69576 34.1899 6.48076 34.3359 6.48576 34.9969C6.51676 38.6859 6.50176 42.3679 6.50176 46.0569C6.50176 47.1089 6.50276 47.1069 7.56776 47.1069C16.6018 47.1069 25.6358 47.1049 34.6698 47.1079C35.0248 47.1079 35.3818 47.1549 35.9268 47.1949L1.78076 93.7819L2.36476 93.8139C19.5108 93.8149 36.6558 93.8109 53.8018 93.8309C54.5028 93.8319 54.5958 93.5499 54.5928 92.9649C54.5748 89.2219 54.5628 85.5399 54.6018 81.7969C54.6088 81.0189 54.3948 80.8549 53.6078 80.8579ZM125.243 34.9819C109.071 34.9829 92.8988 34.9609 76.7258 35.0129C74.9145 35.0196 73.1109 35.2493 71.3558 35.6969C65.1148 37.2999 60.1198 44.0739 60.3648 50.5519C60.3908 51.2629 60.8058 50.9999 61.2338 50.9999H86.0618C90.2408 50.9999 94.4188 51.1809 98.5978 51.1559C103.153 51.1279 107.717 51.3119 112.259 51.0419C116.962 50.7629 120.718 48.5839 123.311 44.5649C125.053 41.8629 125.825 38.8619 126.207 35.7109C126.311 34.8489 125.759 34.9819 125.243 34.9819ZM100.57 56.1159C92.3798 56.1129 84.1898 56.1079 75.9998 56.1189C73.3608 56.1219 70.8198 56.6359 68.4958 57.9089C63.0918 60.8709 61.0148 65.8299 60.3768 71.6319C60.2938 72.3979 60.7568 72.3769 61.2818 72.3759C65.5938 72.3689 69.9048 72.3719 74.2178 72.3719C75.6818 72.3729 77.1468 72.3929 78.6108 72.3679C81.8338 72.3139 85.0748 72.4369 88.2708 72.1209C92.4278 71.7089 95.8068 69.6839 98.2098 66.2039C100.099 63.4679 101.044 60.3919 101.373 57.1009C101.469 56.1359 101.507 56.1159 100.57 56.1159ZM84.1608 77.1569C81.6678 77.1729 79.1728 77.1329 76.6798 77.1779C75.5186 77.198 74.3602 77.2979 73.2128 77.4769C64.2558 78.8729 60.9128 86.3689 60.3778 92.7639C60.3288 93.3359 60.5348 93.5259 61.1068 93.5139C62.5968 93.4829 64.0878 93.5029 65.5798 93.5029L65.5838 93.5849C67.6098 93.4959 69.6568 93.5489 71.6618 93.2909C79.1928 92.3209 84.9418 85.5269 84.8848 77.8289C84.8778 77.2549 84.6548 77.1539 84.1608 77.1569Z" fill="#68B604"/>
</svg>
