<svg width="128" height="128" viewBox="0 0 128 128" fill="none" xmlns="http://www.w3.org/2000/svg">
<path d="M6.14014 51.074L14.8651 48.489L9.04814 55.599L6.14014 51.074Z" fill="#121212"/>
<path d="M9.048 55.598H7.11V72.078H10.019L6.464 73.695L3.879 79.188H0V48.488H14.865L10.664 52.043L9.048 55.598Z" fill="#121212"/>
<path d="M1.29297 75.633L10.018 72.079L3.87797 79.189L1.29297 75.633ZM11.957 55.598L18.097 48.488L20.035 53.013L11.957 55.598Z" fill="#121212"/>
<path d="M35.87 55.598H11.957L18.097 51.72V48.49H35.87V55.598Z" fill="#121212"/>
<path d="M29.084 74.987L37.485 72.079L31.345 79.189L29.084 74.987Z" fill="#121212"/>
<path d="M31.3458 79.188H13.5718V72.078H37.4848L32.3148 74.988L31.3458 79.188Z" fill="#121212"/>
<path d="M0.970215 86.62L32.6372 48.49L48.4722 41.38L16.8022 79.19L0.970215 86.62ZM39.4242 55.921L45.5642 48.489L45.2412 54.306L39.4242 55.921Z" fill="#121212"/>
<path d="M34.2539 79.188L38.7779 75.31L40.3939 72.079H42.3329V55.92H39.4239L42.6559 53.012L45.5639 48.488H49.4419V79.188H34.2539Z" fill="#121212"/>
<path d="M34.2539 79.188L40.3939 72.078L42.0099 76.926L34.2539 79.188Z" fill="#121212"/>
<path d="M74.0022 54.306H57.1982V48.489H84.0192V53.336L74.0022 54.306Z" fill="#121212"/>
<path d="M66.892 74.6641H56.875L74.002 54.3061V53.3361H84.019L66.892 73.3711V74.6641Z" fill="#121212"/>
<path d="M56.875 79.188V74.664L66.569 73.371H84.342V79.188H56.875ZM87.897 48.489H95.007V79.189H87.897V48.489Z" fill="#121212"/>
<path d="M121.505 75.633V67.555L116.335 64L111.81 63.03H127.321V75.633H121.505Z" fill="#121212"/>
<path d="M111.81 63.03L116.334 63.354L121.504 67.554L111.81 63.03Z" fill="#121212"/>
<path d="M127.321 75.633C124.025 77.993 119.566 79.511 115.139 79.511C105.767 79.511 98.626 72.79 98.626 63.903C98.626 55.081 105.896 48.36 115.429 48.36C120.05 48.36 124.865 50.137 128 52.884L123.799 57.731C121.505 55.695 118.37 54.499 115.429 54.499C109.936 54.499 105.67 58.669 105.67 64.032C105.67 69.462 109.968 73.598 115.462 73.598C117.304 73.598 119.598 72.854 121.602 71.82L127.321 75.633Z" fill="#121212"/>
</svg>
