<svg width="128" height="128" viewBox="0 0 128 128" fill="none" xmlns="http://www.w3.org/2000/svg">
<path d="M38.484 23.843L23.424 42.248L15.895 30.536L38.484 23.843Z" fill="#F7A41D"/>
<path d="M38.484 23.843L27.608 33.046L23.425 42.248H18.405V84.915H25.935L16.732 89.098L10.039 103.32H0V23.843H38.484Z" fill="#F7A41D"/>
<path d="M25.9352 84.915L10.0392 103.32L3.34619 94.118L25.9352 84.915ZM46.8502 23.843L51.8702 35.556L30.9542 42.248L46.8502 23.843Z" fill="#F7A41D"/>
<path d="M46.8501 23.843H92.8631V42.248H30.9541L46.8501 32.21V23.843Z" fill="#F7A41D"/>
<path d="M97.0459 84.915L81.1499 103.32L75.2939 92.445L97.0459 84.915Z" fill="#F7A41D"/>
<path d="M97.0462 84.915L83.6602 92.445L81.1502 103.32H35.1372V84.915H97.0462Z" fill="#F7A41D"/>
<path d="M125.49 5.43799L43.5028 103.32L2.50977 122.562L84.4968 23.843L125.49 5.43799ZM117.96 23.843L117.124 38.903L102.065 43.085L117.96 23.843Z" fill="#F7A41D"/>
<path d="M128 23.843V103.32H88.6802L100.392 93.281L104.575 84.915H109.595V43.085H102.065L110.431 35.555L117.961 23.843H128Z" fill="#F7A41D"/>
<path d="M104.575 84.915L108.758 97.465L88.6802 103.32L104.575 84.915Z" fill="#F7A41D"/>
</svg>
