<svg width="128" height="128" viewBox="0 0 128 128" fill="none" xmlns="http://www.w3.org/2000/svg">
<path d="M14.8651 48.489L9.04814 55.599L6.14014 51.074L14.8651 48.489Z" fill="#F7A41D"/>
<path d="M14.865 48.489L10.664 52.043L9.048 55.598H7.11V72.078H10.019L6.464 73.695L3.879 79.188H0V48.488L14.865 48.489Z" fill="#F7A41D"/>
<path d="M10.018 72.079L3.87797 79.189L1.29297 75.633L10.018 72.079ZM18.096 48.489L20.036 53.013L11.956 55.598L18.096 48.489Z" fill="#F7A41D"/>
<path d="M18.096 48.489H35.87V55.599H11.957L18.097 51.72L18.096 48.489Z" fill="#F7A41D"/>
<path d="M37.485 72.079L31.345 79.189L29.084 74.987L37.485 72.079Z" fill="#F7A41D"/>
<path d="M37.4852 72.079L32.3152 74.987L31.3452 79.188H13.5732V72.078L37.4852 72.079Z" fill="#F7A41D"/>
<path d="M48.4732 41.38L16.8032 79.188L0.970215 86.621L32.6402 48.489L48.4732 41.38ZM45.5642 48.489L45.2412 54.306L39.4242 55.921L45.5642 48.489Z" fill="#F7A41D"/>
<path d="M49.4419 48.489V79.189H34.2539L38.7779 75.31L40.3939 72.079H42.3329V55.92H39.4239L42.6559 53.012L45.5639 48.488L49.4419 48.489Z" fill="#F7A41D"/>
<path d="M40.3939 72.079L42.0099 76.926L34.2539 79.188L40.3939 72.079Z" fill="#F7A41D"/>
<path d="M84.0202 48.489V53.336L74.0022 54.306H57.1982V48.489H84.0202Z" fill="white"/>
<path d="M84.02 53.3359L66.891 73.3709V74.6639H56.875L74.002 54.3059V53.3359H84.02Z" fill="white"/>
<path d="M84.342 73.371V79.188H56.875V74.664L66.569 73.371H84.342ZM87.897 48.489H95.007V79.189H87.897V48.489ZM127.321 63.03V75.633H121.505V67.555L116.335 64L111.81 63.03H127.321Z" fill="white"/>
<path d="M116.334 63.354L121.504 67.554L111.81 63.031L116.334 63.354Z" fill="white"/>
<path d="M127.321 75.633C124.025 77.993 119.566 79.511 115.139 79.511C105.767 79.511 98.626 72.79 98.626 63.903C98.626 55.081 105.896 48.36 115.429 48.36C120.05 48.36 124.865 50.137 128 52.884L123.799 57.731C121.505 55.695 118.37 54.499 115.429 54.499C109.936 54.499 105.67 58.669 105.67 64.032C105.67 69.462 109.968 73.598 115.462 73.598C117.304 73.598 119.598 72.854 121.602 71.82L127.321 75.633Z" fill="white"/>
</svg>
